<svg viewBox="0 0 300 316" xmlns="http://www.w3.org/2000/svg"><path d="M91 30L68 54 21 8q-3-4-8.5-4t-9 3.5Q0 11 0 16.5T4 25l46 46-24 24q-3 3-3.5 6.5t1 7q1.5 3.5 4.5 6t7 1.5h60q7 1 12.5-4.5T113 99V39q0-4-2.5-7t-6-4.5q-3.5-1.5-7-1T91 30zm159 206l24-23q3-3 3.5-6.5t-1-7q-1.5-3.5-4.5-6t-7-1.5h-60q-7-1-12 4.5t-5 12.5v60q-1 4 1.5 7t6 4.5q3.5 1.5 7 1t6.5-3.5l24-24 46 46q3 4 8.5 4t9-3.5q3.5-3.5 3.5-9t-4-8.5l-46-47zm-45-120h60q4 1 7-1.5t4.5-6q1.5-3.5 1-7T274 95l-24-24 46-46q4-3 4-8.5t-3.5-9Q293 4 287.5 4T279 8l-46 46-24-24q-3-3-6.5-3.5t-7 1q-3.5 1.5-6 4.5t-1.5 7v60q0 7 5 12.5t12 5.5v-1zM95 191H35q-4 0-7 2.5t-4.5 6q-1.5 3.5-1 7T26 213l24 23-46 47q-6 5-4 12t9 9q7 2 12-4l47-46 23 24q3 3 6.5 3.5t7-1q3.5-1.5 6-4.5t2.5-7v-60q0-7-5.5-12T95 192v-1z"/></svg>