<svg viewBox="0 0 300 316" xmlns="http://www.w3.org/2000/svg"><path d="M300 141q0-14-10.5-25T264 104q-9-22-25.5-38.5T200 40q-1-15-12-25.5T163 4h-25q-15 0-26 10.5T100 40q-22 9-38.5 25.5T36 104q-14 1-24 10.5t-11.5 23q-1.5 13.5 6 25T27 177q6 29 23.5 52.5T94 266l-6 22q-1 5 1.5 9.5T97 304h3q4 0 7.5-2.5t4.5-6.5l6-20q32 9 65 0l5 20q1 5 5.5 7.5t9.5 1q5-1.5 7.5-6t1.5-9.5l-6-22q26-13 43.5-36.5T273 177q12-3 19.5-13t7.5-23zM150 254q-13 0-26-3l21-80q1-4 5-4t5 4l21 79q-13 4-26 4zm49-13l-20-76q-2-10-10.5-16.5T150 142q-10 0-18.5 6.5T121 165l-20 76q-18-10-30.5-26T53 179h10q14-1 24.5-11.5t11-25.5q.5-15-10-26T64 104q15-27 43-40 6 7 14 11t16 4h26q8 0 16-4t14-11q28 13 43 40-14 1-24.5 12t-10 26q.5 15 11 25.5T237 179h10q-5 20-17.5 36T199 241z"/></svg>