<svg viewBox="0 0 300.0013 316" xmlns="http://www.w3.org/2000/svg"><path d="M175 79q0-16 11-27t26.5-11Q228 41 239 52t11 26.5q0 15.5-11 26.5t-26.5 11q-15.5 0-26.5-11t-11-26zm-13 40q-3-44-30-73Q94 7 13 4 8 4 4 7.5T0 17q0 5 3.5 8.5T12 29q119 4 125 90-26 8-50 21-36 18-58 42-28 31-29 68-1 19 11 34.5T42 303q15 2 28.5-4T92 281q8-12 8-27 0-40 19-73 13-22 31-37 18 15 30 37 20 32 20 72 0 19 12.5 33.5T244 303q15 2 28-4t20.5-18.5Q300 268 300 254q0-40-29-72-21-24-59-43-24-12-50-20zm-62-28q0-15-11-26T62.5 54Q47 54 36 65T25 91.5Q25 107 36 118t26.5 11Q78 129 89 118t11-27z"/></svg>