<svg viewBox="0 0 300 316" xmlns="http://www.w3.org/2000/svg"><path d="M275 148q0-3-2-4.5t-4-2.5h-6q-6 0-9.5-3.5T250 129q0-5 3.5-9t9.5-4q2 1 4-1t2-4.5q0-2.5-2-4.5t-4-2h-25q-6 0-9.5-3.5t-3.5-9q0-5.5 3.5-9T238 79h25q12 0 21.5 9t9.5 22q0 8-4 15 10 9 10 22.5t-9 22.5q-9 9-22 9h-31q-6 0-9.5-3.5t-3.5-9q0-5.5 3.5-9t9.5-3.5h31q2 0 4-2t2-4zM22 100l-11 6q-6 4-9 10T.5 128q1.5 6 7 9.5T20 141h43q5 0 8.5-3.5T75 129q0-5-3.5-9t-8.5-4H43q15-8 22-15 10-10 10-22 0-16-11-27T37.5 41Q22 41 11 52T0 79q0 5 3.5 8.5t9 3.5q5.5 0 9-3.5T25 79q0-5 3.5-9t9-4q5.5 0 9 4t3.5 9.5Q50 85 22 100zm112-58l4-3v52q0 6 3.5 9.5t8.5 3.5q5 0 8.5-3.5T162 92V22q1-5-2.5-10T151 5q-5-2-10-1t-9 5l-16 16q-4 3-4 8.5t4 9q4 3.5 9 3.5t9-4zm29 87h-25q-13 0-22.5 9t-9.5 22v113q0 13 9.5 22t22.5 9h25q12 0 21.5-9t9.5-22V160q0-13-9.5-22t-22.5-9h1zm106 75h-19q-13 0-22 9t-9 22v38q0 13 9 22t22 9h19q13 0 22-9t9-22v-38q0-13-9-22t-22-9zM50 166H31q-13 0-22 9.5T0 198v75q0 13 9 22t22 9h19q13 0 22-9t9-22v-75q0-13-9-22.5T50 167v-1z"/></svg>