<svg viewBox="0 0 300 316" xmlns="http://www.w3.org/2000/svg"><path d="M300 148q0 17-12 29.5T259 191q-19 41-59 62v38q0 6-3.5 9.5T188 304h-75q-6 0-9.5-3.5T100 292v-39q-37-20-57-57-2-4-.5-9t6-7.5q4.5-2.5 9.5-1t7 6.5q12 23 35 39 24 17 50 17 19 0 37.5-9.5t32-25Q233 191 239 174q2-4 6-6.5t8-1.5h3q7 0 12.5-4.5t6-12q.5-7.5-3.5-13t-11-7.5q-4 0-7-3t-4-8q-2-24-15.5-44T199 42q-5 17-14 32-24 35-62 56 6 1 10 5.5t4.5 10.5q.5 6-2.5 11t-8 7.5q-5 2.5-11 1.5t-10.5-5q-4.5-4-5.5-10t2-11q-44 18-91 14-4-1-7-3.5T.5 144q-.5-4 1-7.5T6 131q12-13 17-30 12-28 21-42 16-25 38-38 28-17 68-17 30 0 56.5 13.5t44 37Q268 78 273 107q12 6 19.5 17t7.5 24zm-100 0q0-8-5.5-13.5T181 129q-8 0-13.5 5.5t-5 13.5q.5 8 5.5 13.5t13 5q8-.5 13.5-5.5t5.5-13z"/></svg>