<svg viewBox="0 0 300 316" xmlns="http://www.w3.org/2000/svg"><path d="M188 66h-16q-2-6-5-11l11-11q4-4 4-9t-4-9q-4-4-9-4t-9 4l-11 11q-5-3-11-5V16q0-5-4-8.5T125 4q-5 0-8.5 3.5T113 17v13q-11 1-20 7L82 26q-4-4-9-4t-8.5 3.5Q61 29 61 34.5t3 8.5l10 10-25 25-10-10q-3-3-8.5-3t-9 3.5Q18 72 18 77t4 9l11 11q-6 9-7 20H13q-6 0-9.5 3.5T0 129q0 5 3.5 9t9.5 4h15q2 6 5 11l-11 11q-4 3-4 8.5t3.5 9Q25 185 30 185t9-3l12-11q5 3 12 5v16q0 5 3.5 8.5T75 204q5 0 9-3.5t4-8.5v-14q17-3 29-15l34-33 8 8q3 4 8.5 4t9-4q3.5-4 3.5-9t-4-9l-9-9q6-9 7-20h14q5 0 8.5-3.5T200 79q0-5-3.5-9t-9.5-3l1-1zm-69 38q-8 0-13.5-5.5T100 85q0-8 5.5-13.5T119 66q8 0 13.5 5.5t5 13.5q-.5 8-5.5 13.5t-13 5.5zm169 62h-16q-2-6-5-11l11-11q4-3 4-8.5t-3.5-9Q275 123 270 123t-9 3l-12 11q-5-3-11-5v-16q0-5-4-8.5t-9-3.5q-5 0-8.5 3.5T213 116v14q-18 3-30 15l-34 33-8-8q-3-4-8.5-4t-9 4q-3.5 4-3.5 9t4 9l9 9q-6 9-7 19h-13q-6 0-9.5 4t-3.5 9q0 5 3.5 8.5t9.5 3.5h15q2 7 5 12l-11 11q-4 4-4 9t4 9q4 4 9 4t9-4l11-11q5 3 12 5v15q0 6 3.5 9.5t8.5 3.5q5 0 9-3.5t4-9.5v-13q10-2 19-7l11 11q4 4 9 4t8.5-3.5q3.5-3.5 3.5-9t-3-8.5l-10-10 25-25 10 10q3 3 8.5 3t9-3.5q3.5-3.5 3.5-8.5t-4-9l-11-11q6-9 7-20h14q5 0 8.5-3.5t3.5-8.5q0-5-3.5-9t-8.5-4zm-107 75q-8 0-13.5-5t-5-13q.5-8 5.5-13.5t13-5.5q8 0 13.5 5.5T200 223q0 8-5.5 13t-13.5 5z"/></svg>