<svg viewBox="0 0 300.0011 316" xmlns="http://www.w3.org/2000/svg"><path d="M285 90l15-71q1-8-5-12.5T282 5l-50 23Q195 4 150 4T68 29L18 5Q11 2 5 6.5T0 19l15 71Q0 121 0 154q0 41 20 75.5T74.5 284q34.5 20 75.5 20t75.5-20q34.5-20 54.5-54.5t20-75.5q0-33-15-64zM65 109q3-4 8-5t10 3l35 26 4 5q3 6 3 10 0 8-5.5 13.5t-13 5.5q-7.5 0-13-5.5T88 148v-6l-21-16q-4-3-4.5-8t2.5-9zm156 104q-9 8-21 15-26 13-50 13t-49-13q-13-7-22-15-4-3-4-8t3.5-9q3.5-4 8.5-4.5t9 3.5q6 5 16 11 20 11 38 11t38-11q10-6 16-11 4-4 9-3.5t8.5 4.5q3.5 4 3.5 9t-4 8zm12-87l-21 16q1 3 1 6 0 8-5.5 13t-13.5 5q-8 0-13.5-5t-5.5-13.5q0-8.5 7-14.5l36-26q4-4 9-3t8 5q3 4 2.5 9t-4.5 8z"/></svg>