<svg viewBox="0 0 300 316" xmlns="http://www.w3.org/2000/svg"><path d="M150 4q-41 0-75.5 20T20 78.5Q0 113 0 154q2 57 33 95 29 35 73 47.5t88 0q44-12.5 73-47.5 31-38 33-95 0-41-20-75.5T225.5 24Q191 4 150 4zm44 100q8 0 13.5 5.5T213 123q0 8-5.5 13.5t-13.5 5q-8-.5-13.5-5.5t-5.5-13q0-8 5.5-13.5T194 104zM88 229q-19-2-24-15-3-11 3-27 5-14 15-25 6-7 13 1t12.5 21.5Q113 198 112 204q1 10-6.5 17.5T87 229h1zm18-88q-8 0-13-5t-5-13q0-8 5-13.5t13-5.5q8 0 13.5 5.5T125 123q0 8-5.5 13.5T106 142v-1zm116 84q-4 4-9 4t-9-3q-23-20-54-22-5 0-9-3.5t-3.5-9q.5-5.5 4-9t8.5-3.5q40 2 71 28 4 4 4 9t-3 9z"/></svg>