<svg viewBox="0 0 300 316" xmlns="http://www.w3.org/2000/svg"><path d="M150 210q-13 0-22-9t-9-22q0-13 9-22t22-9q13 0 22 9t9 22q0 13-9 22t-22 9zm13-194q0-5-4-8.5T150 4q-5 0-9 3.5t-4 9.5v37h26V16zm137 238q0 21-15 35-7 7-16 11t-19 4q-7 0-16-3l-32-8q-17-5-28.5-19T162 242v-8q10-2 18-8l8 8-1 1q0 8 5.5 13.5T206 254q8 0 13.5-5.5T225 235q0-8-5.5-13.5T206 216v1l-8-8q5-8 7-18h8q5 1 8.5-3t3.5-9q0-5-3.5-8.5T213 167h-8q-2-10-7-18l7-8 1 1q8-1 13.5-6t5.5-13q0-8-5.5-13.5T206 104q-8 0-13.5 5.5T187 123h1l-8 8q-8-5-17-7v-8q0-5-4-8.5t-9-3.5q-5 0-8.5 3.5T138 117v7q-10 2-18 7l-8-7v-1q0-8-5-13.5T94 104q-8 0-13.5 5.5T75 123q0 8 5.5 13.5T94 142v-1l9 8q-6 8-8 17h-7q-6 0-9.5 4t-3.5 9q0 5 3.5 8.5T88 191h7q2 10 8 18l-8 8h-1q-8-1-13.5 4.5T75 235q0 8 5.5 13.5T94 254q8 0 13.5-5.5T113 235h-1l8-9q8 6 18 8v7q0 19-11.5 33T98 293l-33 9q-7 2-15 2-10 0-19-4t-16-11Q0 275 0 254q0-26 6-52l21-90q6-25 26.5-41.5T100 54h38v27q6-2 12-2t13 2V54h37q26 0 46.5 16.5T273 112l21 90q6 26 6 52z"/></svg>