<svg viewBox="0 0 300 316" xmlns="http://www.w3.org/2000/svg"><path d="M175 91V10q18 7 31 20l43 43q13 13 20 31h-82q-5 0-8.5-3.5T175 91zm100 44v106q0 17-8.5 31.5t-23 23Q229 304 213 304H88q-17 0-31.5-8.5t-23-23Q25 258 25 241V66q0-16 8.5-30.5t23-23Q71 4 88 4h62v87q0 16 11 27t27 11h87v6zM125 254q0-5-3.5-9t-9.5-4h-12v-12q0-5-3.5-9t-9-4q-5.5 0-9 4t-3.5 9v25q0 5 3.5 8.5T87 266h25q6 0 9.5-3.5t3.5-8.5zm0-88q0-5-3.5-8.5T112 154H88q-6 0-9.5 3.5T75 166v25q0 6 3.5 9.5t9 3.5q5.5 0 9-3.5t3.5-9.5v-12h13q5 0 8.5-3.5t3.5-9.5zm0-50q0-5-3.5-8.5T112 104H88q-6 0-9.5 3.5t-3.5 9q0 5.5 3.5 9T88 129h24q6 0 9.5-3.5t3.5-9.5zm100 113q0-5-3.5-9t-9-4q-5.5 0-9 4t-3.5 9v12h-12q-6 0-9.5 4t-3.5 9q0 5 3.5 8.5t9.5 3.5h25q5 0 8.5-3.5t3.5-8.5v-25zm0-63q0-5-3.5-8.5T212 154h-24q-6 0-9.5 3.5t-3.5 9q0 5.5 3.5 9t9.5 3.5h12v12q0 6 3.5 9.5t9 3.5q5.5 0 9-3.5t3.5-9.5v-25z"/></svg>