<svg viewBox="0 0 300 316" xmlns="http://www.w3.org/2000/svg"><path d="M300 254q0 5-3.5 8.5T288 266h-25v25q0 6-4 9.5t-9 3.5q-5 0-8.5-3.5T238 291v-25h-25q-6 0-9.5-3.5T200 254q0-5 3.5-8.5t9.5-4.5h25v-25q0-5 3.5-8.5t8.5-3.5q5 0 9 3.5t4 8.5v25h25q5 0 8.5 4t3.5 9zm-125 0q0-20 10-37t27.5-27.5Q230 179 250 179q25 0 44 15 11-39 1-77.5T257 49q-28-29-67-39.5T112.5 9Q74 19 45 47T5.5 114Q-5 153 5 191.5T43 259q28 29 67.5 40t79.5 0q-15-20-15-45zm-12-100q0 5-4 9l-38 38q-3 3-8.5 3t-9-3.5Q100 197 100 192t4-9l33-34V92q0-6 4-9.5t9-3.5q5 0 9 3.5t4 9.5v62z"/></svg>