<svg viewBox="0 0 300 316" xmlns="http://www.w3.org/2000/svg"><path d="M99 254q1 3 1 6 0 13-9 22t-22 9q-13 0-22-9t-9-22v-6h61zm102 0q-1 3-1 6 0 13 9 22t22 9q13 0 22-9t9-22v-6h-61zm99-63v13q0 10-7.5 17.5T275 229H25q-10 0-17.5-7.5T0 204v-13q0-20 14.5-35T50 141q5 1 9-3t4-9q0-5-4-8.5t-9-3.5q-11-1-21 3l19-51q7-18 23-29t35-11h48q16 0 29.5 7T205 56l43 60h-23q-5 0-8.5 4t-3.5 9q0 5 3.5 8.5t8.5 3.5h25q21 0 35.5 15t14.5 35zm-127-64q-3-5-8-8t-10-3h-26l19-30q3-5 1.5-10t-5.5-7.5q-4-2.5-9-1.5t-8 5l-26 43q-3 10 3 18.5t16 8.5h26l-19 30q-3 5-1.5 10t5 7.5q3.5 2.5 6.5 2.5 7 0 11-6l24-38q3-5 3-10.5t-2-10.5z"/></svg>