<svg viewBox="0 0 300 316" xmlns="http://www.w3.org/2000/svg"><path d="M256 191q-8 0-13-5t-5-13v-50q0-8 5-13.5t13-5.5q8 0 13.5 5.5T275 123v50q0 8-5.5 13t-13.5 5zm-31-18v-50q0-8-5.5-13.5T206 104q-8 0-13 5.5t-5 13.5v50q0 8 5 13t13 5q8 0 13.5-5t5.5-13zm31 43q-14 0-25-7-11 7-25 7-17 0-30-12t-13-29v-43l24-105q2-8-3-15t-14-8q-7 0-12.5 4.5T150 20l-25 109-25-109q-2-7-7.5-11.5T79 4.5q-8 .5-13 7T63 27l22 96q13 2 23 9t15.5 16.5Q129 158 130 169q1 20-11 35l-33 33q-4 4-9 4t-8.5-3.5Q65 234 65 229t3-9l30-29q8-8 7-19.5T94 153q-7-6-16.5-4.5T61 156l-33 34q-15 15-15 36t15 36l19 20q11 11 24.5 16.5T100 304h113q16 0 30.5-8.5t23-22.5q8.5-14 8.5-31v-30q-9 5-19 5v-1z"/></svg>