<svg viewBox="0 0 300 316" xmlns="http://www.w3.org/2000/svg"><path d="M200 79q-21 0-35.5 14.5T150 129v125q0 21 14.5 35.5T200 304h50q21 0 35.5-14.5T300 254V129q0-21-14.5-35.5T250 79h-50zm63 187h-63q-5 0-8.5-3.5T188 254q0-5 3.5-9t8.5-4h63q5 0 8.5 4t3.5 9q0 5-3.5 9t-9.5 4l1-1zm0-62h-63q-5 0-8.5-3.5T188 192q0-6 3.5-9.5t8.5-3.5h63q5 0 8.5 3.5t3.5 8.5q0 6-3.5 9.5T262 204h1zm0-63h-63q-5 0-8.5-3.5T188 129q0-5 3.5-8.5t8.5-3.5h63q5-1 8.5 3t3.5 9q0 5-3.5 8.5T262 141h1zM138 29h-13v212H25v13q0 5-3.5 8.5T12 267h1q-6-1-9.5-4.5T0 254v-88q0-5 3.5-8.5T13 154q5 0 8.5 3.5T25 167v12h38V29H50q-5 0-9-3.5T37 16h1q0-5 3.5-8.5T50 4h88q5 0 8.5 3.5T150 17q0 5-3.5 8.5T137 29h1z"/></svg>