<svg viewBox="0 0 300 316" xmlns="http://www.w3.org/2000/svg"><path d="M188 54h-75q-17 0-31.5 8.5t-23 23Q50 100 50 117v74q0 17 8.5 31.5t23 23Q96 254 112 254h76q16 0 30.5-8.5t23-23Q250 208 250 192v-76q0-16-8.5-30.5t-23-23Q204 54 187 54h1zm-31 147q-3 3-7 3t-7-3q-16-12-27-25-16-18-16-33 0-11 7.5-19t18-8q10.5 0 17.5 7.5t7 17.5q0-10 7-17.5t17.5-7.5q10.5 0 18 8t7.5 19q0 15-16 33-11 13-27 25zM75 38V16q0-5 3.5-8.5T88 4h125q5 0 8.5 3.5T225 16v22q-18-9-38-9h-74q-20 0-38 9zm38 241h75q19 0 37-9v21q0 6-3.5 9.5T213 304H88q-6 0-9.5-3.5T75 291v-21q18 9 37 9h1z"/></svg>