<svg viewBox="0 0 300 316" xmlns="http://www.w3.org/2000/svg"><path d="M278 19q-11-9-24.5-12.5T226 5l-22 6q-18 3-29.5 17T163 60v218q-13 2-25 0V60q0-18-11.5-32T97 11L74 5Q60 3 46.5 6.5t-24 12Q12 27 6 40T0 66v160q0 23 14.5 40.5T51 288l79 14q10 2 20 2t20-2l79-14q22-4 36.5-21.5T300 226V66q0-13-6-26t-16-21zM87 228q-1 4-4.5 7t-7.5 3l-40-9q-5-1-8-5.5t-2-9.5q1-5 5.5-8t9.5-2l38 9q5 1 7.5 5.5T87 228zm25-46q-1 4-4.5 6.5T100 191l-65-13q-5-1-8-5.5t-2-9.5q1-5 5.5-7.5T40 154l63 13q5 1 7.5 5t1.5 10zm0-50q-1 4-4.5 6.5T100 141l-65-13q-5-1-8-5.5t-2-9.5q1-5 5.5-7.5T40 104l63 13q5 1 7.5 5t1.5 10zm0-50q-1 4-4.5 7t-7.5 3L35 79q-5-1-8-5.5T25 64q1-5 5.5-8t9.5-2l63 13q5 1 7.5 5.5T112 82zm128 151l-40 8q-4 0-7.5-2.5t-4.5-7q-1-4.5 1.5-9t7.5-5.5l38-9q5-1 9.5 2t5.5 8q1 5-2 9t-8 6zm25-55q-32 7-65 13-4 0-7.5-2.5T188 181q-1-5 1.5-9t7.5-5l63-13q5-1 9.5 1.5t5.5 7.5q1 5-2 9.5t-8 5.5zm0-50q-32 7-65 13-4 0-7.5-2.5T188 131q-1-5 1.5-9t7.5-5l63-13q5-1 9.5 1.5t5.5 7.5q1 5-2 9.5t-8 5.5zm0-49q-32 6-65 13-4 0-7.5-3t-4.5-7.5q-1-4.5 1.5-9T197 67l63-13q5-1 9.5 2t5.5 8q1 5-2 9.5t-8 5.5z"/></svg>