<svg viewBox="0 0 300.0063 316" xmlns="http://www.w3.org/2000/svg"><path d="M150.006 126q18-15 41.5-19.5t46.5 2.5v-8q0-24-12-44.5t-32.5-32q-20.5-11.5-44.5-11.5t-44.5 11.5q-20.5 11.5-32 32t-11.5 44.5v8q23-7 46.5-2.5t42.5 19.5zm-10 51q10 1 19 0-4-9-9-16-6 7-10 16zm123-42q-7-5-16-9-5 23-20.5 41t-37.5 27q1 6 1 12 0 21-8 39.5t-23 33.5q20 14 43.5 16t45-7.5q21.5-9.5 35.5-29t16.5-43q2.5-23.5-7-45t-29.5-35.5zm-16-9zm-138 80q0-6 1-12-22-9-37.5-27t-21.5-41q-22 11-35.5 30t-15.5 42.5q-2 23.5 8 45.5t29.5 35.5q19.5 13.5 43 15.5t45.5-8q7-3 14-8-15-14-23-33t-8-40zm56-5q-15 3-31 0v5q0 26 16 46 15-20 15-46v-5zm-49-31q6-15 16-27-25-16-53-13 11 27 37 40zm52-27q9 12 15 27 26-13 37-40-29-3-52 13z"/></svg>