<svg viewBox="0 0 300 316" xmlns="http://www.w3.org/2000/svg"><path d="M75 229q5 0 9-3.5t4-8.5v-26h125v25q0 6 3.5 9.5t8.5 3.5q5 0 8.5-3.5t3.5-8.5V66q1-15 11.5-26T275 29q5 0 9-3.5t4-9q0-5.5-4-9T275 4q-17 0-31.5 8.5t-23 23Q212 50 212 66v25H88V66q0-15 10.5-26T125 29q5 0 8.5-3.5t4-9q.5-5.5-3.5-9T125 4q-17 0-31.5 8.5T71 35.5Q63 50 63 66v150q0 6 3.5 9.5T75 229zm138-113v50H88v-50h125zm50 188q-11 0-21-4t-17-11q-7 7-17 11t-20.5 4q-10.5 0-20.5-4t-17-11q-7 7-17 11t-20.5 4q-10.5 0-20.5-4t-17-11q-7 7-17 11t-20 4q-20 0-34-13-4-3-4-8.5t3.5-9q3.5-3.5 8.5-4t9 3.5q7 6 16 6t16.5-5q7.5-5 9.5-12 2-3 5-5.5t7-2.5q4 0 7 2.5t5 5.5q2 7 9.5 12t16 5q8.5 0 16-5t9.5-12q2-3 5-5.5t7-2.5q4 0 7 2.5t5 5.5q2 7 9.5 12t16 5q8.5 0 16-5t9.5-12q2-3 5-5.5t7-2.5q4 0 7 2.5t5 5.5q2 7 9.5 12t16.5 5q9 0 16-6 4-4 9-3.5t8.5 4q3.5 3.5 3.5 9t-4 8.5q-14 13-33 13z"/></svg>