<svg viewBox="0 0 300 316" xmlns="http://www.w3.org/2000/svg"><path d="M250 4H50Q29 4 14.5 18.5T0 54v150q0 21 14.5 35.5T50 254h37l46 39q8 7 17 7t16-6l48-40h36q21 0 35.5-14.5T300 204V54q0-21-14.5-35.5T250 4zM150 229q-8 0-13.5-5.5T131 210q0-8 5.5-13.5t13.5-5q8 .5 13.5 5.5t5.5 13q0 8-5.5 13.5T150 229zm21-80q-3 2-5.5 6t-2.5 9v2q0 6-4 9.5t-9 3.5q-5 0-9-3.5t-4-9.5v-2q1-12 7.5-22.5t15-14.5q8.5-4 13-12t1.5-18q-1-6-6-11t-11-6q-13-3-22.5 4.5T125 104q0 5-3.5 9t-9 4q-5.5 0-9-4t-3.5-9q0-12 5-22t14.5-17.5q9.5-7.5 21-9.5t23.5 1q12 3 21.5 12.5T198 91q5 18-3 34.5T171 149z"/></svg>