<svg viewBox="0 0 300 316" xmlns="http://www.w3.org/2000/svg"><path d="M125 202v39h-5l-5 41q-1 9-8 15.5T90 304h-1q-11 0-18.5-8.5T65 276l4-34-5-14q-6-18-9-29-5-17-5-30-25 20-25 72 0 6-3.5 9.5t-9 3.5q-5.5 0-9-3.5T0 242q0-49 19-77 15-21 40-29 6-9 17.5-14.5T100 116v50q0 13 7 22.5t18 13.5zM289 90q-19-8-33-22.5T237 35V13q1-5-2.5-7.5T226 4q-9 3-16 11t-9 18q-27 9-40 35-11 20-11 42v7h13q5 0 8.5 3.5t3.5 8.5v38q0 12-7 21.5T150 202v40h25v36q0 9 6 16.5t15 9.5q11 2 20-5.5t9-19.5v-42l5-23q4-15 5.5-25.5T237 165v-25q1-5 4-8.5t8-3.5l35-4q7 0 11.5-5.5T300 107q0-6-3-10.5t-8-6.5zm-164 76q0 6 3.5 9.5t9 3.5q5.5 0 9-3.5t3.5-9.5v-50h-25v50z"/></svg>