<svg viewBox="0 0 300 316" xmlns="http://www.w3.org/2000/svg"><path d="M63 129H13q-6 0-9.5-3.5T0 116V91q0-15 11-26t27-11h25q5 0 8.5 3.5T75 67v49q0 6-3.5 9.5T63 129zm112 0h-50q-5 0-8.5-3.5T113 116V66q0-5 3.5-8.5T125 54h50q5 0 9 3.5t3 9.5v49q1 6-3 9.5t-9 3.5zm113 0h-50q-6 0-9.5-3.5T225 116V66q0-5 3.5-8.5T238 54h25q15 0 26 11t11 26v25q0 6-3.5 9.5T288 129zM63 254H38q-16 0-27-11T0 216v-25q0-5 3.5-8.5T13 179h50q5 0 8.5 3.5T75 191v50q0 6-3.5 9.5T63 254zm112 0h-50q-5 0-8.5-3.5T113 242v-51q0-5 3.5-8.5t8.5-3.5h50q5 0 9 3.5t3 8.5v50q1 6-3 9.5t-9 3.5zm88 0h-25q-6 0-9.5-3.5T225 242v-51q0-5 3.5-8.5t9.5-3.5h50q5 0 8.5 3.5t3.5 8.5v25q0 16-11 27t-26 11z"/></svg>