<svg viewBox="0 0 300 316" xmlns="http://www.w3.org/2000/svg"><path d="M209 79q-7 0-17 5-15-7-29-4 2-22 11-36 7-9 17-13 5-2 9.5-2t8.5 3.5q4 3.5 4 8.5-6 0-9.5 4t-3.5 9q0 5 3.5 9t9.5 3q10 1 17.5-6.5T238 42q0-16-11-27T200 4q-13 0-25 7-15 8-25 25-11-20-32-31-5-2-9.5-.5t-7 6.5q-2.5 5-1 9.5T107 28q27 13 30 52-14-3-28 4-8-5-18-5-18 0-39.5 16T16 135Q0 163 0 191.5T16 248q14 24 35.5 40T91 304q9 0 16-4 15 7 30 2 13 4 26 0 15 5 30-2 7 4 16 4 18 0 39.5-16t35.5-40q16-28 16-56.5T284 135q-14-24-35.5-40T209 79zm-39 86l15-31q3-5 9-5t9 5l15 31q2 5-1 9.5t-8 4.5h-30q-6 0-9-4.5t0-9.5zm-88 0l15-31q3-5 9-5t9 5l15 31q3 5 0 9.5t-9 4.5H91q-5 0-8-4.5t-1-9.5zm153 45q-6 5-22 15-14 8-26 14v-4q1-5-3-8.5t-9-3.5q-5 0-8.5 3.5T163 235v12q-7 1-13 1-28 0-53-13-14-8-32-24v-1q-4-3-1.5-8t7.5-4l13 3q22 7 28 7v8q1 6 4.5 9.5t8.5 3.5q5 0 9-3.5t4-8.5v-7h12q22 0 69-10l10-2q5-1 7.5 4t-1.5 8z"/></svg>