<svg viewBox="0 0 300 316" xmlns="http://www.w3.org/2000/svg"><path d="M300 148q0-10-2-19H33q-7 0-13 4t-9 10Q1 168 0 205q0 41 14 67 15 32 46 32h37q6 0 11-3.5t7-9.5q4-11 13.5-17.5T150 267q12 0 21.5 6.5T185 291q2 6 7 9.5t11 3.5h32q13 0 24.5-4.5t21-13Q290 278 295 266t5-25v-93zM88 216q-11 0-18-7t-7-17.5q0-10.5 7-17.5t17.5-7.5q10.5-.5 18 7t7.5 18q0 10.5-7.5 17.5T87 216h1zm137 25q-10 0-17.5-7t-7.5-17.5q0-10.5 7.5-17.5t17.5-7q10 0 17.5 7t7.5 17.5q0 10.5-7.5 17.5t-17.5 7zm61-137H27q26-52 74-88 15-12 35-12t36 11l98 73q9 7 16 16z"/></svg>