<svg viewBox="0 0 300 316" xmlns="http://www.w3.org/2000/svg"><path d="M235 157l47 21q3 1 6 1t6-2q3-2 5-6t0-9q-2-5-6-7l-91-40 37-17q16-8 26-23.5T275 41V16q0-5-3.5-8.5t-9-3.5q-5.5 0-9 3.5T250 16v25q0 11-6 20t-16 14l-45 21q4-8 4-17 0-16-11-27t-26.5-11Q134 41 123 52t-11 27q0 9 4 17L72 75q-10-5-16-14t-6-20V16q0-5-3.5-8.5t-9-3.5q-5.5 0-9 3.5T25 16v25q0 18 10 33.5T61 98l37 17-91 40q-4 2-6 7t0 9q2 4 5 6t6 2q3 0 6-1l47-21-47 63Q0 244 0 273v18q0 6 3.5 9.5t9 3.5q5.5 0 9-3.5T25 291v-18q0-21 13-38l41-55q-4 12-4 24 0 20 10 37.5t27.5 27.5q17.5 10 37.5 10t37.5-10q17.5-10 27.5-27.5t10-37.5q0-12-4-24l42 55q12 17 12 38v18q0 6 3.5 9.5t9 3.5q5.5 0 9-3.5t3.5-9.5v-18q0-29-17-53l-48-63z"/></svg>