<svg viewBox="0 0 300 316" xmlns="http://www.w3.org/2000/svg"><path d="M275 186v-20q0-20-14.5-35T225 116.5q-21 .5-35.5 15T175 167v19q-11 7-18 18t-7 25v25q0 21 14.5 35.5T200 304h50q21 0 35.5-14.5T300 254v-25q0-14-7-25t-18-18zm-50 74q-8 0-13.5-5.5t-5.5-13q0-7.5 5.5-13T225 223q8 0 13.5 5.5t5.5 13q0 7.5-5.5 13T225 260zm25-81h-50v-13q0-10 7.5-17.5T225 141q10 0 17.5 7.5T250 166v13zm50-67v4q0 12-6 21-9-20-27.5-33T225 91q-28 0-48.5 18T151 154h-1q-16 0-26.5-11T113 117q0-6-4-9.5t-9-3.5q-5 0-9 3.5t-4 8.5q0 16-10.5 27T50 154H38q-16 0-27-11T0 117v-5l15-63q6-20 22.5-32.5T75 4h13v50q0 5 3.5 8.5t8.5 4q5 .5 8.5-3.5t3.5-9V4h76v50q0 5 3.5 8.5t8.5 4q5 .5 8.5-3.5t3.5-9V4h13q21 0 37.5 12.5T285 49l15 63zM125 229v25q0 29 19 50H63q-21 0-35.5-14.5T13 254v-80q12 5 25 5h12q15 0 28-6.5t22-18.5q8 10 19.5 17t25.5 8q-10 10-15 23t-5 27z"/></svg>