<svg viewBox="0 0 300 316" xmlns="http://www.w3.org/2000/svg"><path d="M238 4H63q-17 0-31.5 8.5t-23 23Q0 50 0 67v174q0 17 8.5 31.5t23 23Q46 304 63 304h175q16 0 30.5-8.5t23-23Q300 258 300 241V66q0-16-8.5-30.5t-23-23Q254 4 237 4h1zM100 140v28q0 20 14 34t34 14h7q12 0 23-5.5t18-15.5q3-5 8-6t9 2q4 3 5 8t-1 10q-11 15-27 24t-35 9h-7q-20 0-36.5-10T85 205q-10-17-10-37v-28q0-20 10-37t26.5-26.5Q128 67 148 67h7q19 0 35 8.5T217 99q2 5 1 10t-5 8q-4 3-9 2t-8-6q-7-10-18-15.5T155 92h-7q-20-1-34 13.5T100 140z"/></svg>