<svg viewBox="0 0 300 316" xmlns="http://www.w3.org/2000/svg"><path d="M297 229q-4 15-15 26l-31 31q-11 11-26 15v-60q0-5 3.5-8.5t8.5-3.5h60zm3-163v138h-62q-16 0-27 11t-11 26v63H63q-17 0-31.5-8.5t-23-23Q0 258 0 241V66q0-16 8.5-30.5t23-23Q46 4 63 4h175q16 0 30.5 8.5t23 23Q300 50 300 67v-1zM88 223q0-8-5.5-13.5T69 204q-8 0-13.5 5.5T50 223q0 8 5.5 13t13.5 5q8 0 13.5-5t5.5-13zm0-69q0-8-5.5-13.5T69 135q-8 0-13.5 5.5T50 154q0 8 5.5 13.5T69 173q8 0 13.5-5.5T88 154zm0-69q0-8-5.5-13.5T69 66q-8 0-13.5 5.5T50 85q0 8 5.5 13.5T69 104q8 0 13.5-5.5T88 85z"/></svg>