<svg viewBox="0 0 300 316" xmlns="http://www.w3.org/2000/svg"><path d="M213 216q0 6-4 9.5t-9 3.5H100q-5 0-8.5-3.5t-4-9q-.5-5.5 3.5-9t9-3.5h100q5 0 9 3.5t4 8.5zm-63-87q5 0 9-3.5t4-9.5V54q0-5-4-9t-9-4q-5 0-8.5 4t-3.5 9v62q0 6 3.5 9.5t8.5 3.5zM50 204H13q-6 0-9.5 3.5t-3.5 9q0 5.5 3.5 9T13 229h37q5 0 9-3.5t3.5-9q-.5-5.5-4-9T50 204zm238 0h-38q-5 0-8.5 3.5t-3.5 9q0 5.5 3.5 9t8.5 3.5h38q5 0 8.5-3.5t3.5-9q0-5.5-3.5-9T288 204zM271 95q-3-4-8.5-4t-8.5 4l-38 38q-3 3-3 8.5t3.5 9q3.5 3.5 8.5 3.5t9-4l38-37q3-4 3-9t-3-9h-1zM84 133L46 95q-3-4-8.5-4t-9 4q-3.5 4-3.5 9t4 9l37 37q4 4 9 4t9-3.5q4-3.5 4-9t-4-8.5z"/></svg>