<svg viewBox="0 0 300 316" xmlns="http://www.w3.org/2000/svg"><path d="M66 88q-4-4-3.5-9t3.5-9l58-55q10-11 26-11t27 11l57 55q3 4 3.5 9t-3.5 8.5q-4 3.5-9 3.5t-9-3l-53-52v168q0 5-4 8.5t-9 3.5q-5 0-8.5-3.5T138 204V36L84 88q-4 4-9 3.5T66 88zm193 16q-6 0-9 3-11 10-26.5 9T197 104l-9-9v109q0 16-11 27t-27 11q-16 0-26.5-11T113 204V95l-10 9q-11 11-26.5 12T50 107q-3-3-9.5-3t-11 4.5Q25 113 25 120v121q0 17 8.5 31.5t23 23Q71 304 87 304h126q16 0 30.5-8.5t23-23Q275 258 275 241V120q0-7-4.5-11.5T259 104z"/></svg>