<svg viewBox="0 0 300 316" xmlns="http://www.w3.org/2000/svg"><path d="M275 279h-12V79h12q5 0 9-3.5t4-9q0-5.5-4-9t-9-3.5h-12v-6q0-8-5.5-13.5T244 29h-6V16q0-5-4-8.5T225 4q-5 0-8.5 3.5T213 17v12h-7q-8 0-13.5 5.5T187 48v6h-74v-6q0-8-5.5-13.5T94 29h-6V16q0-5-4-8.5T75 4q-5 0-8.5 3.5T63 17v12h-7q-8 0-13 5.5T38 48v6H25q-5 0-9 3.5t-3.5 9q.5 5.5 4 9T25 79h13v200H25q-5 0-9 3.5t-3.5 9q.5 5.5 4 9T25 304h250q5 0 9-3.5t4-9q0-5.5-4-9t-9-3.5zm-85-81l-29 50q-4 6-11 6-3 0-7-2t-5-7q-1-5 1-10l26-44h-39q-10 0-16-8t-3-18l31-55q2-4 7-5.5t9.5 1q4.5 2.5 6 7.5t-.5 10l-25 43h39q5 0 10 3t7.5 8q2.5 5 2 10.5T190 198z"/></svg>