<svg viewBox="0 0 300 316" xmlns="http://www.w3.org/2000/svg"><path d="M0 129v75q0 19 10 34.5T37 261v18q0 5 4 9t9 3.5q5-.5 8.5-4T62 279v-13h176v13q-1 5 3 9t9 4q5 0 9-4t4-9v-18q17-7 27-22.5t10-34.5v-75q0-17-8.5-31.5t-23-22.5Q254 67 237 66V41h13q5 0 9-3.5t4-8.5q0-5-4-9t-9-4h-50q-5 0-9 4t-3.5 9q.5 5 4 9t8.5 4h13v24H100q5 1 8.5-3t4-9q.5-5-3.5-9t-9-4H50q-5 0-8.5 4T38 54q0 5 3.5 9t8.5 4h13q-17 0-31.5 8t-23 22.5Q0 112 0 129zm213 44q0-5-4-9t-9-4h-35q4-15 18-24t30-6.5q16 2.5 26.5 14.5t10.5 28.5q0 16.5-10.5 29T213 216q-16 2-30-6.5T165 185h35q5 0 9-3.5t4-8.5zm-115-5q-3-3-8.5-3t-9.5 3l-25 25q-7-14-3.5-30T68 137.5q13-9.5 29-8.5t27.5 12.5q11.5 11.5 13 28T129 199q-10 13-26 16.5T73 211l25-25q4-4 4-9t-4-9z"/></svg>