<svg viewBox="0 0 300 316" xmlns="http://www.w3.org/2000/svg"><path d="M13 104q-6 0-9.5-3.5T0 91V66q0-16 8.5-30.5t23-23Q46 4 63 4h25q5 0 8.5 3.5t3.5 9q0 5.5-3.5 9T88 29H63q-16 0-27 11T25 66v25q0 6-3.5 9.5T13 104zm87 187q0-5-3.5-8.5T88 279H63q-16 0-27-11t-11-27v-25q0-5-3.5-8.5t-9-3.5q-5.5 0-9 3.5T0 216v25q0 17 8.5 31.5t23 23Q46 304 63 304h25q5 0 8.5-3.5t3.5-9.5zm200-50v-25q0-5-3.5-8.5t-9-3.5q-5.5 0-9 3.5T275 216v25q0 16-11 27t-26 11h-25q-6 0-9.5 3.5t-3.5 9q0 5.5 3.5 9t9.5 3.5h25q16 0 30.5-8.5t23-23Q300 258 300 241zm-181-22l31-21 32 21q3 2 6.5 1.5t6.5-2.5q3-2 4-5.5t0-7.5l-12-34 28-22q2-2 3-5.5t0-7q-1-3.5-4-5.5t-7-2h-34l-12-33q-2-3-5-5t-6.5-2q-3.5 0-6.5 2t-4 5l-12 33H93q-4 0-7 2t-4 5.5q-1 3.5-.5 7T85 149l28 22-11 35q-1 3 0 6.5t4 6q3 2.5 6.5 2.5t6.5-2zM245 89l44-22q5-3 8-8t3-11q0-13-12-20L245 7q-11-6-21.5 0T213 26v43q0 6 2.5 11t8 8.5q5.5 3.5 11 3T245 89z"/></svg>