<svg viewBox="0 0 300.0026 316" xmlns="http://www.w3.org/2000/svg"><path d="M14 263l6-21-18-22q-4-5-1.5-11t8.5-7l114-21-21 114q-1 6-7 8.5T84 302l-23-18-21 6q-8 3-15-.5t-10.5-11Q11 271 14 263zm286-115q1 42-18.5 78T227 283q-35 21-77 21-11 0-24-2l14-76q5 3 11.5 3t11.5-6l17-16 18 17q5 5 13 5t13-6l23-23q3-4 3-9t-3.5-8.5q-3.5-3.5-9-3.5t-8.5 4l-18 18-17-17q-6-5-13.5-5t-13.5 5l-17 17-5-4 5-25q1-8-4.5-13.5T132 154L2 178q-2-13-2-24 0-42 21-77t57-54.5Q114 3 156 4q38 2 70.5 21.5t52 52Q298 110 300 148zm-162-32q0-6-6-10L94 81q-4-3-9-2t-8 5.5Q74 89 75 94t6 8l21 14-21 15q-5 3-6 8t2.5 10q3.5 5 10.5 5 3 0 6-2l38-25q5-4 6-10v-1zm60 0l21-14q5-3 6-8t-2-9.5q-3-4.5-8-5.5t-9 2l-38 25q-5 4-5 10.5t5 10.5l38 25q3 2 6 2 7 0 10.5-5t2.5-10q-1-5-6-8l-21-15z"/></svg>