<svg viewBox="0 0 300 316" xmlns="http://www.w3.org/2000/svg"><path d="M138 179H38v-50h100v50zm25-50v50h100v-50H163zm-63-63q-19 0-34.5 10.5T43 104h214q-7-17-22.5-27.5T200 66h-37V29q25 1 50 7 15 3 20.5 4.5t10-.5q4.5-2 6-7t-1-9.5Q246 19 241 17q-10-3-27-7-33-6-64-6t-64 6q-17 4-27 7-5 2-7.5 6.5t-1 9q1.5 4.5 4.5 7t8 2.5l3-1q7-2 21-5 25-6 51-7v37h-38zm113 150q-1 6-4.5 9.5T200 229q-5 0-9-3.5t-4-9.5v-12h-74v12q0 6-4 9.5t-9 3.5q-5 0-9-3.5t-4-9.5v-12H38v12q0 21 12.5 37.5T82 276l-5 9q-3 4-1.5 9t5 7.5Q84 304 87 304q7 0 11-6l12-19h80l12 19q3 6 11 6 3 0 6.5-2.5t5-7.5q1.5-5-1.5-9l-5-9q19-6 32-22.5t13-36.5v-13h-50v12z"/></svg>