<svg viewBox="0 0 300 316" xmlns="http://www.w3.org/2000/svg"><path d="M136 182q-13 4-20.5 14.5T108 220q0 25 20 59 4 6 9.5 9.5t12.5 3q7-.5 12.5-3.5t9.5-9q19-34 20-58 0-17-13-30-8-8-20-11t-23 2zm161 2q-6-17-22-25t-32-3q-8 2-14 7-11 8-15 20.5t1 24.5q8 24 38 52 8 6 17 6 5 0 8-1 7-2 11.5-7t5.5-11q9-39 2-63zM71 163q-6-5-14-7-16-5-32 3T3 184q-7 24 2 63 1 6 5.5 11t11.5 7q3 1 7 1 10 0 18-6 30-27 38-52 5-12 1-24.5T71 163zM4 38q-4-4-4-9t3.5-9q3.5-4 9-3.5T21 20q7 6 18 16 23 17 46 28 34 15 64 15h2q43 0 89-29 24-15 39-30 3-3 8.5-3.5t9 3.5q3.5 4 3.5 9t-4 9q-7 7-19 17-23 18-48 30l14 33q2 5 0 9.5t-7 6.5q-2 1-5 1t-6.5-2q-3.5-2-4.5-5l-14-34q-22 8-43 10v38q0 5-4 8.5t-9 3.5q-5 0-8.5-3.5T138 142v-38q-22-2-43-10l-15 34q-1 3-4.5 5t-6.5 2q-3 0-5-1-5-2-7-6.5t0-9.5l14-33Q46 73 23 55 11 45 4 38z"/></svg>