<svg viewBox="0 0 300 316" xmlns="http://www.w3.org/2000/svg"><path d="M238 16H63q-17 0-31.5 8.5t-23 23Q0 62 0 79v100q0 17 8.5 31.5t23 22.5q14.5 8 31.5 8h75v25H88q-6 0-9.5 4t-3.5 9q0 5 3.5 8.5T87 291h126q5 0 8.5-3.5t3.5-8.5q0-5-3.5-9t-9.5-4h-49v-25h75q16 0 30.5-8t23-22.5Q300 196 300 179V79q0-17-8.5-31.5t-23-23Q254 16 238 16zM91 138l32 32q4 4 4 9t-3.5 8.5q-3.5 3.5-9 3.5t-8.5-3l-33-32q-10-11-10-27t10-27l33-32q3-3 8.5-3t9 3.5Q127 74 127 79t-4 9l-32 32q-3 4-3 9t3 9zm136 18l-33 32q-3 3-8.5 3t-9-3.5Q173 184 173 179t4-9l32-32q3-4 3-9t-3-9l-32-32q-4-4-4-9t3.5-8.5q3.5-3.5 9-3.5t8.5 3l33 32q10 11 10 27t-10 27z"/></svg>