<svg viewBox="0 0 300 316" xmlns="http://www.w3.org/2000/svg"><path d="M175 141h43q9-6 18-11l-2-13h-21q-6-1-9.5-4.5T200 104q0-5 3.5-9t8.5-4h16q-3-12-9-25h-44q-5 0-8.5-3.5T163 54q0-5 3.5-8.5T175 41h31q-16-24-36-32.5t-40 0Q110 17 94 41h31q5 0 9 4t4 9q0 5-4 9t-9 4H81q-6 12-9 25h16q5 0 8.5 3.5t3.5 8.5q0 5-3.5 8.5T87 117H66l-2 13q9 5 18 11h43q5 1 9 4.5t4 8.5q0 5-4 9t-9 4h-13q22 22 38 50 16-28 38-50h-13q-5 0-9-4t-3.5-9q.5-5 4-9t8.5-4zm-37-25q-6 0-9.5-3.5T125 104q0-5 3.5-9t9.5-4h25q5 0 8.5 4t3.5 9q0 5-3.5 9t-8.5 4l-25-1zm150 41q-5 56-34 94-26 35-65 47t-78 0q-39-12-65-47-29-38-33-94-1-8 5-12.5t13-2.5q35 14 63 42 22 22 38 52 12 22 18 43 6-21 18-43 16-30 38-52 28-28 63-42 7-2 13 2.5t6 12.5z"/></svg>