<svg viewBox="0 0 300 316" xmlns="http://www.w3.org/2000/svg"><path d="M150 4q-41 0-75.5 20T20 78.5Q0 113 0 154t20 75.5Q40 264 74.5 284t75.5 20q41 0 75.5-20t54.5-54.5q20-34.5 20-75.5t-20-75.5Q260 44 225.5 24T150 4zm125 150q0 22-7.5 42.5T247 233l-29-29h7q5 0 8.5-3.5t3.5-9.5v-25q0-5-3.5-8.5T225 154h-57L71 57q16-13 36.5-20.5T150 29q34 0 62.5 17T258 91.5q17 28.5 17 62.5zm-250 0q0-22 7.5-42.5T53 75l176 176q-16 13-36.5 20.5T150 279q-34 0-62.5-17T42 216.5Q25 188 25 154zm113-88q0-5 3.5-8.5T150 54q5 0 9 3.5t3 8.5q0 2 3.5 4.5T176 75l30 9q15 4 23 13t8 19q0 6-3.5 9.5T225 129q-5 0-8.5-3.5T213 116q0-1-3.5-3.5T199 108l-30-9q-15-4-23.5-13T137 66h1zm-41 88l50 50H75q-5 0-8.5-3.5T63 192v-26q0-5 3.5-8.5T75 154h22z"/></svg>