<svg viewBox="0 0 300.0012 316" xmlns="http://www.w3.org/2000/svg"><path d="M138 191q0 11-7.5 18t-18 7q-10.5 0-17.5-7t-7-17.5q0-10.5 7-18t17.5-7.5q10.5 0 18 7.5T138 192v-1zM296 44l-36 60q7 0 13.5 4t10.5 10.5q4 6.5 3.5 14.5t-4.5 14q-58 91-91 124-22 22-50.5 29.5t-57.5 0Q55 293 33 271T3.5 220.5Q-4 192 3.5 163T33 112q32-32 124-91 6-4 14-4.5t14.5 3.5q6.5 4 10.5 10.5t4 13.5l61-36q7-5 16-4t15.5 7.5Q299 18 300 27t-4 17zM163 191q-1-23-16-36t-34.5-13Q93 142 78 155t-15 36.5Q63 215 78 228t34.5 13q19.5 0 34.5-13t15-36l1-1z"/></svg>