<svg viewBox="0 0 300 316" xmlns="http://www.w3.org/2000/svg"><path d="M150 66v175q0 6-3.5 9.5t-9 3.5q-5.5 0-9-3.5T125 241v-75H25v75q0 6-3.5 9.5t-9 3.5q-5.5 0-9-3.5T0 241V66q0-5 3.5-8.5t9-3.5q5.5 0 9 3.5T25 66v75h100V66q0-5 3.5-8.5t9-3.5q5.5 0 9 3.5T150 66zm122 74q16-15 16-36t-15-35.5Q258 54 238 54h-50q-6 0-9.5 3.5t-3.5 9q0 5.5 3.5 9T187 79h51q10 0 17.5 7.5T263 104q0 10-7.5 17.5T238 129h-25q-6 0-9.5 3.5t-3.5 9q0 5.5 3.5 9t8.5 3.5h26q15 0 26 11t11 26.5q0 15.5-11 26.5t-27 11h-49q-6 0-9.5 3.5t-3.5 9q0 5.5 3.5 9t8.5 3.5h51q16 0 30.5-8.5t23-23Q300 208 300 192t-7.5-30q-7.5-14-20.5-22z"/></svg>