<svg viewBox="0 0 300 316" xmlns="http://www.w3.org/2000/svg"><path d="M238 104h-25V66q0-16-8.5-30.5t-23-23Q167 4 150 4t-31.5 8.5Q104 21 96 35.5T88 67v37H63q-17 0-31.5 8.5t-23 23Q0 150 0 166v50q0 19 10 34.5T37 274v17q0 6 4 9.5t9 3.5q5 0 8.5-3.5T62 292v-13h176v12q0 6 3.5 9.5t8.5 3.5q5 0 9-3.5t4-8.5v-18q17-8 27-23.5t10-34.5v-50q0-16-8.5-30.5t-23-23Q254 104 238 104zM113 66q0-15 10.5-26T150 29q16 0 27 11t11 27v37h-75V66zm87 100H100q-5 0-8.5-3.5T88 154q0-5 3.5-9t8.5-4h100q5 0 9 4t4 9q0 5-4 9t-9 4v-1z"/></svg>