<svg viewBox="0 0 300 316" xmlns="http://www.w3.org/2000/svg"><path d="M25 191h113v113H88q-17 0-31.5-8.5t-23-23Q25 258 25 242v-51zm275-50q0 11-7.5 18t-17.5 7H163v-50h-26v50H25q-10 0-17.5-7T0 141q0-20 14.5-35T50 91h22q-11-9-16.5-22T50 42q0-6 3.5-9.5t9-3.5q5.5 0 9 3.5T75 41q0 23 18 35 13 10 34 14-12-23-15-48 1-16 11.5-27T150 4q16 0 27 11t11 27q-3 25-15 48 21-4 34-14 18-12 18-35 0-5 3.5-8.5t9-3.5q5.5 0 9 3.5T250 41q0 15-5.5 28T228 92h22q21-1 35.5 14t14.5 36v-1zM138 41q2 21 12 38 10-17 12-38 1-5-3-8.5t-9-3.5q-5 0-9 3.5t-4 8.5h1zm25 263h50q16 0 30.5-8.5t23-23Q275 258 275 241v-50H163v113z"/></svg>