<svg viewBox="0 0 300 316" xmlns="http://www.w3.org/2000/svg"><path d="M25 142h138q10 0 17.5-7.5T188 116V29q0-10-7.5-17.5T162 4H25Q15 4 7.5 11.5T0 29v87q0 11 7.5 18.5T25 142zM296 15q-4-5-9.5-8T275 4h-38q-10 0-17.5 7.5T212 29v87q0 11 7.5 18.5T237 142h38q10 0 17.5-7.5T300 116V29q0-8-4-14zM76 171q-6-5-14-5H25q-10 0-17.5 7.5T0 192v87q0 10 7.5 17.5T25 304h38q10 0 17.5-7.5T88 279v-88q-1-6-3.5-11.5T76 171zm213 0q-6-5-14-5H138q-11 0-18 7.5t-7 18.5v87q0 10 7 17.5t18 7.5h137q10 0 17.5-7.5T300 279v-88q0-6-3-11.5t-8-8.5z"/></svg>