<svg viewBox="0 0 300 316" xmlns="http://www.w3.org/2000/svg"><path d="M143 191q-5 0-8.5 4t-3.5 9v37q0 16-11 27t-27 11H63q-16 0-27-11t-11-26V66q0-15 11-26t26-11h31q16 0 27 11t11 27v37q0 5 3.5 9t9 3.5q5.5-.5 9-4t3.5-8.5V66q0-16-8.5-30.5t-23-23Q110 4 93 4H63q-17 0-31.5 8.5t-23 23Q0 50 0 66v175q0 17 8.5 31.5t23 23Q46 304 62 304h31q17 0 31.5-8.5t23-23Q156 258 156 241v-37q0-5-3.5-8.5T143 192v-1zm143-64l-57-57q-6-5-13-3t-8.5 9q-1.5 7 3.5 12l53 53H75q-5 0-8.5 4t-3.5 9q0 5 3.5 9t8.5 4l190-1-54 54q-5 5-3.5 12t8.5 9q7 2 12-3l58-57q11-11 11-27t-11-27z"/></svg>