<svg viewBox="0 0 300 316" xmlns="http://www.w3.org/2000/svg"><path d="M300 204q0 7-3.5 13.5T287 228q-3 2-4.5 5.5t-.5 6.5q1 7-1 14t-7 12q-8 8-20 8h-5q-4-1-7.5.5T236 279q-4 6-10 9t-13.5 3q-7.5 0-13.5-3t-10-9q-2-3-5.5-4.5t-7.5-.5h-3q9-14 8-30 9-8 13.5-18.5T199 204q0-11-4.5-21.5T181 164q1-16-8-30h3q4 1 7.5-.5t5.5-4.5q4-6 10-9.5t13.5-3.5q7.5 0 13.5 3.5t10 9.5q2 3 5.5 4.5t7.5.5q7-1 13.5 1t11.5 7q5 5 7 12t1 14q-1 3 .5 6.5t4.5 5.5q6 4 9.5 10.5T300 204zm-126 0q0-7-3.5-13.5T161 180q-3-2-4.5-5.5t-.5-6.5q1-7-1-14t-7-12q-5-5-11.5-7t-13.5-1q-4 1-7-.5t-5-4.5q-4-6-10.5-9.5t-14-3.5q-7.5 0-13.5 3.5T63 129q-2 3-5.5 4.5t-6.5.5q-7-1-14 1t-12 7q-5 5-7 12t-1 14q1 3-.5 6.5T12 180q-6 4-9 10.5T0 204q0 7 3 13.5t9 10.5q3 2 4.5 5.5t.5 6.5q-1 7 1 14t7 12q9 8 21 8h4q4-1 7.5.5T63 279q4 6 10 9t13.5 3q7.5 0 13.5-3t10-9q2-3 5.5-4.5t7.5-.5h5q12 0 20-8 5-5 7-12t1-14q-1-3 .5-6.5t4.5-5.5q6-4 9.5-10.5T174 204zm-48-95q13 0 24 4 11-4 23-4 8-8 18-13t22-4.5q12 .5 23 5.5-2-11-12-17-3-2-4-5.5t-1-6.5q2-7 0-14t-7.5-12q-5.5-5-12-7T186 34q-3 1-6.5-.5T174 29q-4-6-10.5-9.5T150 16q-7 0-13.5 3.5T126 29q-2 3-5.5 4.5t-6.5.5q-7-1-13.5 1t-12 7Q83 47 81 54t0 14q0 3-1 6.5T76 80q-9 6-12 17 11-6 22.5-5.5t22 5Q119 101 126 109z"/></svg>