<svg viewBox="0 0 300 316" xmlns="http://www.w3.org/2000/svg"><path d="M225 154V66q0-16-8.5-30.5t-23-23Q179 4 162 4H63q-17 0-31.5 8.5t-23 23Q0 50 0 66v161q0 8 4 14t10 9.5q6 3.5 13.5 3.5t14.5-5l49-33h72q16 0 30.5-8t23-22.5Q225 171 225 154zm-112 25q-6 0-9.5-3.5t-3.5-9q0-5.5 3.5-9t9-3.5q5.5 0 9 3.5t3.5 9q0 5.5-3.5 9T113 179zm18-55q-6 3-6 5 0 5-3.5 9t-9 3.5q-5.5-.5-9-4T100 129q0-11 7-18 4-4 12-9 3-1 5-4.5t1-8q-1-4.5-3.5-7T115 79q-6-1-10.5 3t-4.5 9.5q0 5.5-3.5 9t-9 3.5q-5.5 0-9-3.5T75 92q0-18 13.5-29.5T119 55q12 2 20 10t10 20q2 12-3 23t-15 16zm169-8v161q0 8-4 14t-10 9.5q-6 3.5-13.5 3.5t-14.5-5l-49-33h-71q-14 0-25.5-5T92 246l7-5h64q23 0 43-11.5t32-31.5q12-20 12-44V66q0-5-1-11 22 4 36.5 21.5T300 116z"/></svg>