<svg viewBox="0 0 300 316" xmlns="http://www.w3.org/2000/svg"><path d="M250 4H50Q29 4 14.5 18.5T0 54v150q0 21 14.5 35.5T50 254h37l46 39q8 7 17 7t16-6l48-40h36q21 0 35.5-14.5T300 204V54q0-21-14.5-35.5T250 4zM98 147q-1 9-8.5 14T73 166q-16 0-26-11-3-2-2.5-5.5T47 144q2-2 5.5-2t5.5 3q6 6 15 6 4 0 6.5-2t3.5-5.5q1-3.5-8-6.5l-17-7q-6-4-8.5-9T48 110q1-6 5-10.5T63 93q11-3 21 1 6 3 10 6 2 2 2.5 5t-1.5 6q-2 2-5.5 2.5T84 112q-2-2-5-3-6-3-10.5-1.5t-5 4.5q-.5 3 1.5 4l16 6q10 4 14 11t3 14zm88 11q0 4-2 6t-6 2q-3 0-5-2t-2-6v-40l-16 17q-3 3-6 3t-6-3l-16-17v40q0 4-2 6t-5.5 2q-3.5 0-5.5-2t-2-6v-55q0-5 3-8t7.5-3q4.5 0 8.5 4l18 21 18-21q4-4 8.5-4t7.5 3q3 3 3 8v55zm69-11q-1 8-8.5 13.5T230 166q-16 0-26-11-3-3-2.5-6t2.5-5q3-2 6-2t5 2q6 7 15 7 4 0 7-2t3.5-5.5q.5-3.5-8.5-7t-17-7.5q-6-3-8.5-8t-1.5-11q1-6 5-10.5t10-6.5q11-3 22 1 5 2 9 5 2 2 2.5 5.5T252 110q-2 3-5.5 3t-5.5-1.5q-2-1.5-5-3.5-6-2-10.5-.5t-5 4q-.5 2.5 1.5 4.5l16 6q10 4 14 11t3 14z"/></svg>