<svg viewBox="0 0 300 316" xmlns="http://www.w3.org/2000/svg"><path d="M300 204q0 15-12 35-9 17-26 35-13 14-25 24-6 4-12 4t-12-4q-12-10-25-24-16-18-26-35-12-20-12-35.5t11-26q11-10.5 26.5-10.5t26.5 10.5q11 10.5 11 26.5 0-16 11-26.5t26.5-11Q278 166 289 177t11 27zM183 304H63q-17 0-31.5-8.5t-23-23Q0 258 0 241V66q0-16 8.5-30.5t23-23Q46 4 63 4h112q17 0 31.5 8.5t23 23Q238 50 237 67v80q-7 3-12 7-11-8-25-11v-1q0-6-3.5-9.5T187 129h-74q-6 0-9.5 3.5t-3.5 9q0 5.5 3.5 9t8.5 3.5h38q-11 9-18 22t-7 28q0 25 20 56 15 22 38 44zM100 79q0 5 3.5 9t8.5 4h76q5-1 8.5-4.5T200 79q0-5-3.5-8.5T187 66h-74q-6 0-9.5 4t-3.5 9zM75 204q0-8-5.5-13.5T56 185q-8 0-13 5.5T38 204q0 8 5 13.5t13 5.5q8 0 13.5-5.5T75 204zm0-63q0-7-5.5-12.5T56 123q-8 0-13 5.5t-5 13q0 7.5 5 13t13 5.5q8 0 13.5-5.5T75 142v-1zm0-62q0-8-5.5-13.5T56 60q-8 0-13 5.5T38 79q0 8 5 13.5T56 98q8 0 13.5-5.5T75 79z"/></svg>