<svg viewBox="0 0 300 316" xmlns="http://www.w3.org/2000/svg"><path d="M300 278q-1-35-8-69-3-13-13-21.5t-24-8.5h-26l-4-52 8-1q10-1 14-3 7-2 11-9.5t4.5-16.5q.5-9-3.5-17-10-22-30-39t-45.5-27Q158 4 131 4 96 4 65.5 21.5t-48 48Q0 100 0 135q2 33 7 65 3 17 14.5 30.5T51 250l19 5q24 7 46 19 11 5 23 5 20 0 35-14l14-11h22l1 11q1 11 8.5 20t18.5 13q18 4 37 6 10 0 17.5-7.5T300 278zm-187-49q-6 0-9.5-3.5t-3.5-9q0-5.5 3.5-9t9-3.5q5.5 0 9 3.5t3.5 9q0 5.5-3.5 9T112 229h1zm142-25q5 0 8.5 2.5t4.5 7.5l2 15h-37l-2-25h24zm-104-47q3-10 11-17.5t18-9.5l20-1 4 50h-51q-5-11-2-22zm36 72l-18-25h37l2 25h-21zm58 45q-4-2-6.5-5t-2.5-6l-1-9h38q1 12 2 25-15-1-30-5z"/></svg>