<svg viewBox="0 0 300 316" xmlns="http://www.w3.org/2000/svg"><path d="M300 266q0 16-11 27t-26.5 11q-15.5 0-26.5-11t-11-26.5q0-15.5 11-26.5t26.5-11q15.5 0 26.5 11t11 26zM238 94V81q0-21-10.5-38.5t-28-28Q182 4 161 4q-28 0-49.5 18T85 69L52 279H13q-6 0-9.5 3.5t-3.5 9q0 5.5 3.5 9T13 304h39q9 0 16-6t9-15l33-211q3-18 17.5-30.5T162 29q20 0 35 15t15 37v10h-12q-16 0-26.5 11T163 129v137q0 16 10.5 27t26.5 11h13q-13-17-13-38 0-16 8.5-30.5t23-23Q246 204 263 204q20 0 37 13v-43q0-28-17.5-50.5T237 94h1z"/></svg>