<svg viewBox="0 0 300 316" xmlns="http://www.w3.org/2000/svg"><path d="M7 174q-5-8-6-17t2-17q16-32 48-47 23-11 49-14-11 14-22 29-23 34-39 72l-4 10q-9 0-16-4.5T7 174zm17 52Q8 249 1 276q-2 9 3 16.5t14 9.5q4 1 9 0 27-6 50-23 11-11 11-26.5T77 226q-11-11-26.5-11T24 226zm99 38l-10 4v4q0 13 9.5 22.5T145 304q20 0 39-17 15-14 26-35 12-23 14-49-14 11-29 22-34 23-72 39zM299 41q-1 40-30.5 81T180 205q-32 21-67 36v-7q0-18-13-31t-31-13h-7q15-35 36-67 42-59 82.5-88.5T262 4q20 0 28.5 8.5T299 41zm-74 68q0-13-9.5-22t-22-9q-12.5 0-22 9t-9.5 22q0 13 9.5 22t22 9q12.5 0 22-9t9.5-22z"/></svg>