<svg viewBox="0 0 300.0109 316" xmlns="http://www.w3.org/2000/svg"><path d="M163.01 135q0 18-13 31t-31 13q-18 0-31-13t-13-31q0-18 13-31t31-12.5q18 .5 31 13t13 30.5zm137 13q0 18-7.5 34.5t-21.5 27.5q-8 7-11 17-8 34-35.5 55t-62.5 22q-44 0-81-22t-59-59q-22-37-22-81-2-26 6-50.5t25-44q17-19.5 40-30.5t48-13q33-1 62.5 13.5t47.5 42.5q6 8 15 11 25 8 40.5 29t15.5 48zm-137 93q0-5-4-8.5t-9-3.5q-5 0-9 3.5t-3.5 9q.5 5.5 4 9t8.5 3.5q5 0 9-3.5t4-9.5zm25-106q-1-26-15-42.5t-34-22.5q-20-6-40.5 0t-34 22.5Q51.01 109 51.01 135t13.5 43q13.5 17 34 22.5t40.5 0q20-5.5 34-22.5t14-43h1zm12 81q0-5-3.5-8.5t-9-3.5q-5.5 0-9 3.5t-3.5 9q0 5.5 3.5 9t9 3.5q5.5 0 9-3.5t3.5-9.5zm50-75q0-5-3.5-8.5t-9-3.5q-5.5 0-9 3.5t-3.5 9q0 5.5 3.5 9t9 3.5q5.5 0 9-3.5t3.5-8.5v-1z"/></svg>