<svg viewBox="0 0 300 316" xmlns="http://www.w3.org/2000/svg"><path d="M283 42q-8-1-14.5 2T258 54q-15 33-40 54-19 17-43 26v-5q0-5-3.5-9t-9-4q-5.5 0-9 4t-3.5 9v11q-8 2-13 1h-12v-12q0-5-3.5-9t-9-4q-5.5 0-9 4t-3.5 9v12H75v-12q0-5-3.5-9t-9-4q-5.5 0-9 4t-3.5 9v12H13q-6 1-9.5 4.5T0 154q0 5 3.5 9t9.5 4h25q-13 16-13 37 0 17 8.5 31.5t23 22.5q14.5 8 30.5 8h51q16 1 30.5-7.5t23-23Q200 221 200 204q0-10-3-19 40 23 62 70 3 6 8 9t11 3h5q8-2 12.5-8t4.5-13V64q0-8-5-14t-12-8zM175 204q0 16-11 27t-26 11H88q-16 0-27-11t-11-27q0-16 11-27t27-11h53q15 2 24.5 13t9.5 25z"/></svg>