<svg viewBox="0 0 300 316" xmlns="http://www.w3.org/2000/svg"><path d="M86 191h177q7 0 10-6t0-12q-3-6-11-7H152l67-25h44q7 0 10-6t0-12q-3-6-11-7h-11q11-14 11.5-32.5t-8-34.5Q246 33 230 25 193 4 150.5 4T71 24Q52 34 41 45q-3 4-3 9t3.5 8.5q3.5 3.5 8.5 4t9-3.5q14-15 40-24 28-10 58-10 34 1 61 17 13 7 17.5 22T234 97q-6 14-20 19H38q-8 1-11 7t0 12q3 6 11 6h110l-67 25H38q-8 1-11 7t0 12q3 6 11 6h11q-11 16-11.5 35.5T47 263q10 17 27 25 34 17 77 16 36-1 72-15 30-11 47-25 6-5 5-11.5t-7.5-10Q261 239 255 244q-14 11-41 22-31 11-62 13-38 2-67-13-14-7-19.5-22.5t0-30.5Q71 198 86 192v-1z"/></svg>