<svg viewBox="0 0 300 316" xmlns="http://www.w3.org/2000/svg"><path d="M300 129v37q0 6-3.5 9.5t-9 3.5q-5.5 0-9-3.5T275 166v-37q0-21-14.5-35.5T225 79H32l27 29q4 4 3.5 9t-4 8.5Q55 129 50 129t-9-4L11 92Q0 82 0 66.5T11 40L41 8q3-4 8.5-4t9 3.5q3.5 3.5 4 8.5T59 25L32 54h193q20 0 37.5 10T290 91.5q10 17.5 10 37.5zM150 241q-4 1-6 4l-32 59h76l-32-58q-2-5-6-4v-1zm47-121q-20-28-47-28-14-1-25 7-9 5-22 20L30 228q-6 13-5 26.5t8.5 25Q41 291 53 297.5t25 6.5h6l38-70q3-8 11-12.5t17-4.5q9 0 17 4.5t12 13.5l37 69h6q13 0 25-6.5t19.5-18q7.5-11.5 8.5-25t-5-26.5l-73-108z"/></svg>