<svg viewBox="0 0 300 316" xmlns="http://www.w3.org/2000/svg"><path d="M225 135q0 13-9 22t-22 9q-13 0-22-9t-9.5-22q-.5-13 9-22t22.5-9q13 0 22 9t9 22zm25 131V135q0-23-16.5-39.5t-40-16.5Q170 79 154 95.5t-16 40q0 23.5 16 39.5t40 16q17 0 31-9v102q-35 20-75.5 20t-75-20Q40 264 20 229.5T0 154q0-41 20-75.5T74.5 24Q109 4 150 4t75.5 20Q260 44 280 78.5t20 75.5q0 33-13.5 62T250 266zM75 110q0 8 5.5 13.5T94 129q8 0 13.5-5.5t5-13.5q-.5-8-5.5-13t-13-5q-8 0-13.5 5T75 110zm13 69q-6 0-9.5 3.5t-3.5 9q0 5.5 3.5 9T87 204q17 0 29 4 22 7 36 28 4 5 11 5 3 0 7-2t5-7.5q1-5.5-2-9.5-29-43-86-43h1zm137 112q0 6 3.5 9.5t9 3.5q5.5 0 9-3.5t3.5-9.5v-25q-12 10-25 18v7z"/></svg>