<svg viewBox="0 0 300 316" xmlns="http://www.w3.org/2000/svg"><path d="M75 5q6-1 12-1h126q6 0 12 1v111h-37q0-15-11-26t-27-11q-16 0-26.5 11T113 116H75V5zm175 111h50V91q0-25-13.5-46.5T250 12v104zm-62 25v13q0 16-11 26.5T150 191q-16 0-26.5-10.5T113 154v-13H0v100q0 23 14 40t36 22V179q0-5 3.5-8.5t9-4q5.5-.5 9 3.5t3.5 9v125h150V179q0-5 3.5-9t9-4q5.5 0 9 4t3.5 9v124q22-5 36-22t14-40V141H188zM50 116V12Q27 23 13.5 44.5T0 91v25h50zm100 50q5 0 9-3.5t3-8.5v-38q1-5-3-8.5t-9-3.5q-5 0-8.5 3.5T138 117v37q0 5 3.5 8.5t8.5 3.5z"/></svg>