<svg viewBox="0 0 300 316" xmlns="http://www.w3.org/2000/svg"><path d="M194 4h-88Q88 4 75.5 17T63 48v62q0 18 12.5 31t30.5 13h8l23 20q6 5 13 5t13-5l23-20h8q18 0 31-13t13-31V48q-1-18-13.5-31T194 4zm-4 71l-31 34q-8 7-17.5 7t-16.5-6l-15-16q-4-4-4-9t4-8.5q4-3.5 9-3.5t9 4l14 14 30-33q4-4 9-4t9 3.5q4 3.5 4 8.5t-4 9zM77 222l9 26H64l9-26q1-1 2-1t2 1zm61 20q0 16-8.5 30.5t-23 23Q92 304 75 304t-31.5-8.5Q29 287 21 272.5t-8.5-31q-.5-16.5 8-31t23-23Q58 179 75 179t31.5 8.5q14.5 8.5 22.5 23t8 31.5h1zm-31 25l-17-50q-3-6-6.5-8t-8.5-2q-5 0-8.5 2t-6.5 8l-17 50q-1 4 1 6.5t6 2.5q4 0 6-4l3-10h32l3 10q2 4 7 4 3 0 5-2.5t1-6.5zm139-11q0 3-2.5 4.5T239 262h-21q-3 0-5-2t-2-5v-7h28q3 0 5 2.5t2 5.5zm-7-29q0-3-2.5-4.5T232 221h-14q-3 0-5 2t-2 5v7h21q3 0 5-2.5t2-5.5zm49 15q0 16-8.5 30.5t-23 23Q242 304 225 304t-31.5-8.5q-14.5-8.5-23-23t-8-31q.5-16.5 8.5-31t22.5-23Q208 179 225 179t31.5 8.5q14.5 8.5 23 23T288 242zm-28 15q0-6-2.5-11t-7.5-8q3-5 3-11 0-8-6.5-14t-15.5-6h-10q-10 0-17 6.5t-7 15.5v25q0 9 6.5 15.5T219 276h19q9 0 15-5.5t7-13.5z"/></svg>