<svg viewBox="0 0 300 316" xmlns="http://www.w3.org/2000/svg"><path d="M47 171q-4 5-9 5t-8-3q-15-12-22.5-28.5T0 110q0-11 3-22 1-5 6-7.5t9.5-1q4.5 1.5 7.5 6t1 9.5q-2 7-2 15 0 13 5.5 24.5T45 154q4 3 4.5 8t-2.5 9zm141 83h-32q-23 0-39.5-16.5T100 198q0-14 6-26 2-4 .5-9t-6-7.5q-4.5-2.5-9.5-1t-7 6.5q-9 17-9 37 0 22 11 40.5t29.5 29.5q18.5 11 40.5 11h31q6 0 9.5-3.5t3.5-9q0-5.5-3.5-9T187 254h1zm108 29q4 3 4 8.5t-3.5 9q-3.5 3.5-9 3.5t-8.5-4L4 25q-4-3-4-8.5t3.5-9Q7 4 12.5 4T21 8l28 28q16-7 32-7h63q22 0 40.5 11T214 69.5Q225 88 225 109t-9 38.5q-9 17.5-26 29.5l65 64q9-8 14.5-19.5t5.5-24q0-12.5-5.5-24T255 154q-4-3-4.5-8t2.5-9q3-4 8-4.5t9 2.5q15 12 22.5 28t7.5 34q0 18-7 34t-21 28l24 24zM69 55l64 65q12-3 23-4 5 0 9 4t4 9q0 5-4 9t-9 4l-1-1 17 18q13-8 20.5-21t7.5-28q0-23-16.5-39.5T144 54H81q-6 0-12 1z"/></svg>