<svg viewBox="0 0 300 316" xmlns="http://www.w3.org/2000/svg"><path d="M235 34q-19-17-43-24.5T143 5q-39 4-68 32.5T39 106q-2 7-1 21v3q0 3 4 19l1 3q3 17 5 28 2 19 2 49 0 18 8 34t22 26q20 15 45 15 23 0 40.5-12t26.5-30q15-29 33-42 24-17 37-42.5t13-54.5q0-26-10.5-49T235 34zm-22 101q-6 0-9.5-3.5T200 123q0-18-13-31t-30-13q-17 0-29.5 10.5T113 117q15 0 26 11t11 26q0 15-11 26.5T113 192q-6 0-9.5-4t-3.5-9q0-5 3.5-8.5t9-3.5q5.5 0 9-4t3.5-9q0-5-3.5-8.5T113 142q-10 0-17.5-7.5T88 115q2-26 22-43.5T156 54q19 0 34.5 9.5t25 25Q225 104 225 123q0 5-3.5 8.5T213 135z"/></svg>