<svg viewBox="0 0 300 316" xmlns="http://www.w3.org/2000/svg"><path d="M150 155q20 20 24 45.5t-6.5 49.5Q157 274 136 289.5T87.5 305Q60 305 39 289.5T7.5 250Q-3 226 1 200.5T25 155V66q1-29 20-46Q63 5 87.5 5T130 20q19 17 20 47v88zm-25 61q0-11-7-21t-18-14v-27q0-5-3.5-9t-9-4q-5.5 0-9 4t-3.5 9v27q-13 5-20 17.5T51 225q3 14 15 22t26 6.5q14-1.5 23.5-12T125 216zm66-103l38 37q3 4 8.5 4t8.5-4l38-37q4-4 4-9t-4-9q-4-4-9-4t-9 4l-16 16V16q0-5-3.5-8.5t-9-3.5q-5.5 0-9 3.5T225 16v95l-16-16q-4-4-9-3.5t-8.5 4Q188 99 188 104t3 9z"/></svg>