<svg viewBox="0 0 300 316" xmlns="http://www.w3.org/2000/svg"><path d="M150 4q-41 0-75.5 20T20 78.5Q0 113 0 154q2 57 33 95 29 35 73 47.5t88 0q44-12.5 73-47.5 31-38 33-95 0-41-20-75.5T225.5 24Q191 4 150 4zm44 100q8 0 13.5 5.5T213 123q0 8-5.5 13.5t-13.5 5q-8-.5-13.5-5.5t-5.5-13q0-8 5.5-13.5T194 104zm-88 0q8 0 13.5 5.5T125 123q0 8-5.5 13.5t-13.5 5q-8-.5-13-5.5t-5-13q0-8 5-13.5t13-5.5zm107 100h-25v7q-1 20-12 31.5T150 254q-15 0-26-11.5T112 211v-7H88q-6 0-9.5-3.5t-3.5-9q0-5.5 3.5-9T88 179h125q5 0 8.5 3.5t3.5 9q0 5.5-3.5 9T213 204zm-75 0h25v7q-1 11-7 15.5t-12 0q-6-4.5-7-14.5l1-8z"/></svg>