<svg viewBox="0 0 300 316" xmlns="http://www.w3.org/2000/svg"><path d="M150 179q-31 0-58.5 14.5t-45 40Q29 259 26 290q-1 6 3 10t9 4h37q0-20 10-37.5t27.5-27.5q17.5-10 37.5-10t37.5 10q17.5 10 27.5 27.5t10 37.5h37q5 0 9-4t3-10q-3-31-20.5-56.5t-45-40Q181 179 150 179zm0 75q-21 0-35.5 14.5T100 304h100q0-21-14.5-35.5T150 254zM98 66H72l1-5q8-26 29.5-41.5t48-15.5q26.5 0 48 15.5T228 61q2 4 25 100 1 6-2.5 11.5t-9 7q-5.5 1.5-12-2.5t-13.5-8l-14-57q-8 13-21.5 21.5T151 142q-22 0-38.5-14.5T92 92h9q12 0 25-3.5t23-9.5q17-11 28-29 3-5 .5-10.5T170 32q-4-1-8.5.5T155 38q-7 12-19 20-15 9-38 9v-1zM68 178q-4 3-9.5 2t-8.5-5.5q-3-4.5-2-10.5l18-74q2 23 15 41t33 27q-24 7-46 20z"/></svg>