<svg viewBox="0 0 300 316" xmlns="http://www.w3.org/2000/svg"><path d="M293 259q-5-2-10-.5t-7 6.5q-4 9-14 12.5t-20-1.5l-29-13v-61q-1-16-13-27l-32-29 34-44 79 50q4 3 9 2t8-5.5q3-4.5 2-9.5t-6-8l-66-42q-66-42-70-43-11-5-23-5h-14q-16 1-27-10L71 8q-3-4-8.5-4t-9 3.5Q50 11 50 16.5t4 8.5l23 23q8 9 19.5 14t24.5 5h14l-27 35q-8 10-8 23v39q0 7-7 11l-37 19-17-8q-9-4-12.5-13.5T27 153q3-4 1-9t-6.5-7.5Q17 134 12 136t-7 7q-9 19-2 38.5T29 209l203 90q10 5 22 5 8 0 16-3 20-7 29-25 2-5 .5-10t-6.5-7zm-189-62q10-5 15.5-14t5.5-19v-21l58 50q4 4 5 9v50L85 207l19-10zM219 66q13 0 22-9t9-22q0-13-9-22t-22-9q-13 0-22 9t-9 22q0 13 9 22t22 9z"/></svg>