<svg viewBox="0 0 300 316" xmlns="http://www.w3.org/2000/svg"><path d="M252 205q-4-2-9-.5t-7 6.5q-11 20-30 31.5T165 254h-2l56-178q11 10 17 22 2 5 7 6.5t9.5-.5q4.5-2 6.5-7t-1-10q-11-22-31-37l10-30q1-5-1-9.5t-7-6q-5-1.5-9.5 1T213 13l-8 24q-10-4-21-6l3-11q1-5-1-9.5t-7-6q-5-1.5-9.5 1T163 13l-5 16h-16q-28 0-52 14T52 81q-14 24-14 52v41q0 27 12.5 50T84 261l-8 27q-2 5 .5 9.5T84 303l4 1q4 0 7-2.5t4-6.5l8-22q11 4 22 5l-3 10q-2 5 .5 9.5t7.5 5.5l3 1q4 0 7.5-2.5t4.5-6.5l5-16h11q29 0 54-15t38-42q3-4 1.5-9t-6.5-8zM63 174v-41q0-21 10.5-39.5t28.5-29Q120 54 142 54h8L92 236q-14-11-22-27t-8-35h1zm51 75l62-194q11 1 22 6l-61 193q-12-1-23-5z"/></svg>