<svg viewBox="0 0 300 316" xmlns="http://www.w3.org/2000/svg"><path d="M296 25L171 150q-3 4-8.5 4t-9-3.5q-3.5-3.5-3.5-9t4-8.5L279 7q3-3 8.5-3t9 3.5q3.5 3.5 3.5 9t-4 8.5zm-196 91q5 0 9-3l62-63q4-3 4-8.5t-3.5-9q-3.5-3.5-9-3.5t-8.5 3L91 95q-4 4-4 9t4 8.5q4 3.5 9 3.5zm154 16l-63 63q-4 4-4 9t4 8.5q4 3.5 9 3.5t9-3l62-63q4-3 4-8.5t-3.5-9q-3.5-3.5-9-3.5t-8.5 3zm-116 72h-38l-13-36q-2-3-5-5.5t-7-2.5q-4 0-7 2.5t-5 5.5l-13 36H13q-4 0-7.5 2t-5 6q-1.5 4-.5 7.5t4 6.5l30 24-12 38q-1 4 .5 7.5t4.5 6q3 2.5 7 2.5t7-2l34-23 35 23q3 2 7 2t7-2.5q3-2.5 4-6.5t0-8l-12-37 30-24q3-3 4-6.5t-.5-7.5q-1.5-4-5-6t-7.5-2h1z"/></svg>