<svg viewBox="0 0 300 316" xmlns="http://www.w3.org/2000/svg"><path d="M88 54q0-5 3.5-9t8.5-4h50l21-31q4-7 11.5-6t10.5 8l23 56 18-22q4-4 10-4h44q5 0 8.5 3.5T300 54q0 5-3.5 9t-8.5 4h-38l-28 33q-4 4-9 4h-2q-7-1-10-8l-22-53-12 18q-4 6-11 6h-56q-5 0-8.5-4T88 54zm-7 125q13 0 22-9t9.5-22q.5-13-9-22.5T81 116q-13 0-22 9.5T50 148q0 13 9 22t22 9zm170-75l-10 12q-11 13-28 13h-6q-10-2-18-8.5T178 105q-18 4-29.5 17.5T137 154v25h163v-25q0-20-14.5-35T251 104zM25 66q0-5-3.5-8.5t-9-3.5q-5.5 0-9 3.5T0 67v224q0 6 3.5 9.5t9 3.5q5.5 0 9-3.5T25 291v-25h250v25q0 6 3.5 9.5t9 3.5q5.5 0 9-3.5t3.5-9.5v-87H25V66z"/></svg>