<svg viewBox="0 0 300 316" xmlns="http://www.w3.org/2000/svg"><path d="M106 141q0-20-14.5-35t-35-15Q36 91 21 106T6 142q0 11 5 21t14 17v60q0 5 5.5 7t9.5-2l16-22 17 22q3 4 9 2t5-7v-60q9-7 14-17t5-22zm194-6v106q0 17-8.5 31.5t-23 23Q254 304 238 304H113q-20 0-35.5-11T55 265l1-2q10 10 23 10 6 0 11-2 10-3 16-11t6-18h113q5 0 8.5-4t3.5-9q0-5-3.5-8.5T225 217H113v-25h112q5 0 9-4t4-9q0-5-4-8.5t-9-3.5h-98q4-13 4-25 0-21-10-38T94 77Q77 67 56 67h-6q0-17 8.5-31.5t23-23Q96 4 112 4h63v87q0 16 11 27t26 11h88v6zM200 91V10q18 6 31 20l43 43q14 13 20 31h-81q-6 0-9.5-3.5T200 91z"/></svg>