<svg viewBox="0 0 300 316" xmlns="http://www.w3.org/2000/svg"><path d="M294 136q6 13 6 27v78q0 17-8.5 31.5t-23 23Q254 304 238 304H63q-17 0-31.5-8.5t-23-23Q0 258 0 241v-78q0-14 6-27l100 100q11 12 27.5 16t33 0q16.5-4 27.5-16l100-100zm-31-82v78l-86 86q-11 11-27 11t-27-11l-85-86V54q0-21 14.5-35.5T87 4h126q20 0 35 14.5T263 54zm-63 75q0-13-8-22.5T171 95l-38-7q-6-1-7.5-6.5T128 71q4-5 9-5h29q7 0 10 5.5t8 7q5 1.5 9.5-1t6-7.5q1.5-5-1.5-10-5-8-13.5-13.5T166 41h-4q0-7-6-10t-12 0q-6 3-7 10-15 0-24.5 10T101 74.5Q99 88 106 99t23 14l38 6q6 2 7.5 7.5T172 137q-4 5-9 4h-29q-7 0-10-5t-8-6.5q-5-1.5-10 1.5-9 7-5 15.5t14.5 14.5q10.5 6 18.5 5h4q0 8 6 11t12 0q6-3 7-11 15 0 26-11t11-26z"/></svg>