<svg viewBox="0 0 300 316" xmlns="http://www.w3.org/2000/svg"><path d="M12 113q0-17 8-31.5T42 58l86-45q14-8 31-8t31 8l54 35q5 3 10 8L23 187l-2-7-9-67zm223-3q3 5 1.5 9.5t-6 7.5q-4.5 3-9.5 1.5t-7-5.5l-7-12-112 64 5 10q5 6 1.5 12.5t-11 6.5q-7.5 0-11.5-6l-6-10-43 24 10 19q10 16 27 21.5t35-1.5l1 4q6 8 16 10.5t18.5-2.5q8.5-5 11-15t-2.5-19l-1-2 88-49 2 4q4 6 9.5 9.5T257 195q7 0 12.5-3.5t9-9.5q3.5-6 3-13t-3.5-12l-3-5q11-12 13-28.5T282 93l-7-13-4-5-43 24 7 11zm53 169H13q-6 0-9.5 3.5t-3.5 9q0 5.5 3.5 9T12 304h276q5 0 8.5-3.5t3.5-9q0-5.5-3.5-9T288 279z"/></svg>