<svg viewBox="0 0 300 316" xmlns="http://www.w3.org/2000/svg"><path d="M107 191h86l-43 35-43-35zm98 113l-55-45-55 45h110zm-35-61l43 35v-70l-43 35zm130-106v104q0 17-8.5 31.5t-23 23Q254 304 238 304V204q0-16-11-27t-27-11H100q-16 0-27 11t-11 27v100q-16 0-30.5-8.5t-23-23Q0 258 0 241V137q0-15 8-28l38-56q8-12 22-18l62-27q10-4 20-4t20 4l62 27q14 6 22 18l38 56q8 13 8 28zM188 91q0-15-11-26t-27-11q-16 0-26.5 11T113 91.5q0 15.5 10.5 26.5t26.5 11q16 0 26.5-11T187 92l1-1zm-38-12q-5 0-8.5 3.5t-3.5 9q0 5.5 3.5 9t8.5 3.5q5 0 9-3.5t4-9q0-5.5-4-9t-9-3.5zM88 208v70l42-35-42-35z"/></svg>