<svg viewBox="0 0 300.0013 316" xmlns="http://www.w3.org/2000/svg"><path d="M75 35q0 8-5.5 13.5T56 54q-8 0-13-5.5T38 35q0-8 5-13.5T56 16q8 0 13.5 5.5T75 35zm13 138q0-18-13-31t-31-13q-18 0-31 13T0 173q0 18 13 30.5T44 216q18 0 31-12.5T88 173zm131 93q-8 0-13.5 5.5T200 285q0 8 5.5 13.5T219 304q8 0 13.5-5.5t5-13.5q-.5-8-5.5-13.5t-13-4.5v-1zm62-37q-8 0-13.5 5.5t-5 13.5q.5 8 5.5 13t13 5q8 0 13.5-5t5.5-13q0-8-5.5-13.5T281 229zm-124 34q4-3 5-8t-2-9.5q-3-4.5-8-5t-9 2.5q-37 25-67.5 33T32 272q-7-8-7-24 0-5-3.5-9t-9-4q-5.5 0-9 3.5T0 247q-1 27 14 42t40 15q22 0 48-10.5t55-30.5zM97 118q4-5 8-9 25-24 51-42.5T206 38q21-8 37.5-8.5t23.5 6q7 6.5 8 18.5t-4 28q-1 5 1.5 9.5t7.5 6q5 1.5 9.5-1T295 89q8-27 3-46-3-15-13-24-13-14-36-15t-52 11q-27 11-55 30.5T87 91l-9 10q-3 4-3 9t4 8.5q4 3.5 9 3.5t9-4zm203 38q0 8-6.5 12t-20.5 9q-6 23-24.5 37t-42 14q-23.5 0-42.5-14.5T139 177q-14-5-20-9t-6-11.5q0-7.5 6-11.5 9-4 22-8 8-20 25.5-33T206 91q22 0 40 13t25 33q14 4 22 8 7 4 7 11zm-25 4q0-6-1-11-35 17-68 17t-68-17q0 5-1 11 0 9 2 17 35 14 67.5 14t66.5-14q2-8 2-17z"/></svg>