<svg viewBox="0 0 300 316" xmlns="http://www.w3.org/2000/svg"><path d="M76 179H13v-13q0-43 24.5-78T101 38q2 14 11 24v3q-16 22-25 45-12 29-12 57l1 12zm27-55q-3 4-3 9t3 9l31 30q6 7 16 7t16-7l31-30q3-4 3-9t-3-9q-4-3-9-3t-9 3l-16 17V51q7-4 10-12t1.5-15.5q-1.5-7.5-7-12.5T155 5q-12-3-21 4.5T125 29q0 7 3.5 12.5T138 51v90l-17-17q-4-3-9-3t-9 3zm-23 80H18q8 28 26.5 50.5T89 290q26 13 56 14l-3-3q-13-11-26-29-26-33-36-68zm78 97l-3 3q30-1 56-14t44.5-35.5Q274 232 282 204h-62q-10 35-36 68-13 18-26 29zm-51-97q12 36 43 70 31-34 43-70h-86zm92-166q-2 14-11 24v3q16 22 25 45 12 29 12 57l-1 12h63v-13q0-43-24.5-78T199 38z"/></svg>