<svg viewBox="0 0 300 316" xmlns="http://www.w3.org/2000/svg"><path d="M200 304h-25q-5 0-9-3.5t-4-9q0-5.5 4-9t9-3.5h25q5 0 9-3.5t4-9q0-5.5-4-9t-9-3.5h-50q-16 0-26.5-11T113 216.5q0-15.5 10.5-26.5t26.5-11h88q5 0 8.5-3.5t3.5-9q0-5.5-3.5-9T238 154H75q-28-1-48-17-17-14-23-36t0-44q6-22 23-37Q47 5 75 4h175q21 0 35.5 14.5T300 54q0 21-14.5 35.5T250 104H75q-5 0-8.5-3.5t-3.5-9q0-5.5 3.5-9T75 79h175q10 0 17.5-7.5T275 54q0-10-7.5-17.5T250 29H75q-21 0-35.5 14.5T25 79q0 21 14.5 35.5T75 129h163q15 0 26 11t11 26.5q0 15.5-11 26.5t-27 11h-87q-5 0-9 3.5t-3.5 9q.5 5.5 4 9t8.5 3.5h50q16 0 27 11t11 26.5q0 15.5-11 26.5t-27 11z"/></svg>