<svg viewBox="0 0 300 316" xmlns="http://www.w3.org/2000/svg"><path d="M138 229v-13h-4q-10 0-18.5-5T102 198q-3-5-1.5-10t6-7.5q4.5-2.5 9.5-1t8 7q3 5.5 10 5.5h29q5-1 8.5-4.5t3.5-8q0-4.5-2.5-7T167 169l-38-6q-13-2-21-11.5t-8-22.5q0-16 11-26.5T137 92V79q1-5 4.5-8.5t8.5-4q5-.5 8.5 3.5t3.5 9v12h4q10 0 18.5 5.5T198 110q3 5 1.5 10t-6 7.5q-4.5 2.5-9.5 1t-8-7q-3-5.5-10-4.5h-28q-6-1-9.5 3t-3.5 8.5q0 4.5 2.5 7t5.5 3.5l38 6q13 2 21 11.5t8 22.5q0 16-11 27t-26 11v12q0 5-4 8.5t-9 3.5q-5 0-8.5-3.5T138 229zm75-125q-1 5 3 9t9 4h50q10-1 17.5-8t7.5-18V41q0-5-3.5-8.5t-9-3.5q-5.5 0-9 3.5T275 41v30q-21-31-54-49T150 4q-41 0-75.5 20T20 78.5Q0 113 0 154t20 75.5Q40 264 74.5 284t75.5 20q41 0 75.5-20t54.5-54.5q20-34.5 20-75.5 0-5-3.5-9t-9-3.5q-5.5.5-9 4T275 154q0 34-17 62.5T212.5 262Q184 279 150 279t-62.5-17Q59 245 42 216.5T25 154q0-34 17-62.5T87.5 46Q116 29 150 29t63 16.5Q242 62 258 92h-33q-5 0-9 3.5t-4 8.5h1z"/></svg>