<svg viewBox="0 0 300 316" xmlns="http://www.w3.org/2000/svg"><path d="M150 4q-41 0-75.5 20T20 78.5Q0 113 0 154t20 75.5Q40 264 74.5 284t75.5 20q41 0 75.5-20t54.5-54.5q20-34.5 20-75.5t-20-75.5Q260 44 225.5 24T150 4zm-25 89q0-10 6-17.5t15-8.5q11-2 20 5.5t9 18.5h-12q-6 0-9.5 4t-3.5 9q0 5 3.5 8.5t9.5 3.5h12v13h-12q-6 0-9.5 3.5t-3.5 9q0 5.5 3.5 9t9.5 3.5h12q0 11-9 19t-20 6q-9-2-15-9.5t-6-16.5V93zm38 135v13q-1 6-4.5 9.5T150 254q-5 0-8.5-3.5T138 242v-14q-27-5-45-25.5T75 154q0-5 3.5-8.5t9-4q5.5-.5 9 3.5t3.5 9q0 21 14.5 35.5T150 204q21 0 35.5-14.5T200 154q0-5 3.5-8.5t9-4q5.5-.5 9 3.5t3.5 9q0 28-18 48.5T163 228z"/></svg>