<svg viewBox="0 0 300 316" xmlns="http://www.w3.org/2000/svg"><path d="M119 166H69q-18 0-31-12.5T25 123V73q0-18 13-31t31-13h50q18 0 31 13t13 31v50q0 18-13 30.5T119 166zm125 0h-25q-13 0-22-9t-9-22v-25q0-13 9-22t22-9h25q13 0 22 9t9 22v25q0 13-9 22.5t-22 9.5v-1zm0 25H56q-23 0-39.5 16.5T0 247.5q0 23.5 16.5 40T56 304h188q23 0 39.5-16.5t16.5-40q0-23.5-16.5-39.5T244 192v-1zM56 266q-8 0-13-5t-5-13q0-8 5-13.5t13-5.5q8 0 13.5 5.5T75 248q0 8-5.5 13T56 266zm94 0q-8 0-13.5-5t-5.5-13q0-8 5.5-13.5T150 229q8 0 13.5 5.5T169 248q0 8-5.5 13t-13.5 5zm94 0q-8 0-13.5-5t-5.5-13q0-8 5.5-13.5T244 229q8 0 13.5 5.5t5 13.5q-.5 8-5.5 13t-13 5z"/></svg>