<svg viewBox="0 0 300 316" xmlns="http://www.w3.org/2000/svg"><path d="M160 4q-32-2-62.5 9.5T44 48Q21 71 9.5 101.5T0 165q3 39 25.5 71T84 286q36 18 80 18h74q16 0 30.5-8.5t23-23Q300 258 300 241v-83q0-40-18.5-74T231 28.5Q199 7 160 4zm-22 162q0 21-15 35.5T87 216q-5 0-8.5-3.5T75 204q0-5 3.5-9t8.5-4q11 0 18.5-7t7.5-18H94q-8 1-13.5-4.5T75 148v-19q0-10 7.5-17.5T100 104h19q8 0 13.5 5.5T138 123v43zm87 0q0 21-14.5 35.5T175 216q-5 1-9-3t-3.5-9q.5-5 4-9t8.5-4q10 0 17.5-7t7.5-18h-19q-8 1-13-4.5t-6-13.5v-19q1-10 8-17.5t18-7.5h18q8 0 13.5 5.5T225 123v43z"/></svg>