<svg viewBox="0 0 300 316" xmlns="http://www.w3.org/2000/svg"><path d="M150 4q-41 0-75.5 20T20 78.5Q0 113 0 154q2 57 33 95 29 35 73 47.5t88 0q44-12.5 73-47.5 31-38 33-95 0-41-20-75.5T225.5 24Q191 4 150 4zm44 100q8 0 13.5 5.5T213 123q0 8-5.5 13.5t-13.5 5q-8-.5-13.5-5.5t-5.5-13q0-8 5.5-13.5T194 104zm-88 0q8 0 13.5 5.5T125 123q0 8-5.5 13.5t-13.5 5q-8-.5-13-5.5t-5-13q0-8 5-13.5t13-5.5zM75 204q0-10 7.5-17.5T100 179h13v50h-13q-10 0-17.5-7.5T75 204zm63 25v-50h25v50h-25zm62 0h-12v-50h12q10 0 17.5 7.5T225 204q0 10-7.5 17.5T200 229z"/></svg>