<svg viewBox="0 0 300 316" xmlns="http://www.w3.org/2000/svg"><path d="M272 74l-87-59Q169 4 150 4t-35 11L28 74Q15 82 7.5 96T0 126v115q0 17 8.5 31.5t23 23Q46 304 63 304h175q16 0 30.5-8.5t23-23Q300 258 300 241V126q0-16-7.5-30T272 74zm-47 99q0 13-9 22t-22 9h-6v6q0 13-9.5 22.5T156 242h-12q-13-1-22.5-10t-9.5-22v-6h-6q-13 0-22-9t-9-22v-13q0-13 9-22t22-9h7v-6q0-13 9-22t22-9h12q13-1 22.5 8.5T188 123v6h6q13 0 22 9t9 22v13zm-25-13v13q0 2-2 4t-4 2h-19q-5 0-8.5 3.5T163 192v18q0 3-2 4.5t-5 1.5h-12q-3 0-4.5-1.5T138 210v-19q0-5-4-8.5t-9-3.5h-19q-2 0-4-2t-2-4v-13q0-2 2-4t4-2h19q5 0 9-3.5t3-8.5v-19q1-3 2.5-5t4.5-2h12q3 1 5 2.5t2 4.5v18q0 6 3.5 9.5t8.5 3.5h19q2 0 4 2t2 4z"/></svg>