<svg viewBox="0 0 300 316" xmlns="http://www.w3.org/2000/svg"><path d="M188 129q0 16-11 26.5T150 166q-16 0-26.5-10.5T113 129q0-16 10.5-26.5T150 92q16 0 26.5 10.5T187 129h1zm87-63v125q0 17-8.5 31.5t-23 23Q229 254 212 254h-20q19 10 30 26 4 5 3 10.5t-6 9.5q-5 4-12 4H93q-7 0-12-4t-6-9.5q-1-5.5 3-10.5 11-16 30-26H88q-17 0-31.5-8.5t-23-23Q25 208 25 192V66q0-16 8.5-30.5t23-23Q71 4 87 4h126q16 0 30.5 8.5t23 23Q275 50 275 67v-1zm-62 63q0-17-8.5-31.5t-23-22.5Q167 67 150 67t-31.5 8Q104 83 96 97.5T88 129q0 17 8 31.5t22.5 22.5q14.5 8 31.5 8.5t31.5-8q14.5-8.5 22.5-23t8-31.5h1z"/></svg>