<svg viewBox="0 0 300 316" xmlns="http://www.w3.org/2000/svg"><path d="M234 283l-32-32q10-16 10.5-33.5t-8-32q-8.5-14.5-23-23T150 154q-17 0-31.5 8.5t-22.5 23q-8 14.5-8 31t8 31q8 14.5 22.5 23T151 279q18 0 33-10l32 31q4 4 9 4t9-3.5q4-3.5 4-9t-4-8.5zm4-279H63q-17 0-31.5 8.5t-23 23Q0 50 0 66v63q0 17 8.5 31.5t23 22.5q14.5 8 31.5 8h3q8-27 31.5-44.5T150 129q29 0 52.5 17.5T234 192h4q16 0 30.5-8.5t23-23Q300 146 300 129V66q0-16-8.5-30.5t-23-23Q254 4 238 4zM105 74l-4 45q0 4-2.5 7t-7 3q-4.5 0-6.5-5l-11-20-10 20q-3 5-7 5t-6.5-3q-2.5-3-2.5-7l-4-45q0-3 1.5-5.5T50 66q3 0 4.5 2t2.5 4l2 34 10-18q1-4 5-4t6 4l10 18 2-34q0-2 2-4t5-2q2 1 4 3t2 5zm75 0l-4 45q0 4-3 7t-7 3q-4 0-6-5l-11-20-10 20q-3 5-7 5t-6.5-3q-2.5-3-3.5-7l-4-45q0-3 2-5.5t4.5-2.5q2.5 0 4.5 2t2 4l3 34 9-18q2-4 6-4t6 4l9 18 3-34q0-2 2-4t4-2q3 1 5 3t2 5zm75 0l-4 45q0 4-2.5 7t-7 3q-4.5 0-6.5-5l-11-20-10 20q-3 5-7 5t-6.5-3q-2.5-3-2.5-7l-4-45q0-3 1.5-5.5T200 66q3 0 4.5 2t2.5 4l2 34 10-18q1-4 5-4t6 4l10 18 2-34q0-2 2-4t5-2q2 1 4 3t2 5z"/></svg>