<svg viewBox="0 0 300 316" xmlns="http://www.w3.org/2000/svg"><path d="M297 300q-4 4-9 4t-9-3L150 183 21 301q-4 3-9 3t-8.5-4Q0 296 0 291t4-9l134-121V16q0-5 3.5-8.5T150 4q5 0 9 3.5t4 8.5v145l133 121q4 4 4 9t-3 9zM219 41q8 0 13.5-5t5.5-13q0-8-5.5-13.5T219 4q-8 0-13.5 5.5T200 23q0 8 5.5 13t13.5 5zm62 63q8 0 13.5-5.5T300 85q0-8-5.5-13.5T281 66q-8 0-13 5.5T263 85q0 8 5 13.5t13 5.5zM119 254q-8 0-13.5 5.5T100 273q0 8 5.5 13t13.5 5q8 0 13.5-5t5.5-13q0-8-5.5-13.5T119 254zm75 12q-8 0-13.5 5.5T175 285q0 8 5.5 13.5T194 304q8 0 13.5-5.5T213 285q0-8-5.5-13.5T194 266zM81 104q8 0 13.5-5.5T100 85q0-8-5.5-13.5T81 66q-8 0-13 5.5T63 85q0 8 5 13.5t13 5.5zM19 41q8 0 13.5-5T38 23q0-8-5.5-13.5T19 4Q11 4 5.5 9.5T0 23q0 8 5.5 13T19 41zm6 132q0 8 5.5 13t13.5 5q8 0 13.5-5t5.5-13q0-8-5.5-13.5T44 154q-8 0-13.5 5.5T25 173zm200-13q0 8 5.5 13.5T244 179q8 0 13.5-5.5T263 160q0-8-5.5-13.5T244 141q-8 0-13.5 5.5T225 160z"/></svg>