<svg viewBox="0 0 300 316" xmlns="http://www.w3.org/2000/svg"><path d="M225 154q-20 0-37.5 10T160 191.5Q150 209 150 229t10 37.5q10 17.5 27.5 27.5t37.5 10q20 0 37.5-10t27.5-27.5q10-17.5 10-37.5t-10-37.5Q280 174 262.5 164T225 154zm40 78l-28 26q-8 8-20.5 8t-20.5-8l-14-14q-4-3-4-8.5t3.5-9q3.5-3.5 8.5-3.5t9 3l14 14q2 2 3.5 1.5t3.5-1.5l28-27q3-3 8.5-3t9 4q3.5 4 3.5 9t-4 9zm-140-3q0-22 9-41.5t25-33.5H63q-6 0-9.5-3.5t-3.5-9q0-5.5 3.5-9T63 129h100q5 0 8.5 3.5t3.5 8.5v1q23-13 50-13V66q0-16-8.5-30.5t-23-23Q179 4 162 4H63q-17 0-31.5 8.5t-23 23Q0 50 0 67v174q0 17 8.5 31.5t23 23Q46 304 63 304h96q-16-14-25-33.5t-9-41.5zM63 66h100q5 0 8.5 4t3.5 9q0 5-3.5 8.5T163 92H63q-6-1-9.5-4.5T50 79q0-5 3.5-9t9.5-4zm25 150H63q-6 0-9.5-3.5T50 204q0-5 3.5-9t9.5-4h25q5 0 8.5 4t3.5 9q0 5-3.5 9t-9.5 4l1-1z"/></svg>