<svg viewBox="0 0 300 316" xmlns="http://www.w3.org/2000/svg"><path d="M263 54h-39q-5-22-22-36T163 4h-25q-23 0-40 14T76 54H38q-6 0-9.5 3.5t-3.5 9q0 5.5 3.5 9T38 79h12v162q0 17 8.5 31.5t23 23Q96 304 112 304h76q16 0 30.5-8.5t23-23Q250 258 250 241V79h13q5 0 8.5-3.5t3.5-9q0-5.5-3.5-9T262 54h1zM138 29h25q12 0 21.5 7T198 54h-96q4-11 13.5-18t22.5-7zm58 149q-3 3-8.5 3t-8.5-3l-16-16v54q0 6-4 9.5t-9 3.5q-5 0-8.5-3.5T138 217v-55l-17 16q-3 3-8.5 3t-9-3.5Q100 174 100 169t4-9l20-20q11-11 26-11t26 11l20 20q4 4 4 9t-4 9z"/></svg>