<svg viewBox="0 0 300 316" xmlns="http://www.w3.org/2000/svg"><path d="M150 4q-34 0-62.5 17T42 66.5Q25 95 25 129v162q0 5 3 8.5t7.5 4.5q4.5 1 8.5-1.5t5-6.5q3-7 10.5-12t15.5-5q8 0 15.5 5t10.5 12q1 3 4.5 5.5t7 2.5q3.5 0 7-2.5t4.5-5.5q3-7 10.5-12t15.5-5q8 0 15.5 5t10.5 12q1 3 4.5 5.5t7 2.5q3.5 0 7-2.5t4.5-5.5q3-7 10.5-12t15.5-5q8 0 15.5 5t10.5 12q1 3 4.5 5.5t6.5 2.5h3q4-1 7-4.5t3-8.5V129q0-34-17-62.5T212.5 21Q184 4 150 4zm-44 150q-8 0-13.5-5.5t-5-13.5q.5-8 5.5-13.5t13-5q8 .5 13.5 5.5t5.5 13q0 8-5.5 13.5T106 154zm88 0q-8 0-13.5-5.5T175 135q0-8 5.5-13.5t13.5-5q8 .5 13.5 5.5t5 13q-.5 8-5.5 13.5t-13 5.5z"/></svg>