<svg viewBox="0 0 300 316" xmlns="http://www.w3.org/2000/svg"><path d="M0 279V129q0-21 14.5-35.5T50 79v200q0 10-7.5 17.5T25 304q-10 0-17.5-7.5T0 279zM300 66v175q0 17-8.5 31.5t-23 23Q254 304 238 304H68q7-12 7-25V66q0-16 8.5-30.5t23-23Q121 4 138 4h100q16 0 30.5 8.5t23 23Q300 50 300 66zm-175 38h25q5 0 8.5-3.5T162 91V66q1-5-3-8.5t-9-3.5h-25q-5 0-8.5 3.5T113 67v24q0 6 3.5 9.5t8.5 3.5zm125 125H125q-5 0-8.5 3.5T113 241q0 6 3.5 9.5t8.5 3.5h125q5 0 9-3.5t4-8.5q0-6-4-9.5t-9-3.5zm0-50H125q-5 0-8.5 3.5T113 191q0 6 3.5 9.5t8.5 3.5h125q5 0 9-3.5t4-8.5q0-6-4-9.5t-9-3.5zm0-50H125q-5 0-8.5 3.5T113 142q0 5 3.5 8.5t8.5 3.5h125q5 0 9-3.5t4-9.5q0-5-4-8.5t-9-3.5zm0-50h-50q-5 0-8.5 3.5T188 92q0 5 3.5 8.5t8.5 3.5h50q5 0 9-3.5t4-9.5q0-5-4-8.5t-9-3.5z"/></svg>