<svg viewBox="0 0 300 316" xmlns="http://www.w3.org/2000/svg"><path d="M163 30V16q0-5-4-8.5T150 4q-5 0-8.5 3.5T138 17v13q-35 3-63.5 22t-45 49Q13 131 13 167q0 25 8.5 48T46 256q-9 5-15 13.5T25 291q0 6 3.5 9.5t9 3.5q5.5 0 9-3.5T50 291q0-8 6-12 3-2 8-3h2q18 13 39.5 20.5T150 304q23 0 44.5-7.5T234 276h2q5 1 8 3 6 4 6 12 0 6 3.5 9.5t9 3.5q5.5 0 9-3.5t3.5-9.5q0-13-6-21.5T254 256q16-18 24.5-41t8.5-49q1-35-16-65t-45.5-49Q197 33 162 30h1zm37 149h-37v37q0 6-4 9.5t-9 3.5q-5 0-8.5-3.5T138 217v-38h-38q-5 0-8.5-3.5t-3.5-9q0-5.5 3.5-9t8.5-3.5h38v-38q0-5 3.5-8.5t8.5-3.5q5 0 8.5 3.5t3.5 9.5v37h38q5 0 8.5 3.5t4 9q.5 5.5-3.5 9t-9 3.5zM300 60q0 5-3.5 9t-9 4q-5.5 0-9-4t-3.5-9q0-12-9.5-21.5T240 29q-5 0-8.5-3.5t-3.5-9q0-5.5 3.5-9T240 4q25 0 42.5 16.5T300 60zM13 73q-6 0-9.5-4T0 60q0-23 17.5-39.5T60 4q5 0 8.5 3.5t3.5 9q0 5.5-3.5 9T60 29q-16 0-25.5 9.5T25 60q0 5-3.5 9T12 73h1z"/></svg>