<svg viewBox="0 0 300 316" xmlns="http://www.w3.org/2000/svg"><path d="M63 229h212v12q0 17-8.5 31.5t-23 23Q229 304 213 304H63q-16 0-27-11t-11-26.5Q25 251 36 240t26-11h1zm0-25h12V5q-22 5-36 22T25 66v151q13-10 30-12 4-1 8-1zM275 66v138H100V4h113q16 0 30.5 8.5t23 23Q275 50 275 66zm-113 7q0 13 9 22t22 9q13 0 22-9t9-22q0-13-9-22t-22-9.5q-13-.5-22 9T162 73zm86 75q-9-15-23.5-23.5T193 116q-17 0-32 8.5T137 148q-2 4-1 9t5.5 7.5q4.5 2.5 9.5 1.5t8-6q5-8 14.5-13t19.5-5q10 0 19.5 5t14.5 13q3 7 11 7 3 0 6.5-2.5t5-7.5q1.5-5-1.5-9z"/></svg>