<svg viewBox="0 0 300 316" xmlns="http://www.w3.org/2000/svg"><path d="M238 54q0-21-15-35.5T187 4h-74Q92 4 77.5 18.5T62 54v12h176V54zM100 191h100q16 0 27 11t11 27v37q0 16-11 27t-27 11H100q-16 0-27-11t-11-26v-38q1-16 11.5-27t26.5-11zM238 91H63q-17 1-31.5 9t-23 22.5Q0 137 0 154v50q0 19 10 34.5T37 261v-32q1-17 9-31.5T68.5 175q14.5-8 31.5-9h100q17 1 31.5 9t22.5 22.5q8 14.5 9 31.5v32q17-7 27-22.5t10-34.5v-50q0-17-8.5-31.5t-23-22.5Q254 92 238 91zm-13 50h-25q-5 0-9-3.5t-3.5-8.5q.5-5 4-9t8.5-4h25q5 0 9 4t3.5 9q-.5 5-4 9t-8.5 4v-1z"/></svg>