<svg viewBox="0 0 300 316" xmlns="http://www.w3.org/2000/svg"><path d="M248 59q-23-30-57.5-44.5T118 5q-31 5-56.5 22t-42 44Q3 98 1 129q-3 26 4.5 50.5T28 225q10 12 10 29v13q0 15 11 26t26 11h88q15 0 26-11t11-27h6q24 0 41.5-15.5T268 212l3-21h4q12 0 18.5-7.5T300 166q0-12-20-51.5T248 59zm-62 70h14q5 0 9 3.5t4 8.5q0 6-4 9.5t-9 3.5h-14q-2 6-5 13l12 12h1q8 0 13.5 5.5T213 198q0 8-5.5 13.5T194 217q-8 0-13.5-5.5T175 198v-1l-12-13q-6 4-13 6v14q0 5-3.5 8.5T138 216q-6 0-9.5-3.5T125 204v-14q-6-2-13-6l-12 13v1q0 8-5.5 13.5T81 217q-8 0-13.5-5.5T62 198q0-8 5.5-13.5T81 179h1l13-12q-4-6-6-13H75q-5 0-8.5-3.5T63 141q0-5 3.5-8.5T75 129h14q2-6 6-13l-13-12h-1q-8 0-13.5-5.5T62 85q0-8 5.5-13.5T81 66q8 0 13.5 5.5T100 85v1l12 12q6-3 13-5V79q0-5 3.5-9t9.5-4q5 0 8.5 4t3.5 9v14q6 2 13 5l12-12v-1q0-8 5.5-13.5T194 66q8 0 13.5 5.5T213 85q0 8-5.5 13.5T194 104h-1l-12 12q3 6 5 13zm-73 12q0-10 7-17.5t17.5-7.5q10.5 0 18 7.5t7.5 18q0 10.5-7.5 17.5t-18 7q-10.5 0-17.5-7t-7-18z"/></svg>