<svg viewBox="0 0 300 316" xmlns="http://www.w3.org/2000/svg"><path d="M206 104q-8 0-13.5 5.5T187 123v50q1 7 6 12.5t13 5.5q8 0 13.5-5.5T225 173v-50q0-8-5.5-13.5T206 104zm-50 0q-8 0-13.5 5.5T137 123v50q1 7 6 12.5t13 5.5q8 0 13.5-5.5T175 173v-50q0-8-5.5-13.5T156 104zm100 0q-8 0-13 5.5t-5 13.5v50q0 7 5 12.5t13 5.5q8 0 13.5-5.5T275 173v-50q0-8-5.5-13.5T256 104zm19 108v29q0 17-8.5 31.5t-23 23Q229 304 213 304h-92q-14 0-28-5.5T68 282l-27-27q-16-16-16-39t16-39l28-27q7-7 16.5-8t16.5 4q10 7 10.5 18.5T105 184l-23 20q-3 4-3 9t3.5 8.5Q86 225 91 225t9-3l23-21q6 7 15 11t18 4q14 0 25-8 12 8 25.5 8t24.5-7q11 8 25 8 10 0 19-5zM125 29H88v-6q0-8 5-13.5T106 4q8 0 13.5 5.5T125 23v6zm0 25v80q-4-5-8-8-13-9-30-9V91H30q-3 0-4.5-2.5T27 83l16-10-16-10q-3-3-1.5-6t4.5-3h95z"/></svg>