<svg viewBox="0 0 300 316" xmlns="http://www.w3.org/2000/svg"><path d="M225 166q-17 0-30.5 10.5t-18 27q-4.5 16.5 2 32T200 260v35q0 6 5.5 8.5t9.5-2.5l10-9 10 9q4 5 9.5 2.5t5.5-8.5v-35q15-9 21.5-24.5t2-32q-4.5-16.5-18-27T225 166zm-75 50q0-20 10-37t27.5-27.5q17.5-10.5 37.5-10t38 10.5V66q-1-16-9-30.5t-22.5-23Q217 4 200 4H100q-17 0-31.5 8.5T46 35.5Q38 50 37 67v149q1 17 9 31.5t22.5 23Q83 279 100 279h75v-7q-12-10-18.5-25t-6.5-31zM100 54h100q5 0 9 3.5t4 9q0 5.5-4 9t-9 3.5H100q-5 0-8.5-3.5t-3.5-9q0-5.5 3.5-9T100 54zm0 50h100q5 0 9 3.5t4 9q0 5.5-4 9t-9 3.5H100q-5 0-8.5-3.5t-3.5-9q0-5.5 3.5-9t8.5-3.5zm38 75h-38q-5 0-8.5-3.5t-3.5-9q0-5.5 3.5-9t8.5-3.5h38q5 0 8.5 3.5t3.5 9q0 5.5-3.5 9T138 179z"/></svg>