<svg viewBox="0 0 300 316" xmlns="http://www.w3.org/2000/svg"><path d="M238 16q0-5 3.5-8.5T250 4h38q7 0 10.5 7t-.5 13l-23 30h13q5 0 8.5 3.5t3.5 9q0 5.5-3.5 9T288 79h-38q-8 0-11.5-7t1.5-13l23-30h-13q-5 0-8.5-3.5T238 16zm53 88zm-41 0h41q9 25 9 50 0 41-20 75.5T225.5 284Q191 304 150 304t-75.5-20Q40 264 20 229.5T0 154q0-41 20-75.5T74.5 24Q109 4 150 4q33 0 63 14 0 13 9 23l-2 3q-6 9-7 19.5t3.5 20q4.5 9.5 13.5 15t20 5.5zM138 54q0 5 3.5 8.5T150 66h13l-23 30q-5 7-1.5 13.5T150 116h38q5 1 8.5-3t3.5-9q0-5-3.5-9t-8.5-3h-13l23-31q4-6 .5-13T188 42h-38q-5-1-9 3t-4 9h1zm-38 125q9 0 18.5-4.5T135 162q3-4 2.5-9t-4-8.5q-3.5-3.5-9-3T116 146q-7 8-16 8-8 0-15-8-3-4-8.5-4.5t-9.5 3q-4 3.5-4.5 8.5t3.5 9q14 17 33 17h1zm75 50q0-10-7.5-17.5T150 204q-10 0-17.5 7.5T125 229q0 10 7.5 17.5T150 254q10 0 17.5-7.5T175 229zm59-84q-4-4-9.5-3.5T216 146q-7 8-16 8-8 0-15-8-3-4-8.5-4.5t-9.5 3q-4 3.5-4.5 8.5t3.5 9q14 17 33 17h1q9 0 18.5-4.5T235 162q3-4 2.5-9t-3.5-8z"/></svg>