<svg viewBox="0 0 300 316" xmlns="http://www.w3.org/2000/svg"><path d="M150 4q-41 0-75.5 20T20 78.5Q0 113 0 154t20 75.5Q40 264 74.5 284t75.5 20q41 0 75.5-20t54.5-54.5q20-34.5 20-75.5t-20-75.5Q260 44 225.5 24T150 4zm0 225h-37q-6 0-9.5-3.5t-3.5-9q0-5.5 3.5-9t8.5-3.5h38q10 0 17.5-7.5T175 179q0-10-7.5-17.5T150 154h-25q-5 0-8.5-3.5t-4-9q-.5-5.5 3.5-9t9-3.5h25q5 0 9-3.5t4-9q0-5.5-4-9t-9-3.5h-37q-6 0-9.5-3.5t-3.5-9q0-5.5 3.5-9T112 79h38q16 0 26.5 11t10.5 26q1 13-7 23 9 7 14.5 17.5T200 179q0 21-14.5 35.5T150 229z"/></svg>