<svg viewBox="0 0 300 316" xmlns="http://www.w3.org/2000/svg"><path d="M287 290q1 7-4 11-4 3-8 3-2 0-14-4l-11-4-21 7q-7 3-12-1.5t-4-11.5l1-9q2-15 12-28-26-28-26-56.5t24-55.5q10-11 26-11t26 11q24 28 24 56t-26 56q10 13 12 28l1 9zm-187-99q0 16-11 27t-26 11q-7 0-13-2v52q0 10-7.5 17.5T25 304q-10 0-17.5-7.5T0 279v-75q0-7 4-13t10-9q4-39 20-72 23-44 66-71Q154 6 237 4q11 0 18.5 7t6.5 18v62q1 6-3 9.5t-9 3.5q-5 0-8.5-3.5T238 92V29q-94 3-145 46-39 32-51 85 10-6 21-6 15 0 26 11t11 26zm-25 0q0-5-3.5-8.5t-9-3.5q-5.5 0-9 3.5t-3.5 9q0 5.5 3.5 9t9 3.5q5.5 0 9-3.5T75 192v-1z"/></svg>