<svg viewBox="0 0 300 316" xmlns="http://www.w3.org/2000/svg"><path d="M299 87q-2-5-7-6.5t-10 .5l-7 3V16q0-5-3.5-8.5t-9-3.5q-5.5 0-9 3.5T250 17v78l-50 23V16q0-5-3.5-8.5t-9-3.5q-5.5 0-9 3.5T175 17v112l-50 23V16q0-5-3.5-8.5t-9-3.5q-5.5 0-9 3.5T100 17v146l-50 22V16q0-5-3.5-8.5t-9-3.5q-5.5 0-9 3.5T25 17v179l-18 8q-4 2-6 7t0 9q2 4 5 6t6 2q3 0 6-1l7-3v67q0 6 3.5 9.5t9 3.5q5.5 0 9-3.5T50 291v-78l50-23v101q0 6 3.5 9.5t9 3.5q5.5 0 9-3.5t3.5-9.5V179l50-23v136q0 5 3.5 8.5t9 3.5q5.5 0 9-3.5t3.5-8.5V145l50-22v169q0 5 3.5 8.5t9 3.5q5.5 0 9-3.5t3.5-8.5V112l18-8q4-2 6-7t0-10z"/></svg>