<svg viewBox="0 0 300 316" xmlns="http://www.w3.org/2000/svg"><path d="M150 4q-41 0-75.5 20T20 78.5Q0 113 0 154q2 57 33 95 29 35 73 47.5t88 0q44-12.5 73-47.5 31-38 33-95 0-41-20-75.5T225.5 24Q191 4 150 4zM68 141l7-20-17-13q-3-2-3.5-4.5t0-5.5q.5-3 3-4.5T63 91h21l7-19q0-3 2.5-5t5.5-2q3 0 5.5 2t3.5 5l6 19h21q3 0 5.5 2t3.5 5q1 3 0 5.5t-3 4.5l-17 13 6 20q1 3 0 5.5t-3.5 4.5q-2.5 2-5.5 2t-5-2l-17-12-16 12q-3 2-6 2t-5.5-2q-2.5-2-3.5-5t0-5zm155 57q-11 20-30.5 31.5T150 241q-23 0-42.5-11.5T77 198q-2-3-2-6.5t2-7q2-3.5 5.5-4.5t7.5-1q29 11 60 12 31-1 60-12 4 0 7.5 1t5.5 4.5q2 3.5 2 7t-2 6.5zm18-90l-17 13 7 20q0 3-.5 5.5t-3 4.5q-2.5 2-5.5 2t-6-2l-16-12-17 12q-3 2-6 2t-5.5-2q-2.5-2-3-5t.5-5l6-20-17-13q-2-2-3-4.5t0-5.5q1-3 3-4.5t5-1.5h21l7-20q1-3 3.5-5t5.5-2q3 0 5 2t3 5l7 19h21q3 0 5 2t3 5q1 3 0 5.5t-3 4.5z"/></svg>