<svg viewBox="0 0 300 316" xmlns="http://www.w3.org/2000/svg"><path d="M163 279H71q-26 0-45.5-16.5T1 220q-4-21 6-40.5T37 150q-8-15-11-32t1-33q6-34 32-56.5T119.5 4Q154 2 182 22t38 52q2 7 9 9 21 7 38 21h-4q-23 0-40.5 14.5T201 155l-11 6q-13-7-27-7-17 0-31.5 8.5t-23 23q-8.5 14.5-8.5 31t8.5 31q8.5 14.5 23 23T162 279h1zm100-75q15 0 26-11t11-26.5q0-15.5-11-26.5t-26.5-11q-15.5 0-26.5 11t-11 26v5l-37 19q-11-11-26-11t-26 11q-11 11-11 26.5t11 26.5q11 11 26 11t26-11l37 19v5q0 13 8.5 23.5t21.5 13q13 2.5 25-3.5t17.5-18.5Q303 269 299 256t-15-20.5q-11-7.5-24.5-6.5T237 240l-37-19v-9l37-19q10 11 26 11z"/></svg>