<svg viewBox="0 0 300 316" xmlns="http://www.w3.org/2000/svg"><path d="M150 79q42 0 76.5 10t54 27q19.5 17 19.5 38 0-41-20-75.5T225.5 24Q191 4 150 4T74.5 24Q40 44 20 78.5T0 154q0-21 19.5-38t54-27Q108 79 150 79zM25 154q0 14 17 25.5t45.5 18Q116 204 150 204t62.5-6.5q28.5-6.5 45.5-18t17-25.5q0-14-17-25.5t-45.5-18Q184 104 150 104t-62.5 6.5Q59 117 42 128.5T25 154zm125 75q-42 0-76.5-10t-54-27Q0 175 0 154q0 41 20 75.5T74.5 284q34.5 20 75.5 20t75.5-20q34.5-20 54.5-54.5t20-75.5q0 21-19.5 38t-54 27Q192 229 150 229z"/></svg>