<svg viewBox="0 0 300 316" xmlns="http://www.w3.org/2000/svg"><path d="M299 136q-3 7-8 13l-6 4-10-11q-4-4-9-4.5t-9 3q-4 3.5-4 8.5t3 9l10 12-20 18-10-12q-4-4-9-4t-9 3.5q-4 3.5-4.5 8.5t3.5 9l10 12-14 13q-4 3-9 3.5t-9-2.5q-23-15-45-15-18 0-38 11-10 6-16 11-4 3-9 3t-8.5-4q-3.5-4-3.5-9t4-9q9-7 21-14 26-14 50-14 12 0 26 4l83-73q7-7 18-6t17 9q-9-31-30-56t-50.5-39Q184 4 150 4q-41 0-75.5 20T20 78.5Q0 113 0 154t20 75.5Q40 264 74.5 284t75.5 20q41 0 75.5-20t54.5-54.5q20-34.5 20-75.5 0-8-1-18zm-105-32q7 0 12.5 5.5T212 123q0 8-5.5 13.5t-13 5q-7.5-.5-13-5.5t-5.5-13q0-8 5.5-13.5T194 104zm-88 0q8 0 13.5 5.5T125 123q0 8-5.5 13.5t-13.5 5q-8-.5-13.5-5.5T87 123q0-8 5.5-13.5T106 104z"/></svg>