<svg viewBox="0 0 300 316" xmlns="http://www.w3.org/2000/svg"><path d="M100 110v25q0 3-2 5t-4 2H56q-2 0-4-2t-2-5v-25q0-2 2-4t4-2h38q2 0 4 2t2 4zm106-6h-25q-2 0-4 2t-2 4v156h38V110q0-2-2-4t-5-2zM94 304q18 0 31-13t13-31q0-18-13-31t-31-13q-18 0-31 13t-13 31q0 18 13 31t31 13zm206-50q0 5-3.5 8.5T288 266h-50V110q0-13-9.5-22T206 79h-25q-13 0-22 9t-9 22v111q-13-18-33-25t-41-1.5q-21 5.5-35 22T25 254q-12-9-18.5-22T0 204V66q0-16 8.5-30.5t23-23Q46 4 62 4h151q16 0 30.5 8.5t23 23Q275 50 275 66v175h13q5 0 8.5 4t3.5 9zM125 110q0-13-9-22t-22-9H56q-13 0-22 9t-9 22v25q0 13 9 22t22 9h38q13 0 22-9t9-22v-25z"/></svg>