<svg viewBox="0 0 300 316" xmlns="http://www.w3.org/2000/svg"><path d="M200 29h48l-57 64q-3 5-3.5 11.5t3 12q3.5 5.5 9 9T211 129h51q6 0 9.5-3.5t3.5-9q0-5.5-3.5-9T262 104h-48l57-64q4-5 4-11.5t-3-12q-3-5.5-8.5-9T251 4h-51q-5 0-8.5 3.5t-3.5 9q0 5.5 3.5 9T200 29zm75 194v68q0 6-3.5 9.5t-9 3.5q-5.5 0-9-3.5T250 291v-25h-37v25q-1 6-4.5 9.5T200 304q-5 0-8.5-3.5T188 291v-68q0-18 12.5-31t30.5-13q18 0 31 13t13 31zm-25 18v-18q0-8-5.5-13.5T231 204q-8 0-13 5.5t-5 13.5v18h37zM146 83q4-4 4-9t-4-9L93 11q-8-7-18-7t-18 7L4 65q-4 4-4 9t3.5 8.5Q7 86 12.5 86t8.5-3l42-42v250q0 6 3.5 9.5T75 304q5 0 8.5-3.5T88 291V41l41 42q3 3 8.5 3t8.5-3z"/></svg>