<svg viewBox="0 0 300 316" xmlns="http://www.w3.org/2000/svg"><path d="M88 304H63q-17 0-31.5-8.5t-23-23Q0 258 0 241v-25q0-5 3.5-8.5t9-3.5q5.5 0 9 3.5T25 217v24q0 16 11 27t27 11h25q5 0 8.5 3.5t3.5 9q0 5.5-3.5 9T87 304h1zm212-63v-25q0-5-3.5-8.5t-9-3.5q-5.5 0-9 3.5T275 217v24q0 16-11 27t-27 11h-24q-6 0-9.5 3.5t-3.5 9q0 5.5 3.5 9t8.5 3.5h26q16 0 30.5-8.5t23-23Q300 258 300 241zm0-150V66q0-16-8.5-30.5t-23-23Q254 4 238 4h-25q-6 0-9.5 3.5t-3.5 9q0 5.5 3.5 9T212 29h26q15 0 26 11t11 27v24q0 6 3.5 9.5t9 3.5q5.5 0 9-3.5T300 92v-1zM25 91V66q0-15 11-26t27-11h25q5 0 8.5-3.5t3.5-9q0-5.5-3.5-9T87 4H63q-17 0-31.5 8.5t-23 23Q0 50 0 67v24q0 6 3.5 9.5t9 3.5q5.5 0 9-3.5T25 92v-1zm200 38v50q0 16-11 27t-26 11h-75q-16-1-27-11.5T75 179v-50q0-15 11-26t26-11l9-14q3-5 8.5-8.5T142 67h16q7 0 12.5 3t8.5 8l9 14q15 0 26 11t11 26zm-50 25q0-10-7.5-17.5T150 129q-10 0-17.5 7.5T125 154q0 10 7.5 17.5T150 179q10 0 17.5-7.5T175 154z"/></svg>