<svg viewBox="0 0 300 316" xmlns="http://www.w3.org/2000/svg"><path d="M238 219q24-24 32.5-56.5t0-65Q262 65 238 41q-17-18-40-27.5T150 4q-25 0-48 9.5T62 41Q38 65 29.5 97.5t0 65Q38 195 62 219l45 42q11 12 27 16t31.5 0q15.5-4 27.5-16l45-42zm-71-32q-8 4-17 4t-17-4l-25-12q-9-5-15-14t-5-20v-37q-1-11 5-20t15-14l25-12q8-4 17-4t17 4l25 12q9 5 15 14t6 20v37q0 11-6 20t-15 14l-25 12zm20-87q0 2 1 4v37q0 8-7 11l-25 13q-6 3-12 0l-25-13q-7-3-7-11v-37l1-4 27 14q10 5 20 0l27-14zm63 191q0 6-3.5 9.5T238 304H63q-6 0-9.5-3.5t-3.5-9q0-5.5 3.5-9T63 279h175q5 0 8.5 3.5t3.5 8.5z"/></svg>