<svg viewBox="0 0 300 316" xmlns="http://www.w3.org/2000/svg"><path d="M259 223q-11 0-21 6l-56-46q6-9 6-20 0-13-8-23.5T160 125l5-41q10-3 17.5-11T193 54h27q3 14 14 22.5t25 8.5q17 0 29-12t12-28.5Q300 28 288 16T259 4q-12 0-22 7t-15 18h-31q-5-11-15-18t-23-7q-17 0-28.5 12T113 45q0 13 7.5 23.5T140 83l-5 41q-10 3-17.5 11T107 154H79q-4-12-14.5-20T41 126q-17 0-29 12T0 166.5Q0 183 12 195t29 12q13 0 23.5-8T79 179h30q5 11 15 18t23 7q9 0 17-4l58 48q-3 8-3 15 0 17 12 29t28.5 12q16.5 0 28.5-12t12-28.5q0-16.5-12-28.5t-29-12zM75 260q0 8-5.5 13.5T56 279q-8 0-13-5.5T38 260q0-8 5-13t13-5q8 0 13.5 5t5.5 13zm225-112q0 8-5.5 13.5t-13.5 5q-8-.5-13-5.5t-5-13q0-8 5-13.5t13-5.5q8 0 13.5 5.5T300 148zM163 285q0 8-5.5 13.5T144 304q-8 0-13.5-5.5T125 285q0-8 5.5-13t13.5-5.5q8-.5 13.5 5T163 285zM0 23q0-8 5.5-13.5T19 4q8 0 13 5.5T37.5 23q.5 8-5 13T19 41q-8 0-13.5-5T0 23zm50 50q0-8 5.5-13.5T69 54q8 0 13.5 5.5T88 73q0 8-5.5 13.5T69 92q-8 0-13.5-5.5T50 73z"/></svg>