<svg viewBox="0 0 300 316" xmlns="http://www.w3.org/2000/svg"><path d="M275 54h-51q-5-22-22-36T163 4h-25q-23 0-40 14T76 54H25q-5 0-8.5 3.5t-3.5 9q0 5.5 3.5 9T25 79h11l16 168q2 25 20 41t42 16h72q24 0 42-16t20-41l16-168h11q5 0 9-3.5t4-9q0-5.5-4-9t-9-3.5zM138 29h25q12 0 21.5 7T198 54h-96q4-11 13.5-18t22.5-7zm62 194q0 5-3.5 8.5t-9 3.5q-5.5 0-9-3.5T175 223v-25q0-11-7.5-18t-17.5-7h-24l16 16q4 4 4 9t-3.5 8.5q-3.5 3.5-9 3.5t-8.5-3l-20-21q-11-10-11-25.5t11-26.5l20-20q3-4 8.5-4t9 4q3.5 4 3.5 9t-4 9l-16 16h24q21 0 35.5 14.5T200 198v25z"/></svg>