<svg viewBox="0 0 300 316" xmlns="http://www.w3.org/2000/svg"><path d="M238 129H88V79h25q15 0 26-11t11-26.5Q150 26 139 15T113 4H38Q22 4 11 15T0 41.5Q0 57 11 68t27 11h25v50q-17 0-31.5 8.5t-23 23Q0 175 0 192v37h300v-38q0-16-8.5-30.5t-23-23Q254 129 238 129zM75 191q-5 0-8.5-3.5T63 179q0-5 3.5-8.5t8.5-4q5-.5 9 3.5t4 9q0 5-4 8.5t-9 3.5zm50 0q-5 0-8.5-3.5T113 179q0-5 3.5-8.5t8.5-4q5-.5 8.5 3.5t4 9q.5 5-3.5 8.5t-9 3.5zm50 0q-5 0-8.5-3.5T163 179q0-5 3.5-8.5t8.5-4q5-.5 8.5 3.5t4 9q.5 5-3.5 8.5t-9 3.5zm50 0q-5 0-8.5-3.5T213 179q0-5 3.5-8.5t8.5-4q5-.5 8.5 3.5t3.5 9q0 5-3.5 8.5T225 191zM1 254h298q-5 22-22 36t-39 14H63q-23 0-40-14T1 254z"/></svg>