<svg viewBox="0 0 300 316" xmlns="http://www.w3.org/2000/svg"><path d="M232 291h-52l-75-75h52l75 75zm37-75h-76l75 75h1q13 0 22-9t9-22v-12q0-13-9-22.5t-22-9.5zm-198 2q-21 3-45 14-12 6-20 12-6 3-6 10t6 10q11 8 26 14 30 13 55 13h58l-74-73zm179-39v-27q0-13-6.5-24.5T226 109l-20-12q-9-5-14-13.5T187 65V41q0-5-3.5-8.5T175 29q-5 0-9 3.5t-4 8.5v24q0 16 8.5 30.5T193 118l20 12q5 4 8.5 9.5T225 152v27q0 5 3.5 8.5t9 3.5q5.5 0 9-3.5t3.5-8.5zm50-25v-22q0-16-8-30.5T270 79l-26-16q-6-4-6-11V16q0-5-4-8.5T225 4q-5 0-8.5 3.5T213 17v35q0 10 4.5 18.5T231 85l26 15q8 5 13 13.5t5 18.5v22q0 5 3.5 8.5t9 3.5q5.5 0 9-3.5t3.5-8.5z"/></svg>