<svg viewBox="0 0 300 316" xmlns="http://www.w3.org/2000/svg"><path d="M0 94q0-7 6-10l123-74q10-6 21-6t21 6l123 74q6 3 6 10t-6 11l-123 74q-10 6-21 6t-21-6L6 105q-6-4-6-11zm288 147h-25v-25q0-5-4-8.5t-9-3.5q-5 0-9 3.5t-3 9.5v24h-25q-6 0-9.5 4t-3.5 9q0 5 3.5 8.5t9.5 3.5h25v25q-1 6 3 9.5t9 3.5q5 0 8.5-3.5t4.5-9.5v-25h25q5 0 8.5-3.5t3.5-8.5q0-5-3.5-8.5T287 242l1-1zm-132 37L19 195q-5-2-10-1t-7.5 5.5Q-1 204 .5 209t5.5 8l138 82q3 2 6 2 7 0 10-5t2-10q-1-5-6-8zm125-140l-131 79-131-79q-5-2-10-1t-7.5 5.5Q-1 147 .5 152t5.5 8l138 82q3 2 6 2t6-2l138-82q4-3 5.5-8t-1-9.5Q296 138 291 137t-10 1z"/></svg>