<svg viewBox="0 0 300 316" xmlns="http://www.w3.org/2000/svg"><path d="M25 35q0-13 9-22t22-9q13 0 22 9t9.5 22q.5 13-9 22.5t-22.5 9Q43 66 34 57t-9-22zm163 156q-16 1-27 11.5T150 229v62q0 6 3.5 9.5t9 3.5q5.5 0 9-3.5t3.5-9.5v-12h25v12q0 6 3.5 9.5t9 3.5q5.5 0 9-3.5t3.5-9.5v-62q0-16-11-27t-26-11zm75-62q12 0 21.5-9t9.5-22q0-13-9.5-22.5t-22-9.5q-12.5 0-22 9.5T231 98q0 13 9.5 22t22.5 9zm0 12q-10 0-19 6 0 11-3.5 20T230 184q10 9 15 20.5t5 24.5h25v12q0 6 3.5 9.5t9 3.5q5.5 0 9-3.5t3.5-9.5v-62q0-16-11-27t-27-11h1zm-75 38q12 0 21.5-9t9.5-22q0-13-9.5-22.5t-22-9q-12.5.5-22 9.5t-9.5 22q0 13 9.5 22t22.5 9zM184 9q-10-5-22-5-5 0-8.5 3.5T150 16v63H50q-21 0-35.5 14.5T0 129v50q0 14 7 25t18 18v69q0 6 3.5 9.5t9 3.5q5.5 0 9-3.5T50 291v-62h25v62q0 6 3.5 9.5t9 3.5q5.5 0 9-3.5t3.5-9.5V104h63q5 0 8.5-3.5T175 92V70l45-24q5-4 5-11t-5-11L184 9z"/></svg>