<svg viewBox="0 0 300 316" xmlns="http://www.w3.org/2000/svg"><path d="M288 291q0 6-4 9.5t-9 3.5H25q-5 0-8.5-3.5t-4-9q-.5-5.5 3.5-9t9-3.5h46q-27-19-42.5-48.5T13 166q0-30 12.5-57.5T61 62q23-19 52-28V16q0-5 3.5-8.5T125 4q5 0 9 3.5t4 8.5v14l12-1 13 1V16q0-5 3.5-8.5T175 4q5 0 9 3.5t4 8.5v18q28 9 51 28t36 46.5q13 27.5 13 57.5 0 6-4 9.5t-9 3.5q-5 0-8.5-3.5T263 166q0-36-21-65t-54-40v80q0 6-4 9.5t-9 3.5q-5 0-8.5-3.5T163 141V55q-7-1-13-1t-12 1v86q0 6-4 9.5t-9 3.5q-5 0-8.5-3.5T113 141V61q-34 11-54.5 40T38 166q0 31 15 57t41 41q26 15 56 15h125q5 0 9 3.5t4 8.5z"/></svg>