<svg viewBox="0 0 300 316" xmlns="http://www.w3.org/2000/svg"><path d="M300 223v6H150v-6q0-17 11-29t27-14q-1-11 6.5-18.5T212 154h26q10 0 17.5 7.5T263 180q15 2 26 14t11 29zm-175 0q0-22 14-41-14-3-26-3-31 0-57 15t-41 41Q0 261 0 291q0 6 3.5 9.5T12 304h129q-16-19-16-44v-37zm-12-69q20 0 37-10t27.5-27.5Q188 99 188 79t-10.5-37.5Q167 24 150 14T112.5 4Q92 4 75 14T47.5 41.5Q37 59 37.5 79T48 116.5Q58 134 75 144t38 10zm112 112q-5 0-8.5-3.5T213 254h-63v6q0 18 13 31t31 13h62q18 0 31-13t13-31v-6h-62q0 5-4 9t-9 4v-1z"/></svg>