<svg viewBox="0 0 300 316" xmlns="http://www.w3.org/2000/svg"><path d="M225 216q-5 1-9-3t-4-9V104q0-5 4-9t9-3.5q5 .5 9 4t4 8.5v100q0 5-4 9t-9 4v-1zm-37 75V16q0-5-4-8.5T175 4q-5 0-9 3.5t-4 8.5v275q1 6 4.5 9.5t8.5 3.5q5 0 9-3.5t4-9.5zm100-50V66q0-5-4-8.5t-9-3.5q-5 0-8.5 3.5T263 66v175q0 6 3.5 9.5t8.5 3.5q5 0 9-3.5t4-9.5zm-150 0V66q0-5-4-8.5t-9-3.5q-5 0-9 3.5t-4 8.5v175q1 6 4.5 9.5t8.5 3.5q5 0 9-3.5t4-9.5zm-50-37V104q-1-5-4.5-9T75 91.5q-5 .5-8.5 4T63 104v100q-1 5 3 9t9 4q5 0 9-4t4-9zm-50-25v-50q0-5-4-9t-9-4q-5 0-8.5 4t-3.5 9v50q0 5 3.5 9t8.5 3.5q5-.5 8.5-4T37 179h1z"/></svg>