<svg viewBox="0 0 300 316" xmlns="http://www.w3.org/2000/svg"><path d="M288 4h-13q-17 0-31.5 8.5t-22.5 23Q213 50 213 67v115q-20-16-44-16-19 0-34.5 9.5t-25 25.5q-9.5 16-9.5 34.5t9.5 34q9.5 15.5 25 25t34 9.5q18.5 0 34.5-9.5t25-25q9-15.5 9-34.5V66q0-15 11-26t27-11h13q5 0 8.5-3.5t3.5-9q0-5.5-3.5-9T288 4zM0 16q0-5 3.5-8.5T13 4h137q5 0 9 3.5t4 9q0 5.5-4 9t-9 3.5H13q-6 0-9.5-3.5T0 16zm0 75q0-5 3.5-8.5T13 79h137q5 0 9 3.5t4 9q0 5.5-4 9t-9 3.5H13q-6 0-9.5-3.5T0 91zm100 75q0 6-3.5 9.5T87 179H13q-6 0-9.5-3.5t-3.5-9q0-5.5 3.5-9T13 154h75q5 0 8.5 3.5t3.5 9.5v-1z"/></svg>