<svg viewBox="0 0 300 316" xmlns="http://www.w3.org/2000/svg"><path d="M300 91v13H0V91q0-16 8.5-30.5t23-23Q46 29 63 29h12V16q0-5 3.5-8.5t9-3.5q5.5 0 9 3.5T100 17v12h100V16q0-5 3.5-8.5t9-3.5q5.5 0 9 3.5T225 17v12h13q16 0 30.5 8.5t23 23Q300 75 300 92v-1zM0 241V129h295l-95 95q-5 5-12.5 5t-12.5-5l-8-8q-12-12-29.5-12T108 216l-79 78q-13-8-21-22t-8-31zm38-68q0 8 5 13.5t13 5.5q8 0 13.5-5.5T75 173q0-8-5.5-13.5T56 154q-8 0-13 5.5T38 173zm179 69q-12 12-29.5 12T158 242l-8-8q-5-5-12.5-5t-12.5 5l-69 70h182q16 0 30.5-8.5t23-23Q300 258 300 241v-82l-83 83z"/></svg>