<svg viewBox="0 0 300 316" xmlns="http://www.w3.org/2000/svg"><path d="M225 148q0 8-5.5 13t-13.5 5q-8 0-13-5t-5-13q0-8 5-13.5t13-5.5q8 0 13.5 5.5T225 148zM94 129q-8 0-13.5 5.5T75 148q0 8 5.5 13t13.5 5q8 0 13.5-5t5.5-13q0-8-5.5-13.5T94 129zm206 25q0 41-20 75.5T225.5 284Q191 304 150 304t-75.5-20Q40 264 20 229.5T0 154q0-41 20-75.5T74.5 24Q109 4 150 4t75.5 20Q260 44 280 78.5t20 75.5zM94 191q18 0 31-12.5t13-30.5q0-18-13-31t-31-13q-9 0-18 4 6-6 13-10.5t13-6q6-1.5 8.5-6T112 76q-1-5-5.5-7.5T97 67q-12 3-24 11T53 96q-3 4-2.5 9.5t4 8.5q3.5 3 7.5 3l1-1q-13 13-13 31.5T63 179q13 13 31 13v-1zm93 41q-4-11-14-19.5t-23-8.5q-13 0-23 8.5T113 232q-1 3 1 6t6 3h60q4 0 6-3t1-6zm63-84q0-19-13-32h1q4 0 7.5-2.5t4.5-8q1-5.5-3-9.5-8-10-20-18t-24-11q-5-1-9.5 1.5T188 76q-1 5 1.5 9.5t8.5 6q6 1.5 13 6t13 10.5q-9-4-18-4-18 0-30.5 13T163 148q0 18 12.5 30.5T206 191q18 0 31-12.5t13-30.5z"/></svg>