<svg viewBox="0 0 300 316" xmlns="http://www.w3.org/2000/svg"><path d="M300 260q0 18-13 31t-31 13H44q-18 0-29.5-10.5T1 267q-2-16 5.5-29.5T30 219q21 29 53 44t67 15q35 0 67-15t53-44q13 4 21.5 15.5T300 260zm-25-131q0 34-17 62.5T212.5 237Q184 254 150 254q-47-2-79-28-30-23-40-60t0-74q10-37 40-60 32-26 79-28 34 0 62.5 17T258 66.5Q275 95 275 129zm-75 25q0-13-8-22.5T171 120l-38-6q-6-2-7.5-7.5T128 96q4-5 9-5h29q7 0 10 5.5t8 7q5 1.5 9.5-1t6-7.5q1.5-5-1.5-10-5-8-13.5-13.5T166 66h-3V54q-1-8-7-11t-12 0q-6 3-7 11v12q-15 0-24.5 10T101 99.5q-2 13.5 5 24.5t23 14l38 6q6 2 7.5 7.5T172 162q-4 5-9 4h-29q-7 0-10-5t-8-6.5q-5-1.5-9.5 1t-6 7.5q-1.5 5 1.5 10 5 8 13.5 13t18.5 5h4v13q0 8 6 11t12 0q6-3 7-11v-13q15 0 26-10.5t11-26.5z"/></svg>