<svg viewBox="0 0 300 316" xmlns="http://www.w3.org/2000/svg"><path d="M150 216q-17 0-31.5-8T96 185.5Q88 171 88 154t8-31.5q8-14.5 22.5-23T150 91q17 0 31.5 8.5t23 23Q213 137 213 154t-8.5 31.5q-8.5 14.5-23 22.5t-31.5 8zm13-162V16q0-5-4-8.5T150 4q-5 0-8.5 3.5T138 16v38q0 5 3.5 8.5T150 66q5 0 9-3.5t4-8.5zm0 237v-37q0-5-4-9t-9-4q-5 0-8.5 4t-3.5 9v37q0 6 3.5 9.5t8.5 3.5q5 0 9-3.5t4-9.5zM63 154q0-5-4-9t-9-4H13q-6 0-9.5 4T0 154q0 5 3.5 8.5T13 166h37q5 0 9-3.5t4-8.5zm237 0q0-5-3.5-9t-8.5-4h-38q-5 0-8.5 4t-3.5 9q0 5 3.5 8.5t8.5 3.5h38q5 0 8.5-3.5t3.5-8.5zM84 88q4-4 4-9t-4-9L59 45q-4-3-9-3t-8.5 3.5Q38 49 38 54t3 9l25 25q4 3 9 3t9-3zm175 175q4-4 4-9t-4-9l-25-25q-4-3-9-3t-8.5 3.5Q213 224 213 229t3 9l25 25q4 3 9 3t9-3zm-200 0l25-25q4-4 4-9t-4-8.5q-4-3.5-9-3.5t-9 3l-25 25q-3 4-3 9t3.5 8.5Q45 266 50 266t9-3zM234 88l25-25q4-4 4-9t-4-8.5q-4-3.5-9-3.5t-9 3l-25 25q-3 4-3 9t3.5 8.5Q220 91 225 91t9-3z"/></svg>