<svg viewBox="0 0 300 316" xmlns="http://www.w3.org/2000/svg"><path d="M63 229h212v12q0 17-8.5 31.5t-23 23Q229 304 213 304H63q-16 0-27-11t-11-26.5Q25 251 36 240t27-11zm0-25h12V5q-22 5-36 22T25 66v151q13-10 30-12 4-1 8-1zm137-88q5 0 9-3.5t4-8.5q0-5-4-9t-9-4h-25q-5 0-8.5 4t-3.5 9q0 5 3.5 8.5t8.5 3.5h25zm75-50v138H100V4h113q16 0 30.5 8.5t23 23Q275 50 275 66zm-37 38q0-15-11.5-26.5T200 66h-19q-2 0-4-1.5t-2-4q0-2.5 2-4.5t4-2h19q5 0 9-3.5t4-9q0-5.5-4-9t-9-3.5h-19q-13 0-22 9t-9 22q0 7 3 14-7 5-11 13t-4 17q0 15 11 26t26 11h19q2 0 4 2t2 4.5q0 2.5-2 4.5t-4 2h-19q-5 0-8.5 3.5t-3.5 9q0 5.5 3.5 9t8.5 3.5h19q13 0 22-9t9-22q0-7-3-14 7-5 11.5-13t4.5-17z"/></svg>