<svg viewBox="0 0 300 316" xmlns="http://www.w3.org/2000/svg"><path d="M150 79q-31 0-56.5 15T53 135q-15 26-15.5 56.5t15 56.5q15.5 26 41 41t56.5 15q31 0 56.5-15t41-41q15.5-26 15-56.5T247 135q-15-26-40.5-41T150 79zm25 175h-41q-7 0-12.5-4t-7.5-10q-2-6-.5-12.5T120 216l10-9q16-12 22-20 12-13 10-23 0-4-3.5-7t-8.5-3q-5 0-8.5 3.5t-3.5 9q0 5.5-4 9t-9 3.5q-5 0-9-3.5t-4-9.5q1-15 11.5-26t25.5-11q15 0 26 9t12 23q2 19-13 39-8 11-28 27l-3 2h32q5 0 9 3.5t4 9q0 5.5-4 9t-9 3.5zM50 97L21 40q-2-6-2-12.5t3.5-12Q26 10 31.5 7T44 4h28q14 0 26.5 7.5T117 32l12 24q-23 3-43.5 14T50 97zm229-57l-29 58q-15-17-35.5-28T171 56l12-24q6-13 18.5-20.5T228 4h29q6 0 11.5 3t9 8.5q3.5 5.5 4 12T279 40z"/></svg>