<svg viewBox="0 0 300 316" xmlns="http://www.w3.org/2000/svg"><path d="M150 4q-41 0-75.5 20T20 78.5Q0 113 0 154t20 75.5Q40 264 74.5 284t75.5 20q41 0 75.5-20t54.5-54.5q20-34.5 20-75.5t-20-75.5Q260 44 225.5 24T150 4zM75 141q-5 0-8.5-3.5T63 129q0-5 3.5-8.5T75 117h31q8 0 13.5 5t5.5 13q0 8-5.5 13.5T107 154q-7 0-11.5-3.5T89 141H75zm123 95q-4 6-9.5 6t-8.5-3q-4-3-9-5-11-5-21-5t-21 5q-6 3-9.5 5.5t-8.5 2q-5-.5-8.5-5T100 227q1-5 5.5-8.5T119 211q16-7 31-7t31 7q9 4 13.5 7.5t5.5 8.5q1 5-2 9zm8-82q-6 0-10.5-3.5T189 141h-14q-5 0-8.5-3.5T163 129q0-5 3.5-8.5t8.5-3.5h31q8 0 13.5 5t5.5 13q0 8-5.5 13.5T206 154z"/></svg>