<svg viewBox="0 0 300 316" xmlns="http://www.w3.org/2000/svg"><path d="M113 29H63q-17 0-31.5 8.5t-23 23Q0 75 0 92v124q0 17 8.5 31.5t23 23Q46 279 63 279h50V29zM50 79h13q5 0 8.5 3.5t3.5 9q0 5.5-3.5 9T62 104H50q-5 0-8.5-3.5t-3.5-9q0-5.5 3.5-9T50 79zm13 125H50q-5 0-8.5-3.5t-3.5-9q0-5.5 3.5-9T50 179h13q5 0 8.5 3.5t3.5 9q0 5.5-3.5 9T62 204h1zm0-50H50q-5 0-8.5-3.5t-3.5-9q0-5.5 3.5-9T50 129h13q5 0 8.5 3.5t3.5 9q0 5.5-3.5 9T62 154h1zm237-63v125q0 17-8.5 31.5t-23 23Q254 279 238 279H138V29h100q16 0 30.5 8.5t23 23Q300 75 300 92v-1z"/></svg>