<svg viewBox="0 0 300 316" xmlns="http://www.w3.org/2000/svg"><path d="M203 139q-14-15-33.5-20t-39 0Q111 124 97 138.5t-19.5 34Q72 192 77.5 211T97 245l44 42q4 4 9 4t9-4l44-42q14-15 19.5-34t0-38.5Q217 153 203 139zm-53 77q-10 0-17.5-7t-7.5-17.5q0-10.5 7.5-18T150 166q10 0 17.5 7.5t7.5 18q0 10.5-7.5 17.5t-17.5 7zM273 74l-88-59Q169 4 150 4t-35 11L28 74Q15 82 7.5 96T0 126v115q0 17 8.5 31.5t23 23Q46 304 62 304h60l-43-42q-19-18-26-44t0-52q7-26 26-45t45-26q26-7 52 0t45 26q19 19 25.5 45t0 51.5Q240 243 221 262l-43 42h60q16 0 30.5-8.5t23-23Q300 258 300 242V126q0-16-7.5-30T273 74z"/></svg>