<svg viewBox="0 0 300 316" xmlns="http://www.w3.org/2000/svg"><path d="M250 4H50Q29 4 14.5 18.5T0 54v25q0 21 14.5 35.5T50 129h88v50h-19q-6 0-8.5 6t2.5 10l30 31q3 3 7 3t7-3l31-31q4-4 1.5-10t-8.5-6h-19v-50h88q21 0 35.5-14.5T300 79V54q0-21-14.5-35.5T250 4zm21 36l-64 64h-39l75-75h7q7 0 12.5 3t8.5 8zM93 104l75-75h39l-75 75H93zM50 29h7L25 61v-7q0-10 7.5-17.5T50 29zM29 93l64-64h39l-75 75h-7q-7 0-12.5-3T29 93zm221 11h-7l32-32v7q0 10-7.5 17.5T250 104zm50 125v25q0 21-14.5 35.5T250 304H50q-21 0-35.5-14.5T0 254v-25q0-21 14.5-35.5T50 179h36q-3 9-.5 18t9.5 16l31 31q10 10 24 10t25-10l30-31q7-7 9.5-16t-.5-18h36q21 0 35.5 14.5T300 229z"/></svg>