<svg viewBox="0 0 300 316" xmlns="http://www.w3.org/2000/svg"><path d="M300 204v63q0 15-11 26t-26 11q-16 0-27-11t-11-26v-13h-87v13q0 15-11 26t-27 11q-15 0-26-11t-11-26v-63q9-2 16-8l17-15q1-2 3.5-2t3.5 2l17 15q9 8 20.5 8t20.5-8l16-15q2-2 4-2t4 2l16 15q10 8 21.5 8t20.5-8l16-15q2-2 4-2t4 2l16 15q8 6 17 8zM27 129q7 3 26 7 4 1 7 4.5t3 7.5v29l16-15q9-8 20.5-8t20.5 8l17 15q1 2 3.5 2t3.5-2l17-15q8-8 20-8t21 8l16 15q2 2 4 2t4-2l16-15q9-8 21-8t20 8l17 15v-23q0-17-8.5-31.5t-22.5-23Q255 91 238 92h-82q-4-1-5-4l-1-3q0-19-12-35V40q0-12-7.5-22T111 4q-4-1-7.5 1.5T100 12v18l-8-1q-12 1-18 3L30 48Q16 53 9 63T.5 83Q-1 93 3 103q6 17 23 26h1z"/></svg>