<svg viewBox="0 0 300 316" xmlns="http://www.w3.org/2000/svg"><path d="M163 304H75q-5 0-8.5-3.5t-3.5-9q0-5.5 3.5-9T75 279h88q5 0 8.5 3.5t3.5 9q0 5.5-3.5 9T163 304zm75-13q0-5-4-8.5t-9-3.5h-12q-6 0-9.5 3.5t-3.5 9q0 5.5 3.5 9t8.5 3.5h13q5 0 9-3.5t4-9.5zm0-50q-1-5-4.5-8.5T225 229h-87q-6 0-9.5 3.5t-3.5 9q0 5.5 3.5 9t8.5 3.5h88q5 0 9-3.5t4-9.5zm-138 0q0-5-3.5-8.5T87 229H75q-5 0-8.5 3.5t-3.5 9q0 5.5 3.5 9T75 254h13q5 0 8.5-3.5t3.5-8.5v-1zm75-50q0-5-3.5-8.5T163 179H75q-5 0-8.5 3.5t-3.5 9q0 5.5 3.5 9T75 204h88q5 0 8.5-3.5t3.5-9.5zm63 0q-1-5-4.5-8.5T225 179h-12q-6 0-9.5 3.5t-3.5 9q0 5.5 3.5 9t8.5 3.5h13q5 0 9-3.5t4-9.5zM224 68q-6-1-9-7-14-31-44.5-46.5T106 6q-31 5-52.5 27.5T26 87q-3 18 1 36 1 7-4 11-13 11-18.5 27T1 194q2 17 12 31t25 22q-1-5-.5-9t3-10q2.5-6 3.5-10t-2-8q-4-9-4-19t5.5-19q5.5-9 14-13.5T76 154h87q9 0 17 5 4 2 8 1.5t10-3.5q9-4 15-3 17-2 31 5.5t17.5 22.5q3.5 15-3.5 28-3 3-2.5 7t3.5 9.5q3 5.5 3 8.5 22-15 31.5-41t4.5-53q-5-27-24-46-20-21-50-27z"/></svg>