<svg viewBox="0 0 300 316" xmlns="http://www.w3.org/2000/svg"><path d="M38 248q0 8-5.5 13T19 266q-8 0-13.5-5T0 248q0-8 5.5-13.5T19 229q8 0 13.5 5.5T37 248h1zm243 18q-8 0-13 5.5t-5 13.5q0 8 5 13.5t13 5.5q8 0 13.5-5.5T300 285q0-8-5.5-13t-13.5-5v-1zm-56 13h-12q-11 0-18.5-7.5T187 254v-51q-20-12-37-12t-37 12v51q0 10-7.5 17.5T87 279H75q-5 0-8.5 3.5t-3.5 9q0 5.5 3.5 9T75 304h150q5 0 8.5-3.5t4-9q.5-5.5-3.5-9t-9-3.5zm75-125q0 32-13 61t-36 50q-11-11-26-11h-12v-38q6 0 9.5-4t2.5-9.5q-1-5.5-5-8.5-13-10-27-17-22-11-43-11t-43 11q-14 7-27 17-4 3-5 8.5t2.5 9.5q3.5 4 10.5 4v38H75q-7 0-13 3 1-5 1-9 0-18-13-31t-31-13q-5 0-10 1-9-25-9-51 0-41 20-75.5T74.5 24Q109 4 150 4t75.5 20Q260 44 280 78.5t20 75.5zm-162-38q0-6-6-10L94 81q-4-3-9-2t-8 5.5Q74 89 75 94t6 8l21 14-21 15q-5 3-6 8t2.5 10q3.5 5 10.5 5 3 0 6-2l38-25q5-4 6-10v-1zm60 0l21-14q5-3 6-8t-2-9.5q-3-4.5-8-5.5t-9 2l-38 25q-5 4-5 10.5t5 10.5l38 25q3 2 6 2 7 0 10.5-5t2.5-10q-1-5-6-8l-21-15z"/></svg>