<svg viewBox="0 0 300 316" xmlns="http://www.w3.org/2000/svg"><path d="M299 52q-4 6-10.5 10.5T275 69v56q0 19-13.5 30T225 166q-23 0-36.5-11T175 125V69q-16-5-24-17-2-4-.5-8t6.5-5q13-3 31-6 7-8 16.5-12.5T225 16q11 0 20.5 4.5T262 33q18 3 31 6 5 1 6.5 5t-.5 8zm-74 139q-34 0-54.5-18T150 125V91l-5-4q-12-8-26-8-20 0-34 14-6-2-13-1-19 0-33 13.5T25 138q-11 6-18 17t-7 24q0 13 7 24t18 17q0 17 11 29.5T62 266v13q1 10 8 17.5t17.5 7.5q10.5 0 18-7.5T113 279v-1l6 1q14 0 26-8 12 8 27 8 7 0 15-3v3q1 10 8 17.5t17.5 7.5q10.5 0 18-7.5T238 279v-16q12-6 19.5-17.5T266 220q11-6 18-17t7-24q0-7-3-15-10 13-26 20.5t-37 7.5v-1z"/></svg>