<svg viewBox="0 0 300 316" xmlns="http://www.w3.org/2000/svg"><path d="M150 4q-43 0-77 9.5t-53.5 27Q0 58 0 79v169q0 15 9.5 28.5T37 301q6 3 13 3t12.5-3.5q5.5-3.5 9-9T75 279V146q0-11-5.5-20T55 112q-15-7-22.5-15.5T25 79q0-12 16-23.5T84 37q30-8 66-8t66 8q27 7 43 18.5T275 79q0 9-7.5 17.5T246 112q-10 5-15.5 14t-5.5 20v133q0 7 3.5 12.5t9 9Q243 304 250 304t13-3q18-11 27.5-24.5T300 248V79q0-21-19.5-38.5t-53.5-27Q193 4 150 4zm0 125q-13 0-22-9t-9-22q0-13 9-22.5t22-9.5q13 0 22 9.5t9 22.5q0 13-9 22t-22 9zm0 12q-21 0-35.5 15T100 192v24q0 17 12 28v47q0 6 4 9.5t9 3.5q5 0 8.5-3.5t3.5-9.5v-37h26v37q0 6 3.5 9.5t8.5 3.5q5 0 8.5-3.5t3.5-9.5v-47q13-11 13-28v-25q0-20-14.5-35T150 141z"/></svg>