<svg viewBox="0 0 300 316" xmlns="http://www.w3.org/2000/svg"><path d="M269 142q3-7 4-15l24-11q3-2 3-5.5t-3-5.5l-24-11q-2-12-8-22l34-60q2-4-.5-6.5T292 5l-60 34q-10-6-22-8L199 7q-2-3-5.5-3T188 7l-11 24q-8 1-15 4L108 5q-3-2-6 .5t-1 6.5l28 49q-11 15-15 33l-23 11q-3 2-3 5.5t3 5.5l23 11q4 17 14 31L4 283q-4 3-4 8.5t3.5 9q3.5 3.5 9 3.5t8.5-4l125-124q14 10 31 14l11 23q2 4 5.5 4t5.5-4l11-23q18-4 33-15l49 28q4 2 6.5-1t.5-6l-30-54zm-75-13q-8 0-13.5-5.5T175 110q0-8 5.5-13.5t13.5-5q8 .5 13.5 5.5t5 13q-.5 8-5.5 13.5t-13 5.5z"/></svg>