<svg viewBox="0 0 300 316" xmlns="http://www.w3.org/2000/svg"><path d="M44 35q0-13 9-22t22-9q13 0 22.5 9t9.5 22q0 13-9.5 22T75 66q-13 0-22-9t-9-22zm83 89q-3-19-17.5-32t-34-13Q56 79 41 92t-17 32l-11 88q-2 17 9 29 6 8 16 11v39q0 6 3.5 9.5T50 304q5 0 9-3.5t4-9.5v-37h25v37q0 6 3.5 9.5t8.5 3.5q5 0 9-3.5t4-9.5v-39q9-3 15-11 11-12 10-29l-11-88zm98-58q13 0 22-9t9-22q0-13-9-22t-22-9q-13 0-22 9t-9 22q0 13 9 22t22 9zm62 146l-11-88q-2-19-17-32t-34-13q-19 0-34 13t-17 32l-11 88q-2 17 9 29 6 8 16 11v39q0 6 3.5 9.5t8.5 3.5q5 0 9-3.5t4-9.5v-37h25v37q0 6 3.5 9.5t8.5 3.5q5 0 9-3.5t4-9.5v-39q9-3 15-11 11-12 9-29z"/></svg>