<svg viewBox="0 0 300 316" xmlns="http://www.w3.org/2000/svg"><path d="M200 295q-24 9-50 9t-50-9v-29q0-20 14.5-35t35.5-15q21 0 35.5 15t14.5 35v29zM150 91q-10 1-17.5 8t-7.5 17.5q0 10.5 7.5 17.5t17.5 7q10 0 17.5-7t7.5-17.5q0-10.5-7.5-17.5T150 91zm150 63q0 41-20.5 75.5T225 284v-18q0-20-10-37t-27.5-27.5Q170 191 150 191t-37.5 10.5Q95 212 85 229t-10 37v18q-34-20-54.5-54.5T0 154q0-41 20-75.5T74.5 24Q109 4 150 4t75.5 20Q260 44 280 78.5t20 75.5zm-100-38q0-20-14.5-35T150 66q-21 0-35.5 15T100 116.5q0 20.5 14.5 35T150 166q21 0 35.5-14.5T200 116z"/></svg>