<svg viewBox="0 0 300 316" xmlns="http://www.w3.org/2000/svg"><path d="M238 223q-1 8-6 13.5t-13 5.5q-8 0-13.5-5.5T200 223q0-8 5.5-13.5T219 204q8 0 13.5 5.5T237 223h1zm-113 56q0-16-11-27t-26-11h-6q18-44 18-56.5t-9-21q-9-8.5-22-8.5t-22 8.5q-9 8.5-9 21T56 241h-6q-16 1-26.5 11.5T13 279q-6 0-9.5 3.5t-3.5 9q0 5.5 3.5 9T13 304h112q5 0 9-3.5t4-9q0-5.5-4-9t-9-3.5zM300 66v175q0 17-8.5 31.5t-23 23Q254 304 238 304h-78q3-6 3-13 0-9-4.5-16.5T148 262q-4-13-12.5-23T116 223q9-26 9-38 0-21-14.5-36.5T75 130V67q0-17 8.5-31.5t23-23Q121 4 137 4h101q16 0 30.5 8.5t23 23Q300 50 300 67v-1zM125 79q0 5 3.5 9t9.5 4h100q5 0 8.5-4t3.5-9q0-5-3.5-9t-8.5-4H138q-6 0-9.5 4t-3.5 9zm88 62q5 0 8.5-3.5t3.5-8.5q0-5-3.5-9t-8.5-4h-75q-6 0-9.5 4t-3.5 9q0 5 3.5 9t9.5 4h75v-1zm50 82q0-18-13-31t-31-13q-18 0-31 13t-13 31q0 18 13 30.5t31 12.5q18 0 31-12.5t13-30.5z"/></svg>