<svg viewBox="0 0 300 316" xmlns="http://www.w3.org/2000/svg"><path d="M13 279q-6 0-9.5-3.5T0 266V41q0-5 3.5-8.5t9-3.5q5.5 0 9 3.5T25 42v224q0 6-3.5 9.5T13 279zm62-13V41q0-5-3.5-8.5t-9-3.5q-5.5 0-9 3.5T50 42v224q0 6 3.5 9.5t9 3.5q5.5 0 9-3.5T75 266zm188 0V41q-1-5-4.5-8.5T250 29q-5 0-8.5 3.5T238 42v224q0 6 3.5 9.5t8.5 3.5q5 0 9-3.5t4-9.5zm-100 0V41q0-5-4-8.5t-9-3.5q-5 0-9 3.5t-4 9.5v224q1 6 4.5 9.5t8.5 3.5q5 0 9-3.5t4-9.5zm-38-6V48q0-8-5.5-13.5T106 29q-8 0-13.5 5.5T87 48v212q1 8 6 13.5t13 5.5q8 0 13.5-5.5T125 260zm100 0V48q0-8-5.5-13.5T206 29q-8 0-13.5 5.5T187 48v212q0 8 5.5 13.5T206 279q8 0 13.5-5.5T225 260zm75 6V41q0-5-3.5-8.5t-9-3.5q-5.5 0-9 3.5T275 42v224q0 6 3.5 9.5t9 3.5q5.5 0 9-3.5t3.5-9.5z"/></svg>