<svg viewBox="0 0 300 316" xmlns="http://www.w3.org/2000/svg"><path d="M238 42V16q0-5-4-8.5T225 4q-5 0-8.5 3.5T212 16v14q-6-1-12-1h-12V16q0-5-4-8.5T175 4q-5 0-9 3.5t-4 8.5v13h-24V16q-1-5-4.5-8.5T125 4q-5 0-8.5 3.5T113 16v13h-13q-6 0-12 1V16q0-5-4-8.5T75 4q-5 0-8.5 3.5T63 16v26q-12 9-18.5 22T38 91v150q0 17 8 31.5t22.5 23Q83 304 100 304h100q17 0 31.5-8.5t22.5-23q8-14.5 9-30.5V91q-1-14-7.5-27T237 42h1zm-88 174h-50q-5 0-8.5-3.5T88 204q0-5 3.5-8.5t8.5-3.5h50q5-1 9 3t4 9q0 5-4 8.5t-9 3.5zm50-50H100q-5 0-8.5-3.5T88 154q0-5 3.5-9t8.5-4h100q5 0 9 4t4 9q0 5-4 9t-9 4v-1zm0-50H100q-5 1-8.5-3t-3.5-9q0-5 3.5-9t8.5-4h100q5 0 9 4t4 9q0 5-4 9t-9 4v-1z"/></svg>