<svg viewBox="0 0 301.0012 316" xmlns="http://www.w3.org/2000/svg"><path d="M300 154q0-11-5-29-5-21-14-34-6-10-6-20 0-5 12-16 6-5 8-7 5-6 6-14t-2.5-15q-3.5-7-10-11T274 4h-99q-22 0-33 1-37 1-68.5 20.5T22 77Q2 109 .5 145T6 211.5Q13 242 31 272q1 2 0 4.5t-4 2.5H13q-6 0-9.5 3.5T0 291q0 5 3.5 9t9.5 4h134q-13-1-23-11-24-26-39-52-22-37-22-69 0-25 11.5-46.5t31.5-34Q126 79 150 79t44 12.5q20 12.5 31.5 34T237 172q0 32-22 69-15 26-39 52-10 10-23 11h135q5 0 8.5-4t3.5-9q0-5-3.5-8.5T288 279h-15q-2 0-3.5-2.5t-.5-4.5q18-33 24.5-58.5T300 154zm-150-50q-17 0-31.5 9T96 138q-8 16-8 34 0 26 19 59 14 22 35 45 4 3 8 3t8-3q21-23 35-45 19-33 19-59 0-18-8-34t-22.5-25q-14.5-9-31.5-9z"/></svg>