<svg viewBox="0 0 300 316" xmlns="http://www.w3.org/2000/svg"><path d="M300 98q0 8-5.5 13.5T281 117h-22q4 11 3.5 18.5t-5.5 13q-5 5.5-13 5.5t-13.5-5.5q-5.5-5.5-5.5-13t4-19.5h-23q-8 1-13-4.5T187 98V75q12 4 19.5 4t13-5.5Q225 68 225 60t-5.5-13.5q-5.5-5.5-13-5.5T187 45V23q1-8 6-13.5T206 4h44q21 0 35.5 14.5T300 54v44zM41 166q-3-11-3-18.5t5-13q5-5.5 13-5.5t13.5 5.5q5.5 5.5 5.5 13T71 167h42V73q-1-8-6-13.5T94 54H50q-21 0-35.5 14.5T0 104v62h41zm190 25q8 1 13.5 6t5.5 13v44q0 21-14.5 35.5T200 304h-62V191h41q-4 12-4 19.5t5.5 13Q186 229 194 229t13-5.5q5-5.5 5.5-13T209 191h22zM113 304H50q-21 0-35.5-14.5T0 254v-63h113v42q-12-4-19.5-4t-13 5.5Q75 240 75 248t5.5 13q5.5 5 13 5t19.5-3v41z"/></svg>