<svg viewBox="0 0 300 316" xmlns="http://www.w3.org/2000/svg"><path d="M200 304q-15 0-29-7-17 7-35 6.5t-34-8.5q-4-2-8 0-16 10-34.5 9T26 291.5q-15-11.5-21.5-29t-2.5-35q4-17.5 16.5-30T48 181q14-4 29 0 2 0 4-1 10-12 24-18.5t30-7q16-.5 30.5 5T191 176q3 3 9 3 14 0 27 6t22 17q1 2 2 2 9-1 19 2t18 11q8 8 11 19.5t-.5 23Q295 271 287 279t-19.5 11q-11.5 3-23.5 0-3-1-4 0-17 14-40 14zM42 156q14-3 29-2 19-16 42.5-22t47.5 0q24 6 43 22 16 1 31 7.5t26 17.5q8 1 15 3 10 3 19 9 2-4 3-9 3-14 .5-27t-10-24q-7.5-11-18.5-18t-24-8.5q-13-1.5-26 1.5-12-14-29-21t-35.5-5.5Q137 81 121.5 91T97 118q-11-3-22.5.5T54 130q-9 8-14 20-1 3-1 7l3-1zm-24-18q7-16 20-27.5T68 94q8-2 17-2 13-16 31-26t38.5-11.5q20.5-1.5 39.5 5T229 79q32-3 58 16 1-12-4-22-9-15-25-18-4-1-7-4-11-14-29-19.5t-35 .5q-11-14-27-21.5t-34-6Q108 6 93 16T70 42l-1 1q-15-4-30.5 1.5T13 62Q3 74 1 90.5T5 122q5 10 13 16z"/></svg>