<svg viewBox="0 0 300 316" xmlns="http://www.w3.org/2000/svg"><path d="M238 4H63q-17 0-31.5 8.5t-23 23Q0 50 0 67v174q0 17 8.5 31.5t23 23Q46 304 63 304h175q16 0 30.5-8.5t23-23Q300 258 300 241V66q0-16-8.5-30.5t-23-23Q254 4 237 4h1zm-17 234q-3 4-8.5 4t-8.5-4l-11-11q-19 14-43 14-20 1-37.5-9.5t-27.5-28Q75 186 75 166v-24q0-20 10-37.5t27.5-28Q130 66 150 66t37.5 10.5Q205 87 215 104.5t10 37.5v24q0 24-14 44l10 10q4 4 4 9t-4 9zm-21-96v24q0 14-7 26l-22-22q-3-3-8.5-3t-9 3.5Q150 174 150 179t4 9l21 22q-11 7-25 7-21 0-35.5-15T100 166v-24q0-21 14.5-36T150 91q21 0 35.5 15t14.5 36z"/></svg>