<svg viewBox="0 0 300 316" xmlns="http://www.w3.org/2000/svg"><path d="M288 4q-6 0-9.5 3.5T275 16v13h-25V16q0-5-3.5-8.5t-9-3.5q-5.5 0-9 3.5T225 16v13h-25V16q0-5-3.5-8.5t-9-3.5q-5.5 0-9 3.5T175 16v13h-25V16q0-5-3.5-8.5t-9-3.5q-5.5 0-9 3.5T125 16v38q0 16 11 26.5T163 91h100q15 0 26-10.5T300 54V16q0-5-3.5-8.5T288 4zM176 147l-37-30q-17-13-39-13t-39 13l-37 30q-11 9-17.5 21.5T0 196v52q0 23 16.5 39.5T56 304h88q23 0 39.5-16.5T200 248v-52q0-15-6.5-27.5T176 147zm-51 82q0 5-3.5 8.5T113 241H88q-6 0-9.5-3.5T75 229v-25q0-5 3.5-9t8.5-3h26q5-1 8.5 3t3.5 9v25zm150-113v138q0 14-7.5 26T248 298.5q-12 6.5-27 5.5h-19q11-11 17-25.5t6-30.5v-52q0-20-9-38.5T191 127l-13-11h97z"/></svg>