<svg viewBox="0 0 300 316" xmlns="http://www.w3.org/2000/svg"><path d="M275 216v-12q0-17-8.5-31.5t-23-23Q229 141 213 141h-50V91q10 0 17.5-7t7.5-18V41q0-10-7.5-17.5T163 16h-25q-11 0-18 7.5T113 41v25q0 11 7 18t18 7v50H88q-17 0-31.5 8.5t-23 23Q25 187 25 204v12q-10 0-17.5 7.5T0 241v25q0 11 7.5 18.5T25 292h25q10 0 17.5-7.5T75 266v-25q0-10-7.5-17.5T50 216v-12q0-15 11-26.5T88 166h50v50q-11 0-18 7.5t-7 17.5v25q0 11 7 18.5t18 7.5h25q10 0 17.5-7.5T188 266v-25q0-10-7.5-17.5T163 216v-50h50q15 0 26 11.5t11 26.5v12q-10 0-17.5 7.5T225 241v25q0 11 7.5 18.5T250 292h25q10 0 17.5-7.5T300 266v-25q0-10-7.5-17.5T275 216z"/></svg>