<svg viewBox="0 0 300 316" xmlns="http://www.w3.org/2000/svg"><path d="M223 116q19 0 34.5 10.5T281 155l4 10q5 13 8 26H107q3-13 8-26l4-10q8-18 23.5-28.5T177 116h46zm75 100h-35v13q0 5-4 8.5t-9 3.5q-5 0-9-3.5t-4-8.5v-13h-74v13q0 5-4 8.5t-9 3.5q-5 0-9-3.5t-4-8.5v-13h-35q-4 21 0 36 6 19 23 25v2q0 10 7.5 17.5T150 304q10 0 17.5-7.5T175 279h50q0 10 7.5 17.5T250 304q10 0 17.5-7.5T275 279v-2q17-6 23-25 4-15 0-35v-1zM171 10q-46-12-92 0-20 6-34 21T27 66h196q-4-20-18-35t-34-21zM25 204q0 12 7 21.5T50 239v15q0 5 3.5 8.5t9 3.5q5.5 0 9-3.5T75 254v-13q0-12 2-25l5-31 2-6H25v25zM177 91H25v13q-10 0-17.5 7.5T0 129q0 10 7.5 17.5T25 154h68l3-9q10-24 32.5-39T177 91z"/></svg>