<svg viewBox="0 0 300 316" xmlns="http://www.w3.org/2000/svg"><path d="M174 304h-56q-6 0-11-2-13-4-22-14.5T75 263q-1-14 6.5-26t19.5-17q-3-17 1-34 6-24 24.5-39.5t43-17.5q24.5-2 45 11t29.5 35q2 4 10 6 16 4 27.5 15.5t16 27.5q4.5 16 .5 32.5t-16.5 29Q269 298 252 302q-7 2-13 2h-65zm-62-178q19-15 43-20t47 1q10 3 19-2l30-18q6-4 5.5-11T250 65.5q-6-3.5-12 .5l-34 22q-3 2-5 .5t-5.5-5L189 79l23-39q2-5 1-10t-5.5-7.5q-4.5-2.5-9.5-1t-8 5.5l-23 39q-8-3-17-5V16q0-5-3.5-8.5t-9-3.5q-5.5 0-9 3.5T125 16v45q-9 2-17 5L85 27q-2-5-7-6t-9.5 1.5Q64 25 62.5 30T64 40l23 38q-7 6-12 12L36 67q-6-4-12.5 0T17 78q0 7 7 11l38 22q-3 9-5 18H13q-6 0-9.5 3.5t-3.5 9q0 5.5 3.5 9T12 154h45q1 6 3 11 0 2-1 4t-3 3l-34 20q-4 3-5.5 8t1 9.5Q20 214 25 215t10-2l32-19q8-4 11-13 8-34 34-55z"/></svg>