<svg viewBox="0 0 300 316" xmlns="http://www.w3.org/2000/svg"><path d="M150 6q9 3 15 9l49 49q6 6 9 15h-60q-6 0-9.5-3.5T150 66V6zm101 156q8-8 20-8t20.5 8.5Q300 171 300 183t-8 20l-85 85q-8 8-18 12t-21 4h-18v-18q0-23 16-38l85-86zM75 129q-5 0-8.5 3.5T63 142q0 6 3.5 14T77 171q11-16 11-30 0-5-4-8.5t-9-3.5zm150-25v49l-77 77q-20 20-23 49H63q-17 0-31.5-8.5t-23-23Q0 233 0 216V66q0-16 8.5-30.5t23-23Q46 4 63 4h62v62q0 16 11 27t27 11h62zm-62 69q0-8-5.5-13.5T144 154q-8 0-13.5 5.5T125 172q0 7 4 13-8 6-16 6t-17-4q8-11 12.5-23t4.5-23q0-15-11.5-26T75 104q-15 0-26 11t-11 26q0 12 5.5 24.5T59 189q-5 2-9.5 2t-8 4q-3.5 4-3.5 9t3.5 8.5Q45 216 50 216q15 0 29-10 17 10 32.5 10t28.5-8q10-7 16.5-17.5T163 173z"/></svg>