<svg viewBox="0 0 300 316" xmlns="http://www.w3.org/2000/svg"><path d="M300 135q-1 28-17 44-14 13-34 11.5T215 174q-15-18-15-45 0-5-3.5-9t-10-3.5q-6.5.5-9.5 6t-2 12.5q0 18 8 34t21 27q-17 9-37 7.5T131 190q-20 13-43.5 14t-44-8q-20.5-9-33-26.5T0 129q0-16 7.5-30.5T28 75q13-9 28-9t28 9q13 9 20.5 23.5T112 129q1 5 4.5 9t8.5 3.5q5-.5 9-4t4-8.5q-1-30-19.5-53.5T71 44q12-25 38.5-34.5t53-1Q189 17 202 42q20-2 36.5 9.5T260 82q18 5 29 20t11 33zm-125 94q-6 0-12-1v26q-1 5-4.5 8.5T150 266q-5 0-9-3.5t-4-8.5v-32l-7-3q-19 9-40 10 3 7 5.5 23.5T100 276q4 13 12 20.5t24 7.5h28q15 0 25.5-10t12.5-24q2-25 10-49-17 8-37 8z"/></svg>