<svg viewBox="0 0 301.0029 316" xmlns="http://www.w3.org/2000/svg"><path d="M263.5 291q-22 0-38-15-16 15-37.5 15t-37.5-15q-16 15-37.5 15t-37.5-15q-15 15-35 15.5T4.5 279q-5-5-3.5-12t8-9.5q6.5-2.5 12.5 2.5 10 9 23.5 5.5T63.5 250q2-4 5-6.5t7-2.5q4 0 7 2.5t5 6.5q3 7 10 11.5T113 266q8.5 0 15.5-4.5t10-11.5q2-4 5-6.5t7-2.5q4 0 7 2.5t5 6.5q3 7 10 11.5T188 266q8.5 0 15.5-4.5t10-11.5q2-4 5-6.5t7-2.5q4 0 7 2.5t5 6.5q5 12 18.5 15.5t23.5-5.5q4-3 9-2.5t8.5 4q3.5 3.5 3.5 8.5t-4 9q-14 13-34 13l1-1zm0-75q-22 0-38-15-16 15-37.5 15t-37.5-15q-16 15-37.5 15t-37.5-15q-15 15-35 15.5T4.5 204q-5-5-3.5-12t8-9.5q6.5-2.5 12.5 2.5 10 9 23.5 5.5T63.5 175q2-4 5-6.5t7-2.5q4 0 7 2.5t5 6.5q3 7 10 11.5T113 191q8.5 0 15.5-4.5t10-11.5q2-4 5-6.5t7-1.5q4-1 7 1.5t5 6.5q3 7 10 11.5T188 191q8.5 0 15.5-4.5t10-11.5q2-4 5-6.5t7-1.5q4-1 7 1.5t5 6.5q5 12 18.5 15.5t23.5-5.5q4-3 9-2.5t8.5 4q3.5 3.5 3.5 8.5t-4 9q-14 13-34 13l1-1zm0-75q-22 0-38-15-16 15-37.5 15t-37.5-15q-16 15-37.5 15t-37.5-15q-15 15-35 15.5T4.5 129q-6-5-4.5-12.5t9-9.5q7.5-2 12.5 3 10 9 23.5 5.5T63.5 100q2-4 5-6.5t7-1.5q4-1 7 1.5t5 6.5q3 7 10 11.5T113 116q8.5 0 15.5-4.5t10-11.5q2-4 5-6.5t7-1.5q4-1 7 1.5t5 6.5q3 7 10 11.5T188 116q8.5 0 15.5-4.5t10-11.5q2-4 5-6.5t7-1.5q4-1 7 1.5t5 6.5q5 12 18.5 15.5t23.5-5.5q4-3 9-2.5t8.5 4q3.5 3.5 3.5 8.5t-4 9q-14 13-34 13l1-1zm0-75q-22 0-38-15-16 15-37.5 15t-37.5-15q-16 15-37.5 15T75.5 51q-15 15-35 15.5T4.5 54q-6-5-4.5-12.5T9 32q7.5-2 12.5 3 10 9 23.5 5.5T63.5 25q2-4 5-6.5t7-2.5q4 0 7 2.5t5 6.5q3 7 10 11.5T113 41q8.5 0 15.5-4.5t10-11.5q2-4 5-6.5t7-1.5q4-1 7 1.5t5 6.5q3 7 10 11.5T188 41q8.5 0 15.5-4.5t10-11.5q2-4 5-6.5t7-1.5q4-1 7 1.5t5 6.5q5 12 18.5 15.5t23.5-5.5q5-5 12.5-3t9 9.5q1.5 7.5-4.5 12.5-14 13-34 12h1z"/></svg>