<svg viewBox="0 0 300 316" xmlns="http://www.w3.org/2000/svg"><path d="M288 96q-6 0-10-4-11-13-28-13H50q-17 0-28 13-4 3-9 3.5t-9-3Q0 89 0 84t3-9q9-10 21.5-15.5T50 54h200q13 0 25.5 5.5T297 75q3 4 3 9t-4 8.5q-4 3.5-8 3.5zm8-53q4-4 4-9t-3-9q-9-10-21.5-15.5T250 4H50Q37 4 24.5 9.5T3 25q-3 4-3 9t4 8.5Q8 46 13.5 46t8.5-4q11-13 28-13h200q17 0 28 13 4 4 9 4t9-3zm-58 161q0 9-12 17.5t-32 14q-20 5.5-44 5.5t-44-5.5q-20-5.5-31.5-14T63 204q0-9 11.5-17.5T106 172q20-6 44-6t44 6q20 6 32 14.5t12 17.5zm-57 0q0-5-9-9t-22-4q-13 0-22 4t-9 9q0 5 9 8.5t22 3.5q13 0 22-3.5t9-8.5zm119-38v75q0 17-8.5 31.5t-23 23Q254 304 238 304H63q-17 0-31.5-8.5t-23-23Q0 258 0 241v-75q0-16 8.5-30.5t23-23Q46 104 63 104h175q16 0 30.5 8.5t23 23Q300 150 300 166zm-37 38q0-18-15-32t-40.5-22.5Q182 141 150 141t-57.5 8.5Q67 158 52.5 172T38 204q0 18 14.5 32t40 22q25.5 8 57.5 8t57.5-8q25.5-8 40.5-22t15-32z"/></svg>