<svg viewBox="0 0 300 316" xmlns="http://www.w3.org/2000/svg"><path d="M263 104h-25V66q0-16-8.5-30.5t-23-23Q192 4 175 4h-50q-17 0-31.5 8.5T71 35.5Q63 50 63 67v37H38q-6 0-9.5 3.5t-3.5 9q0 5.5 3.5 9T38 129h225q5 0 8.5-3.5t3.5-9q0-5.5-3.5-9T262 104h1zm-4 59q-1-4-4.5-6.5T247 154H53q-4 0-7.5 2.5T41 163q-3 14-3 29 0 30 15 56t40.5 41q25.5 15 56.5 15t56.5-15q25.5-15 41-41t14.5-57q1-14-3-28zm-153 53q-8 0-13.5-5t-5-13q.5-8 5.5-13.5t13-5.5q8 0 13.5 5.5T125 198q0 8-5.5 13.5T106 217v-1zm54 56q-2 4-6 6t-8 0q-4-2-6-6-9-31-9-38t5.5-12q5.5-5 13.5-5t13.5 5q5.5 5 5.5 12t-9 38zm34-56q-8 0-13.5-5t-5.5-13q0-8 5.5-13.5T194 179q8 0 13 5.5t5 13.5q0 8-5 13.5t-13 5.5v-1z"/></svg>