<svg viewBox="0 0 300 316" xmlns="http://www.w3.org/2000/svg"><path d="M160 4q-32-2-62.5 9.5T44 48Q21 71 9.5 101.5T0 165q3 39 25.5 71T84 286q36 18 80 18h74q16 0 30.5-8.5t23-23Q300 258 300 241v-83q0-40-18.5-74T231 28.5Q199 7 160 4zM88 173q-8 0-13.5-5.5T69 154q0-8 5.5-13.5t13-5.5q7.5 0 13 5.5T106 154q0 8-5.5 13.5T87 173h1zm62 0q-8 0-13.5-5.5T131 154q0-8 5.5-13.5T150 135q8 0 13.5 5.5T169 154q0 8-5.5 13.5T150 173zm63 0q-8 0-13.5-5.5T194 154q0-8 5.5-13.5t13-5.5q7.5 0 13 5.5T231 154q0 8-5.5 13.5T213 173z"/></svg>