<svg viewBox="0 0 300 316" xmlns="http://www.w3.org/2000/svg"><path d="M113 141q0 19 12.5 31.5T156 185q18 0 31-12.5t13-31q0-18.5-13-31T156 98q-18 0-30.5 12.5T113 141zm146 42q-3-4-8.5-4t-9 3.5q-3.5 3.5-4 8.5t3.5 9l27 29H87q-2-14-12.5-24.5T50 192V91q14-2 24.5-12.5T87 54h126q2 16 14.5 26.5T257 91q17 0 30-12.5T300 48q0-18-13-31T256 4q-13 0-23.5 7T217 29H83q-5-11-15.5-18T44 4Q26 4 13 17T0 48q0 13 7 23.5T25 87v109q-11 5-18 15.5T0 235q0 18 13 31t31 13q13 0 23.5-7T83 254h185l-27 29q-4 4-3.5 9t4 8.5q3.5 3.5 8.5 3.5t9-4l30-32q11-11 11-26.5T289 215l-30-32z"/></svg>