<svg viewBox="0 0 300 316" xmlns="http://www.w3.org/2000/svg"><path d="M266 254q-2 21-18 35.5T210 304H90q-22 0-38-14.5T34 254q18 12 39 12.5t39-10.5q18 10 38 10t38-9q18 10 39 9.5t39-12.5zM163 41V16q0-5-4-8.5T150 4q-5 0-9 3.5t-4 8.5v25q1 6 4.5 9.5T150 54q5 0 9-3.5t4-8.5v-1zm50 0V16q0-5-4-8.5T200 4q-5 0-9 3.5t-4 8.5v25q1 6 4.5 9.5T200 54q5 0 9-3.5t4-8.5v-1zm-100 0V16q0-5-4-8.5T100 4q-5 0-8.5 3.5T88 16v25q0 6 3.5 9.5T100 54q5 0 8.5-3.5T112 42l1-1zm187 138q0 14-9 24.5T269 216q-6 10-16.5 17t-22.5 8q-12 1-23-3t-20-13q-7 8-16.5 12t-20.5 4q-11 0-20.5-4T112 225q-8 9-19 13t-23 3q-12-1-22.5-8T31 216q-13-2-22-12.5T0 179q0-23 20.5-46.5T74 95q36-16 76-16t76 16q33 14 53.5 37.5T300 179zm-163-54q1-4-1.5-6.5T129 117q-13 2-24 9-5 5-5 11.5t5 11.5q5 5 11.5 5t11.5-5q7-11 9-24zm58 1q-11-7-24-9-4-1-6.5 1.5T163 125q2 13 9 24 5 5 11.5 5t11.5-5q5-5 5-11.5t-5-11.5z"/></svg>