<svg viewBox="0 0 300 316" xmlns="http://www.w3.org/2000/svg"><path d="M0 16q0-5 3.5-8.5T13 4h100q5 0 8.5 3.5t3.5 9q0 5.5-3.5 9T113 29H13q-6 0-9.5-3.5T0 17v-1zm50 113q0 5 3.5 9t9 3.5q5.5-.5 9-4T75 129V79h38q5 0 8.5-3.5t3.5-9q0-5.5-3.5-9T113 54H13q-6 0-9.5 3.5t-3.5 9q0 5.5 3.5 9T13 79h37v50zM288 13q-12-11-28-9l-40 6q-14 2-23.5 12.5T187 47v45q-10 0-17 7t-7 17.5q0 10.5 7 18t17.5 7.5q10.5 0 17.5-7.5t7-17.5V47q1-4 4-7.5t7-4.5l41-6q4-1 7.5 2t3.5 8v40q-10 0-17.5 7.5T250 104q0 10 7.5 17.5T275 129q10 0 17.5-7t7.5-17V39q0-16-12-26zm-13 241q-10 0-17.5 7.5T250 279q0 10 7.5 17.5T275 304q10 0 17.5-7.5T300 279q0-10-7.5-17.5T275 254zm-75-38q10 0 17.5-7t7.5-17.5q0-10.5-7.5-18T200 166q-10 0-17.5 7.5t-7.5 18q0 10.5 7.5 17.5t17.5 7zm96-46q-4-4-9-3.5t-9 4.5L178 283q-3 4-3 9t4 8.5q4 3.5 9 3.5t9-4l100-113q3-4 3-9t-4-8zm-148 65q-8 14-20 28l19 20q3 4 3 9t-4 8.5q-4 3.5-9 3.5t-9-4l-17-19q-25 23-48 23t-36.5-12Q13 280 13 260q0-12 11-27 8-12 21-24-7-10-7-17 0-11 7-18t17.5-7q10.5 0 18 7t7.5 16.5q0 9.5-8 18.5l31 35q10-11 16-21 2-5 7.5-6t9.5 1.5q4 2.5 5.5 7.5t-1.5 9zm-54 27l-32-35q-10 10-17 19.5T38 260q0 11 9 16 7 3 15 3 14 0 32-17z"/></svg>