<svg viewBox="0 0 300.0031 316" xmlns="http://www.w3.org/2000/svg"><path d="M213.003 16q0-5 3.5-8.5t8.5-3.5h63q5 0 8.5 3.5t3.5 9q0 5.5-3.5 9t-8.5 3.5h-63q-5 0-9-3.5t-4-9.5h1zm75 38h-63q-5 0-9 3.5t-3.5 9q.5 5.5 4 9t8.5 3.5h63q5 0 8.5-3.5t3.5-9q0-5.5-3.5-9t-8.5-3.5zm0 187h-63q-5 1-9 4.5t-3.5 8.5q.5 5 4 9t8.5 4h63q5-1 8.5-4.5t3.5-8.5q0-5-3.5-9t-8.5-4zm0-100h-63q-5 0-9 4t-3.5 9q.5 5 4 8.5t8.5 3.5h63q5 0 8.5-3.5t3.5-8.5q0-5-3.5-9t-8.5-3v-1zm-7-50h-50q-8 0-13.5 5.5t-5 13.5q.5 8 5.5 13.5t13 5.5h50q8 0 13.5-5.5t5.5-13.5q0-8-5.5-13t-13.5-5v-1zm0 100h-50q-8 0-13.5 5.5t-5 13.5q.5 8 5.5 13.5t13 5.5h50q8 0 13.5-5.5t5.5-13.5q0-8-5.5-13.5t-13.5-5.5zm7 88h-63q-5 0-9 3.5t-3.5 9q.5 5.5 4 9t8.5 3.5h63q5 0 8.5-3.5t3.5-9q0-5.5-3.5-9t-8.5-3.5zm-132-238h-91q-24 0-43 16.5T.003 98q-1 18 7 34t23 25q15 9 32 9h94q13 0 22.5-9t9.5-22V73q-1-13-10-22.5t-22-9.5zm-56 150h-37q-19 0-35-7l-27 79q-3 13 3 24.5t18 15q12 3.5 23.5-2.5t15.5-18l22-65h17q5 0 8.5-4t3.5-9q0-5-3.5-8.5t-8.5-3.5v-1z"/></svg>