<svg viewBox="0 0 300 316" xmlns="http://www.w3.org/2000/svg"><path d="M225 154q-20 0-37.5 10T160 191.5Q150 209 150 229t10 37.5q10 17.5 27.5 27.5t37.5 10q20 0 37.5-10t27.5-27.5q10-17.5 10-37.5t-10-37.5Q280 174 262.5 164T225 154zm-12 37q-1-5 3-8.5t9-3.5q5 0 8.5 3.5t3.5 9.5v24q0 6-3.5 9.5T225 229q-5 0-8.5-3.5T213 216v-25zm12 88q-8 0-13.5-5.5T206 260q0-8 5.5-13t13.5-5q8 0 13.5 5t5.5 13q0 8-5.5 13.5T225 279zM56 35q0-13 9.5-22t22-9q12.5 0 22 9t9.5 22q0 13-9.5 22.5t-22 9Q75 66 65.5 57T56 35zm94 94q0-21-14.5-35.5T100 79H75q-21 0-35.5 14.5T25 129v37q0 14 7 25.5T50 210v81q0 6 3.5 9.5t9 3.5q5.5 0 9-3.5T75 291v-75h25v75q0 6 3.5 9.5t9 3.5q5.5 0 9-3.5t3.5-9.5v-62q0-19 6.5-36t18.5-30v-34z"/></svg>