<svg viewBox="0 0 300 316" xmlns="http://www.w3.org/2000/svg"><path d="M30 85q-4-3-5-8t2-9q15-22 37-37 4-3 9-2t8 5.5q3 4.5 2 9.5t-5 8Q60 65 48 82q-4 5-11 5-3 0-7-2zm18 141q-3-4-8-5t-9.5 2q-4.5 3-5.5 8t2 9q15 22 37 37 3 2 7 2 6 0 9.5-5t2.5-10q-1-5-5-8-18-12-30-30zm-23-72q0-12 2-23 1-5-2-9t-8-5q-5-1-9.5 2T3 127q-3 14-3 27t3 27q0 5 3.5 7.5T15 191h2q5-1 8-5t2-9q-2-11-2-23zm227 72q-12 18-30 30-4 3-5 8t2 10q3 5 10 5 4 0 7-2 22-15 37-37 3-4 2-9t-5-8q-4-3-9.5-2t-8.5 5zm-79 51q-11 2-23 2t-23-2q-5-1-9 2t-5 8q-1 5 2 9.5t8 4.5q14 3 27 3t27-3q5 0 8-4.5t2-9.5q-1-5-5-8t-9-2zm4-271q-14-2-27-2t-27 2q-5 1-8 5.5t-2 9q1 4.5 4.5 7.5t7.5 3h3q16-2 22-2t22 2h3q4 0 7.5-3t4.5-7.5q1-4.5-2-9T177 6zm75 76q4 5 11 5 3 0 7-2.5t5-7.5q1-5-2-9-15-22-37-37-4-3-9-2t-8 5.5q-3 4.5-2 9.5t5 8q18 12 30 30zm46 45q-1-5-5.5-8t-9.5-2q-5 1-8 5t-2 9q2 11 2 23t-2 23q-1 5 2 9t8 5h2q5 0 8.5-2.5t4.5-7.5q2-14 2-27t-2-27z"/></svg>