<svg viewBox="0 0 300 316" xmlns="http://www.w3.org/2000/svg"><path d="M200 29q0 5-3.5 8.5T188 41h-75v175q0 6-4 9.5t-9 3.5q-5 0-8.5-3.5T88 216V41H13q-6 0-9.5-3.5T0 29q0-5 3.5-9t9.5-4h175q5 0 8.5 4t3.5 9zm-44 37q-8 0-13 5.5T138 85q0 8 5 13.5t13 5.5q8 0 13.5-5.5T175 85q0-8-5.5-13.5T156 66zm0 63q-8 0-13 5.5t-5 13.5q0 8 5 13t13 5q8 0 13.5-5t5.5-13q0-8-5.5-13.5T156 129zm0 62q-8 0-13 5.5t-5 13.5q0 8 5 13.5t13 5.5q8 0 13.5-5.5T175 210q0-8-5.5-13.5T156 191zm0 63q-8 0-13 5.5t-5 13.5q0 8 5 13t13 5q8 0 13.5-5t5.5-13q0-8-5.5-13.5T156 254zm63-188q-8 0-13.5 5.5T200 85q0 8 5.5 13.5T219 104q8 0 13.5-5.5T238 85q0-8-5.5-13.5T219 66zm62 0q-8 0-13 5.5T263 85q0 8 5 13.5t13 5.5q8 0 13.5-5.5T300 85q0-8-5.5-13.5T281 66z"/></svg>