<svg viewBox="0 0 300 316" xmlns="http://www.w3.org/2000/svg"><path d="M292 167q-10-13-26-13h-16q-5 0-9 3.5t-3.5 9q.5 5.5 4 9t8.5 3.5h16q4 0 7 3t2 7q-6 26-23 46-17 19-40.5 30T163 278v-99h25q5 0 8.5-3.5t3.5-9q0-5.5-3.5-9T188 154h-25v-52q16-4 26.5-17.5T200 54q0-21-14.5-35.5T150 4q-21 0-35.5 14.5T100 54q0 17 10.5 30.5T138 102v52h-25q-6 0-9.5 3.5t-3.5 9q0 5.5 3.5 9t9.5 3.5h25v99q-26-2-49.5-13T48 235q-17-20-23-46-1-4 2-7t7-3h16q5 0 9-3.5t4-9q0-5.5-4-9t-9-3.5H34q-16 0-26 12.5T1 194q7 35 31 61 22 23 53.5 36t64.5 13q33 0 64.5-13t53.5-36q24-26 31-61 3-15-7-27zM125 54q0-10 7.5-17.5T150 29q10 0 17.5 7.5T175 54q0 10-7.5 17.5T150 79q-10 0-17.5-7.5T125 54z"/></svg>