<svg viewBox="0 0 300 316" xmlns="http://www.w3.org/2000/svg"><path d="M297 274q3 3 3 8.5t-4 8.5q-14 13-33 13-11 0-21-4t-17-11q-7 7-17 11t-20.5 4q-10.5 0-20.5-4t-17-11q-7 7-17 11t-20.5 4q-10.5 0-20.5-4t-17-11q-7 7-17 11t-20 4q-20 0-34-13-4-3-4-8.5t3.5-9q3.5-3.5 8.5-4t9 3.5q7 6 16 6t16.5-5q7.5-5 9.5-12 2-3 5-5.5t7-2.5q4 0 7 2.5t5 5.5q2 7 9.5 12t16 5q8.5 0 16-5t9.5-12q2-3 5-5.5t7-2.5q4 0 7 2.5t5 5.5q2 7 9.5 12t16 5q8.5 0 16-5t9.5-12q2-3 5-5.5t7-2.5q4 0 7 2.5t5 5.5q2 7 9.5 12t16.5 5q9 0 16-6 4-4 9-3.5t9 4.5zm0-75q-4-4-9-4.5t-9 3.5q-7 6-16 6t-16.5-5q-7.5-5-9.5-12-2-3-5-5.5t-7-2.5q-6 0-12 9t-16.5 13q-10.5 4-21.5 3-26 0-45.5-11t-31-31q-11.5-20-11-46t14-51Q115 40 137 27q3-2 4.5-6t.5-8q-1-4-4.5-6.5T130 4h-11Q85 4 58 18.5T15.5 59Q0 85 0 116v50q0 6 3.5 9.5T13 179q17 0 32 11 21 17 48 26 37 13 82 13 14 0 27-4.5t22-11.5q18 16 38 16t34-13q4-3 4-8.5t-3-8.5zm3-108v63q-11 0-21 6.5T265 178q-1 1-2.5 1t-2.5-1q-4-11-13.5-17.5T226 154q-11 0-20 5.5T192 174q-3 3-10 4-3 1-7 1-22 1-37-10V91q-1-11 4.5-22T157 51l30-23q14-11 32-11t32 11l29 23q10 7 15 18t5 22zm-62 0q-1-5-4.5-8.5T225 79h-12q-6 0-9.5 3.5T200 92v12q0 5 3.5 8.5t9.5 3.5h12q5 0 8.5-3.5t3.5-8.5V91h1z"/></svg>