<svg viewBox="0 0 300 316" xmlns="http://www.w3.org/2000/svg"><path d="M100 205q0 5-3.5 8t-7.5 3H78v-21h11q4 0 7.5 3t3.5 7zm88-101h81q-7-18-20-31l-43-43q-13-13-31-20v81q0 6 3.5 9.5t9.5 3.5zm-37 91h-10v43h10q5 0 8-3t3-7v-23q0-4-3-7t-8-3zm124-60v106q0 17-8.5 31.5t-23 23Q229 304 213 304H88q-17 0-31.5-8.5t-23-23Q25 258 25 241V66q0-16 8.5-30.5t23-23Q71 4 88 4h62v87q0 16 11 27t27 11h87v6zm-160 70q0-11-7.5-18.5T89 179H75q-5 0-8.5 3.5T63 191v56q0 3 2 5.5t5 2.5q3 0 5.5-2.5T78 247v-15h11q11 0 18.5-8t7.5-19zm63 0q0-11-8-18.5t-19-7.5h-13q-6 0-9.5 3.5T125 191v56q0 3 2 5t6 2h18q11 0 19-7.5t8-18.5v-23zm60-18q0-3-2.5-5.5T230 179h-29q-3 0-5.5 2.5T193 187v60q0 3 2.5 5.5t5.5 2.5q3 0 5.5-2.5t2.5-5.5v-23h15q4 0 6-2t2-5q0-3-2-5.5t-6-2.5h-15v-14h21q3 0 5.5-2.5t2.5-5.5z"/></svg>