<svg viewBox="0 0 300 316" xmlns="http://www.w3.org/2000/svg"><path d="M263 166q-6 0-9.5-3.5T250 154q0-5 3.5-9t8.5-4h37q-3-35-21.5-65.5t-49-49Q198 8 163 5v37q0 5-4 8.5t-9 3.5q-5 0-9-3.5t-4-8.5V5q-35 3-65.5 21.5t-49 49Q4 106 1 142h37q5-1 8.5 3t3.5 9q0 5-3.5 9t-9.5 4H1q3 35 21.5 65.5t49 49Q102 300 137 303v-37q0-5 4-8.5t9-3.5q5 0 9 3.5t4 8.5v37q35-3 65.5-21.5t49-49Q296 202 299 166h-36zm-75 0h-25v25q0 6-4 9.5t-9 3.5q-5 0-9-3.5t-4-9.5v-25h-24q-6 0-9.5-3.5T100 154q0-5 3.5-9t9.5-4h25v-25q0-5 3.5-8.5t8.5-3.5q5 0 9 3.5t4 8.5v25h25q5 0 8.5 4t3.5 9q0 5-3.5 9t-8.5 4v-1z"/></svg>