<svg viewBox="0 0 300.0013 316" xmlns="http://www.w3.org/2000/svg"><path d="M261 43q-4-19-20-30-13-9-28-9-12 0-19 6.5T187 28v58l-16-16q-3-4-8.5-4t-9 4q-3.5 4-3.5 9t4 9l22 22-17 18-32-32q-4-4-9.5-3.5t-9 4Q105 100 105 105t4 9l32 31-16 16-41-41q-4-3-9-3t-9 3.5q-4 3.5-4 8.5t4 9l41 41-14 14q-18-15-40-24-13-6-26 .5T10 190q-8 27-10 66-1 9 2.5 18.5t10.5 16q7 6.5 15 10t20 3.5q31 0 66-10 14-4 20.5-17t.5-26q-9-22-24-40l14-14 41 41q4 4 9 4t8.5-4q3.5-4 3.5-9t-3-9l-41-41 16-16 32 31q4 4 9 4t9-4q4-4 3.5-9t-3.5-9l-32-31 17-17 22 22q4 4 9 4t8.5-3.5q3.5-3.5 3.5-9t-3-8.5l-16-16h58q11 0 17.5-7t6.5-18q0-16-9-29-11-16-30-20zM56 266q-8 0-13-5t-5-13q0-8 5-13.5t13-5.5q8 0 13.5 5.5T75 248q0 8-5.5 13T56 266z"/></svg>