<svg viewBox="0 0 300.0015 316" xmlns="http://www.w3.org/2000/svg"><path d="M175 91q0-23-12-43t-32-32Q111 4 87.5 4T44 16Q24 28 12 48T0 92q0 24 9 49.5T33 186q15 19 34 27-4 6-5 14 1 13 11 23 7 5 22 12 17 8 17 12-1 6-4.5 10.5t-2 9.5q1.5 5 5.5 8t9 2q5-1 8-6 8-10 9-23.5T126 252q-6-6-21-13-18-8-18-10 3-7 7-13 23-3 41.5-22t29-47Q175 119 175 91zm-60 44q8-14 10-31 0-5 3.5-9t9-4q5.5 0 9 4t3.5 9q-2 24-14 44-3 5-8 6t-9.5-2q-4.5-3-5.5-8t2-9zm129 101q-9-4-12-7-6-4-7-7-1-6 7-19 19-2 34.5-19t24.5-42q9-25 9-50 1-16-5-30t-16.5-24.5Q268 27 254 21.5T225 16q-24 0-44 13 19 29 19 62-1 46-22 86 11 15 27 23-7 13-4 28 2 10 12 19 6 5 19 11 8 5 11 7 6 4 7 7 0 7-4 13.5t-.5 12.5q3.5 6 11 6t10.5-6q11-15 7-33-4-10-12-17.5T244 236zm-4-101q8-14 10-31 0-5 3.5-8.5t9-4q5.5-.5 9 3.5t3.5 9q-2 24-14 44-4 6-11 6t-10.5-6.5q-3.5-6.5.5-12.5z"/></svg>