<svg viewBox="0 0 300 316" xmlns="http://www.w3.org/2000/svg"><path d="M125 304H31q-10 0-18-6T1.5 282.5q-3.5-9.5-.5-19T13 248l97-71q4-3 2.5-7t-5.5-4H13q-6 0-9.5-3.5T0 154q0-5 3.5-8.5T13 142h94q10-1 18 5t11 15.5q3 9.5 0 19T125 197l-98 72q-3 2-1.5 6t5.5 4h94q5 0 9 3.5t4 9q0 5.5-4 9t-9 3.5zm175-38q0-5-3.5-8.5T288 254h-48l50-44q7-5 9-12t-.5-14.5q-2.5-7.5-8.5-12t-14-4.5h-51q-5-1-9 3t-4 9q0 5 4 9t9 4h48l-50 43q-6 5-8.5 12.5t0 15q2.5 7.5 9 12T238 279h50q5 0 8.5-3.5t3.5-8.5v-1zm-62-150q0-5-4-8.5t-9-3.5l-62-1 64-52q7-6 9.5-13.5t0-15.5Q234 14 227 9t-15-5h-62q-5 0-8.5 3.5t-3.5 9q0 5.5 3.5 9T150 29l62 1-64 52q-7 5-9.5 13t0 16q2.5 8 9.5 13t15 5h62q5 0 8.5-3.5t3.5-9.5h1z"/></svg>