<svg viewBox="0 0 300 316" xmlns="http://www.w3.org/2000/svg"><path d="M95 4Q76 6 63 21T50 56v23q0 5 3.5 8.5T62 91h13v13q0 5 3.5 8.5T87 116h26q5 0 8.5-3.5t3.5-8.5V91h13q5 0 8.5-3.5T150 79V54q0-14-7.5-26t-20-18.5Q110 3 95 4zM75 66q-5 1-9-3t-3-9q-1-5 3-9t9-4q5 0 9 4t4 9q0 5-4 8.5T75 66zm38-12q-1-5 3-9t9-4q5 0 9 4t3 9h1q0 5-4 9t-9 3q-5 1-8.5-3t-3.5-9zm176 59q-10-10-23.5-9T243 114l-44 47 1 8q0 20-13 35t-32 17l-53 8q-5 0-9.5-3t-5-8q-.5-5 2.5-9t8-5l52-7q9-2 16-7.5t8-14.5q3-13-5.5-23.5T147 141H50q-21 0-35.5 15T0 192v62q0 21 14.5 35.5T50 304h53q27 0 51-10.5t41-30.5l97-105q9-10 8-23.5T289 113z"/></svg>