<svg viewBox="0 0 300 316" xmlns="http://www.w3.org/2000/svg"><path d="M289 130l-67 70q-4 4-9.5 4t-9-3.5Q200 197 200 192t4-9l64-66H163q-16 0-27 11t-11 26v63q0 5-3.5 8.5t-9 3.5q-5.5 0-9-3.5T100 217v-63q0-17 8.5-31.5t23-22.5q14.5-8 31.5-8h105l-64-67q-4-4-4-9t4-8.5q4-3.5 9-3.5t8 4l68 70q11 11 11 26.5T289 131v-1zm-103 88q-5-5-36-47v44q0 14-8.5 25t-21 13.5q-12.5 2.5-22.5-2t-16.5-14Q75 228 75 216v-62q0-18 7-34t19-29H63q-17 0-31.5 8.5t-23 23Q0 137 0 154v87q0 17 8.5 31.5t23 23Q46 304 63 304h87q17 0 31.5-8.5t23-23Q213 258 213 241v-12q-16 0-27-11z"/></svg>