<svg viewBox="0 0 300 316" xmlns="http://www.w3.org/2000/svg"><path d="M200 35q0-8 5.5-13.5T219 16q8 0 13.5 5.5T238 35q0 8-5.5 13.5T219 54q-8 0-13.5-5.5T200 35zm-90 20q14 2 26 10 2-6 2-11l-1-4q6 4 13 4 10 0 17.5-7.5T175 29q0-10-7.5-17.5T150 4q-10 0-17 6.5T125 26q-11-10-26-10T73 27Q62 38 62 54q1 5 2 11 21-14 46-10zm158 154l-18 18q-2 1-4.5 1t-5-2q-2.5-2-2.5-5t2-6l55-54q5-6 5-13.5t-5.5-13Q289 129 281 129t-13 5l-54 55q-3 2-6 1.5t-5-2.5q-2-2-2.5-4.5t1.5-4.5l68-68q5-6 5-13.5t-5.5-13Q264 79 256 79t-13 5l-67 67q-2 2-5 2t-5-2q-2-2-2.5-5t.5-5l43-43q6-5 6-13t-5.5-13.5Q202 66 194 66t-13 6l-56 55v-23q0-10-7.5-17.5T100 79q-10 0-17.5 7.5T75 104v97q0 20 7.5 38.5T105 273q15 15 35 23t41.5 8q21.5 0 41-8t35.5-24l37-36q5-6 5-13.5t-5.5-13Q289 204 281 204t-13 5zM82 281q-1-1-3-2-14-13-21.5-31.5T50 210V104q0-10-7.5-17.5T25 79q-10 0-17.5 7.5T0 104v97q2 28 21 51l31 37q8 8 17 13 3 2 6 2 7 0 10.5-5t2-10q-1.5-5-5.5-8z"/></svg>