<svg viewBox="0 0 300 316" xmlns="http://www.w3.org/2000/svg"><path d="M150 4q-41 0-75.5 20T20 78.5Q0 113 0 154t20 75.5Q40 264 74.5 284t75.5 20q41 0 75.5-20t54.5-54.5q20-34.5 20-75.5t-20-75.5Q260 44 225.5 24T150 4zm-54 98l-7 16q-1 4-5 5.5t-8-.5l-2-1q-5-2-6.5-6.5T69 107l9-14q2-4 5.5-5t7.5.5q4 1.5 5.5 5.5t-.5 8zm54 177v-23q0-3-2.5-6t-5.5-4l-11-3q-6-1-11-6l-13-14q-7-6-7-16v-4q0-12 9-19l16-12q6-5 15-5h15q8 0 14 4l28 18q3 3 7 3h9q6 0 10 4l11 11q3 3 8 4l18 2q-16 30-45.5 48T150 279zm80-99q-2-1-3.5-3t-1.5-5.5q0-3.5 4-5.5l12-7q3-2 3-5t-2.5-4.5Q239 148 238 148l-31-10q-3-1-5-4t-2-7q0-4 3.5-7t7.5-3h16q4 0 7.5-3.5t3.5-7.5v-4q0-4-3.5-7t-7.5-3h-8q-6 0-9 5l-8 15q-2 5-7 6l-9 3q-3 1-3.5 3t.5 4l3 9q0 4-2.5 6.5T178 146q-3 0-5.5-1.5T169 142l-8-9q-2-1-4-1t-4 2l-14 18q-3 2-7 2t-11-5l-5-5q-6-9-2-18l12-27q3-7 10-10l33-14 3-2q3-2 3-6t-2.5-4.5Q170 62 168 62l-33 5q-4-1-5.5-4.5T131 54l13-25h6q34 0 62.5 17T258 91.5q17 28.5 17 62.5 0 21-7 42l-38-16z"/></svg>