<svg viewBox="0 0 300 316" xmlns="http://www.w3.org/2000/svg"><path d="M296 236q-11-17-28-29-24-15-55.5-15.5T157 207q-17 12-28 29-4 5-4 11.5t4 12.5q11 17 28 28 25 16 56 16t55-16q17-11 28-28 4-6 4-12.5t-4-11.5zm-83 37q-11 0-18-7.5t-7-18q0-10.5 7-17.5t17.5-7q10.5 0 18 7t7.5 17.5q0 10.5-7.5 18T213 273zm-105 1q-8-12-8-26t8-26q15-22 36-36 30-20 68-20 29 0 53 11 19 9 35 24V66q0-16-8.5-30.5t-23-23Q254 4 238 4H63q-17 0-31.5 8.5t-23 23Q0 50 0 66v163q0 17 8.5 31.5t23 22.5q14.5 8 31.5 8h59q-8-8-14-17zm30-208h87q5 1 8.5 4.5T237 79q0 5-3.5 8.5T225 91h-87q-6 0-9.5-3.5T125 79q0-5 3.5-8.5T137 67l1-1zm0 63h87q5 0 8.5 3.5t3.5 9q0 5.5-3.5 9T225 154h-87q-6 0-9.5-3.5t-3.5-9q0-5.5 3.5-9t8.5-3.5h1zM81 60q8 0 13.5 5.5T100 79q0 8-5.5 13.5T81 98q-8 0-13-5.5T63 79q0-8 5-13.5T81 60zm0 63q8 0 13.5 5.5t5.5 13q0 7.5-5.5 13T81 160q-8 0-13-5.5t-5-13q0-7.5 5-13t13-5.5zm0 100q-8 0-13-5.5T63 204q0-8 5-13.5t13-5.5q8 0 13.5 5.5T100 204q0 8-5.5 13.5T81 223z"/></svg>