<svg viewBox="0 0 300 316" xmlns="http://www.w3.org/2000/svg"><path d="M250 141q0 6-3.5 9.5t-9 3.5q-5.5 0-9-3.5T225 142q0-17-8.5-31.5t-23-23Q179 79 162 79q-5 0-8.5-3.5t-3.5-9q0-5.5 3.5-9T163 54q23 0 43 12t32 32q12 20 12 43zm-75 0q0 6 3.5 9.5t9 3.5q5.5 0 9-3.5t3.5-8.5q0-16-11-27t-26-11q-6 0-9.5 3.5t-3.5 9q0 5.5 3.5 9t9 3.5 9 3.5q3.5 3.5 3.5 9.5v-1zM163 4q-6 0-9.5 3.5t-3.5 9q0 5.5 3.5 9T163 29q30 0 56 15t41 41q15 26 15 56 0 6 3.5 9.5t9 3.5q5.5 0 9-3.5t3.5-8.5q0-38-18.5-69.5t-50-50Q200 4 163 4zm40 229q11 11 9.5 26.5T198 283q-32 21-70 21-25 0-48.5-9.5T38 267q-21-21-30.5-49T1 160.5Q4 131 21 106q8-13 23.5-14.5T71 101l57 57 13-13q4-4 9-4t9 4q4 4 4 9t-4 9l-13 13 57 57z"/></svg>