<svg viewBox="0 0 300 316" xmlns="http://www.w3.org/2000/svg"><path d="M300 287q-2 7-8 12t-14 5H138q-16 0-27-11t-11-27v-25h144q18-3 31-22v17q0 12 1 17 2 8 9.5 11t11.5 9q4 6 3 14zm-25-177q0 29-5 53.5T256.5 202q-8.5 14-19 14t-19-14q-8.5-14-13.5-38.5t-5-53.5q0-29 5-53t13.5-38.5Q227 4 237.5 4t19 14.5Q265 33 270 57t5 53zm-25 0q0-10-3.5-17.5t-9-7.5q-5.5 0-9 7.5t-3.5 18q0 10.5 3.5 17.5t9 7q5.5 0 9-7t3.5-18zM63 216h135q-11-18-17-46t-6-59.5q0-31.5 6-60T198 4H63Q45 4 31 17.5t-22.5 38Q0 80 0 110.5T8.5 165Q17 189 31 203t32 13z"/></svg>