<svg viewBox="0 0 300 316" xmlns="http://www.w3.org/2000/svg"><path d="M247 44q-19-19-44-29.5T150 4q-28 0-53 10.5t-44.5 30Q33 64 23 89t-10 52.5Q13 169 23 194t30 45l49 46q20 19 48 19 13 0 25.5-5t21.5-14l50-46q20-20 30.5-45t10.5-52.5q0-27.5-10.5-52.5T247 44zm-97 197q-8 0-13.5-5t-5.5-13q0-8 5.5-13.5T150 204q8 0 13.5 5.5T169 223q0 8-5.5 13t-13.5 5zm24-93q-5 3-8 8t-3 10v13q0 5-4 8.5t-9 4q-5 .5-8.5-3.5t-3.5-9v-13q0-11 6.5-22.5T162 126q7-4 10.5-11t2-15q-1.5-8-7-13.5T155 79q-12-2-21 5.5t-9 19.5q0 5-3.5 8.5t-9 3.5q-5.5 0-9-3.5T100 104q0-11 4.5-21t13-17q8.5-7 19.5-10t22-1q15 2 26.5 13.5t14 27q2.5 15.5-4.5 30T174 148z"/></svg>