<svg viewBox="0 0 300 316" xmlns="http://www.w3.org/2000/svg"><path d="M188 170q0 7-3 14l-14-14q-3-4-8.5-4t-9 4q-3.5 4-3.5 9t4 9l14 14q-9 5-18 5-16 0-26.5-11T113 170v-32q0-15 10.5-26t26.5-11q16 0 26.5 11t10.5 26v32h1zm112-16q0 41-20 75.5T225.5 284Q191 304 150 304t-75.5-20Q40 264 20 229.5T0 154q0-41 20-75.5T74.5 24Q109 4 150 4t75.5 20Q260 44 280 78.5t20 75.5zm-87-16q0-17-8.5-31t-23-22.5Q167 76 150 76t-31.5 8.5Q104 93 96 107t-8 31v32q0 17 8 31t22.5 22.5Q133 232 150 232q20 0 36-12l5 5q4 4 9 4t9-3.5q4-3.5 4-9t-4-8.5l-6-6q9-15 10-32v-32z"/></svg>