<svg viewBox="0 0 300 316" xmlns="http://www.w3.org/2000/svg"><path d="M288 279q-6 0-9.5-3.5T275 267v-51q0-5 3.5-8.5t9-3.5q5.5 0 9 3.5t3.5 9.5v49q0 6-3.5 9.5T287 279h1zM88 204H31q-13 0-22 9t-9 22v13q0 13 9 22t22 9h57v-75zm150 0H113v75h125q5 0 8.5-3.5t3.5-8.5v-51q0-5-3.5-8.5T237 204h1zm12-38v-14q0-13-6.5-24.5T226 109l-20-12q-9-5-14-13.5T187 65V41q0-5-3.5-8.5T175 29q-5 0-9 3.5t-4 8.5v24q0 16 8.5 30.5T193 118l20 12q5 4 8.5 9.5T225 152v14q0 6 3.5 9.5t9 3.5q5.5 0 9-3.5t3.5-9.5zm50-25v-9q0-16-8-30.5T270 79l-26-16q-6-4-6-11V16q0-5-4-8.5T225 4q-5 0-8.5 3.5T213 16v36q0 10 4.5 18.5T231 84l26 16q8 5 13 13.5t5 18.5v9q0 6 3.5 9.5t9 3.5q5.5 0 9-3.5t3.5-9.5z"/></svg>