<svg viewBox="0 0 300 316" xmlns="http://www.w3.org/2000/svg"><path d="M84 270q4 4 4 9t-4 8.5q-4 3.5-9 3.5t-9-3l-50-50q-4-4-4-9t4-9q4-4 9-4t9 4l50 50zm4-66q-6 0-9.5 3.5t-3.5 9q0 5.5 3.5 9t9 3.5q5.5 0 9-3.5t3.5-9q0-5.5-3.5-9T88 204zm37-38q-5 0-8.5 4t-3.5 9q0 5 3.5 8.5t8.5 4q5 .5 8.5-3.5t4-9q.5-5-3.5-9t-9-4zM13 279q-6 0-9.5 3.5t-3.5 9q0 5.5 3.5 9t9 3.5q5.5 0 9-3.5t3.5-9q0-5.5-3.5-9T12 279h1zM299 80q-11-25-30.5-44.5T223 5q-4-2-9 0t-7 6.5q-2 4.5 0 9.5t6 7q21 9 37.5 25T276 90q1 4 4.5 6t6.5 2q3 0 5-1 5-3 7-7.5t0-9.5zm-111 61q0 10-7 17-3 4-3 9t4 8.5q4 3.5 9 3.5t9-4q13-14 12.5-34t-15-35Q183 91 162 91q-15 0-28.5 9.5T115 125q-1 5 1 9.5t7 6.5q5 2 9.5-.5t6.5-7.5q2-7 9-11.5t15-4.5q10 0 17.5 7t7.5 17zm-27-99q-25 0-46 11.5t-35 31Q66 104 63 128q0 5 3 9.5t8 5q5 .5 9-2.5t5-8q4-28 24.5-46.5T161 67q15-1 29 4.5T215 88q11 11 17 24.5t6 28.5q0 23-13 42-8 11-11 24-1 9-1 22 0 21-15 35.5T163 279q-6 0-9.5 3.5t-3.5 9q0 5.5 3.5 9t9.5 3.5q20 0 37-10t27.5-27.5Q238 249 238 229q0-10 1-16 1-8 6-16 18-25 18-56 0-20-8-38.5T232.5 70q-14.5-14-33-21.5T161 42z"/></svg>