<svg viewBox="0 0 300 316" xmlns="http://www.w3.org/2000/svg"><path d="M300 194v16q0 35-16 54-13 15-34 15-9 0-17.5-3.5T217 266q-14 13-33 13-9 0-18-4t-16-11q-7 7-16 11t-18 4q-19 0-33-13-7 6-15.5 9.5T50 279q-20 0-34-15-16-19-16-54v-16q15 10 33 10 13 0 24-5 18-8 41-14 27-6 52-6t52 6q23 6 41 14 11 5 24 5 18 0 33-10zM221 38q-11-3-25-5l52 83q3 4 2 9.5t-5 7.5q-4 2-7 2-7 0-11-6L164 29h-14q-9 0-19 1l43 68q3 4 2 9t-5 7.5q-4 2.5-7 2.5-7 0-11-6l-49-78q-14 2-25 5l-4 2 40 64q3 4 2 9t-5 7.5q-4 2.5-7 2.5-7 0-11-6L53 51q-12 8-22 18l30 47q2 4 1 9.5t-4.5 7.5q-3.5 2-7.5 2-7 0-11-6L15 91Q0 117 0 148q0 13 10 22t23 9q7 0 14-3 20-9 45-15 30-7 58-7t58 7q25 6 45 15 7 3 14 3 14 0 23.5-9t9.5-22q0-38-22-68t-57-42z"/></svg>