<svg viewBox="0 0 300 316" xmlns="http://www.w3.org/2000/svg"><path d="M250 291q0 6-3.5 9.5T237 304H137q-7 0-12.5-3.5t-9-9q-3.5-5.5-8.5-9T95 279q-25-1-45-12.5T20 234q-7-18-7.5-35.5T19 166q-10-3-15.5-11.5T1 135q1-6 6-11t12-7q9-2 17 2t12 12q20-14 46-14h62q9 22 29.5 36t45.5 14l13-1-36 88h-34q-3-30-22.5-46T100 192q-5 0-8.5 3.5T88 204q0 5 3.5 9t8.5 4q26 0 38 12t12 38v3q1 3 4 6t9 3h75q5 0 8.5 3.5t3.5 9.5v-1zM231 29q-5 0-8 1-19-7-45-13Q131 6 88 4q-5 0-9 3.5t-4 9q0 5.5 3.5 9T87 29q41 2 87 13l-5 2q-21 10-34 14-23 7-48 8-5 0-8.5 4T75 79q0 5 4 8.5t9 3.5q28-1 53-9 15-5 37-15-3 9-3 18 0 24 16.5 40t39.5 16q27 0 46-9 23-11 23-33 0-14-9-30.5T267 41q-17-12-36-12z"/></svg>