<svg viewBox="0 0 300 316" xmlns="http://www.w3.org/2000/svg"><path d="M213 66q-5 0-8-2t-4-6q-7-23-29-30-5-1-7.5-5.5T163 13q1-5 6-7.5T179 4q35 11 45 46 2 5-.5 9.5T216 66l-3 1v-1zM62 283q1-5-1.5-10t-6.5-6q-23-7-30-29-1-5-5.5-7.5t-9.5-1q-5 1.5-7.5 6T1 245q10 36 46 46l3 1q4 0 7.5-2.5T62 283zM287 91q0-10-7.5-17.5T262 66q-10 0-17.5 7.5T237 91v36L131 22q-5-6-13-6t-13.5 5.5Q99 27 99 35t6 13l70 70q2 2 2 5.5t-2.5 5.5q-2.5 2-5.5 2t-5-2L69 34q-6-5-13.5-5t-13 5.5Q37 40 37 48t5 13l95 94q2 3 2 6t-2 5.5q-2 2.5-5.5 2.5t-5.5-3L44 84q-5-5-13-5t-13.5 5.5Q12 90 12 98t5 13l83 82q2 2 2 5.5t-2.5 5.5q-2.5 2-5.5 2t-5-2l-45-45q-5-5-13-5t-13.5 5.5q-5.5 5.5-5.5 13t6 13.5l86 86q16 16 36 24t41 8q21 0 41-8t35-23q15-15 22.5-33.5T287 201V91z"/></svg>