<svg viewBox="0 0 300 316" xmlns="http://www.w3.org/2000/svg"><path d="M263 48q0-8 5-13.5t13-5.5q8 0 13.5 5.5T300 48q0 8-5.5 13.5t-13.5 5q-8-.5-13-5.5t-5-13zm-75 143q0 21-15 35.5T137.5 241q-20.5 0-35-14.5T88 191v-56q0-23 16-39.5T144 79h19q5 0 8.5 3.5t3.5 9q0 5.5-3.5 9T162 104h-18q-13 0-22.5 9t-9.5 22v13q12-7 25-7 21 0 36 15t15 36v-1zm-25 0q0-10-7.5-17.5t-18-7.5q-10.5 0-18 7.5t-7 18q.5 10.5 7.5 18t17.5 7q10.5-.5 18-7.5t7.5-18zm137-62v62q0 21-14.5 35.5T250 241q-21 0-35.5-14.5T200 191v-62q0-21 14.5-35.5T250 79q21 0 35.5 14.5T300 129zm-25 0q0-10-7.5-17.5T250 104q-10 0-17.5 7.5T225 129v62q0 11 7.5 18.5t17.5 7q10-.5 17.5-7.5t7.5-18v-62zm-206-6q0-18-13-31T25 79H13q-6 0-9.5 3.5t-3.5 9q0 5.5 3.5 9T13 104h12q8 0 13.5 5.5T44 123q0 8-5.5 13T25 141q-5 0-8.5 4t-3.5 9q0 5 3.5 9t8.5 4q10-1 17.5 6.5t7.5 18q0 10.5-7.5 17.5T25 217H13q-6-1-9.5 3T0 229q0 5 3.5 9t9.5 3h12q21 0 35.5-14.5T75 191q0-11-5-21t-13-17q12-13 12-30z"/></svg>