<svg viewBox="0 0 300 316" xmlns="http://www.w3.org/2000/svg"><path d="M69 4Q50 4 34 24T9 78.5Q0 113 0 154t9 75.5Q18 264 34 284t34.5 20q18.5 0 34.5-20t25.5-54.5Q138 195 138 154t-9.5-75.5Q119 44 103 24T69 4zM56 216q-13 0-22-9t-9-22q0-13 9-22t22-9q13 0 22 9t9 22q0 13-9 22t-22 9zM231 4q-18 0-34 20t-25.5 54.5q-9.5 34.5-9 75.5t9.5 75.5q9 34.5 25 54.5t34.5 20q18.5 0 34.5-20t25-54.5q9-34.5 9-75.5t-9-75.5Q282 44 266 24T231 4zm-12 212q-13 0-22-9t-9-22q0-13 9-22t22-9q13 0 22 9t9 22q0 13-9 22t-22 9z"/></svg>