<svg viewBox="0 0 300 316" xmlns="http://www.w3.org/2000/svg"><path d="M271 225l-16 17 16 16q4 3 4 8.5t-3.5 9q-3.5 3.5-9 3.5t-8.5-4l-16-16-16 16q-4 4-9 4t-9-3.5q-4-3.5-4-9t4-8.5l16-16-16-16q-4-4-4-9t3.5-9q3.5-4 9-4t8.5 4l16 16 17-16q3-4 8-4t9 3.5q4 3.5 4 9t-4 8.5zM238 41h-82q-3 0-6-1l-39-20q-8-4-17-4H62q-17 0-31 8.5t-22.5 23Q0 62 0 79v12h299q-5-21-22-35.5T238 41zm-75 200q0-20 10-37t27-27.5q17-10.5 37-10.5t36.5 9.5Q290 185 300 200v-84H0v113q0 17 8.5 31.5t23 22.5q14.5 8 31.5 8h119q-19-21-19-49v-1z"/></svg>