<svg viewBox="0 0 300 316" xmlns="http://www.w3.org/2000/svg"><path d="M213 4H88q-17 0-31.5 8.5t-23 23Q25 50 25 67v174q0 17 8.5 31.5t23 23Q71 304 87 304h126q16 0 30.5-8.5t23-23Q275 258 275 241V66q0-16-8.5-30.5t-23-23Q229 4 212 4h1zM94 60q8 0 13.5 5.5t5 13.5q-.5 8-5.5 13.5T94 98q-8 0-13.5-5.5T75 79q0-8 5.5-13.5T94 60zm0 188q-8 0-13.5-5.5T75 229q0-8 5.5-13.5T94 210q8 0 13.5 5.5t5 13.5q-.5 8-5.5 13.5T94 248zm17-75q-6 6-14.5 6T81 173l-8-8q-4-4-4-9t3.5-9q3.5-4 9-4t8.5 4l6 5 24-22q3-4 8.5-4t9 4q3.5 4 3.5 9t-4 9l-26 25zm102 68h-63q-5 0-8.5-3.5T138 229q0-5 3.5-9t8.5-4h63q5 0 8.5 4t3.5 9q0 5-3.5 9t-9.5 3h1zm0-75h-38q-5 0-8.5-3.5T163 154q0-5 3.5-8.5t8.5-3.5h38q5-1 8.5 3t3.5 9q0 5-3.5 8.5T212 166h1zm0-75h-63q-5 0-8.5-3.5T138 79q0-5 3.5-8.5T150 67h63q5 0 8.5 3.5T225 79q0 5-3.5 8.5T212 91h1z"/></svg>