<svg viewBox="0 0 300 316" xmlns="http://www.w3.org/2000/svg"><path d="M296 283l-21-22V149q13-14 13-33l-16-54q-5-20-22-32.5T213 17v50q0 5-4 8.5t-9 3.5q-5 0-8.5-3.5T188 67V16h-75v50q0 6-4 9.5t-9 3.5q-5 0-8.5-3.5T88 66V16q-24 0-42 16L21 8q-3-4-8.5-4t-9 3.5Q0 11 0 16.5T4 25l275 275q3 4 8.5 4t9-3.5q3.5-3.5 3.5-9t-4-8.5zM175 159q7-3 13-10 7 8 16.5 12.5T225 166h13q5 0 12-1v71l-75-75v-2zm38-143h-1 1zM88 16zm71 200l16 16v22q0 16-11 27t-26 10H63q-16 0-27-10.5T25 254V149q-12-14-12-33l10-36 78 78q-12 8-26 8H63q-6 0-13-1v51h109z"/></svg>