<svg viewBox="0 0 300 316" xmlns="http://www.w3.org/2000/svg"><path d="M238 4H63q-17 0-31.5 8.5t-23 23Q0 50 0 66v175q0 17 8.5 31.5t23 23Q46 304 63 304h175q16 0 30.5-8.5t23-23Q300 258 300 241V66q0-16-8.5-30.5t-23-23Q254 4 238 4zm-63 75q0-5 3.5-9t9.5-4h37q5 0 9 4t4 9v37q0 6-4 9.5t-9 3.5h-37q-6 0-9.5-3.5T175 116V79zM94 66q13 0 22 9.5t9 22.5q0 13-9 22t-22 9q-13 0-22-9t-9-22q0-13 9-22.5T94 66zm33 147l-25 25q-4 4-9 4t-8-4l-25-25q-4-3-4-8.5t4-8.5l25-25q3-4 8-4t9 4l25 25q4 3 4 8.5t-4 8.5zm106 28h-53q-8 0-11-6t0-12l27-43q4-5 10.5-5t10.5 5l26 43q4 6 .5 12t-10.5 6z"/></svg>