<svg viewBox="0 0 300 316" xmlns="http://www.w3.org/2000/svg"><path d="M177 7q-5-1-9.5 2.5T163 19v36q-29-4-55.5 8.5t-42.5 37Q49 125 49 154t16 53.5q16 24.5 42.5 37T162 253v36q1 6 5.5 9.5t9.5 2.5q35-6 63-27.5t44-52.5q16-31 16-67t-16-67q-16-31-44-52.5T177 7zm-14 169v28q0 5-4 8.5t-9 3.5q-5 0-9-3.5t-4-8.5v-28q-5-4-8.5-9.5T125 154q0-7 3.5-12.5t9.5-9.5V91q0-5 3.5-8.5T150 79q5 0 9 3.5t4 8.5v41q5 4 8.5 9.5T175 154q0 7-3.5 12.5T163 176zM37 66q5 1 8 5.5t2 9.5q-1 5-5 8t-9 2q-5-1-8-5.5T23 76q1-5 5-8t9-2zm-20 50q5 1 8 5t2 9.5q-1 5.5-5 8t-9 2q-5-.5-8-5T3 126q1-5 5-8t9-2zm110 161q3 0 6 3t3.5 6.5q.5 3.5-1 7t-4.5 6q-3 2.5-6.5 2.5t-7-2.5q-3.5-2.5-5-6t-.5-7.5q1-4 5-7t10-2zM75 28q5 1 8 5t2 9q-1 5-5 8t-9.5 2q-5.5-1-8-5t-2-9q.5-5 5-8t9.5-2zm52-21q4 0 6.5 3t3.5 6.5q1 3.5-.5 7t-5 5.5q-3.5 2-7 2t-6.5-2q-3-2-4.5-5.5t-.5-8q1-4.5 5-7t9-1.5zM3 180q1-6 5-8.5t9.5-1.5q5.5 1 8 5t2 9q-.5 5-5 8t-9.5 2q-5-1-8-5t-2-9zm21 49q1-5 5-8t9.5-2q5.5 1 8 5.5t2 9.5q-.5 5-5 8t-9.5 2q-5-1-8-5.5t-2-9.5zm38 37q1-5 5.5-7.5T77 257q5 1 8 5t2 9q-1 5-5.5 8t-9.5 2q-5-1-8-5t-2-9v-1z"/></svg>