<svg viewBox="0 0 300 316" xmlns="http://www.w3.org/2000/svg"><path d="M238 4H63q-17 0-31.5 8.5t-23 23Q0 50 0 66v175q0 17 8.5 31.5t23 23Q46 304 63 304h175q16 0 30.5-8.5t23-23Q300 258 300 241V66q0-16-8.5-30.5t-23-23Q254 4 238 4zm25 237q0 11-7.5 18t-17.5 7H63q-11 0-18-7t-7-18V66q0-10 7-17.5T63 41h25q3 0 6.5 2.5t4.5 6q1 3.5.5 7T96 63L62 97v145h175V66h-58q-5 0-9 4l-41 42q-4 3-4 9v58h50v-50q0-5 3.5-9t9-4q5.5 0 9 4t3.5 9v50q0 10-7.5 17.5T175 204h-50q-10 0-17.5-7.5T100 179v-58q0-16 11-27l42-42q11-11 26-11h58q11 0 18 7.5t7 17.5v175h1z"/></svg>