<svg viewBox="0 0 300 316" xmlns="http://www.w3.org/2000/svg"><path d="M278 108q-7-7-16-10.5T243 94l-31-3q0-13-5-25t-15.5-21.5Q181 35 167 31h-5V16q1-5-3-8.5T150 4q-5 0-9 3.5t-4 9.5v14h-4q-14 4-24.5 13.5T92.5 66Q87 78 87 91H57q-9 0-18.5 4T22 106L6 121q-6 5-6 13t5.5 14q5.5 6 13.5 6l261 2q8 0 13.5-5.5T299 137q0-8-6-14l-15-15zm-128 8q-10 0-17.5-7T125 91.5q0-10.5 7.5-18T150 66q10 0 17.5 7.5t7.5 18q0 10.5-7.5 17.5t-17.5 7zm138 75v69q0 18-13 31t-31 13h-31q-6 0-9.5-3.5T200 291v-37q0-21-14.5-35.5T150 204q-21 0-35.5 14.5T100 254v37q0 6-3.5 9.5T87 304H56q-18 0-30.5-13T13 260v-69q0-5 3.5-8.5T25 179h250q5 0 9 3.5t4 8.5z"/></svg>