<svg viewBox="0 0 300 316" xmlns="http://www.w3.org/2000/svg"><path d="M150 4q-41 0-75.5 20T20 78.5Q0 113 0 154q2 57 33 95 29 35 73 47.5t88 0q44-12.5 73-47.5 31-38 33-95 0-41-20-75.5T225.5 24Q191 4 150 4zm18 102l38-25q4-3 9-2t8 5.5q3 4.5 2 9.5t-6 8l-21 14 21 15q5 3 6 8t-2 9.5q-3 4.5-8 5.5t-9-2l-38-25q-5-4-5-10.5t5-10.5zm-87-4q-5-3-6-8t2-9.5q3-4.5 8-5.5t9 2l38 25q5 4 5 10.5t-5 10.5l-38 25q-4 3-9 2t-8-5.5q-3-4.5-2-9.5t6-8l22-15-22-14zm129 127q-29-11-60-12-31 1-60 12-4 0-7.5-1t-5.5-4.5q-2-3.5-2-7t2-6.5q11-20 30.5-31.5T150 167q23 0 42.5 11.5T223 210q2 3 2 6.5t-2 7q-2 3.5-5.5 5t-7.5.5z"/></svg>