<svg viewBox="0 0 300 316" xmlns="http://www.w3.org/2000/svg"><path d="M213 23q0-8 5-13.5T231 4q8 0 13.5 5.5T250 23q0 8-5.5 13T231 41q-8 0-13.5-5T212 23h1zm68 31q-8 0-13 5.5T263 73q0 8 5 13.5t13 5.5q8 0 13.5-5.5T300 73q0-8-5.5-13.5T281 54zM134 188q-4 4-9 4t-9-4q-4-4-4-9t4-9l90-90q-15-12-33.5-19T133 54h-3q-13 1-23 9T94 83q-4 17-16 29-16 16-39 17-11 0-20.5 7.5T5 156q-5 16-5 31 0 21 7 39.5T26 260l40-40q4-3 9-3t9 3.5q4 3.5 4 8.5t-4 9l-40 40q15 12 33.5 19t39.5 7q15 0 31-5 12-4 19.5-13.5T175 264q0-25 17-42 12-12 29-15 13-3 21-13t8-23q0-21-7-39.5T224 98l-90 90zm90-90l72-73q4-3 4-8.5t-3.5-9Q293 4 287.5 4T279 8l-73 72q10 8 18 18zM26 260L4 283q-4 3-4 8.5t3.5 9q3.5 3.5 9 3.5t8.5-4l23-22q-10-8-18-18z"/></svg>