<svg viewBox="0 0 300 316" xmlns="http://www.w3.org/2000/svg"><path d="M150 166h-50q-10 0-17.5-7T75 142v-26q0-10 7.5-17.5T100 91h50q10 1 17.5 8t7.5 17v25q0 11-7.5 18.5T150 167v-1zm150 100q0 16-11 27t-27 11q-12 0-21.5-7T227 279H73q-4 11-13.5 18T37 304q-15 0-26-11T0 266q0-12 7-21.5T25 231V77Q14 73 7 63.5T0 41q0-15 11-26T38 4q12 0 21.5 7T73 29h154q4-11 13.5-18T263 4q15 0 26 11t11 27q0 12-7 21.5T275 77v154q11 4 18 13.5t7 22.5v-1zM50 231zM250 77q-8-3-14-9t-9-14H73q-3 8-9 14t-14 9v154q8 3 14 9t9 14h154q3-8 9-14t14-9V77zm-37 64q-6 0-9.5 4t-3.5 9q0 16-11 26.5T162 191h-24q-6 1-9.5 4.5T125 204q0 5 3.5 9t8.5 4h63q10-1 17.5-8t7.5-18v-37q0-5-3.5-9t-9.5-4h1z"/></svg>