<svg viewBox="0 0 300 316" xmlns="http://www.w3.org/2000/svg"><path d="M238 4H63q-17 0-31.5 8.5t-23 23Q0 50 0 67v174q0 17 8.5 31.5t23 23Q46 304 63 304h175q16 0 30.5-8.5t23-23Q300 258 300 241V66q0-16-8.5-30.5t-23-23Q254 4 237 4h1zM125 129h-12v100q0 5-4 8.5t-9 4q-5 .5-9-3.5t-4-9V129H75q-5 0-8.5-3.5t-4-9q-.5-5.5 3.5-9t9-3.5h13V79q-1-5 3-9t9-4q5 0 9 4t4 9v25h12q5 0 9 3.5t4 9q0 5.5-4 9t-9 3.5zm100 75h-12v25q-1 5-4.5 8.5t-8.5 4q-5 .5-9-3.5t-4-9v-25h-12q-5 0-8.5-3.5t-3.5-9q0-5.5 3.5-9t8.5-3.5h13V79q0-5 3.5-9t8.5-4q5 0 9 4t4 9v100h12q5 0 9 3.5t4 9q0 5.5-4 9t-9 3.5z"/></svg>