<svg viewBox="0 0 300 316" xmlns="http://www.w3.org/2000/svg"><path d="M300 229v13q0 15-11 26t-26.5 11q-15.5 0-26.5-11t-11-25v-2h-25q0 16-11 27t-26.5 11q-15.5 0-26.5-11t-11-26H75q0 15-11 26t-26.5 11Q22 279 11 268T0 242v-51h250v50q0 6 3.5 9.5t9 3.5q5.5 0 9-3.5t3.5-8.5v-13q0-5 3.5-8.5t9-3.5q5.5 0 9 3.5t3.5 8.5zM0 166v-62q0-20 10-37.5T37.5 39Q55 29 75 29h100q15 0 29 5.5T228.5 51q10.5 11 16 24.5T250 104v62H0zm163-62q0 5 3.5 8.5t8.5 3.5q5 0 8.5-3.5t4-8.5q.5-5-3.5-8.5t-9-4q-5-.5-8.5 3.5t-3.5 9zm-50 0q0 5 3.5 8.5t8.5 3.5q5 0 8.5-3.5t4-8.5q.5-5-3.5-8.5t-9-4q-5-.5-8.5 3.5t-3.5 9zm-50 0q0 5 3.5 8.5T75 116q5 0 9-3.5t4-8.5q0-5-4-8.5t-9-4q-5-.5-9 3.5t-3 9z"/></svg>