<svg viewBox="0 0 300 316" xmlns="http://www.w3.org/2000/svg"><path d="M138 154V54q-1-5 3-9t9-4q5 0 9 4t4 9v100q0 5-4 9t-9 3.5q-5-.5-9-4t-4-8.5h1zm162 5q0-26-8.5-50.5t-25-45Q250 43 250 16q0-5-3.5-8.5T238 4q-14 1-13 18 0 14 8 33 8 17 15 25 16 19 22.5 43.5t3 49.5q-3.5 25-17 46T221 254H79q-22-14-35.5-35t-17-46q-3.5-25 3-49.5T53 80q6-7 14-25 8-19 8-33Q76 5 62 4q-5 0-8.5 3.5T50 16q0 27-17 48-19 23-27.5 52t-4 59Q6 205 22 230.5T63 273v18q0 6 3.5 9.5T75 304q5 0 8.5-3.5T87 292v-13h26v12q0 6 3.5 9.5t8.5 3.5q5 0 9-3.5t4-8.5v-13h25v12q-1 6 3 9.5t9 3.5q5 0 9-3.5t4-8.5v-13h25v12q0 6 3.5 9.5t8.5 3.5q5 0 9-3.5t3-8.5v-19q29-19 45.5-49t17.5-65zm-150 57q5 0 9-3.5t4-8.5q0-5-4-8.5t-9-4q-5-.5-9 3.5t-3.5 9q.5 5 4 8.5t8.5 3.5z"/></svg>