<svg viewBox="0 0 300 316" xmlns="http://www.w3.org/2000/svg"><path d="M254 181q-2-1-4-1-5-2-6-5-10-25-33-37-20-11-43.5-8t-42 18Q107 163 102 186q-2 5-2 17 1 8 0 11-1 6-5 10-11 7-16.5 19t-3 25Q78 281 87 290.5t22 12.5q5 1 9 1h55l23-38h-26q-10 0-16-8t-3-18l26-43q3-6 10.5-6t11 6.5q3.5 6.5-.5 13.5l-19 30h26q6 0 10.5 3t7 8q2.5 5 2.5 10.5t-3 10.5l-20 31h40q13 0 24.5-6t20-17q8.5-11 11.5-25 4-16-.5-31.5t-16-27.5Q270 185 254 181zM205 77l-28 16q2 6 3 11h-13q-13 1-26 6-23 8-39 25.5T79 176q-11-5-19-15l-28 16q-6 4-12.5.5t-6.5-11q0-7.5 7-10.5l28-17q-2-5-3-10H13q-6 0-9.5-3.5t-3.5-9q0-5.5 3.5-9T12 104h33q1-5 3-10L19 78q-6-4-6-11t6-11q6-4 13 0l28 16 8-8-16-28q-3-4-1.5-9t6-7.5Q61 17 66 18t7 6l17 28q5-2 10-3V16q0-5 3.5-8.5t9-3.5q5.5 0 9 3.5T125 16v33q5 1 10 3l16-29q3-4 8-5.5t9.5 1Q173 21 174 26t-1 10l-16 28 8 8 28-16q4-3 9-1.5t8 6q3 4.5 1.5 9.5t-6.5 7z"/></svg>