<svg viewBox="0 0 300 316" xmlns="http://www.w3.org/2000/svg"><path d="M251 17q18-1 31 14.5T299 72q4 25-4 50-7 26-26 44-12 12-27 18.5t-32 6.5q-25 1-48-8V71q49-54 89-54zM150 54q10 0 17.5-7.5T175 29q0-10-7.5-17.5T150 4q-10 0-17.5 7.5T125 29q0 10 7.5 17.5T150 54zm60 162q-31 1-60-12-15 8-36 11-25 3-48-2-26-6-44-22-8 15-9 31.5t4 32.5q3 11 10.5 19.5t18 13q10.5 4.5 21.5 4t20-5.5q28-15 51-37v30q0 5 3.5 9t8.5 4q5 0 9-4t4-9v-30q22 22 50 37 9 5 20.5 5.5t21.5-4q10-4.5 17.5-13T283 255q6-16 4.5-32.5T278 191q-15 12-32 18.5t-36 6.5zM90 191q25 1 48-8V71q-18-21-40-36-24-16-44-18-24-2-37 15Q1 52 0 95q1 20 9 38.5T31 166q12 12 27 18.5t32 7.5v-1z"/></svg>