<svg viewBox="0 0 300 316" xmlns="http://www.w3.org/2000/svg"><path d="M106 91q-29 0-53 14.5t-38.5 39Q0 169 0 198t14.5 53Q29 275 53 289.5t53 14.5q29 0 53.5-14.5T198 251q14-24 14-53t-14-53.5Q184 120 159.5 106T106 92v-1zm44 88h-12v12q0 6-4 9.5t-9 3.5q-5 0-8.5-3.5T113 192v-13h-13q-5 0-8.5-3.5T88 167q0-6 3.5-9.5t8.5-3.5h13v-13q0-5 3.5-8.5t8.5-3.5q5 0 8.5 3.5t3.5 9.5v12h13q5 0 8.5 3.5t3.5 9.5h1q0 5-4 8.5t-9 3.5zm149-84q5 36-12.5 67T237 207l1-9q0-23-7.5-43.5T209 116h7q3-1 6-3.5t3-8.5V91h13q5 0 8.5-3.5T250 79q0-5-3.5-9t-9.5-4h-12V54q0-5-3.5-9t-9.5-4h1q-6 0-9.5 4t-3.5 9v12h-12q-6 0-9.5 4t-3.5 9v7q-32-20-69-20l-9 1q14-32 45-49.5T208.5 5Q244 10 269 35t30 60z"/></svg>