<svg viewBox="0 0 300 316" xmlns="http://www.w3.org/2000/svg"><path d="M150 166q0 11-10 19.5T112.5 199Q95 204 75 204t-37.5-5Q20 194 10 185.5t-10-19q0-10.5 10-19T37.5 134q17.5-5 37.5-5t37.5 5q17.5 5 27.5 13.5t10 19.5v-1zm0 69v25q0 13-10 23t-27 15.5Q96 304 75 304t-38-5.5Q20 293 10 283T0 260v-25q0 19 21 31.5T75 279q33 0 54-12.5t21-31.5zm0-50v25q0 13-10 23t-27 15.5Q96 254 75 254t-38-5.5Q20 243 10 233T0 210v-25q0 19 21 31.5T75 229q33 0 54-12.5t21-31.5zM138 79q-14 0-26 7t-18 19q34 4 56.5 19.5T175 162q13-14 12.5-34t-15-34.5Q158 79 137 79h1zm125 0q0-5 3.5-8.5T275 67h25q0-17-8.5-31.5t-23-23Q254 4 238 4H63q-17 0-31.5 8.5t-23 23Q0 50 0 67v57q26-18 67-20 8-22 27-36t44-14q20 0 37 10t27 27.5q10 17.5 10.5 37.5t-10 37.5Q192 184 175 194v60h63q6 0 12-1v13q0 6 3.5 9.5t9 3.5q5.5 0 9-3.5t3.5-9.5v-25q12-8 18.5-21t6.5-28h-25q-5 0-8.5-4t-3.5-9q0-5 3.5-9t8.5-3h25V91h-25q-5 0-8.5-3.5T263 79z"/></svg>