<svg viewBox="0 0 300 316" xmlns="http://www.w3.org/2000/svg"><path d="M50 4h37q21 0 35.5 14.5T137 54v37q0 21-14.5 35.5T87 141H50q-21 1-35.5-14T0 91V54q0-21 14.5-35.5T50 4zm0 162h37q21 0 35.5 15t14.5 35v38q0 21-14.5 35.5T87 304H50q-21 0-35.5-14.5T0 254v-37q0-21 14.5-36T50 166zm163 0h37q21 0 35.5 15t14.5 35v38q0 21-14.5 35.5T250 304h-37q-21 0-35.5-14.5T163 254v-37q-1-21 14-36t36-15zm-38-75h38v38q0 5 3.5 8.5t8.5 3.5q5 0 8.5-3.5t3.5-8.5V91h38q5 0 8.5-3.5T287 79q0-5-3.5-8.5T275 67h-38V29q0-5-3.5-8.5T225 17q-5 0-8.5 3.5T213 29v38h-38q-5 0-8.5 3.5T163 79q0 5 3.5 8.5T175 91z"/></svg>