<svg viewBox="0 0 300 316" xmlns="http://www.w3.org/2000/svg"><path d="M238 66h-38V54q0-16-11-27t-27-11h-24q-16 0-27 11t-11 27v12H63q-17 1-31.5 9t-23 22.5Q0 112 0 129v100q0 17 8.5 31.5t23 22.5q14.5 8 30.5 9h176q16-1 30.5-9t23-22.5Q300 246 300 229V129q0-17-8.5-31.5t-23-22.5Q254 67 238 66zM125 54q0-5 3.5-9t9.5-4h25q5 0 8.5 4t3.5 9v12h-50V54zm63 137h-25v25q0 6-4 9.5t-9 3.5q-5 0-9-3.5t-4-9.5v-25h-24q-6 1-9.5-3t-3.5-9q0-5 3.5-9t9.5-4h25v-25q0-5 3.5-8.5t8.5-3.5q5 0 9 3.5t4 8.5v25h25q5 0 8.5 4t3.5 9q0 5-3.5 8.5T188 191z"/></svg>