<svg viewBox="0 0 300 316" xmlns="http://www.w3.org/2000/svg"><path d="M300 260q0 13-9 22.5t-22 9.5q-13 0-22.5-9.5t-9-22.5q.5-13 9.5-22t22-9q3 0 6 1v-49q0-6-4.5-9.5T261 168l-32 5q-7 1-11.5 6.5T213 191v82q-1 13-10 22t-22 9q-13 0-22-9t-9-22q0-13 9-22t22-9h7v-51q0-16 10.5-28.5T225 148l32-4q17-3 30 8.5t13 28.5v79zM100 154q20 0 37.5-10t27.5-27.5Q175 99 175 79t-10-37.5Q155 24 137.5 14T100 4Q80 4 62.5 14T35 41.5Q25 59 25 79t10 37.5Q45 134 62.5 144t37.5 10zm63 66v-29q-24-12-50-12-31 0-57 15t-41 41Q0 261 0 291q0 6 3.5 9.5T13 304h122q-10-14-10-31.5t10.5-32Q146 226 163 220z"/></svg>