<svg viewBox="0 0 300 316" xmlns="http://www.w3.org/2000/svg"><path d="M150 122l32 32-32 32-32-32 32-32zm150 32q0 41-20 75.5T225.5 284Q191 304 150 304t-75.5-20Q40 264 20 229.5T0 154q0-41 20-75.5T74.5 24Q109 4 150 4t75.5 20Q260 44 280 78.5t20 75.5zm-82 0l28-29q4-3 4-8.5t-3.5-9q-3.5-3.5-9-3.5t-8.5 4l-29 28-32-32 28-29q4-3 4-8.5t-3.5-9q-3.5-3.5-9-3.5t-8.5 4l-29 28-29-28q-3-4-8.5-4t-9 3.5q-3.5 3.5-3.5 9t4 8.5l28 29-32 32-29-28q-3-4-8.5-4t-9 3.5q-3.5 3.5-3.5 9t4 8.5l28 29-28 29q-4 3-4 8.5t3.5 9q3.5 3.5 9 3.5t8.5-4l29-28 32 32-28 29q-4 3-4 8.5t3.5 9q3.5 3.5 9 3.5t8.5-4l29-28 29 28q3 4 8.5 4t9-3.5q3.5-3.5 3.5-9t-4-8.5l-28-29 32-32 29 28q3 4 8.5 4t9-3.5q3.5-3.5 3.5-9t-4-8.5l-28-29z"/></svg>