<svg viewBox="0 0 300 316" xmlns="http://www.w3.org/2000/svg"><path d="M300 138v107q0 7-3.5 13t-9.5 9q-6 3-12 3-8 0-15-5l-10-8V126l10-8q6-4 13-4.5t13.5 2.5q6.5 3 10 9t3.5 13zM63 241h100V141H63v100zm162-100v100q0 17-8.5 31.5t-23 23Q179 304 162 304H63q-17 0-31.5-8.5t-23-23Q0 258 0 241V141q0-16 8.5-30.5t23-23Q46 79 63 79h76l-34-34q-4-3-9-3H13q-6-1-9.5-4.5T0 29q0-5 3.5-9t9.5-4h83q15 0 26 11l53 53q22 5 36 22t14 39zm-37-12q0-5-4-8.5t-9-3.5H50q-5-1-8.5 3t-3.5 9v125q0 5 3.5 8.5T50 266h125q5 0 9-3.5t4-8.5V129z"/></svg>