<svg viewBox="0 0 300 316" xmlns="http://www.w3.org/2000/svg"><path d="M88 104H75V66l-6-8q-6-10-6-22V23q0-8 5-13.5T81 4h13q8 0 13.5 5.5T113 23v13q-1 12-7 21l-6 8v39H88zm39 85q0-6-4-18l-1-5q-4-13-6-21-3-14-3-29 0-7-3.5-9t-8.5-3h-1v75q0 5-3.5 8.5t-9 3.5q-5.5 0-9-3.5T75 179v-75q-36 3-52 20-10 12-10 30 0 7 2 14l6 12q4 8 4 10t-7 10v1q-8 10-12 17-6 13-6 26 0 17 11.5 30.5T43 296q20 8 45 8h10q5-1 7.5-5t.5-9q-6-12-6-26 0-19 7-36 4-11 13-25 7-12 7-14zm173 75q0 21-20 32-15 8-33 8h-69q-18 0-33-8-20-11-20-32 0-14 6-28 3-8 11-20 5-9 7-14 3-6 3-12.5t-1-13.5l-4-13q-4-14-6-24-3-16-3-35 0-5 3.5-8.5T150 91q5 1 8.5 4.5t4.5 8.5q0 9 5 18 10 15 32 19V79q-8-1-16.5-7.5T175 60q0-8 7-21 5-10 13-21l7-8q4-6 10-6t9.5 3.5Q225 11 225 17v124q18-3 28-13 7-6 10-15 1-5 5-7.5t8.5-1.5q4.5 1 7.5 5t3 8q-1 21-9 46l-4 13q-1 7-1 13.5t3 12.5q2 5 7 14 8 13 11 20 6 14 6 28zm-62-23q0-5-4-8.5t-9-3.5h-25q-5 0-8.5 3.5t-4 9q-.5 5.5 3.5 9t9 3.5h25q5 0 8.5-3.5t3.5-9.5h1z"/></svg>