<svg viewBox="0 0 300.0105 316" xmlns="http://www.w3.org/2000/svg"><path d="M125.01 141q0-10 7.5-17.5t17.5-7.5q10 0 17.5 7.5t7.5 18q0 10.5-7.5 17.5t-17.5 7q-10 0-17.5-7t-7.5-18zm168 2q9-10 7-23-4-28-19.5-53.5T241.01 22q-10-7-23-5t-21 14l-30 48q-3 5-1.5 10t6.5 8q13 6 20.5 18t7.5 26q0 6 3.5 9.5t9.5 3.5h57q14 0 23-11zm-263 11h58q5 0 8.5-3.5t3.5-9.5q0-14 7.5-26t20.5-18q5-3 6.5-8t-1.5-10l-30-48q-8-12-21-14t-23 5q-24 19-39.5 44.5T.01 120q-2 13 7 23.5t23 10.5zm177 126q12-6 16.5-18.5t-2.5-23.5l-26-51q-3-5-8.5-6t-9.5 2q-12 8-27 8t-27-8q-4-3-9.5-2t-8.5 6q-6 12-15 29l-11 22q-7 11-2.5 23.5t16.5 18.5q27 12 57 12t57-12z"/></svg>