<svg viewBox="0 0 300 316" xmlns="http://www.w3.org/2000/svg"><path d="M298 105q-10-38-41.5-64T183 7q17 27 27 54 14 34 15 64 14-9 25-9t20 11q2 3 2 6t-3 5l-73 72q-6-4-13-5l19-69q0-32-19-75-14-31-32-57h-2q-18 26-32 57-19 43-19 75l19 69q-7 1-13 5l-73-72q-3-2-3-5t2-6q9-10 20-10t25 8q1-30 15-64 10-27 27-54-42 8-73.5 34T2 105q-4 16 .5 32T19 165l70 66-2 10v25q1 16 11.5 27t26.5 11h50q16 0 27-11t10-27v-25q1-5-1-10l70-66q12-12 16.5-28t.5-32zm-124 29l-17 70h-14l-17-70q-1-4 .5-7.5t4.5-4.5q10-5 18.5-5.5T169 122q3 1 4.5 4.5t.5 7.5z"/></svg>