<svg viewBox="0 0 300 316" xmlns="http://www.w3.org/2000/svg"><path d="M150 4q-41 0-75.5 20T20 78.5Q0 113 0 154t20 75.5Q40 264 74.5 284t75.5 20q41 0 75.5-20t54.5-54.5q20-34.5 20-75.5t-20-75.5Q260 44 225.5 24T150 4zm44 169l-28 61q-2 3-5 5t-7 2h-3q-6 0-9.5-3.5T138 228v-30q0-6-5-11l-15-15q-5-6-5-13v-12q0-5-4-9l-5-5q-4-4-10-4H70q-8 0-13-5l-20-22q15-33 45.5-53T150 29h8l-17 25q-4 6 0 12l11 18q2 3 1.5 7t-3.5 7q-3 3-6.5 3.5T136 100l-11-5q-3-2-6-1.5t-5 3.5l-7 6q-3 3-3 7t3 7l7 8q5 4 11 4h18q7 0 13 4l32 20q5 3 7 8.5t-1 11.5zm50-16q-6-3-8-10l-8-31q-1-6 1-10.5t6-7.5l20-11q20 31 20 67 0 8-1 18l-30-15z"/></svg>