<svg viewBox="0 0 300 316" xmlns="http://www.w3.org/2000/svg"><path d="M100 104v150q0 21-14.5 35.5T50 304q-21 0-35.5-14.5T0 254V104q0-21 14.5-35.5T50 54q21 0 35.5 14.5T100 104zm25 25h175v112q0 17-8.5 31.5t-23 23Q254 304 238 304H106q19-21 19-50V129zm100 56q0 8 5.5 13.5T244 204q8 0 13.5-5.5T263 185q0-8-5.5-13.5T244 166q-8 0-13.5 5.5T225 185zm0 63q0 8 5.5 13t13.5 5q8 0 13.5-5t5.5-13q0-8-5.5-13.5T244 229q-8 0-13.5 5.5T225 248zm-62-63q0 8 5 13.5t13 5.5q8 0 13.5-5.5T200 185q0-8-5.5-13.5T181 166q-8 0-13 5.5t-5 13.5zm0 63q0 8 5 13t13 5q8 0 13.5-5t5.5-13q0-8-5.5-13.5T181 229q-8 0-13 5.5t-5 13.5zm87-169q-10 0-17.5-7.5T225 54V4h-50q-21 0-35.5 14.5T125 54v50h175V79h-50zm0-25h42l-42-42v42z"/></svg>