<svg viewBox="0 0 300 316" xmlns="http://www.w3.org/2000/svg"><path d="M288 66h-33l29-28q3-4 3-9t-3.5-8.5Q280 17 275 17t-9 3l-28 29V16q0-5-4-8.5T225 4q-5 0-8.5 3.5T212 16v56q-15-16-35-26-14-7-29.5-3.5T122 58l37 37q3 4 3 9t-3.5 8.5Q155 116 150 116t-9-3l-34-35q-20 28-53 87l30 30q3 4 3 9t-3.5 8.5Q80 216 75 216t-9-3l-24-25-38 70q-5 9-3.5 19t9 17.5q7.5 7.5 17.5 9t19-3.5q74-39 126-69l-31-31q-3-3-3-8.5t3.5-9q3.5-3.5 8.5-3.5t9 4l35 35q27-16 51-36 12-10 16-25t-3-30q-10-20-26-36h56q5 0 8.5-3.5T300 79q0-5-3.5-9t-8.5-4z"/></svg>