<svg viewBox="0 0 300 316" xmlns="http://www.w3.org/2000/svg"><path d="M138 223q0-25 13-45t35.5-29.5Q209 139 233 143t42 21V41q0-15-11-26T237 4H88q-17 0-31.5 8.5t-23 23Q25 50 25 66v175q0 17 8.5 31.5t23 23Q71 304 87 304h132q-22 0-41-11t-29.5-29.5Q138 245 137 223h1zM88 91q0-5 3.5-8.5T100 79h100q5 0 9 3.5t4 9q0 5.5-4 9t-9 3.5H100q-5 0-8.5-3.5T88 92v-1zm208 209q-3 4-8.5 4t-8.5-4l-30-30q-14 9-30 9-24 0-40-16.5t-16-40q0-23.5 16-40t39.5-16q23.5.5 40 16.5t16.5 40q0 16-9 30l30 30q4 3 4 8.5t-4 8.5z"/></svg>