<svg viewBox="0 0 300 316" xmlns="http://www.w3.org/2000/svg"><path d="M62 206q3 3 3 8.5t-3.5 9Q58 227 53 227t-9-4q-29-28-39-67t0-77.5Q15 40 44 11q4-3 9-3t8.5 3.5Q65 15 65 20t-3 9Q38 53 29.5 85t0 64.5Q38 182 62 206zM256 11q-4-3-9-3t-8.5 3.5Q235 15 235 20t3 9q24 24 32.5 56t0 64.5Q262 182 238 206q-3 3-3 8.5t3.5 9q3.5 3.5 8.5 3.5t9-4q29-28 39-67t0-77.5Q285 40 256 11zM150 79q-16 0-26.5 11T113 117q0 12 6.5 21.5T138 152v139q0 6 3.5 9.5t8.5 3.5q5 0 9-3.5t3-9.5V152q12-4 18.5-13.5T188 116q0-15-11-26t-27-11zm-44-24q-4-4-9-4t-9 4Q71 71 65.5 93.5t0 45.5Q71 162 88 178q4 4 9 4t8.5-3.5q3.5-3.5 3.5-9t-3-8.5q-12-12-16.5-28.5t0-32.5Q94 84 106 72q3-3 3-8.5t-3-8.5zm106 0q-4-4-9-4t-8.5 3.5q-3.5 3.5-3.5 9t3 8.5q12 12 16.5 28t0 32.5Q206 149 194 161q-3 3-3 8.5t3.5 9q3.5 3.5 8.5 3.5t9-4q17-16 22.5-39t0-45.5Q229 71 212 55z"/></svg>