<svg viewBox="0 0 300 316" xmlns="http://www.w3.org/2000/svg"><path d="M225 119q-3-3-7.5-2.5T210 121q-5 9-8 21-3 8-6 22t-5 19q-3 9-9 9-3 0-4.5-3t-2.5-9q-1-6-2.5-9.5t-6-4q-4.5-.5-7.5 3.5-13 16-18 35-7 24 2 45 11 25 32.5 40t48.5 14q21-1 38.5-12.5T290 262q10-18 10-39 0-25-23-53-13-17-43-43l-9-8zm18 149q-10 11-24.5 11t-23-10q-8.5-10-7.5-23t10-22l14-13q3-3 7-3t7 3l13 13q9 9 10.5 22t-6.5 22zm-123-9q-11-27-4-58 6-26 23-47 6-7 14-10t17-2l5 1q6-21 14-35t24-16.5q16-2.5 29 8.5l8 8q17 15 26 23 14 14 24 27V66q0-16-8.5-30.5t-23-23Q254 4 238 4H63q-17 0-31.5 8.5t-23 23Q0 50 0 67v174q0 17 8.5 31.5t23 23Q46 304 63 304h90q-22-18-33-45zM50 66q-5 0-9-3.5T37.5 54q.5-5 4-8.5t8.5-4q5-.5 9 3.5t4 9q0 5-4 8.5T50 66zm50 0q-5 1-8.5-3T88 54q0-5 3.5-9t8.5-4q5 0 8.5 4t3.5 9q0 5-3.5 8.5T100 66z"/></svg>