<svg viewBox="0 0 300 316" xmlns="http://www.w3.org/2000/svg"><path d="M188 154q0 16-11 26.5T150 191q-16 0-26.5-10.5T113 154q0-16 10.5-26.5t26.5-11q16-.5 26.5 10.5t10.5 27h1zm112 0q0 5-3.5 9t-8.5 4h-14q-3 29-18 53.5T216.5 260Q192 275 162 278v13q1 6-3 9.5t-9 3.5q-5 0-8.5-3.5T138 291v-13q-30-3-54.5-18T44 220.5Q29 196 26 167H13q-6-1-9.5-4.5T0 154q0-5 3.5-9t9.5-4h13q3-29 18-53.5T83.5 48Q108 33 137 30V16q1-5 4.5-8.5T150 4q5 0 9 3.5t3 8.5v14q30 3 54.5 18T256 87.5q15 24.5 18 54.5h14q5-1 8.5 3t3.5 9zm-87 0q0-17-8.5-31.5t-23-22.5Q167 92 150 91.5t-31.5 8Q104 108 96 122.5T88 154q0 17 8 31.5t22.5 22.5q14.5 8 31.5 8t31.5-8q14.5-8 22.5-22.5t8-31.5h1z"/></svg>