<svg viewBox="0 0 300 316" xmlns="http://www.w3.org/2000/svg"><path d="M130 114q10-10 29-20t37-13q21-5 33 1l18-18q-7-4-9-11t1.5-14q3.5-7 11-9.5t14.5 1q7 3.5 9 11T273 56q7-3 14.5-1t11 9q3.5 7 1 14.5t-9.5 11q-7 3.5-14 1.5t-11-9l-18 18q6 14 1 35-4 18-13.5 36T215 199q-20 19-45 18-23-2-39.5-18.5T112 159q-1-25 18-45zm103 103q-25 22-53 25-26 2-49-12t-35-38q-12-24-8-49 5-29 30-51-24-1-45.5 7t-38 24Q18 139 9 160t-9 44v32q1 29 19 45 14 13 40 18 16 3 45 5h9q64 1 111-11 57-15 72-45 17-36-28-91-11 33-35 60zM100 54q5 0 8.5-3.5T112 42V16q1-5-3-8.5T100 4q-5 0-8.5 3.5T88 16v25q0 6 3.5 9.5T100 54zm50 0q5 0 9-3.5t4-8.5V16q0-5-4-8.5T150 4q-5 0-9 3.5t-4 8.5v25q1 6 4.5 9.5T150 54zM50 54q5 0 9-3.5t4-8.5V16q0-5-4-8.5T50 4q-5 0-8.5 3.5T38 16v25q0 6 3.5 9.5T50 54z"/></svg>