<svg viewBox="0 0 300 316" xmlns="http://www.w3.org/2000/svg"><path d="M125 29q0-10 7.5-17.5T150 4q10 0 17.5 7.5T175 29q0 10-7.5 17.5T150 54q-10 0-17.5-7.5T125 29zM56 186H45v23h11q5 0 8-3.5t3-8q0-4.5-3-7.5t-8-3v-1zm244-7v75q0 21-14.5 35.5T250 304H50q-21 0-35.5-14.5T0 254v-75q0-19 12.5-33T44 130l62-66q3-4 8.5-4t9 3.5q3.5 3.5 3.5 9t-3 8.5l-45 48h142l-45-48q-3-3-3-8.5t3.5-9q3.5-3.5 9-3.5t8.5 4l62 66q19 2 31.5 16t12.5 33zM74 223q7-5 10.5-12.5T87 194q-1-12-10.5-19.5T55 167H35q-4-1-7 2t-3 8v79q0 5 3 8t7 3q4 0 7-3t3-8v-27h10l9 30q1 3 3.5 5t5.5 2h1q5 0 8-4t2-8l-10-31h1-1zm46-17v-20h8q4 0 7-2.5t3-7q0-4.5-3-7t-7-2.5h-18q-4-1-7 2t-3 8v79q0 5 3 7.5t7 2.5h18q4 0 7-2.5t3-7q0-4.5-3-7.5t-7-3h-8v-20h8q4 0 7-2.5t3-7q0-4.5-3-7.5t-7-3h-8zm92-30q0-4-2.5-7t-7-3q-4.5 0-7.5 3t-3 8v40l-19-43q-1-4-4-6t-7-2q-5 0-8.5 4t-3.5 9v77q0 5 3 8t7 3q4 0 7-3t3-8v-40l19 43q2 4 5 6t7 2q4 0 7.5-4t3.5-9v-78zm63 1q0-4-3-7t-7-3h-30q-4 0-7 3t-3 7q0 4 3 7t7 3h5v69q0 5 3 8t7 3q4 0 7-3t3-8v-69h5q4 0 7-3t3-7z"/></svg>