<svg viewBox="0 0 300.0112 316" xmlns="http://www.w3.org/2000/svg"><path d="M150 152l4 7 17 33h-42l21-40zm-70-44q-22 14-44 32-17 15-26 26-12 15-10 34t17 30.5Q32 242 50.5 240T81 224q10-12 43-76-15-7-26.5-17T80 108zm71 196q18 0 32-38h-64q13 38 32 38zm140-138q-10-11-26-26-22-18-45-32-6 13-17.5 23T176 148q34 64 44 76 12 14 30.5 16t33-9.5Q298 219 300 200t-9-34zm-176 50q-4 8-7 12l3 13h79l3-12-8-12h-70v-1zm66-175q1-3 1-6 0-13-9-22t-22-9q-13 0-22.5 9T119 35l1 6q3 13 30.5 13T181 41zm-30 38q-30 0-44-13-6 9-6 20 0 18 21 32 12 8 25 12l4 1 3-1q13-4 25-12 22-14 22-32 0-11-6-20-15 13-44 13z"/></svg>