<svg viewBox="0 0 300 316" xmlns="http://www.w3.org/2000/svg"><path d="M166 247q-16 16-16 39v18h18q23 0 38-16l86-85q8-8 8-20t-8.5-20.5Q283 154 271 154t-20 8l-85 85zm-18-17l64-64h-24q-8 0-11-6t0-12q3-6 11-7h49q13-11 31-12t32 8V91q0-16-8.5-30.5t-23-23Q254 29 238 29H63q-17 0-31.5 8.5t-23 23Q0 75 0 92v124q0 17 8.5 31.5t23 23Q46 279 63 279h62q3-29 23-49zm40-139h50q7 1 10 7t0 12q-3 6-10 7h-50q-8-1-11-7t0-12q3-6 11-7zM88 241q-6 1-9.5-3t-3.5-9v-13h-3q-10 0-19-5t-14-13q-2-5-1-10t5.5-7.5q4.5-2.5 9.5-1t8 7q3 5.5 11 5.5h28q6 0 9.5-5t2.5-10.5q-1-5.5-8-7.5l-38-6q-15-3-22.5-14T38 124.5Q40 111 50 101t25-9V79q0-8 6-11t12.5 0q6.5 3 6.5 11v12h3q10 1 19 6t14 13q2 5 1 10t-5.5 7.5q-4.5 2.5-9.5 1t-8-6.5q-3-5-11-5H75q-6-1-9.5 4T63 131.5q1 5.5 8 7.5l38 6q15 3 22.5 14t5.5 24.5q-2 13.5-12 23.5t-25 10v12q0 5-3.5 9t-9.5 4l1-1z"/></svg>