<svg viewBox="0 0 300 316" xmlns="http://www.w3.org/2000/svg"><path d="M187 160q-4 0-7 3l-55 55v-14q0-5-3.5-9t-9-4q-5.5 0-9 4t-3.5 9v45q0 16 8 28.5t20 19.5q12 7 26 7 23 0 38-16l42-42 1-1q3-3 2.5-7t-3.5-7q-3-3-7-3t-7 3l-23 23-12-12 45-45q3-3 3-7.5t-3-7.5q-3-3-7.5-3t-7.5 3l-45 45-13-12 37-37q3-3 3-7.5t-3-7.5q-3-3-7-3zM150 4q-41 0-75.5 20T20 78.5Q0 113 0 154q0 44 23.5 80.5T86 289q-11-18-11-40v-45q0-12 7-21.5t18-13.5v-3q0-20 14.5-34.5T150 117q12-1 22 4.5t17 14.5q14 1 23 10 4 3 6 8 8-1 16 2t14 8q10 11 10 24.5t-8 23.5l2 2q9 8 10.5 20t-5.5 23q-1 3-4 6 22-21 34.5-49t12.5-60q0-41-20-75.5T225.5 24Q191 4 150 4zm-23 87q-22 5-44 23-4 2-9 2t-8.5-4q-3.5-4-3-9t4.5-9q27-21 56-27 5-1 9 1.5t5 8q1 5.5-1.5 9.5t-8.5 5zm108 21q-4 4-9.5 4t-8.5-2q-21-18-44-23-6-1-8.5-5t-1.5-9.5q1-5.5 5-8t9-1.5q30 6 56 27 4 4 4.5 9t-2.5 9z"/></svg>