<svg viewBox="0 0 300 316" xmlns="http://www.w3.org/2000/svg"><path d="M213 60q-1-13 8.5-22t22.5-9q13 0 22 9t9 22q0 13-9 22.5T244 92q-13 0-22.5-9.5T212 60h1zm-88 44q0-10-7.5-17.5T100 79q-10 0-17.5 7.5T75 104q0 10 7.5 17.5T100 129q10 0 17.5-7.5T125 104zm44 50q0-8-5.5-13.5T150 135q-8 0-13.5 5.5T131 154q0 8 5.5 13.5T150 173q8 0 13.5-5.5T169 154zm125-41q-1-5-5.5-7.5t-9.5-1q-5 1.5-7.5 6T270 120q5 17 5 34 0 34-17 62.5T212.5 262Q184 279 150 279t-62.5-17Q59 245 42 216.5T25 154q0-34 17-62.5T87.5 46Q116 29 150 29q17 0 34 5 5 1 9.5-1.5t6-7.5q1.5-5-1-9.5T191 10q-20-6-41-6-41 0-75.5 20T20 78.5Q0 113 0 154t20 75.5Q40 264 74.5 284t75.5 20q41 0 75.5-20t54.5-54.5q20-34.5 20-75.5 0-21-6-41zM138 79q0 5 3.5 8.5T150 92q17-1 31.5 7.5t22.5 23q8 14.5 8.5 31.5t-8 31.5q-8.5 14.5-23 22.5t-31.5 8q-17 0-31.5-8T96 185.5Q88 171 88 154q-1-5-4.5-9t-8.5-4q-5 0-9 4t-3 9q-1 24 11 44t32 31.5q20 11.5 44 11.5t44-11.5q20-11.5 31.5-31.5t12-44q.5-24-11.5-44t-32-32q-20-12-44-12-5 0-8.5 4t-4.5 9h1z"/></svg>