<svg viewBox="0 0 300 316" xmlns="http://www.w3.org/2000/svg"><path d="M288 104h-14q-5-22-22-36t-39-14H63q-17 0-31.5 8.5t-23 23Q0 100 0 117v74q0 17 8.5 31.5t23 23Q46 254 63 254h150q22 0 39-14t22-36h14q5 0 8.5-3.5t3.5-8.5v-76q0-5-3.5-8.5T287 104h1zm-110 74l-22 44q-3 7-11 7-3 0-6-1-4-3-6-7.5t1-9.5l22-44h-38q-13 0-20-9.5T95 136l27-50q3-5 8-6.5t9.5 1q4.5 2.5 6 7.5t-1.5 9l-24 45h37q7 0 12.5 3t8.5 9q3 6 3 12.5t-3 12.5v-1zm110-74h-14q-5-22-22-36t-39-14H63q-17 0-31.5 8.5t-23 23Q0 100 0 117v74q0 17 8.5 31.5t23 23Q46 254 63 254h150q22 0 39-14t22-36h14q5 0 8.5-3.5t3.5-8.5v-76q0-5-3.5-8.5T287 104h1zm-110 74l-22 44q-3 7-11 7-3 0-6-1-4-3-6-7.5t1-9.5l22-44h-38q-13 0-20-9.5T95 136l27-50q3-5 8-6.5t9.5 1q4.5 2.5 6 7.5t-1.5 9l-24 45h37q7 0 12.5 3t8.5 9q3 6 3 12.5t-3 12.5v-1z"/></svg>