<svg viewBox="0 0 300 316" xmlns="http://www.w3.org/2000/svg"><path d="M150 173q-13 0-22-9.5t-9-22q0-12.5 9-22t22-9.5q13 0 22 9.5t9 22q0 12.5-9 22t-22 9.5zm125-83v65q0 42-24 76-18 27-49 48-20 13-42 22l-3 1q-4 2-7 2t-7-2l-4-2q-21-11-41-25-31-23-49-49-24-34-24-71V90q0-20 12-36.5T68 31l78-26q4-2 8 0l78 26q19 6 31 22.5T275 90zm-70 39q-2-9-7-17l7-8h1q8 0 13.5-5.5T225 85q0-8-5.5-13.5T206 66q-8 0-13.5 5.5T187 85l1 1-8 8q-8-5-17-7v-8q0-5-4-8.5t-9-4q-5-.5-8.5 3.5t-3.5 9v8q-10 2-18 7l-8-8v-1q0-8-5-13.5T94 66q-8 0-13.5 5.5T75 85q0 8 5.5 13.5T94 104l9 8q-6 8-8 17h-7q-6 0-9.5 3.5t-3.5 9q0 5.5 3.5 9T87 154h8q2 9 8 17l-8 8h-1q-8 0-13.5 5.5T75 198q0 8 5.5 13.5t13.5 5q8-.5 13.5-5.5t5.5-13l-1-1 8-8q8 5 18 7v8q0 5 3.5 9t8.5 3.5q5-.5 8.5-4t3.5-8.5v-8q10-2 18-7l8 8-1 1q0 8 5.5 13.5t13.5 5q8-.5 13.5-5.5t5.5-13q0-8-5.5-13.5T206 179l-8-8q5-8 7-17h8q5 0 8.5-3.5t3.5-9q0-5.5-3.5-9T212 129h-7z"/></svg>