<svg viewBox="0 0 300 316" xmlns="http://www.w3.org/2000/svg"><path d="M283 86l10-14q8-13 6.5-28.5T287 17Q276 6 260.5 4.5T232 11l-14 10Q186 4 150 4q-41 0-75.5 20T20 78.5Q0 113 0 154q0 36 17 68L7 236q-8 13-6.5 28.5T13 291q11 11 26.5 12.5T68 297l14-10q32 17 68 17 41 0 75.5-20t54.5-54.5q20-34.5 20-75.5 0-36-17-68zm-170-7q-1-5 3-8.5t9-3.5h28q5 0 7.5 3t1.5 7q-3 15-13.5 25.5T123 116q-4 1-7.5-1.5T112 107V79h1zm-50 56q0-8 5-13t13-5q8 0 13.5 5t5.5 13q0 8-5.5 13.5T81 154q-8 0-13-5.5T63 135zm62 85q0 4-3 7t-8 2q-14-3-25-14t-14-25q-1-5 2-8t7-3h28q6 0 9.5 3.5t3.5 9.5v28zm19-53q-8 0-13.5-5.5T125 148q0-8 5.5-13.5T144 129q8 0 13.5 5.5T163 148q0 8-5.5 13.5T144 167zm25 75q-8 0-13.5-5.5T150 223q0-8 5.5-13.5T169 204q8 0 13.5 5.5T188 223q0 8-5.5 13.5T169 242zm37-150q8 0 13.5 5.5t5.5 13q0 7.5-5.5 13T206 129q-8 0-13.5-5.5t-5-13.5q.5-8 5.5-13t13-5zm24 110q-3 3-7 3.5t-7-2.5l-20-19q-3-4-3-9t3-9l20-19q3-3 7-3t7 4q7 12 7 27t-7 27z"/></svg>