<svg viewBox="0 0 300 316" xmlns="http://www.w3.org/2000/svg"><path d="M107 185q-19-18-44.5-18.5T18 185Q6 197 2 213t0 32q4 16 17 29l25 23q8 7 19 7t19-7l25-24q18-18 18-44t-18-44zm112-51q8 8 19 8t19-8l25-23q12-12 16-28.5t0-32.5q-4-16-16-28-19-18-44.5-18T193 22q-12 12-16 28.5t0 32.5q4 16 17 28l24 23h1zm81 120q0 21-14.5 35.5T250 304H138q-6 0-9.5-3.5t-3.5-9q0-5.5 3.5-9t8.5-3.5h113q10 0 17.5-7.5T275 254q0-10-7.5-17.5T250 229h-62q-21 0-35.5-14.5T138 179q0-16 9-29t24-18q5-2 9.5.5t6.5 7q2 4.5-.5 9.5t-7.5 6q-7 3-11.5 9.5T163 179q0 10 7 17.5t17 7.5h63q21 0 35.5 14.5T300 254z"/></svg>