<svg viewBox="0 0 300 316" xmlns="http://www.w3.org/2000/svg"><path d="M94 118l56-103q4-6 10.5-9t14.5-.5Q183 8 186 16t-1 16l-53 97-3-3q-15-11-35-8zm100-14q-8 0-13.5 5.5T175 123v50q0 7 5.5 12.5T194 191q8 0 13.5-5.5T213 173v-50q0-8-5.5-13.5T194 104zm50 0q-8 0-13.5 5.5T225 123v50q0 7 5.5 12.5T244 191q8 0 13.5-5.5T263 173v-50q0-8-5.5-13.5T244 104zM88 76l23-40-11-21q-4-6-10.5-9T75 5.5Q67 8 64 16t1 16l23 44zm156 141q-14 0-25-8h-1q-11 7-24 7-18 0-31-12.5T150 173v-6q0 20-15 35l-37 36q-4 3-9 3t-8.5-3.5q-3.5-3.5-3.5-9t4-8.5l37-36q8-8 7-19.5T114 146q-7-5-16.5-4T81 150l-41 40q-15 15-15 36t15 36l20 20q10 11 24 16.5t29 5.5h87q17 0 31.5-8.5t23-23Q263 258 263 242v-30q-9 5-19 5z"/></svg>