<svg viewBox="0 0 300 316" xmlns="http://www.w3.org/2000/svg"><path d="M298 129q-3-4-8-5.5t-9 1.5l-152 92q-54 0-69.5 9T39 251q-5 16 3.5 31.5T67 302q6 2 12 2 11 0 20.5-5t23.5-28q10-14 20-33l151-92q4-2 5.5-7t-1.5-10zM96 8q-5-5-11.5-3.5T76 12q-4 9-8 29t-8 27q-5 11-16 11-4 0-7-7-2-4-5-14l-1-4q-1-4-5.5-4.5T19 52Q11 65 5.5 81T0 110q0 25 13.5 45T49 185q22 10 47 5 22-4 38.5-18.5T158 136q8-24 1-47-5-19-22-39-10-12-31-33L96 8zm5 150q-8 8-19.5 8T63 158q-7-8-6-18t8-17l9-10q3-3 7.5-3t7.5 3l9 10q7 7 8 17t-5 18z"/></svg>