<svg viewBox="0 0 300 316" xmlns="http://www.w3.org/2000/svg"><path d="M291 275q-9 13-23 21t-30 8H63q-17 0-31.5-8.5t-23-23Q0 258 0 241v-32l50-50q5-5 12.5-5t12.5 5l70 70q13 12 30.5 12t29.5-12l7-7q6-5 13.5-5t12.5 5l53 52v1zM262 96l8-22 22-8q4-2 6-5t2-7q0-4-2-7t-6-5l-22-8-8-22q-2-4-5-6t-7-2q-4 0-7 2t-5 6l-8 21-22 9q-3 1-5.5 4t-2.5 7q0 4 2 7.5t6 4.5l22 9 8 22q2 4 5 6t7 2q4 0 7-2t5-6zm38-7v159l-44-44q-13-12-31-12t-30 12l-8 7q-5 6-12 6t-12-6l-70-69q-13-13-30.5-13T32 142L0 174V66q0-16 8.5-30.5t23-23Q46 4 63 4h152l-4 10-12 4q-11 4-17.5 13.5t-6.5 21q0 11.5 6 21T198 88l12 5 5 12q4 11 13.5 17.5T250 129q12 0 21.5-6.5T285 105l5-12 10-4zM113 73q0-8-5.5-13.5T94 54q-8 0-13.5 5.5T75 73q0 8 5.5 13T94 91q8 0 13-5t6-13zm100 62q0-4-3-7.5t-7-4.5l-18-4-4-18q-1-4-4.5-7t-8-3q-4.5 0-7.5 3t-4 7l-5 18-17 4q-4 1-7 4t-3 7.5q0 4.5 2.5 8t6.5 4.5l18 5 5 18q1 4 4.5 6.5t7.5 2.5q4 0 7.5-2.5t4.5-6.5l4-18 18-5q4-1 7-4t3-8z"/></svg>