<svg viewBox="0 0 300 316" xmlns="http://www.w3.org/2000/svg"><path d="M112 254q0 3 1 6 0 13-9.5 22T81 291q-13 0-22-9t-9-22q0-3 1-6h61zm-62-25q-21 0-35.5-14.5T0 179V66q0-20 14.5-34.5T50 17h88q20-1 35 14t15 36v162H50zM38 129q0 5 3.5 9t8.5 4h31v31q0 5 4 8.5t9 3.5q5 0 8.5-3.5t3.5-8.5v-32h32q5 0 8.5-3.5t3.5-8.5q0-5-3.5-9t-8.5-4h-32V85q0-5-3.5-8.5T94 73q-5 0-9 3.5T81 85v31H50q-5 0-8.5 4t-3.5 9zm175 100h37q21 0 35.5-14.5T300 179v-13h-87v63zm-25 25v6q0 13 9 22t22 9.5q13 .5 22-9t9-22.5q0-3-1-6h-61zm50-188h-25v75h87v-12q0-17-8.5-31.5t-23-23Q254 66 238 66z"/></svg>