<svg viewBox="0 0 300 316" xmlns="http://www.w3.org/2000/svg"><path d="M246 222q6 12 2.5 30.5T236 280l-5 6q-9 8-20.5 13t-24.5 5h-73q-12 0-23.5-5T69 286l-5-6q-10-9-13-27.5t2-30.5l2-2q5-9 14.5-13t19.5-2q10 2 17 11t7 21v17q0 5 3.5 9t8.5 4q5 0 9-4t4-9v-75h-38q-5 0-8.5-3.5t-3.5-9q0-5.5 3.5-9t8.5-3.5h38v-25H88q-6 0-9.5-3.5t-3.5-9q0-5.5 3.5-9T88 104h50V79H75q-5 0-8.5-3.5t-3.5-9q0-5.5 3.5-9T75 54h63V29H63q-6 0-9.5-3.5t-3.5-9q0-5.5 3.5-9T63 4h175q5 0 8.5 3.5t3.5 9q0 5.5-3.5 9T238 29h-75v25h62q5 0 9 3.5t4 9q0 5.5-4 9t-9 3.5h-62v25h50q5 0 8.5 3.5t3.5 9q0 5.5-3.5 9T213 129h-50v25h37q5 0 9 3.5t4 9q0 5.5-4 9t-9 3.5h-37v75q0 5 3.5 9t8.5 4q5 0 9-4t4-9v-17q0-12 6.5-21t16.5-11q10-2 19.5 2t14.5 13l1 2z"/></svg>