<svg viewBox="0 0 300 316" xmlns="http://www.w3.org/2000/svg"><path d="M50 4h38q20 0 34.5 14.5T137 54v38q0 20-14.5 35T88 142H50q-21 0-35.5-15T0 92V54q0-21 14.5-35.5T50 4zm0 163h38q20 0 34.5 14.5T137 217v37q0 21-14.5 35.5T88 304H50q-21 0-35.5-14.5T0 254v-37q0-21 14.5-35.5T50 167zm229 76l-29 29V36l29 29q3 4 8.5 4t9-4q3.5-4 3.5-9t-4-9l-32-32Q253 4 237.5 4T211 15l-32 32q-4 4-4 9t3.5 9q3.5 4 9 4t8.5-4l29-29v236l-29-29q-3-4-8.5-4t-9 4q-3.5 4-3.5 9t4 9l32 32q11 11 26.5 11t26.5-11l32-32q4-4 4-9t-3.5-9q-3.5-4-9-4t-8.5 4z"/></svg>