<svg viewBox="0 0 300 316" xmlns="http://www.w3.org/2000/svg"><path d="M238 304H63q-17 0-31.5-8.5t-23-23Q0 258 0 241v-37q0-15 11-26.5T38 166h37q10 0 17.5 7.5t7.5 18 7.5 18Q115 217 125 217h50q10 0 17.5-7.5t7.5-18 7.5-18Q215 166 225 166h38q15 0 26 11.5t11 26.5v37q0 17-8.5 31.5t-23 23Q254 304 238 304zm0-163H63q-17 0-31.5-8t-23-22.5Q0 96 0 79V41q0-15 11-26T38 4h37q10 0 17.5 7.5T100 29t7.5 17.5Q115 54 125 54h50q10 0 17.5-7.5T200 29t7.5-17.5Q215 4 225 4h38q15 0 26 11t11 26v38q0 17-8.5 31.5t-23 22.5q-14.5 8-30.5 8z"/></svg>