<svg viewBox="0 0 300 316" xmlns="http://www.w3.org/2000/svg"><path d="M225 229q0 8-5.5 13.5T206 248q-8 0-13-5.5t-5-13.5q0-8 5-13.5t13-5.5q8 0 13.5 5.5T225 229zm75-75v87q0 17-8.5 31.5t-23 23Q254 304 238 304H63q-17 0-31.5-8.5t-23-23Q0 258 0 241v-87h300zM125 254q0-5-3.5-9t-9.5-4H63q-6 0-9.5 4t-3.5 9q0 5 3.5 8.5T63 267h50q5-1 8.5-4.5t3.5-8.5zm0-50q0-5-3.5-8.5T112 192H63q-6-1-9.5 3t-3.5 9q0 5 3.5 8.5T63 216h50q5 1 8.5-3t3.5-9zm125 25q0-18-13-31t-31-13q-18 0-30.5 13T163 229q0 18 12.5 31t30.5 13q18 0 31-13t13-31zm49-100q-5-22-22-36t-39-14H126l141-51q5-1 7-6t.5-10Q273 7 268 5t-10 0L43 82q-16 5-27 17.5T1 129h298z"/></svg>