<svg viewBox="0 0 300 316" xmlns="http://www.w3.org/2000/svg"><path d="M288 304H13q-6 0-9.5-3.5t-3.5-9q0-5.5 3.5-9T12 279h51q2-10 6-20l-44-26q-7-3-7-10.5t6.5-11Q31 208 37 212l44 25q7-8 15-14l-26-44q-2-5-.5-9.5t5.5-7q4-2.5 9-1.5t8 5l25 44q10-4 21-5v-51q0-5 3.5-9t8.5-4q5 0 9 4t4 9v51q10 1 20 5l25-44q3-4 8-5.5t9 1.5q4 3 5.5 7.5t-.5 9.5l-26 44q8 6 15 14l44-25q4-3 9-1.5t7.5 6q2.5 4.5 1 9.5t-5.5 7l-44 26q4 10 6 20h51q5 0 8.5 3.5t3.5 9q0 5.5-3.5 9T288 304zM196 45L159 8q-4-4-9-4t-9 4l-37 37q-4 4-4 9t3.5 8.5q3.5 3.5 9 3.5t8.5-3l17-16v57q0 5 3.5 9t8.5 3.5q5-.5 9-4t4-8.5V47l16 16q3 3 8 3t9-3.5q4-3.5 4-8.5t-4-9z"/></svg>