<svg viewBox="0 0 300 316" xmlns="http://www.w3.org/2000/svg"><path d="M300 173q0-29-14.5-53.5T247 81q-24-14-53-14h-31q-1-13-7.5-22.5T137 31V16q1-5-3-8.5T125 4q-5 0-9 3.5t-4 9.5v14q-11 4-17.5 13.5T88 66v100q0 6 3.5 9.5t8.5 3.5h50q5 0 9-3.5t4-8.5V91h31q22 0 40.5 11t29.5 30q11 19 11 41t-11 40.5Q253 232 234.5 243T194 254h-56v-25h50q5 0 8.5-3.5t3.5-9q0-5.5-3.5-9T188 204H63q-6 0-9.5 3.5t-3.5 9q0 5.5 3.5 9T63 229h50v25H25q-5 0-8.5 3.5t-3.5 9q0 5.5 3.5 9T25 279h13v12q0 6 3.5 9.5T50 304q5 0 9-3.5t3-9.5v-12h126v12q-1 6 3 9.5t9 3.5q5 0 9-3.5t4-9.5v-14q24-4 44-19t31.5-37.5Q300 198 300 173z"/></svg>