<svg viewBox="0 0 300 316" xmlns="http://www.w3.org/2000/svg"><path d="M13 244q14 0 24 10 2 0 3-1 5-14 19-20.5t29-1.5v-2q0-17 8.5-32t23.5-23l9-4 12-3 9-1q6 0 12 1l1 1q5 1 10 3l2 1q5 2 9 5h2q4 3 8 7l1 1 6 8 1 2q3 4 5 9l1 1q2 5 3 11v1l2 12v2q14-5 28 1.5t19 20.5q1 1 3 1 10-9 24-10 7 0 13 3v-95q0-10-7-17L187 20Q173 5 152 4t-36 13L7 135q-7 7-7 17v95q6-2 12-3h1zm102 9q4-11 13.5-17.5T150 229q12 0 21.5 6.5T185 253l3 1v-25q0-16-11-27t-27-11q-16 0-26.5 11T113 229v25q1 0 2-1zm148 51q-22 0-38-15-16 15-37.5 15T150 289q-16 15-37.5 15T75 289q-15 14-35 14.5T4 291q-5-5-3.5-12t8-9q6.5-2 12.5 3 10 8 23.5 5T63 262q2-3 5-5.5t7-2.5q4 0 7 2.5t5 5.5q3 8 10 12.5t15.5 4.5q8.5 0 15.5-4.5t10-12.5q2-3 5-5.5t7-2.5q4 0 7 2.5t5 5.5q3 8 10 12.5t15.5 4.5q8.5 0 15.5-4.5t10-12.5q2-3 5-5.5t7-2.5q4 0 7 2.5t5 5.5q5 13 18.5 16t23.5-5q4-4 9-3.5t8.5 4.5q3.5 4 3.5 9t-4 8q-14 13-34 13h1z"/></svg>