<svg viewBox="0 0 300 316" xmlns="http://www.w3.org/2000/svg"><path d="M73 121l-1 1-10 43h22l-10-43q0-1-1 0v-1zm165-67h-75v200h75q16 0 30.5-8.5t23-23Q300 208 300 192v-76q0-16-8.5-30.5t-23-23Q254 54 238 54zm37 70q0 4-2.5 6t-5.5 2h-4q-1 13-6 25.5T243 180q11 7 25 8 3 1 5 3t2 5q0 4-2.5 6t-6.5 2q-19-2-35-13-15 11-35 13-3 0-5.5-2t-2.5-6q0-3 2-5t5-3q13-1 24-7-6-7-10-16-2-4 0-7.5t7-3.5q5 0 7 4 3 7 8 13 14-16 17-39h-53q-3 0-5-2t-2-6q0-3 2-5t5-2h28v-5q0-3 2.5-5.5t5.5-2.5q4 0 6 2.5t2 5.5v4h28q4 0 6 2.5t2 5.5zM138 54H63q-17 0-31.5 8.5t-23 23Q0 100 0 117v74q0 17 8.5 31.5t23 23Q46 254 63 254h75V54zm-38 150q-3 0-5.5-2t-2.5-5l-4-14H58l-3 14q-1 3-3.5 5t-6 2q-3.5 0-6-3.5T38 193l17-75q2-8 10-12t16-.5q8 3.5 11 13.5l17 74q1 4-2 7.5t-7 3.5z"/></svg>