<svg viewBox="0 0 300 316" xmlns="http://www.w3.org/2000/svg"><path d="M150 166q0 11-10 19.5T112.5 199Q95 204 75 204t-37.5-5Q20 194 10 185.5t-10-19q0-10.5 10-19T37.5 134q17.5-5 37.5-5t37.5 5q17.5 5 27.5 13.5t10 19.5v-1zm0 69v25q0 13-10 23t-27 15.5Q96 304 75 304t-38-5.5Q20 293 10 283T0 260v-25q0 19 21 31.5T75 279q33 0 54-12.5t21-31.5zm0-50v25q0 13-10 23t-27 15.5Q96 254 75 254t-38-5.5Q20 243 10 233T0 210v-25q0 19 21 31.5T75 229q33 0 54-12.5t21-31.5zm75-106H125v25h100V79zm13-75H113q-17 0-31.5 8.5t-23 23Q50 50 50 67v39q12-2 25-2t25 2V79q0-10 7.5-17.5T125 54h100q10 0 17.5 7.5T250 79v25q0 10-7.5 17.5T225 129h-68q12 11 16 25h14q6 0 9.5 3.5t3.5 9.5v12q0 5-3.5 8.5T187 191h-12v25h62q6 1 9.5 4.5t3.5 8.5q0 5-3.5 8.5T237 241h-62v19q0 26-21 44h83q17 0 31.5-8.5t23-23Q300 258 300 241V66q0-16-8.5-30.5t-23-23Q254 4 237 4h1zm12 175q0 5-3.5 8.5t-9 4q-5.5.5-9-3.5t-3.5-9v-13q0-5 3.5-8.5t9-3.5q5.5 0 9 3.5t3.5 9.5v12z"/></svg>