<svg viewBox="0 0 300 316" xmlns="http://www.w3.org/2000/svg"><path d="M0 241q0 17 8.5 31.5t23 23Q46 304 63 304h175q16 0 30.5-8.5t23-23Q300 258 300 241V129H0v112zm105-41h28l8-29q0-3 3-5t6.5-2q3.5 0 6 2t3.5 5l8 29h28q4 0 6.5 2.5t2.5 5.5q0 7-7 11l-20 11 9 24q1 3 0 6.5t-4 5.5q-3 3-6.5 3t-6.5-3l-20-15-19 15q-3 3-6.5 3t-6.5-3q-3-2-4-5.5t0-6.5l8-24-19-11q-7-4-7-11 0-3 2.5-5.5t6.5-2.5zM300 91v13H0V91q0-16 8.5-30.5t23-23Q46 29 63 29h12V16q0-5 3.5-8.5t9-3.5q5.5 0 9 3.5T100 17v12h100V16q0-5 3.5-8.5t9-3.5q5.5 0 9 3.5T225 17v12h13q16 0 30.5 8.5t23 23Q300 75 300 92v-1z"/></svg>