<svg viewBox="0 0 300 316" xmlns="http://www.w3.org/2000/svg"><path d="M150 66q-21 0-40 10 5-35 16-53.5T150 4q13 0 24 18.5T190 76q-19-10-40-9v-1zm0 25q-13 1-24.5 5.5T105 110q-5 43-5 81v100q0 6 3.5 9.5t9 3.5q5.5 0 9-3.5t3.5-8.5v-13h50v12q0 6 3.5 9.5t9 3.5q5.5 0 9-3.5t3.5-8.5V191q0-38-5-81-9-9-20.5-13.5T150 92v-1zm138-12q-6 0-9.5 3.5T275 91v88h-50v118l50-68v25q0 5 3.5 8.5t9 3.5q5.5 0 9-3.5t3.5-8.5V91q0-5-3.5-8.5T288 79zM25 91q0-5-3.5-8.5t-9-3.5q-5.5 0-9 3.5T0 91v163q0 5 3.5 8.5t9 3.5q5.5 0 9-3.5T25 254v-25l50 68V179H25V91z"/></svg>