<svg viewBox="0 0 300 316" xmlns="http://www.w3.org/2000/svg"><path d="M113 4H63q-17 0-31.5 8.5t-23 23Q0 50 0 67v174q0 17 8.5 31.5t23 23Q46 304 62 304h113V66q0-16-8.5-30.5t-23-23Q129 4 112 4h1zM63 241H50q-5 0-8.5-3.5T38 229q0-5 3.5-8.5T50 217h13q5-1 8.5 3t3.5 9q0 5-3.5 8.5T62 241h1zm0-50H50q-5 1-8.5-3t-3.5-9q0-5 3.5-9t8.5-4h13q5 0 8.5 4t3.5 9q0 5-3.5 8.5T62 191h1zm0-50H50q-5 0-8.5-3.5T38 129q0-5 3.5-9t8.5-4h13q5 1 8.5 4.5T75 129q0 5-3.5 9t-9.5 4l1-1zm0-50H50q-5 0-8.5-3.5T38 79q0-5 3.5-9t8.5-4h13q5 1 8.5 4.5T75 79q0 5-3.5 9T62 92l1-1zm62 150h-12q-6 0-9.5-3.5T100 229q0-5 3.5-8.5t9.5-3.5h12q5-1 9 3t4 9q0 5-4 8.5t-9 3.5zm0-50h-12q-6 1-9.5-3t-3.5-9q0-5 3.5-9t9.5-4h12q5 0 9 4t4 9q0 5-4 8.5t-9 3.5zm0-50h-12q-6 0-9.5-3.5T100 129q0-5 3.5-9t9.5-4h12q5 0 9 4t4 9q0 5-4 9t-9 4v-1zm0-50h-12q-6 0-9.5-3.5T100 79q0-5 3.5-9t9.5-4h12q5 1 9 4.5t4 8.5q0 5-4 9t-9 4v-1zm113-25h-38v238h38q16 0 30.5-8.5t23-23Q300 258 300 242V129q0-17-8.5-31.5t-23-22.5Q254 67 237 67l1-1zm12 175q-5 0-9-3.5t-4-8.5q0-5 4-8.5t9-4q5-.5 9 3.5t4 9q0 5-4 8.5t-9 3.5zm0-50q-5 0-8.5-3.5t-4-8.5q-.5-5 3.5-9t9-3.5q5 .5 9 4t4 8.5q0 5-4 8.5t-9 3.5zm0-50q-5 0-9-3.5t-4-8.5q0-5 4-9t9-4q5 0 9 4t4 9q0 5-4 9t-9 4v-1z"/></svg>