<svg viewBox="0 0 300 316" xmlns="http://www.w3.org/2000/svg"><path d="M200 4H100q-17 0-31.5 8.5t-23 23Q37 50 38 67v174q0 17 8 31.5t22.5 23Q83 304 100 304h13q5 0 8.5-3.5t3.5-9.5v-62h-12q-6 0-9.5-3.5t-3.5-9q0-5.5 3.5-9t8.5-3.5h76q5 0 8.5 3.5t3.5 9q0 5.5-3.5 9T187 229h-12v62q0 6 3.5 9.5t9.5 3.5h12q17 0 31.5-8.5t23-23Q263 258 262 241V66q1-16-7.5-30.5t-23-23Q217 4 200 4zm-75 175h-12q-6 0-9.5-3.5t-3.5-9q0-5.5 3.5-9t8.5-3.5h13q5 0 8.5 3.5t4 9q.5 5.5-3.5 9t-9 3.5zm0-50h-12q-6 0-9.5-3.5t-3.5-9q0-5.5 3.5-9t8.5-3.5h13q5 0 8.5 3.5t4 9q.5 5.5-3.5 9t-9 3.5zm0-50h-12q-6 0-9.5-3.5t-3.5-9q0-5.5 3.5-9T112 54h13q5 0 8.5 3.5t4 9q.5 5.5-3.5 9t-9 3.5zm63 100h-13q-5 0-8.5-3.5t-3.5-9q0-5.5 3.5-9t8.5-3.5h13q5 0 8.5 3.5t3.5 9q0 5.5-3.5 9T187 179h1zm0-50h-13q-5 0-8.5-3.5t-3.5-9q0-5.5 3.5-9t8.5-3.5h13q5 0 8.5 3.5t3.5 9q0 5.5-3.5 9T187 129h1zm0-50h-13q-5 0-8.5-3.5t-3.5-9q0-5.5 3.5-9T175 54h13q5 0 8.5 3.5t3.5 9q0 5.5-3.5 9T187 79h1z"/></svg>