<svg viewBox="0 0 300 316" xmlns="http://www.w3.org/2000/svg"><path d="M113 104q-21 0-35.5 14.5T63 154q0 21 14.5 35.5t35 14.5q20.5 0 35.5-14.5t15-35.5q0-21-15-35.5T112 104h1zm0 69q-8 0-13.5-5.5T94 154q0-8 5.5-13.5t13-5.5q7.5 0 13 5.5T131 154q0 8-5.5 13.5T112 173h1zM238 29H63q-17 0-31.5 8.5t-23 23Q0 75 0 92v124q0 17 8.5 31.5t23 23Q46 279 63 279h175q16 0 30.5-8.5t23-23Q300 233 300 217V91q0-16-8.5-30.5t-23-23Q254 29 238 29zM113 229q-21 0-38-10t-27.5-27.5Q37 174 37.5 154T48 116.5Q58 99 75 89t37.5-10Q133 79 150 89t27.5 27.5Q188 134 188 154t-10.5 37.5Q167 209 150 219t-37 10zm137-67q0 13-5 25l-15 34q-1 4-4.5 6t-6.5 2q-3 0-5-1-5-2-7-7t0-9l15-35q3-7 3-15V91q0-5 3.5-8.5t9-3.5q5.5 0 9 3.5T250 91v71z"/></svg>