<svg viewBox="0 0 300 316" xmlns="http://www.w3.org/2000/svg"><path d="M300 198q0 22-11 40.5T259.5 268Q241 279 219 279h-63q-22 0-40.5-11T86 238.5Q75 220 75 198t11-41q11-19 29.5-30t40.5-11q5 0 9 4t4 9q0 5-4 8.5t-9 4.5q-23-1-39.5 15.5t-16.5 40q0 23.5 16.5 40T156 254h63q23 0 39.5-16.5T275 198q0-13-5.5-24.5T255 154q-4-3-4.5-8t2.5-9q3-4 8-4.5t9 2.5q15 12 22.5 28t7.5 35zM45 154q-9-8-14.5-19.5T25 110q0-23 16.5-39.5T81 54h63q23 0 39.5 16.5t16.5 40q0 23.5-16.5 39.5T144 166q-5 0-9 4t-4 9q0 5 4 9t9 4q22-1 40.5-11.5T214 151q11-19 11-41t-11-40.5Q203 51 184.5 40T144 29H81q-22 0-40.5 11T11 69.5Q0 88 0 110q0 18 7.5 34.5T30 173q3 3 8 3t8.5-4.5q3.5-4.5 3-9.5t-4.5-8z"/></svg>