<svg viewBox="0 0 300 316" xmlns="http://www.w3.org/2000/svg"><path d="M260 154q22-13 27-36 4-20-7-39t-30-26q-22-7-45 6-1-26-18-41-15-14-37-14t-37 14Q96 33 95 59q-23-13-44-6-20 7-31 26t-7 39q5 22 27 35-22 14-26.5 35t6.5 39.5q11 18.5 31.5 26T95 249q1 26 18 41 15 14 37 14t37-14q17-15 18-41 23 12 43.5 4.5t31.5-26q11-18.5 6.5-39.5T260 154zm-110 50q-21 0-35.5-14.5T100 154q0-21 14.5-35.5T150 104q21 0 35.5 14.5T200 154q0 21-14.5 35.5T150 204zm25-50q0 10-7.5 17.5T150 179q-10 0-17.5-7.5T125 154q0-10 7.5-17.5T150 129q10 0 17.5 7.5T175 154z"/></svg>