<svg viewBox="0 0 300 316" xmlns="http://www.w3.org/2000/svg"><path d="M300 291q0 6-3.5 9.5T288 304H13q-6 0-9.5-3.5t-3.5-9q0-5.5 3.5-9T13 279h275q5 0 8.5 3.5t3.5 9.5v-1zM38 229v-75H25q-5 0-8.5-3.5t-3.5-9q0-5.5 3.5-9T25 129h13q3-26 17-47.5t35.5-35Q112 33 138 30V16q0-5 3.5-8.5T150 4q5 0 9 3.5t4 9.5v13q25 3 46.5 16.5t35.5 35q14 21.5 17 47.5h13q5 0 9 3.5t4 9q0 5.5-4 9t-9 3.5h-12v75h12q5 0 9 3.5t4 9q0 5.5-4 9t-9 3.5H25q-5 0-8.5-3.5t-3.5-9q0-5.5 3.5-9T25 229h13zm87-75v75h50v-75h-50zm113 75v-75h-38v75h38zm-175 0h37v-75H63v75z"/></svg>