<svg viewBox="0 0 300 316" xmlns="http://www.w3.org/2000/svg"><path d="M0 166q0 31 12 59.5T47 275q18 17 42 16h122q12 1 23.5-4t20.5-13q24-24 35.5-55t9-64q-2.5-33-19-62.5T237 44q-27-19-60-25t-65.5 2.5q-32.5 8.5-58 30T14 103Q0 133 0 166zm64 24l61-26q1-9 7-15t14.5-7q8.5-1 16 3t10.5 11.5q3 7.5 1 16t-8.5 13.5q-6.5 5-15 5.5T135 187l-61 26q-5 2-9.5 0t-6.5-6.5q-2-4.5-.5-9.5t6.5-7zm-26-37q5-39 32-66 22-22 51-29.5t58 0Q208 65 229.5 87t29 50.5q7.5 28.5 0 57.5T230 246l-6 5q-3 3-8.5 3t-9-4q-3.5-4-3-9t4.5-9l4-4q17-16 22.5-38.5t0-45.5q-5.5-23-22.5-39.5T172.5 82q-22.5-6-45 0T88 105q-21 21-25 51-1 7-7.5 9.5T43 164q-6-4-5-11z"/></svg>