<svg viewBox="0 0 300 316" xmlns="http://www.w3.org/2000/svg"><path d="M300 54q0 18-16 34-4 4-9 4t-9-4q-4-4-4-9t4-9q9-9 9-16 0-13-11-21-6-4-14-4t-14.5 4.5q-6.5 4.5-9 12.5t-.5 16q4 12 1 24t-12 21l-15 15 13 13q12 12 12 28.5T213 192q-12 12-28.5 12T156 192l-13-13-18 18 13 13q12 12 12 28.5T138.5 267Q127 279 110 279t-29-12l-13-13-47 46q-3 4-8.5 4t-9-3.5Q0 297 0 291.5t4-8.5l46-47-13-13q-12-12-12-28.5T37 166q12-12 28.5-12T94 166l13 13 18-18-13-13q-12-12-12-28.5T111.5 91Q123 79 140 79t29 12l13 13 15-15q4-4 5.5-9.5T202 69q-5-16 .5-31.5T221 13q13-9 29-9t28 9q11 7 16.5 18t5.5 23z"/></svg>