<svg viewBox="0 0 300 316" xmlns="http://www.w3.org/2000/svg"><path d="M276 52l-58-38Q204 4 187.5 4T157 14L99 52q-11 8-17.5 20T75 98v22q0 3 2 6.5t6 4.5q30 14 53.5 37t36.5 54q1 3 4.5 5t6.5 2h65q21 0 36-15t15-36V98q0-14-6.5-26T276 52zm-63 102q0 5-4 8.5t-9 3.5h-25q-5 0-8.5-3.5T163 154v-25q0-5 3.5-8.5t8.5-3.5h25q5-1 8.5 3t3.5 9v25h1zM19 266q8 0 13 5.5t5.5 13.5q.5 8-5 13.5T19 304q-8 0-13.5-5.5T0 285q0-8 5.5-13t13.5-5v-1zm69 38q-6 0-9.5-3.5T75 291q0-16-8.5-30.5t-23-23Q29 229 13 229q-6 0-9.5-3.5t-3.5-9q0-5.5 3.5-9T13 204q23 0 43 12t32 32q12 20 12 43 0 6-3.5 9.5T87 304h1zm62 0q-5 0-9-3.5t-4-9.5q1-33-16-62t-46-46q-29-17-62-17-6 1-9.5-3T0 154q0-5 3.5-9t9.5-4q40 1 74.5 21t54.5 54.5q20 34.5 20 75.5 1 5-3 8.5t-9 3.5z"/></svg>