<svg viewBox="0 0 300 316" xmlns="http://www.w3.org/2000/svg"><path d="M256 66h-18q-1-15-11.5-26T200 29h-75v45l14 14q11 11 11 26v21q0 13-9 22t-22 9h-13q-13 0-22-9t-9-22v-21q0-15 11-26l14-14V29H63q-16 0-27 11T25 67v99q0 17 8.5 31.5t23 23Q71 229 87 229h88q22 0 39.5-14t21.5-36h20q18 0 31-13t13-31v-25q0-18-13-31t-31-13zm19 69q0 8-5.5 13.5T256 154h-18V91h18q8 0 13.5 5.5T275 110v25zm-175-21q0-5 4-8l9-9 8 9q4 3 4 8v21q0 3-2 4.5t-4 1.5h-13q-2 0-4-1.5t-2-4.5v-21zm163 152q0 6-4 9.5t-9 3.5H13q-6 0-9.5-3.5t-3.5-9q0-5.5 3.5-9T13 254h237q5 0 9 3.5t4 9.5v-1z"/></svg>