<svg viewBox="0 0 300 316" xmlns="http://www.w3.org/2000/svg"><path d="M150 4q-41 0-75.5 20T20 78.5Q0 113 0 154q2 57 33 95 29 35 73 47.5t88 0q44-12.5 73-47.5 31-38 33-95 0-41-20-75.5T225.5 24Q191 4 150 4zM63 104q0-5 3.5-9t8.5-4q19 0 31 9 10 7 15 18 4 9 4 16t-4 12.5q-4 5.5-10 7t-12-1q-6-2.5-9-8t-2-12q1-6.5 5-10.5-8-6-18-6-5 0-8.5-3.5T63 104zm159 121q-4 4-9 4t-9-3q-15-14-34.5-19t-39 0Q111 212 96 226q-4 3-9 3t-8.5-4q-3.5-4-3.5-9t4-9q20-18 45.5-24.5t51 0Q201 189 221 207q4 4 4 9t-3 9zm3-109q-10 0-18 6 4 4 5 10.5t-2 12q-3 5.5-9 8t-12 1q-6-1.5-10-7t-4-12.5q0-7 4-16 5-11 15-18 12-9 31-9 5 0 9 4t3.5 9q-.5 5-4 9t-8.5 4v-1z"/></svg>