<svg viewBox="0 0 300 316" xmlns="http://www.w3.org/2000/svg"><path d="M156 235q0 8-5.5 13.5t-13 5.5q-7.5 0-13-5.5T119 235q0-8 5.5-13.5t13-5.5q7.5 0 13 5.5T156 235zm-6-56V66q0-5-3.5-8.5t-9-3.5q-5.5 0-9 3.5T125 66v113q0 5 3.5 9t9 3.5q5.5-.5 9-4t3.5-8.5zm-50 62V66q0-5-3.5-8.5T87 54H63q-17 0-31.5 8.5t-23 23Q0 100 0 117v74q0 17 8.5 31.5t23 23Q46 254 63 254h25q5 0 8.5-3.5t3.5-9.5zm200-125v75q0 6-3.5 9.5T287 204h-13q-5 22-22 36t-40 14h-24q-6 0-9.5-3.5T175 241V66q0-5 3.5-8.5T187 54h26q22 0 39 14t22 36h14q5 0 8.5 3.5t3.5 9.5v-1z"/></svg>