<svg viewBox="0 0 300 316" xmlns="http://www.w3.org/2000/svg"><path d="M225 279q0 5-3.5 8.5T212 291H63q-17 1-31.5-7.5t-23-23Q0 246 0 229v-97q0-11 4.5-20.5T17 95q2-3 6-3.5t7 1q3 1.5 5 4.5t2 7v81q1 22 11.5 41T78 255.5Q97 266 119 266h94q5 0 8.5 4t3.5 9zm75-206v112q0 24-16.5 40T244 241H119q-24 0-40-16t-16-40V73q0-24 16-40.5T119 16h125q23 0 39.5 16.5T300 73zm-25 93v-25h-25v25h25zm-25-50h25V91h-25v25zm0-74v24h24q-1-9-8-15.5T250 42zM88 91v25h25V91H88zm0 75h25v-25H88v25zm0-100h25V42q-10 2-16.5 8.5T88 66zm25 150v-25H88q2 10 8.5 16.5T113 216zm161-25h-24v25q9-2 15.5-8.5T274 192v-1z"/></svg>