<svg viewBox="0 0 300 316" xmlns="http://www.w3.org/2000/svg"><path d="M63 229q-6 0-9.5-3.5T50 217V91q0-5 3.5-8.5t9-3.5q5.5 0 9 3.5T75 92v124q0 6-3.5 9.5T62 229h1zm62-13V91q0-5-3.5-8.5t-9-3.5q-5.5 0-9 3.5T100 92v124q0 6 3.5 9.5t9 3.5q5.5 0 9-3.5t3.5-8.5v-1zm125 0V91q0-5-3.5-8.5t-9-3.5q-5.5 0-9 3.5T225 92v124q0 6 3.5 9.5t9 3.5q5.5 0 9-3.5t3.5-8.5v-1zm-75-6V98q0-8-5.5-13.5T156 79q-8 0-13.5 5.5T137 98v112q1 8 6 13.5t13 5.5q8 0 13.5-5.5T175 210zm-87 56q0-5-4-8.5t-9-3.5H50q-10 0-17.5-7.5T25 229v-25q0-5-3.5-8.5t-9-4q-5.5-.5-9 3.5T0 204v25q0 21 14.5 35.5T50 279h25q5 0 9-3.5t4-9.5zm212-37v-25q0-5-3.5-8.5t-9-4q-5.5-.5-9 3.5t-3.5 9v25q0 10-7.5 17.5T250 254h-25q-5 0-9 3.5t-3.5 9q.5 5.5 4 9t8.5 3.5h25q21 0 35.5-14.5T300 229zm0-125V79q0-21-14.5-35.5T250 29h-25q-5 0-9 3.5t-3.5 9q.5 5.5 4 9T225 54h25q10 0 17.5 7.5T275 79v25q0 5 3.5 8.5t9 3.5q5.5 0 9-3.5t3.5-8.5zm-275 0V79q0-10 7.5-17.5T50 54h25q5 0 9-3.5t4-9q0-5.5-4-9T75 29H50q-21 0-35.5 14.5T0 79v25q0 5 3.5 8.5t9 3.5q5.5 0 9-3.5T25 104zm169-25q2 0 4 2t2 4v138q0 2-2 4t-4 2q-3 0-5-2t-2-4V85q1-2 2.5-4t4.5-2zm0 0q-3 0-5 2t-2 4v138q1 2 2.5 4t4 2q2.5 0 4.5-2t2-4V85q0-2-2-4t-4-2z"/></svg>