<svg viewBox="0 0 300 316" xmlns="http://www.w3.org/2000/svg"><path d="M125 154h88q5 0 8.5 3.5t3.5 9q0 5.5-3.5 9T212 179h-87q-5 0-8.5-3.5t-4-9q-.5-5.5 3.5-9t9-3.5zm-12 75q-1 5 3 9t9 3h125q5 0 9-3.5t4-8.5q0-5-4-9t-9-4H125q-5 0-8.5 4t-3.5 9zm12-113h50q5 0 8.5-3.5t3.5-8.5q0-5-3.5-9t-8.5-4h-50q-5 0-8.5 4t-4 9q-.5 5 3.5 9t9 4v-1zm163 163H125q-5 0-8.5 3.5t-3.5 9q0 5.5 3.5 9t8.5 3.5h163q5 0 8.5-3.5t3.5-9q0-5.5-3.5-9T287 279h1zM114 45L80 11q-7-7-17.5-7T45 11L11 45q-4 4-4 9t4 9q4 4 9 4t9-4l21-22v250q0 6 3.5 9.5t9 3.5q5.5 0 9-3.5T75 291V41l21 22q4 3 9 3.5t9-3.5q4-4 4-9t-4-9z"/></svg>