<svg viewBox="0 0 300.0019 316" xmlns="http://www.w3.org/2000/svg"><path d="M13.002 191l-.5.5.5-.5zm100 25h-100q-6 0-9.5 4t-3.5 9q0 5 3.5 8.5t9.5 3.5h100q5 0 8.5-3.5t3.5-8.5q0-5-3.5-9t-8.5-4zm79-131q3 6 11 6 3 0 6.5-2t5-7q1.5-5-1.5-9-7-12-17-22-4-3-9-3t-8.5 4q-3.5 4-3.5 9t4 9q7 6 13 15zm108 144v25q0 21-14.5 35.5t-35.5 14.5h-50q-21 0-35.5-14.5t-14.5-35.5v-25q0-14 7-25t18-18v-20q0-20 14.5-35t35.5-15q21 0 35.5 15t14.5 35v20q11 7 18 18t7 25zm-56 12q0-7-5.5-12.5t-13.5-5.5q-8 0-13.5 5.5t-5.5 13q0 7.5 5.5 13t13.5 5.5q8 0 13.5-5.5t5.5-13.5zm6-75q0-10-7.5-17.5t-17.5-7.5q-10 0-17.5 7.5t-7.5 17.5v13h50v-13zm-213-15q-17-21-27-48t-10-48.5q0-21.5 14.5-36T50.002 4q21 0 35.5 14.5t14.5 36q0 21.5-8 47.5-8 28-23 49 17 15 31 15 11 0 20-3-9-11-14.5-23.5t-5.5-23.5q0-15 11-26t26.5-11q15.5 0 26.5 11t11 27q0 16-8.5 33.5t-24.5 28.5q-18 12-42 12t-47-21q-9 9-17 13-10 6-24 8-4 0-7.5-2.5t-4.5-7q-1-4.5 2-9t8-5.5q14-3 27-15v-1zm88-35q0 7 4 15.5t10 15.5q6-7 8.5-15.5t2.5-14.5q0-6-3.5-9.5t-9-3.5q-5.5 0-9 3.5t-3.5 8.5zm-72 15q10-17 16-38t6-39q0-10-7.5-17.5t-17.5-7.5q-10 0-17.5 7.5t-7.5 17.5q0 17 7.5 38t20.5 39z"/></svg>