<svg viewBox="0 0 300 316" xmlns="http://www.w3.org/2000/svg"><path d="M75 304h27q8 0 15-5.5t9-13.5 9-13.5q7-5.5 15-5.5t15 5.5q7 5.5 9 13.5t9 13.5q7 5.5 15 5.5h27q16 0 27-11t11-27v-50h-50q-6 0-9.5-3.5T200 204q0-5 3.5-8.5t8.5-3.5h51V66q-1-16-9-30.5t-22.5-23Q217 4 200 4h-2q-8 0-15 5.5T174 23t-9 13.5q-7 5.5-15 5.5t-15-5.5q-7-5.5-9-13.5t-9-13.5Q110 4 102 4h-2q-17 0-31.5 8.5T46 35.5Q38 50 37 66v125h51q5 1 8.5 4.5t3.5 8.5q0 5-3.5 8.5T87 216H38v50q0 16 10.5 27T75 304zm63-113h25q5 0 8.5 4t3.5 9q0 5-3.5 8.5T163 216h-25q-6 0-9.5-3.5T125 204q0-5 3.5-8.5t9.5-3.5v-1z"/></svg>