<svg viewBox="0 0 300 316" xmlns="http://www.w3.org/2000/svg"><path d="M238 229h56q-6 18-20 31l-18 18q-13 14-31 20v-57q0-5 3.5-8.5t9.5-3.5zM126 69h-10v21h10q6 0 9.5-5t0-10.5Q132 69 126 69zm174-3v138h-62q-16 0-27 11t-11 26v63H63q-17 0-31.5-8.5t-23-23Q0 258 0 241V66q0-16 8.5-30.5t23-23Q46 4 62 4h176q16 0 30.5 8.5t23 23Q300 50 300 66zM88 61q0-3-2.5-5.5t-6-2.5q-3.5 0-6 2.5T71 61v42q0 4-2.5 7t-7.5 2.5q-5-.5-7.5-5t-7.5-5q-5-.5-7.5 3.5t-.5 8q4 7 10 11t14 4q10 0 17.5-7.5T88 103V61zm65 19q0-11-8-19t-19-8h-13q-6 0-9.5 3.5T100 66v55q0 3 2.5 5.5t5.5 2.5q3 0 5.5-2.5t2.5-5.5v-15h10q11 0 19-7.5t8-18.5zm60 20q-1-4-3.5-6.5T203 91h-9q-3 0-5 1.5t-1.5 4q.5 2.5 2 4.5t4.5 2h3v1q0 4-3 6.5t-6.5 2.5q-3.5 0-6.5-2.5t-3-6.5V78q0-4 3-6.5t7.5-2.5q4.5 0 7 4.5t7 4.5q4.5 0 7-3.5t.5-7.5q-4-7-10-10.5T188 53q-11 0-18 7.5T162 78v26q1 11 8 18t18 7q10 0 17-7.5t8-17.5v-4z"/></svg>