<svg viewBox="0 0 300 316" xmlns="http://www.w3.org/2000/svg"><path d="M200 291q0-3 2-6.5t5.5-4.5q3.5-1 7.5-.5t6.5 3q2.5 2.5 3 6.5t-.5 7.5q-1 3.5-4.5 5.5t-8 2q-4.5 0-8-3.5T200 292v-1zm57-26q3-4 3-9t-3-9q-12-12-28.5-16t-32.5 0q-16 4-28 16-3 4-3 9t3.5 8.5q3.5 3.5 8.5 4t9-3.5q11-11 26.5-11t26.5 11q4 4 9 4t9-4zm35-35q4-4 4-9t-4-9q-22-22-50.5-29.5t-57.5 0q-29 7.5-51 29.5-4 4-4 9t4 8.5q4 3.5 9 3.5t9-3q16-17 39-23t45.5 0q22.5 6 38.5 23 4 3 9 3t9-3zm-177 17q-11-11-11-26.5t11-26.5q25-24 58-34t66.5-3.5Q273 163 300 185q-2-31-21.5-55.5T229 96q-7-2-9-9-10-33-38-52.5T119.5 17Q85 19 59 41.5T27 97q-3 17-.5 33.5T37 162q-20 10-30 29.5T1 233q5 25 24.5 41.5T71 291h89l-45-44z"/></svg>