<svg viewBox="0 0 300 316" xmlns="http://www.w3.org/2000/svg"><path d="M300 291q0 6-3.5 9.5T288 304H13q-6 0-9.5-3.5T0 291q0-15 11-26t27-11h225q15 0 26 11t11 26zM278 82l18-19q4-4 4-9t-3.5-9q-3.5-4-9-4t-8.5 4l-19 19q-4 4-4 9t4 8.5q4 3.5 9 3.5t9-3zm-48-41l10-19q2-4 .5-9t-6-7.5Q230 3 225 4.5t-8 6.5l-9 18q-3 5-1.5 10t5.5 7q4 2 7 2 7 0 11-7zM40 82q4-4 4-9t-4-9L21 45q-3-4-8.5-4t-9 4Q0 49 0 54t4 9l18 19q4 3 9 3t9-3zm47-36q5-2 6.5-7T92 29l-9-18q-3-5-8-6.5t-9.5 1Q61 8 59.5 13t.5 9l10 19q4 7 11 7 3 0 6-2zm176 120v50q0 6-4 9.5t-9 3.5H50q-5 0-8.5-3.5T38 216v-50q0-30 15-56t40.5-41Q119 54 150 54t56.5 15q25.5 15 41 41t15.5 56zm-100-37q0-5-4-9t-9-4q-21 1-35.5 15.5T100 167q0 5 3.5 8.5t9 3.5q5.5 0 9-3.5t3.5-9.5q0-10 7.5-17.5T150 141q5 0 9-3.5t4-8.5z"/></svg>