<svg viewBox="0 0 300 316" xmlns="http://www.w3.org/2000/svg"><path d="M269 85q-5 0-9-3.5t-4-8.5q0-5 4-9l19-19q3-4 8.5-4t9 4q3.5 4 3.5 9t-4 9l-18 19q-4 3-9 3zm-41-41l12-22q2-4 .5-9t-6-7.5Q230 3 225 4.5t-8 6.5l-11 22q-3 5-1 9.5t5.5 6.5q3.5 2 6.5 2 8 0 11-7zM40 82q4-4 4-9t-4-9L21 45q-3-4-8.5-4t-9 4Q0 49 0 54t4 9l18 19q4 3 9 3t9-3zm49-32q4-3 6-7.5T94 33L83 11q-3-5-8-6.5t-9.5 1Q61 8 59.5 13t.5 9l12 22q3 7 11 7 3 0 6-1zm165 175q-3 4-9 4H55q-6 0-9.5-4T43 215l8-82q2-23 19-38.5T110 79h80q23 0 40 15.5t19 38.5l8 82q1 6-3 10zm-104-84q0-5-3.5-8.5T137 129h-24q-5 0-8.5 3t-4.5 8l-2 25q-1 5 2.5 9t8.5 5h1q5 0 8.5-3t4.5-8l1-14h14q5 0 8.5-3.5t3.5-9.5zm150 150q0 6-3.5 9.5T287 304H13q-6 0-9.5-3.5T0 291q0-15 11-26t27-11h225q15 0 26 11t11 26z"/></svg>