<svg viewBox="0 0 300 316" xmlns="http://www.w3.org/2000/svg"><path d="M300 198v6q0 5-3.5 8.5t-9 3.5q-5.5 0-9-3.5T275 204v-6q0-8-5.5-13.5T256 179h-18v100q0 5-4 8.5t-9 3.5q-5 0-8.5-3.5T213 279V179h-19q-8 0-13.5 5.5T175 198v6q0 5-3.5 8.5t-9 3.5q-5.5 0-9-3.5T150 204v-6q0-18 13-31t31-13h62q18 0 31 13t13 31zM163 41q15 0 26 11.5T200 79v12q0 6 3.5 9.5t9 3.5q5.5 0 9-3.5T225 91V79q0-17-8.5-31.5t-23-23Q179 16 163 16H63q-17 0-31.5 8.5t-23 23Q0 62 0 79v12q0 6 3.5 9.5t9 3.5q5.5 0 9-3.5T25 91V79q0-15 11-26.5T63 41h37v238q0 5 3.5 8.5t9 3.5q5.5 0 9-3.5t3.5-8.5V41h38z"/></svg>