<svg viewBox="0 0 300 316" xmlns="http://www.w3.org/2000/svg"><path d="M167 129l8 8q5 5 12.5 5t12.5-5l90-91q-8-13-22-21t-31-8H63q-17 0-31.5 8t-23 22.5Q0 62 0 79v100q0 24 16 41l92-91q12-13 29.5-13t29.5 13zm-98-25q-8 0-13.5-5.5T50 85q0-8 5.5-13.5T69 66q8 0 13.5 5.5T88 85q0 8-5.5 13.5T69 104zm231-25v100q0 17-8.5 31.5t-23 22.5q-14.5 8-30.5 8h-75v25h50q5 0 8.5 4t3.5 9q0 5-3.5 8.5T212 291H88q-6 0-9.5-3.5T75 279q0-5 3.5-9t9.5-4h50v-25H63q-14 0-27-5l89-90q5-5 12.5-5t12.5 5l8 8q12 13 29.5 13t29.5-13l83-82v7z"/></svg>