<svg viewBox="0 0 300 316" xmlns="http://www.w3.org/2000/svg"><path d="M288 241q-6 0-9.5 4t-3.5 9q0 5-3.5 8.5T263 266h-25v-25q22 0 39-14t22-35h-86q-16-1-27-11.5T175 154V79H25V66q0-5-3.5-8.5t-9-3.5q-5.5 0-9 3.5T0 66v29q2 15 12 26t24 15l52 15v15q0 24 13.5 43.5T137 237v29H88q-6 0-9.5 4t-3.5 9q0 5 3.5 9t9.5 4h175q15-1 26-11.5t11-26.5q0-5-3.5-8.5T288 242v-1zm-125 0h50v25h-50v-25zm37-162h-25V54H88q-6 0-9.5-3.5t-3.5-9q0-5.5 3.5-9T88 29h87q0-5 3.5-9t9-4q5.5 0 9 4t3.5 9h88q5 0 8.5 3.5t3.5 9q0 5.5-3.5 9T288 54h-88v25zm0 75V79q25 0 46.5 11.5T282 122q14 20 17 44h-86q-6 0-9.5-3.5T200 154z"/></svg>