<svg viewBox="0 0 300 316" xmlns="http://www.w3.org/2000/svg"><path d="M296 283l-74-75q14-16 21-36.5t7-42.5q0-34-16.5-62.5T188 21Q159 4 125 4T62.5 21Q34 38 17 66.5T0 129q0 34 17 63t45.5 45.5Q91 254 125 254q22 0 42.5-7.5T204 226l75 74q3 4 8.5 4t9-3.5q3.5-3.5 3.5-9t-4-8.5zM169 161l-23 22q-8 9-21 9t-21-9l-23-22q-18-19-18.5-44.5t18-44Q99 54 125 54t44.5 18.5Q188 91 188 116.5T169 161zm-44-82q-16 0-26.5 11t-11 26.5Q87 132 98 143l23 22q2 2 4 2t4-2l23-22q11-11 10.5-26.5t-11-26.5Q141 79 125 79zm0 50q-5 0-8.5-3.5t-3.5-9q0-5.5 3.5-9t8.5-3.5q5 0 8.5 3.5t4 9q.5 5.5-3.5 9t-9 3.5z"/></svg>