<svg viewBox="0 0 300.0048 316" xmlns="http://www.w3.org/2000/svg"><path d="M178.005 67q-22 10-37 15-25 8-53 9-5 0-9-3.5t-4-8.5q0-5 3.5-9t8.5-4q25-1 48-8 13-4 35-14l4-2q-46-11-87-13-5 0-8.5-3.5t-3.5-8.5q0-6 4-9.5t9-3.5q43 2 90 13 26 6 45 13l8-1q19 0 36 12 15 11 24 27.5t9 30.5q0 22-23 33-19 9-46 9-23 0-39.5-16t-16.5-40q0-9 3-18zm110 212h-25V163q-15 4-32 3-26 0-46-14t-29-37q-61 19-92 70-20 33-25 73-9-6-19-3-8 1-13 6.5t-7 12.5q-2 12 5.5 21t19.5 9h162v-37q0-21-14.5-35.5t-35.5-14.5q-5 0-8.5-4t-3.5-9q0-5 3.5-8.5t8.5-3.5q21 0 38 10t27 27q10 17 10 38v37h75q6 0 9.5-3.5t3.5-9q0-5.5-3.5-9t-9.5-3.5h1z"/></svg>