<svg viewBox="0 0 300 316" xmlns="http://www.w3.org/2000/svg"><path d="M131 35q0-8 5.5-13.5T150 16q8 0 13.5 5.5T169 35q0 8-5.5 13.5T150 54q-8 0-13.5-5.5T131 35zM38 166q0-7-5.5-12.5T19 148q-8 0-13.5 5.5t-5.5 13q0 7.5 5.5 13T19 185q8 0 13.5-5.5T37 166h1zm262 0q0-7-5.5-12.5T281 148q-8 0-13 5.5t-5 13q0 7.5 5 13t13 5.5q8 0 13.5-5.5T300 166zM75 73q0-8-5.5-13.5T56 54q-8 0-13 5.5T38 73q0 8 5 13.5T56 92q8 0 13.5-5.5T75 73zm188 187q-1-8-6-13.5t-13-5q-8 .5-13.5 5.5t-5.5 13q0 8 5.5 13.5T244 279q8 0 13.5-5.5T263 260zM56 241q-8 0-13 5.5T38 260q0 8 5 13.5t13 5.5q8 0 13.5-5.5T75 260q0-8-5.5-13.5T56 242v-1zM244 54q-8 0-13.5 5.5T225 73q0 8 5.5 13.5T244 92q8 0 13.5-5.5t5-13.5q-.5-8-5.5-13.5T244 54zm-81 26v86q0 6-4 9.5t-9 3.5q-5 0-9-3.5t-4-8.5V80q-20 3-37.5 15t-27 31q-9.5 19-10 41.5T74 210q12 20 32 32t44 12q24 0 44-12t31.5-32q11.5-20 12-42.5T228 126q-10-19-27.5-31T162 80h1z"/></svg>