<svg viewBox="0 0 300 316" xmlns="http://www.w3.org/2000/svg"><path d="M262 156q0-27-10-45-9-16-23-24t-29-8q-21 0-37 14v-8q0-28-10-47-9-17-23-25.5T100.5 4Q85 4 71 12T48 36Q38 54 38 81q-17 4-27.5 17.5T0 129q0 15 8 34 7 16 17 28.5T50 204q15 0 25-12.5T92 163q8-19 8-34 0-17-10.5-30.5T63 81q1-31 16-44 9-8 21.5-8t21.5 9q16 14 16 47v206q0 6 3.5 9.5t8.5 3.5q5 0 9-3.5t3-9.5V160q1-33 16-47 9-9 21.5-9t21.5 8q15 13 16 44-16 4-26.5 17.5T200 204q0 15 8 34 7 16 17 28.5t25 12.5q15 0 25-12.5t17-28.5q8-19 8-34 0-17-10.5-30.5T262 156z"/></svg>