<svg viewBox="0 0 300 316" xmlns="http://www.w3.org/2000/svg"><path d="M262 6q-16-5-33.5 2T196 31q-15 16-24 36h-3q-8 0-13.5 5T150 85.5q0 8.5 7 14.5-10 21-25 36-21 21-59 35l-3 2q-6-7-14-6.5T42.5 172q-5.5 5-5.5 13 0 3 1 5-21 17-31.5 37T2 265.5Q8 284 29.5 294T79 304q23 0 44-7l5-2q5 9 16 9 7 0 12.5-5.5T162 285v-4q62-33 100-91 4 2 7 2 7 0 12.5-5.5t5.5-14q0-8.5-7-14.5 8-15 13-31 8-23 7-49t-10.5-46Q280 12 262 6zM156 216q-8 0-13.5-5t-5.5-13q0-8 5.5-13.5T156 179q8 0 13.5 5.5T175 198q0 8-5.5 13.5T156 217v-1zm75-100q-8 0-13.5-5T212 98q0-8 5.5-13.5T231 79q8 0 13.5 5.5T250 98q0 8-5.5 13.5T231 117v-1z"/></svg>