<svg viewBox="0 0 301 316" xmlns="http://www.w3.org/2000/svg"><path d="M8 67q14-8 22-12 12-5 21-5 14 0 34 17h30l-3-2q-15-3-22.5-10.5T76 19q-1-6 4-11t11-4q27 6 37 15.5T146 49q4 10 6 18h38l-3-2q-15-3-22.5-10.5T151 19q-1-6 4-11t11-4q27 6 38 16 6 7 12 18 5 9 8 19l3 8 61 2q6 0 9.5 3.5T301 79q0 5-3.5 9t-9.5 4h-61l-3 8q-3 11-8 19-6 12-12 19-11 10-38 16-6 1-11-4t-4-11q6-28 13.5-35.5T187 93l3-2h-38l-3 9q-3 11-8 19-6 12-12 19-11 10-38 16-6 1-11-4t-4-11q6-28 13.5-36T112 93l3-2H85q-20 17-34 17-9 0-21-5-8-4-22-12-8-4-8-12t8-12zm285 116q6 7 7.5 16.5T299 218q-6 22-28 43-15 15-37 28-23 15-52 15h-62q-29 0-52-15-22-13-37-28-22-21-28-43-3-9-1.5-18.5t7.5-17q6-7.5 14.5-12T42 166h218q10 0 18.5 4.5T293 183z"/></svg>