<svg viewBox="0 0 300 316" xmlns="http://www.w3.org/2000/svg"><path d="M56 35q0-13 9.5-22t22-9q12.5 0 22 9t9.5 22q0 13-9.5 22.5t-22 9Q75 66 65.5 57T56 35zm244 194q0 20-10 37.5T262.5 294Q245 304 225 304t-37.5-10Q170 284 160 266.5T150 229q0-20 10-37.5t27.5-27.5q17.5-10 37.5-10t37.5 10q17.5 10 27.5 27.5t10 37.5zm-29-21q-3-4-8.5-4t-8.5 3l-34 33q-2 1-3.5 1.5T213 240l-17-16q-3-4-8.5-4t-9 3.5q-3.5 3.5-3.5 9t4 8.5l17 17q8 8 20.5 8t20.5-8l34-33q4-3 4-8.5t-4-8.5zm-121-79q0-21-14.5-35.5T100 79H75q-21 0-35.5 14.5T25 129v37q0 14 7 25.5T50 210v81q0 6 3.5 9.5t9 3.5q5.5 0 9-3.5T75 291v-75h25v75q0 6 3.5 9.5t9 3.5q5.5 0 9-3.5t3.5-9.5v-62q0-19 6.5-36t18.5-30v-34z"/></svg>