<svg viewBox="0 0 300 316" xmlns="http://www.w3.org/2000/svg"><path d="M0 104V29Q0 17 9.5 9.5T31 5q18 4 31.5 16.5T83 51q33-9 67-9t68 9q6-17 19.5-29.5T269 5q12-3 21.5 4.5T300 29v75q-31 1-60 14-37 16-58 49.5T162 242q1 5-3 8.5t-9 3.5q-5 0-9-3.5t-4-9.5q2-40-19-74t-58-49q-29-13-60-14zm250 37q-3 17-16 27.5T204 179q-18 29-16 63 0 15-11 26t-27 11q-16 0-26.5-11T113 242q1-34-17-63-17 0-30-10.5T50 141q-24-11-50-12 0 27 10.5 52T40 224l58 59q15 14 33.5 18.5t37 0Q187 297 201 283l59-59q19-18 29.5-43t10.5-52q-26 1-50 13v-1z"/></svg>