<svg viewBox="0 0 300.0056 316" xmlns="http://www.w3.org/2000/svg"><path d="M137.004 108q1 3-1.5 6t-5.5 3h-60q-3-1-5.5-3.5t-1.5-5.5q3-13 13.5-21t23.5-8q13 0 23.5 8t13.5 21zm-137-13q-1 4 1.5 6.5t5.5 2.5h31v-6q0-19 13-32h-14q-13 0-23.5 8.5T.004 95zm193 9q3 0 5.5-2.5t1.5-6.5q-3-12-13.5-20.5t-23.5-8.5h-14q13 13 13 32v6h31zm-155-50q10 0 17.5-7.5t7.5-17.5q0-10-7.5-17.5t-18-7.5q-10.5 0-17.5 7.5t-7 17.5q0 10 7 17.5t18 7.5zm62 12q10 0 17.5-7t7.5-17.5q0-10.5-7.5-18t-17.5-7.5q-10 0-17.5 7.5t-7.5 18q0 10.5 7.5 17.5t17.5 7zm63-12q10 0 17.5-7.5t7.5-17.5q0-10-7.5-17.5t-18-7.5q-10.5 0-17.5 7.5t-7 17.5q0 10 7 17.5t18 7.5zm129 104l-97 105q-17 20-41 30.5t-51 10.5h-53q-21 0-35.5-14.5T.004 254v-63q0-20 14.5-35t35.5-15h97q13 0 21.5 10.5t5.5 23.5q-1 9-8 14.5t-16 7.5l-52 7q-5 1-8 5t-2.5 9q.5 5 5 8t9.5 3l53-8q19-2 32-17t13-35l-1-8 45-47q8-9 21.5-10t23.5 8q10 9 11 22.5t-8 23.5z"/></svg>