<svg viewBox="0 0 300 316" xmlns="http://www.w3.org/2000/svg"><path d="M13 91q-6 0-9.5-3.5T0 79V66q0-16 8.5-30.5t23-23Q46 4 63 4h12q5 0 9 3.5t4 9q0 5.5-4 9T75 29H63q-16 0-27 11T25 67v12q0 5-3.5 9T12 92l1-1zm12 88v-50q0-5-3.5-9t-9-3.5q-5.5.5-9 4T0 129v50q0 5 3.5 9t9 3.5q5.5-.5 9-4T25 179zm63 112q-1-5-4.5-8.5T75 279H63q-16 0-27-11t-11-27v-12q0-5-3.5-9t-9-4q-5.5 0-9 4T0 229v12q0 17 8.5 31.5t23 23Q46 304 63 304h12q5 0 9-3.5t4-9.5zm212-50v-12q0-5-3.5-9t-9-4q-5.5 0-9 4t-3.5 9v12q0 16-11 27t-27 11h-12q-5 0-8.5 3.5t-3.5 9q0 5.5 3.5 9t8.5 3.5h13q16 0 30.5-8.5t23-23Q300 258 300 241zm0-62v-50q0-5-3.5-9t-9-4q-5.5 0-9 4t-3.5 9v50q0 5 3.5 9t9 3.5q5.5-.5 9-4t3.5-8.5zm0-100V66q0-16-8.5-30.5t-23-23Q254 4 238 4h-13q-5 0-8.5 3.5t-3.5 9q0 5.5 3.5 9T225 29h13q15 0 26 11t11 27v12q0 5 3.5 9t9 3.5q5.5-.5 9-4T300 79zM188 16q0-5-4-8.5T175 4h-50q-5 0-8.5 3.5t-3.5 9q0 5.5 3.5 9T125 29h50q5 0 9-3.5t3-8.5l1-1zm0 275q0-5-4-8.5t-9-3.5h-50q-5 0-8.5 3.5t-3.5 9q0 5.5 3.5 9t8.5 3.5h50q5 0 8.5-3.5t3.5-9.5h1z"/></svg>