<svg viewBox="0 0 300 316" xmlns="http://www.w3.org/2000/svg"><path d="M238 4H63q-17 0-31.5 8.5t-23 23Q0 50 0 67v174q0 17 8.5 31.5t23 23Q46 304 63 304h175q16 0 30.5-8.5t23-23Q300 258 300 241V66q0-16-8.5-30.5t-23-23Q254 4 237 4h1zM69 254q-8 0-13.5-5.5T50 235q0-8 5.5-13.5T69 216q8 0 13.5 5.5T88 235q0 8-5.5 13.5T69 254zm0-163q-8 1-13.5-4.5T50 73q0-8 5.5-13.5T69 54q8 0 13.5 5.5T88 73q0 8-5.5 13.5T69 92v-1zm162 163q-8 0-13.5-5.5T212 235q0-8 5.5-13.5T231 216q8 0 13.5 5.5T250 235q0 8-5.5 13.5T231 254zm0-163q-8 1-13.5-4.5T212 73q0-8 5.5-13.5T231 54q8 0 13.5 5.5T250 73q0 8-5.5 13.5T231 92v-1z"/></svg>