<svg viewBox="0 0 300 316" xmlns="http://www.w3.org/2000/svg"><path d="M138 48q0 18-13 30.5T94 91q-18 0-31-12.5T50 48q0-18 13-31T94 4q18 0 31 13t13 31zm67 43q18 0 31-12.5T249 48q0-18-13-31T205 4q-18 0-31 13t-13 31q0 18 13 30.5T205 91zM94 204q-18 0-31 13t-13 31q0 18 13 30.5T94 291q18 0 31-12.5t13-30.5q0-18-13-31t-31-13zm156-56q0 18-13 30.5T206 191q-18 0-30.5-12.5T163 148q0-18 12.5-31t30.5-13q18 0 31 13t13 31zm-25 0q0-8-5.5-13.5T206 129q-8 0-13 5.5t-5 13.5q0 8 5 13t13 5q8 0 13.5-5t5.5-13zm-87 0q0 18-13 30.5T94 191q-18 0-31-12.5T50 148q0-18 13-31t31-13q18 0 31 13t13 31zm-25 0q0-8-5.5-13.5T94 129q-8 0-13.5 5.5T75 148q0 8 5.5 13t13.5 5q8 0 13.5-5t4.5-13h1zm137 100q0 18-13 30.5T206 291q-18 0-30.5-12.5T163 248q0-18 12.5-31t30.5-13q18 0 31 13t13 31zm-25 0q0-8-5.5-13.5T206 229q-8 0-13 5.5t-5 13.5q0 8 5 13.5t13 5q8-.5 13.5-5.5t5.5-13z"/></svg>