<svg viewBox="0 0 300 316" xmlns="http://www.w3.org/2000/svg"><path d="M150 76L38 38l92-31q20-6 40 0l93 31-113 38zm-40 70l28-45L38 68q-5-2-11 0t-9 7L4 99q-6 10-2 21.5T18 136l63 21q8 3 16.5-.5T110 146zM38 38zm100 265V149l-6 10q-7 11-18.5 17.5T89 183q-8 0-16-3l-48-16v57q0 21 12 37t31 23l55 18q8 3 15 4zM297 99l-15-24q-3-5-8.5-7T262 68l-99 33 27 45q4 7 12.5 10.5t16.5.5l64-22q11-3 15.5-14.5T297 99zm-86 84q-13 0-24.5-6.5T168 159l-5-10v154q7-2 15-4l54-18q20-7 31.5-23t11.5-37v-57l-48 16q-8 3-16 3z"/></svg>