<svg viewBox="0 0 300 316" xmlns="http://www.w3.org/2000/svg"><path d="M0 104V91q0-16 8.5-30.5t23-23Q46 29 63 29h12V16q0-5 3.5-8.5t9-3.5q5.5 0 9 3.5T100 17v12h100V16q0-5 3.5-8.5t9-3.5q5.5 0 9 3.5T225 17v12h13q16 0 30.5 8.5t23 23Q300 75 300 92v12H0zm300 25v112q0 17-8.5 31.5t-23 23Q254 304 238 304H63q-17 0-31.5-8.5t-23-23Q0 258 0 241V129h300zM150 241q0-5-3.5-8.5T138 229H75q-5 0-9 3.5t-3.5 9q.5 5.5 4 9T75 254h63q5 0 8.5-3.5t3.5-8.5v-1zm88-50q0-5-4-8.5t-9-3.5H75q-5 0-9 3.5t-3.5 9q.5 5.5 4 9T75 204h150q5 0 9-3.5t4-8.5v-1z"/></svg>