<svg viewBox="0 0 300 316" xmlns="http://www.w3.org/2000/svg"><path d="M125 129q0 4 2.5 6.5t5.5 3.5l38 6q13 2 21 11.5t8 22.5q0 16-11 27t-26 11v12q0 5-4 9t-9 4q-5 0-9-4t-4-9v-13h-3q-10 0-18.5-5T102 198q-3-5-1.5-10t6-7.5q4.5-2.5 9.5-1t8 6.5q3 5 10 5l29 1q5 0 8.5-4t3.5-8.5q0-4.5-2.5-7T167 169l-38-6q-13-2-21-11.5t-8-22.5q0-16 11-26.5T137 92V79q0-5 4-9t9-4q5 0 8.5 4t3.5 9v13h4q10 0 18.5 5t13.5 13q3 5 1.5 10t-6 7.5q-4.5 2.5-9.5 1t-8-6.5q-3-5-10-5l-29-1q-5 0-8.5 4t-3.5 9zm138 100q-9 0-17 4l-18-19q-4-4-9-4t-9 4q-4 4-4 9t4 9l19 18q-4 8-4 17 0 15 11 26t26.5 11q15.5 0 26.5-11t11-26.5q0-15.5-11-26.5t-27-11h1zM219 98q5 0 9-4l18-19q8 4 16 4 16 0 27-11t11-26.5Q300 26 289 15T262.5 4Q247 4 236 15t-11 27q0 8 4 16l-19 18q-4 4-4 9t4 9q4 4 9 4zM90 76q4 4 4 9t-4 9q-4 4-9 4t-9-4L54 75q-8 4-17 4-15 0-26-11T0 41.5Q0 26 11 15T37.5 4Q53 4 64 15t11 27q0 8-4 16l19 18zm0 138q4 4 4 9t-4 9l-19 18q4 8 4 17 0 15-11 26t-26.5 11Q22 304 11 293T0 266.5Q0 251 11 240t27-11q8 0 16 4l18-19q4-4 9-4t9 4z"/></svg>