<svg viewBox="0 0 300 316" xmlns="http://www.w3.org/2000/svg"><path d="M293 92q-17-17-36-28 8-7 13-16t5-21q-1-5-4.5-8t-8.5-3q-5 0-8.5 4t-3.5 9q-2 14-10 19-6 5-19 6t-23-8q-10-9-10-23v-7q0-5-4-8.5T175 4q-5 0-8.5 3.5T163 17v6q0 17 9 31h-16q-13 0-22-9t-9-22v-7q0-5-3.5-8.5t-9-3.5q-5.5 0-9 3.5T100 17v6q0 23 16.5 39.5T156 79h26q-7 15-7 32v9q-1 3-4 6t-8 3H77q-10 0-20 4t-17 11L3 183q-3 4-3 9t3.5 8.5q3.5 3.5 9 3.5t9.5-4l3-4q2 16 8 30l5 11v41q0 9 5.5 16.5T58 304q12 2 21-6t9-19v-38h87v37q0 9 6 16.5t15 9.5q11 2 20-6t9-19v-39q9-11 15-25 10-21 10-44v-25l26-3q10-1 17-8.5t7-18.5q0-17-7-24z"/></svg>