<svg viewBox="0 0 300 316" xmlns="http://www.w3.org/2000/svg"><path d="M300 116q0-14-9.5-24.5T267 79q-14-2-26 6.5T226 108q-3 14 4 26.5t20 17.5v52q0 20-10 37.5T212.5 269Q195 279 175 279t-37.5-10Q120 259 110 241.5T100 204v-1q21-3 38-15.5t27-31q10-18.5 10-40.5V66q0-16-8.5-30.5t-23-23Q129 4 113 4q-6 0-9.5 3.5t-3.5 9q0 5.5 3.5 9T113 29q15 0 26 11t11 27v49q0 17-8.5 31.5t-23 23q-14.5 8.5-31 8.5t-31-8.5q-14.5-8.5-23-23T25 116V66q0-15 11-26t26-11q6 0 9.5-3.5t3.5-9q0-5.5-3.5-9T62 4q-16 0-30.5 8.5t-23 23Q0 50 0 66v50q0 22 10 40.5t27 31Q54 200 75 203v1q0 27 13.5 50t36.5 36.5q23 13.5 50 13.5t50-13.5q23-13.5 36.5-36.5t13.5-50v-52q11-4 18-14t7-22z"/></svg>