<svg viewBox="0 0 300 316" xmlns="http://www.w3.org/2000/svg"><path d="M88 79h200q5 0 8.5-3.5t3.5-9q0-5.5-3.5-9T288 54H88q-6 0-9.5 3.5t-3.5 9q0 5.5 3.5 9T88 79zm200 62H88q-6 0-9.5 4t-3.5 9q0 5 3.5 9t9.5 4h200q5 0 8.5-4t3.5-9q0-5-3.5-9t-8.5-4zm0 88H88q-6 0-9.5 3.5t-3.5 9q0 5.5 3.5 9T88 254h200q5 0 8.5-3.5t3.5-9q0-5.5-3.5-9T288 229zM0 66q0 11 7.5 18.5T25 92q10 0 17.5-7.5t7.5-18Q50 56 42.5 49T25 41.5q-10-.5-17.5 7T0 67v-1zm0 88q0 10 7.5 17.5T25 179q10 0 17.5-7.5T50 154q0-10-7.5-17.5T25 129q-10 0-17.5 7.5T0 154zm0 87q0 11 7.5 18t17.5 7q10 0 17.5-7t7.5-17.5q0-10.5-7.5-18T25 216q-10 0-17.5 7.5T0 241z"/></svg>