<svg viewBox="0 0 300.0022 316" xmlns="http://www.w3.org/2000/svg"><path d="M258.002 78q9-24-2-47-7-13-19-20-16-8-32-6.5t-29 12.5q-28 24-64 24-28 0-53 13.5t-41 37q-16 23.5-18 49.5-1 23 7 44.5t23.5 37.5q15.5 16 37.5 24l5 45q1 5 5 8.5t9 3.5q6 0 10-4.5t3-10.5l-4-36 9 1 7-1q9 0 18-2l5 41q1 5 4.5 8.5t8.5 3.5q6 0 10-5t3-11l-6-47q26-13 41.5-38.5t15.5-54.5v-16q0-8 5-15t13-10l1-1q27 22 42 58 10 23 13 47 0 2 2 3.5t4.5 1.5q2.5 0 4.5-2t2-4q-1-44-16-83-10-27-25-49zm-39 1q-8 0-13.5-5.5t-5.5-13.5q0-8 5.5-13.5t13.5-5q8 .5 13.5 5.5t5.5 13q0 8-5.5 13.5t-13.5 5.5z"/></svg>