<svg viewBox="0 0 300 316" xmlns="http://www.w3.org/2000/svg"><path d="M194 191q-8 0-13.5-5t-5.5-13v-50q0-8 5.5-13.5T194 104q8 0 13.5 5.5T213 123v50q0 8-5.5 13t-13.5 5zm-31-18v-50q0-8-5.5-13.5T144 104q-8 0-13.5 5.5T125 123v50q0 8 5.5 13t13.5 5q8 0 13.5-5t5.5-13zm90-156q-7 1-11 6.5T238 36v134q0 19-12.5 32.5T196 216q-15 1-27-8-11 8-25.5 8t-26.5-9l-31 30q-4 4-9 4t-9-4q-3-3-3-8.5t3-8.5l30-30q8-8 7-19.5T94 152q-7-5-16.5-4T61 156l-33 34q-15 15-15 36t15 36l19 20q11 10 24.5 16t28.5 6h113q16 0 30.5-8.5t23-23Q275 258 275 241V35q0-8-6.5-14T253 17zM100 127V24q0-7-4.5-13t-12-7q-7.5-1-14 4.5T63 23v103q18-7 37 1z"/></svg>