<svg viewBox="0 0 300 316" xmlns="http://www.w3.org/2000/svg"><path d="M150 129q10 0 17.5 7.5T175 154q0 10-7.5 17.5T150 179q-10 0-17.5-7.5T125 154q0-10 7.5-17.5T150 129zm106 131q29-29 39-67.5t0-77Q285 77 256 48q-4-4-9-4t-8.5 4q-3.5 4-3.5 9t4 9q23 24 31.5 56t0 64q-8.5 32-31.5 56-4 4-4 9t3.5 9q3.5 4 8.5 4t9-4zm-44-44q12-13 19-28.5t7-33.5q0-18-7-33.5T212 92q-4-4-9-4t-8.5 4q-3.5 4-3.5 9t3 9q19 18 19 44t-19 44q-3 4-3 9t3.5 8.5q3.5 3.5 8.5 3.5t9-3zM62 260q3-4 3-9t-3-9q-24-23-32.5-55.5t0-64.5Q38 90 62 66q3-4 3-9t-3.5-9Q58 44 53 44t-9 4Q15 77 5 115.5t0 77Q15 231 44 260q3 4 8.5 4t9.5-4zm44-44q4-4 4-9t-4-9q-12-12-16.5-28t0-32q4.5-16 16.5-28 4-4 4-9t-4-8.5q-4-3.5-9-3.5t-9 3q-17 17-22.5 39.5t0 45Q71 199 88 216q4 4 9 4t9-4z"/></svg>