<svg viewBox="0 0 300 316" xmlns="http://www.w3.org/2000/svg"><path d="M159 163l-29 28-17-17 28-29q4-4 4-9t-4-8.5q-4-3.5-9-3.5t-9 3l-28 29-24-23q-3-4-8.5-4t-9 3.5q-3.5 3.5-3.5 9t4 8.5l4 5-14 14q-17 16-19 39t11 42L4 283q-4 3-4 8.5t3.5 9q3.5 3.5 9 3.5t8.5-4l33-32q16 11 35 11 13 0 25-5t21-14l14-14 5 4q3 4 8.5 4t9-3.5q3.5-3.5 3.5-9t-4-8.5l-23-24 29-28q3-4 3-9t-3.5-9q-3.5-4-9-4t-8.5 4zM296 8q-3-4-8.5-4T279 8l-33 32q-19-13-42-11t-39 19l-14 14-5-4q-3-4-8.5-4t-9 3.5q-3.5 3.5-3.5 9t4 8.5l100 100q3 4 8.5 4t9-3.5q3.5-3.5 3.5-9t-4-8.5l-4-5 14-14q17-16 19-39t-11-42l32-33q4-3 4-8.5T296 8z"/></svg>