<svg viewBox="0 0 300 316" xmlns="http://www.w3.org/2000/svg"><path d="M275 115q-2-12-8.5-22T250 77q0-14-8-25.5T221.5 34Q209 28 195 29q-7-11-19-18t-26-7q-14 0-25.5 7T106 29q-15-1-28 5T57.5 52.5Q50 65 50 79v3q-18 11-23 31-2 6 2 11t10 5h125q-1-3-1-6 0-8 5-13.5t13-5.5q8 0 13.5 5.5T200 123q0 3-1 6h63q6 0 9.5-4.5t3.5-9.5zm-156-11q-8 0-13.5-5.5t-5.5-13q0-7.5 5.5-13T119 67q8 0 13.5 5.5t5.5 13q0 7.5-5.5 13T119 104zm181 87q0 23-14 45-12 19-33 36-18 14-37 23t-29 9h-75q-10 0-29-9t-36-23q-21-17-33-36-14-22-14-45 0-12 8-22 5-7 13-11t17-4h224q9 0 16.5 4t13.5 11q8 10 8 22z"/></svg>