<svg viewBox="0 0 300 316" xmlns="http://www.w3.org/2000/svg"><path d="M300 229q0 16-11 26.5T262.5 266q-15.5 0-26.5-10.5T225 229v-13q0-5-3.5-8.5T213 204h-13v37q0 17-8.5 31.5t-23 23Q154 304 138 304H63q-17 0-31.5-8.5t-23-23Q0 258 0 241V141h200v38h13q15 0 26 11t11 26v13q0 5 3.5 8.5t9 3.5q5.5 0 9-3.5t3.5-8.5V104q-10 0-17.5-7.5T250 79V47l-21-22q-4-3-4-8.5t3.5-9q3.5-3.5 9-3.5t8.5 4l32 31q10 11 16 24.5t6 27.5v138zM200 66q0-16-8.5-30.5t-23-23Q154 4 138 4H63q-17 0-31.5 8.5t-23 23Q0 50 0 66v50h200V66z"/></svg>