<svg viewBox="0 0 300 316" xmlns="http://www.w3.org/2000/svg"><path d="M289 259q-4 9-13 14.5t-20 5.5h-62v12q0 6-4 9.5t-9 3.5q-5 0-8.5-3.5T169 291v-12h-38v12q0 6-3.5 9.5T119 304q-5 0-9-3.5t-4-9.5v-12q-10 0-19-5.5T73 259q-5-9-4.5-19.5T75 220l20-22q-6-5-10-12.5t-3.5-17Q82 159 87 152l24-26q-9-5-13.5-13t-4-16.5Q94 88 99 81l59-66q9-10 23.5-10.5T205 15l58 66q5 7 5.5 15.5T265 113q-4 8-13 13l23 26q6 7 6.5 16.5t-3.5 17q-4 7.5-10 12.5l19 22q6 9 6.5 19.5T289 259zM76 126q0-1-1-2-7-14-6-29.5T79 66l52-59q-9-4-19-2T95 15L37 81q-5 7-5.5 15.5T35 113q4 8 13 13l-23 26q-6 7-6.5 16.5t3.5 17q4 7.5 10 12.5l-19 22q-6 9-6.5 19.5t4 19.5q4.5 9 13.5 14.5t20 5.5h12q-3-4-5-8-8-16-7-33.5T55 206l7-9q-7-14-6-30t11-29l9-12z"/></svg>