<svg viewBox="0 0 300 316" xmlns="http://www.w3.org/2000/svg"><path d="M288 154q-6 0-9.5-3.5T275 141q0-30-15-56t-41-41q-26-15-56-15-6 0-9.5-3.5t-3.5-9q0-5.5 3.5-9T162 4q38 0 69.5 18.5t50 50Q300 104 300 141q0 6-3.5 9.5T288 154zm-38-13q0-23-12-43t-32-32q-20-12-43-12-6 0-9.5 3.5t-3.5 9q0 5.5 3.5 9T162 79q17 0 31.5 8.5t23 23Q225 125 225 142q0 5 3.5 8.5t9 3.5q5.5 0 9-3.5t3.5-9.5zm-50 25v75q0 17-8.5 31.5t-23 23Q154 304 137 304H63q-17 0-31.5-8.5t-23-23Q0 258 0 241v-75q0-16 8.5-30.5t23-23Q46 104 63 104h75q16 0 30.5 8.5t23 23Q200 150 200 167v-1zM63 154q0-5-4-8.5t-9-3.5q-5 0-8.5 3.5T38 154q0 5 3.5 8.5T50 166q5 0 9-3.5t4-8.5z"/></svg>