<svg viewBox="0 0 300 316" xmlns="http://www.w3.org/2000/svg"><path d="M300 204v62q0 16-11 27t-27 11h-62q-27 0-50-13.5T114 254v-1q33-2 62-18l25 24q7 8 17.5 8t17.5-8l35-34q4-3 4-8t-3.5-9q-3.5-4-8.5-4t-9 4l-35 33-21-20q22-17 36-42t16-53v-8q23 13 36.5 36t13.5 50zm-198 25H46q-19 0-32.5-13.5T0 183v-63q0-29 14.5-55T53 22.5Q77 6 104 4q25-1 48 7.5T192 37q17 17 25.5 40t7.5 48q-2 28-19 52t-44.5 38Q134 229 102 229zm26-59q0-7-4.5-11.5t-11-4.5q-6.5 0-11 4.5t-4.5 11q0 6.5 4.5 11t11 4.5q6.5 0 11-4.5T128 170zm21-85q-2-12-10-20t-20-10q-17-4-30.5 7.5T75 91q0 6 3.5 9.5t9 3.5q5.5 0 9-3.5t3.5-9q0-5.5 4.5-9.5t10.5-3q4 1 6.5 3.5t3.5 7q1 4.5-1 8t-5 4.5q-8 5-12 9-7 7-7 18 0 5 3.5 8.5t9 3.5q5.5 0 9-3.5t3.5-8.5q0-2 6-5 10-5 15.5-16t2.5-23z"/></svg>