<svg viewBox="0 0 300 316" xmlns="http://www.w3.org/2000/svg"><path d="M0 79V54q0-21 14.5-35.5T50 4h75q17 0 30.5 10.5T173 41h40q20 0 35 15t15 35v13h18q6 0 8.5 6t-1.5 10l-31 31q-3 3-7 3t-7-3l-30-31q-5-4-2.5-10t8.5-6h19V91q0-10-7.5-17.5T213 66h-38v13q0 21-14.5 35.5T125 129H50q-21 0-35.5-14.5T0 79zm300 150v25q0 21-14.5 35.5T250 304H50q-21 0-35.5-14.5T0 254v-25q0-21 14.5-35.5T50 179h200q21 0 35.5 14.5T300 229zm-50-25h-7l-75 75h39l64-64q-4-5-9.5-8t-11.5-3zm-118 75l75-75h-39l-75 75h39zM25 229v7l32-32h-7q-10 0-17.5 7.5T25 229zm25 50h7l75-75H93l-64 64q4 5 9.5 8t11.5 3zm225-25v-7l-32 32h7q10 0 17.5-7.5T275 254z"/></svg>