<svg viewBox="0 0 300 316" xmlns="http://www.w3.org/2000/svg"><path d="M275 117q-9-32-32.5-55.5T187 29q0-11-7-18t-17-7h-25q-11 0-18 7t-7 18q-32 9-55.5 32.5T25 117q-11 0-18 7t-7 17v25q0 11 7 18t18 7q9 32 32.5 55.5T113 279q0 11 7 18t18 7h25q10 0 17-7t7-18q32-9 55.5-32.5T275 191q11 0 18-7t7-18v-25q0-10-7-17t-18-7zm-88 136q0-10-7-17t-18-7h-25q-10 0-17 7t-7 17q-22-8-38-24t-24-38q10 0 17-7t7-17v-26q0-10-7-17t-17-7q8-22 24-38t38-24q0 10 7 17t17 7h25q11 0 18-7t7-17q22 8 38 24t24 38q-10 0-17 7t-7 18v24q0 11 7 18t17 7q-8 22-24 38t-38 24z"/></svg>