<svg viewBox="0 0 300 316" xmlns="http://www.w3.org/2000/svg"><path d="M231 4q-13 0-22 9t-9 22q0 13 9 22t22 9q13 0 22.5-9t9.5-22q0-13-9.5-22T231 4zM109 235l-38 38 3 2q3 4 8.5 4t9-3.5Q95 272 100 272t8.5 3.5q3.5 3.5 3.5 9t-3 8.5q-11 11-27 11-15 0-26-11l-35-36q-5-5-3.5-12t9-9q7.5-2 12.5 4l15 15 37-38q4-3 9-3t8.5 3.5q3.5 3.5 3.5 8.5t-3 9zm116 19q-5 0-8.5 3.5t-3.5 9q0 5.5-4 9t-9 3.5v-39q0-6-4-9l-42-41 60-60q11-12 11-28t-12-26l-9-7q-17-15-40-15H63q-6 0-9.5 3.5t-3.5 9q0 5.5 3.5 9T63 79h97l-47 47q-13 13-13 30.5t13 29.5l62 59v34h-25q-5 0-9 3.5t-3.5 9q.5 5.5 4 9t8.5 3.5h50q16 0 26.5-11t11.5-27q-1-5-4.5-8.5T225 254z"/></svg>