<svg viewBox="0 0 300 316" xmlns="http://www.w3.org/2000/svg"><path d="M236 4H64q-17 0-32 8.5T8.5 35Q0 49 0 66v38q0 5 3.5 9t9 4q5.5 0 9-4t3.5-9V66q0-15 11.5-26T64 29h172q16 0 27.5 11T275 66v175q0 16-11.5 27T236 279H64q-16 0-27.5-11T25 241v-37q0-5-3.5-8.5t-9-4q-5.5-.5-9 3.5T0 204v37q0 18 8.5 32T32 295.5q15 8.5 32 8.5h172q17 0 32-8.5t23.5-22.5q8.5-14 8.5-32V66q0-17-8.5-31T268 12.5Q253 4 236 4zM38 154q0 5 3.5 9t8.5 4l165-1-54 54q-5 5-3.5 12t8.5 9q7 2 12-3l58-57q11-11 11-27t-11-27l-57-57q-4-3-9-3t-9 3.5q-4 3.5-4 8.5t4 9l53 53H50q-5 0-8.5 4t-3.5 9z"/></svg>