<svg viewBox="0 0 300 316" xmlns="http://www.w3.org/2000/svg"><path d="M281 179H19q2-6 5-11l26-45q8-15 22.5-23t31.5-8h92q17 0 31.5 8t22.5 23l26 45q3 5 5 11zm-43 25v12q-1 6-4.5 9.5T225 229q-5 0-9-3.5t-4-9.5v-12H88v12q0 6-4 9.5t-9 3.5q-5 0-8.5-3.5T63 216v-12H13v25q0 13 6.5 25T38 272v7q0 10 7 17.5t17.5 7.5q10.5 0 18-7.5T88 279h125q0 10 7 17.5t17.5 7.5q10.5 0 17.5-7.5t7-17.5v-7q12-6 18.5-18t6.5-25v-25h-49zm50-150h-13q-5 0-9-3.5t-3.5-9q.5-5.5 4-9T275 29h13q5 0 6-3t0-5q-6-9-16-13.5t-20.5-3Q247 6 239 12.5T227 29H73q-4-10-12-16.5t-18.5-8Q32 3 22 7.5T6 21q-3 6 4 8h15q5 0 9 3.5t4 9q0 5.5-4 9T25 54H13q-6 0-7 3t0 5q6 9 16 13.5t20.5 3Q53 77 61 70.5T73 54h154q4 10 12 16.5t18.5 8q10.5 1.5 20.5-3T294 62q1-2 0-5t-6-3z"/></svg>