<svg viewBox="0 0 300.006 316" xmlns="http://www.w3.org/2000/svg"><path d="M150.006 66q13 0 22 9.5t9 22.5q0 13-9 22t-22 9q-13 0-22-9t-9-22q0-13 9-22.5t22-9.5zm50 113v37q0 17-12 28v47q0 6-4 9.5t-9 3.5q-5 0-8.5-3.5t-3.5-9.5v-37h-25v37q0 6-4 9.5t-9 3.5q-5 0-8.5-3.5t-3.5-9.5v-47q-13-11-13-28v-37q0-16 11-26.5t26-11.5h26q15 0 26 11t11 27zm38-113q12 0 21.5-9t9.5-22q0-13-9.5-22t-22-9q-12.5 0-22 9t-9.5 22q0 13 9.5 22.5t22.5 9.5v-1zm62 146l-11-88q-3-19-17.5-32t-33-13q-18.5 0-32.5 11v8q0 16-8 29 12 9 19.5 22.5t7.5 29.5v37q0 21-12 38h37v37q0 6 3.5 9.5t9 3.5q5.5 0 9-3.5t3.5-9.5v-39q9-4 16-11 11-12 9-29zm-206-177q0-13-9.5-22t-22-9q-12.5 0-22 9t-9.5 22q0 13 9.5 22.5t22 9q12.5-.5 22-9.5t9.5-22zm-85 206q7 7 16 11v39q0 6 3.5 9.5t9 3.5q5.5 0 9-3.5t3.5-9.5v-37h38q-13-17-13-38v-37q0-16 7.5-29.5t19.5-22.5q-8-14-8-29v-8q-14-11-32.5-11t-33 13q-14.5 13-17.5 32l-11 88q-2 17 9 29z"/></svg>