<svg viewBox="0 0 300 316" xmlns="http://www.w3.org/2000/svg"><path d="M288 279H63q-16 0-27-11t-11-26V16q0-5-3.5-8.5t-9-3.5Q7 4 3.5 7.5T0 16v225q0 17 8.5 31.5t23 23Q46 304 62 304h226q5 0 8.5-3.5t3.5-9q0-5.5-3.5-9T288 279zM75 254q5 0 8.5-3.5T87 242v-88q1-5-3-9t-9-4q-5 0-8.5 4t-3.5 9v87q0 6 3.5 9.5T75 254zm50-125v112q0 6 3.5 9.5t9 3.5q5.5 0 9-3.5t3.5-9.5V129q0-5-3.5-9t-9-4q-5.5 0-9 4t-3.5 9zm63 37v75q-1 6 3 9.5t9 3.5q5 0 9-3.5t4-9.5v-75q0-5-4-8.5t-9-3.5q-5 0-9 3.5t-4 8.5h1zm62-50v125q0 6 3.5 9.5t9 3.5q5.5 0 9-3.5t3.5-9.5V116q0-5-3.5-8.5t-9-3.5q-5.5 0-9 3.5T250 116zm-175 0q5 0 9-3l45-45q3-4 8.5-4t8.5 4l27 27q11 11 27 11t27-11l69-70q4-3 4-8.5t-3.5-9Q293 4 287.5 4T279 8l-70 69q-4 4-9 4t-9-4l-27-27q-11-11-26.5-11T111 50L66 95q-3 3-3.5 6.5t1 7Q65 112 68 114t7 2z"/></svg>