<svg viewBox="0 0 300 316" xmlns="http://www.w3.org/2000/svg"><path d="M163 4H63q-17 0-31.5 8.5t-23 23Q0 50 0 66v161q0 8 4 14t10 9.5q6 3.5 13.5 3.5t14.5-5l49-33h71q17 0 31.5-8t23-22.5Q225 171 225 154V66q0-16-8.5-30.5t-23-23Q179 4 162 4h1zm-33 162h-5q0 6-3.5 9.5t-9 3.5q-5.5 0-9-3.5T100 166h-3q-10 0-19-5t-14-13q-2-5-1-10t5.5-7.5q4.5-2.5 9.5-1t8 6.5q3 5 11 5h33q3 0 5-2t2-5q0-3-1.5-5.5T131 126l-41-7q-12-2-19.5-11T63 86q0-13 9.5-22.5T95 54h5q0-5 3.5-9t9-4q5.5 0 9 4t3.5 9h3q10 0 19 5t14 14q2 4 1 9t-5.5 7.5Q152 92 147 91t-8-6.5q-3-5.5-11-5.5H95q-3 0-5 2.5T88 87q0 3 1.5 5t4.5 2l41 7q12 2 20 11.5t8 22q0 12.5-10 22t-23 9.5zm170-50v161q0 8-4 14t-10 9.5q-6 3.5-13.5 3.5t-14.5-5l-49-33h-71q-14 0-25.5-5T92 246l7-5h64q23 1 43.5-11t32-32q11.5-20 11.5-44V66q0-4-1-11 22 4 36.5 21.5T300 116z"/></svg>