<svg viewBox="0 0 300 316" xmlns="http://www.w3.org/2000/svg"><path d="M275 54h-51q-5-22-22-36T162 4h-24q-23 0-40 14T76 54H25q-5 0-8.5 3.5t-3.5 9q0 5.5 3.5 9T25 79h11l16 168q2 25 20 41t42 16h72q24 0 42-16t20-41l16-168h11q5 0 8.5-3.5t3.5-9q0-5.5-3.5-9T275 54zM138 29h25q12 0 21.5 7T198 54h-96q4-11 13.5-18t22.5-7zm58 179q4 3 4 8.5t-3.5 9q-3.5 3.5-9 3.5t-8.5-4l-29-28-29 28q-3 4-8.5 4t-9-3.5q-3.5-3.5-3.5-9t4-8.5l28-29-28-29q-4-3-4-8.5t3.5-9q3.5-3.5 9-3.5t8.5 4l29 28 29-28q3-4 8.5-4t9 3.5q3.5 3.5 3.5 9t-4 8.5l-28 29 28 29z"/></svg>