<svg viewBox="0 0 300 316" xmlns="http://www.w3.org/2000/svg"><path d="M239 133q-5-4-8.5-3.5T225 135q-4 10-8 32-4 19-7 26-5 11-15 11-4 0-7-7-2-3-4-12l-2-6q-3-6-7-6.5t-7 4.5q-6 12-12 26-6 16-6 26 0 20 9.5 36.5t25.5 27q16 10.5 36 11.5t38.5-9.5Q278 284 289 266q16-26 9-53-5-22-24-46-13-14-35-34zm5 137q-7 9-19 9t-18.5-8q-6.5-8-6-18.5T208 235l10-13q3-3 7-3t7 3l10 13q7 7 7.5 17.5T244 270zm-119-41q0-16 10-40 5-13 12-24 5-9 12.5-13.5t17-4q9.5.5 17.5 6.5 3-17 8-28 7-17 23-20.5t30 8.5q30 26 45 47v-7q0-41-20-75.5T225.5 24Q191 4 150 4T74.5 24Q40 44 20 78.5T0 154q0 41 20 75.5T74.5 284q34.5 20 75.5 20h9q-16-14-25-33.5t-9-41.5zm38-125q-1-5 3-9t9-4q5 0 9 4t4 9v25q0 5-4 8.5t-9 3.5q-5 0-9-3.5t-4-8.5v-25h1zm-75 25q-1 5-4.5 8.5T75 141q-5 0-9-3.5t-3-8.5v-25q0-5 3.5-9t8.5-4q5 0 9 4t4 9v25zm25 0v-25q0-5 3.5-9t8.5-4q5 0 9 4t4 9v25q0 5-4 8.5t-9 3.5q-5 0-9-3.5t-4-8.5h1z"/></svg>