<svg viewBox="0 0 300 316" xmlns="http://www.w3.org/2000/svg"><path d="M296 283l-19-20q11-16 11-34V79q0-17-8.5-31.5t-23-23Q242 16 225 16H75q-19 0-34 11L21 8q-3-4-8.5-4t-9 3.5Q0 11 0 16.5T4 25l275 275q3 4 8.5 4t9-3.5q3.5-3.5 3.5-9t-4-8.5zM179 54h46q10 0 17.5 7.5T250 79v150q0 3-1 6l-24-24V79h-46q-5 0-9 4l-37 37-17-18 37-37q11-11 26-11zm-4 107v-20q0-5 3.5-8.5t9-3.5q5.5 0 9 3.5t3.5 8.5v38q0 3-1 6l-24-24zM75 54h25q4 0 7 2t4.5 5.5q1.5 3.5.5 7.5t-3 6l-9 11-31-31q3-1 6-1zm123 200l36 36q-6 1-9 1H75q-17 0-31.5-8T21 260.5Q13 246 13 229V79q0-3 1-9l36 36v123q0 10 7.5 17.5T75 254h123zm-98-98v23q0 10 7.5 17.5T125 204h23l25 25H75v-98l25 25z"/></svg>