<svg viewBox="0 0 300 316" xmlns="http://www.w3.org/2000/svg"><path d="M131 35q0-8 5.5-13.5T150 16q8 0 13.5 5.5T169 35q0 8-5.5 13.5T150 54q-8 0-13.5-5.5T131 35zM38 166q0-7-5.5-12.5T19 148q-8 0-13.5 5.5t-5.5 13q0 7.5 5.5 13T19 185q8 0 13.5-5.5T37 166h1zm262 0q0-7-5.5-12.5T281 148q-8 0-13 5.5t-5 13q0 7.5 5 13t13 5.5q8 0 13.5-5.5T300 166zM75 73q0-8-5.5-13.5T56 54q-8 0-13 5.5T38 73q0 8 5 13.5T56 92q8 0 13.5-5.5T75 73zm188 187q-1-8-6-13.5t-13-5q-8 .5-13.5 5.5t-5.5 13q0 8 5.5 13.5T244 279q8 0 13.5-5.5T263 260zM56 241q-8 0-13 5.5T38 260q0 8 5 13.5t13 5.5q8 0 13.5-5.5T75 260q0-8-5.5-13.5T56 242v-1zM244 54q-8 0-13.5 5.5T225 73q0 8 5.5 13.5T244 92q8 0 13.5-5.5t5-13.5q-.5-8-5.5-13.5T244 54zm-94 125q-5 0-8.5-3.5t-3.5-9q0-5.5 3.5-9t8.5-3.5h87q-4-21-16-38t-30.5-27Q172 79 149 79t-43 12q-20 12-31.5 32T63 166.5Q63 190 74.5 210t31.5 32q20 12 43 12t41.5-10q18.5-10 30.5-27t16-38h-87z"/></svg>