<svg viewBox="0 0 300 316" xmlns="http://www.w3.org/2000/svg"><path d="M150 4q-41 0-75.5 20T20 78.5Q0 113 0 154t20 75.5Q40 264 74.5 284t75.5 20q41 0 75.5-20t54.5-54.5q20-34.5 20-75.5t-20-75.5Q260 44 225.5 24T150 4zM75 185q-4 0-7-2t-5-6.5q-2-4.5.5-9T71 161l50-18q5-2 9.5.5t6.5 7q2 4.5-.5 9.5t-7.5 6l-50 19h-4zm123 51q-4 5-9.5 5t-8.5-2q-4-3-9-5-11-5-21-5t-21 5q-6 3-9.5 5.5t-8.5 2q-5-.5-8.5-5T100 227q1-5 5.5-8.5T119 211q16-7 31-7t31 7q8 4 14 8 4 3 5 8t-2 9zm39-59q-2 4-5 6t-6 2q-3 0-5-1l-50-18q-5-1-7.5-6t-.5-9.5q2-4.5 6.5-7t9.5-.5l50 18q5 2 7.5 6.5t.5 9.5z"/></svg>