<svg viewBox="0 0 300 316" xmlns="http://www.w3.org/2000/svg"><path d="M169 104q0 13 9 22t22 9q13 0 22-9t9-22q0-13-9-22t-22-9q-13 0-22 9t-9 22zm119 100q-6 0-9.5 3.5T275 217v24q0 16-11 27t-27 11h-24q-6 0-9.5 3.5t-3.5 9q0 5.5 3.5 9t8.5 3.5h26q16 0 30.5-8.5t23-23Q300 258 300 242v-26q0-5-3.5-8.5T288 204zM13 104q5 0 8.5-3.5T25 92V66q0-15 11-26t26-11h26q5 0 8.5-3.5t3.5-9q0-5.5-3.5-9T87 4H63q-17 0-31.5 8.5t-23 23Q0 50 0 66v25q0 6 3.5 9.5T12 104h1zm75 175H63q-16 0-27-11t-11-26v-26q0-5-3.5-8.5t-9-3.5q-5.5 0-9 3.5T0 217v24q0 17 8.5 31.5t23 23Q46 304 62 304h26q5 0 8.5-3.5t3.5-9q0-5.5-3.5-9T87 279h1zM238 4h-25q-6 0-9.5 3.5t-3.5 9q0 5.5 3.5 9T212 29h26q15 0 26 11t11 27v24q0 6 3.5 9.5t9 3.5q5.5 0 9-3.5T300 92V66q0-16-8.5-30.5t-23-23Q254 4 238 4zm-4 216l-95-95q-11-11-26.5-11T86 125l-29 29q-7 7-7 18v32q0 16 11 27t27 11h137q4-1 7-3t4.5-5.5q1.5-3.5 1-7T234 220z"/></svg>