<svg viewBox="0 0 300 316" xmlns="http://www.w3.org/2000/svg"><path d="M180 215q10 11 7 28l-6 36q-3 11-12 18t-19 7q-10 0-19-7t-11-18l-7-35q-2-18 7.5-29t29.5-11q20 0 30 11zm-5-61q0-10-7.5-17.5T150 129q-10 0-17.5 7.5T125 154q0 10 7.5 17.5T150 179q10 0 17.5-7.5T175 154zM150 4q-41 0-75.5 20T20 78.5Q0 113 0 154q0 38 18 71.5T68 280q5 3 10 1.5t7.5-5.5q2.5-4 1.5-9t-5-8q-27-18-42-45.5T25 153q0-33 17-61.5T87.5 46Q116 29 150 29t62.5 17Q241 63 258 91.5t17 61.5q0 33-15 60.5T218 259q-4 3-5 8t2 10q3 5 10 5 4 0 7-2 32-21 50-54.5t18-71.5q0-41-20-75.5T225.5 24Q191 4 150 4zm73 198q15-22 15-48-1-24-12.5-44T194 78.5Q174 67 150 67t-44 11.5Q86 90 74 110t-12 45q0 25 15 47 3 4 8 5t9.5-1.5q4.5-2.5 5.5-8t-2-9.5q-10-16-10-33.5t8-32q8-14.5 22.5-23T150 91q17 0 31.5 8.5t23 23Q213 137 213 155t-11 34q-3 4-2 9t5 7.5q4 2.5 7 2.5 7 0 11-6z"/></svg>