<svg viewBox="0 0 300 316" xmlns="http://www.w3.org/2000/svg"><path d="M289 90q-29-11-43-35l51-42q3-3 .5-7T291 3l-53 20V13q0-5-3.5-7.5T226 4q-9 3-16 11t-9 18q-25 8-38 31-11 18-13 40-1 13-13 13h-37q-12 0-23.5 5T59 136q-25 8-40 29-19 28-19 77 0 5 3.5 8.5t9 3.5q5.5 0 9-3.5T25 242q0-53 25-73 0 13 5 30 3 11 9 29l5 15-4 33q-2 11 4.5 19.5t18 8.5q11.5 0 19-6t8.5-16l5-40h55v36q0 9 6 16.5t15 9.5q11 2 20-5.5t9-19.5v-42l5-23q4-15 5.5-25.5T237 165v-25q1-4 4-8t8-4l35-4q7 0 11.5-5t4.5-11.5q0-6.5-3-11t-8-6.5z"/></svg>