<svg viewBox="0 0 300 316" xmlns="http://www.w3.org/2000/svg"><path d="M0 85q0-13 9-22t22-9q13 0 22 9t9.5 22q.5 13-9 22.5t-22.5 9Q18 116 9 107T0 85zm50 194H13q-6 0-9.5 3.5t-3.5 9q0 5.5 3.5 9T13 304h37q5 0 9-3.5t4-9q0-5.5-4-9t-9-3.5zm219-163q13 1 22-8.5t9-22.5q0-13-9-22t-22-9q-13 0-22.5 9t-9 22q.5 13 9.5 22.5t22 9.5v-1zM81 229H63v-69q0-13-9.5-22T31 129q-13 0-22 9t-9 22v56q0 16 11 27t26 11h44q3 0 5 2t1 4v31q1 6 4.5 9.5t8.5 3.5q5 0 8.5-3.5t3.5-9.5v-31q1-13-8.5-22T81 229zm107 31v31q0 6 3.5 9.5t8.5 3.5q5 0 9-3.5t3-9.5v-31q1-2 2.5-4t4.5-2h44q15 0 26-11t11-27v-56q0-13-9-22t-22-9q-13 0-22.5 9t-9.5 22v69h-18q-13 0-22.5 9t-9.5 22h1zm100 19h-38q-5 0-8.5 3.5t-3.5 9q0 5.5 3.5 9t8.5 3.5h38q5 0 8.5-3.5t3.5-9q0-5.5-3.5-9T287 279h1zm-75-100q0-5-4-8.5t-9-3.5H100q-5-1-8.5 3t-3.5 9q0 5 3.5 8.5t8.5 3.5h100q5 0 9-3.5t3-8.5h1zm-64-56q-7 0-13-5l-17-14h-1q-13 0-22-9t-9-22V35q0-13 9-22t22-9h63q13 0 22 9t9 22v38q0 13-9 22t-22 9h-3l-17 14q-5 5-12 5z"/></svg>