<svg viewBox="0 0 300 316" xmlns="http://www.w3.org/2000/svg"><path d="M100 66q0-20-14.5-35T50 16q-21 0-35.5 15T0 66q0 18 10.5 31.5T38 115v91q-17 4-27.5 17.5T0 254q0 21 14.5 35.5T50 304q21 0 35.5-14.5T100 254q0-17-10.5-30.5T62 206v-91q17-4 27.5-17.5T100 67v-1zm163 140v-90q-1-16-9-30.5t-22.5-23Q217 54 200 54h-43l27-29q4-4 3.5-9t-4-8.5Q180 4 175 4t-9 4l-30 31q-11 11-11 26.5T136 92l30 33q4 4 9 4t8.5-3.5q3.5-3.5 4-8.5t-3.5-9l-26-29h42q16 0 27 11t11 26v90q-17 4-27.5 17.5T200 254q0 21 14.5 35.5T250 304q21 0 35.5-14.5T300 254q0-17-10.5-30.5T263 206z"/></svg>