<svg viewBox="0 0 300 316" xmlns="http://www.w3.org/2000/svg"><path d="M166 97l85-85q8-8 20-8t20.5 8.5Q300 21 300 33t-8 20l-85 85q-16 16-39 16h-18v-18q0-23 16-38v-1zm93 24l-35 35q-11 11-25.5 17t-30.5 6h-30q-6 0-9.5-3.5T125 167v-31q0-10 2-19H63q-17 0-31.5 8t-23 22.5Q0 162 0 179v50q0 17 8.5 31.5t23 22.5q14.5 8 31.5 8h175q16 0 30.5-8t23-22.5Q300 246 300 229v-50q0-20-11.5-36T259 121zM69 228q-8 0-13.5-5.5t-5.5-13q0-7.5 5.5-13T69 191q8 0 13.5 5.5t5.5 13q0 7.5-5.5 13T69 228zm62 0q-7 0-12.5-5.5t-5.5-13q0-7.5 5.5-13t13-5.5q7.5 0 13 5.5t5.5 13q0 7.5-5.5 13T131 228z"/></svg>