<svg viewBox="0 0 300 316" xmlns="http://www.w3.org/2000/svg"><path d="M175 91V10q18 6 31 20l43 43q14 13 20 31h-81q-6 0-9.5-3.5T175 91zm19 100h-88q-2 1-4 2.5t-2 4.5v25q0 2 2 4t4 2h88q2 0 4-2t2-4v-25q0-3-2-5t-4-1v-1zm81-56v106q0 17-8.5 31.5t-23 23Q229 304 212 304H88q-17 0-31.5-8.5t-23-23Q25 258 25 241V66q0-16 8.5-30.5t23-23Q71 4 87 4h63v87q0 16 11 27t26 11h88v6zM75 79q0 5 3.5 8.5T87 91h26q5 0 8.5-3.5T125 79q0-5-3.5-8.5T113 67H88q-6 0-9.5 3.5T75 79zm0 50q0 5 3.5 8.5T87 141h26q5 0 8.5-3.5t3.5-8.5q0-5-3.5-9t-8.5-3H88q-6-1-9.5 3t-3.5 9zm150 69q0-13-9-22.5t-22-9.5h-88q-13 0-22 9.5T75 198v25q0 13 9 22t22 9h88q13 0 22-9t9-22v-25z"/></svg>