<svg viewBox="0 0 300 316" xmlns="http://www.w3.org/2000/svg"><path d="M75 79h38v37H75V79zm113 150h37v-38h-37v38zm-113 0h38v-38H75v38zm113-113h37V79h-37v37zm112-50v175q0 17-8.5 31.5t-23 23Q254 304 238 304H63q-17 0-31.5-8.5t-23-23Q0 258 0 241V66q0-16 8.5-30.5t23-23Q46 4 63 4h175q16 0 30.5 8.5t23 23Q300 50 300 67v-1zM138 185q0-8-5.5-13t-13.5-5H69q-8 0-13.5 5T50 185v50q0 8 5.5 13.5T69 254h50q8 0 13.5-5.5T137 235v-50h1zm0-112q0-8-5.5-13.5T119 54H69q-8 0-13.5 5.5T50 73v50q0 8 5.5 13t13.5 5h50q8 0 13-5t5-13V73h1zm112 112q0-8-5.5-13.5T231 167h-50q-8-1-13 4.5t-5 13.5v50q0 8 5 13.5t13 5.5h50q8 0 13.5-5.5T250 235v-50zm0-112q0-8-5.5-13.5T231 54h-50q-8 0-13 5.5T163 73v50q0 8 5 13t13 5h50q8 0 13.5-5t5.5-13V73z"/></svg>