<svg viewBox="0 0 300 316" xmlns="http://www.w3.org/2000/svg"><path d="M299 231q2 13-1.5 26.5t-12.5 24q-9 10.5-21.5 16.5t-26.5 6h-37q-5 0-8.5-3.5T187 292v-33q-18 7-37 7t-38-7v32q1 6-3 9.5t-9 3.5H63q-14 0-26.5-6T15 281.5q-9-10.5-12.5-24T1 231l4-22q2-11 9.5-19T33 179.5q11-2.5 21.5 1.5T71 195q13 19 33 32 23 14 46 14 19 0 37.5-9.5t32-25Q233 191 239 174q2-3 5-5.5t7-2.5h6q7 0 12.5-5.5T275 148q0-7-4.5-12t-10.5-7q-4 0-7-3.5t-4-7.5q-2-24-15.5-44T199 42q-5 17-14 32-24 35-62 56 6 1 10 5.5t4.5 10.5q.5 6-2.5 11t-8 7.5q-5 2.5-11 1.5t-10.5-5q-4.5-4-5.5-10t2-11q-44 18-91 14-4-1-7-3.5T.5 144q-.5-4 1-7.5T6 131q12-13 17-30 12-28 21-42 16-25 38-38 28-17 68-17 30 0 56.5 13.5t44 37Q268 78 273 107q12 6 19.5 17t7.5 24q0 16-11 28l1 1 9 54zm-99-83q0-8-5.5-13.5T181 129q-8 0-13.5 5.5t-5 13.5q.5 8 5.5 13.5t13 5q8-.5 13.5-5.5t5.5-13z"/></svg>