<svg viewBox="0 0 300 316" xmlns="http://www.w3.org/2000/svg"><path d="M238 79h-75V41q0-5-4-8.5t-9-3.5q-5 0-9 3.5t-4 8.5v38H63q-17 0-31.5 8.5t-23 23Q0 125 0 141v50q0 17 8.5 31.5t23 23Q46 254 62 254h176q16 0 30.5-8.5t23-23Q300 208 300 192v-51q0-16-8.5-30.5t-23-23Q254 79 238 79zm-113 50h13q5 0 8.5 3.5t3.5 9q0 5.5-3.5 9T138 154h-13q-5 0-8.5-3.5t-3.5-9q0-5.5 3.5-9t8.5-3.5zm-62 75q-6 0-9.5-3.5t-3.5-9q0-5.5 3.5-9t9-3.5q5.5 0 9 3.5t3.5 9q0 5.5-3.5 9T62 204h1zm12-50H63q-6 0-9.5-3.5t-3.5-9q0-5.5 3.5-9T63 129h12q5 0 8.5 3.5t4 9q.5 5.5-3.5 9t-9 3.5zm113 50h-75q-6 0-9.5-3.5t-3.5-9q0-5.5 3.5-9t9.5-3.5h75q5 0 8.5 3.5t3.5 9q0 5.5-3.5 9T188 204zm50 0q-6 0-9.5-3.5t-3.5-9q0-5.5 3.5-9t9-3.5q5.5 0 9 3.5t3.5 9q0 5.5-3.5 9T238 204zm0-50h-50q-6 0-9.5-3.5t-3.5-9q0-5.5 3.5-9t8.5-3.5h51q5 0 8.5 3.5t3.5 9q0 5.5-3.5 9T238 154z"/></svg>