<svg viewBox="0 0 300 316" xmlns="http://www.w3.org/2000/svg"><path d="M289 90q-28-11-43-34l52-42q3-3 1-7t-6-3l-56 20V12q0-4-2.5-6.5T228 4q-10 3-17.5 11T201 33q-24 8-38 30-11 18-13 40-17-4-42-29-18-18-34-41-4-5-10-4t-9 8q-3 10-4.5 25.5T54 95q6 21 21 39 19 22 49 36 5 2 6.5 6.5t-.5 9.5q-2 5-7 7t-10-1q-23-11-38-23t-26-29q-20 9-32 29-15 24-17 59v13q0 6 3.5 9.5t9 3.5q5.5 0 9-3.5T25 242v-12q3-43 25-61 0 13 5 30 3 11 9 29l5 14-4 34q-2 11 5.5 19.5T89 304h1q10 0 17-6.5t8-15.5l5-41h55v38q0 11 9 19t20 6q9-2 15-9.5t6-16.5v-41l5-23q4-15 5.5-25.5T237 165v-25q0-5 3.5-8.5t8.5-3.5l35-4q7 0 11.5-5.5T300 107q0-6-3-10.5t-8-6.5z"/></svg>