<svg viewBox="0 0 300 316" xmlns="http://www.w3.org/2000/svg"><path d="M150 29v262q0 6-3.5 9.5t-9 3.5q-5.5 0-9-3.5T125 291V29H63q-16 0-27 11T25 66v13q0 5-3.5 8.5t-9 3.5q-5.5 0-9-3.5T0 79V66q0-16 8.5-30.5t23-23Q46 4 63 4h150q16 0 30.5 8.5t23 23Q275 50 275 66v13q0 5-3.5 8.5t-9 3.5q-5.5 0-9-3.5T250 79V66q0-15-11-26t-26-11h-63zm122 216l-22 21V154l22 22q4 3 9 3t8.5-3.5q3.5-3.5 3.5-8.5t-3-9l-35-34q-7-7-17-7-11 0-18 7l-34 34q-4 4-4 9t3.5 9q3.5 4 9 4t8.5-4l22-22v112l-22-21q-3-4-8.5-4t-9 3.5q-3.5 3.5-3.5 9t4 8.5l34 35q7 7 18 7 10 0 17-7l34-35q4-3 4-8.5t-3.5-9q-3.5-3.5-9-3.5t-8.5 4z"/></svg>