<svg viewBox="0 0 300 316" xmlns="http://www.w3.org/2000/svg"><path d="M256 79h-18V41q5 0 8.5-3.5T250 29q0-5-3.5-9t-9.5-4H13q-6 1-9.5 4.5T0 29q0 5 3.5 8.5T13 41v188q0 17 8 31.5T43.5 283q14.5 8 31.5 8h100q17 0 31.5-8t22.5-22.5q8-14.5 8-31.5v-13h19q18 0 31-12.5t13-30.5v-50q0-18-13-31t-31-13zM88 229q0 5-3.5 9t-9 4q-5.5 0-9-4t-3.5-9V79q0-5 3.5-8.5t9-3.5q5.5 0 9 3.5T88 79v150zm50 0q0 5-3.5 9t-9 4q-5.5 0-9-4t-3.5-9V79q0-5 3.5-8.5t9-3.5q5.5 0 9 3.5T138 79v150zm50 0q0 5-3.5 9t-9 4q-5.5 0-9-4t-3.5-9V79q0-5 3.5-8.5t9-3.5q5.5 0 9 3.5T188 79v150zm87-56q0 8-5.5 13t-13.5 5h-18v-87h18q8 0 13.5 5.5T275 123v50z"/></svg>