<svg viewBox="0 0 300 316" xmlns="http://www.w3.org/2000/svg"><path d="M225 154q0-20-10-37.5T187.5 89Q170 79 150 79t-37.5 10Q95 99 85 116.5T75 154q0 20 10 37.5t27.5 27.5q17.5 10 37.5 10t37.5-10q17.5-10 27.5-27.5t10-37.5zm-42 14l-24 31q-3 5-9 5t-9-5l-24-31q-5-6-5-14t5-14l24-31q3-5 9-5t9 5l24 31q5 6 5 14t-5 14zM120 7q30-6 60 0l-11 38q-1 5-4.5 7.5T157 54h-14q-4 1-7.5-1.5T131 45L120 7zm73 46l11-39q30 12 52 34t34 52l-39 11q-4 1-8-.5t-6-5.5q-14-24-38-38-4-2-5.5-6t-.5-8zm57 94q-1-4 1.5-7.5t7.5-4.5l38-11q6 30 0 60l-38-11q-5-1-7.5-4.5T250 161v-14zM49 110L11 98q12-29 34-50.5T96 14l11 39q1 4-.5 8t-5.5 6q-24 13-38 38-2 3-6 4.5t-8 .5zm133 190q-32 8-64 0l12-38q1-4 4.5-6.5t8.5-1.5h14q5-1 8.5 1.5t4.5 6.5l12 38zM50 161q1 5-1.5 8.5T42 174L4 186q-8-32 0-64l38 12q4 1 6.5 4.5T50 147v14zm201 36l39 11q-12 29-33.5 51T206 293l-12-38q-1-4 .5-8t4.5-6q25-14 38-38 2-4 6-5.5t8-.5zm-145 58l-12 38q-28-11-50-33t-33-50l38-12q4-1 8 .5t6 4.5q14 24 38 38 3 2 4.5 6t.5 8z"/></svg>