<svg viewBox="0 0 300 316" xmlns="http://www.w3.org/2000/svg"><path d="M125 129q0-10 7.5-17.5T150 104q10 0 17.5 7.5T175 129q0 10-7.5 17.5T150 154q-10 0-17.5-7.5T125 129zm175-38v125q0 17-8.5 31.5t-23 23Q254 279 238 279H63q-17 0-31.5-8.5t-23-23Q0 233 0 216V91q0-16 8.5-30.5t23-23Q46 29 63 29h175q16 0 30.5 8.5t23 23Q300 75 300 91zm-200 38q0 21 14.5 35.5T150 179q21 0 35.5-14.5T200 129q0-21-14.5-35.5T150 79q-21 0-35.5 14.5T100 129zm110 105q-11-14-26.5-22t-33.5-8q-18 0-33.5 8T90 234q-3 4-2.5 9t5 8.5Q97 255 102 254t8-5q7-10 17.5-15t22.5-5q12 0 22.5 5t17.5 15q4 5 9 5t9-3q4-3 4.5-8t-2.5-9z"/></svg>