<svg viewBox="0 0 300 316" xmlns="http://www.w3.org/2000/svg"><path d="M129 41l-17 28q-3 4-8 5t-9-1.5q-4-2.5-5.5-7T91 56l17-29q7-10 18-16.5T150 4q13 0 24 6.5T192 27l52 86 6-30q1-5 5-8t9.5-2q5.5 1 8 5.5T274 88l-6 33q-3 16-16 24.5t-28 5.5l-33-6q-5-1-7.5-5.5T182 130q1-5 5-8t9-2l27 5-52-84q-4-6-9.5-9T150 29q-6 0-11.5 3t-9.5 9zm164 150l-12-19q-4-7-11.5-7t-11 7q-3.5 7 .5 13l12 19q4 6 4 12.5t-3 12.5q-3 6-9 9.5t-12 2.5h-93l16-15q4-4 4-9t-3.5-9q-3.5-4-9-4t-8.5 4l-21 21q-11 10-11 24v1q0 15 11 26l21 21q5 5 12 3t9-9q2-7-4-12l-16-17h93q13 0 24.5-6.5t18-18.5q6.5-12 6.5-25t-7-25zm-192-73q-3-15-16-24t-29-6l-32 7q-8 1-10 8t2.5 12.5Q21 121 28 119l27-5-48 77q-7 12-7 25t6.5 25q6.5 12 18 18.5T49 266h40q5 0 8.5-3.5t3.5-8.5q0-5-3.5-8.5T88 242H49q-6 0-12-3.5t-9-9.5q-3-6-3-12.5t4-12.5l48-78 5 30q1 5 5.5 8t9.5 2q5-1 8-5t2-9l-6-34z"/></svg>