<svg viewBox="0 0 300 316" xmlns="http://www.w3.org/2000/svg"><path d="M212 266v5q1 18-2 24-3 9-16 9-16 0-44-25-28 25-44 25-13 0-16-9-3-6-3-24v-9q0-18 3-24 3-9 16-9 16 0 44 25 28-25 44-25 13 0 16 9 3 6 2 24v5-1zm82-137q-7-11-18-18-4-3-5.5-7t-.5-8q3-13-1-26t-13-22q-9-9-22-13t-26-1q-4 1-8-.5t-7-5.5q-7-11-18.5-17.5T150 4q-13 0-24.5 6.5T107 28q-3 4-7 5.5t-8 .5q-13-3-26 1T44 48q-9 9-13 22t-1 26q1 4-.5 8t-5.5 7q-11 7-17.5 18.5T0 154q0 13 6.5 24.5T24 197q4 3 5.5 7t.5 8q-3 13 .5 25.5t12 21.5q8.5 9 19.5 13v-10q0-16 2-24 3-14 11-22 12-12 31-12 3 0 8 1-12-9-19-22.5T88 153q0-16 8-30.5t22.5-22.5q14.5-8 31.5-8t31.5 8q14.5 8 23 22.5T213 153q0 16-7.5 29.5T186 205q5-1 8-1 19 0 31 12 8 8 11 22 2 8 1 24v10q12-4 20.5-13t12-21.5q3.5-12.5.5-25.5-1-4 .5-8t5.5-7q11-7 17.5-18.5T300 154q0-13-6-25z"/></svg>