<svg viewBox="0 0 300 316" xmlns="http://www.w3.org/2000/svg"><path d="M163 67q28-26 36-46 3-6-1-11.5T187 4h-74q-7 0-11 5.5T101 21q8 20 36 46-33 5-62 32-28 25-45 60.5T13 229q0 20 10 37.5T50 294q17 10 38 10h125q20 0 37-10t27-27.5q10-17.5 10-37.5 1-34-16.5-69.5T225 99q-29-27-62-32zm-30 109l38 6q13 2 21 12t8 23q0 15-11 26t-26 11v13q0 5-4 8.5t-9 3.5q-5 0-8.5-3.5T138 267v-13h-4q-10 0-18.5-5T102 235q-3-4-1.5-9t6-7.5q4.5-2.5 9.5-1.5t8 6.5q3 5.5 10 5.5h29q5 0 8.5-3.5t3.5-8q0-4.5-2.5-7T167 207l-38-6q-13-2-21-12t-8-22q0-16 11-27t26-11v-12q1-6 4.5-9.5t8.5-3.5q5 0 8.5 3.5t3.5 9.5v12h4q10 0 18.5 5t13.5 14q3 4 1.5 9t-6 7.5Q189 167 184 166t-8-6.5q-3-5.5-10-5.5h-29q-5 0-8.5 3.5t-3.5 8q0 4.5 2.5 7t5.5 3.5z"/></svg>