<svg viewBox="0 0 300 316" xmlns="http://www.w3.org/2000/svg"><path d="M296 283l-86-87 3-16h2q10 0 16.5-7t6.5-16q0-11-21-46-18-32-31-47-16-16-36.5-25.5T106 29q-26 0-50 13L21 8q-3-4-8.5-4t-9 3.5Q0 11 0 16.5T4 25l275 275q3 4 8.5 4t9-3.5q3.5-3.5 3.5-9t-4-8.5zm-33-67q0 6-4 9.5t-9 3.5q-5 0-8.5-3.5t-3.5-9q0-5.5 3.5-9t8.5-3.5q5 0 9 3.5t4 8.5zm37 25q0 6-3.5 9.5t-9 3.5q-5.5 0-9-3.5t-3.5-9q0-5.5 3.5-9t9-3.5q5.5 0 9 3.5t3.5 8.5zm0-50q0 6-3.5 9.5t-9 3.5q-5.5 0-9-3.5t-3.5-9q0-5.5 3.5-9t9-3.5q5.5 0 9 3.5t3.5 8.5zm-169 88H69q-13 0-22-9.5T38 246v-9q0-14-9-24-14-17-21.5-38T0 135q0-26 13-49 2-6 8.5-7T33 83l137 137q3 3 3.5 6.5t-.5 7.5q-3 7-10 7v7q0 13-9.5 22t-22.5 9z"/></svg>