<svg viewBox="0 0 300 316" xmlns="http://www.w3.org/2000/svg"><path d="M138 198q0 13-9.5 22t-22.5 9q-13 0-22-9t-9-22q0-13 9-22.5t22-9.5q13 0 22.5 9.5T138 198zm120-74q-7 12-11 18h9q9-1 16.5 3.5t11.5 12q4 7.5 3.5 16.5t-5.5 16q-19 30-44 54-29 27-60 43-36 17-72 17-21 0-40.5-8T31 273q-15-15-23-34.5T0 198q0-36 17-72 16-31 43-60 24-25 54-44 7-5 16-5.5t16.5 3.5q7.5 4 12 11.5T163 48v9l55-34q20-12 30.5-16T270 5q11 2 19 10t10.5 19q2.5 11-2 21.5T282 86l-24 38zm-95 74q0-24-16.5-40.5t-40-16.5q-23.5 0-40 16.5t-16.5 40q0 23.5 16.5 40t40 16.5q23.5 0 40-16.5T163 198z"/></svg>