<svg viewBox="0 0 300 316" xmlns="http://www.w3.org/2000/svg"><path d="M231 141q26 0 43-14t22.5-34q5.5-20 0-40.5t-22.5-34Q257 5 231 5t-42.5 13.5Q172 32 166 52.5t0 40.5q6 20 22.5 34t42.5 15v-1zm0-25q-11 0-20-5l59-59q5 10 4.5 21.5t-6 21.5q-5.5 10-15.5 15.5t-22 6.5v-1zm0-87q11 0 21 5l-59 59q-6-10-5.5-21.5T194 50q6-10 16-15.5t21-5.5zm0 137q20 1 38-7t31-23v105q0 17-8.5 31.5t-23 23Q254 304 237 304H63q-17 0-31.5-8.5t-23-23Q0 258 0 242V104l1-6 105 105q12 12 28 16.5t32 0q16-4.5 28-15.5l37-38zm-108 20L9 72q9-14 23-22t30-8h81q-6 17-5 36t9 35.5q8 16.5 22 29t32 18.5l-24 25q-11 11-27 11t-27-11z"/></svg>