<svg viewBox="0 0 300 316" xmlns="http://www.w3.org/2000/svg"><path d="M50 248q0 8-5.5 13T31 266q-8 0-13.5-5t-5-13q.5-8 5.5-13.5t13-5.5q8 0 13.5 5.5T50 248zM175 41q-3-17-17-24Q126 0 91.5 5t-60 30.5Q6 61 1 95.5T13 162q7 14 24 17h5q15 0 25-10l98-98q6-6 8.5-14t1.5-16zm81 25q8 0 13.5-5t5.5-13q0-8-5.5-13.5T256 29q-8 0-13.5 5.5t-5 13.5q.5 8 5.5 13t13 5zM105 194q-4 4-4.5 9t2.5 9q9 11 9 33 1 10-3 20t-12 18q-3 4-3 9t3.5 8.5q3.5 3.5 9 3.5t8.5-4q11-11 17-26t5-30q0-30-15-48-3-4-8-4.5t-9 2.5zm176-28q-8 0-13 5.5t-5.5 13.5q-.5 8 5 13.5T281 204q8 0 13.5-5.5T300 185q0-8-5.5-13.5T281 166zm16-77q-4-4-9-4t-9 4q-10 9-19 12-6 3-13 3-11 0-20-5-5-3-12-10-4-4-9-4t-8.5 4q-3.5 4-3.5 9t4 9q9 9 17 14 15 8 32 8 13 0 25-5.5t24-16.5q4-4 4-9t-3-9zm-141 52q-8 0-13.5 5.5T137 160q0 8 5.5 13.5T156 179q8 0 13.5-5.5T175 160q0-8-5.5-13.5T156 141zm125 125q-8 0-13 5.5t-5 13.5q0 8 5 13.5t13 5.5q8 0 13.5-5.5T300 285q0-8-5.5-13.5T281 266zm-78-58q-4 3-4 8.5t3 8.5q3 3 6 8 4 9 4 21 1 17-9 30-4 4-3 9t4.5 8q3.5 3 9 3t8.5-5q16-20 15-45 0-18-7-34-5-8-9-12t-9-4q-5 0-9 4z"/></svg>