<svg viewBox="0 0 300 316" xmlns="http://www.w3.org/2000/svg"><path d="M44 66q7-12 18-19.5T87 37l51-7V17q0-6 3.5-9.5T150 4q5 0 9 3.5t4 9.5v13l50 7q14 2 25 9.5T256 67H44v-1zm244 225q-1 6-4.5 9.5T275 304H25q-5 0-8.5-3.5t-3.5-9q0-5.5 3.5-9T25 279h13V92h224v187h13q5 0 8.5 3.5t3.5 9.5l1-1zM63 141q0 6 3.5 9.5T75 154q5 0 9-3.5t4-9.5v-12q0-5-4-8.5t-9-3.5q-5 0-8.5 3.5T63 129v12zm50 50q-1-5-4.5-8.5T100 179H75q-5 0-9 3.5t-3 8.5v25q0 6 3.5 9.5T75 229h25q5 0 9-3.5t4-8.5v-26zm25-62q0-5-4-8.5t-9-3.5q-5 0-9 3.5t-4 8.5v12q0 6 4 9.5t9 3.5q5 0 9-3.5t4-9.5v-12zm50 0q0-5-4-8.5t-9-3.5q-5 0-9 3.5t-4 8.5v12q1 6 4.5 9.5t8.5 3.5q5 0 9-3.5t4-9.5v-12zm50 0q0-5-4-9t-9-3.5q-5 .5-9 4t-4 8.5v12q1 6 4.5 9.5t8.5 3.5q5 0 8.5-3.5t4.5-9.5v-12z"/></svg>