<svg viewBox="0 0 300 316" xmlns="http://www.w3.org/2000/svg"><path d="M256 191H156q-18 0-30.5 13T113 235q0 18 12.5 31t30.5 13h100q18 0 31-13t13-31q0-18-13-30.5T256 192v-1zm0 63h-56v-38h56q8 0 13.5 5.5T275 235q0 8-5.5 13.5T256 254zM156 116h100q18 0 31-12.5T300 73q0-18-13-31t-31-13H156q-18 0-30.5 13T113 73q0 18 12.5 30.5T156 116zm82-62h18q8 0 13.5 5.5T275 73q0 8-5.5 13T256 91h-18V54zM13 41q0-15 10.5-26T50 4q16 0 27 11t10.5 26.5Q87 57 76.5 68T50 79q-16 0-26.5-11T13 42v-1zm86 84q3 6-1 11t-10 6H13q-7-1-10.5-6T1 125q5-15 18.5-24.5T50 91q17 0 30.5 9.5T99 125zM50 241q-16 0-26.5-10.5t-11-26.5Q12 188 23 177t27-11q16 0 27 11t11 27q0 16-11 27t-27 11v-1zm49 46q3 6-1 11.5T88 304H13q-7 0-10.5-5.5T1 287q5-15 18.5-24t30.5-9q17 0 30.5 9T99 287z"/></svg>