<svg viewBox="0 0 300 316" xmlns="http://www.w3.org/2000/svg"><path d="M206 304q-25 0-46.5-12.5t-34-34Q113 236 113 210v-19q-1-5 3-8.5t9-3.5q5 0 8.5 3.5t3.5 9.5v18q1 19 10 34.5t25 25q16 9.5 34.5 9.5t34-9.5q15.5-9.5 25-25T275 210V16q0-5 3.5-8.5t9-3.5q5.5 0 9 3.5T300 16v194q0 26-12.5 47.5t-34 34Q232 304 206 304zM175 4H75Q55 4 37.5 14T10 41.5Q0 59 0 78.5t9.5 37q9.5 17.5 25 28t33 10.5Q85 154 94 141l5-9q8-13 12-19 8-9 14-9t14 9q4 6 12 19l5 9q4 6 10 9.5t15 3.5q18 0 34-10.5t25.5-27.5q9.5-17 9.5-37t-10-37.5Q230 24 212.5 14T175 4z"/></svg>