<svg viewBox="0 0 300 316" xmlns="http://www.w3.org/2000/svg"><path d="M22 154h256l21-100q2-9 0-17t-8-14.5q-6-6.5-14.5-9T260 13l-10 2q-11 1-13 1-12-2-23-9-14-6-28-1-17 8-36 11-19-3-36-11-14-5-28 1-11 7-24 9-1 1-12-1l-10-2q-8-2-16.5.5T9.5 22q-5.5 6-8 14.5T1 53l21 101zM188 54q0-5 3.5-9t8.5-4q5 0 9 4t4 9v62q0 6-4 9.5t-9 3.5q-5 0-8.5-3.5T187 117l1-63zM88 54q-1-5 3-9t9-4q5 0 8.5 4t3.5 9v62q1 6-3 9.5t-9 3.5q-5 0-8.5-3.5T88 117V54zm12 212q0 16-11 27t-26.5 11Q47 304 36 293t-11-26.5Q25 251 36 240t26.5-11Q78 229 89 240t11 26zm175 0q0 16-11 27t-26.5 11q-15.5 0-26.5-11t-11-26.5q0-15.5 11-26.5t26.5-11q15.5 0 26.5 11t11 26zm0-87v37q-14-10-31.5-11.5T210 211q-16 8-25.5 23t-9.5 33h-50q0-18-9.5-33T90 211q-16-8-33.5-6.5T25 216v-37h250z"/></svg>