<svg viewBox="0 0 300 316" xmlns="http://www.w3.org/2000/svg"><path d="M100 179q0-17 10.5-30.5T138 131V41q0-15 10.5-26T175 4h25q5 0 9 3.5t4 9q0 5.5-4 9t-9 3.5h-25q-5 0-9 3.5t-4 8.5v13h38q5 0 9 3.5t4 9q0 5.5-4 9t-9 3.5h-37v52q18 5 28.5 21t7.5 35.5q-3 19.5-18.5 31t-35 10q-19.5-1.5-32.5-16T100 179zm179 94q-10 8-23.5 5T237 262q-2-3-5-5.5t-7-2.5q-4 0-7 2.5t-5 5.5q-3 8-10 12.5t-15.5 4.5q-8.5 0-15.5-4.5T162 262q-2-3-5-5.5t-7-2.5q-4 0-7 2.5t-5 5.5q-3 8-10 12.5t-15.5 4.5q-8.5 0-15.5-4.5T87 262q-2-3-5-5.5t-7-2.5q-4 0-7 2.5t-5 5.5q-5 13-18.5 16T21 273q-4-4-9-3.5t-8.5 4Q0 277 0 282.5t4 8.5q16 14 36 13t35-15q16 15 37.5 15t37.5-15q16 15 37.5 15t37.5-15q15 14 35 14.5t36-12.5q4-3 4-8.5t-3.5-9q-3.5-3.5-8.5-4t-9 3.5zm-16-44q19 0 33-13 4-3 4-8.5t-3.5-9q-3.5-3.5-8.5-4t-9 3.5q-7 6-16.5 6t-17.5-6q-4-3-9-2.5t-8.5 5Q224 205 225 210t5 8q14 11 33 11zm-225 0q18 0 32-11 4-3 5-8t-2.5-9.5q-3.5-4.5-8.5-5t-9 2.5q-8 6-17.5 6T21 198q-4-4-9-3.5t-8.5 4Q0 202 0 207.5t4 8.5q14 13 33 13h1z"/></svg>