<svg viewBox="0 0 300 316" xmlns="http://www.w3.org/2000/svg"><path d="M125 154q0 5-3.5 9t-9.5 4H51q3 24 17 44t35.5 31.5Q125 254 150 254t46.5-11.5Q218 231 232 211t17-45h-61q-6 0-9.5-3.5T175 154q0-5 3.5-9t8.5-4h63v-25h-62q-6 0-9.5-3.5T175 104q0-5 3.5-9t8.5-4h62q-3-24-17-44t-35.5-31.5Q175 4 150 4t-46.5 11.5Q82 27 68 47T51 91h62q5 1 8.5 4.5t3.5 8.5q0 5-3.5 9t-9.5 4H50v24h63q5 0 8.5 4t3.5 9zm163 0q-6 0-9.5 3.5T275 166q0 31-15 57t-41 41q-26 15-56 15h-25q-31 0-57-15t-41-41q-15-26-15-57 0-5-3.5-8.5t-9-3.5q-5.5 0-9 3.5T0 166q0 38 18.5 69.5t50 50Q100 304 137 304h26q37 0 68.5-18.5t50-50Q300 204 300 167q0-6-3.5-9.5T288 154z"/></svg>