<svg viewBox="0 0 300 316" xmlns="http://www.w3.org/2000/svg"><path d="M150 101q10-9 23.5-9t22.5 9l13 13q2 2 5.5 2t5.5-2l74-74q-7-16-22.5-26T238 4H125q-17 0-31.5 8.5T71 35.5Q63 50 63 66v75q0 20 11 36l76-76zm-31-60q8 0 13.5 5.5T138 60q0 8-5.5 13.5T119 79q-8 0-13.5-5.5T100 60q0-8 5.5-13.5T119 41zm35 261L46 272q-17-5-28.5-17T2 227q-4-16 0-32l20-73q5-15 16-26v46q0 23 11.5 43.5t31.5 32q20 11.5 44 11.5h114l-8 29q-4 17-16 28.5T186.5 302q-16.5 4-32.5 0zM300 69v72q0 17-8.5 31.5t-23 23Q254 204 238 204H125q-18 0-33-9l76-76q2-2 5-2t5 2l13 13q10 9 23.5 9t22.5-9l63-63z"/></svg>