<svg viewBox="0 0 300 316" xmlns="http://www.w3.org/2000/svg"><path d="M150 66q13 0 22 9.5t9 22.5q0 13-9 22t-22 9q-13 0-22-9t-9-22q0-13 9-22.5t22-9.5zm50 113v37q0 17-12 28v47q0 6-4 9.5t-9 3.5q-5 0-9-3.5t-4-9.5v-37h-24v37q-1 6-4.5 9.5T125 304q-5 0-9-3.5t-4-9.5v-47q-12-11-12-28v-37q0-16 11-26.5t26-11.5h26q15 0 26 11t11 27zM63 66q12 0 21.5-9T94 35q0-13-9.5-22t-22-9q-12.5 0-22 9T31 35q0 13 9.5 22.5T62 67l1-1zm31 32q0-7 2-14-10-5-21-5H50q-21 0-35.5 14.5T0 129v37q0 14 7 25.5T25 210v81q0 6 3.5 9.5t9 3.5q5.5 0 9-3.5T50 291v-75h25v-37q0-16 7.5-29.5T102 127q-8-13-8-29zm175-63q0-13-9.5-22t-22-9q-12.5 0-22 9T206 35q0 13 9.5 22.5t22 9q12.5-.5 22-9.5t9.5-22zm-71 92q12 9 19.5 22.5T225 179v37h25v75q0 6 3.5 9.5t9 3.5q5.5 0 9-3.5t3.5-9.5v-81q11-7 18-18.5t7-25.5v-37q0-21-14.5-35.5T250 79h-25q-11 0-21 5 2 7 2 14 0 16-8 29z"/></svg>