<svg viewBox="0 0 300.0077 316" xmlns="http://www.w3.org/2000/svg"><path d="M73.008 154l-17 94q-12-4-23-12l-8 45q-1 5-4.5 8t-7.5 3l-3-1q-5-1-8-5t-2-9l12-64q-8-14-12-30-2-11 5-19.5t18-9.5l20-106q3-13 15-18 5-2 9.5 0t6.5 6.5q2 4.5 0 9.5t-6 7l-19 101h24zm191 16q15-10 24-29 12-24 12-62 0-5-3.5-8.5t-9-4q-5.5-.5-9 3.5t-3.5 9q0 32-9 52-7 14-18 20-6 3-10 3h-49l14 32q3 5 1 10t-7 7q-5 2-9.5 0t-6.5-6l-20-43h-62l-19 100h126l14 30q1 4 4.5 6t6.5 2q3 0 5-2 5-2 7-6.5t0-9.5l-9-20h41q11 0 18-7.5t7-17.5q0-17-10-32.5t-26-26.5zm-214 107q-1 5 2 9t8 5h3q4 0 7.5-2.5t4.5-7.5l5-27q-13-1-24-6l-6 29zm67-221l44 98h28l-50-111q-3-7-10-11t-15-3q-8 1-13.5 6.5t-7.5 13.5l-20 105h26l18-98z"/></svg>