<svg viewBox="0 0 300 316" xmlns="http://www.w3.org/2000/svg"><path d="M250 102q-1-26-14-48t-34.5-35.5Q180 5 155 4q-20-1-39 6T82 30.5Q67 44 59 62t-9 38q-1 20 6.5 39T78 172.5q14 14.5 32 23t38 8.5q20 0 39-7.5t33-21.5l5-5v9q0 27-13.5 50T175 265.5Q152 279 125 279H88q-6 0-9.5 3.5t-3.5 9q0 5.5 3.5 9T88 304h37q34 0 62.5-17t45.5-45.5q17-28.5 17-62.5v-77zm-100 77q-20 0-37.5-10T85 141.5Q75 124 75 104t10-37.5Q95 49 112.5 39T150 29q20 0 37.5 10T215 66.5Q225 84 225 104t-10 37.5Q205 159 187.5 169T150 179z"/></svg>