<svg viewBox="0 0 300.0015 316" xmlns="http://www.w3.org/2000/svg"><path d="M195 29h-90q7-12 18.5-18.5T149 4h2q14 0 25.5 6.5T195 29zm61.002 150h-6v25q0 5-3.5 8.5t-9 3.5q-5.5 0-9-3.5T225 204v-25H75v25q0 5-3.5 8.5t-9 3.5q-5.5 0-9-3.5t-3.5-8.5v-25h-6q-17 0-30 11.5t-14 29q-1 17.5 9.5 30.5t28.5 16v13q0 10 7 17.5t17.5 7.5q10.5 0 18-7.5T88 279v-13h125v13q-1 10 6.5 17.5t18 7.5q10.5 0 17.5-7.5t7-17.5v-13q17-2 27.5-14.5t10.5-28.5q0-18-13-31t-31-13zm-236-19q15-6 30-6h200q15 0 30 6l-20-62q-6-20-22.5-32T201 54H99q-20 0-36.5 12t-22.5 32l-20 62z"/></svg>