<svg viewBox="0 0 300 316" xmlns="http://www.w3.org/2000/svg"><path d="M238 29H63q-17 0-31.5 8.5t-23 23Q0 75 0 92v124q0 17 8.5 31.5t23 23Q46 279 63 279h175q16 0 30.5-8.5t23-23Q300 233 300 217V91q0-16-8.5-30.5t-23-23Q254 29 237 29h1zM75 204H63q-6 0-9.5-3.5t-3.5-9q0-5.5 3.5-9T63 179h12q5 0 8.5 3.5t4 9q.5 5.5-3.5 9t-9 3.5zm63 0h-13q-5 0-9-3.5t-4-9q0-5.5 4-9t9-3.5h13q5 0 8.5 3.5t3.5 9q0 5.5-3.5 9T138 204zm62 0h-12q-6 0-9.5-3.5t-3.5-9q0-5.5 3.5-9t8.5-3.5h13q5 0 9 3.5t4 9q0 5.5-4 9t-9 3.5zm50-63q0 6-3.5 9.5T238 154H63q-6 0-9.5-3.5T50 141V91q0-5 3.5-8.5T63 79h175q5 0 8.5 3.5T250 92v49zM75 104h150v25H75v-25z"/></svg>