<svg viewBox="0 0 300 316" xmlns="http://www.w3.org/2000/svg"><path d="M187 116q34-4 58.5-28.5T274 29h14q5 0 8.5-3.5T300 17q0-5-3.5-9T288 4h-95q-25 1-39.5 16.5T138 57q-1 21 11.5 38t36.5 21h1zm1-75q5 0 8.5 4t3.5 9q0 5-3.5 9t-9 4q-5.5 0-9-4t-3.5-9q0-5 3.5-9t8.5-4h1zm-83 100q8 11 19.5 18t25.5 7q5 0 9-3.5t4-8.5q0-5-4-9t-9-4q-14 0-22-12 6-4 13-7-12-10-19.5-25T113 65.5q-1-16.5 4.5-32T134 6q-33 4-61 21T26 71q6 28 28 47.5t51 22.5zm-25 62q5 4 17 9 15 5 26 5 13-1 15-13 0-5-4-8.5t-9-3.5q-10 0-19-3.5T90 178q2-7 5-13-28-5-50.5-22T10 101q-13 34-9 70 3 7 14.5 16T42 201q19 5 38 2zm183 26q-17 0-50 20-20 13-42 30-26 0-47.5-14.5T93 226q-20 5-40.5 2.5T14 216q18 40 55 64t81 24h113q15 0 26-11t11-26.5q0-15.5-11-26.5t-27-11h1z"/></svg>