<svg viewBox="0 0 300 316" xmlns="http://www.w3.org/2000/svg"><path d="M181 73q0 13-9 22t-22 9q-13 0-22-9t-9-22q0-13 9-22.5t22-9.5q13 0 22 9.5t9 22.5zm32-28q0-18-18-29.5T150 4q-27 0-44.5 11.5T88 45q-1 5 3 8.5t9 3.5q5 0 8.5-3.5t4-8.5q.5-5 11-10.5T150 29q16 0 27 5.5T187.5 45q-.5 5 3.5 8.5t9 3.5q5 0 8.5-3.5T212 45h1zM66 263l64-137q20 7 40 0l1-1 64 139q4 9 1.5 18.5t-10 15.5q-7.5 6-17.5 6H92q-10 0-17.5-6t-10-15.5Q62 273 66 263zm45-156L48 241h-4q-8 0-13.5-5T25 223v-7h-6q-9 0-13-4t-5-10l-1-4q0-44 7-74 11-45 37-45 33 0 67 28zm145-28q26 0 37 45 7 30 7 74l-1 4q-1 6-5 10t-13 4h-6v7q0 8-5.5 13.5T256 241h-4l-63-134q34-28 67-28z"/></svg>