<svg viewBox="0 0 300 316" xmlns="http://www.w3.org/2000/svg"><path d="M138 204h25v7q-1 11-7 15.5t-12 0q-6-4.5-6-14.5v-8zm162-50q0 41-20 75.5T225.5 284Q191 304 150 304q-57-2-95-33-35-29-47.5-73t0-88Q20 66 55 37 93 6 150 4q41 0 75.5 20T280 78.5q20 34.5 20 75.5zM88 141h37q5 0 9-3.5t4-8.5q0-5-4-9t-9-4H88q-6 1-9.5 4.5T75 129q0 5 3.5 9t9.5 4v-1zm125 50q0-5-4-8.5t-9-3.5H100q-5 0-8.5 3.5t-3.5 9q0 5.5 3.5 9t8.5 3.5h13v7q0 20 11 31.5t26 11.5q15 0 26-11.5t12-30.5v-8h12q5 0 9-3.5t4-9.5zm12-62q0-10-7.5-17.5T200 104q-10 0-17.5 7.5T175 128q0 9 7 12 5 1 18 1t18-1q7-3 7-11z"/></svg>