<svg viewBox="0 0 300 316" xmlns="http://www.w3.org/2000/svg"><path d="M150 155q20 19 24 45t-6.5 50Q157 274 136 289t-48.5 15Q60 304 39 289T7.5 250Q-3 226 1 200t24-45V66q1-29 20-46Q63 4 87.5 4T130 20q19 17 20 46v89zm-25 61q0-12-7-21.5T100 181V65q0-5-3.5-9t-9-4q-5.5 0-9 4T75 65v116q-13 5-20 17.5T51 225q3 14 15 22t26 6.5q14-1.5 23.5-12T125 216zM284 45L246 8q-3-4-8.5-4T229 8l-38 37q-3 4-3 9t3.5 8.5Q195 66 200 66t9-3l16-16v94q0 6 3.5 9.5t9 3.5q5.5 0 9-3.5t3.5-8.5V47l16 16q4 3 9 3t8.5-3.5Q287 59 287 54t-3-9z"/></svg>