<svg viewBox="0 0 300 316" xmlns="http://www.w3.org/2000/svg"><path d="M78 76H67v22h11q4 0 7-3t3-7.5q0-4.5-3-8T78 76zm135 1h-11v49l11-1q9 0 13.5-7t4.5-17q0-10-4.5-17T213 77zm12 164v57q18-6 31-20l18-18q14-13 20-31h-57q-5 0-8.5 3.5T225 241zM237 4H63q-17 0-31.5 8.5t-23 23Q0 50 0 67v174q0 17 8.5 31.5t23 23Q46 304 63 304h137v-63q0-15 11-26t26-11h63V66q0-16-8.5-30.5t-23-23Q254 4 237 4zM59 61h19q10 0 18 7.5t8 18.5q0 11-8 19t-18 8H67v20q0 4-2.5 6t-5.5 2q-3 0-5.5-2t-2.5-6V69q0-4 2.5-6t5.5-2zm111 60q-2 10-9.5 16t-17.5 5q-17 0-29-12-2-3-1.5-6t2.5-5q2-2 4.5-2t4.5 1l2 1q5 5 11 7t12-1q4-1 5.5-5t-1.5-6.5q-3-2.5-6-4.5l-16-6q-7-2-11.5-8.5T116 81q1-5 3-8 4-8 13-10 16-5 30 4 3 1 5 3.5t1.5 5Q168 78 167 80q-4 5-11 1-5-2-9.5-3.5t-8.5-1q-4 .5-6 4.5t1.5 7q3.5 3 7.5 4l11 3q6 2 10.5 6t6.5 9.5q2 5.5 1 10.5zm43 20h-18q-3 0-5.5-2t-2.5-6V70q0-4 2-6t6-2h18q15 0 24 11t9 28q0 17-9 28.5T213 141z"/></svg>