<svg viewBox="0 0 300 316" xmlns="http://www.w3.org/2000/svg"><path d="M267 130l33-117q0-2-1-4.5T296 5q-2-2-5-1t-5 4l-58 100q-14-4-28-4h-21q-28 1-59 16-26 12-49 31-7 5-14 1.5T50 141q0-6 5-10.5T74 117l5-3 7-43q20-5 34.5-21.5T137 11q1-3-1-5t-5-2q-16 1-30 7-10 4-19 11-6 6-10 12l-3 5q-4-8-14-17Q35 6 7 4 4 4 2 6t-2 5q2 19 13.5 34T42 68l-6 9q-18 26-27 56t-9 62q0 30 14.5 55T54 289.5Q79 304 109 304h90q27 0 50.5-13.5t37-37Q300 230 300 202q0-21-9-39.5T267 130zm-48 99q-8 0-13.5-5.5T200 210q0-8 5.5-13.5T219 191q8 0 13.5 5.5T238 210q0 8-5.5 13.5T219 229z"/></svg>