<svg viewBox="0 0 300 316" xmlns="http://www.w3.org/2000/svg"><path d="M150 4q-41 0-75.5 20T20 78.5Q0 113 0 154q2 57 33 95 29 35 73 47.5t88 0q44-12.5 73-47.5 31-38 33-95 0-41-20-75.5T225.5 24Q191 4 150 4zm-44 137q-8 0-13-5t-5-13q0-8 5-13.5t13-5.5q8 0 13.5 5.5T125 123q0 8-5.5 13.5T106 142v-1zm50 113h-21q-6 0-9.5-3.5t-3.5-9q0-5.5 3.5-9t9.5-3.5h21q3 0 4.5-2t2-4.5q.5-2.5-1.5-4.5t-5-2h-6q-5 0-9-3.5t-3.5-8.5q.5-5 4-8.5t8.5-3.5h6q3 0 5-2t2-4.5q0-2.5-2-4.5t-5-2h-21q-6 0-9.5-3.5t-3.5-9q0-5.5 3.5-9t9.5-3.5h21q9 0 16.5 4.5T184 171q4 8 3 17t-6 16q5 7 6 16t-3 17q-4 8-11.5 12.5T156 254zm38-113q-8 0-13.5-5t-5.5-13q0-8 5.5-13.5T194 104q8 0 13.5 5.5T213 123q0 8-5.5 13.5T194 142v-1z"/></svg>