<svg viewBox="0 0 300 316" xmlns="http://www.w3.org/2000/svg"><path d="M238 4H63Q42 4 27.5 18.5T13 54v200q0 21 14.5 35.5T63 304h175q20 0 34.5-14.5T287 254V54q1-21-14-35.5T237 4h1zm-88 250q-27 0-50-13.5T63.5 204Q50 181 50 154t13.5-50Q77 81 100 67.5T150 54q27 0 50 13.5t36.5 36.5q13.5 23 13.5 50t-13.5 50Q223 227 200 240.5T150 254zm0-175q-20 0-37.5 10T85 116.5Q75 134 75 154t10 37.5Q95 209 112.5 219t37.5 10q20 0 37.5-10t27.5-27.5q10-17.5 10-37.5t-10-37.5Q205 99 187.5 89T150 79zm0 94q-8 0-13.5-5.5T131 154q0-8 5.5-13.5T150 135q8 0 13.5 5.5T169 154q0 8-5.5 13.5T150 173z"/></svg>