<svg viewBox="0 0 300 316" xmlns="http://www.w3.org/2000/svg"><path d="M282 22Q263 4 237.5 4T193 22q-12 12-16 28.5t0 32.5q4 16 16 28l23 22q9 9 21.5 9t21.5-9l23-22q12-12 16-28t0-32.5Q294 34 282 22zm-44 61q-8 0-13.5-5.5T219 64q0-8 5.5-13.5t13-5.5q7.5 0 13 5.5T256 64q0 8-5.5 13.5T238 83zm62 146q0-21-14.5-35.5T250 179H150q-10 0-17.5-7.5T125 154q0-10 7.5-17.5T150 129q5 0 9-3.5t4-9q0-5.5-4-9t-9-3.5q-21 0-35.5 14.5T100 154q0 21 14.5 35.5T150 204h100q10 0 17.5 7.5T275 229q0 10-7.5 17.5T250 254h-87q-6 0-9.5 3.5t-3.5 9q0 5.5 3.5 9t8.5 3.5h88q21 0 35.5-14.5T300 229zm-176 20l-10-26q-6-14-18.5-22.5T67 192h-4v50q0 5-4 8.5t-9 3.5q-5 0-8.5-3.5T38 242v-50H13q-6 0-9.5 3.5T0 204v63q0 5 3.5 8.5T13 279h12v6q0 8 5.5 13.5T44 304q8 0 13-5.5t5-13.5q0 8 5.5 13.5T81 304q8 0 13.5-5.5T100 285v-6q11 0 18-7.5t7-17.5q0-2-1-5z"/></svg>