<svg viewBox="0 0 300 316" xmlns="http://www.w3.org/2000/svg"><path d="M247 44q-19-19-44-29.5T150 4q-28 0-53 10.5t-44.5 30Q33 64 23 89t-10 52.5Q13 169 23 194t30 45l49 46q20 19 48 19 13 0 25.5-5t21.5-14l50-46q20-20 30.5-45t10.5-52.5q0-27.5-10.5-52.5T247 44zm-66 47q8 1 13.5 6t5.5 13q0 8-5.5 13.5T181 129q-8 0-13.5-5.5t-5-13.5q.5-8 5.5-13t13-6zm-62 0q8 1 13.5 6t5 13q-.5 8-5.5 13.5t-13 5.5q-8 0-13.5-5.5T100 110q0-8 5.5-13t13.5-6zm90 76q-12 12-27 18t-32 6q-17 0-32-6t-27-18q-4-4-4-9t4-8.5q4-3.5 9-3.5t9 3q17 17 41 17t41-17q4-3 9-3t9 3.5q4 3.5 4 8.5t-4 9z"/></svg>