<svg viewBox="0 0 300 316" xmlns="http://www.w3.org/2000/svg"><path d="M150 79q-20 0-37.5 10T85 116.5Q75 134 75 154t10 37.5Q95 209 112.5 219t37.5 10q20 0 37.5-10t27.5-27.5q10-17.5 10-37.5t-10-37.5Q205 99 187.5 89T150 79zm36 56l-38 63q-3 6-10.5 6t-11-6.5q-3.5-6.5.5-12.5l26-44h-28q-5 0-8.5-3.5T113 129q0-5 3.5-9t8.5-4h50q7 1 10.5 7t.5 12zM150 4q-41 0-75.5 20T20 78.5Q0 113 0 154t20 75.5Q40 264 74.5 284t75.5 20q41 0 75.5-20t54.5-54.5q20-34.5 20-75.5t-20-75.5Q260 44 225.5 24T150 4zm0 250q-27 0-50-13.5T63.5 204Q50 181 50 154t13.5-50Q77 81 100 67.5T150 54q27 0 50 13.5t36.5 36.5q13.5 23 13.5 50t-13.5 50Q223 227 200 240.5T150 254z"/></svg>