<svg viewBox="0 0 300 316" xmlns="http://www.w3.org/2000/svg"><path d="M294 111q6 21 6 43 0 29-10.5 55T260 256q3-10 3-20l-1-82 32-43zM38 154L6 111q-6 21-6 43 0 30 11 56.5T42 258q-5-14-4-27v-77zm31 0L18 84q19-36 54.5-58T150 4q42 0 77.5 22T283 84l-52 70H69zm94-65q-1 5 1.5 9.5t8.5 5.5q17 3 35 16 4 3 9 2.5t8-4.5q3-4 2.5-9.5T222 99q-22-15-45-20-5-1-9 2t-5 8zm-88 29q3 4 8 4.5t9-2.5q18-13 35-16 6-1 8.5-5.5T137 89q-1-5-5-8t-9-2q-23 5-45 20-5 4-5.5 9.5T75 118zM62 231q0 14 6.5 26.5T86 279q14 12 25 17 18 8 39.5 8t40.5-9q11-5 26-18l2-2q9-7 13.5-17t4.5-22v-57H63v52h-1z"/></svg>