<svg viewBox="0 0 300 316" xmlns="http://www.w3.org/2000/svg"><path d="M50 79H25q0-20 13.5-34.5T72 29q8-11 20-17.5t25.5-7Q131 4 143 10t21 16q2 4 6 3 16-1 30 6 12 7 18.5 18.5T225 79h-75q-16 0-26.5 11T113 117v49q0 6-4 9.5t-9 3.5q-5 0-8.5-3.5T88 166v-50q0-15-11-26T50 79zm238 94v37q0 18-13 31t-31 13h-8q-4 22-21.5 36T175 304H75q-17 0-31.5-8.5t-22.5-23Q13 258 12 241V116q0-5 4-8.5t9-3.5h25q5 0 9 3.5t4 8.5v50q0 16 10.5 27t26.5 11q16 0 27-11t11-27v-50q0-5 3.5-8.5t8.5-3.5h75q5 0 8.5 3.5t4.5 8.5v13h6q18 0 31 13t13 31zm-25 0q0-8-5.5-13.5T244 154h-6v75h6q8 0 13.5-5.5T263 210v-37z"/></svg>