<svg viewBox="0 0 300.0256 316" xmlns="http://www.w3.org/2000/svg"><path d="M237 229q-12 0-21.5-9t-9.5-22q0-13 9.5-22.5t22-9.5q12.5 0 22 9.5T269 198q0 13-9.5 22t-22.5 9zm50 75H187q-6 0-9.5-5t-2.5-11q6-20 23.5-33t39-13q21.5 0 39 13t23.5 33q1 6-2.5 11t-10.5 5zm-136-22q4-16 14.5-29.5T191 230q-10-15-10-32 0-12 5-23t14-19V66q0-17-8.5-31t-23-22.5Q154 4 137 4H63q-17 0-31.5 8.5T8.5 35Q0 49 0 66v175q0 17 8.5 31.5t23 23Q46 304 63 304h74q7 0 15-2-3-10-1-20zm-76-41H63q-6 0-9.5-3.5T50 229q0-5 3.5-9t9.5-4h12q5 0 9 4t4 9q0 5-4 9t-9 3zm0-50H63q-6 0-9.5-3.5T50 179q0-5 3.5-8.5T63 167h12q5-1 9 3t4 9q0 5-4 8.5t-9 3.5zm25-62q-5 0-8.5-3.5T88 116v-12H75q-5 0-8.5-3.5t-3.5-9q0-5.5 3.5-9T75 79h13V66q0-5 3.5-8.5T100 54q5 0 9 3.5t4 9.5v12h12q5 0 8.5 3.5t3.5 9q0 5.5-3.5 9T125 104h-12v12q0 6-4 9.5t-9 3.5zm38 112h-13q-5 0-8.5-3.5T113 229q0-5 3.5-8.5t8.5-3.5h13q5 0 8.5 3.5t3.5 8.5q0 5-3.5 8.5T137 241h1zm0-50h-13q-5 0-8.5-3.5T113 179q0-5 3.5-8.5t8.5-3.5h13q5-1 8.5 3t3.5 9q0 5-3.5 8.5T137 191h1z"/></svg>