<svg viewBox="0 0 300 316" xmlns="http://www.w3.org/2000/svg"><path d="M188 41h-63q-13 0-24-8T87 13q-1-5-5.5-7.5t-9.5-1q-5 1.5-7.5 6T63 20q4 17 18 29.5T113 65v114q0 15-17 27-10 6-26 13l-4 2q-18 6-29.5 22T25 279v12q0 6 3.5 9.5t9 3.5q5.5 0 9-3.5T50 291v-12q0-12 7-21.5T75 244l6 4q17 10 26 15 16 7 33 11 21 5 47 5h1q17 0 33-6.5t28.5-19q12.5-12.5 19-28.5t6.5-34v-62q0-24-12-44t-32-31.5Q211 42 187 42l1-1zm61 122q-2 5-7 6.5t-10.5-1Q226 166 220 166t-10 2l-9 4q-7 3-12 5-8 2-17 2-14 0-27-6-5-2-7-7t.5-9.5q2.5-4.5 7-6.5t9.5 0q9 4 17 4 5 0 10-1l8-4q8-4 13-5 8-2 16-2 13 0 24 4 4 2 6 7t0 10z"/></svg>