<svg viewBox="0 0 300 316" xmlns="http://www.w3.org/2000/svg"><path d="M280 228l-46 23-23 46q-4 7-12 7-4 0-7-2.5t-4-5.5l-37-104q-1-5 0-10.5t5-9.5q4-4 9.5-5t10.5 1l103 37q3 1 5.5 4t2.5 6.5q0 3.5-2 7t-5 5.5zm-116 76h-64q-17 0-31.5-8.5t-22.5-23Q38 258 38 241V109q0-4-2.5-7T29 98l-3-2Q14 93 7 83T0 61V41q0-15 11-26T38 4h42q8 0 14 4.5t9 12.5q5 15 18 24t29 9q16 0 29-9t18-24q3-8 9-12.5T220 4h43q15 0 26 11t11 26v20q0 12-7 22t-19 14l-3 1q-4 1-6 4.5t-2 7.5v63l-77-28q-12-5-25.5-2.5t-22.5 12q-9 9.5-12 22t2 23.5l36 104zm11-200q0 5 3.5 8.5t9.5 3.5h12v13q0 5 3.5 8.5t9 3.5q5.5 0 9-3.5t3.5-8.5v-25q0-5-3.5-9t-8.5-4h-25q-6 0-9.5 4t-3.5 9zm-50 125q0-5-3.5-9t-8.5-4h-13v-12q0-5-3.5-9t-9-3.5q-5.5.5-9 4T75 204v25q0 5 3.5 8.5T88 241h25q5 0 8.5-3.5t3.5-8.5zm0-125q0-5-3.5-9t-8.5-4H88q-6 0-9.5 4t-3.5 9v25q0 5 3.5 8.5t9 3.5q5.5 0 9-3.5t3.5-8.5v-13h13q5 0 8.5-3.5t3.5-8.5z"/></svg>