<svg viewBox="0 0 300 316" xmlns="http://www.w3.org/2000/svg"><path d="M293 205l-109-49-1-1q-7-2-14-.5t-12 7q-5 5.5-6.5 12.5t1.5 14l49 109q3 7 11 7h1q7 0 11-7l23-46 46-23q7-4 7-12t-7-11zm-132 73q-3 1-6 1-29-28-45-63h9q5 0 8.5-3.5t3.5-8.5q0-5-3.5-9t-8.5-4h-19q-6-19-6-37t6-37h100q3 7 4 14 1 5 5.5 8t9.5 2q5-1 8-5t2-9l-3-10 43-1q6 19 6 38l-1 11q0 6 3.5 9.5t8.5 4q5 .5 9-2.5t4.5-9q.5-6 .5-13 0-41-20-75.5T225.5 24Q191 4 150 4T74.5 24Q40 44 20 78.5T0 154q0 41 20 75.5T74.5 284q34.5 20 75.5 20 7 0 13-.5t9-4.5q3-4 2.5-9t-4-8.5Q167 278 161 278zm-87-87H31q-6-18-6-37t6-38h43q-5 20-5 38t5 37zm36-100q15-30 40-57 25 27 40 57h-80zm148 0h-40q-13-29-36-58 24 7 44 22t32 37v-1zM118 33Q95 62 82 92H42q12-22 31.5-37T117 33h1zM42 216h40q13 30 36 59-25-7-44.5-22T42 217v-1z"/></svg>