<svg viewBox="0 0 300 316" xmlns="http://www.w3.org/2000/svg"><path d="M288 104V54q5-1 8.5-5t3.5-9q0-5-2.5-9t-7.5-5L230 6q-5-2-10 0l-60 20q-5 1-7.5 5t-2.5 9q0 5 3.5 9t9.5 5v50q-6 0-9.5 3.5t-3.5 9q0 5.5 3.5 9t9.5 3.5h125q5 0 8.5-3.5t3.5-9q0-5.5-3.5-9T288 104zm-25 0h-25V54h25v50zm-75-50h25v50h-25V54zm-38 160q0-4-2.5-8t-7.5-5l-60-20q-5-2-10 0l-60 20q-5 1-7.5 5T0 215q0 5 3.5 9t8.5 5v50q-5 0-8.5 3.5t-3.5 9q0 5.5 3.5 9T12 304h125q6 0 9.5-3.5t3.5-9q0-5.5-3.5-9T137 279v-50q6-1 9.5-5t3.5-10zM38 229h25v50H38v-50zm50 50v-50h25v50H88zm208-3q4 4 4 9t-3.5 9q-3.5 4-9 4t-8.5-4l-28-28h-51q-10 0-17.5-7t-7.5-18v-44l-79-67q-8-8-8-19V66H43q-11 0-18-7L4 38q-4-4-4-9t3.5-9q3.5-4 9-4t8.5 4l22 21h45q10 0 17.5 7.5T113 66v45l78 67q9 8 9 19v44h51q10 0 18 8l27 27z"/></svg>