<svg viewBox="0 0 300 316" xmlns="http://www.w3.org/2000/svg"><path d="M225 154q-20 0-37.5 10T160 191.5Q150 209 150 229t10 37.5q10 17.5 27.5 27.5t37.5 10q20 0 37.5-10t27.5-27.5q10-17.5 10-37.5t-10-37.5Q280 174 262.5 164T225 154zm46 71l-34 33q-8 8-20.5 8t-20.5-8l-17-17q-4-3-4-8.5t3.5-9q3.5-3.5 9-3.5t8.5 4l17 16q2 2 3.5 1.5t3.5-1.5l34-33q3-3 8.5-3t9 3.5q3.5 3.5 3.5 9t-4 8.5zm-112 79H75q-17 0-31.5-8.5t-22.5-23Q13 258 12 241V141q1-5 4.5-8.5T25 129h200q-27 0-50 13.5T138.5 179Q125 202 125 229q0 22 9 41.5t25 33.5zM38 104q-16 0-27-11T0 66q0-16 8.5-30.5t23-23Q46 4 63 4h177q17 1 31 10t22 23.5q8 14.5 7 31.5-1 15-12 25t-25 10H38z"/></svg>