<svg viewBox="0 0 300.0012 316" xmlns="http://www.w3.org/2000/svg"><path d="M38 35q0-13 9-22t22-9q13 0 22 9t9 22q0 13-9 22.5t-22 9Q56 66 47 57t-9-22zm193 31q13 0 22.5-9t9.5-22q0-13-9.5-22T231 4q-13 0-22 9t-9 22q0 13 9 22.5t22 9.5v-1zM30 229q-5-1-9.5 1.5T15 238L0 288q-1 5 1.5 9.5T9 304h4q4 0 7-2.5t5-6.5l14-50q1-5-1.5-9.5T30 229zm270 59l-15-50q-1-5-5.5-7.5t-9.5-1q-5 1.5-7.5 6T261 245l14 50q2 4 5 6.5t7 2.5h4q5-2 7.5-6.5t1.5-9.5zm-23-84l-39 26v61q-1 6-4.5 9.5T225 304q-5 0-8.5-3.5T213 291v-68q0-7 5-11l19-12-21-76-16 28v33q0 13-9 22.5t-22 9.5h-38q-13 0-22-9.5t-9-22.5v-33l-16-28-20 77 18 11q6 4 5 11v68q1 6-3 9.5t-9 3.5q-5 0-9-3.5t-3-9.5v-61l-40-26q-13-8-19-22.5T1 152l9-35q4-16 17.5-27T58 79q13 0 24.5 6.5T100 103l12 20q9-6 19-6h38q10-1 19 6l12-20q6-11 17.5-17.5T242 79q17 0 30.5 11t17.5 28l9 33q3 16-3 30.5T277 204z"/></svg>