<svg viewBox="0 0 300 316" xmlns="http://www.w3.org/2000/svg"><path d="M25 4Q15 4 7.5 11.5T0 29v250q0 10 7.5 17.5T25 304q10 0 17.5-7.5T50 279V29q0-10-7.5-17.5T25 4zm50 25h150v250H75V29zm1 159q2 4 5 4h43l21 34q1 3 5 3t5-3l21-34h43q3 0 5-3.5t0-6.5l-21-34 21-34q2-4 0-7t-5-3h-43l-21-35q-1-2-5-2t-5 2l-21 35H81q-3 0-5 3t0 7l21 34-21 34q-2 3 0 6zm74 23l-12-19h24l-12 19zm-19-32l-19-31 19-31h38l19 31-19 31h-38zm76 0h-23l12-19 11 19zm0-62l-11 19-12-19h23zm-57-32l12 19h-24l12-19zm-57 32h23l-12 19-11-19zm11 43l12 19H93l11-19zM275 4q-10 0-17.5 7.5T250 29v250q0 10 7.5 17.5T275 304q10 0 17.5-7.5T300 279V29q0-10-7.5-17.5T275 4z"/></svg>