<svg viewBox="0 0 300 316" xmlns="http://www.w3.org/2000/svg"><path d="M244 129h-6v-13q-1-15-11.5-26T200 79H50q-16 0-26.5 11T12 117v124q1 17 9 31.5t22.5 23Q58 304 75 304h100q22 0 39.5-14t21.5-36q10 1 19-1.5t16.5-9q7.5-6.5 11.5-15t5-18.5v-37q0-18-13-31t-31-13zm19 81q-1 10-8.5 15.5T237 229v-75q10-2 17.5 3.5T263 173v37zM113 41V16q0-5 3.5-8.5T125 4q5 0 9 3.5t4 8.5v25q0 6-4 9.5t-9 3.5q-5 0-8.5-3.5T113 42v-1zm50 0V16q0-5 3.5-8.5T175 4q5 0 9 3.5t4 8.5v25q0 6-4 9.5t-9 3.5q-5 0-9-3.5t-4-8.5l1-1zM63 41V16q0-5 3.5-8.5T75 4q5 0 8.5 3.5T87 16v25q1 6-3 9.5T75 54q-5 0-8.5-3.5T63 42v-1z"/></svg>