<svg viewBox="0 0 300 316" xmlns="http://www.w3.org/2000/svg"><path d="M218 282q-1 6-7 9-29 13-61 13-41 0-75.5-20T20 229.5Q0 195 0 154q0-31 13-61 3-6 9-7t11 4l55 54v85q0 5 3.5 8.5t8.5 3.5q5 0 9-3.5t3-8.5v-60l102 102q5 5 4 11zm82-128q0 30-11.5 57.5T256 260q-4 4-9 4t-9-4L44 66q-4-4-4-9t4-9q21-21 48.5-32.5T150 4q41 0 75.5 20T280 78.5q20 34.5 20 75.5zm-75-31q0-24-16.5-40.5T169 66h-31q-15 0-27 8-5 3-6 8t2 9.5q3 4.5 8 5.5t10-2q5-3 12-4h32q13 0 22 9.5t9 22.5q0 8-4 15.5T184 150q-4 2-5.5 7t2 10.5Q184 173 191 173q3 0 6-2 13-7 20.5-20t7.5-28z"/></svg>