<svg viewBox="0 0 300 316" xmlns="http://www.w3.org/2000/svg"><path d="M231 304q-3 0-5-1l-3-2q-20-10-36-25-24-24-24-53v-40q0-12 7-22t18-14l31-10q12-4 24 0l31 10q12 4 19 14t7 22v40q0 32-25 56-16 15-36 23l-2 1q-3 1-6 1zM163 29h-3q-4-11-13.5-18T125 4h-25q-12 0-21.5 7T65 29h-2q-17 0-31.5 8.5t-23 23Q0 75 0 92v149q0 17 8.5 31.5t23 23Q46 304 63 304h100q7 0 16-2-18-15-29-33-13-22-13-46v-7H63q-6 0-9.5-3.5T50 204q0-5 3.5-9t8.5-4h76v-8q0-8 2-17H63q-6 0-9.5-3.5T50 154q0-5 3.5-9t8.5-4h92q11-12 26-17l32-11q5-2 13-2V91q0-16-8.5-30.5t-23-23Q179 29 163 29zm0 87H63q-6 0-9.5-3.5T50 104q0-5 3.5-8.5T62 92h101q5-1 8.5 3t3.5 9q0 5-3.5 8.5T162 116h1z"/></svg>