<svg viewBox="0 0 300 316" xmlns="http://www.w3.org/2000/svg"><path d="M275 231v-2q0-17-8.5-31.5t-23-22.5q-14.5-8-30.5-9h-50v-13q18-3 33-15t22.5-29q7.5-17 6-36t-12-35q-10.5-16-27-25T150 4q-19 0-35.5 9t-27 25Q77 54 75.5 73t6 36q7.5 17 22.5 29t34 15v13H88q-17 1-31.5 9t-23 22.5Q25 212 25 229v2q-13 5-20 16.5t-4.5 25Q3 286 13.5 295t24 9q13.5 0 24-9t13-22.5q2.5-13.5-4.5-25T50 231v-2q0-16 11-26.5T87 191h51v40q-13 5-20 16.5t-5 25q2 13.5 12.5 22.5t24.5 9q14 0 24.5-9t12.5-22.5q2-13.5-5-25T163 231v-40h50q15 0 26 11t11 27v2q-13 5-20 16.5t-4.5 25q2.5 13.5 13 22.5t24 9q13.5 0 24-9t13-22.5q2.5-13.5-4.5-25T275 231z"/></svg>