<svg viewBox="0 0 300 316" xmlns="http://www.w3.org/2000/svg"><path d="M292 162q8 9 8 21t-8 20l-85 85q-16 16-39 16h-18v-18q0-23 16-39l85-85q8-8 20-8t21 8zm-161-8q-8 0-13.5 5.5T112 173q0 8 5.5 13.5T131 192q8 0 13.5-5.5T150 173q0-8-5.5-13.5T131 154zM175 4H88v75h87V4zm58 141l-85 85q-15 15-21 37H62q-16 0-30.5-8.5t-23-23Q0 221 0 204V66q0-16 8.5-30.5t23-23Q46 4 62 4v75q1 10 8 17.5t18 7.5h87q10 0 17.5-7.5T200 79V7q7 3 11 8l41 41q11 11 11 26v48q-17 2-30 15zm-58 28q0-18-13-31t-31-13q-18 0-31 13t-13 31q0 18 13 31t31 13q18 0 31-13t13-31z"/></svg>