<svg viewBox="0 0 300.0046 316" xmlns="http://www.w3.org/2000/svg"><path d="M13 35q-1-13 8.5-22T44 4q13 0 22 9t9 22q0 13-9 22.5t-22 9Q31 66 22 57t-9-22zm277 210l-91 21q1 3 1 7 0 15-12 24.5t-28 5.5q-8-2-13.5-8t-7.5-14q-4-14 3-25t20-14l-18-76h-36q-7 0-13-3.5T85 153l-17-35q-2-4-5-7v96l6 4q9 5 14 13.5t5 18.5v49q0 5-4 8.5t-9 3.5q-5 0-8.5-3.5T63 292v-49q0-7-7-11l-34-20q-10-6-15.5-16T1 175l-1-51q0-16 10-28t25.5-16Q51 76 67 84t25 26l16 31h31l-14-59q-1-5 2-9.5t8-5.5q5-1 9.5 1.5T150 76l37 167 98-23q5-1 9.5 1.5t5.5 8q1 5.5-2 9.5t-8 6zm-265-4q-5 0-8.5 4t-3.5 9v37q-1 6 3 9.5t9 3.5q5 0 9-3.5t4-9.5v-37q0-5-4-8.5t-9-3.5v-1zm163-90q-3-13 4-24t20-14l34-8q13-3 24 3.5t14 19.5l9 36q3 13-4 24t-20 14l-34 8q-4 1-8 1-9 0-16-5-11-7-14-19l-9-36z"/></svg>