<svg viewBox="0 0 300 316" xmlns="http://www.w3.org/2000/svg"><path d="M288 29H13q-6 0-9.5-3.5t-3.5-9q0-5.5 3.5-9T13 4h275q5 0 8.5 3.5t3.5 9q0 5.5-3.5 9T288 29zm12 137q0-5-3.5-8.5T288 154H13q-6 0-9.5 3.5t-3.5 9q0 5.5 3.5 9T13 179h275q5 0 8.5-3.5t3.5-9.5zM75 98V85q0-13-9-22t-22-9H31q-13 0-22 9T0 85v13q0 13 9 22t22 9h13q13 0 22-9t9-22zm113 0V85q0-13-9.5-22T156 54h-12q-13 0-22 9t-9 22v13q0 13 9 22t22 9h12q13 0 22.5-9t9.5-22zm112 0V85q0-13-9-22t-22-9h-13q-13 0-22 9t-9 22v13q0 13 9 22t22 9h13q13 0 22-9t9-22zM75 248v-13q0-13-9-22t-22-9H31q-13 0-22 9t-9 22v13q0 13 9 22t22 9h13q13 0 22-9t9-22zm113 0v-13q0-13-9.5-22t-22.5-9h-12q-13 0-22 9t-9 22v13q0 13 9 22t22 9h12q13 0 22.5-9t9.5-22zm112 0v-13q0-13-9-22t-22-9h-13q-13 0-22 9t-9 22v13q0 13 9 22t22 9h13q13 0 22-9t9-22z"/></svg>