<svg viewBox="0 0 300 316" xmlns="http://www.w3.org/2000/svg"><path d="M200 166q-9 12-22 19t-28 6.5q-15-.5-28-7T100 166q-7 11-18 17t-23.5 8Q46 193 34 189.5T13 179v62q0 17 8 31.5t22.5 23Q58 304 75 304h150q17 0 31.5-8.5t22.5-23q8-14.5 9-30.5v-63q-10 7-22 10.5t-24.5 1.5q-12.5-2-23.5-8t-18-16v-1zm71-123q-3-17-17-28T222 4h-9v37q0 6-4 9.5t-9 3.5q-5 0-8.5-3.5T187 42V4h-74v37q0 6-4 9.5t-9 3.5q-5 0-8.5-3.5T88 42V4H78Q60 4 46 15T29 43l-16 72v14q0 16 11 27t26.5 11Q66 167 77 156t11-27q0-5 3.5-9t8.5-3.5q5 .5 8.5 4t3.5 8.5q1 16 11.5 26.5T150 166q16 0 27-10.5t11-26.5q0-5 3.5-9t8.5-4q5 0 9 4t4 9q0 16 10.5 27t26.5 10.5q16-.5 27-11t11-26.5v-11l-17-75z"/></svg>