<svg viewBox="0 0 300 316" xmlns="http://www.w3.org/2000/svg"><path d="M166 97l85-85q8-8 20-8t20.5 8.5Q300 21 300 33t-8 20l-85 85q-16 16-39 16h-18v-18q0-23 16-38v-1zm-62 184q-38-21-58.5-54.5T25 154q0-34 17-62.5T87.5 46Q116 29 150 29q17 0 34 5h3q5 0 8-2.5t4.5-7q1.5-4.5-1-9T191 10q-20-6-41-6-41 0-75.5 20T20 78.5Q0 113 0 154q0 47 24 85.5T92 302q2 2 6 2 7 0 10-5.5t1.5-10.5q-1.5-5-5.5-7zm175-177q-5 2-7.5 6.5T270 120q5 17 5 34 0 20-10 37.5T237.5 219Q220 229 200 229t-37.5-10Q145 209 135 191.5T125 154q0-5-3.5-9t-9-4q-5.5 0-9 4t-3.5 9q0 27 13.5 50t36.5 36.5q23 13.5 50 13.5t50-13.5q23-13.5 36.5-36.5t13.5-50q0-21-6-41-1-5-5.5-7.5T279 104z"/></svg>