<svg viewBox="0 0 300 316" xmlns="http://www.w3.org/2000/svg"><path d="M192 143q0 8-10.5 22.5T157 191q-1 1-2 0-13-11-24-25.5T120 143q0-6 3.5-10t8.5-4q5 0 8.5 3t3.5 8.5q0 5.5 3.5 9t8.5 3.5q5 0 9-3.5t4-9q0-5.5 3.5-8.5t8-3q4.5 0 8 4t3.5 10zM300 39q-4 129-47 185-17 23-42 37t-53 16l-11 1q-43 0-76-27l-50 49q-3 4-8.5 4t-9-3.5Q0 297 0 291.5t4-8.5l49-50q-27-33-28-76 0-25 9-48.5T61 67q15-14 32-22 15-7 34-10 11-2 34-3 31-2 47-5 26-6 47-19 6-4 13.5-4t15 4.5q7.5 4.5 12 13T300 39zm-83 104q0-16-10.5-27.5T181 104q-15 0-25 9-10-9-24.5-9T106 115.5Q95 127 95 143q0 20 22 45 11 13 23 23 7 6 16.5 6t16.5-6q12-10 23-23 21-25 21-45z"/></svg>