<svg viewBox="0 0 300 316" xmlns="http://www.w3.org/2000/svg"><path d="M175 91V10q18 6 31 20l43 43q14 13 20 31h-81q-6 0-9.5-3.5T175 91zm-62 63q0-5-4-9t-9-4H88q-6 0-9.5 4t-3.5 9v12h25q5 0 8.5-3.5t3.5-8.5h1zm162-25h-87q-16 0-27-11t-11-26V4H88q-17 0-31.5 8.5t-23 23Q25 50 25 67v174q0 17 8.5 31.5t23 23Q71 304 87 304h126q16 0 30.5-8.5t23-23Q275 258 275 241V129zM173 259q3 4 2 9.5t-5 8q-4 2.5-7 2.5-7 0-11-5l-12-17-12 17q-4 5-10 5-4 0-8-2.5t-4.5-8q-.5-5.5 2.5-9.5l17-24-31-44H75v25q0 6-3.5 9.5t-9 3.5q-5.5 0-9-3.5T50 217v-63q0-16 11-26.5T88 117h12q16-1 27 10t11 27q0 10-5 18t-13 14l20 28 12-17q3-4 8.5-5t9.5 2q4 3 5 8t-2 9l-17 24 17 24z"/></svg>