<svg viewBox="0 0 300 316" xmlns="http://www.w3.org/2000/svg"><path d="M0 66q0-5 3.5-8.5T13 54h275q5 0 8.5 3.5t3.5 9q0 5.5-3.5 9T287 79H13q-6 0-9.5-3.5T0 67v-1zm288 175H13q-6 0-9.5 4T0 254q0 5 3.5 8.5T13 266h275q5 0 8.5-3.5t3.5-8.5q0-5-3.5-9t-9.5-4h1zm0-125H113q-6 0-9.5 4t-3.5 9q0 5 3.5 8.5t8.5 4.5h176q5-1 8.5-4.5t3.5-8.5q0-5-3.5-9t-9.5-4h1zm0 63H113q-6 0-9.5 3.5t-3.5 9q0 5.5 3.5 9t8.5 3.5h176q5 0 8.5-3.5t3.5-9q0-5.5-3.5-9T287 179h1zM41 207q4 4 9 4t8.5-3.5Q62 204 62 198v-76q1-5-3-8.5t-9-3.5q-5 0-9 3L4 151q-4 4-4 9.5t4 9.5l37 37z"/></svg>