<svg viewBox="0 0 300.0017 316" xmlns="http://www.w3.org/2000/svg"><path d="M175.002 29q0 10-7.5 17.5t-17.5 7.5q-10 0-17.5-7.5t-7.5-17.5q0-10 7.5-17.5t17.5-7.5q10 0 17.5 7.5t7.5 17.5zm73 208q-12 5-24.5 4.5t-23.5-5.5q-12 5-25 5t-25-5q-12 5-25 5t-25-5q-11 5-24 5.5t-24-4.5q-10 4-21 4l2 11q4 23 21.5 37.5t40.5 14.5h110q23 0 40.5-14.5t21.5-37.5l1-11q-10 0-20-4zm46-90q-14-34-41.5-57t-62.5-31q-7 9-17.5 14.5t-22.5 5.5q-12 0-22.5-5.5t-17.5-14.5q-35 8-62.5 31t-41.5 57q-6 18-6 38-1 13 8 22t22 9q5 0 12.5-2.5t8.5-6.5q11 10 25 9.5t24-9.5q11 9 25 9t25-9q11 9 25 9t25-9q10 9 24 9.5t25-9.5q1 4 8.5 6.5t12.5 2.5q13 0 22-9t8-22q0-20-6-38z"/></svg>