<svg viewBox="0 0 300 316" xmlns="http://www.w3.org/2000/svg"><path d="M288 304H63q-17 0-31.5-8.5t-23-23Q0 258 0 241V16q0-5 3.5-8.5t9-3.5q5.5 0 9 3.5T25 16v225q0 16 11 27t27 11h225q5 0 8.5 3.5t3.5 9q0 5.5-3.5 9T288 304zM200 41q0-15 11-26t26.5-11Q253 4 264 15t11 26.5Q275 57 264 68t-26.5 11Q222 79 211 68t-11-27zm-12 125q0-15 11-26t26-11q15 0 26.5 11t11.5 26.5q0 15.5-11.5 26.5T225 204q-15 0-26-11t-11-27zM88 85q0-13 9-22t22-9q13 0 22 9t9 22q0 13-9 22t-22 9q-13 0-22-9t-9-22zM75 198q0-13 9-22.5t22-9.5q13 0 22.5 9.5T138 198q0 13-9.5 22t-22.5 9q-13 0-22-9t-9-22z"/></svg>