<svg viewBox="0 0 300 316" xmlns="http://www.w3.org/2000/svg"><path d="M150 4q-41 0-75.5 20T20 78.5Q0 113 0 154t20 75.5Q40 264 74.5 284t75.5 20q41 0 75.5-20t54.5-54.5q20-34.5 20-75.5t-20-75.5Q260 44 225.5 24T150 4zm31 62q18 0 31 13t13 31q0 18-13 31t-31 13q-18 0-30.5-13T138 110q0-18 12.5-31T181 66zM63 154q0-10 7-17.5t17.5-7.5q10.5 0 18 7.5T113 154q0 10-7.5 17.5t-18 7.5Q77 179 70 171.5T63 154zm124 94v-2l1-25q-12 5-25 10v10q0 15-9 26.5T131.5 279q-13.5 0-22.5-11.5t-9-26.5v-12q0-5 3.5-8.5t8.5-3.5q16-2 37-8 42-13 67-39 3-2 6.5-3t7.5.5q4 1.5 6 5t1 7.5q-1 18-12 35-14 22-38 33zm-24-138q0-8 5-13.5t13-5.5q8 0 13.5 5.5T200 110q0 8-5.5 13.5T181 129q-8 0-13-5.5t-5-13.5z"/></svg>