<svg viewBox="0 0 300 316" xmlns="http://www.w3.org/2000/svg"><path d="M238 4H63q-17 0-31.5 8.5t-23 23Q0 50 0 67v174q0 17 8.5 31.5t23 23Q46 304 63 304h175q16 0 30.5-8.5t23-23Q300 258 300 241V66q0-16-8.5-30.5t-23-23Q254 4 237 4h1zm-15 193q-9 21-29.5 33T150 242q-11 0-22-3-23-7-38-27t-15-46v-23q0-15 6-29.5T98.5 88Q110 77 124 71.5t29-4.5q18 0 34 9t26 24q3 4 2 9t-5.5 8q-4.5 3-9.5 2t-8-5q-7-10-17.5-16T152 92q-21-1-36 14-8 7-12 17t-4 20v23q0 17 10 31t25 18q19 6 38-2.5t27-25.5q1-2-1-5t-6-3h-43q-5 0-9-3.5t-4-9q0-5.5 4-9t9-3.5h43q8 0 15 4t11.5 10.5q4.5 6.5 5.5 14t-2 14.5z"/></svg>