<svg viewBox="0 0 300 316" xmlns="http://www.w3.org/2000/svg"><path d="M150 192q-1 0-3-1-32-9-47-11v-75q15 2 47 11l3 1v75zm0-176q-32-9-50-11v75q18 2 50 11V16zm25 82q24 6 37 6 6 0 13-1V27q-7 2-12 2-14 0-38-6v75zm-100 7q-24 4-50 19V95q26-12 50-15V5Q49 8 20 23q-9 5-14.5 13.5T0 56v235q0 6 3.5 9.5t9 3.5q5.5 0 9-3.5T25 291v-92q26-15 50-19v-75zm150 23q-7 1-13 1-14 0-37-5v75q23 5 38 5l12-1v-75zm60-104q-7-5-15-6.5t-17 .5l-3 1v79q23-5 50-15V54q0-9-4-16.5T285 24zm-35 175q15-4 26.5-9.5t17.5-15q6-9.5 6-19.5v-46q-27 10-50 15v75z"/></svg>