<svg viewBox="0 0 300 316" xmlns="http://www.w3.org/2000/svg"><path d="M238 304H13q-6 0-9.5-3.5t-3.5-9q0-5.5 3.5-9T13 279h225q15 0 26-11t11-27V16q0-5 3.5-8.5t9-3.5q5.5 0 9 3.5T300 16v225q0 17-8.5 31.5t-23 23Q254 304 238 304zM0 85q0 8 5.5 13.5T19 104q8 0 13.5-5.5T38 85q0-8-5.5-13.5T19 66q-8 0-13.5 5.5T0 85zm0 138q0 8 5.5 13t13.5 5q8 0 13.5-5t5.5-13q0-8-5.5-13.5T19 204q-8 0-13.5 5.5T0 223zM0 23q0 8 5.5 13T19 41q8 0 13.5-5T38 23q0-8-5.5-13.5T19 4Q11 4 5.5 9.5T0 23zm63 0q0 8 5 13t13 5q8 0 13.5-5t5.5-13q0-8-5.5-13.5T81 4q-8 0-13 5.5T63 23zm68 0q0 8 5.5 13t13.5 5q8 0 13.5-5t5.5-13q0-8-5.5-13.5T150 4q-8 0-13.5 5.5T131 23zm69 0q0 8 5.5 13t13.5 5q8 0 13.5-5t5.5-13q0-8-5.5-13.5T219 4q-8 0-13.5 5.5T200 23zM0 154q0 8 5.5 13.5T19 173q8 0 13.5-5.5T38 154q0-8-5.5-13.5T19 135q-8 0-13.5 5.5T0 154z"/></svg>