<svg viewBox="0 0 300 316" xmlns="http://www.w3.org/2000/svg"><path d="M254 217h-29q-5 0-8.5-3.5T213 204q0-5 3.5-8.5t8.5-3.5h17q12 0 22-8.5t11-21q1-12.5-8-23T244 129h-19q-5 0-8.5-3.5T213 116v-1q0-4 3-7.5t8-3.5q9 0 16.5-6t9.5-15q2-11-6-20t-19-9h-27q-3-14-11-28T169 6q-6-4-12-1t-7 9q-4 24-19 40H76q-9 0-16.5 6T50 75q-2 11 6 20t19 9h75q5 0 8.5 3.5t4 9q.5 5.5-3.5 9t-9 3.5H58q-12 0-22 8t-11 21q-1 13 8 23t23 10h94q5 0 8.5 4t3.5 9q1 5-3 9t-9 4H44q-19 0-32 13.5T0 262q1 18 14.5 30T46 304h210q19 0 32-13.5t12-31.5q-1-18-14.5-30T254 217z"/></svg>