<svg viewBox="0 0 300 316" xmlns="http://www.w3.org/2000/svg"><path d="M150 4q-41 0-75.5 20T20 78.5Q0 113 0 154q2 57 33 95 29 35 73 47.5t88 0q44-12.5 73-47.5 31-38 33-95 0-41-20-75.5T225.5 24Q191 4 150 4zM63 141q1-23 11.5-36T100 92q15 0 25.5 13t11.5 37q1 5-3 8.5t-9 3.5q-5 0-8.5-3.5T113 142q0-10-5-17.5t-8-8q-3-.5-7.5 7.5T88 141q0 6-4 9.5t-9 3.5q-5 0-8.5-3.5T63 142v-1zm160 57q-11 20-30.5 31.5T150 241q-23 0-42.5-11.5T77 198q-2-3-2-6.5t2-7q2-3.5 5.5-4.5t7.5-1q29 11 60 12 31-1 60-12 4 0 7.5 1t5.5 4.5q2 3.5 2 7t-2 6.5zm2-44q-5 0-9-3.5t-4-8.5q1-10-4-17.5t-8-8q-3-.5-8 7.5t-5 17q1 6-3 9.5t-9 3.5q-5 0-9-3.5t-4-8.5q1-19 11.5-34.5t26.5-16q16-.5 27 15.5t11 35q0 5-4 8.5t-9 3.5z"/></svg>