<svg viewBox="0 0 300 316" xmlns="http://www.w3.org/2000/svg"><path d="M138 154q0 5-4 8.5t-9 3.5q-5 0-8.5-3.5T113 154q0-5 3.5-8.5t8.5-4q5-.5 8.5 3.5t3.5 9h1zm-13-75q-5 0-8.5 3.5T113 92v24q0 6 3.5 9.5t8.5 3.5q5 0 8.5-3.5t3.5-9.5V91q1-5-3-8.5t-9-3.5zm171 221q-3 4-8.5 4t-8.5-4l-75-74q-16 13-36.5 20.5T125 254q-34 0-62.5-17T17 191.5Q0 163 0 129t17-62.5Q34 38 62.5 21T125 4q34 0 62.5 17T233 66.5Q250 95 250 129q0 22-7.5 42.5T222 208l74 75q4 3 4 8.5t-4 8.5zM193 152l-53-89q-5-9-15-9t-15 9l-53 89q-5 9 0 18t16 9h104q10 0 15.5-9t.5-18z"/></svg>