<svg viewBox="0 0 300 316" xmlns="http://www.w3.org/2000/svg"><path d="M150 204h-37q-6 0-9.5-3.5T100 191v-37q0-21 14.5-35.5T150 104h38q5 0 8.5 3.5t3.5 8.5v38q0 21-14.5 35.5T150 204zM125 16q0-5-3.5-8.5T113 4H88q-6 0-9.5 3.5t-3.5 9q0 5.5 3.5 9T88 29h25q5 0 8.5-3.5T125 16zM13 129q5 0 8.5-3.5T25 116V91q0-5-3.5-8.5t-9-3.5q-5.5 0-9 3.5T0 91v25q0 6 3.5 9.5T13 129zm-2-76q2 1 5 1t6-2.5q3-2.5 4-5.5 4-12 16-16 4-1 6.5-6t1-9.5Q48 10 43 7.5T33 7q-10 4-18 12T3 37q-2 5 .5 10t7.5 6zm202 226h-25q-6 0-9.5 3.5t-3.5 9q0 5.5 3.5 9t9.5 3.5h25q5 0 8.5-3.5t3.5-9q0-5.5-3.5-9T213 279zm75-100q-6 0-9.5 3.5T275 191v25q0 6 3.5 9.5t9 3.5q5.5 0 9-3.5t3.5-9.5v-25q0-5-3.5-8.5T288 179zm2 76q-5-2-10 .5t-6 6.5q-5 12-16 16-5 1-7 6t-.5 9q1.5 4 4.5 6.5t6 2.5q3 0 6-1 10-4 18-11.5t12-18.5q2-5-.5-9.5T289 255h1zm-16-109q1 4 4 6t6 2q3 0 5-1 5-1 7.5-6t.5-10q-5-15-18-24t-29-9h-13q-5 0-8.5 3.5t-3.5 9q0 5.5 3.5 9t8.5 3.5h13q8 0 14.5 4.5T274 146zM63 179H50q-8 0-14.5-4.5T26 162q-1-4-6-6.5t-9.5-1Q6 156 3.5 161T3 171q5 15 18 24t29 9h12q6 0 9.5-3.5t3.5-9q0-5.5-3.5-9T62 179h1zm79 99q-8-3-12.5-9.5T125 254v-13q0-5-3.5-8.5t-9-3.5q-5.5 0-9 3.5T100 241v13q0 16 9 29t24 18q2 1 5 1t6.5-2.5q3.5-2.5 5-6.5t-1-9q-2.5-5-6.5-7v1zm16-248q8 3 12.5 9.5T175 54v12q0 6 3.5 9.5t9 3.5q5.5 0 9-3.5T200 66V54q0-16-9-29T167 7q-5-2-10 .5t-6.5 7Q149 19 151 24t7 6z"/></svg>