<svg viewBox="0 0 300 316" xmlns="http://www.w3.org/2000/svg"><path d="M300 279q0 11-8.5 18.5T273 304q-10-1-16.5-8.5T250 278q0-14-3.5-28t-7.5-22q-3-4 .5-8.5t8.5-2.5q20 7 34 22 18 19 18 40zm-74 4q-36 21-76.5 21t-75-20Q40 264 20 229.5T0 154q0-41 20-75.5T74.5 24Q109 4 150 4t75.5 20Q260 44 280 78.5t20 75.5q0 30-11 57-15-11-32-17-10-4-20-1.5T220.5 203q-6.5 8-7.5 18t4 19q2 6 5 17t3 21l1 5zm-60-133q14 16 33 16h1q9 0 18.5-4t16.5-12q3-4 2.5-9.5t-4-8.5q-3.5-3-9-3t-8.5 4q-7 8-16 8-8 0-15-8-3-4-8.5-4t-9.5 3q-4 3-4.5 8.5t3.5 9.5zm-66 16q9 0 18.5-4t16.5-12q3-4 2.5-9.5t-4-8.5q-3.5-3-9-3t-8.5 4q-3 4-7.5 6.5T100 141q-8 0-15-8-3-4-8.5-4t-9.5 3q-4 3-4.5 8.5T66 150q14 16 33 16h1zm95 53q-5-4-14-8-16-7-31-7t-31 7q-8 4-14 8-4 3-5 8t2.5 9.5q3.5 4.5 8.5 5t8.5-2q3.5-2.5 9.5-5.5 11-5 21-5t21 5q7 3 9.5 5t8 2q5.5 0 9-4.5t2.5-9.5q-1-5-5-8z"/></svg>