<svg viewBox="0 0 300 316" xmlns="http://www.w3.org/2000/svg"><path d="M199 224l-8 40q-3 17-17 28.5T142 304H63v-87q0-6-4-9.5t-9-3.5q-5 0-8.5 3.5T38 217v87q-16 0-27-11T0 267v-50q0-16 11-27t27-11h18l27-52q4-7 8.5-9t8.5-2q6 0 11 4t7 11q0 2-1 7l-7 41h53q11 0 20.5 6.5t14 16.5q4.5 10 1.5 22zm82-101q0-21-9-40l12-7q4-3 5-8t-1-9q-3-5-8-6t-10 2l-11 7q-11-13-26.5-21.5T200 30V16q0-5-3.5-8.5T188 4q-6 0-9.5 3.5T175 17v13q-17 2-32.5 10.5T116 62l-11-7q-5-3-10-2t-7 6h-1q-2 4-1 9t5 8l48 32q4 2 9 1t7-5q6-10 16.5-15t22-3q11.5 2 20 10t11 20q2.5 12-3 23T206 156q-4 2-4.5 6.5t3 7.5q3.5 3 6.5 7 11 14 13 31l1 1q20-9 34-26l11 8q5 2 10 1t8-5q2-5 1-10t-5-7l-12-8q9-19 9-39z"/></svg>