<svg viewBox="0 0 300 316" xmlns="http://www.w3.org/2000/svg"><path d="M75 129H38V54q0-21 14.5-35.5T88 4h100q20 0 34.5 14.5T237 54h-87q-20 0-37.5 10T85 91.5Q75 109 75 129zm225 0v62q0 21-14.5 36T250 242h-25v-51q0-16-8.5-30.5t-23-23Q179 129 162 129h-62q0-21 14.5-35.5T150 79h100q21 0 35.5 14.5T300 129zm-37 0q-1-8-7-11t-12 0q-6 3-6 11t6 11q6 3 12 0t7-11zM112 236l74-73q-10-9-23-9H38q-14 0-24 8l74 74q5 5 12.5 5t11.5-5zm18 18q-7 8-17 11t-21.5.5Q80 263 69 253L0 184v70q0 21 14.5 35.5T50 304h100q21 0 35.5-14.5T200 254v-69h-1l-69 69z"/></svg>