<svg viewBox="0 0 300 316" xmlns="http://www.w3.org/2000/svg"><path d="M200 54q-27 0-50 13-23-13-50-13T50 67.5Q27 81 13.5 104T0 154q0 27 13.5 50T50 240.5Q73 254 100 254t50-14q23 14 50 14t50-13.5q23-13.5 36.5-36.5t13.5-50q0-27-13.5-50T250 67.5Q227 54 200 54zm-65 137h30q-6 11-15 19-9-8-15-19zm15-93q9 8 15 18h-30q6-10 15-18zm-25 56q0-5 1-13h48q1 7 1 12.5t-1 12.5h-48q-1-6-1-12zm-100 0q0-20 10-37.5T62.5 89Q80 79 100 79q15 0 28 5-13 14-20.5 32t-7.5 38q0 20 7.5 38t20.5 31q-13 6-28 6-20 0-37.5-10T35 191.5Q25 174 25 154z"/></svg>