<svg viewBox="0 0 300 316" xmlns="http://www.w3.org/2000/svg"><path d="M150 91V10q18 6 31 20l43 43q14 13 20 31h-81q-6 0-9.5-3.5T150 91zm-43 150H63q-6 0-9.5-3.5T50 229q0-5 3.5-9t8.5-4h39q-1-6-1-12t1-13H63q-6 0-9.5-3.5T50 179q0-5 3.5-9t8.5-3h45q6-14 15-26H63q-6 1-9.5-3t-3.5-9q0-5 3.5-9t8.5-3h73q-10-11-10-26V4H63q-17 0-31.5 8.5t-23 23Q0 50 0 67v174q0 17 8.5 31.5t23 23Q46 304 63 304h129q-29-3-51.5-20T107 242v-1zm154 7q9-13 12.5-28.5T273 187q-4-21-19.5-36T217 131q-26-6-49.5 5.5t-35 35Q121 195 127 221q5 21 20 36.5t36 19.5q17 4 32.5.5T244 265l35 35q3 4 8.5 4t8.5-4q4-3 4-8.5t-4-8.5l-35-35zm-51-13q-7 7-17.5 7t-18.5-7l-19-20q-3-4-3-9t3-8q4-4 9.5-4t8.5 4l19 19 36-37q4-4 9.5-4t8.5 4q4 4 4 9t-4 8l-36 38z"/></svg>