<svg viewBox="0 0 300 316" xmlns="http://www.w3.org/2000/svg"><path d="M300 204q0 17-8.5 31.5t-23 22.5q-14.5 8-31.5 9-22 0-38-13.5T177.5 220q-5.5-20 2-39.5T206 150l20 58q1 5 6 7.5t9.5.5q4.5-2 7-6.5t.5-9.5l-19-58q13-1 26 2.5t23 12.5q10 9 15.5 21.5T300 204zm-70-62q-13 2-24 8l-7-21q-5 4-10 10l-43 57q-8 12-22 17-4 27-24 41-18 13-42 11.5T18 249Q1 231 0 204q0-15 6.5-28t18-21.5Q36 146 50.5 143t28.5 1l6-8q5-6 1.5-12.5T75 117H38q-6 0-9.5-4t-3.5-9q0-5 3.5-9t9.5-4h37q12 0 21.5 7t13.5 19h66q7-7 15-13l-7-20q-2-8-8.5-12.5T160 66h-22q-6 1-9.5-3t-3.5-9q0-5 3.5-9t9.5-4h22q17 0 30 9.5T208 76l6 19h1q13-2 26-3 3-7 11-10.5t15-1.5q7 2 8 12v24q-1 9-7.5 11.5t-15-1Q244 123 241 117q-9 1-19 2l8 23zm-74-1h-46q-2 6-5 11l-30 39h31q13 0 20-9l30-41z"/></svg>