<svg viewBox="0 0 300 316" xmlns="http://www.w3.org/2000/svg"><path d="M114 222q15 15 21 32 8 24-8 39-12 11-27.5 11T73 293q-16-15-8-38 6-17 21-32 6-6 14-6.5t14 5.5zm72 1q-15 15-21 32-8 23 8 38 9 8 20 10t21.5-2q10.5-4 16.5-13.5t6-21q0-11.5-9-26.5-6-9-14-18-6-6-14-5.5t-14 6.5zm114-63q0 24-12 45.5T256 240q-10-20-25-36-13-13-31.5-12.5T169 205q-11 11-19 24-8-13-19-25-13-13-31.5-12.5T68 205q-18 19-27 43-16-7-26.5-21t-13-31q-2.5-17 3-33.5T23 134q5-4 4-11-4-18-1-36 6-31 27.5-53.5T106 6q34-7 64.5 8.5T215 61q3 6 10 7 33 7 54 33t21 59zm-112-19q0-11-10-26-6-9-14-18-6-6-14-5.5T136 98q-15 15-21 32-8 23 8 38 9 8 20 10t21.5-2q10.5-4 16.5-13.5t7-20.5v-1z"/></svg>