<svg viewBox="0 0 300 316" xmlns="http://www.w3.org/2000/svg"><path d="M56 141H13q-6 0-9.5-3.5T0 129q0-5 3.5-8.5T13 117h43q5-1 9 3t4 9q0 5-4 8.5t-9 3.5zm71-112q0-5-3.5-9t-9.5-4H13q-6 0-9.5 4T0 29q0 5 3.5 8.5T13 41h101q6 0 9.5-3.5T127 29zm-25 50q0-5-3.5-9T89 67H13q-6 0-9.5 3.5T0 79q0 5 3.5 8.5T13 91h76q6 1 9.5-3t3.5-9zm86 175q-1 3-1 6 0 13 9.5 22t22.5 9q13 0 22-9t9-22q0-3-1-6h-61zm-1-25V79q0-19-9.5-34T151 22q1 4 1 7 0 13-8 23t-20 13q3 7 3 14 0 15-10.5 26T92 116q2 7 2 13 0 16-11 26.5T56 166H13q-7 0-13-2v15q0 21 14.5 35.5T50 229h138-1zM51 254q-1 3-1 6 0 13 9 22t22 9q13 0 22-9t9-22v-6H51zm161-25h38q21 0 35.5-14.5T300 179v-13h-88v63zm25-163h-25v75h88v-12q0-17-8.5-31.5t-23-23Q254 66 237 66z"/></svg>