<svg viewBox="0 0 300 316" xmlns="http://www.w3.org/2000/svg"><path d="M225 154q-20 0-37.5 10T160 191.5Q150 209 150 229t10 37.5q10 17.5 27.5 27.5t37.5 10q20 0 37.5-10t27.5-27.5q10-17.5 10-37.5t-10-37.5Q280 174 262.5 164T225 154zm13 112q0 6-4 9.5t-9 3.5q-5 0-8.5-3.5T213 266v-25q0-5 3.5-8.5t8.5-3.5q5 0 9 3.5t4 8.5v25zm-13-50q-8 0-13.5-5t-5.5-13q0-8 5.5-13.5T225 179q8 0 13.5 5.5T244 198q0 8-5.5 13t-13.5 5zm-86 63H63q-17 0-31.5-8.5t-23-23Q0 233 0 217V66q0-16 8.5-30.5t23-23Q46 4 63 4h62v62q0 16 11 27t27 11h62v25q-27 0-50 13.5T138.5 179Q125 202 125 229t14 50zm11-213V6q9 3 15 9l49 49q6 6 9 15h-60q-6 0-9.5-3.5T150 66z"/></svg>