<svg viewBox="0 0 300 316" xmlns="http://www.w3.org/2000/svg"><path d="M243 81q-6-7-13.5-10.5T213 67H38q-9 0-16.5 3.5t-13 10Q3 87 1 95.5T1 111l4 31h120q5 0 9 3.5t4 8.5q0 5-4 9t-9 4H8l12 82q3 24 20.5 39.5T82 304h87q24 0 41.5-15.5T231 249l19-137q4-17-7-31zm-24 74q-1 5-4.5 7.5T206 165h-2q-23-4-40-19.5T141 107q-2-5 .5-9.5T149 92q5-1 9.5 1.5t6.5 7.5q4 15 16 26t28 14q5 1 8 5t2 9zm81-70q0 19-8 35.5T270 148l5-31q2-14-1-27.5T262 65q-9-11-21.5-17T213 42h-63q11-18 29.5-28t40-10q21.5 0 40 11T289 44.5Q300 63 300 85z"/></svg>