<svg viewBox="0 0 300 316" xmlns="http://www.w3.org/2000/svg"><path d="M299 176L281 57q-3-22-21-37.5T219 4h-19q-5 0-9 3.5t-3.5 9q.5 5.5 4 9T200 29h19q14 0 24.5 9T256 61l16 105h-47q-15 0-28 7t-22 19h-50q-9-12-22-18.5T75 167H28L44 61q2-14 12.5-23T81 29h19q5 0 8.5-3.5t4-9q.5-5.5-3.5-9T100 4H81Q58 4 40 19.5T19 57L1 176q-1 8-1 17v48q0 17 8.5 31.5t23 23Q46 304 63 304h12q17 0 31.5-8.5t22.5-23q8-14.5 8-31.5v-12q1-6-1-13h28q-1 7-2 13v12q0 17 8.5 31.5t23 23Q208 304 225 304h13q16 0 30.5-8.5t23-23Q300 258 300 241v-48q0-9-1-17z"/></svg>