<svg viewBox="0 0 300 316" xmlns="http://www.w3.org/2000/svg"><path d="M256 254q-8 0-11.5-7t1.5-13q19-23 25.5-51.5t0-57Q265 97 246 74q-3-4-2.5-9t4.5-8q4-3 9-2.5t9 4.5q22 27 30 61t0 68q-8 34-30 61-4 5-10 5zm-204-3q4-3 4.5-8t-2.5-9q-19-23-25.5-51.5t0-57Q35 97 54 74q3-4 2.5-9T52 57q-4-3-9-2.5T34 59Q12 86 4 120t0 68q8 34 30 61 4 4 9 4.5t9-2.5zm198-97q0 27-13.5 50T200 240.5Q177 254 150 254q-38-1-64-22-23-19-31-48.5t0-59Q63 95 86 76q26-21 64-22 27 0 50 13.5t36.5 36.5q13.5 23 13.5 50zm-87 50q0-5-4-8.5t-9-4q-5-.5-9 3.5t-3.5 9q.5 5 4 8.5t8.5 4q5 .5 9-3.5t4-9zm0-100q0-5-4-9t-9-4q-5 0-9 4t-4 9v50q1 5 4.5 9t8.5 4q5 0 9-4t4-9v-50z"/></svg>