<svg viewBox="0 0 300 316" xmlns="http://www.w3.org/2000/svg"><path d="M113 9q18-5 37-5t37 5v70q-16-13-37-13t-37 13V9zm0 120q0 16 10.5 26.5T150 166q16 0 26.5-10.5t11-26.5q.5-16-10.5-26.5T150 92q-16 0-26.5 10.5T113 129zM296 25q4-3 4-8.5t-3.5-9Q293 4 287.5 4T279 8l-32 32q-16-14-34-22v111q0 17-8.5 31.5t-23 22.5q-14.5 8-31.5 8t-31.5-8Q104 175 96 160.5T88 129V18q-19 8-35 22L21 8q-3-4-8.5-4t-9 3.5Q0 11 0 16.5T4 25l32 32Q19 77 9.5 102T0 154q0 41 20 75.5T74.5 284q34.5 20 75.5 20t75.5-20q34.5-20 54.5-54.5t20-75.5q0-27-9.5-52T264 57l32-32z"/></svg>