<svg viewBox="0 0 300 316" xmlns="http://www.w3.org/2000/svg"><path d="M288 204q-6 0-9.5 3.5T275 216v7q0 8-5.5 13t-13.5 5q-8 0-13-5t-5-13v-20l10-7q7-5 11-13t4-16q0-15-11-25 4-12 14-19t21-7q6 0 9.5-3.5t3.5-8.5q0-5-3.5-9t-8.5-4q-19 0-34 10t-23 26q-18-11-37-16l13-20q18 0 30.5-12.5T250 48q0-18-13-31T206 4q-18 0-30.5 13T163 48q0 11 5 20.5T182 84l-14 21q-10-1-18-1t-17 1l-14-21q8-6 13.5-15.5T138 48q0-18-13-31T94 4Q76 4 63 17T50 48q0 18 13 30.5T94 91l12 20q-19 5-37 16-8-16-23-26t-33-9q-6-1-9.5 3T0 104q0 5 3.5 8.5T13 116q11 0 21 7t14 19q-10 10-10 25 0 8 3.5 16T52 196l11 7v20q0 8-5.5 13T44 241q-8 0-13.5-5T25 223v-7q0-5-3.5-8.5t-9-3.5q-5.5 0-9 3.5T0 216v7q0 18 13 30.5T44 266q18 0 31-12.5T88 223v-7q11 5 25 8v18q0 15-11 26t-27 11q-5 0-8.5 3.5t-3.5 9q0 5.5 3.5 9T75 304q17 0 31.5-8.5T129 273q8-14 8-31v-13h25v13q0 17 8.5 31t23 22.5Q208 304 225 304q5 0 9-3.5t4-9q0-5.5-4-9t-9-3.5q-16 0-26.5-11T188 242v-18q13-3 25-8v7q-1 18 12 31t31 13q18 0 31-13t13-31v-6q0-6-3.5-9.5T288 204zM206 29q8 0 13.5 5.5T225 48q0 8-5.5 13.5T206 67q-8 0-13-5.5T188 48q0-8 5-13.5t13-5.5zM75 48q0-8 5.5-13.5T94 29q8 0 13 5.5t5.5 12.5q.5 7-3.5 12t-10 7h-5q-8 1-13.5-4.5T75 48z"/></svg>