<svg viewBox="0 0 300 316" xmlns="http://www.w3.org/2000/svg"><path d="M181 66H31q-13 0-22-9T0 35q0-13 9-22t22-9h150q13 0 22.5 9t9.5 22q-1 13-10 22.5T181 67v-1zm57 90l-50-14h-50q-6 0-9.5-3.5T125 129q0-5 3.5-8.5t8.5-3.5h51V91H25v200q0 6 3.5 9.5T38 304q5 0 8.5-3.5T50 291v-12h25v12q0 6 3.5 9.5T87 304h1q5 0 8.5-3.5t3.5-9.5v-12h25v12q0 6 3.5 9.5t8.5 3.5h1q5 0 8.5-3.5t3.5-9.5v-12h25v12q0 6 3.5 9.5t9.5 3.5q5 0 8.5-3.5t3.5-9.5v-12h25v12q0 6 3.5 9.5t9.5 3.5q5 0 8.5-3.5t3.5-9.5v-12h25v12q0 6 3.5 9.5t9.5 3.5q5 0 8.5-3.5t3.5-9.5v-59q0-27-17.5-49T238 156z"/></svg>