<svg viewBox="0 0 300.5065 316" xmlns="http://www.w3.org/2000/svg"><path d="M102.507 104q-11 0-20-7-18-17-19-41-2-22 7.5-36t24-15.5q14.5-1.5 25.5 7.5 16 14 17 36 2 14-2.5 27t-13 21q-8.5 8-19.5 8zm-66 75q-11 0-18-7-17-18-18.5-40.5t7.5-36.5q9-14 22-15.5t23 7.5q15 15 15 36 2 14-2.5 27t-12 21q-7.5 8-16.5 8zm162-75q-11 0-19.5-8t-13-21q-4.5-13-2.5-27 1-22 17-36 11-9 25.5-7.5t24 15.5q9.5 14 7.5 36-1 24-19 41-9 7-20 7zm65 75q-17 0-26-16.5t-7-39.5q1-21 16-36 10-9 23.5-7.5t23 15.5q9.5 14 7.5 37t-18 40q-8 7-19 7zm-63 125q-16 0-31-8-9-4-19-4t-19 4q-19 11-38 7.5t-31-20q-12-16.5-12-42.5 0-27 16-54 15-26 38.5-42t45.5-16q22 0 45.5 16t38.5 42q16 27 16 54.5t-14 45q-14 17.5-36 17.5z"/></svg>