<svg viewBox="0 0 300 316" xmlns="http://www.w3.org/2000/svg"><path d="M225 229q0 5-3.5 8.5t-9 3.5q-5.5 0-9-3.5T200 229q0-5 3.5-9t9-4q5.5 0 9 4t3.5 9zm25-38q-5 0-8.5 4t-3.5 9q0 5 3.5 8.5t8.5 3.5q5 0 9-3.5t4-8.5q0-5-4-9t-9-4zm0 50q-5 0-8.5 4t-3.5 9q0 5 3.5 8.5t8.5 3.5q5 0 9-3.5t4-8.5q0-5-4-8.5t-9-3.5v-1zm38-25q-6 0-9.5 4t-3.5 9q0 5 3.5 8.5t9 3.5q5.5 0 9-3.5t3.5-8.5q0-5-3.5-8.5T288 217v-1zm0-50q-6 0-9.5 4t-3.5 9q0 5 3.5 8.5t9 3.5q5.5 0 9-3.5t3.5-8.5q0-5-3.5-9t-8.5-4zm0 100q-6 0-9.5 4t-3.5 9q0 5 3.5 8.5t9 4q5.5.5 9-3.5t3.5-9q0-5-3.5-9t-8.5-4zm-88-100q0 10-6.5 17.5T175 191h-4l-3 21q-3 23-20.5 39T106 267h-6q0 15-11 26t-26 11H13q-6 0-9.5-3.5T0 291V19q0-4 3-7.5T10 7l8-2q38-5 72.5 9.5T148 59q12 16 32 55.5t20 51.5z"/></svg>