<svg viewBox="0 0 300 316" xmlns="http://www.w3.org/2000/svg"><path d="M223 118q3 7 1.5 15.5T218 148q-5 6-11.5 6t-12-6q-5.5-6-7-14.5T189 118q3 5 7.5 8t10 3q5.5 0 10-3t6.5-8zm-110 11q-1-5-2-11-3 5-7.5 8t-10 3q-5.5 0-10-3t-6.5-8q-4 13 0 22.5T89 153q8 3 15-3t9-21zm187 25q0 41-20 75.5T225.5 284Q191 304 150 304q-57-2-95-33-35-29-47.5-73t0-88Q20 66 55 37 93 6 150 4q41 0 75.5 20T280 78.5q20 34.5 20 75.5zM94 179q20-1 31.5-15.5T137 129q0-20-11.5-34.5T93.5 80Q73 80 62 94.5T51 129q0 20 11 34.5T94 179zm119 37q0-5-4-8.5t-9-3.5H100q-5 0-8.5 3.5t-3.5 9q0 5.5 3.5 9t8.5 3.5h100q5 0 9-3.5t4-9.5zm37-87q-1-23-13.5-36t-30-13Q189 80 176 93t-13 36q0 23 13 36t30.5 13q17.5 0 30-13t13.5-36z"/></svg>