<svg viewBox="0 0 300 316" xmlns="http://www.w3.org/2000/svg"><path d="M300 283q0-6-4-11.5t-11-8q-7-2.5-9-10.5-1-5-1-17v-17q-10 14-23 20l-20-21q3 1 5 1 11 0 19.5-15t13.5-40q5-25 5-54t-5-53q-5-24-13.5-38.5T237.5 4q-10.5 0-19 14.5T205 57q-5 24-5 53.5t5.5 55.5q5.5 26 14.5 40l-40-40q-5-26-5-56.5t6-59Q187 22 198 4H63Q45 4 31 17L21 8q-3-4-8.5-4t-9 3.5Q0 11 0 16.5T4 25l275 275q3 4 8.5 4t9-3.5q3.5-3.5 3.5-8.5v-9zM238 85q5 0 8.5 7.5t3.5 18q0 10.5-3.5 17.5t-9 7q-5.5 0-9-7t-3.5-17.5q0-10.5 3.5-18T238 85zm-79 131H63q-18 0-32-13.5T8.5 165Q0 141 0 110q0-18 3-35 1-4 5-5t6 2l145 144zm77 77q3 3 1.5 7t-5.5 4h-94q-16 0-27-11t-11-27v-25h84l52 52z"/></svg>