<svg viewBox="0 0 300 316" xmlns="http://www.w3.org/2000/svg"><path d="M269 303q-5 0-8-3l-8-8q-16-16-16-37V35q0-13 9.5-22T269 4q13 0 22 9t9 22v220q0 21-15 37l-9 8q-3 3-7 3zM163 29h-9q-4-11-13.5-18T119 4H94q-12 0-22 7T58 29h-8q-21 0-35.5 14.5T0 79v162q0 17 8.5 31.5t23 23Q46 304 63 304h87q17 0 31.5-8.5t22.5-23q8-14.5 8-31.5V79q0-21-14.5-35.5T162 29h1zm-41 153l-28 27q-7 7-18 7t-19-7l-16-16q-3-4-3-9t3.5-9q3.5-4 8.5-4t9 4l16 16q1 1 2 0l27-27q4-4 9-4t8.5 4q3.5 4 3.5 9t-3 9zm0-75l-28 27q-7 7-18 7t-19-7l-16-16q-3-4-3-9t3.5-9q3.5-4 8.5-4t9 4l16 16q1 1 2 0l27-27q4-4 9-4t8.5 4q3.5 4 3.5 9t-3 9z"/></svg>