<svg viewBox="0 0 300 316" xmlns="http://www.w3.org/2000/svg"><path d="M210 35l15-25q3-5 8-6t9.5 1.5Q247 8 248 13t-1 10l-16 25q-4 6-11 6-3 0-7-2.5t-5-7.5q-1-5 2-9zM68 48q3 6 11 6 3 0 6.5-2.5t5-7.5q1.5-5-1.5-9L74 10q-3-5-8-6t-9.5 1.5Q52 8 51 13t1 10l16 25zM41 76L18 65q-5-2-9.5-.5t-7 6Q-1 75 1 80t6 7l23 11q2 1 5 1 8 0 11-7 3-4 1-9t-6-7zm107-22q-34 1-61 23t-34 55q-9 35 9 70 7 13 23 28 5 4 9 11h44v-64q-12-4-18.5-13.5T113 141q0-5 3.5-8.5t8.5-3.5q5 0 9 3.5t4 9q0 5.5 3.5 9t8.5 3.5q5 0 9-3.5t4-9q0-5.5 3.5-9t8.5-3.5q5 0 9 3.5t4 8.5q0 13-7 22.5T162 177v64h44q4-7 11-13 15-13 21-24 16-33 11-65.5T220 83q-14-15-32.5-22T148 54zm-48 216q-1 14 8 24t23 10h38q13 0 22-9t9-22v-6H100v3zM299 70q-2-4-7-6t-10 0l-24 11q-4 2-6 7t0 9q2 4 5 6t6 2q3 0 6-1l24-11q4-2 6-7t0-10z"/></svg>