<svg viewBox="0 0 300 316" xmlns="http://www.w3.org/2000/svg"><path d="M300 191v82q0 13-9 22t-22 9q-13 0-22-9t-9-22q0-13 9-22.5t22-9.5q3 0 6 1v-51q0-5-3.5-8.5T263 179h-38q-5 0-8.5 3.5T213 192v81q0 13-9.5 22t-22.5 9q-13 0-22-9t-9-22q0-13 9-22.5t22-9.5q3 1 6 1v-51q1-15 11.5-26t26.5-11h38q15 0 26 11t11 26zm-189-39q-11-16-11-36V66q0-16 8.5-30.5t23-23Q146 4 162 4h76q15 0 28.5 7.5T289 31l-62 63-6-6q-7-7-16.5-7.5T187 86l-76 66zm14-103q0 8 5.5 13.5t13 5.5q7.5 0 13-5.5T162 49q0-8-5.5-13.5t-13-5.5q-7.5 0-13 5.5T125 49zm0 224q0 17 9 31H56q-23 0-39.5-16.5T0 248v-63q0-23 16.5-39.5T56 129h10q4 0 7.5 2.5T78 138q7 29 30.5 47.5T162 204l1 16q-17 6-27.5 20.5T125 273zm-75-19H26q2 9 8.5 16t15.5 8v-24zm0-50H25v25h25v-25zm0-49q-9 1-15.5 8T26 179h24v-24zm249-98l-54 54q-8 8-18 8t-18-8l-6-6-74 64q16 10 33 10h2q4-22 21.5-36t39.5-14h37q18 0 34 10 4-11 4-22V66q0-3-1-9z"/></svg>