<svg viewBox="0 0 300 316" xmlns="http://www.w3.org/2000/svg"><path d="M200 8q13 4 23 14l21 21q10 10 15 24h-59V8zm-25 146h-50q-5 0-8.5 3.5t-3.5 9q0 5.5 3.5 9t8.5 3.5h50q5 0 9-3.5t4-9q0-5.5-4-9t-9-3.5zm25-63q-10 0-17.5-7T175 66V4h-75q-17 0-31.5 8.5T46 35.5Q38 50 37 66v175q1 17 9 31.5t22.5 23Q83 304 100 304h100q17 0 31.5-8.5t22.5-23q8-14.5 9-31.5V91h-63zm0 163H100q-5 0-8.5-3.5t-3.5-9q0-5.5 3.5-9t8.5-3.5h100q5 0 9 3.5t4 9q0 5.5-4 9t-9 3.5zm-25-50h-50q-16 0-26.5-11T88 166.5Q88 151 98.5 140t26.5-11h50q16 0 27 11t11 26.5q0 15.5-11 26.5t-27 11z"/></svg>