<svg viewBox="0 0 300 316" xmlns="http://www.w3.org/2000/svg"><path d="M299 147q-5-39-28-69.5t-57.5-47Q179 14 140 16.5T69 40Q37 61 18.5 94.5T0 166q0 31 12 59.5T47 275q18 17 42 16h122q12 1 23.5-4t20.5-13q25-25 36.5-58.5T299 147zM93 250q-3 4-8 4t-9-3q-27-23-35.5-57t4-67Q57 94 86 74t64-20q14 0 28 4 5 1 7.5 5.5T187 73q-1 5-5.5 7.5T172 82q-30-8-57.5 4.5t-42 39Q58 152 63.5 182T92 232q4 4 4.5 9t-3.5 9zm57-59q-7 1-13.5-3t-9.5-10.5q-3-6.5-2-14t5.5-13q4.5-5.5 11.5-8t14-.5l48-47q5-5 12-3t9 9q2 7-4 12l-47 47q3 12-4.5 22t-19.5 9zm74 60q-4 3-9 2.5t-8.5-4q-3.5-3.5-3-8.5t4.5-9q18-16 25.5-39.5T235 145q-2-5 1-9.5t8-6q5-1.5 9.5 1t5.5 7.5q3 14 3 28 0 25-10 47t-28 38z"/></svg>