<svg viewBox="0 0 300 316" xmlns="http://www.w3.org/2000/svg"><path d="M237 123q-7 0-13-5l-17-14h-1q-13 0-22-9t-9-22V35q0-13 9-22t22-9h63q13 0 22 9t9 22v38q0 13-9 22t-22 9h-3l-17 14q-5 5-12 5zm38 131h-77q-11 0-19 9l-3 3h-52l-3-3q-8-9-19-9H25q-10 0-17.5 7.5T0 279q0 10 7.5 17.5T25 304h250q10 0 17.5-7.5T300 279q0-10-7.5-17.5T275 254zm-1-124l-9 7q-11 11-28 11t-29-11l-8-7q-1 12-10 19t-21 4q-6-1-11.5-6t-7-12.5q-1.5-7.5 1.5-15t10-11.5q-10-13-12-29H81q-23 0-39.5 16.5T25 135v95q7-1 13-1h64q19 0 33 13h30q14-13 33-13h64q6 0 13 1v-89q0-5-1-11zm-174-26q10 0 17.5 7.5T125 129q0 10-7.5 17.5T100 154q-10 0-17.5-7.5T75 129q0-10 7.5-17.5T100 104zm103 100h-56q-4 0-6.5-2.5T138 195q-1 4-3.5 6.5T128 204H72q-5 0-7.5-3.5T63 193q4-12 14-19t23-7.5q13-.5 23 7t14 19.5l1 2v-2q4-12 14-19t23-7.5q13-.5 23 7t14 19.5q1 4-1.5 7.5T203 204z"/></svg>