<svg viewBox="0 0 300 316" xmlns="http://www.w3.org/2000/svg"><path d="M63 304h175q16 0 30.5-8.5t23-23Q300 258 300 241H0q0 17 8.5 31.5t23 23Q46 304 63 304zM250 24q0 9-21 110-2 9-8.5 14.5T205 154h-17l4-49q0-5-3.5-9t-8.5-4.5q-5-.5-9 3t-4 8.5l-4 51h-25l-7-76q0-5-4-8.5t-9-3q-5 .5-8.5 4.5t-3.5 9l6 74H95q-8 0-15-5.5T71 134Q50 30 50 24q0-8 5.5-14T68 4q13 0 27 17 7 8 10.5 8T120 19q8-7 13-10 9-5 17.5-5T167 9q5 3 13 10 11 10 14.5 10t10.5-8q14-17 27-17 7 0 12.5 6t5.5 14zm10 84q-2 11-6 30v1q-4 17-18 28.5T205 179H95q-17 0-31-11.5T46 139l-6-31q-18 7-29 23T0 166v50h300v-50q0-19-11-35t-29-23z"/></svg>