<svg viewBox="0 0 300 316" xmlns="http://www.w3.org/2000/svg"><path d="M296 68q-7-6-15-10l-6-3 3-4q4-5 8-11 4-7 5.5-13.5t-3-11q-4.5-4.5-11-3T264 18q-6 4-11 8l-4 3-3-6q-5-8-10-15-3-4-8.5-4t-8 3.5Q217 11 214 21l-3 8-5-5q-9-9-13.5-12t-10-1q-5.5 2-6.5 7-5 24-7 63-35-22-70-10-26 8-56 39-23 23-33 43-14 26-8 51 6 30 37 61 38 39 75 39 22 0 43-13 17-10 37-30 31-31 39-56 12-35-10-70 39-2 63-7 5-2 7.5-7t-1-9.5Q289 107 280 98l-5-5 8-3q10-3 13.5-5.5t3.5-8q0-5.5-4-8.5zM109 229H88q-6 0-9.5-3.5T75 216v-21q0-2 2.5-3.5t4.5.5l30 30q2 2 .5 4.5T109 229zm0-63H88q-6 0-9.5-3.5T75 154v-21q0-3 2.5-4t4.5 1l30 29q2 2 .5 4.5T109 166zm62 63h-21q-5 0-8.5-3.5T138 216v-21q0-2 2.5-3.5t4.5.5l29 30q2 2 1 4.5t-4 2.5zm0-63h-21q-5 0-8.5-3.5T138 154v-21q0-3 2.5-4t4.5 1l29 29q2 2 1 4.5t-4 2.5z"/></svg>