<svg viewBox="0 0 300 316" xmlns="http://www.w3.org/2000/svg"><path d="M119 35q0-13 9-22t22-9q13 0 22 9t9 22q0 13-9 22.5t-22 9q-13-.5-22-9.5t-9-22zm10 97l11 10q4 4 10 4t10-4l11-9q12-11 29-15-4-17-18-28t-32-11q-18 0-32 11t-18 28q17 4 29 14zm22 57q12 11 18 25t6 30v47q0 6-3.5 9.5T162 304H69q-10 0-17-7l-22-22q-15-14-22.5-32.5T0 204V72q0-14 10.5-23t23-8Q46 42 54 52t8 22v73q-3 4-5 7-8 14-7 31t12 30l22 29q4 4 9 4.5t9-2.5q4-3 4.5-8.5T104 228l-22-29q-6-7-7-15.5t4-16.5q7-11 20-13t22 7l30 28zM300 72v132q0 20-7.5 38.5T270 275l-22 22q-7 7-17 7h-33q2-6 2-13v-38l38-38q11-13 12-30t-7-31q-2-3-6-7V74q0-12 8-22t21-11q13-1 23.5 8T300 72zm-82 127l-21 21q-7-29-28-49h-1l11-10q9-9 22-7t20 13q5 8 4 16.5t-7 15.5z"/></svg>