<svg viewBox="0 0 300 316" xmlns="http://www.w3.org/2000/svg"><path d="M287 81q-1 12-10 18l-64 43v53l30 29q5 5 6.5 12t-.5 14l-13 37q-2 8-8.5 12.5t-14 4.5q-7.5 0-12.5-3-8-4-11.5-13t-.5-18l7-22-46-38 37-15v-29h-75v28l38 16-46 38 7 22q3 9-.5 18T99 301q-5 3-12.5 3t-14-4.5Q66 295 64 287l-13-37q-2-7-.5-14t6.5-12l30-30v-52L23 99q-9-6-10-17.5T20 61q6-6 15.5-6.5T53 60l58 37q10 7 22 7h34q12 0 22-7l58-38q8-5 17.5-4.5T280 61q8 9 7 20zm-87-27q0-20-14.5-35T150 4q-21 0-35.5 15T100 54q0 20 14 34.5t33 15.5h6q19-1 33-15.5T200 54z"/></svg>