<svg viewBox="0 0 300 316" xmlns="http://www.w3.org/2000/svg"><path d="M263 141h-40l-51-36q-5-4-9-5V90q13-4 22-16t9-26q0-18-13-31T150 4q-18 0-31 13t-13 31q0 14 9 26t22 16v9q-5 2-9 6l-51 36H38q-16 0-27 11T0 179v12q0 6 3.5 9.5t9 3.5q5.5 0 9-3.5T25 191v-12q0-5 3.5-8.5T38 167h39l51 36q10 8 22 8t22-8l51-37h40q5 0 8.5 4t3.5 9v12q0 6 3.5 9.5t9 3.5q5.5 0 9-3.5t3.5-9.5v-12q0-16-11-27t-26-11zm33 97l-22 22 22 23q4 3 4 8.5t-3.5 9q-3.5 3.5-9 3.5t-8.5-4l-23-22-22 22q-4 4-9 4t-9-3.5q-4-3.5-4-9t4-8.5l23-23-23-22q-4-4-4-9t4-9q4-4 9-4t9 4l22 23 23-23q3-4 8.5-4t9 4q3.5 4 3.5 9t-4 9zm-193-12q3 4 3 9t-3 9l-38 38q-9 9-22 9t-22-9L4 265q-4-3-4-8.5t3.5-9q3.5-3.5 9-3.5t8.5 4l17 17q2 1 4.5 1t4.5-1l38-39q4-3 9-3t9 3z"/></svg>