<svg viewBox="0 0 300 316" xmlns="http://www.w3.org/2000/svg"><path d="M195 88q5-10 5-21h7q13-1 21.5 8t8.5 22v37q-12-5-25-5v-10q-2-20-17-31zM88 129v-10q2-19 17-31-5-10-5-21h-7q-13-1-22 8t-9 22l1 37q12-5 25-5zm41 16l14 13q3 2 7 2t7-2l14-13q7-7 17-11 0-12-9-21t-22-9h-14q-13 0-21.5 9t-8.5 21q9 4 16 11zm-29-91q10 0 17.5-7.5T125 29q0-10-7.5-17.5T100 4q-10 0-17.5 7.5T75 29q0 10 7.5 17.5T100 54zm50 37q10 0 17.5-7t7.5-17.5q0-10.5-7.5-18T150 41q-10 0-17.5 7.5t-7.5 18q0 10.5 7.5 17.5t17.5 7zm50-37q10 0 17.5-7.5T225 29q0-10-7.5-17.5T200 4q-10 0-17.5 7.5T175 29q0 10 7.5 17.5T200 54zm30 146l-31 32q-2-25-19-40l-11-10 22-21q10-9 23-7t20 14q4 7 3 16t-7 16zm51-134q-8 1-13 6t-5 13l-1 94q1 21-12 36l-50 51v25q0 6 3.5 9.5t9.5 3.5h41q5 0 9-4l8-8q14-16 21.5-35.5T300 216V85q0-8-5.5-13T281 66zM163 210l-54-49q-10-9-23-7t-20 14q-4 7-3 16t7 16l31 32q4 4 4 9t-4 9q-3 3-8.5 3t-8.5-3l-34-35q-13-15-12-36V85q0-8-5.5-13.5T19 66q-8 0-13.5 5.5T0 85v131q0 21 7.5 40.5T29 292l8 8q4 4 9 4h117q5 0 8.5-3.5t3.5-9.5v-53q0-17-12-28z"/></svg>