<svg viewBox="0 0 300 316" xmlns="http://www.w3.org/2000/svg"><path d="M88 279v12q0 6-4 9.5t-9 3.5q-5 0-8.5-3.5T63 292v-13q0-5-4-9t-9-3H25v24q0 6-3.5 9.5t-9 3.5q-5.5 0-9-3.5T0 292v-88q0-5 3.5-8.5t9-3.5q5.5 0 9 3.5T25 204v37h25q16 0 27 11t11 27zm200-88q-6 0-9.5 4t-3.5 9v37h-25q-16 0-26.5 11T213 279v12q-1 6 3 9.5t9 3.5q5 0 9-3.5t4-8.5v-13q0-5 3.5-9t8.5-3h25v24q0 6 3.5 9.5t9 3.5q5.5 0 9-3.5t3.5-8.5v-88q0-5-3.5-8.5T288 192v-1zM274 79l-88-63Q170 5 151 4q5 0 9 5l66 81q11 16 11 36v3q1 5-3 9t-9 3.5q-5-.5-9-4t-4-8.5v-3q1-12-6-21l-43-54v78q0 5-4 9t-9 3.5q-5-.5-9-4t-4-8.5V51l-44 55q-6 9-5 20v3q0 5-4 9t-9 3.5q-5-.5-8.5-4T63 129v-3q-1-19 10-35l67-82q4-5 10-5-20 0-37 12L26 79q-12 9-19 22.5T0 130q0 15 10.5 25.5T36 166h102v125q0 6 3.5 9.5t8.5 3.5q5 0 9-3.5t4-8.5V166h101q15 0 25.5-10.5T300 130q0-15-7-28.5T274 79z"/></svg>