<svg viewBox="0 0 300 316" xmlns="http://www.w3.org/2000/svg"><path d="M275 291q0 6-3.5 9.5T263 304H38q-6 0-9.5-3.5T25 291q0-32 17-59t46-41v41q-6 4-9.5 9.5T75 254q0 10 7.5 17.5T100 279q10 0 17.5-7.5T125 254q0-7-3.5-12.5T113 232v-50q12-3 25-3h25q5 0 12 1v51q-11 4-18 13.5t-7 21.5v13q0 5 3.5 8.5t9 3.5q5.5 0 9-3.5t3.5-8.5v-13q0-5 3.5-8.5t9-3.5q5.5 0 9 3.5t3.5 8.5v13q0 5 3.5 8.5t9 3.5q5.5 0 9-3.5t3.5-8.5v-13q0-12-7-21.5T200 231v-45q33 11 54 40t21 66v-1zM225 79q0-20-10-37.5T187.5 14Q170 4 150 4t-37.5 10Q95 24 85 41.5T75 79q0 20 10 37.5t27.5 27.5q17.5 10 37.5 10t37.5-10q17.5-10 27.5-27.5T225 79z"/></svg>