<svg viewBox="0 0 300 316" xmlns="http://www.w3.org/2000/svg"><path d="M225 304H113q-23 0-43.5-8.5T33 271q-16-16-24.5-36.5T0 192v-76q0-5 3.5-8.5t9-3.5q5.5 0 9 3.5T25 116v75q0 18 6.5 34t19 28.5Q63 266 79 272.5t33 6.5h113q5 0 8.5 3.5t4 9q.5 5.5-3.5 9t-9 3.5zm38-163q0 11 7 18t18 8q5-1 8.5 3t3.5 9v12q0 17-8.5 31.5t-23 23Q254 254 238 254H113q-17 0-31.5-8.5t-23-23Q50 208 50 192V91q0-16 8.5-30.5t23-23Q96 29 112 29h126q16 0 30.5 8.5t23 23Q300 75 300 92v12q0 5-3.5 9t-8.5 4q-11-1-18 6.5t-7 17.5zm-50 0q0-5-4-8.5t-9-3.5h-19l-24-30q-4-8-12-8h-2q-3 0-5 3t-1 7l11 28h-17l-14-10q-3-3-8-3t-7.5 5q-2.5 5-.5 10l14 16q6 7 14 7h19l-11 28q-1 4 1 6.5t5 2.5h2q8 1 12-7l24-30h19q5 0 8.5-3.5t3.5-9.5h1z"/></svg>