<svg viewBox="0 0 300 316" xmlns="http://www.w3.org/2000/svg"><path d="M0 241h300q0 17-8.5 31.5t-23 23Q254 304 238 304H63q-17 0-31.5-8.5t-23-23Q0 258 0 241zm300-100v75H0v-75q0-16 8.5-30.5t23-23Q46 79 63 79h15Q65 66 63 50t8.5-29.5Q82 7 99.5 4.5T131 12q11 9 19 23 8-14 19-23 15-10 32-7.5T228.5 21Q239 35 237 50.5T222 79h16q16 0 30.5 8.5t23 23Q300 125 300 142v-1zM163 79q6 0 14-2 15-5 28-16 5-5 7-10 2-8-2.5-14.5t-12-7.5q-7.5-1-13.5 3-10 8-16 24-4 9-5 19v4zm-25 0v-4q-2-10-6-19-6-16-16-23-5-4-10-4t-8.5 2Q94 33 91 36q-5 7-2 15 2 5 7 10 12 11 27 16 8 2 15 2zm87 75q0-5-3.5-9t-9.5-4q-13 0-25-4-25-10-25-33h-24q0 23-25 33-12 4-26 5-5-1-8.5 3t-3.5 9q0 5 3.5 8.5T87 166q17 0 32-5 20-7 31-20 11 13 31 20 15 6 32 6 5-1 8.5-4.5t3.5-8.5z"/></svg>