<svg viewBox="0 0 300 316" xmlns="http://www.w3.org/2000/svg"><path d="M200 8q13 4 23 14l21 21q10 10 15 24h-59V8zm63 83v150q-1 17-9 31.5t-22.5 23Q217 304 200 304H100q-17 0-31.5-8.5t-22.5-23Q38 258 37 241V66q1-16 9-30.5t22.5-23Q83 4 100 4h75v62q0 11 7.5 18.5T200 91h63zm-53 131q-3-5-8-5.5t-9 2.5q-13 9-29 10-6 0-11-4-10-8-23-8-21 1-38 15-6 4-5 11.5t8 10q7 2.5 13-2.5 10-8 22-9h4l5 3q11 9 25 9 24-1 43-15 5-3 5.5-8t-2.5-9zm3-43q0-5-4-9t-9-4H100q-5 0-9 4t-4 9q0 5 4 9t9 4h100q5 0 9-4t4-9zm0-50q0-5-4-9t-9-4H100q-5 1-8.5 4.5T88 129q0 5 3.5 9t8.5 4h100q5-1 9-4.5t4-8.5z"/></svg>