<svg viewBox="0 0 300.0044 316" xmlns="http://www.w3.org/2000/svg"><path d="M19.004 241q8 0 13 5.5t5.5 13.5q.5 8-5 13.5t-13.5 5.5q-8 0-13.5-5.5T.004 260q0-8 5.5-13t13.5-5v-1zm81 25q0-23-12-43t-32-32q-20-12-43-12-6 0-9.5 3.5t-3.5 9q0 5.5 3.5 9t9.5 3.5q16 0 30.5 8.5t23 23q8.5 14.5 8.5 30.5 0 6 3.5 9.5t9 3.5q5.5 0 9-3.5t3.5-9.5zm63 0q-1-40-21-74.5t-54-54.5q-34-20-75-20-5-1-8.5 3t-3.5 9q0 5 3.5 8.5t8.5 3.5q34 0 62.5 17t45.5 46q17 29 17 62 0 6 3.5 9.5t8.5 3.5q5 0 8.5-3.5t3.5-9.5h1zm137-50V91q0-16-8.5-30.5t-23-23q-14.5-8.5-31.5-8.5h-176q-21 0-38 13t-23 34q-1 5 3 10t10 5q47 0 87 24t63.5 64q23.5 40 23.5 87 0 6 4 9.5t9 3.5h38q16 0 30.5-8.5t23-23q8.5-14.5 8.5-30.5v-1z"/></svg>