<svg viewBox="0 0 300 316" xmlns="http://www.w3.org/2000/svg"><path d="M296 283l-64-64q15-18 23-39t8-45q0-35-18-65.5t-48-48Q167 4 131.5 4t-66 17.5Q35 39 17.5 69.5T0 135.5Q0 171 17.5 201t48 47.5Q96 266 131 266q24 0 45-7.5t39-22.5l64 64q3 4 8.5 4t9-3.5q3.5-3.5 3.5-9t-4-8.5zm-93-108q-2 2-2 4-4 21-21.5 35.5T139 229q-28 0-51-13.5t-37-37Q37 155 37 128v-6q1-29 19-51.5T103 43q24-5 45 5.5T182 81q18 5 30.5 19t12.5 32q0 12-6 23.5T203 175zm-26-69q-11-3-17-12.5T146 77q-13-11-29-11-5 0-10 1-19 4-31.5 19.5T63 122v6q0 21 10 38t27.5 27.5Q118 204 139 204q13 0 24-8.5t13-20.5q2-12 12-19 5-5 8.5-11.5T200 132q0-10-7-17t-16-9zm-64 48q-11 0-18-7.5T88 129q0-10 7-17.5t17.5-7.5q10.5 0 18 7.5T138 129q0 10-7.5 17.5T113 154z"/></svg>