<svg viewBox="0 0 300 316" xmlns="http://www.w3.org/2000/svg"><path d="M150 4q-41 0-75.5 20T20 78.5Q0 113 0 154t20 75.5Q40 264 74.5 284t75.5 20q41 0 75.5-20t54.5-54.5q20-34.5 20-75.5t-20-75.5Q260 44 225.5 24T150 4zm-35 225H98q-5 0-7.5-3t-2.5-7v-3q0-5 3.5-8t7.5-2l18 3q3 0 5.5 3t2.5 7q0 4-3 7t-7 3zm55-44l-12 12q-3 3-7 3t-7-3q-3-3-3.5-6.5t1.5-6.5l11-14q2-4 7-4.5t8 2.5l2 2q3 3 3 7.5t-3 7.5zm0-117l-14 3q-6 2-8 7l-2 8q-2 5 1 10l9 12q3 4 3 8.5t-3 8.5l-8 11q-4 6-12 6h-8q-4 0-6 2.5t-2 6.5l4 21q0 3-1.5 6t-4.5 4l-11 6q-3 2-6.5 1t-5.5-4l-15-18q-2-3-5.5-3.5T68 165l-14 11q-4 3-9 3H28q-3-12-3-25 0-34 17-62.5T87.5 46Q116 29 150 29q20 0 40 7l-13 26q-2 5-7 6zm16 47q-4-2-5.5-6.5t.5-8.5l10-15q2-3 5.5-4t7 .5q3.5 1.5 5 5.5t.5 8l-7 15q-2 4-5.5 6t-7.5 0l-3-1zm48 131l-25-3q-9-2-13-9l-5-10q-3-8 0-15l5-10q4-8 12-9l20-4q3-1 6-3l10-11q3-2 6.5-2.5t6.5 1.5l15 9q-8 39-38 66z"/></svg>