<svg viewBox="0 0 300 316" xmlns="http://www.w3.org/2000/svg"><path d="M187 116h1q15 0 26-10.5T225 79V41q0-15-11-26T188 4h-75Q97 4 86 15T75 42v37q0 16 11 26.5t26 10.5h3l23 21q5 5 12.5 5t12.5-5l24-20v-1zM69 229q18 0 31-13t13-31q0-18-13-31t-31-13q-18 0-31 13t-13 31q0 18 13 31t31 13zm119-44q0 18 12.5 31t30.5 13q18 0 31-13t13-31q0-18-13-31t-31-13q-18 0-30.5 13T188 185zM69 241q-23 0-42 13T1 287q-3 6 1 11.5t10 5.5h113q7 0 10.5-5.5T137 287q-8-20-26.5-33T69 241zm230 46q-7-20-26-33t-42-12.5q-23 .5-41.5 13T163 287q-2 6 1.5 11.5T175 304h112q7 0 10.5-5.5T299 287z"/></svg>