<svg viewBox="0 0 300 316" xmlns="http://www.w3.org/2000/svg"><path d="M235 164q5-10 0-20-4-8-14-19-13-14-29-22-20-12-42-12t-42 12q-16 8-29 22-10 11-14 19-5 10 0 20 4 8 14 19 13 14 29 22 20 11 42 11t42-11q16-8 29-22 10-11 14-19zm-85 15q-10 0-17.5-7.5T125 154q0-10 7.5-17.5T150 129q10 0 17.5 7.5T175 154q0 10-7.5 17.5T150 179zM4 25q-4-3-4-8.5t3.5-9Q7 4 12.5 4T21 8l42 41V29q0-5 3.5-9t8.5-4q5 0 9 4t4 9v31q-1 13-10 22t-22 9H25q-5 0-8.5-3.5t-4-8.5q-.5-5 3.5-8.5t9-3.5l20-1L4 25zm209 35V29q-1-5 3-8.5t9-3.5q5 0 8.5 3.5T238 29v20l41-41q3-4 8.5-4t9 3.5q3.5 3.5 3.5 9t-4 8.5l-41 41h20q5 0 9 4t4 9q0 5-4 8.5t-9 4.5h-31q-13-1-22-10t-9-22zM88 248v31q0 5-4 8.5t-9 3.5q-5 0-8.5-3.5T63 279v-20l-42 41q-3 4-8.5 4t-9-3.5Q0 297 0 291.5t4-8.5l41-41-20-1q-5 0-9-3.5t-3.5-8.5q.5-5 4-9t8.5-4l31 1q13 0 22.5 9t9.5 22zm208 35q4 3 4 8.5t-3.5 9q-3.5 3.5-9 3.5t-8.5-4l-41-41v20q-1 5-4.5 8.5T225 291q-5 0-9-3.5t-4-8.5l1-31q0-13 9-22t22-10h31q5 0 9 4t4 9q0 5-4 8.5t-9 3.5h-20l41 42z"/></svg>