<svg viewBox="0 0 300 316" xmlns="http://www.w3.org/2000/svg"><path d="M131 35q0-8 5.5-13.5T150 16q8 0 13.5 5.5T169 35q0 8-5.5 13.5T150 54q-8 0-13.5-5.5T131 35zM38 166q0-7-5.5-12.5T19 148q-8 0-13.5 5.5t-5.5 13q0 7.5 5.5 13T19 185q8 0 13.5-5.5T37 166h1zm262 0q0-7-5.5-12.5T281 148q-8 0-13 5.5t-5 13q0 7.5 5 13t13 5.5q8 0 13.5-5.5T300 166zM75 73q0-8-5.5-13.5T56 54q-8 0-13 5.5T38 73q0 8 5 13.5T56 92q8 0 13.5-5.5T75 73zm188 187q-1-8-6-13.5t-13-5q-8 .5-13.5 5.5t-5.5 13q0 8 5.5 13.5T244 279q8 0 13.5-5.5T263 260zM56 241q-8 0-13 5.5T38 260q0 8 5 13.5t13 5.5q8 0 13.5-5.5T75 260q0-8-5.5-13.5T56 242v-1zM244 54q-8 0-13.5 5.5T225 73q0 8 5.5 13.5T244 92q8 0 13.5-5.5t5-13.5q-.5-8-5.5-13.5T244 54zm-94 25q-24 0-44 12t-31.5 32Q63 143 62 166q1 29 18 53l61-61q4-4 9-4t9 3.5q4 3.5 4 9t-4 8.5l-61 61q23 18 52 18 24 0 44-12t31.5-32q11.5-20 11.5-43.5T225.5 123Q214 103 194 91t-44-12z"/></svg>