<svg viewBox="0 0 300 316" xmlns="http://www.w3.org/2000/svg"><path d="M288 304H13q-5 0-8-2.5T.5 295q-1.5-4 0-8t5-6q3.5-2 20.5-8 24-8 51-12 37-7 73-7t73 7q27 4 51 12 17 6 20.5 8t5 6q1.5 4 0 8t-4.5 6.5q-3 2.5-8 2.5h1zM150 4h-9q-10 1-21 3-16 2-30 7-17 7-31 16-27 20-45 55-3 7 1.5 13.5T27 104q38-7 65-26 25-18 44-48 9-15 14-26zm0 0q3 6 6 13 9 16 19 29 15 19 33 32 28 19 65 26 8 1 12.5-5.5T286 84q-18-34-45-54-25-17-60-23-18-3-31-3zm-43 94q-9 7-19 12-1 19 4 36 2 5 8 7t12-1q12-7 24-19 15-15 21-31 11-25 0-58-22 34-50 54zm96 6q-5-3-9-6l-8-5q-2 10-6 19-4 11-13 23-2 44-22 94h5q28 0 57 4 11-65 0-114l-4-15z"/></svg>