<svg viewBox="0 0 300 316" xmlns="http://www.w3.org/2000/svg"><path d="M155 141h-42v-28q0-5 3.5-8.5t8.5-3.5h28q9 0 15.5 6t6 14.5q-.5 8.5-6 14T155 141zm26 25h-68v29q0 5 3.5 8.5t8.5 3.5h53q9 0 15.5-6.5t6.5-15q0-8.5-5.5-14T181 166zm119-12q0 40-20.5 74.5t-55 55Q190 304 149.5 304t-75-20.5Q40 263 20 228.5t-20-75q0-40.5 20-75T74.5 24q34.5-20 75-20t75 20q34.5 20 55 54.5T300 154zm-75 31q0-14-9-25.5T194 143q5-9 6-20 0-20-13.5-33.5T153 76h-28q-15 0-26 11t-11 26v82q0 15 11 26t26 11h53q19 0 33-14t14-33z"/></svg>