<svg viewBox="0 0 300 316" xmlns="http://www.w3.org/2000/svg"><path d="M138 141h-25v-12q0-5 3.5-9t8.5-4h13q5 0 8.5 4t3.5 9q0 5-3.5 8.5T137 141h1zm125-50v150q0 17-8.5 31.5t-23 23Q217 304 200 304H100q-17 0-31.5-8.5t-22.5-23Q38 258 38 241V91q-1-16 7.5-30.5t23-23Q83 29 100 29h2q4-11 13.5-18T138 4h25q12 0 21.5 7T198 29h2q17 0 31.5 8.5t23 23Q263 75 263 92v-1zm-70 119l17-24q3-4 2-9t-5-8q-4-3-9-2t-8 5l-12 17-20-28q8-5 12.5-13.5T175 129q0-16-11-27t-26-11h-13q-16 0-27 11t-10 27v62q0 6 3.5 9.5t8.5 3.5q5 0 9-3.5t4-9.5v-25h18l31 44-17 24q-3 4-2 9.5t4.5 8q3.5 2.5 7.5 2.5 7 0 11-5l12-17 12 17q4 5 10 5 4 0 7.5-2.5t4.5-8q1-5.5-2-9.5l-17-24z"/></svg>