<svg viewBox="0 0 300 316" xmlns="http://www.w3.org/2000/svg"><path d="M63 241q-17 0-31.5-8t-23-22.5Q0 196 0 179v-50q0-17 8.5-31.5t23-22.5Q46 67 62 66l1 175zM88 66h125v175H88V66zm50 113q0-5-4-9t-9-4q-5 0-8.5 4t-4 9q-.5 5 3.5 8.5t9 3.5q5 0 9-3.5t4-8.5zm25-50q0 5 3.5 9t8.5 3.5q5-.5 9-4t4-8.5q0-5-4-9t-9-4q-5 0-9 4t-4 9h1zm0 50q0 5 3.5 8.5t8.5 3.5q5 0 9-3.5t4-8.5q0-5-4-9t-9-4q-5 0-9 4t-4 9h1zm-50-50q0 5 3.5 9t8.5 3.5q5-.5 9-4t3.5-8.5q-.5-5-4-9t-8.5-3.5q-5 .5-8.5 4T113 129zm125-63v175q16 0 30.5-8t23-22.5Q300 196 300 179v-50q0-17-8.5-31.5t-23-22.5Q254 67 237 66h1z"/></svg>