<svg viewBox="0 0 300 316" xmlns="http://www.w3.org/2000/svg"><path d="M200 138q0 12-13 29t-35 34q-2 2-4 0-22-18-35-34.5T100 138q0-9 5.5-15.5T119 116q8 0 13.5 6.5T138 138q0 6 3.5 9.5t8.5 3.5q5 0 9-3.5t4-9.5q0-9 5-15.5t13-6.5q8 0 13.5 6.5T200 138zm100-72v175q0 17-8.5 31.5t-23 23Q254 304 238 304H63q-17 0-31.5-8.5t-23-23Q0 258 0 241V66q0-16 8.5-30.5t23-23Q46 4 63 4h175q16 0 30.5 8.5t23 23Q300 50 300 66zm-75 72q0-19-13-33t-31-14q-18 0-31 15-13-15-31-15t-31 14q-13 14-13 34t19 44q14 19 39 38 7 6 17 6t18-6q24-19 38-38 19-24 19-45z"/></svg>