<svg viewBox="0 0 300 316" xmlns="http://www.w3.org/2000/svg"><path d="M100 254h100v4q0 19-13.5 32.5T154 304h-8q-19 0-32.5-13.5T100 258v-4zm163-138q0 25-10.5 47T224 201q-14 12-20 28H95q-7-17-22-30-20-19-29-44.5T38 102q4-25 17.5-46t35-34.5Q112 8 136.5 5T184 9.5Q207 17 225 33t28 37.5Q263 92 263 116zm-63 25q0-12-8-22t-21-12l-38-6q-3-1-5.5-3.5t-2.5-7q0-4.5 3.5-8T137 79h29q7 0 10 5.5t8 6.5q5 1 9.5-1.5t6-7.5q1.5-5-1.5-9-5-9-13.5-14T166 54h-4V41q0-5-3.5-8.5T150 29q-5 0-9 3.5t-4 8.5v13q-15 0-26 11t-11 26q0 13 8 23t21 12l38 6q3 1 5.5 3.5t2.5 7q0 4.5-3.5 8T162 154h-28q-7 0-10-5.5t-8-6.5q-5-1-9.5 1.5t-6 7.5q-1.5 5 1.5 9 5 9 13.5 14t18.5 5h4v12q0 6 3.5 9.5t8.5 3.5q5 0 9-3.5t4-9.5v-12q15 0 26-11t11-27z"/></svg>