<svg viewBox="0 0 300 316" xmlns="http://www.w3.org/2000/svg"><path d="M125 166q0 6-3.5 9.5t-9 3.5q-5.5 0-9-3.5t-3.5-9q0-5.5 3.5-9t9-3.5q5.5 0 9 3.5t3.5 9.5v-1zm88-12q-6 0-9.5 3.5t-3.5 9q0 5.5 3.5 9t9 3.5q5.5 0 9-3.5t3.5-9q0-5.5-3.5-9T212 154h1zm87 0q0 41-20 75.5T225.5 284Q191 304 150 304t-75.5-20Q40 264 20 229.5T0 154q0-41 20-75.5T74.5 24Q109 4 150 4t75.5 20Q260 44 280 78.5t20 75.5zM177 86q7 10 19 18t26 12h3q4 0 7.5-2t4.5-7q1-5-1.5-9.5T228 92q-9-3-17.5-8.5T198 72q-3-4-8.5-5t-9.5 2q-4 3-5 8t2 9zM63 107q1 4 4.5 7t7.5 3l3-1q14-4 26-12t19-18q3-4 2-9t-5-8q-4-3-9.5-2t-8.5 5q-4 6-12.5 11.5T72 92q-5 1-7.5 5.5T63 107zm37 84q16 0 27-10.5t11-26.5q0-16-11-26.5T100 117q-5 0-11 1 5 3 8 7.5t3 9.5q0 8-5.5 13.5T81 154q-5 0-9.5-3t-7.5-8q-1 6-1 11 0 16 11 27t26 10zm95 40q-5-4-14-7-16-8-31-8t-31 8q-8 3-14 7-4 4-5 9t2.5 9q3.5 4 8.5 5t8.5-2q3.5-3 9.5-6 11-5 21-5t21 5q7 3 9.5 5.5t8 2.5q5.5 0 9-4.5t2.5-9.5q-1-5-5-9zm43-77q0-16-11-26.5T200 117q-5-1-11 1 5 3 8 7.5t3 9.5q0 8-5.5 13.5T181 154q-5 0-9.5-3t-7.5-8q-1 6-1 11 0 16 11 26.5t26.5 10.5q15.5 0 26.5-10.5t11-26.5z"/></svg>