<svg viewBox="0 0 300.0013 316" xmlns="http://www.w3.org/2000/svg"><path d="M249 125q-4-4-3.5-9.5t4.5-8.5q4-3 9-3t9 4q20 24 29 55 1 5-1.5 9.5T288 178l-3 1q-5 0-8-2.5t-4-6.5q-8-26-24-46v1zM13 279h-1 1zm286-59q-11 34-35 49-18 10-39 10-24 0-46-19-24 19-53.5 19T67 249q-30 29-54 30-5 0-8.5-3T0 268.5q-1-4.5 2-9t8-5.5q20-4 41-24-22-30-36.5-68T0 98q0-18 9.5-34t25-25.5Q50 29 68 29t34 9.5Q118 48 128 64t10 34q0 26-15 63-15 39-39 69 22 24 42 24t37-13q-12-17-18.5-36t-6.5-33q0-17 13-30t30.5-13q17.5 0 30.5 13t13 30q0 15-7.5 34.5T197 242q14 12 28 12 37 0 51-41 1-5 6-7.5t9.5-1q4.5 1.5 7 6.5t.5 10v-1zM68 210q19-26 32-58.5T113 98q0-17-14-30.5T68 54q-17 0-30 13.5T25 98q0 22 12 54t31 58zm113 12q9-12 14-26t5-24q0-7-6-12.5t-13-5.5q-7 0-12.5 5.5T163 172q0 9 4.5 23t13.5 27z"/></svg>