<svg viewBox="0 0 300 316" xmlns="http://www.w3.org/2000/svg"><path d="M297 37q-5 7-16 15-21 16-48 26-38 14-83 14T67 78Q40 68 19 52 8 44 3 37q-3-4-2.5-9T5 19.5q4-3.5 9-3t8 4.5q5 6 15 14 19 13 45 22 7-22 17.5-37.5t20-15.5Q129 4 136 8q4 2 10 6 3 2 4 2t4-2q6-5 10-7 7-3 16.5-3t20 15.5Q211 35 218 57q26-9 45-23 10-7 15-13 3-4 8-4.5t9 3q4 3.5 4.5 8.5t-2.5 9zM150 179q20 0 37-9.5t27-26.5q10-17 11-36-35 10-75 9.5T75 107q1 19 11 36t27 26.5q17 9.5 37 9.5zm0 25q-25 0-46.5 11T68 246q-14 20-18 44-1 5 3 9.5t9 4.5h175q6 0 10-4.5t3-9.5q-4-24-18-44t-35.5-31Q175 204 150 204z"/></svg>