<svg viewBox="0 0 300 316" xmlns="http://www.w3.org/2000/svg"><path d="M75 141q0-5 3.5-8.5t9-3.5q5.5 0 9 3.5t3.5 9q0 5.5-3.5 9t-9 3.5q-5.5 0-9-3.5T75 141zm19 100l-16 25h145l-17-25H94zm29-87h54q-2-6-2-12.5t2-12.5h-54q2 6 2 12.5t-2 12.5zm177-50v100q0 22-14 39t-35 22l-28-43q-4-6-10-6H88q-7 0-11 6l-28 43q-21-5-35-22T0 204V104q0-17 8.5-31.5t23-23Q46 41 63 41h175q16 0 30.5 8.5t23 23Q300 87 300 104zm-50 37q0-15-11-26t-26-11H88q-16 0-27 11t-11 26.5Q50 157 61 168t27 11h125q15 0 26-11t11-27zm-37-12q-6 0-9.5 3.5t-3.5 9q0 5.5 3.5 9t9 3.5q5.5 0 9-3.5t3.5-9q0-5.5-3.5-9T213 129z"/></svg>