<svg viewBox="0 0 300 316" xmlns="http://www.w3.org/2000/svg"><path d="M13 91h91q26 0 45-18l33-33q11-11 26-11h80q5 0 8.5-3.5t3.5-9q0-5.5-3.5-9T288 4h-80q-26 0-44 18l-33 33q-11 11-27 11H13q-6 0-9.5 4T0 79q0 5 3.5 8.5T13 91zm275 188H171q-16 0-27-11l-58-58q-18-19-44-19H13q-6 0-9.5 4T0 204q0 5 3.5 8.5T13 216h29q15 0 26 11l59 59q18 18 44 18h117q5 0 8.5-3.5t3.5-9q0-5.5-3.5-9T288 279zm12-138q0-5-3.5-8.5T288 129H13q-6 0-9.5 3.5t-3.5 9q0 5.5 3.5 9T13 154h107l57 57q18 18 44 18h67q5 0 8.5-3.5t3.5-9q0-5.5-3.5-9T288 204h-67q-16 0-27-11l-39-39h133q5 0 8.5-3.5t3.5-9.5z"/></svg>