<svg viewBox="0 0 300 316" xmlns="http://www.w3.org/2000/svg"><path d="M0 241q0 17 8.5 31.5t23 23Q46 304 63 304h175q16 0 30.5-8.5t23-23Q300 258 300 241V129H0v112zm104-23q3-4 8.5-4t8.5 4l17 16v-55q0-5 3.5-9t8.5-4q5 0 9 4t4 9v55l16-16q3-4 8.5-4t9 3.5q3.5 3.5 3.5 9t-4 8.5l-20 21q-11 10-26 10t-26-10l-20-21q-4-3-4-8.5t4-8.5zM300 91v13H0V91q0-16 8.5-30.5t23-23Q46 29 63 29h12V16q0-5 3.5-8.5t9-3.5q5.5 0 9 3.5T100 17v12h100V16q0-5 3.5-8.5t9-3.5q5.5 0 9 3.5T225 17v12h13q16 0 30.5 8.5t23 23Q300 75 300 92v-1z"/></svg>