<svg viewBox="0 0 300 316" xmlns="http://www.w3.org/2000/svg"><path d="M175 129q0 10-7.5 17.5T150 154q-10 0-17.5-7.5T125 129q0-10 7.5-17.5T150 104q10 0 17.5 7.5T175 129zm125-63v175q0 17-8.5 31.5t-23 23Q254 304 237 304H63q-17 0-31.5-8.5t-23-23Q0 258 0 241V66q0-16 8.5-30.5t23-23Q46 4 63 4h175q16 0 30.5 8.5t23 23Q300 50 300 67v-1zm-100 63q0-21-14.5-35.5T150 79q-21 0-35.5 14.5T100 129q0 21 14.5 35.5T150 179q11 0 22-5-9 30-47 30-5 0-9 3.5t-3.5 9q.5 5.5 4 9t8.5 3.5q36 0 55.5-20.5T200 151v-22z"/></svg>