<svg viewBox="0 0 300 316" xmlns="http://www.w3.org/2000/svg"><path d="M160 4q-32-2-62.5 9.5T44 48Q21 71 9.5 101.5T0 165q3 39 25.5 71T84 286q36 18 80 18h74q16 0 30.5-8.5t23-23Q300 258 300 241v-83q0-40-18.5-74T231 28.5Q199 7 160 4zM98 173q-1 8-8 13.5T74 192q-9 0-16-3t-12-9q-2-2-2-5t2.5-5.5q2.5-2.5 6-2.5t5.5 3q6 6 15 6 4 0 7-2t3.5-5.5Q84 165 75 162l-17-7q-6-4-8.5-9T48 135q1-6 5-10.5t9.5-6Q68 117 72 117q8 0 15 3 4 2 7 5 3 2 3 5.5t-2.5 5.5q-2.5 2-5.5 2t-5-2q-5-4-12-4-2 0-5 1t-3.5 4q-.5 3 1.5 4l16 6q10 4 14.5 11t2.5 15zm90 11q0 3-2.5 5t-6 2q-3.5 0-5.5-2t-2-5v-41l-16 17q-3 3-6 3t-6-3l-16-17v41q0 3-2 5.5t-5.5 2.5q-3.5 0-5.5-2.5t-2-5.5v-60q0-3 2-5t5-2q8 0 13 5l17 20 17-20q5-5 13-5 3 0 5.5 2t2.5 5v60zm67-11q-1 8-8 13.5t-16 5.5q-9 0-16-3t-12-9q-2-2-2-5t2.5-5.5q2.5-2.5 6-2.5t5.5 3q6 6 15 6 4 0 7-2t3.5-5.5q.5-3.5-8.5-6.5l-17-7q-6-4-8.5-9t-1.5-11q1-6 5-10.5t9.5-6q5.5-1.5 9.5-1.5 8 0 15 3 4 2 7 5 3 2 3 5.5t-2.5 5.5q-2.5 2-5.5 2t-5-2q-5-4-12-4-2 0-5 1t-3.5 4q-.5 3 1.5 4l16 6q10 4 14.5 11t2.5 15z"/></svg>