<svg viewBox="0 0 300 316" xmlns="http://www.w3.org/2000/svg"><path d="M296 283l-11-11q4-9 2-18t-8.5-16q-6.5-7-16-8.5T245 231l-16-16q9-11 14-24l27 7h3q5 0 8-2.5t4.5-7q1.5-4.5-1.5-9t-8-6.5l-27-6q2-13 0-25l27-7q5-1 8-5.5t1.5-9.5q-1.5-5-6-8t-9.5-1l-27 6q-5-13-14-24l16-16q5 2 11 2 13 0 22-9t9-22q0-13-9-22.5T256 16q-13 0-22 9.5T225 48q0 6 2 11l-16 16q-12-9-26-15l7-28q1-5-1.5-9.5T183 17q-5-1-9.5 1.5T168 26l-8 29q-12-2-24 0l-7-29q-1-5-5.5-7.5T114 17q-5 1-7.5 5.5T105 32l7 29q-13 6-23 14L73 59q3-8 1.5-17.5t-8.5-16Q59 19 50 17t-18 2L21 8q-3-4-8.5-4t-9 3.5Q0 11 0 16.5T4 25l275 275q3 4 8.5 4t9-3.5q3.5-3.5 3.5-9t-4-8.5zM181 141q-8 0-13-5t-5-13q0-8 5-13.5t13-5.5q8 0 13.5 5.5T200 123q0 8-5.5 13.5T181 142v-1zm3 105l8 30q1 5-1.5 9.5T183 291l-3 1q-5 0-8-3t-4-7l-8-29-10 1q-7 0-14-1l-7 29q-1 4-4.5 7t-7.5 3l-3-1q-5-1-7.5-5.5T105 276l7-29q-12-6-23-14l-16 16q4 10 1 21-3 7-9 13t-13 7q-12 3-22-1.5T15.5 274Q11 264 13 252q2-7 8-13t13-9q11-3 21 1l16-16q-9-11-14-25l-31 8h-3q-4 0-7.5-2.5t-4.5-7q-1-4.5 1.5-9T20 173l31-7q-2-12 0-24l-31-7q-5-1-7.5-5.5T11 120q1-5 5.5-8t9.5-1l30 7q7 2 11 6l44 44q-5 2-8 7t-3 11.5q0 6.5 5.5 12t12 5.5q6.5 0 11.5-3t7-8l42 42q5 5 6 11z"/></svg>