<svg viewBox="0 0 300 316" xmlns="http://www.w3.org/2000/svg"><path d="M171 7q-21-6-42 0L70 23q-9 3-14.5 10T50 50q0 7 4 14t11 10l10 5 8 3q11 4 25 6 20 3 42 3t42-3q14-2 25-6l8-3 10-5q7-3 11-10t4-14q0-10-5.5-17T230 23L171 7zm-27 64l-21-12q-4-3-5.5-8t1.5-9q2-5 7-6t10 1l14 9 14-9q5-2 10-1t7 6q3 4 1.5 9t-5.5 8l-21 12q-6 4-12 0zm81 35q-1 20-11 36.5T187 169q-17 10-37 10t-37-10q-17-10-27-26.5T75 106q32 10 75 10.5t75-10.5zm-87 199H51q-6 0-9.5-4.5T38 291q5-41 32.5-67.5T138 193v112zm125-14q1 5-3 9.5t-9 4.5h-88V193q40 4 67.5 30.5T263 291z"/></svg>