<svg viewBox="0 0 300 316" xmlns="http://www.w3.org/2000/svg"><path d="M250 141H125q-21 0-35.5 15T75 192v49q0 17 8.5 31.5t23 23Q121 304 137 304h101q16 0 30.5-8.5t23-23Q300 258 300 241v-50q0-20-14.5-35T250 141zm-12 63q0 21-15 35.5T187.5 254q-20.5 0-35.5-14.5T138 204v-13q0-5 3.5-8.5t8.5-3.5q5 0 8.5 3.5t3.5 9.5v12q1 10 8 17.5t17.5 7.5q10.5 0 18-7.5T213 204v-13q-1-5 3-8.5t9-3.5q5 0 8.5 3.5t3.5 9.5v12h1zm0-88q0-20-15-35t-36-15h-12v-6q0-23-16.5-39.5T118.5 4Q95 4 78.5 20.5T63 60v6H50q-21 0-35.5 15T0 117v62q0 22 14 39.5T50 240v-49q0-20 10-37t27.5-27.5Q105 116 125 116h113zM88 60q-1-13 8.5-22t22.5-9q13 0 22 9t9 22v6H88v-6z"/></svg>