<svg viewBox="0 0 300 316" xmlns="http://www.w3.org/2000/svg"><path d="M200 54q21 1 39 13t26 32l20 42h-72q-6 0-9.5-3.5T200 129V54zm-88 212v7q1 13-8.5 22T81 304q-13 0-22-9t-9-22q0-3 1-6l61-1zm137 0q1 4 1 7 0 13-9 22t-22 9q-13 0-22.5-9t-8.5-22v-7h61zm51-60q0 15-11 25.5t-26 9.5H38q-16 0-27-10.5T0 204v-88q0-16 8.5-30.5t23-23Q46 54 62 54h53l8-33q2-8 8-12.5T145 4q8 0 14 4.5t8 12.5l8 33v75q0 16 11 26.5t26 10.5h82q5 20 6 40zm-175-52q0-5-3.5-9t-9.5-4h-12v-12q0-5-3.5-9t-9-4q-5.5 0-9 4t-3.5 9v12H63q-6 1-9.5 4.5T50 154q0 5 3.5 8.5T62 166h13v13q0 5 3.5 8.5t9 3.5q5.5 0 9-3.5t3.5-8.5v-13h13q5 0 8.5-3.5t3.5-8.5z"/></svg>