<svg viewBox="0 0 300 316" xmlns="http://www.w3.org/2000/svg"><path d="M203 245q3 4 3 9t-3 9l-30 29q-11 12-28 12t-28-11q-11-11-12-26t8-27l-16-15-38 38q-4 4-9 4t-9-4q-3-4-3-9t3-9l39-38-15-15q-13 10-29 8.5t-26.5-14Q-1 174 .5 158T13 131l28-28q4-4 9-4t9 4q3 3 3 8.5t-3 8.5l-30 30q-4 4-4 10.5t4.5 11q4.5 4.5 11 4.5t10.5-5l39-39q29-29 67-47 29-13 58-18 10-2 17 5t5 17q-5 29-18 58-18 38-47 67l-38 39q-4 4-4 10.5t4.5 11Q139 279 145 279t11-4l29-30q4-3 9-3t9 3zm97-191v85q0 22-15 37t-37 16q-8-1-15-2l-8-3q16-26 27-55 7-21 10-39 2-11-1.5-21t-11-17.5Q242 47 232 43.5T211 42q-18 3-39 10-29 11-55 27l-3-8q-3-14 0-28t13-23q16-16 38-16h85q21 0 35.5 14.5T300 54z"/></svg>