<svg viewBox="0 0 300 316" xmlns="http://www.w3.org/2000/svg"><path d="M285 124l-3 16q-4 22-21.5 36.5T221 191H72q4 12 13.5 18.5T107 216h131q5 0 8.5 4t3.5 9q0 5-3.5 8.5T238 241H107q-24 0-41.5-15.5T45 186L28 40q-1-5-4.5-8T15 29h-2q-6 0-9.5-3.5t-3.5-9q0-5.5 3.5-9T13 4h2q14 0 25 9.5T53 37v4h107q-10 18-10 38t10 37.5q10 17.5 27.5 27.5t36.5 10q19 0 35-8t26-22zM88 254q-11 0-18 7.5T63 279q0 10 7 17.5t17.5 7.5q10.5 0 18-7.5T113 279q0-10-7.5-17.5T88 254zm125 0q-11 0-18 7.5t-7 17.5q0 10 7 17.5t17.5 7.5q10.5 0 18-7.5T238 279q0-10-7.5-17.5T213 254zM188 91h75q5 0 8.5-3.5T275 79q0-5-3.5-9t-8.5-4h-75q-6 0-9.5 4t-3.5 9q0 5 3.5 8.5T188 91z"/></svg>