<svg viewBox="0 0 300 316" xmlns="http://www.w3.org/2000/svg"><path d="M238 304H63q-17 0-31.5-8.5t-23-23Q0 258 0 241V66q0-16 8.5-30.5t23-23Q46 4 63 4h175q16 0 30.5 8.5t23 23Q300 50 300 66v175q0 17-8.5 31.5t-23 23Q254 304 238 304zM63 29q-16 0-27 11T25 66v175q0 16 11 27t27 11h175q15 0 26-11t11-27V66q0-15-11-26t-26-11H63zm156 106q-8 0-13.5 5.5T200 154q0 8 5.5 13.5T219 173q8 0 13.5-5.5T238 154q0-8-5.5-13.5T219 135zm-69 0q-8 0-13.5 5.5T131 154q0 8 5.5 13.5T150 173q8 0 13.5-5.5T169 154q0-8-5.5-13.5T150 135zm-69 0q-8 0-13 5.5T63 154q0 8 5 13.5t13 5.5q8 0 13.5-5.5T100 154q0-8-5.5-13.5T81 135zm88 88q0-8-5.5-13.5T150 204q-8 0-13.5 5.5T131 223q0 8 5.5 13t13.5 5q8 0 13.5-5t5.5-13zm0-138q0-8-5.5-13.5T150 66q-8 0-13.5 5.5T131 85q0 8 5.5 13.5T150 104q8 0 13.5-5.5T169 85z"/></svg>