<svg viewBox="0 0 300 316" xmlns="http://www.w3.org/2000/svg"><path d="M148 210q-25-35-46-72 36-70 36-122-1-5-4.5-8.5T125 4q-5 0-8.5 3.5T113 16q-3 50-25 93-23-43-26-93 0-5-3.5-8.5T50 4q-5 0-8.5 3.5T38 16q-1 51 35 122-20 37-46 72-13 7-20.5 20T0 258q1 15 10.5 27t24 16.5q14.5 4.5 29 .5T88 287q9 11 23.5 15t29-.5q14.5-4.5 24-16.5t10.5-27q1-15-6.5-28T148 210zm-98 69q-10 0-17.5-7.5T25 254q0-10 7.5-17.5T50 229q10 0 17.5 7.5T75 254q0 10-7.5 17.5T50 279zm11-74q14-20 27-41 12 22 26 41-16 4-27 16-10-12-26-16zm64 74q-10 0-17.5-7.5T100 254q0-10 7.5-17.5T125 229q10 0 17.5 7.5T150 254q0 10-7.5 17.5T125 279zM225 79v25h63q5 0 8.5 3.5t3.5 9q0 5.5-3.5 9T288 129h-63v25h63q5 0 8.5 3.5t3.5 9q0 5.5-3.5 9T288 179h-63v25h63q5 0 8.5 3.5t3.5 9q0 5.5-3.5 9T288 229h-63v62q0 6-3.5 9.5t-9 3.5q-5.5 0-9-3.5T200 292V66q0-16 8.5-30.5t23-23Q246 4 262 4h26q5 0 8.5 3.5t3.5 9q0 5.5-3.5 9T288 29h-25q-12 0-22 7t-14 18h61q5 0 8.5 3.5t3.5 9q0 5.5-3.5 9T288 79h-63z"/></svg>