<svg viewBox="0 0 300 316" xmlns="http://www.w3.org/2000/svg"><path d="M275 29q-17-17-41.5-22.5t-49 2q-24.5 7.5-43 26T115 77q-5 15-16 26t-26 16q-24 8-42.5 26.5t-26 43q-7.5 24.5-2 49T25 279q12 12 28 18.5t34.5 6.5q18.5 0 37.5-8t34-23q18-18 26-42 5-15 16-26t26-16q24-8 42.5-26.5t26-43q7.5-24.5 2-49T275 29zM94 254q-8 0-13.5-5.5t-5.5-13q0-7.5 5.5-13t13-5.5q7.5 0 13 5.5t5.5 13q0 7.5-5.5 13T94 254zm37-44q-8 0-13.5-5.5t-5.5-13q0-7.5 5.5-13T131 173q8 0 13.5 5.5t5.5 13q0 7.5-5.5 13T131 210zm75-131q-8 0-13.5-5.5t-5.5-13q0-7.5 5.5-13T206 42q8 0 13.5 5.5t5.5 13q0 7.5-5.5 13T206 79z"/></svg>