<svg viewBox="0 0 300 316" xmlns="http://www.w3.org/2000/svg"><path d="M281 41q-8 0-13 5.5T263 60v81q0 6-4 9.5t-9 3.5q-5 0-9-3.5t-3-9.5V35q0-8-5.5-13.5T219 16q-8 0-13.5 5.5T200 35v106q0 6-3.5 9.5t-9 3.5q-5.5 0-9-3.5T175 141V23q0-8-5.5-13.5T156 4q-8 0-13.5 5.5T137 23v118q1 6-3 9.5t-9 3.5q-5 0-8.5-3.5T113 141V49q-1-7-5-13t-12-7q-8-1-14.5 4.5T75 48v158l-33-33q-1-2-5-4-8-5-17.5-3t-15 9.5Q-1 183 0 192.5T8 209l63 65q14 14 32.5 22t38.5 8h96q16 0 30.5-8.5t23-23Q300 258 300 241V60q0-8-5.5-13.5T281 41zm-90 171l-15 6-6 15q-2 5-7.5 5t-7.5-5l-6-15-16-6q-5-3-5-8.5t6-7.5l15-6 6-15q2-5 7.5-5t8.5 5l6 15 14 6q6 2 6 8t-6 8zm84 44l-16 7-7 16q-2 6-8.5 6t-8.5-6l-7-16-16-7q-6-3-6-9t6-8l17-7 6-16q2-6 8.5-6t8.5 6l7 16 16 7q6 2 6 8.5t-6 8.5zM31 116q-5 0-7-4l-5-14-14-6q-5-2-5-7.5T5 78l14-6 5-13q2-5 7.5-5t6.5 5l6 14 14 5q4 2 4 7.5T58 92l-14 6-6 14q-1 4-7 4z"/></svg>