<svg viewBox="0 0 300 316" xmlns="http://www.w3.org/2000/svg"><path d="M150 35q0 13 9 22.5t22 9q13-.5 22-9.5t9.5-22q.5-13-9-22T181 4q-13 0-22 9t-9 22zM13 98q-1 13 8.5 22t22.5 9q13 0 22-9t9-22q0-13-9-22.5T44 66q-13 0-22.5 9.5T12 98h1zm268 77l-43 26v-10q0-10-7.5-17.5T213 166h-13v-62h50q5 0 9-3.5t4-9.5V60l32-15q5-4 5-10t-5-9L262 6q-4-2-8-2-7 0-12 4.5T237 20v59h-62q-16 0-27 12l-38 36q-3 3-6 4l-68 13q-11 4-17.5 13.5T12 179v90L2 285q-3 4-2 9t5 7.5q4 2.5 7 2.5 7 0 11-6l12-18q2-3 2-7v-19h50v37q0 6 4 9.5t9 3.5h9q7 0 13-4l172-104q4-3 5.5-8t-1.5-9.5q-3-4.5-8-5.5t-9 2zM113 277v-23q0-10-7.5-17.5T87 229H75v-67l34-7q10-2 18-10l11-9v126l-25 15zm100-61l-50 31v-55h50v24z"/></svg>