<svg viewBox="0 0 300 316" xmlns="http://www.w3.org/2000/svg"><path d="M250 135v106q0 17-8.5 31.5t-23 23Q204 304 187 304H63q-17 0-31.5-8.5t-23-23Q0 258 0 241V116q0-16 8.5-30.5t23-23Q46 54 63 54h106q4 0 7 2t4.5 5.5q1.5 3.5.5 7.5t-3 6l-92 92q-10 10-10.5 24.5t10 25.5Q96 228 111 228.5t26-10.5l92-92q2-2 6-3t7.5.5q3.5 1.5 5.5 4.5t2 7zM263 4h-88q-5 0-8.5 3.5t-3.5 9q0 5.5 3.5 9T175 29h82L104 183q-4 3-4 8.5t3.5 9q3.5 3.5 9 3.5t8.5-4L275 47v82q0 5 3.5 8.5t9 3.5q5.5 0 9-3.5t3.5-8.5V41q0-15-11-26T262 4h1z"/></svg>