<svg viewBox="0 0 300 316" xmlns="http://www.w3.org/2000/svg"><path d="M136 304q-5 0-10-2-8-4-11.5-11.5T113 274l12-33h-13q-12 0-19.5-9.5T89 211l26-65q4-12 16-15 7-2 24-2h8q10 0 15.5 8t2.5 17l-18 37h13q7 1 12.5 4t8.5 9q3 6 3 12.5t-4 11.5l-41 66q-7 10-19 10zm89-236q-7-1-10-7-14-31-44.5-46T106 6q-31 5-52.5 27.5T26 87q-3 18 1 36 1 7-4 11-16 15-21 35.5T5 210q8 20 25.5 32T69 254h10q-4-3-7-7-7-10-9-21.5t2-22.5l27-66q5-15 18-24t29-9h24q10 0 19.5 5t16 13.5q6.5 8.5 8 19T204 162l-5 10q9 5 15.5 13.5t9 18.5q2.5 10 1 20t-7.5 18l-7 12q31-2 54-19 21-17 29.5-42t4-51.5Q293 115 275 96q-19-21-50-28z"/></svg>