<svg viewBox="0 0 300 316" xmlns="http://www.w3.org/2000/svg"><path d="M294 149q7-18 2-36-3-12-11-21t-19-14q-4-2-4-6-3-24-22-38.5T197 23q-4 1-8-3-16-16-39-16t-39 16q-4 4-8 3-24-4-43 10.5T38 72q0 4-4 6-11 5-19 14T4 113q-5 18 2 36 2 5 0 10-7 18-2 36 3 12 11 21t19 15q4 1 4 5 3 24 22 38.5t43 10.5q4-1 7 3 17 16 40 16t39-16q4-4 8-3 24 4 43-10.5t22-38.5q0-4 4-6 11-5 19-14t11-21q5-18-2-36-2-5 0-10zM81 179q-8 0-13-5.5T63 160q0-8 5-13.5t13-5.5q8 0 13.5 5.5T100 160q0 8-5.5 13.5T81 179zm50-113q8 0 13.5 5.5T150 85q0 8-5.5 13.5T131 104q-8 0-13.5-5.5T112 85q0-8 5.5-13.5T131 66zm0 175q-8 0-13.5-5t-5.5-13q0-8 5.5-13.5T131 204q8 0 13.5 5.5T150 223q0 8-5.5 13t-13.5 5zm25-75q-8 1-13-4.5t-5.5-13.5q-.5-8 5-13.5T156 129q8 0 13.5 5.5T175 148q0 8-5.5 13.5T156 167v-1zm63 25q-8 1-13.5-4.5T200 173q0-8 5.5-13.5T219 154q8 0 13.5 5.5T238 173q0 8-5.5 13.5T219 192v-1z"/></svg>