<svg viewBox="0 0 300 316" xmlns="http://www.w3.org/2000/svg"><path d="M263 204v-50q-1-26-12-49t-30-39h32q5 8 12.5 11t16 1q8.5-2 13.5-9t5-15.5q0-8.5-5.5-15T281 30q-8-2-15.5 1T253 41h-55q-4-16-17.5-26.5T150 4q-17 0-30.5 10.5T102 41H47q-5-7-12.5-10t-16-1Q10 32 5 39T0 54.5q0 8.5 5.5 15T19 78q8 2 15.5-1T47 67h32q-19 15-30 38t-12 49v50q-15 0-26 11T0 241v25q0 16 11 27t26 11h26q15 0 26-11t11-27v-25q0-15-11-26t-26-11v-50q0-23 11.5-43.5T107 78q6 12 17.5 19t25.5 7q14 0 25.5-7T193 78q21 12 32.5 32.5T238 154v50q-16 0-27 11t-11 26v25q0 16 11 27t27 11h25q15 0 26-11t11-27v-25q0-15-11-26t-27-11h1z"/></svg>