<svg viewBox="0 0 300 316" xmlns="http://www.w3.org/2000/svg"><path d="M238 154h62v87q0 17-8.5 31.5t-23 23Q254 304 238 304H63q-17 0-31.5-8.5t-23-23Q0 258 0 241v-87h63v12q0 6 3.5 9.5T75 179q5 0 8.5-3.5T88 167v-13h125v12q0 6 3.5 9.5t8.5 3.5q5 0 9-3.5t4-8.5v-13zm62-38v13h-62v-13q0-5-4-8.5t-9-3.5q-5 0-8.5 3.5T213 117v12H88v-13q0-5-4-8.5t-9-3.5q-5 0-8.5 3.5T63 117v12H0v-13q0-16 8.5-30.5t23-23Q46 54 63 54h13q5-22 22-36t40-14h25q22 0 39 14t22 36h14q16 0 30.5 8.5t23 23Q300 100 300 117v-1zM102 54h96q-4-11-13.5-18T162 29h-25q-12 0-21.5 7T102 54z"/></svg>