<svg viewBox="0 0 300 316" xmlns="http://www.w3.org/2000/svg"><path d="M150 4q-26 0-49 11T62 46Q46 66 40.5 91t0 50q5.5 25 21 45t39.5 32q3 20 17 34l20 20v19q0 6 3.5 9.5t8.5 3.5q5 0 9-3.5t4-8.5v-20l19-20q14-14 17-34 24-12 39.5-32t21-45q5.5-25 0-50T238 46q-16-20-39-31T150 4zm38 62q5 1 8.5 4.5T200 79q0 5-3.5 9t-9 3.5q-5.5-.5-9-4T175 79q0-5 3.5-9t8.5-4h1zm-25 38q5 0 8.5 3.5t3.5 9q0 5.5-3.5 9t-9 3.5q-5.5 0-9-3.5t-3.5-9q0-5.5 3.5-9t8.5-3.5h1zm-25 37q5 0 8.5 4t3.5 9q0 5-3.5 9t-9 3.5q-5.5-.5-9-4T125 154q0-5 3.5-9t9.5-4zm26 94l-14 14-14-14q-8-8-10-18h48q-2 10-10 18zm24-69q-6 0-9.5-3.5T175 154q0-5 3.5-9t9-4q5.5 0 9 4t3.5 9q0 5-3.5 9t-8.5 4v-1zm25-37q-6 0-9.5-3.5t-3.5-9q0-5.5 3.5-9t9-3.5q5.5 0 9 3.5t3.5 9q0 5.5-3.5 9T213 129z"/></svg>