<svg viewBox="0 0 300 316" xmlns="http://www.w3.org/2000/svg"><path d="M139 161q-11-11-26.5-11T86 161L0 246q2 25 20 41.5T63 304h175q18 0 34-10L139 161zm61-82q0 10 7.5 17.5T225 104q10 0 17.5-7.5T250 79q0-10-7.5-17.5T225 54q-10 0-17.5 7.5T200 79zm38-75H63q-17 0-31.5 8.5t-23 23Q0 50 0 66v145l68-68q9-9 20.5-13.5t24-4.5q12.5 0 24 4.5T157 143l133 133q10-16 10-35V66q0-16-8.5-30.5t-23-23Q254 4 238 4zm-13 125q-21 0-35.5-14.5T175 79q0-21 14.5-35.5T225 29q21 0 35.5 14.5T275 79q0 21-14.5 35.5T225 129z"/></svg>