<svg viewBox="0 0 300 316" xmlns="http://www.w3.org/2000/svg"><path d="M188 245q4 4 4 9t-3.5 8.5Q185 266 179 266H63q-17 0-31.5-8t-23-22.5Q0 221 0 204V104q0-9 2.5-17t9-9.5Q18 76 24 81l38 39-27 93q-1 5 1.5 9.5t7.5 6q5 1.5 9.5-1T59 220l5-16h47l5 16q1 4 4 6.5t8 2.5l3-1q5-1 7.5-5.5t1.5-9.5l-7-23 55 55zm112-41V104q0-17-8.5-31.5t-23-23Q254 41 238 41H63l-7 1L21 8q-3-4-8.5-4t-9 3.5Q0 11 0 16.5T4 25l67 67v-1q1-5 6-8.5T87 79q6 0 10.5 3.5T104 91l14 49 45 44v-80q0-10 7-17.5t18-7.5h18q24 0 40.5 16.5T263 135v38q0 23-16.5 39.5T207 229l72 71q3 4 8.5 4t9-3.5q3.5-3.5 3.5-8.5t-3-9l-26-26q13-8 21-22t8-31zm-196-25l-8-26-13-13-12 39h33zm134-6v-38q0-13-9.5-22t-22.5-9h-18v100h18q13 0 22.5-9t9.5-22z"/></svg>