<svg viewBox="0 0 300 316" xmlns="http://www.w3.org/2000/svg"><path d="M213 4H87q-17 0-31 8.5T33.5 35Q25 49 25 66v151q13-10 30-12 4-1 8-1h212V66q0-16-8.5-30.5t-23-23Q229 4 213 4zm-92 94q-2 6-8.5 6t-8.5-6l-7-16-16-7q-6-2-6-8.5t6-8.5l16-7 7-16q2-6 8.5-6t8.5 6l7 16 16 6q6 3 6 9t-6 9l-16 7-7 16zm95 49l-18 5-5 18q-1 4-4 6.5t-7.5 2.5q-4.5 0-8-2.5T169 170l-4-18-18-5q-4-1-6.5-4t-2.5-7.5q0-4.5 2.5-8t6.5-4.5l18-4 4-18q1-4 4.5-6.5t8-2.5q4.5 0 7.5 2.5t4 6.5l5 18 17 4q5 1 7.5 4t2.5 7.5q0 4.5-2.5 8T216 147zM62 229h213v12q0 17-8.5 31.5t-23 23Q229 304 212 304H63q-16 0-27-11t-11-26.5Q25 251 36 240t26-11z"/></svg>