<svg viewBox="0 0 300.003 316" xmlns="http://www.w3.org/2000/svg"><path d="M192 131q19 4 38-6 10-5 16-11-2-56-15-83T195 4h-1q-22 0-37 23-12 19-19 54 0 1 3 8t9 14q7 9 17 16 11 8 25 12zm107 58q-8-15-22-26.5T247 143l-4 3q-5 3-11 6-9 3-19 4-12 1-25-1-24-4-41-21-9-9-17-24l-2-3-8-2q-37-6-68 13-4 2-5 5.5t0 7.5v1q1 4 5 6t8 1q23-4 38 0t27 17q-4 12-12 24-17 29-47 44-22 9-36 25-7 8-11 16v1h-7q-5 0-8.5 3.5T0 278q0 6 3.5 9.5T12 291h6l3 3q4 4 10 6 11 4 31 4 79 0 127-39-2-26-9-40-6-10-16-15-4-2-6-6t-1-9q2-5 7-7.5t10-.5q16 8 26 23 11 18 13 50 1 3 3 6t6 4q4 1 8-.5t5-5.5q8-19 10-38t-3-36q23 4 40 14 6 4 12 0h1q4-2 5-6.5t-1-8.5z"/></svg>