<svg viewBox="0 0 300 316" xmlns="http://www.w3.org/2000/svg"><path d="M209 154H91q-16 0-27 11t-11 26l9 76v24q1 6 4.5 9.5T75 304q5 0 8.5-3.5T87 292v-13h26v12q0 6 3.5 9.5t8.5 3.5q5 0 9-3.5t4-8.5v-13h25v12q-1 6 3 9.5t9 3.5q5 0 9-3.5t4-8.5v-13h25v12q0 6 3.5 9.5t8.5 3.5q5 0 9-3.5t3-8.5v-23l10-78q0-15-11-26t-27-11zm10 29q3 4 3 8l-2 13h-32v-25h21q6 0 10 4zm-56 21h-25v-25h25v25zm-82-21q4-4 10-4h22v25H80l-2-12q0-5 3-9zm5 71l-3-25h30v25H86zm52 0v-25h25v25h-25zm50-25h29l-3 25h-26v-25zm12-100H100v-25q0-5 3.5-9t9.5-4h75q5 0 8.5 4t3.5 9v25zm100-63v100q0 17-8.5 31.5T269 221l2-22q3-23-10-42.5T225 131v-27q0-16-11-27t-27-11h-74q-16 1-27 11.5T75 104v27q-23 6-36 25.5T29 199l2 22q-14-9-22.5-23.5T0 166V66q0-16 8.5-30.5t23-23Q46 4 62 4h176q16 0 30.5 8.5t23 23Q300 50 300 66z"/></svg>