<svg viewBox="0 0 300 316" xmlns="http://www.w3.org/2000/svg"><path d="M88 41q-13 0-25 4V35q0-13 9-22t22-9h112q13 0 22.5 9t9.5 22v10q-13-4-25-4H88zm125 25H88q-17 1-31.5 9t-23 22.5Q25 112 25 129v112q0 17 8.5 31.5t23 23Q71 304 87 304h45q-25-8-36-20-9-9-15-34-1-6 3.5-10.5T95 236q26 5 33 12t9 21v-32q-7-2-16-6-17-7-25.5-16T81 181q-1-6 3.5-10.5T95 167q26 6 33 13t9 20v-24q-12-16-12-28 0-8 4-18 3-7 10-20 4-6 11-6t11 6q7 13 10 20 4 10 4 18 0 12-13 28v24q3-13 10-20t33-13q6-1 10.5 3.5T218 181q-5 25-14 34t-26 16q-9 4-16 6v32h1q2-14 9-21t33-12q6-1 10.5 3.5T219 250q-6 25-15 34-11 12-36 20h45q16 0 30.5-8.5t23-23Q275 258 275 241V129q0-17-8.5-31.5t-23-23Q229 66 213 66z"/></svg>