<svg viewBox="0 0 300 316" xmlns="http://www.w3.org/2000/svg"><path d="M0 148q1-25 10-48t24-42l14 45q1 4 0 8t-5 6L0 148zM143 39q3 3 7 3t7-3l38-28q-45-14-91 0l39 28zm113 78l44 31q-1-25-10-48t-25-42l-13 45q-1 4 0 8t4 6zM84 238q-2-4-5-6.5t-7-2.5H20q14 24 35 41t47 26l-18-58zm144-9q-4 0-7.5 2.5T216 238l-19 58q26-8 47.5-25.5T280 229h-52zm-57-54l9-28q1-5-2-7l-24-18q-4-3-8 0l-24 18q-3 2-2 7l9 28q2 4 6 4h30q4 0 6-4zm-2 128q-10 1-19.5 1t-18.5-1l-23-73q-4-12-14-19t-22-7H9q-5-13-7-27l56-39q10-7 14-18.5T72 96L54 38q11-9 24-15l50 36q10 8 22 8t22-8l50-36q13 6 24 16l-18 57q-4 12 0 23.5t14 18.5l56 39q-2 14-7 27h-63q-12 0-22 7t-14 19l-23 73zm-4-99q10 0 18-6t12-16l9-28q3-9 0-19t-12-16l-24-17q-8-6-18-6t-18 6l-24 17q-9 6-12 16t0 19l9 28q4 10 12 16t18 6h30z"/></svg>