<svg viewBox="0 0 300 316" xmlns="http://www.w3.org/2000/svg"><path d="M250 129q0-28-14-51t-38-36q12-7 22-17 4-3 4-8.5t-3.5-9Q217 4 211.5 4T202 8q-10 10-23.5 15.5T150 29q-15 0-28.5-5.5T98 8q-4-4-9.5-4t-9 3.5Q76 11 76 16.5t4 8.5q10 10 22 17-24 13-38 36t-14 51q0 25 11.5 46.5T93 211q20 14 45 17v26h-13q-5 0-8.5 3.5t-3.5 9q0 5.5 3.5 9t8.5 3.5h13v12q0 6 3.5 9.5t8.5 3.5q5 0 8.5-3.5t3.5-9.5v-12h13q5 0 8.5-3.5t4-9q.5-5.5-3.5-9t-9-3.5h-12v-26q24-3 44-17t31.5-35.5Q250 154 250 129zm-175 0q0-20 10-37.5T112.5 64Q130 54 150 54t37.5 10Q205 74 215 91.5t10 37.5q0 20-10 37.5T187.5 194Q170 204 150 204t-37.5-10Q95 184 85 166.5T75 129z"/></svg>