<svg viewBox="0 0 300 316" xmlns="http://www.w3.org/2000/svg"><path d="M188 173q0-18-13-31t-31-13H44q-18 0-31 13T0 173q0 13 7 23.5T25 212v29H13q-6 0-9.5 4T0 254q0 5 3.5 8.5T13 266h12v25q0 6 3.5 9.5t9 3.5q5.5 0 9-3.5T50 291v-25h88v25q0 6 3.5 9.5t8.5 3.5q5 0 8.5-3.5t3.5-9.5v-25h13q5 0 9-3.5t4-8.5q0-5-4-9t-9-3h-12v-30q11-5 18-15.5t7-23.5zM50 241v-25h88v25H50zm244-110q9 18 4 36t-20 28.5q-15 10.5-34 8.5-3-1-5 .5t-2 4.5v83q1 5-3 8.5t-9 3.5q-5 0-8.5-3.5T213 292V173q0-24-15-43t-38-24q-5-1-7.5-5t-2.5-9q2-15 21-29 4-2 4-8 0-10 4-20.5t13-18Q201 9 212 6q13-4 27 0 11 3 19.5 10.5t12.5 18q4 10.5 4 20.5 0 6 4 8 10 7 15.5 18t5.5 22.5q0 11.5-5 22.5-1 3-1 4v1z"/></svg>