<svg viewBox="0 0 300 316" xmlns="http://www.w3.org/2000/svg"><path d="M213 4H88q-17 0-31.5 8.5t-23 23Q25 50 25 67v174q0 17 8.5 31.5t23 23Q71 304 87 304h126q16 0 30.5-8.5t23-23Q275 258 275 241V66q0-16-8.5-30.5t-23-23Q229 4 212 4h1zm-63 52q5 0 9 18 2 16 3 42h-24q1-26 4-42 3-18 8-18zm13 85q-2 26-5 43.5t-8 17.5q-5 0-8-17.5t-4-42.5h25v-1zm-56-73q4-3 8-.5t3 7.5q-4 18-5 42H76q3-15 11-27.5T107 68zm-31 73h37q1 24 5 42 1 5-3 7.5t-8-.5q-12-9-20-21.5T76 141zm124 113H100q-5 0-9-3.5t-3.5-9q.5-5.5 4-9t8.5-3.5h100q5 0 9 3.5t4 9q0 5.5-4 9t-9 3.5zm-6-64q-4 3-8 .5t-3-7.5q3-18 4-41h37q-2 14-10 26.5T194 190zm-7-74q-1-23-4-41-1-5 3-7.5t8 .5q12 9 20 21.5t10 27.5h-37v-1z"/></svg>