<svg viewBox="0 0 300 316" xmlns="http://www.w3.org/2000/svg"><path d="M275 136q-2-31-20-57 8 1 15.5-1.5t13.5-9q6-6.5 11-18t5-22.5q0-11-6.5-17.5T276 4q-11 0-22.5 5t-18 11q-6.5 6-9 13.5T225 49q-26-18-57-20-9-9-21-16-19-9-41-9H87q-5 0-8.5 3.5t-3.5 9q0 5.5 3.5 9T87 29h19q13 0 25 5-22 7-38 23-13 13-25 34t-20 45q-19 3-32 15-16 16-16 40 0 6 3.5 9.5t9 3.5q5.5 0 9-3.5T25 191q0-19 15-27-7 40 4 66-10 13-18 35-3 6 2 11t11 2q22-8 35-18 16 7 37 7 13 0 29-3-8 15-27 15-6 0-9.5 3.5t-3.5 9q0 5.5 3.5 9t9.5 3.5q24 0 40-16 12-13 15-32 24-8 45-20t34-25q16-16 23-38 5 12 5 25v18q0 6 3.5 9.5t9 3.5q5.5 0 9-3.5t3.5-9.5v-18q0-22-9-41-7-12-16-21zm-39 5h-24l-11 40 9 9q4 5 3.5 10.5T208 209v1q-3 2-7.5 1.5T193 208l-13-13-30 8v23q0 4-3 7.5t-7 4.5q-6 1-10.5-2.5T125 226v-37l-10-10H78q-6 0-9.5-4.5T66 164q1-4 4.5-7t7.5-3h24l7-29-13-14q-3-3-3.5-7.5T94 96v-1q4-4 9.5-5t10.5 4l9 10 39-11V68q0-6 4.5-10t10.5-3q5 1 7.5 4.5T187 68v38l11 11h38q5 0 8.5 2.5t4.5 7.5q1 6-3 10.5t-10 4.5v-1zm-72-23l22 22-8 30-29 8-22-22 8-30 29-8z"/></svg>