<svg viewBox="0 0 300 316" xmlns="http://www.w3.org/2000/svg"><path d="M296 8q-3-4-8.5-4T279 8l-35 35-23-23q-3-3-8.5-3t-9 3.5Q200 24 200 29t4 9l22 22-20 20-22-22q-4-4-9-4t-8.5 4q-3.5 4-3.5 9t3 8l23 23-16 15q-15-19-29-21t-23 9.5q-9 11.5-9 29t11 33.5l-17 16-22-23q-4-3-9-3t-8.5 3.5Q63 161 63 166t3 9l23 23-5 5q-8 8-13 10-8 4-23 3t-28 7.5q-13 8.5-18 23t.5 28.5Q8 289 21 297.5t28 6.5q15-2 26-13 3-4 3-9t-3.5-8.5Q71 270 66 270t-9.5 4q-4.5 4-11.5 4.5T32.5 275q-5.5-4-7-11t1.5-13q6-9 21-9 22 0 35-7 9-5 23-20l23 23q5 5 12 3.5t9-9q2-7.5-4-12.5l-22-22 16-16q16 10 33.5 10t29-9q11.5-9 9.5-23t-21-29l15-16 23 23q3 3 8 3t8.5-3.5q3.5-3.5 4-8.5t-3.5-9l-22-22 20-20 22 22q4 4 9 3.5t8.5-4Q287 96 287 91t-3-8l-23-23 35-35q4-3 4-8.5T296 8z"/></svg>