<svg viewBox="0 0 300 316" xmlns="http://www.w3.org/2000/svg"><path d="M188 4h-75q-17 0-31.5 8.5t-23 23Q50 50 50 66v200q0 16 11 27t26 11h126q15 0 26-11t11-27V66q0-16-8.5-30.5t-23-23Q204 4 187 4h1zm-63 237h-12q-6 1-9.5-3t-3.5-9q0-5 3.5-9t9.5-4h12q5 1 9 4.5t4 8.5q0 5-4 9t-9 3zm0-50h-12q-6 1-9.5-3t-3.5-9q0-5 3.5-8.5t9.5-3.5h12q5-1 9 3t4 9q0 5-4 8.5t-9 3.5zm25-62q-5 0-9-3.5t-4-9.5v-12h-12q-5 0-9-3.5t-4-9q0-5.5 4-9t9-3.5h13V66q0-5 3.5-8.5T150 54q5 0 9 3.5t4 9.5v12h12q5 0 9 3.5t4 9q0 5.5-4 9t-9 3.5h-12v12q0 6-4 9.5t-9 3.5zm38 112h-13q-5 1-8.5-3t-3.5-9q0-5 3.5-8.5t8.5-3.5h13q5 0 8.5 3.5t3.5 8.5q0 5-3.5 8.5T188 241zm0-50h-13q-5 1-9-3t-3.5-9q.5-5 4-9t8.5-3h13q5-1 8.5 3t3.5 9q0 5-3.5 8.5T188 191zM25 291q-12-9-18.5-22T0 242V141q0-14 6.5-27T25 92v199zm275-150v100q0 15-6.5 28T275 291V92q12 9 18.5 22t6.5 27z"/></svg>