<svg viewBox="0 0 300 316" xmlns="http://www.w3.org/2000/svg"><path d="M256 4H44Q26 4 13 17T0 48v50q0 18 13 30.5T44 142h25q2-4 5-7l6-7q10-8 23-10.5t25 1.5l62 22h66q18 0 31-12.5T300 98V48q0-18-13-31T256 4zM55 88q-1 7-7 11.5T34 104q-8 0-15-4-3-2-3.5-5t2.5-6q3-3 7-.5t8.5 2.5q4.5 0 6.5-1.5t2.5-4.5q.5-3-6.5-6l-14-6q-10-6-8-16 0-5 3.5-9t8.5-5q10-3 19 2 3 1 3.5 4t-2 6q-2.5 3-7 1T31 55q-4 1-4.5 3.5T28 62l13 5q9 3 12.5 9T55 88zm23 10q0 2-2 4t-4.5 2q-2.5 0-4.5-2t-2-4V48q0-3 2-5t4.5-2q2.5 0 4.5 2t2 5v50zm50-13q0 7-5 12.5t-12.5 6.5q-7.5 1-14-4.5T90 85V61q0-7 5-12.5t11-6.5q6-1 10.5 1t7.5 6q1 1 0 3t-3 2h-12q-2 0-4 2t-2 4v25q0 3 2 5t5 1.5q3-.5 4-2.5t1-4v-6q-2 0-4-2t-2-4.5q0-2.5 2-4t5-1.5h4q3 0 5.5 2t2.5 5v11zm50 13q0 2-2 4t-4.5 2q-2.5 0-4.5-2t-2-4V60q0-3-2-4.5t-4.5-1q-2.5.5-4 2T153 60v38q0 2-2 4t-4.5 2q-2.5 0-4.5-2t-2-4V48q0-3 2-5t4.5-2q2.5 0 4.5 2h2q8-3 15 1 4 2 7 7t3 11v36zm62-13q0 7-4.5 12.5T223 104q-8 1-14-4.5T203 85V48q0-3 2-5t4.5-2q2.5 0 4 2t1.5 5v37q0 3 2.5 5t5 1.5q2.5-.5 4-2.5t1.5-4V48q0-3 2-5t4.5-2q2.5 0 4 2t1.5 5v37zm50-23q-1 7-6.5 12T271 79h-6v19q0 2-1.5 4t-4 2q-2.5 0-4.5-2t-2-4V48q0-3 2-5t4-2h13q8 0 13.5 6.5T290 62zm-12 0q-1 2-2.5 3.5T271 67h-6V54h7q3 0 4.5 2.5T278 62zm-78 175l34-34q5-5 3.5-11.5T229 182l-109-39q-7-2-13.5-.5T95 149q-5 5-6.5 11.5T89 174l39 109q3 7 9 8h3q5 0 9-3l34-34 46 46q3 4 8.5 4t9-3.5q3.5-3.5 3.5-9t-4-8.5l-46-46z"/></svg>