<svg viewBox="0 0 300 316" xmlns="http://www.w3.org/2000/svg"><path d="M175 204h-41q-7 0-12.5-4t-7.5-10q-2-6-.5-12.5T120 166l10-9q16-12 22-20 12-13 10-23 0-4-3.5-7t-8.5-3q-5 0-9 3.5t-3.5 9-3.5 9q-4 3.5-9 3.5t-8.5-3.5Q113 122 113 117q0-16 10.5-27T149 79q15 0 26 9t12 23q2 20-13 39-8 11-28 27l-3 2h32q5 0 9 3.5t4 9q0 5.5-4 9t-9 3.5zm122-7q4-5 2.5-12t-8.5-10q-10-3-29-5 25-4 32-23 9-22 4-56-1-6-6-8t-9 0q-11 7-21 16 8-12 11-23 4-15-2-27t-16-24.5Q245 12 237.5 7t-15-1.5Q215 9 214 17q-2 17 0 37 3 27 13 47 7 42-3 76-7 26-23 46-11 14-24.5 22.5T150 257q-12-3-25-11.5T101 223q-19-23-26-53.5T72 104q11-21 14-48 2-21 0-39-1-8-8.5-11.5T62.5 7Q55 12 45 24.5T29 49q-6 12-2 27 3 11 11 23-10-9-21-16-4-2-9 0t-6 8q-5 34 4 56 7 19 32 23-19 2-29 5-7 3-8.5 10T3 197q7 8 22 17t27 13h2q-16 8-24 14-5 5-5 11.5t6 10.5q8 5 22.5 9.5T82 278q-3 4-5 7-3 6 0 11.5t9 6.5q15 2 30 1 20-2 34-7 14 5 34 7 15 1 30-1 7-1 10-6.5t-1-11.5q-1-3-4-7 14-1 28-5.5t22-9.5q6-4 6-10.5t-5-11.5q-8-6-24-14h2q12-4 27-13t22-17z"/></svg>