<svg viewBox="0 0 300 316" xmlns="http://www.w3.org/2000/svg"><path d="M88 4q-6 0-9.5 3.5T75 16v25q0 16-11 27T38 79H13q-6 0-9.5 3.5t-3.5 9q0 5.5 3.5 9T12 104h26q16 0 30.5-8.5t23-23Q100 58 100 41V16q0-5-3.5-8.5T87 4h1zm200 200h-25q-17 0-31.5 8.5t-23 23Q200 250 200 267v24q0 6 3.5 9.5t9 3.5q5.5 0 9-3.5t3.5-8.5v-26q0-15 11-26t27-11h25q5 0 8.5-3.5t3.5-9q0-5.5-3.5-9T288 204zm-25-100h25q5 0 8.5-3.5t3.5-9q0-5.5-3.5-9T288 79h-25q-16 0-27-11t-11-27V16q0-5-3.5-8.5t-9-3.5q-5.5 0-9 3.5T200 16v25q0 17 8.5 31.5t23 23Q246 104 262 104h1zM38 204H13q-6 0-9.5 3.5t-3.5 9q0 5.5 3.5 9T12 229h26q15 0 26 11t11 26v25q0 6 3.5 9.5t9 3.5q5.5 0 9-3.5t3.5-8.5v-26q0-16-8.5-30.5t-23-23Q54 204 38 204z"/></svg>