<svg viewBox="0 0 300 316" xmlns="http://www.w3.org/2000/svg"><path d="M163 141q0 11-7.5 18t-18 7q-10.5 0-17.5-7t-7-17.5q0-10.5 7-17.5t17.5-7.5q10.5-.5 17.5 7t7 18.5l1-1zm137 25q0 11-7.5 18.5T275 191h-4l-3 21q-3 23-20.5 38.5T206 267h-6q0 15-11 26t-27 11H75q-16 0-27-11t-11-26v-13q1-16-9-29-22-29-27-66t9.5-71q14.5-34 44-56.5t66-27Q157 0 191 14.5T248 59q12 16 32 55.5t20 52.5v-1zm-114-38l12-7q6-3 6-10.5t-6-11q-6-3.5-13 .5l-12 7q-10-10-23-14V79q0-5-3.5-9t-9-3.5q-5.5.5-9 4T125 79v14q-13 4-23 14l-12-7q-7-4-13-.5t-6 11q0 7.5 6 10.5l12 7q-1 7-1 13.5t1 13.5l-12 7q-4 2-5.5 7t1 9.5q2.5 4.5 7.5 6t10-1.5l12-7q10 10 23 14v14q0 5 3.5 8.5t9 4q5.5.5 9-3.5t3.5-9v-14q13-4 23-14l12 7q7 4 13 .5t6-11q0-7.5-6-10.5l-12-7q1-7 1-13.5t-1-13.5z"/></svg>