<svg viewBox="0 0 300 316" xmlns="http://www.w3.org/2000/svg"><path d="M150 4q-41 0-75.5 20T20 78.5Q0 113 0 154t20 75.5Q40 264 74.5 284t75.5 20q41 0 75.5-20t54.5-54.5q20-34.5 20-75.5t-20-75.5Q260 44 225.5 24T150 4zm18 102l38-25q4-3 9-2t8 5.5q3 4.5 2 9.5t-6 8l-21 14 21 15q5 3 6 8t-2.5 10q-3.5 5-10.5 5-3 0-6-2l-38-25q-5-4-5-10.5t5-10.5zm-87-4q-5-3-6-8t2-9.5q3-4.5 8-5.5t9 2l38 25q6 4 5.5 10.5T132 127l-38 25q-3 2-6 2-7 0-10.5-5T75 139q1-5 6-8l21-15-21-14zm166 98l-23 23q-5 6-13 6t-13-6l-18-16-17 17q-5 5-13 5t-13-5l-17-17-18 16q-5 6-13 6t-13-6l-23-23q-3-4-3-9t3.5-8.5q3.5-3.5 9-3.5t8.5 4l18 18 17-17q6-5 13.5-5t13.5 5l17 17 17-17q6-5 13.5-5t13.5 5l17 17 18-18q3-4 8-4t9 3.5q4 3.5 4 8.5t-4 9h1z"/></svg>