<svg viewBox="0 0 300 316" xmlns="http://www.w3.org/2000/svg"><path d="M300 221q-4-29-25-48t-50-19q-20 0-37.5 10T160 191.5Q150 209 150 229q0 29 19 50t47 24l9 1q20 0 37.5-10t27.5-27.5q10-17.5 10-37.5v-8zm-50 33q-4 4-9 4t-9-4l-16-16q-3-4-3-9v-25q0-5 3.5-8.5t8.5-3.5q5 0 9 3.5t4 8.5v20l12 12q4 4 4 9t-4 9zm-125-25q0-27 13.5-50t36.5-36.5q23-13.5 50-13.5V79h13q5 0 8.5-3.5t3.5-9q0-5.5-3.5-9T238 54h-39q-5-22-22-36T137 4h-24Q90 4 73 18T51 54H13q-6 0-9.5 3.5t-3.5 9q0 5.5 3.5 9T13 79h12v162q0 17 8.5 31.5t23 23Q71 304 87 304h72q-16-14-25-33.5t-9-41.5zM77 54q4-11 13.5-18t21.5-7h26q12 0 21.5 7T173 54H77z"/></svg>