<svg viewBox="0 0 300 316" xmlns="http://www.w3.org/2000/svg"><path d="M63 254q0 13-9.5 22T31 285q-13 0-22-9t-9-22q0-13 9-22t22-9q13 0 22.5 9t8.5 22h1zM269 85q13 0 22-9t9-22q0-13-9-22t-22-9q-13 0-22.5 9t-9 22q.5 13 9.5 22t22 9zm-13 100v6q0 6 4 9.5t9 3.5q5 0 8.5-3.5t3.5-8.5v-7q0-23-16.5-39.5T225 129H56q-13 0-22-9t-9-22q0-13 9-22.5T56 66h122l-16 17q-4 3-4 8.5t3.5 9q3.5 3.5 9 3.5t8.5-4l25-24q9-9 9-21.5T204 33L179 8q-4-4-9-4t-9 3.5q-4 3.5-4 9t4 8.5l16 16H56q-23 0-39.5 16.5T0 97.5q0 23.5 16.5 40T56 154h169q13 0 22 9t9 22zm13 38q-13 0-22.5 9t-9 22q.5 13 9.5 22t22 9q13 0 22-9t9-22q0-13-9-22t-22-9zm-90-15q-4-4-9-4t-9 3.5q-4 3.5-4 9t4 8.5l16 16h-77q-5 0-8.5 4t-3.5 9q0 5 3.5 9t8.5 4h78l-16 16q-4 3-4 8.5t3.5 9q3.5 3.5 9 3.5t8.5-4l25-24q9-9 9-21.5t-9-21.5l-25-25z"/></svg>