<svg viewBox="0 0 300 316" xmlns="http://www.w3.org/2000/svg"><path d="M50 20q0-7 4.5-11.5T66 4q42 3 62 23.5T150 92q2-44 22-64.5T234 4q7 0 11.5 4.5T250 20q-3 42-23.5 61.5T162 104l1 25q-1 8-7 11t-12 0q-6-3-6-11v-25q-44-3-64.5-22.5T50 20zm243 150q-10-14-27-16-9-1-16.5 2t-13.5 9l-24 22q2 14-4.5 26.5T189 234q-12 8-27 7h-49q-8 0-11-6t0-12q3-6 10-7h51q11 0 17.5-7t6.5-17.5q0-10.5-6.5-17.5t-18.5-8h-48q-28 0-53 10.5T16 207L3 220q-3 4-3 9v62q0 6 3.5 9.5T13 304h129q25 0 49-9.5t43-26.5l54-49q10-10 11.5-24t-6.5-25z"/></svg>