<svg viewBox="0 0 300 316" xmlns="http://www.w3.org/2000/svg"><path d="M138 216v50q0 13-8 23t-21 13q-7 2-15 2-23 0-41-13.5T28 256q-13-9-20.5-22.5t-7.5-30Q0 187 9 173q-9-15-9-30.5T6.5 114Q13 101 25 92v-1q0-17 11-30.5T64 43q4-17 17.5-28T112 4h1q10 0 17.5 7.5T138 29v75h-29q-3-6-9-9t-13-4q-10 0-17 7.5t-7 18q0 10.5 7 17.5t18 7q6 1 12-2.5t9-9.5h29v62h-29q-3-5-9-8.5T87 179q-10 0-17 7.5T63 204q0 10 7 17.5t18 7.5q6 0 12-3.5t9-9.5h29zm162-75q0-14-6.5-27T275 92v-1q0-17-11-30.5T236 43q-4-17-17.5-28T187 4q-10 0-17 7.5T163 29v125h25q5 0 8-3t4-6v-7q-7-4-10.5-11.5T188 111q2-8 7-12.5t12-6.5q12-2 21.5 5.5T238 117q0 6-3.5 12t-9.5 9v4q0 15-11 26t-26 11h-25v87q0 13 7.5 23t20.5 13q7 2 15 2 23 0 41-13t25-35q13-9 20.5-22.5t7.5-30q0-16.5-9-30.5 9-15 9-31v-1z"/></svg>