<svg viewBox="0 0 300 316" xmlns="http://www.w3.org/2000/svg"><path d="M238 304H63q-6 0-9.5-3.5t-3.5-9q0-5.5 3.5-9T62 279h176q5 0 8.5 3.5t3.5 9q0 5.5-3.5 9T237 304h1zm-38-75q0-5-3.5-9t-9.5-4h-74q-6 0-9.5 4t-3.5 9q0 5 3.5 9t8.5 3h76q5 0 8.5-3.5t3.5-8.5zm13-63q-1-5-4.5-8.5T200 154H100q-5 0-8.5 3.5t-4 9q-.5 5.5 3.5 9t9 3.5h100q5 0 8.5-3.5t3.5-9.5h1zm12-62q0-5-3.5-9t-9.5-4H88q-6 0-9.5 4t-3.5 9q0 5 3.5 9t8.5 4h126q5-1 8.5-4.5t3.5-8.5zm-37-63q0-5-4-8.5t-9-3.5h-50q-5 0-8.5 3.5t-3.5 9q0 5.5 3.5 9T125 54h50q5 0 9-3.5t3-8.5l1-1zM56 245l4-18 18-4q4-2 6.5-5t2.5-7.5q0-4.5-2.5-8T78 198l-18-4-4-18q-1-4-4.5-6.5t-8-2.5q-4.5 0-7.5 2.5t-4 6.5l-5 18-17 4q-5 1-7.5 4T0 209.5q0 4.5 2.5 8T9 222l18 5 5 18q1 4 4 6.5t7.5 2.5q4.5 0 8-2.5T56 245zM271 73l7-16 16-7q6-2 6-8.5t-6-8.5l-16-7-7-16q-2-6-8.5-6t-8.5 6l-7 16-16 6q-6 3-6 9t6 9l16 7 7 16q2 6 8.5 6t8.5-6z"/></svg>