<svg viewBox="0 0 300 316" xmlns="http://www.w3.org/2000/svg"><path d="M63 229q5 0 8.5-3.5T75 216v-37h150v37q0 6 3.5 9.5t9 3.5q5.5 0 9-3.5t3.5-9.5V66q0-15 11-26t27-11q5 0 8.5-3.5t3.5-9q0-5.5-3.5-9T288 4q-17 0-31.5 8.5t-23 23Q225 50 225 67v12H75V66q0-15 11-26t26-11q6 0 9.5-3.5t3.5-9q0-5.5-3.5-9T112 4q-16 0-30.5 8.5t-23 23Q50 50 50 67v149q0 6 3.5 9.5T63 229zm162-125v50H75v-50h150zm72 170q3 3 3 8.5t-4 8.5q-14 13-33 13-11 0-21-4t-17-11q-7 7-17 11t-20.5 4q-10.5 0-20.5-4t-17-11q-7 7-17 11t-20.5 4q-10.5 0-20.5-4t-17-11q-7 7-17 11t-21 4q-19 0-33-13-4-3-4-8.5t3.5-9q3.5-3.5 8.5-4t9 3.5q7 6 16 6t16.5-5q7.5-5 9.5-12 2-3 5-5.5t7-2.5q4 0 7 2.5t5 5.5q2 7 9.5 12t16 5q8.5 0 16-5t9.5-12q2-3 5-5.5t7-2.5q4 0 7 2.5t5 5.5q2 7 9.5 12t16 5q8.5 0 16-5t9.5-12q2-3 5-5.5t7-2.5q4 0 7 2.5t5 5.5q2 7 9.5 12t16.5 5q9 0 16-6 4-4 9-3.5t9 4.5z"/></svg>