<svg viewBox="0 0 300 316" xmlns="http://www.w3.org/2000/svg"><path d="M250 104v81q-28-35-66-58 30-21 66-23zm-1 136q-4 27-25 45.5T175 304h-50q-20 0-37.5-10T60 266.5Q50 249 50 229V104q20 0 51 10.5t61 27.5q33 20 55 43 25 27 32 55zm-136 14q-1-5-4.5-8.5t-8.5-4q-5-.5-8.5 3.5t-3.5 9q0 5 3.5 8.5t8.5 3.5q5 0 8.5-3.5t3.5-8.5h1zm25-38q0-5-4-8.5t-9-3.5q-5 0-8.5 3.5t-4 9q-.5 5.5 3.5 9t9 3.5q5 0 9-3.5t4-9.5zm25 38q0-5-4-8.5t-9-4q-5-.5-9 3.5t-3.5 9q.5 5 4 8.5t8.5 3.5q5 0 9-3.5t4-8.5zm62-238q-7 0-14 3-12-12-29-14.5T150 11q-15-9-32-6.5T89 19q-17-7-32 2T38 47q-4 17 7 32 32 1 61 13l8-9q11-15 17-19 11-8 20 2 3 6-1 13-2 4-10 11.5T130 102q14 7 27 14 20-17 45.5-27T255 79q6-9 7.5-19.5T259 39q-5-10-14-16t-20-6v-1z"/></svg>