<svg viewBox="0 0 300 316" xmlns="http://www.w3.org/2000/svg"><path d="M298 230l-37 68q-4 6-11 6-3 0-7-2t-5-7q-1-5 1-10l31-56h-51q-11 0-16.5-9t-.5-18l37-67q3-4 8-5.5t9.5 1q4.5 2.5 5.5 7.5t-1 10l-31 56h51q11 0 16.5 8.5t.5 17.5zm-79 24h9l-11 19q-4 8-4 17-30 14-63 14-41 0-75.5-20T20 229.5Q0 195 0 154t20-75.5Q40 44 74.5 24T150 4q41 0 75.5 20T280 78.5q20 34.5 20 75.5 0 14-3 28-7-3-16-3h-9l11-19q7-14 3-29t-18-22.5q-14-7.5-30-2.5v-2q0-5-4-9t-9-4q-5 0-8.5 4t-3.5 9v28l-33 59q-6 10-5 21.5t7 21q6 9.5 15.5 15T219 254zM88 104q-1-5-4.5-9T75 91q-5 0-8.5 4t-3.5 9v25q-1 5 3 8.5t9 3.5q5 0 9-3.5t4-8.5v-25zm50 0q0-5-4-9t-9-4q-5 0-8.5 4t-3.5 9v25q-1 5 3 9t9 3.5q5-.5 9-4t3-8.5v-25h1zm37 37q5 0 9-3.5t3-8.5v-25q0-5-3.5-9t-8.5-4q-5 0-8.5 4t-3.5 9v25q0 5 3.5 9t8.5 4v-1zm123 89l-37 68q-4 6-11 6-3 0-7-2t-5-7q-1-5 1-10l31-56h-51q-11 0-16.5-9t-.5-18l37-67q3-4 8-5.5t9.5 1q4.5 2.5 5.5 7.5t-1 10l-31 56h51q11 0 16.5 8.5t.5 17.5zm-79 24h9l-11 19q-4 8-4 17-30 14-63 14-41 0-75.5-20T20 229.5Q0 195 0 154t20-75.5Q40 44 74.5 24T150 4q41 0 75.5 20T280 78.5q20 34.5 20 75.5 0 14-3 28-7-3-16-3h-9l11-19q7-14 3-29t-18-22.5q-14-7.5-30-2.5v-2q0-5-4-9t-9-4q-5 0-8.5 4t-3.5 9v28l-33 59q-6 10-5 21.5t7 21q6 9.5 15.5 15T219 254zM88 104q-1-5-4.5-9T75 91q-5 0-8.5 4t-3.5 9v25q-1 5 3 8.5t9 3.5q5 0 9-3.5t4-8.5v-25zm50 0q0-5-4-9t-9-4q-5 0-8.5 4t-3.5 9v25q-1 5 3 9t9 3.5q5-.5 9-4t3-8.5v-25h1zm37 37q5 0 9-3.5t3-8.5v-25q0-5-3.5-9t-8.5-4q-5 0-8.5 4t-3.5 9v25q0 5 3.5 9t8.5 4v-1z"/></svg>