<svg viewBox="0 0 300 316" xmlns="http://www.w3.org/2000/svg"><path d="M207 124l-17-45h30q18 0 33.5 8t25.5 22l10 13q7 9 9 19h-86q-1-8-5-17zm-57-70q5 0 9-3.5t4-8.5V16q0-5-4-8.5T150 4q-5 0-9 3.5t-4 8.5v25q1 6 4.5 9.5T150 54zm34 79l-21-54h-26l-21 56-2 6h73q-1-4-3-8zm23-80q5 2 9.5.5T224 47l12-25q3-5 1-9.5t-6.5-7Q226 3 221 4.5t-7 6.5l-13 25q-2 5-.5 9.5T207 53zm-57 187l35-66 2-7h-74q0 4 2 9l35 64zM93 126l17-47H80q-17 0-32.5 7.5T22 108l-11 13q-7 9-9 21h86q1-9 4-16h1zm119 40q-1 9-4 18l-47 88q-4 7-11 7t-11-6l-47-87q-3-10-5-20H2q3 18 16 29l100 97q14 12 32.5 12t31.5-13l100-95q13-12 17-29l-87-1zM76 47q3 5 7.5 6.5t9.5-1q5-2.5 6.5-7T99 36L86 11q-2-5-7-6.5t-9.5 1q-4.5 2.5-6 7T64 22l12 25z"/></svg>