<svg viewBox="0 0 300 316" xmlns="http://www.w3.org/2000/svg"><path d="M291 124q-4-4-9-4t-9 4L137 261q-12 12-28 16t-32 0q-16-4-28-16t-16.5-28.5Q28 216 32.5 200T49 172L181 39q11-10 26.5-10T234 40q11 11 11 26.5T234 93L102 225q-4 4-9 4t-9-3.5q-4-3.5-4-9t4-9.5L202 89q3-3 3-8.5t-3.5-9q-3.5-3.5-9-3.5t-8.5 4L66 190q-11 11-11 26.5T66 243q11 11 26.5 11t26.5-11l132-133q12-12 16-28t-.5-32Q262 34 250 22T222.5 6Q207 2 191 6t-28 16L31 154q-17 17-23 39.5t0 45Q14 261 31 278t39.5 23q22.5 6 45 0t39.5-23l136-137q4-3 4-8.5t-4-8.5z"/></svg>