<svg viewBox="0 0 300 316" xmlns="http://www.w3.org/2000/svg"><path d="M63 254h100q16 0 30.5-8.5t23-23Q225 208 225 192v-76q0-16-8.5-30.5t-23-23Q179 54 162 54H63q-17 0-31.5 8.5t-23 23Q0 100 0 117v74q0 17 8.5 31.5t23 23Q46 254 63 254zm3-71l54-54H87q-5 0-8.5-3.5t-3.5-9q0-5.5 3.5-9T87 104h38q15 0 26 11t11 26v38q0 5-3.5 8.5T150 191q-5 0-9-3.5t-4-8.5v-32l-53 53q-4 4-9 4t-9-3.5q-4-3.5-4-9t4-8.5zm234-75v91q0 7-3.5 13t-9.5 9q-6 3-12 3-8 0-15-5l-10-10V98l10-10q6-4 13-4.5t13.5 2.5q6.5 3 10 9t3.5 13z"/></svg>