<svg viewBox="0 0 300.0016 316" xmlns="http://www.w3.org/2000/svg"><path d="M7 27l16-17q5-5 12.5-6T50 7l48 28q7 4 11 10.5t4 14.5v39l59 59q10-5 22-3t20 10l74 74q10 10 11.5 25t-7.5 26q-11 13-27.5 14T236 293l-75-75q-8-8-10-20t3-23l-59-59H56q-8 0-14.5-3.5T31 102L3 54q-4-7-3-14.5T7 27zm131 33v28l41 42q14-2 28 2.5t25 14.5l27 28q18-13 29-32t12-42q1-14-3-29-1-3-5-6t-9.5-3q-5.5 0-10.5 5l-41 41q-8 8-18.5 8t-17.5-7.5q-7-7.5-7.5-18T195 73l41-41q5-5 5-10t-3-9.5Q235 8 232 8q-14-4-29-4-21 1-39 10t-31 25q5 10 5 21zm-12 123l-29-29-86 86Q0 251 0 266.5T11 293q11 11 26.5 11T64 293l70-70q-11-19-8-40z"/></svg>