<svg viewBox="0 0 300 316" xmlns="http://www.w3.org/2000/svg"><path d="M1 169q-2-5 .5-10t6.5-6.5q4-1.5 7-3.5 10-7 22.5-7t22.5 7q6 5 15 5t15-5q10-7 22.5-7t22.5 7q6 5 15 5t15-5q10-7 22.5-7t22.5 7q6 5 15 5t15-5q10-7 22.5-7t22.5 7q3 2 7 3.5t6.5 6.5q2.5 5 1 9.5t-6.5 7q-5 2.5-10 .5-7-2-13-7-3-2-7.5-2t-7.5 2q-13 10-30 10t-30-10q-3-2-7.5-2t-7.5 2q-13 10-30 10t-30-10q-3-2-7.5-2t-7.5 2q-13 10-30 10t-30-10q-3-2-7.5-2t-7.5 2q-6 5-13 7-5 2-10-.5T1 169zm299 66v6q0 21-14.5 35.5T250 291H50q-21 0-35.5-14.5T0 242v-7q0-13 9-22t22-9h238q13 0 22 9t9 22zm0-156v6q0 13-9 22.5t-22 9.5H31q-13-1-22-10T0 85v-6q0-21 14.5-35.5T50 29h200q21 0 35.5 14.5T300 79z"/></svg>