<svg viewBox="0 0 300 316" xmlns="http://www.w3.org/2000/svg"><path d="M100 154q0 5-3.5 8.5T87 166H63v25q0 6-4 9.5t-9 3.5q-5 0-8.5-3.5T38 192v-26H13q-6 0-9.5-3.5T0 154q0-5 3.5-8.5T13 142h25v-26q0-5 3.5-8.5T50 104q5 0 9 3.5t3 9.5v24h26q5 0 8.5 4t3.5 9zM38 266q0 16 10.5 27T75 304h25v-63H38v26-1zm0-225v25h62V4H75Q59 4 48 15T37 42l1-1zm87 175h63V91h-63v125zm0 88h25q16 0 26.5-11t10.5-27v-25h-62v63zM262 80l-70 13 27 136 70-13-27-136zm38 190l-6-30-70 14 6 30q2 10 10.5 15.5T259 304l21-4q10-2 16-10.5t4-19.5zM257 56l-6-32q-2-10-10.5-15.5T222 4l-21 4q-6 2-11 6t-7 9q-5-8-14-13.5T150 4h-25v62h75l57-10z"/></svg>