<svg viewBox="0 0 300 316" xmlns="http://www.w3.org/2000/svg"><path d="M80 230q-4 11-13.5 17.5T46 254H13q-6 0-9.5-3.5t-3.5-9q0-5.5 3.5-9T13 229h33q3 0 6.5-2t5-6.5Q59 216 64 214t9.5 0q4.5 2 6.5 7t0 9zm83-164q12 0 21.5-9t9.5-22q0-13-9.5-22t-22-9q-12.5 0-22 9T131 35q0 13 9.5 22t22.5 9zM263 4q-21 0-31 50-6 35-7 87h-17q-7 0-11-6l-23-38q-5-8-13.5-13T142 79H78q-11 0-20 5.5T44 100l-18 36q-2 5-.5 9.5t6.5 7q5 2.5 9.5 1T49 147l18-36q3-7 11-7h15l-22 53q-5 13-1 26t16 20l51 33v55q0 6 4 9.5t9 3.5q5 0 8.5-3.5t3.5-9.5v-62q0-7-5-11l-26-16 31-76 14 22q5 9 13.5 13.5T208 166h30q5 0 8.5 4t3.5 9q0 5-3.5 8.5t-9 4q-5.5.5-8.5 4.5t-2 9q3 45 10 70 6 19 14 25 5 4 12 4 15 0 24-29 8-23 11-62 2-27 2-59t-2-59q-3-39-11-62-9-29-24-29z"/></svg>