<svg viewBox="0 0 300 316" xmlns="http://www.w3.org/2000/svg"><path d="M283 295q-7 9-18 9H35q-11 0-17.5-8.5T13 276q2-8 12-21v-1h250v1q10 13 12 21 2 11-4 19zM262 96l8-22 22-8q4-2 6-5t2-7q0-4-2-7t-6-5l-22-8-8-22q-2-4-5-6t-7-2q-4 0-7 2t-5 6l-8 22-22 8q-4 1-6 4t-2 7q0 4 2 7t6 5l22 9 8 22q2 4 5 6t7 2q4 0 7-2t5-6zm21 13q4 17 4 33 0 24-8 46.5T256 229H43q-15-18-23-40.5T12 142q0-37 18.5-69t50-50.5Q112 4 150 4q29 0 56 12l-7 2q-11 4-17.5 13.5t-6.5 21q0 11.5 6 21T198 88l12 5 5 12q4 11 13.5 17.5t21 6.5q11.5 0 20-5.5T283 109zm-89 39q0-5-3-8t-7-4l-17-5-5-18q-1-4-4.5-6.5T150 104q-4 0-7.5 2.5T138 113l-5 18-17 4q-4 1-7 4.5t-3 7.5q0 4 2.5 7.5t6.5 4.5l18 5 5 18q1 4 4.5 6.5t7.5 2.5q4 0 7.5-2.5t4.5-6.5l5-18 17-4q4-1 7-4.5t3-7.5z"/></svg>