<svg viewBox="0 0 300 316" xmlns="http://www.w3.org/2000/svg"><path d="M184 83q4-4 9-4t9 4l23 23V16q0-5 3.5-8.5t9-3.5q5.5 0 9 3.5T250 16v90l23-23q4-4 9-4t8.5 3.5q3.5 3.5 3.5 9t-3 8.5l-32 32q-9 9-21 9l-1 1q-12 0-21-10l-32-32q-4-3-3.5-8.5T184 83zm-34 114q16 0 27-11l29-29q-4-3-8-7l-32-32q-11-11-10.5-26.5T167 65q7-7 26-24H63q-17 1-31 9T9 72l114 114q11 11 27 11zm127-47q-9 9-21 13t-24 3l-38 37q-12 12-28 16.5t-32 0q-16-4.5-28-16.5L1 98l-1 6v137q0 17 8.5 31.5t23 23Q46 304 62 304h176q16 0 30.5-8.5t23-23Q300 258 300 242V127l-23 23z"/></svg>