<svg viewBox="0 0 300 316" xmlns="http://www.w3.org/2000/svg"><path d="M256 191q-18 0-30.5 13T213 235q0 18 12.5 31t30.5 13q18 0 31-13t13-31q0-18-13-31t-31-13zm32-25q5 0 8.5-3.5t3.5-8.5q0-5-3.5-9t-8.5-3h-42l-21-54q6 3 12 3t9.5-3.5Q250 84 250 79V54q0-5-3.5-9t-8.5-4q-9 0-15.5 5T214 59q-6-14-18.5-22T168 29h-5q-6 0-9.5 3.5t-3.5 9q0 5.5 3.5 9T163 54h5q8 0 14.5 4.5T191 70l31 79q-18 7-31 22l-21 24q-7 9-19 9h-3l-27-69q-6-14-18.5-22.5T75 104H37q-15 0-26 11T0 142v49q0 13 7 22.5T26 227q-1 5-1 8 0 18 13 31t31 13q18 0 30.5-13t12.5-31v-6h39q11 0 21-4.5t18-13.5l20-24q9-10 21-15t25-5h31l1-1z"/></svg>