<svg viewBox="0 0 300 316" xmlns="http://www.w3.org/2000/svg"><path d="M0 229q0 20 10 37.5T37.5 294Q55 304 75 304t37.5-10q17.5-10 27.5-27.5t10-37.5q0-20-10-37.5T112.5 164Q95 154 75 154t-37.5 10Q20 174 10 191.5T0 229zm91-37l18 18q3 3 3 8 0 2-1 4.5t-3.5 4.5q-2.5 2-5.5 2H87v37q0 6-3.5 9.5T75 279q-5 0-9-3.5t-4-9.5v-37H48q-3 0-5.5-2t-4-5q-1.5-3-1-6t3.5-6l18-18q7-7 16-7t16 7zm22-139q-1-13 12-24.5T159.5 10q21.5-7 47-7t47 7q21.5 7 34 18.5t12.5 25q0 13.5-12.5 25t-34 18q-21.5 6.5-47 6.5t-47-6.5q-21.5-6.5-34-18T113 53zm93 100q26 0 47.5-6.5t34-18Q300 117 300 103V78q0 14-12.5 25.5t-34 18q-21.5 6.5-47 6.5t-47-6.5q-21.5-6.5-34-18T113 78v25q0 14 12.5 25.5t34 18Q181 153 206 153zm0 126q-22 0-42-5-5 11-13 20 24 10 55 10 26 0 47.5-6.5t34-18Q300 268 300 254v-25q0 14-12.5 25.5t-34 18Q232 279 206 279zm0-100q-27 0-49-8 9 14 14 29 17 4 35 4 26 0 47.5-6.5t34-18Q300 168 300 154v-25q0 14-12.5 25.5t-34 18Q232 179 206 179zm0 50q-16 0-31-3v3q0 11-2 22 16 3 33 3 26 0 47.5-6.5t34-18Q300 218 300 204v-25q0 14-12.5 25.5t-34 18Q232 229 206 229z"/></svg>