<svg viewBox="0 0 300 316" xmlns="http://www.w3.org/2000/svg"><path d="M288 104h-14q-2-11-6-21l12-7q4-3 5.5-8t-1.5-9.5q-3-4.5-8-5.5t-9 1l-11 7-7-6q-3-4-8-8l7-12q2-5 .5-10t-6-7.5q-4.5-2.5-9.5-1t-7 6.5l-7 12q-9-4-19-5V16q0-5-3.5-8.5t-9-3.5q-5.5 0-9 3.5T175 17v13q-11 2-21 6l-7-12q-3-4-8-5.5t-9.5 1.5q-4.5 3-5.5 8t1 9l7 12-15 15-11-10q-4-4-9-4t-8.5 3.5Q85 57 85 62.5t3 8.5l11 11-21 21-11-11q-3-3-8.5-3t-9 3.5Q46 96 46 101t4 9l10 11-15 15-12-7q-4-2-9-1t-8 5.5q-3 4.5-1.5 9.5t5.5 8l12 7q-4 10-6 21H13q-6 0-9.5 3.5t-3.5 9q0 5.5 3.5 9T13 204h13q1 10 5 18l-12 7q-5 2-6.5 7t1.5 10q3 6 11 6 3 0 6-1l12-7q4 6 8 9l6 6-7 11q-2 5-1 10t5 7q4 2 7 2 7 0 11-6l6-11q11 4 22 6v13q0 6 3.5 9.5t9 3.5q5.5 0 9-3.5t3.5-9.5v-13q11-2 22-6l7 11q3 6 10 6 4 0 7.5-2t5-7q1.5-5-1.5-10l-7-11 16-15 13 13q3 4 8.5 4t9-4q3.5-4 3.5-9t-4-9l-13-13 21-21 13 13q4 4 9 4t9-3.5q4-3.5 4-9t-4-8.5l-13-14 15-15 11 7q3 2 7 2 7 0 10-5t2-10.5q-1-5.5-6-7.5l-11-7q4-10 6-22h14q5 0 8.5-3.5t3.5-9q0-5.5-3.5-9T288 104zM94 204q-8 0-13.5-5.5T75 185q0-8 5.5-13.5t13.5-5q8 .5 13.5 5.5t5 13q-.5 8-5.5 13.5T94 204zm75-13q-8 1-13.5-4.5T150 173q0-8 5.5-13.5T169 154q8 0 13.5 5.5t5 13.5q-.5 8-5.5 13.5t-13 5.5v-1zm12-75q-8 1-13-4.5T163 98q0-8 5-13.5t13-5.5q8 0 13.5 5.5T200 98q0 8-5.5 13.5T181 117v-1z"/></svg>