<svg viewBox="0 0 300 316" xmlns="http://www.w3.org/2000/svg"><path d="M250 4q-21 0-35.5 14.5T200 54q0 5 3.5 9t9 3.5q5.5-.5 9-4T225 54q0-10 7.5-17.5T250 29q10 0 17.5 7.5T275 54v138q-17-13-38-13-15 0-29 7.5T186 207q-15-16-36-16t-36 16q-8-13-22-20.5T63 179q-21 0-38 13V54q0-10 7.5-17.5T50 29q10 0 17.5 7.5T75 54q0 5 3.5 9t9 4q5.5 0 9-4t3.5-9q0-21-14.5-35.5T50 4Q29 4 14.5 18.5T0 54v187q0 17 8.5 31.5t23 23q14.5 8.5 31 8.5t31-8.5q14.5-8.5 23-23T125 242q0-11 7.5-18.5t17.5-7q10 .5 17.5 7.5t7.5 17q0 17 8.5 31.5t23 23q14.5 8.5 31 8.5t31-8.5q14.5-8.5 23-23T300 242V54q0-21-14.5-35.5T250 4z"/></svg>