<svg viewBox="0 0 300 316" xmlns="http://www.w3.org/2000/svg"><path d="M200 31V16q0-5-3.5-8.5t-9-3.5q-5.5 0-9 3.5T175 16v13h-25V16q0-5-3.5-8.5t-9-3.5q-5.5 0-9 3.5T125 16v13h-25V16q0-5-3.5-8.5t-9-3.5q-5.5 0-9 3.5T75 16v13H50V16q0-5-3.5-8.5t-9-3.5q-5.5 0-9 3.5T25 16v15Q14 35 7 44.5T0 66v175q0 17 8.5 31.5t23 23Q46 304 63 304h100q16 0 30.5-8.5t23-23Q225 258 225 241V66q0-12-7-21.5T200 31zm-75 185H63q-6 0-9.5-3.5T50 204q0-5 3.5-9t8.5-4h63q5 1 8.5 4.5t4 8.5q.5 5-3.5 9t-9 4v-1zm38-50H63q-6 0-9.5-3.5T50 154q0-5 3.5-9t8.5-4h101q5 0 8.5 4t3.5 9q0 5-3.5 9t-9.5 4l1-1zm0-50H63q-6 1-9.5-3t-3.5-9q0-5 3.5-9t8.5-4h101q5 0 8.5 4t3.5 9q0 5-3.5 9t-9.5 4l1-1zm112 188l-14-14q-11-11-11-27V29q0-10 7.5-17.5T275 4q10 0 17.5 7.5T300 29v234q0 16-11 27l-14 14z"/></svg>