<svg viewBox="0 0 300 316" xmlns="http://www.w3.org/2000/svg"><path d="M163 29q0-10 7-17.5T187.5 4Q198 4 205 11.5t7.5 17.5q.5 10-7 17.5t-18 7.5Q177 54 170 46.5T163 29zm-38 37v50h-12v88h75v-88h-38V41q0-10-7.5-17.5t-18-7Q114 17 107 24t-7 17.5q0 10.5 7.5 17.5t17.5 8v-1zm113 50h-25v88h87v-25q0-17-8.5-31.5t-23-22.5q-14.5-8-30.5-8v-1zm-150 0H63q-17 1-31.5 9t-23 22.5Q0 162 0 179v25h88v-88zM0 241q0 17 8.5 31.5t23 23Q46 304 62 304h176q16 0 30.5-8.5t23-23Q300 258 300 242v-13H0v12zM250 36h2l38-7q5-1 8-5.5t2-9.5q-1-5-5.5-8T285 4l-37 7q-5 1-8 5t-2.5 8.5q.5 4.5 4 8T250 36zM13 79h2l50-9q5-1 8-5.5t2-9.5q-1-5-5.5-8T60 45l-50 9q-4 1-7 5t-3 8.5q0 4.5 4 8t8 3.5h1z"/></svg>