<svg viewBox="0 0 300.0066 316" xmlns="http://www.w3.org/2000/svg"><path d="M296 288q-4 4-9 3.5t-9-4.5q-13-15-20.5-33.5T250 214v-10h-25q0 10-7.5 17.5T200 229H25q-10 0-17.5-7.5T0 204v-13q0-10 3.5-19T14 155.5q7-7.5 16.5-11T50 141h125q17 1 30.5 11t17.5 27h27v-10q0-21 7.5-39.5T278 96q5-6 12.5-4.5t9.5 8.5q2 7-3 12-11 12-16.5 26.5T275 169v45q0 16 5.5 30.5T297 271q3 3 3 8.5t-4 8.5zM186 117l-43-61q-9-13-22.5-20T92 29H81q-13 0-22 9t-9 22v56h125q5 1 11 1zM26 254q-3 17 6.5 27T56 291q14 0 23.5-10t7.5-27H26zm112 0q-2 17 7.5 27t23.5 10q14 0 23.5-10t6.5-27h-61z"/></svg>