<svg viewBox="0 0 300 316" xmlns="http://www.w3.org/2000/svg"><path d="M288 104q-23 0-33-1-17-2-27-9l43-44q4-3 4-8.5t-3.5-9q-3.5-3.5-9-3.5t-8.5 4l-44 43q-6-10-8-26-2-12-2-34 0-5-3.5-8.5T188 4q-11 1-13 14-1 7 1 25l1 13q-40-23-75-9-30 12-56 50-21 32-36 75-17 53-6 88 12 32 46 41t82-7q43-15 75-36 37-26 50-56 14-35-8-75 3 0 12 1 18 2 25 1 13-2 14-12 0-6-3.5-9.5T288 104zm-178-8q4-4 11-4t11.5 4.5Q137 101 137 108t-4 11q-12 8-25 10-3 1-6-2t-2-6q2-13 10-25zM83 244q-12 8-25 10-3 1-6-2t-2-6q2-13 10-25 4-4 11-4t11.5 4.5Q87 226 87 233t-4 11zm25-62q-12 7-25 9-3 1-6-1.5t-2-6.5q2-13 10-24 4-5 11-4.5t11.5 5q4.5 4.5 4.5 11t-4 11.5zm37 37q-11 8-24 10-4 1-6.5-2t-1.5-6q2-13 9-25 5-4 11.5-4t11.5 4.5q5 4.5 5 11.5t-5 11zm25-62q-11 7-24 9-4 1-6.5-1.5T138 158q2-13 9-24 5-5 11.5-5t11.5 5q5 5 5 11.5t-5 11.5zm38 37q-12 8-25 10-3 1-6-2t-2-6q2-13 10-25 4-4 11-4.5t12 4.5q5 5 5 12t-5 11z"/></svg>