<svg viewBox="0 0 300 316" xmlns="http://www.w3.org/2000/svg"><path d="M237 4H63q-17 0-31.5 8.5t-23 23Q0 50 0 67v174q0 17 8.5 31.5t23 23Q46 304 63 304h137v-63q0-15 11-26t26-11h63V66q0-16-8.5-30.5t-23-23Q254 4 237 4zM85 94q3 0 5.5 2t2.5 5.5q0 3.5-2.5 5.5t-5.5 2H67v17h20q3 0 5.5 2.5T95 134q0 3-2.5 5.5T87 142H60q-4 0-6-2.5t-2-5.5V69q0-3 2-5.5t6-2.5h27q3 0 5.5 2.5T95 69q0 3-2.5 5.5T87 77H67v17h18zm33-33h19q11 0 18.5 7.5T163 87q0 11-7.5 19t-18.5 8h-11v20q0 4-2 6t-5.5 2q-3.5 0-5.5-2t-2-6V69q0-4 2-6t5-2zm112 60q-3 10-10.5 16t-17.5 5q-17 0-28-12-3-3-2.5-6t2.5-5q2-2 4.5-2t5.5 1l1 1q5 5 11 7t12-1q4-1 5.5-5t-1.5-6.5q-3-2.5-6-3.5l-16-6q-7-3-11.5-9.5T176 81q0-4 2-8 5-8 13-10 16-5 30 4 3 1 5 3.5t2 5.5q0 3-2 4-4 5-11 1-5-2-9.5-3.5t-8.5-1q-4 .5-6 4.5t1.5 7q3.5 3 7.5 4l11 3q6 2 10.5 6t6.5 9.5q2 5.5 2 10.5zm7 108q-5 0-8.5 3.5T225 241v57q18-6 31-20l18-18q14-13 20-31h-57zM137 76h-11v22h11q4 0 7-3t3-7.5q0-4.5-3-8t-7-3.5z"/></svg>