<svg viewBox="0 0 300 316" xmlns="http://www.w3.org/2000/svg"><path d="M100 54q0-21-14.5-35.5T50 4Q29 4 14.5 18.5T0 54q0 17 10.5 30.5T38 102v104q-17 4-27.5 17.5T0 254q0 21 14.5 35.5T50 304q21 0 35.5-14.5T100 254q0-17-10.5-30.5T63 206V102q16-4 26.5-17.5T100 54zm163 152v-77q0-5-4-8.5t-9-4q-5-.5-8.5 3.5t-3.5 9v77q-17 4-27.5 17.5T200 254q0 21 14.5 35.5T250 304q21 0 35.5-14.5T300 254q0-17-10.5-30.5T262 206h1zm33-123q4 3 4 8.5t-3.5 9q-3.5 3.5-9 3.5t-8.5-4l-29-28-29 28q-3 4-8.5 4t-9-3.5q-3.5-3.5-3.5-9t4-8.5l28-29-28-29q-4-3-4-8.5t3.5-9q3.5-3.5 9-3.5t8.5 4l29 28 29-28q3-4 8.5-4t9 3.5q3.5 3.5 3.5 9t-4 8.5l-28 29 28 29z"/></svg>