<svg viewBox="0 0 300 316" xmlns="http://www.w3.org/2000/svg"><path d="M113 110v25q-1 3-2.5 5t-4.5 2H56q-2 0-4-2t-2-5v-25q0-2 2-4t4-2h50q3 0 5 2t2 4zm106-6h-25q-3 0-5 2t-2 4v25q1 3 2.5 4.5t4.5 2.5h25q2-1 4-2.5t2-4.5v-25q0-2-2-4t-4-2zM94 304q18 0 31-13t13-31q0-18-13-31t-31-13q-18 0-31 13t-13 31q0 18 13 31t31 13zm206-50q0 5-3.5 8.5T288 266H162q2-25-11-44-11-18-31-25.5T79 193q-21 4-36 19.5T25 254q-12-9-18.5-22T0 204V66q0-16 8.5-30.5t23-23Q46 4 62 4h151q16 0 30.5 8.5t23 23Q275 50 275 66v175h13q5 0 8.5 4t3.5 9zM138 110q0-13-9.5-22T106 79H56q-13 0-22 9t-9 22v25q0 13 9 22t22 9h50q13 0 22.5-9t8.5-22l1-25zm112 0q0-13-9-22t-22-9h-25q-13 0-22.5 9t-8.5 22v25q0 13 9 22t22 9h25q13 0 22-9t9-22v-25z"/></svg>