<svg viewBox="0 0 300 316" xmlns="http://www.w3.org/2000/svg"><path d="M45 116q-5 0-9-4t-3-10q3-19 12.5-36T69 36q18-17 41-25t48-7q31 2 56.5 19.5t40 45Q269 96 269 128q-1 18-9.5 32.5t-23.5 23q-15 8.5-32 8.5h-37q-7 7-17.5 7t-17.5-7.5q-7-7.5-7-18t7-17.5q7-7 16.5-7t16 5q6.5 5 9.5 13h30q16 0 28-11.5t12-27.5q0-26-11.5-48T201 44.5Q181 31 156 29q-19-1-37.5 5.5T86 54q-23 22-28 53-1 4-4.5 7t-8.5 3v-1zm105 100q-35 0-62 20t-37 52q-2 6 1.5 11t9.5 5h176q6 0 9.5-5t1.5-11q-10-32-37-51.5T150 217v-1zm37-75h29q3-9 3-18 0-19-9.5-35t-25-25Q169 54 150 54t-34.5 9q-15.5 9-25 25T81 123q0 13 5.5 25.5T101 171q1-20 15-33.5t34-13.5q11 0 20.5 4.5T187 141z"/></svg>