<svg viewBox="0 0 300 316" xmlns="http://www.w3.org/2000/svg"><path d="M290 29q5 0 8 4t2 8q-3 10-11.5 16.5T270 67l-14 71q9 10 6 23-3 8-10 13t-15 5h-36q-9 0-16-5t-9-13q-4-13 5-23l-14-72q-10-2-18-8.5T138 42q-2-5 1-9t8-4h20q-2-4-4-9.5T165 9q4-5 10-5 4 0 7.5 2.5T187 12q2 8 7.5 12.5T207 29h24q7 0 12.5-4.5T251 12q1-3 4-5.5t7-2.5q7 0 10.5 5t2 10.5Q273 25 271 29h19zm-87 175q-15 0-28-7.5T155 177q-5-11-5-22.5t5-21.5l-8-42h-22v7q0 23-16.5 39.5T69 154h-7q-5 0-8.5-3.5t-3.5-9q0-5.5 3.5-9T62 129h7q13 0 22-9t9-22v-7H87q-13 0-25 5.5T41 112L4 145q-4 3-4 8t3.5 9q3.5 4 8.5 4t9-3l4-3v113q0 13 9 22t21.5 9q12.5 0 21-7T87 279q20-2 35-12t22-26h44v38q0 10 7 17.5t18 7.5h12q10 0 17.5-7.5T250 279v-75h-47z"/></svg>