<svg viewBox="0 0 300 316" xmlns="http://www.w3.org/2000/svg"><path d="M150 4q-41 0-75.5 20T20 78.5Q0 113 0 154t20 75.5Q40 264 74.5 284t75.5 20q41 0 75.5-20t54.5-54.5q20-34.5 20-75.5t-20-75.5Q260 44 225.5 24T150 4zM75 166q-5 0-9-3.5t-4-8.5q0-5 4-9l16-16-16-16q-4-4-4-9t4-9q4-4 9-4t9 4l16 16 16-16q4-4 9-4t9 4q4 4 4 9t-4 9l-16 16 16 16q4 4 4 9t-4 9q-4 4-9 3.5t-9-3.5l-16-16-16 16q-4 3-9 3zm105 63h-60q-4 0-6-3t-1-7q4-11 14-19.5t23-8.5q13 0 23 8.5t14 19.5q1 4-1 7t-6 3zm54-84q4 4 4 9t-4 9q-4 4-9 3.5t-9-3.5l-16-16-16 16q-4 4-9 3.5t-9-4q-4-3.5-4-8.5t4-9l16-16-16-16q-4-4-4-9t4-9q4-4 9-4t9 4l16 16 16-16q4-4 9-4t9 4q4 4 4 9t-4 9l-16 16 16 16z"/></svg>