<svg viewBox="0 0 300 316" xmlns="http://www.w3.org/2000/svg"><path d="M119 257l-43 41q-5 6-13 6t-13.5-4.5Q44 295 43 287l-3-20-22-2q-8-1-13-7t-5-13.5Q0 237 6 231l29-28q5 13 15 23t23.5 13.5Q87 243 101 241q7 9 18 16zm175-26l-29-28q-5 13-15 23t-23.5 13.5Q213 243 199 241q-7 9-18 16l43 41q5 6 13 6t13.5-4.5Q256 295 257 287l3-20 22-2q8-1 13-7t5-13.5q0-7.5-6-13.5zm-116-5q-4 7-11.5 11.5T150 242q-9 0-16.5-4.5t-11.5-11q-4-6.5-11-9.5t-14.5-1q-7.5 2-16-.5T66 207q-6-6-8.5-14.5t-.5-16q2-7.5-1-14.5t-9.5-11q-6.5-4-11-11.5T31 123q0-9 4.5-16.5t11-12Q53 90 56 83.5t1-14q-2-7.5.5-16T66 39q6-6 14.5-8.5t16-1q7.5 1.5 14.5-1t11-9.5q4-7 11.5-11T150 4q9 0 16.5 4T178 19q4 7 11 9.5t14.5 1q7.5-1.5 16 1T234 39q6 6 8.5 14.5t.5 16q-2 7.5 1 14t9.5 11q6.5 4.5 11 12T269 123q0 9-4.5 16.5t-11 11.5q-6.5 4-9.5 11t-1 14.5q2 7.5-.5 16T234 207q-6 6-14.5 8.5t-16 .5q-7.5-2-14.5 1t-11 9zM163 85q0-6-3.5-10.5T151 68q-5-2-10-1t-9 5l-16 15q-4 4-4 9t4 9q4 4 9 4t9-4l4-4v78q0 5 3.5 9t8.5 3.5q5-.5 9-4t4-8.5V85z"/></svg>