<svg viewBox="0 0 300 316" xmlns="http://www.w3.org/2000/svg"><path d="M288 279h-13q0-16-11-27t-27-11H63q-16 0-27 11t-11 27H13q-6 0-9.5 3.5t-3.5 9q0 5.5 3.5 9T13 304h275q5 0 8.5-3.5t3.5-9q0-5.5-3.5-9T288 279zm-150-63v-25h-21q-7 0-11-7t1-13l12-17h-2q-7 0-10-6t1-12l30-38q5-6 12.5-6t12.5 6l30 38q4 6 1 12t-10 6h-2l12 17q4 6 .5 13.5T184 192h-21v24h101q22-34 22-75 0-37-18.5-69t-50-50.5Q186 3 148.5 3t-69 18.5Q48 40 29.5 72T11 141q0 41 23 75h104zm93-100q8 1 13.5 6t5.5 13q0 8-5.5 13.5T231 154q-8 0-13.5-5.5T212 135q0-8 5.5-13.5T231 116zm-50-75q8 1 13.5 6t5.5 13q0 8-5.5 13.5T181 79q-8 0-13.5-5.5t-5-13.5q.5-8 5.5-13.5t13-5.5zM81 79q8 0 13.5 5.5T100 98q0 8-5.5 13.5T81 117q-8 0-13-5.5T63 98q0-8 5-13.5T81 79z"/></svg>