<svg viewBox="0 0 300 316" xmlns="http://www.w3.org/2000/svg"><path d="M249 54v62q0 21-15 35.5T199 166H99q-21 0-35.5-14.5T49 116V54q0-21 14.5-35.5T99 4h14v62q0 11 7 18t18 8h25q10 0 17.5-7.5T188 67V4h11q20 0 35 14.5T249 54zM163 4h-25v62h25V4zm137 244q0 23-16.5 39.5T244 304H56q-23 0-39.5-16.5T0 247.5Q0 224 16.5 208T56 192h188q23-1 39.5 15.5T300 248zm-225 0q0-8-5.5-13.5T56 229q-8 0-13 5.5T38 248q0 8 5 13t13 5q8 0 13.5-5t5.5-13zm94 0q0-8-5.5-13.5T150 229q-8 0-13.5 5.5T131 248q0 8 5.5 13t13.5 5q8 0 13.5-5t5.5-13zm94 0q-1-8-6-13.5t-13-5.5q-8 0-13.5 5.5T225 248q0 8 5.5 13t13.5 5q8 0 13.5-5t5.5-13z"/></svg>