<svg viewBox="0 0 300.0038 316" xmlns="http://www.w3.org/2000/svg"><path d="M263.004 4h-38q-5 0-8.5 3.5t-3.5 9q0 5.5 3.5 9t8.5 3.5h32l-40 40q-28-23-62.5-33t-70.5-5q-36 5-66 25-8 5-12.5 12.5t-5.5 16q-1 8.5 2 17t10 15.5l79 79-34 33h-44q-6 0-9.5 3.5t-3.5 9q0 5.5 3.5 9t8.5 3.5h20l-16 16q-5 5-3 12t9 9q7 2 12-3l16-16v19q0 6 3.5 9.5t9 3.5q5.5 0 9-3.5t3.5-8.5v-45l33-34 80 79q11 12 27 12h5q8-1 15.5-5.5t12.5-12.5q20-30 25-66t-5-70.5q-10-34.5-33-62.5l40-40v32q0 5 3.5 8.5t9 3.5q5.5 0 9-3.5t3.5-8.5V41q0-15-11-26t-27-11h1zm-234 95q-5-5-4-12t6-10q35-23 77-23 25 0 48.5 8.5t42.5 24.5l-91 91-79-79zm198 174q-3 5-10 6t-12-4l-79-79 91-91q20 23 28 52.5t3.5 59.5q-4.5 30-21.5 56z"/></svg>