<svg viewBox="0 0 300 316" xmlns="http://www.w3.org/2000/svg"><path d="M275 116H113q-11 1-18.5 8T87 141v38q1 10 8 17.5t18 7.5h162q10 0 17.5-7.5T300 179v-38q0-10-7.5-17.5T275 116zM113 91h37q10 1 17.5-6.5T175 67V29q0-10-7.5-17.5T150 4h-37q-11 0-18.5 7.5T87 29v37q1 11 8 18.5t18 7.5v-1zm162-75h-50q-10 0-17.5 7.5T200 41v25q0 11 7.5 18.5T225 92h50q10-1 17.5-8t7.5-17V41q0-10-7.5-17.5T275 16zm13 213H100q-16 0-27-11t-11-26V54q1-21-14-35.5T13 4Q7 4 3.5 7.5t-3.5 9q0 5.5 3.5 9T13 29q10 0 17 7.5T37 54v137q1 19 11 34.5T75 249v17q0 16 11 27t26.5 11q15.5 0 26.5-11t11-27v-12h63v12q0 16 10.5 27t26.5 11q16 0 27-11t10-27v-12q6 0 9.5-3.5t3.5-9q0-5.5-3.5-9T287 229h1z"/></svg>