<svg viewBox="0 0 300 316" xmlns="http://www.w3.org/2000/svg"><path d="M106 168q7-12 18.5-19t25.5-7q19-1 33 12t16 32q-7 5-14.5 5t-16.5-3q-6-3-11.5-7t-12.5-8q-15-6-28-6-4-1-10 1zM275 66v175q0 17-8.5 31.5t-23 23Q229 304 212 304H88q-17 0-31.5-8.5t-23-23Q25 258 25 241V66q0-16 8.5-30.5t23-23Q71 4 87 4h126q16 0 30.5 8.5t23 23Q275 50 275 67v-1zm-150-6q0 8 5.5 13.5T144 79q8 0 13.5-5.5T163 60q0-8-5.5-13.5t-13.5-5q-8 .5-13.5 5.5T125 60zM81 79q8 0 13.5-5.5T100 60q0-8-5.5-13.5t-13.5-5Q73 42 68 47t-5 13q0 8 5 13.5T81 79zm144 112q0-20-10-37t-27.5-27.5Q170 116 150 116t-37.5 10.5Q95 137 85 154t-10 37.5Q75 212 85 229t27.5 27q17.5 10 37.5 10t37.5-10q17.5-10 27.5-27t10-38zm-41 25q-13 0-28-6-7-4-12.5-8t-11.5-7q-9-3-16.5-3.5T101 197q2 19 16 31.5t33 12.5q14 1 25.5-6.5T194 215q-6 1-10 1z"/></svg>