<svg viewBox="0 0 300 316" xmlns="http://www.w3.org/2000/svg"><path d="M125 4Q91 4 62.5 21T17 66.5Q0 95 0 128.5t15.5 62Q31 219 57 236.5t56 17.5q13-1 26 5t21 17q15 20 39 25.5t47.5-3Q270 290 285 270t15-47q0-30-10-66-11-39-32-71-23-37-54-58-36-24-79-24zM54 95l37-37q4-4 9-4t8.5 3.5q3.5 3.5 3.5 9t-3 8.5l-38 38q-3 3-8.5 3t-9-3.5Q50 109 50 104t4-9zm30 80q-4 4-9 4t-8.5-3.5q-3.5-3.5-3.5-9t3-8.5l88-88q3-3 8.5-3t9 3.5Q175 74 175 79t-4 9l-87 87zm50 25q-4 4-9 4t-8.5-3.5q-3.5-3.5-3.5-9t3-8.5l75-75q4-4 9-4t8.5 3.5q3.5 3.5 3.5 9t-3 8.5l-75 75zm41 29q-4 0-7-2t-4.5-5.5q-1.5-3.5-.5-7.5t3-6l50-50q4-4 9-4t8.5 3.5q3.5 3.5 3.5 9t-3 8.5l-50 50q-4 4-9 4zm71 9l-5 5-8 8q-4 3-8 3t-7-2q-3-2-4.5-5.5t-.5-7.5q1-4 3-6l13-13q3-3 8.5-3t9 3.5q3.5 3.5 3.5 8.5t-4 9z"/></svg>