<svg viewBox="0 0 300.0024 316" xmlns="http://www.w3.org/2000/svg"><path d="M151 254L39 302q-5 2-11 2-11 0-20-8-6-6-7.5-14.5T2 265l48-112 101 101zm52-72l-81-81q-6-6-14-8t-16.5-.5Q83 94 76.5 99T67 112l-7 16 116 116 16-7q8-3 13-9.5t6.5-14.5q1.5-8-.5-16.5t-8-14.5zm-6-83q14-18 15.5-38.5T202 22q-6-10-13-15-4-3-9-2.5T171.5 9q-3.5 4-3 9t5 8.5Q178 30 181 35q7 12 6.5 24.5T178 84q-4 4-3 9t4.5 8q3.5 3 9 3t8.5-5zm98 78q4-3 5-8t-2-10q-5-6-13-11-11-6-23-6-14-1-26 8-4 3-4.5 8.5t2.5 9.5q3 4 8 4.5t9.5-3Q256 166 262 166t11 4q3 2 4 4 4 5 11 5 3 0 7-2zM263 23q0 8 5 13.5t13 5.5q8 0 13.5-5.5T300 23q0-8-5.5-13.5T281 4q-8 0-13 5.5T263 23zm-25 62q0 8 5 13.5t13 5.5q8 0 13.5-5.5T275 85q0-8-5.5-13T256 67q-8 0-13 5t-5 13zM100 35q0 8 5.5 13.5T119 54q8 0 13.5-5.5T138 35q0-8-5.5-13.5T119 16q-8 0-13.5 5.5T100 35zm150 200q0 8 5.5 13.5T269 254q8 0 13-5.5t5.5-13.5q.5-8-5-13t-13.5-5.5q-8-.5-13.5 5T250 235zM13 48q0 8 5 13.5T31 67q8 0 13.5-5.5T50 48q0-8-5.5-13.5T31 29q-8 0-13.5 5.5T13 48zm175 237q0 8 5 13.5t13 5.5q8 0 13.5-5.5T225 285q0-8-5.5-13t-13.5-5.5q-8-.5-13.5 5T187 285h1z"/></svg>