<svg viewBox="0 0 300 316" xmlns="http://www.w3.org/2000/svg"><path d="M250 285q0 8-5.5 13.5T231 304q-8 0-13.5-5.5T212 285q0-8 5.5-13t13.5-5.5q8-.5 13.5 5T250 285zM56 266q-8 0-13 5.5T38 285q0 8 5 13.5t13 5.5q8 0 13.5-5.5T75 285q0-8-5.5-13.5T56 267v-1zm144-18q0-7-4-11.5t-9-6.5q2-6 1.5-12t-5-10q-4.5-4-10.5-5t-11 2q-2-6-7-10t-11.5-4q-6.5 0-11 4t-6.5 10q-6-3-12-2t-10 5q-4 4-5 10t2 12q-6 2-9.5 6.5t-3.5 11q0 6.5 3.5 11.5t9.5 7q-3 5-2 11t5.5 11q4.5 5 12.5 5 4 0 9-2 2 5 6.5 9t11 4q6.5 0 11.5-4t7-9q4 2 8 2 8 0 13-5t5.5-11q.5-6-1.5-11 5-2 9-7t4-11zm25-180q-7-1-10-7-14-30-44.5-45.5T106 6q-30 5-52 27.5T26 87q-3 18 1 36 1 6-4 11-11 10-17 23.5T0 185q0 27 18.5 47T63 254v-6q0-17 11-29 1-17 12.5-28.5T115 178q12-12 29-12t29 12q16 1 28 12.5t13 28.5q11 12 11 29v4q32-6 53.5-32t21.5-59.5q0-33.5-21.5-59.5T225 68z"/></svg>