<svg viewBox="0 0 300 316" xmlns="http://www.w3.org/2000/svg"><path d="M288 229q5 0 8.5-3.5t3.5-9q0-5.5-3.5-9T288 204h-19l-7-25q16 0 27-11t11-26q0-6-3.5-9.5t-9-3.5q-5.5 0-9 3.5t-3.5 9-3.5 9Q268 154 262 154h-8q-6-11-17.5-18t-25-7q-13.5 0-25.5 8.5T169 160l-13 44h-19q-5 0-8.5 3.5t-3.5 9q0 5.5 3.5 9t8.5 3.5h13q0 13 6 26-14 2-22.5 12.5T125 291q0 6 3.5 9.5t9 3.5q5.5 0 9-3.5t3.5-9 3.5-9q3.5-3.5 8.5-3.5h13q17 12 37.5 12t37.5-12h12q6 0 9.5 3.5t3.5 9 3.5 9q3.5 3.5 9 3.5t9-3.5q3.5-3.5 3.5-9.5 0-13-8.5-23.5T269 255q6-13 6-26h13zM150 104h13q5 0 8.5-3.5t3.5-9q0-5.5-3.5-9T163 79h-19l-7-25h1q15 0 26-11t11-27q0-5-3.5-8.5t-9-3.5q-5.5 0-9 3.5t-3.5 9-3.5 9Q143 29 137 29h-8q-6-11-17.5-18t-24-7Q75 4 64 10.5T46 29h-8q-6 0-9.5-3.5t-3.5-9-3.5-9Q18 4 12.5 4t-9 3.5Q0 11 0 17q0 15 11 26t27 11l-7 25H13q-6 0-9.5 3.5t-3.5 9q0 5.5 3.5 9T13 104h12q0 13 6 26-14 2-22.5 12.5T0 167q0 5 3.5 8.5t9 3.5q5.5 0 9-3.5t3.5-9 3.5-9Q32 154 37 154h13q17 12 38 13 16 0 30.5-8.5t23-23Q150 121 150 104z"/></svg>