<svg viewBox="0 0 300 316" xmlns="http://www.w3.org/2000/svg"><path d="M150 4q-41 0-75.5 20T20 78.5Q0 113 0 154q0 9 2 21 2-11 9-23t13-20q3-3 7.5-3t6.5 3q9 10 16 24 8 17 8.5 29.5t-9 21.5q-9.5 9-22 9T10 208q17 43 55 69.5t85 26.5q41 0 75.5-20t54.5-54.5q20-34.5 20-75.5t-20-75.5Q260 44 225.5 24T150 4zM75 116q-4 0-7.5-2t-4.5-7q-1-5 1.5-9.5T72 92q9-3 17.5-8.5T102 72q3-4 8.5-5t9.5 2q4 3 5 8t-2 9q-7 10-19 18t-26 12l-3 1v-1zm13 44q0-8 5-13.5t13-5.5q8 0 13.5 5.5T125 160q0 8-5.5 13.5T106 179q-8 0-13.5-5.5T87 160h1zm102 81h-80q-5 0-8-4t-2-9q6-14 19.5-25.5t30.5-11q17 .5 30.5 11.5t18.5 26q2 4-1 8t-8 4zm4-62q-8 0-13.5-5.5T175 160q0-8 5.5-13.5T194 141q8 0 13.5 5.5t5 13.5q-.5 8-5.5 13.5t-13 5.5zm43-72q-1 4-4.5 7t-7.5 3l-3-1q-14-4-26-12t-19-18q-3-4-2-9t5-8q4-3 9.5-2t8.5 5q4 6 12.5 11.5T228 92q5 1 7.5 5.5t1.5 9.5z"/></svg>