<svg viewBox="0 0 300 316" xmlns="http://www.w3.org/2000/svg"><path d="M275 116h-26q1-7 1-12t-1-13h26q5 0 9-3.5t4-8.5q0-5-4-9t-9-4h-32q-12-27-37-44.5T150 4h-37q-17 0-31.5 8.5t-23 23Q50 50 50 66H25q-5 0-8.5 4T13 79q0 5 3.5 8.5T25 91h25v25H25q-5 0-8.5 4t-3.5 9q0 5 3.5 8.5T25 141h25v150q0 6 3.5 9.5t9 3.5q5.5 0 9-3.5T75 291v-87h75q31 0 56-17.5t37-45.5h32q5 0 9-3.5t4-8.5q0-5-4-9t-9-4zM113 29h37q20 0 37.5 10T215 66H75q0-15 11-26t27-11zM75 91h149q1 7 1 12.5t-1 12.5H75V91zm75 88H75v-38h140q-10 18-27.5 28T150 179z"/></svg>