<svg viewBox="0 0 300 316" xmlns="http://www.w3.org/2000/svg"><path d="M138 70q-53 4-97 33 5-24 22.5-40T105 42q13-2 23 6.5t9 21.5h1zm158 0q-7-10-17-16t-22-7q-1-12-7-22T234 8q-4-3-10.5-3.5t-12 2Q206 9 203 14t-3 11v66q-71 1-113 16t-62 49q45 12 78 45t44 79q35-21 50.5-62.5T213 104h66q6 0 11-3t7.5-8.5q2.5-5.5 2-12T296 70zm-56 96h-6q-3 26-10 51h10q11 0 18.5-7.5T262 192q2-10-4-17.5t-18-8.5zM124 290q-2 1-7 2-34 11-53 12-32 2-49-15-8-7-12-17t-3-21q2-37 14-71 41 9 71 39t39 71zm-61-36q0-5-4-8.5t-9-4q-5-.5-8.5 3.5t-3.5 9q0 5 3.5 8.5T50 266q5 0 8.5-3.5T62 254h1z"/></svg>