<svg viewBox="0 0 300 316" xmlns="http://www.w3.org/2000/svg"><path d="M150 304q41 0 75.5-20t54.5-54.5q20-34.5 20-75.5t-20-75.5Q260 44 225.5 24T150 4q-41 0-75.5 20T20 78.5Q0 113 0 154t20 75.5Q40 264 74.5 284t75.5 20zM88 92q17-17 39.5-22.5t45 0Q195 75 212 92q3 4 3 9t-3.5 8.5Q208 113 203 113t-9-3q-12-12-28-16.5t-32 0Q118 98 106 110t-16.5 28q-4.5 16 0 32t16.5 28q12 12 28 16.5t32 0q16-4.5 28-16.5 4-3 9-3t8.5 3.5q3.5 3.5 3.5 8.5t-3 9q-17 17-39.5 22.5t-45 0Q105 233 88 216t-22.5-39.5q-5.5-22.5 0-45T88 92z"/></svg>