<svg viewBox="0 0 300.008 316" xmlns="http://www.w3.org/2000/svg"><path d="M177 7q-5-1-9.5 2.5T163 19v36q-24-3-45.5 4.5t-38 24q-16.5 16.5-24 38T51 166H15q-6 1-9.5 5.5T3 181q6 37 29 66t56.5 44q33.5 15 71 13t68.5-21.5q31-19.5 50.5-50.5t21.5-68.5q2-37.5-13-71T243 36q-29-23-66-29zm-27 172q-7 0-12.5-3.5T128 166h-28q-5 0-8.5-3.5T88 154q0-5 3.5-9t8.5-4h28q4-5 9-9V91q1-5 4.5-8.5T150 79q5 0 9 3.5t4 8.5v41q7 5 10 12.5t1 16q-2 8.5-9 13.5t-15 5zM125 5q5 0 8.5 4t3.5 9q0 5-3.5 8.5t-9 3.5q-5.5 0-9-3.5T112 18q0-5 3.5-9t9.5-4zM73 27q6 0 9.5 4t3.5 9q0 5-3.5 8.5t-9 3.5q-5.5 0-9-3.5T61 40q0-5 3.5-9t8.5-4zM35 65q5 0 8.5 3.5T47 77q0 5-3.5 9T35 90q-5 0-9-4t-4-9q0-5 4-8.5t9-3.5zm-20 52q5 0 8.5 3.5T27 129q0 5-3.5 9t-8.5 4q-5 0-9-4t-4-9q0-5 4-8.5t9-3.5z"/></svg>