<svg viewBox="0 0 300 316" xmlns="http://www.w3.org/2000/svg"><path d="M300 126v147q0 13-9 22t-22 9q-13 0-22-9t-9-22V154q0-5-4-8.5t-9-3.5H75q-5-1-8.5 3t-3.5 9v119q0 13-9.5 22T31 304q-13 0-22-9t-9-22V126q0-16 7.5-30T28 74l87-59q16-11 35-11t35 11l87 59q13 8 20.5 22t7.5 30zM125 254h-12q-6 0-9.5 3.5T100 266v25q0 6 3.5 9.5t9.5 3.5h12q5 0 9-3.5t4-9.5v-25q-1-5-4.5-8.5T125 254zm0-75h-12q-6 0-9.5 3.5T100 191v25q0 6 3.5 9.5t9.5 3.5h12q5 0 9-3.5t4-8.5v-26q0-5-4-8.5t-9-3.5zm63 75h-13q-5 0-8.5 3.5T162 266v25q0 6 4 9.5t9 3.5h13q5 0 8.5-3.5t3.5-9.5v-25q0-5-3.5-8.5T188 254z"/></svg>