<svg viewBox="0 0 300 316" xmlns="http://www.w3.org/2000/svg"><path d="M275 129h-88q-15 0-26-11t-11-26V4H87q-17 0-31 8.5t-22.5 23Q25 50 25 67v174q0 17 8.5 31.5t22.5 23q14 8.5 31 8.5h125q17 0 31.5-8.5t23-23Q275 258 275 241V129zM109 241q-3 6-9 9.5T87 254q-10 0-17-7t-7-17l-1-26q0-10 7.5-17.5T87 179q7 0 13 4t9 10q2 4 0 7.5t-6.5 3.5q-4.5 0-7-4.5T88 195q-5 0-7.5 2.5T78 204v25q0 4 2.5 6.5T88 238q5 0 7.5-4.5t7-4.5q4.5 0 6.5 4t0 8zm68-6q-1 8-8.5 13.5T152 254q-16 0-27-11-2-3-1.5-6t2.5-5q2-2 5.5-2t5.5 2q6 6 15 6 4 0 6.5-1.5t3.5-5.5q1-4-8-7t-17-7q-6-3-8.5-8.5T127 197q1-6 5-10.5t10-6.5q11-3 21 2 6 2 10 5 2 2 2.5 5t-1.5 6q-2 2-5.5 2.5T163 199q-2-2-5-3-6-2-10.5-1t-5 4q-.5 3 1.5 4l16 7q10 4 14.5 10.5T177 235zm46 11q-1 4-3.5 6t-6 2q-3.5 0-6-2t-3.5-5l-15-58q-1-4 1.5-7t5.5-3q3 0 5 2t3 4l9 35 7-35q0-2 2.5-4t4.5-2q4 0 6.5 3t1.5 7l-12 57zM175 91V10q17 6 31 20l43 43q13 13 20 31h-82q-5 0-8.5-3.5T175 91z"/></svg>