<svg viewBox="0 0 300 316" xmlns="http://www.w3.org/2000/svg"><path d="M39 116H5q8-32 29.5-57.5t51.5-40Q116 4 150 4t64 14.5q30 14.5 51.5 40T295 117h-34q-4-22-21.5-36.5T200 67q-15-1-28 6t-22 19q-9-12-22-19t-28-6q-22 0-39.5 14T39 116zm111 100q9 1 23-5.5t14.5-10q.5-3.5-1.5-7t-5-5.5q-19-6-31-22-12 16-31 22-2 2-4.5 5.5t-2 7q.5 3.5 14 9.5t23.5 6zm-50-50q-16 1-27-10t-11-27q0-16 11-26.5t27-11q16-.5 27 10.5t11 27q0 16-11 27t-27 10zm13-37q0-5-4-8.5t-9-4q-5-.5-8.5 3.5t-3.5 9q0 5 3.5 8.5t8.5 3.5q5 0 8.5-3.5t3.5-8.5h1zm186 12h-38q-4 19-17.5 32.5T211 190q2 5 2 10l-1 5 14 10q4 3 5 8t-2.5 9.5Q225 237 219 237q-4 0-8-2l-14-10q-6 4-14 8l6 17q2 5-.5 9.5T181 266q-2 1-5 1t-6-2.5q-3-2.5-4-6.5l-6-18q-6 2-10 2t-10-1l-6 17q-1 4-4 6.5t-6 2.5q-3 0-5-1-5-2-7.5-6.5t-.5-9.5l5-17q-8-3-14-8l-13 10q-4 2-8 2-6 0-9.5-4.5T69 223q1-5 5-8l14-10v-5q0-5 1-10-19-3-32.5-16.5T39 142H1l-1 12q0 41 20 75.5T74.5 284q34.5 20 75.5 20t75.5-20q34.5-20 54.5-54.5t20-75.5l-1-12v-1zm-99 25q-16 0-26.5-10.5T163 129q0-16 10.5-26.5T200 92q16 0 26.5 10.5T237 129q0 16-10.5 26.5T200 166zm0-25q5 0 8.5-3.5t3.5-8.5q0-5-3.5-8.5T200 117q-5 0-8.5 3.5T188 129q0 5 3.5 8.5t8.5 3.5z"/></svg>