<svg viewBox="0 0 300 316" xmlns="http://www.w3.org/2000/svg"><path d="M300 292q0 5-3.5 8.5T288 304H13q-8 1-12-5.5T1 285q4-7 11-6h13v-30q10 5 22 5 19 0 34-13 15 13 34.5 13t34.5-12q15 12 34.5 12t34.5-13q15 13 34 13 12 0 22-5v30h13q5 0 8.5 3.5t3.5 9.5zM113 29q5 0 8.5-3.5t3.5-9q0-5.5-3.5-9t-9-3.5q-5.5 0-9 3.5t-3.5 9q0 5.5 3.5 9T113 29zm75 0q5 0 8.5-3.5t3.5-9q0-5.5-3.5-9t-9-3.5q-5.5 0-9 3.5t-3.5 9q0 5.5 3.5 9T187 29h1zM47 229q9 0 15.5-4.5t6.5-9q0-4.5 3.5-8T81 204q5 0 9 3.5t4 8q0 4.5 6 9t15.5 4.5q9.5 0 16-4.5t6.5-9q0-4.5 3.5-8t8.5-3.5q5 0 9 3.5t3.5 8q-.5 4.5 6 9t16 4.5q9.5 0 15.5-4.5t6-9q0-4.5 4-8t9-3.5q5 0 8.5 3.5t3.5 8q0 4.5 6.5 9T253 229q9 0 15.5-4.5t6.5-8.5q0-16-8.5-30.5t-23-23Q229 154 213 154H88q-17 0-31.5 8.5t-23 23Q25 200 25 216q0 4 6.5 8.5T47 229zm166-100q12 0 24 4v-4q0-13-7.5-22.5T210 93l-8-42q-1-4-4.5-7t-7.5-3h-5q-4 0-7.5 3t-4.5 7l-8 40h-37l10-37q-1-5-4.5-9t-8.5-4h-25q-5 0-8.5 4T88 54l9 38q-15 1-24.5 11.5T63 129v4q12-4 24-4h126z"/></svg>