<svg viewBox="0 0 300.0059 316" xmlns="http://www.w3.org/2000/svg"><path d="M223 139q-3 0-5-2-5-4-3-9l8-25-20-17q-5-3-2.5-8.5T208 72h25l9-25q2-6 8-6t8 6l9 25h25q6 0 8 5.5t-3 8.5l-20 17 8 24q2 6-2.5 9.5t-9.5.5l-23-15-22 15q-3 2-5 2zm-100-38q-3 0-5-2-5-3-3-9l8-25-20-16q-5-4-2.5-9.5T108 34h25l9-25q2-5 8-5t8 5l9 25h25q6 0 8 5.5t-3 9.5l-20 16 8 25q2 5-2.5 9t-9.5 0l-23-14-22 15q-3 1-5 1zM23 139q-3 0-5-2-5-4-3-9l8-25L3 86q-5-3-2.5-8.5T8 72h25l9-25q2-6 8-6t8 6l9 25h25q6 0 8 5.5T97 86l-20 17 8 24q2 6-2.5 9.5t-9.5.5l-23-15-22 15q-3 2-5 2zm189 40h-52l7-41q1-5 1-7-2-7-7-10.5t-11-3.5q-4-1-8.5 1t-8.5 9l-27 52H88q-16 0-27 11t-11 26v50q0 16 11 27t26 11l1-88q0-5 3.5-8.5t8.5-3.5q5 0 8.5 3.5t3.5 8.5v88h80q18 0 32-11.5t17-28.5l8-40q3-12-1.5-22t-14-16.5Q224 179 212 179z"/></svg>