<svg viewBox="0 0 300 316" xmlns="http://www.w3.org/2000/svg"><path d="M150 100q26 42 25 91 0 22-7 42-7 21-18 21t-18-21q-7-20-7-42-1-49 25-91zm38-57q3-15-6.5-27T156 4h-12q-15 0-24.5 12T112 43q-20 31-33 63-19 46-15 79 4 41 45 58-10-26-9-56 0-26 8-54 7-22 17-41 9-17 16-22 4-3 9-3t9 3q7 5 16 22 10 19 17 42 8 27 8 53 1 30-9 56 41-17 45-58 4-33-15-78-13-33-33-64zm-5 230l11 8q4 2 5.5 6t0 8q-1.5 4-4.5 6.5t-7 3q-4 .5-19-10.5l-6-4q0 8-6.5 12t-13 0q-6.5-4-6.5-12l-6 4q-15 11-19 10.5t-7-3q-3-2.5-4-6.5t0-8q1-4 5-6l12-8q-43-2-73-22-26-17-37.5-45T1 147.5Q6 117 25.5 92T76 55q-16 29-26 57-13 36-12.5 68T59 237q18 20 47 32 25 10 44 10t44-10q29-12 47-32 22-25 22-57t-13-68q-10-28-26-57 31 12 50.5 37t24.5 55.5q5 30.5-6.5 58.5T255 251q-29 20-72 22z"/></svg>