<svg viewBox="0 0 300 316" xmlns="http://www.w3.org/2000/svg"><path d="M275 154v25q0 34-17 62.5T212.5 287Q184 304 150 304h-25q-21 0-35.5-14.5T75 254V129H38q-6 0-9.5-3.5t-3.5-9q0-5.5 3.5-9T38 104h37V54q0-10-7.5-17.5T50 29H38q-6 0-9.5-3.5t-3.5-9q0-5.5 3.5-9T38 4h12q21 0 35.5 14.5T100 54v50h38q5 0 8.5 3.5t3.5 9q0 5.5-3.5 9T138 129h-38v125q0 10 7.5 17.5T125 279h25q27 0 50-13.5t36.5-36.5q13.5-23 13.5-50v-25q0-10-7.5-17.5T225 129h-12q-6 0-9.5-3.5t-3.5-9q0-5.5 3.5-9t9.5-3.5h12q21 0 35.5 14.5T275 154z"/></svg>