<svg viewBox="0 0 300 316" xmlns="http://www.w3.org/2000/svg"><path d="M0 129v112q0 17 8.5 31.5t23 23Q46 304 63 304h175q16 0 30.5-8.5t23-23Q300 258 300 241V129H0zm188 100h-25v25q-1 5-4.5 8.5T150 266q-5 0-8.5-3.5T138 254v-25h-25q-6 0-9.5-3.5t-3.5-9q0-5.5 3.5-9t8.5-3.5h26v-25q0-5 3.5-8.5t8.5-4q5-.5 8.5 3.5t3.5 9v25h26q5 0 8.5 3.5t3.5 9q0 5.5-3.5 9T187 229h1zM0 104V91q0-16 8.5-30.5t23-23Q46 29 63 29h12V16q0-5 3.5-8.5t9-3.5q5.5 0 9 3.5T100 17v12h100V16q0-5 3.5-8.5t9-3.5q5.5 0 9 3.5T225 17v12h13q16 0 30.5 8.5t23 23Q300 75 300 92v12H0z"/></svg>