<svg viewBox="0 0 300 316" xmlns="http://www.w3.org/2000/svg"><path d="M219 154q-8-22-24-39l19-20q25 20 57 21 2 1 4 1 5 0 8.5-3.5t3.5-9q0-5.5-3.5-9T275 92v-1q-20 0-37-9.5t-27-26Q201 39 200 19l1-3q0-5-4-9t-9.5-4q-5.5 0-9 4t-3.5 9v1q0 34 21 61l-21 20q-23-15-50-18V67q0-6-3.5-9.5t-9-3.5q-5.5 0-9 3.5T100 67v13q-28 3-51 18.5t-36 40Q0 163 0 192v43q0 24 16.5 40T56 291h69v-62q0-20 10-37.5t27.5-27.5q17.5-10 37.5-10h19zM63 241H50q-5 0-9-3.5t-4-8.5v-13q1-5 4.5-8.5T50 204h13q5 0 8.5 3.5T75 216v13q0 5-3.5 8.5T63 241zm237-12v12q0 21-14.5 35.5T250 291H150v-62q0-21 14.5-35.5T200 179h50q21 0 35.5 14.5T300 229z"/></svg>