<svg viewBox="0 0 300 316" xmlns="http://www.w3.org/2000/svg"><path d="M150 4q-41 0-75.5 20T20 78.5Q0 113 0 153t18.5 73Q37 259 69 280q-6-15-6-31v-45q0-16 11-27t26-11q12 0 22 7l28-27q10-11 24.5-11t25.5 11q3 3 6 8h4q15 0 25 10t10.5 23.5Q246 201 238 212l2 2q8 8 9.5 20t-4.5 23q-2 4-6 7l-25 25q39-18 62.5-54.5T300 154q0-41-20-75.5T225.5 24Q191 4 150 4zm-25 125q-5 0-8.5-3.5T113 116q0-9-5-16.5t-8-8q-3-.5-7.5 7.5T88 116q0 6-4 9.5t-9 3.5q-5 0-9-3.5t-3-9.5q-1-18 10-33.5t27-16q16-.5 27 15.5t11 35q0 5-4 8.5t-9 3.5zm100 0q-5 0-8.5-3.5T213 116q0-9-5-16.5t-8-8q-3-.5-8 7.5t-5 17q1 6-3 9.5t-9 3.5q-5 0-8.5-3.5T163 116q0-18 10.5-34T200 66q16 0 27 16t11 35q0 5-4 8.5t-9 3.5zm-50 31q-5 0-8 3l-54 55v-14q0-5-4-9t-9-4q-5 0-8.5 4t-3.5 9v45q0 16 7.5 28.5t20 19.5q12.5 7 26.5 7 22 0 38-16l42-42 1-1q2-3 2-7t-3-7q-3-3-7.5-3t-7.5 3l-23 23-12-12 46-45q3-3 3-7.5t-3.5-7.5q-3.5-3-7.5-3t-7 3l-46 45-12-12 37-37q3-3 3-7.5t-3-7.5q-3-3-7-3z"/></svg>