<svg viewBox="0 0 300.0095 316" xmlns="http://www.w3.org/2000/svg"><path d="M200.01 138q0 13-17 32-14 16-33 31-19-15-33-31-17-19-17-32 0-9 5-14.5t13-6.5q8-1 13.5 3.5t6.5 14.5v6q0 6 3.5 9.5t8.5 3.5q5 0 9-3.5t4-8.5v-7q0-10 5.5-14.5t13.5-3.5q8 1 13 6.5t5 14.5zm100 20v83q0 17-8.5 31.5t-23 23q-14.5 8.5-31.5 8.5h-73q-44 0-80-18t-58.5-50q-22.5-32-25.5-71-2-33 9.5-63.5T44.01 48q23-23 53.5-34.5t62.5-9.5q40 4 72 25.5t50 55.5q18 34 18 73zm-75-20q0-14-7-25.5t-19.5-17q-12.5-5.5-25.5-3t-23 11.5q-10-9-23-11.5t-25.5 3q-12.5 5.5-19.5 17t-7 25.5q0 25 31 58 17 17 37 31 3 2 7 2t7-2q20-14 37-31 31-33 31-58z"/></svg>