<svg viewBox="0 0 300 316" xmlns="http://www.w3.org/2000/svg"><path d="M100 229H37q-15 0-26 11T0 266.5Q0 282 11 293t26 11h63v-75zm55-99q-21-10-28-15h-1l-53 53 55 27 52-52-25-13zM50 155l53-53Q80 88 75 84q-1-1 0-2.5t2-1.5l23-1h38V4H94Q54 4 31 20 13 31 5 52 0 65 0 79q0 26 15 46 12 16 35 30zm151 0l2 2-51 50q32 17 35 22h-62v75h53q50 0 71-29 14-19 13-46 1-21-18-41-15-16-43-33zM244 4h-81v75h5q9 0 16.5 4T198 94q8 10 20 16t26 6h25q13 1 22-8.5t9-22.5V60q0-23-16.5-39.5T244 4zm6 81q-8 0-13.5-5.5t-5.5-13q0-7.5 5.5-13T250 48q8 0 13.5 5.5t5.5 13q0 7.5-5.5 13T250 85z"/></svg>