<svg viewBox="0 0 300 316" xmlns="http://www.w3.org/2000/svg"><path d="M288 29H13q-6 0-9.5-3.5t-3.5-9q0-5.5 3.5-9T13 4h275q5 0 8.5 3.5t3.5 9q0 5.5-3.5 9T288 29zM38 285q0-8-5.5-13.5T19 266q-8 0-13.5 5.5T0 285q0 8 5.5 13.5T19 304q8 0 13.5-5.5T38 285zm0-62q0-8-5.5-13.5T19 204q-8 0-13.5 5.5T0 223q0 8 5.5 13t13.5 5q8 0 13.5-5t5.5-13zm262 0q0-8-5.5-13.5T281 204q-8 0-13 5.5t-5 13.5q0 8 5 13t13 5q8 0 13.5-5t5.5-13zM38 85q0-8-5.5-13.5T19 66q-8 0-13.5 5.5T0 85q0 8 5.5 13.5T19 104q8 0 13.5-5.5T38 85zm262 0q0-8-5.5-13.5T281 66q-8 0-13 5.5T263 85q0 8 5 13.5t13 5.5q8 0 13.5-5.5T300 85zm0 200q0-8-5.5-13.5T281 266q-8 0-13 5.5t-5 13.5q0 8 5 13.5t13 5.5q8 0 13.5-5.5T300 285zm-62 0q0-8-5.5-13.5T219 266q-8 0-13.5 5.5T200 285q0 8 5.5 13.5T219 304q8 0 13.5-5.5T238 285zm-69 0q0-8-5.5-13.5T150 266q-8 0-13.5 5.5T131 285q0 8 5.5 13.5T150 304q8 0 13.5-5.5T169 285zm-69 0q0-8-5.5-13.5T81 266q-8 0-13.5 5.5t-5 13.5q.5 8 5.5 13.5t13 5.5q8 0 13.5-5.5T100 285zM38 154q0-8-5.5-13.5T19 135q-8 0-13.5 5.5T0 154q0 8 5.5 13.5T19 173q8 0 13.5-5.5T38 154zm262 0q0-8-5.5-13.5T281 135q-8 0-13 5.5t-5 13.5q0 8 5 13.5t13 5.5q8 0 13.5-5.5T300 154zm-62 0q0-8-5.5-13.5T219 135q-8 0-13.5 5.5T200 154q0 8 5.5 13.5T219 173q8 0 13.5-5.5T238 154zm-69 0q0-8-5.5-13.5T150 135q-8 0-13.5 5.5T131 154q0 8 5.5 13.5T150 173q8 0 13.5-5.5T169 154zm-69 0q0-8-5.5-13.5T81 135q-8 0-13.5 5.5t-5 13.5q.5 8 5.5 13.5t13 5.5q8 0 13.5-5.5T100 154zm50-88q-8 1-13.5 6T131 85q0 8 5.5 13.5T150 104q8 0 13.5-5.5T169 85q0-8-5.5-13.5T150 66zm0 138q-8 0-13.5 5.5T131 223q0 8 5.5 13t13.5 5q8 0 13.5-5t5.5-13q0-8-5.5-13.5T150 204z"/></svg>