<svg viewBox="0 0 300 316" xmlns="http://www.w3.org/2000/svg"><path d="M250 179v25q0 6-3.5 9.5t-9 3.5q-5.5 0-9-3.5T225 204v-25h-12q-6 0-9.5-3.5t-3.5-9q0-5.5 3.5-9t9.5-3.5h83l-35-96q-6-18-22.5-29.5T202 17H98q-20 0-36 11.5T39 58L4 154h84q5 0 8.5 3.5t3.5 9q0 5.5-3.5 9T88 179H75v25q0 6-3.5 9.5t-9 3.5q-5.5 0-9-3.5T50 204v-25H0v25q0 19 10.5 34.5T38 261v18q0 10 7 17.5t17.5 7.5q10.5 0 17.5-7.5t8-17.5v-13h125v13q0 10 7 17.5t17.5 7.5q10.5 0 17.5-7.5t8-17.5v-18q16-7 26.5-22.5T300 204v-25h-50zm-66-31l-23 38q-4 5-11 5-4 0-7.5-2t-4.5-7q-1-5 1-10l20-31h-26q-10 0-16.5-8t-3.5-18l26-43q3-4 8-5t9.5 1.5Q161 71 162 76t-1 10l-19 30h25q6 0 10.5 3t7.5 8q3 5 2.5 10.5T184 148z"/></svg>