<svg viewBox="0 0 301.0005 316" xmlns="http://www.w3.org/2000/svg"><path d="M150.5 79q-5 0-9-3.5t-4-8.5V29q0-5 4-9t9-4q5 0 9 4t4 9v37q0 6-4 9.5t-9 3.5zm63-25V29q0-5-4-9t-9-4q-5 0-9 4t-4 9v25q1 5 4.5 9t8.5 3.5q5-.5 9-4t4-8.5zm-100 0V29q0-5-4-9t-9-4q-5 0-8.5 4t-3.5 9v25q0 5 3.5 8.5t8.5 3.5q5 0 8.5-3.5t3.5-8.5h1zm143 226q23-12 29-35 6-20-3.5-40t-29.5-28q-21-9-45 1-27 14-57 14t-57-14q-24-10-45-1-20 8-29.5 28t-3.5 40q6 23 29 35 27 15 66.5 20.5t79 0q39.5-5.5 66.5-20.5zm-244-115Q-.5 152 0 134t13.5-30.5q13-12.5 31.5-12T75.5 105q16 15 45.5 20.5t59.5 0q30-5.5 45-20.5T258 91.5q17.5 1.5 30 14.5t13 30.5q.5 17.5-15.5 31.5-18-16-42.5-19.5t-46.5 7.5q-22 11-46.5 11t-46-11q-21.5-11-46-7.5T15.5 168l-3-3z"/></svg>