<svg viewBox="0 0 300 316" xmlns="http://www.w3.org/2000/svg"><path d="M288 279h-2l-72-178q-2-5 0-10l33-48q3-7 2.5-14.5t-5-13.5q-4.5-6-12-9T217 5l-38 9q-29 5-51.5 23.5T94 83L14 279h-1q-6 0-9.5 3.5t-3.5 9q0 5.5 3.5 9T13 304h275q5 0 8.5-3.5t3.5-9q0-5.5-3.5-9T287 279h1zM122 157l-16-7q-6-2-6-8.5t6-8.5l16-7 7-16q2-6 8.5-6t8.5 6l7 16 16 6q6 3 6 9t-6 9l-16 7-7 16q-2 6-8.5 6t-8.5-6l-7-16zm95 87l-19 8-7 19q-2 3-4.5 5t-6 2q-3.5 0-6.5-2t-4-5l-7-19-19-7q-4-2-5.5-4.5t-1.5-6q0-3.5 1.5-6.5t5.5-4l19-7 7-19q1-4 4-5.5t6.5-1.5q3.5 0 6 1.5t4.5 5.5l7 18 19 8q3 1 5 3.5t2 6q0 3.5-1.5 6.5t-5.5 4z"/></svg>