<svg viewBox="0 0 300 316" xmlns="http://www.w3.org/2000/svg"><path d="M65 47l9 26H51l9-26q1-1 2.5-1t2.5 1zm60 19q0 17-8.5 31.5t-23 23Q79 129 62.5 129t-31-8.5q-14.5-8.5-23-23T0 66.5q0-16.5 8.5-31t23-23Q46 4 62.5 4t31 8.5q14.5 8.5 23 23T125 66zM94 92L77 42q-2-6-5.5-8t-9-2q-5.5 0-9 2T47 42L31 92q-2 4 .5 6.5T37 101q5 0 6-4l4-10h31l4 10q1 4 6 4 3 0 5.5-2.5T94 92zm139-11q0 3-2 4.5t-5 1.5h-20q-3 0-5-2t-2-5v-7h27q3 0 5.5 2.5T233 81zm-7-29q0-3-2-4.5t-5-1.5h-13q-3 0-5 2t-2 5v7h20q3 0 5.5-2.5T226 52zm49 14q0 17-8.5 31.5t-23 23q-14.5 8.5-31 8.5t-31-8.5q-14.5-8.5-23-23t-8.5-31q0-16.5 8.5-31t23-23Q196 4 212.5 4t31 8.5q14.5 8.5 23 23T275 66zm-28 16q1-6-2-11t-7-8q2-5 2-11 0-8-6.5-14T219 32h-11q-10 0-16.5 6.5T185 54v25q0 9 6.5 15.5T207 101h19q8 0 14-5.5t7-13.5zm-84 128l72 28q18 7 29 23t11 36v7H69l-23-20q-8-8-8.5-20t7.5-20.5q8-8.5 20-9t21 7.5l26 22V154q0-11 9-19t21-6q9 2 14.5 9.5T162 155v55h1z"/></svg>