<svg viewBox="0 0 300 316" xmlns="http://www.w3.org/2000/svg"><path d="M150 227q18 0 33.5-9t24.5-24q-5-1-13-1-16 0-28.5 9.5T150 227zm0-223q-41 0-75.5 20T20 78.5Q0 113 0 154t20 75.5Q40 264 74.5 284t75.5 20q41 0 75.5-20t54.5-54.5q20-34.5 20-75.5t-20-75.5Q260 44 225.5 24T150 4zM63 116q0-15 11-26t26-11q15 0 26.5 11t11.5 26v13q0 5-4 8.5t-9 3.5q-5 0-8.5-3.5T113 129v-8q-4 2-8 2t-7.5-4q-3.5-4-3.5-9 0-2 1-5-7 3-7 11v13q0 5-4 8.5t-9 3.5q-5 0-8.5-3.5T63 129v-13zm174 69q-8 28-32 46.5T150 250q-31 0-55-18.5T63 185q-2-6 1.5-10.5T74 170h152q6 0 9.5 4.5T237 185zm1-56q0 5-4 8.5t-9 3.5q-5 0-8.5-3.5T213 129v-8q-4 2-8 2t-7.5-4q-3.5-4-3.5-9 0-2 1-5-7 3-7 11v13q0 5-4 8.5t-9 3.5q-5 0-8.5-3.5T163 129v-13q0-15 11-26t26-11q15 0 26.5 11t11.5 26v13z"/></svg>