<svg viewBox="0 0 300 316" xmlns="http://www.w3.org/2000/svg"><path d="M296 283l-19-20q10-15 11-34V129q0-17-8.5-31.5t-23-23Q242 66 225 66H80L21 8q-3-4-8.5-4t-9 3.5Q0 11 0 16.5T4 25l275 275q3 4 8.5 4t9-3.5q3.5-3.5 3.5-9t-4-8.5zm-86-87l-77-77q8-3 17-2 17-1 31.5 7.5t23 23Q213 162 213 179q0 9-3 17zm-2-155H92l6-8q5-8 13.5-12.5T129 16h42q9 0 17.5 4.5T202 33l6 8zm-58 175q-16 1-26.5-10T113 179q0-5 1-10l46 46-10 2v-1zm65 54q3 3 3.5 6.5t-1 7q-1.5 3.5-4.5 6t-7 2.5H75q-17-1-31.5-9T21 260.5Q13 246 13 229V129q0-17 8-31 3-6 9-6.5T41 95l54 55q-7 13-7 29.5t8 31q8 14.5 22.5 22.5t31 8q16.5 0 29.5-7l36 36z"/></svg>