<svg viewBox="0 0 300 316" xmlns="http://www.w3.org/2000/svg"><path d="M75 35q0-13 9-22t22-9q13 0 22.5 9t9.5 22q0 13-9.5 22T106 66q-13 0-22-9t-9-22zm175 244h-16l-17-60q-3-12-13-20t-23-8h-56q-5 0-9-3.5t-3-8.5v-25h75q5 0 8.5-3.5t3.5-9q0-5.5-3.5-9T187 129h-74v-25q-1-5-4.5-9t-8.5-4q-5 0-8.5 4t-3.5 9v75q0 16 10.5 26.5T125 216h56q4 0 7.5 3t4.5 7l17 60q3 8 9.5 13t14.5 5h16q5 0 8.5-3.5t4-9q.5-5.5-3.5-9t-9-3.5zm-87-38h-38q-17 1-31.5-7.5t-22.5-23Q63 196 63 179v-75q-1-5-4.5-9T50 91q-5 0-8.5 4t-4.5 9v75q1 24 12.5 44T81 254.5q20 11.5 44 11.5h38q5 0 8.5-3.5t3.5-8.5q0-5-3.5-8.5T162 242l1-1z"/></svg>