<svg viewBox="0 0 300 316" xmlns="http://www.w3.org/2000/svg"><path d="M88 279v-38h25v38H88zm75-38h-25v38h25v-38zm75 38h25q15 0 26-11t11-27h-62v38zm-25-38h-25v38h25v-38zm-150 0H0q0 16 11 27t27 11h25v-38zm237-25H0v-48q0-7 7-11 18-10 18-28.5T7 100q-7-3-7-11V79q0-21 14.5-35.5T50 29h200q21 0 35.5 14.5T300 79v11q0 7-7 11-18 10-18 28.5t18 27.5q7 4 7 12v48-1zM100 91q0-5-3.5-8.5t-9-3.5q-5.5 0-9 3.5T75 91v75q0 6 3.5 9.5t9 3.5q5.5 0 9-3.5t3.5-9.5V91zm63 0q0-5-4-8.5t-9-3.5q-5 0-8.5 3.5T138 91v75q0 6 3.5 9.5t8.5 3.5q5 0 9-3.5t4-9.5V91zm62 0q0-5-3.5-8.5t-9-3.5q-5.5 0-9 3.5T200 91v75q0 6 3.5 9.5t9 3.5q5.5 0 9-3.5t3.5-9.5V91z"/></svg>