<svg viewBox="0 0 300 316" xmlns="http://www.w3.org/2000/svg"><path d="M274 236q-16 32-46 50t-65 18h-13l-18-2q-30-4-54.5-21.5t-38.5-44Q25 210 25 179v-50q0-34 17-62.5T87.5 21Q116 4 150 4h13q36 0 66 18.5T275 73q2 5 .5 10t-6 7q-4.5 2-9.5.5t-8-6.5q-12-25-36.5-40T163 29h-13q-27 0-50 13.5T63.5 79Q50 102 50 129v50q0 34 21 61t54 35V154q0-5 3.5-9t9-4q5.5 0 9 4t3.5 9v7q21-20 50-20h13q5 0 8.5 4t3.5 9q0 5-3.5 8.5T213 166h-13q-21 0-35.5 15T150 216v63h13q28 0 52-14.5t37-39.5q2-5 7-6.5t9.5 1q4.5 2.5 6 7.5t-.5 9z"/></svg>