<svg viewBox="0 0 300 316" xmlns="http://www.w3.org/2000/svg"><path d="M166 247q-8 8-12 18t-4 21v18h18q22 0 38-16l86-85q8-9 8-20.5t-8.5-20Q283 154 271 154t-20 8l-85 85zm-41 32H63q-17 0-31.5-8.5t-23-23Q0 233 0 216V66q0-16 8.5-30.5t23-23Q46 4 63 4h150q16 0 30.5 8.5t23 23Q275 50 275 66v63h-4q-18 0-33 12V66q0-10-7.5-17.5T213 41h-46q-16 0-27 11L98 94q-11 11-11 27v45q0 11 7.5 18t17.5 7h50q11 0 18-7t7-18v-37q1-5-3-9t-9-4q-5 0-8.5 4t-3.5 9v37h-50v-45q0-5 3-9l42-42q3-4 9-4h45v99l-50 51H63V102l33-39q3-3 4-6.5t-.5-7q-1.5-3.5-5-6T88 41H63q-11 0-18 7.5T38 66v150q0 11 7 18t18 7h76q-12 18-13 38h-1z"/></svg>