<svg viewBox="0 0 300 316" xmlns="http://www.w3.org/2000/svg"><path d="M288 82q-11-6-24 0l-8 4q-12 7-19 10-13 5-25 7V91q0-5-3.5-8.5T200 79q-5 0-9 3.5t-4 8.5v13h-37V91q0-5-3.5-8.5t-9-3.5q-5.5 0-9 3.5T125 91v13H88V91q-1-5-4.5-8.5T75 79q-5 0-8.5 3.5T63 91v17q-19 4-41 15-10 4-16 13.5T0 158v6q0 11 5.5 20T21 198q36 18 66 18h113q19 1 58 20l5 3q7 2 13 2.5t12-3.5q6-4 9-11t3-16V109q0-9-3-16t-9-11zM81 179q-8 0-13-5.5T63 160q0-8 5-13.5t13-5.5q8 0 13.5 5.5T100 160q0 8-5.5 13.5T81 179zm63 0q-8 0-13.5-5.5T125 160q0-8 5.5-13.5T144 141q8 0 13.5 5.5T163 160q0 8-5.5 13.5T144 179zm62 0q-8 0-13.5-5.5T187 160q0-8 5.5-13.5T206 141q8 0 13.5 5.5T225 160q0 8-5.5 13.5T206 179z"/></svg>