<svg viewBox="0 0 300 316" xmlns="http://www.w3.org/2000/svg"><path d="M0 235q0-18 13-31t31-12.5q18 .5 31 13T87.5 235q-.5 18-13 31T44 279q-18 0-31-13T0 235zm256 44q18 0 31-13t13-31q0-18-13-31t-31-13q-18 0-31 13t-12.5 31q.5 18 13 31t30.5 13zm-106 0q18 0 31-13t13-31q0-18-13-31t-31-12.5q-18 .5-31 13T106 235q0 18 13 31t31 13zm53-88q18 1 31-12t13-31q0-18-13-31t-31-13q-18 0-31 13t-13 31q0 18 13 31t31 13v-1zm-106 0q18 1 31-12t13-31q0-18-13-31t-31-13q-18 0-31 13t-13 31q0 18 13 31t31 13v-1zm53-87q18 0 31-13t13-31q0-18-13-31t-31-13q-18 0-31 13t-13 31q0 18 13 31t31 13z"/></svg>