<svg viewBox="0 0 300 316" xmlns="http://www.w3.org/2000/svg"><path d="M175 91V10q18 7 31 20l43 43q13 13 20 31h-82q-5 0-8.5-3.5T175 91zm100 57v93q0 17-8.5 31.5t-23 23Q229 304 213 304H88q-17 0-31.5-8.5t-23-23Q25 258 25 241V66q0-16 8.5-30.5t23-23Q71 4 88 4h62v87q0 16 11 27t27 11h87v19zm-112 50q0-18-13-31t-31-13q-18 0-31 13t-13 31v25q0 18 13 30.5t31 12.5q18 0 31-12.5t13-30.5v-25zm62-32q0-3-2-6.5t-5.5-4.5q-3.5-1-7.5-.5t-6 3.5l-25 25q-4 3-4 8.5t3.5 9q3.5 3.5 9 3.5t8.5-4l4-3v57q0 5 3.5 9t9 4q5.5 0 9-4t3.5-9v-88zm-106 13q-8 0-13.5 5.5T100 198v25q0 8 5.5 13t13.5 5q8 0 13.5-5t5.5-13v-25q0-8-5.5-13.5T119 179z"/></svg>