<svg viewBox="0 0 300 316" xmlns="http://www.w3.org/2000/svg"><path d="M63 104q0-27 13-50t36-36.5Q135 4 162.5 4T213 17.5Q236 31 249.5 54t13.5 50q0 27-13.5 50T213 190.5Q190 204 162.5 204T112 190.5Q89 177 76 154t-13-50zm220 67q-4-3-9-2t-8 6q-20 28-51 42.5t-65.5 11Q115 225 87.5 204T47 151q-13-32-8-66t27-61q3-4 2.5-9T64 7q-4-3-9-2.5T47 9Q20 41 14 82.5t10.5 80q16.5 38.5 50 63T150 253v26h-50q-5 0-8.5 3.5t-4 9q-.5 5.5 3.5 9t9 3.5h125q5 0 9-3.5t4-9q0-5.5-4-9t-9-3.5h-50v-26q34-3 63-19.5t48-44.5q3-5 2-10t-5-8z"/></svg>