<svg viewBox="0 0 300 316" xmlns="http://www.w3.org/2000/svg"><path d="M232 31L154 5q-4-2-8 0L68 31q-19 6-31 22.5T25 90v64q0 42 30 80 22 28 57 50 18 12 33 19 5 2 10 0 15-7 33-19 35-22 57-50 30-38 30-80V90q0-20-12-36.5T232 31zm-82 210q-5 0-9-3.5t-3.5-8.5q.5-5 4-8.5t8.5-4q5-.5 9 3.5t4 9q0 5-4 8.5t-9 3.5zm24-80q-10 6-11 18 0 5-4 8.5t-9 3.5q-5 0-9-3.5t-4-8.5q1-12 7.5-23t17.5-17q7-4 10.5-11.5t2-15q-1.5-7.5-7-13T155 93q-12-3-21 4.5t-9 19.5q0 5-3.5 9t-9 4q-5.5 0-9-4t-3.5-9q0-11 4.5-21T118 79q11-9 25-11t27 3.5Q183 77 191 89t9 26q1 14-6 26.5T174 161z"/></svg>