<svg viewBox="0 0 300 316" xmlns="http://www.w3.org/2000/svg"><path d="M163 191h-25q-11 0-18.5-7t-7.5-18v-25q1-10 8-17.5t18-7.5h25q10 1 17.5 8t7.5 17v25q-1 11-8 18.5t-17 7.5v-1zm100 0h-25q-11 0-18-7t-8-18v-25q0-10 7.5-17.5T237 116h26q10 0 17.5 7.5T288 141v25q0 11-7.5 18.5T263 192v-1zm-200 0H38q-11 0-18-7t-7-18v-25q0-10 7-17.5t17-7.5h26q10 1 17.5 8t7.5 17v25q0 11-7.5 18.5T62 192l1-1zm37 100q0-5-3.5-8.5T88 279H63q-16 0-27-11t-11-27v-25q0-5-3.5-8.5t-9-3.5q-5.5 0-9 3.5T0 216v25q0 17 8.5 31.5t23 23Q46 304 63 304h25q5 0 8.5-3.5t3.5-9.5zm200-50v-25q0-5-3.5-8.5t-9-3.5q-5.5 0-9 3.5T275 216v25q0 16-11 27t-27 11h-24q-6 0-9.5 3.5t-3.5 9q0 5.5 3.5 9t9.5 3.5h25q16 0 30.5-8.5t23-23Q300 258 300 241zm0-150V66q0-16-8.5-30.5t-23-23Q254 4 238 4h-25q-6 0-9.5 3.5t-3.5 9q0 5.5 3.5 9T213 29h25q15 0 26 11t11 27v24q0 6 3.5 9.5t9 3.5q5.5 0 9-3.5T300 91zM25 91V66q0-15 11-26t27-11h25q5 0 8.5-3.5t3.5-9q0-5.5-3.5-9T88 4H63q-17 0-31.5 8.5t-23 23Q0 50 0 67v24q0 6 3.5 9.5t9 3.5q5.5 0 9-3.5T25 91z"/></svg>