<svg viewBox="0 0 300 316" xmlns="http://www.w3.org/2000/svg"><path d="M288 142h-25v-26q0-5-4-8.5t-9-3.5q-5 0-8.5 3.5T238 116v26h-25q-6 0-9.5 3.5T200 154q0 5 3.5 8.5t9.5 3.5h25v25q0 6 3.5 9.5t8.5 3.5q5 0 8.5-3.5t3.5-9.5v-25h26q5 0 8.5-3.5t3.5-8.5q0-5-3.5-8.5T288 142zM38 79q0 20 10 37.5T75 144q17 10 37.5 10t37.5-10q17-10 27.5-27.5t10-37.5Q187 59 177 41.5T150 14Q133 4 112.5 4T75 14Q58 24 47.5 41.5T37 79h1zm75 100q-31 0-57 15t-41 41Q0 261 0 292q0 5 3.5 8.5T12 304h200q6 0 9.5-3.5t3.5-8.5q0-31-15-57t-41-41q-26-15-56-15z"/></svg>