<svg viewBox="0 0 300 316" xmlns="http://www.w3.org/2000/svg"><path d="M175 241q0 11-7.5 18t-17.5 7q-10 0-17.5-7t-7.5-17.5q0-10.5 7.5-18T150 216q10 0 17.5 7.5T175 241zm122-136q-39-41-94-56-5-2-9.5.5t-6 7.5q-1.5 5 1.5 9.5t8 6.5q47 13 81 49 4 4 9 4t9-3q4-3 4-8.5t-3-9.5zM97 49Q42 64 3 106q-3 3-3 8.5t3.5 9q3.5 3.5 9 3.5t9.5-4q34-37 81-50 5-2 7.5-6.5t1-9q-1.5-4.5-6-7.5T97 49zm109 95q-4-3-9-1.5t-7.5 6Q187 153 188 158t6 7q12 8 22 18 4 4 9 4t8.5-3.5q3.5-3.5 4-9T234 166q-12-13-28-22zm-112 0q-16 9-28 22-4 3-3.5 8.5t4 9q3.5 3.5 9 3.5t8.5-4q10-10 22-18 5-2 6-7t-1.5-9.5q-2.5-4.5-7.5-6t-9 1.5zm56 48q5 0 9-4t4-9V54q0-5-4-9t-9-4q-5 0-8.5 4t-3.5 9v125q0 5 3.5 8.5t8.5 3.5v1z"/></svg>