<svg viewBox="0 0 300 316" xmlns="http://www.w3.org/2000/svg"><path d="M94 166q-24 0-40.5-16t-16-39.5Q38 87 54 70.5T93.5 54q23.5 0 40 16.5t16.5 40q0 23.5-16.5 39.5T94 166zm81 138H13q-6 0-9.5-3.5T0 292v-7q0-25 12.5-46.5t34-34q21.5-12.5 47-13t47 12.5q21.5 13 34.5 34.5t13 46.5v6q0 6-4 9.5t-9 3.5zm44-188q-24 1-40-15.5t-16-40q0-23.5 16-40T218.5 4q23.5 0 40 16.5t16.5 40q0 23.5-16.5 39.5T219 117v-1zm-18 26q-18 2-33 11.5T143 177q21 10 36.5 26.5T204 242h84q5-1 8.5-4.5t3.5-8.5q0-19-8-36.5t-22-30q-14-12.5-32-18t-37-2.5z"/></svg>