<svg viewBox="0 0 300 316" xmlns="http://www.w3.org/2000/svg"><path d="M213 129H88V66h125v63zm75-63v113q0 17-8.5 31.5t-23 22.5q-14.5 8-31.5 8H75q-17 0-31.5-8T21 210.5Q13 196 13 179V66q0-16 8-30.5t22.5-23Q58 4 75 4h150q17 0 31.5 8.5t23 23Q288 50 288 66zM100 191q0-7-5.5-12.5T81 173q-8 0-13 5.5t-5 13q0 7.5 5 13t13 5.5q8 0 13.5-5.5T100 191zm138 0q-1-5-4.5-8.5T225 179h-87q-6 0-9.5 3.5t-3.5 9q0 5.5 3.5 9t8.5 3.5h88q5 0 8.5-3.5t3.5-8.5l1-1zm0-62V66q0-10-7.5-17.5T213 41H88q-11 0-18 7.5T63 66v63q0 10 7 17.5t18 7.5h125q10 0 17.5-7.5T238 129zm-13 137H75q-20 0-37-8v15q0 13 9 22t22 9h162q13 0 22.5-9t9.5-22v-15q-18 8-38 8z"/></svg>