<svg viewBox="0 0 300 316" xmlns="http://www.w3.org/2000/svg"><path d="M292 103q-21-23-47-41-42-28-82-32V17q0-6-4-9.5T150 4q-5 0-8.5 3.5T138 17v13q-41 4-83 32-26 18-47 41-8 8-8 20.5T9 145q9 9 22 9h238q13 0 22-9t9-21.5q0-12.5-8-20.5zM168 297q-7 7-17.5 7t-18-7.5Q125 289 125 279t8-18l10-11q3-3 7.5-3t7.5 3l10 11q7 8 7 18t-7 18zm75 0q-8 7-18 7t-17.5-7.5Q200 289 200 279t7-18l10-11q3-3 8-3t8 3l10 11q7 8 7 18t-7 18zm-150 0q-8 7-18 7t-17.5-7.5Q50 289 50 279t7-18l10-11q3-3 8-3t8 3l10 11q7 8 7 18t-7 18zm38-75q-8 7-18.5 7T95 221.5q-7-7.5-7-17.5t7-18l10-11q3-3 7.5-3t8.5 3l10 11q7 8 7 18t-7 18zm74 0q-7 7-17.5 7t-17.5-7.5q-7-7.5-7-17.5t7-18l10-11q3-3 7.5-3t7.5 3l10 11q8 8 8 18t-8 18z"/></svg>