<svg viewBox="0 0 300 316" xmlns="http://www.w3.org/2000/svg"><path d="M288 204q-3 0-6-1l-25-13q-5-2-6.5-7t1-9.5q2.5-4.5 7-6.5t9.5 1l25 12q4 2 6 6t1 8.5q-1 4.5-4.5 7T288 204zM268 90l25-12q5-3 6.5-7.5t-1-9.5q-2.5-5-7-6.5t-9.5.5l-25 13q-5 2-6.5 7t1 9.5q2.5 4.5 7 6.5t9.5-1zm32 39q0-5-3.5-9t-8.5-4h-25q-6 0-9.5 4t-3.5 9q0 5 3.5 9t8.5 4h26q5-1 8.5-4.5t3.5-8.5zm-75 112V16q0-5-3.5-8.5t-9-3.5q-5.5 0-9 3.5T200 16q0 26-20 39-17 11-43 11H50q-21 0-35.5 15T0 117v24q0 21 14.5 35.5T50 191h88q25 1 42 12 20 13 20 38 0 6 3.5 9.5t9 3.5q5.5 0 9-3.5t3.5-9.5zm-123-25H50q-9 0-17-2l31 70q4 9 12.5 14.5t17 5.5q8.5 0 15.5-4t11.5-10.5q4.5-6.5 5-14T123 261l-21-45z"/></svg>