<svg viewBox="0 0 300 316" xmlns="http://www.w3.org/2000/svg"><path d="M186 202q-18 3-37 1t-35-8q-14-32-25-43-7-6-16-8.5T55 142q-5-12-5-26 0-23 15-43t41-32q26-12 56.5-12T219 41q26 12 41 32t15 43q0 23-14 43-3 4-2.5 9.5t4.5 8q4 2.5 8 2.5 6 0 10-5 19-27 19-57.5T281.5 60q-18.5-26-50-41t-69-15q-37.5 0-69 15t-50 41Q25 86 25 116q0 20 9 39-9 11-9 24 0 8 3 15-12 11-19 24-9 18-9 35.5t8 29Q16 294 27.5 299t22.5 5q5 0 8.5-3.5t4-9q.5-5.5-3.5-9t-9-3.5q-8 0-15-4-10-6-10-21 0-22 21-43 15 6 43 6l10-1q30 13 63 13 14 0 27-2 5-1 8-5t2.5-9.5q-.5-5.5-4.5-8.5t-10-2h1zm103 66l-19 6-6 19q-2 7-8 9.5t-12 0q-6-2.5-8-9.5l-6-19-19-6q-7-2-9.5-8t0-12q2.5-6 9.5-8l19-6 6-19q2-7 8-9.5t12 0q6 2.5 8 9.5l6 19 19 6q7 2 9.5 8t0 12q-2.5 6-9.5 8zm-73-158q6 2 8 7.5t0 10.5q-2 5-8 7l-17 5-5 17q-2 6-7.5 8.5t-11 0Q170 163 169 157l-5-17-17-5q-6-2-8.5-7t0-10.5q2.5-5.5 8.5-7.5l17-5 5-17q1-6 6.5-8t11 0q5.5 2 7.5 8l5 17 17 5z"/></svg>