<svg viewBox="0 0 300.0013 316" xmlns="http://www.w3.org/2000/svg"><path d="M188 195q0 6-6 16-9 14-31 32-23-18-32-32-6-10-6-16t3.5-11q3.5-5 9-5t9 5q3.5 5 3.5 10.5t3.5 9q3.5 3.5 9 3.5t9-3.5q3.5-3.5 3.5-9t3.5-10.5q3.5-5 9-5t9 5q3.5 5 3.5 11zm100-54v100q-1 17-9 31.5t-22.5 23Q242 304 225 304H75q-17 0-31.5-8.5t-22.5-23Q13 258 12 241V141q1-5 4.5-8.5T25 129h250q5 0 9 3.5t4 9.5v-1zm-75 54q0-17-11-29t-26-12q-15 0-26 11-10-11-25-11t-26 12q-11 12-11 29 0 30 47 68 7 5 15.5 5t15.5-5q47-38 47-68zM240 4H63q-17 0-31.5 8.5t-23 23Q0 50 0 66t11 27q11 11 27 11h225q14 0 25-10t12-25q1-17-7-31.5T271 14q-14-9-31-10z"/></svg>