<svg viewBox="0 0 300 316" xmlns="http://www.w3.org/2000/svg"><path d="M256 254q-4 0-7.5-2.5T244 245l-4-18-18-5q-4-1-7-4.5t-2.5-8q.5-4.5 3-7.5t6.5-4l18-4 4-18q1-4 4.5-6.5t8-2.5q4.5 0 7.5 2.5t4 6.5l5 18 18 4q4 1 6.5 4.5t2.5 8q0 4.5-2.5 7.5t-6.5 5l-18 4-5 18q-1 4-4 6.5t-8 2.5zM46 73l7-16 16-7q6-2 6-8.5T69 33l-16-7-7-16q-2-6-8.5-6T29 10l-7 16-16 6q-6 3-6 9t6 9l16 7 7 16q2 6 8.5 6t8.5-6zm204 219q0-5-3.5-9t-9.5-4H63q-6 0-9.5 4t-3.5 9q0 5 3.5 8.5T62 304h176q5 0 8.5-3.5t3.5-8.5zm-37-125q0-5-4-9t-9-4H100q-5 0-8.5 4t-3.5 9q0 5 3.5 8.5t8.5 3.5h100q5 0 8.5-3.5t3.5-8.5h1zm12-63q0-5-3.5-8.5T212 92H88q-6 0-9.5 3.5T75 104q0 5 3.5 9t8.5 4h126q5 0 8.5-4t3.5-9zm-37-62q0-5-4-9t-9-4h-50q-5 0-8.5 4t-3.5 9q0 5 3.5 8.5T125 54h50q5 0 8.5-3.5T187 42h1z"/></svg>