<svg viewBox="0 0 300 316" xmlns="http://www.w3.org/2000/svg"><path d="M88 129q0 5-4 8.5t-9 3.5H13q-6 0-9.5-3.5T0 129q0-5 3.5-8.5T13 117h62q5 0 9 3.5t4 8.5zm-13 37H13q-6 0-9.5 4T0 179q0 5 3.5 8.5T13 191h62q5 1 8.5-3t4-9q.5-5-3.5-8.5t-9-3.5v-1zm106-50h-62q-5 1-9 4.5t-4 8.5q0 5 4 8.5t9 3.5h62q5 0 9-3.5t4-8.5q0-5-4-9t-9-3v-1zm0 50h-62q-5 0-9 4t-4 9q0 5 4 8.5t9 3.5h62q5 1 9-3t4-9q0-5-4-9t-9-3v-1zm107-50h-63q-5 1-9 4.5t-3.5 8.5q.5 5 4 8.5t8.5 3.5h63q5 0 8.5-3.5t3.5-8.5q0-5-3.5-9t-8.5-3v-1zm0 50h-63q-5 0-9 4t-3.5 9q.5 5 4 8.5t8.5 3.5h63q5 0 8.5-3.5t3.5-8.5q0-5-3.5-8.5T288 167v-1zM75 216H13q-6 0-9.5 4T0 229q0 5 3.5 8.5T13 241h62q5 1 8.5-3t4-9q.5-5-3.5-9t-9-4zm106 0h-62q-5 1-9 4.5t-4 8.5q0 5 4 8.5t9 3.5h62q5 1 9-3t4-9q0-5-4-9t-9-4zm107 0h-63q-5 1-9 4.5t-3.5 8.5q.5 5 4 8.5t8.5 3.5h63q5 1 8.5-3t3.5-9q0-5-3.5-9t-8.5-4zM75 266H13q-6 0-9.5 4T0 279q0 5 3.5 8.5T13 291h62q5 0 9-3.5t4-8.5q0-5-4-9t-9-4zm106 0h-62q-5 0-9 4t-4 9q0 5 4 8.5t9 3.5h62q5 0 9-3.5t4-8.5q0-5-4-9t-9-4zm107 0h-63q-5 0-9 4t-3.5 9q.5 5 4 8.5t8.5 3.5h63q5 0 8.5-3.5t3.5-8.5q0-5-3.5-9t-8.5-4zM194 48q0 18-13 30.5T150 91q-18 0-31-12.5T106 48q0-18 13-31t31-13q18 0 31 13t13 31zM88 48q0 18-13 30.5T44 91q-18 0-31-12.5T0 48q0-18 13-31T44 4q18 0 31 13t13 31zm125 0q0-18 12.5-31T256 4q18 0 31 13t13 31q0 18-13 30.5T256 91q-18 0-30.5-12.5T213 48z"/></svg>