<svg viewBox="0 0 301.0036 316" xmlns="http://www.w3.org/2000/svg"><path d="M213.504 73q0-13 9-22t22-9.5q13-.5 22 9t9 22.5q0 13-9 22t-22 9q-13 0-22.5-9t-8.5-22zm66 187q-7 7-16 7t-16-5q-7-5-10-12-2-4-5-6t-7-2q-4 0-7 2t-5 6q-3 7-10 12t-15.5 5q-8.5 0-15.5-5t-10-12q-2-4-5-6t-7-2q-4 0-7 2t-5 6q-3 7-10 12t-15.5 5q-8.5 0-15.5-5t-10-12q-2-4-5-6t-7-2q-4 0-7 2t-5 6q-3 7-10 12t-16 5q-9 0-15-6t-13.5-4q-7.5 2-9 9.5t4.5 12.5q14 13 33 12 22 0 38-15 16 15 37.5 15t37.5-15q16 15 37.5 15t37.5-15q16 15 38 16 19 0 33-13 6-5 4.5-12.5t-9-9.5q-7.5-2-12.5 3zm-275-44q14 13 33 13 22 0 38-15 16 15 37.5 15t37.5-15q16 15 37.5 15t37.5-15q16 15 38 15 19 0 33-13 6-5 4.5-12t-9-9q-7.5-2-13.5 3.5t-15 5.5q-9 0-16-4.5t-10-12.5q-2-3-5-5.5t-7-2.5q-4 0-7 2.5t-5 5.5q-3 8-10 12.5t-15.5 4.5q-8.5 0-15.5-4.5t-10-12.5q-2-3-5-5.5t-7-2.5q-4 0-7 2.5t-5 5.5q-3 8-10 12.5t-15.5 4.5q-8.5 0-15.5-4.5t-10-12.5q-2-3-5-5.5t-7-2.5q-4 0-7 2.5t-5 5.5q-3 8-10 12.5t-16 4.5q-9 0-15-5.5t-13.5-3.5q-7.5 2-9 9t4.5 12zm34-38q1 0 2-1 4-11 13.5-17.5t21.5-6.5q12 0 21.5 6.5t13.5 17.5q3 2 5 0 4-11 13.5-17.5t21.5-6.5q12 0 21.5 6.5t13.5 17.5q3 2 5 0 4-11 13.5-17.5t21.5-6.5h2l-77-110q-9-13-22.5-20t-28.5-6h-61q-6-1-9.5 2.5t-3.5 8.5q0 5 3.5 9t9.5 4h61q9 0 17 4t14 12l9 12-139 102q10-4 20-2t18 9z"/></svg>