<svg viewBox="0 0 300 316" xmlns="http://www.w3.org/2000/svg"><path d="M238 29H63q-17 0-31.5 8.5t-23 23Q0 75 0 92v124q0 17 8.5 31.5t23 23Q46 279 63 279h175q16 0 30.5-8.5t23-23Q300 233 300 217V91q0-16-8.5-30.5t-23-23Q254 29 237 29h1zM91 163l32 32q4 4 4 9t-3.5 8.5q-3.5 3.5-9 3.5t-8.5-3l-33-32q-11-11-10.5-27T73 127l33-32q3-3 8.5-3t9 3.5Q127 99 127 104t-4 9l-32 32q-3 4-3.5 9t3.5 9zm136 18l-33 32q-3 3-8.5 3t-9-3.5Q173 209 173 204t4-9l32-32q4-4 4-9t-4-9l-32-32q-4-4-4-9t3.5-8.5q3.5-3.5 9-3.5t8.5 3l33 32q11 11 11 27t-11 27z"/></svg>