<svg viewBox="0 0 300 316" xmlns="http://www.w3.org/2000/svg"><path d="M13 279h-1 1zm260-109q1 4 4 6.5t8 2.5l3-1q5-1 7.5-5.5t1.5-9.5q-9-32-29-55-4-4-9-4t-9 3q-4 3-4.5 8.5t3.5 9.5q16 19 24 45zm23 130q-3 4-8.5 4t-8.5-4L4 25q-4-3-4-8.5t3.5-9Q7 4 12.5 4T21 8l26 25q10-4 21-4 18 0 34 9.5T128 64q10 16 10 34 0 9-3 23l18 19q13-11 29.5-11t29.5 13q13 13 13 30 0 14-7 32l39 39q12-11 19-31 1-4 5.5-6.5t9.5-1q5 1.5 7.5 6.5t.5 9q-8 26-25 41l22 22q4 3 4 8.5t-4 8.5zM113 98q0-17-14-30.5T68 54l45 45v-1zm87 74q0-7-6-12.5t-12-5.5q-6 0-11 3l27 27q2-7 2-12zm-35 67q-18 15-40 15-19 0-41-24 17-21 30-47 2-5 .5-10t-6.5-7q-5-2-10-.5t-7 6.5q-10 21-23 38-19-26-31-58T25 98q0-4 1-8.5T24 81q-3-4-8-5t-9.5 2Q2 81 1 86.5T0 98q0 26 14.5 64T51 230q-21 20-41 24-5 1-8 5.5T0 269q1 5 4.5 7.5T13 279q15-1 30-10 11-7 24-20 30 30 59.5 30t54.5-21q4-3 4.5-8t-3-9q-3.5-4-8.5-4.5t-9 2.5z"/></svg>