<svg viewBox="0 0 300 316" xmlns="http://www.w3.org/2000/svg"><path d="M238 29H63q-17 0-31.5 8.5t-23 23Q0 75 0 91v125q0 17 8.5 31.5t23 23Q46 279 63 279h175q16 0 30.5-8.5t23-23Q300 233 300 217V91q0-16-8.5-30.5t-23-23Q254 29 238 29zM63 141h25q5 0 8.5 4t3.5 9q0 5-3.5 9t-9.5 4H63q-6-1-9.5-4.5T50 154q0-5 3.5-9t9.5-4zm100 88H63q-6 0-9.5-3.5t-3.5-9q0-5.5 3.5-9T63 204h100q5 0 8.5 3.5t3.5 9q0 5.5-3.5 9T163 229zm75 0h-25q-6 0-9.5-3.5t-3.5-9q0-5.5 3.5-9t8.5-3.5h26q5 0 8.5 3.5t3.5 9q0 5.5-3.5 9T238 229zm0-63H138q-6 0-9.5-3.5T125 154q0-5 3.5-9t9.5-4h100q5 0 8.5 4t3.5 9q0 5-3.5 9t-8.5 4v-1z"/></svg>