<svg viewBox="0 0 300 316" xmlns="http://www.w3.org/2000/svg"><path d="M296 233l-3-3q-20-21-50-25 7-20 7-38 21 0 35.5-15t14.5-35V59q-1-15-11-25-6-6-21-15T242 5q-4-3-8.5 1t-1.5 9q9 13 13 27-13-4-28-13-5-2-8.5 2t-1.5 9q5 11 14 26t15 21q8 8 18.5 10t20.5-2v22q0 10-7.5 17.5T250 142h-3q-11-37-60-47V79q0-5-3.5-8.5T175 67q-5 0-9 3.5t-4 8.5v13h-25V79q0-5-3.5-8.5T125 67q-5 0-9 3.5t-4 8.5v16q-48 10-59 47h-3q-10 0-17.5-7.5T25 117V95q10 4 20.5 2T64 87q6-6 15-21t14-26q2-5-1.5-9T83 29q-16 9-28 13 4-14 13-27 3-5-1.5-8.5T58 5q-11 5-26 14T11 34Q1 44 0 59v57q0 21 14.5 35.5T50 166q0 18 7 39-29 4-50 25l-3 3q-4 3-4 8.5t3.5 9q3.5 3.5 9 3.5t8.5-4l3-3q19-18 44-18 11 18 25 27-14 11-28 27-3 4-2.5 9.5t4 8.5q3.5 3 9 3t9.5-5q11-13 23-23t17-10h50q5 0 17 10t23 23q4 5 9.5 5t9-3q3.5-3 4-8.5T235 283q-13-15-27-26 14-10 25-28 25 1 43 18l3 3q3 4 8.5 4t9-3.5q3.5-3.5 3.5-9t-4-8.5z"/></svg>