<svg viewBox="0 0 300 316" xmlns="http://www.w3.org/2000/svg"><path d="M63 54q-6 0-8.5-6T56 37L87 7q3-3 7-3t7 3l30 30q5 5 2.5 11t-9.5 6H63zM176 4q-7 0-9.5 6t2.5 11l30 30q3 3 7 3t7-3l31-30q4-5 1.5-11T237 4h-61zm124 137v100q0 17-8.5 31.5t-23 23Q254 304 238 304H63q-17 0-31.5-8.5t-23-23Q0 258 0 241V141q0-16 8.5-30.5t23-23Q46 79 63 79h175q16 0 30.5 8.5t23 23Q300 125 300 142v-1zm-125 19q0 13 9 22t22 9q13 0 22.5-9t9.5-22q0-13-9.5-22t-22.5-9q-13 0-22 9t-9 22zm-112 0q-1 13 8.5 22t22.5 9q13 0 22-9t9-22q0-13-9-22t-22-9q-13 0-22 9t-9 22zm75 88q0-18-13-31t-31-13q-18 0-31 13t-13 31v29q6 2 12 2h76v-31zm112 0q0-18-13-31t-31-13q-18 0-30.5 13T163 248v31h75q6 0 12-2v-29z"/></svg>