<svg viewBox="0 0 300 316" xmlns="http://www.w3.org/2000/svg"><path d="M250 291q0 6-3.5 9.5T238 304H13q-6 0-9.5-3.5T0 291q0-32 17-59t46-41v41q-6 4-9.5 9.5T50 254q0 10 7.5 17.5T75 279q10 0 17.5-7.5T100 254q0-7-3.5-12.5T88 232v-50q12-3 25-3h25q5 0 12 1v51q-11 4-18 13.5t-7 21.5v13q0 5 3.5 8.5t9 3.5q5.5 0 9-3.5t3.5-8.5v-13q0-5 3.5-8.5t9-3.5q5.5 0 9 3.5t3.5 8.5v13q0 5 3.5 8.5t9 3.5q5.5 0 9-3.5t3.5-8.5v-13q0-12-7-21.5T175 231v-45q33 11 54 40t21 66v-1zm33-183q18-19 17-44t-18-42Q265 5 240 4t-44 17q-10 9-15.5 22T175 69v31q0 14 7.5 21.5T200 129h35q13 0 26-5.5t22-15.5zm-133-8V69q0-24 12-46-21-19-49-19-21 0-38 10T47.5 41.5Q37 59 37 79t10.5 37.5Q58 134 75 144t38 10q28 0 49-19-12-14-12-35z"/></svg>