<svg viewBox="0 0 300 316" xmlns="http://www.w3.org/2000/svg"><path d="M50 66q4-21 21-35t40-14h78q23-1 40 13.5T250 67h-44q-18 0-31 13-13-14-31.5-13.5T112 80q-12-13-31-13H50v-1zm250 175q0 6-3.5 9.5T288 254h-4q-6 17-20.5 27T231 291H69q-18 0-32.5-10T16 254h-3q-6 0-9.5-3.5t-3.5-9q0-5.5 3.5-9T13 229h275q5 0 8.5 3.5t3.5 9.5v-1zm-25-37L255 91h-49q-8 0-13.5 5.5T187 110v31q0 6-3.5 9.5T175 154q-5 0-9-3.5t-4-8.5v-32q0-8-5.5-13t-13-5.5q-7.5-.5-13 5T125 110v56q0 6-3.5 9.5t-9 3.5q-5.5 0-9-3.5T100 166v-56q0-8-5.5-13.5T81 92H45L25 204h250z"/></svg>