<svg viewBox="0 0 300 316" xmlns="http://www.w3.org/2000/svg"><path d="M269 66q-13 0-22.5-9t-9-22q.5-13 9.5-22t22-9q13 0 22 9t9 22q0 13-9 22.5T269 67v-1zm-6 107q0 35-18 65.5t-48 48Q167 304 131.5 304t-66-17.5q-30.5-17.5-48-48T0 172.5Q0 137 17.5 107t48-48q30.5-18 66-18T197 59q30 18 48 48t18 66zm-81-6l-38-22q-6-4-14-3h-19q-5-1-8-4l-7-7q-4-3-4-8t4-9l4-4q3-3 6.5-3.5t7.5 1.5l10 5q3 1 7 .5t6.5-3q2.5-2.5 3-6.5t-1.5-8l-10-17q-4-6 0-12-30 0-55 16.5T36 126l10 12q4 4 9 4h28q5 0 8 3l6 6q3 3 3 8v10q0 10 7 17l15 15q3 3 3 8v18q0 6 4 10.5t10 4.5h6q9 0 13-8l28-52q2-4 1-8.5t-5-6.5z"/></svg>