<svg viewBox="0 0 300 316" xmlns="http://www.w3.org/2000/svg"><path d="M150 4q-41 0-75.5 20T20 78.5Q0 113 0 154t20 75.5Q40 264 74.5 284t75.5 20q41 0 75.5-20t54.5-54.5q20-34.5 20-75.5t-20-75.5Q260 44 225.5 24T150 4zm23 225h-42q-14 0-22-2-14-5-20-17-3-5-1-10t6.5-7q4.5-2 9.5-.5t7 5.5q2 4 6 5t14 1h42q6 0 10-4.5t4-10q0-5.5-3-9.5t-7-5l-61-18q-12-4-20.5-14.5T87 119q0-17 12-28.5T127 79h42q14 0 22 2 14 5 20 17 2 5 .5 10t-6 7q-4.5 2-9.5.5t-7-5.5q-2-4-6-5t-14-1h-42q-6 0-10.5 4.5t-4 10q.5 5.5 3.5 9.5t7 5l61 18q12 4 20.5 14.5T213 189q-1 17-12.5 28.5T173 229z"/></svg>