<svg viewBox="0 0 300 316" xmlns="http://www.w3.org/2000/svg"><path d="M0 154q0-5 3.5-9t8.5-4h76q5 0 8.5 4t3.5 9q0 5-3.5 9t-9.5 4H13q-6-1-9.5-4.5T0 154zm261-11q13-16 14-36.5T264 69q-12-17-31-24t-39-1q-20 6-32 22.5T150 104q0 5 3.5 9t9 3.5q5.5-.5 9-4t3.5-8.5q0-16 11-27t26.5-10.5q15.5.5 26.5 11t11 26.5q0 16-11 27t-27 10h-74q-6 0-9.5 4t-3.5 9q0 5 3.5 9t9.5 4h112q10-1 17.5 6.5T275 192q0 13-10.5 19.5t-23 3.5q-12.5-3-17.5-15-1-5-6-7.5t-10-.5q-5 2-7 6.5t0 9.5q7 18 23 26.5t33.5 6q17.5-2.5 30-15.5t12.5-34q0-17-11-30.5T261 143zm-123 61H13q-6 0-9.5 3.5t-3.5 9q0 5.5 3.5 9T12 229h126q10 0 17 7.5t7 17.5q0 14-10.5 20.5t-23 3Q116 274 112 262q-2-5-6.5-7t-9.5-.5q-5 1.5-7.5 6.5t-.5 10q7 18 23 26.5t34 5.5q18-3 30-16t12.5-33.5q.5-20.5-14.5-35T137 204h1zM13 104h75q20 0 35-14.5t14.5-35Q137 34 125 21T95 5q-18-3-34 5.5T38 37q-2 5 .5 10t7.5 6.5q5 1.5 9.5-.5t6.5-7q4-12 16.5-15.5t23 3Q112 40 113 54q0 10-7.5 17.5T87 79H13q-6 0-9.5 3.5t-3.5 9q0 5.5 3.5 9T12 104h1z"/></svg>