<svg viewBox="0 0 300 316" xmlns="http://www.w3.org/2000/svg"><path d="M150 4q-41 0-75.5 20T20 78.5Q0 113 0 154t20 75.5Q40 264 74.5 284t75.5 20q41 0 75.5-20t54.5-54.5q20-34.5 20-75.5t-20-75.5Q260 44 225.5 24T150 4zm25 112h31q8 1 13.5 6t5.5 13q0 8-5.5 13.5T207 154q-7 0-11.5-3.5T189 141h-14q-5 0-8.5-3.5T163 129q0-5 3.5-8.5t8.5-3.5v-1zM75 141q-5 0-8.5-3.5T63 129q0-5 3.5-8.5T75 117h31q8 0 13.5 5t5.5 13q0 8-5.5 13.5T107 154q-7 0-11.5-3.5T89 141H75zm161 57q-5 8-16 16-19 15-45 15h-62q-6 0-9.5-3.5t-3.5-9q0-5.5 3.5-9t8.5-3.5h63q17 0 30-9 6-5 9-10t8-6q5-1 9.5 2t5.5 8q1 5-1 9z"/></svg>