<svg viewBox="0 0 300 316" xmlns="http://www.w3.org/2000/svg"><path d="M236 204q2-4 1-9t-6-8l-22-13q3-10 3-20t-3-20l32-19q6 4 13 6l30 8 4 1q4 0 7-2.5t4.5-7.5q1.5-5-1-9t-7.5-6l-31-8q-3-1-5-4t-1-7l8-30q1-5-1.5-9.5t-7.5-6q-5-1.5-9.5 1T238 49l-8 31q-2 7-1 14l-33 18q-13-15-34-19V55q7-2 12-7l22-23q4-3 4-8.5t-4-9Q192 4 187 4t-9 4l-22 22q-3 3-6.5 3t-6.5-3L121 8q-4-4-9-4t-8.5 3.5q-3.5 3.5-3.5 9t3 8.5l23 23q5 5 11 7v38q-20 4-34 19L71 94q1-7-1-14l-8-31q-1-5-5.5-7.5t-9.5-1q-5 1.5-8 6T38 56l8 30q1 4-1 7t-6 4l-30 8q-5 2-7.5 6T0 120q1 5 4.5 7.5T12 130l3-1 31-8q7-2 12-6l33 19q-4 10-4 20t4 20l-23 13q-4 3-5.5 8t1.5 10q3 5 11 5 3 0 6-1l22-13q14 15 34 19v38q-6 2-11 7l-23 23q-3 3-3 8.5t3.5 9q3.5 3.5 8.5 3.5t9-4l22-22q3-3 6.5-3t6.5 3l22 22q4 4 9 4t9-3.5q4-3.5 4-9t-4-8.5l-22-23q-5-5-12-7v-38q21-4 34-19l23 13q3 1 6 1 7 0 11-6zm41 19q-5-6-14.5-6t-14.5 6l-13 18q-10 11-10 26t11 26q11 11 26.5 11t26.5-11q11-11 11-26t-10-26l-13-18zm-225 0q-5-6-14.5-6T23 223l-13 18Q0 252 0 267t11 26q11 11 26.5 11T64 293q11-11 11-26t-10-26l-13-18z"/></svg>