<svg viewBox="0 0 300 316" xmlns="http://www.w3.org/2000/svg"><path d="M100 154q-20 0-37.5-10T35 116.5Q25 99 25 79t10-37.5Q45 24 62.5 14T100 4q20 0 37.5 10T165 41.5Q175 59 175 79t-10 37.5Q155 134 137.5 144T100 154zm84 150q-4 0-7-2.5t-4.5-6q-1.5-3.5-.5-7.5l12-38-30-24q-3-3-4-6.5t.5-7.5q1.5-4 5-6t7.5-2h37l13-37q2-4 5-6.5t7-2.5q4 0 7 2.5t5 6.5l13 37h38q3 0 6.5 2t5 6q1.5 4 .5 7.5t-4 6.5l-30 24 12 37q1 4 0 8t-4 6q-3 2-7 2.5t-7-1.5l-35-23-34 23q-3 2-7 2zm-60 0H13q-6 0-9.5-3.5T0 291q0-30 15-56t41-41q26-15 57-15h11q7 0 11 6t0 12q-10 21-10 44.5t10 44.5q3 6-.5 12t-10.5 6z"/></svg>