<svg viewBox="0 0 300 316" xmlns="http://www.w3.org/2000/svg"><path d="M175 91V10q18 7 31 20l43 43q13 13 20 31h-82q-5 0-8.5-3.5T175 91zm19 88h-88q-2 0-4 2t-2 4v38q0 2 2 4t4 2h88q2 0 4-2t2-4v-38q0-2-2-4t-4-2zm81-44v106q0 17-8.5 31.5t-23 23Q229 304 213 304H88q-17 0-31.5-8.5t-23-23Q25 258 25 241V66q0-16 8.5-30.5t23-23Q71 4 88 4h62v87q0 16 11 27t27 11h87v6zM75 116q0 6 3.5 9.5T88 129h25q5 0 8.5-3.5t3.5-9q0-5.5-3.5-9T113 104H88q-6 0-9.5 3.5T75 116zm150 69q0-13-9-22t-22-9h-88q-13 0-22 9t-9 22v38q0 13 9 22t22 9h88q13 0 22-9t9-22v-38z"/></svg>