<svg viewBox="0 0 300 316" xmlns="http://www.w3.org/2000/svg"><path d="M175 70q-2 0-3-1-22-5-44 0-5 2-9.5-1t-5.5-8q-1-5 1.5-9.5T122 45q28-7 56 0 5 1 7.5 5.5t1.5 9q-1 4.5-4.5 7.5t-7.5 3zM86 232q4-4 4-9t-4-9q-7-8-12.5-17.5T65 176q-1-5-5.5-7.5T50 167q-5 1-7.5 5.5T41 182q4 14 10.5 26.5T68 231q4 4 9 4t9-3zm145 0q10-11 17-23.5t11-25.5q1-5-1.5-9.5t-7.5-6q-5-1.5-9.5 1T235 176q-3 11-8.5 20.5T213 214q-3 4-3 9.5t3.5 9q3.5 3.5 9 3.5t8.5-4zm65-69q-4 3-8.5 3.5T279 163q-6-5-9-7-20-11-42.5-4.5t-34 27q-11.5 20.5-5 42.5t27.5 34l12 4q5 2 7.5 6t1.5 8.5q-1 4.5-4.5 7.5t-8.5 3q-22-1-40-11-21-12-34-33-14 22-34 33-18 10-40 11h-1q-5 0-8.5-3t-4-7.5q-.5-4.5 2-8.5t6.5-6q10-3 13-4 21-12 27.5-34t-5-42.5q-11.5-20.5-34-27T30 156q-3 2-8 7-4 3-9 3t-8.5-3q-3.5-3-4-7.5T2 147q12-18 30-27.5T72 108q-9-21-9-41.5T72 28q2-5 6-6.5t8.5 0q4.5 1.5 7 5.5t1.5 9.5Q94 42 94 48q0 23 16.5 39.5T150 104q23 0 39.5-16.5T206 48q0-6-1-11.5t1.5-9.5q2.5-4 7-5.5t8.5 0q4 1.5 6 6.5 10 18 10 38.5t-9 41.5q21 2 40 12 17 9 29 27 2 4 1.5 8.5T296 163zm-121-9q0-10-7.5-17.5T150 129q-10 0-17.5 7.5T125 154q0 10 7.5 17.5T150 179q10 0 17.5-7.5T175 154z"/></svg>