<svg viewBox="0 0 300 316" xmlns="http://www.w3.org/2000/svg"><path d="M163 41V16q0-5 3.5-8.5T175 4q5 0 9 3.5t4 8.5v25q0 6-4 9.5t-9 3.5q-5 0-8.5-3.5T163 42v-1zm-38 13q5 0 9-3.5t4-8.5V16q0-5-4-8.5T125 4q-5 0-8.5 3.5T113 16v25q0 6 3.5 9.5T125 54zm-50 0q5 0 9-3.5t4-8.5V16q0-5-4-8.5T75 4q-5 0-8.5 3.5T63 16v25q0 6 3.5 9.5T75 54zm225 114q-1 21-15.5 35T250 217h-31q-12 17-31 27t-41 10h-44q-22 0-41.5-10T30 215q-12-19-21-46-12-36-8-59 6-29 36-31h176q9 0 17 4.5T243 95q5 7 6.5 16t-.5 18q23 0 37 10.5t14 28.5zm-25 0q1-8-8.5-11.5T244 154q-4 19-12 37h18q10 1 17-6t8-17zm-37 111H13q-6 0-9.5 3.5t-3.5 9q0 5.5 3.5 9T12 304h226q5 0 8.5-3.5t3.5-9q0-5.5-3.5-9T238 279z"/></svg>