<svg viewBox="0 0 300.0013 316" xmlns="http://www.w3.org/2000/svg"><path d="M298 48q-3 5-8 6t-9-2l-10-6q-25-17-55-17h-28v50h-75V48q0-18 12.5-31T156 4h60q38 0 69 21l9 6q5 3 6 8t-2 9zm-48 149v45q0 16-8.5 30.5t-23 23Q204 304 187 304h-74q-17 0-31.5-8.5t-23-23Q50 258 50 242v-45q0-31 17.5-56.5T113 104h74q28 11 45.5 36.5T250 197zm-50 7q0-5-3.5-8.5T188 192h-25v-25q0-6-4-9.5t-9-3.5q-5 0-8.5 3.5T137 167v25h-24q-6 0-9.5 3.5T100 204q0 5 3.5 9t9.5 4h25v25q0 5 3.5 8.5t8.5 3.5q5 0 9-3.5t4-8.5v-25h25q5 0 8.5-4t3.5-9z"/></svg>