<svg viewBox="0 0 300.0021 316" xmlns="http://www.w3.org/2000/svg"><path d="M150 4H75Q59 4 48 15T37 42v37q1 16 11.5 26.5T75 116h75q16 0 26.5-10.5T187 79V41q1-15-10-26T150 4zm-25 50h-25q-5 0-8.5-3.5t-3.5-9q0-5.5 3.5-9T100 29h25q5 0 8.5 3.5t4 9q.5 5.5-3.5 9t-9 3.5zm167 104l-97 105q-17 20-41 30.5T103 304H50q-21 0-35.5-14.5T0 254v-63q0-20 14.5-35T50 141h97q13 0 21.5 10.5T174 175q-1 9-8 14.5t-16 7.5l-52 7q-5 1-8 5t-2 9q0 5 4.5 8t9.5 3l53-8q19-2 32-17t13-35l-1-8 45-47q8-9 21.5-10t23.5 8q10 9 11 22.5t-8 23.5z"/></svg>