<svg viewBox="0 0 300 316" xmlns="http://www.w3.org/2000/svg"><path d="M200 209q2 5-2 9l-7 7q-4 4-9 4h-64q-5 0-9-4l-7-7q-4-4-2-9t7-5h85q6 0 8 5zm100 82q0 6-3.5 9.5T288 304H13q-6 0-9.5-3.5t-3.5-9q0-5.5 3.5-9T13 279h12V29H13q-6 0-9.5-3.5t-3.5-9q0-5.5 3.5-9T13 4h275q5 0 8.5 3.5t3.5 9q0 5.5-3.5 9T288 29h-13v250h13q5 0 8.5 3.5t3.5 8.5zm-77-91q-4-10-12-15.5t-18-5.5h-30v-25h25q5 0 8.5-3.5t3.5-9q0-5.5-3.5-9T188 129h-25v-25h50q5 0 8.5-3.5t3.5-9q0-5.5-3.5-9T213 79h-50V66q0-5-4-8.5t-9-3.5q-5 0-8.5 3.5T138 66v13H88q-6 0-9.5 3.5t-3.5 9q0 5.5 3.5 9T88 104h50v25h-25q-6 0-9.5 3.5t-3.5 9q0 5.5 3.5 9t9.5 3.5h25v25h-31q-10 0-18.5 5.5t-12 15q-3.5 9.5-1.5 19t9 17.5l7 7q11 11 27 11h64q16 0 27-11l7-7q7-7 9-17t-2-19z"/></svg>