<svg viewBox="0 0 300 316" xmlns="http://www.w3.org/2000/svg"><path d="M238 66H63q-17 1-31.5 9t-23 22.5Q0 112 0 129v112q0 17 8.5 31.5t23 23Q46 304 63 304h175q16 0 30.5-8.5t23-23Q300 258 300 241V129q0-17-8.5-31.5t-23-22.5Q254 67 238 67v-1zm-19 155q-9 21-28 33.5T150 267q-28-1-50-19v6q0 5-3.5 8.5T88 266q-5 0-9-3.5t-4-8.5v-25q0-10 7.5-17.5T100 204h25q5 0 8.5 3.5t4 9q.5 5.5-3.5 9t-9 3.5h-8q14 12 33 13 15 0 27.5-8.5T196 211q2-4 7-6t9.5 0q4.5 2 6.5 7t0 10v-1zm6-67q0 10-7.5 17.5T200 179h-25q-5 0-8.5-3.5t-3.5-9q0-5.5 3.5-9t8.5-3.5h8q-14-13-33-12-15-1-27.5 7.5T104 171q-1 4-4.5 6t-6.5 2q-3 0-5-1-5-2-7-7t0-10q9-20 28-32.5t41-11.5q14-1 27 4t23 15v-7q0-5 3.5-9t9-4q5.5 0 9 4t3.5 9v25zM78 41l17-22q5-7 13-11t17-4h50q9 0 17 4t13 11l17 22H78z"/></svg>