<svg viewBox="0 0 300 316" xmlns="http://www.w3.org/2000/svg"><path d="M25 179q-10 0-17.5-7.5T0 154v-13q0-10 7.5-17t17.5-7V79h113v100H25zM229 14Q150-7 71 14q-15 5-26 15.5T29 54h242q-5-14-16-24.5T229 14zm-4 202q0 6-3.5 9.5t-9 3.5q-5.5 0-9-3.5T200 216v-12H100v12q0 6-3.5 9.5t-9 3.5q-5.5 0-9-3.5T75 216v-12H25v12q0 15 6.5 28T50 266v7q0 12 8 21t20 10q12 1 21.5-6t12.5-19h76q2 12 12 19t22 6q12-1 20-10t8-21v-7q12-9 18.5-22t6.5-27v-13h-50v12zm50-100V79H163v100h112q10 0 17.5-7.5T300 154v-13q0-10-7.5-17t-17.5-7v-1z"/></svg>