<svg viewBox="0 0 300 316" xmlns="http://www.w3.org/2000/svg"><path d="M225 4q-20 0-37.5 10T160 41.5Q150 59 150 79t10 37.5q10 17.5 27.5 27.5t37.5 10q20 0 37.5-10t27.5-27.5Q300 99 300 79t-10-37.5Q280 24 262.5 14T225 4zm34 91q4 4 4 9t-4 9q-4 4-9 3.5t-9-3.5l-16-16-16 16q-4 3-9 3t-9-3.5q-4-3.5-4-8.5t4-9l16-16-16-16q-4-4-4-9t4-9q4-4 9-4t9 4l16 16 16-16q4-4 9-4t9 4q4 4 4 9t-4 9l-16 16 16 16zm-73 76l-11 13v108q0 7-7 11-3 1-6.5 1t-6.5-2l-50-38q-5-4-5-10v-70L12 85Q0 71 0 52t14.5-33.5Q29 4 49 4h110q-16 14-25 33.5T125 79q0 31 17 56t44 36z"/></svg>