<svg viewBox="0 0 300 316" xmlns="http://www.w3.org/2000/svg"><path d="M285 89q-5 5-11 10-10 7-22.5 7T229 98q-46-37-46-70 0-10 4-19-19-5-37-5-41 0-75.5 20T20 78.5Q0 113 0 154q0 20 6 41 8-3 16-3 12-1 22 5 10-6 22-5 4-1 9 1 0-6 3.5-10t8.5-4q5 0 9 3 6 6 16 11 20 11 38 11t38-11q10-6 16-11 4-3 9-3t8.5 4q3.5 4 3.5 9t-4 9q-9 7-22 14-25 14-49 14-21 0-43-10 6 10 6 22 0 23-25 50 30 13 62 13 41 0 75.5-20t54.5-54.5q20-34.5 20-75.5 0-34-15-65zm-160 65q-5 0-9-3.5t-4-9.5q1-9-4-16.5t-8-8q-3-.5-7.5 7.5T88 141q0 6-4 9.5t-9 3.5q-5 0-8.5-3.5T63 141q-1-18 10-34t27-16q16 0 27 16t11 35q0 5-4 8.5t-9 3.5zm100 0q-5 0-9-3.5t-4-9.5q1-9-4-16.5t-8-8q-3-.5-7.5 7.5t-4.5 17q0 6-4 9.5t-9 3.5q-5 0-8.5-3.5T163 141q0-18 10.5-34T200 91q16 0 27 16t11 35q0 5-4 8.5t-9 3.5zm70-126q0 12-14 29-9 11-23 22-3 2-6.5 2t-6.5-2q-14-11-23-22-14-17-14-29 0-10 6.5-17T230 4q9 0 15 7t6 17q0-10 6.5-17T273 4q9 0 15.5 7t6.5 17zM88 241q0 12-14 28-10 11-23 23-3 2-7 2t-7-2q-14-12-23-23-14-16-14-28 0-10 6.5-17.5T22 216q9 0 15.5 7.5T44 241q0-10 6.5-17.5T66 216q9 0 15.5 7.5T88 241z"/></svg>