<svg viewBox="0 0 300 316" xmlns="http://www.w3.org/2000/svg"><path d="M251 217q-2 5-7 7t-9.5 0q-4.5-2-6.5-7t0-9l4-11-83-33-5 10q-2 5-6.5 7t-9.5 0q-5-2-7-6.5t0-9.5l4-10-44-18q-6 10-10 20l-6 10q-6 17 1 33 3 7 9 13v1q-5 12 0 23.5T91.5 254q11.5 5 23.5.5t17-16.5l60 25q-3 11 2.5 22.5t17 15.5q11.5 4 23-.5T251 284q12 0 22-6.5t15-17.5l5-13q4-11 6-23l-44-17-4 10zM145 82q13-11 30.5-14t33.5 3l49 19q16 7 25.5 21t10.5 31l6 56-202-81 47-35zM81 99q-11 12-20 25-8 10-13 22l-4 8H13q-4 0-7-2t-4.5-5q-1.5-3-1-7t2.5-7l20-23q2-3 2-6t-2-6L3 74q-2-2-2.5-6t1-7Q3 58 6 56t6-2h29q4 0 6.5-2.5T50 45V16q0-3 2-6t5-4.5q3-1.5 7-1T71 7l23 20q3 2 6 2t6-2l24-20q2-2 6-2.5t7 1q3 1.5 5 4.5t2 7v33q-11 5-20 13L81 99z"/></svg>