<svg viewBox="0 0 300 316" xmlns="http://www.w3.org/2000/svg"><path d="M213 41h-63V29q0-5-3.5-9t-9-4q-5.5 0-9 4t-3.5 9v12H88V16q0-5-4-8.5T75 4q-5 0-8.5 3.5T63 17v30q-17 7-27.5 22.5T25 104v45q0 22 14 39l8 11q3 3 3 8v35q0 16 8.5 30.5t23 23Q96 304 112 304h76q16 0 30.5-8.5t23-23Q250 258 250 242v-35q0-5 3-8l8-11q14-17 14-39v-45q0-17-8.5-31.5t-23-22.5Q229 42 212 42l1-1zm12 100q0 11-7.5 18t-17.5 8H100q-10-1-17.5-8T75 142v-26q0-10 7.5-17.5T100 91h100q10 1 17.5 8t7.5 17v25zm-25-25v25H100v-25h100z"/></svg>