<svg viewBox="0 0 300 316" xmlns="http://www.w3.org/2000/svg"><path d="M250 79h-50q-21 0-35.5 14.5T150 129v125q0 21 14.5 35.5T200 304h50q21 0 35.5-14.5T300 254V129q0-21-14.5-35.5T250 79zm-25 37q8 1 13.5 6t5.5 13q0 8-5.5 13.5T225 154q-8 0-13.5-5.5T206 135q0-8 5.5-13.5T225 116zm0 163q-18 0-31-13t-13-31q0-18 13-31t31-12.5q18 .5 31 13t13 30.5q0 18-13 31t-31 13zm-100-25q0 5-3.5 8.5T113 266H75q-5 0-8.5-3.5T63 254q0-5 3.5-9t8.5-4h25v-25H63q-17 1-31.5-7.5t-23-23Q0 171 0 154V66q0-16 8.5-30.5t23-23Q46 4 63 4h137q23 0 40.5 15T261 56q-9-2-17-2h-44q-20 0-37.5 10T135 91.5Q125 109 125 129v125zm81-19q0-8 5.5-13.5T225 216q8 0 13.5 5.5T244 235q0 8-5.5 13.5T225 254q-8 0-13.5-5.5T206 235z"/></svg>