<svg viewBox="0 0 300 316" xmlns="http://www.w3.org/2000/svg"><path d="M117 139q-12-15-15.5-34t2.5-37.5Q110 49 124 35l7-7q14-14 32.5-20T201 5.5Q220 9 235 21q12 10 19 24t7.5 30q.5 16-5 30.5T240 131l-13 13q-10 10-24 16t-29 6h-3q-16-1-30-8t-24-19zm117 65q-13 0-25 5t-21 14q-27 27-62 41.5T53 279H39q-4 0-7.5-2.5T26 270q-2-4-1-8t4-7l9-9q16-1 31-7.5T95 220l39-38q-22-9-36-27-9-10-14-22l-38 38q-11 12-18 26.5T20 229l-9 8q-8 9-10.5 20.5T3 280q5 11 14.5 17.5T39 304h14q43 0 83-16.5t70-46.5q8-9 20.5-11.5T250 232q11 5 18 15t7 23v21q0 6 3.5 9.5t9 3.5q5.5 0 9-3.5t3.5-8.5v-22q0-18-9-33t-24-24q-15-9-33-9z"/></svg>