<svg viewBox="0 0 300 316" xmlns="http://www.w3.org/2000/svg"><path d="M289 230l-20 20q-4 4-9 4t-8.5-3.5q-3.5-3.5-3.5-9t3-8.5l16-17h-92q-5 0-9-3.5t-4-8.5q0-5 4-9t9-4h92l-16-16q-3-3-3-8.5t3.5-9q3.5-3.5 8.5-3.5t9 4l20 20q11 11 11 26t-11 26zM163 104h81q-7-18-20-31l-43-43q-13-13-31-20v81q0 6 3.5 9.5t9.5 3.5zm60 137h-48q-15 0-26-11t-11-26q0-15 11-26.5t26-11.5h48q0-15 11-26 7-7 16-10v-1h-87q-16 0-27-11t-11-27V4H63q-17 0-31.5 8.5t-23 23Q0 50 0 66v175q0 17 8.5 31.5t23 23Q46 304 63 304h125q16 0 30.5-8t22.5-22q-4-3-7-6-11-11-11-27z"/></svg>