<svg viewBox="0 0 300 316" xmlns="http://www.w3.org/2000/svg"><path d="M225 79q-25 0-46 17-16 12-29 32-13-20-29-32-21-17-46-17-20 0-37.5 10T10 116.5Q0 134 0 154t10 37.5Q20 209 37.5 219T75 229q25 0 46-17 16-12 29-32 13 20 29 32 21 17 46 17 20 0 37.5-10t27.5-27.5q10-17.5 10-37.5t-10-37.5Q280 99 262.5 89T225 79zM75 204q-21 0-35.5-14.5T25 154q0-21 14.5-35.5t36-14.5q21.5 0 40.5 20 12 13 20 30-8 17-20 30-19 20-41 20zm150 0q-22 0-41-20-12-13-20-30 8-17 20-30 19-20 40.5-20t36 14.5Q275 133 275 154t-14.5 35.5Q246 204 225 204z"/></svg>