<svg viewBox="0 0 300 316" xmlns="http://www.w3.org/2000/svg"><path d="M299 125q-7 30-26 55t-46 41l22 67q3 6-2 11.5t-12 4q-7-1.5-9-8.5l-22-64q-20 8-41 10v50q0 6-4 9.5t-9 3.5q-5 0-9-3.5t-4-8.5v-51q-21-2-41-9l-22 63q-1 5-5.5 7.5t-9.5 1q-5-1.5-7.5-6.5t-.5-9l22-67q-17-8-36-29T8 148q-12-27-6-44 6-20 36-25h225q8 0 15.5 4t13 10.5q5.5 6.5 7.5 15t0 16.5zM150 54q5 0 9-3.5t4-8.5V16q0-5-4-8.5T150 4q-5 0-9 3.5t-4 8.5v25q1 6 4.5 9.5T150 54zm50 0q5 0 9-3.5t4-8.5V16q0-5-4-8.5T200 4q-5 0-9 3.5t-4 8.5v25q1 6 4.5 9.5T200 54zm-100 0q5 0 8.5-3.5T112 42V16q1-5-3-8.5T100 4q-5 0-8.5 3.5T88 16v25q0 6 3.5 9.5T100 54z"/></svg>