<svg viewBox="0 0 300 316" xmlns="http://www.w3.org/2000/svg"><path d="M44 216H22Q0 182 0 142V91q0-5 3.5-8.5t9-3.5q5.5 0 9 3.5T25 92q0 20 14.5 34.5T75 141q13 0 25-6v25q0 24-16.5 40T44 216zM300 95q0 4-2.5 7.5T291 108l-16 7v26q0 31-13 58.5t-35.5 47Q204 266 175 274v17q0 6-3.5 9.5t-9 3.5q-5.5 0-9-3.5T150 291v-13l-12 1-13-1v13q0 6-3.5 9.5t-9 3.5q-5.5 0-9-3.5T100 291v-17q-32-9-57-33h1q22 0 40.5-10.5T114 201q11-19 11-41V82q0-20 9.5-37.5T160 16q16-11 36.5-12t38 8Q252 21 263 37.5T275 74l16 8q4 1 6.5 4.5T300 95zm-75-22q0-8-5.5-13.5T206 54q-8 0-13.5 5.5T187 73q0 8 5.5 13.5T206 92q8 0 13.5-5.5T225 73z"/></svg>