<svg viewBox="0 0 300 316" xmlns="http://www.w3.org/2000/svg"><path d="M100 4H50Q29 4 14.5 18.5T0 54v200q0 21 14.5 35.5T50 304h100V54q0-21-14.5-35.5T100 4zM50 241H38q-6 1-9.5-3t-3.5-9q0-5 3.5-8.5T37 216h13q5 1 8.5 4.5t4 8.5q.5 5-3.5 8.5t-9 3.5zm0-50H38q-6 0-9.5-3.5T25 179q0-5 3.5-8.5T37 167h13q5-1 8.5 3t4 9q.5 5-3.5 8.5t-9 3.5zm25-62q-5 0-8.5-3.5T63 116v-12H50q-5 0-8.5-3.5t-3.5-9q0-5.5 3.5-9T50 79h13V66q0-5 3.5-8.5T75 54q5 0 9 3.5t4 9.5v12h12q5 0 9 3.5t3.5 9q-.5 5.5-4 9T100 104H88v12q0 6-4 9.5t-9 3.5zm38 112h-13q-5 1-9-3t-3.5-9q.5-5 4-8.5t8.5-3.5h13q5 0 8.5 3.5t3.5 8.5q0 5-3.5 8.5T112 241h1zm0-50h-13q-5 1-9-3t-3.5-9q.5-5 4-8.5t8.5-3.5h13q5-1 8.5 3t3.5 9q0 5-3.5 8.5T112 191h1zM250 66h-75v151h25q5 0 9 3.5t4 8.5q0 5-4 8.5t-9 3.5h-25v63h75q21 0 35.5-14.5T300 254V116q0-20-14.5-35T250 66zm-25 125q-5 1-9-3t-4-9v-13h-12q-5 0-9-3.5t-3.5-8.5q.5-5 4-8.5t8.5-3.5h13v-13q0-5 3.5-8.5t8.5-3.5q5 0 9 3.5t4 8.5v12h12q5 1 9 4.5t4 8.5q0 5-4 8.5t-9 3.5h-12v13q0 5-4 8.5t-9 3.5zm38 50h-13q-5 1-9-3t-3.5-9q.5-5 4-8.5t8.5-3.5h13q5 0 8.5 3.5t3.5 8.5q0 5-3.5 9t-8.5 3z"/></svg>