<svg viewBox="0 0 300 316" xmlns="http://www.w3.org/2000/svg"><path d="M244 104q-7 0-13-3-8 3-15 3h-41q-5 0-9-3.5t-4-9.5V79q1-5-3-9t-9-3.5q-5 .5-9 4t-4 8.5v12q1 6-3 9.5t-9 3.5H84q-7 0-15-3-16 7-28-.5T26 79q-3-14 5-25.5T57 41q9-15 25-21t33-1q14-15 35-15t35 15q17-5 33 1t25 22q13-1 22.5 8t9.5 22q0 13-9 22.5t-22 9.5zM67 179l44-46q4-4 9-4h60q5 0 9 4l44 46h-33q-14 0-25 10-11-10-25-10t-25 10q-11-10-25-10H67zm190 25h-57q-5 0-8.5 3.5T187 217v37q0 5-3.5 8.5T175 266q-5 0-9-3.5t-4-8.5v-38q1-5-3-8.5t-9-3.5q-5 0-9 3.5t-4 9.5v12q1 5-3 8.5t-9 3.5q-5 0-8.5-3.5T113 229v-13q-1-5-4.5-8.5T100 204H43L9 240q-7 9-8.5 20T4 281.5Q9 292 18.5 298t20.5 6h222q11 0 21-6t14.5-16.5q4.5-10.5 3-22T290 239l-33-35z"/></svg>