<svg viewBox="0 0 300 316" xmlns="http://www.w3.org/2000/svg"><path d="M0 104V91q0-16 8.5-30.5t23-23Q46 29 63 29h12V16q0-5 3.5-8.5t9-3.5q5.5 0 9 3.5T100 17v12h100V16q0-5 3.5-8.5t9-3.5q5.5 0 9 3.5T225 17v12h13q16 0 30.5 8.5t23 23Q300 75 300 91v13H0zm244 175q-12 0-22 7t-14 18h71q-4-11-13.5-18t-21.5-7zm-188 0q-12 0-21.5 7T21 304h71q-4-11-14-18t-22-7zM0 289V129h300v160q-8-16-23-25.5t-33-9.5q-23 0-40 14t-21 36h-65q-5-22-22-36t-40-14q-18 0-33 9.5T0 289zm213-91q0 13 9 22t22 9q13 0 22-9t9-22q0-13-9-22.5t-22-9.5q-13 0-22.5 9.5T212 198h1zm-188 0q0 13 9 22t22 9q13 0 22.5-9t9.5-22q0-13-9.5-22.5T56 166q-13 0-22 9.5T25 198z"/></svg>