<svg viewBox="0 0 300 316" xmlns="http://www.w3.org/2000/svg"><path d="M235 148q5 19-1 38t-22 31q0 17-7 38-5 15-13 31l-7 13q-2 3-6 4t-8 0q-4-1-6-4.5t-2-7.5V116q0-5-4-8.5t-9-3.5q-5 0-8.5 3.5T138 116v175q0 5-2.5 8t-6.5 4.5q-4 1.5-8 0t-6-4.5l-7-13q-8-16-13-32-7-21-7-38-12-8-18.5-21.5T62 167q0-5 2-13t2-11q0-6-3-10-10-12-12-26.5T54.5 78q5.5-14 17-23.5T98 42q4-1 5-5 5-15 18-24t29-9q16 0 29 9t18 24q1 4 5 5 15 3 27 12.5T246 78q5 14 3 28.5T237 133q-5 7-2 15zm60-22q5-10 5-21t-4.5-21q-4.5-10-13-17.5T263 56q13 21 12 45t-15 44q5 22-1 44.5T237 228q-3 26-14 50 23-4 37.5-21.5T275 216l4-3q15-13 19.5-32.5T295 142q-4-8 0-15v-1zM5 142q-8 19-3.5 38.5T21 213l4 3q0 23 14.5 40.5T77 278q-11-24-14-50-16-16-22-38.5T40 145q-14-20-15-44t12-45q-11 3-19.5 10.5T4.5 84Q0 94 0 105t5 21q4 8 0 16z"/></svg>