<svg viewBox="0 0 300 316" xmlns="http://www.w3.org/2000/svg"><path d="M131 35q0-8 5.5-13.5T150 16q8 0 13.5 5.5T169 35q0 8-5.5 13.5T150 54q-8 0-13.5-5.5T131 35zM38 166q0-7-5.5-12.5T19 148q-8 0-13.5 5.5t-5.5 13q0 7.5 5.5 13T19 185q8 0 13.5-5.5T37 166h1zm262 0q0-7-5.5-12.5T281 148q-8 0-13 5.5t-5 13q0 7.5 5 13t13 5.5q8 0 13.5-5.5T300 166zM75 73q0-8-5.5-13.5T56 54q-8 0-13 5.5T38 73q0 8 5 13.5T56 92q8 0 13.5-5.5T75 73zm188 187q-1-8-6-13.5t-13-5q-8 .5-13.5 5.5t-5.5 13q0 8 5.5 13.5T244 279q8 0 13.5-5.5T263 260zM56 241q-8 0-13 5.5T38 260q0 8 5 13.5t13 5.5q8 0 13.5-5.5T75 260q0-8-5.5-13.5T56 242v-1zM244 54q-8 0-13.5 5.5T225 73q0 8 5.5 13.5T244 92q8 0 13.5-5.5t5-13.5q-.5-8-5.5-13.5T244 54zm-94 25q-22 0-40.5 10T79 116q-12 17-16 38h87q5 0 8.5 3.5t4 9q.5 5.5-3.5 9t-9 3.5H64q3 21 15 38t30.5 27q18.5 10 41.5 10t43-12q20-12 32-32t12-43.5q0-23.5-12-43.5t-32-32q-20-12-44-12z"/></svg>