<svg viewBox="0 0 300.0042 316" xmlns="http://www.w3.org/2000/svg"><path d="M39.002 204h222l-5 13q-14 23-36 31-16 6-44 6h-13v25h37q5 0 9 3.5t4 9q0 5.5-4 9t-9 3.5h-100q-5 0-8.5-3.5t-3.5-9q0-5.5 3.5-9t8.5-3.5h38l-1-25q-23 0-35-1-18-2-32-9-15-9-26-27l-5-13zm230-88h-42q-5 0-9-3.5t-4-8.5v-1q0-5 3.5-8t8.5-3h12q9-1 16.5-6.5t9.5-14.5q1-12-6.5-21t-18.5-9h-39q-4-13-10.5-20.5T171.002 6q-6-4-12-1t-7 10.5q-1 7.5-5 14.5-3 5-6 9l-3 2h-74q-10 0-17.5 6t-8.5 15q-2 12 5.5 20.5t19.5 8.5h89q5 0 8.5 4t3.5 9q0 5-3.5 8.5t-8.5 3.5h-119q-12 1-22 9t-11 20.5q-1 12.5 8 23t23 10.5h236q12 0 22-8t11-21q1-13-8-23t-23-10v-1z"/></svg>