<svg viewBox="0 0 300 316" xmlns="http://www.w3.org/2000/svg"><path d="M138 4v75H88V4h50zm100 75h62V54q0-21-14.5-35.5T250 4h-12v75zM213 4h-50v75h50V4zM63 79V4H50Q29 4 14.5 18.5T0 54v25h63zM50 266v2q0 15 11 25.5T87.5 304q15.5 0 26.5-10.5t11-25.5v-2H50zm189-133q-5-4-8.5-3.5T225 135q-4 10-8 32-4 19-7 26-5 11-15 11-4 0-7-7-2-3-4-12l-2-6q-3-6-7-6.5t-7 4.5q-6 12-12 26-6 16-6 26 0 20 9.5 36.5t25.5 27q16 10.5 36 11.5t38.5-9.5Q278 284 289 266q16-26 9-53-5-22-24-46-13-14-35-34zm5 137q-7 9-19 9t-18.5-8q-6.5-8-6-18.5T208 235l10-13q3-3 7-3t7 3l10 13q7 7 7.5 17.5T244 270zm-119-41q0-16 10-40 5-13 12-24 4-9 12-13.5t17.5-4q9.5.5 17.5 6.5 3-17 8-28 7-17 23-20.5t30 8.5q25 22 39 40l5-50H1l7 81q3 24 20.5 40T71 241h55q-1-6-1-12z"/></svg>