<svg viewBox="0 0 300 316" xmlns="http://www.w3.org/2000/svg"><path d="M150 91q-5 0-8.5-3.5T138 79V41q0-5 3.5-8.5T150 29q5 0 8.5 3.5T162 42v37q1 5-3 8.5t-9 3.5zm64 1l19-32q2-4 1-9t-5.5-7.5Q224 41 219 42t-8 6l-18 31q-3 5-1.5 10t5 7q3.5 2 7.5 2 7 0 10-6zm-111 5q5-2 6.5-7T108 80L90 48q-3-5-8-6t-9.5 1.5Q68 46 66.5 51t1.5 9l18 33q4 6 11 6 4 0 6-1v-1zm196 65q-2-12-11.5-21T266 130q-16-3-29.5 6T219 160l-39-14q-5-2-9.5 0t-6.5 7l-14 30-15-31q-2-4-6.5-6t-9.5 0l-38 14q-4-15-17.5-24T34 130q-12 2-21.5 11t-12 21.5q-2.5 12.5 3 24T19 205q-5 10-5 20 0 18 13 30.5T58 266q10 0 19-6t14-16q8-14 4-30l55-21 55 21q-1 6-1 11 0 12 6.5 22.5T228 263q11 5 23 3t21-9.5q9-7.5 12-18.5 6-17-3-33 10-7 15.5-18.5T299 162z"/></svg>