<svg viewBox="0 0 300 316" xmlns="http://www.w3.org/2000/svg"><path d="M204 41q10-13 51-24 7-2 13.5 2.5T275 32q1 43-8.5 56T241 103.5q-16 2.5-29-7.5t-15-26q-2-16 7-29zm3 201q18 3 30.5 17t12.5 32q0 6-3.5 9.5t-9 3.5q-5.5 0-9-3.5T225 292q0-11-7.5-18.5T200 266h-21q3 4 5.5 8.5t3 9.5q.5 5-2.5 10t-7.5 7.5Q173 304 168 304h-36q-5 0-9.5-2.5T115 294q-3-5-2.5-10t2.5-9q5-9 13-15-28-9-53-23-33-17-52-36-23-23-23-46 0-16 11-27.5T39 116h222q17 0 28 11.5t11 27.5q0 28-31 52-24 20-62 35zm-4-75q-5-1-9.5 1.5T188 176q-11 35-38 61-27-26-38-61-1-5-5.5-7.5T97 167q-5 1-7.5 5.5T88 182q2 11 10 25 14 28 42 55 4 4 10 4 3 0 10-5l7-5q30-32 45-74 1-5-1.5-9.5T203 167zm-53-63q17 0 29-12t12-29q0-17-28-53-5-6-13-6t-13 6q-28 36-28 53t12 29q12 12 29 12zm-62-8q13-10 15-26t-7.5-29Q86 28 45 17q-7-2-13.5 2.5T25 32q-1 43 8.5 56T59 103.5Q75 106 88 96z"/></svg>