<svg viewBox="0 0 300 316" xmlns="http://www.w3.org/2000/svg"><path d="M138 304q-17 0-30.5-9T88 271q-2-5 .5-10t7.5-6.5q5-1.5 9.5.5t6.5 7q4 12 16.5 15.5t23-3Q162 268 162 254q1-10-6.5-17.5T137 229H13q-6 0-9.5-3.5t-3.5-9q0-5.5 3.5-9T12 204h126q23 1 36 15.5t13 34.5q0 20-13 34.5T138 304zm112-63q-16 1-29.5-8.5T201 208q-2-5 0-9.5t7-6.5q5-2 10 .5t6 7.5q5 12 17.5 15t23-3.5Q275 205 275 191q0-10-7.5-17t-17.5-7h-62q-6-1-9.5-4.5T175 154q0-5 3.5-9t8.5-4h63q23 1 36 16t13 34.5q0 19.5-13 34.5t-36 15zm0-125h-37q-6 0-9.5-3.5T200 104q0-5 3.5-9t8.5-4h38q10 0 17.5-7t7.5-18q0-13-10.5-19.5t-23-3.5Q229 46 224 58q-1 5-6 7.5t-10 .5q-5-2-7-6.5t0-9.5q7-18 23-26.5t33.5-6Q275 20 287.5 33T300 66.5q0 20.5-14.5 35T250 116zM88 4Q54 5 32 23 12 40 4.5 66t0 51.5Q12 143 32 160q23 18 56 18t55-18q20-17 27.5-43t0-51.5Q163 40 143 23 120 5 88 4zm0 137q-6 0-9.5-3.5T75 129q0-5 3.5-9t9-3.5q5.5.5 9 4t3.5 8.5q0 5-3.5 9t-9.5 4l1-1zm12-50q0 6-3.5 9.5t-9 3.5q-5.5 0-9-3.5T75 92V54q0-5 3.5-9t9-4q5.5 0 9 4t3.5 9v37z"/></svg>