<svg viewBox="0 0 300 316" xmlns="http://www.w3.org/2000/svg"><path d="M150 4q-41 0-75.5 20T20 78.5Q0 113 0 154t20 75.5Q40 264 74.5 284t75.5 20q41 0 75.5-20t54.5-54.5q20-34.5 20-75.5t-20-75.5Q260 44 225.5 24T150 4zM75 91q0-5 3.5-8.5T87 79h26q5 0 8.5 3.5t3.5 9q0 5.5-3.5 9T113 104H88q-6 0-9.5-3.5T75 92v-1zm50 44q0 8-5.5 13.5T106 154q-8 0-13.5-5.5t-5-13.5q.5-8 5.5-13.5t13-5q8 .5 13.5 5.5t5.5 13zm75 81H100q-5 0-8.5-3.5t-4-8.5q-.5-5 3.5-9t9-4h100q5 1 8.5 4.5t3.5 8.5q0 5-3.5 9t-8.5 4v-1zm-6-62q-8 0-13.5-5.5T175 135q0-8 5.5-13.5t13.5-5q8 .5 13.5 5.5t5 13q-.5 8-5.5 13.5t-13 5.5zm30-54q-4 3-9 2t-8-5q-5-6-13-5.5t-15 8.5q-3 5-4.5 8.5t-5 5.5q-3.5 2-6.5 2h-5q-5-2-7-7t0-10q5-12 14-21 13-12 28-12t25 8q6 4 9 8.5t2.5 9.5q-.5 5-5.5 8z"/></svg>