<svg viewBox="0 0 300 316" xmlns="http://www.w3.org/2000/svg"><path d="M279 40l-29 58q-15-17-35.5-28T171 56l12-24q6-13 18.5-20.5T228 4h29q6 0 11.5 3t9 8.5q3.5 5.5 4 12T279 40zM129 56l-12-24q-6-13-18.5-20.5T72 4H44q-7 0-12.5 3t-9 8.5Q19 21 19 27.5T21 40l29 57q15-16 35.5-27T129 56zm134 135q0 31-15.5 57t-41 41q-25.5 15-56 15T94 289q-26-15-41.5-41T37 191.5Q37 161 52.5 135t41-41Q119 79 150 79t56.5 15q25.5 15 40.5 41t15 56h1zm-61-7q0-3-2.5-5.5T193 176h-26l-8-27q0-3-3-5t-6-2q-3 0-6 2t-3 5l-8 27h-26q-4 0-6.5 2.5T98 184q0 7 7 10l18 11-8 22q-1 4 0 7t4 5q3 3 6.5 2.5t5.5-2.5l19-14 19 14q2 2 5.5 2.5t6.5-2.5q3-2 4-5t0-7l-8-22 18-11q7-3 7-10z"/></svg>