<svg viewBox="0 0 300 316" xmlns="http://www.w3.org/2000/svg"><path d="M135 226q-30 30-44 56-20-8-38-18 12-31 50.5-69.5T172 144q11 18 19 38-27 15-56 44zm64-20q-22 14-46.5 38T115 290q26 9 53 13l7 1q15 0 26-11 7-7 9.5-15.5T212 259q-5-27-13-52v-1zM86 177q39-39 72-54-8-11-17-20t-22.5-11Q105 90 89 95q-14 4-28 12.5T36 128q-24 24-33 52-5 17-2.5 30.5t11 22Q20 241 32 250q15-34 54-73zM268 18q-13-6-29-10t-32.5-4q-16.5 0-33 4T145 18q-16 9-24 20t-8 24v5q15 0 28 6 28-7 65-7 58 0 93 14 1-11 1-18 0-13-8.5-24T268 18zm-36 214q4-3 6-7 18-26 31-51-23-7-58-7 13 30 21 65zM167 94q18 20 33 48h6q44 0 74 9 9-23 15-45-31-14-89-14-21 0-39 2z"/></svg>