<svg viewBox="0 0 300 316" xmlns="http://www.w3.org/2000/svg"><path d="M271 95q-6-10-17-14t-22 0l-35 11q-4 1-6.5-2t.5-7q11-15 9-34t-16.5-32Q169 4 150 4t-33.5 13Q102 30 100 49t9 34q3 4 .5 7t-6.5 2L68 81q-12-5-24 .5T27.5 99q-4.5 12 1 24T46 139l20 9q12 4 17.5 15.5t3.5 25Q85 202 79 212l-24 43q-7 10-4.5 23T64 298q11 7 23.5 4.5T107 290l36-57q2-4 7-4t7 4l36 57q5 7 12.5 10.5t15.5 3q8-.5 15-5.5t11-12.5q4-7.5 3-15.5t-5-15l-24-43q-6-10-8-23.5t3.5-25Q222 152 234 148l20-9q14-4 19-17.5T271 95zM150 204q-8 0-13.5-5.5T131 185q0-8 5.5-13t13.5-5.5q8-.5 13.5 5T169 185q0 8-5.5 13.5T150 204zm0-50q-8 0-13.5-5.5T131 135q0-8 5.5-13.5T150 116q8 0 13.5 5.5T169 135q0 8-5.5 13.5T150 154z"/></svg>