<svg viewBox="0 0 300 316" xmlns="http://www.w3.org/2000/svg"><path d="M38 160q0 8-5.5 13.5T19 179q-8 0-13.5-5.5T0 160q0-8 5.5-13.5T19 141q8 0 13 5.5t5 13.5h1zm-19 44q-8 0-13.5 5.5T0 223q0 8 5.5 13t13.5 5q8 0 13.5-5t5.5-13q0-8-5.5-13.5T19 204zm0 62q-8 0-13.5 5.5T0 285q0 8 5.5 13.5T19 304q8 0 13-5.5t5.5-13.5q.5-8-5-13.5T19 266zm50-93q-8 0-13.5 5.5t-5.5 13q0 7.5 5.5 13T69 210q8 0 13.5-5.5t5.5-13q0-7.5-5.5-13T69 173zm0 62q-8 0-13.5 5.5T50 254q0 8 5.5 13.5T69 273q8 0 13.5-5.5t5-13.5q-.5-8-5.5-13.5T69 235zM291 91l8-43q4-17-7.5-30.5T262 4h-32q-16 0-28 10t-15 25l-10 52h114zm-119 25l-10 50h-18q-13 0-22.5 9.5T112 198v50q0 13 9.5 22t22.5 9h60q22 0 39.5-14.5T265 228l21-112H172z"/></svg>