<svg viewBox="0 0 300 316" xmlns="http://www.w3.org/2000/svg"><path d="M175 229q-6 0-12 2v-2q0-5 3.5-8.5t9-4q5.5-.5 9.5 4.5t11.5 4q7.5-1 9.5-8t-3-13q-8-9-19-11.5t-22 1.5q-11 4-17.5 13.5T138 229v37q0 13 7.5 23t19.5 13.5q12 3.5 23.5-1T207 286q5-8 5.5-18t-4.5-19.5q-5-9.5-14-14.5t-19-5zm11 44q-3 4-7 5.5t-8.5 0Q166 277 164 273t-1-8.5q1-4.5 4-7.5t8-3q7 0 11 6t0 13zm77-82q-16 0-27 11t-11 27v37q0 16 11 27t26.5 11q15.5 0 26.5-11t11-26v-38q0-16-11-26.5T262 191h1zm12 75q0 6-3.5 9.5t-9 3.5q-5.5 0-9-3.5T250 266v-37q0-5 3.5-8.5t9-4q5.5-.5 9 3.5t3.5 9v37zM150 166h-50q-5 0-8.5-3.5T88 154q0-5 3.5-9t8.5-4h38V91q0-5 3.5-8.5T150 79q5 0 9 3.5t4 8.5v63q0 5-4 9t-9 4v-1zM300 41v38q0 16-11 26.5T262 116h-37q-5 0-9-3.5t-3.5-8.5q.5-5 4-9t8.5-4h33q-21-35-58.5-51.5t-77.5-7Q82 42 55 73t-30 72q-3 41 19 76t61 49q4 2 6.5 7t.5 10q-2 5-7 7t-10 0q-29-12-51.5-34.5t-34-52Q-2 178 0 146t16.5-60q14.5-28 39-48t55-28.5Q141 1 172.5 6t58 21.5Q257 44 275 71V41q0-5 3.5-8.5t9-3.5q5.5 0 9 3.5T300 41z"/></svg>