<svg viewBox="0 0 300 316" xmlns="http://www.w3.org/2000/svg"><path d="M219 191q-8 1-13.5-4.5T200 173v-50q0-8 5.5-13.5T219 104q8 0 13.5 5.5T238 123v50q0 8-5.5 13.5T219 192v-1zm-31-18v-50q-1-8-6-13.5t-13-5.5q-8 0-13.5 5.5T150 123v50q0 8 5.5 13.5T169 192q8 0 13.5-5.5T188 173zm90-156q-7 1-11 6.5T263 36v134q0 19-12.5 32.5T220 216q-14 1-26-7-12 8-27 7-18 0-30-13.5T125 170V24q0-7-4.5-13t-12-7q-7.5-1-14 4.5T87 23v194l-45-44q-8-7-18-6.5t-17 8q-7 7.5-7 18T8 210l69 66q13 13 31.5 20.5T146 304h92q16 0 30.5-8.5t23-23Q300 258 300 241V35q0-8-6.5-14T278 17z"/></svg>