<svg viewBox="0 0 300 316" xmlns="http://www.w3.org/2000/svg"><path d="M237 254h13v12q-21 18-46.5 28T150 304q-38 0-70.5-17.5t-53.5-48Q5 208 1 171q6 3 12 8 16 12 36.5 12T86 179q8-6 16-9 5 15 18 24.5t30 9.5q13 0 24.5-6.5T193 179q3 1 5 3.5t2 5.5v28q0 16 11 27t26 11zM156 4q-40-2-75 16.5T24.5 72Q3 105 0 144q15 5 28 15 9 7 21.5 7t21.5-7q13-11 30-15 3-17 17-28.5t32-11.5q20 0 35 14.5t15 35.5q10 0 17.5 7.5T225 179v37q0 6 3.5 9.5t8.5 3.5q5 0 9-3.5t4-8.5v-51q0-5 3.5-8.5t8.5-3.5q5 0 9 3.5t4 9.5v87q0 5 3.5 9t8.5 4q5-1 9-4.5t4-8.5v-95q0-40-19-75t-52-56.5Q196 6 156 4z"/></svg>