<svg viewBox="0 0 300 316" xmlns="http://www.w3.org/2000/svg"><path d="M31 35q0-13 9.5-22t22-9q12.5 0 22 9T94 35q0 13-9.5 22t-22 9q-12.5 0-22-9T31 35zm44 44H50q-21 0-35.5 14.5T0 129v37q0 14 7 25.5T25 210v81q0 6 3.5 9.5t9 3.5q5.5 0 9-3.5T50 291v-75h25v75q0 6 3.5 9.5t9 3.5q5.5 0 9-3.5t3.5-9.5v-81q11-7 18-18.5t7-25.5v-37q0-21-14.5-35.5T75 79zm163-13q12 0 21.5-9t9.5-22q0-13-9.5-22t-22-9q-12.5 0-22 9T206 35q0 13 9.5 22t22.5 9zm12 13h-25q-21 0-35.5 14.5T175 129v37q0 14 7 25.5t18 18.5v81q0 6 3.5 9.5t9 3.5q5.5 0 9-3.5t3.5-9.5v-75h25v75q0 6 3.5 9.5t9 3.5q5.5 0 9-3.5t3.5-9.5v-81q11-7 18-18.5t7-25.5v-37q0-21-14.5-35.5T250 79z"/></svg>