<svg viewBox="0 0 300 316" xmlns="http://www.w3.org/2000/svg"><path d="M188 4h-75q-17 0-31.5 8.5t-23 23Q50 50 50 67v174q0 17 8.5 31.5t23 23Q96 304 112 304h76q16 0 30.5-8.5t23-23Q250 258 250 241V66q0-16-8.5-30.5t-23-23Q204 4 187 4h1zm-38 275q-16 0-27-11t-10.5-26.5q.5-15.5 11-26.5t26.5-11q16 0 26.5 11t11 26.5Q188 257 177 268t-27 11zm0-88q-16 0-26.5-10.5T113 154q0-16 10.5-26.5t26.5-11q16-.5 26.5 10.5t11 27q.5 16-10.5 26.5T150 191zm0-87q-16 0-26.5-11T113 66.5Q113 51 123.5 40T150 29q16 0 26.5 11t11 26.5Q188 82 177 93t-27 11z"/></svg>