<svg viewBox="0 0 300 316" xmlns="http://www.w3.org/2000/svg"><path d="M200 104h-25V41h25v63zm88-13v63q0 21-15 35.5T238 204H138q-21 0-35.5-14.5T88 154V91q0-20 14.5-35T138 41h12v63q0 10 7.5 17.5T175 129h25q10 0 17.5-7.5T225 104V41h13q20 0 35 15t15 36v-1zm0 138H100q-16 0-27-11t-11-26V54q1-21-14-35.5T13 4Q7 4 3.5 7.5t-3.5 9q0 5.5 3.5 9T13 29q10 0 17 7.5T37 54v137q1 19 11 34.5T75 249v17q0 16 11 27t26.5 11q15.5 0 26.5-11t11-27v-12h63v12q0 16 10.5 27t26.5 11q16 0 27-11t10-27v-12q6 0 9.5-3.5t3.5-9q0-5.5-3.5-9T287 229h1z"/></svg>