<svg viewBox="0 0 300 316" xmlns="http://www.w3.org/2000/svg"><path d="M238 41H63q-17 0-31.5 8.5t-23 23Q0 87 0 104v100q0 17 8.5 31.5t23 22.5q14.5 8 31.5 8h175q16 0 30.5-8t23-22.5Q300 221 300 204V104q0-17-8.5-31.5t-23-23Q254 41 238 42v-1zm-113 75h-25v88q0 5-3.5 9t-9 3.5q-5.5-.5-9-4T75 204v-88H50q-5 1-8.5-3t-3.5-9q0-5 3.5-9t8.5-4h75q5 0 9 4t4 9q0 5-4 9t-9 4v-1zm19 100q-8 0-13.5-5t-5.5-13q0-8 5.5-13.5T144 179q8 0 13.5 5.5T163 198q0 8-5.5 13.5T144 217v-1zm50 0q-8 0-13.5-5t-5.5-13q0-8 5.5-13.5T194 179q8 0 13 5.5t5 13.5q0 8-5 13.5t-13 5.5v-1zm50 0q-8 0-13.5-5t-5.5-13q0-8 5.5-13.5T244 179q8 0 13.5 5.5t5 13.5q-.5 8-5.5 13.5t-13 5.5v-1z"/></svg>