<svg viewBox="0 0 300 316" xmlns="http://www.w3.org/2000/svg"><path d="M213 4H88q-17 0-31.5 8.5t-23 23Q25 50 25 67v174q0 17 8.5 31.5t23 23Q71 304 87 304h126q16 0 30.5-8.5t23-23Q275 258 275 241V66q0-16-8.5-30.5t-23-23Q229 4 212 4h1zm-88 237q0 6-3.5 9.5T113 254H88q-6 0-9.5-3.5T75 242v-26q0-5 3.5-8.5T87 204h26q5 0 8.5 3.5t3.5 8.5v25zm0-75q0 6-3.5 9.5T113 179H88q-6 0-9.5-3.5T75 167v-26q0-5 3.5-8.5T87 129h26q5 0 8.5 3.5t3.5 9.5v24zm0-75q0 6-3.5 9.5T113 104H88q-6 0-9.5-3.5T75 91V66q0-5 3.5-8.5T87 54h26q5 0 8.5 3.5T125 67v24zm88 150h-50q-8 0-11-6t0-12q3-6 11-7h50q7 1 10 7t0 12q-3 6-11 6h1zm0-75h-50q-8 0-11-6t0-12q3-6 11-7h50q7 1 10 7t0 12q-3 6-11 7l1-1zm0-75h-50q-8 0-11-6t0-12q3-6 11-7h50q7 1 10 7t0 12q-3 6-11 7l1-1z"/></svg>