<svg viewBox="0 0 300 316" xmlns="http://www.w3.org/2000/svg"><path d="M250 116H75q-21 0-35.5 15T25 167v62q0 21 14.5 35.5T75 279h49l22 19q7 6 16.5 6t16.5-6l23-19h48q21 0 35.5-14.5T300 229v-63q0-20-14.5-35T250 116zm-140 80l-15 12 7 19q1 4-2.5 6.5t-7.5.5l-17-11-17 11q-1 1-3 1t-4-1q-4-3-2-7l6-19-15-12q-4-3-2.5-7t6.5-4h18l7-18q2-5 6-5t6 5l6 18h19q5 0 6.5 4t-2.5 7zm88 0l-15 12 6 19q2 4-2 6.5t-7 .5l-17-11-17 11q-2 1-4 1t-4-1q-3-3-2-7l6-19-15-12q-3-3-1.5-7t5.5-4h19l7-18q1-5 5.5-5t5.5 5l7 18h19q4 0 5.5 4t-1.5 7zm87 0l-15 12 7 19q1 4-2.5 6.5t-7.5.5l-17-11-17 11q-1 1-3 1t-4-1q-4-3-2-7l6-19-15-12q-4-3-2.5-7t6.5-4h18l7-18q2-5 6-5t6 5l6 18h19q5 0 6.5 4t-2.5 7zM63 91q-17 0-31.5 8.5t-23 23Q0 137 0 154V54q0-21 14.5-35.5T50 4h150q21 0 35.5 14.5T250 54v37H63zm112-25h25q5 1 8.5-3t3.5-9h1q0-5-4-9t-9-4h-25q-5 0-8.5 4t-3.5 9q0 5 3.5 9t8.5 3zM50 66h75q5 1 8.5-3t3.5-9h1q0-5-4-9t-9-4H50q-5 0-9 4t-4 9h1q0 5 3.5 8.5T50 66z"/></svg>