<svg viewBox="0 0 300 316" xmlns="http://www.w3.org/2000/svg"><path d="M150 154h-25v-19q0-2 2-4t4-2h19q5 0 9 3.5t4 9q0 5.5-4 9t-9 3.5zm106-50q-18 0-30.5 13T213 148v25q0 18 12.5 30.5T256 216q18 0 31-12.5t13-30.5v56q0 17-8.5 31.5t-23 22.5q-14.5 8-30.5 8H63q-17 0-31.5-8t-23-22.5Q0 246 0 229v-25q0 5 3.5 8.5t9 3.5q5.5 0 9-3.5T25 204v-25h25q15 0 26.5-11T88 141.5Q88 126 76.5 115T50 104H31q-13 0-22 9t-9 22V91q0-16 8.5-30.5t23-23Q46 29 63 29h175q16 0 30.5 8.5t23 23Q300 75 300 91v57q0-18-13-31t-31-13zm-86 69q8-5 13-13.5t5-18.5q0-15-11.5-26T150 104h-19q-13 0-22 9t-9 22v69q0 5 3.5 8.5t9 3.5q5.5 0 9-3.5t3.5-8.5v-25h18l22 32q3 5 10 5 4 0 7.5-2.5t4.5-7.5q1-5-2-9l-16-24h1zM63 141q0-5-4-8.5t-9-3.5H31q-2 0-4 2t-2 4v19h25q5 0 9-3.5t4-9.5zm175 7v25q0 8 5 13t13 5q8 0 13.5-5t5.5-13v-25q0-8-5.5-13.5T256 129q-8 0-13 5.5t-5 13.5z"/></svg>