<svg viewBox="0 0 300 316" xmlns="http://www.w3.org/2000/svg"><path d="M257 156q7-33 4-50-6-25-36-27H125v57l3 3q11 11 15 17 8 11 7 21v21q0 13-9 22t-22 9h-13q-13 0-22-9t-9-22v-21q-1-10 7-21 4-6 15-17l3-3V79H38Q21 79 9.5 91T0 120q8 71 39 135 11 22 32.5 35.5T118 304h27q21 0 40-10t31-28h22q22 1 39-13.5t21.5-36Q303 195 294 179q-11-19-37-23zm-19 85h-9q14-29 22-61 16 3 21 11 3 5 3 13 0 16-11 27t-27 10h1zM113 41V16q0-5 3.5-8.5t9-3.5q5.5 0 9 3.5T138 17v24q0 6-3.5 9.5t-9 3.5q-5.5 0-9-3.5T113 41zm50 0V16q0-5 3.5-8.5t9-3.5q5.5 0 9 3.5T188 16v25q0 6-3.5 9.5t-9 3.5q-5.5 0-9-3.5T163 42v-1zM63 41V16q0-5 3.5-8.5t9-3.5q5.5 0 9 3.5T88 16v25q0 6-3.5 9.5t-9 3.5q-5.5 0-9-3.5T63 42v-1zm37 136q0-4 2-7t7-7l4-4 3 4q5 4 7 7t2 7v21q0 2-2 4t-4 2h-13q-2 0-4-2t-2-4v-21z"/></svg>