<svg viewBox="0 0 300 316" xmlns="http://www.w3.org/2000/svg"><path d="M150 4q-41 0-75.5 20T20 78.5Q0 113 0 154q2 57 33 95 29 35 73 47.5t88 0q44-12.5 73-47.5 31-38 33-95 0-41-20-75.5T225.5 24Q191 4 150 4zM75 154q-4 0-7-2t-4.5-5.5Q62 143 63 139t3-6l16-17-16-16q-3-3-3-8.5t3.5-9Q70 79 75 79t9 4l16 16 16-16q4-4 9-4t8.5 3.5q3.5 3.5 3.5 9t-3 8.5l-16 16 16 17q3 3 3 8.5t-3.5 9Q130 154 125 154t-9-4l-16-16-16 16q-4 4-9 4zm75 100q-16 0-26.5-11T113 216.5q0-15.5 10.5-26.5t26.5-11q16 0 27 11t11 26.5q0 15.5-11 26.5t-27 11zm84-121q3 3 3 8.5t-3.5 9Q230 154 225 154t-9-4l-16-16-16 16q-4 4-9 4t-8.5-3.5q-3.5-3.5-3.5-9t3-8.5l16-17-16-16q-3-3-3-8.5t3.5-9Q170 79 175 79t9 4l16 16 16-16q4-4 9-4t8.5 3.5q3.5 3.5 3.5 9t-3 8.5l-16 16 16 17z"/></svg>