<svg viewBox="0 0 300 316" xmlns="http://www.w3.org/2000/svg"><path d="M212 30q-13-13-28.5-19.5T150 4q-18 0-33.5 6.5T88 30Q71 46 65.5 69t0 45.5Q71 137 88 153l31 31q13 12 31 12t31-12l31-31q12-12 19-28t6.5-33.5q-.5-17.5-7-33.5T212 30zm-62 99q-16 0-26.5-11T113 91.5Q113 76 123.5 65T150 54q16 0 26.5 11t11 26.5Q188 107 177 118t-27 11zm-57 64l-2 11H8l6-33q2-14 10.5-24T45 132q9 22 26 39l22 22zM4 229h84l-11 75H50q-11 0-21-4.5t-17-13q-7-8.5-10-19T1 246l3-17zm185 0l11 75h-97l10-75h76zm103-25h-81l-2-13 21-20q16-17 25-39 12 5 20.5 15t10.5 24l6 33zm-4 82q-7 9-17 13.5t-21 4.5h-25l-10-75h81l3 17q2 11-1 21.5T288 286z"/></svg>