<svg viewBox="0 0 300 316" xmlns="http://www.w3.org/2000/svg"><path d="M75 204h200v38q0 17-11 27t-26 10q-15 0-26-10t-12-27l-50-1q0 16-11 27t-26.5 10.5Q97 278 86 267.5T75 242v-38zm222-67q-4 4-9 4.5t-9-3.5l-4-3v44H72l-12-48-2 1q-19 8-26 9-12 1-23-8-9-9-9-21t9-21l35-46q2-3 6-6V29q0-8 6-11t12.5 0Q75 21 75 29q5 0 13 1v-1q0-8 6-11t12 0q6 3 7 11v16l29 21h71q13 1 25 6.5T259 87l37 33q4 3 4 8t-3 9zM112 44zm13 85q0-8-6.5-11t-12.5 0q-6 3-6 11t6.5 11q6.5 3 12.5 0t6-11zm50 0q0-8-6-11t-12.5 0q-6.5 3-6.5 11t6.5 11q6.5 3 12.5 0t6-11zm50 0q0-8-6.5-11t-12.5 0q-6 3-6 11t6.5 11q6.5 3 12.5 0t6-11z"/></svg>