<svg viewBox="0 0 300 316" xmlns="http://www.w3.org/2000/svg"><path d="M238 41H63q-17 0-31.5 8.5t-23 23Q0 87 0 104v150q0 5 3.5 8.5T13 266h6q5 0 9-3l34-35 35 35q4 3 9 3t9-3l35-35 35 35q4 3 9 3t9-3l35-35 34 35q4 3 9 4h7q5-1 8.5-4.5t3.5-8.5V104q0-17-8.5-31.5t-23-23Q254 41 238 42v-1zM25 104v-1l21 21-21 20v-40zm38 37l26 25-27 27-25-26 26-26zm18-17l26-27 25 26-26 26-25-25zm55-55q0-1 1-2v-1h25l13 14-25 25-25-25 11-11zm14 71l26 26-26 27-26-27 26-26zm18-17l25-26 26 27-25 25-26-26zm69 18l26 26-26 26-26-27 26-25zm17-17l21-21v41l-21-20zm-30-58h13q16 0 27 12l-27 28-27-26 14-14zM62 66h14l13 14-26 26-28-28q12-11 27-12zM25 230v-40l20 20-20 20zm81 6l-26-26 26-26 26 26-26 26zm88 0l-26-26 26-26 26 26-26 26zm61-26l20-20v40l-20-20z"/></svg>