<svg viewBox="0 0 300 316" xmlns="http://www.w3.org/2000/svg"><path d="M296 283l-10-11q2-3 2-6v-12q0-18-12-32t-29-17q3-14 3-26 0-5-1-13h26q5 0 9-3.5t4-8.5q0-5-4-9t-9-4h-32q-5-17-12-37h7q20 0 35-14.5T288 54V41q0-5-4-8.5t-9-3.5q-5 0-8.5 3.5T263 41v13q0 10-7.5 17.5T238 79h-17l-2-5q-9-21-27.5-33T151 29q-22 0-40 11T84 70L21 8q-3-4-8.5-4t-9 3.5Q0 11 0 16.5T4 25l275 275q3 4 8.5 4t9-3.5q3.5-3.5 3.5-9t-4-8.5zM79 133q-5-5-12-3.5t-9 8.5l-1 3H25q-5 0-8.5 4t-3.5 9q0 5 3.5 8.5T25 166h26q-1 8-1 13 0 13 4 26-18 3-29.5 17T13 254v12q0 6 3.5 9.5T25 279q5 0 9-3.5t4-9.5v-12q0-10 7-17.5t18-7.5q14 23 37 36.5t50 13.5q21 0 40-8 6-3 7-9.5t-3-10.5L79 133z"/></svg>