<svg viewBox="0 0 300 316" xmlns="http://www.w3.org/2000/svg"><path d="M281 129h-6v-13q0-16-8.5-30.5t-23-23Q229 54 212 54h-49V29q0-5-4-9t-9-4q-5 0-8.5 4t-3.5 9v25H88q-17 0-31.5 8.5t-23 23Q25 100 25 117v12h-6q-8 0-13.5 5.5T0 148v37q0 8 5.5 13.5T19 204h6v12q0 17 8.5 31.5t23 23Q71 279 87 279h126q16 0 30.5-8.5t23-23Q275 233 275 217v-13h6q8 0 13.5-5.5T300 185v-37q0-8-5.5-13.5T281 129zM88 229H75q-5 0-8.5-3.5t-4-9q-.5-5.5 3.5-9t9-3.5h13q5 0 8.5 3.5t3.5 9q0 5.5-3.5 9T88 229zm6-75q-8 0-13.5-5.5T75 135q0-8 5.5-13.5t13.5-5q8 .5 13.5 5.5t5 13q-.5 8-5.5 13.5T94 154zm69 75h-25q-6 0-9.5-3.5t-3.5-9q0-5.5 3.5-9t8.5-3.5h26q5 0 8.5 3.5t3.5 9q0 5.5-3.5 9T163 229zm25-94q-1-8 4.5-13.5t13.5-5q8 .5 13.5 5.5t5.5 13q0 8-5.5 13.5T206 154q-8 0-13.5-5.5T187 135h1zm37 94h-12q-6 0-9.5-3.5t-3.5-9q0-5.5 3.5-9t8.5-3.5h13q5 0 9 3.5t4 9q0 5.5-4 9t-9 3.5z"/></svg>