<svg viewBox="0 0 300 316" xmlns="http://www.w3.org/2000/svg"><path d="M196 108q5 6 4 14l-33 88q-1 3-3.5 4.5T158 217q-6 0-9-5l-11-37q-2-7-9-9l-35-9q-3-1-4.5-3t-2-5.5Q87 145 89 143t5-4l88-35q8-1 14 4zm104 46q0 41-20 75.5T225.5 284Q191 304 150 304t-75.5-20Q40 264 20 229.5T0 154q0-41 20-75.5T74.5 24Q109 4 150 4t75.5 20Q260 44 280 78.5t20 75.5zm-87-63q-7-8-17.5-10.5T175 80l-91 36q-10 4-16 13.5T62.5 150q.5 11 7 19.5T87 181l29 8 10 31q4 10 12.5 16t19.5 5q11 0 19.5-6t12.5-16l34-90q2-10-.5-20.5T213 91z"/></svg>