<svg viewBox="0 0 300 316" xmlns="http://www.w3.org/2000/svg"><path d="M225 141v25q0 11-7.5 18.5T200 192h-12v-76h12q10 1 17.5 8t7.5 17zm75-50v125q0 17-8.5 31.5t-23 23Q254 279 238 279H63q-17 0-31.5-8.5t-23-23Q0 233 0 217V91q0-16 8.5-30.5t23-23Q46 29 63 29h175q16 0 30.5 8.5t23 23Q300 75 300 92v-1zm-162 13q0-5-4-8.5t-9-4q-5-.5-8.5 3.5t-3.5 9v37H75v-37q0-5-3.5-8.5t-9-4q-5.5-.5-9 3.5t-3.5 9v100q0 5 3.5 8.5t9 3.5q5.5 0 9-3.5T75 204v-38h38v38q0 5 3.5 8.5t8.5 3.5q5 0 8.5-3.5t3.5-8.5V104h1zm112 37q0-20-14.5-35T200 91h-12q-11 1-18.5 8t-7.5 17v75q1 11 8 18.5t17 7.5h13q21-1 35.5-15.5T250 166v-25z"/></svg>