<svg viewBox="0 0 300 316" xmlns="http://www.w3.org/2000/svg"><path d="M150 142h-50v-32q0-8 5.5-13.5T119 92h31q10 0 17.5 7t7.5 17.5q0 10.5-7.5 18T150 142zm26 25h-76v31q0 8 5.5 13.5T119 217h57q10 0 17-7.5t7-18q0-10.5-7-17.5t-17-7zM300 66v175q0 17-8.5 31.5t-23 23Q254 304 238 304H63q-17 0-31.5-8.5t-23-23Q0 258 0 241V66q0-16 8.5-30.5t23-23Q46 4 63 4h175q16 0 30.5 8.5t23 23Q300 50 300 67v-1zm-75 125q0-20-14-35-9-8-19-12 8-12 8-27 0-21-14.5-35.5T150 67h-31q-18 0-31 12.5T75 110v88q0 18 13 31t31 13h57q20 0 34.5-15t14.5-36z"/></svg>