<svg viewBox="0 0 300 316" xmlns="http://www.w3.org/2000/svg"><path d="M299 296q-1 4-4.5 6t-6.5 2q-3 0-5-1l-133-48-133 48q-2 1-5 1t-6.5-2q-3.5-2-5-6.5t.5-9q2-4.5 7-6.5l105-38L8 203q-5-1-7-6t0-9.5q2-4.5 6.5-7t9.5-.5l133 48 133-48q5-2 9.5.5t6.5 7q2 4.5 0 9.5t-7 6l-105 39 105 38q5 2 7 6.5t0 9.5zM63 116V94q0-22 9.5-41.5t27-32.5Q117 7 139 5q18-3 36.5 2.5t32.5 18q14 12.5 22 30t8 35.5v25q-1 16-11.5 27T200 154q0 16-11 26.5T163 191h-25q-16 0-27-10.5T100 154q-16 0-27-11t-11-26l1-1zm100-18q0 8 5 13.5t13 5.5q8 0 13.5-5.5T200 98q0-8-5.5-13.5T181 79q-8 0-13.5 5.5T162 98h1zm-63 0q0 8 5.5 13.5T119 117q8 0 13.5-5.5t5-13.5q-.5-8-5.5-13.5T119 79q-8 0-13.5 5.5T100 98z"/></svg>