<svg viewBox="0 0 300 316" xmlns="http://www.w3.org/2000/svg"><path d="M276 304H138q-8 0-14-4t-9-11q-3-7-1.5-14t6.5-12q10-12 15.5-22.5T139 222q-2-11 0-23 3-21 18-36.5t35-19.5q15-3 29 0 21 4 35.5 19.5T275 199q2 12 0 23-2 8 3 19t15 21q5 6 6.5 13t-1.5 14q-3 7-9 11t-13 4zM88 279q0-19 14-33 6-7 9-12.5t3-7.5q-2-15 0-31 5-31 29-53H34q-8-1-14 3t-9 10Q0 178 0 202.5T12 268q5 16 18.5 26T61 304h34q-1-2-4-11.5T88 279zM55 116h115q-5-8-7-17-3-11-1-25 1-9 0-16-3-15-13.5-26T123 18q-5-1-10-1-6 0-11 1-14 3-25 14T64 58q-1 7 0 16 1 14-1 25-2 9-8 18v-1z"/></svg>