<svg viewBox="0 0 300 316" xmlns="http://www.w3.org/2000/svg"><path d="M295 59q5-8 5-18t-5-18.5Q290 14 281 9t-19-5q-5 0-15 4-7 2-11 3-5 1-10-1-50-10-88-3-49 9-90 45-36 41-45 90-7 38 3 88 2 5 1 10-1 4-3 11-4 10-4 15 0 10 5 19t13.5 14q8.5 5 18.5 5t18.5-4.5Q64 295 74 298q50 10 88 3 49-9 90-45 37-42 45-90 7-38-3-88-3-10 1-19zm-107 82q-6 0-9.5-3.5T175 129q0-5 3.5-9t9-4q5.5 0 9 4t3.5 9q0 5-3.5 9t-8.5 4v-1zm25 38q-6 0-9.5-3.5t-3.5-9q0-5.5 3.5-9t9-3.5q5.5 0 9 3.5t3.5 9q0 5.5-3.5 9T213 179zm25-38q-6 0-9.5-3.5T225 129q0-5 3.5-9t9-3.5q5.5.5 9 4t3.5 8.5q0 5-3.5 9t-9.5 4l1-1z"/></svg>