<svg viewBox="0 0 300 316" xmlns="http://www.w3.org/2000/svg"><path d="M75 35q0-13 9-22t22-9q13 0 22.5 9t9.5 22q0 13-9.5 22T106 66q-13 0-22-9t-9-22zm219 267q-3 2-6 2-8 0-11-6l-62-111-47-35-3-4-18-27q-4-6-9-10l-1 95 20 13q3 1 4 4l34 63q2 4 .5 9t-5 7q-3.5 2-6.5 2-8 0-11-7l-32-59-43-28q-11-7-17-18t-6-24v-51l-3 5-41 64q-2 4-7.5 5t-9.5-1.5q-4-2.5-5.5-7.5t1.5-10l41-64q8-13 22-21t31-8h12q15 0 29 7.5t23 20.5l16 26 49 36q2 2 3 4l63 112q2 5 .5 10t-5.5 7zM85 229q-5-1-9 2t-5 8l-8 50q-1 6 2 10t8 5h2q5 0 8.5-3t4.5-8l8-50q0-5-3-9t-8-5z"/></svg>