<svg viewBox="0 0 300 316" xmlns="http://www.w3.org/2000/svg"><path d="M275 145q-3-34-22.5-63.5t-51.5-47Q169 17 134 16q-3-5-9-8.5T112 4H88Q67 4 52.5 18.5T37 54v12h26q5 1 8.5 4.5T75 79q0 5-3.5 9T62 92H38v24h25q5 1 8.5 4.5T75 129q0 5-3.5 9t-9.5 4H38v24h25q5 0 8.5 4t3.5 9q0 5-3.5 8.5T62 191H38v25h25q5 0 8.5 4t3.5 9q0 5-3.5 8.5T62 241H38v13q0 21 14.5 35.5T88 304h25q6 0 12-3.5t9-9.5h4q28 0 54-11t45.5-32q19.5-21 29.5-48t8-55zm-138 59q-5 0-8.5-4t-3.5-8v-76q0-5 3.5-8.5t8.5-3.5q11 0 20.5 4.5t17 12Q182 128 185 138t2 21q-2 19-16.5 32T137 204z"/></svg>