<svg viewBox="0 0 300 316" xmlns="http://www.w3.org/2000/svg"><path d="M169 285q0 8-5.5 13.5T150 304q-8 0-13.5-5.5T131 285q0-8 5.5-13.5T150 266q8 0 13.5 5.5T169 285zm44-19q-8 0-13.5 5.5T194 285q0 8 5.5 13.5t13 5.5q7.5 0 13-5.5T231 285q0-8-5.5-13.5T213 266zm62 0q-8 0-13.5 5.5T256 285q0 8 5.5 13.5T275 304q8 0 13.5-5.5T294 285q0-8-5.5-13.5T275 266zm-187 0q-8 0-13.5 5.5T69 285q0 8 5.5 13.5t13 5.5q7.5 0 13-5.5T106 285q0-8-5.5-13.5T88 266zm-63 0q-8 0-13.5 5.5T6 285q0 8 5.5 13.5T25 304q8 0 13.5-5.5T44 285q0-8-5.5-13.5T25 266zM177 15Q166 4 150 4t-26 11L66 70q-3 4-3.5 9t3.5 8.5q4 3.5 9 4t9-3.5l54-52v193q0 5 3.5 8.5t8.5 3.5q5 0 9-3.5t4-8.5V36l53 52q4 4 9 4t9-4q4-4 3.5-9t-3.5-9l-57-55z"/></svg>