<svg viewBox="0 0 300 316" xmlns="http://www.w3.org/2000/svg"><path d="M150 4q-41 0-75.5 20T20 78.5Q0 113 0 154t20 75.5Q40 264 74.5 284t75.5 20q41 0 75.5-20t54.5-54.5q20-34.5 20-75.5t-20-75.5Q260 44 225.5 24T150 4zM63 141q-1-18 10-34t27-16q16 0 27 16t11 35q0 5-4 8.5t-9 3.5q-5 0-8.5-3.5T113 141q0-9-5-16.5t-8-8q-3-.5-7.5 7.5T88 141q0 6-4 9.5t-9 3.5q-5 0-8.5-3.5T63 141zm158 121q-9 5-19 5t-20-6.5q-10-6.5-15-15.5l-10-16h-7q-24 0-49-14-13-7-22-14-4-4-4-9t3.5-9q3.5-4 8.5-4t9 3q6 5 16 11 20 11 38 11t36-10q9-4 15-9 5-4 10.5-3t8.5 6l11 18q8 14 6 30.5T221 262zm4-108q-5 0-8.5-3.5T213 141q0-9-5-16.5t-8-8q-3-.5-8 7.5t-5 17q1 6-3 9.5t-9 3.5q-5 0-8.5-3.5T163 141q0-18 10.5-33.5t26.5-16q16-.5 27 15.5t11 35q0 5-4 8.5t-9 3.5zm-16 65q4 5 3.5 11.5t-5 9.5q-4.5 3-10.5 0t-9-8l-5-9q12-4 23-11l3 7z"/></svg>