<svg viewBox="0 0 300 316" xmlns="http://www.w3.org/2000/svg"><path d="M299 276q-9 18-28 25t-38-2L7 190q-4-2-5.5-7t.5-9.5q2-4.5 6.5-6t9.5.5l226 108q9 5 18.5 1.5T276 265q3-5 7.5-6.5t9 1q4.5 2.5 6.5 7t0 9.5zM200 35q0-13 9-22t22-9q13 0 22 9t9.5 22q.5 13-9 22T231 66q-13 0-22-9t-9-22zM38 66q0-5 3.5-8.5T50 54h99q18 0 34 10l18 12q11 11 11.5 26t-9.5 27l-33 50h22q14 0 24 8.5t13 21.5l4 17q1 5-2 9.5t-8 5.5h-3q-4 0-7.5-2.5T208 232l-3-18q-1-4-4.5-7t-8.5-3h-54q-11 0-20.5-6t-14-16q-4.5-10-3-20.5T109 142l41-63H50q-5 0-8.5-3.5T38 67v-1z"/></svg>