<svg viewBox="0 0 300 316" xmlns="http://www.w3.org/2000/svg"><path d="M250 79h25q10 0 17.5-7.5T300 54V29q0-10-7.5-17.5T275 4h-25q-10 0-17.5 7.5T225 29H75q0-10-7.5-17.5T50 4H25Q15 4 7.5 11.5T0 29v25q0 10 7.5 17.5T25 79v150q-10 0-17.5 7.5T0 254v25q0 10 7.5 17.5T25 304h25q10 0 17.5-7.5T75 279h150q0 10 7.5 17.5T250 304h25q10 0 17.5-7.5T300 279v-25q0-10-7.5-17.5T275 229h-25q-3 0-6 1l-46-54q2-4 2-9v-26q0-5-2-9l46-54q3 1 6 1zM75 254q0-10-7.5-17.5T50 229V79q10 0 17.5-7.5T75 54h150q0 3 1 7l-48 56-28-1q-10 1-17.5 8t-7.5 17v25q0 11 7.5 18.5T150 192l28-1 48 56q-1 4-1 7H75z"/></svg>