<svg viewBox="0 0 300 316" xmlns="http://www.w3.org/2000/svg"><path d="M238 304h-13q-5 0-9-3.5t-4-9q0-5.5 4-9t9-3.5h13q15 0 26-11t11-27v-12q0-5 3.5-8.5t9-4q5.5-.5 9 3.5t3.5 9v12q0 17-8.5 31.5t-23 23Q254 304 237 304h1zm62-225V66q0-16-8.5-30.5t-23-23Q254 4 237 4h-12q-5 0-8.5 3.5t-3.5 9q0 5.5 3.5 9T225 29h13q15 0 26 11t11 27v12q0 5 3.5 8.5t9 3.5q5.5 0 9-3.5T300 79zM88 291q0-5-4-8.5t-9-3.5H63q-16 0-27-11t-11-26v-13q0-5-3.5-8.5t-9-4q-5.5-.5-9 3.5T0 229v12q0 17 8.5 31.5t23 23Q46 304 62 304h13q5 0 8.5-3.5T87 291h1zM25 79V66q0-15 11-26t26-11h13q5 0 8.5-3.5t4-9q.5-5.5-3.5-9T75 4H63q-17 0-31.5 8.5t-23 23Q0 50 0 66v13q0 5 3.5 8.5t9 4q5.5.5 9-3.5t3.5-9zm175 75q0-21-14.5-35.5T150 104q-21 0-35.5 14.5T100 154q0 21 14.5 35.5T150 204q21 0 35.5-14.5T200 154z"/></svg>