<svg viewBox="0 0 300 316" xmlns="http://www.w3.org/2000/svg"><path d="M102 179q19 0 33 12h30q14-12 33-12h64q6 0 13 1v-76q0-17-8.5-31.5t-23-22.5Q229 42 212 42H88q-17-1-31.5 7.5t-23 23Q25 87 25 104v76q7-1 13-1h64zm11-75h25V79q-1-5 3-9t9-3.5q5 .5 8.5 4T162 79v25h26q5 0 8.5 3.5t3.5 9q0 5.5-3.5 9T187 129h-24v25q0 5-4 8.5t-9 3.5q-5 0-8.5-3.5T138 154v-25h-25q-6 0-9.5-3.5t-3.5-9q0-5.5 3.5-9t8.5-3.5h1zm187 131q0 13-9 22t-22 9H31q-13 0-22-9t-9-22q0-13 9-22t22-9h71q11 0 19 9l3 3h52l3-3q8-9 19-9h71q13 0 22 9t9 22z"/></svg>