<svg viewBox="0 0 300 316" xmlns="http://www.w3.org/2000/svg"><path d="M182 26l12-3 3-12q2-5 5.5-6.5t7.5 0q4 1.5 5 6.5l4 12 12 3q4 2 5.5 5.5t0 7.5q-1.5 4-5.5 5l-12 4-4 12q-1 4-5 5.5t-7.5 0Q199 64 197 60l-3-12-12-4q-5-1-6.5-5t0-7.5Q177 28 182 26zm62 56l12 3 4 12q1 5 5 6.5t7.5 0Q276 102 278 97l3-12 12-3q5-2 6.5-5.5t0-7.5q-1.5-4-6.5-5l-12-4-3-12q-2-4-5.5-5.5t-7.5 0q-4 1.5-5 5.5l-4 12-12 4q-4 1-5.5 5t0 7.5Q240 80 244 82zm-12 75l12 3 3 12q2 5 5.5 6.5t7.5 0q4-1.5 5-6.5l4-12 12-3q4-2 5.5-5.5t0-7.5q-1.5-4-5.5-5l-12-4-4-12q-1-4-5-5.5t-7.5 0Q249 119 247 123l-3 12-12 4q-5 1-6.5 5t0 7.5q1.5 3.5 6.5 5.5zm-107 47q0 10-7.5 17.5T100 229q-10 0-17.5-7.5T75 204q0-10 7.5-17.5T100 179q10 0 17.5 7.5T125 204zm75-37v75q0 16-8.5 30.5t-23 23Q154 304 137 304H63q-17 0-31.5-8.5t-23-23Q0 258 0 242v-75q0-17 8.5-31.5t23-23Q46 104 63 104h75q16 0 30.5 8.5t23 23Q200 150 200 167zm-50 37q0-21-14.5-35.5T100 154q-21 0-35.5 14.5T50 204q0 21 14.5 35.5T100 254q21 0 35.5-14.5T150 204zM50 80V41q0-15 11-26T87 4h26q15 0 26 11t11 27v38q-6-1-12-1H63q-7 0-13 1z"/></svg>