<svg viewBox="0 0 300 316" xmlns="http://www.w3.org/2000/svg"><path d="M275 266q0 16-11 27t-27 11H88q-17 0-31.5-8.5t-23-23Q25 258 25 241v-12h213q15 0 26 11t11 27v-1zm0-200v151q-13-10-30-12-4-1-7-1H25V66q0-16 8.5-30.5t23-23Q71 4 87 4h126q17 0 31 8.5T266.5 35q8.5 14 8.5 31zm-120 91q-14-8-22-21.5t-8-31.5q0-18 8-31.5T155 51q3-2 2-5.5t-4-3.5q-6-1-12 0-15 1-27.5 10T94 75q-7 14-7 29t7 29q7 14 19.5 23t27.5 10q6 1 10.5.5t5.5-4q1-3.5-2-5.5zm58-62q0-2-1-2.5t-2-.5h-20l-6-22q0-2-3-2t-3 2l-6 21h-20q-1 0-2 1t-1 2.5q0 1.5 1 2.5l17 9-7 20q0 2 1.5 3.5t3.5-.5l16-12 15 12q2 2 4 .5t2-3.5l-7-19 16-10q2-1 2-2z"/></svg>