<svg viewBox="0 0 300 316" xmlns="http://www.w3.org/2000/svg"><path d="M250 4H50Q29 4 14.5 18.5T0 54v150q0 21 14.5 35.5T50 254h37l46 39q8 7 17.5 7t15.5-6l48-40h36q21 0 35.5-14.5T300 204V54q0-21-14.5-35.5T250 4zm-56 75q8 0 13.5 5.5T213 98q0 8-5.5 13t-13.5 5q-8 0-13.5-5T175 98q0-8 5.5-13.5T194 79zm-88 0q8 0 13.5 5.5T125 98q0 8-5.5 13t-13.5 5q-8 0-13-5t-5-13q0-8 5-13.5t13-5.5zm115 84q-8 8-21 15-26 13-50 13t-48-12q-13-7-23-15v-1q-4-3-4-8t3.5-9q3.5-4 8.5-4.5t9 3.5q4 4 16 11 20 11 38 11t38-11q12-7 16-11t9-3.5q5 .5 8.5 4.5t3.5 9q0 5-4 8z"/></svg>