<svg viewBox="0 0 300.0022 316" xmlns="http://www.w3.org/2000/svg"><path d="M290 142q-5-1-9 1.5t-6 7.5l-10 46-19-140q0-7-5-11t-12-4q-7 0-12 4t-6 11l-21 169-22-206q-1-7-6-11.5T150 4q-7 0-12 4.5T132 20l-22 206L89 57q-1-7-6-11t-12-4.5q-7-.5-12 4T54 57L35 197l-10-46q-2-5-6-7.5t-9-1.5q-5 1-8 5.5T0 157l20 83q1 7 6.5 10.5t12 3.5q6.5 0 11-4.5T55 239l16-123 22 172q0 7 5.5 11.5T110 304h1q7 0 12-4.5t5-11.5l22-199 22 199q0 7 5 11.5t12 4.5h1q6 0 11.5-4.5T207 288l22-172 16 123q1 6 5.5 10.5t11 5q6.5.5 12-3.5t6.5-10l20-84q1-5-2-9.5t-8-5.5z"/></svg>