<svg viewBox="0 0 300 316" xmlns="http://www.w3.org/2000/svg"><path d="M250 66q0-5-3.5-8.5T238 54H63q-6 0-9.5 3.5T50 66v175q0 17 8.5 31.5t23 23Q96 304 113 304h75q16 0 30.5-8.5t23-23Q250 258 250 241V66zM106 266q-8 0-13-5t-5-13q0-8 5-13.5t13-5.5q8 0 13.5 5.5T125 248q0 8-5.5 13t-13.5 5zm-6-112q0-21 14.5-35.5T150 104q21 0 35.5 14.5T200 154q0 21-14.5 35.5T150 204q-21 0-35.5-14.5T100 154zm94 112q-8 0-13.5-5t-5.5-13q0-8 5.5-13.5T194 229q8 0 13.5 5.5T213 248q0 8-5.5 13t-13.5 5zm-19-112q0 10-7.5 17.5T150 179q-10 0-17.5-7.5T125 154q0-10 7.5-17.5T150 129q10 0 17.5 7.5T175 154zM300 54v12q0 14-7 25.5T275 109V54q0-10-7.5-17.5T250 29H50q-10 0-17.5 7.5T25 54v55q-11-6-18-17.5T0 66V54q0-21 14.5-35.5T50 4h200q21 0 35.5 14.5T300 54z"/></svg>