<svg viewBox="0 0 300 316" xmlns="http://www.w3.org/2000/svg"><path d="M119 241q13 0 22 9.5t9 22.5q0 13-9 22t-22 9q-13 0-22-9t-9-22q0-13 9-22.5t22-9.5zm119 32q0 13 9 22t22 9q13 0 22-9t9-22q0-13-9-22.5t-22-9.5q-13 0-22.5 9.5T237 273h1zm62-44q0-5-3.5-9t-8.5-4H113q-16 0-27-10.5T75 179V66q0-16-8.5-30.5t-23-23Q29 4 13 4 7 4 3.5 7.5t-3.5 9q0 5.5 3.5 9T13 29q15 0 26 11t11 27v112q0 17 8.5 31.5t23 22.5q14.5 8 30.5 8h176q5 0 8.5-3.5t3.5-8.5zm-62-38h-75V35q0-13 9-22t22-9h12q13 0 22.5 9t9.5 22v156zM213 35q0-2-2-4t-5-2h-12q-3 0-5 2t-1 4v19h25V35zm50 19v137q15 0 26-10.5t11-26.5V91q0-15-11-26t-27-11h1zM138 191V54q-16 0-27 11t-11 27v62q0 16 11 26.5t26 10.5h1z"/></svg>