<svg viewBox="0 0 300 316" xmlns="http://www.w3.org/2000/svg"><path d="M288 116q-6 1-9.5 4.5T275 129q0 5-3.5 9t-9.5 4h-74q-6-1-9.5-4.5T175 129v-25q0-12 13-13h2q13 13 29 13 10 0 19-4.5t15-12q6-7.5 8.5-17.5t0-20q-2.5-10-10-18.5T233 19q-11-4-24-1-12-11-28.5-13T150 11q-14-8-30.5-6T91 18q-13-3-24 1T48.5 31.5Q41 40 38.5 50t0 20Q41 80 47 87.5t15 12q9 4.5 19 4.5 16 0 29-12h2q13 0 13 12v25q0 5-3.5 9t-8.5 4H38q-6 0-9.5-4t-3.5-9q0-5-3.5-8.5t-9-3.5q-5.5 0-9 3.5T0 129v21q0 38 17.5 72T66 278q31 22 70 25 43 4 81-15t60.5-55q22.5-36 22.5-79v-25q0-5-3.5-8.5T288 117v-1zM88 185q0-8 5-13.5t13-5q8 .5 13.5 5.5t5.5 13q0 8-5.5 13.5T106 204q-8 0-13.5-5.5T87 185h1zm92 69h-60q-4 0-6-3t-1-7q4-11 14-19.5t23-8.5q13 0 23 8.5t14 19.5q1 4-1 7t-6 3zm14-50q-8 0-13.5-5.5T175 185q0-8 5.5-13.5T194 166q8 0 13 5.5t5.5 13.5q.5 8-5 13.5T194 204z"/></svg>