<svg viewBox="0 0 300 316" xmlns="http://www.w3.org/2000/svg"><path d="M288 164q3 8 3 15 0 13-7 24t-18 17q-1 14-8.5 25.5T238 263v16q0 10-7.5 17.5t-18 7.5q-10.5 0-17.5-7.5t-7-17.5v-3q-9 3-16 3-15 0-27-8-12 8-26 8l-7-1v1q1 10-6.5 17.5t-18 7.5Q77 304 70 296.5T63 279v-13q-16-4-27-16.5T25 220q-11-6-18-17t-7-24q0-13 7-24t18-17q0-20 14-33.5T72 91q7 0 13 2 14-14 34-14 14 0 26 8l5 4v34q0 30 20.5 48t54.5 18q21 0 37-7t26-20zm11-99q-8 12-24 16v44q0 19-13.5 30.5t-36.5 11q-23-.5-36.5-11.5T175 125V81q-16-4-24-16-2-4-.5-8t6.5-6q13-3 31-5 4-4 8-7-7-10-21-10-5 0-9-3.5t-4-9q0-5.5 4-9t9-3.5q16 0 27 7t17 19l6-1 6 1q6-12 17-19t27-7q5 0 8.5 3.5t3.5 9q0 5.5-3.5 9T275 29q-14 0-21 10 4 3 8 7 18 2 31 5 5 2 6.5 6t-.5 8z"/></svg>