<svg viewBox="0 0 300 316" xmlns="http://www.w3.org/2000/svg"><path d="M200 29h-2q-4-11-13.5-18T163 4h-25q-13 0-22.5 7T102 29h-2q-17 0-31.5 8.5T46 60.5Q38 75 38 92v149q0 17 8 31.5t22.5 23Q83 304 100 304h100q17 0 31.5-8.5t23-23Q263 258 262 241V91q0-16-8-30.5t-22.5-23Q217 29 200 29zM88 229q-6 0-9.5-3.5t-3.5-9q0-5.5 3.5-9t9-3.5q5.5 0 9 3.5t3.5 9q0 5.5-3.5 9T88 229zm125 0h-75q-6 0-9.5-3.5t-3.5-9q0-5.5 3.5-9t8.5-3.5h76q5 0 8.5 3.5t3.5 9q0 5.5-3.5 9T212 229h1zM88 179q-6 0-9.5-3.5t-3.5-9q0-5.5 3.5-9t9-3.5q5.5 0 9 3.5t3.5 9q0 5.5-3.5 9T88 179zm125 0h-75q-6 0-9.5-3.5t-3.5-9q0-5.5 3.5-9t8.5-3.5h76q5 0 8.5 3.5t3.5 9q0 5.5-3.5 9T212 179h1zM88 129q-6 0-9.5-3.5t-3.5-9q0-5.5 3.5-9t9-3.5q5.5 0 9 3.5t3.5 9q0 5.5-3.5 9T88 129zm125 0h-75q-6 0-9.5-3.5t-3.5-9q0-5.5 3.5-9t8.5-3.5h76q5 0 8.5 3.5t3.5 9q0 5.5-3.5 9T212 129h1z"/></svg>