<svg viewBox="0 0 300 316" xmlns="http://www.w3.org/2000/svg"><path d="M200 116V91H100v25q-17 1-31.5 9T46 147.5Q38 162 37 179v62q1 17 9 31.5t22.5 23Q83 304 100 304h100q17 0 31.5-8.5t22.5-23q8-14.5 9-31.5v-62q-1-17-9-31.5T231.5 125q-14.5-8-31.5-8v-1zm-12 100h-25v25q0 6-4 9.5t-9 3.5q-5 0-9-3.5t-4-9.5v-25h-24q-6 0-9.5-3.5T100 204q0-5 3.5-8.5t9.5-3.5h25v-26q0-5 3.5-8.5t8.5-3.5q5 0 9 3.5t4 8.5v25h25q5 0 8.5 4t3.5 9q0 5-3.5 8.5T188 216zm6-150h-88q-13 0-22-9t-9-22q0-13 9-22t22-9h88q13 0 22 9t9 22q0 13-9 22t-22 9z"/></svg>