<svg viewBox="0 0 300 316" xmlns="http://www.w3.org/2000/svg"><path d="M300 91H0q0-16 8.5-30.5t23-23Q46 29 63 29h175q16 0 30.5 8.5t23 23Q300 75 300 92v-1zm0 25v100q0 17-8.5 31.5t-23 23Q254 279 238 279H63q-17 0-31.5-8.5t-23-23Q0 233 0 217V116h63v88q0 10 7 17.5t18 7.5h50q5 0 8.5-3.5t3.5-9q0-5.5-3.5-9T138 204H88v-25h25q5 0 8.5-3.5t3.5-9q0-5.5-3.5-9T112 154H88v-38h212zm-137 63h25q5 0 8.5-3.5t3.5-9q0-5.5-3.5-9T188 154h-25q-6 0-9.5 3.5t-3.5 9q0 5.5 3.5 9t8.5 3.5h1zm62 37q0-5-3.5-8.5T213 204h-25q-6 0-9.5 3.5t-3.5 9q0 5.5 3.5 9t8.5 3.5h26q5 0 8.5-3.5t3.5-9.5z"/></svg>