<svg viewBox="0 0 300 316" xmlns="http://www.w3.org/2000/svg"><path d="M300 191q0 12-8 21l-26 26q-4 3-9 3.5t-9-3.5q-4-4-4-9t4-9l16-16h-76q-6 0-9.5-3.5t-3.5-9q0-5.5 3.5-9t8.5-3.5h77l-16-16q-4-4-4-9t4-9q4-4 9-4t9 4l26 26q8 9 8 21v-1zm-125-50V79q0-10-7.5-17.5T150 54v225h13q5 0 8.5-3.5t3.5-9.5v-25q0-5 3.5-8.5t9-3.5q5.5 0 9 3.5t3.5 8.5v25q0 16-11 27t-26 11H38q-16 0-27-11T0 266V74q0-22 14-39.5T50 13l40-8q11-2 22 .5t20 9.5q6 6 11 14h7q21 0 35.5 14.5T200 79v62q0 6-3.5 9.5t-9 3.5q-5.5 0-9-3.5T175 142v-1zm-62 19q-1-8-6-13.5T94 141q-8 0-13.5 5.5T75 160q0 8 5.5 13.5T94 179q8 0 13.5-5.5T113 160z"/></svg>