<svg viewBox="0 0 300 316" xmlns="http://www.w3.org/2000/svg"><path d="M150 4q-41 0-75.5 20T20 78.5Q0 113 0 154q2 57 33 95 29 35 73 47.5t88 0q44-12.5 73-47.5 31-38 33-95 0-41-20-75.5T225.5 24Q191 4 150 4zm44 87q8 1 13 10t5 21.5q0 12.5-5 22t-13.5 9.5q-8.5 0-13.5-9.5t-5-22q0-12.5 5-21.5t14-10zm-88 0q9 1 14 10t5 21.5q0 12.5-5 22t-13.5 9.5q-8.5 0-13.5-9.5t-5-22q0-12.5 5-21.5t13-10zm117 107q-11 20-30.5 31.5T150 241q-23 0-42.5-11.5T77 198q-2-3-2-6.5t2-7q2-3.5 5.5-4.5t7.5-1q29 11 60 12 31-1 60-12 4 0 7.5 1t5.5 4.5q2 3.5 2 7t-2 6.5z"/></svg>