<svg viewBox="0 0 300 316" xmlns="http://www.w3.org/2000/svg"><path d="M288 304H63q-17 0-31.5-8.5t-23-23Q0 258 0 241V16q0-5 3.5-8.5t9-3.5q5.5 0 9 3.5T25 16v225q0 16 11 27t27 11h225q5 0 8.5 3.5t3.5 9q0 5.5-3.5 9T288 304zm12-88q0-5-3.5-8.5T288 204h-75q-6 0-9.5 3.5t-3.5 9q0 5.5 3.5 9t9.5 3.5h75q5 0 8.5-3.5t3.5-9.5zm-50-75q0-5-3.5-8.5T238 129H125q-5 0-8.5 3.5t-3.5 9q0 5.5 3.5 9t8.5 3.5h113q5 0 8.5-3.5t3.5-9.5zm-87-75q0-5-4-8.5t-9-3.5H75q-5 0-8.5 3.5t-3.5 9q0 5.5 3.5 9T75 79h75q5 0 9-3.5t4-9.5z"/></svg>