<svg viewBox="0 0 300 316" xmlns="http://www.w3.org/2000/svg"><path d="M150 4q-28 0-53.5 10T50 42V16q0-5-3.5-8.5t-9-3.5q-5.5 0-9 3.5T25 16v38q0 16 11 26.5T62 91h38q5 0 8.5-3.5t4-8.5q.5-5-3.5-9t-9-4H61q21-21 48.5-30t56-5.5q28.5 3.5 53 20t39 41.5q14.5 25 16.5 54t-9 56q-11 27-33 46t-50 26.5q-28 7.5-56.5 2T74 253q-23-18-36-44t-13-55q0-5-3.5-8.5t-9-3.5q-5.5 0-9 3.5T0 154q0 41 20 75.5T74.5 284q34.5 20 75.5 20t75.5-20q34.5-20 54.5-54.5t20-75.5q0-41-20-75.5T225.5 24Q191 4 150 4zm0 75q-5 0-9 3.5t-4 8.5v63q1 5 4 9l38 37q3 4 8.5 4t9-3.5q3.5-3.5 3.5-9t-4-8.5l-33-34V91q0-5-4-8.5t-9-3.5z"/></svg>