<svg viewBox="0 0 300 316" xmlns="http://www.w3.org/2000/svg"><path d="M288 129q5 0 8.5-3.5t3.5-8.5v-13q0-17-8.5-31.5t-23-23Q254 41 237 41H75v25q0 6-3.5 9.5t-9 3.5q-5.5 0-9-3.5T50 66V43q-22 4-36 21.5T0 104v100q0 22 14 39.5T50 265v-24q0-5 3.5-8.5t9-3.5q5.5 0 9 3.5T75 242v24h163q16 0 30.5-8t23-22.5Q300 221 300 204v-13q0-5-3.5-8.5T288 179q-11 0-18-7.5t-7-17.5q0-10 7-17.5t18-7.5zM75 191q0 6-3.5 9.5t-9 3.5q-5.5 0-9-3.5T50 191v-12q0-5 3.5-9t9-4q5.5 0 9 4t3.5 9v12zm0-62q0 5-3.5 9t-9 3.5q-5.5-.5-9-4T50 129v-13q0-5 3.5-8.5t9-3.5q5.5 0 9 3.5T75 116v13zm138 37h-19l-24 31q-4 7-12 7h-4q-4 0-6-3t-1-6l11-29h-16q-9 0-15-6l-13-16q-3-5 0-10t7.5-5q4.5 0 7.5 3l14 9h16l-12-28q-1-3 1-6t6-3h3q9 0 13 7l24 30h18q6 0 9.5 4t3.5 9q0 5-3.5 8.5T212 166h1z"/></svg>