<svg viewBox="0 0 300 316" xmlns="http://www.w3.org/2000/svg"><path d="M113 104h25v62H75v-25q0-15 11-26t26-11h1zm112 62v-25q0-15-11-26t-26-11h-25v62h62zm-19 138l-23-38h-66l-22 38h111zM150 4q-41 0-75.5 20T20 78.5Q0 113 0 154v137q0 6 3.5 9.5T13 304h52l24-39q-17-4-28-17.5T50 216v-75q0-16 8.5-30.5t23-23Q96 79 112 79h76q16 0 30.5 8.5t23 23Q250 125 250 142v74q0 18-11 31.5T211 265l24 39h53q5 0 8.5-3.5t3.5-9.5V154q0-41-20-75.5T225.5 24Q191 4 150 4zm-50 237h100q10 0 17.5-7t7.5-18v-25h-25v13q0 5-3.5 8.5t-9 3.5q-5.5 0-9-3.5T175 204v-13h-50v13q0 5-3.5 8.5t-9 3.5q-5.5 0-9-3.5T100 204v-13H75v25q0 11 7.5 18.5T100 241z"/></svg>