<svg viewBox="0 0 300 316" xmlns="http://www.w3.org/2000/svg"><path d="M213 141q0-16-8.5-30.5t-23-23Q167 79 150 79t-31.5 8.5Q104 96 96 110.5t-8 31q0 16.5 8 31t22.5 23Q133 204 150 204t31.5-8.5q14.5-8.5 22.5-23t8-30.5l1-1zm-63 88q-29 0-53 16t-34 42q-2 6 1.5 11.5T75 304h150q7 0 10.5-5.5T237 287q-10-26-34-42t-53-16zm115-12q-3 4-8 5.5t-9-1.5l-16-11q-7-4-8.5-11t2.5-14q15-25 11-54.5t-25.5-51Q190 58 160 55q-19-3-36.5 3T92 76.5Q78 89 70 106t-8 36q0 23 12 43 4 7 2.5 14T68 210l-16 11q-3 2-6 2-7 0-10.5-5T33 208q1-5 6-8l11-7q-13-24-13-51t13-51l-11-8q-5-3-6-8t2-9q3-4 8-5.5t9 1.5l12 8q6-7 11-12 27-24 62-28V16q0-5 4-8.5t9-3.5q5 0 8.5 3.5T162 17l1 13q22 2 41 12.5T236 70l11-8q5-3 10-1.5t8 5.5q3 4 2 9t-6 8l-11 7q9 18 12 37 4 35-12 66l11 7q5 3 6 8t-2 9z"/></svg>