<svg viewBox="0 0 300 316" xmlns="http://www.w3.org/2000/svg"><path d="M100 91v25H50V91h50zm100 38v25h94q-2-6-5-11l-23-39h-41q-10 0-17.5 7.5T200 129zm0 50v62h88q5 0 8.5-3.5t3.5-8.5v-50H200zm-25 62H50q-5 0-9-3l-15-16q-13-12-19.5-28T0 160V79q0-17 8.5-31.5t23-22.5Q46 17 62 16h201q15 0 26 11t11 27v12q0 6-3.5 9.5T288 79h-63q-21 0-35.5 14.5T175 129v112zm-50-125V91q0-10-7.5-17T100 67H50q-10-1-17.5 6.5T25 92v24q0 11 7.5 18t17.5 7h50q10 0 17.5-7t7.5-18zM51 266q-3 18 6.5 28T81 304q14 0 23.5-10t7.5-28H51zm150 0q-3 18 6.5 28t23.5 10q14 0 23.5-10t7.5-28h-61z"/></svg>