<svg viewBox="0 0 300 316" xmlns="http://www.w3.org/2000/svg"><path d="M296 283l-13-14-22-21 35-35q4-4 4-9t-4-9q-2-2-4-3l-112-40q-10-4-19.5.5t-13 13.5q-3.5 9 .5 18l40 112q3 6 9 8h3q5 0 9-4l35-35 35 35q4 4 9 4t8.5-3.5q3.5-3.5 3.5-9t-4-8.5zm-171-29q-34 0-62.5-17T17 191.5Q0 163 0 129t17-62.5Q34 38 62.5 21T125 4q34 0 62.5 17T233 66.5Q250 95 250 129q0 5-3.5 9t-9 4q-5.5 0-9-4t-3.5-9q0-27-13.5-50T175 42.5Q152 29 125 29T75 42.5Q52 56 38.5 79T25 129q0 27 13.5 50T75 215.5Q98 229 125 229q5 0 9 3.5t4 9q0 5.5-4 9t-9 3.5zm-24-55q-2 0-5-1-19-7-31-23t-14.5-36Q48 119 56 100t23.5-31Q95 57 115 54.5t39 5.5q14 6 24.5 16.5T194 100q2 5 .5 10t-6.5 7q-5 2-9.5 0t-7.5-7q-8-19-27-27t-38 0q-19 8-27 27t0 38q8 19 27 27 5 2 7 7t0 9q-2 4-5 6t-7 2z"/></svg>