<svg viewBox="0 0 300 316" xmlns="http://www.w3.org/2000/svg"><path d="M258 190q-11-11-26.5-11T205 190l-19 14q-61-27-86-86l14-19q11-11 11-26.5T114 46L91 15Q79 4 63.5 4T37 15L22 27Q12 38 6 52T0 82q0 35 21 75 20 38 54 72t72 54q40 21 75 21 32 0 55-23l12-13q11-11 11-27t-11-28l-31-23zm5-174q0-5 3.5-8.5T275 4h13q5 0 8.5 3.5t3.5 9q0 5.5-3.5 9T287 29h-12q-5 0-9-3.5t-3-8.5v-1zm-50 0q0-5 3.5-8.5T225 4h13q5 0 8.5 3.5t3.5 9q0 5.5-3.5 9T237 29h-12q-5 0-8.5-3.5T213 17v-1zm-50 0q0-5 3.5-8.5T175 4h13q5 0 8.5 3.5t3.5 9q0 5.5-3.5 9T187 29h-12q-5 0-8.5-3.5T163 17v-1zm-50 0q0-5 3.5-8.5T125 4h13q5 0 8.5 3.5t3.5 9q0 5.5-3.5 9T137 29h-12q-5 0-8.5-3.5T113 17v-1zm187 50q0 6-3.5 9.5T287 79h-12q-5 0-8.5-3.5t-3.5-9q0-5.5 3.5-9T275 54h13q5 0 8.5 3.5T300 66zm-137 0q0-5 3.5-8.5T175 54h63q5 0 8.5 3.5t3.5 9q0 5.5-3.5 9T237 79h-62q-5 0-8.5-3.5T163 67v-1z"/></svg>