<svg viewBox="0 0 300 316" xmlns="http://www.w3.org/2000/svg"><path d="M119 35q0-13 9-22t22-9q13 0 22 9t9 22q0 13-9 22.5t-22 9q-13-.5-22-9.5t-9-22zM88 154v-25q0-21 14.5-35.5T138 79h25q20 0 35 14.5t15 35.5v25q0 12-7 21.5T188 189v52q-1 6-4.5 9.5T175 254q-5 0-9-3.5t-4-8.5v-51h-24v50q0 6-4 9.5t-9 3.5q-5 0-9-3.5t-4-8.5v-53q-11-4-18-13.5T87 154h1zm140 45q-6-1-10.5 2.5T213 211v30q0 14-10 25t-24 12q-14 1-29 1t-29-1q-14-1-23.5-12T87 241v-30q1-6-4-9.5T72 199q-35 7-53.5 19.5T0 248.5Q0 266 23 280q20 12 56 18 33 6 71 6t71-6q36-6 56-18 23-14 23-31.5t-18.5-30Q263 206 228 199z"/></svg>