<svg viewBox="0 0 300 316" xmlns="http://www.w3.org/2000/svg"><path d="M37 304q-5 0-8.5-3t-4.5-8q-1-23-11-45-5-11-9-18-6-8-3.5-18.5t11-16q8.5-5.5 18-3.5T46 203h1q11 13 20 29 17 29 20 58 1 6-2.5 10t-9.5 4H37zm188 0q-6 0-9.5-4t-2.5-10q3-29 20-58 9-16 21-29 7-9 16.5-11t18 3.5q8.5 5.5 11 16T296 230q-4 7-9 18-9 22-11 45-1 4-4.5 7.5T263 304h-38zm-37-17q3-31 19-61 12-21 28-39 11-15 29-19t35 5q1-11 1-19 0-41-20-75.5T225.5 24Q191 4 150 4T74.5 24Q40 44 20 78.5T0 154q0 8 1 19 17-9 34.5-5T65 187q16 18 28 39 16 30 19 61 1 5 0 12 19 5 38 5t38-5q-1-7 0-12zm-9-204q7-6 19.5-3T222 94q11 11 14.5 23.5T233 137q-7 7-19.5 3.5T190 126q-11-11-14-23.5t3-19.5zm-69 43q-11 11-23.5 14.5T67 137q-7-7-3.5-19.5T78 94q11-11 23.5-14t19 3.5q6.5 6.5 3.5 19T110 126zm77 78q0 16-11 26.5T149.5 241q-15.5 0-26.5-10.5T112 204v-13q0-15 11-26t26.5-11q15.5 0 26.5 11t11 26v13z"/></svg>