<svg viewBox="0 0 300 316" xmlns="http://www.w3.org/2000/svg"><path d="M256 166h-62q-18 0-31 13t-13 31v50q0 18 13 31t31 13h62q18 0 31-13t13-31v-50q0-18-13-31t-31-13zm-18 63h-25q-6 0-9.5-3.5t-3.5-9q0-5.5 3.5-9t8.5-3.5h26q5 0 8.5 3.5t3.5 9q0 5.5-3.5 9T238 229zm-113 31v-50q0-18 9.5-34t25-25q15.5-9 34.5-9h31V91q0-16-8.5-30.5t-23-23Q179 29 162 29h-2q-4-11-13.5-18T125 4h-25q-12 0-21.5 7T65 29h-2q-17 0-31.5 8.5t-23 23Q0 75 0 92v149q0 17 8.5 31.5t23 23Q46 304 63 304h78q-16-19-16-44zm25-170h25q5 0 9 4t4 9q0 5-4 8.5t-9 3.5h-25q-5 0-8.5-3.5T138 103q0-5 3.5-9t8.5-4zm-35 78l-28 28q-8 8-19 8t-19-7l-14-13q-4-3-4-8.5t3.5-9q3.5-3.5 8.5-4t9 3.5l14 12q2 2 4 0l27-28q4-3 9-3t9 3.5q4 3.5 4 8.5t-4 9zm0-76l-28 28q-8 8-19 8t-19-7l-14-13q-4-3-4-8.5t3.5-9q3.5-3.5 8.5-4t9 3.5l14 12q2 2 4 0l27-28q4-3 9-3t9 3.5q4 3.5 4 8.5t-4 9z"/></svg>