<svg viewBox="0 0 300 316" xmlns="http://www.w3.org/2000/svg"><path d="M150 304q-5 0-9-3.5t-4-8.5v-13q1-5 4.5-9t8.5-4q5 0 9 4t4 9v12q0 6-4 9.5t-9 3.5zm-62-13v-12q0-5-4-9t-9-4q-5 0-8.5 4t-3.5 9v12q0 6 3.5 9.5T75 304q5 0 8.5-3.5T87 292l1-1zm212-132q-2 23-14.5 42t-33 30Q232 242 209 242H76q-25 1-43-9T6.5 207q-8.5-16-6-34.5T18 139q5-4 7-10t1-12q-5-39 16-69Q61 20 94.5 9.5t64.5.5q35 12 54 46 5 10 17 12 21 4 37.5 17.5t25 32.5q8.5 19 7.5 41zm-175 32q0-5-3.5-8.5t-9-3.5q-5.5 0-9 3.5T100 192v12q0 5 3.5 8.5t9 3.5q5.5 0 9-3.5t3.5-8.5v-13zm75 0q0-5-3.5-8.5t-9-3.5q-5.5 0-9 3.5T175 192v12q0 5 3.5 8.5t9 4q5.5.5 9-3.5t3.5-9v-13zm38 100v-12q0-5-4-9t-9-4q-5 0-9 4t-4 9v12q0 6 4 9.5t9 3.5q5 0 9-3.5t4-8.5v-1z"/></svg>