<svg viewBox="0 0 300 316" xmlns="http://www.w3.org/2000/svg"><path d="M247 45q-26-27-61.5-36.5t-70.5 0Q80 18 53.5 44t-36 61.5Q8 141 17 176t35 62l51 47q13 12 30 16.5t34 0q17-4.5 30-16.5l50-46q27-27 36-62t0-70.5Q274 71 247 45zm-22 128q0 13-9 22t-22 9h-87q-13 0-22.5-9T75 173v-42q0-9 4.5-17.5T91 100l38-26q10-7 21.5-7t21.5 7l37 26q8 5 12 13.5t4 17.5v42zm-25-42v42q0 3-2 4.5t-4 1.5h-19v-25q0-5-3.5-8.5T163 142h-25q-5 0-9 3.5t-4 8.5v25h-18q-3 0-5-1.5t-2-4.5v-42q0-7 6-10l37-26q3-3 7-3t7 3l38 26q5 3 5 10z"/></svg>