<svg viewBox="0 0 300 316" xmlns="http://www.w3.org/2000/svg"><path d="M175 291q0 6-3.5 9.5T162 304H13q-6 0-9.5-3.5T0 291q0-23 12-43t32-32q20-12 43.5-12t43.5 12q20 12 32 32t12 44v-1zM88 79q-21 0-36 14.5T37.5 129q.5 21 15 35.5t35 14.5q20.5 0 35.5-14.5t15-35.5q0-21-15-35.5T88 79zm212-13v100q0 17-8.5 31.5t-23 23Q254 229 238 229h-57q-18-27-48-40 14-11 21.5-26.5T162 129q1-20-9.5-37.5T125 64q-17-10-37-10T50 64q1-25 19-42.5T112 4h126q16 0 30.5 8.5t23 23Q300 50 300 66zm-50 125q0-5-3.5-8.5T237 179h-43q-5 0-9 3.5t-4 9q0 5.5 4 9t9 3.5h44q5 0 8.5-3.5t3.5-9.5z"/></svg>