<svg viewBox="0 0 300 316" xmlns="http://www.w3.org/2000/svg"><path d="M125 54h-25q-10 0-17.5-7.5T75 29q0-10 7.5-17.5T100 4h25q10 0 17.5 7.5T150 29q0 10-7.5 17.5T125 54zm125 62h-50q-21 0-35.5 15T150 166v88q0 21 14.5 35.5T200 304h50q21 0 35.5-14.5T300 254v-88q0-20-14.5-35T250 116zm0 125h-50q-5 0-8.5-3.5T188 229q0-5 3.5-9t8.5-4h50q5 0 9 4t4 9q0 5-4 8.5t-9 3.5zm0-50h-50q-5 0-8.5-3.5T188 179q0-5 3.5-9t8.5-4h50q5 0 9 4t4 9q0 5-4 8.5t-9 3.5zM200 91h25q0-22-14.5-39T175 30q-1 21-15.5 35T125 79h-25q-20 0-34.5-14T50 30q-21 5-35.5 22T0 91v150q0 17 8.5 31.5t23 23Q46 304 63 304h81q-19-21-19-50v-88q0-20 10-37t27.5-27.5Q180 91 200 91z"/></svg>