<svg viewBox="0 0 300 316" xmlns="http://www.w3.org/2000/svg"><path d="M250 304H50q-5 0-9-3.5t-4-9.5q1-20 11-37t27-27.5Q92 216 113 216h75q20 0 37 10.5t27 27.5q10 17 10 37 1 6-3 9.5t-9 3.5zm6-225h-6q0-21-14.5-35.5T200 29h-37V16q0-5-4-8.5T150 4q-5 0-8.5 3.5T138 16v13h-38q-21 0-35.5 14.5T50 79h-6q-8 0-13.5 5.5T25 98v25q0 8 5.5 13t13.5 5h6q0 21 14.5 35.5T100 191h100q21 0 35.5-14.5T250 141h6q8 0 13.5-5t5.5-13V98q0-8-5.5-13.5T256 79zm-137 50q-8 0-13.5-5.5T100 110q0-8 5.5-13t13.5-5q8 0 13.5 5t5 13q-.5 8-5.5 13.5t-13 5.5zm62 0q-8 0-13.5-5.5t-5-13.5q.5-8 5.5-13t13-5q8 0 13.5 5t5.5 13q0 8-5.5 13.5T181 129z"/></svg>