<svg viewBox="0 0 300 316" xmlns="http://www.w3.org/2000/svg"><path d="M296 283l-31-32q10-16 10-33.5t-8.5-32q-8.5-14.5-23-23t-31-8.5q-16.5 0-31 8.5t-23 23q-8.5 14.5-8.5 31t8.5 31q8.5 14.5 23 23t32 8.5q17.5 0 33.5-10l32 31q3 4 8.5 4t9-3.5q3.5-3.5 3.5-9t-4-8.5zM188 133v-4q0-5-4-9t-9-4q-5 0-8.5 4t-3.5 9v16q-13 9-22 21h-28v-45q0-6 3-9l42-42q3-4 9-4h46v63q-13 0-25 4zm-59 108q6 22 22 38H63q-17 0-31.5-8.5t-23-23Q0 233 0 216V66q0-16 8.5-30.5t23-23Q46 4 63 4h150q16 0 30.5 8.5t23 23Q275 50 275 66v89q-16-16-37-22V66q0-10-7.5-17.5T213 41h-46q-16 0-27 11L98 94q-11 11-11 27v45q0 11 7.5 18t17.5 7h17q-4 13-4 25H63V102l33-39q3-3 4-6.5t-.5-7q-1.5-3.5-5-6T88 41H63q-11 0-18 7.5T38 66v150q0 11 7 18t18 7h66z"/></svg>