<svg viewBox="0 0 300 316" xmlns="http://www.w3.org/2000/svg"><path d="M238 19v-2q-1-6 3-9.5t9-3.5q5 0 8.5 3.5T262 16v3q1 12 9 21 16 16 17 39 0 5-4 8.5t-9 3.5q-5 0-8.5-3.5T263 79q0-13-9-21-16-17-16-39zm-25 69v3q0 6 3.5 9.5t8.5 3.5q5 0 8.5-3.5T237 91v-3q0-23-16-39-8-9-8-22V16q0-5-4-8.5T200 4q-5 0-8.5 3.5T188 16v11q0 23 16 39 8 9 9 22zm87 103v50q0 19-10.5 34.5T263 299V191q0-5-4-8.5t-9-3.5q-5 0-8.5 3.5T238 191v113h-38V191q0-5-3.5-8.5t-9-3.5q-5.5 0-9 3.5T175 191v113h-50V191q0-5-3.5-8.5t-9-3.5q-5.5 0-9 3.5T100 191v113H63V191q0-5-4-8.5t-9-3.5q-5 0-9 3.5t-4 8.5v108q-16-8-26.5-23.5T0 241v-50q0-12 7-21.5T25 156v-21q0-18 13-31t31-13h6q15 0 28 7t22 19l25 37h112q16 0 27 11t11 27v-1zM69 66q13 0 22-9t9-22q0-13-9-22T69 4q-13 0-22 9t-9 22q0 13 9 22.5T69 67v-1z"/></svg>