<svg viewBox="0 0 300 316" xmlns="http://www.w3.org/2000/svg"><path d="M138 41V16q0-5 3.5-8.5t9-3.5q5.5 0 9 3.5T163 17v24q0 6-3.5 9.5t-9 3.5q-5.5 0-9-3.5T138 41zm63 13q5 0 8.5-3.5T213 41V16q0-5-3.5-8.5t-9-3.5q-5.5 0-9 3.5T188 17v24q0 6 3.5 9.5T200 54h1zm-100 0q5 0 8.5-3.5T113 41V16q0-5-3.5-8.5t-9-3.5q-5.5 0-9 3.5T88 17v24q0 6 3.5 9.5T101 54zm199 71q-7 30-26 55t-46 41l22 67q1 4-1 9t-7 6q-2 1-5 1t-6.5-2.5Q227 299 226 295l-5-16h-83q-6 0-9.5-3.5t-3.5-9q0-5.5 3.5-9t9.5-3.5h74l-8-25H97l-7 21q10 9 10 22.5T91 295q-9 9-22 9t-22-9q-9-9-9-22t8-22q8-9 20-9l7-21q-27-16-46-41T1 125q-2-8 0-16.5T8.5 93q5.5-7 13-10.5T38 79h225q9 0 16.5 3.5t13 10.5q5.5 7 7 15.5t.5 16.5z"/></svg>