<svg viewBox="0 0 300 316" xmlns="http://www.w3.org/2000/svg"><path d="M123 101q-3 0-5-2-5-3-3-9l8-25-20-16q-5-4-2.5-9.5T108 34h25l9-25q2-5 8-5t8 5l9 25h25q6 0 7.5 5.5T197 49l-20 16 8 25q2 5-2.5 9t-9.5 0l-23-14-22 15q-3 1-5 1zm40 15h-25q-13 0-22.5 9.5T106 148v125q0 13 9.5 22t22.5 9h25q12 0 21.5-9t9.5-22V148q0-13-9.5-22.5T162 116h1zm106 88h-19q-13 0-22 9t-9 22v38q0 13 9 22t22 9h19q13 0 22-9t9-22v-38q0-13-9-22t-22-9zM50 166H31q-13 0-22 9.5T0 198v75q0 13 9 22t22 9h19q13 0 22-9t9-22v-75q0-13-9-22.5T50 167v-1z"/></svg>