<svg viewBox="0 0 300 316" xmlns="http://www.w3.org/2000/svg"><path d="M175 154q0 10-7.5 17.5T150 179q-10 0-17.5-7.5T125 154q0-10 7.5-17.5T150 129q10 0 17.5 7.5T175 154zm125 44q0 20-11 36t-29 23q-26 9-48 9-13 0-29-3-9-1-26.5-6t-25.5-7q-13-2-25-2-27 0-42 4-12 3-23.5 1t-21-9Q10 237 5 226.5T0 204v-94q0-20 11-36t29-23q26-10 48-9 13-1 29 3 9 1 27 6 17 5 25 7 13 2 25 2 27 0 43-4 11-3 22.5-1t21 9q9.5 7 14.5 17.5t5 22.5v94zM75 179q0-5-3.5-8.5t-9-4q-5.5-.5-9 3.5t-3.5 9q0 5 3.5 8.5t9 4q5.5.5 9-3.5t3.5-9zm0-75q0-5-3.5-8.5t-9-4q-5.5-.5-9 3.5t-3.5 9q0 5 3.5 8.5t9 3.5q5.5 0 9-3.5T75 104zm125 50q0-21-14.5-35.5T150 104q-21 0-35.5 14.5T100 154q0 21 14.5 35.5T150 204q21 0 35.5-14.5T200 154zm50 50q0-5-3.5-9t-9-4q-5.5 0-9 4t-3.5 9q0 5 3.5 8.5t9 3.5q5.5 0 9-3.5t3.5-8.5zm0-75q0-5-3.5-9t-9-4q-5.5 0-9 4t-3.5 9q0 5 3.5 8.5t9 3.5q5.5 0 9-3.5t3.5-8.5z"/></svg>