<svg viewBox="0 0 300 316" xmlns="http://www.w3.org/2000/svg"><path d="M300 195q0 5-3.5 9t-9.5 4q-2 0-6-2l-1-1q-14-7-20-9-14-5-24-16l-11 18q-22-19-50-19-5 0-8.5 3.5t-3.5 9q0 5.5 3.5 9t8.5 3.5q15 0 27.5 7.5t18 20q5.5 12.5 4.5 25t-7 22.5h45q5 0 8.5 3.5t3.5 9q0 5.5-3.5 9T263 304H134q-25 0-46-11t-35-31q-19-28-32-65Q0 141 0 79q0-21 10-38t27-27Q54 4 75 4q16 0 30.5 8T129 33.5q9 13.5 9 29.5 0 14-5.5 25.5T117 108q-28 19-47 41-14 16-16 38.5t8 41.5h1q0-34 26-63 17-20 52-43l9-5q19-13 26-19 5 24 24.5 39.5T244 154h7q1 6 5.5 11t11.5 7q12 4 26 13 6 4 6 10zm-56-66q22 0 37-7 19-9 19-26 0-10-6.5-22.5t-18-21.5Q264 43 250 42V13q0-5-3.5-7.5T238 4q-11 4-18 14.5T213 41v14q-13 13-13 30.5t13 30.5q13 13 31 13z"/></svg>