<svg viewBox="0 0 300 316" xmlns="http://www.w3.org/2000/svg"><path d="M238 4H63q-17 0-31.5 8.5t-23 23Q0 50 0 67v174q0 17 8.5 31.5t23 23Q46 304 63 304h175q16 0 30.5-8.5t23-23Q300 258 300 241V66q0-16-8.5-30.5t-23-23Q254 4 238 4zM135 138l-22-24v102q-1 6-4.5 9.5T100 229q-5 0-9-3.5t-4-8.5V114l-23 24q-4 4-9 4t-9-4q-4-4-4-9t4-9l32-32q9-9 22-9t22 9l31 33q3 4 3 9t-3.5 8.5q-3.5 3.5-9 3.5t-8.5-4zm119 50l-32 32q-9 9-22 9t-22-9l-32-32q-4-4-4-9t4-9q4-4 9-4t9 4l23 24V91q0-5 4-8.5t9-3.5q5 0 8.5 3.5T212 92v102l24-24q4-4 9-4t9 4q4 4 4 9t-4 9z"/></svg>