<svg viewBox="0 0 300 316" xmlns="http://www.w3.org/2000/svg"><path d="M1 79q4-18 17.5-31.5T50 30v49H1zm49 25H0v112q0 23 14 40t36 22V104zm25-25h224q-5-22-22-36t-39-14H75v50zm225 25v112q0 17-8.5 31.5t-23 23Q254 279 238 279H75V104h225zm-29 47l-13-14q-8-8-20.5-8t-20.5 8l-13 14q-4 4-4 9t3.5 8.5q3.5 3.5 9 3.5t8.5-3l4-4v26q0 6-3.5 9.5T213 204h-27l4-4q3-3 3-8.5t-3.5-9Q186 179 181 179t-9 4l-14 13q-8 9-8 20.5t8 20.5l14 13q4 4 9 4t8.5-3.5q3.5-3.5 3.5-9t-3-8.5l-4-4h27q15 0 26-11t11-27v-26l4 4q3 3 8.5 3t9-3.5q3.5-3.5 3.5-8.5t-4-9z"/></svg>