<svg viewBox="0 0 300 316" xmlns="http://www.w3.org/2000/svg"><path d="M100 171q-9-10-14-22.5T81 123q0-19 9-35t25-25q16-9 34.5-9t34.5 9q16 9 25 25t9 35q0 9-3 19h-29q-7-9-16.5-13.5T149 124q-20 0-34 13.5T100 171zm-43-64q5-31 28-53 14-13 32.5-19.5T156 29q24 2 44 15.5T231.5 80q11.5 22 11.5 48 0 16-12 27t-28 11h-30q-2-7-9-12t-16-5.5q-9-.5-16.5 7t-7.5 18q0 10.5 7.5 18t17.5 7q10-.5 17-7.5h37q17 0 32-8t24-23q9-15 9-32 0-32-14.5-59.5t-40-45Q188 6 157 4q-25-1-48 7T68 36Q54 49 45 66t-13 36q-1 6 3 10.5t9 4.5q5 0 8.5-3t4.5-7zm151 127l-23 33q-3 5-9 5t-10-5l-15-23-16 23q-3 5-9 5t-10-5l-23-34q-15 9-26.5 23T50 288q-2 6 1.5 11t10.5 5h175q6 0 10-5t2-11q-11-34-41-54z"/></svg>