<svg viewBox="0 0 300 316" xmlns="http://www.w3.org/2000/svg"><path d="M150 4q-41 0-75.5 20T20 78.5Q0 113 0 154t20 75.5Q40 264 74.5 284t75.5 20q41 0 75.5-20t54.5-54.5q20-34.5 20-75.5t-20-75.5Q260 44 225.5 24T150 4zm44 87q8 0 13.5 11t5 27q-.5 16-5.5 26.5T194 166q-8 0-13.5-10.5T175 129q0-16 5.5-26.5T194 92v-1zm-45 32q2 5 .5 10t-6.5 7l-50 25q-3 1-5 1-8 0-12-6-2-5-.5-10t6.5-7l50-25q5-3 9.5-1t7.5 6zm-86 6q-4 0-7.5-2t-5-6.5q-1.5-4.5.5-9t7-6.5q12-5 24.5-14T102 72q3-4 8-5t9.5 1.5q4.5 2.5 5.5 8t-2 9.5q-9 14-26 26-14 10-30 16-2 1-4 1zm172 82q-5 9-14 16-16 15-33 15-10 0-20-6l-15-12q-8-7-10-7t-8 4q-6 4-9 5-7 3-14 3-11 0-23-8-6-4-10-8t-4-9q0-5 4-9t9-3.5q5 .5 8 3.5t8 6q5 3 8 3t9-4q6-4 10-6 6-3 13-3t14 5l12 9 9 8q5 3 8 3 8 0 17-8 7-5 10-10t8-6q5-1 9.5 1.5t5.5 7.5q1 5-2 10z"/></svg>