<svg viewBox="0 0 300 316" xmlns="http://www.w3.org/2000/svg"><path d="M238 54H63q-17 0-31.5 8.5t-23 23Q0 100 0 116v75q0 17 8.5 31.5t23 23Q46 254 62 254h176q16 0 30.5-8.5t23-23Q300 208 300 192v-76q0-16-8.5-30.5t-23-23Q254 54 237 54h1zM50 216q-5 0-8.5-3.5T38 204q0-5 3.5-8.5T50 192q5 0 8.5 3.5t4 8.5q.5 5-3.5 8.5t-9 3.5zm0-100q-5 1-8.5-3t-3.5-9q0-5 3.5-9t8.5-4q5 0 8.5 4t4 9q.5 5-3.5 9t-9 4v-1zm100 88q-15 0-27.5-8.5T104 173q-6-14-3-29t13.5-25.5Q125 108 140 105t29 3q14 6 22.5 18.5T200 154q0 21-14.5 35.5T150 204zm100 12q-5 0-9-3.5t-4-8.5q0-5 4-9t9-4q5 0 9 4t4 9q0 5-4 8.5t-9 3.5zm0-100q-5 0-9-3.5t-4-8.5q0-5 4-9t9-4q5 0 9 4t4 9q0 5-4 8.5t-9 3.5zm-75 38q0 10-7.5 17.5T150 179q-10 0-17.5-7.5T125 154q0-10 7.5-17.5T150 129q10 0 17.5 7.5T175 154z"/></svg>