<svg viewBox="0 0 300 316" xmlns="http://www.w3.org/2000/svg"><path d="M172 154q-6 0-11-2.5t-8-8q-3-5.5-3-11.5V54q0-21 14.5-35.5T200 4h50q21 0 35.5 14.5T300 54v25q0 21-14.5 35.5T250 129h-36l-30 21q-6 4-12 4zm34 37h-6q0-10-4-19-11 7-23.5 7t-22.5-5.5q-10-5.5-16.5-13.5t-8.5-18v-13q0-5-3.5-8.5t-9-3.5q-5.5 0-9 3.5T100 129v13H75q-21 0-35.5 14.5T25 192h-6q-8 0-13.5 5.5T0 210v25q0 8 5.5 13.5T19 254h6q0 21 14.5 35.5T75 304h75q21 0 35.5-14.5T200 254h6q8 0 13.5-5.5T225 235v-25q0-7-5.5-12.5T206 192v-1zM81 241q-8 0-13-5t-5-13q0-8 5-13.5t13-5.5q8 0 13.5 5.5T100 223q0 8-5.5 13T81 241zm63 0q-8 0-13.5-5t-5.5-13q0-8 5.5-13.5T144 204q8 0 13.5 5.5T163 223q0 8-5.5 13t-13.5 5z"/></svg>