<svg viewBox="0 0 300 316" xmlns="http://www.w3.org/2000/svg"><path d="M100 241h163q15 0 26 11t11 27q0 10-7.5 17.5T275 304H88q-11 0-18-7.5T63 279q0-16 10.5-27t26.5-11zM72 63l3-20q0-5-4-9t-10-4l-13-1q-13 0-23 10Q9 54 3 85t-.5 62Q8 178 25 194q10 10 23 10l13-1q6 0 10-4t4-9l-3-20q0-6-4-10t-9-4l-20-1q-17-39 0-77l20-2q5 0 9-4t4-9zm219-46Q280 4 263 4H138q-16 0-27 11t-11 27v12h25q5 0 9 3.5t4 9q0 5.5-4 9t-9 3.5h-25v25h25q5 0 9 3.5t4 9q0 5.5-4 9t-9 3.5h-25v25h25q5 0 9 3.5t4 9q0 5.5-4 9t-9 3.5h-25v25q0 5 3.5 8.5t9.5 3.5h142q5 1 8-2t4-8l32-158q3-17-8-31z"/></svg>