<svg viewBox="0 0 300 316" xmlns="http://www.w3.org/2000/svg"><path d="M238 4h-50q-23 0-40.5 14.5T126 55v1q11 3 20 10t14 17l17 34h11q5 0 8.5 3.5t3.5 8q0 4.5-3 8t-7 4.5l40 78q4-2 8-2h12q5 0 9 3.5t4 8.5q0 5-4 9t-9 4h-8l1 2q7 14 6.5 29t-8.5 28l-2 3q17-1 31-9.5t22-22.5q8-14 8-31V66q0-16-8.5-30.5t-23-23Q254 4 238 4zm-50 87h-13q-5 1-9-3t-3.5-9q.5-5 4-9t8.5-4h13q5 0 8.5 4t3.5 9q0 5-3.5 8.5T188 92v-1zm62 100h-12q-6 0-9.5-3.5T225 179q0-5 3.5-9t8.5-4h13q5 0 9 4t4 9q0 5-4 9t-9 4v-1zm0-50h-12q-6 0-9.5-3.5T225 129q0-5 3.5-9t8.5-4h13q5 0 9 4t4 9q0 5-4 9t-9 4v-1zm0-50h-12q-6 1-9.5-3t-3.5-9q0-5 3.5-9t8.5-4h13q5 0 9 4t4 9q0 5-4 8.5t-9 4.5v-1zM58 151l29-57q4-7 10.5-11t14.5-4q8 0 15 4t11 11l30 59-21 38-21-34q-4-6-11-6t-11 6l-20 34-26-40zm163 105q4 8 3.5 16.5t-5 16Q215 296 208 300t-16 4H33q-9 0-16.5-4t-12-11.5Q0 281 0 272t4-16l41-80 18 29q3 5 9 8t12 3q7 0 12.5-3t9.5-9l10-17 10 17q4 6 9.5 9t12.5 3q14 0 22-12l12-24 39 76z"/></svg>