<svg viewBox="0 0 300 316" xmlns="http://www.w3.org/2000/svg"><path d="M150 304q-23 0-43.5-8.5T70 271q-20-20-28-46.5T40 170q5-32 28.5-56T123 82q39-9 74 7 1 1 3 0l1-2q8-8 20-8t20 8l13 13q8 9 8 20.5t-8 19.5l-1 2q-2 1-1 3 16 35 7 73-7 32-31.5 55T171 302q-10 2-21 2zM275 84q13-13 13-30t-13-30q-9-10-22.5-15T225 4q-40 2-81 7-21 3-34 6-5 1-8 5t-2 9.5q1 5.5 5.5 8T115 41q11-2 33-5 40-5 78-7 19 0 32 13 5 5 5 12t-4.5 11.5Q254 70 254 75t3.5 8.5q3.5 3.5 9 3.5t8.5-3zM56 82l4-18 18-4q4-1 6.5-4.5T87 48q0-4-2.5-7.5T78 36l-18-5-4-17q-1-5-4.5-7.5T44 4q-5 0-8.5 2.5T31 14l-4 17-18 4q-4 1-6.5 4.5t-2.5 8Q0 52 2.5 55T9 60l18 4 4 18q1 4 4.5 7t8 3q4.5 0 8-3t4.5-7z"/></svg>