<svg viewBox="0 0 300 316" xmlns="http://www.w3.org/2000/svg"><path d="M200 191q0 21-14.5 35.5T150 241q-17 1-30.5-10T102 204h23q5 0 9-3.5t4-9q0-5.5-4-9t-9-3.5h-23q4-16 17.5-27t30.5-11q21 0 35.5 15t14.5 36v-1zm75-125v175q0 17-8.5 31.5t-23 23Q229 304 212 304H88q-17 0-31.5-8.5t-23-23Q25 258 25 241V66q0-16 8.5-30.5t23-23Q71 4 87 4h126q16 0 30.5 8.5t23 23Q275 50 275 67v-1zm-150-6q0 8 5.5 13.5T144 79q8 0 13.5-5.5T163 60q0-8-5.5-13.5t-13.5-5q-8 .5-13.5 5.5T125 60zM81 79q8 0 13.5-5.5T100 60q0-8-5.5-13.5t-13.5-5Q73 42 68 47t-5 13q0 8 5 13.5T81 79zm144 112q0-20-10-37t-27.5-27.5Q170 116 150 116t-37.5 10.5Q95 137 85 154t-10 37.5Q75 212 85 229t27.5 27q17.5 10 37.5 10t37.5-10q17.5-10 27.5-27t10-38z"/></svg>