<svg viewBox="0 0 300.0011 316" xmlns="http://www.w3.org/2000/svg"><path d="M285 90l15-71q1-8-5-12.5T282 5l-50 23Q195 4 150.5 4T68 28L18 5Q11 2 5 6.5T0 19l15 71Q0 121 0 154q0 41 20 75.5T74.5 284q34.5 20 75.5 20t75.5-20q34.5-20 54.5-54.5t20-75.5q0-33-15-64zM65 96q3-4 8-4.5T83 94l35 27q7 6 7 14t-5.5 13.5q-5.5 5.5-13 5.5t-13-5.5Q88 143 88 135v-5l-21-16q-4-3-4.5-8t2.5-9v-1zm157 129q-4 4-9 4t-9-3q-6-6-16-11-20-11-38-11t-38 11q-9 5-16 11-4 3-9 3t-8.5-4q-3.5-4-3.5-9t4-9q9-7 22-14 25-14 49-14t49 14q13 7 22 14 4 4 4 9t-3 9zm11-111l-21 16v5q1 8-4.5 13.5T194 154q-8 0-13.5-5.5T175 135q0-8 7-14l35-27q5-3 10-2.5t8 5q3 4.5 2.5 9.5t-4.5 8z"/></svg>