<svg viewBox="0 0 300.0277 316" xmlns="http://www.w3.org/2000/svg"><path d="M297 299q-3 5-10 5h-99q-7 0-10.5-5t-2.5-11q6-22 23.5-34t39.5-12q22 0 39 12t23 35q1 6-3 10zM239 73l-48-43q-13-11-30-13t-32 4L40 56q-16 6-26 19.5T2 105l-2 66v10l248-99q-4-5-9-9zm-25 131q4 8 13.5 11.5t18.5 0q9-3.5 13-13t1-18.5l-1-2q11-11 14.5-26t-2.5-29l-9-23-46 18 4 12q2 5 0 9.5t-6.5 6.5q-4.5 2-9.5 0t-7-7l-5-12-119 48 5 11q2 5-.5 9.5t-7 6.5q-4.5 2-9 0t-6.5-6l-5-12-46 19 2 7 7 16q6 15 20 23.5t30 7.5l1 2q4 10 13.5 13.5t19 0q9.5-3.5 13.5-13t1-18.5l103-41z"/></svg>