<svg viewBox="0 0 300 316" xmlns="http://www.w3.org/2000/svg"><path d="M75 235q0-33 20.5-59.5T147 142q23-5 38-25t15-43.5Q200 50 187.5 33t-33-23.5Q134 3 113 8q-32 9-58 30T14.5 89.5Q0 120 0 154q0 47 26.5 85T96 294q-21-26-21-59zm56-181q8 0 13.5 5.5T150 73q0 8-5.5 13T131 91q-8 0-13-5t-5-13q0-8 5-13.5t13-5.5zm73-40q21 26 21 59t-20.5 59.5Q184 159 153 166q-23 5-38 25t-15 43.5q0 23.5 12.5 40.5t33 23.5q20.5 6.5 41.5.5 32-8 58-29t40.5-51.5Q300 188 300 154q0-47-26.5-85T204 14zm-35 240q-8 0-13.5-5.5T150 235q0-8 5.5-13.5T169 216q8 0 13.5 5.5T188 235q0 8-5.5 13.5T169 254z"/></svg>