<svg viewBox="0 0 300 316" xmlns="http://www.w3.org/2000/svg"><path d="M275 129h-87q-16 0-27-11t-11-27V4H88q-17 0-31.5 8.5t-23 23Q25 50 25 66v175q0 17 8.5 31.5t23 23Q71 304 88 304h125q16 0 30.5-8.5t23-23Q275 258 275 241V129zm-66 53l-18 71q-1 5-5.5 9t-10.5 4.5q-6 .5-11-2.5t-7-9l-7-17-7 17q-2 5-6.5 8t-10.5 3h-1q-6 0-10.5-4t-5.5-9l-18-71q-1-5 1.5-9.5t7.5-5.5q5-1 9.5 1.5t5.5 7.5l13 50 11-27q1-3 4-5.5t7-2.5q4 0 7 2.5t5 5.5l10 27 13-50q1-5 5.5-7.5t9.5-1.5q5 1 7.5 5.5t1.5 9.5zm-34-91V10q18 7 31 20l43 43q13 13 20 31h-82q-5 0-8.5-3.5T175 91z"/></svg>