<svg viewBox="0 0 300 316" xmlns="http://www.w3.org/2000/svg"><path d="M0 241q0 17 8.5 31.5t23 23Q46 304 63 304h175q16 0 30.5-8.5t23-23Q300 258 300 241V129H0v112zm104-44l20-20q11-10 26-10.5t26 10.5l20 20q4 4 4 9t-3.5 9q-3.5 4-9 4t-8.5-4l-16-16v55q0 5-4 8.5t-9 3.5q-5 0-9-3.5t-4-8.5v-55l-16 16q-3 4-8.5 4t-9-4q-3.5-4-3.5-9t4-9zM300 91v13H0V91q0-16 8.5-30.5t23-23Q46 29 63 29h12V16q0-5 3.5-8.5t9-3.5q5.5 0 9 3.5T100 17v12h100V16q0-5 3.5-8.5t9-3.5q5.5 0 9 3.5T225 17v12h13q16 0 30.5 8.5t23 23Q300 75 300 92v-1z"/></svg>