<svg viewBox="0 0 300 316" xmlns="http://www.w3.org/2000/svg"><path d="M263 54h-39q-5-22-22-36T162 4h-25q-22 0-39 14T76 54H38q-6 0-9.5 3.5t-3.5 9q0 5.5 3.5 9T37 79h13v162q0 17 8.5 31.5t23 23Q96 304 112 304h76q16 0 30.5-8.5t23-23Q250 258 250 241V79h13q5 0 8.5-3.5t3.5-9q0-5.5-3.5-9T263 54zM138 217q0 5-4 8.5t-9 3.5q-5 0-9-3.5t-4-8.5v-75q1-6 4.5-9.5t8.5-3.5q5 0 8.5 3.5t3.5 9.5v75h1zm50 0q0 5-4 8.5t-9 3.5q-5 0-8.5-3.5T163 217v-75q0-6 3.5-9.5t8.5-3.5q5 0 9 3.5t4 9.5v75zM102 54q4-11 14-18t22-7h25q11 0 21 7t14 18h-96z"/></svg>