<svg viewBox="0 0 300 316" xmlns="http://www.w3.org/2000/svg"><path d="M50 79V60q0-23 16.5-39.5T106 4h88q23 0 39.5 16.5T250 60v19q0 5-3.5 8.5t-9 3.5q-5.5 0-9-3.5T225 79V60q0-13-9-22t-22-9h-31v150q0 5-4 8.5t-9 4q-5 .5-8.5-3.5t-3.5-9V29h-32q-13 0-22 9t-9 22v19q0 5-3.5 8.5t-9 3.5q-5.5 0-9-3.5T50 79zm250 162q0-10-7-17l-35-35q-3-3-8.5-3t-9 3.5Q237 193 237 198t4 9l22 22H38l21-22q4-4 4-9t-3.5-8.5q-3.5-3.5-9-3.5t-8.5 3L7 224q-7 7-7 17v1q0 10 7 17l35 34q3 4 8.5 4t9-3.5Q63 290 63 285t-4-9l-21-22h225l-22 22q-4 4-4 9t3.5 8.5q3.5 3.5 9 3.5t8.5-4l35-34q7-7 7-17v-1z"/></svg>