<svg viewBox="0 0 300 316" xmlns="http://www.w3.org/2000/svg"><path d="M150 304q-5 0-8.5-3.5T138 291V16q0-5 3.5-8.5T150 4q5 0 9 3.5t4 8.5v275q0 6-4 9.5t-9 3.5zM300 23q0-8-5.5-13.5T281 4q-8 0-13 5.5T263 23q0 8 5 13t13 5q8 0 13.5-5t5.5-13zm-62 0q0-8-5.5-13.5T219 4q-8 0-13.5 5.5T200 23q0 8 5.5 13t13.5 5q8 0 13.5-5t5.5-13zm0 262q0-8-5.5-13.5T219 266q-8 0-13.5 5.5T200 285q0 8 5.5 13.5T219 304q8 0 13.5-5.5T238 285zM100 23q0-8-5.5-13.5T81 4q-8 0-13 5.5T63 23q0 8 5 13t13 5q8 0 13.5-5t5.5-13zm0 262q0-8-5.5-13.5T81 266q-8 0-13 5.5T63 285q0 8 5 13.5t13 5.5q8 0 13.5-5.5T100 285zm200 0q0-8-5.5-13.5T281 266q-8 0-13 5.5t-5 13.5q0 8 5 13.5t13 5.5q8 0 13.5-5.5T300 285zm0-62q0-8-5.5-13.5T281 204q-8 0-13 5.5t-5 13.5q0 8 5 13t13 5q8 0 13.5-5t5.5-13zm0-69q0-8-5.5-13.5T281 135q-8 0-13 5.5t-5 13.5q0 8 5 13.5t13 5.5q8 0 13.5-5.5T300 154zm0-69q0-8-5.5-13.5T281 66q-8 0-13 5.5T263 85q0 8 5 13.5t13 5.5q8 0 13.5-5.5T300 85zM38 23q0-8-5.5-13.5T19 4Q11 4 5.5 9.5T0 23q0 8 5.5 13T19 41q8 0 13.5-5T38 23zm0 262q0-8-5.5-13.5T19 266q-8 0-13.5 5.5T0 285q0 8 5.5 13.5T19 304q8 0 13.5-5.5T38 285zm0-62q0-8-5.5-13.5T19 204q-8 0-13.5 5.5T0 223q0 8 5.5 13t13.5 5q8 0 13.5-5t5.5-13zm0-69q0-8-5.5-13.5T19 135q-8 0-13.5 5.5T0 154q0 8 5.5 13.5T19 173q8 0 13.5-5.5T38 154zm0-69q0-8-5.5-13.5T19 66q-8 0-13.5 5.5T0 85q0 8 5.5 13.5T19 104q8 0 13.5-5.5T38 85zm43 88q8 0 13.5-5.5T100 154q0-8-5.5-13.5T81 135q-8 0-13 5.5T63 154q0 8 5 13.5t13 5.5zm138 0q8 0 13.5-5.5T238 154q0-8-5.5-13.5T219 135q-8 0-13.5 5.5T200 154q0 8 5.5 13.5T219 173z"/></svg>