<svg viewBox="0 0 300 316" xmlns="http://www.w3.org/2000/svg"><path d="M292 12q-6-6-13.5-7.5T263 6l-3 1q-92 30-160 97-18 18-31.5 38t-14 39.5Q54 201 69 216h1l-29 29q-3 4-3 9t3.5 8.5Q45 266 50 266t9-3l29-29v1q15 15 34.5 14.5t39.5-14q20-13.5 38-31.5 67-68 97-160l1-3q3-8 1.5-15.5T292 12zM138 179q-6 0-9.5-3.5t-3.5-9q0-5.5 3.5-9t9-3.5q5.5 0 9 3.5t3.5 9q0 5.5-3.5 9T138 179zm37-38q-5 0-9-3.5t-3.5-8.5q.5-5 4-9t8.5-4q5 0 9 4t4 9q0 5-4 9t-9 4v-1zm38-37q-6 0-9.5-3.5t-3.5-9q0-5.5 3.5-9t9-3.5q5.5 0 9 3.5t3.5 9q0 5.5-3.5 9T213 104zM30 167q-13 0-21.5-8.5t-8.5-21Q0 125 8 117q16-17 37-26.5T89 80l-7 7q-19 19-34 41-13 17-17 39h-1zm108 106q21-4 39-17 22-15 41-34l7-7q-2 23-11.5 44T188 296q-9 8-21 8t-20.5-8.5Q138 287 137 274l1-1z"/></svg>