<svg viewBox="0 0 300 316" xmlns="http://www.w3.org/2000/svg"><path d="M150 154q-16 0-26.5 11T113 191.5q0 15.5 10.5 26.5t26.5 11q16 0 27-11t10.5-26.5q-.5-15.5-11-26.5T150 154zm0 50q-5 0-9-3.5t-3.5-9q.5-5.5 4-9t8.5-3.5q5 0 9 3.5t4 9q0 5.5-4 9t-9 3.5zM200 4H100q-17 0-31.5 8.5T46 35.5Q38 50 37 66v175q1 17 9 31.5t22.5 23Q83 304 100 304h100q17 0 31.5-8.5t22.5-23q8-14.5 9-30.5V66q-1-16-9-30.5t-22.5-23Q217 4 200 4zm-50 56q8 0 13.5 5.5T169 79q0 8-5.5 13.5T150 98q-8 0-13.5-5.5T131 79q0-8 5.5-13.5T150 60zm0 194q-17 0-31.5-8.5t-22.5-23q-8-14.5-8-31t8-31q8-14.5 22.5-23T150 129q17 0 31.5 8.5t23 23q8.5 14.5 8 31t-8.5 31q-8 14.5-22.5 23T150 254z"/></svg>