<svg viewBox="0 0 300 316" xmlns="http://www.w3.org/2000/svg"><path d="M125 291q0 6-3.5 9.5T113 304H13q-6 0-9.5-3.5t-3.5-9q0-5.5 3.5-9T12 279h101q5 0 8.5 3.5t3.5 8.5zM13 254h75q5 0 8.5-3.5t3.5-9q0-5.5-3.5-9T87 229H13q-6 0-9.5 3.5t-3.5 9q0 5.5 3.5 9T12 254h1zm0-50h50q5 0 8.5-3.5t3.5-9q0-5.5-3.5-9T62 179H13q-6 0-9.5 3.5t-3.5 9q0 5.5 3.5 9T12 204h1zM150 4q-41 0-75.5 20T20 78.5Q0 113 0 154v2q6-2 13-2h50q9 0 17 4.5t13.5 12q5.5 7.5 6.5 17T97 205q17 5 24.5 20t.5 30q16 5 23.5 19.5T148 304h2q41 0 75.5-20t54.5-54.5q20-34.5 20-75.5t-20-75.5Q260 44 225.5 24T150 4zm46 196q-3 4-8.5 4t-8.5-4l-38-37q-3-4-3-9V91q0-5 3.5-8.5T150 79q5 0 9 3.5t4 8.5v58l33 34q4 3 4 8.5t-4 8.5z"/></svg>