<svg viewBox="0 0 300.0032 316" xmlns="http://www.w3.org/2000/svg"><path d="M300.003 101l-15-52q-6-20-22.5-32.5T225.003 4h-12v50q-1 8-7 11t-12 0q-6-3-7-11V4h-74v50q-1 8-7 11t-12 0q-6-3-7-11V4h-12q-21 0-37.5 12.5T15.003 49l-15 52q-1 9 2.5 18.5t9.5 17.5v117q1 21 15.5 35.5t34.5 14.5h76q20 0 35-14.5t15-35.5V147q7-4 12-10 7 8 16.5 12.5t20.5 4.5h13q6 0 13-2v139q0 8 6 11t12 0q6-3 7-10V137q6-8 9.5-17.5t2.5-18.5zm-137 115h-125v-64q6 2 12 2h13q11 0 20.5-4.5t16.5-12.5q7 8 16.5 12.5t21.5 4.5h25v62z"/></svg>