<svg viewBox="0 0 300 316" xmlns="http://www.w3.org/2000/svg"><path d="M275 166h-12q-21 0-41-8 19-17 30-41t11-51q0-16-8.5-30.5t-23-23Q217 4 200 4t-31.5 8.5Q154 21 146 35.5T138 66q-1 27 10 51t30 41q-20 8-40 9-28-1-51-14t-36-36Q38 94 38 66q0-5-4-8.5T25 54q-5 0-8.5 3.5T13 66v225q0 6 3.5 9.5T25 304q5 0 8.5-3.5T37 291V141q11 15 26 25v125q0 6 3.5 9.5T75 304q5 0 8.5-3.5T88 291V181q12 5 25 8v102q0 6 3.5 9.5t8.5 3.5q5 0 9-3.5t4-9.5V191q11 0 25-2v102q0 6 3.5 9.5t8.5 3.5q5 0 9-3.5t4-9.5V181q7-3 12-6 5 3 13 6v110q-1 6 3 9.5t9 3.5q5 0 9-3.5t4-9.5V189q13 2 25 3v99q0 6 3.5 9.5t8.5 3.5q5 0 9-3.5t4-9.5V179q0-5-4-9t-9-4zm-75-21q-17-15-27.5-35T162 66q1-15 11.5-26T200 29q16 0 26.5 11T237 67q1 23-9.5 43T200 145z"/></svg>