<svg viewBox="0 0 300 316" xmlns="http://www.w3.org/2000/svg"><path d="M25 254h125q10 0 17.5 7.5T175 279q0 10-7.5 17.5T150 304H25q-10 0-17.5-7.5T0 279q0-10 7.5-17.5T25 254zM147 75q-7 10-13 20 3 3 3.5 6.5t-1 7q-1.5 3.5-4.5 6t-7 2.5H50q-4 0-7-2.5t-4.5-6q-1.5-3.5-1-7T41 95L28 75q-3-7-2.5-15.5t5-15.5Q35 37 42 33t15-4h18V16q0-5 3.5-8.5t9-3.5q5.5 0 9 3.5T100 16v13h18q8 0 15 4t11.5 11q4.5 7 5 15.5T147 75zm128 179h-82q7 12 7 25t-7 25h82q10 0 17.5-7.5T300 279q0-10-7.5-17.5T275 254zm-128-25q-13-43-19-87H47q-6 44-19 87h119zm28-91v91h100v-91q6-3 9-9t4-13v-12q0-5-4-9t-9-4q-5 0-9 4t-4 9v12h-24v-12q-1-5-4.5-9t-8.5-4q-5 0-9 4t-4 9v12h-24v-12q0-5-4-9t-9-4q-5 0-9 4t-4 9v12q1 7 4 13t9 9z"/></svg>