<svg viewBox="0 0 300 316" xmlns="http://www.w3.org/2000/svg"><path d="M263 23q0-8 5-13.5T281 4q8 0 13.5 5.5T300 23q0 8-5.5 13T281 41q-8 0-13-5t-5-13zM106 66q13 0 22-9t9.5-22q.5-13-9-22T106 4q-13 0-22 9t-9 22q0 13 9 22.5t22 9.5v-1zm157 25q0 21-15 35.5T212.5 141q-20.5 0-35-14.5t-14.5-35q0-20.5 14.5-35t35-15q20.5-.5 35 14.5T262 91h1zm37 119q0 26-12.5 47.5t-34 34Q232 304 206 304H94q-28 0-50.5-14.5T9 250.5Q-3 226 1 198q3-23 16.5-41.5t34.5-29Q73 117 97 117h45q8 22 27 35.5t44 13.5q16 0 30.5-6.5T269 141q15 13 23 31t8 38zm-137-31q0-5-4-9t-9-4H94q-18 0-31 13t-13 31q0 16 10 28t25 15h3q4 0 7.5-2.5t4.5-7.5q1-5-2-9t-9-5.5q-6-1.5-10-6.5t-4-12.5q0-7.5 5.5-12.5t13.5-5h56q5 0 8.5-4t3.5-9h1z"/></svg>