<svg viewBox="0 0 300.0019 316" xmlns="http://www.w3.org/2000/svg"><path d="M171 133q17 23 17 53-1 26-9 62-4 22-11 43-2 6-7 9.5t-11 3.5q-6 0-11-3.5t-7-9.5q-7-21-11-43-9-36-9-62 0-30 17-53-10-9-10-23V72q0-4 4-5.5t6 2.5l9 12q6-2 12-2t12 2l9-12q2-4 6-2.5t4 5.5v38q0 14-10 23zM75 38q0-7-4-12.5t-11-8Q53 15 46.5 17T36 25Q18 47 8 89q-9 35-8 65 0 15 6 52 1 7 8 9.5t13-2.5q3-3 8-6t9.5-3q4.5 0 12 12.5T67 245q2 7 10 8.5t12-4.5q2-2 5-4-6-34-6-59 0-31 13-56-15-11-21-35-5-19-5-57zm189-13q-4-6-10.5-8t-13.5.5q-7 2.5-11 8T225 38q0 35-5 54-6 25-22 37 15 25 15 57 0 25-7 59 3 2 5 4 4 6 12 4.5t10-8.5q3-16 10.5-28.5t12-12.5q4.5 0 9.5 3t8 6q6 5 13 2.5t8-9.5q6-37 6-52 1-30-8-65-10-42-28-64z"/></svg>