<svg viewBox="0 0 300 316" xmlns="http://www.w3.org/2000/svg"><path d="M200 4H100q-17 0-31.5 8.5t-23 23Q37 50 38 67v174q0 17 8 31.5t22.5 23Q83 304 100 304h100q17 0 31.5-8.5t23-23Q263 258 262 241V66q1-16-7.5-30.5t-23-23Q217 4 200 4zm-1 168q-1 7-6 12t-11.5 6.5q-6.5 1.5-13 0T157 184q5 14 11 23 1 3-.5 6.5T162 217h-24q-4 0-5.5-3.5t.5-6.5q6-9 10-23-5 5-11.5 6.5t-13 0Q112 189 107 184t-6-12q-3-12 4.5-21t19.5-9h4q-4-6-4-13 0-10 7.5-17.5T150 104q10 0 17.5 7.5T175 129q0 7-4 13h4q12-1 19.5 8.5T199 172z"/></svg>