<svg viewBox="0 0 300 316" xmlns="http://www.w3.org/2000/svg"><path d="M119 35q0-13 9-22t22-9q13 0 22 9t9 22q0 13-9 22.5t-22 9q-13-.5-22-9.5t-9-22zM52 172l41-64q9-14 23-21.5t30-7.5h8q16 0 30 7.5t23 21.5l41 64q3 5 2 10t-5 7.5q-4 2.5-7 1.5-7 0-11-5l-40-62v42q0 6-3.5 9.5T175 179h-50q-5 0-9-3.5t-4-9.5v-42l-39 62q-3 4-8 5t-9.5-1.5Q51 187 50 182t2-10zm186 107H63q-6 0-9.5 3.5t-3.5 9q0 5.5 3.5 9T63 304h175q5 0 8.5-3.5t3.5-9q0-5.5-3.5-9T238 279zm-125-63q-6 1-9.5 4.5T100 229q0 5 3.5 8.5t9.5 3.5h75q5 0 8.5-3.5t3.5-8.5q0-5-3.5-9t-8.5-4h-75zM56 82l4-18 18-5q4-1 7-4.5t2.5-7.5q-.5-4-3-7.5T78 35l-18-4-4-18q-1-4-4.5-6.5t-8-2.5Q39 4 36 6.5T32 13l-5 18-18 5q-4 1-6.5 4T0 47.5q0 4.5 2.5 8T9 60l18 4 5 18q1 4 4 6.5t7.5 2.5q4.5 0 8-2.5T56 82zm238-25l-16-6-7-16q-2-6-8.5-6t-8.5 6l-7 16-16 7q-6 2-6 8.5t6 8.5l16 7 7 16q2 6 8.5 6t8.5-6l7-16 16-7q6-3 6-9t-6-9z"/></svg>