<svg viewBox="0 0 300 316" xmlns="http://www.w3.org/2000/svg"><path d="M275 291q0 6-3.5 9.5T263 304H38q-6 0-9.5-3.5t-3.5-9q0-5.5 3.5-9T38 279q10 0 17.5-7.5T63 254v-50H38q-6 0-9.5-3.5t-3.5-9q0-5.5 3.5-9T38 179h25v-25H38q-6 0-9.5-3.5t-3.5-9q0-5.5 3.5-9T38 129h25v-25q0-27 13-50t36-36.5Q135 4 163 4q34 0 68 20 17 10 28 21 3 4 3.5 9t-3.5 8.5q-4 3.5-9 4t-8.5-3Q238 60 230 54q-14-10-28-16-21-9-40.5-9t-37 10q-17.5 10-27 27.5T88 104v25h125q5 0 8.5 3.5t3.5 9q0 5.5-3.5 9T213 154H88v25h125q5 0 8.5 3.5t3.5 9q0 5.5-3.5 9T213 204H88v50q0 13-7 25h182q5 0 8.5 3.5t3.5 8.5z"/></svg>