<svg viewBox="0 0 300 316" xmlns="http://www.w3.org/2000/svg"><path d="M150 179q41 0 75.5-12t54.5-32q20-20 20-43.5T280 48q-20-20-54.5-32T150 4q-41 0-75.5 12T20 48Q0 68 0 91.5T20 135q20 20 54.5 32t75.5 12zm-40-59q-4 15-8 18.5t-9 3q-5-.5-8.5-4t-3.5-9q0-5.5 4-9t19-5.5q3-1 5 1t1 5zm40 34q-5 0-8.5-3.5T138 142q0-5 7-18 2-3 5-3t5 3q8 13 8 18t-4 8.5q-4 3.5-9 3.5zm88-75q5 0 8.5 3.5t3.5 9q0 5.5-3.5 9T238 104q-5 0-18-8-3-1-3-4.5t3-4.5q13-8 17-8h1zm-48-16q4-15 8-18.5t9-3q5 .5 8.5 4t3.5 9q0 5.5-4 9T196 69q-3 1-5-1t-1-5zm6 51q15 2 19 5.5t4 9q0 5.5-3.5 9t-8.5 4q-5 .5-9-3t-8-18.5q-1-3 1-5t5-1zm-46-85q5 0 8.5 3.5t4 8.5q.5 5-7.5 18-2 3-5 3t-5-3q-7-13-7-18t3.5-8.5Q145 29 150 29zm0 50q16 0 27 3.5t10.5 9q-.5 5.5-11 9T150 104q-16 0-26.5-3.5t-10.5-9q0-5.5 10.5-9T150 79zM85 46q3-4 8-4.5t9 3q4 3.5 8 18.5 1 3-1 5t-5 1q-15-3-19-6t-4-8.5q0-5.5 4-8.5zM63 79q4 0 17 8 3 1 3 4.5T80 96q-13 8-18 8t-8.5-3.5Q50 97 50 91.5t3.5-9Q57 79 62 79h1zm87 125q48 0 87.5-14.5T300 150v4q0 41-20 75.5T225.5 284Q191 304 150 304t-75.5-20Q40 264 20 229.5T0 154v-4q23 25 62.5 39.5T150 204z"/></svg>