<svg viewBox="0 0 300 316" xmlns="http://www.w3.org/2000/svg"><path d="M300 291q0 6-3.5 9.5T288 304q-13 0-23-8-6-5-13-16-5-8-8-11t-7-3q-4 0-8 3.5T219 281q-10 11-16 15-10 8-22 8t-23-8q-6-4-15-15-6-8-10-11.5t-7.5-3.5q-3.5 0-6.5 2.5t-8 9.5q-10 12-18 17-13 9-30 9t-31.5-8.5q-14.5-8.5-23-23t-8.5-31q0-16.5 8.5-31t23-23Q46 179 63 179q5 0 8.5 3.5t3.5 9q0 5.5-3.5 9T63 204q-16 0-27 11t-11 26.5Q25 257 36 268t27 11q9 0 16-5 5-3 12-12 8-10 14-14 9-7 20.5-7t21.5 8q7 5 16 16 6 8 9.5 11t8 3q4.5 0 8.5-3.5t11-10.5q9-11 15-16 10-7 22.5-7.5T260 250q6 5 13 16 5 7 8 10t7.5 3q4.5 0 8 3.5t3.5 8.5zm-188-87h12q21 0 36-15l96-96-45-45-96 96q-15 15-15 36v12q0 5 3.5 8.5t8.5 3.5zM291 58q9-9 9-22.5T290.5 13Q281 4 268 4t-22 9l-17 17 45 45 17-17z"/></svg>