<svg viewBox="0 0 300 316" xmlns="http://www.w3.org/2000/svg"><path d="M274 150q-2-35-21-50-12-8-27-8-19-1-32 13-16 15-19 44-11-8-26-8t-27 9q-19 15-21 50-12 3-19 13t-7 21.5q0 11.5 5.5 25T93 282q7 9 19.5 9t19.5-9q7-9 12.5-22.5T150 235q0-11-6.5-21T126 200q1-15 6-23 6-11 18-11t18.5 11.5Q175 189 175 210v81q0 6 3.5 9.5t9 3.5q5.5 0 9-3.5t3.5-9.5V161q0-22 6.5-33.5T225 116q12 0 18 11 5 8 6 23-11 4-17.5 13.5t-6.5 21q0 11.5 5.5 25T243 232q7 9 19.5 9t19.5-9q7-9 12.5-22.5t5.5-25q0-11.5-7-21.5t-19-13zM60 161l-28 16q-3 2-6 2-7 0-10-5.5T14 163q1-5 6-7l28-17q-2-5-3-10H13q-6 0-9.5-3.5t-3.5-9q0-5.5 3.5-9T13 104h32l2-10-28-16q-4-3-5.5-8t1-9.5Q17 56 22 55t10 1l28 16 8-8-16-28q-3-4-1.5-9t6-7.5Q61 17 66 18t7 6l17 28q5-2 10-3V16q0-5 3.5-8.5t9-3.5q5.5 0 9 3.5T125 16v33q5 1 10 3l16-29q3-4 8-5.5t9.5 1Q173 21 174 26t-1 10l-16 28q4 3 7 7l29-15q4-3 9-1.5t7.5 6Q212 65 211 70t-6 7l-28 17q-14 7-20 23l-8-1q-23 0-41 14-21 16-29 47-11-6-19-16z"/></svg>