<svg viewBox="0 0 300 316" xmlns="http://www.w3.org/2000/svg"><path d="M272 220l-3 27q-2 24-20 40.5T207 304H91q-24 0-42-16.5T29 247l-3-29q17 11 37 11 12 0 23.5-4.5T106 212q9 8 20.5 12.5T150 229q12 0 23.5-4.5T194 212q8 8 19.5 12.5T238 229q18 0 34-9zM150 79q-1 0-1 1-11 12-15 21-3 6-3 9 0 8 5.5 13.5T150 129q8 0 13.5-5.5T169 110q0-3-3-9-4-9-15-21 0-1-1-1zm137-34l-12 136-4 6q-6 7-13 11-9 6-20 6t-20.5-5q-9.5-5-12.5-12-1-4-4-6t-7-2q-4 0-7 2t-5 6q-3 7-12 12t-20 5q-11 0-20-5t-12-12q-2-4-5-6t-7-2q-4 0-7 2t-4 6q-3 7-12.5 12T62 204q-19 0-31-12-6-6-8-12L12 45q-1-17 10-29T50 4h200q16 0 27 12t10 29zm-93 65q0-19-24-47-7-8-20-8t-20 8q-24 28-24 46.5t13 31.5q13 13 31 13t31-13q13-13 13-31z"/></svg>