<svg viewBox="0 0 300 316" xmlns="http://www.w3.org/2000/svg"><path d="M111 183l27-45-100-33q-6-2-11.5 0t-8.5 7L4 136q-6 10-2 21.5T18 173l63 21q8 3 16.5 0t12.5-11h1zm27 121V187l-6 9q-7 12-18.5 18.5T89 221q-8 0-16-3l-48-16v21q0 20 12 36.5T68 282l55 18q8 3 15 4zm159-168l-15-24q-3-5-8.5-7t-11.5 0l-99 33 27 45q4 8 12.5 11t16.5 0l64-21q12-4 16-15t-2-22zm-86 85q-13 0-24.5-6.5T168 196l-5-9v117q7-1 15-4l54-18q20-6 31.5-22.5T275 223v-21l-48 16q-8 3-16 3zm28-139q-2 7-8 9l-76 25q-2 1-4 1t-4-1l-46-16 65-64q7-8 17.5-8t17.5 8l35 34q5 5 3 12zM61 88q-7-2-8.5-8.5T56 68l58-57q7-7 17.5-7t17.5 7l4 4-5 4-74 74-13-5z"/></svg>