<svg viewBox="0 0 300 316" xmlns="http://www.w3.org/2000/svg"><path d="M150 4q-41 0-75.5 20T20 78.5Q0 113 0 154t20 75.5Q40 264 74.5 284t75.5 20q41 0 75.5-20t54.5-54.5q20-34.5 20-75.5t-20-75.5Q260 44 225.5 24T150 4zm108 87h-40q-13-29-36-58 24 7 44 22t32 37v-1zM110 216h80q-15 31-40 58-25-27-40-58zm80-125h-80q15-30 40-57 25 27 40 57zm-9 39l-4 46q0 4-2.5 7t-6.5 3q-4 0-7-5l-10-20-11 20q-2 5-6.5 5t-7-3q-2.5-3-2.5-7l-4-46q0-3 2-5t4.5-2q2.5 0 4.5 2t2 4l3 34 9-19q2-3 6-3t5 4l10 18 2-34q1-2 2.5-4t4.5-2q3 0 5 2t1 5zM81 144l9 19 3-34q0-2 2-4t4-2q3 0 5 2t2 5l-4 46q-1 4-3.5 7t-6.5 3q-4 0-7-5l-10-20-10 20q-3 5-7 5t-6.5-3q-2.5-3-3.5-7l-4-46q0-3 2-5t4.5-2q2.5 0 4.5 2t2 4l3 34 9-19q2-3 6-3t6 4v-1zm134 37q-3 5-7 5t-6.5-3q-2.5-3-3.5-7l-4-46q0-3 2-5t4.5-2q2.5 0 4.5 2t2 4l3 34 9-19q2-3 6-3t6 4l9 18 3-34q0-2 2-4t4-2q3 0 5 2t2 5l-4 46q-1 4-3.5 7t-6.5 3q-4 0-7-5l-10-20-10 20zM118 33Q95 62 82 92H42q12-22 32-37t44-22zM42 216h40q13 30 36 59-24-7-44-22t-32-36v-1zm140 59q23-29 36-58h40q-12 21-32 36t-44 22z"/></svg>