<svg viewBox="0 0 300 316" xmlns="http://www.w3.org/2000/svg"><path d="M259 63l20 20q2 3 6 3.5t7.5-1Q296 84 298 81t2-7V17q0-6-3.5-9.5T288 4h-58q-4 0-7 2t-4.5 5.5q-1.5 3.5-1 7.5t3.5 6l20 20-91 91-91-91 20-20q3-2 3.5-6t-1-7.5Q80 8 77 6t-7-2H13Q7 4 3.5 7.5T0 16v58q0 4 2 7t5.5 4.5Q11 87 15 86t6-3l20-20 91 91-91 91-20-20q-2-3-6-3.5t-7.5 1Q4 224 2 227t-2 7v57q0 6 3.5 9.5T12 304h58q4 0 7-2t4.5-5.5q1.5-3.5 1-7.5t-3.5-6l-20-20 91-91 91 91-20 20q-3 2-3.5 6t1 7.5q1.5 3.5 4.5 5.5t7 2h57q6 0 9.5-3.5t3.5-9.5v-57q0-4-2-7t-5.5-4.5q-3.5-1.5-7.5-1t-6 3.5l-20 20-91-91 91-91z"/></svg>