<svg viewBox="0 0 300.0037 316" xmlns="http://www.w3.org/2000/svg"><path d="M29 219l69 69q-15 6-30.5 2.5t-27-14.5Q29 265 26 249.5t3-30.5zM92 29q5-1 7.5-5.5T101 14q-1-5-5-8t-9-2Q61 9 39.5 22T3 56q-3 4-2.5 9t5 8q4.5 3 9.5 2.5t8-4.5q12-17 30-28t39-14zm198 175q-5-1-9.5 2t-5.5 8q-3 20-14 37.5T234 281q-5 3-5.5 8.5t2.5 9.5q3 4 8 5t9-2q20-15 33.5-36.5T300 219q1-5-2-9.5t-8-5.5zM252 70l19-20q6-5 4-12t-9-9q-7-2-12 4l-20 19q-26-21-60-23t-62 17L43 88q-12 8-20 20t-9.5 26.5q-1.5 14.5 3 28T31 186l87 87q11 10 24.5 15t28 3q14.5-2 26.5-9.5t19-20.5l45-73q16-28 13.5-60.5T252 70z"/></svg>