<svg viewBox="0 0 300 316" xmlns="http://www.w3.org/2000/svg"><path d="M238 16H63q-17 0-31.5 8.5t-23 23Q0 62 0 79v150q0 17 8.5 31.5t23 22.5q14.5 8 31.5 8h175q16 0 30.5-8t23-22.5Q300 246 300 229V79q0-17-8.5-31.5t-23-23Q254 16 238 16zM81 235q-8 0-13-5.5t-5-13q0-7.5 5-13t13-5.5q8 0 13.5 5.5t5.5 13q0 7.5-5.5 13T81 235zm0-62q-8 0-13-5.5T63 154q0-8 5-13.5t13-5.5q8 0 13.5 5.5T100 154q0 8-5.5 13.5T81 173zm0-63q-8 0-13-5.5t-5-13q0-7.5 5-13T81 73q8 0 13.5 5.5t5.5 13q0 7.5-5.5 13T81 110zm144 119h-87q-6 0-9.5-3.5t-3.5-9q0-5.5 3.5-9t8.5-3.5h88q5 0 8.5 3.5t3.5 9q0 5.5-3.5 9T225 229zm0-63h-87q-6 0-9.5-3.5T125 154q0-5 3.5-8.5t8.5-3.5h88q5-1 8.5 3t3.5 9q0 5-3.5 8.5T225 166zm0-62h-87q-6 0-9.5-3.5t-3.5-9q0-5.5 3.5-9T137 79h88q5 0 8.5 3.5t3.5 9q0 5.5-3.5 9T225 104z"/></svg>