<svg viewBox="0 0 300 316" xmlns="http://www.w3.org/2000/svg"><path d="M218 146q9-10 14.5-22t5.5-26q0-19-9.5-34.5t-25.5-25Q187 29 169 29h-31V16q0-5-4-8.5T125 4q-5 0-8.5 3.5T113 16v13h-13q-21 0-35.5 14.5T50 79v150q0 21 14.5 35.5T100 279h13v12q0 6 3.5 9.5t8.5 3.5q5 0 9-3.5t4-9.5v-12h56q18 0 34-9.5t25.5-25Q263 229 263 210q0-22-12.5-39.5T218 146zm-49-92q18 0 31 13t13 31q0 18-13 30.5T169 141h-31V54h31zM75 79q0-10 7.5-17.5T100 54h13v87H75V79zm25 175q-10 0-17.5-7.5T75 229v-63h38v88h-13zm94 0h-56v-88h56q18 0 31 13t13 31q0 18-13 31t-31 13z"/></svg>