<svg viewBox="0 0 300 316" xmlns="http://www.w3.org/2000/svg"><path d="M300 199V60q0-13-5.5-24.5t-16-19.5q-10.5-8-23-11T230 6q-39 9-67 11v219q0 5-4 9t-9 4q-5 0-8.5-4t-3.5-9V17q-29-2-68-11-13-4-25.5-1t-23 11Q11 24 5.5 35.5T0 60v139q0 21 13 38t33 22.5q20 5.5 40 8.5-40 10-74 11-5 0-8.5 4T0 292q0 5 3.5 8.5T12 304h1q40-2 85-14 28-7 52-16 24 9 52 16 45 12 85 14h1q5 0 8.5-3.5t3.5-8.5q0-5-3.5-9t-8.5-4q-34-1-74-11 20-3 40-8.5t33-22.5q13-17 13-38zm-200 30q-35-4-65-11-5-1-8-5.5t-2-9.5q1-5 5.5-8t9.5-1q31 7 62 10 5 1 8 5t2.5 9q-.5 5-4 8t-8.5 3zm0-50q-35-4-65-11-5-1-8-5.5t-2-9.5q1-5 5.5-8t9.5-1q31 7 62 10 5 1 8 5t2.5 9q-.5 5-4 8t-8.5 3zm0-50q-35-4-65-11-5-1-8-5.5t-2-9.5q1-5 5.5-8t9.5-2q30 7 62 11 5 1 8 5t2.5 9q-.5 5-4 8t-8.5 3zm0-50q-35-4-65-11-5-1-8-5.5T25 53q1-5 5.5-8t9.5-2q30 7 62 11 5 1 8 5t2.5 9q-.5 5-4 8t-8.5 3zm98-25q32-4 62-11 5-1 9.5 2t5.5 8q1 5-2 9.5t-8 5.5q-30 7-65 11-5 0-8.5-3t-4-8q-.5-5 2.5-9t8-5zm0 50q32-4 62-11 5-1 9.5 2t5.5 8q1 5-2 9.5t-8 5.5q-30 7-65 11-5 0-8.5-3t-4-8q-.5-5 2.5-9t8-5zm0 50q31-3 62-10 5-2 9.5 1t5.5 8q1 5-2 9.5t-8 5.5q-30 7-65 11-5 0-8.5-3t-4-8q-.5-5 2.5-9t8-5zm2 75q-5 0-8.5-3t-4-8q-.5-5 2.5-9t8-5q31-3 62-10 5-2 9.5 1t5.5 8q1 5-2 9.5t-8 5.5q-30 7-65 11z"/></svg>