<svg viewBox="0 0 300 316" xmlns="http://www.w3.org/2000/svg"><path d="M299 86q-2 12-10.5 20t-20.5 9q-13 2-19 3 1-6 1-12V54q0-10-3-20 19 5 35 15 10 5 15 15.5t2 21.5zm-122 95q8-9 10-20t-3-22l-47-90q-5-12-15-20T99.5 18q-12.5-3-25 0T52 30L39 41q-6 6-13 14-9 10-12 22.5t0 25.5q3 13 11 23t21 16l90 46q7 4 15 4 15 0 26-11zm29-166q-9-7-20-9.5t-22.5 0Q152 8 141 12q12 11 19 26l47 91 2 6q16-19 16-44V54q0-11-5-21.5T206 15zM82 303q12-2 20-10.5t9-20.5l3-19q-6 1-12 1H50q-10 0-20-3 5 19 15 35 5 10 15.5 15t21.5 2zm-32-74h38q24 0 43-16l-6-2-91-47q-15-7-26-19-4 11-6.5 22.5t0 22.5Q4 201 11 210t17.5 14q10.5 5 21.5 5z"/></svg>