<svg viewBox="0 0 300 316" xmlns="http://www.w3.org/2000/svg"><path d="M200 179q5 0 9 3.5t4 9q0 5.5-4 9t-9 3.5q-5 0-9-3.5t-4-9q0-5.5 4-9t9-3.5zm-62 12q0 6 3.5 9.5t8.5 3.5q5 0 9-3.5t4-9q0-5.5-4-9t-9-3.5q-5 0-9 3.5t-4 9.5l1-1zm-50 0q0 6 3.5 9.5t8.5 3.5q5 0 8.5-3.5t3.5-9q0-5.5-3.5-9T100 179q-5 0-8.5 3.5T88 192v-1zm0 38q-6 0-9.5 3.5t-3.5 9q0 5.5 3.5 9t9 3.5q5.5 0 9-3.5t3.5-9q0-5.5-3.5-9T87 229h1zm50 0q-6 0-9.5 3.5t-3.5 9q0 5.5 3.5 9t9 3.5q5.5 0 9-3.5t3.5-9q0-5.5-3.5-9T138 229zm50 0q-6 0-9.5 3.5t-3.5 9q0 5.5 3.5 9t9 3.5q5.5 0 9-3.5t3.5-9q0-5.5-3.5-9T188 229zm37-161q-7-1-10-7-14-31-44.5-46T106 6q-31 5-52.5 27.5T26 87q-3 18 1 36 1 7-4 11-14 13-19.5 31t-1 36.5Q7 220 20 233.5T52 252q-3-10-1-19t8.5-16.5Q66 209 64 200t-.5-17q1.5-8 7-15t13-10.5Q91 154 100 154q6-1 14 3 6 3 10 3.5t10.5-3Q141 154 150 154q6 0 14 3 5 2 9.5 2.5T184 158q12-6 25-2.5t21 14q8 10.5 7.5 23.5t-9.5 23q-4 5-4 10-1 4 0 10 2 11-1 16 36-7 57-34 19-24 19.5-56.5T281 103q-20-27-56-35zm-50 211q-5 0-9 3.5t-3.5 9q.5 5.5 4 9t8.5 3.5q5 0 9-3.5t4-9q0-5.5-4-9t-9-3.5zm-50 0q-5 0-8.5 3.5t-4 9q-.5 5.5 3.5 9t9 3.5q5 0 9-3.5t4-9q0-5.5-4-9t-9-3.5zm-50 0q-5 0-8.5 3.5t-3.5 9q0 5.5 3.5 9T75 304q5 0 8.5-3.5t4-9q.5-5.5-3.5-9t-9-3.5z"/></svg>