<svg viewBox="0 0 300 316" xmlns="http://www.w3.org/2000/svg"><path d="M289 127l-26-26V79q0-16-11-27t-27-10h-22l-26-27Q166 4 150 4t-27 11L97 41H75q-16 0-27 11T37 79v22l-26 26Q0 138 0 154t11 27l27 26v22q0 16 10.5 27T75 267h22l26 26q11 11 27 11t27-11l26-27h22q16 0 26.5-10.5T262 229v-22l27-26q11-11 11-27t-11-27zM150 241q-8 0-13.5-5t-5.5-13q0-8 5.5-13.5T150 204q8 0 13.5 5.5T169 223q0 8-5.5 13t-13.5 5zm18-79q-2 1-4 4.5t-2 6.5v6q1 5-3 9t-9 4q-5 0-8.5-4t-3.5-9v-6q0-10 5-19.5t13-13.5q3-2 5-5.5t1.5-7.5q-.5-4-3.5-7t-7-3q-6-1-10 2.5t-4 9q0 5.5-4 9.5t-9 4q-5 0-8.5-4t-3.5-9q0-17 13-28.5t31-8.5q11 2 19.5 10.5t10.5 20q2 11.5-3 22.5t-16 17z"/></svg>