<svg viewBox="0 0 300 316" xmlns="http://www.w3.org/2000/svg"><path d="M121 161q-9-9-22-7t-20 13q-5 8-4 16.5t7 15.5l22 29q3 4 2.5 9.5T102 246q-4 3-9 2.5t-9-4.5l-22-29q-11-13-12-30t7-31q2-3 6-7V74q0-12-8.5-22t-21-11q-12.5-1-23 8T0 72v132q0 20 7.5 38.5T30 275l22 22q7 7 17 7h94q5 0 8.5-3.5t3.5-9.5v-47q0-16-6-30t-18-25l-30-28zM266 41q-12 1-20.5 11T237 74v73q4 4 6 7 8 14 7 31t-12 30l-38 38v39q0 6-2 12h33q10 0 17-7l22-22q15-14 22.5-32.5T300 204V72q0-14-10-23t-24-8zm-45 126q-7-11-20-13t-22 7l-11 10h1q21 20 28 50l21-22q6-7 7-15.5t-4-16.5zm-8-129q0 18-20 43-14 17-33 32-5 4-10 4t-10-4q-19-15-33-32-19-25-19-43-1-13 8-23t22.5-10q13.5 0 23 10t8.5 23q-1-13 8.5-23t23-10Q195 5 204 15t9 23z"/></svg>