<svg viewBox="0 0 300 316" xmlns="http://www.w3.org/2000/svg"><path d="M275 186v-20q0-20-14.5-35T225 116.5q-21 .5-35.5 15T175 167v19q-11 6-18 17.5t-7 25.5v25q0 21 14.5 35.5T200 304h50q21 0 35.5-14.5T300 254v-25q0-14-7-25.5T275 186zm-50 74q-8 0-13.5-5.5t-5.5-13q0-7.5 5.5-13T225 223q8 0 13.5 5.5t5.5 13q0 7.5-5.5 13T225 260zm25-81h-50v-13q0-10 7.5-17.5T225 141q10 0 17.5 7.5T250 166v13zm-150-25q20 0 37.5-10t27.5-27.5Q175 99 175 79t-10-37.5Q155 24 137.5 14T100 4Q80 4 62.5 14T35 41.5Q25 59 25 79t10 37.5Q45 134 62.5 144t37.5 10zm25 100q0 29 19 50H13q-6 0-9.5-3.5T0 291v-9q0-25 11.5-47.5T43 197q20-15 46-17 17-2 34 2 6 1 8 6.5t0 10.5q-6 15-6 30v25z"/></svg>