<svg viewBox="0 0 300 316" xmlns="http://www.w3.org/2000/svg"><path d="M150 103q8 0 13.5-5.5T169 84q0-8-5.5-13.5T150 65q-8 0-13.5 5.5T131 84q0 8 5.5 13.5T150 103zM250 4H50Q29 4 14.5 19T0 55v152q0 21 14.5 35.5T50 258h37l46 40q7 6 16.5 6t16.5-6l48-40h36q21-1 35.5-15.5T300 207V55q0-21-14.5-36T250 4zM150 42q20 1 31.5 14T193 86.5q0 17.5-11.5 30.5T150 130q-20 0-31.5-13T107 86.5Q107 69 118.5 56T150 42zm53 177q-5 1-9.5-1.5T188 210q-5-16-19.5-23.5T138 184q-9 3-16 10t-10 16q-1 5-5.5 7.5T97 219q-5-1-7.5-5.5T88 204q5-17 17-29t29-16.5q17-4.5 33.5.5t28.5 16.5q12 11.5 16 28.5 1 5-1.5 9.5T203 219z"/></svg>