<svg viewBox="0 0 300 316" xmlns="http://www.w3.org/2000/svg"><path d="M300 291q0 6-3.5 9.5T288 304H13q-6 0-9.5-3.5t-3.5-9q0-5.5 3.5-9T13 279h275q5 0 8.5 3.5t3.5 8.5zM19 41q8 0 13.5-5T38 23q0-8-5.5-13.5T19 4Q11 4 5.5 9.5T0 23q0 8 5.5 13T19 41zm0 63q8 0 13.5-5.5T38 85q0-8-5.5-13.5T19 66q-8 0-13.5 5.5T0 85q0 8 5.5 13.5T19 104zm262-38q-8 0-13 5.5T263 85q0 8 5 13.5t13 5.5q8 0 13.5-5.5T300 85q0-8-5.5-13.5T281 66zM19 241q8 0 13.5-5t5.5-13q0-8-5.5-13.5T19 204q-8 0-13.5 5.5T0 223q0 8 5.5 13t13.5 5zm262-37q-8 0-13 5.5t-5 13.5q0 8 5 13t13 5q8 0 13.5-5t5.5-13q0-8-5.5-13.5T281 204zm0-163q8 0 13.5-5t5.5-13q0-8-5.5-13.5T281 4q-8 0-13 5.5T263 23q0 8 5 13t13 5zm-62 0q8 0 13.5-5t5.5-13q0-8-5.5-13.5T219 4q-8 0-13.5 5.5T200 23q0 8 5.5 13t13.5 5zm-69 0q8 0 13.5-5t5.5-13q0-8-5.5-13.5T150 4q-8 0-13.5 5.5T131 23q0 8 5.5 13t13.5 5zm-69 0q8 0 13.5-5t5.5-13q0-8-5.5-13.5T81 4q-8 0-13.5 5.5t-5 13.5q.5 8 5.5 13t13 5zM19 173q8 0 13.5-5.5T38 154q0-8-5.5-13.5T19 135q-8 0-13.5 5.5T0 154q0 8 5.5 13.5T19 173zm262-38q-8 0-13 5.5t-5 13.5q0 8 5 13.5t13 5.5q8 0 13.5-5.5T300 154q0-8-5.5-13.5T281 135zm-62 38q8 0 13.5-5.5T238 154q0-8-5.5-13.5T219 135q-8 0-13.5 5.5T200 154q0 8 5.5 13.5T219 173zm-69 0q8 0 13.5-5.5T169 154q0-8-5.5-13.5T150 135q-8 0-13.5 5.5T131 154q0 8 5.5 13.5T150 173zm-69 0q8 0 13.5-5.5T100 154q0-8-5.5-13.5T81 135q-8 0-13.5 5.5t-5 13.5q.5 8 5.5 13.5t13 5.5zm69 68q8 0 13.5-5t5.5-13q0-8-5.5-13.5T150 204q-8 0-13.5 5.5T131 223q0 8 5.5 13t13.5 5zm0-137q8 0 13.5-5.5T169 85q0-8-5.5-13.5T150 66q-8 0-13.5 5.5T131 85q0 8 5.5 13.5T150 104z"/></svg>