<svg viewBox="0 0 300 316" xmlns="http://www.w3.org/2000/svg"><path d="M150 79q-5 0-9-3.5t-3.5-9q.5-5.5 4-9T150 54q5 0 9 3.5t4 9q0 5.5-4 9t-9 3.5zm85-48q13 15 20 33.5t7 39.5q0 31-15 56.5t-40.5 41Q181 217 150 216.5T93.5 201Q68 186 53 160.5T38 104q0-21 7-39.5T65 31Q35 51 17.5 83.5T0 154q0 41 20 75.5T74.5 284q34.5 20 75.5 20t75.5-20q34.5-20 54.5-54.5t20-75.5q0-38-17.5-70.5T235 31zm-85 73q-8 0-13.5 5.5T131 123q0 8 5.5 13t13.5 5q8 0 13.5-5t5.5-13q0-8-5.5-13.5T150 104zm-87 0q-1-24 11-44t32-31.5q20-11.5 44-12T194 28q20 12 31.5 32t11.5 44q0 24-11.5 44T194 179.5Q174 191 150 191t-44-11.5Q86 168 74 148t-11-44zm58-14q-15 13-15 32t13 31.5q13 12.5 31 12.5t31-12.5q13-12.5 13-31.5t-15-32q9-10 9-24 0-15-11-26t-27-11q-16 0-27 11t-10 27q0 13 8 23z"/></svg>