<svg viewBox="0 0 300 316" xmlns="http://www.w3.org/2000/svg"><path d="M98 206q-4-4-7.5-8.5t-3-10q.5-5.5 5-8.5t9.5-2q5 1 8 4.5t6 6.5q15 16 37 16t38-16l68-68q16-16 16-38t-15.5-37.5Q244 29 222 29t-38 16l-13 13q-4 3-9 3t-8.5-3.5Q150 54 150 49t3-9l14-13q15-15 35-20.5t40 0Q262 12 277 27t20.5 35q5.5 20 0 40T277 137l-69 69q-11 11-25 17t-29.5 6q-15.5 0-30-6T98 206zm-20 98q16 0 30-6t25-17l14-13q3-4 3-9t-3.5-8.5Q143 247 138 247t-9 3l-13 13q-16 16-38 16t-37.5-15.5Q25 248 25 226t16-38l68-68q16-16 38-16t37 16q3 3 6 6.5t8 4.5q5 1 9.5-2t5-8.5q.5-5.5-2.5-10t-8-8.5q-11-11-25-17t-30-6q-16 0-30 6t-25 17l-69 69q-11 11-17 25t-6 30q0 16 6 30t17 25q11 11 25.5 17t29.5 6z"/></svg>