<svg viewBox="0 0 300 316" xmlns="http://www.w3.org/2000/svg"><path d="M200 304H100q-13 0-23-8t-13-20q5-31 29.5-51.5T150 204q32 0 56.5 20.5T236 276q-3 12-13 20t-23 8zM38 266v-94q-18 7-28 22.5T0 229v12q0 22 14 39.5T49 302q-11-16-12-36h1zm225-94v94q-1 20-12 36 21-4 35-21.5t14-39.5v-12q0-19-10-34.5T263 172zm-25-31v80q-16-20-39-31t-49-11q-26 0-49 11t-39 31v-80q1-21 10.5-40T100 70V54q0-21 14.5-35.5T150 4q21 0 35.5 14.5T200 54v16q18 12 27.5 31t10.5 40zM125 58q25-8 50 0v-4q0-10-7.5-17.5T150 29q-10 0-17.5 7.5T125 54v4zm63 71q0-5-4-9t-9-4h-50q-5 1-8.5 4.5T113 129q0 5 3.5 9t8.5 4h50q5-1 9-4.5t4-8.5z"/></svg>