<svg viewBox="0 0 300 316" xmlns="http://www.w3.org/2000/svg"><path d="M150 204q-21 0-35.5-14.5T100 154q0-21 14.5-35.5T150 104q21 0 35.5 14.5T200 154q0 21-14.5 35.5T150 204zm-79 0H13q-6 0-9.5-3.5T0 191q0-27 18.5-48T64 118q7-1 11.5 4t2.5 11q-3 10-3 21 0 17 7 32 3 6-.5 12T71 204zm142 100H88q-6 0-9.5-3.5T75 292q0-21 10-38t27.5-27.5Q130 216 150 216t37.5 10.5Q205 237 215 254t10 37q0 6-3.5 9.5T213 304zm12-200q-21 0-35.5-14.5T175 54q0-21 14.5-35.5T225 4q21 0 35.5 14.5T275 54q0 21-14.5 35.5T225 104zm-150 0q-21 0-35.5-14.5T25 54q0-21 14.5-35.5T75 4q21 0 35.5 14.5T125 54q0 21-14.5 35.5T75 104zm213 100h-59q-7 0-10.5-6t-.5-12q7-15 7-32 0-11-3-21-2-6 2.5-11t11.5-4q27 4 45.5 25t18.5 49q0 5-3.5 8.5T288 204z"/></svg>