<svg viewBox="0 0 300 316" xmlns="http://www.w3.org/2000/svg"><path d="M298 112q-4-13-14.5-20.5T260 84h-55l-17-52q-4-13-14.5-20.5T150 4q-13 0-23.5 7.5T112 32L95 84H40q-13 0-23.5 7.5T2 111.5q-4 12.5 0 25T17 157l44 32-17 52q-4 13 0 25.5t15 20q11 7.5 24 7.5t23-8l44-32 44 32q10 8 23 8t24-7.5q11-7.5 15-20t0-25.5l-17-52 44-32q11-8 15-20.5t0-24.5zM138 79q0-5 3.5-8.5T150 67q5 0 8.5 3.5T162 79v87q1 6-3 9.5t-9 3.5q-5 0-8.5-3.5T138 167V79zm12 150q-8 0-13.5-5.5T131 210q0-8 5.5-13.5t13.5-5q8 .5 13.5 5.5t5.5 13q0 8-5.5 13.5T150 229z"/></svg>