<svg viewBox="0 0 300 316" xmlns="http://www.w3.org/2000/svg"><path d="M213 285q0 8-5.5 13.5T194 304q-8 0-13.5-5.5T175 285q0-8 5.5-13t13.5-5.5q8-.5 13.5 5T213 285zm68-156q8 0 13.5-5.5T300 110q0-8-5.5-13.5T281 91q-8 0-13 5.5t-5 13.5q0 8 5 13.5t13 5.5zM106 266q-8 0-13.5 5.5T87 285q0 8 5.5 13.5T106 304q8 0 13.5-5.5T125 285q0-8-5.5-13.5T106 267v-1zm175 0q-8 0-13 5.5t-5 13.5q0 8 5 13.5t13 5.5q8 0 13.5-5.5T300 285q0-8-5.5-13t-13.5-5v-1zm0-87q-8 0-13.5 5.5t-5 13.5q.5 8 5.5 13.5t13 5.5q8 0 13.5-5.5T300 198q0-8-5.5-13.5T281 179zm-43 44q-8 0-13.5 5.5t-5.5 13q0 7.5 5.5 13t13 5.5q7.5 0 13-5.5t5.5-13q0-7.5-5.5-13T238 223zm-88 0q-8 0-13.5 5.5t-5.5 13q0 7.5 5.5 13T150 260q8 0 13.5-5.5t5.5-13q0-7.5-5.5-13T150 223zm44-44q-8 0-13.5 5.5T175 198q0 8 5.5 13.5t13.5 5q8-.5 13.5-5.5t5-13q-.5-8-5.5-13.5t-13-5.5zm44-44q-8 0-13.5 5.5T219 154q0 8 5.5 13.5t13 5.5q7.5 0 13-5.5T256 154q0-8-5.5-13.5T238 135zM88 228q-5 0-9-3.5t-8-9.5l-33 19q-3 2-7 2-7 0-10-5.5T19.5 220q1.5-5 5.5-8l33-19q-5-13-7-26H13q-6 0-9.5-4T0 154q0-5 3.5-8.5T13 142h38q2-14 7-27L25 96q-5-3-6-8t1.5-9.5q2.5-4.5 7.5-6T38 74l33 19q4-6 8.5-10T90 74L70 41q-2-4-1-9t5.5-7.5Q79 22 84 23t8 6l19 33q13-5 26-7V16q0-5 4-8.5t9-3.5q5 0 8.5 3.5T162 17v38q14 2 27 7l19-33q3-5 8-6t9.5 1.5Q230 27 231 32t-1 9l-19 34q5 4 9 8t4 9q0 5-3 9L97 225q-4 3-9 3z"/></svg>