<svg viewBox="0 0 300 316" xmlns="http://www.w3.org/2000/svg"><path d="M63 66q-1-16 7.5-30.5t23-23Q108 4 125 4t31.5 8.5Q171 21 179 35.5t8.5 31q.5 16.5-8 31t-23 23Q142 129 125 129t-31.5-8.5Q79 112 71 97.5T63 66zM288 4h-63q-5 0-8.5 3.5t-3.5 9q0 5.5 3.5 9T225 29v67q0 6 5.5 7.5t9.5-2.5l16-22 17 22q3 4 9 2.5t6-7.5V29q5 0 8.5-3.5t3.5-9q0-5.5-3.5-9T287 4h1zm-50 250H13q-6 0-9.5 3.5t-3.5 9q0 5.5 3.5 9T13 279v12q-1 6 3 9.5t9 3.5h200q5 0 8.5-3.5t3.5-9.5v-12q6 0 9.5-3.5t3.5-9q0-5.5-3.5-9T237 254h1zm-106-73l12 48h68q5 0 8-4t2-9q-7-25-24.5-43.5T155 146l-23 35zm-94 48h68l12-48-23-35q-25 8-42.5 26.5T28 216q-1 5 2 9t8 4z"/></svg>