<svg viewBox="0 0 300.0026 316" xmlns="http://www.w3.org/2000/svg"><path d="M19 48q0-13 9-22.5T50 16q13 0 22 9.5T81 48q0 13-9 22t-22 9q-13 0-22-9t-9-22zm19 168v38q0 2-1 4l-13 37q-1 4-4.5 6.5t-6 2.5q-2.5 0-4.5-1-5-1-7.5-6t-.5-9l12-36V129q0-15 10.5-26T49 91h53q5 0 9-3l24-24q4-4 9-4t8.5 4q3.5 4 3.5 9t-3 9l-24 23q-11 11-27 11H75v75h38q10 0 17.5 7.5T138 216v25q0 6-4 9.5t-9 3.5q-5 0-8.5-3.5T113 241v-25H38zM171 99l7-3q-3-8-3-17t3-17l-7-3q-5-3-6-8t1.5-9.5q2.5-4.5 7.5-6t9 1.5l7 4q12-13 29-17v-8q0-5 3.5-8.5T231 4q5 0 9 3.5t4 8.5v8q17 4 28 17l7-4q5-3 10-1.5t7.5 6q2.5 4.5 1 9.5t-5.5 8l-7 3q3 8 3 17t-3 17l7 3q4 3 5.5 8t-1.5 10.5q-3 5.5-11 5.5-3 0-6-2l-7-4q-11 13-28 17v7q0 6-4 9.5t-9 3.5q-5 0-8.5-3.5T219 142v-8q-17-4-29-17l-7 4q-3 2-6 2-7 0-10-5.5t-2-10.5q1-5 6-8zm42-20q0 8 5 13.5t13 5.5q8 0 13.5-5.5T250 79q0-8-5.5-13.5T231 60q-8 0-13 5.5T213 79zm85 93q-3-4-8-5t-10 2L118 282q-4 2-5 7.5t2 10q3 4.5 10 4.5 4 0 7-2l163-113q4-3 5-8t-2-9z"/></svg>