<svg viewBox="0 0 300 316" xmlns="http://www.w3.org/2000/svg"><path d="M250 304H50q-5 0-8.5-3.5T38 291q0-20 10-37t27-27.5Q92 216 113 216h75q20 0 37 10.5t27 27.5q10 17 10 37 1 6-3 9.5t-9 3.5zm6-225h-6q0-21-14.5-35.5T200 29h-37V16q0-5-4-8.5T150 4q-5 0-9 3.5t-4 9.5v12h-37q-21 0-35.5 14.5T50 79h-6q-8 0-13.5 5.5T25 98v25q0 8 5.5 13t13.5 5h6q0 21 14.5 35.5T100 191h100q21 0 35.5-14.5T250 141h6q8 0 13.5-5t5.5-13V98q0-8-5.5-13.5T256 79zm-125 38q3 4 3 9t-3.5 8.5Q127 138 122 138t-9-3l-7-7-7 7q-3 3-8.5 3t-9-3.5Q78 131 78 126t4-9l7-7-7-7q-4-3-4-8.5t3.5-9q3.5-3.5 9-3.5t8.5 4l7 7 7-7q4-4 9-4t8.5 3.5q3.5 3.5 3.5 9t-3 8.5l-7 7 7 7zm87 0q4 4 4 9t-3.5 8.5q-3.5 3.5-9 3.5t-8.5-3l-7-7-7 7q-4 3-9 3t-8.5-3.5Q166 131 166 126t3-9l7-7-7-7q-3-3-3-8.5t3.5-9Q173 82 178 82t9 4l7 7 7-7q3-4 8.5-4t9 3.5q3.5 3.5 3.5 9t-4 8.5l-7 7 7 7z"/></svg>