<svg viewBox="0 0 300 316" xmlns="http://www.w3.org/2000/svg"><path d="M275 235q0 24-16 40-13 15-37 22-20 7-41 7h-25q-37 0-73.5-21.5t-59.5-55Q0 194 0 160q0-50 26-93H7q-5 0-6.5-4T2 56q15-16 33-29.5T66 5q4-2 8 0t4 7q0 30-10 80-1 5-6.5 5.5T55 93l-9-20-6 15q-8 17-10 28-5 19-5 43.5T45 208q18 23 46 37.5t53 14.5q15 0 27-4 17-5 17-14 0-6-5.5-11.5T167 219l-41 10q-4 1-6-2t-1-6l15-24-8-6H81q-4 0-5.5-3.5T77 181l23-16q-4-6-6-11l-38-3q-4-1-5-5t2-6l35-20q0-17 9-30 2-3 6.5-4t7.5 2q9 6 19 12-5 14-5 29 0 10 2 22 2 6 7 8.5t10-.5q29-16 44-24h1q8-4 13.5-3t10.5 7q32 25 46 45 15 22 16 51zM250 66h38q5 0 8.5-3.5T300 54q0-5-3.5-9t-8.5-4h-44q-4-5-11-8.5T219 29h-9q-9-9-13-19l-1-2q-2-4-4-4t-3.5 1.5Q187 7 187 9q0 13 2 25-9-5-32-25l-5-4q-3-2-6 0t-3 5q2 8 9 21 6 12 12 21-14-2-46-8l-12-2q-4-1-5.5 2t.5 6q9 9 25 19 19 12 38 18-5 5-8.5 15.5T150 122q-1 4 2 6t7 0l8-5q12-9 19-13 12-6 20-6 21 0 39 8 12 5 22 14 3 3 8.5 3t9-4q3.5-4 3-9t-4.5-9q-21-19-51-25 1-7 5-10.5t9-4.5l4-1z"/></svg>