<svg viewBox="0 0 300 316" xmlns="http://www.w3.org/2000/svg"><path d="M163 54H63q-17 0-31.5 8.5t-23 23Q0 100 0 117v74q0 17 8.5 31.5t23 23Q46 254 63 254h100q16 0 30.5-8.5t23-23Q225 208 225 192v-76q0-16-8.5-30.5t-23-23Q179 54 162 54h1zm-13 112h-25v25q0 6-3.5 9.5t-9 3.5q-5.5 0-9-3.5T100 192v-26H75q-5 0-8.5-3.5T63 154q0-5 3.5-8.5T75 142h25v-26q0-5 3.5-8.5t9-3.5q5.5 0 9 3.5t3.5 9.5v24h25q5 0 8.5 4t4 9q.5 5-3.5 8.5t-9 3.5zm150-58v91q0 7-3.5 13t-9.5 9q-6 3-12 3-8 0-15-5l-10-10V98l10-10q6-4 13-5t13.5 2.5q6.5 3.5 10 9.5t3.5 13z"/></svg>