<svg viewBox="0 0 300.0014 316" xmlns="http://www.w3.org/2000/svg"><path d="M0 95q0-28 20.5-48.5T76 15q35-11 74-11t74 11q35 11 55.5 31.5T300 95q0 12-6 22.5T277 135l-32-46q-12-17-30-23-32-12-65-12T85 66q-18 6-30 23l-32 46q-11-7-17-17.5T0 95zm188 96q0 16-11 27t-27 11q-16 0-27-11t-10.5-26.5q.5-15.5 11-26.5t26.5-11q16 0 26.5 11t10.5 26h1zm112 65q0 20-15 34t-35 14H50q-20 0-35-14T0 256q-1-32 13-61 3-5 7-11l51-77q10-13 26-19 26-9 53-9t53 9q16 6 26 19l55 82q17 32 16 67zm-87-65q0-16-8.5-30.5t-23-23Q167 129 150 129t-31.5 8.5Q104 146 96 160.5t-8 31q0 16.5 8 31t22.5 23Q133 254 150 254t31.5-8.5q14.5-8.5 22.5-23t8-30.5l1-1z"/></svg>