<svg viewBox="0 0 300 316" xmlns="http://www.w3.org/2000/svg"><path d="M138 229h25v12q-1 17-9 31.5t-22.5 23Q117 304 100 304H63q-17 0-31.5-8.5t-23-23Q0 258 0 241v-37q0-17 8.5-31.5t23-22.5q14.5-8 30.5-8h13v24q0 17 8.5 31.5t23 23Q121 229 137 229h1zm-38-63q0 16 11 27t27 11q0-16-11-27t-27-11zM238 4H138q-17 0-31.5 8.5t-23 23Q75 50 75 66v75h25q19 1 34 11l73-73h-32q-5 0-9-3.5t-3.5-9q.5-5.5 4-9T175 54h38q15 0 26 11t11 27v37q0 5-3.5 9t-9 3.5q-5.5-.5-9-4T225 129V97l-73 73q10 15 10 34v25h76q16 0 30.5-8.5t23-23Q300 183 300 167V67q0-17-8.5-31.5t-23-23Q254 4 238 4z"/></svg>