<svg viewBox="0 0 300 316" xmlns="http://www.w3.org/2000/svg"><path d="M179 26q-4-3-4-8.5t3-9.5q3-4 8.5-4t9.5 3q8 7 14 16 2-5 5-8 9-9 27-11 3 0 5.5 2.5T250 12q-2 17-11 27l-4 3q22 3 37.5 20.5T288 104q0 13-5 25h-86q3-13 3-25 0-18-6.5-33.5T176 42q5-1 8-1h7q-4-8-11-15h-1zm-9 103q5-12 5-25 0-24-15.5-41.5T122 42l4-3q10-9 11-27 1-3-1.5-5.5T129 4q-17 2-26 11-3 3-6 8-6-9-14-16-4-3-9-2.5t-8.5 4q-3.5 3.5-3 9T67 26q7 7 12 16h-7q-16 0-30 8T20.5 72.5Q13 87 13 104q0 13 5 25h152zM63 304h175q16 0 30.5-8.5t23-23Q300 258 300 241H0q0 17 8.5 31.5t23 23Q46 304 63 304zm237-88v-25q0-15-11-26t-26-11H38q-16 0-27 11T0 191v25h300z"/></svg>