<svg viewBox="0 0 300 316" xmlns="http://www.w3.org/2000/svg"><path d="M288 141q-6 0-9.5-3.5T275 129q0-27-13.5-50T225 42.5Q202 29 175 29q-5 0-9-3.5t-3.5-9q.5-5.5 4-9T175 4q34 0 62.5 17T283 66.5Q300 95 300 129q0 5-3.5 9t-8.5 4v-1zm-38-12q0-20-10-37.5T212.5 64Q195 54 175 54q-5 0-9 3.5t-3.5 9q.5 5.5 4 9T175 79q21 0 35.5 14.5T225 129q0 5 3.5 9t9 3.5q5.5-.5 9-4t3.5-8.5zm27 152l12-13q11-11 11-27t-11-28l-31-23q-11-11-26.5-11T205 190l-24 20q-30-12-52.5-34.5T94 123l20-24q11-11 11-26.5T114 46L91 15Q80 4 64 4T37 15L22 27Q-2 55 1 94q2 35 26 74 21 36 55.5 68t72 50.5Q192 305 222 304q16 0 30-6t25-17z"/></svg>