<svg viewBox="0 0 300 316" xmlns="http://www.w3.org/2000/svg"><path d="M238 4h-50q-17 0-31.5 8.5t-23 23Q125 50 125 67v174q0 17 8.5 31.5t23 23Q171 304 188 304h50q16 0 30.5-8.5t23-23Q300 258 300 241V66q0-16-8.5-30.5t-23-23Q254 4 238 4zm-25 62q10 0 17.5 7.5t7.5 18q0 10.5-7.5 17.5t-18 7q-10.5 0-17.5-7t-7-17.5q0-10.5 7-18t18-7.5zm0 188q-21 0-36-14.5T162.5 204q.5-21 15-35.5t35-14.5q20.5 0 35.5 14.5t15 35.5q0 21-15 35.5T212 254h1zm-113-72v44q-6 3-13 3-10 0-17-7.5T63 204q0-10 7-17.5t18-7.5q6 0 12 3zm25 121q-6 1-13 1H63q-17 0-31.5-8.5t-23-23Q0 258 0 241V66q0-16 8.5-30.5t23-23Q46 4 63 4h50q6 0 12 1-12 12-18.5 28T100 67v3q-6-4-13-4-10 0-17 7.5t-7 18q0 10.5 7 17.5t18 7q6 0 12-3v43q-7-2-12-2-21 0-35.5 14.5T38 204q0 21 14.5 35.5T87 254q6 0 14-2 3 29 24 51zm63-99q0-10 7-17.5t17.5-7.5q10.5 0 17.5 7.5t7.5 17.5q.5 10-7 17.5t-18 7.5q-10.5 0-17.5-7.5t-7-17.5z"/></svg>