<svg viewBox="0 0 300 316" xmlns="http://www.w3.org/2000/svg"><path d="M250 204H50q-21 0-35.5-14.5T0 154v-13q0-20 14.5-35T50 91h200q21 0 35.5 15t14.5 35v13q0 21-14.5 35.5T250 204zM63 291v-50q0-5-4-8.5t-9-3.5q-5 0-8.5 3.5T38 241v50q0 6 3.5 9.5T50 304q5 0 9-3.5t4-9.5zm50 0v-50q0-5-4-8.5t-9-3.5q-5 0-8.5 3.5T88 241v50q0 6 3.5 9.5t8.5 3.5q5 0 9-3.5t4-9.5zm50 0v-50q0-5-4-8.5t-9-3.5q-5 0-8.5 3.5T138 241v50q0 6 3.5 9.5t8.5 3.5q5 0 9-3.5t4-9.5zm50 0v-50q0-5-4-8.5t-9-3.5q-5 0-8.5 3.5T188 241v50q0 6 3.5 9.5t8.5 3.5q5 0 9-3.5t4-9.5zm50 0v-50q0-5-4-8.5t-9-3.5q-5 0-8.5 3.5T238 241v50q0 6 3.5 9.5t8.5 3.5q5 0 9-3.5t4-9.5zM237 66V48q0-18-12.5-31T194 4h-88Q88 4 75 17T62 48v18h175z"/></svg>