<svg viewBox="0 0 300 316" xmlns="http://www.w3.org/2000/svg"><path d="M25 129v112q0 17 8.5 31.5t23 23Q71 304 87 304h126q16 0 30.5-8.5t23-23Q275 258 275 241V129H25zm213 112q0 11-7.5 18t-17.5 7H88q-11 0-18-7t-7-18v-50q0-10 7-17.5t18-7.5h125q10 0 17.5 7.5T238 191v50zm-25-50v50H88v-50h125zm62-87V66q0-16-8.5-30.5t-23-23Q229 4 212 4H88q-17 0-31.5 8.5t-23 23Q25 50 25 67v37h250zm-56-63q8 1 13.5 6t5.5 13q0 8-5.5 13.5T219 79q-8 0-13.5-5.5T200 60q0-8 5.5-13.5T219 41zm-69 0q8 1 13.5 6t5.5 13q0 8-5.5 13.5T150 79q-8 0-13.5-5.5T131 60q0-8 5.5-13.5T150 41zm-69 0q8 1 13.5 6t5.5 13q0 8-5.5 13.5T81 79q-8 0-13-5.5T63 60q0-8 5-13.5T81 41z"/></svg>