<svg viewBox="0 0 300 316" xmlns="http://www.w3.org/2000/svg"><path d="M0 154V66q0-16 8.5-30.5t23-23Q46 4 62 4h151q16 0 30.5 8.5t23 23Q275 50 275 66v88h-50V66q0-5-3.5-8.5t-9-3.5q-5.5 0-9 3.5T200 66v88h-25V66q0-5-3.5-8.5t-9-3.5q-5.5 0-9 3.5T150 66v88h-25V66q0-5-3.5-8.5t-9-3.5q-5.5 0-9 3.5T100 66v88H75V66q0-5-3.5-8.5t-9-3.5q-5.5 0-9 3.5T50 66v88H0zm100 150q16 0 27-11t11-26.5q0-15.5-11-26.5t-27-11q-16 0-26.5 11T63 266.5Q63 282 73.5 293t26.5 11zm188-63h-13v-62H0v25q0 19 10.5 34.5T38 261q3-28 22-43 18-14 42.5-13t40.5 16q19 17 19 45h126q5 0 8.5-3.5t3.5-8.5q0-5-3.5-8.5T288 242v-1z"/></svg>