<svg viewBox="0 0 300 316" xmlns="http://www.w3.org/2000/svg"><path d="M188 60q0 3-2 5t-4 2h-7V54h7q2 0 4 2t2 4zm-6 19h-7v12h7q2 0 4-1.5t2-4q0-2.5-2-4.5t-4-2zm-32 76q0-9-6-16.5t-15-9.5q-11-2-20 6t-9 19v110l-27-22q-8-8-20-7.5t-20 9q-8 8.5-8 20.5t9 20l23 20h206v-7q0-20-11-36t-29-23l-73-28v-55zm150-95v25q0 24-16.5 40.5T244 142h-71q-4-15-14.5-25T133 105q-11-2-21.5 1T93 116q-12 10-16 25H56q-23 0-39.5-16.5T0 85V60q0-23 16.5-39.5T56 4h188q23 0 39.5 16.5T300 60zM85 67q-4-2-11-4l-2-1q-2-1-1.5-3.5T75 55q4-1 8.5 1t7-1q2.5-3 2-6T89 45q-9-5-18-2-6 1-9 5t-4 9q-2 10 8 16l15 6q7 3 6.5 6t-3 4.5Q82 91 78 91t-8-2.5q-4-2.5-7 .5t-3 6q0 3 3 5 7 4 15.5 4T93 99.5q6-4.5 7-11T97.5 76Q94 70 85 67zm65-19q0-3-2-5t-4.5-1.5q-2.5.5-4 2T138 48v37q0 3-2.5 5t-5 1.5q-2.5-.5-4-2.5t-1.5-4V48q0-3-2-5t-4.5-2q-2.5 0-4 2t-1.5 5v37q-1 7 4.5 13t13 6q7.5 0 13.5-5.5t6-13.5V48zm45 25q7-7 5-16-1-7-6.5-11T181 42h-12q-2 0-4 1.5t-2 4.5v50q0 2 2 4t4 2h12q7 0 12.5-4.5T200 87q1-9-5-14zm40-6q-4-2-11-4l-2-1q-2-1-1.5-3.5T225 55q4-1 8.5 1t7-1q2.5-3 2-6t-3.5-4q-9-5-18-2-6 1-9 5t-4 9q-2 10 8 16l15 6q7 3 6.5 6t-3 4.5Q232 91 228 91t-8-2.5q-4-2.5-7 .5t-3 6q0 3 3 5 7 4 15.5 4t14-4.5q5.5-4.5 7-11t-2-12.5q-3.5-6-12.5-9z"/></svg>