<svg viewBox="0 0 300.5 316" xmlns="http://www.w3.org/2000/svg"><path d="M198.5 67q7-5 16-15t11-20q2-10-9-15-4-1-9 1t-6 7q-5 12-15.5 19.5T162.5 53V16q1-5-3-8.5t-9-3.5q-5 0-9 3.5t-4 8.5v37q-12-1-22.5-8.5T99.5 25q-1-5-6-7t-9-1q-11 5-9 15t11 20q9 10 16 15-28 2-52 17.5T13 125Q-.5 150 0 179.5T17 238q16.5 29 44.5 47 30 19 64 19h50q45 0 76-23 29-22 41-56.5t5-70q-7-35.5-31-58.5-27-26-69-29h1zm14 53q-4 12-19 8-13-3-27-13t-16-15q-2 4-16 14.5t-27 13.5q-15 4-19-8-1-5 1.5-9.5t7.5-6.5q12-1 21.5-8t15.5-17h32q6 10 15.5 17t21.5 8q5 2 7.5 6.5t1.5 9.5z"/></svg>