<svg viewBox="0 0 300 316" xmlns="http://www.w3.org/2000/svg"><path d="M264 251q18-21 27-45.5t9-51.5q0-5-3.5-8.5t-9-4q-5.5-.5-9 3.5t-3.5 9q0 22-7.5 42T247 233l-18-18q17-21 20-48h-49q-5-1-8.5-4.5T188 154q0-5 3.5-8.5t8.5-3.5h50v-26h-50q-5 0-8.5-3.5T188 104q0-5 3.5-8.5T200 92h49q-3-25-17-45t-35.5-31.5Q175 4 149.5 4t-48 12.5Q79 29 65 51L21 8q-3-4-8.5-4t-9 3.5Q0 11 0 16.5T4 25l275 275q3 4 8.5 4t9-3.5q3.5-3.5 3.5-9t-4-8.5l-32-32zm-62 17q-25 11-52 11-34 0-62.5-17T42 216.5Q25 188 25 154q0-5-3.5-8.5t-9-3.5q-5.5 0-9 3.5T0 154q0 41 20 75.5T74.5 284q34.5 20 75.5 20 33 0 63-14 4-2 6-7t0-9.5q-2-4.5-7-6.5t-10 1zm-13-22q-19 8-39 8-27 0-50-13.5T63.5 204Q50 181 50 154v-47l139 139z"/></svg>