<svg viewBox="0 0 300 316" xmlns="http://www.w3.org/2000/svg"><path d="M100 141q-5 0-8.5-3.5T88 129q0-5 3.5-9t8.5-3.5q5 .5 8.5 4t4 8.5q.5 5-3.5 9t-9 4v-1zm100-25q-5 0-9 4t-3.5 9q.5 5 4 9t8.5 3.5q5-.5 9-4t4-8.5q0-5-4-9t-9-4zm100 38q0 41-20 75.5T225.5 284Q191 304 150 304q-57-2-95-33-35-29-47.5-73t0-88Q20 66 55 37 93 6 150 4q41 0 75.5 20T280 78.5q20 34.5 20 75.5zm-200 12q16 0 27-10.5t11-26.5q0-16-11-27t-27-11q-16 0-27 11t-10.5 27q.5 16 11 26.5T100 166zm113 50q0-5-4-8.5t-9-3.5H100q-5 0-8.5 3.5t-3.5 9q0 5.5 3.5 9t8.5 3.5h100q5 0 9-3.5t4-9.5zm25-87q-1-16-11.5-27T200 91q-16 0-27 11t-10.5 27q.5 16 11 27t26.5 10.5q16-.5 27-11t11-26.5z"/></svg>