<svg viewBox="0 0 300 316" xmlns="http://www.w3.org/2000/svg"><path d="M300 104q0 5-3.5 9t-8.5 4H125q-5-1-8.5-4.5t-4-8.5q-.5-5 3.5-9t9-4h163q5 0 8.5 4t3.5 9zm-50 50H125q-5 0-8.5 3.5t-4 9q-.5 5.5 3.5 9t9 3.5h125q5 0 9-3.5t4-9q0-5.5-4-9t-9-3.5zm-37 62h-88q-5 0-8.5 4t-4 9q-.5 5 3.5 8.5t9 3.5h88q5 0 8.5-3.5t3.5-8.5q0-5-3.5-9t-8.5-4zm-38 63h-50q-5 0-8.5 3.5t-3.5 9q0 5.5 3.5 9t8.5 3.5h50q5 0 9-3.5t4-9q0-5.5-4-9t-9-3.5zM114 45L80 11q-7-7-17.5-7T45 11L11 45q-4 4-4 9t4 9q4 4 9 4t9-4l21-22v250q0 6 3.5 9.5t9 3.5q5.5 0 9-3.5T75 291V41l21 22q4 3 9 3.5t9-3.5q4-4 4-9t-4-9z"/></svg>