<svg viewBox="0 0 300 316" xmlns="http://www.w3.org/2000/svg"><path d="M50 209q-5 0-9-3L7 172q-7-8-7-18t7-18l34-34q4-3 9-3t9 3.5q4 3.5 4 8.5t-4 9l-34 34 34 34q4 4 4 9t-4 8.5q-4 3.5-9 3.5zm225-43h25v25H200q-5 1-8.5 4.5t-4 8.5q-.5 5 3.5 9t9 4h100v37q0 5-3.5 8.5T287 266H150q-17 1-31.5-7.5t-22.5-23Q88 221 88 204V104q0-17 8-31.5t22.5-23Q133 41 150 42h138q5-1 8.5 3t3.5 9v37h-25q-5 0-8.5 4t-3.5 9q0 5 3.5 8.5t8.5 3.5h25v25h-25q-5 0-8.5 4t-3.5 9q0 5 3.5 8.5t8.5 3.5zm-112 38q0-5-4-8.5t-9-4q-5-.5-8.5 3.5t-3.5 9q0 5 3.5 8.5t8.5 3.5q5 0 8.5-3.5t3.5-8.5h1zm12-50q0-5-3.5-8.5T162 142h-12q-5-1-8.5 3t-3.5 9q0 5 3.5 8.5t8.5 3.5h13q5 0 8.5-3.5t3.5-8.5zm0-50q0-5-3.5-9t-9.5-3h-12q-5-1-8.5 3t-3.5 9q0 5 3.5 8.5t8.5 3.5h13q5 0 8.5-3.5t3.5-8.5zm63 50q-1-5-4.5-8.5T225 142h-12q-6-1-9.5 3t-3.5 9q0 5 3.5 8.5t9.5 3.5h12q5 0 8.5-3.5t3.5-8.5h1zm0-50q-1-5-4.5-8.5T225 92h-12q-6-1-9.5 3t-3.5 9q0 5 3.5 8.5t9.5 3.5h12q5 0 8.5-3.5t3.5-8.5h1z"/></svg>