<svg viewBox="0 0 300.0029 316" xmlns="http://www.w3.org/2000/svg"><path d="M254 196l30 8h4q4 0 7.5-2.5t4.5-7q1-4.5-1.5-9T291 179l-30-7q2-9 2-18t-2-18l30-7q5-2 7.5-6.5t1-9.5q-1.5-5-6-7.5T284 104l-30 8q-6-15-16-28l19-20q6 2 12 2 13 0 22-9t9-22q0-13-9-22t-22-9q-13 0-22 9t-9 22q0 6 2 12l-20 19q-13-10-28-16l8-30q1-5-1.5-9.5t-7.5-6q-5-1.5-9.5 1T175 13l-7 30q-9-2-18-2t-18 2l-7-30q-2-5-6.5-7.5t-9.5-1q-5 1.5-7.5 6T100 20l8 30q-15 6-28 16L60 47q2-6 2-12 0-13-9-22T31 4Q18 4 9 13T0 35q0 13 9 22t22 9q6 0 12-2l19 20q-10 13-16 28l-30-8q-5-1-9.5 1.5t-6 7.5q-1.5 5 1 9.5T9 129l30 7q-1 9-1 18t1 18l-30 7q-5 2-7.5 6.5t-1.5 9q1 4.5 4.5 7T13 204h3l30-8q6 15 16 28l-19 20q-6-2-12-2-13 0-22 9t-9 22q0 13 9 22t22 9q13 0 22.5-9t9.5-22q0-6-3-12l20-19q13 10 28 16l-8 30q-1 5 1.5 9.5t7.5 6.5h4q4 0 7.5-2.5t4.5-6.5l7-30q9 2 18 2t18-2l7 30q2 4 5 6.5t8 2.5h3q5-2 7.5-6.5t1.5-9.5l-8-30q15-6 28-16l20 19q-2 6-2 12 0 13 9 22t22 9q13 0 22-9t9-22q0-13-9-22t-22-9q-6 0-12 2l-19-20q10-13 16-28zM150 91q8 0 13.5 5.5T169 110q0 8-5.5 13.5T150 129q-8 0-13.5-5.5T131 110q0-8 5.5-13.5T150 91zm-63 63q0-8 5.5-13.5T106 135q8 0 13.5 5.5T125 154q0 8-5.5 13.5T106 173q-8 0-13.5-5.5T87 154zm44 44q0-8 5.5-13.5T150 179q8 0 13.5 5.5T169 198q0 8-5.5 13.5T150 217q-8 0-13.5-5.5T131 198zm44-44q0-8 5.5-13.5T194 135q8 0 13.5 5.5T213 154q0 8-5.5 13.5T194 173q-8 0-13.5-5.5T175 154z"/></svg>