<svg viewBox="0 0 300 316" xmlns="http://www.w3.org/2000/svg"><path d="M295 79H5q8-17 23.5-27.5T63 41h175q18 0 33.5 10.5T295 79zM88 154q-11 0-18 7.5T63 179q0 10 7 17.5t17.5 7.5q10.5 0 18-7.5T113 179q0-10-7.5-17.5T88 154zm212-50v100q0 17-8.5 31.5t-23 22.5q-14.5 8-30.5 8H63q-17 0-31.5-8t-23-22.5Q0 221 0 204V104h300zm-162 75q0-21-15-35.5T87.5 129q-20.5 0-35 14.5T38 179q0 21 14.5 35.5t35 14.5q20.5 0 35.5-14.5t15-35.5zm125-25q0-10-7.5-17.5T238 129h-50q-11 0-18 7.5t-7 17.5v50q0 10 7 17.5t18 7.5h50q10 0 17.5-7.5T263 204v-50zm-25 0h-50v50h50v-50z"/></svg>