<svg viewBox="0 0 300 316" xmlns="http://www.w3.org/2000/svg"><path d="M38 216q5 0 8.5-3.5T50 204q0-5 3.5-9t8.5-4h76v13q0 5 3.5 9t8.5 4q5 0 9-4t4-9v-13h75q5 0 8.5 4t3.5 9q0 5 3.5 8.5t9 3.5q5.5 0 9-3.5t3.5-8.5q0-16-11-26.5T237 166h-74v-13q20-4 34-20l12 7q3 2 6 1 7 0 10-5t2-10q-1-5-6-8l-12-7q4-9 4-19.5T209 72l12-7q5-3 6-8t-1.5-9.5Q223 43 218 42t-9 1l-12 7q-14-16-35-20V17q1-6-3-9.5T150 4q-5 0-9 3.5t-4 9.5v13q-20 4-34 20l-12-7q-4-2-9-1t-7.5 5.5Q72 52 73 57t6 8l12 7q-3 9-3 19.5t3 19.5l-12 7q-5 3-6 8t2 10q3 5 10 5 3 0 6-1l12-7q14 16 34 20v13H63q-16 0-27 11t-11 27q0 5 3.5 9t8.5 4l1-1zm93-125q0-7 5.5-12.5T150 73q8 0 13.5 5.5t5.5 13q0 7.5-5.5 13T150 110q-8 0-13.5-5.5T131 91zm32 138h-25q-11 0-18.5 7.5T112 254v25q0 10 7.5 17.5T138 304h25q10 0 17.5-7.5T188 279v-25q0-10-7.5-17.5T163 229zm112 0h-25q-10 0-17.5 7.5T225 254v25q0 10 7.5 17.5T250 304h25q10 0 17.5-7.5T300 279v-25q0-10-7.5-17.5T275 229zm-225 0H25q-10 0-17.5 7.5T0 254v25q0 10 7.5 17.5T25 304h25q10 0 17.5-7.5T75 279v-25q0-10-7.5-17.5T50 229z"/></svg>