<svg viewBox="0 0 300 316" xmlns="http://www.w3.org/2000/svg"><path d="M263 91q-16 0-27 11t-11 27q0 16 11 27t27 10h7q-10 43-42 73.5T152 279q-6 1-10-3t-5-10v-13q32-3 58.5-21t40.5-46q-16-8-26-23.5T200 129q0-18 10-33.5T236 72q-13-26-36.5-43.5T147.5 6q-28.5-5-57 3t-50 28Q19 57 8.5 84t-8 56.5q2.5 29.5 18 54t40 40Q83 250 113 253v13q-1 9 3 16.5t10 13q6 5.5 14 7.5t16 0q42-8 74.5-33t51-62q18.5-37 18.5-79 0-16-11-26.5T263 92v-1zm-138 13q10 0 17.5 7.5T150 129q0 10-7.5 17.5T125 154q-10 0-17.5-7.5T100 129q0-10 7.5-17.5T125 104z"/></svg>