<svg viewBox="0 0 300 316" xmlns="http://www.w3.org/2000/svg"><path d="M63 229h212v12q0 17-8.5 31.5t-23 23Q229 304 213 304H63q-16 0-27-11t-11-26.5Q25 251 36 240t26-11h1zM275 66v138H63q-4 0-8 1-17 2-30 12V66q0-17 8.5-31T56 12.5Q70 4 87 4h126q16 0 30.5 8.5t23 23Q275 50 275 66zm-158 92q-3-18-4-42H76q2 15 10 27.5t20 21.5q4 3 8 .5t3-7.5zM106 43q-12 9-20 21.5T76 92h37q1-24 4-42 1-5-3-7.5t-8 .5zm56 74h-25q2 25 5 42.5t8 17.5q5 0 8-17.5t4-42.5zm0-25q-1-27-4-43-3-18-8-18t-9 18q-2 16-4 43h25zm62 25h-37q-1 23-5 41-1 5 3 7.5t8-.5q12-9 20-21.5t11-26.5zm0-25q-3-15-11-27.5T193 43q-4-3-8-.5t-3 7.5q4 18 5 42h37z"/></svg>