<svg viewBox="0 0 300 316" xmlns="http://www.w3.org/2000/svg"><path d="M269 229q-5 0-8-3l-8-9q-15-15-16-37V35q0-13 9.5-22T269 4q13 0 22 9t9 22v145q0 22-15 37l-9 9q-3 3-7 3zM163 4H50Q29 4 14.5 18.5T0 54v217q0 12 8 22t21 11q13 1 23.5-8T63 273v-7q0-15 10.5-26t26.5-11h113V54q0-21-15-35.5T163 4zm-41 140l-28 27q-7 8-18 8t-19-8l-16-16q-3-3-3-8.5t3.5-9Q45 134 50 134t9 4l16 16q1 1 2 0l27-28q4-3 9-3t8.5 3.5q3.5 3.5 3.5 8.5t-3 9zm0-75L94 96q-7 8-18 8t-19-8L41 80q-3-3-3-8.5t3.5-9Q45 59 50 59t9 4l16 16q1 1 2 0l27-28q4-3 9-3t8.5 3.5Q125 55 125 60t-3 9zm91 235H78q10-14 10-31v-7q0-5 3.5-8.5t8.5-3.5h138q5 0 8.5 3.5t3.5 8.5q0 16-11 27t-27 11h1z"/></svg>