<svg viewBox="0 0 300 316" xmlns="http://www.w3.org/2000/svg"><path d="M275 254q-1 23-15.5 36T225 303q-20 0-34.5-13T176 254q0-23 14.5-36t34.5-13q20 0 34.5 13t15.5 36zm-125-25q0 5-3.5 8.5T138 241h-2q-2 12-9 22l1 1q4 4 4 9t-4 9q-4 4-9 4t-9-4l-1-1q-10 7-22 9v1q0 6-3.5 9.5T75 304q-5 0-8.5-3.5T63 292v-2q-12-2-22-9l-1 1q-4 4-9 4t-9-4q-4-4-4-9t4-9l1-1q-7-10-9-21h-1q-6-1-9.5-4.5T0 229q0-5 3.5-8.5T12 217h2q2-12 9-22l-1-1q-4-4-4-9t4-9q4-4 9-4t9 4l1 1q10-7 21-9v-2q0-5 4-8.5t9-3.5q5 0 8.5 3.5T87 166v2q12 2 22 9l1-1q4-4 9-4t9 4q4 4 4 9t-4 9l-1 1q7 10 9 22h2q5-1 8.5 3t3.5 9zm-62 0q0-5-4-8.5t-9-4q-5-.5-8.5 3.5t-3.5 9q0 5 3.5 8.5T75 241q5 0 8.5-3.5T87 229h1zm62-196q-8-13-22.5-21T97 4H75Q59 4 48 15T37 42v37h142l-29-46zm100 71V79q0-5-3.5-9t-9-3.5q-5.5.5-9 4T225 79v25H38q-16 0-27 11T0 142v21q18-22 44-29.5t53-1.5q27 6 47 24.5t27 45.5q15-15 34-20t38.5-.5Q263 186 278 201l12-17q8-11 9.5-25.5t-5-27q-6.5-12.5-18.5-20t-26-7.5z"/></svg>