<svg viewBox="0 0 300 316" xmlns="http://www.w3.org/2000/svg"><path d="M238 204q-8 0-11.5-7t.5-13q5-9 22.5-19t31.5-11q17-2 19 12 0 6-3.5 9.5T288 179q-12 0-22.5 5.5T248 199q-4 5-11 5h1zm-34-38q-4 0-7-2t-4.5-5q-1.5-3-1-7t2.5-6q18-20 42.5-31t50.5-11q6 0 9.5 3.5t3.5 9q0 5.5-3.5 9T288 129q-22 0-41.5 8.5T213 162q-4 4-9 5v-1zm-34-37q-4 0-7-2t-4.5-5.5q-1.5-3.5-.5-7t3-6.5q25-26 58-40t68-14q6 0 9.5 3.5t3.5 9q0 5.5-3.5 9T288 79q-31 0-59.5 12T179 125q-3 4-9 4zm-45-24q-4 0-7-2t-4.5-5.5q-1.5-3.5-1-7T115 84q32-38 77.5-59T287 4q6 0 9.5 3.5t3.5 9q0 5.5-3.5 9T288 29q-45 0-85 18.5T135 100q-4 5-10 5zM99 304H74q-22 0-31-1-16-2-26-9T2 271q-5-16 2-31t23-22q-4-18 1.5-36T47 150.5q13-13.5 31.5-19T115 130q18 4 32.5 15.5T169 175q2 3 3 3.5t5 1.5l2 1q16 4 27.5 15.5t16 27q4.5 15.5.5 32.5t-16.5 29.5Q194 298 177 302q-6 1-13 2H99z"/></svg>