<svg viewBox="0 0 300 316" xmlns="http://www.w3.org/2000/svg"><path d="M192 37q-17-17-40-25.5T104 4Q77 6 53 22.5T14.5 65Q0 91 0 120v63q0 22 11 34t27 12h71q29 0 55-14.5t42.5-38.5q16.5-24 18.5-51 1-25-7.5-48T192 37zm-96 64l38 6q12 2 20.5 12t8.5 22q0 16-11 27t-27 11v12q0 6-3.5 9.5t-9 3.5q-5.5 0-9-3.5T100 192v-13h-3q-10 0-19-5t-14-14q-2-4-1-9t5.5-7.5Q73 141 78 142t8 6.5q3 5.5 11 5.5h28q5 0 9-3.5t4-8q0-4.5-2.5-7T129 132l-38-6q-12-2-20-12t-8-22q-1-16 10-27t27-11V41q0-5 3.5-8.5t9-3.5q5.5 0 9 3.5T125 41v13h3q10 0 19 5t14 14q2 4 1 9t-5.5 7.5Q152 92 147 91t-8-6.5q-3-5.5-11-5.5h-28q-5 0-8.5 3.5t-3.5 8q0 4.5 2 7t6 3.5zm204 103v62q0 16-11 27t-27 11h-62q-27 0-50-13.5T114 254q34-1 64.5-19t49.5-46.5q19-28.5 22-62.5v-8q23 13 36.5 36t13.5 50z"/></svg>