<svg viewBox="0 0 300.0036 316" xmlns="http://www.w3.org/2000/svg"><path d="M238.004 29q0-10 7-17.5t17.5-7.5q10.5 0 18 7.5t7.5 17.5q0 10-7.5 17.5t-18 7.5q-10.5 0-17.5-7.5t-7-17.5zm-200 25q10 0 17.5-7.5t7.5-17.5q0-10-7.5-17.5t-18-7.5q-10.5 0-17.5 7.5t-7 17.5q0 10 7 17.5t18 7.5zm254 50q4 0 6.5-3.5t1.5-7.5q-4-12-14-19.5t-22-7.5h-15q1 7 1 13 0 12-3 25h45zm-241-38h-15q-12 1-22 8.5T.004 94q-1 4 1.5 7t6.5 3h45q-3-13-3-25 0-6 1-12v-1zm237 231v7h-206l-23-20q-9-8-9-20t8-20.5q8-8.5 20-9t20 7.5l27 22V141q0-11 9-18.5t20-5.5q9 1 15 8.5t6 17.5v67l73 28q18 7 28.5 23t10.5 36h1zm-138-293q-20 0-37.5 10t-27.5 27.5q-10 17.5-10 37.5 0 17 7 31.5t19 24.5q2-19 17-32 8-7 18.5-10t21.5-1q16 3 27.5 15t13.5 28q12-10 19-24.5t7-31.5q0-20-10-37.5t-27.5-27.5q-17.5-10-37.5-10zm0 75q-10 0-17.5-7.5t-7.5-17.5q0-10 7.5-17.5t17.5-7.5q10 0 17.5 7.5t7.5 17.5q0 10-7.5 17.5t-17.5 7.5z"/></svg>