<svg viewBox="0 0 300 316" xmlns="http://www.w3.org/2000/svg"><path d="M300 153q0 23-7 44-10-4-22-2-9-12-24.5-15.5T217 183q-19 9-27 29-10 31 17 80-35 15-72 10.5t-68-25Q36 257 17.5 224T0 153q2-56 33-95 28-35 72.5-47.5t88.5 0Q238 23 267 58q31 39 33 95zM87 141h38q5 0 8.5-3.5t3.5-9q0-5.5-3.5-9T125 116H87q-5 0-8.5 3.5t-3.5 9q0 5.5 3.5 9T87 141zm138-13q0-10-7.5-17.5T200 103q-10 0-17.5 7.5t-7.5 17q0 9.5 7 11.5 5 2 18 2t18-2q7-2 7-11zm61 93q-10-3-18.5 1.5T256 236v1q4-11 0-20t-12.5-12q-8.5-3-17 .5T214 221q-4 12 3 34 5 14 15 30 1 4 5 5.5t8-.5q17-6 30-13 19-12 23-24 4-9 .5-18.5T286 221zm-99-36q0-13-9-22.5t-22-9.5h-21q-6 0-9.5 4t-3.5 9q0 5 3.5 8.5t9.5 3.5h21q3 0 4.5 2t1.5 4.5q0 2.5-1.5 4.5t-4.5 2h-6q-5 0-9 3.5t-4 9q0 5.5 4 9t9 3.5h6q3 0 4.5 2t1.5 4.5q0 2.5-1.5 4T156 228h-21q-6 0-9.5 4t-3.5 9q0 5 3.5 8.5t9.5 3.5h21q13 0 22-9t9-22q0-10-6-19 6-8 6-18z"/></svg>