<svg viewBox="0 0 300 316" xmlns="http://www.w3.org/2000/svg"><path d="M150 4q-41 0-75.5 20T20 78.5Q0 113 0 154t20 75.5Q40 264 74.5 284t75.5 20q41 0 75.5-20t54.5-54.5q20-34.5 20-75.5t-20-75.5Q260 44 225.5 24T150 4zM63 125q1-5 5.5-8t9.5-2q8 2 16 1 13-3 21-14 3-5 8-6t9.5 2q4.5 3 5.5 8t-2 9q-9 14-22 20t-27 6q-8 0-15-1-5-2-7.5-6t-1.5-9zm147 104q-4-1-13-4-12-4-19-6-14-2-28-2t-28 2q-7 2-19 6l-13 4q-5 1-9.5-2t-5.5-8q-1-5 2-9 12-19 27-29 21-14 46-14t46 14q15 10 27 29 3 4 1.5 9t-5.5 8q-4 3-9 2zm18-89q-7 1-15 1-14 0-27-6t-22-20q-3-4-2-9t5.5-8q4.5-3 9.5-2t8 6q8 11 21 14 8 1 16-1 5-1 9.5 2t5.5 8q1 5-1.5 9t-7.5 6z"/></svg>