<svg viewBox="0 0 300 316" xmlns="http://www.w3.org/2000/svg"><path d="M238 41H63q-17 0-31.5 8.5t-23 23Q0 87 0 104v100q0 17 8.5 31.5t23 22.5q14.5 8 31.5 8h175q16 0 30.5-8t23-22.5Q300 221 300 204V104q0-17-8.5-31.5t-23-23Q254 41 238 41zM31 173q-8 0-13-5.5T13 154q0-8 5-13.5t13-5.5q8 0 13.5 5.5T50 154q0 8-5.5 13.5T31 173zm57 31h-7q-8 0-13-5.5T63 185v-69q0-5 3.5-8.5T75 104q5 0 9 3.5t4 9.5v62q5 0 8.5 3.5t3.5 9q0 5.5-3.5 9T88 204zm50-13q0 6-4 9.5t-9 3.5q-5 0-8.5-3.5T113 192v-76q0-5 3.5-8.5t8.5-3.5q5 0 8.5 3.5t3.5 9.5v74h1zm86-71l-25 75q-1 4-4 6.5t-7.5 2.5q-4.5 0-7.5-2.5t-4-6.5l-25-75q-2-4 .5-9t7-6.5q4.5-1.5 9.5 1t6 7.5l14 39 13-39q1-5 6-7.5t9.5-1q4.5 1.5 7 6.5t.5 9zm51 21q5 0 9 4t4 9q0 5-4 8.5t-9 3.5h-12v13h12q5 0 9 3.5t4 9q0 5.5-4 9t-9 3.5h-19q-8 0-13-5.5t-5-13.5v-62q-1-8 4.5-13.5T256 104h19q5 0 9 3.5t4 9q0 5.5-4 9t-9 3.5h-12v12h12z"/></svg>