<svg viewBox="0 0 300 316" xmlns="http://www.w3.org/2000/svg"><path d="M214 155l-20 20q-4 4-9 4t-8.5-3.5q-3.5-3.5-3.5-9t3-8.5l16-17h-85l17 17q3 3 3 8.5t-3.5 9Q120 179 115 179t-9-4l-20-20q-11-11-11-26t11-26l20-20q3-4 8.5-4t9 3.5q3.5 3.5 3.5 9t-4 8.5l-16 16h85l-16-16q-4-3-4-8.5t4-9q4-3.5 9-3.5t9 4l20 20q11 11 11 26t-11 26zM63 66q12 0 21.5-9T94 35q0-13-9.5-22t-22-9q-12.5 0-22 9T31 35q0 13 9.5 22T63 66zm29 130q-12-12-24-23.5T52 145q-4-16 0-32t16-28q2-1 1-3.5T66 79H50q-21 0-35.5 14.5T0 129v37q0 14 7 25.5T25 210v81q0 6 3.5 9.5t9 3.5q5.5 0 9-3.5T50 291v-75h25v75q0 6 3.5 9.5t9 3.5q5.5 0 9-3.5t3.5-9.5v-76q0-12-8-19zM250 79h-16q-2 0-3 2t1 4q12 12 16 28t0 32q-4 16-16 28l-23 23q-9 7-9 18v77q0 6 3.5 9.5t9 3.5q5.5 0 9-3.5t3.5-9.5v-75h25v75q0 6 3.5 9.5t9 3.5q5.5 0 9-3.5t3.5-9.5v-81q11-7 18-18.5t7-25.5v-37q0-21-14.5-35.5T250 79zm-12-13q12 0 21.5-9t9.5-22q0-13-9.5-22t-22-9q-12.5 0-22 9T206 35q0 13 9.5 22t22.5 9z"/></svg>