<svg viewBox="0 0 300.0016 316" xmlns="http://www.w3.org/2000/svg"><path d="M267 38q-17-17-37-26t-38-8q-18 1-29.5 12.5T150 46q-1 18 8 37.5t26 36.5q17 17 36.5 26t37.5 8q18-1 29.5-12.5T300 112q1-18-7.5-37.5T267 38zm-26 57q-3 4-10.5 2T216 88q-7-7-9-14.5t1.5-11q3.5-3.5 11-1.5t14.5 9q7 7 9 14.5T241 95zm25 83l2-1q-55 45-137 52h-4q-15 0-27-7l-47 47q4 2 7 6.5t3 9.5q0 8-5.5 13.5T44 304q-8 0-13.5-5.5T25 285q0-4 2-8-4 2-8 2-8 0-13.5-5.5T0 260q0-8 5.5-13.5T19 241q5 0 9.5 3t6.5 7l47-47q-8-15-7-31 7-81 51-136v1q-4 24 6.5 51t33.5 49q20 20 43 30.5t45 10.5q6 0 12-1z"/></svg>