<svg viewBox="0 0 300 316" xmlns="http://www.w3.org/2000/svg"><path d="M213 304q-25 0-42-17.5T154 245q0-24 17-41l99-99q5-5 5-13t-5.5-13.5q-5.5-5.5-13-5.5T243 78L74 247q-12 13-30.5 13t-31-13Q0 234 0 216t13-31L138 61q6-5 6-13t-5.5-13.5Q133 29 125 29t-13 5l-91 90q-3 3-8.5 3t-9-3.5Q0 120 0 114.5t4-8.5l90-89q12-13 31-13t31.5 13Q169 30 169 48t-13 31L30 203q-5 6-5 13.5t5.5 13q5.5 5.5 13 5.5t13.5-5L226 61q12-13 30.5-13t31 13Q300 74 300 92t-13 31l-98 98q-10 10-10 24t10 24q10 10 25.5 10t38.5-12q14-6 27-16 5-3 10-2t8 5.5q3 4.5 2 9.5t-5 8q-17 11-34 19-27 13-48 13z"/></svg>