<svg viewBox="0 0 300 316" xmlns="http://www.w3.org/2000/svg"><path d="M150 239q-11 0-21-5L6 160q-4-3-5.5-8t1-9.5Q4 138 9 137t10 1l123 74q8 5 16 0l123-74q5-2 10-1t7.5 5.5q2.5 4.5 1 9.5t-5.5 8l-123 74q-10 5-21 5zm21 48l123-74q4-2 5.5-7t-1-9.5q-2.5-4.5-7.5-6t-10 1.5l-123 74q-8 5-16 0L19 192q-5-3-10-1.5t-7.5 6Q-1 201 .5 206t5.5 7l123 74q10 6 21 6t21-6zM150 77l66-40-45-27q-10-6-21-6t-21 6L84 37l66 40zm144 7l-53-32-67 39 71 43 49-29q6-4 6-11t-6-10zm-168 7L59 52 6 84q-6 3-6 10t6 11l49 29 71-43zm24 15l-71 43 50 30q10 6 21 6t21-6l50-30-71-43z"/></svg>