<svg viewBox="0 0 300 316" xmlns="http://www.w3.org/2000/svg"><path d="M213 91q0 6-4 9.5t-9 3.5H100q-5 0-8.5-3.5t-3.5-9q0-5.5 3.5-9T100 79h100q5 0 9 3.5t4 8.5zm75-25v175q-1 17-9 31.5t-22.5 23Q242 304 225 304H75q-17 0-31.5-8.5t-22.5-23Q13 258 12 241V66q1-16 9-30.5t22.5-23Q58 4 75 4h150q17 0 31.5 8.5t22.5 23q8 14.5 8 31.5l1-1zM88 229q0-5-4-8.5t-9-4q-5-.5-8.5 3.5t-3.5 9q0 5 3.5 8.5T75 241q5 0 8.5-3.5T87 229h1zm0-50q0-5-4-9t-9-4q-5 0-8.5 4t-3.5 9q0 5 3.5 8.5t8.5 4q5 .5 8.5-3.5t3.5-9h1zm50 50q0-5-4-8.5t-9-4q-5-.5-8.5 3.5t-4 9q-.5 5 3.5 8.5t9 3.5q5 0 9-3.5t4-8.5zm0-50q0-5-4-9t-9-4q-5 0-8.5 4t-4 9q-.5 5 3.5 8.5t9 3.5q5 0 9-3.5t4-8.5zm100 50q-1-5-4.5-8.5T225 217h-50q-5-1-9 3t-3.5 9q.5 5 4 8.5t8.5 3.5h50q5 0 9-3.5t4-8.5zm-63-38q5 0 9-3.5t4-8.5q0-5-4-9t-9-4q-5 0-9 4t-3.5 9q.5 5 4 8.5t8.5 3.5zm63-12q-1-5-4.5-9t-8.5-4q-5 0-9 4t-3.5 9q.5 5 4 8.5t8.5 3.5q5 0 9-3.5t4-8.5zm0-88q-1-15-11.5-26T200 54H100q-16 0-27 11T62.5 91.5q.5 15.5 11 26.5t26.5 11h100q16 0 27-11t11-27z"/></svg>