<svg viewBox="0 0 300 316" xmlns="http://www.w3.org/2000/svg"><path d="M275 291q0 6-3.5 9.5T262 304h-62v-74q0-9 6-16.5t15-9.5q11-2 20 6t9 19v50h13q5 0 8.5 3.5t3.5 9.5v-1zm0-243h-5q-7-19-24.5-31.5T206.5 4q-21.5 0-39 12.5T142 48h-5q-10 0-17 7t-7 17.5q0 10.5 7 18t18 7.5l4-1q5 14 15 24-35 9-59 34-21 22-34 55-10 27-13 57-12-9-19-22t-7-28V79q0-23 13.5-36.5T75 29q5 0 8.5-3.5t3.5-9q0-5.5-3.5-9T75 4Q41 4 20.5 24.5T0 79v137q0 24 12 44t32 32q20 12 44 12h87v-75q0-21 14.5-35.5T225 179q13 0 25 7v-60q14-12 20-29l5 1q10 0 17.5-7.5t7.5-18q0-10.5-7.5-17.5T275 48z"/></svg>