<svg viewBox="0 0 300 316" xmlns="http://www.w3.org/2000/svg"><path d="M219 282q-2 6-8 9-29 13-61 13-41 0-75.5-20T20 229.5Q0 195 0 154q0-32 13-61 3-6 9.5-7.5T33 89l69 68-24 41q-5 9-1.5 17.5t12 12Q97 231 106 226l41-24 51 52q15 15 18 19.5t3 8.5zm77 1q4 3 4 8.5t-3.5 9q-3.5 3.5-9 3.5t-8.5-4L4 25q-4-3-4-8.5t3.5-9Q7 4 12.5 4T21 8l32 32q21-18 45.5-27T150 4q41 0 75.5 20T280 78.5q20 34.5 20 75.5 0 27-9 51.5T264 251l32 32zM143 107q-6 3-6.5 9t3.5 10q3 3 7 3.5t8-1.5l41-24q2-1 3.5.5t.5 3.5l-24 41q-2 4-1.5 8t3.5 7q4 4 10 3.5t9-6.5l23-39q5-8 4.5-17.5t-7-16.5q-6.5-7-16-8.5T184 83l-41 24z"/></svg>