<svg viewBox="0 0 300 316" xmlns="http://www.w3.org/2000/svg"><path d="M279 40l-29 58q-15-17-35.5-28T171 56l12-24q6-13 18.5-20.5T228 4h29q6 0 11.5 3t9 8.5q3.5 5.5 4 12T279 40zM129 56l-12-24q-6-13-18.5-20.5T72 4H44q-7 0-12.5 3t-9 8.5Q19 21 19 27.5T21 40l29 57q15-16 35.5-27T129 56zm134 135q0 31-15.5 57t-41 41q-25.5 15-56 15T94 289q-26-15-41.5-41T37 191.5Q37 161 52.5 135t41-41Q119 79 150 79t56.5 15q25.5 15 40.5 41t15 56h1zm-67 25q0-8-4-16t-11-13q7-9 7-20 0-16-11-27t-27-11h-25q-5 0-8.5 3.5t-3.5 9q0 5.5 3.5 9t8.5 3.5h25q5 0 9 3.5t4 9q0 5.5-4 9t-9 3.5h-12q-6 0-9.5 3.5t-3.5 9q0 5.5 3.5 9t9.5 3.5h20q6 0 9.5 3.5t3.5 9q0 5.5-3.5 9T158 229h-33q-5 0-8.5 3.5t-3.5 9q0 5.5 3.5 9t8.5 3.5h33q16 0 27-11t11-27z"/></svg>