<svg viewBox="0 0 300 316" xmlns="http://www.w3.org/2000/svg"><path d="M296 283q4 3 4 8.5t-3.5 9q-3.5 3.5-9 3.5t-8.5-4L4 25q-4-3-4-8.5t3.5-9Q7 4 12.5 4T21 8l31 30q8-16 20.5-25T100 4h123q-11 18-17 46.5t-6 59.5v76l96 97zm-71-173q0-29 5-53t13.5-38.5Q252 4 262.5 4t19 14.5Q290 33 295 57t5 53q0 29-5 53.5T281.5 202q-8.5 14-19 14t-19-14q-8.5-14-13.5-38.5t-5-53.5zm25 0q0 16 3.5 27t9 11q5.5 0 9-11t3.5-26.5q0-15.5-3.5-26.5t-9-11q-5.5 0-9 11t-3.5 26zm-191 6q-4-4-9-4t-9 3.5q-4 3.5-4 9.5v104q0 12-6 21.5T14 264q-6 2-10 7.5t-4 13Q0 292 6 298t15 6h116q19 0 34.5-10t23.5-27q2-5 1-10.5t-5-9.5L59 116z"/></svg>