<svg viewBox="0 0 300 316" xmlns="http://www.w3.org/2000/svg"><path d="M200 135q0 8-5.5 13.5T181 154q-8 0-13.5-5.5t-5-13.5q.5-8 5.5-13.5t13-5q8 .5 13.5 5.5t5.5 13zm-81-19q-8 1-13.5 6t-5.5 13q0 8 5.5 13.5T119 154q8 0 13.5-5.5t5-13.5q-.5-8-5.5-13.5t-13-5.5zm181 13q0 5-3.5 9t-8.5 4h-13v62q0 21-14.5 35.5T225 254h-11l-48 40q-7 6-16 6t-17-7l-46-39H75q-21 0-35.5-14.5T25 204v-63H13q-6 1-9.5-3T0 129q0-5 3.5-9t9.5-4h12V54q0-21 14.5-35.5T75 4h150q21 0 35.5 14.5T275 54v62h13q5 0 8.5 4t3.5 9zm-75-25q0-10-7.5-17.5T200 79H100q-10 0-17.5 7.5T75 104v62q0 11 7.5 18t17.5 7h100q10 0 17.5-7t7.5-18v-62z"/></svg>