<svg viewBox="0 0 300 316" xmlns="http://www.w3.org/2000/svg"><path d="M225 154q-20 0-37.5 10T160 191.5Q150 209 150 229t10 37.5q10 17.5 27.5 27.5t37.5 10q20 0 37.5-10t27.5-27.5q10-17.5 10-37.5t-10-37.5Q280 174 262.5 164T225 154zm-12 37q-1-5 3-8.5t9-3.5q5 0 8.5 3.5t3.5 9.5v24q0 6-3.5 9.5T225 229q-5 0-8.5-3.5T213 216v-25zm12 88q-8 0-13.5-5.5T206 260q0-8 5.5-13t13.5-5q8 0 13.5 5t5.5 13q0 8-5.5 13.5T225 279zm-83 6q-10 8-22 13-14 6-27 6t-25.5-7.5Q55 289 46 276l-25 24q-4 4-9 4t-8.5-3.5Q0 297 0 291.5t3-8.5l25-25q-13-9-20.5-22T0 210q0-13 7-29 6-13 14-23 4-4 10-4t9 4q9 10 15 23 7 16 7 29 0 8-3 17l31-31q-13-10-20.5-22.5t-7.5-26q0-13.5 8-29.5 6-12 14-22 4-4 9.5-4.5T103 96q8 10 14 22 8 16 8 30 0 8-4 17l32-32q-13-9-20.5-22T125 85q0-13 7-29 6-13 14-23 4-4 10-4t9 4l6 7 33-33q3-4 8.5-4t9 4q3.5 4 3.5 9t-4 9l-38 38q4 12 4 21t-3 18l94-94q4-4 9-4t9 3.5q4 3.5 4 9t-4 8.5l-95 95q9-4 18-4t21 5l39-39q3-4 8.5-4t9 4q3.5 4 3.5 9t-4 9l-33 33 9 8q-22-12-48-12t-49 13.5Q152 156 138.5 179T125 229v1q-10-7-17-17l-32 32q9-4 17-4 16 0 35 10 4 19 14 34z"/></svg>