<svg viewBox="0 0 300 316" xmlns="http://www.w3.org/2000/svg"><path d="M257 18Q235 4 208.5 4T161 17.5Q140 31 129 52q-7 14-17.5 22T89 85q-23 5-42 18t-31.5 34Q3 158 .5 183T7 231.5Q16 255 34 273q15 15 35 23t42 8q50 0 93.5-28.5T274 199q26-48 26-104 0-23-11.5-43.5T257 18zM94 204q-8 0-13.5-5.5t-5.5-13q0-7.5 5.5-13T94 167q8 0 13.5 5.5t5.5 13q0 7.5-5.5 13T94 204zm112-12q-7 0-12.5-5.5T188 173q0-8 5.5-13.5t13-5.5q7.5 0 13 5.5T225 173q0 8-5.5 13.5T206 192zm0-75q-7 0-12.5-5.5T188 98q0-8 5.5-13.5t13-5.5q7.5 0 13 5.5T225 98q0 8-5.5 13.5T206 117z"/></svg>