<svg viewBox="0 0 300 316" xmlns="http://www.w3.org/2000/svg"><path d="M296 58L246 8q-3-4-8.5-4t-9 3.5q-3.5 3.5-3.5 9t4 8.5l16 16-104 104-19-19q-15-14-35.5-14T51 126l-40 40Q0 177 0 193t11 27l73 73q11 11 27 11t27-11l40-40q14-15 14-35.5T178 182l-20-19L263 59l16 16q3 4 8.5 4t9-3.5q3.5-3.5 3.5-9t-4-8.5zM29 200q-4-3-4-8.5t4-8.5l25-25q3-4 8.5-4t9 3.5q3.5 3.5 3.5 9t-4 8.5l-25 25q-3 4-8.5 4t-8.5-4zm55 38q-4 4-9 4t-9-4q-4-4-4-9t4-9l25-25q4-4 9-4t8.5 4q3.5 4 3.5 9t-3 9l-25 25zm62 12l-25 25q-3 4-8.5 4t-8.5-4q-4-3-4-8.5t4-8.5l25-25q3-4 8.5-4t8.5 4q4 3 4 8.5t-4 8.5z"/></svg>