<svg viewBox="0 0 300 316" xmlns="http://www.w3.org/2000/svg"><path d="M113 304H51q-6 0-9.5-4.5T39 290q4-30 24.5-52.5T113 207v97zm146-4q-4 4-10 4H138V204h25q24 0 45.5 11t35.5 31q14 20 17 44 1 5-2 10zm-59-40q0-8-5.5-13t-13.5-5.5q-8-.5-13 5t-5 13.5q0 8 5 13.5t13 5.5q8 0 13.5-5.5T200 260zM75 77v14h150l-1-14q12-4 19-13.5t7-22.5q0-15-11-26T213 4q-13 0-27 7-19-7-36-7t-36 7q-14-7-27-7-15 0-26 11T50 42q0 12 7 21.5T75 77zm0 39q0 16 6.5 30.5T99 171q11 10 24 15t27 5h7q19-2 34-12.5t24-26.5q9-16 10-35H75v-1z"/></svg>