<svg viewBox="0 0 300.0033 316" xmlns="http://www.w3.org/2000/svg"><path d="M247 155q-3-10-7-23-11-32-15-65 0-6 3.5-9.5t9-3.5q5.5 0 9 3.5t3.5 9 3.5 9q3.5 3.5 9 3.5t9-3.5Q275 72 275 67q0-16-11-27t-26.5-11Q222 29 211 40t-11 26q0 15 4 29l-60 46-69-50h38q5 0 8.5-3.5T125 79q0-5-3.5-9t-9.5-4H75q-8 0-14.5 5t-9 12.5q-2.5 7.5 0 15T60 111l64 46-18 14q-18-16-41.5-16.5t-41.5 15Q5 185 2 209t10.5 43.5Q26 272 49.5 277t44-6.5q20.5-11.5 28-34T120 192l91-71 11 35q-23 6-36.5 26t-10 44q3.5 24 22.5 39t42.5 14q23.5-1 41-18t18.5-41q1-24-14-42.5T247 155z"/></svg>