<svg viewBox="0 0 300 316" xmlns="http://www.w3.org/2000/svg"><path d="M219 41q8 1 13.5 6t5.5 13q0 8-5.5 13.5T219 79q-8 0-13.5-5.5T200 60q0-8 5.5-13.5T219 41zm31-18q0 8 5.5 13t13.5 5q8 0 13.5-5t5.5-13q0-8-5.5-13.5T269 4q-8 0-13.5 5.5T250 23zm0 75q0 8 5.5 13.5t13.5 5q8-.5 13.5-5.5t5.5-13q0-8-5.5-13.5T269 79q-8 0-13.5 5.5T250 98zm-137 81q-11 0-18.5 7.5t-7 17.5q.5 10 7.5 17.5t17.5 7.5q10.5 0 18-7.5T138 204q0-10-7.5-17.5T113 179zm37-75H75q-17 0-31.5 8.5t-22.5 23Q13 150 13 167v74q0 17 8 31.5t22.5 23Q58 304 75 304h75q17 0 31.5-8.5t22.5-23q8-14.5 8-31.5v-75q1-16-7.5-30.5t-23-23Q167 104 150 104zm-37 150q-21 0-35.5-14.5T63 204q0-21 14.5-35.5t35-14.5q20.5 0 35.5 14.5t15 35.5q0 21-15 35.5T112 254h1zM75 79h75q6 0 13 1V41q0-15-11-26T125 4h-25Q84 4 73 15T63 42v38q6-1 12-1z"/></svg>