<svg viewBox="0 0 300 316" xmlns="http://www.w3.org/2000/svg"><path d="M298 104H163V29q-1-10 6.5-17.5t18-7.5Q198 4 214 8q29 8 50 26 28 26 34 70zM81 129L53 97q-5-7-17.5-13t-23-5Q2 80 0 92q0 5 3.5 8.5T12 104q14 0 22 10l16 17v10q0 17 8.5 31.5t23 23Q96 204 112 204h36l-32 39q-16-4-27 3.5T76 268q-2 14 5.5 24.5T106 304q8 0 15-4t11.5-10.5q4.5-6.5 5-14.5t-2.5-15l40-49 40 49q-3 7-2.5 15t5 14.5Q222 296 229 300t15 4q17-1 24.5-11.5T274 268q-2-14-13-21.5t-27-3.5l-32-39h36q16 0 30.5-8.5t23-23Q300 158 300 141v-12H81z"/></svg>