<svg viewBox="0 0 300 316" xmlns="http://www.w3.org/2000/svg"><path d="M300 104V79q0-17-8.5-31.5t-23-23Q254 16 238 16H63q-17 0-31.5 8.5t-23 23Q0 62 0 79v25h300zm-56-63q8 0 13.5 5.5T263 60q0 8-5.5 13.5T244 79q-8 0-13.5-5.5T225 60q0-8 5.5-13.5T244 41zm-50 0q8 0 13.5 5.5T213 60q0 8-5.5 13.5T194 79q-8 0-13.5-5.5T175 60q0-8 5.5-13.5T194 41zm-50 0q8 0 13.5 5.5T163 60q0 8-5.5 13.5T144 79q-8 0-13.5-5.5T125 60q0-8 5.5-13.5T144 41zm156 88v100q0 17-8.5 31.5t-23 23Q254 292 238 291H63q-17 0-31.5-8t-23-22.5Q0 246 0 229V129h300z"/></svg>