<svg viewBox="0 0 300 316" xmlns="http://www.w3.org/2000/svg"><path d="M285 219l-20-20-29 29q-4 3-9 3t-8.5-3.5Q215 224 215 219t3-9l29-29-17-18-29 29q-4 4-9 4t-9-3.5q-4-3.5-4-9t4-8.5l29-29-18-18-29 29q-3 4-8.5 4t-9-4q-3.5-4-3.5-9t4-9l29-29-18-17-29 29q-4 3-9 3t-8.5-3.5Q109 118 109 113t3-9l29-29-18-18-29 29q-4 3-9 3t-8.5-3.5Q73 82 73 77t3-9l29-29-20-20Q74 8 59.5 5T31 8Q17 14 8.5 26.5T0 54v187q0 17 8.5 31.5t23 23Q46 304 63 304h187q15 0 27.5-8.5T296 273q6-14 3-28.5T285 219zm-130 2q-1 4-4 6t-7 2H88q-6 0-9.5-3.5T75 216v-56q0-4 2-7t5.5-4.5Q86 147 90 148t6 3l57 57q2 2 3 6t-1 7z"/></svg>