<svg viewBox="0 0 300 316" xmlns="http://www.w3.org/2000/svg"><path d="M188 304h-76q0-16 11-27t26.5-11q15.5 0 26.5 11t11 27h1zm-1-200h81q-6-17-20-30l-43-44q-13-13-31-20v82q0 5 3.5 8.5t9.5 3.5zm87 31v107q0 17-8.5 31T243 295.5q-14 8.5-31 8.5 0-17-8-31.5t-22.5-23Q167 241 150 241t-31.5 8.5q-14.5 8.5-23 23T87 304q-17 0-31.5-8.5t-23-22.5Q24 259 24 242V67q0-17 8.5-31.5t23-23Q70 4 87 4l62 1v87q0 15 11 26t27 11h87v6zm-80 50q0-18-13-31t-31-13q-18 0-31 13t-13 31q0 18 13 31t31 13q18 0 31-13t13-31zm-44-19q-8 0-13.5 5.5T131 185q0 8 5.5 13.5T150 204q8 0 13.5-5.5T169 185q0-8-5.5-13t-13.5-5v-1z"/></svg>