<svg viewBox="0 0 300 316" xmlns="http://www.w3.org/2000/svg"><path d="M298 106l-43 130q-4 14-14 24.5T218 276q7-17 7-34V116q0-23-12-43t-32-32q-20-12-43-12h-21q12-16 30.5-22T185 7l71 22q16 5 27 17t15 28q4 16 0 32zm-98 10v125q0 17-8.5 31.5t-23 23Q154 304 138 304H63q-17 0-31.5-8.5t-23-23Q0 258 0 241V116q0-16 8.5-30.5t23-23Q46 54 62 54h76q16 0 30.5 8.5t23 23Q200 100 200 117v-1zm-50 50q0-10-7.5-17t-17.5-7.5q-10-.5-17.5 7T100 167q0-11-7.5-18T75 142q-10 0-17.5 7T50 167.5Q50 179 61 196q10 15 23 25 7 6 16 6t16-6q13-10 23-25 11-17 11-30z"/></svg>