<svg viewBox="0 0 300 316" xmlns="http://www.w3.org/2000/svg"><path d="M288 154q0 5-4 9l-23 23q-11 11-11 26v29q0 17-8.5 31.5t-23 23Q204 304 188 304h-13q-5 0-8.5-3.5t-3.5-9q0-5.5 3.5-9t8.5-3.5h13q15 0 26-11t11-27v-29q0-26 18-44l14-14-14-14q-18-18-18-44V66q0-15-11-26t-26-11h-13q-5 0-8.5-3.5t-3.5-9q0-5.5 3.5-9T175 4h13q16 0 30.5 8.5t23 23Q250 50 250 66v30q0 15 11 26l23 23q4 4 4 9zM75 96V66q0-15 11-26t27-11h12q5 0 9-3.5t4-9q0-5.5-4-9T125 4h-12q-17 0-31.5 8.5t-23 23Q50 50 50 66v30q0 15-11 26l-23 23q-3 4-3 9t3 9l23 23q11 11 11 26v29q0 17 8.5 31.5t23 23Q96 304 113 304h12q5 0 9-3.5t4-9q0-5.5-4-9t-9-3.5h-12q-16 0-27-11t-11-27v-29q0-26-18-44l-14-14 14-14q18-18 18-44z"/></svg>