<svg viewBox="0 0 300 316" xmlns="http://www.w3.org/2000/svg"><path d="M150 304q-41 0-75.5-20T20 229.5Q0 195 0 154q2-57 33-95 29-35 73-47.5t88 0Q238 24 267 59q31 38 33 95 0 41-20 75.5T225.5 284Q191 304 150 304zm0-275q-34 0-62.5 17T42 91.5Q25 120 25 154q2 47 28 79 23 30 60 40t74 0q37-10 60-40 26-32 28-79 0-34-17-62.5T212.5 46Q184 29 150 29zm0 225q-27 0-50-13.5T63.5 204Q50 181 50 154q1-38 22-64 19-23 48.5-31t59 0Q209 67 228 90q21 26 22 64 0 27-13.5 50T200 240.5Q177 254 150 254zm0-175q-28 1-48 17-17 14-23 36t0 44q6 22 23 36 20 16 48 16t48-16q17-14 23-36t0-44q-6-22-23-36-20-16-48-17zm0 125q-23-1-36-15.5T101 154q0-20 13-34.5t36-14.5q23 0 36 14.5t13 34.5q0 20-13 34.5T150 204zm0-75q-12 0-18.5 7.5T125 154q0 10 6.5 17.5T150 179q12 0 18.5-7.5T175 154q0-10-6.5-17.5T150 129z"/></svg>