<svg viewBox="0 0 300 316" xmlns="http://www.w3.org/2000/svg"><path d="M4 300q3 4 8.5 4t8.5-4l35-35 35 35q5 5 11.5 3.5t9.5-7.5l41-113q2-6 .5-13.5T147 157q-5-5-12.5-6.5t-13.5.5L8 192q-6 3-7.5 9.5T4 213l35 35-35 35q-4 3-4 8.5t4 8.5zm183-108q-2-5 0-10t7-7q18-7 25.5-22.5t4-33Q220 102 207 90.5T175 79q-15 0-27.5 8.5T129 110q-2 5-7 7t-9.5 0q-4.5-2-6.5-7t0-10q8-21 27-33.5T175 54q29 0 49 18 19 17 24 42.5t-6 48.5q-11 24-38 35-3 1-6 1t-6-2q-3-2-5-5zm-24 49q0-5 3.5-8.5t8.5-3.5q38-1 64-22 23-19 31-48.5t0-59Q262 70 239 51q-26-21-64-22-27 0-50 13.5T88.5 79Q75 102 75 129q0 5-3.5 9t-9 3.5q-5.5-.5-9-4T50 129q0-34 17-62.5T112.5 21Q141 4 175 4q47 2 79 28 30 23 40 60t0 74q-10 37-40 60-32 26-79 28-5 0-8.5-3.5T163 241z"/></svg>