<svg viewBox="0 0 300 316" xmlns="http://www.w3.org/2000/svg"><path d="M161 194l-99 99q-7 8-16.5 10.5t-19 0Q17 301 10 294T.5 277.5q-2.5-9.5 0-19T11 242l99-99 51 51zm53-104q-11-10-26-10t-25 10l-35 35 51 51 35-35q10-10 10-25t-10-26zM61 68l19 6 6 19q1 5 5 8t9 3q5 0 9-3t5-8l6-19 19-6q5-1 8-5t3-9q0-5-3-9t-8-5l-19-6-6-19q-1-5-5-8t-9-3q-5 0-9 3t-5 8l-6 19-19 6q-5 1-8 5t-3 9q0 5 3 9t8 5zm150 150l19 6 6 19q1 5 5 8t9 3q5 0 9-3t5-8l6-19 19-6q5-1 8-5t3-9q0-5-3-9t-8-5l-19-6-6-19q-1-5-5-8t-9-3q-5 0-9 3t-5 8l-6 19-19 6q-5 1-8 5t-3 9q0 5 3 9t8 5zm11-158l17 5 5 17q1 4 4.5 6.5t8 2.5q4.5 0 8-2.5T269 82l5-17 17-5q4-1 6.5-4.5t2.5-8q0-4.5-2.5-8T291 35l-17-5-5-17q-1-4-4.5-6.5t-8-2.5q-4.5 0-8 2.5T244 13l-5 17-17 5q-4 1-6.5 4.5t-2.5 8q0 4.5 2.5 8T222 60z"/></svg>