<svg viewBox="0 0 300 316" xmlns="http://www.w3.org/2000/svg"><path d="M238 54h-14q-5-22-22-36T163 4h-25q-23 0-40 14T76 54H63q-17 0-31.5 8.5t-23 23Q0 100 0 116v125q0 17 8.5 31.5t23 23Q46 304 63 304h175q16 0 30.5-8.5t23-23Q300 258 300 241V116q0-16-8.5-30.5t-23-23Q254 54 238 54zM138 29h25q12 0 21.5 7T198 54h-96q4-11 14-18t22-7zm76 176l-30 32q-4 4-9 4t-8.5-3q-3.5-3-4-8.5t3.5-9.5l27-29H88q-6 0-9.5-3.5T75 179q0-5 3.5-9t9.5-4h105l-27-29q-4-3-3.5-8.5t4-9q3.5-3.5 9-3t8.5 3.5l30 33q11 10 11 26t-11 27v-1z"/></svg>