<svg viewBox="0 0 300 316" xmlns="http://www.w3.org/2000/svg"><path d="M216 133q9 8 21.5 8t21.5-8l23-22q12-12 16-28t0-32.5Q294 34 282 22 263 4 237.5 4T193 22q-12 12-16 28.5t0 32.5q4 16 16 28l23 22zm40-69q0 8-5.5 13.5t-13 5.5q-7.5 0-13-5.5T219 64q0-8 5.5-13.5t13-5.5q7.5 0 13 5.5T256 64zm44 153q0 20-14.5 35T250 267h-87q-6 0-9.5-4t-3.5-9q0-5 3.5-8.5t9.5-3.5h87q10 0 17.5-7.5t7.5-18q0-10.5-7.5-17.5t-17.5-7H113q-21 0-35.5-15t-15-35.5Q62 121 77 106.5T113 92h37q5 0 8.5 3.5t4 8.5q.5 5-3.5 9t-9 4h-37q-11 0-18.5 7t-7 17.5q.5 10.5 7.5 18t18 7.5h137q21 0 35.5 14.5T300 217zm-175 37q0 5-3.5 9t-8.5 4H94l-24 30q-4 7-12 7h-4q-4 0-6-3t-1-6l11-28H29q-8 0-14-7L1 244q-2-5 .5-10t7.5-5q5 0 8 3l14 10h28l-12-29q-1-3 1-6t6-3h3q9 0 13 7l24 31h18q6 0 9.5 3.5t3.5 8.5z"/></svg>