<svg viewBox="0 0 300 316" xmlns="http://www.w3.org/2000/svg"><path d="M288 129v62q5 0 8.5 4t3.5 9q0 5-3.5 9t-9.5 4H13q-6-1-9.5-4.5T0 204q0-5 3.5-9t9.5-4v-62h75v62h25v-62h75v62h25v-62h75zM13 104h275q5 0 8.5-3.5t3.5-9q0-5.5-3.5-9T287 79V41q1-10-7-17l-12-13q-8-7-18-7t-18 7l-12 13q-7 7-7 17v38h-25V41q0-10-8-17l-12-13q-8-7-18-7t-18 7l-12 13q-7 7-8 17v38H88V41q0-10-8-17L68 11q-8-7-18-7t-18 7L20 24q-7 7-7 17v38q-6 0-9.5 3.5t-3.5 9q0 5.5 3.5 9T13 104zm0 137v32q0 13 9 22t22 9h12q13 0 22.5-9t9.5-22v-32H13zm100 0v32q0 13 9 22t22 9h12q13 0 22.5-9t9.5-22v-32h-75zm100 0v32q0 13 9 22t22 9h12q13 0 22.5-9t9.5-22v-32h-75z"/></svg>