<svg viewBox="0 0 300 316" xmlns="http://www.w3.org/2000/svg"><path d="M164 5q-43-4-81 15T22.5 75Q0 111 0 154v100q0 5 3.5 9t9.5 4q5-1 8.5-4.5T25 254v-88q0-5 3.5-8.5t9-3.5q5.5 0 9 3.5T50 167v99q31 28 71.5 35.5T200 295v-28q0-6 3.5-9.5t9.5-3.5q5 0 8.5 3.5t3.5 9.5v25q0 5 3.5 8.5t9.5 3.5q5 0 8.5-3.5t3.5-8.5V166q0-5 3.5-8.5t9-3.5q5.5 0 9 3.5t3.5 9.5v99q0 6 3.5 9.5t9.5 3.5h-1q6 0 9.5-3.5t3.5-9.5V158q0-38-17.5-72t-49-56Q202 8 164 5zm-51 224h-13q-10 0-17.5-7.5T75 204q0-10 7.5-17.5T100 179h13v50zm-7-88q-8 0-13.5-5t-5-13q.5-8 5.5-13.5t13-5.5q8 0 13.5 5.5T125 123q0 8-5.5 13.5T106 142v-1zm57 88h-25v-50h25v50zm31-125q8 0 13.5 5.5t5 13.5q-.5 8-5.5 13.5t-13 5q-8-.5-13.5-5.5t-5.5-13q0-8 5.5-13.5T194 104zm6 125h-12v-50h12q10 0 17.5 7.5T225 204q0 10-7.5 17.5T200 229z"/></svg>