<svg viewBox="0 0 300 316" xmlns="http://www.w3.org/2000/svg"><path d="M100 135q0 8-5.5 13.5T81 154q-8 0-13-5.5T62.5 135q-.5-8 5-13t13.5-5.5q8-.5 13.5 5T100 135zm119-19q-8 0-13.5 5.5T200 135q0 8 5.5 13.5T219 154q8 0 13.5-5.5t5-13.5q-.5-8-5.5-13.5t-13-4.5v-1zm81-12v100q0 17-8.5 31.5t-23 22.5q-14.5 8-30.5 8h-16q-10 0-18.5-4.5T190 248l-18-32q-5-7-12-10-5-2-10-2t-10 2q-7 3-12 10l-18 32q-5 9-13.5 14T78 267H63q-17-1-31.5-9t-23-22.5Q0 221 0 204V104q0-17 8.5-31.5t23-23Q46 41 63 41h175q16 0 30.5 8.5t23 23Q300 87 300 104zm-175 31q0-18-13-31T81 91q-18 0-30.5 13T38 135q0 18 12.5 31T81 179q18 0 31-13t13-31zm138 0q0-18-13-31t-31-13q-18 0-31 13t-13 31q0 18 13 31t31 13q18 0 31-13t13-31z"/></svg>