<svg viewBox="0 0 300 316" xmlns="http://www.w3.org/2000/svg"><path d="M54 141H0q0-16 8.5-30.5t23-23Q46 79 62 79h76V24q0-11 9-17t20-1l40 19q6 3 6 10t-6 11l-44 20v13h75q16 0 30.5 8.5t23 23Q300 125 300 142h-54q-16 0-26-11l-35-37q-15-15-35.5-15T114 94l-33 37q-11 10-27 10zm96 100q-5 0-9 4t-4 9v50h26v-50q0-5-4-8.5t-9-3.5v-1zm96-75h54v100q0 16-11 27t-27 11h-74v-50q0-16-11-27t-27-11q-16 0-26.5 11T113 254v50H38q-16 0-27-11T0 267V166h54q13 1 24.5-4T99 148l33-37q8-7 18-7t17 7l35 37q8 9 19.5 14t24.5 4zM75 266q0-5-3.5-8.5T62 254H50q-5 0-8.5 3.5t-3.5 9q0 5.5 3.5 9T50 279h13q5 0 8.5-3.5T75 267v-1zm0-50q0-5-3.5-8.5T62 204H50q-5 0-8.5 3.5t-3.5 9q0 5.5 3.5 9T50 229h13q5 0 8.5-3.5T75 217v-1zm100-50q0-10-7.5-17t-17.5-7.5q-10-.5-17.5 7t-7.5 18q0 10.5 7.5 17.5t17.5 7.5q10 .5 17.5-7T175 167v-1zm88 100q0-5-4-8.5t-9-3.5h-12q-6 0-9.5 3.5t-3.5 9q0 5.5 3.5 9t8.5 3.5h13q5 0 9-3.5t4-8.5v-1zm-13-62h-12q-6 0-9.5 3.5t-3.5 9q0 5.5 3.5 9t8.5 3.5h13q5 0 9-3.5t4-9q0-5.5-4-9t-9-3.5z"/></svg>