<svg viewBox="0 0 300 316" xmlns="http://www.w3.org/2000/svg"><path d="M231 66h-37q-13 1-22 10t-9 22v43h-18l-15-31q-9-18-25-26t-32-4q-16 4-25.5 16T38 124v51q0 11 6 21t15 16l35 20q6 4 6 11v48q0 6 3.5 9.5t9 3.5q5.5 0 9-3.5t3.5-9.5v-48q0-10-5-18.5T107 211l-7-4v-96q4 3 6 7l17 35q3 6 9 9.5t13 3.5h86q13 0 22-9t9-22V98q0-13-9-22.5T231 66zM50 35q0-13 9-22t22-9q13 0 22 9t9.5 22q.5 13-9 22.5t-22.5 9Q68 66 59 57t-9-22zm25 219v37q0 6-3.5 9.5t-9 3.5q-5.5 0-9-3.5T50 291v-37q0-5 3.5-9t9-4q5.5 0 9 4t3.5 9z"/></svg>