<svg viewBox="0 0 300 316" xmlns="http://www.w3.org/2000/svg"><path d="M150 179q25 0 49-22 20-19 37-50 15-27 22-54-5-13-15-23t-24-14Q185 5 150 5T81 16q-14 4-24 14T42 53q7 27 22 54 17 31 37 50 24 22 49 22zM125 41h50q5 0 9 4t4 9q0 5-4 9t-9 4h-50q-5 0-8.5-4t-3.5-9q0-5 3.5-9t8.5-4zm138 70q-21 40-47 64-32 29-66 29t-66-29q-26-24-47-64v95q1 25 17 43l-16 38q-2 6 2 12t11.5 5q7.5-1 10.5-8l13-33q36 17 75 17t75-17l13 33q3 7 10.5 8t11.5-5q4-6 2-12l-16-38q17-18 17-43v-95zM150 254q-5 0-9-3.5t-3.5-9q.5-5.5 4-9t8.5-3.5q5 0 9 3.5t4 9q0 5.5-4 9t-9 3.5z"/></svg>