<svg viewBox="0 0 300 316" xmlns="http://www.w3.org/2000/svg"><path d="M269 204q13 0 22 9t9 22q0 13-9 22t-22 9H31q-13 0-22-9t-9-22q0-13 9-22t22-9h71q11 0 19 9l3 3h52l3-3q8-9 19-9h71zm6-100v76q-7-1-13-1h-64q-19 0-33 12h-30q-14-12-33-12H38q-6 0-13 1v-76q0-17 8.5-31.5t23-22.5Q71 42 87 42h126q16 0 30.5 8t23 22.5Q275 87 275 104zm-162 11l21-21q4-4 4-9t-3.5-8.5q-3.5-3.5-9-3.5t-8.5 3L96 97q-9 9-8.5 20.5T96 137l20 20q4 3 9 3t9-3.5q4-3.5 3.5-9T134 139l-21-20q-2-2 0-4zm91-18l-21-21q-3-3-8.5-3t-9 3.5Q162 80 162 85t4 9l21 21q0 1 .5 2t-.5 2l-21 20q-3 3-3.5 8.5t3.5 9q4 3.5 9 3.5t9-3l20-20q9-8 9-19.5T204 97z"/></svg>