<svg viewBox="0 0 300 316" xmlns="http://www.w3.org/2000/svg"><path d="M238 4H63q-17 0-31.5 8.5t-23 23Q0 50 0 66v175q0 17 8.5 31.5t23 23Q46 304 62 304v-38q0-23 12-43t32-32q20-12 44-12t44 12q20 12 32 32t12 44v37q16 0 30.5-8.5t23-23Q300 258 300 242V66q0-16-8.5-30.5t-23-23Q254 4 238 4zm-88 150q-21 0-35.5-14.5T100 104q0-21 14.5-35.5T150 54q21 0 35.5 14.5T200 104q0 21-14.5 35.5T150 154zm-25-50q0 10 7.5 17.5T150 129q10 0 17.5-7.5T175 104q0-10-7.5-17.5T150 79q-10 0-17.5 7.5T125 104zm25 100q-17 0-31.5 8.5t-22.5 23Q88 250 88 267v37h125v-38q-1-16-9-30.5t-22.5-23Q167 204 150 204z"/></svg>