<svg viewBox="0 0 300 316" xmlns="http://www.w3.org/2000/svg"><path d="M138 190v51q0 19-11.5 33T98 293l-33 9q-7 2-15 2-10 0-19-4t-16-11Q0 275 0 254q0-26 6-52l21-90q6-25 26.5-41.5T100 54h38v80q0 16-9.5 29T103 181l-32 11q-5 2-7 6.5t-1 9q1 4.5 4.5 6.5t6.5 2h5l32-11q15-5 27-15zm156 12l-21-90q-6-25-26.5-41.5T200 54h-37v80q0 16 9 29t25 18l32 11q5 2 7 6.5t1 9q-1 4.5-4.5 7T226 217q-3 0-5-1l-32-11q-15-5-26-15v52q-1 18 10.5 32t28.5 19l32 8q9 3 16 3 10 0 19-4t16-11q15-14 15-35 0-26-6-52zM163 16q0-5-4-8.5T150 4q-5 0-9 3.5t-4 9.5v37h26V16z"/></svg>