<svg viewBox="0 0 300 316" xmlns="http://www.w3.org/2000/svg"><path d="M238 4H63q-17 0-31.5 8.5t-23 23Q0 50 0 67v174q0 17 8.5 31.5t23 23Q46 304 63 304h175q16 0 30.5-8.5t23-23Q300 258 300 241V66q0-16-8.5-30.5t-23-23Q254 4 237 4h1zm-50 225h-65q-7 0-12.5-3.5T102 216q-3-6-2-13t6-12.5q5-5.5 14-11.5 5-4 18-11 20-11 27-18 11-10 10-23 0-9-7.5-16t-17.5-7q-10 0-17.5 7.5T125 129q0 5-3.5 8.5t-9 3.5q-5.5 0-9-3.5T100 129q0-21 14.5-35.5t35-14.5q20.5 0 35 13.5T200 126q1 24-16 41-11 10-34 23h-1q-16 9-21 14h59q6 0 9.5 3.5t3.5 9q0 5.5-3.5 9T187 229h1z"/></svg>