<svg viewBox="0 0 300 316" xmlns="http://www.w3.org/2000/svg"><path d="M213 304H63q-17 0-31.5-8.5t-23-23Q0 258 0 241V91q0-5 3.5-8.5t9-3.5q5.5 0 9 3.5T25 91v150q0 16 11 27t27 11h150q5 0 8.5 3.5t3.5 9q0 5.5-3.5 9T213 304zm0-50H113q-17 0-31.5-8.5t-23-23Q50 208 50 192V66q0-16 8.5-30.5t23-23Q96 4 112 4h126q16 0 30.5 8.5t23 23Q300 50 300 67v99h-50q-16 0-26.5 11T213 204v50zm-25-88v-25h25q5 0 8.5-3.5t3.5-8.5q0-5-3.5-9t-8.5-4h-25V91q0-5-4-8.5t-9-3.5q-5 0-9 3.5t-4 8.5v25h-24q-6 0-9.5 4t-3.5 9q0 5 3.5 9t9.5 4h25v24q0 6 3.5 9.5t8.5 3.5q5 0 9-3.5t4-9.5zm62 25q-5 0-8.5 4t-3.5 9v46q8-4 15-11l32-32q7-7 11-15h-46v-1z"/></svg>