<svg viewBox="0 0 300 316" xmlns="http://www.w3.org/2000/svg"><path d="M225 210v19h-87v-19q0-18 12.5-31t30.5-13q18 0 31 13t13 31zm75-119v75q0 23-14 40t-36 22v-18q0-18-9.5-34t-25-25.5q-15.5-9.5-34-9.5t-34.5 9.5q-16 9.5-25.5 25.5t-9.5 34v18q-21-5-35.5-22T62 166V91q0-16 8.5-30.5t23-23Q108 29 125 29h113q16 0 30.5 8.5t23 23Q300 75 300 92v-1zm-87 7q0-13-9.5-22T181 67q-13 0-22 9t-9 22q0 13 9 22t22 9q13 0 22-9t9-22h1zm12 168q0-5-3.5-8.5T212 254h-87q-24 0-44-12t-31.5-32Q38 190 38 166v-58q0-4-2.5-7t-6-4.5q-3.5-1.5-7-.5t-6.5 4Q0 118 0 142v75q0 16 8.5 30.5t23 23Q46 279 63 279h150q5 0 8.5-3.5t3.5-8.5v-1z"/></svg>