<svg viewBox="0 0 300 316" xmlns="http://www.w3.org/2000/svg"><path d="M175 91V10q18 6 31 20l43 43q14 13 20 31h-81q-6 0-9.5-3.5T175 91zm100 44v106q0 17-8.5 31.5t-23 23Q229 304 212 304H88q-17 0-31.5-8.5t-23-23Q25 258 25 241V66q0-16 8.5-30.5t23-23Q71 4 87 4v25q1 5 4.5 8.5T100 41q5 0 9-3.5t4-8.5V4h37v87q0 16 11 27t26 11h88v6zM88 79q0 5 3.5 8.5t8.5 4q5 .5 9-3.5t4-9V66q-1-5-4.5-8.5T100 54q-5 0-9 3.5T87 67v12h1zm0 50q0 5 3.5 8.5t8.5 3.5q5 0 9-3.5t4-8.5v-13q-1-5-4.5-8.5T100 104q-5 0-9 3.5t-4 9.5v12h1zm38 69l-10-32q-2-5-6-8.5t-10-3.5q-6 0-10 3.5t-6 8.5l-10 32q-2 7 2.5 12.5T89 216h22q8 0 12.5-5.5T126 198z"/></svg>