<svg viewBox="0 0 300 316" xmlns="http://www.w3.org/2000/svg"><path d="M197 232q0-14-9.5-32.5T161 160q-5-5-11-5t-11 5q-39 46-36 77 2 10 7 18t13 14q12 9 27 10 19 0 33-13.5t14-33.5zm11-192h-1q-20-17-30-26-12-12-29-9.5T122 21q-22 37-31 80-3-5-6-10.5t-8-9Q72 78 66 77t-12 1q-6 2-10 7-16 16-24.5 37T11 165q0 31 13 59t36.5 48Q84 292 114 299q17 5 35 5-23-1-41-15-12-9-20-22t-9-28q-5-41 41-95 6-7 13.5-10.5T150 130q9 0 16.5 3.5T180 144q17 21 28 41 14 26 14 47 0 19-9 35t-24.5 25.5Q173 302 155 304q37-1 67.5-20t48.5-50.5q18-31.5 18-68.5 0-26-12-49-9-19-29-39-12-13-40-37z"/></svg>