<svg viewBox="0 0 300 316" xmlns="http://www.w3.org/2000/svg"><path d="M238 304H63q-6 0-9.5-3.5t-3.5-9q0-5.5 3.5-9T62 279h176q5 0 8.5 3.5t3.5 9q0 5.5-3.5 9T237 304h1zm-25-138q-1-5-4.5-8.5T200 154H100q-5 0-8.5 3.5t-4 9q-.5 5.5 3.5 9t9 3.5h100q5 0 8.5-3.5t3.5-9.5h1zM188 41q0-5-4-8.5t-9-3.5h-50q-5 0-8.5 3.5t-3.5 9q0 5.5 3.5 9T125 54h50q5 0 9-3.5t3-8.5l1-1zm80 41l5-18 18-4q4-1 6.5-4.5t2.5-8q0-4.5-2.5-7.5t-6.5-4l-18-5-5-18q-1-4-4-6.5T256.5 4q-4.5 0-8 2.5T244 13l-4 18-18 4q-4 1-6.5 4.5t-3 7.5q-.5 4 2.5 7.5t7 4.5l18 5 4 18q1 4 4.5 7t8 3q4.5 0 7.5-3t4-7zM46 236l7-17 16-6q6-3 6-9t-6-9l-16-6-7-17q-2-5-8.5-5.5T29 172l-7 17-16 6q-6 2-6 8.5t6 8.5l16 7 7 17q2 6 8.5 6t8.5-6z"/></svg>