<svg viewBox="0 0 300 316" xmlns="http://www.w3.org/2000/svg"><path d="M125 304q-3 0-5-1-5-2-7-7t1-9l37-88q2-5 7-6.5t9.5.5q4.5 2 6.5 6.5t0 9.5l-38 87q-1 4-4 6t-7 2zm-39-8l38-87q2-5 0-9.5t-6.5-6.5q-4.5-2-9.5-.5t-7 6.5l-37 88q-3 4-1 9t7 7q2 1 5.5 1t6.5-2q3-2 4-6zm100 0l38-87q3-7-1.5-12.5t-11.5-5q-7 .5-10 7.5l-37 88q-3 4-1 9t7 7q2 1 5.5 1t6.5-2q3-2 4-6zm38-228q-6-1-9-7-14-31-44.5-46.5T106 6q-31 5-52.5 27.5T26 87q-3 18 1 36 1 7-4 11-13 12-18.5 28t-3 33.5Q4 213 14.5 227T41 248q4 2 8.5 0t5.5-6l23-53q6-14 20.5-20t28.5 1q11 5 22-1 14-6 28 1 11 5 22-1 14-6 28.5.5t20 21.5q5.5 15-.5 29l-7 14q-1 5 2.5 8t7.5 1q27-13 39.5-39.5T299 148q-3-29-22-50-20-23-53-30z"/></svg>