<svg viewBox="0 0 300 316" xmlns="http://www.w3.org/2000/svg"><path d="M263 179h-50q-16 0-27 11t-11 26v50q0 16 11 27t26 11h51q15 0 26-11t11-27v-50q0-15-11-26t-27-11h1zm12 37v13h-25v-25h13q5 0 8.5 3.5t3.5 8.5zm-62-12h12v25h-25v-13q0-5 3.5-8.5t9.5-3.5zm-13 62v-12h25v25h-12q-6 0-9.5-3.5T200 266zm63 13h-13v-25h25v12q0 6-3.5 9.5T263 279zm-50-125q-17 0-31.5 8.5t-23 23Q150 200 150 217v24q0 6-3.5 9.5t-9 3.5q-5.5 0-9-3.5T125 241v-51l-48 57q-2 1-2 4v12q0 8-3.5 14.5T62 288l-17 13q-3 3-8.5 3t-9-4.5Q24 295 25 290t5-8l18-14q2-2 2-5v-12q0-12 8-21l50-59q-41 41-53 44-6 1-12 1-14 0-26-8.5T2 185q-5-17 3.5-33T32 132q7-2 21-3h60L51 85q-7-5-10-11.5T38 59V49q0-2-2-4L16 25q-4-3-4-8.5t4-9Q20 4 25 4t9 4l19 19q10 9 9 22v10q0 3 3 5l48 34q-7-8-7-19 0-8 4.5-15.5T122 52l9-43q1-5 6.5-5t6.5 5l9 43q7 4 11.5 11.5T169 79q0 11-7 20l48-35q3-2 3-5v-9q-1-14 9-23l19-19q4-4 9-4t9 3.5q4 3.5 4 9t-4 8.5l-20 20q-1 2-1 4v10q0 7-3.5 14T225 85l-63 44h26q31 0 55 7 10 2 15 5 7 4 11 11l1 2h-58 1z"/></svg>