<svg viewBox="0 0 300 316" xmlns="http://www.w3.org/2000/svg"><path d="M238 116h-63q-17 1-31.5 9T121 147.5q-8 14.5-8 31.5v62q0 17 8 31.5t22.5 23Q158 304 175 304h63q16 0 30.5-8.5t23-23Q300 258 300 241v-62q0-17-8.5-31.5t-23-22.5q-14.5-8-30.5-8v-1zm-63 75q-5 0-9-3.5t-3.5-8.5q.5-5 4-9t8.5-3.5q5 .5 9 4t3.5 8.5q-.5 5-4 8.5T175 191zm63 63q-6 0-9.5-3.5t-3.5-9q0-5.5 3.5-9t9-3.5q5.5 0 9 3.5t3.5 9q0 5.5-3.5 9T238 254zM195 66l-44-44q-12-12-28-16T91 6q-16 4-29 16L18 66Q6 79 2 95t0 32q4 16 16 28l45 44q10 11 24 15v-35q1-24 12.5-44t31.5-31.5Q151 92 175 92h35q-4-15-15-25v-1zM63 129q-6 0-9.5-3.5t-3.5-9q0-5.5 3.5-9t9-3.5q5.5 0 9 3.5t3.5 9q0 5.5-3.5 9T62 129h1zm50-50q-6 0-9.5-3.5t-3.5-9q0-5.5 3.5-9t9-3.5q5.5 0 9 3.5t3.5 9q0 5.5-3.5 9T112 79h1z"/></svg>