<svg viewBox="0 0 300 316" xmlns="http://www.w3.org/2000/svg"><path d="M175 304q-7 0-10.5-5.5T163 287l25-63q2-4 7-6.5t9.5-.5q4.5 2 7 7t.5 10l-25 62q-2 4-5 6t-7 2zm-38-8l25-62q2-5-.5-10t-7-7q-4.5-2-9.5.5t-7 6.5l-25 63q-2 5 .5 9.5t6.5 6.5q3 1 6 1t6-2q3-2 5-6zm-50 0l25-62q2-5-.5-10t-7-7q-4.5-2-9.5.5t-7 6.5l-25 63q-2 5 .5 9.5T70 303q3 1 6 1t6-2q3-2 5-6zm213-136q0 32-19 57t-49 33l3-7q5-12 1-24.5t-14.5-20q-10.5-7.5-23.5-7t-23 9.5q-11-10-25-10t-25 10q-7-6-16-8.5t-18-.5q-9 2-15.5 8T65 215l-14 36q-18-5-31-18.5T2.5 201q-4.5-18 1-36T22 134q6-4 5-11-4-18-1-36 6-31 27.5-53.5T106 6q34-7 64.5 8.5T215 61q3 6 10 7 33 7 54 33t21 59zm-100-44q0-5-3.5-8.5T188 104h-23l11-19q4-6 .5-12.5t-11-6.5q-7.5 0-10.5 6l-11 19-11-19q-3-4-8-5.5t-9.5 1Q111 70 110 75t1 10l11 19h-22q-5 0-8.5 3.5t-3.5 9q0 5.5 3.5 9t8.5 3.5h22l-11 19q-2 5-1 10t5.5 7.5q4.5 2.5 9.5 1t8-5.5l11-19 11 19q3 6 10.5 6t11-6.5q3.5-6.5-.5-12.5l-11-19h23q5 0 8.5-3.5t3.5-8.5v-1z"/></svg>