<svg viewBox="0 0 300 316" xmlns="http://www.w3.org/2000/svg"><path d="M291 286l-55 17q-5 2-10-.5t-6.5-7.5q-1.5-5 1-9.5t7.5-5.5l16-5-12-34h-7q-21 0-38-12.5T165 196l-2-5 13-37h107l2 8q6 20-2 40t-27 31l11 34 17-5q5-1 9.5 1.5t6 7q1.5 4.5-1 9.5t-7.5 6zM183 129h91l-12-36q-5-14-18-21.5T216 68l-44 12 5 7q11 20 6 42zm-51-48L84 68q-15-4-28 3T38 93l-12 36h132v-1q5-15-3-28.5T132 81zM15 162q-6 21 2.5 41T44 233l-11 34-17-5q-7-2-12 3T.5 277q1.5 7 8.5 9l55 17q5 2 10-.5t6.5-7.5q1.5-5-1-9.5T72 280l-16-5 12-34h7q21 0 37.5-12.5T135 196l14-42H18l-3 8zM194 53q5 2 10 .5t7-6.5l13-25q2-5 .5-9.5t-6-7Q214 3 209 4.5t-8 6.5l-12 25q-2 5-.5 9.5T194 53zM89 47q3 7 10 7t11-6q4-6 1-12L99 11q-3-5-7.5-6.5t-9.5 1q-5 2.5-6.5 7T76 22l13 25zm61-43q-5 0-9 3.5t-4 8.5v25q1 6 4.5 9.5T150 54q5 0 9-3.5t4-8.5V16q0-5-4-8.5T150 4z"/></svg>