<svg viewBox="0 0 300 316" xmlns="http://www.w3.org/2000/svg"><path d="M296 300q-3 4-8.5 4t-8.5-4L4 25q-4-3-4-8.5t3.5-9Q7 4 12.5 4T21 8l123 122q6-2 12.5 0t11 6.5q4.5 4.5 6.5 11t0 12.5l28 28q12-18 10-40t-18-38q-4-4-4-9t4-8.5q4-3.5 9-3.5t9 3q15 16 21.5 36t3 41q-3.5 21-16.5 37l27 27q20-24 25.5-54.5t-3-60.5Q261 88 238 66q-3-4-3-9t3.5-9q3.5-4 8.5-4t9 4q27 27 37.5 63.5t3 73.5q-7.5 37-31.5 66l31 32q4 3 4 8.5t-4 8.5zM34 108q1-4-1-9t-7-7q-5-2-9.5.5T10 99q-16 42-7 86t41 75q3 4 8.5 4t9-4q3.5-4 3.5-9t-3-8q-27-27-34.5-63.5T34 109v-1zm54 46q0-5-4-9t-9-4q-5 0-8.5 4t-3.5 9q0 18 6.5 33.5T88 216q4 3 9 3t9-3.5q4-3.5 4-8.5t-4-9q-18-18-18-44z"/></svg>