<svg viewBox="0 0 300 316" xmlns="http://www.w3.org/2000/svg"><path d="M252 141h4q8 0 13.5-5t5.5-13V98q0-8-5.5-13.5T256 79h-4q-11-33-39-54T150 4q-35 0-63 21T48 79h-4q-8 0-13.5 5.5T25 98v25q0 8 5.5 13t13.5 5h4q7 21 21 37.5t33 26.5q-22 2-39.5 14.5T35 251q-10 19-10 41 0 5 3.5 8.5T37 304h38v-13q0-15 11-26t26-11h76q15 0 26 11t11 27v12h38q5 0 8.5-3.5t3.5-9.5q0-21-10-40t-27.5-31.5Q220 207 198 205q19-10 33-26.5t21-37.5zm-102 38q-20 0-37.5-10T85 141.5Q75 124 75 104q0-9 7.5-17t18.5-8h99q11 0 18 7.5t7 17.5q0 20-10 37.5T187.5 169Q170 179 150 179zm-50-74q0 20 14.5 34.5T150 154q21 0 35.5-14.5T200 104h-99q-1 0-1 1zm88 174h-75q-6 0-9.5 3.5T100 292v12h100v-13q0-5-3.5-8.5T187 279h1z"/></svg>