<svg viewBox="0 0 300 316" xmlns="http://www.w3.org/2000/svg"><path d="M146 175L21 300q-3 4-8.5 4t-9-3.5Q0 297 0 291.5t4-8.5l125-125q3-4 8.5-4t9 3.5q3.5 3.5 3.5 9t-4 8.5zM296 8q-3-4-8.5-4T279 8l-46 45q-13-15-31.5-24.5T163 17q-24-2-47 5T75 45Q57 61 47.5 83T38 129q0 5 3.5 8.5T50 141q5 0 9-3.5t4-8.5q0-19 7.5-36T92 63.5q14-12.5 31.5-18T160 42q30 3 51.5 24.5T237 118q2 19-3.5 37T216 187q-7 8-11.5 19.5T200 229q0 21-14.5 35.5T150 279q-5 0-8.5 3.5t-3.5 9q0 5.5 3.5 9t8.5 3.5q20 0 37.5-10t27.5-27.5q10-17.5 10-37.5 0-6 2.5-13.5T234 204q16-18 23.5-41.5T262 115q-3-21-14-41l49-49q3-3 3-8.5T297 8h-1zM179 171q4 4 9 4t9-5q16-17 16-41 0-17-8.5-31.5t-23-23Q167 66 150 66t-31.5 8.5Q104 83 96 97.5T88 129q0 5 3.5 8.5t8.5 3.5q5 0 9-3.5t4-8.5q0-15 11-26.5T150 91q15 0 26.5 11.5t11.5 26q0 14.5-10 25.5-3 4-3 9t4 8z"/></svg>