<svg viewBox="0 0 300 316" xmlns="http://www.w3.org/2000/svg"><path d="M213 291q-1 6-4.5 9.5T200 304h-62q-31 0-57-15t-41-41q-15-26-15-57v-87q0-5 3.5-9t9-4q5.5 0 9 4t3.5 9v87q0 24 12 44t32 32q20 12 44 12h62q5 0 9 3.5t4 8.5zM138 4h59q21 0 35 15l28 28q7 7 11 16t4 19v109q0 17-8.5 31.5t-23 23Q229 254 212 254h-74q-17 0-31.5-8.5t-23-23Q75 208 75 192V66q0-16 8.5-30.5t23-23Q121 4 137 4h1zm-25 150h63v-38h-38q-10 0-17.5 7.5T113 141v13zm38 25h-38v12q0 11 7.5 18t17.5 7h13v-37zm87 0h-62v37h37q11 0 18-7t7-18v-12zm0-38q0-10-7-17.5t-18-7.5h-12v38h37v-13z"/></svg>