<svg viewBox="0 0 300 316" xmlns="http://www.w3.org/2000/svg"><path d="M150 54q18 0 33.5 6.5T212 80q4 3 4 8.5t-4 9q-4 3.5-9 3.5t-9-4q-18-18-44-18t-44 18q-4 4-9 4t-9-3.5q-4-3.5-4-9t4-8.5q13-13 28.5-19.5T150 54zm-80 8q22-22 51-29.5t58 0Q208 40 230 62q3 4 8.5 4t9-4q3.5-4 3.5-9t-4-9q-26-26-61.5-35.5t-71 0Q79 18 53 44q-4 4-4 9t3.5 9q3.5 4 9 4t8.5-4zm230 117v75q0 21-14.5 35.5T250 304H50q-21 0-35.5-14.5T0 254v-75q0-21 14.5-35.5T50 129h200q21 0 35.5 14.5T300 179zM75 254q0-5-3.5-9t-9.5-4v-62q1-5-3-8.5t-9-4q-5-.5-8.5 3.5t-3.5 9v75q0 5 3.5 8.5T50 267h13q5-1 8.5-4.5T75 254zm38-75q-1-5-4.5-8.5t-8.5-4q-5-.5-9 3.5t-4 9v75q1 5 4.5 9t8.5 3.5q5-.5 9-4t4-8.5v-75zm78-12q-5-2-9.5.5T176 175l-14 39-13-39q-1-5-6-7.5t-9.5-.5q-4.5 2-7 6.5t-.5 9.5l25 75q1 4 4 6.5t7.5 2.5q4.5 0 7.5-2.5t4-6.5l25-75q2-5-.5-9.5T191 167zm47 37v-13h12q5 0 9-3.5t4-8.5q0-5-4-8.5t-9-3.5h-19q-8-1-13 4.5t-5 13.5v63q-1 8 4.5 13.5T231 267h19q5-1 9-4.5t4-8.5q0-5-4-9t-9-4h-12v-12h12q5 0 9-3.5t4-9q0-5.5-4-9t-9-3.5h-12z"/></svg>