<svg viewBox="0 0 300 316" xmlns="http://www.w3.org/2000/svg"><path d="M296 283l-31-32q10-16 10-33.5t-8.5-32q-8.5-14.5-23-23t-31-8.5q-16.5 0-31 8.5t-23 23q-8.5 14.5-8.5 31t8.5 31q8.5 14.5 23 23t32 8.5q17.5 0 33.5-10l32 31q3 4 8.5 4t9-3.5q3.5-3.5 3.5-9t-4-8.5zM238 4H63q-17 0-31.5 8.5t-23 23Q0 50 0 67v24h300V66q0-16-8.5-30.5t-23-23Q254 4 238 4zM56 66q-8 1-13-4.5T38 48q0-8 5-13.5T56 29q8 0 13.5 5.5T75 48q0 8-5.5 13T56 66zm50 0q-8 0-13.5-5t-5-13q.5-8 5.5-13.5t13-5.5q8 0 13.5 5.5T125 48q0 8-5.5 13T106 66zm194 152v-2 2zM0 116h300v100q0-23-12-43t-32-32q-20-12-43.5-12T169 141q-20 12-32 32t-12 43q0 19 7 35t19 28H63q-17 0-31.5-8.5t-23-23Q0 233 0 217V116z"/></svg>