<svg viewBox="0 0 300 316" xmlns="http://www.w3.org/2000/svg"><path d="M238 4H63q-17 0-31.5 8.5t-23 23Q0 50 0 67v174q0 17 8.5 31.5t23 23Q46 304 63 304h175q16 0 30.5-8.5t23-23Q300 258 300 241V66q0-16-8.5-30.5t-23-23Q254 4 237 4h1zm-13 212h-25v13q0 5-3.5 8.5t-9 3.5q-5.5 0-9-3.5T175 229v-13H75q-5 1-8.5-3t-4-9q-.5-5 3.5-9t9-4h100v-12q0-5 3.5-9t9-4q5.5 0 9 4t3.5 9v12h25q5 0 9 4t4 9q0 5-4 9t-9 4v-1zm0-100H125v13q0 5-3.5 9t-9 3.5q-5.5-.5-9-4T100 129v-13H75q-5 0-8.5-3.5t-4-8.5q-.5-5 3.5-9t9-4h25V79q0-5 3.5-9t9-4q5.5 0 9 4t3.5 9v12h100q5 1 9 4.5t4 8.5q0 5-4 9t-9 4v-1z"/></svg>