<svg viewBox="0 0 300 316" xmlns="http://www.w3.org/2000/svg"><path d="M295 52q-7-10-20-11h-44q4-6 6-14.5t-.5-15Q234 5 225 4q-5 0-8.5 3.5T212 16q1 11-6.5 18.5T187 42h-74q-11-1-18-8t-7-17q0-6-4-9.5T75 4Q62 5 63 19q0 12 6 23H25Q12 42 4.5 52T1 74q6 17 19 30 18-17 39-35 4-3 9-2.5t8.5 4.5q3.5 4 3 9T75 89l-18 15h18q17 0 31.5 8.5t22.5 23q8 14.5 8 31.5v49q1 6-3 9.5t-9 3.5q-5 0-8.5-3.5T113 216v-50q0-6-3-12-10 2-17-5.5T88 131q-6-2-13-2H40l35 139q1 15 11.5 25.5T112 304h76q15 0 25.5-10.5T225 268l35-139h-35q-7 0-13 2 2 10-5 17.5t-17 5.5q-3 6-3 12v50q0 6-3.5 9.5T175 229q-5 0-9-3.5t-4-9.5v-50q1-16 9-30.5t22.5-23Q208 104 225 104h18l-18-15q-4-4-4-9t3-9q3-4 8-4.5t9 2.5q21 18 39 35 13-13 19-30 4-12-4-22zM188 254q5 0 8.5 3.5t3.5 9q0 5.5-3.5 9T188 279h-75q-6 0-9.5-3.5t-3.5-9q0-5.5 3.5-9t9.5-3.5h75z"/></svg>