<svg viewBox="0 0 300 316" xmlns="http://www.w3.org/2000/svg"><path d="M38 202q-3 0-5-1-10-4-18-12T3 171q-2-5 .5-10t7-6.5q4.5-1.5 9.5.5t7 7q4 12 15 15 5 2 7 7t.5 9q-1.5 4-4.5 6.5t-7 2.5zm87-11q0-5-3.5-8.5T113 179H88q-6 0-9.5 3.5t-3.5 9q0 5.5 3.5 9T88 204h25q5 0 8.5-3.5t3.5-9.5zm42 10q10-4 18-12t12-18q2-5-.5-10t-7-6.5q-4.5-1.5-9.5.5t-6 7q-5 12-16 15-5 2-7 7t-.5 9q1.5 4 4.5 6.5t6 2.5q3 0 6-1zm33-85V91q0-5-3.5-8.5t-9-3.5q-5.5 0-9 3.5T175 91v25q0 6 3.5 9.5t9 3.5q5.5 0 9-3.5t3.5-9.5zM125 16q0-5-3.5-8.5T113 4H88q-6 0-9.5 3.5t-3.5 9q0 5.5 3.5 9T88 29h25q5 0 8.5-3.5T125 16zM25 116V91q0-5-3.5-8.5t-9-3.5q-5.5 0-9 3.5T0 91v25q0 6 3.5 9.5t9 3.5q5.5 0 9-3.5T25 116zm275 125v-75q0-16-8.5-30.5t-23-23Q254 104 238 104q-6 0-9.5 3.5T225 116v38q0 20-10 37.5T187.5 219Q170 229 150 229h-37q-6 0-9.5 3.5T100 241q0 17 8.5 31.5t23 23Q146 304 163 304h75q16 0 30.5-8.5t23-23Q300 258 300 241zM26 46q4-12 16-16 4-1 6.5-6t1-9.5Q48 10 43 7.5T33 7q-10 4-18 12T3 37q-2 5 .5 10t7.5 6q2 1 5 1t6-2q3-2 4-6zm164 7q4-1 6.5-6t.5-10q-4-11-12-19T167 7q-5-2-10 .5t-6.5 7Q149 19 151 24t7 6q12 4 16 16 1 3 4 5.5t6 2.5q3 0 5-1h1z"/></svg>