<svg viewBox="0 0 300 316" xmlns="http://www.w3.org/2000/svg"><path d="M225 185q0 12-9.5 16.5t-18.5 0q-9-4.5-9-16t9-16.5q9-5 18.5 0t9.5 16zm-138-6h26l-13-44-13 44zm213-88v125q0 17-8.5 31.5t-23 23Q254 279 238 279H63q-17 0-31.5-8.5t-23-23Q0 233 0 217V91q0-16 8.5-30.5t23-23Q46 29 63 29h175q16 0 30.5 8.5t23 23Q300 75 300 92v-1zM149 213L112 88q-2-6-7-8t-10 0q-5 2-7 8L51 213q-3 7 2.5 12t12 3.5Q72 227 74 220l5-16h42l5 16q1 5 5.5 7.5t9.5 1q5-1.5 7.5-6t.5-9.5zM250 91q0-7-6-10t-12.5 0q-6.5 3-6.5 11v54q-13-7-28-3.5T172 158q-10 12-10 27.5t10.5 27.5q10.5 12 26 15t28.5-5q3 5 8.5 5.5t10-3q4.5-3.5 4.5-9.5V91z"/></svg>