<svg viewBox="0 0 300 316" xmlns="http://www.w3.org/2000/svg"><path d="M269 155q-21 17-52 27t-67 10q-36 0-67-10t-52-27q29-1 50-7 29-8 39-25l2-3q2-5 3-11t-1-13q13 8 26 8t25-8q0 10 2 19 1 5 3 8 10 17 39 25 21 6 50 7zm-68-45q8 11 37 17 24 4 53 3 9-16 9-32 0-25-18.5-45.5T231 19q-18 36-24 53-10 28-6 38zm-51-31q13 0 28-21 10-15 27-47-27-7-56-7t-56 7q16 32 28 47 16 21 29 21zm-51 31q4-10-6-35-6-16-23-49l-3-6Q36 33 18 53.5T0 98q0 16 9 32 29 1 53-3 29-6 37-17zm51 106q-48 1-87.5-14.5T0 160v40q0 28 20 52t54.5 38q34.5 14 75.5 14t75.5-14q34.5-14 54.5-38t20-52v-40q-23 26-62.5 41T150 216z"/></svg>