<svg viewBox="0 0 300 316" xmlns="http://www.w3.org/2000/svg"><path d="M20 229q8 13 23 17.5t28-3.5l6-3q16 13 36 20v6q-1 16 10 27t27 11q16 0 27-11t10-27v-6q20-7 36-20l6 3q13 8 28 3.5t23-17.5q8-13 4-28t-18-23l-5-3q3-21 0-42l5-3q14-8 18-23t-4-28q-8-13-23-17.5T229 65l-6 3q-16-13-36-20v-7q0-15-10.5-26T150 4q-16 0-26.5 11T113 42v6q-20 7-36 20l-6-3q-13-8-28-3.5T20 79q-8 13-4 28t18 23l5 3q-3 21 0 42l-5 3q-14 8-18 23t4 28zm130-125q21 0 35.5 14.5T200 154q0 21-14.5 35.5T150 204q-21 0-35.5-14.5T100 154q0-21 14.5-35.5T150 104z"/></svg>