<svg viewBox="0 0 300 316" xmlns="http://www.w3.org/2000/svg"><path d="M263 154q6 0 12-1v76q0 20-10 37.5T237.5 294Q220 304 200 304H100q-20 0-37.5-10T35 266.5Q25 249 25 229v-76q27 4 50-9 17 10 37.5 10t37.5-10q17 10 37.5 10t37.5-10q17 10 37 10h1zm-13-88V35q0-13-9-22t-22-9H81Q67 4 57.5 15.5T50 42h138q5-1 8.5 3t3.5 9q0 5-3.5 9t-8.5 4H50q-22 3-35 13T.5 101.5Q-1 113 8.5 121t28 8Q55 129 68 119q3-3 7-3t7 3q13 10 30 10t31-10q3-3 7-3t7 3q14 10 31 10t30-10q3-3 7-3t7 3q13 10 31.5 10t28-8q9.5-8 8-19.5T285 80q-13-10-35-14z"/></svg>