<svg viewBox="0 0 300 316" xmlns="http://www.w3.org/2000/svg"><path d="M275 65l-10 90q-1 5-4.5 8t-8.5 3H46q-5 0-8.5-3t-3.5-8L24 65q-3-20 9.5-35.5T66 10l13-2 6 121q1 5 4.5 8.5T98 141q5 0 9-4t3-9L104 6q15-2 33-2v125q0 5 3.5 8.5t8.5 3.5q5 0 9-3.5t4-8.5V4q17 0 32 2l-6 122q0 5 3.5 9t8.5 4q5 0 9-3.5t4-8.5l6-121 14 2q20 4 32 19.5T275 65zM111 191l-6 111q15 1 33 2V192h-27v-1zm-82 12l-5 39q-2 20 10.5 36T66 297l14 2 6-107H41q-4 0-8 3t-4 8zm230-12h-45l6 108 14-2q19-3 31.5-19t10.5-36l-5-39q0-5-4-8t-8-3v-1zm-97 0v113q18-1 33-2l-6-111h-27z"/></svg>