<svg viewBox="0 0 300 316" xmlns="http://www.w3.org/2000/svg"><path d="M38 79q0-20 10-37.5T75 14Q92 4 112.5 4T150 14q17 10 27.5 27.5T188 79q0 20-10.5 37.5T150 144q-17 10-37.5 10T75 144q-17-10-27-27.5T38 79zm75 100q-31 0-57 15t-41 41Q0 261 0 292q0 5 3.5 8.5T12 304h201q5 0 8.5-3.5t3.5-9.5q0-30-15-56t-41-41q-26-15-56-15zm155-25l28-29q4-3 4-8.5t-3.5-9q-3.5-3.5-9-3.5t-8.5 4l-29 28-29-28q-3-4-8.5-4t-9 3.5q-3.5 3.5-3.5 9t4 8.5l28 29-28 29q-6 5-4 12t9 9q7 2 12-4l29-28 29 28q3 4 8.5 4t9-3.5q3.5-3.5 3.5-9t-4-8.5l-28-29z"/></svg>