<svg viewBox="0 0 300 316" xmlns="http://www.w3.org/2000/svg"><path d="M166 247q-16 16-16 39v18h18q23 0 38-16l86-85q8-8 8-20t-8.5-20.5Q283 154 271 154t-20 8l-85 85zm-18-17l64-64h-24q-8 0-11-6t0-12q3-6 11-7h49q13-11 31-12t32 8V91q0-16-8.5-30.5t-23-23Q254 29 238 29H63q-17 0-31.5 8.5t-23 23Q0 75 0 92v124q0 17 8.5 31.5t23 23Q46 279 63 279h62q3-29 23-49zm40-139h50q7 1 10 7t0 12q-3 6-10 7h-50q-8-1-11-7t0-12q3-6 11-7zM38 179v-13q-8 0-11-6t0-12q3-6 11-7v-12q0-16 10.5-26.5T75 92h25q16-1 27 10t11 27q-1 8-7 11t-12 0q-6-3-6-11 0-5-4-9t-9-4H75q-5 0-8.5 4t-3.5 9v12h25q7 1 10 7t0 12q-3 6-10 6H63v13q0 5 3.5 8.5T75 192h25q5-1 8.5-4.5t3.5-8.5q1-8 7-11t12 0q6 3 7 11 0 16-11 26.5T100 216H75q-16 0-27-10.5T37 179h1z"/></svg>