<svg viewBox="0 0 300 316" xmlns="http://www.w3.org/2000/svg"><path d="M200 138q0 12-13 29t-35 34q-2 2-4 0-22-18-35-34.5T100 138q0-9 5.5-15.5T119 116q8 0 13.5 6.5T138 138q0 6 3.5 9.5t8.5 3.5q5 0 9-3.5t4-9.5q0-9 5-15.5t13-6.5q8 0 13.5 6.5T200 138zm100 16q0 41-20 75.5T225.5 284Q191 304 150 304t-75.5-20Q40 264 20 229.5T0 154q0-41 20-75.5T74.5 24Q109 4 150 4t75.5 20Q260 44 280 78.5t20 75.5zm-75-16q0-19-13-33t-31-14q-18 0-31 15-13-15-31-15t-31 14q-13 14-13 34t19 44q14 19 39 38 7 6 17 6t18-6q24-19 38-38 19-24 19-45z"/></svg>