<svg viewBox="0 0 300.0072 316" xmlns="http://www.w3.org/2000/svg"><path d="M38 285q0 8-5.5 13.5T19 304q-8 0-13.5-5.5T0 285q0-8 5.5-13t13.5-5.5q8-.5 13 5t5 13.5h1zm37-69q-10 0-17.5 7.5t-7.5 18q0 10.5 7.5 18T75 267q10 0 17.5-7.5t7.5-18q0-10.5-7.5-18T75 216zm119-14q4-3 10-1 21 6 42.5-.5t36-24Q297 159 300 138q2-26-11.5-48T251 59q-6-2-8-7-10-22-30-35T169 4q-16 0-30.5 6T112 27q-4 4-10 3-16-3-33 1-21 5-36.5 21.5T13.5 90Q10 111 17 129.5T38.5 161Q53 174 73 178h8q4 1 6 4 10 16 27 25t36 9q24 0 44-14z"/></svg>