<svg viewBox="0 0 300 316" xmlns="http://www.w3.org/2000/svg"><path d="M238 4q-17 0-31.5 8.5t-23 23Q175 50 175 66H63q-16 0-27 11.5T25 104v12q0 6 3.5 9.5t9 3.5q5.5 0 9-3.5T50 116v-12q0-5 3.5-9t9.5-4h12v25q0 6 3.5 9.5t9 3.5q5.5 0 9-3.5t3.5-9.5V91h75q0 17 8.5 31.5t23 23q14.5 8.5 31 8.5t31-8.5q14.5-8.5 23-23T300 91V66q0-16-8.5-30.5t-23-23Q254 4 238 4zm37 87q0 16-11 27t-26.5 11q-15.5 0-26.5-11t-11-27V66q0-15 11-26t26.5-11Q253 29 264 40t11 26v25zm-12 88q-6 0-9.5 3.5T250 191v13q0 5-3.5 8.5T238 216h-13v-25q0-5-3.5-8.5t-9-3.5q-5.5 0-9 3.5T200 191v25h-75q0-16-8.5-30.5t-23-23Q79 154 62.5 154t-31 8.5q-14.5 8.5-23 23T0 216v25q0 17 8.5 31.5t23 23q14.5 8.5 31 8.5t31-8.5q14.5-8.5 23-23T125 241h113q15 0 26-11t11-26v-13q0-5-3.5-8.5T263 179zm-163 62q0 16-11 27t-26.5 11Q47 279 36 268t-11-27v-25q0-15 11-26t26.5-11Q78 179 89 190t11 26v25z"/></svg>