<svg viewBox="0 0 300 316" xmlns="http://www.w3.org/2000/svg"><path d="M250 29h-37V16q0-5-4-8.5T200 4q-5 0-8.5 3.5T188 16v13H50q-21 0-35.5 14.5T0 79q0 21 14.5 35.5T50 129h138v12q0 6 3.5 9.5t8.5 3.5q5 0 9-3.5t4-9.5v-12h37q21 0 35.5-14.5T300 79q0-21-14.5-35.5T250 29zm-112 75V54h50v50h-50zm112 75h-87v-13q0-5-4-8.5t-9-3.5q-5 0-8.5 3.5T138 166v13H50q-21 0-35.5 14.5T0 229q0 21 14.5 35.5T50 279h88v12q0 6 3.5 9.5t8.5 3.5q5 0 9-3.5t4-9.5v-12h87q21 0 35.5-14.5T300 229q0-21-14.5-35.5T250 179zM88 254v-50h50v50H88z"/></svg>