<svg viewBox="0 0 300 316" xmlns="http://www.w3.org/2000/svg"><path d="M125 120l15 59h-30l15-59zm150 21v25h13q5 0 8.5 4t3.5 9q0 5-3.5 9t-9.5 4h-12v24h13q5 0 8.5 4t3.5 9q0 5-3.5 8.5T287 241h-17q-10 23-32 33v17q-1 6-4.5 9.5T225 304q-5 0-8.5-3.5T213 291v-12h-25v12q0 6-4 9.5t-9 3.5q-5 0-8.5-3.5T163 291v-12h-25v12q0 6-4 9.5t-9 3.5q-5 0-8.5-3.5T113 291v-12H88v12q0 6-4 9.5t-9 3.5q-5 0-8.5-3.5T63 291v-17q-23-10-33-33H13q-6 0-9.5-3.5T0 229q0-5 3.5-9t9.5-4h12v-25H13q-6 0-9.5-3.5T0 179q0-5 3.5-9t9.5-4h12v-25H13q-6 1-9.5-3T0 129q0-5 3.5-9t9.5-4h12V91H13q-6 0-9.5-3.5T0 79q0-5 3.5-9t9.5-4h17q10-22 33-32V16q-1-5 3-8.5T75 4q5 0 9 3.5t4 8.5v13h25V16q0-5 3.5-8.5T125 4q5 0 8.5 3.5T137 16v13h26V16q0-5 3.5-8.5T175 4q5 0 9 3.5t3 8.5v13h26V16q0-5 3.5-8.5T225 4q5 0 8.5 3.5T237 16v18q23 10 33 33h18q5-1 8.5 3t3.5 9q0 5-3.5 9t-9.5 4h-12v24h13q5 0 8.5 4t3.5 9q0 5-3.5 9t-9.5 4h-12v-1zm-100 72L145 95q-2-7-7.5-11.5T125 79q-7 0-12.5 4.5T105 95L75 213q-1 5 1.5 9.5t7.5 6q5 1.5 9.5-1t6.5-7.5l4-16h42l4 16q1 4 4.5 6.5t7.5 2.5h4q5-2 7.5-6.5t1.5-9.5zm38-122q-1-5-4.5-8.5T200 79q-5 0-8.5 3.5T188 91v125q-1 6 3 9.5t9 3.5q5 0 8.5-3.5t3.5-9.5V91h1z"/></svg>