<svg viewBox="0 0 300 316" xmlns="http://www.w3.org/2000/svg"><path d="M300 148v37q0 8-5.5 13.5T281 204h-12q-8 0-13.5-5.5T250 185v-37q0-6 3.5-11t9.5-7V60q0-13-9.5-22T231 29h-75q-11 0-19.5 7T126 54h49q21 0 35.5 14.5T225 104v87H0v-87q0-21 14.5-35.5T50 54h50q3-21 19-35.5T156 4h75q24 0 40 16.5T287 60v70q6 2 9.5 7t3.5 11zM0 216h225v38q0 21-14.5 35.5T175 304H50q-21 0-35.5-14.5T0 254v-38zm163 44q0 8 5 13.5t13 5.5q8 0 13.5-5.5T200 260q0-8-5.5-13.5T181 241q-8 0-13 5.5t-5 13.5zm-50 0q0 8 5 13.5t13 5.5q8 0 13.5-5.5T150 260q0-8-5.5-13.5T131 241q-8 0-13 5.5t-5 13.5z"/></svg>