<svg viewBox="0 0 300.0012 316" xmlns="http://www.w3.org/2000/svg"><path d="M197 296q-7 8-17 8t-17-7q-2-2-16-21l-16 17q-11 11-27.5 11T76 293l-18-18 22-16q8-8 7.5-18T78 222l.5.5-.5-.5q-8-6-18-5.5T44 225l-15 21-18-18Q0 217 0 200.5T11 173l14-13-18-14q-7-7-7-17t8-18q8-8 18.5-7.5T44 112q2 4 12 17l26-25 44 44-19 14q-7 7-6.5 17.5t8 17.5q7.5 7 18 6.5T144 196q2-4 12-18l45 45-24 24 1 1q15 9 18 12 8 7 8.5 18t-7.5 18zm95-136q-4-2-16-11l13-15q11-10 11-26t-11-27l-19-19 22-14q7-7 8-17t-6-18q-7-8-18-8.5T258 11l-18 22-17-18Q212 4 196 4t-26 11l-10 10 24 17q7 6 8 16.5T186 76v0q-9 9-19 9.5T150 79l-18-26-32 33 119 120 26-26 13 17q7 7 17 7t19-9q7-8 6-18t-8-17z"/></svg>