<svg viewBox="0 0 300 316" xmlns="http://www.w3.org/2000/svg"><path d="M252 5q-40 8-81 27-51 23-85.5 57.5T28 175Q9 216 1 256q-2 13 4 25t17.5 18.5Q34 306 48 303q40-7 80-26 50-23 86-59t59-86q19-40 26-80 3-14-3.5-25.5T277 9q-12-6-25-4zM75 254q-10 0-17.5-7.5T50 229q0-10 7.5-17.5T75 204q10 0 17.5 7.5T100 229q0 10-7.5 17.5T75 254zm50-50q-10 0-17.5-7.5T100 179q0-10 7.5-17.5T125 154q10 0 17.5 7.5T150 179q0 10-7.5 17.5T125 204zm50-50q-10 0-17.5-7.5T150 129q0-10 7.5-17.5T175 104q10 0 17.5 7.5T200 129q0 10-7.5 17.5T175 154zm50-50q-10 0-17.5-7.5T200 79q0-10 7.5-17.5T225 54q10 0 17.5 7.5T250 79q0 10-7.5 17.5T225 104z"/></svg>