<svg viewBox="0 0 300 316" xmlns="http://www.w3.org/2000/svg"><path d="M100 154q-20 0-37.5-10T35 116.5Q25 99 25 79t10-37.5Q45 24 62.5 14T100 4q20 0 37.5 10T165 41.5Q175 59 175 79t-10 37.5Q155 134 137.5 144T100 154zM88 266v-75q0-5 1-11-25 2-45.5 16t-32 36Q0 254 0 279v12q0 6 3.5 9.5T13 304h87q-12-17-12-38zm156-45h-11v-22h11q4 0 7.5 3.5t3.5 8q0 4.5-3.5 7.5t-7.5 3zm56-30v75q0 16-11 27t-27 11H150q-16 0-26.5-11T113 266v-75q0-15 10.5-26t26.5-11h113q15 0 26 11t11 27v-1zm-110-12q-4 0-7 3t-3 7v30h-22v-30q0-4-3-7t-8-3h1q-5 0-7.5 3t-2.5 7v80q0 4 2.5 7t7.5 3q4 0 6.5-3t2.5-7v-30h23v30q0 4 3 7t7 3q4 0 7-3t3-7v-80q0-4-3-7t-7-3zm72 57q7-5 10.5-13t2.5-17q-2-11-11.5-19t-21.5-8h-19q-5 0-7.5 3t-2.5 7v80q-1 4 2 7t8 3q4 0 7-3t3-7v-28h9l9 31q1 3 3.5 5t6.5 2h1q5 0 8-4t1-9l-9-30v-1 1z"/></svg>