<svg viewBox="0 0 300 316" xmlns="http://www.w3.org/2000/svg"><path d="M247 70q-6 10-13 17-21 21-56 27-5 1-9.5-2t-4.5-9q-1-5 2-8.5t8-4.5q27-5 42-21 18-17 22-48 1-8-4.5-13T221 4q-31 4-49 21-10 10-15 26-5-18-14-32-5-7-9-11t-9-4q-5 0-8.5 3.5t-4 8.5q-.5 5 4 9.5T125 39q10 18 12 40v14q-6-23-26-43-5-5-13-6.5T83 46q-37 20-56.5 58T13 186q5 30 21.5 55.5t42.5 42q26 16.5 56 19.5 41 5 76.5-12.5T266 240q21-33 21-74 0-27-10.5-52T247 70zm-78 121q-8 1-13.5-4.5T150 173q0-8 5.5-13.5T169 154q8 0 13.5 5.5t5 13.5q-.5 8-5.5 13.5t-13 5.5v-1zm37 50q-8 0-13.5-5t-5.5-13q0-8 5.5-13.5T206 204q8 0 13.5 5.5T225 223q0 8-5.5 13t-13.5 5zm25-50q-8 1-13.5-4.5T212 173q0-8 5.5-13.5T231 154q8 0 13.5 5.5T250 173q0 8-5.5 13.5T231 192v-1z"/></svg>