<svg viewBox="0 0 300 316" xmlns="http://www.w3.org/2000/svg"><path d="M125 229q0 19 7 37H63q-17 0-31.5-8t-23-22.5Q0 221 0 204V66q0-16 8.5-30.5t23-23Q46 4 63 4v75q0 10 7 17.5t18 7.5h87q10 0 17.5-7.5T200 79V7q7 4 11 8l41 41q11 11 11 26v47q0 3-3 7-17-7-35-7-32 0-58 19-6-9-15.5-14t-20.5-5q-18 0-30.5 13T88 172q0 17 11 29.5t27 14.5q-1 8-1 13zM175 4H88v75h87V4zm-44 150q-8 0-13 5.5t-5 13.5q0 8 5 13t13 5h1q6-14 16-26-2-5-6.5-8t-10.5-3zm169 75q0 20-10 37.5T262.5 294Q245 304 225 304t-37.5-10Q170 284 160 266.5T150 229q0-20 10-37.5t27.5-27.5q17.5-10 37.5-10t37.5 10q17.5 10 27.5 27.5t10 37.5zm-57 0l16-16q3-4 3-9t-3.5-8.5Q255 192 250 192t-9 3l-16 16-16-16q-4-3-9-3t-8.5 3.5Q188 199 188 204t3 9l16 16-16 16q-3 4-3 9t3.5 8.5q3.5 3.5 8.5 3.5t9-3l16-16 16 16q4 3 9 3t9-3.5q4-3.5 4-8.5t-4-9l-16-16z"/></svg>