<svg viewBox="0 0 300 316" xmlns="http://www.w3.org/2000/svg"><path d="M238 4H63q-17 0-31.5 8.5t-23 23Q0 50 0 66v175q0 17 8.5 31.5t23 23Q46 304 63 304h175q16 0 30.5-8.5t23-23Q300 258 300 241V66q0-16-8.5-30.5t-23-23Q254 4 238 4zM88 179q0 5-4 8.5t-9 4q-5 .5-8.5-3.5t-3.5-9V79q0-5 3.5-9t8.5-4q5 0 9 4t4 9v100zm50-38q0 6-4 9.5t-9 3.5q-5 0-8.5-3.5T113 141V79q0-5 3.5-9t8.5-4q5 0 9 4t4 9v62zm50 88q0 5-4 8.5t-9 3.5q-5 0-9-3.5t-3-8.5V79q0-5 3.5-9t8.5-4q5 0 9 4t4 9v150zm50-113q0 6-4 9.5t-9 3.5q-5 0-8.5-3.5T213 116V79q0-5 3.5-9t8.5-4q5 0 9 4t4 9v37z"/></svg>