<svg viewBox="0 0 300 316" xmlns="http://www.w3.org/2000/svg"><path d="M238 29H63q-17 0-31.5 8.5t-23 23Q0 75 0 92v112q0 19 10.5 34.5T38 261v18q0 5 3.5 8.5T50 291q5 0 9-3.5t4-8.5v-13h175v13q0 5 3.5 8.5t8.5 3.5q5 0 9-3.5t4-8.5v-18q16-7 26.5-22.5T300 204V91q0-16-8.5-30.5t-23-23Q254 29 238 29zm-25 175q-1 10-8 17.5t-17 7.5H63q-11 0-18-7.5T38 204V91q0-10 7-17.5T63 66h125q10 1 17.5 8t7.5 17v113zm50 12q0 6-4 9.5t-9 3.5q-5 0-9-3.5t-3-9.5V79q-1-5 3-8.5t9-4q5-.5 9 3.5t4 9v137zM188 91v113H63V91h125z"/></svg>