<svg viewBox="0 0 300 316" xmlns="http://www.w3.org/2000/svg"><path d="M225 216q0 24-12 44t-32 32q-20 12-44 12-27 1-48-14.5T57.5 250Q47 226 51 200.5T75 155V66q1-29 20-46 18-15 42.5-15T180 20q19 17 20 47v88q12 13 18.5 28.5T225 217v-1zm-50 0q0-11-7-21t-18-14V66q0-5-3.5-8.5t-9-3.5q-5.5 0-9 3.5T125 66v115q-13 5-20 17.5t-4 26.5q3 14 15 22t26 6.5q14-1.5 23.5-12T175 216zM300 41q0-15-11-26T262.5 4Q247 4 236 15t-11 26.5Q225 57 236 68t26.5 11Q278 79 289 68t11-27zm-25 0q0 6-3.5 9.5t-9 3.5q-5.5 0-9-3.5t-3.5-9q0-5.5 3.5-9t9-3.5q5.5 0 9 3.5T275 41z"/></svg>