<svg viewBox="0 0 300 316" xmlns="http://www.w3.org/2000/svg"><path d="M120 244l-7 50q-1 4-4.5 7t-8.5 3l-2-1q-5-1-8-5t-2-9l8-50q1-7 8-9.5t12.5 2.5q5.5 5 3.5 12zm5-209q0-13 9-22t22-9q13 0 22 9t9.5 22q.5 13-9 22T156 66q-13 0-22-9t-9-22zm125 56q-5 0-9 4t-4 9v25h-29l-15-29q-5-10-14-15.5T160 79h-30q-7 0-12 4.5T112 94l-13 72q-3 12 1.5 22.5T115 205l48 31v55q-1 6 3 9.5t9 3.5q5 0 9-3.5t4-8.5v-63q-1-7-6-10l-15-10 14-78 8 16q3 7 11 7h38v137q0 6 3.5 9.5t8.5 3.5q5 0 9-3.5t4-8.5V104q0-5-4-9t-9-4zM80 203q-4 1-9 1-15 0-25-11.5T37 166q2-25 15.5-46T88 87l-14 75q-4 21 6 41z"/></svg>