<svg viewBox="0 0 300 316" xmlns="http://www.w3.org/2000/svg"><path d="M149 104h14q5 0 8.5-3.5t3.5-9q0-5.5-3.5-9T162 79h-13q-3-12-9-22l15-16h1q8 0 13.5-5.5t5.5-13q0-7.5-5.5-13T156 4q-8 0-13.5 5.5T137 23l1 1-16 15q-10-6-22-9V16q0-5-3.5-8.5t-9-3.5q-5.5 0-9 3.5T75 16v14q-12 3-22 9L37 24v-1q0-8-5.5-13.5T18.5 4Q11 4 5.5 9.5T0 23q0 8 5.5 13T19 41h1l15 16q-6 10-9 22H12q-5 0-8.5 3.5t-3.5 9q0 5.5 3.5 9T12 104h14q3 12 9 22l-15 16h-1q-8 0-13.5 5.5t-5.5 13q0 7.5 5.5 13T19 179q8 0 13-5.5t5-13.5v-1l16-15q10 6 22 9v14q0 5 3.5 8.5t9 3.5q5.5 0 9-3.5t3.5-8.5v-14q18-4 31.5-17.5T149 104zm131 137h7q6 0 9.5-3.5t3.5-8.5q0-5-3.5-9t-9.5-4h-7q-2-9-7-17l7-8h1q8 0 13.5-5t5.5-13q0-8-5.5-13.5T281 154q-8 0-13.5 5.5T262 173l1 1-8 7q-8-5-18-7v-8q0-5-3.5-8.5T225 154q-5 0-9 3.5t-4 8.5v8q-9 2-17 7l-8-7v-1q0-8-5-13.5t-13-5.5q-8 0-13.5 5.5T150 173q0 8 5.5 13.5T169 192l1-1 7 8q-5 8-7 18h-8q-5-1-8.5 3t-3.5 9q0 5 3.5 8.5t8.5 3.5h8q2 10 7 18l-7 8h-1q-8-1-13.5 4.5T150 285q0 8 5.5 13.5T169 304q8 0 13-5.5t5-13.5v-1l8-7q8 5 17 7v7q0 6 4 9.5t9 3.5q5 0 8.5-3.5t3.5-9.5v-7q10-2 18-7l8 7-1 1q0 8 5.5 13.5T281 304q8 0 13.5-5.5T300 285q0-8-5.5-13t-13.5-5h-1l-7-8q5-8 7-18z"/></svg>