<svg viewBox="0 0 300 316" xmlns="http://www.w3.org/2000/svg"><path d="M250 98q0 8-5.5 13.5T231 117q-8 0-13.5-5.5T212 98q0-8 5.5-13.5T231 79q8 0 13.5 5.5T250 98zm31-19q8 0 13.5-5.5T300 60q0-8-5.5-13.5T281 41q-8 0-13 5.5T263 60q0 8 5 13.5t13 5.5zm0 37q-8 0-13 5.5t-5 13.5q0 8 5 13.5t13 5.5q8 0 13.5-5.5T300 135q0-8-5.5-13.5T281 116zM69 79q-8 0-13.5 5.5T50 98q0 8 5.5 13.5T69 117q8 0 13.5-5.5T88 98q0-8-5.5-13.5T69 79zM19 41q-8 0-13.5 5.5T0 60q0 8 5.5 13.5T19 79q8 0 13-5.5T37.5 60q.5-8-5-13.5T19 41zm0 75q-8 0-13.5 5.5T0 135q0 8 5.5 13.5T19 154q8 0 13-5.5t5.5-13.5q.5-8-5-13.5T19 116zm194 50v125q-1 6-4.5 9.5T200 304H100q-5 0-8.5-3.5T88 291V166q-1-15 10-26t27-11h13V78q-17-3-29.5-13T89 40q-2-6-1.5-12.5t4-12Q95 10 101 7t12-3h74q6 0 12 3t9.5 8.5q3.5 5.5 4 12T211 40q-7 15-19.5 25T162 78v51h13q16 0 26.5 11t10.5 26h1z"/></svg>