<svg viewBox="0 0 300 316" xmlns="http://www.w3.org/2000/svg"><path d="M75 154q-20 0-37.5-10T10 116.5Q0 99 0 79t10-37.5Q20 24 37.5 14T75 4q17 0 32 7 8 4 7.5 12T107 34q-18 8-25 18t-7 27q0 17 7 27t25 18q7 3 7.5 11t-7.5 12q-15 7-32 7zm194-38q-6 0-8-4l-5-14-14-6q-5-2-4.5-7.5T243 78l13-6 5-13q2-5 7.5-5t7.5 5l5 14 14 5q5 2 5 7.5t-5 6.5l-14 6-5 14q-2 4-7 4zM44 273q-7 0-9-6l-7-17-16-7q-6-2-6-8.5t6-8.5l17-6 6-16q2-6 8.5-6t8.5 6l7 16 16 7q6 2 6 8.5t-6 8.5l-16 6-7 17q-2 6-8 6zM169 91q-4 1-6.5-1t-3.5-5l-8-20-19-8q-3-1-5-4t-2-6q0-3 2-6t5-4l19-7 8-19q1-3 3.5-5t6-2q3.5 0 6.5 2t4 5l8 19 19 8q3 1 5 3.5t2 6q0 3.5-2 6.5t-5 4l-19 8-8 19q-1 3-4 5t-6 2v-1zm112 69l-50-40q-14-10-31-10t-31 10l-50 40q-9 7-14 17t-5 22v55q0 21 14.5 35.5T150 304h100q21 0 35.5-14.5T300 254v-55q0-12-5-22t-14-17zm-68 81h-25q-6 0-9.5-3.5T175 229v-25q0-5 3.5-8.5t9.5-3.5h25q5-1 8.5 3t3.5 9v25q0 5-3.5 9t-9.5 3h1z"/></svg>