<svg viewBox="0 0 300 316" xmlns="http://www.w3.org/2000/svg"><path d="M150 4q-41 0-75.5 20T20 78.5Q0 113 0 154t20 75.5Q40 264 74.5 284t75.5 20q41 0 75.5-20t54.5-54.5q20-34.5 20-75.5t-20-75.5Q260 44 225.5 24T150 4zm98 114q-10 11-26 11h-28l12 12q7 7 7 16v16q0 6-4 11l-31 52q-3 5-9 5h-10q-4 1-7-1.5t-4-6.5l-9-35q-1-3-3-5t-6-2h-17q-11 0-18-7t-7-18v-13q0-12 9-18l22-15q6-4 13-4h33q4 0 7-3t3-7V96q0-5-3-8l-10-10q-3-2-6.5-2.5T149 77l-19 11q-5 3-11 3h-9q-4 0-7-2.5t-3-7.5V71q0-5-3-8L81 50q31-21 68.5-21T218 49.5Q249 70 264 103l-16 15z"/></svg>