<svg viewBox="0 0 300 316" xmlns="http://www.w3.org/2000/svg"><path d="M300 104H0V91q0-16 8.5-30.5t23-23Q46 29 63 29h12V16q0-5 3.5-8.5t9-3.5q5.5 0 9 3.5T100 17v12h100V16q0-5 3.5-8.5t9-3.5q5.5 0 9 3.5T225 17v12h13q16 0 30.5 8.5t23 23Q300 75 300 92v12zM125 286q0-17 7-32H75q-5 0-8.5-3.5t-3.5-9q0-5.5 3.5-9T75 229h74l25-25H75q-5 0-9-3.5t-3.5-9q.5-5.5 4-9T75 179h124l34-34q16-16 38-16H0v112q0 17 8.5 31.5t23 23Q46 304 63 304h62v-18zm126-124q8-8 20-8t20.5 8.5Q300 171 300 183t-8 20l-85 85q-16 16-39 16h-18v-18q0-23 16-39l85-85z"/></svg>