<svg viewBox="0 0 300 316" xmlns="http://www.w3.org/2000/svg"><path d="M150 4q-41 0-75.5 20T20 78.5Q0 113 0 154t20 75.5Q40 264 74.5 284t75.5 20q41 0 75.5-20t54.5-54.5q20-34.5 20-75.5t-20-75.5Q260 44 225.5 24T150 4zm-25 87q0-10 7.5-17.5T150 66q10 0 17.5 7.5T175 91v63q0 10-7.5 17.5T150 179q-10 0-17.5-7.5T125 154V91zm38 137v13q0 6-4 9.5t-9 3.5q-5 0-8.5-3.5T137 242v-14q-26-5-44-25.5T75 154q0-5 3.5-9t9-4q5.5 0 9 4t3.5 9q0 21 14.5 35.5T150 204q21 0 35.5-14.5T200 154q0-5 3.5-8.5t9-4q5.5-.5 9 3.5t3.5 9q0 28-18 48.5T163 228z"/></svg>