<svg viewBox="0 0 300 316" xmlns="http://www.w3.org/2000/svg"><path d="M163 154q0 5-4 8.5t-9 3.5q-5 0-8.5-3.5T138 154q0-5 3.5-9t8.5-4q5 0 9 4t4 9zM150 54q-5 0-8.5 3.5t-3.5 9q0 5.5 3.5 9T150 79q5 0 9-3.5t4-9q0-5.5-4-9t-9-3.5zm100 12v175q0 17-8.5 31.5t-23 23Q204 304 187 304h-74q-17 0-31.5-8.5t-23-23Q50 258 50 241V66q0-16 8.5-30.5t23-23Q96 4 112 4h76q16 0 30.5 8.5t23 23Q250 50 250 67v-1zm-62 175q0-15-11-26t-27-11q-16 0-27 11t-10.5 26.5q.5 15.5 11 26.5t26.5 11q16 0 26.5-11t10.5-27h1zm0-87q0-16-11-26.5t-27-11q-16-.5-26.5 10.5T113 154q0 16 10.5 26.5T150 191q16 0 26.5-10.5T187 154h1zm0-88q0-15-11-26t-27-11q-16 0-27 11t-10.5 26.5q.5 15.5 11 26.5t26.5 11q16 0 26.5-11T187 67l1-1z"/></svg>