<svg viewBox="0 0 300 316" xmlns="http://www.w3.org/2000/svg"><path d="M263 191H128q-15 0-26-11l-18-17q-4-4-4-9t4-9l18-18q11-11 26-11h135q15 0 26 11.5t11 26.5q0 15-11 26t-26 11zm-152-55zm114-57h-97q-15 0-26-11L84 50q-4-3-4-8.5t4-8.5l18-18q11-11 26-11h97q15 0 26.5 11T263 41.5Q263 57 251.5 68T225 79zM111 24zm89 280h-72q-15 0-26-11l-18-18q-4-3-4-8.5t4-8.5l18-18q11-11 26-11h72q15 0 26.5 11t11.5 26.5q0 15.5-11.5 26.5T200 304zm-89-55zm-86-8q-10 1-17.5 8T0 266.5q0 10.5 7.5 18T25 292q10 0 17.5-7.5t7.5-18q0-10.5-7.5-17.5T25 242v-1zm0-112q-10 0-17.5 7.5T0 154q0 10 7.5 17.5T25 179q10 0 17.5-7.5T50 154q0-10-7.5-17.5T25 129zm0-113q-10 0-17.5 7.5T0 41.5Q0 52 7.5 59T25 66q10 0 17.5-7T50 41.5q0-10.5-7.5-18T25 16z"/></svg>