<svg viewBox="0 0 300 316" xmlns="http://www.w3.org/2000/svg"><path d="M238 4H63q-17 0-31.5 8.5t-23 23Q0 50 0 67v174q0 17 8.5 31.5t23 23Q46 304 63 304h175q16 0 30.5-8.5t23-23Q300 258 300 241V66q0-16-8.5-30.5t-23-23Q254 4 237 4h1zm-75 212v13q-1 8-7 11t-12 0q-6-3-6-11v-13h-4q-10 0-18.5-5T102 198q-3-5-1.5-10t6-7.5q4.5-2.5 9.5-1t8 6.5q3 5 10 6h28q6 0 10-5t2.5-10.5Q173 171 167 169l-38-6q-16-3-23-14t-5-24.5q2-13.5 11.5-23.5t24.5-9V79q1-8 7-11t12 0q6 3 6 11v12h4q10 0 18.5 5.5T198 110q3 5 1.5 10t-6 7.5q-4.5 2.5-9.5 1t-8-6.5q-3-5-10-5h-28q-6-1-10 4t-2.5 10.5q1.5 5.5 7.5 7.5l38 6q16 3 23 14t5 24.5q-2 13.5-11.5 23.5T163 217v-1z"/></svg>