<svg viewBox="0 0 300 316" xmlns="http://www.w3.org/2000/svg"><path d="M113 166v13H88q-6 0-9.5-3.5T75 166v-14q6 2 12 2h13q5 0 8.5 3.5t3.5 8.5h1zm87-12q-5 0-9 3.5t-4 8.5v13h26q5 0 8.5-3.5t3.5-9.5v-14q-6 2-13 2h-12zm100 0v87q0 17-8.5 31.5t-23 23Q254 304 237 304q-18 0-30-11-7-6-15-19l-5-11q-6-10-15.5-15.5T150 242l-1-1q-11 1-21 6.5T112 263l-5 11q-7 13-14 19-12 11-31 11h1q-17 0-31.5-8.5t-23-23Q0 258 0 241v-82q0-41 19.5-76t53-56Q106 6 147 4q30-1 58.5 10.5t50 32.5q21.5 21 33 49t11.5 58zm-162 12q0-15-11-26t-27-11H88q-6 0-9.5-3.5t-3.5-9-3.5-9q-3.5-3.5-9-3.5t-9 3.5Q50 111 50 116v50q0 16 11 27t27 11h25q10 0 17.5-7.5T138 179v-13zm112-50q0-5-3.5-8.5t-9-3.5q-5.5 0-9 3.5t-3.5 9-3.5 9Q218 129 213 129h-13q-16 0-26.5 11T163 166v13q0 10 7 17.5t18 7.5h25q15 0 26-11t11-27v-50z"/></svg>