<svg viewBox="0 0 300 316" xmlns="http://www.w3.org/2000/svg"><path d="M275 129h-87q-16 0-27-11t-11-26V4H88q-17 0-31.5 8.5t-23 23Q25 50 25 67v174q0 17 8.5 31.5t23 23Q71 304 87 304h126q16 0 30.5-8.5t23-23Q275 258 275 241V129zm-171 97l25 26q4 3 4 8.5t-4 9q-4 3.5-9 3.5t-9-4l-25-25q-11-11-11-26.5T86 191l26-26q3-3 8.5-3t9 3.5q3.5 3.5 3.5 8.5t-4 9l-25 26q-4 3-4 8.5t4 8.5zm110 18l-25 25q-4 4-9 4t-9-3.5q-4-3.5-4-9t4-8.5l25-26q4-3 4-8.5t-4-8.5l-25-26q-4-4-4-9t3.5-8.5q3.5-3.5 9-3.5t8.5 3l26 26q11 11 11 26.5T214 244zM175 91V10q18 6 31 20l43 43q14 13 20 31h-81q-6 0-9.5-3.5T175 91z"/></svg>