<svg viewBox="0 0 300 316" xmlns="http://www.w3.org/2000/svg"><path d="M53 126q4-3 9-3t9 3.5q4 3.5 4 8.5t-4 9l-28 27q-18 19-18 45t18.5 44.5Q62 279 88 279t45-18l27-28q4-4 9-4t8.5 4q3.5 4 4 9t-3.5 9l-28 27q-12 13-28 19.5T88 304q-18 0-34-7t-28.5-19q-12.5-12-19-28.5t-6.5-34Q0 198 6.5 182T26 154l27-28zm54 54l-10 10q-4 3-4 8.5t3.5 9q3.5 3.5 9 3.5t8.5-4l10-10q4-3 4-8.5t-3.5-9q-3.5-3.5-9-3.5t-8.5 4zM4 25q-4-3-4-8.5t3.5-9Q7 4 12.5 4T21 8l76 75 53-53q12-13 28-19.5T212 4q18 0 34 6.5t28.5 19Q287 42 293.5 58t6.5 34q0 18-6.5 34T274 154l-53 53 75 76q4 3 4 8.5t-3.5 9q-3.5 3.5-9 3.5t-8.5-4L4 25zm199 165l54-53q18-19 18-45t-18.5-44.5Q238 29 212 29t-45 18l-53 54 36 35 36-35q3-4 8.5-4t9 3.5q3.5 3.5 3.5 9t-4 8.5l-35 36 35 36z"/></svg>