<svg viewBox="0 0 300 316" xmlns="http://www.w3.org/2000/svg"><path d="M0 116v113q0 17 8.5 31.5t23 22.5q14.5 8 30.5 9h176q16-1 30.5-9t23-22.5Q300 246 300 229V116H0zm175 125H75q-5 0-8.5-3.5T63 229q0-5 3.5-8.5T75 217h100q5-1 9 3t3.5 9q-.5 5-4 8.5T175 241zm50-50H75q-5 1-8.5-3t-3.5-9q0-5 3.5-9t8.5-4h150q5 0 9 4t3.5 9q-.5 5-4 8.5T225 191zm75-100V79q0-17-8.5-31.5t-23-22.5Q254 17 238 16H63q-17 1-31.5 9t-23 22.5Q0 62 0 79v12h300zM125 41q5 0 9 4t4 9q0 5-4 9t-9 4q-5 0-8.5-4t-3.5-9q0-5 3.5-9t8.5-4zm-37 0q5 0 8.5 4t3.5 9q0 5-3.5 8.5t-9 4q-5.5.5-9-3.5T75 54q0-5 3.5-9t9.5-4zm-38 0q5 0 9 4t4 9q0 5-4 8.5t-9 4q-5 .5-8.5-3.5T38 54q0-5 3.5-9t8.5-4z"/></svg>