<svg viewBox="0 0 300 316" xmlns="http://www.w3.org/2000/svg"><path d="M288 29H188q-6 0-9.5-3.5t-3.5-9q0-5.5 3.5-9T187 4h101q5 0 8.5 3.5t3.5 9q0 5.5-3.5 9T288 29zm12 50q0-5-3.5-9t-8.5-4H188q-6 0-9.5 4t-3.5 9q0 5 3.5 9t8.5 4h101q5-1 8.5-4.5T300 79zm0 62q0-5-3.5-8.5T288 129h-75q-6 0-9.5 3.5t-3.5 9q0 5.5 3.5 9t8.5 3.5h76q5 0 8.5-3.5t3.5-8.5v-1zm-125 75q0 24-12 44t-32 32q-20 12-43.5 12T44 292q-20-12-32-32T0 216q0-17 6.5-32.5T25 155V66q0-16 8.5-30.5t23-23Q71 4 87.5 4t31 8.5q14.5 8.5 23 23T150 67v88q12 13 18.5 28.5T175 216zm-50 0q0-12-7-21.5T100 181v-65q0-5-3.5-8.5t-9-3.5q-5.5 0-9 3.5T75 116v65q-11 4-18 13.5T50 217q0 15 11 26t26.5 11q15.5 0 26.5-11t11-27z"/></svg>