<svg viewBox="0 0 300 316" xmlns="http://www.w3.org/2000/svg"><path d="M50 141q-21 0-35.5-14.5T0 91V54q0-21 14.5-35.5T50 4q21 0 35.5 14.5T100 54v37q0 21-14.5 35.5T50 141zm0-112q-10 0-17.5 7.5T25 54v37q0 11 7.5 18t17.5 7q10 0 17.5-7T75 91V54q0-10-7.5-17.5T50 29zm72 261q3-4 3-9t-4-8q-8-8-8-19v-50q0-5-4-9t-9-4q-5 0-8.5 4t-3.5 9v50q0 11 4 20.5t12 16.5q4 3 9 3t9-4zm53-174V16q0-3-2-6.5T167.5 5q-3.5-1-7.5-.5T154 8l-31 30q-4 4-4 9t4 9q4 4 9 4t9-4l9-9v69q0 6 3.5 9.5t9 3.5q5.5 0 9-3.5t3.5-9.5zM63 291V179q0-4-2.5-7t-6-4.5q-3.5-1.5-7-.5t-6.5 3l-30 31q-4 3-4 8.5t3.5 9q3.5 3.5 9 3.5t8.5-4l10-9v82q0 6 3.5 9.5T50 304q5 0 9-3.5t4-9.5zm150 13q-24 0-44-12t-32-32q-12-20-12-43.5t12-43.5q12-20 32-32t43.5-12q23.5 0 43.5 12t32 32q12 20 12 43.5T288 260q-12 20-32 32t-43 12zm12-57l34-34q4-4 4-9t-4-9q-4-4-9-4t-9 4l-34 34-21-21q-4-4-9-4t-8.5 3.5q-3.5 3.5-3.5 9t3 8.5l22 22q7 7 17.5 7t17.5-7z"/></svg>