<svg viewBox="0 0 300 316" xmlns="http://www.w3.org/2000/svg"><path d="M225 94q-7-2-10-7-14-31-44.5-46.5T106 31q-30 6-52 28.5T26 112q-3 19 1 36 1 7-4 12-11 10-17 23t-6 27q0 19 9.5 34.5t25 25Q50 279 69 279h144q24-2 44-15t31.5-34q11.5-21 11.5-45 0-33-21.5-59T225 94zm-81 160q-8 0-13.5-5.5T125 235q0-8 5.5-13.5T144 216q8 0 13.5 5.5T163 235q0 8-5.5 13.5T144 254zm18-79q-2 1-4 4t-2 6v6q0 6-3.5 9.5T144 204q-5 0-9-3.5t-4-8.5v-7q0-11 6.5-20t14.5-13q5-2 8.5-8t1.5-14q-1-5-4.5-8.5T149 117q-9-2-16.5 3.5T125 135q0 5-3.5 9t-9 4q-5.5 0-9-4t-3.5-9q0-10 4.5-19t12.5-15.5q8-6.5 18-8.5t20.5 1q10.5 3 19 11.5T186 124q4 15-2.5 29.5T162 175z"/></svg>