<svg viewBox="0 0 300 316" xmlns="http://www.w3.org/2000/svg"><path d="M238 29H125q-17 0-31.5 8.5T71 60.5Q63 75 63 91v75q0 20 11 36l76-76q10-9 23.5-9t22.5 9l13 13q2 2 5.5 2t5.5-2l74-74q-7-16-22.5-26T238 29zm-119 75q-8 0-13.5-5.5T100 85q0-8 5.5-13.5T119 66q8 0 13.5 5.5T138 85q0 8-5.5 13.5T119 104zm181-10v72q0 17-8.5 31.5t-23 23Q254 229 238 229H125q-18 0-33-9l76-76q2-2 5-2t5 2l13 13q10 9 23.5 9t22.5-9l63-63zm-75 160q-9 12-22 18.5t-28 6.5H63q-17 0-31.5-8.5t-23-23Q0 233 0 216v-75q0-19 10.5-34.5T38 84v82q0 24 11.5 44T81 242q20 12 44 12h100z"/></svg>