<svg viewBox="0 0 300 316" xmlns="http://www.w3.org/2000/svg"><path d="M300 291q0 6-3.5 9.5T288 304H13q-6 0-9.5-3.5t-3.5-9q0-5.5 3.5-9T12 279h276q5 0 8.5 3.5t3.5 8.5zM47 191q9 0 15.5-4t6.5-8.5q0-4.5 3.5-8.5t8.5-4q5 0 9 4t4 8.5q0 4.5 6 8.5t15.5 4q9.5 0 16-4t6.5-8.5q0-4.5 3.5-8.5t8.5-4q5 0 9 4t3.5 8.5q-.5 4.5 6 8.5t16 4q9.5 0 15.5-4t6-8.5q0-4.5 4-8.5t9-4q5 0 8.5 4t3.5 8.5q0 4.5 6.5 8.5t15.5 4q9 0 15.5-4t6.5-8q0-17-8.5-31.5t-23-22.5q-14.5-8-30.5-8h-50V89q11-4 17.5-13.5T188 54q-5-24-21-43-7-7-17-7t-17 7q-16 19-20 43 0 12 6.5 21.5T138 89v27H88q-17 1-31.5 9t-23 22.5Q25 162 25 179q0 4 6.5 8t15.5 4zm-9 63h225q5 0 8.5-3.5t3.5-8.5v-30q-10 4-22 5-19 0-34-13-15 12-34.5 12.5T150 204q-15 13-34.5 12.5T81 204q-15 13-34 13-12-1-22-5v29q0 6 3.5 9.5T38 254z"/></svg>