<svg viewBox="0 0 300 316" xmlns="http://www.w3.org/2000/svg"><path d="M288 304H63q-17 0-31.5-8.5t-23-23Q0 258 0 241V16q0-5 3.5-8.5t9-3.5q5.5 0 9 3.5T25 16v225q0 16 11 27t27 11h225q5 0 8.5 3.5t3.5 9q0 5.5-3.5 9T287 304h1zM195 92q4-5 3-10t-5-8q-17-14-38-24-4-2-9-.5t-7.5 6.5q-2.5 5-.5 10t7 7q17 8 33 21 3 2 8.5 2t8.5-4zm-77-43q2-5-1-9.5t-8-5.5q-23-5-46-5-6 0-9.5 3.5t-3.5 9q0 5.5 3.5 9T62 54q21 0 42 5h2q5 0 8-3t4-7zm130 116q5-2 6.5-7t-.5-9q-10-21-24-38-3-4-8-5t-9.5 2.5q-4.5 3.5-5 8.5t2.5 9q12 16 21 33 4 8 11 8 3 0 6-2zm27 77q0-24-5-47-1-5-5.5-8t-9.5-1.5q-5 1.5-8 5.5t-1 9q4 21 4 41 0 6 3.5 9.5t9 3.5q5.5 0 9-3.5t3.5-9.5v1z"/></svg>