<svg viewBox="0 0 300 316" xmlns="http://www.w3.org/2000/svg"><path d="M113 304zM288 4h-13q-13 0-22.5 7.5T239 30l-3 10-16-5q-5-1-9.5 1t-6 7q-1.5 5 .5 9.5t7 6.5l17 5-9 32-18-6q-5-2-9.5.5T186 98q-2 5 .5 9.5t7.5 6.5l19 6-10 33q-9 26-20 43-14 21-27 21-11 0-15-8-3-4-4-11v-44q1-12 13-12 5 0 8.5-4t3.5-9q0-5-3.5-8.5T150 117H12q-5 0-8.5 3.5T0 129q0 5 3.5 8.5t9.5 4q6 .5 9 3.5t3 9v54q0 28 11 50t31.5 34Q88 304 113 304q30 0 54.5-16.5T201 245q6-17 25-84 4-8 23-76l14-47q1-4 4.5-6.5T275 29h13q5 0 8.5-3.5t3.5-9q0-5.5-3.5-9T288 4z"/></svg>