<svg viewBox="0 0 300 316" xmlns="http://www.w3.org/2000/svg"><path d="M175 141v100H63V141h112zm125 0v100q0 17-8.5 31.5t-23 23Q254 304 238 304H63q-17 0-31.5-8.5t-23-23Q0 258 0 241V141q0-16 8.5-30.5t23-23Q46 79 63 79h60L78 24q-3-3-2.5-8.5t4-8.5q3.5-3 9-2.5T97 8l53 64 53-64q3-3 8.5-3.5t9 2.5q3.5 3 4 8.5T222 24l-45 55h61q16 0 30.5 8.5t23 23Q300 125 300 142v-1zm-100 0q0-10-7.5-17.5T175 116H63q-11 0-18 7.5T38 141v100q0 11 7 18t18 7h112q10 0 17.5-7t7.5-18V141zm69 82q0-8-5.5-13.5T250 204q-8 0-13.5 5.5T231 223q0 8 5.5 13t13.5 5q8 0 13.5-5t5.5-13zm0-63q0-8-5.5-13.5T250 141q-8 0-13.5 5.5T231 160q0 8 5.5 13.5T250 179q8 0 13.5-5.5T269 160z"/></svg>