<svg viewBox="0 0 300 316" xmlns="http://www.w3.org/2000/svg"><path d="M289 113q-10-10-23.5-9T244 114l-45 47 1 8q0 20-13 35t-32 17l-53 8q-5 0-9.5-3t-5-8q-.5-5 2.5-9t8-5l52-7q9-2 16-7.5t8-14.5q3-13-5.5-23.5T147 141H50q-21 0-35.5 15T0 192v62q0 21 14.5 35.5T50 304h53q27 0 51-10.5t41-30.5l97-105q9-10 8-23.5T289 113zM175 4h-37q0 16-11 26.5T100 41q-16 0-27-10.5T63 4H25v75q0 16 11 26.5T62 116h76q15 0 26-10.5T175 79V4zM69 91q-8 1-13.5-4.5T50 73q0-8 5.5-13.5T69 54q8 0 13.5 5.5T88 73q0 8-5.5 13.5T69 92v-1zm62 0q-8 1-13.5-4.5T112 73q0-8 5.5-13.5T131 54q8 0 13.5 5.5T150 73q0 8-5.5 13.5T131 92v-1z"/></svg>