<svg viewBox="0 0 300 316" xmlns="http://www.w3.org/2000/svg"><path d="M289 4q-5-1-9.5 1.5T274 13q-3 13-13.5 21T237 42H61q-13-1-23-8.5T25 13q-2-5-6.5-7.5T9 4.5q-5 1.5-7.5 6T0 20q5 19 21 32t36 14l-29 78q-6 17 1 35t24 26l24 8 11 51q3 18 17 29t32 11h26q18 0 32-11t17-29l11-51 24-8q17-8 24-26t1-36l-29-77q20-1 35-14t20-32q1-5-1.5-9.5T289 4zM106 154q-8 0-13.5-5.5t-5-13.5q.5-8 5.5-13.5t13-5q8 .5 13.5 5.5t5.5 13q0 8-5.5 13.5T106 154zm88 0q-8 0-13.5-5.5T175 135q0-8 5.5-13.5t13.5-5q8 .5 13.5 5.5t5 13q-.5 8-5.5 13.5t-13 5.5z"/></svg>