<svg viewBox="0 0 300 316" xmlns="http://www.w3.org/2000/svg"><path d="M150 29q25 0 48 10t41 28h-39q-5 0-9 3.5t-4 8.5q0 5 4 9t9 4h52q9-1 16-7.5t7-16.5V17q0-6-3.5-9.5t-9-3.5q-5.5 0-9 3.5T250 17v25q-30-27-69-35t-77 4Q66 23 38 54 22 72 12.5 94T1 140q-1 5 2.5 9t8.5 5h1q5 0 8.5-3t3.5-8q3-32 20.5-58t45-41Q118 29 150 29zm137 125q-5 0-8.5 3t-3.5 8q-3 34-22.5 61T203 267q-30 14-64 12-22-2-42-12t-36-26h39q5 0 9-3.5t4-8.5q0-5-4-9t-9-4H48q-9 0-16 7t-7 17v51q0 6 3.5 9.5t9 3.5q5.5 0 9-3.5T50 291v-25q30 27 69 35t77-4q38-12 66-43 16-18 25.5-40t11.5-46q1-5-2.5-9t-8.5-5h-1z"/></svg>