<svg viewBox="0 0 300.0141 316" xmlns="http://www.w3.org/2000/svg"><path d="M280 33q-6-11-16.5-18.5T240 5q-13-2-25 2t-21 13L16 198q-9 9-13 21.5T1 245q6 32 44 47 27 10 69 12 49 1 92-24 41-24 66-65t28-88q3-50-20-94zM108 237q-5 4-12 4t-11-4q-8-12-10-25-1-3 2-6t6-2q13 2 25 10 5 4 5 11t-5 12zm62-13q-5 5-11.5 5t-11.5-5q-7-11-9-24-1-4 1.5-6.5t6.5-1.5q13 2 24 9 5 5 5 11.5t-5 11.5zm38-37q-5 4-12 4t-11-4q-8-12-10-25-1-3 2-6t6-2q13 2 25 10 5 4 4.5 11t-4.5 12zm25-63q-5 5-12 5t-11-5q-8-11-10-24-1-4 2-6.5t6-1.5q13 2 25 9 5 5 5 11.5t-5 11.5z"/></svg>