<svg viewBox="0 0 300.0196 316" xmlns="http://www.w3.org/2000/svg"><path d="M206 35q0-13 9.5-22t22-9q12.5 0 22 9t9.5 22q0 13-9.5 22.5t-22 9q-12.5-.5-22-9.5T206 35zm86 219q-7 7-17 10v27q0 6-3.5 9.5t-9 3.5q-5.5 0-9-3.5T250 291v-25h-25v25q0 6-3.5 9.5t-9 3.5q-5.5 0-9-3.5T200 291v-27q-10-3-17-10-10-11-8-26l17-110q2-15 14.5-27t31-12q18.5 0 31 12t14.5 28l17 109q2 15-8 26zM50 66q13 0 22-9t9-22q0-13-9-22T50 4q-13 0-22 9t-9 22q0 13 9 22.5T50 67v-1zm50 63v62q0 17-12 28v72q0 6-4 9.5t-9 3.5q-5 0-8.5-3.5T63 291v-62H38v62q0 6-4 9.5t-9 3.5q-5 0-9-3.5t-3-9.5v-72Q0 208 0 191v-62q0-21 14.5-35.5T50 79q21 0 35.5 14.5T100 129zM138 4q-6 0-9.5 3.5T125 16v275q0 6 3.5 9.5t9 3.5q5.5 0 9-3.5t3.5-9.5V16q0-5-3.5-8.5T138 4z"/></svg>