<svg viewBox="0 0 300 316" xmlns="http://www.w3.org/2000/svg"><path d="M250 104q1-17-15-28-9-7-32-16l-15-6V29q5 0 8.5-3.5t3.5-9q0-5.5-3.5-9T188 4h-75q-6 0-9.5 3.5t-3.5 9q0 5.5 3.5 9T113 29v25L81 66q-9 3-17 9.5t-11.5 16Q49 101 50 111t7 18h131q5 0 8.5 3.5t3.5 9q0 5.5-3.5 9T188 154H57q-7 12-7 25t7 25h131q5 0 8.5 3.5t3.5 9q0 5.5-3.5 9T188 229H57q-7 12-7 25t7 24.5Q64 290 75.5 297t24.5 7h100q16 0 28.5-9t18-23.5Q252 257 248 242t-15-25q8-8 12.5-17.5T250 179q0-11-4.5-20.5T233 141q8-7 12.5-16.5T250 104z"/></svg>