<svg viewBox="0 0 300 316" xmlns="http://www.w3.org/2000/svg"><path d="M138 166H38q-16 0-27 11T0 204v62q0 16 11 27t27 11h100V166zm-94 50q0-5 3.5-8.5T56 204h25q5 0 9 3.5t4 8.5q0 6-4 9.5t-9 3.5H56q-5 0-8.5-3.5T44 217v-1zm219-50H163v138h100q15 0 26-11t11-27v-62q0-16-11-26.5T262 167l1-1zm-19 63h-25q-5 0-9-3.5t-4-8.5q0-6 4-9.5t9-3.5h25q5 0 8.5 3.5t3.5 8.5q0 6-3.5 9.5T244 229zM188 4h-75Q97 4 86 15T75 42v99h150V41q0-15-11-26T187 4h1zm-25 62h-25q-6 1-9.5-3t-3.5-9q0-5 3.5-9t8.5-4h26q5 0 8.5 4t3.5 9q0 5-3.5 8.5T162 66h1z"/></svg>