<svg viewBox="0 0 300 316" xmlns="http://www.w3.org/2000/svg"><path d="M0 241q0 17 8.5 31.5t23 23Q46 304 62 304h176q16 0 30.5-8.5t23-23Q300 258 300 242V129H0v112zm213-56q7 0 12.5 5.5T231 204q0 8-5.5 13.5t-13 5.5q-7.5 0-13-5.5T194 204q0-8 5.5-13.5T213 185zm-63 0q8 0 13.5 5.5T169 204q0 8-5.5 13.5T150 223q-8 0-13.5-5.5T131 204q0-8 5.5-13.5T150 185zm-62 0q7 0 12.5 5.5T106 204q0 8-5.5 13.5t-13 5.5q-7.5 0-13-5.5T69 204q0-8 5.5-13.5T88 185zM238 29h-13V16q0-5-3.5-8.5t-9-3.5q-5.5 0-9 3.5T200 16v13H100V16q0-5-3.5-8.5t-9-3.5q-5.5 0-9 3.5T75 16v13H63q-17 0-31.5 8.5t-23 23Q0 75 0 91v13h300V91q0-16-8.5-30.5t-23-23Q254 29 238 29z"/></svg>