<svg viewBox="0 0 300 316" xmlns="http://www.w3.org/2000/svg"><path d="M188 16q0-5 3.5-8.5T200 4h51q7 0 12.5 3.5t8.5 9q3 5.5 3 12T271 40l-57 64h48q6 0 9.5 3.5t3.5 9q0 5.5-3.5 9T262 129h-51q-6 0-11.5-3.5t-9-9q-3.5-5.5-3-12T191 93l57-64h-48q-5 0-9-3.5t-4-8.5l1-1zm87 207v68q0 6-3.5 9.5t-9 3.5q-5.5 0-9-3.5T250 291v-25h-37v25q-1 6-4.5 9.5T200 304q-5 0-8.5-3.5T187 291v-68q1-18 13.5-31t30.5-13q18 0 31 13t13 31zm-25 0q0-8-5.5-13.5T231 204q-8 0-13 5.5t-5 13.5v18h37v-18zm-121 2l-41 41V16q0-5-4-8.5T75 4q-5 0-8.5 3.5T63 16v250l-42-41q-3-3-8.5-3t-9 3.5Q0 229 0 234t4 9l53 54q8 7 18 7t18-7l53-54q4-4 4-9t-3.5-8.5q-3.5-3.5-9-3.5t-8.5 3z"/></svg>