<svg viewBox="0 0 300 316" xmlns="http://www.w3.org/2000/svg"><path d="M280 142q-6-16-18-29V67q1-13-8.5-20.5T232 42q-35 9-49 37h-67q-24 0-45 10t-35 27q-8-1-10-7t1-12q3-6 10.5-6T48 85q3-6 0-12t-11-7q-14 0-23.5 8.5T1 96q-3 13 2.5 24.5T22 138q-11 22-9 47t15 47q13 22 34 34 0 15 9.5 25T94 303q13 2 24.5-4t16.5-20h30q5 14 16.5 20t24.5 4q13-2 22-12t9-25v-1q31-17 43-49 9-2 14.5-8.5T300 192v-26q0-9-5.5-15.5T280 142zm-55 24q-8 0-11-6t0-12q3-6 11-6t11 6q3 6 0 12t-11 7v-1zM76 60q-3-24 11-39t34.5-16.5Q142 3 157 16q17 13 18 38h-59q-21 0-40 6z"/></svg>