<svg viewBox="0 0 300 316" xmlns="http://www.w3.org/2000/svg"><path d="M258 190q-11-11-26.5-11T205 190l-24 20q-30-12-52.5-34.5T94 123l20-24q11-11 11-26.5T114 46L91 15Q80 4 64 4T37 15L22 27Q-5 57 2 103q6 41 38 85.5t75 75.5q46 32 87 38 46 7 75-21l12-13q11-11 11-27t-11-28l-31-23zm24-29q22-33 18-69-5-33-30-58T212 5q-36-5-69 17-6 4-5.5 11.5t7 10.5q6.5 3 12.5-2 25-16 52-13 25 4 43.5 22.5T275 95q3 27-13 52-5 6-2 12.5t10.5 7q7.5.5 11.5-5.5zm-48-23q3-4 3-9t-3-9l-21-21V66q0-5-4-8.5t-9-3.5q-5 0-8.5 3.5T187 66v38q1 5 4 9l25 25q4 3 9 3t9-3z"/></svg>