<svg viewBox="0 0 300 316" xmlns="http://www.w3.org/2000/svg"><path d="M292 132l-8-8-28-29q-4-3-9-3t-8.5 3.5Q235 99 235 104t3 9l29 28H163V38l27 28q4 3 9 3t8.5-3.5Q211 62 211 57t-3-9l-37-36q-9-8-21-8-13 0-22 8L91 48q-5 5-3.5 12t9 9q7.5 2 12.5-3l29-29v104H34l28-28q5-5 3-12.5t-9-9Q49 90 44 95L8 132q-8 9-8 22 0 12 8 21l36 37q4 3 9 3t8.5-3.5Q65 208 65 203t-3-9l-28-28h104v104l-29-28q-5-5-12.5-3t-9 9q-1.5 7 3.5 12l37 36q9 8 21.5 8t21.5-8l37-36q6-5 4-12t-9-9q-7-2-13 3l-27 28V166h103l-28 28q-5 6-3 13t9 8.5q7 1.5 12-3.5l36-37q8-9 8-21.5t-8-21.5z"/></svg>