<svg viewBox="0 0 300 316" xmlns="http://www.w3.org/2000/svg"><path d="M69 266q-13 0-22-9t-9-22V23q0-8-5.5-13.5T19 4Q11 4 5.5 9.5T0 23v212q0 19 9 35t25 25q16 9 35 9h212q8 0 13.5-5.5T300 285q0-8-5.5-13.5T281 266H69zm175-37q8 0 13.5-5.5T263 210v-75q0-8-5.5-13.5T244 116q-8 0-13.5 5.5T225 135v75q0 8 5.5 13.5T244 229zm-150 0q8 0 13.5-5.5T113 210v-75q-1-8-6-13.5T94 116q-8 0-13.5 5.5T75 135v75q0 8 5.5 13.5T94 229zm75 0q8 0 13.5-5.5T188 210V73q0-8-5.5-13.5T169 54q-8 0-13.5 5.5T150 73v137q0 8 5.5 13.5T169 229z"/></svg>