<svg viewBox="0 0 300 316" xmlns="http://www.w3.org/2000/svg"><path d="M285 128l-43-43q-3-23-16.5-41.5t-34-29Q171 4 147 4q-34 0-60.5 21.5T52 80q-23 4-37.5 21T0 141q0 19 10.5 34.5T38 199v11l11 11q2 2 2 5t-3 5l-8 9q-2 2-2 5t2 5l9 9q2 2 2 5t-3 5l-8 8q-2 3-2.5 5.5T40 287l12 13q4 4 10.5 4t10.5-4l9-9q5-6 6-13v-79q16-8 26.5-23.5T125 141q0-21-13-38T78 81q7-23 26-37.5T148 29q25 0 45 16.5T217 88l-40 40q-7 7-11 16t-4 19v91q1 21 15.5 35.5T213 304h37q21 0 35.5-14.5T300 254v-91q0-10-4-19t-11-16zM63 141q-8 0-13.5-5.5t-5.5-13q0-7.5 5.5-13t13-5.5q7.5 0 13 5.5t5.5 13q0 7.5-5.5 13T62 141h1z"/></svg>