<svg viewBox="0 0 300.0014 316" xmlns="http://www.w3.org/2000/svg"><path d="M275 269q0 3-1 4-4 13-15.5 22t-26.5 9H78q10-14 10-31 0-13 9-22t22-9h131q11-1 18.5 7.5T275 269zm-84-117l34-23 35 23q3 2 7 2t7-2.5q3-2.5 4-6.5t0-8l-12-37 30-24q3-2 4-6t-.5-7.5q-1.5-3.5-5-6T288 54h-38l-13-37q-2-4-5-6t-7-2q-4 0-7 2t-5 6l-13 37h-37q-4 0-7.5 2.5t-5 6q-1.5 3.5-.5 7t4 6.5l30 24-12 38q-1 4 .5 7.5t4.5 6q3 2.5 7 2.5t7-2zm47 39v25H119q-24 0-40 16.5T63 273q-1 14-11 23t-25 8q-11-2-19-11.5T0 271V66q0-17 8.5-31t23-22.5Q46 4 63 4h114q-15 8-26.5 21T132 54H63q-6 0-9.5 3.5t-3.5 9q0 5.5 3.5 9T62 79h64q-1 7-1 12.5t1 12.5H63q-6 0-9.5 3.5t-3.5 9q0 5.5 3.5 9T62 129h70q12 28 37 45.5t56 16.5q6 1 12 0h1zm-100-25q0-5-4-8.5t-9-3.5H63q-6 0-9.5 3.5t-3.5 9q0 5.5 3.5 9T62 179h63q5 0 8.5-3.5t3.5-9.5h1z"/></svg>