<svg viewBox="0 0 300 316" xmlns="http://www.w3.org/2000/svg"><path d="M300 141q0 6-3.5 9.5T288 154h-13v12q0 11-7.5 18t-17.5 8h-12v49q0 16-11 27t-27 11h-37v12q0 6-4 9.5t-9 3.5q-5 0-9-3.5t-4-9.5v-12h-37q-16 0-27-11t-11-27v-50H50q-10 0-17.5-7T25 166v-12H13q-6 0-9.5-3.5t-3.5-9q0-5.5 3.5-9T13 129h275q5 0 8.5 3.5t3.5 8.5zM88 54h125q5 0 8.5-3.5t3.5-9q0-5.5-3.5-9T213 29h-15q-4-11-13.5-18T163 4h-25q-13 0-22.5 7T102 29H88q-6 0-9.5 3.5t-3.5 9q0 5.5 3.5 9T88 54zm66 75q19-2 32-16.5T200 79H100q0 14 7.5 26t20 18.5Q140 130 154 129z"/></svg>