<svg viewBox="0 0 300 316" xmlns="http://www.w3.org/2000/svg"><path d="M125 216H92q-16 1-27-10L1 141l-1 13q0 38 18 71.5t49.5 54Q99 300 137 303v-74q0-5-3.5-8.5T125 217v-1zM255 47l-22 23q-9 9-22 9h-17q-3 0-5 2t-2 4v13q1 13-8.5 22t-22.5 9q-2 0-4 2t-2 4v6q0 6 3.5 9.5t8.5 3.5h38q16 0 27 11t11 26v13q0 2 1 4l33 33q21-30 26.5-65t-6-69Q281 73 255 47zm-42 157v-13q0-5-4-8.5t-9-3.5h-37q-16 0-27-11t-11-27v-6q0-13 9-22t22-9q3 0 5-2t2-4V85q0-13 9-22t22-9h17q3 0 4-2l21-21q-29-20-65-25.5T100.5 12Q66 24 41 50.5T6 111l77 77q3 4 9 4h33q16-1 27 10t11 27v74q26-2 50-13t43-30l-34-34q-9-10-9-22z"/></svg>