<svg viewBox="0 0 300 316" xmlns="http://www.w3.org/2000/svg"><path d="M175 91q0 11-7.5 18t-17.5 7q-10 0-17.5-7T125 91.5q0-10.5 7.5-17.5t17.5-7.5q10-.5 17.5 7T175 92v-1zm37 65l-38 38q-10 10-24 10t-24-10l-38-38q-17-17-22.5-40t0-45.5Q71 48 88 30q12-12 28-19t34-7q18 0 34 7t28 19q17 18 22.5 40.5t0 45.5q-5.5 23-22.5 40zm-12-65q0-20-14.5-34.5t-35.5-15Q129 41 114.5 56T100 91.5q0 20.5 14.5 35t35.5 15q21 .5 35.5-14.5T200 92v-1zm59 28q-7 32-29 55l-39 38q-8 8-18.5 12.5T150 229q-11 0-22-4.5T109 212l-38-38q-23-23-30-54-12 5-21.5 14T5 154.5Q0 166 0 179v51q0 21 12.5 37.5T45 290l36 11q9 3 18 3t17-2l73-22q10-2 19 0l30 10q11 3 22.5.5T281 281q9-7 14-17.5t5-21.5v-65q0-19-11-35t-30-23z"/></svg>