<svg viewBox="0 0 300 316" xmlns="http://www.w3.org/2000/svg"><path d="M150 4q-41 0-75.5 20T20 78.5Q0 113 0 154t20 75.5Q40 264 74.5 284t75 20q40.5 0 75-20t55-54.5Q300 195 300 154t-20.5-75.5Q259 44 224.5 24T150 4zm25 72q1-5 5.5-7.5T190 67q12 2 24 10t20 19q4 4 3 9.5t-4.5 8.5q-3.5 3-8.5 3t-9-5q-6-8-14.5-13.5T184 91q-5-1-7.5-5.5T175 76zM65 96q8-10 20.5-18T109 67q5-1 9.5 1.5T124 76q1 5-1.5 9.5T115 91q-8 2-16.5 7.5T84 112q-3 4-8.5 4t-9-2.5q-3.5-2.5-4-8T65 96zm0 54q-3-4-2.5-9.5T67 132q4-3 9-3t9 4q6 8 14 8 9 0 17-8 3-4 8-4t9 3q4 3 4.5 8.5T134 150q-6 8-15.5 12T99 166q-19 0-34-16zm156 63q-9 8-22 15-25 14-49 14t-50-14q-12-7-21-15-4-3-4-8t3.5-9q3.5-4 8.5-4.5t9 3.5q6 5 16 11 20 11 38 11t38-11q9-6 16-11 4-4 9-3.5t8.5 4.5q3.5 4 3.5 9t-4 8zm13-63q-6 8-15.5 12t-19.5 4q-19 0-34-16-3-4-2.5-9.5t4.5-8.5q4-3 9-3t9 4q6 8 14 8 9 0 17-8 3-4 8-4t9 3q4 3 4.5 8.5T234 150z"/></svg>