<svg viewBox="0 0 300 316" xmlns="http://www.w3.org/2000/svg"><path d="M288 131q-12-11-46-18.5t-77-8.5q10-4 16.5-13.5T188 70q0-10-4.5-18T172 39q10-10 28-10 5 0 8.5-3.5t4-9q.5-5.5-3.5-9T200 4q-32 0-50 22-18-22-50-22-5 0-8.5 3.5t-3.5 9q0 5.5 3.5 9T100 29q18 0 28 10-7 5-11.5 13T112 70q1 11 7 20.5t16 13.5q-43 1-77 8.5T12 132Q0 144 0 161.5t12 30Q24 204 41.5 204T71 192q12-12 33-38h92q21 26 33 38t29.5 12q17.5 0 29.5-12.5t12-30q0-17.5-12-30.5zm-163-2q9-12 17-23 4 1 8 1t8-1l17 23h-50zm-18 100h86q-3 12-8 25h-70q-5-12-8-25zm-7-50h100v6q0 9-2 19h-96q-2-10-2-19v-6zm25 100h50q-5 10-10 17.5t-15 7.5q-10 0-15-7.5T125 279z"/></svg>