<svg viewBox="0 0 300 316" xmlns="http://www.w3.org/2000/svg"><path d="M112 254q0 3 1 6 0 13-9.5 22T81 291q-13 0-22-9t-9-22q0-3 1-6h61zm76 0q-1 3-1 6 0 13 9.5 22t22.5 9q13 0 22-9t9-22q0-3-1-6h-61zm49-188h-25v75h88v-12q0-17-8.5-31.5t-23-23Q254 66 237 66zm-25 163h38q21 0 35.5-14.5T300 179v-13h-88v63zM187 66v163H50q-21 0-35.5-14.5T0 179V66q0-20 14.5-34.5T50 17h88q20-1 35 14t15 36l-1-1zm-52 49q-3-5-7.5-8t-10.5-3H80l24-37q3-4 2-9t-5.5-8Q96 47 91 48t-8 5l-32 50q-3 10 3 18t16 8h38l-25 37q-3 4-2 9t5 7.5q4 2.5 8 2.5 6 0 10-5l30-45q3-4 3.5-10t-2.5-10z"/></svg>