<svg viewBox="0 0 300 316" xmlns="http://www.w3.org/2000/svg"><path d="M300 116v125q0 17-8.5 31.5t-23 23Q254 304 238 304H63q-17 0-31.5-8.5t-23-23Q0 258 0 241V116q0-16 8.5-30.5t23-23Q46 54 63 54h50V41q0-15 10.5-26T150 4q16 0 26.5 11T187 42v12h51q16 0 30.5 8.5t23 23Q300 100 300 117v-1zM138 91h25V41q0-5-4-8.5t-9-3.5q-5 0-9 3.5t-3 9.5v49zm-19 69q0 13 9 22.5t22 9.5q13 0 22-9.5t9-22.5q0-13-9-22t-22-9q-13 0-22 9t-9 22zm93 91q-5-20-22.5-33.5T150 204q-22 0-39.5 13.5T88 251q-1 5 1.5 9.5T97 266q5 1 9.5-1.5t5.5-7.5q3-12 14-20t24-8q13 0 24 8t14 20q1 4 4.5 6.5t7.5 2.5h3q5-1 7.5-5.5t1.5-9.5z"/></svg>