<svg viewBox="0 0 300 316" xmlns="http://www.w3.org/2000/svg"><path d="M296 283l-82-82 6-10h43q17 0 28-13t9-30q-3-14-14-22.5t-25-8.5h-41l-53-93q-5-10-14-15t-19-5q-8 0-15.5 3.5t-12 10.5q-4.5 7-6 15t1.5 16l22 61L21 8q-3-4-8.5-4t-9 3.5Q0 11 0 16.5T4 25l275 275q3 4 8.5 4t9-3.5q3.5-3.5 3.5-9t-4-8.5zm-115-45q4 3 4.5 8t-2.5 9l-16 30q-5 9-14 14t-18 5q-9 0-16.5-3.5t-12-10.5q-4.5-7-6-15t1.5-15l24-69H69l-17 24q-5 7-11.5 10.5T26 229q-6 0-12-3t-9.5-8q-3.5-5-4-11.5T2 194l23-40-23-40q-2-6-1.5-12.5T5 90q5-7 13-7t14 6l149 149z"/></svg>