<svg viewBox="0 0 300 316" xmlns="http://www.w3.org/2000/svg"><path d="M225 154q-20 0-37.5 10T160 191.5Q150 209 150 229t10 37.5q10 17.5 27.5 27.5t37.5 10q20 0 37.5-10t27.5-27.5q10-17.5 10-37.5t-10-37.5Q280 174 262.5 164T225 154zm38 87h-75q-6 0-9.5-3.5T175 229q0-5 3.5-9t9.5-4h75q5 0 8.5 4t3.5 9q0 5-3.5 8.5T262 241h1zm-135-37h-27q-7 0-11 7l-9 18q-9 16-24 16-5 0-10.5-3T36 234q-22-24-31-55t-3-63q7-36 31-64t59-40.5q35-12.5 72-5T229 39q22 20 34 46.5t12 55.5v1q-23-13-50-13-19 0-35.5 6.5T159 154q4-6 4-12.5t-3.5-12.5q-3.5-6-9.5-9V66q0-5-3.5-8.5t-9-3.5q-5.5 0-9 3.5T125 66v54q-6 3-9 9t-4 13q1 10 8 17t18 7q6 0 12-3-16 18-22 41z"/></svg>