<svg viewBox="0 0 300 316" xmlns="http://www.w3.org/2000/svg"><path d="M291 93q-8-4-16 2l-37 46v-34q0-5-2.5-8.5T229 93q-9-4-16 2l-38 47v-35q0-5-2.5-8.5T167 93q-9-4-17 2l-46 47L79 24q-2-9-8.5-14.5T55 4H25Q15 4 7.5 11.5T0 29v212q0 17 8.5 31.5t23 23Q46 304 63 304h175q16 0 30.5-8.5t23-23Q300 258 300 241V107q0-5-2.5-8.5T291 93zM125 229q0 5-3.5 8.5T113 241h-13q-5 0-8.5-3.5T88 229v-13q0-5 3.5-8.5t8.5-3.5h13q5 0 8.5 3.5t3.5 8.5v13zm63 0q0 5-4 9t-9 3h-12q-6 0-9.5-3.5T150 229v-13q0-5 3.5-8.5t9.5-3.5h12q5 0 8.5 3.5t3.5 8.5v13h1zm62 0q0 5-3.5 9t-9.5 3h-12q-5 0-8.5-3.5T213 229v-13q0-5 3.5-8.5t8.5-3.5h13q5 0 8.5 3.5t3.5 8.5v13z"/></svg>