<svg viewBox="0 0 300 316" xmlns="http://www.w3.org/2000/svg"><path d="M255 209q-16-21-17-46-1-4 1.5-6.5t6.5-2.5q16 2 29 7 18 7 23 18 7-44-10.5-85t-55-65.5Q195 4 150 4T67.5 28.5Q30 53 12.5 94T2 179q5-11 23-18 13-5 29-7 4 0 6.5 2.5T62 163q0 14-6 28-7 16-17 22-13 8-27-1 18 44 57 69 37 22 81 22t81-22q39-25 57-69-7 5-16.5 4.5T255 209zM63 129q1-23 11.5-36.5T100 79q15 0 25.5 13.5T137 129q1 5-3 9t-9 3.5q-5-.5-8.5-4T113 129q0-9-5-17t-8-8q-3 0-7.5 8T88 129q0 5-4 9t-9 3.5q-5-.5-8.5-4T63 129zm160 69q-11 20-30.5 31.5T150 241q-23 0-42.5-11.5T77 198q-2-3-2-6.5t2-7q2-3.5 5.5-4.5t7.5-1q29 11 60 12 31-1 60-12 4 0 7.5 1t5.5 4.5q2 3.5 2 7t-2 6.5zm2-57q-5 0-9-3.5t-4-8.5q1-9-4-17t-8-8q-3 0-7.5 8t-4.5 17q0 5-4 9t-9 3.5q-5-.5-9-4t-4-8.5q1-19 11.5-34.5T200 79q16 0 27 15.5t11 34.5q0 5-4 9t-9 3z"/></svg>