<svg viewBox="0 0 300 316" xmlns="http://www.w3.org/2000/svg"><path d="M188 56v-2H63q-16 0-27 11T25 91.5Q25 107 36 118t27 11h225q5 0 8.5 3.5t3.5 9q0 5.5-3.5 9T287 154H63q-17 0-31.5-8.5t-23-23Q0 108 0 91.5t8.5-31q8.5-14.5 23-23T63 29h125v-2q0-11 8-18t19-5l75 17q4 1 7 4t3 8v17q0 5-3 8t-7 4l-75 17q-10 2-18.5-5T188 56zm100 173H13q-6 0-9.5 3.5t-3.5 9q0 5.5 3.5 9T13 254h275q5 0 8.5-3.5t3.5-9q0-5.5-3.5-9T287 229h1zm0 50H13q-6 0-9.5 3.5t-3.5 9q0 5.5 3.5 9T13 304h275q5 0 8.5-3.5t3.5-9q0-5.5-3.5-9T287 279h1zm0-100H13q-6 0-9.5 3.5t-3.5 9q0 5.5 3.5 9T13 204h275q5 0 8.5-3.5t3.5-9q0-5.5-3.5-9T287 179h1z"/></svg>