<svg viewBox="0 0 300 316" xmlns="http://www.w3.org/2000/svg"><path d="M238 160q0 8-5.5 13.5T219 179q-8 0-13.5-5.5T200 160q0-8 5.5-13.5T219 141q8 0 13.5 5.5T238 160zm43-44q8 0 13.5-5t5.5-13q0-8-5.5-13.5T281 79q-8 0-13 5.5T263 98q0 8 5 13.5t13 5.5v-1zm-62 88q-8 0-13.5 5.5T200 223q0 8 5.5 13t13.5 5q8 0 13.5-5t5.5-13q0-8-5.5-13.5T219 204zm62-63q-8 0-13 5.5t-5 13.5q0 8 5 13.5t13 5.5q8 0 13.5-5.5T300 160q0-8-5.5-13.5T281 141zm0 63q-8 0-13.5 5.5t-5 13.5q.5 8 5.5 13t13 5q8 0 13.5-5t5.5-13q0-8-5.5-13.5T281 204zm0 62q-8 0-13 5.5t-5 13.5q0 8 5 13.5t13 5.5q8 0 13.5-5.5T300 285q0-8-5.5-13t-13.5-5v-1zm-62 0q-8 0-13.5 5.5T200 285q0 8 5.5 13.5T219 304q8 0 13.5-5.5t5-13.5q-.5-8-5.5-13.5t-13-4.5v-1zm-63-62q-8 0-13.5 5.5T137 223q0 8 5.5 13t13.5 5q8 0 13.5-5t5.5-13q0-8-5.5-13.5T156 204zm0 62q-8 0-13.5 5.5t-5 13.5q.5 8 5.5 13.5t13 5.5q8 0 13.5-5.5T175 285q0-8-5.5-13t-13.5-5v-1zm93-229q2 9-.5 18.5T239 73l-95 95q-12 11-27 11-5 0-9-1-10-2-17.5-9T80 152q-3-10-4-21-4-61 10-91-16-11-37-11-10 0-17 7t-7 17v239q0 5-3.5 8.5t-9 3.5q-5.5 0-9-3.5T0 292V53q0-20 14.5-34.5T49 4q30 0 53 17Q131 0 202 5q11 1 21 4t17 10.5q7 7.5 9 17.5z"/></svg>