<svg viewBox="0 0 300 316" xmlns="http://www.w3.org/2000/svg"><path d="M279 193q-41-7-73 15-26 17-44 50v-70q5-2 7-5 12-13 16-27 13 2 29-1 11-2 17-12t2-21q-4-14-11-24 7-10 11-23 4-11-2-21t-17-13q-16-3-28-1-4-14-17-27-7-9-19-9t-19 9q-13 13-17 27-12-2-28 1-11 3-17 13t-2 21q4 13 11 23-7 10-11 23-4 11 2 21t17 13q16 3 29 0 4 15 16 28 2 3 6 5v70q-17-33-43-50-32-22-73-14-10 1-15.5 9T1 220q3 38 31 60 18 14 44 20 20 4 42 4h64q22 0 42-4 26-6 44-20 28-22 31-60 1-9-4.5-17T279 193zM131 98q0-8 5.5-13.5T150 79q8 0 13.5 5.5T169 98q0 8-5.5 13.5T150 117q-8 0-13.5-5.5T131 98z"/></svg>