<svg viewBox="0 0 300 316" xmlns="http://www.w3.org/2000/svg"><path d="M118 304q-6 0-11-2-13-4-22-14.5T75 263q-1-14 6.5-26t19.5-17q-3-17 1-34 6-24 24.5-39.5t43-17.5q24.5-2 45 11t29.5 35q4 5 10 6 16 4 27.5 15.5t16 27.5q4.5 16 .5 32.5t-16.5 29Q269 298 252 302q-7 2-13 2H118zm-43-97q0-14 3-27 7-31 30.5-51.5t54.5-24q31-3.5 58.5 11T264 158q21 6 36 22 0-33-19.5-60T229 83q-7-2-9-9-10-32-38-52T119.5 4Q85 6 59 28.5T27 85q-3 16-.5 33T37 150q-20 10-30 29.5t-6 40q4 20.5 17.5 36T52 276q-5-19 1.5-38T75 207z"/></svg>