<svg viewBox="0 0 300 316" xmlns="http://www.w3.org/2000/svg"><path d="M296 283l-74-75q13-16 20.5-36.5T250 129q0-34-17-62.5T187.5 21Q159 4 125 4T62.5 21Q34 38 17 66.5T0 129q0 34 17 62.5T62.5 237Q91 254 125 254q22 0 42.5-7.5T204 226l75 74q3 4 8.5 4t9-3.5q3.5-3.5 3.5-9t-4-8.5zm-158-92v13q0 5-4 8.5t-9 3.5q-5 0-8.5-3.5T113 204v-13h-4q-10 0-18.5-5T77 173q-3-5-1.5-10t6-7.5q4.5-2.5 9.5-1t8 6.5q3 5 10 5h29q5 0 8.5-3.5t3.5-8q0-4.5-2.5-7T142 144l-38-6q-13-2-21-11.5T75 104q0-16 11-27t26-11V54q1-5 4.5-9t8.5-4q5 0 9 4t3 9v12h4q10 0 18.5 5.5T173 85q3 5 1.5 10t-6 7.5q-4.5 2.5-9.5 1t-8-7q-3-5.5-10-4.5h-28q-6-1-9.5 3t-3.5 8.5q0 4.5 2.5 7t5.5 3.5l38 6q13 2 21 11.5t8 22.5q0 16-11 26.5T138 191z"/></svg>