<svg viewBox="0 0 300 316" xmlns="http://www.w3.org/2000/svg"><path d="M78 278q0 10-8 17.5T51.5 303Q41 303 33 295.5T25 278q0-7 5.5-21T43 235q8-9 15-2 16 19 20 45zM274 91q10 0 17.5-7.5T299 65q0-11-7.5-18.5T274 39q-7-1-21 5t-22 13q-9 8-2 14 19 17 45 21v-1zm20 21q13 42 0 83-11 39-41.5 67.5T182 301q-42 10-82-6 5-12 2-29-3-13-11-29-7-12-14-20-10-12-25-12h-1q-15 0-25 11-4 5-7 11-22-39-19-81 2-38 23.5-71T79 22.5Q113 3 151 4q42 0 79 23-9 6-18 13-11 10-11 25t12 25q8 8 21 15 16 8 30 11 18 3 30-4zm-162 7q5 4 12 3l44-9q5-1 8-5t2-9.5q-1-5.5-5.5-8T183 89l-26 5 5-26q2-7-3.5-12T146 53.5q-7 2.5-8 9.5l-9 44q-1 7 3 12zm-17 17q-5-4-12-3l-44 9q-7 1-9.5 8t2.5 12.5q5 5.5 12 3.5l26-5-5 26q-2 7 3.5 12t12.5 2.5q7-2.5 8-9.5l9-44q1-7-3-12zm120-1q-1-3-3.5-6t-6.5-3.5q-4-.5-7.5 1T212 131q-13 29-34 51-22 21-51 34-3 2-4.5 5.5t-1 7.5q.5 4 3.5 6.5t6 3.5q22 6 44 .5t38.5-22q16.5-16.5 22-38.5t-.5-44z"/></svg>