<svg viewBox="0 0 300 316" xmlns="http://www.w3.org/2000/svg"><path d="M25 104V91q0-20 10-37t27.5-27Q80 17 100 17h100q20-1 37.5 9.5T265 54q10 17 10 38v12q-21 0-35.5 14.5T225 154v37h-25q-15 0-28 7t-22 19q-9-12-22-19t-28-7H75v-37q0-21-14.5-35.5T25 104zm75 112H63q-5 0-8.5-2.5T50 207v-52q0-9-6-16.5T29 129q-11-2-20 6t-9 19v50q0 15 6.5 28T25 254v25q0 5 3.5 9t9 3.5q5.5-.5 9-4T50 279v-14q6 1 12 1h76v-12q0-16-11-27t-27-11zm171-87q-9 2-15 9.5t-6 16.5v52q-1 4-4.5 7t-7.5 3h-38q-16 0-26.5 10.5T163 254v12h75q6 0 12-1v14q0 5 3.5 9t9 4q5.5 0 9-4t3.5-9v-25q12-9 18.5-22t6.5-28v-50q0-11-9-19t-20-6z"/></svg>