<svg viewBox="0 0 300 316" xmlns="http://www.w3.org/2000/svg"><path d="M188 245q4 4 4 9t-3.5 8.5Q185 266 179 266H63q-17 0-31.5-8t-23-22.5Q0 221 0 204V104q0-9 2.5-17t9-9.5Q18 76 24 81l23 23q-9 15-9 34v32q0 25 15 42t38 17h6q14 0 26.5-8t19.5-21l45 45zm112-41V104q0-17-8.5-31.5t-23-23Q254 41 238 41H63l-7 1L21 8q-3-4-8.5-4t-9 3.5Q0 11 0 16.5T4 25l61 61q12-7 26-7h5q11 0 21 5.5T135 99q3 4 2.5 9.5T133 117q-4 3-9.5 2.5T115 115q-8-11-19-11h-5q-4 0-7 1l81 81q-2-8-2-17v-31q0-25 15-42t38-17h5q11 0 21 5.5T260 99q3 4 2.5 9.5T258 117q-4 3-9.5 2.5T240 115q-8-11-19-11h-5q-12 0-20 9.5t-8 24.5v31q0 16 8 25.5t20 9.5h5q11 0 19-11 3-4 8.5-4.5t9.5 2.5q4 3 4.5 8t-2.5 9q-8 10-18 15.5t-21 5.5h-5q-5 0-9-1l72 72q3 4 8.5 4t9-3.5q3.5-3.5 3.5-9t-3-8.5l-26-26q13-9 21-23t8-30zM63 170q0 15 7.5 24.5T91 204h6q9 0 16.5-6t10.5-17l-59-59q-2 8-2 16v32z"/></svg>