<svg viewBox="0 0 300 316" xmlns="http://www.w3.org/2000/svg"><path d="M59 208q-7-7-8.5-19.5T54 160q10-34 39-63 16-16 34-26.5T163 56q13-3 24-1.5t17.5 8q6.5 6.5 8 19.5t-3.5 29q-10 33-39 63-16 15-34 26t-36 15q-9 2-16 2-17 0-25-9zm241-58q0 31-11.5 59T255 259q-22 22-50.5 33.5t-59 11.5Q115 304 87 292.5T36 259l-15-17Q2 222 .5 191T14 126q15-34 44.5-63.5t64-45Q157 2 187.5 4T239 25l16 15q22 22 33.5 50.5T300 150zM40 227q15 14 40 14.5t53.5-13q28.5-13.5 53-38t38-53Q238 109 237.5 84t-15-40q-14.5-15-40-15t-54 13.5Q100 56 76 80.5t-37.5 53Q25 162 25.5 187T40 227z"/></svg>