<svg viewBox="0 0 300 316" xmlns="http://www.w3.org/2000/svg"><path d="M300 54q0 5-3.5 8.5T288 67h-23l11 19q3 4 1.5 9t-6 7.5Q267 105 262 104t-7-6l-11-19-11 19q-4 6-11 6t-10.5-6q-3.5-6-.5-12l11-20h-22q-5 1-9-3t-3.5-9q.5-5 4-9t8.5-4h22l-11-19q-3-6 .5-12.5t10.5-6q7 .5 11 6.5l11 19 11-19q2-5 7-6t9.5 1.5q4.5 2.5 6 7.5t-1.5 9l-11 19h23q5 0 8.5 4t3.5 9zM179 166l-19 11q5 14 0 29l19 11q4-3 8-4l22-6q5-1 9.5 1.5t6 7.5q1.5 5-1 9.5T216 231l-23 6q-3 1-2 4l6 22q2 7-3 12.5t-12 3.5q-7-2-9-9l-6-23q-1-4-1-9l-19-11q-9 10-22 13v22q4 2 7 5l17 17q3 3 3 8.5t-3.5 9Q145 305 140 305t-9-3l-16-17q-1-1-2.5-1t-2.5 1l-16 16q-4 4-9 4t-8.5-3.5Q73 298 73 293t3-9l17-16q3-4 7-6v-22q-13-3-22-13l-19 11q0 5-1 9l-6 23q-2 7-9 9t-12-3.5q-5-5.5-3-12.5l6-22q0-3-2-4l-23-6q-5-1-7.5-5.5t-1-9.5q1.5-5 6-7.5T16 207l22 6q4 1 8 4l19-11q-5-14 0-29l-19-11q-4 3-8 4l-22 6q-5 1-9.5-1.5t-6-7.5q-1.5-5 1-9.5T9 152l23-6q3-1 2-4l-6-22q-2-7 3-12.5t12-3.5q7 2 9 9l6 23q1 4 1 9l19 11q9-10 22-13v-21q-4-2-8-5l-16-17q-5-5-3.5-12t9-9Q89 77 94 83l16 16q1 1 2.5 1t1.5-1l17-16q3-4 8.5-4t9 3.5q3.5 3.5 3.5 9t-4 8.5l-16 16q-3 4-7 6v21q13 3 22 13l19-11q0-5 1-9l6-23q2-7 9-9t12 3.5q5 5.5 3 12.5l-6 22q0 3 3 4l22 6q5 1 7.5 5.5t1 9.5q-1.5 5-6 7.5T209 176l-22-6q-4-1-8-4z"/></svg>