<svg viewBox="0 0 300 316" xmlns="http://www.w3.org/2000/svg"><path d="M225 154q-20 0-37.5-10T160 116.5Q150 99 150 79t10-38H53v-4q-2-14-12.5-23.5T15 4h-2Q7 4 3.5 7.5t-3.5 9q0 5.5 3.5 9T12 29h3q5 0 8.5 3t4.5 8l17 146q3 24 20.5 40t41.5 16h131q5-1 8.5-4.5t3.5-8.5q0-5-3.5-8.5T238 217H107q-12-1-21.5-7.5T72 192h149q22 0 39.5-15t21.5-37l3-16q-10 14-26 22t-34 8zM63 279q-1 10 6.5 17.5t18 7.5q10.5 0 17.5-7.5t7.5-17.5q.5-10-7-17.5t-18-7.5Q77 254 70 261.5T63 279zm125 0q-1 10 6.5 17.5t18 7.5q10.5 0 17.5-7.5t7.5-17.5q.5-10-7-17.5t-18-7.5q-10.5 0-17.5 7.5t-7 17.5zm9-163q6 7 16 7h1q10 0 17-7l53-53q5-5 3-12t-9-9q-7-2-12 3l-52 53-16-17q-3-4-8-4t-9 3.5q-4 3.5-4 8.5t3 9l17 18z"/></svg>