<svg viewBox="0 0 300 316" xmlns="http://www.w3.org/2000/svg"><path d="M150 4q-41 0-75.5 20T20 78.5Q0 113 0 154t20 75.5Q40 264 74.5 284t75.5 20q25 0 50-9v-78q-12 6-25 9v40q0 6-3.5 9.5t-9 3.5q-5.5 0-9-3.5T150 267v-38q-24 0-49-14-13-7-22-14-4-4-4-9t3.5-9q3.5-4 8.5-4t9 3q6 6 16 11 20 11 38.5 11t37.5-9q10-4 17-9 6-5 13-1.5t7 11.5v88q34-20 54.5-54.5T300 154q0-41-20-75.5T225.5 24Q191 4 150 4zm-32 111q-11 5-24 15-8 6-11 8.5t-8.5 2.5q-5.5 0-9-4t-3-9q.5-5 4.5-8 20-18 40-27 5-3 10-1t7 6.5q2 4.5 0 9.5t-6 7zm116 22q-3 4-8.5 4t-8.5-3q-18-15-35-23-4-2-6-7t0-9.5q2-4.5 7-6.5t10 1q19 9 40 26v1q4 3 4.5 8t-3.5 9z"/></svg>