<svg viewBox="0 0 300 316" xmlns="http://www.w3.org/2000/svg"><path d="M238 4H63q-17 0-31.5 8.5t-23 23Q0 50 0 67v174q0 17 8.5 31.5t23 23Q46 304 63 304h175q16 0 30.5-8.5t23-23Q300 258 300 241V66q0-16-8.5-30.5t-23-23Q254 4 238 4zM81 173q-8 0-13-5.5T63 154q0-8 5-13.5t13-5.5q8 0 13.5 5.5T100 154q0 8-5.5 13.5T81 173zm69 0q-8 0-13.5-5.5T131 154q0-8 5.5-13.5T150 135q8 0 13.5 5.5T169 154q0 8-5.5 13.5T150 173zm69 0q-8 0-13.5-5.5T200 154q0-8 5.5-13.5T219 135q8 0 13.5 5.5T238 154q0 8-5.5 13.5T219 173z"/></svg>