<svg viewBox="0 0 300 316" xmlns="http://www.w3.org/2000/svg"><path d="M100 254h100v4q0 19-13.5 32.5T154 304h-8q-19 0-32.5-13.5T100 258v-4zm163-138q0 25-10.5 47T224 201q-14 12-20 28H95q-7-17-22-30-20-19-29-44.5T38 102q4-25 17.5-46t35-34.5Q112 8 136.5 5T184 9.5Q207 17 225 33t27.5 37.5Q262 92 262 116h1zm-94 57q0-8-5.5-13.5T150 154q-8 0-13.5 5.5T131 173q0 8 5.5 13.5T150 192q8 0 13.5-5.5T169 173zm18-88q-2-12-10.5-20T157 55q-18-4-31 7.5T113 91q0 6 3.5 9.5t8.5 3.5q5 0 9-3.5t4-9q0-5.5 4-9.5t10-3q4 1 7 3.5t3.5 7q.5 4.5-1.5 8t-5 4.5q-7 5-11 9-7 7-7 18 0 5 3.5 8.5t8.5 3.5q5 0 9-3.5t4-8.5q-1-2 5-5 11-5 16-16t3-23z"/></svg>