<svg viewBox="0 0 300 316" xmlns="http://www.w3.org/2000/svg"><path d="M69 141q18 0 31-12.5T113 98q0-18-13-31T69 54q-18 0-31 13T25 98q0 18 13 30.5T69 141zm125-50q18 0 31-12.5T238 48q0-18-13-31T194 4q-18 0-31 13t-13 31q0 18 13 30.5T194 91zm31 63q-20 0-37.5 10T160 191.5Q150 209 150 229t10 37.5q10 17.5 27.5 27.5t37.5 10q20 0 37.5-10t27.5-27.5q10-17.5 10-37.5t-10-37.5Q280 174 262.5 164T225 154zm46 71l-34 33q-8 8-20.5 8t-20.5-8l-17-17q-4-3-4-8.5t3.5-9q3.5-3.5 9-3.5t8.5 4l17 16q2 2 3.5 1.5t3.5-1.5l34-33q3-3 8.5-3t9 3.5q3.5 3.5 3.5 9t-4 8.5zm-140-31q-6 17-6 35H13q-6 0-9.5-4T0 215q3-26 22.5-43.5T69 154q20 0 37 11t25 29zm14-25q-7-11-17-19 7-20 25-33t40-13q17 0 31.5 7.5T249 132q-12-3-24-3-24 0-45 10.5T145 169z"/></svg>