<svg viewBox="0 0 300 316" xmlns="http://www.w3.org/2000/svg"><path d="M291 207q9 9 9 22t-9 22l-32 31q-4 4-9 4t-9-4q-4-4-3.5-9t3.5-9l24-23h-27q-16 0-27 11t-11 27v12q0 6-3.5 9.5t-9 3.5q-5.5 0-9-3.5T175 291v-12q0-17 8.5-31.5t23-23Q221 216 238 216h27l-24-23q-3-3-3.5-8t3.5-9q4-4 9-4t9 4l32 31zM113 4Q95 4 81.5 15T64 43q-17 4-28 17.5T25 92q-12 9-18.5 22T0 142.5Q0 158 9 173q-9 14-9 30.5t7.5 30Q15 247 28 256q7 21 25 34.5T94 304q18 0 30.5-13.5T137 258V29q1-10-6.5-17.5T113 4zm101 191q-3-10-.5-19.5T223 158q11-11 26.5-11t26.5 11l15 14 7-14q2-8 2-16 0-15-6.5-28T275 92v-1q0-17-11-30.5T236 43q-4-17-17.5-28T187 4q-10 0-17 8t-7 18v204q8-14 21.5-24.5T214 195z"/></svg>