<svg viewBox="0 0 300 316" xmlns="http://www.w3.org/2000/svg"><path d="M263 91v150q0 17-8.5 31.5t-23 23Q217 304 200 304H100q-17 0-31.5-8.5t-22.5-23Q38 258 38 241V91q-1-16 7.5-30.5t23-23Q83 29 100 29h2q4-11 13.5-18T138 4h25q12 0 21.5 7T198 29h2q17 0 31.5 8.5t23 23Q263 75 263 92v-1zm-144 44q0 13 9 22t22 9q13 0 22-9t9-22q0-13-9-22t-22-9q-13 0-22 9t-9 22zm93 91q-5-20-22.5-33.5T150 179q-22 0-39.5 13.5T88 226q-1 5 1.5 9.5T97 241q5 1 9.5-1.5t5.5-7.5q3-12 14-20t24-8q13 0 24 8t14 20q1 4 4.5 7t7.5 3l3-1q5-1 7.5-5.5t1.5-9.5z"/></svg>