<svg viewBox="0 0 300 316" xmlns="http://www.w3.org/2000/svg"><path d="M244 116q-5 0-8.5-2t-4.5-6l-11-24-24-11q-4-2-6.5-5.5t-2-8q.5-4.5 3-8T197 46l24-9 10-24q1-4 4.5-6.5t8-2.5q4.5 0 8 2.5T257 13l10 24 24 10q4 2 6.5 5.5t2.5 8q0 4.5-2.5 8T291 73l-24 10-10 25q-2 4-5.5 6.5T244 117v-1zm39 19q-24 10-50 5t-45-24q-19-19-24-45t5-50q3-6-1-11.5T158 4H63q-17 0-31.5 8.5t-23 23Q0 50 0 66v175q0 17 8.5 31.5t23 23Q46 304 63 304h175q16 0 30.5-8.5t23-23Q300 258 300 241v-95q0-6-5.5-10t-11.5-1zM171 241q-4 1-7.5-2t-4.5-7l-8-28H86l-8 28q-1 4-4.5 6.5T66 241q-6 0-9.5-4.5T54 226L93 87q3-12 14-17.5t23-.5q5 2 9 7t6 12l38 138q2 6-2 11t-10 5v-1zm67-12q-1 5-4.5 9t-8.5 3.5q-5-.5-8.5-4T213 229v-61q0-6 3.5-9.5t8.5-3.5q5 0 8.5 3.5t3.5 9.5v61h1zM117 94l-24 85h51l-24-85q0-2-1-2t-2 2z"/></svg>