<svg viewBox="0 0 300 316" xmlns="http://www.w3.org/2000/svg"><path d="M256 216q-3 0-6 1V66q0-15 11-26t26-11q6 0 9.5-3.5t3.5-9q0-5.5-3.5-9T287 4q-16 0-30.5 8.5t-23 23Q225 50 225 66v141l-34 12q0-7-2-13l-20-63q-4-15-18-22t-29-3l-83 27q-15 5-22 18.5T14 191l21 68q2 5 5 10L9 280q-5 1-7.5 6t-1 9.5q1.5 4.5 6.5 7t9 .5l204-67q-9 12-8 27t11 26.5q10 11.5 25 14t28.5-4.5q13.5-7 19.5-21t2.5-28.5Q295 235 283 226t-27-10zm-145-41l-31 9q-5 2-9.5-.5t-6-7.5q-1.5-5 1-9.5T73 161l31-10q6-2 11.5 2.5t4 11.5q-1.5 7-8.5 10z"/></svg>