<svg viewBox="0 0 300 316" xmlns="http://www.w3.org/2000/svg"><path d="M163 116v25q0 6-4 9.5t-9 3.5q-5 0-8.5-3.5T138 141v-25q0-5 3.5-8.5t8.5-3.5q5 0 8.5 3.5t3.5 9.5l1-1zm-13 50q-5 0-8.5 4t-3.5 9q0 5 3.5 8.5t8.5 3.5q5 0 8.5-3.5t4-8.5q.5-5-3.5-8.5t-9-3.5v-1zm131 62q-8 13-23 17t-28-3l-7-4q-16 14-36 21v7q0 16-10.5 27T150 304q-16 0-26.5-11T113 266v-6q-21-7-38-21l-5 3q-13 7-28 3t-22.5-17.5Q12 214 16 199t18-23l4-2q-2-10-2-20t2-20l-4-2q-14-8-18-23t3.5-28.5Q27 67 42 63t28 3l5 3q17-15 38-22v-6q0-15 10.5-26T150 4q16 0 26.5 11T187 41v8q20 7 36 21l7-4q13-8 28-3.5t22.5 18Q288 94 284 109t-18 23l-7 4q1 9 1 18t-1 18l7 4q14 8 18 23t-3 29zm-63-51l-53-89q-5-9-15-9t-15 9l-53 89q-5 9 0 18t16 9h104q10 0 15.5-9t.5-18z"/></svg>