<svg viewBox="0 0 300 316" xmlns="http://www.w3.org/2000/svg"><path d="M150 4q-41 0-75.5 20T20 78.5Q0 113 0 154t20 75.5Q40 264 74.5 284t75.5 20q41 0 75.5-20t54.5-54.5q20-34.5 20-75.5t-20-75.5Q260 44 225.5 24T150 4zM75 129q-4 0-7.5-2.5t-4.5-7q-1-4.5 1.5-9T72 104q9-2 17.5-7.5T102 84q3-4 8.5-5t9.5 2q4 3 5 8.5t-2 9.5q-7 10-19 18t-26 12h-3zm31 0q8 0 13.5 5.5T125 148q0 8-5.5 13.5T106 167q-8 0-13.5-5.5t-5-13.5q.5-8 5.5-13.5t13-5.5zm102 103q4 4 4.5 9t-3 9q-3.5 4-9 4t-8.5-3q-3-3-6-7-6-7-9-15h-54q-3 8-9 15-3 4-6 7t-8.5 3q-5.5 0-9-4t-3-9q.5-5 3.5-8t6-7.5q3-4.5 3-9t-3-9q-3-4.5-6-7.5t-3.5-8q-.5-5 3-9t8.5-4q5 0 8.5 3t6.5 7q6 7 9 15h54q3-8 9-15 3-4 6.5-7t8.5-3q5 0 8.5 4t3 9q-.5 5-3.5 8t-6 7.5q-3 4.5-3 9t3 9q3 4.5 5 6.5zm-14-66q-8 1-13.5-4.5T175 148q0-8 5.5-13.5T194 129q8 0 13.5 5.5t5 13.5q-.5 8-5.5 13.5t-13 5.5v-1zm43-46q-1 4-4.5 6.5T225 129h-3q-14-4-26-12t-19-18q-3-4-2-9.5t5-8.5q4-3 9.5-2t8.5 5q4 7 12.5 12.5T228 104q5 2 7.5 6.5t1.5 9.5z"/></svg>