<svg viewBox="0 0 300 316" xmlns="http://www.w3.org/2000/svg"><path d="M100 41q0-15 11-26t26.5-11Q153 4 164 15t11 26.5Q175 57 164 68t-26.5 11Q122 79 111 68t-11-27zm188 225h-16l-17-49q-4-11-13.5-18t-22.5-7h-44q-10-1-17.5-8t-7.5-18h75q5 0 9-3.5t3.5-8.5q-.5-5-4-9t-8.5-4h-75v-37q0-5-3.5-9t-9-4q-5.5 0-9 4t-3.5 9v62q0 21 14.5 35.5T175 216h44q5 0 8 2.5t4 6.5l20 58q1 4 4 6t8 2h25q5 1 8.5-3t3.5-9q0-5-3.5-9t-9.5-4h1zm-116-25q-20 0-36.5-10.5t-26-27.5q-9.5-17-9.5-37v-49q0-5-4.5-9t-9.5-3q-26 4-46 19T9.5 162q-10.5 23-9 48.5t15 46.5Q29 278 51 290.5T98 304h2q25 0 46.5-11.5T182 261q4-6 1-12.5t-11-7.5z"/></svg>