<svg viewBox="0 0 300 316" xmlns="http://www.w3.org/2000/svg"><path d="M242 53q-14 0-26 7t-20 18q-14-19-31-22 3-14 12-29l3-5q2-4 .5-9t-6-7.5Q170 3 165 4.5t-7 5.5l-2 4q-6 10-9 17-5 12-8 25-17 6-28 20.5T100 110q0 16 7 45t18 56q3 6-1 11.5t-11 5.5q-3 0-6.5-2t-4.5-5q-13-31-20-65-7-30-7-46 0-26 15-47-14-10-30.5-10t-30 8Q16 69 8 82.5t-8 29Q0 127 7 157q7 34 19 64 15 36 33 57 22 25 46 25h1q13 0 24.5-5.5T150 282q8 10 19.5 15.5T194 303h1q24 0 46-25 18-21 33-57 12-29 20-64 6-29 6-45t-8-29.5Q284 69 270.5 61T242 53z"/></svg>