<svg viewBox="0 0 300 316" xmlns="http://www.w3.org/2000/svg"><path d="M297 82q-4-4-9-4t-9 4l-39 39q-11-5-20-5t-18 4l94-95q4-3 4-8.5t-3.5-9Q293 4 287.5 4T279 8l-95 94q4-9 4-18t-5-21l39-38q3-4 3-9t-3.5-9Q218 3 213 3t-9 4l-33 33-5-7q-4-4-9.5-4t-9.5 4q-8 10-14 23-8 16-8 29t7.5 26q7.5 13 20.5 22l-31 32q3-9 3-17 0-14-7-30-6-12-15-22-4-5-9.5-5T84 96q-8 10-14 22-7 16-7 29.5t7.5 26Q78 186 91 196l-32 31q4-9 4-17 0-13-8-29-6-13-14-23-4-4-9.5-4t-9.5 4q-8 10-14 23-8 16-8 29t7.5 26Q15 249 28 258L4 283q-4 3-4 8.5t3.5 9Q7 304 13 304q5 0 8-4l25-24q10 13 22.5 20.5T94 304q13 0 29-7 13-6 23-15 4-4 4-9.5t-4-9.5q-10-8-23-14-16-8-29-8-8 1-17 4l31-32q10 13 22.5 20.5t26 7.5q13.5 0 29.5-7 12-6 22-14 5-4 5-9.5t-5-9.5q-10-9-22-15-16-7-30-7-8 0-17 3l32-31q10 13 22.5 20.5T219 179q13 0 29-7 13-6 23-15 4-4 4-9.5t-4-9.5l-7-5 33-33q3-4 3-9t-3-9z"/></svg>