<svg viewBox="0 0 300 316" xmlns="http://www.w3.org/2000/svg"><path d="M63 91q-6 0-9-2.5T50 82v-3q0-35 20-53 15-15 43-19v22q-1 5 3 8.5t9 3.5q5 0 9-3.5t3-8.5V4h26v25q0 5 3.5 8.5T175 41q5 0 8.5-3.5T187 29V6q28 5 43 20 20 18 20 53v3q-1 4-4 6.5t-8 2.5H63zm211 132l-19-96q-1-5-4.5-8t-8.5-3H58q-5 0-8.5 3t-4.5 8l-19 97q-3 15 1 29.5t14 26q10 11.5 24 18t29 6.5h112q16 0 29.5-6.5t23.5-18q10-11.5 14-26.5t1-30zm-105 43q-8 0-13.5-5t-5.5-13q0-8 5.5-13.5T169 229q8 0 13.5 5.5T188 248q0 8-5.5 13t-13.5 5zm37-50q-8 0-13.5-5t-5.5-13q0-8 5.5-13.5T206 179q8 0 13.5 5.5T225 198q0 8-5.5 13t-13.5 5z"/></svg>