<svg viewBox="0 0 300 316" xmlns="http://www.w3.org/2000/svg"><path d="M225 66v0zm75 0q0 14-8.5 24.5T270 103q-7 17-22.5 28T213 142h-13v24h11q25 0 44 19l10 10q4 4 4 9t-4 8.5q-4 3.5-9 3.5t-9-3l-10-11q-11-11-26-10h-11v43l17 18q8 7 8 17t-9 19q-6 7-16.5 11t-21.5 4q-15 0-28-8-17 11-37 8-18-4-29-15-9-9-9-19t8-17l17-18v-44H89q-15 0-26 11l-10 11q-4 4-9 4t-9-4q-4-4-4-9t4-9l10-10q19-19 44-19h11v-25H88q-20 0-35.5-10.5T30 103q-13-2-21.5-12.5T0 66q0-9 4-28t8-29q1-5 6-5t7 4q2 4 5 14 5 12 8 19 2-7 7-19 3-10 5-14t7-4q5 0 7 5 3 10 7 29t4 29q0 10-5 18.5T56 99q5 8 13.5 13t17.5 5h13V76q0-16 7.5-33t19-28Q138 4 150 4t23.5 11q11.5 11 19 28t7.5 33v40h13q9 0 17.5-4.5T244 99q-9-5-14-13.5T225 66q0-11 4-29t8-28q1-5 7-5 5 0 6.5 4t4.5 14q5 12 7 19 3-7 8-19 3-10 4.5-14t6.5-4q6 0 8 5 4 10 7.5 28t3.5 30v-1zM175 191h-50v25h50v-25zm0-50h-50v25h50v-25z"/></svg>