<svg viewBox="0 0 300 316" xmlns="http://www.w3.org/2000/svg"><path d="M50 241q-13 0-22-9t-9-22q0-13 9-22t22-9q13 0 22 9t9 22q0 13-9 22.5T50 242v-1zm131-31q0-13-9-22t-22-9q-13 0-22 9t-9 22q0 13 9 22t22 9q13 0 22-9t9-22zM150 66q13 0 22-9t9-22q0-13-9-22t-22-9q-13 0-22 9t-9 22q0 13 9 22.5t22 9.5v-1zm69 144q0 13 9 22t22 9q13 0 22-9t9-22q0-13-9-22t-22-9q-13 0-22 9t-9 22zm-19-101v44q0 7-7 11-2 1-5.5 1t-6.5-2q-14-9-31-9t-31 9q-6 4-12.5.5T100 153v-44q-13-5-23-14L11 38q-4-3-4.5-8t3-9q3.5-4 8.5-4.5t9 3.5l66 56q18 16 41 16h32q23 0 41-16l66-56q4-4 9-3.5t8.5 4.5q3.5 4 3 9t-4.5 8l-66 57q-10 9-23 14zm99 178q-5-15-19-24t-30-9q-16 0-30 9t-19 24q-3 6 1 11.5t11 5.5h75q6 0 10-5.5t1-11.5zm-149-33q-16 0-30 9t-19 24q-3 6 1 11.5t11 5.5h75q6 0 10-5.5t1-11.5q-5-15-19-24t-30-9zm-100 0q-16 0-30 9T1 287q-3 6 1 11.5t11 5.5h75q6 0 10-5.5t1-11.5q-5-15-19-24t-30-9z"/></svg>