<svg viewBox="0 0 300 316" xmlns="http://www.w3.org/2000/svg"><path d="M268 61q-6-4-12.5 0T250 72v7q0 27-13.5 50T200 165.5Q177 179 150 179t-50-13.5Q77 152 63.5 129T50 79v-7q1-7-5.5-11T32 61Q17 69 8.5 83.5T0 115v89q0 17 8.5 31.5t23 22.5q14.5 8 31.5 8h75v13h-38q-5 0-8.5 3.5t-3.5 9q0 5.5 3.5 9t8.5 3.5h100q5 0 9-3.5t4-9q0-5.5-4-9t-9-3.5h-37v-13h75q16 0 30.5-8t23-22.5Q300 221 300 204v-89q0-17-8.5-31.5T268 61zm-58 38l-6-4q2-8 2-16t-2-16l6-4q5-3 6.5-8t-1.5-9q-3-5-8-6.5t-9 1.5l-7 4q-12-13-29-17v-8q1-5-3-8.5T150 4q-5 0-8.5 3.5T138 17v7q-17 4-29 17l-7-4q-4-3-9-1.5T85 42q-3 4-1.5 9t6.5 8l6 4q-2 8-2 16t2 16l-6 4q-5 3-6.5 8t1.5 9q3 5 8 6.5t9-1.5l7-4q12 13 29 17v8q0 5 3.5 8.5t8.5 3.5q5 0 8.5-3.5t3.5-8.5v-8q17-4 29-17l7 4q4 3 9 1.5t8-6.5q3-4 1.5-9t-6.5-8zm-60-1q-8 0-13.5-5.5T131 79q0-8 5.5-13.5T150 60q8 0 13.5 5.5T169 79q0 8-5.5 13.5T150 98z"/></svg>