<svg viewBox="0 0 300 316" xmlns="http://www.w3.org/2000/svg"><path d="M296 283l-74-75q21-26 26.5-59t-6-64q-11.5-31-38-52.5T145 6q-33-5-64 6.5T28.5 50Q7 76 2 109t6.5 64Q20 204 46 226q23 19 51 25t56.5 0q28.5-6 50.5-25l75 74q4 4 9 4t8.5-3.5q3.5-3.5 3.5-9t-4-8.5zm-155-96q-7 6-15.5 6t-15.5-6q-20-16-32-31-15-20-15-36.5t10.5-28Q84 80 99.5 80T125 90q11-10 26-10t26 11.5q11 11.5 11 28T172 156q-11 15-31 31zm22-68q0 9-10 22t-28 27q-17-14-27-27t-10-22q-1-5 3-9.5t9.5-4.5q5.5 0 9 4.5t3.5 10q0 5.5 3.5 9t9 3.5q5.5 0 9-3.5t3-9q-.5-5.5 3.5-10t9.5-4.5q5.5 0 9 4.5t3.5 9.5z"/></svg>