<svg viewBox="0 0 300 316" xmlns="http://www.w3.org/2000/svg"><path d="M259 64q8 3 16 3 5-1 9-4.5t4-8.5q0-5-4-9t-10-4q-6 0-8.5-2.5T263 30q0-6-4-10t-9-4q-5 0-8.5 4t-4.5 9q0 9 4 18l-9 10q-31-24-70-27V16q0-5-3.5-8.5T150 4q-5 0-9 3.5t-4 8.5v14q-38 3-69 26l-9-9q4-9 3-18 1-5-3-9t-9-4q-5 0-8.5 4T38 30q0 6-3 8.5T26 41q-6 0-10 4t-4 9q0 5 4 9t9 4q8 0 16-3l8 9q-25 27-33 62t2 70q10 35 36 60.5t61 34.5q35 9 70 0t61-34.5q26-25.5 36-60.5t2-70q-8-35-33-62l8-9zM150 191q-8 1-15-4.5t-9-13.5q-2-8 1-16t11-12V91q0-5 3.5-8.5T150 79q5 0 9 3.5t4 8.5v54q7 4 10 12t1 16q-2 8-9 13.5t-15 4.5z"/></svg>