<svg viewBox="0 0 300 316" xmlns="http://www.w3.org/2000/svg"><path d="M150 4q-41 0-75.5 20T20 78.5Q0 113 0 154t20 75.5Q40 264 74.5 284t75.5 20q41 0 75.5-20t54.5-54.5q20-34.5 20-75.5t-20-75.5Q260 44 225.5 24T150 4zm-50 100q10 0 17.5 7.5T125 128q0 9-7 12-5 1-18 1t-18-1q-7-3-7-12t7.5-16.5Q90 104 100 104zm122 121q-4 4-9 4t-9-3q-23-20-54-22-31 2-54 22-4 3-9 3t-8.5-4q-3.5-4-3.5-9t4-9q31-26 71-28 40 2 71 28 4 4 4 9t-3 9zm-22-84q-13 0-18-1-7-3-7-12t7.5-16.5Q190 104 200 104t17.5 7.5Q225 119 225 128t-7 12q-5 1-18 1z"/></svg>