<svg viewBox="0 0 300 316" xmlns="http://www.w3.org/2000/svg"><path d="M288 304H50q-13 0-24.5-6.5T7 279.5Q0 268 0 255t6-25L126 11q2-5 7-6.5t9.5 1q4.5 2.5 6 7.5t-.5 9L28 242q-3 6-3 12.5t3.5 12.5q3.5 6 9.5 9t12 3h238q5 0 8.5 3.5t3.5 9q0 5.5-3.5 9T287 304h1zm-13-63q0-21-4-42-1-5-5.5-8t-9.5-2q-5 1-8 5.5t-2 9.5q4 18 4 37 0 5 3.5 9t9 4q5.5 0 9-4t3.5-9zm-25-72q5-2 6.5-7t-.5-10q-8-19-20-36-3-4-8-5t-9.5 2q-4.5 3-5.5 8t2 9q11 16 18 32 2 4 5 6t6 2q3 0 6-1zm-48-74q3-4 3-9.5t-4-8.5q-14-12-30-22-4-2-9-1t-7.5 5.5Q152 64 153 69t5 8q14 8 26 19 4 3 9 3t9-4z"/></svg>