<svg viewBox="0 0 300.0042 316" xmlns="http://www.w3.org/2000/svg"><path d="M35.002 204h230l-8 47q-3 23-20.5 38t-40.5 15h-92q-23 0-40.5-15t-20.5-38l-8-47zm234-88h-44q-5 0-8.5-3.5t-3.5-8.5q0-5 3.5-8.5t8.5-3.5h13q9-1 16.5-6.5t9.5-14.5q1-12-6.5-21t-18.5-9h-39q-4-13-10.5-20t-18.5-15q-6-4-12-1t-7 10q-1 7-5 15-3 5-6 9l-3 2h-74q-10 0-17.5 6t-8.5 15q-2 12 5.5 20.5t19.5 8.5h89q5 0 8.5 4t3.5 9q0 5-3.5 8.5t-8.5 3.5h-119q-12 1-22 9t-11 20.5q-1 12.5 8 23t23 10.5h236q12 0 22-8t11-21q1-13-8-23.5t-23-9.5v-1z"/></svg>