<svg viewBox="0 0 300 316" xmlns="http://www.w3.org/2000/svg"><path d="M225 154q-20 0-37.5 10T160 191.5Q150 209 150 229t10 37.5q10 17.5 27.5 27.5t37.5 10q20 0 37.5-10t27.5-27.5q10-17.5 10-37.5t-10-37.5Q280 174 262.5 164T225 154zm0 25q10 0 17.5 7.5T250 204q0 10-7.5 17.5T225 229q-10 0-17.5-7.5T200 204q0-10 7.5-17.5T225 179zm38 83q-8 8-17.5 12.5T225 279q-11 0-20.5-4.5T188 262v-2q-1-8 4.5-13t13.5-5h38q8 0 13.5 5t5.5 13v2zM0 104V91q0-16 8.5-30.5t23-23Q46 29 63 29h12V16q0-5 3.5-8.5t9-3.5q5.5 0 9 3.5T100 17v12h100V16q0-5 3.5-8.5t9-3.5q5.5 0 9 3.5T225 17v12h13q16 0 30.5 8.5t23 23Q300 75 300 92v12H0zm159 200H63q-17 0-31.5-8.5t-23-23Q0 258 0 241V129h225q-27 0-50 13.5T138.5 179Q125 202 125 229q0 22 9 41.5t25 33.5z"/></svg>