<svg viewBox="0 0 300 316" xmlns="http://www.w3.org/2000/svg"><path d="M125 241h-25v-28q-18-17-28-39t-9.5-46.5Q63 103 73.5 81T103 43q-8-1-15-2-23 1-42.5 11.5t-31 29Q3 100 1 122.5T8.5 165q9.5 20 27 33.5T75 215v26H50q-5 0-8.5 4t-3.5 9q0 5 3.5 8.5T50 266h25v25q0 6 3.5 9.5t9 3.5q5.5 0 9-3.5t3.5-8.5v-26h25q5 0 9-3.5t4-8.5q0-5-4-8.5t-9-3.5v-1zM275 4h-50q-5 0-8.5 3.5t-3.5 9q0 5.5 3.5 9T225 29h32l-30 30q-18-14-40-17t-43 5q-21 8-36 25t-19.5 38.5Q84 132 90 153.5t22.5 37.5q16.5 16 37.5 22.5t43 2q22-4.5 39-19.5t25-36q8-21 5-43t-17-40l30-30v32q0 5 3.5 8.5t9 3.5q5.5 0 9-3.5T300 79V29q0-10-7.5-17.5T275 4z"/></svg>