<svg viewBox="0 0 300 316" xmlns="http://www.w3.org/2000/svg"><path d="M244 91H83q-8 13-8 28v129q0 23 16.5 39.5T131 304h113q23 0 39.5-16.5T300 248V148q0-24-16.5-40.5T244 91zm-81 163q-1 5-4.5 8.5T150 267h-25q-5-1-8.5-4.5T113 254v-25q0-5 3.5-9t8.5-4h25q5 0 8.5 4t3.5 9v25h1zm0-88q0 6-4 9.5t-9 3.5h-25q-5 0-8.5-3.5T113 167v-26q0-5 3.5-8.5t8.5-3.5h25q5 0 8.5 3.5t3.5 9.5v24h1zm87 88h-50q-5 0-8.5-3.5t-3.5-9q0-5.5 3.5-9t8.5-3.5h50q5 0 9 3.5t4 9q0 5.5-4 9t-9 3.5zm0-88h-50q-5 0-8.5-3.5T188 154q0-5 3.5-8.5t8.5-3.5h50q5-1 9 3t4 9q0 5-4 8.5t-9 3.5zM238 66H118l106-53q14 11 14 28v25zM186 4L91 52Q72 62 61 80t-11 39v109q-22-5-36-22T0 166V66q0-16 8.5-30.5t23-23Q46 4 63 4h123z"/></svg>