<svg viewBox="0 0 300 316" xmlns="http://www.w3.org/2000/svg"><path d="M225 154q-20 0-37.5 10T160 191.5Q150 209 150 229t10 37.5q10 17.5 27.5 27.5t37.5 10q20 0 37.5-10t27.5-27.5q10-17.5 10-37.5t-10-37.5Q280 174 262.5 164T225 154zm30 93l-21 21q-4 4-9 4t-9-4q-4-4-4-9t4-9l9-9h-38q-5 0-8.5-3.5T175 229q0-5 3.5-8.5t8.5-3.5h38l-9-9q-4-4-4-9t4-9q4-4 9-4t9 4l21 21q7 8 7 18t-7 18zm-123 19H63q-17 0-31.5-8t-23-22.5Q0 221 0 204V66q0-16 8.5-30.5t23-23Q46 4 63 4v75q0 10 7 17.5t18 7.5h87q10 0 17.5-7.5T200 79V7q7 4 11 8l41 41q11 11 11 26v47q0 3-3 7-17-7-35-7-32 0-58 19-6-9-15.5-14t-20.5-5q-18 0-30.5 13T88 172q0 17 11 29.5t27 14.5q-1 8-1 13 0 19 7 37zm43-187H88V4h87v75zm-27 86q-10 12-16 26h-1q-8 0-13.5-5.5t-5.5-13q0-7.5 5.5-13T131 154q6 0 10.5 3t6.5 8z"/></svg>