<svg viewBox="0 0 300 316" xmlns="http://www.w3.org/2000/svg"><path d="M138 54q-6 0-9.5-3.5t-3.5-9q0-5.5 4-8.5l12-13q4-3 9-3t8.5 3.5Q162 24 162 29t-3 9l-13 12q-3 4-9 4h1zm-67-4q4-3 4-8.5T71 33L59 20q-4-3-9-3t-8.5 3.5Q38 24 38 29t3 9l13 12q3 4 8.5 4t9.5-4h-1zm42-21V16q0-5-4-8.5T100 4q-5 0-8.5 3.5T88 16v13q0 5 3.5 8.5T100 41q5 0 9-3.5t4-8.5zm187 75q0-10-7.5-17.5T275 79q-10 0-17.5 7.5T250 104v106q0 20-7.5 38T221 279l-3 2q-4 3-5.5 8t1.5 10q3 5 11 5 3 0 6-2 9-5 17-13l31-37q19-22 21-52v1-97zm-75 0q0-10-7.5-17.5T200 79q-10 0-17.5 7.5T175 104v23l-55-55q-6-6-14-6t-13.5 5.5Q87 77 87 85t6 13l43 43q1 2 1 5t-2.5 5q-2.5 2-5.5 2t-5-2L57 84q-6-5-13.5-5t-13 5.5Q25 90 25 97.5t6 13.5l67 67q2 3 1.5 5.5T97 188q-2 2-5 2.5t-5-1.5l-55-55q-6-5-13.5-5t-13 5.5Q0 140 0 147.5T6 161l54 54q2 2 2 5t-2.5 5.5q-2.5 2.5-5 2.5t-4.5-1l-18-18q-5-5-13-5t-13.5 5.5Q0 215 0 222.5T6 236l36 36q16 16 36 24t41 8q21 0 41-8t35-23q15-15 22.5-33.5T225 201v-97z"/></svg>