<svg viewBox="0 0 300 316" xmlns="http://www.w3.org/2000/svg"><path d="M194 129q-17 0-32-10-4 5-12 8v14q0 6-3.5 9.5T137 154h-12q-5 0-8.5-3.5T113 142v-15q-7 2-13 2-16 0-27-11T62 92V16q1-6 3-12H49Q37 5 25.5 14T7 36.5Q0 50 0 65v176q0 17 8.5 31.5t23 23Q46 304 63 304h75q16 0 30.5-8.5t23-23Q200 258 200 241V128l-6 1zM75 254H63q-6 0-9.5-3.5t-3.5-9q0-5.5 3.5-9T62 229h13q5 0 9 3.5t3.5 9q-.5 5.5-4 9T75 254zm0-50H63q-6 0-9.5-3.5t-3.5-9q0-5.5 3.5-9T62 179h13q5 0 9 3.5t3.5 9q-.5 5.5-4 9T75 204zm0-50H63q-6 0-9.5-3.5t-3.5-9q0-5.5 3.5-9T62 129h13q5 0 9 3.5t3.5 9q-.5 5.5-4 9T75 154zm63 100h-13q-5 0-8.5-3.5t-4-9q-.5-5.5 3.5-9t9-3.5h13q5 0 8.5 3.5t3.5 9q0 5.5-3.5 9T137 254h1zm0-50h-13q-5 0-8.5-3.5t-4-9q-.5-5.5 3.5-9t9-3.5h13q5 0 8.5 3.5t3.5 9q0 5.5-3.5 9T137 204h1zM269 4q-13 0-22.5 9T237 35v38q1 13 10 22t22 9q13 0 22-9t9-22V35q0-13-9-22t-22-9zm11 69q0 4-3.5 7.5t-8 3.5q-4.5 0-8-3.5T257 73V35q0-4 3.5-7.5t8-3.5q4.5 0 8 3.5T280 35v38zm-86-16q0 4 2.5 6.5T203 66h2v6q0 5-3 8.5t-7.5 3.5q-4.5 0-8.5-3t-4-8V36q1-4 3.5-7.5t7-4.5q4.5-1 8 2t6.5 3h1q7 0 9.5-6.5T214 12q-9-8-21-8t-21.5 9.5Q162 23 163 36v36q0 13 9 22.5t22 9.5q13 0 22-9t9-22V57q0-4-2.5-6.5T216 48h-13q-4 0-6.5 2.5T194 57zm-64-43v41l-19-44q-2-3-5-5t-6-2q-5 0-8.5 3.5T88 16v78q0 4 2.5 7t6.5 3h1q4 0 6.5-3t2.5-7V53l20 44q1 3 4 5t7 2q5 0 8.5-3.5T150 92V14q0-4-3-7t-7-3q-4 0-7 3t-3 7z"/></svg>