<svg viewBox="0 0 300 316" xmlns="http://www.w3.org/2000/svg"><path d="M300 154q0 27-13.5 50T250 240.5Q227 254 200 254H38l28 29q4 3 4 8.5t-3.5 9q-3.5 3.5-9 3.5t-9.5-4L7 259q-7-7-7-17.5T7 224l41-41q4-4 9-4t9 3.5q4 3.5 4 9t-4 8.5l-28 29h162q20 0 37.5-10t27.5-27.5q10-17.5 10-37.5 0-5 3.5-9t9-4q5.5 0 9 4t3.5 9zM13 166q5 0 8.5-3.5T25 154q0-20 10-37.5T62.5 89Q80 79 100 79h163l-29 29q-4 3-4 8.5t4 9q4 3.5 9 3.5t9-4l41-41q7-7 7-17.5T293 49L252 8q-4-4-9-4t-9 3.5q-4 3.5-4 9t4 8.5l29 29H100q-27 0-50 13.5T13.5 104Q0 127 0 154q0 5 3.5 9t9.5 4v-1z"/></svg>