<svg viewBox="0 0 300 316" xmlns="http://www.w3.org/2000/svg"><path d="M263 204h-75q-6 0-9.5-3.5t-3.5-9q0-5.5 3.5-9t9.5-3.5h75q5 0 8.5-3.5t3.5-9q0-5.5-3.5-9T263 154h-75q-6 0-9.5-3.5t-3.5-9q0-5.5 3.5-9t9.5-3.5h75q14 0 24.5 9.5T300 162v-8q0-41-20-75.5T225.5 24Q191 4 150 4T74.5 24Q40 44 20 78.5T0 154q0 41 20 75.5T74.5 284q34.5 20 75.5 20 37 0 68.5-16.5t52.5-45q21-28.5 27-63.5-4 11-13.5 18t-21.5 7zM194 79q8 0 13.5 5.5t5 13.5q-.5 8-5.5 13.5t-13 5.5q-8 0-13.5-5.5T175 98q0-8 5.5-13.5T194 79zm-88 0q8 0 13.5 5.5T125 98q0 8-5.5 13.5T106 117q-8 0-13.5-5.5t-5-13.5q.5-8 5.5-13.5t13-5.5zm34 125q-15 2-31 12-8 5-13 10-4 3-9 3t-8.5-4q-3.5-4-3.5-9t4-9q7-6 17-12 20-12 39-16 5-1 9.5 2t5.5 8q1 5-2 9.5t-8 5.5z"/></svg>