<svg viewBox="0 0 300 316" xmlns="http://www.w3.org/2000/svg"><path d="M300 60q0 5-3.5 9t-9 4q-5.5 0-9-4t-3.5-9q0-14-10.5-23T240 29q-5 0-8.5-3.5t-3.5-9q0-5.5 3.5-9T240 4q12 0 22.5 4t19 12q8.5 8 13.5 18.5t5 21.5zM25 60q0-14 10.5-23T60 29q5 0 8.5-3.5t3.5-9q0-5.5-3.5-9T60 4Q48 4 37.5 8t-19 12Q10 28 5 38.5T0 60q0 5 3.5 9t9 4q5.5 0 9-4t3.5-9zm229 196q25-29 31.5-67t-8-74Q263 79 232 56t-70-26V16q0-5-3.5-8.5T150 4q-5 0-9 3.5t-4 8.5v14q-38 3-69 26t-45.5 59q-14.5 36-8 74T46 256q-10 5-15.5 14.5T25 292q0 5 3.5 8.5t9 3.5q5.5 0 9-3.5T50 291q0-6 4-10t10-5l2-1q25 19 54.5 25.5t59 0Q209 294 234 275l2 1q6 1 10 5t4 10q0 6 3.5 9.5t9 3.5q5.5 0 9-3.5t3.5-8.5q0-12-5.5-21.5T254 256zm-58-56q-3 4-8.5 4t-8.5-4l-38-37q-3-4-3-9V91q0-5 3.5-8.5T150 79q5 0 9 3.5t4 8.5v58l33 34q4 3 4 8.5t-4 8.5z"/></svg>