<svg viewBox="0 0 300 316" xmlns="http://www.w3.org/2000/svg"><path d="M287 228q-3 21-15.5 38.5t-31 27.5Q222 304 200 304H100q-21 0-40-9.5T29 268q-12-17-15-38l3 1q27 4 49 23 14 13 34 13t34-12.5q14-12.5 31-19t35-6.5h75q6 0 12-1zM0 180q0 10 6 17t15 9q35 6 61 29 8 6 18 6t18-6q17-15 38-23t44-8h75q10 0 17.5-7.5T300 179q0-10-7.5-17.5T275 154H26q-11 0-18.5 7.5T0 180zm288-51v2q-7-2-13-2H26q-7 0-14 2v-2q1-34 17.5-62.5T75 21q29-17 63-17h25q33 0 62 17t45.5 45.5Q287 95 287 129h1zM88 91q0-5-4-8.5T75 79q-5 0-8.5 3.5t-3.5 9q0 5.5 3.5 9T75 104q5 0 8.5-3.5T87 92l1-1zm37-37q0-5-3.5-9t-9-4q-5.5 0-9 4t-3.5 9q0 5 3.5 9t9 4q5.5 0 9-4t3.5-9z"/></svg>