<svg viewBox="0 0 300 316" xmlns="http://www.w3.org/2000/svg"><path d="M13 304q-6 0-9.5-3.5T0 291V16q0-5 3.5-8.5t9-3.5q5.5 0 9 3.5T25 16v275q0 6-3.5 9.5T13 304zM300 23q0-8-5.5-13.5T281 4q-8 0-13 5.5T263 23q0 8 5 13t13 5q8 0 13.5-5t5.5-13zm-62 0q0-8-5.5-13.5T219 4q-8 0-13.5 5.5T200 23q0 8 5.5 13t13.5 5q8 0 13.5-5t5.5-13zm0 262q0-8-5.5-13.5T219 266q-8 0-13.5 5.5T200 285q0 8 5.5 13.5T219 304q8 0 13.5-5.5T238 285zM100 23q0-8-5.5-13.5T81 4q-8 0-13 5.5T63 23q0 8 5 13t13 5q8 0 13.5-5t5.5-13zm0 262q0-8-5.5-13.5T81 266q-8 0-13 5.5T63 285q0 8 5 13.5t13 5.5q8 0 13.5-5.5T100 285zm200 0q0-8-5.5-13.5T281 266q-8 0-13 5.5t-5 13.5q0 8 5 13.5t13 5.5q8 0 13.5-5.5T300 285zm0-62q0-8-5.5-13.5T281 204q-8 0-13 5.5t-5 13.5q0 8 5 13t13 5q8 0 13.5-5t5.5-13zm0-69q0-8-5.5-13.5T281 135q-8 0-13 5.5t-5 13.5q0 8 5 13.5t13 5.5q8 0 13.5-5.5T300 154zm0-69q0-8-5.5-13.5T281 66q-8 0-13 5.5T263 85q0 8 5 13.5t13 5.5q8 0 13.5-5.5T300 85zM169 23q0-8-5.5-13.5T150 4q-8 0-13.5 5.5T131 23q0 8 5.5 13t13.5 5q8 0 13.5-5t5.5-13zm0 262q0-8-5.5-13.5T150 266q-8 0-13.5 5.5T131 285q0 8 5.5 13.5T150 304q8 0 13.5-5.5T169 285zm0-62q0-8-5.5-13.5T150 204q-8 0-13.5 5.5T131 223q0 8 5.5 13t13.5 5q8 0 13.5-5t5.5-13zm0-69q0-8-5.5-13.5T150 135q-8 0-13.5 5.5T131 154q0 8 5.5 13.5T150 173q8 0 13.5-5.5T169 154zm0-69q0-8-5.5-13.5T150 66q-8 0-13.5 5.5T131 85q0 8 5.5 13.5T150 104q8 0 13.5-5.5T169 85zm-88 88q8 0 13.5-5.5T100 154q0-8-5.5-13.5T81 135q-8 0-13 5.5T63 154q0 8 5 13.5t13 5.5zm138 0q8 0 13.5-5.5T238 154q0-8-5.5-13.5T219 135q-8 0-13.5 5.5T200 154q0 8 5.5 13.5T219 173z"/></svg>