<svg viewBox="0 0 300 316" xmlns="http://www.w3.org/2000/svg"><path d="M206 302q-24-9-40-34.5T150 209q0-24 9-44.5t23.5-34Q197 117 216 114q7 10 10 27 4 29-12 63-14 29-15 58 0 21 7 40zm39-185q7 18 7 39-1 29-15 59-17 33-12 62 3 17 10 27 18-3 33-16.5t23.5-34Q300 233 300 209q0-33-15.5-58.5T245 117zM92 102q-34 12-52 35-11 14-14 28 17 13 41 13 6 0 12-1 17-2 33-10.5t30-22.5q23-23 30.5-52.5T168 38q-8 19-24 34-21 19-52 30zm-8-23q34-12 52-35 11-14 14-28Q128-1 97 4 80 6 63.5 14.5T34 37Q10 60 3 89.5T7 142q9-18 24-33 21-20 53-30z"/></svg>