<svg viewBox="0 0 300 316" xmlns="http://www.w3.org/2000/svg"><path d="M271 184q3-6 4-12 2-16-7.5-28t-25-14.5Q227 127 215 136q-9 7-15 17-6-10-15-17-12-9-27.5-6.5t-25 14.5q-9.5 12-7.5 28 1 6 4 12-13 6-21 18t-8 27v25q0 21 14.5 35.5T150 304h38v-88q0-5 3.5-8.5t8.5-3.5q5 0 8.5 3.5t3.5 9.5v87h38q21 0 35.5-14.5T300 254v-25q0-15-8-27t-21-18zm-112-5q-2-1-4-3-4-3-5-8t2.5-9q3.5-4 8.5-5t9 2q10 8 15 23h-26zm91-11q-1 5-5 9l-4 2h-26q5-15 15-23 4-3 9-2t8.5 5q3.5 4 2.5 9zM75 229v25q0 29 19 50H63q-17 0-31.5-8.5t-23-23Q0 258 0 241V116q0-16 8.5-30.5t23-23Q46 54 63 54h7L54 38q-4-4-4-9t3.5-9q3.5-4 9-4t8.5 4l17 16V16q0-5 3.5-8.5T100 4q5 0 9 3.5t4 8.5v20l16-16q3-4 8.5-4t9 4q3.5 4 3.5 9t-4 9l-16 16h8q17 0 31 8.5T191.5 85q8.5 14 8.5 31-21-15-46.5-11.5t-40.5 24Q98 149 100 173q-12 10-18.5 25T75 229z"/></svg>