<svg viewBox="0 0 300 316" xmlns="http://www.w3.org/2000/svg"><path d="M50 254q-21 0-35.5-14.5T0 204V54q0-21 14.5-35.5T50 4q21 0 35.5 14.5T100 54v150q0 21-14.5 35.5T50 254zM238 29H121q4 12 4 25v150q0 20-10 37.5T87.5 269Q70 279 50 279q-26 0-46-16 7 18 23 29.5T63 304h175q16 0 30.5-8.5t23-23Q300 258 300 241V91q0-16-8.5-30.5t-23-23Q254 29 237 29h1zm-75 225q-6 0-9.5-3.5t-3.5-9q0-5.5 3.5-9t9-3.5q5.5 0 9 3.5t3.5 9q0 5.5-3.5 9T162 254h1zm0-50q-6 0-9.5-3.5t-3.5-9q0-5.5 3.5-9t9-3.5q5.5 0 9 3.5t3.5 9q0 5.5-3.5 9T162 204h1zm0-50q-6 0-9.5-3.5t-3.5-9q0-5.5 3.5-9t9-3.5q5.5 0 9 3.5t3.5 9q0 5.5-3.5 9T162 154h1zm50 100q-6 0-9.5-3.5t-3.5-9q0-5.5 3.5-9t9-3.5q5.5 0 9 3.5t3.5 9q0 5.5-3.5 9T212 254h1zm0-50q-6 0-9.5-3.5t-3.5-9q0-5.5 3.5-9t9-3.5q5.5 0 9 3.5t3.5 9q0 5.5-3.5 9T212 204h1zm0-50q-6 0-9.5-3.5t-3.5-9q0-5.5 3.5-9t9-3.5q5.5 0 9 3.5t3.5 9q0 5.5-3.5 9T212 154h1zm50 100q-6 0-9.5-3.5t-3.5-9q0-5.5 3.5-9t9-3.5q5.5 0 9 3.5t3.5 9q0 5.5-3.5 9T262 254h1zm0-50q-6 0-9.5-3.5t-3.5-9q0-5.5 3.5-9t9-3.5q5.5 0 9 3.5t3.5 9q0 5.5-3.5 9T262 204h1zm0-50q-6 0-9.5-3.5t-3.5-9q0-5.5 3.5-9t9-3.5q5.5 0 9 3.5t3.5 9q0 5.5-3.5 9T262 154h1zm-63-63q-5 0-8.5-3.5T188 79V54h50q15 0 26 11t11 26h-75z"/></svg>