<svg viewBox="0 0 300 316" xmlns="http://www.w3.org/2000/svg"><path d="M207 189q-5 1-8.5-.5T194 185q-8-21-27-33t-41.5-10.5Q103 143 85.5 158T63 194q-4 16-1 31-12 5-18.5 16T38 265.5q1 13.5 9 23.5t21 13q5 2 9 2h116q6 0 12-2 16-4 28-15.5t16-27.5q5-23-7-43.5T207 189zM14 233q-5 0-8-2.5T1 224q-4-15 3-29t21-20q-3-15 .5-30.5t13-27.5Q48 105 62 98.5t29-7q15-.5 29 5.5 6 3 8 8t-1.5 9q-3.5 4-10.5 4-28 4-49.5 23.5T39 189q-3 12-3 24-7 4-11 11-5 9-11 9zm274-117h-33v-3l-4-14 27-16q7-4 7-11.5t-6.5-11Q272 57 266 61l-28 17q-6-7-12-12l16-28q4-6 .5-12.5t-11-6.5q-7.5 0-11.5 6l-16 29q-8-4-17-5V16q0-5-3.5-8.5T175 4q-5 0-9 3.5t-4 8.5l1 33q-9 1-17 4l-17-28q-3-4-8-5t-9.5 1.5Q107 24 106 29t1 10l23 35q13 6 19 18.5t2 26.5q20 5 36 16.5t26 29.5q21 6 37 21l16 10q5 3 10 1.5t7.5-6q2.5-4.5 1-9.5t-5.5-8l-29-16q3-8 4-16h34q5 0 8.5-4t3.5-9q0-5-3.5-9t-8.5-4z"/></svg>