<svg viewBox="0 0 300 316" xmlns="http://www.w3.org/2000/svg"><path d="M50 191v88q0 5-3.5 8.5t-9 3.5q-5.5 0-9-3.5T25 279v-88q0-5 3.5-8.5t9-3.5q5.5 0 9 3.5T50 191zm175-12q-5 0-8.5 3.5T213 191v88q0 5 3.5 9t8.5 3.5q5-.5 8.5-4t3.5-8.5v-88q0-5-3.5-8.5T225 179zm-100 0q-5 0-8.5 3.5T113 191v88q0 5 3.5 9t8.5 3.5q5-.5 8.5-4t3.5-8.5v-88q1-5-3-8.5t-9-3.5zm-44 0q-8 0-13.5 5.5T62 198v75q1 8 6 13t13 5q8 0 13.5-5t5.5-13v-75q0-8-5.5-13.5T81 179zm100 0q-8 0-13 5.5t-5 13.5v75q-1 8 4.5 13t13.5 5q8 0 13.5-5t5.5-13v-75q0-8-5.5-13.5T181 179zm82 0q-6 0-9.5 3.5T250 191v88q0 5 3.5 9t9 4q5.5 0 9-4t3.5-9v-88q0-5-3.5-8.5T262 179h1zm25-50h-13V29q0-5-3.5-9t-9-4q-5.5 0-9 4t-3.5 9v100h-12V29q0-5-4-9t-9-4q-5 0-8.5 4t-3.5 9v100h-13V35q0-8-5.5-13T181 16.5q-8-.5-13 5T163 35v94h-25V29q0-5-4-9t-9-4q-5 0-8.5 4t-3.5 9v100h-13V35q0-8-5.5-13T81 16.5q-8-.5-13.5 5T62 35v94H50V29q0-5-3.5-9t-9-4q-5.5 0-9 4T25 29v100H13q-6 0-9.5 3.5t-3.5 9q0 5.5 3.5 9T13 154h275q5 0 8.5-3.5t3.5-9q0-5.5-3.5-9T287 129h1z"/></svg>