<svg viewBox="0 0 300 316" xmlns="http://www.w3.org/2000/svg"><path d="M150 4q-42 0-76 20-32 19-51 51T1 144.5Q-2 182 13 215q16 37 49 61v-85q1-5 4.5-8.5T75 179q5 0 8.5 3.5T87 192v98q30 14 63 14t62-14v-99q1-5 4.5-8.5t8.5-3.5q5 0 9 3.5t4 9.5v84q33-25 49-61 15-33 12-70.5T277 75q-19-32-51-51-34-20-76-20zm-37 137q0-9-5-16.5t-8-8q-3-.5-7.5 7.5T88 141q0 6-4 9.5t-9 3.5q-5 0-8.5-3.5T63 142q-1-19 10-35t27-16q16 0 27 16t11 35q0 5-4 8.5t-9 3.5q-5 0-8.5-3.5T113 142v-1zm37 113q-12 0-18.5-11t-6.5-26.5q0-15.5 6.5-26.5t18.5-11q12 0 18.5 11t6.5 26.5q0 15.5-6.5 26.5T150 254zm75-100q-5 0-9-3.5t-4-8.5q1-10-4-17.5t-8-8q-3-.5-8 7.5t-5 17q1 6-3 9.5t-9 3.5q-5 0-9-3.5t-4-8.5q1-19 11.5-34.5t26.5-16q16-.5 27 15.5t11 35q0 5-4 8.5t-9 3.5z"/></svg>