<svg viewBox="0 0 300 316" xmlns="http://www.w3.org/2000/svg"><path d="M273 31q-13-13-30-20t-35.5-7Q189 4 172 11t-30 20L27 146Q9 164 3 188t0 48q6 24 23.5 41.5T68 301q24 6 48 0t42-24l115-115q13-13 20-30t7-35.5q0-18.5-7-35.5t-20-30zM159 213l-38 37q-3 4-8.5 4t-9-3.5q-3.5-3.5-3.5-9t4-8.5l10-10-33-33-10 10q-3 4-8.5 4t-9-3.5q-3.5-3.5-3.5-9t4-8.5l37-38q4-3 9-3t8.5 3.5q3.5 3.5 3.5 8.5t-3 9l-10 10 32 32 10-10q4-3 9-3t8.5 3.5q3.5 3.5 3.5 8.5t-3 9zm87-88l-37 38q-4 3-9 3t-8.5-3.5Q188 159 188 154t3-9l10-10-32-32-10 10q-4 3-9 3t-8.5-3.5Q138 109 138 104t3-9l38-37q5-6 12-4t9 9q2 7-4 12l-10 10 33 33 10-10q3-4 8.5-4t9 3.5q3.5 3.5 3.5 9t-4 8.5z"/></svg>