<svg viewBox="0 0 300 316" xmlns="http://www.w3.org/2000/svg"><path d="M138 204h25v7q-1 11-7 15.5t-12 0q-6-4.5-7-14.5l1-8zm162-50q0 41-20 75.5T225.5 284Q191 304 150 304q-57-2-95-33-35-29-47.5-73t0-88Q20 66 55 37 93 6 150 4q41 0 75.5 20T280 78.5q20 34.5 20 75.5zm-212 0q3 0 6-2l38-25q5-4 5-10.5t-5-10.5L94 81q-4-3-9-2t-8 5.5Q74 89 75 94t6 8l22 14-22 15q-4 2-5.5 6t0 8q1.5 4 4.5 6.5t8 2.5zm125 37q0-5-4-8.5t-9-3.5H100q-5 0-8.5 3.5t-3.5 9q0 5.5 3.5 9t8.5 3.5h13v7q0 20 11 31.5t26 11.5q15 0 26-11.5t12-30.5v-8h12q5 0 9-3.5t4-9.5zm-15-75l21-14q5-3 6-8t-2-9.5q-3-4.5-8-5.5t-9 2l-38 25q-5 4-5 10.5t5 10.5l38 25q4 3 9 2t8-5.5q3-4.5 2-9.5t-6-8l-21-15z"/></svg>