<svg viewBox="0 0 300 316" xmlns="http://www.w3.org/2000/svg"><path d="M119 35q0-13 9-22t22-9q13 0 22 9t9 22q0 13-9 22.5t-22 9q-13-.5-22-9.5t-9-22zm131 256q0 6-3.5 9.5T238 304H63q-6 0-9.5-3.5t-3.5-9q0-5.5 3.5-9T63 279h50V124l-40 62q-3 4-8 5t-9.5-1.5Q51 187 50 182t2-10l41-64q9-14 23-21.5t30-7.5h8q16 0 30 7.5t23 21.5l41 64q3 5 2 10t-5 7.5q-4 2.5-7 1.5-7 0-11-5l-40-62v155h50q6 0 9.5 3.5t3.5 8.5zm-87-87h-25v75h25v-75zM290 35l-17-4-5-18q-1-4-4-6.5T256.5 4q-4.5 0-8 2.5T244 13l-4 18-18 5q-4 1-6.5 4t-2.5 7.5q0 4.5 2.5 8T222 60l18 4 4 18q1 4 4.5 6.5t8 2.5q4.5 0 7.5-2.5t4-6.5l5-18 18-5q4-1 6.5-4.5T300 47q0-4-3-7.5t-7-4.5zM69 75q6-3 6-9t-6-9l-16-6-7-16q-2-6-8.5-6T29 35l-7 16-16 7q-6 2-6 8.5T6 75l16 7 7 16q2 6 8.5 6t8.5-6l7-16 16-7z"/></svg>