<svg viewBox="0 0 300 316" xmlns="http://www.w3.org/2000/svg"><path d="M300 91v13H0V91q0-16 8.5-30.5t23-23Q46 29 63 29h12V16q0-5 3.5-8.5T87 4h1q5 0 8.5 3.5T100 17v12h100V16q0-5 3.5-8.5T213 4q5 0 8.5 3.5T225 17v12h13q16 0 30.5 8.5t23 23Q300 75 300 91zm0 125q0 24-12 44t-32 32q-20 12-43.5 12T169 292q-20-12-32-32t-12-43.5q0-23.5 12-43.5t32-32q20-12 43.5-12t43.5 12q20 12 32 32t12 43zm-62 8l-13-13v-20q0-5-3.5-8.5T212 179h1q-6 0-9.5 3.5T200 191v25q0 6 4 9l16 16q3 4 8.5 4t8.5-4h1q3-3 3-8.5t-3-8.5zm-138-8q0-26 11-48.5t31-38.5H0v112q0 17 8.5 31.5t23 23Q46 304 63 304h79q-20-16-31-38.5T100 216z"/></svg>