<svg viewBox="0 0 300 316" xmlns="http://www.w3.org/2000/svg"><path d="M258 79q-7-5-19-6 12-2 19-7 10-7 17-26 1-4-1.5-7.5T267 29q-20 0-31 7-9 6-15 20-7-23-26.5-37.5T150 4q-20 0-37.5 10T85 41.5Q75 59 75 79t10 37.5Q95 134 112.5 144t37.5 10q27 0 47.5-17T223 94q6 10 13 15 11 8 31 7 4 0 6.5-3t1.5-7q-7-19-17-27zm-83 12h-50q-8 1-13.5-4.5T106 73q0-8 5.5-13.5T125 54h50q8 0 13.5 5.5T194 73q0 8-5.5 13.5T175 92v-1zm-25 174q-25-35-46-75 22-11 46-11t45 11q-18 38-45 75zm88 39h-57q-8-9-15-18 30-40 50-82 16 14 25 33.5t9 41.5v12q0 6-3.5 9.5T237 304h1zM84 204q28 55 64 100H62q-5 0-8.5-3.5T50 291v-12q0-22 9-41.5T84 204z"/></svg>