<svg viewBox="0 0 300 316" xmlns="http://www.w3.org/2000/svg"><path d="M150 4q-41 0-75.5 20T20 78.5Q0 113 0 154t20 75.5Q40 264 74.5 284t75.5 20q41 0 75.5-20t54.5-54.5q20-34.5 20-75.5t-20-75.5Q260 44 225.5 24T150 4zM88 191q0 6-4 9.5t-9 3.5q-5 0-9-3.5t-3-8.5v-76q0-5 3.5-8.5T75 104q5 0 9 3.5t4 9.5v74zm50 38q0 5-4 9t-9 4q-5 0-8.5-4t-4.5-9V79q0-5 4-8.5t9-3.5q5 0 9 3.5t4 8.5v150zm50-25q0 5-4 8.5t-9 4q-5 .5-9-3.5t-4-9V104q1-5 4.5-9t8.5-3.5q5 .5 9 4t4 8.5v100zm50-25q0 5-4 8.5t-9 4q-5 .5-9-3.5t-4-9v-38q1-5 4.5-8.5t8.5-3.5q5 0 9 3.5t4 9.5v37z"/></svg>