<svg viewBox="0 0 300 316" xmlns="http://www.w3.org/2000/svg"><path d="M300 287q-2 7-8 12t-14 5H138q-16 0-27-11t-11-27v-25h144q18-3 31-22v17q0 12 1 17 2 8 9.5 11t11.5 9q4 6 3 14zM198 4q-9 15-15 38t-7 49h-13q-6 1-9.5 4.5T150 104q0 5 3.5 8.5t8.5 3.5h13q1 30 6.5 56.5T198 216H63q-17 0-31-12.5t-22.5-35Q1 146 0 117h13q5-1 8.5-4.5T25 104q0-5-3.5-8.5T13 92H1q4-40 21-64T63 4h135zM75 104q0-5-3.5-8.5T62 92h-6q-5-1-8.5 3t-3.5 9q0 5 3.5 8.5T56 116h7q5 1 8.5-3t3.5-9zm56 0q0-5-3.5-8.5T119 92h-6q-6 0-9.5 3.5T100 104q0 5 3.5 8.5t9.5 3.5h6q5 1 8.5-3t3.5-9zm144 6q0 29-5 53.5T256.5 202q-8.5 14-19 14t-19-14q-8.5-14-13.5-38.5t-5-53.5q0-29 5-53t13.5-38.5Q227 4 237.5 4t19 14.5Q265 33 270 57t5 53zm-25 0q0-10-3.5-17.5t-9-7.5q-5.5 0-9 7.5t-3.5 18q0 10.5 3.5 17.5t9 7q5.5 0 9-7t3.5-18z"/></svg>