<svg viewBox="0 0 300 316" xmlns="http://www.w3.org/2000/svg"><path d="M150 304q-10 0-18-7l-34-34q-3-4-3-9t3.5-9q3.5-4 8.5-4t9 4l34 34 32-32q4-4 9-4t9 3.5q4 3.5 4 9t-4 8.5l-32 33q-8 7-18 7zm150-200v50q0 17-8.5 31.5t-23 22.5q-14.5 8-30.5 8H63q-17 0-31.5-8t-23-22.5Q0 171 0 154v-50q0-17 8.5-31.5t23-23Q46 41 63 42h175q16-1 30.5 7.5t23 23Q300 87 300 104zm-187 0q-1 5 3 8.5t9 3.5h13q5 1 8.5-3t3.5-9q0-5-3.5-9t-8.5-3h-13q-5 0-9 3.5t-4 8.5h1zm-38 50q0-5-3.5-8.5t-9-4q-5.5-.5-9 3.5t-3.5 9q0 5 3.5 8.5t9 3.5q5.5 0 9-3.5T75 154zm13-50q0-5-4-8.5T75 92H63q-6-1-9.5 3t-3.5 9q0 5 3.5 8.5T63 116h12q5 1 9-3t4-9zm112 50q0-5-3.5-8.5T188 142h-75q-6-1-9.5 3t-3.5 9q0 5 3.5 8.5t9.5 3.5h75q5 0 8.5-3.5t3.5-8.5zm50 0q0-5-3.5-9t-9-4q-5.5 0-9 4t-3.5 9q0 5 3.5 8.5t9 3.5q5.5 0 9-3.5t3.5-8.5zm0-50q0-5-3.5-9t-8.5-3h-50q-6 0-9.5 3.5T175 104q0 5 3.5 8.5t8.5 3.5h51q5 1 8.5-3t3.5-9z"/></svg>