<svg viewBox="0 0 300 316" xmlns="http://www.w3.org/2000/svg"><path d="M150 216q-17 0-31.5-8T96 185.5Q88 171 88 154t8-31.5q8-14.5 22.5-23T150 91q17 0 31.5 8.5t23 23Q213 137 213 154t-8.5 31.5q-8.5 14.5-23 22.5t-31.5 8zm0-162q8 0 13.5-5.5T169 35q0-8-5.5-13.5T150 16q-8 0-13.5 5.5T131 35q0 8 5.5 13.5T150 54zm0 237q8 0 13.5-5t5.5-13q0-8-5.5-13.5T150 254q-8 0-13.5 5.5T131 273q0 8 5.5 13t13.5 5zM50 154q0-8-5.5-13.5T31 135q-8 0-13 5.5T13 154q0 8 5 13.5t13 5.5q8 0 13.5-5.5T50 154zm238 0q0-8-5.5-13.5T269 135q-8 0-13.5 5.5T250 154q0 8 5.5 13.5T269 173q8 0 13.5-5.5T288 154zm-57-63q8 0 13.5-5t5.5-13q0-8-5.5-13.5T231 54q-8 0-13 5.5T213 73q0 8 5 13t13 5zM69 254q8 0 13.5-5.5T88 235q0-8-5.5-13.5T69 216q-8 0-13.5 5.5T50 235q0 8 5.5 13.5T69 254zm0-163q8 0 13.5-5T88 73q0-8-5.5-13.5T69 54q-8 0-13.5 5.5T50 73q0 8 5.5 13T69 91zm181 144q0-8-5.5-13.5T231 216q-8 0-13 5.5t-5 13.5q0 8 5 13.5t13 5.5q8 0 13.5-5.5T250 235z"/></svg>