<svg viewBox="0 0 300 316" xmlns="http://www.w3.org/2000/svg"><path d="M200 166h88q5 0 8.5 4t3.5 9q0 5-3.5 8.5T287 191h-62v25h63q5 0 8.5 4t3.5 9q0 5-3.5 8.5T287 241h-62v25h70q-8 17-23.5 27.5T238 304h-25q-6 0-9.5-3.5T200 291V166zM0 191h75v25H0v25h75v26H5q8 16 23.5 26.5T63 304h25q5 0 8.5-3.5t3.5-9.5V166H0v25zm300-65v6q-1 4-4 6.5t-8 2.5H13q-6 0-9-2.5T0 132v-6q0-16 7.5-30T28 74l87-59q16-11 35-11t35 11l65 44V29q0-5 3.5-9t9-4q5.5 0 9 4t3.5 9v47q12 8 18.5 21.5T300 126zM169 85q0-8-5.5-13.5T150 66q-8 0-13.5 5.5T131 85q0 8 5.5 13.5T150 104q8 0 13.5-5.5T169 85z"/></svg>