<svg viewBox="0 0 300 316" xmlns="http://www.w3.org/2000/svg"><path d="M290 19l-5-5q-8-8-19.5-9.5T244 9q-14 7-26 9-10 1-18 7l80 80q5-9 6-18 2-13 10-26 5-10 3.5-22T290 19zM13 210Q0 224 0 243t13 32l17 16q13 13 32 13t32-13l168-168-80-81L13 210zm81 18q-7 0-12.5-5.5t-5.5-13q0-7.5 5.5-13t13-5.5q7.5 0 13 5.5t5.5 13q0 7.5-5.5 13T94 228zm44-43q-8 0-13.5-5.5T119 166q0-8 5.5-13.5T138 147q8 0 13.5 5.5T157 166q0 8-5.5 13.5T138 185zm62-62q0 8-5.5 13.5t-13.5 5q-8-.5-13-5.5t-5-13q0-8 5-13.5t13-5.5q8 0 13.5 5.5T200 123z"/></svg>