<svg viewBox="0 0 300 316" xmlns="http://www.w3.org/2000/svg"><path d="M300 229v25q0 21-14.5 35.5T250 304H50q-21 0-35.5-14.5T0 254v-25q0-21 14.5-35.5T50 179h88v-50h-19q-6 0-8.5-6t2.5-11l30-30q3-3 7-3t7 3l31 30q4 5 1.5 11t-8.5 6h-19v50h88q21 0 35.5 14.5T300 229zm0-175v25q0 21-14.5 35.5T250 129h-25q-5 0-8.5-3.5T213 116v-12q0-5 3-9l55-55q-4-5-9.5-8T250 29h-7l-42 42q-4 3-9 3t-9-3.5q-4-3.5-4-8.5t4-9l24-24h-40l-96 96q-4 4-9 4H50q-21 0-35.5-14.5T0 79V54q0-21 14.5-35.5T50 4h200q21 0 35.5 14.5T300 54zM25 54v7l32-32h-7q-10 0-17.5 7.5T25 54zm107-25H93L29 93q3 5 8.5 8t12.5 3h7l75-75zm143 43l-32 32h7q10 0 17.5-7.5T275 79v-7z"/></svg>