<svg viewBox="0 0 300 316" xmlns="http://www.w3.org/2000/svg"><path d="M225 229q-28-1-48-17-17-14-23-36t0-44q6-22 23-36 20-16 48-16t48 16q17 14 23 36t0 44q-6 22-23 36-20 16-48 17zm-100-75q0-20 8-39t23-33q7-7 7-17V16q0-5-4-8.5T150 4q-5 0-9 3.5t-4 8.5v51q-10 2-19 6L92 29q-4-7-11-7t-10.5 6.5Q67 35 70 41l26 44q-8 7-14 15L38 74q-5-2-9.5-.5t-7 5.5Q19 83 20 88t5 8l44 25q-4 10-6 20H13q-6 0-9.5 4T0 154q0 5 3.5 9t8.5 4h51q2 10 6 20l-44 25q-4 3-5.5 8t1 9.5q2.5 4.5 7.5 6t10-1.5l43-26q7 8 15 14l-26 44q-3 5-1.5 10t6 7.5Q79 286 84 285t8-6l25-44q10 4 20 6v50q1 6 4.5 9.5t8.5 3.5q5 0 9-3.5t4-8.5v-49q0-10-7-17-15-14-23-33t-8-39z"/></svg>