<svg viewBox="0 0 300 316" xmlns="http://www.w3.org/2000/svg"><path d="M163 104h62v50h-62v-50zM50 154v-50H0v50h50zm0 25H0v50h50v-50zm113 125h62v-50h-62v50zm-25-50H75v50h63v-50zm112-25h50v-50h-50v50zM75 154h63v-50H75v50zM50 254H1q4 18 17.5 31.5T50 303v-49zm88-75H75v50h63v-50zm112 75v49q18-4 31.5-17.5T299 254h-49zm49-175q-5-22-22-36t-39-14h-13V16q0-5-3.5-8.5t-9-3.5q-5.5 0-9 3.5T200 16v13H100V16q0-5-3.5-8.5t-9-3.5q-5.5 0-9 3.5T75 16v13H63q-23 0-40 14T1 79h298zM163 179v50h62v-50h-62zm87-75v50h50v-50h-50z"/></svg>