<svg viewBox="0 0 300 316" xmlns="http://www.w3.org/2000/svg"><path d="M216 132q9 9 21.5 9t21.5-9l23-21q12-12 16-28.5t0-32.5q-4-16-16-28-19-18-44.5-18T193 22q-12 12-16 28.5t0 32.5q4 16 16 28l23 21zm40-68q0 8-5.5 13.5t-13 5.5q-7.5 0-13-5.5T219 64q0-8 5.5-13.5t13-5.5q7.5 0 13 5.5T256 64zM50 279q0 10-7.5 17.5T25 304q-10 0-17.5-7.5T0 279q0-10 7.5-17.5T25 254q10 0 17.5 7.5T50 279zm131-75q0 10-7 17.5t-17.5 7.5q-10.5 0-18-7.5T131 204q0-10 7.5-17.5t18-7.5q10.5 0 17.5 7.5t7 17.5zM25 166q0-20 14.5-34.5T75 116h88q5 0 8.5 4t3.5 9q0 5-3.5 8.5T162 141H75q-10 0-17.5 7.5t-7.5 18q0 10.5 7.5 18T75 192h25q5-1 8.5 3t4 9q.5 5-3.5 8.5t-9 3.5H75q-21 0-35.5-14.5T25 166zm275 75q0 21-14.5 35.5T250 291H88q-6 0-9.5-3.5T75 279q0-5 3.5-9t8.5-4h163q10 1 17.5-6.5t7.5-18q0-10.5-7.5-18T250 216h-37q-6 0-9.5-3.5T200 204q0-5 3.5-8.5t9.5-3.5h37q21-1 35.5 14t14.5 36v-1z"/></svg>