<svg viewBox="0 0 300 316" xmlns="http://www.w3.org/2000/svg"><path d="M238 4H63q-17 0-31.5 8.5t-23 23Q0 50 0 67v12q0 17 8.5 31.5t23 22.5q14.5 8 31.5 8h175q16 0 30.5-8t23-22.5Q300 96 300 79V66q0-16-8.5-30.5t-23-23Q254 4 237 4h1zm0 100H63q-6 0-9.5-3.5t-3.5-9q0-5.5 3.5-9T63 79h175q5 0 8.5 3.5t3.5 9q0 5.5-3.5 9T238 104zm-75 75v112q-1 6-4.5 9.5T150 304q-5 0-9-3.5t-4-9.5V179q1-5 4.5-8.5t8.5-4q5-.5 9 3.5t4 9zm-50 0v75q0 21-15 35.5T62.5 304q-20.5 0-35-14.5T13 254q-1-16 8.5-30T46 205q5-2 9.5 0t6.5 7q2 5-.5 10t-7.5 6q-7 3-12 10.5T37.5 255q.5 9 7.5 16.5t17.5 7.5q10.5 0 17.5-7.5t8-17.5v-75q0-5 3.5-8.5t8.5-4q5-.5 9 3.5t4 9zm175 75q0 21-15 35.5T237.5 304q-20.5 0-35.5-14.5T187 254v-75q1-5 4.5-9t8.5-4q5 0 9 4t4 9v75q-1 10 6.5 17.5t18 7.5q10.5 0 18-7.5t7-16.5q-.5-9-5-16.5T246 228q-5-1-7.5-6t-.5-10q2-5 6.5-7t9.5 0q15 5 24.5 19t9.5 30z"/></svg>