<svg viewBox="0 0 300 316" xmlns="http://www.w3.org/2000/svg"><path d="M288 116v138q0 5-4 8.5t-9 3.5q-5 0-8.5-3.5T263 254V116q0-20-15-35t-35-15q-12 0-22 5l-28 70v113q0 5-4 8.5t-9 3.5q-5 0-8.5-3.5T138 254v-52l-39 94q-1 4-4.5 6t-6.5 2q-3 0-5-1-5-2-7-7t0-9l62-151v-20q0-20-15-35T87.5 66q-20.5 0-35 15T38 116v138q0 5-4 8.5t-9 3.5q-5 0-8.5-3.5T13 254V54q0-5 3.5-9t8.5-4q5 0 9 4t4 9v7q21-20 50-20 19 0 35.5 9.5T150 75q9-13 21-21l17-42q2-5 7-7t9.5 0q4.5 2 6.5 6.5t1 9.5l-9 21 9-1q21 0 38 10.5T277 79q10 17 10 37h1z"/></svg>