<svg viewBox="0 0 300 316" xmlns="http://www.w3.org/2000/svg"><path d="M1 30q-3-10 3.5-18T21 4h258q10 0 16.5 8t3.5 18l-11 24H13L1 30zm199 224q0 20-13.5 34.5T153 304q-16 1-29.5-8.5T103 270q-5-13-1-27 3-12 11-22 2-2 4.5-2t3.5 3l3 10q1 2 4 2t4.5-4q1.5-4 3.5-13 4-18 9-26 1-2 4-2.5t5 1.5l5 5q19 16 27 26 14 17 14 33zm-37 3l-9-8q-2-2-4.5-2t-4.5 2l-8 8q-6 6-6.5 14t5 14q5.5 6 14.5 6t14-6q5-6 4.5-14t-5.5-14zm125 22V79H13v200q-6 0-9.5 3.5t-3.5 9q0 5.5 3.5 9T13 304h50q5 0 8.5-3.5T75 291V180q0-14 8-25.5t21-16.5q24-9 46-9t46 9q13 5 21 16.5t8 25.5v111q0 6 3.5 9.5t8.5 3.5h50q6 0 9.5-3.5t3.5-9q0-5.5-3.5-9T287 279h1z"/></svg>