<svg viewBox="0 0 300 316" xmlns="http://www.w3.org/2000/svg"><path d="M50 4h37q21 0 35.5 14.5T137 54v37q0 21-14.5 35.5T87 141H50q-21 1-35.5-14T0 91V54q0-21 14.5-35.5T50 4zm163 0h37q21 0 35.5 14.5T300 54v37q0 21-14.5 35.5T250 141h-37q-21 0-35.5-14.5T163 91V54q-1-21 14-35.5T213 4zM50 166h37q21 0 35.5 15t14.5 35v38q0 21-14.5 35.5T87 304H50q-21 0-35.5-14.5T0 254v-37q0-21 14.5-36T50 166zm163 0h37q21 0 35.5 15t14.5 35v38q0 21-14.5 35.5T250 304h-37q-21 0-35.5-14.5T163 254v-37q-1-21 14-36t36-15z"/></svg>