<svg viewBox="0 0 300 316" xmlns="http://www.w3.org/2000/svg"><path d="M105 51q-13-9-30-9v-7q0-7 5.5-12.5T94 17q8 0 13.5 5t5.5 13v24l-8-8zm39 40q8 0 13.5-5t5.5-13V23q0-8-5.5-13.5T144 4q-8 0-13.5 5.5T125 23v50q0 8 5.5 13.5T144 92v-1zm50 0q8 0 13.5-5t5.5-13V23q0-8-5.5-13.5T194 4q-8 0-13.5 5.5T175 23v50q0 8 5.5 13.5T194 92v-1zm50-75q-8 0-13.5 5.5T225 35v38q0 8 5.5 13.5T244 92q8 0 13.5-5.5T263 73V35q0-8-5.5-13.5T244 16zm-25 93q-12 8-27 7-13 0-23-8-11 8-24 8t-24-6l-3 7q-4 5-7 9l-24 22q-4 4-9 3.5t-8.5-4Q66 144 66 139t4-9l23-21q8-8 7-19.5T89 71q-7-5-16.5-4T56 75l-27 27q-16 16-16.5 39T29 180l51 51q8 8 8 18v42q0 6 3.5 9.5t8.5 3.5h125q5 0 9-3.5t4-9.5v-27q0-26 10-44 15-25 15-54v-54q-9 5-19 5-14 0-25-8z"/></svg>