<svg viewBox="0 0 301 316" xmlns="http://www.w3.org/2000/svg"><path d="M251 214l1 1q4 5 10 6.5t12 .5q6-1 10.5-5t6.5-10q11-27 10-57-1-39-21-71.5T227.5 26Q195 6 156 4q-30-1-58.5 10T47 46Q25 67 13 95T1 154q0 41 20 75.5T75.5 284q34.5 20 75.5 20l13-1q4 0 7.5-3.5t3.5-8.5v-45q-1-14 6.5-25t20-16.5q12.5-5.5 26-3T251 214zm-37-109q7-2 14 1.5t9 11q2 7.5-2 14.5t-11.5 9q-7.5 2-14-2t-8.5-11.5q-2-7.5 1.5-14T214 105zM99 216q-8 2-14.5-2T76 202.5q-2-7.5 1.5-14t11-8.5q7.5-2 14.5 1.5t9 11q2 7.5-2 14.5t-11 9zm0-75q-8 2-14.5-2T76 127.5q-2-7.5 1.5-14t11-8.5q7.5-2 14.5 1.5t9 11q2 7.5-2 14.5t-11 9zm62-38q-7 2-14-1.5t-9-11q-2-7.5 2-14.5t11.5-9q7.5-2 14 2t8.5 11.5q2 7.5-1.5 14T161 103z"/></svg>