<svg viewBox="0 0 300 316" xmlns="http://www.w3.org/2000/svg"><path d="M300 54q0-21-14.5-35.5T250 4q-21 0-35.5 14.5T200 54q0 17 10.5 30.5T237 102v2q1 16-10 26.5T200 141h-12q-11 0-21 5t-17 12q-7-7-17-12t-20-5h-13q-16 1-27-10t-11-27v-2q17-4 27.5-17.5T100 54q0-21-14.5-35.5T50 4Q29 4 14.5 18.5T0 54q0 17 10.5 30.5T38 102v2q-1 17 7.5 31.5t23 22.5q14.5 8 31.5 8h13q10 0 17.5 7.5T138 191v15q-17 4-27.5 17.5T100 254q0 21 14.5 35.5T150 304q21 0 35.5-14.5T200 254q0-17-10.5-30.5T163 206v-14q0-11 7-18t17-7h13q17 0 31.5-8.5t22.5-23q8-14.5 8-31.5v-2q17-4 27.5-17.5T300 54z"/></svg>