<svg viewBox="0 0 300 316" xmlns="http://www.w3.org/2000/svg"><path d="M163 54h106q13 0 22-9t9-22v-7q0-5-3.5-8.5t-9-3.5q-5.5 0-9 3.5T275 17v6q0 2-2 4t-4 2h-19V16q0-5-3.5-8.5t-9-3.5q-5.5 0-9 3.5T225 17v12h-62V16q0-5-4-8.5T150 4q-5 0-8.5 3.5T138 17v12H75V16q0-5-3.5-8.5t-9-3.5q-5.5 0-9 3.5T50 17v12H31q-2 0-4-2t-2-4v-7q0-5-3.5-8.5t-9-3.5Q7 4 3.5 7.5T0 17v6q0 13 9 22t22 9h107v50H75V91q0-5-3.5-8.5t-9-3.5q-5.5 0-9 3.5T50 92v12H31q-2 0-4-2t-2-4v-7q0-5-3.5-8.5t-9-3.5q-5.5 0-9 3.5T0 92v6q0 13 9 22t22 9h26l81 80v82q0 6 3.5 9.5t8.5 3.5q5 0 9-3.5t3-9.5v-82l81-80h26q13 0 22-9t9-22v-7q0-5-3.5-8.5t-9-3.5q-5.5 0-9 3.5T275 92v6q0 2-2 4t-4 2h-19V91q0-5-3.5-8.5t-9-3.5q-5.5 0-9 3.5T225 92v12h-62V54zm-70 75h45v45l-45-45zm114 0l-44 45v-45h44z"/></svg>