<svg viewBox="0 0 300 316" xmlns="http://www.w3.org/2000/svg"><path d="M94 191q-7 42-7 57 1 23 18 39.5t45 16.5q28 0 45.5-16.5T213 248q0-15-7-57H94zM64 31q26-18 57-24 4 8 4 16 0 13-9 22t-22 9q-11 0-19.5-6.5T64 31zm235 90q-8-33-30-60t-53-42Q185 4 150 4h-3q3 10 3 19 0 23-16.5 39.5T94 79q-17 0-30.5-8.5T43 47Q11 78 1 121q-2 8 0 16t7.5 15q5.5 7 13 10.5T38 166h224q9 0 16.5-3.5T292 152q11-14 7-31zm-161 20q-11 0-18-7t-7-17.5q0-10.5 7-18t17.5-7.5q10.5 0 18 7.5t7.5 18q0 10.5-7.5 17.5t-17.5 7zm81-37q-8 0-13.5-5.5T200 85q0-8 5.5-13.5T219 66q8 0 13.5 5.5T238 85q0 8-5.5 13.5T219 104z"/></svg>