<svg viewBox="0 0 300 316" xmlns="http://www.w3.org/2000/svg"><path d="M288 166H13q-6 0-9.5-3.5T0 154q0-5 3.5-9t9.5-4h275q5 0 8.5 4t3.5 9q0 5-3.5 8.5T288 166zM19 4Q11 4 5.5 9.5T0 23q0 8 5.5 13T19 41q8 0 13.5-5T38 23q0-8-5.5-13.5T19 4zm0 62q-8 0-13.5 5.5T0 85q0 8 5.5 13.5T19 104q8 0 13.5-5.5T38 85q0-8-5.5-13.5T19 66zm262 0q-8 0-13 5.5T263 85q0 8 5 13.5t13 5.5q8 0 13.5-5.5T300 85q0-8-5.5-13.5T281 66zM19 204q-8 0-13.5 5.5T0 223q0 8 5.5 13t13.5 5q8 0 13.5-5t5.5-13q0-8-5.5-13.5T19 204zm262 0q-8 0-13 5.5t-5 13.5q0 8 5 13t13 5q8 0 13.5-5t5.5-13q0-8-5.5-13.5T281 204zm0-200q-8 0-13 5.5T263 23q0 8 5 13t13 5q8 0 13.5-5t5.5-13q0-8-5.5-13.5T281 4zm-62 0q-8 0-13.5 5.5T200 23q0 8 5.5 13t13.5 5q8 0 13.5-5t5.5-13q0-8-5.5-13.5T219 4zm-69 0q-8 0-13.5 5.5T131 23q0 8 5.5 13t13.5 5q8 0 13.5-5t5.5-13q0-8-5.5-13.5T150 4zM81 4q-8 0-13 5.5T63 23q0 8 5 13t13 5q8 0 13.5-5t5.5-13q0-8-5.5-13.5T81 4zM19 266q-8 0-13.5 5.5T0 285q0 8 5.5 13.5T19 304q8 0 13.5-5.5T38 285q0-8-5.5-13.5T19 266zm262 0q-8 0-13 5.5t-5 13.5q0 8 5 13.5t13 5.5q8 0 13.5-5.5T300 285q0-8-5.5-13.5T281 266zm-62 0q-8 0-13.5 5.5T200 285q0 8 5.5 13.5T219 304q8 0 13.5-5.5T238 285q0-8-5.5-13.5T219 266zm-69 0q-8 0-13.5 5.5T131 285q0 8 5.5 13.5T150 304q8 0 13.5-5.5T169 285q0-8-5.5-13.5T150 266zm-69 0q-8 0-13 5.5T63 285q0 8 5 13.5t13 5.5q8 0 13.5-5.5T100 285q0-8-5.5-13.5T81 266zm88-43q0-8-5.5-13.5T150 204q-8 0-13.5 5.5T131 223q0 8 5.5 13t13.5 5q8 0 13.5-5t5.5-13zm0-138q0-8-5.5-13.5T150 66q-8 0-13.5 5.5T131 85q0 8 5.5 13.5T150 104q8 0 13.5-5.5T169 85z"/></svg>