<svg viewBox="0 0 300 316" xmlns="http://www.w3.org/2000/svg"><path d="M288 54q0 10-7.5 17.5T263 79H38q-11 0-18-7.5T13 54q0-10 7-17.5T37 29h15q4-11 14-18t22-7h125q11 0 21 7t14 18h15q10 0 17.5 7.5T288 54zM125 204q0 18 7.5 27.5T150 241q10 0 17.5-9.5T175 204q0-18-7.5-27.5T150 167q-10 0-17.5 9.5T125 204zm-24-13q4-23 18-36t31-13q17 0 31 13t18 36h64l9-73q0-6-3.5-10t-9.5-4H41q-6 0-9.5 4T28 118l9 73h64zm98 25q-4 24-18 37t-31 13q-17 0-31-13t-18-37H41l4 33q3 24 20.5 39.5T107 304h86q24 0 41.5-15.5T255 249l4-33h-60z"/></svg>