<svg viewBox="0 0 300 316" xmlns="http://www.w3.org/2000/svg"><path d="M225 93q3-31 19-43 11-9 31-9 5 0 9-3.5t4-8.5q-2-15-22-13-13 2-29 9Q188 4 134 4q-20 0-50 5-34 6-49 14-19 11-2 23 17 10 50.5 15.5T151 66q36-2 58-10-8 18-9 37-30 4-49 28-18 21-23.5 52.5t3 61.5q8.5 30 28.5 48 22 21 53.5 21t53.5-21q20-18 28.5-48t3.5-61q-5-31-23-53-20-23-50-28zm-25 173q-16 0-27-14t-11-35q1-6 4.5-9.5t8.5-3.5q5 0 9 3.5t4 9.5q0 10 3.5 17t8.5 7q5 0 8.5 4t4 9q.5 5-3.5 8.5t-9 3.5zM147 89q-25-15-54-9-28 6-51.5 28t-35 51.5Q-5 189 2 217q4 18 16 32.5t29 22q17 7.5 35.5 7T117 270q-15-26-16.5-62t11-69Q124 106 147 89zm-75 91q-7 8-9 16t2 11q4 3 4.5 8.5t-3 9.5q-3.5 4-8.5 4t-9-3q-12-11-11-28.5T53 164q3-4 8-4.5t9 3q4 3.5 4.5 8.5t-2.5 9z"/></svg>