<svg viewBox="0 0 300 316" xmlns="http://www.w3.org/2000/svg"><path d="M75 16q0-5 3.5-8.5T87 4h126q5 0 8.5 3.5t3.5 9q0 5.5-3.5 9T212 29H88q-6 0-9.5-3.5T75 17v-1zM50 91h200q5 0 9-3.5t4-8.5q0-5-4-9t-9-4H50q-5 1-8.5 4.5T38 79q0 5 3.5 9t8.5 4v-1zm250 138q0 20-10 37.5T262.5 294Q245 304 225 304t-37.5-10Q170 284 160 266.5T150 229q0-20 10-37.5t27.5-27.5q17.5-10 37.5-10t37.5 10q17.5 10 27.5 27.5t10 37.5zm-31 0q0-5-4-9t-9-4h-18v-18q0-5-4-9t-9-4q-5 0-9 4t-4 9v18h-18q-5 1-9 4.5t-4 8.5q0 5 4 8.5t9 3.5h19v19q0 5 3.5 9t8.5 4q5 0 9-4t4-9v-19h18q5 0 9-3.5t4-8.5zm-144 0q0-27 13.5-50t36.5-36.5q23-13.5 50-13.5H63q-17 0-31.5 8.5t-23 23Q0 175 0 192v49q0 17 8.5 31.5t23 23Q46 304 63 304h96q-16-14-25-33.5t-9-41.5z"/></svg>