<svg viewBox="0 0 300 316" xmlns="http://www.w3.org/2000/svg"><path d="M150 304q-10 0-21-3l-84-24q-20-6-32.5-22.5T0 217V54q0-5 3.5-9t9-4q5.5 0 9 4t3.5 9v163q0 12 7.5 22.5T52 253l84 24q14 4 28 0l84-24q12-3 19.5-13.5T275 217V41q0-5 3.5-8.5t9-3.5q5.5 0 9 3.5T300 42v175q0 21-12.5 37.5T255 277l-84 24q-11 3-21 3zM225 6q-13-5-28 1l-11 4q-11 5-17.5 14.5T162 46v181q-6 2-12 2t-13-2V46q0-11-6-20.5T114 11l-11-4Q88 1 75.5 5.5t-19 14Q50 29 50 41v159q0 13 7.5 23T77 236l52 15q10 3 20.5 3t21.5-3l52-15q12-3 19.5-13t7.5-23V41q0-12-6.5-21.5T225 6z"/></svg>