<svg viewBox="0 0 300 316" xmlns="http://www.w3.org/2000/svg"><path d="M105 204q-12 15-21 27 7 2 11.5 8.5t4.5 14q0 7.5-3.5 13T87 276q-1 12-10 20t-20.5 8q-11.5 0-20-7T26 279h-1q-10 0-17.5-7.5T0 254q0-7 3.5-12.5T13 232v-3q0-10 7-17.5t18.5-7.5Q50 204 57 214q17-8 41-19 4-2 7 1.5t0 7.5zm90 0q12 15 21 27-7 2-11.5 8.5t-4.5 14q0 7.5 3.5 13t9.5 9.5q1 12 10 20t20.5 8q11.5 0 20-7t10.5-18h1q10 0 17.5-7.5T300 254q0-7-3.5-12.5T287 232v-3q0-10-7-17.5t-18.5-7.5q-11.5 0-18.5 10-17-8-41-19-4-2-7 1.5t0 7.5zm-2 94q-21 6-43 6t-43-6q2-4 3-8 15-15 15-36 0-14-7-26l7-9q6-8 6-18.5t-6.5-19q-6.5-8.5-16.5-11T88 172l-27 13q-11-6-23-6-19 0-33 12-5-19-5-37 0-41 20-75.5T74.5 24Q109 4 150 4t75.5 20Q260 44 280 78.5t20 75.5q0 18-5 37-14-12-32-12-13 0-24 6l-27-13q-10-4-20-1.5t-16.5 11q-6.5 8.5-6.5 19t6 18.5l7 9q-7 12-7 26 0 21 15 36 2 4 3 8zM85 91q7 2 15.5 7.5T115 112q4 4 9 4t9-2.5q4-2.5 4.5-8T135 96q-9-11-21.5-19T90 67q-5-1-9.5 1.5t-5.5 8Q74 82 77 86t8 5zm53 50q0-5-4-8.5t-9-3.5H88q-6 0-9.5 3.5t-3.5 9q0 5.5 3.5 9T88 154h37q5 0 9-3.5t4-8.5v-1zm29-27q4 2 9 2.5t9-4.5q6-8 14.5-13.5t14.5-7q6-1.5 9-5.5t2-9.5q-1-5.5-5.5-8T210 67q-11 2-23.5 10T165 96q-3 4-2.5 9.5t4.5 8.5zm8 40h38q5 0 8.5-3.5t3.5-9q0-5.5-3.5-9T213 129h-38q-5 0-9 3.5t-3.5 9q.5 5.5 4 9t8.5 3.5z"/></svg>