<svg viewBox="0 0 300 316" xmlns="http://www.w3.org/2000/svg"><path d="M105 271q43-30 88-74 25-26 44-48 14-17 23-30 7-9 6-10 23-33 30-56 9-28-4.5-41.5T249 8q-23 8-55 29-21-8-44-8-34 0-62.5 17T42 91.5Q25 120 25 154q0 23 8 44-21 32-29 55-10 29 4 43 8 8 21 8 22 0 57-21 8-5 19-12zM274 30q3 3-2 17.5T253 84q-13-20-33-34 17-10 30-16 11-4 17-5t7 1zM73 261q-15 9-27 14-9 3-14 3.5t-6.5-.5q-1.5-1-.5-7t5-17q6-13 16-30 14 20 34 33l-7 4zm201-119q1 6 1 12 0 34-17 62.5T212.5 262Q184 279 150 279q-6 0-12-1 36-27 72-63t64-73z"/></svg>