<svg viewBox="0 0 300 316" xmlns="http://www.w3.org/2000/svg"><path d="M188 116h-75q-6 0-9.5 4t-3.5 9v50q0 5 3.5 8.5t8.5 3.5h76q5 0 8.5-3.5t3.5-8.5v-50q0-5-3.5-9t-9.5-3l1-1zm-38 63q-10 0-17.5-7.5T125 154q0-10 7.5-17.5T150 129q10 0 17.5 7.5T175 154q0 10-7.5 17.5T150 179zm0-175q-41 0-75.5 20T20 78.5Q0 113 0 154t20 75.5Q40 264 74.5 284t75.5 20q41 0 75.5-20t54.5-54.5q20-34.5 20-75.5t-20-75.5Q260 44 225.5 24T150 4zm75 175q0 16-11 27t-26 11h-75q-16-1-27-11.5T75 179v-50q0-15 11-26t26-11l9-14q3-5 8.5-8.5T142 67h16q7 0 12.5 3t8.5 8l9 14q15 0 26 11t11 26v50z"/></svg>