<svg viewBox="0 0 300 316" xmlns="http://www.w3.org/2000/svg"><path d="M150 304q-32 0-61-13t-50-37q-21-24-31-54t-6.5-62.5Q5 105 22 77t44-47q27-19 59.5-24T189 8q8 3 14 9t8.5 14q2.5 8 0 16T203 61q-28 26-36.5 59t3.5 65.5q12 32.5 43 55.5 7 6 10 14t1.5 16q-1.5 8-7 15t-13.5 9q-26 9-54 9zm106-150q-4 0-7.5-2.5T244 145l-4-18-18-5q-4-1-7-4.5t-2.5-8q.5-4.5 3-7.5t6.5-4l18-4 4-18q1-4 4.5-6.5T256 67q4 0 7.5 2.5T268 76l5 18 17 4q5 1 7.5 4.5t2.5 8q0 4.5-2.5 7.5t-7.5 4l-17 5-5 18q-1 4-4 6.5t-8 2.5zm32 63q-6 0-9.5 3.5T275 229q0 5 3.5 9t9 4q5.5 0 9-4t3.5-9q0-5-3.5-8.5T288 217zm-75-50q-6 0-9.5 3.5T200 179q0 5 3.5 9t9 4q5.5 0 9-4t3.5-9q0-5-3.5-8.5T213 167z"/></svg>