<svg viewBox="0 0 300 316" xmlns="http://www.w3.org/2000/svg"><path d="M160 4q-32-2-62.5 9.5T44 48Q21 71 9.5 101.5T0 165q3 39 25.5 71T84 286q36 18 80 18h74q16 0 30.5-8.5t23-23Q300 258 300 241v-83q0-40-18.5-74T231 28.5Q199 7 160 4zm-54 100q8 0 13.5 5.5T125 123q0 8-5.5 13.5t-13.5 5q-8-.5-13.5-5.5t-5-13q.5-8 5.5-13.5t13-5.5zm103 90q-6 6-17 12-20 11-42 10.5T108 206q-11-6-17-12-3-4-3.5-9t3.5-8.5q4-3.5 9-3.5t9 3.5q4 3.5 11 7.5 14 7 30 7t30-7q7-4 11-8 4-3 9-3t9 3.5q4 3.5 3.5 9T209 194zm-15-53q-8 0-13.5-5t-5.5-13q0-8 5.5-13.5T194 104q8 0 13.5 5.5t5 13.5q-.5 8-5.5 13.5t-13 5.5v-1z"/></svg>