<svg viewBox="0 0 300 316" xmlns="http://www.w3.org/2000/svg"><path d="M163 154q0 5 3.5 8.5t8.5 3.5h36q-5 17-18 27.5T163 204q-21 0-35.5-14.5T113 154q0-21 14.5-35.5T163 104q17 0 30 10.5t18 26.5h-36q-5 0-8.5 4t-3.5 9zm137-63v125q0 19-10.5 34.5T263 274v17q0 6-4 9.5t-9 3.5q-5 0-8.5-3.5T238 291v-12H63v12q0 6-4 9.5t-9 3.5q-5 0-8.5-3.5T38 291v-17q-17-8-27.5-23.5T0 217h25q5-1 9-4.5t4-8.5q0-5-4-9t-9-4H0v-75h25q5 0 9-3.5t4-8.5q0-5-4-9t-9-4H0q0-16 8.5-30.5t23-23Q46 29 63 29h175q16 0 30.5 8.5t23 23Q300 75 300 91zm-62 63q0-20-10.5-37.5T200 89q-17-10-37.5-10T125 89q-17 10-27 27.5T88 154q0 20 10 37.5t27 27.5q17 10 37.5 10t37.5-10q17-10 27.5-27.5T238 154z"/></svg>