<svg viewBox="0 0 300 316" xmlns="http://www.w3.org/2000/svg"><path d="M159 190l31 48q2 2 1 5t-3 4q-18 7-38 7t-38-7q-2-1-3-4t1-5l31-48q5 1 9 1.5t9-1.5zm141-36q0 41-20 75.5T225.5 284Q191 304 150 304t-75.5-20Q40 264 20 229.5T0 154q0-41 20-75.5T74.5 24Q109 4 150 4t75.5 20Q260 44 280 78.5t20 75.5zm-27-19q-4-28-19-50-9-14-21-25-9-8-21.5-6T193 66l-34 52q-5-2-9-1.5t-9 1.5l-34-52q-6-10-18.5-12T67 60Q55 71 46 85q-15 22-19 50-2 12 6 22t21 10h61q2 5 5 10l-34 51q-7 11-3.5 23T97 268q25 11 53 11t53-11q11-5 14.5-17t-3.5-23l-34-51q3-5 5-10h61q13 0 21-10t6-22zm-53-53q-2-1-4.5-1t-3.5 2l-32 48q3 5 5 11h58q2 0 4-2t1-5q-3-19-14-36-6-9-14-17zM80 82q-8 8-14 17-11 17-14 36-1 3 1 5t4 2h58q2-6 5-10L88 83q-1-2-3.5-2T80 82zm70 84q5 0 8.5-3.5t4-8.5q.5-5-3.5-8.5t-9-4q-5-.5-8.5 3.5t-3.5 9q0 5 3.5 8.5t8.5 3.5z"/></svg>