<svg viewBox="0 0 300 316" xmlns="http://www.w3.org/2000/svg"><path d="M188 104q0 5-4 8.5t-9 3.5q-5 0-8.5-3.5T163 104q0-5 3.5-8.5t8.5-4q5-.5 8.5 3.5t3.5 9h1zM25 266q0 16 11 27t26 11h150q17 0 31.5-8.5t23-23Q275 258 275 241v-12H62q-15 0-26 11t-11 27v-1zM125 91q-5 0-8.5 4t-3.5 9q0 5 3.5 8.5t8.5 3.5q5 0 8.5-3.5t4-8.5q.5-5-3.5-8.5t-9-3.5v-1zm150-25v138H62q-4 0-7 1-17 2-30 12V66q0-17 8-31t22.5-22.5Q70 4 87 4h125q17 0 31.5 8.5t23 23Q275 50 275 66zm-69 57V97q0-16-8.5-29.5t-23-20.5Q160 40 144 42q-22 2-36 19t-14 39v23q0 8 5.5 13.5T113 142h12v12q0 5 3.5 8.5t9.5 3.5h25q5 0 8.5-3.5t3.5-8.5v-13h12q8 0 13.5-5.5T206 123z"/></svg>