<svg viewBox="0 0 300 316" xmlns="http://www.w3.org/2000/svg"><path d="M300 204q0 5-3.5 9t-8.5 4H125q-5 0-9-4t-3.5-9q.5-5 4-9t8.5-4h163q5 0 8.5 4t3.5 9zm-175-50h125q5 0 9-3.5t4-9q0-5.5-4-9t-9-3.5H125q-5 0-9 3.5t-3.5 9q.5 5.5 4 9t8.5 3.5zm0-63h88q5 1 8.5-3t3.5-9q0-5-3.5-9t-8.5-4h-88q-5 0-9 4t-3.5 9q.5 5 4 9t8.5 4v-1zm0-62h50q5 0 9-3.5t4-9q0-5.5-4-9T175 4h-50q-5 0-9 3.5t-3.5 9q.5 5.5 4 9T125 29zm-11 216q-4-4-9-4t-9 4l-21 21V16q0-5-3.5-8.5t-9-3.5q-5.5 0-9 3.5T50 16v250l-21-21q-4-4-9-4t-9 4q-4 4-4 9t4 9l34 34q7 7 17.5 7t17.5-7l34-34q4-4 4-9t-4-9z"/></svg>