<svg viewBox="0 0 300 316" xmlns="http://www.w3.org/2000/svg"><path d="M288 216h-2q-2-11-9-21l1-1q4-4 4-9t-4-9q-4-4-9-4t-9 4l-1 1q-10-7-21-9v-2q0-5-4-8.5t-9-3.5q-5 0-9 3.5t-4 8.5v2q-11 2-21 9l-1-1q-4-4-9-4t-9 4q-4 4-4 9t4 9l1 1q-7 10-9 22h-28q-2-12-9-22l1-1q4-4 4-9t-4-9q-4-4-9-4t-9 4l-1 1q-10-7-22-9v-2q0-5-3.5-8.5T75 154q-5 0-8.5 3.5T63 166v2q-12 2-22 9l-1-1q-4-4-9-4t-9 4q-4 4-4 9t4 9l1 1q-7 10-9 22h-1q-6-1-9.5 3T0 229q0 5 3.5 8.5T12 241h2q2 12 9 22l-1 1q-4 4-4 9t4 9q4 4 9 4t9-4l1-1q10 7 22 9v1q0 6 3.5 9.5T75 304q5 0 8.5-3.5T87 292v-2q12-2 22-9l1 1q4 4 9 4t9-4q4-4 4-9t-4-9l-1-1q7-10 9-22h28q2 12 9 22l-1 1q-4 4-4 9t4 9q4 4 9 4t9-4l1-1q10 7 22 9v1q0 6 3.5 9.5t8.5 3.5q5 0 9-3.5t4-8.5v-2q11-2 21-9l1 1q4 4 9 4t9-4q4-4 4-9t-4-9l-1-1q7-10 9-22h2q5 0 8.5-3.5t3.5-8.5q0-5-3.5-8.5T288 217v-1zM75 241q-5 0-8.5-3.5T63 229q0-5 3.5-8.5t8.5-4q5-.5 8.5 3.5t4 9q.5 5-3.5 8.5t-9 3.5zm150 0q-5 0-9-3.5t-3.5-8.5q.5-5 4-8.5t8.5-4q5-.5 9 3.5t3.5 9q-.5 5-4 9t-8.5 3zm21-162H113V35q0-13 9-22t22-9h12q15 0 27.5 6T205 28l41 51zM75 129q-22 0-41.5 9T0 163v-22q0-15 11-26t27-11h212q11 0 21 5t17 13.5q7 8.5 10.5 19T300 163q-17-22-46-29.5t-58 0q-29 7.5-46 29.5-14-16-33.5-25T75 129z"/></svg>