<svg viewBox="0 0 300 316" xmlns="http://www.w3.org/2000/svg"><path d="M150 166q-16 0-27 11t-10.5 27q.5 16 11 27t26.5 11q16 0 26.5-11t11-27q.5-16-10.5-27t-27-11zm0 57q-8 0-13.5-5.5T131 204q0-8 5.5-13.5T150 185q8 0 13.5 5.5T169 204q0 8-5.5 13.5T150 223zm38-157v25h-75V66h75zm12-62H100q-17 0-31.5 8.5t-23 23Q37 50 38 67v174q0 17 8 31.5t22.5 23Q83 304 100 304h100q17 0 31.5-8.5t23-23Q263 258 262 241V66q1-16-7.5-30.5t-23-23Q217 4 200 4zm-50 262q-17 1-31.5-7.5t-22.5-23Q88 221 88 204t8-31.5q8-14.5 22.5-23T150 141q17 0 31.5 8.5t22.5 23q8 14.5 8.5 31.5t-8 31.5q-8.5 14.5-23 22.5t-31.5 8zm63-175q-1 11-8 18.5t-17 7.5h-75q-11 0-18.5-7.5T87 92V66q1-10 8-17.5t18-7.5h75q10 0 17.5 7.5T213 66v25z"/></svg>