<svg viewBox="0 0 300 316" xmlns="http://www.w3.org/2000/svg"><path d="M300 266q0 16-14 27t-33 11q-19 0-34-13-15 13-34.5 13T150 292q-15 12-34.5 12T81 291q-15 13-34 13t-33-11Q0 282 0 267q0-6 3.5-9.5t9-3.5q5.5 0 9 3.5t3.5 8q0 4.5 6.5 9T47 279q12 1 20-9l-2-2q-31-33-40-77-2-14 5-26t20-17l88-28v121q0 6 3.5 9.5t8.5 3.5q5 0 9-3.5t4-9.5V120l86 28q13 5 20.5 17t4.5 26q-8 44-39 77l-2 2q8 9 20 9 9 0 15.5-4.5t6.5-9q0-4.5 3.5-8t9-3.5q5.5 0 9 3.5t3.5 8.5zM150 91q10 1 20 5l80 26V96q0-17-12.5-29.5T208 54h-20V41q0-15-11-26T150 4q-16 0-27 11t-10 27v12H93q-18 0-30.5 12.5T50 96v26l80-26q10-4 20-5z"/></svg>