<svg viewBox="0 0 300 316" xmlns="http://www.w3.org/2000/svg"><path d="M150 4q-41 0-75.5 20T20 78.5Q0 113 0 154t20 75.5Q40 264 74.5 284t75.5 20q41 0 75.5-20t54.5-54.5q20-34.5 20-75.5t-20-75.5Q260 44 225.5 24T150 4zm-44 200q-8 0-13.5-5.5t-5-13.5q.5-8 5.5-13.5t13-5q8 .5 13.5 5.5t5.5 13q0 8-5.5 13.5T106 204zm88 0q-8 0-13.5-5.5T175 185q0-8 5.5-13.5t13.5-5q8 .5 13.5 5.5t5 13q-.5 8-5.5 13.5t-13 5.5zm28-79q-4 4-9 4t-9-3q-6-6-16-11-20-11-38-11t-38 11q-10 6-16 11-4 3-9 3t-8.5-4q-3.5-4-3.5-9t4-9q9-7 22-14 25-14 49-14t49 14q13 7 22 14 4 4 4 9t-3 9z"/></svg>