<svg viewBox="0 0 300 316" xmlns="http://www.w3.org/2000/svg"><path d="M128 97l39-27 5-4q-9-14-9-31v-5l-24-17q-17-10-37-8.5T66 18L24 51Q13 60 6.5 72.5T0 100v67q0 20 14.5 35T50 217l89-1-1 1q-15-1-26-11.5T101 179v-31q0-15 7-28.5T128 97zm-53 57q0 5-3.5 8.5T63 166H50q-5 0-8.5-3.5T37 154v-13q1-5 4.5-8.5T50 129h13q5 0 8.5 3.5T75 142v12zM188 35q0-13 9-22t22-9q13 0 22.5 9t9.5 22q0 13-9.5 22.5T219 67q-13 0-22-9.5T188 35zm14 211l-21 50q-1 4-4.5 6t-6.5 2q-3 0-5-1-5-2-7-6.5t0-9.5l20-50q2-5 7-7t9.5 0q4.5 2 6.5 6.5t1 9.5zm92-84l-30-20q-4-2-5-7l-9-30q-3-11-13.5-18.5T214 79q-20 0-31 11l-41 27q-8 6-12 14t-4 17v31q0 5 3.5 9t8.5 4q5 0 9-4t4-9v-31q0-6 5-10l20-13v47q0 9 4 17.5t12 13.5l53 35q6 4 6 11v43q0 5 3.5 8.5t8.5 3.5q5 0 9-3.5t4-8.5v-43q0-10-4.5-18T259 217l-21-14v-54q4 9 12 14l31 20q4 3 9 2t8-5.5q3-4.5 2-9.5t-6-8z"/></svg>