<svg viewBox="0 0 300 316" xmlns="http://www.w3.org/2000/svg"><path d="M89 80l15 62H72l14-62q0-1 1.5-1t1.5 1zm211-26v150q0 21-14.5 35.5T250 254h-36l-48 40q-7 6-16 6t-17-7l-46-39H50q-21 0-35.5-14.5T0 204V54q0-21 14.5-35.5T50 4h200q21 0 35.5 14.5T300 54zM141 189L114 75q-3-10-10-15.5T87.5 54Q78 54 71 59.5T61 75L35 189q-1 5 2 9.5t8 5.5q5 1 9-2t6-8l6-27h44l6 27q1 5 4.5 7.5t8.5 2.5h3q5-2 7.5-6t1.5-9zm97-10q0-5-4-9t-9-4h-50q-5 0-9 4t-3.5 9q.5 5 4 9t8.5 4h50q5-1 9-4.5t4-8.5zm25-50q0-5-4-9t-9-4h-75q-5 0-9 4t-3.5 9q.5 5 4 9t8.5 4h75q5 0 9-4t4-9zm0-50q0-5-4-9t-9-4h-75q-5 0-9 4t-3.5 9q.5 5 4 8.5T175 92h75q5-1 9-4.5t4-8.5z"/></svg>