<svg viewBox="0 0 300 316" xmlns="http://www.w3.org/2000/svg"><path d="M45 273q9 9 20.5 13.5T89 291h122q24 1 42-16 23-22 35-51t11.5-60.5q-.5-31.5-14-60.5t-37-50q-23.5-21-54-30T133 17q-43 5-77 32.5T8 118q-14 41-4 83t41 72zm163-41q22-19 27.5-45t-4-51.5Q222 110 200.5 94T150 79q-4-1-14 1t-14 1q-7-1-9-9-1-5 1.5-9t7.5-6q41-10 76 7 33 16 51 50t12 70q-5 39-37 67-4 3-9 2.5t-8.5-4.5q-3.5-4-3-9t4.5-8zm-83-66q0-3 1-6l-47-47q-4-4-4-9t3.5-9q3.5-4 9-4t8.5 4l48 47q7-2 14.5 1t12 9.5Q175 159 175 167t-5 14.5q-5 6.5-13 9t-15.5-.5q-7.5-3-12-9.5T125 166zm-87 0q-1-14 3-28 2-7 9-9t12 3q5 5 3 12-6 24 1.5 48T92 232q4 3 4.5 8.5t-3 9q-3.5 3.5-8.5 4t-9-2.5q-18-16-28-38.5T38 166z"/></svg>