<svg viewBox="0 0 300 316" xmlns="http://www.w3.org/2000/svg"><path d="M300 156q-1 33-15 63h-3q-34 10-70 10-38 1-75-10-10-3-12.5-13t4-17q6.5-7 14.5-13.5t17-2.5q24 8 50 8 48 0 90-25zm-109-2q9 2 15.5-4.5T212 134q-4-36-19.5-68T151 9q-2-2-2-5-30 0-58 12 29 22 47 53t22 66q1 6 4.5 10t9.5 6q8 2 17 3zm71-8q19-7 36-18-8-44-39-77T184 8q22 26 35.5 57.5T237 131q1 9 8.5 13.5T262 146zm-52 108q-47 1-91-15-7-2-14 1.5T96 252q-5 20-5 40 31 13 63 12t61.5-15q29.5-14 50.5-40-28 6-56 5zm-75-115q-1-11-4-21t-12.5-13q-9.5-3-17.5 3-27 24-45.5 54.5T28 228q-1 6-2 11 17 23 40 39 2-35 18.5-67.5T128 155q8-6 7-16zM97 55Q83 40 66 30 38 48 21 77T.5 139Q-3 172 9 204q12-36 34-67.5T95 81q6-4 6.5-12T97 55z"/></svg>