<svg viewBox="0 0 300 316" xmlns="http://www.w3.org/2000/svg"><path d="M150 4q-41 0-75.5 20T20 78.5Q0 113 0 154t20 75.5Q40 264 74.5 284t75.5 20q41 0 75.5-20t54.5-54.5q20-34.5 20-75.5t-20-75.5Q260 44 225.5 24T150 4zM75 116q-4 0-8-2.5t-4.5-8Q62 100 65 96q9-10 21-18t24-11q5-1 9.5 1.5T125 76q1 5-2 9.5t-8 5.5q-7 2-15.5 7.5T85 112q-4 4-10 4zm31 13q8 0 13.5 5.5T125 148q0 8-5.5 13.5T106 167q-8 0-13.5-5.5t-5-13.5q.5-8 5.5-13.5t13-5.5zm94 112q-3-1-12-4.5t-16-4.5q-11-3-22-3t-22 3q-6 1-15 4.5t-12 4.5q-7 2-11-3.5t0-11.5q9-15 22-23 17-12 38.5-12t38.5 12q13 8 22 23 4 6 0 11.5t-11 3.5zm-25-93q0-8 5.5-13.5T194 129q8 0 13.5 5.5t5 13.5q-.5 8-5.5 13.5t-13 5.5q-8 0-13.5-5.5T175 148zm58-34q-4 2-9 2t-9-4q-6-8-14.5-13.5T185 91q-5-1-8-5.5t-2-9.5q1-5 5.5-7.5T190 67q12 3 24 11t21 18q3 4 2.5 9.5T233 114z"/></svg>