<svg viewBox="0 0 300 316" xmlns="http://www.w3.org/2000/svg"><path d="M300 210v6H113v-6q0-23 16-39.5t40-16.5h75q23 0 39.5 16.5T300 210zm-72 54q-4 2-7.5 2t-6.5-2l-35-23h-66v7q0 23 16.5 39.5T169 304h75q23 0 39.5-16.5T300 248v-7h-38l-34 23zM88 248v-38q0-18 7.5-34.5T117 147l20-108q1-5 5.5-8t9.5-2q5 1 8 5.5t2 9.5l-16 88q11-3 23-3h48l7-24q4-16-4.5-30.5T196 56q-5-2-10-2l1-6q2-15-7-28T156 4q-11-1-21 3.5T119 21q-6-9-16.5-13.5T81 4Q66 7 57 19.5T51 48l1 6q-5 0-10 1-16 5-24 19.5T14 105l14 50q-12 3-19 13-12 13-8 31l11 55q4 22 21.5 36T73 304h38q-11-11-17.5-25.5T88 248zm-34-94L38 98q-2-6 1.5-11.5t8.5-7q5-1.5 10 .5l16 74H54z"/></svg>