<svg viewBox="0 0 300 316" xmlns="http://www.w3.org/2000/svg"><path d="M150 4q-41 0-75.5 20T20 78.5Q0 113 0 154t20 75.5Q40 264 74.5 284t75.5 20q41 0 75.5-20t54.5-54.5q20-34.5 20-75.5t-20-75.5Q260 44 225.5 24T150 4zM75 116q-4 1-8-2t-4.5-8.5Q62 100 65 96q9-10 21-18t24-11q5-1 9.5 1.5T125 76q1 5-2 9.5t-8 5.5q-7 2-15.5 7.5T85 112q-4 4-10 4zm13 19q0-8 5-13.5t13-5q8 .5 13.5 5.5t5.5 13q0 8-5.5 13.5T106 154q-8 0-13.5-5.5T87 135h1zm100 81q0 16-11 27t-27 11q-16 0-26.5-11T113 217v-13q0-16 10.5-26.5T150 167q16 0 26.5 10.5T187 204v12h1zm6-62q-8 0-13.5-5.5T175 135q0-8 5.5-13.5t13.5-5q8 .5 13.5 5.5t5 13q-.5 8-5.5 13.5t-13 5.5zm39-40q-4 3-9 2.5t-9-4.5q-6-8-14.5-13.5T185 91q-5-1-8-5.5t-2-9.5q1-5 5.5-7.5T190 67q12 3 24 11t21 18q3 4 2.5 9.5T233 114z"/></svg>