<svg viewBox="0 0 300 316" xmlns="http://www.w3.org/2000/svg"><path d="M5 158q1-3-1-7-4-10-3.5-21T6 110l4-7q4-6 4-14-2-14 4-26 9-17 28-24l3-1q12-3 22-5 6-2 10-6 7-8 17-14-14 14-18 33-1 7-6 10.5T65 63Q54 75 48.5 90T45 121q0 1-1 2-13 22-27 74-8 33-15 70-2-7-2-13 0-71 5-96zm287 47q-14 14-34 19-7 1-10.5 6t-6.5 9q-12 11-27 16.5t-31 3.5q-1 0-2 1-22 13-74 27-33 8-70 15 7 2 13 2h10q64 0 86-5 4-1 8 1 10 4 20.5 3.5T195 298l6-4q7-4 15-4 13 2 26-4 17-9 23-28l1-3q4-12 6-22 1-6 6-10 9-8 16-20l-2 2zM282 22Q262 4 238 4q-19 0-36 10-11 6-23 4.5T152 17h-4q-19 0-32 13-9 9-11 21-4 16-17 26l-5 4q-7 8-10.5 17.5T70 118q1 10-5 18-10 17-21 58-8 28-15 63l96-96v-57q0-5 3.5-9t9-4q5.5 0 9 4t3.5 9v32l41-41q4-4 9-4t9 4q4 4 4 9t-4 9l-41 41h32q5 0 9 3.5t4 9q0 5.5-4 9t-9 3.5h-57l-96 96q91-19 121-36 8-6 18-5t19.5-2.5Q215 228 223 221l4-5q10-13 26-17 12-2 21-11 13-13 13-32v-4q0-15-1.5-27t4.5-23q10-17 10-36 0-24-18-44z"/></svg>