<svg viewBox="0 0 300 316" xmlns="http://www.w3.org/2000/svg"><path d="M297 102q-4-6-9.5-8.5T276 92q-46 5-79 19-5-24-14-52-7-25-14-42-2-6-7.5-9.5T150 4q-6 0-11.5 3.5T131 17q-7 16-14 42-9 28-14 52-19-8-42-13-20-5-37-6-7-1-12.5 1.5t-8.5 8Q0 107 0 113t4 12q14 22 46 52l-25 9q-6 2-9.5 7T12 204q0 6 3.5 11.5T25 223q30 12 56 16-4 9-5.5 14.5t0 11q1.5 5.5 5.5 9t9.5 5Q96 280 102 278t16.5-8.5Q129 263 137 254v-63q0-5 4-8.5t9-3.5q5 0 8.5 3.5t3.5 8.5v63q9 9 19.5 15.5T199 278q3 1 6 1 8 0 14-6 4-3 5.5-8.5t0-10.5q-1.5-5-5.5-15 30-5 56-16 6-2 9.5-7.5t3-11.5q-.5-6-4-11t-9.5-7l-24-8q30-29 46-53 4-6 4-12t-3-11zM163 254v37q-1 6-4.5 9.5T150 304q-5 0-9-3.5t-4-9.5v-37h26z"/></svg>