<svg viewBox="0 0 300 316" xmlns="http://www.w3.org/2000/svg"><path d="M106 141H81q-13 1-22-8.5T50 110V85q0-13 9-22t22-9h25q13 0 22.5 9t9.5 22v25q0 13-9.5 22.5T106 142v-1zm113 0h-25q-13 1-22.5-8.5T162 110V85q0-13 9.5-22t22.5-9h25q13 0 22 9t9 22v25q0 13-9 22.5t-22 9.5v-1zM106 254H81q-13 0-22-9t-9-22v-25q0-13 9-22.5t22-9.5h25q13 0 22.5 9.5T138 198v25q0 13-9.5 22t-22.5 9zm-6 37q0-5-3.5-8.5T88 279H63q-16 0-27-11t-11-27v-25q0-5-3.5-8.5t-9-3.5q-5.5 0-9 3.5T0 216v25q0 17 8.5 31.5t23 23Q46 304 63 304h25q5 0 8.5-3.5t3.5-9.5zm200-50v-25q0-5-3.5-8.5t-9-3.5q-5.5 0-9 3.5T275 216v25q0 16-11 27t-27 11h-24q-6 0-9.5 3.5t-3.5 9q0 5.5 3.5 9t9.5 3.5h25q16 0 30.5-8.5t23-23Q300 258 300 241zm0-150V66q0-16-8.5-30.5t-23-23Q254 4 238 4h-25q-6 0-9.5 3.5t-3.5 9q0 5.5 3.5 9T213 29h25q15 0 26 11t11 27v24q0 6 3.5 9.5t9 3.5q5.5 0 9-3.5T300 91zM25 91V66q0-15 11-26t27-11h25q5 0 8.5-3.5t3.5-9q0-5.5-3.5-9T88 4H63q-17 0-31.5 8.5t-23 23Q0 50 0 67v24q0 6 3.5 9.5t9 3.5q5.5 0 9-3.5T25 91zm156 125q-8 0-13.5 5.5t-5 13.5q.5 8 5.5 13.5t13 5.5q8 0 13.5-5.5T200 235q0-8-5.5-13.5T181 216zm50-50q-8 1-13.5 6t-5.5 13q0 8 5.5 13.5T231 204q8 0 13.5-5.5T250 185q0-8-5.5-13.5T231 166zm-50 0q-8 1-13.5 6t-5 13q.5 8 5.5 13.5t13 5.5q8 0 13.5-5.5T200 185q0-8-5.5-13.5T181 166z"/></svg>