<svg viewBox="0 0 300 316" xmlns="http://www.w3.org/2000/svg"><path d="M300 241q0 16-11 27t-27 11v12q1 6-3 9.5t-9 3.5q-5 0-8.5-3.5T238 291v-12h-4q-10 0-18.5-5T202 260q-3-4-1.5-9t6-7.5q4.5-2.5 9.5-1.5t8 6.5q3 5.5 10 5.5h28q6 0 9.5-3.5t3.5-8q0-4.5-2.5-7T267 232l-38-6q-13-2-21-12t-8-23q0-15 11-26t26-11v-13q0-5 4-8.5t9-3.5q5 0 8.5 3.5t3.5 8.5v13h4q10 0 18.5 5t13.5 14q3 4 1.5 9t-6 7.5Q289 192 284 191t-8-6.5q-3-5.5-10-5.5h-28q-6 0-9.5 3.5t-3.5 8q0 4.5 2.5 7t5.5 3.5l38 6q13 2 21 12t8 22zM88 116q-6 0-9.5 4t-3.5 9v162q0 6 3.5 9.5t9 3.5q5.5 0 9-3.5t3.5-9.5V129q0-5-3.5-8.5T88 117v-1zm-63 38q-5 0-8.5 3.5T13 167v124q0 6 3.5 9.5T25 304q5 0 9-3.5t4-9.5V166q0-5-4-8.5t-9-3.5zm125-75q-5 0-8.5 3.5T138 92v199q0 6 3.5 9.5t8.5 3.5q5 0 9-3.5t3-9.5V91q1-5-3-8.5t-9-3.5zm125 25q5 0 9-3.5t4-9.5V16q-1-5-4.5-8.5T275 4q-5 0-8.5 3.5T263 17v74q0 6 3.5 9.5t8.5 3.5zm-62 12q5 1 8.5-3t3.5-9V54q0-5-3.5-9t-9-4q-5.5 0-9 4t-3.5 9v50q0 5 3.5 8.5t8.5 3.5h1z"/></svg>