<svg viewBox="0 0 300 300.002" xmlns="http://www.w3.org/2000/svg"><path d="M247 4H53Q31 4 15.5 19.5T0 57v186q0 22 15.5 37.5T53 296h194q22 0 37.5-15.5T300 243V57q0-22-15.5-37.5T247 4zm-98 78v23q0 1-2 1-6-3-12.5-4t-13.5-1q-12 0-22.5 5.5T83 121q-5 9-5.5 19.5T80 161q4 14 16 20.5t25 6.5h3q17 0 22-4 1 0 1.5.5t-.5.5v21q1 2-1 3-6 2-13 3t-15 0q-11 1-22-2t-19.5-8.5q-8.5-5.5-15-14T52 168q-3-11-3-23 0-21 8.5-36T83 85q17-9 39-9 8 0 15 1 6 1 11 3 1 1 1 2zm97 121q-2 1-5 2l-10 4q-7 2-14 3t-14 0q-11 1-20.5-3T167 197.5q-6-7.5-6-18.5t6-18q6-7 17-11t24-4h11v-4q-1-3-3-5t-6.5-3.5Q205 132 199 132t-13 2q-3 0-10 3l-3 2h-1l-1-1v-21q0-2 2-3 5-2 15-4 8-1 17-1 14 0 23.5 5.5T242 129q4 9 4 20l1 53-1 1zm-37-36q-10 0-14.5 3.5T190 178q0 4 2 6.5t5 4q3 1.5 10 1.5h7l5-2v-20l-10-1z"/></svg>