<svg viewBox="0 0 300 300.002" xmlns="http://www.w3.org/2000/svg"><path d="M300 146h-14l-6 32h-11l5-32h-6l-5-7h13l2-11 22 18zm-52-8q7 0 11 4t3 13l-4 23h-12l4-22q2-10-5.5-10t-11.5 6q0 1-1 3l-4 23h-11l5-27 1-13 11 6q4-6 14-6zm-50 0q10 0 14 6t2 13l-1 4h-30q-1 5 2.5 7.5t9.5 2.5q9 0 16-5l-1 8q-7 4-17.5 4t-16-5.5q-5.5-5.5-4-14T181 144q7-6 17-6zm6 16q1-3-1-6t-6.5-3q-4.5 0-8 3t-4.5 6h20zm-33-13l-2 10q-4-5-10.5-5t-11.5 3.5q-5 3.5-5.5 9t3 9q3.5 3.5 9.5 3.5 8 0 13-5l-2 10q-7 2-15 2-10 0-16-5.5t-4.5-14.5q1.5-9 9.5-14.5t20-5.5q6 0 12 3zm-59-3q7 0 11 4t2 13l-4 23h-11l3-22q2-10-5.5-10T97 152q-1 1-1 3l-4 23H80l5-27 2-13 10 6q5-6 15-6zm-50 0q10 0 13.5 6t2.5 13l-1 4H47q-1 5 2.5 7.5T59 171q8 0 16-5l-2 8q-7 4-17.5 4t-16-5.5q-5.5-5.5-4-14T44 144q7-6 18-6zm5 16q1-3-.5-6t-6.5-3q-5 0-8 3t-4 6h19zm-14-32l-1 8H31l-8 48H12l8-48H0l1-8h52z"/></svg>