<svg viewBox="0 0 300 300.002" xmlns="http://www.w3.org/2000/svg"><path d="M37 117h-1q-5-2-9.5-1.5T22 122v6h15v12H22v36H9v-36H0v-12h9v-6q0-8 4.5-13.5T26 103q6 0 11 3v11zm31 23q-2-1-3-1-5 0-8 3t-3 8v26H42v-48h12v6q5-7 14-7 4 0 7 2l-7 11zm51 12v5H85q2 10 12 10 7 0 12-5l8 8q-8 8-20 8t-19-7q-7-7-7-18.5t7-18.5q7-7 17.5-7t17 7q6.5 7 6.5 18zm-34-4h21q-2-10-10.5-10T85 148zm85 4v5h-34q2 10 12 10 7 0 12-5l8 8q-8 8-20 8t-19-7q-7-7-7-18.5t7-18.5q7-7 17.5-7t17 7q6.5 7 6.5 18zm-34-4h21q-2-10-10.5-10T136 148zm90 4q0 11-7 18.5t-16 7.5q-9 0-14-7v25h-13v-68h12v6q6-7 15.5-7t16 7.5Q226 142 226 152zm-38 0q0 6 3.5 10t8.5 4q5 0 9-4t4-9.5q0-5.5-3.5-9.5t-9-4q-5.5 0-9 4t-3.5 9zm59-40q0 4-2.5 6.5t-6 2.5q-3.5 0-6-2.5t-2.5-6q0-3.5 2.5-6t6-2.5q3.5 0 6 2.5t2.5 5.5zm-2 64h-13v-48h13v48zm21-31l18-17h16l-23 23 23 25h-16l-18-19v19h-13v-71h13v40z"/></svg>