<svg viewBox="0 0 300 300.002" xmlns="http://www.w3.org/2000/svg"><path d="M300 27q0-11-8-19t-19-8H27Q16 0 8 8T0 27v246q0 11 8 19t19 8h246q11 0 19-8t8-19V27zM100 59q8 0 13 5t5 12.5q0 7.5-5 13T100 95q-8 0-13-5.5t-5-13Q82 69 87 64t13-5zm123 172q-14 0-21-7t-7-19q0-7 2-13l9-32q1-4 1-10 0-7-4-11.5t-12-4.5q-19 0-25 26l-18 70h-30l6-22q-15 23-37 23-13 0-20-7t-7-19q0-7 2-14l14-56H54l7-24h51l-20 81q-2 7-2 11t1.5 6q1.5 2 4.5 2.5t8.5-1Q110 209 116 205q8-6 12-17l14-53h-22l7-24h46l-6 27q6-12 17.5-20.5T208 109q12 0 21 9.5t9 25.5q0 10-3 20l-9 31q-1 5-1 8 0 8 7 8t14-19l12 5q-10 34-35 34z"/></svg>