<svg viewBox="0 0 300 300.002" xmlns="http://www.w3.org/2000/svg"><path d="M289 55H11q-4 0-7.5 3.5T0 67v166q0 5 3.5 8.5T11 245h278q4 0 7.5-3.5t3.5-8.5V67q0-5-3.5-8.5T289 55zM59 190l-17-64q0-3-1-4.5t-3-2.5q-8-4-21-7l1-2h35q3 0 6 2.5t3 5.5l9 46 21-54h22l-33 80H59zm47 0l17-80h20l-17 80h-20zm57 1q-14 0-22-4l3-18 1 1q10 5 20 4 5 0 9-2t4-5q0-3-2.5-5t-8.5-5q-18-9-18-21.5t10-19.5q10-7 25-7 9 0 19 3l-3 17q-11-5-21-3-4 0-6 2t-2.5 4.5q-.5 2.5 2 4.5t8.5 4q9 5 12 9 6 6 6 14 0 12-9.5 19.5T163 191zm90-1l-2-12h-27l-4 12h-22l31-74q3-6 9-6h18l16 80h-19zm-23-28h17l-6-30-11 30z"/></svg>