<svg viewBox="0 0 300 300.002" xmlns="http://www.w3.org/2000/svg"><path d="M120 120q0-15-20-15H74v30h28q8 0 13-3.5t5-11.5zm88 15q-9 0-14.5 5.5T187 155h42q-2-20-21-20zm-103 21H74v36h30q21 0 21-18t-20-18zM247 4H53Q31 4 15.5 19.5T0 57v186q0 22 15.5 37.5T53 296h194q22 0 37.5-15.5T300 243V57q0-22-15.5-37.5T247 4zm-65 86h52v12h-52V90zm-74 124H46V85h60q19 0 29 6 12 8 12 26 0 9-4 14.5T130 142q11 3 17 12.5t6 21.5q0 19-13 28.5t-32 9.5zm146-43h-67q0 11 6 17.5t17 6.5q6 0 12-3.5t8-8.5h23q-10 31-44 31-22 0-34.5-13.5t-12.5-35q0-21.5 13-35.5t34-14q21 0 33 14.5t12 35.5v5z"/></svg>