<svg viewBox="0 0 300 300.002" xmlns="http://www.w3.org/2000/svg"><path d="M279 21q-10-10-25.5-14.5T213 1q-15-1-57-1h-12q-42 0-57 1-25 1-40.5 5.5T21 21Q11 31 6.5 46.5T1 87q-1 15-1 57v12q0 42 1 57 1 25 5.5 40.5T21 279q10 10 25.5 14.5T86 299q16 1 58 1h12q42 0 57-1 25-1 40.5-5.5T279 279q10-10 14.5-25.5T299 214q1-16 1-58v-12q0-42-1-58-1-24-5.5-39.5T279 21zm-35 191h-22q-4 0-7-2t-8-8l-11-11q-14-14-22-14-3 0-4 1.5t-1 5.5v20q0 5-3 6.5t-13 1.5q-18 0-35.5-10T86 172q-17-24-27-48-7-17-7-23.5t7-6.5h22q4 0 6 2t4 6q8 23 19 41t17 18q2 0 3-2t1-7v-32q0-9-6-16-2-3-2-5t1.5-3.5Q126 94 128 94h35q3 0 4.5 2t1.5 6v43q0 3 1 4.5t2 1.5q4 0 10-6 10-11 20-29 4-9 7-16 3-6 10-6h22q9 0 7 8t-17 30l-13 20q-2 3-2 5t2 5l15 16q16 18 18 25 2 5 0 7t-7 2z"/></svg>