<svg viewBox="0 0 300 300.002" xmlns="http://www.w3.org/2000/svg"><path d="M229 103q12-8 18.5-20t6.5-27q0-23-16.5-39.5T198 0h-96Q79 0 62.5 16.5T46 56q0 15 6.5 27T71 103q-12 8-18.5 20.5T46 150q0 14 6.5 26.5T71 197q-12 8-18.5 20T46 244q0 23 16.5 39.5t40 16.5q23.5 0 40-16.5T159 243v-52q16 15 38 15h1q23 0 39.5-16.5T254 150q0-14-6.5-26.5T229 103zm-70-85h39q16 0 27 11.5t11 27Q236 72 225 83t-27 11h-39V18zM64 56q0-15 11-26.5T102 18h39v76h-39q-16 0-27-11T64 56zm0 94q0-16 11-27t27-11h39v76h-39q-16 0-27-11t-11-27zm77 93q0 16-11.5 27.5T102 282q-16 0-27-11.5t-11-27Q64 228 75 217t27-11h39v37zm57-55h-1q-16 0-27-11t-11-27q0-16 11-27t27-11h1q16 0 27 11t11 27q0 16-11 27t-27 11zm-96 0h39-39z"/></svg>