<svg viewBox="0 0 300 300.002" xmlns="http://www.w3.org/2000/svg"><path d="M285 101q-5-12-13.5-22.5T256 64q11 22 14 44-6-16-17-31-7-9-21-25-20-23-29-37l-5-9-2-6h-1q-22 13-35 35-10 18-14 38-15 1-29 8-3 1-2 3.5t2.5 3q1.5.5 2.5-.5 15-6 30-6 21-1 38 9.5t26 27.5q-7-5-16.5-7.5T179 109q19 10 26.5 29t3 39q-4.5 20-20.5 32-17 14-43 13-14-1-26-7-14-7-23.5-19.5T85 168l2-4q2-5 6-9 6-5 15-8 11-4 25-4 3 0 10-6.5t7-9.5q0-1-6-4-22-11-29-17l-10-10-3-3q-6-17-1-35-9 4-19 11-6 5-12 11l-4 5q-4-5-5-19-1-10 0-18l-5 3q-7 5-14.5 12.5T28 79q-14 21-19 45-3 14-4 27v4q0 39 19.5 72.5t53 53Q111 300 150 300q36 0 66.5-16t51-43.5Q288 213 293 179l1-5q2-19-.5-38t-8.5-35z"/></svg>