<svg viewBox="0 0 300 300.002" xmlns="http://www.w3.org/2000/svg"><path d="M119 154q14 5 16 13v1q1 6-2 10.5t-8 7.5q-4 1-11 2l-52 12q-9 2-13 2-10-1-14.5-7.5T30 170q0-14 4-26 3-9 9.5-11.5t17.5.5l58 21zm100-57q5-5 9.5-7.5t10-1Q244 90 248 95q9 9 15 21 8 16 7 24t-10 13q-3 2-12 4l-61 14q-6 2-12-1.5t-7-9.5q-2-9 8-20l43-43zm-63 44q4-5 5-18l4-75q1-12 0-19v-1q0-7-1-10-1-6-4-9-8-12-35-8l-11 2-10 3q-26 8-29 22 0 5 1 10l3 9 1 2q3 6 9 17l35 63q5 9 9 13 7 6 14 4 5-1 9-5zm-32 63q4-4 7-6 6-5 13-2.5t9 9.5q1 5 1 12l-1 17q0 30-2 45-1 12-6 17t-14.5 4q-9.5-1-19.5-4-12-4-20.5-10T81 273q-1-4 2-9 1-3 4-9l37-51zm135 22q-2-3-9-7-27-16-57-31-14-7-21.5 1t.5 24l8 15q13 25 21 37v1q5 7 8 10 6 6 15 3.5t21-14.5q10-9 15-19 3-5 3-10.5t-4-9.5z"/></svg>