<svg viewBox="0 0 300 300.002" xmlns="http://www.w3.org/2000/svg"><path d="M116 181q-7 0-11.5-4.5t-4.5-11q0-6.5 4.5-11t11-4.5q6.5 0 11 4.5t4.5 11q0 6.5-4.5 11T116 181zm71 20q1 1 1 3t-1 3q-7 7-20 10-8 1-17 1t-17-1q-13-3-20-10-1-1-1-3t1-3q1-1 2.5-1t3.5 1q4 5 13 7t18 2q9 0 18-2t13-7q2-1 3.5-1t2.5 1zm13-35q0 6-4.5 10.5t-11 4.5q-6.5 0-11-4.5t-4.5-11q0-6.5 4.5-11t11-4.5q6.5 0 11 4.5T200 166zM150 0q-41 0-75.5 20T20 74.5Q0 109 0 150t20 75.5Q40 260 74.5 280t75.5 20q41 0 75.5-20t54.5-54.5q20-34.5 20-75.5t-20-75.5Q260 40 225.5 20T150 0zm87 170v7q0 16-11.5 30T194 229q-20 8-44 8t-44-8q-20-8-32-22t-12-30l1-7q-6-3-9.5-8T50 150q0-9 6.5-15.5T72 128q9 0 15 6 24-17 59-18l12-53q0-1 1.5-2t2.5-1l37 8q1-4 5-6.5t9.5-2.5q5.5 0 10 5t4.5 11q0 6-4.5 11t-11 5q-6.5 0-11-4.5T197 76l-33-7-10 47q35 1 59 18 6-6 15-6t15.5 6.5Q250 141 250 150q0 7-3.5 12t-9.5 8z"/></svg>