<svg viewBox="0 0 300 300.002" xmlns="http://www.w3.org/2000/svg"><path d="M262 300h-3v-22h-8v-3h19v3h-8v22zm25-6l7-19h6v25h-4v-21l-8 21h-2l-9-21v21h-3v-25h5l8 19zM163 63l-16-12-15 12v1q6-2 15-2t15 2l1-1zm-5 74h-3l-8 1q-6 0-11-1v1l2 2q5 6 9.5 6t8.5-6l3-2-1-1zm-7-10h-2l-2 1-3-1-2 1-2 1q0 1 1 1l2 1q3 1 4.5 1t3.5-1l3-1 1-1q0-1-2-1l-2-1zm0 0h-2l-2 1-3-1-2 1-2 1q0 1 1 1l2 1q3 1 4.5 1t3.5-1l3-1 1-1q0-1-2-1l-2-1zm7 10h-3l-8 1q-6 0-11-1v1l2 2q5 6 9.5 6t8.5-6l3-2-1-1zm5-74l-16-12-15 12v1q6-2 15-2t15 2l1-1zm0 0l-16-12-15 12v1q6-2 15-2t15 2l1-1zm-5 74h-3l-8 1q-6 0-11-1v1l2 2q5 6 9.5 6t8.5-6l3-2-1-1zm-7-10h-2l-2 1-3-1-2 1-2 1q0 1 1 1l2 1q3 1 4.5 1t3.5-1l3-1 1-1q0-1-2-1l-2-1zm0 0h-2l-2 1-3-1-2 1-2 1q0 1 1 1l2 1q3 1 4.5 1t3.5-1l3-1 1-1q0-1-2-1l-2-1zm7 10h-3l-8 1q-6 0-11-1v1l2 2q5 6 9.5 6t8.5-6l3-2-1-1zm5-74l-16-12-15 12v1q6-2 15-2t15 2l1-1zm0 0l-16-12-15 12v1q6-2 15-2t15 2l1-1zm-5 74h-3l-8 1q-6 0-11-1v1l2 2q5 6 9.5 6t8.5-6l3-2-1-1zm-7-10h-2l-2 1-3-1-2 1-2 1q0 1 1 1l2 1q3 1 4.5 1t3.5-1l3-1 1-1q0-1-2-1l-2-1zm0 0h-2l-2 1-3-1-2 1-2 1q0 1 1 1l2 1q3 1 4.5 1t3.5-1l3-1 1-1q0-1-2-1l-2-1zm7 10h-3l-8 1q-6 0-11-1v1l2 2q5 6 9.5 6t8.5-6l3-2-1-1zm5-74l-16-12-15 12v1q6-2 15-2t15 2l1-1zm0 0l-16-12-15 12v1q6-2 15-2t15 2l1-1zm-5 74h-3l-8 1q-6 0-11-1v1l2 2q5 6 9.5 6t8.5-6l3-2-1-1zm-7-10h-2l-2 1-3-1-2 1-2 1q0 1 1 1l2 1q3 1 4.5 1t3.5-1l3-1 1-1q0-1-2-1l-2-1zm0 0h-2l-2 1-3-1-2 1-2 1q0 1 1 1l2 1q3 1 4.5 1t3.5-1l3-1 1-1q0-1-2-1l-2-1zm7 10h-3l-8 1q-6 0-11-1v1l2 2q5 6 9.5 6t8.5-6l3-2-1-1zm5-74l-16-12-15 12v1q6-2 15-2t15 2l1-1zm0 0l-16-12-15 12v1q6-2 15-2t15 2l1-1zm-5 74h-3l-8 1q-6 0-11-1v1l2 2q5 6 9.5 6t8.5-6l3-2-1-1zm-17-7q1 0 3 1t3.5 1q1.5 0 3.5-1l3-1 1-1q0-1-2-1l-2-1-4 1-3-1-2 1-2 1q0 1 1 1zm109 14q-3-7-6-12 8-2 15 0 4 1 11.5 5t11.5 5q6 2 13 1-2-38-21-70.5t-51.5-52Q190 1 151 0h-7q-39 1-72 20.5T20 73l-2 3Q1 108 0 143q7 1 13-1 4-1 11-5t12-5q7-2 14 0-3 6-5 12-6-1-12 1-3 1-9.5 4.5T13 154q-6 2-13 2l1 10q6 1 11-1 4-1 9.5-4t8.5-5q6-2 11-1-1 4-3 11-6 0-16 5-5 4-8 5-5 2-11 1l3 12q4 0 7-1t7.5-4q4.5-3 8-4.5T37 178v10q-6 0-14 5l-6 4q-4 2-8 1l5 12q4 0 8.5-4t7.5-5.5q3-1.5 8-.5l1 8q-4-1-6.5.5t-7 5.5q-4.5 4-7.5 4 3 6 6 11 2-1 5-4 7-7 13-7l-2-8q13 0 24-10-1-6 3-12 2-4 8-12l6-8q2-4 2-8t-2-12q-3-11-3-19t3.5-16.5Q85 104 91 97q3-2 5-4-13 17-13 33 0 7 3.5 17.5t3.5 16q0 5.5-3 10.5-2 3-7 9.5t-6 9.5q-3 5-3 10 0 7 7 20-6 6-13.5 9.5T51 232q-3 0-5-2l-2-5q-5 0-11 7l-4 3 7 9 2-1q6-7 11-9l3 6q-4 2-10 9l-1 1 9 8q4-6 8-9l4 5q-4 3-7 8l11 8q0-6 8-17 6-7 8-12 3-7 0-13 4 6 4 11t-2 10l-5 8q-7 11-7 17l8 5q1-7 8-21t7-18.5q0-4.5-2-9.5l-6-10q-4-6-6-10-2-6-2-11t3-11q2-3 6.5-9t6.5-9q3-5 3-10.5T94 143q-4-11-4-20t3.5-17.5Q97 97 104 91q2-2 5-4-7 8-10 16t-3 17q0 9 4.5 21t4.5 19q0 6-3 11-2 3-6.5 9t-6.5 9q-3 5-3 9.5t3 10.5q2 3 6 10t6 10q3 6 3 10.5t-3 10.5l-5 10q-4 7-5 11-3 6-3 12l10 4q0-6 2-14 2-4 7-13 7-13 7-18.5t-3-11.5q-2-3-6.5-9.5T99 210q-3-6-3-11t2-11q2-3 6.5-8.5t6.5-8.5q3-6 3-11 0-8-5.5-20.5t-5.5-22q0-9.5 4.5-18.5T119 84h1q1-1 1-.5V85q-5 7-8 14t-3 16q0 9 6.5 23t6.5 21.5q0 7.5-3 12.5-2 4-6 9.5t-6 9q-2 3.5-2 8.5t3 10q1 4 6 11t6 10q3 6 3 12t-7 20q-4 9-6 14-2 8-1 14l11 3q-2-9 1-18l6-15q7-12 7-17.5t-3-11.5q-2-4-7-11t-7-11q-3-5-3-10t2-8.5q2-3.5 6-8.5 7-9 8-16 0-1 1.5-2t2.5-1l3 1q5 1 9 1t9-1l3-1q4 0 4 3 1 7 8 16 4 5 6 8.5t2 8.5q0 5-3 10-2 4-7 11t-6 11q-3 6-3 11.5t6 17.5q5 10 6 15 3 9 2 18l10-3q2-6-1-14-2-5-6-14-7-14-7-20t3-12q2-3 6.5-10t6.5-11q2-5 2-10t-2-8.5q-2-3.5-6-9t-6-9.5q-3-5-3-12.5t6.5-21.5q6.5-14 6.5-23t-2.5-16q-2.5-7-8.5-14 0-1 .5-1.5t.5.5h1q8 6 12.5 15t4.5 18.5q0 9.5-6 22t-6 20.5q0 5 3 11 2 3 6.5 8.5t6.5 8.5q3 6 3 11t-3 11q-2 4-6.5 10.5T183 231q-2 5-2 10.5t7 18.5q4 9 6 13 3 8 2 14l10-4q0-6-3-12-1-4-5-11l-5-10q-2-6-2-10.5t2-10.5q2-3 6.5-10t5.5-10q3-6 3-10.5t-3-9.5q-2-3-6.5-9t-6.5-9q-3-5-3-11 0-7 4.5-19t4.5-21q0-9-3-16.5T185 87q3 2 5 4 7 6 11 14.5t4 17.5q0 9-4 20t-4 16.5q0 5.5 3 10.5 1 3 6 9t7 9q3 6 3 11t-3 11q-2 4-6 11l-5 9q-3 5-3 9.5t7.5 18.5q7.5 14 7.5 21l9-5q-1-6-8-17l-5-8q-2-5-2-10t4-11q-2 6 1 13 2 5 7 12 8 11 9 17l11-8q-3-5-7-8l4-5q4 3 8 9l8-8-1-1q-5-8-9-9l3-6q5 2 11 9l1 2 8-10-4-3q-6-7-12-7l-2 5q-1 2-4 2-6 0-13.5-3.5T217 219q7-13 7-20 0-5-3-10-2-3-6.5-9.5T208 170q-3-5-3-10.5t3.5-16Q212 133 212 126q0-16-14-33 3 2 5 4 6 7 10 15.5t4 16.5q0 8-3 19-3 8-3 12t3 8l6 9q6 7 8 11 3 6 3 12 11 10 24 10l-2 8q6 1 13 7l4 4 7-11q-4 0-8-4t-6.5-5.5q-2.5-1.5-7.5-.5l2-8q5-1 8 .5t7.5 5.5q4.5 4 8.5 4 3-6 5-12-4 1-8-1l-6-4q-8-5-14-5v-10q4 0 7.5 1.5t8 4.5q4.5 3 8 4t7.5 1l3-12q-6 1-11-1-3-1-9-5-9-5-16-5l-2-11q5-1 10 1 3 2 9 5t9 4q6 2 11 1l1-10q-6 0-13-2-3-1-9.5-4.5T261 145q-5-2-11-1zM55 123q-7-3-15-1-5 1-13 5t-12 4q-6 2-11 1 13-15 20-28 8-15 7-31 0-1 .5-1H33q13 9 16 26 8-6 17.5-7T84 94q-17 12-29 29zm121-25q0 1-.5 1h-.5q-4-2-9-2-8 0-13 6-3 9 0 18 2-1 3.5-3.5t2.5-2.5h3q2 1 5 1t5-2q4 1 4 7 0 12-9 24t-19.5 12q-10.5 0-20-12t-9.5-24q0-7 4-7 1 0 3 1t4 1q2 0 5-1h3q1 0 2 1l3 1q1-3 1-7t-1-7q-5-6-14-6-4 0-8 2h-1v-1q2-7 10-12.5t18-5.5q10 0 18 5.5T176 98zm-1 7q0 3-2 4-4-4-13-1-1-1-1-2 4-4 10-4t6 3zm-55 1q0-4 5-4t8.5 2.5q3.5 2.5 2.5 4.5-4-2-8.5-2t-6.5 2q-2-1-1-3zm79-22q-1 2-2 1-24-11-49.5-11T98 85q-2 1-2-1-6-12-17-26 16 1 28 10-5-13-13-25 21 3 34 15l7-17-15-13 19-1 8-18 8 18 20 1-15 13 7 17q12-13 33-15-8 12-12 25 11-9 27-10-10 14-16 26zm12 10q8-4 17.5-3t17.5 7q3-17 15-26h2q1 0 0 1-1 16 7 31 7 13 20 28-5 1-11-1-3 0-11-4t-13-5q-8-2-16 1-11-17-28-29zm-48-31l-16-12-15 12v1q6-2 15-2t15 2l1-1zm-27 74v1l2 2q5 6 9.5 6t8.5-6l3-2-1-1-11 1q-6 0-11-1zm11-9q-1 0-2-1h-1l-2 1-2 1q0 1 1 1l2 1q3 1 4.5 1t3.5-1l3-1 1-1q0-1-2-1l-2-1-4 1zm4-1h-2l-2 1-3-1-2 1-2 1q0 1 1 1l2 1q3 1 4.5 1t3.5-1l3-1 1-1q0-1-2-1l-2-1zm7 10h-3l-8 1q-6 0-11-1v1l2 2q5 6 9.5 6t8.5-6l3-2-1-1zm5-74l-16-12-15 12v1q6-2 15-2t15 2l1-1zm0 0l-16-12-15 12v1q6-2 15-2t15 2l1-1zm-5 74h-3l-8 1q-6 0-11-1v1l2 2q5 6 9.5 6t8.5-6l3-2-1-1zm-7-10h-2l-2 1-3-1-2 1-2 1q0 1 1 1l2 1q3 1 4.5 1t3.5-1l3-1 1-1q0-1-2-1l-2-1zm0 0h-2l-2 1-3-1-2 1-2 1q0 1 1 1l2 1q3 1 4.5 1t3.5-1l3-1 1-1q0-1-2-1l-2-1zm7 10h-3l-8 1q-6 0-11-1v1l2 2q5 6 9.5 6t8.5-6l3-2-1-1zm5-74l-16-12-15 12v1q6-2 15-2t15 2l1-1zm0 0l-16-12-15 12v1q6-2 15-2t15 2l1-1zm-5 74h-3l-8 1q-6 0-11-1v1l2 2q5 6 9.5 6t8.5-6l3-2-1-1zm-7-10h-2l-2 1-3-1-2 1-2 1q0 1 1 1l2 1q3 1 4.5 1t3.5-1l3-1 1-1q0-1-2-1l-2-1zm0 0h-2l-2 1-3-1-2 1-2 1q0 1 1 1l2 1q3 1 4.5 1t3.5-1l3-1 1-1q0-1-2-1l-2-1zm7 10h-3l-8 1q-6 0-11-1v1l2 2q5 6 9.5 6t8.5-6l3-2-1-1zm5-74l-16-12-15 12v1q6-2 15-2t15 2l1-1zm0 0l-16-12-15 12v1q6-2 15-2t15 2l1-1zm-5 74h-3l-8 1q-6 0-11-1v1l2 2q5 6 9.5 6t8.5-6l3-2-1-1zm-7-10h-2l-2 1-3-1-2 1-2 1q0 1 1 1l2 1q3 1 4.5 1t3.5-1l3-1 1-1q0-1-2-1l-2-1zm0 0h-2l-2 1-3-1-2 1-2 1q0 1 1 1l2 1q3 1 4.5 1t3.5-1l3-1 1-1q0-1-2-1l-2-1zm7 10h-3l-8 1q-6 0-11-1v1l2 2q5 6 9.5 6t8.5-6l3-2-1-1zm5-74l-16-12-15 12v1q6-2 15-2t15 2l1-1z"/></svg>