<svg viewBox="0 0 300 300.002" xmlns="http://www.w3.org/2000/svg"><path d="M181 188q14 0 27.5-7.5T231 162q12-14 15-34.5T243 88q-4-12-10-22t-16-19q-21-21-50-29t-59-3q-22 4-38 13v1q9-9 22.5-15.5t29-10Q137 0 153 0q33 0 65 16 21 10 38 27 13 14 22 29 11 18 17 38v1q5 19 5 38 0 41-20 75.5t-54.5 55Q191 300 150 300q-37 0-68.5-16.5t-52.5-45Q8 210 2 175l-1-6q-1-9-1-18 0-31 11-57 7-17 19-29l1-1q5-6 10-8l-2 3q-4 8-6 16l-3 7q-4 13-5 24l6-16 1-2q8-16 21-28 6-6 13-11 13-8 28-12.5t28-3.5q20 0 30 9l-2 1q-16 7-30 22t-20 35q-8 23-5 45 2 12 8 24-5-12-4.5-26t7.5-24.5q7-10.5 16.5-14.5t16.5-2q-12 10-14.5 25.5t5 30Q137 172 153 181q14 7 28 7z"/></svg>