<svg viewBox="0 0 300 300.002" xmlns="http://www.w3.org/2000/svg"><path d="M57 103q6-8 5-17-4 1-8 3t-7 5q-7 8-6 16 5 0 9-2t7-5zm5 8q-5 0-14 3-4 2-5.5 2t-6.5-2q-7-3-11-3-6 1-11.5 4T4 124q-6 11-3.5 26T11 176q4 6 7.5 9.5T26 189q4 0 8.5-2t9-2q4.5 0 9 2t8.5 2q4 0 7.5-3.5t8-10Q81 169 83 162v-1q-4-1-7-5-6-6-6-15-1-12 10-20h1q-7-9-19-10zm73-17q14 0 22.5 8.5t8.5 22q0 13.5-8.5 22.5t-22.5 9h-20v32h-15V94h35zm-20 49h16q10 0 15-4.5t5-13.5q0-9-5-14t-15-5h-16v37zm55 25q0-9 7-14t19-6l19-1v-5q0-6-4-9.5t-10-3.5q-6 0-10 3t-5 7h-13q1-9 8.5-15t20-6q12.5 0 20 6t7.5 17v47h-14v-11q-3 5-9 8.5t-13 3.5q-10 0-16.5-5.5T170 168zm45-6v-5l-17 1q-14 1-14 10 0 5 3.5 7.5t10 2.5q6.5 0 12-4.5T215 162zm27 51v-11h4q5 0 8-2t4-8l2-4-25-69h15l17 56 18-56h15l-26 73q-4 12-10 17t-17 5l-5-1z"/></svg>