<svg viewBox="0 0 300 300.002" xmlns="http://www.w3.org/2000/svg"><path d="M148 0q-18 0-34 3-21 4-28.5 12T78 40v27h72v9H51q-16 0-28 9.5T7 113q-5 20-5 35.5T7 186q4 16 13.5 26T45 222h24v-33q0-18 13.5-31t31.5-13h72q14 0 24.5-11t10.5-26V40q0-14-10-24.5T186 3q-18-3-38-3zm-38 22q5 0 9 4t4 9.5q0 5.5-4 9.5t-9.5 4q-5.5 0-9.5-4t-4-9.5q0-5.5 4-9.5t10-4zm120 54v32q0 19-13.5 32.5T186 154h-72q-15 0-25.5 10.5T78 190v68q0 14 10 23t27 14q17 5 34 5t37-5q15-5 24-13 11-10 11-24v-27h-71v-9h107q15 0 23-10 7-8 12.5-25.5T298 152q0-17-5-39-4-17-12.5-26.5T257 77h-27v-1zm-40 173q6 0 9.5 4t3.5 9.5q0 5.5-3.5 9.5t-9.5 4q-6 0-9.5-4t-3.5-9.5q0-5.5 3.5-9.5t9.5-4z"/></svg>