<svg viewBox="0 0 300 300.002" xmlns="http://www.w3.org/2000/svg"><path d="M247 5H53Q31 5 15.5 21T0 58v184q0 14 7.5 26T27 287.5q12 7.5 26 7.5h194q22 0 37.5-16t15.5-37V58q0-14-7.5-26T273 12.5Q261 5 247 5zm-97 194q-7 9-17.5 14t-26.5 5q-10 0-19-2t-16-5q-2-1-2-4v-23l1-1q0-1 1 0 8 5 17.5 7.5T108 193q10 0 15-3.5t5-9.5q0-6-7-10-5-3-11-5l-4-2q-17-8-25-14-12-10-12-27 0-11 5.5-19.5t16-13.5q10.5-5 26.5-5 9 0 17 1t13 4q2 1 2 2v23l-1 1-1-1q-5-2-14-4t-16-2q-16 0-19.5 6.5t0 10.5q3.5 4 8.5 7 3 2 10 5l7 2q13 6 20 12t10 13q3 7 3 15 0 12-6 20zm74-60q0 1-1 1h-19v43q0 6 2.5 9t8.5 3h6q1-1 1.5-.5t.5 1.5v16q0 3-2 3l-8 2q-3 1-9 1-13 0-20.5-7t-7.5-22v-49h-11q-2 0-2-2v-19q0-2 2-2h12l2-24 1-2 24-3h1v1l-1 28h19q1 0 1 2v20z"/></svg>