<svg viewBox="0 0 300 300.002" xmlns="http://www.w3.org/2000/svg"><path d="M271 207q-24 17-57 27t-64 10q-43 0-81-15T1 187q-2-2-.5-4t4.5 0q32 18 70 28.5t78 10.5q28 0 57-6t56-17q5-2 7 1.5t-2 6.5zm14-16q4 5-9 37-1 3 .5 3.5t3.5-1.5q8-6 14-18 4-10 5.5-19.5t-.5-12q-2-2.5-11.5-4t-20.5.5q-13 2-21 8-3 2-2.5 3.5t2.5 1.5q35-4 39 1zm-48-40l34-87 2-3q0-2-3-2h-8q-3 0-4 .5t-2 3.5l-21 60-21-60q-1-3-2-3.5t-4-.5h-9q-2 0-2 1.5t1 3.5l30 74-3 8q-3 8-6 10.5t-9 2.5h-7q-2 0-2 2v5q0 2 1 3t2 1q4 1 9 1 9 0 14.5-4.5T237 151zM110 80q-3-8-7-13t-10-8q-6-3-13.5-3t-14 3Q59 62 53 67l-1-5q0-3-3-3h-7q-3 0-3 3v104q0 3 3 3h9q3 0 3-3v-36q10 9 24 9 8 0 14-3t10.5-8.5q4.5-5.5 7-13t2.5-17q0-9.5-2-17.5zm-35 47q-11 0-21-8V76q10-7 21-7 21 0 21 29t-21 29zm105-65q-7-6-22-6-7 0-14.5 1.5T131 61q-2 1-2.5 2t-.5 3v4q0 3 2 3l2-1q13-3 23-3t13.5 3.5Q172 76 172 84v10q-11-3-19-3-14 0-22 7t-8 18q0 11 6.5 17t17.5 6q7 0 13.5-2.5T173 129v6q1 2 4 2h7q3 0 3-3V81q0-12-7-19zm-8 58q-5 4-10.5 6t-11 2q-5.5 0-9-3.5T138 116q0-14 18-14l8 1 8 1v16z"/></svg>