<svg viewBox="0 0 300 300.002" xmlns="http://www.w3.org/2000/svg"><path d="M151 0h1q28 0 54.5 9.5t47 27Q274 54 285.5 78t11.5 50q0 18-10.5 33.5t-29 24.5q-18.5 9-40.5 9-17 0-32-5-4-2-5-6.5t2-8.5q11-11 11-28 0-11-7.5-28T167 90q-25-26-68-26-26 0-47 8-27 10-42 33 9-30 29.5-54T89 13.5Q118 0 151 0zM46 256q-21-21-32-48T3 151q1-15 9-30 4-7 9-13 10-13 26-20.5T81 78q40-4 66 12 16 10 26 28-11-7-23-7-8 0-20 5-29 12-43.5 43T79 225q3 17 11.5 31.5T111 282q7 5 15 9 9 6 20 9h1q-29-1-55-12t-46-32zm234-25q-15 25-39 42t-52 23h-12q-26-1-46-13-5-3-9-7-24-20-30.5-52.5T98 162q6-11 13-20l7-6q-4 9-4 18 0 18 8.5 34.5T146 218q15 13 34.5 19.5T222 244q31 0 57-14 1 0 1.5.5t-.5.5z"/></svg>