<svg viewBox="0 0 300 300.002" xmlns="http://www.w3.org/2000/svg"><path d="M151 240q-24 0-41-7-16-6-24-16.5T78 196q0-7 5-11.5t11.5-4.5q6.5 0 11.5 4 2 2 7 8 7 10 13 14 9 6 24 6t24-7q9-7 9-17 0-6-4-10.5t-13-7.5l-45-11q-24-6-34-20-8-11-8-27 0-27 22-41 18-11 46-11 16 0 31.5 5t26 14.5Q215 89 215 100q0 7-5.5 11t-12.5 4q-5 0-8.5-2.5T181 105q-7-7-13-11-9-5-22.5-5t-21 5.5Q117 100 117 109t9 14q6 3 18 5l33 8q24 5 36 20 9 12 9 29 0 25-18.5 40T151 240zm137-65q2-13 2-25 0-31-13-59.5T240.5 42q-23.5-20-54-28T126 11Q106 0 84 0T42.5 11.5Q23 23 12 42T1 83.5Q1 106 12 126q-6 33 4 66t34.5 57.5q24.5 24.5 57 35T174 289q20 11 42 11t41.5-11.5Q277 277 288 258t11-41.5q0-22.5-11-41.5z"/></svg>