<svg viewBox="0 0 300 300.002" xmlns="http://www.w3.org/2000/svg"><path d="M259 0h-2Q40 0 36 1 23 4 13.5 13T1 34q-1 4-1 19v195q0 15 1 18 3 12 12 21t21 12q3 1 20 1h193q15 0 18-1 15-4 24-14.5t11-24.5V43l-1-7q-2-8-5-14-5-10-12-15-10-7-23-7zm-16 167q0 19-.5 24t-1.5 8q-4 15-14 26-15 15-34 17-6 1-45.5 1t-44.5-1q-10-2-19-7.5t-15-14q-6-8.5-9-17.5-2-6-2.5-15.5T57 146q0-39 1-43 4-14 13.5-25T94 61q7-3 15-3.5t30.5-.5q22.5 0 25.5 1 16 5 28 17 16 18 16 38 0 6 1.5 8.5t4 4q2.5 1.5 4.5 1.5h8q9 1 10 2 4 2 5 7 1 3 1 31zm-83-50q0 6-5 9-1 1-4 1h-38q-5-2-6.5-7.5t1.5-9q3-3.5 6.5-4t18.5-.5l17 1q3 0 5 1 5 3 5 9zm33 67q0 6-6 9-2 1-8 1h-64q-8-2-9.5-8t4.5-10q3-2 7-3h62q4 1 7 1 7 3 7 10z"/></svg>