<svg viewBox="0 0 300 300.002" xmlns="http://www.w3.org/2000/svg"><path d="M197 30q-18 0-33.5 22T137 113q-11-39-26.5-61T77 30q-21 0-38.5 32.5t-28 87.5Q0 205 0 270h34q0-61 6-112t15.5-81Q65 47 77 47t21.5 27.5q9.5 27.5 15.5 75t6 103.5h34q0-56 6-103.5t15.5-75Q185 47 197 47t21.5 30q9.5 30 15.5 81t6 112h34q0-65-10-120t-28-87.5Q218 30 197 30zm95 223h-1q-3 0-5.5 2.5t-2.5 6q0 3.5 2.5 6t5.5 2.5q4 0 6.5-2.5t2.5-6q0-3.5-2.5-6T292 253zm-1 16q-3 0-5-2t-2-5.5q0-3.5 2-5.5t5-2q3 0 5 2t2 5.5q0 3.5-2 5.5t-5 2zm0-8h-1v-3h2q2 0 2 1.5t-3 1.5zm4-2q0-3-3-3h-4v10h2v-4h1l3 4h2l-3-4q2 0 2-3z"/></svg>