<svg viewBox="0 0 300 300.002" xmlns="http://www.w3.org/2000/svg"><path d="M150 0q-41 0-75.5 20T20 74.5Q0 109 0 150t20 75.5Q40 260 74.5 280t75.5 20q41 0 75.5-20t54.5-54.5q20-34.5 20-75.5t-20-75.5Q260 40 225.5 20T150 0zm0 272q-33 0-61-16.5T44.5 211Q28 183 28 150q0-21 7-40l48 21q-2 10-2 20 0 28 12 46 11 16 29 24 15 7 31 7 24 0 43-13l6-5-22-27-2 2q-9 8-20 8-16 0-25-14-8-12-8-29l132 58q-16 29-44.5 46.5T150 272zm-18-151q9-16 24-16 9 0 17 5l4 4 25-25q-20-17-48-17-21 0-36 8.5T93 103L48 83q17-25 44-40t59-15q32 0 60 16.5T255.5 89q16.5 28 16.5 61 0 16-4 31l-136-60z"/></svg>