<svg viewBox="0 0 300 300.002" xmlns="http://www.w3.org/2000/svg"><path d="M287 79q-1-1-2-3l-3-2 1-2q3-5 4-10 1-8-2-15-2-4-1.5-5.5t2.5-2q2-.5 3 .5l11 11V0h-52l11 11q1 1 0 3.5t-3 2.5l-5-2q-6-3-12-2.5T226 18l-5-5 13-13H0v234l21-21q2-2 3.5-2t3 1q1.5 1 .5 3v2q-1 2-1 3t2 3l48 49q2 1 3 1t3-1h2q2-1 3 .5t1 3q0 1.5-3 4.5l-20 20h86q1-2 0-3l-28-28q-1-1-2-1l-3 1q-1 0-1.5-1t-.5-2q0-1 2-2l12-12 37 37-11 11h143V157l-12 12q-1 1-2 1t-1.5-.5q-.5-.5-.5-1.5l1-3-33-34 12-12 33 33h3V66l-13 13zm-39-55q1-3 3-2.5t4 2.5l19 19q3 3 3 4t-1 2.5q-1 1.5-2.5 1.5t-3.5-2q-5-3-9-2-2-1-5 1l-5-6 1-4q0-4-3-9-2-3-1-5zM143 58l-.5-1q-.5-1 0-2t1.5-1q1 0 1 1l10 10-11 10-2-3q2-3 2-5 1-4-1-9zm-6-2l1 1q1 1 1 1.5t-.5 1q-.5.5-1.5.5l-4-1q-3-2-5 0l-3-3q1-3 0-4l-2-5 .5-1q.5-1 1.5-1t2 1l10 10zm-17-26q2 2 6 7l3 2q1 1 .5 2t-1.5 2l-3-1q-5-3-11 0l-2 1-3-3 11-10zM94 57q0-1 1-2l12-13 35 35-12 13q-1 1-2 1t-1.5-1q-.5-1 .5-3v-1l-1-2-27-26q-1-1-2 0l-1 1q-2-1-2-2zM77 72q3-2 7-7l6-5q1-1 2.5-1.5T94 60l-1 3q0 1 1 2l25 25 2 1 3-1q1 0 1.5 1t.5 2l-1 2-13 12q-1 2-2 1.5t-2-1.5l1-2v-2L97 90l-5 4-2-2 4-5-13-12-1.5.5q-1.5.5-2.5 0T76 74q0-1 1-2zm107 156q0-1-1-3l-1-2q0-1 .5-2t1.5 0l2 1 11 10q1 2 2 3-1 2-2 2t-3-1l-1-1q-3-1-6 0l-3-3q1-2 0-4zm3-10l-2-1q-5-2-9-1-2 0-5 2l-1 1-3-3 11-11 11 10-.5 1.5q-.5 1.5-1.5 1.5zm-7-41q1-4 1-6-1-4-5-9l-30-30 20 9 14 14q3 4 7.5 5.5t7.5.5q3-1 4.5-.5t1.5 2.5q0 2-2 5l-12 11q-2 2-3.5 2.5t-3-1q-1.5-1.5-.5-2.5v-1zm-28-28q13 13 15 28 2 10-.5 18.5T158 211l-5-5 1-3q1-4-2-8l-47-46q-3-3-5-3t-5 1q-1 0-1-1l-5-4q7-6 15.5-8.5t18.5-.5q16 3 29 16zM60 90q8-8 12-13l1-1h2q1 0 1.5 1t-.5 2v2q-1 0 0 1l27 27 2-.5q2-.5 3 0t.5 1.5q-.5 1-.5 2l-13 12-2 2q-1 0-1.5-.5l-.5-.5 1-4-1-1-27-27-4 1q-1 0-1.5-1.5T60 90zm-9 9l3-3 2-3 12 12q0 1-1 2t-2 1l-4-3q-5-3-9-2l-2-3 1-1zm-14 14l8-8 2-3 31 31q1 1 3 0h1q1-1 1.5-.5t.5 1.5q0 1-1 2l-13 13q-1 1-2 1t-1.5-.5l-.5-.5 1-3q0-1-1-2l-30-30 1-1zm-10 9l3-3 4-3 3 2q-1 5 3 10l2 3q0 1-1 2t-1.5 1q-.5 0-1.5-1l-11-11zm94 124l-25 24q-2 2-3.5 2t-2.5-1q-1-1-1-3l2-5q0-1-2-3l-22-22h-1l-7 7-5-5 7-7-21-22q-1-1-2.5-1.5t-3.5.5l-2 1q-2 0-3-1.5t-.5-3Q29 205 31 203l24-24q1-2 3-2t3 1.5q1 1.5 1 3.5l-2 4q0 2 2 4l49 48q1 2 2.5 2t3.5-1l2-1q1 0 2.5 1t1.5 3q0 2-2 4zm-1-22q-16-4-28.5-17T76 180q-2-11 1-21 3-7 8-13l5 5-1 3q-1 4 3 7l46 46q2 3 4.5 3.5t6.5-.5l5 5q-5 5-12 7-11 4-22 2zm51 63l-3-3q1-2 .5-4t-2.5-4l-21-21q-3-3-5-3.5t-4 .5l-3-3q6-5 14-6t15 4q7 5 10 9 5 7 5 15.5t-6 15.5zm19-19q-1 1-3 1t-2-1q0-1 1-2v-2l-30-30h-2q-1 1-2 .5t-1-1.5q0-1 1-2l13-13 37 37-12 13zm14-15q0-1-1-2l-1-1q2-3 2.5-7t-1.5-8v-1q-1-2-.5-2.5t1.5-1q1-.5 2 .5l10 10-12 12zm29-28q-3 2-7 6l-7 7q0 1-1.5.5t-1.5-1q0-.5.5-2t-.5-2.5l-29-29h-2l-2 1q-2-1-2-2t2-3l12-12 33 32 1 1 4-1q2 0 1.5 1.5T233 224v1zm18-26q-7 1-14-4-5-3-9-7 2 6 0 10.5t-7 9.5l-3-3q1-2 .5-3.5T216 198l-8-8q-3-3-4.5-3t-3.5 1l-2-3q7-7 13.5-8t11.5 4q-3-7-2-13 0-7 5-13l3 3v1q-1 1-.5 2.5t1.5 2.5l26 25q1 2 2.5 2.5t3.5-.5l3 3q-7 5-14 5zm1-63q0 4 3 9l3 4q0 1-1 3 6 4 11 10 5 7 5 15t-6 15l-3-3 1-4q0-1-2-3l-25-25q-2-2-3.5-2t-3.5 1l-3-3q7-6 16-6 2 0 6 1l-8-8 7-7 3 3zm-2-19q-5 4-13 12l-11 12q-2 2-4 2t-3-1q-1-1-1-2t1-3 1-3q0-1-2-3l-42-42 36 66-3 2-72-35q-6-4-10-4-1 0-2 1l-1 1q-2 1-4.5 0t-1.5-3q1-2 2-3l23-23 35 17 1 1 1-1h-1l-18-35 23-23q1-2 3-2t3 1.5q1 1.5 1 2.5l-1 2q-1 2-1 3.5t2 2.5l49 49q2 2 3 2t3-1l2-1q1 0 2.5 1t1.5 3q0 2-2 4zm10-11q-2 2-3.5 2t-2.5-1q-1-1-1-3l2-5q0-1-2-3l-49-49q-2-2-3-2l-3 1q-2 1-3 1t-2.5-2q-1.5-2 1.5-5l22-23h1l66 66-23 23zm24 19q-2 0-3-1l-1-1q-6-4-11-3l-3-3 7-8 12 12q1 1 .5 2.5T284 125zM8 246l-2-2q-1-1-2-1H1l-1 1v56h56v-1q1-2 1-3t-1-3L8 246z"/></svg>