<svg viewBox="0 0 300 300.002" xmlns="http://www.w3.org/2000/svg"><path d="M297 124q-2-2-6-4-8-3-18-3-7 0-13 1-2-13-12-23-5-6-9-9l-5-2-3 4q-5 8-7 18-5 18 5 33-5 3-13 4-5 1-9 1H9q-3 0-6 3t-3 7q0 26 9 50 10 27 30 39 11 7 28 11t36.5 4q19.5 0 37.5-4 26-4 48-17 19-11 33-27 18-21 32-55h2q21 0 34-12 6-6 9-14l1-3-3-2zM28 138h26q3 0 2-2l1-23q0-3-3-3H28q-3 0-3 3v23q0 2 3 2zm36 0h27q2 0 2-2v-23q0-3-2-3H64q-2 0-2 3v23q0 2 2 2zm37 0h27q2 0 2-2v-23q0-3-2-3h-27q-2 0-2 3v23q0 2 2 2zm37 0h26q3 0 3-2v-23q0-3-3-3h-26q-2 0-2 3v23q0 2 2 2zm-74-33h27q2 0 2-3V79q0-3-2-3H64q-2 0-2 3v23q0 3 2 3zm37 0h27q2 0 2-3V79q0-3-2-3h-27q-2 0-2 3v23q0 3 2 3zm37 0h26q3 0 3-3V79q0-3-3-3h-26q-2 0-2 3v23q0 3 2 3zm0-34h26q3 0 3-3V45q0-3-3-3h-26q-2 0-2 3v23q0 3 2 3zm37 67h26q3 0 3-2v-23q0-3-3-3h-26q-3 0-3 3v23q0 2 3 2z"/></svg>