<svg viewBox="0 0 300 300.002" xmlns="http://www.w3.org/2000/svg"><path d="M234 279q-4 0-7 3t-3 7.5q0 4.5 3 7.5t7.5 3q4.5 0 7.5-3t3-7.5q0-4.5-3-7.5t-8-3zm0 19q-3 0-6-2.5t-3-6q0-3.5 3-6t6.5-2.5q3.5 0 6 2.5t2.5 5.5q0 4-2.5 6.5T234 298zm4-11q0-2-1-3t-2-1h-5v13h3v-6l4 6h2l-3-6q2 0 2-3zm-5 2v-4h1q2 0 2 2t-3 2zm3 1q2 0 2-2.5t-1-3.5q-1-1-2-1h-5v13h3v-6l4 6h2l-1-3-2-3zm-3-1v-4h1q2 0 2 2t-3 2zm3 1q2 0 2-2.5t-1-3.5q-1-1-2-1h-5v13h3v-6l4 6h2l-1-3-2-3zm-3-1v-4h1q2 0 2 2t-3 2zm1-149l-2-1q-6-4-9-7t-3-8q0-5 3.5-7.5t9.5-2.5q11 0 19 9v-20q-10-7-23-7t-21.5 8.5Q199 113 199 125q0 10 4 16.5t17 14.5q8 4 11 7.5t3 9q0 5.5-3.5 8.5t-9.5 3q-12 0-21-8v20q11 6 25 6.5t22-8.5q8-9 8.5-20t-4-18.5Q247 148 234 140zm-81-44q-16 0-29 8v143h22v-46q5 1 10 1 18 0 28-14.5t10-39q0-24.5-10.5-38.5T153 96zm0 88q-4 0-7-1v-67q3-2 7-2 10 0 14 8t4 27q0 35-18 35zm-62-3q-5 3-11 3-11 0-11-16V99H47v69q0 35 32 35 18 0 33-9V99H91v82zm143-41l-2-1q-6-4-9-7t-3-8q0-5 3.5-7.5t9.5-2.5q11 0 19 9v-20q-10-7-23-7t-21.5 8.5Q199 113 199 125q0 10 4 16.5t17 14.5q8 4 11 7.5t3 9q0 5.5-3.5 8.5t-9.5 3q-12 0-21-8v20q11 6 25 6.5t22-8.5q8-9 8.5-20t-4-18.5Q247 148 234 140zm-81-44q-16 0-29 8v143h22v-46q5 1 10 1 18 0 28-14.5t10-39q0-24.5-10.5-38.5T153 96zm0 88q-4 0-7-1v-67q3-2 7-2 10 0 14 8t4 27q0 35-18 35zM91 99v82q-5 3-11 3-11 0-11-16V99H47v69q0 35 32 35 18 0 33-9V99H91zm143 41l-2-1q-6-4-9-7t-3-8q0-5 3.5-7.5t9.5-2.5q11 0 19 9v-20q-10-7-23-7t-21.5 8.5Q199 113 199 125q0 10 4 16.5t17 14.5q8 4 11 7.5t3 9q0 5.5-3.5 8.5t-9.5 3q-12 0-21-8v20q11 6 25 6.5t22-8.5q8-9 8.5-20t-4-18.5Q247 148 234 140zm-81-44q-16 0-29 8v143h22v-46q5 1 10 1 18 0 28-14.5t10-39q0-24.5-10.5-38.5T153 96zm0 88q-4 0-7-1v-67q3-2 7-2 10 0 14 8t4 27q0 35-18 35zm-62-3q-5 3-11 3-11 0-11-16V99H47v69q0 35 32 35 18 0 33-9V99H91v82zM150 0Q77 0 24 28v148q0 24 8.5 43T58 252q13 10 51 29 20 10 41 19 20-9 41-19 38-19 51-29 17-14 25.5-33t8.5-43V28Q223 0 150 0zm114 176q0 42-29 67-19 15-85 44-21-9-42-19-32-16-43-25-29-24-29-67V91q37-34 87-50 42-12 93-12 23 0 48 2v145z"/></svg>