<svg viewBox="0 0 300 300.002" xmlns="http://www.w3.org/2000/svg"><path d="M0 202h58v8H0v-8zm0-16h58v8H0v-8zm17-16h25v8H17v-8zm0-16h25v8H17v-8zm0-16h25v8H17v-8zm0-16h25v8H17v-8zM0 106h58v8H0v-8zm0-16h58v8H0v-8zm67 104h89q2-4 3-8H67v8zm82-40H83v8h73q-3-5-7-8zm-66-16v8h66q4-3 7-8H83zm73-32H67v8h92q-1-4-3-8zm-28-16H67v8h82q-9-8-21-8zm-45 32h25v8H83v-8zm49 8h27q1-4 1-8h-28v8zm-49 40h25v8H83v-8zm49 0v8h28q0-4-1-8h-27zm-65 40h61q12 0 21-8H67v8zm166 0l3-8h-6l3 8zm-5-16h11l3-8h-17l3 8zm-6-16h22l3-8h-28l3 8zm-5-16h33l3-8h-39l3 8zm-34-32h45l-3-8h-42v8zm61-16h56v-8h-53l-3 8zm8-24l-3 8h51v-8h-48zm-85 112h41v8h-41v-8zm0-16h41v8h-41v-8zm16-16h25v8h-25v-8zm0-16h25v8h-25v-8zm100-32h-42l-3 8h45v-8zm-25 24h25v-8h-47l-3 7-2-7h-48v8h25v-7l3 7h45l2-7v7zm0 8h25v8h-25v-8zm0 16h25v8h-25v-8zm0 16h42v8h-42v-8zm0 16h42v8h-42v-8zm-35-88l-3-8h-53v8h56zm-6-16l-3-8h-47v8h50z"/></svg>