<svg viewBox="0 0 300 300.002" xmlns="http://www.w3.org/2000/svg"><path d="M298 181q0-4-2-6t-5.5-2q-3.5 0-5.5 2t-2 5.5q0 3.5 2 6t5.5 2.5q3.5 0 5.5-2.5t2-5.5zm-10 0v5h-1v-11h4q3 0 3 2.5t-2 3.5q2 0 2 2l1 3h-2l-1-3q-1-2-2-2h-2zm2-1q3 0 3-2t-3-2h-2v4h2zm-9 1q0-4 2.5-7t6.5-3q4 0 7 3t3 7q0 4-3 6.5t-7 2.5q-4 0-6.5-2.5T281 181zm-34 8l-11-13-11 13h-23l23-26-23-25h24l11 12 11-12h23l-23 25 23 26h-24zm-45-63v-18h-63v33q-6-6-15.5-6t-16 5.5Q101 146 98 154q-3-9-10-14t-16.5-5q-9.5 0-16 3.5T45 148v-10H21v-12h26v-18H0v81h21v-34h22q-1 4-1 8 0 12 8 20t21 8q20 0 27-18H80q-2 3-4 4t-6 1q-4 0-7-3.5t-3-7.5h37q1 10 8.5 17.5T123 192q10 0 16-9v6h63v-18h-26v-16h26v-17h-26v-12h26zM61 155q0-4 3-6t7-2q8 0 10 8H61zm66 21q-5 0-8-3.5t-3-9.5q0-6 3-10t8.5-4q5.5 0 8 4t2.5 10q0 6-2.5 9.5T127 176z"/></svg>