<svg viewBox="0 0 300 300.002" xmlns="http://www.w3.org/2000/svg"><path d="M198 35l-2 1-7 2q-1-6-4-11-10-18-27-18h-2l-1-1q-8-8-19-8t-21.5 8Q104 16 95 30q-6 9-10.5 20.5T79 72l-29 9q-6 2-7.5 3.5T40 92L17 268l184 32V35h-3zm-42 13q-19 6-31 10 5-19 16-31 5-5 10-7 5 10 5 28zm-20-38q5 0 9 2-6 3-11 9-7 7-12 18t-7 22l-26 8q4-20 17-38 15-21 30-21zm-28 133q0 4 5 8 2 2 10 7 13 9 19 15 9 11 10 25 2 22-9.5 35.5T112 248q-13 1-25-3-8-3-15-8l-5-4 6-27 5 3q5 4 11 6 8 3 13.5 2.5t8.5-4q3-3.5 2.5-9T109 194q-3-3-10-8-10-7-14-12-7-9-8-21-2-23 13-39 15-19 44-20 10-1 18 1l6 2-9 34-7-2q-8-2-16-2-12 1-16 8-2 3-2 8zm58-98q-1-16-5-26 13 2 19 22l-14 4zm41 254l76-19-33-222q-1-2-3-3h-22l-18-17v261z"/></svg>