<svg viewBox="0 0 300 300.002" xmlns="http://www.w3.org/2000/svg"><path d="M287 128q0-3 2-4.5t4.5-1.5q2.5 0 4 1.5t1.5 4q0 2.5-1.5 4.5t-4 2q-2.5 0-4.5-2t-2-4zm0 0q0 3 2 4.5t4.5 1.5q2.5 0 4.5-2t2-4.5q0-2.5-2-4.5t-4.5-2q-2.5 0-4.5 2t-2 5zm4 4h1v-3h3v2l2 1-1-3-1-1 1-1v-1q0-1-1-1l-4-1v8zm1-4v-3h3v2l-3 1zm-265 9L0 180h19l26-41-18-2zm112-1v-16H86q-7 1-12 6l-1 1q-1 1-2 5l-1 3v-15H41q-3 0-5 3l-8 13h111zm143 0v-16h-56q-7 1-13 6v1q-1 1-3 5l-1 4h73zm-125-16h-15v16h15v-16zm52 0h-16v16h16v-16zm0 22l-15-1v18l-1 3q-1 2-4 2h-29q-3-2-3-5v-21l-15-1v28q1 9 8 12 3 2 6 3h38l4-1q5-2 8-5.5t3-9.5v-22zM53 180h74q8-2 12-8 2-4 2-7l1-6q-1-3-5-8t-10-6l-57-4q1 6 5 9t9 4l40 4q3 0 3 3t-3 3H69v-23l-15-1q-1 0-1 20v20zm156 0h57q6-1 9.5-4t5.5-7l1-4q1-3 0-6 0-4-4-8.5t-10-5.5l-58-3q2 5 5 8h1q2 2 5 4h3l40 4q4 0 4 2t-1 3l-3 1h-54l-1 16z"/></svg>