<svg viewBox="0 0 300 300.002" xmlns="http://www.w3.org/2000/svg"><path d="M247 5H53Q31 5 15.5 21T0 59v182q0 22 15.5 38T53 295h194q22 0 37.5-16t15.5-38V59q0-22-15.5-38T247 5zM137 191q-6 10-18 14.5T93 210q-11 0-20-1.5T57 203q-2-1-2-3v-24q0-1 .5-1.5t1.5-.5q8 6 17.5 8.5t20 2.5q10.5 0 15.5-3.5t5-8.5q0-4-2-7t-6-5.5q-4-2.5-10-4.5l-11-5q-10-4-19-11-6-5-9-12.5T55 112q0-11 5.5-20T77 78q12-6 26-5 10 0 18 1t14 4q2 1 2 3v23l-1 1-15-6q-9-1-17-1-5-1-9.5 0t-7 2.5q-2.5 1.5-4 4T82 110q0 3 2 6t6 5l12 6 7 3q12 4 21 11 7 6 10.5 13.5T144 170q0 12-7 21zm108 42q-7 10-18 14-14 5-28.5 5.5T170 247q-9-3-16-12-5-6-5-14 0-4 2-8t6.5-8.5l9.5-9.5h1l-2-5q-2-5-2-10t1-9l3-5h-1q-6-4-10-11t-3.5-16q.5-9 5.5-17t14.5-12.5Q183 105 195 105h11l9 2h32q2 0 2 1v19q0 1-1 2l-15-1q1 2 2 5.5t1 7.5q0 10-5.5 18T216 170q-9 3-20 3h-7v2q-1 5 1 7l1 1 21 1q12 1 23 5 8 3 12.5 10t4.5 15q0 11-7 19zm-22-21q-3-2-7.5-3t-9.5-1l-23-1q-3 2-5 5t-2 6.5q0 3.5 3 6.5t8.5 4.5q5.5 1.5 13 1.5t14.5-2q5-1 8-4t3-6.5q0-3.5-3-6.5zm-38-63q4 5 10 5t10.5-4q4.5-4 4.5-9t-1.5-8.5q-1.5-3.5-5-5.5t-9-2q-5.5 0-9.5 4t-4 10q0 6 4 10z"/></svg>