<svg viewBox="0 0 300 300.002" xmlns="http://www.w3.org/2000/svg"><path d="M150 0q-41 0-75.5 20T20 74.5Q0 109 0 150t20 75.5Q40 260 74.5 280t75.5 20q41 0 75.5-20t54.5-54.5q20-34.5 20-75.5t-20-75.5Q260 40 225.5 20T150 0zm69 216q-2 4-6 4.5t-7-1.5q-53-32-132-14-4 1-7-1t-4-6q-1-4 1-7t6-4q86-20 146 17 3 2 4 5.5t-1 6.5zm18-40q-2 4-7 5t-9-2q-30-18-72-23t-77 6q-5 1-9.5-1t-5.5-7q-1-5 1-9t7-5q41-13 87.5-7.5T233 159q4 3 5.5 7.5T237 176zm2-43q-23-14-57-20-30-6-62-5.5T64 116q-5 1-10-1.5t-7-8q-2-5.5 1-11t8-6.5q27-8 63-9.5t70 5.5q37 8 64 24 5 3 6.5 8.5T258 128q-3 5-8.5 6.5T239 133z"/></svg>