<svg viewBox="0 0 300 300.002" xmlns="http://www.w3.org/2000/svg"><path d="M288 270h2l-5-8q5 0 5-5 0-6-6-6h-8v19h3v-8h3l6 8zm-6-10h-3v-7h4q4 0 4 3.5t-5 3.5zm-66-22h-37v-58q0-15-3-22-4-11-17-11t-19 10q-4 7-4 22v59H99V117h36v17q6-10 15.5-15t20.5-5q26 0 37 17 8 13 8 41v66zM56 101q-9 0-15-6.5T35 79q0-9 6-15.5T56 57q9 0 15.5 6.5T78 79q0 9-6.5 15.5T56 101zm19 137H38V117h37v121zM235 22H19q-8 0-13.5 5.5T0 41v217q0 7 5.5 12.5T19 276h216q8 0 13.5-5.5T254 258V41q0-8-5.5-13.5T235 22zm48 221q-8 0-13 5t-5 12.5q0 7.5 5.5 12.5t12.5 5q7 0 12-5.5t5-12.5q0-7-5-12t-12-5zm0 33q-6 0-11-4.5t-5-10.5q0-6 4.5-10.5t10.5-5q6-.5 10.5 4T297 260v1q1 6-3.5 10.5T283 276z"/></svg>