<svg viewBox="0 0 300 300.002" xmlns="http://www.w3.org/2000/svg"><path d="M85 184q23 12 36 19l26 15-27 21q-4 3-10 9-7 7-11.5 14t-6 14.5q-1.5 7.5 2 12.5t10.5 8q5 2 13 3t23-2h2q20-3 48-11 16-4 32-11 4-2 7.5-5t2.5-8q-1-5-9-9l-34-21 36-24q15-11 27-22 7-7 11.5-14.5T268 157q-2-16-27-27l-15-7-37-13V90q0-18-1-31-1-10-3-21v-1q-2-15-5-22-6-13-17-15-13-2-27 12-12 11-22 22-17 16-46 54l-7 9q-4 6-13 19l-3 5q-4 5-10 17-3 6-3 12 0 2 3.5 5.5T47 163l38 21zm35-108q12-13 20-21l1-1q7-7 10.5-5t4.5 15l3 38-24-6-23-4h-7l15-16zm-15 30l56 24 2 43q0 6-3 8-5 3-15-7l-5-6-9-11-17-26-7-14-2-6-1-3 1-2zm86 138l1 1q13 8 19 13l4 4h-1l-73 6 8-7 11-7 22-16 9 6zm31-79q0 2-3 4l-6 5-19 13-40 26-70-41-21-12-6-4q-5-3-5-5.5t2-6.5l38-39 3 8 13 23q6 9 17 26l9 11q4 6 7.5 9.5t8.5 7.5q8 6 15 6 3 0 6-1 7-3 10.5-14t4.5-18l2-21 15 7 14 8q5 3 5 7v1z"/></svg>