<svg viewBox="0 0 300 300.002" xmlns="http://www.w3.org/2000/svg"><path d="M126 212l-2-32 2-79q0-2 1.5-3.5T131 96q2 0 3.5 1.5t1.5 3.5l2 79-2 32q0 3-1.5 4t-3.5 1q-2 0-3.5-1t-1.5-4zm-21 0l-2-32 2-59q0-2 1.5-3.5t3.5-1.5q2 0 4 1.5t2 3.5l1 59-1 32q0 3-2 4t-4 1q-2 0-3.5-1t-1.5-4zm-21 0l-1-32 1-65q0-3 2-4t4-1.5q2-.5 3.5 1T95 115l2 65-2 32q0 3-1.5 4t-3.5 1q-2 0-4-1t-2-4zm-20 0l-2-32 2-52q0-2 1.5-3.5T69 123q2 0 3.5 1.5T74 128l2 52-2 32q0 3-1.5 4t-3.5 1q-2 0-3.5-1t-1.5-4zm-21 0l-2-32 2-25q0-2 1.5-3.5T48 150q2 0 3.5 1.5T53 155l2 25-2 32q0 3-1.5 4t-3.5 1q-2 0-3.5-1t-1.5-4zm-21 0l-1-32 1-32q0-2 1.5-3.5t4-1.5q2.5 0 4 1.5T33 148l1 32-1 32q0 3-1.5 4t-4 1q-2.5 0-4-1t-1.5-4zM2 199l-2-19 2-18q0-2 1.5-3.5T7 157q2 0 3.5 1.5T12 162l2 18-2 19q0 2-1.5 3.5T7 204q-2 0-3.5-1.5T2 199zm242-60q7-2 15-3 17 0 29 12t12 29q0 17-12 28.5T259 217H155q-4 0-7-2.5t-3-7.5V99q0-7 8-12 6-3 15-4l8-1q25 0 44.5 16.5T244 139z"/></svg>