<svg viewBox="0 0 300 300.002" xmlns="http://www.w3.org/2000/svg"><path d="M36 38q-14 0-25 11T0 74v94q3 2 12.5 5t14.5 3q23 2 25-16v-46h33v45q-1 18-17 24-14 6-41 5-13-1-27-4v78h57q12 0 23.5-10.5T92 226V38H36zM0 168v16-16zM140 38q-14 0-25 11t-11 25v50q18-15 53-12 18 2 29 5v15q-15-7-28-8-16-1-24.5 6t-8.5 19.5q0 12.5 8 20t25 6.5q6 0 14.5-3t13.5-5v15q-5 2-14 3-11 2-21 2-31 0-47-12v86h57q13 0 24-10.5t11-25.5V38h-56zm108 117h-22v19h22q4 0 7-2.5t3-7q0-4.5-3-7t-7-2.5zm7-20q0-5-2.5-7.5T246 125h-20v18h21q3 0 5.5-2t2.5-6zm-11-97q-14 0-25 11t-11 25v40h54q9 0 16 4.5t7 13.5q0 6-4 10.5t-13 6.5q7 0 14 4.5t7 14q0 9.5-8 14.5-6 4-14 4h-59v76h56q13 0 24.5-10.5T300 226V38h-56z"/></svg>