<svg viewBox="0 0 300 300.002" xmlns="http://www.w3.org/2000/svg"><path d="M75 54h57v10H84v25h42v10H84v37h-9V54zm-2 162l10-2q0 9 7 14t15.5 4.5q8.5-.5 14-4t5.5-9.5q0-6-4.5-10t-18.5-8q-14-4-20-9.5t-6-15q0-9.5 7.5-15T104 156q10-1 18.5 5t10.5 17l-9 2q-1-7-7-11.5t-14-4q-8 .5-13 3.5t-5 8q0 5 5 9t17 8q15 4 21.5 10t6.5 16q0 10-8.5 16.5t-21 7q-12.5.5-21.5-7T73 216zm73-17q-1-11 4.5-21t15-16q9.5-6 21-6t21 6q9.5 6 14.5 16t5 21q0 17-11 30l9 10-6 7-10-11q-10 6-21.5 6.5t-21-5.5q-9.5-6-15-16t-5.5-21zm55 29q-5-5-9-8l6-7 11 9q8-10 8-23 1-9-3-17t-11.5-12.5q-7.5-4.5-16-4.5t-16 4.5Q163 174 159 182t-2 17q-2 13 7 23t23 10q8 1 14-4z"/></svg>