<svg viewBox="0 0 300 300.002" xmlns="http://www.w3.org/2000/svg"><path d="M44 59l19 217 87 24 87-24 19-217H44zm39 44h67v27H86l-3-27zm67 81h33l-3 34-30 8v-42zm0-27v-27h37l-2 27h-35zm-62 0h62v27H90l-2-27zm132 105l-70 20v-28l-55-15-3-42h26l2 21 30 8v28l54-15 13-136h-67V77h87l-17 185zm-3-159l-13 136-54 15v-28l30-8 3-34h-33v-27h35l2-27h-37v-27h67zm-67 54v27-27zm0-54v27-27zm0 123v28-28zM94 0h32v13h-19v14h19v13H94V0zm38 0h33v12h-19v2h19v27h-33V29h19v-3h-19V0zm39 0h32v12h-18v2h18v27h-32V29h19v-3h-19V0zm46 103l-13 136-54 15v-28l30-8 3-34h-33v-27h35l2-27h-37v-27h67z"/></svg>