<svg viewBox="0 0 300 300.002" xmlns="http://www.w3.org/2000/svg"><path d="M268 83q1 7 9.5 16t11.5 8.5q3-.5 4-8t1-16.5l-1-9q0-3-2-3-3 7-12 10-6 2-11 2zm1-5q8 0 15-5.5t7-12q0-6.5-6-7.5 1 2 1 4 0 5-6 9t-14 4q-2 0-3.5 1t-1.5 3q0 4 8 4zm-3-12q-3 0-5-3v-3q-1-3-2-4 2 1 5 1t7.5-2q4.5-2 7-2t2.5 3.5q0 3.5-5.5 6.5t-9.5 3zM17 153q2 0 3-10l2-9q2-4 4-4t2 3q0 3-1 9t-1 8.5q0 2.5 1 2.5t5-10q4-16 6.5-16t2.5 3q0 3-3.5 13T34 155q0 2 1.5 2t5-6.5q3.5-6.5 5-11.5t3.5-5q2 0 2 4t-3.5 12.5Q44 159 40 167l-1 2q-8 17-8 22.5t5 9.5q-6 0-8.5-1.5T23 194q-4 8-2 14 2 4 7.5 9t7 9q1.5 4-2.5 11 0-1-3-3-7-5-10-9-6-7-6-18 1-8 4-15 2-5 7.5-12.5T31 169q0-3-2-4l-3-4q-2-2-3.5-2t-2.5 3q-1 3 1 6v1q1 2 1 4t-3 6q-3 4-5.5 4t-4-6Q8 171 8 161.5T9.5 144q1.5-8 3.5-8t2 2v9q0 6 2 6zm28 33q4 0 6.5-3t2.5-9v-11q0-9 3-13v5q0 5 2.5 13t2.5 13q0 5-2.5 5t-3.5-2v-1q-1 0-1 2.5t1.5 4.5q1.5 2 4.5 2t5-2q2-2 2-6.5t-4-15Q60 158 60 153t3-11q0 9 4 19 2 5 8 15t6 14q0 4-2.5 4t-3.5-1.5q-1-1.5-1-2.5t-.5-1q-.5 0-1.5 1.5t-1 4q0 2.5 2 5t6.5 2.5q4.5 0 7-3t2.5-6.5q0-3.5-3-8.5l-6-10q-7-10-9-15-5-8-5-15.5t3-12.5q-19 13-19 33 0 9-1 12t-3.5 3q-2.5 0-4.5-2l-1-1q-1 0-1 3t2 5q2 2 4 2zM239 74q3 0 5.5-1t2.5-2q0-1-3-1t-9-1l-9-3q-1 0-1 1.5t4 4q4 2.5 10 2.5zm-25-14h3q8-1 13-3 2-1 3.5-1t3 2 3 2q1.5 0 4.5-1l4-1q2 0 5 5.5t3 9.5q0 4-5.5 6.5T237 82q-10 0-16.5-7T214 61v-1zM48 228q-3 0-6.5 4.5T38 243q0 10 9 19t22 9q11 0 16-5.5t5-13.5q0-12-7-20t-17-8q-6 0-10 3.5t-4 10q0 6.5 4.5 12T71 255q4 0 6.5-2.5T80 246q0-4-3-8t-7-4q-4 0-4 2.5t2.5 4.5q2.5 2 5.5 2l2-1 1 2q0 4-5.5 4t-9-3q-3.5-3-3.5-7t2.5-6q2.5-2 6.5-2 7 0 11.5 5t4.5 12q0 13-13.5 13T51 250q-6-10-3-22zm118 43q0 1 1.5 2.5t3.5 1.5q2 0 3-1.5t1-3q0-1.5-1-3t-3-1.5q-2 0-3.5 1.5T166 271zm9 22h5l2-1q2 0 2 2t-4.5 4q-4.5 2-11.5 2-4 0-6.5-2t-3.5-5q-10 7-21.5 7t-20.5-3q-4-2-10-7l-6-3q-2-1-6.5-1t-7.5-2q-6-2-11-8l5 1q7 0 11.5-3.5T96 264l-1-4q4 2 7.5 6t4.5 10q0 1 3 2t5 1q9 0 10-9 10 0 16.5-5.5T149 251q4 1 7.5 4t4.5 4q3-1 7.5-1t11.5 3v-1q0-3 2.5-3t2.5 4l1 2 1 1q2 2 2 4t-2 2h-2l-1.5 5q-1.5 5-3.5 8.5t-7 3.5q-5 0-9-4t-6-8.5q-2-4.5-4.5-4.5t-4.5 3q-5 5-12.5 8.5T120 285h-8q0 1 3.5 2.5t8.5 1.5q9 0 16-3 4-2 8-6 3-2 4-2t2 2q3 7 9 10t12 3zm68-71q-1 0-6 5-13 12-18 12-1 0-2.5-2t-1.5-4.5q0-2.5 5.5-3.5t9.5-5q3-2 6.5-6t6.5-6q3-2 9.5-2t12 5.5Q270 221 270 230q0 7-5 14.5t-11 13q-6 5.5-8 5.5t-3.5-2q-1.5-2-1.5-4t2-3q8-3 12.5-8.5t4.5-9q0-3.5-1-3.5t-4 4q-10 15-15 15t-9-3q-4-3-4-5.5t7-8.5q11-7 11-10t-2-3zm12-7q-4 0-4 4t4 6q2 1 4 1 5 0 5-3t-3-5.5q-3-2.5-6-2.5zM46 86q0 2 1.5 3t3.5 1q2 0 3-1t1-3q0-2-1-3.5T51 81q-2 0-3.5 1.5T46 86zm-5-10q0 2 1 3t3 1q2 0 3.5-1t1.5-3q0-2-1.5-3.5T45 71q-2 0-3 1.5T41 76zm-4 30q-3 1-5.5 3.5t-2.5 6q0 3.5 2 5t5 1.5q3 0 4-1-4-4-4-9 0-3 1-6zm-28 2v2q0 3 2 5.5t5.5 2.5q3.5 0 8.5-6l-4 1q-8 0-12-5zm-4 10q0 12 6.5 12t15.5-7q-8 2-11 2-6 0-11-7zm29-45q1-3 1-7t-2.5-8.5Q30 53 26 53t-6 2.5Q18 58 18 61q0 6 5 9t11 3zm-9 28q-3 0-5.5-2.5t-2.5-5q0-2.5 1-4t2-1.5q1 0 1 1 1 7 7 10l1 1-1.5.5q-1.5.5-2.5.5zm10-13l1.5 1q1.5 1 1.5 2t-.5 2q-.5 1-2.5 1t-4.5-3Q28 88 28 85.5t3-2.5h2q0 1 1 2l1 3zM9 102v1q0 1 .5 1.5t1.5.5l5 1q4 1 7.5 1t8.5-3q5-3 8-8t3-7q0-2-1-3l-2-1q-1-1-1-3l-1-2-3-1h-3q-8 0-13 3.5T12 91q-1 2-2 7l-1 4zm37-5q-5 6-5 13 0 5 2.5 8t6.5 3q4 0 6-3t2-7.5q0-4.5-3.5-8T46 97zM22 76q-1 0-3 1t-5 1q-3 0-5.5-2.5T6 70q0-7 6-9v2q0 10 10 13zm197 37q0 2 1 3t3 1q2 0 3.5-1t1.5-3q0-2-1.5-3.5T223 108q-2 0-3 1.5t-1 3.5zm0 14q0 2 1.5 3.5t3.5 1.5q2 0 3.5-1.5t1.5-3.5q0-2-1.5-3.5T224 122q-2 0-3.5 1.5T219 127zm-16 9q0 3 2 5.5t5.5 2.5q3.5 0 5.5-2.5t2-5.5q0-3-2-5t-5.5-2q-3.5 0-5.5 2t-2 5zm4-15q0 1 1.5 2.5t3 1.5q1.5 0 3-1.5t1.5-3q0-1.5-1.5-3t-3-1.5q-1.5 0-3 1.5T207 121zm-15 8q0 2 1.5 3.5t3.5 1.5q2 0 3-1.5t1-3q0-1.5-1-3t-3-1.5q-2 0-3.5 1.5T192 130v-1zm12-26q0 3 2 5.5t5 2.5q3 0 5-2.5t2-5.5q0-3-2-5t-5-2q-3 0-5 2t-2 5zm8-13q0 1 1.5 2.5t3 1.5q1.5 0 3-1.5t1.5-3q0-1.5-1.5-3t-3-1.5q-1.5 0-3 1.5T212 90zm-20 10q0 2 1.5 3.5t3 1.5q1.5 0 2.5-1.5t1-3q0-1.5-1-3t-3-1.5q-2 0-3 1.5t-1 2.5zm-1 15q0 3 2 5t5 2q3 0 5-2t2-5q0-3-2-5t-5-2q-3 0-5 2t-2 5zm-14 7q0 3 2 4.5t4.5 1.5q2.5 0 4.5-1.5t2-4.5q0-3-2-4.5t-4.5-1.5q-2.5 0-4.5 1.5t-2 4.5zm4-16q0 2 1.5 3.5t3.5 1.5q2 0 3-1.5t1-3.5q0-2-1-3t-3-1q-2 0-3.5 1t-1.5 3zm39 35q0-2 1.5-3t3-1q1.5 0 3 1t1.5 3q0 2-1.5 3t-3 1q-1.5 0-3-1.5T220 141zm3 128q1 0 1 2 0 5-5 8.5t-12 3.5q2-5 2-8v-3h1q7 0 12-3h1zm1-11q1-1 1-3v-3q0-2-3-3.5t-8.5-1.5q-5.5 0-9 2t-3.5 3v5q0 2 3.5 3t7.5 1q8 0 12-3zm6 1q-9 7-21 7-4 0-8-1l-2-1q-1 0-3 3-6 7-6 15 0 4 2.5 6.5t7.5 2.5q15 0 25.5-7.5T236 267q0-4-2-6t-4-2zm4-94q0 6 2.5 6t4-2q1.5-2 1.5-5l-1-10q0-1 1-1t2.5 2.5 2.5 2.5q1 0 4-2l2-2q1 0 1 1l-3 6q0 1 3 1.5t3 1.5q0 1-4 2l-6 1q-5 2-5 5t5.5 3q5.5 0 11.5-3l3-1h1l-2 3q-2 3-2 4t3.5 3q3.5 2 3.5 2.5t-2 .5l-4-1q-2 0-2 1l-1 3q0 4-.5 4t-2.5-3q-5-10-11-10-3 0-3 2.5t3 6q3 3.5 6 5.5l2 2q3 1 3 1.5t-3.5.5q-3.5 0-3.5 2l1 6q0 2-1 2t-3-3-3-3q-1 0-3 1.5t-2.5 1.5q-.5 0-.5-.5t1-4.5q3-6 3-9 0-9-3-9t-5 2.5q-2 2.5-3 6.5v4q-1 7-1.5 7t-1.5-3q-1-3-2-3t-4 2l-3 1q0-1 2-4l1-3q0-1-3.5-1.5T212 187q0-1 5-2t9.5-4q4.5-3 4.5-6.5t-2-6q-2-2.5-6-5.5l-3-2q-3-1-3-2t3.5-1 3.5-1v-5q0-2 .5-2t2.5 3 2.5 3q.5 0 2.5-2.5t3-2.5q1 0 1 2t-1 6-1 6zm-53-32q0 3 1.5 4t5 2.5q3.5 1.5 5.5 3.5t2 6l-1 6q0 5 2.5 5t2.5-4l-1-5q0-5 5-5 1 0 5.5 2.5t7.5 2.5q0 2-3 4l-5 2q-4 1-6 2.5t-2 5.5q0 4 7 4 2 0 2.5-.5t.5-2.5v-3q0-1 1-1t7.5 5q6.5 5 6.5 7t-6.5 3.5q-6.5 1.5-9 1.5t-2.5-1l2-4q0-2-6-2-4 0-4 1.5t2.5 5q2.5 3.5 2.5 4.5 0 4-5 4-2 0-4.5-2t-2.5-4q0-2 1.5-5t1.5-4q0-1-1.5-1t-4.5 3.5q-3 3.5-5 5.5-4 3-11 3 5-4 5-9l-1-7q0-5 3-5t6 3q3 3 4 3t2-1q1-1 1-3t-2-4l-5-3q-5-3-7-5t-2-7q0-5 4-12zm21 72q0 3 2.5 3t2.5-2.5q0-2.5-1-4.5t-2-2q-1 0-1 1l-1 5zm-6-15q8 2 13 7.5t5 11q0 5.5-2.5 8.5t-7 3q-4.5 0-7-2.5T195 210q-1-2 1-7t2-7.5q0-2.5-2-5.5zm-15 19q2 2 2 4l-1 5q0 2 1.5 3.5t3.5 1.5q2 0 3.5-1.5t1.5-4.5q0-3-3-5.5t-8-2.5zm37-7q1 2 1 3.5t-1 4.5q-1 3-1 5.5t2 4.5q2 2 5 2t5.5-2.5q2.5-2.5 2.5-6.5t-4-7.5q-4-3.5-10-3.5zm-34-6q6 1 6 4t-4 3h-5q-5 0-7 3 3 0 3 2.5t-1 3.5l-5 1q-5 2-8 4-4 3-4 10t6.5 12.5Q172 245 182 245q6 0 9-1.5t3-3q0-1.5-2-1.5t-2-1l2-4q0-1-2-1l-2 1q-6 2-11 2t-8.5-2.5q-3.5-2.5-3.5-5t1-2.5l2 1q1 0 1-2 0-4 2-4l3 1q7 6 19 6 5 0 10.5-1t7.5-3q0 11-7.5 19.5t-22 8.5q-14.5 0-23-9.5T150 220q0-13 9.5-22.5T183 188q3 0 6 1t3 2.5q0 1.5-4 2t-4 2.5zM112 69q5 0 7.5 4t2.5 9q0 3-.5 5.5T120 90q-1 0-1-3v-2q-1-4-2-4t-2 3q-1 3-1 7t2 4q2 0 3-1 0 4-3 7t-7 3q-6 0-10-7-3-4-4-11-5 5-10 7.5T73.5 96q-6.5 0-10-3.5T60 83q0-2 1-4t2.5-2q1.5 0 1.5 3 1 6 4.5 6t5-4.5q1.5-4.5 1.5-8T73 70q-3 0-5 2 2-6 6-9t10-3q6 0 9.5 4.5T97 76v4q7-11 15-11zm-9 13q0-2-1-2t-4 4q1 6 2 6t2-2.5q1-2.5 1-5.5zm-15 5q2 0 6-5v-4q0-2-.5-3.5T91 73q-2 0-3 4t-1 7q0 3 1 3zm18 9q2 1 4-5.5t2-11.5q0-3-1.5-3t-3.5 6.5q-2 6.5-2 10.5t1 3zm-27-6q2 0 5-10t3-14q0-1-1.5-1T81 75q-3 10-3 14 0 1 1 1zm12 9q-3 0-4 3.5T86 116q-3-6-7.5-11t-10-5q-5.5 0-5.5 9v4q1-3 5-3t7.5 2.5Q79 115 82 119q-8-2-12-2t-6.5 1.5q-2.5 1.5-4.5 5t-2 8.5v3q3-6 9-9t12-3h3q-4 4-4 12 0 2-2 2 0 2 1.5 6.5t1.5 6q0 1.5-2 1.5 0 3 2.5 6.5t2.5 5v2.5q0 1 3 4l3 3q1 2 2.5 2t3-1.5Q94 171 94 170t-1-2q-1-1-3-6l-1-1q-1 0-2-2l-1-9q-2 0-2-4v-9q-1 0-1-2t2-5q2-3 2-6 8 6 8 14v6q5-2 7-4 4-4 4-8 0-9-14-11 6-2 13-2 11 0 12 7 2-4 2-7.5t-2.5-6Q114 110 109 110q-7 0-19 8 2-5 4-7.5t4-2.5l2 1q-1-4-4-7t-5-3zm188 80q4 0 7 5t3 11.5q0 6.5-3 13t-9 11.5q0-5-2.5-7.5T267 208q-5-2-7-3.5t-2-5q0-3.5 2.5-6t5.5-2.5q5 0 8 3-3-2-3-6t2-6.5q2-2.5 6-2.5zM196 65q-1-1-3-1l-3-1q-3 0-5.5 2t-3.5 5v-4q0-4 2.5-7.5t8-3.5q5.5 0 10.5 3l1 1 3-2q1 0 1 4t-1.5 8.5Q204 74 200 76q-1-4-5-6-1 0-1-2t2-3zm-17 8q4 4 9 4h3q2 0 2 1.5t-3 4.5h5q5 0 9-3.5t4-10.5q3 3 3 7 0 9-5.5 13T193 93q-4 0-7-1l-1-1q-1 0-2 2.5t-2.5 2q-1.5-.5-3-4t-1.5-9q0-5.5 3-9.5zM84 2q0-1-8-1-4 0-6.5 3T64 7q-3 0-5.5-3T52 1h-6q-2 1-2 1.5T46.5 4Q49 5 49 7t-7 5q-4 1-4 2.5t2 1.5l9-2q3 0 3 2t-3 5.5Q46 25 46 26t1 1q1 0 4.5-2.5t5.5-3q2-.5 2.5 1.5t.5 6.5q0 4.5 1.5 4.5t3-6q1.5-6 4-6t5.5 4q3 4 4 4t1-1q0-1-1.5-5T76 18q0-2 3-2l8 2q1-1 1-2t-5-4q-5-3-5-5t3-3q3-1 3-2zm26 12q0 1 4 3.5t6.5 2.5q2.5 0 2.5-5 0-2-1-3t-4-1q-3 0-5.5 1t-2.5 2zm12 22q0-4-10-14-9-8-9-10l1-2q1-1 8.5-4t7.5-4q0-1-4-1-8 0-17 2t-9 4.5q0 2.5 7 9t7 8.5q0 2-2 2t-8-2-8-2q-2 0-2 3t3 11q3 6 3 7t-.5 1q-.5 0-5.5-4-8-7-9.5-7T73 38v4q0 4-1.5 4T68 42t-3.5-4q-1.5 0-3 7t-3 7Q57 52 57 44t-2-8q-2 0-5.5 5.5T45 47q-1 0-1-2l2-11q0-3-2-3t-7 3q-5 3-6.5 3T29 36q0-1 6-7t6-8q0-2-8-2.5T25 16q0-2 6-5.5T37 5q0-2-7-3.5T17 0Q7 0 7 2t7.5 4Q22 8 22 9t-7 5q-9 6-9 8t11 2q11 0 11 1.5T20 36Q9 48 9 50.5t2.5 2.5Q14 53 26 47q8-5 10-5t2 3l-1 11q0 4 2.5 4t6-3.5q3.5-3.5 5-3.5t2.5 9l1 8q1 4 3.5 4T63 61q2-9 3.5-9t4 3 4 3q1.5 0 2.5-5.5t3-5.5q2 0 9.5 6.5t10 6.5q2.5 0 2.5-3t-5-13q-3-8-3-10t1.5-2q1.5 0 9.5 3 10 3 13.5 3t3.5-2zM20 29q0 2-4.5 6T9 39q-2 0-2-3.5T9 30q2-2 6.5-2t4.5 1zm82 12q0 3 7 13t9 10q2 0 3-2.5t1-4.5q0-2-1-3.5t-9-7.5q-8-6-9-6t-1 1zM281 7q0 3 2.5 3t2.5-3q0-3-2.5-3T281 7zm-18 25q0-4-5-6-3-2-8.5-3.5T244 20q0-1 5.5-2.5T260 16q-6-7-17-10-4-1-4-1.5t6-2Q251 1 257 1q13 0 13 7 0 1-1 4.5t-1 7q0 3.5 4 3.5t4-8V8q0-3 2-5.5t6-2.5l4 1q3 1 6 1-4 2-4 7 0 1 1 5 2 6 2 12 0 12-10.5 18T256 50q-9 0-17-1-1-1-1-1.5t1-1.5q7-3 7-8l-1-6q0-1 .5-1t2.5 2q5 4 10 4t5-5zm18-12q0 8-5 13.5T261 40h4q11 0 16-3.5t5-9q0-5.5-5-7.5zm-7 144q2-6 7-15l-1-1q-12-6-12-11.5t4.5-10q4.5-4.5 6.5-4.5t2 3l-2 14q0 2 1 4t2.5 2q1.5 0 4.5-4.5t3-9.5q0-7-5-11t-9-4l-4 1q-8 4-17 4-16 0-24-13-6-10-6-21l1-1v1q4 2 10 2l13-1q9 0 16 6 4 4 11 14l1 1 2 1q6 4 9 8 6 5 6 14 0 4-2 8t-6 9q-7 9-9 15 3 0 7-4.5t7.5-4.5q3.5 0 3.5 4.5t-2.5 9.5q-2.5 5-6.5 8l1-2q0-3-1.5-5t-4-2q-2.5 0-4.5 2t-4 5l-2 4q-5-20-15-28-3-3-9.5-4.5T237 143q-3-2-3-7l1-5q1-4 1-6v-3q4 2 5.5 4t3 7q1.5 5 4.5 8l4 3q6 5 9 9 6 6 9 16v-3q0-7-5-16-4-5-11-13t-7-10q9 1 12.5 4.5T268 148l2 3q4 10 4 13zm-3-54q0-1-2-2-4-3-4.5-6.5T263 98q-1 0-1.5 3t-2.5 3q-2 0-5-7-2-3-3-3t-1 2l1 3q0 3-2 3t-4.5-3.5Q242 95 241 95t-1 1l2 5q0 1-4 1.5t-4 2q0 1.5 3 1.5l8-1q3 0 3 1t-2 3q-2 2-2 2.5t1 .5q1 0 5.5-2.5t6.5-2.5q2 0 2 1t-2 3q-2 2-2 3.5t1 1.5q1 0 4-3t5-3l5 1q1 0 1-1zm-83-67q1 0 2 6v1q0 2 1 2t2.5-2.5T196 47l3 1q8 4 14 4 11 0 19-7t8-19q0-12-7.5-18.5T213 1q-5 0-12 2l-4 1q-1 0-3-2t-3-2q-1 0-1 4t-1.5 4Q187 8 182 5q-7-3-7-1.5t3.5 6.5q3.5 5 3.5 6t-3 2.5-3 2.5q0 1 3.5 2.5T183 27q0 2-4 4.5t-4 3.5q0 1 4 1t4 1.5q0 1.5-3 6.5t-3 6q0 1 1 1t5-4 5-4zm3-18q0-1-2-2.5t-2-2.5h5q1 0 2-3l1-3 1.5 3 1.5 3 6-2v1l-3 4q0 1 3.5 2t3.5 1.5q0 .5-3.5 1l-3.5.5 2 5v1l-5-2q-1 0-2.5 2.5t-2 2.5q-.5 0-.5-1v-5q0-1-1-1h-5v-.5q0-.5 2-2.5l2-2zm22 21q-6 0-9.5-2t-3.5-3.5q0-1.5 1.5-1.5t5 1.5Q210 42 211 42h1l-2-7q0-1 1-1l10 1q1 0 1-1t-4-4.5q-4-3.5-4-4t4.5-2.5q4.5-2 4.5-3t-6-1.5-6-1.5q0-1 1-3l2-2q0-1-2-1l-3 1q-4 1-6 1t-2-2q0-2 3.5-3.5T212 6q9 0 13.5 5.5T230 27q0 10-5.5 14.5T213 46zm-76 193q0 2-1 3-1-1-3-2t-3-1q-4 0-6 2t-3.5 6q-1.5 4-3.5 6.5t-7 2.5l-7-1q-1 0-1 2t4 5.5q4 3.5 12 3.5t15-4.5q7-4.5 7-11.5v-4q0-2 1-2t2.5 1.5 2.5 1.5q3 0 3-3t-2-4q1-1 1-2.5t-1-2.5q-1-1-2-1t-3 1q0-4-3-4t-3 3l1 5zm-30 4q-2 0-5-2t-3-4q0-2 2.5-2t5.5 2q3 2 3 4t-3 2zm-31-25q13 3 14.5 12.5t4 12.5q2.5 3 6 4.5t7.5 1.5q7 0 7-4.5t-4-9q-4-4.5-10-4.5h-2q-3 0-4-1t-2-5q-2-7-3-10-5-7-14-7-3 0-5.5 1.5T68 213q0 2 1.5 3t6.5 2zm56-13q0-3-5-6t-5-6.5q0-3.5 3-9.5 2 8 9 11t9 6.5q2 3.5 2 8.5 0 9-6.5 16t-17.5 7q-11 0-18.5-7.5T95 208q0-6 2-6t4 1v1q4 4 8.5 5.5t10 1.5q5.5 0 9-2t3.5-4zm1 8q-1 0-2 1l-3 1q-1 1-1 3v4q0 3 2.5 3t6-4.5q3.5-4.5 3.5-7.5t-2-3l-4 3zm-36-57q0-2 2-4l6-4q4-3 6.5-5.5t2.5-5.5q0-3-2-6 5 2 8 6t3 7.5q0 3.5-4 8.5t-4 7.5q0 2.5 4 6t4 6.5q0 3-4 9.5t-4 10.5q0 4 3 7.5t7 3.5l-5 1q-9 0-16-6t-7-14q0-8 6-14 5 4 7.5 4t2.5-1.5q0-1.5-5-5t-8-6q-3-2.5-3-6.5zm-65 56q1 2 3 4t5 2q3 0 4-1 1 2 3 3.5t5 1.5q3 0 5-2.5t2-5.5l-1-2 1-1q3 0 4.5-2.5T65 203q0-3-2.5-4.5t-5-1.5q-2.5 0-3.5 1-1-2-3.5-4t-5.5-1.5q-3 .5-4.5 3T39 201l1 2h-1q-3 1-5 3t-2 6zm21-5q0 2-1 3.5t-2.5 1.5q-1.5 0-3-1t-1.5-3q0-2 1-3t2.5-1.5q1.5-.5 3 .5t1.5 3z"/></svg>