<svg viewBox="0 0 300 300.002" xmlns="http://www.w3.org/2000/svg"><path d="M249 136l-2-4q0-18-9-30-6-9-19-16h1q4-2 6.5-3t3.5-5q5-1 7-3.5t3-5.5v-1q8-5 8-11 6-4 4-10 6-7 4-12 3-4 2.5-6.5T256 23q3-5 .5-9t-9.5-3q-4-6-14-5-3-4-10-3-5-4-13-1-3-2-5.5-2T199 1l-2 2q-5-2-10 0l-2 1q-4 0-6.5 1T173 9l-1 1h-4q-7 4-12 12-4 7-6 13-2-6-6-13-5-8-12-12h-4l-1-1q-3-3-5.5-4T115 4l-2-1q-5-2-10 0l-2-2q-4-1-6-1t-5 2q-8-3-13 1-7-1-10 3-10-1-14 5-7-1-9.5 3t.5 9q-3 3-3 5.5t3 6.5q-2 5 4 12-2 6 4 10 0 6 8 11v1q1 3 3 5.5t7 3.5q1 4 3.5 5t6.5 3h1q-13 7-19 16-9 12-9 30l-2 4q-9 6-15 17.5T31 179q1 14 12 26 1 7 5 17l1 4q2 12 9 22 5 8 13 13 6 4 10 5 17 12 31 17 16 17 38 17t38-17q14-5 31-17 4-1 10-5 8-5 13-13 7-10 9-22l1-4q4-10 5-17 11-12 12-26t-5-25.5q-6-11.5-15-17.5zm-13-4q-1 5-15-5t-26-22q-12-12-7-13 20-4 34 7.5t14 32.5zm-25 54q-11 7-24.5 3t-22-16.5q-8.5-12.5-7-26T170 126q11-7 24.5-3t22 16.5q8.5 12.5 6.5 26T211 186zM171 17q1 4 1 5l3-3q4-5 7-8v2q0 3 2 4 3-5 9-8-2 3 0 5v1l1-1q6-4 11-6h-1q-2 4-1 5 7-3 14-5l-1 2q-4 2-2 4 6-3 13-3-4 3-2 5 9-3 15-2l-3 4h14l-1 1q-4 5-5 10h6q-1 3-6 7-2 2-2 3 2 1 6 0-1 3-6 7l-3 3q1 1 5 0-4 5-11 9 1 1 6 1-3 3-10 7l-3 1q2 2 5 2-2 2-11 5h-3q1 2 4 3-3 2-10 2-5 0-5 1.5t3 2.5q-11 1-20-2-15-4-18-16 15-17 55-37-36 12-60 31-13-6-9-21 3-11 13-21zm-20 67q10 0 20.5 6.5T182 104q0 7-8.5 12t-22.5 4.5q-14-.5-23-5.5t-9-11.5q0-6.5 10-13t22-6.5zm-72-7q3-1 4-3h-3q-9-3-12-5h1q3 0 5-2l-3-1q-7-4-10-7 5 0 5-1-6-4-11-9 5 1 6 0l-3-3q-5-4-6-7 4 1 6 0 0-1-3-3-4-4-5-7h6q-2-5-6-10v-1h14l-3-4q5-1 15 2 2-2-2-6 7 1 13 4 1-2-2-5l-1-1q7 2 13 5 2-1-1-5 5 2 11 6v1l1-1q2-2 0-5 6 3 9 8 2-1 2-4v-2q2 3 7 8l2 3q1-1 2-5 10 10 13 21 4 15-9 21-24-19-60-31 40 20 55 37-3 12-18 16-9 3-21 2 4-1 3.5-2.5T89 79q-7 0-10-2zm35 14q4 1-8 13t-26 22q-14 10-14 5-1-21 13-32t35-8zM53 200q-7-5-10-16.5t1-22.5q4-11 17-18 5-2 6.5 7t0 22Q66 185 62 193.5t-9 6.5zm53 58q-6 4-18.5.5T66 242q-6-12-6-23t6-15q6-4 15.5.5t18 14.5q8.5 10 10.5 22t-4 17zm-15-70q-11-7-12.5-21t7-26.5q8.5-12.5 22-16t24 3.5q10.5 7 12.5 20.5t-6.5 26q-8.5 12.5-22 16.5T91 188zm60 103q-8 0-16-3.5t-13-8.5q-5-5-5-7 0-6 12-9.5t23-4q11-.5 21.5 3t11 7.5q.5 4-5 9t-13 9q-7.5 4-15.5 4zm34-74q0 13-10 22.5t-24 9.5q-14 0-24.5-9T116 218v-1q0-13 10-22t24.5-9q14.5 0 24.5 9t10 22zm49 25q-7 10-15.5 14.5t-16 4.5q-7.5 0-11.5-3-6-5-2.5-19t11.5-23q10-12 19-16.5t15 .5q6 5 6.5 19t-6.5 23zm13-42q-4 2-8-7t-6-22q-2-13-.5-21.5t7.5-7.5q12 7 16 18.5t1 22.5q-3 11-10 17z"/></svg>