<svg viewBox="0 0 300 300.002" xmlns="http://www.w3.org/2000/svg"><path d="M122 102l-16 52h32l-16-52zm0 0l-16 52h32l-16-52zM247 4H53Q31 4 15.5 19.5T0 57v186q0 22 15.5 37.5T53 296h194q22 0 37.5-15.5T300 243V57q0-22-15.5-37.5T247 4zm-63 206h-26q-2 1-2-1l-11-30H99l-10 30q0 2-2 1H64q-2 0-2-2l42-120v-8q0-1 1-1h33q1 0 1 1l46 128q1 2-1 2zm42-2q0 2-1 2h-25q-2 0-2-2v-96q0-2 2-2h25q1 1 1 2v96zm-2-112q-5 4-11.5 4t-11-4.5Q197 91 197 84t4.5-11q4.5-4 11.5-4t11 4.5q4 4.5 4 11T224 96zm-102 6l-16 52h32l-16-52z"/></svg>