<svg viewBox="0 0 300 300.002" xmlns="http://www.w3.org/2000/svg"><path d="M283 77H17q-7 0-12 5T0 94v112q0 7 5 12t12 5h266q7 0 12-5t5-12V94q0-7-5-12t-12-5zm0 3q6 0 10 4t4 10v112q0 6-4 10t-10 4H17q-6 0-10-4t-4-10V94q0-6 4-10t10-4h266zM43 108h22v85H43v-85zm70 0l-5 40-6-40H73v85h19l1-56 8 56h14l7-57v57h20v-85h-29zm64 15q1 1 1 3l1 7v33q0 9-1.5 11t-5.5 2v-57q3 0 5 1zm-1 70q8 0 12-.5t7-3q3-2.5 4-6.5t1-15v-30q0-12-1-16.5t-4-7.5q-3-3-8.5-4.5T166 108h-17v85h27zm60-20q0 6-.5 7.5t-3 1.5q-2.5 0-3-1.5t-.5-7.5v-22q0-6 .5-7.5t3-1.5q2.5 0 3 1.5t.5 7.5v22zm-29-65v85h20l2-5q2 3 5.5 4.5t8.5 1.5q5 0 9-2.5t5-6.5q1-4 1-11l-1-34q-1-7-7-9-3-2-7.5-2t-7.5 1.5q-3 1.5-6 5.5v-28h-22z"/></svg>