<svg viewBox="0 0 300 300.002" xmlns="http://www.w3.org/2000/svg"><path d="M232 0H68Q49 0 33.5 9T9 33.5Q0 49 0 68v164q0 19 9 34.5T33.5 291q15.5 9 34.5 9h164q19 0 34.5-9t24.5-24.5q9-15.5 9-34.5V68q0-19-9-34.5T266.5 9Q251 0 232 0zm-3 186q-14 16-44 36-24 17-35 22-7 3-8 .5t-1-5.5l2-9q1-6-.5-9t-8.5-5q-24-3-43-14.5T61 173q-11-17-11-37 0-22 13.5-40.5T100 66q23-11 50-11t50 11q23 11 36.5 29.5T250 136q0 26-21 50zm-31-61v8h19q2 0 2 1v8q0 1-2 1h-19v8h19q2 0 2 2v7q0 2-2 2h-28q-2 0-2-2v-44q0-2 2-2h28q2 0 2 2v7q0 2-2 2h-19zm-83 28v7q0 2-2 2H85q-2 0-2-2v-44q0-2 2-2h7q2 0 2 2v35h19q2 0 2 2zm17-37v44q0 2-2 2h-7q-2 0-2-2v-44q0-2 2-2h7q2 0 2 2zm48 0v44q0 2-2 2h-7q-1 0-2-1l-20-27v26q0 2-2 2h-7q-2 0-2-2v-44q0-2 2-2h7q1 0 2 1l20 27v-26q0-2 2-2h7q2 0 2 2z"/></svg>