<svg viewBox="0 0 300 300.002" xmlns="http://www.w3.org/2000/svg"><path d="M256 44q-21-21-48.5-32.5T151 0q-41 0-75 20T22 74Q2 108 2 148.5T22 223L1 300l79-21q33 18 71 18 40 0 74-20t54-54q20-34 20-74 0-30-11-57t-32-48zM151 272q-34 0-63-17l-5-3-47 13 13-46-3-5q-19-30-19-64.5t16.5-63q16.5-28.5 45-45T151 25q24 0 47 9.5t40.5 27Q256 79 265 101.5t9 47.5q0 33-16.5 61.5t-45 45Q184 272 151 272zm67-92q-20-11-24-12t-6-1q-2 0-3 3-4 4-12 14-3 4-8 1l-3-1q-15-7-27-17.5T114 141q-1-3-.5-4.5t2.5-3.5l5-6q2-2 4-5v-1q2-3 0-7l-12-28q-1-4-3-5t-4-1h-8q-6 0-10 5h-1q-5 6-7 11-5 9-5 20t7 25q3 7 8 13l1 1q9 13 20 24 21 22 43 31 9 4 20 7.5t24 1.5q6 0 14.5-5.5T223 202q2-6 2.5-11t0-6.5q-.5-1.5-5.5-3.5l-2-1z"/></svg>