<svg viewBox="0 0 300 300.002" xmlns="http://www.w3.org/2000/svg"><path d="M172 94q-5 2-7 7t-2 16l3-2q2-2 5.5-3t7-4q3.5-3 4.5-6.5t1-9.5q-8 0-12 2zm-36 3q-4 5-6 11l-16 63-13-51q-3-11-8-17-3-4-9-5-3-1-6-1t-6 1q-6 1-9 5-5 6-8 17l-13 51-17-67q-2-4-5.5-7t-8-4Q7 92 3 92H0l31 116h5q7 0 10-2 5-3 8-7t6-15l15-59q1-4 3-4t3 4l15 59q3 11 6 15t8 7q5 3 15 2l31-116q-3-1-7 0-8 1-13 5zm48 14q0 1-1.5 2.5T178 116l-8 4q-7 3-7 9v79h5q5 0 9-2t5.5-6q1.5-4 1.5-15v-74zm77 39l39-58h-5q-5-1-10.5.5t-9 4.5q-3.5 3-7.5 8l-18 26q-1 2-3 2t-3-2l-18-26q-4-5-7.5-8t-9-4.5Q204 91 198 92h-4l39 58-39 58h5q5 0 11-1t9.5-4q3.5-3 6.5-8l18-25q1-3 3-3t3 3l18 25q4 5 7 8 5 4 15 5 6 1 10 0l-39-58z"/></svg>