<svg viewBox="0 0 300 300.002" xmlns="http://www.w3.org/2000/svg"><path d="M36 270H14v-20H4v49h10v-20h22v20h10v-49H36v20zm57 8q0 12-11.5 12T70 278v-28H60v28q0 11 5.5 16.5t16 5.5q10.5 0 16-6t5.5-16v-28H93v28zm115 6l-11-34h-8l-11 34-11-34h-11l17 49h9l11-32 11 32h9l17-49h-11l-11 34zm40-6h18v-9h-18v-10h26v-9h-36v49h37v-9h-27v-12zm39-28h10v49h-10v-49zm-142 39l4 10h11l-22-49h-9l-21 49h10l4-10h23zm-11-27l7 18h-15l8-18zM276 88q0-12-6-24-4-9-12-18l-6-7-14 18q-16 22-31 46-21 35-37 68 0 1 .5 1.5t1.5.5q20-10 41-22 33-20 48-34l3-3q5-5 7-11 4-7 5-15zm-61-57l-2-6q-3-7-9-12-8-8-18-10l-15-3-2 5q-3 6-6 15-4 13-6 30-3 21-3 47 0 31 4 67 0 1 .5 1h1.5q15-22 28-44 22-39 27-62l2-10q1-11-2-18zm-36 160q-1 1 0 1 34 25 48 28l3 1q6 0 12-1.5t13.5-8Q263 205 270 194l-90-4q-1 0-1 1zm115-77q-22 12-43 24-48 27-73 44-1 0-.5 1l.5 1 70-1h4q6-1 11-3l5-2q7-4 12-9 8-7 12-17 0 1 1.5-3t2.5-9q1-5 .5-12t-2.5-14zm-172 68q-25-17-73-44L6 114q-3 9-3 19 1 7 3 14l2 5q4 10 12 17 5 5 12 9l5 2q8 3 15 3l70 1 .5-1q.5-1-.5-1zm-2 8l-90 4q7 11 14.5 17.5t13.5 8q6 1.5 11 1.5l4-1q14-3 48-28 1 0 .5-1t-1.5-1zM114 3q-10 2-18 10-6 5-9 12l-3 6q-2 7-1 18 0 6 2 10 5 23 27 62 13 22 28 44h1.5q.5 0 .5-1 6-57 2-100-2-30-9-50-4-10-7-14-7 1-14 3zM48 39q-3 3-6 7-8 9-12 18-6 12-5.5 23.5T32 109q4 5 7 8 15 14 48 34 21 12 41 22 1 0 1.5-.5t.5-1.5q-22-47-54-94-16-24-28-38z"/></svg>