<svg viewBox="0 0 300 300.002" xmlns="http://www.w3.org/2000/svg"><path d="M300 152q0-17-8-27.5T269.5 114q-14.5 0-23 11t-8.5 28q0 17 9.5 27t25.5 10q13 0 23-6v-16q-9 4-21 4-15 0-16-12h41v-8zm-41-8q0-6 3-9.5t7.5-3.5q4.5 0 7.5 3.5t3 9.5h-21zm-53-30q-9 0-16 6l-1-5h-19v97l21-4v-24q7 6 15 6 12 0 20-10t8-28q0-18-8-28t-20-10zm-5 57q-6 0-10-4v-31q4-4 10-4t9.5 6q3.5 6 3.5 14t-3.5 13.5Q207 171 201 171zm-59-62l20-5V88l-20 4v17zm0 6h20v73h-20v-73zm-23 6l-1-6h-18v73h21v-49q3-4 7.5-5t7.5 1v-20q-3-1-8.5 0t-8.5 6zM77 97l-20 5v66q0 10 6 16t15.5 6q9.5 0 14.5-3v-17q-4 2-9 1-7 0-7-8v-30h16v-18H77V97zm-56 39q0-4 7-4 11 0 21 5v-19q-10-4-22-4t-19.5 6.5Q0 127 0 137t7 15q4 3 14 7 5 2 8 3.5t3 4.5q0 5-8 5-11 0-23-7v20q11 5 23.5 5t20.5-6.5q8-6.5 8-17T46 150q-5-3-15-6-5-2-7.5-3.5T21 136z"/></svg>