<svg viewBox="0 0 300 300.002" xmlns="http://www.w3.org/2000/svg"><path d="M42 109L0 150l42 41v68h67l41 40 41-40h68v-67l41-42-40-40V42h-69L151 1l-40 40H42v68zm109-99l31 32h-21v80l-10 10-10-10V41h-21l31-31zM48 48h56L81 71l53 54v8h-10L71 80l-23 22V48zm66 0h20v67L90 71l24-23zm54 0h21l23 23-44 44V48zm30 0h55v55l-23-23-53 53h-9v-8l53-54-23-23zm32 41l23 23v21h-67l44-44zM71 90l44 43H48v-21l23-22zm-29 92L9 150l33-32v21h80l10 11-9 10H42v22zm218-63l31 31-32 32v-22h-80l-9-10 10-10h80v-21zm-119 12l10 10 10-10v9h10l-11 10 10 10h-9v10l-11-11-9 10v-9h-9l10-10-11-11h10v-8zm-93 35h68l-45 45-23-22v-23zm77 0h9v9l-55 54 23 23H48v-54l23 22 54-54zm42 10v-10h9l54 55 22-23v54h-54l23-23-54-53zm18-10h67v23l-22 22-45-45zm-35 3l11 10v80h21l-32 31-32-31h23v-81l9-9zm-16 15v68h-22l-23-23 45-45zm33 2l45 43-24 23h-21v-66z"/></svg>