<svg viewBox="0 0 300 300.002" xmlns="http://www.w3.org/2000/svg"><path d="M136 125q3 9 3 18.5t-3 18.5q-5 13-17.5 19T91 187l-8-1v-83h13q13 0 24 5.5t16 16.5zM247 4H53Q31 4 15.5 19.5T0 57v186q0 22 15.5 37.5T53 296h194q22 0 37.5-15.5T300 243V57q0-22-15.5-37.5T247 4zm-84 164q-3 11-10.5 19T136 200.5q-9 5.5-19 8T96 211l-40-1q-1 0-1-2V80q0-1 1-1l40-1q24 0 39.5 8t24 23q8.5 15 8.5 33 0 13-5 26zm87 29q-11 15-37 16-9 0-16-1.5t-13-4.5q-2-1-2-3v-21q0-1 1-1.5t1 .5q7 4 14.5 6t15.5 2q13 0 13-6.5T213 172h-1q-9-3-18-9-6-4-9.5-10.5t-3-14q.5-7.5 4.5-14.5 10-15 35-16 8 0 16 2 5 0 10 2l2 2v21q0 1-1 1.5l-1 .5q-6-3-12.5-4.5T221 131q-4 0-8.5 1t-4.5 5q0 4 6 7l10 5q11 4 16 7 8 5 11.5 11.5t3 15Q254 191 250 197z"/></svg>