<svg viewBox="0 0 300 300.002" xmlns="http://www.w3.org/2000/svg"><path d="M118 120q0 6-3 10.5t-9 6q-6 1.5-13 1.5H78v-35h15q11 0 18 4t7 13zM247 4H53Q31 4 15.5 19.5T0 57v186q0 22 15.5 37.5T53 296h194q22 0 37.5-15.5T300 243V57q0-22-15.5-37.5T247 4zm-90 206q0 1-1 0h-31l-1-1-6-8-21-36-2-2q-1-1-2-1H78v47q0 1-2 1H52q-2 0-2-1V81q0-2 2-2l42-1q17 0 28 5t17.5 14.5Q146 107 146 119q0 7-3.5 14.5t-9 12.5q-5.5 5-12.5 8l5 8 30 46q1 1 1 2zm95 0h-22q-2 1-2-1l-1-6q-6 5-13.5 7t-15 2q-7.5 0-13.5-2t-11-7q-5-5-7-12.5t-2-16.5v-62q0-1 1-2h25q2 0 2 2v58q0 9 3.5 13.5T209 188q4 0 8-1.5t7-3.5v-71q0-2 2-2h25q1 0 1 1v86l1 12q0 1-1 1z"/></svg>