<svg viewBox="0 0 300 300.002" xmlns="http://www.w3.org/2000/svg"><path d="M267 270q3 2 5 3 7 3 12 3t11-3l5-3v-30l-5 3q-6 3-11 3t-12-3l-92-54 8 35 79 46zM33 179q-3-2-5-3-7-3-12.5-3T5 176l-5 3v30l5-3q5-3 10.5-3t12.5 3l77 46 6-27-78-46zm234 52q3 2 5 3 7 3 12 3t11-3l5-3v-29l-5 2q-6 3-11 3t-12-3l-5-3-97-57 8 35 89 53v-1zM33 140q-3-1-5-3-7-3-12.5-3T5 137l-5 3v30l5-3q5-2 10.5-2t12.5 2l84 50 7-26-86-51zm234 53q3 1 5 3 7 3 12 3t11-3l5-4v-29l-5 2q-6 3-11 3t-12-3L160 99l8 35 99 59zM33 101q-3-1-5-3-7-3-12.5-3T5 98l-5 3v30l5-3q5-2 10.5-2t12.5 3l92 54 6-27-93-55zm125-12l109 65 5 3q7 3 12 3t11-3l5-3v-30l-5 3q-6 2-11 2-8 0-17-5l-85-50-5-23q0-1 1-1l14-5q1 0 2 1t1 2l1 2h1l2-1v-9q0-4-3.5-7.5T188 29h-15l-1-3q-3-2-7-2h-27q-4 0-7 3l-2 4-19 77-82-48q-7-3-12.5-3T5 60l-5 3v29l5-2q5-3 10.5-3T28 90l100 59 22-95 8 35z"/></svg>