<svg viewBox="0 0 300 300.002" xmlns="http://www.w3.org/2000/svg"><path d="M246 288h2q2 0 2.5-1t.5-2.5q0-1.5-3-1.5h-2v5zm5 6l-3-5h-2v5h-1v-12h5l2 1 1 2q0 1-1 2l-2 2 3 5h-2zm-3-16q-2 0-3.5.5t-3 2Q240 282 239 284q-1 4 0 8l2.5 2.5q1.5 1.5 3.5 2.5t5 .5q3-.5 5-2.5t2-3q2-4 0-8 0-2-1.5-3.5t-3.5-2q-2-.5-4-.5zm0 21q-2 0-4-1t-4-2.5q-2-1.5-3-3.5-2-4 0-8.5t7-6.5q2-1 4-1t4.5 1q2.5 1 4 2.5t2.5 3.5q2 5 0 9-1 2-3 4-3 3-8 3zm-98 1q35 0 58-12 25-15 38-46 15-35 15-92t-14-92q-13-31-39-46-23-12-58-12T92 12Q66 27 53 58q-14 35-14 92t15 92q13 31 38 46 23 12 58 12zm-14-150L82 96l16-15 42 42V21l78 78-51 51 51 51-78 78V177l-42 42-16-15 54-54zm26 76l25-25-25-25v50zm0-152l25 25-25 25V74z"/></svg>