<svg viewBox="0 0 300 300.002" xmlns="http://www.w3.org/2000/svg"><path d="M299 218q-3-6-11-11l-6-3q-21-11-33-28-3-5-5-10-1-3-1-4l2-2 14-9q8-6 12-13 6-11 1-22-2-7-9-11.5t-15-4.5q-4 0-8 1h-2q1-12 0-21-2-17-8-30-4-10-12.5-19.5T197 14Q176 2 150 2t-47 12q-12 7-20.5 16.5T70 50q-6 13-8 30-1 10 0 21h-2q-4-1-8-1-8 0-15 4.5T28 116q-5 11 1 22 4 7 12 13l13 9q2 1 2.5 2t-.5 4q-2 5-5 10-11 16-32 27l-3 2q-6 3-9.5 6T1 218q-4 11 5 21 4 3 8 5 9 5 19 8 2 0 3.5 1.5T39 258q1 3 3 5.5t5.5 5Q51 271 57 272q3 1 10 1 15 1 23 4 4 1 12 6 11 7 19 10 13 5 29 5t29-5q8-3 19-10 8-5 12-6 8-3 23-4 7 0 10-1 6-1 10-3.5t6-7.5l2-4q1-2 2.5-3.5t3.5-1.5q10-3 19-8 5-2 8-6 9-9 5-20zm-17 8q0 2-4 4-7 4-18 6-7 2-10 4t-4 7v3q-1 3-3 4.5t-11 1.5q-17 1-28 5-5 1-15 7t-16 9q-10 4-22.5 4t-23.5-4q-6-3-16-9t-15-7q-11-4-28-5-9 0-11-1.5t-3-7q-1-5.5-4-7.5t-10-4q-11-2-17-5.5t-5-6.5q0-1 3-3 28-13 43-35l4-7q7-11 8-18 0-3-.5-4.5t-2.5-4Q71 150 57 142l-6-4q-6-4-8-8.5t1-8.5q3-4 8-4h4q4 1 12 4l7 2q5 2 4-3v-2q-1-23 0-36t4.5-22q3.5-9 11-17.5T111 29q17-10 39-10 30 0 50 18 19 17 21 44 1 15 0 38v1q0 2 1 3t3 0l7-2q7-3 11.5-4t8.5.5q4 1.5 5 6.5 2 7-8 13l-6 5q-14 8-16 10.5t-2.5 4q-.5 1.5-.5 4.5l3 9q4 9 10 18l1 1q4 5 8 9 14 14 33 23 2 1 3 2t0 3z"/></svg>