<svg viewBox="0 0 300 300.002" xmlns="http://www.w3.org/2000/svg"><path d="M103 197q-10 16-18.5 25T70 231q-3 0-4-1-2-4-1-6 1-5 11-12.5t27-14.5zm36-86q-5-14-5.5-25t1.5-16q2-3 5-3 6 0 6 11-2 20-7 33zm8 35q4 7 14 19l2 3q-1 0-10.5 2.5T134 176q6-10 13-30zm17 22zm62 14q-1 3-4.5 5t-9.5 1q-16-5-27-14 21-3 34-1 3 1 5.5 3t1.5 6zM247 4H53Q31 4 15.5 19.5T0 57v186q0 22 15.5 37.5T53 296h194q22 0 37.5-15.5T300 243V57q0-22-15.5-37.5T247 4zm-5 184q-4 10-19 10-25 0-49-22-19 3-47 13-29 51-53 51-8 0-13-5-3-2-4-5.5t-1-7.5q2-11 21-23 13-8 30-14 13-24 26-62-8-17-10-32.5t3-23.5q5-8 14.5-8t14.5 8q5 8 5 20 0 19-9 45l2 2q13 20 25 31h3q18-2 29-2 21 1 29 10 3 3 4 7t-1 8z"/></svg>