<svg viewBox="0 0 300 300.002" xmlns="http://www.w3.org/2000/svg"><path d="M207 287q-24 0-54-30.5T98 177l-9-19q-13 26-19.5 48.5T64 244q1 15 8 20t19 1.5q12-3.5 27-14.5 2-1 4.5-.5t4 2.5q1.5 2 1 4.5T125 261q-38 28-59 14-13-9-14-29t7-47q8-27 24-56-8-18-12-36-36 7-51 21-7 6-7 13-1 15 26 30 2 1 3 3.5t-.5 4.5q-1.5 2-3.5 3t-5 0q-19-10-27-22-7-10-6-19 1-12 12-22 17-16 56-24-8-37-1-59 5-14 16-20 8-4 19-2 14 3 32 17 2 1 2.5 3.5T135 39q-2 2-4.5 2.5T126 40q-25-19-37-13-7 4-10 13-6 19 1 53 18-3 38-4 31-39 60-58 32-21 51-9 21 14 13 57-1 3-3 4t-4.5.5q-2.5-.5-4-2.5t-.5-4q2-15 2-25-2-14-9-19-12-7-37 8t-51 48h18q42 2 76 11.5t53 24.5q19 15 18 31-1 11-11 20.5T262 193q-2 1-4.5 0t-3.5-3.5q-1-2.5 0-4.5t4-3q13-6 21-13t9-14q0-11-17.5-22.5T223 113q-32-9-71-11-14-1-27-1-9 11-16 22t-13 21q6 14 13 27 18 35 39 61 20 24 38 35t27.5 6q9.5-5 11.5-25t-5-48q-8-31-24-65-1-2-.5-4.5t3-4q2.5-1.5 5-.5t3.5 3q18 37 25.5 69.5t4 55Q233 276 219 284q-6 3-12 3zM83 105q3 12 8 24l7-12 11-15q-14 1-26 3zm85 41q2 7-2 13.5t-11.5 8Q147 169 141 165t-7.5-11.5Q132 146 136 140t11-7.5q7-1.5 13.5 2.5t7.5 11z"/></svg>