<svg viewBox="0 0 300 300.002" xmlns="http://www.w3.org/2000/svg"><path d="M0 93h22v22H0V93zm21 114v-79H1v79h20zm137 0v-19h-8q-3-1-4.5-2.5T143 181v-35h15v-18h-15V98h-21v75q0 10 2 16.5t5.5 10.5q3.5 4 10 5.5T155 207h3zm118 0V92h-21v115h21zm-174-71q-8-9-24-9-7 0-13 3t-10 8l-1 2v-12H33v79h21v-42 3-2q0-11 5.5-16t13.5-5q8 0 12.5 5t4.5 15v42h21v-45q0-17-9-26zm143 31q0-8-3-15.5t-8.5-13q-5.5-5.5-13-8.5t-16-3q-8.5 0-16 3t-13 8.5q-5.5 5.5-8.5 13t-3 16q0 8.5 3 16t8 13q5 5.5 13 8.5t17 3q21 0 35-15l-15-11q-3 3-8.5 5.5T205 190q-9 0-14.5-4t-7.5-11h62v-8zm-62-7q0-5 5.5-10.5T204 144q10 0 15.5 5.5T225 160h-42zm116 36q0-1-1-2l-3-2h-6l-2 2-2 2v6l2 3 2 1q2 1 3 1l3-1 3-1 1-3 1-3-1-3zm-1 6q0 1-1 2l-2 1-3 1-2-1-2-1-1-2-1-3 1-2 1-2 2-2h2l3 1 2 1 1 2 1 2-1 3zm-4-2q1 0 1.5-.5t.5-2q0-1.5-1-2t-2-.5h-4v9h2v-4h1l2 4h2l-2-4zm-1-1h-2v-3h2l1 1v1l-1 1z"/></svg>