<svg viewBox="0 0 300.0019 300.002" xmlns="http://www.w3.org/2000/svg"><path d="M246 123q-4-33-28-55-21-21-50-26.5t-56.5 6Q84 59 68 84q-11 18-14 39-1 7-1 12v9q0 8 1.5 16t3.5 14l6 4q11 7 20 11l3 1q30 13 63 13t63-13l3-1q9-4 20-11l6-4q2-7 3.5-14t1.5-16v-9q0-8-1-12zM107 71q2-1 3-2 8-5 17.5-4t15 7.5Q148 79 145 89t-12 16.5q-9 6.5-19.5 6.5t-16-7.5Q92 97 95.5 87T107 71zm122 71q0 9-2 19h-1q-15 11-35 17-41 13-81 0-19-6-36-17-3-10-3-19v-2l30-12q6-3 9.5-2.5t8.5 4.5q9 8 17 13 3 3 7.5 2.5t7.5-3.5q31-32 33.5-36t7.5-3.5q5 .5 9 2.5l27 21 1 16zm68-38q-2-11-9-19t-17-11l-4-1q-11-22-29-37-23-20-52.5-28.5t-59.5-3Q96 10 71.5 28T33 73q-12 2-20 10T3 102q-3 16-3 31v10q0 20 9 31 5 7 13 10l2 1q4 11 9 22-6 8-11 16 5 9 12 18 21 26 51.5 41t64.5 15q34 0 64.5-14.5T266 241q7-9 13-18l-12-16q5-11 9-22l5-2q6-4 11.5-10.5T299 156q1-7 1-20v-3q1-15-3-29zm-15 38v11q-1 8-7.5 12.5T261 170l-1 5q-3 11-8 21l-4 8-5 6q7 7 12 14-18 26-46 40t-59.5 14Q118 278 90 264t-46-40q5-7 11-13l1-1h-1q-12-18-17-40-7 0-12.5-4t-7-10.5Q17 149 17 142q0-17 3-34 1-4 3-9 1-2 2-3l4-3q3-2 7-2.5t8-.5q13-29 39-47.5t58-21Q173 19 201.5 33T247 74q4 7 8 16 7-1 13 2t9 9.5q3 6.5 4 13.5 2 14 1 27z"/></svg>