<svg viewBox="0 0 300 300.002" xmlns="http://www.w3.org/2000/svg"><path d="M300 157q-1-35-17-66 21-46 8-69-9-17-35-20-15-2-28 1-30 6-56 18-50 0-87 26-39 28-52 80 23-26 43-42 16-12 29-17l-9 8q-33 33-56 69l-9 15q-9 15-13 23-7 13-11 25-13 48-3 70 9 19 32 20 18 1 42-7 16-6 28-13 28 14 60 14 44 0 79-25t49-65h-72q-12 19-31 26t-38.5 2q-19.5-5-32.5-20t-14-36h193q1-5 1-15v-2zm-20-71q-25-40-66-55 14-7 29-10 21-4 32 3t13 20q2 16-8 42zM26 278q-8-7-7-25 2-21 17-52 8 23 23.5 41.5T95 273q-16 8-32 12-24 5-37-7zm79-140q1-23 18.5-39.5t43-16.5q25.5 0 43 16t18.5 40H105z"/></svg>