<svg viewBox="0 0 300 300.002" xmlns="http://www.w3.org/2000/svg"><path d="M247 4H53Q31 4 15.5 19.5T0 57v186q0 22 15.5 37.5T53 296h194q22 0 37.5-15.5T300 243V57q0-22-15.5-37.5T247 4zM110 187l-3 22q0 1-1 1H34q-2 0-2-2V80q0-1 2-1h22q1 0 1 1v105h52q2 0 1 2zm67-52q0 1-2 1-6 0-11 1t-9 3q-4 2-7 5v64q0 1-1 1h-22q-2 0-2-2v-78l-1-18v-1l21-1q2 0 2 2l1 3 1 9q5-7 12.5-11.5T176 108q1 0 1 2v25zm35 30q3 11 12 17t20 6h11q5-1 9-2 1-1 2-.5t1 1.5v19q0 2-2 3-5 2-10.5 3t-12.5 1q-9 0-18-2.5t-16-7.5q-7-5-12.5-12.5t-8-18Q185 162 185 151q0-18 7-32t20.5-22q13.5-8 32.5-8 6 0 11.5 1t8 2q2.5 1 2.5 3v19q0 1-.5 2t-1.5 0q-5-2-9.5-3t-11.5-1q-10 0-18 5t-12 13q-4 8-4.5 17.5T212 165z"/></svg>