<svg viewBox="0 0 300 300.002" xmlns="http://www.w3.org/2000/svg"><path d="M271 0H29Q17 0 8.5 8.5T0 29v242q0 12 8.5 20.5T29 300h242q12 0 20.5-8.5T300 271V29q0-12-8.5-20.5T271 0zm-97 166h-38v108h-29V166H69v-24h105v24zm97 89q-8 14-27.5 18.5t-40.5.5q-10-2-17-6v-29q8 6 17 9.5t19.5 3.5q10.5 0 16-3.5t5.5-10q0-6.5-8-12.5-6-3-18-8l-2-1q-16-7-23-15.5t-8-20q-1-11.5 4-20.5 8-15 28-19 17-5 38-1 8 1 15 3v28l-8-4q-7-4-16-5t-17 1q-8 2-11 7-2 2-2 5t2 6q3 5 13 9l9 5q10 4 15 7 14 8 18 19 2 6 2 14 0 11-4 19z"/></svg>