<svg viewBox="0 0 300 300.002" xmlns="http://www.w3.org/2000/svg"><path d="M300 132q-1-3-4-3t-5 1l-7 6-1-9q-5-42-5-62 0-22 6-50l1-11q0-4-4-4-14 0-32.5 13T218 46q-15 24-15 51 0 32 14 55-3-1-8-1-8 0-22 3l-3 1v-6q0-11-2-22t-6-15q-1-1-3.5-1t-8.5 3.5q-6 3.5-6 4.5t1 3l1 1q7 10 9 22-10-10-24-13l-8-2q-11-1-22 1-17 2-34 8l-1-8q-5-46-5-66 0-22 6-50l1-11q0-4-4-4-14 0-32.5 13T15 46Q0 70 0 97.5T11 146q8 16 30 37-13 21-20 41-8 23-8 42 0 34 18 34 15 0 27-17t19-42.5q7-25.5 7-49.5 0-17-2-37 12-8 24-11l3-1-1 4q0 12 13 18t34 6q6 0 15-2l1 12q0 9 4 9t6-6.5q2-6.5 3-18.5 17-4 27-4 5 0 13 1 7 10 20 22-13 21-20 41-8 23-8 42 0 34 18 34 15 0 27-17t19-42.5q7-25.5 7-49.5 0-20-2-41v-1l12-11q3-2 3-5v-1zM39 281q-5 0-8.5-5T27 263q-1-44 34-88 4 30 4 44 0 23-7 42.5T39 281zM62 37q-11 30-11 64 0 13 5 47l2 11-10 13q-12-15-18-31-7-19-7-43.5T32 52q7-19 18.5-30.5T70 10q1 0 1 2l-9 25zm90 122q-9 0-15-3t-6-9q0-6 7.5-6t13.5 4.5q6 4.5 13 12.5-5 1-13 1zm74-62q0-24 9-45 7-19 18.5-30.5T273 10q1 0 1 1.5t-3 7.5l-6 18q-11 30-11 64 0 13 5 46l2 12-10 13q-12-15-18-31-7-19-7-44zm16 184q-5 0-8.5-5t-3.5-13q-1-44 34-88 4 30 4 44 0 23-7 42.5T242 281z"/></svg>