<svg viewBox="0 0 300 300.002" xmlns="http://www.w3.org/2000/svg"><path d="M84 71v17h26q1-1 1-3V67H87l-2 1q-2 1-2 3h1zm0 36v92h26q1-1 1-3v-93H87l-2 1q-1 0-1 3zM47 71v32H3l-1 1q-2 0-2 3v92h74q1-1 1-3V67H50l-1.5 1Q47 69 47 71zm0 104q0 4-3 4H27v-52q0-3 3-3h17v51zm74-68v92h47v13h-46q-1 1-1 3v18h72l1-1q2-1 2-3V103h-72l-2 1q-1 0-1 3zm27 20q0-2 2-3h18v51q0 4-3 4h-17v-52zm61-24q-1 0-2 .5t-1 3.5v92h47v13h-46q-1 1-1 3v18h72l1-1q2-1 2-3V103h-72zm44 72q0 4-3 4h-17v-52q0-3 3-3h17v51zm36-69h-1v-2h4v2h-1v7h-2v-7zm4-2h2l1 6 1-6h2l1 9h-2v-7l-1 7h-1l-1-7-1 7h-2l1-9z"/></svg>