<svg viewBox="0 0 300 300.002" xmlns="http://www.w3.org/2000/svg"><path d="M71 124q-1-6 3.5-11.5T86 107q0 6-4.5 11.5T71 124zm30 37q-2 6-5 10.5t-5.5 7Q88 181 85 181t-6.5-1.5T72 178q-3 0-6.5 1.5T60 181q-5 0-11-8.5T41 153q-2-11 3-19 2-4 6-6.5t8-2.5q4 0 8 1.5t5.5 1.5q1.5 0 4.5-1 6-3 10-2 9 0 13 7-8 5-8 13t5 12q2 3 5 4zm38-49h-26v69h11v-24h15q10 0 16.5-6.5T162 134q0-10-6.5-16t-16.5-6zm-3 36h-12v-27h12q7 0 11 3.5t4 10q0 6.5-4 10t-11 3.5zm51-18q-9 0-14.5 4t-6.5 11h10q2-7 11-7 4 0 7 2.5t3 6.5v4l-14 1q-9 0-14 4t-5 10.5q0 6.5 5 10.5t12 4q5 0 9.5-2.5t6.5-6.5v9h10v-35q0-7-5.5-11.5T187 130zm10 32q0 5-4 8t-8.5 3q-4.5 0-7-2t-2.5-5q0-7 9-7l13-1v4zm51-32h11l-19 53q-3 9-7.5 12.5T221 199h-5v-8h4q6 0 9-7v-3l-18-51h12l12 41 13-41zm52-52q0-9-2.5-14t-7.5-7.5q-5-2.5-14-2.5H25q-6 0-9 1-6 1-10 5T1 70q-1 3-1 9v143q0 9 2.5 14t7.5 7.5q5 2.5 14 2.5h252q9 0 14-2.5t7.5-7.5q2.5-5 2.5-14V78zm-6 141v4q0 7-2 10t-5 5q-3 2-10 2H23q-7 0-10-2t-5-5q-2-3-2-10V75q1-5 2.5-8t4.5-4.5q3-1.5 8-2.5h256q7 0 10 2t5 5q2 3 2 10v142zM71 124q-1-6 3.5-11.5T86 107q0 6-4.5 11.5T71 124zm30 37q-2 6-5 10.5t-5.5 7Q88 181 85 181t-6.5-1.5T72 178q-3 0-6.5 1.5T60 181q-5 0-11-8.5T41 153q-2-11 3-19 2-4 6-6.5t8-2.5q4 0 8 1.5t5.5 1.5q1.5 0 4.5-1 6-3 10-2 9 0 13 7-8 5-8 13t5 12q2 3 5 4zm38-49h-26v69h11v-24h15q10 0 16.5-6.5T162 134q0-10-6.5-16t-16.5-6zm-3 36h-12v-27h12q7 0 11 3.5t4 10q0 6.5-4 10t-11 3.5zm51-18q-9 0-14.5 4t-6.5 11h10q2-7 11-7 4 0 7 2.5t3 6.5v4l-14 1q-9 0-14 4t-5 10.5q0 6.5 5 10.5t12 4q5 0 9.5-2.5t6.5-6.5v9h10v-35q0-7-5.5-11.5T187 130zm10 32q0 5-4 8t-8.5 3q-4.5 0-7-2t-2.5-5q0-7 9-7l13-1v4zm62-32l-19 53q-3 9-7.5 12.5T221 199h-5v-8h4q6 0 9-7v-3l-18-51h12l12 41 13-41h11zM82 119q-5 5-11 5-1-6 3.5-11.5T86 107q0 6-4 12zm19 42q-2 6-5 10.5t-5.5 7Q88 181 85 181t-6.5-1.5T72 178q-3 0-6.5 1.5T60 181q-5 0-11-8.5T41 153q-2-11 3-19 2-4 6-6.5t8-2.5q4 0 8 1.5t5.5 1.5q1.5 0 4.5-1 6-3 10-2 9 0 13 7-8 5-8 13t5 12q2 3 5 4zm38-49h-26v69h11v-24h15q10 0 16.5-6.5T162 134q0-10-6.5-16t-16.5-6zm-3 36h-12v-27h12q7 0 11 3.5t4 10q0 6.5-4 10t-11 3.5zm51-18q-9 0-14.5 4t-6.5 11h10q2-7 11-7 4 0 7 2.5t3 6.5v4l-14 1q-9 0-14 4t-5 10.5q0 6.5 5 10.5t12 4q5 0 9.5-2.5t6.5-6.5v9h10v-35q0-7-5.5-11.5T187 130zm10 32q0 5-4 8t-8.5 3q-4.5 0-7-2t-2.5-5q0-7 9-7l13-1v4zm51-32l-13 41-13-41h-11l18 51v3q-3 7-9 7h-4v8h4q8 0 12.5-3.5T240 183l19-53h-11z"/></svg>