<svg viewBox="0 0 300 300.002" xmlns="http://www.w3.org/2000/svg"><path d="M132 112q3 5 3 12.5t-4 11.5q-8 9-25 9H95v-42h13q18 0 24 9zM247 4H53Q31 4 15.5 19.5T0 57v186q0 22 15.5 37.5T53 296h194q22 0 37.5-15.5T300 243V57q0-22-15.5-37.5T247 4zm-92 145q-8 11-20 15.5t-29 4.5H95v40q0 1-2 1H69q-1 0-1-1V80q0-1 1-1l39-1q15 0 25 3.5t16.5 10q6.5 6.5 9.5 15t3 16.5q0 16-7 26zm88 49q-5 8-14 11.5t-22 3.5q-9 0-16.5-1.5T177 207q-2 0-2-2v-22l.5-.5q.5-.5 1.5-.5 7 5 15 6.5t15 1.5q7 0 10.5-1.5t3.5-4.5q0-3-3-5.5t-12.5-6Q196 169 188 163q-6-4-9.5-10t-3-13.5q.5-7.5 5-15t13-11.5q8.5-4 21.5-4 8 0 16 1 5 1 10 3 1 0 2 1v22q0 1-1 1.5t-2-.5q-5-3-12.5-4.5T214 131q-4 0-7 1t-4 2.5q-1 1.5-1 3.5t1 3.5q1 1.5 4 3.5l9 4q10 3 19 9 7 4 10 10.5t3 12.5q0 9-5 17z"/></svg>