<svg viewBox="0 0 300 300.002" xmlns="http://www.w3.org/2000/svg"><path d="M150 9q29 0 54.5 11t45 30.5Q269 70 280 95.5t11 54.5q0 29-11 54.5t-30.5 45Q230 269 204.5 280T150 291q-29 0-54.5-11t-45-30.5Q31 230 20 204.5T9 150q0-29 11-54.5t30.5-45Q70 31 95.5 20T150 9zm0-9q-41 0-75.5 20T20 74.5Q0 109 0 150t20 75.5Q40 260 74.5 280t75.5 20q41 0 75.5-20t54.5-54.5q20-34.5 20-75.5t-20-75.5Q260 40 225.5 20T150 0zM25 150q0 37 19.5 67T95 263L36 99q-11 24-11 51zm209-6q0-11-3-20-2-7-7-15l-1-2q-6-9-8-14-3-7-3-13 0-9 6-15.5t15-6.5h1q-17-16-38.5-24.5T150 25q-32 0-59.5 15T46 81h29l12-1q3 0 4.5 2.5t.5 5Q91 90 88 90l-15 1 46 136 27-82-19-54-13-1q-3 0-4.5-2.5t0-5Q111 80 114 80l33 1h22l12-1q3 0 4.5 2.5t.5 5q-1 2.5-4 2.5l-15 1 45 135 13-41q9-28 9-41zm-82 17l-37 109q17 5 35 5 21 0 42-7l-40-107zm108-71q1 6 1 13 0 21-10 45l-38 110q28-17 45-45.5t17-61.5q0-33-15-61z"/></svg>