<svg viewBox="0 0 300 300.002" xmlns="http://www.w3.org/2000/svg"><path d="M150 4q-41 0-75.5 20T20 78.5Q0 113 0 154q0 32 13 61t36.5 50Q73 286 103 296q5 1 7.5-1.5t2.5-5.5v-28q-15 3-26 1-9-2-15-7-5-3-8-8l-2-4q-4-11-11-17-3-4-6-5-6-4-5.5-6t3.5-3h3q10 1 18 8 3 4 5 8 9 15 24 16 10 1 20-4 2-13 10-20-31-3-47-17-22-18-22-57 0-23 16-40-3-6-3-14-1-13 4-26h5q5 0 13 3 11 4 23 12 18-5 38-5t38 5q17-12 31-15 7-1 10 0 5 13 4 26 0 8-3 14 16 16 16 40 0 39-22 57-16 13-47 17 10 9 10 28v41q0 3 2.5 5.5t8.5 1.5q29-10 52.5-31t36.5-50q13-29 13-61 0-41-20-75.5T225.5 24Q191 4 150 4zM57 219q-1 1-3 .5t-1.5-2q.5-1.5 2.5-.5t2 2zm6 7q-1 1-3-1t-.5-3q1.5-1 3 1t.5 3zm6 8q-2 2-3.5-.5t0-4q1.5-1.5 3 1t.5 3.5zm8 9q-2 2-4-.5t-.5-4q1.5-1.5 3.5.5t1 4zm11 5q-1 2-4 1t-2-3q1-2 4-1t2 3zm12 1q0 2-3 2t-3-2.5q0-2.5 3-2.5t3 3zm12-2q0 2-3 2.5t-3.5-1.5q-.5-2 2.5-3t4 2z"/></svg>