<svg viewBox="0 0 300 300.002" xmlns="http://www.w3.org/2000/svg"><path d="M150 27q42 0 61 1 30 1 45 16t16 45q1 19 1 61t-1 61q-1 30-16 45t-45 16q-19 1-61 1t-61-1q-30-1-45-16t-16-45q-1-19-1-61t1-61q1-30 16-45t45-16q19-1 61-1zm0-27q-42 0-62 1-40 2-62.5 24.5T1 88q-1 20-1 62t1 62q2 40 24.5 62.5T88 299q20 1 62 1t62-1q40-2 62.5-24.5T299 212q1-20 1-62t-1-62q-2-40-24.5-62.5T212 1q-20-1-62-1zm0 73q-21 0-38.5 10.5t-28 28Q73 129 73 150t10.5 38.5q10.5 17.5 28 28T150 227q21 0 38.5-10.5t28-28Q227 171 227 150t-10.5-38.5q-10.5-17.5-28-28T150 73zm0 127q-21 0-35.5-14.5T100 150q0-21 14.5-35.5T150 100q21 0 35.5 14.5T200 150q0 21-14.5 35.5T150 200zm62-130q0 7 5.5 12.5t13 5.5q7.5 0 12.5-5.5t5-13q0-7.5-5-12.5t-12.5-5q-7.5 0-13 5T212 70z"/></svg>