<svg viewBox="0 0 300 300.002" xmlns="http://www.w3.org/2000/svg"><path d="M130 112q3 5 3 11 0 9-4 13.5t-10.5 6.5q-6.5 2-14.5 2H93v-42h13q8-1 14.5 1.5t9.5 7.5zM247 4H53Q31 4 15.5 19.5T0 57v186q0 22 15.5 37.5T53 296h194q22 0 37.5-15.5T300 243V57q0-22-15.5-37.5T247 4zm-94 145q-8 11-21 15.5t-28 4.5H93v40q0 1-2 1H66q-1 0-1-1V80q0-1 1-1l40-1q15 0 25 3.5t16.5 10Q154 98 157 106t3 17q0 16-7 26zm82-15h-19v43q0 7 2 10t8 3l8-1q1 1 1 2v16q0 2-2 3l-8 2q-5 1-10 0-13 0-20.5-6.5T187 184v-50h-11q-2 0-2-2v-20q0-2 2-2h12l2-24 1-2 26-3v1l-1 28h19q1 0 1 2v20q0 2-1 2z"/></svg>