<svg viewBox="0 0 300 300.002" xmlns="http://www.w3.org/2000/svg"><path d="M215 50q-17 0-33 13-13 9-28 29-18-22-34-32T86 50q-23 0-43 18.5t-31.5 49Q0 148 0 180.5t14.5 51Q29 250 54 250q13 0 24-5.5t23-20q12-14.5 27-41.5l22-39 25 41q15 26 26 39.5t22 19.5q11 6 25 6 25 0 38.5-19t13.5-52.5q0-33.5-11.5-63t-31-47.5Q238 50 215 50zM104 168q-13 21-21 31t-14 14q-6 4-13 4-11 0-17.5-9T32 182q0-25 7.5-47.5t20-37Q72 83 85 83t24 8.5q11 8.5 26 29.5l-31 47zm145 49q-7 0-13-4t-14-16q-7-9-22-34l-18-29-13-21q12-19 22.5-28t21.5-9q16 0 29.5 14.5t21 38.5q7.5 24 7.5 53 0 17-5.5 26t-16.5 9z"/></svg>