<svg viewBox="0 0 300 300.002" xmlns="http://www.w3.org/2000/svg"><path d="M273 127v5l5 1q1 0 0 1l-11 13-11-13q-1 0-.5-1t1.5-1h4v-5h-33v5h6q3 0 5 3l18 21v10q0 1-1 2h-8v5h32v-5h-7q-1-1-1-2v-11l17-20q2-3 5-3h6v-5h-27zM52 147l-6-2q-6-2-16-3h-2q-10-1-12.5-1.5t-2.5-3q0-2.5 3-4.5t12-2q9 0 16 3l4 2q3 2 4 6h5v-16h-6v2l-1 1h-1q-9-5-20.5-5t-20 3.5Q0 131 0 139q0 6 3 9h1q4 4 10 5.5t15 2.5l14 1q5 2 5 5.5t-4 4.5q-5 2-12 2t-13-2q-6-2-8.5-5T8 156H1v18h8v-2q0-1 1-1 6 2 11 4h1q6 1 10 1 8 0 15-2 5-2 9.5-5t4.5-9q0-6-4-10-2-2-5-3zm83-14q-11-9-28-9-8 0-15.5 2.5T79 133q-7 7-7 17t7 17q11 9 28.5 9t27.5-9q7-7 7-17t-7-17zm-13 31q-6 5-15 5t-15-5.5q-6-5.5-5.5-14t6-14Q98 130 107 130t14.5 5.5q5.5 5.5 5.5 14t-5 14.5zm73-32h6q2 0 2.5 1t.5 3l1 20-33-29h-23v5h5q4 0 4 4v28q0 4-2 4h-6v6h27v-6h-7q-2 0-2-1l-1-3v-24l38 34h9v-38q0-2 .5-3t2.5-1h6v-5h-28v5z"/></svg>