<svg viewBox="0 0 300 300.002" xmlns="http://www.w3.org/2000/svg"><path d="M54 86q-13 14-22 29l-9-5q-1-4-4.5-6.5t-8.5-2q-5 .5-8 4t-2 9q1 5.5 6.5 8.5t10.5 0l9 5q-8 16-11 35l15 2q7-39 35-68L54 86zm107-45h-10l-1-13q6-4 5-12-2-6-6-9t-9.5-2q-5.5 1-9 5t-3.5 9q1 8 8 11l1 13q-20 3-40 12l7 14q20-10 42.5-12.5T190 59l3-15q-16-3-32-3zm129 50q5-1 8-5t2-8.5q-1-4.5-4.5-7.5t-8.5-2.5q-5 .5-8 4t-3 7.5l-8 7q-12-12-27-22l-8 12q33 22 50 58l14-6q-8-17-19-31l8-7q2 1 4 1zM150 242q-11 1-22 1-28 0-49-4-13-2-25-6 18 33 51 49.5t69.5 12q36.5-4.5 64-28.5t36.5-60q-22 14-48 22-38 13-77 14zm129-69v12q-20 18-54 29t-76 13q-36 3-66-2-27-4-38-12-6-26 .5-52t23-47q16.5-21 41-32.5T161 70q29 0 54.5 13.5t42.5 37q17 23.5 20 52.5h1zm-124-10q0-15-10.5-26T119 126q-15 0-25.5 11T83 163q0 15 10.5 25.5T119 199q15 0 25.5-10.5T155 163zm83-9q0-10-8-18t-19-8q-11 0-18.5 8t-7.5 18.5q0 10.5 7.5 18.5t18.5 8q11 0 19-7.5t8-19.5z"/></svg>