<svg viewBox="0 0 300 300.002" xmlns="http://www.w3.org/2000/svg"><path d="M70 178q0-5 17-9 13-3 29-5l1 1q-28 5-28 9.5t20 7.5q17 3 35 3 22 0 42-3 13-2 21-4l9 5q-7 3-23 6-23 5-49 5-22 0-39-2.5t-26-6q-9-3.5-9-7.5zm69 117q-31 0-59-4l-1 1q30 8 72 8 27 0 50-4.5t36.5-11Q251 278 251 269q-7 8-26 14-32 12-86 12zm4-11q37 0 65-6 31-7 31-18 0-3-4-5-4 9-28.5 14.5T143 276q-26 0-53-5.5T63 259q0-5 5-8t11-5l6-2-2-1q-14 2-26 7-16 6-16 13 1 10 37 16 31 6 65 5zm102-102q-1 12-11 22-7 7-22 16l1 1q18-5 30-14 17-12 15-27-1-8-7.5-13t-16.5-5q-5 0-10 1l-1 2q9-2 15.5 3.5T245 182zm-133 52q-16 3-16 9t14.5 10q14.5 4 34 4t34.5-4q8-3 11-5l-13-8q-15 4-33 4-14 0-23-2t-9-4q0-2 1-4h-1zm80-26q-20 6-48 6-18 0-30.5-2.5T101 206q0-3 2-4l2-2h-1q-22 4-22 10t19.5 10q19.5 4 42.5 4 18 0 34.5-2.5T203 215l-11-7zm-6-187q0 17-12 33-7 9-24 24-14 13-19 19-9 11-9 21 0 14 8 27 4 7 14 18l2 2h-1q-16-10-24-18-14-16-14-33 0-13 10-25 7-8 25-23t25-24q12-15 12-30 0-6-1-12h1q7 9 7 21zm20 41q-20 6-34 16-23 16-23 36 0 6 3 13 2 3 6.5 10t5.5 10q3 6 3 12.5t-6 13.5l1 1q20-13 20-28 0-5-7-17-4-7-6-10-2-6-2-11 0-15 16-29 10-9 23-17z"/></svg>