<svg viewBox="0 0 300 300.002" xmlns="http://www.w3.org/2000/svg"><path d="M275 110l25-27h-54q-43-29-95.5-29T55 83H0l25 27q-12 10-18.5 24.5T0 165q0 21 10 38t27.5 27Q55 240 75 240q14 0 27.5-5t23.5-15l24 26 24-26q10 10 23 15t28 5q20 0 37.5-10t27.5-27q10-17 10-38 0-16-6.5-30.5T275 110zM75 216q-21 0-36-15t-15-36q0-21 15-36t36-15q21 0 36 15t15 36q0 21-15 36t-36 15zm75-52q0-25-16-45T94 89q27-11 56-11t56 11q-24 10-40 30t-16 45zm75 52q-21 0-36-15t-15-36q0-21 15-36t36-15q21 0 36 15t15 36q0 21-15 36t-36 15zm0-77q-11 0-19 7.5t-8 18.5q0 11 8 19t19 8q11 0 19-8t8-19q0-11-8-18.5t-19-7.5zm-123 26q0 11-8 19t-19 8q-11 0-19-8t-8-19q0-11 8-18.5t19-7.5q11 0 19 7.5t8 18.5z"/></svg>