<svg viewBox="0 0 300 300.002" xmlns="http://www.w3.org/2000/svg"><path d="M180 214q-13 13-30 19-17-6-31-19h61zM93 94Q74 78 51 72v98q0 27 13 49.5t36 35.5q23 13 50 13t50-13q23-13 36-36t13-50V72q-24 6-42 22-26-18-57-18T93 94zm0-29q27-14 57-14t57 14q6-4 12-7-14-13-31.5-20T150 31q-20 0-37.5 7T81 58q6 3 12 7zM57 49q18-19 42-30t51-11q27 0 51.5 11T243 49q15-4 30-4v42q13 7 20 20t7 27.5q0 14.5-7 27.5t-20 20v1q-3 31-20.5 56T208 278q-27 14-58.5 14T91 277.5Q64 263 47 238t-20-55q-13-8-20-21t-7-27.5Q0 120 7 107t20-20V45q15 0 30 4zm124 121q16-2 44-2v1q-1 8-3 13-3 9-13 15-6 3-15 4h-37q3-14 8.5-22t15.5-9zm-62 0q10 1 15.5 9t8.5 22h-37q-9-1-15-4-10-6-14-15-2-5-2-13v-1h16q18 0 28 2zm60 78q-13 8-29 8t-29-8v-2q1-2 2.5-4.5t3.5-3.5q11 3 23 3t23-3l1 1q2 2 3.5 4.5t1.5 4.5z"/></svg>