<svg viewBox="0 0 300 300.002" xmlns="http://www.w3.org/2000/svg"><path d="M150 0q63 0 106.5 43.5T300 150q0 63-43 105-45 45-106.5 45t-106-44.5Q0 211 0 149.5T44 44Q88 0 150 0zM34 110q-7 18-7 40 0 50 36.5 86t87 36q50.5 0 87.5-36 13-13 20-27l-56-25q-3 14-14.5 23T160 218v23h-17v-23q-25-1-45-18l20-21q15 14 34 14 7 0 12.5-3.5T170 178q0-6-4-9L34 110zm235 72q4-16 4-32 0-52-36-87.5T150 27q-51 0-86 36-9 9-17 20l57 26q4-12 14.5-19t24.5-8V59h17v23q21 1 38 14l-20 20q-12-9-25-9-7 0-12.5 2.5T135 119q0 2 1 4l133 59z"/></svg>