<svg viewBox="0 0 300 300.002" xmlns="http://www.w3.org/2000/svg"><path d="M300 150q0 63-43 105-45 45-106.5 45t-106-44Q0 212 0 150T43.5 44Q87 0 150 0t106.5 43.5Q300 87 300 150zm-62 86q35-34 35-85.5T237 63q-36-36-87-36T63 63.5Q27 100 27 150t36.5 86.5Q100 273 150 273t88-37zm-49-128q20 0 31 10t11 31q0 21-11 31.5T189 191h-32v-83h32zm1 65q11 0 16-6.5t5-17.5q0-11-5.5-17.5T189 125h-11v48h12zm-39-37q0 11-6 18-9 10-28 10h-16v27H80v-83h41q16 0 23 7.5t7 20.5zm-33 12q6 0 9.5-3.5t3.5-8.5q0-13-14-13h-17v25h18z"/></svg>