<svg viewBox="0 0 300 300.002" xmlns="http://www.w3.org/2000/svg"><path d="M134 112q-10 4-19 12-11 8-17 19-8 13-9 28 0 9 2.5 19.5T101 213q1 1 2 0l4-2-7-11q-7-17-6-32 1-7 2-12 7-19 25-35l14-10-1 1zm0 0q-10 4-19 12-11 8-17 19-8 13-9 28 0 9 2.5 19.5T101 213q1 1 2 0l4-2-7-11q-7-17-6-32 1-7 2-12 7-19 25-35l14-10-1 1zm0 0q-10 4-19 12-11 8-17 19-8 13-9 28 0 9 2.5 19.5T101 213q1 1 2 0l4-2-7-11q-7-17-6-32 1-7 2-12 7-19 25-35l14-10-1 1zm0 0q-10 4-19 12-11 8-17 19-8 13-9 28 0 9 2.5 19.5T101 213q1 1 2 0l4-2-7-11q-7-17-6-32 1-7 2-12 7-19 25-35l14-10-1 1zM160 0q-40-2-76 15.5T25.5 66Q3 99 .5 139.5t15 76.5Q33 252 66 274.5t73.5 25q40.5 2.5 76.5-15t58.5-50.5q22.5-33 25-73.5t-15-76.5Q267 48 234 25.5T160 0zm13 39q8 0 16 1l-31 58q0 1-1 1-13-1-26 3h-1l16-60q14-3 27-3zm-46 138q1 3 2 9l1 5 8-2 16 33-26-2q-10 0-16 2t-8 5l-4-4q-8-8-12.5-18T81 185q-1-8 0-16 1-20 13-36 10-15 25-23 11-5 22-7 8-2 16-1 14 1 28 8 9 5 16 11l3 2-76 52q-1 1-1 2zM96 66q17-13 38-20l-10 57q0 1-1 1v1q-13 5-23 15l-4-54zM66 99q1-1 2-3l8-10 10-11 11 48-1 1q-7 8-12 18l-19-40 1-3zm-9 17q1-1 1-2l24 31q1 1 0 2-3 8-4 15l-28-25q3-11 7-21zm-10 58v-7q0-9 1-19l29 18q1 1 1 2-1 10 0 17l-31-11zm5 28q-3-9-4-18l30 6q1 0 1 1l3 11H52zm12 28q-5-8-9-17l28-7q1 0 2 1l5 9-26 14zm97 15q-2 4-6 11l-1 3-27-4-13-1q-11 0-20 3l11-26q1-2 4-4t10-3q7-1 13 0l20 2q1 0 1 1l8 17v1zm39 13q-1 4-6 8t-12 7q-2 1-2-1l-37-80 8-1 12 12 11 8q7 6 13 14 10 14 13 30 1 1 0 3zm20-90q0 1-1 1l-86 17-2-8v-1l82-56 7 47zm-28-60q-1 1-2 1-12-7-24-9l39-57q22 6 41 20l-54 45zm-67 119q-7 1-13 3h-2l-8 17 1 1 11-16 1-1q13-4 21-3h-2q-4-1-9-1zm9-115q-10 4-19 12-11 8-17 19-8 13-9 28 0 9 2.5 19.5T101 213q1 1 2 0l4-2-7-11q-7-17-6-32 1-7 2-12 7-19 25-35l14-10-1 1zm0 0q-10 4-19 12-11 8-17 19-8 13-9 28 0 9 2.5 19.5T101 213q1 1 2 0l4-2-7-11q-7-17-6-32 1-7 2-12 7-19 25-35l14-10-1 1zm0 0q-10 4-19 12-11 8-17 19-8 13-9 28 0 9 2.5 19.5T101 213q1 1 2 0l4-2-7-11q-7-17-6-32 1-7 2-12 7-19 25-35l14-10-1 1z"/></svg>