<svg viewBox="0 0 300 300.002" xmlns="http://www.w3.org/2000/svg"><path d="M179 181q-4 13-21 12-10 0-27-4l-3-1 9-36 4 1q17 4 26 8 15 8 12 20zm5-53q-3 11-18 12-8 0-22-4l-3-1 8-33 4 1q14 3 21 7 12 7 10 18zm2-124q-39-9-77.5 2T42 45.5Q14 74 4.5 113.5t1.5 78Q17 230 45.5 258t68 37.5q39.5 9.5 78-1.5t66.5-39.5q28-28.5 37.5-68t-1.5-78Q283 70 254.5 42T186 4zm-67 97q1-7-8-9 1-1-11-3l4-18 33 8 7-27 16 4-6 27 13 3 6-26 17 4-7 27q17 6 26 14 9 10 7 24-3 20-21 24 12 6 16 15.5t-1 24.5q-6 18-22 22-13 4-36 0l-7 27-16-4 7-27-13-3-7 27-17-4 7-28-33-8 8-19 6 2 6 1q6 2 8-4l18-74z"/></svg>