<svg viewBox="0 0 300 300.002" xmlns="http://www.w3.org/2000/svg"><path d="M74 197q1 3 3 7 7 17 20.5 31t31.5 21.5q18 7.5 38 7.5t38-7.5q18-7.5 31.5-21.5t21-32q7.5-18 7.5-37.5t-7.5-37.5q-7.5-18-21-32T205 74.5Q187 67 167 67t-39 8q-7 3-17.5 10T93 99V18h136q5 0 5-9t-5-9H82q-3 0-4.5 2T76 6v114q0 3 2.5 5t7 3q4.5 1 7-.5T97 124v-1q2-3 8-9l5-5q11-11 26-17.5t31-6.5q16 0 30.5 6.5t26 17.5q11.5 11 17.5 25.5t6 31q0 16.5-6 31T224 222q-11 11-26 17.5t-31 6.5q-23 0-41-12v-69q0-14 11.5-27t29-13q17.5 0 29.5 12t12 29q0 17-12 29t-30 12q-4 0-12-2-5-2-8 7-1 5 0 7.5t2 2.5q9 3 19 3 16 0 29.5-8t21.5-21.5q8-13.5 8-30t-8-30q-8-13.5-21.5-21.5t-29.5-8q-25 0-42 18-8 8-12.5 18t-4.5 20v58q-10-11-17-28-1-3-3-3.5t-7 1.5q-8 2-7 7zm70-16q0 2 3 5t5 3q2 0 3-1l11-11 10 10q2 2 4 2t5-3q4-5 1-8l-11-11 11-11q3-3-1.5-7.5T177 146l-11 11-11-11h-3q-2 0-5 2-4 5-2 8l11 11-11 11q-1 1-1 3zm24-149q-28 0-50 10-2 1-2.5 3t1.5 6q3 8 7 7 22-9 44-9 24 0 46 10 17 7 35 22 1 1 3 1t5.5-3.5q3.5-3.5 4-6T260 68q-17-16-39-25-25-11-53-11zm95 217q-4-3-6-3.5t-4 1.5l-1 1q-16 16-38 25t-46 9q-24 0-45.5-9T84 247q-17-17-25-37-6-13-8-27v-1q-1-2-3-3t-7 0q-8 1-8 6 3 17 9 32 11 24 29.5 43t43.5 29.5q25 10.5 53 10.5t53-10.5q25-10.5 43-29.5l2-1q3-4-3-10z"/></svg>