<svg viewBox="0 0 300 300.002" xmlns="http://www.w3.org/2000/svg"><path d="M51 183H39v-66h12v66zm52 0H92v-5q-5 6-14 6t-15-7q-6-7-6-16.5t6-16.5q6-7 15-7t14 7v-5h11v44zm-34-22q0 5 3 8.5t8.5 3.5q5.5 0 8.5-3.5t3-9q0-5.5-3.5-8.5t-8-3.5q-4.5-.5-8 3.5t-3.5 9zm93-37q0 3-2 5.5t-5 2.5q-3 0-5.5-2.5T147 124q0-3 2.5-5t5.5-2q3 0 5 2t2 5zm-1 58h-12v-44h12v44zM34 129q-4-2-9-1.5t-5 5.5v6h14v10H20v34H8v-34H0v-10h8v-6q0-8 4-12.5t12-4.5q5 0 10 2v11zm99 44q-6 0-6-8v-16h16v-10h-16v-13h-12v13h-6v10h6v17q0 18 16 18 6 0 12-3l-5-9q-2 1-5 1zm120-12q0 9-7 16t-17 7q-10 0-17-6.5t-7-16.5q0-10 6.5-17t17-7q10.5 0 17.5 7t7 17zm-36 0q0 5 3.5 8.5t8.5 3.5q5 0 8-3.5t3-9q0-5.5-3-9t-8-3.5q-5 0-8.5 3.5T217 161zm83-6v28h-12v-25q0-9-8-9-5 0-7.5 2.5T270 159v24h-12v-44h12v5q4-7 12-7t13 5q5 5 5 13zm-101 13q-3 4-8 5l-3-1q-6-1-8-6-1-2-1-5.5t1-6.5q2-5 8-6h3q5 1 8 5l6-10q-4-3-8-4.5t-7.5-1.5q-3.5 0-8 1.5T174 143q-8 7-8 17.5t8 17.5q3 3 7.5 4.5t8.5 1.5q4 0 7.5-1t7.5-5l-6-10z"/></svg>