<svg viewBox="0 0 300 300.002" xmlns="http://www.w3.org/2000/svg"><path d="M247 4H53Q31 4 15.5 19.5T0 57v186q0 22 15.5 37.5T53 296h194q22 0 37.5-15.5T300 243V57q0-22-15.5-37.5T247 4zm-86 206h-30q-4 0-5-2l-25-47-26 48q-1 1-3 1H44v-2l39-64-38-64q-1 0-.5-.5T46 79h30l1 1 8 16 9 16q5 8 9 16l26-49h28q1-1 1 0v2l-38 61 40 66 1 2zm94-5q-10 4-20 5.5t-20 1.5q-14 1-26-5t-19-17q-7-11-7-29 0-14 7-26t20-19.5q13-7.5 31-7.5l7 1V69q0-1 1-1h25q1 0 2 1v134q0 1-1 2zm-35-73q-7 0-13.5 3t-10.5 9q-4 6-4 16-1 7 1.5 12.5t6 9q3.5 3.5 8.5 5.5t10 2l5-1h5v-55l-8-1z"/></svg>