<svg viewBox="0 0 300 300.002" xmlns="http://www.w3.org/2000/svg"><path d="M282 31L98 1h-2q-5 0-8 3t-3 8v14l167 28q9 1 15 8t6 16v144l14 3h2q5 0 8-3.5t3-7.5V53q0-9-5.5-15T282 31zm-42 38L56 39h-2q-5 0-8 3t-3 8v14l166 28q8 1 14 8t6 17v144l14 2h2q5 0 8-3t3-8V88q0-7-4.5-12.5T240 69zm-43 36L13 75h-2q-5 0-8 3t-3 8v167q0 5 3.5 9.5T13 268l188 31h2q5 0 8-3t3-8V126q-1-8-5.5-13.5T197 105zM83 220q0 3-2.5 4t-4.5-1l-45-42q-2-1-2-3.5t2-3.5l45-26q2-1 4.5 1t2.5 4v67zm94-15l-45 27q-2 2-4.5 0t-2.5-5v-67q0-3 2.5-3.5t4.5.5l45 41q2 2 2 4t-2 3z"/></svg>