<svg viewBox="0 0 300 300.002" xmlns="http://www.w3.org/2000/svg"><path d="M85 77q0-8-6-13-7-7-22-7H22l-10 46h37q19 0 28-8 8-7 8-18zm93 0q0-8-6-13-7-7-22-7h-35l-9 46h36q19 0 28-8 8-7 8-18zM72 146q0-8-5-14-7-6-23-6H10L0 171h36q19 0 29-8 7-7 7-17zm93 0q0-8-5-14-7-6-22-6h-35l-10 45h36q20 0 29-8 7-7 7-17zm98-28q0-8-6-13-7-7-22-7h-35l-9 46h36q19 0 28-9 8-6 8-17zm-14 71q0-8-5-13-7-7-22-7h-35l-10 46h36q20 0 29-8 7-7 7-18zm-97 28q0-8-6-13-7-7-22-7H90l-10 46h36q19 0 28-9 8-6 8-17zm132 26q-8 0-12.5-5t-4.5-12.5q0-7.5 5-12t11.5-4.5q6.5 0 11.5 4.5t5 12q0 7.5-5 12.5t-11 5zm0-31q-6 0-9.5 4t-3.5 10q0 6 3.5 10t9 4q5.5 0 9-4t3.5-10q0-6-3.5-10t-8.5-4zm-4 23h-3v-18h7q7 0 7 5t-5 5l5 8h-3l-5-8h-3v8zm4-10q4 0 4-3t-4-3h-4v6h4z"/></svg>