<svg viewBox="0 0 300 300.002" xmlns="http://www.w3.org/2000/svg"><path d="M112 110V92h5q17-1 34 6 13 5 25 14 9 7 17 15l5 7-6 8q-7 9-16 16-11 11-23 17-14 7-27 7-7 0-14-2v-54q12 1 19 7 5 5 13 19l2 3 26-21-6-6q-8-8-17-12-13-6-27-6-4-1-10 0zm0-59v27l5-1q30-1 60 14 20 10 39 27 9 9 14 15l-9 10q-11 11-23 21-17 14-34 21-20 10-38 10-7 0-14-1v16q7 1 11 1 34 0 66-16 23-12 54-39 3 2 16 9 16 9 18 12-15 13-44 25-27 11-57 18t-52 7q-6 0-12-1v23h188V51H112zm0 129v14q-29-5-46-31-9-13-13-25l7-6q10-8 21-13 15-7 31-9v15q-9-1-18 3-6 3-12 8l-4 5 3 8q4 10 11 17 8 10 20 14zm-81-44q2-3 5-6 7-8 15-14 12-9 25-15 17-7 36-9V78q-21 1-43 10-18 8-36 19-12 8-24 18l-9 8 4 9q5 11 12 22 9 14 21 26 14 14 32 23 20 11 43 13v-16q-27-3-48-22-15-14-26-34-5-10-7-18z"/></svg>