<svg viewBox="0 0 300 300.002" xmlns="http://www.w3.org/2000/svg"><path d="M64 0h13v13h12V0h14v40H89V27H77v13H64V0zm57 13h-12V0h37v13h-12v27h-13V13zm31-13h14l9 14 9-14h14v40h-14V20l-9 15-10-15v20h-13V0zm52 0h14v27h19v13h-33V0zM44 59l19 217 87 24 87-24 19-217H44zm39 44h67v27h-38l3 27h35v27H90l-7-81zm67 81h33l-3 34-30 8v-42zm70 78l-70 20v-28l-55-15-3-42h26l2 21 30 8v28l54-15 8-82h-62v-27h64l3-27h-67V77h87l-17 185zm-70-105h62l-8 82-54 15v-28l30-8 3-34h-33v-27zm67-54l-3 27h-64v-27h67zm-67 0v27-27zm0 54v27-27zm0 69v28-28zm0-123v27h64l3-27h-67zm0 54v27h33l-3 34-30 8v28l54-15 8-82h-62z"/></svg>