<svg viewBox="0 0 300 300.002" xmlns="http://www.w3.org/2000/svg"><path d="M136 112q3 6 3 11 0 9-4.5 13.5t-11 6.5q-6.5 2-13.5 2H99v-42h13q8 0 14 2t10 7zM247 4H53Q31 4 15.5 19.5T0 57v186q0 22 15.5 37.5T53 296h194q22 0 37.5-15.5T300 243V57q0-22-15.5-37.5T247 4zm-89 145q-14 20-48 20H98v40q1 1-1 1H73q-2 0-2-1V80q0-1 2-1l38-1q16 0 26 4 19 7 26 25 4 10 2.5 22t-7.5 20zm86-15q0 2-2 2-8 0-13.5 1t-10 3q-4.5 2-7.5 5v64q0 1-1 1h-25q-2 1-2-1v-79l-1-18q0-2 .5-2H205q2 0 3 2l1 3v9q6-7 14-11.5t19-4.5q1 0 2 1v25z"/></svg>