<svg viewBox="0 0 300 300.002" xmlns="http://www.w3.org/2000/svg"><path d="M247 5H53Q31 5 15.5 20.5T0 58v184q0 22 15.5 37.5T53 295h194q22 0 37.5-15.5T300 242V58q0-22-15.5-37.5T247 5zm-76 203h-26l-1-1V99l-28 107q0 2-2 2H93q-2 0-2-1L65 99v15l-2 92q0 2-2 2H38v-2l6-124q1-1 2-1h35q1 0 2 1l19 78 3 12 25-90q0-1 2-1h34q1 0 1 1l5 124q0 1-1 2zm96-48q0 2-.5 3.5T265 165l-61 1q1 6 4.5 11.5t10.5 8q7 2.5 14 2.5 12 0 23-4 1-1 1 1v20l-1 1q-10 6-29 5-13-1-21-4-11-4-18-12-11-14-11-35t12-36q7-7 16-11.5t20-4.5q22 1 32 14t10 30v8zm-43-30q-5 0-9.5 2.5t-7 7.5q-2.5 5-3.5 10h36v-1q0-4-1-8.5t-5.5-7.5q-4.5-3-9.5-3z"/></svg>