<svg viewBox="0 0 300 300.002" xmlns="http://www.w3.org/2000/svg"><path d="M190 154q-11 0-16.5 2.5t-5.5 8q0 5.5 4 9.5t12 4q12 0 18-6t6-17v-2l-18 1zm34 18v13h-14v-10q-6 7-13 9.5t-16 2.5q-14 0-21.5-6t-7.5-15q0-12 9-17t28-6h19v-1q0-16-19-16-7 0-11.5 3t-4.5 7h-16q1-11 12-16 8-4 22-4t23 6q9 6 9 19l1 31zM60 146q-1-10-7-15t-15-5q-9 0-15 5t-7 15h44zm-45 10q1 10 7.5 15.5T39 177q7 0 12-2.5t7-8.5h16q-3 11-13 16t-22 5q-20 0-29.5-9.5T0 152q0-16 9.5-26T39 116q17 0 27 9t10 27v4H15zm99 21q11 0 17.5-7t6.5-18.5q0-11.5-6.5-18.5t-17-7q-10.5 0-17 7T91 151.5q0 11.5 6.5 18.5t16.5 7zM76 90h15v38q9-12 27-12 14 0 25 9.5t11 25.5q0 16-10 26t-26 10q-18 0-27-11l-1 9H75l1-16V90zm224 29l-47 91h-16l13-25-35-66h18l25 51 26-51h16z"/></svg>