<svg viewBox="0 0 300 300.002" xmlns="http://www.w3.org/2000/svg"><path d="M150 0q33 0 64 15t53 41.5Q289 83 296 115q4 17 4 35 0 31-11 58t-32.5 48Q235 277 207 288.5T150 300q-36 0-68-17t-53.5-46Q7 208 2 172q-2-11-2-22 0-36 16.5-67.5t45-53Q90 8 125 2q12-2 25-2zm0 27q-32 0-60.5 17T44 89.5Q27 118 27 150t17 60.5q17 28.5 45.5 45t61 16.5q32.5 0 61-16.5t45-44.5q16.5-28 16.5-61t-16.5-61.5q-16.5-28.5-45-45T150 27zm-2 98l-20 11q-3-7-7.5-10t-8.5-3q-20 0-20 27 0 12 5 19.5t15 7.5q13 0 18-13l19 9q-6 11-16.5 17.5T109 197q-20 0-32-12.5t-12-34Q65 129 77 116t31-13q28 0 40 22zm87 0l-20 11q-3-7-7.5-10t-9.5-3q-20 0-20 27 0 12 5 19.5t15 7.5q13 0 19-13l18 9q-6 11-16.5 17.5T196 197q-20 0-32.5-12.5t-12.5-34q0-21.5 12.5-34.5t31.5-13q28 0 40 22z"/></svg>