<svg viewBox="0 0 300 300.002" xmlns="http://www.w3.org/2000/svg"><path d="M201 107q3 20-3 38.5T177 174q-11 7-24.5 7.5T129 178q-17-8-25-27-7-17-6-38 2-29 18-45 13-14 32-14 23 0 36 14t17 39zm99-70v225q0 16-11 27t-26 11H38q-16 0-27-11T0 262V37q0-15 11-26T38 0h225q15 0 26 11t11 26zm-79 151V43h-19v27q-1 0-2-1-5-12-17-21-15-10-33-10-26 0-43.5 14T82 90q-4 14-4 31 1 38 21 58t55 19q14-1 26.5-8.5T200 168l1-2q1 7 .5 23.5T197 218q-8 22-30 27-19 4-36-1-23-7-27-28 0-1-1-1H84q1 11 6 19 11 20 38 26 23 6 47.5 0t35.5-26q10-18 10-46z"/></svg>