<svg viewBox="0 0 300 300.002" xmlns="http://www.w3.org/2000/svg"><path d="M98 102l16 52H82l16-52zM247 4H53Q31 4 15.5 19.5T0 57v186q0 22 15.5 37.5T53 296h194q22 0 37.5-15.5T300 243V57q0-22-15.5-37.5T247 4zm-87 206h-26q-2 0-2-2l-11-29H75l-10 29q0 2-2 2H39q-2 0-1-2L80 88v-8q0-1 1-1h33q1 0 1 1l46 128q0 2-1 2zm102-2q0 2-1 2h-24q-2 0-2-2v-56q0-6-2-10.5t-5.5-7Q224 132 219 133q-10 0-17 6v69q0 2-1 2h-24q-2 0-2-2v-82l-1-14q0-1 1-2h23q1 1 1 2l2 7q5-5 12.5-8t14.5-3q7 0 13 2.5t11 7q5 4.5 7.5 11.5t2.5 20v59z"/></svg>