<svg viewBox="0 0 300 300.002" xmlns="http://www.w3.org/2000/svg"><path d="M247 4H53Q31 4 15.5 19.5T0 57v186q0 22 15.5 37.5T53 296h194q22 0 37.5-15.5T300 243V57q0-22-15.5-37.5T247 4zM145 82v22q0 2-1 2-6-3-12-4-24-3-38 5-10 5-15.5 15.5t-5 22Q74 156 79 166t14 15q16 9 38 6 6-1 11-3 1 0 1.5.5l.5.5v21q0 2-2 3-6 2-12 3-21 2-37.5-2t-28-15q-11.5-11-16-26T45 138q1-16 9-29 9-16 26.5-24.5T118 76q8 0 15 1 5 1 11 2 1 1 1 3zm105 126q0 2-2 2h-23q-2 0-2-2v-56q0-6-2-10.5t-6-7q-4-2.5-9-2.5t-9 1.5q-4 1.5-7 4.5v70q0 2-2 2h-25q-1 0-1-1V69q0-1 1-1h26q1 0 1 1v48q6-4 12-6 11-4 25-.5t20 18.5q3 8 3 20v59z"/></svg>