<svg viewBox="0 0 300 300.002" xmlns="http://www.w3.org/2000/svg"><path d="M150 0Q87 0 43.5 44T0 150q0 62 44.5 106t106 44q61.5 0 106.5-45 43-42 43-105T256.5 43.5Q213 0 150 0zm0 27q51 0 87 36t36 87.5q0 51.5-35 85.5-37 37-87.5 37t-87-36.5Q27 200 27 150t36-86.5Q99 27 150 27zm65 124q-5 0-7 5l-2 5-7-56q0-2-2-4t-4.5-2q-2.5 0-4.5 2t-3 5l-2 31-3-42q-1-3-3-4.5t-4.5-1.5q-2.5 0-4.5 1.5t-2 4.5l-2 27-4-57q0-3-2-4.5t-5-1.5q-3 0-5 1.5t-2 4.5l-3 51-3-40q0-3-2-5t-5-2q-3 0-5 2t-2 5l-3 48-2-34q-1-3-3-5t-4.5-2q-2.5 0-4.5 2t-2 5l-5 54-1-7q-1-6-6-6.5t-8 4.5l-7 16H53v14h31q4 0 6-3l7 44q0 2 2 4t5 2q3 0 4.5-2t2.5-5l2-26 3 47q1 3 3 5t4.5 2q2.5 0 4.5-2t2-5l3-42 3 44q0 3 2 5t5 2q3 0 5-2t2-5l3-49 3 44q0 3 2 4.5t5 1.5q3 0 5-1.5t2-4.5l3-36 3 39q0 3 2 5t4.5 2q2.5 0 4.5-2t3-5l4-50 1 14q1 2 2.5 4t4 2q2.5 0 4.5-1t3-3l11-27h30v-14h-35zm-47 4h-13v13q0 2-1.5 3t-3.5 1q-2 0-3.5-1t-1.5-3v-13h-13q-2 0-3-1.5t-1-3.5q0-2 1-3.5t3-1.5h13v-13q0-2 1.5-3t3.5-1q2 0 3.5 1t1.5 3v13h13q2 0 3 1.5t1 3.5q0 2-1 3.5t-3 1.5z"/></svg>