<svg viewBox="0 0 300 300.002" xmlns="http://www.w3.org/2000/svg"><path d="M265 185q0 31-15.5 57.5t-42 42Q181 300 150 300t-57.5-15.5q-26.5-15.5-42-42T35 185q0-25 11-48 8-19 25-40 10-12 32-33 21-21 29-31 14-18 18-33 4 15 18 32 8 11 29 32 22 21 32 33 17 21 25 40 11 23 11 48zm-39 22q4-10 4-25 0-21-13-41-9-13-26-33-13-14-28-29l-13-13-22 22q-5 5-6 9-3 7 4 14l15 16q65 69 71 78l1 2q2 3 3.5 4t4 1q2.5 0 5.5-5zm-37 24q1-15-9-26l-30-33-30 33q-4 6-6.5 12.5T111 231q0 17 11.5 28.5T150 271q16 0 27.5-11.5T189 231zm-58-73q2-2 0-4l-32-35q-17 17-24 35-5 15-4 29 1 12 5.5 20.5T84 212q2 0 3-2 4-11 42-50l2-2z"/></svg>