<svg viewBox="0 0 300 300.002" xmlns="http://www.w3.org/2000/svg"><path d="M221 142q4-1 6 0 2-5 1-12-3-12-8-11t-3 13q2 6 4 10zm-36 5q1 0 1 1 4 2 5 1t0-3q-3-4-8-6t-10.5-1.5q-5.5.5-10 3.5t-4 4.5q.5 1.5 1.5 1.5l4-1q6-2 10.5-2t10.5 2zm-6 4q-4 1-6.5 3t-2.5 3l1 1 3-1q6-2 12-1h1q2 0 2.5-.5t0-1.5q-.5-1-3.5-2.5t-7-.5zm30 12q2 1 4 1t2.5-1.5q.5-1.5 0-3.5t-2.5-3q-2-1-4-.5t-3 2q-1 1.5 0 3t3 2.5zm17-14q-1 0-2.5 1.5T222 154q0 2 1 3.5t3 1.5q2 0 3-1.5t1-3.5q0-2-1-3.5t-3-1.5zM82 202q0-1-2-1l-2 1q-3 0-4-2.5t0-6.5l1-1q4-10 .5-16.5T65 168q-7-1-12 4-3 4-4.5 8.5t-.5 6q1 1.5 2 2t2-2.5v-1q1-3 2.5-5t5-3q3.5-1 6.5 1t4 4.5q1 2.5-1 5.5-1 6-1 10t2.5 6q2.5 2 5 2t4.5-1q2-1 2.5-2t-.5-1zm198-12q-1-3-2-7l-2-7q5-8 4-15.5t-6.5-13.5q-5.5-6-21.5-11l-6-1v-19q-1-10-3-16-3-13-11-21 10-11 16-22t6-21q0-13-9.5-20t-26-6.5Q202 10 183 18l-9 3-15-15q-13-11-37-2-21 7-45 28.5T34.5 80Q16 106 10 127q-5 24 7 35l10 8q-4 11-2 23 1 16 14.5 28T70 233q13 30 41 48t64 19q38 1 67.5-16t42.5-49q6-15 6-28 0-8-3.5-12.5T280 190zM74 222h-5q-12 0-22-9t-11.5-22q-1.5-13 5-22.5T59 157q4-1 7-1 8 1 15 7 9 7 11 21t-2.5 25Q85 220 74 222zm-17-76q-16 3-25 15-9-7-10-10-6-11 3-32 6-17 19-35 15-22 35-39.5T117.5 18Q136 9 148 12q3 1 16 15l-14 8q-17 11-30 22-21 16-37 39t-26 50zm160 69v-1q0-1-1-1l-7 1h-17q-12-2-22-5 1-5 4-5.5t9 .5h6q23 2 45-5 20-5 34-16 3 4 4 11l1 5h2q2 0 3 1 4 2 3 11-3 19-18 34-9 10-20 15-7 4-14 6-27 9-51 .5T145 237l-3-6q-3-14 0-29t13-25q2-2 2-3t-2-3l-3-5q-8-8-11-14-5-10-3-22t10.5-19.5Q157 103 167 104l19 1q6 0 11.5-1.5T209 97h1q4-4 8-5h3q4 0 6 2 7 4 8 23l1 18q0 5 1.5 7t4.5 3l7 2q13 3 17 8 3 3 4 6 0 6-6 13t-19.5 13q-13.5 6-30 8.5t-30.5.5h-6q-6-1-10.5 3.5T162 211q-1 7 3 12.5t13.5 9Q188 236 199 236q22 0 42-8 17-8 24-18l1-2q-12 9-28 14-27 10-50 6l-8-2q-10-4-11-11 18 5 35 3 8-1 13-3zM115 84q17-20 37-30h1q-3 5-4 9h1q6-4 15.5-7.5T183 52v1q-3 2-5 5-1 1 0 1 7 0 14.5 2t13.5 5v.5q0 .5-1 .5-25-6-49 0t-41 18h-.5q-.5 0 .5-1z"/></svg>