<svg viewBox="0 0 300 300.002" xmlns="http://www.w3.org/2000/svg"><path d="M102 67q0 8-3.5 11.5T88 82H38.5Q36 82 32 84q-1 0 0 0l72-74q1-1 1 0-2 4-2.5 6.5T102 34v33zm68 224q-11-7-15-18-2-6-2-13 0-16 11-27t26-11q5 0 8.5 3.5t3.5 9q0 5.5-6 8.5l-4 2h-1q-6 0-8 2-4 4-4 9.5t4 9.5q7 7 17 7 12 0 21-9t9-21q0-12-6.5-21.5T207 207q-2 0-7-2l-9-1q-12-2-22-8-15-10-16-25l-3 10q-3 11-8 19-6 11-12 15-3 2-6 2l-6 1q-19 1-37.5-5.5T48 193l-3-4q-4-5-8-12-5-10-8-23l-1-4q-3-18-5-27l-1-11q0-8 5-14t12-7h50q12 0 17-5t5-17l1-52q0-7 6-12t15-5q13 0 20.5 2T165 8q4 4 6 9l1 4 47 8q19 3 29 9 18 9 21 29 7 37 9 78 1 30-1 59-1 23-2 23-3 22-12 37-8 13-19 22-9 7-21 10-8 3-16 4h-7q-16 0-30-9zm57-163q-6-1-11 1.5t-7 6.5q-1 3-.5 3.5l1.5 1.5q3 2 15 3t16 1l1.5-1.5q.5-.5-.5-3.5 0-5-4.5-8.5T227 128z"/></svg>