<svg viewBox="0 0 300 300.002" xmlns="http://www.w3.org/2000/svg"><path d="M110 147h-3v-29l10-1q12 0 16 7 3 4 2.5 9t-2.5 8q-6 6-18 6h-5zM247 4H53Q31 4 15.5 19.5T0 57v186q0 22 15.5 37.5T53 296h194q22 0 37.5-15.5T300 243V57q0-22-15.5-37.5T247 4zm-36 121l1 1v15l-1 1h-1q-4-2-8.5-3t-9-1q-4.5 0-6.5.5t-2.5 1.5q-.5 1-.5 2.5t1 2.5q1 1 3 2l6 3q7 3 12.5 6t8 7.5q2.5 4.5 2.5 10t-4 11q-4 5.5-11 8.5t-14 3q-7 0-12.5-1.5T165 192q-1-1-1-2v-16h1q0-1 0 0 6 3 11 4t10 1.5q5 .5 8-1t2.5-4q-.5-2.5-2.5-3.5-4-3-9.5-4.5T174 161q-5-4-7.5-8t-2.5-9.5q0-5.5 3.5-10.5t10-8q6.5-3 14.5-3 6 0 10.5.5t8.5 2.5zm-61 134q-29 0-54-14.5T56 205q-15-25-15-55t15-55q15-25 40-39.5T150 41q13 0 25.5 3t23.5 9q3 1 1.5 3t-3.5 1q-22-11-46-11h-1q-28 0-52 14T60 98q-14 24-14 52t14 52q14 24 38 38t52.5 14q28.5 0 52-14t37.5-38q14-24 14-52 0-12-2.5-24t-8.5-23q-1-2 1-3.5t4 1.5q11 23 11 49 0 30-14.5 55T205 244.5Q180 259 150 259zm-44-65H89q-1 0-1-1v-91q0-1 1-1l27-1q10 0 17.5 2.5T146 110q5 5 7 10t2 12q0 11-5.5 18.5t-15 11Q125 165 115 164h-8v28q0 2-1 2z"/></svg>