<svg viewBox="0 0 300 300.002" xmlns="http://www.w3.org/2000/svg"><path d="M239 88q-23 0-39 14-12 10-17 21 0-12-9.5-22.5T151 90H95v121h52q15 0 25.5-10.5T183 177q6 12 17 21 17 14 39 14 16 0 30-8.5t22.5-23q8.5-14.5 8.5-31t-8.5-30.5Q283 105 269 96.5T239 88zm-96 95h-17v-20h17q3 0 5.5 3t2.5 7q0 4-2.5 7t-5.5 3zm0-45h-17v-21h17q3 0 5.5 3t2.5 7.5q0 4.5-2.5 7.5t-5.5 3zm22 12q3-1 7-3.5t5-4.5v17q-2-3-5.5-6t-6.5-3zm74 31q-13 0-22-9t-9-22q0-13 9-22t21.5-9q12.5 0 21.5 9t9 22q0 13-9 22t-21 9zm-25-31q0 10 7.5 17t17.5 7q10 0 17-7t7-17q0-10-7-17t-17-7q-10 0-17.5 7t-7.5 17zM88 211H55v-47H34v47H0V90h34v45h21V90h33v121zM293 99q1 0 1-1v-1h-2v2h1zm-2-3h2q1 0 2 1v2h-1l1 2h-1l-1-2h-1v2h-1v-5zm2 7q3 0 4-2v-1q0-1-.5-3t-3.5-2h-2q-2 1-2 3.5t1 3.5q1 1 3 1zm0 0q-2 1-3-1l-1-1q-1-2-.5-4t2.5-2.5q2-.5 3.5 0T297 97q1 2 0 4t-3 2l-1 1v-1z"/></svg>