<svg viewBox="0 0 300 300.002" xmlns="http://www.w3.org/2000/svg"><path d="M227 99V64q7-4 11.5-10.5T243 39v-1q0-11-8-19t-20-8q-12 0-20 8t-8 19v1q0 8 4.5 14.5T203 64v35q-21 3-37 16L68 39q4-12-2.5-23.5T46.5 1Q34-2 22.5 4.5T8 23.5Q5 36 11.5 47T30 61.5Q42 65 54 58l96 75q-13 20-13 44t14 44l-29 29q-4-1-8-1-10 0-17.5 7.5t-7.5 18q0 10.5 7.5 18t18 7.5q10.5 0 18-7.5T140 275q0-4-1-8l29-29q17 13 37.5 15.5t39.5-5q19-7.5 32-24.5t15.5-37.5q2.5-20.5-5.5-40t-24-32Q247 102 227 99zm-12 117q-17 0-28.5-11.5t-11.5-28q0-16.5 12-28.5t28.5-12q16.5 0 28 12t11.5 28.5q0 16.5-11.5 28T215 216z"/></svg>