<svg viewBox="0 0 300 300.002" xmlns="http://www.w3.org/2000/svg"><path d="M8 43q-5 2-7 6-1 2-1 5.5T.5 60Q1 62 3 64t3 4q1 5 5 9t8 4q1 0 4 3l2 2h-3q-3 0-6 1t-6 3.5Q7 93 7 94t-2.5 3.5Q2 100 1 102t-1 5q0 6 3.5 9.5T12 120q5 0 6.5-1t4.5-1q6 1 11-3 2-2 3.5-2t4.5-1.5q3-1.5 5-4.5t1.5-4.5q-.5-1.5-2.5.5t-5 3.5q-3 1.5-5 1.5t-5 2q-5 4-10 2-2-1-4 0t-4.5 1q-2.5 0-4-2T7 106.5q0-2.5 2-4.5t3-5q2-5 11-6 4 0 5.5-1.5t3.5-2q2-.5 3.5-1t1-1.5q-.5-1-3.5-1.5t-6-4Q24 76 22.5 76T18 74.5q-3-1.5-4.5-4t-2-5Q11 63 9 61t-2-5.5Q7 52 10.5 50t6-.5Q19 51 23 51q8 1 12 8 1 4 3 4t5 3q3 3 3 5t.5 3q.5 1 1.5 0t1.5-3q.5-2 1.5-3.5t2-4.5q2-8 9-10 3-1 5.5-3t6-1q3.5 1 4.5 4t-.5 6Q76 62 76 65q0 5-5 8-2 1-3.5 4.5t-5 5.5Q59 85 59 86t3.5.5q3.5-.5 6-2t4-4q1.5-2.5 4-4.5t4-5q1.5-3 1.5-5.5t1-4.5q3-4 1.5-9T78 44q-5-3-9-1.5T63 46q-2 2-5 2.5T52 53q-3 4-4 8l-1 3-1-2q0-2-3-3t-4.5-4.5Q37 51 33 48.5T25.5 46Q22 46 20 45q-4-3-7-3-2 0-5 1zm152 0q-6 2-9.5 5.5T145 57q-2 5-6 12l-4 7h4q5 0 5 1l-2 4q-2 3-2 3.5t5.5-.5q5.5-1 10-.5T162 85q2 1 3 6l3 15q1 10 3.5 16t7.5 13q4 5 11 12t8.5 7q1.5 0 .5-1l-4-5q-7-8-12-17t-7-16l-3-15q-1-10-2-13.5t-4-5.5q-4-4-13-3h-5l1-3q2-3 1.5-3.5T148 71h-3l2-3q2-4 4-7 4-12 16-12 7 0 11.5 3T192 65l8 9 9 8q5 4 13 12t13 15q11 15 23.5 35.5T279 183l9 18q4 11 3.5 11t-10.5-7l-19-14q-25-19-41-38t-29-44q-6-13-6.5-13t0 4q.5 4 2.5 10 14 43 76 91l6 5 11 32q1 3 0 3.5t-3.5.5q-2.5 0-3.5-1t-5.5-13q-4.5-12-4.5-13-3-2 1 13 2 12 2 14t-2.5 4.5Q262 249 261 249t-4-11l-6-24q-4-17-5-17.5t-1 1.5l8 47q1 8 2 10.5t4 3q3 .5 8-5.5 3-3 5.5-4t7.5-1q5 0 7-1t2-3q0-2-5.5-17l-5.5-15 5 2q11 8 15 7h1l1-3q-1-12-21-50t-39-64q-5-6-13.5-14.5T211 75q-7-6-14.5-14.5t-12-12q-4.5-3.5-10-5t-8-1.5q-2.5 0-6.5 1zm94 9q-2 4-9 15l-12 17 2 3q2 2 3 1l12-18 1 4q1 6 7 8 4 0 10.5-1.5T291 73q2 0 2-1v-6l-9 3q-14 5-20 6t-7-1.5q-1-2.5 1-10.5 1-5 3-10l2-4h-7l-2 3zm-95 7q-2 1-2 4v2q1 1 2.5 1t4.5-2q4-4 1-5.5t-4-1.5q-1 0-2 2zM19 61l10 9 6 5q1 0 2-1v-1l-1-2q-3-4-10-8.5T19 61zm43 4q-4 4-6 8l-2 4q0 1 1.5 2t1.5 0l12-18q0-3-7 4zm36-2q-4 2-7 6t-5 11q-3 12-10 19-8 10-12 16t-8 15l-4 8h8l3-8q7-13 16-25 7-7 9.5-11.5T93 79q2-5 4.5-7.5t6-2.5q3.5 0 8.5 1.5t6.5 1.5h1.5l-2 4 4 4-3 2q-3 2-5.5 5.5t-1.5 5q1 1.5 4.5-2.5t10.5-7q4-1 4-1.5t-3.5-3Q124 76 124 75l5-8-6-.5q-6-.5-10-2t-8.5-1.5H98zm6 12q-1 2-1 4l1 1 2 1q2 0 3.5-1.5t2-2.5q.5-1-1-2.5t-3.5-1q-2 .5-3 1.5zm190 6q-20 8-36 16h-1q-7 4-8 5t1 3l1 2 6-2q7-2 17.5-2.5T289 101l4-1v-5l-6 1q-4 1-8 1t-4-.5q0-.5 6-3.5l19-7v-4-3l-6 2zM47 86q-1 0-1 1l4 6q3 6 6 11l2 5 2-2q2-2 2-3.5t-6-10Q50 85 49 85l-2 1zM32 96q-5 1-9 3.5t-4 3.5v1l21-7q1 0 0-2t-8 1zm78 1q-10 3-12 18-1 6-2 9t-7 10l-6 9q-1 2 0 2l5 3 9-14q6-8 6.5-10t.5-6q0-8 5-12.5t13-3.5q4 1 6 0h2v2q-1 2-1 3t2 1.5q2 .5 2 1t-2 3.5q-8 8-8 18-1 6 0 10.5t2 4q1-.5 1-5.5 1-14 9-24 3-3 5.5-5t2-2.5q-.5-.5-4-2T135 104q0-1 2-5l1-4-4 1q-6 1-16 0-5 0-8 1zm6 10q-1 2-.5 4t1.5 3q1 1 2 .5t3-2.5l1-2q1-1 0-2t-3.5-1.5q-2.5-.5-3.5.5zm-73 17q-8 1-16 3.5t-10 5q-2 2.5-1 5.5v13.5q0 2.5 2 4.5l3 4-1 5q0 6 1.5 9.5T29 185l4 4-12 6q-14 6-17.5 9.5T0 218v7h2q3 0 4-1.5t1-6.5q0-5 1-7.5t3.5-4q2.5-1.5 18.5-8t19-6.5q9-1 22 10l4 4 2-2q2-1 2-2t-7-6.5q-7-5.5-13-8T46 185q-5 1-7 0t-6-6l-5-7q-1-2-1-4v-2l4 2q2 1 6.5 2.5T44 172h2l-1-2q0-2-1-2l-3-2q-6-2-11.5-7t-6-8q-.5-3 0-4t2 .5q1.5 1.5 6 3.5t7.5 3h5l5-2q5-2 9.5-1.5t12 3q7.5 2.5 10 3T84 155v-2q-2-1-7-4l-10-3q-10-4-19 0-4 1-6.5 1t-8.5-2q-9-4-8.5-7.5t5.5-5q5-1.5 16-3.5l2-1 1-2 1-2h-7zm96 3q-1 2-1 2.5t13 .5q13 0 13-1l-1-4h-23l-1 2zm87 6q0 2 3 7l7 10q8 9 21.5 20.5T270 179l-13-15q-14-14-21-23-6-6-8-7.5t-2-.5zm-54 16q-3 1-9 1h-35l-4 2q-4 2-4.5 3t.5 2q1 1 2 1l4-1q9-2 20-1t18 .5q7-.5 13-3.5l3-2-1-2q-1-1-2.5-1t-4.5 1zm-71 5q-8 4-12.5 8t-4.5 8q0 7 10 7.5t24-6.5l6-3q1-1 0-2.5t-2.5-1q-1.5.5-5.5 1.5-12 6-19 6-5 0-6-1-3-5 13-13l8-4q1 0-1-1.5t-3-1.5q-1 0-7 3zm79 7q-5 6-11 11l-5 5q-1 1-2 1h-2l-2-2q-1-3-1-6.5t-.5-4q-.5-.5-5.5.5-12 2-23 7l-8 4 1 5q1 0 5.5-2.5T137 175q6-2 10-2l4-1v3q1 7 5 9 2 1 4.5 1t4.5-1q5-3 16-16l7-10-1-1.5q-1-1.5-1.5-1.5t-5.5 6zm-129-3l-5 2.5q-1 .5-.5 2T47 164l12-1q1 0 2.5 2t3 4.5q1.5 2.5 1 3T58 174h-8v2q1 2 2 2.5t7 .5q6 0 7.5-.5t2.5.5l4 3q8 8 18 9 9 0 18-3 5-2 6-3t0-3l-1-2-4 1q-7 4-14 4.5T84 184q-7-4-13-16-3-6-5-8t-3-2l-4-1q-4 0-8 1zm143 8q-9 6-19 20-5 7-8 9-6 4-13 5-2 0-2-1l-2-3q-2-5-6.5-8.5T136 184q-3 0-8 2t-15 6.5q-10 4.5-10 5.5t1 3l2 1 10-4q12-6 16.5-6.5t7 1.5q2.5 2 4.5 6l1 3-24 2q-1 1-2 2.5t-.5 2q.5.5 6.5.5h12q20-2 32-8 4-2 7-2 7 1 15-3 5-3 6-4.5t1-4V185l-4 3q-6 5-13 6-3 0-3-1t4-6q7-11 17-17l4-3-5-3-4 2zm21 11q-6 12-16.5 21.5T178 213q-4 1-7 1l-43 1q-4 1-10 2-8 2-11.5 2t-7.5-1q-4-1-7-3l-2-2 6-5-4-4-26 20v-5q-1-5-3.5-8.5T55 205l-3-1-2 1q-3 1-2.5 1.5t3.5 2q3 1.5 5.5 3.5t3.5 6q1 4 0 8.5t-6 7q-5 2.5-10 2.5t-5 4v2h3q7 0 14-3 3-2 28-21 1-1 3 1 8 7 19 7 5 0 12-2t11-2l22-1q19 0 24-.5t12-4.5q10-6 19-15.5t15-19.5l1-4-2-2-3-1-2 3z"/></svg>