<svg viewBox="0 0 300 300.002" xmlns="http://www.w3.org/2000/svg"><path d="M150 0q-41 0-75 20T20.5 74.5Q0 109 0 150q0 47 26.5 85T95 290q-3-28 1-44l17-74-2-6q-2-8-2-16 0-16 8-26.5t18-10.5q10 0 15 6t5 15q0 9-7 31l-5 19q-3 11 4 19.5t18 8.5q20 0 33.5-19.5T212 143q0-27-17.5-44T149 82q-20 0-35.5 9T90 115q-8 15-8 32 0 9 3 18.5t8 15.5q1 2 1 5l-4 17q-1 4-6 2-13-7-21.5-24T54 146q0-24 11.5-44.5t34-33Q122 56 153 56q26 0 47 11t33 31q12 20 12 45t-10 46.5q-10 21.5-27.5 34T168 236q-11 0-21-5t-14-13l-9 36q-4 16-19 39 22 7 45 7 41 0 75-20t54.5-54.5Q300 191 300 150t-20-75.5Q260 40 225.5 20T150 0z"/></svg>