<svg viewBox="0 0 300 300.002" xmlns="http://www.w3.org/2000/svg"><path d="M153 101q-16 0-29.5 8T102 130.5q-8 13.5-8 30t8 30q8 13.5 21.5 21.5t30 8q16.5 0 30-8t21.5-21.5q8-13.5 8-30t-8-30q-8-13.5-21.5-21.5t-30.5-8zm43 38l-40 20q-1 1-2 .5t-1-1.5v-45q0-2 2-2 13 1 24 7.5t17 17.5q1 2 0 3zm-43-38q-16 0-29.5 8T102 130.5q-8 13.5-8 30t8 30q8 13.5 21.5 21.5t30 8q16.5 0 30-8t21.5-21.5q8-13.5 8-30t-8-30q-8-13.5-21.5-21.5t-30.5-8zm43 38l-40 20q-1 1-2 .5t-1-1.5v-45q0-2 2-2 13 1 24 7.5t17 17.5q1 2 0 3zM261 0H40Q23 0 11.5 11.5T0 39v222q0 16 11.5 27.5T40 300h221q16 0 27.5-11.5T300 261V39q0-16-11.5-27.5T261 0zM125 57q0-6 3.5-9.5T138 44h30q6 0 9.5 3.5T181 57v10q0 1-.5 1.5t-1.5.5q-12-4-25.5-4T127 69q-1 0-1.5-.5T125 67V57zm-57 43q-4-4-4-9.5t4-9.5l6-6q4-4 9.5-4t9.5 4l5 5q1 2 0 3-6 5-11.5 10.5T76 105q-1 1-3 0l-5-5zm85 145q-23 0-42.5-11T80 203.5Q69 184 69 161t11-42.5q11-19.5 30.5-31t43-11.5q23.5 0 43 11.5T227 118q11 19 11 42.5t-11.5 43Q215 223 196 234t-43 11zm0-144q-16 0-29.5 8T102 130.5q-8 13.5-8 30t8 30q8 13.5 21.5 21.5t30 8q16.5 0 30-8t21.5-21.5q8-13.5 8-30t-8-30q-8-13.5-21.5-21.5t-30.5-8zm43 38l-40 20q-1 1-2 .5t-1-1.5v-45q0-2 2-2 13 1 24 7.5t17 17.5q1 2 0 3z"/></svg>