<svg viewBox="0 0 300 300.002" xmlns="http://www.w3.org/2000/svg"><path d="M300 58q0 2-1 3t-2 1q-10 1-16.5 6.5T268 89l-68 154q-1 2-4 2t-4-2l-38-80-44 80q-1 2-4 2t-4-2L36 89q-7-14-14-19.5T3 62q-1 0-2-1t-1-2q0-4 2-4 9 0 18.5 1T38 57q8 0 19.5-1T78 55q2 0 2 3.5T79 62q-9 1-14.5 5T59 77q0 3 2 8l56 125 31-59-29-62q-8-16-13-20.5T91 62q-1 0-2-1t-1-2q0-4 2-4 9 0 16 1t15.5 1q8.5 0 17.5-1t18-1q2 0 2 4t-2 3q-17 2-17 11 0 4 4 12l19 39 19-36q4-7 4-12 0-13-18-14-1 0-1-3 0-2 .5-3t1.5-1q7 0 16 1t15 1l12-1q10-1 17-1 1 0 1 3.5t-3 3.5q-10 2-16.5 6.5T195 89l-26 48 35 71 51-120q3-6 3-12 0-13-18-14-2 0-2-3.5t3-3.5q6 0 14.5 1t14.5 1q6 0 14-1t14-1q2 0 2 3z"/></svg>