<svg viewBox="0 0 300 300.002" xmlns="http://www.w3.org/2000/svg"><path d="M280 20Q261 0 226 0H74Q39 0 20 19 9 30 5 45 1 57 0 74v152q0 16 4 29 5 16 16 25 19 20 54 20h152q22 0 39-9t27-27q8-14 8-38V74q0-36-20-54zm-28 225q-9-17-26-19-12-1-25 6l-3 2q-20 11-46 11t-52-11q-22-9-40.5-25T29 174q14 9 27 15 27 13 54 13t48-13q-26-20-52-49-20-21-43-50-6-8-12-17 21 19 51 41 28 21 41 29-12-13-25-29-10-13-21-27L83 68q-5-8-5-7 25 25 53 48 20 16 39 29l15 11q3 1 5 2l3-8q6-24-.5-50.5T169 43q25 15 43 38.5t25 50q7 26.5 1 50.5l-1 3q9 11 14 24 4 10 5 19.5t-.5 14.5q-1.5 5-3.5 2z"/></svg>