<svg viewBox="0 0 300 300.002" xmlns="http://www.w3.org/2000/svg"><path d="M115 212l30-29-67-67q-7-7-7-17.5T78 81q7-7 17.5-7t17.5 7l2 2 30-29-3-2q-12-13-28.5-17.5T80 34Q78 19 66.5 9.5T39.5 0Q24 0 12 12T0 40q0 15 9 25.5T32 79q-6 18-1.5 35.5T48 146l67 66zm39-160q13-14 31-18t35 1q2-15 13-25t27-10q16 0 28 12t12 28q0 16-10 27t-25 13q5 17 .5 34.5T248 146l-2 2-30-30 2-2q7-7 7.5-17.5t-7-17.5q-7.5-7-17.5-7t-17 7l-67 67-30-30 67-66zm64 135q8 7 8 17t-7.5 17.5Q211 229 201 229t-17-7l-3-3-29 30 2 2q13 13 31 17.5t36-.5q2 14 13 23t27 9q16 0 27.5-12t11.5-27.5q0-15.5-10-27T266 220q4-17-1-33.5T248 157l-67-67-29 30 66 67zm-39-32l30 29-67 67q-12 13-29 17.5t-34 .5q-3 13-14 22t-25 9q-16 0-28-12T0 260q0-14 8.5-25T31 221q-4-17 .5-34T48 157l3-2 29 29-2 3q-7 7-7 17t7 17.5q7 7.5 17.5 7.5t17.5-7l66-67z"/></svg>