<svg viewBox="0 0 300 300.002" xmlns="http://www.w3.org/2000/svg"><path d="M119 201l1-1q3 12 0 22l-2 5q-3 5-7 10-6 7-14 9.5t-12 0q-4-2.5-2-11t9-16q7-7.5 18-13.5l9-5zM150 0q-41 0-75.5 20T20 74.5Q0 109 0 150t20 75.5Q40 260 74.5 280t75.5 20q41 0 75.5-20t54.5-54.5q20-34.5 20-75.5t-20-75.5Q260 40 225.5 20T150 0zm49 133q-18 7-35 8-13 0-20.5-2.5T131 132q-5-4-6-7-1-4 0-4.5t2-.5l2 3q3 3 9 5 10 4 21 2 23-2 41-14 17-10 24.5-24t2.5-25q-3-7-16-10.5t-31-.5q-21 3-42 14-37 18-51 37-9 11-9.5 22.5T86 152q5 6 19 17t19 16l2 2q7-3 23-4 19 0 31 10.5t11 23.5q0 8-6 14-5 4-8 4.5t-3-.5q0-1 2-3 8-4 9-11.5t-5-14.5q-8-10-26-12-12-2-23 1 4 9 3.5 22t-8.5 25q-8 12-22 18t-29 2q-3-1-6.5-6t-4-12q-.5-7 3.5-16 5-11 24-24 11-7 22-12-4-4-15-11-19-13-27-21-14-14-17-27-2-8 3-19 7-15 22-30 27-25 71-40 21-8 41-7.5t34.5 7.5Q241 51 244 64t-2 27q-5 14-17 25t-26 17z"/></svg>