<svg viewBox="0 0 300 300.002" xmlns="http://www.w3.org/2000/svg"><path d="M97 102l16 52H81l16-52zM247 4H53Q31 4 15.5 19.5T0 57v186q0 22 15.5 37.5T53 296h194q22 0 37.5-15.5T300 243V57q0-22-15.5-37.5T247 4zm-88 206h-26q-2 0-2-1l-10-30H74l-9 29q-1 2-3 2H39q-2 0-2-2L79 88v-8q0-1 2-1h32q1 0 1 1l46 128q1 2-1 2zm98-50q0 3-.5 5t-1.5 2l-12 1-48-1q0 6 3.5 11.5t10 8q6.5 2.5 14 2.5t13.5-1q6-1 12-3 1-1 1 1l-1 20v1q-7 3-13 4-9 2-18 2-26 0-39-17-12-13-12-34.5t13-37q13-15.5 36-15.5 10 0 18.5 3.5T248 123q9 12 9 29v8zm-43-29q-5-1-9.5 1.5t-7 7Q195 144 195 149h33q2 0 3-1v-1q0-3-1-5-1-5-6-8.5t-10-2.5z"/></svg>