<svg viewBox="0 0 300 300.002" xmlns="http://www.w3.org/2000/svg"><path d="M68 53q-4 0-8 1v1q1 2 4 5l3 3 4 10 1-1q4-3 4-10l-2-4q-1-1-4-3l-2-2zm208 178q-24-1-39 5l-3 1q-5 1-6 4 1 1 2 4l2 3q5 8 10 12l13 10q4 2 12.5 6t12.5 6l16 12q2 3 4 3l-3-7-6-6q-9-11-22-20l-6-4q-7-4-10-7-6-4-7-8 4 0 12-3h2q3-1 9.5-2t10.5-2l10-2v-2l-5-6q-3-4-5-6-18-15-34-25-4-3-13-7l-11-5q-4-1-5-2-3-4-7-12l-2-4q-8-15-16-36l-4-8q-4-10-7-15-15-25-33.5-42.5T102 32q-7-4-23-8l-3-1H61q-2-1-6-5l-4-3Q37 6 25 4 7 0 1 13q-3 7 1 16 3 5 9 13l5 7q7 8 9 13l5 17q5 14 8 21 5 8 8 12l2 2q3 3 3 5-2 3-3 10l-2 6q-5 17-3.5 36t9.5 32q11 17 22 12 4-2 5.5-5.5T82 199l2-12q0-2 1-3l8 17q9 14 27 28l5 4q6 7 10 8v-1h-1q0-1-3-2l-1-2q-7-7-11-12-12-16-23-37-3-6-8-18l-2-5q-1-3-2-4l-3 4q-5 6-7 10-3 7-5 24v7h-1q-4-1-6-4t-5-8v-2q-5-11-5.5-26.5T55 136l1-3q6-15 4.5-18t-5.5-6l-3-4q-4-7-6.5-12.5T39 75q-4-12-6.5-17T24 44l-6-8q-5-6-7.5-11t-1-7.5Q11 15 13 14t6 0q4 1 7 2 12 5 20 10l3 3q4 4 7 4h4q3 1 10 1t10 1q14 5 29 15 41 26 64 69l21 47q7 17 13 25 2 3 15 6l11 4q7 3 9 4 7 5 20 14l4 2q10 6 10 10z"/></svg>