<svg viewBox="0 0 300 300.002" xmlns="http://www.w3.org/2000/svg"><path d="M256 44q-21-21-48.5-32.5T150 0q-30 0-57.5 11.5T44 44Q23 65 11.5 92.5T0 150q0 30 11.5 57.5T44 256q21 21 48.5 32.5T150 300q30 0 57.5-11.5T256 256q21-21 32.5-48.5T300 150q0-30-11.5-57.5T256 44zM151 4q29 0 55.5 11t47 31.5Q274 67 285 94t11 56q0 29-11 56t-32 47q-10 11-23 16.5t-28 5.5q-14 0-27.5-5.5t-23.5-16Q141 243 135.5 230t-5.5-27.5q0-14.5 5.5-28t16-24q10.5-10.5 16-24.5t5.5-29q0-15-5.5-29T151 43q-18-18-43-22-6-1-12-1-10 0-20 3 34-20 75-19zm-12 82q-3 7-10 20-17 31-22 46-9 24-6 43 3 23 22 45h-21q-23-38-37-70-18-38-32-84h22q4 17 11 36 5 14 14 36l2 4 1-4q18-45 35-72h21zm19 130h25q17-27 35-73 9 22 14 35 8 20 12 38h25q-13-46-31-85-16-33-40-72h-25q21 22 24 45 4 19-5 43-5 15-22 46l-12 23z"/></svg>