<svg viewBox="0 0 300 300.002" xmlns="http://www.w3.org/2000/svg"><path d="M247 4H53Q31 4 15.5 19.5T0 57v186q0 22 15.5 37.5T53 296h194q22 0 37.5-15.5T300 243V57q0-22-15.5-37.5T247 4zM122 208q-11 4-26 4-11 1-20-1t-16-5q-2-1-2-4v-24l.5-.5q.5-.5 1.5-.5 17 11 36 11 12 0 17-3.5t5-9.5q0-3-2-6t-6.5-5.5Q105 161 99 159l-10-5q-12-5-18.5-10.5t-9.5-13q-3-7.5-3-14.5 0-11 6-20.5t16-14Q90 77 106 77q9 0 17 1t15 4q1 1 1 2v23l-1 1q0 1-1 0-6-3-14-5t-17-2q-5 0-10 1-7 2-10 7t0 9q3 4 7 6 5 3 17 8l2 1q24 10 31 25 3 7 3 15 0 12-6.5 21T122 208zm125-27q-5 10-14 17.5t-20 11q-11 3.5-22 2.5h-5v34q0 2-1 2l-25 3q-1 0-1-2V131l-1-13q0-1 1-1l12-4q5-2 13.5-3.5T201 108q14 0 23 4 18 8 25 27 3 9 3 18 0 13-5 24zm-48-49l-13 1v55l4 1h3q7 0 14-3t11.5-9.5Q223 170 223 158t-6-19q-6-7-18-7z"/></svg>