<svg viewBox="0 0 300 300.002" xmlns="http://www.w3.org/2000/svg"><path d="M239 0H61Q44 0 30 8T8 30Q0 44 0 61v178q0 17 8 31t22 22q14 8 31 8h178q17 0 31-8t22-22q8-14 8-31V61q0-17-8-31T270 8q-14-8-31-8zM83 238q-3 4-8.5 5.5t-10.5-1q-5-2.5-6.5-8T59 224l10-17q16-5 27 8l-13 23zm95-37H54q-6 0-10-4t-4-10q0-6 4-10t10-4h34l45-77-14-24q-3-5-1.5-10.5t6.5-8q5-2.5 10.5-1.5t8.5 6l6 11 6-11q3-4 8.5-5.5t10 1q4.5 2.5 6 8T178 72l-58 101h42q10 0 15 9.5t1 18.5zm67 0h-20l13 23q3 5 1.5 10.5t-6.5 8q-5 2.5-10.5 1T214 238l-50-88q-8-13-5-28 3-12 10-18l40 69h36q5 0 9 4t4 10q0 6-4 10t-9 4z"/></svg>