<svg viewBox="0 0 300 300.002" xmlns="http://www.w3.org/2000/svg"><path d="M294 184v-1q-3-5-13-3-23 5-31-1 26-40 38-85 4-15 5-29 2-20-4-30l-2-3Q263 0 219 0q-12 0-25 2-9 2-14 4l-7-1q-7-1-16-2-22 0-38 11-19-7-38-9-33-4-52 10Q3 33 5 79q1 9 5 28 5 23 11 44 9 28 18 44 10 19 21.5 23t23-9.5Q95 195 108 181q8 4 17 5l-3 4q-3 4-6 5.5t-13 3.5q-14 3-14 10 0 2 1 4 3 6 13 8 25 6 42-8 0 51 4 63 4 10 9 15 8 9 22 9 5 0 11-1 16-4 24-12t11-24.5q3-16.5 7-51.5l1-1q1-1 5 0h4q8 1 17-.5t15-4.5q8-4 14-9 7-7 5-12zM30 148q-7-20-11-43-4-18-5-26-2-41 20-56 15-11 41-9 17 1 35 7-16 16-22 45-3 15-2 27v4q1 21-1 37-2 11 1.5 21T97 173l3 3q-12 13-24 27-7 8-14 5.5T47 192q-9-16-17-44zm75 64l-6-2 6-2q12-2 16-4.5t8-7.5l6-8q1-1 3-1l2 1q4 1 5 5t-1 6q-7 11-19 14-9 2-20-1zm26-50l-1 2q-3 9-4 13-13-1-23-11-5-6-8-14t-1-17q2-16 1-38v-3q4-3 13-7 12-4 20-2.5T138 96q5 22 3 38-2 9-7 21l-3 7zm92 57l-1 8-2 7q0 6-1 10v1q-2 6-3 13-1 13-8 21t-20.5 10.5Q174 292 168 287q-4-3-7-13l-1-2q-2-5-2-14v-18q0-8-1-16-1-11-3-17v-12l-1-4q-2-8-9-11-5-2-9-1l4-12 3-8q6-13 7-23 3-18-2-42-3-10-10-15t-18-4q-11 1-22 7l-2 1q1-14 5-27 6-18 17-29l3-3 2-1q14-11 35-10 8 0 15 1 30 5 50 29 13 15 18 31-25-2-33 9.5t0 35.5q4 13 16 34l3 6q3 8 10 16l2 3q-5 2-8 5-5 6-5 17l-2 19zm11-20q0-7 1.5-9t6.5-4h1l2 1q11 7 37 2-4 4-12 7.5t-20.5 4.5q-12.5 1-15.5-2zm7-116q0 5-1 13-2 9-2 14.5t1.5 16.5q1.5 11 1.5 17-1 9-4 17l-7-13q-10-18-14-30-8-20-2-28.5t27-6.5zm3 88v-1l-1-1q6-10 6-22 1-7-1-21-1-11-1-15.5t2-13.5q1-10 1-17v-2q0-6-6-17-6-13-15-24-15-17-34-25 13-3 25-3 39 1 61 29v1q5 9 2 30.5T271 117q-11 29-27 54zM126 89q-5-1-6.5.5t-2 3q-.5 1.5 1.5 4t6 3.5h1q3 0 5.5-2t2.5-4q0-2-2.5-3t-5.5-2zm99-2q-3 0-5 1.5t-2 3q0 1.5 2 3t5 1.5h1q3 0 5-2.5t2-4.5q0-1-2.5-1.5T225 87z"/></svg>