<svg viewBox="0 0 300 300.002" xmlns="http://www.w3.org/2000/svg"><path d="M122 126q-10-10-24-10t-24 10q-10 10-10 24t10 24q10 10 24 10t23.5-10q9.5-10 9.5-24t-9-24zm-10 38q-6 6-14.5 6t-14-6q-5.5-6-5.5-14t5.5-14q5.5-6 14-6t14.5 6q6 6 6 14t-6 14zm80-38q-9-10-23-10t-24 10q-10 10-10 24t10 24q10 10 24 10t23.5-10q9.5-10 9.5-24t-10-24zm-9 38q-6 6-14.5 6t-14.5-6q-6-6-6-14t6-14q6-6 14.5-6t14.5 6q6 6 6 14t-6 14zM13 184h54v-4q0-4-3-6.5t-7-3.5H24l40-40v-4q0-4-3-6.5t-7-3.5H0v4q0 4 3 6.5t7 3.5h34L3 170l1 4q0 4 2.5 6.5T13 184zm231-48q2 3 2 7v31q0 4 3 6.5t7 3.5h4v-41q0-4 1-7 4-6 12-6t12 6q1 3 1 7l1 31q0 4 2.5 6.5t7.5 3.5h3v-41q0-11-8-19t-19.5-8q-11.5 0-19.5 9-8-9-20-9-9 0-16 5-1-2-5-3.5t-6-1.5v68h3q4-1 7-3.5t3-6.5v-31q1-4 2-7 4-6 11.5-6t11.5 6z"/></svg>