<svg viewBox="0 0 300 300.002" xmlns="http://www.w3.org/2000/svg"><path d="M150 125q-9 0-18 4 6 2 9.5 7t3.5 12.5q0 7.5-6 13t-13 5.5q-7 0-12-3.5t-7-9.5q-3 8-3 18 0 19 13.5 33t32.5 14q19 0 33-14t14-33q0-19-14-33t-33-14zm63-54q-23-14-49.5-17T111 59q26-19 59-19 19 0 34 6l2 1q2 0 3.5-1.5T211 42q0-2-2-4-13-11-28-21-11-7-22-12l-9-4q-34 14-61 39T47 98.5Q32 132 31 169q-1 33 16 63 10 17 25 30-30-13-46-41-9-16-12-33l-1-2q-1-2-2.5-2.5T7 184q-2 1-2 4-4 17-5 35 0 13 1 25l1 10q29 23 65 33.5t73 6.5q37-4 70-22 22-14 37-35t20-46q3 32-13 60-9 17-22 27l-2 2q-1 1-.5 3t2.5 3q2 1 4 0 17-5 33-13 11-6 21-14l8-5q5-36-3.5-72T265 120q-21-30-52-49zm-63 179q-27 0-49.5-11.5t-35.5-31Q52 188 52 165q0-8 1-15 16-16 41.5-25.5T150 115q30 0 55.5 9.5T247 150q2 7 2 15 0 23-13.5 42.5t-36 31Q177 250 150 250z"/></svg>