<svg viewBox="0 0 300 300.002" xmlns="http://www.w3.org/2000/svg"><path d="M158 80v140q21-8 34.5-27t13.5-43q0-24-13.5-43T158 80zM56 150q0 23 13.5 42.5T104 220V80q-21 8-34.5 27T56 150zm102-70v140q21-8 34.5-27t13.5-43q0-24-13.5-43T158 80zM56 150q0 23 13.5 42.5T104 220V80q-21 8-34.5 27T56 150zM164 20h-33q-36 0-66 17T17.5 83.5Q0 113 0 151q0 35 17.5 64.5t48 47Q96 280 131 280h33q35 0 66.5-17.5t50.5-47q19-29.5 19-64.5 0-37-19-67t-50-47q-31-17-67-17zm-33 248q-32 0-59.5-15.5t-43.5-43Q12 182 12 150t16-59.5Q44 63 71.5 47T131 31q32 0 59.5 16T234 90.5q16 27.5 16 59.5t-16 59.5q-16 27.5-43.5 43T131 268zm27-188v140q21-8 34.5-27t13.5-43q0-24-13.5-43T158 80zM56 150q0 23 13.5 42.5T104 220V80q-21 8-34.5 27T56 150z"/></svg>