<svg viewBox="0 0 300 300.002" xmlns="http://www.w3.org/2000/svg"><path d="M150 0q-41 0-75.5 20T20 74.5Q0 109 0 150t20 75.5Q40 260 74.5 280t75.5 20q41 0 75.5-20t54.5-54.5q20-34.5 20-75.5t-20-75.5Q260 40 225.5 20T150 0zm99 69q14 17 21.5 37.5T278 149q-15-3-31-5-32-3-58 1l-11-25q30-13 52-31 12-10 19-20zm-81 32q-21-38-48-75 14-4 30-4 24 0 46 8.5T235 54q-6 9-17 18-21 18-50 29zM96 34q6 9 17 25 16 25 30 49-37 10-78 14-22 2-40 2 6-30 24.5-53.5T96 34zM22 146q17 1 44-2 47-4 87-16 5 9 11 22l-5 1q-42 14-76 49-17 18-28 36-16-18-24.5-40T22 150v-4zm150 25h1q19 49 27 97-24 10-50 10-22 0-42-7t-37-20q8-15 24-32 31-32 77-48zm49 85q-2-13-6-31-8-31-18-60 25-4 53 0 16 2 26 5-4 27-18.5 49.5T221 256z"/></svg>