<svg viewBox="0 0 300 300.002" xmlns="http://www.w3.org/2000/svg"><path d="M96 102l17 54H80l16-54zM247 5H53Q31 5 15.5 20.5T0 58v184q0 22 15.5 37.5T53 295h194q22 0 37.5-15.5T300 242V58q0-22-15.5-37.5T247 5zm-91 204h-26q-1 0-1-2l-11-30H73l-10 30q0 2-2 2H38q-2 0-2-2L77 90q1-4 1-8 0-1 1-2h32q1 0 1 1l45 126q1 2-1 2zm95 0h-21q-1 0-2-1l-1-7q-6 6-13 8.5t-14 2.5q-7 0-13.5-2t-11-7.5q-4.5-5.5-7-13T166 173v-59q0-1 1-1h24q1-1 2 1v55q-1 7 3.5 13t12.5 6q5 0 9-2t7-5v-67q0-1 2-1h23q2-1 2 1l-1 82 1 11q0 2-1 2z"/></svg>