<svg viewBox="0 0 300 300.002" xmlns="http://www.w3.org/2000/svg"><path d="M256 43Q213 0 150 0T43.5 44Q0 88 0 150t44.5 106q44.5 44 106 44T257 255q43-42 43-105T256 44v-1zm-18 193q-37 37-87.5 37t-87-36.5Q27 200 27 150q0-21 7-40l39 18h-2v18h14l-1 11H71v18h16q3 19 13.5 33t27 21q16.5 7 34.5 7 11 0 21.5-2.5T201 227l-6-28q-4 2-12 4.5t-16 2.5q-21 0-33-13-5-7-8-18h55l77 35q-8 14-20 26zm-98-79zm47-11h2v-18h-42l-18-8q3-5 6-9 11-13 30-13 14 0 28 6l7-29q-17-7-37-7-18 0-32.5 6.5T105 93q-5 5-9 12L47 84q7-11 17-21 35-36 86-36t87 36q36 36 36 87 0 17-4 32l-82-36z"/></svg>