<svg viewBox="0 0 300 300.002" xmlns="http://www.w3.org/2000/svg"><path d="M150 0q-41 0-75.5 20T20 74.5Q0 109 0 150t20 75.5Q40 260 74.5 280t75.5 20q41 0 75.5-20t54.5-54.5q20-34.5 20-75.5t-20-75.5Q260 40 225.5 20T150 0zM67 32q37-26 82.5-26T232 32q1 2 1 4 0 7-11 13.5t-29.5 11Q174 65 151 65.5T108.5 63Q89 60 77 54T64 40q0-4 3-8zM28 74q10-16 25-30-6 8-6 16t7.5 16Q62 84 78 89q18 6 44 6 41 0 81-13 23-8 35.5-17T250 48v-1q12 11 21 25v4q0 14-15 24-20 14-62 18-30 2-86-5h-2q-22-3-40-9T38 90.5Q28 83 28 76v-2zM17 94v8q0 13 13.5 25.5t37.5 20q24 7.5 53 7.5 33 1 67-8 37-11 59-22 32-18 32-37v-1q8 17 12 34-3 17-20 31-26 21-77 26-9 1-31 0-30-1-57-6-36-6-59-17-29-14-37-34v-2q2-13 7-25zm133 200q-26 0-50-9t-43-25q20 12 48 18 19 4 40 4 39 0 70-12 25-9 43-25-21 23-48.5 36T150 294zm120-65q-18 18-43 29-32 14-69 13-44 0-92-20-24-10-40-28-7-12-12-25 14 27 44 41 23 11 54 13 20 2 36 0 63-7 101-28 28-15 40-36-6 22-19 41zm-102 3q-21 1-53.5-5.5T58 210q-17-7-31-18.5T7 168q-1-9-1-18v-4q4 17 18.5 32T63 201q32 10 58 10t71-10q54-12 80-34 17-15 21-31 1 7 1 14 0 12-2 25-11 21-35 35-34 20-89 22z"/></svg>