<svg viewBox="0 0 300 302.0011" xmlns="http://www.w3.org/2000/svg"><path d="M150 126q-16 0-27-11t-10.5-26.5q.5-15.5 11-26.5T150 51q16 0 27 11t11 26.5q0 15.5-11 26.5t-27 11zm-38 66q4-13 14.5-20.5T150 164q13 0 23.5 7.5T188 192q1 5 5.5 7.5t9.5 1q5-1.5 7.5-6t1.5-9.5q-6-22-23.5-34T150 139q-21 0-38.5 12T88 185q-2 7 3 12.5t12 3.5q7-2 9-9zm38 105q-9 0-17-7l-46-39H50q-21 0-35.5-14.5T0 201V51q0-21 14.5-35.5T50 1h200q21 0 35.5 14.5T300 51v150q0 21-14.5 35.5T250 251h-36l-48 40q-7 6-16 6zM50 26q-10 0-17.5 7.5T25 51v150q0 10 7.5 17.5T50 226h41q5 0 8 3l51 43 52-43q3-3 8-3h40q10 0 17.5-7.5T275 201V51q0-10-7.5-17.5T250 26H50z"/></svg>