<svg viewBox="0 0 300 302.0011" xmlns="http://www.w3.org/2000/svg"><path d="M290 181L223 56q-13-25-39.5-36T129 17Q108 1 81 1 59 1 40.5 12T11 41.5Q0 60 0 82v138q0 22 11 40.5T40.5 290Q59 301 81 301t40-10.5q18-10.5 29-27.5 16 26 46 35 11 3 23 3 20 0 39-10 14-8 24-20.5t14.5-28q4.5-15.5 3-31.5t-9.5-30zM201 68l29 53-67 37V82q0-24-13-43 16-1 30 6.5T201 68zM81 26q24 0 40 16.5T137 82v56H25V82q0-23 16.5-39.5T81 26zm0 250q-23 0-39.5-16.5T25 220v-57h113v57q0 23-16.5 39.5T81 276zm192-41q-7 23-27.5 34t-42.5 4.5q-22-6.5-34-26.5l-7-15v-46l80-43 26 50q11 20 5 43v-1z"/></svg>