<svg viewBox="0 0 300 302.0011" xmlns="http://www.w3.org/2000/svg"><path d="M117 160l34-33 8 8q3 3 8.5 3t9-3.5q3.5-3.5 3.5-8.5t-4-9l-9-9q6-9 7-19h14q5-1 8.5-4.5T200 76q0-5-3.5-9t-9.5-3h-15q-2-7-5-12l11-11q4-4 4-9t-4-9q-4-4-9-4t-9 4l-11 11q-5-3-12-5V13q0-5-3.5-8.5T125 1q-5 0-9 3.5t-4 9.5v13q-10 1-19 7L82 23q-4-4-9-4t-8.5 3.5Q61 26 61 31.5t3 8.5l10 10-25 25-10-10q-3-3-8.5-3t-9 3.5Q18 69 18 74t4 9l11 11q-6 9-7 20H13q-6 0-9.5 3.5T0 126q0 5 3.5 8.5T13 138h15q2 7 5 12l-11 11q-4 3-4 8.5t3.5 9Q25 182 30 182t9-3l11-11q6 3 12 5v15q0 6 4 9.5t9 3.5q5 0 8.5-3.5T87 188v-13q18-2 30-15zm-18-17q-8 8-20 8t-20.5-8.5Q50 134 50 122t8-20l43-43q8-8 20-8t20.5 8.5Q150 68 150 80t-8 20l-43 42v1zm26-55q0 6-3.5 9.5t-9 3.5q-5.5 0-9-3.5t-3.5-9q0-5.5 3.5-9t9-3.5q5.5 0 9 3.5T125 89v-1zm163 75h-16q-2-6-5-11l11-11q4-3 4-8.5t-3.5-9Q275 120 270 120t-9 3l-11 11q-6-3-12-5v-16q0-5-4-8.5t-9-3.5q-5 0-8.5 3.5T213 113v14q-18 2-30 15l-34 33-8-8q-3-4-8.5-4t-9 4q-3.5 4-3.5 9t4 9l9 9q-6 9-7 19h-13q-6 0-9.5 4t-3.5 9q0 5 3.5 8.5t9.5 3.5h15q2 7 5 12l-11 11q-4 4-4 9t4 9q4 4 9 4t9-4l11-11q5 3 12 5v15q0 6 3.5 9.5t8.5 3.5q5 0 9-3.5t4-9.5v-13q10-1 19-7l11 11q4 4 9 4t8.5-3.5q3.5-3.5 3.5-9t-3-8.5l-10-10 25-25 10 10q3 3 8.5 3t9-3.5q3.5-3.5 3.5-8.5t-4-9l-11-11q6-9 7-20h14q5 0 8.5-3.5t3.5-8.5q0-5-3.5-9t-8.5-4zm-87-4q8-8 20-8t20.5 8.5Q250 168 250 180t-8 20l-43 43q-8 8-20 8t-20.5-8.5Q150 234 150 222t9-20l42-43zm-26 54q0-5 3.5-8.5t9-3.5q5.5 0 9 3.5t3.5 9q0 5.5-3.5 9t-9 3.5q-5.5 0-9-3.5T175 213z"/></svg>