<svg viewBox="0 0 300 302.0011" xmlns="http://www.w3.org/2000/svg"><path d="M293 36q-15-4-35-6-16-17-39-17t-40 17q-19 2-35 6-4 1-6 5t1 8q7 13 24 17l-1 11q-9 2-17 7-12-8-26-8-20 0-34 14-6-2-13-2-19 0-33 13.5T25 135q-11 6-18 17t-7 24q0 13 7 24t18 17q0 17 10.5 29.5T62 263v13q0 10 7.5 17.5t18 7.5q10.5 0 17.5-7.5t7-17.5v-1q18 3 32-6 11 7 25 7 9 0 18-4v4q0 10 7.5 17.5t18 7.5q10.5 0 17.5-7.5t7-17.5v-18q12-6 18.5-17t6.5-24q16-8 22-24 2-5 0-9.5t-7-6.5q-5-2-9.5 0t-6.5 7q-4 10-15 13-5 1-7.5 5.5T237 212l1 5q0 9-6.5 15t-15.5 6q-6 0-11-2.5t-10-1.5q-5 1-7 6-6 9-17 10.5t-18-6.5q-4-4-9.5-4t-9.5 4.5q-4 4.5-11.5 5.5t-14-2.5q-6.5-3.5-9-8T92 234q-5-1-9.5 1.5T72 239q-9-1-15.5-7T50 217l1-5q1-5-2-9.5t-8-5.5q-7-2-11.5-8T25 176q0-7 4.5-13t11.5-8q5-1 8-5.5t2-9.5l-1-5q0-9 6.5-15.5T72 113q5 0 10 3t10 2q5-1 8-6t8-8q5-3 11-3 10 0 17 8 3 5 9 5t9.5-4.5q3.5-4.5 7.5-6.5v14q0 21 15.5 33.5T219 163q26 0 41-12.5t15-33.5V66q16-4 24-17 2-4 .5-8t-6.5-5zm-43 81q0 21-31 21t-31-21V70q-1-13 8.5-22.5T219 38q13 0 22 9.5t9 22.5v47z"/></svg>