<svg viewBox="0 0 300 302.0011" xmlns="http://www.w3.org/2000/svg"><path d="M238 76H63q-17 0-31.5 8.5t-23 23Q0 122 0 139v99q0 17 8.5 31.5t23 23Q46 301 63 301h175q16 0 30.5-8.5t23-23Q300 255 300 238V138q0-16-8.5-30.5t-23-23Q254 76 237 76h1zM113 276H75v-31q0-8 5.5-13.5T94 226q8 0 13 5.5t5 13.5v31h1zm112 0h-37v-31q0-8 5-13.5t13-5.5q8 0 13.5 5.5T225 245v31zm50-38q0 13-7 22.5T250 274v-29q0-18-13-31t-31-13q-18 0-30.5 13T163 245v31h-25v-31q0-18-13-31t-31-13q-18 0-31 13t-13 31v29q-11-4-18-13.5T25 239V138q0-15 11-26t27-11h175q15 0 26 11t11 26v100zm-150-81q0 13-9 22t-22 9q-13 0-22-9t-9-22q0-13 9-22t22-9q13 0 22 9t9 22zm113 0q0 13-9.5 22t-22.5 9q-13 0-22-9t-9-22q0-13 9-22t22-9q13 0 22.5 9t9.5 22zM56 34L87 4q3-3 7-3t7 3l30 30q5 5 2.5 11t-9.5 6H63q-6 0-8.5-6T56 34zm113-16q-5-5-2.5-11t9.5-6h61q6 0 8.5 6T244 18l-31 30q-3 3-7 3t-7-3l-30-30z"/></svg>