<svg viewBox="0 0 300 302.0011" xmlns="http://www.w3.org/2000/svg"><path d="M163 76H63q-17 0-31.5 8.5t-23 23Q0 122 0 138v100q0 17 8.5 31.5t23 23Q46 301 63 301h100q16 0 30.5-8.5t23-23Q225 255 225 238V138q0-16-8.5-30.5t-23-23Q179 76 163 76zM63 101h100q15 0 26 11t11 26H25q0-15 11-26t27-11zm100 175H63q-16 0-27-11t-11-27v-75h175v75q0 16-11 27t-26 11zM300 63v107q0 17-8.5 31.5T269 224q-3 2-6 2-8 0-11-5.5t-1.5-10.5q1.5-5 5.5-7 9-5 14-14t5-19V63q0-15-11-26t-27-11H131q-10 0-19 5T98 45q-2 4-7 5.5t-9.5-1Q77 47 75.5 42T77 32q8-14 22.5-22.5T131 1h107q16 0 30.5 8.5t23 22.5q8.5 14 8.5 31z"/></svg>