<svg viewBox="0 0 300 302.0011" xmlns="http://www.w3.org/2000/svg"><path d="M271 173q-45-36-76-56-4-37-16-93-2-10-10-16.5T150 1q-11 0-19 6.5T121 24q-12 56-16 93-31 20-76 56-8 7-10.5 17t2.5 19.5q5 9.5 14.5 14T55 225q49-12 83-24v75h-38q-5 0-8.5 3.5t-3.5 9q0 5.5 3.5 9t8.5 3.5h100q5 0 9-3.5t4-9q0-5.5-4-9t-9-3.5h-37v-75q33 11 82 24 4 1 8 1 8 0 15-4.5t11.5-13q4.5-8.5 2-18.5T271 173zm-14 25q-2 4-6 3-62-16-96-30-3-1-5-1t-5 1q-34 14-96 30-4 1-5.5-2.5T45 193q47-38 78-58 5-3 6-9 4-37 16-96 1-4 5-4t5 4q12 59 16 96 1 6 6 9 31 20 78 58 3 2 2 5z"/></svg>