<svg viewBox="0 0 300 302.0011" xmlns="http://www.w3.org/2000/svg"><path d="M213 288H88q-17 0-31.5-8t-23-22.5Q25 243 25 226v-94q0-6-5-10Q9 111 3.5 96T1 66q4-24 24.5-38T78 13h158q23 0 41 15t22 38q3 15-2.5 30T280 122q-5 4-5 10v94q0 17-8.5 31.5t-23 22.5q-14.5 8-30.5 9v-1zM78 38q-23 1-36.5 9T26 70q-2 9 1 18t10 15q13 12 13 29v94q0 16 11 27t27 11h125q15-1 26-11.5t11-26.5v-94q0-17 13-29 7-6 10-15t1-18q-2-14-13-23t-25-8L78 38zm22 113q-5 0-8.5 3.5t-3.5 9q0 5.5 3.5 9t8.5 3.5q5 0 8.5-3.5t4-9q.5-5.5-3.5-9t-9-3.5zm50 50q-5 0-9 3.5t-3.5 9q.5 5.5 4 9t8.5 3.5q5 0 9-3.5t4-9q0-5.5-4-9t-9-3.5zm-50 0q-5 0-8.5 3.5t-3.5 9q0 5.5 3.5 9t8.5 3.5q5 0 8.5-3.5t3.5-9q0-5.5-3.5-9T100 201z"/></svg>