<svg viewBox="0 0 300 302.0011" xmlns="http://www.w3.org/2000/svg"><path d="M300 151q0 27-13.5 50T250 237.5Q227 251 200 251H38l28 29q4 3 4 8.5t-3.5 9q-3.5 3.5-9 3.5t-9.5-4L7 256q-7-7-7-17.5T7 221l41-41q4-4 9-4t9 3.5q4 3.5 4 9t-4 8.5l-28 29h162q20 0 37.5-10t27.5-27.5q10-17.5 10-37.5 0-5 3.5-9t9-4q5.5 0 9 4t3.5 9zM13 163q5 0 8.5-3.5T25 151q0-20 10-37.5T62.5 86Q80 76 100 76h163l-29 29q-4 3-4 8.5t4 9q4 3.5 9 3.5t9-4l41-41q7-7 7-17.5T293 46L252 5q-4-4-9-4t-9 3.5q-4 3.5-4 9t4 8.5l29 29H100q-27 0-50 13.5T13.5 101Q0 124 0 151q0 5 3.5 9t9.5 4v-1z"/></svg>