<svg viewBox="0 0 300 302.0011" xmlns="http://www.w3.org/2000/svg"><path d="M88 176q0 5-4 8.5t-9 3.5H63q-6 1-9.5-3t-3.5-9q0-5 3.5-9t8.5-4h13q5 0 8.5 4t4.5 9zm50-13h-13q-5 0-8.5 4t-4 9q-.5 5 3.5 8.5t9 3.5h13q5 0 8.5-3.5t3.5-8.5q0-5-3.5-9t-8.5-4zm-63 50H63q-6 0-9.5 4t-3.5 9q0 5 3.5 8.5T63 238h12q5 0 8.5-3.5t4-8.5q.5-5-3.5-8.5t-9-3.5v-1zm63 0h-13q-5 0-8.5 4t-4 9q-.5 5 3.5 8.5t9 3.5h13q5 0 8.5-3.5t3.5-8.5q0-5-3.5-8.5T138 214v-1zM75 63H63q-6 0-9.5 4T50 76q0 5 3.5 9t8.5 4h13q5-1 9-4.5t4-8.5q0-5-4-9t-9-3v-1zm63 0h-13q-5 0-9 4t-4 9q0 5 4 8.5t9 4.5h13q5-1 8.5-4.5T150 76q0-5-3.5-9t-8.5-3v-1zm-63 50H63q-6 1-9.5 4.5T50 126q0 5 3.5 9t9.5 4h12q5-1 8.5-4.5t4-8.5q.5-5-3.5-9t-9-4zm63 0h-13q-5 1-8.5 4.5T113 126q0 5 3.5 9t8.5 4h13q5-1 8.5-4.5t3.5-8.5q0-5-3.5-9t-8.5-4zm162 13v112q0 17-8.5 31.5t-23 23Q254 301 238 301H63q-17 0-31.5-8.5t-23-23Q0 255 0 238V63q0-16 8.5-30.5t23-23Q46 1 63 1h75q16 0 30.5 8.5t23 23Q200 47 200 64h38q16 0 30.5 8t23 22.5Q300 109 300 126zM63 276h112V63q0-15-11-26t-26-11H63q-16 0-27 11T25 63v175q0 16 11 27t26 11h1zm212-150q0-16-11-27t-27-11h-37v188h38q15 0 26-11t11-27V126zm-37 37q-6 0-9.5 4t-3.5 9q0 5 3.5 8.5t9 3.5q5.5 0 9-3.5t3.5-8.5q0-5-3.5-9t-9.5-4h1zm0 50q-6 0-9.5 4t-3.5 9q0 5 3.5 8.5t9 3.5q5.5 0 9-3.5t3.5-8.5q0-5-3.5-9t-8.5-4zm0-100q-6 0-9.5 4t-3.5 9q0 5 3.5 8.5t9 3.5q5.5 0 9-3.5t3.5-8.5q0-5-3.5-9t-8.5-4z"/></svg>