<svg viewBox="0 0 300 302.0011" xmlns="http://www.w3.org/2000/svg"><path d="M300 226v12q0 17-8.5 31.5t-23 23Q254 301 237 301h-12q-5 0-9-3.5t-4-9q0-5.5 4-9t9-3.5h13q15 0 26-11t11-26v-13q0-5 3.5-8.5t9-4q5.5-.5 9 3.5t3.5 9zM238 1h-13q-5 0-8.5 3.5t-3.5 9q0 5.5 3.5 9T225 26h13q15 0 26 11t11 27v12q0 5 3.5 8.5t9 3.5q5.5 0 9-3.5T300 76V63q0-16-8.5-30.5t-23-23Q254 1 237 1h1zm50 112q-6 0-9.5 4t-3.5 9v50q0 5 3.5 8.5t9 3.5q5.5 0 9-3.5t3.5-8.5v-50q0-5-3.5-9t-8.5-4zM75 276H63q-16 0-27-11t-11-26v-13q0-5-3.5-8.5t-9-4q-5.5-.5-9 3.5T0 226v12q0 17 8.5 31.5t23 23Q46 301 62 301h13q5 0 8.5-3.5t4-9q.5-5.5-3.5-9t-9-3.5zM75 1H63Q46 1 31.5 9.5t-23 23Q0 47 0 63v13q0 5 3.5 8.5t9 4q5.5.5 9-3.5t3.5-9V63q0-15 11-26t26-11h13q5 0 9-3.5t4-9q0-5.5-4-9T75 1zM13 188q5 1 8.5-3t3.5-9v-50q0-5-3.5-9t-9-3.5q-5.5.5-9 4T0 126v50q0 5 3.5 9t8.5 3h1zM125 26h49q5 0 9-3.5t4-9q0-5.5-4-9T174 1h-49q-5 0-8.5 3.5t-3.5 9q0 5.5 3.5 9T125 26zm50 250h-50q-5 0-8.5 3.5t-3.5 9q0 5.5 3.5 9t8.5 3.5h50q5 0 9-3.5t4-9q0-5.5-4-9t-9-3.5z"/></svg>