<svg viewBox="0 0 300 302.0011" xmlns="http://www.w3.org/2000/svg"><path d="M288 138h-39q-2-13-7-26l33-19q4-3 5.5-8t-1-9q-2.5-4-7.5-5.5t-9 .5l-34 19q-8-10-18-18l19-34q2-4 1-9t-5.5-7.5Q221 19 216 20t-8 6l-19 33q-13-5-26-7V13q-1-5-4.5-8.5T150 1q-5 0-9 3.5t-4 8.5v39q-13 1-26 7L92 26q-4-7-11-7t-10.5 6.5Q67 32 70 38l20 33q-11 9-19 19L38 71q-5-2-9.5-.5t-7 5.5Q19 80 20 85t5 8l33 19q-5 13-7 26H13q-6 1-9.5 4.5T0 151q0 5 3.5 9t8.5 4h39q2 13 7 26l-33 19q-4 3-5.5 8t1 9.5q2.5 4.5 7.5 6t10-1.5l33-19q8 10 18 18l-19 33q-3 5-1.5 10t6 7.5Q79 283 84 282t8-6l19-33q13 5 27 7v38q0 6 3.5 9.5t8.5 3.5q5 0 9-3.5t4-8.5v-39q13-2 26-7l20 33q2 5 7 6t9.5-1.5q4.5-2.5 6-7.5t-1.5-9l-19-34q10-8 18-18l34 19q4 2 9 1t7.5-5.5q2.5-4.5 1.5-9.5t-6-8l-33-19q5-13 7-26h39q5 0 8.5-4t3.5-9q0-5-3.5-9t-8.5-4zm-138 88q-27 0-47-16-17-14-23.5-36t-1-44.5Q84 107 101 93q20-16 49-17 28 1 48 17 17 14 23 36t0 44q-6 22-23 36-20 16-48 17zm18-28q-24 8-43-4-17-10-22.5-30t3.5-38q11-19 36-24 11-2 21 0 4 1 5 5t-2 7q-8 7-12 17t-3.5 20.5Q151 162 156 171t14 15q3 3 2.5 7t-4.5 5z"/></svg>