<svg viewBox="0 0 300 302.0011" xmlns="http://www.w3.org/2000/svg"><path d="M237 113h1q4 0 7.5-2.5t4.5-8q1-5.5-3-9.5-8-10-20-18t-24-11q-5-1-9.5 1.5T188 73q-1 5 1.5 9.5t8.5 6q6 1.5 13 6t13 10.5q-9-4-18-4-18 0-30.5 13T163 145q0 18 12.5 30.5T206 188q18 0 31-12.5t13-31q0-18.5-13-31.5zm-31 50q-8 0-13-5t-5-13q0-8 5-13.5t13-5.5q8 0 13.5 5.5T225 145q0 8-5.5 13t-13.5 5zm-68-18q0-18-13-31t-31-13q-9 0-18 4 6-6 13-10.5t13-6q6-1.5 8.5-6T112 73q-1-5-5.5-7.5T97 64q-12 3-24 11T53 93q-3 4-2.5 9.5t4 8.5q3.5 3 7.5 3l1-1q-13 13-13 31.5T63 176q13 13 31 13t31-13q13-13 13-31zm-44 18q-8 0-13.5-5T75 145q0-8 5.5-13.5T94 126q8 0 13.5 5.5T113 145q0 8-5.5 13T94 163zM150 1q-41 0-75.5 20T20 75.5Q0 110 0 151t20 75.5Q40 261 74.5 281t75.5 20q41 0 75.5-20t54.5-54.5q20-34.5 20-75.5t-20-75.5Q260 41 225.5 21T150 1zm0 275q-34 0-62.5-17T42 213.5Q25 185 25 151t17-62.5Q59 60 87.5 43T150 26q34 0 62.5 17T258 88.5q17 28.5 17 62.5t-17 62.5Q241 242 212.5 259T150 276zm37-47q1 3-1 6t-6 3h-60q-4 0-6-3t-1-6q4-11 14-19.5t23-8.5q13 0 23 8.5t14 19.5z"/></svg>