<svg viewBox="0 0 300 302.0011" xmlns="http://www.w3.org/2000/svg"><path d="M219 99l-21 14 21 15q5 3 6 8t-2 9.5q-3 4.5-8 5.5t-9-2l-38-25q-5-4-5-10.5t5-10.5l38-25q4-3 9-2t8 5.5q3 4.5 2 9.5t-6 8zM77 145q3 5 8 6t9-2l38-25q5-4 5-10.5t-5-10.5L94 78q-4-3-9-2t-8 5.5Q74 86 75 91t6 8l22 14-22 15q-5 3-6 8t2 9zm223 6q0 41-20 75.5T225.5 281Q191 301 150 301q-57-2-95-33-35-29-47.5-73t0-88Q20 63 55 34 93 3 150 1q41 0 75.5 20T280 75.5q20 34.5 20 75.5zm-25 0q0-34-17-62.5T212.5 43Q184 26 150 26q-47 2-79 28-30 23-40 60t0 74q10 37 40 60 32 26 79 28 34 0 62.5-17t45.5-45.5q17-28.5 17-62.5zm-65 25q-29 11-60 13-31-2-60-13-4 0-7.5 1t-5.5 4.5q-2 3.5-2 7t2 6.5q11 20 30.5 31.5T150 238q23 0 42.5-11.5T223 195q2-3 2-6.5t-2-7q-2-3.5-5.5-5t-7.5-.5z"/></svg>