<svg viewBox="0 0 300 302.0011" xmlns="http://www.w3.org/2000/svg"><path d="M0 151q0-41 20-75.5T74.5 21Q109 1 150 1t75.5 20Q260 41 280 75.5t20 75.5q0 5-3.5 9t-9 3.5q-5.5-.5-9-4T275 151q0-34-17-62.5T212.5 43Q184 26 150 26T87.5 43Q59 60 42 88.5T25 151q0 5-3.5 9t-9 3.5q-5.5-.5-9-4T0 151zm161 124q-11 1-22 0-6 0-9.5 3.5t-4 8.5q-.5 5 2.5 9t9 4.5q6 .5 13 .5t13-.5q6-.5 9-4.5t2.5-9q-.5-5-4-8.5T161 275zm49-211q-11 2-23.5 10T165 93q-3 4-2.5 9.5t4.5 8q4 2.5 9 3t9-4.5q6-8 14.5-13.5t14.5-7q6-1.5 9-5.5t2-9.5q-1-5.5-5.5-8T210 64zM90 64q-5-1-9.5 1.5t-5.5 8Q74 79 77 83t9 5.5q6 1.5 14.5 7T115 109q4 5 9 5t9-3q4-3 4.5-8.5T135 93q-9-11-21.5-19T90 64zm48 74q0-5-4-8.5t-9-3.5H88q-6 0-9.5 3.5t-3.5 9q0 5.5 3.5 9T88 151h37q5 0 9-3.5t4-8.5v-1zm87 0q0-5-3.5-8.5T213 126h-38q-5 0-9 3.5t-3.5 9q.5 5.5 4 9t8.5 3.5h38q5 0 8.5-3.5t3.5-8.5v-1zm-110 39q-34 15-55 26-3-7-9-11t-14-4q-10 1-17 8t-7 18q0 7 4 14-8 2-12.5 8.5T0 251q0 10 7.5 17.5T25 276h1q2 11 10.5 18t20 7q11.5 0 20-7T87 276h1q10 0 17-7.5t7-17q0-9.5-5.5-16.5T93 227l30-39q4-5 .5-9.5T115 177zm168 50q5-6 4-13 1-11-6.5-18t-17.5-7q-8-1-14 3t-9 11q-21-11-55-26-5-3-8.5 1.5t.5 9.5l30 39q-8 1-14 8t-5.5 16.5q.5 9.5 7.5 17t18 7.5q2 11 10.5 18t20 7q11.5 0 20-7t10.5-18h1q10 0 17.5-7.5T300 251q0-8-4.5-14.5T283 227z"/></svg>