<svg viewBox="0 0 300 302.0011" xmlns="http://www.w3.org/2000/svg"><path d="M269 163q14-14 22-32.5t9-38.5q0-46-19-66-13-12-30-12-26 0-55 22-21 17-46 47-25-30-46-47-29-22-54-22-19-1-32 14.5T1.5 69Q-2 94 5 119q8 26 26 44l7 6q-17 16-22.5 38.5T17 252q3 11 10.5 19.5t18 13q10.5 4.5 21.5 4t20-5.5q28-15 50-37v30q1 5 4.5 9t8.5 4q5 0 9-4t4-9v-30q22 22 50 37 9 5 20.5 5.5t21.5-4q10-4.5 17.5-13T283 252q8-22 2-44.5T263 168l6-5zm-131 33q-1 14-18 32.5T76 261q-10 5-21 .5T41 245q-6-17-.5-34.5T60 182q15 6 30 7 25 0 48-9v16zm0-45q-22 14-48 13-12-1-22.5-5.5T49 145q-11-11-17-24.5T25 92q0-25 6.5-39T50 39q33 0 87 68l1 44zm25-44q54-68 88-68 11 0 17.5 14t6.5 39q-1 15-7 28.5T251 145q-16 17-40 19-26 1-48-13v-44zm96 138q-3 12-14 16.5t-21-.5q-27-14-44.5-32.5T162 196v-16q23 9 48 8 16 0 30-6 15 11 20 28.5t-1 34.5zM125 26q0-10 7.5-17.5T150 1q10 0 17.5 7.5T175 26q0 10-7.5 17.5T150 51q-10 0-17.5-7.5T125 26z"/></svg>