<svg viewBox="0 0 300 302.0011" xmlns="http://www.w3.org/2000/svg"><path d="M274 233q-16 32-46 50t-65 18h-23q-7-1-8-1-30-5-54.5-22.5t-38.5-44Q25 207 25 176v-50q0-34 17-62.5T87.5 18Q116 1 150 1h13q36 0 66 18.5T275 70q2 5 .5 10t-6 7q-4.5 2-9.5.5t-8-6.5q-12-25-36.5-40T163 26h-13q-27 0-50 13.5T63.5 76Q50 99 50 126v50q0 34 21 61t54 36V151q0-5 3.5-9t9-4q5.5 0 9 4t3.5 9v7q21-20 50-20h13q5 0 8.5 4t3.5 9q0 5-3.5 8.5T213 163h-13q-21 0-35.5 15T150 213v63h13q28 0 52-14.5t37-39.5q2-5 7-6.5t9.5 1q4.5 2.5 6 7.5t-.5 9z"/></svg>