<svg viewBox="0 0 300 302.0011" xmlns="http://www.w3.org/2000/svg"><path d="M300 138q0-14-6.5-27T275 89v-1q0-17-11-30.5T236 40q-4-17-17.5-28T187 1q-10 0-20 4.5T150 18q-7-8-17-12.5T113 1Q95 1 81.5 12T64 40q-17 4-28 17.5T25 89q-12 9-18.5 22T0 139.5Q0 155 9 170q-9 14-9 30.5t7.5 30Q15 244 28 253q7 21 25 34.5T94 301q17 0 31.5-8t24.5-21q10 13 24.5 21t31.5 8q23 0 41-13.5t25-34.5q13-9 20.5-22.5t7.5-30q0-16.5-9-30.5 9-15 9-32zM94 276q-16 0-27.5-9.5T51 242q-1-5-6-8-9-5-14.5-14T25 201q0-13 8-23 3-4 3-8.5t-3-7.5q-8-11-8-23 0-11 5-19.5T44 106q4-2 5.5-5.5T50 93v-4q0-11 7.5-18.5T75 63q5 1 9-3t4-9q0-10 7-17.5t17.5-7.5q10.5 0 18 7.5T138 51v50h-29q-3-6-9-9.5T88 88q-11 0-18 7.5t-7 18q0 10.5 7 17.5t18 7q6 0 12-3t9-9h29v62h-29q-3-5-9-8.5T88 176q-11 0-18 7.5T63 201q0 10 7 17.5t18 7.5q6 0 12-3.5t9-8.5h29v18q0 18-13 31t-31 13zm173-98q8 10 8 23 0 10-5.5 19T255 234q-5 3-6 8-4 15-15.5 24.5T206 276q-18 0-30.5-13T163 232v-56h25q15 0 26-11t11-27v-3q6-3 9.5-9t3.5-13q0-10-7.5-17.5t-18-7.5Q202 88 195 95.5t-7 17.5q0 7 3 13t9 9v3q0 6-3.5 9.5T187 151h-24V51q0-10 7-17.5t17.5-7.5q10.5 0 18 7.5T213 51q0 5 3.5 8.5T225 63q10 1 17.5 8t7.5 17v5q-1 4 .5 7.5t5.5 5.5q9 5 14 13.5t5 18.5q0 13-8 24-3 3-3 7.5t3 8.5z"/></svg>