<svg viewBox="0 0 300 302.0011" xmlns="http://www.w3.org/2000/svg"><path d="M150 1q13 0 22 9t9 22q0 13-9 22.5t-22 9q-13-.5-22-9.5t-9-22q0-13 9-22t22-9zm38 237v-52q11-4 17.5-13.5T212 151v-25q0-21-14.5-35.5T162 76h-24q-21 0-35.5 14.5T88 126v25q-1 12 6 21.5t18 13.5v52q1 6 4.5 9.5t8.5 3.5q5 0 9-3.5t4-8.5v-63q0-5-4-9t-9-4q-5 0-9-3.5t-4-8.5v-25q1-10 8-17.5t18-7.5h25q10 0 17.5 7.5T188 126v25q0 5-4 8.5t-9 3.5q-5 0-8.5 4t-3.5 9v62q0 6 3.5 9.5t8.5 3.5q5 0 9-3.5t4-9.5zm112 7q0-17-18.5-29.5T228 196q-6-1-10 1.5t-5 8q-1 5.5 1.5 9.5t7.5 5q27 6 41 14 12 6 12 11t-14 12q-16 8-42 13-31 6-69 6t-69-6q-26-5-42-13-14-7-14-12t12-11q14-8 41-14 5-1 7.5-5t1.5-9.5q-1-5.5-5.5-8T72 196q-35 7-53.5 19.5T0 245.5Q0 263 23 277q20 12 56 18 33 6 71 6t71-6q36-6 56-18 23-14 23-32z"/></svg>