<svg viewBox="0 0 300 302.0011" xmlns="http://www.w3.org/2000/svg"><path d="M238 1H63Q46 1 31.5 9.5t-23 23Q0 47 0 64v174q0 17 8.5 31.5t23 23Q46 301 63 301h175q16 0 30.5-8.5t23-23Q300 255 300 238V63q0-16-8.5-30.5t-23-23Q254 1 238 1zm37 237q0 16-11 27t-27 11H63q-16 0-27-11t-11-27V63q0-15 11-26t27-11h175q15 0 26 11t11 27v174zm-131-99q-6 0-9-4l-22-24v103q0 5-4 8.5t-9 3.5q-5 0-9-3.5t-4-8.5V111l-23 24q-4 4-9 4t-9-4q-4-4-4-9t4-9l32-32q4-4 10.5-6.5T100 76q5 0 11.5 2.5T122 85l31 33q3 4 3 9t-3.5 8.5Q149 139 144 139zm110 28q4 4 4 9t-4 9l-32 32q-4 4-10.5 6.5T200 226q-5 0-11.5-2.5T178 217l-32-32q-4-4-4-9t4-9q4-4 9-4t9 4l23 24V88q0-5 4-8.5t9-3.5q5 0 8.5 3.5T212 89v102l24-24q4-4 9-4t9 4z"/></svg>