<svg viewBox="0 0 300 302.0011" xmlns="http://www.w3.org/2000/svg"><path d="M279 200l-16-16v104q-1 8-7 11t-12 0q-6-3-7-10V184l-16 16q-3 3-8.5 3t-9-3.5Q200 196 200 191t4-9l20-20q11-11 26-11t26 11l20 20q6 5 3.5 12t-9 9q-6.5 2-11.5-3zM213 1H88Q71 1 56.5 9.5t-23 23Q25 47 25 63v188q0 21 14.5 35.5T75 301h125q8 0 11-6.5t0-12.5q-3-6-11-6H75q-11 0-19-9t-6-20q2-9 9.5-15t16.5-6h99q8 0 11-6.5t0-12.5q-3-6-11-6h-75V26h113q15 0 26 11t11 27v49q0 8 6.5 11t12.5 0q6-3 6-11V63q0-16-8.5-30.5t-23-23Q229 1 213 1zM75 201q-13 0-25 7V63q0-12 7-21.5T75 28v173z"/></svg>