<svg viewBox="0 0 300 302.0011" xmlns="http://www.w3.org/2000/svg"><path d="M278 13q-4-6-9.5-9T257 1h-38q-14 0-26.5 7.5T174 29l-23 47h-1l-24-47q-6-13-18-20.5T81 1H44q-7 0-12.5 3t-9 8.5Q19 18 19 24.5T21 37l41 82q-12 14-18 32t-6 37q0 31 15 57t41 41q26 15 56.5 15t56-15q25.5-15 41-41t15.5-57q0-38-25-69l41-82q3-6 2.5-12.5T278 13zM81 26q8 0 14 3.5t9 10.5l19 39q-23 6-42 21L44 26h37zm69 250q-24 0-44-12t-32-32q-12-20-11.5-43t11-42.5Q84 127 102 115t41-14h7q24 0 44 12t31.5 32q11.5 20 11.5 43.5T225.5 232Q214 252 194 264t-44 12zm70-176q-19-15-43-21l19-39q4-7 10-10.5t13-3.5h37l-36 74zm-57 50v89q0 5-4 8.5t-9 3.5q-5 0-8.5-3.5T138 239v-72l-4 4q-4 3-9 3t-9-3.5q-4-3.5-4-8.5t4-9l16-15q4-4 9-5t10 1q5 2 8.5 6.5t3.5 9.5z"/></svg>