<svg viewBox="0 0 300 302.0011" xmlns="http://www.w3.org/2000/svg"><path d="M267 154q-5-8-13-12t-17-4h-74V52q24 3 44.5 17.5T240 107q2 4 7 6t9.5-.5q4.5-2.5 6-7.5t-.5-10q-14-29-40.5-47T163 27V13q0-5-4-8.5T150 1q-5 0-8.5 3.5T138 13v14q-32 3-57.5 20.5T40 92q-15 27-15 59t15 59.5Q55 238 80.5 255t57.5 20v13q0 6 3.5 9.5t8.5 3.5q5 0 9-3.5t4-9.5v-13q38-3 69-28t41-61q3-8 1.5-16.5T268 154h-1zm-217-3q0-25 11.5-46.5T93 69q20-14 45-17v198q-25-3-45-17t-31.5-35.5Q50 176 50 151zm199 28q-8 28-32 47.5T163 250v-87h74q7 0 10.5 5t1.5 11z"/></svg>