<svg viewBox="0 0 300 302.0011" xmlns="http://www.w3.org/2000/svg"><path d="M262 22q-14-11-31-8-13 2-22 13t-9 25v51q-6-2-12-2-15 0-25 10-11-10-25-10-7 0-13 2V40q0-14-9-25T94 1q-18-2-31 9T50 38v109l-19 18q-18 19-18 45.5T31 255l20 20q12 13 28 19.5t34 6.5h87q20 0 37.5-10t27.5-27.5q10-17.5 10-37.5V51q0-17-13-29zm-74 104q5 0 8.5 3.5t3.5 8.5v25q0 6-3.5 9.5t-9 3.5q-5.5 0-9-3.5T175 163v-25q0-5 3.5-8.5t9.5-3.5zm-50 0q5 0 8.5 3.5t3.5 8.5v25q0 6-3.5 9.5t-9 3.5q-5.5 0-9-3.5T125 163v-25q0-5 3.5-8.5t9.5-3.5zM79 29q5-4 10-3t8 5q3 4 3 9v98q-11-7-25-5V38q0-5 4-9zm171 197q0 21-14.5 35.5T200 276h-87q-26 0-44-18l-20-20q-12-12-12-28t12-27l22-22q4-4 9-4t8.5 4q3.5 4 3.5 9t-3 9l-26 25q-4 4-4 9t4 9q4 4 9 4t9-4l25-26q3-3 5-6 11 11 26 11t25-10q11 10 26 10t26-11q11-11 11-27V52q0-5 3-9t8-4.5q5-.5 9.5 3T250 51v175z"/></svg>