<svg viewBox="0 0 300 302.0011" xmlns="http://www.w3.org/2000/svg"><path d="M163 51h106q13 0 22-9t9-22v-7q0-5-3.5-8.5t-9-3.5q-5.5 0-9 3.5T275 14v6q0 2-2 4t-4 2h-19V13q0-5-3.5-8.5t-9-3.5q-5.5 0-9 3.5T225 14v12h-62V13q0-5-4-8.5T150 1q-5 0-8.5 3.5T138 14v12H75V13q0-5-3.5-8.5t-9-3.5q-5.5 0-9 3.5T50 14v12H31q-2 0-4-2t-2-4v-7q0-5-3.5-8.5t-9-3.5Q7 1 3.5 4.5T0 14v6q0 13 9 22t22 9h107v50H75V88q0-5-3.5-8.5t-9-3.5q-5.5 0-9 3.5T50 89v12H31q-2 0-4-2t-2-4v-7q0-5-3.5-8.5t-9-3.5q-5.5 0-9 3.5T0 89v6q0 13 9 22t22 9h26l81 80v82q0 6 3.5 9.5t8.5 3.5q5 0 9-3.5t3-9.5v-82l81-80h26q13 0 22-9t9-22v-7q0-5-3.5-8.5t-9-3.5q-5.5 0-9 3.5T275 89v6q0 2-2 4t-4 2h-19V88q0-5-3.5-8.5t-9-3.5q-5.5 0-9 3.5T225 89v12h-62V51zm-70 75h45v45l-45-45zm114 0l-44 45v-45h44z"/></svg>