<svg viewBox="0 0 300 302.0011" xmlns="http://www.w3.org/2000/svg"><path d="M238 1H63Q46 1 31.5 9.5t-23 23Q0 47 0 64v174q0 17 8.5 31.5t23 23Q46 301 63 301h175q16 0 30.5-8.5t23-23Q300 255 300 238V63q0-16-8.5-30.5t-23-23Q254 1 237 1h1zm37 237q0 16-11 27t-27 11H63q-16 0-27-11t-11-27V63q0-15 11-26t27-11h175q15 0 26 11t11 27v174zm-112-12q0 5-4 8.5t-9 3.5q-5 0-8.5-3.5T138 226q0-17-8.5-31.5t-23-23Q92 163 75 164q-5-1-9-4.5t-4-8.5q0-5 4-9t9-4q24 0 44 12t31.5 32q11.5 20 12.5 44zm75 0q-1 5-4.5 8.5T225 238q-5 0-8.5-3.5T213 226q0-37-19-68.5t-50.5-50Q112 89 75 88q-5 0-8.5-3.5t-4-8.5q-.5-5 3.5-9t9-4q44 0 81.5 22t59.5 59.5q22 37.5 22 81.5zm-138-6q0 8-5.5 13T81 238q-8 0-13-5t-5-13q0-8 5-13.5t13-5.5q8 0 13.5 5.5T100 220z"/></svg>