<svg viewBox="0 0 300 302.0011" xmlns="http://www.w3.org/2000/svg"><path d="M188 38h-63q-13 0-24-8T87 10q-1-5-5.5-7.5t-9.5-1q-5 1.5-7.5 6T63 17q4 17 18 29.5T113 62v114q0 15-18 27-9 6-25 13l-4 1q-18 7-29.5 23T25 276v12q0 6 3.5 9.5t9 3.5q5.5 0 9-3.5T50 288v-12q0-12 7-21.5T75 241l6 4q17 10 26 15 16 7 33 11 21 5 47 5h1q17 0 33-6.5t28.5-19q12.5-12.5 19-28.5t6.5-34v-62q0-24-12-44t-32-31.5Q211 39 187 39l1-1zm0 25q16 1 30.5 9t23 22.5Q250 109 250 126v16q-12-3-25-3-10 0-19 2-5 1-14 5l-12 3q-6 2-13 2-15 0-29-7V63h50zm43 170q-18 18-43 18-31 0-52-7-15-4-34-16 15-8 24-19 12-15 12-33v-5q14 5 29 5 10 0 19-2l15-5q7-3 11-4 6-1 13-1 15 0 25 6v18q0 26-19 45z"/></svg>