<svg viewBox="0 0 300 302.0011" xmlns="http://www.w3.org/2000/svg"><path d="M244 201q0 5-4 9t-9 4h-25q-5 0-8.5-4t-3.5-9q0-5 3.5-9t8.5-4h25q5 0 9 4t4 9zm56-13v63q0 21-14.5 35.5T250 301H50q-21 0-35.5-14.5T0 251v-63q0-20 14.5-35T50 138h13V51q0-21 14.5-35.5T113 1h75q20 0 35 14.5T238 51v87h12q21 0 35.5 15t14.5 36v-1zM88 138h125V51q0-10-7.5-17.5T188 26h-75q-11 0-18.5 7.5T87 51v87h1zM50 276h88V163H50q-10 0-17.5 7.5T25 188v63q0 10 7.5 17.5T50 276zm225-88q0-10-7.5-17.5T250 163h-87v113h87q10 0 17.5-7.5T275 251v-63zm-181 0H69q-5 0-9 4t-4 9q0 5 4 9t9 4h25q5 0 8.5-4t3.5-9q0-5-3.5-9t-8.5-4zm81-125q0-5-3.5-8.5T163 51h-25q-6 0-9.5 3.5t-3.5 9q0 5.5 3.5 9T138 76h25q5 0 8.5-3.5T175 64v-1z"/></svg>