<svg viewBox="0 0 300 302.0011" xmlns="http://www.w3.org/2000/svg"><path d="M238 1H63Q46 1 31.5 9.5t-23 23Q0 47 0 64v174q0 17 8.5 31.5t23 23Q46 301 63 301h175q16 0 30.5-8.5t23-23Q300 255 300 238V63q0-16-8.5-30.5t-23-23Q254 1 237 1h1zM100 213v-50h100v50H100zm63-75V88h112v50H163zm-63-75V26h100v37H100zm38 25v50H25V88h113zM25 163h50v50H25v-50zm200 0h50v50h-50v-50zm50-100h-50V26h13q15 0 26 11t11 27v-1zM63 26h12v37H25q0-15 11-26t27-11zM25 238h113v38H63q-16 0-27-11t-11-27zm213 38h-75v-38h112q0 16-11 27t-27 11h1z"/></svg>