<svg viewBox="0 0 300 302.0011" xmlns="http://www.w3.org/2000/svg"><path d="M296 280l-61-62q19-18 29.5-42t10.5-50q0-34-17-62.5T212.5 18Q184 1 150 1q-26 0-50 10.5T58 41L21 5q-3-4-8.5-4t-9 3.5Q0 8 0 13.5T4 22l275 275q3 4 8.5 4t9-3.5q3.5-3.5 3.5-9t-4-8.5zM150 26q27 0 50 13.5T236.5 76Q250 99 250 126q0 21-8.5 40.5T217 200l-27-26q11-9 17-21.5t6-26.5q0-17-8.5-31.5t-23-22.5Q167 64 150 64q-14 0-26.5 5.5T102 86L76 59q14-16 33.5-24.5T150 26zm-30 77q5-7 13-11t17-4q16 1 26.5 11.5T187 126q1 9-3 17t-11 13l-53-53zm95 197q-3 1-6 1H91q-7 0-14-4t-10.5-10.5q-3.5-6.5-4-14T66 258q8-14 21-24-29-17-45.5-45.5T25 126q0-11 2-21 1-5 5-8t9-2q5 1 8 5t2 9q-1 9-1 17 0 27 13.5 50t36.5 36.5q23 13.5 50 13.5 8 0 17-1 5-1 9 2t5 8q1 5-2 9t-8 5q-10 2-21 2-19 0-36-5-17 8-26 24-1 2 0 4t3 2h118q5-1 9.5 1.5t5.5 7.5q1 5-1.5 9.5T215 300z"/></svg>