<svg viewBox="0 0 300 302.0011" xmlns="http://www.w3.org/2000/svg"><path d="M288 301H13q-6 0-9.5-3.5t-3.5-9q0-5.5 3.5-9T13 276h275q5 0 8.5 3.5t3.5 9q0 5.5-3.5 9T288 301zm-103-64q39-42 79-85 8-8 10.5-19t-2-21.5Q268 101 258.5 95T238 89h-26V51q0-21-15-35.5T162 1h-25q-20 0-34.5 14.5T88 51v37H62q-12 0-21 6.5t-13.5 17Q23 122 25 133t10 19l80 85q14 14 34.5 14t35.5-14zm-85-124q5 0 9-3.5t4-8.5V51q0-11 7-18t17-7h25q10 0 17.5 7.5T187 51v50q0 6 3.5 9.5t8.5 3.5h39q4 0 7 2.5t4 5q1 2.5.5 6T246 135l-79 84q-8 7-18 7t-17-7l-79-85q-3-3-3.5-7t.5-6q4-8 12-8h38z"/></svg>