<svg viewBox="0 0 300 302.0011" xmlns="http://www.w3.org/2000/svg"><path d="M250 301q-6 0-10-5t-2-11l5-15q7-16 7-37-1-19-7-38t-16-32q-23-34-26-75.5T217 8q2-4 7-6t9.5.5q4.5 2.5 6.5 7t0 9.5q-16 31-14 66.5t22 64.5q11 14 18.5 37t8.5 46q1 27-8 45l-5 14q-1 4-4.5 6.5T250 301zm-87 0q-7 0-10.5-5t-1.5-11l4-15q8-16 7-37 0-19-6.5-38T140 163q-24-34-26.5-75.5T129 8q3-4 7.5-6t9.5.5q5 2.5 6.5 7T152 19q-16 31-13.5 66.5T161 150q11 14 18.5 37t7.5 46q1 27-8 45l-4 14q-1 4-4.5 6.5T163 301zm-88 0q-6 0-10-5t-2-11l5-15q7-16 7-37-1-19-7-38t-16-32q-23-34-26-75.5T42 8q2-4 7-6t9.5.5Q63 5 65 9.5t0 9.5Q49 50 51 85.5T73 150q11 14 18.5 37t8.5 46q1 27-8 45l-5 14q-1 4-4.5 6.5T75 301z"/></svg>