<svg viewBox="0 0 300 302.0011" xmlns="http://www.w3.org/2000/svg"><path d="M273 28q-13-13-30-20t-35.5-7Q189 1 172 8t-30 20L27 143Q9 161 3 185t0 48q6 24 23.5 41.5T68 298q24 6 48 0t42-24l115-115q13-13 20-30t7-35.5q0-18.5-7-35.5t-20-30zm-18 113L140 256q-13 13-30.5 18t-35 .5Q57 270 44 257t-17.5-30.5q-4.5-17.5.5-35T45 161L160 46q13-13 30.5-18t35-.5Q243 32 256 45t17.5 30.5q4.5 17.5-.5 35T255 141zm-9-36q4 3 4 8.5t-4 8.5l-37 38q-4 3-9 3t-8.5-3.5Q188 156 188 151t3-9l10-10-32-32-10 10q-4 3-9 3t-8.5-3.5Q138 106 138 101t3-9l38-37q5-6 12-4t9 9q2 7-4 12l-10 10 33 33 10-10q3-4 8.5-4t8.5 4zm-87 87q3 4 3 9t-3 9l-38 37q-3 4-8.5 4t-9-3.5q-3.5-3.5-3.5-9t4-8.5l10-10-33-33-10 10q-3 4-8.5 4t-9-3.5q-3.5-3.5-3.5-9t4-8.5l37-38q4-3 9-3t8.5 3.5q3.5 3.5 3.5 8.5t-3 9l-10 10 32 32 10-10q4-3 9-3t9 3z"/></svg>