<svg viewBox="0 0 300 302.0011" xmlns="http://www.w3.org/2000/svg"><path d="M203 149q4 3 4 8.5t-4 8.5l-38 36q-11 11-26.5 11T112 202l-14-13q-4-3-4.5-8.5t3-9q3.5-3.5 8.5-4t9 2.5l15 14q4 4 9.5 4t8.5-4l39-36q3-3 8.5-3t8.5 4zm72-86q0 6-3.5 9.5T263 76h-13v162q0 17-8.5 31.5t-23 23Q204 301 187 301h-74q-17 0-31.5-8.5t-23-23Q50 255 50 238V76H38q-6 0-9.5-3.5t-3.5-9q0-5.5 3.5-9T37 51h39q5-22 22-36t40-14h25q22 0 39 14t22 36h39q5 0 8.5 3.5T275 63zM102 51h96q-4-11-13.5-18T162 26h-24q-13 0-22.5 7T102 51zm123 25H75v162q0 16 11 27t26 11h76q15 0 26-11t11-27V76z"/></svg>