<svg viewBox="0 0 300 302.0011" xmlns="http://www.w3.org/2000/svg"><path d="M125 126q0-5 3.5-8.5t9.5-3.5h25V88q0-5 3.5-8.5T175 76q5 0 9 3.5t4 9.5v24h25q5 1 8.5 4.5t3.5 8.5q0 5-3.5 8.5T213 138h-25v25q0 6-4 9.5t-9 3.5q-5 0-9-3.5t-4-8.5v-26h-24q-6 0-9.5-3.5T125 126zm150-63v175q0 17-8.5 31.5t-23 23Q229 301 212 301H75q-21 0-35.5-14.5T25 251V63q0-16 8.5-30.5t23-23Q71 1 87 1h126q16 0 30.5 8.5t23 23Q275 47 275 64v-1zm-62-37H100v175h150V63q0-15-11-26t-26-11zM50 63v145q12-7 25-7V28q-11 4-18 13.5T50 63zm200 175v-12H75q-10 0-17.5 7.5T50 251q0 10 7.5 17.5T75 276h138q15 0 26-11t11-27z"/></svg>