<svg viewBox="0 0 300 302.0011" xmlns="http://www.w3.org/2000/svg"><path d="M159 1q-29-2-55.5 7.5T56 38Q35 58 24 84t-11 54v50q0 23 14 40t36 22q2 21 18 36t38 15h62q22 0 38-15t18-36q22-5 36-22t14-39v-46q1-37-16.5-68.5t-46.5-51Q195 4 159 1zm104 187q0 16-11 27t-27 11q-5 0-8.5 3.5T213 239v6q0 13-9.5 22t-22.5 9h-62q-13 0-22.5-9T87 245v-7q0-5-3.5-8.5T75 226q-16 0-27-11t-11-26v-51q1-23 10-44.5T72.5 57q16.5-15 36-23t41.5-8h8q29 2 53 18.5T248.5 87q13.5 26 13.5 56v45h1zm-138-50q0 11-7.5 18t-17.5 7q-10 0-17.5-7T75 138.5q0-10.5 7.5-18T100 113q10 0 17.5 7.5T125 138zm100 0q0 11-7.5 18t-17.5 7q-10 0-17.5-7t-7.5-17.5q0-10.5 7.5-18t17.5-7q10 .5 17.5 7.5t7.5 17zm-50 75q0 9-6 12-4 1-16 1h-6q-12 0-16-1-6-3-6-12 0-11 7.5-24t17.5-13q10 0 17.5 13t7.5 24z"/></svg>