<svg viewBox="0 0 300 302.0011" xmlns="http://www.w3.org/2000/svg"><path d="M116 164q-19 4-33 24-10 14-16 34-2 6 1.5 11.5T79 239h46q17 0 28-12.5t9-29q-2-16.5-15.5-26.5t-30.5-7zm172-51q-6 0-9.5 4t-3.5 9v62h-50q-16 0-26.5 11T188 226v50H63q-16 0-27-11t-11-26V63q0-15 11-26t26-11h139q5 0 8.5-3.5t3.5-9q0-5.5-3.5-9T201 1H63Q46 1 31.5 9.5t-23 23Q0 47 0 63v175q0 17 8.5 31.5t23 23Q46 301 62 301h142q13 0 24.5-4.5T248 283l34-34q9-8 13.5-19.5T300 205v-79q0-5-3.5-9t-8.5-4zm-57 152q-8 8-19 10v-49q1-5 4.5-8.5t8.5-3.5h49q-2 10-10 18l-33 33zm-49-87q-4 0-7-2t-4.5-5.5q-1.5-3.5-.5-7.5t3-6l98-98q4-4 4-9t-3.5-8.5q-3.5-3.5-8.5-3t-9 3.5l-95 106q-3 3-8.5 3.5t-9-3q-3.5-3.5-4-8.5t3.5-9l95-105q10-12 26-12.5T289 24q11 11 11 26.5T289 76l-98 98q-4 4-9 4z"/></svg>