<svg viewBox="0 0 300 302.0011" xmlns="http://www.w3.org/2000/svg"><path d="M288 98q1-1 3-2 9-6 9-17t-8-18l-8-6q6-10 8.5-21t-6-19.5Q278 6 267 8.5T246 17l-6-8q-6-8-17.5-8T205 10l-2 3-5-3q-9-7-19.5-2.5T165 23q-4 20-6 50-32-16-64-4-24 10-52 38-23 23-33 43-14 26-8 51 6 30 37 61 38 39 75 39 22 0 43-13 17-10 37-30 28-28 38-52 12-32-4-64 30-2 50-6 11-3 15.5-13.5T291 102l-3-4zM177 240q-22 22-39 30-19 9-38.5 3.5t-43-29q-23.5-23.5-29-43T31 163q8-17 30-39 18-17 32-26 15-10 30-10 27 0 58 32 24 24 29.5 43.5T207 202q-9 16-30 38zm78-140l6 6 6 6q-22 4-55 6-6-9-13-16t-16-14q2-32 6-54l11 12q6 4 12.5 2t7.5-8l4-11q4 7 7 12 3 6 9.5 7.5t11.5-4q5-5.5 14-9.5-4 8-10 15-5 4-3.5 10.5t6.5 9q5 2.5 13 7.5l-11 4q-6 1-8 7.5t2 11.5zM112 219q2 2 .5 4.5T109 226H88q-6 0-9.5-3.5T75 213v-21q0-2 2.5-3.5t4.5.5l30 30zm62-63q2 2 1 4.5t-4 2.5h-21q-5 0-8.5-3.5T138 151v-21q0-3 2.5-4t4.5 1l29 29zm-62 0q2 2 .5 4.5T109 163H88q-6 0-9.5-3.5T75 151v-21q0-3 2.5-4t4.5 1l30 29zm62 63q2 2 1 4.5t-4 2.5h-21q-5 0-8.5-3.5T138 213v-21q0-2 2.5-3.5t4.5.5l29 30z"/></svg>