<svg viewBox="0 0 300.0017 302.0011" xmlns="http://www.w3.org/2000/svg"><path d="M225.002 188q0 6-3.5 9.5t-9 3.5q-5.5 0-9-3.5t-3.5-9q0-5.5 3.5-9t9-3.5q5.5 0 9 3.5t3.5 9.5v-1zm-37 25q-6 0-9.5 4t-3.5 9q0 5 3.5 8.5t9 3.5q5.5 0 9-3.5t3.5-8.5q0-5-3.5-8.5t-8.5-3.5v-1zm37 13q0 5 3.5 8.5t9 3.5q5.5 0 9-3.5t3.5-8.5q0-5-3.5-8.5t-9-4q-5.5-.5-9 3.5t-3.5 9zm62-97q9 15 12 40 1 14 1 43v14q0 17-8.5 31.5t-23 22.5q-14.5 8-31.5 9h-193q-18-1-31-13.5t-13-30.5v-21q-1-42 2-63 6-35 24-55 3-4 8-4.5t9 2.5q4 3 4.5 8t-2.5 9q-20 26-20 58v66q0 8 5.5 13t13.5 5q8 0 13.5-5t5.5-13l-1-22q0-33 2-49 2-28 12-44-10-17-12-35-3-20 5-34 10-17 34-22 6-14 19.5-20.5t28.5-3.5q5-7 13.5-10.5t17-3.5q8.5 0 16.5 3.5t14 10.5q15-3 28.5 3.5t18.5 20.5q24 5 34 21 8 14 6 35-2 17-12 34zm-195-24q17-19 40-30t49-11q26 0 49.5 10.5t40.5 29.5q7-16 2-28t-23-13q-4 1-7.5-2t-4.5-8.5q-1-5.5-6-9.5t-11-5q-4 1-7.5 3t-8 1q-4.5-1-7.5-5-9-12-17-11.5t-16 11.5q-3 4-7.5 5t-8-1q-3.5-2-7.5-3-7 1-11.5 5t-5.5 9.5q-1 5.5-4.5 8.5t-8.5 2q-17 1-22 13.5t2 28.5zm183 77q-1-36-21-60-18-22-45.5-29.5t-55.5 1q-28 8.5-45 31.5-20 25-20 61-1 4 0 20v34q-1 18-5 23h155q15 0 26-10.5t11-26.5v-44z"/></svg>