<svg viewBox="0 0 300 302.0011" xmlns="http://www.w3.org/2000/svg"><path d="M226 70l-21-27q-11-16-17-29-4-6-9.5-9.5T166 1q-7 0-12.5 4T146 16q-3 9-6 24t-3 30q1 18 6 35 3 10 10 26 6 12 7 18 3 9 2 18t-8 15.5q-7 6.5-17 5.5-22 0-33-25-8-18-9-50 0-8-5-14.5t-13.5-9Q68 87 60.5 90T48 101q-11 18-17 37.5T25 176q0 34 17 62.5T87.5 284q28.5 17 62.5 17t62.5-17q28.5-17 45.5-45.5t17-62.5q0-27-15-56-10-18-34-50zm-76 206q-27 0-50-13.5T63.5 226Q50 203 50 176q0-15 5.5-31T70 114q2 48 19 73.5t48 25.5q20 0 34.5-12.5T187 169q1-13-2-26-3-8-9.5-22T167 98q-5-13-5-28 0-21 6-40 7 13 18 29 6 9 20 26 22 30 31 45 13 24 13 46 0 27-13.5 50T200 262.5Q177 276 150 276z"/></svg>