<svg viewBox="0 0 300 302.0011" xmlns="http://www.w3.org/2000/svg"><path d="M250 126h-1q2-9 .5-18T243 92q-5-7-13-11.5T213 76H38Q7 78 1 107q-4 23 8 59 9 27 21 46t31.5 29Q81 251 103 251h44q22 0 41-10t31-28h31q21 0 34.5-13.5t15-31.5q1.5-18-11.5-30.5T250 126zM147 226h-44q-16 0-29.5-7T51 199q-3-3-10-19t-11-33q-6-20-5-32 2-14 12-14h176q5 0 8.5 4t3.5 10q-4 32-11 52-8 27-23 41-17 17-44 18zm103-38h-18q8-18 12-37 13-1 22.5 2.5T275 166q-1 9-8 16t-17 7v-1zM113 38V13q0-5 3.5-8.5T125 1q5 0 9 3.5t4 8.5v25q0 6-4 9.5t-9 3.5q-5 0-8.5-3.5T113 39v-1zm50 0V13q0-5 3.5-8.5T175 1q5 0 9 3.5t4 8.5v25q0 6-4 9.5t-9 3.5q-5 0-8.5-3.5T163 39v-1zM63 38V13q0-5 3.5-8.5T75 1q5 0 9 3.5t4 8.5v25q0 6-4 9.5T75 51q-5 0-8.5-3.5T63 39v-1zm187 250q0 6-3.5 9.5T238 301H13q-6 0-9.5-3.5t-3.5-9q0-5.5 3.5-9T12 276h226q5 0 8.5 3.5t3.5 8.5z"/></svg>