<svg viewBox="0 0 300 302.0011" xmlns="http://www.w3.org/2000/svg"><path d="M296 280l-74-75q21-26 26.5-59t-6-64q-11.5-31-38-52.5T145 3q-33-5-64 6.5T28.5 47Q7 73 2 106t6.5 64Q20 201 46 223q23 18 51 24.5t56.5 0Q182 241 204 223l75 74q4 4 9 4t8.5-4q3.5-4 3.5-9t-4-8zM26 126q0-27 13-50t36-36.5Q98 26 125.5 26t50 13.5Q198 53 211.5 76t13.5 50q0 27-13.5 50t-36 36.5Q153 226 125.5 226T75 212.5Q52 199 39 176t-13-50zm124-50q-14 0-25 11-10-11-25.5-10.5t-26 12Q63 100 63 116.5T78 153q12 15 32 31 7 6 15.5 6t15.5-6q20-16 31-31 16-20 16-36.5t-11-28Q166 77 150 76zm-25 89q-17-14-27-27t-10-22q-1-5 3-9.5t9.5-4.5q5.5 0 9 4.5t3.5 9.5q0 5 3.5 9t9 4q5.5 0 9-4t3-9q-.5-5 3.5-9.5t9.5-4.5q5.5 0 9 4.5t3.5 9.5q0 9-10 22t-28 27z"/></svg>