<svg viewBox="0 0 300 302.0011" xmlns="http://www.w3.org/2000/svg"><path d="M150 188q20 1 37.5-9.5T215 151q10-17 10-37V38q0-15-11-26T188 1h-75Q97 1 86 12T75 39v74q0 21 10 38t27.5 27q17.5 10 37.5 10zm0-25q-21 0-35.5-14.5T100 113v-12h100v12q0 21-14.5 35.5T150 163zm50-125v38h-37V63h12q5 0 9-3.5t4-8.5q0-5-4-9t-9-4h-12V26h25q5 0 8.5 3.5T200 39v-1zm-100 0q0-5 3.5-8.5T112 26h26v12h-13q-5 0-9 4t-3.5 9q.5 5 4 8.5T125 63h13v13h-38V38zm163 250q0 6-4 9.5t-9 3.5q-5 0-8.5-3.5T238 288q0-17-7-33.5T214 228q-2-2-5-2t-5 3l-44 55q-4 4-10 4t-10-4l-44-56q-2-2-5-2t-5 2q-10 9-16.5 26T63 288q0 6-4 9.5t-9 3.5q-5 0-8.5-3.5T38 288q0-22 8.5-43.5T69 210q10-10 23.5-9t22.5 11l35 44 35-43q9-11 22.5-12t23.5 9q14 13 23 34.5t9 43.5z"/></svg>