<svg viewBox="0 0 300 302.0011" xmlns="http://www.w3.org/2000/svg"><path d="M106 138q-8 0-13.5-5t-5-13q.5-8 5.5-13.5t13-5.5q8 0 13.5 5.5T125 120q0 8-5.5 13.5T106 139v-1zm88-37q-8 0-13.5 5.5T175 120q0 8 5.5 13.5t13.5 5q8-.5 13-5.5t5-13q0-8-5-13.5t-13-5.5zM150 1q-41 0-75.5 20T20 75.5Q0 110 0 151t20 75.5Q40 261 74.5 281t75.5 20q36 0 68-16 5-3 6.5-8t-1-9.5q-2.5-4.5-7.5-6t-9 .5q-27 14-57 14-34 0-62.5-17T42 213.5Q25 185 25 151t17-62.5Q59 60 87.5 43T150 26q34 0 62.5 17T258 88.5q17 28.5 17 62.5 0 11-2 23-1 5 2 9t8 5q5 1 9.5-2t5.5-8q2-13 2-27 0-41-20-75.5T225.5 21Q191 1 150 1zM75 188v25q0 6 3.5 9.5t9 3.5q5.5 0 9-3.5t3.5-8.5v-26q0-5-3.5-8.5t-9-3.5q-5.5 0-9 3.5T75 188zm50 38q5 0 9-3.5t4-8.5v-26q0-5-4-8.5t-9-3.5q-5 0-9 3.5t-4 8.5v25q0 6 4 9.5t9 3.5zm25-38v25q0 6 3.5 9.5t9 3.5q5.5 0 9-3.5t3.5-8.5v-26q0-5-3.5-8.5t-9-3.5q-5.5 0-9 3.5T150 188zm38 0v25q0 6 3.5 9.5t8.5 3.5q5 0 9-3.5t4-8.5v-26q0-5-4-8.5t-9-3.5q-5 0-9 3.5t-4 8.5h1zm62 17l-7-3q-4-1-7.5-.5t-6.5 3q-3 2.5-4 6.5t1 7q14 34 19 38 7 7 17.5 7t18-7q7.5-7 7.5-17.5t-8-17.5q-2-3-8-6l-22-10z"/></svg>