<svg viewBox="0 0 300 302.0011" xmlns="http://www.w3.org/2000/svg"><path d="M238 61V38q-1-15-11.5-26T200 1H100Q84 1 73 12T62 39v22Q45 71 35 88.5T25 126v112q0 17 8.5 31.5t23 23Q71 301 87 301h126q16 0 30.5-8.5t23-23Q275 255 275 238V126q0-20-10-37.5T238 61zM88 38q0-5 3.5-8.5T100 26h100q5 0 8.5 3.5T212 38v14q-6-1-12-1H100q-6 0-13 1V38h1zm162 200q0 16-11 27t-26 11h-19q6-4 10-8 9-9 15-34 1-6-3.5-10.5T205 220q-26 5-33 12t-9 21h-1l1-32 7-3q9-3 17-7 11-6 17-12 9-9 15-34 1-6-3.5-10.5T205 151q-26 5-33 12t-9 21h-1v-24q13-16 13-28 0-8-4-19-3-6-10-19-4-6-11-6t-11 6q-7 13-10 19-4 11-4 19 0 12 13 28v24q-3-14-10-21t-33-12q-6-1-10.5 3.5T82 165q5 25 14 34t26 16q8 4 15 6v32q-2-14-9-21t-33-12q-6-1-10.5 3.5T82 234q5 25 14 34 4 4 10 8H88q-16 0-27-11t-11-26V126q0-21 14.5-35.5T100 76h100q21 0 35.5 14.5T250 126v113-1z"/></svg>