<svg viewBox="0 0 300 302.0011" xmlns="http://www.w3.org/2000/svg"><path d="M238 38h-82q-3 0-6-1l-39-20q-8-4-17-4H62q-17 0-31 8.5t-22.5 23Q0 59 0 76v150q0 17 8.5 31.5t23 22.5q14.5 8 31.5 8h175q16 0 30.5-8t23-22.5Q300 243 300 226V101q0-17-8.5-31.5t-23-23Q254 38 238 38zM63 38h31q3 0 6 2l39 20q8 4 17 4h82q12 0 21.5 7T273 89H25V76q0-15 11-26t27-11v-1zm175 225H63q-16 0-27-11t-11-26V113h250v113q0 15-11 26t-26 11zm-13-75q0 17-13 29l-19 18q-4 3-9 3t-8.5-3.5q-3.5-3.5-3.5-9t4-8.5l17-16H88q-6 0-9.5-3.5t-3.5-9q0-5.5 3.5-9T88 176h105l-17-16q-4-3-4-8.5t3.5-9q3.5-3.5 8.5-3.5t9 3l20 18q12 12 12 29v-1z"/></svg>