<svg viewBox="0 0 300 302.0011" xmlns="http://www.w3.org/2000/svg"><path d="M100 176q0 10 7.5 17.5T125 201q10 0 17.5-7.5T150 176q0-10-7.5-17.5T125 151q-10 0-17.5 7.5T100 176zm-29 29q-3-4-8.5-4t-9 3.5q-3.5 3.5-3.5 9t4 8.5l25 25q5 6 12 4t9-9q2-7-4-12l-25-25zM294 7q-7-6-16-6t-16 6l-2 3q-14 14-20 33l-37 37q-21-17-48.5-16.5T107 83l-6 6q-7 11-19 12-16 1-30.5 8T26 127Q8 145 2.5 170.5T5 222q8 26 28 46 15 16 35 24.5t42 8.5q18 0 34.5-6.5T173 276q12-12 19-26.5t8-30.5q1-12 12-19l6-6q19-20 19.5-47.5T221 98l37-37q19-6 33-20l3-2q6-7 6-16t-6-16zm-94 169q-1 2-3 4-10 6-15.5 16t-6.5 21q-2 24-18 41-14 13-33 16.5T85.5 272q-19.5-6-35-21.5t-21.5-35Q23 196 26.5 177T43 144q17-16 41-18 11-1 21-6.5t16-15.5l4-3q12-13 29.5-12.5T185 98l-19 19q-5 5-3 12t9 9q7 2 12-3l19-19q10 13 9.5 30.5T200 176z"/></svg>