<svg viewBox="0 0 300 302.0011" xmlns="http://www.w3.org/2000/svg"><path d="M288 276h-9L213 99q-2-9 3-16t14-7h49q7 0 12-3.5t7.5-9.5q2.5-6 1-12.5T293 40l-29-20q-17-10-32.5-14.5T198 1h-12q-32 0-58 18.5T92 69L21 276h-8q-6 0-9.5 3.5t-3.5 9q0 5.5 3.5 9T13 301h275q5 0 8.5-3.5t3.5-9q0-5.5-3.5-9T287 276h1zm-113 0h-50v-19q0-2 2-4t4-2h38q2 0 4 2t2 4v19zm25 0v-19q0-13-9-22t-22-9h-38q-13 0-22 9t-9 22v19H47l68-199q8-23 27.5-37T186 26h12q14 0 26.5 3.5T252 41l14 10h-36q-11 0-20 5t-15 13q-6 8-7 18t2 20l62 169h-52z"/></svg>