<svg viewBox="0 0 300 302.0011" xmlns="http://www.w3.org/2000/svg"><path d="M300 138q0 6-3.5 9.5T287 151h-74q-6 0-9.5-3.5t-3.5-9q0-5.5 3.5-9t9.5-3.5h75q5 0 8.5 3.5t3.5 8.5zm-37 50h-50q-6 1-9.5 4.5T200 201q0 5 3.5 9t9.5 4h50q5-1 8.5-4.5t3.5-8.5q0-5-3.5-9t-9.5-4h1zm-25 63h-25q-6 0-9.5 3.5t-3.5 9q0 5.5 3.5 9t9.5 3.5h25q5 0 8.5-3.5t3.5-9q0-5.5-3.5-9T237 251h1zM50 76v162q0 16 11 27t27 11h75q5 0 8.5 3.5t3.5 9q0 5.5-3.5 9T162 301H88q-17 0-31.5-8.5t-23-23Q25 255 25 238V76H13q-6 0-9.5-3.5t-3.5-9q0-5.5 3.5-9T13 51h38q5-22 22-36t40-14h25q22 0 39 14t22 36h39q5 0 8.5 3.5t3.5 9q0 5.5-3.5 9T237 76h-12v12q0 6-3.5 9.5t-9 3.5q-5.5 0-9-3.5T200 89V76H50zm27-25h96q-4-11-13.5-18T137 26h-24q-13 0-22.5 7T77 51z"/></svg>