<svg viewBox="0 0 300 302.0011" xmlns="http://www.w3.org/2000/svg"><path d="M283 92l2-2q15-16 15-37.5T285 16Q270 1 248.5 1T211 16l-2 2-2-2Q191 1 169.5 1T133 16.5Q118 32 118 54l-11-1q-23 0-39 16t-16 38l-5 2q-15 5-24.5 18.5T13 158q0 13 13 39 9 17 23 37L4 280q-4 3-4 8.5t3.5 9q3.5 3.5 9 3.5t8.5-4l46-45q20 14 37 23 26 13 39 13 17 0 30.5-9.5T192 254l2-5q22 0 37.5-16t15.5-39v-9l1-2q22 0 37-15t15-36.5q0-21.5-15-37.5l-2-3v1zm-17 18q9 10 9 21.5t-8 19q-8 7.5-19 7.5t-19 8.5q-8 8.5-7 20.5l1 7q0 13-9 21.5t-21 8.5q-9 0-15.5 5.5t-9 15q-2.5 9.5-9.5 14t-14.5 4.5q-7.5 0-24.5-8.5T85 234l86-87q4-3 4-8.5t-3.5-9q-3.5-3.5-9-3.5t-8.5 4l-87 86q-12-18-20.5-35T38 156.5q0-7.5 4.5-14.5t14-9.5q9.5-2.5 15-9T77 108q0-12 8.5-20.5T107 79l9-1q11 1 19-6t8-18.5q0-11.5 7.5-19.5t19-8q11.5 0 21.5 9 7 6 14 8 12 3 24-9 8-8 19.5-8t19 8q7.5 8 7.5 19t-8 19q-12 12-9 24 2 7 8 14z"/></svg>