<svg viewBox="0 0 300 302.0011" xmlns="http://www.w3.org/2000/svg"><path d="M86 188h177q5 0 8.5-3.5t3.5-8.5q0-5-3.5-9t-8.5-4H152l67-25h44q5 1 8.5-3t3.5-9q0-5-3.5-9t-8.5-4h-12q12-16 12-34.5T254 45q-9-15-24-23-37-21-79.5-21T71 21Q52 31 41 42q-3 4-3 9t3.5 8.5q3.5 3.5 8.5 4t9-3.5q8-8 24-17 32-17 67.5-17T218 43q9 5 14.5 14.5T238 78q0 11-6.5 21T214 113H38q-6 0-9.5 4t-3.5 9q0 5 3.5 9t8.5 4h111l-67 24H38q-6 0-9.5 4t-3.5 9q0 5 3.5 9t8.5 4h12q-12 16-11.5 36T48 261q10 16 26 24 32 16 76 16 41 0 84-19 22-10 36-21 4-3 5-8t-2.5-9.5q-3.5-4.5-8.5-5t-9 2.5q-12 9-31 18-38 17-75 17t-64-13q-10-5-16-15t-6-22q0-12 6-22t17-15v-1z"/></svg>