<svg viewBox="0 0 300 302.0011" xmlns="http://www.w3.org/2000/svg"><path d="M173 276h-71q-15 0-25.5-9.5T64 242L48 76h178l-1 11q0 5 3 9t9 5h1q5 0 8.5-3t3.5-8l1-14h12q5 0 8.5-3.5t3.5-9q0-5.5-3.5-9T263 51h-52q-4-22-21.5-36T150 1h-25q-22 0-39.5 14T64 51H13q-6 0-9.5 3.5t-3.5 9q0 5.5 3.5 9T13 76h10l16 168q3 25 20.5 41t42.5 16h71q5 0 9-3.5t4-9q0-5.5-4-9t-9-3.5zM125 26h25q12 0 21.5 7T185 51H90q4-11 13.5-18t21.5-7zm175 112q0 6-3.5 9.5T288 151h-75q-6 0-9.5-3.5t-3.5-9q0-5.5 3.5-9t8.5-3.5h76q5 0 8.5 3.5t3.5 8.5zm-25 63q0 5-3.5 9t-8.5 4h-50q-6 0-9.5-4t-3.5-9q0-5 3.5-9t8.5-4h51q5 0 8.5 4t3.5 9zm-25 62q0 6-3.5 9.5T238 276h-25q-6 0-9.5-3.5t-3.5-9q0-5.5 3.5-9t8.5-3.5h26q5 0 8.5 3.5t3.5 9.5v-1z"/></svg>