<svg viewBox="0 0 300 302.0011" xmlns="http://www.w3.org/2000/svg"><path d="M227 138q11 10 11 24l-1 13q0 5-4 9t-10 4l-19-2q-6 0-10-4t-4-10l-2-19q-37-17-76 0l-2 19q0 6-4 10t-10 4l-19 2q-6 0-10-4t-4-9l-1-13q0-14 11-24 16-16 47-21.5t61.5.5q30.5 6 45.5 21zm73-75v175q0 17-8.5 31.5t-23 23Q254 301 238 301H63q-17 0-31.5-8.5t-23-23Q0 255 0 238V63q0-16 8.5-30.5t23-23Q46 1 63 1h175q16 0 30.5 8.5t23 23Q300 47 300 64v-1zm-25 0q0-15-11-26t-27-11H63q-16 0-27 11T25 64v174q0 16 11 27t27 11h175q15 0 26-11t11-27V63z"/></svg>