<svg viewBox="0 0 300 302.0011" xmlns="http://www.w3.org/2000/svg"><path d="M266 139l17-12q5-4 4.5-11t-6.5-10L110 7Q92-3 72 3T42 27L31 47q-10 17-4 37t23 30l71 41-15 45q-4 12-14 19t-22 7H25v-38q0-5-3.5-8.5t-9-3.5q-5.5 0-9 3.5T0 188v100q0 6 3.5 9.5t9 3.5q5.5 0 9-3.5T25 288v-37h45q20 0 36.5-12t22.5-31l14-40 36 21q11 6 25 6 7 0 13.5-1.5T230 188l20 11q5 3 11 1.5t10-7.5l10-19q3-6 1.5-12t-7.5-9l-14-8q2-3 5-6zm-55 30q-11 3-20-2L63 92q-9-5-12-15t2-19l11-19q5-9 15-12 3-1 7-1 6 0 12 3l155 89-2 2q-8 6-13 15l-12 22q-5 10-15 12z"/></svg>