<svg viewBox="0 0 300 302.0011" xmlns="http://www.w3.org/2000/svg"><path d="M284 173l-24-24q-11-11-27-11h-70v-25h81q13 0 22-9t9-22V57q0-13-9-22t-22-9h-82l1-12q0-6-4-9.5T150 1q-5 0-8.5 3.5T138 13l-1 13H67q-16 0-27 11L16 61q-4 4-4 9t4 9l24 24q11 10 27 10h70v25H56q-13 1-22 10t-9 22v25q0 13 9 22t22 9h81v63q0 5 4 8.5t9 3.5q5 0 8.5-3.5t3.5-9.5v-62h71q16 0 27-11l24-24q4-4 4-9t-4-9zM58 85L43 70l15-15q3-4 9-4h177q2 0 4 2t2 4v25q0 3-2 5t-4 2H67q-6-1-9-4zm184 112q-3 4-9 4H56q-2 0-4-2t-2-4v-25q0-3 2-4.5t4-2.5h177q6 0 9 4l15 15-15 15z"/></svg>