<svg viewBox="0 0 300 302.0011" xmlns="http://www.w3.org/2000/svg"><path d="M13 101q-6 0-9.5-3.5T0 88V63q0-16 8.5-30.5t23-23Q46 1 63 1h25q5 0 8.5 3.5t3.5 9q0 5.5-3.5 9T88 26H63q-16 0-27 11T25 63v25q0 6-3.5 9.5T13 101zm87 187q0-5-3.5-8.5T88 276H63q-16 0-27-11t-11-27v-25q0-5-3.5-8.5t-9-3.5q-5.5 0-9 3.5T0 213v25q0 17 8.5 31.5t23 23Q46 301 63 301h25q5 0 8.5-3.5t3.5-9.5zm200-50v-25q0-5-3.5-8.5t-9-3.5q-5.5 0-9 3.5T275 213v25q0 16-11 27t-26 11h-25q-6 0-9.5 3.5t-3.5 9q0 5.5 3.5 9t9.5 3.5h25q16 0 30.5-8.5t23-23Q300 255 300 238zm-181-22l31-21 32 21q3 2 6.5 2t6.5-2.5q3-2.5 4-6t0-6.5l-12-34 28-22q2-3 3-6.5t0-7q-1-3.5-4-5.5t-7-2h-34l-12-32q-2-4-5-6t-6.5-2q-3.5 0-6.5 2t-4 6l-12 32H93q-4 0-7 2.5t-4 5.5q-1 3-.5 6.5T85 146l28 23-11 34q-1 4 0 7.5t4 5.5q3 2 6.5 2t6.5-2zM237 98l50-25q6-4 9.5-9.5T300 51q0-7-3.5-12.5T287 29L238 4q-6-3-13-3t-12.5 3.5q-5.5 3.5-9 9T200 26v50q0 7 3.5 12.5t9 9Q218 101 225 101t12-3zm39-47l-51 25V26l51 25z"/></svg>