<svg viewBox="0 0 300 302.0011" xmlns="http://www.w3.org/2000/svg"><path d="M150 1q-41 0-75.5 20T20 75.5Q0 110 0 151t20 75.5Q40 261 74.5 281t75.5 20q41 0 75.5-20t54.5-54.5q20-34.5 20-75.5t-20-75.5Q260 41 225.5 21T150 1zM53 72q10-12 23-21 43 8 86 23 60 21 110 51 3 13 3 26v6q-57-39-130-62-46-16-92-23zm-28 71q2-25 13-48 25 4 56 11-40 17-69 37zm233-55q-68-36-148-56 19-6 40-6 34 0 63 17t45 45zM150 276q-30 0-56.5-13.5t-44-37Q32 202 27 173q24-20 63-38-2 5-2 10 0 8 5 13.5t13 5.5q8 0 13.5-5.5t5.5-13q0-7.5-4-12.5t-11-7q13-4 24-8 24 7 45 16-4 5-4 12t5.5 12.5Q186 164 193 164t12.5-4.5Q211 155 212 149q32 16 59 35-8 26-25.5 47T203 264q-25 12-53 12zm61-56q-4 6-11 6-3 0-6-2h-1q-21-11-43-11-14 0-30 6-8 2-14 5-4 3-9 1.5t-7.5-6Q87 215 88 210t6-8q5-3 17-7 20-7 39-7t39 7q12 4 17 7t6.5 8q1.5 5-1.5 10z"/></svg>