<svg viewBox="0 0 300 302.0011" xmlns="http://www.w3.org/2000/svg"><path d="M290 19q-5-6-13.5-8.5T260 10l-5 1q-9 2-17 2-7 0-19.5-6T200 1q-6 0-20 5-20 7-30 7t-30-7q-14-5-20-5T81.5 7.5Q69 14 62 13q-8 0-17-2l-5-1q-8-2-16.5.5T9.5 19q-5.5 6-8 14.5T1 50l24 115v86q0 19 12.5 33t31 16.5q18.5 2.5 34.5-8t20-28.5h54q4 18 20 28.5t34.5 8q18.5-2.5 31-16.5t12.5-33v-86l24-114q2-9-.5-17T290 19zM28 37q3-4 7-3l5 1q12 4 24 3t24-6v81q0 6 3.5 9.5t8.5 3.5q5 0 8.5-3.5t3.5-8.5V30q18 8 38 8t37-8v83q1 6 4.5 9.5t8.5 3.5q5 0 9-3.5t4-8.5V32q11 5 23 6t24-3l5-1q4-1 7.5 2.5T275 45l-23 106H48L25 45q-1-5 3-8zm149 201h-54q-3-11-10.5-19.5t-18.5-13q-11-4.5-22.5-4T50 208v-32h200v32q-10-6-21.5-6.5t-22.5 4q-11 4.5-18.5 13T177 239v-1zM75 276q-10 0-17.5-7.5T50 251q0-10 7.5-17.5T75 226q10 0 17.5 7.5T100 251q0 10-7.5 17.5T75 276zm150 0q-10 0-17.5-7.5T200 251q0-10 7.5-17.5T225 226q10 0 17.5 7.5T250 251q0 10-7.5 17.5T225 276z"/></svg>