<svg viewBox="0 0 300 302.0011" xmlns="http://www.w3.org/2000/svg"><path d="M25 188q0 6 3.5 9.5T38 201h100q5 0 8.5 3.5t3.5 9q0 5.5-3.5 9T138 226H38q-16 0-27-11T0 188q0-12 7-21.5T25 153V63q0-16 8.5-30.5t23-23Q71 1 88 1h125q16 0 30.5 8.5t23 23Q275 47 275 63v13q0 5-3.5 8.5t-9 3.5q-5.5 0-9-3.5T250 76V63q0-15-11-26t-26-11H88q-16 0-27 11T50 63v88h56q5 0 9 4l9 8h14q5 0 8.5 4t3.5 9q0 5-3.5 8.5T138 188h-19q-5 0-9-3l-9-9H38q-6 0-9.5 3.5T25 188zm275-25v88q0 21-14.5 35.5T250 301h-25q-21 0-35.5-14.5T175 251v-88q0-20 14.5-35t35.5-15h25q21 0 35.5 15t14.5 35zm-25 0q0-10-7.5-17.5T250 138h-25q-10 0-17.5 7.5T200 163v88q0 10 7.5 17.5T225 276h25q10 0 17.5-7.5T275 251v-88z"/></svg>