<svg viewBox="0 0 300 302.0011" xmlns="http://www.w3.org/2000/svg"><path d="M206 76q-20 1-31.5 15.5T163 126q0 20 11.5 34.5t32 14.5q20.5 0 31.5-14.5t11-34.5q0-20-11-34.5T206 76zm0 75q-6 0-11.5-6t-7-14.5Q186 122 189 115q3 5 7.5 8t10 3q5.5 0 10-3t6.5-8q3 7 1.5 15.5T218 145q-5 6-12 6zm-68-25q-1-23-14-36T93.5 77q-17.5 0-30 13T51 126q0 23 12.5 36t30 13q17.5 0 30.5-13t14-36zm-63 0q0-5 2-11 2 5 6.5 8t10 3q5.5 0 10-3t7.5-8q4 13 0 22.5T98.5 150q-8.5 3-15.5-3t-8-21zm138 87q0 6-4 9.5t-9 3.5H100q-5 0-9-3.5t-4-9q0-5.5 4-9t9-3.5h100q5 0 9 3.5t4 8.5zM150 1q-41 0-75.5 20T20 75.5Q0 110 0 151q2 57 33 95 29 35 73 47.5t88 0q44-12.5 73-47.5 31-38 33-95 0-41-20-75.5T225.5 21Q191 1 150 1zm0 275q-34 0-62.5-17T42 213.5Q25 185 25 151q2-47 28-79 23-30 60-40t74 0q37 10 60 40 26 32 28 79 0 34-17 62.5T212.5 259Q184 276 150 276z"/></svg>