<svg viewBox="0 0 300 302.0011" xmlns="http://www.w3.org/2000/svg"><path d="M150 126q-17 0-31.5 8.5t-22.5 23q-8 14.5-8 31t8 31q8 14.5 22.5 23T150 251q17 0 31.5-8.5t22.5-23q8-14.5 8.5-31t-8-31q-8.5-14.5-23-23T150 126zm0 100q-16 0-27-11t-10.5-26.5q.5-15.5 11-26.5t26.5-11q16 0 26.5 11t11 26.5Q188 204 177 215t-27 11zm108-88q18-2 30-15t12-31q0-28-20.5-48.5T224 12Q189 1 150 1T76 12Q41 23 20.5 43.5T0 92q0 18 12 31t30 15l-26 48Q0 217 0 251q0 21 14.5 35.5T50 301h200q21 0 35.5-14.5T300 251q0-34-16-65l-26-48zM25 92q0-17 13-30 23-24 69-32 43-9 86 0 46 8 69 32 13 13 13 30 0 9-6.5 15t-15.5 6h-8l-10-16q-8-13-22-19-31-14-63-14T87 78q-14 6-22 19l-10 16h-8q-9 0-15.5-6T25 92zm225 184H50q-10 0-17.5-7.5T25 251q0-28 13-53l35-66 14-22q4-6 10-10 26-11 53-11.5t53 11.5q6 4 10 10l14 22 35 66q13 25 13 53 0 10-7.5 17.5T250 276z"/></svg>