<svg viewBox="0 0 300 302.0011" xmlns="http://www.w3.org/2000/svg"><path d="M125 138q5 0 9-3.5t4-8.5q0-5-4-9t-9-4h-12v-12q-1-5-4.5-9t-8.5-4q-5 0-8.5 4t-3.5 9v12H50v-12q0-5-3.5-9t-9-4q-5.5 0-9 4t-3.5 9v12H13q-6 0-9.5 4T0 126q0 5 3.5 9t9.5 4h12v37H13q-6 0-9.5 3.5t-3.5 9q0 5.5 3.5 9T13 201h12v12q0 6 3.5 9.5t9 3.5q5.5 0 9-3.5T50 213v-12h38v12q-1 6 3 9.5t9 3.5q5 0 8.5-3.5t3.5-9.5v-12h13q5 0 8.5-3.5t4-9q.5-5.5-3.5-9t-9-3.5h-12v-38h12zm-37 38H50v-38h38v38zm212 25q0 20-10 37.5T262.5 266Q245 276 225 276h-62q-6 0-9.5-3.5t-3.5-9q0-5.5 3.5-9t9.5-3.5h62q21 0 35.5-14.5T275 201q0-21-14.5-35.5T225 151h-37q-6 0-9.5-3.5t-3.5-9q0-5.5 3.5-9t9.5-3.5h32q16 0 27-11t11-26.5Q258 73 247 62t-27-11h-57q-6 0-9.5-3.5t-3.5-9q0-5.5 3.5-9T163 26h57q17 0 31.5 8.5t23 23Q283 72 283 89q0 13-6 25.5T261 135q18 10 28.5 27.5T300 201z"/></svg>