<svg viewBox="0 0 300 302.0011" xmlns="http://www.w3.org/2000/svg"><path d="M222 102l-41 110q-4 9-12 14.5t-18.5 5.5q-10.5 0-18.5-5t-12-14L79 102q-1-4 1-9t7-6.5q5-1.5 9.5.5t6.5 7l40 109q2 4 7.5 4t7.5-4l40-109q2-5 6.5-7t9.5-.5q5 1.5 7 6.5t1 9zm78 49q0 41-20 75.5T225.5 281q-34.5 20-75 20t-75-20q-34.5-20-55-54.5T0 151.5q0-40.5 20.5-75t55-55Q110 1 150.5 1t75 20.5Q260 42 280 76.5t20 74.5zm-25 0q0-34-16.5-62.5T213 43q-29-17-62.5-17T88 43Q59 60 42 88.5T25 151q0 34 17 63t46 45.5q29 16.5 62.5 16.5t62.5-16.5q29-16.5 45.5-45.5t16.5-63z"/></svg>