<svg viewBox="0 0 300 302.0011" xmlns="http://www.w3.org/2000/svg"><path d="M293 121q-4-4-10.5-6t-12.5-1l-8 2q-15-24-38-40.5T173 53q9-9 8.5-22T172 9.5Q163 1 150 1t-22 8.5q-9 8.5-9.5 21.5t8.5 22q-28 6-51 22.5T38 116l-8-2q-6-1-12.5 1t-11 6.5q-4.5 4.5-6 11T1 145l36 131q-5 1-8 4.5t-3 8.5q0 5 3.5 8.5T38 301h225q4 0 7.5-3.5t3.5-8.5q0-5-3-8.5t-8-4.5l36-131q2-7 .5-13t-6.5-11zM150 76q27 0 50.5 13.5T239 126q-15 9-25 23-11-17-28-26t-36-9q-19 0-36 9t-27 26q-11-14-25-23 14-23 37.5-36.5T150 76zm87 200H63L25 138q20 5 35 18.5T75 188q0 6 3.5 9.5t9 3.5q5.5 0 9-3.5t3.5-9.5q0-20 14.5-35t35.5-14.5q21 .5 35.5 15T200 188q0 6 3.5 9.5t9 3.5q5.5 0 9-3.5t3.5-9.5q0-18 15-32t35-18l-38 138z"/></svg>