<svg viewBox="0 0 300 302.0011" xmlns="http://www.w3.org/2000/svg"><path d="M192 151h8q5 0 9-4t4-9q0-5-4-8.5t-9-3.5h-8q-2-10-7-18l8-7q8 0 14-5.5t6-13.5q0-8-6-13.5T193.5 63q-7.5 0-13 6T175 83l-8 7q-8-5-17-7v-7q0-6-3.5-9.5t-9-3.5q-5.5 0-9 3.5T125 76v7q-9 2-17 7l-8-7q0-9-5.5-14.5T81 63q-8 0-13 5.5T62.5 82Q62 90 68 95.5t14 5.5l8 7q-5 8-7 18h-8q-5 0-8.5 3.5T63 138q0 5 3.5 9t8.5 4h8q2 9 7 17l-8 8q-8-1-14 5t-6 13.5q0 7.5 6 13t13.5 5.5q7.5 0 13-5.5T100 193l8-7q8 5 17 7v8q0 5 3.5 8.5t9 3.5q5.5 0 9-3.5t3.5-8.5v-8q9-2 17-7l8 7q0 9 5.5 14.5T194 213q8 0 13-5.5t5.5-13q.5-7.5-5.5-13.5t-14-5l-8-8q5-8 7-17zm-54 18q-13 0-22.5-9t-9.5-22q0-13 9.5-22t22-9q12.5 0 22 9t9.5 22q0 13-9.5 22t-21.5 9zM248 56q-23-31-57.5-45T118 2Q87 6 61.5 23.5t-42 44Q3 94 1 125q-3 26 4.5 51T28 221q10 12 10 30v12q0 16 11 27t26 11h88q15 0 26-11t11-27h6q24 0 41.5-15.5T268 209l3-21h4q12 0 18.5-7.5T300 163q0-12-20-51.5T248 56zm12 107q-5 0-8.5 3t-3.5 8l-5 31q-2 14-12.5 23.5T206 238h-18q-6 0-9.5 3.5T175 251v12q0 5-3.5 9t-8.5 4H75q-5 0-9-4t-3-9v-12q0-26-15-45-13-16-18.5-36.5T26 128q2-26 15-47.5t34-36Q96 30 122 27q8-1 16-1 26 0 49.5 11.5T228 71q11 15 28.5 49t18.5 43h-15z"/></svg>