<svg viewBox="0 0 300 302.0011" xmlns="http://www.w3.org/2000/svg"><path d="M200 213H100q-5 0-8.5-3.5T88 201q0-5 3.5-9t8.5-4h100q5 0 9 4t4 9q0 5-4 8.5t-9 3.5zM150 88q8 0 13.5-5t5.5-13q0-8-5.5-13.5T150 51q-8 0-13.5 5.5T131 70q0 8 5.5 13t13.5 5zM38 195q0-8-5.5-13.5T19 176q-8 0-13.5 5.5T0 195q0 8 5.5 13t13.5 5q8 0 13.5-5t5.5-13zm262 0q0-8-5.5-13.5T281 176q-8 0-13 5.5t-5 13.5q0 8 5 13t13 5q8 0 13.5-5t5.5-13zm-56-69q8 0 13.5-5.5T263 107q0-8-5.5-13.5T244 88q-8 0-13.5 5.5T225 107q0 8 5.5 13.5T244 126zm-188 0q8 0 13.5-5.5T75 107q0-8-5.5-13.5T56 88q-8 0-13 5.5T38 107q0 8 5 13.5t13 5.5z"/></svg>