<svg viewBox="0 0 300 302.0011" xmlns="http://www.w3.org/2000/svg"><path d="M238 1H100Q83 1 68.5 13.5t-23 34Q37 69 37 95v118q1 8-3.5 14.5T22 237q-10 4-16 12.5T0 268q0 14 9.5 23.5T33 301h105q16 0 30.5-8.5t23-23Q200 255 200 238v-25h38q17 0 31-14t22.5-38q8.5-24 8.5-53.5t-8.5-54Q283 29 269 15T237 1h1zm-63 237q0 16-11 27t-26 11H33q-3 0-5.5-2.5t-2.5-7q0-4.5 6-6.5 14-6 22.5-18.5T62 213V95q1-20 6.5-35.5t14-24.5q8.5-9 17.5-9h97q-10 15-16 36t-6 45v131zm63-50q-9 0-18-10.5t-14.5-29Q200 130 200 107t5.5-41.5Q211 47 220 36.5T237.5 26q8.5 0 17.5 10.5t14.5 29Q275 84 275 107t-5.5 41.5Q264 167 255 178t-18 10h1zm12-81q0 8-3.5 13.5t-9 5.5q-5.5 0-9-5.5T225 107q0-8 3.5-13.5t9-5.5q5.5 0 9 5.5T250 107z"/></svg>