<svg viewBox="0 0 300 302.0011" xmlns="http://www.w3.org/2000/svg"><path d="M163 27V13q0-5-4-8.5T150 1q-5 0-9 3.5t-4 8.5v14q-38 3-69 26t-45.5 59q-14.5 36-8 74T46 253q-10 5-15.5 14.5T25 289q0 5 3.5 8.5t9 3.5q5.5 0 9-3.5T50 288q0-6 4-10t10-5l2-1q25 19 54.5 25.5t59 0Q209 291 234 272l2 1q6 1 10 5t4 10q0 6 3.5 9.5t9 3.5q5.5 0 9-3.5t3.5-8.5q0-12-5.5-21.5T254 253q25-29 31.5-67t-8-74Q263 76 232 53t-70-26h1zM38 163q0-30 15-56t40.5-41Q119 51 150 51t56.5 15q25.5 15 41 41t15.5 56.5q0 30.5-15.5 56.5t-41 41Q181 276 150 276t-56.5-15Q68 246 53 220t-15-56v-1zM240 1q-5 0-8.5 3.5t-3.5 9q0 5.5 3.5 9T240 26q14-1 24.5 8T275 57q0 5 3.5 9t9 4q5.5 0 9-4t3.5-9q0-11-5-21.5T281.5 17q-8.5-8-19-12T240 1zM25 57q0-14 10.5-23T60 26q5 0 8.5-3.5t3.5-9q0-5.5-3.5-9T60 1Q48 1 37.5 5t-19 12Q10 25 5 35.5T0 57q0 5 3.5 9t9 4q5.5 0 9-4t3.5-9zm138 89V88q0-5-4-8.5t-9-3.5q-5 0-9 3.5t-4 8.5v63q1 5 4 9l38 37q3 4 8.5 4t9-3.5q3.5-3.5 3.5-9t-4-8.5l-33-34z"/></svg>