<svg viewBox="0 0 300 302.0011" xmlns="http://www.w3.org/2000/svg"><path d="M256 213q-18 0-30.5 13T213 257q0 18 12.5 31t30.5 13q18 0 31-13t13-31q0-18-13-31t-31-13zm0 63q-5 0-10-3t-7-8.5q-2-5.5-1-11t5-9.5q4-4 9.5-5t11 1q5.5 2 8.5 7t3 11.5q0 6.5-5.5 12T256 276zm43-245q-2-11-10-19T270 1.5q-11-2.5-21.5 2T231 18L97 220q-3 6-10 6t-10.5-6q-3.5-6 .5-12 5-9 5.5-19T78 170q-5-9-13.5-14.5T46 150q-10 0-19 5t-14 13Q1 188 .5 212t11 44.5Q23 277 43 289t44 12q10 0 20-2 17-4 31-14t23-25L294 60q8-13 5-29zM140 246q-9 14-23.5 21.5t-31 7.5Q69 275 55 266t-22-23.5Q25 228 25.5 212t8.5-31q4-6 11.5-6t11 6.5Q60 188 56 195q-9 13-5.5 27.5t16.5 23q13 8.5 28 5t23-16.5l60-91 21 14-59 89zM273 46l-60 90-21-13 60-91q3-5 8-6t9.5 2q4.5 3 5.5 8t-2 10z"/></svg>