<svg viewBox="0 0 300 302.0011" xmlns="http://www.w3.org/2000/svg"><path d="M63 301q-11 0-19-7l-25-23Q6 258 2 242t0-32q4-16 16-28 19-18 44.5-18t44.5 18q18 18 18 44t-18 44l-25 24q-8 7-19 7zm0-113q-16 0-27 11t-11 27q0 16 11 27l25 22q2 2 4 0l24-23q11-10 11-26t-11-27q-11-11-27-11h1zm175-49q-11 0-19-8l-25-23q-13-12-17-28t0-32.5Q181 31 193 19q19-18 44.5-18T282 19q12 12 16 28.5t0 32.5q-4 16-16 28l-25 23q-8 8-19 8zm0-113q-16 0-27 11t-11 26.5Q200 79 211 90l25 23q2 2 4 0l24-23q11-11 11-26.5T264 37q-11-11-27-11h1zm62 225q0-21-14.5-35.5T250 201h-62q-11 0-18.5-7.5T162 176q0-8 5-14.5t12-9.5q5-1 7.5-6t.5-9.5q-2-4.5-6.5-7t-9.5-.5q-15 5-24.5 18t-9.5 29q0 21 15 35.5t36 14.5h62q10 0 17.5 7.5T275 251q0 10-7.5 17.5T250 276H138q-6 0-9.5 3.5t-3.5 9q0 5.5 3.5 9t8.5 3.5h113q21 0 35.5-14.5T300 251z"/></svg>