<svg viewBox="0 0 300 302.0011" xmlns="http://www.w3.org/2000/svg"><path d="M300 51q0-21-14.5-35.5T250 1q-21 0-35.5 14.5T200 51q0 17 10.5 30.5T237 99v2q1 16-10 26.5T200 138h-12q-11 0-21 5t-17 12q-7-7-17-12t-20-5h-13q-16 1-27-10t-11-27v-2q17-4 27.5-17.5T100 51q0-21-14.5-35.5T50 1Q29 1 14.5 15.5T0 51q0 17 10.5 30.5T38 99v2q-1 17 7.5 31.5t23 22.5q14.5 8 31.5 8h13q10 0 17.5 7.5T138 188v15q-17 4-27.5 17.5T100 251q0 21 14.5 35.5T150 301q21 0 35.5-14.5T200 251q0-17-10.5-30.5T163 203v-14q0-11 7-18t17-7h13q17 0 31.5-8.5t22.5-23q8-14.5 8-31.5v-2q17-4 27.5-17.5T300 51zM25 51q0-10 7.5-17.5T50 26q10 0 17.5 7.5T75 51q0 10-7.5 17.5T50 76q-10 0-17.5-7.5T25 51zm150 200q0 10-7.5 17.5T150 276q-10 0-17.5-7.5T125 251q0-10 7.5-17.5T150 226q10 0 17.5 7.5T175 251zm75-175q-10 0-17.5-7.5T225 51q0-10 7.5-17.5T250 26q10 0 17.5 7.5T275 51q0 10-7.5 17.5T250 76z"/></svg>