<svg viewBox="0 0 300 302.0011" xmlns="http://www.w3.org/2000/svg"><path d="M175 238q0 11-7.5 18t-17.5 7q-10 0-17.5-7t-7.5-17.5q0-10.5 7.5-18T150 213q10 0 17.5 7.5T175 238zM17 89q-7 6-14 13-3 4-3 9.5t3.5 8.5q3.5 3 9 3t9.5-4l11-11q4-3 4.5-8.5t-3-9q-3.5-3.5-9-4T17 89zm63 61q-8 6-14 13-4 3-3.5 8.5t4 9q3.5 3.5 9 3.5t8.5-4q5-6 10-10t5.5-9q.5-5-2.5-9t-8-4.5q-5-.5-9 2.5zm90 3q27 6 46 26 3 4 8.5 4t9-3q3.5-3 3.5-8.5t-3-9.5q-17-18-41-27.5t-49-8.5h-1L91 74q28-11 59-11 36 0 70 15t58 41q4 4 9 4t9-3q4-3 4-8.5t-3-9.5q-29-30-67-47t-79.5-17Q109 38 71 55L21 5q-3-4-8.5-4t-9 3.5Q0 8 0 13.5T4 22l275 275q3 4 8.5 4t9-3.5q3.5-3.5 3.5-9t-4-8.5L170 153z"/></svg>