<svg viewBox="0 0 300 302.0011" xmlns="http://www.w3.org/2000/svg"><path d="M125 288q0 6-3.5 9.5T113 301H63q-17 0-31.5-8.5t-23-23Q0 255 0 238V88q0-16 8.5-30.5t23-23Q46 26 63 26h2q4-11 13.5-18T100 1h25q12 0 21.5 7T160 26h3q16 0 30.5 8.5t23 23Q225 72 225 89v37q0 5-3.5 8.5t-9 3.5q-5.5 0-9-3.5T200 126V88q0-15-11-26t-26-11h-13q-5 0-8.5-3.5t-3.5-9q0-5.5-4-9t-9-3.5h-25q-5 0-8.5 3.5t-3.5 9q0 5.5-4 9T75 51H63q-16 0-27 11T25 88v150q0 16 11 27t27 11h50q5 0 8.5 3.5t3.5 8.5zM110 85l-28 28q-2 2-3 0l-14-13q-4-3-9-3t-8.5 4q-3.5 4-3.5 9t4 9l14 12q8 8 19 8t19-9l28-27q3-4 3-9t-3.5-9q-3.5-4-8.5-4t-9 4zm0 76l-28 28q-2 2-3 0l-14-13q-4-3-9-3t-8.5 4q-3.5 4-3.5 9t4 9l14 12q8 8 19 8t19-9l28-27q3-4 3-9t-3.5-9q-3.5-4-8.5-4t-9 4zm190 46v50q0 18-13 31t-31 13h-62q-18 0-31-13t-13-31v-50q0-18 13-31t31-13h62q18 0 31 13t13 31zm-25 0q0-8-5.5-13t-13.5-5h-62q-8-1-13.5 4.5T175 207v50q0 8 5.5 13.5T194 276h62q8 0 13.5-5.5T275 257v-50zm-37 6h-25q-6 1-9.5 4.5T200 226q0 5 3.5 8.5t8.5 3.5h26q5 1 8.5-3t3.5-9q0-5-3.5-9t-8.5-4zm-63-87q0-5-3.5-8.5T163 114h-19q-5-1-9 3t-4 9q0 5 4 8.5t9 3.5h19q5 0 8.5-3.5t3.5-8.5z"/></svg>