<svg viewBox="0 0 300 302.0011" xmlns="http://www.w3.org/2000/svg"><path d="M138 113v113q0 5-4 8.5t-9 3.5q-5 0-8.5-3.5T113 226V113q0-5 3.5-8.5t8.5-3.5q5 0 9 3.5t4 8.5zm162-50v175q0 17-8.5 31.5t-23 23Q254 301 238 301H63q-17 0-31.5-8.5t-23-23Q0 255 0 238V63q0-16 8.5-30.5t23-23Q46 1 63 1h175q16 0 30.5 8.5t23 23Q300 47 300 63zm-25 0q0-15-11-26t-26-11H63q-16 0-27 11T25 63v175q0 16 11 27t27 11h175q15 0 26-11t11-27V63zM75 138q-5 0-8.5 4t-3.5 9v75q0 5 3.5 8.5T75 238q5 0 9-3.5t4-8.5v-75q0-5-4-9t-9-4zm100-75q-5 0-8.5 4t-3.5 9v150q0 5 3.5 8.5t8.5 3.5q5 0 9-3.5t4-8.5V76q0-5-4-9t-9-4zm50 113q-5 0-8.5 3.5T213 188v38q0 5 3.5 8.5t8.5 3.5q5 0 9-3.5t4-8.5v-38q0-5-4-8.5t-9-3.5z"/></svg>