<svg viewBox="0 0 300 302.0011" xmlns="http://www.w3.org/2000/svg"><path d="M225 301q-5 0-9-3.5t-4-8.5v-13q1-5 4.5-9t8.5-4q5 0 9 4t3 9v12q1 6-3 9.5t-9 3.5zm-75 0q-5 0-9-3.5t-4-8.5v-13q1-5 4.5-9t8.5-4q5 0 9 4t4 9v12q0 6-4 9.5t-9 3.5zm-75 0q-5 0-8.5-3.5T63 289v-13q0-5 3.5-9t8.5-4q5 0 8.5 4t3.5 9v12q1 6-3 9.5t-9 3.5zm-12-50h-2q-20-3-35.5-16T4 203q-6-19-1-38.5T22 131q6-4 5-11-4-18-1-36 6-31 27.5-53.5T106 3q34-7 64.5 8.5T215 58q3 6 10 7 30 7 50.5 29.5t23.5 53q3 30.5-12.5 57T243 243q-5 2-10 .5t-7-6.5q-2-5 0-10t7-7q20-8 31.5-27.5t9.5-42q-2-22.5-17-39.5t-37-21q-9-2-16-7.5T193 69q-11-22-32.5-34T115 26.5Q91 30 73 47T51 88q-2 14 0 27 2 10-1 19t-11 16q-9 9-12 21t.5 24.5Q31 208 41 216t23 10q5 0 8 4t3 9q0 5-4 8.5t-8 3.5zm125-25q-6 0-9.5-3.5T175 213v-12q0-5 3.5-8.5t9-4q5.5-.5 9 3.5t3.5 9v12q0 6-3.5 9.5T188 226zm-75 0q-6 0-9.5-3.5T100 213v-12q0-5 3.5-8.5t9-3.5q5.5 0 9 3.5t3.5 8.5v12q0 6-3.5 9.5T112 226h1z"/></svg>