<svg viewBox="0 0 300 302.0011" xmlns="http://www.w3.org/2000/svg"><path d="M238 126H88V88h18q18 0 31-12.5T150 45q0-18-13-31T106 1H44Q26 1 13 14T0 45q0 18 13 30.5T44 88h19v38q-17 0-31.5 8.5t-23 23Q0 172 0 189v49q0 17 8.5 31.5t23 23Q46 301 63 301h175q16 0 30.5-8.5t23-23Q300 255 300 238v-50q0-16-8.5-30.5t-23-23Q254 126 237 126h1zM25 45q0-8 5.5-13.5T44 26h62q8 0 13.5 5.5T125 45q0 8-5.5 13T106 63H44q-8 0-13.5-5T25 45zm38 106h175q15 0 26 11t11 26v38H25v-38q0-15 11-26t27-11zm175 125H63q-13 0-22.5-7T27 251h246q-4 11-13.5 18t-21.5 7zm-125-88q0-5 3.5-8.5t8.5-3.5q5 0 8.5 3.5t4 9q.5 5.5-3.5 9t-9 3.5q-5 0-8.5-3.5T113 189v-1zm-50 0q0-5 3.5-8.5T75 176q5 0 9 3.5t4 9q0 5.5-4 9t-9 3.5q-5 0-8.5-3.5T63 189v-1zm100 0q0-5 3.5-8.5t8.5-3.5q5 0 9 3.5t4 9q0 5.5-4 9t-9 3.5q-5 0-8.5-3.5T163 189v-1zm50 0q0-5 3.5-8.5t8.5-3.5q5 0 8.5 3.5t3.5 9q0 5.5-3.5 9T225 201q-5 0-8.5-3.5T213 189v-1z"/></svg>