<svg viewBox="0 0 300 302.0011" xmlns="http://www.w3.org/2000/svg"><path d="M50 188v88q0 5-3.5 8.5t-9 3.5q-5.5 0-9-3.5T25 276v-88q0-5 3.5-8.5t9-3.5q5.5 0 9 3.5T50 188zm175-12q-5 0-8.5 3.5T213 188v88q0 5 3.5 9t8.5 3.5q5-.5 8.5-4t3.5-8.5v-88q0-5-3.5-8.5T225 176zm-100 0q-5 0-8.5 3.5T113 188v88q0 5 3.5 9t8.5 3.5q5-.5 8.5-4t3.5-8.5v-88q1-5-3-8.5t-9-3.5zm-44 0q-8 0-13.5 5.5T62 195v75q1 8 6 13t13 5q8 0 13.5-5t5.5-13v-75q0-8-5.5-13.5T81 176zm100 0q-8 0-13 5.5t-5 13.5v75q-1 8 4.5 13t13.5 5q8 0 13.5-5t5.5-13v-75q0-8-5.5-13.5T181 176zm82 0q-6 0-9.5 3.5T250 188v88q0 5 3.5 9t9 4q5.5 0 9-4t3.5-9v-88q0-5-3.5-8.5T262 176h1zm25-50h-13V26q0-5-3.5-9t-9-4q-5.5 0-9 4t-3.5 9v100h-12V26q0-5-4-9t-9-4q-5 0-8.5 4t-3.5 9v100h-13V32q0-8-5.5-13T181 13.5q-8-.5-13 5T163 32v94h-25V26q0-5-4-9t-9-4q-5 0-8.5 4t-3.5 9v100h-13V32q0-8-5.5-13T81 13.5q-8-.5-13.5 5T62 32v94H50V26q0-5-3.5-9t-9-4q-5.5 0-9 4T25 26v100H13q-6 0-9.5 3.5t-3.5 9q0 5.5 3.5 9T13 151h275q5 0 8.5-3.5t3.5-9q0-5.5-3.5-9T287 126h1z"/></svg>