<svg viewBox="0 0 300 302.0011" xmlns="http://www.w3.org/2000/svg"><path d="M100 26H63q-6 0-9.5 3.5T50 39v249q0 6-3.5 9.5t-9 3.5q-5.5 0-9-3.5T25 288V38q0-15 11-26T63 1h37q27 0 50 13.5T186.5 51Q200 74 200 101v112q0 6-3.5 9.5t-9 3.5q-5.5 0-9-3.5T175 213V101q0-20-10-37.5T137.5 36Q120 26 100 26zM263 1q-6 0-9.5 3.5T250 13v188q0 20-10 37.5T212.5 266Q195 276 175 276h-37q-6 0-9.5-3.5T125 263V88q0-5-3.5-8.5t-9-3.5q-5.5 0-9 3.5T100 88v175q0 16 11 27t26 11h38q27 0 50-13.5t36.5-36.5q13.5-23 13.5-50V13q0-5-3.5-8.5T263 1z"/></svg>