<svg viewBox="0 0 300 302.0011" xmlns="http://www.w3.org/2000/svg"><path d="M181 88q-18 0-31 13-10-9-23-11.5t-25.5 3Q89 98 82 109.5T75 135q0 25 31 58 17 17 37 31 3 2 7 2t7-2q20-14 37-31 31-33 31-58 0-19-12.5-32.5T181 89v-1zm-31 110q-19-15-33-31-17-19-17-32 0-9 5-14.5t13-6.5q8-1 13.5 3.5T138 132v6q0 6 3.5 9.5t8.5 3.5q5 0 9-3.5t4-8.5v-7q0-10 5.5-14.5T182 114q8 1 13 6.5t5 14.5q0 13-17 32-14 16-33 31zM160 1q-32-2-62.5 9.5T44 45Q21 68 9.5 98.5T0 162q3 39 25.5 71T84 283q36 18 80 18h74q16 0 30.5-8.5t23-23Q300 255 300 239v-84q0-39-18-73t-50-55.5Q200 5 160 1zm115 237q0 16-11 27t-27 11h-73q-38 0-68.5-15t-49-41.5Q28 193 25 160q-2-27 7.5-52.5t29-45q19.5-19.5 45-29T159 26q33 3 59.5 21t42 46.5Q276 122 275 155v83z"/></svg>