<svg viewBox="0 0 300 302.0011" xmlns="http://www.w3.org/2000/svg"><path d="M263 113h-22l46-37q13-13 13-31t-12.5-31Q275 1 256.5 1T225 15l-82 98H38q-9 0-16.5 4t-13 10.5Q3 134 1 142.5T1 160q6 25 22.5 48.5T64 249q4 2 7.5 6.5t3.5 9q0 4.5-3.5 8t-9 3.5-9 3.5q-3.5 3.5-3.5 9t3.5 9Q57 301 63 301h175q5 0 8.5-3.5t3.5-9q0-5.5-3.5-9t-9-3.5-9-3.5q-3.5-3.5-3.5-8t3.5-9q3.5-4.5 7.5-6.5 24-17 40.5-40.5T299 160q2-9 0-17.5t-7.5-15q-5.5-6.5-13-10.5t-15.5-4zm-20-82q5-5 13-5t13.5 5.5q5.5 5.5 5.5 13T270 57l-68 56h-27l68-82zm-41 245H98q2-6 2-12.5T97 251h106q-3 6-3 12.5t2 12.5zm73-122q-5 20-18 39t-32 33H75q-19-14-32-33t-18-39q-1-6 3-11t9-4h226q5-1 9 4t3 11z"/></svg>