<svg viewBox="0 0 300 302.0011" xmlns="http://www.w3.org/2000/svg"><path d="M238 126q22 0 39-14t21.5-36q4.5-22-6-42t-31-28.5q-20.5-8.5-42-2t-34 25Q173 47 175 69.5t18 38.5q9 9 20.5 13.5T237 126h1zm26-36q-8 8-20 10t-23-3l50-50q5 11 3 23t-10 20zm-53-53q8-8 20-10t23 3l-50 50q-5-11-3-23t10-20zm89 114v87q0 17-8.5 31.5t-23 23Q254 301 237 301H63q-17 0-31.5-8.5t-23-23Q0 255 0 239V101q0-17 8.5-31.5t23-22.5Q46 39 62 38h76q5 0 8.5 4t3.5 9q0 5-3.5 9t-8.5 4H63q-11 0-20 5T30 83l93 94q11 11 27 11t27-11l23-22q4-4 9-4t8.5 3.5q3.5 3.5 3.5 9t-4 8.5l-23 23q-12 12-28 16.5t-32 0q-16-4.5-28-16.5l-81-81v124q0 16 11 27t26 11h176q15 0 26-11t11-27v-87q0-5 3.5-9t9-4q5.5 0 9 4t3.5 9z"/></svg>