<svg viewBox="0 0 300 302.0011" xmlns="http://www.w3.org/2000/svg"><path d="M289 60l-50-49q-6-7-15.5-9t-19 1Q195 6 189 13t-8 17q-2 10-9.5 18T154 57q-14 2-24 11.5T118 92q-1 11-8.5 18.5T91 119q-14 2-23.5 12T56 155q-1 10-9 18t-18 9q-10 1-17 7T2 204.5q-3 9.5-1 19t9 16.5l50 50q11 12 27.5 11t30.5-12q17-4 30.5-16.5T164 241q1-5 4.5-9t9.5-5q19-2 32.5-15.5T226 179q1-6 5-9.5t9-4.5q18-2 31.5-15t16.5-30q1-4 3-7 10-11 9-26.5T289 60zM26 212q1-5 6-5 19-3 32.5-16.5T81 158q1-5 4.5-9t8.5-5q19-2 33-16t16-33q1-5 5-8.5t9-4.5q19-3 32.5-16.5T206 33q1-6 6.5-7t9.5 3l16 16q-6 4-10 11-2 4-4.5 12.5T220 80q-3 6-6 10-8 7-19 9-13 2-23 11.5T160 134q-1 11-8.5 18.5T133 161q-14 2-23.5 12T98 196q-2 11-9 19-4 3-10 6-3 1-11.5 3.5T55 229q-7 4-11 10l-16-16q-5-5-2-11zM271 98q-4 7-7 14-1 11-8.5 19t-18.5 9q-14 2-23.5 12T202 175q-2 11-9.5 18.5T174 203q-13 2-23 11.5T139 238q-1 10-9 18-4 4-16 8t-17 8q-8 7-16 2-5-2-13-11l-6-6q4-7 12-8 19-3 32.5-16.5T123 200q0-6 4-9.5t9-4.5q19-2 33-16t16-33q1-5 4.5-9t9.5-4q19-3 32.5-16.5T247 75q2-8 9-12l6 6q9 8 11 13 5 8-2 16z"/></svg>