<svg viewBox="0 0 300 302.0011" xmlns="http://www.w3.org/2000/svg"><path d="M200 151v-38q0-5-3.5-8.5T188 101h-38q-21 0-35.5 14.5T100 151v37q0 6 3.5 9.5t9.5 3.5h37q21 0 35.5-14.5T200 151zm-25 0q0 10-7.5 17.5T150 176h-25v-25q0-10 7.5-17.5T150 126h25v25zM113 26H88q-6 0-9.5-3.5t-3.5-9q0-5.5 3.5-9T88 1h25q5 0 8.5 3.5t3.5 9q0 5.5-3.5 9T113 26zM0 113V88q0-5 3.5-8.5t9-3.5q5.5 0 9 3.5T25 88v25q0 6-3.5 9.5t-9 3.5q-5.5 0-9-3.5T0 113zm3-79q4-10 12-18T33 4q5-2 10 .5t6.5 7Q51 16 49 21t-7 6q-12 5-15 16-2 4-5 6t-6 2q-3 0-5-1-5-1-7.5-6T3 34zm222 254q0 6-3.5 9.5T213 301h-25q-6 0-9.5-3.5t-3.5-9q0-5.5 3.5-9t9.5-3.5h25q5 0 8.5 3.5t3.5 8.5zm75-100v25q0 6-3.5 9.5t-9 3.5q-5.5 0-9-3.5T275 213v-25q0-5 3.5-8.5t9-3.5q5.5 0 9 3.5t3.5 8.5zm-3 80q-4 10-12 18t-18 12q-2 1-5 1t-6.5-2.5q-3.5-2.5-5-6.5t1-9q2.5-5 6.5-7 12-4 16-15 1-5 6-7t9.5-.5q4.5 1.5 7 6.5t.5 10zm-47-142h-12q-6 0-9.5-3.5t-3.5-9q0-5.5 3.5-9t9.5-3.5h12q16 0 29 9t18 24q2 5-.5 10t-6.5 6q-3 1-6 1t-6-2q-3-2-4-6-3-8-9.5-12.5T250 126zM75 188q0 6-3.5 9.5T63 201H50q-16 0-29-9T3 168q-2-5 .5-10t7-6.5q4.5-1.5 9.5.5t7 7q2 8 8.5 12.5T50 176h13q5 0 8.5 3.5T75 188zm74 102q-1 4-4.5 6.5T138 299q-3 0-5-1-15-5-24-18t-9-29v-13q0-5 3.5-8.5t9-3.5q5.5 0 9 3.5t3.5 9.5v12q0 8 4.5 14.5T142 275q4 1 6.5 6t.5 10v-1zm2-279q1-4 6-6.5t10-.5q15 5 24 18t9 29v12q0 6-3.5 9.5t-9 3.5q-5.5 0-9-3.5T175 63V51q0-8-4.5-14.5T158 27q-4-1-6.5-6t-.5-10z"/></svg>