<svg viewBox="0 0 300 302.0011" xmlns="http://www.w3.org/2000/svg"><path d="M238 26H63q-17 0-31.5 8.5t-23 23Q0 72 0 88v125q0 17 8.5 31.5t23 23Q46 276 63 276h175q16 0 30.5-8.5t23-23Q300 230 300 213V88q0-16-8.5-30.5t-23-23Q254 26 238 26zM107 251q6-11 18-18t25-7q13 0 25 7t18 18h-86zm168-38q0 16-11 27t-26 11h-17q-8-22-27.5-36T150 201q-24 0-43.5 14T79 251H63q-16 0-27-11t-11-27V88q0-15 11-26t27-11h175q15 0 26 11t11 26v125zM150 76q-21 0-35.5 14.5T100 126q0 21 14.5 35.5T150 176q21 0 35.5-14.5T200 126q0-21-14.5-35.5T150 76zm0 75q-10 0-17.5-7.5T125 126q0-10 7.5-17.5T150 101q10 0 17.5 7.5T175 126q0 10-7.5 17.5T150 151z"/></svg>