<svg viewBox="0 0 300 302.0011" xmlns="http://www.w3.org/2000/svg"><path d="M300 188q0 12-8 21l-26 26q-4 3-9 3.5t-9-3.5q-4-4-4-9t4-9l16-16h-76q-6 0-9.5-3.5t-3.5-9q0-5.5 3.5-9t8.5-3.5h77l-16-16q-4-4-4-9t4-9q4-4 9-4t9 4l26 26q8 9 8 21v-1zM81 138q-8 0-13 5.5T63 157q0 8 5 13.5t13 5.5q8 0 13.5-5.5T100 157q0-8-5.5-13.5T81 138zm119 100v25q0 16-11 27t-26 11H38q-16 0-27-11T0 263V71q0-22 14-39.5T50 10l40-8q11-2 22 .5t20 9.5q6 6 11 14h7q21 0 35.5 14.5T200 76v62q0 6-3.5 9.5t-9 3.5q-5.5 0-9-3.5T175 139V76q0-10-7.5-17.5T150 51v225h13q5 0 8.5-3.5t3.5-9.5v-25q0-5 3.5-8.5t9-3.5q5.5 0 9 3.5t3.5 8.5zM125 51q0-12-9-19-7-6-16-6l-5 1-40 7q-13 3-21.5 13.5T25 71v192q0 6 3.5 9.5T37 276h88V51z"/></svg>