<svg viewBox="0 0 300 302.0011" xmlns="http://www.w3.org/2000/svg"><path d="M150 301q-21 0-35.5-14.5T100 251v-50H50q-21 0-35.5-14.5T0 151q0-21 14.5-35.5T50 101h50V51q0-21 14.5-35.5T150 1q21 0 35.5 14.5T200 51v50h50q21 0 35.5 14.5T300 151q0 21-14.5 35.5T250 201h-50v50q0 21-14.5 35.5T150 301zM50 126q-10 0-17.5 7.5T25 151q0 10 7.5 17.5T50 176h63q5 0 8.5 3.5t3.5 9.5v62q0 10 7.5 17.5T150 276q10 0 17.5-7.5T175 251v-63q0-5 3.5-8.5t8.5-3.5h63q10 0 17.5-7.5T275 151q0-10-7.5-17.5T250 126h-62q-6 0-9.5-3.5T175 114V51q0-10-7.5-17.5T150 26q-10 0-17.5 7.5T125 51v62q0 6-3.5 9.5T112 126H50z"/></svg>