<svg viewBox="0 0 300 302.0011" xmlns="http://www.w3.org/2000/svg"><path d="M163 178V63q0-5-4-8.5t-9-3.5q-5 0-9 3.5t-4 9.5v114q-11 4-17.5 13.5T113 214q0 15 10.5 26t26.5 11q16 0 26.5-11t10.5-27q1-12-6-21.5T162 178h1zm-13 48q-5 0-8.5-3.5t-3.5-9q0-5.5 3.5-9t8.5-3.5q5 0 8.5 3.5t4 9q.5 5.5-3.5 9t-9 3.5zm63-74V63q0-16-8.5-30.5t-23-23Q167 1 150 1t-31.5 8.5Q104 18 96 32.5T88 64v88q-12 13-18.5 28.5T63 214q-1 23 11 43t32 32q20 12 44 12t44-12q20-12 31.5-32t11.5-44q1-17-6-32.5T212 152h1zm-63 124q-17 0-31.5-8.5t-22.5-23Q88 230 88 214q0-14 5-26t15-21q5-4 5-9V63q0-15 10.5-26T150 26q16 0 26.5 11T187 63v95q1 5 5 9 10 9 15 21t5 25q1 17-7.5 31.5t-23 23Q167 276 150 276z"/></svg>