<svg viewBox="0 0 300.0263 302.0011" xmlns="http://www.w3.org/2000/svg"><path d="M290 301q-5 1-9-2t-6-8q-3-13-13.5-20t-24-7q-13.5 0-24 7T200 292q-2 7-9 9t-12-3.5q-5-5.5-4-12.5 6-22 23.5-34t39.5-12q22 0 39 12t23 35q1 5-2 9t-8 6zm-179-59q3 9-1 18.5t-13.5 13q-9.5 3.5-19 0T64 260l-1-2q-16 1-30-7.5T13 227l-7-16q-7-21-6-43l2-66q2-16 12-29.5T40 53l89-35q15-6 32-4t30 13l48 43q17 15 26 37l6 16q6 15 2.5 30T259 179l1 2q4 9 0 18.5T246.5 213q-9.5 4-19 .5T214 200l-103 42zM26 105l-1 63 198-79-48-43q-8-6-18-7t-19 2L49 76q-9 4-15 11.5T26 105zm43 126l165-66q10-3 14-12.5t0-19.5l-10-23-22 9 4 12q2 5 0 9.5t-6.5 6.5q-4.5 2-9.5 0t-7-7l-5-12-119 48 5 11q2 5-.5 9.5t-7 6.5q-4.5 2-9 0t-6.5-6l-5-12-22 9q0 4 2 7l6 17q4 9 13.5 13t19.5 0z"/></svg>