<svg viewBox="0 0 300 302.0011" xmlns="http://www.w3.org/2000/svg"><path d="M296 30q-3-4-8.5-4t-8.5 4l-60 59-4-4q-16-16-39-17.5T135 79q-26 20-57 31l-26 7q-13 4-23 12.5T13 150q-6 12-6.5 25t4.5 25q19 46 60.5 74t91.5 27h11q4 0 7-2 34-22 56-55t28-73q3-15-2-29.5T247 117l-10-10 59-60q4-3 4-8.5t-4-8.5zM170 276h-7q-28 0-54-11 33-17 54-47l7-10q3-4 2-9t-5.5-8q-4.5-3-9.5-2t-8 5l-7 9q-17 26-44 40l-16 7q-19-13-32-32 31-10 54-33 4-4 4-9t-3.5-9q-3.5-4-9-4t-8.5 4q-22 21-50 29l-2-5q-7-15 .5-30T59 141l26-7q23-7 43-20l99 96q-20 40-57 66zm70-109q-1 9-4 18l-87-85q10-7 22-7 15 0 26 10l32 32q7 6 10 14.5t1 17.5z"/></svg>