<svg viewBox="0 0 300 302.0011" xmlns="http://www.w3.org/2000/svg"><path d="M296 269q-12-12-18.5-27.5T271 209V102q0-5-3.5-9t-8.5-4q-5 0-9 4t-4 9v49h-37q0-13-8-23t-20-13l-29-65q-6-15-20-24t-30.5-10Q85 15 74 24.5T62 52v25q-21 0-35.5 14.5T12 126v62Q2 201 .5 217.5t5 32Q12 265 26 274q16 12 36 13h98q17-1 31-9.5t22.5-22.5q8.5-14 7.5-31 0-20-12-36v-12h37v33q0 22 8.5 42t23.5 36q4 4 9 4t9-3q4-3 4-8.5t-3-8.5l-1-2zM99 40q9 0 17.5 5.5T129 60l24 54H99q-5 0-9-3.5t-4-8.5V52q0-5 3.5-8.5T99 40zm-55 69q7-7 18-7 0 15 10.5 26T99 139h73q5 0 9 3.5t4 8.5v17q-12-5-25-5H62q-13 0-25 5v-42q0-10 7-17zm116 153H62q-16 0-26.5-11T25 225q0-15 10.5-26T62 188h98q15 0 26 11t11 26q0 15-11 26t-26 11zm-86-37q0 5-3.5 8.5t-9 3.5q-5.5 0-9-3.5T49 225q0-5 3.5-8.5t9-3.5q5.5 0 9 3.5T74 225zm98 0q0 5-3.5 8.5T160 237q-5 0-8.5-3.5T148 225q0-5 3.5-8.5t8.5-3.5q5 0 8.5 3.5t3.5 8.5zm-49 0q0 5-3.5 8.5T111 237q-5 0-8.5-3.5T99 225q0-5 3.5-8.5t8.5-3.5q5 0 8.5 3.5t3.5 8.5z"/></svg>