<svg viewBox="0 0 300 302.0011" xmlns="http://www.w3.org/2000/svg"><path d="M225 26q-16 0-30 9.5T172 64q-10 21-10 49 1 15 7 32 4 10 14 30 8 18 12 26 5 14 5 25v31q0 18 13 31t31 13q18 0 31-13t13-31v-31q0-11 1-22 1-7 4-19 4-13 5-20 2-13 2-27 0-42-15-70-12-22-31-33-15-9-29-9zm38 231q0 8-5.5 13.5T244 276q-8 0-13.5-5.5T225 257v-19h38v19zm6-78q-5 21-6 35h-39q-2-12-8-26-3-8-11-24-9-18-12-26-6-14-6-25 0-29 11.5-45.5T225 51q5 0 13 4 15 7 24 23 13 23 13 60 0 12-2 23-1 6-4 18zM75 1q-14 0-29 9-19 11-31 33Q0 71 0 113q0 14 2 27 1 7 5 20 3 12 4 19 2 11 2 22v31q0 18 12.5 31T56 276q18 0 31-13t13-31v-31q0-11 5-25 4-8 12-26 10-20 14-30 6-17 7-31 0-29-10-50-9-19-23-28.5T75 1zm0 231q0 8-5.5 13.5T56 251q-8 0-13-5.5T38 232v-19h37v19zm20-93q-8 16-11 24-6 14-8 25H37q-1-13-6-34-3-12-4-18-2-11-2-23 0-37 13-60 9-16 24-23 8-4 13-4 15 0 26 16.5T112 88q1 11-5 25-3 8-12 26z"/></svg>