<svg viewBox="0 0 300 302.0011" xmlns="http://www.w3.org/2000/svg"><path d="M285 199q2 7 2 14 1 21-14 35.5T237.5 263q-20.5 0-35.5-14.5T187 213l1-1-38-11-38 11 1 1q0 21-15 35.5T62.5 263q-20.5 0-35-14.5T13 213q-1-7 2-14-15-15-15-35.5T14.5 128Q29 113 50 113q14 0 25.5 7T93 139l28-9q5-1 9.5 1.5t6 7.5q1.5 5-.5 9.5t-7 5.5l-39 12q-5 2-10-1t-6-8q-2-8-8.5-13.5t-16-5.5q-9.5 0-17 7.5T25 163q0 7 3 12.5t8 8.5q5 3 6 8t-1.5 10q-2.5 5-2.5 11 0 11 7 18t17.5 7q10.5 0 18-7t7.5-18q0-3-1.5-7t1-8.5Q90 193 95 191l52-15q3-1 6 0l52 15q5 2 7.5 6.5t1.5 8.5q-1 4-1 7 0 11 7 18t17.5 7q10.5 0 18-7t7.5-18q0-6-3-11t-2-10q1-5 6-8t8-8.5q3-5.5 3-12.5 0-10-7.5-17.5t-17-7.5q-9.5 0-16 5.5T226 158q-1 5-6 7.5t-10 1.5l-38-11q-5-2-7.5-6.5T163 140q1-5 6-7.5t9-.5l28 7q7-11 18.5-18.5T250 113q21 0 35.5 15t14.5 35.5q0 20.5-15 35.5zM150 88q5 0 8.5-3.5T162 76V38q1-5-3-8.5t-9-3.5q-5 0-8.5 3.5T138 39v37q0 5 3.5 8.5T150 88zm47 5q3 2 7 2 7 0 10-6l19-32q2-4 1-9t-5.5-7.5Q224 38 219 39t-8 6l-18 31q-3 5-1.5 10t5.5 7zM86 90q4 6 11 6 4 0 7.5-2t5-7q1.5-5-1.5-10L90 45q-3-5-8-6t-9.5 1.5Q68 43 66.5 48t1.5 9l18 33z"/></svg>