<svg viewBox="0 0 300 302.0011" xmlns="http://www.w3.org/2000/svg"><path d="M250 151V76q0-21-14.5-35.5T200 26H100q-21 0-35.5 14.5T50 76v75q-21 0-35.5 14.5T0 201v25q0 21 14.5 35.5T50 276h200q21 0 35.5-14.5T300 226v-25q0-21-14.5-35.5T250 151zM75 76q0-10 7.5-17.5T100 51h100q10 0 17.5 7.5T225 76v125H75V76zm200 150q0 10-7.5 17.5T250 251H50q-10 0-17.5-7.5T25 226v-25q0-10 7.5-17.5T50 176v37q0 6 3.5 9.5T63 226h175q5 0 8.5-3.5t3.5-9.5v-37q10 0 17.5 7.5T275 201v25zm-171-86q-4-4-4-9t3.5-9q3.5-4 9-4t8.5 4l15 15q2 2 4.5 2t4.5-2l34-34q3-4 8.5-4t9 4q3.5 4 3.5 9t-4 8l-34 34q-9 9-22 9t-22-9l-14-14z"/></svg>