<svg viewBox="0 0 300 302.0011" xmlns="http://www.w3.org/2000/svg"><path d="M297 154q-7 20-26 29L18 300q-5 2-10 0t-7-6.5q-2-4.5 0-9.5t6-7l56-26v-84q-1-15 5-29t16-24l38-38H25q-5 0-9-3.5t-4-9q0-5.5 4-9t9-3.5h106q18 0 32 12l12 10q12 10 12.5 26T177 127l-43 43q-4 3-9 3t-8.5-3.5q-3.5-3.5-4-8.5t3.5-9l43-43q4-4 3.5-9t-3.5-9l-9-7-48 47q-15 15-15 36v73l174-80q9-5 12.5-14.5T273 127q-4-7 .5-13t11.5-5.5q7 .5 10 7.5 9 19 2 38zm-91-91q13 0 22.5-9t9.5-22q0-13-9.5-22T206 1q-13 0-22 9t-9 22q0 13 9 22t22 9z"/></svg>