<svg viewBox="0 0 300 302.0011" xmlns="http://www.w3.org/2000/svg"><path d="M150 1q-41 0-75.5 20T20 75.5Q0 110 0 151t20 75.5Q40 261 74.5 281t75.5 20q41 0 75.5-20t54.5-54.5q20-34.5 20-75.5t-20-75.5Q260 41 225.5 21T150 1zm0 275q-34 0-62.5-17T42 213.5Q25 185 25 151t17-62.5Q59 60 87.5 43T150 26q34 0 62.5 17T258 88.5q17 28.5 17 62.5t-17 62.5Q241 242 212.5 259T150 276zm0-188q-14 0-24.5 9T113 119.5q-2 13.5 5 25.5t19 16v40q1 5 4.5 8.5t8.5 3.5q5 0 9-3.5t4-8.5v-40q12-4 19-16t5-25.5Q185 106 174.5 97T150 88zm0 50q-5 0-9-3.5t-3.5-8.5q.5-5 4-9t8.5-4q5 0 9 4t4 9q0 5-4 9t-9 4v-1z"/></svg>