<svg viewBox="0 0 300 302.0011" xmlns="http://www.w3.org/2000/svg"><path d="M238 167q0-4 7-13 4-6 15-18 19-22 27-34 13-21 13-39 0-37-37-37-11 0-23 4-7 2-20 9-13 6-19 8-11 4-19.5 4T163 44q-6-5-18-17-14-13-21-18-13-8-24-8-9 0-15 2-10 4-15 14-3 6-5.5 15.5T62 71l1 5q0 6-8 12-5 4-18 11-18 11-25 18-12 12-12 26t10 24q6 6 20 14 11 6 15.5 10t4 8.5Q49 204 39 221l-4 7q-7 12-9 22.5t.5 19.5q2.5 9 9.5 14t16 4q6 0 13-1.5t16-6.5l17-10q14-9 20-13 12-6 18.5-6t23.5 10q17 10 30 20 24 20 48 20 17 0 27-10t10-28q0-15-7-31-4-9-14-26-9-13-12-20-4-10-4-19zm0 109q-15 0-32-14-12-9-26-18-28-18-41.5-18t-28.5 7q-9 5-26.5 16T59 262q-7 2-8 1.5t-1-2.5v-4q2-8 7-17l4-6q7-12 10-18 4-9 4-15 0-15-11-27-6-6-22-15-9-5-13-8.5t-4-8q0-4.5 8-10.5 5-4 17-11 18-11 25-18 13-12 13-27l-1-5q0-26 2-33 2-11 4-11.5t7-.5q5 0 13 6 5 4 15 14 15 14 24 20 15 10 28.5 10t27.5-5q8-3 23-10 11-5 16-7 9-3 16.5-3t9.5 2.5q2 2.5 2 10.5 0 11-11 27-7 10-23 29-15 16-20 24-8 13-8 23 0 13 6 28 4 8 13 24 9 15 13 22 5 12 5 22 0 7-2.5 10t-9.5 3zM138 107q0 8-5.5 13.5T119 126q-8 0-13.5-5.5T100 107q0-8 5.5-13.5T119 88q8 0 13.5 5.5T138 107zm62 25q0 8-5.5 13.5T181 151q-8 0-13.5-5.5t-5-13.5q.5-8 5.5-13.5t13-5.5q8 0 13.5 5.5T200 132zm-62 50q-1 8-6 13.5t-13 5.5q-8 0-13.5-5.5T100 182q0-8 5.5-13.5T119 163q8 0 13.5 5.5T138 182z"/></svg>