<svg viewBox="0 0 301 302.0011" xmlns="http://www.w3.org/2000/svg"><path d="M293 120l-44-75q-8-15-22.5-23T195 14h-88q-17-1-31.5 7.5T53 45L9 120q-9 14-9 31t9 31l44 75q8 15 22.5 23t31.5 8h88q17 0 31.5-8t22.5-23l44-75q8-14 8-31t-8-32v1zm-22 50l-44 75q-5 9-13.5 14t-18.5 5h-88q-10-1-19-5.5T74 245l-43-75q-6-9-6-19t6-19l43-75q5-8 14-13t19-5h88q10 0 18.5 5T227 57l44 75q5 9 5 19t-5 19zm-57-19q0 5-4 8.5t-9 3.5h-37v38q0 5-4 9t-9 4q-5 0-9-4t-4-9v-38h-37q-5 0-9-3.5t-3.5-8.5q.5-5 4-8.5t8.5-3.5h38v-38q0-5 3.5-9t8.5-3.5q5 .5 9 4t4 8.5v37h37q5 0 9 4t4 9z"/></svg>