<svg viewBox="0 0 300 302.0011" xmlns="http://www.w3.org/2000/svg"><path d="M238 1H63Q46 1 31.5 9.5t-23 23Q0 47 0 63v175q0 17 8.5 31.5t23 23Q46 301 63 301h175q16 0 30.5-8.5t23-23Q300 255 300 238V63q0-16-8.5-30.5t-23-23Q254 1 238 1zm0 25q15 0 26 11t11 27v174q0 9-4 17l-82-83q16-6 26-20.5t10-31.5q0-24-16.5-40.5T169 63h-31q-12 0-22 5T99 82L46 30q8-4 17-4h175zm-70 125l-51-51q3-5 8.5-8t11.5-4h32q13 0 22 9.5t9 22.5q0 13-9 22t-22 9h-1zM63 276q-16 0-27-11t-11-27V63q0-8 4-16l225 225q-8 4-16 4H63zm50-113v63q-1 5-4.5 8.5t-8.5 4q-5 .5-9-3.5t-4-9v-63q1-5 4.5-8.5t8.5-3.5q5 0 9 3.5t4 9.5v-1z"/></svg>