<svg viewBox="0 0 300 302.0011" xmlns="http://www.w3.org/2000/svg"><path d="M273 71l-88-59Q169 1 150 1t-35 11L28 71Q15 79 7.5 93T0 123v115q0 17 8.5 31.5t23 23Q46 301 62 301h176q16 0 30.5-8.5t23-23Q300 255 300 239V123q0-16-7.5-30T273 71zm2 167q0 16-11 27t-27 11H63q-16 0-27-11t-11-26V123q0-10 4.5-18T42 91l87-59q10-6 21-6t21 6l87 59q8 6 12.5 14t4.5 18v115zM150 89q-23 0-42 12.5T80.5 135q-8.5 21-4 43.5T97 217l23 22q12 12 30 12t30-12l23-22q16-16 20.5-38.5t-4-43.5q-8.5-21-27.5-33.5T150 89zm35 110l-22 22q-6 5-13 5t-13-5l-22-22q-15-15-15-35.5t14.5-35Q129 114 150 114t35.5 14.5q14.5 14.5 14.5 35T185 199zm-22-36q0 6-4 9.5t-9 3.5q-5 0-9-3.5t-3.5-9q.5-5.5 4-9t8.5-3.5q5 0 9 3.5t4 8.5z"/></svg>