<svg viewBox="0 0 300 302.0011" xmlns="http://www.w3.org/2000/svg"><path d="M213 126q-24 0-44 12t-32 32q-12 20-12 44t12 44q12 20 32 31.5t43.5 11.5q23.5 0 43.5-12t32-32q12-20 12-43.5T288 170q-12-20-32-32t-44-12h1zm0 150q-17 0-31.5-8.5t-23-22.5q-8.5-14-8.5-31t8.5-31.5q8.5-14.5 23-23t31-8.5q16.5 0 31 8.5t23 23q8.5 14.5 8.5 31t-8.5 31q-8.5 14.5-23 23T212 276h1zm21-59q4 4 4 9t-4 9q-4 4-9 4t-9-4l-12-13q-4-3-4-8v-26q0-5 3.5-8.5t9-3.5q5.5 0 9 3.5t3.5 8.5v20l9 9zm66-129v25q0 6-3.5 9.5t-9 3.5q-5.5 0-9-3.5T275 113V88q0-15-11-26t-27-11H63q-16 0-27 11T25 88v13h113q5 0 8.5 3.5t3.5 9q0 5.5-3.5 9T137 126H25v112q0 16 11 27t27 11h50q5 0 8.5 3.5t3.5 9q0 5.5-3.5 9T113 301H63q-17 0-31.5-8.5t-23-23Q0 255 0 238V88q0-16 8.5-30.5t23-23Q46 26 63 26h12V13q0-5 3.5-8.5t9-3.5q5.5 0 9 3.5T100 14v12h100V13q0-5 3.5-8.5t9-3.5q5.5 0 9 3.5T225 14v12h13q16 0 30.5 8.5t23 23Q300 72 300 89v-1z"/></svg>