<svg viewBox="0 0 300 302.0011" xmlns="http://www.w3.org/2000/svg"><path d="M238 76h-75V38q0-5-4-8.5t-9-3.5q-5 0-9 3.5t-4 8.5v38H63q-17 0-31.5 8.5t-23 23Q0 122 0 138v50q0 17 8.5 31.5t23 23Q46 251 62 251h176q16 0 30.5-8.5t23-23Q300 205 300 189v-51q0-16-8.5-30.5t-23-23Q254 76 238 76zm37 112q0 16-11 27t-27 11H63q-16 0-27-11t-11-27v-50q0-15 11-26t26-11h176q15 0 26 11t11 27v49zm-87-12h-75q-6 0-9.5 3.5t-3.5 9q0 5.5 3.5 9t9.5 3.5h75q5 0 8.5-3.5t3.5-9q0-5.5-3.5-9T188 176zm-63-25h13q5 0 8.5-3.5t3.5-9q0-5.5-3.5-9T138 126h-13q-5 0-8.5 3.5t-3.5 9q0 5.5 3.5 9t8.5 3.5zm113-25h-50q-6 0-9.5 3.5t-3.5 9q0 5.5 3.5 9t8.5 3.5h51q5 0 8.5-3.5t3.5-9q0-5.5-3.5-9T238 126zm-163 0H63q-6 0-9.5 3.5t-3.5 9q0 5.5 3.5 9T63 151h12q5 0 8.5-3.5t4-9q.5-5.5-3.5-9t-9-3.5zm-25 62q0 6 3.5 9.5t9 3.5q5.5 0 9-3.5t3.5-9q0-5.5-3.5-9t-9-3.5q-5.5 0-9 3.5T50 189v-1zm175 0q0 6 3.5 9.5t9 3.5q5.5 0 9-3.5t3.5-9q0-5.5-3.5-9t-9-3.5q-5.5 0-9 3.5T225 189v-1z"/></svg>