<svg viewBox="0 0 300 302.0011" xmlns="http://www.w3.org/2000/svg"><path d="M249 70l-43-43q-13-13-29-19.5T144 1H88Q71 1 56.5 9.5t-23 23Q25 47 25 63v175q0 17 8.5 31.5t23 23Q71 301 87 301h126q16 0 30.5-8.5t23-23Q275 255 275 238V132q0-17-6.5-33T249 70zm-17 18q6 6 10 13h-54q-6 0-9.5-3.5T175 88V34q7 4 13 10l44 44zm18 150q0 16-11 27t-26 11H88q-16 0-27-11t-11-27V63q0-15 11-26t27-11h62v62q0 16 11 27t26 11h63v112zm-56-75h-88q-13 0-22 9.5T75 195v25q0 13 9 22t22 9h88q13 0 22-9t9-22v-25q0-13-9-22.5t-22-9.5zm6 57q0 2-2 4t-4 2h-88q-2 0-4-2t-2-4v-25q0-3 2-4.5t4-1.5h88q2-1 4 1t2 5v25zM75 126q0-5 3.5-8.5T87 114h26q5-1 8.5 3t3.5 9q0 5-3.5 8.5T113 138H88q-6 0-9.5-3.5T75 126zm0-50q0-5 3.5-8.5T87 64h26q5 0 8.5 3.5T125 76q0 5-3.5 8.5T113 88H88q-6 0-9.5-3.5T75 76z"/></svg>