<svg viewBox="0 0 300 302.0011" xmlns="http://www.w3.org/2000/svg"><path d="M300 88v13q0 5-3.5 8.5t-9 3.5q-5.5 0-9-3.5T275 101V88q0-15-11-26t-27-11H63q-16 0-27 11T25 88v125q0 16 11 27t27 11h37q5 0 9 3.5t4 9q0 5.5-4 9t-9 3.5H63q-17 0-31.5-8.5t-23-23Q0 230 0 214V88q0-16 8.5-30.5t23-23Q46 26 63 26h175q16 0 30.5 8.5t23 23Q300 72 300 89v-1zm-112 25h50q5 1 8.5-3t3.5-9q0-5-3.5-9t-8.5-3h-50q-6 0-9.5 3.5T175 101q0 5 3.5 8.5t8.5 3.5h1zm101 36q11 11 11 27t-11 27l-84 83q-14 15-35 15h-20q-5 0-9-3.5t-4-8.5v-20q1-21 15-36l84-84q11-10 26.5-10t26.5 10zm-14 27q0-5-3.5-9t-9-3.5q-5.5.5-8.5 3.5l-84 84q-7 7-8 18v7h8q10 0 18-7l83-84q4-4 4-9zM88 213h25q15 0 26-10.5t11-26.5q0-5-3.5-9t-9-4q-5.5 0-9 4t-3.5 9q0 5-3.5 8.5T113 188H88q-6 0-9.5-3.5T75 176v-13h25q5 0 9-3.5t3.5-8.5q-.5-5-4-9t-8.5-3H75v-13q0-5 3.5-8.5T87 114h26q5-1 8.5 3t3.5 9 3.5 9q3.5 4 9 3.5t9-4q3.5-3.5 3.5-8.5 0-16-11-26.5T113 89H88q-16-1-27 10t-11 27v12q-5 0-8.5 4t-3.5 9q0 5 3.5 8.5T50 163v13q0 16 11 26.5T88 213zm87-62q0 5 3.5 8.5t9 3.5q5.5 0 9-3.5t3.5-8.5q0-5-3.5-8.5t-9-4q-5.5-.5-9 3.5t-3.5 9z"/></svg>