<svg viewBox="0 0 300 302.0011" xmlns="http://www.w3.org/2000/svg"><path d="M105 171l-4 45q0 4-2.5 7t-7 3q-4.5 0-6.5-5l-11-20-10 20q-3 5-7 5t-6.5-3q-2.5-3-2.5-7l-4-45q0-3 1.5-5.5T50 163q3 0 4.5 2t2.5 4l2 34 10-18q1-4 5-4t6 4l10 18 2-34q0-2 2-4t5-2q2 0 4 2.5t2 5.5zm69-8h-6l-3 40-10-18q-2-4-6-4t-5 4l-10 18-2-34q-1-2-2.5-4t-4.5-1.5q-3 .5-4.5 2.5t-1.5 5l4 45q0 4 2.5 7t6.5 3q4 0 7-5l10-20 11 20q2 5 6.5 5t7-3q2.5-3 2.5-7l4-45q0-3-2-5.5t-4-2.5zm75 0q-3 1-5 2.5t-2 3.5l-2 34-10-18q-2-4-6-4t-5 4l-10 18-2-34q-1-2-2.5-4t-4.5-2q-3 0-4.5 2.5T194 171l4 45q0 4 2.5 7t6.5 3q4 0 7-5l10-20 11 20q2 5 6.5 5t7-3q2.5-3 2.5-7l4-45q0-3-2-5.5t-4-2.5zM56 88q8 1 13.5-4.5T75 70q0-8-5.5-13.5T56 51q-8 0-13 5.5T38 70q0 8 5 13.5T56 89v-1zm50 0q8 1 13.5-4.5T125 70q0-8-5.5-13.5T106 51q-8 0-13.5 5.5t-5 13.5q.5 8 5.5 13.5t13 5.5v-1zm194-12v150q0 17-8.5 31.5t-23 22.5q-14.5 8-30.5 8H63q-17 0-31.5-8t-23-22.5Q0 243 0 226V76q0-17 8.5-31.5t23-22.5Q46 14 63 13h175q16 0 30.5 8.5t23 23Q300 59 300 76zM25 76v25h250V76q0-16-11-27t-27-10H63q-16-1-27 10T25 76zm250 150V126H25v100q0 16 11 27t27 11h175q15-1 26-11.5t11-26.5z"/></svg>