<svg viewBox="0 0 300.0069 302.0011" xmlns="http://www.w3.org/2000/svg"><path d="M263 38q-20-19-43-29t-44-8q-21 2-35 16-58 59-66 153-1 17 7 31l-47 47q-2-4-6.5-6.5T19 239q-8 0-13.5 5T0 257q0 8 5.5 13.5T19 276q4 0 8-2-2 4-2 8 0 8 5.5 13.5T44 301q8 0 13-5.5t5-13.5q1-5-2-9.5t-7-6.5l47-47q12 7 27 7h4q95-8 153-66 14-14 16-35t-7.5-44Q283 58 263 38zm-18 18q14 14 22 31t8 32q0 15-8.5 23.5T243 151q-15 0-32-8t-31-22q-23-23-29-50-5-24 8-36 9-9 24-9t31.5 8Q231 42 245 56zM129 201q-12 1-21-8t-8-21q4-54 27-95 7 34 35 62t62 35q-41 22-95 27zm75-103q-7-7-9.5-14.5T196 72q4-4 11.5-1.5t14 9q6.5 6.5 9 14T229 105q-4 4-11.5 1.5T204 98z"/></svg>