<svg viewBox="0 0 300 302.0011" xmlns="http://www.w3.org/2000/svg"><path d="M174 51q16 0 27 11t12 27q0 6 3.5 9.5t8.5 3.5q5 0 8.5-3.5T238 89v-1q-1-17-9.5-31t-23-22.5Q191 26 174 26h-11V13q0-5-4-8.5T150 1q-5 0-9 3.5t-4 8.5v13h-11q-23 0-41 15T63.5 79Q60 102 72 122t34 27l32 11v91h-12q-16 0-27-11t-12-27q1-6-3-9.5t-9-3.5q-5 0-8.5 3.5T63 213v1q0 17 8.5 31t23 22.5Q109 276 126 276h12v12q0 6 3.5 9.5t8.5 3.5q5 0 9-3.5t4-8.5v-13h11q23 0 41-15t21.5-38q3.5-23-8.5-43t-34-27l-31-11V51h11zm12 125q14 5 21 17t5 26q-2 14-13 23t-25 9h-11v-83l23 8zm-48-42l-24-8q-14-5-21-17t-5-26q2-14 13-23t25-9h12v83z"/></svg>