<svg viewBox="0 0 300 302.0011" xmlns="http://www.w3.org/2000/svg"><path d="M100 238H63q-16 1-27-10t-11-27V63q0-15 11-26t27-11v50q0 10 7 17.5t18 7.5h87q10 0 17.5-7.5T200 76V36l34 35q4 3 4 8v22q0 5 3.5 8.5t8.5 3.5q5 0 9-3.5t4-8.5V79q0-15-11-26l-41-41q-4-4-11.5-7.5T186 1H63Q46 1 31.5 9.5t-23 23Q0 47 0 64v137q0 17 8.5 31.5t23 22.5q14.5 8 31.5 8h37q5 0 9-3.5t4-8.5q0-5-4-9t-9-4zM88 76V26h87v50H88zm43 137q-18 0-30.5-12.5T88 170q0-18 12.5-31t30.5-13q18 0 31 13t13 31q0 5-3.5 8.5t-9 3.5q-5.5 0-9-3.5T150 170q0-8-5.5-13.5T131 151q-8 0-13 5.5t-5 13.5q0 8 5 13t13 5q5 1 9 4.5t4 8.5q0 5-4 8.5t-9 3.5zm158-64q-11-10-26.5-10T236 149l-84 84q-14 15-15 36v19q0 6 4 9.5t9 3.5h20q21 0 35-15l84-83q11-11 11-27t-11-27zm-18 36l-83 84q-8 7-18 7h-7v-7q0-11 7-18l84-84q3-3 8.5-3t9 3.5q3.5 3.5 3.5 8.5t-4 9z"/></svg>