<svg viewBox="0 0 300 302.0011" xmlns="http://www.w3.org/2000/svg"><path d="M288 113q5 0 8.5-3.5t3.5-8.5V88q0-16-8.5-30.5t-23-23Q254 26 237 26H113q-17 0-31.5 8.5t-23 23Q50 72 50 89v99q0 17 8.5 31.5t23 23Q96 251 112 251h126q16 0 30.5-8.5t23-23Q300 205 300 189v-13q0-5-3.5-9t-9.5-4q-10 0-17.5-7t-7-17.5q.5-10.5 7.5-18t17-7.5h1zm-13 74v1q0 16-11 27t-27 11H113q-16 0-27-11t-11-26V88q0-15 11-26t26-11h126q15 0 26 11t11 26v2q-16 4-27 17.5t-11 31q0 17.5 11 31t27 17.5zm-37 101q-1 6-4.5 9.5T225 301H113q-23 0-43.5-8.5T33 268q-16-16-24.5-36.5T0 189v-76q0-5 3.5-8.5t9-3.5q5.5 0 9 3.5T25 113v75q0 18 6.5 34t19 28.5Q63 263 79 269.5t33 6.5h113q5 0 8.5 3.5t3.5 8.5h1zm-25-150q0 6-4 9.5t-9 3.5h-19l-24 30q-4 7-12 7h-2q-3 1-5-2t-1-7l11-28h-19q-8 0-14-7l-14-16q-2-5 .5-10t7.5-5q5 0 8 3l14 10h17l-11-28q-1-4 1-7t5-3h2q8 0 12 8l24 30h19q5 0 9 3.5t4 9.5v-1z"/></svg>