<svg viewBox="0 0 300 302.0011" xmlns="http://www.w3.org/2000/svg"><path d="M275 276q-17 0-31.5-8.5t-22.5-23q-8-14.5-8-30.5v-38h25q5 0 8.5-3.5t3.5-9q0-5.5-3.5-9T238 151h-27q19-19 24.5-45T231 55.5Q221 31 199 16T150 1q-27 0-49 15T69 55.5Q59 80 64.5 106T89 151H63q-6 0-9.5 3.5t-3.5 9q0 5.5 3.5 9T63 176h25v37q-1 17-9 31.5t-22.5 23Q42 276 25 276q-5 0-9 3.5t-3.5 9q.5 5.5 4 9T25 301h250q5 0 9-3.5t4-9q0-5.5-4-9t-9-3.5zM88 88q0-16 8-30.5t22.5-23Q133 26 150 26t31.5 8.5Q196 43 204 57.5t8 31q0 16.5-8 31t-22.5 23Q167 151 150 151t-31.5-8.5Q104 134 96 119.5T88 89v-1zm-2 188q13-12 20-28.5t6-33.5v-38h76v37q-1 18 6 34.5t20 28.5H86z"/></svg>