<svg viewBox="0 0 300 302.0011" xmlns="http://www.w3.org/2000/svg"><path d="M264 248q24-28 32-62.5t0-69Q288 82 264 54l11-11q4-3 4-8.5t-3.5-9q-3.5-3.5-9-3.5t-8.5 4l-11 11q-28-24-62.5-32t-69 0Q81 13 53 37L42 26q-3-4-8-4t-9 4q-4 4-4 9t4 9l11 10Q12 82 4 116.5t0 69Q12 220 36 248l-11 11q-5 5-3.5 12t8.5 8.5q7 1.5 12-3.5l11-11q28 24 62.5 32t69 0q34.5-8 62.5-32l11 11q3 4 8 4t9-4q4-4 4-9t-4-9l-11-10zm11-97q0 22-7.5 42T247 230l-45-45q10-15 10-34t-10-34l45-45q13 17 20.5 37t7.5 42zm-162 0q0-16 10.5-27t26.5-11q16 0 27 11t11 27q0 16-11 27t-27 10.5q-16-.5-26.5-11T113 151zm37-125q22 0 42 7.5T229 54l-45 45q-15-10-34-10t-34 10L71 54q17-13 37-20.5t42-7.5zM25 151q0-22 7.5-42T53 72l45 45q-10 15-10 34t10 34l-45 45q-13-17-20.5-37T25 151zm125 125q-22 0-42-7.5T71 248l45-45q15 10 34 10t34-10l45 45q-17 13-37 20.5t-42 7.5z"/></svg>