<svg viewBox="0 0 300 302.0011" xmlns="http://www.w3.org/2000/svg"><path d="M185 239q6 6 3.5 13t-9.5 9h-1q-6 1-11-4L28 118q-4-4-4-8.5t3-8.5q3-5 9-5t10 4l139 139zM7 132q-3 5-5 9-4 10 0 20l2 4 74 74q15 15 35 20l4 1q5 1 7.5-3.5T123 248L7 132zm289 148q4 3 4 8.5t-3.5 9q-3.5 3.5-9 3.5t-8.5-4L4 22q-4-3-4-8.5t3.5-9Q7 1 12.5 1T21 5l54 53q34-19 75-20 51 0 92 31 29 21 49 54 9 15 9 32.5t-9 32.5q-17 27-40 46l45 46zM93 77l23 22q18-12 40-10t38 18q16 16 18 38t-10 40l31 32q21-18 37-43 5-8 5-18.5t-5-19.5q-18-28-42-46-35-26-78-26-30-1-57 13zm91 90q5-10 3-22t-10.5-20.5Q168 116 156 114t-22 3l50 50z"/></svg>