<svg viewBox="0 0 300 302.0011" xmlns="http://www.w3.org/2000/svg"><path d="M150 1q-41 0-75.5 20T20 75.5Q0 110 0 151t20 75.5Q40 261 74.5 281t75.5 20q41 0 75.5-20t54.5-54.5q20-34.5 20-75.5t-20-75.5Q260 41 225.5 21T150 1zm123 131q-17 11-36 16-4-61-39-112 30 12 50.5 38t24.5 58zM150 26h9q24 26 37.5 58t15.5 67q-26 1-50-9-2-31-16.5-59.5T106 34q21-8 44-8zM81 47q18 11 31 28-28 19-49.5 45T28 178q-8-38 6.5-74T81 47zM42 214q9-36 30.5-66.5T125 97q11 23 12 48-25 20-40.5 48T78 253q-22-16-36-39zm108 62q-24 0-47-9-1-25 8-47 31 13 64.5 17t66.5-2q-18 20-42 30.5T150 276zm-27-79q11-18 29-32 27 11 56 11 35 0 67-15-2 23-12 44-35 10-71 8t-69-16z"/></svg>