<svg viewBox="0 0 300 302.0011" xmlns="http://www.w3.org/2000/svg"><path d="M199 267q-5 15-17 24.5t-28 9.5h-8q-19 0-32.5-13.5T100 255v-2q0-16-7-30.5T73 196q-17-16-26-37.5T38 113q-1-5 3-8.5t9-3.5q5 0 9 3.5t4 8.5q0 19 7 35.5T90 177q23 22 31 49h42q5 0 8.5 3.5t3.5 9q0 5.5-3.5 9T163 251h-38v4q0 9 6 15t15 6h8q7 0 12.5-4.5T174 261q2-6 6.5-8.5t9-1q4.5 1.5 7.5 6t1 9.5h1zm97 30q-3 4-8.5 4t-8.5-4L4 22q-4-3-4-8.5t3.5-9Q7 1 12.5 1T21 5l40 39q14-17 34-28.5t43-14q23-2.5 46 5T225 30q18 16 28 38t10 46q0 24-10.5 46T224 198l-4 5 77 77q3 3 3 8.5t-3 8.5h-1zM79 62l123 123 6-6q14-12 22-29.5t8-36q0-18.5-8-35.5t-22-29.5Q194 36 176.5 30t-36-3.5Q122 29 106 38T79 62z"/></svg>