<svg viewBox="0 0 300 302.0011" xmlns="http://www.w3.org/2000/svg"><path d="M268 244q-22 27-53 42t-65 15q-34 0-65-15t-52.5-41.5q-21.5-26.5-29-60t0-67Q11 84 33 58q24-31 60-45.5T167 2q38 4 70 27 12 8 13 23t-9 26l-56 55q-3 4-8.5 4t-8.5-4q-9-8-20.5-7T129 137q-4 6-4 14t4 14q7 10 18.5 11t20.5-7q3-4 8.5-4t9 3.5q3.5 3.5 3.5 9t-4 8.5q-7 8-17.5 12t-21.5 3q-11-1-21-6.5T109 179q-9-12-9-28t9-28q6-10 16-15.5t21-6.5q16-1 29 7l18-18q-21-15-47.5-13.5T99 96l1 5q0 9-6 16t-15 9q-7 20-2.5 41T97 204q14 14 33 19 8-10 20-10t20 10q19-5 32.5-18.5t19-30Q227 158 224 140q-1-5 2.5-9t8.5-5q5-1 9 2t5 8q3 24-4.5 46.5T221 222q-20 20-48 26-3 7-9 11t-14 4q-8 0-14-4t-9-11q-28-6-48.5-26.5t-26.5-49Q46 144 56 117q-6-7-6-16.5t7.5-17Q65 76 75 76q4 0 8 1 17-16 40-22.5t46.5-2Q193 57 211 72l12-12q3-2 2.5-5.5T223 49q-27-19-59-22.5t-61.5 9Q73 48 52 73q-18 22-24 50t0 56q6 28 24 50t43.5 34.5Q121 276 150 276t54.5-12.5Q230 251 248 229q22-27 26-62.5T264 99q-2-4 0-9t6.5-7q4.5-2 9.5 0t7 6q17 39 12 81t-31 74z"/></svg>