<svg viewBox="0 0 300 302.0011" xmlns="http://www.w3.org/2000/svg"><path d="M238 63h-38V51q0-16-11-27t-27-11h-24q-16 0-27 11t-11 27v12H63q-17 1-31.5 9t-23 22.5Q0 109 0 126v100q0 17 8.5 31.5t23 22.5q14.5 8 30.5 9h176q16-1 30.5-9t23-22.5Q300 243 300 226V126q0-17-8.5-31.5t-23-22.5Q254 64 238 63zM125 51q0-5 3.5-9t9.5-4h25q5 0 8.5 4t3.5 9v12h-50V51zm150 175q0 16-11 26.5T238 263H63q-16 0-27-10.5T25 226V126q0-16 11-27t26-11h176q15 0 26 11t11 27v100zm-75-50q0 5-3.5 8.5T188 188h-25v25q0 6-4 9.5t-9 3.5q-5 0-9-3.5t-4-9.5v-25h-24q-6 1-9.5-3t-3.5-9q0-5 3.5-9t8.5-4h26v-25q0-5 3.5-8.5t8.5-3.5q5 0 9 3.5t4 8.5v25h25q5 0 8.5 4t3.5 9z"/></svg>