<svg viewBox="0 0 301.0029 302.0011" xmlns="http://www.w3.org/2000/svg"><path d="M263.5 288q-22 0-38-15-16 15-37.5 15t-37.5-15q-16 15-37.5 15t-37.5-15q-15 15-35 15.5T4.5 276q-5-5-3.5-12t8-9.5q6.5-2.5 12.5 2.5 10 9 23.5 5.5T63.5 247q2-4 5-6t7-2q4 0 7 2t5 6q3 7 10 11.5T113 263q8.5 0 15.5-4.5t10-11.5q2-4 5-6t7-2q4 0 7 2t5 6q3 7 10 11.5T188 263q8.5 0 15.5-4.5t10-11.5q2-4 5-6t7-2q4 0 7 2t5 6q5 12 18.5 15.5t23.5-5.5q4-3 9-2.5t8.5 4q3.5 3.5 3.5 8.5t-4 9q-14 12-33 12zm0-75q-22 0-38-15-16 15-37.5 15t-37.5-15q-16 15-37.5 15t-37.5-15q-15 15-35 15.5T4.5 201q-5-5-3.5-12t8-9.5q6.5-2.5 12.5 2.5 10 9 23.5 5.5T63.5 172q2-4 5-6t7-2q4 0 7 2t5 6q3 7 10 11.5T113 188q8.5 0 15.5-4.5t10-11.5q2-4 5-6t7-2q4 0 7 2t5 6q3 7 10 11.5T188 188q8.5 0 15.5-4.5t10-11.5q2-4 5-6t7-2q4 0 7 2t5 6q5 12 18.5 15.5t23.5-5.5q4-3 9-2.5t8.5 4q3.5 3.5 3.5 8.5t-4 9q-14 12-34 12h1zm0-75q-22 0-38-15-16 15-37.5 15t-37.5-15q-16 15-37.5 15t-37.5-15q-15 15-35 15.5T4.5 126q-6-5-4.5-12.5t9-9.5q7.5-2 12.5 3 10 9 23.5 5.5T63.5 97q2-4 5-6t7-2q4 0 7 2t5 6q3 7 10 11.5T113 113q8.5 0 15.5-4.5t10-11.5q2-4 5-6t7-2q4 0 7 2t5 6q3 7 10 11.5T188 113q8.5 0 15.5-4.5t10-11.5q2-4 5-6t7-2q4 0 7 2t5 6q5 12 18.5 15.5t23.5-5.5q4-3 9-2.5t8.5 4q3.5 3.5 3.5 8.5t-4 9q-14 13-33 12zm0-75q-22 0-38-15-16 15-37.5 15t-37.5-15q-16 15-37.5 15T75.5 48q-15 15-35 15.5T4.5 51q-6-5-4.5-12.5T9 29q7.5-2 12.5 3 10 9 23.5 5.5T63.5 22q2-4 5-6t7-2q4 0 7 2t5 6q3 7 10 11.5T113 38q8.5 0 15.5-4.5t10-11.5q2-4 5-6t7-2q4 0 7 2t5 5v1q3 7 10 11.5T188 38q8.5 0 15.5-4.5t10-11.5q2-4 5-6t7-2q4 0 7 2t5 6q5 12 18.5 15.5t23.5-5.5q5-5 12.5-3t9 9.5q1.5 7.5-4.5 12.5-14 13-34 12h1z"/></svg>