<svg viewBox="0 0 300 302.0011" xmlns="http://www.w3.org/2000/svg"><path d="M163 13q0-5 3.5-8.5T175 1q34 0 62.5 17T283 63.5Q300 92 300 126q0 5-3.5 9t-9 3.5q-5.5-.5-9-4T275 126q0-27-13.5-50T225 39.5Q202 26 175 26q-5 0-8.5-3.5T163 14v-1zm12 63q21 0 35.5 14.5T225 126q0 5 3.5 9t9 3.5q5.5-.5 9-4t3.5-8.5q0-20-10-37.5T212.5 61Q195 51 175 51q-5 0-8.5 3.5t-3.5 9q0 5.5 3.5 9T175 76zm114 134q11 12 11 28t-11 27l-12 13q-29 28-75 21-41-6-86-38-44-31-75-75-33-45-39-86-7-46 20-76l15-12Q48 1 64 1t27 11l23 31q11 11 11 26.5T114 96l-14 19q12 29 34.5 51.5T186 201l19-14q11-11 26.5-11t26.5 11l31 23zm-18 18q-15-11-30-23-4-4-9.5-4t-9.5 4l-26 20q-5 5-12 2-38-14-67-43t-43-67q-3-7 2-12l20-26q4-4 4-9.5T96 60L73 30q-4-4-9.5-4T54 30L39 43q-20 24-11 62 8 34 37 71 27 36 64.5 63t71.5 34q37 8 58-12l11-13q5-4 5-9.5t-4-10.5z"/></svg>