<svg viewBox="0 0 300 302.0011" xmlns="http://www.w3.org/2000/svg"><path d="M75 13q0-5 3.5-8.5T87 1h126q5 0 8.5 3.5t3.5 9q0 5.5-3.5 9T212 26H88q-6 0-9.5-3.5T75 14v-1zM50 88h200q5 0 9-3.5t4-8.5q0-5-4-9t-9-4H50q-5 1-8.5 4.5T38 76q0 5 3.5 9t8.5 4v-1zm194 113h-19v-19q0-5-3.5-8.5t-9-3.5q-5.5 0-9 3.5T200 182v19h-19q-5 0-8.5 3.5t-3.5 9q0 5.5 3.5 9t8.5 3.5h19v19q0 5 3.5 8.5t9 3.5q5.5 0 9-3.5t3.5-8.5v-19h19q5 0 8.5-3.5t3.5-9q0-5.5-3.5-9T244 201zm56 12q0 24-12 44t-32 32q-20 12-43.5 12T169 289q-20-12-32-32t-12-43.5q0-23.5 12-43.5t32-32q20-12 43.5-12t43.5 12q20 12 32 32t12 43zm-25 0q0-16-8.5-30.5t-23-23q-14.5-8.5-31-8.5t-31 8.5q-14.5 8.5-23 23t-8.5 31q0 16.5 8.5 31t23 23q14.5 8.5 31 8.5t31-8.5q14.5-8.5 23-23T275 214v-1zm-162 63H63q-16 0-27-11t-11-27v-50q0-15 11-26t27-11h50q5 0 8.5-3.5t3.5-9q0-5.5-3.5-9T113 126H63q-17 0-31.5 8.5t-23 23Q0 172 0 189v49q0 17 8.5 31.5t23 23Q46 301 63 301h50q5 0 8.5-3.5t3.5-9q0-5.5-3.5-9T113 276z"/></svg>