<svg viewBox="0 0 300 302.0011" xmlns="http://www.w3.org/2000/svg"><path d="M150 1q-41 0-75.5 20T20 75.5Q0 110 0 151t20 75.5Q40 261 74.5 281t75.5 20q41 0 75.5-20t54.5-54.5q20-34.5 20-75.5t-20-75.5Q260 41 225.5 21T150 1zm0 275q-34 0-62.5-17T42 213.5Q25 185 25 151t17-62.5Q59 60 87.5 43T150 26q34 0 62.5 17T258 88.5q17 28.5 17 62.5t-17 62.5Q241 242 212.5 259T150 276zm64-166l-26 18v-2q0-16-11-26.5T150 89h-50q-16-1-27 10t-11 27v50q0 16 11 27t27 11h50q16 0 26.5-11t10.5-27v-2l27 18q8 5 15.5 1t7.5-13v-58q0-9-7.5-13t-15.5 1zm-51 66q0 5-4 8.5t-9 3.5h-50q-5 0-8.5-3.5T88 176v-50q0-5 3.5-9t8.5-4h50q5 0 9 4t4 9v50z"/></svg>