<svg viewBox="0 0 300 302.0011" xmlns="http://www.w3.org/2000/svg"><path d="M104 168l29-29-29-29q-4-3-4-8.5t3.5-9q3.5-3.5 9-3.5t9.5 3l28 29 29-28q4-4 9-4t8.5 3.5q3.5 3.5 4 8.5t-3.5 9l-29 29 29 29q3 3 3.5 8t-3.5 9q-4 4-9 4t-9-4l-29-28-28 28q-4 4-9 4t-8.5-4q-3.5-4-3.5-9t3-8zm-50 68q-27-26-36.5-61t-1-70.5Q25 69 51 42.5T112.5 6q35.5-10 71-1T245 40l2 2q27 26 36 61.5t0 71q-9 35.5-36 61.5l-49 46q-13 12-30.5 16.5t-34.5 0q-17-4.5-30-16.5l-49-46zm-16-97q0 22 8.5 43T71 218l49 46q13 12 30.5 12t29.5-12l50-46q22-22 29.5-50.5T259 110q-8-29-29.5-50.5t-50.5-29q-29-7.5-57.5 0T71 60Q55 75 46.5 96T38 139z"/></svg>