<svg viewBox="0 0 300 302.0011" xmlns="http://www.w3.org/2000/svg"><path d="M34 152q1 5 4.5 8t8.5 3h206q5 0 8.5-3t4.5-8l10-89q2-20-10-36T234 8q-41-7-84-7T66 8q-20 3-32 19T24 63l10 89zM163 26q16 1 31 2l-6 111h-25V26zm-25 112h-26l-6-110q15-1 32-2v112zm113-78l-9 78h-29l6-107 11 1q10 2 16 10t5 18zM70 32q3 0 8-1h3l6 107H58l-9-78q-1-10 5-18t16-10zm206 207q2 20-10 36t-32 19q-41 7-84 7t-84-7q-20-3-32-19t-10-36l5-39q0-6 4.5-9t9.5-2.5q5 .5 8 4.5t3 9l-5 40q-1 10 5 18t16 10l11 1 4-71q0-5 4-8.5t9-3q5 .5 8.5 4t3.5 9.5l-4 72q15 1 32 2v-75q0-5 3.5-9t8.5-4q5 0 9 4t4 9v75q16-1 31-2l-4-72q0-6 3.5-9.5t8.5-4q5-.5 9 3t4 8.5l4 71 11-1q10-2 16-10t5-18l-5-40q0-5 3-9t8-4.5q5-.5 9.5 2.5t4.5 9l5 39z"/></svg>