<svg viewBox="0 0 300 302.0011" xmlns="http://www.w3.org/2000/svg"><path d="M300 63q0-20-14.5-35T250 13q-21 0-35.5 15T200 63q0 18 10.5 31.5T237 112v76q1 16-10 27t-27 11h-42l27-28q4-3 4-8.5t-3.5-9q-3.5-3.5-9-3.5t-8.5 4l-32 32q-6 5-8.5 11t-2.5 15q0 9 2.5 15t8.5 12l32 31q3 4 8.5 4t9-3.5q3.5-3.5 3.5-9t-4-8.5l-28-29h43q17 0 31.5-8.5t23-23Q263 205 263 189v-77q16-4 26.5-17.5T300 64v-1zm-50 25q-10 1-17.5-6.5t-7.5-18q0-10.5 7.5-18T250 38q10 0 17.5 7.5t7.5 18q0 10.5-7.5 18T250 89v-1zm-85 2q11-11 11-26.5T165 37L133 5q-3-3-8.5-3t-9 3.5Q112 9 112 14t4 9l28 28h-44q-17 0-31.5 8.5T46 82.5Q38 97 38 114v76q-17 4-27.5 17.5T0 238q0 21 14.5 35.5t35.5 15q21 .5 35.5-14.5t14.5-35q0-18-10.5-31.5T62 190v-77q0-15 11-26t27-11h44l-28 28q-4 4-4 9t3.5 8.5q3.5 3.5 9 3.5t8.5-3l32-32zM75 238q0 11-7.5 18T50 263q-10 0-17.5-7T25 238.5q0-10.5 7.5-17.5t17.5-7.5q10-.5 17.5 7T75 239v-1z"/></svg>