<svg viewBox="0 0 300 302.0011" xmlns="http://www.w3.org/2000/svg"><path d="M268 53q-4-23-21.5-37.5T207 1H93Q70 1 52.5 15.5T32 53L1 228q-2 13 1.5 26.5t12.5 24Q24 289 36.5 295t26.5 6h175q13 0 25.5-6t21.5-16.5q9-10.5 12.5-24T299 228L268 53zm-2 210q-5 6-12.5 9.5T238 276H63q-9 0-16.5-3.5t-13-10Q28 256 26 248t0-16L56 57q3-13 13-22t24-9h114q13 0 23.5 9T244 57l30 175q2 8 0 16t-8 15zM163 63v25q0 6-4 9.5t-9 3.5q-5 0-9-3.5t-4-8.5V63q1-5 4.5-8.5T150 51q5 0 9 3.5t4 8.5zm0 75v25q0 6-4 9.5t-9 3.5q-5 0-9-3.5t-4-9.5v-25q1-5 4.5-8.5t8.5-3.5q5 0 9 3.5t4 8.5zm0 75v25q0 6-4 9.5t-9 3.5q-5 0-9-3.5t-4-9.5v-25q1-5 4.5-8.5t8.5-3.5q5 0 9 3.5t4 9.5v-1z"/></svg>