<svg viewBox="0 0 300 302.0011" xmlns="http://www.w3.org/2000/svg"><path d="M300 151q0 41-20 75.5T225.5 281Q191 301 150 301t-75.5-20Q40 261 20 226.5T0 151q0-6 .5-12t4.5-9.5q4-3.5 9-3t8.5 4.5q3.5 4 3.5 9l-1 11q0 34 17 63t45.5 45.5Q116 276 150 276t62.5-16.5Q241 243 258 214t17-63l-1-11q0-5 3.5-9t8.5-4.5q5-.5 9 3t4.5 9.5q.5 6 .5 12zM190 92l41 6q3 1 5 3t2 5q0 3-2.5 5.5T230 114h-33q-8 0-11-5.5t-8-6.5q-5-1-9.5 1.5T163 111q-1 5 1 9 5 9 14 14t19 5h3q0 5 3.5 8.5t9 4q5.5.5 9-3.5t3.5-9h5q13 0 23-9.5t10-22.5q0-13-8-22t-20-11l-41-7q-3 0-4.5-2.5T188 59q0-3 2-5t5-2h33q8-1 11 4.5t8 7q5 1.5 9.5-1T262 55q1-5-1-10-5-8-14-13.5T228 26h-3q0-5-3.5-8.5t-9-3.5q-5.5 0-9 3.5T200 27h-5q-13-1-22.5 9T163 58.5q0 12.5 7.5 22T190 92zM65 92l41 6q3 1 5 3t2 5q0 3-2.5 5.5T105 114H72q-8 0-11-5.5t-8-6.5q-5-1-9.5 1.5T38 111q-1 5 1 9 5 9 14 14t19 5h3q0 5 3.5 8.5t9 4q5.5.5 9-3.5t3.5-9h5q13 0 22.5-9.5t10-22.5q.5-13-7.5-22t-20-11l-41-7q-3 0-4.5-2.5T63 59q0-3 2-5t5-2h33q8-1 11 4.5t8 7q5 1.5 9.5-1T137 55q1-5-1-10-5-8-14-13.5T103 26h-3q0-5-3.5-8.5t-9-3.5q-5.5 0-9 3.5T75 27h-5q-13-1-22.5 9T38 58.5q0 12.5 7.5 22T65 92zm48 117v-8H88q-6 0-9.5-3.5T75 189q0-5 3.5-9t8.5-4h126q5 0 8.5 4t3.5 9q0 5-3.5 8.5T212 201h-24v8q0 16-10.5 29T150 251q-17 0-27.5-13T112 209h1zm50-8h-25v8q0 7 3.5 12t8.5 5q5 0 9-5t4-12v-8z"/></svg>