<svg viewBox="0 0 300 302.0011" xmlns="http://www.w3.org/2000/svg"><path d="M212 275q2 4-.5 9t-6.5 7q-27 10-55 10-41 0-75.5-20T20 226.5Q0 192 0 151t20-75.5Q40 41 74.5 21t76-20Q192 1 228 23t56 60q2 4 .5 9t-6 7.5q-4.5 2.5-9.5 1t-8-6.5q-16-31-46-49.5T150.5 26q-34.5 0-63 17T42 88.5Q25 117 25 151t17 62.5Q59 242 87.5 259t62.5 17q24 0 45-9 5-1 10 1t7 7zM63 101v25q-1 5 3 8.5t9 3.5q5 0 9-3.5t4-8.5v-25q-1-5-4.5-9T75 88q-5 0-8.5 4t-3.5 9zm50 0v25q-1 5 3 9t9 3.5q5-.5 9-4t3-8.5v-25q1-5-3-9t-9-4q-5 0-8.5 4t-3.5 9zm50 0v25q0 5 3.5 9t8.5 3.5q5-.5 9-4t3-8.5v-25q0-5-3.5-9t-8.5-4q-5 0-8.5 4t-3.5 9zm134 109q-5-9-16-9h-51l31-56q2-5 1-10t-5.5-7.5q-4.5-2.5-9.5-1t-8 5.5l-37 67q-5 9 .5 18t16.5 9h51l-31 56q-2 5-1 10t5 7q4 2 7 2 7 0 11-6l37-68q5-9-1-17z"/></svg>