<svg viewBox="0 0 300 302.0011" xmlns="http://www.w3.org/2000/svg"><path d="M244 1h-88q-23 0-39.5 16.5T100 57v138q0 18 13 30.5t31 12.5h100q23 0 39.5-16t16.5-40V57q0-23-16.5-39.5T244 1zm-88 25h88q13 0 22 9t9 22v94H144q-10 0-19 4V57q0-13 9-22t22-9zm88 187H144q-8 0-13.5-5t-5.5-13q0-8 5.5-13.5T144 176h131v6q0 13-9 22.5t-22 9.5v-1zm-61 54q4 4 4 9t-4 9q-16 16-39 16H44q-18 0-31-13T0 257V120q0-24 16.5-40.5T56 63h7q5 0 8.5 4t3.5 9q0 5-3.5 8.5T63 88h-7q-13 0-22 9.5T25 120v98q9-5 19-5h19q5 0 8.5 4t3.5 9q0 5-3.5 8.5T63 238H44q-8 0-13.5 5.5T25 257q0 8 5.5 13.5T44 276h100q13 0 22-9 3-4 8.5-3.5t8.5 3.5z"/></svg>