<svg viewBox="0 0 300 302.0011" xmlns="http://www.w3.org/2000/svg"><path d="M215 127q-3-4-2-9t5.5-8q4.5-3 9.5-2t8 5q12 17 20 36 2 5 .5 10t-6.5 7q-3 1-6 1t-6-2q-3-2-5-6-7-17-18-32zm31 74q4 18 4 37 0 5 3.5 9t9 4q5.5 0 9-4t3.5-9q0-21-4-42-1-5-5.5-8t-9.5-2q-5 1-8 5.5t-2 9.5zM158 74q14 8 26 19 4 3 9 3t8.5-4q3.5-4 3.5-9.5t-4-8.5q-14-12-30-22-4-2-9-1t-7.5 5.5Q152 61 153 66t5 8zm129 202H50q-6 0-12-3.5t-9.5-9q-3.5-5.5-3.5-12t3-12.5L148 19q2-4 .5-9t-6-7.5Q138 0 133 1.5T126 8L6 227q-6 12-6 25t7 24.5q7 11.5 18.5 18T50 301h237q6 0 9.5-3.5t3.5-9q0-5.5-3.5-9T287 276z"/></svg>