<svg viewBox="0 0 300 302.0011" xmlns="http://www.w3.org/2000/svg"><path d="M299 145q-2-14-13-22.5t-25-8.5h-64l-11-51h14v13q0 5 3.5 8.5t9 3.5q5.5 0 9-3.5T225 76V26q0-5-3.5-9t-9-4q-5.5 0-9 4t-3.5 9v12h-20l-2-8q-2-12-12.5-20.5t-23.5-8Q129 2 121 11t-8 21v6h-13q-5 0-8.5 4T88 51q0 5 3.5 8.5T100 63h13v50H69L53 89q-4-6-10.5-9.5T29 76q-12 0-20.5 8.5T0 105v92q0 12 8.5 20.5T29 226q7 0 13.5-3.5T53 213l16-24h43v50h-12q-5 0-9 3.5t-4 8.5q0 5 4 9t9 4h12v6q0 13 9 22t22 8.5q13-.5 23-8.5t12-20l2-8h20v12q0 5 3.5 9t9 4q5.5 0 9-4t3.5-9v-50q0-5-3.5-8.5t-9-3.5q-5.5 0-9 3.5T200 226v13h-14l11-50h65q18 0 29-13.5t8-30.5zm-27 14q-4 5-10 5h-75q-5 0-8.5 2.5T174 173l-20 93q-1 4-4 7t-6 3q-3 0-4.5-2t-1.5-4v-94q0-5-4-8.5t-9-3.5H63q-7 0-11 5l-20 30q-1 2-4 1.5t-3-3.5v-92q0-3 3-3.5t4 1.5l20 30q4 6 11 5h62q5 0 9-3.5t3-8.5V32q0-2 1.5-4t3.5-2q4 0 7.5 3t4.5 7l20 93q1 4 4.5 7t8.5 3l74-1q5 0 9 3t5 8q1 6-3 10z"/></svg>