<svg viewBox="0 0 300 302.0011" xmlns="http://www.w3.org/2000/svg"><path d="M250 77V63q0-16-8.5-30.5t-23-23Q204 1 187 1h-74Q96 1 81.5 9.5t-23 23Q50 47 50 64v13q-22 5-36 22T0 138v100q0 17 8.5 31.5t23 23Q46 301 63 301h175q16 0 30.5-8.5t23-23Q300 255 300 238V138q0-22-14-39t-36-22zM25 238V138q0-12 7-21.5T50 103v171q-11-4-18-13.5T25 239v-1zM75 63q0-15 11-26t26-11h76q15 0 26 11t11 27v212H75V63zm200 175q0 13-7 22.5T250 274V103q11 4 18 13.5t7 22.5v99zm-137-62q0 5-4 8.5t-9 3.5h-12q-6 0-9.5-3.5T100 176q0-5 3.5-9t9.5-4h12q5 0 9 4t4 9zm62 0q0 5-3.5 8.5T188 188h-13q-5 0-9-3.5t-3.5-8.5q.5-5 4-8.5t8.5-4.5h13q5 0 8.5 4t3.5 9zm-62 50q0 5-4 8.5t-9 3.5h-12q-6 0-9.5-3.5T100 226q0-5 3.5-9t9.5-4h12q5 1 9 4.5t4 8.5zm62 0q0 5-3.5 8.5T188 238h-13q-5 0-9-3.5t-3.5-8.5q.5-5 4-9t8.5-4h13q5 1 8.5 4.5t3.5 8.5zm-37-113q0 6-4 9.5t-9 3.5q-5 0-9-3.5t-4-9.5v-12h-12q-5 0-9-3.5t-3.5-9q.5-5.5 4-9T125 76h13V63q0-5 3.5-8.5T150 51q5 0 9 3.5t4 8.5v13h12q5 0 9 3.5t4 9q0 5.5-4 9t-9 3.5h-12v12z"/></svg>