<svg viewBox="0 0 300 302.0011" xmlns="http://www.w3.org/2000/svg"><path d="M299 118q-8-33-30-60t-53-42Q185 1 149 1T82 16.5Q51 32 30 58.5T1 118q-2 8 0 16t7.5 15q5.5 7 13 10.5T38 163h61q-5 22-8 49-4 23-4 33 1 15 9 28t22.5 20.5Q133 301 150 301t31.5-7.5Q196 286 204 273t8-28q1-10-3-33-3-27-8-48h61q9-1 16.5-4.5T292 149q11-14 7-31zM138 32q0 13-9.5 22T106 63q-8 0-15.5-4T79 47q26-17 58-20v5h1zm50 213q0 13-11 22t-27 9q-16 0-26.5-9T113 245q0-10 3-34 4-27 9-47h50q5 20 9 47 3 24 3 34h1zm84-112q-4 6-10 6H159q3-7 3-13 0-10-7-17.5t-17.5-7.5q-10.5 0-18 7.5T112 126q0 6 4 13H38q-6-1-10-5.5t-3-9.5q8-35 35-61 7 12 19.5 19t26.5 7q24 0 40.5-16.5T163 32l-1-5q41 3 72.5 30t40.5 67q1 5-3 9zm-47-38q0 8-5.5 13.5T206 114q-8 0-13-5.5T187.5 95q-.5-8 5-13.5T206 76q8 0 13.5 5.5T225 95z"/></svg>