<svg viewBox="0 0 300 302.0011" xmlns="http://www.w3.org/2000/svg"><path d="M231 138q8 0 13.5 5.5T250 157q0 8-5.5 13.5T231 176q-8 0-13.5-5.5T212 157q0-8 5.5-13.5T231 138zm-37 88q8 0 13-5.5t5-13.5q0-8-5-13.5t-13-5q-8 .5-13.5 5.5t-5.5 13q0 8 5.5 13.5T194 226zM179 22q-4-4-4-9t4-8.5q4-3.5 9-3.5t8 3q3 3 7 8 6 10 11 21 4-6 9-10 17-18 49-22 12-1 20.5 7.5T300 29q-4 32-22 49-13 14-35 20-14 3-28 3-9 0-13-6-2-3-2-7 0-27-10-49-6-11-11-17zm47 53q23-2 34.5-14T275 26q-23 3-35 14.5T226 75zm71 48q-1-5-5.5-7.5T282 114q-5 1-8 5.5t-1 9.5q2 11 2 22 0 52-32 81-28 26-82 36-42 8-109 8-11 0-19-8t-8-19q0-8 4-15 2-2 16-13 30-24 30-70 0-35 21.5-62.5T153 53q5-1 7.5-5t1.5-9.5q-1-5.5-5.5-8T147 29q-28 7-50 24.5t-34.5 43Q50 122 50 151q0 34-20 50-18 15-21 19-9 13-9 29 0 21 15 36.5T52 301q46 0 73-2 47-4 81-17 43-15 67-44 27-34 27-87 0-14-3-28z"/></svg>