<svg viewBox="0 0 300 302.0011" xmlns="http://www.w3.org/2000/svg"><path d="M266 174l-5-3q2-10 2-20t-2-21l5-3q14-7 18-22.5T280 76q-8-13-22.5-17.5T229 62l-6 3q-16-13-35-20v-7q0-15-11.5-26T150 1q-15 0-26 11t-11 26v7q-20 7-36 20l-6-3q-13-7-28-3T20 76q-8 13-4 28t18 23l5 3q-2 11-2 21t2 20l-5 3q-14 8-18 23t4 28.5Q28 239 42.5 243t28.5-4l6-3q16 14 35 21v6q0 16 11 27t26.5 11q15.5 0 26.5-11t11-27v-6q20-7 36-21l6 3q13 8 28 4t23-17.5q8-13.5 4-28.5t-18-23zm-32-46q4 12 4 23t-4 23q-1 4 .5 8t5.5 6l14 8q4 3 5.5 8t-1 9.5q-2.5 4.5-7.5 6t-10-1.5l-13-8q-4-2-8-1.5t-7 3.5q-18 18-41 24-4 1-6.5 4.5T163 248v16q0 5-4 8.5t-9 3.5q-5 0-8.5-3.5T138 264v-16q0-4-3-7.5t-7-4.5q-23-6-40-24-4-4-8.5-4t-7.5 2l-13 8q-5 3-10 1.5t-7.5-6q-2.5-4.5-1-9.5t5.5-8l14-8q3-2 5-6t1-8q-4-12-4-23t4-23q1-4-1-8t-5-6l-14-8q-4-3-5.5-8t1-9.5q2.5-4.5 7.5-6T59 84l13 8q4 2 8 1.5t7-3.5q17-18 41-24 4-1 6.5-4.5T137 54V38q0-5 4-8.5t9-3.5q5 0 8.5 3.5T162 38v16q0 4 3 7.5t7 4.5q23 6 40 24 3 3 7.5 3.5T228 92l13-8q5-3 9.5-1.5t7.5 6q3 4.5 1.5 9.5t-5.5 8l-14 8q-4 2-5.5 6t-.5 8zm-62-25l-20 100q-1 5-4.5 7.5T140 213h-2q-6-1-8.5-5t-1.5-10l20-100q1-5 5-7.5t9.5-1.5q5.5 1 8 5t1.5 9zm-57 34l-15 15 15 15q4 3 4 8.5t-3.5 9q-3.5 3.5-9 3.5t-9.5-4l-15-15q-7-7-7-17.5t7-17.5l15-15q4-4 9-4t9 4q4 4 4 9t-4 8v1zm103-3q7 7 7 17.5t-7 17.5l-15 15q-4 4-9 4t-9-3.5q-4-3.5-4-9t4-8.5l15-15-15-15q-4-4-4-9t4-9q4-4 9-4t9 4l15 15z"/></svg>