<svg viewBox="0 0 300 302.0011" xmlns="http://www.w3.org/2000/svg"><path d="M250 151h-17q-18-43-54-73-17-14-40-15h-29l-9-33Q97 14 83 6T53.5 2Q38 6 30 20t-4 30l4 13H13q-6 0-9.5 4T0 76q0 5 3.5 8.5T12 89h127q14 0 24 8 27 23 43 54h-11q-11 0-21 6l-25 17q-3 2-6 2H13q-6 0-9.5 3.5t-3.5 9q0 5.5 3.5 9T12 201h131q11 0 20-6l25-17q3-2 7-2h55q6 0 12 3t9.5 8.5q3.5 5.5 3.5 12t-2 12.5q-14 29-42 46.5T171 276H13q-6 0-9.5 3.5t-3.5 9q0 5.5 3.5 9T12 301h159q40 0 73.5-21.5T295 222q6-11 5-24t-8-24q-7-11-18-17t-24-6zM50 43q-1-5 2-10t8.5-6.5Q66 25 71 28t6 8l7 27H56l-6-20zM0 126q0-5 3.5-9t8.5-4h113q5 0 9 4t4 9q0 5-4 9t-9 4H13q-6 0-9.5-4T0 126zm50 125q-5 0-8.5-3.5t-3.5-9q0-5.5 3.5-9T50 226q5 0 8.5 3.5t4 9q.5 5.5-3.5 9t-9 3.5zm50 0q-5 0-8.5-3.5t-3.5-9q0-5.5 3.5-9t8.5-3.5q5 0 8.5 3.5t3.5 9q0 5.5-3.5 9T100 251zm50 0q-5 0-9-3.5t-3.5-9q.5-5.5 4-9t8.5-3.5q5 0 9 3.5t4 9q0 5.5-4 9t-9 3.5z"/></svg>