<svg viewBox="0 0 300 302.0011" xmlns="http://www.w3.org/2000/svg"><path d="M75 151q-5 0-8.5-3.5T63 139q-1-19 10-35t27-16q16 0 27 16t11 35q0 5-4 8.5t-9 3.5q-5 0-8.5-3.5T113 139q0-10-5-17.5t-8-8q-3-.5-7.5 7.5T88 138q0 6-4 9.5t-9 3.5zm125-63q-16 0-27 16t-11 35q1 5 4.5 8.5t8.5 3.5q5 0 9-3.5t4-8.5q0-10 4.5-17.5t7.5-8q3-.5 8 7.5t5 17q0 6 3.5 9.5t8.5 3.5q5 0 8.5-3.5t4.5-8.5q0-19-11-34.5T200 89v-1zm100 63q0 41-20 75.5T225.5 281Q191 301 150 301q-57-2-95-33-35-29-47.5-73t0-88Q20 63 55 34 93 3 150 1q41 0 75.5 20T280 75.5q20 34.5 20 75.5zm-25 0q0-34-17-62.5T212.5 43Q184 26 150 26q-47 2-79 28-30 23-40 60t0 74q10 37 40 60 32 26 79 28 34 0 62.5-17t45.5-45.5q17-28.5 17-62.5zm-65 25q-29 11-60 13-31-2-60-13-4 0-7.5 1t-5.5 4.5q-2 3.5-2 7t2 6.5q11 20 30.5 31.5T150 238q23 0 42.5-11.5T223 195q2-3 2-6.5t-2-7q-2-3.5-5.5-5t-7.5-.5z"/></svg>