<svg viewBox="0 0 300 302.0011" xmlns="http://www.w3.org/2000/svg"><path d="M289 66q11-12 11-27.5T289 12Q278 1 262.5 1T235 12l-30 31q-9 9-26 8t-31-9q-11-5-23-2.5t-19 12q-7 9.5-6 22T110 94l17 18L25 214q-10 10-12 24.5t5 26.5L4 280q-4 3-4 8.5t3.5 9q3.5 3.5 9 3.5t8.5-4l15-14q12 7 26.5 5T87 276l102-102 18 17q8 9 20.5 10t22-6q9.5-7 12-19t-2.5-23q-8-14-9-31t8-26l31-30zM70 258q-6 5-13.5 5T43 258q-6-5-6-13t6-14l102-101 26 26L70 258zM241 78q-16 16-16 42 0 24 12 45 2 5-2 9-2 2-5 2t-6-2l-97-97q-3-4-1-8.5t7-4.5q1-1 3 0 21 12 45 12 26 0 42-16l30-30q4-4 9-4t9 3.5q4 3.5 4 9t-4 9.5l-30 30z"/></svg>