<svg viewBox="0 0 300 302.0011" xmlns="http://www.w3.org/2000/svg"><path d="M300 76v126q0 20-7.5 38.5T271 273l-25 24q-3 4-8.5 4t-9-3.5q-3.5-3.5-3.5-9t4-8.5l24-25q11-10 16.5-24t5.5-29V76q0-5-3.5-9t-9-4q-5.5 0-9 4t-3.5 9v101q0 13-9 23l-32 34q-4 3-9 3t-8.5-3.5q-3.5-3.5-4-8.5t3.5-9l32-33q2-3 2-7v-1q0-4-3.5-7.5t-8.5-4q-5-.5-9 3.5l-39 36q10 20 10 41v45q0 5-3.5 8.5t-9 3.5q-5.5 0-9-3.5T150 289v-45q0-13-5.5-25T130 198l-34-31q-4-4-9-3.5t-8.5 4q-3.5 3.5-3.5 8t3 8.5l32 33q4 4 3.5 9t-4 9q-3.5 4-8.5 3.5t-9-3.5l-33-34q-8-10-9-24V76q0-5-3.5-8.5t-9-3.5q-5.5 0-9 3.5T25 76v126q0 15 5.5 29T47 255l24 25q4 3 4 8.5t-3.5 9q-3.5 3.5-9 3.5t-8.5-4l-25-24q-14-14-21.5-32.5T0 202V76q0-16 11-26.5t26.5-11Q53 38 64 49t11 27v65q10-4 20-2t17 9l38 35 37-35q8-7 18-9t20 2V76q0-15 11-26t26.5-11Q278 39 289 50t11 26zM88 41q-1-17 10-28.5T124.5 1Q140 1 150 10q10-9 25.5-9t26 11.5Q212 24 212.5 41T197 78q-12 15-31 31-7 5-16 5t-16-5q-19-16-31-31-16-20-16-37h1zm25 0q0 8 10 21.5T150 89q17-13 27.5-26.5T188 41q0-6-4-10.5t-9-4.5q-5 0-8.5 3t-3.5 9q0 6-4 9.5t-9 3.5q-5 0-8.5-3.5T138 38q0-6-4-9t-9-3q-5 0-8.5 4.5T113 41z"/></svg>