<svg viewBox="0 0 300 302.0011" xmlns="http://www.w3.org/2000/svg"><path d="M300 126v-3l-17-73q-4-22-21.5-35.5T222 1H78Q56 1 38.5 14.5T17 50L0 126v12q0 19 12 34v66q1 17 9 31.5t22.5 23Q58 301 75 301h150q17 0 31.5-8.5t22.5-23q8-14.5 9-30.5v-67q12-15 12-33v-13zm-275 1l16-72q3-13 13-21t24-8h10v37q0 6 3.5 9.5T100 76q5 0 8.5-3.5T112 64V26h76v37q0 6 3.5 9.5T200 76q5 0 9-3.5t4-8.5V26h9q14 0 24 8t13 21l16 72v11q0 11-7.5 18t-17.5 7h-12q-11 0-18-7t-7-18q0-5-4-8.5t-9-3.5q-5 0-9 3.5t-4 8.5q1 11-6.5 18t-18.5 7h-24q-11 0-18-7t-7-18q0-5-4-8.5t-9-3.5q-5 0-8.5 3.5T88 138q0 11-7.5 18T63 163H50q-10 0-17.5-7T25 138v-11zm200 149H75q-16 0-27-11t-11-26v-52q7 2 13 2h13q10 0 20-4.5t17-12.5q7 8 17 12.5t21 3.5h25q10 1 20-3.5t17-12.5q7 8 17 12.5t20 3.5h13q6 1 13-1v51q0 16-11 27t-27 11z"/></svg>