<svg viewBox="0 0 300 302.0011" xmlns="http://www.w3.org/2000/svg"><path d="M282 13q-9-8-19.5-10.5T241 2L126 23q-22 5-36.5 22T75 85v123q-12-7-25-7-21 0-35.5 14.5T0 251q0 21 14.5 35.5T50 301q21 0 35.5-14.5T100 251V137q0-9 6-16t14-9l140-26q6-1 10.5 3t4.5 10v71q-12-6-25-7-21 0-35.5 15T200 213.5q0 20.5 14.5 35T250 263q21 0 35.5-14.5T300 213V51q0-11-4.5-21T282 13zM50 276q-10 0-17.5-7.5T25 251q0-10 7.5-17.5T50 226q10 0 17.5 7.5T75 251q0 10-7.5 17.5T50 276zM256 62L116 88q-9 1-16 6v-9q0-14 8.5-24.5T131 48l114-22q12-2 21 5.5t9 19.5v12q-9-3-19-1zm-6 176q-10 0-17.5-7t-7.5-17.5q0-10.5 7.5-17.5t17.5-7.5q10-.5 17.5 7t7.5 18q0 10.5-7.5 17.5t-17.5 7z"/></svg>