<svg viewBox="0 0 300 302.0011" xmlns="http://www.w3.org/2000/svg"><path d="M238 39V13q0-5-4-8.5T225 1q-5 0-8.5 3.5T212 13v14q-6-1-12-1h-12V13q0-5-4-8.5T175 1q-5 0-9 3.5t-4 8.5v13h-24V13q-1-5-4.5-8.5T125 1q-5 0-8.5 3.5T113 13v13h-13q-6 0-12 1V13q0-5-4-8.5T75 1q-5 0-8.5 3.5T63 13v26q-12 9-18.5 22T38 88v150q0 17 8 31.5t22.5 23Q83 301 100 301h100q17 0 31.5-8.5t22.5-23q8-14.5 9-30.5V88q-1-14-7.5-27T237 39h1zm0 199q-1 16-11.5 27T200 276H100q-16 0-27-11t-11-26V88q1-15 11.5-26T100 51h100q16 0 27 11t11 27v149zm-25-137q0 5-4 9t-9 4H100q-5 0-8.5-4t-3.5-9q0-5 3.5-9t8.5-4h100q5 0 9 4t4 9zm0 50q0 5-4 9t-9 4H100q-5-1-8.5-4.5T88 151q0-5 3.5-9t8.5-4h100q5 0 9 4t4 9zm-50 50q0 5-4 8.5t-9 3.5h-50q-5 0-8.5-3.5T88 201q0-5 3.5-8.5t8.5-3.5h50q5-1 8.5 3t3.5 9h1z"/></svg>