<svg viewBox="0 0 300 302.0011" xmlns="http://www.w3.org/2000/svg"><path d="M259 130l-53-77q-9-13-22.5-20T154 26h-48q-19 0-35 11T48 66l-26 69q-10 7-16 18t-6 23v19q0 11 7 19.5T25 225v7q0 18 13 31t31 13q18 0 31-13t13-31v-6h75v6q0 18 12.5 31t30.5 13q18 0 31-13t13-31v-7q11-2 18-10.5t7-19.5v-7q0-19-11-35t-30-23zm-74-63l41 59h-88V51h16q9 0 17.5 4T185 67zM71 75q4-11 14-17.5t21-6.5h7v75H52l19-51zm17 157q0 8-5.5 13.5T69 251q-8 0-13.5-5.5T50 232v-6h38v6zm143 19q-8 0-13.5-5.5T212 232v-6h38v6q0 8-5.5 13.5T231 251zm44-56q0 2-2 4t-4 2H31q-2 0-4-2t-2-4v-19q0-10 7.5-17.5T50 151h188q15 0 26 11t11 26v7z"/></svg>