<svg viewBox="0 0 300 302.0011" xmlns="http://www.w3.org/2000/svg"><path d="M88 1H50Q29 1 14.5 15.5T0 51v37q0 21 14.5 35.5T50 138h38q20 0 35-14.5T137 89V51q1-21-14-35.5T88 1zm25 87q0 11-7.5 18T87 113H50q-10 0-17.5-7T25 88V51q0-10 7.5-17.5T50 26h38q10 0 17.5 7.5T113 51v37zm-25 75H50q-21 1-35.5 15.5T0 213v38q0 21 14.5 35.5T50 301h38q20 0 34.5-14.5T137 251v-38q1-20-14-35t-35-14v-1zm25 88q0 10-7.5 17.5T87 276H50q-10 0-17.5-7.5T25 251v-38q0-10 7.5-17.5T50 188h38q10 0 17.5 7.5T113 213v38zm137-88h-37q-21 0-35.5 15T163 213v38q0 21 14.5 35.5T213 301h37q21 0 35.5-14.5T300 251v-38q0-20-14.5-35T250 164v-1zm25 88q0 10-7.5 17.5T250 276h-37q-11 0-18-7.5t-7-17.5v-38q0-10 7-17.5t18-7.5h37q10 0 17.5 7.5T275 213v38zM175 88h100q5 0 9-3.5t4-8.5q0-5-4-9t-9-4H175q-5 1-9 4.5t-3.5 8.5q.5 5 4 9t8.5 4v-1z"/></svg>