<svg viewBox="0 0 300.0228 302.0011" xmlns="http://www.w3.org/2000/svg"><path d="M234 255q4 4 3.5 9t-4.5 9l-20 18q-10 10-25.5 10T161 290l-19-17q-4-4-4.5-9t3-9q3.5-4 8.5-4t9 3l17 15v-93q0-5 3.5-9t9-4q5.5 0 9 4t3.5 9v93l17-15q4-3 9-3t8 4zm-5-162q-7-2-9-9-10-33-38-52.5T119.5 14Q85 16 59 38.5T27 94q-3 17-.5 33.5T37 159q-20 10-30 29.5T1 230q5 25 24.5 41.5T71 289h29q5-1 9-4.5t4-8.5q0-5-4-9t-9-4H71q-16 0-29-10.5T25 226q-2-14 4.5-26T48 181q9-5 12-14.5T58 148q-10-19-8.5-40.5t14.5-39Q77 51 96.5 43t40.5-4.5q21 3.5 37 18T197 91q2 9 9 16t16 10q25 8 40 29.5t13 48.5q-2 20-14 36-3 4-2.5 9t4.5 8.5q4 3.5 9.5 2.5t8.5-5q17-22 19-50 3-35-17-64t-54-39z"/></svg>