<svg viewBox="0 0 300 302.0011" xmlns="http://www.w3.org/2000/svg"><path d="M100 151q20 0 37.5-10t27.5-27.5Q175 96 175 76t-10-37.5Q155 21 137.5 11T100 1Q80 1 62.5 11T35 38.5Q25 56 25 76t10 37.5Q45 131 62.5 141t37.5 10zm0-125q21 0 35.5 14.5T150 76q0 21-14.5 35.5T100 126q-21 0-35.5-14.5T50 76q0-21 14.5-35.5T100 26zm100 250v12q0 6-3.5 9.5t-9 3.5q-5.5 0-9-3.5T175 288v-12q0-20-10-37.5T137.5 211Q120 201 100 201t-37.5 10Q45 221 35 238.5T25 276v12q0 6-3.5 9.5t-9 3.5q-5.5 0-9-3.5T0 288v-12q0-27 13.5-50T50 189.5Q73 176 100 176t50 13.5q23 13.5 36.5 36.5t13.5 50zm96-147l-50 48q-11 11-27 11t-28-11l-25-23q-3-4-3.5-9t3-9q3.5-4 9-4t9.5 4l24 23q5 4 11 4t10-4l50-48q3-4 8.5-4t9 4q3.5 4 3.5 9t-4 9z"/></svg>