<svg viewBox="0 0 300 302.0011" xmlns="http://www.w3.org/2000/svg"><path d="M297 297q-4 4-9 4t-9-3L150 180 21 298q-4 3-9 3t-8.5-4Q0 293 0 288t4-9l134-121V13q0-5 3.5-8.5T150 1q5 0 9 3.5t4 8.5v145l133 121q4 4 4 9t-3 9zM219 38q8 0 13.5-5t5.5-13q0-8-5.5-13.5T219 1q-8 0-13.5 5.5T200 20q0 8 5.5 13t13.5 5zm62 63q8 0 13.5-5.5T300 82q0-8-5.5-13.5T281 63q-8 0-13 5.5T263 82q0 8 5 13.5t13 5.5zM119 251q-8 0-13.5 5.5T100 270q0 8 5.5 13t13.5 5q8 0 13.5-5t5.5-13q0-8-5.5-13.5T119 251zm75 12q-8 0-13.5 5.5T175 282q0 8 5.5 13.5T194 301q8 0 13.5-5.5T213 282q0-8-5.5-13.5T194 263zM81 101q8 0 13.5-5.5T100 82q0-8-5.5-13.5T81 63q-8 0-13 5.5T63 82q0 8 5 13.5t13 5.5zM19 38q8 0 13.5-5T38 20q0-8-5.5-13.5T19 1Q11 1 5.5 6.5T0 20q0 8 5.5 13T19 38zm6 132q0 8 5.5 13t13.5 5q8 0 13.5-5t5.5-13q0-8-5.5-13.5T44 151q-8 0-13.5 5.5T25 170zm200-13q0 8 5.5 13.5T244 176q8 0 13.5-5.5T263 157q0-8-5.5-13.5T244 138q-8 0-13.5 5.5T225 157z"/></svg>