<svg viewBox="0 0 300 302.0011" xmlns="http://www.w3.org/2000/svg"><path d="M300 76q0-17-8.5-31.5t-23-23Q254 13 238 13h-75q-17 0-31.5 8.5t-23 23Q100 59 100 76v7L21 5q-3-4-8.5-4t-9 3.5Q0 8 0 13.5T4 22l275 275q3 4 8.5 4t9-3.5q3.5-3.5 3.5-9t-4-8.5l-12-12q16-18 16-42V76zm-175 0q0-16 11-26.5T162 39h76q15-1 26 10t11 27v100q-17-13-38-12-23-1-41 15l-71-71V76zm89 121q10-8 24.5-8t25.5 10.5q11 10.5 11 25t-9 25.5l-52-53zm-101-34q-6 0-9.5 4t-3.5 9q-17-12-37-12-17-1-31.5 7.5t-23 23Q0 209 0 226t8.5 31.5q8.5 14.5 23 23t31 8q16.5-.5 31-8.5t23-22.5Q125 243 125 226v-50q0-5-3.5-8.5T112 164l1-1zM63 263q-16 0-27-10.5T25 226q0-16 11-27t26.5-11Q78 188 89 199t11 27q0 16-11 27t-26 11v-1z"/></svg>