<svg viewBox="0 0 300 302.0011" xmlns="http://www.w3.org/2000/svg"><path d="M225 113V13q0-5 3.5-8.5T237 1q12 0 22 5l36 15q5 4 5 11t-5 11l-45 24v46q0 6-3.5 9.5t-9 3.5q-5.5 0-9-3.5T225 113zm25 63h-87q-11 0-18-7.5t-7-17.5q0-10 7-17.5t17-7.5h26q5 0 8.5-3.5t3.5-9q0-5.5-3.5-9T188 101h-25q-21 0-35.5 14.5T113 151q0 21 14.5 35.5T163 201h87q10 0 17.5 7.5T275 226q0 10-7.5 17.5T250 251h-75q-5 0-8.5 3.5t-3.5 9q0 5.5 3.5 9t8.5 3.5h75q21 0 35.5-14.5T300 226q0-21-14.5-35.5T250 176zm-144 62l-1 1h-1l-14-26h10q5 0 8.5-3.5t3.5-8.5q0-5-3.5-8.5T100 189H83q-12-1-18 9.5t0 20.5v2l-11 7-8-15q-4-5-9.5-8.5T24 201H12q-5 0-8.5 3.5t-3.5 9q0 5.5 3.5 9T12 226h12l8 13h-1q-13 0-22 9t-9 22q0 13 9 22t22 9q13 0 22-9t9-22q0-8-4-16l19-11 5 8q-7 8-7 19 0 13 9 22t22 9q13 0 22-9t9-22q0-13-9-22t-22-9v-1z"/></svg>