<svg viewBox="0 0 300 302.0011" xmlns="http://www.w3.org/2000/svg"><path d="M265 216l34-171q3-17-8-30.5T262 1H138q-16 0-27 11t-11 27v176q-16 4-27 17.5t-11 30Q62 279 73 290t27 11h163q15 0 26-11t11-27q0-16-10-29t-25-18zM138 26h124q6 0 10 4.5t3 9.5l-35 173H125v-25h25q5 0 9-3.5t4-8.5q0-5-4-8.5t-9-4.5h-25v-25h25q5 0 9-3.5t4-8.5q0-5-4-8.5t-9-3.5h-25V88h25q5 1 9-3t4-9q0-5-4-9t-9-3h-25V38q0-5 3.5-8.5T137 26h1zm125 250H100q-5 0-8.5-3.5T88 264q0-11 7-18t18-7h137q10 0 17.5 7t7.5 18q0 5-3.5 8.5T262 276h1zM61 200l-13 1q-13 0-23-10-17-16-22.5-47T3 82q6-31 22-46 10-10 23-10l13 1q6 0 10 4t4 9l-3 20q0 6-4 10t-9 4l-20 1q-17 38 0 77l20 1q5 0 9 4t4 10l3 20q0 5-4 9t-10 4z"/></svg>