<svg viewBox="0 0 300.0311 302.0011" xmlns="http://www.w3.org/2000/svg"><path d="M222.03 193q3 4 3 9t-4 8q-9 8-22 15-25 13-49 13t-49-13q-13-7-22-15-4-3-4-8t3.5-9q3.5-4 8.5-4.5t9 3.5q6 5 16 11 20 11 38 10.5t38-10.5q10-6 16-11 4-4 9-3.5t9 4.5zm-5-89q-17 13-35 26-7 6-7 14.5t5.5 14q5.5 5.5 13.5 5.5t13-5.5q5-5.5 5-13.5v-6l21-16q4-3 4.5-8t-2.5-9q-3-4-8-5t-10 3zm-129 41q0 8 5 13.5t13 5.5q8 0 13.5-5.5t5.5-14q0-8.5-7-14.5l-35-26q-5-4-10-3t-8 5q-3 4-2.5 9t4.5 8l21 16q0 3-1 6h1zm212 6q0 41-20 75.5t-54.5 54.5q-34.5 20-75.5 20t-75.5-20q-34.5-20-54.5-54.5T.03 151q0-33 15-64l-15-71q-1-8 5-12.5t13-1.5l50 24q37-25 82-25t82 24l50-23q7-3 13 1.5t5 12.5l-15 71q15 31 15 64zm-25 0q0-34-17-62.5T212.53 43q-28.5-17-62.5-17t-62.5 17q-28.5 17-45.5 45.5t-17 62.5q0 34 17 62.5t45.5 45.5q28.5 17 62.5 17t62.5-17q28.5-17 45.5-45.5t17-62.5z"/></svg>