<svg viewBox="0 0 300 302.0011" xmlns="http://www.w3.org/2000/svg"><path d="M125 301q-34 0-62.5-17T17 238.5Q0 210 0 176q0-41 40-101 21-30 44-56h1q7-8 17.5-13T125 1q12 0 22.5 5T166 20q29 32 48 60 31 48 35 90 5 54-36 94-17 18-40 27.5t-48 9.5zm0-275q-13 0-22 10-21 22-40 50-38 55-38 90-1 32 16.5 56T87 267.5q28 11.5 57.5 6.5t51.5-27q33-33 28-78-5-34-31-75-15-23-42-53l-4-5q-8-10-22-10zm138 50q-16 0-27-11t-11-26.5Q225 23 236 12t26.5-11Q278 1 289 12t11 26.5Q300 54 289 65t-27 11h1zm0-50q-6 0-9.5 3.5t-3.5 9q0 5.5 3.5 9t9 3.5q5.5 0 9-3.5t3.5-9q0-5.5-3.5-9T263 26z"/></svg>