<svg viewBox="0 0 300 302.0011" xmlns="http://www.w3.org/2000/svg"><path d="M300 170q0-29-14.5-53.5T247 78q-24-14-53-14h-31q0-13-7-22.5T137 28V13q1-5-3-8.5T125 1q-5 0-9 3.5t-4 9.5v14q-11 4-18 13.5T87 63v100q1 6 4.5 9.5t8.5 3.5h50q5 0 9-3.5t4-8.5V88h31q22 0 40.5 11t29.5 30q11 19 11 41t-11 40.5Q253 229 234.5 240T194 251h-56v-25h50q5 0 8.5-3.5t3.5-9q0-5.5-3.5-9T188 201H63q-6 0-9.5 3.5t-3.5 9q0 5.5 3.5 9T63 226h50v25H25q-5 0-8.5 3.5t-3.5 9q0 5.5 3.5 9T25 276h13v12q0 6 3.5 9.5T50 301q5 0 9-3.5t3-9.5v-12h126v12q-1 6 3 9.5t9 3.5q5 0 9-3.5t4-9.5v-14q24-4 44-19t31.5-37.5Q300 195 300 170zm-162-19h-25V63q0-5 3.5-8.5T125 51q5 0 9 3.5t3 9.5v87h1z"/></svg>