<svg viewBox="0 0 300 302.0011" xmlns="http://www.w3.org/2000/svg"><path d="M273 192q4 4 3.5 9.5t-4.5 9q-4 3.5-10 6.5 0 13-6.5 24T237 258v18q0 10-7 17.5t-17.5 7.5q-10.5 0-18-7.5T187 276v-4q-9 4-18 4-14 0-25-7-12 7-25 7h-7q0 10-7 17.5T87.5 301q-10.5 0-18-7.5T62 276v-13q-16-4-26.5-16.5T25 217q-11-6-18-17t-7-24q0-13 7-24t18-17q0-19 14-33t33-14q7 1 13 2 8-8 19.5-11.5T127 77q5 1 8 5t2 9q-1 5-5 8t-10 2q-6-1-12.5 2t-9.5 8.5q-3 5.5-8 6.5t-9.5-2q-4.5-3-10.5-3-9 0-15.5 6.5T50 135l1 5q1 5-2 9.5t-8 5.5q-7 2-11.5 8T25 176q0 7 4.5 13t11.5 8q5 1 8 5.5t2 9.5l-1 5q0 9 6.5 15t15.5 6q6 0 10.5-2.5T92 234q5 1 7.5 5t5 6q2.5 2 3.5 3 7 3 14.5 2t11.5-5.5q4-4.5 9.5-4.5t9.5 4q7 8 18 6.5t17-10.5q2-5 7-6t10 1.5q5 2.5 11 2.5 9 0 15-6t6-15v-5q-1-5 1.5-9.5t7.5-5.5q5-1 9-5t9.5-3.5q5.5.5 8.5 3.5zm26-130q-8 12-24 16v51q0 22-15 34.5T219 176q-26 0-41.5-12.5T162 129l1-51q-17-4-24-16-3-4-1-8t6-6q16-3 35-6l5-4q-6-12-22-12-5 0-8.5-3.5t-3.5-9q0-5.5 3.5-9T162 1q16 0 27.5 7T207 27q6-1 12-1t12 1q6-12 17.5-19T275 1q5 0 8.5 3.5t3.5 9q0 5.5-3.5 9T275 26q-16 0-22 12l5 4q20 3 35 6 5 2 6.5 6t-.5 8zm-49 20q0-13-9-22t-22-9q-13 0-22.5 9T187 82v47q0 22 31.5 22t31.5-22V82z"/></svg>