<svg viewBox="0 0 300.0012 302.0011" xmlns="http://www.w3.org/2000/svg"><path d="M275 146l11-11q14-15 14-35.5T286 64l-9-9 15-10q7-7 8-17t-6-18q-7-8-18-8.5T258 8l-12 16-9-9Q222 1 201.5 1T166 15L56 126q-10-13-12-17-7-8-17.5-8.5T8 108q-8 8-8 18t7 17l18 14-10 10Q0 181 0 202t15 36l48 48q15 15 35.5 15t35.5-14l13-14q14 19 16 21 7 7 17 7t17.5-7.5q7.5-7.5 7-18.5t-8.5-18q-3-2-17-12l-2-1 68-68 13 18q7 7 17 7t19-9q7-8 6-18t-8-17q-4-2-17-11zM143 74q14 19 15 20 7 7 17 7t19-9q7-8 6-18t-8-17q-4-3-18-12l-1-1 11-11q7-7 17.5-7t17.5 7l49 49q7 7 7 17.5t-7 17.5l-67 68-84-84 26-27zm-27 195q-7 7-17.5 7T81 269l-10-11q19-11 22-13 8-7 8-17.5t-6.5-18q-6.5-7.5-17.5-8T59 208l-16 23-11-11q-7-7-7-17.5t7-18.5l68-66 26 27-19 14q-7 7-6.5 17.5t8 17.5q7.5 7 18 6.5T144 193q3-4 12-18l28 27-68 67z"/></svg>