<svg viewBox="0 0 300 302.0011" xmlns="http://www.w3.org/2000/svg"><path d="M244 1h-56q-11 0-18 7.5T162 26v50q1 10 8 17.5t17 7.5h88q10 0 17.5-7.5T300 76V57q0-23-16.5-39.5T244 1zm-56 75V26h56q13 0 22 9t9 22v19h-87zm87 50H100V76q0-10-7.5-17.5T75 51H56q-23 0-39.5 16.5T0 107v138q0 23 16.5 39.5T56 301h188q23 0 39.5-16.5T300 245v-94q0-10-7.5-17.5T275 126zm0 75H163v-50h112v50zm-75 25v50H100v-50h100zM25 107q0-13 9-22t22-9h19v50H25v-19zm113 44v50H25v-50h113zM25 245v-19h50v50H56q-13 0-22-9t-9-22zm219 31h-19v-50h50v19q0 13-9 22t-22 9z"/></svg>