<svg viewBox="0 0 300 302.0011" xmlns="http://www.w3.org/2000/svg"><path d="M200 1h-2q-8 0-15 5.5T174 20t-9 13.5q-7 5.5-15 5.5t-15-5.5q-7-5.5-9-13.5t-9-13.5Q110 1 102 1h-2Q83 1 68.5 9.5T46 32.5Q38 47 37 63v200q1 16 11.5 27T75 301h27q8 0 15-5.5t9-13.5 9-13.5q7-5.5 15-5.5t15 5.5q7 5.5 9 13.5t9 13.5q7 5.5 15 5.5h27q16 0 27-11t11-27V63q-1-16-9-30.5t-22.5-23Q217 1 200 1zm25 275l-27-1q-4-16-17.5-26.5t-30.5-10q-17 .5-30.5 11T102 276H75q-5 0-8.5-3.5T63 264v-51h25q5 0 8.5-3.5t3.5-8.5q0-5-3.5-8.5T87 189H63V63q0-15 10.5-26T100 26l2 1q4 16 17.5 26T150 63q17 0 30.5-10.5T199 26h1q16 0 27 11t11 27v124h-25q-6 0-9.5 4t-3.5 9q0 5 3.5 8.5t8.5 3.5h26v50q0 6-4 9.5t-9 3.5zm-62-88h-25q-6 0-9.5 4t-3.5 9q0 5 3.5 8.5t9.5 3.5h25q5 0 8.5-3.5t3.5-8.5q0-5-3.5-8.5T163 189v-1z"/></svg>