<svg viewBox="0 0 300.0037 302.0011" xmlns="http://www.w3.org/2000/svg"><path d="M278 190q-38-6-70 9-26 13-46 39v-53q5-2 7-5 12-13 16-27 13 2 29-1 11-2 17-12t2-21q-4-14-11-24 7-10 11-23 4-11-2-21t-17-13q-16-3-28-1-4-14-17-27-7-9-19-9t-19 9q-13 13-17 27-12-2-28 1-11 3-17 12.5T67 72q4 13 11 23-7 10-11 23-4 11 2 21t17 13q16 3 29 0 4 15 16 28 2 3 6 5v52q-19-25-45-38-32-15-70-9-10 2-16 10t-5 17q4 36 31 57 19 16 49 22 22 5 48 5h43q25 0 47-5 30-6 50-22 27-21 31-57 1-9-5.5-17T278 190zm-147-65q-3-2-6-2t-6 2q-10 6-28 2v-1q4-15 12-21 5-4 5-10t-5-10q-8-6-12-21v-1q18-4 28 2 6 3 12 0t6-10l1-5q0-11 11-24h2q12 13 12 25v3q0 7 6 10.5t12 .5q10-6 28-2v1q-4 15-12 21-5 4-5 10t5 10q8 6 12 21v1q-18 4-28-2-6-3-12 .5t-6 10.5v2q0 12-12 26h-2q-11-14-11-26v-2q0-7-7-11zM47 255q-19-15-21-40 9-1 18-1 34 0 59 22 18 16 29 40-22 1-41-3-28-5-44-18zm206 0q-16 13-43 18-20 4-42 3 13-28 34-44 31-24 73-17-3 25-22 40zM150 114q-8 0-13.5-5.5T131 95q0-8 5.5-13.5T150 76q8 0 13.5 5.5T169 95q0 8-5.5 13.5T150 114z"/></svg>