<svg viewBox="0 0 300 302.0011" xmlns="http://www.w3.org/2000/svg"><path d="M138 76q0 5-4 9t-9 3.5q-5-.5-8.5 3.5t-3.5 9q0 5-4 8.5t-9 4q-5 .5-8.5-3.5t-3.5-9q0-16 10.5-27T125 63q5 1 9 4.5t4 8.5zm37 12q-5 0-9 4t-3.5 9q.5 5 4 9t8.5 3.5q5-.5 9 3.5t4 9q0 5 3.5 9t8.5 3.5q5-.5 9-4t4-8.5q0-16-11-27t-27-11zm99 82l-16 81q-5 22-22 36t-39 14h-94q-22 0-39-14t-22-36l-16-81q-12-7-18.5-18.5t-7-25Q0 113 7 101t18-18q2-17 13.5-29T66 39q6-13 19-20t28-5q7-7 17.5-10.5t21-1.5q10.5 2 19 8T183 26q18 1 30 14 11-3 21.5-1t19 8.5q8.5 6.5 14 15.5t7.5 20q11 6 18 18t6.5 25.5q-.5 13.5-7 25T274 170zM106 276l-6-74q0-11-7-18.5T75 176H53l14 70q3 14 14 22.5t25 7.5zm62 0l7-75q0-11-7.5-18t-17.5-7q-10 0-17.5 7.5T125 201l6 75h37zm79-100h-22q-10 0-17.5 7.5T200 201l-7 75q15 1 26-7.5t14-22.5l14-70zm28-50q0-8-4.5-14.5T258 103q-3-2-5.5-5t-2.5-7q1-7-2-13t-8.5-10q-5.5-4-12.5-4.5t-12 2q-5 2.5-10 1t-7.5-6q-2.5-4.5-7-7T181 51q-6 2-11.5-.5t-7-8.5q-1.5-6-5.5-10t-9.5-5.5q-5.5-1.5-11 1T128 35q-3 5-7 5.5T110 39h-4q-6-1-11.5 3.5t-6.5 10Q87 58 83 61t-9 3q-10 0-17 7t-7 18q1 4-1.5 8t-6.5 6q-9 3-13.5 10.5t-3 16.5q1.5 9 8.5 15t16 6h25q11 0 20.5 4.5T113 168q7-8 16.5-12.5T150 151q11 0 20.5 4.5T187 168q8-8 17.5-12.5T225 151h25q10 0 17.5-7.5T275 126z"/></svg>