<svg viewBox="0 0 300 302.0011" xmlns="http://www.w3.org/2000/svg"><path d="M209 65q6-7 11.5-19t4.5-21.5Q224 15 212 13q-5 0-8.5 4t-3.5 9q0 12-10.5 22.5T163 62V13q0-5-4-8.5T150 1q-5 0-9 3.5t-4 8.5v49q-16-3-26.5-13.5T100 26q0-5-3.5-9T87 13q-11 2-12 11.5T79.5 46Q85 58 91 65q-26 4-47 20.5t-33 40Q-1 149 0 176q0 30 16.5 59T61 282q30 19 64 19h50q43 0 74-22 28-20 41-53t8-68q-5-35-27-60-24-27-62-33zm-34 211h-50q-27-1-49.5-14.5t-36-36q-13.5-22.5-14-50t15-50.5Q56 102 81 93t50 0q-13 17-34 21-5 1-7.5 5.5T88 129q4 12 19 8 13-2 27-12.5t16-15.5q2 5 16 15.5t27 12.5q15 4 19-8 1-5-1.5-9.5T203 114q-21-4-34-21 37-10 64 6 25 14 35.5 43t3.5 60.5q-7 31.5-30 51.5-27 22-67 22z"/></svg>