<svg viewBox="0 0 300.011 302.0011" xmlns="http://www.w3.org/2000/svg"><path d="M291 164q-12-13-29-13H25V57q0-8 3.5-15T39 31q10-7 21-4.5T78 38l3 4-6 35q-1 6 2.5 12t11 7q7.5 1 13.5-3l45-34q5-4 6-10.5T151 37v-1q-5-7-14-7l-36-2-2-3Q85 6 65 2 48-1 33 5.5t-24 20Q0 39 0 55v99q0 11 1 22l3 23q3 19 11.5 35T37 262l-5 23q-2 6 1 10t8 6h3q4 0 7.5-2.5T56 291l3-14q22 12 46 11h93q23 1 43-9l3 12q1 5 4.5 7.5t7.5 2.5h3q5-2 8-6t1-10l-5-20q15-12 24-29t12-37l1-6q2-17-9-29zm-16 26l-1 6q-3 29-25 48.5T198 264h-93q-29-1-50.5-20T29 196l-2-20h236q5 0 9 4t3 10z"/></svg>