<svg viewBox="0 0 300 302.0011" xmlns="http://www.w3.org/2000/svg"><path d="M257 85l-18-45q-7-18-23-28.5T181 1h-63Q99 1 83 11.5T60 40L42 85q-8 21-4 43l26 123q4 22 21.5 36t39.5 14h49q22 0 39.5-14t21.5-36l26-123q4-22-4-43zm-21 38l-25 123q-3 13-13 21.5t-24 8.5h-49q-13 0-23.5-8.5T88 246L63 123q-3-15 2-29l18-44q5-11 14.5-17.5T118 26h63q12 0 21.5 6.5T216 50l18 44q6 14 2 29zm-36-10q0 6-3.5 9.5T188 126h-25v62q0 6-4 9.5t-9 3.5q-5 0-9-3.5t-4-9.5v-62h-24q-6 0-9.5-3.5t-3.5-9q0-5.5 3.5-9t9.5-3.5h25V76q0-5 3.5-9t8.5-4q5 0 9 4t4 9v25h25q5 0 8.5 3.5t3.5 8.5z"/></svg>