<svg viewBox="0 0 300 302.0011" xmlns="http://www.w3.org/2000/svg"><path d="M288 251q-6 0-9.5 3.5t-3.5 8q0 4.5-6.5 9T253 276q-12 0-20-9l2-2q31-33 39-77 3-14-4-26t-20-16v-33q0-20-14.5-34.5T200 64V51q0-21-14.5-35.5T150 1q-21 0-35.5 14.5T100 51v12q-21 0-35.5 15T50 114v32q-13 4-20 16t-5 26q9 44 40 77l2 2q-8 10-20 9-9 0-15.5-4.5t-6.5-9q0-4.5-3.5-8t-9-3.5q-5.5 0-9 3.5T0 264q0 15 14 26t33 11q19 0 34-12 15 12 34.5 12t34.5-12q15 12 34.5 12t34.5-12q15 12 34 12t33-11q14-11 14-26 0-6-3.5-9.5T288 251zM125 51q0-10 7.5-17.5T150 26q10 0 17.5 7.5T175 51v12h-50V51zm-25 37h100q10 0 17.5 7.5T225 114v23l-63-20q-12-4-24 0l-63 20v-24q0-10 7.5-17t17.5-7v-1zm16 188q-7 0-12.5-2.5T94 265q-4-9-10-17-27-27-34-64-1-5 1.5-9t6.5-6l80-26v120q0 4-6.5 8.5T116 276zm68 0q-9 0-15-4.5t-6-7.5V143l78 26q5 2 7.5 6t1.5 9q-7 37-34 64-6 8-10 17-4 6-9.5 8.5T184 276z"/></svg>