<svg viewBox="0 0 300 302.0011" xmlns="http://www.w3.org/2000/svg"><path d="M200 301q-16 0-27-11-16-15-8-38 6-17 21-32 6-6 14-6.5t14 5.5q8 9 14 18 10 15 10 27-1 15-11.5 26T200 301zm0-59q-1 1-4 5-7 9-8 13-2 7 3 12 3 3 6.5 3.5t7-1q3.5-1.5 5.5-4.5t3-7q-4-12-13-21zm-100 59q-16 0-27-11-16-15-8-38 6-17 21-32 6-6 14-6.5t14 5.5q15 15 21 32 8 24-8 39-11 11-27 11zm0-59q-9 9-12 21 0 4 2 7t5.5 4.5q3.5 1.5 7 1t6.5-3.5q5-5 3-12-2-4-8-14l-4-4zm-62 0q-4 0-7-3-14-8-21.5-22t-9-29.5Q-1 172 5 157t18-26q5-4 4-11-4-18-1-36 6-31 27.5-53.5T106 3q34-7 64.5 8.5T215 58q3 6 10 7 26 5 44.5 23t26 43q7.5 25 1.5 50.5T271 225q-5 5-12 3t-8.5-9q-1.5-7 3.5-12 13-14 18-32t-.5-36.5Q266 120 252 107t-32-17q-9-2-16-7.5T193 69q-11-22-32.5-34T115 26.5Q91 30 73 47T51 88q-2 14 0 27 2 10-1 19t-10.5 16q-7.5 7-11 16t-3 19.5q.5 10.5 5.5 19T44 219q4 2 5.5 6t0 8q-1.5 4-4.5 6.5t-8 2.5h1zm112-29q-16 1-27-10-16-15-8-39 6-17 21-32 6-6 14-6t14 6q8 8 14 18 10 15 10 26-1 16-11.5 26.5T150 213zm0-59q-1 2-4 5-7 10-8 14-2 6 3 12 3 2 6.5 3t7-.5q3.5-1.5 5.5-4.5t3-7q-4-12-13-22z"/></svg>