<svg viewBox="0 0 300 302.0011" xmlns="http://www.w3.org/2000/svg"><path d="M275 163H25q-10 0-17.5 7.5T0 188v50q0 17 8.5 31.5t23 23Q46 301 63 301h175q16 0 30.5-8.5t23-23Q300 255 300 238v-50q0-10-7.5-17.5T275 163zM63 188h25v25q0 6-4 9.5t-9 3.5q-5 0-8.5-3.5T63 214v-26zm50 0h25v25q0 6-4 9.5t-9 3.5q-5 0-8.5-3.5T113 214v-26zm50 0h25v25q0 6-4 9.5t-9 3.5q-5 0-8.5-3.5T163 214v-26zm50 0h25v25q-1 6-4.5 9.5T225 226q-5 0-9-3.5t-4-8.5v-26h1zm62 50q0 16-11 27t-27 11H63q-16 0-27-11t-11-27v-50h13v25q0 16 10.5 27T74 251q15 0 26-10 11 10 25 10t25-10q11 10 25 10t25-10q11 10 26 10t25.5-11q10.5-11 10.5-27v-25h13v50zM238 1H63Q46 1 31.5 9.5t-23 23Q0 47 0 64v49q0 11 7.5 18.5T25 139h250q10-1 17.5-8t7.5-17V63q0-16-8.5-30.5t-23-23Q254 1 238 1zm-50 112h-25V76q0-5 3.5-8.5t8.5-4q5-.5 9 3.5t4 9v37zm-50 0h-25V76q0-5 3.5-8.5t8.5-4q5-.5 8.5 3.5t4.5 9v37zm-50 0H63V88q0-5 3.5-8.5T75 76q5 0 8.5 3.5T87 89v24h1zm125 0V88q0-5 3.5-8.5T225 76q5 0 9 3.5t4 9.5v24h-25zm50 0V88q0-15-11-26t-27-11q-10 0-18 5-6-8-14-12.5T175 39q-14-1-25 9-11-9-25-9-10 0-18 4.5T93 56q-8-5-18-5-16 0-27 11T37 88v25H25V63q0-15 11-26t27-11h175q15 0 26 11t11 27v49h-12z"/></svg>