<svg viewBox="0 0 300 302.0011" xmlns="http://www.w3.org/2000/svg"><path d="M150 63q-33 2-56 20-20 16-27 42t0 52q7 26 28 42 22 18 55 18t56-18q20-16 27-42t0-52q-7-26-28-42-22-18-55-19v-1zm0 150q-29 0-46-20-16-17-16-42t16-42q17-20 46-20t46 20q16 17 16 42t-16 42q-17 20-46 20zm133-98q-5-17-14-32 4-7 3-15t-7-14l-18-18q-6-6-14-7t-15 3q-15-9-32-14-2-7-8.5-12T162 1h-24q-9 0-15.5 5T114 18q-17 5-32 14-5-3-12-3-10 0-17 7L35 54q-6 6-7 14t3 15q-9 15-14 32-7 2-12 8.5T0 138v25q0 9 5 15.5t12 8.5q5 17 14 32-4 7-3 15t7 14l18 18q6 6 14 7t15-3q14 10 32 14 2 7 8.5 12t15.5 5h25q8 0 14.5-5t8.5-12q17-4 32-13 7 3 15 2t14-7l18-18q6-6 7-14t-3-15q9-15 14-32 7-2 12-8.5t5-14.5v-26q0-8-5-14.5t-12-8.5zm-8 48q-1 0-2 1-10 1-14 15.5t-12 28q-8 13.5 0 23.5l-17 17-2-1q-5-3-11.5-2.5T205 249q-12 8-26 11-6 1-10.5 4.5T163 274v2h-25l-1-2q-1-6-5.5-9.5T121 260q-14-3-26-11-5-4-11.5-4.5T72 247l-2 1-17-18q8-9 0-22.5t-12-28Q37 165 27 164h-2v-26h2q10-1 14-15.5T52 95q6-9 5-14.5T53 71l18-17q3 3 7 4 8 1 16-5 13-8 28-11 9-2 13-8 3-4 3-8h25q-1 4 2 8 4 6 13 8 15 3 28 11 8 6 16 5 4-1 8-4l17 17q-8 9 1 24 7 13 11 27.5t14 15.5l2 1v24zm-112-50q0 6-4 9.5t-9 3.5q-5 0-9-3.5t-3.5-9q.5-5.5 4-9t8.5-3.5q5 0 9 3.5t4 8.5zm25 25q5 0 8.5 4t3.5 9q0 5-3.5 9t-9 3.5q-5.5-.5-9-4T175 151q0-5 3.5-9t8.5-4h1zm-63 13q0 5-3.5 9t-9 3.5q-5.5-.5-9-4T100 151q0-5 3.5-9t9-4q5.5 0 9 4t3.5 9zm38 37q0 6-4 9.5t-9 3.5q-5 0-9-3.5t-3.5-9q.5-5.5 4-9t8.5-3.5q5 0 9 3.5t4 9.5v-1z"/></svg>