<svg viewBox="0 0 300 302.0011" xmlns="http://www.w3.org/2000/svg"><path d="M36 86q7 0 10-5 15-21 36-35 4-2 5-7.5T85 29q-3-4-8-5t-9 1Q43 42 26 67q-4 6-.5 12.5T36 86zm-11 65q0-12 2-25 2-7-3.5-11.5T11 112q-7 2-8 9-6 30 0 60 1 4 4.5 7t7.5 3l3-1q5-1 7.5-5t1.5-9q-2-13-2-25zm57 105q-21-14-36-35-2-4-7.5-5t-9.5 2q-4 3-5 8t2 9q17 25 42 42 4 2 9 1t8-5q3-4 2-9.5t-5-7.5zM150 1q-14 0-27 2-5 1-8 5t-2.5 9q.5 5 4 8t8.5 3h2q12-2 23-2v250q-11 0-23-2-5-1-9 2t-5 8q-1 5 2 9.5t8 5.5q33 6 65-2.5t58-30q26-21.5 40-52t14-63.5q0-41-20-75.5T225.5 21Q191 1 150 1z"/></svg>