<svg viewBox="0 0 300 302.0011" xmlns="http://www.w3.org/2000/svg"><path d="M238 38H63q-17 0-31.5 8.5t-23 23Q0 84 0 101v100q0 17 8.5 31.5t23 22.5q14.5 8 31.5 8h175q16 0 30.5-8t23-22.5Q300 218 300 201V101q0-17-8.5-31.5t-23-23Q254 38 238 39v-1zm37 163q0 16-11 27t-27 11H63q-16 0-27-11t-11-27V101q0-16 11-26.5T63 64h175q15 0 26 10.5t11 26.5v100zM150 101q0 5-3.5 9t-9.5 4h-24v87q-1 5-4.5 9t-8.5 3.5q-5-.5-8.5-4T88 201v-88H63q-6 1-9.5-3t-3.5-9q0-5 3.5-9t8.5-4h76q5 0 8.5 4t3.5 9zm88 94q0 8-5.5 13.5t-13.5 5q-8-.5-13.5-5.5t-5.5-13q0-8 5.5-13.5T219 176q8 0 13 5.5t6 13.5zm-50 0q-1 8-6 13.5t-13 5q-8-.5-13.5-5.5t-5.5-13q0-8 5.5-13.5T169 176q8 0 13.5 5.5T188 195z"/></svg>