<svg viewBox="0 0 300 302.0011" xmlns="http://www.w3.org/2000/svg"><path d="M250 38q0-15-11-26T213 1H38Q22 1 11 12T0 39v24q0 16 11 27t27 11h175q15 0 26-11t11-26q10-1 17.5 6.5T275 88v13q0 10-7.5 17.5T250 126h-87q-21 0-35.5 14.5T113 176v2q-12 4-18.5 13.5T88 214v49q-1 16 10 27t27 11q16 0 26.5-11t11.5-27v-50q-1-12-7.5-21.5T137 178v-2q1-10 8-17.5t17-7.5h88q21 0 35.5-14.5T300 101V88q0-20-14.5-35T250 38zm-25 25q0 6-3.5 9.5T212 76H38q-6 0-9.5-3.5T25 63V38q0-5 3.5-8.5T37 26h176q5 0 8.5 3.5T225 39v24zm-87 200q0 6-4 9.5t-9 3.5q-5 0-9-3.5t-3-9.5v-50q0-5 3.5-8.5t8.5-3.5q5 0 9 3.5t4 8.5v50z"/></svg>