<svg viewBox="0 0 300 302.0011" xmlns="http://www.w3.org/2000/svg"><path d="M150 1q-41 0-75.5 20T20 75.5Q0 110 0 151t20 75.5Q40 261 74.5 281t75.5 20q41 0 75.5-20t54.5-54.5q20-34.5 20-75.5t-20-75.5Q260 41 225.5 21T150 1zm0 275q-34 0-62.5-17T42 213.5Q25 185 25 151t17-62.5Q59 60 87.5 43T150 26q34 0 62.5 17T258 88.5q17 28.5 17 62.5t-17 62.5Q241 242 212.5 259T150 276zm50-100H100q-5 0-9 3.5t-4 9q0 5.5 4 9t9 3.5h13v7q0 17 10 30t27 13q17 0 27.5-13t10.5-30v-7h12q5 0 9-3.5t3.5-9q-.5-5.5-4-9T200 176zm-37 32q0 7-4 12.5t-9 5.5q-5 0-8.5-5.5T138 209v-8h25v7zm31-132q-18 0-31 13t-13 31q0 18 13 30.5t31 12.5q18 0 31-12.5t13-30.5q0-18-13-31t-31-13zm0 62q-8 0-13.5-5t-5.5-13q0-8 5.5-13.5T194 101q8 0 13 5.5t5.5 13.5q.5 8-5 13t-13.5 5zm-91-4q-7-8-16-8-8 0-15 8-4 4-9 4t-9-3q-4-3-4-8t3-9q14-17 34-17 10 0 19 4.5t16 12.5q3 4 3 9t-4 8.5q-4 3.5-9.5 3T103 134z"/></svg>