<svg viewBox="0 0 300 302.0011" xmlns="http://www.w3.org/2000/svg"><path d="M289 94q-8-8-18-13t-21-5h-50V63q0-15-11-26t-26-11V13q-1-5-4.5-8.5T150 1q-5 0-9 3.5t-4 8.5v13q-15 0-26 11t-11 27v12H50q-11 0-21 5T11.5 94.5Q4 103 1.5 114T1 136l9 45q4 19 19.5 32T65 226h35v37q0 16 11 27t26 11h26q15 0 26-11t11-27v-37h35q20 0 35.5-13t19.5-32l9-45q2-11-.5-22T289 94zm-20 16q8 9 6 21l-5 20h-70v-50h50q12 0 19 9zm-144 41v-50h50v50h-50zm13-100h25q5 0 8.5 3.5T175 64v12h-50V64q0-6 3.5-9.5T137 51h1zM31 110q7-9 19-9h50v50H30l-4-20q-3-12 5-21zm144 153q0 6-3.5 9.5T162 276h-24q-6 0-9.5-3.5T125 263v-37h50v37zm60-62H65q-11 0-19.5-7T35 176h230q-2 11-10.5 18t-19.5 7z"/></svg>