<svg viewBox="0 0 300 302.0011" xmlns="http://www.w3.org/2000/svg"><path d="M299 189q-8-15-22.5-28T247 141q0-72-13-106T195 1h-1q-26 0-42 33-12 25-19 72-6-2-13-4-37-6-68 13-4 2-5 5.5t0 7.5v1q1 4 5 6t8 1q24-4 39 .5t27 17.5q-6 19-17 34-15 20-39 32-22 10-37 26-8 9-13 17h-7q-6 0-9.5 3.5T0 275q0 5 3.5 9t8.5 4h8q4 8 19 11 9 2 23 2 74 0 121-35 6-4 5-11t-7.5-10q-6.5-3-11.5 1-41 30-106 30-12 0-19-1v-2q4-7 11-14 11-10 26-16 44-22 63-67 20 3 31 8 16 8 25 23 11 18 13 50 1 3 3 6t6 4q4 1 8-.5t5-5.5q8-19 10-38t-3-36q16 3 40 18 6 3 12 0l1-1q3-2 4.5-6.5t-.5-8.5zm-112-37q-9 0-17-6-12-9-13-25 6-53 17-77 9-18 20-18h1q6 0 12 11.5T217 72q5 26 5 64-3 6-9 10-10 6-26 6z"/></svg>