<svg viewBox="0 0 300 302.0011" xmlns="http://www.w3.org/2000/svg"><path d="M300 151q0 5-3.5 9t-8.5 4h-28q-10-1-18.5-5.5T228 145l-8-11-11 28q-2 4-5 6t-6 2q-3 0-6-1-4-2-6-6.5t0-9.5l18-46q-3-6-10-6h-11l-26 63q-2 4-.5 8.5t5.5 6.5l57 36q6 4 6 11v63q0 5-3.5 8.5t-9 3.5q-5.5 0-9-3.5T200 289v-56l-52-33q-11-7-15.5-20t1.5-26l22-53h-16q-7 0-11 7l-18 36q-2 5-7 6.5t-9.5-1q-4.5-2.5-6.5-7t1-9.5l18-36q5-10 14-15.5t19-5.5h54q10 0 18.5 5T226 94l23 38q4 6 11 6h27q6 0 9.5 4t3.5 9zm-164 60q-5-2-10 0t-6.5 6.5Q118 222 115 224t-7 2H57q-5 0-8.5 3t-4.5 8q-3 20-7 31-5-15-8-42-4-34-4-75t4-75q3-27 8-42 6 15 9 42 4 33 4 75 0 19-1 37 0 5 3.5 9t8.5 4q5 0 9-3.5t4-8.5q1-19 1-38 0-32-2-59-3-39-11-62Q53 1 37.5 1T13 30Q5 53 2 92q-2 27-2 59t2 59q3 39 11 62 9 29 25 29 10 0 17.5-12T67 251h41q12 0 21-6.5t14-17.5q2-4 0-9t-7-7zm89-148q13 0 22-9t9-22q0-13-9-22t-22-9q-13 0-22 9t-9 22q0 13 9 22.5t22 9.5v-1z"/></svg>