<svg viewBox="0 0 300 302.0011" xmlns="http://www.w3.org/2000/svg"><path d="M131 296q-7 0-11-6l-7-14-8 14q-4 6-11 6t-11-6q-4-6 0-13l8-14H75q-5 0-8.5-3.5T63 251q0-5 3.5-8.5T75 239h16l-8-14q-4-7 0-13t11-6q7 0 11 6l8 14 7-14q4-6 11-6t11 6q4 6 0 13l-8 13h16q5 0 9 4t4 9q0 5-4 8.5t-9 3.5h-16l8 14q4 7 0 13t-11 6zm75-45h-6q-5 0-9-3.5t-4-9q0-5.5 4-9t9-3.5h6q30 0 48-19 18-18 20.5-43.5T263 118q-15-22-43-28-9-2-16-7.5T193 69q-11-22-32.5-34T115 26.5Q91 30 73 47T51 88q-2 14 0 27 2 10-1 19t-10.5 15.5Q32 156 28.5 165T25 183.5q0 9.5 4.5 18T41 216q6 5 5 12t-8 9.5q-7 2.5-12-1.5-12-10-18.5-23.5T.5 184q-.5-15 5-28.5T23 131q5-4 4-11-4-18-1-36 6-31 27.5-53.5T106 3q34-7 64.5 8.5T215 58q3 6 10 7 31 7 51 29 18 19 22 46t-5.5 52q-9.5 25-30.5 41-23 17-56 18zm-12-55q-8 0-11-6l-8-14-8 14q-3 6-10.5 6t-11-6q-3.5-6 .5-13l7-14h-15q-6 0-9.5-3.5T125 151q0-5 3.5-9t9.5-4h15l-7-13q-4-7-.5-13t11-6q7.5 0 10.5 6l8 14 8-14q3-6 10.5-6t11 6q3.5 6-.5 13l-7 13h16q5 0 8.5 4t3.5 9q0 5-3.5 9t-8.5 4h-16l7 13q4 7 .5 13t-10.5 6z"/></svg>