<svg viewBox="0 0 300 302.0011" xmlns="http://www.w3.org/2000/svg"><path d="M298 122q-1-7-7.5-9.5T278 115l-17 16q-5-26-21-47t-39.5-33Q177 39 150 39T99.5 51Q76 63 60 84t-21 47l-17-16q-6-5-12.5-2.5T2 122q-2 14-2 29t2 29q1 7 7.5 9.5T22 187l17-16q5 26 21 47t39.5 33q23.5 12 50.5 12t50.5-12q23.5-12 39.5-33t21-47l17 16q6 5 12.5 2.5t7.5-9.5q2-14 2-29t-2-29zM63 151q-1-24 11-44t32-31.5Q126 64 150 64q14 0 28 4L67 179q-4-14-4-28zm16 51L201 80q12 8 20 20L99 222q-12-8-20-20zm71 37q-14 0-28-5l111-111q4 14 4 28 0 24-11.5 44T194 227q-20 12-44 12z"/></svg>