<svg viewBox="0 0 300 302.0011" xmlns="http://www.w3.org/2000/svg"><path d="M107 114v25h62q5 0 9 3.5t4 8.5q0 5-4 9t-9 4h-62v25q0 5 3.5 8.5t8.5 3.5h75q5 0 9 4t4 9q0 5-4 8.5t-9 3.5h-75q-15 0-26-11t-11-26v-75q0-16 11-27t26-11h75q5 0 9 4t4 9q0 5-4 8.5t-9 3.5h-75q-5 0-8.5 4t-3.5 9zm193 37q0 41-20 75.5T225.5 281q-34.5 20-75 20t-75-20q-34.5-20-55-54.5T0 151.5q0-40.5 20.5-75t55-55Q110 1 150.5 1t75 20.5Q260 42 280 76.5t20 74.5zm-25 0q0-34-16.5-62.5T213 43q-29-17-62.5-17T88 43Q59 60 42 88.5T25 151q0 34 17 63t46 45.5q29 16.5 62.5 16.5t62.5-16.5q29-16.5 45.5-45.5t16.5-63z"/></svg>