<svg viewBox="0 0 300.003 302.0011" xmlns="http://www.w3.org/2000/svg"><path d="M300.003 227q0-28-9-55l-11-30q-7-18-23-29.5t-36-11.5h-55q-19 0-35.5 11.5t-22.5 29.5l-11 30q-10 31-9 54 1 31 24 44v6q1 10 8 17.5t17.5 7.5q10.5 0 17.5-7.5t7-17.5h63q0 10 7.5 17.5t17.5 7.5q10 0 17.5-7.5t7.5-17.5v-6q12-7 18.5-18.5t6.5-24.5zm-134-101h55q12 0 21.5 7t13.5 18l9 25h-143l9-25q4-11 14-18t21-7zm85 125h-114q-19 0-23-18-3-13 1-32h23v12q0 6 3.5 9.5t8.5 3.5q5 0 9-3.5t4-9.5v-12h62v12q0 6 3.5 9.5t9 3.5q5.5 0 9-3.5t3.5-9.5v-12h23q4 19 1 32-5 18-23 18zm-201-138v-12h-22q-5 19-2 32 5 18 23 18h14q5 0 8.5 3.5t3.5 8.5v13q0 10-7.5 17.5t-17.5 7.5q-10 0-17.5-7.5t-7.5-17.5v-6q-23-13-25-44-1-23 9-54l11-30q7-18 23-29.5t36-11.5h55q19 0 35.5 11.5t22.5 29.5l6 17q3 7-2 12.5t-12 4q-7-1.5-9-7.5l-6-17q-4-11-14-18t-21-7h-55q-12 0-21.5 7t-13.5 18l-9 25h65q5 0 8.5 3.5t4 9q.5 5.5-3.5 9t-9 3.5h-25v12q0 6-3.5 9.5t-9 3.5q-5.5 0-9-3.5t-3.5-8.5v-1z"/></svg>