<svg viewBox="0 0 300 302.0011" xmlns="http://www.w3.org/2000/svg"><path d="M248 56q-23-30-58-44.5T118.5 2Q82 7 53 29.5T10 86q-14 34-9 70.5T28 222q10 13 9 29v12q1 16 11.5 27T75 301h88q15 0 26-11t11-27h6q24 0 41.5-15.5T268 209l3-21h4q10 1 17.5-6.5t7.5-19q0-11.5-20-51T248 56zm12 107q-5 1-8.5 4t-3.5 7l-5 32q-2 14-12.5 23t-24.5 9h-18q-6 0-9.5 4t-3.5 9v12q0 6-3.5 9.5T163 276H75q-5 0-8.5-3.5T63 263v-12q0-24-15-44-18-24-22-53.5T33.5 96q11.5-28 35-46.5T122 27q8-1 16-1 26 0 50 12t40 34q30 42 47 91h-15zm-57-62q-3-4-8-5.5T185 97l-12 7q-10-10-23-14V76q0-5-3.5-9t-9-3.5q-5.5.5-9 4T125 76v14q-13 4-23 14l-12-7q-7-4-13-.5t-6 11q0 7.5 6 10.5l12 7q-1 7-1 13.5t1 13.5l-12 7q-4 2-5.5 7t1 9.5q2.5 4.5 7.5 6t10-1.5l12-7q10 10 23 14v14q0 5 3.5 8.5t9 4q5.5.5 9-3.5t3.5-9v-14q13-4 23-14l12 7q7 4 13 .5t6-11q0-7.5-6-10.5l-12-7q1-7 1-13.5t-1-13.5l12-7q4-2 5.5-7t-.5-10zm-65 62q-11 0-18-7t-7-17.5q0-10.5 7-17.5t17.5-7.5q10.5-.5 17.5 7t7.5 18q.5 10.5-7 17.5t-18.5 7h1z"/></svg>