<svg viewBox="0 0 300.0014 302.0011" xmlns="http://www.w3.org/2000/svg"><path d="M63 76q-1-5 3-9t9-4h38q5 0 8.5 4t3.5 9q0 5-3.5 9t-8.5 4H75q-5-1-8.5-4.5T63 76zm75 37H75q-5 0-8.5 4t-4 9q-.5 5 3.5 8.5t9 4.5h63q5-1 8.5-4.5t3.5-8.5q0-5-3.5-9t-9.5-4h1zm0 50H75q-5 0-9 4t-4 9q0 5 4 8.5t9 4.5h63q5 0 8.5-4t3.5-9q0-5-3.5-9t-9.5-4h1zM299 59q-1-3-4.5-5.5T288 51h-38l-13-37q-2-4-5-6t-7-2q-4 0-7 2t-5 6l-13 37h-37q-4 0-7.5 2.5t-5 6q-1.5 3.5-.5 7t4 6.5l30 24-12 38q-1 4 .5 7.5t4.5 6q3 2.5 7 2.5t7-2l34-23 35 23q3 2 7 2t7-2.5q3-2.5 4-6.5t0-8l-12-37 30-24q3-2 4-6t-1-8zm-24 192v6q0 18-13 31t-31 13H44q-18 0-31-13T0 257V63q0-16 8.5-30.5t23-23Q46 1 63 1h100q5 0 8.5 3.5t3.5 9q0 5.5-3.5 9T162 26H63q-16 0-27 11T25 64v193q0 8 5.5 13.5T44 276q8 0 13.5-5.5T63 257v-6q-1-16 10-27t27-11h113v-37q-1-5 3-9t9-4q5 0 8.5 4t3.5 9v37q16 1 27 11.5t11 26.5zm-25 0q0-5-3.5-9t-9.5-4H100q-5 1-8.5 4.5T88 251v6q0 10-5 19h148q8 0 13.5-5.5T250 257v-6z"/></svg>