<svg viewBox="0 0 300 302.0011" xmlns="http://www.w3.org/2000/svg"><path d="M238 76h-16q13-13 15-28.5T228.5 18Q218 4 201 1.5T169 9q-11 9-19 23-8-14-19-23-14-10-31.5-7.5t-28 16Q61 31 63 47t15 29H63q-17 0-31.5 8.5t-23 23Q0 122 0 139v99q0 17 8.5 31.5t23 23Q46 301 63 301h175q16 0 30.5-8.5t23-23Q300 255 300 238V138q0-16-8.5-30.5t-23-23Q254 76 237 76h1zm-53-47q4-3 9-3t9 2q4 2 6 5 5 7 3 15-2 5-7 10-13 11-28 16-8 2-14 2v-4q1-10 5-19 6-16 17-23v-1zM96 58q-5-5-7-10-3-8 2-14.5t12-7.5q7-1 13 3 10 8 16 24 4 9 6 19v4q-6 0-15-2-15-5-27-16zm-33 43h72q-6 15-26 22-11 3-22 3-5 0-8.5 3.5t-3.5 9q0 5.5 3.5 9T87 151q17 0 32-6 20-6 31-20 11 14 31 20 15 6 31 6 6 0 9.5-3.5t3.5-9q0-5.5-3.5-9T212 126q-10 0-21-3-20-7-26-22h72q16 0 27 11t11 26v75H25v-75q0-15 11-26t27-11zm175 175H63q-16 0-27-11t-11-27h250q0 16-11 27t-27 11h1z"/></svg>