<svg viewBox="0 0 300.0051 302.0011" xmlns="http://www.w3.org/2000/svg"><path d="M256 126h-25q-16 0-28.5 11T188 163h-57q-16 0-28.5 11T88 201H44q-18 0-31 13T0 245v12q0 18 13 31t31 13h212q18 0 31-13t13-31v-87q0-18-13-31t-31-13zM25 257v-12q0-8 5.5-13.5T44 226h44v50H44q-8 0-13.5-5.5T25 257zm88-50q0-8 5-13t13-5h57v87h-75v-69zm162 50q0 8-5.5 13.5T256 276h-43V170q0-8 5-13.5t13-5.5h25q8 0 13.5 5.5T275 170v87zM201 37q2-6 7-6h25l9-25q2-5 8-5t8 5l9 25h25q6 0 8 5.5t-3 9.5l-20 16 8 25q2 5-2.5 9t-9.5 0l-23-14-22 15q-3 1-5.5 1t-4.5-2q-5-3-3-9l8-25-20-16q-4-4-2-9zM101 74q2-5 7-5h25l9-25q2-6 8-6t8 6l9 25h25q6 0 8 5.5t-3 8.5l-20 17 8 24q2 6-2.5 9.5t-9.5.5l-23-15-22 15q-3 2-5.5 2t-4.5-2q-5-4-3-9l8-25-20-17q-4-3-2-9zM1 112q2-6 7-6h25l9-25q2-5 8-5t8 5l9 25h25q6 0 8 5.5t-3 9.5l-20 16 8 25q2 5-2.5 9t-9.5 0l-23-14-22 15q-3 1-5.5 1t-4.5-2q-5-3-3-9l8-25-20-16q-4-4-2-9z"/></svg>