<svg viewBox="0 0 300 302.0011" xmlns="http://www.w3.org/2000/svg"><path d="M259 198l-70-35q-7-4-10.5-10t-3.5-13V51q0-12-5-22t-14-17q-9-7-20-9.5T113 2L48 18q-21 5-34.5 22T0 79v197q0 10 7.5 17.5T25 301h63q10 0 17.5-7.5T113 276v-18l46 30q18 13 41 13h64q15 0 25.5-10.5T300 265q0-22-11-40t-30-27zM88 276H25v-25h62v25h1zm176 0h-64q-15 0-28-8l-43-29q-19-13-42-13H25V79q0-13 8-23t21-13l21-6v89q0 5 3.5 8.5t9 3.5q5.5 0 9-3.5t3.5-8.5V31l19-4q12-3 21.5 4.5T150 51v89q0 15 7.5 27t20.5 18l69 35q13 6 20.5 18t7.5 27q0 4-3.5 7.5T264 276z"/></svg>