<svg viewBox="0 0 300 302.0011" xmlns="http://www.w3.org/2000/svg"><path d="M242 51q-13 0-25.5 6.5T196 76q-12-17-31-23 3-13 12-29l3-5q2-4 .5-9t-6-7.5Q170 0 165 1.5T158 8l-2 3q-12 21-17 41-21 4-35 21-8-10-20-16t-26.5-6q-14.5 0-28 8T8 80.5q-8 13.5-8 29T7 155q7 34 20 64 14 36 33 57 22 25 46 25 13 0 24.5-5.5T150 280q8 10 19.5 15.5T194 301q25 0 47-25 18-20 33-57 12-29 20-64 6-29 6-45t-8-29.5Q284 67 270.5 59T242 51zm-48 225q-9 0-16-4t-11-11q-3-5-7.5-7.5T150 251q-5 0-9.5 2.5T133 261q-4 7-11 11t-16 4q-20 0-41-34-17-28-29-71-11-39-11-62 0-13 10-23t23.5-10Q72 76 82 86t10 23.5q0 13.5 4.5 36.5t12.5 46q1 4 4.5 6.5t6.5 2.5q3 0 4-1 5-1 7.5-5.5t.5-9.5q-7-23-11-44t-4-32q0-13 9.5-23T150 76q7 0 14 4t12 11q7 11 20 11 12 0 19-11 5-7 12-11t15-4q13 0 23 10t10 23q0 22-11 61-12 43-28 71-21 35-42 35z"/></svg>