<svg viewBox="0 0 300 302.0011" xmlns="http://www.w3.org/2000/svg"><path d="M250 38H100q-21 0-35.5 15T50 88v75q0 21 14.5 35.5T100 213h150q21 0 35.5-14.5T300 163V88q0-20-14.5-35T250 38zm25 125q0 11-7.5 18t-17.5 7H100q-10 0-17.5-7T75 163V88q0-10 7.5-17.5T100 63h150q10 0 17.5 7.5T275 88v75zm-37 88q0 5-4 8.5t-9 3.5H63q-17 0-31.5-8t-23-22.5Q0 218 0 201v-88q0-5 3.5-8.5t9-3.5q5.5 0 9 3.5T25 113v88q0 15 11 26t27 11h162q5 0 9 4t4 9zM175 88q-15 0-26 11.5T138 126q0 15 11 26t26 11q15 0 26.5-11t11.5-26q0-15-11.5-26.5T175 88zm0 50q-5 0-8.5-3.5T163 126q0-5 3.5-9t8.5-4q5 0 9 4t4 9q0 5-4 8.5t-9 3.5z"/></svg>