<svg viewBox="0 0 300 302.0011" xmlns="http://www.w3.org/2000/svg"><path d="M188 36V13q0-5-4-8.5T175 1q-5 0-8.5 3.5T163 13v13h-25V13q0-5-4-8.5T125 1q-5 0-8.5 3.5T113 13v13H88V13q0-5-4-8.5T75 1q-5 0-9 3.5T63 13v13H38V13q0-5-4-8.5T25 1q-5 0-8.5 3.5T13 13v23Q0 47 0 64v174q0 17 8.5 31.5t23 23Q46 301 63 301h75q16 0 30.5-8.5t23-23Q200 255 200 238V63q0-16-12-27zm-13 202q0 16-11 27t-26 11H63q-16 0-27-11t-11-27V63q0-5 3.5-8.5T37 51h126q5 0 8.5 3.5T175 64v174zm-25-137q0 5-3.5 9t-9.5 4H63q-6 0-9.5-4t-3.5-9q0-5 3.5-9t8.5-4h76q5 0 8.5 4t3.5 9zm0 50q0 5-3.5 9t-9.5 4H63q-6-1-9.5-4.5T50 151q0-5 3.5-9t8.5-4h76q5 0 8.5 4t3.5 9zm-37 50q-1 5-4.5 9t-8.5 4H63q-6-1-9.5-4.5T50 201q0-5 3.5-9t8.5-4h38q5 1 8.5 4.5t3.5 8.5h1zM263 1q-16 0-27 11t-11 27v209q0 10 4 19t11 16l14 14q3 4 8.5 4t8.5-4l14-14q7-7 11-16t4-19V38q0-15-11-26T262 1h1zm12 247q0 10-7 18l-5 5-6-5q-7-8-7-18V38q0-5 3.5-8.5t9-3.5q5.5 0 9 3.5T275 39v209z"/></svg>