<svg viewBox="0 0 300 302.0011" xmlns="http://www.w3.org/2000/svg"><path d="M238 276H63q-17 0-31.5-8.5t-23-23Q0 230 0 214V88q0-16 8.5-30.5t23-23Q46 26 62 26h176q16 0 30.5 8.5t23 23Q300 72 300 88v125q0 17-8.5 31.5t-23 23Q254 276 238 276zM63 51q-16 0-27 11T25 89v124q0 16 11 27t26 11h176q15 0 26-11t11-27V88q0-15-11-26t-27-11H63zm175 112H138q-6 0-9.5-3.5T125 151q0-5 3.5-9t9.5-4h100q5 0 8.5 4t3.5 9q0 5-3.5 9t-8.5 4v-1zm-150 0H63q-6 0-9.5-3.5T50 151q0-5 3.5-9t9.5-4h25q5 0 8.5 4t3.5 9q0 5-3.5 9t-9.5 4l1-1zm75 63H63q-6 0-9.5-3.5t-3.5-9q0-5.5 3.5-9T63 201h100q5 0 8.5 3.5t3.5 9q0 5.5-3.5 9T163 226zm75 0h-25q-6 0-9.5-3.5t-3.5-9q0-5.5 3.5-9t8.5-3.5h26q5 0 8.5 3.5t3.5 9q0 5.5-3.5 9T238 226z"/></svg>