<svg viewBox="0 0 300 302.0011" xmlns="http://www.w3.org/2000/svg"><path d="M1 166q-2-5 .5-10t6.5-6.5q4-1.5 7-3.5 10-7 22.5-7t22.5 7q6 5 15 5t15-5q10-7 22.5-7t22.5 7q6 5 15 5t15-5q10-7 22.5-7t22.5 7q6 5 15 5t15-5q10-7 22.5-7t22.5 7q3 2 7 3.5t6.5 6.5q2.5 5 1 9.5t-6.5 7q-5 2.5-10 .5-7-2-13-7-3-2-7.5-2t-7.5 2q-13 10-30 10t-30-10q-3-2-7.5-2t-7.5 2q-13 10-30 10t-30-10q-3-2-7.5-2t-7.5 2q-13 10-30 10t-30-10q-3-2-7.5-2t-7.5 2q-6 5-13 7-5 2-10-.5T1 166zm299 66v6q0 21-14.5 35.5T250 288H50q-21 0-35.5-14.5T0 239v-7q0-13 9-22t22-9h238q13 0 22 9t9 22zm-25 0q0-2-2-4t-4-2H31q-2 0-4 2t-2 4v6q0 11 7.5 18t17.5 7h200q10 1 17.5-6.5T275 238v-6zm25-156v6q0 13-9 22.5t-22 9.5H31q-13-1-22-10T0 82v-6q0-21 14.5-35.5T50 26h200q21 0 35.5 14.5T300 76zm-25 0q0-10-7.5-17.5T250 51H50q-10 0-17.5 7.5T25 76v6q0 3 2 5t4 2h238q2-1 4-2.5t2-4.5v-6z"/></svg>