<svg viewBox="0 0 300 302.0011" xmlns="http://www.w3.org/2000/svg"><path d="M238 26h-13V13q0-5-3.5-8.5t-9-3.5q-5.5 0-9 3.5T200 14v12H100V13q0-5-3.5-8.5t-9-3.5q-5.5 0-9 3.5T75 14v12H63q-17 0-31.5 8.5t-23 23Q0 72 0 89v149q0 17 8.5 31.5t23 23Q46 301 63 301h175q16 0 30.5-8.5t23-23Q300 255 300 238V88q0-16-8.5-30.5t-23-23Q254 26 237 26h1zM63 51h175q15 0 26 11t11 26v13H25V88q0-15 11-26t27-11zm175 225H63q-16 0-27-11t-11-27V126h250v112q0 16-11 27t-27 11h1zm-33-83q0 7-7 11l-20 11 9 23q1 4 0 7.5t-4 5.5q-3 2-6.5 2t-6.5-2l-20-15-19 15q-3 2-7 2t-6-2q-3-2-4-5.5t0-7.5l8-23-19-11q-7-4-7-11 0-3 2.5-6t6.5-3h28l7-28q1-3 4-5.5t6.5-2.5q3.5 0 6 2.5t3.5 5.5l8 28h28q4 0 6.5 3t2.5 6z"/></svg>