<svg viewBox="0 0 300 302.0011" xmlns="http://www.w3.org/2000/svg"><path d="M238 1H63Q46 1 31.5 9.5t-23 23Q0 47 0 64v174q0 17 8.5 31.5t23 23Q46 301 63 301h175q16 0 30.5-8.5t23-23Q300 255 300 238V63q0-16-8.5-30.5t-23-23Q254 1 237 1h1zm37 237q0 16-11 27t-27 11H63q-16 0-27-11t-11-27V63q0-15 11-26t27-11h175q15 0 26 11t11 27v174zM169 63h-44q-21 0-35.5 15T75 114v112q0 5 3.5 8.5t9 4q5.5.5 9-3.5t3.5-9v-50h69q23 0 39.5-16.5t16.5-40q0-23.5-16.5-40T169 63zm0 88h-69v-38q0-10 7.5-17.5T125 88h44q13 0 22 9.5t9 22.5q0 13-9 22t-22 9z"/></svg>