<svg viewBox="0 0 300 302.0011" xmlns="http://www.w3.org/2000/svg"><path d="M235 161q5-10 0-20-4-8-14-19-13-14-29-22-20-12-42-12t-42 12q-16 8-29 22-10 11-14 19-5 10 0 20 4 8 14 19 13 14 29 22 20 11 42 11t42-11q16-8 29-22 10-11 14-19zm-85 27q-22 1-42-15-13-11-20-22 7-11 20-22 20-16 42-16t42 16q13 11 20 22-7 11-20 22-20 16-42 16v-1zm25-37q0 10-7.5 17.5T150 176q-10 0-17.5-7.5T125 151q0-10 7.5-17.5T150 126q10 0 17.5 7.5T175 151zM4 22q-4-3-4-8.5t3.5-9Q7 1 12.5 1T21 5l42 41V26q0-5 3.5-9t8.5-4q5 0 9 4t4 9v31q-1 13-10 22t-22 9H25q-5 0-8.5-3.5t-4-8.5q-.5-5 3.5-8.5t9-3.5l20-1L4 22zm209 35V26q-1-5 3-8.5t9-3.5q5 0 8.5 3.5T238 26v20l41-41q3-4 8.5-4t9 3.5q3.5 3.5 3.5 9t-4 8.5l-41 41h20q5 0 9 4t4 9q0 5-4 8.5t-9 4.5h-31q-13-1-22-10t-9-22zM88 245v31q0 5-4 8.5t-9 3.5q-5 0-8.5-3.5T63 276v-20l-42 41q-3 4-8.5 4t-9-3.5Q0 294 0 288.5t4-8.5l41-41-20-1q-5 0-9-3.5t-3.5-8.5q.5-5 4-9t8.5-4l31 1q13 0 22.5 9t9.5 22zm208 35q4 3 4 8.5t-3.5 9q-3.5 3.5-9 3.5t-8.5-4l-41-41v20q-1 5-4.5 8.5T225 288q-5 0-9-3.5t-4-8.5l1-31q0-13 9-22t22-10h31q5 0 9 4t4 9q0 5-4 8.5t-9 3.5h-20l41 42z"/></svg>