<svg viewBox="0 0 300 302.0011" xmlns="http://www.w3.org/2000/svg"><path d="M296 120q-18-40-54-65t-80-28V13q1-5-3-8.5T150 1q-5 0-9 3.5t-4 8.5v14q-43 3-79.5 28T3 120q-4 12-3 24t8 22.5q7 10.5 18 16t24 6.5h88v74q0 6-4 9.5t-9 3.5q-5 0-9-3.5t-4-9q0-5.5-3.5-9T100 251q-5 0-8.5 3.5T87 264q1 15 11.5 26t26.5 11q16 0 26.5-11t11.5-26v-76h87q12 0 23-5.5t18-16q7-10.5 8.5-22.5t-3.5-24zm-25 32q-4 6-9.5 9t-11.5 3H50q-6 0-11.5-3t-9-8.5Q26 147 25 141t2-11q9-23 28-41t44-28q25-10 51-10 40 0 73.5 21.5T273 130q3 5 2 11t-4 11z"/></svg>