<svg viewBox="0 0 300 302.0011" xmlns="http://www.w3.org/2000/svg"><path d="M300 233q0 21-15 36l-17 17q-15 15-35.5 15T197 286l-34-33q-3-4-3-9t3.5-9q3.5-4 8.5-4t9 4l34 34q7 7 17.5 7t17.5-7l18-18q7-7 7-17.5t-7-17.5l-24-25-18 18q-4 4-9 4t-8.5-3.5q-3.5-3.5-3.5-9t3-8.5l27-27q3-4 8.5-4t8.5 4l33 33q15 15 15 35zM48 138q4 3 9 3t9-3.5q4-3.5 4-8.5t-4-9L32 86q-7-7-7-17.5T32 51l18-18q7-7 17.5-7T85 33l25 24-18 18q-4 4-4 9t3.5 9q3.5 4 9 4t8.5-4l27-27q4-3 4-8.5t-4-8.5l-33-33Q89 1 67.5 1T32 16L15 33Q0 48 0 68.5T15 104l33 34zm239-59L87 279q-11 11-24.5 16.5T34 301H13q-6 0-9.5-3.5T0 288v-21q0-15 5.5-28.5T22 214L222 14q13-13 32-13t32.5 13.5Q300 28 300 47t-13 32zm-65 30l-30-30L40 232q-15 14-15 35v9h9q21 0 35-15l153-152zm47-77q-6-6-15-6t-15 6l-29 30 29 29 30-29q6-6 6-15t-6-15z"/></svg>