<svg viewBox="0 0 300 302.0011" xmlns="http://www.w3.org/2000/svg"><path d="M281 113h-6v-12q0-17-8.5-31.5t-23-22.5Q229 39 212 39h-49V13q0-5-4-8.5T150 1q-5 0-9 3.5t-4 9.5v24H88q-17 0-31.5 8.5t-23 23Q25 84 25 101v12h-6q-8 0-13.5 5.5T0 132v38q0 8 5.5 13t13.5 5h6v13q0 17 8.5 31.5t23 22.5q14.5 8 30.5 8h97l49 34q7 4 14.5 4t13.5-3.5q6-3.5 10-9.5t4-14v-86h6q8 0 13.5-5.5T300 170v-38q0-8-5.5-13.5T281 113zm-31 161q0 1-1 1.5t-2 .5l-53-35q-3-2-6-3H88q-16 1-27-10t-11-27V101q0-16 11-26.5T88 64h125q15 0 26 10.5t11 26.5v173zM88 120q0-8 5-13.5t13-5.5q8 0 13.5 5.5T125 120q0 8-5.5 13.5t-13.5 5q-8-.5-13.5-5.5T87 120h1zm125 0q-1 8-6 13.5t-13 5q-8-.5-13.5-5.5t-5.5-13q0-8 5.5-13.5T194 101q8 0 13.5 5.5T213 120zm-2 58q2 5 1 10t-5 8q-29 17-57 17t-57-17q-4-3-5-8t1.5-9.5Q92 174 97 173t10 1q22 15 43 14.5t43-14.5q5-2 10-1t8 5z"/></svg>