<svg viewBox="0 0 300 302.0011" xmlns="http://www.w3.org/2000/svg"><path d="M200 263H88q-16 0-27-11t-11-26v-39q6 1 12 1h13q10 0 19-5 4-2 5.5-7t-1-9.5q-2.5-4.5-7.5-6t-9 .5q-4 2-7 2H62q-13 0-20.5-9.5T37 132l6-21q2-5-1-9.5t-8-6q-5-1.5-9.5 1T19 104l-6 21q-3 12-.5 23t9.5 21l3 3v54q0 17 8.5 31.5T56 280q14 8 31 8h113q5 0 8.5-3.5t3.5-8.5q0-5-3.5-9t-8.5-4zm96 17l-27-28q6-12 6-26v-54l3-3q7-10 9.5-21t-.5-23l-19-70q-4-18-17.5-30T218 13H82q-21 0-36 16L21 5q-3-4-8.5-4t-9 3.5Q0 8 0 13.5T4 22l275 275q3 4 8.5 4t9-3.5q3.5-3.5 3.5-9t-4-8.5zm-47-48l-55-55 3-2q11 13 28 13h14q5 0 11-1v39l-1 6zM82 38h18v25q0 6 3.5 9.5t9 3.5q5.5 0 9-3.5T125 63V38h50v25q0 6 3.5 9.5t9 3.5q5.5 0 9-3.5T200 63V38h18q9 0 16 6t9 15l20 73q3 12-4.5 22T238 164h-13q-5 0-9-4t-4-9v-12q0-6-3.5-9.5T200 126q-5 0-9 3.5t-4 9.5q0 6-3 11.5t-8 8.5L63 47q8-9 19-9z"/></svg>