<svg viewBox="0 0 300 302.0011" xmlns="http://www.w3.org/2000/svg"><path d="M287 79q-6-3-13-3t-13 4l-61 46v-25q0-7-3.5-13t-9.5-9q-6-3-13-3t-13 4l-61 46V26q5 0 9-3.5t4-9q0-5.5-4-9T100 1H13Q7 1 3.5 4.5t-3.5 9q0 5.5 3.5 9T13 26v212q0 17 8 31.5t22.5 23Q58 301 75 301h163q16 0 30.5-8.5t23-23Q300 255 300 238V101q0-7-3.5-13t-9.5-9zm-12 159q0 16-11 27t-27 11H75q-16 0-27-11t-11-27V26h38v200q0 5 3.5 8.5t9 4q5.5.5 9-3.5t3.5-9v-69l75-56v50q0 8 7 11.5t13-1.5l80-60v138-1zm-100-25v13q0 5-3.5 9t-9.5 3h-12q-5 0-8.5-3.5T138 226v-13q0-5 3.5-8.5t8.5-3.5h13q5 0 8.5 3.5t3.5 8.5zm25 13v-13q0-5 3.5-8.5t9.5-3.5h12q5 0 8.5 3.5t3.5 8.5v13q0 5-3.5 9t-8.5 3h-12q-6 0-9.5-3.5T200 226z"/></svg>