<svg viewBox="0 0 300 302.0011" xmlns="http://www.w3.org/2000/svg"><path d="M288 276h-13v-63q0-18-10-33.5T238 156v-5q-1-15-7.5-28T213 101l-11-53q-1-4-4.5-7t-7.5-3h-5q-4 0-7.5 3t-4.5 7l-8 40h-37l10-37q-1-5-4.5-9t-8.5-4h-25q-5 0-8.5 4T88 51l10 44q-16 7-25.5 22.5T62 151v5q-17 8-27 23.5T25 213v63H13q-6 0-9.5 3.5t-3.5 9q0 5.5 3.5 9T13 301h275q5 0 8.5-3.5t3.5-9q0-5.5-3.5-9T288 276zM125 113h50q16 0 27 11t11 27H88q0-16 10.5-27t26.5-11zm-37 63h125q15 0 26 11t11 26v13q-8-1-13.5-5t-5.5-8.5q0-4.5-3.5-8T219 201q-5 0-9 3.5t-4 8q0 4.5-6 9t-15.5 4.5q-9.5 0-15.5-4.5t-6-9q0-4.5-4-8t-9-3.5q-5 0-9 3.5t-3.5 8q.5 4.5-6 9t-16 4.5q-9.5 0-15.5-4.5t-6-9q0-4.5-4-8t-9-3.5q-5 0-8.5 3.5t-3.5 8q0 4.5-5.5 8.5T50 226v-13q0-15 11-26t26-11h1zm-38 75q18-1 31-12 15 12 34.5 12t34.5-12q15 12 34.5 12t34.5-13q13 12 31 13v25H50v-25zm50-238q0 6 3.5 9.5t9 3.5q5.5 0 9-3.5t3.5-9q0-5.5-3.5-9t-9-3.5q-5.5 0-9 3.5T100 13zm75 0q0 6 3.5 9.5t9 3.5q5.5 0 9-3.5t3.5-9q0-5.5-3.5-9t-9-3.5q-5.5 0-9 3.5T175 13z"/></svg>