<svg viewBox="0 0 300.0011 302.0011" xmlns="http://www.w3.org/2000/svg"><path d="M288 176h-15l27-161q1-5-2-9t-8-5q-5-1-9.5 2t-5.5 8l-27 165h-73l-13-53q-1-4-4.5-7t-7.5-3q-4 0-7.5 3t-4.5 7l-13 53H52L25 11q-1-5-5-8t-9.5-2Q5 2 2 6t-2 9l27 161H13q-6 0-9.5 3.5t-3.5 9q0 5.5 3.5 9T13 201h18l11 63q2 15 13 25.5T81.5 301q15.5 1 28.5-7.5t18-23.5l17-69h11l17 70q4 13 15.5 21.5T215 301h3q16-1 27-11.5t14-25.5l10-63h19q5 0 8.5-3.5t3.5-9q0-5.5-3.5-9T288 176zm-184 87q-3 7-8.5 10T84 275.5q-6-.5-11.5-4.5T66 260l-10-59h63l-15 62zm130-3q-2 8-7 11.5t-11 4q-6 .5-11.5-2.5t-8.5-9l-15-63h62l-9 59z"/></svg>