<svg viewBox="0 0 300 302.0011" xmlns="http://www.w3.org/2000/svg"><path d="M271 231q-21 26-53.5 37.5t-66.5 5Q117 267 91.5 244T56 188h132q5 0 8.5-3.5t3.5-8.5q0-5-3.5-9t-8.5-4H51q-2-12 0-24h137q5-1 8.5-4.5t3.5-8.5q0-5-3.5-9t-8.5-4H56q10-32 35.5-55T151 28.5q34-6.5 66.5 5T271 71q4 4 9 4.5t9-2.5q4-3 4.5-8t-2.5-9q-27-33-67-47t-81.5-4.5Q101 14 71 43.5T30 114H13q-6 0-9.5 3.5T0 126q0 5 3.5 9t8.5 4h14l-1 12 1 13H13q-6-1-9.5 3T0 176q0 5 3.5 9t8.5 3h18q11 41 41 70.5t71.5 39Q184 307 224 293t67-47q3-4 2.5-9t-4.5-8q-4-3-9-2.5t-8 4.5h-1z"/></svg>