<svg viewBox="0 0 300 302.0011" xmlns="http://www.w3.org/2000/svg"><path d="M250 101q0-15-8.5-28T219 55l-31-13V26q5 0 8.5-3.5t3.5-9q0-5.5-3.5-9T188 1h-75q-6 0-9.5 3.5t-3.5 9q0 5.5 3.5 9T113 26v16L81 55q-12 5-20 15T51 92.5q-2 12.5 2.5 25T67 139q-8 7-12.5 16.5T50 176q0 11 4.5 20.5T67 213q-11 11-15 26t1.5 29.5Q59 283 71.5 292t28.5 9h100q16 0 28.5-9t18-23.5Q252 254 248 239t-15-25q8-8 12.5-17.5T250 176q0-11-4.5-20.5T233 138q8-7 12.5-16.5T250 101zm-25 150q0 10-7.5 17.5T200 276H100q-10 0-17.5-7.5T75 251q0-10 7.5-17.5T100 226h100q10 0 17.5 7.5T225 251zm0-75q0 10-7.5 17.5T200 201H100q-10 0-17.5-7.5T75 176q0-10 7.5-17.5T100 151h100q10 0 17.5 7.5T225 176zm-125-50q-9 0-15.5-6T76 105.5Q74 97 78.5 89T91 78l39-16q3-1 5.5-4t2.5-7V26h25v25q-1 4 1.5 7t5.5 4l39 16q8 3 12.5 11t2.5 16.5q-2 8.5-8.5 14.5t-15.5 6H100z"/></svg>