<svg viewBox="0 0 300 302.0011" xmlns="http://www.w3.org/2000/svg"><path d="M144 82q0-13 9-22t22-9q13 0 22 9t9 22q0 13-9 22.5t-22 9.5q-13 0-22-9.5T144 82zm-20 92q4 3 9 1.5t8-5.5q5-9 14.5-14t19.5-5q10 0 19.5 5t14.5 14q4 6 11 6 3 0 7-2t5-7.5q1-5.5-2-9.5-8-14-23-22.5t-32-8.5q-17 0-32 8.5T120 157q-3 4-2 9t6 8zM275 63v175q0 17-8.5 31.5t-23 23Q229 301 212 301H75q-21 0-35.5-14.5T25 251V63q0-16 8.5-30.5t23-23Q71 1 87 1h126q16 0 30.5 8.5t23 23Q275 47 275 64v-1zm-62-37H100v175h150V63q0-15-11-26t-26-11zM50 63v145q12-7 25-7V28q-11 4-18 13.5T50 63zm200 175v-12H75q-10 0-17.5 7.5T50 251q0 10 7.5 17.5T75 276h138q15 0 26-11t11-27z"/></svg>