<svg viewBox="0 0 300 302.0011" xmlns="http://www.w3.org/2000/svg"><path d="M138 301H63q-17 0-31.5-8.5t-23-23Q0 255 0 238v-75q0-16 8.5-30.5t23-23Q46 101 63 101h75q16 0 30.5 8.5t23 23Q200 147 200 164v74q0 17-8.5 31.5t-23 23Q154 301 137 301h1zM63 126q-16 0-27 11t-11 26v75q0 16 11 27t27 11h75q15 0 26-11t11-27v-75q0-15-11-26t-26-11H63zm237 12q0-37-18.5-68.5t-50-50Q200 1 163 1q-6 0-9.5 3.5t-3.5 9q0 5.5 3.5 9T162 26q31 0 57 15t41 41q15 26 15 57 0 5 3.5 8.5t9 3.5q5.5 0 9-3.5t3.5-9.5zm-50 0q0-23-12-43t-32-32q-20-12-43-12-6 0-9.5 3.5t-3.5 9q0 5.5 3.5 9T162 76q17 0 31.5 8.5t23 23Q225 122 225 139q0 5 3.5 8.5t9 3.5q5.5 0 9-3.5t3.5-9.5zM63 151q-6 0-9.5 3.5t-3.5 9q0 5.5 3.5 9t9 3.5q5.5 0 9-3.5t3.5-9q0-5.5-3.5-9T63 151z"/></svg>