<svg viewBox="0 0 300 302.0011" xmlns="http://www.w3.org/2000/svg"><path d="M274 27q-14-14-33-20.5t-40-5q-21 1.5-41 11T124 38q-16 16-25 35.5T88 114q-3 37 17 64l-36 37q-7-2-14.5-.5T42 221L8 255q-8 8-8 19t8 19q8 8 19 8t19-8l34-34q5-5 6.5-12.5T86 232l37-36q24 17 55 18l9-1q21-2 40.5-11t35.5-25q16-16 25.5-36t11-41q1.5-21-5-40T274 27zm1 71q-2 17-9.5 32.5t-20 28.5Q233 172 217 179.5t-32 9q-16 1.5-30-3.5t-24-15q-10-10-15-24t-3.5-30q1.5-16 9-32T142 55.5q13-12.5 28.5-20T203 26h6q29 0 47 19 11 10 15.5 24t3.5 29zm18 188q2 5-1 10t-9 5h-54q-6 0-9-5t-1-10l18-29v-12q0-8 5.5-13.5T256 226q8 0 13.5 5.5T275 245v12l18 29z"/></svg>