<svg viewBox="0 0 300 302.0011" xmlns="http://www.w3.org/2000/svg"><path d="M88 126q-24 0-44 12t-32 32Q0 190 0 213.5T12 257q12 20 32 32t43.5 12q23.5 0 43.5-12t32-32q12-20 12-43.5T163 170q-12-20-32-32t-43-12zm0 150q-17 0-31.5-8.5t-23-23Q25 230 25 213.5t8.5-31q8.5-14.5 23-23t31-8.5q16.5 0 31 8.5t23 23q8.5 14.5 8.5 31t-8.5 31q-8.5 14.5-23 23T87 276h1zm34-81q3 3 3 8 0 2-1 4.5t-4 4q-3 1.5-6 1.5h-14v25q0 6-3.5 9.5t-9 3.5q-5.5 0-9-3.5T75 238v-25H61q-3 0-6-1.5t-4-4.5q-1-3-.5-6.5T53 195l19-19q6-6 15.5-6t15.5 6l19 19zM206 1q-26 0-47.5 6.5t-33.5 18Q113 37 113 51v44q-1 5 3 8.5t9 3.5q5 0 9-3.5t4-8.5v-9q27 15 68.5 15T275 86v15q0 5-9 11t-24.5 10q-15.5 4-35.5 4-12 0-23-2-5 0-9 3t-5 8q-1 5 2 9t8 5q13 2 27 2 42 0 69-15v15q0 5-9 11t-24.5 10q-15.5 4-35.5 4-5 0-8.5 3.5t-3.5 9q0 5.5 3.5 9t8.5 3.5q42 0 69-15v15q0 5-9 11t-24.5 10q-15.5 4-35.5 4-5 0-8.5 3.5t-3.5 9q0 5.5 3.5 9t8.5 3.5q42 0 69-15v15q0 5-9 11t-24.5 10q-15.5 4-35.5 4-9 0-17-1-5-1-9 2.5t-5 8.5q-1 5 2.5 9t8.5 5q10 1 20 1 27 0 48-6.5t33.5-18Q300 265 300 251V51q0-14-12.5-25.5T254 7.5Q233 1 206 1zm0 75q-19 0-35-4t-24.5-10q-8.5-6-8.5-11t8.5-11q8.5-6 24.5-10t35.5-4q19.5 0 35 4T266 40q9 6 9 11t-9 11q-9 6-24.5 10T206 76z"/></svg>