<svg viewBox="0 0 300 302.0011" xmlns="http://www.w3.org/2000/svg"><path d="M150 93V76h13q5 0 8.5-3.5t3.5-9q0-5.5-3.5-9T162 51h-12q0-21-14.5-35.5T100 1Q79 1 64.5 15.5T50 51v42q-22 12-36 34.5T0 176v62q0 17 8.5 31.5t23 23Q46 301 63 301h75q16 0 30.5-8.5t23-23Q200 255 200 238v-62q0-26-14-48.5T150 93zM75 51q0-10 7.5-17.5T100 26q10 0 17.5 7.5T125 51v37H75V51zm100 187q0 16-11 27t-26 11H63q-16 0-27-11t-11-27v-62q0-20 11.5-37.5T65 114h70q17 7 28.5 24.5T175 176v62zm-62-75H88q-16 0-27 11t-11 27q0 16 11 27t27 11h25q15 0 26-11t11-27q0-16-11-27t-26-11zm0 50H88q-6 0-9.5-3.5T75 201q0-5 3.5-8.5T88 189h25q5-1 8.5 3t3.5 9q0 5-3.5 8.5T112 213h1zM225 63q0 6-3.5 9.5t-9 3.5q-5.5 0-9-3.5t-3.5-9q0-5.5 3.5-9t9-3.5q5.5 0 9 3.5T225 64v-1zm75 0q0 6-3.5 9.5t-9 3.5q-5.5 0-9-3.5t-3.5-9q0-5.5 3.5-9t9-3.5q5.5 0 9 3.5T300 64v-1zm-25-50q0-5 3.5-8.5t9-3.5q5.5 0 9 3.5t3.5 9q0 5.5-3.5 9t-9 3.5q-5.5 0-9-3.5T275 13zm25 100q0 6-3.5 9.5t-9 3.5q-5.5 0-9-3.5t-3.5-9q0-5.5 3.5-9t9-3.5q5.5 0 9 3.5t3.5 9.5v-1zm-37-75q0 6-4 9.5t-9 3.5q-5 0-8.5-3.5t-3.5-9q0-5.5 3.5-9T250 26q5 0 9 3.5t4 9.5v-1zm0 50q0 6-4 9.5t-9 3.5q-5 0-8.5-3.5t-3.5-9q0-5.5 3.5-9T250 76q5 0 9 3.5t4 9.5v-1z"/></svg>