<svg viewBox="0 0 300 302.0011" xmlns="http://www.w3.org/2000/svg"><path d="M296 180q4 3 4 8.5t-3.5 9q-3.5 3.5-9 3.5t-8.5-4l-29-28-29 28q-3 4-8.5 4t-9-3.5q-3.5-3.5-3.5-9t4-8.5l28-29-28-29q-4-3-4-8.5t3.5-9q3.5-3.5 9-3.5t8.5 4l29 28 29-28q3-4 8.5-4t9 3.5q3.5 3.5 3.5 9t-4 8.5l-28 29 28 29zM25 76q0-20 10-37.5T62.5 11Q80 1 100 1t37.5 10Q155 21 165 38.5T175 76q0 20-10 37.5T137.5 141Q120 151 100 151t-37.5-10Q45 131 35 113.5T25 76zm25 0q0 21 14.5 35.5T100 126q21 0 35.5-14.5T150 76q0-21-14.5-35.5T100 26q-21 0-35.5 14.5T50 76zm50 100q-27 0-50 13.5T13.5 226Q0 249 0 276v12q0 6 3.5 9.5t9 3.5q5.5 0 9-3.5T25 288v-12q0-20 10-37.5T62.5 211Q80 201 100 201t37.5 10q17.5 10 27.5 27.5t10 37.5v12q0 6 3.5 9.5t9 3.5q5.5 0 9-3.5t3.5-9.5v-12q0-27-13.5-50T150 189.5Q127 176 100 176z"/></svg>