<svg viewBox="0 0 300 302.0011" xmlns="http://www.w3.org/2000/svg"><path d="M130 301H75q-5 0-8.5-3.5t-3.5-9q0-5.5 3.5-9T75 276q26 0 48-15-26-6-47.5-22.5T41 199q-13-23-15.5-50T32 97q10-29 31-51t48.5-34Q139 0 170 1h55q5 0 9 3.5t4 9q0 5.5-4 9t-9 3.5q-26 0-48 15 26 6 47.5 22.5T259 103q13 23 15.5 50t-6.5 52q-10 29-31 51t-48.5 34Q161 302 130 301zm26-274q-34 3-61.5 24T56 105q-8 20-6 42t13 41q11 19 29 32t40 17q6 1 11 5.5t6.5 11q1.5 6.5 0 12T144 275q34-3 61.5-24t38.5-54q8-20 6-42t-13-41q-11-19-29-32t-40-17q-6-1-11-5.5T150.5 49q-1.5-6 0-12t5.5-10zm-6 161q-16 0-26.5-10.5T113 151q0-16 10.5-27t26.5-11q16 0 27 11t11 27q0 16-11 27t-27 10zm0-50q-5 0-9 4t-3.5 9q.5 5 4 9t8.5 3.5q5-.5 9-4t4-8.5q0-5-4-9t-9-4z"/></svg>