<svg viewBox="0 0 300 302.0011" xmlns="http://www.w3.org/2000/svg"><path d="M231 41l-12 4-4 12q-1 4-5 5.5t-7.5 0Q199 61 197 57l-3-12-12-4q-5-1-6.5-5t0-7.5Q177 25 182 23l12-3 3-12q2-5 5.5-6.5t7.5 0q4 1.5 5 6.5l4 12 12 3q4 2 5.5 5.5t0 7.5q-1.5 4-5.5 5zm62 20l-12-4-3-12q-2-4-5.5-5.5t-7.5 0q-4 1.5-5 5.5l-4 12-12 4q-4 1-5.5 5t0 7.5Q240 77 244 79l12 3 4 12q1 5 5 6.5t7.5 0Q276 99 278 94l3-12 12-3q5-2 6.5-5.5t0-7.5q-1.5-4-6.5-5zm-12 75l-12-4-4-12q-1-4-5-5.5t-7.5 0Q249 116 247 120l-3 12-12 4q-5 1-6.5 5t0 7.5q1.5 3.5 6.5 5.5l12 3 3 12q2 5 5.5 6.5t7.5 0q4-1.5 5-6.5l4-12 12-3q4-2 5.5-5.5t0-7.5q-1.5-4-5.5-5zm-81 15v87q0 17-8.5 31.5t-23 23Q154 301 137 301H63q-17 0-31.5-8.5t-23-23Q0 255 0 238v-87q0-22 14-39.5T50 90V45q0-18 13-31T94 1h12q18 0 31 13t13 31v45q22 4 36 21.5t14 39.5zM75 88h50V45q0-8-5.5-13.5T106 26H94q-8 0-13.5 5.5T75 45v43zm100 63q0-16-11-26.5T138 114H63q-16-1-27 10t-11 27v87q0 16 11 27t27 11h75q15 0 26-11t11-27v-87zm-25 50q0 21-14.5 35.5T100 251q-21 0-35.5-14.5T50 201q0-21 14.5-35.5T100 151q21 0 35.5 14.5T150 201zm-25 0q0-10-7.5-17.5T100 176q-10 0-17.5 7.5T75 201q0 10 7.5 17.5T100 226q10 0 17.5-7.5T125 201z"/></svg>