<svg viewBox="0 0 300 302.0011" xmlns="http://www.w3.org/2000/svg"><path d="M150 1q-41 0-75.5 20T20 75.5Q0 110 0 151t20 75.5Q40 261 74.5 281t75.5 20q41 0 75.5-20t54.5-54.5q20-34.5 20-75.5t-20-75.5Q260 41 225.5 21T150 1zm0 275q-34 0-62.5-17T42 213.5Q25 185 25 151t17-62.5Q59 60 87.5 43T150 26q34 0 62.5 17T258 88.5q17 28.5 17 62.5t-17 62.5Q241 242 212.5 259T150 276zm0-188q-17 1-31.5 9T96 119.5Q88 134 88 151t8 31.5q8 14.5 22.5 22.5t31.5 8.5q17 .5 31.5-8t23-23q8.5-14.5 8-31.5t-8.5-31.5Q196 105 181.5 97T150 88zm0 100q-16 0-26.5-10.5T113 151q0-16 10.5-27t26.5-11q16 0 27 11t11 27q0 16-11 27t-27 10zm-12-37q0 5 3.5 9t8.5 4q5 0 9-4t4-9q0-5-4-9t-9-4q-5 0-9 4t-4 9h1z"/></svg>