<svg viewBox="0 0 300 302.0011" xmlns="http://www.w3.org/2000/svg"><path d="M63 113q-18 0-31-12L4 72q-4-3-4-8.5t3.5-9Q7 51 12.5 51t8.5 4l29 28q5 5 12.5 5T75 83l45-44q12-13 30-13t30 13l20 19q5 5 12.5 5t12.5-5l54-53q3-4 8.5-4t9 3.5q3.5 3.5 3.5 9t-4 8.5l-53 54q-12 12-30.5 12T182 76l-19-20q-6-5-13-5t-13 5l-44 45q-13 12-30 12zm37 175V176q0-5-3.5-9t-9-4q-5.5 0-9 4t-3.5 9v112q0 6 3.5 9.5t9 3.5q5.5 0 9-3.5t3.5-9.5zm-62 0V151q0-5-4-9t-9-4q-5 0-8.5 4t-3.5 9v137q0 6 3.5 9.5T25 301q5 0 9-3.5t4-9.5zm125 0V113q0-5-4-8.5t-9-3.5q-5 0-8.5 3.5T138 113v175q0 6 3.5 9.5t8.5 3.5q5 0 9-3.5t4-9.5zm62 0V151q0-5-3.5-9t-9-4q-5.5 0-9 4t-3.5 9v137q0 6 3.5 9.5t9 3.5q5.5 0 9-3.5t3.5-9.5zm63 0V101q0-5-4-9t-9-4q-5 0-8.5 4t-3.5 9v187q0 6 3.5 9.5t8.5 3.5q5 0 9-3.5t4-9.5z"/></svg>