<svg viewBox="0 0 300 302.0011" xmlns="http://www.w3.org/2000/svg"><path d="M275 1h-62q-11 0-18 7.5T188 26v87q0 7 3.5 13.5T202 136q7 3 14 2t13-5l15-12 14 12q6 4 13.5 5t14-2q6.5-3 10.5-9.5t4-13.5V26q0-10-7.5-17.5T275 1zm-1 112l-22-18q-4-2-8.5-2t-7.5 2l-23 18V26h62l-1 87zm26 63v62q0 17-8.5 31.5t-23 23Q254 301 237 301H63q-17 0-31.5-8.5t-23-23Q0 255 0 238V101q0-17 8.5-31.5t23-22.5Q46 39 62 38h88q5 0 9 4t4 9q0 5-4 9t-9 4H63q-11 0-20 5T30 83l93 94q12 11 27 11t27-11l10-10q4-4 9-4t9 4q4 4 3.5 9t-3.5 9l-11 10q-12 12-28 16t-32 0q-16-4-28-16l-81-81v124q0 16 11 27t26 11h176q15 0 26-11t11-27v-62q0-5 3.5-9t9-3.5q5.5.5 9 4t3.5 8.5z"/></svg>