<svg viewBox="0 0 300 302.0011" xmlns="http://www.w3.org/2000/svg"><path d="M125 32q0-13 9-22t22-9q13 0 22.5 9t9 22q-.5 13-9.5 22.5t-22 9q-13-.5-22-9.5t-9-22zm136 141q-3 7-11 7-3 0-6-2l-35-17q-13-7-20-18l-6-10-18 66 16 9q9 5 14 13.5t5 19.5v48q0 5-3.5 8.5t-9 3.5q-5.5 0-9-3.5T175 289v-48q0-8-6-11l-50-29q-11-6-16-17.5t-2-23.5l13-54-8 3-26 13q-5 2-6 8l-10 37q-2 5-6.5 7.5t-9.5 1q-5-1.5-7.5-6T40 160l9-37q5-16 20-23l26-14q21-10 44-10h11q16 0 30 12 7 5 12 12l18 29q4 6 10 9l36 18q4 2 5.5 7t-.5 10zm-118 13l21-79q-7-6-14-6h-9l-16 65q-1 4 1 8t5 6l12 6zm-28 38q-6-3-11.5-.5T96 232l-1 8-21 43q-3 6 1 12t11.5 6q7.5 0 10.5-7l21-44 2-12q1-4-.5-8t-4.5-6z"/></svg>