<svg viewBox="0 0 300 302.0011" xmlns="http://www.w3.org/2000/svg"><path d="M288 63h-33l29-28q3-4 3-9t-3.5-8.5Q280 14 275 14t-9 3l-28 29V13q0-5-4-8.5T225 1q-5 0-8.5 3.5T212 13v56q-15-16-35-26-15-7-30-3t-25 16q-15 14-55 83-27 48-63 116-5 9-3.5 19t9 17.5q7.5 7.5 17.5 9t19-3.5q68-36 116-63 69-40 83-55 12-10 16-25t-3-30q-10-20-26-36h56q5 0 8.5-3.5T300 76q0-5-3.5-9t-8.5-4zm-60 99q-14 11-29 20l-28-27q-3-4-8.5-4t-9 3.5q-3.5 3.5-3.5 9t4 8.5l23 24q-54 32-143 79-4 2-7-1t-1-7q28-53 52-96l26 26q3 4 8.5 4t9-3.5q3.5-3.5 3.5-9t-4-8.5l-30-31q20-36 34-56l29 29q3 4 8.5 4t9-3.5q3.5-3.5 3.5-9t-4-8.5l-31-32q8-7 13.5-9t13.5 2q21 12 38 30 18 17 30 38 3 7 2 13.5t-9 14.5z"/></svg>