<svg viewBox="0 0 300 302.0011" xmlns="http://www.w3.org/2000/svg"><path d="M238 63h12q5 0 9-3.5t4-8.5q0-5-4-9t-9-4h-50q-5 0-9 4t-3.5 9q.5 5 4 9t8.5 4H88V38h12q5 0 8.5-3.5t4-8.5q.5-5-3.5-9t-9-4H50q-5 0-8.5 4T38 26q0 5 3.5 9t8.5 4h13v24q-17 1-31.5 9t-23 22.5Q0 109 0 126v87q0 19 10 34.5T37 271v17q0 6 4 9.5t9 3.5q5 0 8.5-3.5T62 289v-13h176v12q0 6 3.5 9.5t8.5 3.5q5 0 9-3.5t4-8.5v-18q17-8 27-23.5t10-34.5v-87q0-17-8.5-31.5t-23-22.5Q254 64 238 63zm37 150q0 16-11 27t-27 11H63q-16 0-27-11t-11-27v-87q0-16 11-27t26-11h176q15 0 26 11t11 27v87zM94 113q-24 0-40.5 16.5t-16 40q.5 23.5 16.5 40T93.5 226q23.5 0 40-16.5t16.5-40q0-23.5-16.5-40T94 113zm0 88q-12 0-21-7.5T62.5 174q-1.5-12 5-21.5t17.5-13q11-3.5 22 2t15 15.5h-22q-5 0-8.5 4t-3.5 9q0 5 3.5 8.5t8.5 3.5h22q-3 9-11 14t-17 5zm112-88q-19 0-34 12t-20 30.5q-5 18.5 2 36t23.5 27q16.5 9.5 35.5 7t33-15.5v-1q12-12 15.5-28.5t-3-32.5q-6.5-16-21-25t-31.5-9v-1zm-31 57q0-10 5-18t14-11.5q9-3.5 18-1.5t16 8.5q7 6.5 9 15.5t-2 18l-15-16q-4-3-9.5-3t-9 3.5Q198 169 198 174t4 9l16 16q-6 2-12 2-13 0-22-9t-9-22z"/></svg>