<svg viewBox="0 0 300 302.0011" xmlns="http://www.w3.org/2000/svg"><path d="M150 1q-41 0-75.5 20T20 75.5Q0 110 0 151t20 75.5Q40 261 74.5 281t75.5 20q41 0 75.5-20t54.5-54.5q20-34.5 20-75.5t-20-75.5Q260 41 225.5 21T150 1zm0 275q-34 0-62.5-17T42 213.5Q25 185 25 151t17-62.5Q59 60 87.5 43T150 26q34 0 62.5 17T258 88.5q17 28.5 17 62.5t-17 62.5Q241 242 212.5 259T150 276zm50-100q0 21-14.5 35.5T150 226h-37q-6 0-9.5-3.5t-3.5-9q0-5.5 3.5-9t8.5-3.5h38q10 0 17.5-7.5T175 176q0-10-7.5-17.5T150 151h-25q-5 0-8.5-3.5t-4-9q-.5-5.5 3.5-9t9-3.5h25q5 0 9-3.5t4-9q0-5.5-4-9t-9-3.5h-37q-6 0-9.5-3.5t-3.5-9q0-5.5 3.5-9T112 76h38q16 0 26.5 11t10.5 27q1 12-7 22 9 7 14.5 17.5T200 176z"/></svg>