<svg viewBox="0 0 300 302.0011" xmlns="http://www.w3.org/2000/svg"><path d="M242 185q15-6 23.5-18.5T275 138q0-24-22-39.5T190 78q10-12 10-27 0-23-20.5-36.5T125 1Q91 1 70.5 14.5T50 51q0 12 6.5 22.5T74 89q-20 9-29 23-8 12-8 26.5t7.5 26.5Q52 177 65 184 0 198 0 238q0 31 38 47t112 16q150 0 150-63 0-38-58-53zM125 26q21 0 35.5 6.5T175 51q0 12-14.5 18.5T125 76q-21 0-35.5-6.5T75 51q0-12 14.5-18.5T125 26zm31 75q38 0 63 8 31 10 31 29.5T219 168q-25 8-63 8-34 0-57-6-36-9-36-31.5T99 107q23-6 57-6zm-6 175q-57 0-91-10t-34-27.5Q25 221 59 211t92-10q58 0 91 10t33 27.5q0 17.5-33 27.5t-92 10z"/></svg>