<svg viewBox="0 0 300 302.0011" xmlns="http://www.w3.org/2000/svg"><path d="M275 288q0 5-3.5 9t-8.5 4q-5 0-9-3.5t-4-8.5q-1-11-7.5-20T226 256l-68-25q-3-1-5.5-4.5T150 219v-67q0-5-3-9t-8-4.5q-5-.5-9.5 3T125 151v106q0 5-3 10t-8 7.5q-5 2.5-10.5 2T93 272l-22-18q-4-3-9-3t-8.5 4q-3.5 4-3.5 9t4 9l7 7q4 3 4 8.5t-3.5 9q-3.5 3.5-9 3.5t-8.5-3l-7-7q-11-11-11.5-26.5T35 238q10-11 25.5-12t26.5 9l13 11v-95q0-17 13-28.5t31-8.5q13 2 22 13t9 25v59l60 22q17 6 28 21t12 34zM65 44q-1-1-2.5-1T60 44l-9 26h23l-9-26zM0 63q0-16 8.5-30.5t23-23Q46 1 62.5 1t31 8.5q14.5 8.5 23 23t8.5 31q0 16.5-8.5 31t-23 23Q79 126 62.5 126t-31-8.5q-14.5-8.5-23-23T0 63zm37 35q5 0 6-4l4-10h31l4 10q1 4 6 4 3 0 5.5-2.5T94 89L77 39q-2-6-5.5-8t-9-2q-5.5 0-9 2T47 39L31 89q-2 4 0 6.5t6 2.5zm169-14h20q3 0 5-1.5t2.5-4.5q.5-3-2-5.5T226 70h-27v7q0 3 2 5t5 2zm20-35q0-3-2-4.5t-5-1.5h-13q-3 0-5 2t-2 5v7h20q3 0 5.5-2.5T226 49zm-76 14q0-16 8.5-30.5t23-23Q196 1 212.5 1t31 8.5q14.5 8.5 23 23t8.5 31q0 16.5-8.5 31t-23 23q-14.5 8.5-31 8.5t-31-8.5q-14.5-8.5-23-23T150 63zm35 13q0 9 6.5 15.5T207 98h19q8 0 14.5-5.5T247 79q1-6-2-11t-7-8q2-5 2-11 0-8-6.5-14T219 29h-11q-10 0-16.5 6.5T185 51v25z"/></svg>