<svg viewBox="0 0 300 302.0011" xmlns="http://www.w3.org/2000/svg"><path d="M198 254q-5 21-22 34t-39 13H63q-17 0-31.5-8.5t-23-23Q0 255 0 238V76q0-5 3.5-8.5t9-4q5.5-.5 9 3.5t3.5 9v37h25q5 0 9 4t4 9q0 5-4 9t-9 4H25v99q0 16 11 27t26 11h76q12 0 22.5-8t13.5-20q1-5 5.5-7.5t9.5-1.5q5 1 7.5 5.5t1.5 9.5zm102-28q0 11-6 20.5T277 261l19 19q4 3 4 8.5t-3.5 9q-3.5 3.5-9 3.5t-8.5-4L4 22q-4-3-4-8.5t3.5-9Q7 1 12.5 1T21 5l7 6Q44 1 63 1h75q16 0 30.5 8.5t23 23Q200 47 200 63v120l55 55h8q5 0 8.5-3.5t3.5-8.5V101q-10 0-17.5-7.5T250 76V44l-21-22q-4-3-4-8.5t3.5-9q3.5-3.5 9-3.5t8.5 4l32 31q10 11 16 24t6 28v138zm-125-88h-20l20 20v-20zM46 30l84 83h45V63q0-15-11-26t-26-11H63q-9 0-17 4z"/></svg>