<svg viewBox="0 0 300 302.0011" xmlns="http://www.w3.org/2000/svg"><path d="M238 1H63Q46 1 31.5 9.5t-23 23Q0 47 0 63v175q0 17 8.5 31.5t23 23Q46 301 63 301h175q16 0 30.5-8.5t23-23Q300 255 300 238V63q0-16-8.5-30.5t-23-23Q254 1 238 1zm37 237q0 16-11 27t-26 11H63q-16 0-27-11t-11-27V63q0-15 11-26t27-11h175q15 0 26 11t11 26v175zM63 126q0-5 3.5-9t8.5-4h113q5 0 8.5 4t3.5 9q0 5-3.5 8.5T188 138H75q-5 0-8.5-3.5T63 126zm0-50q0-5 3.5-9t8.5-4h75q5 0 9 4t4 9q0 5-4 8.5t-9 3.5H75q-5 0-8.5-3.5T63 76zm175 100q0 5-4 8.5t-9 3.5H75q-5 1-8.5-3t-3.5-9q0-5 3.5-9t8.5-4h150q5 0 9 4t4 9zm-113 50q0 5-3.5 8.5T112 238H75q-5 0-9-3.5t-4-8.5q0-5 4-8.5t9-3.5h37q6-1 9.5 3t3.5 9z"/></svg>