<svg viewBox="0 0 300 302.0011" xmlns="http://www.w3.org/2000/svg"><path d="M291 216l-40-38-1-5q-1-3 .5-5.5t3.5-3.5q10-7 15.5-17t5.5-21q0-11-6-21-5-10-15-17-2-1-3.5-3.5T250 79q3-11-.5-22T238 38q-8-8-19-11.5t-22-.5q-3 0-5.5-1t-4.5-4q-6-9-16-14.5T149.5 1q-11.5 0-21 5.5T112 21q-1 3-3.5 4t-5.5 1q-11-3-22 .5T62 38q-8 8-11.5 19T50 79q0 3-1 5.5T45 89q-9 6-14.5 16T25 126q0 11 5.5 21.5T45 164q3 1 4 3.5t1 5.5l-1 5-40 38q-6 6-8 14.5t.5 17Q4 256 11 261t16 6l9 1 1 7q1 9 6.5 15.5T57 299q4 2 9 2 12 0 21-8l46-45q9 3 17 3t16-4l47 46q9 8 21 8 5 0 9-2 8-2 13.5-8.5T263 275l1-7 9-1q9-1 15.5-6t9.5-13.5q3-8.5 1-16.5t-8-15zM70 275q-2 2-5 1t-3-4l-3-17q0-4-3-7t-8-4l-19-2q-3 0-4-3t1-5l29-27q9 14 25 19 12 3 23 0 6-1 10 5l1 1-44 43zm71-51q-5-3-7-7-5-7-13-11.5t-16-4.5q-4 0-8 1t-9-.5q-5-1.5-8.5-5t-5-8Q73 184 74 179q2-11-2-21t-13-15q-4-3-6.5-7.5T50 126q0-5 2.5-9.5T59 109q9-5 13-15t2-21q-1-5 .5-9.5t5-8q3.5-3.5 8-5T97 50q11 2 21-2t16-13q2-4 6.5-6.5T150 26q5 0 9.5 2.5T166 35q6 9 16 13t20 2q5-1 10 .5t8.5 5q3.5 3.5 5 8t.5 9.5q-3 11 1.5 21t13.5 15q4 3 6.5 7.5t2.5 9.5q0 5-2.5 9.5T241 143q-9 5-13.5 15t-1.5 21q1 4-.5 9t-5 8.5q-3.5 3.5-8.5 5t-10 .5q-10-2-20 2t-16 13q-2 4-6.5 6.5T150 226q-5 0-9-2zm134 15q-1 3-4 3l-19 2q-5 1-8 4t-3 7l-3 17q0 3-2.5 4t-5.5-1l-44-43 1-1q4-6 10-5 11 3 22 0 16-5 25-20l30 28q2 2 1 5zm-100-50h-41q-7 0-12.5-4t-7.5-10.5q-2-6.5-.5-13T120 150l10-8q16-13 22-20 12-13 10-24 0-4-3.5-6.5T150 89q-5 0-8.5 3.5T138 101q0 5-4 9t-9 4q-5 0-8.5-4t-3.5-9q0-15 11-26t25.5-11q14.5 0 25.5 9t12 23q2 19-13 38-8 11-28 27l-3 3h32q5 0 9 3.5t4 8.5q0 5-4 9t-9 4z"/></svg>