<svg viewBox="0 0 300 302.0011" xmlns="http://www.w3.org/2000/svg"><path d="M238 51h-14q-5-22-22-36T163 1H63Q46 1 31.5 9.5t-23 23Q0 47 0 63v161q0 8 4 14t10 9.5q6 3.5 13.5 3.5t14.5-5l37-24q6 18 22 29.5t36 11.5h72l49 33q7 5 14.5 5t13.5-3.5q6-3.5 10-9.5t4-14V113q0-16-8.5-30.5t-23-23Q254 51 237 51h1zM28 226h-2q-1-1-1-2V63q0-15 11-26t27-11h100q15 0 26 11t11 26v88q0 15-11 26t-26 11H88q-4 0-7 3l-53 35zm247 48v1l-1 1h-2l-52-35q-4-2-7-2h-75q-12 0-22-7t-14-18h61q17 0 31-8.5t22.5-23Q225 168 225 151V76h13q15 0 26 11t11 26v161zM97 163q-10 0-19-5t-14-13q-2-5-1-10t5.5-7.5q4.5-2.5 9.5-1t8 6.5q3 5 11 5h33q3 0 5-2t2-5q0-3-1.5-5.5T131 123l-41-7q-12-2-20-11t-8-22q0-13 10-22.5T95 51h5q0-5 3.5-9t9-4q5.5 0 9 4t3.5 9h3q10 0 19 5t14 14q2 4 1 9t-5.5 7.5Q152 89 147 88t-8.5-6.5Q135 76 128 76H95q-3 0-5 2.5T88 84q0 3 1.5 5t4.5 2l41 7q12 2 19.5 11.5t7.5 22q0 12.5-9.5 22T130 163h-5q0 6-3.5 9.5t-9 3.5q-5.5 0-9-3.5T100 163h-3z"/></svg>