<svg viewBox="0 0 300 302.0011" xmlns="http://www.w3.org/2000/svg"><path d="M150 1q-41 0-75.5 20T20 75.5Q0 110 0 151t20 75.5Q40 261 74.5 281t75.5 20q41 0 75.5-20t54.5-54.5q20-34.5 20-75.5t-20-75.5Q260 41 225.5 21T150 1zm125 150q0 38-21 69l-15-15-2-4v-13q0-15-10.5-26T200 151h-37q-6 0-9.5-3.5T150 139v-7q0-2 2-4t4-2q13 0 22-9t9-22V82q1-2 2.5-4t4.5-2h17q13 0 22-9l5-5q18 18 27.5 41t9.5 48zM26 163l39 40q11 11 27 10h33q5 0 9 4t4 9v49q-30-3-54.5-18.5t-40-40Q28 192 26 163zm137 112v-49q0-16-11-27t-27-11H92q-6 1-9-3l-56-56q5-31 24.5-55.5t48.5-37q29-12.5 60.5-10T218 46l-3 3q-1 2-4 2h-17q-13 0-22.5 9T163 82v13q0 2-2 4t-5 2q-13 0-22 9t-9 22v6q0 16 11 27t27 11h37q5 0 9 3.5t4 9.5v12q0 12 9 22l16 16q-15 16-34.5 25T162 275h1z"/></svg>