<svg viewBox="0 0 300 302.0011" xmlns="http://www.w3.org/2000/svg"><path d="M291 216l-40-38-1-5q-1-3 .5-5.5t3.5-3.5q10-7 15.5-17t5.5-21.5q0-11.5-5.5-21T254 88q-2-1-3.5-3.5T250 79q3-11-.5-22T238 38q-8-8-19-11.5t-22-.5q-3 0-5.5-1t-4.5-4q-6-9-16-14.5T149.5 1q-11.5 0-21 5.5T112 21q-1 3-3.5 4t-5.5 1q-11-3-22 .5T62 38q-8 8-11.5 19T50 79q0 3-1 5.5T45 88q-9 7-14.5 17T25 126q0 11 5.5 21T45 164q3 1 4 3.5t1 5.5l-1 5-40 38q-6 6-8 14.5t.5 17Q4 256 11 261t16 6l9 1 1 7q1 9 6.5 15.5T57 299q4 2 9 2 12 0 21-8l46-45q9 3 17 3t16-4l47 46q9 8 21 8 5 0 9-2 8-2 13.5-8.5T263 275l1-7 9-1q9-1 16-6t9.5-13.5q2.5-8.5.5-17t-8-14.5zM70 275q-3 2-5.5 1t-2.5-4l-3-17q0-4-3-7t-8-4l-19-2q-3 0-4-3t1-5l29-28q9 15 25 20 12 3 23 0 3 0 5.5 1t3.5 4l2 1-44 43zm71-51q-5-3-8-7-4-7-12-11.5t-16-4.5q-4 0-8.5 1t-9-.5q-4.5-1.5-8-5t-5-8Q73 184 74 179q2-11-2-21t-13-15q-4-3-6.5-7.5T50 126q0-5 2.5-9.5T59 109q9-5 13-15t2-21q-1-5 .5-9.5t5-8q3.5-3.5 8.5-5t9-.5q11 2 21-2t15-13q3-4 7.5-6.5T150 26q5 0 9.5 2.5T166 35q6 9 16 13t20 2q5-1 10 .5t8.5 5q3.5 3.5 5 8t.5 9.5q-3 11 1.5 21t13.5 15q4 3 6 8 3 4 3 9t-2.5 9.5Q245 140 241 142q-9 6-13.5 16t-1.5 21q1 5-.5 9.5t-5 8q-3.5 3.5-8.5 5t-10 .5q-10-2-20 2t-16 13q-2 4-6.5 6.5T150 226q-5 0-9-2zm134 15q-1 3-4 3l-19 2q-5 1-8 4t-3 7l-3 17q0 3-3 4t-5-1l-44-43 1-1q2-3 4.5-4t5.5-1q11 3 22 0 16-5 25-20l30 28q2 2 1 5zm-75-113q0-21-14.5-35.5T150 76q-21 0-35.5 14.5T100 126q0 21 14.5 35.5T150 176q21 0 35.5-14.5T200 126zm-50 25q-10 0-17.5-7.5T125 126q0-10 7.5-17.5T150 101q10 0 17.5 7.5T175 126q0 10-7.5 17.5T150 151z"/></svg>