<svg viewBox="0 0 300 302.0011" xmlns="http://www.w3.org/2000/svg"><path d="M50 163q0 6 3.5 9.5t9 3.5q5.5 0 9-3.5t3.5-9q0-5.5-3.5-9t-9-3.5q-5.5 0-9 3.5T50 163zM0 113q0 6 3.5 9.5t9 3.5q5.5 0 9-3.5t3.5-9q0-5.5-3.5-9t-9-3.5q-5.5 0-9 3.5T0 113zm50-50q0 6 3.5 9.5t9 3.5q5.5 0 9-3.5t3.5-9q0-5.5-3.5-9t-9-3.5q-5.5 0-9 3.5T50 63zM0 13q0 6 3.5 9.5t9 3.5q5.5 0 9-3.5t3.5-9q0-5.5-3.5-9t-9-3.5Q7 1 3.5 4.5T0 13zm275 150q0 6 3.5 9.5t9 3.5q5.5 0 9-3.5t3.5-9q0-5.5-3.5-9t-9-3.5q-5.5 0-9 3.5T275 163zm-50-50q0 6 3.5 9.5t9 3.5q5.5 0 9-3.5t3.5-9q0-5.5-3.5-9t-9-3.5q-5.5 0-9 3.5T225 113zm50-50q0 6 3.5 9.5t9 3.5q5.5 0 9-3.5t3.5-9q0-5.5-3.5-9t-9-3.5q-5.5 0-9 3.5T275 63zm-50-50q0 6 3.5 9.5t9 3.5q5.5 0 9-3.5t3.5-9q0-5.5-3.5-9t-9-3.5q-5.5 0-9 3.5T225 13zm-62 275q-1 6 3 9.5t9 3.5q5 0 9-3.5t4-9q0-5.5-4-9t-9-3.5q-5 0-9 3.5t-4 8.5h1zm-50-50q-1 6 3 9.5t9 3.5q5 0 9-3.5t4-9q0-5.5-4-9t-9-3.5q-5 0-8.5 3.5T113 239v-1zm50-50q0 6 3.5 9.5t8.5 3.5q5 0 9-3.5t3.5-9q-.5-5.5-4-9T175 176q-5 0-9 3.5t-4 9.5l1-1zm-50-50q0 6 3.5 9.5t8.5 3.5q5 0 9-3.5t4-9q0-5.5-4-9t-9-3.5q-5 0-8.5 3.5T113 138zm75-100q-11 0-18-7t-7-17q0-6-4-9.5T150 1q-5 0-9 3.5t-4 8.5h1q-1 11-8 18.5T112 39h1q-6-1-9.5 3t-3.5 9q0 5 3.5 9t9.5 4q10-1 17.5 6.5T138 89q0 5 3.5 8.5t8.5 3.5q5 0 9-3.5t4-8.5q0-11 7-18t18-7q5 0 8.5-4t3.5-9q0-5-3.5-8.5T188 38zM88 238q-11 0-18.5-7T63 214q0-6-4-9.5t-9-3.5q-5 0-8.5 3.5T38 214q0 10-7.5 17T13 238q-6 0-9.5 4T0 251q0 5 3.5 8.5T12 263h1q10 1 17 8t7 17h1q0 6 3.5 9.5T50 301q5 0 8.5-3.5T62 289h1q0-11 7-18t17-7h1q5-1 8.5-4.5t3.5-8.5q0-5-3.5-8.5T87 239l1-1zm200 0q-11 0-18.5-7t-7.5-17h1q0-6-4-9.5t-9-3.5q-5 0-8.5 3.5T237 214h1q0 10-7.5 17t-18.5 7h1q-6 0-9.5 4t-3.5 9q0 5 3.5 8.5t8.5 3.5h1q10 0 17 7.5t7 17.5h1q0 6 3.5 9.5t8.5 3.5q5 0 9-3.5t4-8.5q0-11 7-18t17-7h1q5-1 8.5-4.5t3.5-8.5q0-5-3.5-8.5T288 239v-1z"/></svg>