<svg viewBox="0 0 300 302.0011" xmlns="http://www.w3.org/2000/svg"><path d="M200 26h-2q-4-11-13.5-18T163 1h-25q-13 0-22.5 7T102 26h-2q-17 0-31.5 8.5T46 57.5Q38 72 38 89v149q0 17 8 31.5t22.5 23Q83 301 100 301h100q17 0 31.5-8.5t23-23Q263 255 262 238V88q0-16-8-30.5t-22.5-23Q217 26 200 26zm38 212q0 16-11 27t-27 11H100q-16 0-27-11t-11-27V88q0-15 11-26t27-11h13q5 0 8.5-3.5t3.5-9 3.5-9Q132 26 137 26h26q5 0 8.5 3.5t3.5 9 3.5 9Q182 51 187 51h13q16 0 26.5 11T237 88v150h1zm-85-137q3 4 3 9t-3 9l-23 23q-9 9-21.5 9T88 143l-9-8q-3-3-3.5-8.5t3.5-9q4-3.5 9-4t9 3.5l8 8q1 1 3 1t4-2l23-23q4-3 9-3t9 3zm0 75q3 4 3 9t-3 9l-23 23q-9 9-21.5 9T88 218l-9-8q-3-3-3.5-8.5t3.5-9q4-3.5 9-4t9 3.5l8 8q1 1 3 1t4-2l23-23q4-3 9-3t9 3zm60-38q0 6-4 9.5t-9 3.5h-25q-5 0-9-3.5t-3.5-9q.5-5.5 4-9t8.5-3.5h25q5 0 8.5 3.5t4.5 9.5v-1zm0 75q0 6-4 9.5t-9 3.5h-25q-5 0-9-3.5t-3.5-9q.5-5.5 4-9t8.5-3.5h25q5 0 9 3.5t4 8.5z"/></svg>