<svg viewBox="0 0 300 302.0011" xmlns="http://www.w3.org/2000/svg"><path d="M249 70l-43-43q-12-13-28.5-19.5T144 1H88Q71 1 56.5 9.5t-23 23Q25 47 25 63v175q0 17 8.5 31.5t23 23Q71 301 87 301h126q16 0 30.5-8.5t23-23Q275 255 275 238V132q0-17-6.5-33.5T249 70zm-17 18q5 6 9 13h-53q-6 0-9.5-3.5T175 88V35q7 4 13 9l44 44zm18 150q0 16-11 27t-27 11H88q-16 0-27-11t-11-26V63q0-15 11-26t26-11h57l6 1v61q0 16 11 27t27 11h61l1 6v106zm-41-71q4 4 3.5 9t-3.5 9l-45 43q-11 11-26.5 10.5T111 228l-19-18q-4-3-4.5-8t3-9q3.5-4 8.5-4.5t9 3.5l20 17q4 4 9.5 4.5t8.5-3.5l45-43q4-4 9-3.5t9 3.5z"/></svg>