<svg viewBox="0 0 300 302.0011" xmlns="http://www.w3.org/2000/svg"><path d="M132 94q8 7 18.5 7t17.5-7l25-25q7-7 7-17.5T193 33L168 9q-7-8-17.5-8T132 9l-24 24q-8 8-8 18.5t8 17.5l24 25zm18-68l25 25-25 25-25-25 25-25zm150 50v126q0 20-7.5 38.5T271 273l-25 24q-3 4-8.5 4t-9-3.5q-3.5-3.5-3.5-9t4-8.5l24-25q11-10 16.5-24t5.5-29V76q0-5-3.5-9t-9-4q-5.5 0-9 4t-3.5 9v101q0 13-9 23l-32 34q-4 3-9 3t-8.5-3.5q-3.5-3.5-4-8.5t3.5-9l32-33q2-3 2-7v-1q0-4-3.5-7.5t-8.5-4q-5-.5-9 3.5l-39 36q10 20 10 41v45q0 5-3.5 8.5t-9 3.5q-5.5 0-9-3.5T150 289v-45q0-13-5.5-25T130 198l-34-31q-4-4-9-3.5t-8.5 4q-3.5 3.5-3.5 8t3 8.5l32 33q4 4 3.5 9t-4 9q-3.5 4-8.5 3.5t-9-3.5l-33-34q-8-11-9-24V76q0-5-3.5-8.5t-9-3.5q-5.5 0-9 3.5T25 76v126q0 15 5.5 29T47 255l24 25q4 3 4 8.5t-3.5 9q-3.5 3.5-9 3.5t-8.5-4l-25-24q-14-14-21.5-32.5T0 202V76q0-16 11-27t26.5-11Q53 38 64 49t11 27v65q6-2 10-2 16-1 27 9l38 35 37-35q12-10 28-9 4 0 10 2V76q0-16 11-26.5t26.5-11Q278 38 289 49t11 27z"/></svg>