<svg viewBox="0 0 300 302.0011" xmlns="http://www.w3.org/2000/svg"><path d="M263 151h-38q-10 0-17.5 7.5T200 176t-7.5 17.5Q185 201 175 201h-50q-10 0-17.5-7.5T100 176t-7.5-17.5Q85 151 75 151H38q-16 0-27 11T0 188v50q0 17 8.5 31.5t23 23Q46 301 63 301h175q16 0 30.5-8.5t23-23Q300 255 300 238v-50q0-15-11-26t-26-11zm12 87q0 16-11 27t-27 11H63q-16 0-27-11t-11-27v-50q0-5 3.5-8.5T38 176h37q0 21 14.5 35.5T125 226h50q21 0 35.5-14.5T225 176h38q5 0 8.5 3.5t3.5 8.5v50zM91 90q-4-4-4-9t4-8.5q4-3.5 9-3.5t9 3l29 29V13q0-5 3.5-8.5T150 1q5 0 9 3.5t4 8.5v88l28-29q4-3 9-3t9 3.5q4 3.5 4 8.5t-4 9l-41 41q-8 7-18 7t-18-7L91 90z"/></svg>