<svg viewBox="0 0 300 302.0011" xmlns="http://www.w3.org/2000/svg"><path d="M299 112q-6-32-27-57t-53-39.5Q187 1 150 1T81 15.5Q49 30 28 55T1 112q-2 12 1.5 24T15 157l75 72q-2 8-2 16v12q0 18 12.5 31t30.5 13h38q18 0 31-13t13-31v-12q0-8-3-16l75-72q9-9 12.5-21t1.5-24zm-33-21q-8-3-16-3-19 1-39 14-6-39-31-73 29 6 52 22.5T266 91zM158 201h-16l-28-71q8-7 16-11 11-5 20-5.5t20 5.5q8 4 16 11l-28 71zM115 99q5-22 16-42 8-14 19-26 11 12 19 26 11 20 16 42-18-10-35-10.5T115 99zm5-70q-25 34-31 73-20-14-39-13-8-1-16 2 11-23 34-39.5T120 29zM26 129q10-16 24-16 10 0 21 7 9 5 17 12l28 72q-5 2-10 5l-73-70q-5-4-7-10zm162 128q0 8-5.5 13.5T169 276h-38q-8 0-13.5-5.5T112 257v-12q1-8 6-13.5t13-5.5h38q8 0 13.5 5.5T188 245v12zm6-48q-5-3-10-5l28-72q8-7 17-12 11-7 21-7 14 0 24 16-2 6-6 10l-74 70z"/></svg>