<svg viewBox="0 0 300.0021 302.0011" xmlns="http://www.w3.org/2000/svg"><path d="M25 76V13q0-5 3.5-8.5t9-3.5q5.5 0 9 3.5T50 13v63q0 5 3.5 8.5T62 88h76q5 0 8.5-3.5T150 76V13q0-5 3.5-8.5t9-3.5q5.5 0 9 3.5T175 13v63q0 16-11 26.5T138 113H63q-16 0-27-10.5T25 76zm75-38q12 0 22.5-7T137 13q2-4-1-8t-8-4H72q-5 0-8 4t-1 8q4 11 14 18t23 7zm190 126l-85 95q-17 20-41.5 31T112 301H50q-21 0-35.5-14.5T0 251v-62q0-21 14.5-35.5T50 139h111q10 0 19 5t14 14l41-45q10-11 25.5-12t27 9.5q11.5 10.5 12.5 26T290 164zm-19-35q-4-3-9-3t-9 4l-55 61q-4 10-12.5 17t-19.5 9l-64 9q-5 1-9.5-2.5t-5-8.5q-.5-5 2.5-9t8-5l65-9q5-1 8.5-5t3.5-9.5q0-5.5-4-10t-10-4.5H50q-10 0-17.5 7.5T25 188v63q0 10 7.5 17.5T50 276h62q21 0 40.5-9t34.5-24l85-96q3-4 3-9t-4-9z"/></svg>