<svg viewBox="0 0 300 302.0011" xmlns="http://www.w3.org/2000/svg"><path d="M146 288q-15 1-26-10l-43-43q-6-5-4-12.5t9.5-9.5q7.5-2 12.5 4l42 43q4 3 9 3t9-3l68-68q3-3 8.5-3t9 3.5q3.5 3.5 3.5 8.5t-4 9l-67 68q-11 11-27 10zm-58-12q0-5-4-9t-9-3h-4q-16-1-29-11.5T25 226q-2-14 4.5-26T48 181q9-5 12-14.5T58 148q-10-19-8.5-40.5t14.5-39Q77 51 96.5 43t40.5-4.5q21 3.5 37 18T197 91q2 9 9 16t16 10q25 8 40 29.5t13 48.5q-2 22-17 39.5T221 258q-5 2-7 6.5t-.5 9.5q1.5 5 6 7t9.5 1q31-9 51-35.5t20-59q0-32.5-19.5-59T229 93q-7-2-9-9-10-33-38-52.5T119.5 14Q85 16 59 38.5T27 94q-3 17-.5 33.5T37 159q-20 10-30 29.5T1 230q5 25 24.5 41.5T71 289h4q5-1 8.5-4.5T87 276h1z"/></svg>