<svg viewBox="0 0 300 302.0011" xmlns="http://www.w3.org/2000/svg"><path d="M225 163q0 6-3.5 9.5t-9 3.5q-5.5 0-9-3.5t-3.5-9q0-5.5 3.5-9t9-3.5q5.5 0 9 3.5t3.5 8.5zm-37-50q-6 0-9.5 4t-3.5 9q0 5 3.5 9t9 3.5q5.5-.5 9-4t3.5-8.5q0-5-3.5-9t-8.5-4zm50 0q-6 0-9.5 4t-3.5 9q0 5 3.5 9t9 3.5q5.5-.5 9-4t3.5-8.5q0-5-3.5-9t-8.5-4zm56-38q12 53 .5 99T251 252q-32 32-78 43.5t-99-.5q-5-2-10-1-4 1-11 3-10 4-15 4-10 0-19-5T5 282.5Q0 274 0 264t4.5-19Q9 236 6 227q-10-50-3-88 9-49 45-90 41-36 90-45 38-7 88 3 9 3 18-1.5T263 1q10 0 18.5 5T295 20q5 9 5 18 0 6-4 16-2 7-3 10-1 6 1 11zm-21-31q4-6 .5-12T262 26l-6 2q-11 4-17 5-10 1-19-2-51-12-96 2.5T52 84q-28 39-27 92-1 11 3 33 4 17 4 25 0 14-5 23-2 4-1.5 8t3.5 7q3 3 7 3.5t7-1.5q10-5 24-5 8 1 25 4 22 4 33 3 27 0 51-8 35-10 58-33t33-58q8-24 8-51 1-11-3-33-3-17-4-25 0-14 5-24z"/></svg>