<svg viewBox="0 0 300 302.0011" xmlns="http://www.w3.org/2000/svg"><path d="M200 251q0 5-3.5 8.5T188 263H38q-16 1-27-10T0 226q0-12 7-21.5T25 191v-90q0-5 3.5-8.5t9-4q5.5-.5 9 3.5t3.5 9v87h56q5 0 9 4l9 9h26q5 0 9 3.5t4 9q0 5.5-4 9t-9 3.5h-31q-5 0-9-4l-9-9H38q-6 0-9.5 4t-3.5 9q0 5 3.5 8.5T38 238h150q5 1 8.5 4.5t3.5 8.5zm96 29q4 3 4 8.5t-3.5 9q-3.5 3.5-9 3.5t-8.5-4L4 22q-4-3-4-8.5t3.5-9Q7 1 12.5 1T21 5l40 39q13-5 26-6h126q16 1 30.5 9t23 22.5Q275 84 275 101v90q11 4 18 13.5t7 21q0 11.5-6.5 21T277 261l19 19zm-41-41q4 0 8.5-.5t8-4q3.5-3.5 3.5-8.5t-3.5-9q-3.5-4-9.5-4h-32l25 26zM81 64l124 124h45v-87q0-16-11-26.5T213 64H88q-4-1-7 0z"/></svg>