<svg viewBox="0 0 300 302.0011" xmlns="http://www.w3.org/2000/svg"><path d="M260 228l-3-3q15-19 23-41t8-45q0-7-1-13t-5-9.5q-4-3.5-9-3t-8.5 4.5q-3.5 4-2.5 9l1 12q-1 20-8 39.5T234 213H66q-14-15-21-34.5T38 139q0-31 15-57t40.5-41Q119 26 150 26q17 0 34 5 5 2 9.5-.5t6-7.5q1.5-5-1-9.5T191 7q-20-6-41-6-37 0-68.5 18.5T31 69.5Q12 101 13 138q-1 24 7 46t23 41l-3 3q-21 16-27 42-3 12 4.5 21.5T38 301h224q13 0 20.5-9.5T287 270q-6-26-27-42zM38 276q4-18 18-29l10-9h168l10 9q14 11 18 29H38zm147-160l18 4q4 1 6.5 4.5t3 8q.5 4.5-2.5 7.5t-7 4l-18 5-4 18q-1 4-4.5 6.5t-8 2.5q-4.5 0-7.5-2.5t-4-6.5l-5-18-18-5q-4-1-6.5-4.5t-2.5-8q0-4.5 2.5-7.5t7.5-4l17-4 5-18q1-4 4-6.5t7.5-3q4.5-.5 8 2.5t4.5 7l4 18zm107-77l-22-8-8-22q-2-4-5-6t-7-2q-4 0-7 2t-5 6l-8 22-22 8q-4 1-6 4t-2 7q0 4 2 7t6 5l22 9 8 22q2 4 5 6t7 2q4 0 7-2t5-6l8-22 22-8q4-2 6-5t2-7q0-4-2-7t-6-5z"/></svg>