<svg viewBox="0 0 300 302.0011" xmlns="http://www.w3.org/2000/svg"><path d="M150 301q-41 0-75.5-20T20 226.5Q0 192 0 151t20-75.5Q40 41 74.5 21T150 1q41 0 75.5 20T280 75.5q20 34.5 20 75.5t-20 75.5Q260 261 225.5 281T150 301zm0-275q-34 0-62.5 17T42 88.5Q25 117 25 151t17 62.5Q59 242 87.5 259t62.5 17q34 0 62.5-17t45.5-45.5q17-28.5 17-62.5t-17-62.5Q241 60 212.5 43T150 26zm0 212q-3 0-7-2t-5-7q-1-5 1-9l32-56h-51q-10 0-16-8.5t-3-17.5l38-68q3-5 8-6t9.5 1.5Q161 68 162 73t-1 9l-32 57h51q5 0 10 2.5t7.5 7.5q2.5 5 2.5 10.5t-3 10.5l-36 62q-4 7-11 7v-1zm25-82v1-1z"/></svg>