<svg viewBox="0 0 300 302.0011" xmlns="http://www.w3.org/2000/svg"><path d="M237 123q0-23-12-42.5t-32-31q-20-11.5-43-11T107 50Q87 61 75 80.5T63 123q-35 11-51 28-12 13-12 28 0 21 19.5 37t54 25.5Q108 251 150 251t76.5-9.5q34.5-9.5 54-25.5t19.5-37q0-15-12-28-16-17-51-28zm-149 3q0-17 8-31.5T118.5 72q14.5-8 31.5-8t31.5 8Q196 80 204 94.5t8 31.5v2q-20 10-62 10t-62-10v-2zm62 100q-34 0-64-7-28-7-44.5-18T25 179q0-8 12-17t34-15q9 6 25 10 22 6 54 6t54-6q16-4 25-10 22 6 34 15t12 17q0 11-16.5 22T214 219q-30 7-64 7zm19-31q0 8-5.5 13.5t-13.5 5q-8-.5-13.5-5.5t-5.5-13q0-8 5.5-13.5T150 176q8 0 13.5 5.5T169 195zm-69-13q0 8-5.5 13.5T81 201q-8 0-13-5.5T63 182q0-8 5-13.5t13-5q8 .5 13.5 5.5t5.5 13zm138 0q0 8-5.5 13.5T219 201q-8 0-13.5-5.5T200 182q0-8 5.5-13.5t13.5-5q8 .5 13.5 5.5t5.5 13z"/></svg>