<svg viewBox="0 0 300 302.0011" xmlns="http://www.w3.org/2000/svg"><path d="M244 40l-21-21q-8-9-19.5-13.5T179 1h-79Q83 1 68.5 9.5T46 32.5Q38 47 37 63v175q1 17 9 31.5t22.5 23Q83 301 100 301h100q17 0 31.5-8.5t22.5-23q8-14.5 9-31.5V84q0-12-5-23.5T244 40zm-17 18q2 2 4 5h-31V32q3 2 6 5l21 21zm11 180q0 16-11 27t-27 11H100q-16 0-27-11t-11-26V63q1-15 11.5-26T100 26h75v37q0 11 7.5 18.5T200 88h38v150zm-38-125q5 0 9 4t4 9q0 5-4 9t-9 4H100q-5-1-8.5-4.5T88 126q0-5 3.5-9t8.5-4h100zm13 63q0 5-4 8.5t-9 3.5H100q-5 1-8.5-3t-3.5-9q0-5 3.5-9t8.5-4h100q5 0 9 4t4 9zm-3 43q3 4 2.5 9t-5.5 8q-19 14-43 15-14 0-25-9-5-3-9-3-12 1-22 9-5 3-10 2.5t-8-4.5q-3-4-2.5-9t4.5-8q17-14 38-15 13 0 23 8 5 4 11 4 16-1 29-10 4-3 9-2.5t8 5.5z"/></svg>