<svg viewBox="0 0 300 302.0011" xmlns="http://www.w3.org/2000/svg"><path d="M219 83q-7-3-6-11V26h12q5 0 9-3.5t4-9q0-5.5-4-9T225 1H75q-5 0-8.5 3.5t-3.5 9q0 5.5 3.5 9T75 26h13v46q0 7-7 11-38 19-59.5 53T0 210q0 18 5 36 6 24 26.5 39.5T77 301h146q25 0 45.5-15.5T295 246q5-18 5-36 0-40-21.5-74T219 83zm52 156q-4 17-17.5 27T223 276H77q-17 0-30.5-10T29 240.5Q25 225 25 210q0-33 18-61t49-44q9-5 15-14t6-19V26h75v46q0 11 5.5 20t14.5 14q31 15 49 43t18 61q0 15-4 29zM145 126q-19 2-32 17t-13 35v23q0 5 3.5 8.5t9.5 3.5h12v13q0 5 3.5 8.5t9.5 3.5h25q5 0 8.5-3.5t3.5-8.5v-13h13q5 0 8.5-3.5t3.5-8.5v-25q0-14-7.5-26t-20-18.5Q160 125 145 126zm-17 66q-6 0-11-5t-5-11q0-6 5-11t11.5-5q6.5 0 11 5t4.5 11q0 6-4.5 11t-11.5 5zm44 0q-7 0-11.5-5t-4.5-11q0-6 4.5-11t11-5q6.5 0 11 5t4.5 11q0 6-4.5 11t-10.5 5z"/></svg>