<svg viewBox="0 0 300 302.0011" xmlns="http://www.w3.org/2000/svg"><path d="M263 288q0 6-4 9.5t-9 3.5q-5 0-8.5-3.5T238 288q0-23-12-43t-32-32q-20-12-44-12t-44 12q-20 12-31.5 32T63 288q-1 6-4.5 9.5T50 301q-5 0-8.5-3.5T38 288q0-30 15-56t40.5-41q25.5-15 56.5-15t56.5 15q25.5 15 41 41t15.5 57v-1zM63 76q0-8 4.5-14.5T79 53q7-23 26.5-37.5T150 1q25 0 44.5 14.5T221 53q7 2 12 8.5t5 14.5q0 8-5 14.5T221 99q-7 23-26.5 37.5T150 151q-25 0-44.5-14.5T79 99q-7-2-12-8.5T62 76h1zm130 25h-86q6 11 17.5 18t25.5 7q14 0 25.5-7t17.5-18zm-86-50h86q-6-11-17.5-18T150 26q-14 0-25.5 7T107 51zm101 220q-5-13-14-24-2-2-5.5-2t-5.5 2q-9 11-14 26-3 11-5 23 0 3 2.5 4.5t4.5-.5q15-12 21.5-12t14.5 6q3 1 5-.5t2-4.5q-2-9-6-18z"/></svg>