<svg viewBox="0 0 300 302.0011" xmlns="http://www.w3.org/2000/svg"><path d="M212 210q1-9-1-17t-8-14l-81-81q-6-6-14-8t-16.5-.5Q83 91 76.5 96T67 109L2 262q-3 8-1.5 16.5T8 293q9 8 20 8 6 0 11-2l153-65q8-3 13-9.5t7-14.5zM29 276q-2 1-3.5-.5T25 272l44-103 63 63-103 44zm158-71q-1 5-5 6l-25 11-78-78 11-25q1-4 6-5h2q3-1 6 2l81 81q3 3 2 8zM172 6q3-4 8-4.5t9 2.5q7 5 13 15 12 18 10.5 38.5T197 96q-3 5-8.5 5t-9-3q-3.5-3-4.5-8t3-9q9-12 9.5-24.5T181 32q-3-5-7.5-8.5t-5-8.5q-.5-5 3.5-9zm123 168q-4 2-7 2-7 0-11-5-1-2-4-4-5-4-11-4t-10.5 3.5q-4.5 3.5-9.5 3t-8-4.5q-3-4-2.5-9.5t4.5-8.5q12-8 27-8 11 0 22 6 8 5 13 11 3 5 2 10t-5 8zM263 20q0-8 5-13.5T281 1q8 0 13.5 5.5T300 20q0 8-5.5 13t-13 5q-7.5 0-13-5T263 20zm-25 62q0-8 5-13.5t13-5.5q8 0 13.5 5.5T275 82q0 8-5.5 13.5T256 101q-8 0-13-5.5T238 82zM100 32q0-8 5.5-13.5T119 13q8 0 13.5 5.5T138 32q0 8-5.5 13.5T119 51q-8 0-13.5-5.5T100 32zm188 200q0 8-5.5 13.5T269 251q-8 0-13.5-5.5T250 232q0-8 5.5-13t13.5-5.5q8-.5 13.5 5T288 232zM13 45q0-8 5-13.5T31 26q8 0 13.5 5.5T50 45q0 8-5.5 13T31 63.5q-8 .5-13-5T13 45zm212 237q0 8-5.5 13.5T206 301q-8 0-13.5-5.5T187 282q0-8 5.5-13.5T206 263q8 0 13.5 5.5T225 282z"/></svg>