<svg viewBox="0 0 300.5 302.0011" xmlns="http://www.w3.org/2000/svg"><path d="M175 1q-33-1-61 16T69 62q-17 28-19 60.5T64 184l-53 53Q0 248 0 263.5T11 290q11 11 26.5 11T64 290l53-53q29 16 61.5 14t60.5-19q28-17 45-45t16.5-61.5Q300 92 283 63.5T237.5 18Q209 1 175 1zM46 272q-3 4-8.5 4t-9-3.5q-3.5-3.5-3.5-9t4-8.5l49-50q8 10 18 18l-50 49zm129-46q-27 0-50-13.5T88.5 176Q75 153 75 126q1-38 22-64 19-23 48.5-31t59 0Q234 39 253 62q21 26 22 64 0 27-13.5 50T225 212.5Q202 226 175 226zm75-100q-1 28-17 48-14 17-36 23t-44 0q-22-6-37-23-15-20-16-48 0-20 10-37.5T137.5 61Q155 51 175 51q5 0 8.5 3.5t4 9q.5 5.5-3.5 9t-9 3.5q-21 0-35.5 14.5T125 126q1 23 15.5 36t34.5 13q20 0 34.5-13t15.5-36q0-5 3.5-9t9-4q5.5 0 9 4t3.5 9z"/></svg>