<svg viewBox="0 0 300 302.0011" xmlns="http://www.w3.org/2000/svg"><path d="M300 151q0 41-20 75.5T225.5 281Q191 301 150 301q-29 0-55.5-10.5T47 260q-4-3-4-8.5t3.5-9q3.5-3.5 8.5-4t9 3.5q18 16 40 25t46 9q34 0 62.5-17t45.5-45.5q17-28.5 17-62.5t-17-62.5Q241 60 212.5 43t-63-17Q115 26 85 44.5T39 94q-3 5-8 6.5t-9.5-1Q17 97 15.5 92t.5-9q20-38 56-60t77.5-22q41.5 0 76 20T280 75.5q20 34.5 20 75.5zm-78-38h3q4 0 7.5-2.5t4.5-7q1-4.5-1.5-9T228 89q-9-3-17.5-8.5T198 69q-3-4-8.5-5t-9.5 2q-4 3-5 8t2 9q7 10 19 18t26 12zM102 69q-4 6-12.5 11.5T72 89q-5 1-7.5 5.5T63 104q1 5 4.5 7.5T75 114l3-1q14-4 26-12t19-18q3-4 2-9t-5-8q-4-3-9.5-2t-8.5 5zm4 57q-8 0-13.5 5.5t-5 13.5q.5 8 5.5 13.5t13 5.5q8 0 13.5-5.5T125 145q0-8-5.5-13.5T106 126zm88 37q8 1 13-4.5t5-13.5q0-8-5-13.5t-13-5.5q-8 0-13.5 5.5T175 145q0 8 5.5 13.5T194 164v-1zM63 182q0-12-9-29-7-14-16-24-2-3-6.5-3t-7.5 3q-8 10-15 24-9 18-9 30t9 21q9 9 22 9t22-9q9-9 9-22h1zm87-19q21 0 39 15 17 14 23 32 2 6-2 11t-10 5h-13q-2 15-12 26.5t-25 11q-15-.5-25-11.5t-12-26h-13q-6 0-10-5t-2-11q6-18 23-32 18-14 39-14v-1zm13 58v-17q-7-3-13-3t-12 3v17q0 7 3.5 12t8.5 5q5 0 9-5t4-12z"/></svg>