<svg viewBox="0 0 300 302.0011" xmlns="http://www.w3.org/2000/svg"><path d="M228 115q3 3 3 8.5t-3 8.5l-56 55q-14 14-34.5 14T102 187l-23-23q-4-4-4-9t3.5-9q3.5-4 9-4t8.5 4l24 23q7 7 17 7t18-7l55-54q4-4 9-4t9 4zm72 36q0 41-20 75.5T225.5 281Q191 301 150 301t-75.5-20Q40 261 20 226.5T0 151q0-41 20-75.5T74.5 21Q109 1 150 1t75.5 20Q260 41 280 75.5t20 75.5zm-25 0q0-34-17-62.5T212.5 43Q184 26 150 26T87.5 43Q59 60 42 88.5T25 151q0 34 17 62.5T87.5 259q28.5 17 62.5 17t62.5-17q28.5-17 45.5-45.5t17-62.5z"/></svg>