<svg viewBox="0 0 300 302.0011" xmlns="http://www.w3.org/2000/svg"><path d="M150 126q-25 0-50 5v-29l62-26q6-2 9.5-7.5t4-12q.5-6.5-2-12.5T166 34L111 4q-6-3-12.5-3t-12 3.5Q81 8 78 13.5T75 26v111q-34 12-54.5 32T0 213.5Q0 238 20 258t54.5 31.5Q109 301 150 301t75.5-11.5Q260 278 280 258t20-44.5q0-24.5-20-44.5t-54.5-31.5Q191 126 150 126zm1-72l-51 21V26l51 28zm-1 222q-33 0-62-8.5t-46-23q-17-14.5-17-30T38.5 186Q52 173 75 164v49q0 6 3.5 9.5t9 3.5q5.5 0 9-3.5t3.5-9.5v-57q25-5 50-5 33 0 62 8.5t46 23q17 14.5 17 31t-17 31q-17 14.5-46 23t-62 8.5zm63-63q0 11-7.5 18t-18 7q-10.5 0-17.5-7t-7-17.5q0-10.5 7-17.5t17.5-7q10.5 0 17.5 7t7 17h1z"/></svg>