<svg viewBox="0 0 300 302.0011" xmlns="http://www.w3.org/2000/svg"><path d="M238 51h-7l-26-35q-5-7-13-11t-17-4h-50q-9 0-17 4T95 16L69 51h-6q-17 0-31.5 8.5t-23 23Q0 97 0 114v124q0 17 8.5 31.5t23 23Q46 301 63 301h175q16 0 30.5-8.5t23-23Q300 255 300 238V113q0-16-8.5-30.5t-23-23Q254 51 238 51zM115 31q4-5 10-5h50q6 0 10 5l15 20H100l15-20zm160 207q0 16-11 27t-27 11H63q-16 0-27-11t-11-27V113q0-15 11-26t27-11h175q15 0 26 11t11 26v125zm-50-125v25q0 11-7.5 18t-17.5 8h-25q-5-1-8.5-4.5T163 151q0-5 3.5-9t8.5-4h8q-14-12-33-12-15 0-27.5 8T104 156q-1 3-4.5 5t-6.5 2q-3 0-5-1-5-2-7-6.5t0-9.5q9-21 28-33t41-12q14 0 27 5t23 14v-7q0-5 3.5-8.5t9-3.5q5.5 0 9 3.5t3.5 8.5zm-6 93q-9 21-28 33t-41 12q-28 0-50-19v6q0 6-3.5 9.5T88 251q-5 0-9-3.5t-4-9.5v-25q0-10 7.5-17.5T100 188h25q5 1 8.5 4.5t4 8.5q.5 5-3.5 9t-9 4h-8q14 12 33 12 15 0 27.5-8t18.5-22q2-5 7-7t9.5.5q4.5 2.5 6.5 7t0 9.5z"/></svg>