<svg viewBox="0 0 300 302.0011" xmlns="http://www.w3.org/2000/svg"><path d="M231 63h-37q-13 1-22 10t-9 22v43h-18l-17-34q-6-13-18.5-20.5T82 76q-18 0-31.5 13T37 121l1 47q0 13 6.5 24.5T62 210l32 19q6 4 6 11v48q0 6 3.5 9.5t9 3.5q5.5 0 9-3.5t3.5-9.5v-48q0-10-5-18.5T107 208l-32-19q-5-3-8.5-9T63 168v-47q0-8 5.5-14t13.5-6h6v62q0 6 3.5 9.5t8.5 3.5q5 0 9-3.5t4-9.5v-34l10 21q3 6 9 9.5t13 3.5h86q13 0 22-9t9-22V95q1-13-8.5-22.5T231 63zm7 69q0 3-2 4.5t-5 1.5h-43V95q-1-3 1-5t5-2h37q3 0 5 2t2 5v37zM50 32q0-13 9-22t22-9q13 0 22 9t9.5 22q.5 13-9 22.5t-22.5 9Q68 63 59 54t-9-22zm25 219v37q0 6-3.5 9.5t-9 3.5q-5.5 0-9-3.5T50 288v-37q0-5 3.5-9t9-3.5q5.5.5 9 4T75 251z"/></svg>