<svg viewBox="0 0 300 302.0011" xmlns="http://www.w3.org/2000/svg"><path d="M299 134L261 30q-4-11-14-16t-21-2l-63 16V13q0-5-4-8.5T150 1q-5 0-8.5 3.5T138 14v21L72 53q-12 3-21 11T38 84L1 184q-1 2-1 8 0 16 7.5 29.5T28 243q13 8 28 8 23 0 39-15 8-8 12.5-19t4.5-22v-11L73 79l5-2 60-16v215H63q-6 0-9.5 3.5t-3.5 9q0 5.5 3.5 9T62 301h176q5 0 8.5-3.5t3.5-9q0-5.5-3.5-9T237 276h-74V54l61-16-36 96-1 8q1 24 16 41t38.5 18q23.5 1 40.5-15 9-8 13.5-19t4.5-22l-1-11zM55 226q-10-1-18-8t-11-17h61q-2 10-9 16-10 10-23 9zm27-50H30l26-71 26 71zM244 56l26 70h-52l26-70zm-2 120q-10-1-18-8t-10-17h60q-2 10-9 16-9 10-23 9z"/></svg>