<svg viewBox="0 0 300 302.0011" xmlns="http://www.w3.org/2000/svg"><path d="M150 301q-41 0-75.5-20T20 226.5Q0 192 0 151t20-75.5Q40 41 74.5 21T150 1q41 0 75.5 20T280 75.5q20 34.5 20 75.5t-20 75.5Q260 261 225.5 281T150 301zm0-275q-34 0-62.5 17T42 88.5Q25 117 25 151t17 62.5Q59 242 87.5 259t62.5 17q34 0 62.5-17t45.5-45.5q17-28.5 17-62.5t-17-62.5Q241 60 212.5 43T150 26zm48 220q3-4 2-9t-5.5-8.5Q190 225 181 221q-16-7-31-7t-31 7q-8 3-14 7-4 4-5 9t2.5 9q3.5 4 8.5 5t8.5-2q3.5-3 9.5-5 11-5 21-5t21 5q7 2 9.5 4.5t8 2.5q5.5 0 9.5-5zm39-142q1-5-1.5-9.5T228 89q-9-3-17.5-8.5T198 69q-3-4-8.5-5t-9.5 2q-4 3-5 8t2 9q7 10 19 18t26 12l3 1q4 0 7.5-2.5t4.5-7.5zm-159 9q14-4 26-12t19-18q3-4 2-9t-5-8q-4-3-9.5-2t-8.5 5q-4 6-12.5 11.5T72 89q-5 1-7.5 5.5t-1.5 9q1 4.5 4.5 7.5t7.5 3l3-1zm22 1q-5 0-11 1 5 3 8 7.5t3 9.5q0 8-5.5 13.5T81 151q-5 0-9.5-3t-7.5-8q-1 6-1 11-1 16 10 27t27 11q16 0 27-11t11-26.5q0-15.5-11-26.5t-27-11zm13 62q-6 0-9.5-3.5t-3.5-9q0-5.5 3.5-9t9-3.5q5.5 0 9 3.5t3.5 9q0 5.5-3.5 9T113 176zm87-62q-5 0-11 1 5 3 8 7.5t3 9.5q0 8-5.5 13.5T181 151q-5 0-9.5-3t-7.5-8q-1 6-1 11 0 16 10.5 27t26.5 11q16 0 26.5-11t10.5-26.5q0-15.5-10.5-26.5T200 114zm13 62q-6 0-9.5-3.5t-3.5-9q0-5.5 3.5-9t9-3.5q5.5 0 9 3.5t3.5 9q0 5.5-3.5 9T212 176h1z"/></svg>