<svg viewBox="0 0 300 302.0011" xmlns="http://www.w3.org/2000/svg"><path d="M300 151q0 37-17 69-2 4-7 6t-9.5-.5q-4.5-2.5-6-7.5t.5-10q14-27 14-57 0-34-17-62.5T212.5 43Q184 26 150 26T87.5 43Q59 60 42 88.5t-17 63Q25 186 43.5 216T93 262q5 3 6.5 8t-.5 9q-4 7-12 7-3 0-5-1-38-20-60-56T0 151.5q0-41.5 20-76T74.5 21Q109 1 150 1t75.5 20Q260 41 280 75.5t20 75.5zM194 63q-8 0-13.5 5.5T175 82q0 8 5.5 13.5T194 101q8 0 13.5-5.5t5-13.5q-.5-8-5.5-13.5T194 63zm-88 0q-8 0-13.5 5.5t-5 13.5q.5 8 5.5 13.5t13 5.5q8 0 13.5-5.5T125 82q0-8-5.5-13T106 63zm57 125v-50q0-5-4-8.5t-9-3.5q-5 0-8.5 3.5T138 138v50q0 6 3.5 9.5t8.5 3.5q5 0 9-3.5t3-9.5h1zm66 69l-8 10q-7 9-19 9h-40q-5 0-8.5-3.5T150 263v-12q0-5 3.5-9t8.5-4h13q5 0 8.5 4t3.5 9q0 5 4 8.5t9 3.5q5 0 8.5-3.5t3.5-8.5q0-16-11-27t-26-11h-13q-15 0-26 11t-11 27v12q0 16 11 27t26 11h40q11 0 21.5-5t17.5-14l8-9q3-4 2.5-9.5T247 255q-4-3-9.5-2.5T229 257zm-36-120q-4 3-5 8t2 10q3 5 10 5 4 0 7-2 8-5 13-9.5t5-9.5q0-5-3.5-9t-8.5-4q-5 0-8.5 3t-11.5 8zm-86 0q-8-5-11.5-8t-8.5-3q-5 0-8.5 4t-3.5 9q0 5 5 9.5t13 9.5q3 2 7 2 7 0 10-5t2-10q-1-5-5-8z"/></svg>