<svg viewBox="0 0 300 302.0011" xmlns="http://www.w3.org/2000/svg"><path d="M288 201v-88q5 0 8.5-3.5t3.5-8.5q0-5-3.5-9t-9.5-4V38q1-10-7-17L268 8q-8-7-18-7t-18 7l-12 13q-7 7-7 17v50h-25V38q0-10-8-17L168 8q-8-7-18-7t-18 7l-12 13q-7 7-8 17v50H88V38q0-10-8-17L68 8q-8-7-18-7T32 8L20 21q-7 7-7 17v50q-6 0-9.5 4T0 101q0 5 3.5 8.5T13 114v87q-6 0-9.5 3.5t-3.5 9q0 5.5 3.5 9T13 226v44q0 13 9 22t22 9h12q13 0 22.5-9t9.5-22v-44h25v44q0 13 9 22t22 9h12q13 0 22.5-9t9.5-22v-44h25v44q0 13 9 22t22 9h12q13 0 22.5-9t9.5-22v-44q5 0 8.5-3.5t3.5-9q0-5.5-3.5-9T287 201h1zm-25 0h-25v-88h25v88zM238 38l12-12 13 12v50h-26V38h1zm-100 0l12-12 13 12v50h-25V38zm25 75v88h-25v-88h25zM38 38l12-12 13 12v50H38V38zm0 75h25v88H38v-88zm25 157q-1 2-2.5 4t-4.5 2H44q-3 0-4.5-2t-1.5-4v-44h25v44zm25-69v-88h25v88H88zm75 69q0 2-2 4t-5 2h-12q-3 0-4.5-2t-1.5-4v-44h25v44zm25-69v-88h25v88h-25zm75 69q0 2-2 4t-5 2h-12q-3 0-5-2t-2-4v-44h26v44z"/></svg>