<svg viewBox="0 0 300 302.0011" xmlns="http://www.w3.org/2000/svg"><path d="M288 138q5 0 8.5-3.5t3.5-8.5q0-5-3.5-9t-9.5-4h-12V88h13q5 0 8.5-3.5T300 76q0-5-3.5-9t-9.5-4h-17q-10-22-32-32V13q0-5-4-8.5T225 1q-5 0-8.5 3.5T213 13v13h-25V13q0-5-4-8.5T175 1q-5 0-8.5 3.5T163 13v13h-25V13q0-5-4-8.5T125 1q-5 0-8.5 3.5T113 13v13H88V13q0-5-4-8.5T75 1q-5 0-9 3.5T63 13v18Q40 41 30 64H13q-6-1-9.5 3T0 76q0 5 3.5 8.5T13 89h12v24H13q-6 0-9.5 4T0 126q0 5 3.5 9t9.5 4h12v24H13q-6 0-9.5 4T0 176q0 5 3.5 9t9.5 4h12v24H13q-6 0-9.5 4T0 226q0 5 3.5 9t9.5 3h17q10 23 33 33v17q0 6 3.5 9.5T75 301q5 0 9-3.5t4-9.5v-12h25v12q-1 6 3 9.5t9 3.5q5 0 8.5-3.5t3.5-9.5v-12h26v12q0 6 3.5 9.5t8.5 3.5q5 0 8.5-3.5t3.5-9.5v-12h26v12q-1 6 3 9.5t9 3.5q5 0 8.5-3.5t3.5-9.5v-17q23-10 33-33h18q5 0 8.5-3.5t3.5-8.5q0-5-3.5-9t-9.5-4h-12v-25h13q5 0 8.5-3.5t3.5-8.5q0-5-3.5-9t-9.5-4h-12v-25h13zm-75 113H88q-16 0-27-11t-11-27V88q0-15 11-26t27-11h125q15 0 26 11t11 26v125q0 16-11 27t-26 11zm0-163v125q-1 6-4.5 9.5T200 226q-5 0-8.5-3.5T188 213V88q-1-5 3-8.5t9-3.5q5 0 8.5 3.5T212 88h1zm-68 4q-2-7-7.5-11.5T125 76q-7 0-12.5 4.5T105 92L75 210q-1 5 1.5 9.5t7.5 6q5 1.5 9.5-1t6.5-7.5l4-16h42l4 16q1 4 4.5 6.5t7.5 2.5h4q5-2 7.5-6.5t1.5-9.5L145 92zm-35 84l15-59 15 59h-30z"/></svg>