<svg viewBox="0 0 300 302.0011" xmlns="http://www.w3.org/2000/svg"><path d="M238 1H63Q46 1 31.5 9.5t-23 23Q0 47 0 63v175q0 17 8.5 31.5t23 23Q46 301 62 301h176q16 0 30.5-8.5t23-23Q300 255 300 239V63q0-16-8.5-30.5t-23-23Q254 1 238 1zm-75 275v-20l92-93h20v20l-93 93h-19zm0-113h57l-57 58v-58zM275 63v75H163V26h75q15 0 26 11t11 27v-1zM25 138v-19l93-93h20v20l-93 92H25zm113-57v57H80l58-57zM63 26h19L25 83V63q0-15 11-26t26-11h1zM25 238v-75h113v113H63q-16 0-27-11t-11-26v-1zm213 38h-20l57-57v19q0 16-11 27t-27 11h1z"/></svg>