<svg viewBox="0 0 300 302.0011" xmlns="http://www.w3.org/2000/svg"><path d="M276 25Q255 4 214.5 1.5t-84 13Q87 30 58 59t-44.5 72.5Q-2 175 .5 215.5T24 277q15 13 33.5 19t38.5 5q40-1 78-16t67.5-43q29.5-28 45-71.5t13-84Q297 46 276 25zm-72 1q15-1 29 3t26 13q9 10 13 27t2 39l-81-81 11-1zM41 260q-9-10-13-27t-2-39l81 81q-22 2-39-2t-27-13zm183-35q-37 35-86 46L30 163q11-49 46-86 37-35 87-46l107 108q-11 49-46 86zm-3-78q-3 4-8.5 4t-8.5-4l-16-16-20 20 16 16q5 5 3 12t-9 9q-7 2-12-3l-16-16-20 19 16 17q6 5 4 12t-9 9q-7 2-12-4l-50-50q-4-3-4-8.5t3.5-9q3.5-3.5 9-3.5t8.5 4l17 16 19-20-16-16q-3-4-3-9t3.5-8.5q3.5-3.5 8.5-3.5t9 3l16 16 20-20-16-16q-4-3-4-8.5t3.5-9q3.5-3.5 9-3.5t8.5 4l50 50q4 3 4 8.5t-4 8.5z"/></svg>