<svg viewBox="0 0 300 302.0011" xmlns="http://www.w3.org/2000/svg"><path d="M291 216l-40-38-1-5q-1-3 .5-5.5t3.5-3.5q10-7 15.5-17t5.5-21q0-11-5.5-21T254 88q-2-1-3.5-3.5T250 79q3-11-.5-22T238 37.5Q230 29 219 26t-22 0q-3 0-5.5-1t-4.5-4q-6-9-16-14.5T149.5 1Q138 1 128 6.5T112 21q-3 6-9 5-11-3-22 0T61.5 37.5Q53 46 50 57t0 22q0 3-1 5.5T45 88q-9 6-14.5 16.5T25 126q0 11 5.5 21T45 164q3 1 4 3.5t1 5.5l-1 5-40 38q-6 6-8 14.5t.5 17Q4 256 11 261t16 6l9 1 1 7q1 9 6.5 15.5T57 299q4 2 9 2 12 0 21-8l46-46q9 4 17 4t16-4l47 45q9 9 21 9 5 0 9-2 8-2 13.5-8.5T263 275l1-7 9-1q9-1 15.5-6t9.5-13.5q3-8.5 1-17t-8-14.5zM70 275q-2 2-5 1t-3-4l-3-17q0-4-3-7t-8-4l-19-2q-3 0-4-3t1-5l29-28q9 15 25 20 12 3 23 0 3 0 5.5 1t3.5 4l2 1-44 43zm71-51q-5-3-8-7-4-7-12-11.5t-16-4.5q-4 0-8 1t-9-.5q-5-1.5-8.5-5t-5-8Q73 184 74 179q2-11-2-21t-13-15q-4-3-6.5-7.5T50 126q0-5 2.5-9.5T59 109q9-5 13-15t2-21q-1-4 .5-9t5-8.5q3.5-3.5 8-5T97 50q11 2 21-2t15-13q3-4 7.5-6.5T150 26q5 0 9.5 2.5T166 35q6 9 16 13t20 2q5-1 10 .5t8.5 5q3.5 3.5 5 8.5t.5 9q-3 11 1.5 21t13.5 15q4 3 6.5 7.5t2.5 9.5q0 5-2.5 9.5T241 143q-9 5-13.5 15t-1.5 21q1 4-.5 9t-5 8.5q-3.5 3.5-8.5 5t-10 .5q-10-2-20 2t-16 13q-2 4-6.5 6.5T150 226q-5 0-9-2zm134 15q-1 3-4 3l-19 2q-5 1-8 4t-3 7l-3 17q0 3-3 4t-5-1l-44-43 1-1q4-6 10-5 11 3 22 0 16-5 25-20l30 28q2 2 1 5zm-113-63q0 5-3.5 8.5T150 188q-5 0-9-3.5t-4-8.5V98l-3 4q-4 4-9 4t-9-4q-4-4-4-9t4-9l16-15q4-4 9-5t10 1q5 2 8 6.5t3 10.5v94z"/></svg>