<svg viewBox="0 0 300 302.0011" xmlns="http://www.w3.org/2000/svg"><path d="M263 213h-13V51q0-21-14.5-35.5T200 1H44Q26 1 13 14T0 45v6q0 16 11 26.5T38 88h25v169q-1 18 12 31t31 13h150q18 0 31-13t13-31v-6q0-16-11-27t-27-11h1zM63 63H38q-6 1-9.5-3T25 51v-6q0-8 5.5-13.5T44 26q8 0 13.5 5.5T63 45v18zm62 188v6q0 8-5.5 13.5T106 276q-8 0-13-5.5T88 257V45q0-10-5-19h117q10 0 17.5 7.5T225 51v162h-62q-16 1-27 11.5T125 251zm150 6q0 8-5.5 13.5T256 276H146q4-9 4-19v-6q0-5 3.5-8.5t9.5-3.5h100q5-1 8.5 3t3.5 9v6z"/></svg>