<svg viewBox="0 0 300 302.0011" xmlns="http://www.w3.org/2000/svg"><path d="M250 288q0 6-3.5 9.5T237 301H63q-6 0-9.5-3.5t-3.5-9q0-5.5 3.5-9T62 276h176q5 0 8.5 3.5t3.5 8.5zM100 176h100q5 0 8.5-3.5t4-9q.5-5.5-3.5-9t-9-3.5H100q-5 0-8.5 3.5t-4 9q-.5 5.5 3.5 9t9 3.5zm25-125h50q5 0 9-3.5t4-9q0-5.5-4-9t-9-3.5h-50q-5 0-8.5 3.5t-3.5 9q0 5.5 3.5 9T125 51zm166-18l-18-5-5-18q-1-4-4-6.5T256.5 1q-4.5 0-8 2.5T244 10l-4 18-18 4q-4 1-6.5 4.5t-3 7.5q-.5 4 2.5 7.5t7 4.5l18 5 4 18q1 4 4.5 7t8 3q4.5 0 7.5-3t4-7l5-18 18-4q4-1 6.5-4.5t2.5-8q0-4.5-2.5-7.5t-6.5-4zM69 210q6-3 6-9t-6-9l-16-6-7-17q-2-5-8.5-5.5T29 169l-7 17-16 6q-6 2-6 8.5t6 8.5l16 7 7 17q2 6 8.5 6t8.5-6l7-17 16-6z"/></svg>