<svg viewBox="0 0 300 302.0011" xmlns="http://www.w3.org/2000/svg"><path d="M205 128l-65-36q-6-4-13-3.5t-13.5 4q-6.5 3.5-10 9.5t-3.5 13v72q0 7 3.5 13t10 10q6.5 4 13.5 4t13-4l65-36q7-3 10.5-9.5T219 151q0-7-4-13.5t-10-9.5zm-12 25l-65 35q-1 1-2 .5t-1-1.5v-72q0-1 1-1h1l66 35q1 1 1 2t-1 2zM150 1q-41 0-75.5 20T20 75.5Q0 110 0 151t20 75.5Q40 261 74.5 281t75.5 20q41 0 75.5-20t54.5-54.5q20-34.5 20-75.5t-20-75.5Q260 41 225.5 21T150 1zm0 275q-34 0-62.5-17T42 213.5Q25 185 25 151t17-62.5Q59 60 87.5 43T150 26q34 0 62.5 17T258 88.5q17 28.5 17 62.5t-17 62.5Q241 242 212.5 259T150 276z"/></svg>