<svg viewBox="0 0 300 302.0011" xmlns="http://www.w3.org/2000/svg"><path d="M289 66q11-11 11-27t-11-27Q278 1 262.5 1T236 12l-31 31q-9 9-26 8t-31-9q-10-5-20.5-3.5T110 48q-10 10-10 23.5T110 94l17 18L25 214q-10 10-12 24.5t5 27.5L4 280q-4 3-4 8.5t3.5 9q3.5 3.5 9 3.5t8.5-4l14-14q10 6 21 6 18 0 31-13l102-102 18 17q9 10 22.5 10t23.5-10q8-7 9.5-17.5T259 153q-8-14-9-31t8-26l31-30zM70 258q-6 5-14 5t-13-5q-5-5-5-13t5-14l30-30h54l-57 57zm82-82H98l47-46 26 26-19 20zm89-98q-16 16-16 42 0 24 12 45 1 2 .5 4.5T235 174q-2 2-5 2t-5-2l-98-97q-2-3-2-6t2.5-5q2.5-2 4.5-2.5t4 .5q21 12 45 12 26 0 42-16l30-30q4-4 9.5-4t9 3.5q3.5 3.5 3.5 9t-4 9.5l-30 30z"/></svg>