<svg viewBox="0 0 300.0021 302.0011" xmlns="http://www.w3.org/2000/svg"><path d="M290 127q-7-7-17-10 4-11 1-22.5T263 75q-11-10-26-11-1-15-12-26-8-8-19-10.5t-22 .5q-3-10-10-17-11-11-26-10t-24 12Q62 88 38 183l-21 22Q0 221 0 244.5t16.5 40Q33 301 56.5 301T96 284l22-21q95-24 170-86 11-9 12-24t-10-26zm-44-34q4 5 4 11t-4 10l-13 12q-26 23-72 56l-12-12 76-76q5-5 11-5t10 4zm-71-26l11-11q5-5 11-5t10.5 4.5Q212 60 212 66t-4 10l-77 76-12-12q34-48 56-73zm-32-38q2-3 6-3t7.5 3.5q3.5 3.5 4 9.5T158 49l-24 31q-26 32-33 42l-11-11q21-44 53-82zM79 267q-10 9-22.5 9t-22-9q-9.5-9-9.5-22t9-23l16-16 45 45-16 16zm37-30l-52-52q6-25 16-49l85 85q-24 10-49 16zm159-85q0 4-3 6-38 32-82 53l-11-11q47-35 73-58 5-3 10.5-2t9 4.5q3.5 3.5 3.5 7.5z"/></svg>