<svg viewBox="0 0 300 302.0011" xmlns="http://www.w3.org/2000/svg"><path d="M175 13q0-5 3.5-8.5T187 1h101q5 0 8.5 3.5t3.5 9q0 5.5-3.5 9T288 26H188q-6 0-9.5-3.5T175 14v-1zm113 50H188q-6 0-9.5 4t-3.5 9q0 5 3.5 9t8.5 4h101q5-1 8.5-4.5T300 76q0-5-3.5-9t-8.5-4zm0 63h-75q-6 0-9.5 3.5t-3.5 9q0 5.5 3.5 9t8.5 3.5h76q5 0 8.5-3.5t3.5-9q0-5.5-3.5-9T288 126zm-163 87q0 16-11 27t-26.5 11Q72 251 61 240t-11-27q0-12 7-21.5T75 178v-65q0-5 3.5-8.5t9-3.5q5.5 0 9 3.5t3.5 8.5v65q11 4 18 13.5t7 22.5v-1zm-25 0q0-5-3.5-8.5t-9-3.5q-5.5 0-9 3.5t-3.5 9q0 5.5 3.5 9t9 3.5q5.5 0 9-3.5t3.5-8.5v-1zm50-61q12 13 18.5 28.5T175 213q0 24-12 44t-32 32q-20 12-43.5 12T44 289q-20-12-32-32T0 213q0-17 6.5-32.5T25 152V63q0-16 8.5-30.5t23-23Q71 1 87.5 1t31 8.5q14.5 8.5 23 23T150 64v88zm0 61q0-13-5.5-25T129 167q-4-4-4-9V63q0-15-11-26T87.5 26Q72 26 61 37T50 64v94q0 5-4 9-10 9-15.5 21T25 213q0 17 8.5 31.5t23 23q14.5 8.5 31 8.5t31-8.5q14.5-8.5 23-23T150 214v-1z"/></svg>