<svg viewBox="0 0 300 302.0011" xmlns="http://www.w3.org/2000/svg"><path d="M263 51h-39q-5-22-22-36T163 1h-25q-23 0-40 14T76 51H38q-6 0-9.5 3.5t-3.5 9q0 5.5 3.5 9T38 76h12v162q0 17 8.5 31.5t23 23Q96 301 112 301h76q16 0 30.5-8.5t23-23Q250 255 250 238V76h13q5 0 8.5-3.5t3.5-9q0-5.5-3.5-9T262 51h1zM138 26h25q12 0 21.5 7T198 51h-96q4-11 13.5-18t22.5-7zm87 212q0 16-11 27t-26 11h-75q-16 0-27-11t-11-27V76h150v162zm-29-81q4 4 4 9t-3.5 8.5q-3.5 3.5-9 3.5t-8.5-3l-16-16v54q0 6-4 9.5t-9 3.5q-5 0-8.5-3.5T138 214v-55l-17 16q-3 3-8.5 3t-9-3.5Q100 171 100 166t4-9l20-20q11-11 26-11t26 11l20 20z"/></svg>