<svg viewBox="0 0 300 302.0011" xmlns="http://www.w3.org/2000/svg"><path d="M254 151l26-43q4-7 4-15t-4-15q-4-7-11-10.5T254 64h-51l-28-48q-4-7-10.5-11T150 1q-8 0-14.5 4T125 16L97 63H46q-8 0-15 4T20 78q-4 7-4 15t4 15l26 43-26 43q-4 7-4 15t4 15q4 7 11 11t15 4h51l28 47q4 7 10.5 11t14.5 4q8 0 14.5-4t10.5-11l28-48h51q8 0 15-3.5t11-10.5q4-7 4-15t-4-15l-26-43zm0-63q3 0 4 2.5t0 4.5l-18 31-22-37h36v-1zm-29 63l-36 62h-78l-36-62 36-63h78l36 63zM146 28q1-2 4-2t4 2l20 35h-48l20-35zM42 95q-1-2 0-4.5t4-2.5h36l-22 38-18-31zm4 118q-3 0-4-2t0-4l18-31 22 37H46zm108 61q-1 2-4 2t-4-2l-20-36h48l-20 36zm104-63q-1 3-4 3h-36l22-38 18 31q1 2 0 4z"/></svg>