<svg viewBox="0 0 300 302.0011" xmlns="http://www.w3.org/2000/svg"><path d="M288 301H13q-6 0-9.5-3.5t-3.5-9q0-5.5 3.5-9T13 276h275q5 0 8.5 3.5t3.5 9q0 5.5-3.5 9T288 301zM19 1Q11 1 5.5 6.5T0 20q0 8 5.5 13T19 38q8 0 13.5-5T38 20q0-8-5.5-13.5T19 1zm0 62q-8 0-13.5 5.5T0 82q0 8 5.5 13.5T19 101q8 0 13.5-5.5T38 82q0-8-5.5-13.5T19 63zm262 0q-8 0-13 5.5T263 82q0 8 5 13.5t13 5.5q8 0 13.5-5.5T300 82q0-8-5.5-13.5T281 63zM19 201q-8 0-13.5 5.5T0 220q0 8 5.5 13t13.5 5q8 0 13.5-5t5.5-13q0-8-5.5-13.5T19 201zm262 0q-8 0-13 5.5t-5 13.5q0 8 5 13t13 5q8 0 13.5-5t5.5-13q0-8-5.5-13.5T281 201zm0-200q-8 0-13 5.5T263 20q0 8 5 13t13 5q8 0 13.5-5t5.5-13q0-8-5.5-13.5T281 1zm-62 0q-8 0-13.5 5.5T200 20q0 8 5.5 13t13.5 5q8 0 13.5-5t5.5-13q0-8-5.5-13.5T219 1zm-69 0q-8 0-13.5 5.5T131 20q0 8 5.5 13t13.5 5q8 0 13.5-5t5.5-13q0-8-5.5-13.5T150 1zM81 1q-8 0-13 5.5T63 20q0 8 5 13t13 5q8 0 13.5-5t5.5-13q0-8-5.5-13.5T81 1zM19 132q-8 0-13.5 5.5T0 151q0 8 5.5 13.5T19 170q8 0 13.5-5.5T38 151q0-8-5.5-13.5T19 132zm262 0q-8 0-13 5.5t-5 13.5q0 8 5 13.5t13 5.5q8 0 13.5-5.5T300 151q0-8-5.5-13.5T281 132zm-62 0q-8 0-13.5 5.5T200 151q0 8 5.5 13.5T219 170q8 0 13.5-5.5T238 151q0-8-5.5-13.5T219 132zm-69 0q-8 0-13.5 5.5T131 151q0 8 5.5 13.5T150 170q8 0 13.5-5.5T169 151q0-8-5.5-13.5T150 132zm-69 0q-8 0-13 5.5T63 151q0 8 5 13.5t13 5.5q8 0 13.5-5.5T100 151q0-8-5.5-13.5T81 132zm88 88q0-8-5.5-13.5T150 201q-8 0-13.5 5.5T131 220q0 8 5.5 13t13.5 5q8 0 13.5-5t5.5-13zm0-138q0-8-5.5-13.5T150 63q-8 0-13.5 5.5T131 82q0 8 5.5 13.5T150 101q8 0 13.5-5.5T169 82z"/></svg>