<svg viewBox="0 0 300 302.0011" xmlns="http://www.w3.org/2000/svg"><path d="M288 276q-6 0-19-5-17-8-27-8t-28 8q-13 5-18 5t-18-5q-18-8-28-8t-28 8q-9 4-13 4l47-105 89 41q8 3 16.5 3t16-4q7.5-4 12.5-11t7-15q7-35-1-69t-29-60q-21-26-52.5-40.5T148.5 1q-34.5 1-65 17T32 63q-5 7-6.5 15.5T26 95q5 18 21 25l86 39-49 111q-16-6-26-6.5T31 271q-13 5-18.5 5t-9 3.5Q0 283 0 288.5t3.5 9Q7 301 12 301q11 0 28-7 13-5 18.5-5.5T76 294h1q17 7 27 7t28-7q13-6 18-6t18 6q18 7 28 7t27-7q13-6 18.5-6t18.5 6q17 7 28 7 5 0 8.5-3.5t3.5-9q0-5.5-3.5-9T288 276zM50 89q-1-6 3-12 16-23 42-36t55-14.5Q179 25 204.5 37t43 34q17.5 22 24 50t1.5 58q-2 6-7 8.5t-10 .5L57 97q-5-2-7-8z"/></svg>