<svg viewBox="0 0 300 302.0011" xmlns="http://www.w3.org/2000/svg"><path d="M296 117l-36-32q-9-10-21.5-16T213 63h-71l-30-22 1-15q0-5-4-9t-9-4q-5 0-8.5 4T88 26v1q-6-1-11-1h-2q0-5-3.5-9t-9-4q-5.5 0-9 4T50 26v9q-4 3-6 7L12 80Q0 92 0 109.5T12 139q12 12 32 12 7 0 22-6l9 45v49q0 15 11 26t26.5 11q15.5 0 26.5-11t11-27l50 1q0 15 11 26t26.5 11q15.5 0 26.5-11t11-26V132l4 3q4 3 9 3t8.5-4q3.5-4 3.5-9t-4-8zm-240 5q-10 4-12 4-9 0-14-5t-5-12q0-7 6-12l32-39q4-6 12-7t13 4l42 31q3 2 8 2h75q15 0 26 11t11 27v37H95l-5-23q-2-12-12.5-17.5T56 122zm182 129q-6 0-9.5-3.5T225 238q0-10-7-17.5t-18-7.5h-50q-11 0-18 7.5t-7 17.5q0 6-3.5 9.5t-9 3.5q-5.5 0-9-3.5T100 239v-51h150v51q0 5-3.5 8.5T238 251zm-88-125q0-5 3.5-9t9-4q5.5 0 9 4t3.5 9q0 5-3.5 8.5t-9 3.5q-5.5 0-9-3.5T150 126zm50 0q0-5 3.5-8.5t9-4q5.5-.5 9 3.5t3.5 9q0 5-3.5 8.5t-9 3.5q-5.5 0-9-3.5T200 126zm-100 0q0-5 3.5-8.5t9-4q5.5-.5 9 3.5t3.5 9q0 5-3.5 8.5t-9 3.5q-5.5 0-9-3.5T100 126z"/></svg>