<svg viewBox="0 0 300 302.0011" xmlns="http://www.w3.org/2000/svg"><path d="M175 301q-3 0-5-1-5-2-7-7t1-9l37-88q3-7 10-7.5t11.5 5Q227 199 224 206l-38 87q-1 4-4 6t-7 2zm-50 0q-3 0-5-1-5-2-7-7t1-9l37-88q2-5 7-6.5t9.5.5q4.5 2 6.5 6.5t0 9.5l-38 87q-1 4-4 6t-7 2zm-50 0q-3 0-5-1-5-2-7-7t1-9l37-88q2-5 7-6.5t9.5.5q4.5 2 6.5 6.5t0 9.5l-38 87q-1 4-4 6t-7 2zm-25-53q-2 0-4-1-17-6-29-20T1.5 195.5Q-2 178 3.5 161T23 131q5-4 4-11-4-18-1-36 6-31 27.5-53.5T106 3q34-7 64.5 8.5T215 58q3 6 10 7 29 6 48.5 26.5T298 140q5 28-5.5 54T257 236q-6 4-12.5 1t-7-10.5Q237 219 243 215q19-11 26.5-30.5t3.5-40q-4-20.5-18-35.5t-35-19q-9-2-16-7.5T193 69q-11-22-32.5-34T115 26.5Q91 30 73 47T51 88q-2 14 0 27 2 10-1 19t-11 16.5Q31 158 27.5 169T26 191q2 11 9.5 20T54 224q4 1 6.5 5t2 8.5q-.5 4.5-4 7.5t-8.5 3z"/></svg>