<svg viewBox="0 0 300 302.0011" xmlns="http://www.w3.org/2000/svg"><path d="M256 213h-18v-12q0-5-4-8.5t-9-3.5q-5 0-9 3.5t-4 8.5v12h-49V99q16-4 26.5-17.5T200 51q0-21-14.5-35.5T150 1q-21 0-35.5 14.5T100 51q0 17 10.5 30.5T138 99v114H44q-18 0-31 13T0 257q0 18 13 31t31 13h212q18 0 31-13t13-31q0-18-13-30.5T256 214v-1zM125 51q0-10 7.5-17.5T150 26q10 0 17.5 7.5T175 51q0 10-7.5 17.5T150 76q-10 0-17.5-7.5T125 51zm131 225H44q-8 0-13.5-5.5T25 257q0-8 5.5-13.5T44 238h212q8 1 13.5 6t5.5 13q0 8-5.5 13.5T256 276z"/></svg>