<svg viewBox="0 0 300 302.0011" xmlns="http://www.w3.org/2000/svg"><path d="M163 251q0 5-4 8.5t-9 3.5H63q-17 0-31.5-8t-23-22.5Q0 218 0 201V101q0-17 8.5-31.5t23-23Q46 38 63 39h87q5-1 9 3t4 9q0 5-4 8.5t-9 3.5H63q-16 0-27 11t-11 27v100q0 16 11 27t27 11h87q5-1 8.5 3t3.5 9h1zm-63-38q5 0 8.5-3.5t3.5-8.5v-88h26q5 0 8.5-3.5t3.5-8.5q0-5-3.5-9t-9.5-4H63q-6 0-9.5 4t-3.5 9q0 5 3.5 9t8.5 4h26v87q-1 5 3 9t9 4v-1zm125 63q-5 0-9-3.5t-4-9.5V38q1-5 4.5-8.5T225 26q5 0 9-3.5t4-9q0-5.5-4-9T225 1q-14 0-25 10-11-10-25-10-5 0-8.5 3.5t-3.5 9q0 5.5 3.5 9T175 26t8.5 3.5Q187 33 187 39v224q1 6-3 9.5t-9 3.5q-5 0-8.5 3.5t-3.5 9q0 5.5 3.5 9t8.5 3.5q14 0 25-10 11 10 25 10 5 0 8.5-3.5t4-9q.5-5.5-3.5-9t-9-3.5zm28-236q-5-1-9.5 1.5T238 49q-1 5 1.5 9.5T247 65q12 3 20 13t8 23v100q0 13-8 23t-20 13q-5 2-7.5 6.5t-1.5 9q1 4.5 4.5 7t7.5 2.5h3q21-6 34-23t13-38V101q0-21-13-38t-34-23z"/></svg>