<svg viewBox="0 0 301 302.0011" xmlns="http://www.w3.org/2000/svg"><path d="M100 38q0-5 3.5-8.5T113 26h175q5 0 8.5 3.5t3.5 9q0 5.5-3.5 9T288 51H113q-6 0-9.5-3.5T100 38zm197 84l-37-37q-9-9-22.5-9T215 85l-36 36q-4 4-4 9t3.5 9q3.5 4 9 4t8.5-4l29-29v178q0 5 3.5 8.5t9 3.5q5.5 0 9-3.5t3.5-8.5V110l29 29q4 4 9 4t9-3.5q4-3.5 4-9t-4-8.5zm-184 41h37q5 0 9-3.5t4-8.5q0-5-4-8.5t-9-3.5h-37q-6-1-9.5 3t-3.5 9q0 5 3.5 8.5t9.5 3.5zM75 32v13q0 13-9 22t-22 9H31q-13 0-22-9T0 45V32q0-13 9-22t22-9h13q13 0 22 9t9 22zm-25 0q0-2-2-4t-4-2H31q-2 0-4 2t-2 4v13q0 2 2 4t4 2h13q2 0 4-2t2-4V32zm25 113v12q0 13-9 22.5T44 189H31q-13 0-22-9.5T0 157v-12q0-13 9-22.5t22-9.5h13q13 0 22 9.5t9 22.5zm-25 0q0-3-2-5t-4-2H31q-2 0-4 2t-2 5v12q0 3 2 5t4 2h13q2 0 4-2t2-5v-12zm125 106h-62q-6 0-9.5 3.5t-3.5 9q0 5.5 3.5 9t9.5 3.5h62q5 0 9-3.5t3.5-9q-.5-5.5-4-9T175 251zm-100 6v13q0 13-9 22t-22 9H31q-13 0-22-9t-9-22v-13q0-13 9-22t22-9h13q13 0 22 9t9 22zm-25 0q0-2-2-4t-4-2H31q-2 0-4 2t-2 4v13q0 2 2 4t4 2h13q2 0 4-2t2-4v-13z"/></svg>