<svg viewBox="0 0 300 302.0011" xmlns="http://www.w3.org/2000/svg"><path d="M136 301q-5 0-10-2-8-4-11.5-11.5T113 271l7-20H99q-12 0-19-9.5T76 220l27-77q2-8 8.5-12.5T126 126h24q6 0 11.5 3t9 8q3.5 5 4.5 11t-2 12l-5 16h21q6 0 12 3.5t9 9q3 5.5 2.5 12T209 213l-54 78q-7 10-19 10zm2-75q6 0 9.5 5t1.5 11l-8 25 46-67-37 1q-6 0-10-5.5t-2-11.5l12-33h-24l-26 75h38zm100 19q-5 0-8.5-3t-4.5-7.5q-1-4.5 1.5-8.5t6.5-5q22-9 32.5-28.5t8.5-42q-2-22.5-16.5-39.5T220 90q-9-2-16-7.5T193 69q-11-22-32.5-34T115 26.5Q91 30 73 47T51 88q-2 14 0 27 2 10-1 19t-10.5 16q-7.5 7-11 16t-3 19.5q.5 10.5 5.5 19T44 219q6 4 5.5 11T43 240q-6 3-12-1-14-9-21.5-22.5t-9-29Q-1 172 5 157t18-26q5-4 4-11-4-18-1-36 6-31 27.5-53.5T106 3q34-7 64.5 8.5T215 58q3 6 10 7 32 7 52 31 19 22 22 52t-11 56q-15 27-46 40-2 1-4 1z"/></svg>