<svg viewBox="0 0 300 302.0011" xmlns="http://www.w3.org/2000/svg"><path d="M125 38h-25q0-15-11-26T62 1H38Q22 1 11 12T0 39v24q0 16 11 27t26 11v25q0 5 3.5 8.5T50 138q5 1 8.5-3t3.5-9l1-25q15 0 26-11t11-27h25q5 1 9-3t4-9q0-5-4-8.5t-9-4.5zM75 63q0 6-3.5 9.5T62 76H38q-6 0-9.5-3.5T25 64V38q0-5 3.5-8.5T37 26h26q5 0 8.5 3.5T75 38v25zM263 1h-25q-16 0-27 11t-11 26h-25q-5 0-9 4t-4 9q0 5 4 8.5t9 3.5h25q0 16 11 27t27 11v25q-1 5 3 8.5t9 3.5q5 1 8.5-3t4.5-9v-25q15 0 26-11t11-27V38q0-15-11-26T262 1h1zm12 62q0 6-3.5 9.5T263 76h-25q-6 0-9.5-3.5T225 64V38q0-5 3.5-8.5T237 26h26q5 0 8.5 3.5T275 38v25zm-12 138v-25q0-5-3.5-8.5T250 163q-5 0-8.5 4t-3.5 9v25q-16 0-27 11t-11 26h-25q-5 0-9 4t-4 9q0 5 4 8.5t9 3.5l25 1q0 15 11 26t26 11h26q15 0 26-11t11-27v-25q0-15-11-26t-26-11zm12 62q0 6-3.5 9.5T263 276h-25q-6 0-9.5-3.5T225 263v-25q0-5 3.5-8.5t8.5-3.5h26q5 0 8.5 3.5t3.5 9.5v24zm-150-24h-25v-1q0-15-11-26t-26-11v-25q0-5-4-8.5t-9-3.5q-5-1-8.5 3t-3.5 9l-1 25q-15 0-26 11T0 238v25q0 16 11 27t26 11h26q15 0 26-11t11-26h25q5 0 9-4t4-9q0-5-4-8.5t-9-3.5zm-50 24q0 6-3.5 9.5T62 276H38q-6 0-9.5-3.5T25 263v-25q0-5 3.5-8.5T37 226h26q5 0 8.5 3.5T75 239v24z"/></svg>