<svg viewBox="0 0 300 302.0011" xmlns="http://www.w3.org/2000/svg"><path d="M238 301H13q-6 0-9.5-3.5t-3.5-9q0-5.5 3.5-9T13 276h225q15 0 26-11t11-27V13q0-5 3.5-8.5t9-3.5q5.5 0 9 3.5T300 13v225q0 17-8.5 31.5t-23 23Q254 301 238 301zM0 82q0 8 5.5 13.5T19 101q8 0 13.5-5.5T38 82q0-8-5.5-13.5T19 63q-8 0-13.5 5.5T0 82zm0 138q0 8 5.5 13t13.5 5q8 0 13.5-5t5.5-13q0-8-5.5-13.5T19 201q-8 0-13.5 5.5T0 220zM0 20q0 8 5.5 13T19 38q8 0 13.5-5T38 20q0-8-5.5-13.5T19 1Q11 1 5.5 6.5T0 20zm63 0q0 8 5 13t13 5q8 0 13.5-5t5.5-13q0-8-5.5-13.5T81 1q-8 0-13 5.5T63 20zm68 0q0 8 5.5 13t13.5 5q8 0 13.5-5t5.5-13q0-8-5.5-13.5T150 1q-8 0-13.5 5.5T131 20zm69 0q0 8 5.5 13t13.5 5q8 0 13.5-5t5.5-13q0-8-5.5-13.5T219 1q-8 0-13.5 5.5T200 20zM0 151q0 8 5.5 13.5T19 170q8 0 13.5-5.5T38 151q0-8-5.5-13.5T19 132q-8 0-13.5 5.5T0 151z"/></svg>