<svg viewBox="0 0 300 302.0011" xmlns="http://www.w3.org/2000/svg"><path d="M296 192q-3-3-8.5-3t-8.5 3l-35 35-35-35q-4-3-9-3t-8.5 3.5Q188 196 188 201t3 9l35 35-35 35q-5 5-3 12t9 9q7 2 12-4l35-35 35 35q3 4 8.5 4t9-3.5q3.5-3.5 3.5-9t-4-8.5l-35-35 35-35q4-4 4-9t-4-9zm-146 84q-34 0-62.5-17T42 213.5Q25 185 25 151t17-62.5Q59 60 87.5 43T150 26q34 0 62.5 17T258 88.5q17 28.5 17 62.5 0 5 3.5 9t9 4q5.5 0 9-4t3.5-9q0-41-20-75.5T225.5 21Q191 1 150 1T74.5 21Q40 41 20 75.5T0 151q0 41 20 75.5T74.5 281q34.5 20 75.5 20 5 0 9-3.5t4-9q0-5.5-4-9t-9-3.5zm0-200q-5 0-9 3.5t-4 8.5v58l-33 34q-6 5-4 12t9 9q7 2 12-4l38-37q3-4 3-9V88q1-5-3-8.5t-9-3.5z"/></svg>