<svg viewBox="0 0 300 302.0011" xmlns="http://www.w3.org/2000/svg"><path d="M292 90q-6-7-13.5-10.5T263 76H38Q8 81 2 101q-6 17 6 43 10 24 29 45t36 29l-22 67q-2 4 .5 9t7.5 6.5q5 1.5 9.5-1T74 292l22-64q20 8 41 10v50q0 6 4 9.5t9 3.5q5 0 9-3.5t4-8.5v-51q21-2 41-10l22 64q1 5 6 7.5t9.5 1q4.5-1.5 7-6.5t.5-9l-22-67q19-10 39-33 22-24 30-48 9-28-4-47zm-17 27q-9 36-35 61-24 23-57 31t-66 0q-33-8-57-31-26-25-35-61-1-6 2.5-11t10.5-5h225q6 0 9.5 5t2.5 11zM138 38V13q-1-5 3-8.5t9-3.5q5 0 9 3.5t4 8.5v25q0 6-4 9.5t-9 3.5q-5 0-9-3.5t-4-8.5l1-1zm50 0V13q0-5 3.5-8.5T200 1q5 0 9 3.5t4 8.5v25q0 6-4 9.5t-9 3.5q-5 0-8.5-3.5T187 39l1-1zM88 38V13q-1-5 3-8.5t9-3.5q5 0 8.5 3.5T112 13v25q1 6-3 9.5t-9 3.5q-5 0-8.5-3.5T88 39v-1z"/></svg>