<svg viewBox="0 0 300 302.0011" xmlns="http://www.w3.org/2000/svg"><path d="M185 213q-5 0-8.5-3.5T173 201q0-5 4-9l32-32q4-4 4-9t-4-9l-32-32q-4-4-4-9t3.5-8.5q3.5-3.5 9-3.5t8.5 3l33 32q11 11 10.5 27T227 177l-33 33q-3 3-9 3zm-62-3q4-4 4-9t-4-9l-32-32q-3-4-3-9t3-9l32-32q4-4 4-9t-3.5-8.5q-3.5-3.5-9-3.5t-8.5 3l-32 32q-11 11-11 27t11 27l32 32q3 3 8.5 3t8.5-3zm177 3V88q0-16-8.5-30.5t-23-23Q254 26 238 26H63q-17 0-31.5 8.5t-23 23Q0 72 0 89v124q0 17 8.5 31.5t23 23Q46 276 63 276h175q16 0 30.5-8.5t23-23Q300 230 300 214v-1zM238 51q15 0 26 11t11 26v125q0 16-11 27t-26 11H63q-16 0-27-11t-11-27V88q0-15 11-26t27-11h175z"/></svg>