<svg viewBox="0 0 300.5007 302.0011" xmlns="http://www.w3.org/2000/svg"><path d="M284.5 43l-3-3q-16-17-38.5-23t-45-1q-22.5 5-38.5 21l-6 7-33-22q-19-11-41-7.5T43.5 35l-30 38Q.5 88 0 108t11.5 36l18 25q-12 17-15 37.5T18 247q6.5 20 21.5 36l3 3q15 15 37 15t37-15l168-169q16-15 16-37t-16-37zm-252 45l31-37q8-10 20.5-12t22.5 5l82 51-36 36q-29-6-51-4-30 4-54 24l-16-22q-7-9-6.5-20.5T32.5 88zm67 180q-9 8-20 8t-19-8l-3-3q-12-12-16.5-28t-1-32q3.5-16 15.5-27 13-15 28-21t32-6q12 0 26 3 9 2 26 6h1q21 6 31 7l-100 101zm130-131q-6 6-19 6-9 0-29-5l29-29 29 18-10 10zm38-38l-10 10-82-52 1-2q12-11 28-15t32 .5q16 4.5 28 16.5l3 3q8 9 8 20t-8 19z"/></svg>