<svg viewBox="0 0 300 302.0011" xmlns="http://www.w3.org/2000/svg"><path d="M13 32q-1-13 8.5-22T44 1q13 0 22 9t9 22q0 13-9 22.5t-22 9Q31 63 22 54t-9-22zm287 195q-1-6-5.5-8.5T285 217l-98 23-37-167q-1-5-5.5-7.5T135 64q-5 1-8 5.5t-2 9.5l14 59h-31l-17-34q-7-13-19.5-20.5T45 76q-19 0-32 13T0 121l1 47q0 13 6.5 24.5T25 210l31 19q6 4 6 11v48q0 6 4 9.5t9 3.5q5 0 8.5-3.5T87 288v-48q0-10-4.5-18.5T69 208l-31-19q-6-3-9-9t-3-12l-1-47q0-8 6-14t14-6h5v62q0 6 3.5 9.5t9 3.5q5.5 0 9-3.5T75 163v-34l10 21q4 6 10 9.5t13 3.5h36l18 76q-11 3-18 11.5t-7 20.5q0 12 9.5 21t22.5 9q13 0 22-9t9-22q0-4-1-7l91-21q5-2 8-6t2-9zM25 238q-5 0-8.5 4t-3.5 9v37q-1 6 3 9.5t9 3.5q5 0 9-3.5t4-9.5v-37q0-5-4-8.5t-9-3.5v-1zm163-90q-3-13 4-24t20-14l34-8q13-3 24 3.5t14 19.5l9 36q3 13-4 24t-20 14l-34 8q-4 1-8 1-9 0-16-5-11-7-14-19l-9-36zm25-6l8 36q1 2 3 3.5t5 1.5l35-9q2 0 3.5-2.5t.5-4.5l-8-36q-1-3-3-4.5t-5-.5l-34 8q-3 1-4.5 3.5t-.5 4.5z"/></svg>