<svg viewBox="0 0 300 302.0011" xmlns="http://www.w3.org/2000/svg"><path d="M238 288q0 6-4 9.5t-9 3.5H13q-6 0-9.5-3.5t-3.5-9q0-5.5 3.5-9T12 276h213q5 0 9 3.5t4 8.5zm62-187q0 17-8.5 34.5t-23 29Q254 176 238 176h-21l-3 23q-4 22-21.5 37T152 251H86q-23 0-40.5-15T24 199L1 59q-2-11 1-21.5t10-19q7-8.5 17-13T50 1h138q20 0 34.5 14.5T237 51h1q29 0 45.5 13.5T300 101zm-88-46q2-11-5.5-20T188 26H50q-12 0-19.5 9T25 55l24 140q2 13 12.5 22t24.5 9h66q14 0 24.5-9t12.5-22l23-140zm63 46q0-9-5-15-8-10-32-10h-4l-12 75h16q9 0 17.5-8t14-19.5Q275 112 275 101z"/></svg>