<svg viewBox="0 0 300 302.0011" xmlns="http://www.w3.org/2000/svg"><path d="M219 1q-29 0-51 18t-28 45H38q-9 0-16.5 3.5t-13 10Q3 84 1 92.5T1 108l19 138q3 24 20.5 39.5T82 301h87q24 0 41.5-15.5T231 246l19-137q4-17-7-31-6-7-13.5-10.5T213 64h-47q5-17 20-27.5T219 26q23 0 39.5 16.5T275 82q0 12-5 23-2 5 0 9.5t6.5 7q4.5 2.5 9.5.5t7-7q7-16 7-34 0-22-11-40.5t-29.5-29Q241 1 219 1zm-13 242q-1 14-12 23.5t-25 9.5H82q-14 0-25-9.5T44 243l-10-79h91q5 0 9-4t4-9q0-5-4-8.5t-9-3.5H30l-5-35q-1-6 3-10.5T38 89h100q1 20 12 37t29 27q18 10 38 10l-11 80zm7-154q6 0 10 4.5t2 11.5l-4 33h-2q-22 0-38-14t-18-35h50z"/></svg>