<svg viewBox="0 0 300 302.0011" xmlns="http://www.w3.org/2000/svg"><path d="M263 201v-50q-1-26-12-49t-30-39h32q5 8 12.5 11t16 1q8.5-2 13.5-9t5-15.5q0-8.5-5.5-15T281 27q-8-2-15.5 1T253 38h-55q-4-16-17.5-26.5T150 1q-17 0-30.5 10.5T102 38H47q-5-7-12.5-10t-16-1Q10 29 5 36T0 51.5q0 8.5 5.5 15T19 75q8 2 15.5-1T47 64h32q-19 15-30 38t-12 49v50q-15 0-26 11T0 238v25q0 16 11 27t26 11h26q15 0 26-11t11-27v-25q0-15-11-26t-26-11v-50q0-23 11.5-43.5T107 75q6 12 17.5 19t25.5 7q14 0 25.5-7T193 75q21 12 32.5 32.5T238 151v50q-16 0-27 11t-11 26v25q0 16 11 27t27 11h25q15 0 26-11t11-27v-25q0-15-11-26t-27-11h1zM75 238v25q0 6-3.5 9.5T62 276H38q-6 0-9.5-3.5T25 263v-25q0-5 3.5-8.5T37 226h26q5 0 8.5 3.5T75 239v-1zm75-162q-10 0-17.5-7.5T125 51q0-10 7.5-17.5T150 26q10 0 17.5 7.5T175 51q0 10-7.5 17.5T150 76zm125 187q0 6-3.5 9.5T263 276h-25q-6 0-9.5-3.5T225 263v-25q0-5 3.5-8.5t8.5-3.5h26q5 0 8.5 3.5t3.5 9.5v24z"/></svg>