<svg viewBox="0 0 300 302.0011" xmlns="http://www.w3.org/2000/svg"><path d="M296 280l-74-75q13-16 20.5-36.5T250 126q0-34-17-62.5T187.5 18Q159 1 125 1T62.5 18Q34 35 17 63.5T0 126q0 34 17 62.5T62.5 234Q91 251 125 251q22 0 42.5-7.5T204 223l75 74q3 4 8.5 4t9-3.5q3.5-3.5 3.5-9t-4-8.5zM25 126q0-27 13.5-50T75 39.5Q98 26 125 26t50 13.5Q198 53 211.5 76t13.5 50q0 27-13.5 50T175 212.5Q152 226 125 226t-50-13.5Q52 199 38.5 176T25 126zm115-66q-5-9-15-9t-15 9l-53 89q-5 9 0 18t16 9h104q11 0 16-9t0-18l-53-89zm-15 103q-5 0-8.5-3.5T113 151q0-5 3.5-8.5t8.5-4q5-.5 8.5 3.5t4 9q.5 5-3.5 8.5t-9 3.5zm13-50q0 6-4 9.5t-9 3.5q-5 0-8.5-3.5T113 113V88q0-5 3.5-8.5T125 76q5 0 8.5 3.5T137 89v24h1z"/></svg>