<svg viewBox="0 0 300 302.0011" xmlns="http://www.w3.org/2000/svg"><path d="M297 143l-67-88q-10-13-26-21t-33-8H63q-17 0-31.5 8.5t-23 23Q0 72 0 89v124q0 17 8.5 31.5t23 23Q46 276 63 276h108q17 0 33-8t26-21l67-88q3-4 3-8t-3-8zm-87 88q-7 10-17.5 15t-21.5 5H63q-16 0-27-11t-11-26V88q0-15 11-26t27-11h108q11 0 21.5 5T210 71l62 80-62 80zm-39-109l-28 29 28 29q4 3 4 8.5t-3.5 9q-3.5 3.5-9 3.5t-8.5-4l-29-28-29 28q-3 4-8.5 4t-9-3.5q-3.5-3.5-3.5-9t4-8.5l28-29-28-29q-4-3-4-8.5t3.5-9q3.5-3.5 9-3.5t8.5 4l29 28 29-28q3-4 8.5-4t9 3.5q3.5 3.5 3.5 9t-4 8.5z"/></svg>