<svg viewBox="0 0 300 302.0011" xmlns="http://www.w3.org/2000/svg"><path d="M150 1q-40 0-74.5 20.5t-55 55Q0 111 0 151.5t20.5 75Q41 261 75.5 281t75 20q40.5 0 75-20t54.5-54.5q20-34.5 20-75t-20-75q-20-34.5-54.5-55T150 1zm0 275q-33 0-62-16.5T42 214q-17-29-17-63t17-62.5Q59 60 88 43t62.5-17Q184 26 213 43t45.5 45.5Q275 117 275 151t-16.5 63Q242 243 213 259.5T150 276zm75-183l-11 109q-2 11-9 17.5t-17 6.5q-10 0-17-5t-10-14l-11-31-11 31q-3 10-11 15t-17 4q-9-1-15.5-7T87 203L76 93q-1-5 2.5-9t8.5-4.5q5-.5 9 2.5t4 9l12 109 1 1q2 0 3-2l23-64q1-4 4-6.5t7-2.5h1q3 0 6.5 2.5t4.5 6.5l23 64q1 3 2.5 2.5t1.5-2.5l12-108q0-6 4-9t9-2.5q5 .5 8.5 4.5t2.5 9z"/></svg>