<svg viewBox="0 0 300 302.0011" xmlns="http://www.w3.org/2000/svg"><path d="M228 119l5-11q7-14 2.5-29T217 57l-77-42Q107-2 76 2 55 5 36 17q-6 4-8.5 10T25 39.5q0 6.5 4 12t9 8.5l51 27L4 247q-7 13-2 28t18 22q8 4 17 4 6 0 12-2 15-5 22-19l84-157 22 12q8 4 17.5 4t19-5.5Q223 128 228 119zM49 269q-3 5-8 6.5t-9.5-1q-4.5-2.5-6-7t.5-9.5l85-159 22 12-84 158zM211 96l-6 11q-2 5-7 6.5t-9-.5L50 38q18-12 38-12t40 11l78 42q4 3 5.5 8t-.5 9zm89-20q0 5-3.5 8.5T288 89h-13q-5-1-8.5-4.5T263 76q0-5 3.5-9t8.5-4h13q5 0 8.5 4t3.5 9zm-49 92q3 4 2.5 9.5T249 186q-4 3-9 3t-9-5l-10-13q-3-4-2.5-9t4.5-8.5q4-3.5 9.5-2.5t8.5 5l10 12zm36-30q-3 7-11 7-3 0-6-2l-11-6q-4-3-5.5-8t1-9.5q2.5-4.5 7.5-5.5t10 1l11 6q4 3 5.5 8t-1.5 9z"/></svg>