<svg viewBox="0 0 300 302.0011" xmlns="http://www.w3.org/2000/svg"><path d="M274 217q-4-44-27-91h3q21 0 35.5-14.5T300 76q0-21-14.5-35.5T250 26q-4 0-8 1l-2-2q-18-12-28-16-18-8-36.5-8T137 11q-23 11-44 34-23 27-40 66-19 46-27 106-12 5-19 16t-7 24q0 18 13 31t31 13h212q18 0 31-13t13-31q0-13-7-23.5T274 217zm1-141q0 10-7.5 17.5T250 101q-10 0-17.5-7.5T225 76q0-10 7.5-17.5T250 51q10 0 17.5 7.5T275 76zM175 26q12 0 22 4 9 3 19 9-8 8-12 17l-1-1q-3-3-8-3.5t-9 2.5q-4 3-4.5 8.5T184 72q14 17 29 42 29 52 36 99l-197 1q8-54 25-94 14-35 35-58 16-19 35-28 16-8 28-8zm81 250H44q-8 0-13.5-5.5t-5.5-13q0-7.5 5.5-13T44 239l212-1q8 1 13.5 6t5.5 13q0 8-5.5 13.5T256 276z"/></svg>