<svg viewBox="0 0 300 302.0011" xmlns="http://www.w3.org/2000/svg"><path d="M238 1H63Q46 1 31.5 9.5t-23 23Q0 47 0 63v175q0 17 8.5 31.5t23 23Q46 301 62 301h176q16 0 30.5-8.5t23-23Q300 255 300 239V63q0-16-8.5-30.5t-23-23Q254 1 238 1zM88 276v-13q0-16 8-30.5t22.5-23Q133 201 150 201t31.5 8.5q14.5 8.5 23 23T212 263v13H88zm187-38q0 16-11 27t-27 11v-13q0-23-11.5-43T194 188q-20-12-44-12t-44 12q-20 12-32 32t-12 44v12q-15 0-26-11t-11-26V63q0-15 11-26t26-11h176q15 0 26 11t11 27v174zM150 51q-21 0-35.5 14.5T100 101q0 21 14.5 35.5T150 151q21 0 35.5-14.5T200 101q0-21-14.5-35.5T150 51zm0 75q-10 0-17.5-7.5T125 101q0-10 7.5-17.5T150 76q10 0 17.5 7.5T175 101q0 10-7.5 17.5T150 126z"/></svg>