<svg viewBox="0 0 300.0015 302.0011" xmlns="http://www.w3.org/2000/svg"><path d="M126 157q-4-4-4-9t3.5-9q3.5-4 9-4t8.5 4l19 19q4 3 4 8.5t-4 9q-4 3.5-9 3.5t-9-3l-18-19zm-75 75l18 18q4 4 9 4t9-3.5q4-3.5 4-9t-4-8.5l-19-19q-3-4-8.5-4t-9 4q-3.5 4-3.5 9t4 9zm65-10q4 4 9 4t9-3.5q4-3.5 4-9t-4-8.5l-38-38q-3-3-8.5-3t-9 3.5Q75 171 75 176t4 9l37 37zM297 96q-4 8-11.5 13t-16.5 5h-56q-1 20-2 37h4q17 0 27 12t8 27.5q-2 15.5-14 25.5t-27 10h-16q-17 37-51 56t-89 19q-10 0-20.5-4t-18-11q-7.5-7-11-17T0 248q5-62 25-96v-6q0-23 10.5-43T64 69.5Q82 56 104 52q9-2 17 .5t15 7.5q14 12 14 31 17-2 38-2V32q0-9 4.5-16.5T205 4q8-4 16.5-3T238 7q17 13 23 34 20 5 33 22 5 8 6 16.5T297 96zM55 120q26-19 70-26v-3q0-7-5-11.5T108 76q-18 3-32.5 15T55 120zm133-6q-61 1-94.5 13.5t-49 41Q29 197 25 250q-1 11 7 19t20 7q52-4 80.5-19.5t41-49Q186 174 188 114zm19 62q-2 13-5 25h7q6 0 10.5-4t5.5-9.5q1-5.5-2-8.5t-8-3h-8zm67-98q-9-12-26-15-4 0-7-3t-3-7q-3-17-15-26-3-2-6.5-.5T213 32v57h56q4 0 5.5-3.5T274 78z"/></svg>