<svg viewBox="0 0 300 302.0011" xmlns="http://www.w3.org/2000/svg"><path d="M200 51H100q-27 0-50 13.5T13.5 101Q0 124 0 151t13.5 50Q27 224 50 237.5t50 13.5h100q27 0 50-13.5t36.5-36.5q13.5-23 13.5-50t-13.5-50Q273 78 250 64.5T200 51zm0 175H100q-20 0-37.5-10T35 188.5Q25 171 25 151t10-37.5Q45 96 62.5 86T100 76h100q20 0 37.5 10t27.5 27.5q10 17.5 10 37.5t-10 37.5Q255 206 237.5 216T200 226zM100 101q-21 0-35.5 14.5T50 151q0 21 14.5 35.5T100 201q21 0 35.5-14.5T150 151q0-21-14.5-35.5T100 101zm0 75q-10 0-17.5-7.5T75 151q0-10 7.5-17.5T100 126q10 0 17.5 7.5T125 151q0 10-7.5 17.5T100 176z"/></svg>