<svg viewBox="0 0 300 302.0011" xmlns="http://www.w3.org/2000/svg"><path d="M244 113h-6V88q-1-5-4.5-8.5T225 76q0-14-6.5-25.5T200 32q-14-7-30-6-4 1-6-3-9-10-21-16t-26-5.5q-14 .5-26 7T72 26q-20 1-33.5 15.5T25 76q-5 0-8.5 3.5T13 89v149q0 17 8 31.5t22.5 23Q58 301 75 301h100q17 0 31.5-8.5t22.5-23q8-14.5 9-30.5h6q18-1 31-13.5t13-30.5v-38q0-18-13-31t-31-13zM75 51h2q4 1 8-1t5-6q4-7 10.5-12t15-5.5q8.5-.5 16 2.5t12.5 9.5q5 6.5 12.5 10t16 3q8.5-.5 15 3t9.5 9q3 5.5 3 12.5h-50q-16 0-27 11t-10 27v37q0 5-4 9t-9 3.5q-5-.5-8.5-4T88 151v-38q0-15-11-26T50 76q0-10 7.5-17.5T75 51zm138 187q0 16-11 27t-27 11H75q-16 0-27-11t-11-26V101h13q5 0 9 3.5t4 8.5v38q0 16 10.5 26.5T100 188q16 0 27-10.5t11-26.5v-38q0-5 3.5-8.5t8.5-3.5h63v137zm50-43q0 8-5.5 13t-13.5 5h-6v-75h6q8 0 13.5 5.5T263 157v38z"/></svg>