<svg viewBox="0 0 300 302.0011" xmlns="http://www.w3.org/2000/svg"><path d="M163 27V13q-1-5-4.5-8.5T150 1q-5 0-9 3.5t-4 8.5v14q-34 3-62.5 22t-45 49Q13 128 13 164q0 25 8.5 48T46 253q-9 5-15 13.5T25 288q0 6 3.5 9.5t9 3.5q5.5 0 9-3.5T50 288q0-8 6-12 3-2 8-3h2q18 13 39.5 20.5T150 301q23 0 44.5-7.5T234 273h2q5 1 8 3 6 4 6 12 0 6 3.5 9.5t9 3.5q5.5 0 9-3.5t3.5-9.5q0-13-6-21.5T254 253q16-18 24.5-41t8.5-49q0-35-16.5-65t-45-49Q197 30 162 27h1zM38 163q0-30 15-56t40.5-41Q119 51 150 51t56.5 15q25.5 15 41 41t15 56.5Q262 194 247 220t-40.5 41Q181 276 150 276t-56.5-15q-25.5-15-41-41T37 163h1zM300 57q0 5-3.5 9t-9 4q-5.5 0-9-4t-3.5-9q0-12-9.5-21.5T240 26q-5 0-8.5-3.5t-3.5-9q0-5.5 3.5-9T240 1q25 0 42.5 16.5T300 57zM13 70q-6 0-9.5-4T0 57q0-23 17.5-39.5T60 1q5 0 8.5 3.5t3.5 9q0 5.5-3.5 9T60 26q-16 0-25.5 9.5T25 57q0 5-3.5 9T13 70zm150 18v88q0 5-4 9t-9 3.5q-5-.5-9-4t-4-8.5V88q1-5 4.5-8.5T150 76q5 0 9 3.5t4 8.5zm6 144q0 8-5.5 13.5T150 251q-8 0-13.5-5.5T131 232q0-8 5.5-13.5T150 213q8 0 13.5 5.5T169 232z"/></svg>