<svg viewBox="0 0 300 302.0011" xmlns="http://www.w3.org/2000/svg"><path d="M300 151q0 41-20 75.5T225.5 281Q191 301 150 301t-75.5-20Q40 261 20 226.5T0 151q0-14 2-27 1-5 5.5-8t9.5-2q5 1 8 5t2 9q-2 12-2 23 0 34 17 62.5T87.5 259q28.5 17 62.5 17t62.5-17q28.5-17 45.5-45.5t17-62.5q0-34-17-62.5T212.5 43Q184 26 150 26q-17 0-34 5-5 1-9.5-1.5t-6-7.5q-1.5-5 1-9.5T109 7q20-6 41-6 41 0 75.5 20T280 75.5q20 34.5 20 75.5zm-195 65q-4 3-5 8t2.5 9.5q3.5 4.5 8.5 5t8.5-2q3.5-2.5 9.5-5.5 11-5 21-5t21 5q5 2 9 5 3 2 8.5 2t9-4.5q3.5-4.5 2.5-9.5t-5.5-8.5Q190 212 181 208q-16-7-31-7t-31 7q-9 4-14 8zm20-78H75q-5 0-9 4t-4 9q0 5 4 9t9 4h50q5-1 8.5-4.5t4-8.5q.5-5-3.5-9t-9-4zm100 25q5 0 9-3.5t3.5-8.5q-.5-5-4-9t-8.5-4h-50q-5 0-8.5 4t-3.5 9q0 5 3.5 9t8.5 4h50v-1zM44 88q13 0 22-9t9-21.5Q75 45 66 28 59 14 51 4q-3-3-7.5-3T37 4q-9 10-16 24-9 18-9 30t9.5 21.5Q31 89 44 89v-1z"/></svg>