<svg viewBox="0 0 300 302.0011" xmlns="http://www.w3.org/2000/svg"><path d="M298 251q3 5 2 10t-5 8q-17 11-34 19-27 13-48 13-25 0-42-17.5T154 242q0-24 17-41l99-99q5-6 5-13.5t-5.5-13q-5.5-5.5-13-5.5T243 75L74 244q-12 13-30.5 13t-31-13Q0 231 0 213t13-31L138 58q6-5 6-13t-5.5-13.5Q133 26 125 26t-13 5l-91 90q-3 3-8.5 3t-9-3.5Q0 117 0 111.5t4-8.5l90-89q12-13 31-13t31.5 13Q169 27 169 45t-13 31L30 200q-5 6-5 13.5t5.5 13q5.5 5.5 13 5.5t13.5-5L226 58q12-13 30.5-13t31 13Q300 71 300 89t-13 31l-98 98q-10 10-10 24t10 24q10 10 25.5 10t38.5-12q14-6 27-16 5-3 10-2t8 6v-1z"/></svg>