<svg viewBox="0 0 300 302.0011" xmlns="http://www.w3.org/2000/svg"><path d="M188 238q0 6-4 9.5t-9 3.5h-41q-6 0-11.5-4t-8-10q-2.5-6-1-12.5T120 213l10-9q16-12 22-20 12-13 10-23 0-4-3.5-7t-8.5-3q-5 0-8.5 3.5t-3.5 9q0 5.5-4 9t-9 3.5q-5 0-8.5-3.5T113 163q0-15 11-26t26-11q15 0 25.5 9t11.5 23q2 19-12 39-9 11-29 27l-3 2h32q5 0 9 3.5t4 9.5v-1zm91-201l-41 82q25 31 25 70 0 30-15.5 56t-41 41Q181 301 150 301t-56.5-15q-25.5-15-41-41T37 188q1-19 7-37t18-32L21 37q-2-6-2-12.5t3.5-12Q26 7 31.5 4T44 1h37q15 0 27 7.5T126 29l24 47h1l23-47q6-13 18.5-20.5T219 1h38q6 0 11.5 3t9 8.5q3.5 5.5 4 12T279 37zM44 26l37 74q19-15 42-21l-19-39q-3-7-9-10.5T81 26H44zm194 162q-1-23-12.5-43T194 113q-20-12-44-12h-7q-22 2-40.5 14t-29 31.5Q63 166 63 189t11.5 43Q86 252 106 264t44 12q24 0 44-12t32-32q12-20 12-44zm18-162h-37q-7 0-13 3.5T196 40l-19 39q24 6 43 21l36-74z"/></svg>