<svg viewBox="0 0 300 302.0011" xmlns="http://www.w3.org/2000/svg"><path d="M63 276q-1 10 6.5 17.5t18 7.5q10.5 0 17.5-7.5t7.5-17.5q.5-10-7-17.5t-18-7.5Q77 251 70 258.5T63 276zm125 0q-1 10 6.5 17.5t18 7.5q10.5 0 17.5-7.5t7.5-17.5q.5-10-7-17.5t-18-7.5q-10.5 0-17.5 7.5t-7 17.5zM296 18q-4-4-9-4t-9 4l-64 64-19-20q-4-4-9-4t-9 3.5q-4 3.5-4 9t3 8.5l21 21q6 8 16 8h1q10 0 17-7l65-66q4-3 4-8.5t-4-8.5zm-22 96q-5-1-9.5 2t-5.5 8l-1 9q-3 13-13.5 22t-23.5 8H68L56 63h82q5 1 8.5-3t3.5-9q0-5-3.5-8.5T138 38H53v-4q-2-14-12.5-23.5T15 1h-2Q7 1 3.5 4.5t-3.5 9q0 5.5 3.5 9T12 26h3q5 0 8.5 3t4.5 8l17 146q3 24 20.5 40t41.5 16h131q5-1 8.5-4.5t3.5-8.5q0-5-3.5-8.5T238 214H107q-12 0-21.5-7T72 189h149q22 0 39.5-15t21.5-37l2-9q1-5-2-9t-8-5z"/></svg>