<svg viewBox="0 0 300.0224 302.0011" xmlns="http://www.w3.org/2000/svg"><path d="M240 95q-10-4-15-13-17-31-48.5-46T110 28q-31 6-53.5 28.5T27 110q-3 16-2 32 1 10-7 19-18 19-18 46 0 19 8.5 34.5t23 25Q46 276 63 276h140q25 0 46-11.5t34.5-30.5q13.5-19 16.5-43 3-31-14-58t-46-38zm35 94q-2 17-12 31t-25.5 22.5Q222 251 203 251H63q-16 0-27-13t-11-30.5Q25 190 37 178q15-17 13-38-1-13 2-25 5-24 22-41t41-21q8-2 16-2 22 0 41.5 11.5T203 94q9 17 28 24 21 8 33.5 28t10.5 43zm-143 21q4 4 4 9t-3.5 9q-3.5 4-9 4t-8.5-4l-31-30q-9-10-9-23t9-22l30-30q4-3 9-3t8.5 3.5q3.5 3.5 3.5 8.5t-3 9l-30 30q-2 2-2 4.5t2 4.5l30 30zm84-57q9 9 9 22t-9 23l-31 30q-3 4-8.5 4t-9-4q-3.5-4-3.5-9t4-9l30-30q2-2 2-4.5t-2-4.5l-30-30q-3-4-3-9t3.5-8.5q3.5-3.5 8.5-3.5t9 3l30 30z"/></svg>