<svg viewBox="0 0 300.0023 302.0011" xmlns="http://www.w3.org/2000/svg"><path d="M296 144q-15-35-45-59t-67-31q5-11 2-24T173 9q-10-8-23-8t-23 8q-10 8-13 21t2 24q-37 7-67 31T4 144q-5 11-4 24t8 23q7 10 18 16l7 42q4 23 21.5 37.5T95 301h110q23 0 40.5-14.5T267 249l7-42q11-6 18-16t8-23q1-13-4-24zM150 26q5 0 9 3.5t4 9q0 5.5-4 9t-9 3.5q-5 0-9-3.5t-4-9q0-5.5 4-9t9-3.5zm92 219q-2 13-12.5 22t-24.5 9H95q-14 0-24.5-9T58 245l-5-26q11 8 24 7t23-10q11 10 25 10t25-10q11 10 25 10t25-10q10 9 23 10t24-7l-5 26zm29-68q-4 6-9.5 9t-11.5 3q-9 0-15 7-4 5-10 5t-10-5q-5-7-15-7t-15 7q-4 5-10 5t-10-5q-5-7-15-7t-15 7q-4 5-10 5t-10-5q-5-7-15-7t-15 7q-4 5-10 5t-10-5q-6-7-15-8-6 1-11.5-2t-9-8.5q-3.5-5.5-4-12T27 153q15-37 50-57 33-20 73-20t73 20q35 20 50 57 3 6 2 12.5t-4 11.5z"/></svg>