<svg viewBox="0 0 300 302.0011" xmlns="http://www.w3.org/2000/svg"><path d="M150 301q-41 0-75.5-20T20 226.5Q0 192 0 151t20-75.5Q40 41 74.5 21T150 1q41 0 75.5 20T280 75.5q20 34.5 20 75.5t-20 75.5Q260 261 225.5 281T150 301zm0-275q-34 0-62.5 17T42 88.5Q25 117 25 151t17 62.5Q59 242 87.5 259t62.5 17q34 0 62.5-17t45.5-45.5q17-28.5 17-62.5t-17-62.5Q241 60 212.5 43T150 26zm4 137q4-1 6-4.5t2-7.5V76q1-5-3-8.5t-9-3.5q-5 0-8.5 3.5T138 76v38l-9-10q-3-4-8-5t-9 2.5q-4 3.5-5 8.5t3 9l30 40q4 4 10 5 2-1 4-1z"/></svg>