<svg viewBox="0 0 300 302.0011" xmlns="http://www.w3.org/2000/svg"><path d="M238 1H138q-17 0-31.5 8.5t-23 23Q75 47 75 63v75H63q-17 1-31.5 9t-23 22.5Q0 184 0 201v37q0 17 8.5 31.5t23 23Q46 301 62 301h38q17 0 31.5-8.5t22.5-23q8-14.5 9-30.5v-13h75q16 0 30.5-8.5t23-23Q300 180 300 164V63q0-16-8.5-30.5t-23-23Q254 1 237 1h1zM138 201q-16 0-27-11t-11-27q16 0 27 11t11 27zm0 37q0 16-11 27t-27 11H63q-16 0-27-11t-11-26v-38q0-16 11-27t26-11h13q0 17 8.5 31.5t23 23Q121 226 137 226l1 12zm137-75q0 16-11 27t-27 11h-74q-1-19-11-34l73-73v32q0 5 3.5 9t9 3.5q5.5-.5 9-4t3.5-8.5V88q0-15-11-26t-27-11h-37q-5 0-9 3.5t-3.5 9q.5 5.5 4 9T175 76h32l-73 73q-15-10-34-11V63q0-15 11-26t26-11h101q15 0 26 11t11 26v100z"/></svg>