<svg viewBox="0 0 300 302.0011" xmlns="http://www.w3.org/2000/svg"><path d="M219 301q-18 0-31-13t-13-31q0-18 13-31t31-13q18 0 31 13t13 31q0 18-13 31t-31 13zm0-63q-8 0-13.5 5.5T200 257q0 8 5.5 13.5T219 276q8 0 13-5.5t5.5-13.5q.5-8-5-13.5T219 238zM81 301q-18 0-30.5-13T38 257q0-18 12.5-31T81 213q18 0 31 13t13 31q0 18-13 31t-31 13zm0-63q-8 0-13.5 5.5t-5 13.5q.5 8 5.5 13.5t13 5.5q8 0 13.5-5.5T100 257q0-8-5.5-13.5T81 238zm138-43q-18 0-31-13t-13-31q0-18 13-31t31-13q18 0 31 13t13 31q0 18-13 31t-31 13zm0-63q-8 0-13.5 5.5T200 151q0 8 5.5 13.5T219 170q8 0 13.5-5.5t5-13.5q-.5-8-5.5-13.5t-13-5.5zM81 195q-18 0-30.5-13T38 151q0-18 12.5-31T81 107q18 0 31 13t13 31q0 18-13 31t-31 13zm0-63q-8 0-13 5.5T62.5 151q-.5 8 5 13.5T81 170q8 0 13.5-5.5T100 151q0-8-5.5-13.5T81 132zm138-44q-18 0-31-12.5T175 45q0-18 13-31t31-13q18 0 31 13t13 31q0 18-13 30.5T219 88zm0-62q-8 0-13.5 5.5T200 45q0 8 5.5 13.5T219 64q8 0 13-5.5t5.5-13.5q.5-8-5-13.5T219 26zM81 88q-18 0-30.5-12.5T38 45q0-18 12.5-31T81 1q18 0 31 13t13 31q0 18-13 30.5T81 88zm0-62q-8 0-13 5.5T63 45q0 8 5 13t13 5.5q8 .5 13.5-5T100 45q0-8-5.5-13.5T81 26z"/></svg>