<svg viewBox="0 0 300 302.0011" xmlns="http://www.w3.org/2000/svg"><path d="M200 126q16 0 26.5-11T237 88.5Q237 73 226.5 62T200 51q-16 0-26.5 11T163 88v7l-51 28q-10-9-25-9t-26 11q-11 11-11 26.5T61 178q11 11 26 11t25-10l51 28-1 7q0 15 11 26t27 11q16 0 26.5-11t11-26.5Q238 198 227 187t-26-11q-15 0-26 9l-51-28 1-6-1-6 51-28q11 9 25 9zm0-50q5 0 8.5 3.5t4 9q.5 5.5-3.5 9t-9 3.5q-5 0-8.5-3.5t-3.5-9q0-5.5 3.5-9T200 76zM88 163q-6 0-9.5-3.5T75 151q0-5 3.5-9t9-4q5.5 0 9 4t3.5 9q0 5-3.5 8.5T88 163zm112 38q5 0 8.5 3.5t4 9q.5 5.5-3.5 9t-9 3.5q-5 0-8.5-3.5t-3.5-9q0-5.5 3.5-9t8.5-3.5zM238 1H63Q46 1 31.5 9.5t-23 23Q0 47 0 64v174q0 17 8.5 31.5t23 23Q46 301 63 301h175q16 0 30.5-8.5t23-23Q300 255 300 238V63q0-16-8.5-30.5t-23-23Q254 1 237 1h1zm37 237q0 16-11 27t-27 11H63q-16 0-27-11t-11-27V63q0-15 11-26t27-11h175q15 0 26 11t11 27v174z"/></svg>