<svg viewBox="0 0 300 302.0011" xmlns="http://www.w3.org/2000/svg"><path d="M238 26H63q-17 0-31.5 8.5t-23 23Q0 72 0 89v124q0 17 8.5 31.5t23 23Q46 276 63 276h175q16 0 30.5-8.5t23-23Q300 230 300 214V88q0-16-8.5-30.5t-23-23Q254 26 237 26h1zM25 213V88q0-15 11-26t27-11h100v200H63q-16 0-27-11t-11-27zm250 0q0 16-11 27t-27 11h-49V51h50q15 0 26 11t11 26v125zm-25-75q0 6-3.5 9.5T237 151h-12q-5 0-8.5-3.5t-4-9q-.5-5.5 3.5-9t9-3.5h13q5 0 8.5 3.5t3.5 8.5zm0 50q0 6-3.5 9.5T237 201h-12q-5 0-8.5-3.5t-4-9q-.5-5.5 3.5-9t9-3.5h13q5 0 8.5 3.5t3.5 9.5v-1zm0-100q0 6-3.5 9.5T237 101h-12q-5 0-8.5-3.5t-4-9q-.5-5.5 3.5-9t9-3.5h13q5 0 8.5 3.5T250 88z"/></svg>