<svg viewBox="0 0 300 302.0011" xmlns="http://www.w3.org/2000/svg"><path d="M238 63h-25q-1-20-15.5-35T162 13H50q-21 0-35.5 15T0 63v125q0 18 11 31.5T38 237v8q0 18 12.5 30.5T81 288q18 0 31-12.5t13-30.5l-1-7h52l-1 7q0 18 13 30.5t31 12.5q18 0 31-12.5t13-30.5q0-4-1-8 16-4 27-17.5t11-30.5v-63q0-17-8.5-31.5t-23-22.5Q254 64 238 64v-1zm0 25q15 1 26 11.5t11 26.5v12h-62V88h25zM25 188V63q0-10 7.5-17.5T50 38h113q10 0 17.5 7.5T188 63v150H50q-10 0-17.5-7T25 188zm225 25h-37v-50h62v25q0 11-7.5 18.5T250 214v-1zM50 126q0-5 3.5-9t9.5-4h31V82q0-5 3.5-8.5T106 70q5 0 9 3.5t4 8.5v31h31q5 0 9 4t4 9q0 5-4 9t-9 4h-31v31q0 5-4 8.5t-9 3.5q-5 0-8.5-3.5T94 170v-32H63q-6 0-9.5-3.5T50 126z"/></svg>