<svg viewBox="0 0 300 302.0011" xmlns="http://www.w3.org/2000/svg"><path d="M75 113q-21 1-38 6.5T10 135Q0 145 0 157v100q0 13 10 23t27 15.5q17 5.5 38 5.5t38-5.5q17-5.5 27-15.5t10-23V157q0-12-10-22t-27-16q-17-6-38-6zm50 94q0 4-6.5 8.5t-18 7.5Q89 226 75 226t-25.5-3q-11.5-3-18-7.5T25 207v-17q21 11 50 11t50-11v17zm-50-69q14 0 25.5 3.5t18 8q6.5 4.5 6.5 8t-6.5 8q-6.5 4.5-18 7.5T75 176q-14 0-25.5-3t-18-7.5q-6.5-4.5-6.5-8t6.5-8q6.5-4.5 18-8T75 138zm0 138q-14 0-25.5-3t-18-7.5Q25 261 25 257v-17q21 11 50 11t50-11v17q0 4-6.5 8.5t-18 7.5Q89 276 75 276zM300 63v175q0 17-8.5 31.5t-23 23Q254 301 238 301h-63q-5 0-9-3.5t-3.5-9q.5-5.5 4-9t8.5-3.5h63q15 0 26-11t11-27V63q0-15-11-26t-27-11H113q-16 0-27 11T75 64v12q0 5-3.5 8.5t-9 4q-5.5.5-9-3.5T50 76V63q0-16 8.5-30.5t23-23Q96 1 112 1h126q16 0 30.5 8.5t23 23Q300 47 300 64v-1zm-137 63q-6 0-9.5-3.5t-3.5-9q0-5.5 3.5-9t8.5-3.5h63V76H125v6q0 5-3.5 9t-9 4q-5.5 0-9-4t-3.5-9v-6q0-10 7.5-17.5T125 51h100q10 0 17.5 7.5T250 76v25q0 10-7.5 17.5T225 126h-62zm12 100q0-5 3.5-9t8.5-4h51q5 1 8.5 4.5t3.5 8.5q0 5-3.5 8.5T238 238h-50q-6 1-9.5-3t-3.5-9zm0-50v-13q0-5 3.5-8.5t9-3.5q5.5 0 9 3.5t3.5 9.5v12q0 5-3.5 8.5t-9 4q-5.5.5-9-3.5t-3.5-9zm75 0q0 5-3.5 8.5t-9 4q-5.5.5-9-3.5t-3.5-9v-13q0-5 3.5-8.5t9-3.5q5.5 0 9 3.5t3.5 9.5v12z"/></svg>