<svg viewBox="0 0 300 302.0011" xmlns="http://www.w3.org/2000/svg"><path d="M221 35q-14-4-33.5-6.5T150 26q-18 0-37.5 2.5T79 35Q44 47 22 77T0 145v62q0 35 16 54 14 15 34 15 9 0 17.5-3.5T83 263q14 13 33 13 9 0 18-4t16-11q7 7 16 11t18 4q19 0 33-13 7 6 15.5 9.5T250 276q21 0 34-15 16-19 16-54v-62q0-38-22-68t-57-42zM66 69l28 45q4 6 11 6 3 0 7-2.5t5-7.5q1-5-2-9L89 59q12-4 29-6l35 55q4 6 11 6 3 0 7-2.5t5-7.5q1-5-2-9l-27-44h3q15 0 31 2l46 73q4 6 11 6 3 0 7-2t5-7.5q1-5.5-2-9.5l-33-53q26 9 43 32.5t17 52.5q0 11-8.5 16t-16.5 1q-16-8-36-14-32-9-64-9.5T86 148q-20 6-36 14-8 4-16.5-1T25 145q0-16 6-32l8 13q4 6 11 6 4 0 7.5-2t4.5-7q1-5-1-10L45 88q9-11 21-19zm184 182q-8 0-13.5-4t-5.5-8.5q0-4.5-3-8t-7.5-4.5q-4.5-1-8.5 1.5t-5 7.5q-2 7-8.5 11.5t-14 4.5q-7.5 0-14-4.5T162 235q-1-4-4.5-6.5T150 226q-4 0-7.5 2.5T138 235q-2 7-8.5 11.5t-14 4.5q-7.5 0-14-4.5T93 235q-1-5-5-7.5t-8.5-1.5q-4.5 1-7.5 4.5t-3 7.5q0 4-6 8.5T50 251q-10 0-17-10-8-11-8-34v-22q8 3 17.5 3t18.5-4q17-8 39-14 26-7 50-7t50 7q22 6 39 14 8 4 17.5 4t18.5-4v23q0 21-6.5 32.5T250 251z"/></svg>