<svg viewBox="0 0 300 302.0011" xmlns="http://www.w3.org/2000/svg"><path d="M225 151q-20 0-37.5 10T160 188.5Q150 206 150 226t10 37.5q10 17.5 27.5 27.5t37.5 10q20 0 37.5-10t27.5-27.5q10-17.5 10-37.5t-10-37.5Q280 171 262.5 161T225 151zm38 108v-2q-1-8-6-13.5t-13-4.5h-38q-8 0-13.5 5t-5.5 13v2q-12-14-12-34t14.5-34.5Q204 176 225 176t35.5 14.5Q275 205 275 225t-13 34h1zm-19-52q0 8-5.5 13.5T225 226q-8 0-13.5-5.5T206 207q0-8 5.5-13.5t13.5-5q8 .5 13.5 5.5t5.5 13zm-6-181h-13V13q0-5-3.5-8.5t-9-3.5q-5.5 0-9 3.5T200 14v12H100V13q0-5-3.5-8.5t-9-3.5q-5.5 0-9 3.5T75 14v12H63q-17 0-31.5 8.5t-23 23Q0 72 0 89v149q0 17 8.5 31.5t23 23Q46 301 63 301h62q5 0 9-3.5t4-9q0-5.5-4-9t-9-3.5H63q-16 0-27-11t-11-27V126h250q0 5 3.5 8.5t9 3.5q5.5 0 9-3.5t3.5-8.5V88q0-16-8.5-30.5t-23-23Q254 26 238 26zM25 101V88q0-15 11-26t27-11h175q15 0 26 11t11 26v13H25z"/></svg>