<svg viewBox="0 0 300 302.0011" xmlns="http://www.w3.org/2000/svg"><path d="M200 113q0 6-3.5 9.5T188 126h-25v75q0 5-4 9t-9 4q-5 0-9-4t-4-9v-75h-24q-6 0-9.5-3.5t-3.5-9q0-5.5 3.5-9t9.5-3.5h75q5 0 8.5 3.5t3.5 8.5zm100 144q0 18-13 31t-31 13q-13 0-23.5-7T217 276H83q-5 11-15.5 18T44 301q-18 0-31-13T0 257q0-13 7-23.5T25 218V84Q14 79 7 68.5T0 45q0-18 13-31T44 1q13 0 23.5 7T83 26h134q5-11 15.5-18T256 1q18 0 31 13t13 31q0 13-7 23.5T275 84v134q11 5 18 15.5t7 23.5zm-50-43V88q-14-2-24.5-12.5T213 51H87q-2 14-12.5 24.5T50 88v126q14 2 24.5 12.5T87 251h126q2-14 12.5-24.5T250 214zM238 45q-1 8 4.5 13t13.5 5q8 0 13.5-5t5.5-13q0-8-5.5-13.5T256 26q-8 0-13 5.5T238 45zM25 45q0 8 5.5 13T44 63q8 0 13.5-5t5-13Q62 37 57 31.5T44 26q-8 0-13.5 5.5T25 45zm38 212q0-8-5.5-13.5T44 238q-8 0-13.5 5.5T25 257q0 8 5.5 13.5T44 276q8 0 13.5-5.5T63 257zm212 0q0-8-5.5-13.5t-13.5-5q-8 .5-13.5 5.5t-5 13q.5 8 5.5 13.5t13 5.5q8 0 13.5-5.5T275 257z"/></svg>