<svg viewBox="0 0 300 302.0011" xmlns="http://www.w3.org/2000/svg"><path d="M100 176v50q0 8-5 11-2 1-7 1-16 0-27-10.5T50 201q0-16 11-27t27-11q5 0 7 2 5 3 5 11zM300 63v175q0 17-8.5 31.5t-23 23Q254 301 238 301h-50q-17 0-31.5-8.5t-23-23Q125 255 125 238V63q0-16 8.5-30.5t23-23Q171 1 188 1h50q16 0 30.5 8.5t23 23Q300 47 300 64v-1zm-25 0q0-15-11-26t-27-11h-49q-16 0-27 11t-11 27v174q0 16 11 27t26 11h51q15 0 26-11t11-27V63zM113 13q0-5-4-8.5T100 1H63Q46 1 31.5 9.5t-23 23Q0 47 0 64v174q0 17 8.5 31.5t23 23Q46 301 63 301h37q5 0 9-3.5t4-9q0-5.5-4-9t-9-3.5H63q-16 0-27-11t-11-27V63q0-15 11-26t27-11h37q5 0 9-3.5t4-9.5zm100 150q-16 0-27 11t-11 27q0 16 11 27t26.5 11q15.5 0 26.5-11t11-27q0-16-11-27t-26-11zm0-50q10 0 17.5-7t7.5-17.5q0-10.5-7.5-18t-18-7.5Q202 63 195 70.5t-7 18q0 10.5 7 17.5t18 7zM100 73q0-3-2-5.5T93 64q-7-1-13.5 1T68 73.5q-5 6.5-5 15t5 15q5 6.5 11.5 8.5t13.5 1q3-1 5-3.5t2-5.5V73z"/></svg>