<svg viewBox="0 0 300 302.0011" xmlns="http://www.w3.org/2000/svg"><path d="M288 38q0-15-11-26T250 1H50Q34 1 23.5 12T13 39q0 12 6.5 21.5T38 74v164q0 17 8 31.5t22.5 23Q83 301 100 301h100q17 0 31.5-8.5t23-23Q263 255 262 238V74q12-4 18.5-13.5T287 38h1zm-88 238H100q-16 0-27-11t-11-27V76h176v162q0 16-11 27t-27 11zm50-225H50q-5 0-8.5-3.5t-3.5-9q0-5.5 3.5-9T50 26h200q5 0 9 3.5t4 9q0 5.5-4 9t-9 3.5zm-50 125q0 5-3.5 9t-9.5 4h-24v24q0 6-4 9.5t-9 3.5q-5 0-8.5-3.5T138 213v-25h-25q-6 1-9.5-3t-3.5-9q0-5 3.5-9t8.5-4h26v-25q0-5 3.5-8.5t8.5-3.5q5 0 8.5 3.5t3.5 8.5v25h26q5 0 8.5 4t3.5 9z"/></svg>