<svg viewBox="0 0 300 302.0011" xmlns="http://www.w3.org/2000/svg"><path d="M169 157q0 8-5.5 13.5T150 176q-8 0-13.5-5.5T131 157q0-8 5.5-13.5T150 138q8 0 13.5 5.5T169 157zm121 83q-5 9-16 12-42 11-70 11h-13q-6 13-21 29-8 9-20 9t-20-9q-15-16-21-29-32 3-83-11-11-3-16.5-12.5T7 219q14-44 30-69-12-12-23-39-4-11 1-21.5T32 75q35-10 52-4 13-27 47-62 8-8 19-8t19 8q34 35 47 62 17-6 52 4 12 4 17 14.5t1 21.5q-11 27-23 39 16 25 30 69 3 11-3 21zM224 95v4q0 10-3 21 11 2 20 7l6 4q7-9 15-29 1-1 .5-1.5L261 99q-15-4-25-5-9-1-12 1zm-186 7q8 20 15 29l6-4q9-5 20-7-3-11-3-21v-4q-3-2-12-1-10 1-25 5l-1.5 1.5q-.5.5.5 1.5zm113 173q11-11 16-20-10-5-17-13-7 8-17 13 6 9 16 20 1 2 2 0zm118-49q-9-30-20-51t-20-26q-12-7-26-6-7 0-11-6.5t0-12.5q7-12 7-25 0-11-13-30.5T151 26h-2q-22 23-35 42.5T101 99q0 13 7 25 4 6 0 12.5T97 143q-14 0-26 6-9 5-20 26t-20 51l1 2q31 8 54.5 10t32.5-3q13-7 20-21 4-6 11-6t11 6q7 13 20 21 9 5 32.5 3t54.5-10l1-2z"/></svg>