<svg viewBox="0 0 300 302.0011" xmlns="http://www.w3.org/2000/svg"><path d="M237 301H63q-10 0-18.5-4.5t-14-13q-5.5-8.5-5.5-18t4-18.5l34-68q6-13 18-20.5t27-7.5h84q15 0 27 7.5t18 20.5l34 68q4 9 4 18.5t-5.5 18q-5.5 8.5-14 13T237 301zM108 176q-7 0-13 3.5T85 190l-34 68q-3 6 1 12t11 6h174q7 0 11-6t1-12l-34-68q-4-7-10-10.5t-13-3.5h-84zm167-25V63q0-16-8.5-30.5t-23-23Q229 1 212 1H88Q71 1 56.5 9.5t-23 23Q25 47 25 64v87q0 5 3.5 8.5t9 3.5q5.5 0 9-3.5T50 151V63q0-15 11-26t27-11h125q15 0 26 11t11 27v87q0 5 3.5 8.5t9 3.5q5.5 0 9-3.5t3.5-8.5z"/></svg>