<svg viewBox="0 0 300 302.0011" xmlns="http://www.w3.org/2000/svg"><path d="M100 151q20 0 37.5-10t27.5-27.5Q175 96 175 76t-10-37.5Q155 21 137.5 11T100 1Q80 1 62.5 11T35 38.5Q25 56 25 76t10 37.5Q45 131 62.5 141t37.5 10zm0-125q21 0 35.5 14.5T150 76q0 21-14.5 35.5T100 126q-21 0-35.5-14.5T50 76q0-21 14.5-35.5T100 26zm25 162q0 6-3.5 9.5T113 201q-24 0-44 12t-32 32q-12 20-12 43 0 6-3.5 9.5t-9 3.5q-5.5 0-9-3.5T0 288q0-30 15-56t41-41q26-15 57-15 5 0 8.5 3.5t3.5 8.5zm171 35l-30 24 12 37q1 4 0 8t-4 6q-3 2-7 2.5t-7-1.5l-35-23-34 23q-3 2-7 2t-7-2.5q-3-2.5-4.5-6t-.5-7.5l12-38-30-24q-3-3-4-6.5t.5-7.5q1.5-4 5-6t7.5-2h37l13-37q2-4 5-6.5t7-2.5q4 0 7 2.5t5 6.5l13 37h38q3 0 6.5 2t5 6q1.5 4 .5 7.5t-4 6.5z"/></svg>