<svg viewBox="0 0 300 302.0011" xmlns="http://www.w3.org/2000/svg"><path d="M212 263q-13 0-29-3-9-1-26.5-6t-25.5-7q-13-2-25-2-27 0-42 4-12 3-23.5 1t-21-9Q10 234 5 223.5T0 201v-94q0-20 11-36t29-23q26-10 48-9 13-1 29 3 9 1 27 6 17 5 25 7 13 2 25 2 27 0 42-4 12-3 23.5-1t21 9q9.5 7 14.5 17.5t5 22.5v94q0 20-11 36t-29 23q-26 9-48 9zm-106-43q14 0 29 3 10 2 27 6.5t25 6.5q14 2 25 2 18 0 39-8 11-4 17.5-13.5T275 195v-94q0-13-10-20t-22-4q-18 5-49 5-14 0-29-3-10-2-28-7-16-4-25-6-13-3-25-2-17-1-38 7-11 5-17.5 14.5T25 107v94q0 13 10 20t22 4q18-5 49-5zm69-32v-75q0-3-2-6.5t-5.5-5q-3.5-1.5-7.5-.5t-6 4l-25 25q-4 3-4 8.5t3.5 9q3.5 3.5 9 3.5t8.5-4l4-3v44q0 6 3.5 9.5t9 3.5q5.5 0 9-3.5t3.5-8.5v-1zM63 88q-6 0-9.5 4t-3.5 9q0 5 3.5 8.5t9 3.5q5.5 0 9-3.5T75 101q0-5-3.5-8.5T63 89v-1zm162 38q0 5 3.5 8.5t9 3.5q5.5 0 9-3.5t3.5-8.5q0-5-3.5-9t-9-4q-5.5 0-9 4t-3.5 9zM63 163q-6 0-9.5 4t-3.5 9q0 5 3.5 8.5t9 4q5.5.5 9-3.5t3.5-9q0-5-3.5-9t-8.5-4zm162 38q0 5 3.5 8.5t9 3.5q5.5 0 9-3.5t3.5-8.5q0-5-3.5-8.5t-9-4q-5.5-.5-9 3.5t-3.5 9z"/></svg>