<svg viewBox="0 0 300 302.0011" xmlns="http://www.w3.org/2000/svg"><path d="M273 71l-88-59Q169 1 150 1t-35 11L28 71Q15 79 7.5 93T0 123v115q0 17 8.5 31.5t23 23Q46 301 62 301h176q16 0 30.5-8.5t23-23Q300 255 300 239V123q0-16-7.5-30T272 71h1zm-48 205H75V163q0-10 7.5-17t17.5-7h100q10-1 17.5 6.5T225 164v112zm50-38q0 12-7 22t-18 14V163q0-20-14.5-35T200 113H100q-21 0-35.5 15T50 164v110q-11-4-18-14t-7-21V123q0-10 4.5-18T42 91l87-59q10-6 21-6t21 6l87 59q8 6 12.5 14t4.5 18v115zm-100 0q0 6-3.5 9.5T163 251h-25q-6 0-9.5-3.5t-3.5-9q0-5.5 3.5-9t9.5-3.5h25q5 0 8.5 3.5t3.5 9.5v-1z"/></svg>