<svg viewBox="0 0 301.0054 302.0011" xmlns="http://www.w3.org/2000/svg"><path d="M294 144q-2-5-7-10v-7q-1-7 3-14 9-17 11-35 2-31-21-56-25-23-56-21-18 2-35 11-7 4-14 3h-7q-5-5-10-8-27-12-51-1-15 6-26 18-4 4-10 6-10 2-22 5l-3 1q-18 7-27 24-7 12-5 26 1 8-4 14l-4 7q-5 9-5 20t4 21q1 4 1 8-6 24-6 96 0 20 15 35t35 15h11q63 0 86-6 3 0 7 1 10 4 21 4t20-5l7-4q6-5 14-4 14 2 26-5 17-8 24-27l1-3q3-12 5-22 2-6 6-10 12-11 18-26 10-25-2-51zM201 34q13-7 25-8 20-1 35.5 14T276 75q-1 13-8.5 26t-5.5 29q1 11 1 25v4q0 12-8 21-6 6-14 7-20 5-32 21l-3 3q-10 11-26 10-12-2-24 6-22 13-88 25l76-76h57q5 0 8.5-3.5t3.5-9q0-5.5-3.5-9T201 151h-32l41-41q3-4 3-9t-3.5-9q-3.5-4-8.5-4t-9 4l-41 41v-32q0-5-3.5-9t-9-4q-5.5 0-9 4t-3.5 9v57l-76 76q12-66 25-88 8-12 6-24-1-16 10-26l3-3q16-12 20-32 2-8 8-14 9-8 21-8h4q14 0 25 1 15 2 29-6zM29 118q0-1 1-3 11-14 9-32-1-6 2-12 4-8 13-11l3-1q10-3 19-5t17-7q-2 5-3 9-2 10-11 17-3 2-6 5-9 9-13.5 21T56 124q1 5-2 9-16 27-29 99 1-53 5-71 3-11-1.5-22t.5-21zm214 127l-1 3q-3 9-11 13-6 3-12 2-18-1-32 9l-3 1q-10 5-21 .5t-22-1.5q-18 4-71 5 72-13 99-29 4-3 9-2 13 1 25-3.5t21-13.5q3-3 5-6 7-9 17-11 4-1 9-3-5 8-7 16.5t-5 19.5z"/></svg>