<svg viewBox="0 0 300 302.0011" xmlns="http://www.w3.org/2000/svg"><path d="M150 301q-21 0-35.5-14.5T100 251v-75H75q-21 0-35.5-14.5T25 126q0-21 14.5-35.5T75 76h25V51q0-21 14.5-35.5T150 1q21 0 35.5 14.5T200 51v25h25q21 0 35.5 14.5T275 126q0 21-14.5 35.5T225 176h-25v75q0 21-14.5 35.5T150 301zM75 101q-10 0-17.5 7.5T50 126q0 10 7.5 17.5T75 151h38q5 0 8.5 3.5t3.5 8.5v88q0 10 7.5 17.5T150 276q10 0 17.5-7.5T175 251v-88q0-5 3.5-8.5t9.5-3.5h37q10 0 17.5-7.5T250 126q0-10-7.5-17.5T225 101h-37q-6 0-9.5-3.5T175 89V51q0-10-7.5-17.5T150 26q-10 0-17.5 7.5T125 51v37q0 6-3.5 9.5T113 101H75z"/></svg>