<svg viewBox="0 0 300 302.0011" xmlns="http://www.w3.org/2000/svg"><path d="M250 63h-75V51q0-21-14.5-35.5T125 1H50Q29 1 14.5 15.5T0 51v200q0 21 14.5 35.5T50 301h200q21 0 35.5-14.5T300 251V113q0-20-14.5-35T250 63zM25 251V51q0-10 7.5-17.5T50 26h75q10 0 17.5 7.5T150 51v225H50q-10 0-17.5-7.5T25 251zm250 0q0 10-7.5 17.5T250 276h-75v-38h13q5 1 8.5-3t3.5-9q0-5-3.5-9t-8.5-4h-13V88h75q10 0 17.5 7.5T275 113v138zM75 176q0 5-3.5 8.5T62 188H50q-5 0-8.5-3.5T38 176q0-5 3.5-8.5T50 163h13q5 0 8.5 4t3.5 9zm63 0q0 5-4 8.5t-9 3.5h-12q-6 0-9.5-3.5T100 176q0-5 3.5-9t9.5-4h12q5 0 9 4t4 9zm-63 50q0 5-3.5 8.5T62 238H50q-5 0-8.5-3.5T38 226q0-5 3.5-9t8.5-4h13q5 1 8.5 4.5T75 226zm63 0q0 5-4 8.5t-9 3.5h-12q-6 0-9.5-3.5T100 226q0-5 3.5-9t9.5-4h12q5 1 9 4.5t4 8.5zm125 0q0 5-4 8.5t-9 3.5h-12q-6 0-9.5-3.5T225 226q0-5 3.5-9t9.5-4h12q5 0 9 4t4 9zM100 113q0 6-3.5 9.5t-9 3.5q-5.5 0-9-3.5T75 113v-12H63q-6 0-9.5-3.5t-3.5-9q0-5.5 3.5-9T63 76h12V63q0-5 3.5-8.5t9-3.5q5.5 0 9 3.5T100 63v13h13q5 0 8.5 3.5t3.5 9q0 5.5-3.5 9T112 101h-12v12zm75 38q0-5 3.5-8.5t8.5-3.5h13v-13q0-5 3.5-9t9-4q5.5 0 9 4t3.5 9v12h13q5 0 8.5 4t3.5 9q0 5-3.5 8.5T238 163h-13v13q0 5-3.5 8.5t-9 3.5q-5.5 0-9-3.5T200 176v-13h-12q-6 0-9.5-3.5T175 151z"/></svg>