<svg viewBox="0 0 300 302.0011" xmlns="http://www.w3.org/2000/svg"><path d="M38 301q-6 0-9.5-3.5T25 289V74Q12 69 5.5 57.5T1 32.5Q3 19 13.5 10t23-9Q49 1 59 8t13.5 18.5Q76 38 73 49T61 68l209 42q13 2 21.5 12.5T300 147v21q0 13-8.5 23.5T270 205L50 249v39q0 6-3.5 9.5T37 301h1zM50 91v132l25-5V96l-25-5zm50 10v112l25-5V106l-25-5zm50 10v92l25-5v-82l-25-5zm50 10v72l25-5v-62l-25-5zm50 10v52l15-3q4-1 7-4.5t3-7.5v-22q0-4-3-7.5t-7-4.5l-15-3zM38 26q-6 0-9.5 3.5t-3.5 9q0 5.5 3.5 9t9 3.5q5.5 0 9-3.5t3.5-9q0-5.5-3.5-9T37 26h1z"/></svg>