<svg viewBox="0 0 300 302.0011" xmlns="http://www.w3.org/2000/svg"><path d="M213 1h-25q-6 0-9.5 3.5T175 14v49q0 6 3.5 9.5T187 76h51q5 0 8.5-3.5T250 63V38q0-15-11-26T213 1zm12 50h-25V26h13q5 0 8.5 3.5T225 38v13zm13 62h-50q-6 1-9.5 4.5T175 126v50q0 5 3.5 8.5t8.5 3.5h51q5 1 8.5-3t3.5-9v-50q0-5-3.5-9t-8.5-3v-1zm-13 50h-25v-25h25v25zm13 63h-50q-6 0-9.5 3.5T175 238v50q0 6 3.5 9.5t8.5 3.5h26q15 0 26-11t11-27v-25q0-5-3.5-8.5T238 226zm-13 37q0 6-3.5 9.5T212 276h-12v-25h25v12zM113 1H88Q72 1 61 12T50 39v24q0 6 3.5 9.5T63 76h50q5 0 8.5-3.5T125 63V13q0-5-3.5-8.5T112 1h1zm-13 50H75V38q0-5 3.5-8.5T87 26h13v25zm13 62H63q-6 0-9.5 4t-3.5 9v50q0 5 3.5 8.5T63 188h50q5 1 8.5-3t3.5-9v-50q0-5-3.5-8.5T112 114l1-1zm-13 50H75v-25h25v25zm13 63H63q-6 0-9.5 3.5T50 238v25q0 16 11 27t27 11h25q5 0 8.5-3.5t3.5-9.5v-50q0-5-3.5-8.5T112 226h1zm-13 50H88q-6 0-9.5-3.5T75 264v-13h25v25z"/></svg>