<svg viewBox="0 0 300 302.0011" xmlns="http://www.w3.org/2000/svg"><path d="M50 76q-16 0-27-11L4 48q-4-4-4-9t3.5-9Q7 26 12 26t9 3l20 18q3 4 8.5 4t9.5-4l45-43q4-3 9-2.5t8.5 4Q125 9 125 14t-4 9L76 65Q65 76 50 76zm250-25q0-5-3.5-9t-8.5-4H163q-6 0-9.5 4t-3.5 9q0 5 3.5 9t8.5 4h126q5-1 8.5-4.5T300 51zM76 165l45-42q6-5 4-12.5t-9-9.5q-7-2-12 3l-45 43q-4 4-9 4t-9-4l-20-19q-3-4-8.5-4t-9 3.5Q0 131 0 136.5t4 8.5l19 20q11 11 26.5 11T76 165zm224-14q0-5-3.5-9t-8.5-4H163q-6 0-9.5 4t-3.5 9q0 5 3.5 9t8.5 4h126q5 0 8.5-4t3.5-9zM76 265l45-42q6-5 4-12.5t-9-9.5q-7-2-12 3l-45 43q-4 4-9.5 4t-8.5-4l-20-18q-4-3-9-3t-8.5 4Q0 234 0 239t4 9l19 17q11 11 26.5 11T76 265zm224-14q0-5-3.5-8.5T288 239H163q-6-1-9.5 3t-3.5 9q0 5 3.5 8.5t8.5 3.5h126q5 0 8.5-3.5t3.5-8.5z"/></svg>