<svg viewBox="0 0 300 302.0011" xmlns="http://www.w3.org/2000/svg"><path d="M263 301q-22 0-38-15-16 15-37.5 15T150 286q-16 15-37.5 15T75 286q-15 14-35 14.5T4 288q-4-3-4-8.5t3.5-9q3.5-3.5 8.5-4t9 3.5q10 8 23.5 5T63 259q1-3 4.5-5.5T75 251q4 0 7.5 2.5T87 259q3 8 10 12.5t15.5 4.5q8.5 0 15.5-4.5t10-12.5q2-3 5-5.5t7-2.5q4 0 7 2.5t5 5.5q3 8 10 12.5t15.5 4.5q8.5 0 15.5-4.5t10-12.5q2-3 5-5.5t7-2.5q4 0 7 2.5t5 5.5q5 13 18.5 16t23.5-5q6-5 12.5-3t8 9q1.5 7-3.5 12-14 13-33 13zm0-63q-22 0-38-15-16 15-37.5 15T150 223q-16 15-37.5 15T75 223q-15 15-35 15.5T4 226q-5-5-3.5-12t8-9.5Q15 202 21 207q10 9 23.5 5.5T63 197q2-4 5-6t7-2q4 0 7 2t5 6q3 7 10 11.5t15.5 4.5q8.5 0 15.5-4.5t10-11.5q2-4 5-6t7-2q4 0 7 2t5 6q3 7 10 11.5t15.5 4.5q8.5 0 15.5-4.5t10-11.5q1-4 4.5-6.5t7.5-2.5q4 0 7.5 2.5t4.5 6.5q5 12 18.5 15.5T279 207q6-5 12.5-2.5t8 9.5q1.5 7-3.5 12-14 12-33 13v-1zM196 42L159 5q-4-4-9-4t-9 4l-37 37q-4 4-4 9t3.5 9q3.5 4 9 4t8.5-4l17-16v94q0 6 3.5 9.5t8.5 3.5q5 0 9-3.5t4-8.5V44l16 16q3 3 8.5 3t9-3.5Q200 56 200 51t-4-9z"/></svg>