<svg viewBox="0 0 300 302.0011" xmlns="http://www.w3.org/2000/svg"><path d="M238 1H63Q46 1 31.5 9.5t-23 23Q0 47 0 64v174q0 17 8.5 31.5t23 23Q46 301 63 301h175q16 0 30.5-8.5t23-23Q300 255 300 238V63q0-16-8.5-30.5t-23-23Q254 1 238 1zm37 237q0 16-11 27t-27 11H63q-16 0-27-11t-11-27V63q0-15 11-26t27-11h175q15 0 26 11t11 27v174zm-175-87q0 8-5.5 13.5T81 170q-8 0-13-5.5T63 151q0-8 5-13.5t13-5.5q8 0 13.5 5.5T100 151zm138 0q0 8-5.5 13.5T219 170q-8 0-13.5-5.5T200 151q0-8 5.5-13.5T219 132q8 0 13.5 5.5T238 151zm-69 0q0 8-5.5 13.5T150 170q-8 0-13.5-5.5T131 151q0-8 5.5-13.5T150 132q8 0 13.5 5.5T169 151z"/></svg>