<svg viewBox="0 0 300 302.0011" xmlns="http://www.w3.org/2000/svg"><path d="M63 53V13q-1-5-4.5-8.5T50 1q-5 0-8.5 3.5T38 13v40q-14 4-23 15.5t-9 26Q6 109 15 121t23 16v151q0 6 3.5 9.5T50 301q5 0 9-3.5t3-9.5V137q14-4 23-16t9-26.5q0-14.5-9-26T63 53zm-13 60q-8 0-13.5-5T31 95q0-8 5.5-13.5T50 76q8 0 13.5 5.5T69 95q0 8-5.5 13T50 113zm113 52V13q-1-5-4.5-8.5T150 1q-5 0-9 3.5t-4 8.5v152q-13 4-22 16t-9 26.5q0 14.5 9 26t22 15.5v39q0 6 4 9.5t9 3.5q5 0 9-3.5t4-9.5v-39q13-4 22-15.5t9-26q0-14.5-9-26.5t-22-16zm-13 61q-8 0-13.5-5.5T131 207q0-8 5.5-13.5T150 188q8 0 13.5 5.5T169 207q0 8-5.5 13.5T150 226zM294 95q0-15-9-26.5T262 53V13q1-5-3-8.5T250 1q-5 0-9 3.5t-3 8.5v40q-14 4-23 15.5t-9 26q0 14.5 9 26.5t22 16v151q0 6 4 9.5t9 3.5q5 0 9-3.5t4-9.5V137q13-4 22-16t9-26zm-44 18q-8 0-13.5-5T231 95q0-8 5.5-13.5T250 76q8 0 13.5 5.5T269 95q0 8-5.5 13t-13.5 5z"/></svg>