<svg viewBox="0 0 300 302.0011" xmlns="http://www.w3.org/2000/svg"><path d="M238 301H63q-17 0-31.5-8.5t-23-23Q0 255 0 238V63q0-16 8.5-30.5t23-23Q46 1 63 1h175q16 0 30.5 8.5t23 23Q300 47 300 63v175q0 17-8.5 31.5t-23 23Q254 301 238 301zM63 26q-16 0-27 11T25 63v175q0 16 11 27t27 11h175q15 0 26-11t11-27V63q0-15-11-26t-26-11H63zm87 198q-10 0-17-6-25-19-39-38-19-24-19-44t13-34q13-14 31-14t31 15q13-15 31-15t31 14q13 14 13 34t-19 44q-14 19-38 38-8 6-18 6zm-31-111q-8 0-13.5 6.5T100 135q0 12 13 29t35 34q2 2 4 0 22-18 35-34.5t13-28.5q0-9-5.5-15.5T181 113q-8 0-13 6.5t-5 15.5q0 6-4 9.5t-9 3.5q-5 0-8.5-3.5T138 135q0-9-5.5-15.5T119 113z"/></svg>