<svg viewBox="0 0 300 302.0011" xmlns="http://www.w3.org/2000/svg"><path d="M290 26h-17q2-6 2-12t-3.5-9.5Q268 1 262.5 1t-9 3.5q-3.5 3.5-3.5 9t-3 9q-3 3.5-7 3.5h-55q-4 0-7-3.5t-3-9q0-5.5-3.5-9t-9-3.5q-5.5 0-9 3.5T150 14q0 6 2 12h-17q-5 0-8 4t-1 9q3 9 11 15.5t18 8.5l5 25H87q-13 0-25.5 6T41 110L4 142q-4 3-4 8t3.5 9q3.5 4 8.5 4t9-3l4-3v106q0 16 11 27t27 11q10 0 18.5-5T95 282q19-3 33.5-15t19.5-29h27v25q0 16 11 27t26.5 11q15.5 0 26.5-11t11-27v-50q0-5-3.5-8.5t-9-3.5q-5.5 0-9 3.5T225 213v50q0 6-3.5 9.5t-9 3.5q-5.5 0-9-3.5T200 264v-38q0-5-3.5-9t-8.5-4H88q-6 1-9.5 4.5T75 226v37q0 6-3.5 9.5t-9 3.5q-5.5 0-9-3.5T50 264V151q0-6 2-12 12 12 29 12t29-10.5q12-10.5 15-27.5h40l4 21q-6 8-6 17.5t7 17q7 7.5 18 7.5h50q10 0 17.5-7.5t7.5-17q0-9.5-7-17.5l14-71q10-2 18-8.5T299 39q2-5-1-9t-8-4zM185 51h55q4 0 7-1l-15 76h-39l-15-76q3 1 7 1z"/></svg>