<svg viewBox="0 0 300 302.0011" xmlns="http://www.w3.org/2000/svg"><path d="M38 213q5 0 8.5-3.5T50 201q0-5 3.5-9t8.5-4h76v13q0 5 3.5 9t8.5 4q5 0 9-4t4-9v-13h75q5 0 8.5 4t3.5 9q0 5 3.5 8.5t9 3.5q5.5 0 9-3.5t3.5-8.5q0-16-11-26.5T237 163h-74v-13q20-4 34-20l12 7q3 2 6 1 7 0 10-5t2-10q-1-5-6-8l-12-7q4-9 4-19.5T209 69l12-7q5-3 6-8t-1.5-9.5Q223 40 218 39t-9 1l-12 7q-14-16-35-20V14q1-6-3-9.5T150 1q-5 0-9 3.5t-4 9.5v13q-20 4-34 20l-12-7q-4-2-9-1t-7.5 5.5Q72 49 73 54t6 8l12 7q-3 9-3 19.5t3 19.5l-12 7q-5 3-6 8t2 10q3 5 10 5 3 0 6-1l12-7q14 16 34 20v13H63q-16 0-27 11t-11 27q0 5 3.5 9t8.5 4l1-1zm75-125q0-15 10.5-26T150 51q16 0 26.5 11t11 26.5Q188 104 177 115t-27 11q-16 0-26.5-11T113 89v-1zm50 138h-25q-11 0-18.5 7.5T112 251v25q0 10 7.5 17.5T138 301h25q10 0 17.5-7.5T188 276v-25q0-10-7.5-17.5T163 226zm0 50h-25v-25h25v25zm112-50h-25q-10 0-17.5 7.5T225 251v25q0 10 7.5 17.5T250 301h25q10 0 17.5-7.5T300 276v-25q0-10-7.5-17.5T275 226zm0 50h-25v-25h25v25zM50 226H25q-10 0-17.5 7.5T0 251v25q0 10 7.5 17.5T25 301h25q10 0 17.5-7.5T75 276v-25q0-10-7.5-17.5T50 226zm0 50H25v-25h25v25z"/></svg>