<svg viewBox="0 0 300 302.0011" xmlns="http://www.w3.org/2000/svg"><path d="M257 153q7-33 4-50-6-25-36-27H38Q21 76 9.5 88T0 117q8 71 39 135 11 22 32.5 35.5T118 301h27q21 0 40-10t31-28h22q22 1 39-13.5t21.5-36Q303 192 294 176q-11-19-37-23zm-153 12l9-9 3 4q5 4 7 7t2 7v21q0 2-2 4t-4 2h-5q-7 0-10.5-1t-3.5-5v-8-13q1-7 4-9zm41 111h-27q-18 0-33-9.5T62 241q-30-60-37-127-1-5 3-9t9-4h63v32l-3 3q-11 11-15 17-8 11-7 21v21q0 13 9 22t22 9h13q13 0 22-9t9-22v-21q1-10-7-21-4-6-15-17l-3-3v-32h100q6 0 9.5 4t3.5 9q-8 67-37 127-8 16-23 25.5t-33 9.5zm93-38h-9q14-29 22-61 16 3 21 11 3 5 3 13 0 16-11 27t-27 10h1zM113 38V13q0-5 3.5-8.5t9-3.5q5.5 0 9 3.5T138 14v24q0 6-3.5 9.5t-9 3.5q-5.5 0-9-3.5T113 38zm50 0V13q0-5 3.5-8.5t9-3.5q5.5 0 9 3.5T188 13v25q0 6-3.5 9.5t-9 3.5q-5.5 0-9-3.5T163 39v-1zM63 38V13q0-5 3.5-8.5t9-3.5q5.5 0 9 3.5T88 13v25q0 6-3.5 9.5t-9 3.5q-5.5 0-9-3.5T63 39v-1z"/></svg>