<svg viewBox="0 0 300 302.0011" xmlns="http://www.w3.org/2000/svg"><path d="M287 42q2-17-9.5-29T250 1H50Q34 1 22.5 13T13 42l16 202q2 24 20 40.5T92 301h115q25 0 42.5-16.5T270 244l17-202zM41 30q4-4 9-4h200q5 0 9 4t3 10l-12 147q-4 6-11 10t-14.5 4q-7.5 0-15-5T199 184q-1-3-4.5-5.5t-7-2.5q-3.5 0-7 2.5T176 184q-3 7-10.5 12t-15.5 5q-8 0-15.5-5T124 184q-1-3-4.5-5.5t-7-2.5q-3.5 0-7 2.5T101 184q-3 7-10.5 12T75 201q-8 0-15.5-4.5T49 185L38 40q-1-6 3-10zm166 246H92q-15 0-26-10t-12-24l-2-21q12 5 22.5 5t20.5-4q10-4 18-11 7 7 17 11t20 4q10 0 20-4t18-11q7 7 17 11t20.5 4q10.5 0 20.5-5l-1 21q-2 14-12.5 24T207 276zm-57-125q18 0 31-13t13-31.5Q194 88 170 60q-7-8-20-8t-20 8q-24 28-24 46.5t13 31.5q13 13 31 13zm-1-74q0-1 1-1t1 1q11 12 15 21 3 6 3 9 0 8-5.5 13.5T150 126q-8 0-13.5-5.5T131 107q0-3 3-9 4-9 15-21z"/></svg>