<svg viewBox="0 0 300 302.0011" xmlns="http://www.w3.org/2000/svg"><path d="M256 188q-18 0-30.5 13T213 232q0 18 12.5 31t30.5 13q18 0 31-13t13-31q0-18-13-31t-31-13zm32-25q5 0 8.5-3.5t3.5-8.5q0-5-3.5-9t-8.5-3h-42l-21-54q6 3 12 3t9.5-3.5Q250 81 250 76V51q0-5-3.5-9t-8.5-4q-9 0-15.5 5T214 56q-6-14-18.5-22T168 26h-5q-6 0-9.5 3.5t-3.5 9q0 5.5 3.5 9T163 51h5q8 0 14.5 4.5T191 67l31 79q-18 7-31 22l-21 24q-7 9-19 9h-3l-27-69q-6-14-18.5-22.5T75 101H50q-21 0-35.5 14.5T0 151v25q0 14 7.5 26T27 220q-2 6-2 12 0 18 13 31t31 13q18 0 31-13t13-31l-1-6h39q11 0 21-4.5t18-13.5l20-24q9-10 21-15t25-5h32v-1zM50 201q-10 0-17.5-7.5T25 176v-25q0-10 7.5-17.5T50 126h25q7 0 13.5 4.5T98 142l24 59H50z"/></svg>