<svg viewBox="0 0 300 302.0011" xmlns="http://www.w3.org/2000/svg"><path d="M288 251H185q-3-8-9-14t-13-9v-52h75q11 0 20.5-6.5t14-17.5q4.5-11 1.5-22.5T263 111V51q0-21-15-35.5T212 1H88Q67 1 52.5 15.5T37 51v60q-8 7-11 18.5t1.5 22.5q4.5 11 14 17.5T62 176h76v52q-8 3-14 9t-9 14H13q-6 0-9.5 3.5t-3.5 9q0 5.5 3.5 9T12 276h103q4 11 13.5 18t21.5 7q12 0 21.5-7t13.5-18h103q5 0 8.5-3.5t3.5-9q0-5.5-3.5-9T288 251zM63 51q0-10 7-17.5T87 26h126q10 0 17 7.5t7 17.5v50h-44q-11 0-18 7l-5 5h-40l-5-5q-7-7-18-7H63V51zm-13 87q0-5 3.5-8.5T62 126h45l6 5q7 8 17 7h40q10 1 18-7l5-5h45q5 0 8.5 3.5t3.5 9q0 5.5-3.5 9T238 151H63q-6 0-9.5-3.5T50 139v-1zm100 138q-5 0-9-3.5t-3.5-9q.5-5.5 4-9t8.5-3.5q5 0 9 3.5t4 9q0 5.5-4 9t-9 3.5z"/></svg>