<svg viewBox="0 0 300 302.0011" xmlns="http://www.w3.org/2000/svg"><path d="M288 51h-25q0-5-4-9t-9-4q-5 0-8.5 4t-3.5 9h-25q-6 0-9.5 3.5t-3.5 9q0 5.5 3.5 9T213 76h25v53q-40-28-88-28t-87 28V76h25q5 0 8.5-3.5t3.5-9q0-5.5-3.5-9T88 51H63q0-5-4-9t-9-4q-5 0-9 4t-4 9H13q-6 0-9.5 3.5t-3.5 9q0 5.5 3.5 9T13 76h25v75q0 13 5.5 23.5T58 192l11 7q-19 28-19 52v12q0 6 3.5 9.5t9 3.5q5.5 0 9-3.5T75 263v-12q0-17 16-40 31 15 59 15t59-15q16 23 16 40v12q0 6 3.5 9.5t9 3.5q5.5 0 9-3.5t3.5-9.5v-12q0-24-19-52l11-7q9-7 14.5-17.5T262 151V76h26q5 0 8.5-3.5t3.5-9q0-5.5-3.5-9T287 51h1zm-95 83l-17 17h-52l-17-17q21-8 43-8t43 8zm34 38q-16 11-33 18-23 11-44 11t-44-11q-17-7-33-18-6-5-9-12 9-8 19-15l2 2 25 25q4 4 9 4h62q5 0 9-4l25-25 2-2q10 7 19 15-3 7-9 12z"/></svg>