<svg viewBox="0 0 300 302.0011" xmlns="http://www.w3.org/2000/svg"><path d="M124 272q-6-4-8.5-9.5T113 251v-13q-1-5-4.5-8.5T100 226H50q-12 0-19.5-9T25 197l16-90q3-14 13.5-22.5T78 76h119q12 0 22.5 8t13.5 20q1 5 5.5 7.5t9.5 1.5q5-1 7.5-5.5T257 98q-5-21-21.5-34T198 51q2-6 2-13 0-15-11-26T163 1h-50Q97 1 86 12T75 38q0 7 2 13-22 0-39 14.5T17 103L1 192q-2 11 1 22t10 19.5q7 8.5 17 13t21 4.5h38q-1 13 5 24t17 18q3 2 7 2 6 0 9.5-5t2.5-10q-1-5-5-8zM113 26h50q5 0 8.5 3.5t3.5 9q0 5.5-3.5 9T162 51h-49q-6 0-9.5-3.5t-3.5-9q0-5.5 3.5-9T113 26zm100 100q-24 0-44 12t-32 32q-12 20-12 43.5t12 43.5q12 20 32 32t43.5 12q23.5 0 43.5-12t32-32q12-20 12-43.5T288 170q-12-20-32-32t-43-12zm0 150q-17 0-31.5-8.5t-23-23q-8.5-14.5-8.5-31t8.5-31q8.5-14.5 23-23t31-8.5q16.5 0 31 8.5t23 23q8.5 14.5 8.5 31t-8.5 31q-8.5 14.5-23 23T212 276h1zm37-63q0 6-3.5 9.5T237 226h-12v12q0 6-3.5 9.5t-9 3.5q-5.5 0-9-3.5T200 238v-12h-12q-6 0-9.5-3.5t-3.5-9q0-5.5 3.5-9t9.5-3.5h12v-13q0-5 3.5-8.5t9-3.5q5.5 0 9 3.5t3.5 9.5v12h13q5 0 8.5 3.5t3.5 9.5v-1z"/></svg>