<svg viewBox="0 0 300 302.0011" xmlns="http://www.w3.org/2000/svg"><path d="M225 301H75q-17 0-31.5-8.5t-22.5-23Q13 255 12 238V63q1-16 9-30.5t22.5-23Q58 1 75 1h150q17 0 31.5 8.5t22.5 23q8 14.5 9 30.5v175q-1 17-9 31.5t-22.5 23Q242 301 225 301zM75 26q-16 0-27 11T37 64v174q1 16 11.5 27T75 276h150q16 0 27-11t11-27V63q0-15-11-26t-27-11H75zm125 100H100q-16 0-27-11T62.5 88.5Q63 73 73.5 62T100 51h100q16 0 27 11t10.5 26.5q-.5 15.5-11 26.5T200 126zM100 76q-5 0-8.5 3.5t-3.5 9q0 5.5 3.5 9t8.5 3.5h100q5 0 9-3.5t4-9q0-5.5-4-9t-9-3.5H100zm-25 87q-5 0-8.5 4t-3.5 9q0 5 3.5 8.5t8.5 4q5 .5 8.5-3.5t4-9q.5-5-3.5-9t-9-4zm50 0q-5 0-8.5 4t-4 9q-.5 5 3.5 8.5t9 3.5q5 0 9-3.5t4-8.5q0-5-4-9t-9-4zm50 0q-5 0-9 4t-3.5 9q.5 5 4 8.5t8.5 3.5q5 0 9-3.5t4-8.5q0-5-4-9t-9-4zM75 213q-5 0-8.5 4t-3.5 9q0 5 3.5 8.5T75 238q5 0 8.5-3.5t4-8.5q.5-5-3.5-8.5t-9-3.5v-1zm50 0q-5 0-8.5 4t-4 9q-.5 5 3.5 8.5t9 3.5q5 0 9-3.5t4-8.5q0-5-4-8.5t-9-3.5v-1zm100-50q-5 0-9 4t-3.5 9q.5 5 4 8.5t8.5 3.5q5 0 9-3.5t3.5-8.5q-.5-5-4-9t-8.5-4zm13 63q-1-5-4.5-8.5T225 214h-50q-5-1-9 3t-3.5 9q.5 5 4 8.5t8.5 3.5h50q5 0 9-3.5t4-8.5z"/></svg>