<svg viewBox="0 0 300 302.0011" xmlns="http://www.w3.org/2000/svg"><path d="M288 276h-13q0-14-7-25.5T250 233q18-19 27.5-43.5T287 138q1-37-18-68.5t-50.5-50Q187 1 150 1T81.5 19.5Q50 38 31.5 69.5T13 138q0 27 9.5 51.5T50 233q-11 6-18 17.5T25 276H13q-6 0-9.5 3.5t-3.5 9q0 5.5 3.5 9T13 301h275q5 0 8.5-3.5t3.5-9q0-5.5-3.5-9T288 276zM150 26q31 0 56.5 15t41 41q15.5 26 15.5 57 0 25-11 48t-31 39h-58v-25h20q8 0 11.5-7t-1.5-13l-13-18h4q7 0 10-6t-1-11l-30-41q-5-6-12.5-6t-12.5 6l-30 41q-4 5-1 11.5t10 6.5h3l-13 17q-5 6-1.5 13t11.5 7h21v25H79q-20-16-30.5-39T38 138q0-30 15-56t40.5-41Q119 26 150 26zM75 251h150q10 0 17.5 7.5T250 276H50q0-10 7.5-17.5T75 251zm88-181q0-8 5-13.5t13-5.5q8 0 13.5 5.5T200 70q0 8-5.5 13.5T181 89q-8 0-13.5-5.5T162 70h1zm50 62q-1-8 4.5-13.5t13.5-5q8 .5 13.5 5.5t5.5 13q0 8-5.5 13.5T231 151q-8 0-13.5-5.5T212 132h1zm-132-6q-8 0-13-5.5T63 107q0-8 5-13t13-5q8 0 13.5 5t5.5 13q0 8-5.5 13.5T81 126z"/></svg>