<svg viewBox="0 0 300 302.0011" xmlns="http://www.w3.org/2000/svg"><path d="M259 227l-10-97q-2-23-19-38.5T190 76h-80q-23 0-40 15.5T51 130l-10 97q-18 3-29.5 17T0 276q0 10 7.5 17.5T25 301h250q10 0 17.5-7.5T300 276q0-18-11.5-32T259 227zM76 132q1-13 11-22t23-9h80q13 0 23 9t11 22l10 94H66l10-94zM25 276q0-10 7.5-17.5T50 251h200q10 0 17.5 7.5T275 276H25zM260 79q-4-4-4-9t4-9l19-19q3-4 8.5-4t9 4q3.5 4 3.5 9t-4 9l-18 19q-4 3-9 3t-9-3zm-54-49l11-22q3-5 8-6.5t9.5 1q4.5 2.5 6 7.5t-.5 9l-12 22q-3 7-11 7-3 0-6.5-2t-5.5-6.5q-2-4.5 1-9.5zM4 60q-4-4-4-9t3.5-9q3.5-4 9-4t8.5 4l19 19q4 4 4 9t-4 8.5Q36 82 31 82t-9-3L4 60zm56-41q-2-4-.5-9t6-7.5Q70 0 75 1.5T83 8l11 22q2 5 .5 9.5t-5 6.5Q86 48 83 48q-8 0-11-7L60 19zm38 143l2-25q1-5 4.5-8t8.5-3h24q6 0 9.5 3.5t3.5 9q0 5.5-3.5 9T137 151h-13l-1 14q-1 5-4.5 8t-8.5 3h-1q-5-1-8.5-5t-2.5-9z"/></svg>