<svg viewBox="0 0 300 302.0011" xmlns="http://www.w3.org/2000/svg"><path d="M244 188h-31v-75h31q23 0 39.5-16T300 57.5q0-23.5-16.5-40T243.5 1Q220 1 204 17.5T188 57v31h-75V57q0-23-16.5-39.5T56.5 1Q33 1 16.5 17.5T0 57.5q0 23.5 16.5 40T56 114h32v74H56q-23 0-39.5 16.5T0 244.5q0 23.5 16.5 40t40 16.5Q80 301 96 284.5t16-39.5v-32h76v32q0 23 16 39.5t39.5 16.5q23.5 0 40-16.5t16.5-40q0-23.5-16.5-39.5T244 189v-1zM213 57q-1-13 8.5-22t22.5-9q13 0 22 9t9 22q0 13-9 22t-22 9h-31V57zM56 88q-13 0-22-9t-9-22q0-13 9-22t22-9q13 0 22.5 9T88 57v31H56zm32 157q-1 13-10 22t-22 9q-13 0-22-9t-9-22q0-13 9-22.5t22-9.5h32v32zm25-57v-75h75v75h-75zm131 88q-13 0-22-9t-9-22v-32h31q13 1 22 10t9 22q0 13-9 22t-22 9z"/></svg>