<svg viewBox="0 0 300 302.0011" xmlns="http://www.w3.org/2000/svg"><path d="M181 163q-8 0-13.5-5t-5-13q.5-8 5.5-13.5t13-5.5q8 0 13.5 5.5T200 145q0 8-5.5 13.5T181 163zm118 65q2 13-1.5 26.5t-12.5 24q-9 10.5-21.5 16.5t-26.5 6h-49q-6 0-9.5-3.5T175 289v-29q-12 3-25 3t-25-3v28q0 6-3.5 9.5T113 301H63q-14 0-26.5-6T15 278.5q-9-10.5-12.5-24T1 228l4-22q2-11 9.5-19T33 176.5q11-2.5 21.5 1.5T71 192q13 19 33 32 23 14 46 14 19 0 37.5-9.5t32-25Q233 188 239 171q2-3 5-5.5t7-2.5h6q7 0 12.5-5.5T275 145q0-7-4.5-12t-10.5-7q-4 0-7-3.5t-4-7.5q-2-25-16-45.5t-36-32Q175 26 150 26q-32 0-55 13-18 11-31 31-8 13-18 38l-9 18q39-2 72.5-20.5T165 56q4-6 11-5t10 7.5q3 6.5-1 12.5-24 35-62 56 6 1 10 5.5t4.5 10.5q.5 6-2.5 11t-8 7.5q-5 2.5-11 1.5t-10.5-5q-4.5-4-5.5-10t2-11q-44 18-91 14-4-1-7-3.5T.5 141q-.5-4 1-7.5T6 128q12-13 17-30 12-28 21-42 16-25 38-38 28-17 68-17 30 0 56.5 13.5t44 37Q268 75 273 104q12 6 19.5 17t7.5 24q0 16-11 28l1 1 9 54zm-199 22q-30-16-49-44-4-5-10-5-4 0-7.5 2.5T29 210l-3 22q-2 8 0 16t7.5 14.5q5.5 6.5 13 10T63 276h37v-26zm174-18l-7-45q-4 1-8 1-9 20-24.5 36T200 250v26h38q8 0 15.5-3.5t13-10Q272 256 274 248t0-16z"/></svg>