<svg viewBox="0 0 300 302.0011" xmlns="http://www.w3.org/2000/svg"><path d="M150 301q-28 0-48-19l-49-46q-20-20-30-45t-10-52.5Q13 111 23 86t29.5-44.5Q72 22 97 11.5T150 1q28 0 53 10.5t44.5 30Q267 61 277.5 86t10.5 52.5q0 27.5-10.5 52.5T247 236l-50 46q-9 9-21.5 14t-25.5 5zm0-275q-23 0-43.5 8.5T70.5 59Q55 75 46 95.5t-8.5 43q.5 22.5 9 43T70 218l50 45q12 13 30 13t30-12l50-46q16-16 24-36.5t8.5-43q.5-22.5-8.5-43T230 59q-16-16-36.5-24.5T150 26zm13 150v-13q0-5 3-10t8-8q14-8 21-22.5t4.5-30q-2.5-15.5-14-27T159 52q-11-2-22 1t-19.5 10q-8.5 7-13 17t-4.5 21q0 5 3.5 8.5t9 3.5q5.5 0 9-3.5t3.5-8.5q0-12 9-19.5t21-5.5q7 2 12.5 7.5t7 13.5q1.5 8-2 15T162 123q-11 6-17.5 17.5T138 164v12q0 5 3.5 8.5t8.5 3.5q5 0 8.5-3.5t3.5-8.5h1zm6 44q0-8-5.5-13.5T150 201q-8 0-13.5 5.5T131 220q0 8 5.5 13t13.5 5q8 0 13.5-5t5.5-13z"/></svg>