<svg viewBox="0 0 300 302.0011" xmlns="http://www.w3.org/2000/svg"><path d="M284 52q-5-6-13-10t-16-4H53v-4q-2-14-12.5-23.5T15 1h-2Q7 1 3.5 4.5t-3.5 9q0 5.5 3.5 9T12 26h3q5 0 8.5 3t4.5 8l17 146q3 24 20.5 40t41.5 16h131q5-1 8.5-4.5t3.5-8.5q0-5-3.5-8.5T238 214H107q-12-1-21.5-7.5T72 189h149q22 0 39.5-15t21.5-37l10-54q2-9-.5-17T284 52zm-16 26l-10 55q-3 13-13.5 22t-23.5 9H68L56 63h199q6 0 10 4.5t3 10.5zM63 276q-1 10 6.5 17.5t18 7.5q10.5 0 17.5-7.5t7.5-17.5q.5-10-7-17.5t-18-7.5Q77 251 70 258.5T63 276zm125 0q-1 10 6.5 17.5t18 7.5q10.5 0 17.5-7.5t7.5-17.5q.5-10-7-17.5t-18-7.5q-10.5 0-17.5 7.5t-7 17.5z"/></svg>