<svg viewBox="0 0 300 302.0011" xmlns="http://www.w3.org/2000/svg"><path d="M219 99l-21 14 21 15q5 3 6 8t-2 9.5q-3 4.5-8 5.5t-9-2l-38-25q-5-4-5-10.5t5-10.5l38-25q4-3 9-2t8 5.5q3 4.5 2 9.5t-6 8zM94 149l38-25q5-4 5-10.5t-5-10.5L94 78q-4-3-9-2t-8 5.5Q74 86 75 91t6 8l22 14-22 15q-5 3-6 8t2 9.5q3 4.5 8 5.5t9-2zm106 27H100q-6 0-10 5t-2 11q6 21 23.5 33.5T150 238q21 0 38.5-12.5T212 192q2-6-2-11t-10-5zm100-25q0 41-20 75.5T225.5 281Q191 301 150 301q-57-2-95-33-35-29-47.5-73t0-88Q20 63 55 34 93 3 150 1q41 0 75.5 20T280 75.5q20 34.5 20 75.5zm-25 0q0-34-17-62.5T212.5 43Q184 26 150 26q-47 2-79 28-30 23-40 60t0 74q10 37 40 60 32 26 79 28 34 0 62.5-17t45.5-45.5q17-28.5 17-62.5z"/></svg>