<svg viewBox="0 0 300 302.0011" xmlns="http://www.w3.org/2000/svg"><path d="M150 1q-40 0-74.5 20.5t-55 55Q0 111 0 151.5t20.5 75Q41 261 75.5 281t75 20q40.5 0 75-20t54.5-54.5q20-34.5 20-75t-20-75q-20-34.5-54.5-55T150 1zm0 275q-33 0-62-16.5T42 214q-17-29-17-63t17-62.5Q59 60 88 43t62.5-17Q184 26 213 43t45.5 45.5Q275 117 275 151t-16.5 63Q242 243 213 259.5T150 276zm75-173v111q0 5-3.5 8.5T213 226q-5 0-9-3.5t-4-8.5V103l-38 79q-4 7-12 7-7 0-11-7l-38-80v-1q0 1-1 2v111q0 5-3.5 8.5T88 226q-5 0-8.5-3.5T76 214V103q0-10 5-17t14-9q9-2 17 2t12 12l27 56 27-55q4-9 12-13t16.5-2q8.5 2 13.5 9t5 17z"/></svg>