<svg viewBox="0 0 300 302.0011" xmlns="http://www.w3.org/2000/svg"><path d="M300 201V101q0-17-8.5-31.5t-23-23Q254 38 238 38H53L22 5q-4-4-9-4T4 4.5Q0 8 0 13t3 9l74 80q-2 4-3 7l-20 89q-2 5 1 9.5t8 5.5q5 1 9.5-1.5T78 204l4-15h37l3 15q1 4 4.5 7t7.5 3l3-1q5-1 7.5-5.5t1.5-9.5l-20-89q-2-9-9-14.5T100 89h-1L76 64h162q15 0 26 11t11 26v100q0 11-6 20.5T252 235l-28-28q12-6 19-17.5t7-25.5v-25q0-21-14.5-35.5T200 89h-12q-11 0-18 7t-7 18v75q0 10 7 17.5t18 7.5h7l84 83q3 4 8.5 4t9-3.5q3.5-3.5 3.5-8.5t-3-9l-26-26q13-8 21-22t8-31zM87 163l11-48 1-1q0-1 1-1t2 2l11 48H87zm101-50h12q10 0 17.5 7.5T225 138v25q0 11-7.5 18t-17.5 7h-12v-75zm12 138q0 5-3.5 8.5T188 263H63q-17 0-31.5-8t-23-22.5Q0 218 0 201V101q0-8 2-16 1-5 5.5-7.5t9.5-1q5 1.5 8 6t1.5 9Q25 96 25 101v100q0 15 11 26t27 11h125q5 0 8.5 4t3.5 9z"/></svg>