<svg viewBox="0 0 300 302.0011" xmlns="http://www.w3.org/2000/svg"><path d="M250 1H50Q29 1 14.5 15.5T0 51v150q0 21 14.5 35.5T50 251h37l46 39q8 7 17 7t16-6l48-40h36q21 0 35.5-14.5T300 201V51q0-21-14.5-35.5T250 1zm25 200q0 10-7.5 17.5T250 226h-40q-5 0-8 3l-52 43-51-43q-3-3-8-3H50q-10 0-17.5-7.5T25 201V51q0-10 7.5-17.5T50 26h200q10 0 17.5 7.5T275 51v150zM176 72q-2-10-9-15.5T150 51q-10 0-17 5.5T124 72L98 186q-1 5 1.5 9.5t7.5 5.5q5 1 9.5-2t5.5-8l6-27h44l7 27q1 5 4.5 7.5t7.5 2.5h3q5-2 7.5-6t1.5-9L176 72zm-42 67l14-62q1-1 2-1t2 1l14 62h-32z"/></svg>