<svg viewBox="0 0 300 302.0011" xmlns="http://www.w3.org/2000/svg"><path d="M150 1q-41 0-75.5 20T20 75.5Q0 110 0 151t20 75.5Q40 261 74.5 281t75.5 20q41 0 75.5-20t54.5-54.5q20-34.5 20-75.5t-20-75.5Q260 41 225.5 21T150 1zm0 275q-34 0-62.5-17T42 213.5Q25 185 25 151t17-62.5Q59 60 87.5 43T150 26q34 0 62.5 17T258 88.5q17 28.5 17 62.5t-17 62.5Q241 242 212.5 259T150 276zm88-100h-38v-50h38q5 0 8.5-3.5t3.5-9q0-5.5-3.5-9T237 101h-37V63q0-5-3.5-8.5t-9-3.5q-5.5 0-9 3.5T175 64v37h-50V63q0-5-3.5-8.5t-9-3.5q-5.5 0-9 3.5T100 64v37H63q-6 0-9.5 3.5t-3.5 9q0 5.5 3.5 9T62 126h38v50H63q-6 0-9.5 3.5t-3.5 9q0 5.5 3.5 9T62 201h38v37q0 6 3.5 9.5t9 3.5q5.5 0 9-3.5t3.5-8.5v-38h50v37q0 6 3.5 9.5t9 3.5q5.5 0 9-3.5t3.5-8.5v-38h38q5 0 8.5-3.5t3.5-9q0-5.5-3.5-9T237 176h1zm-113 0v-50h50v50h-50z"/></svg>