<svg viewBox="0 0 300 302.0011" xmlns="http://www.w3.org/2000/svg"><path d="M274 45v18q0 35-17 55.5T212 138q-6 0-9.5-3.5T199 126q0-5 3.5-9t9.5-4q14 0 23-8 8-7 11-20-7 3-16 3-18 0-30.5-12.5T187 45q0-18 12.5-31T230 1q18 0 31 13t13 31zm-25 0q0-8-5.5-13.5t-13-5.5q-7.5 0-13 5.5T212 45q0 8 5.5 13t13 5.5q7.5.5 13-5T249 45zm5 119q-4-1-7.5-.5T240 167l-25 25q-3 4-3 9t3.5 9q3.5 4 8.5 4t9-4l4-4v82q0 6 3.5 9.5t8.5 3.5q5 0 9-3.5t4-9.5V176q0-4-2.5-7t-5.5-5zm-113 58l-41 41V13q0-5-3.5-8.5t-9-3.5q-5.5 0-9 3.5T75 13v250l-41-41q-4-3-9-3t-9 3.5q-4 3.5-4 8.5t4 9l54 54q7 7 17.5 7t17.5-7l54-54q4-4 4-9t-4-8.5q-4-3.5-9-3.5t-9 3z"/></svg>