<svg viewBox="0 0 300 302.0011" xmlns="http://www.w3.org/2000/svg"><path d="M188 151q0 5-4 9t-9 4h-12v56q0 13-9.5 22t-22.5 9q-13 0-22-9t-9-22q0-13 9-22t22-9h6v-26q1-10 8-17t18-7h12q5-1 9 3t4 9zm87-19v106q0 17-8.5 31.5t-23 23Q229 301 213 301H88q-17 0-31.5-8.5t-23-23Q25 255 25 238V63q0-16 8.5-30.5t23-23Q71 1 87 1h57q17 0 33.5 6.5T206 27l43 43q13 12 19.5 28.5T275 132zm-87-88q-6-5-13-9v53q0 6 3.5 9.5t9.5 3.5h53q-4-7-9-13l-44-44zm62 88v-4l-1-2h-61q-16 0-27-11t-11-27V27l-6-1H88q-16 0-27 11T50 64v174q0 16 11 27t27 11h125q15 0 26-11t11-27V132z"/></svg>