<svg viewBox="0 0 300 302.0011" xmlns="http://www.w3.org/2000/svg"><path d="M288 101h-49l41-69q2-4 1-9t-5.5-7.5Q271 13 266 14t-8 6l-48 81h-33l23-84q1-5-1.5-9.5t-7.5-6q-5-1.5-9.5 1T175 10l-24 91H90L42 20q-3-5-8-6t-9.5 1.5Q20 18 19 23t1 9l41 69H13q-6 0-9.5 3.5t-3.5 9q0 5.5 3.5 9T13 126h12v13q0 31 15 58.5T81 242q-14 6-22.5 18.5T50 289q0 5 3.5 8.5t9 3.5q5.5 0 9-3.5T75 289q0-11 7.5-18t17.5-7h100q10 0 17.5 7t7.5 18q0 5 3.5 8.5t9 3.5q5.5 0 9-3.5t3.5-8.5q0-16-8.5-28.5T219 242q26-17 41-44.5t15-58.5v-13h13q5 0 8.5-3.5t3.5-9q0-5.5-3.5-9T288 101zm-38 37q0 28-13.5 51T200 225q-23 13-50 13t-50-13q-23-13-36.5-36T50 138v-12h200v12z"/></svg>