<svg viewBox="0 0 300 302.0011" xmlns="http://www.w3.org/2000/svg"><path d="M299 196l-18-44q-6-15-18.5-24.5T235 115l-3-12q-2-7-7-11t-11-4h-28q-6 0-11 4t-7 11l-3 12q-15 3-27.5 12.5T119 152l-18 44q-1 2-1 5v37q0 13 7 22.5t18 13.5v2q0 10 7.5 17.5T150 301q10 0 17.5-7.5T175 276h50q0 10 7.5 17.5T250 301q10 0 17.5-7.5T275 276v-2q11-4 18-13.5t7-21.5v-38q0-3-1-5zm-122-58h46q11 0 20.5 6.5T258 162l6 14H136l6-14q5-11 14.5-17.5T177 138zm98 100q0 6-3.5 9.5T262 251H138q-6 0-9.5-3.5T125 239v-36l1-2h24v12q0 6 3.5 9.5t9 3.5q5.5 0 9-3.5t3.5-9.5v-12h50v12q0 6 3.5 9.5t9 3.5q5.5 0 9-3.5t3.5-9.5v-12h24l1 2v35zM81 138H50V76h63v12q0 6 3.5 9.5t8.5 3.5q5 0 9-3.5t4-8.5V76h73q6 0 9.5-5t2.5-11q-5-19-19-33.5T171 7Q125-5 79 7q-24 7-39 27T25 79v34q-10 0-17.5 7.5t-7.5 18Q0 149 7.5 156t17.5 7v38q0 12 7 21.5T50 236v15q0 5 3.5 8.5t9 3.5q5.5 0 9-3.5T75 251v-25q0-5-3.5-9t-9-3.5-9-3.5q-3.5-4-3.5-9v-38h31q5 0 9-3.5t4-8.5q0-5-4-9t-9-4zm5-107q39-10 78 0 17 5 27 20H59q10-15 27-20z"/></svg>