<svg viewBox="0 0 300 302.0011" xmlns="http://www.w3.org/2000/svg"><path d="M238 26H63q-17 0-31.5 8.5t-23 23Q0 72 0 89v174q0 6 3.5 9.5t9 3.5q5.5 0 9-3.5T25 263v-25h250v25q0 6 3.5 9.5t9 3.5q5.5 0 9-3.5t3.5-9.5V88q0-16-8.5-30.5t-23-23Q254 26 237 26h1zM63 51h175q15 0 26 11t11 26v75h-25q0-20-14.5-35T200 113h-12q-11 0-21 5t-17 12q-7-7-17-12t-20-5h-13q-21 0-35.5 15T50 164H25V88q0-15 11-26t27-11zm100 112q0-10 7-17.5t17-7.5h13q10 0 17.5 7.5T225 163h-62zm-88 0q0-10 7.5-17.5T100 138h13q10 0 17.5 7.5T138 163H75zm-50 50v-25h250v25H25z"/></svg>