<svg viewBox="0 0 300 302.0011" xmlns="http://www.w3.org/2000/svg"><path d="M29 104q2 21 14.5 38T75 168l147 67q8 3 15.5 3t13.5-2q15-6 21-20t.5-28.5Q267 173 253 167l-29-14-19-102q-1-11-7-19t-16-12l-10-5q-6-2-12-1.5t-11.5 4q-5.5 3.5-8.5 9T137 38v76L98 96 83 58q-4-10-12-15t-18-4q-12 0-20.5 10T25 73l4 31zm134-66l9 5q7 3 8 11l16 87-34-16V38h1zM52 65q1-1 3-1 4 0 5 3l16 42q2 5 7 7l160 74q4 2 6 6.5t0 9.5q-2 5-6.5 6.5t-9.5-.5L85 146q-13-6-21.5-18T54 101l-4-31q0-3 2-5zm248 223q0 6-3.5 9.5T288 301H13q-6 0-9.5-3.5t-3.5-9q0-5.5 3.5-9T13 276h275q5 0 8.5 3.5t3.5 9.5v-1z"/></svg>