<svg viewBox="0 0 300 302.0011" xmlns="http://www.w3.org/2000/svg"><path d="M250 101q-17 0-30.5 10.5T202 138H100q-16 1-27-10t-11-27v-2q17-4 27.5-17.5T100 51q0-21-14.5-35.5T50 1Q29 1 14.5 15.5T0 51q0 17 10.5 30.5T38 99v104q-17 4-27.5 17.5T0 251q0 21 14.5 35.5T50 301q21 0 35.5-14.5T100 251q0-17-10.5-30.5T63 203v-52q16 12 37 12h102q4 17 17.5 27.5T250 201q21 0 35.5-14.5T300 151q0-21-14.5-35.5T250 101zM25 51q0-10 7.5-17.5T50 26q10 0 17.5 7.5T75 51q0 10-7.5 17.5T50 76q-10 0-17.5-7.5T25 51zm50 200q0 10-7.5 17.5T50 276q-10 0-17.5-7.5T25 251q0-10 7.5-17.5T50 226q10 0 17.5 7.5T75 251zm175-75q-10 0-17.5-7.5T225 151q0-10 7.5-17.5T250 126q10 0 17.5 7.5T275 151q0 10-7.5 17.5T250 176z"/></svg>