<svg viewBox="0 0 300 302.0011" xmlns="http://www.w3.org/2000/svg"><path d="M288 236v-54q0-23-16.5-39.5T231 126h-87q-23 0-39.5 16.5T88 182v54q-13 11-13 27t11 27q11 11 27 11h150q15 0 26-11t11-27q0-16-12-27zm-175-54q0-13 9-22t22-9h87q13 0 22.5 9t9.5 22v44h-33q-10 0-17 7l-6 5h-39l-5-5q-8-7-18-7h-32v-44zm150 94H113q-6 0-9.5-3.5t-3.5-9q0-5.5 3.5-9t9.5-3.5h32l5 5q7 7 18 7h39q11 0 18-7l5-5h32q6 0 9.5 3.5t3.5 9q0 5.5-3.5 9T262 276h1zM50 201q-10 0-17.5-7.5T25 176v-73q0-9 4-17t10-13l50-39q11-8 23.5-8t23.5 8l50 39q9 7 13 19 1 5 5.5 7.5t9.5 1q5-1.5 7.5-6T223 85q-6-19-22-32h-1V13q0-5-3.5-8.5t-9-3.5q-5.5 0-9 3.5T175 13v20l-24-19Q134 1 112.5 1T74 14L24 53Q13 62 6.5 75T0 103v73q0 21 14.5 35.5T50 226q5 0 9-3.5t3.5-9q-.5-5.5-4-9T50 201zM200 52z"/></svg>