<svg viewBox="0 0 300 302.0011" xmlns="http://www.w3.org/2000/svg"><path d="M225 76v87q0 21-10 38t-27.5 27.5Q170 239 150 239t-37.5-10.5Q95 218 85 201t-10-37V76q0-5 3.5-9t9-4q5.5 0 9 4t3.5 9v87q0 21 14.5 35.5T150 213q21 0 35.5-14.5T200 163V76q0-5 3.5-9t9-4q5.5 0 9 4t3.5 9zm75-13v175q0 17-8.5 31.5t-23 23Q254 301 238 301H63q-17 0-31.5-8.5t-23-23Q0 255 0 238V63q0-16 8.5-30.5t23-23Q46 1 63 1h175q16 0 30.5 8.5t23 23Q300 47 300 64v-1zm-25 0q0-15-11-26t-27-11H63q-16 0-27 11T25 64v174q0 16 11 27t27 11h175q15 0 26-11t11-27V63z"/></svg>