<svg viewBox="0 0 300 302.0011" xmlns="http://www.w3.org/2000/svg"><path d="M213 38h-63V26q0-5-3.5-9t-9-4q-5.5 0-9 4t-3.5 9v12H88V13q0-5-4-8.5T75 1q-5 0-8.5 3.5T63 14v30q-17 7-27.5 22.5T25 101v45q0 22 14 39l8 11q3 3 3 8v35q0 16 8.5 30.5t23 23Q96 301 112 301h76q16 0 30.5-8.5t23-23Q250 255 250 239v-35q0-5 3-8l8-11q14-17 14-39v-45q0-17-8.5-31.5t-23-22.5Q229 39 212 39l1-1zm37 108q0 13-8 23l-9 11q-8 10-8 24v35q0 15-11 26t-26 11h-75q-16 0-27-11t-11-26v-35q0-14-8-24l-9-11q-8-10-8-23v-45q0-15 11-26t27-11h125q15 0 26 11t11 26v45zm-50-58H100q-10 1-17.5 8T75 113v25q0 11 7.5 18t17.5 8h100q10-1 17.5-8t7.5-17v-26q0-10-7.5-17.5T200 88zm-100 50v-25h100v25H100z"/></svg>