<svg viewBox="0 0 300 302.0011" xmlns="http://www.w3.org/2000/svg"><path d="M288 201q-6 0-9.5 3.5T275 214v24q0 16-11 27t-27 11h-24q-6 0-9.5 3.5t-3.5 9q0 5.5 3.5 9t8.5 3.5h26q16 0 30.5-8.5t23-23Q300 255 300 239v-26q0-5-3.5-8.5T288 201zM13 101q5 0 8.5-3.5T25 89V63q0-15 11-26t26-11h26q5 0 8.5-3.5t3.5-9q0-5.5-3.5-9T87 1H63Q46 1 31.5 9.5t-23 23Q0 47 0 63v25q0 6 3.5 9.5T12 101h1zm75 175H63q-16 0-27-11t-11-26v-26q0-5-3.5-8.5t-9-3.5q-5.5 0-9 3.5T0 214v24q0 17 8.5 31.5t23 23Q46 301 62 301h26q5 0 8.5-3.5t3.5-9q0-5.5-3.5-9T87 276h1zM238 1h-25q-6 0-9.5 3.5t-3.5 9q0 5.5 3.5 9T212 26h26q15 0 26 11t11 27v24q0 6 3.5 9.5t9 3.5q5.5 0 9-3.5T300 89V63q0-16-8.5-30.5t-23-23Q254 1 238 1zm-88 137q21 1 35.5-14T200 88.5q0-20.5-14.5-35t-35.5-15Q129 38 114.5 53T100 88.5q0 20.5 14.5 35T150 138zm0-75q10 0 17.5 7.5t7.5 18q0 10.5-7.5 17.5t-17.5 7q-10 0-17.5-7T125 88.5q0-10.5 7.5-17.5t17.5-7v-1zm75 188q5 0 9-3.5t4-8.5q-1-21-11-38t-27-27q-17-10-38-10h-24q-21 0-38 10t-27 27q-10 17-10 37 0 6 3.5 9.5T75 251q5 0 8.5-3.5T87 238q1-20 15.5-34.5T137 189h26q20-1 35 14t15 35q0 6 3.5 9.5t8.5 3.5z"/></svg>