<svg viewBox="0 0 300 302.0011" xmlns="http://www.w3.org/2000/svg"><path d="M289 149q-11-10-26.5-10T236 149l-84 84q-14 15-14 36v20q0 5 3.5 8.5t8.5 3.5h20q20 0 35-14l84-84q11-11 11-26.5T289 150v-1zm-18 36l-83 84q-8 7-18 7h-7v-7q0-11 7-18l84-84q3-3 8.5-3t9 3.5q3.5 3.5 3.5 8.5t-4 9zm-158 78q0 6-4 9.5t-9 3.5H63q-17 0-31.5-8.5t-23-23Q0 230 0 213V63q0-16 8.5-30.5t23-23Q46 1 63 1h150q16 0 30.5 8.5t23 23Q275 47 275 63v38q0 5-3.5 8.5t-9 3.5q-5.5 0-9-3.5T250 101V63q0-15-11-26t-26-11H63q-16 0-27 11T25 63v150q0 16 11 27t27 11h37q5 0 8.5 3.5t4.5 8.5zm12-50q0 6-3.5 9.5T113 226H75q-10 0-17.5-7.5T50 201V76q0-10 7.5-17.5T75 51h25q4 0 7 2t4.5 5.5q1.5 3.5.5 7.5t-3 6l-34 34v95h37q6 0 9.5 3.5t3.5 9.5v-1zm38-37h-38q-10 0-17.5-7.5T100 151v-21q0-16 11-26l42-42q11-11 26-11h21q10 0 17.5 7.5T225 76v50q0 5-3.5 8.5t-9 3.5q-5.5 0-9-3.5T200 126V76h-21q-5 0-9 4l-41 41q-4 4-4 9v21h38q5 0 8.5 3.5t3.5 9q0 5.5-3.5 9T163 176z"/></svg>