<svg viewBox="0 0 300 302.0011" xmlns="http://www.w3.org/2000/svg"><path d="M275 226v12q0 17-8.5 31.5t-23 23Q229 301 212 301H88q-17 0-31.5-8.5t-23-23Q25 255 25 238v-12q0-5 3.5-8.5t9-3.5q5.5 0 9 3.5T50 226v12q0 16 11 27t27 11h125q15 0 26-11t11-27v-12q0-5 3.5-8.5t9-3.5q5.5 0 9 3.5t3.5 8.5zM25 126V63q0-16 8.5-30.5t23-23Q71 1 87 1h57q17 0 33 6.5T206 27l43 43q13 13 19.5 29t6.5 33q0 5-3.5 9t-9 4q-5.5 0-9-4t-3.5-9l-1-6h-61q-16 0-27-11t-11-26V27l-6-1H88q-16 0-27 11T50 64v62q0 5-3.5 9t-9 3.5q-5.5-.5-9-4T25 126zm163-82q-5-5-13-9v53q0 6 3.5 9.5t9.5 3.5h53q-4-8-9-13l-44-44zM75 188q5 0 9-3.5t3.5-8.5q-.5-5-4-9t-8.5-4H25q-5 0-8.5 4t-3.5 9q0 5 3.5 9t8.5 4h50v-1zm50-25q-5 0-9 4t-3.5 9q.5 5 4 9t8.5 4h50q5-1 9-4.5t4-8.5q0-5-4-9t-9-4h-50zm150 0h-50q-5 0-8.5 4t-4 9q-.5 5 3.5 9t9 4h50q5-1 9-4.5t4-8.5q0-5-4-9t-9-4z"/></svg>