<svg viewBox="0 0 300 302.0011" xmlns="http://www.w3.org/2000/svg"><path d="M235 154l47 21q3 1 6 1t6-2q3-2 5-6t0-9q-2-5-6-7l-91-40 37-17q16-8 26-23.5T275 38V13q0-5-3.5-8.5t-9-3.5q-5.5 0-9 3.5T250 13v25q0 11-6 20t-16 14l-35 16 1-6q0-18-13-31t-31-13q-18 0-31 13t-13 31l1 6-35-16q-10-5-16-14t-6-20V13q0-5-3.5-8.5t-9-3.5q-5.5 0-9 3.5T25 13v25q0 18 10 33.5T61 95l37 17-91 40q-4 2-6 7t0 9q2 4 5 6t6 2q3 0 6-1l47-21-47 63Q0 241 0 270v18q0 6 3.5 9.5t9 3.5q5.5 0 9-3.5T25 288v-18q0-21 13-38l25-34q2 22 14.5 39.5t31.5 28q19 10.5 41 10.5t41-10.5q19-10.5 31.5-28T237 198l26 34q12 17 12 38v18q0 6 3.5 9.5t9 3.5q5.5 0 9-3.5t3.5-9.5v-18q0-29-17-53l-48-63zm-85-91q8 1 13.5 6t5.5 13q0 8-5.5 13.5T150 101q-8 0-13.5-5.5T131 82q0-8 5.5-13.5T150 64v-1zm0 188q-17 0-31.5-8.5t-22.5-23q-8-14.5-8-31t8-31q8-14.5 22.5-23T150 126q17 0 31.5 8.5t22.5 23q8 14.5 8.5 31t-8 31q-8.5 14.5-23 23T150 251zm30-88l-22 25 22 25q3 4 .5 8.5T174 226h-48q-4 0-6.5-4.5t.5-8.5l22-25-22-25q-3-3-.5-7.5t6.5-4.5h48q4 0 6.5 4.5t-.5 7.5z"/></svg>