<svg viewBox="0 0 300 302.0011" xmlns="http://www.w3.org/2000/svg"><path d="M288 209l-30-22q-11-11-26.5-11T205 187l-19 14q-29-12-51.5-34.5T100 115l14-19q11-11 11-26.5T114 43L91 12Q80 1 64 1T37 12L22 24Q-5 54 2 99q6 42 38 86.5t75 75.5q46 32 87 38 46 7 75-21l12-13q11-11 11-27.5T289 210l-1-1zm-18 39l-11 13q-21 20-58 12-34-7-71.5-34T65 176q-29-37-37-71-9-38 11-62l15-13q4-4 9.5-4t9.5 4l23 30q4 4 4 9.5T96 79l-20 26q-5 5-2 12 14 38 43 67t67 43q7 3 12-2l26-20q4-4 10-4t10 5l29 22q4 5 4 10.5t-5 9.5zm26-168q4 3 4 8.5t-3.5 9q-3.5 3.5-9 3.5t-8.5-4l-29-28-29 28q-3 4-8.5 4t-9-3.5q-3.5-3.5-3.5-9t4-8.5l28-29-28-29q-4-3-4-8.5t3.5-9q3.5-3.5 9-3.5t8.5 4l29 28 29-28q3-4 8.5-4t9 3.5q3.5 3.5 3.5 9t-4 8.5l-28 29 28 29z"/></svg>