<svg viewBox="0 0 300 302.0011" xmlns="http://www.w3.org/2000/svg"><path d="M123 301h-3q-5-2-8-6.5t-1-9.5l18-75q2-7 9-9t12.5 3q5.5 5 3.5 13l-19 75q-1 4-4.5 6.5T123 301zm61-38h-3q-5-1-7.5-5.5T172 248l19-75q2-7 9-9t12 3q5 5 3 12l-18 75q-2 4-5 6.5t-8 2.5zm-100 0h-3q-5-1-7.5-5.5T72 248l19-75q2-7 9-9t12 3q5 5 3 12l-18 75q-2 4-5 6.5t-8 2.5zm154-18q-5 0-8.5-3t-4.5-7.5q-1-4.5 1.5-8.5t6.5-5q22-9 32.5-28.5t8.5-42q-2-22.5-16.5-39.5T220 90q-9-2-16-7.5T193 69q-11-22-32.5-34T115 26.5Q91 30 73 47T51 88q-2 14 0 27 2 10-1 19t-10.5 16q-7.5 7-11 16t-3 19.5q.5 10.5 5.5 19T44 219q6 4 5.5 11T43 240q-6 3-12-1-14-9-21.5-22.5t-9-29Q-1 172 5 157t18-26q5-4 4-11-4-18-1-36 6-31 27.5-53.5T106 3q34-7 64.5 8.5T215 58q3 6 10 7 32 7 52 31 19 22 22 52t-11 56q-15 27-46 40-2 1-5 1h1zm-100-69q0 5 3.5 8.5t8.5 3.5q5 0 9-3.5t4-8.5q0-5-4-9t-9-4q-5 0-9 4t-4 9h1zM63 288q0 6 3.5 9.5T75 301q5 0 8.5-3.5t4-9q.5-5.5-3.5-9t-9-3.5q-5 0-8.5 3.5T63 288zm100 0q-1 6 3 9.5t9 3.5q5 0 9-3.5t4-9q0-5.5-4-9t-9-3.5q-5 0-9 3.5t-4 8.5h1z"/></svg>