<svg viewBox="0 0 300 302.0011" xmlns="http://www.w3.org/2000/svg"><path d="M188 26q0-10 7-17.5T212.5 1q10.5 0 18 7.5T238 26q0 10-7.5 17.5t-18 7.5Q202 51 195 43.5T188 26zM81 202q3 1 6 1 8 0 11-5t1.5-10q-1.5-5-5.5-8-15-8-23-22.5T62 126q1-25 12.5-47T106 43q20-14 45-16 6-1 9-5t2.5-9q-.5-5-4.5-8.5T149 2q-32 3-57 20.5t-39.5 45Q38 95 38 126q0 23 11.5 43.5T81 202zm-42 41q-9-7-18-16-3-3-8.5-3.5t-9 3.5Q0 231 0 236t4 9q9 9 20 17 3 3 8 3t8.5-4.5q3.5-4.5 3-9.5t-4.5-8zm49 8q-11 0-18 7.5T63 276q0 10 7 17.5t17.5 7.5q10.5 0 18-7.5T113 276q0-10-7.5-17.5T88 251zM296 57q-9-9-20-17-4-4-9-3t-8 5q-3 4-2.5 9t4.5 8q9 7 18 16 3 4 8.5 4t9-4q3.5-4 3.5-9t-4-9zM150 201q-21 0-35.5-14.5T100 151q0-21 14.5-35.5T150 101q21 0 35.5 14.5T200 151q0 21-14.5 35.5T150 201zm0-25q10 0 17.5-7.5T175 151q0-10-7.5-17.5T150 126q-10 0-17.5 7.5T125 151q0 10 7.5 17.5T150 176zm69-76q-5-2-10-1t-7.5 5.5q-2.5 4.5-1 9.5t5.5 8q15 8 23 22.5t9 31.5q0 25-12 47t-32 36q-20 14-45 16-6 1-9 5t-2.5 9q.5 5 4 8t8.5 3q32-3 57.5-20.5T248 235q15-27 14-59 1-23-11-43.5T219 100zm-69 200z"/></svg>