<svg viewBox="0 0 300 302.0011" xmlns="http://www.w3.org/2000/svg"><path d="M213 1q-24 0-44 12t-32 32q-12 20-12 43.5t12 43.5q12 20 32 32t43.5 12q23.5 0 43.5-12t32-32q12-20 12-43.5T288 45q-12-20-32-32T213 1zm0 150q-17 0-31.5-8.5t-23-23q-8.5-14.5-8.5-31t8.5-31q8.5-14.5 23-23t31-8.5q16.5 0 31 8.5t23 23q8.5 14.5 8.5 31t-8.5 31q-8.5 14.5-23 23T212 151h1zm33-79l-16 16 16 17q4 3 4 8.5t-3.5 9q-3.5 3.5-9 3.5t-8.5-4l-16-16-17 16q-3 4-8.5 4t-9-3.5q-3.5-3.5-3.5-9t4-8.5l16-17-16-16q-4-3-4-8.5t3.5-9q3.5-3.5 9-3.5t8.5 4l17 16 16-16q3-4 8.5-4t9 3.5q3.5 3.5 3.5 9t-4 8.5zm-71 129v87q0 8-7 12-3 1-6.5 1t-6.5-3l-50-37q-5-4-5-10v-70L12 82Q0 68 0 49t14.5-33.5Q29 1 49 1h64q5 0 8.5 3.5t3.5 9q0 5.5-3.5 9T113 26H49q-10 0-17 7t-7 16.5Q25 59 31 65l91 103q3 3 3 8v69l25 19v-63q0-5 3.5-8.5t9-3.5q5.5 0 9 3.5t3.5 8.5z"/></svg>