<svg viewBox="0 0 300 302.0011" xmlns="http://www.w3.org/2000/svg"><path d="M104 193q-4 4-4 9t4 9l25 25q4 4 4 9t-4 8.5q-4 3.5-9 3.5t-9-3l-25-26q-11-11-11-26.5T86 175l26-25q3-4 8.5-4t9 3.5q3.5 3.5 3.5 9t-4 8.5l-25 26zm84-43q-3-4-8.5-4t-9 3.5q-3.5 3.5-3.5 9t4 8.5l25 26q4 4 4 9t-4 9l-25 25q-4 4-4 9t4 8.5q4 3.5 9 3.5t9-3l25-26q11-11 11-26.5T214 175l-26-25zm87-18v106q0 17-8.5 31.5t-23 23Q229 301 212 301H88q-17 0-31.5-8.5t-23-23Q25 255 25 238V63q0-16 8.5-30.5t23-23Q71 1 87 1h57q17 0 33 6.5T206 27l43 43q13 13 19.5 29t6.5 33zm-87-88q-6-6-13-10v54q0 6 3.5 9.5t9.5 3.5h54q-4-7-10-13l-44-44zm62 88v-6h-62q-16 0-27-11t-11-26V26H88q-16 0-27 11T50 64v174q0 16 11 27t27 11h125q15 0 26-11t11-27V132z"/></svg>