<svg viewBox="0 0 300 302.0011" xmlns="http://www.w3.org/2000/svg"><path d="M275 153v-15q0-11-7-21t-18-14q1-49-23-92-4-5-9.5-8t-12-2.5q-6.5.5-12 4T185 14q-8 14-15.5 19T150 38h-25q-19 0-35.5 8t-27 23Q52 84 51 103q-12 4-19 13.5T25 139v14q-11 4-18 14t-7 22v49q0 17 8.5 31.5t23 23Q46 301 62 301h176q16 0 30.5-8.5t23-23Q300 255 300 239v-51q0-11-7-21t-18-14zM125 63h25q18 1 33.5-9.5T207 26q19 35 18 75H77q3-17 16.5-28T125 63zm-75 75q0-5 3.5-8.5T62 126h176q5 0 8.5 3.5t3.5 8.5v13H50v-13zm225 100q0 16-11 27t-27 11H63q-16 0-27-11t-11-26v-51q0-5 3.5-8.5T37 176h226q5 0 8.5 3.5t3.5 9.5v49z"/></svg>