<svg viewBox="0 0 300 302.0011" xmlns="http://www.w3.org/2000/svg"><path d="M258 187q-11-11-26.5-11T205 187l-19 14q-61-27-86-86l14-19q11-11 11-26.5T114 43L91 12Q79 1 63.5 1T37 12L22 24Q12 35 6 49T0 79q0 35 21 75 20 38 54 72t72 54q40 21 75 21 32 0 55-23l12-13q11-11 11-27t-11-28l-31-23zm12 61l-11 13q-15 15-37 15-31 0-67-20-34-19-64-50t-48-65.5Q25 106 25 79q0-22 14-36l15-13q4-4 9.5-4t9.5 4l23 30q4 4 4 9.5T96 79l-20 26q-5 5-2 12 29 78 110 110 7 3 12-2l26-20q4-4 9.5-4t9.5 4l30 23q4 4 4 10t-5 10zm-7-235q0-5 3.5-8.5T275 1h13q5 0 8.5 3.5t3.5 9q0 5.5-3.5 9T287 26h-12q-5 0-8.5-3.5T263 13zm-50 0q0-5 3.5-8.5T225 1h13q5 0 8.5 3.5t3.5 9q0 5.5-3.5 9T237 26h-12q-5 0-8.5-3.5T213 13zm-50 0q0-5 3.5-8.5T175 1h13q5 0 8.5 3.5t3.5 9q0 5.5-3.5 9T187 26h-12q-5 0-8.5-3.5T163 13zm-50 0q0-5 3.5-8.5T125 1h13q5 0 8.5 3.5t3.5 9q0 5.5-3.5 9T137 26h-12q-5 0-8.5-3.5T113 13zm187 50q0 6-3.5 9.5T287 76h-12q-5 0-8.5-3.5t-3.5-9q0-5.5 3.5-9T275 51h13q5 0 8.5 3.5T300 63zm-137 0q0-5 3.5-8.5T175 51h63q5 0 8.5 3.5t3.5 9q0 5.5-3.5 9T237 76h-62q-5 0-8.5-3.5T163 63z"/></svg>