<svg viewBox="0 0 300 302.0011" xmlns="http://www.w3.org/2000/svg"><path d="M0 238V63q0-16 8.5-30.5t23-23Q46 1 62 1h176q16 0 30.5 8.5t23 23Q300 47 300 63v175q0 17-8.5 31.5t-23 23Q254 301 237 301H63q-17 0-31.5-8.5t-23-23Q0 255 0 239v-1zM275 63q0-15-11-26t-27-11H63q-16 0-27 11T25 64v174q0 16 11 27t26 11h176q15 0 26-11t11-27V63zm-175 88q0-14 9-25l10-10 35-36q4-4 9-4t8.5 3.5q3.5 3.5 4 9T172 97l-35 36-9 10q-3 3-3 8t3 8l9 10 35 36q4 3 3.5 8.5t-4 9Q168 226 163 226t-9-4l-35-36-10-10q-9-11-9-25z"/></svg>