<svg viewBox="0 0 300 302.0011" xmlns="http://www.w3.org/2000/svg"><path d="M181 88q18 0 31-12.5T225 45q0-18-13-31T181 1q-18 0-30.5 13T138 45q0 18 12.5 30.5T181 88zm0-62q8 0 13.5 5.5T200 45q0 8-5.5 13.5T181 64q-8 0-13-5.5T163 45q0-8 5-13.5t13-5.5zM69 88q18 0 31-12.5T113 45q0-18-13-31T69 1Q51 1 38 14T25 45q0 18 13 30.5T69 88zm0-62q8 0 13.5 5.5T88 45q0 8-5.5 13T69 63.5q-8 .5-13.5-5T50 45q0-8 5.5-13.5T69 26zm-5 100q-15 2-26 13t-13 26q0 5-3.5 8t-9.5 3q-6 0-9-4t-3-10q3-24 20-41t41-20q5 0 9 3t4.5 8.5Q75 118 72 122t-8 4zm49 50q-4 4-9 4t-9-3q-14-13-14-31.5T94 114q13-13 31-13 15 0 26 9 4 3 5 8t-2 9q-3 4-8.5 5t-10-2.5Q131 126 124 126t-12.5 5.5Q106 137 106 145t6 13q4 4 4 9t-3 9zm-15 40q3 4 2 9t-6 8q-8 6-13 14t-6 18q-1 5-4.5 8t-9 3q-5.5 0-9-4T50 262q2-15 10-28t21-22q4-3 9-1.5t8 5.5zm115-90q-24 0-44 12t-32 32q-12 20-12 43.5t12 43.5q12 20 32 32t43.5 12q23.5 0 43.5-12t32-32q12-20 12-43.5T288 170q-12-20-32-32t-43-12zm0 150q-17 0-31.5-8.5t-23-23q-8.5-14.5-8.5-31t8.5-31q8.5-14.5 23-23t31-8.5q16.5 0 31 8.5t23 23q8.5 14.5 8.5 31t-8.5 31q-8.5 14.5-23 23T212 276h1zm40-78q3 4 3 9t-4 9l-27 27q-9 8-21 8t-21-8l-14-14q-4-4-4-9t4-9q4-4 9-4t9 4l14 14q1 1 3 1t3-1l28-27q4-4 9-3.5t9 3.5z"/></svg>