<svg viewBox="0 0 300 302.0011" xmlns="http://www.w3.org/2000/svg"><path d="M285 265l-10-23V60l10-22q3-6 2.5-12.5t-3.5-12q-3-5.5-9-9T263 1H37q-6 0-12 3.5t-9 9q-3 5.5-3.5 12T15 38l10 22v182l-10 23q-3 6-2.5 12t3.5 12q3 6 9 9t12 3h226q6 0 12-3t9-9q3-6 3.5-12t-2.5-12zM262 26l-10 25H48L37 26h225zm-12 50v150H50V76h200zM38 276l10-25h204l11 25H38zm100-101v13q0 6 3.5 9.5t8.5 3.5q5 0 9-3.5t4-8.5v-14q21-2 36-13 22-16 26-47 1-6-3.5-10.5T211 101q-29 4-45 27-11 14-16 35-4-21-16-35-16-23-45-27-6-1-10.5 3.5T75 115q4 31 26 47 15 11 36 13h1zm24 0z"/></svg>