<svg viewBox="0 0 300 302.0011" xmlns="http://www.w3.org/2000/svg"><path d="M296 297q-3 4-8.5 4t-8.5-4l-63-62q-4-4-4-9t4-9q4-4 9-4t9 4l62 63q4 3 4 8.5t-4 8.5zm-25-179l-70 70q-18 19-41.5 28.5T110 226H93l-72 71q-3 4-8.5 4t-9-3.5Q0 294 0 288.5t4-8.5l71-72v-17q0-12 2-24l-48-49-11 6q-2 2-6 2-7 0-11-7-2-4-.5-9t6.5-8q5-3 16-10 19-14 35.5-30.5T90 25q7-10 12-18 2-4 7-5.5t9.5 1q4.5 2.5 6 7.5T123 20l-6 10 33 33 33-33-6-10q-3-5-1.5-10t6-7.5q4.5-2.5 9.5-1t7 5.5q5 8 12 18 15 20 31.5 36.5T277 92q10 7 16 10 5 3 6.5 8t-1.5 9q-3 7-11 7-3 0-5-2l-11-6zM86 140q9-23 27-40l19-20-30-30Q90 66 77 79t-28 25l37 36zm24 61q36 0 64-22l-52-52q-22 28-22 64v10h10zm141-97q-15-12-28-25t-25-29l-59 59 53 53 59-58z"/></svg>