<svg viewBox="0 0 300 302.0011" xmlns="http://www.w3.org/2000/svg"><path d="M138 213h-2q-2-11-9-21l1-1q4-4 4-9t-4-9q-4-4-9-4t-9 4l-1 1q-10-7-22-9v-2q0-5-3.5-8.5T75 151q-5 0-8.5 3.5T63 163v2q-12 2-22 9l-1-1q-4-4-9-4t-9 4q-4 4-4 9t4 9l1 1q-7 10-9 22h-1q-6-1-9.5 3T0 226q0 5 3.5 8.5T12 238h2q2 12 9 22l-1 1q-4 4-4 9t4 9q4 4 9 4t9-4l1-1q10 7 22 9v1q0 6 3.5 9.5T75 301q5 0 8.5-3.5T87 289v-2q12-2 22-9l1 1q4 4 9 4t9-4q4-4 4-9t-4-9l-1-1q7-10 9-22h2q5 0 8.5-3.5t3.5-8.5q0-5-3.5-8.5T138 214v-1zm-63 50q-16 0-27-10.5T37.5 226q.5-16 11-27T75 188q16 0 27 11t11 27q0 16-11 26.5T75 263zm225-112q0-21-14.5-35.5T250 101V76q0-5-3.5-9t-9-3.5q-5.5.5-9 4T225 76v25h-31l-44-71q-8-13-22.5-21T97 1H75Q59 1 48 12T37 39v62q-15 0-26 11T0 139q0 5 3.5 8.5t9 3.5q5.5 0 9-3.5t3.5-9 3.5-9Q32 126 37 126h213q7 0 13 4t9 10q3 6 2.5 13t-4.5 13l-19 26q-24-7-43 1-17 8-25.5 25t-6.5 35.5q2 18.5 16 31.5 14 14 39 16 17 0 31-9.5t20.5-25q6.5-15.5 3.5-32T272 206l18-25q10-13 10-30zM63 38q0-5 3.5-8.5T75 26h22q10 0 18.5 4.5T129 44l36 57H63V38zm168 238q-13 0-22-9t-9-22q0-13 9-22.5t22-9.5q13 0 22 9.5t9 22.5q0 13-9 22t-22 9z"/></svg>