<svg viewBox="0 0 300 302.0011" xmlns="http://www.w3.org/2000/svg"><path d="M6 102l123 74q10 6 21 6t21-6l123-74q6-4 6-11t-6-10L171 7q-10-6-21-6t-21 6L6 81q-6 3-6 10t6 11zm152 53q-8 4-16 0l-39-24 47-28 47 28-39 24zm63-38l-47-29 42-25 47 28-42 26zm-79-89q8-5 16 0l34 21-42 25-42-25 34-21zM84 63l42 25-47 29-42-26 47-28zM2 140q2-5 7-6t10 1l123 74q8 5 16 0l123-74q5-2 10-1t7.5 5.5q2.5 4.5 1 9.5t-5.5 8l-123 74q-10 5-21 5t-21-5L6 157q-4-3-5.5-8t1.5-9zm296 53q3 5 1.5 10t-5.5 7l-123 74q-10 6-21 6t-21-6L6 210q-4-2-5.5-7t1-9.5q2.5-4.5 7.5-6t10 1.5l123 74q8 5 16 0l123-74q5-3 10-1.5t7 5.5z"/></svg>