<svg viewBox="0 0 300 302.0011" xmlns="http://www.w3.org/2000/svg"><path d="M150 1q-41 0-75.5 20T20 75.5Q0 110 0 151t20 75.5Q40 261 74.5 281t75.5 20q41 0 75.5-20t54.5-54.5q20-34.5 20-75.5t-20-75.5Q260 41 225.5 21T150 1zm0 275q-34 0-62.5-17T42 213.5Q25 185 25 151t17-62.5Q59 60 87.5 43T150 26q34 0 62.5 17T258 88.5q17 28.5 17 62.5t-17 62.5Q241 242 212.5 259T150 276zm17-195l-74 74q-18 18-18 44v14q0 6 3.5 9.5T88 226h14q26 0 44-18l74-74q11-11 11-26.5T220 81q-11-11-26.5-11T167 81zm-38 109q-11 11-27 11h-2v-2q0-16 11-27l43-43 18 18-43 43zm74-74l-13 13-18-18 13-13q4-3 9-3t8.5 3.5q3.5 3.5 3.5 8.5t-3 9z"/></svg>