<svg viewBox="0 0 300 302.0011" xmlns="http://www.w3.org/2000/svg"><path d="M285 86q-27-12-40-31l53-44q3-3 1-7t-6-3l-56 20q2-17-6-19.5t-18 7Q203 18 201 29q-23 7-36 29-11 16-14 38-19-8-35-21-10-8-26-25l-5-5q-5-5-11-6t-12 1.5Q56 43 53 48t-3 12q1 17 3 29 4 21 12 39l-4 4q-25 9-40 30-21 29-21 76 0 6 3.5 9.5t9 3.5q5.5 0 9-3.5T25 239q0-53 25-73 0 13 5 29 2 10 9 29l5 15v3q-3 17-2 25 0 13 8 21 10 12 25 13t27-8.5q12-9.5 13-24.5l2-17h21v12q0 18 11 28t26 10q15 0 26-10t11-27l1-30 4-23q6-16 7-37 1-13 1-37l28-3q12-2 18-12t3-21q-3-11-14-15zm-38 26q-9 1-15.5 8.5T225 137v25q0 11-1.5 20t-5.5 23l-5 27v31q0 6-4 9.5t-9 3.5q-5 0-8.5-3.5T188 263v-25q-1-5-4.5-8.5T175 226h-44q-4 0-8 3t-4 8l-4 28q0 5-3.5 8t-8.5 3q-5 0-9-4.5t-3-9.5l3-22q-1-10-9-32-7-20-9-30-3-16 3-27 12 16 26 27 22 18 31 4 2-4 1-9t-6-8q-27-16-41-44-11-20-14-49 18 18 33 29 24 17 50 25 6 1 11-2.5t5-10.5v-6q0-14 6-27 10-25 35-28 14 37 59 57l-28 3zM61 132h0z"/></svg>