<svg viewBox="0 0 300 302.0011" xmlns="http://www.w3.org/2000/svg"><path d="M225 151q0 5-3.5 8.5t-9 3.5q-5.5 0-9-3.5T200 151q0-5 3.5-8.5t9-4q5.5-.5 9 3.5t3.5 9zM88 63q5 0 8.5-3.5T100 51q0-10 7.5-17.5T125 26q10 0 17.5 7.5T150 51q0 5 3.5 9t9 3.5q5.5-.5 9-4T175 51q0-21-14.5-35.5T125 1q-21 0-35.5 14.5T75 51q0 5 3.5 9t8.5 4l1-1zm212 100v25q0 10-5.5 16.5T280 213q-12 32-42 49v1q0 16-11 27t-27 11q-12 0-21.5-7T165 276h-30q-4 11-13.5 18t-21.5 7q-16 0-27-11t-11-27q-24-15-37.5-40T13 169q1-18 9-34-10-5-16-14t-6-20q0-16 11-26.5T37 64q6 0 9.5 3.5T50 76q0 5-3.5 9t-9 3.5-9 3.5q-3.5 4-3.5 9t3 8.5q3 3.5 7 3.5 15-17 36-27t45-10h67q14-29 49-37 12-3 21 4.5t9 20.5v46q12 13 18 29 9 2 14.5 8.5T300 163zm-25 0h-4q-4 0-7-2t-5-6q-5-18-18-31-4-4-4-9V64q-11 2-19 8-11 8-15 21-1 4-4.5 6.5T191 101h-75q-21 0-38 9.5T50 136q-11 16-12 35-2 23 9.5 43T80 244q8 3 8 11v9q0 5 3.5 8.5t8.5 3.5q5 0 8.5-3.5t4-9 4-9q3.5-3.5 8.5-3.5h50q5 0 8.5 3.5t4 9 4 9q3.5 3.5 8.5 3.5t9-3.5q4-3.5 4-8.5v-9q0-8 7-11 14-7 24.5-19t14.5-28q2-4 5-6t7-2h4v-26z"/></svg>