<svg viewBox="0 0 300 302.0011" xmlns="http://www.w3.org/2000/svg"><path d="M256 101q-18 0-30.5 13T213 145q0 18 12.5 30.5T256 188q18 0 31-12.5t13-30.5q0-18-13-31t-31-13zm0 62q-8 0-13-5t-5.5-13q-.5-8 5-13.5T256 126q8 0 13.5 5.5T275 145q0 8-5.5 13t-13.5 5zm0 50q-18 0-30.5 13T213 257q0 18 12.5 31t30.5 13q18 0 31-13t13-31q0-18-13-31t-31-13zm0 63q-8 0-13-5.5t-5-13.5q0-8 5-13.5t13-5q8 .5 13.5 5.5t5.5 13q0 8-5.5 13.5T256 276zm-68-163q0 6-4 9.5t-9 3.5H13q-6 0-9.5-3.5t-3.5-9q0-5.5 3.5-9T13 101h162q5 0 9 3.5t4 9.5v-1zM0 163q0-5 3.5-8.5T13 151h125q5 0 8.5 3.5t3.5 9q0 5.5-3.5 9T138 176H13q-6 0-9.5-3.5T0 164v-1zm188 63q0 5-4 8.5t-9 3.5H13q-6 0-9.5-3.5T0 226q0-5 3.5-9t9.5-4h162q5 1 9 4.5t4 8.5zm-38 50q0 5-3.5 8.5T138 288H13q-6 1-9.5-3T0 276q0-5 3.5-9t9.5-4h125q5 0 8.5 4t3.5 9zM38 76h225q15 0 26-11t11-26.5Q300 23 289 12T262 1H38Q22 1 11 12T0 38.5Q0 54 11 65t27 11zm0-50h225q5 0 8.5 3.5t3.5 9q0 5.5-3.5 9T262 51H38q-6 0-9.5-3.5t-3.5-9q0-5.5 3.5-9T38 26z"/></svg>