<svg viewBox="0 0 300 302.0011" xmlns="http://www.w3.org/2000/svg"><path d="M238 26h-13V13q0-5-3.5-8.5t-9-3.5q-5.5 0-9 3.5T200 14v12H100V13q0-5-3.5-8.5t-9-3.5q-5.5 0-9 3.5T75 14v12H63q-17 0-31.5 8.5t-23 23Q0 72 0 89v149q0 17 8.5 31.5t23 23Q46 301 63 301h175q16 0 30.5-8.5t23-23Q300 255 300 238V88q0-16-8.5-30.5t-23-23Q254 26 237 26h1zM63 51h175q15 0 26 11t11 26v13H25V88q0-15 11-26t27-11zm175 225H63q-16 0-27-11t-11-27V126h250v112q0 16-11 27t-27 11h1zm-42-94q4 4 4 9t-3.5 8.5q-3.5 3.5-9 3.5t-8.5-3l-16-16v54q0 6-4 9.5t-9 3.5q-5 0-9-3.5t-4-9.5v-54l-16 16q-3 3-8.5 3t-9-3.5Q100 196 100 191t4-9l20-20q11-11 26-11t26 11l20 20z"/></svg>