<svg viewBox="0 0 300 302.0011" xmlns="http://www.w3.org/2000/svg"><path d="M233 93q-13-11-17-16-16-15-16-38 0-16-9.5-27T166 1h-34q-14 0-23 11.5T100 40q0 21-16 37-4 5-17 16-20 17-30 28-17 18-26 36-11 22-11 47 0 19 8.5 35.5t23.5 26Q47 275 65 276h22v12q0 6 4 9.5t9 3.5q5 0 8.5-3.5t3.5-9.5v-12h25v12q0 6 4 9.5t9 3.5q5 0 8.5-3.5t3.5-9.5v-12h25v12q0 6 4 9.5t9 3.5q5 0 8.5-3.5t3.5-9.5v-12h23q18-1 33-10.5t23.5-26Q300 223 300 204q0-24-11-47-9-18-26-36-10-11-30-28zM78 251H66q-18-1-29.5-14.5T25 204q0-19 9-37 8-15 23-30 8-9 27-25 11-10 21-20l-1 2q-3 9-12 27-14 27-20 42-9 26-9 48t15 40zm53-1q-18 0-30.5-11.5T88 210q0-17 8-40 5-13 18-38 10-19 13-28 2-5 4-12 2 7 4 12 4 9 14 28 12 25 17 38 9 23 9 40t-13 28.5Q149 250 131 250zm103 1h-50q16-18 16-40t-9-48q-6-15-20-42-9-18-12.5-27t-6-23.5Q150 56 150 45V27h13q5 0 8.5 3.5T175 40q0 15 6 29.5T198 95q5 5 18 17h1q18 16 26 25 15 15 23 30 9 18 9 37t-11.5 32.5Q252 250 234 251z"/></svg>