<svg viewBox="0 0 300 302.0011" xmlns="http://www.w3.org/2000/svg"><path d="M238 61V38q-1-15-11.5-26T200 1H100Q84 1 73 12T62 39v22Q45 71 35 88.5T25 126v112q0 17 8.5 31.5t23 23Q71 301 87 301h126q16 0 30.5-8.5t23-23Q275 255 275 238V126q0-20-10-37.5T238 61zM88 38q0-5 3.5-8.5T100 26h100q5 0 8.5 3.5T212 38v14q-6-1-12-1H100q-6 0-13 1V38h1zM50 138h125v75H50v-75zm200 100q0 16-11 27t-26 11H88q-16 0-27-11t-11-27h138q5 1 8.5-3t3.5-9V126q0-5-3.5-9t-8.5-3H52q4-17 17.5-27.5T100 76h100q21 0 35.5 14.5T250 126v112z"/></svg>