<svg viewBox="0 0 300 302.0011" xmlns="http://www.w3.org/2000/svg"><path d="M238 151h-33l7-54q1-8-1-16.5t-7-15Q199 59 191.5 55T175 51h-30l1-4q1-10 3-14 3-7 11-7h40q5 0 9-3.5t4-9q0-5.5-4-9T200 1h-40q-15 0-25.5 9.5T122 34l-2 17H38Q20 51 9 64.5T1 96l19 150q3 24 20.5 39.5T82 301h156q16 0 30.5-8.5t23-23Q300 255 300 238v-25q0-16-8.5-30.5t-23-23Q254 151 237 151h1zm37 62H125q0-15 11-26t27-11h75q15 0 26 11t11 26zM175 76q6 0 10 5.5t2 11.5l-1 8h-47l3-25h33zM28 81q4-5 9-5h80l-3 25H27l-2-10q-1-5 3-10zm16 162L30 126h153l-3 25h-17q-17 0-31.5 8.5t-23 23Q100 197 100 214q-1 22 1 33 3 19 12 29H82q-15 0-25.5-9.5T44 243zm194 33h-75q-16 0-27-11t-11-26h46l11 7q27 18 30.5 18.5T243 245l11-6h21q0 15-11 26t-27 11h1z"/></svg>