<svg viewBox="0 0 300 302.0011" xmlns="http://www.w3.org/2000/svg"><path d="M119 32q0-13 9-22t22-9q13 0 22 9t9 22q0 10-5 17.5T162 61v15q1 5-3 9t-9 4q-5 0-9-4t-4-9V61q-8-4-13-11.5T119 32zm115 201l-46-16v-65q-1-14-9.5-25T156 114q-17-3-30.5 8.5T112 151v95l-12-11q-12-10-27-9t-25.5 12q-10.5 11-10 26.5T49 291l7 6q4 4 9 4t8.5-3.5q3.5-3.5 3.5-9t-3-9.5l-8-6q-3-4-3.5-9t3-9q3.5-4 9-4t9.5 3l22 18q4 4 9.5 4.5t11-2q5.5-2.5 8.5-7.5t3-10V151q0-6 4-9.5t9.5-3q5.5.5 8.5 4.5t3 9v74q0 4 2 7.5t6 4.5l55 18q10 4 16.5 13t7.5 20q0 5 4 8.5t9 3.5q5 0 8.5-4t3.5-9q-1-19-12-34t-29-21zm-24-114q4 0 7-2l11-8q8 5 16 5 13 0 22-9.5t9-22.5q0-13-9-22t-22-9q-13 0-22 9t-9 22v7l-10 8q-4 3-5 8t2.5 9.5q3.5 4.5 9.5 4.5zM72 109l11 8q3 2 7 2 6 0 9.5-4.5t2.5-9.5q-1-5-5-8l-10-8q1-4 0-7 1-13-8.5-22T56 51q-13 0-22 9t-9 22q0 13 9 22.5t22 9.5q8 0 16-5z"/></svg>