<svg viewBox="0 0 300 302.0011" xmlns="http://www.w3.org/2000/svg"><path d="M295 103q-5-3-11-1l-73 24q-7 1-12-3-6-10-17-16t-23-6h-21V63h25q5 1 8.5-3t3.5-9q0-5-3.5-9t-8.5-4H88q-6 0-9.5 4T75 51q0 5 3.5 9t9.5 4h25v37H75L51 91q-9-3-18-2t-16.5 6q-7.5 5-12 13.5T0 126v18q0 16 9 29t24 18l17 6v4q0 21 14.5 35.5T100 251h64q14 0 26.5-6t21.5-16l85-100q3-4 3-8v-8q0-6-5-10zM42 168q-8-3-12.5-9.5T25 144v-18q0-7 5-10.5t11-1.5l9 4v53l-8-3zm151 45q-11 13-29 13h-64q-10 0-17.5-7.5T75 201v-75h84q6 0 11.5 3t8.5 9l2 2q7 7 17 9.5t20-.5l40-13-65 77zm100-5q5 6 6.5 13.5T298 236q-3 7-9 11t-14 4q-8 0-14-4t-9-11q-3-7-1.5-14.5T257 208l10-11q3-3 8-3t8 3l10 11z"/></svg>