<svg viewBox="0 0 300 302.0011" xmlns="http://www.w3.org/2000/svg"><path d="M100 126q-10 0-17.5-7.5T75 101q0-10 7.5-17.5T100 76q10 0 17.5 7.5T125 101q0 10-7.5 17.5T100 126zm144-38q13 1 22-8.5t9-22.5q0-13-9-22t-22-9q-13 0-22.5 9T212 57q0 13 9.5 22.5T244 89v-1zm-75 63q0-8-5.5-13.5T150 132q-8 0-13.5 5.5T131 151q0 8 5.5 13.5T150 170q8 0 13.5-5.5T169 151zm125-41q-1-5-5.5-7.5t-9.5-1q-5 1.5-7.5 6T270 117q5 17 5 34 0 34-17 62.5T212.5 259Q184 276 150 276t-62.5-17Q59 242 42 213.5T25 151q0-34 17-62.5T87.5 43Q116 26 150 26q17 0 34 5 5 1 9.5-1.5t6-7.5q1.5-5-1-9.5T191 7q-20-6-41-6-41 0-75.5 20T20 75.5Q0 110 0 151t20 75.5Q40 261 74.5 281t75.5 20q41 0 75.5-20t54.5-54.5q20-34.5 20-75.5 0-21-6-41zM138 76q0 5 3.5 8.5T150 89q17-1 31.5 7.5t22.5 23q8 14.5 8.5 31.5t-8 31.5q-8.5 14.5-23 22.5t-31.5 8q-17 0-31.5-8T96 182.5Q88 168 88 151q-1-5-4.5-9t-8.5-4q-5 0-9 4t-3 9q-1 24 11 44t32 31.5q20 11.5 44 11.5t44-11.5q20-11.5 31.5-31.5t12-44q.5-24-11.5-44t-32-32q-20-12-44-12-5 0-8.5 4t-4.5 9h1z"/></svg>