<svg viewBox="0 0 300 302.0011" xmlns="http://www.w3.org/2000/svg"><path d="M298 90q-6-16-19-26t-29-12V38q0-15-11-26T212 1H88Q72 1 61 12T50 39v13q-17 2-30 12.5t-17.5 25Q-2 104 3.5 117T25 137v89q0 20 10 37.5T62.5 291Q80 301 100 301h100q20 0 37.5-10t27.5-27.5q10-17.5 10-37.5v-89q15-5 21.5-19t1.5-28zm-48 136q0 21-14.5 35.5T200 276H100q-21 0-35.5-14.5T50 226v-89q4-1 13-6 6-4 10-5t9 2q14 10 30.5 10t30.5-10q3-2 7-2t7 2q14 10 30.5 10t30.5-10q5-3 9-2t10 5q9 5 13 6v89zm23-117q-3 5-11.5 4t-14.5-5q-10-7-22-7t-22 7q-7 5-15.5 5t-15.5-5q-10-7-22-7t-22 7q-7 5-15.5 5T97 108q-10-7-22-7t-22 7q-6 4-13.5 5T28 110.5Q24 107 26 98q4-11 14.5-17T62 76h126q5 0 8.5-3.5t3.5-9q0-5.5-3.5-9T188 51H75V38q0-5 3.5-8.5T88 26h125q5 0 8.5 3.5T225 38v25q0 6 3.5 9.5T237 76q14 0 23.5 5.5t13 13.5q3.5 8-.5 14z"/></svg>