<svg viewBox="0 0 300 302.0011" xmlns="http://www.w3.org/2000/svg"><path d="M300 226q0-5-3.5-9t-8.5-4H113q-16 0-27-10.5T75 176V63q0-16-8.5-30.5t-23-23Q29 1 13 1 7 1 3.5 4.5t-3.5 9q0 5.5 3.5 9T13 26q15 0 26 11t11 27v112q0 18 9 32.5T84 231q-9 12-9 26 0 18 13 31t31 13q18 0 31-13t13-31q-1-10-5-18h59q-4 8-4 18 0 18 12.5 31t30.5 13q18 0 31-13t13-31q0-11-5-21 5-3 5-10zm-162 31q-1 8-6 13.5t-13 5.5q-8 0-13.5-5.5T100 257q0-8 5.5-13.5T119 238q8 0 13.5 5.5T137 257h1zm118 19q-8 0-13-5.5t-5-13.5q0-8 5-13.5t13-5q8 .5 13.5 5.5t5.5 13q0 8-5.5 13.5T256 276zm-6-225V38q0-15-11-26T213 1h-25q-16 0-27 11t-11 27v12q-21 0-35.5 14.5T100 101v37q0 21 14.5 36t35.5 15h100q21-1 35.5-15.5T300 138v-37q0-21-14.5-35.5T250 51zm-75-13q0-5 3.5-8.5T188 26h25q5 0 8.5 3.5T225 38v13h-50V38zm50 38v87h-50V76h50zm-100 62v-37q0-10 7.5-17.5T150 76v87q-10 0-17.5-7t-7.5-18zm150 0q0 11-7.5 18t-17.5 8V76q10 0 17.5 7.5T275 101v37z"/></svg>