<svg viewBox="0 0 300 302.0011" xmlns="http://www.w3.org/2000/svg"><path d="M138 176q0 5-4 9t-9 4h-12q-6 0-9.5-4t-3.5-9q0-5 3.5-9t8.5-4h13q5 0 9 4t3 9h1zm50-13h-13q-5 0-8.5 4t-3.5 9q0 5 3.5 9t8.5 4h13q5 0 8.5-4t3.5-9q0-5-3.5-9t-9.5-4h1zm-63 50h-12q-6 0-9.5 4t-3.5 9q0 5 3.5 8.5t8.5 3.5h13q5 0 9-3.5t4-8.5q0-5-4-9t-9-4zm63 0h-13q-5 0-8.5 4t-3.5 9q0 5 3.5 8.5t8.5 3.5h13q5 0 8.5-3.5t3.5-8.5q0-5-3.5-9t-9.5-4h1zM125 63h-12q-6 0-9.5 4t-3.5 9q0 5 3.5 9t8.5 4h13q5-1 9-4.5t4-8.5q0-5-4-9t-9-4zm63 0h-13q-5 0-8.5 4t-3.5 9q0 5 3.5 9t8.5 4h13q5-1 8.5-4.5T200 76q0-5-3.5-8.5T187 63h1zm-63 50h-12q-6 0-9.5 4t-3.5 9q0 5 3.5 8.5t8.5 4.5h13q5-1 9-4.5t4-8.5q0-5-4-9t-9-4zm63 0h-13q-5 0-8.5 4t-3.5 9q0 5 3.5 9t8.5 4h13q5-1 8.5-4.5t3.5-8.5q0-5-3.5-9t-9.5-4h1zm112 13v112q0 17-8.5 31.5t-23 23Q254 301 238 301H63q-17 0-31.5-8.5t-23-23Q0 255 0 238v-62q0-22 14-39.5T50 115V63q0-16 8.5-30.5t23-23Q96 1 112 1h76q16 0 30.5 8.5t23 23Q250 47 250 64v1q22 4 36 21.5t14 39.5zm-25 0q0-16-11-27t-27-10q-5-1-8.5-4.5T225 76V63q0-15-11-26t-26-11h-75q-16 0-27 11T75 64v62q0 5-3.5 9t-8.5 4q-16 0-27 10.5T25 176v62q0 16 11 27t27 11h175q15 0 26-11t11-27V126zm-37 37h-13q-5 0-8.5 4t-4 9q-.5 5 3.5 9t9 4h13q5 0 8.5-4t3.5-9q0-5-3.5-9t-9.5-4h1zm0 50h-13q-5 0-8.5 4t-4 9q-.5 5 3.5 8.5t9 3.5h13q5 0 8.5-3.5t3.5-8.5q0-5-3.5-9t-9.5-4h1zM75 163H63q-6 0-9.5 4t-3.5 9q0 5 3.5 9t8.5 4h13q5 0 9-4t3.5-9q-.5-5-4-9t-8.5-4zm0 50H63q-6 0-9.5 4t-3.5 9q0 5 3.5 8.5T62 238h13q5 0 9-3.5t3.5-8.5q-.5-5-4-8.5T75 213zm163-100h-13q-5 0-8.5 4t-4 9q-.5 5 3.5 9t9 4h13q5-1 8.5-4.5t3.5-8.5q0-5-3.5-9t-9.5-4h1z"/></svg>