<svg viewBox="0 0 300 302.0011" xmlns="http://www.w3.org/2000/svg"><path d="M250 1H50Q29 1 14.5 15.5T0 51v150q0 21 14.5 35.5T50 251h37l46 39q8 7 17.5 7t15.5-6l48-40h36q21 0 35.5-14.5T300 201V51q0-21-14.5-35.5T250 1zm25 200q0 10-7.5 17.5T250 226h-40q-5 0-8 3l-52 43-51-43q-3-3-8-3H50q-10 0-17.5-7.5T25 201V51q0-10 7.5-17.5T50 26h200q10 0 17.5 7.5T275 51v150zm-53-58q3 4 3 9t-4 8q-8 8-21 15-26 13-50 13t-48-12q-13-7-23-15v-1q-4-3-4-8t3.5-9q3.5-4 8.5-4.5t9 3.5q4 4 16 11 20 11 38 11t38-11q12-7 16-11t9-3.5q5 .5 9 4.5zM88 95q0-8 5-13.5t13-5.5q8 0 13.5 5.5T125 95q0 8-5.5 13t-13.5 5q-8 0-13-5t-5-13zm87 0q0-8 5.5-13.5T194 76q8 0 13.5 5.5T213 95q0 8-5.5 13t-13.5 5q-8 0-13.5-5T175 95z"/></svg>