<svg viewBox="0 0 300 302.0011" xmlns="http://www.w3.org/2000/svg"><path d="M213 126h37q15 0 26.5-11T288 88V51q0-15-11.5-26.5T250 13h-37q-16 0-27 11.5T175 51v37q0 16 11 27t27 11zm-13-75q0-5 3.5-9t9.5-4h37q5 0 9 4t4 9v37q0 6-4 9.5t-9 3.5h-37q-6 0-9.5-3.5T200 88V51zm-53 179q3 4 3 9t-4 8l-45 43q-10 11-25.5 11T49 290L4 247q-4-3-4-8t3.5-9q3.5-4 8.5-4t9 3l42 40V13q0-5 3.5-8.5T75 1q5 0 9 3.5t4 8.5v256l41-40q4-3 9-3t9 4zm143 16l-34-55q-4-7-10.5-11t-14.5-4q-8 0-14.5 4T206 190l-34 56q-4 7-3.5 14.5t4.5 14q4 6.5 10.5 10T197 288h68q8 0 14.5-3.5t10-10q3.5-6.5 4-14T290 246zm-22 16q-1 1-3 1h-68q-2 0-3-1.5t0-2.5l34-56q1-2 3-2t4 2l33 55q1 2 0 4z"/></svg>