<svg viewBox="0 0 300 302.0011" xmlns="http://www.w3.org/2000/svg"><path d="M187 82q2 12-3 23t-16 16q-5 3-6 5 1 5-3 9t-9 3.5q-5-.5-8.5-4T137 126q1-11 8-18 4-4 11-9 3-1 5-4.5t1.5-8q-.5-4.5-3.5-7t-7-3.5q-6-1-10 3t-4 9.5q0 5.5-4 9t-9 3.5q-5 0-9-3.5t-4-8.5q1-18 14-29.5t31-7.5q11 2 19.5 10T187 82zm-37 69q-8 0-13.5 5.5T131 170q0 8 5.5 13.5T150 189q8 0 13.5-5.5T169 170q0-8-5.5-13.5T150 151zm113-38q-1 25-11 47t-28 38q-12 10-18 23t-6 27v7q0 19-13.5 32.5T154 301h-8q-19 0-32.5-13.5T100 255v-2q0-16-7-30.5T73 196q-20-19-29-44.5T38 99q4-25 17.5-46t35-34.5Q112 5 136.5 2T184 6.5Q207 14 225 30t28 38q10 22 9 46l1-1zm-88 142v-4h-50v4q0 9 6 15t15 6h8q9 0 15-6t6-15zm63-142q0-18-8-35t-22-30q-25-22-58-22l-10 1q-30 3-51.5 24.5T63 102q-2 21 5 41t22 34q23 22 31 49h57q7-27 30-47 14-12 22-29.5t8-35.5v-1z"/></svg>