<svg viewBox="0 0 300 302.0011" xmlns="http://www.w3.org/2000/svg"><path d="M255 134q-7-21-22-34-17-15-45-20 2-14 10-25t20-18q5-2 6.5-7t-1-9.5q-2.5-4.5-7-6t-9.5.5q-18 9-30 25.5T163 76V13q0-5-4-8.5T150 1q-5 0-9 3.5t-4 8.5v63q-2-19-14-35.5T93 15q-5-3-9.5-1t-7 6.5Q74 25 75.5 30t6.5 7q12 7 20 18t10 25q-44 9-61 41-13 24-13 67 0 39 10 62 14 31 48 43l3 1q52 12 90 3.5t57-36q19-27.5 16-72.5 2-29-7-55zm-52-24q18 8 26 26l-35 35-26-26 35-35zm-26 79l-27 27-27-27 27-27 27 27zm-27-88q12 0 24 1l-24 25-25-25q13-1 25-1zm-53 9l35 35-26 26-35-35q8-18 26-26zM64 213q-3-24 0-48l24 24-24 24zm34 55q-19-8-27-27l35-34 26 26-34 35zm52 8q-12 0-24-1l24-24 24 24q-12 1-24 1zm52-8l-34-35 26-26 35 34q-8 19-27 27zm34-55l-24-24 24-24q3 24 0 48z"/></svg>