<svg viewBox="0 0 300 302.0011" xmlns="http://www.w3.org/2000/svg"><path d="M196 213q0 16-11 27t-27 11h-33q-5 0-9-3.5t-3.5-9q.5-5.5 4-9t8.5-3.5h33q6 0 9.5-3.5t3.5-9q0-5.5-3.5-9T158 201h-20q-6 0-9.5-3.5t-3.5-9q0-5.5 3.5-9t9.5-3.5h12q5 0 8.5-3.5t4-9q.5-5.5-3.5-9t-9-3.5h-25q-5 0-8.5-3.5t-3.5-9q0-5.5 3.5-9t8.5-3.5h25q16 0 26.5 11t10.5 26q0 12-6 21 7 5 11 13t4 16zm83-176l-41 82q25 31 25 69 0 31-15.5 57t-41 41Q181 301 150 301t-56.5-15q-25.5-15-41-41T37 188q1-19 7-37t18-32L21 37q-2-6-2-12.5t3.5-12Q26 7 31.5 4T44 1h37q15 0 27 7.5T126 29l24 47h1l23-47q6-13 18.5-20.5T219 1h38q6 0 11.5 3t9 8.5q3.5 5.5 4 12T279 37zM44 26l37 74q19-15 42-21l-19-39q-3-7-9-10.5T81 26H44zm194 162q-1-23-12.5-43T194 113q-20-12-44-12h-7q-23 2-41 14t-29 31.5Q62 166 62 189t12 43q12 20 32 32t44 12q24 0 44-12t31.5-32q11.5-20 11.5-44h1zm18-162h-37q-7 0-13 3.5T196 40l-19 39q24 6 43 21l36-74z"/></svg>