<svg viewBox="0 0 300 302.0011" xmlns="http://www.w3.org/2000/svg"><path d="M138 76V13q0-5 3.5-8.5T150 1q5 0 9 3.5t4 9.5v62q0 5-4 8.5t-9 4q-5 .5-9-3.5t-4-9h1zM59 275q-4 1-9 1-10 0-17.5-7.5T25 251q0-24 5-47l21-89q4-17 17.5-28T100 76q5 0 8.5-3.5t3.5-9q0-5.5-3.5-9T100 51q-27 0-47 16t-26 42L6 199q-6 26-6 52 0 21 15 35 7 7 16 11t19 4q9 0 16-3 5-1 7.5-6t1-9.5q-1.5-4.5-6.5-7t-9-.5zm235-76l-21-90q-6-26-26-42t-47-16q-5 0-8.5 3.5t-3.5 9q0 5.5 3.5 9T200 76q18 0 31.5 11t17.5 28l21 89q5 23 5 47 0 10-7.5 17.5T250 276q-4 0-9-1.5t-9.5 1q-4.5 2.5-6 7.5t1 9.5q2.5 4.5 7.5 5.5 8 3 16 3 10 0 19-4t16-11q15-14 15-35 0-26-6-52zm-96-40q5 8 7 17h8q5 0 8.5 3.5t3.5 9q0 5.5-3.5 9T213 201h-8q-2 9-7 17l7 8h1q8 0 13.5 5.5T225 245q0 8-5.5 13t-13.5 5q-8 0-13.5-5t-5.5-13l1-1-8-8q-8 5-17 7v8q0 5-4 8.5t-9 3.5q-5 0-9-3.5t-4-8.5v-8q-9-2-17-7l-8 8v1q0 8-5 13t-13 5q-8 0-13.5-5T75 245q0-8 5.5-13.5T94 226h1l7-8q-5-8-7-17h-8q-5 0-8.5-3.5t-3.5-9q0-5.5 3.5-9T87 176h8q2-9 7-17l-7-8h-1q-8 0-13.5-5.5T75 132q0-8 5.5-13.5T94 113q8 0 13 5.5t5 13.5v1l8 8q8-5 18-7v-8q0-5 3.5-8.5t8.5-3.5q5 0 9 3.5t4 8.5v8q9 2 17 7l8-8-1-1q0-8 5.5-13.5t13.5-5q8 .5 13.5 5.5t5.5 13q0 8-5.5 13.5T206 151h-1l-7 8zm-17 29q0-12-9-21.5t-22-9.5q-13 0-22 9.5t-9 22q0 12.5 9 22t22 9.5q13 0 22-9.5t9-22.5z"/></svg>