<svg viewBox="0 0 300 302.0011" xmlns="http://www.w3.org/2000/svg"><path d="M0 151q0 41 20 75.5T74.5 281q34.5 20 75.5 20t75.5-20q34.5-20 54.5-54.5t20-75.5q0-41-20-75.5T225.5 21Q191 1 150 1T74.5 21Q40 41 20 75.5T0 151zm275 0q0 34-17 62.5T212.5 259Q184 276 150 276t-62.5-17Q59 242 42 213.5T25 151q0-34 17-62.5T87.5 43Q116 26 150 26t62.5 17Q241 60 258 88.5t17 62.5zm-75 0q0 14-9 25l-10 10-35 36q-5 6-12.5 4t-9.5-9q-2-7 4-12l35-36 9-10q3-3 3-8t-3-8l-9-10-35-36q-6-5-4-12t9.5-9q7.5-2 12.5 4l35 36 10 10q9 11 9 25z"/></svg>