<svg viewBox="0 0 300 302.0011" xmlns="http://www.w3.org/2000/svg"><path d="M125 126q-16 0-26.5 11T88 163.5Q88 179 98.5 190t26.5 11h50q16 0 27-11t11-26.5q0-15.5-11-26.5t-27-11h-50zm63 37q0 6-4 9.5t-9 3.5h-50q-5 0-8.5-3.5t-3.5-9q0-5.5 3.5-9t8.5-3.5h50q5 0 9 3.5t4 8.5zm25 75q0 6-4 9.5t-9 3.5H100q-5 0-8.5-3.5t-3.5-9q0-5.5 3.5-9t8.5-3.5h100q5 0 8.5 3.5t3.5 8.5h1zm31-198l-21-21q-8-9-19.5-13.5T179 1h-79Q83 1 68.5 9.5T46 32.5Q38 47 37 63v175q1 17 9 31.5t22.5 23Q83 301 100 301h100q17 0 31.5-8.5t22.5-23q8-14.5 9-30.5V84q0-12-5-23.5T244 40zm-17 18q2 2 4 5h-31V32q3 2 6 5l21 21zm11 180q0 16-11 27t-27 11H100q-16 0-27-11t-11-26V63q1-15 11.5-26T100 26h75v37q0 11 7.5 18.5T200 88h38v150z"/></svg>