<svg viewBox="0 0 300 302.0011" xmlns="http://www.w3.org/2000/svg"><path d="M300 51q0-21-14.5-35.5T250 1H113Q92 1 77.5 15.5T63 51v72q0 4-4 8l-42 46Q5 193 1.5 213t3 39Q11 271 26 284q21 17 48 17 24 0 44-14 20 14 44 14 17 0 32-7.5t26-20.5l53-61q13-15 20-34t7-39V51zm-25 0H175q0-10 7.5-17.5T200 26h50q10 0 17.5 7.5T275 51zM113 26h44q-7 12-7 25H88q0-10 7-17.5t18-7.5zM42 264q-15-13-17-34t11-37l42-45q10-11 10-25V76h62v47q0 4-3 8l-42 46q-16 20-17 45.5t12 45.5q-13 8-29.5 7T42 264zm212-68l-53 61q-7 9-17.5 14t-21.5 5q-18 0-33-12.5T112.5 230q-1.5-21 11.5-37l41-45q10-11 10-25V76h100v63q0 16-5.5 30.5T254 196z"/></svg>