<svg viewBox="0 0 300 302.0011" xmlns="http://www.w3.org/2000/svg"><path d="M87 259zm0 0zm0 0zm-24 0zm216 11q-10 8-23.5 5T237 259q-2-3-5-5.5t-7-2.5q-4 0-7 2.5t-5 5.5q-3 8-10 12.5t-15.5 4.5q-8.5 0-15.5-4.5T162 259q-2-3-5-5.5t-7-2.5q-4 0-7 2.5t-5 5.5q-3 8-10 12.5t-15.5 4.5q-8.5 0-15.5-5t-10-12q-2-4-5-6t-7-2q-4 0-7 2t-5 6q-5 12-18 15.5T21 270q-4-4-9-3.5t-8.5 4Q0 274 0 279.5t4 8.5q16 14 36 13t35-15q16 15 37.5 15t37.5-15q16 15 37.5 15t37.5-15q15 14 35 14.5t36-12.5q3-3 3.5-8t-3-9q-3.5-4-8.5-4.5t-9 3.5zM25 213v-72q0-6 4-9l94-95q11-11 27-11t27 11l94 95q4 3 4 9v72q0 6 3.5 9.5t8.5 3.5h1q5 0 8.5-3.5t3.5-9.5v-72q0-16-11-27l-95-95Q182 7 166 3t-32 0q-16 4-28 16l-95 95Q0 125 0 141v72q0 6 3.5 9.5T12 226h1q5 0 8.5-3.5T25 213zm125-49q-21 0-38 13t-22 33q-2 6 1.5 11t10.5 5q4 0 7.5-3t4.5-7q3-12 13-19.5t23-7.5q13 0 23 7.5t13 19.5q1 4 4.5 7t7.5 3q7 0 10.5-5t1.5-11q-5-20-22-33t-38-13z"/></svg>