<svg viewBox="0 0 300 302.0011" xmlns="http://www.w3.org/2000/svg"><path d="M112 130q2 4-2 7l-15 12 7 19q1 4-2.5 6.5t-7.5.5l-17-11-17 11q-1 1-3 1t-4-1q-4-3-2-7l6-19-15-12q-4-3-2.5-7t6.5-4h18l7-19q2-4 6-4t6 4l6 19h19q5 0 6 4zm69-4h-18l-7-19q-2-4-6-4t-6 4l-6 19h-19q-5 0-6.5 4t2.5 7l15 12-6 19q-2 4 2 7 2 1 4 1t3-1l17-11 17 11q4 2 7.5-.5t2.5-6.5l-6-19 14-12q4-3 2.5-7t-6.5-4zm75 0h-18l-7-19q-2-4-6-4t-6 4l-6 19h-19q-5 0-6.5 4t2.5 7l15 12-6 19q-2 4 2 7 2 1 4 1t3-1l17-11 17 11q4 2 7.5-.5t2.5-6.5l-6-19 14-12q4-3 2.5-7t-6.5-4zm44-38v100q0 21-14.5 35.5T250 238h-36l-48 40q-7 6-16 6t-17-6l-46-40H50q-21 0-35.5-14.5T0 188V88q0-20 14.5-35T50 38h200q21 0 35.5 15T300 89v-1zm-25 0q0-10-7.5-17.5T250 63H50q-10 0-17.5 7.5T25 88v100q0 11 7.5 18t17.5 7h41q5 0 8 3l51 43 52-43q3-3 8-3h40q10 0 17.5-7t7.5-18V88z"/></svg>