<svg viewBox="0 0 300 302.0011" xmlns="http://www.w3.org/2000/svg"><path d="M238 88h-82q-2 0-4-1.5t-2-4.5q0-20-12-35V37q0-12-7.5-22T112 1q-4-1-8 2t-4 7v16h-8q-3 0-9 1l-9 2-46 16Q11 51 3.5 67.5t-1.5 33Q8 117 26 126q8 3 27 7 4 1 7 4.5t3 7.5v112q0 18 12.5 31t30.5 13q18 0 31-13t13-31v-6h63v6q0 18 12.5 31t30.5 13q18 0 31-12.5t13-31.5V151q0-17-8.5-31.5t-23-23Q254 88 238 88zM57 108q-16-3-20-5-9-4-11.5-11t1-14Q30 71 37 69l45-16q3-1 13-2 13 1 21.5 10t8.5 21.5q0 12.5 9 21.5t22 9h81q16 0 27 11t11 27q-14-2-25 8l-16 15q-4 4-8 0l-16-15q-9-8-20.5-8t-20.5 8l-17 15q-4 4-7 0l-17-15q-9-8-20-8t-21 8v-14q0-13-8-23.5T57 108zm212 163q-5 5-13 5t-13-5.5q-5-5.5-5-13.5v-19q-1-5-4.5-8.5T225 226h-87q-6 0-9.5 3.5T125 238v19q0 8-5.5 13.5T106 276q-8 0-13-5.5T88 257v-64l16-15q4-4 7 0l17 15q9 8 20.5 8t20.5-8l16-15q4-4 8 0l17 15q9 8 20.5 8t20.5-8l16-15q4-4 8 0v79q0 8-6 14z"/></svg>