<svg viewBox="0 0 300 302.0011" xmlns="http://www.w3.org/2000/svg"><path d="M288 201h-4l-11-32q-6-19-22.5-31T214 126H86q-5 0-11 1V88q0-15 11-26t26-11h3q4 11 13.5 18t21.5 7h38q15 0 26-11t11-26.5Q225 23 214 12T188 1h-38q-12 0-21.5 7T115 26h-2q-17 0-31.5 8.5t-23 23Q50 72 50 88v49q-17 12-23 32l-11 32h-3q-6 0-9.5 3.5t-3.5 9q0 5.5 3.5 9T13 226h125v50h-38q-5 0-9 3.5t-3.5 9q.5 5.5 4 9t8.5 3.5h100q5 0 9-3.5t4-9q0-5.5-4-9t-9-3.5h-37v-50h125q5 0 8.5-3.5t3.5-9q0-5.5-3.5-9T288 201zM150 26h38q5 0 8.5 3.5t3.5 9q0 5.5-3.5 9T187 51h-37q-5 0-8.5-3.5t-3.5-9q0-5.5 3.5-9T150 26zM50 177q4-12 14-19t22-7h128q12 0 22 7t14 19l8 24H42l8-24z"/></svg>