<svg viewBox="0 0 300 302.0011" xmlns="http://www.w3.org/2000/svg"><path d="M294 178q-13-8-26-12-8-3-13-9.5t-5-14.5v-10q21-3 35.5-13T300 92q0-13-8-27t-22-23.5Q256 32 239 32h-1V10q0-5-4-7.5T226 1q-12 4-19 14t-7 22v13q-12 14-13 32 1 5-12 15-8 6-25 18-26 16-39 27-22 17-34 36-14 23-14 48-18-31-28-70T25 77q0-18 11.5-32.5t28-17.5q16.5-3 30 3t22 18.5Q125 61 125 76q0 5 3.5 8.5T137 88q5 0 9-3t4-8q-1-29-19.5-50.5T85 2Q63-1 43 8.5T11.5 36Q0 54 0 76q0 62 21 118 13 37 32 64.5t51 37.5q14 5 30 5h129q5 0 8.5-3.5t3.5-9q0-5.5-3.5-9T262 276h-37q13-17 12-38 1-16-7.5-30.5t-23-23Q192 176 175 176q-5 0-8.5 3.5t-3.5 9q0 5.5 3.5 9t8.5 3.5q20 0 29 12 10 14 8.5 29T200 266.5q-11 9.5-25 9.5h-41q-11 0-21-3-25-15-25-45 0-20 11-38 10-15 29-30 11-9 35-24 25-17 34-25 11 15 28 19v12q0 16 9.5 29t25.5 18q11 4 21 10 3 2 7 2 7 0 10-5t1.5-10q-1.5-5-5.5-8zm-55-71q-11 0-19-7t-7.5-17.5q.5-10.5 8-18t18-7.5q10.5 0 19 6t13 14q4.5 8 4.5 15t-11.5 11q-11.5 4-24.5 4z"/></svg>