<svg viewBox="0 0 301 302.0011" xmlns="http://www.w3.org/2000/svg"><path d="M288 114q5 0 9-4t4-9V51q0-21-15-35.5T251 1h-50q-5 0-9 3.5t-4 8.5q0 5 4 9t9 4h50q3 0 7 1L151 133 44 27q3-1 6-1h51q5 0 8.5-3.5t4-9q.5-5.5-3.5-9T101 1H50Q30 1 15 15.5T0 51v50q0 5 4 9t9 4q5 0 8.5-4t3.5-9V51q0-3 1-7l107 107L26 258q-1-3-1-7v-50q0-5-3.5-9t-8.5-4q-5 0-9 4t-4 9v50q0 21 15 35.5T50 301h50q6 0 9.5-3.5t3.5-8.5q0-5-3.5-9t-9.5-4H50q-3 0-6-1l107-106 106 106q-3 1-6 1h-51q-5 0-8.5 3.5t-3.5 9q0 5.5 3.5 9t8.5 3.5h51q20 0 35-14.5t15-35.5v-50q0-5-4-8.5t-9-4q-5-.5-8.5 3.5t-3.5 9v50q0 3-1 6L169 151 275 45q1 3 1 6v50q0 5 3.5 9t8.5 4zm1-1q5 0 8.5-3.5t3.5-8.5V38q0-15-11-26T263 1h-62q-5 0-9 3.5t-3.5 9q.5 5.5 4 9T201 26h57L151 133 44 26h57q5 0 8.5-3.5t4-9q.5-5.5-3.5-9T101 1H39Q23 1 12 12T1 39v62q0 5 3.5 9t9 4q5.5 0 9-4t3.5-9V44l107 107L26 258v-57q0-5-3.5-8.5t-9-4q-5.5-.5-9 3.5T1 201v62q0 16 11 27t26 11h63q5 0 8.5-3.5t3.5-9q0-5.5-3.5-9T101 276H44l107-107 107 107h-57q-5 0-9 3.5t-3.5 9q.5 5.5 4 9t8.5 3.5h63q15 0 26-11t11-27v-62q0-5-3.5-8.5t-9-4q-5.5-.5-9 3.5t-3.5 9v57L169 151 276 44v57q0 5 3.5 9t8.5 4l1-1z"/></svg>