<svg viewBox="0 0 300 302.0011" xmlns="http://www.w3.org/2000/svg"><path d="M175 301q-7 0-10.5-5.5T163 284l25-63q2-4 7-6.5t9.5-.5q4.5 2 7 7t.5 10l-25 62q-2 4-5 6t-7 2zm-50 0q-2 0-5-1-4-2-6.5-6.5t-.5-9.5l25-63q2-4 7-6.5t9.5-.5q4.5 2 7 7t.5 10l-25 62q-2 4-5 6t-7 2zm-50 0q-2 0-5-1-4-2-6.5-6.5T63 284l25-63q3-6 10-7t11.5 4.5Q114 224 112 231l-25 62q-2 4-5 6t-7 2zm-32-56q-3 0-6-2-15-7-24.5-21T1 191.5Q-1 175 4.5 159T22 131q6-4 5-11-4-18-1-36 6-31 27.5-53.5T106 3q34-7 64.5 8.5T215 58q3 6 10 7 30 6 49 27.5t24 49.5q5 28-6.5 54.5T253 238q-6 4-12.5.5t-6.5-11q0-7.5 7-10.5 19-11 27.5-30.5t5-40.5q-3.5-21-17.5-36.5T220 90q-9-2-16-7.5T193 69q-11-22-32.5-34T115 26.5Q91 30 73 47T51 88q-2 14 0 27 2 10-1 19t-11 16q-8 7-11.5 17t-2 21q1.5 11 7.5 19.5T49 221q4 2 5.5 6t.5 8q-1 4-4.5 7t-7.5 3zm123-56q-8 0-11-6l-11-19-11 19q-4 6-11 6t-10.5-6.5Q108 176 111 170l11-19h-22q-5 0-8.5-3.5t-3.5-9q0-5.5 3.5-9t8.5-3.5h22l-11-19q-3-6 .5-12.5T122 88q7 0 11 6l11 19 11-19q3-6 10.5-6t11 6.5q3.5 6.5-.5 12.5l-11 19h23q5 0 8.5 3.5t3.5 9q0 5.5-3.5 9T188 151h-23l11 19q4 6 .5 12.5T166 189z"/></svg>