<svg viewBox="0 0 300.0096 302.0011" xmlns="http://www.w3.org/2000/svg"><path d="M92.01 167l.5.5-.5-.5zm115 1q-1 0-.5-.5t.5.5zm93-20q-6 36-27.5 65t-54 46q-32.5 17-68.5 17t-68.5-17q-32.5-17-54-46T.01 148q-2-15 8.5-25.5t25.5-8.5q29 4 54 19 2-25 12-50.5t25-44.5q10-12 25-12t25 12q15 19 25 44t12 51q25-15 54-19 15-2 25.5 8.5t8.5 25.5zm-163 102q-3-24-14.5-45.5T92.01 167q-13-11-29-18.5t-33-9.5q-2-1-3.5.5t-1.5 4.5q4 28 20 51t40 37.5q24 14.5 52 17.5zm13-46q13-30 38-53 0-25-8.5-51.5T155.01 53q-2-2-5-2t-5 2q-16 20-24.5 46.5t-8.5 51.5q25 23 38 53zm124-64q-2-2-4-1-17 2-33.5 10t-29.5 19q-18 15-29.5 36.5t-14.5 45.5q28-3 52-17.5t40-37.5q16-23 20-51 0-2-1-4z"/></svg>