<svg viewBox="0 0 300 302.0011" xmlns="http://www.w3.org/2000/svg"><path d="M94 64q-2-6-9-6-6 0-8 6l-25 65q-1 3 0 6t4 4h3q6 0 8-5l4-11h29l4 11q1 3 4 4.5t6 .5q3-1 4.5-4t-.5-6L94 64zm-17 43l8-22 9 22H77zm63-49q-3 0-5 2t-2 6v65q0 4 2 6t5.5 2q3.5 0 5.5-2t2-6V66q0-4-2-6t-6-2zm98-57H63Q46 1 31.5 9.5t-23 23Q0 47 0 63v175q0 17 8.5 31.5t23 23Q46 301 62 301h142q13 0 24.5-4.5T248 283l34-34q9-8 13.5-19.5T300 205V63q0-16-8.5-30.5t-23-23Q254 1 238 1zM25 238V63q0-15 11-26t26-11h176q15 0 26 11t11 27v124h-50q-16 0-26.5 11T188 226v50H63q-16 0-27-11t-11-26v-1zm206 27q-8 8-19 10v-49q1-5 4.5-8.5t8.5-3.5h49q-2 10-10 18l-33 33z"/></svg>