<svg viewBox="0 0 300 302.0011" xmlns="http://www.w3.org/2000/svg"><path d="M300 251v12q0 6-3.5 9.5t-9 3.5q-5.5 0-9-3.5T275 264v-13q0-5-3.5-9t-9.5-4h-99v25q0 6-4 9.5t-9 3.5q-5 0-8.5-3.5T138 264v-26H38q-6 0-9.5 4t-3.5 9v12q0 6-3.5 9.5t-9 3.5q-5.5 0-9-3.5T0 264v-13q0-16 11-27t27-11h225q15 1 26 11.5t11 26.5zM0 151V76q0-16 11-27t27-10h75q15-1 26 10t11 27v75q0 16-11 26.5T113 188H38q-16 0-27-10.5T0 151zm25 0q0 5 3.5 8.5T37 163h76q5 0 8.5-3.5t3.5-8.5V76q0-5-3.5-8.5T112 64H38q-6 0-9.5 3.5T25 76v75zm275-50v50q0 16-11 27t-27 10h-49q-16 0-27-10.5T175 151v-50q0-16 11-26.5T212 64h51q15 0 26 10.5t11 26.5zm-25 0q0-5-3.5-8.5T262 89h-49q-6-1-9.5 3t-3.5 9v50q0 5 3.5 8.5t9.5 3.5h50q5 0 8.5-3.5t3.5-8.5v-50z"/></svg>