<svg viewBox="0 0 300.0228 302.0011" xmlns="http://www.w3.org/2000/svg"><path d="M272 256q12-12 19-27.5t9-32.5q3-35-17-64t-53-39q-7-2-10-9-7-25-25.5-43T151 16.5q-25-6.5-50 0T57 40L21 5q-3-4-8.5-4t-9 3.5Q0 8 0 13.5T4 22l275 275q3 4 8.5 4t9-3.5q3.5-3.5 3.5-9t-4-8.5l-24-24zM114 39q27-4 50.5 11T197 91q2 9 9 16t16 10q25 8 40 29.5t13 47.5q-2 26-21 44L75 58q16-15 39-19zm98 235q1 5-2.5 9t-8.5 5H71q-26 0-45.5-16.5T1 230q-4-22 6-41.5T37 159q-16-28-11-60 1-5 5-8t9-2.5q5 .5 8 5t3 9.5q-4 23 7 45 5 9 2 18.5T48 181q-12 7-18.5 19.5T25 226q4 16 17 26.5T71 264h114q7 0 13-1t10 2.5q4 3.5 4 8.5z"/></svg>