<svg viewBox="0 0 300 302.0011" xmlns="http://www.w3.org/2000/svg"><path d="M50 226q0-5 3.5-9t8.5-4h76q5 0 8.5 4t3.5 9q0 5-3.5 8.5T137 238H63q-6 0-9.5-3.5T50 226zm13-38h75q5 1 8.5-3t3.5-9q0-5-3.5-9t-9.5-4H63q-6 0-9.5 4t-3.5 9q0 5 3.5 9t8.5 4l1-1zM300 63v25q0 16-11 27t-27 11h-62v119q0 23-16.5 39.5T144 301H56q-23 0-39.5-16.5T0 245V63q0-16 8.5-30.5t23-23Q46 1 63 1h175q16 0 30.5 8.5t23 23Q300 47 300 64v-1zm-125 63H25v119q0 13 9 22t22 9h88q13 0 22-9t9-22V126zm100-63q0-15-11-26t-27-11H63q-16 0-27 11T25 64v37h238q5 0 8.5-3.5T275 88V63zm-32-18h-60q-7 0-9.5 6t2.5 10l30 28q3 3 7 3t7-3l30-28q5-4 2.5-10t-9.5-6z"/></svg>