<svg viewBox="0 0 300 302.0011" xmlns="http://www.w3.org/2000/svg"><path d="M119 32q0-13 9-22t22-9q13 0 22 9t9 22q0 13-9 22.5t-22 9q-13-.5-22-9.5t-9-22zm127 141q-4 3-9 3t-9-4l-24-25 8 62q2 17-9 29-6 7-16 11v39q0 6-3.5 9.5T175 301q-5 0-9-3.5t-4-9.5v-37h-25v37q0 6-3.5 9.5T125 301q-5 0-9-3.5t-4-9.5v-39q-9-4-15-11-11-12-9-29l8-62-24 25q-4 4-9.5 4t-9-3.5Q50 169 50 164t3-9l56-59q8-9 18.5-14.5t22-5.5q11.5 0 21 4.5T187 92l60 63q3 4 3 9t-4 9zm-117-61q-5 6-5 12l-11 88q-1 6 2.5 10t9.5 4h50q6 0 9.5-4t2.5-10l-11-88q-1-10-8.5-16.5t-17-6.5q-9.5 0-17.5 6l-4 5z"/></svg>