<svg viewBox="0 0 300 302.0011" xmlns="http://www.w3.org/2000/svg"><path d="M299 51q0 5-3.5 9t-8.5 4h-22l11 19q2 4 1 9t-5.5 7.5Q267 102 262 101t-8-6l-11-19-11 19q-2 5-7 6t-9.5-1.5q-4.5-2.5-6-7.5t1.5-9l11-19h-22q-5 0-9-4t-4-9q0-5 4-8.5t9-3.5h22l-11-19q-3-5-1.5-10t6-7.5q4.5-2.5 9.5-1t7 5.5l11 19 11-19q3-4 8-5.5t9.5 1Q276 5 277 10t-1 10l-11 19h22q5 0 8.5 3.5T299 51zM179 163l-19 10q5 15 0 29l19 11q3-2 8-4l22-5q5-2 9.5.5t5.5 7.5q1 5-1.5 9.5T215 228l-22 5q-3 1-2 4l6 22q1 5-1.5 9.5t-7.5 6q-5 1.5-9.5-1T173 266l-6-22q-1-5-1-9l-19-11q-9 9-22 12v22q4 2 7 6l17 16q3 3 3 8.5t-3.5 9Q145 301 140 301t-9-4l-16-16q-1-1-2.5-1t-1.5 1l-17 16q-3 4-8.5 4t-9-3.5q-3.5-3.5-3.5-9t4-8.5l16-16q3-4 7-6v-22q-12-3-22-12l-19 11q1 4-1 9l-5 22q-2 5-6 7.5t-9 1.5q-5-1-8-5.5t-2-9.5l6-23q1-3-2-3l-22-6q-5-2-7.5-6.5t-1-9Q3 208 7 205t9-1l23 5 8 4 18-10q-4-15 0-29l-18-11-8 4-22 5q-5 2-9.5-1t-6-7.5q-1.5-4.5 1-9T10 148l22-6q3 0 2-3l-5-22q-2-5 .5-9.5t7.5-6q5-1.5 9.5 1T52 110l7 22q1 5 0 9l19 11q10-9 22-12v-21q-4-2-7-6L77 97q-4-3-4.5-8t3-9q3.5-4 8.5-4.5t9 3.5l17 17q1 1 2.5 1t2.5-1l16-16q3-4 8.5-4t9 3.5q3.5 3.5 3.5 9t-4 8.5l-16 16q-3 4-7 6v21q13 3 22 12l19-11q0-4 1-9l6-22q1-5 5.5-7.5t9.5-1.5q5 1 7.5 5.5t1.5 9.5l-6 23q-1 3 2 3l22 6q5 2 8 6t1.5 9q-1.5 5-6 8t-9.5 1l-22-6q-5-1-8-3zm-41 25q0-10-7.5-17.5t-18-7.5q-10.5 0-17.5 7.5T88 188q0 10 7 17.5t17.5 7.5q10.5 0 18-7.5T138 188z"/></svg>