<svg viewBox="0 0 300 302.0011" xmlns="http://www.w3.org/2000/svg"><path d="M188 188q-16 1-27 11.5T150 226v62q0 6 3.5 9.5t9 3.5q5.5 0 9-3.5t3.5-9.5v-12h25v12q0 6 3.5 9.5t9 3.5q5.5 0 9-3.5t3.5-9.5v-62q0-16-11-27t-26-11zm12 63h-25v-25q0-5 3.5-9t9-4q5.5 0 9 4t3.5 9v25zM25 32q0-13 9-22t22-9q13 0 22 9t9.5 22q.5 13-9 22.5t-22.5 9Q43 63 34 54t-9-22zm275 144v62q0 6-3.5 9.5t-9 3.5q-5.5 0-9-3.5T275 238v-12h-12q-6 0-9.5-3.5t-3.5-9q0-5.5 3.5-9t8.5-3.5h13v-25q0-5-3.5-8.5t-8-3.5q-4.5 0-8 2t-8.5.5q-5-1.5-7.5-6T238 151q1-5 6-7 8-5 19-5 15 0 26 11t11 26zM184 6q-10-5-22-5-5 0-8.5 3.5T150 13v63H50q-21 0-35.5 14.5T0 126v50q0 14 7 25t18 18v69q0 6 3.5 9.5t9 3.5q5.5 0 9-3.5T50 288v-62h25v62q0 6 3.5 9.5t9 3.5q5.5 0 9-3.5t3.5-9.5V101h63q5 0 8.5-3.5T175 89V67l45-24q5-4 5-11t-5-11L184 6zM75 201H50q-10 0-17.5-7.5T25 176v-50q0-10 7.5-17.5T50 101h25v100zM231 95q0-13 9.5-22.5t22-9.5q12.5 0 22 9.5T294 95q0 13-9.5 22t-22 9q-12.5 0-22-9T231 95zm-75 50q0-13 9.5-22.5t22-9q12.5.5 22 9.5t9.5 22q0 13-9.5 22t-22 9q-12.5 0-22-9t-9.5-22z"/></svg>