<svg viewBox="0 0 300 302.0011" xmlns="http://www.w3.org/2000/svg"><path d="M150 1q-41 0-75.5 20T20 75.5Q0 110 0 151t20 75.5Q40 261 74.5 281t75.5 20q41 0 75.5-20t54.5-54.5q20-34.5 20-75.5t-20-75.5Q260 41 225.5 21T150 1zm0 275q-34 0-62.5-17T42 213.5Q25 185 25 151t17-62.5Q59 60 87.5 43T150 26q34 0 62.5 17T258 88.5q17 28.5 17 62.5t-17 62.5Q241 242 212.5 259T150 276zm63-88q-1 6-4.5 9.5T200 201h-50q-18 0-38 11-9 5-16 11-4 3-9 3t-8.5-4q-3.5-4-3.5-9t4-9q9-7 22-14 25-14 49-14h50q5 0 9 3.5t4 9.5v-1zm0-68q-1 8-6 13.5t-13 5q-8-.5-13.5-5.5t-5.5-13q0-8 5.5-13.5T194 101q8 0 13.5 5.5T213 120zm-125 0q0-8 5-13.5t13-5.5q8 0 13.5 5.5T125 120q0 8-5.5 13.5t-13.5 5q-8-.5-13.5-5.5T87 120h1z"/></svg>