<svg viewBox="0 0 300 302.0011" xmlns="http://www.w3.org/2000/svg"><path d="M186 100v55q0 4-2 6t-6 2q-3 0-5-2t-2-6v-40l-16 17q-3 3-6 3t-6-3l-16-17v40q0 4-2 6t-5.5 2q-3.5 0-5.5-2t-2-6v-55q0-5 3-8t7.5-3q4.5 0 8.5 4l18 21 18-21q4-4 8.5-4t7.5 3q3 3 3 8zM81 119q-6-2-14-5l-2-1q-2-1-1.5-4t5-4.5Q73 103 79 106q3 1 5 3t5.5 1.5Q93 110 95 108q2-3 1.5-6T94 97q-4-3-10-6-10-4-21-1-6 2-10 6.5T48 107q-1 6 1.5 11t8.5 9l17 7q9 3 8 6.5t-3.5 5.5q-2.5 2-6.5 2-9 0-15-6-2-3-5.5-3t-5.5 2q-2 2-2.5 5.5T46 152h1q10 12 26 12 9 0 16.5-5.5T98 145q1-8-3-15t-14-11zm157 0q-6-2-14-5l-2-1q-2-2-1.5-4.5t5-4q4.5-1.5 10.5.5 3 2 5 3.5t5.5 1.5q3.5 0 5.5-3 2-2 1.5-5.5T251 96q-4-3-9-5-11-4-22-1-6 2-10 6.5t-5 10.5q-1 6 1.5 11t8.5 8l17 8q9 3 8.5 6.5T237 146q-3 2-7 2-9 0-15-7-2-2-5-2t-6 2q-2 2-2 5t2 6q10 11 26 11 9 0 16.5-5.5t8.5-13q1-7.5-3-14.5t-14-11zm62-68v150q0 21-14.5 35.5T250 251h-36l-48 40q-7 6-16 6t-17-7l-46-39H50q-21 0-35.5-14.5T0 201V51q0-21 14.5-35.5T50 1h200q21 0 35.5 14.5T300 51zm-25 0q0-10-7.5-17.5T250 26H50q-10 0-17.5 7.5T25 51v150q0 10 7.5 17.5T50 226h41q5 0 8 3l51 43 52-43q3-3 8-3h40q10 0 17.5-7.5T275 201V51z"/></svg>