<svg viewBox="0 0 300 302.0011" xmlns="http://www.w3.org/2000/svg"><path d="M150 1q-37 0-68.5 17.5T31.5 66Q13 96 13 131.5T31 207q18 40 48 65 33 29 71 29t71-29q30-25 48.5-65t18.5-75.5Q288 96 269 66t-50.5-47.5Q187 1 150 1zm0 275q-29 0-57-25-24-22-40-56t-15-63.5q1-29.5 16-54T94.5 39Q120 25 150 25t55.5 14Q231 53 246 77.5t16 54q1 29.5-15 63.5t-40 56q-28 25-57 25zm88-138q-2 12-11 19.5t-21 5.5q-11 2-20.5-5.5T175 138q1-11 10.5-18.5T206 114q12-2 21 5.5t10 18.5h1zM94 163q-12 2-21-5.5T63 138q1-11 10-18.5t21-5.5q11-2 20.5 5.5T125 138q-1 12-10.5 19.5T94 163zm44 38q0 5-4 8.5t-9 3.5q-5 0-8.5-3.5t-4-8.5q-.5-5 3.5-8.5t9-4q5-.5 9 3.5t4 9zm50 0q-1 5-4.5 8.5T175 213q-5 0-9-3.5t-3.5-8.5q.5-5 4-8.5t8.5-4q5-.5 9 3.5t4 9zM113 63q0-5 3.5-8.5T125 51q5 0 9 3.5t4 9q0 5.5-4 9t-9 3.5q-5 0-8.5-3.5T113 64v-1zm50 38q0 5-4 9t-9 3.5q-5-.5-9-4t-3.5-8.5q.5-5 4-9t8.5-4q5 0 9 4t4 9zm0-38q0-5 3.5-8.5T175 51q5 0 9 3.5t4 9q0 5.5-4 9t-9 3.5q-5 0-9-3.5t-4-8.5l1-1zm-25 175q0 6-4 9.5t-9 3.5q-5 0-9-3.5t-4-9q0-5.5 4-9t9-3.5q5 0 9 3.5t4 9.5v-1zm50 0q-1 6-4.5 9.5T175 251q-5 0-9-3.5t-3.5-9q.5-5.5 4-9t8.5-3.5q5 0 9 3.5t4 9.5v-1z"/></svg>