<svg viewBox="0 0 300 302.0011" xmlns="http://www.w3.org/2000/svg"><path d="M251 130l-63-14V40q0-14-9-25T156 2q-17-3-30 8t-13 29v144l-12-9q-12-11-27.5-10.5t-26 12q-10.5 11.5-10 27T49 228l47 45q14 14 32 21t37 7h73q16 0 30.5-8.5t23-23Q300 255 300 238v-47q0-22-13.5-39T251 130zm24 108q0 16-11 27t-27 11h-72q-15 0-28-5.5T113 255l-47-45q-3-3-3.5-8.5t3-9q3.5-3.5 9-3.5t9.5 3l33 27q3 2 6.5 2.5t6.5-1.5q7-3 7-11V38q0-5 4.5-9t10-3q5.5 1 8 5t2.5 9v86q0 4 3 7.5t7 4.5l74 17q13 2 21 12.5t8 23.5v48-1zM50 126q-12 0-20-8L4 92q-4-4-4-9t3.5-9q3.5-4 9-4t8.5 4l17 16V13q0-5 3.5-8.5T50 1q5 0 9 3.5t4 8.5v77l16-16q3-4 8.5-4t9 4q3.5 4 3.5 9t-4 9l-26 26q-8 8-20 8z"/></svg>