<svg viewBox="0 0 300 302.0011" xmlns="http://www.w3.org/2000/svg"><path d="M225 1q-24 0-43.5 14T154 51H35q-11 0-20 6T2.5 73Q-1 83 1 93t10 17l83 77q8 7 19 10v79H75q-5 0-8.5 3.5t-3.5 9q0 5.5 3.5 9T75 301h100q5 0 9-3.5t4-9q0-5.5-4-9t-9-3.5h-37v-79q10-3 18-10l43-40q13 4 26 4 20 0 37.5-10t27.5-27.5Q300 96 300 76t-10-37.5Q280 21 262.5 11T225 1zm-86 167q-6 6-14 6t-14-6L27 91q-3-3-1-9t9-6h180q7 0 9 6t-2 9l-83 77zm86-42h-3l17-16q8-8 10-17.5T247.5 73Q244 63 235 57t-20-6h-33q6-12 17.5-18.5T225 26q21 0 35.5 14.5T275 76q0 21-14.5 35.5T225 126z"/></svg>