<svg viewBox="0 0 300 302.0011" xmlns="http://www.w3.org/2000/svg"><path d="M225 131l-75-15V40q0-14-9-25T119 2q-18-3-31 8T75 39v144l-12-9q-11-11-26.5-10.5t-26 12Q0 187 .5 202.5T12 228l46 45q14 14 32 21t38 7h85q16 0 30.5-8.5t23-23Q275 255 275 238v-46q0-22-14-39.5T225 131zm25 107q0 16-11 27t-26 11h-85q-15 0-28.5-5.5T75 255l-46-45q-4-3-4-8.5t3.5-9Q32 189 37 189t10 4l33 26q6 5 13 1.5t7-11.5V38q0-5 4.5-9t9.5-3q5 1 8 5t3 9v86q0 4 3 7.5t7 4.5l85 17q13 3 21.5 13.5T250 192v46zm50-187q0 12-8 20l-26 26q-4 4-9 4t-9-3.5q-4-3.5-4-9t4-8.5l16-17h-76q-6 0-9.5-3.5T175 51q0-5 3.5-9t8.5-4h77l-16-16q-4-3-4-8.5t4-9q4-3.5 9-3.5t9 4l26 26q8 8 8 20z"/></svg>