<svg viewBox="0 0 300 302.0011" xmlns="http://www.w3.org/2000/svg"><path d="M296 280l-33-34V32q0-13-9.5-22T231 1h-12q-13 0-22.5 9T187 32v32q-3-1-6-1h-12q-13 0-22 9.5T138 95v26L21 5q-3-4-8.5-4t-9 3.5Q0 8 0 13.5T4 22l275 275q3 4 8.5 4t9-3.5q3.5-3.5 3.5-9t-4-8.5zM213 32q0-2 1.5-4t4.5-2h12q3 0 5 2t2 4v189l-25-25V32zm-50 63q0-3 1.5-5t4.5-2h12q3 0 5 2t2 5v76l-25-25V95zm62 181h-12v-13q0-5-4-8.5t-9-3.5q-5 0-8.5 3.5T188 264v12h-25v-63q0-5-4-8.5t-9-3.5q-5 0-8.5 3.5T138 214v62h-25V163q0-5-4-8.5t-9-3.5q-5 0-8.5 3.5T88 163v39q-4-1-7-1H69q-13 0-22 9t-9 22v38q0 13 9 22t22 9h156q5 0 9-3.5t4-9q0-5.5-4-9t-9-3.5zm-162-6v-38q-1-2 1-4t5-2h12q3 0 4.5 2t1.5 4v44H69q-3 0-4.5-2t-1.5-4z"/></svg>