<svg viewBox="0 0 300 302.0011" xmlns="http://www.w3.org/2000/svg"><path d="M150 301q-41 0-75.5-20T20 226.5Q0 192 0 151q2-57 33-95 29-35 73-47.5t88 0Q238 21 267 56q31 38 33 95 0 41-20 75.5T225.5 281Q191 301 150 301zm0-275q-34 0-62.5 17T42 88.5Q25 117 25 151q2 47 28 80 23 29 60 39t74 0q37-10 60-39 26-33 28-80 0-34-17-62.5T212.5 43Q184 26 150 26zm100 125q0-5-3.5-9t-9-4q-5.5 0-9 4t-3.5 9q-1 28-17 48-14 17-36 23t-44 0q-22-6-36-23-16-20-17-48 0-20 10-37.5T112.5 86Q130 76 150 76q5 0 9-3.5t4-9q0-5.5-4-9t-9-3.5q-27 0-50 13.5T63.5 101Q50 124 50 151q1 38 22 64 19 23 48.5 31t59 0q29.5-8 48.5-31 21-26 22-64z"/></svg>