<svg viewBox="0 0 300 302.0011" xmlns="http://www.w3.org/2000/svg"><path d="M238 301H63q-17 0-31.5-8.5t-23-23Q0 255 0 238v-75q0-16 8.5-30.5t23-23Q46 101 63 101h175q16 0 30.5 8.5t23 23Q300 147 300 163v75q0 17-8.5 31.5t-23 23Q254 301 238 301zM63 126q-16 0-27 11t-11 26v75q0 16 11 27t27 11h175q15 0 26-11t11-27v-75q0-15-11-26t-26-11H63zm233-36q4-4 4-9t-3-9q-9-10-21.5-15.5T250 51H50q-13 0-25.5 5.5T3 72q-3 4-3 9t4 8.5Q8 93 13.5 93t8.5-4q11-13 28-13h200q17 0 28 13 4 4 9 4t9-3zm0-50q4-4 4-9t-3-9q-9-10-21.5-15.5T250 1H50Q37 1 24.5 6.5T3 22q-3 4-3 9t4 8.5Q8 43 13.5 43t8.5-4q11-13 28-13h200q17 0 28 13 4 4 9 4t9-3zM150 251q-26 0-49-6t-37-17q-14-11-14-27t14-27q14-11 37-17t49-6q26 0 49 6t37 17q14 11 14 27t-14 27q-14 11-37 17t-49 6zm0-75q-22 0-40 5-16 3-25.5 9T75 201q0 5 9.5 11t25.5 9q18 5 40 5t40-5q16-3 25.5-9t9.5-11q0-5-9.5-11t-25.5-9q-18-5-40-5zm0 37q8 0 13.5-3.5t5.5-8.5q0-5-5.5-9t-13.5-4q-8 0-13.5 4t-5.5 9q0 5 5.5 8.5T150 213z"/></svg>