<svg viewBox="0 0 300 302.0011" xmlns="http://www.w3.org/2000/svg"><path d="M113 70q0-8 5-13.5t13-5.5q8 0 13.5 5.5T150 70q0 8-5.5 13T131 88q-8 0-13-5t-5-13zm187-7v75q0 17-8.5 31.5t-23 23Q254 201 238 201H125q-17 0-31.5-8.5t-22.5-23Q63 155 63 138V63q0-16 8-30.5t22.5-23Q108 1 125 1h113q16 0 30.5 8.5t23 23Q300 47 300 63zM88 138q0 15 9 26l66-66q9-9 22.5-9t23.5 9l13 13q2 2 5 2t5-2l43-43v-5q0-15-11-26t-26-11H125q-15 0-26 11T88 63v75zm187 0v-34l-25 25q-9 9-23 9t-23-9l-13-13q-2-2-5-2t-6 2l-60 60h118q15 0 26-11t11-27zm-49 88q-5-1-9.5 1.5T211 235l-4 13q-4 16-17.5 23.5T161 275L53 245q-16-4-23.5-17.5T26 199l12-45q2-5-1-9.5t-7.5-5.5q-4.5-1-9 1.5T14 148L2 192q-4 16 0 32.5T18 253q12 12 28 16l109 30q8 2 16 2 17 0 31-8 22-13 29-38l4-13q1-5-1.5-9.5T226 226z"/></svg>