<svg viewBox="0 0 300 302.0011" xmlns="http://www.w3.org/2000/svg"><path d="M75 151q-5 0-8.5-3.5T63 138q-1-18 10-34t27-16q16 0 27 16t11 35q0 5-4 8.5t-9 3.5q-5 0-8.5-3.5T113 138q0-9-5-16.5t-8-8q-3-.5-7.5 7.5T88 138q0 6-4 9.5t-9 3.5zm156 52q8 14 6 30.5T221 259q-9 5-19 5t-20-6.5q-10-6.5-15-15.5l-10-16h-7q-24 0-49-14-13-7-22-14-4-4-4-9t3.5-9q3.5-4 8.5-4t9 3q6 5 16 11 20 11 38 11t36-10q9-4 15-9 5-4 10.5-3t8.5 6l11 18zm-22 13l-3-7q-11 7-23 11l5 9q3 5 9 8t10.5 0q4.5-3 5-9.5T209 216zm-9-128q-16 0-27 16t-11 35q0 5 4 8.5t9 3.5q5 0 8.5-3.5t3.5-9.5q0-9 5-16.5t8-8q3-.5 7.5 7.5t4.5 17q0 6 4 9.5t9 3.5q5 0 8.5-3.5t3.5-9.5q0-18-10.5-34T200 89v-1zM150 1q-41 0-75.5 20T20 75.5Q0 110 0 151t20 75.5Q40 261 74.5 281t75.5 20q14 0 27-2 5-1 8-5.5t2-9.5q-1-5-5-8t-9-2q-12 2-23 2-34 0-62.5-17T42 213.5Q25 185 25 151t17-62.5Q59 60 87.5 43T150 26q34 0 62.5 17T258 88.5q17 28.5 17 62.5 0 30-14 57-2 4-.5 9t6 7.5q4.5 2.5 9.5 1t8-6.5q16-32 16-68 0-41-20-75.5T225.5 21Q191 1 150 1z"/></svg>