<svg viewBox="0 0 300 302.0011" xmlns="http://www.w3.org/2000/svg"><path d="M300 275q-1-35-8-69-3-13-13-21.5t-24-8.5h-26l-4-45 5-1q9-1 16.5-6t11.5-13q4-8 4.5-17T259 77q-10-22-30-39t-45.5-27Q158 1 131 1 96 1 65.5 18.5t-48 48Q0 97 0 132q2 33 7 65 3 17 14.5 30.5T51 247l19 5q26 7 51 19 11 5 22 5 21 0 35-14l14-11h18l1 11q1 11 8.5 20t18.5 13q18 4 37 6 10 0 17.5-7.5T300 275zm-45-74q5 0 8.5 2.5t4.5 7.5l2 15h-37l-2-25h24zm-51-25h-38q-1-8 1-15 2-11 10-18.5t19-8.5l5-1 3 43zm-43 68q-6 5-14 6.5t-15-2.5q-27-12-55-20l-19-5q-10-3-17-11.5T32 193q-5-30-7-61 0-29 14.5-53T78 40.5Q102 26 131 26q33 0 63 17.5T236 88q3 5 0 10.5t-9 6.5l-34 4q-15 2-27 11t-19 22.5q-7 13.5-6.5 28.5t7.5 28l21 38-8 7zm31-18l-14-25h28l2 25h-16zm53 45q-4-2-6.5-5t-2.5-6l-1-9h38q1 12 2 25-15-1-30-5zm-120-70q0 5-3.5 8.5t-9 3.5q-5.5 0-9-3.5T100 201q0-5 3.5-8.5t9-3.5q5.5 0 9 3.5t3.5 8.5z"/></svg>