<svg viewBox="0 0 300.0078 302.0011" xmlns="http://www.w3.org/2000/svg"><path d="M291 114q-5-6-13-9.5t-16-3.5q-6-38-29-64-21-23-52-31t-62 0q-31 8-52 31-24 26-29 64-17 0-28.5 13T1 144l13 93q4 27 25 45.5T88 301h124q28 0 49.5-18.5T287 237l13-93q2-17-9-30zM150 26q21 0 40 10t31 27q12 17 15 38H64q3-21 15-38t31-27q19-10 40-10zm78 100l-49 48q-1 2-4 2t-4-2l-49-48h106zm34 107q-3 18-17 30.5T212 276H88q-19 0-33-12.5T39 233l-14-93q-1-5 3-9.5t10-4.5h49l66 66q9 9 22 9t22-9l66-66q5 0 9 4.5t3 9.5l-13 93z"/></svg>