<svg viewBox="0 0 300 302.0011" xmlns="http://www.w3.org/2000/svg"><path d="M100 51q0-21-14.5-35.5T50 1Q29 1 14.5 15.5T0 51q0 17 10.5 30.5T38 99v104q-17 4-27.5 17.5T0 251q0 21 14.5 35.5T50 301q21 0 35.5-14.5T100 251q0-17-10.5-30.5T63 203V99q16-4 26.5-17.5T100 51zm-75 0q0-10 7.5-17.5T50 26q10 0 17.5 7.5T75 51q0 10-7.5 17.5T50 76q-10 0-17.5-7.5T25 51zm50 200q0 10-7.5 17.5T50 276q-10 0-17.5-7.5T25 251q0-10 7.5-17.5T50 226q10 0 17.5 7.5T75 251zm175-50q-21 0-35.5 14.5T200 251q0 21 14.5 35.5T250 301q21 0 35.5-14.5T300 251q0-21-14.5-35.5T250 201zm0 75q-10 0-17.5-7.5T225 251q0-10 7.5-17.5T250 226q10 0 17.5 7.5T275 251q0 10-7.5 17.5T250 276zM225 51q0-10 7.5-17.5T250 26q10 0 17.5 7.5T275 51q0 10-7.5 17.5T250 76q-10 0-17.5-7.5T225 51zm0 87q0-10 7.5-17.5T250 113q10 0 17.5 7.5t7.5 18q0 10.5-7.5 17.5t-17.5 7q-10 0-17.5-7t-7.5-17v-1z"/></svg>