<svg viewBox="0 0 300 302.0011" xmlns="http://www.w3.org/2000/svg"><path d="M238 76h-25q-11 0-18.5 7.5T187 101v50h-12L53 5q-3-4-9-4h-6q-6 0-9.5 3.5T25 14v68q0 3-2 4.5T19 89h-6q-6-1-9.5 3T0 101q0 5 3.5 8.5T13 113h6q13 0 22-9t9-22V41l92 110H38q-16 0-27 11T0 188v25q0 16 11 27t27 11v6q0 18 12.5 31T81 301q18 0 31-13t13-31v-6h50v6q0 18 13 31t31 13q18 0 31-13t13-31q0-4-1-7 16-4 27-18t11-31v-63q0-16-8.5-30.5t-23-23Q254 76 237 76h1zm0 25q15 0 26 11t11 26v13h-62v-50h25zM25 213v-25q0-5 3.5-8.5T37 176h151v50H38q-6 0-9.5-3.5T25 213zm75 44q0 8-5.5 13.5T81 276q-8 0-13.5-5.5T63 257q0-3 1-6h35q1 3 1 6zm119 19q-8 0-13.5-5.5T200 257q0-3 1-6h35q2 3 2 6 0 8-5.5 13.5T219 276zm31-50h-37v-50h62v25q0 10-7.5 17.5T250 226z"/></svg>