<svg viewBox="0 0 300 302.0011" xmlns="http://www.w3.org/2000/svg"><path d="M250 288q0 6-3.5 9.5T237 301H63q-6 0-9.5-3.5t-3.5-9q0-5.5 3.5-9T62 276h176q5 0 8.5 3.5t3.5 8.5zm-137-75q-6 0-9.5 4t-3.5 9q0 5 3.5 8.5t8.5 3.5h76q5 0 8.5-3.5t3.5-8.5q0-5-3.5-9t-9.5-4h-74zm100-50q-1-5-4.5-8.5T200 151H100q-5 0-8.5 3.5t-4 9q-.5 5.5 3.5 9t9 3.5h100q5 0 8.5-3.5t3.5-9.5h1zM88 113h125q5 0 8.5-3.5t3.5-8.5q0-5-3.5-9t-9.5-4H88q-6 0-9.5 4t-3.5 9q0 5 3.5 9t8.5 4l1-1zm37-62h50q5 0 9-3.5t4-9q0-5.5-4-9t-9-3.5h-50q-5 0-8.5 3.5t-3.5 9q0 5.5 3.5 9T125 51zM56 242l4-18 18-4q4-2 6.5-5t2.5-7.5q0-4.5-2.5-8T78 195l-18-4-4-18q-1-4-4.5-6.5t-8-2.5q-4.5 0-7.5 2.5t-4 6.5l-5 18-17 4q-5 1-7.5 4T0 206.5q0 4.5 2.5 8T9 219l18 5 5 18q1 4 4 6.5t7.5 2.5q4.5 0 8-2.5T56 242zM294 30l-16-7-7-16q-2-6-8.5-6T254 7l-7 16-16 6q-6 3-6 9t6 9l16 7 7 16q2 6 8.5 6t8.5-6l7-16 16-7q6-2 6-8.5t-6-8.5z"/></svg>