<svg viewBox="0 0 300 302.0011" xmlns="http://www.w3.org/2000/svg"><path d="M300 82q0-22-20-40.5T225.5 12Q191 1 150 1T74.5 12Q40 23 20 41.5T0 82v138q0 23 19.5 41.5t53.5 29q34 10.5 77 10.5t77-10.5q34-10.5 53.5-29T300 220V82zM150 26q35 0 65 9 28 8 44 21t16 26.5q0 13.5-16 26.5t-44 21q-30 9-65 8.5T85 130q-28-8-44-21T25 82.5Q25 69 41 56t44-21q30-9 65-9zm0 250q-34 0-62.5-7.5T42 248q-17-13-17-28v-92q20 16 53 26t72 9.5q39-.5 72-10t53-25.5v92q0 15-17 28t-45.5 20.5Q184 276 150 276zM66 90q-4-3-4-8t4-8q13-9 32-15 24-8 52-8t52 8q19 6 32 15 3 3 3 8t-3 8q-13 10-32 16-24 7-52 7t-52-7q-19-6-32-16z"/></svg>