<svg viewBox="0 0 300.0095 302.0011" xmlns="http://www.w3.org/2000/svg"><path d="M209.01 174q4 3 3.5 8.5t-3.5 8.5q-6 6-17 12-20 11-42 10.5t-42-10.5q-11-6-17-12-3-4-3.5-9t3.5-8.5q4-3.5 9-3.5t9 3.5q4 3.5 11 7.5 14 7 30 7t30-7q7-4 11-8 4-3 9-3t9 4zm-103-36q8 0 13.5-5t5.5-13q0-8-5.5-13.5t-13.5-5.5q-8 0-13.5 5.5t-5 13.5q.5 8 5.5 13.5t13 5.5v-1zm88-37q-8 0-13.5 5.5t-5.5 13.5q0 8 5.5 13.5t13.5 5q8-.5 13-5.5t5-13q0-8-5-13.5t-13-5.5zm106 54v83q0 17-8.5 31.5t-23 23q-14.5 8.5-31.5 8.5h-73q-44 0-80-18t-58.5-50q-22.5-32-25.5-71-2-33 9.5-63.5T44.01 45q23-23 53.5-34.5t62.5-9.5q39 3 71 24.5t50.5 55.5q18.5 34 18.5 74zm-25 0q0-33-15.5-62t-42-47q-26.5-18-58.5-20h-9q-25 0-48 9.5t-41.5 28q-18.5 18.5-28 44t-7.5 52.5q3 33 21.5 59.5t49 41.5q30.5 15 68.5 15h74q15 0 26-11t11-26v-84z"/></svg>