<svg viewBox="0 0 300 302.0011" xmlns="http://www.w3.org/2000/svg"><path d="M113 101q2-14 6-27 5-11 6-23 0-21-14.5-35.5T75 1Q54 1 39.5 15.5T25 51q1 12 6 23 4 13 6 27-2 24-15 44-20 32-22 68 0 31 12 59 7 13 19 21t27 8h34q15 0 27-8t19-21q12-28 12-59-2-36-22-68-13-20-16-44h1zM75 26q10 0 17.5 7t7.5 18q-2 8-4 15-7 17-9 35H63q-2-18-9-35-4-13-4-15 0-10 7.5-17.5T75 26zm40 236q-3 6-9 10t-14 4H58q-8 0-14-4t-9-10q-10-23-10-48 3-31 19-57 8-15 14-31h34q6 16 14 31 16 26 19 57 0 25-10 48zm163-117q-13-20-15-44 2-14 6-27 5-11 6-23 0-21-14.5-35.5T225 1q-21 0-35.5 14.5T175 51q1 12 6 23 4 13 7 27-3 24-16 44-20 32-22 68 0 31 12 59 7 13 19 21t27 8h34q15 0 27-8t19-21q12-28 12-59-2-36-22-68zM225 26q10 0 17.5 7t7.5 18q-2 8-4 15-7 17-8 35h-25q-2-18-9-35-4-13-4-15 0-10 7.5-17.5T225 26zm40 236q-3 6-9 10t-14 4h-34q-8 0-14-4t-9-10q-10-23-10-48 3-31 19-57 8-15 14-31h34q6 16 14 31 16 26 19 57 0 25-10 48z"/></svg>