<svg viewBox="0 0 300 302.0011" xmlns="http://www.w3.org/2000/svg"><path d="M256 76h-18V38q5 0 8.5-3.5T250 26q0-5-3.5-9t-9.5-4H13q-6 1-9.5 4.5T0 26q0 5 3.5 8.5T13 38v188q0 17 8 31.5T43.5 280q14.5 8 31.5 8h100q17 0 31.5-8t22.5-22.5q8-14.5 8-31.5v-13h19q18 0 31-12.5t13-30.5v-50q0-18-13-31t-31-13zm-81 187H75q-16 0-27-10.5T37 226V38h176v188q0 16-11 27t-27 11v-1zm100-93q0 8-5.5 13t-13.5 5h-18v-87h18q8 0 13.5 5.5T275 120v50zm-87-94v150q0 5-3.5 9t-9 4q-5.5 0-9-4t-3.5-9V76q0-5 3.5-8.5t9-3.5q5.5 0 9 3.5T188 76zm-50 0v150q0 5-3.5 9t-9 4q-5.5 0-9-4t-3.5-9V76q0-5 3.5-8.5t9-3.5q5.5 0 9 3.5T138 76zm-50 0v150q0 5-3.5 9t-9 4q-5.5 0-9-4t-3.5-9V76q0-5 3.5-8.5t9-3.5q5.5 0 9 3.5T88 76z"/></svg>