<svg viewBox="0 0 300 302.0011" xmlns="http://www.w3.org/2000/svg"><path d="M188 176q1 0 0 0zm90-74l-10 10q8 10 7 22t-9.5 20.5q-8.5 8.5-20.5 9t-21-7.5l-11 11q-9 9-24.5 8T165 162l-38-58-21 21q-18 19-18 45v106h50q5 0 8.5 3.5t3.5 9q0 5.5-3.5 9T138 301H13q-6 0-9.5-3.5t-3.5-9q0-5.5 3.5-9T13 276h50V170q-1-18 6-34t19-28l27-27q-4-13-2-26.5T123 30q14-22 39.5-27.5T210 12l64 42q12 8 13.5 22.5T278 102zm-16-23q0-3-2-4l-64-43q-9-6-21-6-3 0-7 1-16 3-25 16-6 10-5.5 21.5T145 86l41 62q2 3 5 3t5-2l65-65q2-2 1-5z"/></svg>