<svg viewBox="0 0 300 302.0011" xmlns="http://www.w3.org/2000/svg"><path d="M300 208q0-13-7-23 1-4 1-9 0-13-8.5-23T265 140q-5-11-15-17v-22q0-27-13.5-50T200 14.5Q177 1 150 1t-50 13.5Q77 28 63.5 51T50 101v22q-10 6-15 17-12 3-20.5 13T6 176q0 5 1 9-7 10-7 22.5T8 231q-2 5-2 11 0 13 8.5 23.5T35 279q5 10 15 16t22 6q17 0 28.5-11.5T112 261V158q1-16-10-28t-27-13v-16q0-20 10-37.5T112.5 36Q130 26 150 26t37.5 10Q205 46 215 63.5t10 37.5v16q-16 1-26.5 13T188 158v103q-1 17 11 28.5t29 11.5q12 0 22-6t15-16q12-3 20.5-13.5T294 242q0-6-2-11 8-11 8-23zM88 158v103q-1 6-5.5 10.5T72 276q-6 0-10-3t-5-8q-1-5-4.5-8t-8.5-3q-5 0-9-3.5t-4-8q0-4.5 2.5-8T35 226q-1-5-5.5-8.5T25 208q0-6 4-9.5t5-8q1-4.5-1-8t-2-7.5q0-4 3.5-7.5T43 164q5 0 9-2.5t5-7.5q1-5 5-8.5t10-3.5q6 0 10.5 4.5T87 158h1zm182 60q-4 3-5 8t1.5 8.5q2.5 3.5 2.5 8t-3.5 8Q262 254 257 254t-9 3q-4 3-5 7.5t-5 8q-4 3.5-10 3.5t-11-4.5q-5-4.5-5-10.5V158q0-7 5-11.5t11-4.5q6 0 10 3.5t5 8q1 4.5 4.5 7.5t8.5 3q5 0 9 3.5t4 7.5q0 4-2 7.5t-1 8q1 4.5 5 8t4 9.5q0 6-5 10z"/></svg>