<svg viewBox="0 0 300 302.0011" xmlns="http://www.w3.org/2000/svg"><path d="M263 288q0 6-4 9.5t-9 3.5q-5 0-8.5-3.5T238 288q0-20-15-35t-36-15h-74q-21 0-35.5 15T63 288q0 6-4 9.5t-9 3.5q-5 0-8.5-3.5T38 288q0-20 10-37t27-27.5Q92 213 113 213h75q20 0 37 10.5t27 27.5q10 17 10 37h1zm12-193v25q0 8-5.5 13t-13.5 5h-6q0 21-14.5 35.5T200 188H100q-21 0-35.5-14.5T50 138h-6q-8 0-13.5-5T25 120V95q0-8 5.5-13.5T44 76h6q0-21 14.5-35.5T100 26h38V13q0-5 3.5-8.5T150 1q5 0 9 3.5t4 9.5v12h37q21 0 35.5 14.5T250 76h6q8 0 13.5 5.5T275 95zm-50-19q0-10-7.5-17.5T200 51H100q-10 0-17.5 7.5T75 76v62q0 11 7.5 18t17.5 8h100q10-1 17.5-8t7.5-17V76zm-16 7q-4-4-9-4t-9 4l-7 7-6-7q-4-4-9-4t-9 3.5q-4 3.5-4 9t4 8.5l7 7-7 7q-4 4-4 9t4 8.5q4 3.5 9 3.5t9-3l6-7 7 7q4 3 9 3t9-3.5q4-3.5 4-8.5t-4-9l-7-7 7-7q4-3 4-8.5t-4-8.5zm-69 0q-4-4-9-4t-9 4l-6 7-7-7q-4-4-9-4t-9 3.5q-4 3.5-4 9t4 8.5l7 7-7 7q-4 4-4 9t4 8.5q4 3.5 9 3.5t9-3l7-7 6 7q4 3 9 3t9-3.5q4-3.5 4-8.5t-4-9l-7-7 7-7q4-3 4-8.5t-4-8.5z"/></svg>