<svg viewBox="0 0 300 302.0011" xmlns="http://www.w3.org/2000/svg"><path d="M150 1q-41 0-75.5 20T20 75.5Q0 110 0 151t20 75.5Q40 261 74.5 281t75.5 20q41 0 75.5-20t54.5-54.5q20-34.5 20-75.5t-20-75.5Q260 41 225.5 21T150 1zm25 273q-1-10-8-16.5t-17-6.5q-10 0-17 6.5t-8 16.5q-28-6-51-23.5T38 207q-13-26-13-56t13-56q13-26 36-43.5T125 28q1 10 8 16.5t17 6.5q10 0 17-6.5t8-16.5q28 6 51 23.5T262 95q13 26 13 56t-13 56q-13 26-36 43.5T175 274zM50 126q0-5 3.5-9t8.5-4h176q5 0 8.5 4t3.5 9q0 5-3.5 9t-9.5 4H63q-6-1-9.5-4.5T50 126zm200 50q0 5-3.5 9t-9.5 4H63q-6-1-9.5-4.5T50 176q0-5 3.5-9t8.5-4h176q5 0 8.5 4t3.5 9zM88 76q-1-5 3-9t9-4h100q5 0 9 4t3.5 9q-.5 5-4 9t-8.5 4H100q-5-1-8.5-4.5T88 76zm125 150q-1 5-4.5 8.5T200 238H100q-5 0-8.5-3.5t-4-8.5q-.5-5 3.5-8.5t9-4.5h100q5 0 8.5 4t3.5 9h1z"/></svg>