<svg viewBox="0 0 300 302.0011" xmlns="http://www.w3.org/2000/svg"><path d="M4 22q-4-3-4-8.5t3.5-9Q7 1 12.5 1T21 5l100 100q4 3 4 8.5t-3.5 9q-3.5 3.5-9 3.5t-8.5-4L4 22zM263 1h-63q-5 0-9 3.5t-3.5 9q.5 5.5 4 9T200 26h57L4 280q-4 3-4 8.5t3.5 9q3.5 3.5 9 3.5t8.5-4L275 44v57q0 5 3.5 8.5t9 3.5q5.5 0 9-3.5t3.5-8.5V38q0-15-11-26T262 1h1zm25 187q-6 0-9.5 4t-3.5 9v57l-79-78q-3-4-8.5-4t-9 3.5q-3.5 3.5-3.5 9t4 8.5l78 79h-57q-5 0-9 3.5t-3.5 9q.5 5.5 4 9t8.5 3.5h63q15 0 26-11t11-27v-62q0-5-3.5-9t-8.5-4z"/></svg>