<svg viewBox="0 0 300 302.0011" xmlns="http://www.w3.org/2000/svg"><path d="M150 251q-27 0-40-20-12-17-9.5-42.5t16-44.5q13.5-19 33.5-19t33.5 19q13.5 19 16 44.5T190 231q-13 20-40 20zm0-100q-9 0-16 11.5t-9 26.5q-2 15 4 26t21 11q15 0 21-11t4-26q-2-15-9-26.5T150 151zm0 150q-34 0-62.5-15.5t-45.5-42Q25 217 25 186q0-44 16-84 14-37 38-63t51.5-34.5Q158-4 181 7q25 13 39 48 3 13 11 28 5 9 16 26 15 24 21 36 9 21 7 41 0 31-17 57.5t-45.5 42Q184 301 150 301zm0-275q-23 1-47 25.5t-39 61Q49 149 50 183q1 39 24 62 26 27 76 31 29 1 52.5-13t36.5-37q13-23 11.5-48.5T231 130q-24-31-35-67-4-16-17-26.5T150 26z"/></svg>