<svg viewBox="0 0 300 302.0011" xmlns="http://www.w3.org/2000/svg"><path d="M238 1H125q-17 0-31.5 8.5T71 32.5Q63 47 63 64v12h-7q-23 0-39.5 16.5T0 132v125q0 18 13 31t31 13h194q16 0 30.5-8.5t23-23Q300 255 300 238V63q0-16-8.5-30.5t-23-23Q254 1 238 1zM63 257q0 8-5.5 13.5T44 276q-8 0-13.5-5.5T25 257V132q0-13 9-22t22-9h7v156zm212-19q0 16-11 27t-27 11H83q5-9 5-19V63q-1-15 10-26t27-11h113q15 0 26 11t11 27v174zM250 88q0 6-3.5 9.5T237 101h-37q-5 0-8.5-3.5t-3.5-9q0-5.5 3.5-9T200 76h38q5 0 8.5 3.5T250 89v-1zm0 50q0 6-3.5 9.5T237 151H125q-5 0-8.5-3.5t-3.5-9q0-5.5 3.5-9t8.5-3.5h113q5 0 8.5 3.5t3.5 9.5v-1zm0 50q0 6-3.5 9.5T237 201H125q-5 0-8.5-3.5t-3.5-9q0-5.5 3.5-9t8.5-3.5h113q5 0 8.5 3.5t3.5 8.5zm0 50q0 6-3.5 9.5T237 251H125q-5 0-8.5-3.5t-3.5-9q0-5.5 3.5-9t8.5-3.5h113q5 0 8.5 3.5t3.5 8.5zM113 88V63q0-5 3.5-8.5T125 51h25q5 0 9 3.5t3 9.5v24q1 6-3 9.5t-9 3.5h-25q-5 0-8.5-3.5T113 88z"/></svg>