<svg viewBox="0 0 300 302.0011" xmlns="http://www.w3.org/2000/svg"><path d="M292 9q-25-25-97 25-22-8-45-8-34 0-62.5 17T42 88.5Q25 117 25 151q0 23 8 45-50 72-25 97 8 8 21 8 22 0 57-21 10-5 19-12 22 8 45 8 34 0 62.5-17t45.5-45.5q17-28.5 17-62.5 0-23-8-45 22-33 29-56 9-28-4-41zm-18 18q4 3-1.5 18T254 81q-14-20-34-34 17-10 30-16 11-4 17-4.5t7 .5zM150 51q28 0 51.5 14.5T238 104q-26 35-63 72t-72 63q-24-13-38.5-36.5t-14.5-51Q50 124 63.5 101T100 64.5Q123 51 150 51zM74 259q-16 9-28 13-9 3-14 3.5t-6-.5q-1-1-.5-7t4.5-17q6-13 16-30 14 20 34 34l-6 4zm176-108q0 27-13.5 50T200 237.5Q177 251 150 251q-10 0-19-2 31-24 61.5-54.5T248 132q2 9 2 19z"/></svg>