<svg viewBox="0 0 300 302.0011" xmlns="http://www.w3.org/2000/svg"><path d="M300 104q0-28-20-51.5T225.5 15Q191 1 150 1T74.5 15Q40 29 20 52.5T0 104v93q0 28 20 52t54.5 38q34.5 14 75.5 14t75.5-14q34.5-14 54.5-38t20-52v-93zm-181 29q0-1 3-10.5t3-13.5q11 5 25 4.5t25-4.5q0 4 3 14l3 10q15 24 51 30-17 9-38 14t-44 5q-23 0-44-5t-38-14q36-6 51-30zm156-29q0 18-13 35-14 1-27-1-23-4-32-18-5-11-1-25 3-11 18-42l5-11q23 11 36.5 27.5T275 104zm-74-71q-12 25-18 35-8 12-15 16t-18 4q-11 0-18-4t-15-16q-6-10-18-35 24-7 51-7t51 7zM75 42l5 11q15 31 18 42 4 14-1 25-9 14-32 18-13 2-27 1-13-17-13-35t13.5-34.5Q52 53 75 42zm200 155q0 21-17 39.5t-45.5 29Q184 276 150 276t-62.5-10.5Q59 255 42 236.5T25 197v-36q21 21 54 33.5t71 12.5q38 0 71-12.5t54-33.5v36z"/></svg>