<svg viewBox="0 0 300 302.0011" xmlns="http://www.w3.org/2000/svg"><path d="M183 70q21-17 28-35 2-6 1.5-12t-4-11q-3.5-5-9-8T187 1h-74q-7 0-12.5 3t-9 8q-3.5 5-4 11T89 35q7 18 28 35-28 10-52 35.5t-38 58Q13 196 13 226q0 20 10 37.5T50 291q17 10 38 10h125q20 0 37-10t27-27.5q10-17.5 10-37.5 1-30-13.5-62.5t-38.5-58Q211 80 183 70zm5-44q-5 10-17 21-10 9-21 15-11-6-21-14-12-11-17-22h76zm24 250H88q-21 0-35.5-14.5T38 226q0-32 16.5-64t43-53Q124 88 150 88t52.5 21q26.5 21 43.5 53t17 64q0 21-15 35.5T212 276z"/></svg>