<svg viewBox="0 0 300 302.0011" xmlns="http://www.w3.org/2000/svg"><path d="M200 288q0 6-3.5 9.5T188 301h-75q-31 0-57-15t-41-41Q0 219 0 188v-87q0-5 3.5-9t9-4q5.5 0 9 4t3.5 9v87q0 24 12 44t32 32q20 12 44 12h75q5 0 8.5 3.5t3.5 8.5zM300 63v83q0 26-18 44l-46 46q-15 15-36 15h-87q-17 0-31.5-8.5t-23-23Q50 205 50 189V63q0-16 8.5-30.5t23-23Q96 1 113 1h125q16 0 30.5 8.5t23 23Q300 47 300 64v-1zM113 226h75v-50q0-16 10.5-27t26.5-11h50V63q0-15-11-26t-27-11H113q-16 0-27 11T75 64v124q0 16 11 27t26 11h1zm151-53q4-4 7-9h-46q-5-1-8.5 3t-3.5 9v47q3-2 5-4l46-46z"/></svg>