<svg viewBox="0 0 300 302.0011" xmlns="http://www.w3.org/2000/svg"><path d="M150 1q-40 0-74.5 20.5t-55 55Q0 111 0 151.5t20.5 75Q41 261 75.5 281t75 20q40.5 0 75-20t54.5-54.5q20-34.5 20-75t-20-75q-20-34.5-54.5-55T150 1zm0 275q-33 0-62-16.5T42 214q-17-29-17-63t17-62.5Q59 60 88 43t62.5-17Q184 26 213 43t45.5 45.5Q275 117 275 151t-16.5 63Q242 243 213 259.5T150 276zm-37-160q0 5 3 9t8 5l60 18q13 4 21 14.5t8 23.5q0 17-11.5 28.5T173 226h-41q-15 0-22-2-14-4-21-17-2-5-.5-10t6.5-7q5-2 9.5-.5t6.5 5.5q2 4 6.5 5t14.5 1h41q6 0 10.5-4t4.5-10q0-6-3-10t-8-5l-60-18q-13-3-21-14t-8-24q0-16 11.5-28T128 76h41q15 0 22 3 14 4 21 17 2 4 .5 9t-6.5 7.5q-5 2.5-9.5.5t-6.5-6q-2-4-6.5-5t-14.5-1h-41q-6 0-10.5 4.5T113 116z"/></svg>