<svg viewBox="0 0 300 302.0011" xmlns="http://www.w3.org/2000/svg"><path d="M31 32q0-13 9.5-22t22-9q12.5 0 22 9T94 32q0 13-9.5 22t-22 9q-12.5 0-22-9T31 32zm57 156H50q-10 0-17.5-7T25 163v-37q0-10 7.5-17.5T50 101q5 0 9-3.5t4-9q0-5.5-4-9T50 76q-21 0-35.5 14.5T0 126v37q0 14 7 25.5T25 207v81q0 6 3.5 9.5t9 3.5q5.5 0 9-3.5T50 288v-75h25v75q0 6 3.5 9.5t9 3.5q5.5 0 9-3.5t3.5-9.5v-87q0-5-3.5-9t-8.5-4zM238 63q12 0 21.5-9t9.5-22q0-13-9.5-22t-22-9q-12.5 0-22 9T206 32q0 13 9.5 22t22.5 9zm12 13q-5 0-8.5 3.5t-3.5 9q0 5.5 3.5 9t8.5 3.5q10 0 17.5 7.5T275 126v37q0 11-7.5 18t-17.5 7h-37q-6 0-9.5 4t-3.5 9v87q0 6 3.5 9.5t9 3.5q5.5 0 9-3.5t3.5-9.5v-75h25v75q0 6 3.5 9.5t9 3.5q5.5 0 9-3.5t3.5-9.5v-81q11-7 18-18.5t7-25.5v-37q0-21-14.5-35.5T250 76zm-36 24l-20-20q-4-4-9-4t-8.5 3.5q-3.5 3.5-3.5 9t3 8.5l17 16h-85l16-16q3-3 3-8.5t-3.5-9Q120 76 115 76t-9 4l-20 20q-11 11-11 26t11 26l20 20q4 4 9 4t8.5-3.5q3.5-3.5 3.5-9t-3-8.5l-16-16h85l-16 16q-4 3-4 8.5t3.5 9q3.5 3.5 8.5 3.5t9-4l20-20q11-11 11-26t-11-26z"/></svg>