<svg viewBox="0 0 300 302.0011" xmlns="http://www.w3.org/2000/svg"><path d="M238 26H63q-17 0-31.5 8.5t-23 23Q0 72 0 89v124q0 17 8.5 31.5t23 23Q46 276 63 276h175q16 0 30.5-8.5t23-23Q300 230 300 214V88q0-16-8.5-30.5t-23-23Q254 26 238 26zm37 187q0 16-11 27t-27 11H63q-16 0-27-11t-11-27V88q0-15 11-26t27-11h175q15 0 26 11t11 26v125zM138 101v100q0 5-4 8.5t-9 3.5q-5 0-8.5-3.5T113 201v-38H75v38q0 5-3.5 8.5t-9 3.5q-5.5 0-9-3.5T50 201V101q0-5 3.5-8.5t9-4q5.5-.5 9 3.5t3.5 9v37h38v-37q0-5 3.5-9t8.5-4q5 0 8.5 4t3.5 9h1zm62-13h-12q-11 1-18.5 8t-7.5 17v75q1 11 8 18.5t17 7.5h13q21-1 35.5-15.5T250 163v-25q0-20-14.5-35T200 88zm25 75q0 11-7.5 18.5T200 189h-12v-76h12q10 1 17.5 8t7.5 17v25z"/></svg>