<svg viewBox="0 0 300 302.0011" xmlns="http://www.w3.org/2000/svg"><path d="M288 235h-24V67q0-16-8-30t-22-22q-14-8-30-8H60q-16 0-30 8T8 37Q0 51 0 67v132q0 22 14 38.5T49 258q5 19 22 29.5t37 5.5q12-3 21.5-12t12.5-22h146q5 0 8.5-3.5t3.5-8.5q0-5-3.5-8.5T288 235zM24 103h54q2 0 4 2t2 4v24q0 2-2 4t-4 2H24v-36zm0 96v-36h54q12 0 21-9t9-21v-24q0-12-9-21t-21-9H24V67q0-15 10.5-25.5T60 31h144q15 0 25.5 10.5T240 67v168h-98q-5-19-22-29t-37-5q-12 3-20.5 12T50 234q-12-4-19-13.5T24 199zm72 72q-10 0-17-7t-7-17q0-10 7-17t17-7q10 0 17 7t7 17q0 10-7 17t-17 7zm66-108h24q12 0 21-9t9-21v-24q0-12-9-21t-21-9h-24q-12 0-21 9t-9 21v24q0 12 9 21t21 9zm-6-54q0-2 2-4t4-2h24q2 0 4 2t2 4v24q0 2-2 4t-4 2h-24q-2 0-4-2t-2-4v-24z"/></svg>