<svg viewBox="0 0 300 302.0011" xmlns="http://www.w3.org/2000/svg"><path d="M238 1H63Q46 1 31.5 9.5t-23 23Q0 47 0 63v175q0 17 8.5 31.5t23 23Q46 301 63 301h175q16 0 30.5-8.5t23-23Q300 255 300 238V63q0-16-8.5-30.5t-23-23Q254 1 238 1zM63 26h175q15 0 26 11t11 26v50H25V63q0-15 11-26t27-11zm175 250H63q-16 0-27-11t-11-27V138h250v100q0 16-11 27t-26 11zm0-50q0 5-4 8.5t-9 3.5H75q-5 0-8.5-3.5T63 226q0-5 3.5-9t8.5-4h150q5 0 9 4t4 9zm0-50q0 5-4 8.5t-9 3.5H75q-5 0-8.5-3.5T63 176q0-5 3.5-9t8.5-4h150q5 0 9 4t4 9zM169 67q-4-4-1.5-10t8.5-6h61q6 0 8.5 6T244 67l-31 28q-3 3-7 3t-7-3l-30-28z"/></svg>