<svg viewBox="0 0 300.0095 302.0011" xmlns="http://www.w3.org/2000/svg"><path d="M213.01 126v50q0 5-4 8.5t-9 3.5q-5 0-9-3.5t-4-8.5v-44l-78 78q-4 4-9 4t-9-4q-4-4-3.5-9t3.5-9l79-78h-45q-5 0-8.5-4t-4-9q-.5-5 3.5-8.5t9-3.5h50q16 0 26.5 11t10.5 26h1zm87 29v83q0 17-8.5 31.5t-23 23q-14.5 8.5-31.5 8.5h-73q-44 0-80-18t-58.5-50q-22.5-32-25.5-71-2-33 9.5-63.5T44.01 45q23-23 53.5-34.5t62.5-9.5q39 3 71 24.5t50.5 55.5q18.5 34 18.5 74zm-25 0q0-33-15.5-62t-42-47q-26.5-18-58.5-20h-9q-25 0-48 9.5t-41.5 28q-18.5 18.5-28 44t-7.5 52.5q3 33 21.5 59.5t49 41.5q30.5 15 68.5 15h74q15 0 26-11t11-26v-84z"/></svg>