<svg viewBox="0 0 300 302.0011" xmlns="http://www.w3.org/2000/svg"><path d="M131 32q0-8 5.5-13.5T150 13q8 0 13.5 5.5T169 32q0 8-5.5 13.5T150 51q-8 0-13.5-5.5T131 32zm107 131q0 24-12 44t-32 32q-20 12-44 12t-44-12q-20-12-31.5-32T63 163.5Q63 140 74.5 120T106 88q20-12 44-12t44 12q20 12 32 32t12 43zm-27 13h-61q-5 0-8.5-3.5t-3.5-9q0-5.5 3.5-9t8.5-3.5h61q-4-22-21.5-36T150 101q-17 0-31.5 8.5t-22.5 23q-8 14.5-8 31t8 31q8 14.5 22.5 23T150 226q22 0 39.5-14t21.5-36zM19 145q-8 0-13.5 5.5t-5.5 13q0 7.5 5.5 13T19 182q8 0 13.5-5.5t5.5-13q0-7.5-5.5-13T19 145zm262 0q-8 0-13 5.5t-5 13q0 7.5 5 13t13 5.5q8 0 13.5-5.5t5.5-13q0-7.5-5.5-13T281 145zM56 88q8 1 13.5-4.5T75 70q0-8-5.5-13.5T56 51q-8 0-13 5.5T38 70q0 8 5 13.5T56 89v-1zm188 150q-8 1-13.5 6t-5.5 13q0 8 5.5 13.5T244 276q8 0 13.5-5.5t5-13.5q-.5-8-5.5-13.5t-13-4.5v-1zm-188 0q-8 0-13 5.5T38 257q0 8 5 13.5t13 5.5q8 0 13.5-5.5T75 257q0-8-5.5-13.5T56 239v-1zM244 88q8 1 13.5-4.5t5-13.5q-.5-8-5.5-13.5T244 51q-8 0-13.5 5.5T225 70q0 8 5.5 13.5T244 89v-1z"/></svg>