<svg viewBox="0 0 300 302.0011" xmlns="http://www.w3.org/2000/svg"><path d="M200 1H100Q83 1 68.5 9.5T46 32.5Q38 47 37 63v175q1 17 9 31.5t22.5 23Q83 301 100 301h100q17 0 31.5-8.5t22.5-23q8-14.5 9-31.5V63q-1-16-9-30.5t-22.5-23Q217 1 200 1zm38 237q-1 16-11.5 27T200 276h-37v-13q0-5-4-8.5t-9-3.5q-5 0-9 3.5t-4 9.5v12h-37q-16 0-27-11t-11-26V63q1-15 11.5-26T100 26h100q16 0 27 11t11 27v174zm-38-37q0 5-3.5 8.5T188 213h-75q-6 0-9.5-3.5T100 201q0-5 3.5-8.5t9.5-3.5h75q5-1 8.5 3t3.5 9zm-75-38q5 0 9-3.5t4-8.5v-13h25v13q0 5 3.5 9t8.5 4q5 0 9-4t4-9v-50q0-16-11-27t-27-10.5q-16 .5-27 11T113 101v50q0 5 3.5 9t8.5 3zm25-75q5 0 9 4t4 9v12h-25v-12q0-5 3.5-9t8.5-4z"/></svg>