<svg viewBox="0 0 300 302.0011" xmlns="http://www.w3.org/2000/svg"><path d="M209 138q-3-6-3-12 0-14 10-24l53-52 10 10q3 3 8.5 3t9-3.5Q300 56 300 51t-4-9L259 5q-4-4-9-4t-8.5 3.5q-3.5 3.5-3.5 9t3 8.5l10 10-52 53q-10 9-23 10-7 0-14-3-10-5-22-3t-20 10L11 207q-8 9-10 22-3 15 1.5 29.5T17 284q9 8 20.5 12.5T61 301q6 0 11-1 13-2 21-10l109-109q8-8 10-20t-3-23zm-57-23q12 5 24 5l6-1-1 7q0 12 5 23 3 6 0 12-14-10-31-10-2 0-3.5-1t-1.5-3q0-18-10-32 3-2 6-2t6 2zM76 272q-3 3-7 3-9 2-18-.5t-15.5-9q-6.5-6.5-9-15.5t-.5-18q0-4 3-7l93-93q3 7 3 15-1 13 8 22t22 7q7 0 14 3l-93 93zm180-59q-18 0-30.5 13T213 257q0 18 12.5 31t30.5 13q18 0 31-13t13-31q0-18-13-31t-31-13zm0 63q-5 0-10-3t-7-8.5q-2-5.5-1-11t5-9.5q4-4 9.5-5t11 1q5.5 2 8.5 7t3 11.5q0 6.5-5.5 12T256 276z"/></svg>