<svg viewBox="0 0 300 302.0011" xmlns="http://www.w3.org/2000/svg"><path d="M288 138q0-20-15-35t-35-15V63q0-16-8.5-30.5t-23-23Q192 1 175 1h-50q-17 0-31.5 8.5T71 32.5Q63 47 63 64v24q-21 0-35.5 15T13 139v63q0 15 11 25.5T50 238h88v38H88q-6 0-9.5 3.5t-3.5 9q0 5.5 3.5 9T87 301h126q5 0 8.5-3.5t3.5-9q0-5.5-3.5-9T212 276h-49v-38h87q15 0 26-10.5t11-25.5l1-64zm-25 0v28q-7-3-13-3h-12v-50q10 1 17.5 8t7.5 17zM88 63q-1-15 10-26t27-11h50q16 0 27 11t10 27v99H88V63zm-25 50v50H50q-6 0-13 3v-28q1-10 8-17.5t18-7.5zm187 100H50q-5 1-8.5-3t-3.5-9q0-5 3.5-8.5T50 189h200q5-1 9 3t4 9q0 5-4 8.5t-9 3.5z"/></svg>