<svg viewBox="0 0 300.0014 302.0011" xmlns="http://www.w3.org/2000/svg"><path d="M200 69V45q0-23-17-35t-39-9q-18 0-31 13t-13 31v24q-32 23-57 53Q3 172 0 225q-1 12 3 23t11.5 20q7.5 9 18.5 14.5t22 5.5q25 0 42-17 8 14 22.5 22t30.5 8q16 0 30.5-8t22.5-22q13 13 31 16t34-5q16-8 25-23.5t7-33.5q-3-53-43-103-25-30-57-53zm-75-24q0-8 5.5-13.5T144 26h12q8 0 13.5 5.5T175 45v26q-7 11-11 22-6-5-14-4.5T136 93q-4-12-11-22V45zM88 232q-1 13-10 22.5T55.5 263Q42 262 33 251t-8-25q2-42 34-84 21-27 50-48 6 14 7 29-26 52-29 109h1zm86 35q-6 6-14.5 8t-16.5 0q-28-7-31-40-2-26 12-66 11-32 26-56 13 22 24 50 12 33 14 59 2 31-14 45zm91-13q-8 10-21 9.5t-22.5-9.5q-9.5-9-8.5-22-3-57-29-109 1-15 7-29 29 21 50 48 32 42 34 84 1 16-10 28z"/></svg>