<svg viewBox="0 0 300 302.0011" xmlns="http://www.w3.org/2000/svg"><path d="M163 88v125h25q5 0 8.5 4t3.5 9q0 5-3.5 8.5T187 238h-74q-6 0-9.5-3.5T100 226q0-5 3.5-9t8.5-4h26V88h-25q-6 0-9.5-3.5T100 76q0-5 3.5-8.5T112 64h76q5 0 8.5 3.5T200 76q0 5-3.5 9t-9.5 3h-24zm137-25v175q0 17-8.5 31.5t-23 23Q254 301 238 301H63q-17 0-31.5-8.5t-23-23Q0 255 0 238V63q0-16 8.5-30.5t23-23Q46 1 63 1h175q16 0 30.5 8.5t23 23Q300 47 300 64v-1zm-25 0q0-15-11-26t-27-11H63q-16 0-27 11T25 64v174q0 16 11 27t27 11h175q15 0 26-11t11-27V63z"/></svg>