<svg viewBox="0 0 300 302.0011" xmlns="http://www.w3.org/2000/svg"><path d="M150 1q-41 0-75 20T20.5 75.5Q0 110 0 150v1q0 41 20 75.5T74.5 281q34.5 20 75 20t75.5-20q4-3 5.5-8t-1-9.5Q227 259 222 258t-10 1q-28 17-61 17t-60-15q-27-15-44.5-40.5T26 164q4 2 7 4 10 8 23 8t23-8q4-3 10-4 4 21 21.5 35.5T150 214q22 0 39.5-14.5T211 164h1q6 0 9.5 3.5t3.5 8.5v50q0 5 3.5 9t9 4q5.5 0 9-4t3.5-9v-50q0-5 3.5-8.5t9-3.5q5.5 0 9 3.5t3.5 8.5v88q0 5 3.5 8.5t9 3.5q5.5 0 9-3.5t3.5-8.5V151q0-41-20-75.5T225.5 21Q191 1 150 1zm0 187q-16 0-26.5-10.5T113 151q0-16 10.5-26.5t26.5-11q16-.5 26.5 10.5t11 27q.5 16-10.5 26.5T150 188zm113-50q-15 0-25 10-11-10-25-10h-2q-4-21-21.5-35T150 88.5q-22-.5-39.5 14T89 138q-14 2-25 11-3 2-7.5 2t-7.5-2q-10-8-23-10 3-32 20-57.5T90.5 41Q118 26 150 26t59.5 15q27.5 15 45 41.5T274 141q-6-3-11-3z"/></svg>