<svg viewBox="0 0 300 302.0011" xmlns="http://www.w3.org/2000/svg"><path d="M300 107q0-29-14.5-53T247 15.5Q223 1 194 1q-26 0-48.5 11.5t-37.5 32Q93 65 89 90q-25 4-45.5 19t-32 37.5Q0 169 0 195q0 29 14.5 53T53 286.5Q77 301 106 301q26 0 48.5-11.5t37.5-32q15-20.5 19-45.5 25-4 45.5-19t32-37.5Q300 133 300 107zM106 276q-22 0-40.5-11T36 235.5Q25 217 25 195t11-41q11-19 29.5-30t40.5-11q22 0 41 11t30 30q11 19 11 41t-11 40.5Q166 254 147 265t-41 11zm106-90q-2-25-15.5-46.5t-35-35Q140 91 115 89q6-27 28-45t51-18q22 0 40.5 11T264 66.5Q275 85 275 107q0 29-18 51t-45 28zm26-110q-1 5-4.5 8.5T225 88h-12v13q0 5-4 8.5t-9 3.5q-5 0-8.5-3.5T188 101V88h-13q-5 0-8.5-3.5T163 76q0-5 3.5-8.5T175 64h13V51q0-5 3.5-9t8.5-4q5 0 9 4t3 9v12h13q5 1 8.5 4.5T237 76h1zm-88 87q0 6-3.5 9.5T137 176h-12v12q0 6-3.5 9.5t-9 3.5q-5.5 0-9-3.5T100 189v-13H88q-6 0-9.5-3.5t-3.5-9q0-5.5 3.5-9T87 151h13v-13q0-5 3.5-8.5t9-3.5q5.5 0 9 3.5t3.5 9.5v12h13q5 0 8.5 3.5t3.5 9.5v-1z"/></svg>