<svg viewBox="0 0 300 302.0011" xmlns="http://www.w3.org/2000/svg"><path d="M113 151q20 0 37-10t27.5-27.5Q188 96 188 76t-10.5-37.5Q167 21 150 11T112.5 1Q92 1 75 11T47.5 38.5Q37 56 37.5 76T48 113.5Q58 131 75 141t38 10zm0-125q20 0 35 14.5T163 76q0 21-15 35.5T112.5 126q-20.5 0-35-14.5T63 76q0-21 14.5-35.5T113 26zm112 262q0 6-3.5 9.5t-9 3.5q-5.5 0-9-3.5T200 289q0-24-12-44t-32-32q-20-12-43.5-12T69 213q-20 12-32 32t-12 44q0 5-3.5 8.5t-9 3.5q-5.5 0-9-3.5T0 289q0-31 15-57t41-41q26-15 56.5-15t56.5 15q26 15 41 41t15 56zm71-108q6 5 4 12t-9 9q-7 2-12-4l-23-22-22 22q-4 4-9 4t-8.5-3.5q-3.5-3.5-3.5-9t3-8.5l23-23-23-22q-3-4-3-9t3.5-8.5q3.5-3.5 8.5-3.5t9 3l22 23 23-23q3-3 8.5-3t9 3.5q3.5 3.5 3.5 8.5t-4 9l-22 22 22 23z"/></svg>