<svg viewBox="0 0 300.5 302.0011" xmlns="http://www.w3.org/2000/svg"><path d="M84.5 213q7 0 16-1 17-4 35.5-15t34.5-26q29-30 39-63 4-16 3-29T205 59.5q-6.5-6.5-17.5-8t-24 1.5q-18 4-36 14.5T93.5 94q-29 29-39 63-5 16-3.5 28.5t7.5 19.5q9 9 26 8zm27-101q13-14 28-23t29-12q6-1 10.5-1t7.5 1q3 3 1 14-2 14-10 28-9 18-25 34-13 13-28 22t-29 12q-8 2-14 2-3-1-5-1-2-4 0-15 2-13 9-27 10-18 26-34zm144-75q-5-4-10-9-9-9-10-9-21-17-51.5-18t-63.5 14.5Q87.5 31 59 59.5T15 121Q-.5 154 0 184t17.5 51q1 1 10 11l9 10q22 22 50.5 33.5t59 11.5q30.5 0 59-11.5t50.5-33.5q22-22 33.5-50.5t11.5-59q0-30.5-11.5-59T255.5 37zm-179 40q24-24 52.5-37.5T183 26q25.5 0 40 15t15 40q.5 25-13 53.5t-38 53q-24.5 24.5-53 38t-53.5 13q-25-.5-40-15t-15-39.5q0-25 13.5-53.5T76.5 77zm161 161q-29 30-70 36.5t-77-11.5q28-2 58-17t56-41q26-26 41-56t17-58q13 26 13 56 0 25-10 49t-28 42z"/></svg>