<svg viewBox="0 0 300 302.0011" xmlns="http://www.w3.org/2000/svg"><path d="M150 301q-41 0-75.5-20T20 226.5Q0 192 0 151t20-75.5Q40 41 74.5 21T150 1q41 0 75.5 20T280 75.5q20 34.5 20 75.5t-20 75.5Q260 261 225.5 281T150 301zm0-275q-34 0-62.5 17T42 88.5Q25 117 25 151t17 62.5Q59 242 87.5 259t62.5 17q34 0 62.5-17t45.5-45.5q17-28.5 17-62.5t-17-62.5Q241 60 212.5 43T150 26zM95 176l-16 12q-4 4-4 10t4 10l7 8q10 10 25 10 22 0 49.5-18t46-45q18.5-27 18.5-51 0-15-10-25l-8-7q-4-4-10-4t-10 4l-12 16q-5 5-5 10.5t5 10.5l10 13q-16 41-56 56l-13-10q-5-5-10.5-5T95 176z"/></svg>