<svg viewBox="0 0 300 302.0011" xmlns="http://www.w3.org/2000/svg"><path d="M238 114V51q0-21-15-35.5T187 1h-74Q92 1 77.5 15.5T62 51v63q-11 9-17.5 22T37 164v24q1 31 16 57t40.5 41q25.5 15 56.5 15t56.5-15q25.5-15 41-41t15.5-56v-26q-1-14-7.5-27T237 114h1zM88 101V51q0-10 7-17.5t17-7.5h76q10 0 17 7.5t7 17.5v50H88zm150 87q-1 24-12.5 44T194 264q-20 12-44 12t-44-12q-20-12-32-32t-12-43v-26q1-15 11.5-26t26.5-11h100q16 0 27 11t11 26v25zM113 63q0 6 3.5 9.5T125 76q5 0 9-3.5t4-9q0-5.5-4-9t-9-3.5q-5 0-8.5 3.5T113 63zm50 0q0 6 3.5 9.5T175 76q5 0 9-3.5t4-9q0-5.5-4-9t-9-3.5q-5 0-9 3.5t-4 8.5h1z"/></svg>