<svg viewBox="0 0 300 302.0011" xmlns="http://www.w3.org/2000/svg"><path d="M200 263h6q24 0 41.5-15.5T268 209l3-21h4q12 0 18.5-7.5T300 163q0-12-20-51.5T248 56q-23-30-57.5-44.5T118 2Q87 7 61.5 24t-42 44Q3 95 1 126q-3 26 4.5 50.5T28 222q10 12 10 29v12q0 16 11 27t26 11h88q15 0 26-11t11-27zm28-191q11 14 28.5 48t18.5 43h-15q-5 0-8.5 3.5T248 174l-4 32q-2 14-13 23t-25 9h-18q-5 0-9 4t-4 9v12q0 6-3.5 9.5T163 276H75q-5 0-8.5-3.5T63 263v-12q0-25-15-44-13-17-18.5-37.5T26 128q2-25 15-47t34-36q21-14 47-18 8-1 16-1 26 0 49.5 12T228 72z"/></svg>