<svg viewBox="0 0 300 302.0011" xmlns="http://www.w3.org/2000/svg"><path d="M176 244q7 7 17.5 7t17.5-7l35-34q4-4 4-9t-3.5-8.5q-3.5-3.5-9-4T229 192l-35 34-21-20q22-15 36-37t15.5-47q1.5-25-7-48T192 34q-17-17-40-25.5T104 1Q77 3 53 19.5T14.5 62Q0 88 0 117v63q0 19 13.5 32.5T46 226h56q24 0 47-9l27 27zM46 201q-9 0-15-6t-6-15v-63q0-22 11-42.5T66 41q19-13 40-15h6q18 0 34 6.5T175 52q13 13 19.5 31t5.5 37q-2 22-15.5 40.5T149 190q-22 11-47 11H46zM149 82q3 12-2.5 23T131 121q-6 3-6 5 0 5-3.5 9t-9 3.5q-5.5-.5-9-4T100 126q0-11 7-18 4-4 12-9 3-1 5-4.5t1-8q-1-4.5-3.5-7T115 76q-6-1-10.5 3t-4.5 9.5q0 5.5-3.5 9t-9 3.5q-5.5 0-9-3.5T75 89q0-18 13.5-29.5T119 52q12 2 20 10t10 20zm-21 85q0 6-4.5 10.5t-11 4.5q-6.5 0-11-4.5t-4.5-11q0-6.5 4.5-11t11-4.5q6.5 0 11 4.5T128 167zm172 34v62q0 16-11 27t-27 11h-62q-27 0-50-13.5T114 251q14 0 28-3 10 13 25.5 20.5T200 276h63q5 0 8.5-3.5t3.5-8.5v-63q0-17-7.5-32.5T247 143q3-14 3-28 23 13 36.5 36t13.5 50z"/></svg>