<svg viewBox="0 0 300 302.0011" xmlns="http://www.w3.org/2000/svg"><path d="M238 1H63Q46 1 31.5 9.5t-23 23Q0 47 0 63v100q0 25 16.5 43T58 226l5 38v24q0 6 3.5 9.5T75 301q5 0 8.5-3.5T87 289v-13h26v12q0 6 3.5 9.5t8.5 3.5q5 0 9-3.5t4-8.5v-13h25v12q-1 6 3 9.5t9 3.5q5 0 9-3.5t4-8.5v-13h25v12q0 6 3.5 9.5t8.5 3.5q5 0 9-3.5t3-8.5v-23l6-40q24-2 40.5-20t16.5-43V63q0-16-8.5-30.5t-23-23Q254 1 238 1zM78 190q0-6 3.5-10t9.5-4h22v25H80l-2-11zm85-14v25h-25v-25h25zm46 0q6 0 9.5 4t3.5 10l-2 11h-32v-25h21zM86 251l-3-25h30v25H86zm52 0v-25h25v25h-25zm50-25h29l-3 25h-26v-25zm87-63q0 14-8 24t-21 13l1-7q2-17-9.5-29.5T209 151H91q-17 0-28 12.5T54 193v7q-12-3-20.5-13T25 164V63q0-15 11-26t26-11h176q15 0 26 11t11 27v99zm-50-62v12q0 6-3.5 9.5t-9 3.5q-5.5 0-9-3.5T200 114v-13q0-5-3.5-9t-8.5-4h-75q-6 0-9.5 4t-3.5 9v12q0 6-3.5 9.5t-9 3.5q-5.5 0-9-3.5T75 114v-13q0-16 11-27t27-11h75q15 1 26 11.5t11 26.5z"/></svg>