<svg viewBox="0 0 300 302.0011" xmlns="http://www.w3.org/2000/svg"><path d="M238 1H63Q46 1 31.5 9.5t-23 23Q0 47 0 64v174q0 17 8.5 31.5t23 23Q46 301 63 301h175q16 0 30.5-8.5t23-23Q300 255 300 238V63q0-16-8.5-30.5t-23-23Q254 1 237 1h1zm37 237q0 16-11 27t-27 11H63q-16 0-27-11t-11-27V63q0-15 11-26t27-11h175q15 0 26 11t11 27v174zM222 84l-56 67 56 67q3 4 2.5 9t-4 8q-3.5 3-8.5 3t-9-4l-53-63-53 63q-4 4-9 4t-8.5-3q-3.5-3-4-8t2.5-9l56-67-56-67q-3-4-2.5-9t4-8.5q3.5-3.5 9-3T97 68l53 63 53-63q3-4 8-4.5t9 3q4 3.5 4.5 8.5t-2.5 9z"/></svg>