<svg viewBox="0 0 300 302.0011" xmlns="http://www.w3.org/2000/svg"><path d="M299 159L261 51q-4-11-13.5-18T226 26h-63V13q0-5-4-8.5T150 1q-5 0-9 3.5t-4 9.5v12H74q-12 0-21.5 7T39 51L1 159l-1 8q0 24 15.5 41T54 226q23 1 41-15 8-8 13-19t4-22v-11L72 51h66v225H63q-6 0-9.5 3.5t-3.5 9q0 5.5 3.5 9T63 301h175q5 0 8.5-3.5t3.5-9q0-5.5-3.5-9T238 276h-75V51h65l-40 108-1 11q0 11 5 22t13 18.5q8 7.5 18 11.5t24 4q14 0 26.5-8t19.5-21.5q7-13.5 7-29.5l-1-8zM55 201q-10-1-18-8t-11-17h61q-2 10-9 16-10 10-23 9zm27-50H30l26-73 26 73zm162-73l26 73h-52l26-73zm1 123q-13 1-23-9-7-6-9-16h61q-3 10-11 17t-18 8z"/></svg>