<svg viewBox="0 0 300 302.0011" xmlns="http://www.w3.org/2000/svg"><path d="M278 237q-2-1-2.5-4t-.5-12V107q0-29-8.5-53.5T244 15Q230 1 213 1H63Q45 1 31 15T8.5 53.5Q0 78 0 107.5T8.5 161Q17 185 31 199t32 14h37v25q0 17 8.5 31.5t23 23Q146 301 162 301h105q14 0 23.5-9.5T300 268q0-10-6-18.5T278 237zm-28-130q0 23-5.5 41.5t-14.5 29q-9 10.5-17.5 10.5T195 177.5q-9-10.5-14.5-29T175 107q0-23 5.5-41.5t14.5-29Q204 26 212.5 26T230 36.5q9 10.5 14.5 29T250 107zm-225 0q0-23 5.5-41.5t14.5-29Q54 26 63 26h109q-10 15-16 36t-6 45.5q0 24.5 6 45.5t16 36H63q-9-1-18-11.5t-14.5-29Q25 130 25 107zm242 169H163q-16 0-27-11t-11-27v-25h88q21 0 37-20v27q0 15 2 22 4 13 17 18 6 2 6 6.5t-2.5 7Q270 276 267 276zM213 88q5 0 8.5 5.5T225 107q0 8-3.5 13.5t-9 5.5q-5.5 0-9-5.5T200 107q0-8 3.5-13.5T213 88z"/></svg>