<svg viewBox="0 0 300 302.0011" xmlns="http://www.w3.org/2000/svg"><path d="M113 76q-31 0-57 15t-41 41Q0 158 0 188.5T15 245q15 26 41 41t56.5 15q30.5 0 56.5-15t41-41q15-26 15-56.5T210 132q-15-26-41-41t-57-15h1zm0 200q-24 0-44-12t-32-32q-12-20-12-43.5T37 145q12-20 32-32t43.5-12q23.5 0 43.5 12t32 32q12 20 12 43.5T188 232q-12 20-32 32t-43 12zm40-58q3 3 3 8.5t-4.5 9.5q-4.5 4-11.5 8-14 7-27.5 7T85 244q-7-4-11.5-8t-4.5-9.5q0-5.5 3.5-9t8.5-4q5-.5 9 3.5 2 2 6 4 9 5 16.5 5t15.5-4q4-3 7-5 4-4 9-3.5t9 4.5zm-72-30q-8 1-13-4.5T63 170q0-8 5-13.5t13-5.5q8 0 13.5 5.5T100 170q0 8-5.5 13.5T81 189v-1zm82-18q0 8-5.5 13.5T144 189q-8 0-13.5-5.5T125 170q0-8 5.5-13.5T144 151q8 0 13.5 5.5T163 170zM300 51q0 5-3.5 8.5T288 63h-25v25q0 6-4 9.5t-9 3.5q-5 0-8.5-3.5T238 88V63h-25q-6 1-9.5-3t-3.5-9q0-5 3.5-9t9.5-4h25V13q0-5 3.5-8.5T250 1q5 0 9 3.5t4 9.5v24h25q5 0 8.5 4t3.5 9z"/></svg>