<svg viewBox="0 0 300 302.0011" xmlns="http://www.w3.org/2000/svg"><path d="M263 63h-10l-5-7q-23-30-57.5-44.5T118 2Q87 7 61.5 24t-42 44Q3 95 1 126q-3 26 4.5 50.5T28 222q10 12 10 29v12q0 16 10.5 27T75 301h88q15 0 26-11t11-27h6q24 0 41.5-15.5T268 209l1-6q1-6-2.5-10t-8.5-4.5q-5-.5-9 2.5t-5 8l-1 7q-1 14-12 23t-25 9h-18q-6 0-9.5 4t-3.5 9v12q0 6-3.5 9.5T162 276H75q-5 0-8.5-3.5T63 263v-12q-1-25-15-44-13-17-18.5-37.5T25 128l1-2h101q4 16 17.5 26.5T175 163h88q15 0 26-11t11-26v-25q0-16-11-27t-27-11h1zM122 27q28-4 54 5.5T221 64h-46q-17-1-30.5 10T127 101H31q11-29 35.5-49.5T122 27zm153 99q0 5-3.5 8.5T262 138h-87q-10 0-17.5-7t-7.5-17.5q0-10.5 7.5-18T175 88h88q5 0 8.5 4t3.5 9v25z"/></svg>