<svg viewBox="0 0 300 302.0011" xmlns="http://www.w3.org/2000/svg"><path d="M173 301h-46q-22 0-42.5-8T48 269q-33-33-46-79-3-11-1-22.5t9-21q7-9.5 17.5-15T50 126h200q12 0 22.5 5.5t17.5 15q7 9.5 9 21t-1 22.5q-13 46-46 79-16 16-36.5 24t-42.5 8zM50 151q-13 0-20.5 10T26 183q11 40 40 69 12 11 28 17.5t33 6.5h46q17 0 33-6.5t28-17.5q29-29 40-69 4-12-4-22t-20-10H50zm150-75q0-23-16-39-9-9-9-21v-3q0-5-3.5-8.5t-9-3.5q-5.5 0-9 3.5T150 13v3q0 22 16 39 9 8 9 21 0 5 3.5 9t9 3.5q5.5-.5 9-4T200 76zm-50 12v-3q0-23-16-39-9-9-9-22V13q0-5-3.5-8.5t-9-3.5q-5.5 0-9 3.5T100 13v11q0 23 16 39 9 9 9 22v3q0 6 3.5 9.5t9 3.5q5.5 0 9-3.5T150 89v-1z"/></svg>