<svg viewBox="0 0 300 302.0011" xmlns="http://www.w3.org/2000/svg"><path d="M242 119q-10 0-18-6t-10-16l-3-13q-8-37-37-60T108 1Q79 1 54 15.5T14.5 55Q0 80 0 109v129q0 17 8.5 31.5t23 23Q46 301 63 301h175q16 0 30.5-8.5t23-23Q300 255 300 238v-61q0-15-8-28.5T271 127q-13-8-29-8zM108 26q28 0 50.5 18T187 89l3 13q4 19 18.5 30.5T242 144q14 0 23.5 10t9.5 23v11H25v-79q0-22 11-41.5T66.5 37Q86 26 108 26zm130 250H63q-16 0-27-11t-11-27v-25h38v25q0 6 3.5 9.5T75 251q5 0 9-3.5t4-8.5v-26h25v25q0 6 3.5 9.5t8.5 3.5q5 0 9-3.5t3-8.5v-26h26v25q-1 6 3 9.5t9 3.5q5 0 9-3.5t3-8.5v-26h26v25q0 6 3.5 9.5t8.5 3.5q5 0 8.5-3.5t3.5-8.5v-26h38v25q0 16-11 27t-27 11h1z"/></svg>