<svg viewBox="0 0 300 302.0011" xmlns="http://www.w3.org/2000/svg"><path d="M238 38H63q-17 0-31.5 8.5t-23 23Q0 84 0 101v100q0 17 8.5 31.5t23 22.5q14.5 8 31.5 8h175q16 0 30.5-8t23-22.5Q300 218 300 201V101q0-17-8.5-31.5t-23-23Q254 38 238 38zm37 163q0 15-11 26t-26 11h-9l-9-13q-4-6-9.5-9t-11.5-3h-98q-6 0-11.5 3t-9.5 9l-9 13h-8q-16 0-27-11t-11-26V101q0-15 11-26.5T63 63h174q16 0 27 11.5t11 26.5v100zm-62-100H88q-16 0-27 11t-11 26.5Q50 154 61 165t27 11h125q15 0 26-11t11-26.5q0-15.5-11-26.5t-26-11zm-36 25q-2 6-2 12.5t2 12.5h-54q2-6 2-12.5t-2-12.5h54zm-89 0q5 0 8.5 3.5t3.5 9q0 5.5-3.5 9t-9 3.5q-5.5 0-9-3.5t-3.5-9q0-5.5 3.5-9T88 126zm125 25q-6 0-9.5-3.5t-3.5-9q0-5.5 3.5-9t9-3.5q5.5 0 9 3.5t3.5 9q0 5.5-3.5 9T213 151z"/></svg>