<svg viewBox="0 0 300 302.0011" xmlns="http://www.w3.org/2000/svg"><path d="M100 138H63q-6 1-9.5-3t-3.5-9q0-5 3.5-9t8.5-3h38q5-1 8.5 3t4 9q.5 5-3.5 8.5t-9 3.5zm197 159q-4 4-9 4t-9-3l-31-27q-21 17-48 17-20 0-37.5-10T135 251q-10-17-10-37.5t10-37.5q10-17 27.5-27.5T200 138q20 0 37.5 10.5T265 176q10 17 10 37.5T264 252l32 27q4 3 4 8.5t-3 9.5zm-85-54l34-33q4-4 4-9t-3.5-9q-3.5-4-9-4t-8.5 4l-34 33q-2 1-3.5 1t-3.5-1l-17-17q-3-4-8.5-3.5t-9 4Q150 212 150 217t4 9l17 17q8 8 20.5 8t20.5-8zm-74 45q0 6-4 9.5t-9 3.5H63q-17 0-31.5-8.5t-23-23Q0 255 0 238V63q0-16 8.5-30.5t23-23Q46 1 63 1h56q17 0 33 6.5T181 27l43 43q17 17 23 40 2 6-2 11t-10 5h-72q-16 0-27-11t-11-26V26H63q-16 0-27 11T25 64v174q0 16 11 27t27 11h62q5 0 9 3.5t4 9.5v-1zm12-200q0 6 3.5 9.5t9.5 3.5h54q-4-7-10-13l-44-44q-6-6-13-10v54zm-62 75H63q-6 0-9.5 4t-3.5 9q0 5 3.5 8.5T62 188h26q5 0 8.5-3.5t3.5-8.5q0-5-3.5-8.5T88 164v-1zm0 50H63q-6 0-9.5 4t-3.5 9q0 5 3.5 9t8.5 3h26q5 0 8.5-3.5t3.5-8.5q0-5-3.5-9t-8.5-4z"/></svg>