<svg viewBox="0 0 300 302.0011" xmlns="http://www.w3.org/2000/svg"><path d="M272 201h16q5 0 8.5-3.5t3.5-8.5v-76q0-5-3.5-8.5T287 101h-13q-5-22-22-36t-39-14H68L21 5q-3-4-8.5-4t-9 3.5Q0 8 0 13.5T4 22l275 275q3 4 8.5 4t9-3.5q3.5-3.5 3.5-9t-4-8.5l-44-45q15-14 20-34zM93 76h120q15 0 26 11t11 26v69q0 10-4.5 19.5T234 217L93 76zm82 162q0 6-3.5 9.5T163 251H63q-17 0-31.5-8.5t-23-23Q0 205 0 189v-76q0-16 8-31 3-4 8-5.5t9.5 1q4.5 2.5 6 7.5T30 95q-5 8-5 19v75q0 15 11 26t26 11h101q5 0 8.5 3.5t3.5 9.5v-1z"/></svg>