<svg viewBox="0 0 300 302.0011" xmlns="http://www.w3.org/2000/svg"><path d="M63 88h12v13q0 5 3.5 8.5T87 113h26q5 0 8.5-3.5t3.5-8.5V88h13q5 0 8.5-3.5T150 76V51q0-14-7.5-26t-20-18.5Q110 0 95 1 76 3 63 18T50 53v23q0 5 3.5 8.5T62 88h1zm62-50q5 0 9 4t4 9q0 5-4 9t-9 4q-5 0-8.5-4t-4-9q-.5-5 3.5-9t9-4zm-50 0q5 0 9 4t4 9q0 5-4 8.5t-9 4q-5 .5-9-3.5t-4-9q0-5 4-9t9-4zm213 73q-12-11-27.5-10T235 113l-41 44q-5-8-14-13.5t-19-5.5H50q-21 0-35.5 15T0 188v63q0 21 14.5 35.5T50 301h62q27 0 51.5-11t41.5-31l85-95q11-12 10-27.5T288 111zm-16 36l-85 96q-14 15-34 24t-41 9H50q-10 0-17.5-7.5T25 251v-63q0-10 7.5-17.5T50 163h111q6 0 10 4.5t4 10q0 5.5-3.5 9.5t-8.5 5l-65 9q-5 1-8 5t-2.5 9q.5 5 5 8.5t9.5 2.5l64-9q11-2 19.5-9t12.5-17l55-61q4-4 9-4t9 3.5q4 3.5 4 8.5t-3 9z"/></svg>