<svg viewBox="0 0 300 302.0011" xmlns="http://www.w3.org/2000/svg"><path d="M270 96q-7-13-20-17.5t-26-.5l-15 6q7-20 .5-39.5t-23-31.5Q170 1 150 1t-36.5 12Q97 25 90.5 44.5T91 84l-15-6q-15-5-29 1.5t-19 21q-5 14.5 1.5 29T50 149l21 7q10 3 14 12t2 19.5Q85 198 80 206l-23 36q-6 9-6.5 20t5.5 20.5q6 9.5 16 14.5t20 4q18-3 27-17l30-45q0-1 1.5-1t1.5 1l28 44q8 13 23.5 16.5T232 295q13-8 16.5-23.5T244 243l-24-37q-5-8-6.5-18.5t2-19.5q3.5-9 13.5-12l21-7q16-6 22.5-22T270 96zM150 26q15 0 25.5 10.5t11.5 25q1 14.5-8.5 26T154 101h-8q-14-2-24-13.5t-9-26q1-14.5 11.5-25T150 26zm99 92q-2 5-7 7l-21 7q-17 6-25.5 21t-7.5 33.5q1 18.5 11 33.5l24 37q3 4 1.5 9t-6 7.5Q214 276 209 275t-8-6l-28-43q-3-6-9-9.5t-13-3.5q-7 0-13 3.5t-10 8.5l-30 45q-3 5-9 6t-9.5-3q-3.5-4-4-8.5T78 256l23-36q10-15 11-33.5t-7.5-33.5Q96 138 79 132l-21-7q-6-2-7-9.5t4.5-12Q61 99 68 102l17 6q24 9 36 12 20 6 29 6t29-6q12-3 35-12l18-6q4-1 7.5-.5t6.5 3q3 2.5 3.5 6t-.5 7.5zm-86 33q0 5-4 9t-9 3.5q-5-.5-9-4t-3.5-8.5q.5-5 4-9t8.5-4q5 0 9 4t4 9zm0 37q0 6-4 9.5t-9 3.5q-5 0-9-3.5t-3.5-9q.5-5.5 4-9t8.5-3.5q5 0 9 3.5t4 9.5v-1z"/></svg>