<svg viewBox="0 0 300 302.0011" xmlns="http://www.w3.org/2000/svg"><path d="M263 156v-18q0-30-15.5-56t-41-41Q181 26 150 26T93.5 41Q68 56 52.5 82T37 138v18q-20 9-30 29t-5.5 41.5Q6 248 23 262t40 14q10 0 17.5-7.5T87 251v-75q1-10-6.5-17.5T63 151v-13q0-23 11.5-43T106 63q20-12 44-12t44 12q20 12 32 32t12 44v12q-11 0-18 7.5t-7 17.5v75q0 10 7 17.5t18 7.5q22 0 39-14t21.5-35.5Q303 205 293 185t-30-29zM63 251q-16 0-27-11t-11-26.5Q25 198 36 187t26-11l1 75zm175 0v-75q15 0 26 11t11 26.5q0 15.5-11 26.5t-27 11h1z"/></svg>