<svg viewBox="0 0 300 302.0011" xmlns="http://www.w3.org/2000/svg"><path d="M36 103L4 73q-4-4-4-9t3.5-9Q7 51 12 51t9 3l29 27V13q0-5 3.5-8.5t9-3.5q5.5 0 9 3.5T75 14v67l29-27q4-3 9-3t8.5 4q3.5 4 3.5 9t-4 9l-33 30q-10 11-25.5 11T36 103zm261-48q-4-4-9-4t-9 3l-29 27V13q0-5-3.5-8.5t-9-3.5q-5.5 0-9 3.5T225 14v67l-29-27q-4-3-9-3t-8.5 4q-3.5 4-3.5 9t4 9l32 30q11 11 26.5 11t25.5-11l33-30q4-4 4-9t-3-9zm-27 170q6 13 5 26.5t-8.5 25q-7.5 11.5-19.5 18t-25 6.5H78q-13 0-25-6.5t-19.5-18Q26 265 25 251.5t5-26.5l73-109q13-15 22-20 11-7 25-7 27 0 47 28l73 108zm-89 51l-25-46q-2-4-6-4t-6 4l-25 46h62zm67-39l-71-105q-13-18-27-19-7 0-12 3.5T123 132L52 237q-6 13 2.5 26T78 276h13l31-57q3-8 11-13t17-5q9 0 17 5t12 13l30 57h13q15 0 23.5-13t2.5-26z"/></svg>