<svg viewBox="0 0 300 302.0011" xmlns="http://www.w3.org/2000/svg"><path d="M222 132q-14-14-32-22.5t-38.5-8.5q-20.5 0-39 7.5T80 130l-5 5v-9q0-27 13.5-50T125 39.5Q148 26 175 26h38q5 0 8.5-3.5t3.5-9q0-5.5-3.5-9T212 1h-37q-34 0-62.5 17T67 63.5Q50 92 50 126v77q1 26 14 48t34.5 35.5Q120 300 145 301h5q19 0 36.5-7t32-20q14.5-13 22.5-31t9-38q1-20-6.5-39T222 132zm-72 144q-20 0-37.5-10T85 238.5Q75 221 75 201t10-37.5Q95 146 112.5 136t37.5-10q20 0 37.5 10t27.5 27.5q10 17.5 10 37.5t-10 37.5Q205 256 187.5 266T150 276z"/></svg>