<svg viewBox="0 0 300 302.0011" xmlns="http://www.w3.org/2000/svg"><path d="M113 138q0-5 3.5-8.5t8.5-3.5h50q5 0 9 3.5t4 9q0 5.5-4 9t-9 3.5h-50q-5 0-8.5-3.5T113 139v-1zm187 88v12q0 17-8.5 31.5t-23 23Q254 301 237 301H63q-17 0-31.5-8.5t-23-23Q0 255 0 239v-13q0-22 14-39.5T50 165v-14q0-27 13.5-50T100 64V51q0-21 14.5-35.5T150 1q21 0 35.5 14.5T200 51v13q23 14 36.5 37t13.5 50v14q22 4 36 21.5t14 39.5zM125 54q25-6 50 0v-3q0-10-7.5-17.5T150 26q-10 0-17.5 7.5T125 51v3zM75 208q15-16 34.5-24t40.5-8q21 0 40.5 8t34.5 24v-57q0-20-10-37.5T187.5 86Q170 76 150 76t-37.5 10Q95 96 85 113.5T75 151v57zm-12 68q-13-17-13-37v-48q-11 4-18 13.5T25 226v12q0 16 11 27t26 11h1zm125 0q12 0 22-7.5t13-19.5q-9-22-29-35t-44-13q-24 0-44 13t-29 35q3 12 13 19.5t22 7.5h76zm87-50q0-12-7-21.5T250 191v47q0 21-13 38h1q15 0 26-11t11-27v-12z"/></svg>