<svg viewBox="0 0 300 302.0011" xmlns="http://www.w3.org/2000/svg"><path d="M31 32q0-13 9.5-22t22-9q12.5 0 22 9T94 32q0 13-9.5 22.5t-22 9Q50 63 40.5 54T31 32zm69 175v81q0 6-3.5 9.5t-9 3.5q-5.5 0-9-3.5T75 288v-75H50v75q0 6-3.5 9.5t-9 3.5q-5.5 0-9-3.5T25 288v-81q-11-7-18-18.5T0 163v-37q0-21 14.5-35.5T50 76h25q21 0 35.5 14.5T125 126v37q0 14-7 25.5T100 207zm0-81q0-10-7.5-17.5T75 101H50q-10 0-17.5 7.5T25 126v37q0 11 7.5 18.5T50 189h25q10-1 17.5-8t7.5-18v-37zm200 87q0 24-12 44t-32 32q-20 12-43.5 12T169 289q-20-12-32-32t-12-43.5q0-23.5 12-43.5t32-32q20-12 43.5-12t43.5 12q20 12 32 32t12 43zm-25 0q0-16-8.5-30.5t-23-23q-14.5-8.5-31-8.5t-31 8.5q-14.5 8.5-23 23t-8.5 31q0 16.5 8.5 31t23 23q14.5 8.5 31 8.5t31-8.5q14.5-8.5 23-23T275 214v-1zm-62 0q5 0 8.5-3.5t3.5-8.5v-25q0-5-3.5-9t-9-4q-5.5 0-9 4t-3.5 9v25q0 5 3.5 9t9.5 4v-1zm0 13q-8 0-13.5 5.5T194 245q0 8 5.5 13t13 5q7.5 0 13-5t5.5-13q0-8-5.5-13.5T213 226z"/></svg>