<svg viewBox="0 0 300 302.0011" xmlns="http://www.w3.org/2000/svg"><path d="M294 146q7-18 2-36-3-12-11-21t-19-14q-4-2-4-6-3-24-22-38.5T197 20q-4 1-8-3-16-16-39-16t-39 16q-4 4-8 3-24-4-43 10.5T38 69q0 4-4 6-11 5-19 14T4 110q-5 18 2 36 2 5 0 10-7 18-2 36 3 12 11 21t19 15q4 1 4 5 3 24 22 38.5t43 10.5q4-1 7 3 17 16 40 16t39-16q4-4 8-3 24 4 43-10.5t22-38.5q0-4 4-6 11-5 19-14t11-21q5-18-2-36-2-5 0-10zm-23 19q4 10 1 21-4 13-17 19-7 4-12 10.5t-6 14.5q-2 13-12.5 21t-23.5 6q-8-1-15.5 1.5T172 267q-9 9-22 9t-22-9q-10-10-24-10h-5q-13 2-23.5-6T63 230q-1-8-6-14.5T45 205q-13-6-17-19-3-11 1-21 6-14 0-28-4-10-1-20 4-14 17-20 7-4 12-10.5T63 72q2-13 12.5-21T99 45q8 1 15.5-1.5T128 35q9-9 22-9t22 9q6 6 13.5 8.5T201 45q13-2 23.5 6T237 72q1 8 6 14.5T255 97q13 6 17 20 3 10-1 20-6 14 0 28zm-171-8q0 8-5.5 13.5T81 176q-8 0-13.5-5.5T62 157q0-8 5.5-13.5T81 138q8 0 13.5 5.5T100 157zm50 63q0 7-5.5 12.5T131 238q-8 0-13.5-5.5t-5.5-13q0-7.5 5.5-13T131 201q8 0 13.5 5.5T150 220zM112 82q0-8 5.5-13.5T131 63q8 0 13.5 5.5T150 82q0 8-5.5 13.5T131 101q-8 0-13.5-5.5T112 82zm63 63q0 7-5.5 12.5T156 163q-8 0-13.5-5t-5.5-13q0-8 5.5-13.5T156 126q8 0 13.5 5.5T175 145zm62 25q0 7-5.5 12.5t-13 5.5q-7.5 0-13-5.5t-5.5-13q0-7.5 5.5-13T219 151q8 0 13 5.5t5 13.5z"/></svg>