<svg viewBox="0 0 300 302.0011" xmlns="http://www.w3.org/2000/svg"><path d="M238 1H63Q46 1 31.5 9.5t-23 23Q0 47 0 64v174q0 17 8.5 31.5t23 23Q46 301 63 301h175q16 0 30.5-8.5t23-23Q300 255 300 238V63q0-16-8.5-30.5t-23-23Q254 1 237 1h1zm37 237q0 16-11 27t-27 11H63q-16 0-27-11t-11-27V63q0-15 11-26t27-11h175q15 0 26 11t11 27v174zm-137-37v-50l-48-36q-4-3-5-8.5t2.5-9.5q3.5-4 8.5-4.5t9 2.5l45 34 45-34q4-3 9-2.5t8.5 4.5q3.5 4 2.5 9.5t-5 8.5l-47 36v50q0 5-4 8.5t-9 3.5q-5 0-9-3.5t-4-8.5h1zm-45-60q-1 3-4.5 5.5T82 149q-3 0-5-1-15-5-24-18t-9-29q0-21 14.5-35.5T94 51q13 0 24.5 6.5T137 76q3 4 1.5 9t-6 8q-4.5 3-9.5 1.5t-8-6.5q-3-5-9-8.5T94 76q-11 0-18 7.5T69 101q0 8 4.5 14.5T85 125q5 1 7.5 6t.5 10zm163-40q0 16-9 29t-24 18q-2 1-5 1t-6.5-2.5q-3.5-2.5-5-6.5t1-9q2.5-5 7.5-6 7-3 11.5-9.5T231 101q0-10-7-17.5T206 76q-6 0-12 3.5t-9 8.5q-3 5-8 6.5t-9.5-1.5q-4.5-3-6-8t1.5-9q7-12 18.5-18.5T206 51q21 0 35.5 14.5T256 101zm-59 83q5 14 2 28t-14 24q-14 15-35 15t-35-15q-9-8-12.5-19.5T101 193q0-5 2-9.5t6.5-6.5q4.5-2 9.5-.5t7 6.5q2 5 0 10l-1 4q-2 13 7 22 7 7 18 7t18-7q5-5 6.5-12.5t-.5-13q-2-5.5 0-10.5t7-6.5q5-1.5 9.5.5t6.5 7z"/></svg>