<svg viewBox="0 0 300 302.0011" xmlns="http://www.w3.org/2000/svg"><path d="M88 1H50Q29 1 14.5 15.5T0 51v37q0 21 14.5 35.5T50 138h38q20 0 35-14.5T138 88V51q0-21-15-35.5T88 1zm25 87q0 11-7.5 18T88 113H50q-10 0-17.5-7T25 88V51q0-10 7.5-17.5T50 26h38q10 0 17.5 7.5T113 51v37zm137 75h-37q-21 0-35.5 15T163 213v38q0 21 14.5 35.5T213 301h37q21 0 35.5-14.5T300 251v-38q0-20-14.5-35T250 163zm25 88q0 10-7.5 17.5T250 276h-37q-11 0-18-7.5t-7-17.5v-38q0-10 7-17.5t18-7.5h37q10 0 17.5 7.5T275 213v38zM88 163H50q-21 0-35.5 15T0 213v38q0 21 14.5 35.5T50 301h38q20 0 34.5-14.5T138 251v-38q0-20-15-35t-35-15zm25 88q0 10-7.5 17.5T88 276H50q-10 0-17.5-7.5T25 251v-38q0-10 7.5-17.5T50 188h38q10 0 17.5 7.5T113 213v38zm102-131q7 6 16.5 6t16.5-6q20-16 33-33 19-23 19-42t-12-31.5Q276 1 259.5 1T231 13Q220 1 203 1t-28.5 12.5Q163 26 163 45t18 42q13 17 34 33zm-12-94q6 0 10.5 4t5.5 9.5q1 5.5 4.5 8.5t8 3q4.5 0 8-3t4-8.5Q244 34 249 30t11-4q6 0 10.5 5.5T275 44q0 10-11.5 25.5T232 101h-2q-19-16-31-31.5T187 44q0-7 5-12.5t11-5.5z"/></svg>