<svg viewBox="0 0 300 302.0011" xmlns="http://www.w3.org/2000/svg"><path d="M213 282q0 8-5.5 13.5T194 301q-8 0-13.5-5.5T175 282q0-8 5.5-13t13.5-5.5q8-.5 13.5 5T213 282zm68-156q8 0 13.5-5.5T300 107q0-8-5.5-13.5T281 88q-8 0-13 5.5t-5 13.5q0 8 5 13.5t13 5.5zM106 263q-8 0-13.5 5.5T87 282q0 8 5.5 13.5T106 301q8 0 13.5-5.5T125 282q0-8-5.5-13.5T106 264v-1zm175 0q-8 0-13 5.5t-5 13.5q0 8 5 13.5t13 5.5q8 0 13.5-5.5T300 282q0-8-5.5-13t-13.5-5v-1zm0-87q-8 0-13.5 5.5t-5 13.5q.5 8 5.5 13.5t13 5.5q8 0 13.5-5.5T300 195q0-8-5.5-13.5T281 176zm-43 44q-8 0-13.5 5.5t-5.5 13q0 7.5 5.5 13t13 5.5q7.5 0 13-5.5t5.5-13q0-7.5-5.5-13T238 220zm-88 0q-8 0-13.5 5.5t-5.5 13q0 7.5 5.5 13T150 257q8 0 13.5-5.5t5.5-13q0-7.5-5.5-13T150 220zm44-44q-8 0-13.5 5.5T175 195q0 8 5.5 13.5t13.5 5q8-.5 13.5-5.5t5-13q-.5-8-5.5-13.5t-13-5.5zm44-44q-8 0-13.5 5.5T219 151q0 8 5.5 13.5t13 5.5q7.5 0 13-5.5T256 151q0-8-5.5-13.5T238 132zM88 225q5 0 9-3.5t4-8.5q0-5-4-9-11-11-16.5-24.5T75 151q0-15 5.5-28.5T97 98q14-14 33.5-19t39 0Q189 84 203 98q4 4 9 4t8.5-4q3.5-4 3.5-9t-3.5-9q-3.5-4-9.5-8l19-34q2-4 1-9t-5.5-7.5Q221 19 216 20t-8 6l-19 33q-13-5-26-7V13q0-5-4-8.5T150 1q-5 0-8.5 3.5T138 14v38q-14 2-27 7L92 26q-3-5-8-6t-9.5 1.5Q70 24 69 29t1 9l20 33q-6 5-10.5 9T71 90L38 71q-5-3-10-1.5t-7.5 6Q18 80 19.5 85t5.5 8l33 19q-5 13-7 27H13q-6-1-9.5 3T0 151q0 5 3.5 8.5T13 163h38q2 14 7 27l-33 19q-4 3-5.5 8t1.5 10.5q3 5.5 10 5.5 4 0 7-2l33-19q4 6 8 9.5t9 3.5z"/></svg>