<svg viewBox="0 0 300 302.0011" xmlns="http://www.w3.org/2000/svg"><path d="M238 1h-63q-5 0-9 3.5t-3.5 9q.5 5.5 4 9T175 26h63q8 0 16 4L4 280q-6 5-4 12t9 9q7 2 12-4L271 47q4 8 4 17v62q0 5 3.5 8.5t9 3.5q5.5 0 9-3.5t3.5-8.5V63q0-16-8.5-30.5t-23-23Q254 1 238 1zM75 126q21 0 35.5-14.5T125 76q0-21-14.5-35.5T75 26q-21 0-35.5 14.5T25 76q0 21 14.5 35.5T75 126zm0-75q10 0 17.5 7.5T100 76q0 10-7.5 17.5T75 101q-10 0-17.5-7.5T50 76q0-10 7.5-17.5T75 51zm150 125q-21 0-35.5 14.5T175 226q0 21 14.5 35.5T225 276q21 0 35.5-14.5T275 226q0-21-14.5-35.5T225 176zm0 75q-10 0-17.5-7.5T200 226q0-10 7.5-17.5T225 201q10 0 17.5 7.5T250 226q0 10-7.5 17.5T225 251z"/></svg>