<svg viewBox="0 0 300 302.0011" xmlns="http://www.w3.org/2000/svg"><path d="M88 157q0-8 5-13.5t13-5.5q8 0 13.5 5.5T125 157q0 8-5.5 13.5T106 176q-8 0-13.5-5.5T87 157h1zm125 0q-1-8-6-13.5t-13-5.5q-8 0-13.5 5.5T175 157q0 8 5.5 13.5T194 176q8 0 13.5-5.5T213 157zm83-85q-6 7-18 15-23 16-50 26-37 13-78 13t-78-13q-27-10-50-26-12-8-18-15-4-3-4-8.5t3.5-9Q7 51 12.5 51t8.5 3q3 3 9 8 11 8 24 15l18-44q8-18 21-26 11-6 24-6 9 0 17.5 3.5T150 13q7-5 15.5-8.5T182 1q15 0 27.5 8.5T228 33l18 44q13-7 24-15 6-5 9-8t8.5-3q5.5 0 9 3.5t3.5 9q0 5.5-4 8.5zm-146 29q38 0 74-14l-18-43q-3-7-8-11-7-7-15.5-7T167 32q-7 6-17 6t-17-6q-3-2-7.5-4t-8.5-2q-7 0-12.5 3.5T94 44L76 87q36 14 74 14zm102 26q-5 1-7 6t-1 10q6 16 6 33 0 27-13.5 50T200 262.5Q177 276 150 276t-50-13.5Q77 249 63.5 226T50 176q0-17 6-33 1-5-1-10t-7-6.5q-5-1.5-9.5.5t-6.5 7q-7 20-7 42 0 34 17 62.5T87.5 284q28.5 17 62.5 17t62.5-17q28.5-17 45.5-45.5t17-62.5q0-22-7-42-2-5-6.5-7t-9.5 0zM89 216q10 15 23 24 17 11 38 11t38-11q13-9 23-24 4-5 0-10.5t-11-4.5q-4 1-13 4.5t-15 5.5q-11 3-22 3t-22-3q-6-2-15-5.5t-13-4.5q-7-1-11 4.5t0 10.5z"/></svg>