<svg viewBox="0 0 300 302.0011" xmlns="http://www.w3.org/2000/svg"><path d="M263 188H128q-15 0-26-11l-18-17q-4-4-4-9t4-9l18-18q11-11 26-11h135q15 0 26 11.5t11 26.5q0 15-11 26t-26 11zm-152-37l9 9q3 3 8 3h135q5 0 8.5-3.5t3.5-8.5q0-5-3.5-9t-8.5-4H128q-5 0-9 4l-8 9zm114-75h-97q-15 0-26-11L84 47q-4-3-4-8.5t4-8.5l18-18q11-11 26-11h97q15 0 26.5 11T263 38.5Q263 54 251.5 65T225 76zM111 38l9 9q3 4 8 4h97q5 0 9-3.5t4-9q0-5.5-4-9t-9-3.5h-97q-5 0-8 4l-9 8zm89 263h-72q-15 0-26-11l-18-18q-4-3-4-8.5t4-8.5l18-18q11-11 26-11h72q15 0 26.5 11t11.5 26.5q0 15.5-11.5 26.5T200 301zm-89-38l9 9q3 4 8 4h72q5 0 9-3.5t4-9q0-5.5-4-9t-9-3.5h-72q-5 0-8 4l-9 8zm-86-25q-10 0-17.5 7.5t-7.5 18Q0 274 7.5 281t17.5 7q10 0 17.5-7t7.5-17.5q0-10.5-7.5-18T25 238zm0-112q-10 0-17.5 7.5T0 151q0 10 7.5 17.5T25 176q10 0 17.5-7.5T50 151q0-10-7.5-17.5T25 126zm0-113q-10 0-17.5 7.5T0 38.5Q0 49 7.5 56T25 63q10 0 17.5-7T50 38.5q0-10.5-7.5-18T25 13z"/></svg>