<svg viewBox="0 0 300 302.0011" xmlns="http://www.w3.org/2000/svg"><path d="M288 126h-25q-17 0-31.5 8.5t-23 23Q200 172 200 189v37q0 21-14.5 35.5T150 276q-21 0-35.5-14.5T100 226v-39q27-4 45-25t18-48V88q5 1 8.5-3t3.5-9q0-5-3.5-9t-8.5-4h-25V13q0-5-4-8.5T125 1q-5 0-9 3.5t-4 8.5v50H63V13q-1-5-4.5-8.5T50 1q-5 0-8.5 3.5T38 13v50H13q-6 1-9.5 4.5T0 76q0 5 3.5 8.5T13 89v24q0 28 17.5 49T75 187v39q0 20 10 37.5t27.5 27.5q17.5 10 37.5 10t37.5-10q17.5-10 27.5-27.5t10-37.5v-38q0-15 11-26t26-11h26q5 0 8.5-3.5t3.5-9q0-5.5-3.5-9T288 126zM38 113V88h100v25q0 21-15 35.5T87.5 163q-20.5 0-35-14.5T38 113z"/></svg>