<svg viewBox="0 0 300 302.0011" xmlns="http://www.w3.org/2000/svg"><path d="M188 301q-8 0-11.5-6.5t.5-12.5l19-31h-26q-10 0-16-8t-3-18l1-3 25-40q3-7 10.5-6.5t11 7q3.5 6.5-.5 12.5l-19 31h26q6 0 10.5 3t7 7.5Q225 241 225 247t-3 10l-24 38q-4 6-10 6zm62-13q-5 0-8.5-3t-4-7.5q-.5-4.5 2.5-8.5t7-5q13-4 20.5-14t7.5-23q0-13-7.5-23.5T247 190q-8-1-15-6.5T221 169q-7-17-24.5-25.5t-36-2.5q-18.5 6-28.5 22.5t-6 35.5q2 9-2 17t-11.5 11q-7.5 3-10.5 9.5t-1 13.5q3 10 13 13l4 1h20q5-1 8.5 3t3.5 9q0 5-3.5 8.5T138 288h-20q-6 0-11-1-13-4-22-14.5T75 248q-1-14 6.5-26t19.5-17q-3-18 1-35 6-23 24.5-38.5t43-17.5q24.5-2 45 10.5T244 160q1 3 2.5 3.5t5.5 1.5l2 1q20 6 33 23t13 38.5q0 21.5-13.5 38.5T253 288h-3zM26 176q-4 0-7.5-2.5T14 167q-1-4 .5-8t5.5-6l28-17q-2-5-3-10H13q-6 0-9.5-3.5t-3.5-9q0-5.5 3.5-9T12 101h33l2-10-28-16q-6-4-6-11t6-11q6-4 13 0l28 16q3-4 8-8L52 33q-3-4-1.5-9t6-7.5Q61 14 66 15t7 6l16 28 11-3V13q0-5 3.5-8.5t9-3.5q5.5 0 9 3.5T125 13v33q5 1 10 3l16-29q3-4 8-5.5t9.5 1Q173 18 174 23t-1 10l-16 28q4 3 7 7l29-15q4-3 9-1.5t8 6q3 4.5 1.5 9.5t-6.5 7l-28 16q-8 5-17 3.5T146 85q-9-10-21-13.5t-23.5-.5q-11.5 3-20 11.5t-11.5 20q-3 11.5.5 23.5T83 146q4 4 4 9t-3.5 8.5q-3.5 3.5-8 4T67 165q-4-3-7-7l-28 16q-3 2-6 2z"/></svg>