<svg viewBox="0 0 300 302.0011" xmlns="http://www.w3.org/2000/svg"><path d="M150 1q-34 0-62.5 16.5T42 62.5Q25 91 25 124q0 43 33 94 23 35 58 69 15 14 34 14t34-14q35-34 58-69 33-51 33-94 0-33-17-61.5t-45.5-45Q184 1 150 1zm16 268q-7 7-16 7t-16-7q-33-31-54-63-30-45-30-82 0-26 13.5-48.5t36.5-36Q123 26 150 26t50 13.5q23 13.5 36.5 36T250 124q0 37-30 82-21 32-54 63zm59-154q-2 25-13 36t-36 12q-5 1-9.5-3.5T163 150q1-25 12-36t36-13q6 0 10 4t4 10zm-88 35q1 5-3.5 9.5T124 163q-25-1-36-12t-13-36q0-6 4-10t10-4q25 2 36 13t12 36z"/></svg>