<svg viewBox="0 0 300 302.0011" xmlns="http://www.w3.org/2000/svg"><path d="M155 138l38 38h95q5 0 8.5 3.5t3.5 9q0 5.5-3.5 9T287 201h-69l37 37h33q5 0 8.5 4t3.5 9q0 5-3.5 8.5T287 263h-7l16 17q4 3 4 8.5t-3.5 9q-3.5 3.5-9 3.5t-8.5-4L4 22q-4-3-4-8.5t3.5-9Q7 1 12.5 1T21 5l47 46h220q5 0 8.5 3.5t3.5 9q0 5.5-3.5 9T287 76H93l37 37h158q5 0 8.5 4t3.5 9q0 5-3.5 8.5T287 138H155zm33 100H13q-6 0-9.5 4T0 251q0 5 3.5 8.5T13 263h175q5 0 8.5-3.5t3.5-8.5q0-5-3.5-9t-9.5-4h1zM13 201h112q5 0 8.5-3.5t4-9q.5-5.5-3.5-9t-9-3.5H13q-6 0-9.5 3.5t-3.5 9q0 5.5 3.5 9T13 201zm0-63h50q5 0 8.5-3.5T75 126q0-5-3.5-8.5T63 114H13q-6-1-9.5 3T0 126q0 5 3.5 8.5T13 138z"/></svg>