<svg viewBox="0 0 300 302.0011" xmlns="http://www.w3.org/2000/svg"><path d="M238 276H63q-17 0-31.5-8.5t-23-23Q0 230 0 214V88q0-16 8.5-30.5t23-23Q46 26 63 26h175q16 0 30.5 8.5t23 23Q300 72 300 89v124q0 17-8.5 31.5t-23 23Q254 276 237 276h1zM63 51q-16 0-27 11T25 88v125q0 16 11 27t27 11h175q15 0 26-11t11-27V88q0-15-11-26t-27-11H63zm162 112h-50q-10 0-17.5-7t-7.5-17v-26q0-10 7.5-17.5T175 88h50q10 1 17.5 8t7.5 17v25q0 11-7.5 18.5T225 164v-1zm-50-50v25h50v-25h-50zm-50 38q0-5-3.5-8.5T113 139H63q-6 0-9.5 3.5T50 151q0 5 3.5 8.5T62 163h51q5 0 8.5-3.5t3.5-8.5zm125 50q0-5-3.5-9t-9.5-3H63q-6-1-9.5 3t-3.5 9q0 5 3.5 8.5T62 213h176q5 0 8.5-3.5t3.5-8.5z"/></svg>