<svg viewBox="0 0 300 302.0011" xmlns="http://www.w3.org/2000/svg"><path d="M288 301h-51q-10 0-17-6t-8-15q-4-23-21.5-38T150 227q-23 0-40.5 15T88 280q-1 9-8 15t-17 6H13q-6 0-9.5-3.5t-3.5-9q0-5.5 3.5-9T12 276h51q2-10 6-20l-44-26q-5-2-6-7t1.5-9.5q2.5-4.5 7.5-6t9 1.5l44 25q7-8 15-14l-26-44q-2-5-.5-9.5t5.5-7q4-2.5 9-1.5t8 5l25 44q10-4 21-5v-51q0-5 3.5-9t8.5-4q5 0 9 4t4 9v51q10 1 20 5l25-44q4-6 11-6t11 6q4 6 0 13l-26 44q8 6 15 14l44-25q4-3 9-1.5t7.5 6q2.5 4.5 1.5 9.5t-6 7l-44 26q4 10 6 20h51q5 0 8.5 3.5t3.5 9q0 5.5-3.5 9T288 301zM104 72l37 38q4 4 9 4t9-4l37-38q4-3 4-8.5t-3.5-9q-3.5-3.5-9-3.5t-8.5 4l-16 16V13q0-5-4-8.5T150 1q-5 0-9 3.5t-4 8.5v58l-16-16q-3-4-8-3.5t-8.5 4q-3.5 3.5-4 8.5t3.5 8z"/></svg>