<svg viewBox="0 0 300 302.0011" xmlns="http://www.w3.org/2000/svg"><path d="M259 220q-11 0-21 6l-56-46q6-9 6-20 0-13-8-23.5T160 122l5-41q10-3 17.5-11T193 51h27q3 14 14 22.5t25 8.5q17 0 29-12t12-28.5Q300 25 288 13T259 1q-12 0-22 7t-15 18h-31q-5-11-15-18t-23-7q-17 0-28.5 12T113 42q0 13 7.5 23.5T140 80l-5 41q-10 3-17.5 11T107 151H79q-4-12-14.5-20T41 123q-17 0-29 12T0 163.5Q0 180 12 192t29 12q13 0 23.5-8T79 176h30q5 11 15 18t23 7q9 0 17-4l58 48q-3 8-3 15 0 17 12 29t28.5 12q16.5 0 28.5-12t12-28.5q0-16.5-12-28.5t-29-12zm0-194q7 0 11.5 4.5t4.5 11q0 6.5-4.5 11t-11 4.5q-6.5 0-11-4.5t-4.5-11q0-6.5 4.5-11T259 26zm-106 0q7 0 11.5 4.5t4.5 11q0 6.5-4.5 11t-11 4.5q-6.5 0-11-4.5t-4.5-11q0-6.5 4.5-11T153 26zM41 179q-7 0-11.5-4.5t-4.5-11q0-6.5 4.5-11t11-4.5q6.5 0 11 4.5t4.5 11q0 6.5-4.5 11T41 179zm90-19q0-6 4.5-10.5t11-4.5q6.5 0 11.5 4.5t5 11q0 6.5-5 11t-11.5 4.5q-6.5 0-11-4.5T131 160zm128 116q-6 0-10.5-4.5t-4.5-11q0-6.5 4.5-11t11-4.5q6.5 0 11 4.5t4.5 11q0 6.5-4.5 11T259 276zM75 257q0 8-5.5 13.5T56 276q-8 0-13-5.5T38 257q0-8 5-13t13-5q8 0 13.5 5t5.5 13zm225-112q0 8-5.5 13.5t-13.5 5q-8-.5-13-5.5t-5-13q0-8 5-13.5t13-5.5q8 0 13.5 5.5T300 145zM163 282q0 8-5.5 13.5T144 301q-8 0-13.5-5.5T125 282q0-8 5.5-13t13.5-5.5q8-.5 13.5 5T163 282zM0 20q0-8 5.5-13.5T19 1q8 0 13 5.5T37.5 20q.5 8-5 13T19 38q-8 0-13.5-5T0 20zm50 50q0-8 5.5-13.5T69 51q8 0 13.5 5.5T88 70q0 8-5.5 13.5T69 89q-8 0-13.5-5.5T50 70z"/></svg>