<svg viewBox="0 0 300 302.0011" xmlns="http://www.w3.org/2000/svg"><path d="M138 301q-17 0-30.5-9T88 268q-2-5 .5-10t7.5-6.5q5-1.5 9.5.5t6.5 7q4 12 16.5 15.5t23-3Q162 265 162 251q1-10-6.5-17.5T137 226H13q-6 0-9.5-3.5t-3.5-9q0-5.5 3.5-9T12 201h126q23 1 36 15.5t13 34.5q0 20-13 34.5T138 301zm112-63q-16 1-29.5-8.5T201 205q-2-5 0-9.5t7-6.5q5-2 10 .5t6 7.5q5 12 17.5 15t23-3.5Q275 202 275 188q0-10-7.5-17t-17.5-7h-62q-6-1-9.5-4.5T175 151q0-5 3.5-9t8.5-4h63q23 1 36 16t13 34.5q0 19.5-13 34.5t-36 15zM88 176q-34-1-56-19-20-17-27.5-43t0-51.5Q12 37 32 20 55 2 88 2t55 18q20 17 27.5 43t0 51.5Q163 140 143 157q-23 18-55 19zm0-150q-30 1-47 20-15 18-15 42.5T41 131q17 19 46.5 19t46.5-19q15-18 15-42.5T134 46q-17-19-46-20zm162 87h-37q-6 0-9.5-3.5T200 101q0-5 3.5-9t8.5-4h38q10 0 17.5-7t7.5-18q0-13-10.5-19.5t-23-3.5Q229 43 224 55q-1 5-6 7.5t-10 .5q-5-2-7-6.5t0-9.5q7-18 23-26.5t33.5-6Q275 17 287.5 30T300 63.5q0 20.5-14.5 35T250 113zM88 101q-6 0-9.5-3.5T75 89V51q0-5 3.5-9t9-4q5.5 0 9 4t3.5 9v37q0 6-3.5 9.5T87 101h1zm-13 25q0 5 3.5 9t9 3.5q5.5-.5 9-4t3.5-8.5q0-5-3.5-9t-9-3.5q-5.5.5-9 4T75 126z"/></svg>