<svg viewBox="0 0 300 302.0011" xmlns="http://www.w3.org/2000/svg"><path d="M220 273q-6 3-14 3H63q-16 0-27-11t-11-27V63q0-15 11-26t27-11h62v62q0 16 11 27t26 11h73q6 0 10-5t2-11q-6-23-23-40l-43-43q-13-13-29-19.5T119 1H63Q46 1 31.5 9.5t-23 23Q0 47 0 63v175q0 17 8.5 31.5t23 23Q46 301 63 301h143q12 0 24-5 4-1 6.5-6t.5-10q-2-5-7-7t-10 0zM150 34q7 4 13 10l44 44q6 6 10 13h-54q-6 0-9.5-3.5T150 88V34zm-13 217q4 1 7.5-1t5.5-6l3-11h37l3 11q1 3 3.5 5t6.5 2h2q4-2 6-5.5t1-7.5l-21-72q-2-7-7.5-11t-12.5-4q-7 0-12.5 4t-7.5 11l-21 72q-1 4 1 7.5t6 5.5zm35-79l12 41h-25l13-41zm114 64q2 3 1 7t-4 6q-3 2-5 2-6 0-9-5l-16-26-16 26q-3 5-8 5-3 0-6-2t-4-6q-1-4 1-7l21-35-21-35q-2-3-1-7.5t4.5-6.5q3.5-2 7.5-1t6 5l16 26 16-26q2-4 6-5t7.5 1q3.5 2 4.5 6.5t-1 7.5l-21 35 21 35zm-196 5v-70H73q-5 0-7.5-3t-2.5-7q0-4 2.5-7t6.5-3h56q4 0 7 3t3 7q0 4-3 7t-8 3h-17v70q0 4-3 7t-7 3q-4 0-7-3t-3-7z"/></svg>