<svg viewBox="0 0 300 302.0011" xmlns="http://www.w3.org/2000/svg"><path d="M237 301q-5 0-8.5-3.5T225 289v-38q0-5 3.5-9t9-4q5.5 0 9 4t3.5 9v37q0 6-3.5 9.5T237 301zm-50 0q-5 0-8.5-3.5T175 289v-38q0-5 3.5-9t9-4q5.5 0 9 4t3.5 9v37q0 6-3.5 9.5T187 301zm-50 0q-5 0-8.5-3.5T125 289v-38q0-5 3.5-8.5t9-3.5q5.5 0 9 3.5t3.5 8.5v37q0 6-3.5 9.5T137 301zm-37-19q-4 0-8-2-12-9-16-24.5t3-30q7-14.5 22-21.5-3-17 1-34 6-23 24.5-39t43-17.5q24.5-1.5 45 11T244 159q1 3 2.5 4t5.5 2h2q15 5 26.5 16t16.5 26.5q5 15.5 1.5 31.5T284 267q-4 6-11.5 4.5T263 263q-2-7 3.5-13t7.5-15q3-15-4.5-28T247 189q-9-1-15.5-6.5T221 169q-7-18-24.5-26t-36-2.5Q142 146 132 163t-6 35q2 9-2 17.5T112.5 227q-7.5 3-10.5 9.5t-1.5 13Q102 256 107 260q4 2 5 6t0 7.5q-1 3.5-4.5 6T100 282zm-44-69q-4 0-7-2-26-18-39-46.5T1 104q4-38 31-66.5T97 2q25-3 49 2 7 2 12 7t7 12q2 7 0 14t-7 12q-25 22-32 54-1 5-5 8t-9.5 2q-5.5-1-8.5-5t-2-9q4-20 14-37.5T140 31q1 0 1-1t-1-1q-19-5-39-2-30 5-51 27.5T25 107q-2 25 8 47.5T63 191q4 2 5 6t0 8q-1 4-4.5 6t-7.5 2zM238 38q-1 6 3 9.5t9 3.5q5 0 8.5-3.5t4-9q.5-5.5-3.5-9t-9-3.5q-5 0-9 3.5t-4 8.5h1zm-50 38q0 5 3.5 9t8.5 3.5q5-.5 9-4t4-8.5q0-5-4-9t-9-3.5q-5 .5-9 4t-4 8.5h1zm75 37q0 6 3.5 9.5t8.5 3.5q5 0 9-3.5t4-9q0-5.5-4-9t-9-3.5q-5 0-9 3.5t-4 8.5h1z"/></svg>