<svg viewBox="0 0 300 302.0011" xmlns="http://www.w3.org/2000/svg"><path d="M150 301q-28 0-48-19l-49-46q-20-20-30-45t-10-52.5Q13 111 23 86t29.5-44.5Q72 22 97 11.5T150 1q28 0 53 10.5T247 41q20 20 30.5 45t10.5 52.5q0 27.5-10.5 52.5T247 236l-50 46q-9 9-21.5 14t-25.5 5zm0-275q-23 0-43.5 8.5T70.5 59Q55 75 46 95.5t-8.5 43q.5 22.5 9 43T70 218l50 45q12 13 30 13t30-12l50-46q16-16 24.5-36.5t8.5-43q0-22.5-9-43T229.5 59q-15.5-16-36-24.5T150 26zm-35 175h-15q-5 0-9-3.5t-4-8.5v-15q1-26 19-44l42-43q11-11 27-11t27 11q11 11 11 26.5T202 140l-43 43q-18 18-44 18zm-2-25h2q15 0 26-11l43-43q4-3 4-8.5t-4-9q-4-3.5-9-3.5t-9 4l-43 42q-11 11-10 27v2z"/></svg>