<svg viewBox="0 0 300 302.0011" xmlns="http://www.w3.org/2000/svg"><path d="M200 88q0 6-3.5 9.5T188 101h-13v56q0 13-9 22t-22 9q-13 0-22-9t-9.5-22q-.5-13 9-22t22.5-9q3 0 6 1v-26q0-10 7.5-17.5T175 76h13q5 0 8.5 3.5T200 89v-1zm100 0v88q0 17-8.5 31.5t-23 22.5q-14.5 8-30.5 8h-75v13h37q5 0 9 3.5t4 9q0 5.5-4 9t-9 3.5H100q-5 0-8.5-3.5t-4-9q-.5-5.5 3.5-9t9-3.5h38v-13H63q-17 0-31.5-8t-23-22.5Q0 193 0 176V88q0-16 8.5-30.5t23-23Q46 26 63 26h175q16 0 30.5 8.5t23 23Q300 72 300 89v-1zm-25 0q0-15-11-26t-27-11H63q-16 0-27 11T25 88v88q0 16 11 26.5T63 213h175q15 0 26-10.5t11-26.5V88z"/></svg>