<svg viewBox="0 0 300 302.0011" xmlns="http://www.w3.org/2000/svg"><path d="M150 1q-27 0-50 13.5T63.5 51Q50 74 50 101v100q0 27 13.5 50t36.5 36.5q23 13.5 50 13.5t50-13.5q23-13.5 36.5-36.5t13.5-50V101q0-27-13.5-50T200 14.5Q177 1 150 1zm75 200q0 20-10 37.5T187.5 266Q170 276 150 276t-37.5-10Q95 256 85 238.5T75 201V101q0-20 10-37.5T112.5 36Q130 26 150 26t37.5 10Q205 46 215 63.5t10 37.5v100zm-75-50q-21 0-35.5 14.5T100 201q0 21 14.5 35.5T150 251q21 0 35.5-14.5T200 201q0-21-14.5-35.5T150 151zm0 75q-10 0-17.5-7.5T125 201q0-10 7.5-17.5T150 176q10 0 17.5 7.5T175 201q0 10-7.5 17.5T150 226z"/></svg>