<svg viewBox="0 0 300.0095 302.0011" xmlns="http://www.w3.org/2000/svg"><path d="M238.01 301h-74q-44 0-80-18t-58.5-50q-22.5-32-25.5-71-2-33 9.5-63.5T44.01 45q23-23 53.5-34.5t62.5-9.5q39 3 71 24.5t50.5 55.5q18.5 34 18.5 74v83q0 17-8.5 31.5t-23 23q-14.5 8.5-31.5 8.5h1zm-88-275q-25 0-48 9.5t-41.5 28q-18.5 18.5-28 44t-7.5 52.5q3 33 21.5 59.5t49 41.5q30.5 15 68.5 15h74q15 0 26-11t11-27v-83q0-33-15.5-62t-42-47q-26.5-18-58.5-20h-9zm38 95q0-3-2.5-5t-5.5-3q-8 0-13 6l-17 19-17-19q-5-6-13-6-3 0-5 2.5t-2 5.5v60q0 3 2 5t5.5 2q3.5 0 5.5-2t2-5v-41l16 17q3 3 6 3t6-3l16-17v41q0 3 2 5t5.5 2q3.5 0 6-2t2.5-5v-60zm-107 23q-6-2-14-5l-2-1q-2-1-1.5-4t3.5-4q3-1 5-1 7 0 12 4 2 2 5 2t5.5-2q2.5-2 2.5-5.5t-3-5.5q-3-3-7-5-7-4-15-4-4 0-9 2-6 2-10 6.5t-5 10.5q-1 6 1.5 11t8.5 9l17 7q9 3 8.5 6.5t-3.5 5.5q-3 2-7 2-9 0-15-6-2-3-5.5-3t-6 2.5q-2.5 2.5-2.5 5.5t2 5q5 6 12 9t16 3q9 0 16-5.5t8.5-13.5q1.5-8-3-15t-14.5-11zm157 0q-6-2-14-5l-2-1q-2-1-1.5-4t3.5-4q3-1 5-1 7 0 12 4 2 2 5 2t5.5-2q2.5-2 2.5-5.5t-3-5.5q-3-3-7-5-7-4-15-4-4 0-9 2-6 2-10 6.5t-5 10.5q-1 6 1.5 11t8.5 9l17 7q9 3 8.5 6.5t-3.5 5.5q-3 2-7 2-9 0-15-6-2-3-5.5-3t-6 2.5q-2.5 2.5-2.5 5.5t2 5q5 6 12 9t16 3q9 0 16-5.5t8.5-13.5q1.5-8-3-15t-14.5-11z"/></svg>