<svg viewBox="0 0 300 302.0011" xmlns="http://www.w3.org/2000/svg"><path d="M224 125q-12-11-12-27V26h13q5 0 9-3.5t4-9q0-5.5-4-9T225 1H75q-5 0-8.5 3.5t-3.5 9q0 5.5 3.5 9T75 26h13v72q0 16-12 27-30 28-49 55-27 39-27 69 0 16 9 29 7 11 18.5 17t24.5 6h196q13 0 24.5-6t18.5-17q9-13 9-29 0-30-27-69-19-27-49-55zm47 140q-4 5-10 8t-13 3H52q-7 0-13-3t-10-9q-4-6-4-15 0-15 11-35h176q6-1 9.5-4.5t3.5-8.5q0-5-3.5-8.5T212 189H52q17-23 41-46 9-9 14-21t5-24V26h76v72q-1 12 4.5 24t14.5 21q25 23 42 46 26 36 26 60 0 9-4 16z"/></svg>