<svg viewBox="0 0 300 302.0011" xmlns="http://www.w3.org/2000/svg"><path d="M104 99q3-4 8.5-4t8.5 4l17 16V48q-6-4-9.5-9.5T125 26q0-10 7.5-17.5T150 1q10 0 17.5 7.5T175 26q0 7-3.5 12.5T163 48v67l16-17q4-3 9-3t8.5 3.5q3.5 3.5 3.5 8.5t-3 9l-27 27q-4 4-9.5 6t-10.5 2q-5 0-10.5-2t-9.5-6l-26-27q-4-3-4-8.5t4-8.5zm184 64q0 38-19 69.5t-50.5 50Q187 301 150 301t-68.5-18.5q-31.5-18.5-50-50t-18.5-70Q13 124 33 91t55-50q5-3 10-1t7 6.5q2 4.5.5 9.5T99 63q-28 14-44.5 41T38 163q0 13 2 25h49q-1-12-1-24 0-6 3.5-9.5t8.5-3.5q5 0 9 3.5t4 8.5q0 13 2 26h70q3-13 3-25 0-6 3.5-9.5t8.5-3.5q5 0 9 3.5t4 8.5q0 13-2 26h49q3-13 3-26 0-32-17.5-59.5T199 62q-5-2-6.5-7t1-9.5q2.5-4.5 7-6.5t9.5 1q35 17 56.5 50.5T288 163zm-167 50q10 29 29 55 19-26 29-55h-58zm2 60q-19-29-28-60H49q11 22 30.5 38t43.5 22zm128-60h-46q-9 31-28 60 24-6 43.5-22t30.5-37v-1z"/></svg>