<svg viewBox="0 0 300 302.0011" xmlns="http://www.w3.org/2000/svg"><path d="M53 123q4-3 9-3t9 3.5q4 3.5 4 8.5t-4 9l-28 27q-18 19-18 45t18.5 44.5Q62 276 88 276q13 0 24.5-4.5T133 258l27-28q4-4 9-4t8.5 4q3.5 4 4 9t-3.5 9l-28 27q-12 13-28 19.5T88 301q-18 0-34-7t-28.5-19q-12.5-12-19-28.5t-6.5-34Q0 195 6.5 179T26 151l27-28zm54 54l-10 10q-4 3-4 8.5t3.5 9q3.5 3.5 9 3.5t8.5-4l10-10q4-3 4-8.5t-3.5-9q-3.5-3.5-9-3.5t-8.5 4zM4 5q3-4 8.5-4T21 5l76 75 53-53q12-13 28-19.5T212 1q18 0 34 6.5t28.5 19Q287 39 293.5 55t6.5 34q0 18-6.5 34T274 151l-53 53 75 76q4 3 4 8.5t-3.5 9q-3.5 3.5-9 3.5t-8.5-4L4 22q-4-3-4-8.5T4 5zm146 128l36-35q3-4 8.5-4t9 3.5q3.5 3.5 3.5 9t-4 8.5l-35 36 35 36 54-53q18-19 18-45t-18.5-44.5Q238 26 212 26t-45 18l-53 54 36 35z"/></svg>