<svg viewBox="0 0 300 302.0011" xmlns="http://www.w3.org/2000/svg"><path d="M213 1H88Q64 1 44 13T12 45Q0 65 0 88v150q0 17 8.5 31.5t23 23Q46 301 63 301h175q16 0 30.5-8.5t23-23Q300 255 300 238V88q0-23-12-43t-32-32Q236 1 212 1h1zm62 87v25h-25V39q12 8 18.5 21t6.5 29v-1zm-62-62q6 0 12 1v86h-37q0-15-11-26t-27-11q-16 0-26.5 11T113 113H75V27q6-1 12-1h126zm-75 87q0-5 3.5-8.5t8.5-3.5q5 0 8.5 3.5t3.5 9.5v37q1 5-3 8.5t-9 3.5q-5 0-8.5-3.5T138 151v-38zM50 39v74H25V88q0-15 6.5-28T50 39zm200 235v-98q0-5-3.5-9t-9-4q-5.5 0-9 4t-3.5 9v100H75V176q0-5-3.5-8.5t-9-4q-5.5-.5-9 3.5t-3.5 9v98q-11-4-18-13.5T25 239V138h88v13q0 16 10.5 26.5T150 188q16 0 26.5-10.5T187 151v-13h88v100q0 13-7 22.5T250 274z"/></svg>