<svg viewBox="0 0 300 302.0011" xmlns="http://www.w3.org/2000/svg"><path d="M169 282q0 8-5.5 13.5T150 301q-8 0-13.5-5.5T131 282q0-8 5.5-13.5T150 263q8 0 13.5 5.5T169 282zm44-19q-8 0-13.5 5.5T194 282q0 8 5.5 13.5t13 5.5q7.5 0 13-5.5T231 282q0-8-5.5-13.5T213 263zm62 0q-8 0-13.5 5.5T256 282q0 8 5.5 13.5T275 301q8 0 13.5-5.5T294 282q0-8-5.5-13.5T275 263zm-187 0q-8 0-13.5 5.5T69 282q0 8 5.5 13.5t13 5.5q7.5 0 13-5.5T106 282q0-8-5.5-13.5T88 263zm-63 0q-8 0-13.5 5.5T6 282q0 8 5.5 13.5T25 301q8 0 13.5-5.5T44 282q0-8-5.5-13.5T25 263zM177 12Q166 1 150 1t-26 11L66 67q-3 4-3.5 9t3.5 8.5q4 3.5 9 4t9-3.5l54-52v193q0 5 3.5 8.5t8.5 3.5q5 0 9-3.5t4-8.5V33l53 52q4 4 9 4t9-4q4-4 3.5-9t-3.5-9l-57-55z"/></svg>