<svg viewBox="0 0 300 302.0011" xmlns="http://www.w3.org/2000/svg"><path d="M263 101q0-16-11-26.5T225 64q0-16-11-27t-26-11h-75q-16 0-27 11T75 64q-16-1-27 10t-11 27q-15 0-26 11T0 138v75q0 17 8.5 31.5t23 23Q46 276 63 276h175q16 0 30.5-8.5t23-23Q300 230 300 214v-76q0-15-11-26t-27-11h1zm12 112q0 16-11 27t-27 11v-38q1-5-3-8.5t-9-3.5q-5 0-9 3.5t-4 8.5v38h-24v-38q0-5-4-8.5t-9-3.5q-5 0-9 3.5t-4 8.5v38h-24v-38q0-5-4-8.5t-9-3.5q-5 0-8.5 3.5T113 213v38H88v-38q0-5-4-8.5t-9-3.5q-5 0-8.5 3.5T63 213v38q-16 0-27-11t-11-27v-75q0-5 3.5-8.5T37 126h13q5 0 9-3.5t4-9.5v-12q0-5 3.5-8.5T75 88h13q5 0 8.5-3.5T100 76V63q0-5 3.5-8.5T113 51h75q5 0 8.5 3.5T200 64v12q0 5 3.5 8.5T212 88h13q5 0 8.5 4t3.5 9v12q1 6 4.5 9.5t8.5 3.5h13q5 0 8.5 3.5t3.5 9.5v74z"/></svg>