<svg viewBox="0 0 300 302.0011" xmlns="http://www.w3.org/2000/svg"><path d="M238 151v75q0 5-3.5 8.5t-9 3.5q-5.5 0-9-3.5T213 226v-75q0-5 3.5-8.5t8.5-4q5-.5 9 3.5t4 9zm-93-66l38 138q2 6-1.5 10.5t-9 4.5q-5.5 0-8.5-2.5t-4-6.5l-8-28H87l-8 28q-2 4-5 6.5t-7 2.5q-7 0-10.5-4.5T55 223L93 84q3-12 14-17.5t23-.5q6 2 10 7t5 12zm0 91l-25-85q0-2-1-2t-1 2l-24 85h51zm143-50q-5 0-9 3.5t-4 9.5v99q0 16-11 27t-26 11H63q-16 0-27-11t-11-27V63q0-15 11-26t27-11h100q5 0 8.5-3.5t3.5-9q0-5.5-3.5-9T163 1H63Q46 1 31.5 9.5t-23 23Q0 47 0 64v174q0 17 8.5 31.5t23 23Q46 301 63 301h175q17 0 31-8.5t22.5-23Q300 255 300 238V138q0-5-3.5-8.5T288 126zm-86-60l24 10 9 23q1 4 4.5 6t7.5 2q4 0 7.5-2t5.5-6l9-23 23-10q4-1 6-4.5t2-7.5q0-4-2-7.5t-6-4.5l-23-9-9-24q-2-3-5.5-5.5T247 1q-4 0-7.5 2.5T235 9l-9 23-23 9q-4 2-6.5 5t-2.5 7q0 4 2 7.5t6 5.5z"/></svg>