<svg viewBox="0 0 300 302.0011" xmlns="http://www.w3.org/2000/svg"><path d="M63 226q5 0 8.5-3.5T75 213v-37h150v37q0 6 3.5 9.5t9 3.5q5.5 0 9-3.5t3.5-9.5V63q0-15 11-26t27-11q5 0 8.5-3.5t3.5-9q0-5.5-3.5-9T288 1q-17 0-31.5 8.5t-23 23Q225 47 225 64v12H75V63q0-15 11-26t26-11q6 0 9.5-3.5t3.5-9q0-5.5-3.5-9T112 1Q96 1 81.5 9.5t-23 23Q50 47 50 64v149q0 6 3.5 9.5T63 226zm162-125v50H75v-50h150zm71 187q-14 13-33 13-11 0-21-4t-17-11q-7 7-17 11t-20.5 4q-10.5 0-20.5-4t-17-11q-7 7-17 11t-20.5 4q-10.5 0-20.5-4t-17-11q-7 7-17 11t-21 4q-19 0-33-13-4-3-4-8.5t3.5-9q3.5-3.5 8.5-4t9 3.5q7 6 16 6t16.5-5q7.5-5 9.5-12 1-3 4-5.5t7.5-2.5q4.5 0 8 3t4.5 5q2 7 9.5 12t16 5q8.5 0 16-5t9.5-12q1-2 4-5t7.5-3q4.5 0 8 2.5t4.5 5.5q2 7 9.5 12t16 5q8.5 0 16-5t9.5-12q1-3 4-5.5t7.5-2.5q4.5 0 8 2.5t4.5 5.5q3 7 10 12t16 5q9 0 16-6 4-4 9-3.5t8.5 4q3.5 3.5 3.5 9t-4 8.5z"/></svg>