<svg viewBox="0 0 300 302.0011" xmlns="http://www.w3.org/2000/svg"><path d="M238 101h-25V63q0-16-8.5-30.5t-23-23Q167 1 150 1t-31.5 8.5Q104 18 96 32.5T88 64v37H63q-17 0-31.5 8.5t-23 23Q0 147 0 163v50q0 19 10 34.5T37 271v17q0 6 4 9.5t9 3.5q5 0 8.5-3.5T62 289v-13h176v12q0 6 3.5 9.5t8.5 3.5q5 0 9-3.5t4-8.5v-18q17-8 27-23.5t10-34.5v-50q0-16-8.5-30.5t-23-23Q254 101 238 101zM113 63q0-15 10.5-26T150 26q16 0 27 11t11 27v37h-75V63zm162 150q0 16-11 27t-27 11H63q-16 0-27-11t-11-27v-50q0-15 11-26t26-11h176q15 0 26 11t11 26v50zm-62-50q0 6-4 9.5t-9 3.5H100q-5 0-8.5-3.5t-3.5-9q0-5.5 3.5-9t8.5-3.5h100q5 0 9 3.5t4 8.5z"/></svg>