<svg viewBox="0 0 300 302.0011" xmlns="http://www.w3.org/2000/svg"><path d="M196 122l-28 29 28 29q4 3 4 8.5t-3.5 9q-3.5 3.5-9 3.5t-8.5-4l-29-28-29 28q-3 4-8.5 4t-9-3.5q-3.5-3.5-3.5-9t4-8.5l28-29-28-29q-4-3-4-8.5t3.5-9q3.5-3.5 9-3.5t8.5 4l29 28 29-28q3-4 8.5-4t9 3.5q3.5 3.5 3.5 9t-4 8.5zm104 29q0 41-20 75.5T225.5 281Q191 301 150 301t-75.5-20Q40 261 20 226.5T0 151q0-41 20-75.5T74.5 21Q109 1 150 1t75.5 20Q260 41 280 75.5t20 75.5zm-25 0q0-34-17-62.5T212.5 43Q184 26 150 26T87.5 43Q59 60 42 88.5T25 151q0 34 17 62.5T87.5 259q28.5 17 62.5 17t62.5-17q28.5-17 45.5-45.5t17-62.5z"/></svg>