<svg viewBox="0 0 300.0037 302.0011" xmlns="http://www.w3.org/2000/svg"><path d="M300.004 82V13q0-7-7-10.5t-13 .5l-21 16q-13-5-27.5-5.5t-27.5 5.5l-21-16q-7-4-13.5-.5t-6.5 11.5v68q0 20 10 36-48 16-76 52-21 28-30 64-5 21-5 39-16-4-25-14-12-11-12-27 0-13 6-26 3-8 12-23 10-15 14-24 5-13 5-27 0-24-12-38.5t-36-17.5q-5-1-9 2.5t-5 8.5q-1 5 2.5 9t8.5 5q14 2 20 9.5t6 21.5q0 9-4 19-3 6-11 19-11 17-15 27-7 18-7 35 0 28 22 47 20 18 49 21 2 1 11 1h205q6 0 9.5-3.5t3.5-9q0-5.5-3.5-9t-9.5-3.5h-12V135q12-9 18.5-23t6.5-30zm-50 194h-25q0-20-10-37.5t-27.5-27.5q-17.5-10-37.5-10-5 0-8.5 3.5t-3.5 9q0 5.5 3.5 9t8.5 3.5q21 0 35.5 14.5t14.5 35.5h-113q0-14 3-31 7-34 27-59 26-35 75-48 17 13 39 13 10 0 19-3v128zm-19-150q-18 0-30.5-13t-12.5-31q0-18 12.5-31t30.5-13q18 0 31 13t13 31q0 18-13 31t-31 13z"/></svg>