<svg viewBox="0 0 300.0029 302.0011" xmlns="http://www.w3.org/2000/svg"><path d="M269 239q-6 0-12 2l-19-20q10-13 16-28l30 8h3q5 0 8.5-2.5t4.5-7q1-4.5-1.5-9T291 176l-30-7q1-10 1-18t-1-18l30-7q5-2 7.5-6.5t1-9.5q-1.5-5-6-7.5T284 101l-30 8q-6-15-16-28l19-20q6 3 12 3 13 0 22-9.5t9-22.5q0-13-9-22t-22-9q-13 0-22.5 9T237 32q0 6 3 12l-20 19q-13-10-28-16l8-30q1-5-1.5-9.5t-7.5-6q-5-1.5-9.5 1T175 10l-7 30q-10-1-18-1t-18 1l-7-30q-2-5-6.5-7.5t-9.5-1q-5 1.5-7.5 6T100 17l8 30q-15 6-28 16L60 44q2-6 2-12 0-13-9-22T31 1Q18 1 9 10T0 32q0 13 9 22.5T31 64q6 0 12-3l19 20q-10 13-16 28l-30-8q-5-1-9.5 1.5t-6 7.5q-1.5 5 1 9.5T9 126l30 7q-2 10-2 18t2 18l-30 7q-5 2-7.5 6.5t-1.5 9q1 4.5 4.5 7T12 201h4l30-8q6 15 16 28l-19 20q-6-2-12-2-13 0-22 9t-9 22q0 13 9 22t22 9q13 0 22-9t9-22q1-6-2-12l20-19q13 10 28 16l-8 30q-1 5 1.5 9.5t7.5 6.5h4q4 0 7.5-2.5t4.5-6.5l7-30q10 2 18 2t18-2l7 30q1 4 4.5 6.5t7.5 2.5h4q5-2 7.5-6.5t1.5-9.5l-8-30q15-6 28-16l20 19q-2 6-2 12 0 13 9 22t22 9q13 0 22-9t9-22q0-13-9-22t-22-9zm-119 0q-24 0-44-12t-32-32q-12-20-12-44t12-44q12-20 32-31.5T150 64q24 0 44 11.5t31.5 31.5q11.5 20 11.5 44t-11.5 44Q214 215 194 227t-44 12zm13-57q6 5 6 13t-5.5 13.5Q158 214 150 214t-13.5-5.5Q131 203 131 195t5.5-13.5Q142 176 150 176t13 6zm44-18q-5 6-13 6t-13.5-5.5Q175 159 175 151t5.5-13.5Q186 132 194 132t13.5 5.5Q213 143 213 151t-6 13zm-44-70q6 5 6 13t-5.5 13.5Q158 126 150 126t-13.5-5.5Q131 115 131 107t5.5-13.5Q142 88 150 88t13 6zm-44 44q6 5 6 13t-5.5 13.5Q114 170 106 170t-13.5-5.5Q87 159 87 151t5.5-13.5Q98 132 106 132t13 6z"/></svg>