<svg viewBox="0 0 300 302.0011" xmlns="http://www.w3.org/2000/svg"><path d="M238 301H63q-17 0-31.5-8.5t-23-23Q0 255 0 238V63q0-16 8.5-30.5t23-23Q46 1 63 1h175q16 0 30.5 8.5t23 23Q300 47 300 64v174q0 17-8.5 31.5t-23 23Q254 301 237 301h1zM63 26q-16 0-27 11T25 64v174q0 16 11 27t27 11h175q15 0 26-11t11-27V63q0-15-11-26t-27-11H63zm137 187q0-5-3.5-8.5T188 201h-60q5-5 22-14 23-13 34-23 17-17 16-41-1-20-15.5-33.5t-35-13.5q-20.5 0-35 14.5T100 126q0 5 3.5 8.5t9 3.5q5.5 0 9-3.5t3.5-8.5q0-10 7.5-17.5T150 101q10 0 17.5 7t7.5 16q1 13-10 23-7 7-27 18-13 7-18 11-9 6-14 11.5t-6 12.5q-1 7 2 13t8.5 9.5Q116 226 123 226h65q5 0 8.5-3.5t3.5-8.5v-1z"/></svg>