<svg viewBox="0 0 300 302.0011" xmlns="http://www.w3.org/2000/svg"><path d="M184 97q-5-5-3-12t9-8.5q7-1.5 12 3.5l23 23V13q0-5 3.5-8.5t9-3.5q5.5 0 9 3.5T250 13v90l23-23q4-4 9-4t8.5 3.5q3.5 3.5 3.5 9t-3 8.5l-32 32q-9 9-21 9l-1 1q-12 0-21-10l-32-32zm104 41q-6 0-9.5 4t-3.5 9v87q0 16-11 27t-27 11H63q-16 0-27-11t-11-26V114l81 81q12 12 28 16t32 0q16-4 28-16l24-23q5-5 3-12t-9-9q-7-2-12 4l-23 23q-12 10-27 10t-27-10L30 83q4-9 13-14t20-6h87q5 1 9-3t4-9q0-5-4-9t-9-4H63q-17 1-31.5 9t-23 22.5Q0 84 0 101v137q0 17 8.5 31.5t23 23Q46 301 62 301h176q16 0 30.5-8.5t23-23Q300 255 300 239v-88q0-5-3.5-9t-8.5-4z"/></svg>