<svg viewBox="0 0 300 302.0011" xmlns="http://www.w3.org/2000/svg"><path d="M138 245q0 8-5.5 13t-13.5 5q-8 0-13.5-5t-5.5-13q0-8 5.5-13.5T119 226q8 0 13.5 5.5T138 245zm31-19q-8 0-13.5 5.5T150 245q0 8 5.5 13t13.5 5q8 0 13.5-5t5.5-13q0-8-5.5-13.5T169 226zm131-81v37q0 8-5.5 13.5T281 201h-12q-8 0-13.5-5.5T250 182v-37q0-6 3.5-11t9.5-7V57q0-13-9.5-22T231 26h-75q-11 0-19.5 7T126 51h43q23 0 39.5 16.5T225 107v138q0 23-16.5 39.5T169 301H56q-23 0-39.5-16.5T0 245V107q0-23 16.5-39.5T56 51h44q3-21 19-35.5T156 1h75q24 0 40 16.5T287 57v70q6 2 9.5 7t3.5 11zM200 245v-32H25v32q0 13 9 22t22 9h113q13 0 22-9t9-22zM169 76H56q-13 0-22 9t-9 22v81h175v-81q0-13-9-22t-22-9z"/></svg>