<svg viewBox="0 0 300 302.0011" xmlns="http://www.w3.org/2000/svg"><path d="M150 1q-41 0-75.5 20T20 75.5Q0 110 0 151t20 75.5Q40 261 74.5 281t75.5 20q41 0 75.5-20t54.5-54.5q20-34.5 20-75.5t-20-75.5Q260 41 225.5 21T150 1zm124 137q-37-4-66-28l39-38q23 29 27 66zm-45-84l-38 39q-24-29-28-66 37 4 66 27zm-91-27q4 47 35 83l-23 23-79-79q29-24 67-27zM53 72l79 79-23 23q-36-31-83-35 3-38 27-67zm-27 92q37 4 66 28l-39 38q-23-29-27-66zm45 84l38-39q24 29 28 66-37-4-66-27zm91 27q-4-47-35-83l23-23 79 79q-29 24-67 27zm85-45l-79-79 23-23q36 31 83 35-3 38-27 67z"/></svg>