<svg viewBox="0 0 300 302.0011" xmlns="http://www.w3.org/2000/svg"><path d="M235 126q6 0 10-5t2-11q-6-23-23-40l-43-43q-13-13-29-19.5T119 1H62Q46 1 31.5 9.5t-23 23Q0 47 0 64v174q0 17 8.5 31.5t23 23Q46 301 63 301h37q5 0 8.5-3.5t4-9q.5-5.5-3.5-9t-9-3.5H63q-16 0-27-11t-11-27V63q0-15 11-26t27-11h62v62q0 16 11 27t26 11h73zm-85-38V34q7 4 13 10l44 44q6 6 10 13h-54q-6 0-9.5-3.5T150 88zm139 61q-11-10-26.5-10T236 149l-84 84q-15 15-15 36v20q1 5 4.5 8.5t8.5 3.5h20q21 0 35-15l84-83q11-11 11-27t-11-27zm-18 36l-84 84q-7 7-17 7h-8v-7q0-11 8-18l84-84q3-3 8.5-3t9 3.5q3.5 3.5 3.5 8.5t-4 9z"/></svg>