<svg viewBox="0 0 300.0065 302.0011" xmlns="http://www.w3.org/2000/svg"><path d="M238.005 113h-88V38q0-10-7.5-17.5t-18-7q-10.5.5-17.5 7.5t-7 17.5q0 10.5 7.5 17.5t17.5 8v49h-62q-17 1-31.5 9t-23 22.5Q.005 159 .005 176v62q0 17 8.5 31.5t23 23q14.5 8.5 30.5 8.5h176q16 0 30.5-8.5t23-23q8.5-14.5 8.5-31.5v-62q0-17-8.5-31.5t-23-22.5q-14.5-8-30.5-8v-1zm37 63v25h-62v-63h25q15 0 26 11t11 27zm-162-38h75v63h-75v-63zm-50 0h25v63h-63v-25q0-16 11-27t26-11h1zm175 138h-175q-16 0-27-11t-11-26v-13h250v12q0 16-11 27t-27 11h1zm-75-250q0-10 7-17.5t17.5-7.5q10.5 0 17.5 7.5t7.5 17.5q.5 10-7 17.5t-18 7.5q-10.5 0-17.5-7.5t-7-17.5zm75-3q-1-6 2-10t8-5l37-7q5-1 9.5 2t5.5 8q1 5-2 9.5t-8 5.5l-38 7q-5 1-9-2t-5-8zm-238 43q-1-5 2-9.5t8-5.5l50-9q5-1 9.5 2t5.5 8q1 5-2 9.5t-8 5.5l-50 9q-5 1-9.5-2t-5.5-8z"/></svg>