<svg viewBox="0 0 300 302.0011" xmlns="http://www.w3.org/2000/svg"><path d="M251 301h-2q-5 0-8.5-3t-3.5-8q-4-27-25.5-45.5T162 226h-24v62q0 6-4 9.5t-9 3.5q-5 0-8.5-3.5T113 288v-58q-20 7-33.5 23T63 290q0 5-4.5 8.5T49 301q-5-1-8-5t-2-9q3-24 17-44t35.5-31q21.5-11 46.5-11h25q24 0 45.5 11t35.5 31q14 20 18 44 0 5-3 9t-8 5zM50 38q0-15 11-26T88 1q12 0 26 7 19-7 36-7t36 7q14-7 27-7 15 0 26 11t11 27q0 12-7 21.5T225 74v40q0 20-10 37t-27.5 27.5Q170 189 150 189t-37.5-10.5Q95 168 85 151t-10-37V74q-11-4-18-13.5T50 39v-1zm150 63H100v12q0 11 4.5 20.5T116 151q17 14 39 12 19-2 32-17t13-35v-10zM75 38q0 5 2.5 8t6.5 4q7 3 11.5 9.5T100 74v2h100v-2q0-8 4.5-14.5T216 50q4-1 6.5-4t2.5-8q0-5-3.5-8.5t-8-3.5q-4.5 0-9.5 1.5t-10.5 5Q188 36 182 33q-4-2-10-3-12-4-22-4t-22 4q-7 2-10 3-6 3-11.5-.5t-10.5-5Q91 26 86.5 26t-8 3.5Q75 33 75 39v-1zm106 213q-8 0-13.5 5.5t-5 13.5q.5 8 5.5 13t13 5q8 0 13.5-5t5.5-13q0-8-5.5-13.5T181 251z"/></svg>