<svg viewBox="0 0 300 302.0011" xmlns="http://www.w3.org/2000/svg"><path d="M38 157q0 8-5.5 13.5T19 176q-8 0-13.5-5.5T0 157q0-8 5.5-13.5T19 138q8 0 13 5.5t5 13.5h1zm-19 44q-8 0-13.5 5.5T0 220q0 8 5.5 13t13.5 5.5q8 .5 13.5-5T38 220q0-8-5.5-13.5T19 201zm0 62q-8 0-13.5 5.5T0 282q0 8 5.5 13.5T19 301q8 0 13-5.5t5.5-13.5q.5-8-5-13T19 264v-1zm50-93q-8 0-13.5 5.5t-5.5 13q0 7.5 5.5 13T69 207q8 0 13.5-5.5t5.5-13q0-7.5-5.5-13T69 170zm0 62q-8 0-13.5 5.5T50 251q0 8 5.5 13.5T69 270q8 0 13.5-5.5t5-13.5q-.5-8-5.5-13.5T69 232zM299 45l-34 180q-4 22-21.5 36.5T204 276h-54q-15 0-26-11t-11-27v-37q0-16 11-27t26-11h12l24-122q4-17 17.5-28.5T235 1h28q17 0 28.5 13.5T299 45zm-88 1l-9 42h64l9-47q1-6-3-10.5T262 26h-27q-9 0-16 5.5T211 46zm50 67h-64l-12 65q-1 5-4.5 7.5T172 188h-22q-5 0-8.5 4t-3.5 9v37q0 6 3.5 9.5t8.5 3.5h54q13 0 23.5-8.5T241 220l20-107z"/></svg>