<svg viewBox="0 0 300 302.0011" xmlns="http://www.w3.org/2000/svg"><path d="M282 72l-53-53q-8-8-19.5-13t-24-5q-12.5 0-24 5T141 19L18 142Q6 154 2 170t0 32q4 16 16 28l53 53q12 12 28 16t32 0q16-4 28-16l123-123q12-12 16-28t0-32q-4-16-16-28zm-97-46q10-1 21 7 6 4 17 16l6 5-32 32-43-44q5-7 13.5-11.5T185 26zm27 169l-45-44 30-30 44 44-29 30zm-47 47l-45-44 30-30 44 45-29 29zM89 107l43 44-29 29-44-43 30-30zm61 26l-44-43 30-30 43 43-29 30zM25 186q0-9 4.5-17.5T42 154l43 44-32 32-5-6q-12-11-16-17-8-11-7-21zm63 79l-17-18 32-32 44 45q-10 14-28 15.5T88 265zm176-123l-5 6-44-45 31-31 18 17q11 11 11 26.5T264 142z"/></svg>