<svg viewBox="0 0 300 302.0011" xmlns="http://www.w3.org/2000/svg"><path d="M63 226q-6 0-9.5-3.5T50 214V88q0-5 3.5-8.5t9-3.5q5.5 0 9 3.5T75 89v124q0 6-3.5 9.5T62 226h1zm62-13V88q0-5-3.5-8.5t-9-3.5q-5.5 0-9 3.5T100 89v124q0 6 3.5 9.5t9 3.5q5.5 0 9-3.5t3.5-8.5v-1zm125 0V88q0-5-3.5-8.5t-9-3.5q-5.5 0-9 3.5T225 89v124q0 6 3.5 9.5t9 3.5q5.5 0 9-3.5t3.5-8.5v-1zm-75-6V95q0-8-5.5-13.5T156 76q-8 0-13.5 5.5T137 95v112q1 8 6 13.5t13 5.5q8 0 13.5-5.5T175 207zm-87 56q0-5-4-8.5t-9-3.5H50q-10 0-17.5-7.5T25 226v-25q0-5-3.5-8.5t-9-4q-5.5-.5-9 3.5T0 201v25q0 21 14.5 35.5T50 276h25q5 0 9-3.5t4-9.5zm212-37v-25q0-5-3.5-8.5t-9-4q-5.5-.5-9 3.5t-3.5 9v25q0 10-7.5 17.5T250 251h-25q-5 0-9 3.5t-3.5 9q.5 5.5 4 9t8.5 3.5h25q21 0 35.5-14.5T300 226zm0-125V76q0-21-14.5-35.5T250 26h-25q-5 0-9 3.5t-3.5 9q.5 5.5 4 9T225 51h25q10 0 17.5 7.5T275 76v25q0 5 3.5 8.5t9 3.5q5.5 0 9-3.5t3.5-8.5zm-275 0V76q0-10 7.5-17.5T50 51h25q5 0 9-3.5t4-9q0-5.5-4-9T75 26H50q-21 0-35.5 14.5T0 76v25q0 5 3.5 8.5t9 3.5q5.5 0 9-3.5T25 101zm169 125q-3 0-5-2t-2-4V82q1-2 2.5-4t4.5-2q2 0 4 2t2 4v138q0 2-2 4t-4 2z"/></svg>