<svg viewBox="0 0 300 302.0011" xmlns="http://www.w3.org/2000/svg"><path d="M50 126h138v12q0 6 3.5 9.5t8.5 3.5q5 0 9-3.5t4-9.5v-12h37q21 0 35.5-14.5T300 76q0-21-14.5-35.5T250 26h-37V13q0-5-4-8.5T200 1q-5 0-8.5 3.5T188 13v13H50q-21 0-35.5 14.5T0 76q0 21 14.5 35.5T50 126zm200-75q10 0 17.5 7.5T275 76q0 10-7.5 17.5T250 101h-37V51h37zm-62 50h-38V51h38v50zM50 51h75v50H50q-10 0-17.5-7.5T25 76q0-10 7.5-17.5T50 51zm200 125H150v-13q0-5-3.5-8.5t-9-3.5q-5.5 0-9 3.5T125 163v13H50q-21 0-35.5 14.5T0 226q0 21 14.5 35.5T50 276h75v12q0 6 3.5 9.5t9 3.5q5.5 0 9-3.5t3.5-9.5v-12h100q21 0 35.5-14.5T300 226q0-21-14.5-35.5T250 176zM25 226q0-10 7.5-17.5T50 201h13v50H50q-10 0-17.5-7.5T25 226zm63 25v-50h37v50H88zm162 0H150v-50h100q10 0 17.5 7.5T275 226q0 10-7.5 17.5T250 251z"/></svg>