<svg viewBox="0 0 300 302.0011" xmlns="http://www.w3.org/2000/svg"><path d="M100 63q0-15 11-26t26-11V13q1-5 4.5-8.5T150 1q5 0 9 3.5t4 8.5v13h3q10 0 18.5 5T198 45q3 4 1.5 9t-6 7.5Q189 64 184 63t-8-6.5q-3-5.5-10-5.5h-28q-6 0-9.5 3.5t-3.5 8q0 4.5 2.5 7T133 73l38 6q13 2 21 12t8 23q0 15-11 26t-26 11v12q0 6-4 9.5t-9 3.5q-5 0-8.5-3.5T138 163v-12h-4q-10 0-18.5-5T102 132q-3-4-1.5-9t6-7.5q4.5-2.5 9.5-1.5t8 6.5q3 5.5 10 5.5h29q5 0 8.5-3.5t3.5-8q0-4.5-2.5-7T167 104l-38-6q-13-2-21-12t-8-23zm139-25h-1q-6 0-9.5 4t-3.5 9q0 5 3.5 8.5T237 63h2q10 1 16.5 7.5t7 16Q263 96 257 103l-91 102q-3 4-3 8v50l-25-18v-32q0-4-4-8L43 103q-5-7-5-16.5t6.5-16Q51 64 61 64h2q5-1 8.5-4.5T75 51q0-5-3.5-9T62 38h-1q-20 0-34.5 14.5t-14 34Q13 106 25 120l88 98v33q0 6 4 10l51 37q3 3 6.5 3t6.5-1q7-4 6-12v-70l88-98q13-14 13-33.5T273.5 53Q259 39 239 39v-1z"/></svg>