<svg viewBox="0 0 300 302.0011" xmlns="http://www.w3.org/2000/svg"><path d="M75 138v13q0 20 10 37.5t27.5 27.5q17.5 10 37.5 10 5 0 10.5-1t9.5 2.5q4 3.5 5 8.5t-2.5 9q-3.5 4-9.5 5t-13 1q-27 0-50-13.5T63.5 201Q50 178 50 151v-12q0-6 3.5-9.5t9-3.5q5.5 0 9 3.5T75 139v-1zm221 142q4 3 4 8.5t-3.5 9q-3.5 3.5-9 3.5t-8.5-4L4 22q-4-3-4-8.5t3.5-9Q7 1 12.5 1T21 5l44 43q14-22 36.5-34.5t49-12.5Q177 1 200 14.5T236.5 51Q250 74 250 101v50q0 34-21 61l18 18q13-17 20.5-37t7.5-42q0-5 3.5-9t9-4q5.5 0 9 4t3.5 9q0 27-9 52t-26 45l31 32zM83 67l128 127q10-14 13-31h-36q-6 0-9.5-3.5T175 151q0-5 3.5-9t9.5-4h37v-25h-37q-6 0-9.5-3.5T175 101q0-5 3.5-9t9.5-4h36q-5-26-25.5-44T150 26q-21 0-39 11T83 67zm119 198q-25 11-52 11-34 0-62.5-17T42 213.5Q25 185 25 151q0-5-3.5-8.5t-9-4q-5.5-.5-9 3.5T0 151q0 41 20 75.5T74.5 281q34.5 20 75.5 20 33 0 63-14 4-2 6-7t0-9.5q-2-4.5-7-6.5t-10 1z"/></svg>