<svg viewBox="0 0 300 302.0011" xmlns="http://www.w3.org/2000/svg"><path d="M238 76V38q-1-15-11.5-26T200 1H63Q46 1 31.5 9.5t-23 23Q0 47 0 64v99q0 17 8.5 31.5t23 23Q46 226 63 226v12q0 17 8 31.5t22.5 23Q108 301 125 301h113q16 0 30.5-8.5t23-23Q300 255 300 238V138q0-16-8.5-30.5t-23-23Q254 76 238 76zm-110 0l84-42v42h-84zM25 163V63q0-15 11-26t27-11h109L97 63q-16 9-25 24t-9 32v82q-16 0-27-11t-11-26v-1zm250 75q0 16-11 27t-27 11H125q-16 0-27-11t-11-27V119q0-9 5-18h146q15 0 26 11t11 26v100zm-25-87q0 5-3.5 9t-8.5 4h-38q-5-1-9-4.5t-3.5-8.5q.5-5 4-9t8.5-4h38q5 0 8.5 4t3.5 9zm-87-13v25q0 6-4 9.5t-9 3.5h-25q-5 0-8.5-3.5T113 164v-26q0-5 3.5-8.5t8.5-3.5h25q5 0 8.5 3.5t3.5 9.5l1-1zm87 88q0 5-3.5 8.5T238 238h-38q-5 1-9-3t-3.5-9q.5-5 4-9t8.5-4h38q5 1 8.5 4.5t3.5 8.5zm-87-13v25q-1 6-4.5 9.5T150 251h-25q-5 0-8.5-3.5T113 239v-26q0-5 3.5-8.5t8.5-3.5h25q5 0 8.5 3.5t3.5 8.5h1z"/></svg>