<svg viewBox="0 0 300 302.0011" xmlns="http://www.w3.org/2000/svg"><path d="M163 132q0-8 5-13.5t13-5q8 .5 13.5 5.5t5.5 13q0 8-5.5 13.5T181 151q-8 0-13.5-5.5T162 132h1zm-44 19q8 0 13.5-5.5t5-13.5q-.5-8-5.5-13.5t-13-5q-8 .5-13.5 5.5t-5.5 13q0 8 5.5 13.5T119 151zm31 100q-27 0-50-13.5T63.5 201Q50 178 50 151t13.5-50Q77 78 100 64.5T150 51q27 0 50 13.5t36.5 36.5q13.5 23 13.5 50t-13.5 50Q223 224 200 237.5T150 251zm75-100q0-20-10-37.5T187.5 86Q170 76 150 76t-37.5 10Q95 96 85 113.5T75 151q0 20 10 37.5t27.5 27.5q17.5 10 37.5 10t37.5-10q17.5-10 27.5-27.5t10-37.5zm-44 15q-5 2-11 5-11 5-19.5 5t-18.5-4q-7-3-12-6t-10-2q-5 1-8 5t-2 9.5q1 5.5 6 7.5 6 5 14 8 16 7 30 7t30-7q8-3 14-8 5-2 6-7.5t-2-9.5q-3-4-8-5t-9 2zM88 276H63q-16 0-27-11t-11-27v-25q0-5-3.5-8.5t-9-3.5q-5.5 0-9 3.5T0 213v25q0 17 8.5 31.5t23 23Q46 301 63 301h25q5 0 8.5-3.5t3.5-9q0-5.5-3.5-9T87 276h1zm200-75q-6 0-9.5 3.5T275 213v25q0 16-11 27t-27 11h-24q-6 0-9.5 3.5t-3.5 9q0 5.5 3.5 9t8.5 3.5h26q16 0 30.5-8.5t23-23Q300 255 300 238v-25q0-5-3.5-8.5T288 201zM238 1h-25q-6 0-9.5 3.5t-3.5 9q0 5.5 3.5 9T212 26h26q15 0 26 11t11 27v24q0 6 3.5 9.5t9 3.5q5.5 0 9-3.5T300 88V63q0-16-8.5-30.5t-23-23Q254 1 238 1zM13 101q5 0 8.5-3.5T25 88V63q0-15 11-26t27-11h25q5 0 8.5-3.5t3.5-9q0-5.5-3.5-9T87 1H63Q46 1 31.5 9.5t-23 23Q0 47 0 64v24q0 6 3.5 9.5T13 101z"/></svg>