<svg viewBox="0 0 300 302.0011" xmlns="http://www.w3.org/2000/svg"><path d="M150 226q-21 0-35.5-14.5T100 176v-50q0-21 14.5-35.5T150 76q21 0 35.5 14.5T200 126v50q0 21-14.5 35.5T150 226zm0-125q-10 0-17.5 7.5T125 126v50q0 10 7.5 17.5T150 201q10 0 17.5-7.5T175 176v-50q0-10-7.5-17.5T150 101zm88 200H63q-17 0-31.5-8.5t-23-23Q0 255 0 238V63q0-16 8.5-30.5t23-23Q46 1 63 1h175q16 0 30.5 8.5t23 23Q300 47 300 64v174q0 17-8.5 31.5t-23 23Q254 301 237 301h1zM63 26q-16 0-27 11T25 64v174q0 16 11 27t27 11h175q15 0 26-11t11-27V63q0-15-11-26t-27-11H63z"/></svg>