<svg viewBox="0 0 300 302.0011" xmlns="http://www.w3.org/2000/svg"><path d="M88 1H50Q29 1 14.5 15.5T0 51v37q0 21 14.5 35.5T50 138h38q20 0 35-14.5T138 88V51q0-21-15-35.5T88 1zm25 87q0 11-7.5 18T88 113H50q-10 0-17.5-7T25 88V51q0-10 7.5-17.5T50 26h38q10 0 17.5 7.5T113 51v37zm137 75h-37q-21 0-35.5 15T163 213v38q0 21 14.5 35.5T213 301h37q21 0 35.5-14.5T300 251v-38q0-20-14.5-35T250 163zm25 88q0 10-7.5 17.5T250 276h-37q-11 0-18-7.5t-7-17.5v-38q0-10 7-17.5t18-7.5h37q10 0 17.5 7.5T275 213v38zM163 63q0-20 15-34l26-25q4-3 9-3t8.5 4q3.5 4 3.5 9t-4 8l-26 25-3 4h46q20 0 35 14.5t15 35.5v25q0 5-4 8.5t-9 3.5q-5 0-8.5-3.5T263 126v-25q0-10-7.5-17.5T238 76h-46l3 4 26 24q4 4 4 9t-3.5 9q-3.5 4-8.5 4t-9-4l-26-24q-16-14-16-35h1zm-25 175q0 21-16 35l-26 25q-4 3-9 3t-8.5-4q-3.5-4-3.5-9t4-9l26-24 3-4H62q-20 0-35-14.5T12 201v-25q0-5 4-8.5t9-3.5q5 0 8.5 3.5T37 176v25q0 10 7.5 17.5T62 226h46l-3-4-26-24q-4-4-4-9t3.5-9q3.5-4 8.5-4t9 4l26 24q15 14 15 35l1-1z"/></svg>