<svg viewBox="0 0 300 302.0011" xmlns="http://www.w3.org/2000/svg"><path d="M295 49q-7-10-20-11h-44q3-6 5.5-14.5t0-15Q234 2 225 1q-5 0-8.5 3.5T212 13q1 11-6.5 18.5T187 39h-74q-11-1-18-8t-7-17q0-6-4-9.5T75 1q-9 1-11.5 7.5t0 15Q66 32 69 38H25Q12 39 4.5 49T1 71q11 29 37 44l37 151q1 15 12 25t26 10h75q14 0 25-10t12-25l37-151q26-15 37-44 4-12-4-22zm-65 52q-13-1-25.5 3.5t-22 13.5q-9.5 9-14.5 20.5t-5 24.5v63h-25v-63q-1-13-6-24.5T117.5 118q-9.5-9-22-13.5T70 101q13-23 34-38h92q21 15 34 38zM25 63h42Q55 76 47 91 32 81 25 63zm50 63q7 0 13 2-2 10 5 17.5t17 5.5q2 6 3 12v63q-11 0-20 6L66 125q4 1 9 1zm113 150h-75q-6 0-9.5-3.5t-3.5-9q0-5.5 3.5-9t9.5-3.5h75q5 0 8.5 3.5t3.5 9q0 5.5-3.5 9T188 276zm20-44q-10-6-20-6v-63q0-6 2-12 10 2 17-5.5t5-17.5q11-3 22-3l-26 107zm45-141q-8-15-20-28h42q-6 18-22 28z"/></svg>