<svg viewBox="0 0 300 302.0011" xmlns="http://www.w3.org/2000/svg"><path d="M257 160l-14-9 14-9q15-9 21-25 4-11 3-22t-7-21q-6-10-15.5-16T237 51q-17-1-32 8l-5 3v-9q0-20-13-34.5T155 1q-11-1-21 2.5T116.5 14q-7.5 7-12 16.5T100 51v11l-5-3q-15-10-32-8-12 1-21.5 7T26 73.5q-6 9.5-7 21t3 22.5q6 16 21 25l14 9-14 9q-15 9-21 25-4 11-3 22.5t7 21q6 9.5 15.5 15.5t21.5 7q17 1 32-8l5-3v11q0 21 14.5 35.5T150 301q21 0 35.5-14.5T200 251v-11l5 3q15 9 32 8 12-1 21.5-7t15.5-15.5q6-9.5 7-21t-3-22.5q-6-16-21-25zm-4 55q-5 8-15 10.5t-18-2.5l-26-16q-6-4-12.5-.5T175 217v34q0 10-7.5 17.5T150 276q-10 0-17.5-7.5T125 251v-34q0-7-6.5-10.5t-12.5.5l-26 16q-8 5-18 2.5T47 215q-5-8-3-18t11-15l33-20q6-4 6-11t-6-11l-33-20q-9-5-11-15t3-18q5-8 15-10.5T80 79l26 16q6 4 12.5.5T125 85V52q0-9 6-16.5t15-9.5q11-2 20 5.5t9 19.5v34q0 7 6.5 10.5T194 95l26-16q8-5 18-2.5T253 87q5 8 3 18t-11 15l-33 20q-6 4-6 11t6 11l33 20q9 5 11 15t-3 18z"/></svg>