<svg viewBox="0 0 300 302.0011" xmlns="http://www.w3.org/2000/svg"><path d="M113 276h-11q-15 0-25.5-9.5T64 242L48 76h178l-1 11q0 5 3 9t9 5h1q5 0 8.5-3t3.5-8l1-14h12q5 0 8.5-3.5t3.5-9q0-5.5-3.5-9T263 51h-52q-4-22-21.5-36T150 1h-25q-22 0-39.5 14T64 51H13q-6 0-9.5 3.5t-3.5 9q0 5.5 3.5 9T13 76h10l16 168q3 25 20.5 41t42.5 16h11q5 0 8.5-3.5t3.5-9q0-5.5-3.5-9T112 276h1zm12-250h25q12 0 21.5 7T185 51H90q4-11 13.5-18t21.5-7zm88 100q-24 0-44 12t-32 32q-12 20-12 43.5t12 43.5q12 20 32 32t43.5 12q23.5 0 43.5-12t32-32q12-20 12-43.5T288 170q-12-20-32-32t-44-12h1zm0 150q-17 0-31.5-8.5t-23-23q-8.5-14.5-8.5-31t8.5-31q8.5-14.5 23-23t31-8.5q16.5 0 31 8.5t23 23q8.5 14.5 8.5 31t-8.5 31q-8.5 14.5-23 23T212 276h1zm21-59q4 4 4 9t-4 9q-4 4-9 4t-9-4l-12-13q-4-3-4-8v-26q0-5 3.5-8.5t9-3.5q5.5 0 9 3.5t3.5 9.5v19l9 9z"/></svg>