<svg viewBox="0 0 300 302.0011" xmlns="http://www.w3.org/2000/svg"><path d="M250 172q4-10 4-21 0-22-14-38.5T204 93q4-10 4-21 0-16-7.5-29.5t-21-21Q166 14 150 14t-29.5 7.5q-13.5 7.5-21 21T92 72q0 11 4 21-22 3-36 19.5T46 151q0 11 4 21-21 3-35.5 19.5T0 230q0 16 8 29.5T29.5 281q13.5 8 28 8t26.5-6q12-6 20-17 8 11 20 17t26 6q14 0 26-6t20-17q8 11 20 17t27 6q15 0 28-8t21-21.5q8-13.5 8-29.5 0-22-14.5-38.5T250 172zM157 39q11 3 18.5 12.5T183 74q0 13-9.5 22.5t-24 9.5Q135 106 126 96t-9-24.5q0-14.5 12-25t28-7.5zM59 264q-15 0-24.5-10T25 229q0-15 12-25t28-7q12 2 19.5 12t7.5 23q0 13-10 22.5T59 264zm46-79q-16 0-25-10t-9-25q0-15 12-25t28-7q12 3 19 12.5t7.5 22.5q.5 13-9.5 22.5t-23 9.5zm46 79q-16 0-25-10t-9-25q0-15 12-25t28-7q11 2 18.5 12t7.5 23q0 13-9.5 22.5T151 264zm49-81q-16 0-25-9.5t-9-24.5q0-15 12-25t28-7q11 2 18.5 12t7.5 22.5q0 12.5-9.5 22T200 183zm42 81q-15 0-24.5-10t-9.5-25q0-15 12.5-25t27.5-7q12 2 19.5 12t7.5 23q0 13-9.5 22.5T242 264z"/></svg>