<svg viewBox="0 0 300.0048 302.0011" xmlns="http://www.w3.org/2000/svg"><path d="M296 280l-73-74 6-5q9-7 9-19 0-4-2-8 12-3 23.5-9.5t20-13.5q8.5-7 8.5-18.5t-9-19.5q-6-5-13-9 4-3 7-6 19-19 27-67 2-13-7.5-22.5T270 1q-48 8-67 27-3 3-6 7-4-7-9-13-7-8-19-8t-19 8.5Q143 31 136.5 42T127 65q-7-2-14.5-.5T100 72l-5 6L21 5q-3-4-8.5-4t-9 3.5Q0 8 0 13.5T4 22l275 275q3 4 8.5 4t9-3.5q3.5-3.5 3.5-9t-4-8.5zm-77-129h-8q-16-9-32-12l19-19q10-7 20.5-7t23 6q12.5 6 21.5 13-9 8-21.5 13.5T219 151zm1-105q7-7 21-12t34-7q-3 19-8 33t-11 20q-6 6-18 7.5t-25 .5q-1-13 .5-25t6.5-17zm-51-8q7 9 12.5 21.5t6 23Q188 93 181 103l-19 19q-3-16-12-32v-8q0-10 5.5-22.5T169 38zm-3 188q-9-8-21-15-15-7-28-9l4-5q4-3 4-8.5t-3.5-9q-3.5-3.5-9-3.5t-8.5 4l-5 4q-2-13-9-28-7-12-14.5-21T56 126q-12 0-19 9-10 11-16 26-8 18-8 34 0 28 20 55L4 280q-4 3-4 8.5t3.5 9q3.5 3.5 9 3.5t8.5-4l30-29q27 21 55 21 16 0 34-9 15-6 26-16 9-8 9-19.5t-9-18.5zM56 151q8 9 13.5 21t5.5 22.5q0 10.5-7 20.5l-17 17q-14-19-14-37 0-11 6-23t13-21zm50 112q-18 0-37-13l17-17q10-7 20.5-7t22.5 5.5q12 5.5 21 13.5-9 7-21 13t-23 6v-1z"/></svg>