<svg viewBox="0 0 300 302.0011" xmlns="http://www.w3.org/2000/svg"><path d="M272 222l-54-57 34-35q7-7 9.5-16t.5-18q-9-42-40-78l-2-2q-6-4-17-8-22-7-53-7T97 8q-11 4-17 8l-2 2Q47 53 38 97q-2 9 .5 17.5T48 130l35 36-54 56q-11 12-11 27.5T29 275l16 15q11 11 26 11h1q15 0 26-11l52-54 52 53q11 12 26 12h1q15 0 26-11l16-15q11-11 11-26.5T272 222zm-38-110l-33 35-32-34 51-56q13 21 17 44 2 7-3 11zM96 36q5-4 15-6 17-4 39-4t39 4q10 2 15 6h1l-37 41q-16-2-33 0L96 36zm-33 66q5-25 18-46l147 156-34 33L66 113q-5-5-3-11zm8 174q-5 0-9-3l-15-16q-4-3-4-8t3-9l9-9 34 32-9 9q-4 4-9 4zm35-31l-33-32 27-29 33 34-27 27zm147 12l-15 15q-4 4-9.5 4t-8.5-4l-9-9 34-33 9 10q3 3 3 8t-4 9z"/></svg>