<svg viewBox="0 0 300 302.0011" xmlns="http://www.w3.org/2000/svg"><path d="M0 151q0-5 3.5-9t8.5-4h76q5 0 8.5 4t3.5 9q0 5-3.5 9t-9.5 4H13q-6-1-9.5-4.5T0 151zm261-11q13-16 13.5-36.5t-11-37.5Q252 49 233 42t-39-1q-20 6-32 22.5T150 101q0 5 3.5 9t9 3.5q5.5-.5 9-4t3.5-8.5q0-16 11-27t26.5-10.5q15.5.5 26.5 11t11 26.5q0 16-11 27t-27 10h-74q-6 0-9.5 4t-3.5 9q0 5 3.5 9t9.5 4h112q10-1 17.5 6.5T275 189q0 13-10.5 19.5t-23 3.5q-12.5-3-17.5-15-1-5-6-7.5t-10-.5q-5 2-7 6.5t0 9.5q7 18 23 26.5t33.5 6q17.5-2.5 30-15.5t12.5-34q0-17-11-30.5T261 140zm-123 61H13q-6 0-9.5 3.5t-3.5 9q0 5.5 3.5 9T12 226h126q10 0 17 7.5t7 17.5q0 14-10.5 20.5t-23 3Q116 271 112 259q-2-5-6.5-7t-9.5-.5q-5 1.5-7.5 6.5t-.5 10q7 18 23 26.5t34 5.5q18-3 30-16t12.5-33.5q.5-20.5-14.5-35T137 201h1zM13 101h75q20 0 35-14.5t14.5-35Q137 31 125 18T95 2Q77-1 61 7.5T38 34q-2 5 .5 10t7.5 6.5q5 1.5 9.5-.5t6.5-7q4-12 16.5-15.5t23 3Q112 37 113 51q0 10-7.5 17.5T87 76H13q-6 0-9.5 3.5t-3.5 9q0 5.5 3.5 9T12 101h1z"/></svg>