<svg viewBox="0 0 300 302.0011" xmlns="http://www.w3.org/2000/svg"><path d="M253 138l1-1q8-8 8-19.5T254 97l-13-13q-8-8-20-8t-20 8l-1 1q-2 2-3 1-35-16-74-7-31 8-54.5 32T40 167q-6 28 2 54.5T70 268q17 16 37 24.5t43 8.5q11 0 22-2 32-6 56-29t31-55q9-38-7-73-1-2 1-4zm-18 71q-6 25-24.5 43T167 274q-22 5-42.5-1.5t-36-22q-15.5-15.5-22-36T64 172q5-25 23-44t42-25q11-2 21-2 19 0 36 8 8 4 16.5 2t15.5-8l1-1q1-1 2-1t2 1l14 13v2.5q0 1.5-1 2.5l-1 1q-6 6-7.5 14.5T229 152q13 27 6 57zm53-158q0 17-13 30-3 3-8.5 3t-9-3.5Q254 77 254 72t4.5-9.5Q263 58 263 51t-5-12q-13-13-32-13-38 2-78 7-22 3-33 5-5 1-9.5-1.5t-5.5-8q-1-5.5 2-9.5t8-5q14-3 34-6 41-5 81-7 14 0 27.5 5T275 21q13 13 13 30zM44 89q-5 0-8.5-3T31 79l-4-18-18-4q-4-2-6.5-5T0 44.5q0-4.5 2.5-8T9 32l18-4 4-17q1-5 4.5-7.5t8-2.5q4.5 0 8 2.5T56 11l4 17 18 5q4 1 6.5 4.5T87 45q0 4-2.5 7.5T78 57l-18 4-4 18q-1 4-4.5 7T44 89z"/></svg>