<svg viewBox="0 0 300 302.0011" xmlns="http://www.w3.org/2000/svg"><path d="M153 26q-31 0-58.5 11T45 69q-22 21-33.5 49T0 176v44q0 23 16.5 39.5T56 276h188q23 0 39.5-16.5T300 220v-39q0-42-20-77t-53.5-56Q193 27 153 26zm-3 25h2q25 0 47 10t39 27H61l1-1q18-18 40.5-27t47.5-9zm63 131v69h-38v-50q0-10-7.5-17.5T150 176q-10 0-17.5 7.5T125 201v50H88v-69q0-43 13-69h98q13 26 13 69h1zM25 220v-44q0-34 17-62h32q-11 28-12 68v69h-6q-13 0-22-9t-9-22zm250 0q0 13-9 22t-22 9h-6v-69q-1-40-12-69h31q18 31 18 68v39z"/></svg>