<svg viewBox="0 0 300 302.0011" xmlns="http://www.w3.org/2000/svg"><path d="M88 1H50Q29 1 14.5 15.5T0 51v37q0 21 14.5 36T50 139h38q20-1 35-15.5T137 88V51q1-21-14-35.5T87 1h1zm25 87q0 11-7.5 18.5T87 114H50q-10-1-17.5-8T25 89V51q0-10 7.5-17.5T50 26h38q10 0 17.5 7.5T113 51v37zM88 63v13q0 5-4 8.5T75 88H63q-6 0-9.5-3.5T50 76V63q0-5 3.5-8.5T62 51h13q5 0 9 3.5t4 9.5v-1zm125 75h37q21 0 35.5-14.5T300 88V51q0-21-14.5-35.5T250 1h-37q-21 0-36 14.5T162 51v37q1 21 15.5 36t35.5 15v-1zm-25-87q0-10 7-17.5t17-7.5h38q10 0 17.5 7.5T275 51v37q0 11-7.5 18t-17.5 8h-37q-11 0-18-7.5T187 89V51h1zm25 25V63q0-5 3.5-8.5T225 51h13q5 0 8.5 3.5T250 64v12q0 5-3.5 8.5T237 88h-12q-5 0-8.5-3.5T213 76zM88 163H50q-21 0-35.5 15T0 214v37q0 21 14.5 35.5T50 301h38q20 0 35-14.5t14-35.5v-38q1-20-14-35t-36-14l1-1zm25 88q0 10-7.5 17.5T87 276H50q-10 0-17.5-7.5T25 251v-38q0-10 7.5-17.5T50 188h38q10 0 17.5 7.5T113 214v37zm-25-25v12q0 6-4 9.5t-9 3.5H63q-6 0-9.5-3.5T50 238v-12q0-5 3.5-9t8.5-4h13q5 0 9 4t4 9zm125-44v13q-1 8-6 13t-13 5h-13q-8 0-13.5-5t-5.5-13v-13q1-8 6-13.5t13-5.5h13q8 0 13 5.5t6 13.5zm37 50q0 8-5.5 13.5T231 251q-8 0-13.5-5.5T212 232h1q-1-8 4.5-13.5T231 213q8 0 13.5 5.5T250 232zm-37 38v12q0 8-5.5 13.5T194 301h-13q-8 0-13.5-5.5T162 282v-12q0-8 5.5-13.5T181 251h13q8 0 13.5 5.5T213 270zm87-88v13q0 8-5.5 13t-13.5 5h-12q-8 0-13.5-5t-5.5-13v-13q0-8 5.5-13.5T269 163h12q8 0 13.5 5.5T300 182z"/></svg>