<svg viewBox="0 0 300 302.0011" xmlns="http://www.w3.org/2000/svg"><path d="M88 113q-21 0-35.5 15T38 163.5q0 20.5 14.5 35t35 14.5q20.5 0 35.5-14.5t15-35q0-20.5-15-35.5t-35-15zm0 75q-11 0-18-7t-7-17.5q0-10.5 7-18t17.5-7.5q10.5 0 18 7.5t7.5 18q0 10.5-7.5 17.5T88 188zm150-75h-50q-11 0-18 7.5t-7 17.5v50q0 11 7 18t18 7h50q10 0 17.5-7t7.5-18v-50q0-10-7.5-17.5T238 113zm0 75h-50v-50h50v50zm0-150H63q-17 0-31.5 8.5t-23 23Q0 84 0 101v100q0 17 8.5 31.5t23 22.5q14.5 8 31.5 8h175q16 0 30.5-8t23-22.5Q300 218 300 201V101q0-17-8.5-31.5t-23-23Q254 38 238 38zm37 163q0 15-11 26t-26 11H63q-16 0-27-11t-11-26V101q0-6 2-13h246q2 7 2 13v100z"/></svg>