<svg viewBox="0 0 300 302.0011" xmlns="http://www.w3.org/2000/svg"><path d="M238 26H63q-17 0-31.5 8.5t-23 23Q0 72 0 89v124q0 17 8.5 31.5t23 23Q46 276 63 276h175q16 0 30.5-8.5t23-23Q300 230 300 214V88q0-16-8.5-30.5t-23-23Q254 26 238 26zm37 187q0 16-11 27t-27 11H63q-16 0-27-11t-11-27V88q0-15 11-26t27-11h175q15 0 26 11t11 26v125zM200 88h-12q-11 1-18.5 8t-7.5 17v75q1 11 8 18.5t17 7.5h13q21-1 35.5-15.5T250 163v-25q0-20-14.5-35T200 88zm25 75q0 11-7.5 18.5T200 189h-12v-76h12q10 1 17.5 8t7.5 17v25zm-75 13q0 16-11 27t-26 11H84q-10-1-18.5-6T52 195q-3-5-1.5-10t6-7.5q4.5-2.5 9.5-1t8 6.5q3 5 10 6h28q6-1 9.5-4.5t3.5-8q0-4.5-2.5-7T117 166l-38-6q-13-2-21-11.5T50 126q0-16 11-26.5T87 89h29q10-1 18.5 4.5T148 107q3 5 1.5 10t-6 7.5q-4.5 2.5-9.5 1t-8-7q-3-5.5-10-5.5H88q-6 0-9.5 4t-3.5 8.5q0 4.5 2.5 7T83 136l38 6q13 2 21 11.5t8 22.5z"/></svg>