<svg viewBox="0 0 300 302.0011" xmlns="http://www.w3.org/2000/svg"><path d="M39 246q3 22 15 39-24-7-39-28.5T0 207q0-19 8-36 6-13 6-26.5T8 119q-8-17-8-37 0-22 10-40.5T37.5 12Q55 1 74.5 1t36 10q16.5 10 27 27T150 76q-14 15-21 34-4 13-16 19 2-11 6-21 6-12 6-26 0-23-14.5-39.5T75 26q-21 0-35.5 16.5T25 82q0 14 6 26 8 18 8 37t-8 36q-6 12-6 26 0 23 14 39zm237-55q-14 13-31 20-12 4-21.5 13.5T210 246q-7 17-19.5 29.5t-27.5 19q-15 6.5-30 6.5t-27.5-5Q93 291 83 281q-14-14-18.5-33.5t1.5-39Q72 189 87 173q13-13 30-19 13-5 22-14t14-22q6-17 19-30 12-11 25.5-17.5t29-7q15.5-.5 29 4.5T280 84q14 14 18 33t-1.5 39q-5.5 20-20.5 35zm-14-90q-13-13-32-13l-2 1q-22 1-38 17-9 9-14 21-6 18-19 31t-31 19q-12 5-21 14-16 16-17.5 37t12.5 35q14 14 35.5 13t36.5-17q10-9 14-21 7-18 20-31t31-20q12-4 21-14 16-15 17-36.5T262 101zm-81 62q-8 0-13.5 5.5t-5 13.5q.5 8 5.5 13.5t13 5.5q8 0 13.5-5.5T200 182q0-8-5.5-13.5T181 163zm-37 50q-8 0-13.5 5.5T125 232q0 8 5.5 13.5T144 251q8 0 13.5-5.5T163 232q0-8-5.5-13.5T144 213z"/></svg>