<svg viewBox="0 0 300 302.0011" xmlns="http://www.w3.org/2000/svg"><path d="M100 107q0 8-5.5 13.5T81 126q-8 0-13-5.5T63 107q0-8 5-13t13-5q8 0 13.5 5t5.5 13zm200 131v-83q0-40-18.5-74T231 25.5Q199 4 160 1q-32-2-62.5 9.5T44 45Q21 68 9.5 98.5T0 162q3 39 25.5 71T84 283q36 18 80 18h74q16 0 30.5-8.5t23-23Q300 255 300 238zM159 26q32 2 58.5 20t42 47q15.5 29 15.5 62v83q0 16-11 27t-27 11h-73q-38 0-68.5-15t-49-41.5Q28 193 25 160q-2-27 7.5-52.5t28-44Q79 45 102 35.5t48-9.5h9zM84 204l54-54 32 32q7 8 17.5 8t17.5-8l41-41q4-4 4-9t-3.5-8.5q-3.5-3.5-9-3.5t-8.5 3l-41 42-33-33q-7-7-17.5-7t-17.5 7l-54 54q-4 4-4 9t4 8.5q4 3.5 9 3.5t9-3z"/></svg>