<svg viewBox="0 0 300 302.0011" xmlns="http://www.w3.org/2000/svg"><path d="M94 301q-23 0-43-10.5t-33.5-29Q4 243 1 220t4.5-44q7.5-21 24-37t40-22.5Q93 110 117 116l99-98q8-8 18.5-12.5T256 1q18 0 31 13t13 31q0 11-4.5 21.5T283 85l-8 9q-7 7-18 7h-19v12q0 11-7.5 18t-18.5 7h-12v20q0 11-7 18l-8 8q6 24-1 49-8 27-30 45.5T104 300l-10 1zm0-163q-27 0-46.5 18t-22 44.5Q23 227 39 248.5T81 275q26 5 49-9t30-40q6-21-1-41-3-8 3-13l13-14v-20q0-10 7.5-17t17.5-7h13v-13q0-10 7-17.5t18-7.5h19l9-8q9-10 9-23 0-8-5.5-13.5T256 26q-13 0-23 9L129 139q-5 6-13 3-11-3-22-3v-1zm-31 88q0 5 3.5 8.5T75 238q5 0 8.5-3.5t4-8.5q.5-5-3.5-8.5t-9-4q-5-.5-8.5 3.5t-3.5 9z"/></svg>