<svg viewBox="0 0 300 302.0011" xmlns="http://www.w3.org/2000/svg"><path d="M222 119q5 6 2.5 13t-10.5 7H86q-8-1-10.5-7.5T78 119l58-56q6-6 14-6t14 6l58 56zm78 32q0 41-20 75.5T225.5 281Q191 301 150 301t-75.5-20Q40 261 20 226.5T0 151q0-41 20-75.5T74.5 21Q109 1 150 1t75.5 20Q260 41 280 75.5t20 75.5zm-25 0q0-34-17-62.5T212.5 43Q184 26 150 26T87.5 43Q59 60 42 88.5T25 151q0 34 17 62.5T87.5 259q28.5 17 62.5 17t62.5-17q28.5-17 45.5-45.5t17-62.5zm-51 20q2 4 1 7.5t-4 6.5l-52 52q-8 8-19 8t-19-8l-52-52q-3-3-4-6.5t.5-7q1.5-3.5 5-6T88 163h125q3 0 6.5 2.5t4.5 5.5zm-42 17h-64l31 31q1 2 2 0l31-31z"/></svg>