<svg viewBox="0 0 300.0013 302.0011" xmlns="http://www.w3.org/2000/svg"><path d="M163 1q-38 0-69.5 15t-50 41Q25 83 25 113q0 21 9 39-7 8-8.5 18.5T28 191q-13 11-20 27t-8 33q-1 21 14 36t36 14q5 0 9-3.5t4-9q0-5.5-4-9t-9-3.5q-11 1-18.5-6.5t-6.5-19q1-11.5 6.5-23T46 208q21 6 43 6l10-1q31 13 63 13 38 0 69.5-15t50-41q18.5-26 18.5-56.5T281.5 57q-18.5-26-50-41T163 1zM54 185q-4-4-4-9t3.5-9q3.5-4 9-4t8.5 4q8 10 13 22-15 0-30-4zm109 16q-26 0-49-9-10-23-25-43-7-6-16-8.5t-18-.5q-5-13-5-26 0-24 15-44t41-32q26-12 56.5-12T219 38q26 12 41 32t15 43.5q0 23.5-15 43.5t-41 32q-26 12-56 12z"/></svg>