<svg viewBox="0 0 300 302.0011" xmlns="http://www.w3.org/2000/svg"><path d="M13 194l26 18q20 14 45 14 17 0 33-7l161-71q14-7 19.5-21.5t-1-28.5q-6.5-14-21-19.5T247 79l-39 18-83-51q-8-6-18.5-7T87 42l-10 5q-6 2-9.5 7T63 65.5Q62 72 64 78t7 10l52 46-44 20-39-14q-9-3-18.5 0T6 150q-7 10-5.5 23T13 194zM88 69l9-4q7-3 14 2l69 42-31 14-61-54zm-62 97q2-2 4-2l45 16q5 1 9-1l173-77q5-2 10 0t7 6.5q2 4.5.5 9.5t-6.5 7l-162 71q-13 6-27 5t-25-9l-26-19q-2-1-2.5-3.5t.5-3.5zm274 122q0 6-3.5 9.5T287 301H13q-6 0-9.5-3.5t-3.5-9q0-5.5 3.5-9T13 276h275q5 0 8.5 3.5t3.5 8.5z"/></svg>