<svg viewBox="0 0 300 302.0011" xmlns="http://www.w3.org/2000/svg"><path d="M150 182q-11 0-21-6L6 102q-6-4-6-11t6-10L129 7q10-6 21-6t21 6l123 74q6 3 6 10t-6 11l-123 74q-10 6-21 6zM37 91l105 64q8 4 16 0l105-64-105-63q-8-5-16 0L37 91zm263 160q0-5-3.5-9t-8.5-3h-75q-6-1-9.5 3t-3.5 9q0 5 3.5 8.5t9.5 3.5h75q5 0 8.5-3.5t3.5-8.5zm-139 41q2-4 1-9t-6-8L19 192q-5-2-10-1t-7.5 5.5Q-1 201 .5 206t5.5 8l138 82q3 2 6 2 7 0 11-6zm-5-53l138-82q4-3 5.5-8t-1-9.5Q296 135 291 134t-10 1l-131 79-131-79q-5-2-10-1t-7.5 5.5Q-1 144 .5 149t5.5 8l138 82q3 2 6 2t6-2z"/></svg>