<svg viewBox="0 0 300 302.0011" xmlns="http://www.w3.org/2000/svg"><path d="M159 105q4 3 4 8.5t-4 8.5l-54 54h33q5 0 8.5 3.5t3.5 9q0 5.5-3.5 9T137 201h-37q-16 0-27-11t-11-27v-37q1-5 4.5-9t8.5-4q5 0 9 4t4 9v32l53-53q4-4 9-4t9 4zm141 0v91q0 7-3.5 13t-9.5 9q-6 3-12 3-8 0-15-5l-23-23q-2 24-19.5 41T175 251H63q-17 0-31.5-8.5t-23-23Q0 205 0 189v-75q0-17 8.5-31.5t23-23Q46 51 63 51h112q24 0 42 16.5t20 40.5l23-23q6-4 13-4.5t13.5 2.5q6.5 3 10 9t3.5 13zm-87 8q-1-15-11.5-26T175 76H63q-16 0-27 11t-11 26v75q0 16 11 27t27 11h112q16 0 26.5-11t10.5-26v-76h1zm62 83v-90l-37 37v15l37 38z"/></svg>