<svg viewBox="0 0 300 302.0011" xmlns="http://www.w3.org/2000/svg"><path d="M238 1H63Q46 1 31.5 9.5t-23 23Q0 47 0 63v175q0 17 8.5 31.5t23 23Q46 301 62 301h176q16 0 30.5-8.5t23-23Q300 255 300 238V63q0-16-8.5-30.5t-23-23Q254 1 237 1h1zm12 137h25v25h-25v-25zm0-25V88h25v25h-25zm-25 25H75V26h150v112zM50 163H25v-25h25v25zm0-50H25V88h25v25zm-25 75h25v25H25v-25zm50-25h150v113H75V163zm175 25h25v25h-25v-25zm25-125h-25V28q11 4 18 14t7 21zM50 28v35H25q0-11 7-21t18-14zM25 238h25v36q-11-4-18-14t-7-21v-1zm225 36v-36h25q0 12-7 22t-18 14z"/></svg>