<svg viewBox="0 0 300 302.0011" xmlns="http://www.w3.org/2000/svg"><path d="M150 251q27 0 50-13.5t36.5-36.5q13.5-23 13.5-50v-50q0-27-13.5-50T200 14.5Q177 1 150 1t-50 13.5Q77 28 63.5 51T50 101v50q0 27 13.5 50t36.5 36.5q23 13.5 50 13.5zm0-225q27 0 48 17.5T224 89h-36q-6-1-9.5 3t-3.5 9q0 5 3.5 8.5t8.5 4.5h38v24h-37q-6 0-9.5 4t-3.5 9q0 5 3.5 9t8.5 4h37q-5 27-26 44.5T150 226q-27 0-48-17.5T76 164h37q5 0 8.5-4t3.5-9q0-5-3.5-9t-9.5-4H75v-25h38q5 1 8.5-3t3.5-9q0-5-3.5-9t-9.5-4H76q5-27 26-44.5T150 26zm138 125q-6 0-9.5 3.5T275 163q0 31-15 57t-41 41q-26 15-56 15h-25q-31 0-57-15t-41-41q-15-26-15-57 0-5-3.5-8.5t-9-3.5q-5.5 0-9 3.5T0 163q0 38 18.5 69.5t50 50Q100 301 137 301h26q37 0 68.5-18.5t50-50Q300 201 300 164q0-6-3.5-9.5T288 151z"/></svg>