<svg viewBox="0 0 300 302.0011" xmlns="http://www.w3.org/2000/svg"><path d="M238 13H63q-17 1-31.5 9t-23 22.5Q0 59 0 76v100q0 17 8.5 31.5t23 22.5q14.5 8 31.5 8h75v25H88q-6 0-9.5 4t-3.5 9q0 5 3.5 9t8.5 4h126q5-1 8.5-4.5t3.5-8.5q0-5-3.5-9t-9.5-4h-49v-25h75q16 0 30.5-8t23-22.5Q300 193 300 176V76q0-17-8.5-31.5t-23-22.5Q254 14 237 13h1zm37 163q0 16-11 26.5T237 213H63q-16 0-27-10.5T25 176V76q0-16 11-27t26-11h176q15 0 26 11t11 27v100zm-25-50q0 5-3.5 9t-8.5 4h-38l-21 31q-4 6-10 6h-1q-7 0-10-7l-28-56-13 20q-4 6-11 5H63q-6 0-9.5-3.5T50 126q0-5 3.5-9t9.5-4h37l21-31q4-7 11-6.5t10 7.5l28 56 13-20q4-6 11-6h44q5 0 8.5 4t3.5 9z"/></svg>