<svg viewBox="0 0 300 302.0011" xmlns="http://www.w3.org/2000/svg"><path d="M288 1q-12 0-22 5.5T249 21l-82 119q-11-3-22 1t-18 13l-8 13-2-9q-2-8-8.5-13.5T93 139H35q-9 0-15.5 5.5T11 158l-2 6q-4 21-6 33-3 20-3 42 0 17 8.5 31t23 22.5Q46 301 63 301h13q20 0 38.5-9.5T145 265l44-67q9-13 6-29-1-8-7-15l82-119q6-9 17-9 6 0 9.5-3.5t3.5-9q0-5.5-3.5-9T288 1zM168 184l-44 67q-8 12-21 18.5T76 276H63q-16 0-27-11t-11-26q0-21 3-39 1-11 6-31l1-5h58l1 5q4 20 6 31 1 4 3.5 7t6.5 4q4 1 7.5-.5t5.5-4.5l25-37q3-4 8-5t9.5 2q4.5 3 5.5 8t-3 10z"/></svg>