<svg viewBox="0 0 300 302.0011" xmlns="http://www.w3.org/2000/svg"><path d="M200 176h-37v-25q0-10-7.5-17.5T138 126h-38q-10 0-17.5 7.5T75 151v75q0 10 7.5 17.5T100 251h100q10 0 17.5-7.5T225 226v-25q0-10-7.5-17.5T200 176zm-62 50h-38v-25h38v25zm0-50h-38v-25h38v25zm62 50h-37v-25h37v25zm49-156l-43-43q-13-13-29-19.5T144 1H88Q71 1 56.5 9.5t-23 23Q25 47 25 64v174q0 17 8.5 31.5t23 23Q71 301 87 301h126q16 0 30.5-8.5t23-23Q275 255 275 238V132q0-17-6.5-33T249 70zm-17 18q6 6 10 13h-54q-6 0-9.5-3.5T175 88V34q7 4 13 10l44 44zm18 150q0 16-11 27t-26 11H88q-16 0-27-11t-11-27V63q0-15 11-26t27-11h62v62q0 16 11 27t26 11h63v112z"/></svg>