<svg viewBox="0 0 300 302.0011" xmlns="http://www.w3.org/2000/svg"><path d="M213 13q0-5 3.5-8.5T225 1h63q5 0 8.5 3.5t3.5 9q0 5.5-3.5 9T288 26h-63q-5 0-9-3.5t-4-9.5h1zm75 38h-63q-5 0-9 3.5t-3.5 9q.5 5.5 4 9T225 76h63q5 0 8.5-3.5t3.5-9q0-5.5-3.5-9T288 51zm0 187h-63q-5 1-9 4.5t-3.5 8.5q.5 5 4 9t8.5 4h63q5-1 8.5-4.5t3.5-8.5q0-5-3.5-9t-8.5-4zm0-100h-63q-5 0-9 4t-3.5 9q.5 5 4 8.5t8.5 3.5h63q5 0 8.5-3.5t3.5-8.5q0-5-3.5-9t-8.5-3v-1zm-7-50h-50q-8 0-13.5 5.5t-5 13.5q.5 8 5.5 13.5t13 5.5h50q8 0 13.5-5.5T300 107q0-8-5.5-13T281 89v-1zm0 100h-50q-8 0-13.5 5.5t-5 13.5q.5 8 5.5 13.5t13 5.5h50q8 0 13.5-5.5T300 207q0-8-5.5-13.5T281 188zm7 88h-63q-5 0-9 3.5t-3.5 9q.5 5.5 4 9t8.5 3.5h63q5 0 8.5-3.5t3.5-9q0-5.5-3.5-9T288 276zM188 76v50q0 16-11 26.5T150 163h-29l-8 26q5 0 8.5 3.5t3.5 8.5q0 5-3.5 8.5T112 213h-7l-19 57q-5 14-16.5 22.5T44 301q-7 0-13-2-17-6-25.5-22T2 244l30-89q-15-8-23.5-22.5T0 101q0-17 8.5-31.5t23-22.5Q46 39 62 39h88q16-1 26.5 10T187 76h1zm-93 87H56l-30 89q-2 7 1.5 14t11 9q7.5 2 14.5-1.5t9-11.5l33-99zm68-87q0-5-4-9t-9-4H63q-16 0-27 11t-11 27q0 16 11 26.5T63 138h87q5 0 8.5-3.5t3.5-8.5V76h1z"/></svg>