<svg viewBox="0 0 300 302.0011" xmlns="http://www.w3.org/2000/svg"><path d="M106 120q0 10 5 19-10 12-11 28-9-9-14-21.5T81 120q0-21 11.5-38.5t31-25.5q19.5-8 40-3.5t35 18.5Q213 85 217 105q3 11 1 23 0 4-3.5 7.5T206 139h-1q-5 0-8.5-4.5t-3-11q.5-6.5-1.5-14.5-2-12-11-20.5T159 77q-13-3-25.5 2t-20 16q-7.5 11-7.5 25zm-48-16q5-31 28-53 14-13 32.5-19.5T156 26q25 2 45 15.5T232.5 77Q244 99 244 125q0 16-12 27t-28 11h-30q-3-7-9.5-12.5t-16-5.5q-9.5 0-16.5 7.5t-7 18q0 10.5 7 17.5t17.5 7q10.5 0 17.5-7h37q17 0 32-8t23.5-23q8.5-15 9.5-32 0-32-14.5-59.5t-40-45Q189 3 158 1q-25-1-48 7T69 33Q55 46 45.5 63T33 99q-1 6 3 10.5t9 4.5q5 0 8.5-3t4.5-7zm92 109q-35 0-62 20t-37 52q-2 5 .5 9.5t7.5 6q5 1.5 9.5-1T74 292q8-23 29-38.5t47-15.5q26 0 47 15.5t29 38.5q1 4 4 6.5t7 2.5l4-1q5-1 7.5-5.5t.5-9.5q-10-32-37-51.5T150 214v-1z"/></svg>