<svg viewBox="0 0 300 302.0011" xmlns="http://www.w3.org/2000/svg"><path d="M13 301q-6 0-9.5-3.5t-3.5-9q0-5.5 4-8.5L279 5q3-4 8.5-4t9 3.5q3.5 3.5 3.5 9t-4 8.5L21 297q-3 4-9 4h1zM113 63q0-20-15-35T62.5 13q-20.5 0-35 15T13 63.5Q13 84 27.5 99t35 14.5q20.5-.5 35-15T112 63h1zm-25 0q0 11-7.5 18.5t-18 7.5Q52 89 45 81.5t-7-18q0-10.5 7-18T62.5 38q10.5 0 18 7.5T88 63zm200 175q0-20-15-35t-35.5-15q-20.5 0-35.5 15t-14.5 35.5q.5 20.5 15 35t35 14.5q20.5 0 35.5-14.5t15-35.5zm-25 0q0 11-7.5 18t-18 7q-10.5 0-18-7t-7-17.5q.5-10.5 7.5-18t17.5-7.5q10.5 0 18 7.5T263 238z"/></svg>