<svg viewBox="0 0 300 302.0011" xmlns="http://www.w3.org/2000/svg"><path d="M150 301q-41 0-75.5-20T20 226.5Q0 192 0 151t20-75.5Q40 41 74.5 21T150 1q41 0 75.5 20T280 75.5q20 34.5 20 75.5t-20 75.5Q260 261 225.5 281T150 301zm0-275q-34 0-62.5 17T42 88.5Q25 117 25 151t17 62.5Q59 242 87.5 259t62.5 17q34 0 62.5-17t45.5-45.5q17-28.5 17-62.5t-17-62.5Q241 60 212.5 43T150 26zm-14 194l61-108q3-6 3-12.5t-3.5-12q-3.5-5.5-9-8.5T175 76h-62q-6 0-9.5 3.5t-3.5 9q0 5.5 3.5 9t8.5 3.5l63-1-61 107q-2 5-1 10t5 7q4 2 7 2 7 0 11-6z"/></svg>