<svg viewBox="0 0 300 302.0011" xmlns="http://www.w3.org/2000/svg"><path d="M207 171q-4-3-9-2t-8 5q-3 4-2 9t5 8q7 5 13 10H94q12-10 29-20 11-7 33-19 38-21 56-34 29-22 45-46 18-30 18-69 0-5-3.5-8.5t-9-3.5q-5.5 0-9 3.5T250 14q0 6-1 12H51l-1-13q0-5-3.5-8.5t-9-3.5q-5.5 0-9 3.5T25 13q0 43 22 75 16 22 46 43 3 3 7 3 7 0 10-5t2-10q-1-5-5-8-7-5-13-10h112q-12 10-29 20-11 7-33 19-38 21-56 34-29 22-45 46-18 30-18 68 0 6 3.5 9.5t9 3.5q5.5 0 9-3.5T50 288q0-6 1-12h198l1 12q0 6 3.5 9.5t9 3.5q5.5 0 9-3.5t3.5-9.5q0-42-22-74-16-22-46-43zM70 76q-9-12-14-25h188q-5 13-14 25H70zM56 251q5-13 14-25h160q9 12 14 25H56z"/></svg>