<svg viewBox="0 0 300 302.0011" xmlns="http://www.w3.org/2000/svg"><path d="M277 132q-14-20-14-31V64q0-24-16-41.5T207 2q-10-1-20-1h-74q-9 0-20 1-24 3-40 20.5T37 64v37q1 11-13 31-11 16-12 36v70q1 17 9 31.5t22.5 23Q58 301 75 301h150q17 0 31.5-8.5t23-23Q288 255 288 238v-70q0-20-11-36zm-127-18l-32-88h64l-32 88zM38 238v-25h50q5 1 8.5-3t3.5-9q0-5-3.5-8.5T87 189H38v-21q0-12 6-21 19-27 18-46V64q0-13 8.5-23.5T92 28l46 125v123H75q-16 0-27-11t-11-27h1zm187 38h-62V153l45-125q13 2 21.5 12.5T238 64v37q0 19 18 46 7 9 6 21v20h-49q-6 0-9.5 4t-3.5 9q0 5 3.5 8.5t9.5 3.5h50v25q0 16-11 27t-27 11z"/></svg>