<svg viewBox="0 0 300 302.0011" xmlns="http://www.w3.org/2000/svg"><path d="M300 201v12q0 17-8.5 31.5t-23 23Q254 276 238 276h-13q-5 0-8.5-3.5t-3.5-9q0-5.5 3.5-9t8.5-3.5h13q15 0 26-11t11-27v-12q0-5 3.5-9t9-4q5.5 0 9 4t3.5 9zm0-113v25q0 6-3.5 9.5t-9 3.5q-5.5 0-9-3.5T275 114H88v137h50q5 0 8.5 3.5t3.5 9q0 5.5-3.5 9T137 276H63q-17 0-31.5-8.5t-23-23Q0 230 0 214V88q0-16 8.5-30.5t23-23Q46 26 63 26h175q16 0 30.5 8.5t23 23Q300 72 300 89v-1zM25 88h38V51q-16 0-27 11T25 88zm38 25H25v100q0 16 11 27t27 11V113zm212-25q0-15-11-26t-27-11H88v37h187zm-89 138h27q15 0 26-11t11-26v-27l4 4q3 3 8.5 3t9-3.5q3.5-3.5 3.5-8.5t-4-9l-13-14q-8-8-20.5-8t-20.5 8l-13 14q-4 4-4 9t3.5 8.5q3.5 3.5 9 3.5t8.5-3l4-4v26q0 6-3.5 9.5T212 201h-26l4-4q3-3 3-8.5t-3.5-9Q186 176 181 176t-9 4l-14 13q-8 9-8 20.5t8 20.5l14 13q4 4 9 4t8.5-3.5q3.5-3.5 3.5-9t-3-8.5l-4-4z"/></svg>