<svg viewBox="0 0 300 302.0011" xmlns="http://www.w3.org/2000/svg"><path d="M200 269q-6 14-20 23t-30 9q-21 0-37-14.5T95 251H76q-15 0-28-6t-22-17.5Q17 216 14 202t0-28l17-64q1-5 5.5-7.5t9.5-1q5 1.5 7.5 6T55 117l-17 63q-1 8 .5 16.5t7 15.5q5.5 7 13.5 10.5t17 3.5h87q5 0 8.5 3.5t3.5 9q0 5.5-3.5 9T163 251h-43q2 11 10.5 18t19.5 7q9 0 16.5-5t11.5-13q2-4 7-6t9.5 0q4.5 2 6.5 7t-1 10zm96 28q-3 4-8.5 4t-8.5-4L4 22q-4-3-4-8.5t3.5-9Q7 1 12.5 1T21 5l39 38q16-20 40-31t50-11q40 0 71.5 24T264 87l21 84q4 14 1.5 28.5T275 226q-7 9-17 15l38 39q4 3 4 8.5t-4 8.5zM77 61l163 162q9-4 14.5-11.5t7-16.5q1.5-9-.5-17l-22-84q-8-30-33-49t-56-19q-21 0-40 9T77 61z"/></svg>