<svg viewBox="0 0 300 302.0011" xmlns="http://www.w3.org/2000/svg"><path d="M150 213q-17 0-31.5-8T96 182.5Q88 168 88 151t8-31.5q8-14.5 22.5-23T150 88q17 0 31.5 8.5t23 23Q213 134 213 151t-8.5 31.5q-8.5 14.5-23 22.5t-31.5 8zm0-100q-15 0-26 11.5T113 151q0 15 11 26t26 11q15 0 26.5-11t11.5-26q0-15-11.5-26.5T150 113zm0-62q8 0 13.5-5.5T169 32q0-8-5.5-13.5T150 13q-8 0-13.5 5.5T131 32q0 8 5.5 13.5T150 51zm0 237q8 0 13.5-5t5.5-13q0-8-5.5-13.5T150 251q-8 0-13.5 5.5T131 270q0 8 5.5 13t13.5 5zM50 151q0-8-5.5-13.5T31 132q-8 0-13 5.5T13 151q0 8 5 13.5t13 5.5q8 0 13.5-5.5T50 151zm238 0q0-8-5.5-13.5T269 132q-8 0-13.5 5.5T250 151q0 8 5.5 13.5T269 170q8 0 13.5-5.5T288 151zm-57-63q8 0 13.5-5t5.5-13q0-8-5.5-13.5T231 51q-8 0-13 5.5T213 70q0 8 5 13t13 5zM69 251q8 0 13.5-5.5T88 232q0-8-5.5-13.5T69 213q-8 0-13.5 5.5T50 232q0 8 5.5 13.5T69 251zm0-163q8 0 13.5-5T88 70q0-8-5.5-13.5T69 51q-8 0-13.5 5.5T50 70q0 8 5.5 13T69 88zm181 144q0-8-5.5-13.5T231 213q-8 0-13 5.5t-5 13.5q0 8 5 13.5t13 5.5q8 0 13.5-5.5T250 232z"/></svg>