<svg viewBox="0 0 300 302.0011" xmlns="http://www.w3.org/2000/svg"><path d="M238 38H63q-17 0-31.5 8.5t-23 23Q0 84 0 101v100q0 17 8.5 31.5t23 22.5q14.5 8 31.5 8h175q16 0 30.5-8t23-22.5Q300 218 300 201V101q0-17-8.5-31.5t-23-23Q254 38 237 39l1-1zm37 163q0 16-11 27t-27 11H63q-16 0-27-11t-11-27V101q0-16 11-26.5T63 64h175q15 0 26 10.5t11 26.5v100zm-148-92q-2-9-9.5-15t-17-6Q91 88 84 94t-9 15l-21 89q-1 5 2 9.5t8 5.5q5 1 9.5-1.5T79 204l3-16h37l4 16q1 4 4 6.5t8 2.5h3q5-1 7.5-5.5t1.5-9.5l-20-89zm-39 54l11-48q0-2 1.5-2t1.5 2l11 48H88z"/></svg>