<svg viewBox="0 0 300 302.0011" xmlns="http://www.w3.org/2000/svg"><path d="M211 102l-23-9V26q5 0 8.5-3.5t3.5-9q0-5.5-3.5-9T188 1h-75q-6 0-9.5 3.5t-3.5 9q0 5.5 3.5 9T113 26v67l-24 9q-18 7-28.5 23T50 160v78q0 17 8.5 31.5t23 23Q96 301 112 301h76q16 0 30.5-8.5t23-23Q250 255 250 238v-78q0-19-10.5-35T211 102zm14 136q0 16-11 27t-26 11h-75q-16 0-27-11t-11-27v-78q0-12 6.5-21.5T99 125l31-12q3-2 5.5-5t1.5-7V26h26v75q0 4 2 7t5 5l31 12q11 4 17.5 13.5T225 160v78zm-96-77q-23 27-23 45.5t13 31.5q13 13 31 13t31-13q13-13 13-31.5T171 161q-8-9-21-9t-21 9zm21 65q-8 0-13.5-5.5T131 207q0-3 3-9 4-9 14-21 1-1 2-1t2 1q10 12 14 21 3 6 3 9 0 8-5.5 13.5T150 226z"/></svg>