<svg viewBox="0 0 300 302.0011" xmlns="http://www.w3.org/2000/svg"><path d="M248 45q-8-15-22.5-23T194 14h-88q-17-1-31.5 7.5T52 45L8 119q-8 14-8 31.5T9 182l44 76q9 14 23 22t31 8h86q17 0 31-8t23-22l44-76q9-14 9-31.5t-8-31.5l-44-74zm-142-7h88l4 1-14 24h-68l-14-24h4v-1zm65 100l21-37 22 37h-43zm42 25l-21 37-20-37h41zm-63 13l21 37h-42l21-37zm-20-88h40l-20 37-20-37zm-44 50l22-37 21 37H86zm42 25l-20 37-21-37h41zm-98-32l43-74 6-8 15 27-36 63H27q1-4 3-8zm49 120l-4-6-45-76-3-6h31l36 62-15 26zm114 12h-92l14-25h70l14 25h-6zm77-94l-45 76-4 6-15-26 36-62h31l-3 6zm-27-31l-37-62 15-27 6 8 43 74q2 4 3 7h-30z"/></svg>