<svg viewBox="0 0 300 302.0011" xmlns="http://www.w3.org/2000/svg"><path d="M96 153q-8-8-8.5-20t8.5-20l21-21q3-4 8.5-4t9 4q3.5 4 3.5 9t-4 9l-21 21q-2 2 0 4l21 19q3 4 3.5 9t-3.5 9q-4 4-9 4t-9-3l-20-20zm91-22q0 1 .5 2t-.5 2l-21 19q-3 4-3.5 9t3.5 9q4 4 9 4t9-3l20-20q9-8 9-20t-9-20l-21-21q-3-3-8.5-3t-9 3.5Q162 96 162 101t4 9l21 21zm113 95q0 16-11 27t-27 11H38q-16 0-27-11T0 226q0-12 7-21.5T25 191v-90q0-17 8.5-31.5t23-22.5Q71 39 87 39h126q16 0 30.5 8t23 22.5Q275 84 275 101v90q11 4 18 13.5t7 21.5zM50 101v87h56q5 0 9 4l9 9h52l9-9q4-4 9-4h56v-87q0-16-11-26.5T213 64H88q-16-1-27 10t-11 27zm225 125q0-5-3.5-8.5T263 214h-64l-9 8q-4 4-9 4h-62q-5 0-9-4l-9-9H38q-6 0-9.5 4t-3.5 9q0 5 3.5 8.5T37 238h226q5 0 8.5-3.5t3.5-8.5z"/></svg>