<svg viewBox="0 0 300 302.0011" xmlns="http://www.w3.org/2000/svg"><path d="M213 301H88q-17 0-31.5-8.5t-23-23Q25 255 25 238V63q0-16 8.5-30.5t23-23Q71 1 87 1h126q16 0 30.5 8.5t23 23Q275 47 275 64v174q0 17-8.5 31.5t-23 23Q229 301 212 301h1zM88 26q-16 0-27 11T50 64v174q0 16 11 27t27 11h125q15 0 26-11t11-27V63q0-15-11-26t-26-11H88zm137 50q0-5-3.5-8.5T212 64h-49q-6 0-9.5 3.5T150 76q0 5 3.5 8.5T163 88h50q5 0 8.5-3.5T225 76zm0 75q0-5-3.5-9t-9.5-3h-49q-6-1-9.5 3t-3.5 9q0 5 3.5 8.5t9.5 3.5h50q5 0 8.5-3.5t3.5-8.5zm0 75q0-5-3.5-9t-9.5-4h-49q-6 0-9.5 4t-3.5 9q0 5 3.5 8.5t9.5 3.5h50q5 0 8.5-3.5t3.5-8.5zM125 88V63q0-5-3.5-8.5T113 51H88q-6 0-9.5 3.5T75 64v24q0 6 3.5 9.5T87 101h26q5 0 8.5-3.5T125 88zm0 75v-25q0-5-3.5-8.5T113 126H88q-6 0-9.5 3.5T75 139v24q0 6 3.5 9.5T87 176h26q5 0 8.5-3.5t3.5-8.5v-1zm0 75v-25q0-5-3.5-8.5T113 201H88q-6 0-9.5 3.5T75 213v25q0 6 3.5 9.5T87 251h26q5 0 8.5-3.5t3.5-8.5v-1z"/></svg>