<svg viewBox="0 0 300 302.0011" xmlns="http://www.w3.org/2000/svg"><path d="M296 280l-31-32q10-16 10-34t-8.5-32q-8.5-14-23-22.5t-31-8.5q-16.5 0-31 8.5t-23 22.5q-8.5 14-8.5 31t8.5 31.5q8.5 14.5 23 23t32 8.5q17.5 0 33.5-11l32 32q3 4 8.5 4t9-3.5q3.5-3.5 3.5-9t-3-8.5h-1zm-121-67q0-15 11-26t26.5-11q15.5 0 26.5 11t11 26.5q0 15.5-11 26.5t-26.5 11q-15.5 0-26.5-11t-11-27zm-37 50q0 6-4 9.5t-9 3.5H63q-17 0-31.5-8.5t-23-23Q0 230 0 213V63q0-16 8.5-30.5t23-23Q46 1 63 1h150q16 0 30.5 8.5t23 23Q275 47 275 63v63q0 5-3.5 8.5t-9 3.5q-5.5 0-9-3.5T250 126V63q0-15-11-26t-26-11H63q-16 0-27 11T25 63v150q0 16 11 27t27 11h62q5 0 9 3.5t4 8.5zM75 106v95h38q5 0 8.5 3.5t3.5 9q0 5.5-3.5 9T113 226H75q-10 0-17.5-7.5T50 201V76q0-10 7.5-17.5T75 51h25q4 0 7 2t4.5 5.5q1.5 3.5.5 7.5t-3 6l-34 34zm63 57q0 6-4 9.5t-9 3.5q-10 0-17.5-7.5T100 151v-21q0-16 11-26l42-42q11-11 26-11h21q10 0 17.5 7.5T225 76v37q0 6-3.5 9.5t-9 3.5q-5.5 0-9-3.5T200 113V76h-21q-5 0-9 4l-41 41q-4 4-4 9v21q5 0 9 3.5t4 8.5z"/></svg>