<svg viewBox="0 0 300 302.0011" xmlns="http://www.w3.org/2000/svg"><path d="M125 188q0 6-3.5 9.5T113 201q-24 0-44 12t-32 32q-12 20-12 43 0 6-3.5 9.5t-9 3.5q-5.5 0-9-3.5T0 288q0-30 15-56t41-41q26-15 57-15 5 0 8.5 3.5t3.5 8.5zm175 32v37q0 18-13 31t-31 13h-62q-18 0-31-13t-13-31v-37q0-17 11-29t27-14v-1q-1-10 6.5-17.5T212 151h26q10 0 17.5 7.5T263 176v1q15 2 26 14t11 29zm-125 0v6h100v-6q0-8-5.5-13.5T256 201h-62q-8 0-13.5 5.5T175 220zm100 37v-6h-37q0 5-4 9t-9 3.5q-5-.5-8.5-4T213 251h-38v6q0 8 5.5 13.5T194 276h62q8 0 13.5-5.5T275 257zM11 161Q34 64 36 56q8-24 29-39.5T112.5 1Q139 1 160 16.5T189 56q1 5 16 67 1 6-2 11t-10 5q-4-1-7.5-3.5T181 129q-15-60-16-65-6-17-21-28-10 25-33 40-21 12-45 13l-2-1q4 17 17.5 27.5T113 126q13 0 25-7 4-2 9-1t7.5 5.5q2.5 4.5 1.5 9.5t-6 8q-17 10-37.5 10T75 141q-17-10-27-27l-13 53q-1 4-4.5 7t-7.5 3q-6 0-9.5-5T11 161zm50-98q20 2 36-8t24-28q-5-1-9-1-17 0-31.5 10T61 63z"/></svg>