<svg viewBox="0 0 300 302.0011" xmlns="http://www.w3.org/2000/svg"><path d="M193 126h-6v-6q0-13-9-22t-22-9h-13q-13-1-22 8.5t-9 22.5v6h-6q-13 0-22 9t-9 22v13q0 13 9 22t22 9h6v6q0 13 9 22t22 9h13q13 0 22-9t9-22v-6h6q13 0 22.5-9t9.5-22v-13q0-13-9.5-22t-22.5-9zm7 44q0 2-2 4t-5 2h-18q-6 0-9.5 3.5T162 189v18q0 3-2 4.5t-4 1.5h-13q-2 0-4-1.5t-2-4.5v-19q0-5-3.5-8.5T125 176h-19q-3 0-4.5-2t-1.5-4v-13q0-2 1.5-4t4.5-2h19q5 0 8.5-3.5t3.5-8.5v-19q0-3 2-5t4-2h13q2 0 4 2t2 5v18q0 6 3.5 9.5t9.5 3.5h18q3 0 5 2t2 4v13zm72-99l-88-59Q169 1 149.5 1T115 12L27 71Q14 79 7 93t-7 30v115q0 17 8 31.5t22.5 23Q45 301 62 301h175q17 0 31.5-8.5t23-23Q300 255 300 238V123q0-16-7.5-30T272 71zm3 167q0 16-11 27t-27 11H62q-15 0-26-11t-11-27V123q0-10 4-18t12-14l88-59q9-6 20.5-6t20.5 6l88 59q8 6 12.5 14t4.5 18v115z"/></svg>