<svg viewBox="0 0 300 302.0011" xmlns="http://www.w3.org/2000/svg"><path d="M150 172q-14 22-39 30l-32 11h-5q-3 0-6.5-2t-4.5-6.5q-1-4.5 1-9t7-6.5l32-11q16-5 25-18t9-29V13q1-5 4.5-8.5T150 1q5 0 9 3.5t4 9.5v117q0 16 9 29t25 18l32 11q5 2 7 6.5t1 9q-1 4.5-4.5 6.5t-6.5 2.5q-3 .5-5-.5l-32-11q-25-8-39-30zm-25 54q-5 0-9 3.5t-4 8.5q1 10-5 17.5T92 266l-34 9-8 1q-10 0-17.5-7.5T25 251q0-24 5-47l21-89q4-17 17.5-28T100 76q5 0 8.5-3.5t3.5-9q0-5.5-3.5-9T100 51q-27 0-47 16t-26 42L6 199q-6 26-6 52 0 21 15 35 7 7 16 11t19 4q8 0 15-2l33-9q17-5 28.5-19t11.5-33q0-5-4-8.5t-9-3.5zm169-27l-21-90q-6-26-26-42t-47-16q-5 0-8.5 3.5t-3.5 9q0 5.5 3.5 9T200 76q18 0 31.5 11t17.5 28l21 89q5 23 5 47 0 10-7.5 17.5T250 276q-5 0-9-2l-33-8q-9-3-15-10.5t-6-17.5q0-5-3.5-8.5T175 226q-5 0-9 3.5t-4 8.5q0 19 11.5 33t28.5 19l32 8q9 3 16 3 10 0 19-4t16-11q15-14 15-35 0-26-6-52z"/></svg>