<svg viewBox="0 0 300.0078 302.0011" xmlns="http://www.w3.org/2000/svg"><path d="M291 114q-11-13-28-13h-1q-3-28-19-51t-40.5-36Q178 1 150 1T97.5 14Q73 27 57 50t-19 51q-18 0-29 13t-9 30l14 93q4 27 25 45.5T88 301h125q27 0 48.5-18.5T287 237l13-93q2-17-9-30zM150 26q22 0 40.5 10t31 27Q234 80 237 101H63q3-21 15.5-38t31-27Q128 26 150 26zm125 114l-13 93q-3 18-17 30.5T213 276H88q-19 0-33-12.5T38 233l-13-93q-1-5 3-9.5t9-4.5h226q6 0 9.5 4.5t2.5 9.5zm-112 23v75q0 6-4 9.5t-9 3.5q-5 0-9-3.5t-4-9.5v-75q1-5 4.5-8.5t8.5-3.5q5 0 9 3.5t4 8.5zm62 0v75q0 6-3.5 9.5t-9 3.5q-5.5 0-9-3.5T200 238v-75q0-5 3.5-8.5t9-3.5q5.5 0 9 3.5t3.5 8.5zm-125 0v75q0 6-3.5 9.5t-9 3.5q-5.5 0-9-3.5T75 238v-75q0-5 3.5-8.5t9-3.5q5.5 0 9 3.5t3.5 8.5z"/></svg>