<svg viewBox="0 0 300 302.0011" xmlns="http://www.w3.org/2000/svg"><path d="M238 51h-14q-5-22-22-36T162 1h-24q-23 0-40 14T76 51H63q-17 0-31.5 8.5t-23 23Q0 97 0 113v125q0 17 8.5 31.5t23 23Q46 301 62 301h176q16 0 30.5-8.5t23-23Q300 255 300 239V113q0-16-8.5-30.5t-23-23Q254 51 238 51zM138 26h25q11 0 21 7t14 18h-96q4-11 14-18t22-7zM63 76h175q15 0 26 11t11 27v37H25v-38q0-15 11-26t26-11h1zm175 200H63q-16 0-27-11t-11-26v-63h113v12q0 6 3.5 9.5t8.5 3.5q5 0 9-3.5t4-9.5v-12h112v62q0 16-11 27t-27 11h1z"/></svg>