<svg viewBox="0 0 300 302.0011" xmlns="http://www.w3.org/2000/svg"><path d="M150 126q-21 0-35.5 14.5T100 176q0 21 14.5 35.5T150 226q21 0 35.5-14.5T200 176q0-21-14.5-35.5T150 126zm0 75q-10 0-17.5-7.5T125 176q0-10 7.5-17.5T150 151q10 0 17.5 7.5T175 176q0 10-7.5 17.5T150 201zM282 53l-34-34q-8-9-19.5-13.5T204 1H63Q46 1 31.5 9.5t-23 23Q0 47 0 63v175q0 17 8.5 31.5t23 23Q46 301 62 301h176q16 0 30.5-8.5t23-23Q300 255 300 239V97q0-13-4.5-24.5T282 53zm-69-26v11q0 16-11 27t-27 11h-50q-16 0-26.5-11T88 38V26h116q4 0 8 1h1zm62 211q0 16-11 27t-27 11H63q-16 0-27-11t-11-26V63q0-15 11-26t26-11v12q1 17 9 31.5t22.5 23Q108 101 125 101h50q24 0 42-16.5T237 43l27 27q11 11 11 27v141z"/></svg>