<svg viewBox="0 0 300 302.0011" xmlns="http://www.w3.org/2000/svg"><path d="M238 151h-28l14-49q4-16-4-30.5T196 52q-5-1-10-1l1-6q3-15-6-28T156 1q-11-1-21 3t-16 13q-6-8-16.5-12.5T81 1Q66 4 57 16.5T51 45l1 6q-4 0-10 1-16 5-24 19.5T14 102l14 50q-12 3-19 13-6 6-8 14.5T1 196l11 55q4 22 21.5 36T73 301h165q16 0 30.5-8.5t23-23Q300 255 300 238v-25q0-16-8.5-30.5t-23-23Q254 151 238 151zm37 62H125q0-15 11-26t27-11h75q15 0 26 11t11 26zM189 76q6 2 9 7.5t2 11.5l-16 56h-16l13-75q4-1 8 0zm-37-50q5 1 8 5t2 9l-20 111h-26l21-115q1-5 5.5-8t9.5-2zm-75 5q3-4 8.5-5t9.5 2q4 3 5 8l6 31-11 62-14-61q0-2-1-5l-5-23q-1-5 2-9zM49 76q4-1 9 1l16 74H54L38 95q-2-6 1.5-11.5T49 76zM36 246l-11-55q-1-6 3-10.5t10-4.5h75q-13 16-13 37v25q0 21 13 38H73q-13 0-23.5-8.5T36 246zm202 30h-75q-16 0-27-11t-11-27h50l24 16q6 4 13.5 4t14.5-4l23-16h25q0 16-11 27t-26 11z"/></svg>