<svg viewBox="0 0 300 302.0011" xmlns="http://www.w3.org/2000/svg"><path d="M191 171l-25 30 25 29q3 4 2.5 9.5t-4 8.5q-3.5 3-9 3t-8.5-5l-22-26-22 26q-3 5-8.5 5t-9-3q-3.5-3-4-8t2.5-9l25-30-25-29q-3-4-2.5-9.5t4.5-8.5q4-3 9-3t8 4l22 27 22-27q3-3 8-3.5t9 2.5q4 3 4.5 8t-2.5 10v-1zm84-39v106q0 17-8.5 31.5t-23 23Q229 301 213 301H88q-17 0-31.5-8.5t-23-23Q25 255 25 238V63q0-16 8.5-30.5t23-23Q71 1 88 1h56q17 0 33 6.5T206 27l43 43q13 13 19.5 29t6.5 33zm-87-88q-6-6-13-10v54q0 6 3.5 9.5t9.5 3.5h54q-4-7-10-13l-44-44zm62 88v-6h-62q-16 0-27-11t-11-27V26H88q-16 0-27 11T50 63v175q0 16 11 27t27 11h125q15 0 26-11t11-27V132z"/></svg>