<svg viewBox="0 0 300 302.0011" xmlns="http://www.w3.org/2000/svg"><path d="M150 101q-21 0-35.5 14.5T100 151q0 21 14.5 35.5T150 201q21 0 35.5-14.5T200 151q0-21-14.5-35.5T150 101zm0 75q-10 0-17.5-7.5T125 151q0-10 7.5-17.5T150 126q10 0 17.5 7.5T175 151q0 10-7.5 17.5T150 176zm116-1l-5-3q3-21 0-42l5-3q9-5 14-13.5t5-18.5q0-10-5-19t-14-14q-9-5-19-5t-18 5l-6 3q-16-13-35-20v-7q0-15-11-26T150 1q-16 0-27 11t-10 27v6q-20 7-36 20l-6-3q-13-8-28-3.5T20 76q-8 13-4 28t18 23l5 3q-3 21 0 42l-5 3q-14 8-18 23t4 28q8 13 23 17.5t28-3.5l6-3q16 13 35 20v6q1 16 11.5 27t26.5 11q16 0 26.5-11t11.5-26v-7q19-7 35-20l6 3q13 8 28 3.5t23-17.5q8-13 4-28t-18-23zm-32-47q7 23 0 46-1 5 .5 8.5t5.5 6.5l14 7q4 3 5.5 8t-1 9.5q-2.5 4.5-7.5 6t-10-1.5l-13-8q-4-2-8.5-1.5T212 212q-17 18-40 24-4 1-7 4.5t-3 7.5v15q0 6-3.5 9.5T150 276q-5 0-9-3.5t-4-9.5v-15q0-4-2.5-7.5T128 236q-23-6-40-24-3-3-7.5-3.5T72 210l-13 8q-6 4-12.5 0T40 207q0-7 6-11l14-7q4-3 5.5-6.5t.5-8.5q-7-23 0-46 1-5-.5-8.5T60 113l-14-7q-6-4-6-11t6.5-11Q53 80 59 84l13 8q4 2 8.5 1.5T88 90q17-18 40-24 4-1 7-4.5t3-7.5V38q-1-5 3-8.5t9-3.5q5 0 9 3.5t4 8.5v16q-1 4 2 7.5t7 4.5q23 6 40 24 3 3 7.5 3.5T228 92l13-8q6-4 12.5 0t6.5 11q0 7-6 11l-14 7q-4 3-5.5 6.5t-.5 8.5z"/></svg>