<svg viewBox="0 0 300 302.0011" xmlns="http://www.w3.org/2000/svg"><path d="M263 213h-13v-12q0-5-3.5-9t-9-3.5q-5.5.5-9 4T225 201v12h-62q-16 1-27 11.5T125 251v6q0 8-5.5 13.5T106 276q-8 0-13-5.5T88 257V45q0-10-5-19h30q5 0 8.5-3.5t3.5-9q0-5.5-3.5-9T112 1H44Q26 1 13 14T0 45v6q0 16 11 26.5T38 88h25v169q-1 18 12 31t31 13h150q18 0 31-13t13-31v-6q0-16-11-27t-27-11h1zM63 63H38q-6 0-9.5-3.5T25 51v-6q0-8 5.5-13.5T44 26q8 0 13.5 5.5T63 45v18zm212 194q0 8-5.5 13.5T256 276H146q4-9 4-19v-6q0-5 3.5-8.5t9.5-3.5h100q5-1 8.5 3t3.5 9v6zm-62-81q23 0 43-12t32-32q12-20 12-43.5T288 45q-12-20-32-32T212.5 1Q189 1 169 13t-32 32q-12 20-12 43.5t12 43.5q12 20 32 32t43 12h1zm0-150q16 0 30.5 8.5t23 23q8.5 14.5 8.5 31t-8.5 31q-8.5 14.5-23 23t-31 8.5q-16.5 0-31-8.5t-23-23q-8.5-14.5-8.5-31t8.5-31q8.5-14.5 23-23T213 26zm-44 60q4-4 9-4t9 4l14 14q1 1 3 1t3-1l28-27q4-4 9-3.5t8.5 4Q256 77 256 82t-4 9l-27 27q-9 8-21 8t-21-8l-14-14q-4-4-4-9t4-9z"/></svg>