<svg viewBox="0 0 300 302.0011" xmlns="http://www.w3.org/2000/svg"><path d="M291 51l-17-8q-5-26-26-37-18-9-37.5-2.5T182 28l-13 23q-14-6-30-15-9-5-24-14l-7-5q-5-3-11-3.5T86 16q-5 3-8 8t-3 12v2L59 20q-4-5-10-6t-12 1q-6 2-9 7t-3 12q2 40 12 78 15 56 46 91l-60 3q-11 1-17.5 9.5T0 234q3 18 16 36 14 19 35 28 7 3 14.5 3t14.5-4l50-26q10-5 20-1.5t17 4.5q11 2 24 2 23 0 42-11.5t30.5-30.5q11.5-19 11.5-42V84l16-7q4-2 6.5-5.5T300 64q0-4-2.5-7.5T291 51zm-191-9q34 22 57 31l-8 15q-21-4-45-22-3-10-4-24zm91 209q-11 0-19-2-6-1-14.5-4t-19-2q-10.5 1-19.5 6l-50 26q-4 2-8 0-14-6-24-19t-12-25l88-4q3-1 6-3t5-5.5q2-3.5 1-8t-5-7.5q-34-25-52-76-13-35-17-78 24 27 44 41 31 22 61 23 3 1 6.5-1t4.5-5l37-67q4-9 14-12.5t19 1.5q13 6 13 27v136q0 16-8 29.5T220.5 243q-13.5 8-29.5 8z"/></svg>