<svg viewBox="0 0 300.0021 302.0011" xmlns="http://www.w3.org/2000/svg"><path d="M63 51q-1-5 3-9t9-4h25V13q0-5 3.5-8.5t9-3.5q5.5 0 9 3.5T125 14v24h25q5 0 9 4t4 9q0 5-4 9t-9 3h-25v25q0 6-3.5 9.5t-9 3.5q-5.5 0-9-3.5T100 88V63H75q-5 1-9-3t-3-9zm227 113l-85 95q-17 20-41.5 31T112 301H50q-21 0-35.5-14.5T0 251v-63q0-20 14.5-35T50 138h111q10 0 19 5.5t14 13.5l41-44q10-11 25.5-12t27 9.5q11.5 10.5 12.5 26T290 164zm-19-35q-4-3-9-3t-9 4l-55 61q-4 10-12.5 17t-19.5 9l-64 9q-5 1-9.5-2.5t-5-8.5q-.5-5 2.5-9t8-5l65-9q5-1 8.5-5t3.5-9.5q0-5.5-4-9.5t-10-4H50q-10 0-17.5 7T25 189v62q0 10 7.5 17.5T50 276h62q21 0 41-8.5t34-24.5l85-96q3-4 3-9t-4-9z"/></svg>