<svg viewBox="0 0 300 302.0011" xmlns="http://www.w3.org/2000/svg"><path d="M238 26H63q-17 0-31.5 8.5t-23 23Q0 72 0 88v125q0 17 8.5 31.5t23 23Q46 276 63 276h175q16 0 30.5-8.5t23-23Q300 230 300 213V88q0-16-8.5-30.5t-23-23Q254 26 238 26zM63 51h175q15 0 26 11t11 26H25q0-15 11-26t27-11zm175 200H63q-16 0-27-11t-11-27V113h250v100q0 16-11 27t-26 11zM125 151q0 5-3.5 8.5T113 163h-13v50q0 6-3.5 9.5t-9 3.5q-5.5 0-9-3.5T75 213v-50H63q-6 0-9.5-3.5T50 151q0-5 3.5-9t9.5-4h50q5 0 8.5 4t3.5 9zm125 0q0 5-3.5 8.5T238 163h-75q-6 0-9.5-3.5T150 151q0-5 3.5-9t9.5-4h75q5 0 8.5 4t3.5 9zm0 50q0 5-3.5 8.5T238 213h-75q-6 0-9.5-3.5T150 201q0-5 3.5-9t9.5-4h75q5 0 8.5 4t3.5 9z"/></svg>