<svg viewBox="0 0 300 302.0011" xmlns="http://www.w3.org/2000/svg"><path d="M287 138q-4-42-31-75 4-4 4-9t-4-9q-4-4-9-4t-9 4q-33-27-76-31v-1q0-5-3.5-8.5T150 1q-5 0-9 3.5t-4 9.5q-42 4-75 31-4-4-9-4t-9 4q-4 4-4 9t4 9q-27 33-31 76h-1q-5 0-8.5 3.5T0 151q0 5 3.5 9t8.5 4h1q4 42 31 75-4 4-4 9t4 9q4 4 9 4t9-4q33 27 75 31 0 6 4 9.5t9 3.5q5 0 8.5-3.5t3.5-9.5q43-4 76-31 4 4 9 4t9-4q4-4 4-9t-4-9q27-33 31-76 6 0 9.5-3.5t3.5-8.5q0-5-3.5-9t-9.5-4zm-25 0h-51q-2-11-9-21l36-36q20 25 24 57zm-112 50q-16 0-26.5-11T113 150.5q0-15.5 10.5-26.5t26.5-11q16 0 26.5 11t11 26.5Q188 166 177 177t-27 11zm70-125l-36 36q-10-7-22-9V39q33 4 58 24zm-83-24v51q-11 2-21 9L80 63q25-20 57-24zM62 81l36 36q-7 10-9 22H38q4-33 24-58zm-24 83l51-1q2 12 9 22l-36 36q-20-25-24-57zm42 75l36-36q10 7 21 9v51q-32-4-57-24zm83 24v-51q11-2 21-9l36 36q-25 20-57 24zm75-42l-36-36q7-10 9-22h51q-4 33-24 58z"/></svg>