<svg viewBox="0 0 300 302.0011" xmlns="http://www.w3.org/2000/svg"><path d="M298 251q-4 12-23 23-13 8-30 14-4 1-7.5-.5T232 283q-10-16-15-31-7-21-3-34 3-9 11.5-14t18-1q9.5 4 13 13t-.5 18q3-9 11.5-14t18-1q9.5 4 13 13t-.5 19zm-111 20q-27 8-54.5 4T82 256q-23-15-38-38.5t-18-51q-3-27.5 5.5-54t27.5-47Q78 45 103.5 35t53-8.5Q184 28 209 41t41.5 35q16.5 22 22 49t-.5 55q-2 5 1 9.5t8 5.5q5 1 9.5-2t5.5-8q10-42-4-83t-48-68Q210 7 167 2T85 15.5Q46 34 23 71T0 151q0 36 16 67.5T61 271q29 21 64 27.5t69-4.5q5-1 7.5-5.5t1-9.5q-1.5-5-6-7.5t-9.5-.5zm38-145q0-10-7.5-17.5T200 101q-10 0-17.5 7.5T175 125q0 9 7 12 5 1 18 1t18-1q7-3 7-11zm-87 0q0-5-4-9t-9-4H88q-6 1-9.5 4.5T75 126q0 5 3.5 9t9.5 4h37q5-1 9-4.5t4-8.5zm50 56q0-13-9.5-22t-22.5-9h-21q-6 0-9.5 3.5t-3.5 9q0 5.5 3.5 9t9.5 3.5h21q3 0 5 2t2 4.5q0 2.5-2 4.5t-5 2h-6q-5-1-9 3t-3.5 9q.5 5 4 8.5t8.5 3.5h6q3 1 5 2.5t2 4q0 2.5-2 4.5t-5 2h-21q-6 0-9.5 3.5t-3.5 9q0 5.5 3.5 9t9.5 3.5h21q9 0 16.5-4.5T184 234q4-8 3-17t-6-16q6-8 6-19h1z"/></svg>