<svg viewBox="0 0 300 302.0011" xmlns="http://www.w3.org/2000/svg"><path d="M63 276q-1 10 6.5 17.5t18 7.5q10.5 0 17.5-7.5t7.5-17.5q.5-10-7-17.5t-18-7.5Q77 251 70 258.5T63 276zm125 0q-1 10 6.5 17.5t18 7.5q10.5 0 17.5-7.5t7.5-17.5q.5-10-7-17.5t-18-7.5q-10.5 0-17.5 7.5t-7 17.5zM288 38h-25V13q0-5-4-8.5T250 1q-5 0-8.5 3.5T237 13v25h-24q-6 0-9.5 4t-3.5 9q0 5 3.5 9t8.5 4h26v24q-1 6 3 9.5t9 3.5q5 0 9-3.5t4-8.5V63h25q5 0 8.5-3.5T300 51q0-5-3.5-9t-8.5-4zm-16 85q-5-1-9 2t-5 8q-3 13-13.5 21.5T221 163H68L56 63h107q5 1 8.5-3t3.5-9q0-5-3.5-9t-8.5-4H53v-4q-2-14-12.5-23.5T15 1h-2Q7 1 3.5 4.5t-3.5 9q0 5.5 3.5 9T12 26h3q5 0 8.5 3t4.5 8l17 146q3 24 20.5 40t41.5 16h131q5-1 8.5-4.5t3.5-8.5q0-5-3.5-8.5T238 214H107q-12 0-21.5-7T72 189h149q22 0 39.5-15t21.5-37q1-5-2-9.5t-8-4.5z"/></svg>