<svg viewBox="0 0 300.0244 302.0011" xmlns="http://www.w3.org/2000/svg"><path d="M213.024 132q-1 8-6 13.5t-13 5.5q-8 0-13.5-5.5t-5.5-13.5q0-8 5.5-13.5t13.5-5q8 .5 13.5 5.5t5.5 13zm-107-19q-8 1-13.5 6t-5 13q.5 8 5.5 13.5t13 5.5q8 0 13.5-5.5t5.5-13.5q0-8-5.5-13.5t-13.5-5.5zm192-96q-5 19-20 32t-35 14l29 77q6 18-1 36t-24 26l-24 8-11 52q-3 17-17 28t-32 11h-26q-18 0-32-11t-17-28l-11-52-24-8q-17-8-24-26t-1-35l29-78q-20-1-36-14t-21-32q-1-5 1.5-9.5t7.5-6q5-1.5 9.5 1t6.5 7.5q3 13 13 21t23 8l177-1q12 0 22.5-7.5t13.5-20.5q1-5 5.5-7.5t9.5-1q5 1.5 7.5 6t1.5 9.5zm-49 132l-33-86h-132l-33 86q-3 9 .5 17.5t11.5 12.5l22 8q6 2 10.5 7t5.5 11l11 51q2 9 9 14.5t16 5.5h26q9 0 16-5.5t9-14.5l11-51q1-6 5.5-11t10.5-7l22-8q8-4 11.5-12.5t.5-17.5z"/></svg>