<svg viewBox="0 0 300 302.0011" xmlns="http://www.w3.org/2000/svg"><path d="M236 177q26-3 44-20 11-12 16-27.5t3.5-33q-1.5-17.5-10-34T268 33q-18-18-41.5-26T181 2.5Q159 6 144 21q-17 18-20 44 0 8-5 16t-14 14q-18 13-25.5 34T77 172q3 12 11 23L4 280q-4 3-4 8.5t3.5 9q3.5 3.5 9 3.5t8.5-4l85-84q11 8 23 11 9 2 18 2 18 0 33.5-8t25.5-22q6-9 14-14t16-5zm-50 4q-9 12-22.5 17t-28.5 1q-12-3-21-12t-12-21q-4-15 1-28.5t17.5-22.5q12.5-9 20-21.5T149 67q2-17 13-28 13-13 33-13 14 0 28.5 6.5T250 51q22 21 24.5 47T262 139q-11 11-28 13-14 1-26.5 8.5T186 181zm70 32q-18 0-30.5 13T213 257q0 18 12.5 31t30.5 13q18 0 31-13t13-31q0-18-13-31t-31-13zm0 63q-8 0-13-5.5t-5-13.5q0-8 5-13.5t13-5q8 .5 13.5 5.5t5.5 13q0 8-5.5 13.5T256 276z"/></svg>