<svg viewBox="0 0 300 302.0011" xmlns="http://www.w3.org/2000/svg"><path d="M150 1q-40 0-74.5 20.5t-55 55Q0 111 0 151.5t20.5 75Q41 261 75.5 281t75 20q40.5 0 75-20t54.5-54.5q20-34.5 20-75t-20-75q-20-34.5-54.5-55T150 1zm0 275q-33 0-62-16.5T42 214q-17-29-17-63t17-62.5Q59 60 88 43t62.5-17Q184 26 213 43t45.5 45.5Q275 117 275 151t-16.5 63Q242 243 213 259.5T150 276zm60-176l-43 51 43 52q3 4 2.5 9t-4 8q-3.5 3-8.5 3t-9-4l-41-48-40 48q-4 4-9 4t-9-3q-4-3-4-8t3-9l43-52-43-51q-3-4-3-9t4-8.5q4-3.5 9.5-3T110 84l40 48 41-48q3-4 8.5-4.5t9 3q3.5 3.5 4 8.5t-2.5 9z"/></svg>