<svg viewBox="0 0 300 302.0011" xmlns="http://www.w3.org/2000/svg"><path d="M288 226h-19q-3 0-5-2t-2-4V57q1-5-3-8.5t-9-3.5q-5 0-8.5 3.5T238 57v106h-39L177 51q-5-22-22-36T115 1H63Q46 1 31.5 9.5t-23 23Q0 47 0 64v193q0 18 13 31t31 13q18 0 31-13t13-31v-6h37v6q0 18 13 31t31 13q18 0 31-13t13-31l-1-27-8-42h33v32q0 13 9.5 22t22.5 9h18q6 0 9.5-3.5t3.5-9q0-5.5-3.5-9T287 226h1zM63 26h52q14 0 24 8.5T152 56l22 107h-41q-5 0-9-2.5t-5-7.5q-3-12-13-19.5T83 126H25V63q0-15 11-26t27-11zm0 231q0 8-5.5 13.5T44 276q-8 0-13.5-5.5T25 257v-6h38v6zm106 19q-8 0-13.5-5.5T150 257v-6h38v6q0 8-5.5 13.5T169 276zm17-50H25v-75h58q4 0 7.5 2.5T95 160q4 13 14 21t24 8h46l7 37z"/></svg>