<svg viewBox="0 0 300 302.0011" xmlns="http://www.w3.org/2000/svg"><path d="M238 38H63q-17 0-31.5 8.5t-23 23Q0 84 0 101v50q0 17 8.5 31.5t23 22.5q14.5 8 31.5 8h175q16 0 30.5-8t23-22.5Q300 168 300 151v-50q0-17-8.5-31.5t-23-23Q254 38 238 39v-1zm37 113q0 16-11 27t-27 10H63q-16 0-27-10.5T25 151v-50q0-16 11-26.5T63 64h175q15 0 26 10.5t11 26.5v50zM88 101q0 5-4 8.5t-9 3.5H63q-6 0-9.5-3.5T50 101q0-5 3.5-8.5T62 89h13q5-1 9 3t4 9zm25 0q0-5 3.5-9t8.5-3h13q5-1 8.5 3t3.5 9q0 5-3.5 8.5T137 113h-12q-5 0-8.5-3.5T113 101zm137 0q0 5-3.5 8.5T237 113h-49q-6 0-9.5-3.5T175 101q0-5 3.5-8.5T188 89h50q5-1 8.5 3t3.5 9zm-50 50q0 5-3.5 8.5T187 163h-74q-6 0-9.5-3.5T100 151q0-5 3.5-8.5t8.5-3.5h76q5-1 8.5 3t3.5 9zm0 93q4 3 4 8.5t-4 8.5l-32 33q-8 7-18 7t-18-7l-34-34q-3-4-3-9t3.5-9q3.5-4 8.5-4t9 4l34 34 32-32q4-4 9-4t9 4zm50-93q0 5-3.5 8.5t-9 3.5q-5.5 0-9-3.5T225 151q0-5 3.5-8.5t9-4q5.5-.5 9 3.5t3.5 9zm-175 0q0 5-3.5 8.5t-9 3.5q-5.5 0-9-3.5T50 151q0-5 3.5-8.5t9-4q5.5-.5 9 3.5t3.5 9z"/></svg>