<svg viewBox="0 0 300 302.0011" xmlns="http://www.w3.org/2000/svg"><path d="M250 1H50Q29 1 14.5 15.5T0 51v150q0 21 14.5 35.5T50 251h37l46 39q8 7 17 7t16-6l48-40h36q21 0 35.5-14.5T300 201V51q0-21-14.5-35.5T250 1zm25 200q0 10-7.5 17.5T250 226h-40q-5 0-8 3l-52 43-51-43q-3-3-8-3H50q-10 0-17.5-7.5T25 201V51q0-10 7.5-17.5T50 26h200q10 0 17.5 7.5T275 51v150zm-106 6q0 8-5.5 13.5T150 226q-8 0-13.5-5.5T131 207q0-8 5.5-13.5t13.5-5q8 .5 13.5 5.5t5.5 13zm29-119q5 18-3 34.5T171 146q-3 2-6 6t-3 9v2q0 6-3.5 9.5T150 176q-5 0-9-3.5t-4-9.5v-2q0-12 7-22.5t15.5-14.5q8.5-4 13-12t1.5-18q-1-6-6-11t-11-6q-13-3-22.5 4.5T125 101q0 5-3.5 9t-9 4q-5.5 0-9-4t-3.5-9q0-12 5-22t14.5-17.5q9.5-7.5 21-9.5t23.5 1q12 3 21.5 12.5T198 88z"/></svg>