<svg viewBox="0 0 300.0082 302.0011" xmlns="http://www.w3.org/2000/svg"><path d="M106 138q10 0 16.5-5t11.5-15q9-17 7-40-3-21-13.5-33.5T102 32h-1q-1-4-1-8 0-7 2-16 0-4-3-6t-6 0Q74 18 75 37q0 3 1 7l-3 4q-9 15-7 37t14 37.5Q92 138 106 138zM94 61q3-4 7.5-4t9 6.5Q115 70 116 80q1 16-4 27-3 5-6 5t-8-7q-6-9-7.5-22.5T94 61zm101 76q15 0 26.5-15t14-37q2.5-22-6.5-37-2-3-5-6l1-5q1-19-18-35-3-2-6 0t-3 6q2 9 2 16 0 4-1 8-15 0-25.5 13T161 78q-2 23 7.5 41t26.5 18zm-9-57q1-10 5-16.5t9-6.5q5 0 7 4 5 8 3.5 21.5T203 105q-4 7-7 7t-6-6q-6-10-4-26zM62 183q8-16 6-37-2-18-12.5-29.5T31 105q-5-9-5.5-17.5T27 70q0-4-3-6t-6 1Q-1 81 0 99q1 12 7 21v-1 1q-9 13-7 33t13 34q11 14 25.5 14T62 183zm-22-11q-1 1-2 2.5l-1 1.5q-2-1-6.5-7.5t-5.5-18Q24 139 28 133q2-3 4-3h1q3 0 6 5t4 14q2 14-3 23zm-9-67zm251-40q-3-3-6-1t-3 6q2 9 2 17 0 9-6 18-15-1-25 10.5t-12 32q-2 20.5 6 35.5 5 9 10.5 13.5T263 201q13 0 24-13.5t13-33.5q2-20-6-33 2-5 4-11.5t2-10.5q1-18-18-34zm-7 86q-1 10-6 18-3 6-5 6t-4-3q-5-9-3-23 1-8 4-13.5t6-5.5h1q2 0 4 3 4 6 3 18zm-125 12q-26 0-49 13.5t-37 35Q50 233 50 257q0 20 10.5 32T90 301q9 0 27-6 10-3 16-4 9-3 17-3t17 3q6 1 16 4 18 6 27 6 19 0 29.5-12t10.5-32q0-24-14-45.5t-37-35Q176 163 150 163zm60 113q-5 0-19-5-12-3-19-5-11-3-22-3t-22 3q-7 2-19 5-14 5-20 5t-10-4q-4-4-4-15 0-17 11-33t28-26q17-10 36-10t36 10q17 10 28 26t11 33q0 11-4 15t-11 4z"/></svg>