<svg viewBox="0 0 300 302.0011" xmlns="http://www.w3.org/2000/svg"><path d="M81 238q0 8-5.5 13.5t-13 5.5q-7.5 0-13-5.5t-5.5-13q0-7.5 5.5-13t13-5.5q7.5 0 13 5.5T81 239v-1zM300 88q0 12-6.5 19t-17.5 7h-58l16 16q4 3 4 8.5t-4 9q-4 3.5-9 3.5t-9-4l-22-22-17 17 32 31q3 4 3.5 9t-3.5 9q-4 4-9 4t-9-4l-32-31-16 16 41 41q4 4 4 9t-4 9q-4 4-9 4t-9-4l-41-41-9 9q16 19 25 42 6 15-.5 28.5T119 291q-28 8-68 10h-3q-20 0-34-14-7-7-11-16.5T0 250q2-40 10-68 4-15 17.5-21.5T56 160q23 9 42 25l9-9-41-41q-4-4-4-9t4-9q4-4 9-4t9 4l41 41 16-16-32-31q-4-4-4-9t3.5-8.5q3.5-3.5 9-4T127 93l32 32 17-18-22-22q-4-4-4-9t3.5-9q3.5-4 9-4t8.5 4l17 16V25q0-11 6.5-17.5T212 1q16 0 29 9 16 11 20 30 19 4 30 20 9 13 9 28zM118 255q-10-25-28.5-43.5T46 183q-3-2-6.5 0t-5.5 6q-7 26-9 63-1 10 6.5 17.5T49 276q38-2 63-9 4-2 6-5.5t0-6.5zM275 88q0-5-4-12-6-13-21-13-5 0-9-3.5t-4-8.5q0-15-12-21-6-4-12-4v62h62z"/></svg>