<svg viewBox="0 0 300 302.0011" xmlns="http://www.w3.org/2000/svg"><path d="M300 176q0-17-13-28v-22q0-34-16.5-62.5T225 18Q196 1 162 1h-24q-34 0-63 17T29.5 63.5Q13 92 12 126v23Q0 161 0 177.5T13 206v7q0 24 11.5 44T56 289q20 12 44 12h100q24 0 44-12t31.5-32q11.5-20 11.5-44v-9q13-11 13-28zM35 190q-5-1-7.5-5t-2-9q.5-5 4.5-8.5t9-3.5h224q5 0 8.5 3.5t3.5 8.5q0 5-3.5 9t-8.5 4h-50q-36 0-80 31-9 6-20.5 6T92 220l-8-7q-21-18-49-23zm3-64q0-27 13-50t36-36.5Q110 26 138 26h25q27 0 50 13.5T249 76q13 23 14 50v13H38v-13zm162 150H100q-25 0-43-17.5T38 217q17 4 30 16l10 7q15 11 34.5 11t34.5-11q29-23 66-26h50q-1 17-9 31t-22.5 22.5Q217 276 200 276zM113 63q0-5 3.5-8.5T125 51q5 0 9 3.5t4 9q0 5.5-4 9t-9 3.5q-5 0-8.5-3.5T113 64v-1zm-38 38q0-5 3.5-9t9-4q5.5 0 9 4t3.5 9q0 5-3.5 8.5t-9 4q-5.5.5-9-3.5t-3.5-9z"/></svg>