<svg viewBox="0 0 300 302.0011" xmlns="http://www.w3.org/2000/svg"><path d="M196 135l-53 53h45q5 1 8.5 4.5t3.5 8.5q0 5-3.5 8.5T188 213h-75q-4 0-7.5-2t-5-5.5q-1.5-3.5-.5-7t4-6.5l53-54h-44q-6 0-9.5-3.5T100 126q0-5 3.5-8.5t8.5-3.5h76q3-1 6.5 1.5t5 6q1.5 3.5.5 7t-4 6.5zm92 28q0 26-9 49t-25 41q9 5 15 13.5t6 21.5q0 6-3.5 9.5t-9 3.5q-5.5 0-9-3.5T250 288q0-8-6-12-3-2-8-3h-2q-18 13-39.5 20.5T150 301q-23 0-44.5-7.5T66 273h-2q-5 1-8 3-6 4-6 13 0 5-3.5 8.5t-9 3.5q-5.5 0-9-3.5T25 289q0-14 6-22.5T46 253q-16-18-24.5-41T13 164q0-36 16.5-66t45-49Q103 30 138 27V13q0-5 3.5-8.5T150 1q5 0 8.5 3.5T162 14v13q35 3 63.5 22t45 49q16.5 30 16.5 66l1-1zM150 276q31 0 56.5-15t41-41q15.5-26 15.5-56.5T247.5 107q-15.5-26-41-41T150 51q-31 0-56.5 15t-41 41q-15.5 26-15 56.5T53 220q15 26 40.5 41t56.5 15zM240 1q-5 0-8.5 3.5t-3.5 9q0 5.5 3.5 9T240 26q16 0 25.5 9.5T275 57q0 5 3.5 9t9 4q5.5 0 9-4t3.5-9q0-23-17.5-39.5T240 1zM25 57q0-12 9.5-21.5T60 26q5 0 8.5-3.5t3.5-9q0-5.5-3.5-9T60 1Q35 1 17.5 17.5T0 57q0 5 3.5 9t9 4q5.5 0 9-4t3.5-9z"/></svg>