<svg viewBox="0 0 300 302.0011" xmlns="http://www.w3.org/2000/svg"><path d="M298 126q-3-4-8-5.5t-9 1.5l-152 92q-54 0-69.5 9T39 248q-5 16 3.5 31.5T67 299q6 2 12 2 11 0 20.5-5t23.5-28q10-14 20-33l151-92q4-2 5.5-7t-1.5-10zM87 274q-6 3-12.5 1t-10-7.5Q61 262 63 255t8.5-10.5Q78 241 112 239q-8 14-15 23.5T87 274zm9-74q21-4 38-19t24-36q8-24 1-49-6-20-23-40-9-12-29-32l-4-4q-9-9-21-6.5T65 27q-3 10-7 28-3 15-5 18-2-3-3.5-8.5t-5.5-9Q40 52 34.5 51T24 52.5Q19 55 17 60 9 71 4.5 89T0 120q0 18 7.5 34T29 182q23 19 52 19 8 0 15-1zm-51-37q-9-8-14.5-19.5t-5.5-25Q25 105 31 87q8 14 19 14 16 0 24-14 4-8 8-27 3-14 5-20l2 2q18 17 26 27 14 17 19 32 6 19 1 36-5 15-17 25t-25.5 12.5Q79 177 67 174t-22-11zm18 4q-7-7-6-17.5t8-17.5l9-9q3-3 7.5-3t7.5 3l9 9q7 7 8 17.5t-6 18.5q-7 8-18.5 8T63 167z"/></svg>