<svg viewBox="0 0 300 302.0011" xmlns="http://www.w3.org/2000/svg"><path d="M232 28L154 2q-4-2-8 0L68 28q-19 6-31 22.5T25 87v65q0 37 24 71 18 26 49 49 20 14 41 25l5 3q3 1 5.5 1t5.5-1l5-2q22-9 42-22 31-21 49-48 24-34 24-76V87q0-20-12-36.5T232 28zm18 124q0 35-21 64-15 22-42 40-18 11-36 19-34-17-60-41-41-39-41-82V87q0-12 7-22t19-14l74-24 74 24q12 4 19 14t7 22v65zm-45-51h1q8 0 13.5-5.5T225 82q0-8-5.5-13.5T206 63q-8 0-13.5 5.5T187 82l1 1-8 8q-8-5-17-7v-8q0-5-4-8.5t-9-4q-5-.5-8.5 3.5t-3.5 9v8q-10 2-18 7l-8-8v-1q0-8-5-13.5T94 63q-8 0-13.5 5.5T75 82q0 8 5.5 13.5T94 101h1l7 8q-5 8-7 17h-7q-6 0-9.5 3.5t-3.5 9q0 5.5 3.5 9T87 151h8q2 9 7 17l-7 8h-1q-8 0-13.5 5.5T75 195q0 8 5.5 13.5t13.5 5q8-.5 13.5-5.5t5.5-13l-1-1 8-8q8 5 18 7v8q0 5 3.5 9t8.5 3.5q5-.5 8.5-4t3.5-8.5v-8q10-2 18-7l8 8-1 1q0 8 5.5 13.5t13.5 5q8-.5 13.5-5.5t5.5-13q0-8-5.5-13.5T206 176h-1l-7-8q5-8 7-17h8q5 0 8.5-3.5t3.5-9q0-5.5-3.5-9T212 126h-7q-2-9-7-17l7-8zm-55 69q-13 0-22-9.5t-9-22q0-12.5 9-22t22-9.5q13 0 22 9.5t9 22q0 12.5-9 22t-22 9.5z"/></svg>