<svg viewBox="0 0 300 302.0011" xmlns="http://www.w3.org/2000/svg"><path d="M200 226q0 5-3.5 8.5T188 238h-75q-6 1-9.5-3t-3.5-9q0-5 3.5-9t9.5-4h75q5 1 8.5 4.5t3.5 8.5zm16-71q-3 4-7.5 6.5T200 164q-8-1-15-9-3-3-8.5-3.5T167 154q-4 3-4.5 8.5t3.5 9.5q14 16 33 16h1q9 0 18.5-4t16.5-12q3-4 2.5-9.5t-4-8.5q-3.5-3-9-3t-8.5 4zm-82-1q-4-3-9.5-3t-8.5 4q-7 8-16 9-8-1-15-9-3-3-8.5-3.5T67 154q-4 3-4.5 8.5T66 172q14 16 33 16h1q9 0 18.5-4t16.5-12q3-4 2.5-9.5T134 154zm166-3q0 41-20 75.5T225.5 281Q191 301 150 301t-75.5-20Q40 261 20 226.5T0 151q0-41 20-75.5T74.5 21Q109 1 150 1t75.5 20Q260 41 280 75.5t20 75.5zm-25 0q0-34-17-62.5T212.5 43Q184 26 150 26T87.5 43Q59 60 42 88.5T25 151q0 34 17 62.5T87.5 259q28.5 17 62.5 17t62.5-17q28.5-17 45.5-45.5t17-62.5zm-53-38q1 1 3 0 4 0 7.5-2t4.5-7q1-5-1.5-9.5T228 89q-9-3-17.5-8.5T198 69q-3-4-8.5-5t-9.5 2q-4 3-5 8t2 9q7 10 19 18t26 12zm-147 0h3q14-4 26-12t19-18q3-4 2-9t-5-8q-4-3-9.5-2t-8.5 5q-4 6-12.5 11.5T72 89q-5 1-7.5 5.5t-1.5 9q1 4.5 4.5 7T75 113z"/></svg>