<svg viewBox="0 0 300 302.0011" xmlns="http://www.w3.org/2000/svg"><path d="M188 238q-1 6-4.5 9.5T175 251H63q-17 0-31.5-8.5t-23-23Q0 205 0 189v-76q0-16 8-30 2-4 7-5.5t9.5 1q4.5 2.5 6 7.5t-.5 9q-5 9-5 18v75q0 16 11 27t27 11h112q5 0 9 3.5t4 8.5zm45-26q-1 1-2 3l65 65q4 3 4 8.5t-3.5 9q-3.5 3.5-9 3.5t-8.5-4L4 22q-4-3-4-8.5t3.5-9Q7 1 12.5 1T21 5l47 46h107q24 0 42 16.5t20 40.5l23-23q6-4 13-4.5t13.5 2.5q6.5 3 10 9t3.5 13v91q0 7-3.5 13t-9.5 9q-6 3-12 3-8 0-15-5l-23-23q-1 11-4 19zm5-54l37 38v-90l-37 37v15zm-25-45q-1-15-11.5-26T175 76H93l119 119 1-6v-76z"/></svg>