<svg viewBox="0 0 300 302.0011" xmlns="http://www.w3.org/2000/svg"><path d="M275 126v112q0 17-8.5 31.5t-23 23Q229 301 212 301H88q-26 0-44.5-18.5T25 238V126q0-17 8.5-31.5t23-23Q71 63 88 63h12q5 0 9 4t4 9q0 5-4 8.5t-9 3.5H88q-16 0-27 11.5T50 126v112q0 16 11 27t27 11h124q16 0 27-11t11-27V126q0-16-11-26.5T212 89h-12q-5 0-8.5-4t-3.5-9q0-5 3.5-8.5T200 64h13q25 0 43.5 18t18.5 44zM96 154q-4-3-9-3t-8.5 4q-3.5 4-3.5 9t4 8l45 43q11 11 26.5 11t26.5-11l44-42q4-4 4-9t-3.5-9q-3.5-4-8.5-4t-9 4l-41 39V13q0-5-3.5-8.5t-9-3.5q-5.5 0-9 3.5T138 13v181l-41-40h-1z"/></svg>