<svg viewBox="0 0 300 302.0011" xmlns="http://www.w3.org/2000/svg"><path d="M238 226h-4q-24-61-33-125h12q5 0 8.5-3.5t3.5-9q0-5.5-3.5-9T213 76h-6l16-28q3-7 1-15t-8-13.5q-6-5.5-14-6T187 18l-8 4-11-14q-8-7-18-7t-18 7l-11 14-8-4q-7-5-15-4.5t-14 6q-6 5.5-8 13T77 48l16 28h-5q-6 0-9.5 3.5t-3.5 9q0 5.5 3.5 9T88 101h11q-9 64-33 125h-3q-16 0-27 11t-11 26.5Q25 279 36 290t26 11h176q15 0 26-11t11-26.5q0-15.5-11-26.5t-27-11h1zM119 50q4 2 8.5 1t7.5-5l15-20 15 20q3 4 7.5 5t8.5-2l18-9-21 36h-56l-21-36 18 10zm5 51h52q8 64 31 125H93q23-61 31-125zm114 175H63q-6 0-9.5-3.5t-3.5-9q0-5.5 3.5-9T63 251h175q5 0 8.5 3.5t3.5 9q0 5.5-3.5 9T238 276z"/></svg>