<svg viewBox="0 0 300 302.0011" xmlns="http://www.w3.org/2000/svg"><path d="M288 235h-24V79q0-20-9.5-36.5t-26-26Q212 7 192 7H72q-20 0-36.5 9.5t-26 26Q0 59 0 79v120q0 22 14 38.5T49 258q5 19 22 29.5t37 5.5q12-3 21.5-12t12.5-22h146q5 0 8.5-3.5t3.5-8.5q0-5-3.5-8.5T288 235zM24 103h54q2 0 4 2t2 4v12q0 2-2 4t-4 2H24v-24zm72 168q-10 0-17-7t-7-17q0-10 7-17t17-7q10 0 17 7t7 17q0 10-7 17t-17 7zm96-36h-36V109q0-2 2-4t4-2h24q2 0 4 2t2 4v126zm48 0h-24V109q0-12-9-21t-21-9h-24q-12 0-21 9t-9 21v106q-13-15-33.5-15.5T64 212q-10 9-14 22-12-4-19-13.5T24 199v-48h54q12 0 21-9t9-21v-12q0-12-9-21t-21-9H24q0-20 14-34t34-14h120q20 0 34 14t14 34v156z"/></svg>