<svg viewBox="0 0 300.5 302.0011" xmlns="http://www.w3.org/2000/svg"><path d="M150 163h-12v-12q0-5-4-9t-9-4q-5 0-9 4t-4 9v12h-12q-5 0-9 4t-3.5 9q.5 5 4 8.5t8.5 3.5h13v13q-1 5 3 8.5t9 4q5 .5 9-3.5t4-9v-13h12q5 1 9-3t4-9q0-5-4-9t-9-3v-1zM289 20l-8-8Q271 2 257.5 1T233 7l-96 69-26 26q-23 5-39 21t-21 39l-36 36Q0 213 0 234t15 35l18 18q14 14 35 14t35-14l38-38q21-4 37-20t20-37l29-29 67-95q8-11 6.5-24.5T289 20zM86 269q-7 7-17.5 7T50 269l-17-18q-8-7-8-17.5t8-17.5l20-20q5 19 19.5 33.5T106 249l-20 20zm39-43q-21 0-35.5-14.5T75 176q0-21 14.5-35.5T125 126q21 0 35.5 14.5T175 176q0 21-14.5 35.5T125 226zM274 53l-67 94-9 10q-5-19-19.5-33.5T145 104l9-10 93-66q4-3 8.5-2.5T263 29l9 9q3 3 3.5 7.5T274 53z"/></svg>