<svg viewBox="0 0 300 302.0011" xmlns="http://www.w3.org/2000/svg"><path d="M188 1q-11 0-18.5 7.5T162 26v87H68L53 95q-5-7-17.5-13.5t-23-5.5Q2 77 0 88q0 6 3.5 9.5T12 101q13 0 22 10l16 20v7q0 17 8.5 31.5t23 23Q96 201 112 201h36l-32 39q-11-3-21 1t-15.5 13.5q-5.5 9.5-4 20.5t10 18.5Q94 301 105 301t20-6.5q9-6.5 11.5-17T135 257l40-49 40 49q-4 10-1.5 20.5t11.5 17q9 6.5 20 6.5t19.5-7.5q8.5-7.5 10-18.5t-4-20.5Q265 245 255 241t-21-1l-32-39h36q16 0 30.5-8.5t23-23Q300 155 300 138v-12q0-55-29-87-21-24-54-33-17-5-29-5zm87 112h-87V26q23 0 43 12t31.5 32Q274 90 275 114v-1zm-37 63H113q-16 0-27-11t-11-27h200q0 16-11 27t-27 11h1z"/></svg>