<svg viewBox="0 0 300 302.0011" xmlns="http://www.w3.org/2000/svg"><path d="M238 1h-50q-17 0-31.5 8.5t-23 23Q125 47 125 64v174q0 17 8.5 31.5t23 23Q171 301 188 301h50q16 0 30.5-8.5t23-23Q300 255 300 238V63q0-16-8.5-30.5t-23-23Q254 1 238 1zm37 237q0 16-11 27t-27 11h-49q-16 0-27-11t-11-27V63q0-15 11-26t26-11h51q15 0 26 11t11 27v174zM88 51v212q0 6-4 9.5t-9 3.5q-5 0-8.5-3.5T63 263V51q-1-5 3-9t9-4q5 0 9 4t4 9zM25 88v138q0 5-3.5 8.5t-9 3.5q-5.5 0-9-3.5T0 226V88q0-5 3.5-8.5t9-3.5q5.5 0 9 3.5T25 89v-1z"/></svg>