<svg viewBox="0 0 300 302.0011" xmlns="http://www.w3.org/2000/svg"><path d="M277 24l-13-12Q253 1 237 1t-28 11l-23 31q-11 11-11 26.5T186 96l14 19q-27 61-86 86l-19-14q-11-11-26.5-11T42 187l-31 23Q0 222 0 238t11 26l12 15q11 11 25 16.5t30 5.5q35 0 75-21 38-20 72-54t54-72q21-40 21-73.5T277 24zM78 276q-22 0-36-14l-13-15q-4-4-4-9.5t4-9.5l30-23q4-4 9.5-4t9.5 4l26 20q5 5 12 2 78-29 110-110 3-7-2-12l-20-26q-4-4-4-9.5t4-9.5l23-30q4-4 10-4t10 5l13 11q15 15 15 37 0 31-20 67-19 34-50 64t-65.5 48Q105 276 78 276z"/></svg>