<svg viewBox="0 0 300 302.0011" xmlns="http://www.w3.org/2000/svg"><path d="M63 301q-18-1-35-16-15-13-25-31-4-9-2.5-19.5T8 216q6-8 15.5-12t19.5-3q-12-31-2-66 10-32 35.5-57.5T134 42q35-10 66 2-1-10 3-19.5T215 9q8-6 18.5-7.5T253 4q29 15 43 44 5 9 3.5 19.5T292 86q-6 8-15.5 12t-19.5 3q12 31 2 66-10 32-35.5 57.5T166 260q-35 10-66-2 2 17-9.5 30T63 301zm-25-75q-15 3-13 13t13 21q11 11 20 15 6 3 11.5-1t5.5-11v-11-15q2-7 7.5-10t11.5 1q27 17 59 9 29-6 53-30t30-53q8-32-9-59-4-6-.5-12.5T237 76h25q7 0 11-5.5t1-11.5q-4-9-15-20t-21-13q-10-2-13 13v26q-2 7-7.5 10T206 74q-24-15-56-9.5t-56.5 30Q69 119 63.5 151t9.5 56q4 6 .5 12.5T63 226H38zm145-31q4-4 4-9t-3-9q-3-4-8-4.5t-9 2.5q-12 10-25.5 12.5T120 184q-4-3-9-2t-8.5 5q-3.5 4-2.5 9t5 8q17 12 38.5 9t39.5-18z"/></svg>