<svg viewBox="0 0 300 302.0011" xmlns="http://www.w3.org/2000/svg"><path d="M274 147q-2-35-21-50-12-8-27-8-19-1-32 13-16 15-19 44-11-8-26-8t-27 9q-19 15-21 50-12 3-19 13t-7 21.5q0 11.5 5.5 25T93 279q7 9 19.5 9t19.5-9q7-9 12.5-22.5T150 232q0-11-6.5-21T126 197q1-15 6-23 6-11 18-11t18.5 11.5Q175 186 175 207v81q0 6 3.5 9.5t9 3.5q5.5 0 9-3.5t3.5-9.5V158q0-22 6.5-33.5T225 113q12 0 18 11 5 8 6 23-11 4-17.5 13.5t-6.5 21q0 11.5 5.5 25T243 229q7 9 19.5 9t19.5-9q7-9 12.5-22.5t5.5-25q0-11.5-7-21.5t-19-13zM113 264q-5-6-9-16t-4-15.5q0-5.5 3.5-9t9-3.5q5.5 0 9 3.5t3.5 9q0 5.5-4 15.5t-9 16h1zm150-50q-5-7-9-16.5t-4-15q0-5.5 3-9t9-3.5q6 0 9.5 3.5t3.5 9q0 5.5-4 15t-8 16.5zM67 165q-4-3-7-7l-28 16q-3 2-6 2-7 0-10-5.5T14 160q1-5 6-7l28-17q-2-5-3-10H13q-6 0-9.5-3.5t-3.5-9q0-5.5 3.5-9T13 101h32l2-10-28-16q-4-3-5.5-8t1-9.5Q17 53 22 52t10 1l28 16q3-4 8-8L52 33q-3-4-1.5-9t6-7.5Q61 14 66 15t7 6l16 28 11-3V13q0-5 3.5-8.5t9-3.5q5.5 0 9 3.5T125 13v33q5 1 10 3l16-29q3-4 8-5.5t9.5 1Q173 18 174 23t-1 10l-16 28q4 3 7 7l29-15q4-3 9-1.5t8 6q3 4.5 1.5 9.5t-6.5 7l-28 16q-8 5-16.5 3.5T146 85q-9-10-20.5-13.5T102 71q-12 3-20.5 11.5T70 103q-3 12 .5 23.5T83 146q4 4 4.5 9t-3 9q-3.5 4-9 4t-8.5-3z"/></svg>