<svg viewBox="0 0 300 302.0011" xmlns="http://www.w3.org/2000/svg"><path d="M291 152q-6-8-15-11l9-28q3-9 1.5-18.5t-7.5-17q-6-7.5-14.5-11T246 64l3-19q3-16-6-28.5t-24-15q-15-2.5-28 6T176 32l-1 4q-11-10-25-10t-25 10v-4q-3-15-16-24T81 1.5Q66 4 57 16.5T51 45l3 19q-10-1-18.5 2.5T21 77.5q-6 7.5-7.5 17T15 113l9 28q-12 5-19 16.5T1 183l12 67q4 22 21.5 36.5T74 301h152q22 0 39.5-14.5T287 250l12-67q2-8 0-16.5t-8-14.5zm-37-63q5 2 7 6.5t1 9.5l-12 33h-17l8-46q6-5 13-3zm-39-63q5 1 8 5t2 10l-17 97h-20v-38l12-64q1-5 5-8t10-2zm-77 37q0-5 3.5-8.5T150 51q5 0 9 3.5t4 8.5v75h-25V63zM85 26q6-1 10 2t5 9l13 63v38H93L75 41q-1-6 2-10t8-5zM46 89q7-2 13 3l8 46H50l-12-33q-1-5 1-9.5t7-6.5zm229 89l-12 67q-3 14-13.5 22.5T226 276H74q-13 0-23.5-8.5T37 245l-12-67q-1-5 3-9.5t10-5.5h225q5 1 9 5t3 10z"/></svg>