<svg viewBox="0 0 300 302.0011" xmlns="http://www.w3.org/2000/svg"><path d="M289 6q-2-5-8-5-5 0-6.5 4T270 19q-5 12-7 19-3-7-8-19-3-10-4.5-14T244 1q-6 0-7 5-4 10-8 29t-4 29q0 10 5 18.5T244 96q-5 8-13.5 13t-18.5 5h-12V73q0-16-7.5-33t-19-28Q162 1 150 1t-23.5 11q-11.5 11-19 28T100 73v40H88q-10 0-18.5-4.5T56 96q9-5 14-13.5T75 64q0-10-4-29T64 6q-2-5-7-5t-7 4q-2 4-5 14-5 12-7 19-3-7-8-19-3-10-5-14t-7-4q-5 0-6 5-4 10-8 29T0 64q0 13 8.5 23.5T30 100q7 17 22.5 28T88 139h12v24H89q-25 0-44 19l-10 10q-4 4-4 9t4 9q4 4 9 4t9-4l10-11q11-11 26-10h11v43l-17 18q-8 7-8 17t9 19q11 11 29 15 20 3 37-8 13 8 28 8 11 0 21.5-4t16.5-11q9-9 9-19t-8-17l-17-18v-44h11q15 0 26 11l10 11q4 3 9 3.5t9-3.5q4-4 4-9t-4-9l-10-10q-19-19-44-19h-11v-25h12q20 0 35.5-10.5T270 100q13-2 21.5-12.5T300 63q0-9-4-28t-8-29h1zM125 73q0-11 5-23 4-9 10.5-16.5T150 26q3 0 9.5 7.5t11 18Q175 62 175 74v39h-50V73zm0 65h50v25h-50v-25zm0 50h50v25h-50v-25zm34 80q-4-4-9-4t-9 4q-11 11-25 8-10-3-16-9l29-29h42l29 29q-6 6-16 9-14 3-25-8z"/></svg>