<svg viewBox="0 0 300 302.0011" xmlns="http://www.w3.org/2000/svg"><path d="M276 49q-9-9-23-10t-25 7l-22 14v-3q0-23-16.5-39.5T150 1q-23 0-39.5 16.5T94 57v3L73 46q-12-8-26-7T24 49Q11 62 12.5 79T29 107l59 39v27l-27 26q-8 8-10 18.5t1 20.5l12 37q4 12 14 19t22 7q9 0 18-5 12-6 17-19t0-27l-5-14 20-19 20 19-5 14q-5 14 0 27t17 19q9 5 18 5 12 0 22-7t14-19l12-37q3-10 1-20.5T239 199l-26-26v-27l59-39q14-11 15.5-28T276 49zM150 26q13 0 22 9t9 22q0 13-9 22t-22 9q-13 0-22-9t-9-22q0-13 9-22t22-9zm-43 198q-5 5-3 13l7 21q2 5 .5 9.5t-6 7q-4.5 2.5-10 .5t-7.5-8l-12-37q-3-7 3-13l26-26 23 12-21 21zm114-7q6 6 3 13l-12 37q-2 6-7.5 8t-10-.5q-4.5-2.5-6-7t.5-9.5l7-21q2-8-3-13l-21-21 23-12 26 26zm37-131l-65 42q-5 4-6 11v24h-74v-24q0-7-6-11L43 86q-5-3-5.5-9t3-9.5Q44 64 49 64t10 3l57 37q13 9 29 9h10q16 0 29-9l58-37q4-3 9-3t8 3q4 4 3.5 10t-4.5 9z"/></svg>