<svg viewBox="0 0 300 302.0011" xmlns="http://www.w3.org/2000/svg"><path d="M125 138q5 0 8.5 4t4 9q.5 5-3.5 8.5t-9 3.5q-5 0-8.5-3.5T113 151q0-5 3.5-8.5t8.5-3.5v-1zm-100 0q-5 1-8.5 4.5T13 151q0 5 3.5 8.5T25 163q5 0 9-3.5t4-8.5q0-5-4-9t-9-3v-1zm138 13q0 5 3.5 8.5t8.5 3.5q5 0 8.5-3.5t4-8.5q.5-5-3.5-8.5t-9-4q-5-.5-8.5 3.5t-3.5 9zm-88-13q-5 0-8.5 4t-3.5 9q0 5 3.5 8.5T75 163q5 0 9-3.5t4-8.5q0-5-4-8.5t-9-3.5v-1zm200 0q-5 0-8.5 4t-3.5 9q0 5 3.5 8.5t8.5 3.5q5 0 9-3.5t4-8.5q0-5-4-8.5t-9-3.5v-1zm-50 0q-5 0-8.5 4t-3.5 9q0 5 3.5 8.5t8.5 3.5q5 0 8.5-3.5t3.5-8.5q0-5-3.5-8.5T225 139v-1zM109 67l29-29v63q0 5 3.5 8.5t8.5 4q5 .5 9-3.5t4-9V38l28 29q4 4 9 4t9-4q4-4 4-9t-4-9L168 8q-8-7-18-7t-18 7L91 49q-4 4-4 9t4 9q4 4 9 4t9-4zm82 168l-28 28v-62q0-5-4-9t-9-4q-5 0-9 4t-4 9v62l-28-28q-4-4-9-4t-9 4q-4 4-4 9t4 9l41 41q8 7 18 7t18-7l41-41q4-4 4-9t-4-9q-4-4-9-4t-9 4z"/></svg>