<svg viewBox="0 0 300 302.0011" xmlns="http://www.w3.org/2000/svg"><path d="M249 70l-43-43q-13-13-29-19.5T144 1H88Q71 1 56.5 9.5t-23 23Q25 47 25 63v175q0 17 8.5 31.5t23 23Q71 301 87 301h126q16 0 30.5-8.5t23-23Q275 255 275 238V132q0-17-6.5-33T249 70zm-17 18q6 6 10 13h-54q-6 0-9.5-3.5T175 88V34q7 4 13 10l44 44zm18 150q0 16-11 27t-26 11H88q-16 0-27-11t-11-27V63q0-15 11-26t27-11h62v62q0 16 11 27t26 11h63v112zm-37-37q0 11-7.5 18t-17.5 7v-50q10 0 17.5 7.5T213 201zm-50-37v74q0 7-2.5 10.5t-10 2Q143 249 128 237l-14-12h-8q-8 0-13.5-5.5T87 207v-12q1-8 6-13.5t13-5.5h8l14-11q15-12 22.5-14t10 2q2.5 4 2.5 11z"/></svg>