<svg viewBox="0 0 300 302.0011" xmlns="http://www.w3.org/2000/svg"><path d="M259 163h-9v-12q0-5-3.5-9t-9-4q-5.5 0-9 4t-3.5 9v12h-62V57q0-13 9-22t22-9q13 0 21.5 7t9.5 19q0 5 4 8.5t9 3q5-.5 8.5-4.5t3.5-9q-2-21-17.5-35t-39-14Q170 1 154 17.5T138 57v106H75v-12q0-5-3.5-8.5t-9-4q-5.5-.5-9 3.5t-3.5 9v12h-9q-17 1-29 12.5T0 204q0 26 13 48.5T48.5 288Q71 301 97 301h106q26 0 48.5-13t35.5-35.5q13-22.5 13-48.5 0-17-12-28.5T259 164v-1zm-56 113H97q-20 0-36.5-9.5t-26-26Q25 224 25 204q0-6 4.5-11t11.5-5h218q7 0 11.5 5t4.5 11q0 20-9.5 36.5t-26 26Q223 276 203 276z"/></svg>