<svg viewBox="0 0 300 302.0011" xmlns="http://www.w3.org/2000/svg"><path d="M275 26Q258 9 233.5 3.5t-49 2q-24.5 7.5-43 26T115 74q-5 15-16 26t-26 16q-24 8-42.5 26.5t-26 43q-7.5 24.5-2 49T25 276q12 12 28 18.5t34.5 6.5q18.5 0 37.5-8t34-23q18-18 26-42 5-15 16-26t26-16q24-8 42.5-26.5t26-43q7.5-24.5 2-49T275 26zm-23 116q-14 14-32 20-21 7-36.5 22.5T161 221q-6 18-20 32t-32 19.5q-18 5.5-36 2t-30.5-16Q30 246 26.5 228t2-36Q34 174 48 160t32-20q21-7 36.5-22.5T139 81q6-18 20-32 11-11 25.5-17t28.5-6q27 0 44 18 13 12 16.5 30t-2 36q-5.5 18-19.5 32zm-102 28q0 8-5.5 13.5t-13 5q-7.5-.5-13-5.5t-5.5-13q0-8 5.5-13.5t13-5.5q7.5 0 13 5.5T150 170zm-37 50q0 8-5.5 13T94 238q-8 0-13.5-5T75 220q0-8 5.5-13.5T94 201q8 0 13.5 5.5T113 220zM225 70q0 8-5.5 13.5t-13.5 5q-8-.5-13-5.5t-5-13q0-8 5-13.5t13-5.5q8 0 13.5 5.5T225 70z"/></svg>