<svg viewBox="0 0 300 302.0011" xmlns="http://www.w3.org/2000/svg"><path d="M256 270q-11 10-25.5 10.5T205 272l-13-12q-4-3-4.5-8t3-9q3.5-4 8.5-4.5t9 3.5l13 11q4 3 8.5 3t8.5-4q27-27 34.5-64t-7-72q-14.5-35-46-56.5T150 38q-38 0-69.5 21t-46 56q-14.5 35-7 72.5T62 252q3 3 8 3.5t9-2.5l13-11q4-4 9-3.5t8.5 4.5q3.5 4 3 9t-4.5 8l-13 12q-11 9-26 8.5T44 269q-22-22-33.5-51T0 158q1-31 15-59.5t37.5-49Q76 29 106 20t61-6q43 5 77 32.5t48 68q14 40.5 4 83T256 270zM150 138q-3 1-6 1L96 92q-3-3-8.5-3t-9 3.5Q75 96 75 101t4 9l47 47q-2 8 .5 15.5t9.5 12q7 4.5 15 4t14.5-5.5q6.5-5 8.5-12.5t-.5-15q-2.5-7.5-9-12T150 138z"/></svg>