<svg viewBox="0 0 300 302.0011" xmlns="http://www.w3.org/2000/svg"><path d="M288 238h-25v-25q0-5-4-8.5t-9-3.5q-5 0-8.5 3.5T237 214v24h-24q-6 0-9.5 4t-3.5 9q0 5 3.5 8.5t8.5 3.5h26v25q0 6 3.5 9.5t8.5 3.5q5 0 9-3.5t4-8.5v-26h25q5 0 8.5-3.5t3.5-8.5q0-5-3.5-8.5T288 239v-1zM263 76h-38q0-20-10-37.5T187.5 11Q170 1 150 1t-37.5 10Q95 21 85 38.5T75 76H38q-16 0-27 11T0 114v124q0 17 8.5 31.5t23 23Q46 301 62 301h113q5 0 9-3.5t4-9q0-5.5-4-9t-9-3.5H63q-16 0-27-11t-11-26V113q0-5 3.5-8.5T37 101h38v25q0 5 3.5 9t9 3.5q5.5-.5 9-4t3.5-8.5v-25h100v25q0 5 3.5 9t9 3.5q5.5-.5 9-4t3.5-8.5v-25h38q5 0 8.5 3.5t3.5 8.5v63q0 5 3.5 8.5t9 3.5q5.5 0 9-3.5t3.5-8.5v-63q0-15-11-26t-27-11h1zm-163 0q0-21 14.5-35.5T150 26q21 0 35.5 14.5T200 76H100z"/></svg>