<svg viewBox="0 0 300 302.0011" xmlns="http://www.w3.org/2000/svg"><path d="M150 301q-41 0-75.5-20T20 226.5Q0 192 0 151q2-57 33-95 29-35 73-47.5t88 0Q238 21 267 56q31 38 33 95 0 41-20 75.5T225.5 281Q191 301 150 301zm0-275q-34 0-62.5 17T42 88.5Q25 117 25 151q2 47 28 79 23 30 60 40t74 0q37-10 60-40 26-32 28-79 0-34-17-62.5T212.5 43Q184 26 150 26zm0 150q-16 0-26.5 11T113 213.5q0 15.5 10.5 26.5t26.5 11q16 0 27-11t11-26.5q0-15.5-11-26.5t-27-11zm-44-75q-8 0-13 5.5T88 120q0 8 5 13.5t13 5q8-.5 13.5-5.5t5.5-13q0-8-5.5-13.5T106 101zm88 0q-8 0-13.5 5.5T175 120q0 8 5.5 13.5t13.5 5q8-.5 13.5-5.5t5.5-13q0-8-5.5-13.5T194 101z"/></svg>