<svg viewBox="0 0 300 302.0011" xmlns="http://www.w3.org/2000/svg"><path d="M195 108l-50-82h18q5 0 8.5-3.5t3.5-9q0-5.5-3.5-9T163 1h-44q-14 3-22.5 13.5T87 38v75H69L56 93q-7-11-20.5-15T11 80Q0 86 0 100v102q0 14 11 20t24.5 2Q49 220 56 209l13-21h19v75q0 14 8.5 24.5T119 301h44q5 0 8.5-3.5t3.5-9q0-5.5-3.5-9T163 276h-18l50-82q40-2 67-11 25-8 34-20t0-24q-9-12-34-20-27-9-67-11zm-8 62q-7 0-10 6l-60 97q-5-3-5-9v-88q1-5-3-9t-9-4H63q-7 0-11 6l-17 26q-4 6-10 7l-1-101q7 0 11 6l17 26q4 5 11 6h37q5 0 8.5-4t3.5-9V38q1-5 5-9l60 98q3 5 10 5 29 2 55 7.5t32 11.5q-6 6-32 11.5t-55 7.5z"/></svg>