<svg viewBox="0 0 300 302.0011" xmlns="http://www.w3.org/2000/svg"><path d="M59 142q-9-9-9-22t9-22q9-9 22-9.5t22 9q9 9.5 9.5 22.5t-9 22q-9.5 9-22.5 9t-22-9zm209 151q-1 4-4.5 6t-6.5 2q-3 0-5-1l-48-17q-4-2-7-1l-63 18q-14 3-26-3t-18-19l-38-89H31q-13 0-22-9.5T0 157v-43q0-6 3.5-9.5t9-3.5q5.5 0 9 3.5T25 114v43q0 3 2 5t4 2h37l77-11q2 0 3.5-2t1.5-4v-46q0-5 3.5-8.5t9-3.5q5.5 0 9 3.5t3.5 8.5v46q0 12-8 21t-19 10l-20 3 26 63 31-32q11-11 27-11h38q5 0 8.5 3.5t4 9q.5 5.5-3.5 9t-9 3.5h-38q-5 0-9 4l-33 34 20-6q12-3 23 1l48 18q4 2 6.5 6.5t.5 9.5zm-129-21l-37-88-23 3 34 81q2 4 6 6.5t9 1.5l11-4zM287 97l-27-14q-3-2-4-4.5t0-5.5l8-30q3-7-3-13-3-2-6.5-2.5t-6.5.5l-27 11q-3 2-6 .5t-5-4.5L199 9q-3-8-11-8t-12 7l-14 27q-1 3-4 4t-6 0l-29-8q-8-3-13 3-3 3-3.5 6.5T108 47l12 30q2 5 7 7t10 0q5-2 6.5-7t-.5-9l-2-6 4 1q12 4 23-1t17-15l1-4 1 2q6 12 18.5 17.5T231 62h2l-1 4q-4 11 1 22.5t15 16.5l6 3-6 3q-10 5-15 16.5t-1 22.5l1 4h-2q-11-5-22-2-5 2-7.5 6.5t-1 9.5q1.5 5 6 7.5t8.5 1q4-1.5 6 .5l27 11q2 1 4 1 5 0 8-3t4-6.5q1-3.5 0-6.5l-8-30q-1-3 0-5.5t4-4.5l27-14q7-3 7-11t-7-11z"/></svg>