<svg viewBox="0 0 300.0081 302.0011" xmlns="http://www.w3.org/2000/svg"><path d="M183.008 267q-1 0-1 1l-11 8h29q5 0 9 3.5t4 9q0 5.5-4 9t-9 3.5h-50q-5 0-9-3.5t-4-8.5q1-13 10-24 6-7 20-18h1q9-7 13-11 7-6 6.5-10.5t-4-8q-3.5-3.5-8.5-4t-9 3.5q-4 4-3.5 9t-3.5 8.5q-4 3.5-9 3.5t-9-3.5q-4-3.5-4-8.5 1-16 11.5-27t26.5-11q16 0 27 11t11 27q-1 12-10 24-6 6-20 17zm105-79q-6 0-9.5 4t-3.5 9v37h-12q-6 0-9.5-3.5t-3.5-8.5v-25q0-5-3.5-8.5t-9-4q-5.5-.5-9 3.5t-3.5 9v25q0 16 11 27t27 11h12v24q0 6 3.5 9.5t9 3.5q5.5 0 9-3.5t3.5-8.5v-88q0-5-3.5-8.5t-8.5-3.5v-1zm-125-37V88q0-5-4-8.5t-9-3.5q-5 0-9 3.5t-4 8.5v50h-37q-5 0-8.5 4t-3.5 9q0 5 3.5 9t8.5 4h50q5-1 9-4.5t4-8.5zm125-125q-6 0-9.5 3.5t-3.5 8.5v30q-18-27-44.5-43.5t-58-21.5q-31.5-5-62 3.5t-55 28.5q-24.5 20-39 48t-16.5 60q-2 32 9.5 61.5t34 52q22.5 22.5 51.5 34.5 3 1 6.5 1t6.5-3q3-3 4-7.5t-1-8.5q-2-4-6-6-39-14-61-49t-19-76q3-41 30-72.5t67-40.5q40-9 77.5 7.5t58.5 52.5h-33q-5 0-9 3.5t-3.5 8.5q.5 5 4 9t8.5 4h38q15-1 26-11.5t11-26.5V38q0-5-3.5-8.5t-8.5-3.5z"/></svg>