<svg viewBox="0 0 300 302.0011" xmlns="http://www.w3.org/2000/svg"><path d="M288 76h-14q-5-22-22-36t-40-14H63V13q-1-5-4.5-8.5T50 1q-5 0-8.5 3.5T38 13v18q-17 8-27.5 23.5T0 88q0 18 9 32.5T33 143L1 255q-2 8-.5 16.5t7 15.5q5.5 7 13 10.5T36 301q12 0 22-7.5T71 275l14-49h40v12q0 6 3.5 9.5t9 3.5q5.5 0 9-3.5t3.5-9.5v-50q0-5-3.5-8.5t-9-3.5q-5.5 0-9 3.5T125 189v12H92l14-50h106q23 0 40-14t22-36h13q6 0 9.5-3.5t3.5-9q0-5.5-3.5-9T287 76h1zM47 268q-1 3-4 5.5t-7.5 2.5q-4.5 0-8-4.5T25 262l32-112 23 1-33 117zm166-142H63q-16 0-27-11T25 88.5Q25 73 36 62t27-11h150q15 0 26 11t11 26.5q0 15.5-11 26.5t-26 11zm-50-38q0 6-4 9.5t-9 3.5H63q-6 0-9.5-3.5t-3.5-9q0-5.5 3.5-9T63 76h87q5 0 9 3.5t4 8.5z"/></svg>