<svg viewBox="0 0 300 302.0011" xmlns="http://www.w3.org/2000/svg"><path d="M288 113q-6 0-9.5 4t-3.5 9v12h-37V13q0-5-4-8.5T225 1q-5 0-8.5 3.5T213 13v13h-25V13q0-5-4-8.5T175 1q-5 0-8.5 3.5T163 13v13h-25V13q0-5-4-8.5T125 1q-5 0-8.5 3.5T113 13v13H88V13q0-5-4-8.5T75 1q-5 0-9 3.5T63 13v125H25v-12q0-5-3.5-9t-9-3.5q-5.5.5-9 4T0 126v119q0 23 16.5 39.5T56 301h57q5 0 8.5-3.5t3.5-9.5v-50q0-10 7.5-17.5T150 213q10 0 17.5 7.5T175 239v49q0 6 3.5 9.5t9.5 3.5h56q23 0 39.5-16.5T300 245V126q0-5-3.5-9t-8.5-4zM88 51h125v87h-38v-37q0-10-7.5-17.5T150 76q-10 0-17.5 7.5T125 101v37H88V51zm156 225h-44v-38q0-20-14.5-34.5t-35.5-15q-21-.5-35.5 14.5T100 239v37H56q-13 0-22-9t-9-22v-82h250v82q0 13-9 22t-22 9z"/></svg>