<svg viewBox="0 0 300 302.0011" xmlns="http://www.w3.org/2000/svg"><path d="M138 163V88q0-5 3.5-8.5T150 76q5 0 9 3.5t4 8.5v75q0 6-4 9.5t-9 3.5q-5 0-8.5-3.5T138 163zm12 25q-8 0-13.5 5.5T131 207q0 8 5.5 13.5T150 226q8 0 13.5-5.5T169 207q0-8-5.5-13.5T150 188zm145 61q-7 13-20 20t-30 7H56q-18 0-31-7T5.5 249.5q-6.5-12.5-5-28T12 192L112 33q7-9 17-14.5t21-5.5q11 0 21 5.5T188 33l101 160q9 13 10.5 28.5T295 249zm-27-42v-1L167 47q-6-9-17-9t-17 9L32 206q-5 8-6.5 16.5T27 238q7 13 28 13h189q22 0 28-13 4-7 2.5-15t-6.5-16z"/></svg>