<svg viewBox="0 0 300 302.0011" xmlns="http://www.w3.org/2000/svg"><path d="M288 238V63q5 0 8.5-3.5T300 51q0-5-3.5-9t-9.5-4H13q-6 0-9.5 4T0 51q0 5 3.5 8.5T13 63v175q-6 0-9.5 4T0 251q0 5 3.5 9t9.5 4h275q5-1 8.5-4.5t3.5-8.5q0-5-3.5-9t-9.5-4h1zM38 63h225v175H38V63zm187 38v100q0 5-3.5 8.5t-9 3.5q-5.5 0-9-3.5T200 201V101q0-5 3.5-9t9-4q5.5 0 9 4t3.5 9zm-62 0v100q0 5-4 8.5t-9 3.5q-5 0-8.5-3.5T138 201V101q0-5 3.5-8.5t8.5-4q5-.5 8.5 3.5t3.5 9h1zm-63 0v100q0 5-3.5 8.5t-9 3.5q-5.5 0-9-3.5T75 201V101q0-5 3.5-8.5t9-4q5.5-.5 9 3.5t3.5 9z"/></svg>