<svg viewBox="0 0 300 302.0011" xmlns="http://www.w3.org/2000/svg"><path d="M275 88q10 0 17.5-7t7.5-18V13q0-5-3.5-8.5t-9-3.5q-5.5 0-9 3.5T275 13v50l-51 1q-9-23-29-37t-44.5-14q-24.5 0-45 14T76 64H25V13q0-5-3.5-8.5t-9-3.5Q7 1 3.5 4.5T0 13v50q0 11 7.5 18.5T25 88h44l-13 50H13q-6 1-9.5 4.5T0 151q0 5 3.5 9t8.5 4h38l-2 8q-1 7-1 13 0 15 4 28H25q-10 0-17.5 7.5T0 238v50q0 6 3.5 9.5t9 3.5q5.5 0 9-3.5T25 289v-51h37q14 24 37.5 37.5T150 289q27 0 50.5-13.5T238 239h37v49q0 6 3.5 9.5t9 3.5q5.5 0 9-3.5t3.5-8.5v-51q0-10-7.5-17.5T275 213h-26q4-13 4-28 0-6-1-13l-2-9h38q5 1 8.5-3t3.5-9q0-5-3.5-9t-8.5-4h-44l-13-50h44zM150 263q-21 0-39-10.5T82.5 224Q72 206 72 185v-9L98 76q5-17 19.5-27t32-10.5q17.5-.5 32 10T202 75l26 101v9q0 21-10.5 39T189 252.5Q171 263 150 264v-1z"/></svg>