<svg viewBox="0 0 300 302.0011" xmlns="http://www.w3.org/2000/svg"><path d="M96 99l-7 16q-1 4-5 5.5t-8-.5l-2-1q-5-2-6.5-6.5T69 104l9-14q2-4 5.5-5t7.5.5q4 1.5 5.5 5.5t-.5 8zm204 52q0 41-20 75.5T225.5 281Q191 301 150 301t-75.5-20Q40 261 20 226.5T0 151q0-41 20-75.5T74.5 21Q109 1 150 1t75.5 20Q260 41 280 75.5t20 75.5zM150 276v-23q0-3-2.5-6t-5.5-4l-11-3q-6-1-11-6l-13-14q-7-6-7-16v-4q0-12 9-19l16-12q6-5 15-5h15q8 0 14 4l28 18q3 3 7 3h9q6 0 10 4l11 11q3 3 8 4l18 2q5-8 8-17l-38-16q-2-1-3.5-3t-1.5-5.5q0-3.5 4-5.5l12-7q3-2 3-5t-2.5-4.5Q239 145 238 145l-31-10q-3-1-5-4t-2-7q0-4 3.5-7t7.5-3h16q4 0 7-3.5t4-7.5v-4q-1-4-4-7t-7-3h-8q-6 0-9 5l-8 15q-2 5-7 6l-9 3q-3 1-3.5 3t.5 4l3 9q0 4-2.5 6.5T178 143q-3 0-5.5-1.5T169 139l-8-9q-2-1-5-1t-5 4l-12 16q-3 2-7 2t-11-5l-5-5q-6-9-2-18l12-27q3-7 10-10l33-14 3-2q3-2 3-6t-2.5-4.5Q170 59 168 59l-33 5q-4-1-5-3.5t0-6.5l14-28q-33 2-60 19T41 90q-16 28-16 61.5t17 62Q59 242 87.5 259t62.5 17z"/></svg>