<svg viewBox="0 0 300 302.0011" xmlns="http://www.w3.org/2000/svg"><path d="M194 126h-6v-6q0-13-9.5-22T156 89h-12q-13-1-22.5 8.5T112 120v6h-6q-13 0-22 9t-9 22v13q0 13 9 22t22 9h7v6q0 13 9 22t22 9h12q13 0 22.5-9t9.5-22v-6h6q13 0 22-9t9-22v-13q0-13-9-22t-22-9zm6 44q0 2-2 4t-4 2h-19q-5 0-9 3.5t-4 9.5v18q1 3-1 4.5t-5 1.5h-12q-3 0-4.5-1.5T138 207v-19q0-5-4-8.5t-9-3.5h-19q-2 0-4-2t-2-4v-13q0-2 2-4t4-2h19q5 0 9-3.5t4-8.5v-19q0-3 1.5-5t4.5-2h12q3 0 5 2t2 5v18q0 6 3.5 9.5t8.5 3.5h19q2 0 4 2t2 4v13zm75-97V26q0-5-3.5-9t-9-4q-5.5 0-9 4t-3.5 9v30l-65-44Q169 1 150 1t-35 11L28 71Q15 79 7.5 93T0 123v115q0 17 8.5 31.5t23 23Q46 301 63 301h175q16 0 30.5-8.5t23-23Q300 255 300 238V123q0-15-6.5-28.5T275 73zm0 165q0 16-11 27t-27 11H63q-16 0-27-11t-11-27V123q0-10 4.5-18T42 91l87-59q10-6 21-6t21 6l87 59q8 6 12.5 14t4.5 18v115z"/></svg>