<svg viewBox="0 0 300 302.0011" xmlns="http://www.w3.org/2000/svg"><path d="M187 76h-75q-20 0-35 14.5T62 126v37q1 21 15.5 35.5T113 213h74q21 0 35.5-14.5T237 163v-37q0-21-14.5-35.5T187 76zm-75 25h75q4 0 7 1l-32 31q-4 5-11.5 5t-12.5-5l-32-31q3-1 6-1zm100 62q0 11-7 18t-18 7h-74q-11 0-18-7t-7-18v-37-7l32 32q13 13 30.5 13t29.5-13l32-31v43zM150 1q-41 0-75.5 20T20 75.5Q0 110 0 151t20 75.5Q40 261 74.5 281t75.5 20q41 0 75.5-20t54.5-54.5q20-34.5 20-75.5t-20-75.5Q260 41 225.5 21T150 1zm0 275q-34 0-62.5-17T42 213.5Q25 185 25 151t17-62.5Q59 60 87.5 43T150 26q34 0 62.5 17T258 88.5q17 28.5 17 62.5t-17 62.5Q241 242 212.5 259T150 276z"/></svg>