<svg viewBox="0 0 300 302.0011" xmlns="http://www.w3.org/2000/svg"><path d="M275 73V26q0-5-3.5-9t-9-4q-5.5 0-9 4t-3.5 9v30l-65-44Q169 1 150 1t-35 11L28 71Q15 79 7.5 93T0 123v115q0 17 8.5 31.5t23 23Q46 301 63 301h37q5 0 9-3.5t4-9.5V188q0-5 3.5-8.5t8.5-3.5h50q5 0 8.5 3.5t3.5 9.5v99q1 6 4.5 9.5t8.5 3.5h38q16 0 30.5-8.5t23-23Q300 255 300 238V123q0-15-6.5-28.5T275 73zm0 165q0 16-11 27t-27 11h-24v-88q-1-15-11.5-26T175 151h-50q-16 0-27 11t-11 26v88H63q-16 0-27-11t-11-27V123q0-10 4.5-18T42 91l87-59q10-6 21-6t21 6l87 59q8 6 12.5 14t4.5 18v115z"/></svg>