<svg viewBox="0 0 300 302.0011" xmlns="http://www.w3.org/2000/svg"><path d="M281 138q-7-7-17-10t-20-2q-42 5-81 18 3-22 22-33 16-10 40-10 16 0 27-11t11-26.5Q263 48 252 37t-28-11q-17 0-33 7t-29 19V13q1-5-3-8.5T150 1q-5 0-9 3.5t-4 8.5v39q-12-12-28-19t-33-7q-17 0-27.5 11T38 63.5Q38 79 48.5 90T75 101q24 0 40 10 19 11 22 33-39-13-81-18-10-1-20 2t-18 10.5q-8 7.5-13 19T0 181q0 49 17 79 13 24 36 34 15 7 34 7 21-1 38-15 11-9 25-10 14 1 25 10 17 14 38 15 19 0 34-7 23-10 36-34 17-30 17-79 0-12-5-23.5T281 138zm-56-87q5 0 9 3.5t3.5 9q-.5 5.5-4 9T225 76q-32-1-59 17 6-19 22.5-30.5T225 51zM75 76q-5 0-8.5-3.5t-3.5-9q0-5.5 3.5-9T75 51q20 0 36.5 11.5T134 93q-27-18-59-17zm138 200q-14-2-24-11-17-13-39-14-22 1-39 14-10 9-24 11-30 0-46-24.5T25 181q0-14 10-24 8-7 18-6 48 6 92 22 5 2 10 0 44-16 92-22 10-1 18 6 10 10 10 24 0 46-16 70.5T213 276zm10-87q-20 4-48 13l-25 7q10 1 23 7 8 4 22 12.5t19 9.5q10 3 15-5.5t8-28.5q2-6-2.5-11t-11.5-4zM63 204q3 20 8 28.5t15 5.5q5-1 19-9.5t22-12.5q13-6 23-7l-25-7q-28-9-48-13-7-1-11.5 4T63 204z"/></svg>