<svg viewBox="0 0 300 302.0011" xmlns="http://www.w3.org/2000/svg"><path d="M150 1q-41 0-75.5 20T20 75.5Q0 110 0 151t20 75.5Q40 261 74.5 281t75.5 20q41 0 75.5-20t54.5-54.5q20-34.5 20-75.5t-20-75.5Q260 41 225.5 21T150 1zm0 275q-34 0-62.5-17T42 213.5Q25 185 25 151q0-27 12-52l20 22q6 5 13 5h24q6 0 10 4l5 5q4 3 4 9v12q0 7 5 13l15 15q5 4 5 11v30q0 6 4 9.5t9 3.5h3q4 0 7.5-2t4.5-5l28-61q3-6 1-11.5t-7-8.5l-32-20q-6-4-13-4h-18q-6 0-11-4l-7-8q-3-3-3-7t3-7l7-6q2-3 5-3.5t6 1.5l11 5q4 2 7.5 1.5T150 95q3-3 3.5-7t-1.5-7l-11-18q-3-6 0-12l17-25q30 2 55.5 17.5T255 84l-20 11q-4 3-6 7.5t-1 10.5l8 31q2 7 8 10l30 15q-5 30-22.5 54.5t-44 38.5Q181 276 150 276z"/></svg>