<svg viewBox="0 0 300 302.0011" xmlns="http://www.w3.org/2000/svg"><path d="M93 70q-4-6-11.5-6T70 70L1 208q-3 6 1 12.5t11.5 6Q21 226 24 219l21-43h72l22 43q3 7 10.5 7.5t11-6q3.5-6.5.5-12.5L93 70zm-35 81l23-47 24 47H58zm230-50q-6 0-9.5 3.5T275 113v1q-17-13-38-13-16 0-30.5 8.5t-23 23q-8.5 14.5-8.5 31t8.5 31q8.5 14.5 23 23T237 226q21 0 38-13 0 6 3.5 9.5t9 3.5q5.5 0 9-3.5t3.5-9.5V113q0-5-3.5-8.5T288 101zm-50 100q-16 0-27-11t-11-26.5q0-15.5 11-26.5t26.5-11q15.5 0 26.5 11t11 26.5q0 15.5-11 26.5t-27 11h1z"/></svg>