<svg viewBox="0 0 300 302.0011" xmlns="http://www.w3.org/2000/svg"><path d="M291 223l-37 37q-4 4-9 4t-8.5-4q-3.5-4-3.5-9t3-9l29-29h-46q-13 0-22 9.5t-9 22.5v43q0 6-4 9.5t-9 3.5q-5 0-8.5-3.5T163 288v-43q0-24 16.5-40.5T219 188h46l-29-28q-3-4-3-9t3.5-9q3.5-4 8.5-4t9 4l37 37q9 9 9 22t-9 22zM175 76q0 20-10 37.5T137.5 141Q120 151 100 151t-37.5-10Q45 131 35 113.5T25 76q0-20 10-37.5T62.5 11Q80 1 100 1t37.5 10Q155 21 165 38.5T175 76zm-25 0q0-21-14.5-35.5T100 26q-21 0-35.5 14.5T50 76q0 21 14.5 35.5T100 126q21 0 35.5-14.5T150 76zm-9 104q-14-4-29-4-30 0-56 15t-41 41Q0 258 0 289q0 5 3.5 8.5t9 3.5q5.5 0 9-3.5T25 288q0-23 12-43t32-32q20-12 44-12 11 0 21 3 5 1 9.5-1.5t6-7.5q1.5-5-1-9.5T141 180z"/></svg>