<svg viewBox="0 0 300 302.0011" xmlns="http://www.w3.org/2000/svg"><path d="M238 143q-25-7-50-15V74q11-4 18-13.5t7-21.5q-1-16-11.5-27T175 1H38Q22 1 11 12T0 39q0 12 7 21.5T25 74v214q0 6 3.5 9.5t9 3.5q5.5 0 9-3.5T50 288v-12h25v12q0 6 3.5 9.5t9 3.5q5.5 0 9-3.5t3.5-9.5v-12h25v12q0 6 3.5 9.5t9 3.5q5.5 0 9-3.5t3.5-9.5v-12h25v12q0 6 3.5 9.5t9 3.5q5.5 0 9-3.5t3.5-9.5v-12h25v12q0 6 3.5 9.5t9 3.5q5.5 0 9-3.5t3.5-9.5v-12h25v12q0 6 3.5 9.5t9 3.5q5.5 0 9-3.5t3.5-9.5v-68q0-28-17.5-49.5T238 143zM38 26h137q5 0 8.5 3.5t4 9q.5 5.5-3.5 9t-9 3.5H38q-6 0-9.5-3.5t-3.5-9q0-5.5 3.5-9T38 26zm12 225V76h113v50h-38q-5 0-9 4t-4 9q0 5 4 8.5t9 3.5h48l59 17q19 3 31 18t12 34v31H50z"/></svg>