<svg viewBox="0 0 300 302.0011" xmlns="http://www.w3.org/2000/svg"><path d="M273 144q-12-14-18-31.5T250 76q5 0 9-3.5t4-9q0-5.5-4-9t-9-3.5q-1-23-15.5-36T200 2q-20 0-34.5 13T150 51q-5 0-9 3.5t-3.5 9q.5 5.5 4 9T150 76q1 19-5 36.5T127 144q-21 25-25.5 57t9.5 61q7 18 23 28.5t35 10.5h62q22 1 39-14 14-12 23-34 7-19 7-39-3-40-27-70zM200 26q10 0 17.5 7.5T225 51h-50q0-10 7.5-17.5T200 26zm25 50q-2 34 15 62h-80q17-28 15-62h50zm41 177q-4 10-13.5 16.5T231 276h-62q-15 1-26-10-9-10-14-26-4-14-4-27 2-27 19-49h112q15 18 18 42.5t-8 46.5zm-166 35q0 9-8 12-5 1-16 1h-7q-22 1-39-14-15-12-23-34-7-19-7-38.5T8 177q5-11 18.5-31.5T44 114q8-19 6-38-5 0-8.5-3.5t-3.5-9q0-5.5 3.5-9T50 51q0-15 8-27T79.5 6q13.5-6 28-4T133 14q4 3 4.5 8t-3 9q-3.5 4-8.5 4.5t-9-3.5q-6-4-13-5.5T90 28q-7 3-11 9.5T75 51h25q5 0 8.5 3.5t4 9q.5 5.5-3.5 9t-9 3.5H75q2 34-15 62h28q5 1 8.5 4.5t3.5 8.5q0 5-3.5 9t-9.5 4H44q-15 18-18 42.5t8 46.5q4 10 13.5 16.5T69 276h19q5 0 8.5 3.5t3.5 8.5zm125-50q0 6-3.5 9.5t-9 3.5q-5.5 0-9-3.5t-3.5-9q0-5.5 3.5-9t9-3.5q5.5 0 9 3.5t3.5 9.5v-1zm-25-37q0 5-3.5 8.5t-9 3.5q-5.5 0-9-3.5T175 201q0-5 3.5-8.5t9-4q5.5-.5 9 3.5t3.5 9zm50 0q0 5-3.5 8.5t-9 3.5q-5.5 0-9-3.5T225 201q0-5 3.5-8.5t9-4q5.5-.5 9 3.5t3.5 9z"/></svg>