<svg viewBox="0 0 300 302.0011" xmlns="http://www.w3.org/2000/svg"><path d="M238 1H63Q46 1 31.5 9.5t-23 23Q0 47 0 63v175q0 17 8.5 31.5t23 23Q46 301 62 301h176q16 0 30.5-8.5t23-23Q300 255 300 238V63q0-16-8.5-30.5t-23-23Q254 1 237 1h1zm37 62h-87V26h50q15 0 26 11t11 27v-1zM138 26h25v62q0 6-4 9.5t-9 3.5q-5 0-9-3.5t-4-8.5l1-63zm-75 0h50v37H25q0-15 11-26t26-11h1zm175 250H63q-16 0-27-11t-11-27V88h88q0 16 10.5 27t26.5 11q16 0 27-11t11-27h87v150q0 16-11 27t-27 11h1zm12-38q0 6-3.5 9.5T238 251h-38q-5 0-9-3.5t-4-9q0-5.5 4-9t9-3.5h38q5 0 8.5 3.5t3.5 8.5z"/></svg>