<svg viewBox="0 0 300 302.0011" xmlns="http://www.w3.org/2000/svg"><path d="M296 280l-74-75q21-25 26.5-57t-5-62.5Q233 55 208.5 33T153 4q-31-7-62.5 1.5T36 37Q13 60 4.5 91.5T3 154q7 31 29 55.5t52.5 35q30.5 10.5 62.5 5t57-26.5l75 74q3 4 8.5 4t9-3.5q3.5-3.5 3.5-9t-4-8.5zm-171-54q-27 0-50-13.5T38.5 176Q25 153 25 126t13.5-50Q52 53 75 39.5T125 26q27 0 50 13.5T211.5 76Q225 99 225 126t-13.5 50Q198 199 175 212.5T125 226zm38-113h-25V88q0-5-4-8.5t-9-3.5q-5 0-8.5 3.5T113 88v25H88q-6 1-9.5 4.5T75 126q0 5 3.5 9t9.5 4h25v24q0 6 3.5 9.5t8.5 3.5q5 0 9-3.5t4-9.5v-25h25q5 0 8.5-3.5t3.5-8.5q0-5-3.5-9t-8.5-4z"/></svg>