<svg viewBox="0 0 300 302.0011" xmlns="http://www.w3.org/2000/svg"><path d="M272 114q-24-13-52-13h-51l-38-68q-8-15-22.5-23.5T77 1H62Q47 1 36 12T25 39v25q0 5 3.5 8.5t9 3.5q5.5 0 9-3.5T50 64V39q0-6 3.5-9.5T62 26h15q10 0 19 5t14 14l31 56H37q-15 0-26 11T0 139v24q0 16 11 27t26 11h104l-31 56q-5 9-14 14t-19 5H62q-5 0-8.5-3.5T50 263v-25q0-5-3.5-8.5t-9-3.5q-5.5 0-9 3.5T25 238v25q0 16 11 27t26 11h15q17 0 31.5-8.5T131 269l38-68h51q28 0 52-13 28-17 28-37t-28-37zm-63 62H75v-50h134q10 5 14 16t-1 20.5q-5 9.5-13 13.5zM25 163v-24q0-6 3.5-9.5T37 126h13v50H37q-5 0-8.5-3.5T25 163zm235 3q-7 4-15 6 5-10 5-21t-5-22q8 3 15 7 15 8 15 15t-15 15z"/></svg>