<svg viewBox="0 0 300 302.0011" xmlns="http://www.w3.org/2000/svg"><path d="M291 107q4-1 6.5-4.5T300 95V76q0-21-14.5-35.5T250 26H50q-21 0-35.5 14.5T0 76v19q0 4 2.5 7.5t7 4.5q4.5 1 8.5 4 7 6 7 15t-7 15q-4 3-8.5 4t-7 4.5Q0 153 0 157v81q0 16 11 27t27 11h225q15 0 26-11t11-27v-81q0-4-2.5-7.5t-7-4.5q-4.5-1-8.5-4-7-6-7-15t7-15q4-3 9-4zM25 238v-12h38v25H38q-6 0-9.5-3.5T25 238zm188 13h-25v-25h25v25zm-50 0h-25v-25h25v25zm-50 0H88v-25h25v25zm150 0h-25v-25h37v12q0 6-3.5 9.5T263 251zm12-165q-10 6-17 15-8 11-8 25t8 25q7 9 17 14v36H25v-36q10-5 17-14 8-11 8-25t-8-25q-7-9-17-15V76q0-10 7.5-17.5T50 51h200q10 0 17.5 7.5T275 76v10zm-112 2v75q0 6-4 9.5t-9 3.5q-5 0-8.5-3.5T138 163V88q0-5 3.5-8.5T150 76q5 0 9 3.5t4 8.5zm-63 0v75q0 6-3.5 9.5t-9 3.5q-5.5 0-9-3.5T75 163V88q0-5 3.5-8.5t9-3.5q5.5 0 9 3.5T100 88zm125 0v75q0 6-3.5 9.5t-9 3.5q-5.5 0-9-3.5T200 163V88q0-5 3.5-8.5t9-3.5q5.5 0 9 3.5T225 88z"/></svg>