<svg viewBox="0 0 300 302.0011" xmlns="http://www.w3.org/2000/svg"><path d="M150 301q-32 0-61-13t-50-37q-21-24-31-54t-6.5-62.5Q5 102 22 74t44-47Q93 8 125.5 3T189 5q8 3 14 9t8.5 14q2.5 8 0 16T203 58q-28 26-36.5 59t3.5 65.5q12 32.5 43 55.5 7 6 10 14t1.5 16q-1.5 8-7 15t-13.5 9q-26 9-54 9zm1-275q-10 0-21 2-27 4-49.5 19.5t-37 39Q29 110 26 137t5 52.5Q39 215 57 235q27 28 64.5 37.5T196 269q3-1 3.5-4.5T198 258q-37-27-51.5-66.5t-4.5-80Q152 71 186 40q2-2 1.5-5.5T183 30q-16-4-32-4zm105 125q-4 0-7.5-2.5T244 142l-4-18-18-5q-4-1-7-4.5t-2.5-8q.5-4.5 3-7.5t6.5-4l18-4 4-18q1-4 4.5-6.5T256 64q4 0 7.5 2.5T268 73l5 18 17 4q5 1 7.5 4.5t2.5 8q0 4.5-2.5 7.5t-7.5 4l-17 5-5 18q-1 4-4 6.5t-8 2.5zm-56 25q0 5 3.5 8.5t9 3.5q5.5 0 9-3.5t3.5-8.5q0-5-3.5-9t-9-4q-5.5 0-9 4t-3.5 9zm75 50q0 5 3.5 8.5t9 3.5q5.5 0 9-3.5t3.5-8.5q0-5-3.5-8.5t-9-4q-5.5-.5-9 3.5t-3.5 9z"/></svg>