<svg viewBox="0 0 300 302.0011" xmlns="http://www.w3.org/2000/svg"><path d="M238 76h-63q-17 0-31.5 8.5t-22.5 23q-8 14.5-8 31.5v62q0 14 6.5 25t18.5 18v32h-13q-5 0-9 3.5t-3.5 9q.5 5.5 4 9t8.5 3.5h163q5 0 8.5-3.5t3.5-9q0-5.5-3.5-9T288 276h-19v-29q14-5 22.5-18t8.5-28v-63q0-16-8.5-30.5t-23-23Q254 76 238 76zm-19 87v-50h46q10 11 10 25v25h-56zm-81 0v-25q0-14 9-25h47v50h-56zm25 113v-25h81v25h-81zm87-50h-87q-11 0-18-7.5t-8-17.5v-13h26v13q0 5 3.5 8.5t8.5 4q5 .5 9-3.5t4-9v-13h37v13q0 5 3.5 8.5t9 4q5.5.5 9-3.5t3.5-9v-13h25v13q0 10-7.5 17.5T250 226zm-162 0H25V51q0-10 7.5-17.5T50 26h13q-1 10 6.5 17.5T88 51h50q10 0 17.5-7.5T163 26V13q0-5-4-8.5T150 1H50Q29 1 14.5 15.5T0 51v225q0 10 7.5 17.5T25 301h25q10 0 17.5-7.5T75 276v-25h13q5 0 8.5-3.5t3.5-9q0-5.5-3.5-9T87 226h1zm-38 50H25v-25h25v25z"/></svg>