<svg viewBox="0 0 300 302.0011" xmlns="http://www.w3.org/2000/svg"><path d="M125 151q0 5-3.5 9t-9.5 4H63q-6-1-9.5-4.5T50 151q0-5 3.5-9t9.5-4h50q5 0 8.5 4t3.5 9zm113-13h-13v-12q0-5-3.5-9t-9-4q-5.5 0-9 4t-3.5 9v12h-12q-6 0-9.5 4t-3.5 9q0 5 3.5 9t8.5 4h13v12q0 5 3.5 8.5t9 3.5q5.5 0 9-3.5t3.5-8.5v-13h13q5 0 8.5-3.5t3.5-8.5q0-5-3.5-9t-8.5-4zm62-25v100q0 17-8.5 31.5t-23 23Q254 276 237 276H63q-17 0-31.5-8.5t-23-23Q0 230 0 214V113q0-17 10.5-30.5T37 65V51q0-10 7.5-17.5T62 26h51q10 0 17.5 7.5T138 51v12h25V51q0-10 7-17.5t18-7.5h50q10 0 17 7.5t7 17.5v14q17 4 27.5 17.5T300 113zm-25 0q0-10-7.5-17T250 89q-5-1-9-4.5t-4-8.5V51h-49v25q0 5-4 9t-9 4h-50q-5-1-8.5-4.5T113 76V51H63v25q0 5-4 8.5T50 89q-10-1-17.5 6.5T25 114v99q0 16 11 27t26 11h176q15 0 26-11t11-27V113z"/></svg>