<svg viewBox="0 0 300.0052 302.0011" xmlns="http://www.w3.org/2000/svg"><path d="M291 26q-11-12-29-13-9 1-17 5l-2-2q-9-13-24.5-15t-28 7.5Q178 18 176 33l-6 40-15-47q-5-14-19-21t-29-2q-8 3-14.5 9.5T83 27q-5-1-11-1-17 1-27.5 15T39 73l29 92-5-4q-11-11-26.5-10t-26 12Q0 174 .5 189.5T12 216l55 53q16 16 36.5 24t42.5 8h55q29 0 50-18.5t25-46.5l24-179q2-18-9-31zm-16 27l-24 180q-2 18-16.5 30.5T201 276h-55q-18 0-33.5-6.5T85 251l-56-53q-4-4-4-9t3.5-9q3.5-4 8.5-4t9 3l39 37q3 3 7.5 3.5t8-1.5q3.5-2 5-6t.5-8L63 66q-1-5 2-10t9-5q4 0 7.5 2t5.5 6l23 71q2 4 5 6t6 2h5q5-2 7.5-6.5t.5-9.5l-27-80q-1-4 1-9t7-6.5q5-1.5 9.5 1T131 34l32 96q2 4 5.5 6.5t7.5 2q4-.5 7.5-3.5t3.5-7l14-91q0-5 4.5-8.5T215 26q5 1 8 5t2 9l-12 84q-1 5 2 9.5t8 5q5 .5 9.5-2.5t4.5-8l13-78q1-5 4.5-8t8.5-3.5q5-.5 9 4t3 10.5z"/></svg>