<svg viewBox="0 0 300 302.0011" xmlns="http://www.w3.org/2000/svg"><path d="M300 63v125q0 16-6.5 29T275 238v25q0 6-3.5 9.5t-9 3.5q-5.5 0-9-3.5T250 263v-13q-6 1-13 1h-49q-6 0-9.5-3.5t-3.5-9q0-5.5 3.5-9t9.5-3.5h50q15 0 26-11t11-26h-12q-6-1-9.5-4.5T250 176q0-5 3.5-8.5t9.5-3.5h12V88h-12q-6 0-9.5-3.5T250 76q0-5 3.5-8.5T263 64h12q0-16-11-27t-27-11H63q-16 0-27 11T25 64v24q0 6-3.5 9.5t-9 3.5q-5.5 0-9-3.5T0 88V63q0-16 8.5-30.5t23-23Q46 1 63 1h175q16 0 30.5 8.5t23 23Q300 47 300 64v-1zm-150 94v100q0 13-10 23t-27 15.5Q96 301 75 301t-38-5.5Q20 290 10 280T0 257V157q0-12 10-22t27-16q17-6 38-6t38 6q17 6 27 16t10 22zm-25 33q-21 11-50 11t-50-11v17q0 4 6.5 8.5t18 7.5q11.5 3 25.5 3t25.5-3q11.5-3 18-7.5t6.5-8.5v-17zM25 157q0 4 6.5 8.5t18 7.5q11.5 3 25.5 3t25.5-3q11.5-3 18-7.5t6.5-8q0-3.5-6.5-8t-18-8Q89 138 75 138t-25.5 3.5q-11.5 3.5-18 8T25 157zm100 100v-17q-21 11-50 11t-50-11v17q0 4 6.5 8.5t18 7.5q11.5 3 25.5 3t25.5-3q11.5-3 18-7.5t6.5-8.5zm55-84q3 3 8.5 3t8.5-5q16-20 16-45 0-20-10.5-37.5T175 61q-17-10-37-10-26 0-46 15-4 3-4.5 8t2.5 9.5q3 4.5 8 5t9-2.5q14-10 30-10 21 0 36 14.5t15 35.5q-1 17-10 30-4 4-3 9t5 9v-1z"/></svg>