<svg viewBox="0 0 300 302.0011" xmlns="http://www.w3.org/2000/svg"><path d="M296 210l-32 30q-11 11-26.5 11T211 240l-32-30q-4-4-4-9t3.5-8.5q3.5-3.5 8.5-4t9 3.5l29 27V113q0-15-11-26t-27-11h-50q-5 0-8.5-3.5t-3.5-9q0-5.5 3.5-9T137 51h50q17 0 31.5 8.5t23 23Q250 97 250 113v106l29-27q4-4 9-3.5t8.5 4q3.5 3.5 3.5 9t-4 8.5zm-133 16h-50q-16 0-27-11t-11-27V83l29 27q4 3 9 3t8.5-3.5q3.5-3.5 3.5-9t-4-8.5L89 62Q78 51 62.5 51T36 62L4 92q-4 3-4 8.5t3.5 9q3.5 3.5 8.5 4t9-3.5l29-27v105q0 17 8.5 31.5t23 23Q96 251 113 251h50q5 0 8.5-3.5t3.5-9q0-5.5-3.5-9T163 226z"/></svg>