<svg viewBox="0 0 300 302.0011" xmlns="http://www.w3.org/2000/svg"><path d="M238 38H63q-17 0-31.5 8.5t-23 23Q0 84 0 101v100q0 17 8.5 31.5t23 22.5q14.5 8 31.5 8h175q16 0 30.5-8t23-22.5Q300 218 300 201V101q0-17-8.5-31.5t-23-23Q254 38 238 38zm37 163q0 15-11 26t-26 11H63q-16 0-27-11t-11-26V101q0-6 2-13h246q2 7 2 13v100zm-56-88H82q-7 0-13 3.5t-9 9.5q-10 17-10 37.5T60 201q3 6 9 9t13 3h136q7 0 13-3t9-9q10-17 10-37.5T240 126q-3-6-9-9.5t-13-3.5h1zm-44 25v50h-50v-50h50zM75 163q0-13 7-25h18v50H82q-7-11-7-25zm144 25h-19v-50h18q7 12 7 25.5t-6 24.5z"/></svg>