<svg viewBox="0 0 300 302.0011" xmlns="http://www.w3.org/2000/svg"><path d="M175 77q-45 18-91 36-10 4-16 13.5T62.5 147q.5 11 7 19.5T87 178l29 8 10 31q4 10 12.5 16t19.5 5q11 0 19.5-6t12.5-16l34-90q2-10-.5-20.5t-10-18q-7.5-7.5-18-10T175 77zm25 42l-33 88q-1 3-3.5 4.5T158 214v-1q-7 0-9-4l-11-37q-2-7-9-9l-35-9q-3-1-4.5-3t-2-5.5Q87 142 89 140t5-4l88-35q8-1 13.5 4.5T200 119zM150 1q-41 0-75.5 20T20 75.5Q0 110 0 151t20 75.5Q40 261 74.5 281t75.5 20q41 0 75.5-20t54.5-54.5q20-34.5 20-75.5t-20-75.5Q260 41 225.5 21T150 1zm0 275q-34 0-62.5-17T42 213.5Q25 185 25 151t17-62.5Q59 60 87.5 43T150 26q34 0 62.5 17T258 88.5q17 28.5 17 62.5t-17 62.5Q241 242 212.5 259T150 276z"/></svg>