<svg viewBox="0 0 300 302.0011" xmlns="http://www.w3.org/2000/svg"><path d="M238 251H63q-17 0-31.5-8.5t-23-23Q0 205 0 188v-75q0-16 8.5-30.5t23-23Q46 51 62 51h176q16 0 30.5 8.5t23 23Q300 97 300 114v74q0 17-8.5 31.5t-23 23Q254 251 237 251h1zM63 76q-16 0-27 11t-11 27v74q0 16 11 27t26 11h176q15 0 26-11t11-27v-75q0-15-11-26t-27-11H63zm87 125q-21 0-35.5-14.5T100 151q0-21 14.5-35.5T150 101q21 0 35.5 14.5T200 151q0 21-14.5 35.5T150 201zm0-75q-10 0-17.5 7.5T125 151q0 10 7.5 17.5T150 176q10 0 17.5-7.5T175 151q0-10-7.5-17.5T150 126zm-87-25q-6 0-9.5 3.5t-3.5 9q0 5.5 3.5 9t9 3.5q5.5 0 9-3.5t3.5-9q0-5.5-3.5-9T62 101h1zm162 12q0 6 3.5 9.5t9 3.5q5.5 0 9-3.5t3.5-9q0-5.5-3.5-9t-9-3.5q-5.5 0-9 3.5T225 113zM63 176q-6 0-9.5 3.5t-3.5 9q0 5.5 3.5 9t9 3.5q5.5 0 9-3.5t3.5-9q0-5.5-3.5-9T62 176h1zm162 12q0 6 3.5 9.5t9 3.5q5.5 0 9-3.5t3.5-9q0-5.5-3.5-9t-9-3.5q-5.5 0-9 3.5T225 189v-1z"/></svg>