<svg viewBox="0 0 300 302.0011" xmlns="http://www.w3.org/2000/svg"><path d="M150 1q-41 0-75.5 20T20 75.5Q0 110 0 151t20 75.5Q40 261 74.5 281t75.5 20q41 0 75.5-20t54.5-54.5q20-34.5 20-75.5t-20-75.5Q260 41 225.5 21T150 1zm18 26q24 4 45.5 16.5T250 76H138l30-49zm9 74l31 50-31 50h-55l-29-51 30-49h54zm-38-74l-60 98-28-50q16-21 38.5-33.5T139 27zM35 201q-10-24-10-50.5T36 100l57 101H35zm97 74q-24-4-45.5-16.5T50 226h112l-30 49zm29 0l61-100 30 48q-16 22-39.5 36T161 275zm46-174h58q10 24 10 49.5t-9 47.5l-59-97z"/></svg>