<svg viewBox="0 0 300 302.0011" xmlns="http://www.w3.org/2000/svg"><path d="M155 146q8 13 8 18t-4 8.5q-4 3.5-9 3.5t-8.5-3.5Q138 169 138 164t7-18q2-3 5-3t5 3zm0-65q8-13 8-18t-4-8.5q-4-3.5-9-3.5t-8.5 3.5Q138 58 138 63t7 18q2 3 5 3t5-3zm-92 45q4 0 17-8 3-1 3-4.5t-3-4.5q-13-8-18-8t-8.5 3.5q-3.5 3.5-3.5 9t3.5 9Q57 126 62 126h1zm157-8q13 8 18 8t8.5-3.5q3.5-3.5 3.5-9t-3.5-9Q243 101 238 101t-18 8q-3 1-3 4.5t3 4.5zm-24-27q15-2 18.5-5.5t4-9q.5-5.5-3-9t-9-4q-5.5-.5-9 3T190 85q-1 3 1 5t5 1zm-92 0q3 1 5-1t1-5q-4-15-8-18.5t-9-3q-5 .5-8.5 4t-3.5 9q0 5.5 4 9t19 5.5zm92 45q-3-1-5 1t-1 5q4 15 8 18.5t9 3q5-.5 8.5-4t3.5-9q0-5.5-4-9t-19-5.5zm-92 0q-15 3-19 6t-4 8.5q0 5.5 3.5 9t8.5 4q5 .5 9-3t8-18.5q1-3-1-5t-5-1zm196-22v37q0 41-20 75.5T225.5 281Q191 301 150 301t-75.5-20Q40 261 20 226.5T0 151v-38q0-30 20-56t54.5-41Q109 1 150 1t75.5 15Q260 31 280 57t20 57zm-275 0q0 23 17 43t45.5 32q28.5 12 62.5 12t62.5-12q28.5-12 45.5-32t17-43.5Q275 90 258 70t-45.5-32Q184 26 150 26T87.5 38Q59 50 42 70t-17 44zm247 65q-21 22-53 34.5T150 226q-37 0-69-12.5T28 179q7 28 24.5 50t43 34.5Q121 276 150 276t54.5-12.5q25.5-12.5 43-34.5t24.5-50zm-122-53q16 0 27-3.5t11-9q0-5.5-11-9t-27-3.5q-16 0-26.5 3.5t-10.5 9q0 5.5 10.5 9T150 126z"/></svg>