<svg viewBox="0 0 300 302.0011" xmlns="http://www.w3.org/2000/svg"><path d="M238 1H63Q46 1 31.5 9.5t-23 23Q0 47 0 63v175q0 17 8.5 31.5t23 23Q46 301 62 301h142q13 0 24.5-4.5T248 283l34-34q9-8 13.5-19.5T300 205V63q0-16-8.5-30.5t-23-23Q254 1 238 1zM25 238V63q0-15 11-26t26-11h176q15 0 26 11t11 27v124h-50q-16 0-26.5 11T188 226v50H63q-16 0-27-11t-11-26v-1zm206 27q-8 8-19 10v-49q1-5 4.5-8.5t8.5-3.5h49q-2 10-10 18l-33 33zM100 110v5q0 10-7.5 17T75 139q-10 0-17.5-7T50 115V88q0-10 7.5-17.5T75 64q7 0 13 3.5t9 9.5q2 4-.5 8t-7 3.5q-4.5-.5-6.5-5T76 79q-5 0-7.5 3T66 88v26q0 4 2.5 7t6.5 3q4 0 6.5-3t2.5-6v-2h-3q-2 0-4-1.5t-2-4q0-2.5 2-4.5t4-2h10q4 0 6.5 2.5t2.5 6.5zm75-1v22q0 4-2.5 6t-5.5 2q-3 0-5.5-2t-2.5-6V71q0-3 2.5-5.5T167 63h25q4 0 6 2.5t2 6q0 3.5-2 5.5t-6 2h-17v14h15q4 0 6 2.5t2 5.5q0 3-2 5.5t-6 2.5h-15zm-37-38v61q0 3-2.5 5t-6 2q-3.5 0-5.5-2t-2-5V71q0-3 2-5.5t5.5-2.5q3.5 0 6 2.5T138 71z"/></svg>