<svg viewBox="0 0 300 302.0011" xmlns="http://www.w3.org/2000/svg"><path d="M299 144q-5-39-28-69.5t-57.5-47Q179 11 140 13.5T69 37Q37 58 18.5 91.5T0 163q0 31 12 59.5T47 272q18 17 42 16h122q12 1 23.5-4t20.5-13q25-25 36.5-58.5T299 144zm-62 109q-11 11-26 10H89q-14 1-25-9-19-17-29-41t-10-50q0-26 11-50.5T67 70q17-15 38.5-23.5T150 39h15q35 4 63.5 27t40 57q11.5 34 3 69.5T237 253zM98 217q3 4 3 9t-3.5 8.5q-3.5 3.5-8.5 4t-9-3.5q-22-21-28-51t5.5-58q11.5-28 37-45T150 64q7-1 13 0t9.5 5.5Q176 74 175 79t-5 8q-4 3-9 2-24-3-45.5 8.5t-32.5 33Q72 152 76 176t22 41zm151-68q1 7 1 15 0 20-8 38.5T220 235q-4 4-9 3.5t-8.5-4Q199 231 199 226t3-9q13-12 19-29t3-35q-1-5 2.5-9.5t8.5-5q5-.5 9 2.5t5 8zm-75 8q2 8-1 16t-10.5 12.5q-7.5 4.5-16 3.5t-15-7q-6.5-6-7.5-14.5t3.5-16q4.5-7.5 12.5-11t16-1.5l48-47q5-5 12-3t9 9q2 7-4 12l-47 47z"/></svg>