<svg viewBox="0 0 300 302.0011" xmlns="http://www.w3.org/2000/svg"><path d="M150 38q13 0 22 9.5t9 22.5q0 13-9 22t-22 9q-13 0-22-9t-9-22q0-13 9-22.5t22-9.5zm143 168q-7 7-18 7 0 11-7.5 18t-17.5 7v27q0 10-5.5 18.5t-14 13Q222 301 212 301H88q-10 0-18.5-4.5T56 284q-6-10-6-21v-24q-10 0-17.5-7.5T25 214q-11 0-18-8t-7-19q2-46 12-74 13-37 38-37 28 0 53 19 15 12 27 28 20 6 40 0 12-16 27-28 25-19 53-19 25 0 38 37 10 28 12 74 0 11-7 19zm-243-5v12h13q3 0 6 2l39-81q-10-12-22-20-18-13-36-13-8 0-15.5 24T25 189l13-1q5 0 8.5 4t3.5 9zm174 58l-53-111q-21 6-42 0L76 259l-1 3v3q0 3 2 5 4 6 10 6h125q7 0 11-5.5t1-11.5zm51-71q-2-39-9.5-63T250 101q-18 0-36 13-12 8-22 20l39 81q3-2 7-1h12v-13q0-5 3.5-9t9.5-4h12zM100 54q5 0 8.5-3.5t4-8.5q.5-5 11-10.5T150 26q16 0 27 5.5T187.5 42q-.5 5 3.5 8.5t9 3.5q5 0 8.5-3.5T212 42q1-18-17-29.5T150 1q-27 0-44.5 11.5T88 42q-1 5 3 8.5t9 3.5z"/></svg>