<svg viewBox="0 0 300 302.0011" xmlns="http://www.w3.org/2000/svg"><path d="M238 276h-17q19-16 30.5-39t11.5-48q0-38-41-86-24-30-58-57 7-4 9.5-12t0-15.5Q171 11 164.5 6T150 1q-8 0-14.5 4.5t-9 12.5q-2.5 8 0 15.5T135 46q-34 24-58 52-40 46-40 90 0 26 11.5 49T79 276H63q-6 0-9.5 3.5t-3.5 9q0 5.5 3.5 9T63 301h175q5 0 8.5-3.5t3.5-9q0-5.5-3.5-9T238 276zM63 188q0-36 35-76 21-24 51-46 23 19 43 40l-52 62q-3 4-2.5 9t4.5 8.5q4 3.5 9 3t9-4.5l49-59q29 37 29 63-1 24-12.5 44T194 264q-20 12-44 12t-44-12q-20-12-32-32t-12-43l1-1z"/></svg>