<svg viewBox="0 0 300 302.0011" xmlns="http://www.w3.org/2000/svg"><path d="M163 127v-14h25q5 1 8.5-3t3.5-9q0-5-3.5-9t-8.5-3h-25V33l28 27q4 3 9 3.5t9-3.5q4-4 3.5-9.5T209 42l-32-30Q166 1 150.5 1T124 12L91 42q-3 3-3.5 8.5t3 9q3.5 3.5 9 4T109 60l28-27v55h-25q-5 1-8.5 4.5T100 101q0 5 3.5 8.5t8.5 3.5h25v14q-20 3-37.5 15T72 173q-10 19-10 41.5T74 257q12 20 32 32t44 12q24 0 44-12t31.5-32q11.5-20 11.5-42.5t-9.5-41.5q-9.5-19-27-31T162 127h1zm-13 149q-17 0-31.5-8.5t-22.5-23q-8-14.5-8-31t8-31q8-14.5 22.5-23T150 151q17 0 31.5 8.5t22.5 23q8 14.5 8.5 31t-8 31q-8.5 14.5-23 23T150 276z"/></svg>