<svg viewBox="0 0 300 302.0011" xmlns="http://www.w3.org/2000/svg"><path d="M275 126q0-16-9-28.5t-23.5-18Q228 74 213 78t-25 15q-10-11-25-15 1-20 9-33 7-12 16.5-16.5T205 27q7 3 8 11-6 0-9.5 4t-3.5 9q0 5 3.5 9t8.5 4q11-1 18-8t7-18q-1-17-11-26.5T201.5 1Q187 0 173 8.5T150 33q-4-8-13-17-10-11-18-14-11-4-18 6-2 5-.5 9.5T107 25q27 13 30 53-15 4-25 15-10-12-26-15.5t-31 3Q40 87 32 101t-6.5 30Q27 147 38 159.5T65 175q-3 10-2 20t6.5 19q5.5 9 14 15t18.5 8q-4 16 1 31t18 24q13 9 29 9t29-9q13-9 18-24t1-31q10-2 18.5-8t14-15q5.5-9 6.5-19t-2-20q18-4 29-17.5t11-31.5zm-125-25q10 0 17.5 7.5T175 126q0 10-7.5 17.5T150 151q-10 0-17.5-7.5T125 126q0-10 7.5-17.5T150 101zM50 126q0-10 7.5-17.5T75 101q10 0 17.5 7.5T100 126q0 10-7.5 17.5T75 151q-10 0-17.5-7.5T50 126zm38 62q0-9 6-16 11-4 19-13 7 9 18 13 6 7 6.5 15t-4 15q-4.5 7-12.5 10t-16 .5q-8-2.5-13-9T88 188zm62 88q-7 0-13-4t-9.5-10.5q-3.5-6.5-2-14T131 235q11-5 19-14 8 9 19 14 5 5 6 12.5t-2 14q-3 6.5-9.5 10.5t-13.5 4zm38-63q-8 0-14-4t-9-10.5q-3-6.5-2-13.5t6-13q11-4 19-13 7 9 18 13 5 6 6 13t-2 13.5q-3 6.5-9 10.5t-14 4h1zm37-62q-10 0-17.5-7.5T200 126q0-10 7.5-17.5T225 101q10 0 17.5 7.5T250 126q0 10-7.5 17.5T225 151z"/></svg>