<svg viewBox="0 0 300 302.0011" xmlns="http://www.w3.org/2000/svg"><path d="M279 13q-10-8-22.5-10.5T231 2l-96 21-32-16Q90 1 75 1T47 7L28 17Q15 23 7.5 35.5T0 62v206q0 21 14 30 6 3 13 3 10 0 21-7l28-17 39 19q22 8 45 4l89-16q22-4 36.5-21.5T300 222V57q0-13-5.5-24.5T279 13zM35 273q-3 2-5.5 2.5t-3.5 0q-1-.5-1-7.5V62q0-7 3.5-13T39 39l23-11v228l-27 17zm53-18V28l37 18v227l-38-18h1zm187-33q0 14-8.5 24.5T244 259l-94 17V46l87-19q14-4 26 5.5T275 57v165zM250 67q1 5-1.5 9t-8.5 5l-53 12q-4 0-7.5-3t-4.5-7.5q-1-4.5 2-9t8-5.5l50-11q5-1 9.5 1.5T250 67zm0 50q1 5-1.5 9t-8.5 5l-53 12q-4 0-7.5-3t-4.5-7.5q-1-4.5 2-9t8-5.5l50-11q5-1 9.5 1.5t5.5 8.5zm0 50q1 5-1.5 9t-8.5 5l-53 12q-4 0-7.5-3t-4.5-7.5q-1-4.5 2-9t8-5.5l50-11q5-1 9.5 1.5t5.5 8.5zm-25 55q1 5-2 9.5t-8 5.5l-28 6q-4 0-7.5-3t-4.5-7.5q-1-4.5 2-9t8-5.5l25-6q5-1 9.5 2t5.5 8z"/></svg>