<svg viewBox="0 0 300 302.0011" xmlns="http://www.w3.org/2000/svg"><path d="M138 95v43q0 21-15 35.5T87 188q-5 0-8.5-3.5T75 176q0-5 3.5-9t9.5-4q10 0 17.5-7t7.5-17H94q-8-1-13.5-6T75 120v-19q0-10 7.5-17.5T100 76h19q8 0 13.5 5.5T138 95zm68-19h-18q-11 0-18 7.5t-7 17.5v19q0 8 5 13t13 6h19q0 10-7.5 17.5T175 164q-5-1-9 3t-3.5 9q.5 5 4 9t8.5 4q21-1 35.5-15.5T225 138V95q0-8-5.5-13.5T206 76zm94-25v150q0 21-14.5 35.5T250 251h-36l-48 40q-7 6-16 6t-17-7l-46-39H50q-21 0-35.5-14.5T0 201V51q0-21 14.5-35.5T50 1h200q21 0 35.5 14.5T300 51zm-25 0q0-10-7.5-17.5T250 26H50q-10 0-17.5 7.5T25 51v150q0 10 7.5 17.5T50 226h41q5 0 8 3l51 43 52-43q3-3 8-3h40q10 0 17.5-7.5T275 201V51z"/></svg>