<svg viewBox="0 0 300.5042 302.0011" xmlns="http://www.w3.org/2000/svg"><path d="M299.504 273q-7 13-19 20.5t-27 7.5q-11 0-22-5l-225-109q-5-2-6.5-7t.5-9.5q2-4.5 7-6.5t10 1l111 54 21-42-27-19q-10-10-10-24.5t10-24.5l-59-28-5 10q-3 7-11 7-3 0-6-1-4-2-6-7t0-10l5-10-8-4q-5-2-6.5-7t.5-9.5q2-4.5 6.5-6t9.5.5l9 4 5-10q2-5 7-6.5t9.5.5q4.5 2 6 7t-.5 10l-4 9 67 32 15-15q12-12 28-12 13 1 23 10 8 6 12.5 15t4.5 19v15q0 4 2 7t5 5l34 15q5 3 6.5 7.5t-.5 9.5q-2 5-7 6.5t-9-.5l-34-16q-10-4-16-13.5t-6-20.5v-15q0-9-7-15-4-3-9-3.5t-9 3.5l-9 9 2 1q4 2 6 7t0 9.5q-2 4.5-7 6.5t-10 0l-10-5-5 5q-3 2-4 6t2 8l25 18q7 5 9 14.5t-2 17.5l-20 41 91 43q9 5 19 1.5t15-12.5q3-5 7.5-6.5t9 1q4.5 2.5 6.5 7t0 9.5zm-69-210q13 0 22-9t9-22q0-13-9-22t-22-9q-13 0-22 9t-9 22q0 13 9 22t22 9z"/></svg>