<svg viewBox="0 0 301 302.0011" xmlns="http://www.w3.org/2000/svg"><path d="M8 64q14-8 22-12 12-5 21-5 14 0 34 17h30l-3-2q-15-3-22.5-10.5T76 16q-1-6 4-11t11-4q27 6 37 15.5T146 46q4 10 6 18h38l-3-2q-15-3-22.5-10.5T151 16q-1-6 4-11t11-4q27 6 37 15.5T221 46q4 10 6 18h61q6 0 9.5 3.5T301 76q0 5-3.5 9t-9.5 4h-61l-3 8q-3 11-8 19-6 12-12 19-11 10-38 16-6 1-11-4t-4-11q6-28 13.5-35.5T187 90l3-2h-38l-3 9q-3 11-8 19-6 12-12 19-11 10-38 16-6 1-11-4t-4-11q6-28 13.5-35.5T112 90l3-2H85q-20 17-34 17-9 0-21-5-8-4-22-12-8-4-8-12t8-12zm285 116q6 7 7.5 16.5T299 215q-6 22-28 43-15 15-37 28-23 15-52 15h-62q-29 0-52-15-22-13-37-28-22-21-28-43-3-9-1.5-18.5t7.5-17q6-7.5 14.5-12T42 163h218q10 0 18.5 4.5T293 180zm-20 15q-5-6-13-6H42q-8 0-12.5 6T27 208q3 13 17.5 28.5T81 265q17 11 39 11h62q22 0 39-11 22-13 36.5-28.5T275 208q2-7-2-13z"/></svg>