<svg viewBox="0 0 300 302.0011" xmlns="http://www.w3.org/2000/svg"><path d="M206 90zM94 90zm206 98q-1 22-16.5 36T248 238q-11 0-21-4t-18-12q-3-3-7-9-8 41-18 62-14 26-34 26t-34-26q-10-21-18-62l-5 6q-8 9-18.5 14T52 238q-18 0-33-11Q3 213 .5 191.5T12 153q10-12 29-28 26-22 53-35 0-11 5.5-22T114 50q-3-10-.5-20t9.5-18q11-11 26.5-11T176 12q8 8 10.5 18t-.5 20q9 7 14.5 18t5.5 22q25 12 50 32 16 14 30.5 29t13.5 37zm-183-63q-8-5-13-12-23 11-46 30-17 14-27 26-7 9-6 20t10 18.5q9 7.5 20.5 6T74 203q9-11 43-78zm50 126h-34q6 15 11 21 3 4 6 4t6-4q5-6 11-21zm12-50h-58q3 14 5 25h48q2-11 5-25zm2-25q-9-17-21-39-5 2-10 2t-11-2l-20 39h62zm0-88q0-9-9-17t-22-8q-13 0-22 8t-9 17q0 6 8 13t19 12q4 1 8 0 11-5 19-12t8-12v-1zm87 79q-12-12-26-24-23-19-46-30-5 7-13 12 35 70 45 80 7 8 18.5 8.5t20-7.5q8.5-8 8.5-19t-7-20z"/></svg>