<svg viewBox="0 0 300 302.0011" xmlns="http://www.w3.org/2000/svg"><path d="M38 70q0-8 5-13.5T56 51q8 0 13.5 5.5T75 70q0 8-5.5 13.5T56 89q-8 0-13-5.5T38 70zm68 18q8 1 13.5-4.5T125 70q0-8-5.5-13.5T106 51q-8 0-13.5 5.5t-5 13.5q.5 8 5.5 13.5t13 5.5v-1zm194-12v150q0 17-8.5 31.5t-23 22.5q-14.5 8-30.5 8H63q-17 0-31.5-8t-23-22.5Q0 243 0 226V76q0-17 8.5-31.5t23-22.5Q46 14 63 13h175q16 0 30.5 8.5t23 23Q300 59 300 76zM25 76v25h250V76q0-16-11-27t-27-10H63q-16-1-27 10T25 76zm250 150V126H25v100q0 16 11 27t27 11h175q15-1 26-11.5t11-26.5zm-75-75q-5 0-8.5 3.5T188 164v62q0 5 3.5 9t8.5 3.5q5-.5 8.5-4t3.5-8.5v-63q1-5-3-8.5t-9-3.5zm-50 0q-5 0-8.5 3.5T138 164v37q0 5-4 8.5t-9 3.5q-5 0-8.5-3.5T113 201v-38q0-5-4-8.5t-9-3.5q-5 0-8.5 3.5T88 164v37q0 16 10.5 27t26.5 11q16 0 27-11t11-27v-38q0-5-4-8.5t-9-3.5z"/></svg>