<svg viewBox="0 0 300 302.0011" xmlns="http://www.w3.org/2000/svg"><path d="M296 135l-12-33q-5-17-20-28t-33-11q-13 0-22 9.5T200 95v118H13q-6 0-9.5 4T0 226v19q0 9 4 17.5T14 277q13 11 30 12l4-1q16-1 27-13 13 13 31 13t31-12.5q13-12.5 13-30.5v-7h50v7q0 18 13 30.5t31 12.5q18 0 31-12.5t13-30.5v-10q5-3 8.5-9t3.5-13v-50q0-14-4-28zm-71 78v-50h50v50h-50zm6-125q10 1 18 6.5t12 15.5l9 28h-45V95q0-3 2-5t4-2zM46 263q-9 1-15-4.5T25 245v-7h38v5q-1 8-5.5 14T46 263zm79-18q0 8-5.5 13.5t-13.5 5q-8-.5-13-5.5t-5-13v-7h37v7zm119 18q-8 0-13.5-5t-5.5-13v-7h38v7q0 8-5.5 13.5T244 264v-1z"/></svg>