<svg viewBox="0 0 300 302.0011" xmlns="http://www.w3.org/2000/svg"><path d="M238 76H126l141-51q5-1 7-6t.5-10Q273 4 268 2t-10 0L43 79q-19 6-31 22.5T0 138v100q0 17 8.5 31.5t23 23Q46 301 63 301h175q16 0 30.5-8.5t23-23Q300 255 300 238V138q0-16-8.5-30.5t-23-23Q254 76 238 76zM63 101h175q12 0 21.5 7t13.5 18H27q4-11 10-16 9-9 26-9zm175 175H63q-16 0-27-11t-11-27v-87h250v87q0 16-11 27t-27 11h1zm-100-88q0 6-4 9.5t-9 3.5H63q-6 0-9.5-3.5t-3.5-9q0-5.5 3.5-9T63 176h62q5 0 9 3.5t4 8.5zm0 50q0 6-4 9.5t-9 3.5H63q-6 0-9.5-3.5t-3.5-9q0-5.5 3.5-9T63 226h62q5 0 9 3.5t4 8.5zm68-68q-18 0-30.5 12.5t-12.5 31q0 18.5 12.5 31T206 257q18 0 31-12.5t13-31q0-18.5-13-31T206 170zm0 62q-8 0-13-5.5t-5-13q0-7.5 5-13t13-5.5q8 0 13.5 5.5t5.5 13q0 7.5-5.5 13T206 232z"/></svg>