<svg viewBox="0 0 300 302.0011" xmlns="http://www.w3.org/2000/svg"><path d="M150 301q-28 0-48-19l-49-46q-20-20-30-45t-10-52.5Q13 111 23 86t29.5-44.5Q72 22 97 11.5T150 1q28 0 53 10.5T247 41q20 20 30.5 45t10.5 52.5q0 27.5-10.5 52.5T247 236l-50 46q-9 9-21.5 14t-25.5 5zm0-275q-23 0-43.5 8.5T70.5 59Q55 75 46 95.5t-8.5 43q.5 22.5 9 43T70 218l50 45q12 13 30 13t30-12l50-46q16-16 24.5-36.5t8.5-43q0-22.5-9-43T229.5 59q-15.5-16-36-24.5T150 26zm-1 155l72-71q4-4 4-9t-3.5-8.5q-3.5-3.5-9-4T204 92l-73 71-35-33q-4-4-9-4t-8.5 3.5q-3.5 3.5-3.5 9t4 8.5l35 34q7 7 17.5 7t17.5-7z"/></svg>