<svg viewBox="0 0 300 302.0011" xmlns="http://www.w3.org/2000/svg"><path d="M300 151v112q0 6-3.5 9.5t-9 3.5q-5.5 0-9-3.5T275 264V151q0-34-17-62.5T212.5 43Q184 26 150 26T87.5 43Q59 60 42 88.5T25 151v100q0 5-3.5 8.5t-9 3.5q-5.5 0-9-3.5T0 251V151q0-41 20-75.5T74.5 21Q109 1 150 1t75.5 20Q260 41 280 75.5t20 75.5zM127 274q-32-6-57-27-4-3-9-2.5t-8 4.5q-3 4-2.5 9t4.5 9q30 25 68 32h2q5 0 8-3t4-8q1-5-2-9t-8-5zm-2-154q0-8-5.5-13.5T106 101q-8 0-13.5 5.5t-5 13.5q.5 8 5.5 13.5t13 5q8-.5 13.5-5.5t5.5-13zm88 0q-1-8-6-13.5t-13-5.5q-8 0-13.5 5.5T175 120q0 8 5.5 13.5t13.5 5q8-.5 13-5.5t6-13zm25 81v87q-1 6-4.5 9.5T225 301q-5 0-8.5-3.5T213 288v-52q-7 2-13 2h-12v26q0 5-4 8.5t-9 3.5q-5 0-8.5-3.5T163 264v-26h-63q-16 1-26.5-10T63 201q0-16 10.5-27t26.5-11h100q16 0 27 11t11 27zm-138 12h13v-25h-13q-5 0-8.5 4t-3.5 9q0 5 3.5 8.5t8.5 3.5zm63 0v-25h-25v25h25zm50-12q0-5-4-8.5t-9-3.5h-12v25h12q5 0 9-4t4-9z"/></svg>