<svg viewBox="0 0 300 302.0011" xmlns="http://www.w3.org/2000/svg"><path d="M113 218q-4 0-7-2.5t-4-6q-1-3.5 0-6.5l11-35-28-22q-2-2-3-5.5t0-7q1-3.5 4-5.5t7-2h34l12-32q1-4 4-6t7-2q4 0 7 2t4 6l12 32h34q4 0 7 2t4 5.5q1 3.5 0 7t-3 5.5l-27 23 11 34q1 3 0 6.5t-4 6q-3 2.5-6.5 2.5t-6.5-2l-32-21-31 21q-3 2-6 2zm125 83H63q-17 0-31.5-8.5t-23-23Q0 255 0 238V63q0-16 8.5-30.5t23-23Q46 1 63 1h175q16 0 30.5 8.5t23 23Q300 47 300 63v175q0 17-8.5 31.5t-23 23Q254 301 238 301zM63 26q-16 0-27 11T25 63v175q0 16 11 27t27 11h175q15 0 26-11t11-27V63q0-15-11-26t-26-11H63z"/></svg>