<svg viewBox="0 0 300 302.0011" xmlns="http://www.w3.org/2000/svg"><path d="M150 1q-41 0-75.5 20T20 75.5Q0 110 0 151t20 75.5Q40 261 74.5 281t75.5 20q41 0 75.5-20t54.5-54.5q20-34.5 20-75.5t-20-75.5Q260 41 225.5 21T150 1zm0 275q-34 0-62.5-17T42 213.5Q25 185 25 151t17-62.5Q59 60 87.5 43T150 26q34 0 62.5 17T258 88.5q17 28.5 17 62.5t-17 62.5Q241 242 212.5 259T150 276zm0-62q-1 5-4.5 8t-7.5 3h-3q-19-4-39-15-11-7-17-12-4-4-4-9t3.5-9q3.5-4 8.5-4t9.5 3.5Q101 183 109 188q15 10 31 12 5 1 8 5t2 9zm25-94q0-8 5.5-13.5T194 101q8 0 13.5 5.5t5 13.5q-.5 8-5.5 13.5t-13 5q-8-.5-13.5-5.5t-5.5-13zm-87 0q0-8 5-13.5t13-5.5q8 0 13.5 5.5T125 120q0 8-5.5 13.5t-13.5 5q-8-.5-13.5-5.5T87 120h1zm118 39q7 8 12 19 7 13 7 23t-7.5 17.5Q210 226 200 226t-17.5-7.5q-7.5-7.5-7.5-17t7-23.5q6-11 12-19 3-3 6.5-3t5.5 3z"/></svg>