<svg viewBox="0 0 300 302.0011" xmlns="http://www.w3.org/2000/svg"><path d="M287 135q-13-11-30-8-14 2-23 13t-9 25v11h-12V66q0-25-16.5-43.5T157 2q-14-2-26.5 2.5t-22 13q-9.5 8.5-15 21T88 64v50H75v-11q0-15-8.5-26T44 64q-17-3-30.5 8.5T0 101v25q0 17 8.5 31.5t23 23Q46 189 63 189h25v62q0 21 14.5 35.5T138 301h25q21 0 35.5-14.5T213 251h25q17 0 31.5-8.5T292 220q8-14 8-31v-25q0-18-13-29zm-12 54q0 15-11 26t-26 11h-38q-5 0-8.5 4t-3.5 9v12q0 11-7.5 18t-17.5 7h-25q-10 0-17.5-7t-7.5-18v-75q0-5-3.5-8.5T100 164H63q-16 0-27-11t-11-27v-25q0-6 4-9t9-3h2q5 1 7.5 5t2.5 9v11q0 10 7.5 17.5T75 139h13q10 0 17.5-7.5T113 114V64q0-17 12.5-28T154 26q14 2 24 13.5T188 66v110q0 11 7.5 18t17.5 7h12q11 0 18-7t7-18v-11q0-5 3-9t8.5-4.5q5.5-.5 9.5 3t4 9.5v25zm-150 43q0 8 5.5 13.5T144 251q8 0 13.5-5.5T163 232q0-8-5.5-13.5T144 213q-8 0-13.5 5.5T125 232zm0-150q0 8 5.5 13.5T144 101q8 0 13-5.5t5.5-13.5q.5-8-5-13.5t-13.5-5q-8 .5-13.5 5.5T125 82zm13 75q0 8 5 13.5t13 5.5q8 0 13.5-5.5T175 157q0-8-5.5-13t-13.5-5.5q-8-.5-13.5 5T138 157z"/></svg>