<svg viewBox="0 0 300 302.0011" xmlns="http://www.w3.org/2000/svg"><path d="M288 226H100q-16 0-27-11t-11-26V51q1-21-14-35.5T13 1Q7 1 3.5 4.5t-3.5 9q0 5.5 3.5 9T13 26q10 0 17 7.5T37 51v137q1 19 11 34.5T75 246v11q0 18 13 31t31 13q18 0 31-13t13-31v-6h37v6q0 18 13 31t31 13q18 0 31-13t13-31v-6q5 0 8.5-3.5t3.5-9q0-5.5-3.5-9T288 226zm-150 31q-1 8-6 13.5t-13 5.5q-8 0-13.5-5.5T100 257v-6h38v6zm125 0q0 8-5.5 13.5T244 276q-8 0-13.5-5.5T225 257v-6h38v6zm-125-56h100q20 0 35-14.5t15-35.5V88q0-20-15-35t-35-15H138q-21 0-35.5 15T88 89v62q0 21 14.5 35.5T138 201zm37-138h25v38h-25V63zm-62 25q0-10 7-17.5t18-7.5h12v38q0 10 7.5 17.5T175 126h25q10 0 17.5-7.5T225 101V63h13q10 1 17 8t8 17v63q0 10-7.5 17.5T238 176H138q-11 0-18.5-7.5T112 151V88h1z"/></svg>