<svg viewBox="0 0 300 302.0011" xmlns="http://www.w3.org/2000/svg"><path d="M250 76h-12V51q0-21-15-35.5T187 1H88Q67 1 52.5 15.5T38 51v62q0 14 6 26-18 2-31 16T0 189v62q0 21 14.5 35.5T50 301h100q21 0 35.5-14.5T200 251v-13h50q21 0 35.5-14.5T300 188v-62q0-21-14.5-35.5T250 76zM63 51q-1-10 6.5-17.5T88 26h100q10 0 17.5 7.5T213 51v25h-63q-21 0-35.5 14.5T100 126v12H88q-11 0-18-7t-7-17V51zm87 112q3 0 6 1l-44 44q-5 5-12 5t-12-5l-44-44q3-1 6-1h100zm25 88q0 10-7.5 17.5T150 276H50q-10 0-17.5-7.5T25 251v-63q0-3 1-6l44 44q13 13 30.5 13t29.5-13l44-44q1 3 1 7v62zm100-63q0 11-7.5 18.5T250 214h-50v-26q0-20-14.5-35T150 138h-25v-12q0-10 7.5-17.5T150 101h100q10 0 17.5 7.5T275 126v62zm-25-50q0 6-3.5 9.5t-9 3.5q-5.5 0-9-3.5t-3.5-9q0-5.5 3.5-9t9-3.5q5.5 0 9 3.5t3.5 9.5v-1z"/></svg>