<svg viewBox="0 0 300 302.0011" xmlns="http://www.w3.org/2000/svg"><path d="M249 70l-43-43q-13-13-29-19.5T144 1H88Q71 1 56.5 9.5t-23 23Q25 47 25 63v175q0 17 8.5 31.5t23 23Q71 301 87 301h126q16 0 30.5-8.5t23-23Q275 255 275 238V132q0-17-6.5-33T249 70zm-17 18q5 5 9 13h-53q-6 0-9.5-3.5T175 88V35q8 4 13 9l44 44zm18 150q0 16-11 27t-26 11H88q-16 0-27-11t-11-27V63q0-15 11-26t27-11h56l6 1v61q0 16 11 27t26 11h62l1 6v106zm-45-72l-17 13v-16q0-5-4-8.5t-9-3.5H88q-6 0-9.5 3.5T75 163v75q0 6 3.5 9.5T87 251h88q5 0 9-3.5t3-9.5v-15l18 13q6 4 13 .5t7-10.5v-50q0-7-7-10.5t-13 .5zm-42 60h-63v-50h63v50z"/></svg>