<svg viewBox="0 0 300 302.0011" xmlns="http://www.w3.org/2000/svg"><path d="M300 151q0 14-2 27-1 5-5.5 8t-9.5 2q-5-1-8-5t-2-9q2-12 2-23 0-34-17-62.5T212.5 43Q184 26 150 26T87.5 43Q59 60 42 88.5T25 151q0 34 17 62.5T87.5 259q28.5 17 62.5 17 17 0 34-5 5-1 9.5 1.5t6 7.5q1.5 5-1 9.5T191 295q-20 6-41 6-41 0-75.5-20T20 226.5Q0 192 0 151t20-75.5Q40 41 74.5 21T150 1q41 0 75.5 20T280 75.5q20 34.5 20 75.5zM88 201q16 0 28 4 22 7 36 28 4 6 11 6 3-1 7-3t5-7.5q1-5.5-2-9.5-29-43-86-43-5 0-8.5 3.5t-3.5 9q0 5.5 3.5 9T87 201h1zm6-75q8 0 13.5-5.5t5-13.5q-.5-8-5.5-13t-13-5q-8 0-13.5 5T75 107q0 8 5.5 13.5T94 126zm156 6v156q0 6-3.5 9.5t-9 3.5q-5.5 0-9-3.5T225 288V179q-14 9-31 10-24-1-40-17t-16-39.5q0-23.5 16-40T193.5 76q23.5 0 40 16.5T250 132zm-25 0q0-13-9-22t-22-9q-13 0-22.5 9t-9.5 22q0 13 9.5 22t22.5 9q13 0 22-9t9-22z"/></svg>