<svg viewBox="0 0 300 302.0011" xmlns="http://www.w3.org/2000/svg"><path d="M150 151q21 0 35.5-14.5T200 101q0-21-14.5-35.5T150 51q-21 0-35.5 14.5T100 101q0 21 14.5 35.5T150 151zm0-75q10 0 17.5 7.5T175 101q0 10-7.5 17.5T150 126q-10 0-17.5-7.5T125 101q0-10 7.5-17.5T150 76zm108 39l-9-3q3-21-3.5-41.5t-21-36Q210 19 190.5 10t-41-9q-21.5 0-41 9t-34 25.5Q60 52 54 72.5T51 115q-18 3-32 16-9 9-14 20.5T0 176v51q0 21 12.5 37.5T45 287l36 11q9 3 18 3t17-2l73-22q10-2 19 0l30 10q11 3 22.5.5T281 278q9-7 14-17.5t5-21.5v-65q0-19-11.5-35.5T258 115zM97 48q11-11 24.5-16.5T150 26q15 0 28.5 5.5T203 48q14 14 19 33.5t0 39q-5 19.5-19 33.5l-44 43q-4 4-9 4t-9-4l-44-43q-14-14-19-33.5T78 82q5-19 19-34zm178 191q0 12-9.5 19.5T245 263l-29-10q-17-4-34 0l-72 22q-11 3-22-1l-36-11q-12-3-19.5-13.5T25 227v-51q0-16 12-27 8-8 20-10 8 19 22 33l45 43q11 11 26 11t26-11l45-43q15-15 22-35l7 2q11 4 18 14t7 21v65z"/></svg>