<svg viewBox="0 0 300 302.0011" xmlns="http://www.w3.org/2000/svg"><path d="M200 238q0 16-11 27t-26 11v12q-1 6-4.5 9.5T150 301q-5 0-9-3.5t-4-9.5v-12h-3q-10 0-18.5-5T102 257q-3-4-1.5-9t6-7.5q4.5-2.5 9.5-1.5t8 6.5q3 5.5 10 5.5h28q6 0 9.5-3.5t3.5-8q0-4.5-2.5-7T167 229l-38-6q-13-2-21-12t-8-23q0-15 11-26t26-11v-13q0-5 4-8.5t9-3.5q5 0 8.5 3.5t3.5 8.5v13h4q10 0 18.5 5t13.5 14q3 4 1.5 9t-6 7.5Q189 189 184 188t-8-6.5q-3-5.5-10-5.5h-28q-6 0-9.5 3.5t-3.5 8q0 4.5 2.5 7t5.5 3.5l38 6q13 2 21 12t8 22zm96-101l-28-29q-8-7-18-7t-18 7l-28 29q-4 4-4 9t3.5 8.5q3.5 3.5 9 3.5t8.5-3l17-17v150q0 6 3.5 9.5t8.5 3.5q5 0 9-3.5t4-9.5V138l16 17q3 3 8.5 3t9-3.5q3.5-3.5 3.5-8.5t-4-9zM121 55l17-17v50q0 6 3.5 9.5t8.5 3.5q5 0 9-3.5t4-9.5V38l16 17q3 3 8.5 3t9-3.5Q200 51 200 46t-4-9L168 8q-8-7-18-7t-18 7l-28 29q-4 4-4 9t3.5 8.5q3.5 3.5 9 3.5t8.5-3zM96 99L68 71q-8-7-18-7t-18 7L4 99q-4 4-4 9t3.5 9q3.5 4 9 4t8.5-4l17-16v187q-1 6 3 9.5t9 3.5q5 0 8.5-3.5T62 288V101l17 16q3 4 8.5 4t9-4q3.5-4 3.5-9t-4-9z"/></svg>