<svg viewBox="0 0 300 302.0011" xmlns="http://www.w3.org/2000/svg"><path d="M275 73V26q0-5-3.5-9t-9-4q-5.5 0-9 4t-3.5 9v30l-65-44Q169 1 150 1t-35 11L28 71Q15 79 7.5 93T0 123v115q0 17 8.5 31.5t23 23Q46 301 63 301h48q8 0 14.5-4.5T135 285l16-42q2-6-1.5-11.5T139 226h-34q-3 0-4.5-2.5t.5-4.5l62-92q0-1 1.5-1t2 1q.5 1-.5 2l-17 56q-1 6 2.5 11t9.5 5h36q2 0 2.5 1t.5 3l-22 63q-4 12 3.5 22.5T202 301h36q16 0 30.5-8.5t23-23Q300 255 300 239V123q0-15-6.5-28.5T275 73zm0 165q0 16-11 27t-27 11h-35l21-63q3-6 2-13t-5-12.5q-4-5.5-10-8.5t-13-3h-19l12-40q4-13-4-24t-21-11q-7 0-13 3t-10 9l-62 92q-4 7-4.5 15t3.5 15.5q4 7.5 11 11.5t15 4h16l-10 25H63q-16 0-27-11t-11-27V123q0-10 4.5-18T42 91l87-59q10-6 21-6t21 6l87 59q8 6 12.5 14t4.5 18v115z"/></svg>