<svg viewBox="0 0 300 302.0011" xmlns="http://www.w3.org/2000/svg"><path d="M275 163h-12q-21 0-41-8 19-17 30-41t11-51q0-16-8.5-30.5t-23-23Q217 1 200 1t-31.5 8.5Q154 18 146 32.5T138 63q-1 27 10 51t30 41q-20 8-40 9-28-1-51-14t-36-36Q38 91 38 63q0-5-4-8.5T25 51q-5 0-8.5 3.5T13 63v225q0 6 3.5 9.5T25 301q5 0 8.5-3.5T37 288V138q11 15 25 25v125q1 6 4.5 9.5T75 301q5 0 8.5-3.5T88 288V178q12 5 25 8v102q0 6 3.5 9.5t8.5 3.5q5 0 9-3.5t4-9.5V188q12 0 25-2v102q0 6 3.5 9.5t8.5 3.5q5 0 9-3.5t4-9.5V178l12-6 12 6v110q0 6 4 9.5t9 3.5q5 0 9-3.5t4-9.5V186q12 3 25 3v99q0 6 3.5 9.5t8.5 3.5q5 0 9-3.5t4-9.5V176q0-5-4-9t-9-4zm-75-21q-17-15-27.5-35T162 63q1-15 11.5-26T200 26q16 0 26.5 11T237 64q1 23-9.5 43T200 142z"/></svg>