<svg viewBox="0 0 300 302.0011" xmlns="http://www.w3.org/2000/svg"><path d="M263 176h-50q-16 0-27 11t-11 26v50q0 16 11 27t26 11h51q15 0 26-11t11-27v-50q0-15-11-26t-27-11h1zm12 37v13h-25v-25h13q5 0 8.5 3.5t3.5 8.5zm-62-12h12v25h-25v-13q0-5 3.5-8.5t9.5-3.5zm-13 62v-12h25v25h-12q-6 0-9.5-3.5T200 263zm63 13h-13v-25h25v12q0 6-3.5 9.5T263 276zm7-125v-1l-1-1q-4-7-11-11-5-3-15-5-24-7-55-7h-26l63-44q6-5 9.5-12t3.5-14V46q0-2 1-4l20-20q4-3 4-8.5t-4-9Q255 1 250 1t-9 4l-19 19q-10 9-9 23v9q0 3-3 5l-48 35q7-9 7-20 0-8-4.5-15.5T153 49l-9-43q-1-5-6.5-5T131 6l-9 43q-7 4-11.5 11.5T106 76q0 11 7 19L65 61q-2-2-2-5V46q0-13-10-22L34 5q-4-4-9-4t-9 3.5q-4 3.5-4 9t4 8.5l20 20q2 2 2 4v10q-1 8 2.5 14.5T51 82l62 44H53q-14 1-21 3-18 4-26.5 20T2 182q3 14 15 22.5t26 8.5q6 0 12-1 11-3 41-29l-38 44q-8 9-8 21v12q0 4-2 5l-18 13q-4 4-5 9t2.5 9.5q3.5 4.5 9 4.5t8.5-3l18-13q5-4 8.5-10.5T75 260v-12q0-3 2-4l48-57v51q0 6 3.5 9.5t9 3.5q5.5 0 9-3.5t3.5-9.5v-25q0-16 8.5-30.5t23-23Q196 151 213 151h57zM48 188q-7 2-13.5-2T26 175q-2-7 1.5-13.5T38 153q7-2 49-2h6q-36 34-45 37z"/></svg>