<svg viewBox="0 0 300 302.0011" xmlns="http://www.w3.org/2000/svg"><path d="M287 47q-13-11-31-8-3 1-7 2-4-12-14-20t-22-8q-10 0-19 6-5-9-13.5-13.5T163 1q-13 0-23 8t-14 20q-4-2-7-2-18-3-31 8T75 63v109l-12-11q-11-10-26.5-9.5t-26 11.5Q0 174 .5 189.5T12 216l55 53q16 16 36.5 24t42.5 8h92q16 0 30.5-8.5t23-23Q300 255 300 238V76q0-17-13-29zm-12 191q0 16-11 27t-27 11h-91q-18 0-33.5-6.5T85 251l-56-53q-4-4-4-9t3.5-9q3.5-4 8.5-4t9 3l33 31q3 3 6.5 3.5t7-1Q96 211 98 208t2-7V63q0-5 4.5-9t9.5-3q5 1 8 5t3 9v61q0 5 3.5 8.5t9 3.5q5.5 0 9-3.5t3.5-8.5V38q0-5 3.5-8.5t9-3.5q5.5 0 9 3.5T175 38v88q0 5 3.5 8.5t9 3.5q5.5 0 9-3.5t3.5-8.5V51q0-5 3.5-9t9-4q5.5 0 9 4t3.5 9v75q0 5 3.5 8.5t9 3.5q5.5 0 9-3.5t3.5-8.5V77q0-5 3-9t8-4.5q5-.5 9.5 3T275 76v162zm-37-47q0 14-16 33-10 11-27 24-3 3-7.5 3t-7.5-3q-17-13-27-24-16-19-16-33 0-11 7.5-19.5t18-8.5q10.5 0 18 8.5T188 191q0-11 7-19.5t17.5-8.5q10.5 0 18 8.5T238 191z"/></svg>