<svg viewBox="0 0 300 302.0011" xmlns="http://www.w3.org/2000/svg"><path d="M300 151q0 48-27 86-3 5-8 5.5t-9.5-2.5q-4.5-3-5.5-8t2-9q23-32 23-72 0-34-17-62.5T212.5 43Q184 26 150 26T87.5 43Q59 60 42 88.5T25 151q0 28 11.5 52.5t32 42.5Q89 264 116 271q5 2 7.5 6.5t1 9q-1.5 4.5-4.5 7t-8 2.5l-3-1q-32-9-56.5-30T14 214Q0 184 0 151q0-41 20-75.5T74.5 21Q109 1 150 1t75.5 20Q260 41 280 75.5t20 75.5zm-182-39q4-2 6-7t0-9.5q-2-4.5-7-6.5t-10 1q-19 9-40 26v1q-4 3-4.5 8t3 9q3.5 4 9 4t8.5-2.5q3-2.5 11-8.5 13-10 24-15zm75-22q-5-3-10-1t-7 6.5q-2 4.5 0 9.5t6 7q17 8 35 23 3 4 8.5 3.5t9-4.5q3.5-4 3-9t-4.5-8q-20-18-40-27zm25 92q-7-4-13 .5t-16 9.5q-20 9-38.5 9T112 190q-10-5-16-11-4-3-9-3t-8.5 4q-3.5 4-3.5 9t4 9q9 7 22 14 25 14 49 14v37q0 6 3.5 9.5t9 3.5q5.5 0 9-3.5t3.5-9.5v-40q13-3 25-9v75q0 5 3.5 8.5t9 3.5q5.5 0 9-3.5t3.5-8.5v-96q0-8-7-11z"/></svg>