<svg viewBox="0 0 300 302.0011" xmlns="http://www.w3.org/2000/svg"><path d="M238 1H63Q46 1 31.5 9.5t-23 23Q0 47 0 64v12q0 17 13 28v134q0 17 8 31.5t22.5 23Q58 301 75 301h150q17 0 31.5-8.5t23-23Q288 255 288 238V104q12-11 12-28V63q0-16-8.5-30.5t-23-23Q254 1 237 1h1zM25 63q0-15 11-26t27-11h175q15 0 26 11t11 27v12q0 5-3.5 8.5T262 88H38q-6 0-9.5-3.5T25 76V63zm238 175q0 16-11 27t-27 11H75q-16 0-27-11t-11-27V113h226v125zM79 197q-4-3-4-8.5t3.5-9q3.5-3.5 9-3.5t8.5 4l31 30q3 3 8.5 3t8.5-3l60-56q4-3 9-3t8.5 4q3.5 4 3.5 9t-4 9l-59 55q-11 10-26.5 10T109 228l-30-31z"/></svg>