<svg viewBox="0 0 300 302.0011" xmlns="http://www.w3.org/2000/svg"><path d="M138 45q0 18-12.5 30.5T94.5 88q-18.5 0-31-12.5T51 45q0-18 12.5-31t31-13q18.5 0 31 13T138 45zm-43 56q-19 0-31.5 13T51 145q0 18 12.5 30.5t31 12.5q18.5 0 31-12.5T138 145q0-18-12.5-31T95 101zm-1 100q-18 0-31 13t-13 31q0 18 13 30.5T94 288q18 0 31-12.5t13-30.5q0-18-13-31t-31-13zm156-56q0 18-13 30.5T206 188q-18 0-30.5-12.5T163 145q0-18 12.5-31t30.5-13q18 0 31 13t13 31zm-25 0q0-8-5.5-13.5T206 126q-8 0-13 5.5t-5 13.5q0 8 5 13t13 5q8 0 13.5-5t5.5-13zM163 45q0-18 12.5-31T206 1q18 0 31 13t13 31q0 18-13 30.5T206 88q-18 0-30.5-12.5T163 45zm25 0q0 8 5 13t13 5.5q8 .5 13.5-5T225 45q0-8-5.5-13.5T206 26q-8 0-13 5.5T188 45zm62 200q0 18-13 30.5T206 288q-18 0-30.5-12.5T163 245q0-18 12.5-31t30.5-13q18 0 31 13t13 31zm-25 0q0-8-5.5-13.5T206 226q-8 0-13 5.5t-5 13.5q0 8 5 13.5t13 5q8-.5 13.5-5.5t5.5-13z"/></svg>