<svg viewBox="0 0 300 302.0011" xmlns="http://www.w3.org/2000/svg"><path d="M300 151q0-41-20-75.5T225.5 21Q191 1 150 1T74.5 21Q40 41 20 75.5T0 151q0 41 20 75.5T74.5 281q34.5 20 75.5 20t75.5-20q34.5-20 54.5-54.5t20-75.5zm-275 0q0-34 17-62.5T87.5 43Q116 26 150 26t62.5 17Q241 60 258 88.5t17 62.5q0 34-17 62.5T212.5 259Q184 276 150 276t-62.5-17Q59 242 42 213.5T25 151zm111 71q4-3 4-8.5t-4-8.5l-41-42h130q5 0 9-3.5t3.5-8.5q-.5-5-4-9t-8.5-4H95l41-41q5-5 3.5-12t-8.5-9q-7-2-12 3l-46 45q-10 11-10 27t10 27l45 44q4 4 9 4t9-4z"/></svg>