<svg viewBox="0 0 300 302.0011" xmlns="http://www.w3.org/2000/svg"><path d="M248 135q5-19-2-37l19-19q4 7 11 9t14-1.5q7-3.5 9.5-11t-1-14.5q-3.5-7-11-9T273 53q3-7 1-14t-9-11q-7-4-14.5-1.5t-11 9.5q-3.5 7-1.5 14t9 11l-19 19q-12-7-36-2-22 4-40 14-37-9-72.5 2T23 132Q0 162 0 201v32q0 23 15.5 41T54 295q45 7 97 5 63-2 101-18 47-20 48-56 0-23-13.5-47T248 135zm-65-29q13-5 23.5-5t14.5 4q6 5 3 21.5T212.5 161q-8.5 18-18.5 28-14 13-29.5 12t-27-12.5Q126 177 125 161.5t12-29.5q20-18 46-26zm-70 170q-28-1-56-6-14-2-23-12.5T25 233v-32q0-18 7.5-35t21-29.5Q67 124 84 118t36-4q-21 24-20 51 1 23 17.5 40t40 20.5Q181 229 203 214q24-16 37-53 43 44 33 71-8 23-55 34-40 9-105 10zM88 38V13q-1-5 3-8.5t9-3.5q5 0 8.5 3.5T112 13v25q1 6-3 9.5t-9 3.5q-5 0-8.5-3.5T88 39v-1zm50 0V13q-1-5 3-8.5t9-3.5q5 0 9 3.5t4 8.5v25q0 6-4 9.5t-9 3.5q-5 0-9-3.5t-4-8.5l1-1zM38 38V13q0-5 3.5-8.5T50 1q5 0 9 3.5t4 8.5v25q0 6-4 9.5T50 51q-5 0-8.5-3.5T38 39v-1z"/></svg>