<svg viewBox="0 0 300 302.0011" xmlns="http://www.w3.org/2000/svg"><path d="M150 26q-34 0-62.5 17T42 88.5Q25 117 25 151q0 5-3.5 8.5t-9 3.5q-5.5 0-9-3.5T0 151q0-41 20-75.5T74.5 21Q109 1 150 1t75.5 20Q260 41 280 75.5t20 75.5q0 5-3.5 8.5t-9 3.5q-5.5 0-9-3.5T275 151q0-34-17-62.5T212.5 43Q184 26 150 26zm85 55q-3-4-8-5t-10 3l-35 26q-7 6-7 14.5t5.5 14q5.5 5.5 13.5 5t13.5-5.5q5.5-5 5.5-13 0-3-1-6l21-16q4-3 4.5-8t-2.5-9zm-117 24L83 79q-5-4-10-3t-8 5q-3 4-2.5 9t4.5 8l21 16q0 3-1 6 1 8 6 13t13 5q8 0 13.5-5t5.5-13.5q0-8.5-7-14.5zM73 223l-41-7q-3 0-5-2t-2-5q0-3 2.5-5.5T33 201h33q7 0 10 5.5t8 6.5q5 1 9.5-1.5t6-7.5q1.5-5-1.5-9-5-9-13.5-14T66 176h-3q-1-5-4.5-9t-8.5-4q-5 0-8.5 4t-3.5 9h-5q-14 0-23.5 9.5T0 208q0 13 8 22t19 11l41 7q3 0 5 2.5t2 5.5q0 3-2.5 5t-5.5 2H34q-7 0-10-5t-8-6.5q-5-1.5-9.5 1t-6 7.5Q-1 265 2 270q5 8 13.5 13t18.5 5h4q0 6 3.5 9.5T50 301q5 0 9-3.5t4-9.5h4q14 0 23.5-9.5t9.5-22q0-12.5-7.5-22T73 223zm65-47q-6 0-9.5 3.5T125 188v63q0 5 3.5 8.5t9 3.5q5.5 0 9-3.5t3.5-8.5v-63q0-5-3.5-8.5T138 176zm137 50v25h13q5 0 8.5 3.5t3.5 9q0 5.5-3.5 9T288 276h-13v12q0 6-3.5 9.5t-9 3.5q-5.5 0-9-3.5T250 288v-12h-25v12q0 6-3.5 9.5t-9 3.5q-5.5 0-9-3.5T200 288v-12h-12q-6 0-9.5-3.5t-3.5-9q0-5.5 3.5-9t9.5-3.5h12v-25h-12q-6 0-9.5-3.5t-3.5-9q0-5.5 3.5-9t9.5-3.5h12v-13q0-5 3.5-8.5t9-3.5q5.5 0 9 3.5t3.5 8.5v13h25v-13q0-5 3.5-8.5t9-3.5q5.5 0 9 3.5t3.5 8.5v13h13q5 0 8.5 3.5t3.5 9q0 5.5-3.5 9T288 226h-13zm-25 0h-25v25h25v-25zm-112 50q-6 0-9.5 3.5t-3.5 9q0 5.5 3.5 9t9 3.5q5.5 0 9-3.5t3.5-9q0-5.5-3.5-9T137 276h1z"/></svg>