<svg viewBox="0 0 300 302.0011" xmlns="http://www.w3.org/2000/svg"><path d="M258 66q13-16 16-31.5t-7-25q-10-9.5-33-9t-44 12Q169 24 157 44q-5-19-21-31T100 1q-5 0-8.5 3.5t-4 9q-.5 5.5 3.5 9t9 3.5q16 0 26 12 7 9 10 23-22-11-46.5-9.5t-45 14Q24 78 12 99T0 145q0 36 16 67 15 27 40 49 22 19 48 29.5t46 10.5q20 0 46-10.5t48-29.5q25-22 40-49 16-31 16-67 0-24-11.5-45T257 66h1zm-24-40q8 0 16 2-6 24-27.5 36.5T169 76q6-22 24-36t41-14zm-84 250q-15 0-35-8-23-9-42-25-21-18-34-41-14-27-14-57 1-26 14.5-43t34-22.5Q94 74 114 79.5t34 22.5q14 17 15 43-2 40-23 74-3 4-2 9.5t5 8q4 2.5 9.5 1.5t7.5-5q7-7 15-30 10-27 12-51 2-31-10-51 33 1 61-17 17 9 27 25.5t10 35.5q0 30-14 57-13 23-34 41-19 16-42 25-20 8-35 8z"/></svg>