<svg viewBox="0 0 300 302.0011" xmlns="http://www.w3.org/2000/svg"><path d="M225 301h-12q-6 0-9.5-3.5t-3.5-9q0-5.5 3.5-9t8.5-3.5h13q5 0 9 3.5t4 9q0 5.5-4 9t-9 3.5zm-62 0H75q-5 0-8.5-3.5t-3.5-9q0-5.5 3.5-9T75 276h88q5 0 8.5 3.5t3.5 9q0 5.5-3.5 9T163 301zm62-50h-87q-6 0-9.5-3.5t-3.5-9q0-5.5 3.5-9t9.5-3.5h87q5 0 9 3.5t3.5 9q-.5 5.5-4 9T225 251zm-137 0H75q-5 0-8.5-3.5t-3.5-9q0-5.5 3.5-9T75 226h13q5 0 8.5 3.5t3.5 9q0 5.5-3.5 9T87 251h1zm-55-13q-4 1-7-2-12-10-18.5-23.5T.5 184q-.5-15 5-28.5T23 131q5-4 4-11-4-18-1-36 6-31 27.5-53.5T106 3q34-7 64.5 8.5T215 58q3 6 10 7 26 5 44.5 23t26 43q7.5 25 1.5 50.5T271 225q-5 5-12 3t-9-9q-2-7 4-12 14-14 18.5-32t-1-36.5q-5.5-18.5-19-31.5T220 90q-9-2-16-7.5T193 69q-11-22-32.5-34T115 26.5Q91 30 73 47T51 88q-2 14 0 27 2 10-1 19t-10.5 15.5Q32 156 28.5 165T25 183.5q0 9.5 4.5 18T41 216q3 3 4 6.5t0 7.5q-1 4-4.5 6.5T33 238zm192-37h-12q-6 0-9.5-3.5t-3.5-9q0-5.5 3.5-9t8.5-3.5h13q5 0 9 3.5t3.5 9q-.5 5.5-4 9T225 201zm-62 0H75q-5 0-8.5-3.5t-3.5-9q0-5.5 3.5-9T75 176h88q5 0 8.5 3.5t3.5 9q0 5.5-3.5 9T163 201z"/></svg>