<svg viewBox="0 0 300 302.0011" xmlns="http://www.w3.org/2000/svg"><path d="M255 163q-14 0-25 8-7-78-70-165-4-5-10-5t-10 5q-31 43-49 84.5T70 171q-15-10-31.5-7T11 182Q0 197 0 220q0 29 17 49.5t42.5 28Q85 305 110 296t40-33q15 24 40 33t50.5 1.5q25.5-7.5 42.5-28t17-49.5q0-25-13.5-41T255 163zM150 35q44 61 55 134-14-8-29.5-4.5T150 181q-10-13-25.5-16.5T95 169q11-73 55-134zM81 276q-23 0-39.5-16.5T25 220q0-16 7-25 6-6 12-6t9 1q3 1 7 4.5t8 4.5q5 2 13 2t14-2q3-1 7-4.5t7-4.5q3-1 9-1.5t12 6.5q8 9 8 25-1 23-17 39.5T81 276zm138 0q-24 0-40-16.5T163 220q0-16 7-25 6-6 11.5-6t9 1q3.5 1 7.5 4.5t7 4.5q6 2 14 2t13-2q4-1 8-4.5t7-4.5q3-1 8.5-1.5T267 195q8 9 8 25 0 23-16.5 39.5T219 276z"/></svg>