<svg viewBox="0 0 300 302.0011" xmlns="http://www.w3.org/2000/svg"><path d="M238 26H93Q87 15 75.5 8T50 1Q29 1 14.5 15.5T0 51v187q0 17 8.5 31.5t23 23Q46 301 63 301h175q16 0 30.5-8.5t23-23Q300 255 300 238V88q0-16-8.5-30.5t-23-23Q254 26 237 26h1zm35 50h-60q-6 0-9.5-3.5T200 63V51h38q12 0 21.5 7T273 76zM25 51q0-10 7.5-17.5T50 26q10 0 17.5 7.5T75 51v150q0 10-7.5 17.5T50 226q-10 0-17.5-7.5T25 201V51zm213 225H63q-14 0-24.5-9T25 245q12 6 25 6 21 0 35.5-14.5T100 201V51h75v12q0 16 11 27t26 11h63v137q0 16-11 27t-27 11h1zm-38-138q0 6-3.5 9.5t-9 3.5q-5.5 0-9-3.5t-3.5-9q0-5.5 3.5-9t9-3.5q5.5 0 9 3.5t3.5 9.5v-1zm-50 0q0 6-3.5 9.5t-9 3.5q-5.5 0-9-3.5t-3.5-9q0-5.5 3.5-9t9-3.5q5.5 0 9 3.5t3.5 9.5v-1zm100 0q0 6-3.5 9.5t-9 3.5q-5.5 0-9-3.5t-3.5-9q0-5.5 3.5-9t9-3.5q5.5 0 9 3.5t3.5 9.5v-1zm-50 50q0 6-3.5 9.5t-9 3.5q-5.5 0-9-3.5t-3.5-9q0-5.5 3.5-9t9-3.5q5.5 0 9 3.5t3.5 8.5zm-50 0q0 6-3.5 9.5t-9 3.5q-5.5 0-9-3.5t-3.5-9q0-5.5 3.5-9t9-3.5q5.5 0 9 3.5t3.5 8.5zm100 0q0 6-3.5 9.5t-9 3.5q-5.5 0-9-3.5t-3.5-9q0-5.5 3.5-9t9-3.5q5.5 0 9 3.5t3.5 8.5zm-50 50q0 6-3.5 9.5t-9 3.5q-5.5 0-9-3.5t-3.5-9q0-5.5 3.5-9t9-3.5q5.5 0 9 3.5t3.5 8.5zm-50 0q0 6-3.5 9.5t-9 3.5q-5.5 0-9-3.5t-3.5-9q0-5.5 3.5-9t9-3.5q5.5 0 9 3.5t3.5 8.5zm100 0q0 6-3.5 9.5t-9 3.5q-5.5 0-9-3.5t-3.5-9q0-5.5 3.5-9t9-3.5q5.5 0 9 3.5t3.5 8.5z"/></svg>