<svg viewBox="0 0 300 302.0011" xmlns="http://www.w3.org/2000/svg"><path d="M256 188h-8q2-6 2-12v-38q0-15-11-26t-26-11h-9q2-6 2-13V51q0-16-11-26.5T169 14h-38q-15-1-26 10T94 51v37q0 7 2 13h-8q-16 0-27 11t-11 26v38q0 6 2 12h-8q-16 0-27 11T6 226v37q0 16 11 27t27 11h37q14 0 25-10 11 10 25 10h38q14 0 25-10 11 10 25 10h37q16 0 27-11t11-27v-37q0-16-11-27t-27-11zm-31-50v38q0 5-3.5 8.5T212 188h-37q-5 0-8.5-3.5T163 176v-38q0-5 3.5-8.5t8.5-3.5h38q5 0 8.5 3.5t3.5 9.5v-1zM119 51q0-5 3.5-9t8.5-4h38q5 0 8.5 4t3.5 9v37q0 6-3.5 9.5T169 101h-38q-5 0-8.5-3.5T119 88V51zm-44 87q0-5 3.5-8.5T87 126h38q5 0 8.5 3.5t3.5 9.5v37q1 5-3 8.5t-9 3.5H88q-6 0-9.5-3.5T75 176v-38zm6 138H44q-5 0-9-3.5t-4-9.5v-37q0-5 4-9t9-4h37q5 0 9 4t4 9v37q0 6-4 9.5t-9 3.5zm88 0h-38q-5 0-8.5-3.5T119 263v-37q0-5 3.5-9t8.5-4h38q5 0 8.5 4t3.5 9v37q0 6-3.5 9.5T169 276zm100-13q0 6-4 9.5t-9 3.5h-37q-5 0-9-3.5t-4-9.5v-37q0-5 4-9t9-4h37q5 0 9 4t4 9v37z"/></svg>