<svg viewBox="0 0 300 302.0011" xmlns="http://www.w3.org/2000/svg"><path d="M150 1q-40 0-74.5 20.5t-55 55Q0 111 0 151.5t20.5 75Q41 261 75.5 281t75 20q40.5 0 75-20t54.5-54.5q20-34.5 20-75t-20-75q-20-34.5-54.5-55T150 1zm0 275q-33 0-62-16.5T42 214q-17-29-17-63t17-62.5Q59 60 88 43t62.5-17Q184 26 213 43t45.5 45.5Q275 117 275 151t-16.5 63Q242 243 213 259.5T150 276zm-37-77q1 2 4 2h83q6 0 9.5 4t3.5 9q0 5-3.5 8.5T200 226h-83q-10 0-17-5t-10.5-14.5q-3.5-9.5-.5-18t11-14.5l86-65q3-2 2-5t-4-3h-84q-5 0-8.5-3.5T88 89q0-5 3.5-9t8.5-4h84q10 0 17 5.5T211 96q3 9 .5 18T201 129l-86 65q-3 2-2 5z"/></svg>