<svg viewBox="0 0 300 302.0011" xmlns="http://www.w3.org/2000/svg"><path d="M214 198q22-7 40-22 8-7 8-18.5t-8-18.5l43-42q3-4 3-9t-3.5-9q-3.5-4-8.5-4t-9 4l-46 46q-15-8-29-11l92-92q4-3 4-8.5t-3.5-9Q293 1 287.5 1T279 5l-92 92q-3-15-11-30l46-45q3-4 3-9t-3.5-9Q218 0 213 0t-9 4l-42 42q-7-7-18.5-7T125 47q-15 18-22 40L21 5q-3-4-8.5-4t-9 3.5Q0 8 0 13.5T4 22l275 275q3 4 8.5 4t9-3.5q3.5-3.5 3.5-9t-4-8.5l-82-82zm-59-70l-5 5-25-25q0-10 5.5-23T144 63q7 9 12.5 21.5t6 23Q163 118 156 128h-1zm13 23l5-5v-1q10-7 20.5-7t23 6q12.5 6 21.5 13-9 8-22 13.5t-23 5.5l-25-25zm-9 72q-11 4-20 3h-3q-16-9-32-12l17-17q4-3 4-8.5t-3.5-9q-3.5-3.5-9-3.5t-8.5 4l-17 17q-3-16-12-32v-8q0-7 3-15 1-5-1-9.5t-7-6q-5-1.5-10 1t-6 7.5l-2 5q-7-2-14.5-.5T25 147q-10 12-17 27-8 17-8 33 0 28 21 56L4 280q-4 3-4 8.5t3.5 9q3.5 3.5 9 3.5t8.5-4l17-17q28 21 56 21 16 0 33-8 15-7 27-17 8-7 8-19 0-4-1-8l5-2q5-1 7.5-6t1-9.5q-1.5-4.5-6-7T159 223zM38 245q-13-20-13-38 0-10 5.5-22.5T44 163q7 9 13 21.5t6 23q0 10.5-7 20.5l-18 17zm56 31q-18 0-38-13l17-18q10-7 20.5-7t23 6q12.5 6 21.5 13-9 8-21.5 13.5T94 276z"/></svg>