<svg viewBox="0 0 300 302.0011" xmlns="http://www.w3.org/2000/svg"><path d="M275 73V26q0-5-3.5-9t-9-4q-5.5 0-9 4t-3.5 9v30l-65-44Q169 1 150 1t-35 11L28 71Q15 79 7.5 93T0 123v115q0 17 8.5 31.5t23 23Q46 301 63 301h175q16 0 30.5-8.5t23-23Q300 255 300 238V123q0-15-6.5-28T275 73zm0 165q0 16-11 27t-27 11H63q-16 0-27-11t-11-27V123q0-10 4.5-18T42 91l87-59q10-6 21-6t21 6l87 59q8 6 12.5 14t4.5 18v115zm-97-125q-17 0-28 9-12-9-28.5-9T93 125.5q-12 12.5-12 31T98 197q13 17 35 34 7 6 16.5 6t16.5-6q22-17 35-34 17-22 17-40.5t-12-31Q194 113 178 113zm-28 99h-1q-20-16-31.5-31T106 156q0-8 4.5-13t10.5-5q16 0 16 13 0 5 3.5 8.5t9 3.5q5.5 0 9-3.5t3.5-8.5q0-13 16-13 6 0 10.5 5t4.5 13q0 10-11.5 25T150 212z"/></svg>