<svg viewBox="0 0 300 302.0011" xmlns="http://www.w3.org/2000/svg"><path d="M163 76q0 5-4 8.5t-9 3.5H75q-5 0-9-3.5T62.5 76q.5-5 4-8.5T75 64h75q5 0 8.5 3.5T162 76h1zm-25 37H88q-6 0-9.5 4t-3.5 9q0 5 3.5 8.5T87 138h51q5 0 8.5-3.5t3.5-8.5q0-5-3.5-8.5T137 114l1-1zm150 91v34q0 17-8.5 31.5t-23 23Q242 301 225 301H75q-17 0-31.5-8.5t-22.5-23Q13 255 13 238V63q0-16 8-30.5t22.5-23Q58 1 75 1h125q17 0 31.5 8.5t23 23Q263 47 262 64v84l23 45q3 5 2 11h1zM75 276h113V26H75q-16 0-27 11T37 64v174q1 16 11.5 27T75 276zm188-72l-23-45q-2-5-2-11V63q0-12-7-21.5T212 28v248h13q16 0 26.5-11t10.5-27v-34h1z"/></svg>