<svg viewBox="0 0 300 302.0011" xmlns="http://www.w3.org/2000/svg"><path d="M219 83q-7-3-6-11V26h12q5 0 9-3.5t4-9q0-5.5-4-9T225 1H75q-5 0-8.5 3.5t-3.5 9q0 5.5 3.5 9T75 26h13v46q0 7-7 11-39 22-59 53-15 23-20 49-3 13-2 23l1 15q2 16 4 23 6 24 26.5 39.5T77 301h146q25 0 45.5-15.5T295 246q5-18 5-36 0-40-21.5-74T219 83zM92 105q9-5 15-14t6-19V26h75v46q0 11 5.5 20t14.5 14q21 10 36.5 27t23.5 37q-33 18-62 18-14 0-27-3-9-2-25.5-8.5T127 168q-16-4-33-4-30-1-66 19 6-25 23-45.5T92 105zm179 134q-4 17-17.5 27T223 276H77q-17 0-30.5-10T29 239q-3-12-4-25 14-9 29-16 22-10 40-10 14 0 27 4 9 2 25.5 8.5T173 209q16 4 33 5 33-1 68-19 1 8 1 15 0 15-4 29z"/></svg>