<svg viewBox="0 0 300 302.0011" xmlns="http://www.w3.org/2000/svg"><path d="M181 144q13-13 13-31t-13-30.5Q168 70 150 70t-31 12.5Q106 95 106 113t13 31q-9 7-14 17t-5 21q0 21 14.5 35.5T150 232q21 0 35.5-14.5T200 182q0-11-5-21t-14-17zm-50-31q0-7 5.5-12.5T150 95q8 0 13.5 5.5t5.5 13q0 7.5-5.5 13T150 132q-8 0-13.5-5.5T131 113zm19 94q-10 0-17.5-7t-7.5-17.5q0-10.5 7.5-18T150 157q10 0 17.5 7.5t7.5 18q0 10.5-7.5 17.5t-17.5 7zM238 1H63Q46 1 31.5 9.5t-23 23Q0 47 0 64v174q0 17 8.5 31.5t23 23Q46 301 63 301h175q16 0 30.5-8.5t23-23Q300 255 300 238V63q0-16-8.5-30.5t-23-23Q254 1 237 1h1zm37 237q0 16-11 27t-27 11H63q-16 0-27-11t-11-27V63q0-15 11-26t27-11h175q15 0 26 11t11 27v174z"/></svg>