<svg viewBox="0 0 300.0022 302.0011" xmlns="http://www.w3.org/2000/svg"><path d="M163.002 10q1-5 6-7.5t10-1.5q35 11 45 46 2 5-.5 9.5t-7.5 6.5l-3 1q-5 0-8-2.5t-4-6.5q-7-23-30-29-4-2-6.5-6.5t-1.5-9.5zm137 91v77q0 22-8.5 43t-24.5 37l-10 10q-16 16-37.5 24.5t-44.5 8.5q-23 0-43.5-9t-36.5-26l-84-86q-10-9-11-22t6-23q5-6 11-10l-4-4q-9-9-10.5-22t5.5-22.5q7-9.5 18-13.5-3-14 5-25 10-13 25-14 14-1 25 7l2-3q9-13 25-14t27 10l90 90v-12q0-14 9-25t22-13q18-3 31 8t13 29zm-25 0q0-6-4.5-9.5t-9.5-3q-5 .5-8 4.5t-3 9v42q0 4-2 7t-5.5 4.5q-3.5 1.5-7.5 1t-6-3.5l-112-112q-3-3-7-2.5t-6.5 3.5q-2.5 3-2 6.5t3.5 6.5l63 63q4 4 4 9t-4 9q-4 4-9 4t-9-4l-84-85q-3-3-7.5-2.5t-6.5 3.5q-2 3-1.5 6.5t3.5 6.5l83 84q4 4 4 9t-3.5 8.5q-3.5 3.5-9 3.5t-8.5-3l-77-77q-3-3-7.5-3t-6.5 3q-2 3-1.5 7t3.5 6l76 77q3 3 3 8.5t-3.5 9q-3.5 3.5-8.5 3.5t-9-4l-49-48q-2-3-6.5-3t-6.5 3q-2 3-1.5 7t2.5 6l84 87q13 13 29.5 20t34 7q17.5 0 34-6.5t29.5-19.5l10-10q12-12 19-28.5t7-33.5v-77zm-221 163q-23-7-30-29-1-5-5.5-7.5t-9.5-1q-5 1.5-7.5 6t-.5 9.5q10 36 46 46l3 1q4 0 7.5-2.5t4.5-7q1-4.5-1.5-9.5t-6.5-6z"/></svg>