<svg viewBox="0 0 300 302.0011" xmlns="http://www.w3.org/2000/svg"><path d="M163 113q0-6 5-10l38-25q4-3 9-2t8 5.5q3 4.5 2 9.5t-6 8l-21 14 21 15q5 3 6 8t-2.5 10q-3.5 5-10.5 5-3 0-6-2l-38-25q-5-4-6-10l1-1zm-86 32q4 6 11 6 3 0 6-2l38-25q5-4 5.5-10.5T132 103L94 78q-4-3-9-2t-8 5.5Q74 86 75 91t6 8l21 14-21 15q-5 3-6 8t2 9zm169 35q-4-4-9-4t-8 4l-18 18-17-17q-6-5-13.5-5t-13.5 5l-17 17-17-17q-6-5-13.5-5t-13.5 5l-17 17-18-18q-3-4-8-4t-9 3.5q-4 3.5-4 8.5t4 9l22 23q5 6 12 6 3 0 7.5-1.5t6.5-3.5l18-17 17 17q5 5 13 5t13-5l17-17 18 17q2 2 6.5 3.5t8.5 1.5q6 0 11-6l23-23q3-4 3-9t-4-8zm54-29q0 41-20 75.5T225.5 281Q191 301 150 301t-75.5-20Q40 261 20 226.5T0 151q0-41 20-75.5T74.5 21Q109 1 150 1t75.5 20Q260 41 280 75.5t20 75.5zm-25 0q0-34-17-62.5T212.5 43Q184 26 150 26T87.5 43Q59 60 42 88.5T25 151q0 34 17 62.5T87.5 259q28.5 17 62.5 17t62.5-17q28.5-17 45.5-45.5t17-62.5z"/></svg>