<svg viewBox="0 0 300 302.0011" xmlns="http://www.w3.org/2000/svg"><path d="M300 95v80q0 21-15 36t-36 15h-61q-6 0-9.5-3.5t-3.5-9q0-5.5 3.5-9t8.5-3.5h62q11 0 18.5-7.5T275 175V95q0-8-3.5-14.5T262 70l-58-39q-7-5-16.5-5T171 31l-58 39q-6 4-9.5 10.5T100 95v18q0 6-3.5 9.5t-9 3.5q-5.5 0-9-3.5T75 114V95q0-14 6.5-26T99 49l58-39q14-9 30.5-9t30.5 9l58 39q11 8 17.5 20t6.5 26zm-100 68q5 0 8.5-3.5t3.5-8.5v-25q1-5-3-8.5t-9-3.5h-25q-5-1-8.5 3t-3.5 9v25q0 5 3.5 8.5t8.5 3.5h25zM19 263q-8 0-13.5 5.5T0 282q0 8 5.5 13.5T19 301q8 0 13-5.5t5.5-13.5q.5-8-5-13T19 264v-1zm-6-62q-6 0-9.5 3.5t-3.5 9q0 5.5 3.5 9T13 226q16 0 30.5 8.5t23 23Q75 272 75 288q0 6 3.5 9.5t9 3.5q5.5 0 9-3.5t3.5-9.5q0-23-12-43t-32-32q-20-12-43-12zm0-63q-6 0-9.5 4T0 151q0 5 3.5 9t9.5 4q33-1 62 16t46 46q17 29 17 62-1 6 3 9.5t9 3.5q5 0 9-3.5t4-9.5q-1-40-21-74.5T87.5 159Q53 139 12 139l1-1z"/></svg>