<svg viewBox="0 0 300 302.0011" xmlns="http://www.w3.org/2000/svg"><path d="M300 201q0-5-3.5-9t-8.5-4h-26l-10-25h36q5 0 8.5-3.5t3.5-8.5q0-5-3.5-9t-8.5-4h-46L202 36q-7-16-20.5-25.5t-31-9.5Q133 1 119 10.5T98 36L58 138H13q-6 0-9.5 4T0 151q0 5 3.5 8.5T13 163h35l-10 25H13q-6 0-9.5 4T0 201q0 5 3.5 8.5T13 213h16L1 284q-2 5 0 9.5t7 6.5q5 2 9.5 0t6.5-7l32-80h189l31 80q1 4 4.5 6t6.5 2q3 0 5-1 5-2 7-6.5t0-9.5l-27-71h16q5 0 8.5-3.5t3.5-8.5zM122 45q3-9 11-14t17-5q9 0 17 5t12 14l36 93H85l36-93h1zM65 188l10-25h150l10 25H65z"/></svg>