<svg viewBox="0 0 300 302.0011" xmlns="http://www.w3.org/2000/svg"><path d="M248 130l-4-16q-4-17-17.5-27.5T196 76H89l2-8q3-13 13-21.5t24-7.5h85q5-1 8.5-4.5T225 26q0-5-3.5-9t-8.5-4h-85q-22 0-39.5 14T67 62l-15 68q-23 7-37.5 27T0 201v25q0 20 10 37.5T37.5 291Q55 301 75 301h150q20 0 37.5-10t27.5-27.5q10-17.5 10-37.5v-25q0-24-14.5-44T248 130zm-52-29q8 0 15 5.5t9 13.5l2 6H78l6-25h112zM75 151h150q21 0 35.5 14.5T275 201H25q0-21 14.5-35.5T75 151zm150 125H75q-21 0-35.5-14.5T25 226h250q0 21-14.5 35.5T225 276z"/></svg>