<svg viewBox="0 0 300 302.0011" xmlns="http://www.w3.org/2000/svg"><path d="M69 88q18 0 31-12.5T113 45q0-18-13-31T69 1Q51 1 38 14T25 45q0 18 13 30.5T69 88zm0-62q8 0 13.5 5.5T88 45q0 8-5.5 13T69 63.5q-8 .5-13.5-5T50 45q0-8 5.5-13.5T69 26zm-6 100q-16 0-27 11t-11 26q0 6-3.5 9.5t-9 3.5q-5.5 0-9-3.5T0 163q0-16 8.5-30.5t23-23Q46 101 63 101q5 0 8.5 3.5t3.5 9q0 5.5-3.5 9T63 126zm87 87q0 6-3.5 9.5T137 226h-12q-16 0-27 11t-11 26q0 6-3.5 9.5T75 276q-5 0-9-3.5t-3-9.5q0-16 8-30.5t22.5-23Q108 201 125 201h13q5 0 8.5 3.5t3.5 8.5zm44-125q18 0 31-12.5T238 45q0-18-13-31T194 1q-18 0-31 13t-13 31q0 18 13 30.5T194 88zm0-62q8 0 13.5 5.5T213 45q0 8-5.5 13.5T194 64q-8 0-13.5-5.5T175 45q0-8 5.5-13.5T194 26zm6 75q17 0 31.5 8.5T254 132q3 5 1.5 10t-5 7q-3.5 2-7.5 2-7 0-11-6-5-9-13.5-14t-18.5-5q-5 0-9-3.5t-4-9q0-5.5 4-9t9-3.5zm100 137q0 6-3.5 9.5T288 251h-38v37q0 6-3.5 9.5t-9 3.5q-5.5 0-9-3.5T225 288v-37h-37q-6 0-9.5-3.5t-3.5-9q0-5.5 3.5-9t9.5-3.5h37v-38q0-5 3.5-8.5t9-3.5q5.5 0 9 3.5t3.5 9.5v37h38q5 0 8.5 3.5t3.5 9.5v-1zM131 101q-18 0-30.5 13T88 145q0 18 12.5 30.5T131 188q18 0 31-12.5t13-30.5q0-18-13-31t-31-13zm0 62q-8 0-13-5t-5-13q0-8 5-13.5t13-5.5q8 0 13.5 5.5T150 145q0 8-5.5 13t-13.5 5z"/></svg>