<svg viewBox="0 0 300 302.0011" xmlns="http://www.w3.org/2000/svg"><path d="M297 79q-4-4-9-4t-9 4l-46 46q-14-8-29-11l92-92q4-3 4-8.5t-3.5-9Q293 1 287.5 1T279 5l-92 92q-3-15-11-30l46-45q3-4 3-9t-3.5-9Q218 0 213 0t-9 4l-42 42q-7-7-18.5-7T125 47.5Q118 56 111.5 67T102 90q-7-2-14.5-.5T75 97q-7 9-13.5 20T52 140q-7-2-14.5-.5T25 147q-10 12-17 27-8 17-8 33 0 28 21 56L4 280q-4 3-4 8.5t3.5 9q3.5 3.5 9 3.5t8.5-4l17-17q28 21 56 21 16 0 33-8 15-7 27-17 8-7 9-19 0-4-2-8 12-3 23.5-9.5T204 226q8-7 8-19 1-4-1-8 12-3 23.5-9.5t20-13.5q8.5-7 8.5-18.5t-9-18.5l43-42q3-4 3-9t-3-9zM144 63q7 9 12.5 21.5t6 23Q163 118 156 128l-19 19q-3-16-12-32v-8q0-10 5.5-22.5T144 63zm-50 50q7 9 13 21.5t6 23q0 10.5-7 20.5l-19 19q-3-16-12-32v-8q0-10 5.5-22.5T94 113zm-50 50q7 9 13 21.5t6 23q0 10.5-7 20.5l-18 17q-13-20-13-38 0-10 5.5-22.5T44 163zm50 113q-18 0-38-13l17-18q10-7 20.5-7t23 6q12.5 6 21.5 13-9 8-21.5 13.5T94 276zm50-50h-8q-16-9-32-12l19-19q10-7 20.5-7t23 6q12.5 6 21.5 13-9 8-21.5 13.5T144 226zm50-50h-8q-16-9-32-12l19-19q10-7 20.5-7t23 6q12.5 6 21.5 13-9 8-21.5 13.5T194 176z"/></svg>