<svg viewBox="0 0 300 302.0011" xmlns="http://www.w3.org/2000/svg"><path d="M275 118q0-32-17-58.5T212.5 17Q184 1 150 1T87.5 17Q59 33 42 59.5t-17 59Q25 151 38 184t36.5 57Q98 265 126 273q-5 7-7 16-1 4 2 8t8 4h42q5 0 8-4t2-8q-3-9-7-16 28-8 51.5-32t36.5-57q13-33 13-66zM150 251q-27 0-51-21-22-19-35.5-50T50 118q0-25 13.5-46T100 38.5Q123 26 150 26t50 12.5Q223 51 236.5 72t13.5 46q0 31-13.5 62T201 230q-24 21-51 21zm60-111q-5 24-18 44-3 4-8.5 5t-9.5-2.5q-4-3.5-4-8t2-8.5q11-16 14-34 1-5 4.5-7.5t7.5-2.5q6 0 9.5 4.5t2.5 9.5z"/></svg>