<svg viewBox="0 0 300 302.0011" xmlns="http://www.w3.org/2000/svg"><path d="M238 1H100Q58 1 33 18 14 31 5 53 0 67 0 82q0 23 13 42 11 16 32 32 12 9 36 24l6 3q9 6 38 19l23 12-104-1q-18 0-31 13T0 257q0 18 13 31t31 13h116q38 0 60-17 18-13 25-35 5-14 5-29 0-22-15-41-11-15-34-29-13-8-39-21-20-9-28-14-28-17-40-26l12-1h69q4 0 5 4 9 16 24.5 25t32.5 9h19q18 0 31-13t13-31V63q0-16-8.5-30.5t-23-23Q254 1 237 1h1zM44 276q-8 0-13.5-5.5T25 257q0-8 5.5-13t13.5-6l56 1v37H44zm181-56q0 23-12 38-17 18-53 18h-35v-37l44-1q6 0 10-3t6.5-8q2.5-5 2-10t-4.5-10q-4-5-20-14l23-23q18 11 28 22 11 13 11 28zm-74-68l1 1 11 5-24 24-4-2q-27-13-35-18l-15-9 24-24 12 8q9 5 30 15zM82 64q-6 1-11 4.5t-7.5 9Q61 83 62.5 89t6 11q4.5 5 18.5 15l-24 24q-17-13-27-26-11-15-11-31 0-22 13-36 19-20 62-20h25v38H82zm193 18q0 8-5.5 13.5T256 101h-18q-11 0-20.5-5.5t-14.5-14q-5-8.5-12-13T175 64h-25V26h88q15 0 26 11t11 27v18zm-56-19q0 8 5.5 13.5t13 5.5q7.5 0 13-5.5t5.5-13q0-7.5-5.5-13t-13-5.5q-7.5 0-13 5.5T219 64v-1z"/></svg>