<svg viewBox="0 0 300 302.0011" xmlns="http://www.w3.org/2000/svg"><path d="M296 280l-19-20q10-15 11-34v-71q-1-32-14-61t-37-49q-24-20-53-27.5T125 16q-35 6-63 29L21 5q-3-4-8.5-4t-9 3.5Q0 8 0 13.5T4 22l275 275q3 4 8.5 4t9-3.5q3.5-3.5 3.5-9t-4-8.5zM129 41q25-5 48.5 1t43 22q19.5 16 31 40.5T263 155v71q0 8-4 16L80 63q22-17 49-22zm84 235q0 5-4 8.5t-9 3.5h-38q-35 0-66-13.5T44 237q-19-23-26.5-50.5T14 129q3-15 8-29 2-5 7-7t9.5 0q4.5 2 6.5 7t0 10q-4 11-6 23-4 24 2 46.5T63 221q17 20 43 31.5t56 11.5h38q5 0 8.5 3.5t3.5 8.5h1z"/></svg>