<svg viewBox="0 0 300 302.0011" xmlns="http://www.w3.org/2000/svg"><path d="M238 1H63Q46 1 31.5 9.5t-23 23Q0 47 0 64v174q0 17 8.5 31.5t23 23Q46 301 63 301h175q16 0 30.5-8.5t23-23Q300 255 300 238V63q0-16-8.5-30.5t-23-23Q254 1 237 1h1zm37 237q0 16-11 27t-27 11H63q-16 0-27-11t-11-27V63q0-15 11-26t27-11h175q15 0 26 11t11 27v174zM150 76q-21 0-35.5 14.5T100 126q0 21 14.5 35.5T150 176q11 0 22-5-9 30-47 30-5 0-9 3.5t-3.5 9q.5 5.5 4 9t8.5 3.5q36 0 55.5-20.5T200 148v-22q0-21-14.5-35.5T150 76zm0 75q-10 0-17.5-7.5T125 126q0-10 7.5-17.5T150 101q10 0 17.5 7.5T175 126q0 10-7.5 17.5T150 151z"/></svg>