<svg viewBox="0 0 300 302.0011" xmlns="http://www.w3.org/2000/svg"><path d="M65 71l10 5v25q0 20 10 37.5t27.5 27.5q17.5 10 37.5 10t37.5-10q17.5-10 27.5-27.5t10-37.5V76l10-5q7-3 11-10t4-15.5q0-8.5-5.5-15.5T230 20L171 4q-21-6-42 0L70 20q-9 3-14.5 10T50 45.5Q50 54 54 61t11 10zm135 30q0 21-14.5 35.5T150 151q-21 0-35.5-14.5T100 101v-5q23 5 50 5t50-5v5zm-81-56q2-5 7-6t10 1l14 9 14-9q5-2 10-1t7.5 5.5q2.5 4.5 1 9.5t-5.5 8l-21 12q-6 4-12 0l-21-12q-4-3-5.5-8t1.5-9zm143 242q1 5-2 9t-8 5h-2q-5 0-8.5-3t-3.5-8q-4-31-24.5-51.5T162 214v74q1 6-3 9.5t-9 3.5q-5 0-8.5-3.5T138 288v-74q-31 4-51.5 24.5T62 290q0 5-4 8t-9.5 2.5Q43 300 40 296t-2-9q3-29 18.5-51t40-34.5q24.5-12.5 53.5-13t53.5 12.5q24.5 13 40 35t18.5 51z"/></svg>