<svg viewBox="0 0 300 302.0011" xmlns="http://www.w3.org/2000/svg"><path d="M249 70l-43-43q-13-13-29-19.5T144 1H88Q71 1 56.5 9.5t-23 23Q25 47 25 63v175q0 17 8.5 31.5t23 23Q71 301 88 301h125q16 0 30.5-8.5t23-23Q275 255 275 238V132q0-17-6.5-33T249 70zm-17 18q6 6 10 13h-54q-6 0-9.5-3.5T175 88V34q7 4 13 10l44 44zm18 150q0 16-11 27t-26 11H88q-16 0-27-11t-11-27V63q0-15 11-26t27-11h62v62q0 16 11 27t27 11h62v112zm-125 13q-5 0-8.5-3.5T113 238v-62q0-10 7-17.5t18-7.5h12q15 0 26.5 11t11.5 26.5q0 15.5-11.5 26.5T150 226h-12v12q0 6-4 9.5t-9 3.5zm13-50h12q5 0 9-3.5t4-9q0-5.5-4-9t-9-3.5h-12v25z"/></svg>