<svg viewBox="0 0 300 302.0011" xmlns="http://www.w3.org/2000/svg"><path d="M98 175q8-8 12.5-15.5t0-14.5q-4.5-7-12.5-6H52q-8-1-12.5 6t0 14.5Q44 167 52 175q-22 10-37 34T0 257q0 18 13 31t31 13h62q18 0 31-13t13-31q0-24-15-48t-37-34zm8 101H44q-8 0-13.5-5.5T25 257q0-14 7.5-28.5t19.5-24q12-9.5 23-9.5t23 9.5q12 9.5 19.5 24T125 257q0 8-5.5 13.5T106 276zM263 1H81Q63 1 50 14T37 45v56q1 5 4.5 8.5T50 113q5 0 9-3.5t4-8.5V45q0-8 5-13.5T81 26q8 0 13.5 5.5T100 45q0 13 9 22t22 9h107v162q0 16-11 27t-27 11h-25q-5 0-8.5 3.5t-4 9q-.5 5.5 3.5 9t9 3.5h25q17 0 31.5-8.5t23-23Q263 255 262 238V76h7q13 0 22-9t9-22v-7q0-15-11-26T262 1h1zm12 44q0 2-2 4t-4 2H131q-2 0-4-2t-2-4q0-10-4-19h142q5 0 8.5 3.5T275 38v7z"/></svg>