<svg viewBox="0 0 300 302.0011" xmlns="http://www.w3.org/2000/svg"><path d="M250 101q0-26-12.5-48.5T203 16Q181 2 154.5 1T105 11.5Q82 23 67.5 44.5t-17 48Q48 119 59 142.5t31.5 39Q111 197 138 200v38h-25q-6 0-9.5 4t-3.5 9q0 5 3.5 8.5t9.5 3.5h25v25q0 6 3.5 9.5t8.5 3.5q5 0 9-3.5t4-8.5v-26h25q5 0 8.5-3.5t3.5-8.5q0-5-3.5-8.5T188 239h-25v-39q24-3 44-17t31.5-35.5Q250 126 250 101zm-175 0q0-20 10-37.5T112.5 36Q130 26 150 26t37.5 10Q205 46 215 63.5t10 37.5q0 20-10 37.5T187.5 166Q170 176 150 176t-37.5-10Q95 156 85 138.5T75 101z"/></svg>