<svg viewBox="0 0 300 302.0011" xmlns="http://www.w3.org/2000/svg"><path d="M194 89q10 19 4 38.5T174 157q-5 3-8 8.5t-3.5 10.5q-.5 5-4 8.5T150 188q-5 0-9-3.5t-4-8.5q1-12 7.5-23.5T162 135q9-4 12-14t-2-21q-3-5-9-8-14-7-26 0-6 4-9 9.5t-3 11.5q0 6-3.5 9.5t-9 3.5q-5.5 0-9-3.5T100 114q0-14 6.5-25T124 71q11-7 24-7.5t26.5 6Q188 76 194 89zm106-26v175q0 17-8.5 31.5t-23 23Q254 301 238 301H63q-17 0-31.5-8.5t-23-23Q0 255 0 238V63q0-16 8.5-30.5t23-23Q46 1 63 1h175q16 0 30.5 8.5t23 23Q300 47 300 64v-1zm-25 0q0-15-11-26t-27-11H63q-16 0-27 11T25 64v174q0 16 11 27t27 11h175q15 0 26-11t11-27V63zM69 213q-8 1-13.5 6T50 232q0 8 5.5 13.5T69 251q8 0 13.5-5.5T88 232q0-8-5.5-13.5T69 213zm0-162q-8 0-13.5 5.5T50 70q0 8 5.5 13.5T69 89q8 0 13.5-5.5T88 70q0-8-5.5-13.5T69 51zm162 0q-8 0-13.5 5.5T212 70q0 8 5.5 13.5T231 89q8 0 13.5-5.5T250 70q0-8-5.5-13.5T231 51zm0 162q-8 0-13.5 5.5T212 232q0 8 5.5 13.5T231 251q8 0 13.5-5.5T250 232q0-8-5.5-13.5T231 213zm-81-12q-8 0-13.5 5.5T131 220q0 8 5.5 13t13.5 5q8 0 13.5-5t5.5-13q0-8-5.5-13.5T150 201z"/></svg>