<svg viewBox="0 0 300 302.0011" xmlns="http://www.w3.org/2000/svg"><path d="M238 1h-75q-17 0-31.5 8.5t-23 23Q100 47 100 64v74q0 17 8.5 31.5t23 23Q146 201 162 201h76q16 0 30.5-8.5t23-23Q300 155 300 139V63q0-16-8.5-30.5t-23-23Q254 1 238 1zm37 137q0 16-11 27t-27 11h-74q-16 0-27-11t-11-27V63q0-15 11-26t26-11h76q15 0 26 11t11 27v74zm-75 100q0 17-8.5 31.5t-23 23Q154 301 137 301H63q-17 0-31.5-8.5t-23-23Q0 255 0 238v-75q0-16 8.5-30.5t23-23Q46 101 63 101q5 0 8.5 3.5t3.5 9q0 5.5-3.5 9T62 126q-15 0-26 11t-11 26v75q0 16 11 27t27 11h75q15 0 26-11t11-27q0-5 3.5-8.5t9-3.5q5.5 0 9 3.5t3.5 8.5z"/></svg>