<svg viewBox="0 0 300 302.0011" xmlns="http://www.w3.org/2000/svg"><path d="M300 195v6q0 5-3.5 8.5t-9 3.5q-5.5 0-9-3.5T275 201v-6q0-8-5.5-13.5T256 176h-18v100q0 5-4 8.5t-9 3.5q-5 0-8.5-3.5T213 276V176h-19q-8 0-13.5 5.5T175 195v6q0 5-3.5 8.5t-9 3.5q-5.5 0-9-3.5T150 201v-6q0-18 13-31t31-13h62q18 0 31 13t13 31zM163 38q15 0 26 11.5T200 76v12q0 6 3.5 9.5t9 3.5q5.5 0 9-3.5T225 88V76q0-17-8.5-31.5t-23-23Q179 13 163 13H63q-17 0-31.5 8.5t-23 23Q0 59 0 76v12q0 6 3.5 9.5t9 3.5q5.5 0 9-3.5T25 88V76q0-15 11-26.5T63 38h37v238q0 5 3.5 8.5t9 3.5q5.5 0 9-3.5t3.5-8.5V38h38z"/></svg>