<svg viewBox="0 0 300 302.0011" xmlns="http://www.w3.org/2000/svg"><path d="M173 217l-41 41q-12 11-28 15.5t-32 0Q56 269 44 257t-16-28q-4-16 0-32t15-28l41-41q4-4 4-9t-3.5-8.5q-3.5-3.5-9-3.5t-9.5 3l-40 41Q9 168 3 190.5t0 45Q9 258 26 275t39.5 23q22.5 6 45 0t39.5-23l41-40q3-4 3-9t-3.5-9q-3.5-4-8.5-4t-9 4zM274 27q-12-13-28-19.5T212 1q-17 0-33.5 6.5T150 27l-41 40q-3 4-3 9.5t3.5 9Q113 89 118 89t9-4l41-41q9-8 20.5-13t23.5-5q19 0 35 10.5t23.5 28Q278 82 274 101t-17 32l-41 41q-4 4-4 9t3.5 8.5q3.5 3.5 9 3.5t9.5-3l40-41q17-17 23-39.5t0-45Q291 44 274 27zm-95 78l-75 75q-6 5-4 12t9 9q7 2 12-4l75-75q4-3 4-8.5t-3.5-9q-3.5-3.5-9-3.5t-8.5 4z"/></svg>