<svg viewBox="0 0 300 302.0011" xmlns="http://www.w3.org/2000/svg"><path d="M250 276h-12v-20q0-22-16-36-18-18-26-39.5t-8-54.5h12q5 0 9-3.5t4-8.5q0-5-4-9t-9-4h-7q7-11 7-23.5T192 45q-7-16-15-30-5-6-12-10t-15-4q-8 0-15 4t-11 10q-8 14-15 30-9 20-9 32.5t7 23.5h-7q-5 0-8.5 4t-3.5 9q0 5 3.5 8.5t8.5 3.5h13q-1 33-9 54.5T78 220q-15 14-15 36v20H50q-5 0-8.5 4t-3.5 9q0 5 3.5 8.5T50 301h200q6 0 9.5-3.5t3.5-8.5q0-5-3.5-9t-9.5-4zM145 29q2-3 5.5-3t5.5 3q14 22 19 47 0 11-7 18t-17.5 7q-10.5 0-18-7T125 76q6-25 20-47zm18 97q0 33 7.5 57t23.5 43h-88q16-19 23.5-43t8.5-57h25zM88 256v-5h124l1 5v20H88v-20z"/></svg>