<svg viewBox="0 0 300 302.0011" xmlns="http://www.w3.org/2000/svg"><path d="M276 51h-51q-4-22-21.5-36T164 1h-25q-23 0-40 14T78 51H26q-5 0-8.5 3.5t-3.5 9q0 5.5 3.5 9T26 76h11l16 168q3 25 20.5 41t42.5 16h71q24 0 42-16t20-41l16-168h11q6 0 9.5-3.5t3.5-9q0-5.5-3.5-9T276 51zM139 26h25q12 0 21.5 7T199 51h-95q3-11 13-18t22-7zm85 216q-1 15-11.5 24.5T187 276h-71q-15 0-25.5-9.5T78 242L62 76h178l-16 166zm-28-85q4 4 4 9t-3.5 8.5q-3.5 3.5-9 3.5t-8.5-3l-16-16v54q0 6-4 9.5t-9 3.5q-5 0-9-3.5t-4-8.5v-55l-16 16q-3 3-8.5 3t-9-3.5Q100 171 100 166t4-9l20-20q11-11 26-11t26 11l20 20z"/></svg>