<svg viewBox="0 0 300 302.0011" xmlns="http://www.w3.org/2000/svg"><path d="M213 301q-24 0-44-12t-32-32q-12-20-12-43.5t12-43.5q12-20 32-32t43.5-12q23.5 0 43.5 12t32 32q12 20 12 43.5T288 257q-12 20-32 32t-43 12zm0-150q-17 0-31.5 8.5t-23 23q-8.5 14.5-8.5 31t8.5 31q8.5 14.5 23 23t31 8.5q16.5 0 31-8.5t23-23q8.5-14.5 8.5-31t-8.5-31q-8.5-14.5-23-23T213 151zm21 84q3-4 3-9t-3-9l-9-9v-20q0-5-3.5-8.5t-9-3.5q-5.5 0-9 3.5T200 189v24q0 6 4 9l12 13q4 3 9 3t9-3zM25 288q0-35 21.5-63t56.5-37q5-1 7.5-5.5t1.5-9.5q-1-5-5.5-7.5T97 164q-28 7-50 25t-34.5 44Q0 259 0 288q0 6 3.5 9.5t9 3.5q5.5 0 9-3.5T25 289v-1zm81-150q-19 1-34.5-8.5t-25-25.5Q37 88 37 69.5T46.5 35q9.5-16 25-25T106 1q19 0 34.5 9t25 25q9.5 16 9.5 34.5t-9.5 34.5q-9.5 16-25 25t-34.5 9zm0-112q-18 0-31 13T62 70q0 18 13 30.5t31 12.5q18 0 31-12.5T150 70q0-18-13-31t-31-13z"/></svg>