<svg viewBox="0 0 300 302.0011" xmlns="http://www.w3.org/2000/svg"><path d="M288 213h-11L252 70q-5-24-24-40.5T184 13h-68q-25 0-44 16.5T48 70L23 213H13q-6 0-9.5 4T0 226q0 5 3.5 9t9.5 3q3 22 18.5 36T69 288h162q22 0 37.5-14t18.5-36h1q5 0 8.5-3.5t3.5-8.5q0-5-3.5-9t-8.5-4zM68 101h13q8 0 13.5 5.5T100 120v56q0 5 3.5 9t9 4q5.5 0 9-4t3.5-9v-56q0-8 5.5-13.5T144 101q8 0 13 5.5t5 13.5v31q1 5 4.5 8.5t8.5 3.5q5 0 9-3.5t4-8.5v-31q0-8 5-13.5t13-5.5h26l20 112H48l20-112zm48-63h68q16 0 28 10.5T227 75v1h-21q-18 0-31 13-13-13-31.5-13T112 89q-12-13-31-13h-8v-1q3-16 15-26.5T116 38zm115 225H69q-11 1-20-6.5T38 238h224q-2 11-11 18.5t-20 6.5z"/></svg>