<svg viewBox="0 0 300 302.0011" xmlns="http://www.w3.org/2000/svg"><path d="M150 1q-41 0-75.5 20T20 75.5Q0 110 0 151t20 75.5Q40 261 74.5 281t75.5 20q41 0 75.5-20t54.5-54.5q20-34.5 20-75.5t-20-75.5Q260 41 225.5 21T150 1zm0 275q-34 0-62.5-17T42 213.5Q25 185 25 151t17-62.5Q59 60 87.5 43T150 26q34 0 62.5 17T258 88.5q17 28.5 17 62.5t-17 62.5Q241 242 212.5 259T150 276zm45-135q5-10 5-21 0-19-13.5-33T154 73h-29q-15 0-26 11t-11 27v81q0 15 11 26t26 11h53q20 0 33.5-13.5T225 182q0-14-8.5-25.5T194 141h1zm-82-30q0-6 3.5-9.5T125 98h29q9 0 15 6.5t6 14.5q0 8-5.5 13.5T156 138h-43v-27zm81 87q-7 6-16 6h-53q-5 0-8.5-3.5T113 192v-29h68q8 0 13.5 6t5.5 14q0 8-6 15z"/></svg>