<svg viewBox="0 0 300 302.0011" xmlns="http://www.w3.org/2000/svg"><path d="M225 51V13q0-5-3.5-8.5t-9-3.5q-5.5 0-9 3.5T200 13v27q-6-1-13-1h-74q-7-1-13 1V13q0-5-3.5-8.5t-9-3.5q-5.5 0-9 3.5T75 13v38q-12 9-18.5 22T50 101v100q0 15 6.5 28T75 251v37q0 6 3.5 9.5t9 3.5q5.5 0 9-3.5t3.5-9.5v-26q6 1 13 1h75q6 0 12-1v26q0 6 3.5 9.5t9 3.5q5.5 0 9-3.5t3.5-9.5v-37q12-9 18.5-22t6.5-28V101q0-15-6.5-28T225 51zm0 150q0 16-11 27t-26 11h-75q-16 0-27-11t-11-27V101q0-16 11-26.5T112 64h76q15 0 26 10.5t11 26.5v100zm-41-34q4 4 4 9t-4 8.5q-4 3.5-9 4t-9-3.5l-25-25q-3-4-3-9v-50q0-5 3.5-9t8.5-3.5q5 .5 9 4t4 8.5v45l21 21z"/></svg>