<svg viewBox="0 0 300 302.0011" xmlns="http://www.w3.org/2000/svg"><path d="M150 26q25 0 48 10t41 28h-39q-5 0-9 3.5t-4 8.5h1q0 5 3.5 9t8.5 4h52q9-1 16-7.5t7-16.5V13q0-5-3.5-8.5T263 1q-6 0-9.5 3.5T250 13v26q-32-28-73.5-35.5t-81 8Q56 27 30 61T1 137q-1 6 3 10t9 4q5 0 8.5-3t3.5-8q3-32 20.5-58t45-41Q118 26 150 26zm137 125q-5 0-8.5 3t-3.5 8q-4 36-26 65t-56.5 41.5q-34.5 12.5-70 4.5T61 238h39q5 0 8.5-3.5t3.5-8.5h1q-1-5-4.5-8.5T100 214H48q-9-1-16 6t-7 17v51q0 6 3.5 9.5T37 301h1q5 0 8.5-3.5T50 288v-25q32 28 73.5 35.5t81-8Q244 275 270 241t29-76q1-6-3-10t-9-4z"/></svg>