<svg viewBox="0 0 300 302.0011" xmlns="http://www.w3.org/2000/svg"><path d="M218 143q9-10 14.5-22t5.5-26q0-27-18.5-46.5T175 26V13q0-5-3.5-8.5t-9-3.5q-5.5 0-9 3.5T150 13v13h-25V13q0-5-3.5-8.5t-9-3.5q-5.5 0-9 3.5T100 13v13q-21 0-35.5 14.5T50 76v150q0 21 14.5 35.5T100 276v12q0 6 3.5 9.5t9 3.5q5.5 0 9-3.5t3.5-9.5v-12h25v12q0 6 3.5 9.5t9 3.5q5.5 0 9-3.5t3.5-9.5v-12h19q18 0 34-9.5t25.5-25Q263 226 263 207q0-22-12.5-39.5T218 143zM75 76q0-10 7.5-17.5T100 51h69q18 0 31 13t13 31q0 18-13 30.5T169 138H75V76zm119 175h-94q-10 0-17.5-7.5T75 226v-63h119q18 0 31 13t13 31q0 18-13 31t-31 13z"/></svg>