<svg viewBox="0 0 300 302.0011" xmlns="http://www.w3.org/2000/svg"><path d="M300 204q0-9-4-16.5T285 174q2-8-1-16t-9-14q-6-6-14-9t-16-1q-7-10-18-13 8-10 8-23 0-8-4-16t-11-13q1-8-1.5-16.5T210 38q-6-6-14-8.5T179 28q-5-7-12.5-11T150 13.5q-9 .5-16.5 4T121 28q-9-1-17 1.5T90 38q-6 6-8.5 14.5T80 69q-7 5-11 13t-4 16q0 13 8 23-11 3-18 13-8-2-16 1t-14 9q-6 6-9 14t-1 16q-7 6-11 13.5t-4 16Q0 212 4 220t11 13q-2 8 1 16.5t9 14.5q13 13 30 10 6 7 13.5 11t16 4q8.5 0 16-4t13.5-11q17 3 30-10 3-3 6-8 3 5 6 8 13 13 30 10 6 7 13.5 11t16 4q8.5 0 16-4t12.5-11q18 3 31-10 6-6 9-14.5t1-16.5q7-5 11-13t4-16zm-161 9q-6 4-8.5 10t-1 12.5q1.5 6.5-3 10.5t-10.5 3q-6-1-12 1.5t-9.5 7.5q-3.5 5-10 5t-9.5-4q-7-10-18-10h-5q-6 0-10-3.5t-2.5-10q1.5-6.5-1-12.5t-8-9.5Q25 210 25 204t5.5-10q5.5-4 8-10t1-12.5Q38 165 42 161t10.5-2.5Q59 160 65 157t9.5-8q3.5-5 10-5t10 5q3.5 5 9.5 8t12.5 1.5Q123 157 127 161t2.5 10.5q-1.5 6.5 1 12.5t8 10q5.5 4 5.5 10t-5 9zm17-69q-3 3-6 7-3-4-6-7-6-6-14-9t-16-1q-3-5-9-8 0-12-9-18-6-4-6-10t5.5-9.5q5.5-3.5 8-9.5t1.5-12.5q-1-6.5 3-10.5t10-3q6 1 12.5-1.5t10-7.5q3.5-5 9.5-5t9.5 5q3.5 5 10 7.5T182 53q6-1 10 3t3 10.5q-1 6.5 1.5 12.5t8 9.5Q210 92 210 98t-6 10q-9 6-9 18-6 3-9 7-8-1-16 2t-14 9zm114 69q-6 4-8.5 10t-1 12.5q1.5 6.5-3 10.5t-10.5 3q-6-1-12 1.5t-9.5 7.5q-3.5 5-10 5t-10-5q-3.5-5-9.5-7.5t-12.5-2q-6.5.5-10.5-3t-3-9.5q2-10-4-18 3-7 3-14t-3-15q6-8 4-18-1-6 3-10t10.5-2.5Q190 160 196 157t9.5-8q3.5-5 10-5t10 5q3.5 5 9.5 8t12.5 1.5Q254 157 258 161t2.5 10.5q-1.5 6.5 1 12.5t8 10q5.5 4 5.5 10t-5 9z"/></svg>