<svg viewBox="0 0 300 302.0011" xmlns="http://www.w3.org/2000/svg"><path d="M256 45q-29-29-67.5-39t-77 0Q73 16 44 45T5 112.5q-10 38.5 0 77T44 257q29 29 67.5 39t77 0q38.5-10 67.5-39t39-67.5q10-38.5 0-77T256 45zm18 93q-23 2-44.5-5.5T192 109q-16-16-23.5-37.5T163 27q29 3 53.5 18T256 84.5q15 24.5 18 53.5zM26 164q23-2 44.5 5.5T108 193q16 16 23.5 37.5T137 275q-29-3-53.5-18T44 217.5Q29 193 26 164zm212 75q-15 16-34.5 25T162 275q3-28-6.5-54T126 175q-20-20-46.5-29.5T26 139q2-29 17.5-54T84 44.5Q109 29 138 27q-2 26 6 51t26 44.5q18 19.5 42 30.5t51 10h11q-2 22-11 41.5T238 239z"/></svg>