<svg viewBox="0 0 300 302.0011" xmlns="http://www.w3.org/2000/svg"><path d="M16 97q-4-3-4-8.5t4-8.5l25-25q3-3 6.5-3.5t7 .5q3.5 1 5.5 4.5t2 6.5v113q1 5-3 8.5t-9 3.5q-5 0-8.5-3.5T38 176V94l-4 3q-4 4-9 4t-9-4zm284 76q-1-5-5.5-7.5T285 164L10 226q-5 1-8 5.5T0 241q1 5 4.5 7.5T12 251h3l275-63q5-1 8-5.5t2-9.5zm-15 66l-175 37q-5 1-8 5.5t-2 9q1 4.5 4.5 7.5t7.5 3l178-38q5-1 8-5.5t2-9.5q-1-5-5.5-7.5T285 239zM200 95V45q0-18 13-31t31-13q18 0 31 13t13 31v50q0 18-13 30.5T244 138q-18 0-31-12.5T200 95zm25 0q0 8 5.5 13t13.5 5q8 0 13.5-5t5.5-13V45q0-8-5.5-13.5T244 26q-8 0-13.5 5.5T225 45v50zM88 120V70q0-18 12.5-31T131 26q18 0 31 13t13 31v50q0 18-13 30.5T131 163q-18 0-30.5-12.5T88 120zm25 0q0 8 5 13t13 5q8 0 13.5-5t5.5-13V70q0-8-5.5-13.5T131 51q-8 0-13 5.5T113 70v50z"/></svg>