<svg viewBox="0 0 300 302.0011" xmlns="http://www.w3.org/2000/svg"><path d="M300 201v-63q0-16-8.5-30.5t-23-23Q254 76 238 76V51q0-21-15-35.5T187 1h-74Q93 1 79 14T63 46L21 5q-3-4-8.5-4t-9 3.5Q0 8 0 13.5T4 22l275 275q3 4 8.5 4t9-3.5q3.5-3.5 3.5-9t-4-8.5l-25-26q13-8 21-22.5t8-30.5zM88 51q0-10 7-17.5t18-7.5h75q10 0 17.5 7.5T213 51v25H93l-5-5V51zm187 150q0 11-6.5 20.5T252 236L118 101h120q15 0 26 11t11 26v63zm-37-63q0 6-4 9.5t-9 3.5h-25q-5 0-8.5-3.5t-3.5-9q0-5.5 3.5-9t8.5-3.5h25q5 0 9 3.5t4 8.5zm-15 141q3 4 1.5 9t-5.5 8q-9 5-19 5H100q-16 0-27-11t-11-27q-16 0-30.5-8t-23-22.5Q0 218 0 201v-63q0-13 5.5-25.5T21 92q4-4 9-3.5t8.5 4.5q3.5 4 3.5 9t-4 8q-13 12-13 28v63q0 15 11 26t26 11v-25q0-15 11-26t27-11h12q6 0 9.5 3.5t3.5 9q0 5.5-3.5 9T112 201h-12q-5 0-9 3.5t-4 8.5v50q0 6 4 9.5t9 3.5h100q3 0 7-2t9-1q5 1 7 6z"/></svg>