<svg viewBox="0 0 300 302.0011" xmlns="http://www.w3.org/2000/svg"><path d="M238 301h-25q-6 0-9.5-3.5t-3.5-9q0-5.5 3.5-9t8.5-3.5h26q15 0 26-11t11-27v-25q0-5 3.5-8.5t9-3.5q5.5 0 9 3.5t3.5 9.5v24q0 17-8.5 31.5t-23 23Q254 301 238 301zM13 101q-6 0-9.5-3.5T0 89V63q0-16 8.5-30.5t23-23Q46 1 62 1h26q5 0 8.5 3.5t3.5 9q0 5.5-3.5 9T87 26H63q-16 0-27 11T25 64v24q0 6-3.5 9.5T13 101zm75 200H63q-17 0-31.5-8.5t-23-23Q0 255 0 238v-25q0-5 3.5-8.5t9-3.5q5.5 0 9 3.5T25 214v24q0 16 11 27t26 11h26q5 0 8.5 3.5t3.5 9q0 5.5-3.5 9T87 301h1zm200-200q-6 0-9.5-3.5T275 89V63q0-15-11-26t-27-11h-24q-6 0-9.5-3.5t-3.5-9q0-5.5 3.5-9T212 1h26q16 0 30.5 8.5t23 23Q300 47 300 63v25q0 6-3.5 9.5T288 101z"/></svg>