<svg viewBox="0 0 300 302.0011" xmlns="http://www.w3.org/2000/svg"><path d="M213 1H88Q71 1 56.5 9.5t-23 23Q25 47 25 64v174q0 17 8.5 31.5t23 23Q71 301 87 301h126q16 0 30.5-8.5t23-23Q275 255 275 238V63q0-16-8.5-30.5t-23-23Q229 1 212 1h1zm37 237q0 16-11 27t-26 11H88q-16 0-27-11t-11-27V63q0-15 11-26t27-11h125q15 0 26 11t11 27v174zM81 76q-8 0-13-5.5T63 57q0-8 5-13.5t13-5q8 .5 13.5 5.5t5.5 13q0 8-5.5 13.5T81 76zm32-19q-1-8 4.5-13.5t13.5-5q8 .5 13.5 5.5t5.5 13q0 8-5.5 13.5T131 76q-8 0-13.5-5.5T112 57h1zm37 44q-20 0-37.5 10T85 138.5Q75 156 75 176t10 37.5Q95 231 112.5 241t37.5 10q20 0 37.5-10t27.5-27.5q10-17.5 10-37.5t-10-37.5Q205 121 187.5 111T150 101zm0 125q-17 0-30.5-10.5T102 188h23q5 1 9-3t4-9q0-5-4-9t-9-3h-23q4-17 17.5-27.5T150 126q21 0 35.5 14.5T200 176q0 21-14.5 35.5T150 226z"/></svg>