<svg viewBox="0 0 300 302.0011" xmlns="http://www.w3.org/2000/svg"><path d="M296 280l-19-20q11-15 11-34V76q0-17-8.5-31.5t-23-23Q242 13 225 13H75q-19 0-34 11L21 5q-3-4-8.5-4t-9 3.5Q0 8 0 13.5T4 22l275 275q3 4 8.5 4t9-3.5q3.5-3.5 3.5-9t-4-8.5zM75 38h150q15 0 26.5 11.5T263 76v150q0 8-4 16l-21-21V88q0-10-7.5-17.5T213 63h-21q-16 0-27 11l-37 37-17-16 10-10q3-3 3.5-6.5t-.5-7q-1-3.5-4.5-6T113 63H88q-4 0-7 1L59 42q8-3 16-3v-1zm138 158l-67-67 37-37q3-4 9-4h21v108zm0 80q0 5-4 8.5t-9 3.5H75q-17 0-31.5-8T21 257.5Q13 243 13 226V88q0-5 3.5-8.5T25 76q5 0 9 3.5t4 8.5v138q0 15 11 26t26 11h125q5 0 9 4t4 9zM88 151v62h62q5 0 9 4t4 9q0 5-4 8.5t-9 3.5H88q-11 0-18-7t-7-18v-62q0-5 3.5-9t8.5-4q5 0 9 4t4 9z"/></svg>