<svg viewBox="0 0 300 302.0011" xmlns="http://www.w3.org/2000/svg"><path d="M249 40q-5-21-23.5-32T186 3l-21 6q-9 2-15 8-6-6-15-8l-21-6Q93-3 74.5 8T51 40q-22 4-36.5 21T0 101v87q0 17 8.5 31.5t23 23Q46 251 62 251h76v25h-38q-5 0-8.5 3.5t-4 9q-.5 5.5 3.5 9t9 3.5h100q5 0 8.5-3.5t4-9q.5-5.5-3.5-9t-9-3.5h-37v-25h75q16 0 30.5-8.5t23-23Q300 205 300 189v-88q0-23-14.5-40T249 40zm-86 5q0-4 2.5-7.5T172 33l21-6q12-3 22 4.5T225 51v49q0 9-5 15.5t-13 8.5l-44 13V45zM85 31q10-7 22-4l21 6q4 1 6.5 4.5T137 45v92l-44-13q-8-2-13-8.5T75 100V51q0-13 10-20zm190 157q0 16-11 27t-27 11H63q-16 0-27-11t-11-27v-87q0-12 7-21.5T50 66v34q0 17 10 30.5T86 148l43 13q21 6 42 0l43-13q16-4 26-17.5t10-30.5V66q11 4 18 13.5t7 21.5v87z"/></svg>