<svg viewBox="0 0 300 302.0011" xmlns="http://www.w3.org/2000/svg"><path d="M88 151q20 0 37-10t27-27.5Q162 96 163 76h12q5 0 9-3.5t4-9q0-5.5-4-9t-9-3.5h-17q-8-22-27-36T87 1Q67 1 50 11T22.5 38.5Q12 56 12.5 76T23 113.5Q33 131 50 141t38 10zm0-25q-21 0-35.5-14.5T38 76h100q0 21-15 35.5T87 126h1zm0-100q13 0 24.5 7T131 51H44q7-11 18.5-18T88 26zm82 208q5 14 5 30v24q0 6-3.5 9.5t-9 3.5q-5.5 0-9-3.5T150 288v-25q0-10-4-20-1-5 1-10t7-6.5q5-1.5 9.5.5t6.5 7zM295 43l-45 24v47q0 18-13 29l-60 49q-10 9-24 9H88q-17 0-31.5 8.5t-23 23Q25 247 25 263v25q0 6-3.5 9.5t-9 3.5q-5.5 0-9-3.5T0 288v-25q0-23 12-43t32-32q20-12 44-12h65q5 0 8-3l60-49q4-4 4-10V13q0-5 3.5-8.5T238 1q11 0 21 5l36 15q5 4 5 11t-5 11z"/></svg>