<svg viewBox="0 0 300 302.0011" xmlns="http://www.w3.org/2000/svg"><path d="M175 126h-50q-10 0-17.5 7.5T100 151v50q0 10 7.5 17.5T125 226h50q10 0 17.5-7.5T200 201v-50q0-10-7.5-17.5T175 126zm-50 75v-50h50v50h-50zM275 73V26q0-5-3.5-9t-9-3.5q-5.5.5-9 4T250 26v30l-65-44Q169 1 150 1t-35 11L28 71Q15 79 7.5 93T0 123v115q0 17 8.5 31.5t23 23Q46 301 63 301h175q16 0 30.5-8.5t23-23Q300 255 300 238V123q0-15-6.5-28.5T275 73zm0 165q0 16-11 27t-27 11H63q-16 0-27-11t-11-27V123q0-10 4.5-18T42 91l87-59q10-6 21-6t21 6l87 59q8 6 12.5 14t4.5 18v115z"/></svg>