<svg viewBox="0 0 300 302.0011" xmlns="http://www.w3.org/2000/svg"><path d="M188 301q-6 0-9.5-3.5T175 288v-17q0-14 7-26t19-18q29-14 45.5-41t16.5-59q0-32-17-59.5T200 26v75q0 21-14.5 35.5T150 151q-21 0-35.5-14.5T100 101V26Q71 40 54.5 67.5T38 127q0 32 16 59t45 41q12 6 19 18t7 26v17q0 6-3.5 9.5t-9 3.5q-5.5 0-9-3.5T100 288v-17q0-7-3.5-13t-9.5-9q-34-17-54.5-50t-20-72.5Q13 87 33.5 54T89 3q6-2 12.5-2t12 3.5Q119 8 122 14t3 12v75q0 10 7.5 17.5T150 126q10 0 17.5-7.5T175 101V26q0-6 3-12t8.5-9.5Q192 1 198.5 1T211 3q35 18 55.5 51t20.5 72.5q0 39.5-20 72.5t-54 50q-6 3-9.5 9t-3.5 13v17q0 6-3.5 9.5T187 301h1z"/></svg>