<svg viewBox="0 0 300 302.0011" xmlns="http://www.w3.org/2000/svg"><path d="M25 138h138q10 0 17-7t7-18V26q1-10-6.5-17.5T162 1H25Q15 1 7.5 8.5T0 26v87q0 11 7.5 18t17.5 7zm0-112h138v87H25V26zM275 1h-37q-11 0-18 7.5T213 26v87q0 11 7 18t18 7h37q10 0 17.5-7t7.5-18V26q0-10-7.5-17.5T275 1zm0 112h-37V26h37v87zM63 163H25q-10 0-17.5 7.5T0 189v87q0 10 7.5 17.5T25 301h38q10 0 17.5-7.5T88 276v-88q0-10-7.5-17T63 164v-1zm0 113H25v-88h38v88zm212-113H138q-11 0-18 7.5t-7 18.5v87q0 10 7 17.5t18 7.5h137q10 0 17.5-7.5T300 276v-88q0-10-7.5-17t-17.5-7v-1zm0 113H138v-88h137v88z"/></svg>