<svg viewBox="0 0 300 302.0011" xmlns="http://www.w3.org/2000/svg"><path d="M200 26h-2q-4-11-13.5-18T163 1h-25q-13 0-22.5 7T102 26h-2q-17 0-31.5 8.5T46 57.5Q38 72 38 89v149q0 17 8 31.5t22.5 23Q83 301 100 301h100q17 0 31.5-8.5t23-23Q263 255 262 238V88q0-16-8-30.5t-22.5-23Q217 26 200 26zm38 212q0 16-11 27t-27 11H100q-16 0-27-11t-11-27V88q0-15 11-26t27-11h13q5 0 8.5-3.5t3.5-9 3.5-9Q132 26 138 26h25q5 0 8.5 3.5t3.5 9 3.5 9Q182 51 188 51h12q16 0 26.5 11T237 88v150h1zm-31-72q-4-3-9-2t-8 5l-12 17-20-28q8-5 12.5-13.5T175 126q0-16-11-27t-26-11h-13q-16 0-27 11t-11 27v62q1 6 4.5 9.5t8.5 3.5q5 0 8.5-3.5t3.5-9.5v-25h19l31 44-17 24q-3 4-2 9.5t4.5 8q3.5 2.5 7.5 2.5 7 0 11-5l12-17 12 17q4 5 10 5 4 0 7.5-2.5t4.5-8q1-5.5-2-9.5l-17-24 17-24q3-4 2-9t-5-8zm-94-40q0-5 3.5-9t8.5-4h13q5 0 8.5 4t3.5 9q0 5-3.5 8.5T137 138h-24v-12z"/></svg>