<svg viewBox="0 0 300 302.0011" xmlns="http://www.w3.org/2000/svg"><path d="M150 301q-41 0-75.5-20T20 226.5Q0 192 0 151t20-75.5Q40 41 74.5 21T150 1q41 0 75.5 20T280 75.5q20 34.5 20 75.5t-20 75.5Q260 261 225.5 281T150 301zm0-275q-34 0-62.5 17T42 88.5Q25 117 25 151t17 62.5Q59 242 87.5 259t62.5 17q34 0 62.5-17t45.5-45.5q17-28.5 17-62.5t-17-62.5Q241 60 212.5 43T150 26zm63 175q0-5-4-8.5t-9-3.5H100q-5 0-8.5 3.5T88 201q0 5 3.5 8.5t8.5 3.5h100q5 0 9-3.5t4-8.5zM75 126q0 8 7 11 5 1 18 1t18-1q7-3 7-12t-7.5-16.5Q110 101 100 101t-17.5 7.5Q75 116 75 126zm100 0q0 8 7 11 5 1 18 1t18-1q7-3 7-12t-7.5-16.5Q210 101 200 101t-17.5 7.5Q175 116 175 126z"/></svg>