<svg viewBox="0 0 300 302.0011" xmlns="http://www.w3.org/2000/svg"><path d="M281 82q-6 0-10 4-15-15-26-22 8-7 13-17t5-21q0-5-4-9t-9-3.5q-5 .5-8.5 4T238 26q0 10-7.5 17.5T213 51h-7q-13 0-22-9t-9-22v-7q0-5-3.5-8.5t-9-3.5q-5.5 0-9 3.5T150 13v7q0 17 10 31h-16q-13 0-22.5-9T112 20v-7q1-5-3-8.5T100 1q-5 0-8.5 3.5T88 13v7q0 23 16 39.5T144 76h16q-5 8-7.5 17t-2.5 15v12q0 2-2 4t-4 2H77q-10 0-20 4t-17 11L3 180q-3 4-3 9t3.5 8.5q3.5 3.5 9 3.5t9.5-4l4-4q1 11 8 29l4 12v29q0 16 11 27t26.5 11q15.5 0 26.5-11t11-27v-12h25v12q0 16 11 27t26.5 11q15.5 0 26.5-11t11-27v-26q9-11 15-25 10-21 10-44v-25l20-3q8-1 14.5-6.5T281 120q8 0 13.5-5.5T300 101q0-8-5.5-13.5T281 82zm-27 34l-20 2q-9 2-15 9t-6 16v25q0 21-11 40-5 9-11 15-3 4-3 9v31q0 6-4 9.5t-9 3.5q-5 0-8.5-3.5T163 263v-25q0-5-4-8.5t-9-3.5h-50q-5 0-8.5 3.5T88 239v24q0 6-4 9.5t-9 3.5q-5 0-8.5-3.5T63 263v-31q0-3-6-18-4-11-5-17-2-9-2-19.5t8-18.5q8-8 19-8h67q13 0 22-9t9-22v-12q0-9 5-17 9-15 31-15 10 0 23 10 8 6 21 20 1 3 1 8 0 1-2 2z"/></svg>