<svg viewBox="0 0 300 302.0011" xmlns="http://www.w3.org/2000/svg"><path d="M156 232q0 8-5.5 13.5t-13 5.5q-7.5 0-13-5.5T119 232q0-8 5.5-13.5t13-5.5q7.5 0 13 5.5T156 232zm-18-44q5 0 8.5-3.5t3.5-8.5V63q0-5-3.5-8.5t-9-3.5q-5.5 0-9 3.5T125 63v113q0 5 3.5 9t9.5 4v-1zM88 51H63q-17 0-31.5 8.5t-23 23Q0 97 0 114v74q0 17 8.5 31.5t23 23Q46 251 63 251h12q5 0 9-3.5t3.5-9q-.5-5.5-4-9T75 226H63q-16 0-27-11t-11-26v-76q0-15 11-26t27-11h25q5 0 8.5-3.5t3.5-9q0-5.5-3.5-9T87 51h1zm200 50h-14q-5-22-22-36t-39-14h-25q-6 0-9.5 3.5t-3.5 9q0 5.5 3.5 9T187 76h26q15 0 26 11t11 26v75q0 16-11 27t-26 11h-13q-5 0-9 3.5t-3.5 9q.5 5.5 4 9t8.5 3.5h13q22 0 39-14t22-36h14q5 0 8.5-3.5t3.5-8.5v-76q0-5-3.5-8.5T287 101h1z"/></svg>