<svg viewBox="0 0 300 302.0011" xmlns="http://www.w3.org/2000/svg"><path d="M263 288q0 6-4 9.5t-9 3.5h-16q-8 0-14.5-5t-9.5-13l-17-60q-1-4-4.5-6.5T181 213h-56q-16 0-27-10.5T87 176v-75q0-5 4-9t9-4q5 0 8.5 4t3.5 9v25h76q5 0 8.5 3.5t3.5 9q0 5.5-3.5 9T187 151h-74v25q0 5 3.5 8.5t8.5 3.5h56q13 0 23 8t13 20l17 60h16q5 0 9 3.5t4 8.5zM106 63q13 0 22.5-9t9.5-22q0-13-9.5-22T106 1q-13 0-22 9t-9 22q0 13 9 22t22 9zm57 175h-38q-17 0-31.5-8T71 207.5Q63 193 63 176v-75q-1-5-4.5-9T50 88q-5 0-8.5 4t-4.5 9v75q1 24 12.5 44T81 251.5q20 11.5 44 11.5h38q5 0 8.5-3.5t3.5-8.5q0-5-3.5-8.5T162 239l1-1z"/></svg>