<svg viewBox="0 0 300 302.0011" xmlns="http://www.w3.org/2000/svg"><path d="M100 113v25h75q5 0 9 4t4 9q0 5-4 8.5t-9 3.5h-75v25q0 11 7.5 18.5T125 214h88q5 0 8.5 3.5t3.5 8.5q0 5-3.5 8.5T213 238h-88q-21 0-35.5-14.5T75 188v-75q0-20 14.5-35T125 63h88q5 1 8.5 4.5T225 76q0 5-3.5 8.5T213 88h-88q-10 1-17.5 8t-7.5 17zm200-50v175q0 17-8.5 31.5t-23 23Q254 301 238 301H63q-17 0-31.5-8.5t-23-23Q0 255 0 238V63q0-16 8.5-30.5t23-23Q46 1 63 1h175q16 0 30.5 8.5t23 23Q300 47 300 64v-1zm-25 0q0-15-11-26t-27-11H63q-16 0-27 11T25 64v174q0 16 11 27t27 11h175q15 0 26-11t11-27V63z"/></svg>