<svg viewBox="0 0 300 302.0011" xmlns="http://www.w3.org/2000/svg"><path d="M149 201q8 0 13.5 5.5T168 220q0 8-5.5 13t-13.5 5q-8 0-13.5-5t-5.5-13q0-8 5.5-13.5T149 201zm12-25q0-5 3.5-10.5t8.5-8.5q14-8 21-22.5t4-30Q195 89 184 78t-26-14q-11-2-22 1t-19.5 10q-8.5 7-13 17T99 113q0 5 3.5 9t8.5 4q5 0 9-4t4-9q0-11 9-18.5t20-5.5q8 1 13.5 6.5t7 13.5q1.5 8-2 15T161 135q-11 6-18 17.5t-7 23.5q0 5 4 8.5t9 3.5q5 0 8.5-3.5t3.5-8.5zm139 62v-83q0-40-18.5-74T231 25.5Q199 4 160 1q-32-2-62.5 9.5T44 45Q21 68 9.5 98.5T0 162q3 39 25.5 71T84 283q36 18 80 18h74q16 0 30.5-8.5t23-23Q300 255 300 238zM159 26q32 2 58.5 20t42 47q15.5 29 15.5 62v83q0 16-11 27t-27 11h-73q-38 0-68.5-15t-49-41.5Q28 193 25 160q-2-27 7.5-52.5t28-44Q79 45 102 35.5t48-9.5h9z"/></svg>