<svg viewBox="0 0 300.0013 302.0011" xmlns="http://www.w3.org/2000/svg"><path d="M38 32q0-8 5-13.5T56 13q8 0 13.5 5.5T75 32q0 8-5.5 13.5T56 51q-8 0-13-5.5T38 32zM0 170q0-18 13-31t31-13q18 0 31 13t13 31q0 18-13 30.5T44 213q-18 0-31-12.5T0 170zm25 0q0 8 5.5 13t13.5 5q8 0 13.5-5t5.5-13q0-8-5.5-13.5T44 151q-8 0-13.5 5.5T25 170zm194 93q-8 0-13.5 5.5T200 282q0 8 5.5 13.5T219 301q8 0 13.5-5.5t5-13.5q-.5-8-5.5-13.5t-13-4.5v-1zm62-37q-8 0-13.5 5.5t-5 13.5q.5 8 5.5 13t13 5q8 0 13.5-5t5.5-13q0-8-5.5-13.5T281 226zm19-73q0 8-7 12t-20 9q-6 23-24.5 37.5t-42 14.5q-23.5 0-42-14.5T140 174q-14-5-20.5-9t-6.5-11.5q0-7.5 6-11.5 9-4 23-8 7-20 24.5-33T206 88q22 0 40 13t25 33q14 4 22 8 7 4 7 11zm-137 3q22 7 43 7t44-7q0-18-13-30.5T206 113q-18 0-30.5 12.5T163 156zm77 29q-17 3-33.5 3t-34.5-3q6 7 15 11.5t19 4.5q10 0 19-4.5t15-11.5zm-97 55q-37 25-67.5 33T32 269q-7-8-7-24 0-5-3.5-9t-9-4q-5.5 0-9 3.5T0 244q-1 27 14 42t40 15q22 0 48-10.5t55-30.5q4-3 5-8t-2-9.5q-3-4.5-8-5t-9 2.5zM79 116q4 3 9 3t9-4l8-9q25-24 51-42.5T206 35q21-8 37.5-8.5t23.5 6q7 6.5 8 18.5t-4 28q-1 5 1.5 9.5t7.5 6q5 1.5 9.5-1T295 86q8-27 3-46-3-15-13-24-13-14-36-15t-52 11q-27 11-55 30.5T87 88l-9 10q-3 4-3 9t4 8v1z"/></svg>