<svg viewBox="0 0 300 302.0011" xmlns="http://www.w3.org/2000/svg"><path d="M138 38V13q0-5 3.5-8.5t9-3.5q5.5 0 9 3.5T163 14v24q0 6-3.5 9.5t-9 3.5q-5.5 0-9-3.5T138 38zm63 13q5 0 8.5-3.5T213 38V13q0-5-3.5-8.5t-9-3.5q-5.5 0-9 3.5T188 14v24q0 6 3.5 9.5T200 51h1zm-100 0q5 0 8.5-3.5T113 38V13q0-5-3.5-8.5t-9-3.5q-5.5 0-9 3.5T88 14v24q0 6 3.5 9.5T101 51zm199 71q-7 30-26 55t-46 41l22 67q1 4-1 9t-7 6q-2 1-5 1t-6.5-2.5Q227 296 226 292l-5-16h-83q-6 0-9.5-3.5t-3.5-9q0-5.5 3.5-9t9.5-3.5h74l-8-25H97l-7 21q10 9 10 22.5T91 292q-9 9-22 9t-22-9q-9-9-9-22t8-22q8-9 20-9l7-21q-27-16-46-41T1 122q-2-8 0-16.5T8.5 90q5.5-7 13-10.5T38 76h225q9 0 16.5 3.5t13 10.5q5.5 7 7 15.5t.5 16.5zm-27-16q-4-5-10-5H38q-6 0-10 5t-2 11q6 27 24.5 49T95 201h111q26-13 44.5-35t24.5-49q2-7-2-11z"/></svg>