<svg viewBox="0 0 300 302.0011" xmlns="http://www.w3.org/2000/svg"><path d="M150 151q20 0 37.5-10t27.5-27.5Q225 96 225 76t-10-37.5Q205 21 187.5 11T150 1q-20 0-37.5 10T85 38.5Q75 56 75 76t10 37.5Q95 131 112.5 141t37.5 10zm0-125q21 0 35.5 14.5T200 76q0 21-14.5 35.5T150 126q-21 0-35.5-14.5T100 76q0-21 14.5-35.5T150 26zm124 261q1 6-2.5 10t-9 4q-5.5 0-9-3t-4.5-8q-2-25-16-45.5t-36-32Q175 201 150 201t-47 11.5q-22 11.5-36 32T51 290q-1 5-5 8.5t-9 2.5q-5-1-8.5-5t-2.5-9q3-31 20.5-56.5t45-40Q119 176 150 176t58.5 14.5q27.5 14.5 45 40T274 287zm-50-1q1 5-2 9.5t-8 5.5h-3q-4 0-7.5-3t-4.5-7q-4-17-17.5-28.5T150 251q-18 0-31.5 11.5T101 291q-1 5-5.5 8t-9.5 2q-5-1-8-5.5t-1-9.5q5-26 25.5-43t47.5-17q27 0 47.5 17t25.5 43h1z"/></svg>