<svg viewBox="0 0 300 302.0011" xmlns="http://www.w3.org/2000/svg"><path d="M213 1H88Q71 1 56.5 9.5t-23 23Q25 47 25 64v199q0 12 6.5 21.5t17 14q10.5 4.5 22 2T90 289l60-69 60 69q11 12 27 12 8 0 14-3 11-4 17.5-13.5T275 263V63q0-16-8.5-30.5t-23-23Q229 1 212 1h1zm37 262q0 9-8 12t-13-3l-70-79q-3-5-9-5t-9 5l-69 79q-6 6-14 3t-8-12V63q0-15 11-26t27-11h125q15 0 26 11t11 27v199zM212 95q1 3 0 6.5t-3 5.5l-25 20 10 31q1 3 0 6t-3.5 5.5Q188 172 185 172t-6-2l-29-19-28 19q-3 2-6 2t-6-2q-3-2-4-5t0-7l10-31-25-20q-2-2-3-5.5t0-6.5q1-3 4-5t6-2h31l11-31q1-3 4-4.5t6-1.5q3 0 6 1.5t4 4.5l11 31h31q3 0 6 2t4 5z"/></svg>