<svg viewBox="0 0 300 302.0011" xmlns="http://www.w3.org/2000/svg"><path d="M200 201q0 5-3.5 8.5T188 213h-25v25q0 6-4 9.5t-9 3.5q-5 0-9-3.5t-4-9.5v-25h-24q-6 0-9.5-3.5T100 201q0-5 3.5-8.5t9.5-3.5h25v-26q0-5 3.5-8.5t8.5-3.5q5 0 9 3.5t4 8.5v25h25q5 0 8.5 4t3.5 9zm75-69v106q0 17-8.5 31.5t-23 23Q229 301 213 301H88q-17 0-31.5-8.5t-23-23Q25 255 25 238V63q0-16 8.5-30.5t23-23Q71 1 87 1h57q17 0 33.5 6.5T206 27l43 43q13 12 19.5 28.5T275 132zm-87-88q-6-5-13-9v53q0 6 3.5 9.5t8.5 3.5h54q-4-7-9-13l-44-44zm62 88v-4l-1-2h-61q-16 0-27-11t-11-27V27l-6-1H88q-16 0-27 11T50 64v174q0 16 11 27t27 11h125q15 0 26-11t11-27V132z"/></svg>