<svg viewBox="0 0 300 302.0011" xmlns="http://www.w3.org/2000/svg"><path d="M150 176q-27 0-50 13.5T63.5 226Q50 249 50 276v12q0 6 3.5 9.5t9 3.5q5.5 0 9-3.5T75 288v-12q0-15 5.5-28T95 225q25 41 49 71 4 5 10 5 8 0 11-7t-1-13l-1-1q23-24 42-55 9 10 14.5 23t5.5 28v12q0 6 3.5 9.5t9 3.5q5.5 0 9-3.5t3.5-9.5v-12q0-27-13.5-50T200 189.5Q177 176 150 176zm-35 33q17-8 35-8t34 8q-16 29-36 51-17-24-33-51zm73-139q-1 8-6 13.5T169 89h-38q-8 0-13.5-5.5T112 70q0-8 5.5-13.5T131 51h38q8 0 13.5 5.5T188 70zm70 6q-7-5-19-6 12-2 19-7 10-7 17-26 1-4-1.5-7.5T267 26q-20 0-31 7-9 6-15 20-7-23-26.5-37.5T150 1q-20 0-37.5 10T85 38.5Q75 56 75 76t10 37.5Q95 131 112.5 141t37.5 10q27 0 47.5-17T223 91q6 10 13 15 11 8 31 7 4 0 6.5-3t1.5-7q-7-19-17-27zm-108 50q-21 0-35.5-14.5T100 76q0-21 14.5-35.5T150 26q21 0 35.5 14.5T200 76q0 21-14.5 35.5T150 126z"/></svg>