<svg viewBox="0 0 300 302.0011" xmlns="http://www.w3.org/2000/svg"><path d="M238 226q-13 0-24.5-14.5T195 170q-8-30-8-69h13q5 0 9-3.5t4-9q0-5.5-4-9t-9-3.5h-7q9-16 6-34t-17-29.5Q168 1 150 1t-32 11.5Q104 24 101 42t6 34h-7q-5 0-9 3.5t-3.5 9q.5 5.5 4 9t8.5 3.5h13q0 39-8 69-7 27-18.5 41.5T62 226q-16 0-26.5 11T25 263.5Q25 279 36 290t26 11h176q15 0 26-11t11-26.5q0-15.5-10.5-26.5T238 226zM150 26q10 0 17.5 7.5T175 51q0 10-7.5 17.5T150 76q-10 0-17.5-7.5T125 51q0-10 7.5-17.5T150 26zm-12 75h25q0 41 7.5 73.5T193 226h-85q14-19 21.5-51.5T137 101h1zm100 175H63q-6 0-9.5-3.5t-3.5-9q0-5.5 3.5-9T63 251h175q5 0 8.5 3.5t3.5 9q0 5.5-3.5 9T238 276z"/></svg>