<svg viewBox="0 0 300 302.0011" xmlns="http://www.w3.org/2000/svg"><path d="M209 141q4 3 4 8.5t-4 8.5l-32 32q-5 5-12.5 8t-14.5 3q-7 0-14-3t-12-8l-33-33q-4-4-4-9t4-8.5q4-3.5 9-3.5t9 3l28 29V76q0-5 4-9t9-4q5 0 8.5 4t3.5 9v93l29-28q4-4 9-4t9 4zm91-90v150q0 21-14.5 35.5T250 251h-36l-48 40q-7 6-16 6t-17-7l-46-39H50q-21 0-35.5-14.5T0 201V51q0-21 14.5-35.5T50 1h200q21 0 35.5 14.5T300 51zm-25 0q0-10-7.5-17.5T250 26H50q-10 0-17.5 7.5T25 51v150q0 10 7.5 17.5T50 226h41q5 0 8 3l51 43 52-43q3-3 8-3h40q10 0 17.5-7.5T275 201V51z"/></svg>