<svg viewBox="0 0 300 302.0011" xmlns="http://www.w3.org/2000/svg"><path d="M113 301H13q-6 0-9.5-3.5t-3.5-9q0-5.5 3.5-9T12 276h101q5 0 8.5 3.5t3.5 9q0 5.5-3.5 9T112 301h1zm-25-50H13q-6 0-9.5-3.5t-3.5-9q0-5.5 3.5-9T12 226h76q5 0 8.5 3.5t3.5 9q0 5.5-3.5 9T87 251h1zm-25-50H13q-6 0-9.5-3.5t-3.5-9q0-5.5 3.5-9T12 176h51q5 0 8.5 3.5t3.5 9q0 5.5-3.5 9T62 201h1zm100 99q-6 1-9.5-2.5t-4-9q-.5-5.5 3-9t8.5-4.5q33-3 59.5-21t41-46q14.5-28 13.5-60.5t-17.5-60q-16.5-27.5-44-44t-60-17.5Q121 25 93 39.5t-46.5 41Q28 107 26 140q-1 5-5 8t-9 2.5q-5-.5-8.5-4T1 137q3-39 25-71t56.5-49.5Q117-1 156.5 1T229 23.5Q262 44 281 78t19 72.5q0 38.5-18 71.5t-49 54q-31 21-69 24h-1zM150 76q-5 0-9 3.5t-4 8.5v63q1 5 4 9l38 37q3 4 8.5 4t9-3.5q3.5-3.5 3.5-9t-4-8.5l-33-34V88q0-5-4-8.5t-9-3.5z"/></svg>