<svg viewBox="0 0 300 302.0011" xmlns="http://www.w3.org/2000/svg"><path d="M288 276V101q5 0 8.5-3.5t3.5-9q0-5.5-3.5-9T288 76h-57q6-12 6-25t-6.5-24.5Q224 15 212.5 8T188 1q-6 0-9.5 3.5t-3.5 9q0 5.5 3.5 9T187 26q11 0 18 7.5t7.5 17.5q.5 10-7 17.5T187 76H13q-6 0-9.5 3.5t-3.5 9q0 5.5 3.5 9T12 101v175q-5 0-8.5 3.5t-3.5 9q0 5.5 3.5 9T12 301h276q5 0 8.5-3.5t3.5-9q0-5.5-3.5-9T288 276zM38 251h187q5 0 9-3.5t3.5-9q-.5-5.5-4-9T225 226H38v-75h187q5 0 9-3.5t3.5-9q-.5-5.5-4-9T225 126H38v-25h225v175H38v-25z"/></svg>