<svg viewBox="0 0 300 302.0011" xmlns="http://www.w3.org/2000/svg"><path d="M0 76q0-5 3.5-9t9.5-4h91q16 0 27-11l33-33q18-18 44-18h80q5 0 8.5 3.5t3.5 9q0 5.5-3.5 9T288 26h-80q-15 0-26 11l-33 33q-19 18-45 18H13q-6 0-9.5-3.5T0 76zm288 200H171q-16 0-27-11l-58-58q-18-19-44-19H13q-6 0-9.5 4T0 201q0 5 3.5 8.5T13 213h29q15 0 26 11l59 59q18 18 44 18h117q5 0 8.5-3.5t3.5-9q0-5.5-3.5-9T288 276zm12-138q0-5-3.5-8.5T288 126H13q-6 0-9.5 3.5t-3.5 9q0 5.5 3.5 9T13 151h107l57 57q18 18 44 18h67q5 0 8.5-3.5t3.5-9q0-5.5-3.5-9T288 201h-67q-16 0-27-11l-39-39h133q5 0 8.5-3.5t3.5-9.5z"/></svg>