<svg viewBox="0 0 300 302.0011" xmlns="http://www.w3.org/2000/svg"><path d="M213 238q0 17-8.5 31.5t-23 23Q167 301 150 301H63q-17 0-31.5-8.5t-23-23Q0 255 0 238v-87q0-17 8.5-31.5t23-23Q46 88 63 88h12q5 0 9 4t4 9q0 5-4 8.5t-9 3.5H63q-16 0-27 11.5T25 151v87q0 16 11 27t27 11h87q15 0 26.5-11t11.5-27q0-5 3.5-8.5t8.5-3.5q5 0 9 3.5t4 8.5zm76-163L222 5q-4-4-9-4t-9 3.5q-4 3.5-4 8.5t4 9l64 66H163q-17 0-31.5 8.5t-23 23Q100 134 100 151v62q0 6 3.5 9.5t9 3.5q5.5 0 9-3.5t3.5-9.5v-62q0-16 11-27t27-11h105l-64 67q-4 3-4 8.5t3.5 9q3.5 3.5 9 3.5t9.5-4l67-70q11-11 11-26.5T289 74v1z"/></svg>