<svg viewBox="0 0 300 302.0011" xmlns="http://www.w3.org/2000/svg"><path d="M258 229l6 8q7 9 11 17 6 10 6 16 0 13-9 22t-22 9q-13 0-22-9t-9-22q0-6 6-16 4-8 11-17l6-8q3-3 8-3t8 3zm42-53q0 10-7.5 17.5T275 201h-50q-10 0-17.5-7.5T200 176q0-5-3.5-8.5T187 164H13q-6-1-9.5-4.5T0 151q0-5 3.5-9t9.5-4h100V88H13q-6 0-9.5-3.5T0 76q0-5 3.5-9t9.5-4h100V26H63q-6 0-9.5-3.5t-3.5-9q0-5.5 3.5-9T62 1h126q5 0 8.5 3.5t3.5 9q0 5.5-3.5 9T187 26h-49v37h50q30 0 56 15.5t41 41q15 25.5 15 56.5zm-25 0q0-24-12-44t-32-31.5Q211 89 188 89h-50v49h50q15 0 26 11t11 27h50z"/></svg>