<svg viewBox="0 0 300 302.0011" xmlns="http://www.w3.org/2000/svg"><path d="M150 301H75q-20 0-37.5-10T10 263.5Q0 246 0 226v-35q0-17 7.5-32.5t20.5-26Q41 122 57.5 118t32.5-1l160 34 24-140q1-7 7.5-9.5t12 2Q299 8 298 16l-30 182q-2 17-9 32-14 32-43.5 51.5T150 301zM75 141q-21 0-35.5 14.5T25 191v35q0 21 14.5 35.5T75 276h75q28 0 51.5-15.5T236 220q5-12 7-25l3-20-161-33q-5-1-10-1zm106 73h-2L73 192q-8-1-10.5-8.5t2.5-13q5-5.5 13-3.5l106 23q5 1 7.5 4.5t2 8.5q-.5 5-4 8t-7.5 3h-1zm-56 40h-3l-62-13q-5-1-7.5-5.5T51 226q1-5 5-7.5t10-1.5l62 13q4 1 7 5t2.5 8.5q-.5 4.5-4 8T125 254z"/></svg>