<svg viewBox="0 0 300 302.0011" xmlns="http://www.w3.org/2000/svg"><path d="M238 13H63q-17 0-31.5 8.5t-23 23Q0 59 0 76v150q0 17 8.5 31.5t23 22.5q14.5 8 31.5 8h175q16 0 30.5-8t23-22.5Q300 243 300 226V76q0-17-8.5-31.5t-23-23Q254 13 238 13zm37 75h-49l39-38q10 11 10 26v12zm-34-49l-50 49h-43l50-50 43 1zm-78-1l-47 48-2 3H70l50-51h43zM63 38h22L35 88H25V76q0-16 11-26.5T63 39v-1zm175 225H63q-16 0-27-10.5T25 226V113h250v113q0 16-11 27t-27 11l1-1zm-50-65l-58 31q-6 4-12 .5t-6-10.5v-62q0-6 6-9.5t12-.5l58 31q6 4 6 10.5t-6 9.5z"/></svg>