<svg viewBox="0 0 300 302.0011" xmlns="http://www.w3.org/2000/svg"><path d="M200 54q-1-7-6.5-11.5T181 39h-12q-2-1-4 1t-2 5v50q0 2 2 4t4 2h12q7 0 12.5-5t6.5-12q1-9-5-14 7-7 5-16zm-18 34h-7V76h7q2 0 4 2t2 4.5q0 2.5-2 4.5t-4 2v-1zm0-25h-7V51h7q2 0 4 2t2 4.5q0 2.5-2 4.5t-4 2v-1zm39-7q-1 2 1 3l13 5q9 3 12.5 9t2.5 12.5q-1 6.5-7 11t-14.5 4.5q-8.5 0-15.5-4-3-2-3-5t3-6q3-3 7-.5t8 2.5q4 0 6.5-1.5t3-4.5q.5-3-6.5-6l-15-6q-10-6-8-16 1-5 4-9t9-5q9-3 18 2 3 1 3.5 4t-2 6q-2.5 3-7 1t-8.5-1q-4 1-4 4zm-96-11v37q0 2 1.5 4t4 2.5q2.5.5 4.5-1.5t2-5V45q0-3 2-5t4.5-2q2.5 0 4.5 2t2 5v37q0 8-6 13.5t-13.5 5.5q-7.5 0-13-6T112 82V45q0-3 2-5t4.5-2q2.5 0 4.5 2t2 5zM87 83q1-4-6-7l-15-6q-10-6-8-16 1-5 4-9t9-5q9-3 18 2 3 1 3.5 4t-2 6q-2.5 3-7 1T75 52q-4 1-4.5 3.5T72 59l13 5q9 3 12.5 9t2 12.5q-1.5 6.5-7 11t-14 4.5Q70 101 63 97q-3-2-3-5t3-6q3-3 7-.5t8 2.5q4 0 6.5-1.5T87 83zm213-26v25q0 24-16.5 40.5T244 139h-32q-5-1-8.5-4.5T200 126q0-5 3.5-9t8.5-3h32q13-1 22-10t9-22V57q0-13-9-22t-22-9H56q-13 0-22 9t-9 22v25q0 13 9 22t22 10h7q5-1 8.5 3t3.5 9q0 5-3.5 8.5T63 138h-7q-23 0-39.5-16T0 82V57q0-23 16.5-39.5T56 1h188q23 0 39.5 16.5T300 57zm-25 231q0 5-3.5 9t-8.5 4h-1q-4 0-8-3.5t-4-8.5q-1-11-7.5-20T226 256l-68-25q-3-1-5.5-4.5T150 219v-67q0-5-3-9t-8-4.5q-5-.5-9.5 3T125 151v106q0 5-3 10t-8 7.5q-5 2.5-10.5 2T93 272l-22-18q-4-3-9-3t-8.5 4q-3.5 4-3.5 9t4 9l7 7q4 3 4 8.5t-3.5 9q-3.5 3.5-9 3.5t-8.5-3l-7-7q-11-11-11.5-26.5t10-26.5Q46 227 61 226t27 10l12 10v-95q0-17 13-28.5t31-8.5q13 2 22 13t9 25v59l59 22q18 6 29 21t12 34z"/></svg>