<svg viewBox="0 0 300 302.0011" xmlns="http://www.w3.org/2000/svg"><path d="M250 126h-12v-25q0-21-15-35.5T187 51h-12q-3-21-19-35.5T118.5 1Q97 1 81 15.5T63 51H50q-21 0-35.5 14.5T0 101v75q0 17 8.5 31.5t23 22.5q14.5 8 31.5 8h12q0 17 8.5 31.5t23 23Q121 301 137 301h101q16 0 30.5-8.5t23-23Q300 255 300 238v-62q0-21-14.5-35.5T250 126zM119 26q11 0 19.5 7T149 51H88q2-11 11-18t20-7zM63 213q-16 0-27-10.5T25 176v-75q0-10 7.5-17.5T50 76h13v25q-1 5 3 9t9 3.5q5-.5 9-4t4-8.5V76h62v25q0 5 3.5 9t9 3.5q5.5-.5 9-4t3.5-8.5V76h13q10 0 17.5 7.5T213 101v25h-88q-21 0-35.5 14.5T75 176v37H63zm212 25q0 16-11 27t-27 11h-99q-16 0-27-11t-11-27v-62q0-10 7.5-17.5T125 151h125q10 0 17.5 7.5T275 176v62zm-37-50v13q0 21-15 35.5T187.5 251q-20.5 0-35.5-14.5T138 201v-13q0-5 3.5-8.5t8.5-3.5q5 0 8.5 3.5t3.5 9.5v12q1 10 8 17.5t17.5 7.5q10.5 0 18-7.5T213 201v-13q-1-5 3-8.5t9-3.5q5 0 8.5 3.5t3.5 9.5l1-1z"/></svg>