<svg viewBox="0 0 300 302.0011" xmlns="http://www.w3.org/2000/svg"><path d="M163 90V45q0-18-13-31T119 1h-13Q88 1 75.5 14T63 45v45q-22 4-36 21.5T13 151v87q0 17 8 31.5t22.5 23Q58 301 75 301h75q17 0 31.5-8.5t22.5-23q8-14.5 8-31.5v-87q1-22-13.5-39.5T163 90zM88 45q0-8 5-13.5t13-5.5h13q8 0 13 5.5t5 13.5v43H88V45zm100 193q0 16-11 27t-27 11H75q-16 0-27-11t-11-27v-87q1-16 11.5-26.5T75 114h75q16-1 26.5 10t10.5 27v87h1zm50-181q0 8-5.5 13.5T219 76q-8 0-13.5-5.5T200 57q0-8 5.5-13.5t13.5-5q8 .5 13.5 5.5t5.5 13zm12-37q0-8 5.5-13.5T269 1q8 0 13.5 5.5T288 20q0 8-5.5 13T269 38q-8 0-13.5-5T250 20zm38 75q0 8-5.5 13.5t-13.5 5q-8-.5-13.5-5.5T250 95q0-8 5.5-13.5T269 76q8 0 13.5 5.5T288 95zm-175 56q-21 0-35.5 14.5T63 201q0 21 14.5 35.5t35 14.5q20.5 0 35-14.5t15-35.5q.5-21-14.5-35.5T112 151h1zm0 75q-11 0-18.5-7.5t-7-17.5q.5-10 7.5-17.5t17.5-7.5q10.5 0 18 7.5T138 201q0 10-7.5 17.5T113 226z"/></svg>