<svg viewBox="0 0 300 302.0011" xmlns="http://www.w3.org/2000/svg"><path d="M291 120l-43-75q-9-15-23.5-23.5T194 13h-88q-17 0-31.5 8.5T52 45L9 120q-9 14-9 31t9 31l43 75q8 15 22.5 23t31.5 8h88q16 0 30.5-8t23.5-23l43-75q9-14 9-31t-9-31zm-21 50l-44 75q-5 9-13.5 13.5T194 263h-88q-10 0-18.5-4.5T74 245l-44-75q-5-9-5-19t5-19l44-75q5-8 13.5-13t18.5-5h88q10 0 18.5 5T226 57l44 75q5 9 5 19t-5 19zm-70-7l-28-49q3-6 3-13 0-10-7.5-17.5T150 76q-10 0-17.5 7.5T125 101q0 7 3 13l-28 49q-10 0-17.5 7.5t-7.5 18q0 10.5 7.5 17.5t17.5 7q7 0 12.5-3t9.5-9h56q4 6 9.5 9t12.5 3q10 0 17.5-7t7.5-17.5q0-10.5-7.5-17.5t-17.5-8zm-78 13l28-50 28 50h-56z"/></svg>