<svg viewBox="0 0 300 302.0011" xmlns="http://www.w3.org/2000/svg"><path d="M226 107q-3-4-8-5.5t-9 1.5l-12 7q-15-16-35-20V76q1-5-3-8.5t-9-3.5q-5 0-8.5 3.5T138 76v14q-20 4-35 20l-12-7q-4-3-9-1.5t-7.5 6Q72 112 73 117t6 7l12 7q-3 11-3 20t3 20l-12 7q-5 2-6 7t2 10.5q3 5.5 10 5.5 3 0 6-2l12-7q15 16 35 20v14q0 5 3.5 8.5t8.5 3.5q5 0 8.5-3.5t3.5-8.5v-14q20-4 35-20l12 7q3 2 6 2 7 0 10-5.5t2-10.5q-1-5-6-7l-12-7q4-11 4-20t-4-20l12-7q5-2 6-7t-1-10zm-76 81q-16 0-26.5-10.5T113 151q0-16 10.5-26.5t26.5-11q16-.5 26.5 10.5t11 27q.5 16-10.5 26.5T150 188zM25 140q0 4-4 7.5t-8 3.5h-2q-5-1-8-4.5T0 137q3-37 24.5-68.5T79 19q33-18 71-18 28 0 53.5 10T250 39V13q0-5 3.5-8.5t9-3.5q5.5 0 9 3.5T275 14v49q0 11-7.5 18.5T250 89h-50q-5-1-8.5-4.5T188 76q0-5 3.5-8.5T200 64h39q-18-18-41-28t-48-10q-32 0-59.5 15t-45 41Q28 108 25 140zm275 25q-3 37-24.5 68.5T221 283q-33 18-71 18-28 0-53.5-10T50 262v26q0 6-3.5 9.5t-9 3.5q-5.5 0-9-3.5T25 288v-50q0-10 7.5-17t17.5-8h50q5 0 8.5 4t4 9q.5 5-3.5 8.5t-9 3.5H61q18 18 41 28t48 10q32 0 59.5-15t45-41q17.5-26 20.5-58 1-5 4.5-8t9-2.5q5.5.5 8.5 4t3 9.5z"/></svg>