<svg viewBox="0 0 300 302.0011" xmlns="http://www.w3.org/2000/svg"><path d="M275 116V88q0-20-10-37t-27.5-27Q220 14 200 14H100q-20-1-37.5 9.5T35 51Q25 68 25 89v27q-11 4-18 13.5T0 151v50q0 15 6.5 28T25 251v25q0 5 3.5 9t9 4q5.5 0 9-4t3.5-9v-14q6 1 12 1h176q6 0 12-1v14q0 5 3.5 8.5t9 3.5q5.5 0 9-3.5t3.5-8.5v-25q12-9 18.5-22t6.5-28v-50q0-12-7-21.5T275 116zM63 238q-16 1-27-10t-11-27v-50q0-5 3.5-9t9-4q5.5 0 9 4t3.5 9v37q0 6 3.5 9.5T63 201h37q16 0 26.5 11t11.5 26H63zm87-37q-9-12-22-18.5t-28-6.5H75v-25q0-12-7-21.5T50 116V88q0-20 14.5-35T100 38h100q21 0 35.5 15T250 89v27q-11 4-18 13.5t-7 21.5v25h-25q-15 0-28 6.5T150 201zm125 0q0 16-11 27t-27 11h-74q-1-16 10-27t27-11h38q5 0 8.5-3.5t3.5-8.5v-38q0-5 3.5-9t9-4q5.5 0 9 4t3.5 9v50z"/></svg>