<svg viewBox="0 0 300 302.0011" xmlns="http://www.w3.org/2000/svg"><path d="M150 70q-18 0-31 12.5T106 113q0 15 9 26.5t22 15.5v133q1 6 4.5 9.5t8.5 3.5q5 0 9-3.5t3-9.5V155q14-4 23-15.5t9-25.5q0-19-13-31.5T150 70zm0 62q-8 0-13.5-5.5t-5.5-13q0-7.5 5.5-13T150 95q8 0 13.5 5.5t5.5 13q0 7.5-5.5 13T150 132zM97 61Q86 72 80.5 85.5T75 114q0 15 5.5 29T97 167q4 4 4 9t-4 9q-4 4-9 4t-9-4q-14-14-21.5-32.5T50 114q0-20 7.5-38T79 44q4-4 9-4t9 3.5q4 3.5 4 9T97 61zm153 53q0 20-7.5 38.5T221 185q-4 4-9 4t-9-4q-4-4-4-9t4-9q11-10 16.5-24t5.5-29q0-15-5.5-28.5T203 61q-4-3-4-8.5t4-9q4-3.5 9-3.5t9 4q14 14 21.5 32t7.5 38zM62 203q3 4 3 9t-3.5 8.5Q58 224 53 224t-9-3q-29-29-39-68t0-77.5Q15 37 44 8q4-3 9-3t8.5 3.5Q65 12 65 17t-3 9Q38 50 29.5 82t0 64.5Q38 179 62 203zm194 18q-4 3-9 3t-8.5-3.5Q235 217 235 212t3-9q24-24 32.5-56.5t0-64.5Q262 50 238 26q-3-4-3-9t3.5-8.5Q242 5 247 5t9 3q29 29 39 67.5t0 77.5q-10 39-39 68z"/></svg>