<svg viewBox="0 0 300 302.0011" xmlns="http://www.w3.org/2000/svg"><path d="M125 138q5 0 8.5 4t4 9q.5 5-3.5 8.5t-9 3.5q-5 0-8.5-3.5T113 151q0-5 3.5-8.5t8.5-3.5v-1zm-100 0q-5 1-8.5 4.5T13 151q0 5 3.5 8.5T25 163q5 0 9-3.5t4-8.5q0-5-4-9t-9-3v-1zm138 13q0 5 3.5 8.5t8.5 3.5q5 0 8.5-3.5t4-8.5q.5-5-3.5-8.5t-9-4q-5-.5-8.5 3.5t-3.5 9zm-88-13q-5 0-8.5 4t-3.5 9q0 5 3.5 8.5T75 163q5 0 9-3.5t4-8.5q0-5-4-8.5t-9-3.5v-1zm150 0q-5 0-8.5 4t-3.5 9q0 5 3.5 8.5t8.5 3.5q5 0 8.5-3.5t3.5-8.5q0-5-3.5-8.5T225 139v-1zm50 0q-5 0-8.5 4t-3.5 9q0 5 3.5 8.5t8.5 3.5q5 0 9-3.5t4-8.5q0-5-4-8.5t-9-3.5v-1zm-143-32q8 7 18 7t18-7l41-41q4-4 4-9t-4-8.5q-4-3.5-9-3.5t-9 3l-28 29V13q0-5-4-8.5T150 1q-5 0-8.5 3.5T138 13v63l-29-29q-4-3-9-3t-9 3.5Q87 51 87 56t4 9l41 41zm36 90q-8-7-18-7t-18 7l-41 41q-4 4-4 9t4 8.5q4 3.5 9 3.5t9-3l29-29v62q0 6 3.5 9.5t8.5 3.5q5 0 9-3.5t3-9.5v-62l29 29q4 3 9 3t9-3.5q4-3.5 4-8.5t-4-9l-41-41z"/></svg>