<svg viewBox="0 0 300 302.0011" xmlns="http://www.w3.org/2000/svg"><path d="M238 101h-75q-17 0-31.5 8.5t-23 23Q100 147 100 164v74q0 17 8.5 31.5t23 23Q146 301 162 301h76q16 0 30.5-8.5t23-23Q300 255 300 238v-75q0-16-8.5-30.5t-23-23Q254 101 238 101zm37 137q0 16-11 27t-27 11h-74q-16 0-27-11t-11-27v-75q0-15 11-26t26-11h76q15 0 26 11t11 26v75zM75 188q0 6-3.5 9.5T63 201q-17 0-31.5-8.5t-23-23Q0 155 0 139V63q0-16 8.5-30.5t23-23Q46 1 63 1h75q16 0 30.5 8.5t23 23Q200 47 200 64q0 5-3.5 8.5t-9 3.5q-5.5 0-9-3.5T175 64q0-16-11-27t-26-11H63q-16 0-27 11T25 64v74q0 16 11 27t27 11q5 0 8.5 3.5T75 189v-1z"/></svg>