<svg viewBox="0 0 300 302.0011" xmlns="http://www.w3.org/2000/svg"><path d="M252 1H98Q78 1 64 15T50 49q0 20 14 34l74 73v45q0 6 5 10l50 37q3 3 6.5 3t6.5-1q6-4 6-12v-82l74-73q14-14 14-34t-14-34Q272 1 252 1zm16 64l-77 77q-3 4-3 9v62l-25-18v-44q0-5-4-9L82 65q-7-7-7-16.5t6.5-16Q88 26 98 26h154q10 0 16.5 6.5t6.5 16q0 9.5-7 16.5zM163 263v25q0 8-7 12-3 1-6.5 1t-6.5-3l-50-37q-5-4-5-10v-45l-74-73Q0 119 0 99q0-11 4.5-20.5T17 62q4-3 9-2.5t8.5 4.5q3.5 4 3 9T33 81q-8 7-8 17t7 17l77 77q4 4 4 9v44l25 19q0-6 3.5-9.5t8.5-3.5q5 0 9 3.5t4 9.5v-1z"/></svg>