<svg viewBox="0 0 300 302.0011" xmlns="http://www.w3.org/2000/svg"><path d="M266 173l-7-4q1-9 1-18t-1-18l7-4q14-8 18-23t-3.5-28.5Q273 64 258 59.5T230 63l-7 4q-16-14-35-21v-8q0-15-11-26T150.5 1Q135 1 124 12t-11 26v6q-21 7-38 22l-5-3q-13-7-28-3T19.5 77.5Q12 91 16 106t18 23l4 2q-2 10-2 20t2 20l-4 2q-14 8-18 23t3.5 28.5Q27 238 42 242t28-3l5-3q17 14 38 21v7q0 15 11 26t26.5 11q15.5 0 26.5-11t11-26v-8q19-7 35-21l7 4q13 7 28 3t22.5-17.5Q288 211 284 196t-18-23zm-7 39q-3 5-8 6.5t-9-1.5l-15-9q-4-2-8.5-1t-7.5 4q-16 17-39 24-4 1-6.5 4.5T163 247v16q0 6-4 9.5t-9 3.5q-5 0-8.5-3.5T138 263v-15q0-5-3-8t-7-4q-24-6-42-24-4-4-8-4t-7 2l-13 7q-4 3-9 1.5t-7.5-6Q39 208 40 203t6-8l12-7q4-2 5.5-6t.5-8q-3-11-3-23t3-23q1-4-.5-8t-5.5-6l-12-7q-5-3-6-8t1.5-9.5q2.5-4.5 7.5-6t9 1.5l13 7q3 2 7.5 1.5T86 90q17-18 42-24 4-1 7-4.5t3-7.5V38q0-5 3.5-8.5T150 26q5 0 9 3.5t4 8.5v17q0 4 2.5 7.5T172 67q23 6 40 24 3 3 7 3.5t8-1.5l15-8q4-3 9-1.5t8 6q3 4.5 1.5 9.5t-6.5 8l-15 8q-4 3-5.5 6.5t-.5 7.5q2 11 2 22t-2 21q-1 5 .5 8.5t5.5 5.5l15 9q5 3 6.5 8t-1.5 9zM165 85q-5-9-15-9t-15 9l-53 89q-5 9 0 18t16 9h104q11 0 16-9t0-18l-53-89zm-15 103q-5 0-8.5-3.5T138 176q0-5 3.5-9t8.5-4q5 0 9 4t4 9q0 5-4 8.5t-9 3.5zm13-50q0 6-4 9.5t-9 3.5q-5 0-8.5-3.5T138 138v-25q0-5 3.5-8.5t8.5-3.5q5 0 8.5 3.5t3.5 8.5v25h1z"/></svg>