<svg viewBox="0 0 300 302.0011" xmlns="http://www.w3.org/2000/svg"><path d="M125 120q0 8-5.5 13.5t-13.5 5q-8-.5-13-5.5t-5-13q0-8 5-13.5t13-5.5q8 0 13.5 5.5T125 120zm69-19q-8 0-13.5 5.5T175 120q0 8 5.5 13.5t13.5 5q8-.5 13.5-5.5t5.5-13q0-8-5.5-13.5T194 101zm106 50q0-41-20-75.5T225.5 21Q191 1 150 1 93 3 55 34 20 63 7.5 107t0 88Q20 239 55 268q38 31 95 33 41 0 75.5-20t54.5-54.5q20-34.5 20-75.5zm-25 0q0 34-17 62.5T212.5 259Q184 276 150 276q-47-2-79-28-30-23-40-60t0-74q10-37 40-60 32-26 79-28 34 0 62.5 17T258 88.5q17 28.5 17 62.5zm-53 71q3-4 3-9t-4-9q-31-26-71-28-5 0-9 3.5t-3.5 9q.5 5.5 4 9t8.5 3.5q31 2 54 22 4 3 9 3t9-4zM63 201q0 10 7 17.5t17.5 7.5q10.5 0 17.5-7.5t7-17.5q-3-24-19-42-5-7-12.5 1t-13 21.5Q62 195 62 201h1z"/></svg>