<svg viewBox="0 0 300 302.0011" xmlns="http://www.w3.org/2000/svg"><path d="M257 126l-52-73q-8-13-21.5-20T154 26h-4q-16 0-27 11t-10 27v62H50q-21 0-35.5 14.5T0 176v25q0 10 7.5 17.5T25 226v6q0 18 13 31t31 13q18 0 31-13t13-31v-6h75v6q0 18 12.5 31t30.5 13q18 0 31-13t13-31v-6q10 0 17.5-7.5T300 201v-25q0-19-12.5-33T257 126zM138 63q0-5 3.5-8.5T150 51h4q9 0 17.5 4T185 67l41 59h-88V63zM88 232q0 8-5.5 13.5T69 251q-8 0-13.5-5.5T50 232v-6h38v6zm162 0q0 8-5.5 13.5T231 251q-8 0-13.5-5.5T212 232v-6h38v6zm25-31H25v-25q0-10 7.5-17.5T50 151h200q10 0 17.5 7.5T275 176v25z"/></svg>