<svg viewBox="0 0 300 302.0011" xmlns="http://www.w3.org/2000/svg"><path d="M200 176q0 21-14.5 35.5T150 226h-37q-6 0-9.5-3.5t-3.5-9q0-5.5 3.5-9t9.5-3.5h37q10 0 17.5-7.5T175 176q0-10-7.5-17.5T150 151h-25q-5 0-9-3.5t-4-9q0-5.5 4-9t9-3.5h25q5 0 9-3.5t4-9q0-5.5-4-9t-9-3.5h-37q-6 0-9.5-3.5t-3.5-9q0-5.5 3.5-9T113 76h37q16 0 26.5 11t10.5 27q1 12-7 22 9 7 14.5 17.5T200 176zM300 63v175q0 17-8.5 31.5t-23 23Q254 301 238 301H63q-17 0-31.5-8.5t-23-23Q0 255 0 238V63q0-16 8.5-30.5t23-23Q46 1 63 1h175q16 0 30.5 8.5t23 23Q300 47 300 64v-1zm-25 0q0-15-11-26t-27-11H63q-16 0-27 11T25 64v174q0 16 11 27t27 11h175q15 0 26-11t11-27V63z"/></svg>