<svg viewBox="0 0 300 302.0011" xmlns="http://www.w3.org/2000/svg"><path d="M13 301q5 0 8-4l83-82 16 16q8 9 20 14.5t25 5.5q8 0 16-3 13-4 21.5-15t9.5-24q2-19-3-38l-3-13q-1-7 4-12l20-19q1-2 2.5-2t2.5 1q9 10 23.5 12t25.5-6q14-11 15.5-28T289 74l-61-61Q218 3 204 1.5T178 8q-14 10-15.5 27.5T174 65v1q2 1 2 2.5t-2 2.5l-20 20q-5 5-11 4l-11-3q-19-5-38-3-14 2-25 10.5t-16 22q-5 13.5-2 28T65 174l22 23-83 83q-3 2-3.5 6t.5 7.5q1 3.5 4.5 5.5t7.5 2zm64-171q2-7 7.5-11t11.5-5l9-1q11 1 21 3l10 3q10 2 19.5-.5T172 109l20-20q9-8 9-20t-9-21l-1-1q-4-4-3.5-9.5t5-8.5q4.5-3 9.5-2.5t8 4.5l61 61q5 4 4 10t-5 9q-4 3-9 2t-8-4q-9-9-20.5-9t-20.5 9l-20 20q-7 7-9.5 16t-.5 19l3 13q4 15 2 30 0 6-4 11t-10 7q-10 2-19.5-1T138 213l-55-57q-6-5-7.5-12t1.5-14z"/></svg>