<svg viewBox="0 0 300 302.0011" xmlns="http://www.w3.org/2000/svg"><path d="M62 270q-4 0-7-3-26-22-40.5-52T0 151q0-41 20-75.5T74.5 21Q109 1 150 1t75.5 20Q260 41 280 75.5t20 75.5q0 33-14 63-2 4-7 6t-9.5 0q-4.5-2-6.5-7t1-10q11-25 11-52 0-34-17-62.5T212.5 43Q184 26 150 26T87.5 43Q59 60 42 88.5T25 151q0 28 12 53.5T70 247q4 4 4.5 9t-3 9.5Q68 270 63 270h-1zm21-159q22-18 44-23 6-1 8.5-5t1.5-9.5q-1-5.5-5-8t-9-1.5q-29 6-56 27-4 4-4.5 9t3 9q3.5 4 8.5 4t9-2zm152-2q3-4 2.5-9t-4.5-9q-26-21-56-27-5-1-9 1.5t-5 8q-1 5.5 1.5 9.5t8.5 5q23 5 44 23 3 2 8.5 2t9.5-4zm-48 48q4 0 7 3t3 7.5q0 4.5-3 7.5l-37 37 13 12 45-45q3-3 7.5-3t7.5 3q3 3 3 7.5t-3 7.5l-45 45 12 12 23-23q3-3 7-3t7 3q3 3 3.5 7t-2.5 7l-43 43q-15 16-38 16-14 0-26-7t-20-19.5q-8-12.5-8-28.5v-45q0-5 3.5-9t9-4q5.5 0 9 4t3.5 9v14l55-55q3-3 7-3zm-74 6q12 0 21 7l28-27q11-11 27-10-7-9-17-14.5t-22-5.5q-21 0-35.5 15T100 163v3q7-3 13-3z"/></svg>