<svg viewBox="0 0 300 302.0011" xmlns="http://www.w3.org/2000/svg"><path d="M238 121V63h12q5 0 9-3.5t4-8.5q0-5-4-9t-9-4h-14q-4-16-17.5-26.5T187 1h-74Q92 1 77.5 15.5T63 51v70q-12 7-18.5 17T38 157q0 19 10 38.5T78 229q22 16 51 21-2 6-7.5 9t-10.5 4h-5q-8 0-13.5 5.5T87 282q0 8 5.5 13.5T106 301h88q8 0 13.5-5.5T213 282q0-8-5.5-13t-13.5-5l-5-1q-5-1-10.5-4t-7.5-9q29-5 51-21 20-14 30.5-33.5T263 157q0-9-7-19t-18-17zM113 26h75q10 0 17.5 7.5T213 51v63H88V51q0-10 7-17.5t18-7.5zm37 200q-24 0-44-9-16-8-28-21 24 5 72 5t72-5q-12 13-28 21-20 9-44 9zm0-50q-87 0-88-19h1q0-3 6-9t16-9h130q10 3 16 9t7 9q0 19-88 19z"/></svg>