<svg viewBox="0 0 300 302.0011" xmlns="http://www.w3.org/2000/svg"><path d="M252 301q-6 0-10-3t-4-8q-3-19-11-37t-18-27l-49 58q-4 4-10 4t-10-4l-50-59q-10 10-17.5 28T62 290q0 5-4 8.5t-9.5 2.5q-5.5-1-8.5-5t-2-9q2-21 11-42 10-24 25-38 8-6 18-6t17 7l41 49 41-48q7-7 17-7.5t18 5.5q15 14 25 38 9 21 11 42 1 5-2 9.5t-8 4.5zM50 47q0-10 5.5-17T70 20l59-16q21-6 42 0l59 16q9 3 14.5 10t5.5 15.5q0 8.5-4 15.5t-11 10l-10 5v25q0 20-10 37.5T187.5 166Q170 176 150 176t-37.5-10Q95 156 85 138.5T75 101V76l-10-5q-7-3-11-10t-4-14zm150 49q-23 5-50 5t-50-5v5q0 21 14.5 35.5T150 151q21 0 35.5-14.5T200 101v-5zm-75-44q0 11 10 20 7 6 15 10 8-3 15-9 10-9 10-21V34q0-4-4-6l-21-7-21 7q-4 2-4 6v18z"/></svg>