<svg viewBox="0 0 300.0019 302.0011" xmlns="http://www.w3.org/2000/svg"><path d="M264 22q-4-6-10.5-8t-13.5.5q-7 2.5-11 8T225 35q-1 27-4 42-3 19-13.5 30.5T177 124q4-8 4-17V69q0-4-4-5.5t-6 2.5l-9 12q-6-2-12-2t-12 2l-9-12q-2-4-6-2.5t-4 5.5v38q0 9 4 17-20-5-30.5-16.5T79 77q-3-15-4-42 0-7-4-12.5t-11-8Q53 12 46.5 14T36 22Q18 44 8 86q-9 35-8 65 0 15 6 52 1 7 8 9.5t13-2.5q3-3 8-6t9.5-3q4.5 0 12 12.5T67 242q2 7 10 8.5t12-4.5q3-3 7-5t6-2q9 0 19 10 5 20 11 39 2 6 7 9.5t11 3.5q6 0 11-3.5t7-9.5q6-19 11-39 10-10 19-11l6 3q4 2 7 5 4 6 12 4.5t10-8.5q3-16 10.5-28.5t12-12.5q4.5 0 9.5 3t8 6q6 5 13 2.5t8-9.5q6-37 6-52 1-30-8-65-10-42-28-64zM102 213q-9 1-16 5-7-17-16-28-12-14-26-14-8 0-16 4-3-22-3-29 0-25 7-56t18-50q1 24 5 41 6 23 19 38 17 18 45 24-7 16-7 35 0 14 3 33-6-2-13-3zm36-30q0-18 7-32h10q7 14 7 32 1 30-12 77-12-47-12-77zm137-32q0 7-3 29-8-4-16-4-14 0-26 14-9 10-16 28-7-4-15-4t-14 2q2-19 2-33 0-19-6-35 28-6 45-24 13-15 19-38 4-17 5-41 11 19 18 50t7 56z"/></svg>