<svg viewBox="0 0 300 302.0011" xmlns="http://www.w3.org/2000/svg"><path d="M238 1q-17 0-31.5 8.5t-23 23Q175 47 175 63H63q-16 0-27 11.5T25 101v12q0 6 3.5 9.5t9 3.5q5.5 0 9-3.5T50 113v-12q0-5 3.5-9t9.5-4h12v25q0 6 3.5 9.5t9 3.5q5.5 0 9-3.5t3.5-9.5V88h75q0 17 8.5 31.5t23 23q14.5 8.5 31 8.5t31-8.5q14.5-8.5 23-23T300 88V63q0-16-8.5-30.5t-23-23Q254 1 238 1zm37 87q0 16-11 27t-26.5 11q-15.5 0-26.5-11t-11-27V63q0-15 11-26t26.5-11Q253 26 264 37t11 26v25zm-12 88q-6 0-9.5 3.5T250 188v13q0 5-3.5 8.5T238 213h-13v-25q0-5-3.5-8.5t-9-3.5q-5.5 0-9 3.5T200 188v25h-75q0-16-8.5-30.5t-23-23Q79 151 62.5 151t-31 8.5q-14.5 8.5-23 23T0 213v25q0 17 8.5 31.5t23 23q14.5 8.5 31 8.5t31-8.5q14.5-8.5 23-23T125 238h113q15 0 26-11t11-26v-13q0-5-3.5-8.5T263 176zm-163 62q0 16-11 27t-26.5 11Q47 276 36 265t-11-27v-25q0-15 11-26t26.5-11Q78 176 89 187t11 26v25z"/></svg>