<svg viewBox="0 0 300 302.0011" xmlns="http://www.w3.org/2000/svg"><path d="M213 138q0-16-8.5-30.5t-23-23Q167 76 150 76t-31.5 8.5Q104 93 96 107.5t-8 31q0 16.5 8 31t22.5 23Q133 201 150 201t31.5-8.5q14.5-8.5 22.5-23t8-30.5l1-1zm-100 0q0-15 10.5-26t26.5-11q16 0 26.5 11t11 26.5Q188 154 177 165t-27 11q-16 0-26.5-11T113 139v-1zm124 146q2 5-.5 9.5T229 300q-2 1-5 1t-6-2q-3-2-5-6-7-19-24.5-30.5T150 251q-21 0-38.5 11.5T87 293q-2 5-7 7t-9.5 0q-4.5-2-7-6.5T63 284q10-26 34-42t53-16q29 0 53 16t34 42zm28-70q-3 4-8 5.5t-9-1.5l-16-11q-7-4-8.5-11t2.5-14q15-25 11-54.5t-25.5-51Q190 55 160 52q-19-3-36.5 3T92 73.5Q78 86 70 103t-8 35q0 24 12 44 4 7 2.5 14T68 207l-16 11q-3 2-6 2-7 0-10.5-5T33 205q1-5 6-8l11-7q-13-24-13-51t13-51l-11-8q-5-3-6-8t2-9q3-4 8-5.5t9 1.5l12 8q6-7 11-12 27-24 62-28V13q0-5 4-8.5t9-3.5q5 0 8.5 3.5T162 13l1 14q22 2 41 12.5T236 67l11-8q5-3 10-1.5t8 5.5q3 4 2 9t-6 8l-11 7q9 18 12 37 4 35-12 66l11 7q5 3 6 8t-2 9z"/></svg>