<svg viewBox="0 0 300 302.0011" xmlns="http://www.w3.org/2000/svg"><path d="M47 168q-4 5-9 5t-8-3q-15-12-22.5-28.5T0 107q0-22 11-40.5T40.5 37Q59 26 81 26h63q22 0 40.5 11T214 66.5Q225 85 225 107t-11 41q-11 19-29.5 30T144 188q-5 1-9-3t-4-9q0-5 4-9t9-4q23 0 39.5-16t16.5-39.5q0-23.5-16.5-40T144 51H81q-23 0-39.5 16.5T25 107q0 13 5.5 24.5T45 151q4 3 4.5 8t-2.5 9zm223-36q-4-3-9-2.5t-8 4.5q-3 4-2.5 9t4.5 8q9 8 14.5 19.5T275 195q0 23-16.5 39.5T219 251h-63q-23 0-39.5-16.5t-16.5-40q0-23.5 16.5-40T156 138q5 0 9-3.5t4-8.5q0-5-4-9t-9-4q-22 0-40.5 11T86 154q-11 19-11 41t11 40.5Q97 254 115.5 265t40.5 11h63q22 0 40.5-11t29.5-29.5q11-18.5 11-40.5 0-18-7.5-34.5T270 132z"/></svg>