<svg viewBox="0 0 300 302.0011" xmlns="http://www.w3.org/2000/svg"><path d="M300 151q0 32-2 59-3 39-11 62-9 29-24 29-7 0-12-4-8-6-14-25-7-25-10-70-1-5 2.5-9t9-4.5q5.5-.5 9 3t4.5 8.5q3 45 11 68 5-15 8-42 4-34 4-75t-4-75q-3-27-9-42-5 15-8 42-4 33-4 75 0 5-3.5 9t-8.5 4h-30q-10-1-18.5-5.5T176 145l-14-22-16 39q-1 4-4 6t-6.5 2q-3.5 0-5.5-1-5-2-7-6.5t0-9.5l21-52h-24l-26 63q-1 4 0 8.5t5 6.5l58 36q5 4 5 11v62q0 6-3.5 9.5T150 301q-5 0-9-3.5t-4-9.5v-55l-51-33q-12-7-16-20t1-26l22-53H78q-8 0-11 7l-18 36q-3 5-7.5 6.5t-9.5-1q-5-2.5-6.5-7t.5-9.5l18-36q5-10 14-15.5T78 76h64q10 0 18.5 5T174 94l23 38q4 6 11 6h17q1-52 7-87 10-50 31-50 15 0 24 29 8 23 11 62 2 27 2 59zM73 211q-4-2-9 0t-6.5 6.5q-1.5 4.5-5 6.5t-6.5 2H13q-6 0-9.5 3.5t-3.5 9q0 5.5 3.5 9T13 251h33q11 0 20.5-6.5T80 227q2-4 0-9t-7-7zm90-148q12 1 21.5-8.5T194 32q0-13-9.5-22t-22-9q-12.5 0-22 9T131 32q0 13 9.5 22.5T162 64l1-1z"/></svg>