<svg viewBox="0 0 300 302.0011" xmlns="http://www.w3.org/2000/svg"><path d="M63 301q-17 0-31.5-8.5t-23-23Q0 255 0 238V63q0-16 8.5-30.5t23-23Q46 1 63 1h175q16 0 30.5 8.5t23 23Q300 47 300 64v87q0 5-3.5 8.5t-9 3.5q-5.5 0-9-3.5T275 151V63q0-15-11-26t-27-11H63q-16 0-27 11T25 64v174q0 16 11 27t27 11q5 0 8.5 3.5t3.5 9q0 5.5-3.5 9T63 301zm0-250q-6 0-9.5 3.5t-3.5 9q0 5.5 3.5 9t9 3.5q5.5 0 9-3.5t3.5-9q0-5.5-3.5-9T63 51zm50 0q-6 0-9.5 3.5t-3.5 9q0 5.5 3.5 9t9 3.5q5.5 0 9-3.5t3.5-9q0-5.5-3.5-9T113 51zm130 250q6 0 12-2 16-3 28-15t15-28q6-23-6-43.5T257 186h-3q-9-2-10-4-9-23-30-34.5t-44-8.5q-21 3-36.5 17.5T113 191q-4 16-1 31-14 6-20.5 20T89 271q3 10 10.5 18t18.5 10q4 2 9 2h116zm-22-110q7 15 28 19h2q12 4 19 15t4 26q-2 8-8.5 15t-15.5 9q-4 1-8 1H128l-4-1q-4-1-7-4t-4-7q-2-6 1-11.5t8-7.5q8-4 12.5-11.5t2.5-17q-2-9.5 0-19.5 3-13 13-22t23-11l7-1q13 0 24.5 7.5T221 191z"/></svg>