<svg viewBox="0 0 300 302.0011" xmlns="http://www.w3.org/2000/svg"><path d="M63 288q-17 0-31.5-8t-23-22.5Q0 243 0 226t8.5-31.5Q17 180 31.5 172t31-8.5q16.5-.5 31 8t23 23Q125 209 125 226t-8.5 31.5Q108 272 93.5 280T63 288zm0-100q-16 0-27 11t-11 27q0 16 11 27t26.5 10.5q15.5-.5 26.5-11t11-26.5q0-16-11-27t-26-11zm175 100q-17 0-31.5-8t-23-22.5Q175 243 175 226t8.5-31.5q8.5-14.5 23-22.5t31-8.5q16.5-.5 31 8t23 23Q300 209 300 226t-8.5 31.5q-8.5 14.5-23 22.5t-30.5 8zm0-100q-16 0-27 11t-11 27q0 16 11 27t26.5 10.5q15.5-.5 26.5-11t11-26.5q0-16-11-27t-27-11h1zm-75 38v-50q-1-6-5-9l-28-25q-5-4-5-9t4-9l24-20q4-3 9-3t9 4l32 30q4 3 9 3h38q5 0 8.5-3.5t4-8.5q.5-5-3.5-9t-9-4h-33l-29-26q-10-11-25-11.5T137 85l-25 20q-12 11-12 28t13 28l25 21v44q0 5 3.5 8.5t8.5 3.5q5 0 9-3.5t4-8.5zm43-213q-13 0-22 9.5T175 45q0 13 9 22t22 9q13 0 22.5-9t9.5-22q0-13-9.5-22.5T206 13z"/></svg>