<svg viewBox="0 0 300 302.0011" xmlns="http://www.w3.org/2000/svg"><path d="M250 138h-12V63q0-20-15-34.5T187 14H50q-21-1-35.5 14T0 64v137q0 12 7 22t19 13q-1 5-1 9 0 18 13 31t31 12.5q18-.5 31-13t13-30.5l-1-6h76v6q0 18 12.5 30.5T231 288q18 0 31-12.5t13-30.5q0-4-1-9 12-3 19-13t7-22v-13q0-20-14.5-34.5T250 138zm-225 0V88h25v50H25zm50-50h25v50H75V88zm50 0h38v125h-38V88zm63 0h25v50h-25V88zM50 38h138q10 0 17 7.5t7 18.5H25q0-11 7.5-18T50 39v-1zM25 163h75v50H38q-6 0-9.5-3.5T25 201v-38zm63 82q0 8-5.5 13T69 263q-8 0-13.5-5T50 245q0-3 1-7h35q1 4 2 7zm143 18q-8 0-13.5-5t-5.5-13q1-3 2-7h35q1 4 1 7 0 8-5.5 13t-13.5 5zm44-62q0 5-3.5 8.5T263 213h-75v-50h62q10 0 17.5 7.5T275 189v12z"/></svg>