<svg viewBox="0 0 300 302.0011" xmlns="http://www.w3.org/2000/svg"><path d="M296 280l-47-48 15-156h11q5 0 9-3.5t4-9q0-5.5-4-9t-9-3.5h-51q-5-22-22-36T163 1h-25q-23 0-40 14T76 51h-8L21 5q-3-4-8.5-4t-9 3.5Q0 8 0 13.5T4 22l275 275q3 4 8.5 4t9-3.5q3.5-3.5 3.5-9t-4-8.5zm-70-71L93 76h146l-13 133zM138 26h25q12 0 21.5 7T198 51h-96q4-11 13.5-18t22.5-7zm85 248q3 4 2 9.5t-6 7.5q-15 10-33 10h-72q-24 0-42-16t-20-41L41 127q-1-5 2.5-9t8.5-4.5q5-.5 9 3t5 8.5l11 117q1 15 12 24.5t25 9.5h72q11 0 20-6 4-3 9-1.5t8 5.5z"/></svg>