<svg viewBox="0 0 300 302.0011" xmlns="http://www.w3.org/2000/svg"><path d="M150 1q-41 0-75.5 20T20 75.5Q0 110 0 151q2 57 33 95 29 35 73 47.5t88 0q44-12.5 73-47.5 31-38 33-95 0-41-20-75.5T225.5 21Q191 1 150 1zm0 275q-34 0-62.5-17T42 213.5Q25 185 25 151q2-47 28-79 23-30 60-40t74 0q37 10 60 40 26 32 28 79 0 34-17 62.5T212.5 259Q184 276 150 276zM88 120q0-8 5-13.5t13-5.5q8 0 13.5 5.5T125 120q0 8-5.5 13.5t-13.5 5q-8-.5-13-5.5t-5-13zm87 0q0-8 5.5-13.5T194 101q8 0 13.5 5.5T213 120q0 8-5.5 13.5t-13.5 5q-8-.5-13.5-5.5t-5.5-13zm48 75q-11 20-30.5 31.5T150 238q-23 0-42.5-11.5T77 195q-2-3-2-6.5t2-7q2-3.5 5.5-4.5t7.5-1q29 11 60 12 31-1 60-12 4 0 7.5 1t5.5 4.5q2 3.5 2 7t-2 6.5z"/></svg>