<svg viewBox="0 0 300 302.0011" xmlns="http://www.w3.org/2000/svg"><path d="M150 1q-15 0-26 11t-11 26v225q0 16 11 27t26 11q15 0 26.5-11t11.5-27V38q0-15-11.5-26T150 1zm13 262q0 6-4 9.5t-9 3.5q-5 0-8.5-3.5T138 263V38q0-5 3.5-8.5T150 26q5 0 9 3.5t4 8.5v225zM263 76q-16 0-27 11t-11 26v150q0 16 11 27t26.5 11q15.5 0 26.5-11t11-27V113q0-15-11-26t-26-11zm12 187q0 6-3.5 9.5t-9 3.5q-5.5 0-9-3.5T250 263V113q0-5 3.5-8.5t9-3.5q5.5 0 9 3.5t3.5 8.5v150zM38 151q-16 0-27 11T0 188v75q0 16 11 27t26.5 11Q53 301 64 290t11-27v-75q0-15-11-26t-26-11zm12 112q0 6-3.5 9.5t-9 3.5q-5.5 0-9-3.5T25 263v-75q0-5 3.5-8.5t9-3.5q5.5 0 9 3.5T50 188v75z"/></svg>