<svg viewBox="0 0 300 302.0011" xmlns="http://www.w3.org/2000/svg"><path d="M300 238q0-40-15-76l-4-10q-8-18-23.5-28.5T223 113h-46q-19 0-34.5 10.5T119 152l-5 12q-8 26-11 40-6 25-2 41 5 21 24 29v2q0 10 7.5 17.5T150 301q10 0 17.5-7.5T175 276h50q0 10 7.5 17.5T250 301q10 0 17.5-7.5T275 276v-2q11-4 18-14t7-21v-1zm-157-76q4-11 13.5-17.5T177 139h46q11-1 20.5 5.5T258 162l5 14H137l1-5 5-9zm120 89H138q-12-1-13-14-1-8 2-25l2-11h21v12q0 6 3.5 9.5t9 3.5q5.5 0 9-3.5t3.5-9.5v-12h50v12q0 6 3.5 9.5t9 3.5q5.5 0 9-3.5t3.5-9.5v-12h21l2 11q3 17 2 25-1 13-12 14zM81 138H50V76h63v12q0 6 3.5 9.5t8.5 3.5q5 0 9-3.5t4-8.5V76h62v12q0 6 3.5 9.5t9 3.5q5.5 0 9-3.5T225 89V79q0-25-15-45T171 7Q125-5 79 7q-24 7-39 27T25 79v34q-10 1-17.5 8T0 138.5Q0 149 7.5 156t17.5 7v38q0 12 7 21.5T50 236v15q0 5 3.5 8.5t9 3.5q5.5 0 9-3.5T75 251v-25q0-5-3.5-8.5t-9-4-9-4Q50 206 50 201v-38h31q5 0 9-3.5t4-8.5q0-5-4-9t-9-4zm5-107q39-11 78 0 18 5 27 20H59q9-15 27-20z"/></svg>