<svg viewBox="0 0 300 302.0011" xmlns="http://www.w3.org/2000/svg"><path d="M276 276q-4 0-7-3-5-3-6-10 17-15 27-33.5t10-39.5q0-25-12-51-8-20-22-38h9q5 0 9-3.5t4-9q0-5.5-4-9t-9-3.5H25q-5 0-8.5 3.5t-3.5 9q0 5.5 3.5 9T25 101h9q-14 18-22 38-12 26-12 51 0 21 10 39.5T37 263q-1 7-6 10-3 3-7.5 3.5t-8 4.5q-3.5 4-3 9t4 8q3.5 3 8.5 3h1q9-1 17-6 11-6 16-17 40 23 91 23t91-23q5 11 16 17 8 5 17 6h1q5 0 8.5-3t4-8q.5-5-3-9t-8.5-5zM25 190q0-30 21-62 10-17 21-27h166q4 4 11 13 12 15 20 32 11 23 11 45.5t-17 42q-17 19.5-45.5 31T150 276q-34 0-62.5-11.5t-45.5-31Q25 214 25 190zM88 20q0-8 5-13.5T106 1q8 0 13.5 5.5T125 20q0 8-5.5 13T106 38q-8 0-13.5-5T87 20h1zm87 12q0-8 5.5-13.5T194 13q8 0 13.5 5.5T213 32q0 8-5.5 13.5T194 51q-8 0-13.5-5.5T175 32z"/></svg>