<svg viewBox="0 0 300 302.0011" xmlns="http://www.w3.org/2000/svg"><path d="M213 163h-75V88q0-15-11-26t-27-11H50q-21 0-35.5 14.5T0 101v150q0 21 14.5 35.5T50 301h150q21 0 35.5-14.5T250 251v-50q0-16-11-27t-26-11zM25 101q0-10 7.5-17.5T50 76h50q5 0 8.5 3.5T112 89v74H84q4-11 4-18.5t-5.5-13Q77 126 69 126t-13.5 5.5q-5.5 5.5-5.5 13t4 19.5H25v-63zm88 175H50q-10 0-17.5-7.5T25 251v-63h88v29q-12-4-19.5-4t-13 5.5Q75 224 75 232t5.5 13.5q5.5 5.5 13 5.5t19.5-4v29zm112-25q0 10-7.5 17.5T200 276h-62v-88h28q-3 12-3 19.5t5 13q5 5.5 13 5.5t13.5-5.5q5.5-5.5 5.5-13t-4-18.5h17q5-1 8.5 3t3.5 9v50zm75-200v44q0 8-5.5 13.5T281 114h-22q4 11 3.5 18.5t-5.5 13q-5 5.5-13 5.5t-13.5-5.5q-5.5-5.5-5.5-13t4-19.5h-23q-8 1-13-4.5T187 95V72q12 4 19.5 4t13-5.5Q225 65 225 57t-5.5-13.5q-5.5-5.5-13-5.5T187 42V20q1-8 6-13.5T206 1h44q21 0 35.5 14.5T300 51z"/></svg>