<svg viewBox="0 0 300 302.0011" xmlns="http://www.w3.org/2000/svg"><path d="M238 1h-25q-6 0-9.5 3.5t-3.5 9q0 5.5 3.5 9T212 26h26q15 0 26 11t11 27v96q-6 3-13.5 3t-15-4.5Q239 154 237 147q-2-4-5-6.5t-7-2.5q-4 0-7 2.5t-5 6.5q-2 7-9.5 11.5t-16 4.5q-8.5 0-16-4.5T162 147q-2-4-5-6.5t-7-2.5q-4 0-7 2.5t-5 6.5q-2 7-9.5 11.5t-16 4.5q-8.5 0-16-4.5T87 147q-2-4-5-6.5t-7-2.5q-4 0-7 2.5t-5 6.5q-2 7-9.5 11.5t-15 4.5q-7.5 0-13.5-3V63q0-15 11-26t27-11h25q5 0 8.5-3.5t3.5-9q0-5.5-3.5-9T88 1H63Q46 1 31.5 9.5t-23 23Q0 47 0 64v174q0 17 8.5 31.5t23 23Q46 301 63 301h175q16 0 30.5-8.5t23-23Q300 255 300 238V63q0-16-8.5-30.5t-23-23Q254 1 238 1zm0 275H63q-16 0-27-11t-11-27v-51q7 1 13 1 10 0 20-4t17-11q7 7 17 11.5t20.5 4Q123 188 133 184t17-11q7 7 17 11.5t20.5 4.5q10.5 0 20.5-4.5t17-11.5q7 7 17 11.5t20 4.5q6 0 13-2v51q0 16-11 27t-27 11h1zm-88-163q18 0 31-12.5T194 70q0-18-13-31l-16-18q-6-7-15-7t-15 7l-16 18q-13 13-13 31t13 31q13 13 31 13v-1z"/></svg>