<svg viewBox="0 0 300 302.0011" xmlns="http://www.w3.org/2000/svg"><path d="M135 124q3 5 2.5 10.5T134 145l-23 38q-3 4-8 5t-9.5-1.5Q89 184 88 179t1-10l20-31H83q-10 1-16.5-7.5T63 112l26-43q4-6 11.5-6t11 6.5Q115 76 111 83l-19 30h26q5 1 9.5 3.5t7.5 7.5zm165-86v32q0 11-7 19.5T275 100v113q0 21-14.5 35.5T225 263h-30q-8 18-23.5 28T137 301H63q-17 0-31.5-8.5t-23-23Q0 255 0 238V63q0-16 8.5-30.5t23-23Q46 1 62 1h76q16 0 30.5 8.5t23 23Q200 47 200 63v175h25q10 1 17.5-6.5T250 214V100q-11-2-18-10.5T225 70V38q0-5 3.5-8.5t9-3.5q5.5 0 9 3.5T250 38v13h25V38q0-5 3.5-8.5t9-3.5q5.5 0 9 3.5T300 38zM175 238V138h-12q-6 0-9.5-3.5T150 126q0-5 3.5-9t8.5-4h13V63q0-15-11-26t-26-11H63q-16 0-27 11T25 64v49h13q5 0 8.5 4t3.5 9q0 5-3.5 9t-9.5 4H25v99q0 16 11 27t26 11h76q15 0 26-11t11-27z"/></svg>