<svg viewBox="0 0 300 302.0011" xmlns="http://www.w3.org/2000/svg"><path d="M298 282l-62-112q-2-3-3-4l-49-36-16-26q-9-13-23-20.5T115 76h-12q-16 0-30 8t-22 21l-41 64q-3 5-2 10t5.5 7.5Q18 189 23 188t8-5l41-64 3-5v51q0 13 6 24t17 18l42 28 33 59q3 7 11 7 3 0 6.5-2t5-7q1.5-5-.5-9l-34-63-4-4-7-5v-88l14 23 3 3 48 36 62 110q3 6 10 6 4 0 7.5-2t5-7q1.5-5-1.5-9v-1zm-186-96q-6-3-9-8.5t-3-12.5v-64h15q5 0 10 1v93l-13-9zM75 32q0-13 9-22t22-9q13 0 22.5 9t9.5 22q0 13-9.5 22T106 63q-13 0-22-9t-9-22zm21 208l-9 50q0 5-3.5 8t-8.5 3h-2q-5-1-8-5t-2-9l8-51q1-5 5-8t9-2q5 1 8 5t3 9z"/></svg>