<svg viewBox="0 0 300 302.0011" xmlns="http://www.w3.org/2000/svg"><path d="M100 138H35l27-75q4-11 14-18t22-7h104q12 0 22 7t14 18l20 55q1 5 6 7t9.5 0q4.5-2 7-6.5t.5-9.5l-20-54q-7-19-23-30.5T202 13H98q-20 0-36 11.5T39 55L5 147q-5 14-5 29v12q0 16 6.5 29T25 238v25q0 16 11 27t26.5 11Q78 301 89 290t11-27v-25q0-5-3.5-8.5T88 226H63q-16 0-27-11t-11-27v-12q0-6 1-12h24v12q0 5 3.5 8.5t9 4q5.5.5 9-3.5t3.5-9v-13h25q5 0 8.5-3.5t4-8.5q.5-5-3.5-8.5t-9-3.5v-1zM50 250q6 1 12 1h13v12q0 6-3.5 9.5t-9 3.5q-5.5 0-9-3.5T50 263v-13zm163-124q-24 0-44 12t-32 32q-12 20-12 43.5t12 43.5q12 20 32 32t43.5 12q23.5 0 43.5-12t32-32q12-20 12-43.5T288 170q-12-20-32-32t-44-12h1zm-63 87q0-23 15-40.5t38-20.5l-27 48q-3 10 3 18t16 8h26l-27 47q-19-6-31.5-22.5T150 213zm72 62l25-43q3-4 3-10t-2.5-10.5Q245 207 240 204t-10-3h-26l27-47q19 6 31.5 22.5T275 213q0 24-15 41.5T222 275z"/></svg>