<svg viewBox="0 0 300 302.0011" xmlns="http://www.w3.org/2000/svg"><path d="M150 126q17 0 31.5-8.5t22.5-23q8-14.5 8.5-31t-8-31q-8.5-14.5-23-23T150 1q-17 0-31.5 8.5T96 32.5q-8 14.5-8 31t8 31q8 14.5 22.5 23T150 126zm0-100q16 0 26.5 11t11 26.5Q188 79 177 90t-27 11q-16 0-26.5-11T113 63.5Q113 48 123.5 37T150 26zm138 212h-38q0-27-13.5-50T200 151.5q-23-13.5-50-13T100 152q-23 13-36.5 36T50 239H13q-6-1-9.5 3T0 251q0 5 3.5 9t9.5 4h12v24q0 6 3.5 9.5t9 3.5q5.5 0 9-3.5T50 288v-25h200v25q0 6 3.5 9.5t9 3.5q5.5 0 9-3.5t3.5-9.5v-25h13q5 0 8.5-3.5t3.5-8.5q0-5-3.5-9t-9.5-4h1zm-213 0q0-23 13.5-42.5T124 168l15 23-14 47H75zm86-47l15-23q22 8 35.5 27.5T225 239h-50l-14-48z"/></svg>