<svg viewBox="0 0 300 302.0011" xmlns="http://www.w3.org/2000/svg"><path d="M238 51h-14q-5-22-22-36T163 1h-25q-23 0-40 14T76 51H63q-17 0-31.5 8.5t-23 23Q0 97 0 113v125q0 17 8.5 31.5t23 23Q46 301 63 301h175q16 0 30.5-8.5t23-23Q300 255 300 238V113q0-16-8.5-30.5t-23-23Q254 51 238 51zM138 26h25q12 0 21.5 7T198 51h-96q4-11 13.5-18t22.5-7zm137 212q0 16-11 27t-26 11H63q-16 0-27-11t-11-27V113q0-15 11-26t27-11h175q15 0 26 11t11 26v125zm-61-88q11 10 11 25.5T214 202l-30 32q-4 4-9 4t-8.5-3q-3.5-3-4-8.5t3.5-9.5l27-29H88q-6 0-9.5-3.5T75 176q0-5 3.5-9t9.5-4h105l-27-29q-4-3-3.5-8.5t4-9q3.5-3.5 9-3t8.5 3.5l30 33z"/></svg>