<svg viewBox="0 0 300 302.0011" xmlns="http://www.w3.org/2000/svg"><path d="M0 179q1 4 4.5 6.5T13 188q7 0 19.5-6.5T53 167q23 21 47 21t42-12q16-11 24.5-28.5T175 114q0-16-11-27t-26.5-11Q122 76 111 87t-11 26q0 11 5.5 23.5T120 160q-9 3-20 3-14 0-31-15 15-21 23-47.5t8-48.5q0-22-14.5-36.5T50 1Q29 1 14.5 15.5T0 51q0 21 10 48.5T37 148q-13 13-27 16-5 1-8 5t-2 9v1zm138-78q5 0 8.5 3.5t3.5 9.5q0 6-2.5 14.5T139 144q-6-7-10-15.5t-4-14.5q0-6 3.5-9.5t9.5-3.5zM25 51q0-10 7.5-17.5T50 26q10 0 17.5 7.5T75 51q0 18-6 39t-16 38q-13-18-20.5-39T25 51zm153-2q4-4 9-4t9 3q10 10 17 22 3 4 1.5 9t-5 7q-3.5 2-6.5 2-8 0-11-6-6-8-13-15-4-4-4-9t3-9zm97 134v-20q0-20-14.5-35T225 113q-21 0-35.5 15T175 163v20q-11 6-18 17.5t-7 25.5v25q0 21 14.5 35.5T200 301h50q21 0 35.5-14.5T300 251v-25q0-14-7-25.5T275 183zm-75-20q0-10 7.5-17.5T225 138q10 0 17.5 7.5T250 163v13h-50v-13zm75 88q0 10-7.5 17.5T250 276h-50q-10 0-17.5-7.5T175 251v-25q0-10 7.5-17.5T200 201h50q10 0 17.5 7.5T275 226v25zm-150-25q0 5-3.5 8.5T113 238H13q-6 0-9.5-3.5T0 226q0-5 3.5-9t9.5-4h100q5 0 8.5 4t3.5 9zm119 12q0 8-5.5 13.5T225 257q-8 0-13.5-5.5t-5.5-13q0-7.5 5.5-13T225 220q8 0 13.5 5.5T244 238z"/></svg>