<svg viewBox="0 0 300 302.0011" xmlns="http://www.w3.org/2000/svg"><path d="M150 1q-41 0-75.5 20T20 75.5Q0 110 0 151t20 75.5Q40 261 74.5 281t75.5 20q41 0 75.5-20t54.5-54.5q20-34.5 20-75.5t-20-75.5Q260 41 225.5 21T150 1zm93 110l10-31q20 29 22 64l-27-19q-3-2-4.5-6t-.5-8zm-60-81h-1l-25 19q-3 2-7 2t-7-2l-25-19q32-9 65 0zM47 80l10 31q1 4-.5 8t-4.5 6l-27 19q2-35 22-64zm3 146h34q4 0 7.5 2.5T96 235l11 33q-35-13-57-42zm143 42l11-33q1-4 4.5-6.5t7.5-2.5h34q-22 29-57 42zm72-67h-50q-12 0-21.5 7T180 227l-16 48q-14 2-28 0l-16-48q-4-12-13.5-19T84 201H35q-5-13-8-27l40-28q9-7 13-18.5t1-23.5L67 58q10-10 23-17l38 28q10 7 22 7t22-7l38-28q13 7 23 17l-14 46q-3 12 1 23.5t13 18.5l40 28q-3 14-8 27zm-73-85l-24-17q-8-6-18-6t-18 6l-24 17q-9 6-12 16t0 19l9 28q4 10 12 16t18 6h30q10 0 18-6t12-16l9-28q3-9 0-19t-12-16zm-12 28l-9 28q-2 4-6 4h-30q-4 0-6-4l-9-29q-1-4 2-7l24-17q4-3 8 0l24 18q3 2 2 7z"/></svg>