<svg viewBox="0 0 301.0022 302.0011" xmlns="http://www.w3.org/2000/svg"><path d="M35 195q-6 2-8.5 7.5t-1 11q1.5 5.5-1 10t-7.5 6q-5 1.5-9.5-1T1 221q-4-15 3-29t21-20q-3-15 .5-30.5t13-27.5Q48 102 62 95.5t29-7q15-.5 29 5.5 5 2 7 7t0 9.5q-2 4.5-7 6.5t-10 0q-11-5-24-3-19 3-30 19t-7 34q2 9-2 17t-12 11zm265-55q-3-6-8-10t-12-5q-17-2-31-11t-23-24q-7-13-8.5-28t3.5-29q2-7 .5-13.5t-6-11Q211 4 204.5 2T191 2q-20 6-37 19-19 15-29 37-2 5-.5 10t6.5 7q5 2 9.5 0t7.5-6q7-17 20.5-27.5T197 25q-6 19-4.5 39.5T204 103q11 19 30.5 31t41.5 15q-10 10-22 17-5 3-6 8t1.5 9.5q2.5 4.5 7.5 5.5t9-1q17-9 29-23 5-5 6-11.5t-1-13.5zm-52 116q-3 16-15 27.5T205 299q-6 2-12 2H77q-5 0-9-2-13-3-21.5-13t-9-23.5q-.5-13.5 6-24.5T62 222q-3-15 1-31 5-21 22.5-36t40-16.5Q148 137 167 149t27 33q1 2 10 4h3q23 6 35 26.5t6 43.5zm-47-46q-10 0-17.5-5.5T171 191q-6-14-19-21.5t-29-5.5q-19 3-29.5 19T87 217q2 9-2.5 16.5T72 245q-5 2-8 7.5T63 264q2 9 11 11l4 1h114q4 0 8-1 9-2 15.5-9t8.5-16q3-13-3.5-24.5T201 210z"/></svg>