<svg viewBox="0 0 300 302.0011" xmlns="http://www.w3.org/2000/svg"><path d="M287 86l-27-27 11-12q6-5 4-12t-9-9q-7-2-12 4l-12 11-27-27Q201 1 182.5 1t-32 13Q137 27 137 46t14 32l27 27-74 74-27-27q-13-13-31.5-13t-32 13Q0 165 0 183.5T13 216l28 27-12 12q-6 5-4 12t9 9q7 2 12-4l12-12 27 28q14 13 32.5 13t32-13q13.5-13 13.5-32t-14-32l-27-27 74-74 27 27q13 13 32 13t32-13q13-13 13-31.5T287 86zM138 256q0 8-6 14t-14.5 6q-8.5 0-14.5-6l-72-72q-6-6-6-14.5t6-14q6-5.5 14-5.5t14 5l73 73q6 6 6 14zm131-123q-6 5-14 5t-14-5l-73-73q-5-6-5-14t5.5-14q5.5-6 14-6t14.5 6l72 72q6 6 6 14.5t-6 14.5z"/></svg>