<svg viewBox="0 0 300.0019 302.0011" xmlns="http://www.w3.org/2000/svg"><path d="M150.002 1q-41 0-75.5 20t-54.5 54.5q-20 34.5-20 75.5-1 43 23 80 21 33 58 52.5t77 17.5q43-2 78-27 6-4 5.5-11.5t-7-10.5q-6.5-3-12.5 1-29 21-65 23-34 1-64.5-14.5t-48.5-44.5q-19-30-19-66 2-47 28-80 24-29 60.5-39.5t73 0q36.5 10.5 60.5 39.5 26 33 28 80v25q0 10-7.5 17.5t-17.5 7.5q-10 0-17.5-7.5t-7.5-17.5v-25q-1-28-17-48-14-17-36-23t-44 0q-22 6-36 23-16 20-17 48 0 23 13.5 42.5t35.5 27.5q22 8 44.5 2.5t37.5-23.5q9 15 24.5 21.5t32 2.5q16.5-4 27-17.5t10.5-30.5v-25q0-41-20-75.5t-54.5-54.5q-34.5-20-75.5-20zm0 200q-21 0-35.5-14.5t-14.5-35.5q0-21 14.5-35.5t35.5-14.5q21 0 35.5 14.5t14.5 35.5q0 21-14.5 35.5t-35.5 14.5z"/></svg>