<svg viewBox="0 0 300 302.0011" xmlns="http://www.w3.org/2000/svg"><path d="M138 120v43q0 21-15 35.5T87 213q-5 1-8.5-3t-3.5-9q0-5 3.5-9t9.5-4q10 0 17.5-7t7.5-18H94q-8 1-13.5-4.5T75 145v-19q0-10 7.5-17.5T100 101h19q8 0 13.5 5.5T138 120zm68-19h-18q-11 0-18 7.5t-7 17.5v19q0 8 5 13t13 6h19q0 10-7.5 17.5T175 189q-5-1-9 3t-3.5 9q.5 5 4 9t8.5 4q21-1 35.5-15.5T225 163v-43q0-8-5.5-13.5T206 101zm94-38v175q0 17-8.5 31.5t-23 23Q254 301 238 301H63q-17 0-31.5-8.5t-23-23Q0 255 0 238V63q0-16 8.5-30.5t23-23Q46 1 63 1h175q16 0 30.5 8.5t23 23Q300 47 300 64v-1zm-25 0q0-15-11-26t-27-11H63q-16 0-27 11T25 64v174q0 16 11 27t27 11h175q15 0 26-11t11-27V63z"/></svg>