<svg viewBox="0 0 300 302.0011" xmlns="http://www.w3.org/2000/svg"><path d="M163 113h-25q-11 1-18.5 8t-7.5 17v25q1 11 8 18.5t18 7.5h25q10-1 17.5-8t7.5-18v-25q-1-10-8-17.5t-17-7.5zm0 50h-25v-25h25v25zm0-150h-25q-11 0-18.5 7.5T112 38v25q1 11 8 18t18 8h25q10 0 17.5-7.5T188 64V38q0-10-7.5-17.5T163 13zm0 50h-25V38h25v25zm0 150h-25q-11 0-18.5 7.5T112 239v24q1 11 8 18t18 7h25q10 0 17.5-7t7.5-17v-26q-1-10-8-17.5t-17-7.5zm0 50h-25v-25h25v25zm135-132q-3 6-11 6-3 0-6-2l-9-5q-14 16-35 20v13q1 6-3 9.5t-9 3.5q-5 0-9-3.5t-4-9.5v-25q1-5 4.5-8.5t8.5-3.5q16 0 27-11t11-26.5Q263 73 252 62t-27-11q-5 0-9-3.5t-4-9.5V13q1-5 4.5-8.5T225 1q5 0 9 3.5t4 9.5v13q20 4 34 20l9-5q5-3 10-1.5t7.5 6q2.5 4.5 1 9.5t-5.5 7l-10 6q4 9 4 19.5t-4 19.5l10 6q4 2 5.5 7t-1.5 10zM93 233q7 8 7 18t-7 18l-23 22q-3 4-8.5 4t-9-4q-3.5-4-3.5-9t4-9l10-10H44q-18 0-31-12.5T0 220v-38q0-18 13-31t31-13h31q5 0 9 4t4 9q0 5-4 8.5t-9 3.5H44q-8 0-13.5 5.5T25 182v38q0 8 5.5 13t13.5 5h19l-10-9q-4-4-4-9t3.5-9q3.5-4 9-4t8.5 4l23 22z"/></svg>