<svg viewBox="0 0 300 302.0011" xmlns="http://www.w3.org/2000/svg"><path d="M250 151V88q0-16-8.5-30.5t-23-23Q204 26 188 26h-75q-17 0-31.5 8.5t-23 23Q50 72 50 88v63q-21 0-35.5 14.5T0 201v25q0 21 14.5 35.5T50 276h200q21 0 35.5-14.5T300 226v-25q0-21-14.5-35.5T250 151zM75 88q0-15 11-26t27-11h75q15 0 26 11t11 26v113H75V88zm200 138q0 10-7.5 17.5T250 251H50q-10 0-17.5-7.5T25 226v-25q0-10 7.5-17.5T50 176v37q0 6 3.5 9.5T63 226h175q5 0 8.5-3.5t3.5-9.5v-37q10 0 17.5 7.5T275 201v25zm-159-84l16-16-16-16q-4-4-4-9t4-8.5q4-3.5 9-3.5t9 3l16 16 16-16q4-3 9-3t8.5 3.5Q187 96 187 101t-3 9l-16 16 16 16q3 4 3 9t-3.5 8.5Q180 163 175 163t-9-3l-16-16-16 16q-4 3-9 3t-9-3.5q-4-3.5-4-8.5t4-9z"/></svg>