<svg viewBox="0 0 300 302.0011" xmlns="http://www.w3.org/2000/svg"><path d="M238 76H126l141-51q5-1 7-6t.5-10Q273 4 268 2t-10 0L43 79q-19 6-31 22.5T0 138v100q0 17 8.5 31.5t23 23Q46 301 63 301h175q16 0 30.5-8.5t23-23Q300 255 300 238V138q0-16-8.5-30.5t-23-23Q254 76 238 76zm37 162q0 16-11 27t-27 11H63q-16 0-27-11t-11-26V138q0-15 11-26t26-11h176q15 0 26 11t11 27v99zm-162-50q0 6-4 9.5t-9 3.5H63q-6 0-9.5-3.5t-3.5-9q0-5.5 3.5-9T62 176h38q5 0 9 3.5t3 8.5h1zm0 50q0 6-4 9.5t-9 3.5H63q-6 0-9.5-3.5t-3.5-9q0-5.5 3.5-9T62 226h38q5 0 8.5 3.5t3.5 8.5h1zm0-100q0 6-4 9.5t-9 3.5H63q-6 0-9.5-3.5t-3.5-9q0-5.5 3.5-9T62 126h38q5 0 8.5 3.5t3.5 9.5l1-1zm81-6q-24 0-40 16.5t-16 40q0 23.5 16 40t39.5 16.5q23.5 0 40-16.5t16.5-40q0-23.5-16.5-40T194 132zm0 88q-13 0-22.5-9.5t-9.5-22q0-12.5 9.5-22T194 157q13 0 22 9.5t9 22q0 12.5-9 22t-22 9.5z"/></svg>