<svg viewBox="0 0 300 302.0011" xmlns="http://www.w3.org/2000/svg"><path d="M150 1q-41 0-75.5 20T20 75.5Q0 110 0 151t20 75.5Q40 261 74.5 281t75.5 20q41 0 75.5-20t54.5-54.5q20-34.5 20-75.5t-20-75.5Q260 41 225.5 21T150 1zm0 25q38 0 69 20.5t45 54.5h-17q-6-17-20.5-27T194 64q-13 0-24.5 5.5T150 85q-8-10-19.5-16T106 63q-18 0-32.5 10.5T53 101H36q14-34 45-54.5T150 26zm0 175q-10 0-23.5-6T113 184q0-5 4-9 20-4 33-20 13 16 33 20 4 4 4 9t-14 11q-14 6-23 6zM106 88q13 0 22.5 9.5T138 120q0 13-9.5 22t-22.5 9q-13 0-22-9t-9-22q0-13 9-22.5t22-9.5zm88 63q-13 0-22-9t-9-22q0-13 9-22t22-9.5q13-.5 22 9t9 22.5q0 13-9 22t-22 9zm-44 125q-34 0-62.5-17T42 213.5Q25 185 25 151q0-13 3-25h23q2 17 12.5 29.5T89 173q-1 6-2 11l1 5-14 10q-4 3-5 8t2.5 10q3.5 5 9.5 5 4 0 8-3l13-9q6 4 14 8l-5 16q-2 5 .5 10t7.5 6q2 1 5 1t6-2.5q3-2.5 4-5.5l6-18q6 1 10 1t10-1l6 18q1 3 4 5.5t6 2.5q3 0 5-1 5-1 7.5-6t.5-10l-6-17q8-3 14-8l14 10q4 3 8 3 6 0 9.5-5t2.5-10q-1-5-5-8l-14-10v-5q0-5-1-11 15-5 25.5-17.5T249 126h23q3 12 3 25 0 34-17 62.5T212.5 259Q184 276 150 276zM94 120q0-5 3.5-9t8.5-4q5 0 9 4t4 9q0 5-4 8.5t-9 3.5q-5 0-8.5-3.5T94 120zm112 0q0 5-3.5 8.5T194 132q-5 0-9-3.5t-4-8.5q0-5 4-9t9-4q5 0 8.5 4t3.5 9z"/></svg>