<svg viewBox="0 0 300 302.0011" xmlns="http://www.w3.org/2000/svg"><path d="M250 176h-87v-50h18q6 0 8.5-6t-1.5-11l-31-30q-3-3-7-3t-7 3l-30 30q-5 5-2.5 11t8.5 6h19v50H50q-21 0-35.5 14.5T0 226v25q0 21 14.5 35.5T50 301h200q21 0 35.5-14.5T300 251v-25q0-21-14.5-35.5T250 176zm25 75q0 10-7.5 17.5T250 276H50q-10 0-17.5-7.5T25 251v-25q0-10 7.5-17.5T50 201h200q10 0 17.5 7.5T275 226v25zM250 1H50Q29 1 14.5 15.5T0 51v25q0 21 14.5 35.5T50 126h13q5 0 8-4l97-96h39l-24 24q-4 4-4 9t4 8.5q4 3.5 9 3.5t9-3l42-42h7q7 0 12.5 3t8.5 8l-55 55q-3 4-3 9v12q0 6 3.5 9.5t8.5 3.5h25q21 0 35.5-14.5T300 76V51q0-21-14.5-35.5T250 1zM25 51q0-10 7.5-17.5T50 26h7L25 58v-7zm32 50h-7q-6 0-12-3t-9-8l64-64h39l-75 75zm218-25q0 10-7.5 17.5T250 101h-7l32-32v7z"/></svg>