<svg viewBox="0 0 300 302.0011" xmlns="http://www.w3.org/2000/svg"><path d="M17 91Q4 66 1 44-5 12 15 3q7-3 14-1.5T42 8l62 66q5 5 3 12t-9 9q-7 2-12-3L25 27q1 32 19 63 13 22 42 55 3 4 3 9t-3.5 8.5q-3.5 3.5-8.5 4t-9-3.5q-31-32-51-72zm208 112q-5-6-14-4-22 2-43-4-7-2-12 3-8 13 3 19 8 5 27 7h24l68 73q4 4 9 4t9-3.5q4-3.5 4-8.5t-3-9l-72-77zm-37-27q12 0 23.5-4.5T232 158l64-65q4-4 4-9t-3.5-8.5q-3.5-3.5-9-3.5t-8.5 3l-65 65q-8 8-20 10t-23-3l88-87q5-5 3-12t-9-9q-7-2-12 3l-87 88q-5-11-3-23t10-20l65-65q3-3 3-8.5t-3.5-9Q222 1 217 1t-9 4l-65 64q-15 16-17.5 38t9.5 41L4 280q-4 3-4 8.5t3.5 9q3.5 3.5 9 3.5t8.5-4l132-131q16 10 34 10h1z"/></svg>