<svg viewBox="0 0 300 302.0011" xmlns="http://www.w3.org/2000/svg"><path d="M300 113q0-14-9.5-24.5T267 76q-14-2-26 6.5T226 105q-3 14 4 26.5t20 17.5v52q0 20-10 37.5T212.5 266Q195 276 175 276t-37.5-10Q120 256 110 238.5T100 201v-1q21-3 38-15.5t27-31q10-18.5 10-40.5V63q0-16-8.5-30.5t-23-23Q129 1 113 1q-6 0-9.5 3.5t-3.5 9q0 5.5 3.5 9T113 26q15 0 26 11t11 27v49q0 17-8.5 31.5t-23 23q-14.5 8.5-31 8.5t-31-8.5q-14.5-8.5-23-23T25 113V63q0-15 11-26t26-11q6 0 9.5-3.5t3.5-9q0-5.5-3.5-9T62 1Q46 1 31.5 9.5t-23 23Q0 47 0 63v50q0 22 10 40.5t27 31Q54 197 75 200v1q0 27 13.5 50t36.5 36.5q23 13.5 50 13.5t50-13.5q23-13.5 36.5-36.5t13.5-50v-52q11-4 18-14t7-22zm-37 13q-6 0-9.5-3.5t-3.5-9q0-5.5 3.5-9t9-3.5q5.5 0 9 3.5t3.5 9q0 5.5-3.5 9T263 126z"/></svg>