<svg viewBox="0 0 300 302.0011" xmlns="http://www.w3.org/2000/svg"><path d="M288 216l-54 49q-19 17-43 26.5t-49 9.5H13q-6 0-9.5-3.5t-3.5-9q0-5.5 3.5-9T13 276h129q21 0 40.5-7.5T217 247l54-49q3-3 3.5-8t-2.5-9q-3-4-8.5-4.5T254 180l-53 48q-11 10-26 11h-63q-5-1-8.5-4.5T100 226q0-5 3.5-9t8.5-4h63q4 0 8-2.5t4.5-8.5q.5-6-3.5-9.5t-9-3.5h-61q-23 0-43.5 8.5T34 221l-12 14q-4 4-9 4t-9-3.5q-4-3.5-4-9t3-9.5l13-13q20-20 45-30t53-10h61q11 0 20.5 6t13.5 16l27-24q6-6 13.5-9t16.5-2q17 2 27 16 8 11 6.5 25T288 216zM50 28q-1-11 7.5-19.5T77 1q54 4 73 39 19-35 73-39 11-1 19.5 7.5T250 28q-3 41-24 62t-63 23v13q0 5-4 8.5t-9 3.5q-5 0-8.5-3.5T137 126v-13q-42-2-63-23T50 28zm113 60q31-2 45.5-16.5T225 26q-31 2-45.5 16.5T163 88zM75 26q2 31 16.5 45.5T137 88q-2-31-16.5-45.5T75 26z"/></svg>