<svg viewBox="0 0 300.0013 302.0011" xmlns="http://www.w3.org/2000/svg"><path d="M289 12q-6-6-14-9t-16-2q-50 5-95 16Q90 35 61 64q-22 23-30.5 52.5t-3 59.5Q33 206 53 230L4 280q-4 3-4 8.5t3.5 9q3.5 3.5 9 3.5t8.5-4l50-49q24 20 54 25.5t59.5-3Q214 262 237 240q29-30 47-103 11-45 16-95 1-8-2-16t-9-14zm-70 210q-17 17-40.5 24.5t-47 3Q108 245 89 230l120-120q3-4 3-9t-3.5-8.5Q205 89 200 89t-9 3L71 213q-15-20-19.5-43.5t3-47Q62 99 79 82q22-22 79-37 47-14 103-19 6-1 10.5 3.5T275 40q-5 57-18 104-16 56-38 78z"/></svg>