<svg viewBox="0 0 300 302.0011" xmlns="http://www.w3.org/2000/svg"><path d="M196 147l-28 29 28 29q4 3 4 8.5t-3.5 9q-3.5 3.5-9 3.5t-8.5-4l-29-28-29 28q-3 4-8.5 4t-9-3.5q-3.5-3.5-3.5-9t4-8.5l28-29-28-29q-4-3-4-8.5t3.5-9q3.5-3.5 9-3.5t8.5 4l29 28 29-28q3-4 8.5-4t9 3.5q3.5 3.5 3.5 9t-4 8.5zm92-84q0 6-4 9.5t-9 3.5h-11l-16 168q-2 25-20 41t-42 16h-72q-24 0-42-16t-20-41L36 76H25q-5 0-8.5-3.5t-3.5-9q0-5.5 3.5-9T25 51h51q5-22 22-36t40-14h25q22 0 39 14t22 36h51q5 0 9 3.5t4 8.5zM102 51h96q-4-11-13.5-18T162 26h-24q-13 0-22.5 7T102 51zm137 25H61l16 166q1 15 12 24.5t25 9.5h72q14 0 25-9.5t12-24.5l16-166z"/></svg>