<svg viewBox="0 0 300 302.0011" xmlns="http://www.w3.org/2000/svg"><path d="M200 151h-25q-5 0-8.5-3.5t-3.5-9q0-5.5 3.5-9t8.5-3.5h25q5 0 9 3.5t4 9q0 5.5-4 9t-9 3.5zm13 50q0-5-4-8.5t-9-3.5h-50q-5-1-8.5 3t-3.5 9q0 5 3.5 8.5t8.5 3.5h50q5 0 8.5-3.5t3.5-8.5h1zm50 37V88q-1-16-9-30.5t-22.5-23Q217 26 200 26h-2q-4-11-13.5-18T163 1h-25q-13 0-22.5 7T102 26h-2q-17 0-31.5 8.5T46 57.5Q38 72 38 89v149q0 17 8 31.5t22.5 23Q83 301 100 301h100q17 0 31.5-8.5t23-23Q263 255 262 238h1zM113 51q5 0 8.5-3.5t3.5-9 3.5-9Q132 26 138 26h25q5 0 8.5 3.5t3.5 9 3.5 9Q182 51 188 51h12q16 0 26.5 11T237 88v150q1 16-10 27t-27 11H100q-16 0-27-11t-11-27V88q0-15 11-26t27-11h13zm-13 137q-5 0-8.5 4t-3.5 9q0 5 3.5 8.5t8.5 3.5q5 0 8.5-3.5t4-8.5q.5-5-3.5-8.5t-9-3.5v-1zm23-43l23-23q4-3 4-8t-3.5-9q-3.5-4-8.5-4t-9 4l-21 19-10-9q-4-4-9-3.5t-8.5 4Q77 119 77 124t4 9l13 12q6 6 14.5 6t14.5-6z"/></svg>