<svg viewBox="0 0 300 302.0011" xmlns="http://www.w3.org/2000/svg"><path d="M225 164q-11-11-25-13t-27 5l-60-60V57q0-9-5-17.5T95 26L58 5q-9-5-19-3.5T22 10L9 23Q2 30 .5 40T4 58l22 38q4 8 12.5 12.5T56 113h39l60 61q-5 10-5 21 0 18 13 31l62 62q13 13 31 13 10 0 19.5-4.5T290 285q11-13 9.5-30.5T286 225l-61-61zM47 83L26 46q-2-3 0-6l13-13q3-2 6 0l37 21q6 3 6 9v31H56q-6 0-9-5zm224 186q-5 7-13.5 7t-14.5-6l-63-62q-5-5-5-13t5.5-13.5Q186 176 194 176t13 6l62 61q5 5 6 13t-4 13zm-141-54q4 3 4 8.5t-4 8.5l-56 56q-12 13-31 13-8 0-18-4.5T10 285q-11-13-10-30.5T14 225l71-71q3-3 8.5-3t9 3.5q3.5 3.5 3.5 8.5t-4 9l-71 71q-5 5-6 13t4 14q5 6 13.5 6t14.5-5l56-56q3-4 8.5-4t8.5 4zm-6-156q8-22 26.5-37T192 2q17-2 33 0 6 1 10.5 5.5t6.5 11q2 6.5 0 13.5t-8 13l-29 28q-4 4-5 10.5t3.5 11.5q4.5 5 11 5.5T226 96l33-32q5-4 11-6t12.5 0q6.5 2 10.5 7t6 12q2 15 0 32-6 30-29 51-4 4-9 4t-8.5-4q-3.5-4-3.5-9.5t4-8.5q17-16 21-38 2-10 0-20l-30 29q-6 6-14 9.5t-17 2.5q-18-1-29-15-10-12-9-28t13-27l29-28q-10-2-20 0-17 3-30.5 14T147 68q-2 5-6.5 7t-9.5 0q-5-2-7-6.5t0-9.5z"/></svg>