<svg viewBox="0 0 300 302.0011" xmlns="http://www.w3.org/2000/svg"><path d="M233 129q4 3 4.5 8.5T234 147q-6 8-15.5 12t-19.5 4q-19 0-34-16-3-4-2.5-9.5t4.5-8.5q4-3 9-3t9 4q6 8 14 8 9 0 17-8 3-4 8-4t9 3zM99 163q10 0 19.5-4t15.5-12q4-4 3.5-9.5T133 129q-4-3-9-3t-8 4q-8 8-17 8-8 0-14-8-4-4-9-4t-9 3q-4 3-4.5 8.5T65 147q15 16 34 16zm105 29q-7 5-16 11-20 11-38 10.5T112 203q-10-6-16-11-4-4-9-3.5t-8.5 4.5q-3.5 4-3.5 9t4 8q9 8 22 15 25 13 49 13t49-13q13-7 22-15 4-3 4-8t-3.5-9q-3.5-4-8.5-4.5t-9 3.5zm96-41q0 41-20.5 75.5t-55 54.5q-34.5 20-75 20t-75-20Q40 261 20 226.5T0 151q0-41 20-75.5T74.5 21q34.5-20 75-20t75 20q34.5 20 55 54.5T300 151zm-25 0q0-34-17-62.5T212.5 43Q184 26 150 26T87 43Q58 60 41.5 88.5T25 151q0 34 16.5 62.5T87 259q29 17 63 17t62.5-17q28.5-17 45.5-45.5t17-62.5zM75 113q6 1 9-4 6-8 14.5-13.5T115 88q5-1 7.5-5.5T124 73q-1-5-5.5-7.5T109 64q-11 3-23.5 11T65 93q-3 4-2.5 9.5t4 8.5q3.5 3 8.5 3v-1zm109-25q8 2 16.5 7.5T215 109q4 4 9 4t8.5-2.5q3.5-2.5 4.5-8t-3-9.5q-8-10-20-18t-24-11q-5-1-9.5 1.5T175 73q-1 5 1.5 9.5T184 88z"/></svg>