<svg viewBox="0 0 300 302.0011" xmlns="http://www.w3.org/2000/svg"><path d="M169 132q0 8-5.5 13.5T150 151q-8 0-13.5-5.5T131 132q0-8 5.5-13.5t13.5-5q8 .5 13.5 5.5t5.5 13zm44-19q-8 1-13.5 6t-5.5 13q0 8 5.5 13.5t13 5.5q7.5 0 13-5.5T231 132q0-8-5.5-13.5T213 113zm-125 0q-8 1-13.5 6T69 132q0 8 5.5 13.5t13 5.5q7.5 0 13-5.5T106 132q0-8-5.5-13.5T87 113h1zm212-62v150q0 21-14.5 35.5T250 251h-36l-48 40q-7 6-16 6t-17-7l-46-39H50q-21 0-35.5-14.5T0 201V51q0-21 14.5-35.5T50 1h200q21 0 35.5 14.5T300 51zm-25 0q0-10-7.5-17.5T250 26H50q-10 0-17.5 7.5T25 51v150q0 10 7.5 17.5T50 226h41q5 0 8 3l51 43 52-43q3-3 8-3h40q10 0 17.5-7.5T275 201V51z"/></svg>