<svg viewBox="0 0 300 302.0011" xmlns="http://www.w3.org/2000/svg"><path d="M262 136q0-9-4.5-17T246 107q-10-6-15.5-16T225 70V13q0-5-3.5-8.5t-9-3.5q-5.5 0-9 3.5T200 14v37q0 21-14.5 35.5T150 101q-21 0-35.5-14.5T100 51V13q0-5-3.5-8.5t-9-3.5q-5.5 0-9 3.5T75 14v56q0 11-5.5 21T54 107q-7 5-12 13.5T37 138v100q1 17 9 31.5t22.5 23Q83 301 100 301h100q17 0 31.5-8.5t23-23Q263 255 262 238V136zm-199 2q0-7 5-10 16-10 25-28 11 12 25.5 19t31.5 7q17 0 31.5-7t25.5-19q9 18 25 28 3 2 4 5L66 255q-4-8-4-16V138h1zm137 138H100q-8 0-15-3l153-110v75q0 16-11 27t-27 11z"/></svg>