<svg viewBox="0 0 300 302.0011" xmlns="http://www.w3.org/2000/svg"><path d="M13 188h150q5 0 8.5-3.5t3.5-8.5V70q0-24-16.5-40T119 13H56q-23 1-39.5 17T0 70v106q0 5 3.5 9t8.5 3h1zM25 70q0-13 9-22.5T56 39h63q13-1 22 8.5t9 22.5v93H25V70zm50 6v50q0 5-3.5 9t-9 3.5q-5.5-.5-9-4T50 126V76q0-5 3.5-9t9-3.5q5.5.5 9 4T75 76zm50 0v50q0 5-3.5 9t-9 3.5q-5.5-.5-9-4T100 126V76q0-5 3.5-9t9-3.5q5.5.5 9 4T125 76zm171 59l-12-33q-3-14-16-24.5t-28.5-13q-15.5-2.5-27 5T200 95v118H13q-6 0-9.5 4T0 226v19q0 19 14.5 32T48 288q16-1 27-13 9 10 22 12.5t25.5-2.5q12.5-5 20-16t7.5-24v-7h50v7q0 18 13 31t31 12.5q18-.5 30.5-13T287 245v-10q6-3 9.5-9t3.5-12v-51q0-14-4-27v-1zm-71 78v-50h50v50h-50zm6-125q10 0 18 6t12 16l9 28h-45V95q0-3 2-5t4-2zM46 263q-9 1-15-4.5T25 245v-7h38v5q0 8-5 13.5T46 263zm79-18q0 5-3 10t-8.5 7q-5.5 2-11 1t-9.5-4.5q-4-3.5-5.5-9T87 238h38v7zm119 18q-8 0-13.5-5t-5.5-13v-7h38v7q0 8-5.5 13t-13.5 5z"/></svg>