<svg viewBox="0 0 300 302.0011" xmlns="http://www.w3.org/2000/svg"><path d="M219 126q0-20-14.5-35T169 76h-37q-16 0-27 11t-11 27v100q0 5 4 8.5t9 3.5q5 0 8.5-3.5t3.5-8.5v-38h44l23 44q4 6 11 6 3 0 7-2t5.5-7q1.5-5-1.5-9l-19-36q14-6 22-18.5t8-27.5zm-50 25h-50v-37q0-5 4-9t9-4h37q11 0 18 7.5t7 18q0 10.5-7 17.5t-18 7zM150 1q-40 0-74.5 20.5t-55 55Q0 111 0 151.5t20.5 75Q41 261 75.5 281t75 20q40.5 0 75-20t54.5-54.5q20-34.5 20-75t-20-75q-20-34.5-54.5-55T150 1zm0 275q-33 0-62-16.5T42 214q-17-29-17-63t17-62.5Q59 60 88 43t62.5-17Q184 26 213 43t45.5 45.5Q275 117 275 151t-16.5 63Q242 243 213 259.5T150 276z"/></svg>