<svg viewBox="0 0 300 302.0011" xmlns="http://www.w3.org/2000/svg"><path d="M281 131q7-14 7-30 0-24-15.5-41.5T235 39l4-3q9-9 11-27 0-3-2.5-5.5T242 1q-17 2-27 11-3 3-6 8-6-10-13-16-4-3-9.5-2.5t-8.5 4q-3 3.5-3 9t4 8.5q8 7 12 16h-7q-19 0-34 11-13-9-27-11l3-3q10-9 11-27 1-3-2-5.5T129 1q-17 2-27 11-3 3-5 8-7-10-14-16-4-3-9-2.5t-8.5 4q-3.5 3.5-3 9T67 23q7 7 12 16h-7q-16 0-30 8T20.5 69.5Q13 84 13 100.5t7 30.5q-9 4-14.5 13T0 163v75q0 17 8.5 31.5t23 23Q46 301 63 301h175q16 0 30.5-8.5t23-23Q300 255 300 238v-75q0-10-5.5-19T281 131zm-53-67q14 0 24.5 11t10.5 25.5q0 14.5-9 25.5h-84q5-12 5-25 0-17-8-32 8-5 17-5h44zM72 64h44q14 0 24 11t10 25.5q0 14.5-9 25.5H46q-8-11-8-25.5T48 75q10-11 24-11zm203 174q0 16-11 27t-26 11H63q-13 0-22.5-7T27 251h211q5 0 8.5-3.5t3.5-9q0-5.5-3.5-9T238 226H25v-25h213q5 0 8.5-3.5t3.5-9q0-5.5-3.5-9T238 176H25v-13q0-5 3.5-8.5T38 151h225q5 0 8.5 3.5t3.5 8.5v75z"/></svg>