<svg viewBox="0 0 300 302.0011" xmlns="http://www.w3.org/2000/svg"><path d="M278 237q-2-1-2.5-3.5T275 221V107q0-14-1-16-2-26-10.5-46.5t-22-32Q228 1 212 1H63Q46 1 31 15L21 5q-3-4-8.5-4t-9 3.5Q0 8 0 13.5T4 22l275 275q3 4 8.5 4t9-3.5q3.5-3.5 3.5-9.5v-20q0-10-6-18.5T278 237zm-28-4l-23-22q13-5 23-18v40zm0-126q0 23-5.5 41.5t-14.5 29q-9 10.5-17 10.5-7 0-13-5l-4-4q-9-10-15-29t-6-42.5q0-23.5 5.5-42t14.5-29Q204 26 212.5 26T230 36.5q9 10.5 14.5 29T250 107zM63 26h109q-10 15-16 36t-6 45q0 15 2 28L49 32q7-6 13-6h1zm168 262q0 6-3.5 9.5T219 301h-56q-17 0-31.5-8.5t-23-23Q100 255 100 238v-25H63q-18 0-32-14T8.5 161Q0 137 0 107q0-13 2-27 1-5 5-8t9-2q5 1 8 5t3 9q-2 11-2 23 0 23 5.5 41.5T45 178q9 11 18 10h75q5 0 8.5 4t3.5 9q0 5-3.5 8.5T137 213h-12v25q0 16 11 27t26 11h57q5 0 8.5 3.5t3.5 9.5v-1zM213 88q5 0 8.5 5.5T225 107q0 8-3.5 13.5t-9 5.5q-5.5 0-9-5.5T200 107q0-8 3.5-13.5T213 88z"/></svg>