<svg viewBox="0 0 300 302.0011" xmlns="http://www.w3.org/2000/svg"><path d="M225 51V13q0-5-3.5-8.5t-9-3.5q-5.5 0-9 3.5T200 13v27q-6-1-13-1h-74q-7-1-13 1V13q0-5-3.5-8.5t-9-3.5q-5.5 0-9 3.5T75 13v38q-12 9-18.5 22T50 101v100q0 15 6.5 28T75 251v37q0 6 3.5 9.5t9 3.5q5.5 0 9-3.5t3.5-9.5v-26q6 1 13 1h75q6 0 12-1v26q0 6 3.5 9.5t9 3.5q5.5 0 9-3.5t3.5-9.5v-37q12-9 18.5-22t6.5-28V101q0-15-6.5-28T225 51zm0 150q0 16-11 27t-26 11h-75q-16 0-27-11t-11-27V101q0-16 11-26.5T112 64h76q15 0 26 10.5t11 26.5v100zm-25-61q0 15-16 33-11 13-27 25-3 3-7 3t-7-3q-16-12-27-25-16-18-16-33 0-11 7.5-19t18-8q10.5 0 17.5 7.5t7 17.5q0-10 7-17.5t17.5-7.5q10.5 0 18 8t7.5 19z"/></svg>