<svg viewBox="0 0 300 302.0011" xmlns="http://www.w3.org/2000/svg"><path d="M25 140q0 4-4 7.5t-8 3.5h-2q-5-1-8-4.5T0 137q3-37 24.5-68.5T79 19q33-18 71-18 28 0 53.5 10T250 39V13q0-5 3.5-8.5t9-3.5q5.5 0 9 3.5T275 13v50q0 11-7.5 18T250 88h-50q-5 0-9-3.5t-4-8.5q0-5 4-9t9-4h39q-17-17-40.5-27T150 26q-32 0-59.5 15t-45 41Q28 108 25 140zm138 30V76q0-5-4-8.5t-9-4q-5-.5-8.5 3.5t-3.5 9v94q0 5 3.5 8.5t8.5 3.5q5 0 9-3.5t3-8.5h1zm-32 50q0 8 5.5 13t13.5 5q8 0 13.5-5t5.5-13q0-8-5.5-13.5T150 201q-8 0-13.5 5.5T131 220zm158-69q-6 0-9.5 3t-4.5 8q-3 32-20.5 58t-45 41Q182 276 150 276q-25 0-48.5-10T61 238h39q5 0 8.5-3.5t3.5-8.5q0-5-3.5-8.5T100 213H50q-10 0-17.5 7.5T25 238v50q0 6 3.5 9.5t9 3.5q5.5 0 9-3.5T50 288v-25q21 18 46.5 28t53.5 10q38 0 71-18t54.5-49.5Q297 202 300 165q0-6-3-9.5t-8-4.5z"/></svg>