<svg viewBox="0 0 300 302.0011" xmlns="http://www.w3.org/2000/svg"><path d="M150 301q-5 0-9-3.5t-4-8.5v-51q-10-2-20-6l-25 44q-3 5-8 6t-9.5-1.5q-4.5-2.5-6-7.5t1.5-9l26-45q-8-6-14-14l-44 26q-5 3-10 1.5t-7.5-6q-2.5-4.5-1-9.5t5.5-8l44-25q-4-10-6-20H13q-6-1-9.5-4.5T0 151q0-5 3.5-9t8.5-4h51q2-10 6-20L25 93q-4-3-5-8t1.5-9q2.5-4 7-5.5t9.5.5l44 26q6-8 14-15L70 38q-3-6 .5-12.5T81 19q7 0 11 7l26 44q9-4 20-6V13q-1-5 3-8.5t9-3.5q5 0 9 3.5t4 8.5v51q-1 10-7 17t-15 8q-23 4-38 21.5T88 151q0 20 12 35 9 12 24 20 11 6 17 7 9 1 15 8t6 17v50q1 6-3 9.5t-9 3.5zm75-75q-28-1-48-17-17-14-23-36t0-44q6-22 23-36 20-16 48-16t48 16q17 14 23 36t0 44q-6 22-23 36-20 16-48 17zm0-125q-23 1-36 15.5T176 151q0 20 13 34.5t36 14.5q23 0 36-14.5t13-34.5q0-20-13-34.5T225 101z"/></svg>