<svg viewBox="0 0 300 302.0011" xmlns="http://www.w3.org/2000/svg"><path d="M288 201q5 0 8.5-3.5t3.5-9.5v-17q0-28-17.5-50.5T237 91V78q1-21-9.5-38.5t-28-28Q182 1 161 1q-28 0-49.5 18T85 66L52 276H13q-6 0-9.5 3.5t-3.5 9q0 5.5 3.5 9T13 301h39q9 0 16-6t9-15l33-211q3-18 17.5-30.5T162 26q20 0 35 15t15 37v10h-12q-16 0-26.5 11T163 126v137q0 16 10.5 27t26.5 11h56q18 0 31-13t13-31q0-18-13-31t-31-13q-18 0-30.5 13T213 257q0 10 4 19h-17q-5 0-8.5-3.5T188 263V126q0-5 3.5-9t8.5-4h17q16 0 29 8t21 21.5q8 13.5 8 28.5v17q0 6 3.5 9.5t8.5 3.5h1zm-50 56q0-8 5-13.5t13-5q8 .5 13.5 5.5t5.5 13q0 8-5.5 13.5T256 276q-8 0-13-5.5t-5-13.5z"/></svg>