<svg viewBox="0 0 300 302.0011" xmlns="http://www.w3.org/2000/svg"><path d="M148 51q-25 0-47.5 13.5t-36 35.5Q51 122 50 147q-1 23 8 43.5t25.5 35Q100 240 100 264q0 15 11 26t26 11h26q15 0 26-11t11-27v-4q0-19 16-33t25-33.5q9-19.5 9-40.5t-7.5-39.5q-7.5-18.5-22-33t-33-21.5Q169 51 148 51zm27 212q0 6-3.5 9.5T162 276h-24q-6 0-9.5-4t-3.5-9.5q0-5.5-1-11.5h52l-1 12zm25-56q-10 8-16 19h-21v-52q11-4 18-13.5t7-22.5q0-5-4-8.5t-9-3.5q-5 0-9 3.5t-3.5 9-3.5 9q-4 3.5-9 3.5t-8.5-3.5q-3.5-3.5-3.5-9t-4-9q-4-3.5-9-3.5t-9 3.5q-4 3.5-4 8.5 0 13 7 22.5t19 13.5v52h-22q-6-11-15-18-13-12-20-27.5T75 148q1-19 11-35.5T112.5 86Q129 76 149 76h1q15 0 28.5 5.5t24 16Q213 108 219 122t6 29.5q0 15.5-6.5 30.5T200 207zm10-175l15-25q3-5 8-6t9.5 1.5Q247 5 248 10t-1 10l-16 25q-4 6-11 6-3 0-7-2.5t-5-7.5q-1-5 2-9zm83 52l-24 11q-3 1-6 1t-6-2q-3-2-5-6t0-9q2-5 6-7l24-11q5-2 10 0t7 6.5q2 4.5 0 9.5t-6 7zM52 20q-2-5-1-10t5.5-7.5Q61 0 66 1t8 6l15 25q3 4 1.5 9t-5 7.5Q82 51 79 51q-8 0-11-6L52 20zm-6 69q-3 7-11 7-3 0-5-1L7 84q-4-2-6-7t.5-9.5q2.5-4.5 7-6t9.5.5l23 11q4 2 6 7t-1 9z"/></svg>