<svg viewBox="0 0 300 302.0011" xmlns="http://www.w3.org/2000/svg"><path d="M150 1q-41 0-75.5 20T20 75.5Q0 110 0 151t20 75.5Q40 261 74.5 281t75.5 20q41 0 75.5-20t54.5-54.5q20-34.5 20-75.5t-20-75.5Q260 41 225.5 21T150 1zm0 275q-34 0-62.5-17T42 213.5Q25 185 25 151t17-62.5Q59 60 87.5 43T150 26q34 0 62.5 17T258 88.5q17 28.5 17 62.5t-17 62.5Q241 242 212.5 259T150 276zm-12-150q0 5-4 9t-9 3.5q-5-.5-8.5-4T113 126q0-5 3.5-9t8.5-4q5 0 9 4t4 9zm-50 0q0 5-4 9t-9 3.5q-5-.5-8.5-4T63 126q0-5 3.5-9t8.5-3.5q5 .5 8.5 4T87 126h1zm25-38q0 6-4 9.5t-9 3.5q-5 0-8.5-3.5t-3.5-9q0-5.5 3.5-9T100 76q5 0 8.5 3.5T112 88h1z"/></svg>