<svg viewBox="0 0 300 302.0011" xmlns="http://www.w3.org/2000/svg"><path d="M238 76V51q0-21-15-35.5T187 1h-74Q92 1 77.5 15.5T62 51v25q-16 0-30.5 8.5t-23 23Q0 122 0 138v63q0 17 8.5 31.5t23 22.5q14.5 8 30.5 9 0 15 11 26t27 11h100q16 0 26.5-11t11.5-27q16 0 30.5-8t23-22.5Q300 218 300 201v-63q0-16-8.5-30.5t-23-23Q254 76 238 76zM88 51q0-10 7-17.5t17-7.5h76q10 0 17 7.5t7 17.5v25H88V51zm125 212q0 6-4 9.5t-9 3.5H100q-5 0-8.5-3.5T88 263v-50q0-5 3.5-8.5t8.5-3.5h100q5 0 9 3.5t4 9.5v49zm62-62q0 16-11 27t-27 10v-25q0-15-10.5-26T200 176H100q-16 0-26.5 11T62 213v25q-15 0-26-10.5T25 201v-63q0-15 11-26t26-11h176q15 0 26 11t11 27v62zm-50-75h-25q-5 0-9 3.5t-3.5 9q.5 5.5 4 9t8.5 3.5h25q5 0 9-3.5t3.5-9q-.5-5.5-4-9T225 126z"/></svg>