<svg viewBox="0 0 300 302.0011" xmlns="http://www.w3.org/2000/svg"><path d="M200 1h-62q-15 0-28.5 5.5T85 23L59 49Q49 59 43 73t-6 29v136q1 17 9 31.5t22.5 23Q83 301 100 301h100q17 0 31.5-8.5t23-23Q263 255 262 238V63q1-16-7.5-30.5t-23-23Q217 1 200 1zm38 237q0 16-11 27t-27 11H100q-16 0-27-11t-11-27V102q1-21 15-35l26-26q15-15 35-15h62q16 0 26.5 11T237 63v175h1zM213 63v25q0 6-4 9.5t-9 3.5q-5 0-9-3.5t-4-9.5V63q1-5 4.5-8.5T200 51q5 0 9 3.5t4 9.5v-1zm-38 0v25q0 6-3.5 9.5t-9 3.5q-5.5 0-9-3.5T150 88V63q0-5 3.5-8.5t9-3.5q5.5 0 9 3.5T175 64v-1zm-37 0v25q0 6-4 9.5t-9 3.5q-5 0-9-3.5t-4-9.5V63q0-5 4-8.5t9-3.5q5 0 9 3.5t4 9.5v-1z"/></svg>