<svg viewBox="0 0 300 302.0011" xmlns="http://www.w3.org/2000/svg"><path d="M250 1H50Q29 1 14.5 15.5T0 51v150q0 21 14.5 35.5T50 251h36l56 47q3 3 8 3t8-3l56-47h36q21 0 35.5-14.5T300 201V51q0-21-14.5-35.5T250 1zm25 200q0 10-7.5 17.5T250 226h-36q-9 0-16 6l-48 40-48-40q-7-6-16-6H50q-10 0-17.5-7.5T25 201V51q0-10 7.5-17.5T50 26h200q10 0 17.5 7.5T275 51v150zM88 88h62q5 0 9-3.5t4-8.5q0-5-4-9t-9-4H88q-6 1-9.5 4.5T75 76q0 5 3.5 9t9.5 4v-1zm125 25H88q-6 1-9.5 4.5T75 126q0 5 3.5 9t9.5 4h125q5-1 8.5-4.5t3.5-8.5q0-5-3.5-9t-8.5-4zm0 50H88q-6 0-9.5 4t-3.5 9q0 5 3.5 8.5T88 188h125q5 0 8.5-3.5t3.5-8.5q0-5-3.5-9t-8.5-4z"/></svg>