<svg viewBox="0 0 300 302.0011" xmlns="http://www.w3.org/2000/svg"><path d="M244 126h-6v-13q-1-15-11.5-26T200 76H50q-16 0-26.5 11T12 114v124q1 17 9 31.5t22.5 23Q58 301 75 301h100q22 0 39.5-14t21.5-36q10 1 19-1.5t16.5-9q7.5-6.5 11.5-15t5-18.5v-37q0-18-13-31t-31-13zm-69 150H75q-16 0-27-11t-11-26V113q1-5 4.5-8.5T50 101h150q5 0 9 3.5t4 8.5v125q0 16-11 27t-27 11zm88-69q-1 10-8.5 15.5T237 226v-75q10-2 17.5 3.5T263 170v37zM113 38V13q0-5 3.5-8.5T125 1q5 0 9 3.5t4 8.5v25q0 6-4 9.5t-9 3.5q-5 0-8.5-3.5T113 39v-1zm50 0V13q0-5 3.5-8.5T175 1q5 0 9 3.5t4 8.5v25q0 6-4 9.5t-9 3.5q-5 0-9-3.5t-4-8.5l1-1zM63 38V13q0-5 3.5-8.5T75 1q5 0 8.5 3.5T87 13v25q1 6-3 9.5T75 51q-5 0-8.5-3.5T63 39v-1z"/></svg>