<svg viewBox="0 0 300 302.0011" xmlns="http://www.w3.org/2000/svg"><path d="M169 82q0 8-5.5 13.5T150 101q-8 0-13.5-5.5T131 82q0-8 5.5-13t13.5-5.5q8-.5 13.5 5T169 82zm131 41v115q0 17-8.5 31.5t-23 23Q254 301 238 301h-38q-5 0-8.5-3.5T188 288V163q0-5-4-8.5t-9-3.5h-50q-5 0-8.5 3.5T113 164v124q0 6-4 9.5t-9 3.5H63q-17 0-31.5-8.5t-23-23Q0 255 0 238V123q0-16 7.5-30T28 71l87-59q16-11 35-11t35 11l65 44V26q0-5 3.5-9t9-3.5q5.5.5 9 4T275 26v47q12 8 18.5 21.5T300 123zm-25 103v-25h-62v25h62zM88 201H25v25h63v-25zm0 75v-25H27q4 11 13.5 18t21.5 7h26zm2-125H25v25h63v-13q0-6 2-12zm185-25v-3q0-10-4.5-18T258 91l-87-59q-10-6-21-6t-21 6L42 91q-8 6-12.5 14T25 123v3h250zm-65 25q3 6 2 13v12h63v-25h-65zm63 100h-61v25h25q13 0 22.5-7t13.5-18z"/></svg>