<svg viewBox="0 0 300 302.0011" xmlns="http://www.w3.org/2000/svg"><path d="M232 28L154 2q-4-2-8 0L68 28q-19 6-31 22.5T25 87v65q0 37 24 71 18 26 49 49 20 14 41 25l4 2q4 2 7 2t7-2l3-1q22-9 42-22 31-21 49-48 24-34 24-76V87q0-20-12-36.5T232 28zm18 124q0 35-21 64-15 22-42 40-18 11-36 19-34-17-60-41-41-39-41-82V87q0-12 7-22t19-14l74-24 74 24q12 4 19 14t7 22v65zm-54-36l-28 29 28 28q4 4 4 9t-3.5 9q-3.5 4-9 4t-8.5-4l-29-29-29 29q-3 4-8.5 4t-9-4q-3.5-4-3.5-9t4-9l28-28-28-29q-4-4-4-9t3.5-8.5q3.5-3.5 9-3.5t8.5 3l29 29 29-29q3-3 8.5-3t9 3.5q3.5 3.5 3.5 8.5t-4 9z"/></svg>