<svg viewBox="0 0 300 302.0011" xmlns="http://www.w3.org/2000/svg"><path d="M275 151v25q0 34-17 62.5T212.5 284Q184 301 150 301h-25q-21 0-35.5-14.5T75 251V126H38q-6 0-9.5-3.5t-3.5-9q0-5.5 3.5-9T38 101h37V51q0-10-7.5-17.5T50 26H38q-6 0-9.5-3.5t-3.5-9q0-5.5 3.5-9T38 1h12q21 0 35.5 14.5T100 51v50h38q5 0 8.5 3.5t3.5 9q0 5.5-3.5 9T138 126h-38v125q0 10 7.5 17.5T125 276h25q27 0 50-13.5t36.5-36.5q13.5-23 13.5-50v-25q0-10-7.5-17.5T225 126h-12q-6 0-9.5-3.5t-3.5-9q0-5.5 3.5-9t9.5-3.5h12q21 0 35.5 14.5T275 151z"/></svg>