<svg viewBox="0 0 300 302.0011" xmlns="http://www.w3.org/2000/svg"><path d="M213 88q5 0 8.5 5.5T225 107q0 8-3.5 13.5t-9 5.5q-5.5 0-9-5.5T200 107q0-8 3.5-13.5T213 88zM94 88H81q-5 1-8.5 4.5T69 101q0 5 3.5 8.5T81 113h13q5 1 8.5-3t3.5-9q0-5-3.5-8.5T94 89v-1zm206 180q0 14-9.5 23.5T267 301H163q-17 0-31.5-8.5t-23-23Q100 255 100 238v-25H63q-18 0-32-14T8.5 161Q0 137 0 107.5t8.5-54Q17 29 31 15T63 1h150q17 0 31 14t22.5 38.5Q275 78 275 107v114q0 9 .5 12t2.5 4q10 4 16 12.5t6 18.5zM213 26q-9 0-18 10.5t-14.5 29Q175 84 175 107t5.5 41.5q5.5 18.5 14.5 29t17.5 10.5q8.5 0 17.5-10.5t14.5-29Q250 130 250 107t-5.5-41.5Q239 47 230 36.5T213 26zM63 188h109q-10-13-15.5-32.5T150 113h-12q-6 1-9.5-3t-3.5-9q0-5 3.5-8.5T138 89h13q4-38 21-63H63q-12 0-23 17.5T26 88h12q5 0 8.5 4t3.5 9q0 5-3.5 8.5T37 113H25q1 22 6.5 39t14 27q8.5 10 17.5 9zm212 80q0-6-6-8-13-5-17-18-2-7-2-22v-27q-16 20-37 20h-88v25q0 16 11 27t27 11h104q3 0 5.5-2.5t2.5-5.5z"/></svg>