<svg viewBox="0 0 300 302.0011" xmlns="http://www.w3.org/2000/svg"><path d="M288 13Q277 2 257 1t-45 9q-23 9-47 24.5T121 70l-52 52q-20 20-35.5 44T9 213q-10 25-9 45t12.5 31.5Q24 301 46 301q19 0 42-9t47-24.5q24-15.5 44-35.5l52-52q20-20 35.5-44T291 89q10-25 9-45t-12-31zm-20 67q-8 21-22.5 42.5T213 162l-52 52q-18 18-39.5 32.5T79 269q-17 6-30.5 7t-19-4.5q-5.5-5.5-4.5-19t7-30.5q9-23 25-46l34 34q4 3 9 3t8.5-3.5q3.5-3.5 3.5-8.5t-3-9l-37-36q8-9 15-16l17-17 37 37q4 3 9 3t8.5-3.5q3.5-3.5 3.5-8.5t-3-9l-37-37 17-17q7-7 16-15l36 37q4 3 9 3t8.5-3.5q3.5-3.5 3.5-8.5t-3-9l-34-34q23-16 46-25 19-7 33-7 12 0 17 5t4 18.5Q274 63 268 80z"/></svg>