<svg viewBox="0 0 300 302.0011" xmlns="http://www.w3.org/2000/svg"><path d="M292 119l-16-16q-7-7-16-11t-19-4h-29q0-13-5-25t-15.5-21.5Q181 32 167 28h-5V13q1-5-3-8.5T150 1q-5 0-9 3.5t-4 9.5v14h-4q-14 4-24.5 13.5T92.5 63Q87 75 87 88H59q-10 0-19 4t-16 11L8 119q-6 6-7.5 13.5t1.5 15Q5 155 13 160v97q0 18 12.5 31T56 301h9q15 0 25-10t10-25v-3q0-11 5-21t13-17q18-15 42-11 17 4 28.5 18.5T200 266q0 15 10 25t25 10h9q18 0 31-13t13-31v-97q7-5 10-12.5t1.5-15Q298 125 292 119zm-250 2q7-8 17-7h41q5-1 9-4.5t4-8.5V88q0-15 10.5-26T150 51q16 0 26.5 11T187 89v12q0 5 4 8.5t9 3.5h41q10 0 17 8l17 16-1 1H26l-1-1 17-16zm202 155h-9q-4 0-7-3t-3-7q0-28-17-49.5T165 190q-17-3-33.5 1T102 205.5q-13 10.5-20 26T75 264v2q0 4-3 7t-7 3h-9q-8 0-13.5-5.5T37 257v-94h226v94q0 8-5.5 13.5T244 276zM131 88q0-7 5.5-12.5T150 70q8 0 13.5 5.5t5.5 13q0 7.5-5.5 13T150 107q-8 0-13.5-5.5T131 89v-1z"/></svg>