<svg viewBox="0 0 300 302.0011" xmlns="http://www.w3.org/2000/svg"><path d="M288 13q-6 1-9.5 4.5T275 26v82l-77-60q-11-8-24.5-9T148 44q-12 6-18.5 17T122 85L75 48q-11-8-24-9t-25 5Q14 50 7 61T0 86v130q0 14 7 25t19 17q12 6 25.5 5t24.5-9l46-37q1 13 7.5 24t17.5 16.5q11 5.5 23 5.5 15 0 28-9l77-60v82q0 5 3.5 8.5t9 3.5q5.5 0 9-3.5t3.5-8.5V26q0-5-3.5-9t-9.5-4h1zm-22 156l-83 65q-5 4-11.5 4.5T160 236q-13-6-13-20v-25q0-8-7-12-2-1-5.5-1t-7.5 3l-67 53q-5 4-11 4.5T37 236q-12-6-12-20V86q0-14 12-20 6-3 12-2.5T60 68l67 53q6 5 13 1.5t7-11.5V86q0-14 13-20 5-3 11.5-2.5T183 68l83 65q9 7 9 18t-9 18z"/></svg>