<svg viewBox="0 0 300 302.0011" xmlns="http://www.w3.org/2000/svg"><path d="M257 15Q235 1 208.5 1T161 14.5Q140 28 129 49q-7 13-17.5 21.5T89 82q-23 4-42 17.5T15.5 134Q3 155 .5 180t6 48.5Q15 252 34 270q15 15 35 23t42 8q50 0 93.5-28.5T274 196q26-48 26-104 0-23-11.5-43.5T257 15zM111 276q-17 0-32.5-6.5T51 252q-21-21-25-51t11-55q10-16 24.5-26t32-13.5Q111 103 126 91t25-30q8-15 23.5-25T209 26q19 0 34.5 9.5T267 60q8 15 8 32 0 49-22.5 91.5T192 251q-38 25-81 25zM225 95q0 8-5.5 13.5T206 114q-8 0-13-5.5T187.5 95q-.5-8 5-13.5T206 76q8 0 13.5 5.5T225 95zm-112 87q-1 8-6 13.5T94 201q-8 0-13.5-5.5T75 182q0-8 5.5-13.5t13.5-5q8 .5 13.5 5.5t5.5 13zm112-12q0 8-5.5 13.5T206 189q-8 0-13.5-5.5T187 170q0-8 5.5-13.5T206 151q8 0 13.5 5.5T225 170z"/></svg>