<svg viewBox="0 0 300 302.0011" xmlns="http://www.w3.org/2000/svg"><path d="M146 203q3 3 3 8.5t-3 8.5l-62 62q-19 19-46 19H13q-6 0-9.5-3.5T0 288v-25q0-27 19-46l63-63q4-4 9-4t8.5 4q3.5 4 3.5 9t-3 9l-63 63q-12 12-12 28v13h13q17 0 28-12l62-61q4-4 9-4t9 4zm150 94q-3 4-8.5 4t-8.5-4L4 22q-4-3-4-8.5t3.5-9Q7 1 12.5 1T21 5l105 105 96-96q13-13 32-13t32.5 13.5Q300 28 300 47t-13 32l-96 96 105 105q4 3 4 8.5t-4 8.5zM208 63l30 30 31-31q6-6 6-15t-6-15q-6-6-15-6t-15 6l-31 31zm-64 64l30 30 46-47-29-29-47 46z"/></svg>