<svg viewBox="0 0 300 302.0011" xmlns="http://www.w3.org/2000/svg"><path d="M288 301H37q-15 0-26-11T0 263V13q0-5 3.5-8.5t9-3.5q5.5 0 9 3.5T25 14v249q0 6 3.5 9.5T37 276h251q5 0 8.5 3.5t3.5 9q0 5.5-3.5 9T287 301h1zM175 163q0 6 3.5 9.5t9 3.5q5.5 0 9-3.5t3.5-9q0-5.5-3.5-9t-9-3.5q-5.5 0-9 3.5T175 164v-1zm75-75q0 6 3.5 9.5t9 3.5q5.5 0 9-3.5t3.5-9q0-5.5-3.5-9t-9-3.5q-5.5 0-9 3.5T250 89v-1zM138 226q0 5 3.5 8.5t8.5 3.5q5 0 8.5-3.5t4-8.5q.5-5-3.5-9t-9-4q-5 0-8.5 4t-3.5 9zm112-13q0 6 3.5 9.5t9 3.5q5.5 0 9-3.5t3.5-9q0-5.5-3.5-9t-9-3.5q-5.5 0-9 3.5T250 213zM113 63q0 6 3.5 9.5T125 76q5 0 8.5-3.5t4-9q.5-5.5-3.5-9t-9-3.5q-5 0-8.5 3.5T113 64v-1zm-50 88q0 5 3.5 8.5T75 163q5 0 9-3.5t4-8.5q0-5-4-8.5t-9-4q-5-.5-8.5 3.5t-3.5 9z"/></svg>