<svg viewBox="0 0 300 302.0011" xmlns="http://www.w3.org/2000/svg"><path d="M287 192l-16-90q-4-22-21-36.5T210 51q3-7 3-13 0-15-11-26T175 1h-50q-15 0-26 11T88 38q0 7 2 13-22 1-39.5 15T30 102l-16 90q-2 11 .5 22t9.5 19.5q7 8.5 17.5 13T63 251h37q0 21 15 35.5t35.5 14.5q20.5 0 35-14.5T200 251h38q11 0 21-4.5t17-13q7-8.5 10-19.5t1-22zM125 26h50q5 0 9 3.5t4 9q0 5.5-4 9t-9 3.5h-50q-5 0-8.5-3.5t-3.5-9q0-5.5 3.5-9T125 26zm25 250q-10 0-17.5-7.5T125 251h50q0 10-7.5 17.5T150 276zm107-59q-8 9-19 9H63q-12 0-19.5-9T38 196l16-89q2-14 12.5-22.5T91 76h118q14 0 24.5 8.5T246 107l16 89q2 12-5 21z"/></svg>