<svg viewBox="0 0 300 302.0011" xmlns="http://www.w3.org/2000/svg"><path d="M199 169q-1 7-6 12t-11.5 6.5q-6.5 1.5-13 0T157 181q5 14 11 23 1 3-.5 6.5T162 214h-24q-4 0-5.5-3.5t.5-6.5q6-9 10-23-5 5-11.5 6.5t-13 0Q112 186 107 181t-6-12q-3-12 4.5-21t19.5-9h4q-4-6-4-13 0-10 7.5-17.5T150 101q10 0 17.5 7.5T175 126q0 7-4 13h4q12-1 19.5 8.5T199 169zm64-106v175q0 17-8.5 31.5t-23 23Q217 301 200 301H100q-17 0-31.5-8.5t-22.5-23Q38 255 38 238V63q0-16 8-30.5t22.5-23Q83 1 100 1h100q17 0 31.5 8.5t23 23Q263 47 262 64l1-1zm-25 0q-1-15-11.5-26T200 26H100q-16 0-27 11T62 64v174q0 16 11 27t27 11h100q16 0 26.5-11t10.5-27V63h1z"/></svg>