<svg viewBox="0 0 300 302.0011" xmlns="http://www.w3.org/2000/svg"><path d="M188 76h-75q-17 0-31.5 8.5t-23 23Q50 122 50 139v74q0 18 11 31.5T89 262l-12 20q-3 4-1.5 9t5 7.5Q84 301 87 301q7 0 11-6l19-32h66l19 32q3 6 11 6 3 0 6.5-2.5t5-7.5q1.5-5-1.5-9l-12-20q17-4 28-17.5t11-31.5v-75q0-16-8.5-30.5t-23-23Q204 76 187 76h1zm37 62v25h-62v-62h25q15 0 26 11t11 26zm-112-37h25v62H75v-25q0-15 11-26t26-11h1zm87 137H100q-10 0-17.5-7T75 213v-25h25v13q0 5 3.5 8.5t9 3.5q5.5 0 9-3.5t3.5-8.5v-13h50v13q0 5 3.5 8.5t9 3.5q5.5 0 9-3.5t3.5-8.5v-13h25v25q0 11-7.5 18t-17.5 7zm100-87v137q0 6-3.5 9.5t-9 3.5q-5.5 0-9-3.5T275 288V151q0-34-17-62.5T212.5 43Q184 26 150 26T87.5 43Q59 60 42 88.5T25 151v137q0 6-3.5 9.5t-9 3.5q-5.5 0-9-3.5T0 288V151q0-41 20-75.5T74.5 21Q109 1 150 1t75.5 20Q260 41 280 75.5t20 75.5z"/></svg>