<svg viewBox="0 0 300 302.0011" xmlns="http://www.w3.org/2000/svg"><path d="M138 301H63q-17 0-31.5-8.5t-23-23Q0 255 0 238V63q0-16 8.5-30.5t23-23Q46 1 63 1h175q16 0 30.5 8.5t23 23Q300 47 300 63v63q0 5-3.5 8.5t-9 3.5q-5.5 0-9-3.5T275 126V63q0-15-11-26t-26-11H63q-16 0-27 11T25 63v175q0 16 11 27t27 11h75q5 0 8.5 3.5t3.5 9q0 5.5-3.5 9T138 301zm12-131q8 0 13.5-5.5T169 151q0-8-5.5-13.5T150 132q-8 0-13.5 5.5T131 151q0 8 5.5 13.5T150 170zm125 18q0-15-11-26t-26.5-11q-15.5 0-26.5 11t-11 26.5q0 15.5 11 26.5t26.5 11q15.5 0 26.5-11t11-27zm16 113q5-2 7.5-6.5t1.5-9.5q-6-20-23.5-33.5t-39-13.5q-21.5 0-39 13.5T175 285q-1 5 1.5 9.5t7.5 6q5 1.5 9.5-1t6.5-7.5q3-12 13.5-20.5t24-8.5q13.5 0 24 8.5T275 292q1 4 4.5 6.5t8.5 2.5h3zm-112-54q5-2 7-6.5t.5-9.5q-1.5-5-6-7t-8.5-1q-11 3-22 3-20 0-37.5-10T85 188.5Q75 171 75 151t10-37.5Q95 96 112.5 86T151 76q21 0 39.5 11.5T218 119q2 5 7 6.5t9.5-.5q4.5-2 6.5-7t-1-10q-12-26-36.5-41.5T151 51q-28 0-51 13.5T63.5 101Q50 124 50 151t13.5 50Q77 224 100 237.5t50 13.5q15 0 29-4z"/></svg>