<svg viewBox="0 0 300 302.0011" xmlns="http://www.w3.org/2000/svg"><path d="M250 52q-30-27-68.5-35t-76 3.5Q68 32 41 61.5T5 129q-9 38 1.5 76T45 271q9 8 20.5 13t23.5 4h122q24 1 42-16 23-21 35-50t11.5-60.5q-.5-31.5-13.5-60T250 52zm-14 202q-11 10-25 10H89q-15 0-26-11-28-27-35.5-64.5t7-73Q49 80 81 59t70-20.5q38 .5 69.5 22t45.5 57q14 35.5 6 73T236 254zm2-91q-5 1-9-2t-5-8q-4-28-25-46t-49-18q-24-1-42 12t-26.5 34q-8.5 21-5 43.5T98 217q3 4 3 9t-3.5 8.5q-3.5 3.5-8.5 4t-9-3.5q-23-22-28-51.5t6-57.5q11-28 35.5-45.5T150 63q24 1 45.5 12t35.5 30.5q14 19.5 18 43.5 1 5-2 9.5t-9 4.5zm4 41q-2 5-7 6.5t-9-.5l-61-26q-7 5-15.5 4.5t-15-5.5q-6.5-5-8.5-13.5t1-16q3-7.5 10.5-11.5t16-3q8.5 1 14.5 7t7 15l61 26q4 3 6 7.5t0 9.5z"/></svg>