<svg viewBox="0 0 300 302.0011" xmlns="http://www.w3.org/2000/svg"><path d="M238 157q0 8-5.5 13.5T219 176q-8 0-13.5-5.5T200 157q0-8 5.5-13.5T219 138q8 0 13.5 5.5T238 157zm43-44q8 0 13.5-5t5.5-13q0-8-5.5-13.5T281 76q-8 0-13 5.5T263 95q0 8 5 13.5t13 5.5v-1zm-62 88q-8 0-13.5 5.5T200 220q0 8 5.5 13t13.5 5q8 0 13.5-5t5.5-13q0-8-5.5-13.5T219 201zm62-63q-8 0-13 5.5t-5 13.5q0 8 5 13.5t13 5.5q8 0 13.5-5.5T300 157q0-8-5.5-13.5T281 138zm0 63q-8 0-13.5 5.5t-5 13.5q.5 8 5.5 13t13 5q8 0 13.5-5t5.5-13q0-8-5.5-13.5T281 201zm0 62q-8 0-13 5.5t-5 13.5q0 8 5 13.5t13 5.5q8 0 13.5-5.5T300 282q0-8-5.5-13t-13.5-5v-1zm-62 0q-8 0-13.5 5.5T200 282q0 8 5.5 13.5T219 301q8 0 13.5-5.5t5-13.5q-.5-8-5.5-13.5t-13-4.5v-1zm-63-62q-8 0-13.5 5.5T137 220q0 8 5.5 13t13.5 5q8 0 13.5-5t5.5-13q0-8-5.5-13.5T156 201zm0 62q-8 0-13.5 5.5t-5 13.5q.5 8 5.5 13.5t13 5.5q8 0 13.5-5.5T175 282q0-8-5.5-13t-13.5-5v-1zm93-229q2 9-.5 18.5T239 70l-95 95q-12 11-27 11-5 0-9-1-10-2-17.5-9T80 149q-3-10-4-21-4-61 10-91-16-11-37-11-10 0-17 7t-7 17v239q0 5-3.5 8.5t-9 3.5q-5.5 0-9-3.5T0 289V50q0-20 14.5-34.5T49 1q30 0 53 17Q131-3 202 2q11 1 21 4t17 10.5q7 7.5 9 17.5zm-24 5q-2-7-9.5-9T200 27q-13-1-24-1-47 0-62 14-8 9-11.5 31.5T101 126q1 8 3 15.5t9.5 9Q121 152 126 147l95-95q5-5 4-13z"/></svg>