<svg viewBox="0 0 300 302.0011" xmlns="http://www.w3.org/2000/svg"><path d="M275 288q0 6-3.5 9.5T263 301H38q-6 0-9.5-3.5t-3.5-9q0-5.5 3.5-9T38 276h225q5 0 8.5 3.5t3.5 8.5zM75 176q0-20 10-37.5t27.5-27.5q17.5-10 37.5-10 29 0 50 19V51h-50q-5 0-8.5-3.5t-3.5-9q0-5.5 3.5-9T150 26h50V13q0-5 3.5-8.5t9-3.5q5.5 0 9 3.5T225 13v13h13q5 0 8.5 3.5t3.5 9q0 5.5-3.5 9T238 51h-13v187q0 6-3.5 9.5t-9 3.5q-5.5 0-9-3.5T200 238v-6q-21 19-50 19-20 0-37.5-10T85 213.5Q75 196 75 176zm25 0q0 21 14.5 35.5T150 226q21 0 35.5-14.5T200 176q0-21-14.5-35.5T150 126q-21 0-35.5 14.5T100 176z"/></svg>