<svg viewBox="0 0 300 302.0011" xmlns="http://www.w3.org/2000/svg"><path d="M150 1q-41 0-75.5 20T20 75.5Q0 110 0 151t20 75.5Q40 261 74.5 281t75.5 20q41 0 75.5-20t54.5-54.5q20-34.5 20-75.5t-20-75.5Q260 41 225.5 21T150 1zm0 25q34 0 63 17.5T259 90q-5-2-9-2h-51q-19 1-35 13h-28q-16-13-35-13H50q-4 1-9 2 17-29 46-46.5T150 26zm0 250q-33 0-60.5-15.5t-45-42.5Q27 191 25 159q7 8 17 12.5t21 4.5h26q18 0 31.5-10.5T138 138l3-12h18l3 12q4 17 17.5 27.5T211 176h26q11 0 21-4.5t17-12.5q-2 32-19.5 59t-45 42.5Q183 276 150 276zm72-83q3 4 3 9t-4 8q-9 8-22 15-25 13-49 13t-49-13q-13-7-22-15-4-3-4-8t3.5-9q3.5-4 8.5-4.5t9 3.5q6 5 16 11 20 11 38 10.5t38-10.5q10-6 16-11 4-4 9-3.5t9 4.5z"/></svg>