<svg viewBox="0 0 300 302.0011" xmlns="http://www.w3.org/2000/svg"><path d="M300 88v125q0 17-8.5 31.5t-23 23Q254 276 238 276h-38q-5 0-8.5-3.5t-3.5-9q0-5.5 3.5-9t8.5-3.5h38q15 0 26-11t11-27V88q0-15-11-26t-27-11H63q-13 0-23.5 8T26 79q-1 5-5.5 7.5T11 88q-5-1-7.5-5.5T2 73q5-21 22-34t38-13h176q16 0 30.5 8.5t23 23Q300 72 300 89v-1zM19 238q-8 0-13.5 5.5T0 257q0 8 5.5 13.5T19 276q8 0 13-5.5t5.5-13.5q.5-8-5-13T19 239v-1zm-6-62q-6 0-9.5 3.5t-3.5 9q0 5.5 3.5 9T13 201q16 0 30.5 8.5t23 23Q75 247 75 263q0 6 3.5 9.5t9 3.5q5.5 0 9-3.5t3.5-9.5q0-23-12-43t-32-32q-20-12-43-12zm0-63q-5 0-8.5 4T1 126q0 5 3.5 8.5T13 138q34 0 62.5 17t45.5 46q17 29 17 62 0 6 3.5 9.5t8.5 3.5q5 0 8.5-3.5t3.5-9.5q0-40-20-74.5T88 134q-34-20-75-20v-1z"/></svg>