<svg viewBox="0 0 300 302.0011" xmlns="http://www.w3.org/2000/svg"><path d="M238 276h-13v-88h6q8 0 13.5-5t5.5-13q0-8-5.5-13.5T231 151h-6v-50q0-28-18-48.5T163 27V13q0-5-4-8.5T150 1q-5 0-9 3.5t-4 9.5v13q-26 5-44 25.5T75 101v50h-6q-8 0-13.5 5.5T50 170q0 8 5.5 13t13.5 5h6v88H63q-6 0-9.5 3.5t-3.5 9q0 5.5 3.5 9T63 301h175q5 0 8.5-3.5t3.5-9q0-5.5-3.5-9T238 276zM150 51q21 0 35.5 14.5T200 101H100q0-21 14.5-35.5T150 51zm-50 75h100v150H100V126zm69 44q0 8-5.5 13.5T150 189q-8 0-13.5-5.5T131 170q0-8 5.5-13.5T150 151q8 0 13.5 5.5T169 170z"/></svg>