<svg viewBox="0 0 300 302.0011" xmlns="http://www.w3.org/2000/svg"><path d="M238 106V88q-1-23-12.5-43T194 13Q174 1 150 1t-44 12Q86 25 74 45T62 88v18q-17 8-27 23.5T25 163v75q0 17 8.5 31.5t23 23Q71 301 87 301h126q16 0 30.5-8.5t23-23Q275 255 275 239v-76q0-18-10-33.5T238 106zM88 88q0-16 8-30.5t22.5-23Q133 26 150 26t31.5 8.5Q196 43 204 57.5t8 31.5v12H88V88zm162 150q0 16-11 27t-27 11H88q-16 0-27-11t-11-26v-76q0-15 11-26t26-11h126q15 0 26 11t11 26v75zm-100-62q-5 0-9 3.5t-4 9.5v24q1 6 4.5 9.5t8.5 3.5q5 0 9-3.5t4-9.5v-25q0-5-4-8.5t-9-3.5z"/></svg>