<svg viewBox="0 0 300 302.0011" xmlns="http://www.w3.org/2000/svg"><path d="M150 1q-41 0-75.5 20T20 75.5Q0 110 0 151t20 75.5Q40 261 74.5 281t75.5 20q41 0 75.5-20t54.5-54.5q20-34.5 20-75.5t-20-75.5Q260 41 225.5 21T150 1zm0 275q-34 0-62.5-17T42 213.5Q25 185 25 151t17-62.5Q59 60 87.5 43T150 26q34 0 62.5 17T258 88.5q17 28.5 17 62.5t-17 62.5Q241 242 212.5 259T150 276zm45-60q4 3 5 8t-2.5 9.5q-3.5 4.5-9 4.5t-8.5-2q-4-3-9-5-11-5-21-5t-21 5q-6 3-9.5 5.5t-8.5 2q-5-.5-8.5-5T100 224q1-5 5.5-8.5T119 208q16-7 31-7t31 7q8 4 14 8zm-66-53l-50 18q-2 1-5 1t-6-2q-3-2-5-6.5t.5-9Q66 160 71 158l50-18q5-2 9.5.5t6.5 7q2 4.5-.5 9.5t-7.5 6zm108 11q-2 4-5 6t-6 2q-3 0-5-1l-50-18q-5-1-7.5-6t-.5-9.5q2-4.5 6.5-7t9.5-.5l50 18q5 2 7.5 6.5t.5 9.5z"/></svg>