<svg viewBox="0 0 300.0051 302.0011" xmlns="http://www.w3.org/2000/svg"><path d="M197 127q-7-7-17-7.5t-18 5.5q0-10-7-17t-17-7H88q-11 0-18.5 7.5T63 126v50q0 10 7 17.5t18 7.5h42l30 30q7 7 18 7t19-7l33-33q8-8 8-19t-8-18l-33-34zm-109-1h50v50H87v-50h1zm124 54l-33 33q-1 1-2 0l-21-21q7-7 6-16v-16l15-15q1-1 2 0l33 33v2zm78-154q-11-13-27-13H38q-17 0-28 12.5T0 54l17 178q2 24 20 40.5T79 289h141q24 0 42-16.5t20-40.5l18-177q2-17-10-29zm-15 26l-18 178q-1 14-11.5 23.5T220 263H79q-15 0-25.5-9.5T42 229L25 52q0-5 3.5-9.5T38 38h225q5 0 9 4.5t3 9.5z"/></svg>