<svg viewBox="0 0 301 302.0011" xmlns="http://www.w3.org/2000/svg"><path d="M293 119l-44-75q-8-14-22.5-22.5T195 13h-88q-17 0-31.5 8.5T53 45L9 119q-9 15-9 32t9 31l44 75q8 15 22.5 23t31.5 8h88q17 0 31.5-8t22.5-23l44-75q8-14 8-31t-8-31v-1zm-22 51l-44 75q-5 8-13.5 13t-18.5 5h-88q-10 0-19-5t-14-13l-44-75q-5-9-5-19t5-19l44-75q5-9 14-14t19-5h88q10 0 18.5 5T227 57l44 75q5 9 5 19t-5 19zm-74-48l-28 29 28 29q4 3 4 8.5t-3.5 9q-3.5 3.5-9 3.5t-8.5-4l-29-28-29 28q-3 4-8.5 4t-9-3.5q-3.5-3.5-3.5-9t4-8.5l28-29-28-29q-4-3-4-8.5t3.5-9q3.5-3.5 9-3.5t8.5 4l29 28 29-28q3-4 8.5-4t9 3.5q3.5 3.5 3.5 9t-4 8.5z"/></svg>