<svg viewBox="0 0 300 302.0011" xmlns="http://www.w3.org/2000/svg"><path d="M246 197l-16 16 16 17q4 3 4 8.5t-3.5 9q-3.5 3.5-9 3.5t-8.5-4l-16-16-17 16q-3 4-8.5 4t-9-3.5q-3.5-3.5-3.5-9t4-8.5l16-17-16-16q-4-3-4-8.5t3.5-9q3.5-3.5 9-3.5t8.5 4l16 16 17-16q3-4 8-4t9 3.5q4 3.5 4 9t-4 8.5zm54 16q0 24-12 44t-32 32q-20 12-43.5 12T169 289q-20-12-32-32t-12-43.5q0-23.5 12-43.5t32-32q20-12 43.5-12t43.5 12q20 12 32 32t12 43zm-25 0q0-16-8.5-30.5t-23-23q-14.5-8.5-31-8.5t-31 8.5q-14.5 8.5-23 23t-8.5 31q0 16.5 8.5 31t23 23q14.5 8.5 31 8.5t31-8.5q14.5-8.5 23-23T275 213zm-175 38q0 5-3.5 8.5T88 263H63q-17 0-31.5-8t-23-22.5Q0 218 0 201V63q0-16 8.5-30.5t23-23Q46 1 63 1h129q10 2 19 11l41 41q11 11 11 26v9q0 6-4 9.5t-9 3.5q-5 0-8.5-3.5T238 88v-9q0-5-4-8l-34-35v40q0 10-7.5 17.5T175 101H88q-11 0-18-7.5T63 76V26q-16 0-27 11T25 63v138q0 15 11 26t27 11h25q5 0 8.5 4t3.5 9zm75-175V26H88v50h87zm-47 75q5-1 7.5-5t1.5-9q-1-5-5-8t-9-2q-13 3-22 11.5t-12 19Q86 168 88 178q1 5 4.5 7.5t8.5 2.5h2q5-1 8-5.5t2-9.5q-2-10 5-17 4-4 9-5h1z"/></svg>