<svg viewBox="0 0 300 302.0011" xmlns="http://www.w3.org/2000/svg"><path d="M200 301H100q-17 0-31.5-8.5t-22.5-23Q38 255 38 238V88q-1-16 7.5-30.5t23-23Q83 26 100 26h2q4-11 13.5-18T138 1h25q12 0 21.5 7T198 26h2q17 0 31.5 8.5t23 23Q263 72 263 89v149q0 17-8.5 31.5t-23 23Q217 301 200 301zM100 51q-16 0-27 11T62 88v150q0 16 11 27t27 11h100q16 0 26.5-11t10.5-27V88q0-15-10.5-26T200 51h-12q-6 0-9.5-3.5t-3.5-9-3.5-9Q168 26 162 26h-24q-6 0-9.5 3.5t-3.5 9-3.5 9Q118 51 113 51h-13zm50 112q13 0 22-9t9-22q0-13-9-22t-22-9q-13 0-22 9t-9 22q0 13 9 22t22 9zm53 75q5-1 7.5-5.5t1.5-9.5q-5-20-22.5-33.5T150 176q-22 0-39.5 13.5T88 223q-1 5 1.5 9.5T97 238q5 1 9.5-1.5t5.5-7.5q3-12 14-20t24-8q13 0 24 8t14 20q1 4 4.5 6.5t7.5 3.5l3-1z"/></svg>