<svg viewBox="0 0 300 302.0011" xmlns="http://www.w3.org/2000/svg"><path d="M69 88q18 0 31-12.5T113 45q0-18-13-31T69 1Q51 1 38 14T25 45q0 18 13 30.5T69 88zm0-62q8 0 13.5 5.5T88 45q0 8-5.5 13T69 63.5q-8 .5-13.5-5T50 45q0-8 5.5-13.5T69 26zm150 187q23 0 39.5-16t16.5-39.5q0-23.5-16.5-40t-40-16.5q-23.5 0-40 16.5t-16 40Q163 181 179 197t40 16zm0-87q13 0 22 9t9 22q0 13-9 22t-22 9.5q-13 .5-22-9t-9-22.5q0-13 9-22t22-9zM105 234q8 7 7.5 17t-7.5 18l-27 28q-4 4-9 4t-9-3.5q-4-3.5-4-8.5t4-9l15-17H50q-21 0-35.5-14.5T0 214v-13q0-5 3.5-9t9-4q5.5 0 9 4t3.5 9v12q0 11 7.5 18t17.5 7h25l-15-16q-4-4-4-9t4-8.5q4-3.5 9-3.5t9 4l27 29zm186 66q-2 1-3 1-5 0-8-2.5t-4-6.5q-6-18-21.5-29.5T219 251q-20 0-36 11.5T162 292q-1 5-6 7.5t-9.5 1q-4.5-1.5-7-6T138 285q8-26 30.5-42.5T219 226q28 0 50.5 16.5T299 285q2 5-.5 9.5T291 300zM129 163h-5q-3 0-6-2t-5-6q-5-13-17-21t-27-8q-15 0-27.5 8T24 155q-2 5-6.5 7.5T8 163q-5-2-7-7t0-9q7-21 26-33.5T69 101q23 0 41.5 12.5T137 147q2 4-.5 9t-7.5 7z"/></svg>