<svg viewBox="0 0 300 302.0011" xmlns="http://www.w3.org/2000/svg"><path d="M150 213q-17 0-31.5-8T96 182.5Q88 168 88 151t8-31.5q8-14.5 22.5-23T150 88q17 0 31.5 8.5t23 23Q213 134 213 151t-8.5 31.5q-8.5 14.5-23 22.5t-31.5 8zm0-100q-15 0-26 11.5T113 151q0 15 11 26t26 11q15 0 26.5-11t11.5-26q0-15-11.5-26.5T150 113zm13-62V13q0-5-4-8.5T150 1q-5 0-8.5 3.5T138 13v38q0 5 3.5 8.5T150 63q5 0 9-3.5t4-8.5zm0 237v-37q0-5-4-9t-9-4q-5 0-8.5 4t-3.5 9v37q0 6 3.5 9.5t8.5 3.5q5 0 9-3.5t4-9.5zM63 151q0-5-4-9t-9-4H13q-6 0-9.5 4T0 151q0 5 3.5 8.5T13 163h37q5 0 9-3.5t4-8.5zm237 0q0-5-3.5-9t-8.5-4h-38q-5 0-8.5 4t-3.5 9q0 5 3.5 8.5t8.5 3.5h38q5 0 8.5-3.5t3.5-8.5zM84 85q4-4 4-9t-4-9L59 42q-4-3-9-3t-8.5 3.5Q38 46 38 51t3 9l25 25q4 3 9 3t9-3zm175 175q4-4 4-9t-4-9l-25-25q-4-3-9-3t-8.5 3.5Q213 221 213 226t3 9l25 25q4 3 9 3t9-3zm-200 0l25-25q4-4 4-9t-4-8.5q-4-3.5-9-3.5t-9 3l-25 25q-3 4-3 9t3.5 8.5Q45 263 50 263t9-3zM234 85l25-25q4-4 4-9t-4-8.5q-4-3.5-9-3.5t-9 3l-25 25q-3 4-3 9t3.5 8.5Q220 88 225 88t9-3z"/></svg>