<svg viewBox="0 0 300.005 302.0011" xmlns="http://www.w3.org/2000/svg"><path d="M199.005 301q-15 0-25.5-10.5t-10.5-25.5v-77q0-5-4-8.5t-9-3.5q-5 0-9 3.5t-4 9.5v76q1 12-6.5 22t-19.5 13q-12 3-23.5-1.5t-17.5-15.5q-30-51-46-93-24-62-24-114-1-15 4.5-29t16.5-25q11-11 25-16.5t29-4.5q25 0 49 8 13 4 26 4t26-4q24-8 49-8 15-1 29 4.5t25 16.5q11 11 16.5 25t4.5 29q0 52-24 114-16 42-46 93-5 8-13 13t-18 5zm-49-150q16 0 27 11t11 26v77q0 3 2 6.5t6 4.5q4 1 7.5-.5t5.5-4.5q28-49 44-89 22-58 22-106 0-10-3.5-19.5t-10.5-16.5q-7-7-16.5-10.5t-19.5-3.5q-22 0-42 7-16 5-33 5t-33-5q-20-7-42-7-31 0-44 24-6 13-6 26 0 48 23 106 15 40 43 88 2 4 5.5 5.5t7.5.5q4-1 6.5-4.5t2.5-6.5v-77q0-15 10.5-26t26.5-11z"/></svg>