<svg viewBox="0 0 300 302.0011" xmlns="http://www.w3.org/2000/svg"><path d="M295 123q6-13 4-28.5t-12-27q-10-11.5-25-15T232 54q-12-12-30-15-4-1-5-5-5-15-18-24t-29-9q-16 0-29 9t-18 24q-1 4-5 5-17 3-30 15-15-5-30-1.5t-25 15Q3 79 1 94.5T5 123q4 8 0 16-8 19-3.5 38.5T21 210l4 4q0 15 8 29t21.5 23q13.5 9 29 10t30.5-6l13 14q13 13 18 16t10 0q5-3 17-16l14-14q15 7 31 6t29-10q13-9 21-23t8-29l4-4q15-13 19.5-32.5T295 139q-4-8 0-16zM88 251q-16 0-27-11t-11-27q0-6-3.5-12T38 191q-13-11-13-27 1-6 4-17.5t3-16.5q0-10-4-18-3-6-2.5-13T30 86.5Q34 81 40 78t13-2q-5 14-2.5 28.5T63 130q5 7 2 15-5 19 1 38t21 30q1 20 12 36-6 2-11 2zm100-38q-1 12-7.5 22T162 249V113q0-5-3.5-8.5T150 101q-5 0-9 3.5t-4 8.5v136q-11-4-17.5-14t-7.5-22.5q-1-12.5-12-21.5-8-7-11-17.5t0-20.5q3-10 1.5-20.5T82 114q-9-10-7-24 2-10 9.5-17.5t17-9q9.5-1.5 16-7t9-13.5q2.5-8 9-12.5T150 26q8 0 14.5 4.5t9 12.5q2.5 8 9 13.5t16 7.5q9.5 2 17 9t9.5 17q2 14-7 24-8 9-9 22 0 7 3 23l1 4q0 17-13 29-12 8-13 22l1-1zm73-21q-5 4-8 9.5t-3 12.5q0 8-4 16t-11.5 13.5q-7.5 5.5-16 7T201 249q11-16 11-35 16-12 22-31t1-38q-3-8 2-15 10-11 12.5-25.5T247 76q7 0 13 2.5t10 8q4 5.5 4.5 12.5t-2.5 13q-4 8-4 18 0 5 3 16.5t4 16.5q0 9-3.5 16.5T261 192z"/></svg>