<svg viewBox="0 0 300 302.0011" xmlns="http://www.w3.org/2000/svg"><path d="M186 213q-5 0-8.5-3.5T174 201q0-5 3-9l32-32q4-3 4-8.5t-4-8.5l-33-33q-4-4-4-9t4-9q4-4 9-4t9 4l33 33q11 11 11 26.5T227 178l-32 32q-4 3-9 3zm114 25v-83q0-40-18.5-74T231 25.5Q199 4 160 1q-32-2-62.5 9.5T44 45Q21 68 9.5 98.5T0 162q3 39 25.5 71T84 283q36 18 80 18h74q16 0 30.5-8.5t23-23Q300 255 300 238zM159 26q32 2 58.5 20t42 47q15.5 29 15.5 62v83q0 16-11 27t-27 11h-73q-38 0-68.5-15t-49-41.5Q28 193 25 160q-2-27 7.5-52.5t28-44Q79 45 102 35.5t48-9.5h9zm-36 184q3-4 3-9t-3-9l-32-32q-4-3-4-8.5t4-8.5l33-33q4-4 4-9t-4-9q-4-4-9-4t-9 4l-33 33q-10 11-10 26.5T73 178l32 32q4 3 9 3t9-3z"/></svg>