<svg viewBox="0 0 300 302.0011" xmlns="http://www.w3.org/2000/svg"><path d="M261 193l-47 77q-8 12-21 20.5T165 301h-8q-20 0-37-12-18 13-40 11.5T42.5 284Q27 269 25 247t11-40l-16-16Q9 180 4 165.5T1 136q2-15 10-27.5T32 88l72-45q30-19 65.5-17T233 50l21-20q5-6 12-4t9 9q2 7-4 12l-20 21q21 27 23.5 61T261 193zm-160 79l-47-47q-5 10-3.5 21.5T60 266q8 8 19.5 9.5T101 272zM225 77q-22-22-52-25.5T117 65l-72 44q-8 5-13 13t-6 17.5q-1 9.5 2 18T38 173l91 91q6 7 15 10t18.5 2q9.5-1 17-6t12.5-13l47-77q14-25 10-54t-24-49zm16 224q-4 0-7.5-2.5t-4.5-6q-1-3.5 0-7.5t4-7q17-12 27.5-29.5T275 211q1-7 8-9.5t12.5 2.5q5.5 5 3.5 12-4 25-17.5 46.5T248 299q-3 2-7 2zM13 73q-8 0-11.5-7T2 53q16-21 37.5-34T86 1q5-1 9.5 2t5.5 8q1 5-2 9.5T91 26q-20 3-38 14T22 68q-3 5-9 5z"/></svg>