<svg viewBox="0 0 300 302.0011" xmlns="http://www.w3.org/2000/svg"><path d="M130 259q-15 0-28-9l-83-61q-9-7-14-17t-5-21q0-11 5-21t14-17l83-61q11-8 23.5-9t24.5 4.5q12 5.5 19.5 16T177 87l48-35q11-8 24-9t25 5q12 6 19 17.5t7 24.5v122q0 13-7 24.5T274 254q-12 6-25 5t-24-9l-47-35q-2 19-15.5 31.5T130 259zm35-81q4 0 7 3l68 49q5 4 11 4.5t11.5-2.5q5.5-3 9-8.5T275 212V90q0-6-3.5-11.5t-9-8.5q-5.5-3-11.5-2.5T240 72l-67 49q-7 5-13.5 1.5T153 111V90q0-6-3.5-11.5t-9-8.5q-5.5-3-12-2.5T117 72l-83 61q-9 7-9 18t9 18l83 61q5 4 11.5 4.5t12-2.5q5.5-3 9-8.5T153 212v-21q0-5 3.5-9t8.5-4z"/></svg>