<svg viewBox="0 0 300 302.0011" xmlns="http://www.w3.org/2000/svg"><path d="M284 122q16 18 16 41v63q0 17-8.5 31.5t-23 22.5q-14.5 8-30.5 8H63q-17 0-31.5-8t-23-22.5Q0 243 0 226v-63q0-16 8.5-30.5t23-23Q46 101 63 101h50q5 0 8.5 3.5t3.5 9q0 5.5-3.5 9T112 126H63q-16 0-27 11t-11 26v63q0 16 11 27t27 11h175q15-1 26-11.5t11-26.5v-63q0-14-9-24-4-4-3.5-9.5t4.5-8.5q4-3 9-3t8 4zM63 195q0 8 5 13.5t13 5q8-.5 13.5-5.5t5.5-13q0-8-5.5-13.5T81 176q-8 0-13 5.5T63 195zm81 18q8 0 13.5-5t5.5-13q0-8-5.5-13.5T144 176q-8 0-13.5 5.5T125 195q0 8 5.5 13.5T144 214v-1zm6-75v-19q0-21 15-36l71-71q11-11 26.5-11T289 12q11 11 11 26.5T289 65l-71 71q-15 15-36 15h-19q-6 0-9.5-3.5T150 139v-1zm25-12h7q11 0 18-7l71-72q4-3 4-8.5t-3.5-9q-3.5-3.5-9-3.5t-8.5 4l-72 71q-7 7-7 18v7z"/></svg>