<svg viewBox="0 0 300 302.0011" xmlns="http://www.w3.org/2000/svg"><path d="M150 1q-41 0-75.5 20T20 75.5Q0 110 0 151t20 75.5Q40 261 74.5 281t75.5 20q41 0 75.5-20t54.5-54.5q20-34.5 20-75.5t-20-75.5Q260 41 225.5 21T150 1zm0 275q-34 0-62.5-17T42 213.5Q25 185 25 151t17-62.5Q59 60 87.5 43T150 26q34 0 62.5 17T258 88.5q17 28.5 17 62.5t-17 62.5Q241 242 212.5 259T150 276zm63-75q-1 5-4.5 9t-8.5 4H100q-5-1-8.5-4.5t-4-8.5q-.5-5 3.5-9t9-4h100q5 1 8.5 4.5t3.5 8.5h1zm0-69q-1 8-6 13.5t-13 5.5q-8 0-13.5-5.5T175 132q0-8 5.5-13.5t13.5-5q8 .5 13.5 5.5t5.5 13zm-88 0q0 8-5.5 13.5T106 151q-8 0-13.5-5.5t-5-13.5q.5-8 5.5-13.5t13-5q8 .5 13.5 5.5t5.5 13zm-37-31q-6 0-9.5-3.5t-3.5-9q0-5.5 3.5-9T87 76h26q5 0 8.5 3.5t3.5 9q0 5.5-3.5 9T113 101H88zm140-21q2 4 1.5 9t-5 8q-4.5 3-9.5 2t-8-5q-5-6-13-5.5T179 97q-3 5-4.5 8.5t-5 5.5q-3.5 2-6.5 2h-5q-5-2-7-7t0-10q5-12 14-21 13-12 28-12t25 8q6 4 10 9z"/></svg>