<svg viewBox="0 0 300 302.0011" xmlns="http://www.w3.org/2000/svg"><path d="M238 38h-82q-3 0-6-1l-39-20q-8-3-17-3H63q-17 0-31.5 8t-23 22.5Q0 59 0 76v150q0 17 8.5 31.5t23 22.5q14.5 8 31.5 8h12q5 0 8.5-3.5T87 276q0-5-3.5-8.5T75 264H63q-16-1-27-11.5T25 226V113h250v113q0 16-11 27t-27 11h-12q-5-1-8.5 3t-3.5 9q0 5 3.5 8.5t8.5 3.5h13q16 0 30.5-8t23-22.5Q300 243 300 226V101q0-17-8.5-31.5t-23-23Q254 38 238 39v-1zM25 76q0-16 11-26.5T63 39h31q3-1 6 1l39 20q8 3 17 3h82q12 0 21.5 7T273 88H25V76zm171 164q4 3 4 8.5t-4 8.5l-20 21q-11 10-26 10t-26-10l-20-21q-4-3-4-8.5t3.5-9q3.5-3.5 9-3.5t8.5 4l17 16v-93q0-5 3.5-8.5t8.5-3.5q5 0 9 3.5t3 8.5v93l17-16q3-4 8.5-4t8.5 4z"/></svg>