<svg viewBox="0 0 300 302.0011" xmlns="http://www.w3.org/2000/svg"><path d="M189 67q5-5 5-13t-5-13l-26-26q-5-5-13-5t-13 5l-26 26q-5 5-5 13t5 13l27 27v24q-14 5-23 16.5t-9 26q0 14.5 9 26t23 15.5v24q-11 0-18 7.5t-7 17.5v25q0 10 7 17.5t18 7.5h25q10 0 17.5-7.5T188 276v-25q0-10-7.5-17.5T163 226v-24q13-4 22-15.5t9-26q0-14.5-9-26T163 118V94l26-27zm-26 209h-25v-25h25v25zM133 54l17-17 17 17-17 17-17-17zm36 106q0 8-5.5 13.5T150 179q-8 0-13.5-5.5t-5.5-13q0-7.5 5.5-13T150 142q8 0 13.5 5.5T169 160zm131-78v38q0 18-13 30.5T256 163h-18l9 10q4 4 4 9t-3.5 9q-3.5 4-9 4t-8.5-4l-23-22q-7-8-7-18t7-18l23-22q3-4 8.5-4t9 4q3.5 4 3.5 9t-4 9l-9 9h18q8 0 13.5-5t5.5-13V82q0-8-5.5-13.5T256 64h-31q-5 0-8.5-4t-3.5-9q0-5 3.5-9t8.5-4h31q18 0 31 13t13 31zM93 233q7 8 7 18t-7 18l-23 22q-3 4-8.5 4t-9-4q-3.5-4-3.5-9t4-9l10-10H44q-18 0-31-12.5T0 220v-38q0-18 13-31t31-13h31q5 0 9 4t4 9q0 5-4 8.5t-9 3.5H44q-8 0-13.5 5.5T25 182v38q0 8 5.5 13t13.5 5h19l-10-9q-4-4-4-9t3.5-9q3.5-4 9-4t8.5 4l23 22z"/></svg>