<svg viewBox="0 0 300 302.0011" xmlns="http://www.w3.org/2000/svg"><path d="M300 263q0 6-3.5 9.5T288 276H138q-6 0-9.5 3.5t-3.5 9-3.5 9q-3.5 3.5-9 3.5t-9-3.5Q100 294 100 288q0-12 7-21.5t18-13.5v-40H50v75q0 6-3.5 9.5t-9 3.5q-5.5 0-9-3.5T25 288v-79q-11-5-18-15.5T0 170v-50q0-18 13-31t31-13h52l72-44q5-3 10-2t7.5 5.5Q188 40 187 45t-5 8l-75 46q-3 2-7 2H44q-8 0-13.5 5.5T25 120v50q0 7 5.5 12.5T44 188h31v-50q0-5 3.5-8.5t9-3.5q5.5 0 9 3.5t3.5 8.5v50h25q10 0 17.5 7.5T150 213v38h138q5 0 8.5 3.5t3.5 8.5zM56 63q13 0 22.5-9T88 32q0-13-9.5-22T56 1q-13 0-22 9t-9 22q0 13 9 22.5T56 64v-1zm83 67q4 6 11 6 4 0 7-2l50-31q4-3 5-8t-1.5-9.5Q208 81 203 80t-10 2l-50 30q-4 3-5 8t1 10zm68-69l24 9 9 24q2 5 6.5 6.5t8.5-.5q4-2 5-6l9-24 24-9q5-2 6.5-6.5T299 46q-2-4-6-5l-24-9-9-24q-1-4-5-6t-8.5-.5Q242 3 240 8l-9 24-24 9q-4 1-6 5t-.5 8.5Q202 59 207 61z"/></svg>