<svg viewBox="0 0 300 302.0011" xmlns="http://www.w3.org/2000/svg"><path d="M283 202q-27-9-53-17l38-145q4-15-5.5-27T238 1h-4q-13 0-25 6t-20 17l-73 97q-10 14-25 22-13 8-22 8H13q-6 0-9.5 3.5t-3.5 9q0 5.5 3.5 9T13 176h25q57 0 131 18 52 12 105 32 1 0 1 1t-1 1q-53 19-105 31-74 17-131 17H13q-6 0-9.5 3.5t-3.5 9q0 5.5 3.5 9T13 301h25q59 0 136-18 53-12 108-31 8-3 13-10t5-15.5q0-8.5-4.5-15T283 202zm-147-66l73-98q5-5 11.5-8.5T234 26h4q3 0 5 2.5t1 5.5l-38 144q-48-14-91-20 12-10 21-22zm-36 102q-5 0-9-3.5t-4-8.5q0-5 4-9t9-4h63q5 1 8.5 4.5t3.5 8.5q0 5-3.5 8.5T163 238h-63z"/></svg>