<svg viewBox="0 0 300 302.0011" xmlns="http://www.w3.org/2000/svg"><path d="M172 110q-9-9-22-9t-22 9l-31 31q-9 10-9 22.5t9 22.5l31 31q9 9 22 9t22-9l31-31q10-10 10-22.5T203 141l-31-31zm14 58l-32 31q-1 2-4 2t-4-2l-32-31q-2-2-2-4.5t2-4.5l32-31q1-2 4-2t4 2l32 31q1 2 1 4.5t-1 4.5zM299 66q-3-23-21.5-38T236 13H78q-32 0-52.5 14.5T1 66q-3 15 2.5 30T20 122q5 4 5 10v94q0 17 8.5 31.5t23 23Q71 289 87 289h126q16 0 30.5-8.5t23-23Q275 243 275 226v-94q0-6 5-10 11-11 16.5-26t2.5-30zm-36 37q-13 12-13 29v94q0 16-11 27t-26 11H88q-16-1-27-11.5T50 226v-94q0-17-13-29-7-6-10-15t-1-18q2-15 15.5-23.5T78 38h158q14 0 25 9t13 23q2 9-1 18t-10 15z"/></svg>