<svg viewBox="0 0 300 302.0011" xmlns="http://www.w3.org/2000/svg"><path d="M280 48q-29-16-61-20-5-10-13.5-16.5t-19.5-9Q175 0 164 2q-24 6-46 17-15-7-32.5-5T55 28L41 40q-7 7-14 15-9 11-12.5 24.5T14 107q1 6 4 12-11 22-17 46-2 11 .5 22t9 19.5Q17 215 27 220q4 32 20 61 7 11 19 16.5t24.5 3q12.5-2.5 22-12.5t10.5-24q3-24 12-47h1l9-6q12-10 16-25 8-3 14.5-9.5T185 162q15-4 24-16 3-3 7-9 23-10 47-13 14-1 24-10.5T299.5 91q2.5-13-3-24.5T280 48zM98 261q0 6-4 10t-9 5q-5 1-9.5-1t-6.5-7q-11-20-16-42h53q-2 7-5 22l-3 13zm32-70q-13 10-28 10H50q-12 0-19.5-9.5T26 170q3-15 10-29 5 4 12 7l86 38q-2 3-4 5zm28-32q-3 3-7.5 4t-8.5-1l-84-37q-7-3-12.5-9.5t-7-14.5q-1.5-8 0-15.5T46 71q6-7 12-13l13-11q6-6 14-7.5t16 0q8 1.5 14 6.5t9 13l37 83q2 5 1 9.5t-4 7.5zm42-56q0 15-10 28-2 2-5 4l-38-86q-3-7-7-12 14-7 29-10 12-3 21.5 4.5T200 51v52zm75-17q-1 5-5 9t-10 4l-13 3q-15 3-22 5V54q22 5 42 16 5 2 7 6.5t1 9.5z"/></svg>