<svg viewBox="0 0 300 302.0011" xmlns="http://www.w3.org/2000/svg"><path d="M300 95q0-27-14-49.5T248 11q-24-12-50.5-9.5T150 20Q127 2 98 1T44.5 15Q20 30 8 56.5t-7 55q5 28.5 25.5 49T75 187v51H50q-5 0-8.5 4t-3.5 9q0 5 3.5 8.5T50 263h25v25q0 6 3.5 9.5t9 3.5q5.5 0 9-3.5t3.5-8.5v-26h25q5 0 9-3.5t4-8.5q0-5-4-8.5t-9-3.5h-25v-51q28-2 50-18 22 16 50 18v50h-25q-5 0-9 4t-3.5 9q.5 5 4 8.5t8.5 3.5h25v25q0 6 3.5 9.5t9 3.5q5.5 0 9-3.5t3.5-8.5v-26h25q5 0 9-3.5t4-8.5q0-5-4-8.5t-9-3.5h-25v-52q33-7 54-33t21-59zm-25 0q0 18-9 34t-25 25q-16 9-34.5 9t-34.5-9q-16-9-25-25t-9-34.5q0-18.5 9-34.5t25-25q16-9 34.5-9t34 9.5q15.5 9.5 25 25T275 95zM25 95q0-19 10-35.5T61.5 34Q78 25 97 26t35 12q-19 25-19 57t19 57q-16 10-35 11t-35.5-8Q45 146 35 130T25 95z"/></svg>