<svg viewBox="0 0 300 302.0011" xmlns="http://www.w3.org/2000/svg"><path d="M257 55l-75-45q-15-9-32-9t-32 9L43 55q-14 8-22 22.5T13 108v85q0 17 8 31.5T43 247l75 45q15 9 32 9t32-9l75-45q14-8 22-22.5t9-31.5v-85q-1-16-9-30.5T257 55zM38 106l34 21-34 50v-71zm112-67l41 74h-82l41-74zm113 137l-35-49 35-21v70zm-153-38h80l-40 64-40-64zm-60 65l37-54 38 61-75-7zm163-54l38 54-76 7 38-61zm31-73q5 3 9 7l-38 23-38-70 67 40zM56 76l67-40-38 70-38-23q4-4 9-7zm5 153l77 7v38q-4-1-7-3l-70-42zm108 42q-3 2-6 3v-38l76-7-70 42z"/></svg>