<svg viewBox="0 0 300 302.0011" xmlns="http://www.w3.org/2000/svg"><path d="M219 138q-22 0-41 11t-29.5 30Q138 198 138 220t10.5 40.5Q159 279 178 290t41 11q22 0 40.5-11t29.5-29.5q11-18.5 11-40.5t-11-41q-11-19-29.5-29.5T219 138zm0 25q16 0 30 9l-78 78q-9-14-9-30 0-23 16.5-39.5T219 164v-1zm0 113q-16 0-30-9l77-77q9 14 9 30 0 23-16.5 39.5T219 276zM25 163v57q0 23 16.5 39.5T81 276q14 0 26-6 4-2 9-.5t7.5 6q2.5 4.5 1 9.5t-6.5 7q-17 9-37 9-22 0-40.5-11T11 260.5Q0 242 0 220V82q0-22 11-40.5T40.5 12Q59 1 81 1t41 11q19 11 29.5 29.5T163 82v31q0 6-4 9.5t-9 3.5q-5 0-8.5-3.5T138 114V82q0-23-16.5-39.5T81.5 26q-23.5 0-40 16.5T25 82v56h88q5 0 8.5 4t3.5 9q0 5-3.5 9t-8.5 4H25v-1z"/></svg>