<svg viewBox="0 0 300 302.0011" xmlns="http://www.w3.org/2000/svg"><path d="M238 26H63q-17 0-31.5 8.5t-23 23Q0 72 0 89v112q0 19 10.5 34.5T38 258v18q0 5 3.5 8.5T50 288q5 0 9-3.5t4-8.5v-13h175v13q0 5 3.5 8.5t8.5 3.5q5 0 9-3.5t4-8.5v-18q16-7 26.5-22.5T300 201V88q0-16-8.5-30.5t-23-23Q254 26 238 26zm37 175q0 16-11 27t-27 11H63q-16 0-27-11t-11-27V88q0-15 11-26t27-11h175q15 0 26 11t11 26v113zM175 76H75q-10 0-17.5 7.5T50 101v87q0 11 7.5 18t17.5 8h100q10-1 17.5-8t7.5-18v-87q0-10-7.5-17.5T175 76zM75 188v-87h100v87H75zM250 88v113q0 5-3.5 9t-9 3.5q-5.5-.5-9-4T225 201V88q0-5 3.5-8.5t9-3.5q5.5 0 9 3.5T250 89v-1z"/></svg>