<svg viewBox="0 0 300 302.0011" xmlns="http://www.w3.org/2000/svg"><path d="M21 175q3 21 12 40l7 13q10 16 27 21.5t35-.5l1 2q4 6 9.5 9.5t12.5 3q7-.5 12.5-3.5t9-9q3.5-6 3-12.5T146 226l-1-2 88-49 2 4q4 6 9.5 9.5t12.5 3q7-.5 12.5-3.5t9-9q3.5-6 3-13t-3.5-12l-3-5q9-9 12-22 5-20-5-37l-7-13q-12-20-31-32l-54-35q-14-8-31-8t-31 8L42 55q-14 9-22 23.5T12 110l9 65zm239-73q5 9 2.5 19T252 136L95 224q-8 5-18 2.5T62 216l-10-20 21-11 6 10q4 6 11.5 6t11-6.5Q105 188 100 182l-5-10 112-64 7 12q2 4 7 5.5t9.5-1q4.5-2.5 6-7.5t-1.5-10l-7-11 22-12 3 5 7 13zM55 77l86-45q8-5 17.5-5.5T177 31l53 35L46 171l-9-62q0-10 4.5-18.5T55 77zm245 211q0 6-3.5 9.5T288 301H13q-6 0-9.5-3.5t-3.5-9q0-5.5 3.5-9T12 276h276q5 0 8.5 3.5t3.5 8.5z"/></svg>