<svg viewBox="0 0 300 302.0011" xmlns="http://www.w3.org/2000/svg"><path d="M113 82q0-7 5.5-12.5t13-5.5q7.5 0 13 5.5t5.5 13q0 7.5-5.5 13t-13 5.5q-7.5 0-13-5.5T113 82zm185 108q-13 47-46 79-15 16-35.5 24t-43.5 8h-46q-22 0-42.5-8T48 269q-32-32-46-79-3-11-1-22.5t9-20.5q7-9 16-15l-1-8q0-14 6.5-26T50 79v-3q0-14 7.5-26.5T78 31q13-6 28-5 7-11 18.5-18T150 1q14 0 26 7t19 18q14-1 26.5 5T242 48.5q8 11.5 8 25.5 12 8 18.5 20t6.5 25q0 7-1 13 9 5 16 14.5t9 21q2 11.5-1 22.5zM50 124v2h114q-1-3-1-6 0-8 5-13.5t13-5.5q8 0 13.5 5.5T200 120q0 3-1 6h50q1-3 1-7 0-8-5-15.5T232 93q-4-2-6-5.5t-1-7.5v-4q0-10-7.5-17.5T200 51q-4 0-8.5 1.5T182 52q-5-2-6-7-3-9-10-14t-16-5q-9 0-16 5t-10 14q-1 5-6 7t-9.5.5Q104 51 100 51q-10 0-17.5 7.5T75 76q0 3 1 7t-1 8.5Q73 96 69 98q-9 3-14 10.5T50 124zm220 37q-7-10-20-10H50q-12 0-19.5 10T26 183q12 41 40 69 12 11 28 17.5t33 6.5h46q18 0 33.5-6.5T234 252q28-28 40-69 4-12-4-22z"/></svg>