<svg viewBox="0 0 300 302.0011" xmlns="http://www.w3.org/2000/svg"><path d="M295 147l-34-92q-6-19-22.5-30.5T202 13H98q-20 0-36 11.5T39 55L5 147q-5 14-5 29v12q0 15 6.5 28T25 238v25q0 16 11 27t26.5 11Q78 301 89 290t11-27v-12h100v12q0 16 11 27t26.5 11q15.5 0 26.5-11t11-27v-25q12-9 18.5-22t6.5-27v-13q0-15-5-29zM62 63q4-11 14-17.5T98 39h104q12-1 22 6t14 18l18 50H44l18-50zm13 200q0 6-3.5 9.5t-9 3.5q-5.5 0-9-3.5T50 264v-14q6 1 12 1h13v12zm175 0q0 6-3.5 9.5t-9 3.5q-5.5 0-9-3.5T225 264v-13h13q6 0 12-1v13zm-12-37h-38v-13q0-5-3.5-8.5T188 201h-75q-6 0-9.5 3.5T100 213v13H63q-16 0-27-11t-11-26h25q5-1 8.5-4.5t4-8.5q.5-5-3.5-8.5t-9-3.5H27l2-8 6-18h230l6 18 2 7h-23q-5 0-9 4t-3.5 9q.5 5 4 8.5t8.5 3.5h25q0 16-11 27t-27 11h1z"/></svg>