<svg viewBox="0 0 300 302.0011" xmlns="http://www.w3.org/2000/svg"><path d="M88 76h200q5 0 8.5-3.5t3.5-9q0-5.5-3.5-9T288 51H88q-6 0-9.5 3.5t-3.5 9q0 5.5 3.5 9T88 76zm200 62H88q-6 0-9.5 4t-3.5 9q0 5 3.5 9t9.5 4h200q5 0 8.5-4t3.5-9q0-5-3.5-9t-8.5-4zm0 88H88q-6 0-9.5 3.5t-3.5 9q0 5.5 3.5 9T88 251h200q5 0 8.5-3.5t3.5-9q0-5.5-3.5-9T288 226zM0 63q0 11 7.5 18.5T25 89q10 0 17.5-7.5t7.5-18Q50 53 42.5 46T25 38.5q-10-.5-17.5 7T0 64v-1zm0 88q0 10 7.5 17.5T25 176q10 0 17.5-7.5T50 151q0-10-7.5-17.5T25 126q-10 0-17.5 7.5T0 151zm0 87q0 11 7.5 18t17.5 7q10 0 17.5-7t7.5-17.5q0-10.5-7.5-18T25 213q-10 0-17.5 7.5T0 238z"/></svg>