<svg viewBox="0 0 300 302.0011" xmlns="http://www.w3.org/2000/svg"><path d="M225 118l-75-15V40q0-14-9-25T119 2q-18-3-31 8T75 39v12H33q-5 0-7 4t2 7l22 14-22 14q-3 4-1.5 7.5T33 101h42v28l-49 49q-13 14-13.5 33T26 243l29 29q14 14 32 21.5t38 7.5h88q16 0 30.5-8.5t23-23Q275 255 275 238v-59q0-22-14-39t-36-22zM100 38q0-5 4.5-9t9.5-3q5 1 8 5t3 9v11h-25V38zm150 200q0 16-11 27t-26 11h-88q-15 0-28.5-5.5T72 254l-28-29q-7-6-6.5-14.5T44 196l31-31v49q0 5 4 8.5t9 3.5q5 0 9-3.5t3-9.5V101h25v12q0 5 3 8.5t7 4.5l85 17q13 2 21.5 12.5T250 179v59z"/></svg>