<svg viewBox="0 0 300 302.0011" xmlns="http://www.w3.org/2000/svg"><path d="M238 101q-1 5-4.5 9t-8.5 4q-10-1-18 5 4 4 5 10.5t-2 12q-3 5.5-9 8t-12 1q-6-1.5-10-7t-4-12.5q0-7 4-16 5-11 15-18 12-8 31-9 5 0 9 4t4 9zM88 132q0 8 5.5 13.5t13 5.5q7.5 0 13-5.5T125 132q0-8-4-17-5-11-15-18-12-8-31-8-5-1-8.5 3t-3.5 9q0 5 3.5 9t8.5 4q10-1 18 5-6 5-5 13zm212 19q0 41-20 75.5T225.5 281Q191 301 150 301q-57-2-95-33-35-29-47.5-73t0-88Q20 63 55 34 93 3 150 1q41 0 75.5 20T280 75.5q20 34.5 20 75.5zm-25 0q0-34-17-62.5T212.5 43Q184 26 150 26q-47 2-79 28-30 23-40 60t0 74q10 37 40 60 32 26 79 28 34 0 62.5-17t45.5-45.5q17-28.5 17-62.5zm-54 53q-20-18-45.5-24.5t-51 0Q99 186 79 204q-4 4-4 9t3.5 9q3.5 4 8.5 4t9-3q15-14 34.5-19t39 0q19.5 5 34.5 19 4 3 9 3t8.5-4q3.5-4 3.5-9t-4-9z"/></svg>