<svg viewBox="0 0 300 302.0011" xmlns="http://www.w3.org/2000/svg"><path d="M225 126q0 8-7 11-5 1-18 1t-18-1q-7-3-7-12t7.5-16.5Q190 101 200 101t17.5 7.5Q225 116 225 126zM88 138h37q5 0 9-3.5t4-8.5q0-5-4-9t-9-4H88q-6 1-9.5 4.5T75 126q0 5 3.5 9t9.5 4v-1zm212 13q0 41-20 75.5T225.5 281Q191 301 150 301q-57-2-95-33-35-29-47.5-73t0-88Q20 63 55 34 93 3 150 1q41 0 75.5 20T280 75.5q20 34.5 20 75.5zm-25 0q0-34-17-62.5T212.5 43Q184 26 150 26q-47 2-79 28-30 23-40 60t0 74q10 37 40 60 32 26 79 28 34 0 62.5-17t45.5-45.5q17-28.5 17-62.5zm-65 25q-29 11-60 13-31-2-60-13-4 0-7.5 1t-5.5 4.5q-2 3.5-2 7t2 6.5q11 20 30.5 31.5T150 238q23 0 42.5-11.5T223 195q2-3 2-6.5t-2-7q-2-3.5-5.5-5t-7.5-.5z"/></svg>