<svg viewBox="0 0 300 302.0011" xmlns="http://www.w3.org/2000/svg"><path d="M191 176h56q22 0 37.5-15.5T300 123q0-12-5-22.5T281 82v-6q0-21-12-38 8 0 13-5t5.5-13q.5-8-5-13.5T269 1q-8 0-13.5 5.5T250 20v2q-14-9-31-9t-32 9v-2q1-8-4.5-13.5T169 1q-8 0-13.5 5.5T150 20q0 8 5.5 13t13.5 5q-9 12-11 25h-45q-28 0-51 13.5T26 113q-13 23-13 51 0 15 4 30L2 220q-3 4-1.5 9t5 7q3.5 2 6.5 3 8-1 11-7l7-12q9 12 20 21v23q0 15 11 26t26.5 11q15.5 0 26.5-11t11-26h38q0 15 11 26t26.5 11q15.5 0 26.5-11t11-26v-22q11-9 19-21 3-5 2-10t-5-8q-4-3-9-2t-8 5q-8 11-19 19-5 4-5 10v28q0 6-4 9.5t-9 3.5q-5 0-9-3.5t-4-9.5v-12q1-5-3-9t-9-4h-62q-6 0-9.5 4t-3.5 9v12q0 6-3.5 9.5t-9 3.5q-5.5 0-9-3.5T75 263v-28q0-7-5-10-18-12-26-32-1-3-2-5-4-12-4-25 0-20 10-37t27-27.5Q92 88 113 88h37q-12 15-12 35 0 22 15.5 37.5T191 176zm28-138q15 0 26 11t11 27v12q0 7 6 11t9.5 10q3.5 6 3.5 13.5t-3.5 13.5q-3.5 6-8.5 10v-8q0-5-4-8.5t-9-3.5q-5 0-8.5 3.5T238 138v13h-38v-13q0-5-3.5-8.5t-9-3.5q-5.5 0-9 3.5T175 138v8q-6-4-9.5-10t-3.5-13.5q0-7.5 3.5-13.5t9.5-10q6-4 6-11V76q0-16 11-27t27-10v-1z"/></svg>