<svg viewBox="0 0 300 302.0011" xmlns="http://www.w3.org/2000/svg"><path d="M246 197l-16 16 16 17q4 3 4 8.5t-3.5 9q-3.5 3.5-9 3.5t-8.5-4l-16-16-17 16q-3 4-8.5 4t-9-3.5q-3.5-3.5-3.5-9t4-8.5l16-17-16-16q-4-3-4-8.5t3.5-9q3.5-3.5 9-3.5t8.5 4l17 16 16-16q3-4 8.5-4t9 3.5q3.5 3.5 3.5 9t-4 8.5zm54 16q0 24-12 44t-32 32q-20 12-43.5 12T169 289q-20-12-32-32t-12-43.5q0-23.5 12-43.5t32-32q20-12 43.5-12t43.5 12q20 12 32 32t12 43zm-25 0q0-16-8.5-30.5t-23-23q-14.5-8.5-31-8.5t-31 8.5q-14.5 8.5-23 23t-8.5 31q0 16.5 8.5 31t23 23q14.5 8.5 31 8.5t31-8.5q14.5-8.5 23-23T275 214v-1zM63 63q12 0 21.5-9T94 32q0-13-9.5-22t-22-9q-12.5 0-22 9T31 32q0 13 9.5 22.5T62 64l1-1zm37 144v81q0 6-3.5 9.5t-9 3.5q-5.5 0-9-3.5T75 288v-75H50v75q0 6-3.5 9.5t-9 3.5q-5.5 0-9-3.5T25 288v-81q-11-7-18-18.5T0 163v-37q0-21 14.5-35.5T50 76h25q21 0 35.5 14.5T125 126v37q0 14-7 25.5T100 207zm0-81q0-10-7.5-17.5T75 101H50q-10 0-17.5 7.5T25 126v37q0 11 7.5 18.5T50 189h25q10-1 17.5-8t7.5-18v-37z"/></svg>