<svg viewBox="0 0 300 302.0011" xmlns="http://www.w3.org/2000/svg"><path d="M238 101V51q0-21-15-35.5T187 1h-74Q92 1 77.5 15.5T63 51v50q-17 0-31.5 8.5t-23 23Q0 147 0 164v74q0 17 8.5 31.5t23 23Q46 301 63 301h175q16 0 30.5-8.5t23-23Q300 255 300 238v-75q0-16-8.5-30.5t-23-23Q254 101 238 101zM88 51q0-10 7-17.5t18-7.5h75q10 0 17.5 7.5T213 51v100H88V51zm-25 75v37q0 6 3.5 9.5T75 176h150q5 0 9-3.5t4-8.5v-38q15 0 26 11t11 26v50H25v-50q0-15 11-26t27-11zm175 150H63q-16 0-27-11t-11-27h250q0 16-11 27t-27 11h1z"/></svg>