<svg viewBox="0 0 300 302.0011" xmlns="http://www.w3.org/2000/svg"><path d="M75 120q0-8 5.5-13.5T94 101q8 0 13.5 5.5t5 13.5q-.5 8-5.5 13.5t-13 5q-8-.5-13.5-5.5T75 120zm200 12v106q0 17-8.5 31.5t-23 23Q229 301 212 301H88q-17 0-31.5-8.5t-23-23Q25 255 25 238V63q0-16 8.5-30.5t23-23Q71 1 87 1h57q17 0 33 6.5T206 27l43 43q13 13 19.5 29t6.5 33zm-87-88q-6-6-13-10v54q0 6 3.5 9.5t9.5 3.5h54q-4-7-10-13l-44-44zM50 238v2l63-64q13-12 31-12t30 12l8 8q5 5 12 5t12-5l44-44v-14h-62q-16 0-27-11t-11-26V26H88q-16 0-27 11T50 64v174zm200 0v-63l-27 27q-12 12-29.5 12T164 202l-7-8q-6-5-13.5-5t-12.5 5l-71 70q12 12 28 12h125q15 0 26-11t11-27z"/></svg>