<svg viewBox="0 0 300 302.0011" xmlns="http://www.w3.org/2000/svg"><path d="M283 5q-7-4-14.5-4T255 5q-21 13-47 19-16 3-47 5-23 1-34 3-19 3-34 10-17 8-32 22-18 18-27.5 41.5T25 154q1 43 28 76L4 280q-4 3-4 8.5t3.5 9q3.5 3.5 9 3.5t8.5-4l50-49q33 27 76 27l11-1q28-2 53-16t42-37q43-56 47-185 0-9-4.5-18T283 5zm-50 201q-14 19-34 30t-42 13q-22 2-41-4t-34-20q-15-14-23.5-32.5t-8.5-39q0-20.5 7.5-39T80 81q15-15 38-21 14-4 45-6 33-2 51-6 29-6 54-22h2q2 2 3.5 4.5T275 35q-2 60-12.5 103.5T233 206zm-52-105q-15 0-25 9-10-9-24.5-9T106 112.5Q95 124 95 140q0 20 22 45 11 13 23 23 7 5 16.5 5t16.5-5q12-10 23-23 21-25 21-45 0-16-10.5-27.5T181 101zm-24 87q-1 1-2 0-13-11-24-25.5T120 140q0-6 3.5-10t8.5-4q5 0 8.5 3t3.5 8.5q0 5.5 3.5 9t8.5 3.5q5 0 9-3.5t4-9q0-5.5 3.5-8.5t8-3q4.5 0 8 4t3.5 10q0 8-10.5 22.5T157 188z"/></svg>