<svg viewBox="0 0 300 302.0011" xmlns="http://www.w3.org/2000/svg"><path d="M131 20q0-8 5.5-13.5T150 1q8 0 13.5 5.5T169 20q0 8-5.5 13T150 38q-8 0-13.5-5T131 20zm82 18q7 0 12.5-5t5.5-13q0-8-5.5-13.5t-13-5.5q-7.5 0-13 5.5T194 20q0 8 5.5 13t13.5 5zm62-37q-8 0-13.5 5.5T256 20q0 8 5.5 13t13.5 5q8 0 13.5-5t5.5-13q0-8-5.5-13.5T275 1zM88 38q7 0 12.5-5t5.5-13q0-8-5.5-13.5T87.5 1q-7.5 0-13 5.5T69 20q0 8 5.5 13T88 38zM25 1q-8 0-13.5 5.5T6 20q0 8 5.5 13T25 38q8 0 13.5-5T44 20q0-8-5.5-13.5T25 1zm191 216l-53 52V76q0-5-4-9t-9-4q-5 0-8.5 4t-3.5 9v193l-54-52q-4-4-9-3.5t-9 4q-4 3.5-3.5 8.5t3.5 9l58 55q10 11 25.5 11t26.5-11l58-55q3-4 3.5-9t-3-8.5q-3.5-3.5-9-4T217 217h-1z"/></svg>