<svg viewBox="0 0 300 302.0011" xmlns="http://www.w3.org/2000/svg"><path d="M213 138q10 0 17.5-7t7-17.5q-.5-10.5-7.5-18t-17.5-7q-10.5.5-18 7.5t-7.5 17.5q0 10.5 7.5 18T212 139l1-1zM284 5q-8-4-16.5-4T252 6q-20 11-42 20-33 12-60 12T90 26Q68 17 48 6q-7-5-15.5-5t-16 4Q9 9 4.5 16.5T0 33v236q0 9 4.5 16.5t12 11.5q7.5 4 16 4t15.5-5q20-12 42-20 33-12 60-12.5t60 12.5q22 8 42 20 7 5 16 5t16-4q7-4 11.5-11.5T300 269V33q0-9-4.5-16.5T284 5zM28 27q4-2 7 0 23 13 47 22 37 14 68 14t68-14q24-9 47-22 3-2 6.5 0t3.5 6v237L146 141q-14-15-35-15t-36 15l-50 50V33q0-4 3-6zm7 248q-3 2-6.5 0t-3.5-6v-43l68-68q7-7 17.5-7t17.5 7l98 97q-42-16-76-16-31 0-68 14-24 9-47 22z"/></svg>