<svg viewBox="0 0 300 302.0011" xmlns="http://www.w3.org/2000/svg"><path d="M213 76q-11 0-21 5-14-6-29-5 2-19 10-32 7-11 16-15.5t16-1.5q7 3 8 11-6 0-9.5 4t-3.5 9q0 5 3.5 9t8.5 4q11-1 18-8t7-18q-1-17-11-26.5T201.5 1Q187 0 173 8.5T150 33q-4-8-13-17-10-11-18-14-11-4-18 6-2 5-.5 9.5T107 25q26 13 30 51-15-1-29 5-26-10-51 1.5t-41 40Q0 151 0 188.5T15.5 254q15.5 28 40 40t50.5 3q15 7 31 2 13 4 26 0 16 5 31-2 26 9 50.5-3t40-40q15.5-28 15.5-65 0-34-13-61-12-24-32.5-38T213 76zM25 188q0-24 7.5-42.5t20.5-30Q66 104 80 102q-19 18-26 52t-.5 68Q60 256 78 275q-22-5-37-27-16-25-16-60zm50 0q0-29 12-52 10-20 25-29-8 15-10.5 49.5t.5 68.5q3 34 11 48-15-8-26-29-12-24-12-56zm75 88q-12 1-19-27-6-24-6-60t6-61q7-28 19-28t19 28q6 25 6 61t-6 60q-7 28-19 27zm37-3q8-14 11-48t.5-68.5Q196 122 188 107q18 10 27.5 33t9 50q-.5 27-10 50T187 273zm35 2q18-19 24.5-53t-.5-68q-7-34-26-52 26 4 41 30 13 23 13.5 55T262 243q-14 26-40 32z"/></svg>