<svg viewBox="0 0 300 302.0011" xmlns="http://www.w3.org/2000/svg"><path d="M215 76q-17 0-30 12-10-7-22-10 2-23 11-36 7-10 17-14 5-2 9.5-2t8.5 3.5q4 3.5 4 8.5-6 0-9.5 4t-3.5 9q0 5 3.5 8.5T213 63q10 1 17.5-6.5T238 39q-1-16-11.5-27T200 1q-13 0-25 7-15 8-25 25-11-20-32-31-5-2-9.5-.5t-7 6.5q-2.5 5-1 9.5T107 25q27 13 30 53-12 3-22 10-13-12-30-12-20 0-40 15t-32 40Q0 158 0 188.5T13 246q12 25 32 40t40 15q17 0 30-12 17 12 35 12t35-12q13 12 30 12 20 0 40-15t32-40q13-27 13-57.5T287 131q-12-25-32-40t-40-15zm0 200q-7 0-13.5-6t-16.5-6q-7 0-13 4-12 8-22 8t-22-8q-7-5-15.5-4.5T98 270q-6 6-13 6-13 0-27-12t-23-31q-10-21-10-44.5T35 144q9-19 23-31t26-12q8 0 14 6t14.5 6.5q8.5.5 15.5-4.5 12-8 22-8t22 8q7 5 15.5 4.5T202 107q6-6 13-6 13 0 27 12t23 31q10 21 10 44.5T265 233q-9 19-23 31t-27 12z"/></svg>