<svg viewBox="0 0 300 302.0011" xmlns="http://www.w3.org/2000/svg"><path d="M53 59q-4-4-4-9t4-9q26-26 61.5-35.5t71 0Q221 15 247 41q4 4 4 9t-3.5 9q-3.5 4-9 4t-8.5-4q-22-22-51-29.5t-58 0Q92 37 70 59q-3 4-8.5 4T53 59zm35 18q-4 3-4 8.5t4 9q4 3.5 9 3.5t9-4q18-18 44-18t44 18q4 4 9 4t9-3.5q4-3.5 4-9t-4-8.5q-13-13-28.5-19.5T150 51q-18 0-33.5 6.5T88 77zm212 99v75q0 21-14.5 35.5T250 301H50q-21 0-35.5-14.5T0 251v-75q0-21 14.5-35.5T50 126h200q21 0 35.5 14.5T300 176zm-25 0q0-10-7.5-17.5T250 151H50q-10 0-17.5 7.5T25 176v75q0 10 7.5 17.5T50 276h200q10 0 17.5-7.5T275 251v-75zM63 239v-63q0-5-4-8.5t-9-3.5q-5 0-8.5 3.5T38 176v75q0 5 3.5 9t8.5 4h13q5 0 8.5-4t3.5-9q0-5-3.5-8.5T62 239h1zm187-50q5 0 9-4t4-9q0-5-4-8.5t-9-3.5h-19q-8 0-13 5.5t-5 12.5v63q-1 8 4.5 13.5T231 264h19q5 0 9-4t4-9q0-5-4-8.5t-9-3.5h-12v-13h12q5 0 9-3.5t4-9q0-5.5-4-9t-9-3.5h-12v-12h12zm-150-25q-5 0-9 3.5t-4 8.5v75q1 5 4.5 9t8.5 4q5 0 9-4t4-9v-75q0-5-4-8.5t-9-3.5zm91 0q-5-1-9.5 1t-5.5 7l-14 39-13-39q-1-5-6-7t-9.5-.5q-4.5 1.5-7 6t-.5 9.5l25 75q1 4 4 6.5t7.5 2.5q4.5 0 7.5-2.5t4-6.5l25-75q2-5-.5-9.5T191 164z"/></svg>