<svg viewBox="0 0 300 302.0011" xmlns="http://www.w3.org/2000/svg"><path d="M289 124l-26-26V76q0-16-11-27t-27-10h-22l-26-27Q166 1 150 1t-27 11L97 38H75q-16 0-27 11T37 76v22l-26 26Q0 135 0 151t11 27l27 26v22q0 16 10.5 27T75 264h22l26 26q11 11 27 11t27-11l26-27h22q16 0 26.5-10.5T262 226v-22l27-26q11-11 11-27t-11-27zm-17 36l-31 30q-4 4-4 9v27q0 5-3.5 8.5T225 238h-27q-5 0-9 4l-30 31q-4 3-9 3t-9-3l-30-31q-4-3-9-4H75q-5 1-9-3t-4-9v-27q0-5-3-9l-31-30q-3-4-3-9t3-9l31-30q3-4 4-9V76q0-5 3.5-8.5T75 64h27q5-1 9-4l30-31q4-3 9-3t9 3l30 31q4 4 9 3h27q5 0 9 4t4 9v27q-1 5 3 9l31 30q3 4 3 9t-3 9zm-85-41q2 12-3 23t-16 17q-2 1-4 4.5t-2 6.5v6q0 5-3.5 9t-8.5 3.5q-5-.5-9-4t-4-8.5v-6q0-10 5.5-19.5T156 137q3-2 5-5.5t1.5-7.5q-.5-4-3.5-7t-7-3q-6-1-10.5 2.5t-4.5 9q0 5.5-3.5 9.5t-8.5 4q-5 0-9-4t-4-9q0-17 13.5-28.5T157 89q11 2 19.5 10.5T187 119zm-18 101q0 8-5.5 13t-13.5 5q-8 0-13.5-5t-5.5-13q0-8 5.5-13.5T150 201q8 0 13.5 5.5T169 220z"/></svg>