<svg viewBox="0 0 300 302.0011" xmlns="http://www.w3.org/2000/svg"><path d="M252 202q-4-2-9-.5t-7 6.5q-11 20-30 31.5T165 251h-2l56-178q10 9 17 22 2 5 7 6.5t9.5-.5q4.5-2 6.5-7t-1-10q-11-22-30-37l9-30q1-5-1-9.5t-7-6q-5-1.5-9.5 1T213 10l-8 24q-10-4-21-6l3-11q1-5-1-9.5t-7-6q-5-1.5-10 1t-6 7.5l-5 16h-16q-28 0-52 14T52 78q-14 24-14 52v41q0 27 12.5 50T84 258l-8 27q-2 5 .5 9.5T84 300l4 1q4 0 7-2.5t4-6.5l8-22q11 4 22 5l-3 10q-2 5 .5 9.5t7.5 5.5l4 1q4 0 7-2.5t4-6.5l6-16h10q29 0 54-15t39-42q2-4 .5-9t-6.5-7v-1zM63 171v-41q0-21 10.5-39.5t28.5-29Q120 51 142 51h8L92 233q-14-11-22-27t-8-35h1zm51 75l62-194q11 1 22 6l-62 193q-11-1-22-5z"/></svg>