<svg viewBox="0 0 300 302.0011" xmlns="http://www.w3.org/2000/svg"><path d="M188 95q-1-26-13.5-47.5t-34-34Q119 1 94 1H63Q46 1 31.5 9.5t-23 23Q0 47 0 64v224q0 6 3.5 9.5t9 3.5q5.5 0 9-3.5T25 288V188h68l59 107q3 6 11 6 3 0 6.5-2t5-7q1.5-5-1.5-10l-54-97q30-8 49-33t19-57h1zm-94 68H25V63q0-15 11-26t27-11h31q18 0 34 9.5t25.5 25q9.5 15.5 9.5 34t-9.5 34.5q-9.5 16-25.5 25t-34 9zm206 100q0 16-11 27t-27 11h-28q-10 0-18.5-5T202 282q-3-4-1.5-9t6-7.5q4.5-2.5 9.5-1.5t8 6.5q3 5.5 10 5.5h28q6 0 9.5-3.5t3.5-8q0-4.5-2.5-7T267 254l-38-6q-13-2-21-12t-8-22q0-16 11-27t26-11h29q10 0 18.5 5t13.5 14q3 4 1.5 9t-6 7.5Q289 214 284 213t-8-6.5q-3-5.5-10-5.5h-28q-6 0-9.5 3.5t-3.5 8q0 4.5 2.5 7t5.5 3.5l38 6q13 2 21 12t8 23v-1z"/></svg>