<svg viewBox="0 0 300 302.0011" xmlns="http://www.w3.org/2000/svg"><path d="M288 301q-6 0-9.5-3.5T275 288V13q0-5 3.5-8.5t9-3.5q5.5 0 9 3.5T300 13v275q0 6-3.5 9.5T288 301zM19 38q8 0 13.5-5T38 20q0-8-5.5-13.5T19 1Q11 1 5.5 6.5T0 20q0 8 5.5 13T19 38zm62 0q8 0 13.5-5t5.5-13q0-8-5.5-13.5T81 1q-8 0-13 5.5T63 20q0 8 5 13t13 5zm0 263q8 0 13.5-5.5T100 282q0-8-5.5-13.5T81 263q-8 0-13 5.5T63 282q0 8 5 13.5t13 5.5zM219 38q8 0 13.5-5t5.5-13q0-8-5.5-13.5T219 1q-8 0-13.5 5.5T200 20q0 8 5.5 13t13.5 5zm0 263q8 0 13.5-5.5T238 282q0-8-5.5-13.5T219 263q-8 0-13.5 5.5T200 282q0 8 5.5 13.5T219 301zm-200 0q8 0 13.5-5.5T38 282q0-8-5.5-13.5T19 263q-8 0-13.5 5.5T0 282q0 8 5.5 13.5T19 301zm0-63q8 0 13.5-5t5.5-13q0-8-5.5-13.5T19 201q-8 0-13.5 5.5T0 220q0 8 5.5 13t13.5 5zm0-68q8 0 13.5-5.5T38 151q0-8-5.5-13.5T19 132q-8 0-13.5 5.5T0 151q0 8 5.5 13.5T19 170zm0-69q8 0 13.5-5.5T38 82q0-8-5.5-13.5T19 63q-8 0-13.5 5.5T0 82q0 8 5.5 13.5T19 101zm131-63q8 0 13.5-5t5.5-13q0-8-5.5-13.5T150 1q-8 0-13.5 5.5T131 20q0 8 5.5 13t13.5 5zm0 263q8 0 13.5-5.5T169 282q0-8-5.5-13.5T150 263q-8 0-13.5 5.5T131 282q0 8 5.5 13.5T150 301zm0-63q8 0 13.5-5t5.5-13q0-8-5.5-13.5T150 201q-8 0-13.5 5.5T131 220q0 8 5.5 13t13.5 5zm0-68q8 0 13.5-5.5T169 151q0-8-5.5-13.5T150 132q-8 0-13.5 5.5T131 151q0 8 5.5 13.5T150 170zm0-69q8 0 13.5-5.5T169 82q0-8-5.5-13.5T150 63q-8 0-13.5 5.5T131 82q0 8 5.5 13.5T150 101zm88 50q0-8-5.5-13.5T219 132q-8 0-13.5 5.5T200 151q0 8 5.5 13.5T219 170q8 0 13.5-5.5T238 151zm-138 0q0-8-5.5-13.5T81 132q-8 0-13 5.5T63 151q0 8 5 13.5t13 5.5q8 0 13.5-5.5T100 151z"/></svg>