<svg viewBox="0 0 300 302.0011" xmlns="http://www.w3.org/2000/svg"><path d="M275 288q0 6-3.5 9.5T263 301h-52q-6 0-11.5-3.5t-9-9q-3.5-5.5-3-12T191 265l57-64h-48q-5 0-8.5-3.5t-3.5-9q0-5.5 3.5-9t8.5-3.5h51q7 0 12.5 3.5t8.5 9q3 5.5 3 12t-4 11.5l-57 64h49q5 0 8.5 3.5t3.5 9.5v-1zm0-243v68q0 6-3.5 9.5t-9 3.5q-5.5 0-9-3.5T250 114V88h-37v25q-1 6-4.5 9.5T200 126q-5 0-9-3.5t-4-8.5V45q1-18 13.5-31T231 1q18 0 31 13t13 31zm-25 18V45q0-8-5.5-13.5T231 26q-8 0-13 5.5T213 45v18h37zM129 222l-41 41V13q0-5-4-8.5T75 1q-5 0-8.5 3.5T63 13v250l-42-41q-3-3-8.5-3t-9 3.5Q0 226 0 231t4 9l53 54q8 7 18 7t18-7l53-54q4-4 4-9t-3.5-8.5q-3.5-3.5-9-3.5t-8.5 3z"/></svg>