<svg viewBox="0 0 300 302.0011" xmlns="http://www.w3.org/2000/svg"><path d="M288 163H13q-6 0-9.5-3.5T0 151q0-5 3.5-9t8.5-4h276q5 0 8.5 4t3.5 9q0 5-3.5 9t-8.5 4v-1zm-51-73q2-10-2.5-19.5T221 56L121 6q-10-5-21-5T80.5 6Q72 11 67 19.5T63 37v39q0 16 10.5 26.5T100 113h104q11 1 20.5-5.5T237 90zM109 28l100 50q4 2 3 6t-8 4H100q-5 0-8.5-3.5T88 76V37q-1-6 5-9 3-2 7.5-2t8.5 2zm11 268l101-50q9-5 13.5-14.5t2-20q-2.5-10.5-12-17T204 189H100q-16-1-26.5 10T62 226v39q0 9 5 17.5T80.5 296q8.5 5 19.5 5t20-5zm84-83q7 0 8 4.5t-3 6.5l-100 50q-8 4-16 0-6-3-6-9v-39q1-5 4.5-8.5t8.5-3.5l104-1z"/></svg>