<svg viewBox="0 0 300 302.0011" xmlns="http://www.w3.org/2000/svg"><path d="M285 86q-28-13-41-33l53-43q3-3 .5-7T291 0l-53 20v-8q0-6-5-9t-10-1q-8 3-14 10.5T201 29q-26 8-40 35-11 20-11 43 0 3-2 4.5t-4 1.5h-44q-11 0-21.5 5.5T61 132q-25 9-41 30-20 29-20 76 0 6 3.5 9.5t9 3.5q5.5 0 9-3.5T25 238q0-52 25-72 0 13 5 30 3 10 9 29l5 14-3 20q-2 17 9 29.5t28 12.5q14 0 24.5-9.5T140 268l2-17h20v12q0 16 11 27t26.5 11q15.5 0 26.5-11t11-27v-29l5-23q4-15 6-25.5t2-23.5v-25l28-3q9-2 15.5-9t6.5-15.5q0-8.5-4-15T285 86zm-38 26q-9 1-15.5 8.5T225 137v25q0 11-1.5 20t-5.5 23l-6 27v31q1 6-3 9.5t-9 3.5q-5 0-8.5-3.5T188 263v-25q0-5-4-8.5t-9-3.5h-44q-4 0-8 3t-4 8l-4 28q0 5-3.5 8t-8.5 3q-5 0-8.5-4T91 262l3-22q1-2 0-5l-6-19q-6-17-9-26-4-16-4-26.5t7.5-18Q90 138 100 138h44q13 0 22-9t9-22.5q0-13.5 6-26.5 10-25 35-28 14 37 59 57l-28 3z"/></svg>