<svg viewBox="0 0 300 302.0011" xmlns="http://www.w3.org/2000/svg"><path d="M232 28L154 2q-4-2-8 0L68 28q-19 6-31 22.5T25 87v65q0 37 24 71 18 26 49 49 20 14 41 25l5 3q3 1 5.5 1t5.5-1l5-2q22-9 42-22 31-21 49-48 24-34 24-76V87q0-20-12-36.5T232 28zm18 124q0 35-21 64-15 22-42 40-18 11-36 19-34-17-60-41-41-39-41-82V87q0-12 7-22t19-14l74-24 74 24q12 4 19 14t7 22v65zm-37-39h-50V63q0-5-4-8.5t-9-3.5q-5 0-8.5 3.5T138 64v49H88q-6 0-9.5 4t-3.5 9q0 5 3.5 8.5T87 138h51v94q0 5 3.5 9t8.5 4q5 0 8.5-4t3.5-9v-94h51q5 0 8.5-3.5t3.5-8.5q0-5-3.5-9t-9.5-3l1-1z"/></svg>