<svg viewBox="0 0 300 302.0011" xmlns="http://www.w3.org/2000/svg"><path d="M150 301q-28 0-48-19l-49-46q-20-20-30-45t-10-52.5Q13 111 23 86t29.5-44.5Q72 22 97 11.5T150 1q28 0 53 10.5t44.5 30Q267 61 277.5 86t10.5 52.5q0 27.5-10.5 52.5T247 236l-50 46q-9 9-21.5 14t-25.5 5zm0-275q-23 0-43.5 8.5T70.5 59Q55 75 46 95.5t-8.5 43q.5 22.5 9 43T70 218l50 45q12 13 30 13t30-12l50-46q16-16 24-36.5t8.5-43q.5-22.5-8.5-43T230 59q-16-16-36.5-24.5T150 26zm59 138q4-4 4-9t-4-8.5q-4-3.5-9-3.5t-9 3q-17 17-41 17t-41-17q-4-3-9-3t-9 3.5q-4 3.5-4 8.5t4 9q12 12 27 18t32 6q17 0 32-6t27-18zm-90-76q-8 1-13.5 6t-5.5 13q0 8 5.5 13.5T119 126q8 0 13.5-5.5t5-13.5q-.5-8-5.5-13.5T119 88zm62 0q-8 1-13.5 6t-5 13q.5 8 5.5 13.5t13 5.5q8 0 13.5-5.5T200 107q0-8-5.5-13.5T181 88z"/></svg>