<svg viewBox="0 0 300 302.0011" xmlns="http://www.w3.org/2000/svg"><path d="M200 101q-21 0-40.5 9T125 135q-9-5-18-7l17-34q3-6-1-12-6-9-15.5-14t-20-5q-10.5 0-20 5T52 82q-4 6-1 12l17 34q-26 6-44.5 25.5T1 200q-4 27 7.5 51.5t35 38Q67 303 94 301t48-19q26 19 58.5 19t58.5-19q26-19 36-50t0-62q-10-31-36.5-50T200 101zm-60 145q-12-16-14.5-36.5T132 170q15 15 17.5 36.5T140 246zM25 213q0-15 7.5-29t20-22.5Q65 153 81 151.5t30 4.5q-14 26-10.5 56t22.5 53q-14 10-31.5 11t-33-7Q43 261 34 246t-9-32v-1zm175 63q-22 0-41-12 13-18 15.5-39t-5-41.5Q162 163 146 149q18-19 43.5-22.5t47.5 9q22 12.5 32 36t3.5 48.5q-6.5 25-26.5 40.5T200 276zM132 62q5 3 9.5 1t7.5-6l12-25q3-5 1-10t-6.5-7.5Q151 12 146 14t-7 6l-13 25q-2 5-.5 10t6.5 7zM26 57q3 4 7.5 6t9.5-.5q5-2.5 6.5-7.5T49 45L36 20q-2-4-7-6t-9.5.5Q15 17 13.5 22t.5 10l12 25zm62-6q5 0 8.5-3.5T100 39V13q0-5-3.5-8.5t-9-3.5q-5.5 0-9 3.5T75 13v25q0 6 3.5 9.5T88 51z"/></svg>