<svg viewBox="0 0 300 302.0011" xmlns="http://www.w3.org/2000/svg"><path d="M274 220l-24-120V76q0-34-19-53-15-14-42-19-15-3-39-3t-39 3Q84 9 69 23 50 42 50 76v24L26 221q-3 15 1 29.5t14 26q10 11.5 24 18t29 6.5h112q16 0 29.5-6.5t23.5-18q10-11.5 14-26.5t1-30zM113 29v9q0 6 3.5 9.5T125 51q5 0 8.5-3.5T137 38V26h25v12q1 6 4.5 9.5T175 51q5 0 9-3.5t3-9.5v-9q21 4 29.5 15.5T225 76v12H75V76q0-20 8.5-31.5T113 29zm127 231q-6 8-15 12t-19 4H94q-10 0-18.5-4t-15-11.5q-6.5-7.5-9-16.5t-.5-19l22-112h154l22 111q2 10-.5 19.5T240 260zm-65-28q0 8-5.5 13.5T156 251q-8 0-13.5-5.5t-5-13.5q.5-8 5.5-13.5t13-5.5q8 0 13.5 5.5T175 232zm38-50q0 8-5.5 13.5T194 201q-8 0-13.5-5.5T175 182q0-8 5.5-13.5T194 163q8 0 13.5 5.5T213 182z"/></svg>