<svg viewBox="0 0 300 302.0011" xmlns="http://www.w3.org/2000/svg"><path d="M188 76q-19 0-31.5 13T144 120q0 18 12.5 30.5t31 12.5q18.5 0 31-12.5T231 120q0-18-12.5-31T188 76zm0 62q-8 0-13.5-5t-5.5-13q0-8 5.5-13.5t13-5.5q7.5 0 13 5.5T206 120q0 8-5.5 13t-13.5 5h1zm-26 38h-52l7-41q1-5 1-7-2-7-7-11t-11-3q-4 0-8.5 1.5T83 124l-27 52H38q-16 0-27 11T0 213v50q0 16 11 27t27 11h104q18 0 32-11.5t17-28.5l8-40q3-12-1.5-22t-14-16.5Q174 176 162 176zM25 263v-50q0-5 3.5-8.5T37 201h13v75H38q-6 0-9.5-3.5T25 264v-1zm150-47l-8 40q-2 9-9 14.5t-16 5.5H75v-75h88q5 0 9 4.5t3 10.5zm113-33q-4 6-11 6-3 0-6-2l-12-7q-6 8-14 14-3 2-8.5 2t-9-4.5Q224 187 225 182t5-8q9-7 15-17 11-17 11-36.5t-9-35q-9-15.5-25-25T188 51q-18 0-33.5 8.5T130 83q-3 4-8 5t-10-1L91 73q-4-3-5-8t1.5-9.5Q90 51 95 50t10 2l11 7q11-13 26.5-21.5T175 27V14q0-6 3.5-9.5t9-3.5q5.5 0 9 3.5T200 14v13q17 2 32 10.5T258 59l12-8q4-3 9-1.5t8 5.5q3 4 2 9t-6 8l-11 7q9 20 9 40.5t-8 39.5l11 7q4 3 5.5 8t-1.5 9z"/></svg>