<svg viewBox="0 0 300 302.0011" xmlns="http://www.w3.org/2000/svg"><path d="M288 101h-89q13-18 14-40V51h12q5 0 9-3.5t4-9q0-5.5-4-9t-9-3.5h-19q-7-11-18.5-18T162 1h-24q-14 0-25.5 7T94 26H75q-5 0-8.5 3.5t-3.5 9q0 5.5 3.5 9T75 51h13v12q0 21 12 38H13q-6 0-9.5 3.5t-3.5 9q0 5.5 3.5 9T13 126h12v25q0 16 11 27t27 10v50q-1 16 10 27t27 11h38v12q-1 6 3 9.5t9 3.5q5 0 9-3.5t4-9.5v-12h37q16 0 26.5-11t10.5-27v-50q16 0 27-10.5t11-26.5v-25h13q5 0 8.5-3.5t3.5-9q0-5.5-3.5-9T288 101zM188 51v10q0 15-10 27t-25 13q-16 1-28.5-10T112 64V51h76zm62 100q0 5-3.5 8.5T237 163q-10 0-17.5 7.5T212 188v50q1 6-3 9.5t-9 3.5H100q-5 0-8.5-3.5T88 239v-51q0-10-7.5-17.5T62 163q-5 0-8.5-3.5T50 151v-25h200v25z"/></svg>