<svg viewBox="0 0 300 302.0011" xmlns="http://www.w3.org/2000/svg"><path d="M238 1h-73q-22 0-38 16-10 9-13 23t0 28l9 31q-12 9-21 18l-51 51q-4 5-10.5 5t-11-4.5q-4.5-4.5-4.5-11t4-10.5l30-30q4-4 4-9t-3.5-9q-3.5-4-9-4T42 99l-30 30Q0 141 0 157.5t11.5 28Q23 197 38 198t27-9l15 15-39 39q-4 4-4 9t3.5 9q3.5 4 9 4t8.5-4l40-39 14 15q-8 12-7 27t12 26q11 11 28 11t28-12l30-29q3-4 3-9t-3.5-8.5Q199 239 194 239t-9 3l-29 30q-5 4-11 4t-10.5-4.5q-4.5-4.5-4.5-11t4-10.5l50-51q10-9 18-21l31 9q8 2 15 2 22 0 37-15.5t15-37.5V64q0-17-8.5-31.5t-23-23Q254 1 238 1zm-71 180l-37 38-47-47 37-38q21-21 55-39 29-14 50-19-5 21-20 50-17 34-38 55zm108-45q0 12-8 20-5 5-12.5 6.5T239 162l-22-6q12-19 21-41 8-19 11-34 2-6 0-12t-6.5-10.5Q238 54 232 52t-12 0q-15 3-34 11-22 9-41 21l-6-22q-2-8-.5-15.5T145 34q8-8 20-8h72q16 0 27 11t11 26v73z"/></svg>