<svg viewBox="0 0 300 302.0011" xmlns="http://www.w3.org/2000/svg"><path d="M250 138q0 6-3.5 9.5t-9 3.5q-5.5 0-9-3.5T225 139q0-17-8.5-31.5t-23-23Q179 76 162 76q-5 0-8.5-3.5t-3.5-9q0-5.5 3.5-9T163 51q23 0 43 12t32 32q12 20 12 43zm-75 0q0 6 3.5 9.5t9 3.5q5.5 0 9-3.5t3.5-8.5q0-16-11-27t-26-11q-6 0-9.5 3.5t-3.5 9q0 5.5 3.5 9t9 3.5 9 3.5q3.5 3.5 3.5 9.5v-1zM163 1q-6 0-9.5 3.5t-3.5 9q0 5.5 3.5 9T163 26q30 0 56 15t41 41q15 26 15 56 0 6 3.5 9.5t9 3.5q5.5 0 9-3.5t3.5-8.5q0-38-18.5-69.5t-50-50Q200 1 163 1zm40 229q11 11 9.5 26.5T198 280q-32 21-70 21-25 0-48.5-9.5T38 264q-21-21-30.5-49T1 157.5Q4 128 21 103q8-13 23.5-14.5T71 98l57 57 13-13q4-4 9-4t9 4q4 4 4 9t-4 9l-13 13 57 57zm-18 18L53 116q-2-3-5.5-3t-5.5 4q-13 20-16 43.5t4.5 46Q38 229 55 246t39.5 24.5q22.5 7.5 46 4.5t43.5-16q3-2 3.5-5.5T185 248z"/></svg>