<svg viewBox="0 0 300 302.0011" xmlns="http://www.w3.org/2000/svg"><path d="M1 135q7-51 38-85 28-32 69.5-43t83 0Q233 18 261 50q32 34 38 85 1 7-5 11t-12.5 1q-6.5-3-7.5-10-5-42-31-71-24-26-58.5-35t-69 .5Q81 41 57 67q-26 28-31 70-1 5-5 8.5t-9 3q-5-.5-8.5-4.5T1 135zm233 109q-24 21-54 28t-60 0q-30-7-54-28-5-5-12-3t-8.5 9q-1.5 7 3.5 12 29 26 65 34.5t72 0q36-8.5 65-34.5 3-3 3.5-8t-3-9q-3.5-4-8.5-4.5t-9 3.5zM88 138q0-9 4.5-16.5t7.5-8q3-.5 8 7.5t4 17q1 6 4.5 9.5t8.5 3.5q5 0 9-3.5t4-8.5q0-19-11-34.5t-27-16Q84 88 73.5 104T63 139q0 5 3.5 8.5T75 151q5 0 8.5-3.5T87 139l1-1zm150 0q-2-23-12.5-36T200 89q-15 0-25.5 13T162 139q1 5 4.5 8.5t8.5 3.5q5 0 9-3.5t4-8.5q0-10 4.5-17.5t7.5-8q3-.5 8 7.5t5 17q0 6 3.5 9.5t8.5 3.5q5 0 8.5-3.5t4.5-8.5v-1zm-88 100q23 0 42.5-11.5T223 195q2-3 2-6.5t-2-7q-2-3.5-5.5-5t-7.5-.5q-29 11-60 13-31-2-60-13-4 0-7.5 1t-5.5 4.5q-2 3.5-2 7t2 6.5q11 20 30.5 31.5T150 239v-1zm142-57q-20-16-46-17-4-1-6.5 1.5T238 172q0 15 7 30 8 17 19 22 13 7 28-6 8-8 8-18.5t-8-18.5zM54 163q-15 1-30 8-17 8-22 19-7 13 6 28 15 13 28 6 11-5 19-22 7-15 7-30 1-4-1.5-6.5T54 163z"/></svg>