<svg viewBox="0 0 300 302.0011" xmlns="http://www.w3.org/2000/svg"><path d="M206 213q-13 1-24 8t-16 20q-16-5-32 0-6-15-20.5-22.5t-30-3.5q-15.5 4-25 17t-8 29.5Q52 278 63.5 289t28 12q16.5 1 29-9t16.5-26q6-2 13-2t13 2q4 17 18 27t31 7.5q17-2.5 28-15.5t10-30.5q-1-17.5-13.5-29T206 213zM94 276q-6 0-10.5-3t-7-8.5q-2.5-5.5-1.5-11t5.5-9.5q4.5-4 10-5t10.5 1q5 2 8.5 7t3.5 11.5q0 6.5-5.5 12T94 276zm112 0q-5 0-10-3t-7-8.5q-2-5.5-1-11t5-9.5q4-4 9.5-5t11 1q5.5 2 8.5 7t3 11.5q0 6.5-5.5 12T206 276zm44-167q-2-44-17-72-11-21-28-30-9-5-16-6h-1q-17 1-31 10-3 3-7 3t-7-3q-14-9-30-10h-2q-7 1-16 6-17 9-28 30-15 28-17 72-18 7-31 15-19 13-19 27 0 22 23 33 19 10 56 14 26 3 71 3t71-3q37-4 56-14 23-11 23-33 0-14-19-27-12-8-31-15zM113 26q8 1 15 6 10 7 22 7t22-7q6-5 15-6 11 3 20 16 17 23 18 70-36 16-75 14-39 2-75-14 1-47 18-70 9-13 20-16zm37 150q-70 0-101-8-24-6-24-16 15-15 36-20 42 21 89 19 47 2 89-19 20 5 36 19 0 11-24 17-31 8-101 8z"/></svg>