<svg viewBox="0 0 300 302.0011" xmlns="http://www.w3.org/2000/svg"><path d="M238 101h-38V63q0-16-8.5-30.5t-23-23Q154 1 138 1H63Q46 1 31.5 9.5t-23 23Q0 47 0 63v75q0 17 8.5 31.5t23 23Q46 201 63 201h37v37q0 17 8.5 31.5t23 23Q146 301 163 301h75q16 0 30.5-8.5t23-23Q300 255 300 238v-75q0-16-8.5-30.5t-23-23Q254 101 238 101zm37 137q0 16-11 27t-26 11h-75q-16 0-27-11t-11-27v-50q0-5-3.5-8.5T113 176H63q-16 0-27-11t-11-27V63q0-15 11-26t27-11h75q15 0 26 11t11 26v50q0 6 3.5 9.5t9.5 3.5h50q15 0 26 11t11 26v75zM148 114q3 4 1.5 9t-5.5 8q-9 5-14 14-4 7-11 7-4 0-7.5-2t-5-7q-1.5-5 1.5-10 8-15 23-24 5-2 10-1t7 6zm44 56q-9 14-23 23-3 1-6 1-8 0-11-5t-1.5-10q1.5-5 5.5-8 9-5 14-14 2-4 7-5.5t9.5 1q4.5 2.5 6 7.5t-.5 10z"/></svg>