<svg viewBox="0 0 300 302.0011" xmlns="http://www.w3.org/2000/svg"><path d="M278 197L46 4q-5-3-10-2.5t-8 4q-3 3.5-2.5 9T30 23l198 165H50q-21 0-35.5 15T0 239v12q0 21 14.5 35.5T50 301h200q21 0 35.5-14.5T300 251v-13q0-12-6-23t-16-18zm-3 54q0 10-7.5 17.5T250 276H50q-10 0-17.5-7.5T25 251v-13q0-10 7.5-17.5T50 213h200q10 0 17.5 7.5T275 238v13zm-200-6q0 8-5.5 13T56 263q-8 0-13-5t-5-13q0-8 5-13.5t13-5.5q8 0 13.5 5.5T75 245zm50 0q0 8-5.5 13t-13.5 5q-8 0-13.5-5t-5-13q.5-8 5.5-13.5t13-5.5q8 0 13.5 5.5T125 245z"/></svg>