<svg viewBox="0 0 300.5 302.0011" xmlns="http://www.w3.org/2000/svg"><path d="M300.5 76q0 5-3.5 8.5t-8.5 4.5h-132q-4 5-6 9-1 6 2 10 10 13 10 30.5t-10 30.5q-2 3-2 7t2 7q10 13 10 30.5t-10 30.5q-2 3-2 7t2 7q5 6 8.5 16t1.5 18q-2 8-12 9-7 0-9-3.5t-4-11.5q-2-9-5-13-7-10-7-22t7-22q6-7 6-15.5t-6-15.5q-7-10-7-22t7-22q6-7 6-15.5T133 123q-5.5-7-7-16.5t1.5-18.5h-21q-4 6-5 10-2 6 1 10 11 13 11 30.5t-11 30.5q-2 3-2 7t2 7q11 13 11 30.5t-11 30.5q-2 3-2 7t2 7q5 6 8.5 16t1.5 18q-2 8-12 9-7 0-9-3.5t-4-11.5q-1-9-5-13-7-10-7-22t7-22q6-7 6-15.5t-6-15.5q-7-10-7-22t7-22q6-7 6-15.5T83 123q-5.5-7-7-16.5T77.5 88h-21q-4 6-6 10-1 6 2 10 10 13 10 30.5t-10 30.5q-2 3-2 7t2 7q10 13 10 30.5t-10 30.5q-2 3-2 7t2 7q5 6 8.5 16t1.5 18q-2 8-12 9-7 0-9-3.5t-4-11.5q-2-9-5-13-7-10-7-22t7-22q6-7 6-15.5t-6-15.5q-7-10-7-22t7-22q6-7 6-15.5T33 123q-5.5-7-7-16.5T27.5 88h-14q-6 1-9.5-3T.5 76q0-5 3.5-9t8.5-4h276q5 0 8.5 4t3.5 9zm-287-25l191-17 85-8q5 0 8-4t3-9.5q0-5.5-4-8.5t-10-3l-275 25q-5 0-8.5 4t-3 9q.5 5 4 8.5t8.5 3.5h1z"/></svg>