<svg viewBox="0 0 300 302.0011" xmlns="http://www.w3.org/2000/svg"><path d="M282 67q-16 18-32 29V51q0-5-3.5-9t-9-4q-5.5 0-9 4t-3.5 9v50h-25V52q0-18-13.5-29.5T157 14q-27 4-53 12Q70 4 11 1 4 1 1 6.5T2 17l7 10q9 10 13 16 6 10 8 19Q0 85 0 113.5T30 165L2 245q-3 10-1 20t8 18.5q6 8.5 15 13t20 4.5q15 0 26.5-9T86 269l23-67q24 7 48 11l6 1q13 0 23-9 14-12 14-30v-49h25v50q0 5 3.5 9t9 4q5.5 0 9-4t3.5-9v-46q17 12 32 30 3 3 7.5 3t7.5-3q3-3 3-9V75q0-8-6.5-11T282 67zM62 262q-2 6-7 10t-11 4q-10 0-15.5-7.5T26 253l26-74q14 8 33 15l-23 68zm113-87q0 7-4.5 10.5T161 188q-31-5-60-15-34-12-53-26-23-16-23-33t23-34q19-14 53-26 29-10 60-15l2-1q4 0 8 3.5t4 10.5v123z"/></svg>