<svg viewBox="0 0 300 302.0011" xmlns="http://www.w3.org/2000/svg"><path d="M107 121q-18-8-25-18t-7-27q0-17 7-27t25-18q7-3 7.5-11T107 8Q92 1 75 1 55 1 37.5 11T10 38.5Q0 56 0 76t10 37.5Q20 131 37.5 141T75 151q17 0 32-7 8-4 7.5-12t-7.5-11zM25 76q0-19 13-33.5T69 26Q50 45 50 76t19 50q-18-2-31-16.5T25 76zm256 82l-44-34q-14-11-31-11t-31 11l-43 34q-9 8-14 18t-5 22v53q0 21 14.5 35.5T163 301h87q21 0 35.5-14.5T300 251v-53q0-12-5-22t-14-18zm-6 93q0 10-7.5 17.5T250 276h-87q-11 0-18.5-7.5T137 251v-53q1-12 10-20l44-34q7-6 15.5-6t15.5 6l43 34q10 8 10 20v53zm-50-38v13q0 5-3.5 9t-9.5 3h-12q-5 0-8.5-3.5T188 226v-13q0-5 3.5-8.5t8.5-3.5h13q5 0 8.5 3.5t3.5 8.5zm13-131q0-6 5-7l13-6 5-13q2-5 7.5-5t7.5 5l5 14 14 5q5 2 5 7.5t-5 6.5l-14 6-5 14q-2 4-7.5 4t-7.5-4l-5-14-14-6q-5-2-5-7h1zM81 232q0 7-6 9l-16 6-7 17q-2 6-8.5 6t-8.5-6l-7-17-16-7q-6-2-6-8.5t6-8.5l17-6 6-16q2-6 8.5-6t8.5 6l7 16 16 7q6 2 6 8zm44-188q0-3 2-6t5-4l19-7 8-19q1-3 3.5-5t6-2q3.5 0 6.5 2t4 5l8 19 19 8q3 1 5 3.5t2 6q0 3.5-2 6.5t-5 4l-19 8-8 19q-1 3-4 5t-6.5 2q-3.5 0-6-2t-3.5-5l-8-20-19-8q-3-1-5-4t-2-6z"/></svg>