<svg viewBox="0 0 300 302.0011" xmlns="http://www.w3.org/2000/svg"><path d="M131 213q-10 1-17-7l-48-46q-3-4-3.5-9t3.5-8.5q4-3.5 9-4t9 3.5l47 46 85-83q4-4 9-3.5t8.5 4q3.5 3.5 3.5 8.5t-3 8l-85 84q-7 8-18 7zm169 25v-83q0-39-18-73t-50-55.5Q200 5 160 1q-32-2-62.5 9.5T44 45Q21 68 9.5 98.5T0 162q3 39 25.5 71T84 283q36 18 80 18h74q16 0 30.5-8.5t23-23Q300 255 300 239v-1zM159 26q33 3 59.5 21t42 46.5Q276 122 275 155v83q0 16-11 27t-27 11h-73q-38 0-68.5-15t-49-41.5Q28 193 25 160q-2-26 7-50.5T58.5 66Q76 47 100 36.5T150 26h9z"/></svg>