<svg viewBox="0 0 300 302.0011" xmlns="http://www.w3.org/2000/svg"><path d="M13 301q-6 0-9.5-3.5T0 288V13q0-5 3.5-8.5t9-3.5q5.5 0 9 3.5T25 13v275q0 6-3.5 9.5T13 301zM300 20q0-8-5.5-13.5T281 1q-8 0-13 5.5T263 20q0 8 5 13t13 5q8 0 13.5-5t5.5-13zm-62 0q0-8-5.5-13.5T219 1q-8 0-13.5 5.5T200 20q0 8 5.5 13t13.5 5q8 0 13.5-5t5.5-13zm0 262q0-8-5.5-13.5T219 263q-8 0-13.5 5.5T200 282q0 8 5.5 13.5T219 301q8 0 13.5-5.5T238 282zM100 20q0-8-5.5-13.5T81 1q-8 0-13 5.5T63 20q0 8 5 13t13 5q8 0 13.5-5t5.5-13zm0 262q0-8-5.5-13.5T81 263q-8 0-13 5.5T63 282q0 8 5 13.5t13 5.5q8 0 13.5-5.5T100 282zm200 0q0-8-5.5-13.5T281 263q-8 0-13 5.5t-5 13.5q0 8 5 13.5t13 5.5q8 0 13.5-5.5T300 282zm0-62q0-8-5.5-13.5T281 201q-8 0-13 5.5t-5 13.5q0 8 5 13t13 5q8 0 13.5-5t5.5-13zm0-69q0-8-5.5-13.5T281 132q-8 0-13 5.5t-5 13.5q0 8 5 13.5t13 5.5q8 0 13.5-5.5T300 151zm0-69q0-8-5.5-13.5T281 63q-8 0-13 5.5T263 82q0 8 5 13.5t13 5.5q8 0 13.5-5.5T300 82zM169 20q0-8-5.5-13.5T150 1q-8 0-13.5 5.5T131 20q0 8 5.5 13t13.5 5q8 0 13.5-5t5.5-13zm0 262q0-8-5.5-13.5T150 263q-8 0-13.5 5.5T131 282q0 8 5.5 13.5T150 301q8 0 13.5-5.5T169 282zm0-62q0-8-5.5-13.5T150 201q-8 0-13.5 5.5T131 220q0 8 5.5 13t13.5 5q8 0 13.5-5t5.5-13zm0-69q0-8-5.5-13.5T150 132q-8 0-13.5 5.5T131 151q0 8 5.5 13.5T150 170q8 0 13.5-5.5T169 151zm0-69q0-8-5.5-13.5T150 63q-8 0-13.5 5.5T131 82q0 8 5.5 13.5T150 101q8 0 13.5-5.5T169 82zm-88 88q8 0 13.5-5.5T100 151q0-8-5.5-13.5T81 132q-8 0-13 5.5T63 151q0 8 5 13.5t13 5.5zm138 0q8 0 13.5-5.5T238 151q0-8-5.5-13.5T219 132q-8 0-13.5 5.5T200 151q0 8 5.5 13.5T219 170z"/></svg>