<svg viewBox="0 0 300 302.0011" xmlns="http://www.w3.org/2000/svg"><path d="M138 1H63Q47 1 36 12T25 39H13q-6-1-9.5 3T0 51q0 5 3.5 8.5T13 63h12v25H13q-6 0-9.5 4T0 101q0 5 3.5 8.5T13 114h12v24H13q-6 1-9.5 4.5T0 151q0 5 3.5 9t9.5 4h12v24H13q-6 0-9.5 4T0 201q0 5 3.5 9t9.5 4h12v24H13q-6 0-9.5 4T0 251q0 5 3.5 8.5T13 263h12q0 16 11 27t27 11h75q16 0 30.5-8.5t23-23Q200 255 200 238V63q0-16-8.5-30.5t-23-23Q154 1 137 1h1zm37 237q0 16-11 27t-26 11H63q-6 0-9.5-3.5T50 263V38q0-5 3.5-8.5T62 26h76q15 0 26 11t11 27v174zM150 88q0 6-3.5 9.5T137 101H88q-6 0-9.5-3.5t-3.5-9q0-5.5 3.5-9T87 76h51q5 0 8.5 3.5T150 88zM263 1q-16 0-27 11t-11 27v209q0 10 4 19t11 16l14 14q3 4 8.5 4t8.5-4l14-14q7-7 11-16t4-19V38q0-15-11-26T262 1h1zm12 247q0 10-7 18l-5 5-6-5q-7-8-7-18V38q0-5 3.5-8.5t9-3.5q5.5 0 9 3.5T275 39v209z"/></svg>