<svg viewBox="0 0 300 302.0011" xmlns="http://www.w3.org/2000/svg"><path d="M150 1q-41 0-75.5 20T20 75.5Q0 110 0 151t20 75.5Q40 261 74.5 281t75.5 20q41 0 75.5-20t54.5-54.5q20-34.5 20-75.5t-20-75.5Q260 41 225.5 21T150 1zm98 227q-16-14-25-33l19-7q5-2 7-7t0-9.5q-2-4.5-6.5-7t-9.5-.5l-18 8q-5-21 0-42l18 8q7 2 12.5-2.5T250 124q-1-7-8-10l-19-7q9-19 25-33 18 23 24 50t0 54q-6 27-24 50zM52 74q16 14 25 33l-19 7q-5 2-7 7t0 9.5q2 4.5 6.5 7t9.5.5l18-8q2 11 2 21t-2 21l-18-8q-5-2-9.5.5t-6.5 7q-2 4.5 0 9.5t7 7l19 7q-9 19-25 33-18-23-24-50t0-54q6-27 24-50zm17 172q20-17 31-41l20 8q5 2 10-.5t7-7q2-4.5-.5-9.5t-6.5-7l-21-8q3-15 3-30t-3-30l21-8q4-2 6.5-7t.5-9.5q-2-4.5-7-6.5t-10-1l-20 9Q89 73 69 56q23-20 52-26.5t58 0Q208 36 231 56q-20 17-31 41l-20-8q-7-2-12.5 2.5T163 103q1 7 7 10l21 8q-7 30 0 60l-21 8q-4 2-6 7t-.5 10q1.5 5 6.5 7t10 0l20-8q11 24 31 41-23 20-52 27t-58 0q-29-7-52-27z"/></svg>