<svg viewBox="0 0 300 302.0011" xmlns="http://www.w3.org/2000/svg"><path d="M150 226q-5 0-8.5-3.5T138 214v-88q0-5 3.5-8.5t8.5-4q5-.5 8.5 3.5t3.5 9v87q1 6-3 9.5t-9 3.5zm0 12q-8 1-13.5 6t-5.5 13q0 8 5.5 13.5T150 276q8 0 13.5-5.5T169 257q0-8-5.5-13t-13.5-5v-1zm148-130q-4-13-14.5-20.5T260 80h-55l-17-51q-4-13-14.5-20.5T150 1q-13 0-23.5 7.5T112 29L95 80H40q-13 0-23.5 7.5T2 107.5q-4 12.5 0 25T17 153l44 32-17 54q-4 12 0 24.5T59 284q11 8 24 8 6 0 15-6 4-2 5-7t-1.5-9.5q-2.5-4.5-7.5-6t-9 1.5l-3 1q-5 0-9-3t-5.5-7.5Q66 251 68 246l20-62q1-4-.5-7.5T83 170l-52-38q-4-3-5.5-7.5t0-9.5q1.5-5 5.5-7.5t9-2.5h64q4 0 7.5-2.5T116 96l19-59q2-5 6-8t9-3q5 0 9 3t6 8l19 59q1 4 4.5 6.5t7.5 2.5h64q5 0 9 2.5t5.5 7.5q1.5 5 0 9.5T269 133l-52 37q-3 3-4.5 6.5t-.5 7.5l20 62q2 5 .5 9.5T227 263q-4 3-9 3l-2-1q-4-3-9.5-2t-8 5.5Q196 273 197 278t5 8q8 6 15 6 13 0 24-8t15-20.5q4-12.5 0-24.5l-17-54 44-32q11-8 15-20.5t0-24.5z"/></svg>