<svg viewBox="0 0 300 302.0011" xmlns="http://www.w3.org/2000/svg"><path d="M286 83q-6-3-13-2.5T260 85l-23 23q-2-24-20-40.5T175 51H63q-17 0-31.5 8.5t-23 23Q0 97 0 114v74q0 17 8.5 31.5t23 23Q46 251 63 251h112q25 0 42.5-16.5T237 193l23 23q7 5 15 5 6 0 12-3t9.5-9q3.5-6 3.5-13v-91q0-7-3.5-13T286 83zm-73 105q0 16-11 27t-27 11H63q-16 0-27-11t-11-26v-76q0-15 11-26t27-11h112q16 0 26.5 11t10.5 26v75h1zm25-30v-15l37-37v90l-37-38zm-69-7q0 5-4 8.5t-9 3.5h-25v25q0 6-3.5 9.5T119 201q-5 0-9-3.5t-4-8.5v-26H81q-5 0-8.5-3.5T69 151q0-5 3.5-8.5T81 139h25v-26q0-5 4-8.5t9-3.5q5 0 8.5 3.5t3.5 9.5v24h25q5 0 9 4t4 9z"/></svg>