<svg viewBox="0 0 300 302.0011" xmlns="http://www.w3.org/2000/svg"><path d="M208 255q3 4 3 9t-4 9l-10 9q-9 9-21.5 14t-25.5 5q-28 0-48-19l-49-46q-27-27-36.5-64.5T19 97q1-5 6-7t9.5-.5q4.5 1.5 7 6T43 105q-10 30-2.5 60.5T70 218l50 45q12 13 30 13t30-12l10-10q4-3 9-3t9 4zm88 42q-3 4-8.5 4t-8.5-4L4 22q-4-3-4-8.5t3.5-9Q7 1 12.5 1T21 5l34 34q20-19 44-28.5T150.5 1Q178 1 203 11.5t44.5 30Q267 61 277.5 86t10.5 52q0 27-10 51.5T250 233l46 47q4 3 4 8.5t-4 8.5zM73 56l159 159q15-15 23-35t8-42q0-22-9-42.5T229.5 59q-15.5-16-36-24.5t-43-8.5q-22.5 0-42 8T73 56z"/></svg>