<svg viewBox="0 0 300 302.0011" xmlns="http://www.w3.org/2000/svg"><path d="M150 1q-41 0-75.5 20T20 75.5Q0 110 0 151t20 75.5Q40 261 74.5 281t75.5 20q41 0 75.5-20t54.5-54.5q20-34.5 20-75.5t-20-75.5Q260 41 225.5 21T150 1zm0 200q-34 0-64-8-28-7-44.5-18.5T25 151q0-12 16.5-23.5T86 109q30-8 64-8t64 8q28 7 44.5 18.5T275 151q0 12-16.5 23.5T214 193q-30 8-64 8zm0-175q37 0 68.5 20.5T265 102q-54-28-115-26-61-2-115 26 15-35 46.5-55.5T150 26zm0 250q-37 0-68.5-20.5T35 200q54 28 115 26 61 2 115-26-15 35-46.5 55.5T150 276z"/></svg>