<svg viewBox="0 0 300 302.0011" xmlns="http://www.w3.org/2000/svg"><path d="M116 100q16-13 20-33t-6-38Q119 9 97 3T56 8Q27 25 12 53 0 76 0 101q0 22 2 34 3 14 10 26.5T31 181q12 7 26.5 7t27.5-7q12-6 18.5-17t8.5-23l1 6v141q0 6 3.5 9.5t8.5 3.5q5 0 9-3.5t3-9.5V147q1-26-18-44l-3-3zM96 83q-13 7-15 18-2 8 3.5 18.5t2 22.5q-3.5 12-14 18t-22 2.5Q39 159 33 149q-5-8-6.5-18T25 101.5Q25 82 35 64q11-21 34-34 6-4 14-4 4 0 8 1 11 3 17.5 14t2.5 23.5Q107 77 96 83zM244 8q-19-11-41-5t-33 26q-10 18-6 38t20 33l-3 3q-18 18-18 44v141q0 6 3.5 9.5t8.5 3.5q5 0 9-3.5t3-9.5V147l1-6q2 12 8.5 22.5T214 181q4 2 9 4 10 4 19 4 14 0 26.5-7.5t19.5-20q7-12.5 10-26.5 2-12 2-34 0-25-12-48-15-28-44-45zm23 141q-6 10-17.5 13.5t-22-3q-10.5-6.5-14-18t2-22Q221 109 219 101q-2-11-15-18-11-6-15-18.5t2.5-23.5q6.5-11 18-14t22.5 3q22 13 33 34 10 18 10 37.5t-1.5 29.5q-1.5 10-6.5 18z"/></svg>