<svg viewBox="0 0 300 302.0011" xmlns="http://www.w3.org/2000/svg"><path d="M272 113q-6-2-9-8.5t0-12.5q6-12 4-24.5T255.5 46q-9.5-9-22-11.5T209 38q-6 3-12 0t-9-9q-4-12-14.5-19.5T150 2q-13 0-23.5 7.5T112 29q-2 6-8.5 9T91 38q-12-6-24.5-4t-22 11.5Q35 55 33 67.5T37 92q3 6 0 12.5t-9 8.5q-12 4-19.5 14.5T1 151q0 13 7.5 23.5T28 189q6 2 9 8.5t0 12.5q-6 12-3.5 24.5T45 256q9 9 21.5 11.5T91 264q6-3 12.5 0t8.5 9q4 12 14.5 19.5T150 300q13 0 23.5-7.5T188 273q2-6 8.5-9t12.5 0q12 6 24.5 3.5T255 256q9-9 11.5-21.5T263 210q-3-6 0-12.5t9-8.5q12-4 19.5-14.5T299 151q0-13-7.5-23.5T272 113zm-8 53q-17 6-24 22.5t1 32.5q2 5 1 9.5t-4.5 8q-3.5 3.5-8 4.5t-9.5-1q-16-8-32.5-1T165 265q-2 4-6 7t-9 3q-5 0-9-3t-6-7q-6-17-22.5-24T80 242q-5 2-9.5 1t-8-4.5q-3.5-3.5-4.5-8t1-9.5q8-16 1-32.5T36 166q-4-2-7-6t-3-9q0-5 3-9t7-6q17-6 24-22.5T59 81q-2-5-1-9.5t4.5-8q3.5-3.5 8-4.5t9.5 1q16 8 32.5 1T135 37q2-4 6-7t9-3q5 0 9 3t6 7q6 17 22.5 24t32.5-1q5-2 9.5-1t8 4.5q3.5 3.5 4.5 8t-1 9.5q-8 16-1 32.5t24 22.5q4 2 7 6t3 9q0 5-3 9t-7 6z"/></svg>