<svg viewBox="0 0 300.0095 302.0011" xmlns="http://www.w3.org/2000/svg"><path d="M196.01 122l-28 29 28 29q4 3 4 8.5t-3.5 9q-3.5 3.5-9 3.5t-8.5-4l-29-28-29 28q-3 4-8.5 4t-9-3.5q-3.5-3.5-3.5-9t4-8.5l28-29-28-29q-4-3-4-8.5t3.5-9q3.5-3.5 9-3.5t8.5 4l29 28 29-28q3-4 8.5-4t9 3.5q3.5 3.5 3.5 9t-4 8.5zm104 33v83q0 17-8.5 31.5t-23 23q-14.5 8.5-30.5 8.5h-74q-44 0-80-18t-58.5-50q-22.5-32-25.5-71-2-33 9.5-63.5T44.01 45q23-23 53.5-34.5t62.5-9.5q39 3 71 24.5t50.5 55.5q18.5 34 18.5 74zm-25 0q0-33-15.5-62t-42-47q-26.5-18-58.5-20h-9q-25 0-48 9.5t-41.5 28q-18.5 18.5-28 44t-7.5 52.5q3 33 21.5 59.5t49 41.5q30.5 15 68.5 15h74q15 0 26-11t11-26v-84z"/></svg>