<svg viewBox="0 0 300 302.0011" xmlns="http://www.w3.org/2000/svg"><path d="M150 1q-40 0-74.5 20.5t-55 55Q0 111 0 151.5t20.5 75Q41 261 75.5 281t75 20q40.5 0 75-20t54.5-54.5q20-34.5 20-75t-20-75q-20-34.5-54.5-55T150 1zm0 275q-33 0-62-16.5T42 214q-17-29-17-63t17-62.5Q59 60 88 43t62.5-17Q184 26 213 43t45.5 45.5Q275 117 275 151t-16.5 63Q242 243 213 259.5T150 276zm-3-203h-22q-15 0-26 11t-11 27v81q0 15 11 26t26 11h22q22 0 39.5-10.5t28-28.5q10.5-18 10.5-39t-10.5-39q-10.5-18-28-28.5T147 73zm0 131h-22q-5 0-8.5-3.5T113 192v-81q0-6 3.5-9.5T125 98h22q22 0 37.5 15.5T200 151q0 22-15.5 37.5T147 204z"/></svg>