<svg viewBox="0 0 300 302.0011" xmlns="http://www.w3.org/2000/svg"><path d="M288 111q-12-11-27.5-10T235 113l-41 44q-5-8-14-13.5t-19-5.5H50q-21 0-35.5 15T0 188v63q0 21 14.5 35.5T50 301h62q27 0 51.5-11t41.5-31l85-95q11-12 10-27.5T288 111zm-16 36l-85 96q-15 15-34.5 24t-40.5 9H50q-10 0-17.5-7.5T25 251v-63q0-10 7.5-17.5T50 163h111q6 0 10 4.5t4 10q0 5.5-3.5 9.5t-8.5 5l-65 9q-5 1-8 5t-2.5 9q.5 5 5 8.5t9.5 2.5l64-9q11-2 19.5-9t12.5-17l55-61q4-4 9-4t9 3.5q4 3.5 4 8.5t-3 9zm-166-46q18 0 31-13t13-31q0-18-13-31L115 5q-4-4-9-4t-8 4L75 26Q63 39 63 57t12.5 31Q88 101 106 101zM93 44l13-13 14 13q5 5 5 13t-5 13q-6 6-14 6t-13-5.5Q88 65 87.5 57T93 44z"/></svg>