<svg viewBox="0 0 300 302.0011" xmlns="http://www.w3.org/2000/svg"><path d="M150 1q-41 0-75.5 20T20 75.5Q0 110 0 151t20 75.5Q40 261 74.5 281t75.5 20q41 0 75.5-20t54.5-54.5q20-34.5 20-75.5t-20-75.5Q260 41 225.5 21T150 1zm125 150q0 12-2 24l-24-8q2-16 0-33l24-7q2 12 2 24zm-9-48l-25 8q-7-17-20.5-30.5T190 60l8-25q23 10 40.5 27.5T266 103zM150 226q-20 0-37.5-10T85 188.5Q75 171 75 151t10-37.5Q95 96 112.5 86T150 76q20 0 37.5 10t27.5 27.5q10 17.5 10 37.5t-10 37.5Q205 206 187.5 216T150 226zm24-198l-7 24q-17-2-33 0l-8-24q24-4 48 0zm-72 7l8 25q-17 7-30.5 20.5T59 111l-24-8q9-23 26.5-40.5T102 35zM25 151q0-12 2-24l24 7q-2 17 0 34l-24 7q-2-12-2-24zm10 48l24-8q7 17 20.5 30.5T110 242l-8 25q-23-10-40.5-27.5T35 199zm91 75l8-24q16 3 33 0l7 24q-24 4-48 0zm72-7l-8-25q17-7 30.5-20.5T241 191l25 8q-10 23-27.5 40.5T198 266v1zm-15-130q5 6 5 14t-5 14l-24 31q-3 5-9 5t-9-5l-24-31q-5-6-5-14t5-14l24-31q3-5 9-5t9 5l24 31z"/></svg>