<svg viewBox="0 0 300 302.0011" xmlns="http://www.w3.org/2000/svg"><path d="M138 45q0 18-13 30.5T94 88q-18 0-31-12.5T50 45q0-18 13-31T94 1q18 0 31 13t13 31zm68 43q18 0 31-12.5T250 45q0-18-13-31T206 1q-18 0-30.5 13T163 45q0 18 12.5 30.5T206 88zM94 101q-18 0-31 13t-13 31q0 18 13 30.5T94 188q18 0 31-12.5t13-30.5q0-18-13-31t-31-13zm112 0q-18 0-30.5 13T163 145q0 18 12.5 30.5T206 188q18 0 31-12.5t13-30.5q0-18-13-31t-31-13zm-68 144q0 18-13 30.5T94 288q-18 0-31-12.5T50 245q0-18 13-31t31-13q18 0 31 13t13 31zm-25 0q0-8-5.5-13.5T94 226q-8 0-13.5 5.5T75 245q0 8 5.5 13t13.5 5q8 0 13.5-5t4.5-13h1zm137 0q0 18-13 30.5T206 288q-18 0-30.5-12.5T163 245q0-18 12.5-31t30.5-13q18 0 31 13t13 31zm-25 0q0-8-5.5-13.5T206 226q-8 0-13 5.5t-5 13.5q0 8 5 13.5t13 5q8-.5 13.5-5.5t5.5-13z"/></svg>