<svg viewBox="0 0 300 302.0011" xmlns="http://www.w3.org/2000/svg"><path d="M125 82q0-8 5.5-13.5T144 63q8 0 13.5 5.5T163 82q0 8-5.5 13.5T144 101q-8 0-13.5-5.5T125 82zm31 119q-8 0-13 5.5t-5 13.5q0 8 5 13t13 5q8 0 13.5-5t5.5-13q0-8-5.5-13.5T156 201zm144-50q0 41-20 75.5T225.5 281Q191 301 150 301t-75.5-20Q40 261 20 226.5T0 151q0-41 20-75.5T74.5 21Q109 1 150 1t75.5 20Q260 41 280 75.5t20 75.5zM84 257q-9-17-9-37.5T85 181q10-18 27-29.5t37.5-13q20.5-1.5 35.5-18T200 82q0-22-15.5-38.5T146 26q-33 1-60.5 18t-44 45.5Q25 118 25 151t16 61q16 28 43 45zm191-106q0-33-16-61t-43-45q9 17 9 37.5T215 121q-10 18-27 29.5t-37.5 13q-20.5 1.5-35.5 18T100 220q0 22 15.5 38.5T154 276q33-1 61-18t44-45.5q16-28.5 16-61.5z"/></svg>