<svg viewBox="0 0 300.0031 302.0011" xmlns="http://www.w3.org/2000/svg"><path d="M295.003 86l-17-35q-7-14-22-19l-78-27q-28-9-56 0l-78 27q-15 5-22 19l-16 34q-5 7-6 15.5t2 17.5q7 16 23 22v79q0 20 11.5 36.5t31.5 22.5l54 19q14 4 28 4t28-4l54-19q19-6 31-22.5t12-36.5v-79q17-6 23-22 3-8 2-16.5t-5-15.5zm-165-57q20-6 40 0l53 18-73 24-73-24 53-18zm-102 68l16-35 88 30-20 40q-2 4-6 5.5t-9 .5l-63-21q-6-2-8-8t2-12zm48 158q-12-4-19-14t-7-22v-71l40 14q12 4 24.5-1t19.5-17l3-7v138l-7-2-54-18zm148 0l-54 18-8 2V137l4 8q6 9 14.5 14t17.5 5q7 0 12-2l40-14v71q0 12-7 22t-19 14zm50-146q-2 6-7 8l-64 21q-4 1-8.5-.5t-6.5-4.5l-20-41 88-30 17 36q3 5 1 11z"/></svg>