<svg viewBox="0 0 300 302.0011" xmlns="http://www.w3.org/2000/svg"><path d="M138 182v-44q0-5 3.5-8.5t8.5-3.5q5 0 8.5 3.5t3.5 9.5v43q1 5-3 9t-9 4q-5 0-8.5-4t-3.5-9zm12 31q-8 0-13.5 5.5T131 232q0 8 5.5 13.5T150 251q8 0 13.5-5.5T169 232q0-8-5.5-13.5T150 213zm125-81v106q0 17-8.5 31.5t-23 23Q229 301 212 301H88q-17 0-31.5-8.5t-23-23Q25 255 25 238V63q0-16 8.5-30.5t23-23Q71 1 87 1h57q17 0 33 6.5T206 27l43 43q13 13 19.5 29t6.5 33zm-87-88q-6-6-13-10v54q0 6 3.5 9.5t9.5 3.5h54q-4-7-10-13l-44-44zm62 88v-6h-62q-16 0-27-11t-11-26V26H88q-16 0-27 11T50 64v174q0 16 11 27t27 11h125q15 0 26-11t11-27V132z"/></svg>