<svg viewBox="0 0 300 302.0011" xmlns="http://www.w3.org/2000/svg"><path d="M238 26h-82q-3 0-6-1L111 5q-8-4-17-4H63Q46 1 31.5 9.5t-23 23Q0 47 0 63v150q0 17 8.5 31.5t23 23Q46 276 63 276h62q5 0 9-3.5t4-9q0-5.5-4-9t-9-3.5H63q-16 0-27-11t-11-27V101h250v25q0 5 3.5 8.5t9 3.5q5.5 0 9-3.5t3.5-8.5V88q0-16-8.5-30.5t-23-23Q254 26 238 26zM25 63q0-15 11-26t27-11h31q3 0 6 1l39 20q8 4 17 4h82q12 0 21.5 7T273 76H25V63zm231 100q-18 0-31 14-13-14-31-14t-31 14q-13 14-13 33 0 23 24 52 14 17 34 33 7 6 17 6t18-6q19-16 33-33 24-29 24-52 0-19-13-33t-31-14zm-29 112q-2 2-4 0-19-15-33-32-15-20-15-33 0-9 5.5-15.5t13-6.5q7.5 0 12.5 5.5t7 12.5q0 4 3.5 7t8 3q4.5 0 8-3t4.5-7q1-7 6.5-12.5t13-5.5q7.5 0 13 6.5T275 210q0 13-16 33-13 17-32 32z"/></svg>