<svg viewBox="0 0 300 302.0011" xmlns="http://www.w3.org/2000/svg"><path d="M113 151q20 0 37-10t27.5-27.5Q188 96 188 76t-10.5-37.5Q167 21 150 11T112.5 1Q92 1 75 11T47.5 38.5Q37 56 37.5 76T48 113.5Q58 131 75 141t38 10zm0-125q20 0 35 14.5T163 76q0 21-15 35.5T112.5 126q-20.5 0-35-14.5T63 76q0-21 14.5-35.5T113 26zm12 162q0 6-3.5 9.5T113 201q-24 0-44 12t-32 32q-12 20-12 43 0 6-3.5 9.5t-9 3.5q-5.5 0-9-3.5T0 288q0-30 15-56t41-41q26-15 57-15 5 0 8.5 3.5t3.5 8.5zm138-11v-1q0-10-7.5-17.5T238 151h-25q-11 0-18.5 7.5T187 176v1q-15 2-26 14t-11 29v37q0 18 13 31t31 13h62q18 0 31-13t13-31v-37q0-17-11-29t-27-14h1zm-69 24h62q8 0 13.5 5.5T275 220v6H175v-6q0-8 5.5-13.5T194 201zm62 75h-62q-8 0-13.5-5.5T175 257v-6h38q0 5 3.5 9t8.5 3.5q5-.5 8.5-4t3.5-8.5h38v6q0 8-5.5 13.5T256 276z"/></svg>