<svg viewBox="0 0 300 302.0011" xmlns="http://www.w3.org/2000/svg"><path d="M150 113q26 0 42-18 14-15 14-37.5T192 19Q176 2 150 2t-42 17Q94 35 94 57.5T108 95q16 18 42 19v-1zm0-87q15 0 23 9.5t8 22q0 12.5-8 21.5t-23 9q-15 0-23-9t-8-21.5q0-12.5 8-22t23-9.5zm128 115q-11-9-24.5-12.5T226 127l-47 9q-18 3-29 16-11-13-29-16l-47-9q-14-2-27.5 1.5t-24 12Q12 149 6 162t-6 27v34q0 23 14.5 40.5T51 285l79 14q20 4 40 0l79-14q22-4 36.5-21.5T300 223v-34q0-14-6-27t-16-21zM138 275h-4l-78-15q-14-2-22.5-12.5T25 223v-35q0-17 13-28 7-6 15-8t16 0l48 8q9 2 15 9t5 16v90h1zm137-52q0 14-8.5 24.5T244 260l-81 15v-90q0-9 5.5-16t14.5-9l48-8q17-4 30.5 7.5T275 189v34z"/></svg>