<svg viewBox="0 0 300 302.0011" xmlns="http://www.w3.org/2000/svg"><path d="M213 1H88Q71 1 56.5 9.5t-23 23Q25 47 25 63v175q0 17 8.5 31.5t23 23Q71 301 87 301h126q16 0 30.5-8.5t23-23Q275 255 275 239V63q0-16-8.5-30.5t-23-23Q229 1 213 1zM88 26h125q15 0 26 11t11 27v74H50V63q0-15 11-26t26-11h1zm125 250H88q-16 0-27-11t-11-26v-76h200v75q0 16-11 27t-27 11h1zM138 88h25q5 0 8.5-3.5T175 76q0-5-3.5-9t-8.5-4h-25q-6 1-9.5 4.5T125 76q0 5 3.5 8.5T138 89v-1zm25 125h-25q-6 0-9.5 4t-3.5 9q0 5 3.5 8.5t9.5 3.5h25q5 0 8.5-3.5t3.5-8.5q0-5-3.5-8.5T163 214v-1z"/></svg>