<svg viewBox="0 0 300.0025 302.0011" xmlns="http://www.w3.org/2000/svg"><path d="M256 201h-43v-31q0-18-13-31t-31-13h-38q-18 0-30.5 13T88 170v6H44q-18 0-31 13T0 220v37q0 18 13 31t31 13h212q18 0 31-13t13-31v-12q0-18-13-31t-31-13zm-143-31q0-8 5-13.5t13-5.5h38q8 0 13.5 5.5T187 170v106h-74V170zm-88 87v-37q0-8 5.5-13.5T44 201h44v75H44q-8 0-13.5-5.5T25 257zm250 0q0 8-5.5 13.5T256 276h-43v-50h43q8 0 13.5 5.5T275 245v12zM113 90q4-12 14-19.5t23-7.5q13 0 23 7.5T187 90q1 4-1.5 7.5T178 101h-56q-5 0-7.5-3.5T113 90zm12-64q0-10 7.5-17.5T150 1q10 0 17.5 7.5T175 26q0 10-7.5 17.5T150 51q-10 0-17.5-7.5T125 26zM0 140q4-12 14.5-19.5t23-7q12.5.5 23 7.5T75 140q1 4-2 7.5t-7 3.5H9q-4 0-7-3.5T0 140zm13-64q0-10 7-17.5T37.5 51q10.5 0 18 7.5T63 76q0 10-7.5 17.5t-18 7.5Q27 101 20 93.5T13 76zm212 89q4-12 14.5-19.5t23-7.5q12.5 0 23 7.5T300 165q1 4-2 7.5t-7 3.5h-57q-4 0-7-3.5t-2-7.5zm13-64q0-10 7-17.5t17.5-7.5q10.5 0 18 7.5T288 101q0 10-7.5 17.5t-18 7.5q-10.5 0-17.5-7.5t-7-17.5z"/></svg>