<svg viewBox="0 0 301 302.0011" xmlns="http://www.w3.org/2000/svg"><path d="M150 176q-5 0-8.5-3.5T138 163V88q0-5 3.5-8.5T150 76q5 0 9 3.5t4 8.5v75q0 6-4 9.5t-9 3.5zm0 25q-5 0-8.5 3.5t-3.5 9q0 5.5 3.5 9t8.5 3.5q5 0 9-3.5t3.5-9q-.5-5.5-4-9T150 201zm27 89l27-27h21q15 0 26.5-11t11.5-26v-22l27-27q11-11 11-26.5T290 124l-27-27V76q0-15-11.5-26T225 38h-21l-27-27Q166 1 150 1t-26 10L97 38H75q-15 0-26 11.5T38 76v21l-27 27Q0 136 0 151t11 26l27 27v22q0 15 11 26t26 11h22l27 27q11 11 26.5 11t26.5-11zM102 63q5 0 9-3l30-31q4-3 9-3t9 3l30 31q4 3 9 3h27q5 0 8.5 4t3.5 9v27q0 5 4 9l31 30q3 4 3 9t-3 9l-31 31q-4 3-4 8v27q0 5-3.5 9t-8.5 4h-27q-5 0-9 3l-30 31q-4 4-9 4t-9-4l-31-31q-3-3-8-3H75q-5 0-9-4t-4-9v-27q0-5-3-8l-31-31q-4-4-4-9t4-9l31-30q3-4 3-9V76q0-5 4-9t9-4h27z"/></svg>