<svg viewBox="0 0 300 302.0011" xmlns="http://www.w3.org/2000/svg"><path d="M287 132l-57-23 43-64q3-6 1-11t-7-7q-5-2-11 1l-64 43-23-57q-2-6-7.5-9.5T150 1q-6 0-11.5 3.5T131 14l-23 57-64-43q-6-3-11-1t-7 7q-2 5 1 11l43 64-57 23q-6 2-9.5 7.5T0 151q0 6 3.5 11.5T13 170l57 23-43 64q-3 5-1 10.5t7 7.5q5 2 11-1l64-43 23 57q2 6 7.5 9.5T150 301q6 0 11.5-3.5t7.5-9.5l23-57 64 43q6 3 11 1t7-7.5q2-5.5-1-10.5l-43-64 57-23q6-2 9.5-7.5T300 151q0-6-3.5-11.5T287 132zm-98 51q-5 2-7 7l-32 79-32-79q-2-5-7-7l-79-32 79-32q5-2 7-7l32-79 32 79q2 5 7 7l79 32-79 32z"/></svg>