<svg viewBox="0 0 300 302.0011" xmlns="http://www.w3.org/2000/svg"><path d="M200 61v-4q0-8-5.5-13.5T181 39h-9q3-6 3-13 0-10-7.5-17.5T150 1q-10 0-17.5 7.5T125 26q0 7 3 13h-9q-8-1-13.5 4.5T100 57v4q-34 15-54.5 46T25 176q0 34 17 62.5T87.5 284q28.5 17 62.5 17t62.5-17q28.5-17 45.5-45.5t17-62.5q0-38-20.5-69T200 61zm-50 15q26 0 48 12t35.5 33q13.5 21 16.5 46l-19-19q-10-9-23.5-9.5T184 148l-29 26q-2 2-5.5 2t-5.5-3l-28-25q-9-9-23-9t-24 9l-19 19q3-25 16.5-46T102 88q22-12 48-12zm0 200q-35 0-62-21.5T53 200l34-34q2-2 6-2 3 0 6 2l27 25q10 10 24 10t23-9l29-26q2-2 5.5-2t5.5 2l34 34q-8 33-35 54.5T150 276z"/></svg>