<svg viewBox="0 0 300 302.0011" xmlns="http://www.w3.org/2000/svg"><path d="M300 151q0 5-3.5 9t-9 4q-5.5 0-9-4t-3.5-9q0-34-17-62.5T212.5 43Q184 26 150 26q-5 0-9-3.5t-4-9q0-5.5 4-9t9-3.5q41 0 75.5 20T280 75.5q20 34.5 20 75.5zm-100 12q5 0 9-3.5t4-8.5q0-5-4-9t-9-4h-28q-4-5-9-9V88q0-5-4-8.5t-9-3.5q-5 0-9 3.5t-4 8.5v41q-6 4-9.5 11.5t-2 15q1.5 7.5 7 13t13 7q7.5 1.5 15-2T172 163h28zM23 86q-5 0-9 3.5T10 98q0 5 4 9t9 4q5 0 8.5-4t3.5-9q0-5-3.5-8.5T23 86zm2 65q0-5-3.5-9t-9-3.5q-5.5.5-9 4T0 151q0 5 3.5 9t9 3.5q5.5-.5 9-4T25 151zm125 125q-5 0-8.5 3.5t-3.5 9q0 5.5 3.5 9t8.5 3.5q5 0 9-3.5t4-9q0-5.5-4-9t-9-3.5zM53 41q-5 0-9 3.5t-4 9q0 5.5 4 9t9 3.5q5 0 8.5-3.5t3.5-9q0-5.5-3.5-9T53 41zm44-29q-5 0-8.5 3.5T85 24q0 5 3.5 9t8.5 4q5 0 9-4t4-9q0-5-4-8.5T97 12zM23 191q-5 0-9 4t-4 9q0 5 4 8.5t9 3.5q5 0 8.5-3.5T35 204q0-5-3.5-9t-8.5-4zm30 45q-5 0-9 3.5t-4 9q0 5.5 4 9t9 3.5q5 0 8.5-3.5t3.5-9q0-5.5-3.5-9T53 236zm44 29q-4 0-7 2.5t-4.5 6q-1.5 3.5-.5 7t3.5 6.5q2.5 3 6.5 3.5t7.5-1q3.5-1.5 5.5-4.5t2-7.5q0-4.5-4-8.5t-9-4zm180-74q-5 0-8.5 4t-3.5 9q0 5 3.5 8.5t8.5 3.5q5 0 9-3.5t4-8.5q0-5-4-9t-9-4zm-30 45q-4 0-7 2t-4.5 5.5q-1.5 3.5-.5 7.5t3.5 6.5q2.5 2.5 6.5 3t7.5-.5q3.5-1 5.5-4.5t2-8q0-4.5-4-8t-9-3.5zm-44 29q-4 0-7 2.5t-4.5 6q-1.5 3.5-1 7t3.5 6.5q3 3 6.5 3.5t7-1q3.5-1.5 5.5-4.5t2-7.5q0-4.5-3.5-8.5t-8.5-4z"/></svg>