<svg viewBox="0 0 300 302.0011" xmlns="http://www.w3.org/2000/svg"><path d="M238 26h-13V13q0-5-3.5-8.5t-9-3.5q-5.5 0-9 3.5T200 13v13H100V13q0-5-3.5-8.5t-9-3.5q-5.5 0-9 3.5T75 13v13H63q-17 0-31.5 8.5t-23 23Q0 72 0 89v149q0 17 8.5 31.5t23 23Q46 301 63 301h175q16 0 30.5-8.5t23-23Q300 255 300 238V88q0-16-8.5-30.5t-23-23Q254 26 237 26h1zM63 51h175q15 0 26 11t11 26v13H25V88q0-15 11-26t27-11zm-38 75h250v7l-75 76q-5 5-12.5 5t-12.5-5l-8-8q-12-12-29.5-12T108 201l-68 67q-7-5-11-13t-4-17V126zm213 150H68l57-58q5-5 12.5-5t12.5 5l8 8q12 12 29.5 12t29.5-12l58-57v70q0 15-11 26t-27 11h1zM50 170q0-8 5.5-13.5T69 151q8 0 13.5 5.5T88 170q0 8-5.5 13.5T69 189q-8 0-13.5-5.5T50 170z"/></svg>