<svg viewBox="0 0 300 302.0011" xmlns="http://www.w3.org/2000/svg"><path d="M63 82q0-8 5-13.5T81 63q8 0 13.5 5.5T100 82q0 8-5.5 13.5T81 101q-8 0-13-5.5T63 82zm237-6v100q0 17-8.5 31.5t-23 22.5q-14.5 8-30.5 8h-75v25h50q5 0 8.5 4t3.5 9q0 5-3.5 8.5T213 288H88q-6 0-9.5-3.5T75 276q0-5 3.5-9t9.5-4h50v-25H63q-17 0-31.5-8t-23-22.5Q0 193 0 176V76q0-17 8.5-31.5t23-23Q46 13 63 13h175q16 0 30.5 8.5t23 23Q300 59 300 76zM25 176q0 13 9 24l74-74q12-13 29.5-13t29.5 13l8 8q5 5 12.5 5t12.5-5l72-73q-5-10-14-16.5T237 38H63q-16 0-27 11.5T25 76v100zm250 0V94l-58 57q-12 13-29.5 13T158 151l-8-8q-5-5-12.5-5t-12.5 5l-69 70h182q15 0 26-11t11-26z"/></svg>