<svg viewBox="0 0 300 302.0011" xmlns="http://www.w3.org/2000/svg"><path d="M275 301h-37q-6 0-9.5-3.5t-3.5-9q0-5.5 3.5-9t8.5-3.5h38l-75-125-75 125h38q5 0 8.5 3.5t3.5 9q0 5.5-3.5 9T163 301h-38q-7 0-12.5-3.5t-9-9Q100 283 100 276t3-13l75-125q4-6 9.5-9t12.5-3q7 0 12.5 3t9.5 9l74 125q4 6 4 13t-3.5 12.5q-3.5 5.5-9 9T275 301zm-62-50v-38q0-5-4-8.5t-9-3.5q-5 0-9 3.5t-4 8.5v38q0 5 4 8.5t9 3.5q5 0 9-3.5t4-8.5zM75 288q0-5-3.5-8.5T63 276q-16 0-27-11t-11-27V63q0-15 11-26t27-11h175q15 0 26 11t11 27v112q0 5 3.5 8.5t9 3.5q5.5 0 9-3.5t3.5-8.5V63q0-16-8.5-30.5t-23-23Q254 1 237 1H63Q46 1 31.5 9.5t-23 23Q0 47 0 64v174q0 17 8.5 31.5t23 23Q46 301 63 301q5 0 8.5-3.5T75 288zM63 51q-6 0-9.5 3.5t-3.5 9q0 5.5 3.5 9t9 3.5q5.5 0 9-3.5t3.5-9q0-5.5-3.5-9T63 51zm50 0q-6 0-9.5 3.5t-3.5 9q0 5.5 3.5 9t9 3.5q5.5 0 9-3.5t3.5-9q0-5.5-3.5-9T113 51zm87 225q-5 0-8.5 3.5t-3.5 9q0 5.5 3.5 9t8.5 3.5q5 0 9-3.5t4-9q0-5.5-4-9t-9-3.5z"/></svg>