<svg viewBox="0 0 300 302.0011" xmlns="http://www.w3.org/2000/svg"><path d="M249 70l-43-43q-13-13-29-19.5T144 1H88Q71 1 56.5 9.5t-23 23Q25 47 25 64v174q0 17 8.5 31.5t23 23Q71 301 87 301h126q16 0 30.5-8.5t23-23Q275 255 275 238V132q0-17-6.5-33T249 70zm-17 18q6 6 10 13h-55q-5 0-8.5-3.5T175 89V34q7 4 13 10l44 44zm18 151q0 15-11 26t-26 11H88q-16 0-27-11t-11-26V63q0-15 11-26t27-11h62v62q0 16 11 27t26 11h63v113zm-54-37q4 4 4 9t-4 9l-20 20q-11 11-26 11t-26-11l-20-20q-4-4-4-9t3.5-8.5q3.5-3.5 9-3.5t8.5 3l17 16v-54q0-6 3.5-9.5t8.5-3.5q5 0 9 3.5t4 9.5v54l16-16q3-3 8.5-3t8.5 3z"/></svg>