<svg viewBox="0 0 300 302.0011" xmlns="http://www.w3.org/2000/svg"><path d="M186 146q4 15-2.5 29.5T162 197q-2 1-4 4t-2 6v6q0 6-3.5 9.5T144 226q-5 0-9-3.5t-4-9.5v-6q0-11 6.5-20t14.5-13q5-2 8.5-8t1.5-14q-1-5-4.5-8.5T149 139q-9-2-16.5 3.5T125 157q0 5-3.5 9t-9 4q-5.5 0-9-4t-3.5-9q0-10 4.5-19t12.5-15.5q8-6.5 18-8.5t20.5 1q10.5 3 19 11.5T186 146zm-42 92q-8 1-13.5 6t-5.5 13q0 8 5.5 13.5T144 276q8 0 13.5-5.5T163 257q0-8-5.5-13t-13.5-5v-1zm156-57v0zm-75-90q-7-2-10-7-14-31-44.5-46.5T106 28q-30 6-52 28.5T26 109q-3 19 1 36 1 7-4 12-11 10-17 23t-6 27q0 19 9.5 34.5t25 25Q50 276 69 276h19q5 0 8.5-3.5t3.5-9q0-5.5-3.5-9T88 251H69q-18 0-31-13t-13-31.5Q25 188 39 175q8-6 11-15.5t1-18.5q-2-14 0-28 4-22 20.5-39T111 53q26-5 48.5 6.5T193 94q4 8 11 13.5t16 7.5q24 5 39.5 24t15.5 43q0 18-8.5 33.5t-22.5 25q-14 9.5-31 10.5h-13q-5 0-8.5 3.5t-3.5 9q0 5.5 3.5 9t8.5 3.5h13q24-2 44-15.5t31.5-34.5q11.5-21 11.5-45 0-33-21.5-58.5T225 91z"/></svg>