<svg viewBox="0 0 300 302.0011" xmlns="http://www.w3.org/2000/svg"><path d="M263 13h-50q-16 0-27 11.5T175 51v50q0 15 11 26t27 11h50q15 0 26-11t11-26V51q0-15-11-26.5T263 13zm12 88q0 5-3.5 8.5T263 113h-50q-6 0-9.5-3.5T200 101V51q0-5 3.5-9t9.5-4h50q5 0 8.5 4t3.5 9v50zm-12 87h-25q-16 0-27 11.5T200 226v25q0 15 11 26t27 11h25q15 0 26-11t11-26v-25q0-15-11-26.5T263 188zm12 63q0 5-3.5 8.5T263 263h-25q-6 0-9.5-3.5T225 251v-25q0-5 3.5-9t9.5-4h25q5 0 8.5 4t3.5 9v25zm-128-21q3 4 3 9t-4 8l-45 43q-10 11-25.5 11T49 290L4 247q-4-3-4-8t3.5-9q3.5-4 8.5-4t9 3l42 40V13q0-5 3.5-8.5T75 1q5 0 9 3.5t4 8.5v256l41-40q4-3 9-3t9 4z"/></svg>