<svg viewBox="0 0 300 302.0011" xmlns="http://www.w3.org/2000/svg"><path d="M225 88v82q0 13-9 22t-22 9q-13 0-22.5-9t-9.5-22q0-13 9.5-22.5T194 138q3 0 6 1V88q0-5-3.5-8.5T187 76h-37q-5 0-9 3.5t-3 9.5l-1 81q0 13-9 22t-22 9q-13 0-22-9t-9-22q0-13 9-22.5t22-9.5q3 0 6 1V88q1-15 11.5-26T150 51h38q15 0 26 11t11 26zm75-37v150q0 21-14.5 35.5T250 251h-36l-48 40q-7 6-16 6t-17-7l-46-39H50q-21 0-35.5-14.5T0 201V51q0-21 14.5-35.5T50 1h200q21 0 35.5 14.5T300 51zm-25 0q0-10-7.5-17.5T250 26H50q-10 0-17.5 7.5T25 51v150q0 10 7.5 17.5T50 226h41q5 0 8 3l51 43 52-43q3-3 8-3h40q10 0 17.5-7.5T275 201V51z"/></svg>