<svg viewBox="0 0 300 302.0011" xmlns="http://www.w3.org/2000/svg"><path d="M150 1q-41 0-75.5 20T20 75.5Q0 110 0 151t20 75.5Q40 261 74.5 281t75.5 20q41 0 75.5-20t54.5-54.5q20-34.5 20-75.5t-20-75.5Q260 41 225.5 21T150 1zm0 275q-34 0-62.5-17T42 213.5Q25 185 25 151t17-62.5Q59 60 87.5 43T150 26q34 0 62.5 17T258 88.5q17 28.5 17 62.5t-17 62.5Q241 242 212.5 259T150 276zm44-169q4 3 9 3t8.5-3.5Q215 103 215 98t-3-9q-17-17-39.5-22.5t-45 0Q105 72 88 89t-22.5 39.5q-5.5 22.5 0 45T88 213q17 17 39.5 22.5t45 0Q195 230 212 213q3-4 3-9t-3.5-8.5Q208 192 203 192t-9 3q-12 12-28 16.5t-32 0q-16-4.5-28-16.5t-16.5-28q-4.5-16 0-32t16.5-28q12-12 28-16.5t32 0q16 4.5 28 16.5z"/></svg>