<svg viewBox="0 0 300 302.0011" xmlns="http://www.w3.org/2000/svg"><path d="M150 76q-21 0-35.5 14.5T100 126q0 21 14.5 35.5T150 176q21 0 35.5-14.5T200 126q0-21-14.5-35.5T150 76zm0 75q-10 0-17.5-7.5T125 126q0-10 7.5-17.5T150 101q10 0 17.5 7.5T175 126q0 10-7.5 17.5T150 151zm0 150q-16 0-30.5-7T96 273q-72-99-72-146 0-34 17-63t46-46q29-17 63-17t63 17q29 17 46 46t17 63q0 47-72 146-9 14-23.5 21t-30.5 7zm0-273q-27 0-49.5 13.5T65 77.5Q52 100 52 127q0 19 17 52.5t49 78.5q6 7 14.5 11.5T150 274q9 0 17.5-4.5T182 258q32-45 49-78.5t17-52.5q0-27-13-49.5t-35.5-36Q177 28 150 28z"/></svg>