<svg viewBox="0 0 300 302.0011" xmlns="http://www.w3.org/2000/svg"><path d="M250 76h25q10 0 17.5-7.5T300 51V26q0-10-7.5-17.5T275 1h-25q-10 0-17.5 7.5T225 26H75q0-10-7.5-17.5T50 1H25Q15 1 7.5 8.5T0 26v25q0 10 7.5 17.5T25 76v150q-10 0-17.5 7.5T0 251v25q0 10 7.5 17.5T25 301h25q10 0 17.5-7.5T75 276h150q0 10 7.5 17.5T250 301h25q10 0 17.5-7.5T300 276v-25q0-10-7.5-17.5T275 226h-25q-3 0-6 1l-46-54q2-4 2-9v-26q0-5-2-9l46-54q3 1 6 1zm0-50h25v25h-25V26zm0 225h25v25h-25v-25zM25 26h25v25H25V26zm0 250v-25h25v25H25zm50-25q0-10-7.5-17.5T50 226V76q10 0 17.5-7.5T75 51h150q0 3 1 7l-48 56-28-1q-10 1-17.5 8t-7.5 17v25q0 11 7.5 18.5T150 189l28-1 48 56q-1 4-1 7H75zm75-88v-25h25v25h-25z"/></svg>