<svg viewBox="0 0 300 302.0011" xmlns="http://www.w3.org/2000/svg"><path d="M225 30q-18-16-41-23.5T136.5 2q-24.5 3-46 16.5T55.5 53Q42 74 38 99q-3 27 6 52.5T73 196q13 12 20 26.5t7 30.5v2q0 19 13.5 32.5T146 301h8q19 0 32.5-13.5T200 255v-7q0-14 6-27t18-23q18-16 28-38t10-46q0-24-9.5-46T225 30zm-71 246h-8q-9 0-15-6t-6-15v-4h50v4q0 9-6 15t-15 6zm54-97q-23 20-30 47h-57q-8-27-31-49-15-14-22-34t-5-41q4-29 25.5-50.5T140 27l10-1q33 0 58 22 14 13 21.5 30t8 35.5q.5 18.5-7.5 36T208 179zm-8-28q0 16-11 26.5T163 188v13q0 5-4 8.5t-9 3.5q-5 0-9-3.5t-4-8.5v-13h-3q-10 0-18.5-5T102 170q-3-5-1.5-10t6-7.5q4.5-2.5 9.5-1t8 6.5q3 5 10 5h28q6 0 9.5-3.5t3.5-8q0-4.5-2.5-7T167 141l-38-6q-13-2-21-11.5t-8-22.5q0-16 11-27t26-11V51q0-5 4-9t9-4q5 0 8.5 4t3.5 9v12h4q10 0 18.5 5.5T198 82q3 5 1.5 10t-6 7.5q-4.5 2.5-9.5 1t-8-6.5q-3-5-10-5h-28q-6 0-9.5 3.5t-3.5 8q0 4.5 2.5 7t5.5 3.5l38 6q13 2 21 11.5t8 22.5z"/></svg>