<svg viewBox="0 0 300 302.0011" xmlns="http://www.w3.org/2000/svg"><path d="M278 64q-9-14-23-22.5T224 33H75q-17 0-31 8.5T21 64Q0 102 0 145q0 34 8.5 62.5t22.5 45Q45 269 62 269q28 0 45-53 1-4 4.5-6.5t8.5-2.5h60q4 0 7.5 2.5t5.5 6.5q17 53 45 53 17 0 31-16.5t22.5-45Q300 179 300 145q-2-44-22-81zm-41 180q-4 0-10-9t-12-27q-3-12-13-19t-23-7h-59q-13 0-23 7.5T83 208q-6 18-11.5 27t-9.5 9q-6 0-15-12.5T32 198q-7-25-7-53 0-36 17-69 6-8 14.5-13T75 58h149q9 0 18 5t14 13q18 33 18 69 0 28-7 53-6 21-15 33.5T237 244zM113 113h-13v-12q0-6-3.5-9t-9-3q-5.5 0-9 3t-3.5 9v12H63q-6 0-9.5 3.5T50 126q0 6 3.5 9t9.5 3h12v13q0 6 3.5 9t9 3q5.5 0 9-3t3.5-9v-12h13q5 0 8.5-3.5t3.5-9.5q0-6-3.5-9t-9.5-3l1-1zm100-6q0 8 5 13.5t13 5.5q8 0 13.5-5.5T250 107q0-8-5.5-13.5T231 88q-8 0-13 5.5t-5 13.5zm-38 38q0 8 5.5 13t13.5 5q8 0 13.5-5t5.5-13q0-8-5.5-13.5T194 126q-8 0-13.5 5.5T175 145z"/></svg>