<svg viewBox="0 0 300 302.0011" xmlns="http://www.w3.org/2000/svg"><path d="M150 88q-17 0-31.5 8.5t-22.5 23Q88 134 88 151t8 31.5q8 14.5 22.5 22.5t31.5 8q17 0 31.5-8t22.5-22.5q8-14.5 8.5-31.5t-8-31.5Q196 105 181.5 97T150 89v-1zm0 100q-16 0-26.5-10.5T113 151q0-16 10.5-26.5t26.5-11q16-.5 26.5 10.5t11 27q.5 16-10.5 26.5T150 188zm138-50h-14q-3-29-18-53.5T216.5 45Q192 30 162 27V13q1-5-3-8.5T150 1q-5 0-8.5 3.5T138 13v14q-30 3-54.5 18T44 84.5Q29 109 26 139H13q-6 0-9.5 3.5T0 151q0 5 3.5 9t9.5 4h13q3 29 18 53.5T83.5 257q24.5 15 53.5 18v13q1 6 4.5 9.5t8.5 3.5q5 0 9-3.5t3-9.5v-13q30-3 54.5-18t39.5-39.5q15-24.5 18-53.5h14q5-1 8.5-4.5t3.5-8.5q0-5-3.5-9t-9.5-4h1zM150 251q-27 0-50-13.5T63.5 201Q50 178 50 151t13.5-50Q77 78 100 64.5T150 51q27 0 50 13.5t36.5 36.5q13.5 23 13.5 50t-13.5 50Q223 224 200 237.5T150 251z"/></svg>