<svg viewBox="0 0 300 302.0011" xmlns="http://www.w3.org/2000/svg"><path d="M294 185q-4-5-9.5-7t-11.5-2q-33 3-62 19t-48 43v-63q27-5 44.5-26t17.5-48q0-24-15-48-11-18-33-41-11-11-27-11t-27 11q-22 23-33 41-15 24-15 48 0 27 17.5 48t45.5 26v63q-20-27-49-43t-62-19q-6 0-11.5 2T6 185q-4 5-5.5 11t.5 11q11 41 49 65 27 18 65 25 20 4 35 4t35-4q38-7 65-25 38-24 49-65 2-5 .5-11t-5.5-11zm-194-84q0-15 11-33 7-14 20-27 7-9 11-12l-1 1q-10 28-14 47-7 36 11 36 5 0 8.5-3.5t3.5-8.5q1-34 16-64 15 17 24 30 10 18 10 34 0 21-14.5 35.5T150 151q-21 0-35.5-14.5T100 101zM25 201q34 3 62.5 22.5T131 274q-34-4-59-18-37-20-47-55zm144 73q15-31 43.5-50.5T275 201q-10 35-47 55-25 14-59 18z"/></svg>