<svg viewBox="0 0 300 302.0011" xmlns="http://www.w3.org/2000/svg"><path d="M138 163q2 11 11 18t21 7q12 0 21-9t9-21q0-12-7-20.5T175 127V63q11-2 18-11t7-21q0-12-9-21t-21-9q-12 0-21 7t-11 18H62Q60 15 51 8T30 1Q18 1 9 10T0 31q0 12 7 21t18 11v64q-11 2-18 10.5T0 158q0 12 9 21t21 9q12 0 21-7t11-18h76zm-88-31V57q4-2 6-6h88q2 4 6 6v75q-4 3-6 6H56q-2-3-6-6zm250 138q0 13-9 22t-21 9q-12 0-21-7t-11-18h-75q-3 11-11.5 18t-20.5 7q-12 0-21-9t-9-21q0-12 7-21t18-11v-26q0-5 3.5-8.5t8.5-3.5q5 0 9 3.5t4 9.5v31q3 2 6 6h87q2-4 6-6v-62q-6-4-9-11t-3-14q0-13 9-22t22-9q13 0 22 9t9 21q0 12-7 20.5T275 189v50q11 2 18 11t7 20z"/></svg>