<svg viewBox="0 0 300.006 302.0011" xmlns="http://www.w3.org/2000/svg"><path d="M119.006 95q0-13 9-22.5t22-9.5q13 0 22 9.5t9 22.5q0 13-9 22t-22 9q-13 0-22-9t-9-22zm81 81v37q0 17-12 28v47q0 6-4 9.5t-9 3.5q-5 0-9-3.5t-4-9.5v-37h-24v37q0 6-4 9.5t-9 3.5q-5 0-8.5-3.5t-3.5-9.5v-47q-13-11-13-28v-37q0-16 11-26.5t26-11.5h26q15 0 26 11t11 27zm-37 50q5 0 8.5-3.5t3.5-8.5v-38q0-5-3.5-8.5t-9.5-3.5h-24q-6-1-9.5 3t-3.5 9v37q0 6 3.5 9.5t9.5 3.5h25zm75-163q12 0 21.5-9t9.5-22q0-13-9.5-22t-22-9q-12.5 0-22 9t-9.5 22q0 13 9.5 22.5t22.5 9.5v-1zm62 146l-11-88q-3-19-17.5-32t-33.5-13q-19 0-33 12-4 3-4.5 8.5t2.5 9q3 3.5 8 4t9-2.5q8-6 18-6t17.5 6.5q7.5 6.5 8.5 16.5l11 88q1 6-3 10t-10 4h-37q-5 0-9 3.5t-4 9q0 5.5 4 9t9 3.5h25v38q0 5 3.5 8.5t9 3.5q5.5 0 9-3.5t3.5-8.5v-40q9-4 16-11 11-12 9-29zm-237-146q12 0 21.5-9t9.5-22q0-13-9.5-22t-22-9q-12.5 0-22 9t-9.5 22q0 13 9.5 22.5t21.5 9.5l1-1zm0 13q-20 0-34.5 13t-17.5 32l-11 88q-2 17 9 29 7 7 16 11v39q0 6 3.5 9.5t9 3.5q5.5 0 9-3.5t3.5-9.5v-37h25q5 0 9-3.5t3.5-9q-.5-5.5-4-9t-8.5-3.5h-37q-6 0-10-4t-3-10l11-88q1-10 8.5-16.5t17.5-6.5q10 0 17 6 4 3 9.5 2.5t8.5-4q3-3.5 2.5-9t-4.5-8.5q-14-12-33-12h1z"/></svg>