<svg viewBox="0 0 300 302.0011" xmlns="http://www.w3.org/2000/svg"><path d="M190 179l-22 22 22 22q5 5 3.5 12.5t-9 9Q177 246 172 241l-22-22-22 22q-4 4-9 4t-9-4q-4-4-4-9t4-9l22-22-22-22q-4-4-4-9t4-9q4-4 9-4t9 4l22 22 22-22q4-4 9-4t9 4q4 4 4 9t-4 9zm85-47v106q0 17-8.5 31.5t-23 23Q229 301 213 301H88q-17 0-31.5-8.5t-23-23Q25 255 25 238V63q0-16 8.5-30.5t23-23Q71 1 87 1h57q17 0 33.5 6.5T206 27l43 43q13 12 19.5 28.5T275 132zm-87-88q-6-5-13-9v53q0 6 3.5 9.5t8.5 3.5h54q-4-7-9-13l-44-44zm62 88v-4l-1-2h-61q-16 0-27-11t-11-27V27l-6-1H88q-16 0-27 11T50 64v174q0 16 11 27t27 11h125q15 0 26-11t11-27V132z"/></svg>