<svg viewBox="0 0 300 302.0011" xmlns="http://www.w3.org/2000/svg"><path d="M278 10q-12-9-28-9t-29 9q-13 9-18.5 24.5T202 66q2 5 .5 10.5T197 86l-24 24-8-8q-13-13-32.5-13T99 102q-7 7-10.5 16.5T86 137q-10 0-19 3.5T51 150q-14 14-13.5 33.5T51 216l8 8-55 56q-4 3-4 8.5t3.5 9q3.5 3.5 9 3.5t8.5-4l56-55 8 8q13 13 32.5 13t33.5-13.5q14-13.5 13-34.5h2q19 0 33-13.5t14-33q0-19.5-14-32.5l-8-8 24-24q9-9 12-21.5T226 59q-2-8 .5-16t9-12.5Q242 26 250 26t14 4q11 8 11 21 0 7-9 16-4 4-4 9t4 9q4 4 9 4t9-4q16-16 16-34 0-12-5.5-23T278 10zM133 232q-6 6-15 6t-16-6l-33-33q-7-7-7-16t6.5-15q6.5-6 15.5-6t15 6l34 34q6 6 6 15t-6 15zm48-48q-6 6-15 6t-15-6l-34-34q-6-6-6-15t6-15q6-6 15-6t16 6l33 33q7 7 7 16t-7 15z"/></svg>