<svg viewBox="0 0 300 302.0011" xmlns="http://www.w3.org/2000/svg"><path d="M300 13q0-5-3.5-8.5t-9-3.5q-5.5 0-9 3.5T275 13v46q0 26-5 51-56-44-96-65-56-30-74-11-8 8-11 20-2 7-2 19.5t-1 14Q85 89 74 89l-1-1q-13 0-20 2-12 3-20 11-19 18 11 74 21 40 65 96-25 5-52 5H12q-5 0-8.5 3.5t-3.5 9q0 5.5 3.5 9T13 301h45q106 0 174-68t68-174V13zm-86 202q-34 34-78 49l-17-22q44-13 77-45 21-21 34-47 2-5 .5-10t-6-7q-4.5-2-9.5-.5t-7 6.5q-12 22-30 40-31 31-75 42-26-38-41-67t-12-36q4-3 9-4t15-.5 15-.5q10-2 15.5-7.5T111 91q1-6 1-17 0-9 1-13 1-6 4-10 6-3 28.5 7.5t54 31.5q31.5 21 63.5 47-15 44-49 78z"/></svg>