<svg viewBox="0 0 300 302.0011" xmlns="http://www.w3.org/2000/svg"><path d="M263 151h-38q-10 0-17.5 7.5T200 176t-7.5 17.5Q185 201 175 201h-50q-10 0-17.5-7.5T100 176t-7.5-17.5Q85 151 75 151H38q-16 0-27 11T0 188v50q0 17 8.5 31.5t23 23Q46 301 62 301h176q16 0 30.5-8.5t23-23Q300 255 300 239v-51q0-15-11-26t-27-11h1zm12 87q0 16-11 27t-27 11H63q-16 0-27-11t-11-26v-51q0-5 3.5-8.5T37 176h38q0 21 14.5 35.5T125 226h50q21 0 35.5-14.5T225 176h38q5 0 8.5 3.5t3.5 9.5v49zM38 126h225q5 0 8.5-3.5t3.5-9q0-5.5-3.5-9T263 101H38q-6 0-9.5 3.5t-3.5 9q0 5.5 3.5 9T38 126zm0-50h225q5 0 8.5-3.5t3.5-9q0-5.5-3.5-9T263 51H38q-6 0-9.5 3.5t-3.5 9q0 5.5 3.5 9T38 76z"/></svg>