<svg viewBox="0 0 300.0096 302.0011" xmlns="http://www.w3.org/2000/svg"><path d="M263.002 226h-225q-16 0-27 11t-11 26.5q0 15.5 11 26.5t26 11h226q15 0 26-11t11-26.5q0-15.5-11-26.5t-27-11h1zm0 50h-225q-6 0-9.5-3.5t-3.5-9q0-5.5 3.5-9t9.5-3.5h225q5 0 8.5 3.5t3.5 9q0 5.5-3.5 9t-8.5 3.5zm22-208l-39-45q-13-16-33.5-20.5t-38.5 3.5l-136 60q-18 7-28 22.5t-10 34.5q-1 16 10 28t27 13h226q15-1 26-11.5t11-26.5q2-15-2-30t-13-28zm-101-39q11-5 23-2t20 12l10 11q32 38 32 39h-221l136-60zm91 97q0 5-3.5 9t-8.5 4h-225q-9-1-11.5-9t-.5-17h249v13zm25 75q0 8-7 11t-13-1l-3-2q-7-6-10-7-7-3-11 1-14 10-31 10t-31-10q-3-2-6.5-2t-6.5 2q-14 10-31 10t-31-10q-3-2-6.5-2t-6.5 2q-14 10-31 10t-31-10q-4-4-11-1-4 2-10 7l-3 2q-4 3-9 2t-8-5q-3-4-2.5-9t4.5-8l10-8q10-7 22.5-7t22.5 7q7 5 15 5t15-5q10-7 22.5-7t22.5 7q7 5 15 5t15-5q10-7 22.5-7t22.5 7q7 5 15 5t15-5q10-7 22.5-7t22.5 7l10 8q5 4 5 10z"/></svg>