<svg viewBox="0 0 300 302.0011" xmlns="http://www.w3.org/2000/svg"><path d="M119 32q0-13 9-22t22-9q13 0 22 9t9 22q0 13-9 22.5t-22 9q-13-.5-22-9.5t-9-22zm156 256q0 6-3.5 9.5t-9 3.5q-5.5 0-9-3.5t-3.5-9-3.5-9Q243 276 237 276H63q-6 0-9.5 3.5t-3.5 9-3.5 9q-3.5 3.5-9 3.5t-9-3.5Q25 294 25 288q0-15 11-26t27-11h50V138q-1-5 3-8.5t9-3.5q5 0 9 3.5t4 9.5v37h31q8 0 13.5-5.5T187 157v-37q1-8-4.5-13.5T169 101h-52q-9 0-16-6L29 35q-4-4-4-9t3-9q3-4 8.5-4.5T46 15l71 61h52q18 0 31 13t13 31v37q0 13-7 23.5T188 197v54h50q15 0 26 11t11 27v-1zm-137-37h25v-50h-25v50z"/></svg>