<svg viewBox="0 0 300 302.0011" xmlns="http://www.w3.org/2000/svg"><path d="M131 32q0-8 5.5-13.5T150 13q8 0 13.5 5.5T169 32q0 8-5.5 13.5T150 51q-8 0-13.5-5.5T131 32zm107 131q-1 24-12.5 44T194 239q-20 12-44 12t-44-12q-20-12-32-32t-12-43.5Q62 140 74 120t32-32q20-12 44-12t44 12q20 12 31.5 32t11.5 43h1zm-25 0q0-16-8.5-30.5t-23-23Q167 101 150 101t-31.5 8.5Q104 118 96 132.5t-8 32Q88 182 98 198l43-43q4-4 9-4t9 3.5q4 3.5 4 9t-4 8.5l-43 44q15 10 33 10t32.5-8.5q14.5-8.5 23-23T212 163h1zM19 145q-8 0-13.5 5.5t-5.5 13q0 7.5 5.5 13T19 182q8 0 13.5-5.5t5.5-13q0-7.5-5.5-13T19 145zm262 0q-8 0-13 5.5t-5 13q0 7.5 5 13t13 5.5q8 0 13.5-5.5t5.5-13q0-7.5-5.5-13T281 145zM56 88q8 1 13.5-4.5T75 70q0-8-5.5-13.5T56 51q-8 0-13 5.5T38 70q0 8 5 13.5T56 89v-1zm188 150q-8 1-13.5 6t-5.5 13q0 8 5.5 13.5T244 276q8 0 13.5-5.5t5-13.5q-.5-8-5.5-13.5t-13-4.5v-1zm-188 0q-8 0-13 5.5T38 257q0 8 5 13.5t13 5.5q8 0 13.5-5.5T75 257q0-8-5.5-13.5T56 239v-1zM244 88q8 1 13.5-4.5t5-13.5q-.5-8-5.5-13.5T244 51q-8 0-13.5 5.5T225 70q0 8 5.5 13.5T244 89v-1z"/></svg>