<svg viewBox="0 0 300 302.0011" xmlns="http://www.w3.org/2000/svg"><path d="M288 213q-6 0-9.5 4t-3.5 9v32l-37-37q50-53 50-95 0-20-9-36.5t-25-27Q238 52 219 51q-17 1-32 9.5T162 83q-9-14-24-22.5T106.5 52Q90 52 76 59L21 5q-3-4-8.5-4t-9 3.5Q0 8 0 13.5T4 22l52 53q-19 22-18 51 0 32 29 71 23 30 61 62 15 13 34.5 13t34.5-13q12-10 23-20l37 37h-32q-5 0-9 3.5t-3.5 9q.5 5.5 4 9t8.5 3.5h50q10 0 17.5-7.5T300 276v-50q0-5-3.5-8.5T288 214v-1zm-107 27q-8 7-18.5 7t-18.5-7q-39-33-60.5-62.5T62 126q-1-19 12-33.5T106 76q19 2 32 16.5t12 33.5q0 5 3.5 8.5t9 3.5q5.5 0 9-3.5t3.5-8.5q-1-19 12-33.5T219 76q19 2 32 16.5t12 33.5q0 22-21.5 51.5T181 240z"/></svg>