<svg viewBox="0 0 300.0053 302.0011" xmlns="http://www.w3.org/2000/svg"><path d="M286 16q-9-9-21-12.5T241 2q-39 7-79 26-47 23-79.5 55.5T27 163Q8 203 1 242q-2 12 1.5 24T15 287q14 14 35 14h8q32-6 66-20 55-23 94-62t62-94q14-34 20-66 2-12-2-23.5T286 16zm-11 39q-6 36-24 72-21 44-51 74t-74 51q-36 18-72 24-13 2-22-7t-7-22q7-36 25-73 20-43 50-73t73-50q37-18 73-25h5q10 0 17 7 9 9 7 22zM150 176q0 10-7.5 17.5T125 201q-10 0-17.5-7.5T100 176q0-10 7.5-17.5T125 151q10 0 17.5 7.5T150 176zm50-50q0 10-7.5 17.5T175 151q-10 0-17.5-7.5T150 126q0-10 7.5-17.5T175 101q10 0 17.5 7.5T200 126zM100 226q0 10-7.5 17.5T75 251q-10 0-17.5-7.5T50 226q0-10 7.5-17.5T75 201q10 0 17.5 7.5T100 226zM250 76q0 10-7.5 17.5T225 101q-10 0-17.5-7.5T200 76q0-10 7.5-17.5T225 51q10 0 17.5 7.5T250 76z"/></svg>