<svg viewBox="0 0 300 302.0011" xmlns="http://www.w3.org/2000/svg"><path d="M238 26h-13V13q0-5-3.5-8.5t-9-3.5q-5.5 0-9 3.5T200 13v13H100V13q0-5-3.5-8.5t-9-3.5q-5.5 0-9 3.5T75 13v13H63q-17 0-31.5 8.5t-23 23Q0 72 0 88v150q0 17 8.5 31.5t23 23Q46 301 62 301h176q16 0 30.5-8.5t23-23Q300 255 300 239V88q0-16-8.5-30.5t-23-23Q254 26 238 26zM25 88q0-15 11-26t26-11h176q15 0 26 11t11 27v12H25V88zm213 188H63q-16 0-27-11t-11-26V126h250v112q0 16-11 27t-27 11h1zm-107-88q0 8 5.5 13.5T150 207q8 0 13.5-5.5t5.5-13q0-7.5-5.5-13T150 170q-8 0-13.5 5.5T131 189v-1zm-62 0q0 8 5.5 13.5t13 5.5q7.5 0 13-5.5t5.5-13q0-7.5-5.5-13t-13-5.5q-7.5 0-13 5.5T69 189v-1zm125 0q0 8 5.5 13.5t13 5.5q7.5 0 13-5.5t5.5-13q0-7.5-5.5-13t-13-5.5q-7.5 0-13 5.5T194 189v-1z"/></svg>