<svg viewBox="0 0 300 302.0011" xmlns="http://www.w3.org/2000/svg"><path d="M283 83l10-14q8-13 6.5-28.5T287 14Q276 3 260.5 1.5T232 8l-14 10Q186 1 150 1q-41 0-75.5 20T20 75.5Q0 110 0 151q0 36 17 68L7 233q-8 13-6.5 28.5T13 288q11 11 26.5 12.5T68 294l14-10q32 17 68 17 41 0 75.5-20t54.5-54.5q20-34.5 20-75.5 0-36-17-68zM150 276q-34 0-62.5-17T42 213.5Q25 185 25 151t17-62.5Q59 60 87.5 43T150 26q34 0 62.5 17T258 88.5q17 28.5 17 62.5t-17 62.5Q241 242 212.5 259T150 276zm38-56q-1 8-6 13t-13 5q-8 0-13.5-5t-5.5-13q0-8 5.5-13.5T169 201q8 0 13.5 5.5T188 220zM81 151q-8 0-13-5.5T63 132q0-8 5-13.5t13-5q8 .5 13.5 5.5t5.5 13q0 8-5.5 13.5T81 151zm63 12q-8 1-13.5-4.5T125 145q0-8 5.5-13.5T144 126q8 0 13.5 5.5T163 145q0 8-5.5 13.5T144 164v-1zm44-56q-1-8 4.5-13.5t13.5-5q8 .5 13.5 5.5t5.5 13q0 8-5.5 13.5T206 126q-8 0-13.5-5.5T187 107h1zm-63 82v28q0 4-3 7t-8 2q-14-3-25-14t-14-25q-1-5 2-8t7-3h28q6 0 9.5 3.5t3.5 9.5zm105-44q7 12 7 27t-7 27q-3 3-7 3.5t-7-2.5l-20-19q-3-4-3-9t3-9l20-19q3-3 7-3t7 4zm-117-41V76q-1-5 3-8.5t9-3.5h28q5 0 7.5 3t1.5 7q-3 15-13.5 25.5T123 113q-4 1-7.5-1.5T112 104h1z"/></svg>