<svg viewBox="0 0 300 302.0011" xmlns="http://www.w3.org/2000/svg"><path d="M163 301H75q-15 0-26-11t-11-27v-12q0-17-10-29-15-21-22.5-45.5T1 126q2-31 18.5-58t42-44Q87 7 118 2q38-5 72.5 9.5T248 56q12 16 32 55.5t20 51.5q0 10-6.5 17.5T275 188h-4l-3 21q-3 23-20.5 38.5T206 263h-6q0 16-11 27t-26 11zM138 26q-8 0-16 1-26 4-47 18T41 81q-13 22-15 47-2 21 3.5 41.5T48 207q15 19 15 44v12q0 6 3.5 9.5T75 276h88q5 0 8.5-3.5t3.5-9.5v-12q0-5 3.5-9t9.5-4h18q14 0 24.5-9t12.5-23l4-32q1-4 4.5-7.5t8.5-3.5h15q-1-9-18.5-43T228 72q-17-22-40.5-34T137 26h1zm0 175q-8 0-14-5-21-16-33-31-16-20-16-36.5T86 100q11-12 26-12t26 10q10-10 25-10t26 12q11 12 11 28.5T184 165q-12 15-33 31-6 5-13 5zm-25-87q-6 0-9.5 4t-3.5 11q0 7 10 20t28 26q17-13 27-26t10-20q0-7-3.5-11t-9-4q-5.5 0-9 3t-3.5 8.5q0 5.5-3.5 9.5t-9 4q-5.5 0-9-4t-3.5-9.5q0-5.5-3.5-8.5t-8.5-3z"/></svg>