<svg viewBox="0 0 300 302.0011" xmlns="http://www.w3.org/2000/svg"><path d="M75 280q-5 0-8-3t-4.5-7q-1.5-4 .5-7.5t5-6.5q21-12 31-34 9-18 12-44 2-14 2-40 0-15 10.5-26t26.5-11q16 0 27 11t11 27q0 5-4 8.5t-9 3.5q-5 0-9-3.5t-3.5-9-3.5-9q-4-3.5-9-3.5t-9 3.5q-4 3.5-4 8.5 1 29-2 45-3 30-14 52-14 27-40 43-3 2-6 2zm62 17q43-43 49-120 1-5-2.5-9t-8.5-4.5q-5-.5-9 3t-5 8.5q-5 68-42 105-4 3-4 8.5t4 9q4 3.5 9 3.5t9-4zm65-2q11-19 19-40 1-5-1-9.5t-7-6q-5-1.5-9.5.5t-6.5 7q-7 18-17 35-2 4-1 9.5t5.5 8q4.5 2.5 9.5 1t8-5.5zm29-79q7-38 7-78-1-27-16-49t-40.5-32q-25.5-10-52-3.5T85 80q-5 6-3 13t9.5 8q7.5 1 11.5-4 13-15 32-19.5t37 2.5q18 7 29 23t11 35q1 37-5 73-1 5 2 9.5t8 5.5h2q4 0 7.5-3t4.5-7zM88 138q-1-5 0-10 2-7-3.5-12T72 113.5q-7 2.5-8 10T63 139q0 87-50 87-6 0-9.5 3.5t-3.5 9q0 5.5 3.5 9T12 251q37 0 56.5-29T88 138zm171 156q31-75 29-156 0-31-14-59-3-5-7.5-6.5t-9.5.5q-5 2-6.5 7t.5 10q12 23 12 48 2 76-27 145-2 5 0 10t6 7q3 1 6 1t6-2q3-2 5-5zM38 176v-38q0-30 15-56t40.5-41Q119 26 150 26q38 0 68 23 4 3 9 2t8-5q3-4 2.5-9t-4.5-9q-18-13-39.5-20T150 1q-37 0-68.5 18.5t-50 50Q13 101 13 139v37q0 5 3.5 8.5t8.5 4q5 .5 9-3.5t4-9z"/></svg>