<svg viewBox="0 0 300 302.0011" xmlns="http://www.w3.org/2000/svg"><path d="M288 301H63q-17 0-31.5-8.5t-23-23Q0 255 0 238V13q0-5 3.5-8.5t9-3.5q5.5 0 9 3.5T25 13v225q0 16 11 27t27 11h225q5 0 8.5 3.5t3.5 9q0 5.5-3.5 9T288 301zm12-88V13q0-5-3.5-8.5t-9-3.5q-5.5 0-9 3.5T275 13v200q0 6 3.5 9.5t9 3.5q5.5 0 9-3.5t3.5-9.5zm-62-87V63q0-5-4-8.5t-9-3.5q-5 0-8.5 3.5T213 63v63q0 5 3.5 8.5t8.5 3.5q5 0 9-3.5t4-8.5zm-63 50v-63q0-5-3.5-8.5t-9-3.5q-5.5 0-9 3.5T150 113v63q0 5 3.5 8.5t9 3.5q5.5 0 9-3.5t3.5-8.5zm-62 50v-63q0-5-4-8.5t-9-3.5q-5 0-8.5 3.5T88 163v63q0 5 3.5 8.5t8.5 3.5q5 0 9-3.5t4-8.5z"/></svg>