<svg viewBox="0 0 300 302.0011" xmlns="http://www.w3.org/2000/svg"><path d="M119 32q0-13 9-22t22-9q13 0 22 9t9 22q0 13-9 22.5t-22 9q-13-.5-22-9.5t-9-22zm144 6q-16 0-27 11t-11 27v65q-6-2-10-2-16-1-28 9l-37 35-38-35q-11-10-27-9-4 0-10 2V76q0-16-11-27T37.5 38Q22 38 11 49T0 76v126q0 20 7.5 38.5T29 273l25 24q3 4 8.5 4t9-3.5q3.5-3.5 3.5-9t-4-8.5l-24-25q-11-10-16.5-24T25 202V76q0-5 3.5-9t9-4q5.5 0 9 4t3.5 9v101q1 13 9 24l33 34q4 3 9 3.5t8.5-3.5q3.5-4 4-9t-3.5-9l-32-33q-3-4-3-8.5t3.5-8q3.5-3.5 8.5-4t9 3.5l34 31q9 9 14.5 21t5.5 25v45q0 5 3.5 8.5t9 3.5q5.5 0 9-3.5t3.5-8.5v-45q0-21-10-41l39-36q4-4 9-3.5t8 3.5q3 3 4 8t-2 8l-32 33q-4 4-3.5 9t4 8.5q3.5 3.5 8.5 3.5t9-3l32-34q9-10 9-23V76q0-5 3.5-9t9-4q5.5 0 9 4t3.5 9v126q0 15-5.5 29T253 255l-24 25q-4 3-4 8.5t3.5 9q3.5 3.5 9 3.5t8.5-4l25-24q14-14 21.5-32.5T300 202V76q0-16-11-26.5T262 39l1-1zm-134 91l11 10q4 4 10 4t10-4l11-9q12-11 29-15-4-17-18-28t-32-11q-18 0-32 11t-18 28q17 4 29 14z"/></svg>