<svg viewBox="0 0 300 302.0011" xmlns="http://www.w3.org/2000/svg"><path d="M300 145q0-13-7.5-24T273 104q-5-29-22.5-52.5t-44-37Q180 1 150 1T93.5 14.5Q67 28 49.5 51.5T27 104q-14 6-21.5 19.5T.5 152q2.5 15 14 25T41 188q10 21 26 37-24 27-29 62 0 5 3 9t8 5h2q4 0 8-3t4-8q4-28 23-48 28 21 63.5 21t64.5-21q19 20 23 48 0 5 3.5 8t8.5 3h2q5-1 8-5t2-9q-4-35-28-62 16-16 26-37 17-1 29-13.5t12-29.5zm-47 18q-4-1-8 1.5t-6 6.5q-6 17-19.5 32.5t-32 25Q169 238 150 238t-37.5-9.5q-18.5-9.5-32-25T61 171q-2-4-6-6.5t-8-1.5h-3q-7 0-12.5-4.5t-6-12q-.5-7.5 3.5-13t11-7.5q4 0 7-3t4-8q2-24 15.5-44.5T102 38q-3 13-1 25 4 16 17 26.5t30 11.5q17 1 30.5-8.5T197 67q2-6-1.5-11t-9.5-5h-2q-4 0-6.5 2t-3.5 6q-3 9-11.5 13.5t-18 2.5q-9.5-2-15-9.5t-4.5-17q1-9.5 8-16t17-6.5q25 0 47 11.5t36 32Q247 90 249 115q1 5 4 8t7 3q7 2 11 7.5t3.5 13q-.5 7.5-6 12T256 164l-3-1zm-153-18q0 8 5.5 13.5t13.5 5q8-.5 13-5.5t5.5-13q.5-8-5-13.5T119 126q-8 0-13.5 5.5T100 145zm63 0q0 8 5 13.5t13 5q8-.5 13.5-5.5t5.5-13q0-8-5.5-13.5T181 126q-8 0-13.5 5.5T162 145h1z"/></svg>