<svg viewBox="0 0 300 302.0011" xmlns="http://www.w3.org/2000/svg"><path d="M213 1H88Q71 1 56.5 9.5t-23 23Q25 47 25 64v187q0 21 14.5 35.5T75 301h138q16 0 30.5-8.5t23-23Q275 255 275 238V63q0-16-8.5-30.5t-23-23Q229 1 212 1h1zM88 26h125q15 0 26 11t11 27v137H75q-13 0-25 7V63q0-15 11-26t27-11zm125 250H75q-10 0-17.5-7.5T50 251q0-10 7.5-17.5T75 226h175v12q0 16-11 27t-26 11zm-66-143l18-5 4-18q1-4 4.5-6.5t8-2.5q4.5 0 7.5 2.5t4 6.5l5 18 17 4q4 1 7 4.5t3 7.5q0 4-2.5 7.5T216 156l-18 5-5 18q-1 4-4 7t-7.5 3q-4.5 0-8-3t-4.5-7l-4-18-18-4q-4-1-6.5-4.5t-2.5-8q0-4.5 2.5-7.5t6.5-4zM75 76q0-6 6-9l16-6 7-17q2-5 8.5-5.5T121 44l7 17 16 6q6 2 6 8.5t-6 8.5l-16 7-7 17q-2 6-8.5 6t-8.5-6l-7-17-16-6q-6-3-6-9z"/></svg>