<svg viewBox="0 0 300 302.0011" xmlns="http://www.w3.org/2000/svg"><path d="M196 1q-35-3-64 15-28 16-43.5 45.5T75 123q2 34 25 61L4 280q-4 3-4 8.5t3.5 9q3.5 3.5 9 3.5t8.5-4l96-96q26 22 58 24.5t61-11q29-13.5 46.5-40.5t17.5-61q0-28-13.5-53T249 19.5Q225 4 196 1zm-8 200q-24 0-44-12t-32-32q-12-20-12-43-1-26 14-48 13-19 34.5-30t44-9.5Q215 28 230 43q17 16 20 45 0 17-8.5 31.5t-23 23Q204 151 188 151t-27-11q-11-11-11-26.5T161 87q11-11 27-11 5 0 8.5 3.5t3.5 9q0 5.5-3.5 9t-9 3.5-9 3.5q-3.5 3.5-3.5 9t3.5 9q3.5 3.5 8.5 3.5 16 0 27-11t11-26.5Q225 73 214 62t-27-11q-16 0-30.5 8.5t-23 23Q125 97 125 113q3 35 25 51 20 15 48.5 11t49.5-23q23-21 26-51 3 19-2.5 37t-18 32.5Q241 185 224 193t-37 8h1z"/></svg>