<svg viewBox="0 0 300 302.0011" xmlns="http://www.w3.org/2000/svg"><path d="M238 1H63Q46 1 31.5 9.5t-23 23Q0 47 0 64v174q0 17 8.5 31.5t23 23Q46 301 63 301h175q16 0 30.5-8.5t23-23Q300 255 300 238V63q0-16-8.5-30.5t-23-23Q254 1 237 1h1zm37 237q0 16-11 27t-27 11H63q-16 0-27-11t-11-27V63q0-15 11-26t27-11h175q15 0 26 11t11 27v174zM138 113q0 6-4 9.5t-9 3.5h-12v100q0 5-4 8.5t-9 4q-5 .5-9-3.5t-4-9V126H75q-5 0-8.5-3.5t-4-9q-.5-5.5 3.5-9t9-3.5h13V76q-1-5 3-9t9-4q5 0 9 4t4 9v25h12q5 0 9 3.5t4 8.5zm100 75q0 6-4 9.5t-9 3.5h-12v25q-1 5-4.5 8.5t-8.5 4q-5 .5-9-3.5t-4-9v-25h-12q-5 0-8.5-3.5t-3.5-9q0-5.5 3.5-9t8.5-3.5h13V76q0-5 3.5-9t8.5-4q5 0 9 4t4 9v100h12q5 0 9 3.5t4 9.5v-1z"/></svg>