<svg viewBox="0 0 300 302.0011" xmlns="http://www.w3.org/2000/svg"><path d="M150 1q-41 0-75.5 20T20 75.5Q0 110 0 151q2 57 33 95 29 35 73 47.5t88 0q44-12.5 73-47.5 31-38 33-95 0-41-20-75.5T225.5 21Q191 1 150 1zm0 275q-34 0-62.5-17T42 213.5Q25 185 25 151q2-47 28-79 23-30 60-40t74 0q37 10 60 40 26 32 28 79 0 34-17 62.5T212.5 259Q184 276 150 276zm73-81q-11 20-30.5 31.5T150 238q-23 0-42.5-11.5T77 195q-2-3-2-6.5t2-7q2-3.5 5.5-4.5t7.5-1q29 11 60 12 31-1 60-12 4 0 7.5 1t5.5 4.5q2 3.5 2 7t-2 6.5zM72 160q-3-1-4-4t0-6l7-20-17-12q-3-2-3.5-5t0-6q.5-3 3-4.5T63 101h21l7-20q0-3 2.5-4.5T99 75q3 0 5.5 1.5T108 81l6 20h21q3 0 5.5 1.5t3.5 4.5q1 3 0 6t-3 5l-17 12 6 20q1 3 0 6t-3.5 4.5Q124 162 121 162t-5-2l-17-12-16 12q-3 2-6 2t-5-2zm169-42l-17 12 7 20q0 3-.5 6t-3 4.5Q225 162 222 162t-6-2l-16-12-17 12q-3 2-6 2t-5.5-1.5q-2.5-1.5-3-4.5t.5-6l6-20-17-12q-2-2-3-5t0-5.5q1-2.5 3-4.5t5-2h21l7-20q1-3 3.5-4.5T200 75q3 0 5 1.5t3 4.5l7 20h21q3 0 5 1.5t3 4.5q1 3 0 6t-3 5z"/></svg>