<svg viewBox="0 0 300 302.0011" xmlns="http://www.w3.org/2000/svg"><path d="M149 101h14q5 0 8.5-3.5t3.5-9q0-5.5-3.5-9T162 76h-13q-3-12-9-22l15-16h1q8 0 13.5-5.5t5.5-13q0-7.5-5.5-13T156 1q-8 0-13.5 5.5T137 20l1 1-16 15q-10-6-22-9V13q0-5-3.5-8.5t-9-3.5q-5.5 0-9 3.5T75 13v14q-12 3-22 9L37 21v-1q0-8-5.5-13.5T18.5 1Q11 1 5.5 6.5T0 20q0 8 5.5 13T19 38h1l15 16q-6 10-9 22H12q-5 0-8.5 3.5t-3.5 9q0 5.5 3.5 9T12 101h14q3 12 9 22l-15 16h-1q-8 0-13.5 5.5t-5.5 13q0 7.5 5.5 13T19 176q8 0 13-5.5t5-13.5v-1l16-15q10 6 22 9v14q0 5 3.5 8.5t9 3.5q5.5 0 9-3.5t3.5-8.5v-14q18-4 31.5-17.5T149 101zm-61 25q-16 0-27-11T50 88.5Q50 73 61 62t26.5-11Q103 51 114 62t11 26.5q0 15.5-11 26.5t-26 11zm192 112h8q5 0 8.5-3.5t3.5-8.5q0-5-3.5-9t-9.5-4h-7q-2-9-7-17l7-8h1q8 0 13.5-5t5.5-13q0-8-5.5-13.5T281 151q-8 0-13 5.5t-5 13.5v1l-8 7q-8-5-17-7v-8q-1-5-4.5-8.5T225 151q-5 0-8.5 3.5T213 163v8q-10 2-18 7l-8-7 1-1q-1-8-6-13.5t-13-5.5q-8 0-13.5 5.5T150 170q0 8 5.5 13.5T169 189l1-1 7 8q-5 8-7 18h-7q-6-1-9.5 3t-3.5 9q0 5 3.5 8.5t9.5 3.5h7q2 10 7 18l-7 8h-1q-8-1-13.5 4.5T150 282q0 8 5.5 13.5T169 301q8 0 13.5-5.5T188 282l-1-1 8-7q8 5 17 7v7q0 6 4 9.5t9 3.5q5 0 9-3.5t3-9.5v-7q10-2 18-7l8 7-1 1q1 8 6 13.5t13 5.5q8 0 13.5-5.5T300 282q0-8-5.5-13t-13.5-5h-1l-7-8q5-8 7-18zm-55 19q-13 0-22-9t-9-22q0-13 9-22t22-9q13 0 22 9t9 22q0 13-9 22t-22 9z"/></svg>