<svg viewBox="0 0 300 302.0011" xmlns="http://www.w3.org/2000/svg"><path d="M206 170q0 5-3.5 8.5T194 182h-31v31q0 6-4 9.5t-9 3.5q-5 0-9-3.5t-4-9.5v-31h-31q-5 0-8.5-3.5T94 170q0-5 3.5-9t8.5-4h32v-31q0-5 3.5-9t8.5-4q5 0 9 4t4 9v31h31q5 0 8.5 4t3.5 9zm82-107q0 6-4 9.5t-9 3.5h-11l-16 168q-2 25-20 41t-42 16h-72q-24 0-42-16t-20-41L36 76H25q-5 0-9-3.5t-4-9q0-5.5 4-9t9-3.5h51q5-22 22-36t39-14h25q23 0 40 14t22 36h51q5 0 8.5 3.5T287 63h1zM102 51h96q-4-11-13.5-18T162 26h-24q-13 0-22.5 7T102 51zm137 25H61l16 166q1 15 12 24.5t25 9.5h72q14 0 25-9.5t12-24.5l16-166z"/></svg>