<svg viewBox="0 0 300 302.0011" xmlns="http://www.w3.org/2000/svg"><path d="M288 147l-23-51q-9-21-27.5-33T197 51h-17l-8-33q-2-8-8-12.5T150 1q-8 0-14 4.5T128 18l-8 33H63q-17 0-31.5 8.5t-23 23Q0 97 0 113v100q0 13 7 22.5T26 249q-1 4-1 8 0 18 13 31t31 13q18 0 31-13t13-31l-1-6h76l-1 6q1 18 13.5 31t30.5 13q18 0 31-13t13-31q0-4-1-8 12-4 19-13.5t7-22.5v-10q0-30-12-56zm-45-41l14 32h-44q-6 0-9.5-3.5T200 126V76q14 1 25.5 9t17.5 21zM88 257q0 8-5.5 13.5T69 276q-8 0-13.5-5.5T50 257q0-3 1-6h35l2 6zm143 19q-8 0-13.5-5.5T212 257l2-6h35q1 3 1 6 0 8-5.5 13.5T231 276zm44-63q0 6-3.5 9.5T263 226H38q-6 0-9.5-3.5T25 213V113q0-15 11-26t26-11h113v50q0 16 11 27t27 10h55q7 19 7 40v10zm-137-62q0 5-4 9t-9 4h-12v12q-1 5-4.5 8.5t-8.5 4q-5 .5-8.5-3.5t-3.5-9v-13H75q-5 0-8.5-3.5T63 151q0-5 3.5-9t8.5-4h13v-12q0-5 3.5-9t8.5-3.5q5 .5 8.5 4t3.5 8.5v12h13q5 0 9 4t4 9z"/></svg>