<svg viewBox="0 0 300 302.0011" xmlns="http://www.w3.org/2000/svg"><path d="M249 70l-43-43q-13-13-28.5-19.5T144 1H88Q71 1 56.5 9.5t-23 23Q25 47 25 63v175q0 17 8.5 31.5t23 23Q71 301 88 301h25q5 0 8.5-3.5t3.5-9q0-5.5-3.5-9T113 276H88q-16 0-27-11t-11-27V63q0-15 11-26t27-11h62v62q0 16 11 27t27 11h62v112q0 10-5 19t-14 14q-4 3-5.5 8t1 9.5q2.5 4.5 7.5 5.5t10-1q14-9 22.5-23.5T275 239V132q0-17-6.5-33T250 70h-1zm-61 31q-6 0-9.5-3.5T175 88V34q7 4 13 10l44 44q6 6 10 13h-54zm-13 50q-21 0-35.5 14.5T125 201q0 14 7 25.5t18 17.5v48q0 6 5.5 8t9.5-2l10-9 10 9q4 4 9.5 2t5.5-8v-48q11-6 18-17.5t7-25.5q0-21-14.5-35.5T175 151zm0 75q-10 0-17.5-7.5T150 201q0-10 7.5-17.5T175 176q10 0 17.5 7.5T200 201q0 10-7.5 17.5T175 226z"/></svg>