<svg viewBox="0 0 300 302.0011" xmlns="http://www.w3.org/2000/svg"><path d="M113 138q-6 0-9.5-3.5T100 126q0-11 7-18 4-4 12-9 3-1 5-4.5t1-8q-1-4.5-3.5-7T115 76q-6-1-10.5 3t-4.5 9.5q0 5.5-3.5 9t-9 3.5q-5.5 0-9-3.5T75 89q0-18 13.5-29.5T119 52q12 2 20 10t10 20q2 12-3 23t-15 16q-6 3-6 5 0 5-3.5 9t-9.5 4l1-1zm0 13q-7 0-11.5 4.5t-4.5 11q0 6.5 4.5 11t11 4.5q6.5 0 11-4.5t4.5-11q0-6.5-4.5-11T113 151zm137-37q0 15-3 29 13 10 20.5 25.5T275 201v62q0 6-3.5 9.5T262 276h-62q-17 0-32.5-7.5T142 248q-14 3-28 3 13 23 36 36.5t50 13.5h63q15 0 26-11t11-27v-62q0-27-13.5-50T250 114zm-25 8q1-25-7.5-48T192 34q-17-17-40-25.5T104 1Q77 3 53 19.5T14.5 62Q0 88 0 117v63q0 19 13.5 32.5T46 226h56q32 0 59.5-14t44.5-38q17-24 19-52zm-51-70q14 13 20.5 31t5.5 37q-2 22-15.5 40.5T149 190q-22 11-47 11H46q-9 0-15-6t-6-15v-63q0-23 11-43t30-33q19-13 40-15h6q18 0 34 6.5T174 52z"/></svg>