<svg viewBox="0 0 300 302.0011" xmlns="http://www.w3.org/2000/svg"><path d="M275 45h-5q-7-19-24.5-31.5T206.5 1q-21.5 0-39 12.5T142 45h-4q-11 0-18 7t-7 17.5q0 10.5 7 18t18 7.5l4-1q5 14 15 24-35 8-59 34-22 22-34 55-10 27-13 57-12-9-19-22t-7-28V76q0-23 13.5-36.5T75 26q5 0 9-3.5t4-9q0-5.5-4-9T75 1Q41 1 20.5 21.5T0 76v137q0 24 12 44t32 32q20 12 44 12h175q5 0 8.5-3.5t3.5-9q0-5.5-3.5-9T263 276h-13V123q14-12 20-29l5 1q10 0 17.5-7.5t7.5-18q0-10.5-7.5-17.5T275 45zm-87 231v-56q0-8 5-13.5t13-5.5q8 0 13.5 5.5T225 220v56h-37zm37-138v42q-9-4-19-4-18 0-30.5 13T163 220v56H88q-7 0-13-1 2-25 9-49 11-37 34-59 29-29 76-28h31v-1zm-19-25q-18 0-30.5-12.5T163 70q0-18 12.5-31T206 26q18 0 31 13t13 31q0 18-13 30.5T206 113z"/></svg>