<svg viewBox="0 0 300 302.0011" xmlns="http://www.w3.org/2000/svg"><path d="M13 60h34q4 16 16.5 25.5t28 9.5q15.5 0 28.5-9.5T137 60h151q5 0 8.5-3.5T300 48q0-5-3.5-9t-8.5-4H137q-4-15-17-24.5T91.5 1q-15.5 0-28 9.5T47 35H13q-6 0-9.5 4T0 48q0 5 3.5 8.5T12 60h1zm79-34q9 0 15.5 6.5T114 48q0 9-6.5 15.5T92 70q-9 0-15.5-6.5T70 48q0-9 6.5-15.5T92 26zm196 112h-35q-4-15-16.5-24.5t-28-9.5q-15.5 0-28 9.5T163 138H13q-6 1-9.5 4.5T0 151q0 5 3.5 9t8.5 4h151q5 15 17.5 24.5t28 9.5q15.5 0 28-9.5T253 163h35q5 1 8.5-3t3.5-9q0-5-3.5-9t-8.5-4zm-80 35q-9 0-15.5-6.5T186 151q0-9 6.5-15.5T208 129q9 0 15.5 6.5T230 151q0 9-6.5 15.5T208 173zm80 69H137q-4-16-17-25.5T91.5 207q-15.5 0-28 9.5T47 242H13q-6 0-9.5 3.5T0 254q0 5 3.5 9t8.5 4h35q4 15 16.5 24.5t28 9.5q15.5 0 28.5-9.5t17-24.5h151q5 0 8.5-4t3.5-9q0-5-3.5-8.5T288 242zM92 276q-9 0-15.5-6.5T70 254q0-9 6.5-15.5T92 232q9 0 15.5 6.5T114 254q0 9-6.5 15.5T92 276z"/></svg>