<svg viewBox="0 0 300 302.0011" xmlns="http://www.w3.org/2000/svg"><path d="M125 138q-5 0-8.5-3.5T113 126q0-9-5-17t-8-8q-3 0-7.5 8T88 126q-1 5-4.5 8.5T75 138q-5 0-9-3.5t-3-8.5q-1-19 10-34.5T100 76q16 0 27 15.5t11 34.5q0 5-4 9t-9 4v-1zm113-12q0-19-11-34.5T200 76q-16 0-27 15.5T162 126q1 5 4.5 9t8.5 3.5q5-.5 9-4t3-8.5q1-9 5.5-17t7.5-8q3 0 8 8t5 17q-1 5 3 9t9 3.5q5-.5 8.5-4t3.5-8.5h1zM59 254q3-3 3.5-8t-3.5-9q-16-18-25-40t-9-46q0-34 17-62.5T87.5 43Q116 26 150 26t62.5 17Q241 60 258 88.5t17 62.5q0 40-23 72-3 4-2 9t5.5 8q4.5 3 9.5 2.5t8-5.5q27-38 27-86 0-41-20-75.5T225.5 21Q191 1 150 1T74.5 21Q40 41 20 75.5T0 151q0 29 10.5 55.5T41 254q4 4 9 4t9-4zm116-97q4 0 7 3t3 7.5q0 4.5-3 7.5l-37 37 12 12 46-45q3-3 7-3t7.5 3q3.5 3 3.5 7.5t-3 7.5l-46 45 12 12 23-23q3-3 7.5-3t7.5 3q3 3 3 7t-2 7l-43 43q-16 16-38 16-14 0-26.5-7t-20-19.5Q88 262 88 246v-45q0-5 3.5-9t8.5-4q5 0 9 4t4 9v14l54-55q3-3 8-3z"/></svg>