<svg viewBox="0 0 300 302.0011" xmlns="http://www.w3.org/2000/svg"><path d="M296 67L234 5q-4-4-9-4t-8.5 3.5q-3.5 3.5-3.5 9t3 8.5l23 23-19 18q-19-13-42-11.5T139 69l-76 76q-12 12-19 28.5T38 207v39L4 280q-6 5-4 12t9 9q7 2 12-4l34-34h39q17 1 33.5-6t28.5-19l76-76q16-16 17.5-39T238 81l18-19 23 23q3 3 8.5 3t9-3.5Q300 81 300 76t-4-9zm-82 77l-76 76q-9 9-20.5 14T94 238H63v-31q0-6 1-12l15 15q5 5 12 3t9-9q2-7-4-12l-21-22q2-4 6-7l13-13 22 22q4 4 9 4t8.5-3.5q3.5-3.5 3.5-9t-3-8.5l-23-23 20-20 23 23q3 3 8.5 3t9-3.5q3.5-3.5 3.5-8.5t-4-9l-22-22 8-8q11-11 26.5-11T210 87l4 4q11 11 11 26.5T214 144z"/></svg>