<svg viewBox="0 0 300 302.0011" xmlns="http://www.w3.org/2000/svg"><path d="M113 138q0 19 12.5 31.5T156 182q18 0 31-12.5t13-31q0-18.5-13-31T156 95q-18 0-30.5 12.5T113 138zm62 0q0 8-5.5 13.5T156 157q-8 0-13-5.5t-5-13q0-7.5 5-13t13-5.5q8 0 13.5 5.5T175 139v-1zm84 42q-3-4-8.5-4t-9 3.5q-3.5 3.5-4 8.5t3.5 9l27 29H87q-2-14-12.5-24.5T50 189V88q14-2 24.5-12.5T87 51h126q2 16 14.5 26.5T257 88q17 0 30-12.5T300 45q0-18-13-31T256 1q-13 0-23.5 7T217 26H83Q78 15 67.5 8T44 1Q26 1 13 14T0 45q0 13 7 23.5T25 84v109q-11 5-18 15.5T0 232q0 18 13 31t31 13q13 0 23.5-7T83 251h185l-27 29q-4 4-3.5 9t4 8.5q3.5 3.5 8.5 3.5t9-4l30-32q11-11 11-26.5T289 212l-30-32zm-3-154q8 0 13.5 5.5T275 45q0 8-5.5 13T256 63q-8 0-13.5-5t-5-13q.5-8 5.5-13.5t13-5.5zM44 26q8 0 13.5 5.5t5 13.5Q62 53 57 58.5t-13 5Q36 63 30.5 58T25 45q0-8 5.5-13.5T44 26zm0 225q-8 0-13.5-5.5T25 232q0-8 5.5-13.5T44 213q8 0 13.5 5.5T63 232q0 8-5.5 13.5T44 251z"/></svg>