<svg viewBox="0 0 300 302.0011" xmlns="http://www.w3.org/2000/svg"><path d="M163 301q-21 0-38-10t-27-27.5Q88 246 88 226q0-29 44-92 5-8 13-12t17.5-4q9.5 0 17.5 4t13 12q45 63 44 92 0 20-10 37.5T200 291q-17 10-38 10h1zm0-158q-7 0-11 5-23 33-33 56-6 14-7 22 1 21 15.5 35.5t35 14.5q20.5 0 35-14.5T212 226q1-8-6-22-10-23-33-56-4-5-10-5zm-100-5q-17 0-31.5-8t-23-22.5Q0 93 0 76q0-23 32-61 6-7 14-10.5T62.5 1Q71 1 79 4.5T93 15q32 38 32 61 0 17-8.5 31.5t-23 22.5Q79 138 63 139v-1zm0-112q-7 0-12 5-15 19-22 32-4 8-4 13 0 16 11 26.5T62.5 113Q78 113 89 102.5T100 76q0-5-4-13-7-13-22-32-5-5-12-5h1zm181 100q-24 0-40-16.5T188 69q0-20 26-54 6-6 13.5-10t16-4Q252 1 260 5t13 10q27 34 27 54 0 24-16.5 40.5T244 126zm0-100q-6 0-10 5-13 16-18 27-4 7-3 11 0 13 9 22.5t22 9.5q13 0 22-9.5t9-22.5q0-4-3-11-6-11-18-27-4-5-10-5z"/></svg>