<svg viewBox="0 0 300 302.0011" xmlns="http://www.w3.org/2000/svg"><path d="M264 42l-28-30Q225 1 209 1h-59q-22 0-39.5 14T89 51h-1q-17 0-31.5 8.5t-23 23Q25 97 25 113v125q0 17 8.5 31.5t23 23Q71 301 87 301h76q16 0 30.5-8.5t23-23Q225 255 225 239v-2q22-4 36-21.5t14-39.5V68q0-15-11-26zM163 276H88q-16 0-27-11t-11-26V113q0-15 11-26t26-11v100q1 17 9 31.5t22.5 22.5q14.5 8 31.5 8h50q0 16-11 27t-26 11zm50-63h-63q-16 0-26.5-10.5T113 176V63q0-15 10.5-26T150 26h50v25q0 10 7.5 17.5T225 76h25v100q0 16-11 26.5T212 213h1z"/></svg>