<svg viewBox="0 0 300 302.0011" xmlns="http://www.w3.org/2000/svg"><path d="M200 226H100q-5 0-8.5-3.5t-3.5-9q0-5.5 3.5-9t8.5-3.5h100q5 0 9 3.5t4 9q0 5.5-4 9t-9 3.5zm-37-113V51q0-5-4-9t-9-4q-5 0-8.5 4t-3.5 9v62q0 6 3.5 9.5t8.5 3.5q5 0 9-3.5t4-9.5zM63 213q0-5-4-8.5t-9-3.5H13q-6 0-9.5 3.5t-3.5 9q0 5.5 3.5 9T13 226h37q5 0 9-3.5t4-9.5zm237 0q0-5-3.5-8.5T288 201h-38q-5 0-8.5 3.5t-3.5 9q0 5.5 3.5 9t8.5 3.5h38q5 0 8.5-3.5t3.5-9.5zm-66-66l37-37q4-4 4-9t-3.5-8.5q-3.5-3.5-9-3.5t-8.5 3l-38 38q-3 3-3 8.5t3.5 9q3.5 3.5 8.5 3.5t9-4zm-150 0q4-3 4-8.5t-4-8.5L46 92q-3-3-8.5-3t-9 3.5Q25 96 25 101t4 9l37 37q4 4 9 4t9-4z"/></svg>