<svg viewBox="0 0 300 302.0011" xmlns="http://www.w3.org/2000/svg"><path d="M150 1q-41 0-75.5 19T20 71.5Q0 104 0 143q0 25 17 36 14 10 36.5 8.5T97 175q-8 31-9 63 0 17 8 31.5t22.5 23Q133 301 150 301t31.5-8.5q14.5-8.5 23-23T213 239q-2-33-10-64 24 12 46.5 13t36.5-10.5q14-11.5 14-34.5 0-39-20-71.5T225.5 20Q191 1 150 1zm38 237q0 16-11 27t-27 11q-16 0-26.5-11T113 239q2-37 11-73 26-5 52 0 9 36 11 73l1-1zm62-75q-13-1-37-11-19-7-29-10-17-4-34-4t-34 4q-10 3-29 10-24 10-37 11-15 0-21-6-4-5-4-14 0-32 17-59t45.5-42.5Q116 26 150 26t62.5 15.5Q241 57 258 84t17 59q0 11-5 16t-20 5v-1z"/></svg>