<svg viewBox="0 0 300 302.0011" xmlns="http://www.w3.org/2000/svg"><path d="M275 142q-3-34-22.5-63.5t-51.5-47Q169 14 134 13q-3-5-9-8.5T112 1H88Q67 1 52.5 15.5T37 51v200q1 21 15.5 35.5T87 301h26q6 0 12-3.5t9-9.5h4q28 0 54-11t45.5-32q19.5-21 29.5-48t8-55zm-55 86q-16 17-37.5 26.5T138 263h-13q-5 0-8.5 4t-3.5 9H88q-11 0-18-7.5T63 251v-13h12q5 0 8.5-3.5t4-8.5q.5-5-3.5-8.5t-9-3.5H63v-26h12q5 1 8.5-3t4-9q.5-5-3.5-9t-9-4H63v-25h12q5 0 8.5-3.5t4-8.5q.5-5-3.5-9t-9-4H63V88h12q5 0 8.5-3.5t4-8.5q.5-5-3.5-9t-9-4H63V51q0-10 7-17.5T87 26h26q0 5 3.5 9t8.5 4h8q29-1 55.5 13.5t43 38.5q16.5 24 18.5 52 1 24-6.5 46T220 228zM138 88q-11 0-18 7.5t-7 18.5v74q0 11 7 18t17 7q24 0 42-16t21-40q1-13-3-25.5T184 109q-9-10-21-15t-26-5l1-1zm0 100v-75q16 0 27 12.5t10 29.5q-2 14-12.5 23.5T137 189l1-1z"/></svg>