<svg viewBox="0 0 300 302.0011" xmlns="http://www.w3.org/2000/svg"><path d="M13 195q0 18 12.5 30.5T56 238q18 0 31-12.5t13-30.5q0-18-13-31t-31-13q-18 0-30.5 13T13 195zm62 0q0 8-5.5 13T56 213q-8 0-13-5t-5-13q0-8 5-13.5t13-5.5q8 0 13.5 5.5T75 195zm169-44q-18 0-31 13t-13 31q0 18 13 30.5t31 12.5q18 0 31-12.5t13-30.5q0-18-13-31t-31-13zm0 62q-8 0-13.5-5t-5.5-13q0-8 5.5-13.5T244 176q8 0 13.5 5.5T263 195q0 8-5.5 13t-13.5 5zm-69 75q0 6-3.5 9.5T163 301h-25q-6 0-9.5-3.5t-3.5-9q0-5.5 3.5-9t9.5-3.5h25q5 0 8.5 3.5t3.5 9.5v-1zM13 138q5 0 8.5-3.5T25 126h250q0 5 3.5 8.5t9 3.5q5.5 0 9-3.5t3.5-8.5V88q0-16-8.5-30.5t-23-23Q254 26 238 26h-13V13q0-5-3.5-8.5t-9-3.5q-5.5 0-9 3.5T200 14v12H100V13q0-5-3.5-8.5t-9-3.5q-5.5 0-9 3.5T75 14v12H63q-17 0-31.5 8.5t-23 23Q0 72 0 89v37q0 5 3.5 8.5T13 138zm50-87h175q15 0 26 11t11 26v13H25V88q0-15 11-26t27-11zm48 232q2 4 .5 9t-5 7q-3.5 2-6.5 2-8 0-11.5-7.5T76 281q-9-5-19.5-5T37 281q-9 5-13 13-3 5-8 6.5t-9.5-1Q2 297 .5 292t.5-9q8-15 23-23.5t32.5-8.5q17.5 0 32 8.5T111 283zm182 17q-2 1-5 1-8 0-12-7.5T263 281q-9-5-19.5-5t-19.5 5q-9 5-13 13-2 5-7 6.5t-9.5-1q-4.5-2.5-6-7.5t.5-9q8-15 22.5-23.5t32-8.5q17.5 0 32.5 8.5t23 23.5q2 4 .5 9t-6.5 8z"/></svg>