<svg viewBox="0 0 300 302.0011" xmlns="http://www.w3.org/2000/svg"><path d="M150 201q-21 0-35.5-14.5T100 151q0-21 14.5-35.5T150 101q21 0 35.5 14.5T200 151q0 21-14.5 35.5T150 201zm0-75q-10 0-17.5 7.5T125 151q0 10 7.5 17.5T150 176q10 0 17.5-7.5T175 151q0-10-7.5-17.5T150 126zm0 175q-21 0-38-12.5T90 255q-20 5-39.5-3.5T21 225q-10-18-8-38.5T30 150q-16-15-17.5-35.5T21 76q10-18 28.5-27T90 46q6-20 22.5-32.5T150 1q21 0 37.5 12.5T210 46q22-5 40.5 3.5T279 76q10 18 8.5 38.5T270 151q16 16 17.5 36t-8.5 37.5Q269 242 250.5 251t-40.5 4q-5 21-22 33.5T150 301zm-50-75q5 0 8.5 3.5t3.5 9.5q1 15 11.5 26t26.5 11q16 0 27-11t11-26q-1-8 5.5-11.5t12.5.5q16 7 30 2t21.5-17.5q7.5-12.5 4.5-27T244 162q-6-4-6-11t6-11q15-9 18-23.5t-4.5-28Q250 75 236 70.5T206 74q-6 4-12.5.5T187 64q1-16-10-27t-27-11q-16 0-27 11t-10 27q0 7-6.5 10.5T94 74q-16-8-30-3.5T42.5 88Q35 101 38 116t18 23q6 4 6 11.5T56 161q-15 10-18 24t4.5 27Q50 225 64 230t30-2q3-2 6-2z"/></svg>