<svg viewBox="0 0 300 302.0011" xmlns="http://www.w3.org/2000/svg"><path d="M150 38H88V26q0-5-4-8.5t-9-4q-5-.5-8.5 3.5T63 26v13Q32 42 6 57q-4 2-5.5 7.5T2 75q3 5 11 5 3 0 6-1 20-12 43-15v26q-26 4-44 25T0 164v81q0 23 16.5 39.5T56 301h38q23 0 39.5-16.5T150 245v-82q0-27-18-48T88 90V63h62q5 1 9-3t4-9q0-5-4-9t-9-4zm-25 125v82q0 13-9 22t-22 9H56q-11 0-19.5-7T26 251h62q5 0 8.5-3.5t3.5-9q0-5.5-3.5-9T88 226H25v-63q0-20 14.5-34.5t35.5-15q21-.5 35.5 14.5t14.5 36v-1zM290 7q-10-8-23-5l-55 16q-11 4-18 13t-7 20q0 11 7 20t18 13l55 16q3 1 7 1 9 0 16-6 10-8 10-20V28q0-13-10-21zm-15 68l-1 1-55-16q-3-1-4.5-3.5T213 51q0-3 1.5-5.5T219 42l55-16 1 2v47z"/></svg>