<svg viewBox="0 0 300 302.0011" xmlns="http://www.w3.org/2000/svg"><path d="M200 226h-50q-5 0-8.5-3.5t-3.5-9q0-5.5 3.5-9t8.5-3.5h50q5 0 8.5 3.5t3.5 9q0 5.5-3.5 9T200 226zm63 12V88q-1-16-9-30.5t-22.5-23Q217 26 200 26h-2q-4-11-13.5-18T163 1h-25q-13 0-22.5 7T102 26h-2q-17 0-31.5 8.5T46 57.5Q38 72 38 89v149q0 17 8 31.5t22.5 23Q83 301 100 301h100q17 0 31.5-8.5t23-23Q263 255 263 238zM113 51q5 0 8.5-3.5t3.5-9 3.5-9Q132 26 138 26h25q5 0 8.5 3.5t3.5 9 3.5 9Q182 51 188 51h12q16 0 26.5 11T237 88v150q1 16-10 27t-27 11H100q-16 0-27-11t-11-27V88q0-15 11-26t27-11h13zm-13 150q-5 0-8.5 3.5t-3.5 9q0 5.5 3.5 9t8.5 3.5q5 0 8.5-3.5t3.5-9q0-5.5-3.5-9T100 201zm113-38q-1-5-4.5-8.5T200 151h-50q-5 0-8.5 3.5t-3.5 9q0 5.5 3.5 9t8.5 3.5h50q5 0 8.5-3.5t3.5-9.5h1zm-113-12q-5 0-8.5 3.5t-3.5 9q0 5.5 3.5 9t8.5 3.5q5 0 8.5-3.5t4-9q.5-5.5-3.5-9t-9-3.5zm113-38q-1-5-4.5-8.5T200 101h-50q-5 0-8.5 3.5t-3.5 9q0 5.5 3.5 9t8.5 3.5h50q5 0 8.5-3.5t3.5-8.5l1-1zm-113-12q-5 0-8.5 3.5t-3.5 9q0 5.5 3.5 9t8.5 3.5q5 0 8.5-3.5t4-9q.5-5.5-3.5-9t-9-3.5z"/></svg>