<svg viewBox="0 0 300 302.0011" xmlns="http://www.w3.org/2000/svg"><path d="M50 238q-13 0-22-9t-9-22q0-13 9-22t22-9q13 0 22 9t9 22q0 13-9 22.5T50 239v-1zm131-31q0-13-9-22t-22-9q-13 0-22 9t-9 22q0 13 9 22t22 9q13 0 22-9t9-22zM150 63q13 0 22-9t9-22q0-13-9-22t-22-9q-13 0-22 9t-9 22q0 13 9 22.5t22 9.5v-1zm69 144q0 13 9 22t22 9q13 0 22-9t9-22q0-13-9-22t-22-9q-13 0-22 9t-9 22zm4-115l66-57q4-3 4.5-8t-3-9q-3.5-4-8.5-4.5t-9 3.5l-66 56q-18 15-41 15h-32q-23 0-41-15L27 17q-4-4-9-3.5T9.5 18q-3.5 4-3 9t4.5 8l66 57q10 9 23 14v51q0 5 3.5 9t9 4q5.5 0 9-4t3.5-9v-44h50v44q0 5 3.5 9t9 4q5.5 0 9-4t3.5-9v-51q13-5 23-14zm76 192q-5-15-19-24t-30-9q-16 0-30 9t-19 24q-2 5 0 9.5t7 6.5q5 2 9.5 0t6.5-7q3-8 10-12.5t16-4.5q9 0 16 4.5t10 12.5q1 4 4.5 6t6.5 2q3 0 5-1 5-2 7-6.5t0-9.5zm-149-33q-16 0-30 9t-19 24q-2 5 0 9.5t7 6.5q5 2 9.5 0t6.5-7q3-8 10-12.5t16-4.5q9 0 16 4.5t10 12.5q1 4 4.5 6t6.5 2q3 0 5-1 5-2 7-6.5t0-9.5q-5-15-19-24t-30-9zm-100 0q-16 0-30 9T1 284q-2 5 0 9.5t7 6.5q5 2 9.5 0t6.5-7q3-8 10-12.5t16-4.5q9 0 16 4.5T76 293q1 4 4.5 6t6.5 2q3 0 5-1 5-2 7-6.5t0-9.5q-5-15-19-24t-30-9z"/></svg>