<svg viewBox="0 0 300 302.0011" xmlns="http://www.w3.org/2000/svg"><path d="M250 163h-25v-37q0-21-14.5-35.5T175 76h-37V51q0-21-15-35.5T87 1H50Q29 1 14.5 15.5T0 51v37q0 21 14.5 36T50 139h25v37q0 21 14.5 35.5T125 226h38v25q-1 21 14 35.5t36 14.5h37q21 0 35.5-14.5T300 251v-38q0-20-14.5-35T250 164v-1zM25 88V51q0-10 7.5-17.5T50 26h38q10 0 17.5 7.5T113 51v37q0 11-7.5 18.5T87 114H50q-10-1-17.5-8T25 89v-1zm75 88v-39q13-3 23-13t13-23h39q10 0 17.5 7.5T200 126v39q-13 3-23 13t-13 23h-39q-10 0-17.5-7.5T100 176zm175 75q0 10-7.5 17.5T250 276h-37q-11 0-18.5-7.5T187 251v-38q0-10 7.5-17.5T212 188h38q10 1 17.5 8t7.5 18v37z"/></svg>