<svg viewBox="0 0 300 302.0011" xmlns="http://www.w3.org/2000/svg"><path d="M150 201q8 0 13.5 5.5T169 220q0 8-5.5 13t-13.5 5q-8 0-13.5-5t-5.5-13q0-8 5.5-13.5T150 201zm13-25q0-5 3-10.5t8-8.5q14-8 21-22.5t4.5-30Q197 89 185.5 78T159 64q-11-2-22 1t-19.5 10q-8.5 7-13 17t-4.5 21q0 5 3.5 9t9 4q5.5 0 9-4t3.5-9q0-11 9-18.5t21-5.5q7 1 12.5 6.5t7 13.5q1.5 8-2 15T162 135q-11 6-17.5 17.5T138 176q0 5 3.5 9t8.5 4q5 0 9-4t4-9zm137 62V63q0-16-8.5-30.5t-23-23Q254 1 238 1H63Q46 1 31.5 9.5t-23 23Q0 47 0 64v174q0 17 8.5 31.5t23 23Q46 301 63 301h175q16 0 30.5-8.5t23-23Q300 255 300 238zM238 26q15 0 26 11t11 27v174q0 16-11 27t-27 11H63q-16 0-27-11t-11-27V63q0-15 11-26t27-11h175z"/></svg>