<svg viewBox="0 0 300 302.0011" xmlns="http://www.w3.org/2000/svg"><path d="M300 151q0 41-20 75.5T225.5 281Q191 301 150 301q-29 0-55.5-10.5T47 260q-4-3-4-8.5t3.5-9q3.5-3.5 8.5-4t9 3.5q18 16 40 25t46 9q34 0 62.5-17t45.5-45.5q17-28.5 17-62.5t-17-62.5Q241 60 212.5 43t-63-17Q115 26 85 44.5T39 94q-3 5-8 6.5t-9.5-1Q17 97 15.5 92t.5-9q20-38 56-60t77.5-22q41.5 0 76 20T280 75.5q20 34.5 20 75.5zm-78-38q1 1 3 0 4 0 7.5-2t4.5-7q1-5-1.5-9.5T228 89q-9-3-17.5-8.5T198 69q-3-4-8.5-5t-9.5 2q-4 3-5 8t2 9q7 10 19 18t26 12zM102 69q-4 6-12.5 11.5T72 89q-5 1-7.5 5.5t-1.5 9q1 4.5 4.5 7.5t7.5 3l3-1q14-4 26-12t19-18q3-4 2-9t-5-8q-4-3-9.5-2t-8.5 5zm4 69q-8 0-13.5 5.5t-5 13.5q.5 8 5.5 13.5t13 5.5q8 0 13.5-5.5T125 157q0-8-5.5-13.5T106 138zm88 38q8 0 13.5-5.5t5-13.5q-.5-8-5.5-13.5t-13-5.5q-8 0-13.5 5.5T175 157q0 8 5.5 13.5T194 176zm-94 49q-1 5 2 9t8 4h80q5 0 8-4t1-8q-5-15-18.5-26T150 189q-17 0-30.5 11T100 226v-1zm-37-43q0-12-9-29-7-14-16-24-2-3-6.5-3t-7.5 3q-8 10-15 24-9 18-9 30t9 21q9 9 22 9t22-9q9-9 9-22h1z"/></svg>