<svg viewBox="0 0 300 302.0011" xmlns="http://www.w3.org/2000/svg"><path d="M172 117q-20-29-47-28-14-1-25 7-9 5-22 20L5 225q-6 13-5 26.5t8.5 25Q16 288 28 294.5t25 6.5h144q13 0 25-6.5t19.5-18q7.5-11.5 8.5-25t-5-26.5l-73-108zM94 276l25-46q2-4 6-4t6 4l25 46H94zm127-13q-9 13-24 13h-13l-30-57q-4-8-12-13t-17-5q-9 0-17 5t-11 13l-31 57H53q-15 0-23.5-13T27 237l71-105q10-12 15-15t12-3q14 0 27 18l71 105q6 13-2 26zm55-58q-4 2-7 2-7 0-10.5-5t-2-10q1.5-5 5.5-8 8-5 11.5-15t-.5-20L202 44q-13-18-27-18-7 0-12 3.5T148 45l-9 13q-3 4-8 5t-9.5-2q-4.5-3-5.5-8t2-9l10-15q13-15 21-21 12-7 26-7 27 0 47 29l73 108q8 18 2.5 37T276 205z"/></svg>