<svg viewBox="0 0 300 302.0011" xmlns="http://www.w3.org/2000/svg"><path d="M300 201v62q0 16-11 27t-27 11h-62q-27 0-50-13.5T114 251q14 0 28-3 10 13 25.5 20.5T200 276h63q5 0 8.5-3.5t3.5-8.5v-63q0-17-7.5-32.5T247 143q3-14 3-28 23 13 36.5 36t13.5 50zm-191 25H38q-16 0-27-12T0 180v-63q0-29 14.5-55T53 19.5Q77 3 104 1q25-1 48 7.5T192 34q17 17 25.5 40t7.5 48q-2 27-18.5 51T164 211.5Q138 226 109 226zm0-25h2q-4 0-7.5-4t-3.5-8v-13h-3q-10 0-19-5t-14-14q-2-4-1-9t5.5-7.5Q73 138 78 139t8 6.5q3 5.5 11 5.5h28q5 0 9-3.5t4-8q0-4.5-2.5-7T129 129l-38-6q-12-2-20.5-12T62 89q0-16 11-27t27-11V38q0-5 3.5-8.5T112 26h-6q-21 2-40 15T36 74q-11 20-11 43v63q0 7 2 12 3 9 10 9h72zm91-81q1-19-5.5-37T175 52q-13-13-29-19.5T113 26q5 0 8.5 3.5T125 38v13h3q10 0 19 5t14 14q2 4 1 9t-5.5 7.5Q152 89 147 88t-8-6.5q-3-5.5-11-5.5h-28q-5 0-8.5 3.5t-3.5 8q0 4.5 2 7t6 3.5l38 6q12 2 20.5 12t8.5 23q0 15-11 26t-27 11v13q0 4-3 7.5t-7 4.5q21-2 40-13t31-29q12-18 14-39z"/></svg>