<svg viewBox="0 0 300 302.0011" xmlns="http://www.w3.org/2000/svg"><path d="M238 1H63Q46 1 31.5 9.5t-23 23Q0 47 0 64v174q0 17 8.5 31.5t23 23Q46 301 63 301h175q16 0 30.5-8.5t23-23Q300 255 300 238V63q0-16-8.5-30.5t-23-23Q254 1 237 1h1zm37 237q0 16-11 27t-27 11H63q-16 0-27-11t-11-27V63q0-15 11-26t27-11h175q15 0 26 11t11 27v174zM144 63h-25q-18 0-31 13t-13 31v88q0 18 13 30.5t31 12.5h25q22 0 40.5-10.5t29.5-29q11-18.5 11-40.5v-14q0-22-11-40.5T184.5 74Q166 63 144 63zm56 95q0 23-16.5 39T144 213h-25q-8 0-13.5-5t-5.5-13v-88q0-8 5.5-13.5T119 89h25q23-1 39.5 15.5T200 144v14z"/></svg>