<svg viewBox="0 0 300 302.0011" xmlns="http://www.w3.org/2000/svg"><path d="M235 201q-14 0-26 5t-21 14q-27 27-62 41.5T53 276H39q-4 0-7.5-2.5T26 267q-2-4-1-8t4-7l40-40 147-39q21-5 33.5-22t13.5-38V63q-1-16-9-30.5t-22.5-23Q217 1 200 1h-49q-21 0-38 13T91 47L51 195l-40 39q-8 9-10.5 20.5T3 277q5 11 14.5 17.5T39 301h14q43 0 83-16.5t70-46.5q9-9 21-11.5t23 2.5q11 5 18 15t7 23v21q0 6 3.5 9.5t9 3.5q5.5 0 9-3.5t3.5-8.5v-22q0-18-9-33t-24-24q-15-9-33-9h1zm-25-52l-106 28 77-77 42 42q-6 5-13 7zm28-86v50q-1 3-1 7l-38-38 35-35q3 8 3 16h1zm-87-37h49q8 0 16 4l-35 35-37-38q3-1 7-1zm-36 28q2-8 7-14l42 42-77 77 28-105z"/></svg>