<svg viewBox="0 0 300 302.0011" xmlns="http://www.w3.org/2000/svg"><path d="M296 22q4-3 4-8.5t-3.5-9Q293 1 287.5 1T279 5l-73 72q-15-12-33.5-19T133 51h-3q-13 1-23 9T94 80q-4 17-16 29-16 16-39 17-11 0-20.5 7.5T5 153q-5 16-5 31 0 21 7 39.5T26 257L4 280q-4 3-4 8.5t3.5 9q3.5 3.5 9 3.5t8.5-4l23-22q15 12 33.5 19t39.5 7q15 0 31-5 12-4 19.5-13.5T175 261q0-25 17-42 12-12 29-15 13-3 21-13t8-23q0-21-7-39.5T224 95l72-73zm-71 146q0 4-2.5 7t-7.5 4q-23 6-40 23-12 11-18.5 26.5T150 260q0 4-3 7.5t-7 4.5q-12 4-23 4-31 0-56-19l23-22q3-4 3-9t-3.5-8.5Q80 214 75 214t-9 3l-22 23q-19-25-19-56 0-11 4-23 1-4 4.5-7t6.5-3q16-1 30.5-7T96 126q17-17 23-41 1-3 4.5-6t7.5-3h2q31 0 56 19l-73 72q-4 4-4 9t4 8.5q4 3.5 9 4t9-3.5l72-73q19 25 19 56zM213 20q0-8 5-13.5T231 1q8 0 13.5 5.5T250 20q0 8-5.5 13T231 38q-8 0-13.5-5T212 20h1zm87 50q0 8-5.5 13.5t-13.5 5q-8-.5-13-5.5t-5-13q0-8 5-13.5t13-5.5q8 0 13.5 5.5T300 70z"/></svg>