<svg viewBox="0 0 300.0025 302.0011" xmlns="http://www.w3.org/2000/svg"><path d="M13 207q0-13 9-22t22-9q13 0 22 9t9 22q0 13-9 22t-22 9.5q-13 .5-22-9T13 207zm31 44q-16 0-28.5 10T0 286q-1 5 2 9.5t8 5.5q5 1 9.5-2t5.5-8.5q1-5.5 6.5-10T44 276q7 0 12 4.5t6.5 9.5q1.5 5 5 8t7.5 3h3q5-1 7.5-5.5T87 286q-3-15-15-25t-28-10zm206-75H138q-11 0-18.5-7.5t-7-17.5q.5-10 7.5-17.5t18-7.5h12q5 0 8.5-3.5t4-9q.5-5.5-3.5-9t-9-3.5h-12q-21 0-35.5 14.5T88 151q0 21 14.5 35.5T138 201h112q10 0 17.5 7.5T275 226q0 10-7.5 17.5T250 251H125q-5 0-8.5 3.5t-3.5 9q0 5.5 3.5 9t8.5 3.5h125q21 0 35.5-14.5T300 226q0-21-14.5-35.5T250 176zm-56-83l-11 35q-1 3 0 6.5t4 6q3 2.5 6.5 2.5t6.5-2l31-21 32 21q3 2 6.5 1.5t6.5-2.5q3-2 4-5.5t0-7.5l-11-34 27-22q3-2 4-5.5t-.5-7Q298 55 295 53t-6-2h-35l-12-34q-1-4-4-6t-6.5-2q-3.5 0-6.5 2t-4 6l-13 34h-34q-4 0-7 2t-4 5.5q-1 3.5 0 7t4 5.5l27 22z"/></svg>