<svg viewBox="0 0 300 302.0011" xmlns="http://www.w3.org/2000/svg"><path d="M244 126h-6v-12q0-12-7-21.5T213 78q7-8 7-20t-9-21l-26-27q-9-9-22.5-9T140 10l-6 7q-5-7-12-11.5T106 1H69q-13 0-22 9t-9 22v38q0 4 1 8-12 3-19.5 13T12 114v125q0 16 8.5 30.5t23 23Q58 301 75 301h100q22 0 39.5-14t21.5-36h8q18 0 30.5-13t12.5-31v-37q0-18-12.5-31T244 126zm-86-98q2-2 4.5-2t4.5 2l26 26q2 2 2 4.5t-2 4.5l-12 13h-37l-12-13q-2-1-2-3.5t1-4.5l27-27zm-95 4q0-2 1.5-4t4.5-2h37q3 0 5 2t2 4v6q-7 8-8 18.5t5 19.5H69q-3 0-4.5-2T63 70V32zm112 244H75q-16 0-27-11t-11-26V114q1-6 4.5-9.5T50 101h150q5 0 9 3.5t4 9.5v125q-1 15-11.5 26T175 276zm88-69q0 8-5.5 13.5T244 226h-6v-75h6q8 0 13.5 5.5T263 170v37z"/></svg>