<svg viewBox="0 0 300 302.0011" xmlns="http://www.w3.org/2000/svg"><path d="M144 38q13 0 22 9.5t9 22.5q0 13-9 22t-22 9q-13 0-22.5-9t-9-22q.5-13 9.5-22.5t22-9.5zm66 139l-18-39h17q4 0 7 2t4 6l14 29q2 5 7 6.5t9.5-.5q4.5-2 6.5-7t0-9l-14-30q-5-10-14-16t-20-6h-38q-15 2-25 13l-18 31q-4 6-11 6H87q-5 0-8.5 4t-3.5 9q0 5 3.5 9t8.5 4h30q10-1 19-6t14-13l2-5 21 45-21 18q-7 5-10.5 12.5T138 257v31q0 6 3.5 9.5t8.5 3.5q5 0 9-3.5t4-9.5v-31q0-6 4-10l29-24q11-7 15-20t-1-26zm53 61h-30q-4 1-7.5-2t-8.5-2q-5 1-8 5t-2.5 9.5q.5 5.5 5.5 8.5 9 7 21 6h29q6 0 9.5-3.5t3.5-8.5q0-5-3.5-8.5T262 239l1-1zM188 26q15 0 26 11t11 27v12q0 5 3.5 8.5t9 3.5q5.5 0 9-3.5T250 76V63q0-16-8.5-30.5t-23-23Q204 1 187 1H75Q58 1 43.5 9.5T21 32.5Q13 47 13 63v225q0 6 3.5 9.5T25 301q5 0 9-3.5t4-9.5V63q0-15 11-26t26-11h113z"/></svg>