<svg viewBox="0 0 300 302.0011" xmlns="http://www.w3.org/2000/svg"><path d="M250 176H125V51q0-21-14.5-35.5T75 1H50Q29 1 14.5 15.5T0 51v187q0 17 8.5 31.5t23 23Q46 301 63 301h187q21 0 35.5-14.5T300 251v-25q0-21-14.5-35.5T250 176zm25 75q0 10-7.5 17.5T250 276H63q-16 0-27-11t-11-27V51q0-10 7.5-17.5T50 26h25q10 0 17.5 7.5T100 51v25H75q-5 0-8.5 3.5t-4 9q-.5 5.5 3.5 9t9 3.5h25v25H75q-5 0-8.5 3.5t-4 9q-.5 5.5 3.5 9t9 3.5h25v25H75q-5 0-8.5 3.5t-4 9q-.5 5.5 3.5 9t9 3.5h25v25q0 5 3.5 9t9 3.5q5.5-.5 9-4t3.5-8.5v-25h25v25q0 5 3.5 8.5t9 3.5q5.5 0 9-3.5t3.5-8.5v-25h25v25q0 5 3.5 8.5t9 4q5.5.5 9-3.5t3.5-9v-25h25q10 0 17.5 7.5T275 226v25z"/></svg>