<svg viewBox="0 0 300 302.0011" xmlns="http://www.w3.org/2000/svg"><path d="M100 201q0 8-5.5 13.5T81 220q-8 0-13-5.5T63 201q0-8 5-13.5t13-5.5q8 0 13.5 5.5T100 201zM81 57q-8 0-13 5.5T63 76q0 8 5 13.5T81 95q8 0 13.5-5.5T100 76q0-8-5.5-13.5T81 57zm0 63q-8 0-13 5.5t-5 13q0 7.5 5 13t13 5.5q8 0 13.5-5.5t5.5-13q0-7.5-5.5-13T81 120zM238 1H63Q46 1 31.5 9.5t-23 23Q0 47 0 64v162q0 17 8.5 31.5t23 22.5q14.5 8 31.5 8h37q5 0 8.5-3.5t4-8.5q.5-5-3.5-8.5t-9-3.5H63q-16-1-27-11.5T25 226V63q0-15 11-26t27-11h175q15 0 26 11t11 27v112q0 5 3.5 9t9 3.5q5.5-.5 9-4t3.5-8.5V63q0-16-8.5-30.5t-23-23Q254 1 238 1zM138 88h87q5 0 8.5-3.5T237 76q0-5-3.5-8.5T225 64h-87q-6 0-9.5 3.5T125 76q0 5 3.5 8.5T137 88h1zm0 63h87q5 0 8.5-3.5t3.5-9q0-5.5-3.5-9T225 126h-87q-6 0-9.5 3.5t-3.5 9q0 5.5 3.5 9t8.5 3.5h1zm158 82q4 5 4 11.5t-4 12.5q-11 17-28 28-24 16-55.5 16T157 285q-17-11-28-28-4-6-4-12.5t4-11.5q11-17 28-29 24-15 55.5-15.5T268 204q17 12 28 29zm-22 12q-9-13-22-21-17-11-39.5-10.5T173 224q-13 8-22 21 9 12 22 20 17 11 39.5 11t39.5-11q13-8 22-20zm-61-19q-8 0-13.5 5.5T194 245q0 8 5.5 13t13 5q7.5 0 13-5t5.5-13q0-8-5.5-13.5T213 226z"/></svg>