<svg viewBox="0 0 300 302.0011" xmlns="http://www.w3.org/2000/svg"><path d="M238 1H63Q46 1 31.5 9.5t-23 23Q0 47 0 64v174q0 17 8.5 31.5t23 23Q46 301 63 301h175q16 0 30.5-8.5t23-23Q300 255 300 238V63q0-16-8.5-30.5t-23-23Q254 1 237 1h1zm37 237q0 16-11 27t-27 11H63q-16 0-27-11t-11-27V63q0-15 11-26t27-11h175q15 0 26 11t11 27v174zM100 137v28q0 20 14 34t34 14h7q12 0 23-5.5t18-15.5q3-5 8-6t9 2q4 3 5 8t-1 10q-11 15-27 24t-35 9h-7q-20 0-36.5-10T85 202q-10-17-10-37v-28q0-20 10-37t26.5-26.5Q128 64 148 64h7q19 0 35 8.5T217 96q2 5 1 10t-5 8q-4 3-9 2t-8-6q-7-10-18-15.5T155 89h-7q-20-1-34 13.5T100 137z"/></svg>