<svg viewBox="0 0 300 302.0011" xmlns="http://www.w3.org/2000/svg"><path d="M137 288q-1 5-4.5 8t-7.5 3h-2q-35-7-63-28t-44-52.5Q0 187 0 151q0-41 20-75.5T74.5 21Q109 1 150 1q33 0 63 14t51 38.5Q285 78 294 110q2 5-.5 9.5t-7.5 6q-5 1.5-9.5-1T270 117q-7-27-25-47.5t-42.5-32Q178 26 150 26q-34 0-62.5 17T42 88.5Q25 117 25 151q0 30 13 56t36.5 44Q98 269 127 274q5 1 8 5t2 9zM63 101v25q-1 5 3 9t9 3.5q5-.5 9-4t4-8.5v-25q-1-5-4.5-9T75 88.5q-5 .5-8.5 4T63 101zm62-13q-5 1-9 4.5t-4 8.5v25q1 5 4.5 9t8.5 3.5q5-.5 9-4t4-8.5v-25q0-5-4-9t-9-4zm38 13v25q0 5 3.5 9t8.5 3.5q5-.5 9-4t4-8.5v-25q0-5-4-9t-9-3.5q-5 .5-9 4t-4 8.5h1zm126 162q-11 17-28 27.5T224 301q-20 0-37.5-10.5t-27-28Q150 245 150 226q0-11 5-27t11-26q2-5 7-7.5t10-2.5q5 0 9.5 3.5t6.5 9.5l3 8q2-4 4-16v-1q4-19 8-29t13-12q9-2 18 6 80 71 44 131zm-55-107q-1 5-3 16-4 19-8 27-8 14-23 14-11 0-19-14-6 18-6 27 0 14 7.5 25.5T202 270q-3-7-1-14.5t7-13.5l10-14q3-2 7-2t7 2l10 14q5 5 7 12.5t0 14.5q11-7 19-19 12-21 3.5-44T234 156z"/></svg>