<svg viewBox="0 0 300 302.0011" xmlns="http://www.w3.org/2000/svg"><path d="M63 13q-1-5 3-8.5T75 1q5 0 9 3.5t4 9q0 5.5-4 9T75 26q-5 0-8.5-3.5T63 13zm112 13q5 0 8.5-3.5t4-9q.5-5.5-3.5-9T175 1q-5 0-8.5 3.5t-3.5 9q0 5.5 3.5 9T175 26zm-50 0q5 0 8.5-3.5t4-9q.5-5.5-3.5-9T125 1q-5 0-8.5 3.5t-4 9q-.5 5.5 3.5 9t9 3.5zM25 1q-5 0-8.5 3.5t-4 9q-.5 5.5 3.5 9t9 3.5q5 0 9-3.5t4-9q0-5.5-4-9T25 1zm250 0q-5 0-8.5 3.5t-3.5 9q0 5.5 3.5 9T275 26q5 0 9-3.5t4-9q0-5.5-4-9T275 1zm-50 0q-5 0-8.5 3.5t-3.5 9q0 5.5 3.5 9T225 26q5 0 8.5-3.5t4-9q.5-5.5-3.5-9T225 1zm-48 61q-11-11-27-11t-26 11l-58 55q-3 4-3.5 9t3.5 8.5q4 3.5 9 4t9-3.5l54-52v205q0 6 3.5 9.5t8.5 3.5q5 0 9-3.5t3-9.5V83l54 52q4 3 9 3t9-3.5q4-3.5 3.5-8.5t-3.5-9l-57-55z"/></svg>