<svg viewBox="0 0 300 302.0011" xmlns="http://www.w3.org/2000/svg"><path d="M188 213q-1 6-4.5 9.5T175 226h-50q-5 0-9-3.5t-4-9q0-5.5 4-9t9-3.5h50q5 0 9 3.5t4 8.5zm-4-121q-4-3-9-3t-9 3l-16 16-16-16q-5-5-12-3t-9 9q-2 7 3 12l16 16-16 16q-5 5-3 12t9 9q7 2 12-3l16-16 16 16q4 3 9 3t8.5-3.5q3.5-3.5 3.5-8.5t-3-9l-16-16 16-16q3-4 3-9t-3-9zm91 109h-50q-5 0-9 3.5t-4 9q0 5.5 4 9t9 3.5h50q5 0 9-3.5t4-9q0-5.5-4-9t-9-3.5zm-7-75l16-16q5-5 3-12t-9-9q-7-2-12 3l-16 16-16-16q-5-5-12-3t-9 9q-2 7 3 12l16 16-16 16q-5 5-3 12t9 9q7 2 12-3l16-16 16 16q4 3 9 3t8.5-3.5q3.5-3.5 3.5-8.5t-3-9l-16-16zM75 201H25q-5 0-9 3.5t-4 9q0 5.5 4 9t9 3.5h50q5 0 9-3.5t4-9q0-5.5-4-9t-9-3.5zm9-109q-4-3-9-3t-9 3l-16 16-16-16q-5-5-12-3t-9 9q-2 7 3 12l16 16-16 16q-5 5-3 12t9 9q7 2 12-3l16-16 16 16q5 5 12 3t9-9q2-7-3-12l-16-16 16-16q3-4 3-9t-3-9z"/></svg>