<svg viewBox="0 0 300 302.0011" xmlns="http://www.w3.org/2000/svg"><path d="M200 76q5 0 9 3.5t4 9q0 5.5-4 9t-9 3.5H100q-5 0-8.5-3.5t-3.5-9q0-5.5 3.5-9T100 76h100zm96 221q-3 4-8.5 4t-8.5-4l-30-30q-14 9-30 9-24 0-40-16.5t-16-40q0-23.5 16-40t39.5-16q23.5.5 40 16.5t16.5 40q0 16-9 30l30 30q4 3 4 8.5t-4 8.5zm-77-46q13 0 22-9t9-22q0-13-9-22t-22-9.5q-13-.5-22 9t-9.5 22.5q-.5 13 9 22t22.5 9zm-56 25H88q-16 0-27-11t-11-26V63q0-15 11-26t26-11h151q5 0 8.5 3.5T250 38v100q0 6 3.5 9.5t9 3.5q5.5 0 9-3.5t3.5-8.5V38q0-15-11-26T237 1H88Q71 1 56.5 9.5t-23 23Q25 47 25 63v175q0 17 8.5 31.5t23 23Q71 301 87 301h76q5 0 8.5-3.5t3.5-9q0-5.5-3.5-9T163 276z"/></svg>