<svg viewBox="0 0 300 302.0011" xmlns="http://www.w3.org/2000/svg"><path d="M69 138q18 0 31-12.5T113 95q0-18-13-31T69 51q-18 0-31 13T25 95q0 18 13 30.5T69 138zm0-62q8 0 13.5 5.5T88 95q0 8-5.5 13T69 113q-8 0-13.5-5T50 95q0-8 5.5-13.5T69 76zm41 104q-3 4-8 5t-9-2q-11-7-24-7-17 0-29.5 11T25 215q0 5-3.5 8t-8.5 3h-2q-5-1-8-5t-3-9q3-26 22.5-43.5T69 151q21 0 38 12 4 2 5 7.5t-2 9.5zm84-92q18 0 31-12.5T238 45q0-18-13-31T194 1q-18 0-31 13t-13 31q0 18 13 30.5T194 88zm0-62q8 0 13.5 5.5T213 45q0 8-5.5 13.5T194 64q-8 0-13.5-5.5T175 45q0-8 5.5-13.5T194 26zm19 100q-24 0-44 12t-32 32q-12 20-12 43.5t12 43.5q12 20 32 32t43.5 12q23.5 0 43.5-12t32-32q12-20 12-43.5T288 170q-12-20-32-32t-44-12h1zm0 150q-17 0-31.5-8.5t-23-23q-8.5-14.5-8.5-31t8.5-31q8.5-14.5 23-23t31-8.5q16.5 0 31 8.5t23 23q8.5 14.5 8.5 31t-8.5 31q-8.5 14.5-23 23T212 276h1zm40-78q3 4 3 9t-4 9l-27 27q-9 8-21 8t-21-8l-14-14q-4-4-4-9t4-9q4-4 9-4t9 4l14 14q1 1 3 1t3-1l28-27q4-4 9-3.5t9 3.5z"/></svg>