<svg viewBox="0 0 300 302.0011" xmlns="http://www.w3.org/2000/svg"><path d="M187 113h1q15 0 26-10.5T225 76V38q0-15-11-26T188 1h-75Q97 1 86 12T75 39v37q0 16 11 26.5t26 10.5h3l23 21q5 5 12.5 5t12.5-5l24-20v-1zm-36-1l-23-20q-4-4-8-4h-7q-6 0-9.5-3.5T100 76V38q0-5 3.5-8.5T112 26h76q5 0 8.5 3.5T200 38v38q0 5-3.5 9t-9.5 4h-5q-5-1-8 3l-23 20zM69 226q18 0 31-13t13-31q0-18-13-31t-31-13q-18 0-31 13t-13 31q0 18 13 31t31 13zm0-63q8 0 13.5 5.5T88 182q0 8-5.5 13.5T69 201q-8 0-13.5-5.5T50 182q0-8 5.5-13.5T69 164v-1zm119 19q0 18 12.5 31t30.5 13q18 0 31-13t13-31q0-18-13-31t-31-13q-18 0-30.5 13T188 182zm43-19q8 0 13.5 5.5T250 182q0 8-5.5 13.5T231 201q-8 0-13-5.5t-5-13.5q0-8 5-13.5t13-4.5v-1zm-94 121q2 5-.5 9.5T129 300q-2 1-5 1t-6-2q-3-2-5-6-5-13-17-21t-27-8q-15 0-27.5 8T24 293q-2 5-6.5 7T8 300q-5-2-7-6.5t0-9.5q7-20 26-33t42-13q23 0 41.5 13t26.5 33zm155 16q-2 1-5 1t-6.5-2q-3.5-2-4.5-6-5-13-17.5-21t-27.5-8q-15 0-27 8t-17 21q-2 5-7 7t-9.5 0q-4.5-2-7-6.5t-.5-9.5q8-20 26.5-33t41.5-12.5q23 .5 42 13t26 32.5q2 5 0 9.5t-7 6.5z"/></svg>