<svg viewBox="0 0 300 302.0011" xmlns="http://www.w3.org/2000/svg"><path d="M75 301q-30 0-49-15.5t-24-42Q-3 217 6 186q9-35 40-75.5T117 41q44-32 84-38 46-8 78 19 24 28 21 67-3 35-27 75-21 37-56 69t-72.5 50.5Q107 302 75 301zM225 26q-40 2-82 28-39 24-70 62.5T30 193q-7 23-4.5 41T38 263q24 19 62 10 35-7 72-35t65-65q28-37 35-72 9-38-10-62-16-14-37-13zm-37 150q0-13-4.5-24.5T170 131q-9-9-20.5-13.5T125 114q-5-1-9 3t-3.5 9q.5 5 4 9t8.5 4q16-2 27.5 9.5T162 176q1 5 4.5 8.5t8.5 3.5q5 0 9-3.5t4-8.5zm50-50q0-13-4.5-24.5T220 81q-9-9-20.5-13.5T175 64q-5-1-9 3t-3.5 9q.5 5 4 9t8.5 4q16-2 27.5 9.5T212 126q1 5 4.5 9t8.5 3.5q5-.5 9-4t4-8.5zM138 226q0-13-4.5-24.5T120 181q-9-9-20.5-13.5T75 164q-5-1-8.5 3t-3.5 9q0 5 3.5 8.5T75 188q16-1 27.5 10.5T112 226q0 5 4 8.5t9 3.5q5 0 9-3.5t4-8.5z"/></svg>