<svg viewBox="0 0 300 302.0011" xmlns="http://www.w3.org/2000/svg"><path d="M288 1q-6 0-9.5 3.5T275 13v13h-25V13q0-5-3.5-8.5t-9-3.5q-5.5 0-9 3.5T225 13v13h-25V13q0-5-3.5-8.5t-9-3.5q-5.5 0-9 3.5T175 13v13h-25V13q0-5-3.5-8.5t-9-3.5q-5.5 0-9 3.5T125 13v38q0 21 14.5 35.5T175 101h75v150q0 10-7.5 17.5T225 276q-5 0-8.5 3.5t-3.5 9q0 5.5 3.5 9t8.5 3.5q21 0 35.5-14.5T275 251V94q11-6 18-17.5t7-25.5V13q0-5-3.5-8.5T287 1h1zm-38 75h-75q-10 0-17.5-7.5T150 51h125q0 10-7.5 17.5T250 76zm-74 68l-37-30q-17-13-39-13t-39 13l-37 30q-11 9-17.5 21.5T0 193v52q0 23 16.5 39.5T56 301h88q23 0 39.5-16.5T200 245v-52q0-15-6.5-27.5T176 144zm-1 101q0 13-9 22t-22 9H56q-13 0-22-9t-9-22v-52q0-9 4-16.5T39 163l38-29q10-8 23-8t23 8l38 29q6 6 10 13.5t4 16.5v52zm-50-44v25q0 5-3.5 8.5T113 238H88q-6 0-9.5-3.5T75 226v-25q0-5 3.5-9t8.5-3h26q5-1 8.5 3t3.5 9z"/></svg>