<svg viewBox="0 0 300 302.0011" xmlns="http://www.w3.org/2000/svg"><path d="M65 71l10 5v25q0 20 10 37.5t27.5 27.5q17.5 10 37.5 10t37.5-10q17.5-10 27.5-27.5t10-37.5V76l10-5q7-3 11-9.5t4-15q0-8.5-5.5-16T230 21L171 4q-21-5-42 0L70 21q-9 2-14.5 9.5t-5.5 16q0 8.5 4 15T65 71zm135 30q0 21-14.5 35.5T150 151q-21 0-35.5-14.5T100 101v-5q23 5 50 5t50-5v5zm-81-56q2-5 7-6t10 1l14 9 14-9q5-2 10-1t7.5 5.5q2.5 4.5 1 9.5t-5.5 8l-21 12q-6 4-12 0l-21-12q-4-3-5.5-8t1.5-9zm143 242q1 5-2 9t-8 5h-2q-5 0-8.5-3t-3.5-8q-4-29-22-48.5T171 216l-15 22 18 48q2 5-1 10t-9 5h-28q-6 0-9-5t-1-10l18-48-15-22q-27 6-45 25.5T62 290q0 5-4 8.5t-9.5 2.5q-5.5-1-8.5-5t-2-9q3-29 18.5-51t40-35q24.5-13 53.5-13t53.5 13q24.5 13 40 35t18.5 51z"/></svg>