<svg viewBox="0 0 300 302.0011" xmlns="http://www.w3.org/2000/svg"><path d="M150 76H50q-21 0-35.5 14.5T0 126v125q0 21 14.5 35.5T50 301h100q21 0 35.5-14.5T200 251V126q0-21-14.5-35.5T150 76zm25 175q0 10-7.5 17.5T150 276H50q-10 0-17.5-7.5T25 251V126q0-10 7.5-17.5T50 101h100q10 0 17.5 7.5T175 126v125zM75 226v12q0 6-3.5 9.5t-9 3.5q-5.5 0-9-3.5T50 239v-13q0-5 3.5-9t9-4q5.5 0 9 4t3.5 9zm38 0v12q0 6-4 9.5t-9 3.5q-5 0-8.5-3.5T88 239v-13q0-5 3.5-9t8.5-4q5 0 8.5 4t3.5 9h1zm37 0v12q0 6-3.5 9.5t-9 3.5q-5.5 0-9-3.5T125 239v-13q0-5 3.5-9t9-4q5.5 0 9 4t3.5 9zm-75-50v12q0 6-3.5 9.5t-9 3.5q-5.5 0-9-3.5T50 189v-13q0-5 3.5-9t9-4q5.5 0 9 4t3.5 9zm38 0v12q0 6-4 9.5t-9 3.5q-5 0-8.5-3.5T88 189v-13q0-5 3.5-8.5t8.5-4q5-.5 8.5 3.5t3.5 9h1zm37 0v12q0 6-3.5 9.5t-9 3.5q-5.5 0-9-3.5T125 189v-13q0-5 3.5-8.5t9-4q5.5-.5 9 3.5t3.5 9zm0-38q0 6-3.5 9.5T137 151H63q-6 0-9.5-3.5t-3.5-9q0-5.5 3.5-9T62 126h76q5 0 8.5 3.5t3.5 9.5v-1zM88 32V20q0-8 5-13.5T106 1q8 0 13.5 5.5T125 20v12q0 8-5.5 13.5T106 51q-8 0-13-5.5T87 32h1zm212-12v137q0 8-5.5 13.5T281 176q-8 0-13-5.5t-5-13.5V20q0-8 5-13.5T281 1q8 0 13.5 5.5T300 20zm-50-7v150q0 6-3.5 9.5t-9 3.5q-5.5 0-9-3.5T225 164V13q0-5 3.5-8.5t9-3.5q5.5 0 9 3.5T250 14v-1zm-37 0v38q0 5-4 8.5t-9 4q-5 .5-8.5-3.5t-3.5-9V13q0-5 3.5-8.5T200 1q5 0 8.5 3.5T212 14l1-1zm-75 25V13q0-5 3.5-8.5T150 1q5 0 8.5 3.5T162 14v24q1 6-3 9.5t-9 3.5q-5 0-8.5-3.5T138 38z"/></svg>