<svg viewBox="0 0 300 302.0011" xmlns="http://www.w3.org/2000/svg"><path d="M288 226H100q-16 0-27-11t-11-26V51q1-21-14-35.5T13 1Q7 1 3.5 4.5t-3.5 9q0 5.5 3.5 9T13 26q10 0 17 7.5T37 51v137q1 19 11 34.5T75 246v11q0 18 13 31t31 13q18 0 31-13t13-31v-6h37v6q0 18 13 31t31 13q18 0 31-13t13-31v-6q5 0 8.5-3.5t3.5-9q0-5.5-3.5-9T287 226h1zm-150 31q-1 8-6 13.5t-13 5.5q-8 0-13.5-5.5T100 257v-6h38v6zm125 0q0 8-5.5 13.5T244 276q-8 0-13.5-5.5T225 257v-6h38v6zm12-144H113q-11 1-18.5 8T87 138v38q1 10 8 17.5t18 7.5h162q10 0 17.5-7.5T300 176v-38q0-10-7.5-17.5T275 113zm0 63H113v-38h162v38zM113 88h37q10 1 17.5-6.5T175 64V26q0-10-7.5-17.5T150 1h-37q-11 0-18.5 7.5T87 26v37q1 11 8 18.5t18 7.5v-1zm0-62h37v37h-37V26zm162-13h-50q-10 0-17.5 7.5T200 38v25q0 11 7.5 18.5T225 89h50q10-1 17.5-8t7.5-17V38q0-10-7.5-17.5T275 13zm-50 50V38h50v25h-50z"/></svg>