<svg viewBox="0 0 300 302.0011" xmlns="http://www.w3.org/2000/svg"><path d="M200 126q0 5-3.5 9t-9.5 4h-24v62q0 5-4 9t-9 3.5q-5-.5-8.5-4T138 201v-63h-25q-6 0-9.5-3.5T100 126q0-5 3.5-9t8.5-4h26V88q0-5 3.5-8.5T150 76q5 0 9 3.5t3 8.5v25h26q5 0 8.5 4t3.5 9zm100 162q0 6-3.5 9.5T288 301H13q-6 0-9.5-3.5t-3.5-9q0-5.5 3.5-9T13 276h12V126q0-34 17-62.5T87.5 18Q116 1 150 1t62.5 17Q241 35 258 63.5t17 62.5v150h13q5 0 8.5 3.5t3.5 8.5zM50 276h200V126q0-27-13.5-50T200 39.5Q177 26 150 26t-50 13.5Q77 53 63.5 76T50 126v150z"/></svg>