<svg viewBox="0 0 300 302.0011" xmlns="http://www.w3.org/2000/svg"><path d="M293 256q-5-2-10-.5t-7 6.5q-4 9-14 12.5t-19-1.5l-30-13v-61q-1-16-13-27l-25-24 27-36 79 50q4 2 9 1t8-5.5q3-4.5 2-9.5t-6-8L169 61q-15-10-34-10h-14q-16 0-27-11L71 17q-3-3-8.5-3t-9 3.5Q50 21 50 26t4 9l23 23q8 9 19.5 13.5T121 76h14l-27 36q-8 10-8 23v26q0 7-7 11l-37 19-16-8q-10-4-13.5-13.5T27 150q2-4 .5-9t-6-7q-4.5-2-9.5-.5T5 140q-9 19-2 38.5T29 206l203 90q19 9 38.5 2t28.5-25q2-5 .5-10t-6.5-7zm-189-62q10-5 15.5-14t5.5-19v-26q0-5 3-8l32-42 21 13-26 35q-6 9-5 19t9 16l24 22q4 4 4 10v49L85 204l19-10zm82-162q0-13 9.5-22T218 1q13 0 22 9t9 22q0 13-9 22t-22 9q-13 0-22.5-9T186 32z"/></svg>