<svg viewBox="0 0 300 302.0011" xmlns="http://www.w3.org/2000/svg"><path d="M238 1H63Q46 1 31.5 9.5t-23 23Q0 47 0 64v174q0 17 8.5 31.5t23 23Q46 301 63 301h175q16 0 30.5-8.5t23-23Q300 255 300 238V63q0-16-8.5-30.5t-23-23Q254 1 237 1h1zm37 237q0 16-11 27t-27 11H63q-16 0-27-11t-11-27V63q0-15 11-26t27-11h175q15 0 26 11t11 27v174zM237 78l-22 142q-1 8-6.5 13t-14.5 5q-7 0-12.5-3.5T173 224l-23-59-23 59q-3 7-9.5 11t-14 3.5q-7.5-.5-12.5-6T85 220L63 78q-1-5 2-9.5t8-5q5-.5 9.5 2.5t4.5 8l21 131 30-79q2-4 5-6t7-2q4 0 7 2t5 6l30 79 21-131q0-5 4.5-8t9.5-2.5q5 .5 8 5t2 9.5z"/></svg>