<svg viewBox="0 0 300 302.0011" xmlns="http://www.w3.org/2000/svg"><path d="M200 32q0-8 5.5-13.5T219 13q8 0 13.5 5.5T238 32q0 8-5.5 13.5T219 51q-8 0-13.5-5.5T200 32zm-90 20q14 2 26 10 2-6 2-11l-1-4q6 4 13 4 10 0 17.5-7.5T175 26q0-10-7.5-17.5T150 1q-10 0-17 6.5T125 23q-11-10-26-10T73 24Q62 35 62 51q1 5 2 11 21-14 46-10zm180 172l-52 51q-13 13-29 19.5t-33.5 6.5q-17.5 0-33.5-6.5T113 275l-25-24q-12-13-18.5-29T63 189v-76q0-17 13-28t30-9q12 2 20 10.5t11 20.5l33-34q11-11 26.5-9.5T221 77l1 3q11-8 23-7 16 1 25 14 8 11 5 24 11 4 17.5 13t5 21.5Q296 158 288 167l-4 4q6 3 10 9 7 10 6 22.5T290 224zm-16-29q-3-4-6.5-4t-6.5 3l-26 26q-4 4-9 4t-9-4q-4-4-4-9t4-9l53-53q2-2 2.5-5t-1.5-6q-2-3-5.5-3.5T259 137l-54 54q-3 3-8.5 3t-9-3.5Q184 187 184 182t4-9l60-60q2-3 2.5-6t-1.5-6q-2-3-5.5-3t-6.5 2l-61 61q-4 4-9 4t-8.5-3.5q-3.5-3.5-3.5-9t3-8.5l41-41q2-2 2.5-5.5t-1.5-6q-2-2.5-5.5-3T188 91l-54 54q-3 3-6.5 3.5t-7-1q-3.5-1.5-6-4.5t-2.5-7v-21q0-5-2.5-9t-8-5q-5.5-1-10 3t-4.5 9v76q0 26 19 44l25 25q12 12 28 16t32.5 0q16.5-4 28.5-16l52-52q2-2 2.5-5.5t-.5-5.5zM82 278q-6-4-11-8l-31-37q-15-18-15-41v-79q0-5 4.5-9t10-3q5.5 1 9.5-2t5-8q1-5-2-9.5T44 77q-18-3-31 8T0 114v78q0 16 5.5 30.5T21 249l32 38q7 7 16 12 3 2 6 2 7 0 10.5-5t2-10q-1.5-5-5.5-8z"/></svg>