<svg viewBox="0 0 300 302.0011" xmlns="http://www.w3.org/2000/svg"><path d="M177 219q-1 9-8.5 14t-16.5 5q-16 0-27-11-2-2-1.5-5.5t2.5-5.5q2-2 5.5-2t5.5 3q6 6 15 6 4 0 6.5-2t3.5-5.5q1-3.5-8-7t-17-6.5q-6-4-8.5-9t-1.5-11q1-6 5-10.5t10-6.5q11-3 21 1 6 2 10 5 2 3 2.5 6t-1.5 5q-2 3-5.5 3t-5.5-1.5q-2-1.5-5-3.5-6-2-10.5-.5t-5 4.5q-.5 3 1.5 4l16 6q10 4 14.5 11t2.5 14zm-75-5q-4 0-6.5 4.5T88 223q-5 0-7.5-2.5T78 214v-25q0-4 2.5-6.5T88 180q5 0 7.5 4.5t7 4.5q4.5 0 6.5-4t0-8q-3-6-9-9.5T87 164q-10 0-17.5 7T62 188l1 26q0 10 7 17.5t17 7.5q7-1 13-4.5t9-9.5q2-4 0-7.5t-7-3.5zm125-50q-2 0-4.5 1.5T220 170l-7 35-9-35q-1-3-3-4.5t-5-1.5q-3 0-5.5 3t-1.5 6l15 58q1 3 3.5 5.5t6 2q3.5-.5 6-2.5t3.5-5l12-58q1-4-1.5-6.5T227 164zm48-32v106q0 17-8.5 31.5t-23 23Q229 301 212 301H88q-17 0-31.5-8.5t-23-23Q25 255 25 238V63q0-16 8.5-30.5t23-23Q71 1 87 1h57q17 0 33 6.5T206 27l43 43q13 13 19.5 29t6.5 33zm-87-88q-6-6-13-10v54q0 6 3.5 9.5t8.5 3.5h55q-4-7-10-13l-44-44zm62 88v-6h-63q-15 0-26-11t-11-26V26H87q-15 0-26 11T50 64v174q0 16 11 27t26 11h125q16 0 27-11t11-27V132z"/></svg>