<svg viewBox="0 0 300 302.0011" xmlns="http://www.w3.org/2000/svg"><path d="M288 213h-2q-2-11-9-21l1-1q4-4 4-9t-4-9q-4-4-9-4t-9 4l-1 1q-10-7-21-9v-2q0-5-4-8.5t-9-3.5q-5 0-9 3.5t-4 8.5v2q-11 2-21 9l-1-1q-4-4-9-4t-9 4q-4 4-4 9t4 9l1 1q-7 10-9 22h-28q-2-12-9-22l1-1q4-4 4-9t-4-9q-4-4-9-4t-9 4l-1 1q-10-7-22-9v-2q0-5-3.5-8.5T75 151q-5 0-8.5 3.5T63 163v2q-12 2-22 9l-1-1q-4-4-9-4t-9 4q-4 4-4 9t4 9l1 1q-7 10-9 22h-1q-6-1-9.5 3T0 226q0 5 3.5 8.5T12 238h2q2 12 9 22l-1 1q-4 4-4 9t4 9q4 4 9 4t9-4l1-1q10 7 22 9v1q0 6 3.5 9.5T75 301q5 0 8.5-3.5T87 289v-2q12-2 22-9l1 1q4 4 9 4t9-4q4-4 4-9t-4-9l-1-1q7-10 9-22h28q2 12 9 22l-1 1q-4 4-4 9t4 9q4 4 9 4t9-4l1-1q10 7 22 9v1q0 6 3.5 9.5t8.5 3.5q5 0 9-3.5t4-8.5v-2q11-2 21-9l1 1q4 4 9 4t9-4q4-4 4-9t-4-9l-1-1q7-10 9-22h2q5 0 8.5-3.5t3.5-8.5q0-5-3.5-8.5T288 214v-1zm-63 50q-16 0-26.5-10.5T188 226q0-16 10.5-26.5t26.5-11q16-.5 27 10.5t11 27q0 16-11 26.5T225 263zm-150 0q-16 0-27-10.5T37.5 226q.5-16 11-27T75 188q16 0 27 11t11 27q0 16-11 26.5T75 263zM13 151q5 0 8.5-3.5T25 139q0-11 7.5-18t17.5-7h200q10-1 17.5 6.5T275 139q0 5 3.5 8.5t9 3.5q5.5 0 9-3.5t3.5-8.5q0-19-12.5-33.5T256 89l-51-64q-9-12-21.5-18T156 1h-6q-16 0-27 11t-10 27v49H50q-21 0-35.5 15T0 139q0 5 3.5 8.5T12 151h1zM138 38q-1-5 3-8.5t9-3.5h6q9 0 16.5 3.5T186 40l38 48h-86V38z"/></svg>