<svg viewBox="0 0 300 302.0011" xmlns="http://www.w3.org/2000/svg"><path d="M121 240l-8 50q0 5-3.5 8t-8.5 3h-2q-5-1-8-5.5t-2-9.5l7-49q1-8 8-10.5t12.5 2Q122 233 121 240zm142-139v187q0 6-3.5 9.5t-9 3.5q-5.5 0-9-3.5T238 289V151h-37q-8 0-12-7l-8-16-5 32q-1 4-4.5 7t-8.5 3h-2q-5-1-8-5.5t-2-9.5l10-54h-25l-12 67q-1 4 .5 7.5t4.5 5.5l53 35q6 3 6 10v62q0 6-3.5 9.5t-9 3.5q-5.5 0-9-3.5T163 289v-56l-47-31q-6-4-10-9-11 8-24 8-18 0-30-12-14-14-14-38 0-21 11.5-38T81 86q20-10 44-10h35q11 0 20 5.5T194 97l14 29h30v-25q0-5 3.5-9t9-4q5.5 0 9 4t3.5 9zm-163 60l10-59q-20 4-33.5 17T63 151q0 15 8 21 5 4 11 4t11-4.5q5-4.5 7-10.5zm63-98q13 0 22-9t9-22q0-13-9-22t-22-9q-13 0-22 9t-9 22q0 13 9 22t22 9z"/></svg>