<svg viewBox="0 0 300 302.0011" xmlns="http://www.w3.org/2000/svg"><path d="M150 1q-41 0-75.5 20T20 75.5Q0 110 0 151q2 57 33 95 29 35 73 47.5t88 0q44-12.5 73-47.5 31-38 33-95 0-41-20-75.5T225.5 21Q191 1 150 1zm0 275q-34 0-62.5-17T42 213.5Q25 185 25 151q2-47 28-79 23-30 60-40t74 0q37 10 60 40 26 32 28 79 0 34-17 62.5T212.5 259Q184 276 150 276zm-37-150q0-9-5-17t-8-8q-3 0-7.5 8T88 126q0 5-4 9t-9 3.5q-5-.5-8.5-4T63 126q-1-19 10-34.5T100 76q16 0 27 15.5t11 34.5q0 5-4 9t-9 3.5q-5-.5-8.5-4T113 126zm125 0q-1 5-4.5 9t-8.5 3.5q-5-.5-9-4t-4-8.5q1-9-4-17t-8-8q-3 0-7.5 8t-4.5 17q0 5-4 9t-9 3.5q-5-.5-9-4t-4-8.5q2-23 12.5-36.5T200 76q15 0 25.5 13.5T238 126zm-50 56q0-13-9.5-22t-22.5-9h-21q-6 0-9.5 3.5t-3.5 9q0 5.5 3.5 9t9.5 3.5h21q3 0 5 2t2 4.5q0 2.5-2 4.5t-5 2h-6q-5-1-9 3t-3.5 9q.5 5 4 8.5t8.5 3.5h6q3 1 5 2.5t2 4q0 2.5-2 4.5t-5 2h-21q-6 0-9.5 3.5t-3.5 9q0 5.5 3.5 9t9.5 3.5h21q9 0 16.5-4.5T184 234q4-8 3-17t-6-16q6-8 6-19h1z"/></svg>