<svg viewBox="0 0 300 302.0011" xmlns="http://www.w3.org/2000/svg"><path d="M138 51q-24 0-44 12T62 95q-12 20-12 43.5T62 182q12 20 32 32t43.5 12q23.5 0 43.5-12t32-32q12-20 12-43.5T213 95q-12-20-32-32t-43-12zm0 150q-17 0-31.5-8.5t-23-23Q75 155 75 138.5t8.5-31q8.5-14.5 23-23t31-8.5q16.5 0 31 8.5t23 23q8.5 14.5 8.5 31t-8.5 31q-8.5 14.5-23 23T137 201h1zm25-63q0 11-7.5 18t-18 7q-10.5 0-17.5-7t-7-17.5q0-10.5 7-18t17.5-7.5q10.5 0 18 7.5T163 138zm137 78l-17 75q-1 4-4 7t-8 3h-17q-5 0-8-3t-4-7l-17-75q-2-10 5-18.5t18-8.5h2v-50q0-31-15-57t-41-41q-26-15-56.5-15T81 41Q55 56 40 82t-15 56.5Q25 169 40 195t41 41q26 15 56 15 24 0 46-9 4-2 9-.5t7 6.5q2 5 0 9.5t-6 7.5q-27 11-55 11-38 0-69.5-18.5t-50-50Q0 176 0 138.5t18.5-69q18.5-31.5 50-50t69-18.5q37.5 0 69 18.5t50 50Q275 101 275 138v50h2q11 1 18 9t5 19z"/></svg>