<svg viewBox="0 0 300 302.0011" xmlns="http://www.w3.org/2000/svg"><path d="M73 106q6 1 10.5 6.5T88 124v114q0 6 3.5 9.5t8.5 3.5q5 0 9-3.5t4-8.5V132q0-8 5-13.5t13-5.5q8 0 13.5 5.5T150 132v44q0 5 3.5 8.5t9 4q5.5.5 9-3.5t3.5-9v-46q0-7 5-12.5t12-6.5q20-2 39-6 29-6 47-16 22-13 22-31.5T277 26q-20-13-56-19-33-6-71-6T79 7q-36 6-56 18Q0 39 0 56.5t18.5 30Q37 99 73 106zm77-80q38 0 69 6 26 5 42 13 14 7 14 11.5T265.5 67Q256 73 239 78q-22 6-50 9-16 1-28 14-12-13-28.5-13T104 98Q94 85 78 82q-26-6-41-14-12-6-12-11t14-12q16-8 42-13 31-6 69-6zm149 230q-10 22-56 34-40 11-93 11t-93-11q-46-12-56-34-2-5 0-9.5t6.5-7Q12 237 17 239t7.5 8q2.5 6 19 13T86 271q30 5 64 5t64-5q26-4 42.5-11t19-13q2.5-6 7.5-8t9.5.5q4.5 2.5 6.5 7t0 9.5zm0-62q-10 21-56 34-40 10-93 10-5 1-9-3t-3.5-9q.5-5 4-9t8.5-4q34 0 64-5 26-4 42.5-11t19-12.5q2.5-5.5 7.5-7.5t9.5 0q4.5 2 6.5 7t0 10zM62 216q-1 4-4.5 6.5T51 225h-5q-36-12-45-31-2-5 0-10t6.5-7q4.5-2 9.5 0t6.5 6q1.5 4 9.5 8.5t21 9.5q5 1 7 6t1 10v-1zm231-101q4 2 6 6.5t0 9.5q-8 17-37 28-20 8-48 12-3 1-6 0-7-2-8-10-1-5 2-9.5t9-5.5q30-4 49-13 13-6 15.5-11.5t7.5-7.5q5-2 10 1zM62 154q-1 4-4.5 6.5T51 163q-3 0-5-1-36-12-45-31-2-5 0-9.5t6.5-7Q12 112 17 114t6.5 6q1.5 4 9.5 9t21 9q5 2 7 6.5t1 9.5z"/></svg>