<svg viewBox="0 0 300 302.0011" xmlns="http://www.w3.org/2000/svg"><path d="M238 26H124q-14 0-27 6.5T75 50L3 143q-3 4-3 8t3 8l72 93q9 11 22 17.5t27 6.5h114q16 0 30.5-8.5t23-23Q300 230 300 214V88q0-16-8.5-30.5t-23-23Q254 26 237 26h1zm37 187q0 16-11 27t-27 11H124q-8 0-16-4t-13-10l-67-86 67-86q5-6 13-10t16-4h114q15 0 26 11t11 27v124zm-60-84l-22 22 22 22q5 5 3.5 12.5t-9 9Q202 196 197 191l-22-22-22 22q-4 4-9 4t-9-4q-4-4-4-9t4-9l22-22-22-22q-4-4-4-9t4-9q4-4 9-4t9 4l22 22 22-22q4-4 9-4t9 4q4 4 4 9t-4 9z"/></svg>