<svg viewBox="0 0 300 302.0011" xmlns="http://www.w3.org/2000/svg"><path d="M256 26L185 4q-16-5-32-1.5T124.5 17Q112 28 107 44l-2 7H63q-17 0-31.5 8.5t-23 23Q0 97 0 113v125q0 17 8.5 31.5t23 23Q46 301 62 301h76q14 0 27-6.5t22-17.5h8q21 0 37.5-12t22.5-32l43-130q4-16 0-32t-15-28q-11-12-27-17zM138 276H63q-16 0-27-11t-11-26V113q0-15 11-26t26-11h76q15 0 26 11t11 27v124q0 16-11 27t-26 11zM274 96l-43 130q-3 11-12 18t-21 8q2-7 2-13V113q0-16-8.5-30.5t-23-23Q154 51 138 51h-7q5-14 18.5-21t27.5-2l71 21q15 5 22.5 18.5T274 96zm-124 67q0 13-11 30-10 15-23 25-7 6-16 6t-16-6q-13-10-23-25-11-17-11-28.5t7.5-18.5q7.5-7 17.5-7.5t17.5 7Q100 153 100 164q0-11 7.5-18t17.5-7.5q10-.5 17.5 7T150 164v-1z"/></svg>