<svg viewBox="0 0 300 302.0011" xmlns="http://www.w3.org/2000/svg"><path d="M300 188q0 6-3.5 9.5T288 201h-88q-5 0-8.5 3.5t-3.5 9q0 5.5 3.5 9t8.5 3.5h38q15 0 26 11t11 26.5q0 15.5-11 26.5t-26 11H13q-6 0-9.5-3.5t-3.5-9q0-5.5 3.5-9T13 276h225q5 0 8.5-3.5t3.5-9q0-5.5-3.5-9T238 251h-38q-15 0-26-11t-11-26.5q0-15.5 11-26.5t26-11h88q5 0 8.5 3.5t3.5 8.5zM4 247q-5-5-4-11l21-88q3-13 12.5-23T56 110l46-14 84-84q11-11 26.5-11T239 12q11 11 11 26.5T239 65l-84 84-14 46q-5 13-15 22.5T103 230l-90 21q-6 0-9-4zm121-139l18 18 78-79q4-3 4-8.5t-4-8.5q-3-4-8.5-4t-8.5 4l-79 78zm-80 46l-10 45 31-32q4-4 9-4t9 4q4 4 4 9t-4 9l-32 31 45-10q7-2 12-6.5t8-11.5l12-40-26-26-40 12q-7 3-11.5 8T45 154z"/></svg>