<svg viewBox="0 0 300 302.0011" xmlns="http://www.w3.org/2000/svg"><path d="M183 70q21-17 28-35 2-6 1.5-12t-4-11q-3.5-5-9-8T187 1h-74q-7 0-12.5 3t-9 8q-3.5 5-4 11T89 35q7 18 28 35-28 10-52 35.5t-38.5 58Q12 196 13 226q0 20 10 37.5T50 291q17 10 38 10h125q20 0 37-10t27-27.5q10-17.5 10-37.5 1-30-13.5-62.5t-38.5-58Q211 80 183 70zm5-44q-5 10-17 21-10 9-21 15-11-6-21-14-12-11-17-22h76zm24 250H88q-21 0-35.5-14.5T38 226q0-32 16.5-64t43-53Q124 88 150 88t52.5 21q26.5 21 43.5 53t17 64q0 21-15 35.5T212 276zm-62 0q-5 0-9-3.5t-4-9.5v-12h-3q-10 0-18.5-5T102 232q-3-4-1.5-9t6-7.5q4.5-2.5 9.5-1.5t8 6.5q3 5.5 10 5.5h28q6 0 9.5-3.5t3.5-8q0-4.5-2.5-7T167 204l-38-6q-13-2-21-12t-8-23q0-15 11-26t26-11v-13q0-5 4-8.5t9-3.5q5 0 8.5 3.5t3.5 9.5v12h4q10 0 18.5 5t13.5 14q3 4 1.5 9t-6 7.5Q189 164 184 163t-8-6.5q-3-5.5-10-5.5h-29q-5 0-8.5 3.5t-3.5 8q0 4.5 2.5 7t5.5 3.5l38 6q13 2 21 12t8 23q0 15-11 26t-27 11v13q0 5-3.5 8.5T150 276z"/></svg>