<svg viewBox="0 0 300 302.0011" xmlns="http://www.w3.org/2000/svg"><path d="M238 51h-14q-5-22-22-36T163 1h-25q-23 0-40 14T76 51H63q-17 0-31.5 8.5t-23 23Q0 97 0 114v124q0 17 8.5 31.5t23 23Q46 301 63 301h175q16 0 30.5-8.5t23-23Q300 255 300 238V113q0-16-8.5-30.5t-23-23Q254 51 237 51h1zM138 26h25q12 0 21.5 7T198 51h-96q4-11 13.5-18t22.5-7zm137 212q0 16-11 27t-27 11h-12V113q0-5-3.5-8.5t-9-3.5q-5.5 0-9 3.5T200 113v163H100V113q0-5-3.5-8.5t-9-3.5q-5.5 0-9 3.5T75 113v163H63q-16 0-27-11t-11-27V113q0-15 11-26t27-11h175q15 0 26 11t11 26v125z"/></svg>