<svg viewBox="0 0 300 302.0011" xmlns="http://www.w3.org/2000/svg"><path d="M113 276H50q-10 0-17.5-7.5T25 251q0-10 7.5-17.5T50 226h38q5 0 8.5-3.5t3.5-9q0-5.5-3.5-9T88 201H75V26h113q15 0 26 11t11 27v24q0 6 3.5 9.5t9 3.5q5.5 0 9-3.5T250 88V63q0-16-8.5-30.5t-23-23Q204 1 187 1H63Q46 1 31.5 9.5t-23 23Q0 47 0 64v187q0 21 14.5 35.5T50 301h63q5 0 8.5-3.5t3.5-9q0-5.5-3.5-9T113 276zM50 28v173q-13 0-25 7V63q0-12 7-21.5T50 28zm163 98q-24 0-44 12t-32 32q-12 20-12 43.5t12 43.5q12 20 32 32t43.5 12q23.5 0 43.5-12t32-32q12-20 12-43.5T288 170q-12-20-32-32t-43-12zm0 150q-17 0-31.5-8.5t-23-23q-8.5-14.5-8.5-31t8.5-31q8.5-14.5 23-23t31-8.5q16.5 0 31 8.5t23 23q8.5 14.5 8.5 31t-8.5 31q-8.5 14.5-23 23T212 276h1zm37-78q6 6 6 15.5t-6 15.5l-19 19q-3 3-8 3-2 0-4.5-1t-4.5-4q-2-3-1-6v-14h-25q-6 0-9.5-3.5t-3.5-9q0-5.5 3.5-9t9.5-3.5h25v-14q0-3 1.5-6t4.5-4q3-1 6.5-.5t5.5 2.5l19 19z"/></svg>