<svg viewBox="0 0 300 302.0011" xmlns="http://www.w3.org/2000/svg"><path d="M288 263h-16l-17-49q-4-11-13.5-18t-22.5-7h-44q-10-1-17.5-8t-7.5-18h75q5 0 9-3.5t3.5-8.5q-.5-5-4-9t-8.5-4h-75V99q18-4 28.5-20t8.5-34.5q-2-18.5-16.5-31T137.5 1q-18.5 0-33 12.5T88 44.5Q86 63 96.5 79T125 99v64q0 21 14.5 35.5T174 213q-5 29-27.5 47T95 276q-29-2-49-22.5T25 204q-1-29 17.5-51T89 127q5-1 8.5-5t2.5-9.5q-1-5.5-5-8.5t-9-2q-26 4-46 19T9.5 158.5Q-1 181 0 206.5T14.5 253q13.5 21 35 34t47 14q25.5 1 48-10.5t37-31.5q14.5-20 17.5-45h20q5-1 8 1.5t4 6.5l20 58q1 4 4 6t8 2h25q5 1 8.5-3t3.5-9q0-5-3.5-9t-9.5-4h1zM113 51q0-10 7-17.5t17.5-7.5q10.5 0 17.5 7.5t7.5 17.5q.5 10-7 17.5t-18 7.5Q127 76 120 68.5T113 51z"/></svg>