<svg viewBox="0 0 300 302.0011" xmlns="http://www.w3.org/2000/svg"><path d="M238 1H63Q46 1 31.5 9.5t-23 23Q0 47 0 63v175q0 17 8.5 31.5t23 23Q46 301 62 301h176q16 0 30.5-8.5t23-23Q300 255 300 238V63q0-16-8.5-30.5t-23-23Q254 1 237 1h1zm37 237q0 16-11 27t-27 11H63q-16 0-27-11t-11-26V63q0-15 11-26t26-11h176q15 0 26 11t11 27v174zm-50-125q0 6-3.5 9.5t-9 3.5q-5.5 0-9-3.5t-3.5-9-3.5-9Q193 101 188 101h-25v100h12q5 0 9 3.5t3.5 9q-.5 5.5-4 9T175 226h-50q-5 0-8.5-3.5t-4-9q-.5-5.5 3.5-9t9-3.5h13V101h-25q-6 0-9.5 3.5t-3.5 9-3.5 9q-3.5 3.5-9 3.5t-9-3.5Q75 119 75 114q0-16 11-27t27-11h75q15 0 26 11t11 27v-1z"/></svg>