<svg viewBox="0 0 300 302.0011" xmlns="http://www.w3.org/2000/svg"><path d="M100 238q0 6-3.5 9.5T88 251H63q-17 0-31.5-8.5t-23-23Q0 205 0 189v-76q0-16 8.5-30.5t23-23Q46 51 63 51h25q5 0 8.5 3.5t3.5 9q0 5.5-3.5 9T88 76H63q-16 0-27 11t-11 26v75q0 16 11 27t27 11h25q5 0 8.5 3.5t3.5 8.5zm85-87q-4-6-9.5-9.5T164 138l-50 1 37-70q3-4 1.5-9t-6-7.5q-4.5-2.5-9.5-1t-8 6.5l-40 75q-4 12 3 21t20 9h50l-34 70q-3 5-1 9.5t6 7.5q3 1 6 1 8 0 11-7l34-69q3-5 3.5-11.5T185 151zm103-50h-14q-5-22-22-36t-39-14h-25q-6 0-9.5 3.5t-3.5 9q0 5.5 3.5 9T187 76h26q15 0 26 11t11 26v75q0 16-11 27t-26 11h-25q-6 0-9.5 3.5t-3.5 9q0 5.5 3.5 9t8.5 3.5h26q22 0 39-14t22-36h14q5 0 8.5-3.5t3.5-8.5v-76q0-5-3.5-8.5T287 101h1z"/></svg>