<svg viewBox="0 0 300 302.0011" xmlns="http://www.w3.org/2000/svg"><path d="M225 101q0 10-7.5 17.5T200 126q-10 0-17.5-7.5T175 101q0-10 7.5-17.5T200 76q10 0 17.5 7.5T225 101zm71 196q-3 4-8.5 4t-8.5-4L4 22q-4-3-4-8.5t3.5-9Q7 1 12.5 1T21 5l20 19q15-11 34-11h150q17 0 31.5 8.5t23 23Q288 59 288 76v150q0 19-11 34l19 20q4 3 4 8.5t-4 8.5zM59 42l200 200q4-8 4-16V76q0-16-11-27t-27-10H75q-8-1-16 3zm154 221H75q-14 0-24.5-9T38 231l58-59q4-3 4-8.5t-3.5-9q-3.5-3.5-9-3.5t-8.5 4l-41 41V88q0-5-4-8.5T25 76q-5 0-8.5 3.5T13 88v138q0 17 8 31.5T43.5 280q14.5 8 31.5 8h138q5 0 8.5-3.5t3.5-8.5q0-5-3.5-8.5T212 264l1-1z"/></svg>