<svg viewBox="0 0 300 302.0011" xmlns="http://www.w3.org/2000/svg"><path d="M100 238q-5 1-9-3t-4-9V113q1-20 15.5-35T138 63h31q23 0 39.5 16.5t16.5 40q0 23.5-16.5 40T169 176h-56v50q-1 5-4.5 8.5T100 238zm13-87h56q13 0 22-9t9-22q0-13-9-22.5T169 88h-31q-11 1-18.5 8t-7.5 17v38h1zm37 150q-41 0-75.5-20T20 226.5Q0 192 0 151t20-75.5Q40 41 74.5 21T150 1q41 0 75.5 20T280 75.5q20 34.5 20 75.5t-20 75.5Q260 261 225.5 281T150 301zm0-275q-34 0-62.5 17T42 88.5Q25 117 25 151t17 62.5Q59 242 87.5 259t62.5 17q34 0 62.5-17t45.5-45.5q17-28.5 17-62.5t-17-62.5Q241 60 212.5 43T150 26z"/></svg>