<svg viewBox="0 0 300 302.0011" xmlns="http://www.w3.org/2000/svg"><path d="M213 88q-1 6-4.5 9.5T200 101h-37v87q0 6-4 9.5t-9 3.5q-5 0-8.5-3.5T138 188v-87h-38q-5 0-8.5-3.5t-4-9q-.5-5.5 3.5-9t9-3.5h100q5 0 8.5 3.5T212 88h1zm87-37v150q0 21-14.5 35.5T250 251h-36l-48 40q-7 6-16 6t-17-7l-46-39H50q-21 0-35.5-14.5T0 201V51q0-21 14.5-35.5T50 1h200q21 0 35.5 14.5T300 51zm-25 0q0-10-7.5-17.5T250 26H50q-10 0-17.5 7.5T25 51v150q0 10 7.5 17.5T50 226h41q5 0 8 3l51 43 52-43q3-3 8-3h40q10 0 17.5-7.5T275 201V51z"/></svg>