<svg viewBox="0 0 300 302.0011" xmlns="http://www.w3.org/2000/svg"><path d="M187 130q0 4 2.5 6t5.5 2h18q15 0 24-11.5t9-28.5q0-17-9-28t-24-11h-18q-4 0-6 2t-2 6v63zm26-56q9 0 13.5 7.5t4.5 17q0 9.5-4.5 16.5t-13.5 7l-10 1V74h10zm-61 18q-3-1-7-2l-4-1q-4-1-7.5-4t-1.5-7q2-4 6-4.5t8.5 1Q151 76 156 78q7 4 11-1 1-2 1.5-4.5t-1.5-5q-2-2.5-5-3.5-14-9-30-4-9 2-13 10-2 4-3 8-1 7 3.5 13.5T131 100l16 7q3 1 6 3.5t1.5 6.5q-1.5 4-5.5 5-6 3-12 1t-11-6l-2-2q-2-1-4.5-1t-4.5 2q-2 2-2.5 5.5t1.5 5.5q12 12 29 12 10 1 17.5-5t9.5-15q1-6-1-11.5t-6.5-9.5q-4.5-4-10.5-6zM52 66v65q0 4 2 6t5.5 2q3.5 0 5.5-2t2-6v-20h11q11 0 18.5-8t7.5-19q0-11-7.5-18.5T78 58H59q-3 0-5 2t-2 6zm26 29H67V73h11q4 0 7 3.5t3 8q0 4.5-3 7.5t-7 3zM237 1H63Q46 1 31.5 9.5t-23 23Q0 47 0 64v175q0 16 8.5 30.5t23 23Q46 301 63 301h141q13 0 24.5-4.5T248 283l34-34q9-8 13.5-19.5T300 205V64q0-17-8.5-31.5t-23-23Q254 1 237 1zM25 238V64q0-16 11-27t27-11h175q15 0 26 11t11 27v124h-50q-16 0-26.5 11T188 226v50H63q-16 0-27-11t-11-27zm206 27q-8 8-18 10v-49q0-5 3.5-8.5t8.5-3.5h49q-2 10-10 18l-33 33z"/></svg>