<svg viewBox="0 0 300 302.0011" xmlns="http://www.w3.org/2000/svg"><path d="M150 301q-41 0-75.5-20T20 226.5Q0 192 0 151t20-75.5Q40 41 74.5 21T150 1q41 0 75.5 20T280 75.5q20 34.5 20 75.5t-20 75.5Q260 261 225.5 281T150 301zm0-275q-34 0-62.5 17T42 88.5Q25 117 25 151t17 62.5Q59 242 87.5 259t62.5 17q34 0 62.5-17t45.5-45.5q17-28.5 17-62.5t-17-62.5Q241 60 212.5 43T150 26zm50 187q0-5-3.5-8.5T187 201h-59q5-5 22-14 23-13 34-23 17-17 16-41-1-20-15.5-33.5t-35-13.5q-20.5 0-35 14.5T100 126q0 5 3.5 8.5t9 3.5q5.5 0 9-3.5t3.5-8.5q0-10 7.5-17.5T150 101q10 0 17.5 7t7.5 16q1 13-10 23-7 7-27 18l-1 1q-12 6-17 10-9 6-14 11.5t-6 12q-1 6.5 2 13t8.5 10Q116 226 123 226h65q5 0 8.5-3.5t3.5-9.5z"/></svg>