<svg viewBox="0 0 300 302.0011" xmlns="http://www.w3.org/2000/svg"><path d="M288 276H38q-6 0-9.5-3.5T25 263V13q0-5-3.5-8.5t-9-3.5Q7 1 3.5 4.5T0 13v250q0 16 11 27t26 11h251q5 0 8.5-3.5t3.5-9q0-5.5-3.5-9T288 276zm-100-25q5 0 8.5-3.5t3.5-8.5v-88q0-5-3.5-9t-9-4q-5.5 0-9 4t-3.5 9v87q0 6 3.5 9.5t8.5 3.5h1zm-100 0q5 0 8.5-3.5t3.5-8.5v-88q0-5-3.5-9t-9-4q-5.5 0-9 4t-3.5 9v87q0 6 3.5 9.5T88 251zm150 0q5 0 8.5-3.5t3.5-8.5V88q0-5-3.5-8.5t-9-3.5q-5.5 0-9 3.5T225 88v150q0 6 3.5 9.5t8.5 3.5h1zm-100 0q5 0 8.5-3.5t3.5-8.5V88q0-5-3.5-8.5t-9-3.5q-5.5 0-9 3.5T125 88v150q0 6 3.5 9.5t9.5 3.5z"/></svg>