<svg viewBox="0 0 300 302.0011" xmlns="http://www.w3.org/2000/svg"><path d="M187 89V39q0-5 4-9t9-4q5 0 8.5 4t3.5 9v32l66-66q5-5 12.5-3.5t9 9Q301 18 296 23l-66 66h32q5 0 9 3.5t4 8.5q0 5-4 9t-9 4h-50q-10 0-17.5-7.5T187 89zm101 122q12 11 12 27t-12 27l-11 13q-29 28-75 21-41-6-87-38-43-31-74-74-33-46-39-87-7-46 20-75l14-13Q48 1 63.5 1T90 13l24 30q11 11 11 26.5T114 97l-15 18q13 29 35.5 51.5T186 202l18-15q12-11 27.5-11t26.5 11l30 24zm-17 18l-30-24q-4-4-9.5-4t-9.5 4l-26 21q-6 4-12 2-38-15-67-43.5T73 117q-2-6 2-12l21-26q4-4 4-9.5T96 60L72 30q-4-4-9.5-4T53 30L39 43q-20 24-11 62 8 34 37 72 27 35 64.5 62.5T201 274q37 7 58-13l11-13q4-4 4.5-9.5T271 229z"/></svg>