<svg viewBox="0 0 300 302.0011" xmlns="http://www.w3.org/2000/svg"><path d="M222 301q-30 1-67.5-17.5t-72-50.5Q48 201 27 165 3 126 1 91q-3-39 21-67l15-12Q48 1 64 1t27 11l23 31q11 11 11 26.5T114 96l-14 19q12 29 34.5 51.5T186 201l19-14q11-11 26.5-11t26.5 11l31 23q11 12 11 28t-11 27l-12 13q-11 11-25 17t-30 6zM63 26q-5 0-9 4L39 42q-20 25-11 63 8 34 37 71 27 36 64.5 63t71.5 34q37 8 58-12l11-13q5-4 5-9.5t-4-10.5l-30-23q-4-4-9.5-4t-9.5 4l-26 20q-5 5-12 2-38-14-67-43t-43-67q-3-7 2-12l20-26q4-4 4-9.5T96 60L73 30q-4-4-10-4zm150 170zm69-38q22-33 18-69-5-33-30-58T212 2q-36-5-69 17-6 4-5.5 11.5t7 10.5q6.5 3 12.5-2 25-16 52-13 25 4 43.5 22.5T275 92q3 27-13 52-5 6-2 12.5t10.5 7q7.5.5 11.5-5.5zm-48-23q3-4 3-9t-3-9l-21-21V63q0-5-4-8.5t-9-3.5q-5 0-8.5 3.5T187 63v38q1 5 4 9l25 25q4 3 9 3t9-3z"/></svg>