<svg viewBox="0 0 300 302.0011" xmlns="http://www.w3.org/2000/svg"><path d="M238 263q0 6-4 9.5t-9 3.5H75q-5 0-9-3.5t-4-9q0-5.5 4-9t9-3.5h150q5 0 9 3.5t4 9.5v-1zM75 226q5 0 9-3.5t4-9q0-5.5-4-9t-9-3.5q-5 0-8.5 3.5t-3.5 9q0 5.5 3.5 9T75 226zm-50 25q-5 0-8.5 3.5t-3.5 9q0 5.5 3.5 9T25 276q5 0 9-3.5t4-9q0-5.5-4-9t-9-3.5zm0-50q-5 0-9 3.5t-3.5 9q.5 5.5 4 9T25 226q5 0 9-3.5t4-9q0-5.5-4-9t-9-3.5zm113 12q0-5-4-8.5t-9-3.5q-5 0-8.5 3.5t-3.5 9q0 5.5 3.5 9t8.5 3.5q5 0 8.5-3.5t3.5-8.5l1-1zm162-98l-1 15q0 14-10 24t-24 10l-32-5q-13 0-22.5-9.5T200 126l-2-16q-24-9-48.5-9t-47.5 9l-2 16q-1 14-10.5 23.5T67 159l-32 5q-14 0-24-10T1 129l-1-14q0-27 20-47t55-31q35-11 75-11t75 11q35 11 55 31t20 47zm-25-1q0-16-12-28-18-18-50-27-30-8-65-7.5T83 61q-30 9-46 25-12 12-12 29l1 14q0 4 2.5 6.5T34 138l32-4q3 0 6-2.5t3-6.5l3-25q1-7 7-10 32-14 64.5-14T215 90q6 3 7 10l3 25q0 4 3 6.5t6 2.5l32 4q3 0 5.5-2.5t2.5-6.5l1-15zm-87 99q0-5-4-8.5t-9-3.5q-5 0-8.5 3.5t-3.5 9q0 5.5 3.5 9t8.5 3.5q5 0 8.5-3.5t3.5-8.5l1-1zm87-12q-5 0-8.5 3.5t-3.5 9q0 5.5 3.5 9t8.5 3.5q5 0 8.5-3.5t4-9q.5-5.5-3.5-9t-9-3.5zm0 50q-5 0-8.5 3.5t-3.5 9q0 5.5 3.5 9t8.5 3.5q5 0 9-3.5t4-9q0-5.5-4-9t-9-3.5zm-50-50q-5 0-8.5 3.5t-3.5 9q0 5.5 3.5 9t8.5 3.5q5 0 8.5-3.5t3.5-9q0-5.5-3.5-9T225 201z"/></svg>