<svg viewBox="0 0 300 302.0011" xmlns="http://www.w3.org/2000/svg"><path d="M256 213q-9 0-17 4l-34-42q7-11 7.5-24t-7.5-24l33-42q9 3 18 3 18 0 31-12.5T300 45q0-18-13-31T256 1q-13 0-23.5 7T217 26H83Q78 15 67.5 8T44 1Q26 1 13 14T0 45q0 13 7 23.5T25 84v134q-11 5-18 15.5T0 257q0 18 13 31t31 13q13 0 23.5-7T83 276h134q5 11 15.5 18t23.5 7q18 0 31-13t13-31q0-18-13-30.5T256 214v-1zm-206 1V88q14-2 24.5-12.5T87 51h126q1 9 6 17l-33 43q-8-4-17-4-18 0-31 13t-13 31q0 18 13 31t31 13q9 0 17-4l34 42q-6 8-7 18H87q-2-14-12.5-24.5T50 214zm138-63q0 8-5.5 13.5T169 170q-8 0-13.5-5.5T150 151q0-8 5.5-13.5T169 132q8 0 13.5 5.5T187 151h1zm68-125q8 0 13.5 5.5T275 45q0 8-5.5 13T256 63q-8 0-13-5t-5-13q0-8 5-13.5t13-5.5zM44 26q8 0 13.5 5.5t5 13.5Q62 53 57 58.5t-13 5Q36 63 30.5 58T25 45q0-8 5.5-13.5T44 26zm0 250q-8 0-13.5-5.5T25 257q0-8 5.5-13.5T44 238q8 0 13.5 5.5T63 257q0 8-5.5 13.5T44 276zm212 0q-8 0-13-5.5t-5-13.5q0-8 5-13.5t13-5q8 .5 13.5 5.5t5.5 13q0 8-5.5 13.5T256 276z"/></svg>