<svg viewBox="0 0 300 302.0011" xmlns="http://www.w3.org/2000/svg"><path d="M287 47q-13-11-31-8-4 1-7 2-4-12-14-20t-22-8q-10 0-19 5-5-8-13.5-12.5T163 1q-13 0-23 8t-14 20q-3-2-7-3-18-2-31 9T75 63v109l-12-11q-11-10-26.5-9.5t-26 11.5Q0 174 .5 189.5T12 216l41 39q23 22 52 34t61 12h22q30 0 56-15t41-41q15-26 15-57V76q0-17-13-29zm-12 141q0 24-12 44t-32 32q-20 12-43 12h-22q-27 0-51.5-10T70 237l-41-39q-4-4-4-9t3.5-9q3.5-4 8.5-4t9 3l33 31q3 3 6.5 3.5t7-1Q96 211 98 208t2-7V63q0-5 4.5-9t9.5-3q5 1 8 5t3 9v61q0 5 3.5 8.5t9 3.5q5.5 0 9-3.5t3.5-8.5V38q0-5 3.5-8.5t9-3.5q5.5 0 9 3.5T175 38v88q0 5 3.5 8.5t9 3.5q5.5 0 9-3.5t3.5-8.5V51q0-5 3.5-9t9-4q5.5 0 9 4t3.5 9v75q0 5 3.5 8.5t9 3.5q5.5 0 9-3.5t3.5-8.5V77q0-5 3-9t8-4.5q5-.5 9.5 3T275 76v112z"/></svg>