<svg viewBox="0 0 300.0085 302.0011" xmlns="http://www.w3.org/2000/svg"><path d="M297 252l-31-69q-4-9-12-14t-17.5-6q-9.5-1-17.5 2.5T205 177l-23 33-101-62 14-39q2-5 7-7 2-1 5-1t5 1l6 3q14 6 19 20l13 40q2 5 7 7t9.5.5q4.5-1.5 7-6t.5-9.5l-14-40q-8-24-31-35l-5-2q-16-8-31.5-1.5T72 101l-12 33-41-25q-4-3-9-1.5t-8 6Q-1 118 .5 123t5.5 7l162 100-12 16q-5 8-6 18t3.5 18.5q4.5 8.5 13 13.5t18.5 5h80q9 0 17-4t12.5-11.5Q299 278 300 269t-3-17zm-24 19q-2 5-8 5h-80q-6 0-9-5t1-10l49-69q3-5 8-5h1q5 1 8 6l31 69q2 5-1 9zM113 32q0-13 9-22t22-9q13 0 22 9t9 22q0 13-9 22.5t-22 9q-13-.5-22.5-9.5T113 32zm12 206v50q0 6-3.5 9.5t-9 3.5q-5.5 0-9-3.5T100 288v-50q0-5 3.5-8.5t9-3.5q5.5 0 9 3.5t3.5 9.5v-1zm-64-34l-32 89q-1 3-4.5 5.5T18 301q-3 0-5-1-5-1-7-6t0-10l31-89q2-5 6.5-7t9.5-.5q5 1.5 7 6.5t1 10z"/></svg>