<svg viewBox="0 0 300 302.0011" xmlns="http://www.w3.org/2000/svg"><path d="M250 90v-2q0-23-12-43t-32-32Q186 1 163 1h-63Q76 1 56 13T24.5 45Q13 65 13 88v86q-1 32 18 58l7 10v9q0 21 14.5 35.5T87 301h113q21 0 35.5-14.5T250 251v-8l6-6q15-14 23-33t9-40v-26q-1-17-11-30.5T250 90zm-50 186H88q-11 0-18-7.5T63 251h162q0 10-7.5 17.5T200 276zm63-112q-1 16-7 30t-17 25l-7 7H57l-6-9q-14-19-14-43v-42q12 7 26 7h87q5-1 9-4.5t4-8.5q0-5-4-9t-9-4H63q-11 0-18-7t-7-18q0-16 8-30.5t22.5-23Q83 26 100 26h63q16 0 30.5 8.5t23 23Q225 72 225 88v2q-17 4-27 17.5T188 139v37q-1 5 3 8.5t9 3.5q5 0 9-3.5t4-8.5v-38q0-10 7-17t17.5-7.5q10.5-.5 17.5 7t7 18.5l1 25z"/></svg>