<svg viewBox="0 0 300 302.0011" xmlns="http://www.w3.org/2000/svg"><path d="M259 88h16q10 0 17.5-7t7.5-18q0-20-14.5-34.5T250 14H63q-17 0-31.5 8t-23 22.5Q0 59 0 76v81q0 18 6.5 34T26 219l12 12v14q0 18 12.5 31T81 288.5q18-.5 31-13t13-30.5v-7h63v7q0 18 12.5 31t30.5 12.5q18-.5 31-13t13-30.5v-7h13q5 0 8.5-3.5t3.5-8.5v-43q0-23-12-43l-29-52zM25 88h75v25H25V88zm75 157q0 8-5.5 13T81 263q-8 0-13-5t-5-13v-7h37v7zm63-32H55l-12-11q-9-9-13.5-20.5T25 157v-19h75q10 0 17.5-7t7.5-18V88q0-10-7.5-17T100 64H27q4-12 14-18.5T63 38h187q10 0 17.5 7.5T275 64h-62q-21-1-35.5 14T163 114v99zm96-75h-71v-25q0-10 7-17t18-7h17l29 49zm-9 107q0 8-5.5 13t-13.5 5q-8 0-13.5-5t-5.5-13v-7h38v7zm25-32h-87v-50h84q3 10 3 20v30z"/></svg>