<svg viewBox="0 0 300 302.0011" xmlns="http://www.w3.org/2000/svg"><path d="M200 188q0 6-3.5 9.5T188 201h-75q-6 0-9.5-3.5t-3.5-9q0-5.5 3.5-9t9.5-3.5h75q5 0 8.5 3.5t3.5 9.5v-1zm100-87v125q0 17-8.5 31.5t-23 22.5q-14.5 8-30.5 8H63q-17 0-31.5-8t-23-22.5Q0 243 0 226V76q0-17 8.5-31.5t23-22.5Q46 14 63 13h31q9 0 17 4l39 20q3 1 6 1h81q17 0 31.5 8.5t23 23Q300 84 300 101zM25 76v12h248q-4-11-13.5-17.5T238 64h-82q-9-1-17-4l-39-20q-3-1-6-1H63q-16 0-27 11T25 76zm250 150V113H25v113q0 16 11 27t27 11h175q15-1 26-11.5t11-26.5z"/></svg>