<svg viewBox="0 0 300 302.0011" xmlns="http://www.w3.org/2000/svg"><path d="M298 190q-3-5-8-9t-12-5q-17-2-25-9-10-9-18-26 3-7 2-15 1-19-12-33.5T193 76q7-11 7-25 0-21-15-35.5T149.5 1q-20.5 0-35 14.5T100 51q0 14 7 25-19 3-32 17t-13 33q1 8 3 15-8 17-18 26-8 7-25 9-7 1-12 5t-7.5 9.5q-2.5 5.5-2 12t4 12.5q3.5 6 6 11t2.5 6q0 7-6 20-2 7-1 13.5t6 11q5 4.5 11 6t13-.5q15-6 21-6t16 8q6 5 15 5 4 0 9-2t9-7q4-5 5-11 4-20 10-26 13-13 29-18 16 5 29 18 6 6 10 26 1 6 5 11t9 7q5 2 9 2 8 0 15-5 10-8 16-8t21 6q7 2 13 .5t11-6q5-4.5 6-11t-1-13.5q-6-13-6-20 0-1 2.5-6t6-11q3.5-6 4-12.5T298 190zm-85-64q-1 10-8 17.5t-17.5 7.5q-10.5 0-18-7.5t-7-17.5q.5-10 7.5-17.5t17.5-7.5q10.5 0 18 7.5T213 126zM150 26q10 0 17.5 7.5T175 51q0 10-7.5 17.5t-18 7.5Q139 76 132 68.5T125 51q0-10 7-17.5t18-7.5zm-37 75q10 0 17.5 7.5T138 126q0 10-7.5 17.5t-18 7.5q-10.5 0-18-7.5t-7-17.5q.5-10 7.5-17.5t18-7.5zm-9 124q-12 12-17 38-16-12-30-12-10 0-24 5 5-14 5-24 0-12-13-31 25-3 39-15 10-9 17-21 14 11 32 11 13 0 25-7v34q-19 7-34 22zm158 7q0 10 5 24-14-5-24-5-14 0-30 12-5-26-17-38-15-15-33-22v-34q11 7 25 7 17 0 31-11 7 12 17 21 14 12 39 15-13 19-13 31z"/></svg>