<svg viewBox="0 0 300 302.0011" xmlns="http://www.w3.org/2000/svg"><path d="M104 53q-4-4-4-9t3.5-9q3.5-4 9-4t8.5 4l17 16V13q0-5 3.5-8.5T150 1q5 0 8.5 3.5T162 14v37l17-16q3-4 8.5-4t9 4q3.5 4 3.5 9t-4 9l-28 28q-8 7-18 7t-18-7l-28-28zm34 85v13q-16 0-27 11t-11 26q0 13 8 23t21 12l38 6q3 1 5.5 3.5t2.5 7q0 4.5-3.5 8T163 251h-29q-7 0-10-5.5t-8-6.5q-5-1-9.5 1.5t-6 7.5q-1.5 5 1.5 9 5 9 13.5 14t18.5 5h4v13q0 5 3.5 8.5t8.5 3.5q5 0 9-3.5t4-8.5v-13q15 0 26-11t11-26q0-13-8-23t-21-12l-38-6q-3-1-5.5-3.5t-2.5-7q0-4.5 3.5-8t9.5-3.5h28q7 0 10 5.5t8 6.5q5 1 9.5-1.5t6-7.5q1.5-5-1.5-9-5-9-13.5-14t-18.5-5h-3v-13q0-5-4-8.5t-9-3.5q-5 0-8.5 3.5T138 138zm150 138h-25V126h3q10 0 18-5t12-13q4-8 3.5-16.5T294 76q-8-13-20-19l-33-17q-5-2-10-.5t-7.5 6q-2.5 4.5-1 9.5t6.5 7l33 17q7 4 12 11 2 3 0 7t-8 4H34q-6 0-8-4t0-7q5-7 12-11l33-17q5-2 6.5-7t-1-9.5Q74 41 69 39.5T59 40L26 57Q14 64 6 76 1 83 .5 91.5T4 108q4 8 12 13t18 5h4v150H13q-6 0-9.5 3.5t-3.5 9q0 5.5 3.5 9T13 301h75q5 0 8.5-3.5t3.5-9q0-5.5-3.5-9T88 276H63V126h175v150h-25q-6 0-9.5 3.5t-3.5 9q0 5.5 3.5 9t8.5 3.5h76q5 0 8.5-3.5t3.5-9q0-5.5-3.5-9T288 276z"/></svg>