<svg viewBox="0 0 300 302.0011" xmlns="http://www.w3.org/2000/svg"><path d="M75 76q0-20 10-37.5T112.5 11Q130 1 151 1t40 12l-91 63q0 21 14.5 35.5T150 126q21 0 35.5-14.5T200 76h-58l68-45q15 20 15 45 0 20-10 37.5T187.5 141Q170 151 150 151t-37.5-10Q95 131 85 113.5T75 76zm175 200v12q0 6-3.5 9.5t-9 3.5q-5.5 0-9-3.5T225 288v-12q0-20-10-37.5T187.5 211Q170 201 150 201l-9 1 19 74h28q5 0 8.5 3.5t3.5 9q0 5.5-3.5 9T188 301H75q-11 0-18-7.5T50 276q0-27 13.5-50t36.5-36.5q23-13.5 50-13.5t50 13.5q23 13.5 36.5 36.5t13.5 50zm-133-67q-19 9-30.5 27T75 276h59l-17-67z"/></svg>