<svg viewBox="0 0 300 302.0011" xmlns="http://www.w3.org/2000/svg"><path d="M181 144q13-13 13-31t-13-30.5Q168 70 150 70t-31 12.5Q106 95 106 113t13 31q-9 7-14 17t-5 21q0 21 14.5 35.5T150 232q21 0 35.5-14.5T200 182q0-11-5-21t-14-17zm-50-31q0-7 5.5-12.5T150 95q8 0 13.5 5.5t5.5 13q0 7.5-5.5 13T150 132q-8 0-13.5-5.5T131 113zm19 94q-10 0-17.5-7t-7.5-17.5q0-10.5 7.5-18T150 157q10 0 17.5 7.5t7.5 18q0 10.5-7.5 17.5t-17.5 7zm0-206q-41 0-75.5 20T20 75.5Q0 110 0 151t20 75.5Q40 261 74.5 281t75.5 20q41 0 75.5-20t54.5-54.5q20-34.5 20-75.5t-20-75.5Q260 41 225.5 21T150 1zm0 275q-34 0-62.5-17T42 213.5Q25 185 25 151t17-62.5Q59 60 87.5 43T150 26q34 0 62.5 17T258 88.5q17 28.5 17 62.5t-17 62.5Q241 242 212.5 259T150 276z"/></svg>