<svg viewBox="0 0 300 302.0011" xmlns="http://www.w3.org/2000/svg"><path d="M125 1H25q-5 0-8.5 3.5t-3.5 9q0 5.5 3.5 9T25 26v225q0 21 14.5 35.5T75 301q21 0 35.5-14.5T125 251V26q5 0 8.5-3.5t4-9q.5-5.5-3.5-9T125 1zM75 276q-10 0-17.5-7.5T50 251V138h50v113q0 10-7.5 17.5T75 276zm25-163H50V26h50v87zM275 1H175q-5 0-8.5 3.5t-3.5 9q0 5.5 3.5 9T175 26v225q0 21 14.5 35.5T225 301q21 0 35.5-14.5T275 251V26q5 0 9-3.5t4-9q0-5.5-4-9T275 1zm-50 275q-10 0-17.5-7.5T200 251V138h50v113q0 10-7.5 17.5T225 276zm25-163h-50V26h50v87z"/></svg>