<svg viewBox="0 0 300.0021 302.0011" xmlns="http://www.w3.org/2000/svg"><path d="M295.002 136l-21-44q-2-5-6.5-6.5t-9.5-.5l-108 36-109-36q-4-1-8.5.5t-6.5 6.5l-21 43q-4 7-5 15.5t2 17.5q6 16 23 22v29q0 20 11.5 36.5t31.5 22.5l54 19q14 4 28 4t27-5l55-18q19-6 31-22.5t12-36.5v-29q17-6 23-22 3-8 2-16.5t-5-15.5zm-268 11l17-35 88 30-20 40q-2 4-6.5 5.5t-8.5.5l-63-21q-6-2-8-8t1-12zm48 108q-11-4-18-14t-7-22v-21l39 14q13 4 25.5-1t19.5-17l3-7v88l-7-2-55-18zm149 0l-54 18-8 2v-88l4 8q5 9 14 14t18 5q6 0 12-2l40-14v21q0 12-7 22t-19 14zm50-96q-2 6-8 8l-64 21q-4 1-8-.5t-6-4.5l-20-41 88-30 17 36q3 5 1 11zm-209-84q-3-4-3-9t3-9l49-49q7-7 17.5-7t17.5 7l20 20q7-3 15.5-2t14.5 7l28 28q3 3 3 8.5t-3.5 9q-3.5 3.5-8.5 3.5t-9-4l-28-28-39 40q-4 3-9 3t-9-3.5q-4-3.5-4-8.5t4-9l27-27-19-19-49 49q-4 3-9 3t-9-3z"/></svg>