<svg viewBox="0 0 300 302.0011" xmlns="http://www.w3.org/2000/svg"><path d="M238 51h-50V38q0-15-11-26T150 1q-16 0-27 11t-10 27v12H63q-17 0-31.5 8.5t-23 23Q0 97 0 114v124q0 17 8.5 31.5t23 23Q46 301 63 301h175q16 0 30.5-8.5t23-23Q300 255 300 238V113q0-16-8.5-30.5t-23-23Q254 51 237 51h1zM138 38q0-5 3.5-8.5T150 26q5 0 8.5 3.5T163 39v37h-26V38h1zm137 200q0 16-11 27t-27 11H63q-16 0-27-11t-11-27V113q0-15 11-26t27-11h50q0 10 7 17.5t18 7.5h25q10 0 17.5-7.5T188 76h50q15 0 26 11t11 26v125zm-156-81q0-13 9-22t22-9q13 0 22 9t9 22q0 13-9 22.5t-22 9q-13-.5-22-9.5t-9-22zm93 91q1 5-1.5 9.5T203 263q-5 1-9.5-1.5T188 254q-3-12-14-20t-24-8q-13 0-24 8t-14 20q-1 4-4.5 6.5T100 263h-3q-5-1-7.5-5.5T88 248q5-20 22.5-33.5T150 201q22 0 39.5 13.5T212 248z"/></svg>