<svg viewBox="0 0 300.0302 302.0011" xmlns="http://www.w3.org/2000/svg"><path d="M150.03 13q1-5 5-8.5t9-2.5q46 4 82 34t48 74q2 5-.5 9.5t-7.5 6.5h-4q-4 0-7.5-2.5t-4.5-6.5q-10-37-40-62t-69-28q-5-1-8-5t-3-9zm68 243q-31 20-68 20-32 0-59.5-15t-45-41q-17.5-26-19.5-58-1-5-5-8t-9-2.5q-5 .5-8.5 4t-2.5 9.5q3 38 24 69t53.5 49q32.5 18 71.5 18 45 0 82-24 4-3 5-8t-1.5-9.5q-2.5-4.5-7.5-5.5t-10 2zm-205-141L.03 15q-1-6 3.5-10.5T14.03 1l100 13q5 0 8 3.5t3 8.5q0 22-15.5 45.5t-39 39Q47.03 126 25.03 126q-5 0-8.5-3t-3.5-8zm14-87l9 71q19-5 38-24t24-38l-71-9zm236 123q-16 0-28 11-3 4-3 9.5t4 9q4 3.5 9 3.5t8.5-4q3.5-4 9-4t9 3.5q3.5 3.5 3.5 9t-3.5 9q-3.5 3.5-9.5 3.5h-76q2-3 2-6 0-8-5.5-13.5t-13.5-5.5h-44q-5 0-9 3.5t-3.5 9q.5 5.5 4 9t8.5 3.5h28q-3 6-3 12.5t3 12.5h-28q-5 0-9 3.5t-3.5 9q.5 5.5 4 9t8.5 3.5h44q8 0 13-5.5t5-13.5q1-3-1-6h77q15 0 26-11t11-26.5q0-15.5-11-26.5t-27-11h1zm-47-33q-7 8-16 8-8 0-15-8-3-4-8.5-4.5t-9.5 3q-4 3.5-4.5 8.5t3.5 9q14 17 33 17h1q9 0 18.5-4.5t16.5-12.5q3-4 2.5-9t-4-8.5q-3.5-3.5-9-3t-8.5 4.5zm-100 0q-5 5-11 7t-11.5-.5q-5.5-2.5-10.5-.5t-7 6.5q-2 4.5-.5 9.5t6.5 7q9 4 18.5 4t18.5-4.5q9-4.5 16-12.5 3-4 2.5-9t-4-8.5q-3.5-3.5-9-3t-8.5 4.5z"/></svg>