<svg viewBox="0 0 300 302.0011" xmlns="http://www.w3.org/2000/svg"><path d="M213 1H88Q71 1 56.5 9.5t-23 23Q25 47 25 64v187q0 21 14.5 35.5T75 301h138q16 0 30.5-8.5t23-23Q275 255 275 238V63q0-16-8.5-30.5t-23-23Q229 1 212 1h1zM88 26h125q15 0 26 11t11 27v137H75q-13 0-25 7V63q0-15 11-26t27-11zm125 250H75q-10 0-17.5-7.5T50 251q0-10 7.5-17.5T75 226h175v12q0 16-11 27t-26 11zM145 64q-19 2-32 17t-13 35v22q0 6 3.5 9.5t8.5 3.5h13v12q0 6 3.5 9.5t8.5 3.5h26q5 0 8.5-3.5t3.5-9.5v-12h13q5 0 8.5-3.5t3.5-9.5v-25q0-14-7.5-26t-20-18.5Q160 62 145 64zm-17 65q-6 0-11-4.5t-5-11q0-6.5 5-11t11.5-4.5q6.5 0 11 4.5t4.5 11q0 6.5-4.5 11T128 129zm44 0q-7 0-11.5-4.5t-4.5-11q0-6.5 4.5-11t11-4.5q6.5 0 11 4.5t4.5 11q0 6.5-4.5 11T172 129z"/></svg>