<svg viewBox="0 0 300.0343 302.0011" xmlns="http://www.w3.org/2000/svg"><path d="M296 257q-12-12-18-27t-6-32v-45q0-16 6-31.5T296 95q4-4 4-9t-4-9q-11-9-24 7-11 13-19 36t-6 33v10h-26q-3-10-9.5-18T196 132l-55-78q-8-13-21.5-20T91 27h-4q-16 0-27 11T49 64v62q-20 0-34.5 14.5T0 176v24q0 7 3.5 13t8.5 9v9q0 18 13 31t31 13q18 0 30.5-13T99 231v-6h25v6q0 18 12.5 31t30.5 13q18 0 30.5-13t12.5-31v-9q6-3 9-9t3-13v-12h25v10q0 22 8 41.5t24 34.5v1q6 5 12.5 2.5t8.5-9q2-6.5-4-11.5zM74 65q0-6 3.5-9.5T87 52h4q9 0 17 4.5T121 68l41 58H74V65zM25 176q0-10 7-17.5t17-7.5h124q10 0 17.5 7.5T198 176v24H25v-24zm49 55q0 8-5.5 13.5t-13 5.5q-7.5 0-13-5.5T37 231v-6h37v6zm93 19q-8 0-13.5-5.5T148 231v-6h37v6q0 8-5 13.5t-13 5.5z"/></svg>