<svg viewBox="0 0 300 302.0011" xmlns="http://www.w3.org/2000/svg"><path d="M102 158q-3-4-2-9.5t6-7.5l32-22V76q0-5 3.5-9t8.5-3.5q5 .5 9 4t4 8.5v50q0 7-6 10l-38 25q-3 2-6 2-7 0-11-5zm173-32v112q0 17-8.5 31.5t-23 23Q229 301 212 301H88q-17 0-31.5-8.5t-23-23Q25 255 25 238V117q3-32 20-58.5t45-42Q118 1 150 1t60 15.5q28 15.5 45 42t20 58.5v9zm-225 0q0 27 13.5 50t36.5 36.5q23 13.5 50 13.5t50-13.5q23-13.5 36.5-36.5t13.5-50q0-27-13.5-50T200 39.5Q177 26 150 26t-50 13.5Q77 53 63.5 76T50 126zm200 75q-17 23-43.5 36.5T150 251q-30 0-56.5-13.5T50 201v37q0 16 11 27t27 11h125q15 0 26-11t11-27v-37z"/></svg>