<svg viewBox="0 0 300 302.0011" xmlns="http://www.w3.org/2000/svg"><path d="M213 126h37q16 0 26.5-11T287 89V51q1-16-10-27t-27-10h-37q-16-1-27 10t-11 27v37q0 16 11 27t26 11h1zm-13-75q0-5 3.5-9t9.5-4h37q5 0 9 4t4 9v37q0 6-4 9.5t-9 3.5h-37q-6 0-9.5-3.5T200 88V51zm90 195l-34-55q-3-7-10-11t-15-4q-8 0-14.5 4T206 190l-34 56q-3 7-3 14.5t4 14q4 6.5 10.5 10T197 288h68q8 0 14.5-3.5t10.5-10q4-6.5 4-14t-4-14.5zm-22 16q-1 2-3 2h-68q-2 0-3-2t0-3l34-56q1-2 3-2t4 2l33 55q1 2 0 4zM146 80q4-4 4-9t-4-9L93 8q-8-7-18-7T57 8L4 62q-4 4-4 9t3.5 8.5Q7 83 12.5 83t8.5-3l42-42v250q0 6 3.5 9.5T75 301q5 0 8.5-3.5T88 288V38l41 42q3 3 8.5 3t8.5-3z"/></svg>