<svg viewBox="0 0 300 302.0011" xmlns="http://www.w3.org/2000/svg"><path d="M238 1H63Q46 1 31.5 9.5t-23 23Q0 47 0 64v174q0 17 8.5 31.5t23 23Q46 301 63 301h175q16 0 30.5-8.5t23-23Q300 255 300 238V63q0-16-8.5-30.5t-23-23Q254 1 238 1zm37 237q0 16-11 27t-27 11H63q-16 0-27-11t-11-27V63q0-15 11-26t27-11h175q15 0 26 11t11 27v174zm-50-137v100q0 5-3.5 8.5t-9 3.5q-5.5 0-9-3.5T200 201V101q0-5 3.5-9t9-4q5.5 0 9 4t3.5 9zm-50 0v62q0 21-14.5 35.5T125 213q-21 0-35.5-14.5T75 163v-62q0-5 3.5-8.5t9-4q5.5-.5 9 3.5t3.5 9v62q0 11 7.5 18.5t17.5 7q10-.5 17.5-7.5t7.5-18v-62q0-5 3.5-8.5t9-4q5.5-.5 9 3.5t3.5 9z"/></svg>