<svg viewBox="0 0 300 302.0011" xmlns="http://www.w3.org/2000/svg"><path d="M282 128q-8-3-16.5-1.5T251 134l-6 6q-8-20-27-31 9-9 14-20.5t5-25.5q0-16-8-30.5t-22.5-23Q192 1 176 1t-29 6.5Q134 14 125 26q-9-12-22-18.5T74 1Q58 1 43.5 9.5t-23 23Q12 47 12 64q1 13 6 24.5T32 109q-15 8-23.5 22.5T0 163v75q0 17 8.5 31.5t23 23Q46 301 63 301h125q19 0 34.5-10.5T245 262l6 6q8 8 20 8 6 0 11-2 8-3 13-10.5t5-16.5v-92q0-9-5-16.5T282 128zM175 26q16 0 27 11t10.5 26.5Q212 79 201.5 90T175 101q-16 0-26.5-11T138 63.5Q138 48 148.5 37T175 26zM75 26q16 0 26.5 11T112 63.5Q112 79 101.5 90T75 101q-16 0-27-11T37.5 63.5Q38 48 48.5 37T75 26zm150 212q0 16-11 27t-26 11H63q-16 0-27-11t-11-27v-75q0-15 11-26t27-11h125q15 0 26 11t11 26v75zm50 9q0 3-2.5 4t-4.5-1l-18-18v-62l18-18q2-2 4.5-1t2.5 4v92z"/></svg>