<svg viewBox="0 0 300 302.0011" xmlns="http://www.w3.org/2000/svg"><path d="M6 102l123 74q10 6 21 6t21-6l123-74q6-4 6-11t-6-10L171 7q-10-6-21-6t-21 6L6 81q-6 3-6 10t6 11zm136-74q8-5 16 0l105 63-105 64q-8 4-16 0L37 91l105-63zm158 223q0 5-3.5 8.5T288 263h-25v25q0 6-4 9.5t-9 3.5q-5 0-8.5-3.5T238 288v-25h-25q-6 0-9.5-3.5T200 251q0-5 3.5-9t9.5-3h25v-26q0-5 3.5-8.5t8.5-3.5q5 0 9 3.5t4 9.5v24h25q5 0 8.5 4t3.5 9zm-139 41q-4 6-11 6-3 0-6-2L6 214q-4-3-5.5-8t1-9.5Q4 192 9 191t10 1l137 83q5 3 6 8t-1 9zm137-152q3 4 1.5 9t-5.5 8l-138 82q-3 2-6 2t-6-2L6 157q-4-3-5.5-8t1-9.5Q4 135 9 134t10 1l131 79 131-79q4-2 9.5-1t7.5 6z"/></svg>