<svg viewBox="0 0 300 302.0011" xmlns="http://www.w3.org/2000/svg"><path d="M238 1H63Q46 1 31.5 9.5t-23 23Q0 47 0 64v174q0 17 8.5 31.5t23 23Q46 301 63 301h175q16 0 30.5-8.5t23-23Q300 255 300 238V63q0-16-8.5-30.5t-23-23Q254 1 237 1h1zm37 237q0 16-11 27t-27 11H63q-16 0-27-11t-11-27V63q0-15 11-26t27-11h175q15 0 26 11t11 27v174zM200 88v125q0 6-3.5 9.5t-9 3.5q-5.5 0-9-3.5T175 214v-38h-37q-16 0-27-11t-11-27V88q0-5 3.5-8.5t9-3.5q5.5 0 9 3.5T125 89v49q0 6 3.5 9.5t8.5 3.5h38V88q0-5 3.5-8.5t9-3.5q5.5 0 9 3.5T200 89v-1z"/></svg>