<svg viewBox="0 0 300.0058 302.0011" xmlns="http://www.w3.org/2000/svg"><path d="M284.006 95q12-12 15-28.5t-3.5-31.5q-6.5-15-20-24.5t-30.5-9.5q-23 0-39 16l-33 34q-35 34-61 76-15 24-33 43l-52 53-6-6q-5-5-12-3t-9 9q-2 7 4 12l62 62q5 6 12 4t9-9q2-7-3-12l-5-5 51-51q22-20 46-36 40-25 73-58l35-35zm-223 162l-17-17 52-52 7-7 18 17-9 8-51 51zm102-90q-11 7-23 16l-21-22q8-10 14-20 25-40 57-73l34-33q9-9 21-9t21 9q9 9 9 21t-9 21l-35 35q-31 31-68 55zm93 46q-18 0-31 13t-12.5 31q.5 18 13 31t30.5 13q18 0 31-13t13-31q0-18-13-31t-31-13zm0 63q-8 0-13.5-5.5t-5.5-13.5q0-8 5.5-13.5t13.5-5.5q8 0 13.5 5.5t5.5 13.5q0 8-5.5 13.5t-13.5 5.5z"/></svg>