<svg viewBox="0 0 300 302.0011" xmlns="http://www.w3.org/2000/svg"><path d="M288 226h-38q-10 0-20-4t-17-12l-35-38q-3-4-3-9t4-8.5q4-3.5 8.5-3.5t7.5 2l34 33q4 4 9 3.5t8.5-4q3.5-3.5 3.5-8.5t-4-9l-34-33q-11-9-25-9v-12q0-7-1-13h37q22 0 40 14l16 14q4 3 9 3t8.5-4q3.5-4 3-9.5T296 110l-17-14q-24-20-56-20h-48q-9-12-22-18.5T125 51h-25q0-21-14.5-35.5T50 1Q29 1 14.5 15.5T0 51v200q0 21 14.5 35.5T50 301q21 0 35.5-14.5T100 251h25q19 0 34.5-10.5T182 213l13 14q10 11 24.5 17.5T250 251h38q5 0 8.5-3.5t3.5-9q0-5.5-3.5-9T288 226zM50 26q10 0 17.5 7.5T75 51H25q0-10 7.5-17.5T50 26zM25 126q10 0 17.5 7.5T50 151q0 10-7.5 17.5T25 176v-50zm25 150q-10 0-17.5-7.5T25 251h50q0 10-7.5 17.5T50 276zm75-50H25v-25q21 0 35.5-14.5T75 151q0-21-14.5-35.5T25 101V76h100q16 0 27 11t11 26l-1 23q-11 10-12 25.5t10 27.5l2 3q-1 14-11.5 24T125 226zm13-106q-1 8-6 13.5t-13 5q-8-.5-13.5-5.5t-5.5-13q0-8 5.5-13.5T119 101q8 0 13.5 5.5T138 120zm0 62q-1 8-6 13.5t-13 5.5q-8 0-13.5-5.5T100 182q0-8 5.5-13.5t13.5-5q8 .5 13.5 5.5t5.5 13z"/></svg>