<svg viewBox="0 0 300.0012 302.0011" xmlns="http://www.w3.org/2000/svg"><path d="M264 167q15-10 24-29 12-24 12-62 0-5-3.5-8.5t-9-4q-5.5-.5-9 3.5t-3.5 9q0 32-9 52-7 14-18 20-6 3-10 3h-49L139 40q-3-7-10-11t-15-3q-8 1-13.5 6.5T93 46L73 151H49L68 50q4-2 6-7t0-9.5Q72 29 67.5 27T58 27q-12 5-15 18L23 151q-11 1-18 9.5T0 180q4 16 12 30L0 274q-1 5 2 9t8 5l3 1q4-1 7.5-3.5T25 278l8-45q11 8 23 12l-6 29q-1 5 2 9t8 5h3q4 0 7.5-2.5T75 278l5-27h126l14 30q1 4 4.5 6t6.5 2q3 0 5-2 5-2 7-6.5t0-9.5l-9-20h41q12 0 18.5-7.5T300 226q0-17-10-32.5T264 167zm-239 9h44l-9 44q-13-6-22.5-17.5T25 176zm61 50h-1l9-50h31q5 0 8.5-3.5t3.5-9q0-5.5-3.5-9T125 151H99l18-98 64 141q2 4 6.5 6t9.5 0q5-2 6.5-7t-.5-10l-3-7h13q14 0 28.5 7t24 18.5Q275 213 275 226H86z"/></svg>