<svg viewBox="0 0 300 302.0011" xmlns="http://www.w3.org/2000/svg"><path d="M150 151q20 0 37.5-10t27.5-27.5Q225 96 225 76t-10-37.5Q205 21 187.5 11T150 1q-20 0-37.5 10T85 38.5Q75 56 75 76t10 37.5Q95 131 112.5 141t37.5 10zm0-125q21 0 35.5 14.5T200 76q0 21-14.5 35.5T150 126q-21 0-35.5-14.5T100 76q0-21 14.5-35.5T150 26zm113 262q0 6-4 9.5t-9 3.5q-5 0-8.5-3.5T238 288q-1-27-17-49.5T180 206l-19 29 14 50q1 6-3.5 11t-11.5 5h-20q-7 0-11.5-5t-3.5-11l14-50-19-29q-25 10-41 32.5T63 289q0 5-4 8.5t-9 3.5q-5 0-9-3.5t-4-8.5q1-31 16-57t40.5-41q25.5-15 56.5-15t56.5 15q25.5 15 41 41t14.5 57l1-1z"/></svg>