<svg viewBox="0 0 300 302.0011" xmlns="http://www.w3.org/2000/svg"><path d="M249 70l-43-43q-13-13-29-19.5T144 1H88Q71 1 56.5 9.5t-23 23Q25 47 25 63v175q0 17 8.5 31.5t23 23Q71 301 87 301h126q16 0 30.5-8.5t23-23Q275 255 275 238V132q0-17-6.5-33T249 70zm-17 18q6 6 10 13h-54q-6 0-9.5-3.5T175 88V34q7 4 13 10l44 44zm18 150q0 16-11 27t-26 11H88q-16 0-27-11t-11-27V63q0-15 11-26t27-11h62v62q0 16 11 27t26 11h63v112zm-68-60q-4-3-9-2t-8 5l-12 17-20-28q8-5 12.5-13.5T150 138q0-15-11-26t-26-11h-13q-16 0-27 11t-11 26v63q1 5 4.5 8.5T75 213q5 0 9-3.5t4-8.5v-25h18l31 44-17 24q-3 4-2 9t4.5 7.5q3.5 2.5 7.5 2.5 7 0 11-5l12-17 12 17q4 5 10 5 4 0 7.5-2.5t4.5-7.5q1-5-2-9l-17-24 17-24q3-4 2-9.5t-5-8.5zm-94-40q0-5 3.5-8.5t8.5-3.5h13q5 0 8.5 3.5t3.5 9q0 5.5-3.5 9T113 151H88v-13z"/></svg>