<svg viewBox="0 0 300 302.0011" xmlns="http://www.w3.org/2000/svg"><path d="M300 170v18q0 21-7.5 40.5T272 263q-4 4-9 4t-9-3q-4-3-4-8.5t3-9.5q11-12 16.5-26.5T275 188v-30q-10 9-23.5 13.5T225 176q-5 0-9-3.5t-3.5-9q.5-5.5 4-9t8.5-3.5q16 0 29.5-9t15.5-23q-4-21-11-36-3-8-6-12t-2.5-9q.5-5 4.5-8t9-2.5q5 .5 8 4T282 75q10 23 14 43 4 24 4 52zm-68 33q4 3 5 8t-2 9q-5 9-7.5 19t-2.5 25q0 15-11 26t-26 11h-63q-31 0-56.5-15T28 245q-15-26-15-56v-57Q0 117 0 98V81q0-11 4-23t9-20q-6-2-9.5-7T0 19q0-7 5.5-12.5T18 1q7 0 12 3.5t7 9.5Q56 1 80 1h27q24 0 44 13 2-6 7-9.5T170 1q7 0 12.5 5.5T188 19q0 7-4 12t-9 7q13 19 12 43v17q0 12-4.5 22T169 138q12 11 16 33 3 12 3 30 0 5-4 8.5t-9 3.5q-5 0-9-3.5t-4-8.5q1-22-3-33t-9.5-14q-5.5-3-15.5-3-12 0-22.5-5T94 132q-8 9-18.5 14T53 151q-8 0-15-2v2q0 18 9.5 32T74 205q17 8 38 8 6 0 9.5 4t3.5 9q0 5-3.5 8.5T112 238q-21 0-39-6.5T41 213q8 28 31.5 45.5T125 276h63q5 0 8.5-3.5t3.5-8.5q0-18 3-29 3-15 12-28 2-5 7.5-6t9.5 2zM53 126q11 0 19.5-8T81 99q-6-3-6-9.5t3.5-10Q82 76 88 76h12q5 0 9 3.5t4 10q0 6.5-7 9.5 1 11 9 19t19.5 8q11.5 0 20-8t8.5-20V88h-19q-5 1-9-3t-4-9q0-5 4-8.5t9-3.5h16q-6-17-20.5-27.5T107 26H80q-18 0-32 10.5T28 63h16q5 0 8.5 4t3.5 9q0 5-3.5 8.5T44 88H25v10q0 12 8 20t20 8z"/></svg>