<svg viewBox="0 0 300 302.0011" xmlns="http://www.w3.org/2000/svg"><path d="M296 280l-13-14-22-21 35-35q5-5 3.5-11.5T292 189l-113-41q-6-2-13.5-.5T153 154q-5 5-6.5 12.5t.5 13.5l41 113q3 6 9 8h3q5 0 9-4l35-35 35 35q3 4 8.5 4t9-3.5q3.5-3.5 3.5-9t-4-8.5zm-91-14l-34-94 94 34-60 60zm-80-15q-34 0-62.5-17T17 188.5Q0 160 0 126t17-62.5Q34 35 62.5 18T125 1q34 0 62.5 17T233 63.5Q250 92 250 126q0 5-3.5 9t-9 3.5q-5.5-.5-9-4T225 126q0-27-13.5-50T175 39.5Q152 26 125 26T75 39.5Q52 53 38.5 76T25 126q0 27 13.5 50T75 212.5Q98 226 125 226q5 0 9 3.5t4 9q0 5.5-4 9t-9 3.5zm-24-55q-2 0-5-1-23-9-36-31.5T50.5 116Q54 91 72 73t43.5-21.5Q141 48 163 61t31 36q3 7-1.5 13t-11.5 5q-7-1-10-8-6-16-21-24.5t-31.5-6Q102 79 90 91t-14.5 28.5Q73 136 81.5 151t24.5 21q4 2 6 6t1 8.5q-1 4.5-4 7t-8 2.5z"/></svg>