<svg viewBox="0 0 300 302.0011" xmlns="http://www.w3.org/2000/svg"><path d="M213 286q-8 0-12-7-2-4-.5-9t6.5-8q31-16 49.5-46t18.5-64.5q0-34.5-17-63T212.5 43Q184 26 150 26T87.5 43Q59 60 42 88.5T25 151q0 40 23 72 3 4 2 9t-5.5 8q-4.5 3-9.5 2.5t-8-5.5Q0 199 0 151q0-41 20-75.5T74.5 21Q109 1 150 1t75.5 20Q260 41 280 75.5t20 76q0 41.5-22 77.5t-60 56q-3 1-5 1zM106 101q-8 0-13.5 5.5t-5 13.5q.5 8 5.5 13.5t13 5q8-.5 13.5-5.5t5.5-13q0-8-5.5-13.5T106 101zm88 12q-8 1-13.5 6t-5.5 13q0 8 5.5 13.5T194 151q8 0 13.5-5.5t5-13.5q-.5-8-5.5-13.5t-13-5.5zm-52-13q5-2 7-6.5t0-9.5q-5-12-14-21-13-12-29-12-12 0-22 7-8 5-12 11-3 5-1.5 10t5.5 7.5q4 2.5 9 1.5t8-5l4-4q4-3 9-3 8 0 15 8 3 5 4.5 9t5 6q3.5 2 6.5 2t5-1zm-28 74q3 0 6.5 2t5 7q1.5 5-.5 10l-6 11 77-24 4-1q4 0 7.5 2.5t4.5 7q1 4.5-1 9t-7 5.5l-29 9v63q0 6-3.5 11t-9.5 7l-16 5q-8 3-16 3-14 0-26-6.5t-19.5-18Q77 265 75.5 250t6.5-29l21-40q3-7 11-7z"/></svg>