<svg viewBox="0 0 300 302.0011" xmlns="http://www.w3.org/2000/svg"><path d="M275 1h-62q-11 0-18 7.5T187 26v37q0 11 7.5 18.5T212 89h19v37h-62l-19-25q-9-12-22-18.5T100 76H75q-21 0-35.5 14.5T25 126v37q0 14 7 25.5T50 207v81q0 6 3.5 9.5t9 3.5q5.5 0 9-3.5T75 288v-75h25v75q0 6 3.5 9.5t9 3.5q5.5 0 9-3.5t3.5-9.5V151q0-5-3.5-8.5t-9-4q-5.5-.5-9 3.5t-3.5 9v37H75q-10 0-17.5-7T50 163v-37q0-10 7.5-17.5T75 101h25q9 0 17 4t13 11l23 30q3 5 10 5h68q11 0 18-7.5t7-17.5V88h19q10 0 17.5-7t7.5-17V26q0-10-7.5-17.5T275 1zm-62 62V26h62v37h-62zM56 32q0-13 9.5-22t22-9q12.5 0 22 9t9.5 22q0 13-9.5 22.5t-22 9Q75 63 65.5 54T56 32z"/></svg>