<svg viewBox="0 0 300.0013 302.0011" xmlns="http://www.w3.org/2000/svg"><path d="M274 258q17-15 25-40 2-5-.5-10t-7.5-6.5q-5-1.5-9.5 1T276 209q-7 21-19 31l-39-39q7-18 7-32 0-17-13-30t-29.5-13q-16.5 0-29.5 11l-18-19q2-13 2-23 0-18-9.5-34T102 35.5Q86 26 68 26q-11 0-22 4L21 5q-3-4-8.5-4t-9 3.5Q0 8 0 13.5T4 22l275 275q3 4 8.5 4t9-3.5q3.5-3.5 3.5-9t-4-8.5l-21-22h-1zm-93-107q7 0 13 5.5t6 11.5q0 6-2 13l-27-27q5-3 10-3zM68 51q17 0 31 13.5T113 95v1L68 51zm181 71q-4-4-3.5-9.5t4.5-8.5q4-3 9-3t9 4q20 24 29 55 1 5-1.5 9.5T288 175l-3 1q-5 0-8-2.5t-4-6.5q-8-26-24-46v1zm-66 115q3 5 2.5 10t-4.5 8q-25 21-55 21t-59-30q-12 11-28 20.5T13 276q-5 0-8.5-3T0 265.5q-1-4.5 2-9t8-5.5q20-4 41-24-22-30-36.5-68T0 95q0-7 1-12.5t5.5-8Q11 72 16 73t8 5q3 4 2 8.5T25 95q0 22 12 54t31 58q12-17 23-38 2-5 7-6.5t9.5.5q4.5 2 6.5 7t0 10q-14 27-30 47 22 24 41 24 22 0 40-15 4-3 9-2.5t8 3.5h1z"/></svg>