<svg viewBox="0 0 300 302.0011" xmlns="http://www.w3.org/2000/svg"><path d="M238 26H63q-17 0-31.5 8.5t-23 23Q0 72 0 89v124q0 17 8.5 31.5t23 23Q46 276 63 276h175q16 0 30.5-8.5t23-23Q300 230 300 214V88q0-16-8.5-30.5t-23-23Q254 26 237 26h1zm37 187q0 16-11 27t-27 11H63q-16 0-27-11t-11-27V88q0-15 11-26t27-11h175q15 0 26 11t11 26v125zM238 76q-6 0-9.5 3.5T225 89v54q-9-5-19-4-18-1-30.5 12T163 182q0 18 12.5 31t30.5 13q11 0 21-5 4 5 10 5t9.5-3.5q3.5-3.5 3.5-8.5V88q0-5-3.5-8.5T237 76h1zm-32 125q-8 0-13-5.5t-5-13.5q0-8 5-13.5t13-5.5q8 0 13.5 5.5T225 182q0 8-5.5 13.5T206 201zM112 85q-1-4-4.5-6.5T100 76q-4 0-7.5 2.5T88 85L51 210q-2 5 .5 9.5t7.5 6q5 1.5 9.5-1T74 217l5-16h42l5 16q1 4 4 6.5t8 2.5l3-1q5-1 7.5-5.5t.5-9.5L112 85zm-25 91l13-44 13 44H87z"/></svg>