<svg viewBox="0 0 300 302.0011" xmlns="http://www.w3.org/2000/svg"><path d="M125 132q0 8-5.5 13.5T106 151q-8 0-13.5-5.5t-5-13.5q.5-8 5.5-13.5t13-5q8 .5 13.5 5.5t5.5 13zm69-19q-8 1-13.5 6t-5.5 13q0 8 5.5 13.5T194 151q8 0 13.5-5.5t5-13.5q-.5-8-5.5-13.5t-13-5.5zm81 13v162q0 5-3 8.5t-7 4.5h-3q-3 0-6.5-2.5T251 293q-3-7-10.5-12t-15.5-5q-8 0-15.5 5T199 293q-1 3-4.5 5.5t-7 2.5q-3.5 0-7-2.5T176 293q-3-7-10.5-12t-15.5-5q-8 0-15.5 5T124 293q-1 3-4.5 5.5t-7 2.5q-3.5 0-7-2.5T101 293q-3-7-10.5-12T75 276q-8 0-15.5 5T49 293q-1 4-5 6.5t-8.5 1.5q-4.5-1-7.5-4.5t-3-8.5V126q0-34 17-62.5T87.5 18Q116 1 150 1t62.5 17Q241 35 258 63.5t17 62.5zm-25 0q0-27-13.5-50T200 39.5Q177 26 150 26t-50 13.5Q77 53 63.5 76T50 126v131q12-6 25-6 10 0 20 4t17 11q8-7 18-11t20-4q10 0 20 4t17 11q8-7 18-11t20-4q13 0 25 6V126z"/></svg>