<svg viewBox="0 0 300 302.0011" xmlns="http://www.w3.org/2000/svg"><path d="M252 138h4q8 0 13.5-5t5.5-13V95q0-8-5.5-13.5T256 76h-4q-11-33-39-54T150 1q-35 0-63 21T48 76h-4q-8 0-13.5 5.5T25 95v25q0 8 5.5 13t13.5 5h4q11 34 39 54-28 9-45 32t-17 52v12q0 6 3.5 9.5t9 3.5q5.5 0 9-3.5T50 288v-12q0-17 8.5-31.5t23-23Q96 213 112 213h75q17 0 31.5 8.5t23 23Q250 259 250 276v12q0 6 3.5 9.5t9 3.5q5.5 0 9-3.5t3.5-9.5v-12q0-29-17.5-52T213 192q28-20 39-54zM69 107q0-22 11-40.5T109.5 37Q128 26 150 26t40.5 11Q209 48 220 66.5t11 40.5q0 22-11 41t-29.5 30Q172 189 150 189t-40.5-11Q91 167 80 148t-11-41zm156 181q0 6-3.5 9.5t-9 3.5q-5.5 0-9-3.5t-3.5-9-3.5-9Q193 276 187 276h-74q-6 0-9.5 3.5t-3.5 9-3.5 9q-3.5 3.5-9 3.5t-9-3.5Q75 294 75 288q0-15 11-26t26-11h76q15 0 26 11t11 27v-1zM88 101q-1-4 3-8.5t10-4.5h99q6 0 9.5 4.5t3.5 8.5q0 17-8.5 31.5t-23 22.5q-14.5 8-31.5 8t-31.5-8Q104 147 96 132.5T88 101z"/></svg>