<svg viewBox="0 0 300 302.0011" xmlns="http://www.w3.org/2000/svg"><path d="M299 293q-1 4-4.5 6t-6.5 2q-3 0-5-1l-133-48-133 48q-2 1-5 1t-6.5-2q-3.5-2-5-6.5t.5-9q2-4.5 7-6.5l105-38L8 200q-5-1-7-6t0-9.5q2-4.5 6.5-7t9.5-.5l133 48 133-48q5-2 9.5.5t6.5 7q2 4.5 0 9.5t-7 6l-105 39 105 38q5 2 7 6.5t0 9.5zM119 113q8 0 13.5-5t5.5-13q0-8-5.5-13.5T119 76q-8 0-13.5 5.5T100 95q0 8 5.5 13.5T119 114v-1zm62 0q8 1 13.5-4.5T200 95q0-8-5.5-13.5T181 76q-8 0-13.5 5.5t-5 13.5q.5 8 5.5 13.5t13 5.5v-1zm-118 0V91q0-22 9.5-41.5t27-32.5Q117 4 139 2q18-3 36.5 2.5t32.5 18q14 12.5 22 30t8 35.5v25q-1 16-11.5 27T200 151q0 16-11 26.5T163 188h-25q-16 0-27-10.5T100 151q-16 0-27-11t-11-26l1-1zm25 0q0 6 3.5 9.5t8.5 3.5h13q5 0 8.5 3.5t3.5 9.5v12q0 5 3.5 8.5t9.5 3.5h25q5 0 8.5-3.5t3.5-8.5v-13q0-5 3.5-8.5t9.5-3.5h12q5 0 9-3.5t4-9.5V88q0-13-6-25t-16-21q-17-16-41-16l-8 1q-23 2-38.5 20.5T88 91v22z"/></svg>