<svg viewBox="0 0 300 302.0011" xmlns="http://www.w3.org/2000/svg"><path d="M300 63q0-16-8.5-30.5t-23-23Q254 1 238 1H63Q46 1 31.5 9.5t-23 23Q0 47 0 64v26l9 104q1 14 8.5 26.5T37 241v16q0 18 13 31t31 13q18 0 31-13t13-31v-6h50v6q0 18 13 31t31 13q18 0 30.5-13t12.5-31v-16q13-8 20.5-20.5T291 194l9-103V63zm-25 0v13h-50V26h13q15 0 26 11t11 27v-1zM163 76V26h37v50h-37zm-63 0V26h38v50h-38zM63 26h12v50H25V63q0-15 11-26t27-11zm37 231q0 8-5.5 13.5T81 276q-8 0-13-5.5T63 257v-7l8 1h29v6zm138 0q0 8-5.5 13.5T219 276q-8 0-13.5-5.5T200 257v-6h29l8-1v7h1zm28-65q-1 14-11.5 24T229 226H71q-15 0-25.5-10T34 192l-8-91h248l-8 91z"/></svg>