<svg viewBox="0 0 300 302.0011" xmlns="http://www.w3.org/2000/svg"><path d="M81 201q8 0 13.5 5.5T100 220q0 8-5.5 13T81 238q-8 0-13-5t-5-13q0-8 5-13.5t13-5.5zm63 37q8 0 13.5-5t5.5-13q0-8-5.5-13.5T144 201q-8 0-13.5 5.5T125 220q0 8 5.5 13t13.5 5zM300 51v25q0 21-14.5 35.5T250 126h-36l-30 21q-6 4-12 4t-11-2.5q-5-2.5-8-8t-3-11.5V51q0-21 14.5-35.5T200 1h50q21 0 35.5 14.5T300 51zm-25 0q0-10-7.5-17.5T250 26h-50q-10 0-17.5 7.5T175 51v72l28-20q3-2 7-2h40q10 0 17.5-7.5T275 76V51zm-69 137h-6q0-5-3.5-8.5t-9-3.5q-5.5 0-9 3.5T175 188v63q0 10-7.5 17.5T150 276H75q-10 0-17.5-7.5T50 251v-63q0-10 7.5-17.5T75 163h38q5 0 8.5-3.5t3.5-8.5v-25q0-5-3.5-9t-9-4q-5.5 0-9 4t-3.5 9v12H75q-21 0-35.5 15T25 189h-6q-8-1-13.5 4.5T0 207v25q0 8 5.5 13.5T19 251h6q0 21 14.5 35.5T75 301h75q21 0 35.5-14.5T200 251h6q8 0 13.5-5.5T225 232v-25q0-8-5.5-13t-13.5-5v-1z"/></svg>