<svg viewBox="0 0 300.0025 302.0011" xmlns="http://www.w3.org/2000/svg"><path d="M188 32q0-13 9-22t22-9q13 0 22.5 9t9.5 22q0 13-9.5 22.5T219 64q-13 0-22-9.5T188 32zm-88 156H50q-10 0-17.5-7T25 163V97q0-9 4-16.5T39 67l42-32q10-8 22.5-9t22.5 5l18 12q4 3 9 1.5t8-5.5q3-4 2-9t-5-8l-19-12q-17-10-37-8.5T66 15L24 48Q13 57 6.5 69.5T0 97v66q0 21 14.5 35.5T50 213h50q5 0 8.5-3.5t4-8.5q.5-5-3.5-8.5t-9-3.5v-1zm-37-75q-6 0-9.5 4t-3.5 9v12q0 6 3.5 9.5T62 151h13q5 0 9-3.5t4-9.5v-12q0-5-4-8.5t-9-3.5H63v-1zm235 64q-3 4-8 5t-9-2l-30-19v48l8 5q8 6 12.5 14t4.5 18v42q0 6-4 9.5t-9 3.5q-5 0-8.5-3.5T251 288v-42q0-7-6-11l-53-35q-8-5-12-13.5t-4-17.5v-47l-20 13q-5 4-5 10v31q0 5-4 8.5t-9 3.5q-5 0-8.5-3.5T126 176v-31q0-9 4-17t12-14l41-27q11-11 31-11 12 0 22 7.5t14 17.5l9 31q1 5 5 7l30 20q5 3 6 8t-2 10zm-72-69q-2-3-5.5-5t-6.5-2q-8 0-13 3v65q0 7 5 10l20 13v-84zm25 101zm-56 18q-5-2-10 0t-7 7l-20 50q-2 5 0 9.5t7 6.5q2 1 5 1t6.5-2q3.5-2 4.5-6l21-50q1-5-1-9.5t-6-6.5z"/></svg>