<svg viewBox="0 0 300 302.0011" xmlns="http://www.w3.org/2000/svg"><path d="M260 43q7-4 11.5-14t3-18.5Q273 2 263 1q-6 0-9.5 3.5t-3.5 9-3.5 9q-3.5 3.5-9 3.5t-9-3.5q-3.5-3.5-3.5-9t-3.5-9Q218 1 213 1q-11 1-12.5 9.5t3 18.5Q208 39 215 43q-18 7-29 22.5T175 100q0 13-13 31t-30.5 31Q114 175 99 176q-19 1-34.5 11.5T42 216q-4-7-14-11.5t-18.5-3Q1 203 0 213q0 6 3.5 9.5t9 3.5 9 3.5q3.5 3.5 3.5 9t-3.5 9q-3.5 3.5-9 3.5t-9 3.5Q0 258 0 263q1 11 9.5 12.5t18.5-3Q38 268 42 261q12 30 43 37.5t72-9q41-16.5 79-52.5 36-38 52.5-78.5t9-72Q290 55 260 43zm-42 176q-34 35-75 49-24 8-43 8-10 0-19.5-4.5T66 258q-5-9-5-19.5t5.5-19.5q5.5-9 14.5-14t20-4q20-1 43.5-17.5t39.5-40q16-23.5 16-43.5 0-15 11-26t27-10.5q16 .5 26.5 11.5t10.5 26q0 20-8 43-14 41-49 75z"/></svg>