<svg viewBox="0 0 300 302.0011" xmlns="http://www.w3.org/2000/svg"><path d="M38 88V38q0-10 7-17.5T62 13h51q5 0 8.5 4t3.5 9q0 5-3.5 9t-9.5 4H80l74 74h4l86-86q4-4 9-4t8.5 3.5q3.5 3.5 4 9T262 44l-86 86q-8 8-20 8-11 0-19-8L63 56v32q0 6-4 9.5t-9 3.5q-5 0-8.5-3.5T38 89v-1zm262 164l-1 16q0 14-10 23.5t-24 9.5l-32-4q-13 0-22.5-9.5T200 264l-2-16q-23-9-48-9t-48 9l-2 16q-1 14-10.5 23.5T67 297l-32 4q-14 0-24-10T1 267l-1-14q0-13 5-25.5T19 206q21-20 56-31t75-11q40 0 75 11t56 31q9 9 14 21t5 25zm-25-1q0-16-12-27-18-18-50-27-30-9-65-8t-65 10q-30 9-46 25-12 11-12 28l1 14q0 4 2.5 7t5.5 3l32-4q3 0 6-2.5t3-6.5l3-25q1-7 7-10 31-14 64-14h1q34 0 65 14 6 2 7 10l3 25q0 4 3 6.5t6 2.5l32 4q3 0 5.5-2.5t2.5-6.5l1-16z"/></svg>