<svg viewBox="0 0 300 302.0011" xmlns="http://www.w3.org/2000/svg"><path d="M263 113h-63q-15 0-26 11.5T163 151q0 15 11 26t26 11h63q15 0 26-11t11-26q0-15-11-26.5T263 113zm0 50h-63q-5 0-8.5-3.5T188 151q0-5 3.5-8.5t8.5-4.5h63q5 0 8.5 4t3.5 9q0 5-3.5 8.5T263 163zm-63-87h63q15 0 26-11t11-26.5Q300 23 289 12T263 1h-63q-15 0-26 11t-11 26.5Q163 54 174 65t26 11zm0-50h63q5 0 8.5 3.5t3.5 9q0 5.5-3.5 9T263 51h-63q-5 0-8.5-3.5t-3.5-9q0-5.5 3.5-9T200 26zm63 200h-63q-15 0-26 11t-11 26.5q0 15.5 11 26.5t26 11h63q15 0 26-11t11-26.5q0-15.5-11-26.5t-26-11zm0 50h-63q-5 0-8.5-3.5t-3.5-9q0-5.5 3.5-9t8.5-3.5h63q5 0 8.5 3.5t3.5 9q0 5.5-3.5 9T263 276zM88 163H50q-21 0-35.5 15T0 213v38q0 21 14.5 35.5T50 301h38q20 0 34.5-14.5T138 251v-38q0-20-15-35t-35-15zm25 88q0 10-7.5 17.5T88 276H50q-10 0-17.5-7.5T25 251v-38q0-10 7.5-17.5T50 188h38q10 0 17.5 7.5T113 213v38zM88 1H50Q29 1 14.5 15.5T0 51v37q0 21 14.5 35.5T50 138h38q20 0 35-14.5T138 88V51q0-21-15-35.5T88 1zm25 87q0 11-7.5 18T88 113H50q-10 0-17.5-7T25 88V51q0-10 7.5-17.5T50 26h38q10 0 17.5 7.5T113 51v37z"/></svg>