<svg viewBox="0 0 300 302.0011" xmlns="http://www.w3.org/2000/svg"><path d="M238 1H63Q46 1 31.5 9.5t-23 23Q0 47 0 64v174q0 17 8.5 31.5t23 23Q46 301 63 301h175q16 0 30.5-8.5t23-23Q300 255 300 238V63q0-16-8.5-30.5t-23-23Q254 1 237 1h1zm37 237q0 16-11 27t-27 11H63q-16 0-27-11t-11-27V63q0-15 11-26t27-11h175q15 0 26 11t11 27v174zM173 81l-83 84q-15 14-15 35v20q0 5 3.5 8.5T87 232h20q21 0 36-14l84-84q10-11 10-26.5T226.5 81Q216 70 200 70t-27 11zm-48 119q-7 7-18 7h-7v-7q0-10 7-18l53-53 18 18-53 53zm84-84l-13 13-18-18 13-13q4-3 9-3t8.5 3.5q3.5 3.5 3.5 8.5t-3 9z"/></svg>