<svg viewBox="0 0 300 302.0011" xmlns="http://www.w3.org/2000/svg"><path d="M238 1H63Q46 1 31.5 9.5t-23 23Q0 47 0 63v63q0 24 12 44t32 31.5Q64 213 88 213h25v50q0 16 10.5 27t26.5 11q16 0 26.5-11t11.5-27v-50h25q23 0 43-11.5t32-31.5q12-20 12-44V63q0-16-8.5-30.5t-23-23Q254 1 237 1h1zM25 63q0-15 11-26t26-11h63v12q0 6 3.5 9.5t9 3.5q5.5 0 9-3.5T150 39V26h25v37q0 6 3.5 9.5t9 3.5q5.5 0 9-3.5T200 64V26h25v62q0 6 3.5 9.5t9 3.5q5.5 0 9-3.5T250 88V28q11 4 18 14t7 21v63H25V63zm188 125h-38q-5 0-9 4t-4 9v62q1 6-3 9.5t-9 3.5q-5 0-9-3.5t-4-9.5v-62q1-5-3-8.5t-9-3.5H88q-19-1-34.5-11T30 151h240q-8 17-23.5 27T213 188z"/></svg>