<svg viewBox="0 0 300 302.0011" xmlns="http://www.w3.org/2000/svg"><path d="M213 119v-18q-1-16-12.5-27T173 63l-8-50q-1-5-5.5-8.5T150 1q-5 0-9.5 3.5T135 13l-8 50q-16 0-27.5 11T88 101v18q-18 7-28 22.5T50 176v62q0 17 8.5 31.5t23 23Q96 301 112 301h76q16 0 30.5-8.5t23-23Q250 255 250 238v-62q0-19-10-34.5T213 119zm-100-18q0-5 3.5-9t8.5-4h50q5 0 9 4t4 9v12h-75v-12zm112 137q0 16-11 27t-27 11h-74q-16 0-27-11t-11-26v-63q0-16 11-27t27-11h75q15 0 26 11t11 27v62zm-38-62h-75q-5 0-8.5 3.5T100 189v49q0 6 3.5 9.5t8.5 3.5h75q5 0 9-3.5t4-9.5v-50q0-5-4-8.5t-9-3.5zm-12 50h-50v-25h50v25z"/></svg>