<svg viewBox="0 0 300 302.0011" xmlns="http://www.w3.org/2000/svg"><path d="M288 276q0 10-7.5 17.5T263 301H38q-11 0-18-7.5T13 276q0-10 7-17.5t18-7.5v-88q0-20 14.5-34.5T87 113h13q5 0 8.5 4t3.5 9q0 5-3.5 8.5T100 139H88q-11-1-18 6.5T63 163v88h43l13 12h62l13-12h44v-88q-1-10-8-17.5t-17-7.5h-13q-5 0-8.5-3.5t-4-8.5q-.5-5 3.5-9t9-4h13q20 1 35 15.5t15 35.5v87q10 0 17.5 7.5T288 276zM97 169q-3 3-3 8.5t3 8.5l31 31q9 9 22 9t22-9l31-31q3-3 3-8.5t-3.5-9Q199 165 194 165t-9 4l-22 22v-90q0-5-4-9t-9-4q-5 0-8.5 4t-3.5 9v90l-23-22q-4-4-9-4t-9 4zm103-81q5 0 8.5-3.5T212 76V63q0-5-3.5-8.5T200 51q-5 0-8.5 3.5T188 63v13q-1 5 3 9t9 4v-1zm-50-37q5 0 9-3.5t3-8.5V26q1-5-3-9t-9-4q-5 0-8.5 4t-3.5 9v12q0 6 3.5 9.5T150 51zm75-13q5 0 9-3.5t3-8.5V13q1-5-3-8.5T225 1q-5 0-8.5 3.5T213 13v13q0 5 3.5 8.5T225 38zM75 38q5 0 9-3.5t4-8.5V13q0-5-4-8.5T75 1q-5 0-9 3.5T63 13v13q-1 5 3 8.5t9 3.5zm13 38q-1 5 3 9t9 3.5q5-.5 8.5-4T112 76V63q0-5-3.5-8.5T100 51q-5 0-8.5 3.5T88 63v13zM292 2q-4-2-9 0t-7 7l-31 75q-2 4 0 9t6 7q3 1 6 1t6-2q3-2 5-6l31-75q2-4 0-9t-7-7zM44 101q2 0 5-1 4-2 6-7t0-9L24 9q-2-5-7-7T7.5 2Q3 4 1 9t0 9l31 75q2 4 5 6t7 2z"/></svg>