<svg viewBox="0 0 300 302.0011" xmlns="http://www.w3.org/2000/svg"><path d="M238 1H63Q46 1 31.5 9.5t-23 23Q0 47 0 64v174q0 17 8.5 31.5t23 23Q46 301 63 301h175q16 0 30.5-8.5t23-23Q300 255 300 238V63q0-16-8.5-30.5t-23-23Q254 1 237 1h1zm37 237q0 16-11 27t-27 11H63q-16 0-27-11t-11-27V63q0-15 11-26t27-11h175q15 0 26 11t11 27v174zm-50-12q0 5-3.5 8.5T212 238H102q-9 0-15.5-4T77 222.5q-3-7.5-1.5-15.5t7.5-14L200 90v-1H88q-5 0-9-4t-4-9q0-5 4-8.5t9-3.5h110q9 0 15.5 4t9.5 11.5q3 7.5 1.5 15.5t-7.5 14L100 212v1h113q5 0 8.5 4t3.5 9z"/></svg>