<svg viewBox="0 0 300 302.0011" xmlns="http://www.w3.org/2000/svg"><path d="M288 63q0-15-11-26t-27-11h-2q-4-11-14-18t-22-7H88Q76 1 66 8T52 26h-2q-12 0-21.5 6.5T15 50q-4 11-1 22.5T25 91l20 155q3 24 20.5 39.5T107 301h86q24 0 41.5-15.5T255 246l20-155q12-11 13-28zm-49 113h-40q-4-24-18-37t-31-13q-17 0-31 13t-18 37H61l-9-75h196l-9 75zm-64 12q0 18-7.5 28T150 226q-10 0-17.5-10t-7.5-27.5q0-17.5 7.5-27.5t17.5-10q10 0 17.5 10t7.5 27zM50 51h13q5 0 8.5-3.5t3.5-9 3.5-9Q82 26 88 26h125q5 0 8.5 3.5t3.5 9 3.5 9Q232 51 237 51h13q5 0 9 3.5t4 9q0 5.5-4 9t-9 3.5H50q-5 0-8.5-3.5t-3.5-9q0-5.5 3.5-9T50 51zm181 192q-2 14-12.5 23.5T193 276h-86q-15 0-25.5-9.5T69 243l-5-42h37q4 24 18 37t31 13q17 0 31-13t18-37h37l-5 42z"/></svg>