<svg viewBox="0 0 300 302.0011" xmlns="http://www.w3.org/2000/svg"><path d="M300 251q0 5-3.5 8.5T287 263H150q-17 1-31.5-7.5t-22.5-23Q88 218 88 201V101q0-17 8-31.5t22.5-23Q133 38 150 39h138q5-1 8.5 3t3.5 9q0 5-3.5 8.5T287 63H150q-16 1-26.5 11.5T113 101v100q0 16 10.5 27t26.5 11h138q5 0 8.5 3.5t3.5 8.5zM175 151q0-5-3.5-8.5T162 139h-12q-5-1-8.5 3t-3.5 9q0 5 3.5 8.5t8.5 3.5h13q5 0 8.5-3.5t3.5-8.5zm50-13h-12q-6 0-9.5 4t-3.5 9q0 5 3.5 8.5t9.5 3.5h12q5 0 8.5-3.5t3.5-8.5q0-5-3.5-8.5T225 139v-1zm63 0h-13q-5 0-8.5 4t-3.5 9q0 5 3.5 8.5t8.5 3.5h13q5 0 8.5-3.5t3.5-8.5q0-5-3.5-8.5T287 139l1-1zM163 88h-13q-5 0-8.5 4t-3.5 9q0 5 3.5 8.5t8.5 3.5h13q5 0 8.5-3.5t3.5-8.5q0-5-3.5-9t-9.5-3l1-1zm62 0h-12q-6 0-9.5 4t-3.5 9q0 5 3.5 8.5t9.5 3.5h12q5 0 8.5-3.5t3.5-8.5q0-5-3.5-8.5T225 89v-1zm63 0h-13q-5 0-8.5 4t-3.5 9q0 5 3.5 8.5t8.5 3.5h13q5 0 8.5-3.5t3.5-8.5q0-5-3.5-8.5T287 89l1-1zm0 100h-88q-5 1-8.5 4.5t-4 8.5q-.5 5 3.5 9t9 4h88q5-1 8.5-4.5t3.5-8.5q0-5-3.5-9t-9.5-4h1zM59 99q-4-3-9-3t-9 3L7 133q-7 8-7 18t7 18l34 34q4 3 9 3t9-3.5q4-3.5 4-8.5t-4-9l-34-34 34-34q4-4 4-9t-4-9zm79 102q0 5 3.5 8.5t8.5 3.5q5 0 8.5-3.5t4-8.5q.5-5-3.5-8.5t-9-4q-5-.5-8.5 3.5t-3.5 9z"/></svg>