<svg viewBox="0 0 300 302.0011" xmlns="http://www.w3.org/2000/svg"><path d="M81 128l21-15-21-14q-5-3-6-8t2-9.5q3-4.5 8-5.5t9 2l38 25q6 4 6 10.5t-6 10.5l-38 25q-3 2-6 2-7 0-10.5-5T75 136q1-5 6-8zm53 39q4 5 3 11l-19 104q-1 6-4.5 10.5T105 299q-5 2-9 2-8 0-14-5l-15-12-13 4q-9 2-17.5 0t-15-8.5q-6.5-6.5-8.5-15t1-17.5l4-13-12-15q-4-4-5-10t1-12q2-6 6.5-9.5T19 183l104-19q6-1 11 3zm-25 25l-82 15 14 17q4 5 2 11l-6 20q-1 4 2 7t7 2l20-6h3q5 0 8 2l17 14 15-82zM150 1q-41 0-75.5 20T20 75.5Q0 110 0 151q0 5 3.5 8.5t9 3.5q5.5 0 9-3.5T25 151q0-34 17-62.5T87.5 43Q116 26 150 26t62.5 17Q241 60 258 88.5t17 62.5q0 34-17 62.5T212.5 259Q184 276 150 276q-5 0-8.5 3.5t-4 9q-.5 5.5 3.5 9t9 3.5q41 0 75.5-20t54.5-54.5q20-34.5 20-75.5t-20-75.5Q260 41 225.5 21T150 1zm73 81q-3-5-8-6t-9 2l-38 25q-5 4-5 10.5t5 10.5l38 25q3 2 6 2 7 0 10.5-5t2.5-10q-1-5-6-8l-21-15 21-14q5-3 6-8t-2-9zm-69 130q3 4 8.5 4t8.5-3l9-9 18 16q2 3 6.5 4.5t7.5 1.5q7 0 12-6l23-23q3-4 3-9t-3.5-8.5q-3.5-3.5-9-3.5t-8.5 4l-18 18-17-17q-6-5-13.5-5t-13.5 5l-13 14q-4 3-4 8.5t4 8.5z"/></svg>