<svg viewBox="0 0 300 302.0011" xmlns="http://www.w3.org/2000/svg"><path d="M275 1h-50q-5 0-8.5 3.5t-3.5 9q0 5.5 3.5 9T225 26h32l-30 30q-21-16-47-17.5T131 50q-23-13-49-11T35 56.5Q14 72 5 97t-2 51q7 26 26.5 43.5T75 212v26H50q-5 0-8.5 4t-3.5 9q0 5 3.5 8.5T50 263h25v25q0 6 3.5 9.5t9 3.5q5.5 0 9-3.5t3.5-8.5v-26h25q5 0 9-3.5t4-8.5q0-5-4-8.5t-9-3.5h-25v-26q17-3 31-11 27 15 58 10.5t51.5-28q20.5-23.5 22-54.5T245 74l30-30v32q0 5 3.5 8.5t9 3.5q5.5 0 9-3.5T300 76V26q0-10-7.5-17.5T275 1zM25 126q0-15 7-29t20-22.5Q65 66 80 64t30 4q-15 16-20 37t0 42q5 21 20 37-15 6-30 4t-28-10.5Q39 169 32 155t-7-29zm150 62q-17 0-31.5-8T121 157.5q-8-14.5-8-31.5t8-31.5q8-14.5 22.5-23t31.5-8q17 .5 31.5 8.5t23 22.5q8.5 14.5 8 31.5t-8.5 31.5q-8 14.5-22.5 22.5t-31.5 9v-1z"/></svg>