<svg viewBox="0 0 300 302.0011" xmlns="http://www.w3.org/2000/svg"><path d="M163 178v-77q0-5-4-9t-9-4q-5 0-9 4t-4 9v77q-12 5-19 16.5t-5 25q2 13.5 12.5 22.5t24.5 9q14 0 24.5-9t12.5-22.5q2-13.5-5-25T163 178zm50-26V63q-1-29-21-46-17-15-42-15t-42 15Q88 34 88 64v88q-17 17-22.5 39.5t.5 45q6 22.5 22.5 39t39 22.5q22.5 6 45 0t39-22.5q16.5-16.5 22.5-39t.5-45Q229 169 213 152zm-63 124q-19 0-35-11t-23-29q-7-18-2.5-37t18.5-32q4-4 5-9V63q0-15 10.5-26T150 26q16 0 27 11t11 27v94q0 5 4 9 14 13 18.5 32t-2.5 37q-7 18-23 29t-35 11z"/></svg>