<svg viewBox="0 0 300 302.0011" xmlns="http://www.w3.org/2000/svg"><path d="M244 76h-38q-23 0-39.5 16.5T150 132v113q0 23 16.5 39.5T206 301h38q23 0 39.5-16.5T300 245V132q0-23-16.5-39.5T244 76zm31 169q0 13-9 22t-22 9h-38q-13 0-22-9t-9-22V132q0-13 9-22t22-9h38q13 0 22 9t9 22v113zm-19-25q0 13-9 22t-22 9q-13 0-22-9t-9-22q0-13 9-22t22-9.5q13-.5 22 9t9 22.5zm-50-75q0-8 5.5-13.5T225 126q8 0 13.5 5.5T244 145q0 8-5.5 13.5T225 164q-8 0-13.5-5.5T206 145zm-81 56v50q0 5-3.5 8.5T112 263H75q-5 0-8.5-3.5T63 251q0-5 3.5-9t8.5-4h25v-25H63q-17 0-31.5-8t-23-22.5Q0 168 0 151V63q0-16 8.5-30.5t23-23Q46 1 63 1h137q17 0 31.5 8.5T254 32q3 5 1.5 10t-6 7.5q-4.5 2.5-9.5 1t-7-5.5q-6-9-14.5-14T200 26H63q-16 0-27 11T25 64v87q0 16 11 27t27 11h50q5 0 8.5 3.5t3.5 8.5z"/></svg>