<svg viewBox="0 0 300 302.0011" xmlns="http://www.w3.org/2000/svg"><path d="M238 301h-75q-17 0-31.5-8.5t-23-23Q100 255 100 238v-37H63q-17 0-31.5-8.5t-23-23Q0 155 0 138V63q0-16 8.5-30.5t23-23Q46 1 63 1h75q16 0 30.5 8.5t23 23Q200 47 200 63v38h38q16 0 30.5 8.5t23 23Q300 147 300 163v75q0 17-8.5 31.5t-23 23Q254 301 238 301zM63 26q-16 0-27 11T25 63v75q0 16 11 27t27 11h50q5 0 8.5 3.5t3.5 8.5v50q0 16 11 27t27 11h75q15 0 26-11t11-27v-75q0-15-11-26t-26-11h-50q-6 0-9.5-3.5T175 113V63q0-15-11-26t-26-11H63z"/></svg>