<svg viewBox="0 0 300 302.0011" xmlns="http://www.w3.org/2000/svg"><path d="M160 1q-32-2-62.5 9.5T44 45Q21 68 9.5 98.5T0 162q3 39 25.5 71T84 283q36 18 80 18h74q16 0 30.5-8.5t23-23Q300 255 300 238v-83q0-40-18.5-74T231 25.5Q199 4 160 1zm115 237q0 16-11 27t-27 11h-73q-38 0-68.5-15t-49-41.5Q28 193 25 160q-2-27 7.5-52.5t28-44Q79 45 102 35.5t48-9.5h9q32 2 58.5 20t42 47q15.5 29 15.5 62v83zM188 88h-75q-16 0-27 11t-11 27q0 5 3.5 9t9 3.5q5.5-.5 9-4t3.5-8.5q0-5 3.5-9t9.5-4h25v100h-13q-5 0-8.5 4t-4 9q-.5 5 3.5 8.5t9 3.5h50q5 0 9-3.5t3.5-8.5q-.5-5-4-9t-8.5-4h-12V113h25q5 0 8.5 4t3.5 9q0 5 3.5 8.5t9 3.5q5.5 0 9-3.5t3.5-8.5q0-16-11-26.5T188 89v-1z"/></svg>