<svg viewBox="0 0 300 302.0011" xmlns="http://www.w3.org/2000/svg"><path d="M234 151h-59q-10 0-17.5-7.5T150 126V67q0-9-4-17t-10.5-13q-6.5-5-14.5-7t-17 0q-30 8-54 28t-37 48.5Q0 135 .5 167t15 59.5Q30 254 55 273t56 25q36 7 69-4t57.5-37q24.5-26 32.5-60 3-8 1-16.5t-7.5-15q-5.5-6.5-13-10.5t-16.5-4zm12 40q-6 26-23.5 46T180 267.5q-25 10.5-52 8T78.5 259Q56 245 42 222.5T26 173q-2-27 8-52t30-42.5Q84 61 111 55q5-2 9.5 2t4.5 10v59q0 21 14.5 35.5T175 176h59q6 0 10 4.5t2 10.5zm50-97q-9-32-32.5-56T207 6q-3-1-7-1-10 0-17.5 7T175 30v58q0 16 11 27t27 11h59q12 0 19.5-10t4.5-22zm-32 7h-51q-5 0-9-3.5t-4-8.5V30h1q26 7 45 26t26 45h-8z"/></svg>