<svg viewBox="0 0 300.5 302.0011" xmlns="http://www.w3.org/2000/svg"><path d="M250 188h-50v-50q0-5-3.5-8.5t-9-3.5q-5.5 0-9 3.5T175 139v49H50q-21 0-35.5 15T0 239v12q0 21 14.5 35.5T50 301h200q21 0 35.5-14.5T300 251v-13q0-20-14.5-35T250 189v-1zm25 63q0 10-7.5 17.5T250 276H50q-10 0-17.5-7.5T25 251v-13q0-10 7.5-17t17.5-8h200q10 0 17.5 7.5T275 239v12zM188 63q17 0 32.5 6.5T248 88q3 4 3 9t-3.5 9q-3.5 4-8.5 4t-9-4q-18-17-42.5-17.5T145 106q-4 4-9 4t-8.5-4q-3.5-4-3.5-9t3-9q12-12 27.5-18t33.5-6v-1zM75 245q0 8-5.5 13T56 263q-8 0-13-5t-5-13q0-8 5-13.5t13-5.5q8 0 13.5 5.5T75 245zm50 0q0 8-5.5 13t-13.5 5q-8 0-13.5-5t-5-13q.5-8 5.5-13.5t13-5.5q8 0 13.5 5.5T125 245zM78 49q21-23 49.5-35.5t60-12.5q31.5 0 60 12.5T297 49q4 4 3.5 9t-4 8.5Q293 70 288 70t-9-4q-18-19-42-29.5T187.5 26Q162 26 138 36.5T96 66q-3 4-8.5 4t-9-3.5Q75 63 74.5 58t3.5-9z"/></svg>