<svg viewBox="0 0 300 302.0011" xmlns="http://www.w3.org/2000/svg"><path d="M163 138h100q15 0 26-10.5t11-26.5V63q0-15-11-26t-27-11h-32L213 8q-8-7-18-7h-32q-16 0-27 11t-11 27v24H25V13q0-5-3.5-8.5t-9-3.5Q7 1 3.5 4.5T0 13v175q0 17 8.5 31.5t23 23Q46 251 63 251h62v12q0 16 11 27t26 11h101q15 0 26-11t11-27v-37q0-16-11-26.5T262 188h-32l-17-17q-8-8-18-8h-32q-16 0-27 11t-11 27v25H63q-16 0-27-11t-11-26V88h100v13q0 16 11 26.5t26 10.5h1zm-13 63q0-5 3.5-8.5t9.5-3.5h32l18 17q7 8 17 8h33q5-1 8.5 3t3.5 9v37q0 6-3.5 9.5T263 276H163q-6 0-9.5-3.5T150 263v-62zm0-163q0-5 3.5-8.5T163 26h32l18 18q7 7 17 7h33q5 0 8.5 3.5T275 64v37q0 5-3.5 8.5T263 113H163q-6 0-9.5-3.5T150 101V38z"/></svg>