<svg viewBox="0 0 300 302.0011" xmlns="http://www.w3.org/2000/svg"><path d="M163 113h-25q-11 1-18.5 8t-7.5 17v25q1 11 8 18.5t18 7.5h25q10-1 17.5-8t7.5-18v-25q-1-10-8-17.5t-17-7.5zm0 50h-25v-25h25v25zm100 25q10 1 17.5-6.5T288 163v-25q0-10-7.5-17.5T263 113h-25q-11 1-18.5 8t-7.5 17v25q0 11 7.5 18.5T237 189h26v-1zm-25-50h25v25h-25v-25zM63 188q10 0 17.5-7t7.5-18v-25q0-10-7.5-17.5T62 113H38q-11 0-18 7.5T13 138v25q0 11 7 18.5t17 7.5h26v-1zm-25-50h25v25H38v-25zm62 150q0 6-3.5 9.5T88 301H63q-17 0-31.5-8.5t-23-23Q0 255 0 238v-25q0-5 3.5-8.5t9-3.5q5.5 0 9 3.5T25 213v25q0 16 11 27t27 11h25q5 0 8.5 3.5t3.5 9.5v-1zm200-75v25q0 17-8.5 31.5t-23 23Q254 301 238 301h-25q-6 0-9.5-3.5t-3.5-9q0-5.5 3.5-9t9.5-3.5h25q15 0 26-11t11-27v-25q0-5 3.5-8.5t9-3.5q5.5 0 9 3.5t3.5 8.5zm0-150v25q0 6-3.5 9.5t-9 3.5q-5.5 0-9-3.5T275 88V63q0-15-11-26t-27-11h-24q-6 0-9.5-3.5t-3.5-9q0-5.5 3.5-9T213 1h25q16 0 30.5 8.5t23 23Q300 47 300 64v-1zM100 13q0 6-3.5 9.5T88 26H63q-16 0-27 11T25 64v24q0 6-3.5 9.5t-9 3.5q-5.5 0-9-3.5T0 88V63q0-16 8.5-30.5t23-23Q46 1 63 1h25q5 0 8.5 3.5T100 14v-1z"/></svg>