<svg viewBox="0 0 300 302.0011" xmlns="http://www.w3.org/2000/svg"><path d="M188 53v-2H63q-16 0-27 11T25 88.5Q25 104 36 115t27 11h225q5 0 8.5 3.5t3.5 9q0 5.5-3.5 9T287 151H63q-17 0-31.5-8.5t-23-23Q0 105 0 88.5t8.5-31q8.5-14.5 23-23T63 26h125v-2q0-11 8-18t19-5l75 17q4 1 7 4t3 8v17q0 5-3 8t-7 4l-75 17q-10 2-18.5-5T188 53zm100 173H13q-6 0-9.5 3.5t-3.5 9q0 5.5 3.5 9T13 251h275q5 0 8.5-3.5t3.5-9q0-5.5-3.5-9T287 226h1zm0 50H13q-6 0-9.5 3.5t-3.5 9q0 5.5 3.5 9T13 301h275q5 0 8.5-3.5t3.5-9q0-5.5-3.5-9T287 276h1zm0-100H13q-6 0-9.5 3.5t-3.5 9q0 5.5 3.5 9T13 201h275q5 0 8.5-3.5t3.5-9q0-5.5-3.5-9T287 176h1z"/></svg>