<svg viewBox="0 0 300 302.0011" xmlns="http://www.w3.org/2000/svg"><path d="M188 131q-10 4-17 11l-14 12q-3 3-7 3t-7-3l-14-12q-7-7-16-11-1-12 8-21t22-9h14q13 0 21.5 9t8.5 21h1zm-88-80q10 0 17.5-7.5T125 26q0-10-7.5-17.5T100 1Q90 1 82.5 8.5T75 26q0 10 7.5 17.5T100 51zm50 37q10 0 17.5-7t7.5-17.5q0-10.5-7.5-18T150 38q-10 0-17.5 7.5t-7.5 18q0 10.5 7.5 17.5t17.5 7zm50-37q10 0 17.5-7.5T225 26q0-10-7.5-17.5T200 1q-10 0-17.5 7.5T175 26q0 10 7.5 17.5T200 51zm63 0q-12 0-21 6t-13 15q-9-9-22-8h-7q0 11-5 21 15 12 17 31v10q7 0 13 1v26q-10-3-20-1t-18 9l-37 34-38-34q-7-7-17-9t-20 1v-26q6-1 13-1v-10q2-19 17-31-5-10-5-22h-7q-13 0-22 9-4-9-13-15t-20-6q-16 0-27 11T0 88v127q0 20 7.5 38T29 285l12 12q4 4 9 4t9-3.5q4-3.5 4-9t-4-8.5l-12-12q-11-11-16.5-24.5T25 215V88q0-5 3.5-8.5t9-3.5q5.5 0 9 3.5T50 89v101q1 13 9 23l33 34q4 4 9 4t8.5-3.5q3.5-3.5 4-8.5t-3.5-9l-32-34q-3-3-3-7.5t3.5-8.5q3.5-4 8.5-4t9 3l34 32q9 8 14.5 20t5.5 26v31q0 6 3.5 9.5t9 3.5q5.5 0 9-3.5t3.5-9.5v-31q0-22-10-41l39-37q4-3 9-3t8 3.5q3 3.5 4 8t-2 8.5l-32 33q-4 3-3.5 8.5t4 9q3.5 3.5 8.5 3.5t9-4l32-33q5-6 7-10.5t2-14.5V88q0-5 3.5-8.5t9-3.5q5.5 0 9 3.5T275 89v126q0 15-5.5 28.5T253 268l-12 12q-3 3-3 8.5t3.5 9q3.5 3.5 8.5 3.5t9-4l12-12q14-14 21.5-32t7.5-38V88q0-15-11-26t-26-11z"/></svg>