<svg viewBox="0 0 300 302.0011" xmlns="http://www.w3.org/2000/svg"><path d="M213 126q-24 0-44 12t-32 32q-12 20-12 43.5t12 43.5q12 20 32 32t43.5 12q23.5 0 43.5-12t32-32q12-20 12-43.5T288 170q-12-20-32-32t-43-12zm12 149v-12q0-5-3.5-8.5t-9-3.5q-5.5 0-9 3.5T200 264v11q-22-5-36-22t-14-40q0-16 8.5-30.5t23-23q14.5-8.5 31-8.5t31 8.5q14.5 8.5 23 23T275 214q0 22-14 39t-36 22zm24-81q2 12-3 23t-15 17q-6 3-13 4-3 1-5 0-6 0-9.5-3.5T200 226q0-5 3.5-9t9.5-4h1q3 0 5.5-1.5t4.5-5q2-3.5 1-7.5t-3.5-7q-2.5-3-7-3.5t-8 1.5q-3.5 2-5.5 5.5t-7 5q-5 1.5-9.5-1t-6-7.5q-1.5-5 1.5-10 6-10 16.5-15t22.5-3q12 2 20 10.5t10 19.5zM31 32q0-13 9.5-22t22-9q12.5 0 22 9T94 32q0 13-9.5 22.5t-22 9Q50 63 40.5 54T31 32zm94 131v-37q0-21-14.5-35.5T75 76H50q-21 0-35.5 14.5T0 126v37q0 14 7 25.5T25 207v81q0 6 3.5 9.5t9 3.5q5.5 0 9-3.5T50 288v-75h25v75q0 6 3.5 9.5t9 3.5q5.5 0 9-3.5t3.5-9.5v-81q11-7 18-18.5t7-25.5zm-25 0q0 11-7.5 18.5T75 189H50q-10-1-17.5-8T25 163v-37q0-10 7.5-17.5T50 101h25q10 0 17.5 7.5T100 126v37z"/></svg>