<svg viewBox="0 0 300 302.0011" xmlns="http://www.w3.org/2000/svg"><path d="M250 228V107q0-11-4-26-8-30-28-50-28-27-75-30-8-1-15.5 4T118 18q-4 17-16 30T74 66q-11 5-17.5 14.5T50 101q0 11 7 18t18 7h53q-5 14-15.5 25.5T88 169q-17 7-27.5 22.5T50 226v2q-13 5-20 16.5t-4.5 25Q28 283 38.5 292t24.5 9h175q13 0 23.5-9t13-22.5q2.5-13.5-4.5-25T250 228zM98 191q24-10 39.5-30t18.5-45q1-6-2.5-10.5T144 101H75q0-4 2.5-7t5.5-4q22-8 37.5-25T142 26q22 0 41 11t30.5 29.5Q225 85 225 107v119H75q0-11 6.5-20.5T98 191zm140 85H63q-6 0-9.5-3.5t-3.5-9q0-5.5 3.5-9T63 251h175q5 0 8.5 3.5t3.5 9q0 5.5-3.5 9T238 276z"/></svg>