<svg viewBox="0 0 300 302.0011" xmlns="http://www.w3.org/2000/svg"><path d="M196 172l-28 29 28 29q4 3 4 8.5t-3.5 9q-3.5 3.5-9 3.5t-8.5-4l-29-28-29 28q-3 4-8.5 4t-9-3.5q-3.5-3.5-3.5-9t4-8.5l28-29-28-29q-4-3-4-8.5t3.5-9q3.5-3.5 9-3.5t8.5 4l29 28 29-28q3-4 8.5-4t9 3.5q3.5 3.5 3.5 9t-4 8.5zm104-84v150q0 17-8.5 31.5t-23 23Q254 301 238 301H63q-17 0-31.5-8.5t-23-23Q0 255 0 238V88q0-16 8.5-30.5t23-23Q46 26 63 26h12V13q0-5 3.5-8.5t9-3.5q5.5 0 9 3.5T100 13v13h100V13q0-5 3.5-8.5t9-3.5q5.5 0 9 3.5T225 13v13h13q16 0 30.5 8.5t23 23Q300 72 300 89v-1zM25 88v13h250V88q0-15-11-26t-27-11H63q-16 0-27 11T25 88zm250 150V126H25v112q0 16 11 27t27 11h175q15 0 26-11t11-27z"/></svg>