<svg viewBox="0 0 300 302.0011" xmlns="http://www.w3.org/2000/svg"><path d="M175 301q-5 0-9-3.5t-4-8.5v-63q1-5 4.5-8.5t8.5-4q5-.5 9 3.5t4 9v62q0 6-4 9.5t-9 3.5zm-100 0q-5 0-8.5-3.5T63 289v-63q0-5 3.5-8.5t8.5-4q5-.5 8.5 3.5t3.5 9v62q1 6-3 9.5t-9 3.5zm150-25q-5 0-8.5-3.5T212 263v-62q1-5 4.5-9t8.5-4q5 0 9 4t3 9v62q1 6-3 9.5t-9 3.5zm-100 0q-5 0-8.5-3.5T113 263v-62q-1-5 3-8.5t9-4q5-.5 9 3.5t4 9v62q0 6-4 9.5t-9 3.5zM25 230q-6 0-10-5-11-14-14-31t2.5-34Q9 143 22 131q6-4 5-11-4-18-1-36 6-31 27.5-53.5T106 3q34-7 64.5 8.5T215 58q3 6 10 7 22 5 40 19.5t27 36q9 21.5 7.5 44.5T286 207q-3 5-8 6t-9.5-2q-4.5-3-5.5-8t1-9q9-14 10.5-31t-5.5-32.5q-7-15.5-20-26.5t-29-14q-9-2-16-7.5T193 69q-11-22-32.5-34T115 26.5Q91 30 73 47T51 88q-2 14 0 27 2 10-1 19t-11 16q-12 12-13.5 29t9.5 31q5 6 1.5 13T25 230z"/></svg>