<svg viewBox="0 0 300 302.0011" xmlns="http://www.w3.org/2000/svg"><path d="M150 38q-38 0-69.5 9T28 72Q7 88 2 107q-2 4-2 7v68q0 23 20 41.5t54.5 29Q109 263 150 263t75.5-10.5q34.5-10.5 54.5-29t20-41.5v-62q0-23-20-41.5T225.5 49Q191 38 150 38zm0 25q35 1 65 9 28 8 44 21t16 27q0 6-4 13-21-15-53-23.5t-68-8.5q-36 0-68 8.5T29 133q-4-7-4-13 0-14 16-27t44-21q30-9 65-9zm102 88q-17 11-42 18-28 7-60 7t-60-7q-25-7-42-18 18-12 45-18.5t57-6.5q30 0 57 6.5t45 18.5zm-102 87q-35 0-65-8-28-8-44-21t-16-27v-17q20 17 53 26.5t72 9.5q39 0 72-9.5t53-26.5v17q0 14-16 27t-44 21q-30 9-65 9v-1z"/></svg>