<svg viewBox="0 0 300 302.0011" xmlns="http://www.w3.org/2000/svg"><path d="M150 1q-41 0-75.5 20T20 75.5Q0 110 0 151t20 75.5Q40 261 74.5 281t75.5 20q41 0 75.5-20t54.5-54.5q20-34.5 20-75.5t-20-75.5Q260 41 225.5 21T150 1zm88 112q-1 24-12.5 44T194 189q-20 12-44 12t-44-12q-20-12-32-32t-12-43q0-23 10.5-42T101 41q18-12 40-15h18q22 3 40 15t28.5 31Q238 91 238 114v-1zm-88 163q-34 0-62.5-17T42 213.5Q25 185 25 151q0-31 14-58-1 10-1 20-1 31 14.5 57t41 41q25.5 15 56.5 15t56.5-15q25.5-15 40.5-41t15-57q1-10-1-20 14 27 14 58 0 34-17 62.5T212.5 259Q184 276 150 276zM113 76q0 13 8 24-15 13-15 31.5t13 31.5q13 13 31 13t31-13q13-13 13-31.5T179 100q9-11 9-24 0-16-11-26.5t-27-11Q134 38 123.5 49T113 76zm37 75q-8 0-13.5-5.5T131 132q0-8 5.5-13.5T150 113q8 0 13.5 5.5T169 132q0 8-5.5 13.5T150 151zm13-75q0 5-4 8.5t-9 3.5q-5 0-9-3.5t-3.5-8.5q.5-5 4-9t8.5-4q5 0 9 4t4 9z"/></svg>