<svg viewBox="0 0 300 302.0011" xmlns="http://www.w3.org/2000/svg"><path d="M106 138q-8 0-13-5t-5-13q0-8 5-13.5t13-5.5q8 0 13.5 5.5T125 120q0 8-5.5 13.5T106 139v-1zm88-37q-8 0-13.5 5.5T175 120q0 8 5.5 13.5t13.5 5q8-.5 13.5-5.5t5.5-13q0-8-5.5-13.5T194 101zm106 50q0 41-20 75.5T225.5 281Q191 301 150 301q-57-2-95-33-35-29-47.5-73t0-88Q20 63 55 34 93 3 150 1q41 0 75.5 20T280 75.5q20 34.5 20 75.5zm-25 0q0-34-17-62.5T212.5 43Q184 26 150 26q-47 2-79 28-30 23-40 60t0 74q10 37 40 60 32 26 79 28 34 0 62.5-17t45.5-45.5q17-28.5 17-62.5zm-87 31q0-13-9.5-22t-22.5-9h-21q-6 0-9.5 3.5t-3.5 9q0 5.5 3.5 9t9.5 3.5h21q3 0 5 2t2 4.5q0 2.5-2 4.5t-5 2h-6q-5-1-9 3t-3.5 9q.5 5 4 8.5t8.5 3.5h6q3 1 5 2.5t2 4q0 2.5-2 4.5t-5 2h-21q-6 0-9.5 3.5t-3.5 9q0 5.5 3.5 9t9.5 3.5h21q9 0 16.5-4.5T184 234q4-8 3-17t-6-16q6-8 6-19h1z"/></svg>