<svg viewBox="0 0 300 302.0011" xmlns="http://www.w3.org/2000/svg"><path d="M275 120q0 29-13.5 54.5T225 217q-18 13-33 42-9 18-26.5 30T125 301q-25 0-45-15-14-10-22-26t-8-34q0-5 3.5-8.5T63 214q5 0 8.5 3.5T75 226q0 12 5.5 22.5T95 266q13 10 29 10t28-8q12-8 18-20 17-35 41-52 18-13 28.5-33.5T250 120q0-20-8-38.5t-23-32Q204 36 185 30t-40-3q-31 3-54 25.5T63 106q-1 10 0 19 0 5-3.5 9t-8.5 4.5q-5 .5-9-3t-4-8.5q-1-12 1-24 3-26 18-48t37-36q22-14 48-17t50 4.5Q216 14 235 31t29.5 40Q275 94 275 120zM156 76q18 0 31 13t13 31q0 5 3.5 8.5t9 3.5q5.5 0 9-3.5t3.5-8.5q0-19-9.5-34.5t-25-25Q175 51 156 51q-26 0-46 17.5T88 112l-1 2q1 11 8.5 18t16.5 7q6 0 9.5 3.5t3.5 8.5q0 5-3.5 9t-9 4q-5.5 0-9 3.5T100 176q0 5 3.5 9t8.5 4q16 0 27-11t11-26.5q0-15.5-11-26.5t-26-12q2-16 14.5-26.5T156 76z"/></svg>