<svg viewBox="0 0 300 302.0011" xmlns="http://www.w3.org/2000/svg"><path d="M150 13v75q0 23-14 40t-36 22v138q0 6-3.5 9.5t-9 3.5q-5.5 0-9-3.5T75 289V150q-22-5-36-22T25 89V13q0-5 3.5-8.5t9-3.5q5.5 0 9 3.5T50 13v75q0 12 7 22t18 14V13q0-5 3.5-8.5t9-3.5q5.5 0 9 3.5T100 13v111q11-4 18-14t7-21V13q0-5 3.5-8.5t9-3.5q5.5 0 9 3.5T150 13zm125 113q-1 36-17.5 68T212 248v40q0 6-3.5 9.5T200 301q-5 0-8.5-3.5T187 289V26q0-7 4-13t11-9q7-3 15-1.5T231 9q22 24 33.5 54.5T275 126zm-25 0q0-27-9.5-53T213 27v187q17-17 27-40t10-48z"/></svg>