<svg viewBox="0 0 300 302.0011" xmlns="http://www.w3.org/2000/svg"><path d="M290 146q-10-14-27-18 8-23 12-47 1-8-2-16.5t-9-15q-6-6.5-14.5-9T232 39l-12 2q6-13 5-28 0-5-4-8.5T212 1q-5 0-8.5 4t-3.5 9q0 9-4 17-2-7-7-13-9-10-21-14t-25-2.5Q130 3 119 11 106 2 90 1 70-1 54 12q-7 7-11.5 16.5T38 48q-1 17 9 31-12 10-17.5 24T25 133q-15 8-21.5 24.5T2 190q13 46 46 79 16 16 36.5 24t42.5 8h46q22 0 42.5-8t36.5-24q33-33 46-79 3-11 1-22.5t-9-21.5zm-54-82q6-1 10.5 3.5T250 78q-4 25-13 48h-32l16-16q4-4 4-9t-3.5-8.5q-3.5-3.5-9-3.5t-8.5 3l-34 34h-20q-1-10 2.5-19.5t10-16.5q6.5-7 20.5-13 22-9 53-13zM63 49q0-11 8-17.5t18-6q10 .5 16 7t14 6.5q8 0 13.5-6.5T147 26q6-1 12 1t10 7q6 7 6 17v2q-26 10-40 32-12-14-30.5-19T69 67q-7-8-6-18zm-13 77q0-16 11-27t26.5-11Q103 88 114 99t11 27H50zm224 57q-11 40-40 69-12 11-28 17.5t-33 6.5h-46q-17 0-33-6.5T66 252q-29-29-40-69-4-12 4-22t20-10h200q13 0 20.5 10t3.5 22z"/></svg>