<svg viewBox="0 0 300 302.0011" xmlns="http://www.w3.org/2000/svg"><path d="M296 22q4-3 4-8.5t-3.5-9Q293 1 287.5 1T279 5l-32 32q-20-17-45-26.5T150 1q-27 0-52 9.5T53 37L21 5q-3-4-8.5-4t-9 3.5Q0 8 0 13.5T4 22l32 32Q19 74 9.5 99T0 151q0 41 20 75.5T74.5 281q34.5 20 75.5 20t75.5-20q34.5-20 54.5-54.5t20-75.5q0-27-9.5-52T264 54l32-32zM188 32v44q-17-13-38-13t-37 13V32q18-6 37-6t37 6h1zm0 94q0 16-11 26.5T150 163q-16 0-26.5-10.5T113 126q0-16 10.5-26.5T150 89q16 0 26.5 10.5T187 126h1zm-38 150q-34 0-62.5-17T42 213.5Q25 185 25 151t17-63q17-29 46-45v83q0 17 8 31.5t22.5 22.5q14.5 8 31.5 8.5t31.5-8q14.5-8.5 22.5-23t8-31.5V43q29 16 46 45t17 63q0 34-17 62.5T212.5 259Q184 276 150 276z"/></svg>