<svg viewBox="0 0 300 302.0011" xmlns="http://www.w3.org/2000/svg"><path d="M188 76q-1 5-4.5 9t-8.5 4h-50q-5-1-8.5-4.5t-4-8.5q-.5-5 3.5-9t9-4h50q5 0 9 4t3 9h1zm-13 50h-50q-5 0-8.5 3.5t-4 9q-.5 5.5 3.5 9t9 3.5h50q5 0 8.5-3.5t3.5-9q0-5.5-3.5-9T175 126zm-25 150H63q-16 0-27-11t-11-27V63q0-15 11-26t27-11h112q16 0 27 11t10 27v68q0 5 4 9t9 4q5 0 9-4t3-9V63q1-16-7.5-30.5t-23-23Q192 1 175 1H63Q46 1 31.5 9.5t-23 23Q0 47 0 64v174q0 17 8.5 31.5t23 23Q46 301 63 301h87q5 0 8.5-3.5t4-9q.5-5.5-3.5-9t-9-3.5zm150-69q0 22-22 51-17 23-36 37-7 6-17 6t-17-6q-19-14-36-37-22-29-22-51 0-18 13-31t31-13q18 0 31 14 13-14 31-14t31 13q13 13 13 31zm-25 0q0-8-5.5-13t-13.5-5.5q-8-.5-13 5t-5 13.5q-1 5-4.5 9t-8.5 4q-5 0-8.5-4t-3.5-9q0-8-5.5-13.5T194 188q-8 0-13.5 5.5T175 207q0 15 18 37 14 19 30 31 2 2 4 0 16-12 30-31 18-23 18-37zM69 57q-8 0-13.5 5.5T50 76q0 8 5.5 13.5T69 95q8 0 13.5-5.5T88 76q0-8-5.5-13.5T69 57zm0 125q-8 0-13.5 5.5T50 201q0 8 5.5 13.5T69 220q8 0 13.5-5.5T88 201q0-8-5.5-13.5T69 182zm0-62q-8 0-13.5 5.5t-5.5 13q0 7.5 5.5 13T69 157q8 0 13.5-5.5t5.5-13q0-7.5-5.5-13T69 120z"/></svg>