<svg viewBox="0 0 300 302.0011" xmlns="http://www.w3.org/2000/svg"><path d="M208 134q13-6 21.5-18t8.5-28q0-20-15-35t-35-15q-13 0-23.5 6T147 60q-16-27-46-42Q66 1 12 1 7 1 3.5 4.5t-3.5 9q0 5.5 3.5 9T13 26q65 0 96 26-5-1-9-1-21 0-35.5 14.5T50 101q0 13 6.5 24.5T74 144q-32 19-51 42-23 30-23 65 0 21 14.5 35.5T50 301q21 0 35.5-14.5T100 251q0-40 19-73 13-21 31-36 18 15 31 36 19 33 19 73 0 21 14.5 35.5T250 301q21 0 35.5-14.5T300 251q0-41-30-73-23-25-62-44zm-20-71q10 1 17.5 8t7.5 17.5q0 10.5-7.5 17.5t-18 7.5q-10.5.5-18-7t-7-18q.5-10.5 7.5-18t17-7.5h1zm-88 13q10 0 17.5 7.5T125 101q0 10-7.5 17.5T100 126q-10 0-17.5-7.5T75 101q0-10 7.5-17.5T100 76zM75 251q0 10-7.5 17.5T50 276q-10 0-17.5-7.5T25 251q0-32 26-58 19-20 52-36-28 42-28 94zm175 25q-10 0-17.5-7.5T225 251q0-52-28-94 33 16 52 36 26 26 26 58 0 10-7.5 17.5T250 276z"/></svg>