<svg viewBox="0 0 300 302.0011" xmlns="http://www.w3.org/2000/svg"><path d="M300 248q0-24-8-47l-12-34q-7-18-23-29.5T221 126h-30q-19 0-35.5 11.5T133 167l-12 34q-9 27-8 45 1 26 25 30v6q0 8 5 13.5t13 5.5q8 0 13.5-5.5T175 282v-6h63v6q0 8 5 13.5t13 5.5q8 0 13.5-5.5T275 282v-6q11-1 18-9.5t7-18.5zm-109-97h30q12 0 21.5 7t13.5 18l5 12H152l4-12q4-11 14-18t21-7zm81 100H141q-2 0-2.5-1t-.5-2q-1-18 5-35h20v13q0 5 3.5 8.5t8.5 3.5q5 0 9-3.5t4-8.5v-13h37v13q0 5 3.5 8.5t9 3.5q5.5 0 9-3.5t3.5-8.5v-13h20q5 17 5 35 0 1-1 2t-2 1zM63 26q-16 0-27 11T25 64v224q0 6-3.5 9.5t-9 3.5q-5.5 0-9-3.5T0 289V63q0-16 8.5-30.5t23-23Q46 1 62 1h76q16 0 30.5 8.5t23 23Q200 47 200 63v25q0 6-3.5 9.5t-9 3.5q-5.5 0-9-3.5T175 89V63q0-15-11-26t-26-11H63zm25 37v13q0 5-4 9t-9 4H63q-6-1-9.5-4.5T50 76V63q0-5 3.5-8.5T62 51h13q5 0 8.5 3.5T87 63h1zm0 63v12q0 6-4 9.5t-9 3.5H63q-6 0-9.5-3.5T50 139v-13q0-5 3.5-9t8.5-4h13q5 1 8.5 4.5T87 126h1zm0 62v13q0 5-4 8.5t-9 3.5H63q-6 0-9.5-3.5T50 201v-13q0-5 3.5-8.5T62 176h13q5 0 8.5 3.5T87 189l1-1zm0 63v12q0 6-4 9.5t-9 3.5H63q-6 0-9.5-3.5T50 263v-12q0-5 3.5-9t8.5-4h13q5 1 8.5 4.5T87 251h1zm50-200q5 0 8.5 3.5T150 63v13q0 5-3.5 9t-8.5 4h-13q-5-1-8.5-4.5T113 76V63q0-5 3.5-8.5T125 51h13z"/></svg>