<svg viewBox="0 0 300 302.0011" xmlns="http://www.w3.org/2000/svg"><path d="M181 127l-4 46q0 4-2.5 7t-6.5 3q-4 0-7-5l-10-20-11 20q-2 5-6.5 5t-7-3q-2.5-3-2.5-7l-4-46q0-3 2-5t4.5-2q2.5 0 4.5 2t2 4l3 34 9-19q2-3 6-3t5 4l10 18 2-34q1-2 2.5-4t4.5-2q3 0 5 2t1 5zm68-7q-2 0-4 2t-2 4l-3 34-9-19q-2-3-6-3t-6 4l-9 18-3-34q0-2-2-4t-4.5-2q-2.5 0-4.5 2t-2 5l4 46q1 4 3.5 7t6.5 3q4 0 7-5l10-20 10 20q3 5 7 5t6.5-3q2.5-3 3.5-7l4-46q0-3-2-5t-5-2zm-150 0q-2 0-4 2t-2 4l-3 34-9-19q-2-3-6-3t-6 4l-9 18-3-34q0-2-2-4t-4.5-2q-2.5 0-4.5 2t-2 5l4 46q1 4 3.5 7t6.5 3q4 0 7-5l10-20 10 20q3 5 7 5t6.5-3q2.5-3 3.5-7l4-46q0-3-2-5t-5-2zm51 181q-41 0-75.5-20T20 226.5Q0 192 0 151t20-75.5Q40 41 74.5 21T150 1q41 0 75.5 20T280 75.5q20 34.5 20 75.5t-20 75.5Q260 261 225.5 281T150 301zm34-75h-68q14 24 34 45 20-21 34-45zm81-25q10-24 10-50t-10-50H35q-10 24-10 50t10 50h230zM116 76h68q-14-24-34-45-20 21-34 45zm66-46q18 23 30 46h38q-13-17-30-28.5T182 30zM50 76h38q12-23 30-46-21 6-38 17.5T50 76zm68 196q-18-23-30-46H50q13 17 30 28.5t38 17.5zm132-46h-38q-12 23-30 46 21-6 38-17.5t30-28.5z"/></svg>