<svg viewBox="0 0 300 302.0011" xmlns="http://www.w3.org/2000/svg"><path d="M238 13H63q-17 0-31.5 8.5t-23 23Q0 59 0 76v150q0 17 8.5 31.5t23 22.5q14.5 8 31.5 8h175q16 0 30.5-8t23-22.5Q300 243 300 226V76q0-17-8.5-31.5t-23-23Q254 13 238 13zm37 213q0 16-11 27t-27 11H63q-16-1-27-11.5T25 226V76q0-16 11-26.5T63 39h175q15-1 26 10t11 27v150zM238 88q-1 6-4.5 9.5T225 101h-87q-6 0-9.5-3.5t-3.5-9q0-5.5 3.5-9T137 76h88q5 0 8.5 3.5T237 89l1-1zm-138 0q0 8-5.5 13.5T81 107q-8 0-13-5.5t-5-13q0-7.5 5-13T81 70q8 0 13.5 5.5T100 88zm138 63q-1 5-4.5 8.5T225 163h-87q-6 0-9.5-3.5T125 151q0-5 3.5-8.5t8.5-3.5h88q5-1 8.5 3t3.5 9h1zm-138 0q0 8-5.5 13.5T81 170q-8 0-13-5.5T63 151q0-8 5-13.5t13-5.5q8 0 13.5 5.5T100 151zm138 62q-1 6-4.5 9.5T225 226h-87q-6 0-9.5-3.5t-3.5-9q0-5.5 3.5-9t8.5-3.5h88q5 0 8.5 3.5t3.5 8.5h1zm-138 0q0 8-5.5 13.5T81 232q-8 0-13-5.5t-5-13q0-7.5 5-13t13-5.5q8 0 13.5 5.5T100 214v-1z"/></svg>