<svg viewBox="0 0 300 302.0011" xmlns="http://www.w3.org/2000/svg"><path d="M300 174q-2-12-8.5-21.5T275 138l-37-25-6-25q-1-7-6.5-12.5T213 69l-25-6-24-36q-6-11-15.5-17.5t-21.5-8q-12-1.5-23 2T85 16L65 36q-9 8-12.5 19t-2 23q1.5 12 8 21.5T75 114l47 32 8 8-76 76q-8-4-16-4-16 0-27 11T0 263.5Q0 279 11 290t26.5 11Q53 301 64 290t11-26q0-9-4-17l76-76 8 8 31 46q6 11 15.5 17.5T223 251h7q21 0 35-15l20-20q9-8 12.5-19t2.5-23zM38 276q-6 0-9.5-3.5t-3.5-9q0-5.5 3.5-9t9-3.5q5.5 0 9 3.5t3.5 9q0 5.5-3.5 9T38 276zm90-156L88 93q-11-6-12.5-18.5T82 53l20-20q9-9 21.5-7T142 40l27 39-41 41zm19 16l46-46 15 3 3 15-46 46-18-18zm121 63l-20 20q-9 8-21.5 6.5T208 212l-27-39 41-41 40 27q11 6 12.5 18.5T268 199z"/></svg>