<svg viewBox="0 0 300 302.0011" xmlns="http://www.w3.org/2000/svg"><path d="M150 1q-41 0-75.5 20T20 75.5Q0 110 0 151t20 75.5Q40 261 74.5 281t75.5 20q41 0 75.5-20t54.5-54.5q20-34.5 20-75.5t-20-75.5Q260 41 225.5 21T150 1zm0 275q-34 0-62.5-17T42 213.5Q25 185 25 151t17-62.5Q59 60 87.5 43T150 26q34 0 62.5 17T258 88.5q17 28.5 17 62.5t-17 62.5Q241 242 212.5 259T150 276zm86-81q-5 8-16 16-19 15-45 15h-62q-6 0-9.5-3.5t-3.5-9q0-5.5 3.5-9t8.5-3.5h63q17 0 30-9 6-5 9-10t8-6q5-1 9.5 2t5.5 8q1 5-1 9zM89 138H75q-5 0-8.5-3.5T63 126q0-5 3.5-8.5T75 114h31q8 0 13.5 5t5.5 13q0 8-5.5 13.5T107 151q-7 0-11.5-3.5T89 138zm74-12q0-5 3.5-8.5t8.5-3.5h31q8 0 13.5 5t5.5 13q0 8-5.5 13.5T207 151q-7 0-11.5-3.5T189 138h-14q-5 0-8.5-3.5T163 126z"/></svg>