<svg viewBox="0 0 300 302.0011" xmlns="http://www.w3.org/2000/svg"><path d="M0 151q0-5 3.5-9t8.5-4h51q2-10 6-19L25 93q-7-4-7-11t6.5-11Q31 67 37 71l44 26q7-8 15-14L70 38q-2-4-.5-9t5.5-7.5q4-2.5 9-1.5t8 6l26 44q9-4 19-6V13q1-5 4.5-8.5T150 1q5 0 9 3.5t4 8.5v51q10 2 20 6l25-44q3-5 8-6t9 1.5q4 2.5 5.5 7.5t-.5 9l-26 44q8 7 15 15l44-26q4-2 9-.5t7.5 5.5q2.5 4 1 9t-5.5 8l-44 25q4 10 6 21l51-1q5 0 8.5 4t3.5 9q0 5-3.5 9t-8.5 4h-51q-10-1-17-7t-8-15q-4-23-21.5-38T150 89q-23 0-40.5 15T88 142q-1 9-8 15t-17 6H13q-6 0-9.5-3.5T0 151zm297 57q-4-4-9-4t-9 3q-10 9-23.5 5.5T237 197q-2-6-7.5-7.5t-10 .5q-4.5 2-6.5 7-3 7-10 11.5t-15.5 4.5q-8.5 0-15.5-4.5T162 197q-2-6-7.5-8t-10 .5Q140 192 138 197q-3 7-10 11.5t-15.5 4.5q-8.5 0-15.5-4.5T87 197q-2-6-7.5-8t-10 .5Q65 192 63 197q-5 12-18.5 15.5T21 207q-4-3-9-2.5t-8 4Q1 212 1 217t3 9q16 13 36.5 12.5T75 223q16 15 37.5 15t37.5-15q16 15 37.5 15t37.5-15q14 15 34.5 15.5T296 226q4-4 4-9t-3-9zm0 63q-4-4-9-4.5t-9 3.5q-10 8-23.5 5T237 259q-2-5-7.5-7t-10 0q-4.5 2-6.5 7-3 8-10 12.5t-15.5 4.5q-8.5 0-15.5-4.5T162 259q-2-5-7.5-7t-10 0q-4.5 2-6.5 7-3 8-10 12.5t-15.5 4.5q-8.5 0-15.5-4.5T87 259q-2-5-7.5-7t-10 0q-4.5 2-6.5 7-5 13-18.5 16T21 269q-4-3-9-2.5t-8.5 4Q0 274 0 279.5t4 8.5q16 14 36.5 13T75 286q16 15 37.5 15t37.5-15q16 15 37.5 15t37.5-15q14 14 34.5 15t36.5-13q4-3 4-8.5t-3-8.5z"/></svg>