<svg viewBox="0 0 300 302.0011" xmlns="http://www.w3.org/2000/svg"><path d="M63 82q0-8 5-13.5T81 63q8 0 13.5 5.5T100 82q0 8-5.5 13.5T81 101q-8 0-13-5.5T63 82zm237-31v150q0 21-14.5 35.5T250 251h-36l-48 40q-7 6-16 6t-17-7l-46-39H50q-21 0-35.5-14.5T0 201V51q0-21 14.5-35.5T50 1h200q21 0 35.5 14.5T300 51zM25 201q0 3 1 6l82-81q12-12 29.5-12t29.5 12l8 8q5 5 12.5 5t12.5-5l75-76v-7q0-10-7.5-17.5T250 26H50q-10 0-17.5 7.5T25 51v150zm250 0V94l-58 57q-12 12-29.5 12T158 151l-8-8q-5-5-12.5-5t-12.5 5l-81 82q3 1 6 1h41q5 0 8 3l51 43 52-43q3-3 8-3h40q10 0 17.5-7.5T275 201z"/></svg>