<svg viewBox="0 0 300 302.0011" xmlns="http://www.w3.org/2000/svg"><path d="M300 120q0-11-7-20t-18-11V13q0-4-3.5-8t-8-4Q259 1 255 4t-5 7q-3 21-29 31-21 9-52 9H69q-19 0-34.5 9.5t-25 25Q0 101 0 120q0 15 6.5 28.5T24 172l39 104q5 15 19 21 8 4 15.5 4t13.5-2q15-6 21.5-20t.5-28l-22-63h58q31 0 52 9 26 11 29 31 1 5 4.5 7.5t7.5 2.5h2q4 0 7.5-3.5t3.5-8.5v-76q11-2 18-10.5t7-19.5zM69 76h18v87H69q-18 0-31-12.5T25 120q0-18 13-31t31-13zm41 183q2 5-.5 9.5t-7 6.5q-4.5 2-9.5 0t-7-7l-30-81q6 2 13 2h15l26 70zm140-74q-29-22-81-21h-57V76h57q52 0 81-21v130z"/></svg>