<svg viewBox="0 0 300 302.0011" xmlns="http://www.w3.org/2000/svg"><path d="M238 113q0-17-13.5-28.5T194 76q-12 2-20 10.5T163 107l-33-34q-11-11-26.5-9.5T79 77l-1 3q-11-8-23-7-16 1-25 14-8 11-5 24-11 4-17.5 13.5t-5 21.5Q4 158 13 167l3 4q-6 4-10 9-7 10-6 22.5T10 224l52 51q13 13 29 19.5t33.5 6.5q17.5 0 34-6.5T187 275l25-24q12-13 19-29t7-33v-76zm-25 75q0 13-5 24.5T194 233l-24 24q-13 13-29 17t-32.5 0Q92 270 80 257l-52-51q-2-3-2.5-6t1.5-6q2-3 6-3t6 2l26 27q4 3 9 3t9-3.5q4-3.5 4-8.5t-4-9l-53-53q-2-2-2.5-5.5t1.5-6q2-2.5 5.5-3T41 137l54 53q3 4 8.5 4t9-3.5q3.5-3.5 3.5-9t-4-8.5l-60-60q-2-3-2.5-6t1.5-6q2-3 5.5-3t6.5 2l61 61q4 4 9 4t8.5-4q3.5-4 3.5-9t-3-9l-41-40q-2-2-2.5-5.5t1.5-6q2-2.5 5.5-3T112 91l54 54q6 6 14 3 3-2 5.5-5t2.5-7v-21q0-5 3-9t8-5q5-1 9.5 3t4.5 10v75-1zm87-75v79q0 32-21 57l-31 37q-8 8-17 13-3 2-6 2-7 0-10.5-5t-2-10q1.5-5 6.5-8.5t11-8.5l30-36q15-18 15-41v-79q0-5-4.5-9t-10-3q-5.5 1-9.5-2t-5-8q-1-5 2-9.5t9-5.5q17-2 30 9t13 28zM129 47q-4-3-4-8.5t4-8.5l12-13q4-3 9-3t8.5 3.5Q162 21 162 26t-3 9l-13 12q-3 4-8.5 4t-8.5-4zM41 35q-4-4-4-9t4-8.5q4-3.5 9-3.5t9 3l12 13q4 3 4 8.5t-3.5 9Q68 51 62.5 51T54 47L41 35zm47-9V13q0-5 3.5-8.5T100 1q5 0 9 3.5t4 8.5v13q0 5-4 8.5t-9 3.5q-5 0-8.5-3.5T88 26z"/></svg>