<svg viewBox="0 0 300 302.0011" xmlns="http://www.w3.org/2000/svg"><path d="M150 1q-41 0-75.5 20T20 75.5Q0 110 0 151t20 75.5Q40 261 74.5 281t75.5 20q41 0 75.5-20t54.5-54.5q20-34.5 20-75.5t-20-75.5Q260 41 225.5 21T150 1zm0 275q-34 0-62.5-17T42 213.5Q25 185 25 151t17-62.5Q59 60 87.5 43T150 26q34 0 62.5 17T258 88.5q17 28.5 17 62.5t-17 62.5Q241 242 212.5 259T150 276zm84-166l-16 16 16 16q4 4 4 9t-4 9q-4 4-9 3.5t-9-3.5l-16-16-16 16q-4 4-9 3.5t-9-4q-4-3.5-4-8.5t4-9l16-16-16-16q-4-4-4-9t4-9q4-4 9-4t9 4l16 16 16-16q4-4 9-4t9 4q4 4 4 9t-4 9zm-134 34l-16 16q-4 3-9 3t-9-3.5q-4-3.5-4-8.5t4-9l16-16-16-16q-4-4-4-9t4-9q4-4 9-4t9 4l16 16 16-16q4-4 9-4t9 4q4 4 4 9t-4 9l-16 16 16 16q4 4 4 9t-4 9q-4 4-9 3.5t-9-3.5l-16-16zm87 72q1 4-1 7t-6 3h-60q-4 0-6-3t-1-7q4-11 14-19.5t23-8.5q13 0 23 8.5t14 19.5z"/></svg>