<svg viewBox="0 0 300 302.0011" xmlns="http://www.w3.org/2000/svg"><path d="M194 144l-22-21q-9-9-22-9t-22 8l-22 22q-18 19-18 44.5t18 44q18 18.5 44 18.5t44.5-18.5q18.5-18.5 18.5-44T194 144zm-17 71q-11 11-27 11t-26.5-11Q113 204 113 188.5t10-26.5l23-22q2-1 4.5-1t3.5 1l23 22q11 11 10.5 26.5T176 215h1zm70-149l-49-46Q178 1 150 1q-13 0-25.5 5T103 20L53 66q-27 27-36 62t0 70.5Q26 234 53 261q19 19 44 29.5t53 10.5q28 0 53-10.5t44-29.5q27-27 36-62.5t-.5-71Q273 92 247 66zm-17 177q-16 16-36.5 24.5T150 276q-23 0-43.5-8.5T70 243q-21-22-28.5-50.5t0-57.5Q49 106 70 84l50-46q12-12 30-12t30 13l50 45q21 22 28.5 51t0 57.5Q251 221 230 243z"/></svg>