<svg viewBox="0 0 300 302.0011" xmlns="http://www.w3.org/2000/svg"><path d="M206 91q-4-3-9-1.5t-7.5 6Q187 100 188 105t6 8q20 11 31.5 31.5T237 189q1 29-17 52l-57-58V38l16 17q3 3 8.5 3t9-3.5Q200 51 200 46t-4-9L168 8q-8-7-18-7t-18 7l-28 29q-4 4-4 9t3.5 8.5q3.5 3.5 9 3.5t8.5-3l17-17v39q-28 3-51 18.5t-36 40q-13 24.5-13 54T53 245q15 26 40.5 41t56.5 15q31 0 56.5-15t41-41q15.5-26 15.5-56.5T247.5 132Q232 106 206 91zM63 188q0-21 9.5-40t27-31q17.5-12 38.5-15v81q0 11 7 18l57 58q-23 17-52 17-24 0-44-12t-32-32q-12-20-11-44z"/></svg>