<svg viewBox="0 0 300 302.0011" xmlns="http://www.w3.org/2000/svg"><path d="M281 115l-18-18V51q0-21-15-35.5T212 1H88Q67 1 52.5 15.5T38 51v46l-19 18q-9 9-14 20.5T0 160v78q0 17 8.5 31.5t23 23Q46 301 63 301h175q16 0 30.5-8.5t23-23Q300 255 300 238v-78q0-13-5-24.5T281 115zM88 26h125q10 0 17.5 7.5T238 51v103l-61 61q-11 11-27 11t-27-11l-60-61V51q0-10 7-17.5T88 26zm187 212q0 16-11 27t-27 11H63q-16 0-27-11t-11-27v-78q0-4 1-7l80 80q9 9 20.5 13.5T150 251q12 0 23.5-4.5T194 233l80-80q1 3 1 7v78zM175 138q0-3-2.5-5.5T167 129l-38-6q-13-2-21-12t-8-22q0-16 11-27t26-11q0-5 4-9t9-4q5 0 8.5 4t3.5 9h4q10 0 18.5 5T198 70q3 4 1.5 9t-6 7.5Q189 89 184 88t-8-6.5q-3-5.5-10-5.5h-29q-5 0-8.5 3.5t-3.5 8q0 4.5 2.5 7T133 98l38 6q13 2 21 12t8 23q0 15-11 26t-26 11q0 5-4 9t-9 4q-5 0-8.5-4t-3.5-9h-4q-10 0-18.5-5T102 157q-3-4-1.5-9t6-7.5q4.5-2.5 9.5-1.5t8 6.5q3 5.5 10 5.5h29q5 0 8.5-3.5t3.5-8.5v-1z"/></svg>