<svg viewBox="0 0 300 302.0011" xmlns="http://www.w3.org/2000/svg"><path d="M119 63q-26 1-43 15t-22.5 34q-5.5 20 0 40.5t22.5 34Q93 200 119 200t42.5-13.5q16.5-13.5 22.5-34t0-40.5q-6-20-22.5-34T119 64v-1zm0 113q-18 0-31-13t-13-31q0-18 13-31t31-13q18 0 31 13t13 31q0 18-13 31t-31 13zM244 68q-9-3-15-11-18-28-47.5-42.5T119 1Q94 3 71 14T31 44.5Q14 64 6 88.5T0 139q0 44 22 81t59 59q37 22 82 22 34-1 61.5-22t35.5-55q3-10 11-17 17-14 24-35t3-42.5Q294 108 280 91t-36-23zm11 120q-15 12-19 31-7 25-27.5 41T163 276q-38 0-69.5-18.5t-50-50Q25 176 25 138q-2-29 11-55t37-41.5Q97 26 125 26q25 0 47 12t36 33q11 15 28 20 15 5 25 16.5t12.5 26.5q2.5 15-2.5 29.5T255 188zm-92 50q0 6-4 9.5t-9 3.5q-5 0-9-3.5t-3.5-9q.5-5.5 4-9t8.5-3.5q5 0 9 3.5t4 9.5v-1zm87-100q0 6-3.5 9.5t-9 3.5q-5.5 0-9-3.5t-3.5-9q0-5.5 3.5-9t9-3.5q5.5 0 9 3.5t3.5 8.5zm-50 75q0 6-3.5 9.5t-9 3.5q-5.5 0-9-3.5t-3.5-9q0-5.5 3.5-9t9-3.5q5.5 0 9 3.5t3.5 9.5v-1z"/></svg>