<svg viewBox="0 0 300 302.0011" xmlns="http://www.w3.org/2000/svg"><path d="M150 26q-41 0-75.5 11T20 66.5Q0 85 0 107v88q0 22 20 40.5T74.5 265q34.5 11 75.5 11t75.5-11q34.5-11 54.5-29.5t20-40.5v-88q0-22-20-40.5T225.5 37Q191 26 150 26zM25 195v-42q6 4 12 9v56q-12-11-12-23zm13-33zm50 81q-14-4-26-9v-60q12 4 26 7v62zm50 8q-13-1-25-3v-62q12 2 25 2v63zm50-3q-13 2-26 3v-63q13 0 26-2v62zm50-14q-12 5-26 9v-62q14-3 25-7v60h1zm24-72zm13 33q0 12-13 23v-56q7-5 13-9v42zm-125-31q-35 0-65-9-28-8-44-21t-16-26.5Q25 94 41 81t44-21q30-9 65-9t65 9q28 8 44 21t16 26.5q0 13.5-16 26.5t-44 21q-30 9-65 9z"/></svg>