<svg viewBox="0 0 300 302.0011" xmlns="http://www.w3.org/2000/svg"><path d="M150 1q-41 0-75.5 20T20 75.5Q0 110 0 151t20 75.5Q40 261 74.5 281t75.5 20q41 0 75.5-20t54.5-54.5q20-34.5 20-75.5t-20-75.5Q260 41 225.5 21T150 1zm0 275q-34 0-62.5-17T42 213.5Q25 185 25 151t17-62.5Q59 60 87.5 43T150 26q34 0 62.5 17T258 88.5q17 28.5 17 62.5t-17 62.5Q241 242 212.5 259T150 276zm32-117q14-5 22.5-17.5T213 113q-1-20-15.5-35T162 63h-37q-16 0-27 11t-11 27v112q0 6 4 9.5t9 3.5q5 0 8.5-3.5t3.5-9.5v-50h43l34 57q4 6 11 6 3 0 7-2t5-7q1-5-1-10l-29-48zm-69-58q0-5 3.5-9t8.5-3h38q10 0 17.5 7t7.5 17.5q0 10.5-7.5 17.5t-17.5 7h-50v-37z"/></svg>