<svg viewBox="0 0 300 302.0011" xmlns="http://www.w3.org/2000/svg"><path d="M25 151q0 5-3.5 8.5t-9 3.5q-5.5 0-9-3.5T0 151q0-41 20-75.5T74.5 21Q109 1 150 1q28 0 53.5 10T250 39V13q0-5 3.5-8.5t9-3.5q5.5 0 9 3.5T275 14v43q0 13-9 22.5T244 89h-44q-5 0-9-4t-3.5-9q.5-5 4-9t8.5-3h39q-18-18-41-28t-48-10q-34 0-62.5 17T42 88.5Q25 117 25 151zm263-13q-6 0-9.5 4t-3.5 9q0 34-17 62.5T212.5 259Q184 276 150 276q-25 0-48-10t-41-27h39q5-1 9-4.5t4-8.5q0-5-4-9t-9-4H56q-13 1-22 10t-9 22v43q0 6 3.5 9.5t9 3.5q5.5 0 9-3.5T50 288v-25q21 18 46.5 28t53.5 10q41 0 75.5-20t54.5-54.5q20-34.5 20-75.5 0-5-3.5-9t-8.5-3v-1zm-67-14l-12 7q4 11 4 20t-4 20l12 7q5 2 6 7t-2 10.5q-3 5.5-10 5.5-3 0-6-2l-12-7q-15 16-35 20v14q1 5-3 8.5t-9 3.5q-5 0-8.5-3.5T138 226v-14q-20-4-35-20l-12 7q-3 2-6 2-7 0-10-5.5T73 185q1-5 6-7l12-7q-4-11-3.5-20t3.5-20l-12-7q-5-2-6-7t1.5-9.5q2.5-4.5 7.5-6t9 1.5l12 7q15-16 35-20V76q0-5 3.5-8.5T150 64q5 0 8.5 3.5T162 76v14q20 4 35 20l12-7q4-3 9-1.5t7.5 6q2.5 4.5 1.5 9.5t-6 7zm-33 27q0-16-11-26.5t-27-11q-16-.5-26.5 10.5T113 151q0 16 10.5 26.5T150 188q16 0 26.5-10.5T187 151h1z"/></svg>