<svg viewBox="0 0 300 302.0011" xmlns="http://www.w3.org/2000/svg"><path d="M188 207q-1-8 4.5-13.5t13.5-5q8 .5 13.5 5.5t5.5 13q0 8-5.5 13.5T206 226q-8 0-13.5-5.5T187 207h1zm-19-69q-8 0-13.5 5.5T150 157q0 8 5.5 13.5T169 176q8 0 13.5-5.5t5-13.5q-.5-8-5.5-13.5t-13-5.5zm81 19q0-8-5.5-13.5T231 138q-8 0-13.5 5.5T212 157q0 8 5.5 13.5T231 176q8 0 13.5-5.5T250 157zM116 22q-4-4-3.5-9t4-8.5Q120 1 125 1t8 3q3 3 7 8 7 10 12 21 4-6 8-10 18-18 49-22 13-1 21.5 7.5T237 29q-4 32-21 49-14 14-36 20-14 3-27 3-10 0-14-6-1-3-1-6 0-28-11-50-5-11-11-17zm47 53q23-2 35-14t14-35q-22 3-34 14.5T163 75zm108-13q-3-4-8-4.5t-9.5 2.5q-4.5 3-5 8t2.5 9q24 33 24 74 0 34-17 62.5T212.5 259Q184 276 150 276t-62.5-17Q59 242 42 213.5t-17-62q0-33.5 17-63T88 43q4-3 5.5-8T92 25.5q-3-4.5-8-6T75 21Q40 41 20 76T0 151.5q0 40.5 20 75T74.5 281q34.5 20 75.5 20t75.5-20q34.5-20 54.5-54.5t20-75.5q0-49-29-89z"/></svg>