<svg viewBox="0 0 300 302.0011" xmlns="http://www.w3.org/2000/svg"><path d="M161 178v-77q0-5-3.5-9t-8.5-4q-5 0-9 4t-4 9v77q-11 4-18 13.5t-7 22.5q0 15 11 26t26.5 11q15.5 0 26.5-11t11-27q0-12-7-21.5T161 178zm-12 48q-5 0-9-3.5t-4-9q0-5.5 4-9t9-3.5q5 0 8.5 3.5t3.5 9q0 5.5-3.5 9T149 226zm62-74V63q0-16-8.5-30.5T180 9.5Q166 1 149 1t-31.5 8.5q-14.5 8.5-23 23T86 64v88q-12 13-18.5 28.5T61 213q0 24 12 44t32 32q20 12 44 12t44-12q20-12 31.5-32t11.5-44q0-17-6.5-32.5T211 152zm-62 124q-17 0-31.5-8.5t-23-23Q86 230 86 214q0-14 5.5-26t15.5-21q4-4 4-9V63q0-15 11-26t26.5-11Q164 26 175 37t11 27v94q0 5 4 9 10 9 15.5 21t5.5 25q0 17-8.5 31.5t-22.5 23q-14 8.5-31 8.5z"/></svg>