<svg viewBox="0 0 300 302.0011" xmlns="http://www.w3.org/2000/svg"><path d="M175 51q0-5 3.5-9t9-4q5.5 0 9 4t3.5 9q0 5-3.5 9t-9 4q-5.5 0-9-4t-3.5-9zm125 212q0 16-11 27t-27 11H150q-40 1-75-20t-55.5-57Q-1 188 .5 147.5t22.5-74q21-33.5 56-53T155 1h133q5 0 8.5 4t3.5 9q0 5-3.5 8.5T288 26h-14q-3 25-17.5 45.5T220 103q-22 11-47 11-28 0-51 15 12 11 28 9 5 0 9 4t4 9q0 5-4 9t-9 4q-13 0-25-4t-21-13q-10 12-14 28 7 7 16 10.5t19 2.5q5 0 9 4t4 9q-2 15-23 12-13-1-27-8 3 20 14.5 36t29 25.5Q149 276 169 276q21-16 43-30 34-20 50-20t27 11q11 11 11 26zM138 57q0 15 11 24.5t26 6.5q27 0 48-17.5T249 26h-81q-12 0-21.5 9T137 57h1zM56 70q3 17 15.5 29.5T102 114q12-10 27-17-13-13-15.5-31.5T119 31Q82 41 56 70zm26 186q-11-15-15.5-32.5T63 188q-18 2-34-4 6 22 19.5 40.5T82 256zm0-121q-15-5-26-15T38 96q-12 25-13 52 4 8 12 12 12 6 31 2 5-14 14-27zm193 128q-3-16-19-11-10 3-34 18l-9 6h50q5 0 8.5-3.5t3.5-9.5z"/></svg>