<svg viewBox="0 0 300 302.0011" xmlns="http://www.w3.org/2000/svg"><path d="M113 276q0 10-7.5 17.5t-18 7.5Q77 301 70 293.5T63 276q0-10 7-17.5t17.5-7.5q10.5 0 17.5 7.5t8 17.5zm100-25q-11 0-18 7.5t-7 17.5q0 10 7 17.5t17.5 7.5q10.5 0 18-7.5T238 276q0-10-7.5-17.5T213 251zm75-213h-75q-6 0-9.5 4t-3.5 9q0 5 3.5 8.5T213 63h75q5 0 8.5-3.5T300 51q0-5-3.5-9t-8.5-4zm-10 63q-6-1-10 2t-5 8l-5 22q-2 13-12.5 21.5T222 163H68L56 63h94q5 0 9-3.5t4-8.5q0-5-4-9t-9-4H53v-4q-2-14-13-23.5T15 1h-2Q7 1 3.5 4.5t-3.5 9q0 5.5 3.5 9T13 26h2q5 0 8.5 3t4.5 8l17 146q3 24 20.5 39.5T107 238h131q5 0 8.5-3.5t3.5-8.5q0-5-3.5-8.5T238 214H107q-12-1-21.5-7.5T72 188h150q22 0 39-14t22-36l4-22q1-5-1.5-9.5T278 101z"/></svg>