<svg viewBox="0 0 300 302.0011" xmlns="http://www.w3.org/2000/svg"><path d="M277 132q-14-20-14-31V64q0-24-16-41.5T207 2q-8-1-19-1h-75q-12 0-20 1-24 3-40 20.5T37 64v37q1 11-13 31-11 16-12 36v70q1 17 9 31.5t22.5 23Q58 301 75 301h150q17 0 31.5-8.5t23-23Q288 255 288 238v-70q0-20-11-36zm-127-18l-32-88h64l-32 88zM38 238v-70q0-12 6-21 19-27 18-46V64q0-13 8.5-23.5T92 28l46 125v123H75q-16 0-27-11t-11-27h1zm225 0q0 16-11 27t-27 11h-62V153l45-125q13 2 21.5 12.5T238 64v37q0 19 18 46 7 9 6 21v70h1zM63 176v-13q0-5 3.5-8.5T75 151h13q5 0 8.5 3.5t3.5 9.5v12q0 5-3.5 8.5T88 188H75q-5 1-9-3t-3-9zm173 2q2 3 0 6.5t-6 4.5h-35q-4-1-6-4.5t0-6.5l15-22q3-5 8.5-5t8.5 5l15 22zm-136 54q0 8-5.5 13.5T81 251q-8 0-13-5.5T63 232q0-8 5-13.5t13-5.5q8 0 13.5 5.5T100 232z"/></svg>