<svg viewBox="0 0 300 302.0011" xmlns="http://www.w3.org/2000/svg"><path d="M289 18l-6-6q-9-9-21.5-10.5T238 6q-14 8-28.5 10T184 28L15 199Q0 214 0 234.5T15 270l17 17q15 15 35.5 15t35.5-15l170-170q10-11 12-25.5T295 63q6-11 4.5-23.5T289 18zm-38 10q2-2 6.5-2t8.5 4l5 5q3 3 3.5 7.5T273 50q-6 11-10 23l-35-35q12-4 23-10zM85 270q-7 7-17.5 7T50 270l-18-18q-7-7-7-17.5t7-17.5L201 47l53 53L85 270zm115-150q0 8-5.5 13.5t-13.5 5q-8-.5-13-5.5t-5-13q0-8 5-13.5t13-5.5q8 0 13.5 5.5T200 120zm-44 43q0 8-5.5 13.5t-13 5.5q-7.5 0-13-5.5t-5.5-13q0-7.5 5.5-13t13-5.5q7.5 0 13 5.5T156 163zm-43 44q-1 8-6 13.5T94 226q-8 0-13.5-5.5T75 207q0-8 5.5-13.5t13.5-5q8 .5 13.5 5.5t5.5 13z"/></svg>