<svg viewBox="0 0 300 302.0011" xmlns="http://www.w3.org/2000/svg"><path d="M288 76q-6 0-9.5 3.5T275 88v88h-75q-1-67-12-112-9-41-23.5-56t-29 0Q121 23 112 64q-11 45-12 112H25V88q0-5-3.5-8.5t-9-3.5q-5.5 0-9 3.5T0 88v163q0 5 3.5 8.5t9 3.5q5.5 0 9-3.5T25 251v-7l48 48q6 6 14.5 8t16.5-.5q8-2.5 13.5-9T125 276h50q2 8 7.5 14.5t13.5 9q8 2.5 16 .5t15-8l48-48v7q0 5 3.5 8.5t9 3.5q5.5 0 9-3.5t3.5-8.5V88q0-5-3.5-8.5T288 76zM125 188q0-46 7-93 8-7 18-7t18 7q7 47 7 93v63h-50v-63zm38-123q-13-3-26 0 3-20 13-38 10 18 13 38zm-63 206q0 3-3 4.5t-6-1.5l-66-66v-7h75v70zm109 3q-3 3-6 1.5t-3-4.5v-70h75v7l-66 66z"/></svg>