<svg viewBox="0 0 300.0023 302.0011" xmlns="http://www.w3.org/2000/svg"><path d="M38 41q-1-4 .5-7.5T43 28q3-2 7-2t7 2q3 2 4.5 5.5T63 41q-1 12 8 21 16 16 17 39 0 5-4 9t-9 4q-5 0-8.5-4t-3.5-9q-1-12-9-21-17-16-16-39zm75 44q-3 7 3 12.5t13.5 2.5q7.5-3 7.5-11 1-12-3-23.5t-13-20q-9-8.5-9-21.5V13q1-5-3-8.5T100 1q-5 0-8.5 3.5T88 13v11q-1 23 16 39 9 9 8 22h1zm187 53q1 32-9.5 61T259 251q-21 23-49.5 36T151 300.5q-30 .5-57.5-10.5T45 258q-12-10-25-33T2 178q-6-26 0-43 8-19 31-21 12 0 21 7t11 18q7 32 22 43 8 6 19 7 19-1 31.5-14.5T150 139q0-27 17.5-48T212 65q-2-23-14-33-9-6-23-6-5 0-8.5-3.5t-3.5-9q0-5.5 3.5-9T175 1q22 0 38 11 21 16 24 53 27 4 45 25t18 49v-1zM195 98q6 7 13.5 11t16.5 4q9 0 16.5-4T255 99q-14-10-30-10t-30 9zm80 40q0-10-4-20-9 10-21 15t-25 5q-13 0-25-5t-20-14q-5 9-5 20 0 21-9 38t-24.5 27q-15.5 10-36 10T70 200q-20-17-29-55-1-3-3.5-5t-5.5-1.5q-3 .5-5 2.5t-2 5q1 50 27 84 24 31 62 41t75.5-2q37.5-12 60.5-44 26-36 25-86v-1zM150 301z"/></svg>