<svg viewBox="0 0 300 302.0011" xmlns="http://www.w3.org/2000/svg"><path d="M200 26q0 5-3.5 8.5T188 38h-75v175q0 6-4 9.5t-9 3.5q-5 0-8.5-3.5T88 213V38H13q-6 0-9.5-3.5T0 26q0-5 3.5-9t9.5-4h175q5 0 8.5 4t3.5 9zm-44 37q-8 0-13 5.5T138 82q0 8 5 13.5t13 5.5q8 0 13.5-5.5T175 82q0-8-5.5-13.5T156 63zm0 63q-8 0-13 5.5t-5 13.5q0 8 5 13t13 5q8 0 13.5-5t5.5-13q0-8-5.5-13.5T156 126zm0 62q-8 0-13 5.5t-5 13.5q0 8 5 13.5t13 5.5q8 0 13.5-5.5T175 207q0-8-5.5-13.5T156 188zm0 63q-8 0-13 5.5t-5 13.5q0 8 5 13t13 5q8 0 13.5-5t5.5-13q0-8-5.5-13.5T156 251zm63-188q-8 0-13.5 5.5T200 82q0 8 5.5 13.5T219 101q8 0 13.5-5.5T238 82q0-8-5.5-13.5T219 63zm62 0q-8 0-13 5.5T263 82q0 8 5 13.5t13 5.5q8 0 13.5-5.5T300 82q0-8-5.5-13.5T281 63z"/></svg>