<svg viewBox="0 0 300 302.0011" xmlns="http://www.w3.org/2000/svg"><path d="M106 201q-8 0-13.5-5.5t-5-13.5q.5-8 5.5-13.5t13-5q8 .5 13.5 5.5t5.5 13q0 8-5.5 13.5T106 201zm88-38q-8 1-13.5 6t-5.5 13q0 8 5.5 13.5T194 201q8 0 13-5.5t5-13.5q0-8-5-13.5t-13-5.5zm106-30v13q0 42-20 77t-53.5 56Q193 300 153 301h-3q-30 0-57-11t-48.5-32q-21.5-21-33-49T0 151v-19q0-5 3-10t8.5-7q5.5-2 10.5-1t9.5 5q4.5 4 11.5 6 4 1 7 1h56q3 0 4.5-2t1.5-4v-19q1-8-3-11-13 11-28 11-10 0-19-4.5t-15-12Q41 77 38.5 67t0-20q2.5-10 10-18.5T67 16q11-4 24-1 12-11 28.5-13T150 8q14-8 30.5-6T209 15q13-3 25 1t19 15q7 8 9 18t-1 20q-3 10-10.5 18T233 98.5q-10 3.5-20.5 1T192 89q-4 3-5 12v19q1 2 2.5 4t4.5 2h56l7-1q7-2 11.5-6t10-5q5.5-1 10.5 1.5t8 7q3 4.5 3 10.5zm-25 12q-12 6-25 6h-56q-13 0-22.5-9t-9.5-22v-19q1-19 12-29 6-5 14-7 6-2 10-1.5t7 3.5q10 11 20 8 4-1 7.5-4.5T237 62q2-9-3-16-4-5-10.5-7T211 40q-4 2-8.5 1t-7.5-5q-7-10-20-10-9 0-17 7-3 3-8 3t-8-3q-8-7-17-7-13 0-20 10-3 4-7.5 5T89 40q-7-3-14 0-5 1-8 5t-4 8q-2 9 3.5 16T80 76q8 0 14-7l4-3q3-3 7-2 12-1 21 8 11 10 11 29v19q0 13-9 22t-22 9H50q-13 0-25-6v6q0 25 9.5 48T62 240q18 18 41.5 27t48.5 9q34-1 62-18.5t44.5-47Q275 181 275 146v-1zm-125 68q-13 0-23 8.5T113 241q-1 4 1 7t6 3h60q4 0 6-3t1-7q-4-11-14-19t-23-8v-1z"/></svg>