<svg viewBox="0 0 300 302.0011" xmlns="http://www.w3.org/2000/svg"><path d="M150 1q-40 0-74.5 20.5t-55 55Q0 111 0 151.5t20.5 75Q41 261 75.5 281t75 20q40.5 0 75-20t54.5-54.5q20-34.5 20-75t-20-75q-20-34.5-54.5-55T150 1zm0 275q-33 0-62-16.5T42 214q-17-29-17-63t17-62.5Q59 60 88 43t62.5-17Q184 26 213 43t45.5 45.5Q275 117 275 151t-16.5 63Q242 243 213 259.5T150 276zm58-114q8 11 4 22-7 20-24.5 32.5T150 229q-16 0-30.5-8t-23-22.5Q88 184 88 167v-31q0-17 8.5-31.5t23-23Q134 73 150 73q14 0 26 5.5T197 94q4 4 3.5 9t-4.5 8.5q-4 3.5-9 3.5t-8-4q-12-13-28-13t-27 11q-11 11-11 27v31q0 15 11 26t26 11q12 0 23-8t15-20h-25q-5 0-9-3.5t-4-8.5q0-5 4-9t9-4h24q7 0 12.5 3t8.5 8z"/></svg>