<svg viewBox="0 0 300 302.0011" xmlns="http://www.w3.org/2000/svg"><path d="M113 201h19q21 0 36-15L289 65q11-11 11-26.5T289 12Q278 1 262.5 1T236 12L115 133q-15 15-15 36v20q0 5 3.5 8.5t9.5 3.5zM271 30q4 3 4 8.5t-4 8.5l-16 16-17-17 16-16q3-4 8.5-4t8.5 4zM125 169q0-11 7-18l88-88 18 18-88 88q-7 7-18 7h-7v-7zm175 119q0 6-3.5 9.5T288 301q-13 0-23-8-6-5-13-16-5-8-8-11t-7-3q-4 0-8 3.5T219 278q-10 11-16 15-10 8-22 8t-23-8q-6-4-15-15-6-8-10-11.5t-7.5-3.5q-3.5 0-6.5 2.5t-8 9.5q-10 12-18 17-13 9-30 9t-31.5-8.5q-14.5-8.5-23-23t-8.5-31q0-16.5 8.5-31t23-23Q46 176 63 176q5 0 8.5 3.5t3.5 9q0 5.5-3.5 9T63 201q-16 0-27 11t-11 26.5Q25 254 36 265t27 11q9 0 16-5 5-3 12-12 8-10 14-14 9-7 20.5-7t21.5 8q7 5 16 16 6 8 9.5 11t8 3q4.5 0 8.5-3.5t11-10.5q9-11 15-16 10-7 22.5-7.5T260 247q6 5 13 16 5 7 8 10t7.5 3q4.5 0 8 3.5t3.5 8.5z"/></svg>