<svg viewBox="0 0 300 302.0011" xmlns="http://www.w3.org/2000/svg"><path d="M288 1h-13q-13 0-22.5 7.5T239 27l-3 10-16-5q-5-1-9.5 1t-6 7q-1.5 5 .5 9.5t7 6.5l17 5-9 32-18-6q-5-2-9.5.5T186 95q-2 5 .5 9.5t7.5 6.5l19 5-10 34q-9 26-20 43-14 20-27 20-11 0-15-7-3-4-4-11v-44q1-13 13-13 5 0 8.5-3.5t3.5-8.5q0-5-3.5-9t-8.5-4H12q-5 0-8.5 4T0 126q0 5 3.5 8.5t9.5 4q6 .5 9 3.5t3 9v54q0 28 11 50t31.5 34Q88 301 113 301q30 0 54.5-16.5T201 242q6-17 25-84 4-8 23-76l14-47q1-4 4.5-6.5T275 26h13q5 0 8.5-3.5t3.5-9q0-5.5-3.5-9T288 1zM178 234q-7 18-25 30t-40 12q-18 0-32.5-8.5t-22.5-25Q50 226 50 205v-54q0-6-2-13h67q-2 7-3 13v44q0 5 2 12 3 12 11 20 12 11 31 11 11 0 22-6v2zm-65 67z"/></svg>