<svg viewBox="0 0 300 302.0011" xmlns="http://www.w3.org/2000/svg"><path d="M102 282q13 12 30 16.5t34.5 0Q184 294 197 282l50-46q26-26 35.5-61.5t.5-71q-9-35.5-35-62t-61.5-36Q151-4 115.5 5T54 41l-1 1q-27 26-36 61.5t0 70.5q9 35 36 62l49 46zM70 60q22-22 51-29.5t57.5 0Q207 38 229 59.5t29.5 50q7.5 28.5 0 57.5T229 218l-49 46q-13 12-30.5 12T119 264l-49-46q-21-21-28.5-50t0-58Q49 81 70 60zm17 79q0-5 4-9t9-4h37V89q0-5 3.5-8.5t9-3.5q5.5 0 9 3.5T162 89v37h38q5 0 8.5 4t3.5 9q0 5-3.5 8.5T200 151h-38v38q0 5-3.5 8.5t-9 3.5q-5.5 0-9-3.5T137 189v-38h-37q-5 0-9-3.5t-4-8.5z"/></svg>