<svg viewBox="0 0 300 302.0011" xmlns="http://www.w3.org/2000/svg"><path d="M225 238q4 0 7-2t4.5-5.5q1.5-3.5 1-7T234 217l-77-77q-12-12-28-16t-32.5 0Q80 128 68 140l-27 27q-3 4-3 9t3.5 8.5Q45 188 50 188t9-3l27-27q11-11 26.5-11t26.5 11l77 77q4 3 9 4v-1zm-25-106q18 0 31-12.5t13-31q0-18.5-13-31T200 45q-18 0-31 12.5t-13 31q0 18.5 13 31t31 12.5zm0-62q8 0 13.5 5.5t5.5 13q0 7.5-5.5 13T200 107q-8 0-13.5-5.5t-5.5-13q0-7.5 5.5-13T200 70zm88 131q-6 0-9.5 3.5T275 214v24q0 16-11 27t-27 11h-24q-6 0-9.5 3.5t-3.5 9q0 5.5 3.5 9t8.5 3.5h26q16 0 30.5-8.5t23-23Q300 255 300 239v-26q0-5-3.5-8.5T288 201zM13 101q5 0 8.5-3.5T25 89V63q0-15 11-26t26-11h26q5 0 8.5-3.5t3.5-9q0-5.5-3.5-9T87 1H63Q46 1 31.5 9.5t-23 23Q0 47 0 63v25q0 6 3.5 9.5T12 101h1zm75 175H63q-16 0-27-11t-11-26v-26q0-5-3.5-8.5t-9-3.5q-5.5 0-9 3.5T0 214v24q0 17 8.5 31.5t23 23Q46 301 62 301h26q5 0 8.5-3.5t3.5-9q0-5.5-3.5-9T87 276h1zM238 1h-25q-6 0-9.5 3.5t-3.5 9q0 5.5 3.5 9T212 26h26q15 0 26 11t11 27v24q0 6 3.5 9.5t9 3.5q5.5 0 9-3.5T300 89V63q0-16-8.5-30.5t-23-23Q254 1 238 1z"/></svg>