<svg viewBox="0 0 300 302.0011" xmlns="http://www.w3.org/2000/svg"><path d="M300 90q-1-18-8.5-34.5t-21-29.5q-13.5-13-31-19.5t-36-5.5Q185 2 168 9.5T139 31q-11 11-23 29-22 33-55 94-10 17-35 58L5 248q-8 13-3.5 27.5T19 297q8 4 17.5 4t17.5-5q8-5 13-13.5T88 248l2-3q24-40 33-57 48-87 68-109 6-6 15-6.5t16 5.5q4 5 5.5 11t-1.5 12q-3 7-3 15 0 14 9 24.5t26 10.5q12 0 21.5-6.5T294 127q6-18 6-37zm-32-27h-26l-3-3q-7-6-14-9V28q16 5 29 16 9 9 14 19zm-138 63h-25q13-22 22-38h26q-9 14-23 38zm-28 50q-1 0-1 1l-6 11H70l21-37h25l-14 25zm-35 59q-1 2-3 5l-19 30q-2 4-6 5.5t-8-.5q-4-2-5.5-6.5t.5-8.5q7-12 21-35l8-12h25l-14 22h1zM173 63h-29q7-9 13-15 17-19 43-22v22q-16 2-27 15zm97 55q-1 4-4.5 6t-7.5 2q-10 0-10-10 0-2 1-5 5-10 4-22h22v2q0 14-5 27z"/></svg>