<svg viewBox="0 0 300 302.0011" xmlns="http://www.w3.org/2000/svg"><path d="M300 151q0 41-20 75.5T225.5 281Q191 301 150 301t-75.5-20Q40 261 20 226.5T0 151q0-28 10-55 2-4 7-6.5t9.5-.5q4.5 2 6.5 7t1 10q-9 21-9 45 0 34 17 62.5T87.5 259q28.5 17 62.5 17t62.5-17q28.5-17 45.5-45.5t17-62.5q0-24-9-45-1-5 1-10t6.5-7q4.5-2 9.5.5t7 6.5q10 27 10 55zm-212 0q0-9 4.5-17t7.5-8q3 0 8 8t5 17q-1 5 3 8.5t9 3.5q5 0 9-3.5t4-8.5q0-19-11-34.5T100 101q-16 0-26.5 15.5T63 151q0 5 3.5 8.5T75 163q5 0 9-3.5t4-8.5zm150 0q0-19-11-34.5T200 101q-16 0-27 15.5T162 151q1 5 4.5 8.5t8.5 3.5q5 0 9-3.5t4-8.5q0-9 4.5-17t7.5-8q3 0 8 8t5 17q0 5 3.5 8.5t8.5 3.5q5 0 8.5-3.5t4.5-8.5zm-88 87q24 0 49-13 13-7 22-15 4-3 4-8t-3.5-9q-3.5-4-8.5-4.5t-9 3.5q-6 5-16 11-20 11-38 11t-38-11q-10-6-16-11-4-4-9-3.5t-8.5 4.5q-3.5 4-3.5 9t4 8q9 8 22 15 25 13 49 14v-1zM13 38q0-15 28-25 22-7 59-10 24-2 50-2t50 2q37 3 59 10 29 10 29 25.5T259 64q-22 7-59 10-24 2-50 2t-50-2q-37-3-59-10-28-10-28-25v-1zm31 0q13 5 38 9 31 4 68 4t68-4q25-4 38-8-13-5-38-9-31-4-68-4t-68 4q-25 4-38 9v-1z"/></svg>