<svg viewBox="0 0 300 302.0011" xmlns="http://www.w3.org/2000/svg"><path d="M148 200q3 4 3 9t-3 9l-58 57q-13 13-32 13-12 0-22-5l-15 14q-3 4-8.5 4t-9-3.5Q0 294 0 288.5t4-8.5l14-15q-5-10-5-22 0-19 13-32l57-57q4-4 9-4t8.5 3.5q3.5 3.5 3.5 9t-3 8.5l-57 57q-6 6-6 14.5t6 14.5q6 6 14.5 6t13.5-6l58-57q4-4 9-4t9 4zm148 97q-3 4-8.5 4t-8.5-4L4 22q-4-3-4-8.5t3.5-9Q7 1 12.5 1T21 5l70 70 30-31q19-18 44-18 19 0 35 11l21-21q13-13 31-14.5t31 9.5q8 6 12 15t4.5 18.5q.5 9.5-3 18.5T287 79l-96 95 105 106q4 3 4 8.5t-4 8.5zM173 157l57-57-29-29-57 57 29 29zm46-104l29 29 21-21q6-6 6-15.5T268 31q-7-5-15-4.5T239 33l-20 20zM109 92l18 18 55-55q-11-5-23-3t-20 10l-30 30z"/></svg>