<svg viewBox="0 0 300.0059 302.0011" xmlns="http://www.w3.org/2000/svg"><path d="M297 83l-20 17 8 24q2 6-2.5 9.5t-9.5.5l-23-15-22 15q-3 2-5.5 2t-4.5-2q-5-4-3-9l8-25-20-17q-5-3-2.5-8.5T208 69h25l9-25q2-6 8-6t8 6l9 25h25q6 0 8 5.5t-3 8.5zM103 46l20 16-8 25q-2 6 3 9 2 2 4.5 2t5.5-1l22-15 23 14q5 4 9.5 0t2.5-9l-8-25 20-16q5-4 3-9.5t-8-5.5h-25l-9-25q-2-5-8-5t-8 5l-9 25h-25q-5 0-7.5 5.5T103 46zm-30 88q5 3 9.5-.5T85 124l-8-24 20-17q5-3 3-8.5T92 69H67l-9-25q-2-6-8-6t-8 6l-9 25H8q-5 0-7.5 5.5T3 83l20 17-8 25q-2 5 3 9 2 2 4.5 2t5.5-2l22-15 23 15zm176 87l-8 40q-3 17-17 28.5T192 301H88q-16 0-27-11t-11-26v-50q0-16 11-27t26-11h19l27-52q4-7 8.5-9t8.5-2q6 0 11 4t7 11q0 2-1 7l-7 41h52q12 0 21.5 6.5t14 16.5q4.5 10 1.5 22zM88 276h12v-75H88q-6 0-9.5 3.5T75 214v49q0 6 3.5 9.5T88 276zm134-70q-4-5-9-5h-88v75h67q9 0 16-5.5t9-14.5l8-40q1-6-3-10z"/></svg>