<svg viewBox="0 0 300 302.0011" xmlns="http://www.w3.org/2000/svg"><path d="M288 1h-13q-17 0-31.5 8.5t-22.5 23Q213 47 213 64v115q-20-16-44-16-19 0-34.5 9.5t-25 25.5q-9.5 16-9.5 34.5t9.5 34q9.5 15.5 25 25t34 9.5q18.5 0 34.5-9.5t25-25q9-15.5 9-34.5V63q0-15 11-26t27-11h13q5 0 8.5-3.5t3.5-9q0-5.5-3.5-9T288 1zM169 276q-18 0-31-13t-13-31q0-18 13-31t31-13q18 0 31 13t13 31q0 18-13 31t-31 13zM0 13q0-5 3.5-8.5T13 1h137q5 0 9 3.5t4 9q0 5.5-4 9t-9 3.5H13q-6 0-9.5-3.5T0 13zm0 75q0-5 3.5-8.5T13 76h137q5 0 9 3.5t4 9q0 5.5-4 9t-9 3.5H13q-6 0-9.5-3.5T0 88zm100 75q0 6-3.5 9.5T87 176H13q-6 0-9.5-3.5t-3.5-9q0-5.5 3.5-9T13 151h75q5 0 8.5 3.5t3.5 9.5v-1z"/></svg>