<svg viewBox="0 0 300 302.0011" xmlns="http://www.w3.org/2000/svg"><path d="M250 1H50Q29 1 14.5 15.5T0 51v150q0 21 14.5 35.5T50 251h37l46 39q8 7 17 7t16-6l48-40h36q21 0 35.5-14.5T300 201V51q0-21-14.5-35.5T250 1zm25 200q0 10-7.5 17.5T250 226h-40q-5 0-8 3l-52 43-51-43q-3-3-8-3H50q-10 0-17.5-7.5T25 201V51q0-10 7.5-17.5T50 26h200q10 0 17.5 7.5T275 51v150zm-62-75q0 5-4 8.5t-9 3.5h-37v38q0 5-4 8.5t-9 4q-5 .5-8.5-3.5t-3.5-9v-38h-38q-5 0-8.5-3.5T88 126q0-5 3.5-8.5t8.5-3.5h38V76q-1-5 3-9t9-4q5 0 8.5 4t3.5 9v37h38q5 0 8.5 4t3.5 9h1z"/></svg>