<svg viewBox="0 0 300 302.0011" xmlns="http://www.w3.org/2000/svg"><path d="M150 1q-41 0-75.5 20T20 75.5Q0 110 0 151t20 75.5Q40 261 74.5 281t75.5 20q41 0 75.5-20t54.5-54.5q20-34.5 20-75.5t-20-75.5Q260 41 225.5 21T150 1zm0 275q-34 0-62.5-17T42 213.5Q25 185 25 152t15-60.5Q55 64 81 47l16 13q3 4 3 8v10q0 5 3 8t7 3h9q6 0 11-3l19-12q3-2 6.5-1.5T162 75l10 10q3 3 3 8v10q0 4-3 7.5t-7 3.5h-33q-7 0-13 3l-22 15q-10 7-10 18v14q0 10 7.5 17.5T112 189h18q3 0 5.5 1.5t3.5 4.5l9 35q1 4 4 6.5t7 2.5h10q6 0 9-6l31-52q3-5 3-11v-16q0-9-6-16l-12-12h28q15 0 26-11l16-15q11 24 11 51 0 34-17 62.5T212.5 259Q184 276 150 276z"/></svg>