<svg viewBox="0 0 300 302.0011" xmlns="http://www.w3.org/2000/svg"><path d="M150 51q0-21-14.5-35.5T100 1Q79 1 64.5 15.5T50 51v37q0 21 14.5 35.5T100 138q21 0 35.5-14.5T150 88V51zm-25 37q0 11-7.5 18t-17.5 7q-10 0-17.5-7T75 88V51q0-10 7.5-17.5T100 26q10 0 17.5 7.5T125 51v37zm75 75q-21 0-35.5 15T150 213v38q0 21 14.5 35.5T200 301q21 0 35.5-14.5T250 251v-38q0-20-14.5-35T200 163zm25 88q0 10-7.5 17.5T200 276q-10 0-17.5-7.5T175 251v-38q0-10 7.5-17.5T200 188q10 0 17.5 7.5T225 213v38zM186 53q-4-4-4-9t4-9l30-30q3-3 6.5-4t7 .5q3.5 1.5 6 5T238 13v113q0 5-4 8.5t-9 3.5q-5 0-8.5-3.5T213 126V44l-10 9q-3 4-8.5 4t-8.5-4zm-73 123v112q0 6-4 9.5t-9 3.5q-5 0-9-3.5t-4-9.5v-82l-9 9q-3 4-8.5 4t-9-3.5q-3.5-3.5-3.5-9t4-8.5l30-31q3-2 6.5-3t7 .5q3.5 1.5 6 4.5t2.5 7z"/></svg>