<svg viewBox="0 0 300 302.0011" xmlns="http://www.w3.org/2000/svg"><path d="M94 163q-24 0-40.5-16t-16-39.5Q38 84 54 67.5T93.5 51q23.5 0 40 16.5t16.5 40q0 23.5-16.5 39.5T94 163zm0-87q-13 0-22 9t-9 22q0 13 9 22.5t22 9q13-.5 22-9.5t9-22q0-13-9-22t-22-9zm94 212v-6q0-25-13-46.5T140.5 201q-21.5-13-47-13t-47 13q-21.5 13-34 34.5T0 282v6q0 6 3.5 9.5t9 3.5q5.5 0 9-3.5T25 289v-7q0-18 9-34t25-25.5q16-9.5 34.5-9.5t34.5 9.5q16 9.5 25 25.5t9 34v6q0 6 4 9.5t9 3.5q5 0 9-3.5t4-8.5v-1zm112-62q0-26-14-47.5t-37.5-32Q225 136 199 140t-45 21q-5 5-3.5 12t8 9q6.5 2 12.5-3 14-12 32-15t35 4.5q17 7.5 27 23.5t10 34q0 5 3.5 8.5t9 3.5q5.5 0 9-3.5t3.5-8.5zm-81-113q-24 1-40-15.5t-16-40q0-23.5 16-40T218.5 1q23.5 0 40 16.5t16.5 40Q275 81 258.5 97T219 114v-1zm0-87q-13 0-22 9t-9 22q0 13 9 22.5t22 9q13-.5 22-9.5t9-22q0-13-9-22t-22-9z"/></svg>