<svg viewBox="0 0 300 302.0011" xmlns="http://www.w3.org/2000/svg"><path d="M220 189q-24 0-40.5 16.5T163 245q0 15 9.5 28t24 20.5Q211 301 226 301h43q8 0 15-3.5t11-9.5q9-12 4-26-12-35-32.5-54T220 189zm55 85q-2 2-6 2h-43q-14 0-26-9.5t-12-22q0-12.5 9-21.5t23-9q20 0 36 18 11 14 19 38 1 2 0 4zm25-227q0-19-13-32T255 2q-19 0-32 12L19 218Q0 237 0 264v25q0 5 4 8.5t9 3.5h25q27 0 46-19L287 79q13-14 13-32zM66 265q-12 11-28 11H25v-12q0-16 12-28L191 82l29 28L66 265zM270 61l-32 32-29-29 32-32q6-6 14.5-6t14.5 6q5 6 5 14.5T270 61zM14 79Q0 65 0 46.5T13.5 15Q27 2 46 2t32 13l48 47q3 4 3 9t-3.5 9q-3.5 4-8.5 4t-9-4L60 32q-6-6-14.5-6T31 32q-6 6-6 14.5T31 61l48 48q4 4 4 9t-3.5 8.5q-3.5 3.5-9 3.5t-8.5-3L14 79z"/></svg>