<svg viewBox="0 0 300 302.0011" xmlns="http://www.w3.org/2000/svg"><path d="M300 123v115q0 17-8.5 31.5t-23 23Q254 301 237 301h-12q-5 0-9-3.5t-4-9q0-5.5 4-9t9-3.5h13q15 0 26-11t11-27V123q0-10-4.5-18T258 91l-87-59q-10-6-21-6t-21 6L42 91q-8 6-12.5 14T25 123v115q0 16 11 27t26 11h13q5 0 8.5 3.5t4 9q.5 5.5-3.5 9t-9 3.5H63q-17 0-31.5-8.5t-23-23Q0 255 0 238V123q0-16 7.5-30T28 71l87-59q16-11 35-11t35 11l87 59q13 8 20.5 22t7.5 30zm-62 66q0 17-7 33t-19 28l-44 43q-8 8-18 8t-18-8l-44-42q-21-21-25-50.5T74 145q15-26 42.5-37.5t56-3.5q28.5 8 47 31.5T237 189h1zm-25 0q0-22-13-38.5t-33.5-22Q146 123 126 131t-30.5 26.5Q85 176 88 197t18 36l44 43 44-43q9-9 14-20.5t5-23.5zm-25-1q0 16-11 27t-27 11q-16 0-26.5-11T113 188.5q0-15.5 10.5-26.5t26.5-11q16 0 27 11t11 26z"/></svg>