<svg viewBox="0 0 300 302.0011" xmlns="http://www.w3.org/2000/svg"><path d="M300 151q0 36-17 69-3 6-10.5 6.5t-11-5.5q-3.5-6-.5-13 16-29 14-61.5T256 86q-17-28-45-44.5T150 25q-33 0-60.5 16T45 84q-17 27-20 59t12 61q2 5 .5 10t-6.5 7q-5 2-10 .5t-7-6.5q-17-35-14-74 3-38 24-70t53-51Q111 0 151 .5T225.5 21Q260 41 280 75.5t20 75.5zM173 274q-23 4-46 0-7-2-12 4t-2.5 12.5Q115 297 123 298q27 5 54 0 5 0 8-4.5t2-9.5q-1-5-5-8t-9-2zm-48-123q5 0 9-3.5t4-8.5q0-19-11-34.5t-27-16Q84 88 73.5 104T63 139q0 5 3.5 8.5T75 151q5 0 8.5-3.5T87 139q1-10 5.5-17.5t7.5-8q3-.5 8 7.5t4 17q1 6 4.5 9.5t8.5 3.5zm75-63q-16 0-27 16t-11 35q1 5 4.5 8.5t8.5 3.5q5 0 9-3.5t4-8.5q0-10 4.5-17.5t7.5-8q3-.5 8 7.5t5 17q0 6 3.5 9.5t8.5 3.5q5 0 8.5-3.5t4.5-8.5q0-19-11-34.5T200 89v-1zm-50 163q12 0 18.5-11t6.5-26.5q0-15.5-6.5-26.5T150 176q-12 0-18.5 11t-6.5 26.5q0 15.5 6.5 26.5t18.5 11zm75-75q-5 0-8.5 3.5T212 189v99q1 6 4.5 9.5t8.5 3.5q5 0 9-3.5t3-8.5V188q1-5-3-8.5t-9-3.5zm-150 0q-5 0-8.5 3.5T63 189v99q0 6 3.5 9.5T75 301q5 0 8.5-3.5T87 289V188q1-5-3-8.5t-9-3.5z"/></svg>