<svg viewBox="0 0 300 302.0011" xmlns="http://www.w3.org/2000/svg"><path d="M296 280l-47-48V76h12q5 0 9-3.5t4-9q0-5.5-4-9t-9-3.5h-38q-5-22-22-36T161 1h-25q-22 0-39.5 14T75 51h-7L21 5q-3-4-8.5-4t-9 3.5Q0 8 0 13.5T4 22l275 275q3 4 8.5 4t9-3.5q3.5-3.5 3.5-9t-4-8.5zm-72-73L93 76h131v131zM136 26h25q12 0 22 7t14 18h-96q4-11 13.5-18t21.5-7zm87 249q3 4 1.5 9t-5.5 8q-15 9-33 9h-73q-17 0-31.5-8.5t-23-23Q50 255 50 239V132q0-5 3.5-8.5t9-3.5q5.5 0 9 3.5T75 132v107q0 15 11 26t26 11h74q11 0 20-6 4-2 9-1t8 6z"/></svg>