<svg viewBox="0 0 300 302.0011" xmlns="http://www.w3.org/2000/svg"><path d="M150 151q20 0 37.5-10t27.5-27.5Q225 96 225 76t-10-37.5Q205 21 187.5 11T150 1q-20 0-37.5 10T85 38.5Q75 56 75 76t10 37.5Q95 131 112.5 141t37.5 10zm0-125q21 0 35.5 14.5T200 76q0 21-14.5 35.5T150 126q-21 0-35.5-14.5T100 76q0-21 14.5-35.5T150 26zm0 150q-31 0-56.5 15T53 232q-15 26-16 57 1 5 4.5 8.5T50 301q5 0 8.5-3.5T62 289q1-24 12.5-44t31.5-32q20-12 44-12t44 12q20 12 32 32t12 44q0 5 3.5 8.5t8.5 3.5q5 0 9-3.5t4-8.5q-1-31-16-57t-40.5-41Q181 176 150 176z"/></svg>