<svg viewBox="0 0 300.0012 302.0011" xmlns="http://www.w3.org/2000/svg"><path d="M294 278q-9-6-25-13-30-14-63-21 6-26 8-53 3-41-4-73-3-13-7-25 26 15 57 20h4q12 0 19-9 4-6 4.5-12.5T285 79q-17-36-45-55-24-16-57-21-18-3-33-2.5T117 4q-33 6-57 22-27 19-44 52-4 6-3.5 13t4.5 12.5q4 5.5 10.5 8T41 113q21-4 40-12 1 18 5 33 4 12 15 16 4 1 8 1 7 0 13-3 15-10 28-26v4q0 31-13 69-7 24-18 45-41 5-80 21-21 9-33 17-5 3-6 8t2.5 10q3.5 5 9.5 5 4 0 7.5-2t19.5-9q25-11 49-17 34-9 62-9 46 0 93 17 23 9 38 18 4 3 9 2t8-5.5q3-4.5 2-9.5t-6-8zM226 45q22 15 36 43-30-5-52-20t-39-41q33 3 55 18zM39 88q14-27 35.5-41.5T128 28q-16 25-37.5 40T39 88zm71 38q-3-9-3.5-19.5T107 87q22-16 40-42 2 14 0 26v1q-1 6-3 11-5 13-16 26-9 10-18 17zm37 113q11-25 18-49 10-35 10-64 0-21-2-47 7 21 12 44 7 30 4 69-2 24-8 48-16-1-31-2l-3 1z"/></svg>