<svg viewBox="0 0 300 302.0011" xmlns="http://www.w3.org/2000/svg"><path d="M238 76h-59q-8-5-16-8v-5l44-20q6-4 6-11t-6-10L167 3q-11-5-20.5 1T138 21v47q-9 3-17 8H63q-17 0-31.5 8.5t-23 23Q0 122 0 138v125q0 16 11 27t26 11h226q15 0 26-11t11-27V138q0-16-8.5-30.5t-23-23Q254 76 238 76zm35 50h-27q-16 0-27-11l-14-14h33q11 0 21 7t14 18zM63 101h32l-14 14q-11 11-27 11H27q4-11 14-18t21-7h1zm100 175h-25v-38q0-5 3.5-8.5t8.5-3.5q5 0 9 3.5t4 9.5v37zm100 0h-75v-38q0-15-11-26t-27-11q-16 0-26.5 11T113 238v38H38q-6 0-9.5-3.5T25 263V151h29q13 0 24.5-4.5T98 133l34-34q8-7 18-7t18 7l34 34q8 9 19.5 13.5T246 151h29v112q0 6-3.5 9.5T263 276zM88 188q0 6-4 9.5t-9 3.5H63q-6 0-9.5-3.5t-3.5-9q0-5.5 3.5-9T63 176h12q5 0 8.5 3.5T87 189l1-1zm0 50q0 6-4 9.5t-9 3.5H63q-6 0-9.5-3.5t-3.5-9q0-5.5 3.5-9T63 226h12q5 0 8.5 3.5T87 239l1-1zm162-50q0 6-3.5 9.5T238 201h-13q-5 0-9-3.5t-3.5-9q.5-5.5 4-9t8.5-3.5h13q5 0 8.5 3.5t3.5 9.5v-1zm0 50q0 6-3.5 9.5T238 251h-13q-5 0-8.5-3.5t-3.5-9q0-5.5 3.5-9t8.5-3.5h13q5 0 8.5 3.5t3.5 9.5v-1zm-75-87q0 10-7.5 17.5T150 176q-10 0-17.5-7.5T125 151q0-10 7.5-17.5T150 126q10 0 17.5 7.5T175 151z"/></svg>