<svg viewBox="0 0 300 302.0011" xmlns="http://www.w3.org/2000/svg"><path d="M274 144l-31-10q-12-4-24 0l-31 10q-11 4-18.5 14t-7.5 22v40q0 29 25 53 16 15 36 25l2 2q3 1 7.5 1t6.5-2q20-8 36-23 25-24 25-56v-40q0-12-7-22t-19-14zm1 76q0 21-17 37-11 11-26 18-16-9-27-19-17-18-17-36v-40q0-4 2-7.5t6-4.5l31-10q4-1 8 0l31 10q4 1 6.5 4.5t2.5 7.5v40zM163 113H63q-6 0-9.5-3.5T50 101q0-5 3.5-8.5T62 89h101q5-1 8.5 3t3.5 9q0 5-3.5 8.5T162 113h1zm-25 38q0 5-4 8.5t-9 3.5H63q-6 0-9.5-3.5T50 151q0-5 3.5-8.5T62 139h63q5-1 8.5 3t3.5 9h1zm0 50q0 5-4 8.5t-9 3.5H63q-6 0-9.5-3.5T50 201q0-5 3.5-8.5T62 189h63q5-1 8.5 3t3.5 9h1zm25 87q0 6-4 9.5t-9 3.5H63q-17 0-31.5-8.5t-23-23Q0 255 0 238V88q0-16 8.5-30.5t23-23Q46 26 63 26h2q4-11 13.5-18T100 1h25q12 0 21.5 7T160 26h3q16 0 30.5 8.5t23 23Q225 72 225 89v12q0 5-3.5 8.5t-9 3.5q-5.5 0-9-3.5T200 101V88q0-15-11-26t-26-11h-13q-5 0-8.5-3.5t-3.5-9q0-5.5-4-9t-9-3.5h-25q-5 0-8.5 3.5t-3.5 9q0 5.5-4 9T75 51H63q-16 0-27 11T25 88v150q0 16 11 27t27 11h87q5 0 8.5 3.5t3.5 9.5l1-1z"/></svg>