<svg viewBox="0 0 300 302.0011" xmlns="http://www.w3.org/2000/svg"><path d="M163 163v38q0 5-4 9t-9 3.5q-5-.5-8.5-4T138 201v-38h-38q-5 0-8.5-3.5t-4-8.5q-.5-5 3.5-9t9-4h38v-37q0-5 3.5-9t8.5-4q5 0 8.5 4t3.5 9v37h38q5 0 8.5 4t3.5 9q0 5-3.5 9t-8.5 4h-37v-1zM300 63v125q0 15-5.5 28.5T279 241l-39 38q-10 11-24 16.5t-29 5.5H63q-17 0-31.5-8.5t-23-23Q0 255 0 238V63q0-16 8.5-30.5t23-23Q46 1 63 1h175q17 0 31.5 8.5t22.5 23q8 14.5 8 31.5v-1zM188 276v-50q0-16 11-27t26-11h50V63q0-15-11-26t-26-11H63q-16 0-27 11T25 64v174q0 16 11 27t27 11h125zm73-53q4-4 7-10h-43q-5 0-8.5 4t-3.5 9v43q5-3 9-8l39-38z"/></svg>