<svg viewBox="0 0 300 302.0011" xmlns="http://www.w3.org/2000/svg"><path d="M288 251H185q-3-8-9-14t-13-9v-40h50q20 0 35-14.5t15-34.5V76q0-21-15-35.5T212 26h-54q-4 0-7-2L127 8q-9-7-21-7H88Q67 1 52.5 15.5T37 51v87q1 21 15.5 35.5T88 188h50v40q-8 3-14 9t-9 14H13q-6 0-9.5 3.5t-3.5 9q0 5.5 3.5 9T12 276h103q4 11 13.5 18t21.5 7q12 0 21.5-7t13.5-18h103q5 0 8.5-3.5t3.5-9q0-5.5-3.5-9T288 251zM88 26h18q4 0 7 2l24 16q9 7 21 7h55q10 0 17 7.5t7 17.5H63V51q0-10 7-17.5T87 26h1zM63 138v-37h175v37q0 11-7.5 18t-18.5 7H88q-11 0-18-7t-7-18zm87 138q-5 0-9-3.5t-3.5-9q.5-5.5 4-9t8.5-3.5q5 0 9 3.5t4 9q0 5.5-4 9t-9 3.5z"/></svg>