<svg viewBox="0 0 300 302.0011" xmlns="http://www.w3.org/2000/svg"><path d="M294 149q-8-16-26-20-11-3-68-3h-25l62-44q6-5 9.5-12t3.5-14V46q0-2 2-4l19-20q4-3 4-8.5t-3.5-9Q268 1 262.5 1T254 5l-20 19q-9 9-9 23v9q0 3-2 5l-49 35q7-9 7-20 0-8-4-15.5T166 49L156 6q-1-5-6-5t-6 5l-10 43q-7 4-11 11.5T119 76q0 11 7 19L78 61q-3-2-3-5V46q0-13-9-22L46 5q-3-4-8.5-4t-9 3.5Q25 8 25 13.5t4 8.5l19 20q2 2 2 4v10q0 8 3.5 14.5T63 82l62 44H56q-18 1-24 3-18 4-26.5 20t-4 33Q6 199 22 208q10 6 21 6 6 0 12-2 15-4 68-46l-53 61q-8 9-8 21v12q0 4-2 5l-17 14q-5 3-5.5 8t3 9.5Q44 301 49 301t9-2l17-14q6-4 9.5-10.5T88 260v-12q0-3 1-4l49-57v52q0 5 3.5 8.5t8.5 3.5q5 0 9-3.5t4-8.5v-52l48 57q2 1 2 4v12q0 8 3 14.5t9 10.5l18 14q3 2 8 2t8.5-4.5q3.5-4.5 3-9.5t-5.5-8l-17-14q-2-1-2-5v-12q0-12-8-21l-53-61q53 42 68 46 6 2 12 2 11 0 21-6 16-9 20.5-26t-4.5-33zM48 188q-7 2-13.5-2T26 175q-2-7 1.5-13.5T38 153q7-2 63-2-44 34-53 37zm226-13q-2 7-8.5 11t-14.5 1.5q-8-2.5-52-36.5 56 0 63 2t10.5 8.5Q276 168 274 175z"/></svg>