<svg viewBox="0 0 300.0117 302.0011" xmlns="http://www.w3.org/2000/svg"><path d="M102.012 101q-11 0-20-7-18-17-19-41-2-22 7.5-36t24-15.5q14.5-1.5 25.5 7.5 16 14 17.5 36.5t-8 39q-9.5 16.5-27.5 16.5zm-4-75q-5 1-8 7.5t-2 16.5q0 14 10 24 2 2 5 2t6.5-8.5q3.5-8.5 2.5-20.5-2-14-8-19-3-2-6-2zm-58 150q-12 0-20-7-18-17-20-41-2-22 8-36t24.5-15.5q14.5-1.5 25.5 7.5 16 14 17.5 36t-8.5 39q-10 17-27 17zm-5-75q-5 1-8 7.5t-2 16.5q1 14 11 24 1 2 4.5 2t7-8.5q3.5-8.5 2.5-20.5-2-14-9-19-3-2-6-2zm163 0q-10 0-19-8t-13.5-21q-4.5-13-2.5-27 1-22 17-36 11-9 25.5-7.5t24 15.5q9.5 14 7.5 36-1 24-19 41-9 7-20 7zm-10-54q-1 12 2.5 20.5t6.5 8.5q3 0 5-2 10-10 10-24 1-11-2-17.5t-8-6.5q-5 0-9 5.5t-5 15.5zm72 129q-17 0-27-17t-8-39q1-22 18-36 10-9 24.5-7.5t24.5 15.5q10 14 8 36-2 24-20 41-8 7-20 7zm-10-54q-1 12 2.5 20.5t7 8.5q3.5 0 4.5-2 10-10 11-24 1-10-2-16.5t-8-7.5q-1 0-4.5 1t-6.5 5.5q-3 4.5-4 14.5zm-50 179q-16 0-31-8-9-4-19-4t-19 4q-19 11-38 7.5t-31-20q-12-16.5-12-42.5 0-27 16-54 15-26 38.5-42t45.5-16q22 0 45.5 16t38.5 42q16 27 16 54.5t-14 45q-14 17.5-36 17.5zm-50-38q16 0 30 7.5t24 5q10-2.5 15.5-13t5.5-23.5q0-21-12-41.5t-30-33.5q-18-13-33-13t-33 13q-18 13-30 33.5t-12 40.5q0 14 5.5 24.5t15.5 13q10 2.5 24-5t30-7.5z"/></svg>