<svg viewBox="0 0 300 302.0011" xmlns="http://www.w3.org/2000/svg"><path d="M234 201q-13 0-25 5t-21 14q-27 27-62 41.5T53 276H39q-4 0-7.5-2.5T26 267q-2-4-1-8t4-7l9-9q18-1 34.5-8t29.5-20l54-54q8 2 16 3l3-1q15 0 29-5.5t24-15.5l13-13q11-11 16.5-25.5t5-30.5q-.5-16-7.5-30t-19-25Q220 6 201 3t-37 2.5Q146 11 132 25l-8 8q-14 15-20 34.5t-1 39.5l-55 55q-12 13-19.5 29.5T20 226l-9 8q-8 9-10.5 20.5T3 277q5 11 14.5 17.5T39 301h14q43 0 83-16.5t70-46.5q8-9 20.5-11.5T250 229q11 5 18 15t7 23v21q0 6 3.5 9.5t9 3.5q5.5 0 9-3.5t3.5-8.5v-22q0-18-9-33t-24-24q-15-9-33-9zM142 51l8-8q16-16 39-16 17 0 31 11 8 6 12.5 15.5t5 20Q238 84 234 94t-11 17l-13 13q-7 7-17 11t-20.5 3.5q-10.5-.5-20-5T137 120q-13-15-11.5-35T142 51zM66 180l48-48 3 5q7 7 15 13l-48 47q-16 16-38 20 4-22 20-37z"/></svg>