<svg viewBox="0 0 300 302.0011" xmlns="http://www.w3.org/2000/svg"><path d="M256 217l-20-22q11-8 13.5-21.5T244 149l-23-26q8-5 12.5-13t4-16.5Q237 85 232 78l-58-66Q164 1 150 1t-24 11L68 78q-5 7-5.5 15.5t4 16.5q4.5 8 12.5 13l-23 26q-8 11-5.5 24.5T64 195l-20 22q-6 9-6.5 19.5T42 256q5 9 14 14.5t19 5.5h63v12q0 6 3.5 9.5t8.5 3.5q5 0 9-3.5t4-8.5v-13h62q10 0 19-5.5t14-14.5q5-9 4.5-19.5T256 217zm-20 27q-3 7-11 7H75q-7 0-11-6.5t0-12.5l27-31h72q5 0 8.5-3.5t3.5-9q0-5.5-3.5-9T163 176H83q-4 0-6.5-4t-.5-9l34-37h40q5 0 9-3.5t4-9q0-5.5-4-9t-9-3.5H94q-4 0-5.5-3t-.5-6l57-64q2-2 5-2t5 2l57 64q1 3-.5 6t-5.5 3h-11q-3 0-6 2t-4.5 5.5q-1.5 3.5-1 7t2.5 6.5l38 41q2 5-.5 9t-6.5 4h-2q-8 0-11.5 7.5T205 197l31 35q3 6 0 12z"/></svg>