<svg viewBox="0 0 300 302.0011" xmlns="http://www.w3.org/2000/svg"><path d="M288 113h-13V51q0-21-14.5-35.5T225 1H75Q54 1 39.5 15.5T25 51v62H13q-6 0-9.5 4T0 126q0 5 3.5 9t9.5 4h12v62q0 21 14.5 35.5T75 251h12l46 39q8 7 17 7t16-6l48-40h11q21 0 35.5-14.5T275 201v-63h13q5 0 8.5-3.5t3.5-8.5q0-5-3.5-9t-9.5-4h1zm-38 88q0 10-7.5 17.5T225 226h-15q-5 0-8 3l-52 43-51-43q-3-3-8-3H75q-10 0-17.5-7.5T50 201V51q0-10 7.5-17.5T75 26h150q10 0 17.5 7.5T250 51v150zM200 76H100q-10 0-17.5 7.5T75 101v62q0 11 7.5 18t17.5 7h100q10 0 17.5-7t7.5-18v-62q0-10-7.5-17.5T200 76zm-81 75q-8 0-13.5-5.5T100 132q0-8 5.5-13.5t13.5-5q8 .5 13.5 5.5t5 13q-.5 8-5.5 13.5t-13 5.5zm62 0q-8 0-13.5-5.5t-5-13.5q.5-8 5.5-13.5t13-5q8 .5 13.5 5.5t5.5 13q0 8-5.5 13.5T181 151z"/></svg>