<svg viewBox="0 0 300 302.0011" xmlns="http://www.w3.org/2000/svg"><path d="M224 118l-24-5V38q0-14-9-25T169 0q-18-3-31 8.5T125 37v62q-14 0-26 7.5T81 126l-56 52q-13 14-13 33t13 32l29 29q14 14 32.5 21.5T125 301h87q17 0 31.5-8.5t23-23Q275 255 275 238v-59q0-22-14.5-39T224 118zm26 120q0 16-11 27t-27 11h-87q-15 0-29-5.5T72 254l-29-29q-6-6-6-14.5t6-14.5l32-30v47q0 6 3.5 9.5t9 3.5q5.5 0 9-3.5t3.5-8.5v-70l1-3q3-9 11.5-13.5T130 125l5 1q6 1 10.5-3t4.5-9V37q0-6 4.5-9.5T164 25q5 1 8 4.5t3 8.5v86q0 4 3 7.5t7 4.5l34 7q13 2 22 12.5t9 23.5v59z"/></svg>