<svg viewBox="0 0 300 302.0011" xmlns="http://www.w3.org/2000/svg"><path d="M0 151q0 41 20 75.5T74.5 281q34.5 20 75.5 20t75.5-20q34.5-20 54.5-54.5t20-75.5q0-41-20-75.5T225.5 21Q191 1 150 1T74.5 21Q40 41 20 75.5T0 151zm275 0q0 34-17 62.5T212.5 259Q184 276 150 276t-62.5-17Q59 242 42 213.5T25 151q0-34 17-62.5T87.5 43Q116 26 150 26t62.5 17Q241 60 258 88.5t17 62.5zM164 80q-4 3-4 8.5t4 8.5l41 41-130 1q-5 0-8.5 3.5T63 151q0 5 3.5 9t8.5 4l130-1-41 42q-5 5-3.5 12t8.5 9q7 2 12-3l46-45q10-11 10-27t-10-27l-45-44q-4-4-9-4t-9 4z"/></svg>