<svg viewBox="0 0 300 302.0011" xmlns="http://www.w3.org/2000/svg"><path d="M288 26H13q-6 0-9.5-3.5t-3.5-9q0-5.5 3.5-9T13 1h275q5 0 8.5 3.5t3.5 9q0 5.5-3.5 9T288 26zm12 137q0-5-3.5-8.5T288 151H13q-6 0-9.5 3.5t-3.5 9q0 5.5 3.5 9T13 176h275q5 0 8.5-3.5t3.5-9.5zM75 95V82q0-13-9-22t-22-9H31q-13 0-22 9T0 82v13q0 13 9 22t22 9h13q13 0 22-9t9-22zM44 76q2 0 4 2t2 4v13q0 2-2 4t-4 2H31q-2 0-4-2t-2-4V82q0-2 2-4t4-2h13zm144 19V82q0-13-9.5-22T156 51h-12q-13 0-22 9t-9 22v13q0 13 9 22t22 9h12q13 0 22.5-9t9.5-22zm-32-19q3 0 5 2t2 4v13q0 2-2 4t-5 2h-12q-3 0-4.5-2t-1.5-4V82q0-2 1.5-4t4.5-2h12zm144 19V82q0-13-9-22t-22-9h-13q-13 0-22 9t-9 22v13q0 13 9 22t22 9h13q13 0 22-9t9-22zm-31-19q2 0 4 2t2 4v13q0 2-2 4t-4 2h-13q-2 0-4-2t-2-4V82q0-2 2-4t4-2h13zM75 245v-13q0-13-9-22t-22-9H31q-13 0-22 9t-9 22v13q0 13 9 22t22 9h13q13 0 22-9t9-22zm-31-19q2 0 4 2t2 4v13q0 2-2 4t-4 2H31q-2 0-4-2t-2-4v-13q0-2 2-4t4-2h13zm144 19v-13q0-13-9.5-22t-22.5-9h-12q-13 0-22 9t-9 22v13q0 13 9 22t22 9h12q13 0 22.5-9t9.5-22zm-32-19q3 0 5 2t2 4v13q0 2-2 4t-5 2h-12q-3 0-4.5-2t-1.5-4v-13q0-2 1.5-4t4.5-2h12zm144 19v-13q0-13-9-22t-22-9h-13q-13 0-22 9t-9 22v13q0 13 9 22t22 9h13q13 0 22-9t9-22zm-31-19q2 0 4 2t2 4v13q0 2-2 4t-4 2h-13q-2 0-4-2t-2-4v-13q0-2 2-4t4-2h13z"/></svg>