<svg viewBox="0 0 300 302.0011" xmlns="http://www.w3.org/2000/svg"><path d="M288 238q-6 0-9.5 4t-3.5 9q0 10-7.5 17.5T250 276h-50v-50h26q20 0 34.5-14.5T275 177q0-27-17-47.5T215 104l-49-10q-8-2-13.5-7.5T146 73l-5-40q-2-16-16-25.5T95 2L36 19q-16 4-26 17.5T0 67v109q0 21 14.5 35.5T50 226h13v50H13q-6 0-9.5 3.5t-3.5 9q0 5.5 3.5 9T12 301h238q21 0 35.5-14.5T300 251q0-5-3.5-8.5T288 239v-1zM25 176V67q0-9 5-15.5T43 43l58-17h3q5 0 8.5 3t3.5 8l2 14H88q-6 0-9.5 3.5t-3.5 9q0 5.5 3.5 9T88 76h34q0 6 3 11l-30 18q-4 3-5 8t1.5 9.5Q94 127 99 128t9-1l31-19q5 4 11 7l-17 30q-3 4-1.5 9t6 7.5q4.5 2.5 9.5 1.5t8-6l20-36 35 7q17 4 28.5 17.5T250 177q0 10-7 17t-17 7H50q-10 0-17.5-7.5T25 176zm63 50h87v50H88v-50z"/></svg>