<svg viewBox="0 0 300 302.0011" xmlns="http://www.w3.org/2000/svg"><path d="M300 101v-3l-15-52q-6-20-22.5-32.5T225 1H75Q54 1 37.5 13.5T15 46L0 98v3q0 19 13 33v117q0 21 14.5 35.5T62 301h76q20 0 35-14.5t15-35.5V144q7-4 12-10 7 8 17 12.5t21 4.5h12q6 0 13-2v139q0 6 3.5 9.5t8.5 3.5q5 0 9-3.5t4-9.5V134q12-14 12-33zM138 276H63q-11 0-18-7.5T38 251v-25h125v25q0 10-7.5 17.5T138 276zm25-75H38v-52q6 2 12 2h13q10 0 20-4.5t17-12.5q7 8 17 12.5t20 4.5h26v50zm75-75q-11 0-18-7.5t-7-17.5q0-5-4-9t-9-4q-5 0-9 4t-4 9q1 10-6.5 17.5T163 126h-25q-11 0-18.5-7.5T112 101q1-5-3-9t-9-4q-5 0-8.5 4t-3.5 9q-1 10-8 17.5T62 126H50q-9 0-16-6l-1-1q-7-7-8-16l14-50q4-12 14-19.5T75 26h13v25q0 5 3.5 8.5T100 63q5 0 9-3.5t3-8.5V26h76v25q0 5 3.5 8.5t8.5 4q5 .5 9-3.5t4-9V26h12q12 0 22 7.5T261 53l14 50q-1 9-8 16t-17 7h-12z"/></svg>