<svg viewBox="0 0 300 302.0011" xmlns="http://www.w3.org/2000/svg"><path d="M238 1H63Q46 1 31.5 9.5t-23 23Q0 47 0 64v174q0 17 8.5 31.5t23 23Q46 301 63 301h175q16 0 30.5-8.5t23-23Q300 255 300 238V63q0-16-8.5-30.5t-23-23Q254 1 238 1zm37 237q0 16-11 27t-27 11H63q-16 0-27-11t-11-27V63q0-15 11-26t27-11h175q15 0 26 11t11 27v174zM119 51H69q-8 0-13.5 5.5T50 70v50q0 8 5.5 13t13.5 5h50q8 0 13-5t5-13V70q1-8-4.5-13.5T119 51zm-6 62H75V76h38v37zm118-62h-50q-8 0-13 5.5T163 70v50q0 8 5 13t13 5h50q8 0 13.5-5t5.5-13V70q0-8-5.5-13.5T231 51zm-6 62h-37V76h37v37zm-106 50H69q-8 1-13.5 6T50 182v50q0 8 5.5 13.5T69 251h50q8 0 13.5-5.5T137 232v-50q1-8-4.5-13t-13.5-5v-1zm-6 63H75v-38h38v38zm118-63h-50q-8 0-13 5.5t-5 13.5v50q0 8 5 13.5t13 5.5h50q8 0 13.5-5.5T250 232v-50q0-8-5.5-13.5T231 164v-1zm-6 63h-37v-38h37v38z"/></svg>