<svg viewBox="0 0 300 302.0011" xmlns="http://www.w3.org/2000/svg"><path d="M100 197v1q0 1 1 2t3 1l18-11q4-2 9-1t7.5 5.5q2.5 4.5 1.5 9.5t-6 8l-18 10q-6 4-13 4-12 0-19.5-7.5T75 202q-1-9 4-17l10-18q3-5 8-6t9.5 1.5q4.5 2.5 5.5 7.5t-1 9l-11 18zm196 83q4 3 4 8.5t-3.5 9q-3.5 3.5-9 3.5t-8.5-4L4 22q-4-3-4-8.5t3.5-9Q7 1 12.5 1T21 5l32 32q21-18 45.5-27T150 1q41 0 75.5 20T280 75.5q20 34.5 20 75.5 0 27-9 51.5T264 248l32 32zM71 54l57 58 56-32q8-5 17-4t16 8q7 7 8 16t-4 17l-32 56 58 57q13-17 20.5-37t7.5-42q0-34-17-62.5T212.5 43Q184 26 150 26q-22 0-42 7.5T71 54zm100 100l29-49q1-2-.5-3.5t-3.5-.5l-49 29 24 24zm31 111q-25 11-52 11-34 0-62.5-17T42 213.5Q25 185 25 151q0-27 11-51 2-5 0-10t-6.5-7Q25 81 20 83t-7 7Q0 119 0 151q0 41 20 75.5T74.5 281q34.5 20 75.5 20 33 0 63-14 4-2 6-7t0-9.5q-2-4.5-7-6.5t-10 1z"/></svg>