<svg viewBox="0 0 300 302.0011" xmlns="http://www.w3.org/2000/svg"><path d="M299 253L249 31q-3-15-16-23.5T205 3l-13 2q-8 2-15 8-11-12-27-12H75Q59 1 48 12T37 39v25q0 5 4 8.5t9 3.5q5 0 8.5-3.5T62 64V39q0-6 4-9.5t9-3.5h25v75q0 5 3.5 9t9 4q5.5 0 9-4t3.5-9V89h37v125h-37v-13q0-5-3.5-8.5t-9-3.5q-5.5 0-9 3.5T100 201v75H75q-5 0-9-3.5t-4-8.5v-25q0-6-3.5-9.5T50 226q-5 0-9 3.5t-4 9.5v25q0 15 11 26t27 11h75q15 0 26-11t11-26V155l27 117q3 13 13 21t23 8q4 0 8-1l13-3q15-3 23-16t5-28zM199 93l37-8 28 127-36 8-29-127zm-1-63q7-2 15-3 3 0 7 2t5 7l6 25-37 8-6-24q-1-6 2-10t8-5zm-73 33V26h25q5 0 8.5 3.5T162 38v25h-37zm25 213h-25v-38h38v25q0 6-4 9.5t-9 3.5zm123-9q-3 5-8 6l-12 3q-5 1-9.5-2t-5.5-8l-5-22 37-8 5 22q1 5-2 9zM38 163H13q-6 0-9.5-3.5T0 151q0-5 3.5-8.5T13 139h25v-26q0-5 3.5-8.5T50 101q5 0 9 3.5t3 9.5v24h26q5 0 8.5 4t3.5 9q0 5-3.5 8.5T87 163H63v25q0 6-4 9.5t-9 3.5q-5 0-8.5-3.5T38 189v-26z"/></svg>