<svg viewBox="0 0 300 302.0011" xmlns="http://www.w3.org/2000/svg"><path d="M212 192q-6 21-23.5 33.5T150 238q-21 0-38.5-12.5T88 192q-2-6 2-11t10-5h100q6 0 10 5t2 11zm88-41q0 41-20 75.5T225.5 281Q191 301 150 301q-57-2-95-33-35-29-47.5-73t0-88Q20 63 55 34 93 3 150 1q41 0 75.5 20T280 75.5q20 34.5 20 75.5zm-25 0q0-34-17-62.5T212.5 43Q184 26 150 26q-47 2-79 28-30 23-40 60t0 74q10 37 40 60 32 26 79 28 34 0 62.5-17t45.5-45.5q17-28.5 17-62.5zm-75-50q-10 0-17.5 7.5T175 125q0 9 7 12 5 1 18 1t18-1q7-3 7-12t-7.5-16.5Q210 101 200 101zm-62 25q0-5-4-9t-9-4H88q-6 1-9.5 4.5T75 126q0 5 3.5 9t9.5 4h37q5-1 9-4.5t4-8.5z"/></svg>