<svg viewBox="0 0 300 302.0011" xmlns="http://www.w3.org/2000/svg"><path d="M294 15l-8-8q-6-6-15-6t-16 6l-6 7q-11 11-11 27v5l-77 76q-27-21-61-21-27 0-50 13.5T13.5 151Q0 174 0 201t13.5 50Q27 274 50 287.5t50 13.5q27 0 50-13.5t36.5-36.5q13.5-23 13.5-50 0-34-21-61l76-77h5q16 1 27-10l7-7q6-7 6-16t-6-15zM100 276q-20 0-37.5-10T35 238.5Q25 221 25 201t10-37.5Q45 146 62.5 136t37.5-10q20 0 37.5 10t27.5 27.5q10 17.5 10 37.5t-10 37.5Q155 256 137.5 266T100 276zm9-59q4 4 4 9t-4 8.5q-4 3.5-9 3.5t-9-3l-25-25q-4-4-4-9t4-9q4-4 9-4t9 4l25 25z"/></svg>