<svg viewBox="0 0 300 302.0011" xmlns="http://www.w3.org/2000/svg"><path d="M288 263q-6 0-9.5-3.5T275 251v-63q-2-47-28-79-24-29-60.5-39.5t-73.5 0Q76 80 53 109q-26 32-28 79v63q0 5-3.5 8.5t-9 3.5q-5.5 0-9-3.5T0 251v-63q2-56 34-95 28-35 72-47.5t88 0Q238 58 266 93q32 39 34 96v62q0 5-3.5 8.5T288 263zm-38-12v-63q-1-37-22-63-19-23-48.5-31.5t-59 0Q91 102 72 125q-21 26-22 63v63q0 5 3.5 8.5t9 3.5q5.5 0 9-3.5T75 251v-63q1-28 17-47 14-18 36-24t44 .5q22 6.5 37 23.5 15 19 16 48v62q0 5 3.5 8.5t9 3.5q5.5 0 9-3.5t3.5-8.5zm-50 0v-63q0-20-14.5-35T150 138q-21 0-35.5 15T100 188v63q0 5 3.5 8.5t9 3.5q5.5 0 9-3.5t3.5-8.5v-63q0-10 7.5-17.5T150 163q10 0 17.5 7.5T175 189v62q0 5 3.5 8.5t9 3.5q5.5 0 9-3.5t3.5-8.5z"/></svg>