<svg viewBox="0 0 300 302.0011" xmlns="http://www.w3.org/2000/svg"><path d="M288 151h-25v-13q0-10-7.5-17.5T238 113h-25q-11 0-18 7.5t-7 17.5v13h-26q-5 0-8.5 3.5t-3.5 9q0 5.5 3.5 9t8.5 3.5v87q0 16 11.5 27t26.5 11h50q15 0 26-11t11-27v-87q6 0 9.5-3.5t3.5-9q0-5.5-3.5-9T287 151h1zm-75-13h25v13h-25v-13zm50 125q0 6-4 9.5t-9 3.5h-50q-5 0-8.5-3.5T188 263v-87h75v87zm-125 0q0 6-4 9.5t-9 3.5H63q-17 0-31.5-8.5t-23-23Q0 230 0 213V63q0-16 8.5-30.5t23-23Q46 1 63 1h150q16 0 30.5 8.5t23 23Q275 47 275 63v13q0 5-3.5 8.5t-9 3.5q-5.5 0-9-3.5T250 76V63q0-15-11-26t-26-11H63q-16 0-27 11T25 63v150q0 16 11 27t27 11h62q5 0 9 3.5t4 8.5zm0-50q0 6-4 9.5t-9 3.5H75q-10 0-17.5-7.5T50 201V76q0-10 7.5-17.5T75 51h25q4 0 7 2t4.5 5.5q1.5 3.5.5 7.5t-3 6l-34 34v95h50q5 0 8.5 3.5t3.5 9.5l1-1zm62-162q10 0 17.5 7.5T225 76q0 5-3.5 8.5t-9 3.5q-5.5 0-9-3.5T200 76h-21q-5 0-9 4l-41 41q-4 4-4 9v33q0 6-3.5 9.5t-9 3.5q-5.5 0-9-3.5T100 163v-33q0-16 11-26l42-42q11-11 26-11h21z"/></svg>