<svg viewBox="0 0 300 302.0011" xmlns="http://www.w3.org/2000/svg"><path d="M163 38V13q0-5-4-8.5T150 1q-5 0-9 3.5t-4 8.5v25q-23 1-43 12.5T62 82q-12 20-12 44v75q0 27 13.5 50t36.5 36.5q23 13.5 50 13.5t50-13.5q23-13.5 36.5-36.5t13.5-50v-75q0-24-12-44t-32-31.5Q186 39 163 39v-1zm62 163q0 20-10 37.5T187.5 266Q170 276 150 276t-37.5-10Q95 256 85 238.5T75 201v-75q0-17 8.5-31.5t23-22.5q14.5-8 30.5-9h26q16 1 30.5 9t23 22.5Q225 109 225 126v75zM150 88q-5 0-9 4t-4 9v25q1 5 4.5 9t8.5 3.5q5-.5 9-4t4-8.5v-25q0-5-4-9t-9-4z"/></svg>