<svg viewBox="0 0 300 302.0011" xmlns="http://www.w3.org/2000/svg"><path d="M263 288q0 6-4 9.5t-9 3.5q-5 0-8.5-3.5T238 288q0-20-15-35t-35-15h-75q-21 0-35.5 15T63 288q0 6-4 9.5t-9 3.5q-5 0-9-3.5t-4-9.5q1-20 11-37t27-27.5Q92 213 113 213h75q20 0 37 10.5t27.5 27.5q10.5 17 10.5 37zm12-193v25q0 8-5.5 13t-13.5 5h-6q0 21-14.5 35.5T200 188H100q-21 0-35.5-14.5T50 138h-6q-8 0-13.5-5T25 120V95q0-8 5.5-13.5T44 76h6q0-21 14.5-35.5T100 26h38V13q0-5 3.5-8.5T150 1q5 0 9 3.5t3 8.5v13h38q21 0 35.5 14.5T250 76h6q8 0 13.5 5.5T275 95zm-50-19q0-10-7.5-17.5T200 51H100q-10 0-17.5 7.5T75 76v62q0 11 7.5 18t17.5 8h100q10-1 17.5-8t7.5-17V76zM119 88q-8 1-13.5 6t-5.5 13q0 8 5.5 13.5T119 126q8 0 13.5-5.5t5-13.5q-.5-8-5.5-13.5T119 88zm62 0q-8 1-13.5 6t-5 13q.5 8 5.5 13.5t13 5.5q8 0 13.5-5.5T200 107q0-8-5.5-13.5T181 88z"/></svg>