<svg viewBox="0 0 300 302.0011" xmlns="http://www.w3.org/2000/svg"><path d="M238 1H63Q46 1 31.5 9.5t-23 23Q0 47 0 63v175q0 17 8.5 31.5t23 23Q46 301 62 301h142q13 0 24.5-4.5T248 283l34-34q9-8 13.5-19.5T300 205V63q0-16-8.5-30.5t-23-23Q254 1 237 1h1zM25 238V63q0-15 11-26t26-11h176q15 0 26 11t11 27v124h-50q-16 0-26.5 11T188 226v50H63q-16 0-27-11t-11-26v-1zm206 27q-8 8-18 10v-49q-1-5 3-8.5t9-3.5h49q-2 10-10 18l-33 33zm-56-150V88q0-10 7.5-17.5T200 63q7 1 13 4.5t9 9.5q2 4-.5 8t-7 3.5q-4.5-.5-6.5-5t-7-4.5q-5 0-7.5 3t-2.5 6v26q0 4 2.5 7t6.5 3q4 0 6.5-3t2.5-6v-2h-3q-2 0-4-1.5t-2-4q0-2.5 2-4.5t4-2h10q4 0 6.5 2.5t2.5 6.5v5q0 10-7.5 17t-17.5 7q-10 0-17.5-7t-7.5-17zm-75-43v42q0 10-7.5 17.5T74 139q-7 0-13.5-4T51 125q-2-4 .5-8t7-4q4.5 0 7 5t7.5 5q5 0 8-3t3-7V72q0-4 2.5-6.5T92 63q3 0 5.5 2.5T100 72zm39-9h-14q-5 0-9 4t-3 9v56q0 3 2 5t5.5 2q3.5 0 5.5-2t2-5v-16h11q11 0 18.5-7.5T165 90q0-11-7.5-19T139 63zm0 38h-11V79h11q6 0 9 5.5t0 11q-3 5.5-9 5.5z"/></svg>