<svg viewBox="0 0 300 302.0011" xmlns="http://www.w3.org/2000/svg"><path d="M238 201H31q-13 0-22 9t-9 22v13q0 13 9 22t22 9h207q5 0 8.5-3.5t3.5-9.5v-50q0-5-3.5-8.5T237 201h1zM25 245v-13q0-2 2-4t4-2h57v25H31q-2 0-4-2t-2-4zm200 6H113v-25h112v25zm75-38v50q0 6-3.5 9.5t-9 3.5q-5.5 0-9-3.5T275 264v-51q0-5 3.5-8.5t9-3.5q5.5 0 9 3.5t3.5 9.5v-1zm-50-64v14q0 6-3.5 9.5t-9 3.5q-5.5 0-9-3.5T225 163v-14q0-7-3.5-12.5T213 127l-20-12q-14-8-22.5-22.5T162 62V38q1-5 4.5-8.5T175 26q5 0 9 3.5t3 8.5v24q1 10 5.5 18.5T206 94l20 12q11 7 17.5 18.5T250 149zm50-20v9q0 6-3.5 9.5t-9 3.5q-5.5 0-9-3.5T275 138v-9q0-10-5-18.5T257 97l-26-16q-9-5-14-13.5T212 49V13q0-5 4-8.5t9-3.5q5 0 8.5 3.5T237 13v36q0 7 7 11l26 16q14 8 22 22.5t8 30.5z"/></svg>