<svg viewBox="0 0 300.0012 302.0011" xmlns="http://www.w3.org/2000/svg"><path d="M13 95q-1-13 8.5-22.5T44 63q13 0 22 9.5T75 95q0 13-9 22t-22 9q-13 0-22-9t-9-22zm168-32q13 0 22.5-9t9-22q-.5-13-9.5-22t-22-9q-13 0-22 9t-9 22q0 13 9 22.5t22 9.5v-1zm117 113q3 4 1.5 9t-5.5 8L119 299q-3 2-7 2h-12q-5 0-8.5-3.5T88 288v-37H38v19q0 4-3 7l-12 18q-4 6-11 6-3 0-7-2.5T0 291q-1-5 2-9l11-16v-90q0-12 6-21.5T36 141l68-13q3-1 6-4l38-36q11-12 27-12h63V17q0-7 4.5-11.5T254 1q4 0 8 2l33 20q5 3 5 9t-5 10l-32 15v32q0 5-4 8.5t-9 3.5h-37v63q10 0 17.5 7t7.5 18v9l43-26q4-3 9.5-2t7.5 6zM63 161l-18 4q-7 3-8 11v50h26v-65zm75-28l-11 9q-8 8-18 10l-21 4v70q10 0 17.5 7.5T113 251v23l25-15V133zm25 30h25v-62h-13q-5 0-8.5 3.5T163 114v49zm50 25h-50v56l50-31v-25z"/></svg>