<svg viewBox="0 0 300 302.0011" xmlns="http://www.w3.org/2000/svg"><path d="M238 301H63q-17 0-31.5-8.5t-23-23Q0 255 0 238V63q0-16 8.5-30.5t23-23Q46 1 62 1h176q16 0 30.5 8.5t23 23Q300 47 300 63v175q0 17-8.5 31.5t-23 23Q254 301 237 301h1zM63 26q-16 0-27 11T25 64v174q0 16 11 27t26 11h176q15 0 26-11t11-27V63q0-15-11-26t-27-11H63zm75 125q0 5 3.5 9t8.5 4q5 0 9-4t4-9q0-5-4-9t-9-4q-5 0-9 4t-4 9h1zM75 88q0 6 3.5 9.5t9 3.5q5.5 0 9-3.5t3.5-9q0-5.5-3.5-9t-9-3.5q-5.5 0-9 3.5T75 88zm125 0q0 6 3.5 9.5t9 3.5q5.5 0 9-3.5t3.5-9q0-5.5-3.5-9t-9-3.5q-5.5 0-9 3.5T200 88zM75 213q0 6 3.5 9.5t9 3.5q5.5 0 9-3.5t3.5-9q0-5.5-3.5-9t-9-3.5q-5.5 0-9 3.5T75 214v-1zm125 0q0 6 3.5 9.5t9 3.5q5.5 0 9-3.5t3.5-9q0-5.5-3.5-9t-9-3.5q-5.5 0-9 3.5T200 214v-1z"/></svg>