<svg viewBox="0 0 300.0057 302.0011" xmlns="http://www.w3.org/2000/svg"><path d="M138.004 26q0-10 7-17.5t17.5-7.5q10.5 0 18 7.5t7.5 17.5q0 10-7.5 17.5t-18 7.5q-10.5 0-17.5-7.5t-7-17.5zm11 37q13 13 13 32v6h31q3 0 5.5-2.5t1.5-6.5q-3-12-13.5-20.5t-23.5-8.5h-14zm-49 0q10 0 17.5-7t7.5-17.5q0-10.5-7.5-18t-17.5-7.5q-10 0-17.5 7.5t-7.5 18q0 10.5 7.5 17.5t17.5 7zm-93 38h31v-6q0-19 13-32h-14q-13 0-23.5 8.5T.004 92q-1 4 1.5 6.5t5.5 2.5zm283 63l-85 95q-17 20-41.5 31t-51.5 11h-62q-21 0-35.5-14.5T.004 251v-63q0-20 14.5-35t35.5-15h111q10 1 19 6t14 13l41-44q10-11 25.5-12t27 9.5q11.5 10.5 12.5 26t-10 27.5zm-19-35q-4-3-9-3t-9 4l-55 61q-4 10-12.5 17t-19.5 9l-64 9q-5 1-9.5-2.5t-5-8.5q-.5-5 2.5-9t8-5l65-9q5-1 8.5-5t3.5-9.5q0-5.5-4-9.5t-10-4h-111q-10 0-17.5 7t-7.5 18v62q0 10 7.5 17.5t17.5 7.5h62q21 0 41-9t34-24l85-96q3-4 3-9t-4-9zm-201-16h60q3 0 5.5-2.5t1.5-5.5q-3-13-13.5-21t-23.5-8q-13 0-23.5 8t-13.5 21q-1 3 1.5 6t5.5 3v-1zm-32-62q10 0 17.5-7.5t7.5-17.5q0-10-7.5-17.5t-18-7.5q-10.5 0-17.5 7.5t-7 17.5q0 10 7 17.5t18 7.5z"/></svg>