<svg viewBox="0 0 300 302.0011" xmlns="http://www.w3.org/2000/svg"><path d="M175 163q0 10-6 17t-15 8.5q-9 1.5-16.5-3t-11-13q-3.5-8.5 0-17.5t11.5-13V76q0-5 3.5-9t8.5-3.5q5 .5 9 4t4 8.5v66q5 3 8.5 9t3.5 12zm75-111q-30-27-68-35t-75.5 3.5Q69 32 41.5 61T5 128q-9 38 1 76t38 66q11 10 25.5 10.5T95 272l13-12q4-3 4.5-8t-3-9q-3.5-4-8.5-4.5t-9 3.5l-13 11q-4 3-8.5 3t-8.5-4q-27-27-34.5-64t7-72q14.5-35 46-56.5T150 38q38 0 69.5 21t46 56q14.5 35 7 72.5T238 252q-3 3-8 3.5t-9-2.5l-13-11q-4-4-9-3.5t-8.5 4.5q-3.5 4-3 9t4.5 8l13 12q11 9 26 8.5t25-11.5q22-22 33-50.5t10.5-59.5q-.5-31-13.5-59t-36-48z"/></svg>