<svg viewBox="0 0 300 302.0011" xmlns="http://www.w3.org/2000/svg"><path d="M100 46q0-13 9.5-23T133 13h5q0-5 3.5-8.5T150 1q5 0 9 3.5t4 8.5h3q10 0 18.5 5.5T198 32q3 5 1.5 10t-6 7.5q-4.5 2.5-9.5 1t-8-6.5q-3-5-10-5h-33q-3 0-5.5 2t-2.5 5q0 3 2 5.5t5 2.5l41 7q12 2 19.5 11t7.5 22q0 13-9.5 22.5T167 126h-4q0 5-4 9t-9 4q-5 0-8.5-4t-3.5-9h-4q-10 0-18.5-5T102 107q-3-4-1.5-9t6-7.5Q111 88 116 89t8 6.5q3 5.5 10 5.5h33q3 0 5.5-2.5T175 93q0-3-2-5t-5-3l-41-6q-12-2-19.5-11.5T100 46zm155-7q-13 3-21.5 14T225 77v63l-10-2q-16 0-27 10l-38 34-37-34q-12-11-27-10-6 1-11 2V76q0-11-6-20.5t-16.5-14q-10.5-4.5-23-2T8.5 53Q0 64 0 77v125q0 20 7.5 38.5T30 273l24 24q4 4 9 4t8.5-3.5q3.5-3.5 3.5-9t-3-8.5l-25-25q-10-10-16-24t-6-29V76q0-5 4-9t9-4q5 0 8.5 4t3.5 9l1 102q0 13 9 23l32 34q4 3 9 3.5t9-3.5q4-4 4-9t-4-9l-32-33q-3-4-3-8.5t3.5-8q3.5-3.5 8.5-4t9 3.5l34 31q10 9 15 21t5 25v45q0 5 4 8.5t9 3.5q5 0 8.5-3.5t3.5-8.5v-45q0-22-10-41l38-36q4-3 9-3t9 3.5q4 3.5 4 9t-4 8.5l-30 31q-3 4-3 9t3.5 8.5q3.5 3.5 9 4t8.5-3.5l33-34q8-10 8-22V76q0-5 3.5-8.5t9-3.5q5.5 0 9 3.5T275 76v126q0 15-5.5 29T253 255l-24 25q-4 3-4 8.5t3.5 9q3.5 3.5 9 3.5t8.5-4l25-24q14-14 21.5-32.5T300 202V76q0-11-6-20.5t-16.5-14Q267 37 255 39z"/></svg>