<svg viewBox="0 0 300 302.0011" xmlns="http://www.w3.org/2000/svg"><path d="M225 1H75Q58 1 43.5 9.5T21 32.5Q13 47 13 63v175q0 17 8 31.5t22.5 23Q58 301 75 301h150q17 0 31.5-8.5t23-23Q288 255 288 238V63q0-16-8.5-30.5t-23-23Q242 1 225 1zM75 26h150q15 0 26.5 11T263 63v125H38V63q0-15 11-26t26-11zm150 250H75q-15 0-26-11t-11-27v-25h225v25q0 16-11.5 27T225 276zm25-31q0 8-5.5 13t-13.5 5q-8 0-13-5t-5-13q0-8 5-13.5t13-5.5q8 0 13.5 5.5T250 245zm-50 0q0 8-5.5 13t-13.5 5q-8 0-13-5t-5-13q0-8 5-13.5t13-5.5q8 0 13.5 5.5T200 245z"/></svg>