<svg viewBox="0 0 300 302.0011" xmlns="http://www.w3.org/2000/svg"><path d="M263 48v215q0 6-4 9.5t-9 3.5q-5 0-8.5-3.5T238 264V55l-29 30q-4 3-9 3.5t-8.5-3.5q-3.5-4-4-9t3.5-9l34-34q5-5 11.5-6.5t12.5 1q6 2.5 9.5 8T262 48h1zm-125 90v38h12q5 0 8.5 3.5t4 9q.5 5.5-3.5 9t-9 3.5h-12v12q0 6-4 9.5t-9 3.5q-5 0-8.5-3.5T113 213v-12H75v12q0 6-3.5 9.5t-9 3.5q-5.5 0-9-3.5T50 213v-12H38q-6 0-9.5-3.5t-3.5-9q0-5.5 3.5-9T38 176h12v-38H38q-6 0-9.5-3.5T25 126q0-5 3.5-9t9.5-4h12v-12q0-5 3.5-9t9-4q5.5 0 9 4t3.5 9v12h38v-12q-1-5 3-9t9-4q5 0 9 4t3 9v12h13q5 0 8.5 4t4 9q.5 5-3.5 9t-9 4h-12v-1zm-25 0H75v38h38v-38z"/></svg>