<svg viewBox="0 0 300 302.0011" xmlns="http://www.w3.org/2000/svg"><path d="M288 201v-39q0-29-12.5-55T241 61.5Q219 42 190 34q-7-10-17.5-15.5T150 13q-12 0-22.5 5.5T110 34q-29 8-51 27.5T25 107q-12 26-12 55v39q-6 0-9.5 3.5t-3.5 9q0 5.5 3.5 9T13 226h5q17 22 42 38 40 24 90 24t90-24q25-16 42-38h6q5 0 8.5-3.5t3.5-9q0-5.5-3.5-9T288 201zm-25-39v39h-63V64q28 14 45.5 40.5T263 162zM150 38q10 0 17.5 7.5T175 63v138h-50V63q0-10 7.5-17.5T150 38zm-50 26v137H38v-39q0-31 17-57.5T100 64zM52 226h196q-16 16-37 25-28 13-61 12.5T89 251q-21-9-37-25z"/></svg>