<svg viewBox="0 0 300 302.0011" xmlns="http://www.w3.org/2000/svg"><path d="M185 213q-5 0-8.5-3.5T173 201q0-5 4-9l32-32q4-4 4-9t-4-9l-32-32q-4-4-4-9t3.5-8.5q3.5-3.5 9-3.5t8.5 3l33 32q11 11 11 27t-11 27l-33 32q-3 3-9 3zm-62-3q4-4 4-9t-4-9l-32-32q-3-4-3-9t3-9l32-32q4-4 4-9t-3.5-9q-3.5-4-9-4t-8.5 4l-33 32q-10 11-10.5 27T73 177l33 33q3 3 8.5 3t8.5-3zm177 28V63q0-16-8.5-30.5t-23-23Q254 1 238 1H63Q46 1 31.5 9.5t-23 23Q0 47 0 64v174q0 17 8.5 31.5t23 23Q46 301 63 301h175q16 0 30.5-8.5t23-23Q300 255 300 238zM238 26q15 0 26 11t11 27v174q0 16-11 27t-27 11H63q-16 0-27-11t-11-27V63q0-15 11-26t27-11h175z"/></svg>