<svg viewBox="0 0 300 302.0011" xmlns="http://www.w3.org/2000/svg"><path d="M238 26H63q-17 0-31.5 8.5t-23 23Q0 72 0 88v125q0 19 10.5 34.5T38 271v17q0 6 3.5 9.5T50 301q5 0 9-3.5t4-9.5v-12h175v12q0 6 3.5 9.5t8.5 3.5q5 0 9-3.5t4-9.5v-17q16-8 26.5-23.5T300 214V88q0-16-8.5-30.5t-23-23Q254 26 238 26zm37 187q0 16-11 27t-26 11H63q-16 0-27-11t-11-27h13q5 0 8.5-3.5T50 201q0-5-3.5-9t-8.5-4H25v-75h13q5 0 8.5-3.5T50 101q0-5-3.5-9T38 88H25q0-15 11-26t27-11h175q15 0 26 11t11 26v125zM163 76q-21 0-38 10t-27 27.5Q88 131 88 151t10 37.5q10 17.5 27 27.5t37.5 10q20.5 0 37.5-10t27.5-27.5Q238 171 238 151t-10.5-37.5Q217 96 200 86t-37-10zm0 125q-21 0-35.5-14.5T113 151q0-21 14.5-35.5T163 101q17 0 30.5 10.5T211 138h-36q-5 0-8.5 4t-3.5 9q0 5 3.5 8.5t8.5 3.5h36q-4 17-17.5 27.5T163 201z"/></svg>