<svg viewBox="0 0 300 302.0011" xmlns="http://www.w3.org/2000/svg"><path d="M150 238q-40-2-71-28-4-3-4-8t3.5-9q3.5-4 8.5-4.5t9 3.5q15 14 34.5 18.5t39 0Q189 206 204 192q4-4 9-3.5t8.5 4.5q3.5 4 3.5 9t-4 8q-31 26-71 28zm-31-100q-8 0-13.5 5.5T100 157q0 8 5.5 13.5T119 176q8 0 13-5.5t5.5-13.5q.5-8-5-13t-13.5-6zm62 0q-8 0-13.5 5.5t-5 13.5q.5 8 5.5 13.5t13 5.5q8 0 13.5-5.5T200 157q0-8-5.5-13t-13.5-6zm119 94q0-16-7-30t-20-24q5-18-1.5-35.5T250 113q2-18-9.5-32.5T211 64q-3-15-12-29.5t-22-24Q164 1 150 1q-5 0-9 3.5t-4 8.5q2 16-5.5 29.5T110 64H94q-10 0-18.5 3.5T61 78.5Q55 86 52 95t-2 18q-15 12-21.5 29.5T27 178Q9 192 3 213t1 41.5Q11 275 29 288t40 13h162q19 0 34.5-9.5t25-25Q300 251 300 232zM113 88h3q19-7 31-23t14-35q11 8 18 20t8 26q1 5 4.5 9t8.5 4h6q10 0 15.5 8t2.5 17q-2 5-.5 9.5t5.5 6.5q14 7 19 21t-1 27q-2 5-.5 9.5t5.5 6.5q13 8 19 21.5t2 28q-4 14.5-15.5 23.5t-26.5 9H69q-15 0-26.5-9T27 243.5q-4-14.5 2-28T48 194q4-2 5.5-6.5T53 178q-6-13-1-27t19-21q4-2 5.5-6.5T76 114q-3-9 2.5-17T94 88h19zm100-12z"/></svg>