<svg viewBox="0 0 300 302.0011" xmlns="http://www.w3.org/2000/svg"><path d="M213 301q-28 1-49-14.5T132.5 247q-10.5-24-6.5-49.5t24-45.5V63q1-29 20-46 18-15 42.5-15T255 17q19 17 20 47v88q20 20 24 45.5t-6.5 49.5Q282 271 261 286.5T213 301zm0-275q-16 0-27 11t-11 27v94q0 5-4 9-15 13-19.5 32t2.5 37q7 18 23 29t35.5 11q19.5 0 35.5-11t23-29q7-18 2.5-37T254 167q-4-4-4-9V63q0-15-11-26t-27-11h1zm0 225q-14 0-24.5-9T176 219.5q-2-13.5 4.5-25T200 178v-77q0-5 3.5-9t9-4q5.5 0 9 4t3.5 9v77q13 5 19.5 16.5t4.5 25q-2 13.5-12.5 22.5t-23.5 9zm0-50q-6 0-9.5 3.5t-3.5 9q0 5.5 3.5 9t9 3.5q5.5 0 9-3.5t3.5-9q0-5.5-3.5-9T213 201zM63 213q-8 0-11.5-6t.5-12l13-23q-6-5-10-11l-24 13q-6 4-12.5.5t-6.5-11q0-7.5 7-10.5l23-13q-2-7-3-14H13q-6 0-9.5-3.5t-3.5-9q0-5.5 3.5-9T12 101h27q1-7 3-13L19 74q-7-3-7-10.5t6.5-11Q25 49 31 53l23 13q5-6 11-10L52 32q-4-6-.5-12.5t11-6.5Q70 13 73 20l13 23q7-2 14-3V13q0-5 3.5-8.5t9-3.5q5.5 0 9 3.5T125 13v27q0 9-6 16t-15 8q-18 3-29.5 17T63 113q0 18 11 32t28 18q5 1 8 5t2 9q-1 5-5.5 8t-9.5 2q-5-1-10-3l-14 23q-3 6-10 6z"/></svg>