<svg viewBox="0 0 300 302.0011" xmlns="http://www.w3.org/2000/svg"><path d="M150 301q-28 0-53-10.5t-44.5-30Q33 241 23 216t-10-51.5Q13 138 29 107q3-4 8-5.5t9.5 1q4.5 2.5 6 7.5T51 120q-13 24-13 44 0 22 8.5 42.5t24 36.5q15.5 16 36 24.5T150 276q27 0 51-12 4-2 9-.5t7.5 6q2.5 4.5 1 9.5t-6.5 7q-29 15-62 15zm0-263q-9 0-16 6-20 17-37 35v1l137 138q16-25 16-55 0-22-22.5-53.5T166 44q-7-6-16-6zM13 1q5 0 8 4l58 57q18-19 39-37 14-12 32-12t32 12q37 31 60 62 33 43 33 76 0 40-23 73l44 44q4 3 4 8.5t-3.5 9q-3.5 3.5-9 3.5t-8.5-4L4 22q-4-3-4-8.5t3.5-9Q7 1 13 1z"/></svg>