<svg viewBox="0 0 300 302.0011" xmlns="http://www.w3.org/2000/svg"><path d="M299 82q-3 4-8 5.5t-9-.5L172 31q-11-5-22.5-5T128 31L18 87q-4 2-9 .5t-7.5-6Q-1 77 .5 72T7 65L117 9q15-8 32.5-8T183 9l110 56q5 2 6.5 7t-.5 10zm-23 83q11 20 12 43v18q-1 13-7.5 25T262 269v7q0 10-7 17.5t-17.5 7.5q-10.5 0-17.5-7.5t-7-17.5H88q0 10-7.5 17.5t-18 7.5Q52 301 45 293.5T38 276v-7q-12-6-18.5-18T13 226v-18q0-23 11-43l26-45q8-15 22.5-23t31.5-8h92q17 0 31.5 8t22.5 23l26 45zM47 176h206l-24-44q-5-8-14-13t-19-6h-92q-10 1-18.5 6T72 132l-25 44zm216 32q-1-3-1-7h-24v12q-1 6-4.5 9.5T225 226q-5 0-9-3.5t-4-9.5v-12H88v12q0 6-4 9.5t-9 3.5q-5 0-8.5-3.5T63 213v-12H38l-1 7v18q1 10 8 17.5t18 7.5h175q10 0 17-7.5t7-17.5l1-18z"/></svg>