<svg viewBox="0 0 300 302.0011" xmlns="http://www.w3.org/2000/svg"><path d="M287 22q-13-11-31-8-13 2-22 13t-9 25v51q-6-2-13-2-14 0-25 10-10-10-24-10-7 0-13 2V40q0-14-9-25T119 2q-18-3-31 8T75 39v133l-12-11q-11-10-26.5-9.5t-26 11.5Q0 174 .5 189.5T12 216l55 53q16 16 36.5 24t42.5 8h92q16 0 30.5-8.5t23-23Q300 255 300 238V51q0-17-13-29zm-74 104q5 0 8.5 3.5t3.5 9.5v24q0 6-3.5 9.5t-9 3.5q-5.5 0-9-3.5T200 163v-25q0-5 3.5-8.5t9.5-3.5zm-50 0q5 0 8.5 3.5t3.5 9.5v24q0 6-3.5 9.5t-9 3.5q-5.5 0-9-3.5T150 163v-25q0-5 3.5-8.5t8.5-3.5h1zm112 112q0 16-11 27t-27 11h-91q-18 0-33.5-6.5T85 251l-56-53q-4-4-4-9t3.5-9q3.5-4 9-4t8.5 3l33 31q3 3 6.5 3.5t7-1Q96 211 98 208t2-7V38q0-5 4.5-9t9.5-3q5 1 8 5t3 9v123q0 16 11 27t26 11q15 0 26-10 10 10 25 10t26-11q11-11 11-26V52q0-5 3-9t8-4.5q5-.5 9.5 3T275 51v187z"/></svg>