<svg viewBox="0 0 300 302.0011" xmlns="http://www.w3.org/2000/svg"><path d="M250 176h-25q-21 0-35.5 14.5T175 226h-62q-16 0-27-11t-11-27v-62q21 0 35.5-14.5T125 76V51q0-21-14.5-35.5T75 1H50Q29 1 14.5 15.5T0 51v25q0 21 14.5 35.5T50 126v62q0 17 8.5 31.5t23 23Q96 251 113 251h62q0 21 14.5 35.5T225 301h25q21 0 35.5-14.5T300 251v-25q0-21-14.5-35.5T250 176zM25 76V51q0-10 7.5-17.5T50 26h25q10 0 17.5 7.5T100 51v25q0 10-7.5 17.5T75 101H50q-10 0-17.5-7.5T25 76zm250 175q0 10-7.5 17.5T250 276h-25q-10 0-17.5-7.5T200 251v-25q0-10 7.5-17.5T225 201h25q10 0 17.5 7.5T275 226v25z"/></svg>