<svg viewBox="0 0 300 302.0011" xmlns="http://www.w3.org/2000/svg"><path d="M175 38q-3-17-17-24Q126-3 91.5 2t-60 30.5Q6 58 1 92.5T13 159q7 14 24 17h5q15 0 25-10l98-98q6-6 8.5-14t1.5-16zm-28 12l-98 98q-3 4-7.5 3t-6.5-4q-13-24-9-51t23-46q12-12 27-18t31-6q21 0 39 10 3 2 4 6.5t-3 7.5zM50 245q0 8-5.5 13.5T31 264q-8 0-13-5.5T13 245q0-8 5-13.5t13-5.5q8 0 13.5 5.5T50 245zm250-63q0 8-5.5 13.5T281 201q-8 0-13-5.5t-5-13q0-7.5 5-13t13-5.5q8 0 13.5 5t5.5 13zm-125-25q0 8-5.5 13.5T156 176q-8 0-13.5-5.5t-5-13.5q.5-8 5.5-13t13-5q8 0 13.5 5t5.5 13zm125 125q0 8-5.5 13.5T281 301q-8 0-13-5.5t-5-13.5q0-8 5-13t13-5q8 0 13.5 5.5T300 282zM238 45q0-8 5-13.5t13-5.5q8 0 13.5 5.5T275 45q0 8-5.5 13.5t-13.5 5q-8-.5-13-5.5t-5-13zm58 59q-12 11-24 16.5t-25 5.5q-17 0-31-8-8-4-17-13l-1-1q-4-4-4-9t3.5-9q3.5-4 8.5-4t9 4l1 1q7 7 12 9 8 5 19 5 7 0 13-3 9-3 19-12 4-4 9-4t8.5 4q3.5 4 3.5 9t-4 9zM137 241q1 15-5 30t-17 26q-3 4-8.5 4t-9-3.5Q94 294 94 289t3-9q8-8 12-18t3-20q0-22-9-33-3-4-2.5-9t4.5-8.5q4-3.5 9-3t8 4.5q15 18 15 48zm101 10q0 25-16 45-3 5-8.5 5t-9-3q-3.5-3-4.5-8t3-9q10-13 10-30 0-12-5-21-3-5-6-8t-3-8.5q0-5.5 4-9t9-3.5q5 0 9 4t9 12q7 16 7 34h1z"/></svg>