<svg viewBox="0 0 300 302.0011" xmlns="http://www.w3.org/2000/svg"><path d="M281 126h-6v-13q0-16-8.5-30.5t-23-23Q229 51 212 51h-49V26q0-5-4-9t-9-4q-5 0-8.5 4t-3.5 9v25H88q-17 0-31.5 8.5t-23 23Q25 97 25 114v12h-6q-8 0-13.5 5.5T0 145v37q0 8 5.5 13.5T19 201h6v12q0 17 8.5 31.5t23 23Q71 276 87 276h126q16 0 30.5-8.5t23-23Q275 230 275 214v-13h6q8 0 13.5-5.5T300 182v-37q0-8-5.5-13.5T281 126zm-31 87q0 16-11 27t-26 11H88q-16 0-27-11t-11-27V113q0-15 11-26t27-11h125q15 0 26 11t11 26v100zm-125-81q0 8-5.5 13.5T106 151q-8 0-13.5-5.5t-5-13.5q.5-8 5.5-13.5t13-5q8 .5 13.5 5.5t5.5 13zm69 19q-8 0-13.5-5.5T175 132q0-8 5.5-13.5t13.5-5q8 .5 13.5 5.5t5 13q-.5 8-5.5 13.5t-13 5.5zm-81 50q-1 5-4.5 9t-8.5 4H88q-6-1-9.5-4.5T75 201q0-5 3.5-9t8.5-4h13q5 1 8.5 4.5t3.5 8.5h1zm62 0q0 5-3.5 9t-8.5 4h-25q-6-1-9.5-4.5T125 201q0-5 3.5-9t8.5-4h26q5 0 8.5 4t3.5 9zm50 0q0 5-3.5 9t-8.5 4h-13q-5 0-9-4t-3.5-9q.5-5 4-9t8.5-4h13q5 0 8.5 4t3.5 9z"/></svg>