<svg viewBox="0 0 300 302.0011" xmlns="http://www.w3.org/2000/svg"><path d="M259 60l20 20q2 3 6 3.5t7.5-1Q296 81 298 78t2-7V14q0-6-3.5-9.5T288 1h-58q-4 0-7 2t-4.5 5.5q-1.5 3.5-1 7.5t3.5 6l20 20-91 91-91-91 20-20q3-2 3.5-6t-1-7.5Q80 5 77 3t-7-2H13Q7 1 3.5 4.5T0 13v58q0 4 2 7t5.5 4.5Q11 84 15 83t6-3l20-20 91 91-91 91-20-20q-2-3-6-3.5t-7.5 1Q4 221 2 224t-2 7v57q0 6 3.5 9.5T12 301h58q4 0 7-2t4.5-5.5q1.5-3.5 1-7.5t-3.5-6l-20-20 91-91 91 91-20 20q-3 2-3.5 6t1 7.5q1.5 3.5 4.5 5.5t7 2h57q6 0 9.5-3.5t3.5-9.5v-57q0-4-2-7t-5.5-4.5q-3.5-1.5-7.5-1t-6 3.5l-20 20-91-91 91-91z"/></svg>