<svg viewBox="0 0 300 302.0011" xmlns="http://www.w3.org/2000/svg"><path d="M238 301H63q-17 0-31.5-8.5t-23-23Q0 255 0 238V63q0-16 8.5-30.5t23-23Q46 1 63 1h175q16 0 30.5 8.5t23 23Q300 47 300 63v175q0 17-8.5 31.5t-23 23Q254 301 238 301zM63 26q-16 0-27 11T25 63v175q0 16 11 27t27 11h175q15 0 26-11t11-27V63q0-15-11-26t-26-11H63zm87 225q-27 0-50-13.5T63.5 201Q50 178 50 151t13.5-50Q77 78 100 64.5T150 51q27 0 50 13.5t36.5 36.5q13.5 23 13.5 50t-13.5 50Q223 224 200 237.5T150 251zm0-175q-20 0-37.5 10T85 113.5Q75 131 75 151t10 37.5Q95 206 112.5 216t37.5 10q20 0 37.5-10t27.5-27.5q10-17.5 10-37.5t-10-37.5Q205 96 187.5 86T150 76zm0 94q8 0 13.5-5.5T169 151q0-8-5.5-13.5T150 132q-8 0-13.5 5.5T131 151q0 8 5.5 13.5T150 170z"/></svg>