<svg viewBox="0 0 300 302.0011" xmlns="http://www.w3.org/2000/svg"><path d="M256 217l-20-22q7-5 10.5-12.5t3-17Q249 156 244 149l-23-26q8-5 12.5-13t4-16.5Q237 85 232 78l-58-66q-9-10-24-10t-24 10L68 78q-5 7-5.5 15.5T66 110q4 8 13 13l-23 26q-5 7-6 16.5t3 17q4 7.5 11 12.5l-20 22q-6 9-6.5 19.5T42 256q5 9 14 14.5t19 5.5h62v12q0 6 4 9.5t9 3.5q5 0 8.5-3.5t3.5-9.5v-12h63q10 0 19-5.5t14-14.5q5-9 4.5-19.5T256 217zm-20 27q-3 7-11 7h-62V138q0-5-4-8.5t-9-3.5q-5 0-8.5 3.5T138 138v113H75q-8 0-11-6.5t0-12.5l31-35q2-3 2.5-6.5t-1-7Q95 180 92 178t-7-2h-2q-5 0-7-4.5t0-7.5l38-42q2-3 3-6.5t-.5-7q-1.5-3.5-5-5.5t-6.5-2H94q-4 0-5.5-3t-.5-6l57-64q2-2 5-2t5 2l57 64q1 3-.5 6t-5.5 3h-11q-3 0-6.5 2t-5 5.5q-1.5 3.5-.5 7t3 6.5l38 42q2 3 0 7.5t-7 4.5h-2q-4 0-7 2t-4.5 5.5q-1.5 3.5-1 7t2.5 6.5l31 35q3 6 0 12z"/></svg>