<svg viewBox="0 0 300 302.0011" xmlns="http://www.w3.org/2000/svg"><path d="M150 76q-16 0-27 11t-10 27v149q0 16 10.5 27t26.5 11q16 0 26.5-11t11.5-26V113q0-15-11-26t-27-11zm13 187q0 6-4 9.5t-9 3.5q-5 0-9-3.5t-4-9.5V113q1-5 4.5-8.5t8.5-3.5q5 0 9 3.5t4 8.5v150zM263 1q-16 0-27 11t-11 27v224q0 16 11 27t26.5 11q15.5 0 26.5-11t11-26V38q0-15-11-26T262 1h1zm12 262q0 6-3.5 9.5t-9 3.5q-5.5 0-9-3.5T250 263V38q0-5 3.5-8.5t9-3.5q5.5 0 9 3.5T275 38v225zM38 151q-16 0-27 11T0 188v75q0 16 11 27t26.5 11Q53 301 64 290t11-26v-76q0-15-11-26t-26-11z"/></svg>