<svg viewBox="0 0 300 302.0011" xmlns="http://www.w3.org/2000/svg"><path d="M288 276h-13v-13q0-20-14.5-35T225 214h-25v-13q0-10 7.5-17.5T225 176h25q21 0 35.5-14.5T300 126q0-21-14.5-35.5T250 76h-35q-21-6-44-18-42-20-71-49-6-6-14.5-7.5t-17 2Q60 7 55 15t-5 17v115q0 9 5 16.5T68 174q6 3 12 3 11 0 19-8 29-29 72-50 24-12 44-18h35q10 0 17.5 7.5T275 126q0 10-7.5 17.5T250 151h-25q-21 0-35.5 14.5T175 201v13H75q-21 0-35.5 14.5T25 264v12H13q-6 0-9.5 3.5t-3.5 9q0 5.5 3.5 9T13 301h275q5 0 8.5-3.5t3.5-9q0-5.5-3.5-9T287 276h1zM81 151l-.5.5q-.5.5-3-.5t-2.5-4V32q0-4 4-5l2-1q1 0 2 1 38 38 94 62-57 24-96 62zM50 263q0-10 7.5-17.5T75 239h150q10-1 17.5 6.5T250 264v12H50v-13z"/></svg>