<svg viewBox="0 0 300 302.0011" xmlns="http://www.w3.org/2000/svg"><path d="M225 1H75Q58 1 43.5 9.5t-23 23Q12 47 13 64v174q0 17 8 31.5t22.5 23Q58 301 75 301h150q17 0 31.5-8.5t23-23Q288 255 288 238V63q0-16-8.5-30.5t-23-23Q242 1 225 1zm38 237q0 16-11 27t-27 11H75q-16 0-27-11t-11-27V63q1-15 11.5-26T75 26h150q16 0 27 11t10 27v174h1zM150 63q-24 0-44 12t-31.5 32Q63 127 63 151t11.5 44Q86 215 106 226.5t44 11.5q24 0 44-11.5t32-31.5q12-20 12-44t-12-44q-12-20-32-32t-44-12zm0 150q-17 0-31.5-8T96 182.5Q88 168 88 151t8-31.5q8-14.5 22.5-22.5t31.5-8.5q17-.5 31.5 8t22.5 23q8 14.5 8.5 31.5t-8 31.5q-8.5 14.5-23 22.5t-31.5 8zm19-62q0 8-5.5 13.5T150 170q-8 0-13.5-5.5T131 151q0-8 5.5-13.5T150 132q8 0 13.5 5.5T169 151z"/></svg>