<svg viewBox="0 0 300 302.0011" xmlns="http://www.w3.org/2000/svg"><path d="M238 301h-63q-17 0-31.5-8.5t-22.5-23q-8-14.5-8-31.5v-62q0-17 8-31.5t22.5-22.5q14.5-8 31.5-8h63q16 0 30.5 8t23 22.5Q300 159 300 176v62q0 17-8.5 31.5t-23 23Q254 301 238 301zm-63-163q-16 0-26.5 11T138 176v62q0 16 10.5 27t26.5 11h63q15 0 26-11t11-27v-62q0-16-11-26.5T237 138h-62zm0 25q-5 0-9 4t-3.5 9q.5 5 4 8.5t8.5 3.5q5 0 9-3.5t4-8.5q0-5-4-9t-9-4zm63 63q-6 0-9.5 3.5t-3.5 9q0 5.5 3.5 9t9 3.5q5.5 0 9-3.5t3.5-9q0-5.5-3.5-9T238 226zM113 88q5 0 8.5-3.5T125 76q0-5-3.5-9t-9-3.5q-5.5.5-9 4T100 76q0 5 3.5 9t9.5 4v-1zm-25 25q0-5-4-8.5t-9-3.5q-5 0-8.5 3.5t-3.5 9q0 5.5 3.5 9T75 126q5 0 8.5-3.5T87 114l1-1zm-3 86q3-4 2.5-9t-4.5-9l-47-47q-11-11-11-26.5T36 81l45-44q11-11 26-11 16 0 27 11l46 47q3 4 8 4.5t9-3q4-3.5 4.5-8.5t-2.5-9l-47-48q-9-9-20.5-14t-24-5Q95 1 83.5 5.5T63 19L19 63Q7 75 2.5 91T2 123q4 16 16 28l44 45 5 5q4 3 9.5 2.5T85 199z"/></svg>