<svg viewBox="0 0 300 302.0011" xmlns="http://www.w3.org/2000/svg"><path d="M200 95q0 8-5.5 13.5T181 114q-8 0-13-5.5T163 95q0-8 5-13.5t13-5.5q8 0 13.5 5.5T200 95zm-31 56q-8 0-13.5 5.5T150 170q0 8 5.5 13.5T169 189q8 0 13.5-5.5t5-13.5q-.5-8-5.5-13.5t-13-5.5zm-75 12q-8 1-13.5 6T75 182q0 8 5.5 13.5T94 201q8 0 13.5-5.5t5-13.5q-.5-8-5.5-13.5T94 163zm206-50q0 6-3.5 9.5T288 126h-17q-2 10-6 20l14 9q5 2 6 7.5t-2 10.5q-3 5-10 5-4 0-7-2l-14-9-14 15 15 16q4 3 4 8.5t-4 9q-4 3.5-9 3.5t-9-4l-15-15-21 21 15 15q4 4 4 9t-3.5 9q-3.5 4-9 4t-8.5-4l-16-15-15 14 9 14q3 5 1.5 10t-5 7q-3.5 2-7.5 2-7 0-10-6l-9-14q-10 4-20 6v17q0 5-3.5 8.5t-9 3.5q-5.5 0-9-3.5T100 289v-17q-10-1-20-5l-8 13q-4 6-11 6-3 0-7-2t-5-7q-1-5 1-10l9-13-6-6-8-8-14 8q-3 1-6 1-8 0-11-6-3-5-1.5-10t6.5-7l14-8q-3-8-4-17H13q-6 0-9.5-3.5t-3.5-9q0-5.5 3.5-9T13 176h16q2-10 6-20l-15-8q-4-3-5.5-8t1.5-9.5q3-4.5 8-5.5t9 1l15 9 14-15-12-13q-4-4-4-9t3.5-8.5q3.5-3.5 9-3.5t8.5 3l13 13 21-21-13-13q-3-3-3-8.5t3.5-9Q92 47 97 47t9 4l13 12 15-14-9-15q-2-4-1-9t5.5-8q4.5-3 9.5-1.5t8 5.5l8 15q10-4 20-6V13q0-5 3.5-8.5t9-3.5q5.5 0 9 3.5T200 13v17q9 1 18 5l8-15q2-5 7-6.5t9.5 1q4.5 2.5 6 7.5t-.5 10l-9 15q5 3 8 7l6 6 14-9q4-2 9-1t8 5.5q3 4.5 1.5 9.5t-5.5 8l-14 8q4 10 5 20h16q6 0 9.5 3.5t3.5 8.5zm-70 42q17-17 17-41.5t-17.5-42Q212 54 187.5 54T146 71l-76 76q-11 11-15 26.5t0 30.5q4 15 15 27 18 17 42.5 17t41.5-17l76-76z"/></svg>