<svg viewBox="0 0 300 302.0011" xmlns="http://www.w3.org/2000/svg"><path d="M200 220q0 8-5.5 13t-13.5 5q-8 0-13.5-5t-5-13q.5-8 5.5-13.5t13-5.5q8 0 13.5 5.5T200 220zm100-13v19q0 20-10 37.5T262.5 291Q245 301 225 301H109q-29 0-54.5-14.5t-40-40Q0 221 0 192q0-64 36-118l6-9q-17-7-28.5-22T0 9q0-3 2-5.5T7 1q16 1 29 7 11 4 19 12 6 5 11 11l3 5q0-1 3.5-6T82 20q8-8 19-12 13-6 29-7 3 0 5.5 2.5T137 9q-2 21-16.5 37.5T86 68l-6 34q-4 23-5 45 27-22 54.5-34t51.5-12h13q29 0 53 14.5t38.5 38.5q14.5 24 14.5 53zm-25 0q0-22-11-40.5T234.5 137Q216 126 194 126h-13q-24 0-53 15.5T71 185q-2 3-6 3.5t-7.5-1Q54 186 52 183t-2-7v-13q0-33 5-65l2-11q-15 23-23.5 50T25 192q0 23 11.5 42T67 264.5Q86 276 109 276h116q21 0 35.5-14.5T275 226v-19z"/></svg>