<svg viewBox="0 0 300 302.0011" xmlns="http://www.w3.org/2000/svg"><path d="M88 301q-28 1-49-14.5T7.5 247Q-3 223 1 197.5T25 152V63q1-29 20-46Q63 2 87.5 2T130 17q19 17 20 47v88q20 20 24 45.5t-6.5 49.5Q157 271 136 286.5T87 301h1zm0-275q-16 0-27 11T50 64v94q0 5-4 9-14 13-18.5 32t2.5 37q7 18 22.5 29t35 11q19.5 0 35-11t22.5-29q7-18 2.5-37T129 167q-4-4-4-9V63q0-15-11-26T87 26h1zm0 225q-14 0-24.5-9T51 219.5q-2-13.5 4.5-25T75 178V62q0-5 3.5-8.5t9-3.5q5.5 0 9 3.5T100 62v116q13 5 19.5 16.5t4.5 25q-2 13.5-12.5 22.5T88 251zm0-50q-6 0-9.5 3.5t-3.5 9q0 5.5 3.5 9t9 3.5q5.5 0 9-3.5t3.5-9q0-5.5-3.5-9T87 201h1zM284 42L246 5q-3-4-8.5-4T229 5l-38 37q-4 4-4 9t4 9q4 4 9 4t9-4l16-16v94q0 6 3.5 9.5t9 3.5q5.5 0 9-3.5t3.5-8.5V44l16 16q4 3 9 3t8.5-3.5Q287 56 287 51t-3-9z"/></svg>