<svg viewBox="0 0 300 302.0011" xmlns="http://www.w3.org/2000/svg"><path d="M296 280l-74-75q13-16 20.5-36.5T250 126q0-34-17-62.5T187.5 18Q159 1 125 1T62.5 18Q34 35 17 63.5T0 126q0 34 17 62.5T62.5 234Q91 251 125 251q22 0 42.5-7.5T204 223l75 74q3 4 8.5 4t9-3.5q3.5-3.5 3.5-9t-4-8.5zM25 126q0-27 13.5-50T75 39.5Q98 26 125 26t50 13.5Q198 53 211.5 76t13.5 50q0 27-13.5 50T175 212.5Q152 226 125 226t-50-13.5Q52 199 38.5 176T25 126zm150 25q0 16-11 26.5T138 188v13q0 5-4 9t-9 3.5q-5-.5-8.5-4T113 201v-13h-4q-10 0-18.5-5T77 170q-3-5-1.5-10t6-7.5q4.5-2.5 9.5-1t8 6.5q3 5 10 6h29q5-1 8.5-4.5t3.5-8q0-4.5-2.5-7T142 141l-38-6q-13-2-21-11.5T75 101q0-16 11-27t26-11V51q1-5 4.5-9t8.5-4q5 0 8.5 4t3.5 9v12h4q10 0 18.5 5.5T173 82q3 5 1.5 10t-6 7.5q-4.5 2.5-9.5 1t-8-7q-3-5.5-10-4.5h-28q-6-1-9.5 3t-3.5 8.5q0 4.5 2.5 7t5.5 3.5l38 6q13 2 21 11.5t8 22.5z"/></svg>