<svg viewBox="0 0 301 302.0011" xmlns="http://www.w3.org/2000/svg"><path d="M214 102q-8 2-11.5 8.5t-1.5 14q2 7.5 8.5 11.5t14 2q7.5-2 11.5-9t2-14.5q-2-7.5-9-11t-14-1.5zm-63-38q-7 2-11 9t-2 14.5q2 7.5 9 11t14.5 1.5q7.5-2 11-8.5t1.5-14q-2-7.5-8.5-11.5T151 64zm-62 38q-8 2-11.5 8.5t-1.5 14q2 7.5 8.5 11.5t14 2q7.5-2 11.5-9t2-14.5q-2-7.5-9-11T89 102zm0 75q-8 2-11.5 8.5t-1.5 14q2 7.5 8.5 11.5t14 2q7.5-2 11.5-9t2-14.5q-2-7.5-9-11T89 177zM156 1q-30-1-58.5 10T47 43Q25 64 13 92T1 151q0 41 20 75.5T75.5 281q34.5 20 75.5 20l13-1q4 0 7.5-3.5t3.5-8.5v-45q-1-14 6.5-25t20-16.5q12.5-5.5 26-3T251 211l1 1q4 5 10 6.5t12 .5q6-1 10.5-5t6.5-10q11-27 10-57-1-39-21-71.5T227.5 23Q195 3 156 1zm113 193l-1-1q-15-15-35.5-19t-40 4.5q-19.5 8.5-31.5 26T150 243v33q-34 0-62.5-17T42 213q-17-29-16.5-63T43 87.5q17-28.5 45.5-45T151 26h4q33 2 60 18.5T258.5 88q16.5 27 17.5 60 1 23-7 46z"/></svg>