<svg viewBox="0 0 300 302.0011" xmlns="http://www.w3.org/2000/svg"><path d="M150 1q-41 0-75.5 20T20 75.5Q0 110 0 151q2 57 33 95 29 35 73 47.5t88 0q44-12.5 73-47.5 31-38 33-95 0-41-20-75.5T225.5 21Q191 1 150 1zm0 275q-34 0-62.5-17T42 213.5Q25 185 25 151q2-47 28-79 23-30 60-40t74 0q37 10 60 40 26 32 28 79 0 34-17 62.5T212.5 259Q184 276 150 276zm73-81q-11 20-30.5 31.5T150 238q-23 0-42.5-11.5T77 195q-2-3-2-6.5t2-7q2-3.5 5.5-4.5t7.5-1q29 11 60 12 31-1 60-12 4 0 7.5 1t5.5 4.5q2 3.5 2 7t-2 6.5zm15-86q0 11-12 25-8 9-20 19-3 2-6 2t-6-2q-20-15-27-30-6-12-3-21t11.5-12q8.5-3 16 1.5T200 109q0-8 5.5-13.5T219 90q8 0 13.5 5.5T238 109zm-175 0q0-8 5-13.5T81 90q8 0 13.5 5.5T100 109q1-13 9-17.5t16-1.5q8 3 11 12t-3 21q-7 15-27 30-3 2-6 2t-6-2q-12-10-20-19-12-14-11-25z"/></svg>