<svg viewBox="0 0 300 302.0011" xmlns="http://www.w3.org/2000/svg"><path d="M131 32q0-8 5.5-13.5T150 13q8 0 13.5 5.5T169 32q0 8-5.5 13.5T150 51q-8 0-13.5-5.5T131 32zm107 131q-1 24-12.5 44T194 239q-20 12-44 12t-44-12q-20-12-32-32t-11.5-43.5q.5-23.5 12-43.5T106 88q20-12 44-12t44 12q20 12 32 32t12 43zm-25 0q0-16-8.5-30.5t-23-23Q167 101 150 101t-31.5 8.5Q104 118 96 132.5t-8 31q0 16.5 8 31t22.5 23Q133 226 151 226t33-10l-43-44q-4-3-4-8.5t4-9q4-3.5 9-3.5t9 4l43 43q11-16 10-34l1-1zM19 145q-8 0-13.5 5.5t-5.5 13q0 7.5 5.5 13T19 182q8 0 13.5-5.5t5.5-13q0-7.5-5.5-13T19 145zm262 0q-8 0-13 5.5t-5 13q0 7.5 5 13t13 5.5q8 0 13.5-5.5t5.5-13q0-7.5-5.5-13T281 145zM56 88q8 1 13.5-4.5T75 70q0-8-5.5-13.5T56 51q-8 0-13 5.5T38 70q0 8 5 13.5T56 89v-1zm188 150q-8 1-13.5 6t-5.5 13q0 8 5.5 13.5T244 276q8 0 13.5-5.5t5-13.5q-.5-8-5.5-13.5t-13-4.5v-1zm-188 0q-8 0-13 5.5T38 257q0 8 5 13.5t13 5.5q8 0 13.5-5.5T75 257q0-8-5.5-13.5T56 239v-1zM244 88q8 1 13.5-4.5t5-13.5q-.5-8-5.5-13.5T244 51q-8 0-13.5 5.5T225 70q0 8 5.5 13.5T244 89v-1z"/></svg>