<svg viewBox="0 0 300 302.0011" xmlns="http://www.w3.org/2000/svg"><path d="M233 13L81 165q-9 9-14 20.5T63 209v17q0 5 3.5 8.5T75 238h17q12 1 23.5-4t20.5-14L288 68q12-12 12-28t-11.5-27Q277 2 261 2t-28 11zm38 37L118 203q-11 10-26 10h-4v-4q0-15 10-26L251 30q4-4 10-4t10 4q4 4 4 10t-4 10zm17 63q-6 0-9.5 4t-3.5 9v62h-50q-16 0-26.5 11T188 226v50H63q-16 0-27-11t-11-26V63q0-15 11-26t26-11h114q5 0 8.5-3.5t3.5-9q0-5.5-3.5-9T176 1H63Q46 1 31.5 9.5t-23 23Q0 47 0 63v175q0 17 8.5 31.5t23 23Q46 301 62 301h142q13 0 24.5-4.5T248 283l34-34q9-8 13.5-19.5T300 205v-79q0-5-3.5-9t-8.5-4zm-57 152q-8 8-19 10v-49q1-5 4.5-8.5t8.5-3.5h49q-2 10-10 18l-33 33z"/></svg>