<svg viewBox="0 0 300 302.0011" xmlns="http://www.w3.org/2000/svg"><path d="M124 207q2 7-2 13t-12 6H87q-7 0-11.5-6T73 207l10-32q1-5 5.5-8.5t10-3.5q5.5 0 10 3.5t6.5 8.5l9 32zm151-75v106q0 17-8.5 31.5t-23 23Q229 301 212 301H88q-17 0-31.5-8.5t-23-23Q25 255 25 238V63q0-16 8.5-30.5t23-23Q71 1 87 1h57q17 0 33 6.5T206 27l43 43q13 13 19.5 29t6.5 33zm-87-88q-6-6-13-10v54q0 6 3.5 9.5t9.5 3.5h54q-4-7-10-13l-44-44zm62 88v-6h-62q-16 0-27-11t-11-26V26h-37v12q-1 6-4.5 9.5T100 51q-5 0-9-3.5T87 38V26q-15 0-26 11T50 64v174q0 16 11 27t27 11h125q15 0 26-11t11-27V132zm-150-31q5 0 9-3.5t4-9.5V76q-1-5-4.5-8.5T100 64q-5 0-9 3.5T87 76v12q1 6 4.5 9.5t8.5 3.5zm0 50q5 0 9-3.5t4-9.5v-12q-1-5-4.5-8.5T100 114q-5 0-9 3.5t-4 8.5v12q1 6 4.5 9.5t8.5 3.5z"/></svg>