<svg viewBox="0 0 300.0036 302.0011" xmlns="http://www.w3.org/2000/svg"><path d="M238.004 26q0-10 7-17.5t17.5-7.5q10.5 0 18 7.5t7.5 17.5q0 10-7.5 17.5t-18 7.5q-10.5 0-17.5-7.5t-7-17.5zm-200 25q10 0 17.5-7.5t7.5-17.5q0-10-7.5-17.5t-18-7.5q-10.5 0-17.5 7.5t-7 17.5q0 10 7 17.5t18 7.5zm262 39q-4-12-14-19.5t-22-7.5h-15q1 7 1 13 0 12-3 25h45q4 0 6.5-3.5t1.5-7.5zm-250-14q0-6 1-12h-15q-12 0-22 7.5T.004 91q-1 4 1.5 7t6.5 3h45q-3-13-3-25zm100 0q8 0 13.5-5.5t5.5-13.5q0-8-5.5-13.5t-13.5-5q-8 .5-13.5 5.5t-5.5 13q0 8 5.5 13.5t13.5 5.5zm125 212q0 5-3.5 9t-8.5 4q-5 0-9-3.5t-4-8.5q-1-11-7.5-20t-16.5-13l-55-18q-4-1-6-4.5t-2-7.5v-61q0-5-3-9t-8.5-5q-5.5-1-10 3t-3.5 9v94q0 5-3 10t-8.5 7.5q-5.5 2.5-11 2t-9.5-4.5l-23-18q-3-3-8.5-3t-9 4q-3.5 4-3 9t3.5 9l8 7q3 3 3 8.5t-3.5 9q-3.5 3.5-8.5 3.5t-9-3l-7-7q-11-11-11.5-26.5t10-26.5q10.5-11 25.5-12t26 9l13 11v-82q0-11 6-20-19-9-31-27.5t-12-39.5q0-21 10-38.5t27.5-27.5q17.5-10 37.5-10t37.5 10q17.5 10 27.5 27.5t10 38.5q0 21-12 39.5t-32 27.5q6 10 6 21v52l47 16q18 6 29 21t12 34zm-175-212q0 21 15 36 4-11 13.5-17.5t21.5-6.5q12 0 21 6.5t14 17.5q15-15 15-36t-14.5-35.5q-14.5-14.5-35.5-14.5t-35.5 14.5q-14.5 14.5-14.5 35.5z"/></svg>