<svg viewBox="0 0 300 302.0011" xmlns="http://www.w3.org/2000/svg"><path d="M150 251q34 0 62.5-17t45.5-45.5q17-28.5 17-62.5t-17-62.5Q241 35 212.5 18T150 1q-34 0-62.5 17T42 63.5Q25 92 25 126t17 62.5Q59 217 87.5 234t62.5 17zm0-225q27 0 50 13.5T236.5 76Q250 99 250 126t-13.5 50Q223 199 200 212.5T150 226q-27 0-50-13.5T63.5 176Q50 153 50 126t13.5-50Q77 53 100 39.5T150 26zm150 231q0 18-13 31t-31 13H44q-18 0-31-13T0 257q0-10 4.5-19.5T17 222q5-3 10-2t8 5q3 4 2.5 9t-5.5 8q-7 6-7 14.5t5.5 14Q36 276 44 276h212q8 0 13.5-5.5t5.5-14q0-8.5-7-14.5-5-3-5.5-8t2.5-9q3-4 8-5t10 2q8 7 12.5 16t4.5 19zM175 151q0-4-2.5-6.5T167 141l-38-6q-13-2-21-11.5t-8-22.5q0-16 11-26.5T137 64V51q1-5 4.5-9t8.5-4q5 0 9 4t3 9v12h4q10 0 18.5 5.5T198 82q3 5 1.5 10t-6 7.5q-4.5 2.5-9.5 1t-8-7q-3-5.5-10-4.5h-28q-6-1-9.5 3t-3.5 8.5q0 4.5 2.5 7t5.5 3.5l38 6q13 2 21 11.5t8 22.5q0 16-11 26.5T163 188v13q0 5-4 9t-9 3.5q-5-.5-8.5-4T138 201v-13h-4q-10 0-18.5-5T102 170q-3-5-1.5-10t6-7.5q4.5-2.5 9.5-1t8 6.5q3 5 10 6h29q5-1 8.5-4.5t3.5-8.5z"/></svg>