<svg viewBox="0 0 300 302.0011" xmlns="http://www.w3.org/2000/svg"><path d="M182 251h0zm34-74q13 14 12 32t-14.5 30Q200 251 182 251q-27-1-58-19-11-6-11.5-18t8.5-19q19-14 30-20 19-11 33-11 19-1 32 13zm-18 17q-5-6-13.5-6t-22.5 9q-8 4-22 15 11 6 18 9 11 4 22 5 9 0 16-4.5t7.5-13q.5-8.5-5.5-14.5zM300 79q0 4-2.5 7.5T291 92l-34 13q-4 10-11 18 15 17 27 38 14 27 14 49 0 28-14 50-12 19-33.5 30T195 301h-87q-31 0-55-12.5T15 253Q1 230 0 201q0-11 2-29.5T7 142q2-6 7-10.5t12-5.5q7-1 13 2t10 9l3 6q11 20 16 21 10-1 27-13.5t33-29.5q-15-20-16-45 0-20 10.5-37.5T150 11q17-10 37-10 26 0 45.5 15T259 55l32 11q4 2 6.5 5.5T300 79zm-162-3q0 21 14.5 35.5t35 14.5q20.5 0 35.5-14.5T238 76q0-21-15-35.5T187.5 26q-20.5 0-35 14.5T138 76zm89 64q-18 11-40 11t-41-13q-17 19-34 31-25 19-44 19-13 0-24-12-6-6-14-22-3 10-4 24.5T25 201q1 33 24 54t59 21h87q15 0 30-6 16-8 26-21 11-17 11-39 0-17-12-39-10-18-23-31z"/></svg>