<svg viewBox="0 0 300 302.0011" xmlns="http://www.w3.org/2000/svg"><path d="M115 81q32-38 77.5-59T287 1q6 0 9.5 3.5t3.5 9q0 5.5-3.5 9T288 26q-45 0-85 18.5T135 97q-5 6-12.5 4.5T113 93q-2-7 2-12zm173 20q-27 0-51.5 11T194 143q-3 4-2.5 9t4 8.5q3.5 3.5 8.5 3t9-4.5q14-16 33.5-24.5T287 126q6 0 9.5-3.5t3.5-9q0-5.5-3.5-9T288 101zm0-50q-36 0-69 14t-58 40q-3 4-3 9t3.5 8.5q3.5 3.5 9 3.5t8.5-4q21-22 49.5-34T287 76q6 0 9.5-3.5t3.5-9q0-5.5-3.5-9T288 51zm-65 202q-4 17-16.5 29.5T177 299q-7 2-13 2H74q-22 1-31 0-16-2-26-9T2 269q-5-16 2-31t23-22q-6-29 9-53.5t42.5-33q27.5-8.5 53.5 4t37 38.5q1 3 2.5 4t5.5 2h2q16 4 27.5 16t16 27.5q4.5 15.5.5 31.5zm-51-51q-8-1-15-6.5T146 182q-7-18-24.5-26t-36-2.5Q67 159 57 175.5T51 211q2 9-2 17t-11.5 11q-7.5 3-10.5 9t-1.5 12.5q1.5 6.5 6.5 11t12 4.5h119q4 0 8-1 11-2 18-9.5t10-17.5q4-15-4-28.5T172 202zm116-51q-18 0-34 8t-26 22q-4 4-3 9t5 8.5q4 3.5 9 2.5t9-5q7-9 17.5-14.5T287 176q6 0 9.5-3.5t3.5-9q0-5.5-3.5-9T288 151z"/></svg>