<svg viewBox="0 0 300 302.0011" xmlns="http://www.w3.org/2000/svg"><path d="M238 38h-38q-3 0-6-1l-39-20q-8-3-17-3h-25q-17 0-31.5 8t-23 22.5Q50 59 50 76v100q0 17 8.5 31.5t23 22.5q14.5 8 30.5 8h126q16 0 30.5-8t23-22.5Q300 193 300 176v-75q0-17-8.5-31.5t-23-23Q254 38 238 38zm-125 0h25q3 0 6 2l39 20q8 3 17 3h38q12 0 21.5 7T273 88H75V76q0-16 11-27t26-11h1zm125 175H113q-16 0-27-10.5T75 176v-63h200v63q0 16-11 27t-27 10h1zm12 63q0 5-3.5 8.5T238 288H63q-17 0-31.5-8t-23-22.5Q0 243 0 226V101q0-5 3.5-9t9-4q5.5 0 9 4t3.5 9v125q0 16 11 27t27 11h175q5-1 8.5 3t3.5 9z"/></svg>