<svg viewBox="0 0 300 302.0011" xmlns="http://www.w3.org/2000/svg"><path d="M213 101H88V88q-1-21 12.5-38t34-22q20.5-5 40 3.5T205 58q2 5 7 6.5t9.5-1q4.5-2.5 6-7.5t-.5-10q-15-26-42.5-38T128 3.5Q99 11 80.5 35T63 89v17q-18 8-28 23.5T25 163v75q0 17 8.5 31.5t23 23Q71 301 87 301h126q16 0 30.5-8.5t23-23Q275 255 275 239v-76q0-16-8.5-30.5t-23-23Q229 101 213 101zm37 137q0 16-11 27t-27 11H88q-16 0-27-11t-11-26v-76q0-15 11-26t26-11h126q15 0 26 11t11 26v75zm-100-62q-5 0-9 3.5t-4 9.5v24q1 6 4.5 9.5t8.5 3.5q5 0 9-3.5t4-9.5v-25q0-5-4-8.5t-9-3.5z"/></svg>