<svg viewBox="0 0 300 302.0011" xmlns="http://www.w3.org/2000/svg"><path d="M271 254l25 26q4 3 4 8.5t-3.5 9q-3.5 3.5-9 3.5t-8.5-4l-87-87q-14-5-22-17.5t-8-29.5v-25q0-21 13-35.5T208 88h3q11 0 21 6t16 16q3 5 1.5 10t-6 7.5Q239 130 234 129t-7-5q-7-11-16-11h-3q-9 0-15 7t-6 18v25q0 12 6 18.5t15 6.5h3q10 0 16-10 2-4 7-5t9.5 1.5q4.5 2.5 6 7.5t-1.5 9q-8 14-21 19l25 25q10-4 16.5-13.5T275 201V101q0-15-11-26.5T237 63H80l26 26q19 3 30 21 2 5 1 10t-5.5 7.5Q127 130 122 129t-8-5q-6-11-15-11h-4q-9 0-14.5 7T75 138v25q0 12 5.5 18.5T95 188h4q9 0 15-10 3-4 8-5t9.5 1.5q4.5 2.5 5.5 7.5t-1 9q-7 11-16.5 16.5T99 213h-4q-19 0-32-14t-13-36v-25q0-14 6.5-26T75 93L4 22q-4-3-4-8.5t3.5-9Q7 1 12.5 1T21 5l34 33h183q17 0 31 8.5t22.5 23Q300 84 300 101v100q0 16-8 30t-21 23zm-83-16H63q-16 0-27-11t-11-26V101q0-5 1-9.5t-1.5-9Q22 78 17 76.5t-9.5 1Q3 80 2 85q-2 9-2 16v100q0 17 8.5 31.5T31 255q14 8 31 8h126q5 0 8.5-3.5t3.5-8.5q0-5-3.5-9t-8.5-4z"/></svg>