<svg viewBox="0 0 300 302.0011" xmlns="http://www.w3.org/2000/svg"><path d="M296 42q-4-4-9-4t-9 4l-37 37q-3 4-3 9v138q0 5-4 9t-9 3h-25V63q0-16-8.5-30.5t-23-23Q154 1 138 1H63Q46 1 31.5 9.5t-23 23Q0 47 0 63v175q0 17 8.5 31.5t23 23Q46 301 62 301h76q18 0 33.5-10t23.5-27h30q16-1 27-11.5t11-26.5V93l33-33q4-4 4-9.5t-4-8.5zM63 26h75q15 0 26 11t11 27v49h-25q0-18-12-32l8-9q6-5 4-12t-9-9q-7-2-12 4l-12 12q-12-5-24-3.5t-22 9q-10 7.5-15.5 18T50 114H25V63q0-15 11-26t26-11h1zm12 87q0-10 7.5-17t17.5-7.5q10-.5 17.5 7T125 114l-50-1zm63 163H63q-16 0-27-11t-11-26V138h150v100q0 16-11 27t-26 11z"/></svg>