<svg viewBox="0 0 300 302.0011" xmlns="http://www.w3.org/2000/svg"><path d="M225 114q0-16-11.5-27t-27-11Q171 76 160 87L11 236Q1 247 1 262.5T12 289q11 11 26.5 11T65 290l149-149q11-11 11-27zM48 272q-4 4-9.5 4t-9.5-4q-4-4-4-9.5t4-9.5l97-97 19 19-97 97zm148-148l-33 33-19-19 33-33q6-6 13.5-4t9.5 9.5q2 7.5-4 13.5zM61 37l19-6 6-19q1-5 5-8t9-3q5 0 9 3t5 8l6 19 19 6q5 1 8 5t3 9q0 5-3 9t-8 5l-19 6-6 19q-1 5-5 8t-9 3q-5 0-9-3t-5-8l-6-19-19-6q-5-1-8-5t-3-9q0-5 3-9t8-5zm228 178l-19 6-6 19q-1 5-5 8t-9 3q-5 0-9-3t-5-8l-6-19-19-6q-5-1-8-5t-3-9q0-5 3-9t8-5l19-6 6-19q1-5 5-8t9-3q5 0 9 3t5 8l6 19 19 6q5 1 8 5t3 9q0 5-3 9t-8 5zM222 32l17-5 5-17q1-4 4.5-6.5t8-2.5q4.5 0 8 2.5T269 10l5 17 17 5q4 1 6.5 4.5t2.5 8q0 4.5-2.5 8T291 57l-17 5-5 17q-1 4-4.5 6.5t-8 2.5q-4.5 0-8-2.5T244 79l-5-17-17-5q-4-1-6.5-4.5t-2.5-8q0-4.5 2.5-8T222 32z"/></svg>