<svg viewBox="0 0 300 302.0011" xmlns="http://www.w3.org/2000/svg"><path d="M299 173L281 54q-3-22-21-37.5T219 1h-19q-5 0-9 3.5t-3.5 9q.5 5.5 4 9T200 26h19q14 0 24.5 9T256 58l16 105h-47q-15 0-28 7t-22 19h-50q-9-12-22-18.5T75 164H28L44 58q2-14 12.5-23T81 26h19q5 0 8.5-3.5t4-9q.5-5.5-3.5-9T100 1H81Q58 1 40 16.5T19 54L1 173q-1 8-1 17v48q0 17 8.5 31.5t23 23Q46 301 63 301h12q17 0 31.5-8.5t22.5-23q8-14.5 8-31.5v-12q1-6-1-13h28q-1 7-2 13v12q0 17 8.5 31.5t23 23Q208 301 225 301h13q16 0 30.5-8.5t23-23Q300 255 300 238v-48q0-9-1-17zm-186 65q0 16-11 27t-27 11H63q-16 0-27-11t-11-27v-49h50q15-1 26 10t11 27v12h1zm162 0q0 16-11 27t-27 11h-12q-16 0-26.5-11T188 238v-12q0-16 10.5-27t26.5-11h50v50z"/></svg>