<svg viewBox="0 0 300 302.0011" xmlns="http://www.w3.org/2000/svg"><path d="M288 226q5 0 8.5-3.5t3.5-9q0-5.5-3.5-9T288 201h-19l-7-25q16 0 27-11t11-26q0-6-3.5-9.5t-9-3.5q-5.5 0-9 3.5t-3.5 9-3.5 9Q268 151 262 151h-8q-6-11-17.5-18t-25-7q-13.5 0-25.5 8.5T169 157l-13 44h-19q-5 0-8.5 3.5t-3.5 9q0 5.5 3.5 9t8.5 3.5h13q0 13 6 26-14 2-22.5 12.5T125 288q0 6 3.5 9.5t9 3.5q5.5 0 9-3.5t3.5-9 3.5-9q3.5-3.5 8.5-3.5h13q17 12 37.5 12t37.5-12h12q6 0 9.5 3.5t3.5 9 3.5 9q3.5 3.5 9 3.5t9-3.5q3.5-3.5 3.5-9.5 0-13-8.5-23.5T269 252q6-13 6-26h13zm-113 0v-3l17-58q3-6 8.5-10t12-4q6.5 0 12 3.5t7.5 9.5l18 59v3q0 16-11 27t-26.5 10.5q-15.5-.5-26.5-11T175 226zm-25-125h13q5 0 8.5-3.5t3.5-9q0-5.5-3.5-9T163 76h-19l-7-25h1q15 0 26-11t11-27q0-5-3.5-8.5t-9-3.5q-5.5 0-9 3.5t-3.5 9-3.5 9Q143 26 137 26h-8q-6-11-17.5-18t-24-7Q75 1 64 7.5T46 26h-8q-6 0-9.5-3.5t-3.5-9-3.5-9Q18 1 12.5 1t-9 3.5Q0 8 0 14q0 15 11 26t27 11l-7 25H13q-6 0-9.5 3.5t-3.5 9q0 5.5 3.5 9T13 101h12q0 13 6 26-14 2-22.5 12.5T0 164q0 5 3.5 8.5t9 3.5q5.5 0 9-3.5t3.5-9 3.5-9Q32 151 37 151h13q17 12 38 13 16 0 30.5-8.5t23-23Q150 118 150 101zM88 26q6 0 11.5 3.5T107 39l18 59v3q0 16-11 26.5t-26.5 11Q72 139 61 128t-11-27v-3l17-58q3-6 8.5-10T88 26z"/></svg>