<svg viewBox="0 0 300 302.0011" xmlns="http://www.w3.org/2000/svg"><path d="M285 16q-9-10-21.5-13.5T238 2q-49 13-92.5 37.5T66 99q-15 15-22 34t-6 39q1 30 19 54L4 280q-6 5-4 12t9 9q7 2 12-4l54-53q25 20 57 19 21 0 40.5-8t33.5-23q25-25 47-63 17-29 31-63 10-26 15-43 3-13-.5-25.5T285 16zM63 171q-1-15 4.5-29T83 117q7-7 17-15v81l-25 25q-11-17-12-37zm125 43q-18 20-45 23.5T93 226l62-63h72q-17 28-39 51zm86-157q-11 42-32 82h-62l41-42q6-5 4-12t-9-9q-7-2-12 4l-79 78V82q55-38 119-55 3-1 6-1 10 0 18 7 4 5 6 11t0 13z"/></svg>