<svg viewBox="0 0 300 302.0011" xmlns="http://www.w3.org/2000/svg"><path d="M169 163q0-5-4-8.5t-9-3.5h-18q-6 0-9.5-3.5t-3.5-9q0-5.5 3.5-9t9.5-3.5h12q5 0 8.5-3.5t4-9q.5-5.5-3.5-9t-9-3.5h-25q-5 0-9-3.5t-3.5-9q.5-5.5 4-9T125 76h25q16 0 26.5 11t10.5 26q1 12-6 22 13 12 13 28t-11 27q-11 11-27 11h-31q-5 0-9-3.5t-3.5-9q.5-5.5 4-9t8.5-3.5h31q5 0 9-3.5t4-8.5v-1zm130 8q-3-10-13-14 6-6 8-13 9-24 4-61-2-11-12-16-5-2-11-2 1-11-4-21-10-22-37-40-9-6-19.5-1.5T202 18q-3 18-1 35 2 25 14 46 6 44-4 80-8 25-22 41-10 11-20 17t-19 8q-9-2-19.5-8T111 220q-14-16-22-41-10-35-4-80 12-21 14-46 2-17-1-35Q96 7 85.5 2.5T66 4Q39 22 29 44q-5 10-4 21-6 0-11 2Q4 72 2 83q-6 36 4 61 2 7 8 13-10 4-13 14t2 19q4 6 12.5 14T35 219l-2 1q-9 8-8 20t10 18q16 12 37 17-1 7 3 13 6 11 18 12 34 4 57-6 17 7 40 7 8 0 17-1 12-1 18-12 3-6 3-13 21-5 37-17 9-6 10-18t-8-20l-2-2q11-6 19.5-14t12.5-14q5-9 2-19zM51 55q6-14 23-26 5 35-13 63-7-10-9-18-4-12-1-19zM26 93q9 7 17 17 10 13 15 28v9l-14 2-7-5q-7-5-8-8-6-17-3-43zm0 86q16-5 36-7 3 14 8 27l-10 4q-12-5-20.5-11.5T26 179zm56 72q-9-1-17.5-4.5T50 239q10-10 31-18 5 9 12 16-6 7-11 14zm15 24q6-11 14-21 5 4 16.5 9.5T142 270q-17 8-45 5zm61-5q2-1 13.5-6.5T189 254q7 9 14 21-28 3-45-5zm68-241q16 12 22 26 4 7 0 19-2 8-9 18-18-28-13-63zm-9 222q0-1-1-3-5-8-8-11 6-7 11-16 20 8 31 17-6 5-14.5 8.5T217 251zm23-48l-10-4q5-13 8-27 20 2 36 7-5 6-14 12.5T240 203zm31-67q-1 3-8 8l-7 5-15-2 1-9q5-14 17-29 9-11 15-16 3 26-3 43z"/></svg>