<svg viewBox="0 0 300 302.0011" xmlns="http://www.w3.org/2000/svg"><path d="M175 138V63q0-15-11-26t-26-11H63q-16 0-27 11T25 64v174q0 16 11 27t27 11h75q5 0 8.5 3.5t3.5 9q0 5.5-3.5 9T138 301H63q-17 0-31.5-8.5t-23-23Q0 255 0 239V63q0-16 8.5-30.5t23-23Q46 1 63 1h75q16 0 30.5 8.5t23 23Q200 47 200 64v74q0 6-3.5 9.5t-9 3.5q-5.5 0-9-3.5T175 138zM75 163H63q-6 0-9.5 4t-3.5 9q0 5 3.5 8.5T63 188h12q5 0 9-3.5t4-8.5q0-5-4-9t-9-4zm63 0h-13q-5 0-9 4t-4 9q0 5 4 8.5t9 3.5h13q5 0 8.5-3.5t3.5-8.5q0-5-3.5-8.5T138 163zm-63 50H63q-6 1-9.5 4.5T50 226q0 5 3.5 8.5T63 238h12q5 0 9-3.5t4-8.5q0-5-4-9t-9-4zm63 0h-13q-5 1-9 4.5t-4 8.5q0 5 4 8.5t9 3.5h13q5 0 8.5-3.5t3.5-8.5q0-5-3.5-9t-8.5-4zm-38-87q5 0 9-3.5t4-9.5v-12h12q5 0 9-3.5t4-9q0-5.5-4-9t-9-3.5h-12V63q0-5-4-8.5t-9-3.5q-5 0-9 3.5T87 63v13H75q-5 0-8.5 3.5t-3.5 9q0 5.5 3.5 9T75 101h13v12q0 6 3.5 9.5t8.5 3.5zm138 100q12 0 21.5-9t9.5-22q0-13-9.5-22.5t-22-9.5q-12.5 0-22 9.5T206 195q0 13 9.5 22t22.5 9zm62 59q-6-20-23.5-33t-39-13q-21.5 0-39 13T175 285q-1 5 1.5 9.5t7.5 6.5h4q4 0 7.5-2.5t4.5-6.5q3-12 13.5-20t24-8q13.5 0 24 8t13.5 20q2 5 6.5 7.5t9.5 1q5-1.5 7.5-6t1.5-9.5z"/></svg>