<svg viewBox="0 0 300 302.0011" xmlns="http://www.w3.org/2000/svg"><path d="M63 51h2q4 11 13.5 18t21.5 7h25q12 0 21.5-7T160 51h3q12 0 22.5 8T199 79q1 5 5.5 7.5T214 88q5-1 7.5-5.5T223 73q-5-21-22-34t-38-13h-2q-4-11-14-18t-22-7h-25Q88 1 78.5 8T65 26h-2q-17 0-31.5 8.5t-23 23Q0 72 0 88v150q0 17 8.5 31.5t23 23Q46 301 63 301h37q5 0 9-3.5t4-9q0-5.5-4-9t-9-3.5H63q-16 0-27-11t-11-27V88q0-15 11-26t27-11zm37-25h25q5 0 9 3.5t4 9q0 5.5-4 9t-9 3.5h-25q-5 0-8.5-3.5t-3.5-9q0-5.5 3.5-9T100 26zm150 87h-62q-21 0-35.5 15T138 163v88q-1 21 14 35.5t36 14.5h62q21 0 35.5-14.5T300 251v-88q0-20-14.5-35T250 113zm25 138q0 10-7.5 17.5T250 276h-62q-11 0-18-7.5t-7-17.5v-88q0-10 7-17.5t18-7.5h62q10 0 17.5 7.5T275 163v88zm-25-75q0 5-3.5 8.5T238 188h-38q-5 1-8.5-3t-3.5-9q0-5 3.5-9t8.5-4h38q5 0 8.5 4t3.5 9zm0 50q0 5-3.5 8.5T238 238h-38q-5 0-9-3.5t-4-8.5q0-5 4-8.5t9-3.5h38q5-1 8.5 3t3.5 9z"/></svg>