<svg viewBox="0 0 300 302.0011" xmlns="http://www.w3.org/2000/svg"><path d="M248 56q-23-30-57.5-44.5T118 2Q87 7 61.5 24t-42 44Q3 95 1 126q-3 26 4.5 50.5T28 222q10 12 10 29v12q0 16 10.5 27T75 301h88q15 0 26-11t11-27h6q24 0 41.5-15.5T268 209l3-21h4q11 0 18-7.5t7-17.5q0-12-20-51.5T248 56zm-110 57q10 1 17.5 8t7.5 17.5q0 10.5-7.5 18t-18 7q-10.5-.5-18-7.5t-7-17.5q.5-10.5 7.5-18t18-7.5zm122 50q-5 0-8.5 3.5T248 174l-5 32q-1 14-12 23t-25 9h-18q-6 0-9.5 4t-3.5 9v12q0 6-3.5 9.5T162 276H75q-5 0-8.5-3.5T63 263v-12q-1-25-15-44-13-17-18.5-37.5T25 128q3-25 16-47t34-36q21-14 47-18h3v63q-16 4-27 17.5T87 138q1 21 15.5 35.5t35 14.5q20.5 0 35.5-14.5t15-35.5q0-17-11-30.5T150 90V27q23 2 43 13.5T228 72q11 14 28.5 48t18.5 44h-15v-1z"/></svg>