<svg viewBox="0 0 300 302.0011" xmlns="http://www.w3.org/2000/svg"><path d="M293 89q-16-16-34-26 8-7 12-16.5t4-20.5q0-5-3.5-9t-9-4q-5.5 0-9 4t-3.5 9q0 10-7.5 17.5T225 51h-6q-13 0-22.5-9T187 20v-7q0-5-3.5-8.5T175 1q-5 0-9 3.5t-4 9.5v6q0 17 10 31h-16q-13 0-22-9t-9-22v-7q0-5-3.5-8.5t-9-3.5q-5.5 0-9 3.5T100 14v6q0 23 16.5 39.5T156 76h17q-6 8-8.5 17t-2.5 15v12q0 2-1.5 4t-4.5 2H77q-22 0-37 15L3 180q-3 4-3 9t3.5 8.5q3.5 3.5 9 3.5t9.5-4l4-4q1 11 8 29l3 12v29q0 16 11 27t26.5 11q15.5 0 26.5-11t11-27v-12h38v12q0 16 11 27t26.5 11q15.5 0 26.5-11t11-27v-26q9-11 15-25 10-21 10-44v-25l26-3q10-1 17-8.5t7-18.5q0-17-7-24zm-20 27l-26 3q-9 1-15.5 8t-6.5 16v25q0 21-10 40-6 9-11 15-4 4-4 9v31q0 6-3.5 9.5t-9 3.5q-5.5 0-9-3.5T175 263v-25q0-5-3.5-8.5T163 226h-63q-5 0-8.5 3.5T87 239v24q1 6-3 9.5t-9 3.5q-5 0-8.5-3.5T63 263v-31l-1-3-5-15q-3-11-5-16-2-9-2-20t8-19q8-8 19-8h79q13 0 22.5-9t9.5-22v-12q0-9 4-17 9-15 31-15 10 0 24.5 9t26.5 21q1 3 1 8 0 1-2 2z"/></svg>