<svg viewBox="0 0 300 302.0011" xmlns="http://www.w3.org/2000/svg"><path d="M263 224l-47-47 5-5q19-20 25.5-45.5t0-51.5Q240 49 221 30q-15-14-33-21.5T150.5 1Q131 1 113 8T81 28.5Q67 42 59.5 60t-8 39q-.5 21 7.5 40.5T82 174l1 2-47 47q-11 11-11 26.5T36 277l14 13q11 11 26.5 11t26.5-11l47-48 47 48q11 11 26.5 11t26.5-11l13-12q11-11 11.5-27T263 224zm-38-123q0 15-5.5 28.5T203 154l-5 5-29-29q17-15 28-29 16-21 16-38l-1-4q13 19 13 42zm-75-75q16 0 26.5 11T187 64q1 8-12 23-10 13-25 26-15-13-25-26-12-15-12-23 0-16 10.5-27T150 26zM85 273q-4 3-9 3t-9-3l-13-14q-4-4-4-9t4-9l47-48 31 32-47 48zm161-13l-13 12q-4 4-9 4t-9-4L100 157q-12-12-18-27t-6-31q1-22 12-39v3q0 21 23 47 13 15 31 28l104 104q3 4 3 9t-3 9z"/></svg>