<svg viewBox="0 0 300 302.0011" xmlns="http://www.w3.org/2000/svg"><path d="M113 176h75q5 0 8.5-3.5t3.5-9q0-5.5-3.5-9T188 151h-75q-6 0-9.5 3.5t-3.5 9q0 5.5 3.5 9t9.5 3.5zM238 1H63Q46 1 31.5 9.5t-23 23Q0 47 0 63v13q0 17 13 28v134q0 17 8 31.5t22.5 23Q58 301 75 301h150q17 0 31.5-8.5t22.5-23q8-14.5 9-30.5V104q12-11 12-28V63q0-16-8.5-30.5t-23-23Q254 1 238 1zM25 63q0-15 11-26t26-11h176q15 0 26 11t11 27v12q0 5-3.5 8.5T263 89H38q-6-1-9.5-4.5T25 76V63zm238 175q0 16-11 27t-27 11H75q-16 0-27-11t-11-26V113h226v125z"/></svg>