<svg viewBox="0 0 300 302.0011" xmlns="http://www.w3.org/2000/svg"><path d="M125 120q0 8-5.5 13.5t-13.5 5q-8-.5-13-5.5t-5-13q0-8 5-13.5t13-5.5q8 0 13.5 5.5T125 120zm69-19q-8 0-13.5 5.5T175 120q0 8 5.5 13.5t13.5 5q8-.5 13.5-5.5t5.5-13q0-8-5.5-13.5T194 101zm106 50q0 41-20 75.5T225.5 281Q191 301 150 301q-57-2-95-33-35-29-47.5-73t0-88Q20 63 55 34 93 3 150 1q41 0 75.5 20T280 75.5q20 34.5 20 75.5zm-25 0q0-34-17-62.5T212.5 43Q184 26 150 26q-47 2-79 28-30 23-40 60t0 74q10 37 40 60 32 26 79 28 34 0 62.5-17t45.5-45.5q17-28.5 17-62.5z"/></svg>