<svg viewBox="0 0 300 302.0011" xmlns="http://www.w3.org/2000/svg"><path d="M263 276H113q-7 0-11-6t-1-12l13-25q15 5 31 5h92q18 0 29-13t8-30q-2-14-13-23t-25-9h-91q-4 0-7.5-2.5T133 154l-8-28h113q5 0 8.5-3.5t3.5-9q0-5.5-3.5-9T238 101H118L99 30Q95 16 83 7.5T57 1Q40 4 31 17.5T26 48l34 126q8 29 32 47l-13 26q-4 9-4 18.5t5.5 18q5.5 8.5 14 13T113 301h150q5 0 8.5-3.5t3.5-9q0-5.5-3.5-9T263 276zM50 41q-1-5 2.5-10t9.5-5q4 0 8 3t5 8l34 124q3 12 13 19.5t23 7.5h91q5 0 9 3t5 8.5q1 5.5-3 9.5t-9 4h-93q-21 0-38-12.5T85 167L50 41z"/></svg>