<svg viewBox="0 0 300 302.0011" xmlns="http://www.w3.org/2000/svg"><path d="M238 1H63Q46 1 31.5 9.5t-23 23Q0 47 0 64v174q0 17 8.5 31.5t23 23Q46 301 63 301h175q16 0 30.5-8.5t23-23Q300 255 300 238V63q0-16-8.5-30.5t-23-23Q254 1 237 1h1zm37 237q0 16-11 27t-27 11H63q-16 0-27-11t-11-27V63q0-15 11-26t27-11h175q15 0 26 11t11 27v174zm-37-137q0 5-4 9t-9 4H125v12q0 5-3.5 9t-9 3.5q-5.5-.5-9-4T100 126v-13H75q-5 0-8.5-3.5t-4-8.5q-.5-5 3.5-9t9-4h25V76q0-5 3.5-9t9-4q5.5 0 9 4t3.5 9v12h100q5 1 9 4.5t4 8.5zm0 100q0 5-4 9t-9 4h-25v12q0 5-3.5 8.5t-9 3.5q-5.5 0-9-3.5T175 226v-13H75q-5 1-8.5-3t-4-9q-.5-5 3.5-9t9-4h100v-12q0-5 3.5-9t9-4q5.5 0 9 4t3.5 9v12h25q5 0 9 4t4 9z"/></svg>