<svg viewBox="0 0 300 302.0011" xmlns="http://www.w3.org/2000/svg"><path d="M285 216L85 16Q74 5 59.5 2T31 5Q17 11 8.5 23.5T0 51v187q0 17 8.5 31.5t23 23Q46 301 63 301h187q15 0 27.5-8.5T296 270q6-14 3-28.5T285 216zm-12 45q-3 7-9 11t-14 4H63q-16 0-27-11t-11-27V51q0-8 4-14t11-9q5-2 10-2 10 0 18 7l20 21-24 23q-4 4-4 9t4 9q4 4 9 4t9-4l23-24 19 19-24 23q-4 4-4 9t4 9q4 4 9 4t9-4l23-24 18 18-24 24q-3 3-3 8.5t3.5 9q3.5 3.5 8.5 3.5t9-4l24-23 17 17-23 24q-4 4-4 9t3.5 8.5q3.5 3.5 9 3.5t8.5-3l24-24 18 18-24 23q-4 4-4 9t4 9q4 4 9 4t9-4l23-24 21 20q5 6 6.5 13t-1.5 15zm-139-56q3 2 3.5 6t-1 7.5Q135 222 132 224t-7 2H88q-6 0-9.5-3.5T75 213v-37q0-4 2-7t5.5-4.5q3.5-1.5 7.5-1t6 3.5l38 38z"/></svg>