<svg viewBox="0 0 300 302.0011" xmlns="http://www.w3.org/2000/svg"><path d="M294 28l-9-6Q254 1 216 1h-60q-18 0-30.5 13T113 45v35q-29 11-46 36.5T50 172v66q0 17 8.5 31.5t23 23Q96 301 113 301h75q16 0 30.5-8.5t23-23Q250 255 250 238v-66q0-30-17-55.5T188 80V26h28q30 0 55 17l10 6q4 3 9 2t8-5.5q3-4.5 2-9.5t-6-8zM138 45q0-8 5-13.5t13-5.5h7v50h-25V45zm87 127v66q0 16-11 27t-26 11h-75q-16 0-27-11t-11-27v-66q0-24 14.5-44t37.5-27h46q23 7 37.5 27t14.5 44zm-37 4q5 0 8.5 3.5t3.5 9q0 5.5-3.5 9T188 201h-25v25q0 5-4 9t-9 4q-5 0-9-4t-4-9v-25h-24q-6 0-9.5-3.5t-3.5-9q0-5.5 3.5-9t9.5-3.5h25v-25q0-5 3.5-9t8.5-4q5 0 9 4t4 9v25h25z"/></svg>