<svg viewBox="0 0 300 302.0011" xmlns="http://www.w3.org/2000/svg"><path d="M238 26H125q-17 0-31.5 8.5T71 57.5Q63 72 63 88v75q0 17 8 31.5t22.5 23Q108 226 125 226h113q16 0 30.5-8.5t23-23Q300 180 300 163V88q0-16-8.5-30.5t-23-23Q254 26 238 26zM125 51h113q12 0 21.5 7T273 76H90q4-11 13.5-18t21.5-7zm113 150H125q-15 0-26-11t-11-27v-62h187v62q0 16-11 27t-26 11zm-25 62q0 6-4 9.5t-9 3.5H63q-17 0-31.5-8.5t-23-23Q0 230 0 213v-91q0-24 16-42 3-4 8-4t9 3.5q4 3.5 4.5 8.5T34 97q-9 10-9 24v92q0 16 11 27t27 11h137q5 0 9 3.5t4 8.5z"/></svg>