<svg viewBox="0 0 300 302.0011" xmlns="http://www.w3.org/2000/svg"><path d="M150 188q-5 0-9-3.5t-4-8.5V76q1-5 4.5-9t8.5-3.5q5 .5 9 4t4 8.5v100q0 5-4 8.5t-9 3.5zm10 110q22-9 42-22 31-21 49-48 24-34 24-76V87q0-20-12-36.5T232 28L154 2q-4-2-8 0L68 28q-19 6-31 22.5T25 87v65q0 37 24 71 18 26 49 49 20 14 41 25 6 3 11 4 5-1 10-3zm64-247q12 4 19 14t7 22v65q0 35-21 64-15 22-42 40-18 11-36 19-34-17-60-41-41-39-41-82V87q0-12 7-22t19-14l74-24 74 24zm-74 162q-5 0-9 4t-3.5 9q.5 5 4 8.5t8.5 3.5q5 0 9-3.5t4-8.5q0-5-4-8.5t-9-3.5v-1z"/></svg>