<svg viewBox="0 0 300 302.0011" xmlns="http://www.w3.org/2000/svg"><path d="M238 51q-11 0-20.5 4T201 66q-7 7-11 17l-6-7q-9-11-9-25V26q5 0 9-3.5t4-9q0-5.5-4-9T175 1H88q-6 0-9.5 3.5t-3.5 9q0 5.5 3.5 9T87 26v25q1 14-9 25l-50 59q-15 18-16 41v62q1 17 9 31.5t22.5 23Q58 301 75 301h113q16 0 30.5-8.5t23-23Q250 255 250 238v-64q16-4 26.5-17.5T287 126v-25q1-21-14-35.5T238 51zM38 188h131q2 1 4 2.5t2 4.5v25q0 2-2 4t-4 2H38v-38zm187 50q0 16-11 27t-26 11H75q-12 0-21.5-7T40 251h129q13 0 22-9t9-22v-25q0-13-9-22.5t-22-9.5H40q2-6 7-12l50-59q15-18 15-41V26h38v25q0 23 15 41l51 59q9 11 9 25v63-1zm38-112q-1 8-6 15t-13 9q-4-9-9-15l-22-26v-8q-1-11 6-18t18-7q11 0 18.5 7.5T263 101v25z"/></svg>