<svg viewBox="0 0 300 302.0011" xmlns="http://www.w3.org/2000/svg"><path d="M163 52V26h25q5 0 8.5-3.5t3.5-9q0-5.5-3.5-9T188 1h-75q-6 0-9.5 3.5t-3.5 9q0 5.5 3.5 9T113 26h25v26q-33 3-59.5 21.5T38 121q-14 29-12.5 61.5T44 242q17 27 45 43t61 16q33 0 61-16t45-43q17-27 18.5-59.5T262 121q-14-29-40.5-47.5T163 52zm37 145v-42q23 4 37 11 13 6 13 10t-13 10q-14 7-37 11zM50 176q0-4 13-10 14-7 37-11v42q-23-4-37-11-13-6-13-10zm75-24q12-1 25-1t25 1v48q-12 1-25 1t-25-1v-48zm25-76q13 0 25 3v48q-13-1-25-1t-25 1V79q12-3 25-3zm94 65q-21-8-44-11V90q15 8 26.5 21.5T244 141zM100 90v40q-23 3-44 11 6-16 17.5-29.5T100 90zM56 211q21 8 44 11v41q-15-9-26.5-22.5T56 211zm69 62v-48q13 1 25 1t25-1v48q-25 6-50 0zm75-11v-40q23-3 44-11-6 16-17.5 29.5T200 262z"/></svg>