<svg viewBox="0 0 300 302.0011" xmlns="http://www.w3.org/2000/svg"><path d="M225 1q-20 0-37.5 10T160 38.5Q150 56 150 76t10 37.5q10 17.5 27.5 27.5t37.5 10q20 0 37.5-10t27.5-27.5Q300 96 300 76t-10-37.5Q280 21 262.5 11T225 1zm35 111q-5-11-14-17t-21-7q-12 1-21 7t-14 17q-15-15-15-36t14.5-35.5Q204 26 225 26t35.5 14.5Q275 55 275 76t-15 36zm-16-55q0 8-5.5 13.5T225 76q-8 0-13.5-5.5T206 57q0-8 5.5-13.5t13.5-5q8 .5 13.5 5.5t5.5 13zm-48 122q-9-9-22.5-9t-22.5 9l-18 18-21 22q-7 6-15.5 6.5t-15-5Q75 215 75 206t6-15l41-41q9-10 9-22.5t-9-22.5l-8-8q-9-9-22.5-9T69 97l-41 41q-18 19-24.5 43.5t0 49Q10 255 28 273q14 14 31.5 21t36 7q18.5 0 36-7t31.5-21l23-23 18-18q9-10 9-22.5t-9-22.5l-8-8zm-22 16q2 0 4 2l8 8q2 2 2 4.5t-2 4.5l-9 9-17-17 9-9q2-2 5-2zm-82-82q2 0 4 2l8 8q2 2 2 4.5t-2 4.5l-9 9-17-17 9-9q2-2 5-2zM46 255q-14-13-18.5-31t0-36Q32 170 46 156l14-15 18 18-15 14q-6 7-9.5 15.5T50 206q1 20 15 32.5t32.5 12Q116 250 129 236l13-13 18 18-15 14q-14 14-32 18.5t-36 0Q59 269 46 255z"/></svg>