<svg viewBox="0 0 300 302.0011" xmlns="http://www.w3.org/2000/svg"><path d="M150 38q0-5 3.5-8.5T162 26h38q8 0 11.5 7T210 46l-22 30h12q5 0 9 3.5t4 9q0 5.5-4 9t-9 3.5h-37q-8 0-11.5-7t.5-13l23-30h-12q-6 0-9.5-3.5T150 38zm100-12h13l-23 30q-5 6-1.5 13t11.5 7h38q5 0 8.5-3.5t3.5-9q0-5.5-3.5-9T288 51h-13l23-30q4-6 .5-13T287 1h-37q-5 0-9 3.5t-3.5 9q.5 5.5 4 9T250 26zm-50 125q-8 0-15-8-3-4-8.5-4.5t-9.5 3q-4 3.5-4.5 8.5t3.5 9q14 17 33 17h1q9 0 18.5-4.5T235 159q3-4 2.5-9t-4-8.5q-3.5-3.5-9-3T216 143q-7 8-16 8zm79-50q-5 2-7.5 6.5T270 117q5 17 5 34 0 34-17 62.5T212.5 259Q184 276 150 276t-62.5-17Q59 242 42 213.5T25 151q0-28 11.5-52.5t32-42.5Q89 38 116 31q5-2 7.5-6.5t1-9.5q-1.5-5-6-7.5T109 7q-32 9-56.5 30T14 88Q0 118 0 151q0 41 20 75.5T74.5 281q34.5 20 75.5 20t75.5-20q34.5-20 54.5-54.5t20-75.5q0-21-6-41-1-5-5.5-7.5T279 101zM125 226q0 10 7.5 17.5T150 251q10 0 17.5-7.5T175 226q0-10-7.5-17.5T150 201q-10 0-17.5 7.5T125 226zm-9-83q-7 8-16 8-8 0-15-8-3-4-8.5-4.5t-9.5 3q-4 3.5-4.5 8.5t3.5 9q14 17 33 17h1q9 0 18.5-4.5T135 159q3-4 2.5-9t-4-8.5q-3.5-3.5-9-3T116 143z"/></svg>