<svg viewBox="0 0 300 302.0011" xmlns="http://www.w3.org/2000/svg"><path d="M250 76h-62q-14 0-25 7V26h12q5 0 9-3.5t4-9q0-5.5-4-9T175 1H63q-6 0-9.5 3.5t-3.5 9q0 5.5 3.5 9T62 26h13v125H25v-13q0-5-3.5-8.5t-9-3.5q-5.5 0-9 3.5T0 138v113q0 5 3.5 8.5t9 3.5q5.5 0 9-3.5T25 251v-13h113v13q0 21 14.5 35.5T188 301h62q21 0 35.5-14.5T300 251V126q0-21-14.5-35.5T250 76zM25 176h50v37H25v-37zm75 37V26h38v187h-38zm150 63h-62q-11 0-18-7.5t-8-17.5V126q1-10 8-17.5t17-7.5h63q10 0 17.5 7.5T275 126h-75q-5 0-8.5 3.5t-4 9q-.5 5.5 3.5 9t9 3.5h75v25h-75q-5 0-8.5 3.5t-4 9q-.5 5.5 3.5 9t9 3.5h75v25h-75q-5 0-8.5 3.5t-4 9q-.5 5.5 3.5 9t9 3.5h75q0 10-7.5 17.5T250 276z"/></svg>