<svg viewBox="0 0 300 302.0011" xmlns="http://www.w3.org/2000/svg"><path d="M225 57q0 8-5.5 13.5T206 76q-8 0-13.5-5.5T187 57q0-8 5.5-13.5t13.5-5q8 .5 13.5 5.5t5.5 13zm74 150q0 3-2 5t-4.5 1.5q-2.5-.5-4-2T286 208q-3-23-12-45-15-35-40-57-7 4-13 6-5 1-6.5 5t-1.5 9v15q0 30-16 56t-41 40l6 50q1 5-2 9t-8 5q-13 0-14-11l-6-42q-9 2-18 3h-8l-11-1 5 37q1 5-2.5 9t-9 4.5q-5.5.5-9-2.5t-4.5-8l-6-46q-21-8-37.5-24T7 182q-8-22-7-45 2-26 17.5-49t40-36Q82 39 110 39h10q25-1 47-22 5-5 10-8 14-9 31-8t30 10q11 7 17 18t7 23.5q1 12.5-3 24.5 15 22 25 49 14 39 15 81zM237 55q-1-15-13-24-7-5-16.5-5T190 30q-3 2-6 5-29 29-64 29h-10q-21 0-40 10t-31 27.5Q27 119 25.5 138t4.5 35.5q6 16.5 18.5 29t29 18.5q16.5 6 35.5 4.5t36.5-13.5q17.5-12 27.5-31t10-40v-15q0-14 7.5-24.5T214 87q8-2 14-8 11-10 9-24z"/></svg>