<svg viewBox="0 0 300 302.0011" xmlns="http://www.w3.org/2000/svg"><path d="M88 176q20 0 35-14.5t15-35.5q0-21-15-35.5T87.5 76q-20.5 0-35 14.5T38 126q0 21 14.5 35.5T87 176h1zm0-75q10 0 17.5 7.5T113 126q0 10-7.5 17.5t-18 7.5Q77 151 70 143.5T63 126q0-10 7-17.5t18-7.5zm87 187q0 6-3.5 9.5t-9 3.5q-5.5 0-9-3.5T150 288q0-16-8.5-30.5t-23-23q-14.5-8.5-31-8.5t-31 8.5q-14.5 8.5-23 23T25 288q0 6-3.5 9.5t-9 3.5q-5.5 0-9-3.5T0 288q0-23 12-43t32-32q20-12 43.5-12t43.5 12q20 12 32 32t12 43zM300 63v100q0 17-8.5 31.5t-23 23Q254 226 238 226h-50q-6 0-9.5-3.5T175 213v-25q0-5 3.5-8.5t9.5-3.5h37q5 0 9 3.5t4 9.5v12q15 0 26-11t11-26V63q0-15-11-26t-27-11H118q-10 0-18.5 5T86 45q-3 4-8 5.5t-9.5-1Q64 47 63 42t1-10q9-14 23.5-22.5T118 1h120q16 0 30.5 8.5t23 23Q300 47 300 63z"/></svg>