<svg viewBox="0 0 300 302.0011" xmlns="http://www.w3.org/2000/svg"><path d="M31 44q0-6 6-8l17-7 6-16q2-6 8.5-6t8.5 6l7 16 16 7q6 2 6 8.5t-6 8.5l-16 7-7 16q-2 6-8.5 6T60 76l-7-16-16-7q-6-3-6-9zm269 244q0 6-3.5 9.5T288 301H82q-9 0-11-1-29-3-49-21-22-19-22-47 0-17 7-35 4-10 15-27 8-13 11-19 5-10 5-19 0-14-6.5-21.5T11 101q-5-1-8.5-5T0 87q1-5 5-8.5t9-2.5q24 3 36 17.5T62 132q1 14-5 27-4 9-14 24-9 15-12 23-6 13-6 26 0 16 12 27 9 10 25 14 0-15 4-32 6-30 20-55 19-32 52-52-13-21-13-45t12-44q12-20 32-32t43.5-12Q236 1 256 13t32 32q12 20 12 44 0 17-6.5 33T275 150v126h13q5 0 8.5 3.5t3.5 9.5v-1zm-50-120q-18 8-37 8-17 0-32-6t-27-17q-31 18-48 49-13 22-17 49-2 15-2 25h113q0-21-14.5-35.5T150 226q-5 0-9-3.5t-3.5-9q.5-5.5 4-9t8.5-3.5q20 0 37.5 10t27.5 27.5q10 17.5 10 37.5h25V168zm13-122q0-5-5-7t-8 2l-13 17q-11-7-24.5-7T188 58l-13-17q-3-4-8-2t-5 7v40q0 20 13 35t32 17q15 2 27.5-4.5t20-18.5q7.5-12 7.5-26V46h1z"/></svg>