<svg viewBox="0 0 300 302.0011" xmlns="http://www.w3.org/2000/svg"><path d="M275 126V72q0-21-12.5-38T229 11q-79-21-158 0-21 6-33.5 23T25 72v54q-10 0-17.5 7.5T0 151v12q0 11 7.5 18t17.5 7v25q0 15 6.5 28.5T50 264v6q0 12 8 21t20 10q12 1 21.5-6t12.5-19h76q3 12 12.5 19t21.5 6q12-1 20-10t8-21v-7q12-8 18.5-21.5T275 213v-25q10 0 17.5-7t7.5-17v-13q0-10-7.5-17.5T275 126zm-112 37V88h87v75h-87zm-113 0V88h88v75H50zM78 35q72-19 144 0 11 3 18 10.5t9 17.5H51q2-10 9-17.5T78 35zm135 216H88q-16 0-27-11t-11-27v-25h25v13q0 5 3.5 8.5t9 3.5q5.5 0 9-3.5t3.5-8.5v-13h100v13q0 5 3.5 8.5t9 4q5.5.5 9-3.5t3.5-9v-13h25v25q0 16-11 27t-27 11h1z"/></svg>