<svg viewBox="0 0 300 302.0011" xmlns="http://www.w3.org/2000/svg"><path d="M300 78q-4-22-26-34-3-20-20-33-10-7-22-9.5t-23.5.5Q197 5 188 13t-14 19q-2 7-3 14-4 25-19 41L3 268q-3 4-2.5 9t4 8.5Q8 289 13 289t9-5l17-20h72l15 30q4 7 12 7 2 0 5-1 5-3 6.5-7.5t-.5-9.5l-10-20q15-2 31-8l19 39q3 7 11 7 3 0 6-1 4-3 6-7.5t-1-9.5l-19-38q32-19 51.5-51.5T263 124V89h28q4 0 7-3.5t2-7.5zm-137 35v8q0 17-8.5 32T132 177.5q-14 9.5-31 10.5l62-75zm81-45q-7 10-7 22v34q1 30-14.5 56.5t-42 42Q154 238 124 238H60l21-26q8 1 15 1 25 0 46-12.5t33-33.5q12-21 12-46V78q6-13 8-29 1-4 3-8.5t6.5-8.5q4.5-4 9.5-6 14-3 24.5 5T249 53q0 8-5 15z"/></svg>