<svg viewBox="0 0 300 302.0011" xmlns="http://www.w3.org/2000/svg"><path d="M238 63h-26q-4-17-16-30.5T166 14q-5-1-9.5 1.5t-6 7.5q-1.5 5 1 9.5T159 38q13 3 21 13.5t8 22.5v139H50q-10 0-17.5-7T25 188v-50h31q5 0 9-3.5t4-8.5q0-5-4-8.5t-9-3.5H25q-10-1-17.5 6.5T0 138v50q0 18 11 31.5T38 237q-1 4 0 8 0 18 12.5 30.5T81 288q18 0 31-12.5t13-30.5v-7h50v7q0 18 13 30.5t31 12.5q18 0 31-12.5t13-30.5q0-4-1-8 16-4 27-17.5t11-30.5v-63q0-17-8.5-31.5t-23-22.5Q254 64 238 64v-1zm37 63v12h-62V88h25q15 1 26 11.5t11 26.5zM100 245q0 8-5.5 13.5t-13.5 5q-8-.5-13-5.5t-5-13q0-3 1-7h35q1 4 1 7zm119 18q-8 0-13.5-5t-5.5-13q0-3 1-7h35q2 4 2 7 0 8-5.5 13.5T219 264v-1zm31-50h-37v-50h62v25q0 11-7.5 18.5T250 214v-1zM0 26q0-5 3.5-9t9.5-4h101q6 0 9.5 4t3.5 9q0 5-3.5 9t-9.5 3H13q-6 1-9.5-3T0 26zm0 50q0-5 3.5-8.5T13 64h76q6-1 9.5 3t3.5 9q0 5-3.5 8.5T89 88H13q-6 1-9.5-3T0 76z"/></svg>