<svg viewBox="0 0 300 302.0011" xmlns="http://www.w3.org/2000/svg"><path d="M238 226h-5q-25-47-32-100h12q5 0 8.5-3.5t3.5-9q0-5.5-3.5-9T213 101h-5l13-22q5-8 4-17.5t-6-18q-5-8.5-13.5-13T187 26h-24V13q0-5-4-8.5T150 1q-5 0-9 3.5t-4 8.5v13h-24q-10 0-18.5 4.5T81 43.5q-5 8.5-5.5 18T79 79l14 22h-5q-6 0-9.5 3.5t-3.5 9q0 5.5 3.5 9T88 126h11q-7 53-32 100h-4q-16 0-27 11t-11 26.5Q25 279 36 290t26 11h176q15 0 26-11t11-26.5q0-15.5-11-26.5t-27-11h1zM101 68q-3-6 1-11.5t10-5.5h76q6 0 10 5.5t1 11.5l-21 33h-56l-21-33zm23 58h52q6 52 29 100H95q23-48 29-100zm114 150H63q-6 0-9.5-3.5t-3.5-9q0-5.5 3.5-9T63 251h175q5 0 8.5 3.5t3.5 9q0 5.5-3.5 9T238 276z"/></svg>