<svg viewBox="0 0 300 302.0011" xmlns="http://www.w3.org/2000/svg"><path d="M298 177l-20-73q-8-29-30-49.5T196 28q-15-13-33.5-20T125 1Q87 1 58 24.5T20 84L1 155q-3 13 0 26t11.5 23.5Q21 215 33 220.5t25 5.5h2l3 3q8 11 20 16.5t25 5.5h12q2 21 18 35.5t37 14.5q21 0 37-14.5t18-35.5h12q14 0 26-6t20-17q8-11 11-24t-1-27zM32 189q-4-6-6-13.5t0-14.5l19-71q6-28 28.5-46T125 26q11 0 23 3-29 8-50 29.5T70 109l-19 71q-2 10-1 20-11-3-18-12v1zm143 87q-11 0-19.5-7T145 251h60q-2 11-10.5 18t-19.5 7zm93-63q-10 13-26 13H108q-16 0-26-12-4-6-6-13.5t0-14.5l19-71q6-28 28.5-46t51-18Q203 51 225 67.5t29 43.5l20 73q4 16-6 29z"/></svg>