<svg viewBox="0 0 300 302.0011" xmlns="http://www.w3.org/2000/svg"><path d="M75 32q0-13 9-22t22-9q13 0 22.5 9t9.5 22q0 13-9.5 22.5t-22.5 9Q93 63 84 54t-9-22zm225 81q0 20-13 34.5T255 163L113 283q-21 18-48 18H49q-20 0-34.5-14.5T0 252q0-20 13-34.5T45 201l18-14v-67q0-18 12.5-31T105 76q17 0 29.5 10.5T149 113l38-32q21-18 48-18h16q20 1 34.5 15t14.5 35zM88 165l37-31v-14q0-8-5.5-13.5T106 101q-8 0-13 5.5T88 120v45zm187-51q0-11-7-18t-17-7h-16q-18 0-32 11L58 223q-3 3-8 3-11 0-18 7t-7 17.5q0 10.5 7 18t17 7.5h16q18 0 32-12l145-123q3-3 8-3 11 0 18-7t7-17z"/></svg>