<svg viewBox="0 0 300 302.0011" xmlns="http://www.w3.org/2000/svg"><path d="M150 1q-41 0-75.5 20T20 75.5Q0 110 0 151t20 75.5Q40 261 74.5 281t75.5 20q41 0 75.5-20t54.5-54.5q20-34.5 20-75.5t-20-75.5Q260 41 225.5 21T150 1zm0 275q-34 0-62.5-17T42 213.5Q25 185 25 151t17-62.5Q59 60 87.5 43T150 26q34 0 62.5 17T258 88.5q17 28.5 17 62.5t-17 62.5Q241 242 212.5 259T150 276zm50-185V76q0-5-3.5-8.5t-9-4q-5.5-.5-9 3.5t-3.5 9v12h-50V76q0-5-3.5-9t-9-4q-5.5 0-9 4t-3.5 9v15q-11 4-18 13.5T75 126v50q0 16 11 27t26 11h76q15 0 26-11t11-27v-50q0-12-7-21.5T200 91zm-12 97h-75q-6 0-9.5-3.5T100 176v-38h100v38q0 5-3.5 8.5T187 188h1z"/></svg>