<svg viewBox="0 0 300 302.0011" xmlns="http://www.w3.org/2000/svg"><path d="M250 182h19q4 0 5.5 4t-1.5 7l-15 12 6 19q2 4-2 6.5t-7 .5l-17-11-17 11q-2 1-4 1t-4-1q-3-3-2-7l6-19-15-12q-3-3-1.5-7t5.5-4h19l7-18q1-5 5.5-5t5.5 5l7 18zm-56 0h-19l-7-18q-1-5-5.5-5t-5.5 5l-7 18h-19q-4 0-5.5 4t1.5 7l15 12-6 19q-1 4 2 7 2 1 4 1t4-1l17-11 17 11q3 2 7-.5t2-6.5l-6-19 15-12q3-3 1.5-7t-5.5-4zm-75 0h-19l-7-18q-1-5-5.5-5t-5.5 5l-7 18H56q-4 0-5.5 4t1.5 7l15 12-6 19q-1 4 2 7 2 1 4 1t4-1l17-11 17 11q3 2 7-.5t2-6.5l-6-19 15-12q3-3 1.5-7t-5.5-4zm181-19v63q0 21-14.5 35.5T250 276h-48l-23 19q-7 6-16.5 6t-16.5-6l-22-19H75q-21 0-35.5-14.5T25 226v-62q0-21 14.5-35.5T75 114h175q21 0 35.5 14.5T300 164v-1zm-25 0q0-10-7.5-17.5T250 138H75q-10 0-17.5 7.5T50 163v63q0 10 7.5 17.5T75 251h53q5 0 8 3l26 22 27-22q4-3 8-3h53q10 0 17.5-7.5T275 226v-63zM25 51q0-10 7.5-17.5T50 26h175q10 0 17.5 7.5T250 51v25q0 5 3.5 8.5t9 3.5q5.5 0 9-3.5T275 76V51q0-21-14.5-35.5T225 1H50Q29 1 14.5 15.5T0 51v50q0 5 3.5 8.5t9 3.5q5.5 0 9-3.5T25 101V51zm38 12q-6 0-9.5 4T50 76q0 5 3.5 8.5T63 88h75q5 1 8.5-3t3.5-9q0-5-3.5-8.5T138 64H63v-1zm125 0q-6 1-9.5 4.5T175 76q0 5 3.5 8.5T187 88h26q5 1 8.5-3t3.5-9q0-5-3.5-8.5T213 64h-25v-1z"/></svg>