<svg viewBox="0 0 300 302.0011" xmlns="http://www.w3.org/2000/svg"><path d="M175 76q0-20-10-37.5T137.5 11Q120 1 100 1T62.5 11Q45 21 35 38.5T25 76q0 20 10 37.5T62.5 141Q80 151 100 151t37.5-10q17.5-10 27.5-27.5T175 76zm-75 50q-21 0-35.5-14.5T50 76q0-21 14.5-35.5T100 26q21 0 35.5 14.5T150 76q0 21-14.5 35.5T100 126zm-13 63q1 5-1 9.5t-7 5.5q-24 7-39 27t-15 45v12q0 6-3.5 9.5t-9 3.5q-5.5 0-9-3.5T0 288v-12q0-33 20-59.5T71 180q5-1 10 1.5t6 7.5zm157 29h-11v-22h11q4 0 7.5 3.5t3.5 8q0 4.5-3.5 7.5t-7.5 3zm56-30v75q0 16-11 27t-27 11H150q-16 0-26.5-11T113 263v-75q0-15 10.5-26t26.5-11h113q15 0 26 11t11 27v-1zm-110-12q-4 0-7 3t-3 7v30h-22v-30q0-4-3-7t-8-3h1q-5 0-7.5 3t-2.5 7v80q0 4 2.5 7t7.5 3q4 0 6.5-3t2.5-7v-30h23v30q0 4 3 7t7 3q4 0 7-3t3-7v-80q0-4-3-7t-7-3zm72 57q7-5 10.5-13t2.5-17q-2-11-11.5-19t-21.5-8h-19q-5 0-7.5 3t-2.5 7v80q-1 4 2 7t8 3q4 0 7-3t3-7v-28h9l9 31q1 3 3.5 5t6.5 2h1q5 0 8-4t1-9l-9-30v-1 1z"/></svg>