<svg viewBox="0 0 300.5 302.0011" xmlns="http://www.w3.org/2000/svg"><path d="M25 26q0-5 3.5-9t8.5-4h62q15 0 28.5 7.5T150 40l64 92q3 4 2 9t-5 8q-4 3-9 2t-8-5l-44-62-105 77q-4 3-9.5 2.5t-8.5-5q-3-4.5-2-9.5t5-8l106-78-6-8q-6-8-14-12t-17-5H38q-6 0-9.5-3.5T25 26zm254 231q-7 7-16 7t-16-5q-7-5-10-12-2-4-5-6t-7-2q-4 0-7 2t-5 6q-3 7-10 12t-15.5 5q-8.5 0-15.5-5t-10-12q-2-4-5-6t-7-2q-4 0-7 2t-5 6q-3 7-10 12t-15.5 5q-8.5 0-15.5-5t-10-12q-2-4-5-6t-7-2q-4 0-7 2t-5 6q-3 7-10 12t-16 4.5q-9-.5-16-6.5-4-3-9-3t-8.5 4Q0 262 0 267t4 9q14 12 34 13 21-1 37-16 16 15 37.5 15t37.5-15q16 15 37.5 15t37.5-15q16 15 38 16 19 0 33-13 6-5 4.5-12.5t-9-9.5q-7.5-2-12.5 3zM38 226q21 0 37-15 16 15 37.5 15t37.5-15q16 15 37.5 15t37.5-15q16 15 38 15 19 0 33-13 6-5 4.5-12t-9-9q-7.5-2-13.5 3.5t-15 5.5q-9 0-16-4.5T237 184q-2-3-5-5.5t-7-2.5q-4 0-7 2.5t-5 5.5q-3 8-10 12.5t-15.5 4.5q-8.5 0-15.5-4.5T162 184q-2-3-5-5.5t-7-2.5q-4 0-7 2.5t-5 5.5q-3 8-10 12.5t-15.5 4.5q-8.5 0-15.5-4.5T87 184q-2-3-5-5.5t-7-2.5q-4 0-7 2.5t-5 5.5q-3 8-10 12.5T37 201q-9 0-16-6-4-4-9-3.5T3.5 196Q0 200 0 205t4 8q14 13 34 13zm193-125q13 0 22-9t9.5-22q.5-13-9-22.5T231 38q-13 0-22 9.5T200 70q0 13 9 22t22 9z"/></svg>