<svg viewBox="0 0 300 302.0011" xmlns="http://www.w3.org/2000/svg"><path d="M113 113q0-5 3.5-8.5t8.5-3.5h13V88q0-5 3.5-8.5T150 76q5 0 9 3.5t4 8.5v13h12q5 0 9 3.5t4 9q0 5.5-4 9t-9 3.5h-12v12q0 6-4 9.5t-9 3.5q-5 0-9-3.5t-4-8.5v-13h-12q-5 0-8.5-3.5T113 114v-1zm87 63H100q-5 0-8.5 3.5t-3.5 9q0 5.5 3.5 9t8.5 3.5h100q5 0 9-3.5t4-9q0-5.5-4-9t-9-3.5zm-50 50h-50q-5 0-8.5 3.5t-3.5 9q0 5.5 3.5 9t8.5 3.5h50q5 0 9-3.5t4-9q0-5.5-4-9t-9-3.5zM263 88v150q-1 17-9 31.5t-22.5 23Q217 301 200 301H100q-17 0-31.5-8.5t-22.5-23Q38 255 37 238V88q1-16 9-30.5t22.5-23Q83 26 100 26h2q4-11 14-18t22-7h25q11 0 21 7t14 18h2q17 0 31.5 8.5t22.5 23q8 14.5 9 30.5zm-25 0q0-15-11-26t-27-11h-12q-6 0-9.5-3.5t-3.5-9-3.5-9Q168 26 163 26h-25q-6 0-9.5 3.5t-3.5 9-3.5 9Q118 51 112 51h-12q-16 0-27 11T62 89v149q1 16 11.5 27t26.5 11h100q16 0 27-11t11-27V88z"/></svg>