<svg viewBox="0 0 300 302.0011" xmlns="http://www.w3.org/2000/svg"><path d="M300 129q-2-7-6-12t-10-8l-33-12 6-34q1-7-1.5-13.5t-8-11q-5.5-4.5-12-5.5T223 34l-33 11-18-29q-4-8-13-11t-18 0q-9 3-13 11l-18 29-33-11q-6-2-12.5-1t-12 5.5q-5.5 4.5-8 11T43 63l6 34-32 12q-7 3-11 8T.5 129q-1.5 7 1 13T9 153l26 23-17 30q-3 6-3 12.5t3.5 12.5q3.5 6 9 9.5T40 244l35 1 6 34q2 6 6.5 11.5T98 298q6 2 13 1t12-5l27-22 27 22q5 4 12 5t13-1q6-2 10.5-7.5T219 279l6-34 35-1q7 0 12.5-3.5t9-9.5q3.5-6 3.5-12.5t-3-12.5l-17-30 26-23q5-5 7.5-11t1.5-13zm-59 34q-3 3-3.5 7.5t1.5 8.5l21 39-1 1-44 1q-5 0-8 3t-4 7l-9 44h-2l-34-27q-4-3-8-3t-8 3l-34 27h-2l-9-44q-1-4-4-7t-8-3l-44-1-1-1 21-39q2-4 1.5-8.5T59 163l-34-29 1-2 41-16q4-1 6-5t2-8l-7-44 1-1 42 14q5 1 9-.5t6-4.5l23-38h2l23 38q2 3 6 4.5t9 .5l42-14 1 1-7 44q0 4 2 8t6 5l41 16 1 2-34 29z"/></svg>