<svg viewBox="0 0 300 302.0011" xmlns="http://www.w3.org/2000/svg"><path d="M296 5q-3-4-8.5-4T279 5L126 157q-16-19-26-42l14-19q11-11 11-26.5T114 43L91 12Q80 1 64 1T37 12L22 24Q-1 51 0 86q1 31 21 67 17 31 46 64L4 279q-4 4-3.5 9t4 8.5q3.5 3.5 8.5 4t8-3.5L296 22q4-3 4-8.5T296 5zM25 79q0-21 14-36l15-13q4-4 9.5-4t9.5 4l23 30q4 4 4 9.5T96 79l-20 26q-5 5-2 12 12 32 34 58l-24 24q-27-30-43-61.5T25 79zm264 131q11 12 11 27.5T289 265l-12 13q-33 30-78 21-35-7-84-40-4-3-5-8t2.5-9.5q3.5-4.5 8.5-5t9 2.5q41 27 67 34 37 10 62-12l11-13q5-4 5-9.5t-4-10.5l-30-23q-4-4-9.5-4t-9.5 4l-26 20q-5 5-12 2-12-4-24-11-4-2-5-7t1-9q2-4 6.5-6t9.5 0l14 7 19-14q11-11 26.5-11t26.5 11l31 23z"/></svg>