<svg viewBox="0 0 300 302.0011" xmlns="http://www.w3.org/2000/svg"><path d="M100 288q0 6-3.5 9.5T87 301H63q-17 0-31.5-8.5t-23-23Q0 255 0 238v-25q0-5 3.5-8.5t9-3.5q5.5 0 9 3.5T25 214v24q0 16 11 27t27 11h25q5 0 8.5 3.5t3.5 8.5zm188-87q-6 0-9.5 3.5T275 214v24q0 16-11 27t-27 11h-24q-6 0-9.5 3.5t-3.5 9q0 5.5 3.5 9t8.5 3.5h26q16 0 30.5-8.5t23-23Q300 255 300 238v-25q0-5-3.5-8.5T288 201zM238 1h-25q-6 0-9.5 3.5t-3.5 9q0 5.5 3.5 9T212 26h26q15 0 26 11t11 27v24q0 6 3.5 9.5t9 3.5q5.5 0 9-3.5T300 89V63q0-16-8.5-30.5t-23-23Q254 1 238 1zM13 101q5 0 8.5-3.5T25 89V63q0-15 11-26t27-11h25q5 0 8.5-3.5t3.5-9q0-5.5-3.5-9T87 1H63Q46 1 31.5 9.5t-23 23Q0 47 0 64v24q0 6 3.5 9.5T13 101zm137 25q-10 0-17.5 7.5T125 151q0 10 7.5 17.5T150 176q10 0 17.5-7.5T175 151q0-10-7.5-17.5T150 126zm38 87h-75q-16 0-27-10.5T75 176v-50q0-15 11-26t26-11l9-14q3-5 8.5-8.5T142 64h16q7 0 12.5 3t8.5 8l9 14q15 0 26 11t11 26v50q0 16-11 27t-26 11v-1zm12-87q0-5-3.5-9t-9.5-3h-74q-6-1-9.5 3t-3.5 9v50q0 5 3.5 8.5t8.5 3.5h76q5 0 8.5-3.5t3.5-8.5v-50z"/></svg>