<svg viewBox="0 0 300 302.0011" xmlns="http://www.w3.org/2000/svg"><path d="M213 166v-40q0-5-4-9t-9-4V31q0-8-4-14.5t-10.5-11Q179 1 171 1t-15 3l-32 17q-11 5-17.5 15.5T100 59v54q-5 0-8.5 4t-3.5 9v40q-12 4-18.5 13.5T62 201v37q1 17 9 31.5t22.5 23Q108 301 125 301h50q17 0 31.5-8.5t22.5-23q8-14.5 9-31.5v-37q-1-12-7.5-21.5T212 166h1zm-100-3v-25h75v25h-75zm12-104q0-5 2.5-9.5T135 43l33-16q2-2 4.5-.5T175 31v82h-50V59zm88 179q0 16-11 27t-27 11h-50q-16 0-26.5-11T88 238v-37q0-5 3.5-9t8.5-4h100q5 0 8.5 4t3.5 9l1 37z"/></svg>