<svg viewBox="0 0 300 302.0011" xmlns="http://www.w3.org/2000/svg"><path d="M260 16Q232 1 202 1H98Q68 1 40 16 21 26 10.5 44T0 84v30q0 15 11 26t27 11h12v87q0 17 8.5 31.5t23 23Q96 301 112 301h76q16 0 30.5-8.5t23-23Q250 255 250 238v-87h13q15 0 26-11t11-26V84q0-22-10.5-40T260 16zm-74 10q-4 11-14 18t-22 7q-12 0-22-7t-14-18h72zm89 87q0 6-3.5 9.5T263 126h-13V88q0-5-3.5-8.5t-9-3.5q-5.5 0-9 3.5T225 89v149q0 16-11 27t-26 11h-75q-16 0-27-11t-11-27V88q0-5-3.5-8.5t-9-3.5q-5.5 0-9 3.5T50 89v37H38q-6 0-9.5-3.5T25 114V84q0-15 7-27t20-19q17-9 36-11 5 21 22.5 35T150 76q22 0 39.5-14T212 27q19 2 36 11 13 7 20 19t7 27v29z"/></svg>