<svg viewBox="0 0 300 302.0011" xmlns="http://www.w3.org/2000/svg"><path d="M256 212l-19-28q10-6 12-17.5t-4-20.5l-26-40q3-3 5-7 4-7 3.5-14.5T223 71l-52-61q-9-9-21.5-9T128 10L77 71q-6 8-4.5 18.5T81 106l-26 40q-6 9-4 20.5T63 184l-18 28q-7 9-7.5 20.5t5 21.5q5.5 10 15 16t21.5 6h59v12q0 6 3.5 9.5t8.5 3.5q5 0 9-3.5t4-8.5v-13h58q12 0 21.5-6t15-16q5.5-10 5-21.5T256 212zm-20 30q-3 4-6.5 6.5T221 251H79q-5 0-8.5-2.5t-6-6.5q-2.5-4-2-8.5T65 226l29-43q4-6 .5-13T83 164h-5q-1 0-2-1.5t0-3.5l34-51q4-6 .5-13T100 88q-2 1-2.5-.5T97 85l50-58q1-1 2.5-1t3.5 1l50 58q0 1-.5 2.5t-2.5.5q-7 0-11 7t1 13l34 51q1 2 0 3.5t-2 .5h-5q-8 0-11.5 7t.5 13l29 43q2 3 2.5 7.5T236 242zm-136-29q0 6 3.5 9.5t9 3.5q5.5 0 9-3.5t3.5-9q0-5.5-3.5-9t-9-3.5q-5.5 0-9 3.5T100 214v-1zm63 0q0 6 3.5 9.5t8.5 3.5q5 0 9-3.5t3.5-9q-.5-5.5-4-9T175 201q-5 0-9 3.5t-4 9.5l1-1zm-38-50q0 6 3.5 9.5t9 3.5q5.5 0 9-3.5t3.5-9q0-5.5-3.5-9t-9-3.5q-5.5 0-9 3.5T125 163zm25-37q0 5 3.5 9t9 3.5q5.5-.5 9-4t3.5-8.5q0-5-3.5-9t-9-4q-5.5 0-9 4t-3.5 9zm-25-38q0 6 3.5 9.5t9 3.5q5.5 0 9-3.5t3.5-9q0-5.5-3.5-9t-9-3.5q-5.5 0-9 3.5T125 88z"/></svg>