<svg viewBox="0 0 300 302.0011" xmlns="http://www.w3.org/2000/svg"><path d="M174 301h-56q-6 0-11-2-13-4-22-14.5T75 260q-1-14 6.5-26t19.5-17q-3-17 1-34 6-24 24.5-39.5t43-17.5q24.5-2 45 11t29.5 35q1 3 2.5 4t5.5 1l2 1q16 4 27.5 15.5t16 27.5q4.5 16 .5 32.5t-16.5 29Q269 295 252 299q-7 2-13 2h-65zm1-150h-8q-10 2-18.5 7.5t-14.5 14q-6 8.5-8 18.5t0 19.5q2 9.5-2 17.5t-11.5 11.5Q105 243 102 249t-1 13q3 10 12 13l5 1h120q4 0 8-1 11-3 18-10.5t10-17.5q4-15-4-28t-23-17h-1q-8-2-15-7t-10-13q-6-14-18.5-22.5T175 151zM29 212q-5 0-8-2.5t-4.5-6.5q-1.5-4 0-8t5.5-6l34-20q2-1 3-3t1-4q-2-5-3-11H13q-6 0-9.5-3.5t-3.5-9q0-5.5 3.5-9T12 126h45q2-9 5-18L24 86q-7-4-7-11t6.5-11Q30 60 36 64l39 23q5-6 12-12L64 37q-3-5-1.5-10t6-7.5Q73 17 78 18t7 6l23 39q8-3 17-5V13q0-5 3.5-8.5t9-3.5q5.5 0 9 3.5T150 13v45q9 2 17 5l23-39q3-4 8-5.5t9.5 1Q212 22 213 27t-1 10l-23 39 4.5 4.5q3.5 3.5 5.5 5t6-.5l33-22q6-4 12.5-1t7 10.5Q258 80 251 84l-33 22q-10 6-21 4.5t-19-10q-8-8.5-18.5-13T137 82q-23 1-39 17.5T81 139q0 8 3 16 3 10-1.5 20T68 191l-33 19q-3 2-7 2h1z"/></svg>