<svg viewBox="0 0 300 302.0011" xmlns="http://www.w3.org/2000/svg"><path d="M294 23L278 7q-5-5-12-6t-13 4l-15 11q-13 10-15 26l-2 20-26 27h-89q-29 0-53 14t-38.5 38.5Q0 166 0 195q0 21 8 40.5T31 270q15 15 34.5 23t40.5 8q29 0 53.5-14.5T198 248q14-24 14-53v-89l27-26 20-2q16-2 26-15l11-15q5-6 4-13t-6-12zM188 195q0 22-11 40.5T147 265q-19 11-41 11-16 0-31-6t-26.5-17.5Q37 241 31 226t-6-31q0-22 11-41t29.5-30Q84 113 106 113h64l-43 43q-10-5-21-5-18 0-30.5 13T63 195q0 18 12.5 30.5T106 238q18 0 31-12.5t13-30.5q0-11-5-21l43-43v64zm-63 0q0 8-5.5 13t-13.5 5q-8 0-13-5t-5-13q0-8 5-13.5t13.5-5.5q8.5 0 12.5 4t5 10l1 5z"/></svg>