<svg viewBox="0 0 300 302.0011" xmlns="http://www.w3.org/2000/svg"><path d="M225 188q0 6-3.5 9.5T213 201h-25q-6 0-9.5-3.5t-3.5-9q0-5.5 3.5-9t8.5-3.5h26q5 0 8.5 3.5t3.5 8.5zM88 176H63q-6 0-9.5 3.5t-3.5 9q0 5.5 3.5 9T63 201h25q5 0 8.5-3.5t3.5-9q0-5.5-3.5-9T87 176h1zm62 0h-25q-5 0-9 3.5t-4 9q0 5.5 4 9t9 3.5h25q5 0 9-3.5t4-9q0-5.5-4-9t-9-3.5zm100-88v50q0 6-3.5 9.5T238 151H63q-6 0-9.5-3.5T50 138V88q0-5 3.5-8.5T63 76h175q5 0 8.5 3.5T250 89v-1zm-25 13H75v25h150v-25zm75-13v125q0 17-8.5 31.5t-23 23Q254 276 237 276H63q-17 0-31.5-8.5t-23-23Q0 230 0 214V88q0-16 8.5-30.5t23-23Q46 26 63 26h175q16 0 30.5 8.5t23 23Q300 72 300 89v-1zm-25 0q0-15-11-26t-27-11H63q-16 0-27 11T25 88v125q0 16 11 27t27 11h175q15 0 26-11t11-27V88z"/></svg>