<svg viewBox="0 0 300 302.0011" xmlns="http://www.w3.org/2000/svg"><path d="M247 41q-19-19-44-29.5T150 1q-28 0-53 10.5T53 41q-27 27-36 62.5t.5 71Q27 210 53 236l49 46q20 19 48 19 13 0 25.5-5t21.5-14l50-46q27-27 36-62t0-70.5Q274 68 247 41zm-17 177l-50 46q-12 12-30 12t-30-13l-50-45q-21-22-28.5-51t0-57.5Q49 81 70 59q16-16 36.5-24.5T150 26q23 0 43.5 8.5T230 59q21 22 28.5 50.5t0 57.5q-7.5 29-28.5 51zm-93-73V76q0-5 4-9t9-4q5 0 8.5 4t3.5 9v69q0 5-3.5 8.5T150 157q-5 0-9-3.5t-4-8.5zm32 50q0 8-5.5 13.5t-13.5 5q-8-.5-13.5-5.5t-5.5-13q0-8 5.5-13.5T150 176q8 0 13.5 5.5T169 195z"/></svg>