<svg viewBox="0 0 300 302.0011" xmlns="http://www.w3.org/2000/svg"><path d="M150 1q-40 0-74.5 20.5t-55 55Q0 111 0 151.5t20.5 75Q41 261 75.5 281t75 20q40.5 0 75-20t54.5-54.5q20-34.5 20-75t-20-75q-20-34.5-54.5-55T150 1zm0 275q-33 0-62-16.5T42 214q-17-29-17-63t17-62.5Q59 60 88 43t62.5-17Q184 26 213 43t45.5 45.5Q275 117 275 151t-16.5 63Q242 243 213 259.5T150 276zm-40-139v29q0 16 11 27t27 11h6q8 0 15.5-3t11.5-7.5q4-4.5 9-5t9 3q4 3.5 4.5 8.5t-2.5 9q-8 9-21 14.5t-26 5.5h-6q-17 0-31.5-8.5t-23-23Q85 183 85 166v-29q0-17 8.5-32t23-23.5Q131 73 148 73h6q14 0 26.5 6.5T201 97q3 4 2.5 9t-5 8q-4.5 3-9.5 2.5t-8-4.5q-5-7-12-10.5T154 98h-6q-16 0-27 11.5T110 137z"/></svg>