<svg viewBox="0 0 300 302.0011" xmlns="http://www.w3.org/2000/svg"><path d="M94 276q-18 0-38-14l21-19q3-3 6-3.5t11-.5q4-1 9 1-3-14-3-26 0-19 6-37l-19 20q-3-16-12-32v-8q0-10 5.5-22.5T94 113q7 9 13 21.5t6 22.5l-1 5q9-16 21-28-3-10-8-19v-8q0-10 5.5-22.5T144 63q7 9 13 21.5t6 22.5l-1 6q24-12 51-12h4l79-79q4-3 4-8.5t-3.5-9Q293 1 287.5 1T279 5l-92 92q-3-15-11-30l46-45q3-4 3-9t-3.5-9Q218 0 213 0t-9 4l-42 42q-8-7-19-7t-18 8.5Q118 56 111.5 67T102 90q-7-2-14.5 0T75 97q-7 9-13.5 20T52 140q-7-2-14.5 0T25 147q-10 12-17 27-8 17-8 33 0 28 21 56L4 280q-4 3-4 8.5t3.5 9q3.5 3.5 9 3.5t8.5-4l17-17q28 21 56 21 17 0 37-10-9-9-15-20-13 5-22 5zm-55-31q-14-20-14-38 0-10 5.5-22.5T44 163q7 9 13 21.5t6 22.5q-1 8-1.5 11t-3.5 6l-19 21zM297 79q3 4 3 9t-3 9l-23 22q-11-7-24-11l29-29q4-4 9-4t9 4zm-84 47q-24 0-44 12t-32 32q-12 20-12 43.5t12 43.5q12 20 32 32t43.5 12q23.5 0 43.5-12t32-32q12-20 12-43.5T288 170q-12-20-32-32t-44-12h1zm0 150q-17 0-31.5-8.5t-23-23q-8.5-14.5-8.5-31t8.5-31q8.5-14.5 23-23t31-8.5q16.5 0 31 8.5t23 23q8.5 14.5 8.5 31t-8.5 31q-8.5 14.5-23 23T212 276h1zm-13-75v-25q0-5 3.5-9t9-4q5.5 0 9 4t3.5 9v25q0 5-3.5 9t-9 4q-5.5 0-9-4t-3.5-9zm31 44q0 8-5.5 13t-13 5q-7.5 0-13-5t-5.5-13q0-8 5.5-13.5t13-5.5q7.5 0 13 5.5T231 245z"/></svg>