<svg viewBox="0 0 300 302.0011" xmlns="http://www.w3.org/2000/svg"><path d="M296 230l-3-3q-20-21-49-25 6-20 6-38 21-1 35.5-15.5T300 113V56q-1-15-11-25-6-6-21-15T242 2q-4-3-8.5 1t-1.5 9q9 14 13 27-12-3-28-13-5-2-8.5 2t-1.5 9q5 11 14 26t15 21q8 8 18.5 10t20.5-1v20q0 11-7.5 18t-17.5 8h-3q-11-38-60-47V76q0-5-3.5-9t-8.5-4q-5 0-9 4t-4 9v13h-25V76q0-5-3.5-9t-8.5-3.5q-5 .5-9 4t-4 8.5v16q-48 9-59 46h-3q-10 0-17.5-7T25 114V93q10 3 20.5 1T64 84q6-6 15-21t14-26q2-5-1.5-9T83 26Q67 36 55 39q3-13 13-27 3-5-1.5-9T58 2Q47 7 32 16T11 31Q1 41 0 56v57q0 21 14.5 35.5T50 163q0 18 7 39-29 3-50 25l-3 3q-4 3-4 8.5t3.5 9q3.5 3.5 9 3.5t8.5-4l3-3q19-18 44-18 11 18 25 27-14 12-28 27-3 4-2.5 9.5t4 8.5q3.5 3 9 3t9.5-5q11-13 23-23t17-10h50q5 0 17 10t23 23q4 5 9.5 5t9-3q3.5-3 4-8.5T235 280q-13-15-27-26 14-10 25-28 25 1 43 18l3 3q3 4 8.5 4t9-3.5q3.5-3.5 3.5-9t-4-8.5zm-119 8h-54q-14 0-26-14-10-12-16-30.5T75 162q0-22 13-33 17-15 62-15.5t62 15.5q13 11 13 33 0 15-5.5 33T204 225q-12 14-27 14v-1z"/></svg>