<svg viewBox="0 0 300 302.0011" xmlns="http://www.w3.org/2000/svg"><path d="M250 52q-30-27-68.5-35t-76 3.5Q68 32 41 61.5T5 129q-9 38 1.5 76T45 271q9 8 20.5 13t23.5 4h122q24 1 42-16 23-21 35-50t11.5-60.5q-.5-31.5-13.5-60T250 52zm-14 202q-11 10-25 10H89q-15 0-26-11-28-27-35.5-64.5t7-73Q49 80 81 59t70-20.5q38 .5 69.5 22t45.5 57q14 35.5 6 73T236 254zm14-91q0 21-8 39.5T220 235q-4 4-9 3.5t-8.5-4Q199 231 199 226t3-9q19-18 22-41.5t-7.5-45Q206 109 185.5 97T139 89q-5 1-9-2t-5-8q-1-5 2.5-9.5T136 65q21-4 42 2.5T215.5 88q16.5 14 25.5 34t9 42v-1zM98 217q3 4 3 9t-3.5 8.5q-3.5 3.5-8.5 4t-9-3.5q-17-17-24.5-39.5T51 149q1-5 5-8t9-2.5q5 .5 8 5t3 9.5q-3 18 3 35t19 29zm77-54q0 8-4 14t-10.5 9q-6.5 3-13.5 2t-13-5.5q-6-4.5-8-11.5t0-14l-47-47q-4-4-4-9t3.5-8.5q3.5-3.5 9-3.5t8.5 3l48 47q11-3 21 4.5t10 20.5v-1z"/></svg>