<svg viewBox="0 0 300 302.0011" xmlns="http://www.w3.org/2000/svg"><path d="M150 1q-27 0-53 4-32 4-50 13-22 11-22 27v212q0 16 22 27 18 9 50 13 26 4 52.5 4t52.5-4q32-4 50-13 23-11 23-27V45q0-16-22-27-18-9-50-13-26-4-53-4zm100 205q-3 4-16.5 8.5T200 222q-23 4-50 4t-50-4q-20-3-33.5-7.5T50 206v-83q19 8 49 12 25 3 50.5 3.5T200 135q31-4 50-13v84zm0-113q-3 4-16.5 9t-33.5 8q-23 4-50 3.5t-50-3.5q-20-3-33.5-7.5T50 94V73q19 8 49 12 25 4 51 4t51-4q30-4 49-12v20zM150 26q40 0 69 7 24 5 30 12-6 6-30 12-29 6-69 6t-69-6q-24-6-30-12 6-7 30-12 29-7 69-7zm0 250q-27 0-50-4-20-3-33.5-7.5T50 256v-21q19 8 49 13 25 3 50.5 3t50.5-4q31-4 50-12v21q-3 4-16.5 8.5T200 272q-23 4-50 4z"/></svg>