<svg viewBox="0 0 300 302.0011" xmlns="http://www.w3.org/2000/svg"><path d="M44 32q0-13 9-22t22-9q13 0 22 9t9 22q0 13-9 22t-22 9q-13 0-22-9t-9-22zm94 94v37q0 14-7 25.5T113 207v81q0 6-4 9.5t-9 3.5q-5 0-8.5-3.5T88 288v-75H63v75q0 6-4 9.5t-9 3.5q-5 0-8.5-3.5T38 288v-81q-12-7-18.5-18.5T13 163v-37q0-21 14.5-35.5T63 76h25q20 0 35 14.5t15 35.5zm-25 0q0-10-7.5-17.5T88 101H63q-11 0-18 7.5T38 126v37q0 11 7 18t18 7h25q10 0 17.5-7t7.5-18v-37zm112-63q13 0 22-9t9-22q0-13-9-22t-22-9q-13 0-22 9t-9 22q0 13 9 22t22 9zm53 175q-6 8-15 11v39q0 6-4 9.5t-9 3.5q-5 0-8.5-3.5T238 288v-37h-25v37q0 6-4 9.5t-9 3.5q-5 0-8.5-3.5T188 288v-39q-10-3-16-11-11-12-9-29l11-88q2-19 17-32t34-13q19 0 34 13t17 32l11 88q2 17-9 29zm-16-26l-11-88q-1-10-8.5-16.5T225 101q-10 0-17.5 6.5T198 124l-11 88q0 6 3.5 10t9.5 4h50q5 0 9-4t3-10z"/></svg>