<svg viewBox="0 0 300 302.0011" xmlns="http://www.w3.org/2000/svg"><path d="M238 26H63q-17 0-31.5 8.5t-23 23Q0 72 0 89v124q0 17 8.5 31.5t23 23Q46 276 63 276h175q16 0 30.5-8.5t23-23Q300 230 300 214V88q0-16-8.5-30.5t-23-23Q254 26 237 26h1zM63 51h175q15 0 26 11t11 26H25q0-15 11-26t27-11zm175 200H63q-16 0-27-11t-11-27V113h38v88q0 10 7 17.5t18 7.5h50q5 0 8.5-3.5t3.5-9q0-5.5-3.5-9T138 201H88v-25h25q5 0 8.5-3.5t3.5-9q0-5.5-3.5-9T112 151H88v-38h187v101q0 15-11 26t-27 11h1zm-13-38q0 6-3.5 9.5T213 226h-25q-6 0-9.5-3.5t-3.5-9q0-5.5 3.5-9t8.5-3.5h26q5 0 8.5 3.5t3.5 9.5v-1zm-37-37h-25q-6 0-9.5-3.5t-3.5-9q0-5.5 3.5-9t8.5-3.5h26q5 0 8.5 3.5t3.5 9q0 5.5-3.5 9T188 176z"/></svg>