<svg viewBox="0 0 300 302.0011" xmlns="http://www.w3.org/2000/svg"><path d="M263 101h-50q-16 0-27 11t-11 27v62h-25v-50q0-20-10.5-38T111 85q14-14 14-34.5t-15-35Q95 1 75 1T40 15.5Q25 30 25 50.5T39 85q-18 10-28.5 28T0 151v137q0 6 3.5 9.5t9 3.5q5.5 0 9-3.5T25 289v-63h250v62q0 6 3.5 9.5t9 3.5q5.5 0 9-3.5t3.5-8.5V138q0-15-11-26t-27-11h1zM50 51q0-10 7.5-17.5T75 26q10 0 17.5 7.5T100 51q0 10-7.5 17.5T75 76q-10 0-17.5-7.5T50 51zm25 50q21 0 35.5 14.5T125 151v50H25v-50q0-21 14.5-35.5T75 101zm125 100v-63q0-5 3.5-8.5t8.5-3.5h13v12q0 6 3.5 9.5t9 3.5q5.5 0 9-3.5t3.5-8.5v-13h13q5 0 8.5 3.5t3.5 8.5v63h-75z"/></svg>