<svg viewBox="0 0 300 302.0011" xmlns="http://www.w3.org/2000/svg"><path d="M285 21q-7-5-15-6.5t-17 .5l-14 4q-18 7-26 7-12 0-29-4-10-2-31-8l-33-9q-19-4-33-4-31 0-67 19-9 5-14.5 13.5T0 53v235q0 6 3.5 9.5t9 3.5q5.5 0 9-3.5T25 288v-92q13-8 26-13 20-7 37-7 11 0 28 4 10 2 31 8l33 9q19 4 33 4 16 0 33-4t29.5-10q12.5-6 18.5-15.5t6-19.5V51q0-9-4-16.5T285 21zM138 85l9 3 33 9q19 4 33 4 28 0 62-15v23q-34 17-63 17-11 0-28-4-10-2-31-8l-16-4V85h1zm75-34q8 0 18-3 6-1 17-5l12-4q5-2 10 2t5 10v8q-34 17-63 17-11 0-28-4-10-2-31-8l-15-4V35l9 3 33 9q19 4 33 4zM32 42q30-16 56-16 10 0 25 3v75q-15-3-26-3-28 0-62 16V53q0-8 7-11zm233 122q-11 6-24.5 9t-27.5 3q-12 0-29-4-10-2-31-8l-33-9q-19-4-32-4-29 0-63 16v-21q13-8 26-13 20-7 37-7 11 0 28 4 10 2 31 8l33 9q19 4 32 4 29 0 63-15v16q0 7-10 12z"/></svg>