<svg viewBox="0 0 300 302.0011" xmlns="http://www.w3.org/2000/svg"><path d="M276 165l-26-45q-8-15-22.5-23T196 89h-92q-17 0-31.5 8T50 120l-26 45q-11 20-11 43v18q0 13 6.5 25T38 269v7q0 10 7 17.5t17.5 7.5q10.5 0 18-7.5T88 276h125q0 10 7 17.5t17.5 7.5q10.5 0 17.5-7.5t7-17.5v-7q12-6 18.5-18t6.5-25v-18q0-23-11-43zM71 132q5-8 14-13t19-6h92q10 1 18.5 6t13.5 13l25 44H47l24-44zm192 94q-1 10-8 17.5t-18 7.5H63q-11 0-18-7.5T38 226v-25h25v12q0 6 3.5 9.5T75 226q5 0 8.5-3.5T87 213v-12h126v12q0 6 3.5 9.5t8.5 3.5q5 0 9-3.5t4-9.5v-12h24v7l1 18zM132 56q-7-7-7-17.5t7-17.5l10-11q3-4 8-4t8 4l10 11q5 5 6.5 12.5T173 48q-3 7-9 11t-14 4q-10 1-18-7zm75 0q-7-7-7-17.5t7-17.5l10-11q3-4 7.5-4t7.5 4l10 11q6 5 7 12.5T247.5 48q-2.5 7-9 11T225 64q-11 0-18-8zM57 56q-7-7-7-17.5T57 21l10-11q3-4 7.5-4t7.5 4l11 11q5 5 6.5 12.5T98 48q-3 7-9.5 11T75 63q-11 1-18-7z"/></svg>