<svg viewBox="0 0 300 302.0011" xmlns="http://www.w3.org/2000/svg"><path d="M238 263H63q-17 0-31.5-8t-23-22.5Q0 218 0 201v-12q0-5 3.5-8.5T13 177h1q10 0 17.5-7.5t7.5-18q0-10.5-7.5-18T14 126h-1q-6 0-9.5-3.5T0 114v-13q0-17 8.5-31.5t23-22.5Q46 39 62 39h176q16-1 30.5 7.5t23 23Q300 84 300 101v12q0 6-3.5 9.5T287 126q-10 0-17.5 7.5t-7 17.5q.5 10 7.5 17.5t17 7.5q6 0 9.5 3.5t3.5 8.5v13q0 17-8.5 31.5t-23 22.5q-14.5 8-31.5 8h1zM25 201q0 16 11 27t27 11h175q15 0 26-11t11-27v-2q-16-4-26.5-17.5T238 151q0-17 10.5-30.5T275 103v-2q0-16-11-26.5T237 64H63q-16-1-27 10t-11 27v1q17 5 28 18.5t11 31q0 17.5-11 31T25 201z"/></svg>