<svg viewBox="0 0 300 302.0011" xmlns="http://www.w3.org/2000/svg"><path d="M125 276v-13q0-15-11-26t-26-11h-5q17-32 17-44.5t-9-21q-9-8.5-22-8.5t-22 8.5q-9 8.5-9.5 21T55 226h-5q-16 0-26.5 11T13 263v13q-6 0-9.5 3.5t-3.5 9q0 5.5 3.5 9T13 301h112q5 0 9-3.5t4-9q0-5.5-4-9t-9-3.5zm-25 0H38v-13q0-5 3.5-8.5T50 251h38q5 0 8.5 3.5t3.5 8.5v13zm100-138h-50q-5 0-8.5-3.5T138 126q0-5 3.5-9t8.5-4h50q5 0 9 4t3.5 9q-.5 5-4 9t-8.5 4v-1zm100-75v175q0 17-8.5 31.5t-23 23Q254 301 238 301h-63q-5 0-9-3.5t-3.5-9q.5-5.5 4-9t8.5-3.5h63q15 0 26-11t11-27V63q0-15-11-26t-27-11h-99q-16 0-27 11t-11 27v50q0 5-3.5 9t-9 4q-5.5 0-9-4t-3.5-9V63q0-16 8.5-30.5t23-23Q121 1 137 1h101q16 0 30.5 8.5t23 23Q300 47 300 64v-1zM163 207q0 18 12.5 31t30.5 13q18 0 31-13t13-31q0-18-13-31t-31-13q-18 0-30.5 13T163 207zm62 0q0 8-5.5 13.5T206 226q-8 0-13-5.5t-5-13.5q0-8 5-13t13-5.5q8-.5 13.5 5T225 207zm13-131q0 5-4 9t-9 4h-75q-5 0-9-4t-3.5-9q.5-5 4-9t8.5-4h75q5 0 9 4t4 9z"/></svg>