<svg viewBox="0 0 300 302.0011" xmlns="http://www.w3.org/2000/svg"><path d="M150 1q-41 0-75.5 20T20 75.5Q0 110 0 151t20 75.5Q40 261 74.5 281t75.5 20q41 0 75.5-20t54.5-54.5q20-34.5 20-75.5t-20-75.5Q260 41 225.5 21T150 1zm0 275q-34 0-62.5-17T42 213.5Q25 185 25 151t17-62.5Q59 60 87.5 43T150 26q34 0 62.5 17T258 88.5q17 28.5 17 62.5t-17 62.5Q241 242 212.5 259T150 276zM67 125q-2 1-5 1t-6.5-2q-3.5-2-5-6.5t.5-9q2-4.5 7-6.5 12-5 24.5-14T102 69q3-4 8-5t9.5 1.5q4.5 2.5 5.5 8t-2 9.5q-9 14-26 26-14 10-30 16zm108 1q0-16 5.5-26.5t13.5-11q8-.5 13.5 10.5t5 27q-.5 16-5.5 26.5T194 163q-8 0-13.5-10.5T175 126zm-93 14l50-25q5-3 9.5-1t7 6.5q2.5 4.5 1 9.5t-6.5 7l-50 25q-3 1-5 1-8 0-12-6-2-5-.5-10t6.5-7zm153 68q-5 9-14 16-16 15-33 15-10 0-20-6l-15-12q-8-7-10-7.5t-8 3.5l-9 6q-7 3-14 3-11 0-23-8-6-4-10-8t-4-9q0-5 4-9t9-3.5q5 .5 8 3.5t8 6q5 3 8 3t9-4q6-4 10-6 6-3 13-3t14 5l12 9 9 8q5 3 8 3 8 0 17-8 7-5 10-10t8-6q5-1 9.5 1.5t5.5 7.5q1 5-2 10z"/></svg>