<svg viewBox="0 0 300 302.0011" xmlns="http://www.w3.org/2000/svg"><path d="M238 1H63Q46 1 31.5 9.5t-23 23Q0 47 0 63v13q0 16 13 28v134q0 17 8 31.5t22.5 23Q58 301 75 301h150q17 0 31.5-8.5t23-23Q288 255 288 238V104q12-12 12-28V63q0-16-8.5-30.5t-23-23Q254 1 238 1zm25 237q0 16-11.5 27T225 276H75q-15 0-26-11t-11-27V113h225v125zm12-162q0 5-3.5 8.5T263 88H38q-6 0-9.5-3.5T25 76V63q0-15 11-26t27-11h175q15 0 26 11t11 26v13zm-175 95q0-13 9.5-23t23.5-10h5q0-5 3.5-8.5t8.5-3.5q5 0 9 3.5t4 8.5h3q10 0 18.5 5.5T198 157q3 5 1.5 10t-6 7.5q-4.5 2.5-9.5 1t-8-6.5q-3-5-10-5h-33q-3 0-5.5 2t-2.5 5q0 3 2 5.5t5 2.5l41 7q12 2 19.5 11t7.5 22q0 13-9.5 22.5T167 251h-4q0 5-4 9t-9 4q-5 0-8.5-4t-3.5-9h-4q-10 0-18.5-5T102 232q-3-4-1.5-9t6-7.5q4.5-2.5 9.5-1.5t8 6.5q3 5.5 10 5.5h33q3 0 5.5-2.5t2.5-5.5q0-3-2-5t-4-3l-41-6q-12-2-20-11.5t-8-21.5z"/></svg>