<svg viewBox="0 0 300 302.0011" xmlns="http://www.w3.org/2000/svg"><path d="M150 63v175q0 6-3.5 9.5t-9 3.5q-5.5 0-9-3.5T125 238v-75H25v75q0 6-3.5 9.5t-9 3.5q-5.5 0-9-3.5T0 238V63q0-5 3.5-8.5t9-3.5q5.5 0 9 3.5T25 63v75h100V63q0-5 3.5-8.5t9-3.5q5.5 0 9 3.5T150 63zm138 163h-87l-.5-1q-.5-1-.5-2 5-5 15-12l18-12q22-14 32-22 17-13 25-28 11-18 10-39-1-25-19-42t-43-17q-17 0-31.5 8.5t-23 23Q175 97 175 114q0 5 3.5 8.5t9 3.5q5.5 0 9-3.5t3.5-8.5q0-16 11-27t26-11q15 0 26 10.5t12 25q1 14.5-8 26.5-6 11-20 22-8 6-27 18-15 9-21 14-11 8-17 14.5t-7 14.5q-1 8 2.5 15t10 11q6.5 4 13.5 4h86q6 0 9.5-3.5t3.5-9q0-5.5-3.5-9T287 226h1z"/></svg>