<svg viewBox="0 0 300 302.0011" xmlns="http://www.w3.org/2000/svg"><path d="M6 82q0-13 9.5-22t22-9q12.5 0 22 9T69 82q0 13-9.5 22.5t-22 9q-12.5-.5-22-9.5T6 82zm107 175v31q0 6-4 9.5t-9 3.5q-5 0-8.5-3.5T88 288v-31q0-2-2-4t-5-2H37q-15 0-26-11T0 213v-50q0-15 11-26t26.5-11Q53 126 64 137t11 26v63h6q13 0 22.5 9t9.5 22zm-63-31v-63q0-5-3.5-8.5t-9-3.5q-5.5 0-9 3.5T25 164v49q0 6 3.5 9.5T37 226h13zm213-113q12 1 21.5-8.5T294 82q0-13-9.5-22t-22-9q-12.5 0-22 9T231 82q0 13 9.5 22.5T263 114v-1zm37 50v50q0 16-11 27t-26 11h-44q-3 0-5 2t-2 4v31q1 6-3 9.5t-9 3.5q-5 0-8.5-3.5T188 288v-31q0-13 9-22t22-9h6v-63q0-15 11-26t26.5-11q15.5 0 26.5 11t11 26zm-25 0q0-5-3.5-8.5t-9-3.5q-5.5 0-9 3.5T250 164v62h13q5 0 8.5-3.5t3.5-9.5v-50zm-75 13q0-5-3.5-8.5T187 164h-74q-6-1-9.5 3t-3.5 9q0 5 3.5 8.5t8.5 3.5h76q5 0 8.5-3.5t3.5-8.5zM88 64V38q0-15 10.5-26T124 1h52q15 0 26 11t11 26v26q0 14-10 25t-24 12l-17 14q-5 5-12.5 5t-12.5-5l-17-14q-14-2-23.5-12.5T87 64h1zm25 0q-1 5 2.5 8.5T124 76q5 0 8 3l17 14 17-14q4-3 8-3h2q5 0 8.5-3.5T188 64V38q0-5-3.5-8.5T176 26h-52q-5 0-8 3.5t-3 8.5v26zM50 276H13q-6 0-9.5 3.5t-3.5 9q0 5.5 3.5 9T13 301h37q5 0 9-3.5t4-9q0-5.5-4-9t-9-3.5zm238 0h-38q-5 0-8.5 3.5t-3.5 9q0 5.5 3.5 9t8.5 3.5h38q5 0 8.5-3.5t3.5-9q0-5.5-3.5-9T287 276h1z"/></svg>