<svg viewBox="0 0 300 302.0011" xmlns="http://www.w3.org/2000/svg"><path d="M238 113V38q-1-15-11.5-26T200 1H100Q84 1 73 12T62 39v74q1 22 10.5 41t27 31q17.5 12 38.5 15v76h-38q-5 0-8.5 3.5t-4 9q-.5 5.5 3.5 9t9 3.5h100q5 0 9-3.5t4-9q0-5.5-4-9t-9-3.5h-37v-76q20-3 37.5-15t27.5-31q10-19 10-41zm-150 0V38q-1-5 3-8.5t9-3.5h38l-25 36q-3 10 3.5 18t16.5 9h26l-20 30q-2 5-1 10t4.5 7q3.5 2 7.5 2 7 0 11-5l23-38q3-5 3.5-10.5T185 74q-3-5-7.5-8T167 63h-25l27-37h31q5 0 9 3.5t4 8.5v75q0 17-8.5 31.5t-23 23Q167 176 150 176t-31.5-8.5Q104 159 96 144.5T88 113z"/></svg>