<svg viewBox="0 0 300 302.0011" xmlns="http://www.w3.org/2000/svg"><path d="M67 232q-5 0-8.5-4t-3.5-9q0-5 3-9l51-50q4-4 4-9t-4-9L58 92q-3-4-3-9t3.5-9q3.5-4 8.5-4t9 4l51 50q10 11 10 27t-10 27l-51 50q-4 4-9 4zm233 6V63q0-16-8.5-30.5t-23-23Q254 1 238 1H63Q46 1 31.5 9.5t-23 23Q0 47 0 64v174q0 17 8.5 31.5t23 23Q46 301 63 301h175q16 0 30.5-8.5t23-23Q300 255 300 238zM238 26q15 0 26 11t11 27v174q0 16-11 27t-27 11H63q-16 0-27-11t-11-27V63q0-15 11-26t27-11h175zm12 187q0-5-3.5-8.5T238 201h-88q-5 0-8.5 3.5t-3.5 9q0 5.5 3.5 9t8.5 3.5h88q5 0 8.5-3.5t3.5-9.5z"/></svg>