<svg viewBox="0 0 300 302.0011" xmlns="http://www.w3.org/2000/svg"><path d="M288 226h-38v-38q0-5-3.5-8.5t-9-3.5q-5.5 0-9 3.5T225 189v37h-37q-6 0-9.5 3.5t-3.5 9q0 5.5 3.5 9t8.5 3.5h38v37q0 6 3.5 9.5t9 3.5q5.5 0 9-3.5t3.5-8.5v-38h38q5 0 8.5-3.5t3.5-9q0-5.5-3.5-9T288 226zM138 88v58l-34 34q-6 5-4 12t9 9q7 2 12-4l38-37q3-4 3-9V88q1-5-3-8.5t-9-3.5q-5 0-9 3.5t-4 8.5h1zm46 183q-27 8-54.5 3.5t-50-20.5q-22.5-16-37-40T26 162.5Q24 135 33 109t29-46q20-20 46-29.5t53.5-7q27.5 2.5 52 17t40 37q15.5 22.5 20 50T270 185q-2 7 3 12.5t12.5 3.5q7.5-2 8.5-9 10-33 4.5-65.5t-24.5-60Q255 39 226 22T164 2q-33-3-64.5 8T44 45Q20 69 9 100.5T1 165q3 33 20 62t44.5 47.5Q93 293 126 299t65-4q7-1 9-8.5t-3.5-12.5q-5.5-5-12.5-3z"/></svg>