<svg viewBox="0 0 300.0114 302.0011" xmlns="http://www.w3.org/2000/svg"><path d="M285 176l-31 8q-7 2-12 6l-33-19q7-20 0-40l33-19q5 4 12 6l34 9q4 0 7.5-3t4-8q.5-5-2-8.5T291 102l-31-8q-3-1-5-4t-1-7l8-30q1-5-1.5-9.5t-7.5-6q-5-1.5-9.5 1T238 46l-8 31q-2 7-1 14l-33 19q-13-16-34-20V52q7-2 12-7l22-23q4-3 4-8.5t-3.5-9Q193 1 187.5 1T179 5l-23 22q-2 3-6 3t-6-3L121 5q-3-4-8.5-4t-9 3.5q-3.5 3.5-3.5 9t4 8.5l22 23q5 5 11 7v38q-20 4-33 20L71 91q1-7-1-14l-8-31q-1-5-5.5-7.5t-9.5-1q-5 1.5-7.5 6T38 53l8 30q1 4-1 7t-5 4l-31 8q-4 1-7 5t-2 9q1 5 4.5 8t7.5 3l34-9q7-1 12-6l33 19q-7 20 0 40l-33 19q-5-4-12-6l-31-8q-4-1-8.5 1.5t-5.5 7q-1 4.5 1 9t7 6.5l31 8q3 1 5 4t1 7l-8 30q-1 5 1.5 9.5t7.5 6q5 1.5 9.5-1T62 256l8-31q2-7 1-14l33-19q13 16 34 20v38q-7 2-12 7l-22 23q-4 3-4 8.5t3.5 9q3.5 3.5 9 3.5t8.5-4l23-22q2-3 6-3t6 3l23 22q3 4 8.5 4t9-3.5q3.5-3.5 3.5-9t-4-8.5l-22-23q-5-5-12-7v-38q21-4 34-20l33 19q-1 7 1 14l8 31q1 5 5.5 7.5t9.5 1q5-1.5 7.5-6t1.5-9.5l-8-30q-1-4 1-7t5-4l31-8q7-2 9-9t-3-12q-5-5-12-3zm-135 12q-16 0-26.5-10.5T113 151q0-16 10.5-27t26.5-11q16 0 27 11t11 27q0 16-11 27t-27 10z"/></svg>