<svg viewBox="0 0 300 302.0011" xmlns="http://www.w3.org/2000/svg"><path d="M125 76q0-10 7.5-17.5T150 51q10 0 17.5 7.5T175 76q0 10-7.5 17.5T150 101q-10 0-17.5-7.5T125 76zm175 75q0 41-20 75.5T225.5 281Q191 301 150 301t-75.5-20Q40 261 20 226.5T0 151q0-41 20-75.5T74.5 21Q109 1 150 1t75.5 20Q260 41 280 75.5t20 75.5zm-25 0q0-34-17-62.5T212.5 43Q184 26 150 26T87.5 43Q59 60 42 88.5T25 151q0 34 17 62.5T87.5 259q28.5 17 62.5 17t62.5-17q28.5-17 45.5-45.5t17-62.5zm-68-61l-47 23h-20L93 90q-5-2-9.5-.5t-7 6q-2.5 4.5-1 9.5t6.5 7l43 22v44l-23 42q-3 4-1.5 9t5 7q3.5 2 7.5 2 7 0 11-6l24-44h4l25 44q3 7 10 6 4 0 7.5-2t5-7q1.5-5-1.5-9l-23-42v-44l43-22q5-2 6.5-7t-.5-9.5q-2-4.5-7-6t-10 .5z"/></svg>