<svg viewBox="0 0 300 302.0011" xmlns="http://www.w3.org/2000/svg"><path d="M238 1H63Q46 1 31.5 9.5t-23 23Q0 47 0 64v12q0 16 13 28v134q0 17 8 31.5t22.5 23Q58 301 75 301h150q17 0 31.5-8.5t23-23Q288 255 288 238V104q12-12 12-28V63q0-16-8.5-30.5t-23-23Q254 1 238 1zM25 63q0-15 11-26t27-11h175q15 0 26 11t11 27v12q0 5-3.5 9t-8.5 4H38q-6-1-9.5-4.5T25 76V63zm238 175q0 16-11 27t-27 11H75q-16 0-27-11t-11-27V113h226v125zm-128 9q7 6 15.5 6t15.5-6q47-38 47-68 0-16-11-28t-26-12q-15 0-26 10-10-10-25-10t-26 12q-11 12-11 28 0 30 47 68zm-10-83q6 0 9.5 4.5T138 179q0 6 3.5 9.5t9 3.5q5.5 0 9-3.5t3.5-9.5q0-6 3.5-10.5t9-4.5q5.5 0 9 4.5t3.5 11q0 6.5-6 15.5-9 15-31 33-23-18-32-33-6-9-6-15.5t3.5-11q3.5-4.5 8.5-4.5z"/></svg>