<svg viewBox="0 0 300 302.0011" xmlns="http://www.w3.org/2000/svg"><path d="M238 26H63q-17 0-31.5 8.5t-23 23Q0 72 0 89v124q0 17 8.5 31.5t23 23Q46 276 63 276h175q16 0 30.5-8.5t23-23Q300 230 300 214V88q0-16-8.5-30.5t-23-23Q254 26 238 26zM63 51h175q15 0 26 11t11 26v50H25V88q0-15 11-26t27-11zm175 200H63q-16 0-27-11t-11-27v-50h38v38q0 5 3.5 8.5T75 213q5 0 9-3.5t4-8.5v-38h25v38q0 5 3.5 8.5t8.5 3.5q5 0 8.5-3.5t3.5-8.5v-38h26v38q0 5 3.5 8.5t8.5 3.5q5 0 8.5-3.5t3.5-8.5v-38h26v38q0 5 3.5 8.5t8.5 3.5q5 0 8.5-3.5t3.5-8.5v-38h38v50q0 16-11 27t-27 11h1z"/></svg>