<svg viewBox="0 0 300 302.0011" xmlns="http://www.w3.org/2000/svg"><path d="M150 113q-16 0-26.5-10.5T113 76q0-16 10.5-26.5t26.5-11q16-.5 26.5 10.5t11 27q.5 16-10.5 26.5T150 113zm0-50q-5 0-8.5 4t-3.5 9q0 5 3.5 9t8.5 3.5q5-.5 9-4t4-8.5q0-5-4-9t-9-4zm0 125q-16 0-26.5-10.5T113 151q0-16 10.5-26.5t26.5-11q16-.5 26.5 10.5t11 27q.5 16-10.5 26.5T150 188zm0-50q-5 0-8.5 4t-3.5 9q0 5 3.5 8.5t8.5 3.5q5 0 9-3.5t4-8.5q0-5-4-9t-9-4zm0 125q-16 0-27-10.5T112.5 226q.5-16 11-27t26.5-10.5q16 .5 26.5 11t11 26.5q.5 16-10.5 27t-27 11v-1zm38 38h-75q-17 0-31.5-8.5t-23-23Q50 255 50 238V63q0-16 8.5-30.5t23-23Q96 1 112 1h76q16 0 30.5 8.5t23 23Q250 47 250 64v174q0 17-8.5 31.5t-23 23Q204 301 187 301h1zM113 26q-16 0-27 11T75 64v174q0 16 11 27t26 11h76q15 0 26-11t11-27V63q0-15-11-26t-26-11h-75z"/></svg>