<svg viewBox="0 0 300 302.0011" xmlns="http://www.w3.org/2000/svg"><path d="M150 151q20 0 37.5-10t27.5-27.5Q225 96 225 76t-10-37.5Q205 21 187.5 11T150 1q-20 0-37.5 10T85 38.5Q75 56 75 76t10 37.5Q95 131 112.5 141t37.5 10zm0-125q21 0 35.5 14.5T200 76q0 21-14.5 35.5T150 126q-21 0-35.5-14.5T100 76q0-21 14.5-35.5T150 26zm125 262q0 6-3.5 9.5t-9 3.5q-5.5 0-9-3.5T250 288q0-25-13.5-46.5T200 209v32q11 4 18 13.5t7 21.5v12q0 6-3.5 9.5t-9 3.5q-5.5 0-9-3.5T200 288v-12q0-5-3.5-8.5t-9-3.5q-5.5 0-9 3.5T175 276v12q0 6-3.5 9.5t-9 3.5q-5.5 0-9-3.5T150 288v-12q0-12 7-21.5t18-13.5v-39q-6-1-12-1h-25q-13 0-25 4v37q5 3 8.5 9t3.5 13q0 10-7.5 17.5T100 289q-10 0-17.5-7.5T75 264q0-7 3.5-13t9.5-9v-25q-18 12-28 31t-10 41q0 5-3.5 8.5t-9 3.5q-5.5 0-9-3.5T25 289q0-31 15-57t41-41q26-15 57-15h25q30 0 56 15t41 41q15 26 15 57v-1z"/></svg>