<svg viewBox="0 0 300 302.0011" xmlns="http://www.w3.org/2000/svg"><path d="M299 184L262 81q-5-12-14-20.5T226 49l-63-15V13q0-5-4-8.5T150 1q-5 0-8.5 3.5T138 14v14L82 15q-15-4-27.5 2.5T37 38L1 134q-1 2-1 8 0 24 15.5 41T54 201q23 1 41-15 8-8 13-19t5-22l-1-11-37-95 62 15 1 222H63q-6 0-9.5 3.5t-3.5 9q0 5.5 3.5 9T62 301h176q5 0 8.5-3.5t3.5-9q0-5.5-3.5-9T237 276h-74V60l58 14 6 2-39 108v8h-1q1 16 8.5 29.5t20 21.5q12.5 8 28.5 8 22 0 38-15 9-8 13.5-19t4.5-22l-1-11zm-244-8q-10-1-18-8t-11-17h61q-2 10-9 16-10 10-23 9zm27-50H31l25-68 26 68zm162-21l26 71h-52l26-71zm-2 121q-10-1-18-8t-10-17h60q-2 10-9 16-9 10-23 9z"/></svg>