<svg viewBox="0 0 300.0196 302.0011" xmlns="http://www.w3.org/2000/svg"><path d="M206 32q0-13 9.5-22t22-9q12.5 0 22 9t9.5 22q0 13-9.5 22.5t-22 9q-12.5-.5-22-9.5T206 32zm86 219q-7 8-17 11v26q0 6-3.5 9.5t-9 3.5q-5.5 0-9-3.5T250 288v-25h-25v25q0 6-3.5 9.5t-9 3.5q-5.5 0-9-3.5T200 288v-26q-10-3-17-11-10-11-8-26l17-110q2-15 14.5-27t31-12q18.5 0 31 12t14.5 28l17 109q2 15-8 26zm-90-17q4 5 10 4h51q6 0 9-3t3-6l-17-110q-1-7-6.5-12.5t-14-5.5q-8.5 0-14 5.5T217 119l-17 110q0 3 2 5zM50 63q13 0 22-9t9-22q0-13-9-22T50 1q-13 0-22 9t-9 22q0 13 9 22.5T50 64v-1zm50 63v62q0 17-13 28v72q1 6-3 9.5t-9 3.5q-5 0-8.5-3.5T63 288v-62H38v62q0 6-4 9.5t-9 3.5q-5 0-9-3.5t-3-9.5v-72Q0 205 0 188v-62q0-21 14.5-35.5T50 76q21 0 35.5 14.5T100 126zm-37 75q5 0 8.5-3.5T75 189v-63q0-10-7.5-17.5T50 101q-10 0-17.5 7.5T25 126v62q0 6 3.5 9.5T38 201h25zM138 1q-6 0-9.5 3.5T125 13v275q0 6 3.5 9.5t9 3.5q5.5 0 9-3.5t3.5-9.5V13q0-5-3.5-8.5T138 1z"/></svg>