<svg viewBox="0 0 300 302.0011" xmlns="http://www.w3.org/2000/svg"><path d="M138 13H56q-23 0-39.5 16.5T0 70v43q0 11 7.5 18.5T25 139h113q10-1 17.5-8t7.5-17V38q0-10-7.5-17.5T138 13zM25 113V70q0-13 9-22t22-9h82v74H25zm219-75h-31q-11 0-18.5 7.5T187 63v163q1 10 8 17.5t17 7.5h32q23 0 39.5-16.5T300 195V95q0-24-16.5-40.5T244 38zm31 157q0 13-9 22t-22 9h-31V63h31q13 0 22 9.5t9 22.5v100zm-137-32H50q-10 0-17.5 7.5T25 188v44q0 24 16.5 40T81 288h57q10 0 17.5-7t7.5-17v-76q0-10-7.5-17.5T138 163zm0 100H81q-13 0-22-9t-9-22v-44h88v75z"/></svg>