<svg viewBox="0 0 300 302.0011" xmlns="http://www.w3.org/2000/svg"><path d="M238 26H125q-17 0-31.5 8.5T71 57.5Q63 72 63 89v74q-1 17 7.5 31.5t23 23Q108 226 125 226h113q16 0 30.5-8.5t23-23Q300 180 300 164V88q0-16-8.5-30.5t-23-23Q254 26 238 26zm-87 175q2-11 10.5-18t19.5-7q11 0 20 7t11 18h-61zm124-38q0 16-11 27t-27 11q-2-21-18-35.5T181.5 151q-21.5 0-37.5 14.5T125 201q-16 0-27-11t-11-26V88q0-15 11-26t27-11h113q15 0 26 11t11 26v75zm-50 100q0 6-3.5 9.5T212 276H63q-17 0-31.5-8.5t-23-23Q0 230 0 214v-76q0-23 16-41 3-4 8.5-4.5t9 3q3.5 3.5 4 9T35 113q-10 11-10 26v74q0 16 11 27t26 11h150q6 0 9.5 3.5t3.5 9.5v-1zm-12-156q0 13-9.5 22t-22.5 9q-13 0-22-9t-9-22q0-13 9-22t22-9q13 0 22 9t9 22h1z"/></svg>