<svg viewBox="0 0 300 302.0011" xmlns="http://www.w3.org/2000/svg"><path d="M188 301q-8 0-11.5-6.5t.5-12.5l19-31h-26q-10 0-16-8t-3-18l1-3 25-40q3-7 10.5-6.5t11 7q3.5 6.5-.5 12.5l-19 31h26q6 0 10.5 3t7 7.5Q225 241 225 247t-3 10l-24 38q-4 6-10 6zm62-13q-5 0-8.5-3t-4-7.5q-.5-4.5 2.5-8.5t7-5q13-4 20.5-14t7.5-23q0-13-7.5-23.5T247 190q-8-1-15-6.5T221 169q-7-17-24.5-25.5t-36-2.5q-18.5 6-28.5 22.5t-6 35.5q2 9-2 17t-13 12q-5 2-8 7t-3 11q0 6 4 10.5t9 6.5h25q5 0 8.5 4t3.5 9q0 5-3.5 8.5T138 288h-20q-6 0-11-1-13-4-22-14.5T75 248q-1-14 6.5-26t19.5-17q-3-18 1-35 6-23 24.5-38.5t43-17.5q24.5-2 45 10.5T244 160q1 3 2.5 3.5t5.5 1.5l2 1q20 6 33 23t13 38.5q0 21.5-13.5 38.5T253 288h-3zM56 213q-4 0-7-2-26-18-39-46.5T1 104q4-38 31-66.5T97 2q25-3 49 2 7 2 12 7t7 12q2 7 0 14t-8 12q-24 22-31 54-1 5-5 8t-9.5 2.5q-5.5-.5-8.5-5t-2-9.5q8-41 39-68 1 0 .5-1l-.5-1q-19-5-39-2-30 5-51 27.5T26 107q-3 25 7 47.5T63 191q4 2 5 6t0 8q-1 4-4.5 6t-7.5 3v-1zM188 76q0 5 3.5 9t8.5 3.5q5-.5 9-4t4-8.5q0-5-4-9t-9-3.5q-5 .5-9 4t-4 8.5h1zm50-38q-1 6 3 9.5t9 3.5q5 0 8.5-3.5t4-9q.5-5.5-3.5-9t-9-3.5q-5 0-9 3.5t-4 8.5h1zm25 75q0 6 3.5 9.5t8.5 3.5q5 0 9-3.5t4-9q0-5.5-4-9t-9-3.5q-5 0-9 3.5t-4 8.5h1z"/></svg>