<svg viewBox="0 0 300 302.0011" xmlns="http://www.w3.org/2000/svg"><path d="M238 63h-27q-4-21-21.5-35T150 14H63q-17 0-31.5 8t-23 22.5Q0 59 0 76v112q0 18 10.5 31.5T38 237q-2 13 3 25t15.5 19.5q10.5 7.5 24 7.5t24.5-7q11-7 16-19t4-25h51l-1 7q0 18 13 30.5t31 12.5q18 0 31-12.5t13-30.5q0-4-1-8 17-4 27.5-17.5T300 189v-63q0-17-8.5-31.5t-23-22.5Q254 64 238 63zm37 63v12h-62V88h25q15 0 26 11t11 27zM25 188V76q0-16 11-27t26-11h88q16 0 27 11t11 27v137H50q-10 0-17.5-7T25 188zm75 57q0 8-5.5 13T81 263q-8 0-13-5t-5-13q0-3 1-7h35q1 4 1 7zm119 18q-8 0-13.5-5t-5.5-13q0-3 1-7h35q1 4 1 7 1 8-4.5 13t-13.5 5zm31-50h-37v-50h62v25q0 11-7.5 18t-17.5 7z"/></svg>