<svg viewBox="0 0 300 302.0011" xmlns="http://www.w3.org/2000/svg"><path d="M50 126h75q21 0 35.5-14.5T175 76V63h38q10 0 17.5 7.5T238 88v13h-19q-6 0-8.5 6t2.5 10l30 31q3 3 7 3t7-3l31-31q4-4 1.5-10t-8.5-6h-18V88q0-20-15-35t-35-15h-40q-4-16-17.5-26.5T125 1H50Q29 1 14.5 15.5T0 51v25q0 21 14.5 35.5T50 126zM25 51q0-10 7.5-17.5T50 26h75q10 0 17.5 7.5T150 51v25q0 10-7.5 17.5T125 101H50q-10 0-17.5-7.5T25 76V51zm225 125H50q-21 0-35.5 14.5T0 226v25q0 21 14.5 35.5T50 301h200q21 0 35.5-14.5T300 251v-25q0-21-14.5-35.5T250 176zM25 226q0-10 7.5-17.5T50 201h7l-32 32v-7zm25 50q-6 0-12-3t-9-8l64-64h39l-75 75h-7zm43 0l75-75h39l-75 75H93zm75 0l75-75h7q6 0 12 3t9 8l-64 64h-39zm107-25q0 10-7.5 17.5T250 276h-7l32-32v7z"/></svg>