<svg viewBox="0 0 300 302.0011" xmlns="http://www.w3.org/2000/svg"><path d="M250 176h-37q-16 0-27 11t-11 26v38q0 15 11 26.5t27 10.5h37q15 1 26-10.5t12-26.5v-38q0-15-11.5-26T250 176zm13 75q0 5-4 8.5t-9 3.5h-37q-6 0-9.5-3.5T200 251v-38q0-5 3.5-8.5t9.5-3.5h37q5 0 9 3.5t4 8.5v38zM146 54q4 4 4 9t-3.5 9q-3.5 4-9 4t-8.5-4L88 33v255q0 6-4 9.5t-9 3.5q-5 0-8.5-3.5T63 288V33L21 72q-4 4-9 4t-8.5-4Q0 68 0 63t4-9l45-42Q59 1 75 1t27 11l44 42zm144 29l-34-55q-3-6-10-10.5T231 13q-8 0-14.5 4T207 28l-35 56q-3 7-3 14.5t4 14q4 6.5 10.5 10T197 126h68q8 0 14.5-3.5t10.5-10q4-6.5 4-14.5t-4-15zm-22 16q-1 2-3 2h-68q-2 0-3-1.5t0-3.5l34-56q1-1 3-1t4 2l34 55v3h-1z"/></svg>