<svg viewBox="0 0 300 302.0011" xmlns="http://www.w3.org/2000/svg"><path d="M275 213v-12q0-17-8.5-31.5t-23-23Q229 138 213 138h-50V88q10 0 17.5-7t7.5-18V38q0-10-7.5-17.5T163 13h-25q-11 0-18 7.5T113 38v25q0 11 7 18t18 7v50H88q-17 0-31.5 8.5t-23 23Q25 184 25 201v12q-10 0-17.5 7.5T0 238v25q0 11 7.5 18.5T25 289h25q10 0 17.5-7.5T75 263v-25q0-10-7.5-17.5T50 213v-12q0-15 11-26.5T88 163h50v50q-11 0-18 7.5t-7 17.5v25q0 11 7 18.5t18 7.5h25q10 0 17.5-7.5T188 263v-25q0-10-7.5-17.5T163 213v-50h50q15 0 26 11.5t11 26.5v12q-10 0-17.5 7.5T225 238v25q0 11 7.5 18.5T250 289h25q10 0 17.5-7.5T300 263v-25q0-10-7.5-17.5T275 213zM138 38h25v25h-25V38zM50 263H25v-25h25v25zm113 0h-25v-25h25v25zm112 0h-25v-25h25v25z"/></svg>