<svg viewBox="0 0 300 302.0011" xmlns="http://www.w3.org/2000/svg"><path d="M150 1q-41 0-75.5 20T20 75.5Q0 110 0 151q2 57 33 95 29 35 73 47.5t88 0q44-12.5 73-47.5 31-38 33-95 0-41-20-75.5T225.5 21Q191 1 150 1zm0 275q-34 0-62.5-17T42 213.5Q25 185 25 151q2-47 28-79 23-30 60-40t74 0q37 10 60 40 26 32 28 79 0 34-17 62.5T212.5 259Q184 276 150 276zM88 120q0-8 5-13.5t13-5.5q8 0 13.5 5.5T125 120q0 8-5.5 13.5t-13.5 5q-8-.5-13-5.5t-5-13zm87 0q0-8 5.5-13.5T194 101q8 0 13.5 5.5T213 120q0 8-5.5 13.5t-13.5 5q-8-.5-13.5-5.5t-5.5-13zm25 43H100q-16 0-26.5 11T63 201q0 16 10.5 26.5T100 239h100q16-1 27-11.5t10.5-26.5q-.5-16-11-26.5T200 163zm-37 25v25h-25v-25h25zm-75 13q0-5 3.5-8.5t8.5-3.5h13v24h-13q-5 0-8.5-3.5T88 201zm112 12h-12v-25h12q5 0 9 4t4 9q0 5-4 8.5t-9 3.5z"/></svg>