<svg viewBox="0 0 300 302.0011" xmlns="http://www.w3.org/2000/svg"><path d="M293 131l-31-68q-7-17-22.5-27T205 26H63q-17 0-31.5 8.5t-23 23Q0 72 0 88v100q0 18 10.5 31.5T38 237v8q0 18 12.5 31T81 288.5q18-.5 31-13t13-30.5v-7h50v7q0 18 13 31t31 12.5q18-.5 31-13t13-30.5v-8q16-4 26.5-17.5T300 188v-21q0-19-8-36h1zm-54-58l24 53h-88V51h30q11 0 20.5 6T239 73zm-139 53V51h50v75h-50zM63 51h12v75H25V88q0-15 11-26t26-11h1zm37 194q0 8-5.5 13T81 263q-8 0-13-5t-5-13v-7h37v7zm119 18q-8 0-13.5-5t-5.5-13v-7h38v7q-1 8-6 13t-13 5zm56-75q0 11-7.5 18t-17.5 7H50q-10 0-17.5-7T25 188v-37h248q2 8 2 16v21z"/></svg>