<svg viewBox="0 0 300 302.0011" xmlns="http://www.w3.org/2000/svg"><path d="M249 70l-43-43q-13-13-28.5-19.5T144 1H88Q71 1 56.5 9.5t-23 23Q25 47 25 63v175q0 17 8.5 31.5t23 23Q71 301 88 301h125q16 0 30.5-8.5t23-23Q275 255 275 238V132q0-17-6.5-33T249 70zm-17 18q6 6 10 13h-54q-6 0-9.5-3.5T175 88V34q7 4 13 10l44 44zm18 150q0 16-11 27t-26 11H88q-16 0-27-11t-11-27V63q0-15 11-26t27-11h62v62q0 16 11 27t27 11h62v112zm-41-72l-18 71q-1 6-5.5 9.5t-10.5 4q-6 .5-11-2.5t-7-9l-7-17-7 17q-2 6-6.5 9t-10.5 3h-1q-6 0-10.5-4t-5.5-10l-18-71q-1-5 1.5-9.5t7.5-5.5q5-1 9.5 1.5t5.5 7.5l13 50 10-26q2-4 5-6t7-2q4 0 7 2t5 6l10 26 13-50q1-5 5.5-7.5t9.5-1.5q5 1 7.5 5.5t1.5 9.5z"/></svg>