<svg viewBox="0 0 300 302.0011" xmlns="http://www.w3.org/2000/svg"><path d="M46 301h-1q-20-1-32.5-15T1 253q1-19 14-32l73-73q5-6 3-13-7-25-1-51 7-31 30-53.5T175 3q19-4 37 0 7 1 12 5.5t7.5 11.5q2.5 7 0 14.5T223 49l-28 27q-7 7-7.5 15.5t5 15q5.5 6.5 14.5 7t16-6.5l32-32q5-5 12-6.5t14 .5q7 2 11.5 7.5T298 89q4 18 0 37-5 32-27.5 55T216 211q-25 6-50-1-7-2-13 3l-74 74q-14 14-33 14zM195 26q-8 0-16 1-24 5-42 22t-23 41q-4 19 1 38 3 10 .5 20t-9.5 17l-73 74q-7 6-7.5 15t5.5 15.5q6 6.5 15 6.5t15-6l75-75q7-7 17-9.5t20 .5q19 5 38 1 24-5 41-23t22-42q2-15 0-29l-33 32q-7 7-16.5 10.5t-19 3q-9.5-.5-18-5T172 122q-11-14-9.5-32T177 59l28-28q3-3 2-4-6-1-12-1z"/></svg>