<svg viewBox="0 0 300.0014 302.0011" xmlns="http://www.w3.org/2000/svg"><path d="M276 40q-7-17-22.5-28T218 1H38q-7 0-10.5 5.5T26 18l23 57Q7 148 0 232q-1 13 3 25.5T16 280q9 10 21 15.5t25 5.5h138q13 0 25-5.5t21-15.5q9-10 13-22.5t3-25.5q-6-86-49-160V26q12-2 23.5 4.5T253 50q22 55 22 113 0 6 3.5 9.5t9 3.5q5.5 0 9-3.5t3.5-9.5q0-63-24-123zm-48 224q-11 12-28 12H63q-23-1-32-17-7-12-5-35 1-13 7-37l2-11h153q5 0 8.5-3.5t3.5-9q0-5.5-3.5-9T188 151H42q10-33 27-63h124q38 69 44 146 2 17-9 30zM188 63H71L56 26h132v37z"/></svg>