<svg viewBox="0 0 300 302.0011" xmlns="http://www.w3.org/2000/svg"><path d="M213 1h-60q-21 0-35 15L90 44q-7 7-11 16t-4 19v109q0 17 8.5 31.5t23 23Q121 251 137 251h76q16 0 30.5-8.5t23-23Q275 205 275 189V63q0-16-8.5-30.5t-23-23Q229 1 212 1h1zm37 187q0 16-11 27t-26 11h-75q-16 0-27-11t-11-26V79q0-10 7-18l28-28q8-7 18-7h60q15 0 26 11t11 27v124zm-37 100q-1 6-4.5 9.5T200 301h-62q-31 0-57-15t-41-41q-15-26-15-57v-87q0-5 3.5-9t9-4q5.5 0 9 4t3.5 9v87q0 24 12 44t32 32q20 12 44 12h62q5 0 9 3.5t4 8.5zm-38-137h-50v-19q0-8 5.5-13.5T144 113h31v38zm50-19v19h-37v-38h18q8 1 13.5 6t5.5 13zm-100 31h38v38h-19q-8 0-13.5-5.5T125 182v-19zm50 0h50v19q0 8-5.5 13.5T206 201h-31v-38z"/></svg>