<svg viewBox="0 0 300 302.0011" xmlns="http://www.w3.org/2000/svg"><path d="M120 149L8 190q-6 2-7.5 9T4 210l35 35-35 35q-4 4-4 9t3.5 8.5q3.5 3.5 9 3.5t8.5-3l35-35 35 35q4 4 9 4l3-1q6-1 9-8l40-112q3-7 1.5-14t-7-12q-5.5-5-12.5-6.5t-14 .5zM95 266l-60-59 94-34-34 93zm205-140q0 34-17 63t-45.5 45.5Q209 251 175 251q-5 0-8.5-3.5T163 239q0-5 3.5-9t8.5-4q27 0 50-13.5t36.5-36q13.5-22.5 13.5-50T261.5 76Q248 53 225 39.5T175 26q-27 0-50 13.5T88.5 76Q75 99 75 126q0 6-3.5 9.5t-9 3.5q-5.5 0-9-3.5T50 126q0-33 17-62t45.5-46Q141 1 175 1t62.5 17Q266 35 283 64t17 62zm-75 0q0-20-14.5-35T175 76q-15 0-27.5 8.5T129 107q-2 5-7 7t-9.5 0q-4.5-2-6.5-7t0-9q9-21 27.5-34T175 51q20 0 37.5 10.5T240 89q10 17 10 37 0 23-12.5 42T204 196q-3 1-6 1t-6-2q-3-2-5-6.5t0-9q2-4.5 7-6.5 14-6 22.5-18.5T225 126z"/></svg>