<svg viewBox="0 0 300 302.0011" xmlns="http://www.w3.org/2000/svg"><path d="M238 26V13q0-5-4-8.5T225 1q-5 0-9 3.5t-4 9.5v12h-74V13q0-5-4-8.5T125 1q-5 0-9 3.5t-4 9.5v12q-16 0-30.5 8.5t-23 23Q50 72 50 89v99q0 17 8.5 31.5t23 23Q96 251 112 251h126q16 0 30.5-8.5t23-23Q300 205 300 189V88q0-16-8.5-30.5t-23-23Q254 26 238 26zm37 162q0 16-11 27t-27 11H113q-16 0-27-11t-11-26v-76h200v75zM75 88q0-15 11-26t26-11h126q15 0 26 11t11 26H75zm175 200q0 6-3.5 9.5T238 301H63q-17 0-31.5-8.5t-23-23Q0 255 0 238V101q0-5 3.5-8.5t9-4q5.5-.5 9 3.5t3.5 9v137q0 16 11 27t27 11h175q5 0 8.5 3.5t3.5 9.5v-1z"/></svg>