<svg viewBox="0 0 300 302.0011" xmlns="http://www.w3.org/2000/svg"><path d="M212 189q38-49 38-90 0-26-13.5-49T200 14Q177 1 150 1t-50 13Q77 27 63.5 50T50 99q0 41 38 90-23 14-36.5 37T38 276v12q0 6 3.5 9.5T50 301q5 0 9-3.5t3-9.5v-12q0-21 11.5-39.5T104 209l18 18q12 12 28 12t28-12l18-18q19 9 30.5 27.5T238 276v12q-1 6 3 9.5t9 3.5q5 0 9-3.5t4-9.5v-12q0-27-14-50t-37-37zm-51 20q-5 5-11 5t-11-5q-25-24-41-48-23-34-23-62 0-20 10-36.5T112.5 36Q130 26 150 26t37.5 10Q205 46 215 62.5T225 99q0 28-23 62-16 24-41 48zm45-118q-1 18-8.5 26t-26.5 9q-3 0-6-2.5t-2-6.5q0-18 8-26t26-9q4 0 6.5 2.5T206 91zm-77 0q8 8 8 26 1 4-2 6.5t-6 2.5q-19-1-26.5-9T94 91q0-4 2.5-6.5T103 82q18 1 26 9z"/></svg>