<svg viewBox="0 0 300 302.0011" xmlns="http://www.w3.org/2000/svg"><path d="M125 101q10 0 17.5 7.5T150 126q0 10-7.5 17.5T125 151q-10 0-17.5-7.5T100 126q0-10 7.5-17.5T125 101zm175 25q0 42-18.5 79t-51 62Q198 292 156 300q-8 2-16 0t-14-7.5q-6-5.5-10-13t-4-16.5v-13q-28-2-52-17t-39.5-39Q5 170 1 141.5T6.5 86q9.5-27 29-47.5T82 8.5q27-9.5 55-7T189.5 19Q214 34 230 58q4 6 .5 12.5t-10.5 7q-7 .5-11-5.5-18-28-49.5-39.5t-63-2Q65 40 45 66.5T25 126q0 33 20 59.5t51.5 36q31.5 9.5 63-2T209 180q3-4 8-5t9 2q4 3 5.5 8t-1.5 9q-16 24-40 38.5T137 250v13q1 6 5 10t10 3q44-9 76-39.5t42-73.5h-7q-16 0-27-10.5T225 126q0-16 11-27t26.5-11Q278 88 289 99t11 27zm-25 0q0-5-3.5-9t-9-4q-5.5 0-9 4t-3.5 9q0 5 3.5 9t9 3.5q5.5-.5 9-4t3.5-8.5z"/></svg>