<svg viewBox="0 0 300 302.0011" xmlns="http://www.w3.org/2000/svg"><path d="M282 194l-23-22q-9-9-21.5-9t-21.5 9l-23 22q-18 19-18 44.5t18.5 44q18.5 18.5 44 18.5t44-18.5q18.5-18.5 18.5-44T282 194zm-18 71q-11 11-26.5 11T211 265q-11-11-11-26.5t11-26.5l23-22q1-2 3.5-2t3.5 2l23 22q11 11 11 26.5T264 265zm-64-114q5 0 9-3.5t4-8.5V26q15 0 26 11t11 27v62q0 5 3.5 9t9 4q5.5 0 9-4t3.5-9V63q0-16-8.5-30.5t-23-23Q229 1 212 1H63Q46 1 31.5 9.5t-23 23Q0 47 0 64v149q0 17 8.5 31.5t23 23Q46 276 63 276h75q5 0 8.5-3.5t3.5-8.5V151h50zM188 26v100h-38V26h38zm-63 100H88V26h37v100zM63 26v100H25V63q0-15 11-26t27-11zM25 213v-62h38v100q-16 0-27-11t-11-27zm100 38H88V151h37v100z"/></svg>