<svg viewBox="0 0 300 302.0011" xmlns="http://www.w3.org/2000/svg"><path d="M291 79l-17-8q-2-19-13.5-35t-29-25.5Q214 1 193 1t-40 11q-19 11-30 29.5T113 82v13q0 18-13 31t-31 13q-18 0-31-13T25 95v-6q0-6-3.5-9.5t-9-3.5q-5.5 0-9 3.5T0 89v50q0 30 13 57.5t35.5 47Q71 263 100 271v18q0 5 3.5 8.5t9 3.5q5.5 0 9-3.5t3.5-8.5v-14l13 1 12-1v14q0 5 3.5 8.5t9 3.5q5.5 0 9-3.5t3.5-8.5v-18q29-8 51.5-27.5t35.5-47q13-27.5 13-57.5v-27l16-7q4-2 6.5-5.5t2.5-8q0-4.5-2.5-8T291 79zM69 163q24 0 44-15v9q0 24-16.5 40T56 213h-2q-25-28-29-65 19 15 44 15zm181-25q0 31-15 57t-41 41q-26 15-57 15t-57-16q25-8 41.5-29.5T138 157V82q0-23 16-39.5T193.5 26q23.5 0 40 16.5T250 82v56zm-25-68q0 8-5.5 13.5T206 89q-8 0-13-5.5T187.5 70q-.5-8 5-13.5T206 51q8 0 13.5 5.5T225 70z"/></svg>