<svg viewBox="0 0 300 302.0011" xmlns="http://www.w3.org/2000/svg"><path d="M238 26H63q-17 0-31.5 8.5t-23 23Q0 72 0 89v124q0 17 8.5 31.5t23 23Q46 276 63 276h175q16 0 30.5-8.5t23-23Q300 230 300 214V88q0-16-8.5-30.5t-23-23Q254 26 237 26h1zm37 187q0 16-11 27t-27 11H63q-16 0-27-11t-11-27V88q0-15 11-26t27-11h175q15 0 26 11t11 26v125zm-72-97l-35 35 35 35q3 4 3 9t-3.5 8.5Q199 207 194 207t-9-3l-35-35-35 35q-4 3-9 3t-8.5-3.5Q94 200 94 195t3-9l35-35-35-35q-3-4-3-9t3.5-8.5Q101 95 106 95t9 3l35 35 35-35q4-3 9-3t8.5 3.5q3.5 3.5 3.5 8.5t-3 9z"/></svg>