<svg viewBox="0 0 300 302.0011" xmlns="http://www.w3.org/2000/svg"><path d="M50 138h200q21 0 35.5-14.5t14.5-35Q300 68 285.5 53T250 38H50q-21 0-35.5 15T0 88.5Q0 109 14.5 124T50 139v-1zm225-50q0 11-7.5 18t-17.5 8h-50V63h50q10 0 17.5 7.5T275 88zM50 63h125v50H50q-10 0-17.5-7T25 88.5q0-10.5 7.5-18T50 63zm200 100H50q-21 0-35.5 15T0 213.5q0 20.5 14.5 35T50 263h200q21 0 35.5-14.5t14.5-35q0-20.5-14.5-35.5T250 164v-1zM25 213q0-10 7.5-17.5T50 188h50v50H50q-10 0-17.5-7T25 213zm225 25H125v-50h125q10 1 17.5 8t7.5 17.5q0 10.5-7.5 18T250 238z"/></svg>