<svg viewBox="0 0 300 302.0011" xmlns="http://www.w3.org/2000/svg"><path d="M225 51V13q0-5-3.5-8.5t-9-3.5q-5.5 0-9 3.5T200 14v26q-6-1-13-1h-74q-7-1-13 1V13q0-5-3.5-8.5t-9-3.5q-5.5 0-9 3.5T75 14v37q-12 9-18.5 22T50 101v100q0 15 6.5 28T75 251v37q0 6 3.5 9.5t9 3.5q5.5 0 9-3.5t3.5-9.5v-26q6 1 13 1h75q6 0 12-1v26q0 6 3.5 9.5t9 3.5q5.5 0 9-3.5t3.5-9.5v-37q12-9 18.5-22t6.5-28V101q0-15-6.5-28T225 51zm0 150q0 16-11 27t-26 11h-75q-16 0-27-11t-11-27V101q0-16 11-26.5T112 64h76q15 0 26 10.5t11 26.5v100zm-25-100q0 5-3.5 8.5T188 113h-75q-6 1-9.5-3t-3.5-9q0-5 3.5-8.5T113 89h75q5 0 8.5 3.5t3.5 8.5zm-75 50q0 5-3.5 8.5t-9 3.5q-5.5 0-9-3.5T100 151q0-5 3.5-8.5t9-4q5.5-.5 9 3.5t3.5 9zm38 0q0 5-4 8.5t-9 3.5q-5 0-8.5-3.5T138 151q0-5 3.5-8.5t8.5-4q5-.5 8.5 3.5t3.5 9h1zm37 0q0 5-3.5 8.5t-9 3.5q-5.5 0-9-3.5T175 151q0-5 3.5-8.5t9-4q5.5-.5 9 3.5t3.5 9zm0 50q0 5-3.5 8.5t-9 3.5q-5.5 0-9-3.5T175 201q0-5 3.5-8.5t9-4q5.5-.5 9 3.5t3.5 9zm-37 0q0 5-4 8.5t-9 3.5q-5 0-8.5-3.5T138 201q0-5 3.5-8.5t8.5-4q5-.5 8.5 3.5t3.5 9h1zm-38 0q0 5-3.5 8.5t-9 3.5q-5.5 0-9-3.5T100 201q0-5 3.5-8.5t9-4q5.5-.5 9 3.5t3.5 9z"/></svg>