<svg viewBox="0 0 300 302.0011" xmlns="http://www.w3.org/2000/svg"><path d="M150 1q-37 0-69 18.5t-50.5 50Q12 101 13 138v124q-1 14 7.5 25t21 13.5q12.5 2.5 23-2t17-14Q88 275 88 263V142q0-18 8-32.5T118 86q14-9 29-9.5t28 5Q188 87 197 98q16 17 16 43v121q0 14 8 25t20.5 13.5q12.5 2.5 23-2t17-14Q288 275 288 263V138q0-37-18.5-68.5t-50.5-50Q187 1 150 1zM63 263q0 6-4 9.5t-9 3.5q-5 0-9-3.5t-4-8.5v-13h26v12zm0-37H38v-25h25v25zm0-50H38v-25h25v25zm1-50H39q2-17 9-32l21 12q-3 10-5 20zm18-41L60 72q10-13 24-24l12 22q-8 7-14 15zm56-33q-11 1-20 5l-13-21q16-7 33-9v25zm45 5q-10-4-21-5V27q18 2 33 8l-12 22zm36 27l-8-8-7-6 13-22 10 8q8 8 14 16l-22 12zm12 22l22-13q7 16 9 33h-25q-2-10-6-20zm32 157q0 6-4 9.5t-9 3.5q-5 0-8.5-3.5T238 264v-13h25v12zm0-37h-25v-25h25v25zm0-50h-25v-25h25v25zm-125-50v162q0 6-4 9.5t-9 3.5q-5 0-9-3.5t-4-9.5V126q0-5 4-8.5t9-3.5q5 0 9 3.5t4 8.5zm50 0v162q0 6-4 9.5t-9 3.5q-5 0-9-3.5t-4-9.5V126q1-5 4.5-9t8.5-3.5q5 .5 9 4t4 8.5z"/></svg>