<svg viewBox="0 0 300 302.0011" xmlns="http://www.w3.org/2000/svg"><path d="M265 248q10-16 10-33.5t-8.5-32q-8.5-14.5-23-23t-31-8.5q-16.5 0-31 8.5t-23 23q-8.5 14.5-8.5 31t8.5 31q8.5 14.5 23 23t32 8.5q17.5 0 33.5-10l32 31q3 4 8.5 4t9-3.5q3.5-3.5 3.5-9t-4-8.5l-31-32zm-90-35q0-15 11-26t26.5-11q15.5 0 26.5 11t11 26.5q0 15.5-11 26.5t-26.5 11q-15.5 0-26.5-11t-11-27zM75 57q0 8-5.5 13.5T56 76q-8 0-13-5.5T38 57q0-8 5-13.5t13-5q8 .5 13.5 5.5T75 57zm50 0q0 8-5.5 13.5T106 76q-8 0-13.5-5.5t-5-13.5q.5-8 5.5-13.5t13-5q8 .5 13.5 5.5t5.5 13zM238 1H63Q46 1 31.5 9.5t-23 23Q0 47 0 64v149q0 17 8.5 31.5t23 23Q46 276 63 276h62q5 0 9-3.5t4-9q0-5.5-4-9t-9-3.5H63q-16 0-27-11t-11-27V113h250v38q0 5 3.5 8.5t9 3.5q5.5 0 9-3.5t3.5-8.5V63q0-16-8.5-30.5t-23-23Q254 1 238 1zM25 88V63q0-15 11-26t27-11h175q15 0 26 11t11 27v24H25z"/></svg>