<svg viewBox="0 0 300 302.0011" xmlns="http://www.w3.org/2000/svg"><path d="M150 138q-17 0-31.5 8.5t-22.5 23Q88 184 88 201t8 31.5q8 14.5 22.5 22.5t31.5 8.5q17 .5 31.5-8t23-23Q213 218 213 201t-8.5-31.5q-8.5-14.5-23-22.5t-31.5-8v-1zm0 100q-16 1-27-10t-10.5-27q.5-16 11-27t26.5-11v21q0 6 5 9.5t10 .5l19-8q4 7 3 15 1 16-10 27t-27 11v-1zm99-168l-43-43q-13-13-29-19.5T144 1H88Q71 1 56.5 9.5t-23 23Q25 47 25 64v174q0 17 8.5 31.5t23 23Q71 301 87 301h126q16 0 30.5-8.5t23-23Q275 255 275 238V132q0-17-6.5-33T249 70zm-17 18q6 6 10 13h-55q-5 0-8.5-3.5T175 89V34q7 4 13 10l44 44zm18 151q0 15-11 26t-26 11H88q-16 0-27-11t-11-26V63q0-15 11-26t27-11h62v62q0 16 11 27t26 11h63v113z"/></svg>