<svg viewBox="0 0 300 302.0011" xmlns="http://www.w3.org/2000/svg"><path d="M244 188H56q-23 0-39.5 16.5T0 244.5q0 23.5 16.5 40T56 301h188q23 0 39.5-16.5t16.5-40q0-23.5-16.5-39.5T244 189v-1zm0 88H56q-13 0-22-9t-9-22q0-13 9-22.5t22-9.5h188q13 1 22 10t9 22q0 13-9 22t-22 9zM100 163h100q21 0 35.5-14.5T250 113V51q0-21-14.5-35.5T200 1H100Q79 1 64.5 15.5T50 51v62q0 21 14.5 36t35.5 14zm38-137h25v37h-25V26zM75 51q0-10 7.5-17.5T100 26h13v37q0 11 7 18t18 8h25q10 0 17.5-7.5T188 64V26h12q10 0 17.5 7.5T225 51v62q0 11-7.5 18.5T200 139H100q-10-1-17.5-8T75 114V51zm0 194q0 8-5.5 13T56 263q-8 0-13-5t-5-13q0-8 5-13.5t13-5.5q8 0 13.5 5.5T75 245zm188 0q-1 8-6 13t-13 5q-8 0-13.5-5t-5.5-13q0-8 5.5-13.5T244 226q8 0 13.5 5.5T263 245zm-94 0q0 8-5.5 13t-13.5 5q-8 0-13.5-5t-5.5-13q0-8 5.5-13.5T150 226q8 0 13.5 5.5T169 245z"/></svg>