<svg viewBox="0 0 300 302.0011" xmlns="http://www.w3.org/2000/svg"><path d="M213 1H88Q71 1 56.5 9.5t-23 23Q25 47 25 64v174q0 17 8.5 31.5t23 23Q71 301 87 301h126q16 0 30.5-8.5t23-23Q275 255 275 238V63q0-16-8.5-30.5t-23-23Q229 1 212 1h1zM88 26h125q15 0 26 11t11 27v37H50V63q0-15 11-26t27-11zm125 250H88q-16 0-27-11t-11-27V126h200v112q0 16-11 27t-26 11zm-13-125H100q-10 0-17.5 7.5T75 176v50q0 10 7.5 17.5T100 251h100q10 0 17.5-7.5T225 226v-50q0-10-7.5-17.5T200 151zm-100 75v-50h100v50H100zm31-163q0-7 5.5-12.5T150 45q8 0 13.5 5.5t5.5 13q0 7.5-5.5 13T150 82q-8 0-13.5-5.5T131 64v-1zm57 0q-1-7 4.5-12.5T206 45q8 0 13.5 5.5t5.5 13q0 7.5-5.5 13T206 82q-8 0-13-5.5T187 64l1-1zM75 63q0-7 5.5-12.5T94 45q8 0 13.5 5.5t5 13q-.5 7.5-5.5 13T94 82q-8 0-13.5-5.5T75 64v-1z"/></svg>