<svg viewBox="0 0 300 302.0011" xmlns="http://www.w3.org/2000/svg"><path d="M88 13q0 6-4 9.5T75 26H63q-16 0-27 11T25 64v12q0 5-3.5 9t-9 3.5q-5.5-.5-9-4T0 76V63q0-16 8.5-30.5t23-23Q46 1 63 1h12q5 0 9 3.5t4 8.5zM13 188q5 0 8.5-3.5T25 176v-50q0-5-3.5-9t-9-3.5q-5.5.5-9 4T0 126v50q0 5 3.5 9t9.5 4v-1zm62 88H63q-16 0-27-11t-11-27v-12q0-5-3.5-9t-9-4q-5.5 0-9 4T0 226v12q0 17 8.5 31.5t23 23Q46 301 63 301h12q5 0 9-3.5t3.5-9q-.5-5.5-4-9T75 276zm213-63q-6 0-9.5 4t-3.5 9v12q0 16-11 27t-27 11h-12q-5 0-8.5 3.5t-3.5 9q0 5.5 3.5 9t8.5 3.5h13q16 0 30.5-8.5t23-23Q300 255 300 238v-12q0-5-3.5-9t-9.5-4h1zm0-100q-6 0-9.5 4t-3.5 9v50q0 5 3.5 9t9 3.5q5.5-.5 9-4t3.5-8.5v-50q0-5-3.5-9t-9.5-4h1zM238 1h-13q-5 0-8.5 3.5t-3.5 9q0 5.5 3.5 9T225 26h13q15 0 26 11t11 27v12q0 5 3.5 9t9 3.5q5.5-.5 9-4T300 76V63q0-16-8.5-30.5t-23-23Q254 1 238 1zm-63 0h-50q-5 0-8.5 3.5t-3.5 9q0 5.5 3.5 9T125 26h50q5 0 9-3.5t4-9q0-5.5-4-9T175 1zm0 275h-50q-5 0-8.5 3.5t-3.5 9q0 5.5 3.5 9t8.5 3.5h50q5 0 8.5-3.5t4-9q.5-5.5-3.5-9t-9-3.5z"/></svg>