<svg viewBox="0 0 300 302.0011" xmlns="http://www.w3.org/2000/svg"><path d="M100 1H50Q29 1 14.5 15.5T0 51v12q0 21 14.5 35.5T50 113h13v25H38q-6 0-9.5 4t-3.5 9q0 5 3.5 9t9.5 4h75q5-1 8.5-4.5t3.5-8.5q0-5-3.5-9t-9.5-4H88v-25h12q21 0 35.5-14.5T150 64V51q0-21-14.5-35.5T100 1zm25 62q0 11-7.5 18.5T100 88H50q-10 0-17.5-7T25 63V51q0-10 7.5-17.5T50 26h50q10 0 17.5 7.5T125 51v12zm125 75h-25q-21 0-35.5 15T175 188v63q0 21 14.5 35.5T225 301h25q21 0 35.5-14.5T300 251v-63q0-20-14.5-35T250 138zm25 113q0 10-7.5 17.5T250 276h-25q-10 0-17.5-7.5T200 251v-63q0-10 7.5-17.5T225 163h25q10 0 17.5 7.5T275 189v62zM175 51q0-5 3.5-9t8.5-4h26q15 0 26 11t11 27v25q0 5-3.5 8.5t-9 3.5q-5.5 0-9-3.5T225 101V76q0-5-3.5-9t-8.5-4h-25q-6 1-9.5-3t-3.5-9zm-25 200q0 5-3.5 8.5T138 263h-38q-16 0-26.5-10.5T63 226v-25q0-5 3.5-9t8.5-4q5 0 8.5 4t3.5 9v25q1 5 4.5 8.5t8.5 3.5h38q5 0 8.5 4t3.5 9zm100 0q0 5-3.5 8.5t-9 3.5q-5.5 0-9-3.5T225 251q0-5 3.5-8.5t9-4q5.5-.5 9 3.5t3.5 9z"/></svg>