<svg viewBox="0 0 300 302.0011" xmlns="http://www.w3.org/2000/svg"><path d="M225 114q-20 0-37.5 12.5t-27.5 34q-10 21.5-10 47t10 47q10 21.5 27.5 34T225 301q20 0 37.5-12.5t27.5-34q10-21.5 10-47t-10-47q-10-21.5-27.5-34T225 114zm-50 93q0-25 12-44.5t31-23.5q6 10 7 22 1 19-11 40-20 36-12 68-12-9-19.5-25.5T175 207zm57 68q-6-9-7-21-1-19 11-40 20-36 12-68 12 9 19.5 25.5T275 207q0 26-12 45.5T232 275zM156 20Q145 9 129.5 4t-33-2.5Q79 4 63 12.5T34 35Q15 53 6.5 76T1 121q3 22 18 36 18 19 47 19 6 0 13-1 17-2 33-10.5t29-22.5q19-18 27.5-41t5.5-45q-3-22-18-36zM51 52q22-22 49-25 4-1 9-1 13 0 23 6-3 11-12 21-13 16-37 24-39 13-57 44-3-16 3.5-34.5T51 52zm73 73q-22 22-49 25-19 3-32-5 3-11 12-21 13-16 37-24 39-13 57-44 3 16-3.5 34.5T124 125z"/></svg>