<svg viewBox="0 0 300 302.0011" xmlns="http://www.w3.org/2000/svg"><path d="M150 301q-41 0-75.5-20T20 226.5Q0 192 0 151t20-75.5Q40 41 74.5 21T150 1q41 0 75.5 20T280 75.5q20 34.5 20 75.5t-20 75.5Q260 261 225.5 281T150 301zm0-275q-34 0-62.5 17T42 88.5Q25 117 25 151t17 62.5Q59 242 87.5 259t62.5 17q34 0 62.5-17t45.5-45.5q17-28.5 17-62.5t-17-62.5Q241 60 212.5 43T150 26zm36 184q15-15 14-36t-16-34.5Q169 126 148 126h-23v-25h50q5 0 9-3.5t4-9q0-5.5-4-9t-9-3.5h-50q-10 0-17.5 7.5T100 101v37q0 6 3.5 9.5t9.5 3.5h35q11 0 18.5 7t8.5 17q1 10-6.5 18t-18.5 8h-37q-6 0-9.5 3.5t-3.5 9q0 5.5 3.5 9t9.5 3.5h37q10 0 19.5-4t16.5-12z"/></svg>