<svg viewBox="0 0 300 302.0011" xmlns="http://www.w3.org/2000/svg"><path d="M282 19q-45-45-132 21Q63-26 18 19t21 132q-66 87-21 132 8 9 19.5 13.5T61 301q37 0 89-39 52 39 89 39 12 0 23.5-4.5T282 283q45-45-21-132 66-87 21-132zm-43 7q15 0 25 11 16 15 8 42-6 22-27 52-17-19-36-38.5T170 56q42-30 69-30zm-10 125q-17 20-37.5 40.5T150 230q-20-17-40.5-37.5T71 151q17-20 38-41t41-38q20 17 40.5 37.5T229 151zM36 37q10-11 25-11 27 0 69 30-19 17-38.5 36.5T55 131q-21-30-27-52-8-27 8-42zm0 228q-16-15-8-42 6-22 27-52 17 19 36.5 39t38.5 36q-30 21-52 27-27 8-42-8zm228 0q-15 16-42 8-22-6-52-27 19-16 38.5-36t36.5-39q21 30 27 52 8 27-8 42zM125 151q0 10 7.5 17.5T150 176q10 0 17.5-7.5T175 151q0-10-7.5-17.5T150 126q-10 0-17.5 7.5T125 151z"/></svg>