<svg viewBox="0 0 300 302.0011" xmlns="http://www.w3.org/2000/svg"><path d="M300 126v37q0 6-3.5 9.5t-9 3.5q-5.5 0-9-3.5T275 163v-37q0-21-14.5-35.5T225 76H32l27 29q4 4 3.5 9t-4 8.5Q55 126 50 126t-9-4L11 89Q0 79 0 63.5T11 37L41 5q3-4 8.5-4t9 3.5Q62 8 62.5 13T59 22L32 51h193q20 0 37.5 10T290 88.5q10 17.5 10 37.5zm-30 99q6 13 5 26.5t-8.5 25q-7.5 11.5-19.5 18t-25 6.5H78q-13 0-25-6.5t-19.5-18Q26 265 25 251.5t5-26.5l73-109q13-15 22-20 11-7 25-7 27 0 47 28l73 108zm-89 51l-25-46q-2-4-6-4t-6 4l-25 46h62zm67-39l-71-105q-13-18-27-19-7 1-12 4t-15 15L52 237q-6 13 2.5 26T78 276h13l31-57q3-8 11-13t17-5q9 0 17 5t12 13l30 57h13q15 0 23.5-13t2.5-26z"/></svg>