<svg viewBox="0 0 300 302.0011" xmlns="http://www.w3.org/2000/svg"><path d="M185 254q-5 15-18 24.5t-29 9.5H75q-21 0-35.5-14.5T25 238v-92q-12-14-12-33v-3l4-12q1-5 5.5-7.5t9.5-1q5 1.5 7.5 6T41 105l-3 10q0 10 7.5 16.5T63 138h12q5 0 9 4t4 9q0 5-4 8.5t-9 3.5H63q-7 0-13-1v39h88q5 0 8.5 3.5t3.5 9q0 5.5-3.5 9T138 226H50v12q0 11 7.5 18t17.5 7h63q8 0 14.5-4.5T161 246q2-5 6.5-7.5t9.5-.5q5 2 7.5 6.5t.5 9.5zm111 43q-3 4-8.5 4t-8.5-4L4 22q-4-3-4-8.5t3.5-9Q7 1 12.5 1T21 5l25 24q18-16 42-16h124q21 0 38 13t23 33l14 51 1 3q0 19-13 33v112l22 22q3 3 3 8.5t-3 8.5h-1zM174 157l76 76v-71q-6 2-12 2h-13q-11 0-21-4.5T188 147q-6 6-14 10zM64 47l91 91q8-2 14-8.5t6-16.5q0-5 3.5-8.5t9-3.5q5.5 0 9 3.5t3.5 8.5q0 11 7.5 18t17.5 7h12q10 0 17.5-6.5T262 115l-14-49q-3-12-13-20t-23-8h-12v25q0 6-3.5 9.5t-9 3.5q-5.5 0-9-3.5T175 63V38h-50v25q0 6-3.5 9.5t-9 3.5q-5.5 0-9-3.5T100 63V38H88q-14 0-24 9z"/></svg>