<svg viewBox="0 0 300 302.0011" xmlns="http://www.w3.org/2000/svg"><path d="M239 120q-13-11-17.5-15t-9.5-4q-5 0-9 4-9 11-15 26-3 10-7 27l-4 15q-2-4-2-8.5t-2-8q-2-3.5-5.5-5t-7.5-.5q-4 1-6 4-14 13-20 25-9 16-9 33 0 24 12 44t32 32q20 12 43.5 12t43.5-12q20-12 32-32t12-44q0-26-21-53-12-15-40-40zm-40 151q-5-6-5-13.5t5-13.5l14-13 13 13q5 6 5 13.5t-5 13.5q-3 2-5.5 3.5t-8 1.5q-5.5 0-8-1.5T199 271zm57-13q0-18-13-31l-22-22q-3-4-8.5-4t-8.5 4l-22 22q-13 13-13 31-9-9-14-20.5t-5-24q0-12.5 7-23.5 8 11 20.5 11t19.5-12q4-7 8-25 5-22 10-31l7 6q25 22 35 34 18 22 18 40 0 13-5 24.5T256 258zm44-195v50q0 6-3.5 9.5t-9 3.5q-5.5 0-9-3.5T275 113V63q0-15-11-26t-27-11H63q-16 0-27 11T25 64v174q0 16 11 27t27 11h50q5 0 8.5 3.5t3.5 9q0 5.5-3.5 9T112 301H63q-17 0-31.5-8.5t-23-23Q0 255 0 238V63q0-16 8.5-30.5t23-23Q46 1 63 1h175q16 0 30.5 8.5t23 23Q300 47 300 64v-1zM63 51q5 0 8.5 3.5t3.5 9q0 5.5-3.5 9t-9 3.5q-5.5 0-9-3.5t-3.5-9q0-5.5 3.5-9T62 51h1zm62 12q0 6-3.5 9.5t-9 3.5q-5.5 0-9-3.5t-3.5-9q0-5.5 3.5-9t9-3.5q5.5 0 9 3.5T125 64v-1z"/></svg>