<svg viewBox="0 0 300 302.0011" xmlns="http://www.w3.org/2000/svg"><path d="M38 265q-4 0-8-2-15-10-23-26t-7-34q1-18 11-33t26-23q-8-15-11-32t1-33q6-34 32-56.5T119.5 1Q154-1 182 19t38 52q2 7 9 9 24 8 42 25.5t25 41.5q1 5-1.5 9.5t-7.5 6q-5 1.5-9.5-1T272 155q-5-18-18.5-31.5T222 104q-9-2-16-9t-9-16q-7-21-23-35t-37-17.5Q116 23 96.5 31T64 56.5Q51 74 49.5 95t8.5 40q5 9 2 19t-12.5 15Q38 174 32 183.5t-7 21Q24 216 29.5 226T45 242q3 3 4.5 6.5t0 7.5q-1.5 4-4.5 6.5t-7 2.5zm201 36q6 0 13-2 17-4 29.5-16.5t16.5-29q4-16.5-.5-32.5t-16-27.5Q270 182 254 178q-8-2-10-6-9-23-29.5-35.5t-45-10.5q-24.5 2-43 17.5T102 183q-4 17-1 34-12 5-19.5 17T75 260q1 14 10 24.5t22 14.5q5 2 10 2h122zm-18-119q4 8 11 13.5t15 6.5q15 4 23 17t4 28q-2 10-9.5 17.5T247 275q-5 1-9 1H118l-4-1q-10-3-13-13-2-7 1-13t10.5-9.5Q120 236 124 228t2-17q-2-11 0-22 4-16 16.5-26.5T171 151q16-1 30 7.5t20 23.5z"/></svg>