<svg viewBox="0 0 300.0012 302.0011" xmlns="http://www.w3.org/2000/svg"><path d="M287 79q13-13 13-32t-13.5-32.5Q273 1 254 1t-32 13L85 151q-14-1-28 4.5T33 171q-13 13-23 46-7 26-10 51-1 14 8 23.5t21 9.5h3q20-3 42-8 41-10 56-25 10-10 15.5-24t4.5-28L287 79zM85 151zm27 100q-7 7-32 14.5T30 276q-2 0-3.5-1.5T25 271q3-25 10.5-50T50 189q13-13 31-13t31 13q13 13 13 31t-13 31zm18-80q-8-7-17-12L239 32q6-6 15-6t15 6q6 6 6 15t-6 15L142 188q-5-9-12-17zm-71-46q4 4 9 4t8.5-4q3.5-4 3.5-9t-3-9L31 62q-6-6-6-15t6-15q6-6 15-6t15 6l45 46q4 3 9 3t9-3.5q4-3.5 4-8.5t-4-9L78 14Q65 1 46 1T13.5 14.5Q0 28 0 47t13 32l46 46zm219 89l-37-37q-4-3-9-3t-8.5 3.5Q220 181 220 186t3 9l37 37q7 7 11 16t4 19v9h-9q-21 0-35-15l-37-37q-4-3-9-3t-8.5 3.5Q173 228 173 233t3 9l37 37q11 11 24.5 16.5T266 301h22q5 0 8.5-3.5t3.5-9.5v-21q0-15-6-28.5T278 214z"/></svg>