<svg viewBox="0 0 300 302.0011" xmlns="http://www.w3.org/2000/svg"><path d="M238 51h-7l-27-35q-5-7-13-11t-17-4h-48q-9 0-17 4T96 16L69 51h-6q-17 0-31.5 8.5t-23 23Q0 97 0 113v125q0 17 8.5 31.5t23 23Q46 301 62 301h176q16 0 30.5-8.5t23-23Q300 255 300 239V113q0-16-8.5-30.5t-23-23Q254 51 238 51zM116 31q4-5 10-5h48q6 0 10 5l16 20H100l16-20zm159 207q0 16-11 27t-27 11H63q-16 0-27-11t-11-26V113q0-15 11-26t26-11h176q15 0 26 11t11 27v124zM150 101q-20 0-37.5 10T85 138.5Q75 156 75 176t10 37.5Q95 231 112.5 241t37.5 10q20 0 37.5-10t27.5-27.5q10-17.5 10-37.5t-10-37.5Q205 121 187.5 111T150 101zm0 125q-21 0-35.5-14.5T100 176q0-21 14.5-35.5T150 126q21 0 35.5 14.5T200 176q0 21-14.5 35.5T150 226z"/></svg>