<svg viewBox="0 0 300 302.0011" xmlns="http://www.w3.org/2000/svg"><path d="M262 110q-13-11-31-9-10 2-18 10-11-10-26-10-9 0-17.5 5T156 119l-1-2 30-63q7-16-.5-31.5T160 2q-13-3-25.5 3T116 24l-3 7-3-6q-6-13-18.5-19.5T66 2Q49 7 41.5 22.5T41 54l30 63-19 38-7 7q-20 20-20 48.5T45 259l13 13q14 14 32.5 21.5T129 301h84q16 0 30.5-8.5t23-23Q275 255 275 239V138q0-17-13-28zm-27 16q6-1 10.5 3t4.5 9v25q0 6-3.5 9.5t-9 3.5q-5.5 0-9-3.5T225 163v-23q0-5 3-9t7-5zm-60 12q0-5 3.5-8.5t9-3.5q5.5 0 9 3.5t3.5 9.5v24q0 6-3.5 9.5t-9 3.5q-5.5 0-9-3.5T175 163v-25zM154 26q6 2 8.5 7t-.5 10l-49 103q-9-9-23-10l49-101q2-5 6.5-7.5T154 26zM64 44q-3-6-.5-11t7.5-6.5q5-1.5 9.5 1T87 35l12 24-14 30-21-45zm149 232h-84q-15 0-28.5-5.5T76 254l-13-13q-13-13-13-30.5T63 180l16-16q3-3 8.5-3t9 3.5q3.5 3.5 3.5 8.5t-4 9l-17 18q-4 3-4 8.5t3.5 9q3.5 3.5 9 3.5t8.5-4l18-17q6-7 9-16l18-38 9 19q1 15 12 25.5t25.5 10.5q14.5 0 24.5-10 11 10 25 10 7 0 13-2v40q0 15-11 26t-27 11h1z"/></svg>