<svg viewBox="0 0 300 302.0011" xmlns="http://www.w3.org/2000/svg"><path d="M288 276h-2L214 98q-2-5 0-10l33-48q3-7 2.5-14.5t-5-13.5q-4.5-6-12-9T217 2l-38 9q-29 5-51.5 23.5T94 80L14 276h-1q-6 0-9.5 3.5t-3.5 9q0 5.5 3.5 9T13 301h275q5 0 8.5-3.5t3.5-9q0-5.5-3.5-9T287 276h1zM117 89q8-21 26-35t41-18l38-10q2 0 2.5 1l.5 1-33 48q-8 16-1 32l68 168H41l76-187zm96 136q0 7-6 9l-17 7-6 17q-3 6-9 6t-9-6l-6-17-17-6q-5-3-5-9t5-9l17-6 6-17q3-5 9-5t9 5l6 17 16 6q6 2 7 8zm-76-54l-6-14-14-5q-4-2-4-7.5t4-6.5l14-6 6-14q1-4 6.5-4t7.5 4l5 14 14 5q5 2 5 7.5t-5 7.5l-14 5-5 14q-2 5-7.5 5t-7.5-5h1z"/></svg>