<svg viewBox="0 0 300 302.0011" xmlns="http://www.w3.org/2000/svg"><path d="M200 1H100Q83 1 68.5 9.5t-23 23Q37 47 38 64v174q0 17 8 31.5t22.5 23Q83 301 100 301h100q17 0 31.5-8.5t23-23Q263 255 262 238V63q1-16-7.5-30.5t-23-23Q217 1 200 1zm38 237q0 16-11 27t-27 11H100q-16 0-27-11t-11-27V63q0-15 11-26t27-11h100q16 0 26.5 11T237 64v174h1zm-88-100q-17 0-31.5 8.5t-22.5 23Q88 184 88 201t8 31.5q8 14.5 22.5 22.5t31.5 8.5q17 .5 31.5-8t23-23Q213 218 213 201t-8.5-31.5q-8.5-14.5-23-22.5t-31.5-8v-1zm0 100q-16 1-27-10t-10.5-27q.5-16 11-27t26.5-11q16 0 26.5 11t11 27q.5 16-10.5 27t-27 11v-1zm19-37q0 8-5.5 13.5T150 220q-8 0-13.5-5.5T131 201q0-8 5.5-13.5T150 182q8 0 13.5 5.5T169 201zm19-150h-75q-11 0-18.5 7.5T87 76v25q1 10 8 17.5t18 7.5h75q10 0 17.5-7.5T213 101V76q-1-10-8-17.5T188 51zm-75 50V76h75v25h-75z"/></svg>