<svg viewBox="0 0 300.0074 302.0011" xmlns="http://www.w3.org/2000/svg"><path d="M106.007 301q-21 0-40.5-8t-34.5-23q-28-29-31-68-2-34 15-72 15-34 43-65 27-29 56-47 7-4 16-4.5t16.5 3.5q7.5 4 12 11.5t4.5 16.5v9l55-34q20-12 31-16 10-4 21-2t19 10q8 8 10.5 19t-2 21.5q-4.5 10.5-15.5 30.5l-35 56h9q9 0 16.5 4t11.5 11.5q4 7.5 3.5 16.5t-4.5 16q-20 30-45 54-29 27-60 43-36 17-72 17zm25-263q-2 1-3 2-35 20-63 56-32 39-39 78-7 45 23 78 33 30 78 23 38-7 78-39 36-28 56-63 2-3 .5-6.5t-5.5-3.5h-31q-7 1-10.5-5.5t-.5-12.5q6-11 23-37v-1q32-50 37-64 3-8-3-13.5t-13-2.5q-14 5-64 37h-1q-26 17-37 23-6 3-12-.5t-6-10.5V45q0-4-2.5-5t-4.5-1v-1zm-18 200q-24 0-37-15t-13-34.5q0-19.5 13-34.5t36.5-15q23.5 0 36.5 15t13 34.5q0 19.5-13 34.5t-36 16v-1zm0-75q-12 1-18.5 8t-6.5 17.5q0 10.5 6.5 17.5t18 7q11.5 0 18-7t6.5-17.5q0-10.5-6.5-17.5t-17.5-7v-1z"/></svg>