<svg viewBox="0 0 300 302.0011" xmlns="http://www.w3.org/2000/svg"><path d="M225 90q-7-1-10-7-14-30-44.5-45.5T106 28q-30 5-52 27.5T26 109q-3 18 1 36 1 6-4 11-11 10-17 23.5T0 207q0 19 9.5 34.5t25 25Q50 276 69 276h137q26 0 47.5-12.5t34-34Q300 208 300 182q0-33-21.5-59T225 90zm-19 161H69q-18 0-31-13t-13-31q0-9 4-17.5t11-15q7-6.5 10-15.5t1-19q-2-13 0-27 4-23 20.5-40T111 52q7-1 14-1 22 0 40 11.5T193 94q4 8 11 13.5t16 7.5q24 5 39.5 24t15.5 43q0 19-9.5 34.5t-25 25Q225 251 206 251zm-17-96q4 3 4 8.5t-4 9q-4 3.5-9 3.5t-9-4l-21-21v62q0 6-3.5 9.5t-9 3.5q-5.5 0-9-3.5T125 213v-62l-21 21q-4 4-9 4t-9-3.5q-4-3.5-4-9t4-8.5l34-34q7-7 17-7h1q10 0 17 7l34 34z"/></svg>