<svg viewBox="0 0 300.0015 302.0011" xmlns="http://www.w3.org/2000/svg"><path d="M75 238q0 6-3.5 9.5t-9 3.5q-5.5 0-9-3.5t-3.5-9q0-5.5 3.5-9t9-3.5q5.5 0 9 3.5T75 239v-1zM297 96q-4 8-11.5 13t-16.5 4h-57q0 22-2 38h5q16 0 26.5 12t8 27.5q-2.5 15.5-14 25.5T209 226h-16q-11 23-36 41-23 16-52 25t-55 9q-11 0-20-4t-16.5-11.5Q6 278 2.5 268T0 248q1-51 25-95v-7q0-23 10-43t28-33.5Q81 56 104 52q8-2 16.5.5t15 8Q142 66 146 74t4 17q16-2 37-2V32q1-9 5.5-16.5T205 4q8-4 16.5-3T238 7q17 13 22 34 21 5 34 23 5 7 6 15.5T297 96zM55 120q32-21 70-26v-3q0-7-5-11.5T108 76q-18 3-32.5 15T55 120zm55 146q-7-28-27-48t-48-27q-8 29-10 59-1 11 7 19t19 7q30-2 59-10zm77-152q-59 1-92.5 13.5T45 168q32 9 55.5 32.5T133 256q28-16 40.5-49.5T187 114zm20 62q-2 13-5 25h7q6 0 10.5-4t5.5-9q1-5-2-8.5t-8-3.5h-8zm67-98q-10-13-26-15-4 0-7-3t-3-7q-2-16-15-26-3-2-7-.5t-3 5.5v56h56q4 1 5.5-2.5T274 78z"/></svg>