<svg viewBox="0 0 300 302.0011" xmlns="http://www.w3.org/2000/svg"><path d="M275 1h-37q-6 0-9.5 3.5t-3.5 9q0 5.5 3.5 9T238 26h19l-64 64q-19-14-43-14t-43 14L90 74l10-10q4-4 4-9t-3.5-9q-3.5-4-9-4T83 46L73 56 43 26h20q5 0 8.5-3.5t3.5-9q0-5.5-3.5-9T63 1H25Q15 1 7.5 8.5T0 26v37q0 6 3.5 9.5t9 3.5q5.5 0 9-3.5T25 63V44l30 30-10 10q-4 3-4 8.5t4 9q4 3.5 9 3.5t9-4l10-10 16 17q-14 19-14 43 0 28 18 48.5t45 25.5v26h-13q-5 0-8.5 3.5t-3.5 9q0 5.5 3.5 9t8.5 3.5h13v12q0 6 3.5 9.5t8.5 3.5q5 0 9-3.5t3-9.5v-12h13q5 0 9-3.5t4-9q0-5.5-4-9t-9-3.5h-12v-26q26-5 44-25.5t18-48.5q0-24-14-43l64-64v19q0 6 3.5 9.5t9 3.5q5.5 0 9-3.5T300 63V26q0-10-7.5-17.5T275 1zM150 201q-21 0-35.5-14.5T100 151q0-21 14.5-35.5T150 101q21 0 35.5 14.5T200 151q0 21-14.5 35.5T150 201z"/></svg>