<svg viewBox="0 0 300 302.0011" xmlns="http://www.w3.org/2000/svg"><path d="M250 282q0 8-5.5 13.5T231 301q-8 0-13.5-5.5T212 282q0-8 5.5-13t13.5-5.5q8-.5 13.5 5T250 282zM56 263q-8 0-13 5.5T38 282q0 8 5 13.5t13 5.5q8 0 13.5-5.5T75 282q0-8-5.5-13.5T56 264v-1zM225 65q-7-1-10-7-14-30-44.5-45.5T106 3Q76 8 54 30.5T26 84q-3 18 1 36 1 6-4 11-11 10-17 23.5T0 182q0 24 15 43t38 24l3 1q5 0 8-3t4.5-7.5q1.5-4.5-1.5-9t-8-5.5q-15-3-24.5-15.5T25 182q0-9 3.5-17.5t11-15Q47 143 50 134t1-19q-2-13 0-27 4-23 20.5-40T111 27q25-4 48 7.5T193 69q4 8 11 13.5t16 7.5q24 5 39.5 24t15.5 43q0 21-11.5 38.5T233 221q-5 2-7 6.5t0 9.5q2 5 7 7t9 0q27-11 42.5-34.5T300 157q0-33-21.5-59T225 65zm-38 162q2-6 1.5-12t-5-10q-4.5-4-10.5-5t-11 2q-2-6-7-10t-11.5-3.5q-6.5.5-11 4T126 202q-6-3-12-2t-10 5q-4 4-5 10t2 12q-6 2-10 6.5t-4 11q0 6.5 4 11.5t10 7q-3 5-2 11t5.5 11q4.5 5 12.5 5 4 0 9-2 2 5 6.5 9t11 4q6.5 0 11.5-4t7-9q4 2 8 2 8 0 13-5t5.5-11q.5-6-1.5-11 5-2 9-7t4-11.5q0-6.5-4-11t-9-6.5z"/></svg>