<svg viewBox="0 0 300.0014 302.0011" xmlns="http://www.w3.org/2000/svg"><path d="M125 188v25q0 6-3.5 9.5t-9 3.5q-5.5 0-9-3.5T100 213v-25q0-5 3.5-8.5t9-3.5q5.5 0 9 3.5t3.5 9.5v-1zM289 76q-5 0-9-3t-5-8q-2-16-14.5-27.5t-30-11.5q-17.5 0-30 13T188 70v36q16 8 26.5 23.5T225 163v75q0 17-8.5 31.5t-23 23Q179 301 162 301H63q-17 0-31.5-8.5t-23-23Q0 255 0 238v-75q0-16 8.5-30.5t23-23Q46 101 63 101h100V70q0-19 9-34.5t25-25Q213 1 231 1q27 0 46.5 17.5T300 62q1 5-2.5 9t-8.5 5zm-126 50H63q-16 0-27 11t-11 26v75q0 16 11 27t27 11h100q15 0 26-11t11-27v-75q0-15-11-26t-26-11z"/></svg>