<svg viewBox="0 0 300 302.0011" xmlns="http://www.w3.org/2000/svg"><path d="M119 181q13 12 31 12t31-12l31-31q12-12 19-28t6.5-33.5q-.5-17.5-7-33.5t-19-28.5q-12.5-12.5-28-19T150 1q-18 0-33.5 6.5T88 27Q71 43 65.5 65.5t0 45.5Q71 134 88 150l31 31zM106 44q18-18 44-18t44.5 18.5Q213 63 213 88.5T194 133l-31 30q-5 5-13 5t-13-5l-31-30q-18-19-18-44.5T106 44zm7 44q0-15 10.5-26T150 51q16 0 26.5 11t11 26.5Q188 104 177 115t-27 11q-16 0-26.5-11T113 88zm186 155l-12-75q-3-16-14-28-4-3-9.5-3t-9 3.5q-3.5 3.5-3.5 9t4 8.5q6 6 7 14l5 29H33l5-29q1-9 8-15 4-3 4-8t-3.5-9q-3.5-4-8.5-4.5t-9 3.5q-13 11-16 29L1 243q-2 11 1 21.5t10 19q7 8.5 17 13t21 4.5h200q11 0 21-4.5t17-13q7-8.5 10-19t1-21.5zm-112-17l7 50h-88l7-50h74zM31 267q-8-9-6-20l4-21h59l-7 50H50q-12 0-19-9zm238 0q-7 9-19 9h-31l-7-50h59l4 21q2 11-6 20z"/></svg>