<svg viewBox="0 0 300 302.0011" xmlns="http://www.w3.org/2000/svg"><path d="M292 200L192 37q-7-11-18-17t-24-6.5q-13-.5-24 6T108 37L7 200q-7 12-7 25.5T6.5 251q6.5 12 18 18.5T50 276h200q14 0 25.5-6.5t18-18.5q6.5-12 6.5-25.5t-8-25.5zm-20 38q-4 6-9.5 9.5T250 251H50q-7 0-12.5-3.5t-9-9.5q-3.5-6-3.5-12.5t4-12.5l49-80 100 68-6 9q-3 5-.5 10.5t8.5 5.5h48q6 0 10-6t1-12l-20-39q-2-5-8-5.5t-9 4.5l-11 15-66-45 5-12q1-4 4.5-5.5t6.5.5l2 1q8 4 11 12l1 2q1 3 4 5 5 3 10-.5t3-9.5l-1-3q-5-15-19-22l-4-2q-10-5-20.5-1T114 118l-4 10-20-14 39-64q7-11 21-11t21 11l100 163q4 6 4 12.5t-3 12.5zM163 76q0 5-4 8.5t-9 3.5q-5 0-8.5-3.5T138 76q0-5 3.5-8.5T150 64q5 0 8.5 3.5T162 76h1zm-67 93l16 11-14 40q-1 3-3.5 4.5T89 226h-1q-5 0-7.5-4t-1.5-9l17-44zm29 20l19 14v14q0 4-3 6.5t-7 2.5q-4 0-6.5-2.5T125 217v-28z"/></svg>