<svg viewBox="0 0 300 302.0011" xmlns="http://www.w3.org/2000/svg"><path d="M158 275q-3 1-8 1-10 0-17.5-7.5T125 251h13q5 0 8.5-3.5t3.5-9q0-5.5-3.5-9T138 226H63q-12 0-19.5-9T38 197l16-90q2-14 12.5-22.5T91 76h118q14 0 24.5 8.5T246 107l8 46q1 5 5.5 8t9.5 2q5-1 8-5t2-9l-8-47q-4-22-21-36.5T210 51q3-7 3-13 0-15-11-26T175 1h-50q-15 0-26 11T88 38q0 7 2 13-22 1-39.5 15T30 102l-16 90q-2 11 .5 22t9.5 19.5q7 8.5 17.5 13T63 251h37q0 21 15 35.5t35 14.5q9 0 17-3 5-2 7-6.5t.5-9.5q-1.5-5-6.5-7t-9 0h-1zM125 26h50q5 0 9 3.5t4 9q0 5.5-4 9t-9 3.5h-50q-5 0-8.5-3.5t-3.5-9q0-5.5 3.5-9T125 26zm175 212q0 6-3.5 9.5T288 251h-38v37q0 6-3.5 9.5t-9 3.5q-5.5 0-9-3.5T225 288v-37h-37q-6 0-9.5-3.5t-3.5-9q0-5.5 3.5-9t9.5-3.5h37v-38q0-5 3.5-8.5t9-3.5q5.5 0 9 3.5t3.5 8.5v38h38q5 0 8.5 3.5t3.5 8.5z"/></svg>