<svg viewBox="0 0 300 302.0011" xmlns="http://www.w3.org/2000/svg"><path d="M100 120q0 8 5.5 13.5t13.5 5q8-.5 13-5.5t5.5-13q.5-8-5-13.5T119 101q-8 0-13.5 5.5T100 120zM213 20q0 8 5 13.5t13 5q8-.5 13.5-5.5t5.5-13q0-8-5.5-13.5T231 1q-8 0-13.5 5.5T212 20h1zm37 62q0 8 5.5 13.5T269 101q8 0 13.5-5.5t5-13.5q-.5-8-5.5-13.5t-13-5q-8 .5-13.5 5.5T250 82zM100 182q0 8 5.5 13.5T119 201q8 0 13-5.5t5.5-13.5q.5-8-5-13t-13.5-5.5q-8-.5-13.5 5T100 182zm63 0q0 8 5 13.5t13 5.5q8 0 13.5-5.5T200 182q0-8-5.5-13t-13.5-5.5q-8-.5-13.5 5T162 182h1zm136-45q0-5-3-8t-8-4q-29-2-54-17.5T193.5 67Q178 42 176 13q-1-4-4-7.5T164 2q-7-1-14-1-41 0-75.5 20T20 75.5Q0 110 0 151t20 75.5Q40 261 74.5 281t75.5 20q41 0 75.5-20t54.5-54.5q20-34.5 20-75.5 0-7-1-14zM150 276q-34 0-62.5-17T42 213.5Q25 185 25 151t17-62.5Q59 60 87.5 43T150 26h2q5 31 22.5 57t43.5 43.5q26 17.5 57 22.5v2q0 34-17 62.5T212.5 259Q184 276 150 276z"/></svg>