<svg viewBox="0 0 300 302.0011" xmlns="http://www.w3.org/2000/svg"><path d="M273 72q6-3 7-9.5T276 52l-31-32Q226 1 198.5 1T151 20L32 140q-19 19-19 46.5T32 234l48 47q19 20 46.5 20t47.5-20l101-100q4-5 3-11t-5.5-8.5q-4.5-2.5-7-7T263 145q0-9 6-14.5t6-14q0-8.5-6-14T263 88q0-5 2.5-9.5T273 72zm-72 147l-45-45 41-41 45 45-41 41zM135 72l44 44-41 41-44-44 41-41zm113 45q-8 9-10 22l-23-23 23-23q1 13 10 24zm-50-91q17 0 30 12l14 15-45 45-44-44 16-16q12-12 29-12zm-42 238q-12 12-29.5 12T97 264l-47-48q-13-12-13-29.5T50 157l27-27 106 107-27 27z"/></svg>