<svg viewBox="0 0 300 302.0011" xmlns="http://www.w3.org/2000/svg"><path d="M163 251q-6 0-9.5-3.5T150 238v-75q0-5-3.5-8.5t-9-3.5-9-3.5q-3.5-3.5-3.5-9t3.5-9q3.5-3.5 9.5-3.5 15 0 26 11t11 26v75q0 6-3.5 9.5T163 251zM150 63q-8 0-13.5 5.5T131 82q0 8 5.5 13.5T150 101q8 0 13.5-5.5T169 82q0-8-5.5-13.5T150 63zm150 175V63q0-16-8.5-30.5t-23-23Q254 1 238 1H63Q46 1 31.5 9.5t-23 23Q0 47 0 63v175q0 17 8.5 31.5t23 23Q46 301 63 301h175q16 0 30.5-8.5t23-23Q300 255 300 238zM238 26q15 0 26 11t11 26v175q0 16-11 27t-26 11H63q-16 0-27-11t-11-27V63q0-15 11-26t27-11h175z"/></svg>