<svg viewBox="0 0 300 302.0011" xmlns="http://www.w3.org/2000/svg"><path d="M256 201h-43v-44q0-18-13-31t-31-13h-38q-18 0-30.5 13T88 157v6H44q-18 0-31 13T0 207v50q0 18 13 31t31 13h212q18 0 31-13t13-31v-12q0-18-13-31t-31-13zm-143-44q0-8 5-13t13-5h38q8-1 13.5 4.5T187 157v119h-74V157zM25 257v-50q0-8 5.5-13t13.5-5h44v87H44q-8 0-13.5-5.5T25 257zm250 0q0 8-5.5 13.5T256 276h-43v-50h43q8 0 13.5 5.5T275 245v12zm0-112q0-3-2-4.5t-4-2.5h-6q-6 0-9.5-3.5T250 126q0-5 3.5-9t9.5-4q2 1 4-1t2-4.5q0-2.5-2-4.5t-4-2h-25q-6 0-9.5-3.5t-3.5-9q0-5.5 3.5-9T238 76h25q12 0 21.5 9t9.5 22q0 8-4 15 10 9 10 22.5t-9 22.5q-9 9-22 9h-31q-6 0-9.5-3.5t-3.5-9q0-5.5 3.5-9t9.5-3.5h31q2 0 4-2t2-4zM50 76q0-5-3.5-8.5t-9-4q-5.5-.5-9 3.5T25 76q0 5-3.5 8.5t-9 3.5q-5.5 0-9-3.5T0 76q0-16 11-27t26.5-11Q53 38 64 49t11 27q0 12-10 22-7 7-22 15h20q5 0 8.5 4t3.5 9q0 5-3.5 9t-8.5 4H20q-7-1-12.5-4.5t-7-9.5Q-1 119 2 113t9-10l11-6q28-15 28-21zm66-37q-4-3-4-8.5t4-8.5l16-16q4-4 9-5t10 1.5q5 2.5 8.5 7T163 19v70q0 5-4 8.5t-9 3.5q-5 0-8.5-3.5T138 89V36l-4 3q-4 4-9 4t-9-3v-1z"/></svg>