<svg viewBox="0 0 300 302.0011" xmlns="http://www.w3.org/2000/svg"><path d="M188 95q0-26-13-47.5t-34.5-34Q119 1 94 1H63Q46 1 31.5 9.5t-23 23Q0 47 0 63v225q0 6 3.5 9.5t9 3.5q5.5 0 9-3.5T25 288V188h68l59 107q3 6 11 6 3 0 6.5-2t5-7q1.5-5-1.5-10l-54-97q30-9 49.5-34T188 95zm-94 68H25V63q0-15 11-26t27-11h31q18 0 34 9.5t25.5 25q9.5 15.5 9.5 34t-9.5 34.5q-9.5 16-25.5 25t-34 9zm162 0h-18q-16 0-27 11.5T200 201v87q0 6 3.5 9.5t9 3.5q5.5 0 9-3.5t3.5-9.5v-37h31q18 0 31-13t13-31q0-18-13-31t-31-13zm0 63h-31v-25q0-5 3.5-9t9.5-4h18q8 0 13.5 5.5T275 207q0 8-5.5 13.5T256 226z"/></svg>