<svg viewBox="0 0 300 302.0011" xmlns="http://www.w3.org/2000/svg"><path d="M63 163q-17 0-31.5 8.5t-23 23Q0 209 0 226t8.5 31.5Q17 272 31.5 280t31 8q16.5 0 31-8t23-22.5Q125 243 125 226t-8.5-31.5Q108 180 93.5 172T63 164v-1zm0 100q-16 0-27-10.5T25 226q0-16 11-27t26.5-11Q78 188 89 199t11 27q0 16-11 26.5T63 263zm175-100q-17 0-31.5 8.5t-23 23Q175 209 175 226t8.5 31.5q8.5 14.5 23 22.5t31 8.5q16.5.5 31-8t23-23Q300 243 300 226t-8.5-31.5q-8.5-14.5-23-22.5t-30.5-8v-1zm0 100q-16 0-27-10.5T200 226q0-16 11-26.5t26.5-11Q253 188 264 199t11 27q0 16-11 26.5T237 263h1zM130 142q-5-4-5-9t4-9l33-31 42 42q3 3 8.5 3t9-3.5q3.5-3.5 3.5-8.5t-4-9l-51-51q-21-15-46-15-10 0-24 5-16 6-25 16-12 13-12 29t10.5 26.5Q84 138 100 138h1q2 14 12 23l25 21v44q0 5 3.5 8.5t8.5 3.5q5 0 9-3.5t4-8.5v-50q-1-6-5-9l-28-25zm-42-41q0-7 6.5-12.5t15.5-9q9-3.5 14-3.5 9 0 17 3l-30 27q-8 7-12 7.5t-7.5-3.5q-3.5-4-3.5-9zm87-69q0-13 9-22t22-9q13 0 22 9t9.5 22q.5 13-9 22T206 63q-13 0-22-9t-9-22z"/></svg>