<svg viewBox="0 0 300 302.0011" xmlns="http://www.w3.org/2000/svg"><path d="M152 240q-10 0-18-7-18-14-32-33-19-24-19-42.5t12-31q12-12.5 28.5-12.5t28.5 10q11-10 28-10t28.5 12.5q11.5 12.5 11.5 31T202 200q-14 19-32 33-8 7-18 7zm-28-102q-7 1-11.5 6t-4.5 12q0 11 14 30 12 16 27 28 3 2 5 0 15-12 27-28 14-19 14-30 0-7-4.5-12.5t-11-5.5q-6.5 0-11 4t-4.5 10.5q0 6.5-3.5 10T152 166q-5 0-9-3.5t-4-8.5q0-8-4.5-12t-10.5-4zm114 163H63q-17 0-31.5-8.5t-23-23Q0 255 0 238V123q0-16 7.5-30T28 71l87-59q16-11 35-11t35 11l87 59q13 8 20.5 22t7.5 30v115q0 17-8.5 31.5t-23 23Q254 301 238 301zM150 26q-11 0-21 6L42 91q-8 6-12.5 14T25 123v115q0 16 11 27t27 11h175q15 0 26-11t11-27V123q0-10-4.5-18T258 91l-87-59q-10-6-21-6z"/></svg>