<svg viewBox="0 0 300 302.0011" xmlns="http://www.w3.org/2000/svg"><path d="M250 201V63q0-15 11-26t27-11q5 0 8.5-3.5t3.5-9q0-5.5-3.5-9T288 1q-17 0-31.5 8.5t-23 23Q225 47 225 63v141l-34 12q0-7-2-13l-20-63q-4-15-18-22t-29-3l-83 27q-15 5-22 18.5T14 188l21 68q2 5 5 10L9 277q-5 1-7.5 6t-1 9.5q1.5 4.5 6.5 7t9 .5l185-61q-3 11-.5 22.5T210 282q7 9 17.5 14t22.5 5q23-1 36-15.5t13-34.5q0-20-13-34.5T250 201zM58 248l-20-67q-1-5 1-9.5t7-5.5l84-27q5-1 9.5 1t6.5 7l19 64q2 5 0 9t-6 7l-86 28q-5 1-9-1t-6-6zm192 28q-11 0-18-7.5t-7-17.5q0-10 7-17.5t17.5-7.5q10.5 0 18 7.5T275 251q0 10-7.5 17.5T250 276zM126 176q1 5-1.5 9.5T118 192l-31 10q-5 1-9.5-1.5T71 193q-2-5 .5-9.5T79 178l31-10q5-2 9.5.5t6.5 7.5z"/></svg>