<svg viewBox="0 0 300 302.0011" xmlns="http://www.w3.org/2000/svg"><path d="M250 1h-22q-21 0-35 15l-41 40q-14 15-15 36v43q-93 69-101 77t-10 20q-2 12 3 22L4 280q-4 3-4 8.5t3.5 9q3.5 3.5 9 3.5t8.5-4l25-25q11 5 23 3t20-10q8-8 77-102h44q20 1 35-14l40-41q15-14 15-35V51q0-21-14.5-35.5T250 1zM71 247q-3 4-8.5 4t-9-3.5q-3.5-3.5-3.5-9t4-8.5q5-6 74-57-51 69-57 74zM275 73q0 10-7 18l-41 40q-7 8-18 7h-24l12-16 49-50q6-5 4-12t-9-9q-7-2-12 4l-50 49-16 12V92q0-11 7-18l40-41q8-7 18-7h22q10 0 17.5 7.5T275 51v22z"/></svg>