<svg viewBox="0 0 300 302.0011" xmlns="http://www.w3.org/2000/svg"><path d="M225 88q0 6-3.5 9.5t-9 3.5q-5.5 0-9-3.5t-3.5-9q0-5.5 3.5-9t9-3.5q5.5 0 9 3.5T225 88zm-50 25q-5 0-9 4t-3.5 9q.5 5 4 9t8.5 3.5q5-.5 9-4t4-8.5q0-5-4-9t-9-4zm-37 38q-6 0-9.5 3.5t-3.5 9q0 5.5 3.5 9t9 3.5q5.5 0 9-3.5t3.5-9q0-5.5-3.5-9T138 151zM298 38l-1 3q-18 51-29 75-19 41-43 70v2q0 30-12 56.5T180 290q-12 11-28 11t-27.5-12Q113 277 113 261v-14q-15-5-25-15v-1l-29 29q-4 3-9 3t-8.5-3.5Q38 256 38 251t3-9l29-29h-1q-10-10-15-24H42q-17-1-29.5-13T0 147q0-17 12-30 20-20 46-31t54-10h3q29-24 70-42 24-12 75-30l3-1q8-3 15.5-1.5T292 9q6 6 7.5 13.5T298 38zM42 163h9q2-16 12-30.5T85 104q-32 7-55 30-5 5-5 12.5t5 12q5 4.5 12 4.5zm154 54q-13 11-27.5 21T137 250v11q1 6 5 10.5t10.5 4.5q6.5 0 10.5-4 25-23 33-55zm78-190q-1-1-2-1l-3 1q-40 14-58 22-30 13-53 26-26 17-47 38-16 16-28 34-8 11-7 25t11 23l19 19q9 10 23 11t25-7q18-12 34-28 21-21 38-47 13-23 26-53 8-18 22-58l1-2q1-2-1-3z"/></svg>