<svg viewBox="0 0 300 302.0011" xmlns="http://www.w3.org/2000/svg"><path d="M150 1q-40 0-74.5 20.5t-55 55Q0 111 0 151.5t20.5 75Q41 261 75.5 281t75 20q40.5 0 75-20t54.5-54.5q20-34.5 20-75t-20-75q-20-34.5-54.5-55T150 1zm0 275q-33 0-62-16.5T42 214q-17-29-17-63t17-62.5Q59 60 88 43t62.5-17Q184 26 213 43t45.5 45.5Q275 117 275 151t-16.5 63Q242 243 213 259.5T150 276zm63-184v108q0 9-6 16.5t-15 9.5h-6q-8 0-14.5-4t-9.5-12l-46-108q0-1-1.5-.5T113 103v108q0 5-3.5 8.5t-9 3.5q-5.5 0-9-3.5T88 211V103q0-10 6-17t15.5-9q9.5-2 17.5 2t12 13l46 108q0 2 1.5 1.5t1.5-1.5V92q0-5 3.5-9t9-4q5.5 0 9 4t3.5 9z"/></svg>