<svg viewBox="0 0 300 302.0011" xmlns="http://www.w3.org/2000/svg"><path d="M38 101h25q15 0 26-11t11-26V38q0-15-11-26T63 1H38Q22 1 11 12T0 39v24q0 16 11 27t27 11zM25 38q0-5 3.5-8.5T38 26h25q5 0 8.5 3.5T75 39v24q0 6-3.5 9.5T63 76H38q-6 0-9.5-3.5T25 63V38zm75 150v-25q0-15-11-26t-26-11H38q-16 0-27 11T0 163v25q0 16 11 27t27 11h25q15 0 26-11t11-26v-1zm-25 0q0 6-3.5 9.5T63 201H38q-6 0-9.5-3.5T25 189v-26q0-5 3.5-8.5T38 151h25q5 0 8.5 3.5T75 164v24zm88-87h25q15 0 26-11t11-26V38q0-15-11-26T188 1h-25q-16 0-27 11t-11 27v24q0 16 11 27t26 11h1zm-13-63q0-5 3.5-8.5T163 26h25q5 0 8.5 3.5T200 39v24q0 6-3.5 9.5T187 76h-24q-6 0-9.5-3.5T150 63V38zm13 19V45q0-3 1.5-5t4.5-2h12q3 1 5 2.5t2 4.5v12q0 3-2 5t-5 2h-12q-3-1-4.5-2.5T163 57zm137 231q0 5-3.5 9t-8.5 4h-1q-4 0-8-3.5t-4-8.5q-1-11-7.5-20T251 256l-55-18q-4-1-6.5-4.5T187 226v-74q1-5-2-9t-8.5-4.5q-5.5-.5-9.5 3t-4 9.5v106q0 5-3 10t-8.5 7.5q-5.5 2.5-11 2T131 272l-23-18q-3-3-8.5-3t-9 4q-3.5 4-3 9t3.5 9l8 6q3 4 3 9.5t-3.5 9Q95 301 90 301t-9-4l-7-6q-11-11-11.5-26.5t10-26.5Q83 227 98 226t27 9l12 11v-95q0-17 13.5-28.5T181 114q14 2 22.5 13t8.5 25v65l47 16q18 6 29 21t12 34z"/></svg>