<svg viewBox="0 0 300 302.0011" xmlns="http://www.w3.org/2000/svg"><path d="M300 232q0 19-9.5 34.5t-25 25Q250 301 231 301h-18q-6 0-9.5-3.5t-3.5-9q0-5.5 3.5-9t8.5-3.5h19q18 0 31-13t13-31q0-12-6-22t-17-16q-4-2-5.5-6.5t.5-9.5q3-7 3-14 0-11-5.5-20T229 130q-4-2-5.5-6.5t0-8.5q1.5-4 1.5-8 0-7-5.5-12.5T206 89h-6q-5 0-9-4t-4-9q0-11-8-25t-18-21q-4 28-24 46-11 9-21 12-2 1-4 1H94q-8 0-13.5 5.5T75 107q0 4 1.5 8t0 8.5Q75 128 71 130q-10 5-15.5 14T50 164q0 7 3 14 2 5 .5 9.5T48 194q-11 6-17 16t-6 22q0 18 13 31t31 13h6q5 0 8.5 3.5t3.5 9q0 5.5-3.5 9T75 301h-6q-19 0-34.5-9.5t-25-25Q0 251 0 232q0-16 7-30t20-24q-2-7-2-14 0-15 6.5-28.5T50 113v-6q0-18 13-30.5T94 64h16q9-5 16-13 11-15 11-37 0-6 4-9.5t9-3.5q14 0 27 9.5t22 24Q208 49 211 64q17 2 28 14t11 29v6q12 9 18.5 22.5T275 164q0 7-2 14 13 10 20 24t7 30zm-85-19l-54 78q-7 10-19 10-5 0-10-2-8-4-11.5-11.5T120 271l6-20h-21q-12 0-19-10t-4-21l27-77q3-8 9.5-12.5T133 126h23q6 0 11.5 3t9 8q3.5 5 4.5 11t-1 12l-6 16h21q7 0 12.5 3.5t8.5 9q3 5.5 2.5 12T215 213zm-22-13l-37 1q-6 0-10-5.5t-2-11.5l12-33h-23l-26 75h37q6 0 10 5t2 11l-9 25 46-67z"/></svg>