<svg viewBox="0 0 300 302.0011" xmlns="http://www.w3.org/2000/svg"><path d="M102 233q-3-4-2-9t5.5-8.5Q110 212 119 208q16-7 31-7t31 7q8 4 14 8 4 3 5 8t-2.5 9.5q-3.5 4.5-9 4.5t-8.5-2q-4-3-9-5-11-5-21-5t-21 5q-6 3-9.5 5.5t-8.5 2q-5-.5-9-5.5zm121-44q-5-2-8.5 2.5T213 200q5 8 8.5 22t3.5 28q0 10 6.5 17.5T248 276q10 1 18.5-6.5T275 251q0-21-18-40-14-15-34-22zm11-60q-4-3-9.5-3t-8.5 4q-7 8-16 8-8 0-15-8-3-4-8.5-4t-9.5 3q-4 3-4.5 8.5t3.5 9.5q14 16 33 16h1q9 0 18.5-4t16.5-12q3-4 2.5-9.5T234 129zm-100 0q-4-3-9.5-3t-8.5 4q-3 4-7.5 6.5T100 138q-8 0-15-8-3-4-8.5-4t-9.5 3q-4 3-4.5 8.5T66 147q14 16 33 16h1q9 0 18.5-4t16.5-12q3-4 2.5-9.5T134 129zM150 1q-41 0-75.5 20T20 75.5Q0 110 0 151t20 75.5Q40 261 74.5 281t75.5 20q28 0 55-10 4-2 6.5-7t.5-9.5q-2-4.5-7-6.5t-10-1q-21 9-45 9-34 0-62.5-17T42 213.5Q25 185 25 151t17-62.5Q59 60 87.5 43T150 26q34 0 62.5 17T258 88.5q17 28.5 17 62.5 0 11-2 23-1 5 2 9t8 5q5 1 9.5-2t5.5-8q2-13 2-27 0-41-20-75.5T225.5 21Q191 1 150 1z"/></svg>