<svg viewBox="0 0 300 302.0011" xmlns="http://www.w3.org/2000/svg"><path d="M175 20q0-8 5.5-13.5T194 1q8 0 13.5 5.5T213 20q0 8-5.5 13T194 38q-8 0-13.5-5T175 20zm106 43q-8 1-13 6t-5 13q0 8 5 13.5t13 5.5q8 0 13.5-5.5T300 82q0-8-5.5-13T281 63zm7 94v100q0 13-10 23t-27 15.5q-17 5.5-37.5 5.5t-37-5q-16.5-5-26.5-14-11 9-29.5 14T81 301q-32 0-56-11-25-12-25-33V57q0-20 25-32 24-12 56.5-12T137 25q26 12 26 32v67q20-11 50-10 21-1 38 5t26.5 16q9.5 10 10.5 22zm-25 33q-21 11-50.5 11T162 190v17q1 4 7 8.5t17.5 7.5q11.5 3 26 3t26-3q11.5-3 18-7.5t6.5-8.5v-17zM138 90q-24 11-57 11T25 90v17q0 3 7 7.5t18 7.5q14 4 31 4t31-4q12-3 19-7.5t7-7.5V90zM25 140v17q0 3 7 7.5t18 7.5q14 4 31 4t31-4q12-3 19-7.5t7-7.5v-17q-24 11-57 11t-56-11zm0 67q0 3 7 7.5t18 7.5q14 4 31 4t31-4q12-3 19-7.5t7-7.5v-17q-24 11-57 11t-56-11v17zm138-50q-1 4 5.5 8.5t18 7.5q11.5 3 26 3t26-3q11.5-3 18-7.5t6.5-8q0-3.5-6.5-8t-18-8q-11.5-3.5-26-3.5t-26 3.5q-11.5 3.5-18 8T162 157h1zM25 57q0 3 7 7.5T50 72q14 4 31 4t31-4q12-3 19-7.5t7-7.5q0-3-7-7.5T112 42q-14-4-31-4t-31 4q-11 3-18 7.5T25 57zm113 200v-17q-24 11-57 11t-56-11v17q0 3 7 7.5t18 7.5q14 4 31 4t31-4q12-3 19-7.5t7-7.5zm125 0v-17q-21 11-50.5 11T162 240v17q1 4 7 8.5t17.5 7.5q11.5 3 26 3t26-3q11.5-3 18-7.5t6.5-8.5zM206 99q3 2 6 2 7 0 11-6l50-75q3-4 2-9t-5.5-8Q265 0 260 1t-8 6l-50 75q-3 4-2 9t6 8z"/></svg>