<svg viewBox="0 0 300 302.0011" xmlns="http://www.w3.org/2000/svg"><path d="M289 149q-11-10-26.5-10T236 149l-87 88q-11 11-11 26v25q0 6 3.5 9.5t8.5 3.5h25q15 0 27-11l87-88q11-11 11-26.5T289 149zm-18 36l-87 87q-4 4-9 4h-12v-13q0-5 3-8l88-88q3-3 8.5-3t9 3.5q3.5 3.5 3.5 8.5t-4 9zm-96-15q0-8-5.5-13.5T156 151q-8 0-13 5.5t-5 12.5q0 7 3 13-7 6-15.5 6t-16.5-4q7-11 11.5-23t4.5-23q0-15-11-26t-26.5-11Q72 101 61 112t-11 26q0 12 6 24.5T71 186q-4 2-9 2t-8.5 4q-3.5 4-3.5 9t3.5 8.5Q57 213 63 213q14 0 28-10 17 10 33 10t28-8q11-7 17-17.5t6-17.5zm-86-2q-6-7-10-15t-4-14q0-6 3.5-9.5t9-3.5q5.5 0 9 3.5t3.5 8.5q0 14-11 30zm24 95q0 6-4 9.5t-9 3.5H63q-17 0-31.5-8.5t-23-23Q0 230 0 213V63q0-16 8.5-30.5t23-23Q46 1 63 1h72q20 0 35 15l40 40q15 15 15 35v22q0 6-3.5 9.5t-9 3.5q-5.5 0-9-3.5T200 113V88h-37q-11 0-18-7t-7-18V26H63q-16 0-27 11T25 63v150q0 16 11 27t27 11h37q5 0 8.5 3.5t4.5 8.5z"/></svg>