<svg viewBox="0 0 300 302.0011" xmlns="http://www.w3.org/2000/svg"><path d="M150 126q-18 0-31 13t-13 31q0 18 13 30.5t31 12.5q18 0 31-12.5t13-30.5q0-18-13-31t-31-13zm0 62q-8 0-13.5-5t-5.5-13q0-8 5.5-13.5T150 151q8 0 13.5 5.5T169 170q0 8-5.5 13t-13.5 5zm99-118l-43-43q-13-13-29-19.5T144 1H88Q71 1 56.5 9.5t-23 23Q25 47 25 64v174q0 17 8.5 31.5t23 23Q71 301 87 301h126q16 0 30.5-8.5t23-23Q275 255 275 238V132q0-17-6.5-33T249 70zm-17 18q6 6 10 13h-55q-5 0-8.5-3.5T175 89V34q7 4 13 10l44 44zM115 276q4-11 13.5-18t21.5-7q12 0 21.5 7t13.5 18h-70zm135-37q0 15-11 26t-26 11h-2q-4-22-21.5-36T150 226q-22 0-39.5 14T89 276h-1q-16 0-27-11t-11-26V63q0-15 11-26t27-11h62v62q0 16 11 27t26 11h63v113z"/></svg>