<svg viewBox="0 0 300 302.0011" xmlns="http://www.w3.org/2000/svg"><path d="M160 1q-32-2-62.5 9.5T44 45Q21 68 9.5 98.5T0 162q3 39 25.5 71T84 283q36 18 80 18h74q16 0 30.5-8.5t23-23Q300 255 300 238v-83q0-40-18.5-74T231 25.5Q199 4 160 1zm115 237q0 16-11 27t-27 11h-73q-38 0-68.5-15t-49-41.5Q28 193 25 160q-2-27 7.5-52.5t28-44Q79 45 102 35.5t48-9.5h9q32 2 58.5 20t42 47q15.5 29 15.5 62v83zm-75-62q0 16-11 27t-26 10v13q0 5-4 8.5t-9 3.5q-5 0-9-3.5t-4-8.5v-13h-3q-10 0-18.5-5T102 195q-3-5-1.5-10t6-7.5q4.5-2.5 9.5-1t8 6.5q3 5 10 6h28q6 0 9.5-4t3.5-8.5q0-4.5-2.5-7T167 166l-38-6q-13-2-21-11.5t-8-22.5q0-16 11-26.5T137 89V76q0-5 4-9t9-4q5 0 8.5 4t3.5 9v12h4q10 1 18.5 6t13.5 13q3 5 1.5 10t-6 7.5q-4.5 2.5-9.5 1t-8-6.5q-3-5-10-5h-28q-6 0-9.5 3.5t-3.5 8q0 4.5 2.5 7t5.5 3.5l38 6q13 2 21 11.5t8 22.5z"/></svg>