<svg viewBox="0 0 300 302.0011" xmlns="http://www.w3.org/2000/svg"><path d="M150 1q-42 0-76.5 23T23 86q-16 39-8 80t38 70l49 46q13 12 30.5 16.5t34.5 0q17-4.5 30-16.5l50-46q30-30 38-71t-8-79.5Q261 47 226.5 24T150 1zm80 217l-50 46q-13 12-30.5 12T120 263l-50-45q-27-27-32-65t14.5-71Q72 49 107 34.5t72-4.5q37 10 60 40t24 68q0 23-8.5 43.5T230 218zM209 97l-38-26q-9-7-21-7t-21 7L91 97q-7 5-11.5 13T75 128v42q0 13 9 22t22 9h88q13 0 22-9t9-22v-42q0-10-4.5-18T209 97zm-9 73q0 2-2 4t-4 2h-19v-25q0-5-3.5-9t-8.5-4h-25q-6 0-9.5 4t-3.5 9v25h-19q-2 0-4-2t-2-4v-42q0-7 5-11l38-26q3-2 7-2t7 2l38 26q5 4 5 11v42z"/></svg>