<svg viewBox="0 0 300 302.0011" xmlns="http://www.w3.org/2000/svg"><path d="M238 63h-26q-3-12-10-23t-18-18q-5-3-10-2t-7.5 5.5Q164 30 165 35t5 8q8 5 12.5 13.5T187 74v139H50q-10 0-17.5-7T25 188v-12q0-5-3.5-8.5t-9-4q-5.5-.5-9 3.5T0 176v12q0 18 11 31.5T38 237q-1 4 0 8 0 18 12.5 30.5T81 288q18 0 31-12.5t13-30.5v-7h50v7q0 18 13 30.5t31 12.5q18 0 31-12.5t13-30.5q0-4-1-8 16-4 27-17.5t11-30.5v-63q0-17-8.5-31.5t-23-22.5Q254 64 238 64v-1zM81 263q-8 0-13-5t-5-13q0-3 1-7h35q1 4 1 7 0 8-5.5 13.5T81 264v-1zm138 0q-8 0-13.5-5t-5.5-13q0-3 1-7h35q2 4 2 7 0 8-5.5 13.5T219 264v-1zm56-75q0 11-7.5 18.5T250 214h-37v-51h62v25zm0-50h-62V88h25q15 1 26 11.5t11 26.5v12zM66 85q-3-4-4-9V51q1-5 4.5-9t8.5-4q5 0 9 4t4 9v20l8 9q4 3 4 8.5t-3.5 9q-3.5 3.5-9 3.5T79 97L66 85zm9 66q20 0 37.5-10t27.5-27.5Q150 96 150 76t-10-37.5Q130 21 112.5 11T75 1Q55 1 37.5 11T10 38.5Q0 56 0 76t10 37.5Q20 131 37.5 141T75 151zm0-125q21 0 35.5 14.5T125 76q0 21-14.5 35.5T75 126q-21 0-35.5-14.5T25 76q0-21 14.5-35.5T75 26z"/></svg>