<svg viewBox="0 0 300 302.0011" xmlns="http://www.w3.org/2000/svg"><path d="M298 60q-5-19-21.5-32T239 13q-21-2-37 8-15-13-33.5-17.5t-37 0Q113 8 98 21q-23-11-45-7-20 4-34 19T1 67.5Q-3 87 7 105q10 19 35 30 3 1 5.5 4t2.5 7v99q0 23 16.5 39.5T106 301h88q23 0 39.5-16.5T250 245v-99q0-4 2.5-7t5.5-4q23-8 34.5-30t5.5-45zm-73 185q0 13-9 22t-22 9h-88q-14 0-23.5-11.5T75 239h150v6zm25-134q-11 4-18 13.5t-7 21.5v67H75v-67q0-12-7-21.5T50 111q-14-5-21-18t-3-26.5q4-13.5 16-21T68 38q14 0 23 9 4 4 10 3.5t9-4.5q8-13 24-17.5t32 0Q182 33 190 45q3 5 9 5.5t10-3.5q7-6 17-8t19 0q12 3 20.5 12.5t9 22q.5 12.5-6 23T250 111z"/></svg>