<svg viewBox="0 0 300 302.0011" xmlns="http://www.w3.org/2000/svg"><path d="M288 138h-25v-25q0-5-4-8.5t-9-3.5q-5 0-9 3.5t-4 8.5v25h-24q-6 0-9.5 4t-3.5 9q0 5 3.5 9t8.5 4h26v24q-1 6 3 9.5t9 3.5q5 0 9-3.5t4-9.5v-25h25q5 1 8.5-3t3.5-9q0-5-3.5-9t-8.5-4zm-175 13q20 0 37-10t27.5-27.5Q188 96 188 76t-10.5-37.5Q167 21 150 11T112.5 1Q92 1 75 11T47.5 38.5Q37 56 37.5 76T48 113.5Q58 131 75 141t38 10zm0-125q20 0 35 14.5T163 76q0 21-15 35.5T112.5 126q-20.5 0-35-14.5T63 76q0-21 14.5-35.5T113 26zm0 150q-31 0-57 15t-41 41Q0 258 0 289q0 5 3.5 8.5t9 3.5q5.5 0 9-3.5T25 289q0-24 12-44t32-32q20-12 43.5-12t43.5 12q20 12 32 32t12 44q0 5 3.5 8.5t9 3.5q5.5 0 9-3.5t3.5-8.5q0-31-15-57t-41-41q-26-15-56-15z"/></svg>