<svg viewBox="0 0 300 302.0011" xmlns="http://www.w3.org/2000/svg"><path d="M150 1q-41 0-75.5 20T20 75.5Q0 110 0 151t20 75.5Q40 261 74.5 281t75.5 20q41 0 75.5-20t54.5-54.5q20-34.5 20-75.5t-20-75.5Q260 41 225.5 21T150 1zm0 275q-34 0-62.5-17T42 213.5Q25 185 25 151t17-62.5Q59 60 87.5 43T150 26q34 0 62.5 17T258 88.5q17 28.5 17 62.5t-17 62.5Q241 242 212.5 259T150 276zM85 109q-4 4-9 4.5t-9-2.5q-4-3-4.5-8.5T65 93q9-10 21-18t24-11q5-1 9.5 1.5T125 73q1 5-2 9.5t-8 5.5q-7 2-15.5 7.5T85 109zm150-16q3 4 2.5 9.5T233 111q-4 3-9 2.5t-9-4.5q-6-8-14.5-13.5T185 88q-5-1-8-5.5t-2-9.5q1-5 5.5-7.5T190 64q12 3 24 11t21 18zm-129 70q-8 1-13.5-4.5t-5-13.5q.5-8 5.5-13.5t13-5.5q8 0 13.5 5.5T125 145q0 8-5.5 13.5T106 164v-1zm107-18q-1 8-6 13.5t-13 5.5q-8 0-13.5-5.5T175 145q0-8 5.5-13.5T194 126q8 0 13.5 5.5T213 145zm-14 81q2 4-1 8t-8 4h-80q-5 0-8-4t-2-9q6-14 19.5-25.5T150 188q17 0 30.5 11.5T199 226z"/></svg>