<svg viewBox="0 0 300 302.0011" xmlns="http://www.w3.org/2000/svg"><path d="M13 301q-6 0-9.5-3.5T0 288V63q0-16 8.5-30.5t23-23Q46 1 63 1h225q5 0 8.5 3.5t3.5 9q0 5.5-3.5 9T288 26H63q-16 0-27 11T25 63v225q0 6-3.5 9.5T13 301zm225-19q0-8-5.5-13.5T219 263q-8 0-13.5 5.5T200 282q0 8 5.5 13.5T219 301q8 0 13.5-5.5T238 282zm-138 0q0-8-5.5-13.5T81 263q-8 0-13 5.5T63 282q0 8 5 13.5t13 5.5q8 0 13.5-5.5T100 282zm200 0q0-8-5.5-13.5T281 263q-8 0-13 5.5t-5 13.5q0 8 5 13.5t13 5.5q8 0 13.5-5.5T300 282zm0-62q0-8-5.5-13.5T281 201q-8 0-13 5.5t-5 13.5q0 8 5 13t13 5q8 0 13.5-5t5.5-13zm0-69q0-8-5.5-13.5T281 132q-8 0-13 5.5t-5 13.5q0 8 5 13.5t13 5.5q8 0 13.5-5.5T300 151zm0-69q0-8-5.5-13.5T281 63q-8 0-13 5.5T263 82q0 8 5 13.5t13 5.5q8 0 13.5-5.5T300 82zM169 282q0-8-5.5-13.5T150 263q-8 0-13.5 5.5T131 282q0 8 5.5 13.5T150 301q8 0 13.5-5.5T169 282z"/></svg>