<svg viewBox="0 0 300 302.0011" xmlns="http://www.w3.org/2000/svg"><path d="M300 142q-2-41-24-73.5t-57-51Q184-1 144 .5t-73.5 23Q37 45 18 79.5T0 154q1 40 21.5 74T76 281.5q34 19.5 74 19.5h88q16 0 30.5-8.5t23-23Q300 255 300 239v-97zm-25 96q0 16-11 27t-27 11h-87q-27 0-51-11t-42-31q-18-20-26-45.5t-5-53q3-27.5 18-51T82.5 46Q106 31 134 27q8-1 16-1 22 0 42.5 7.5T230 55q20 16 31.5 39t13.5 49v95zM100 113h50q5 0 9-3.5t4-8.5q0-5-4-9t-9-4h-50q-5 0-8.5 4t-3.5 9q0 5 3.5 9t8.5 4v-1zm100 25H100q-5 0-8.5 4t-3.5 9q0 5 3.5 9t8.5 4h100q5-1 9-4.5t4-8.5q0-5-4-9t-9-4zm0 50H100q-5 1-8.5 4.5T88 201q0 5 3.5 8.5t8.5 3.5h100q5 0 9-3.5t4-8.5q0-5-4-8.5t-9-3.5v-1z"/></svg>