<svg viewBox="0 0 300 302.0011" xmlns="http://www.w3.org/2000/svg"><path d="M225 301H75q-20 0-37.5-10T10 263.5Q0 246 0 226V32q0-13 9-22t22-9h16q11 0 20 7t11 18l23 106 39-39q5-4 11-4.5t12 2q6 2.5 9 8t3 11.5v11l28-28q5-4 11-4.5t11.5 2q5.5 2.5 9 8T238 110v11l27-28q5-4 11-4.5t12 2q6 2.5 9 8t3 11.5v116q0 20-10 37.5T262.5 291Q245 301 225 301zM31 26q-2 0-4 2t-2 4v194q0 21 14.5 35.5T75 276h150q21 0 35.5-14.5T275 226V119l-41 41q-3 3-6.5 3.5t-7-1Q217 161 215 158t-2-7v-32l-42 41q-2 3-6 3.5t-7.5-1Q154 161 152 158t-2-7v-32l-41 41q-4 3-9 4h-8q-4-1-7.5-3.5T80 154L53 31q0-2-1.5-3.5T47 26H31zm94 200v-13q0-5-3.5-8.5T113 201h-13q-5 0-8.5 3.5T88 213v13q0 5 3.5 8.5t8.5 3.5h13q5 0 8.5-3.5t3.5-8.5zm63 0v-13q0-5-4-8.5t-9-3.5h-12q-6 0-9.5 3.5T150 213v13q0 5 3.5 8.5t9.5 3.5h12q5 0 8.5-3.5t3.5-8.5h1zm62 0v-13q0-5-3.5-8.5T237 201h-12q-5 0-8.5 3.5T213 213v13q0 5 3.5 9t8.5 3h13q5 0 8.5-3.5t3.5-8.5z"/></svg>