<svg viewBox="0 0 300 302.0011" xmlns="http://www.w3.org/2000/svg"><path d="M213 1H88Q71 1 56.5 9.5t-23 23Q25 47 25 64v174q0 17 8.5 31.5t23 23Q71 301 87 301h138q21 0 35.5-14.5T275 251V63q0-16-8.5-30.5t-23-23Q229 1 212 1h1zM88 26h125q15 0 26 11t11 27v144q-12-7-25-7H50V63q0-15 11-26t27-11zm137 250H88q-16 0-27-11t-11-27v-12h175q10 0 17.5 7.5T250 251q0 10-7.5 17.5T225 276zM76 154q2 3 5 3h43l21 35q1 3 5 3t5-3l21-35h43q3 0 5-3t0-6l-21-34 21-35q2-3 0-6t-5-3h-43l-21-35q-1-2-5-2t-5 2l-21 35H81q-3 0-5 3t0 6l21 35-21 34q-2 3 0 6zm74 23l-12-20h24l-12 20zm-19-32l-19-31 19-32h38l19 32-19 31h-38zm76 0h-23l12-19 11 19zm0-63l-11 20-12-20h23zm-57-31l12 19h-24l12-19zM93 82h23l-12 20-11-20zm11 44l12 19H93l11-19z"/></svg>