<svg viewBox="0 0 300 302.0011" xmlns="http://www.w3.org/2000/svg"><path d="M200 301q-15 0-29-7-17 7-35 6.5t-34-8.5q-4-2-8 0-16 10-34.5 9T26 288.5q-15-11.5-21.5-29t-2.5-35q4-17.5 16.5-30T48 178q14-4 29 0 2 0 4-1 10-12 24-18.5t30-7q16-.5 30.5 5T191 173q3 3 9 3 14 0 27 6t22 17q1 2 2 2 9-1 19 2t18 11q8 8 11 19.5t-.5 23Q295 268 287 276t-19.5 11q-11.5 3-23.5 0-3-1-4 0-17 14-40 14zm-30-32q7 0 13 3 10 5 21 4t20-8q5-5 12.5-6.5T251 263q5 1 10 0t8.5-5q3.5-4 5-9t-.5-9q-2-10-12-13-4-1-8-1-7 1-13.5-2t-11-9.5Q225 208 216 205q-5-2-15.5-3.5T185 198q-8-2-12-7-7-8-17-11.5t-20.5-3Q125 177 116 181t-16 12q-6 6-13.5 8.5t-16 .5q-8.5-2-17.5 0t-16 8.5q-7 6.5-10 16T25.5 245q1.5 9 7.5 17 9 11 23 13.5t26-4.5q7-5 15.5-5t16.5 4q10 6 22 6t23-5q5-2 11-2zm116-81h-3q-5-1-7.5-5.5T274 173q2-8 0-17t-8-16.5q-6-7.5-16.5-11.5t-21.5-1q-8 3-15 .5t-12-8.5q-8-9-19.5-14t-23.5-3.5q-12 1.5-22.5 8T119 126q-4 8-11.5 11.5T92 139q-6-1-11 0-13 4-17 16-2 5-6.5 7.5t-9.5.5q-5-2-7-6.5t-1-9.5q5-12 13.5-20T74 115.5q12-3.5 23-1.5 9-16 24.5-26t34-11.5Q174 75 191 82t29 21q16-4 32.5 0t28.5 15.5q12 11.5 16.5 28t.5 32.5q-1 4-4.5 6.5T286 189v-1zM17 126q-8 0-12-7-5-11-5-23t4.5-23Q9 62 18 53.5T38 42q16-6 31-2l1-1q8-16 23-26t33-11.5q18-1.5 34 6T187 29q17-6 35-.5T251 48q2 3 5 4h2q16 3 25 18 2 4 .5 9t-6 8q-4.5 3-9.5 1.5t-7.5-6.5q-2.5-5-7.5-6-14-1-22-12-6-9-16-11.5t-18.5.5q-8.5 3-16.5.5T167 45q-7-10-17.5-14.5t-21.5-4q-11 .5-21 7T92 50q-4 8-12 12t-16.5 2Q55 62 46 65q-13 5-18.5 17.5T28 108q3 6-.5 12T17 126z"/></svg>