<svg viewBox="0 0 300 302.0011" xmlns="http://www.w3.org/2000/svg"><path d="M150 301q-5 0-8.5-3.5T138 288V13q0-5 3.5-8.5T150 1q5 0 9 3.5t4 8.5v275q0 6-4 9.5t-9 3.5zM300 20q0-8-5.5-13.5T281 1q-8 0-13 5.5T263 20q0 8 5 13t13 5q8 0 13.5-5t5.5-13zm-62 0q0-8-5.5-13.5T219 1q-8 0-13.5 5.5T200 20q0 8 5.5 13t13.5 5q8 0 13.5-5t5.5-13zm0 262q0-8-5.5-13.5T219 263q-8 0-13.5 5.5T200 282q0 8 5.5 13.5T219 301q8 0 13.5-5.5T238 282zM100 20q0-8-5.5-13.5T81 1q-8 0-13 5.5T63 20q0 8 5 13t13 5q8 0 13.5-5t5.5-13zm0 262q0-8-5.5-13.5T81 263q-8 0-13 5.5T63 282q0 8 5 13.5t13 5.5q8 0 13.5-5.5T100 282zm200 0q0-8-5.5-13.5T281 263q-8 0-13 5.5t-5 13.5q0 8 5 13.5t13 5.5q8 0 13.5-5.5T300 282zm0-62q0-8-5.5-13.5T281 201q-8 0-13 5.5t-5 13.5q0 8 5 13t13 5q8 0 13.5-5t5.5-13zm0-69q0-8-5.5-13.5T281 132q-8 0-13 5.5t-5 13.5q0 8 5 13.5t13 5.5q8 0 13.5-5.5T300 151zm0-69q0-8-5.5-13.5T281 63q-8 0-13 5.5T263 82q0 8 5 13.5t13 5.5q8 0 13.5-5.5T300 82zM38 20q0-8-5.5-13.5T19 1Q11 1 5.5 6.5T0 20q0 8 5.5 13T19 38q8 0 13.5-5T38 20zm0 262q0-8-5.5-13.5T19 263q-8 0-13.5 5.5T0 282q0 8 5.5 13.5T19 301q8 0 13.5-5.5T38 282zm0-62q0-8-5.5-13.5T19 201q-8 0-13.5 5.5T0 220q0 8 5.5 13t13.5 5q8 0 13.5-5t5.5-13zm0-69q0-8-5.5-13.5T19 132q-8 0-13.5 5.5T0 151q0 8 5.5 13.5T19 170q8 0 13.5-5.5T38 151zm0-69q0-8-5.5-13.5T19 63q-8 0-13.5 5.5T0 82q0 8 5.5 13.5T19 101q8 0 13.5-5.5T38 82zm43 88q8 0 13.5-5.5T100 151q0-8-5.5-13.5T81 132q-8 0-13 5.5T63 151q0 8 5 13.5t13 5.5zm138 0q8 0 13.5-5.5T238 151q0-8-5.5-13.5T219 132q-8 0-13.5 5.5T200 151q0 8 5.5 13.5T219 170z"/></svg>