<svg viewBox="0 0 300 302.0011" xmlns="http://www.w3.org/2000/svg"><path d="M288 138q5 0 8.5-3.5t3.5-8.5q0-5-3.5-9t-8.5-4h-18l-10-31q-5-17-19-29t-32-14q-8-17-23.5-27.5T151 1h-2q-19 0-34.5 10.5T91 39q-18 2-32 14T40 82l-10 31H13q-6 1-9.5 4.5T0 126q0 5 3.5 9t8.5 4h10l-9 28q-7 9-10.5 19.5t-2 22Q2 220 8.5 229T25 244v19q0 16 11 27t26.5 11Q78 301 89 290t11-26v-13h100v12q0 16 11 27t26.5 11q15.5 0 26.5-11t11-27v-19q10-6 16.5-15t8-20.5q1.5-11.5-2-22T287 167l-9-29h10zM149 26h2q17 0 28 12h-58q11-12 28-12zM64 90q3-12 13-19.5T99 63h102q12 0 22 7.5T236 90l20 62-6-1H50l-6 1 20-62zm11 173q0 6-3.5 9.5t-9 3.5q-5.5 0-9-3.5T50 263v-12h25v12zm175 0q0 6-3.5 9.5t-9 3.5q-5.5 0-9-3.5T225 263v-12h25v12zm0-37H50q-10 0-17.5-7.5T25 201q0-10 7.5-17.5T50 176v12q0 6 3.5 9.5t9 3.5q5.5 0 9-3.5T75 188v-12h150v12q0 6 3.5 9.5t9 3.5q5.5 0 9-3.5t3.5-9.5v-12q10 0 17.5 7.5T275 201q0 10-7.5 17.5T250 226z"/></svg>