<svg viewBox="0 0 300 302.0011" xmlns="http://www.w3.org/2000/svg"><path d="M292 106l-38-56q-8-12-22-18L170 5q-10-4-20-4t-20 4L68 32q-14 6-22 18L8 106q-8 13-8 28v104q0 17 8.5 31.5t23 23Q46 301 63 301h175q16 0 30.5-8.5t23-23Q300 255 300 238V134q0-15-8-28zM170 227l43-35v70l-43-35zm20 49h-80l40-33 40 33zm-40-65l-43-35h86l-43 35zm-63-19l43 35-43 35v-70zm188 46q0 16-11 27t-27 11v-88q0-15-11-26t-26-11H100q-16 0-27 11t-11 26v88q-15 0-26-11t-11-27V134q0-8 4-14l38-56q4-6 11-9l62-27q5-2 10-2t10 2l62 27q7 3 11 9l38 56q4 6 4 14v104zM150 51q-16 0-26.5 11T113 88.5q0 15.5 10.5 26.5t26.5 11q16 0 26.5-11t11-26.5Q188 73 177 62t-27-11zm0 50q-5 0-8.5-3.5t-3.5-9q0-5.5 3.5-9T150 76q5 0 9 3.5t4 9q0 5.5-4 9t-9 3.5z"/></svg>