<svg viewBox="0 0 300 302.0011" xmlns="http://www.w3.org/2000/svg"><path d="M113 151q20 0 37-10t27.5-27.5Q188 96 188 76t-10.5-37.5Q167 21 150 11T112.5 1Q92 1 75 11T47.5 38.5Q37 56 37.5 76T48 113.5Q58 131 75 141t38 10zm0-125q20 0 35 14.5T163 76q0 21-15 35.5T112.5 126q-20.5 0-35-14.5T63 76q0-21 14.5-35.5T113 26zm0 150q-31 0-57 15t-41 41Q0 258 0 289q0 5 3.5 8.5t9 3.5q5.5 0 9-3.5T25 289q0-24 12-44t32-32q20-12 43.5-12t43.5 12q20 12 32 32t12 44q0 5 3.5 8.5t9 3.5q5.5 0 9-3.5t3.5-8.5q0-31-15-57t-41-41q-26-15-56-15zm162-77q-11 1-18 9t-7 19q0-11-7-19t-18-8q-11 0-18 8t-7 19q0 14 16 33 10 12 26 25 4 3 8 3t8-3q16-12 26-25 16-19 16-33 0-11-7-19t-18-9z"/></svg>