<svg viewBox="0 0 300.0083 302.0011" xmlns="http://www.w3.org/2000/svg"><path d="M201 51q-13 0-23 7.5T164 78l-50 183q-2 6-7.5 10.5T94 276q-7 0-12.5-4T73 262l-34-96q-4-10-11.5-17.5T10 138q-5-1-8-5.5T.5 123q1.5-5 6-7.5T16 114q16 4 28 15.5T62 157l31 85 47-170q6-20 22.5-33T200 26h88q5 0 8.5 3.5t3.5 9q0 5.5-3.5 9T288 51h-87zm94 102q-4-3-9-2t-9 5l-27 37-27-37q-4-4-9-5t-9 2.5q-4 3.5-5 8.5t3 9l31 42-31 43q-4 4-3 9t5 8.5q4 3.5 9 2.5t9-5l27-37 28 37q3 4 8 5t9-2.5q4-3.5 5-8.5t-2-9l-32-43 32-42q3-4 2-9t-5-8v-1z"/></svg>