<svg viewBox="0 0 300 302.0011" xmlns="http://www.w3.org/2000/svg"><path d="M226 90q3-20 12-33 13-18 37-18 5-1 9-4.5t4-8.5q-2-12-15-13-10-1-23.5 4.5T231 28q-16-13-45-20-26-6-61-7-17 0-38 4-26 5-42 13-20 11-20 27 0 12 11 20 6 5 21 11l4 1q-19 11-35 32.5t-22.5 46Q-3 180 2 201q6 29 29 45.5T83 263q29 0 52-19 15 36 44 50 26 12 55 3.5t47-35.5q20-28 19-67 0-27-9.5-50T264 107.5Q247 93 226 90zm-52 9q-5-8-11-14 20-3 40-10-2 7-2 14-14 3-27 10zM50 45q20-14 54-17 29-3 60 2t48 15q-17 10-48 15t-60 2q-34-4-54-17zm0 185q-22-16-25-42-2-23 11-47t34.5-39Q92 87 114 88q24 2 40 26-17 17-24.5 47t-2.5 57q-18 17-39 20t-38-8zm163 46q-24 0-40-17-15-15-20-39.5t0-49q5-24.5 20-40.5 16-17 39.5-17t39.5 17q15 16 20 40.5t0 49q-5 24.5-20 39.5-16 17-39 17zm12-38q0 6-3.5 9.5T213 251q-17 0-27.5-14T175 201q0-5 3.5-8.5t9-4q5.5-.5 9 3.5t3.5 9q0 10 3.5 17.5t9 7.5q5.5 0 9 3.5t3.5 9.5v-1zM84 141q5 5 4 12-1 3-6 10.5T76 175q-2 6 2 10.5t4.5 9.5q.5 5-3 9t-8.5 4.5q-5 .5-9-3.5-13-11-11-29.5T66 143q3-4 8.5-4.5T84 141z"/></svg>