<svg viewBox="0 0 300 302.0011" xmlns="http://www.w3.org/2000/svg"><path d="M238 1H63Q46 1 31.5 9.5t-23 23Q0 47 0 64v174q0 17 8.5 31.5t23 23Q46 301 63 301h175q16 0 30.5-8.5t23-23Q300 255 300 238V63q0-16-8.5-30.5t-23-23Q254 1 237 1h1zm37 237q0 16-11 27t-27 11H63q-16 0-27-11t-11-27V63q0-15 11-26t27-11h175q15 0 26 11t11 27v174zM213 76v50q0 22-14.5 39.5T163 187v39h25q5 0 8.5 3.5t3.5 9q0 5.5-3.5 9T187 251h-74q-6 0-9.5-3.5t-3.5-9q0-5.5 3.5-9t8.5-3.5h26v-39q-22-4-36.5-22.5T87 123V76q1-10 8-17.5t18-7.5h22l-22 36q-3 10 3.5 18t16.5 8h26l-20 31q-2 5-1 10t4.5 7.5q3.5 2.5 7.5 1.5 7 0 11-5l23-38q3-5 3.5-10.5T185 99q-3-5-7.5-8T167 88h-26l23-37h24q10 0 17.5 7.5T213 76z"/></svg>