<svg viewBox="0 0 300 302.0011" xmlns="http://www.w3.org/2000/svg"><path d="M113 163v63q-1 5-4.5 8.5t-8.5 4q-5 .5-9-3.5t-4-9v-63q1-5 4.5-8.5t8.5-3.5q5 0 9 3.5t4 9.5v-1zm187-12q0 41-20 75.5T225.5 281Q191 301 150 301t-75.5-20Q40 261 20 226.5T0 151q0-41 20-75.5T74.5 21Q109 1 150 1t75.5 20Q260 41 280 75.5t20 75.5zM150 276q22 0 42.5-7.5T229 248L53 72q-13 16-20.5 36.5T25 151q0 34 17 62.5T87.5 259q28.5 17 62.5 17zm19-125q13 0 22-9t9-22q0-13-9-22.5T169 88h-31q-7 0-12.5 3.5T117 100l51 51h1zm106 0q0-34-17-62.5T212.5 43Q184 26 150 26q-22 0-42.5 7.5T71 54l28 28q7-9 17-13.5t22-4.5h31q23 0 39.5 16.5T225 120q0 17-10 31.5T189 172l58 58q13-16 20.5-36.5T275 151z"/></svg>