<svg viewBox="0 0 300 302.0011" xmlns="http://www.w3.org/2000/svg"><path d="M150 1q-41 0-75.5 20T20 75.5Q0 110 0 151t20 75.5Q40 261 74.5 281t75.5 20q41 0 75.5-20t54.5-54.5q20-34.5 20-75.5t-20-75.5Q260 41 225.5 21T150 1zm0 275q-34 0-62.5-17T42 213.5Q25 185 25 151t17-62.5Q59 60 87.5 43T150 26q34 0 62.5 17T258 88.5q17 28.5 17 62.5t-17 62.5Q241 242 212.5 259T150 276zm45-60q4 3 5 8t-2.5 9.5q-3.5 4.5-9 4.5t-8.5-2q-4-3-9-5-11-5-21-5t-21 5q-6 3-9.5 5.5t-8.5 2q-5-.5-8.5-5T100 224q1-5 5.5-8.5T119 208q16-7 31-7t31 7q8 4 14 8zm42-112q-1 4-4.5 7t-7.5 3l-3-1q-14-4-26-12t-19-18q-3-4-2-9t5-8q4-3 9.5-2t8.5 5q4 6 12.5 11.5T228 89q5 1 7.5 5.5t1.5 9.5zm-159 9q-1 1-3 0-4 0-7.5-2t-4.5-7q-1-5 1.5-9.5T72 89q9-3 17.5-8.5T102 69q3-4 8.5-5t9.5 2q4 3 5 8t-2 9q-7 10-19 18t-26 12zm141 36l-21 14 21 15q5 3 6 8t-2.5 10q-3.5 5-10.5 5-3 0-6-2l-38-25q-6-4-6-10.5t6-10.5l38-25q4-3 9-2t8 5.5q3 4.5 2 9.5t-6 8zm-87 25l-38 25q-3 2-6 2-7 0-10.5-5T75 186q1-5 6-8l21-15-21-14q-5-3-6-8t2-9.5q3-4.5 8-5.5t9 2l38 25q5 4 5 10.5t-5 10.5z"/></svg>