<svg viewBox="0 0 300 302.0011" xmlns="http://www.w3.org/2000/svg"><path d="M56 220H25q-10 0-17.5 7T0 245v31q0 10 7.5 17.5T25 301h31q11 0 18-7.5t7-17.5v-31q0-11-7-18t-18-7zm0 56H25v-31h31v31zm219-56h-31q-11 0-18 7t-7 18v31q0 10 7 17.5t18 7.5h31q10 0 17.5-7.5T300 276v-31q0-11-7.5-18t-17.5-7zm0 56h-31v-31h31v31zM56 110H25q-10 0-17.5 7.5T0 135v32q0 10 7.5 17.5T25 192h31q11 0 18-7.5t7-17.5v-32q0-10-7-17.5T56 110zm0 57H25v-32h31v32zm219-57h-31q-11 0-18 7.5t-7 17.5v32q0 10 7 17.5t18 7.5h31q10 0 17.5-7.5T300 167v-32q0-10-7.5-17.5T275 110zm0 57h-31v-32h31v32zM56 1H25Q15 1 7.5 8.5T0 26v31q0 11 7.5 18T25 82h31q11 0 18-7t7-18V26q0-10-7-17.5T56 1zm0 56H25V26h31v31zm110 163h-32q-10 0-17.5 7t-7.5 18v31q0 10 7.5 17.5T134 301h32q10 0 17.5-7.5T191 276v-31q0-11-7.5-18t-17.5-7zm0 56h-32v-31h32v31zm0-166h-32q-10 0-17.5 7.5T109 135v32q0 10 7.5 17.5T134 192h32q10 0 17.5-7.5T191 167v-32q0-10-7.5-17.5T166 110zm0 57h-32v-32h32v32zm0-166h-32q-10 0-17.5 7.5T109 26v31q0 11 7.5 18t17.5 7h32q10 0 17.5-7t7.5-18V26q0-10-7.5-17.5T166 1zm0 56h-32V26h32v31zM275 1h-31q-11 0-18 7.5T219 26v31q0 11 7 18t18 7h31q10 0 17.5-7t7.5-18V26q0-10-7.5-17.5T275 1zm0 56h-31V26h31v31z"/></svg>