<svg viewBox="0 0 300 302.0011" xmlns="http://www.w3.org/2000/svg"><path d="M264 229q4 3 4.5 8t-2.5 9q-22 26-52 40.5T150 301q-41 0-75.5-20T20 226.5Q0 192 0 151t20-75.5Q40 41 74.5 21t76-20Q192 1 228 23t56 60q2 4 .5 9t-6 7.5q-4.5 2.5-9.5 1t-8-6.5q-16-31-46-49.5T150.5 26q-34.5 0-63 17T42 88.5Q25 117 25 151t17 62.5Q59 242 87.5 259t62.5 17q28 0 53.5-12t42.5-33q4-4 9-4.5t9 2.5zm-1-103h-75q-6 0-9.5 3.5t-3.5 9q0 5.5 3.5 9t9.5 3.5h75q5 0 8.5 3.5t3.5 9q0 5.5-3.5 9T263 176h-75q-6 0-9.5 3.5t-3.5 9q0 5.5 3.5 9t9.5 3.5h75q15 0 26-11t11-26.5q0-15.5-11-26.5t-27-11h1zM78 222q4 4 9 4t9-3q5-5 13-10 16-10 31-12 5-1 8-5.5t2-9.5q-1-5-5.5-8t-9.5-2q-19 4-39 16-10 6-17 12-4 4-4 9t3 9zm97-127q0 8 5.5 13.5T194 114q8 0 13.5-5.5t5-13.5q-.5-8-5.5-13.5T194 76q-8 0-13.5 5.5T175 95zm-50 0q0-8-5.5-13.5T106 76q-8 0-13.5 5.5t-5 13.5q.5 8 5.5 13.5t13 5.5q8 0 13.5-5.5T125 95z"/></svg>