<svg viewBox="0 0 300 302.0011" xmlns="http://www.w3.org/2000/svg"><path d="M296 280l-11-11q4-9 2-18t-8.5-16q-6.5-7-16-8.5T245 228l-16-16q9-11 14-24l27 7h3q5 0 8-2.5t4.5-7q1.5-4.5-1.5-9t-8-6.5l-27-6q2-13 0-25l27-7q5-1 8-5.5t1.5-9.5q-1.5-5-6-8t-9.5-1l-27 7q-5-14-14-25l16-16q6 2 11 2 13 0 22.5-9t9.5-22q0-13-9.5-22.5T256 13q-13 0-22 9.5T225 45q0 5 2 11l-16 16q-12-9-26-15l7-28q1-5-1.5-9.5T183 14q-5-1-9.5 1.5T168 23l-8 29q-11-2-24 0l-7-29q-1-5-5.5-7.5T114 14q-5 1-7.5 5.5T105 29l7 29q-12 5-23 14L73 56q3-8 1.5-17.5t-8.5-16Q59 16 50 14t-18 2L21 5q-3-4-8.5-4t-9 3.5Q0 8 0 13.5T4 22l275 275q3 4 8.5 4t9-3.5q3.5-3.5 3.5-9t-4-8.5zM203 98q20 19 22 46.5T211 194L107 90q22-16 49.5-14T203 98zm-84 103q-8 0-13.5-5.5T100 182q0-8 5.5-13t13.5-5q8 0 13.5 5t5.5 13q0 8-5.5 13.5T119 201zm81-81q0 8-5.5 13.5T181 139q-8 0-13.5-5.5t-5-13.5q.5-8 5.5-13.5t13-5.5q8 0 13.5 5.5T200 120zm-8 153q1 5-1.5 9.5T183 288l-3 1q-5 0-8-3t-4-7l-8-29q-11 2-24 0l-7 29q-1 4-4.5 7t-7.5 3l-3-1q-5-1-7.5-5.5T105 273l7-29q-13-6-23-14l-16 16q2 6 2 11 0 13-9 22t-22 9q-13 0-22.5-9T12 257q0-13 9.5-22t22.5-9q5 0 11 2l16-16q-9-11-14-25l-31 8h-3q-4 0-7.5-2.5t-4.5-7q-1-4.5 1.5-9T20 170l31-7q-2-12 0-24l-31-7q-5-1-7.5-5.5T11 117q1-5 5.5-8t9.5-1l42 10q5 1 7.5 5.5T77 133q-5 19 .5 38T97 204q14 14 32.5 19t37.5 1q5-1 9.5 1.5t5.5 7.5l10 40z"/></svg>