<svg viewBox="0 0 300 302.0011" xmlns="http://www.w3.org/2000/svg"><path d="M273 71l-88-59Q169 1 150 1t-35 11L28 71Q15 79 7.5 93T0 123v115q0 17 8.5 31.5t23 23Q46 301 62 301q6 0 9.5-3.5T75 288V163q0-10 7.5-17t17.5-7h100q10-1 17.5 6.5T225 164v124q0 6 3.5 9.5t9.5 3.5q16 0 30.5-8.5t23-23Q300 255 300 238V123q0-16-7.5-30T272 71h1zm2 167q0 12-7 22t-18 14V163q0-20-14.5-34.5T200 113H100q-21 0-35.5 15T50 164v110q-11-4-18-14t-7-22V123q0-10 4.5-18T42 91l87-59q10-6 21-6t21 6l87 59q8 6 12.5 14t4.5 18v115zm-76-36q-4-12-14-19t-22-7h-26q-12 0-22 7t-14 19l-8 27-2 7q-4 17-4 25 1 14 13 15v12q0 6 3.5 9.5t9 3.5q5.5 0 9-3.5t3.5-8.5v-13h50v12q0 6 3.5 9.5t9 3.5q5.5 0 9-3.5t3.5-8.5v-13q12-1 13-15 0-8-4-25l-2-7-8-27zm-62-1h26q4 0 7.5 2.5t4.5 6.5l5 16h-60l5-16q1-4 4.5-6.5t7.5-2.5z"/></svg>