<svg viewBox="0 0 300 302.0011" xmlns="http://www.w3.org/2000/svg"><path d="M150 1q-41 0-75.5 20T20 75.5Q0 110 0 151q0 21 6 41 1 5 5.5 7.5t9.5 1q5-1.5 7.5-6T30 185q-5-17-5-34v-9l25 26v58q0 17 8 31t21 22q35 22 71 22t71-22q13-8 21-22t8-31v-58l25-25v8q0 17-5 34-1 5 1.5 9.5t7.5 6.5h3q4 0 7.5-2.5t4.5-6.5q6-20 6-41 0-41-20-75.5T225.5 21Q191 1 150 1zm75 225q0 10-4.5 18.5T208 258q-29 18-58 18t-58-18q-8-5-12.5-13.5T75 226v-50h150v50zm7-75H68l-37-39q13-38 45.5-62T150 26q41 0 73.5 24t45.5 62l-37 39zm-95-65q1 5-1.5 9.5T127 101q-21 4-44 23-3 3-8.5 3t-9-4q-3.5-4-3-9.5T67 105q27-23 56-29 5-1 9 2t5 8zm96 19q4 3 4.5 8.5t-3 9.5q-3.5 4-9 4t-8.5-3q-23-19-44-23-6-1-8.5-5.5T163 86q1-5 5-8t9-2q29 6 56 29z"/></svg>