<svg viewBox="0 0 300 302.0011" xmlns="http://www.w3.org/2000/svg"><path d="M295 147l-34-92q-7-19-23-30t-36-11H98q-20-1-36 10.5T39 55L5 147q-5 14-5 29v12q0 16 6.5 29T25 238v25q0 16 11 27t26.5 11Q78 301 89 290t11-27v-12h100v12q0 16 11 27t26.5 11q15.5 0 26.5-11t11-27v-25q12-8 18.5-21t6.5-28v-13q0-15-5-29zM75 263q0 6-3.5 9.5t-9 3.5q-5.5 0-9-3.5T50 264v-14q6 1 12 1h13v12zm175 0q0 6-3.5 9.5t-9 3.5q-5.5 0-9-3.5T225 264v-13h13q6 0 12-1v13zm25-75q0 16-11 27t-27 11H63q-16 0-27-11t-11-26v-13q0-6 1-12h24v12q0 5 3.5 8.5t9 3.5q5.5 0 9-3.5T75 176v-13h13q5 0 8.5-3.5t3.5-8.5q0-5-3.5-8.5T88 139H35l27-76q4-11 14-18t22-7h104q12 0 22 7t14 18l27 75h-52q-6 0-9.5 4t-3.5 9q0 5 3.5 8.5t9.5 3.5h12v13q0 5 3.5 8.5t9 3.5q5.5 0 9-3.5t3.5-8.5v-13h24q1 7 1 13v12zm-90-64q3 5 2.5 10.5T184 145l-23 38q-4 6-11 6-4 0-7.5-2.5T138 179q-1-5 1-10l20-30h-26q-10 0-16.5-8.5T113 112l26-43q3-4 8-5t9.5 1.5Q161 68 162 73t-1 10l-19 30h25q6 0 10.5 3t7.5 8z"/></svg>