<svg viewBox="0 0 300 302.0011" xmlns="http://www.w3.org/2000/svg"><path d="M296 280l-79-79 27-43q5-9 5.5-19t-4-19q-4.5-9-13-14t-18.5-5h-48l15-65q3-10-1-19.5T167.5 3q-8.5-4-17-1T137 14L96 79 21 5q-3-4-8.5-4t-9 3.5Q0 8 0 13.5T4 22l275 275q3 4 8.5 4t9-3.5q3.5-3.5 3.5-9t-4-8.5zM157 28v1l-19 82q-2 6 2 10.5t10 4.5h64q6 0 9.5 6t-.5 12l-24 39-85-85 43-70zm29 223l-23 38q-8 12-21 12-5 0-9-2-9-4-13-13.5t-1-19.5l13-55q1-5 5.5-8t9.5-2q5 1 8 5.5t1 9.5l-13 58 22-36q3-4 8-5.5t9.5 1.5q4.5 3 5.5 8t-2 9zm-61-50H86q-10 0-18.5-5t-13-14q-4.5-9-4-19t5.5-19l8-12q3-4 8-5.5t9 1.5q4 3 5.5 8t-1.5 9l-8 13q-4 6-.5 12t9.5 6h39q5 0 9 3.5t4 9q0 5.5-4 9t-9 3.5z"/></svg>