<svg viewBox="0 0 300 302.0011" xmlns="http://www.w3.org/2000/svg"><path d="M300 226q-3-22-16.5-38T249 166l37-119q2-8 1-16.5t-6.5-15Q275 9 267.5 5T252 1q-13 0-23 7.5T216 28l-31 100q-4 12-13 21.5T150 162q-13-4-22-13t-13-21L85 28Q81 16 71 8.5T49 1q-9 0-16.5 4T20 15.5q-5 6.5-6.5 15T14 47l37 119q-18 5-30.5 17.5T3 213q-5 17-1 34.5T18 279q10 10 23 16t28 6h47q17 0 34-5 17 5 34 5h47q15 0 28-6t23-16.5q10-10.5 14.5-24.5t3.5-28zM40 30q3-4 8-4t8.5 2.5Q60 31 61 35l30 100q5 16 16 28H76L38 40q-1-5 2-10zm29 246q-20 0-33-14.5T25.5 229Q28 211 41 199.5T71 189h66q25 0 45-15t27-39l31-100q1-4 4.5-6.5t8-2.5q4.5 0 8 4.5T262 40l-50 165q-10 32-36.5 51.5T116 276H69zm195-14q-13 14-33 14h-40q33-25 44-64l7-22q13 4 22 14t11 24q1 9-2 18t-9 16z"/></svg>