<svg viewBox="0 0 300 302.0011" xmlns="http://www.w3.org/2000/svg"><path d="M291 6q-10-7-22-4-18 4-31.5 16.5T217 48q-33-9-67-9t-68 9q-6-17-19.5-29.5T31 2Q19-1 9.5 6.5T0 26v98q0 28 10.5 53T40 221l58 59q15 14 33.5 18.5t37 0Q187 294 202 280l58-59q19-19 29.5-44t10.5-53V26q0-12-9-20zM63 67q2 5 6.5 7.5t9.5.5q35-11 71-11t71 11q5 2 9.5-.5T237 67q12-35 38-41v77q-23 5-43 16-30 16-47 41-23 33-23 78v3q-12-5-24 0v-3q0-45-23-78-17-25-47-41-20-11-43-16V26q26 6 38 41zm-5 137q-15-15-23.5-34.5T25 129q13 3 25 9 3 16 16 26.5T95 176q18 28 18 62v20l-55-54zm184 0l-54 54v-20q-1-34 17-62 16-1 29-11.5t16-25.5v-1q12-6 25-9-1 21-9.5 40.5T242 204z"/></svg>