<svg viewBox="0 0 300 302.0011" xmlns="http://www.w3.org/2000/svg"><path d="M121 202q4 3 4 8.5t-4 8.5l-50 51 3 2q3 4 8.5 4t9-3.5Q95 269 100 269t9 3.5q4 3.5 3.5 9T109 290q-11 11-26.5 11T56 290l-35-36q-6-5-4-12t9.5-9q7.5-2 12.5 4l15 15 50-50q3-4 8.5-4t8.5 4zm129 61q0 16-11 27t-27 11h-49q-6 0-9.5-3.5t-3.5-9q0-5.5 3.5-9t8.5-3.5h26v-47l-62-58q-13-12-13-30t12-30l35-35H63q-6 0-9.5-3.5t-3.5-9q0-5.5 3.5-9T63 51h101q23 0 40 15l9 7q12 10 12 26t-11 28l-48 48 43 40q4 4 4 9v52q5 0 8.5-3.5t3.5-9 3.5-9q3.5-3.5 9-3.5t9 3.5q3.5 3.5 3.5 8.5zM138 141q0 7 5 12l5 4 48-48q4-4 4-9t-4-9l-9-7-44 44q-5 6-5 13zM244 0q-13 0-22 9.5T213 32q0 13 9 22t22 9q13 0 22-9t9-22q0-13-9-22.5T244 0z"/></svg>