<svg viewBox="0 0 300 302.0011" xmlns="http://www.w3.org/2000/svg"><path d="M119 32q0-13 9-22t22-9q13 0 22 9t9 22q0 13-9 22.5t-22 9q-13-.5-22-9.5t-9-22zm119 244H63q-6 0-9.5 3.5t-3.5 9q0 5.5 3.5 9T63 301h175q5 0 8.5-3.5t3.5-9q0-5.5-3.5-9T238 276zm-125-63q-6 1-9.5 4.5T100 226q0 5 3.5 8.5t9.5 3.5h75q5 0 8.5-3.5t3.5-8.5q0-5-3.5-9t-8.5-4h-75zm100-50q-1-5-4.5-8.5T200 151H100q-5 0-9 3.5t-4 9q0 5.5 4 9t9 3.5h100q5 0 9-3.5t4-9.5zM75 101q0 5 3.5 9t9.5 4h125q5-1 8.5-4.5t3.5-8.5q0-5-3.5-9t-8.5-4H88q-6 1-9.5 4.5T75 101zM56 79l4-18 18-4q4-1 6.5-4.5t2.5-8q0-4.5-2.5-7.5T78 33l-18-5-4-18q-1-4-4.5-6.5t-8-2.5Q39 1 36 3.5T32 10l-5 18-17 4q-5 1-7.5 4.5T0 44q0 4 2.5 7.5T9 56l18 5 5 18q1 4 4 7t7.5 2.5q4.5-.5 8-3T56 79zm238 126l-16-7-7-16q-2-6-8.5-6t-8.5 6l-7 16-16 6q-6 3-6 9t6 9l16 7 7 16q2 6 8.5 6t8.5-6l7-16 16-7q6-2 6-8.5t-6-8.5z"/></svg>