<svg viewBox="0 0 300 302.0011" xmlns="http://www.w3.org/2000/svg"><path d="M150 1q-43 0-77 9.5t-53.5 27Q0 55 0 76v169q0 15 9.5 28.5T37 298q6 3 13 3t12.5-3.5q5.5-3.5 9-9T75 276V143q0-11-5.5-20T55 109q-15-7-22.5-15.5T25 76q0-12 16-23.5T84 34q30-8 66-8t66 8q27 7 43 18.5T275 76q0 9-7.5 17.5T246 109q-10 5-15.5 14t-5.5 20v133q0 7 3.5 12.5t9 9Q243 301 250 301t13-3q18-11 27.5-24.5T300 245V76q0-21-19.5-38.5t-53.5-27Q193 1 150 1zM43 131q7 4 7 12v133q-10-6-16-12-9-9-9-19V120q8 6 18 11zm232 114q0 10-9 19-6 6-16 12V143q0-8 7-12 10-5 18-11v125zM150 126q-13 0-22-9t-9-22q0-13 9-22.5t22-9.5q13 0 22 9.5t9 22.5q0 13-9 22t-22 9zm0 12q-21 0-35.5 15T100 189v24q0 17 12 28v47q0 6 4 9.5t9 3.5q5 0 8.5-3.5t3.5-9.5v-37h26v37q0 6 3.5 9.5t8.5 3.5q5 0 8.5-3.5t3.5-9.5v-47q13-11 13-28v-25q0-20-14.5-35T150 138zm-12 88q-6 0-9.5-3.5T125 214v-26q0-10 7.5-17.5T150 163q10 0 17.5 7.5T175 188v25q0 6-3.5 9.5T162 226h-24z"/></svg>