<svg viewBox="0 0 300 302.0011" xmlns="http://www.w3.org/2000/svg"><path d="M262 110q-13-11-31-8-10 1-18 9-11-10-25.5-10T162 111q-10-10-24-10V40q0-14-9-25T106 2q-17-3-30 8T63 39v12H20q-5 0-6.5 4t1.5 7l23 14-22 14q-4 4-2.5 7.5T20 101h43v44l-18 18q-20 19-20 47t20 48l13 14q14 14 32.5 21.5T129 301h84q16 0 30.5-8.5t23-23Q275 255 275 239V138q0-17-13-28zm-87 28q0-5 3.5-8.5t9-3.5q5.5 0 9 3.5t3.5 9.5v24q0 6-3.5 9.5t-9 3.5q-5.5 0-9-3.5T175 163v-25zm-50 0q0-5 3.5-8.5t9-3.5q5.5 0 9 3.5t3.5 9.5v24q0 6-3.5 9.5t-9 3.5q-5.5 0-9-3.5T125 163v-25zM88 38q0-5 4-9t9.5-3q5.5 1 8.5 5t3 9v11H88V38zm0 63h25v10q-13 11-13 27-6-2-13-2v-35h1zm162 137q0 16-11 27t-26 11h-84q-15 0-28.5-5.5T76 254l-14-13q-12-13-12-30.5T63 180l16-16q3-3 8.5-3t9 3.5q3.5 3.5 3.5 8.5t-4 9l-17 18q-4 3-4 8.5t3.5 9q3.5 3.5 9 3.5t8.5-4l18-17 4-5q9 6 19 6 15 0 25-10 11 10 25.5 10t24.5-10q11 10 25 10 7 0 13-2v39zm0-75q0 6-3.5 9.5t-9 3.5q-5.5 0-9-3.5T225 163v-25q0-5 3.5-8.5t9-3.5q5.5 0 9 3.5t3.5 9.5v24z"/></svg>