<svg viewBox="0 0 300 302.0011" xmlns="http://www.w3.org/2000/svg"><path d="M200 51q-27 0-50 13-23-13-50-13T50 64.5Q27 78 13.5 101T0 151q0 27 13.5 50T50 237.5Q73 251 100 251t50-13q23 13 50 13t50-13.5q23-13.5 36.5-36.5t13.5-50q0-27-13.5-50T250 64.5Q227 51 200 51zm-65 137h30q-6 11-15 19-9-8-15-19zm15-93q9 8 15 18h-30q6-10 15-18zm-25 56q0-6 1-13h48q1 7 1 13t-1 12h-48q-1-6-1-12zm-100 0q0-20 10-37.5T62.5 86Q80 76 100 76q15 0 28 5-13 14-20.5 32t-7.5 38q0 20 7.5 38t20.5 31q-14 6-28 6-20 0-37.5-10T35 188.5Q25 171 25 151z"/></svg>