<svg viewBox="0 0 300 302.0011" xmlns="http://www.w3.org/2000/svg"><path d="M113 126q0-5 3.5-9t8.5-4q5 0 9 4t4 9q0 5-4 9t-9 3.5q-5-.5-8.5-4T113 126zm62 12q5 0 9-3.5t4-8.5q0-5-4-9t-9-4q-5 0-9 4t-3.5 9q.5 5 4 9t8.5 4v-1zm-50 25q-5 0-8.5 4t-4 9q-.5 5 3.5 8.5t9 3.5q5 0 9-3.5t4-8.5q0-5-4-9t-9-4zm50 25q5 0 9-3.5t4-8.5q0-5-4-9t-9-4q-5 0-9 4t-3.5 9q.5 5 4 8.5t8.5 3.5zm125-62v50q0 17-8.5 31.5t-23 22.5q-14.5 8-30.5 9H63q-17-1-31.5-9t-23-22.5Q0 193 0 176v-50q0-17 8.5-31.5t23-22.5Q46 64 62 63h176q16 1 30.5 9t23 22.5Q300 109 300 126zM88 88v125h125V88H88zM63 213V88q-16 1-27 11.5T25 126v50q0 16 11 26.5T62 213h1zm212-87q0-16-11-27t-27-11v125q16 0 27-10.5t11-26.5v-50z"/></svg>