<svg viewBox="0 0 300 302.0011" xmlns="http://www.w3.org/2000/svg"><path d="M291 95l-24-40q-8-13-21-21l-40-24q-15-9-32-9h-48q-17 0-32 9L54 34q-13 8-21 21L9 95q-9 15-9 32v48q0 17 9 32l24 40q8 13 21 21l40 24q15 9 32 9h48q17 0 32-9l40-24q13-8 21-21l24-40q9-15 9-32v-48q0-17-9-32zm-21 13q1 2 2 5l-50 60-59-30V86l81-21 2 3 24 40zM107 31q9-5 19-5h48q10 0 19 5l25 15-68 17-68-17 25-15zM54 68q1-1 2-3l82 21v57l-60 30-50-60 2-5 24-40zm0 166l-24-40q-5-9-5-19v-27l39 47 24 64-21-12q-8-5-13-13zm67 42l-30-81 59-30 59 30-30 81h-58zm149-82l-24 40q-5 8-13 13l-21 12 24-64 39-47v27q0 10-5 19z"/></svg>