<svg viewBox="0 0 300 302.0011" xmlns="http://www.w3.org/2000/svg"><path d="M275 218V84q11-5 18-15.5t7-23.5q0-18-13-31T256 1q-13 0-23.5 7T217 26H83Q78 15 67.5 8T44 1Q26 1 13 14T0 45q0 13 7 23.5T25 84v134q-11 5-18 15.5T0 257q0 18 13 31t31 13q13 0 23.5-7T83 276h134q5 11 15.5 18t23.5 7q18 0 31-13t13-31q0-13-7-23.5T275 218zm-62 33H87q-2-14-12.5-24.5T50 214V88q14-2 24.5-12.5T87 51h126q2 14 12.5 24.5T250 88v126q-14 2-24.5 12.5T213 251zm43-225q8 0 13.5 5.5T275 45q0 8-5.5 13T256 63q-8 0-13.5-5t-5-13q.5-8 5.5-13.5t13-5.5zM44 26q8 0 13.5 5.5t5 13.5Q62 53 57 58.5t-13 5Q36 63 30.5 58T25 45q0-8 5.5-13.5T44 26zm0 250q-8 0-13.5-5.5T25 257q0-8 5.5-13.5T44 238q8 0 13.5 5.5T63 257q0 8-5.5 13.5T44 276zm212 0q-8 0-13-5.5t-5-13.5q0-8 5-13.5t13-5q8 .5 13.5 5.5t5.5 13q0 8-5.5 13.5T256 276zm-81-138v-25q0-10-7.5-17T150 88h-50q-10 1-17.5 8T75 113v25q0 11 7.5 18t17.5 8h50q10-1 17.5-8t7.5-17v-1zm-75-25h50v25h-50v-25zm125 50v25q0 11-7.5 18.5T200 214h-50q-10-1-17.5-8t-7.5-18q0-5 3.5-8.5t9-3.5q5.5 0 9 3.5t3.5 9.5h50v-26q-5 0-8.5-3.5t-4-8.5q-.5-5 3.5-9t9-4q10 0 17.5 7.5T225 163z"/></svg>