<svg viewBox="0 0 300 302.0011" xmlns="http://www.w3.org/2000/svg"><path d="M249 149q23-5 37-17t14-31q0-16-9-33t-25-29q-18-12-39-13-21-8-48-14Q132 1 88 1q-6 0-9.5 3.5t-3.5 9q0 5.5 3.5 9T87 26q46 0 95 12l-4 3q-22 11-36 15-24 8-55 8-5-1-8.5 3T75 76q0 5 3.5 9t8.5 4q43-1 77-14l-2 14q1 13 6 24H97q-27 0-49 16-3-7-9-11.5T25 113q-10 0-17.5 7.5t-7.5 17Q0 147 5.5 154t13.5 9q-5 11-6 24-2 17 3.5 33.5t17 29Q45 262 61 269t33 7q12 0 20 10 5 7 13 11t17 4h94q5 0 8.5-3.5t3.5-9q0-5.5-3.5-9T238 276h-41l52-127zm26-48q0 12-17 19-15 6-33 6-16 0-26.5-11T188 88.5Q188 73 198.5 62T224 51q15 0 26.5 8.5t18 20.5q6.5 12 6.5 21zM134 271q-7-9-18-14.5T93.5 251Q82 251 71 246t-19-13q-17-19-14-44 2-21 19-36t40-15h91q15 12 33 13l-46 113v-1q0-35-19.5-55T100 188q-5 0-8.5 4t-3.5 9q0 5 3.5 8.5t8.5 3.5q26 0 38 12.5t12 37.5v13h-6q-6 0-10-5z"/></svg>