<svg viewBox="0 0 300 302.0011" xmlns="http://www.w3.org/2000/svg"><path d="M299 273q-9 18-28 25t-38-2L7 187q-4-2-5.5-7t.5-9.5q2-4.5 6.5-6t9.5.5l226 108q9 5 18.5 1.5T276 262q3-5 7.5-6.5t9 1q4.5 2.5 6.5 7t0 9.5zM63 76h94l-48 63q-7 9-8.5 19.5t3 20.5q4.5 10 14 16t20.5 6h54q5 0 8.5 3t3.5 7l4 18q2 7 9 9.5t12-2.5q5-5 4-13l-4-17q-3-13-13-21.5t-24-8.5h-54q-4 0-7-2t-4.5-5.5q-1.5-3.5-1-7t2.5-6.5l55-72 14 9q3 4 2.5 9t-3.5 9l-16 21q-3 4-2.5 9t4.5 8.5q4 3.5 9 2.5t9-5l16-20q9-12 9-27t-11-26l-19-12q-15-10-33-10H63q-6 0-9.5 3.5t-3.5 9q0 5.5 3.5 9T63 76zm168-13q13 0 22-9t9.5-22q.5-13-9-22T231 1q-13 0-22 9t-9 22q0 13 9 22t22 9z"/></svg>