<svg viewBox="0 0 300 302.0011" xmlns="http://www.w3.org/2000/svg"><path d="M293 285l-30-89q-3-9-10-14t-15.5-5q-8.5 0-15.5 5t-10 14l-30 89q-2 5 .5 9.5t7.5 6.5q5 2 9.5-.5t6.5-7.5l5-17h53l5 17q2 4 5 6.5t6 2.5q3 0 5-1 5-2 7.5-6.5t.5-9.5zm-73-34l16-47q1-2 1.5-2t1.5 2l16 47h-35zm-24-131q-5-9-13.5-14t-18.5-5h-48l15-65q3-10-1-19.5T117.5 3q-8.5-4-17-1T87 13L6 144q-5 9-5.5 19t4 19q4.5 9 13 14t18.5 5h48l-15 65q-3 10 1 19.5T83 299q4 2 9 2 13 0 21-12l81-131q5-9 5.5-19t-3.5-19zm-23 24L93 274l19-83q2-6-2-10.5t-10-4.5H36q-6 0-9.5-6t.5-12l80-130-19 83q-2 6 2 10.5t10 4.5h64q6 0 9.5 6t-.5 12z"/></svg>