<svg viewBox="0 0 300 302.0011" xmlns="http://www.w3.org/2000/svg"><path d="M225 276q-10 0-17.5-7.5T200 251v-44l5 4q3 2 8.5 2t9-4q3.5-4 2.5-9.5t-5-8.5q-13-10-27-17-22-11-43-11t-43 11q-14 7-27 17-4 3-5 8.5t2.5 9.5q3.5 4 8.5 4.5t9-2.5l5-4v44q0 10-7.5 17.5T75 276q-5 0-8.5 3.5t-3.5 9q0 5.5 3.5 9T75 301h150q5 0 9-3.5t4-9q0-5.5-4-9t-9-3.5zm-107 0q7-12 7-25v-57q13-6 25-5.5t25 5.5v57q0 13 7 25h-64zm-68-31q0 8-5.5 13T31 263q-8 0-13.5-5t-5-13q.5-8 5.5-13.5t13-5.5q8 0 13.5 5.5T50 245zm250 37q0 8-5.5 13.5T281 301q-8 0-13-5.5t-5-13.5q0-8 5-13t13-5.5q8-.5 13.5 5T300 282zm-34-36q-4 5-9 5t-9-3q-4-3-4.5-8t2.5-9q14-17 21.5-37.5T275 151q0-34-17-62.5T212.5 43Q184 26 150 26T87.5 43Q59 60 42 88.5T25 151q0 17 5 34 1 5-1.5 9.5t-7.5 6q-5 1.5-9.5-1T6 192q-6-20-6-41 0-41 20-75.5T74.5 21Q109 1 150 1t75.5 20Q260 41 280 75.5t20 75.5q0 26-9 50.5T266 246zM219 99l-21 14 21 15q5 3 6 8t-2.5 10q-3.5 5-10.5 5-3 0-6-2l-38-25q-6-4-6-10.5t6-10.5l38-25q4-3 9-2t8 5.5q3 4.5 2 9.5t-6 8zM81 128l21-15-21-14q-5-3-6-8t2-9.5q3-4.5 8-5.5t9 2l38 25q6 4 6 10.5t-6 10.5l-38 25q-3 2-6 2-7 0-10.5-5T75 136q1-5 6-8z"/></svg>