<svg viewBox="0 0 300 302.0011" xmlns="http://www.w3.org/2000/svg"><path d="M249 70l-43-43q-13-13-28.5-19.5T144 1H88Q71 1 56.5 9.5t-23 23Q25 47 25 63v175q0 17 8.5 31.5t23 23Q71 301 88 301h125q16 0 30.5-8.5t23-23Q275 255 275 238V132q0-17-6.5-33T249 70zm-17 18q6 6 10 13h-54q-6 0-9.5-3.5T175 88V34q7 4 13 10l44 44zm18 150q0 16-11 27t-26 11H88q-16 0-27-11t-11-27V63q0-15 11-26t27-11h62v62q0 16 11 27t27 11h62v112zm-56-87h-88q-13 0-22 9t-9 22v38q0 13 9 22t22 9h88q13 0 22-9t9-22v-38q0-13-9-22t-22-9zm6 69q0 2-2 4t-4 2h-88q-2 0-4-2t-2-4v-38q0-2 2-4t4-2h88q2 0 4 2t2 4v38zM75 113q0-5 3.5-8.5T88 101h25q5 0 8.5 3.5t3.5 9q0 5.5-3.5 9T113 126H88q-6 0-9.5-3.5T75 113z"/></svg>