<svg viewBox="0 0 300.5004 302.0011" xmlns="http://www.w3.org/2000/svg"><path d="M297 106q-4-4-9-4t-9 4l-21 20h-95v-25q0-5-4-9t-9-4q-5 0-8.5 4t-3.5 9v62q0 6-4 9.5t-9 3.5q-5 0-8.5-3.5T113 163V99q0-17 10.5-30.5T150 51l44-11q9-3 17-10l7-8q4-3 4-8.5t-3.5-9Q215 1 209.5 1T201 5l-8 7q-2 3-6 4l-43 11q-22 6-37.5 23T88 89q-22 3-39 18.5T26 145l-11 43q-1 3-3 6l-8 7q-4 4-4 9t4 9q4 4 9 4t9-4l7-8q8-7 10-17l11-43q4-14 14-23.5T88 115v48q0 16 11 27t26.5 11q15.5 0 26.5-11t11-27v-12h80l-18 64q-4 16-17.5 26T177 251h-41q-16 0-27 12l-17 17q-3 4-3 9t3.5 8.5q3.5 3.5 9 3.5t8.5-4l17-17q4-4 9-4h41q25 0 45-15t27-39l23-74 25-24q3-4 3.5-9t-3.5-9z"/></svg>