<svg viewBox="0 0 300 302.0011" xmlns="http://www.w3.org/2000/svg"><path d="M288 276h-13V176q0-17-8.5-31.5t-23-22.5q-14.5-8-30.5-8h-50V76q8-3 13-11t5-17q-5-25-22-43-3-4-9-4t-9 4q-17 18-22 43 0 9 5 17t14 11v37H88q-17 1-31.5 9t-23 22.5Q25 159 25 176v100H13q-6 0-9.5 3.5t-3.5 9q0 5.5 3.5 9T12 301h276q5 0 8.5-3.5t3.5-9q0-5.5-3.5-9T288 276zM88 138h125q15 0 26 11t11 27v25q-8-1-13.5-5t-5.5-8.5q0-4.5-3.5-8T219 176q-5 0-9 3.5t-4 8q0 4.5-6 9t-15.5 4.5q-9.5 0-15.5-4.5t-6-9q0-4.5-4-8t-9-3.5q-5 0-9 3.5t-3.5 8q.5 4.5-6 9t-16 4.5q-9.5 0-15.5-4.5t-6-9q0-4.5-4-8t-9-3.5q-5 0-8.5 3.5t-3.5 8q0 4.5-5.5 8.5T50 201v-25q0-16 11-27t26-11h1zm-38 88q18-1 31-12 15 12 34.5 12t34.5-12q15 12 34.5 12t34.5-13q13 12 31 13v50H50v-50z"/></svg>