<svg viewBox="0 0 300 302.0011" xmlns="http://www.w3.org/2000/svg"><path d="M256 201h-43v-44q0-18-13-31t-31-13h-38q-18 0-30.5 13T88 157v6H44q-18 0-31 13T0 207v50q0 18 13 31t31 13h212q18 0 31-13t13-31v-12q0-18-13-31t-31-13zm-143-44q0-8 5-13t13-5h38q8-1 13.5 4.5T187 157v119h-74V157zM25 257v-50q0-8 5.5-13t13.5-5h44v87H44q-8 0-13.5-5.5T25 257zm250 0q0 8-5.5 13.5T256 276h-43v-50h43q8 0 13.5 5.5T275 245v12zM101 37q2-6 7-6h25l9-25q2-5 8-5t8 5l9 25h25q6 0 8 5.5t-3 9.5l-20 16 8 25q2 5-2.5 9t-9.5 0l-23-14-22 15q-3 1-5.5 1t-4.5-2q-5-3-3-9l8-25-20-16q-4-4-2-9z"/></svg>