<svg viewBox="0 0 300 302.0011" xmlns="http://www.w3.org/2000/svg"><path d="M138 301q-28 1-49-14.5T57.5 247Q47 223 51 197.5T75 152V63q1-29 20-46 18-15 42.5-15T180 17q19 17 20 47v88q20 20 24 45.5t-6.5 49.5Q207 271 186 286.5T137 301h1zm0-275q-16 0-27 11t-11 27v94q0 5-4 9-14 13-18.5 32t2.5 37q7 18 22.5 29t35 11q19.5 0 35-11t22.5-29q7-18 2.5-37T179 167q-4-4-4-9V63q0-15-11-26t-26-11zm0 225q-14 0-24.5-9T101 219.5q-2-13.5 4.5-25T125 178V63q0-5 3.5-8.5t9-3.5q5.5 0 9 3.5T150 63v115q13 5 19.5 16.5t4.5 25q-2 13.5-12.5 22.5t-23.5 9zm0-50q-6 0-9.5 3.5t-3.5 9q0 5.5 3.5 9t9 3.5q5.5 0 9-3.5t3.5-9q0-5.5-3.5-9T138 201zM263 76q-16 0-27-11t-11-26.5Q225 23 236 12t26.5-11Q278 1 289 12t11 26.5Q300 54 289 65t-27 11h1zm0-50q-6 0-9.5 3.5t-3.5 9q0 5.5 3.5 9t9 3.5q5.5 0 9-3.5t3.5-9q0-5.5-3.5-9T263 26z"/></svg>