<svg viewBox="0 0 300 302.0011" xmlns="http://www.w3.org/2000/svg"><path d="M272 206q-7-19-23-30.5T213 164h-50v-14q18-3 33-15t22.5-29q7.5-17 6-36t-12-35q-10.5-16-27-25T150 1q-19 0-35.5 9t-27 25Q77 51 75.5 70t6 36q7.5 17 22.5 29t34 15v13H88q-21 1-37 12.5T28 206q-16 8-23.5 25T2 265.5Q7 283 23 293t34 7.5q18-2.5 30.5-16t12.5-32q0-18.5-11.5-33T59 202q11-13 29-13h50v14q-19 4-29.5 20t-8 34.5q2.5 18.5 16.5 31t33 12.5q19 0 33-12.5t16.5-31q2.5-18.5-8-34.5T163 203v-15h50q17 1 28 14-18 3-29.5 17.5t-11.5 33q0 18.5 12.5 32t30.5 16q18 2.5 34-7.5t21-27.5q5-17.5-2.5-34.5T272 206zM100 76q0-21 14.5-35.5T150 26q21 0 35.5 14.5T200 76q0 21-14.5 35.5T150 126q-21 0-35.5-14.5T100 76zM75 251q0 10-7.5 17.5T50 276q-10 0-17.5-7.5T25 251q0-10 7.5-17.5T50 226q10 0 17.5 7.5T75 251zm100 0q0 10-7.5 17.5T150 276q-10 0-17.5-7.5T125 251q0-10 7.5-17.5T150 226q10 0 17.5 7.5T175 251zm75 25q-10 0-17.5-7.5T225 251q0-10 7.5-17.5T250 226q10 0 17.5 7.5T275 251q0 10-7.5 17.5T250 276z"/></svg>