<svg viewBox="0 0 300 302.0011" xmlns="http://www.w3.org/2000/svg"><path d="M237 301q-5 0-8.5-3.5T225 289v-38q0-5 3.5-9t9-4q5.5 0 9 4t3.5 9v37q0 6-3.5 9.5T237 301zm-50 0q-5 0-8.5-3.5T175 289v-38q0-5 3.5-9t9-4q5.5 0 9 4t3.5 9v37q0 6-3.5 9.5T187 301zm-50 0q-5 0-8.5-3.5T125 289v-38q0-5 3.5-8.5t9-3.5q5.5 0 9 3.5t3.5 8.5v37q0 6-3.5 9.5T137 301zm-37-19q-4 0-8-2-12-9-16-24.5t3-30q7-14.5 22-21.5-3-17 1-34 6-23 24.5-39t43-17.5q24.5-1.5 45 11T244 159q1 3 2.5 4t5.5 2h2q16 5 27.5 16.5t16 27q4.5 15.5 1 31.5T284 267q-3 4-8 4.5t-9-3q-4-3.5-4.5-8.5t3.5-9q6-7 8-16 3-15-4.5-28T247 189q-9-1-15.5-6.5T221 169q-7-18-24.5-26t-36-2.5Q142 146 132 163t-6 35q2 9-2 17.5T112.5 227q-7.5 3-10.5 9.5t-1.5 13Q102 256 107 260q4 2 5 6t0 7.5q-1 3.5-4.5 6T100 282zM26 176q-4 0-7.5-2.5T14 167q-1-4 .5-8t5.5-6l28-17q-2-5-3-10H13q-6 0-9.5-3.5t-3.5-9q0-5.5 3.5-9T12 101h33l2-10-28-16q-4-3-5-8t1.5-9q2.5-4 7-5.5t9.5.5l28 16q3-4 8-8L52 33q-3-4-1.5-9t6-7.5Q61 14 66 15t7 6l16 28 11-3V13q0-5 3.5-8.5t9-3.5q5.5 0 9 3.5T125 13v33q5 1 10 3l16-29q3-4 7.5-5t9 1.5q4.5 2.5 6 7T173 33l-16 28q4 3 7 8l29-16q4-3 9-1.5t7.5 6Q212 62 211 67t-6 7l-28 16q-8 5-17 3.5T146 85q-9-10-21-13.5t-23.5-.5q-11.5 3-20 11.5t-11.5 20q-3 11.5.5 23.5T83 146q4 4 4 9t-3.5 8.5q-3.5 3.5-8 4T67 165q-4-3-7-7l-28 16q-3 2-6 2z"/></svg>