<svg viewBox="0 0 300 302.0011" xmlns="http://www.w3.org/2000/svg"><path d="M293 202l-110-50q-7-2-14-.5t-12 7q-5 5.5-6.5 12.5t1.5 14l49 109q3 7 11 7h1q7 0 11-7l23-46 46-23q7-4 7-12t-7-11zm-61 25q-4 2-6 6l-13 27-38-84 83 38-26 13zm-71 48q-3 1-6 1-29-28-45-62h9q5 0 8.5-4t3.5-9q0-5-3.5-8.5T119 189h-19q-6-20-6-38t6-37h100q3 7 4 14 1 5 5.5 8t9.5 2q5-1 8-5t2-9l-3-10h43q6 18 6 37l-1 11q0 6 3.5 10t8.5 4q5 0 9-3t4.5-9q.5-6 .5-13 0-41-20-75.5T225.5 21Q191 1 150 1T74.5 21Q40 41 20 75.5T0 151q0 41 20 75.5T74.5 281q34.5 20 75.5 20 7 0 13-.5t9-4.5q3-4 2.5-9t-4-8.5Q167 275 161 275zm-87-86H31q-6-19-6-38t6-38h43q-5 20-5 38t5 37v1zm36-100q15-31 40-58 25 27 40 58h-80zm148 0h-40q-13-30-36-59 24 7 44 22t32 37zM118 30Q95 59 82 89H42q12-22 31.5-37T117 30h1zM42 213h40q13 30 36 59-25-7-44.5-22T42 214v-1z"/></svg>