<svg viewBox="0 0 300 302.0011" xmlns="http://www.w3.org/2000/svg"><path d="M25 44v82q0 5-3.5 8.5t-9 4q-5.5.5-9-3.5T0 126V38q0-15 11-26T38 1h87q5 0 8.5 3.5t4 9q.5 5.5-3.5 9t-9 3.5H43l153 154q4 3 4 8.5t-3.5 9q-3.5 3.5-9 3.5t-8.5-4L25 44zm150 7q-22 0-42 7-5 2-7 6.5t-.5 9q1.5 4.5 5 6.5t6.5 2h5q16-6 33-6 27 0 50 13.5t36.5 36.5q13.5 23 13.5 50t-13.5 50Q248 249 225 262.5T175 276q-27 0-50-13.5T88.5 226Q75 203 75 176q0-17 6-33 1-5-1-10t-7-6.5q-5-1.5-9.5.5t-6.5 7q-7 20-7 42 0 34 17 62.5t45.5 45.5q28.5 17 62.5 17t62.5-17q28.5-17 45.5-45.5t17-62.5q0-34-17-62.5T237.5 68Q209 51 175 51z"/></svg>