<svg viewBox="0 0 300 302.0011" xmlns="http://www.w3.org/2000/svg"><path d="M150 1q-40 0-74.5 20.5t-55 55Q0 111 0 151.5t20.5 75Q41 261 75.5 281t75 20q40.5 0 75-20t54.5-54.5q20-34.5 20-75t-20-75q-20-34.5-54.5-55T150 1zm0 275q-33 0-62-16.5T42 214q-17-29-17-63t17-62.5Q59 60 88 43t62.5-17Q184 26 213 43t45.5 45.5Q275 117 275 151t-16.5 63Q242 243 213 259.5T150 276zm0-203q-16 0-30.5 8.5t-23 23Q88 119 88 136v31q0 17 8.5 31.5t23 22.5q14.5 8 30.5 8 20 0 37-11l5 5q3 3 8.5 3t9-3.5q3.5-3.5 3.5-8.5t-4-9l-5-6q9-15 9-32v-31q0-17-8.5-31.5t-23-23Q167 73 150 73zm22 94q-4-3-9-3t-9 3.5q-4 3.5-4 8.5t4 9l15 15q-9 4-19 4-15 0-26-11t-11-26v-31q0-16 11-27t26.5-11q15.5 0 26.5 11t11 27v31q0 7-3 14l-13-14z"/></svg>