<svg viewBox="0 0 300 302.0011" xmlns="http://www.w3.org/2000/svg"><path d="M138 91q-4-7-11-11t-15-4q-8 0-14.5 4T87 91L4 253q-4 7-4 16t4.5 16.5Q9 293 16.5 297t16.5 4h159q8 0 15.5-4t12-11.5q4.5-7.5 5-16T221 253L138 91zm-29 12q1-2 3-2 3 0 4 2l31 60-13 22-11-18q-4-6-11-6t-11 7l-10 17-13-22 31-60zm89 169q-2 4-6 4H33q-5 0-7-4t0-8l39-75 9 15q3 4 7.5 7t10.5 2q11 0 18-10l3-5 3 6q6 9 18 10 12-1 18-11l8-13 39 74q2 4-1 8zm52-96q0 5-3.5 8.5T238 188h-13q-5 1-9-3t-3.5-9q.5-5 4-9t8.5-3h13q5-1 8.5 3t3.5 9zm-75-88q-5 1-9-3t-3.5-9q.5-5 4-9t8.5-3h13q5 0 8.5 3.5T200 76q0 5-3.5 8.5T188 88h-13zm75-12q0 5-3.5 8.5T238 88h-13q-5 1-9-3t-3.5-9q.5-5 4-9t8.5-3h13q5 0 8.5 3.5T250 76zm0 50q0 5-3.5 8.5T238 138h-13q-5 0-9-3.5t-3.5-8.5q.5-5 4-8.5t8.5-3.5h13q5 0 8.5 3.5t3.5 8.5zm50-63v182q0 17-8.5 31.5T269 299q-3 2-6 2-8 0-11-5.5t-1.5-10.5q1.5-5 5.5-7 9-5 14-14t5-19V63q0-15-11-26t-27-11h-62q-10 0-18.5 5T143 45q-3 4-8 5.5t-9.5-1q-4.5-2.5-6-7.5t1.5-10q8-14 22.5-22.5T175 1h63q16 0 30.5 8.5t23 23Q300 47 300 63z"/></svg>