<svg viewBox="0 0 300 302.0011" xmlns="http://www.w3.org/2000/svg"><path d="M282 82q-14-14-32-17V38q0-15-11-26T212.5 1Q197 1 186 12t-11 27v24h-50V38q0-15-11-26T87.5 1Q72 1 61 12T50 39v26q-18 3-32 17-18 18-18 44v106q0 19 9.5 34.5t25 25q15.5 9.5 34 9.5t34-9q15.5-9 25-24.5T137 234l1-71q0-5 3.5-8.5t8.5-3.5q5 0 9 3.5t4 8.5v71q0 18 9.5 33.5t25 24.5q15.5 9 34 9t34-9.5q15.5-9.5 25-25T300 232V126q0-26-18-44zm-82-44q0-5 3.5-8.5t9-3.5q5.5 0 9 3.5T225 38v25h-25V38zM88 26q5 0 8.5 3.5T100 38v25H75V38q0-5 3.5-8.5T88 26zM69 276q-18 0-31-13t-13-31q0-18 13-31t31-13q18 0 31 13t13 31q0 18-13 31t-31 13zm81-150q-16 0-26.5 11T113 163v16q-20-16-44.5-16T25 179v-53q0-16 11-26.5T63 89h175q15 0 26 10.5t11 26.5v53q-19-16-43.5-16T187 179v-16q1-15-10-26t-27-11zm81 150q-18 0-30.5-13T188 232q0-18 12.5-31t30.5-13q18 0 31 13t13 31q0 18-13 31t-31 13z"/></svg>