<svg viewBox="0 0 300 302.0011" xmlns="http://www.w3.org/2000/svg"><path d="M296 5q-3-4-8.5-4T279 5l-92 91-14-14q-13-12-29-16.5t-32 0Q96 70 84 82l-66 65q-9 8-13.5 19.5T0 191v47q0 17 8.5 31.5t23 23Q46 301 62 301h48q13 0 24.5-5t19.5-13l65-66q12-12 16.5-28t0-32q-4.5-16-16.5-28l-14-15 91-92q4-3 4-8.5T296 5zM25 238v-39q19 14 43 14 11 1 22-2-3 11-3 21 1 24 15 44H63q-16 0-27-11t-11-26v-1zm176-39l-64 66-8 6q-15-17-17-39 0-11 3.5-21.5T127 192l32-32q3-4 3-9t-3.5-8.5Q155 139 150 139t-9 3l-32 32q-18 16-40.5 14.5T30 172l6-8 66-65q11-10 26.5-10T155 99l47 47q11 11 10.5 26.5T201 199z"/></svg>