<svg viewBox="0 0 300.023 302.0011" xmlns="http://www.w3.org/2000/svg"><path d="M138 288q0-3 2-6.5t5.5-4.5q3.5-1 7-.5t6.5 3q3 2.5 3.5 6.5t-1 7.5Q160 297 157 299t-7.5 2q-4.5 0-8-3.5T138 289v-1zm56-26q4-4 4-9t-4-9q-12-12-28-16t-32 0q-16 4-28 16-4 4-4 9t4 8.5q4 3.5 9 4t8-3.5q12-11 27-11t27 11q3 4 8.5 4t8.5-4zm36-35q3-4 3-9t-3-9q-22-22-51-29.5t-58 0Q92 187 70 209q-3 4-3 9t3.5 8.5Q74 230 79 230t9-3q17-17 39.5-23t45 0q22.5 6 39.5 23 4 3 9 3t9-3zM75 278q1-5-2-9.5t-8-4.5q-15-3-25.5-13T26 227q-3-14 3.5-26.5T48 182q9-5 12-15t-2-19q-10-19-8.5-40T64 69.5Q77 52 96.5 44t40.5-4.5Q158 43 174 57t23 35q2 9 9 16t16 10q25 7 40 29t13 48q-2 20-13.5 36T232 254q-4 3-6 7.5t.5 9q2.5 4.5 7 6.5t9.5 0q24-11 39.5-32.5T300 197q3-35-17-64t-54-39q-7-2-9-9-10-33-38-52.5t-62.5-18Q85 16 59 38.5T26.5 95Q20 129 37 160q-20 10-30 29.5T1 231q4 22 20.5 38T60 288q6 1 10-2t5-8z"/></svg>