<svg viewBox="0 0 300 302.0011" xmlns="http://www.w3.org/2000/svg"><path d="M300 238q0 6-3.5 9.5T288 251h-38v37q0 6-3.5 9.5t-9 3.5q-5.5 0-9-3.5T225 288v-37h-37q-6 0-9.5-3.5t-3.5-9q0-5.5 3.5-9t9.5-3.5h37v-38q0-5 3.5-8.5t9-3.5q5.5 0 9 3.5t3.5 8.5v38h38q5 0 8.5 3.5t3.5 8.5zm-76-98q1 5 5 8t9.5 2.5q5.5-.5 8.5-5t2-9.5q-4-24-18-43.5T195.5 62Q174 51 150 51q-27 0-50 13.5T63.5 101Q50 124 50 151q0 25 11 46.5T92 233q20 14 44 17h2q5 0 8.5-3t4-8q.5-5-2.5-9t-8-5q-28-4-46.5-25T75 151q0-21 10-38t27.5-27Q130 76 150 76q28 0 49 18t25 46zm-93 11q0 8 5.5 13.5T150 170q8 0 13.5-5.5T169 151q0-8-5.5-13.5T150 132q-8 0-13.5 5.5T131 151zM238 1H63Q46 1 31.5 9.5t-23 23Q0 47 0 63v175q0 17 8.5 31.5t23 23Q46 301 63 301h125q5 0 8.5-3.5t3.5-9q0-5.5-3.5-9T188 276H63q-16 0-27-11t-11-27V63q0-15 11-26t27-11h175q15 0 26 11t11 26v125q0 6 3.5 9.5t9 3.5q5.5 0 9-3.5t3.5-9.5V63q0-16-8.5-30.5t-23-23Q254 1 238 1z"/></svg>