<svg viewBox="0 0 300 302.0011" xmlns="http://www.w3.org/2000/svg"><path d="M44 213q-18 1-31 13.5T0 257q0 18 13 31t31 13q18 0 31-13t13-31q0-18-13-31t-31-13zm0 63q-8 0-13.5-5.5T25 257q0-8 5.5-13.5T44 238q8 0 13.5 5.5T63 257q0 8-5.5 13.5T44 276zm256 12q0 6-3.5 9.5t-9 3.5q-5.5 0-9-3.5T275 288q0-71-35.5-131T144 61.5Q84 26 13 26q-6 0-9.5-3.5t-3.5-9q0-5.5 3.5-9T13 1q58 0 110.5 22T216 85q40 40 62 92.5T300 289v-1zm-112 0q0 6-4 9.5t-9 3.5q-5 0-8.5-3.5T163 288q-1-40-21-74.5t-54.5-55Q53 138 12 138q-5 0-8.5-3.5T0 126q0-5 3.5-9t9.5-4q47 0 87 24t64 64q24 40 24 87z"/></svg>