<svg viewBox="0 0 300 302.0011" xmlns="http://www.w3.org/2000/svg"><path d="M213 1h-60q-21 0-35 15L90 44q-7 7-11 16t-4 19v109q0 17 8.5 31.5t23 23Q121 251 137 251h76q16 0 30.5-8.5t23-23Q275 205 275 189V63q0-16-8.5-30.5t-23-23Q229 1 212 1h1zm37 187q0 16-11 27t-26 11h-75q-16 0-27-11t-11-26V79q0-10 7-18l28-28q8-7 18-7h60q15 0 26 11t11 27v124zm-37 100q-1 6-4.5 9.5T200 301h-62q-31 0-57-15t-41-41q-15-26-15-57v-87q0-5 3.5-9t9-4q5.5 0 9 4t3.5 9v87q0 24 12 44t32 32q20 12 44 12h62q5 0 8.5 3.5t3.5 8.5h1zm12-225v13q0 5-3.5 9t-9 3.5q-5.5-.5-9-4T200 76V63q0-5 3.5-8.5t9-3.5q5.5 0 9 3.5T225 63zm-37 0v13q-1 5-4.5 9t-8.5 3.5q-5-.5-8.5-4T163 76V63q0-5 3.5-8.5T175 51q5 0 9 3.5t3 8.5h1zm-38 0v13q0 5-3.5 9t-9 3.5q-5.5-.5-9-4T125 76V63q0-5 3.5-8.5t9-3.5q5.5 0 9 3.5T150 63z"/></svg>