<svg viewBox="0 0 300 302.0011" xmlns="http://www.w3.org/2000/svg"><path d="M106 32q0-13 9.5-22t22-9q12.5 0 22 9t9.5 22q0 13-9.5 22.5t-22 9q-12.5-.5-22-9.5T106 32zm119 150q0 14-6 37-3 13-7 24-1 3-4.5 5.5T200 251h-25v37q0 6-3.5 9.5t-9 3.5q-5.5 0-9-3.5T150 288v-37h-25v37q0 6-3.5 9.5t-9 3.5q-5.5 0-9-3.5T100 288v-39q-9-4-16-11-11-12-9-29l11-89q3-19 17-31.5T136 76q19 0 33 12.5t16 31.5q18 9 29 25.5t11 36.5zm-25 0q0-14-8.5-25.5T170 141q-8-3-9-10l-1-8q-1-10-8-16t-16.5-6q-9.5 0-16.5 6t-8 16l-2 19 35 24q5 2 6 7.5t-2.5 10Q144 188 137 188q-3 0-6-2l-26-16-5 42q-1 6 3 10t9 4h79q9-30 9-44z"/></svg>