<svg viewBox="0 0 300.0013 302.0011" xmlns="http://www.w3.org/2000/svg"><path d="M300 151q0 41-20 75.5T225.5 281Q191 301 150 301t-75.5-20Q40 261 20 226.5T0 151q0-41 20-75.5T74.5 21Q109 1 150 1q14 0 27 2 5 1 8 5.5t2 9.5q-1 5-5 8t-9 2q-11-2-23-2-34 0-62.5 17T42 88.5Q25 117 25 151t17 62.5Q59 242 87.5 259t62.5 17q34 0 62.5-17t45.5-45.5q17-28.5 17-62.5 0-11-2-23-1-5 2-9t8-5q5-1 9.5 2t5.5 8q2 13 2 27zM161 77q5 0 9-3t5-8q1-5-2.5-9t-8.5-5q-7-1-14-1-27 0-50 13.5T63.5 101Q50 124 50 151t13.5 50Q77 224 100 237.5t50 13.5q27 0 50-13.5t36.5-36.5q13.5-23 13.5-50 0-7-1-14-1-5-5-8.5t-9-2.5q-5 1-8 5t-2.5 9q.5 5 .5 11 0 20-10 37.5T187.5 216Q170 226 150 226t-37.5-10Q95 206 85 188.5T75 151q0-20 10-37.5T112.5 86Q130 76 150 76q6 0 11 1zm-28 55q4-3 4.5-8t-3-9q-3.5-4-8.5-4.5t-9 3.5q-8 7-12.5 16.5T100 151q0 21 14.5 35.5T150 201q11 0 20.5-4.5T187 184q4-3 3.5-8.5t-4-9q-3.5-3.5-9-3T169 168q-8 8-18.5 8t-18-7.5q-7.5-7.5-7.5-18t9-18.5h-1zm21-2q-4 3-4 8.5t3.5 9q3.5 3.5 9 3.5t9.5-4l58-59h33q5 0 9-3l25-25q2-3 3-6.5t-.5-7q-1.5-3.5-4.5-6t-7-2.5h-25V13q0-3-2-6.5T255.5 2q-3.5-1-7.5-.5T242 5l-25 25q-4 3-4 9v32l-59 59z"/></svg>