<svg viewBox="0 0 300 302.0011" xmlns="http://www.w3.org/2000/svg"><path d="M267 65q-6-7-13.5-10.5T238 51h-55l2-14q1-5 4.5-8t7.5-3h53q5 0 9-3.5t4-9q0-5.5-4-9T250 1h-53q-14 0-24.5 9.5T160 34l-2 17H63q-9 0-16.5 3.5t-13 10Q28 71 26 79t0 16l19 151q3 24 20.5 39.5T107 301h86q24 0 41.5-15.5T255 246l19-149q2-9 0-17t-7-15zm-29 11q6 0 9.5 5t1.5 11l-4 34h-70l6-50h57zM53 81q4-5 9-5h93l-5 50H55l-5-35q-1-6 3-10zm178 162q-2 14-12.5 23.5T193 276h-86q-15 0-25.5-9.5T69 243l-11-92h184l-11 92zm-63-53l-6 50q0 5-4 8t-9.5 2.5q-5.5-.5-8.5-4.5t-2-9l5-50q1-5 5-8t9-2.5q5 .5 8.5 4.5t2.5 9z"/></svg>