<svg viewBox="0 0 300 302.0011" xmlns="http://www.w3.org/2000/svg"><path d="M213 151q-1 5-4.5 9t-8.5 4h-37v37q0 5-4 9t-9 3.5q-5-.5-8.5-4T138 201v-38h-38q-5 0-8.5-3.5t-4-8.5q-.5-5 3.5-9t9-4h38v-37q0-5 3.5-9t8.5-4q5 0 8.5 4t3.5 9v37h38q5 0 8.5 4t3.5 9h1zm87-88v175q0 17-8.5 31.5t-23 23Q254 301 237 301H63q-17 0-31.5-8.5t-23-23Q0 255 0 238V63q0-16 8.5-30.5t23-23Q46 1 63 1h175q16 0 30.5 8.5t23 23Q300 47 300 64v-1zm-25 0q0-15-11-26t-27-11H63q-16 0-27 11T25 64v174q0 16 11 27t27 11h175q15 0 26-11t11-27V63z"/></svg>