<svg viewBox="0 0 300 302.0011" xmlns="http://www.w3.org/2000/svg"><path d="M275 191v-90q0-17-8.5-31.5t-23-22.5Q229 39 212 39H88q-17-1-31.5 7.5t-23 23Q25 84 25 101v90q-11 4-18 13.5T0 226q0 16 11 27t27 11h225q15-1 26-11.5t11-26.5q0-12-7-21.5T275 191zM88 63h125q15 1 26 11.5t11 26.5v87h-56q-5 0-9 4l-9 9h-52l-9-9q-4-4-9-4H50v-87q0-16 11-26.5T88 64v-1zm175 175H38q-6 0-9.5-3.5T25 226q0-5 3.5-8.5T37 214h64l9 8q4 4 9 4h62q5 0 9-4l9-9h64q5 0 8.5 4t3.5 9q0 5-3.5 8.5T263 238zM100 126q0-5 3.5-9t8.5-4h26V88q0-5 3.5-8.5T150 76q5 0 9 3.5t3 8.5v25h26q5 0 8.5 4t3.5 9q0 5-3.5 8.5T187 138h-24v25q0 6-4 9.5t-9 3.5q-5 0-8.5-3.5T138 163v-25h-25q-6 1-9.5-3t-3.5-9z"/></svg>