<svg viewBox="0 0 300 302.0011" xmlns="http://www.w3.org/2000/svg"><path d="M280 201h8q5 0 8.5-3.5t3.5-9q0-5.5-3.5-9T288 176h-8q-5 0-11 1l-76-76 10-11q4-3 4-8t-3.5-9q-3.5-4-8.5-4t-9 3l-49 48-18-18 57-53q8-8 20-10t22 3l29 15q13 6 28 6h13q5 0 8.5-3.5T300 51q0-5-3.5-9t-8.5-4h-13q-9 0-17-3l-29-15q-17-9-36.5-6T159 30l-8 8-9-8q-18-17-42-17-15 0-28 7L48 32 21 5q-3-4-8.5-4t-9 3.5Q0 8 0 13.5T4 22l275 275q3 4 8.5 4t9-3.5q3.5-3.5 3.5-9t-4-8.5l-57-58 18-14q10-7 23-7zM83 42q10-4 22-2.5t20 8.5l8 7-32 29-34-34 16-8zm138 162l-67-66 20-20 70 69-23 17zm-31 39q3 5 2 10t-5 8l-6 5q-13 10-30.5 10T120 265l-76-57q-10-7-23-7h-8q-5 0-9-3.5t-4-9q0-5.5 4-9t9-3.5h8q21 0 38 12l76 58q7 5 15.5 5t15.5-5l6-5q4-3 9.5-2.5t8.5 4.5z"/></svg>