<svg viewBox="0 0 300 302.0011" xmlns="http://www.w3.org/2000/svg"><path d="M238 51H63q-17 0-31.5 8.5t-23 23Q0 97 0 114v74q0 17 8.5 31.5t23 23Q46 251 63 251h175q16 0 30.5-8.5t23-23Q300 205 300 189v-76q0-16-8.5-30.5t-23-23Q254 51 237 51h1zM102 201q-4 0-6-2t-3-5l-3-14H60l-4 14q-1 3-3 5t-6 2q-4 0-6.5-3.5T39 190l18-75q2-8 9.5-12t16-.5Q91 106 93 116l17 74q1 4-1.5 7.5T101 201h1zm173-13q0 16-11 27t-27 11h-87V76h88q15 0 26 11t11 26v75zm-19-67q0 4-2 6t-5 2h-4q-2 13-7 25.5T225 177q11 7 24 8 3 1 5 3t2 5q0 4-2.5 6t-5.5 2q-20-2-35-13-16 11-36 13-3 0-5.5-2t-2.5-6q0-3 2-5t5-3q14-1 25-7-6-7-11-16-2-4 .5-7.5t6.5-3.5q5 0 7 4 4 7 9 13 13-16 16-39h-53q-3 0-5-2t-2-6q0-3 2-5.5t5-2.5h29v-4q0-4 2-6t5-2h1q3 0 5 2t2 6v4h29q3 0 5 2.5t2 5.5zm-180-2l10 43H64l10-43q0-1 1-1t1 1z"/></svg>