<svg viewBox="0 0 300 302.0011" xmlns="http://www.w3.org/2000/svg"><path d="M81 201H13q-6 0-9.5-3.5t-3.5-9q0-5.5 3.5-9T13 176h62l21-32q4-6 11-5.5t10 6.5l28 56 13-19q4-6 11-6h56q5 0 8.5 3.5t3.5 9q0 5.5-3.5 9T225 201h-50l-21 32q-4 6-10 6l-1-1q-7 0-10-6l-28-56-13 19q-4 6-11 6zm194-69v106q0 17-8.5 31.5t-23 23Q229 301 212 301H88q-17 0-31.5-8.5t-23-23Q25 255 25 238q0-5 3.5-8.5t9-3.5q5.5 0 9 3.5T50 238q0 16 11 27t27 11h125q15 0 26-11t11-27V126h-62q-16 0-27-11t-11-26V26H88q-16 0-27 11T50 64v74q0 6-3.5 9.5t-9 3.5q-5.5 0-9-3.5T25 138V63q0-16 8.5-30.5t23-23Q71 1 87 1h57q17 0 33 6.5T206 27l43 43q13 13 19.5 29t6.5 33zm-33-31q-4-7-10-13l-44-44q-6-6-13-10v55q0 5 3.5 8.5t9.5 3.5h54z"/></svg>