<svg viewBox="0 0 300 302.0011" xmlns="http://www.w3.org/2000/svg"><path d="M257 119q6-12 6-24 0-24-16.5-40.5t-40-16.5q-23.5 0-40 16.5T150 95l1 6h-51q-27 0-50 13.5T13.5 151Q0 174 0 201t13.5 50Q27 274 50 287.5t50 13.5h100q27 0 50-13.5t36.5-36.5q13.5-23 13.5-50 0-25-11.5-46.5T257 119zm-51-56q13 0 22.5 9.5t9 22.5q-.5 13-9.5 22t-22 9q-13 0-22-9t-9-22q0-13 9-22t22-9v-1zm-6 213H100q-20 0-37.5-10T35 238.5Q25 221 25 201t10-37.5Q45 146 62.5 136t37.5-10h60q7 12 19.5 18.5T206 151q20 0 35-13 16 11 25 27.5t9 36q0 19.5-10 37T237.5 266Q220 276 200 276zm-12-100q-1 5-4.5 9t-8.5 4h-75q-5-1-8.5 3t-3.5 9q0 5 3.5 8.5t8.5 3.5q5 0 8.5 4t3.5 9q0 5-3.5 9t-8.5 3q-16 1-27-10t-11-27q0-16 11-27t27-11h75q5 0 8.5 4t3.5 9h1zM75 32q0-13 9-22t22-9q13 0 22.5 9t9.5 22q0 13-9.5 22.5t-22.5 9Q93 63 84 54t-9-22zm188-12q0-8 5-13.5T281 1q8 0 13.5 5.5T300 20q0 8-5.5 13T281 38q-8 0-13-5t-5-13z"/></svg>