<svg viewBox="0 0 300 302.0011" xmlns="http://www.w3.org/2000/svg"><path d="M23 224Q7 247 1 274q-2 6-.5 11.5T6 295q4 4 9.5 5.5t11.5.5q27-7 50-23 11-11 11-26.5T77 225q-11-11-27-11.5T23 224zm36 36q-15 10-33 15 5-18 15-33 4-3 9-3t8.5 3.5Q62 246 62 251t-3 9zm166-153q0 13-9 22.5t-22 9q-13-.5-22-9.5t-9-22q0-13 9-22t22-9q13 0 22 9t9 22zM262 1q-45 0-85.5 19.5T108 76q-30 1-57 15-32 14-48 45-4 9-3 18.5t6 17q5 7.5 13.5 12.5t18.5 4h31q18 1 30.5 13.5T113 232v31q-1 10 4 18.5t12.5 13.5q7.5 5 17 6t18.5-3q31-16 45-48 14-27 15-57 36-28 55.5-68.5T300 39q0-16-11-27T262 1zM54 163H38q-7 1-11-5t-1-12q12-22 36-33 12-6 25-9-19 28-33 59zm134 76q-11 24-33 36-6 3-12-1t-5-11v-16q31-14 59-33-3 13-9 25zm2-50q-26 17-54 31-4-21-19-36t-36-19q14-28 31-54 32-44 67-64t84-21q5 0 8.5 3.5T275 38q-1 49-21 84t-64 67z"/></svg>