<svg viewBox="0 0 300 302.0011" xmlns="http://www.w3.org/2000/svg"><path d="M213 176q-11 0-18 7.5t-7 17.5q0 10 7 17.5t17.5 7.5q10.5 0 17.5-7.5t7.5-17.5q.5-10-7-17.5T212 176h1zm-113-38q-21 0-35.5 15T50 188.5Q50 209 64.5 224t35.5 14.5q21-.5 35.5-15t14.5-35q0-20.5-14.5-35.5T100 138zm0 75q-10 0-17.5-7T75 188.5q0-10.5 7.5-17.5t17.5-7.5q10-.5 17.5 7t7.5 18q0 10.5-7.5 17.5t-17.5 7zM270 85l-98-73Q156 1 136 1t-35 12Q70 36 48 66.5T14 133l-1 2q-2 4-3 8-10 28-10 58t10 58q6 19 22.5 30.5T69 301h45q9 0 15.5-5t8.5-13q2-6 7-9.5t11-3.5q6 0 11 3.5t7 9.5q2 8 9 13t15 5h40q16 0 30.5-8.5t23-23Q300 255 300 239v-94q0-18-8-34t-22-26zM116 33q9-7 20.5-7t20.5 6l93 69H69q-7 0-14 2 23-41 61-70zm159 205q0 16-11 27t-27 11l-39-1q-5-13-16.5-21.5T156 245q-14 0-25.5 8.5T114 276H69q-12 0-22-7t-13-18q-9-25-9-50t9-50q3-11 13-18t22-7h202q4 9 4 19v93z"/></svg>