<svg viewBox="0 0 300 302.0011" xmlns="http://www.w3.org/2000/svg"><path d="M213 301q-28 0-49-15t-31-39q-10-24-6-49.5t23-44.5V64q1-29 21-46 17-15 41.5-15T255 18q19 17 20 46v89q19 19 23 44.5t-6 49.5q-10 24-31 39t-48 15zm0-274q-16 0-27 11t-11 26v94q0 6-4 9-12 12-17.5 27.5t-2 32q3.5 16.5 15 29t27 17.5q15.5 5 31.5 1.5t29-14.5q13-11 18-27t1.5-32q-3.5-16-14.5-29l-5-5q-4-3-4-9V64q0-15-11-26t-26-11zm0 224q-16 0-27-11t-10-27q0-12 6.5-21t17.5-14v-76q0-5 3.5-9t9-4q5.5 0 9 4t3.5 9v76q15 6 21.5 20t.5 28q-4 11-13.5 18t-20.5 7zm0-50q-6 0-9.5 4t-3.5 9q0 5 3.5 8.5t9 3.5q5.5 0 9-3.5t3.5-8.5q0-5-3.5-9t-8.5-4zM79 191q-6-1-9.5-4.5T66 178q0-5 4-9l13-13q2-2 5-4v-13q-13-2-23-11l-12 7v6l-5 18q-1 5-5.5 8t-9.5 1.5q-5-1.5-8-6t-1-9.5l5-18-19-5q-5-1-7.5-5.5t-1-9.5q1.5-5 5.5-7.5t9-1.5l19 5 6 2 11-6q-3-12 1-23l-12-7q-3 2-6 3l-18 5q-5 1-9.5-1.5t-6-7Q0 72 2 67t7-6l19-5-4-18q-2-5 1-9.5t8-6q5-1.5 9.5 1T48 31l5 18v7l13 7q9-9 22-11V40q-3-2-5-4L70 23q-4-4-4-9t4-8.5Q74 2 79 2t8 3l13 13 14-13q3-4 8.5-4t9 3.5q3.5 3.5 3.5 9t-3 8.5l-14 14q-2 2-5 4v24q0 6-3.5 9.5T101 77h-7q-7 0-12.5 5.5t-5.5 13q0 7.5 5.5 13T94 114h7q5 0 8.5 3.5t3.5 9.5v34q0 5-3.5 9t-8.5 4l-14 13q-3 4-8 4z"/></svg>