<svg viewBox="0 0 300 302.0011" xmlns="http://www.w3.org/2000/svg"><path d="M238 226V111q11-4 17.5-13.5T263 76V38q0-15-11-26T225 1h-12q-15 0-25 10-11-10-25-10h-25q-15 0-26 10Q102 1 87 1H75Q59 1 48 12T37 39v37q1 12 7.5 21.5T62 111v115q-15 0-26 11t-11 26.5Q25 279 36 290t26 11h176q15 0 26-11t11-26.5q0-15.5-11-26.5t-27-11h1zM75 88q-5 0-8.5-3.5T63 76V38q0-5 3.5-8.5T75 26h13q5 0 8.5 3.5T100 38v13q0 5 3.5 9t9 4q5.5 0 9-4t3.5-9V38q0-5 3.5-8.5T138 26h25q5 0 8.5 3.5T175 38v13q0 5 3.5 9t9 3.5q5.5-.5 9-4T200 51V38q0-5 3.5-8.5T212 26h13q5 0 9 3.5t4 8.5v38q-1 5-4.5 9t-8.5 3.5q-5-.5-9 3.5t-4 9v125H88V101q0-5-4-9t-9-4zm163 188H63q-6 0-9.5-3.5t-3.5-9q0-5.5 3.5-9T63 251h175q5 0 8.5 3.5t3.5 9q0 5.5-3.5 9T238 276zM125 151v-25q0-10 7.5-17.5T150 101q10 0 17.5 7.5T175 126v25q0 5-3.5 9t-8.5 4h-25q-6-1-9.5-4.5T125 151z"/></svg>