<svg viewBox="0 0 300 302.0011" xmlns="http://www.w3.org/2000/svg"><path d="M125 263q0 6-3.5 9.5T113 276H63q-17 0-31.5-8.5t-23-23Q0 230 0 213V63q0-16 8.5-30.5t23-23Q46 1 63 1h150q16 0 30.5 8.5t23 23Q275 47 275 63v25q0 6-3.5 9.5t-9 3.5q-5.5 0-9-3.5T250 88V63q0-15-11-26t-26-11H63q-16 0-27 11T25 63v150q0 16 11 27t27 11h50q5 0 8.5 3.5t3.5 8.5zm-12-62H75v-95l34-34q3-2 3.5-6t-1-7.5Q110 55 107 53t-7-2H75q-10 0-17.5 7.5T50 76v125q0 10 7.5 17.5T75 226h38q5 0 8.5-3.5t3.5-9q0-5.5-3.5-9T113 201zm25-50h-13v-21q0-5 4-9l41-41q4-4 9-4h21q0 5 3.5 8.5t9 3.5q5.5 0 9-3.5T225 76q0-10-7.5-17.5T200 51h-21q-15 0-26 11l-42 42q-11 11-11 26v21q0 10 7.5 17.5T125 176h12q6 0 9.5-3.5t3.5-9q0-5.5-3.5-9T137 151h1zm162 75v25q0 21-14.5 35.5T250 301h-50q-21 0-35.5-14.5T150 251v-25q0-14 7-25.5t18-17.5v-20q0-20 14.5-35t35.5-15q21 0 35.5 15t14.5 35v20q11 6 18 17.5t7 25.5zm-100-50h50v-13q0-10-7.5-17.5T225 138q-10 0-17.5 7.5T200 163v13zm75 50q0-10-7.5-17.5T250 201h-50q-10 0-17.5 7.5T175 226v25q0 10 7.5 17.5T200 276h50q10 0 17.5-7.5T275 251v-25zm-50-6q-8 0-13.5 5.5t-5.5 13q0 7.5 5.5 13T225 257q8 0 13.5-5.5t5.5-13q0-7.5-5.5-13T225 220z"/></svg>