<svg viewBox="0 0 300 302.0011" xmlns="http://www.w3.org/2000/svg"><path d="M238 1H63Q46 1 31.5 9.5t-23 23Q0 47 0 63v175q0 17 8.5 31.5t23 23Q46 301 63 301h175q16 0 30.5-8.5t23-23Q300 255 300 238V63q0-16-8.5-30.5t-23-23Q254 1 238 1zm37 237q0 16-11 27t-26 11H63q-16 0-27-11t-11-27V63q0-15 11-26t27-11h175q15 0 26 11t11 26v175zM63 95q0-13 9-22.5T94 63q13 0 22 9.5t9 22.5q0 13-9 22t-22 9q-13 0-22-9t-9-22zm112 18V76q0-5 3.5-9t9.5-4h37q5 0 9 4t4 9v37q0 6-4 9.5t-9 3.5h-37q-6 0-9.5-3.5T175 113zm-48 80q4 3 4 8.5t-4 8.5l-25 25q-4 4-9 4t-8-4l-25-25q-4-3-4-8.5t4-8.5l25-25q3-4 8-4t9 4l25 25zm116 27q4 6 .5 12t-10.5 6h-53q-8 0-11-6t0-12l27-43q4-5 10.5-5t10.5 5l26 43z"/></svg>