<svg viewBox="0 0 300 302.0011" xmlns="http://www.w3.org/2000/svg"><path d="M300 151q0 5-3.5 9t-8.5 4H13q-6-1-9.5-4.5T0 151q0-5 3.5-9t9.5-4h51q-18-9-28.5-26.5T25 74q0-20 10-36.5T61.5 11Q78 1 98 1h103q20 0 37 10t27 27q10 17 10 37v13q0 6-3.5 9.5t-9 3.5q-5.5 0-9-3.5T250 89V75q0-20-14.5-34.5T201 26H98q-20 0-34 14T50 74q0 16 10 29t26 18l66 18h136q5 0 8.5 3.5t3.5 8.5zm-49 39q-5 2-6.5 7t.5 10q5 10 5 21 0 20-14 34t-34 14H99q-20 0-34.5-14.5T50 227v-13q0-6-3.5-9.5t-9-3.5q-5.5 0-9 3.5T25 214v13q0 20 10 37t27 27q17 10 37 10h103q20 0 36.5-10t26.5-26.5q10-16.5 10-36.5 0-17-8-32-2-5-7-6.5t-9 .5z"/></svg>