<svg viewBox="0 0 300 302.0011" xmlns="http://www.w3.org/2000/svg"><path d="M296 122q4-6 4-12t-3.5-11.5q-3.5-5.5-9-8T276 89q-46 5-79 19-5-24-14-52-7-25-14-42-2-6-7.5-9.5T150 1q-6 0-11.5 3.5T131 14q-7 16-14 42-9 28-14 52-19-8-42-13-20-5-37-6-7-1-12.5 1.5t-8.5 8Q0 104 0 110t4 12q14 22 46 52l-25 9q-6 2-9.5 7T12 201q0 6 3.5 11.5T25 220q30 12 56 16-4 9-5.5 14.5t0 11q1.5 5.5 5.5 9t9.5 5Q96 277 101 275q18-6 36-19v32q0 6 4 9.5t9 3.5q5 0 8.5-3.5t3.5-9.5v-32q19 13 37 19 3 1 6 1 8 0 14-6 4-3 5.5-8.5t0-10.5q-1.5-5-5.5-15 30-5 56-16 6-2 9.5-7.5t3-11.5q-.5-6-4-11t-9.5-7l-24-8q30-29 46-53zm-83 63q2 7 9 9 13 3 30 8-28 10-53 12-7 0-10 6t0 12l7 15q-21-10-33-24v-35q0-5-4-8.5t-9-3.5q-5 0-8.5 3.5T138 188v35l-13 10q-14 11-21 14l7-15q3-6 0-12t-10-6q-24-2-54-12 17-6 31-9 7-2 9-9.5T83 171q-15-13-30-28.5T29 114q18 3 37 8 24 6 41 15 6 3 11.5 0t6.5-9q3-20 11-49 7-25 14-45 7 21 14 45 8 28 11 49 1 6 7 9t11 0q30-16 78-22-10 12-23 27-16 17-31 30-6 5-4 13z"/></svg>