<svg viewBox="0 0 300 302.0011" xmlns="http://www.w3.org/2000/svg"><path d="M106 51H81q-13 0-22 9t-9 22v25q0 13 9 22.5t22 9.5h25q13 0 22.5-9.5T138 107V82q0-13-9.5-22T106 51zm7 56q-1 3-2.5 5t-4.5 2H81q-2-1-4-2.5t-2-4.5V82q0-2 2-4t4-2h25q3 0 4.5 2t1.5 4v25h1zm81 31h25q13 1 22-8.5t9-22.5V82q0-13-9-22t-22-9h-25q-13 0-22.5 9T162 82v25q0 13 9.5 22.5T194 139v-1zm-6-56q0-2 1.5-4t4.5-2h25q2 0 4 2t2 4v25q0 3-2 5t-4 2h-25q-3-1-5-2.5t-2-4.5V82h1zm-82 81H81q-13 0-22 9.5T50 195v25q0 13 9 22t22 9h25q13 0 22.5-9t9.5-22v-25q0-13-9.5-22.5T106 163zm7 57q-1 2-2.5 4t-4.5 2H81q-2 0-4-2t-2-4v-25q0-3 2-4.5t4-1.5h25q3 0 4.5 1.5t1.5 4.5v25h1zm-13 68q0 6-3.5 9.5T88 301H63q-17 0-31.5-8.5t-23-23Q0 255 0 238v-25q0-5 3.5-8.5t9-3.5q5.5 0 9 3.5T25 213v25q0 16 11 27t27 11h25q5 0 8.5 3.5t3.5 9.5v-1zm200-75v25q0 17-8.5 31.5t-23 23Q254 301 238 301h-25q-6 0-9.5-3.5t-3.5-9q0-5.5 3.5-9t9.5-3.5h25q15 0 26-11t11-27v-25q0-5 3.5-8.5t9-3.5q5.5 0 9 3.5t3.5 8.5zm0-150v25q0 6-3.5 9.5t-9 3.5q-5.5 0-9-3.5T275 88V63q0-15-11-26t-27-11h-24q-6 0-9.5-3.5t-3.5-9q0-5.5 3.5-9T213 1h25q16 0 30.5 8.5t23 23Q300 47 300 64v-1zM0 88V63q0-16 8.5-30.5t23-23Q46 1 63 1h25q5 0 8.5 3.5t3.5 9q0 5.5-3.5 9T88 26H63q-16 0-27 11T25 64v24q0 6-3.5 9.5t-9 3.5q-5.5 0-9-3.5T0 88zm200 144q0 8-5.5 13.5T181 251q-8 0-13.5-5.5t-5-13.5q.5-8 5.5-13.5t13-5.5q8 0 13.5 5.5T200 232zm31-69q8 1 13.5 6t5.5 13q0 8-5.5 13.5T231 201q-8 0-13.5-5.5T212 182q0-8 5.5-13.5T231 163zm-68 19q0-8 5-13.5t13-5q8 .5 13.5 5.5t5.5 13q0 8-5.5 13.5T181 201q-8 0-13.5-5.5T162 182h1z"/></svg>