<svg viewBox="0 0 300 302.0011" xmlns="http://www.w3.org/2000/svg"><path d="M248 38q-20-19-44.5-28.5T152 1q-33 1-62.5 18.5T43 66.5Q26 96 25 130q-1 28 10.5 54T68 229l-50 51q-4 3-4 8.5t4 9q4 3.5 9 3.5t9-4l66-66q6-5 7.5-13t-2.5-15q-10-22-6-47 4-27 25-46t49-21q20-2 38 6t31 23.5q13 15.5 17 34.5 1 5 4.5 7.5t8 2.5q4.5 0 8-2.5t4.5-7.5q1-11 1-21 0-27-10-51t-29-43zm-75 26q-24 2-44.5 14T94 109.5Q80 129 76 152q-4 30 6 56-16-15-24-35.5T50 130q1-27 15-51t37.5-38Q126 27 153 26q22-1 42 7t36 23.5Q247 72 255 94q-16-16-37.5-24T173 64z"/></svg>