<svg viewBox="0 0 300 310" xmlns="http://www.w3.org/2000/svg"><path d="M88 168q6 0 12 3v70q-6 3-13 3-15 0-26-11t-11-27q0-16 11-26.5T87 169l1-1zM63 93q0 11 7 18t18 7q6 0 12-3V72q-6-3-13-3-10 0-17 7t-7 18v-1zm237-50v263H125V43q0-15 11-26t26-11h101q15 0 26 11t11 27v-1zm-37 0H163v225h100V43zm-50 200q15 0 26-10.5t11-26.5q0-16-11-26.5T212.5 169q-15.5 0-26.5 10.5T175 206q0 16 11 26.5t27 10.5zm0-125q10 0 17.5-7t7.5-17.5q0-10.5-7.5-18t-18-7.5Q202 68 195 75.5t-7 18q0 10.5 7 17.5t18 7zM0 43v263h100v-38H38V43h62q0-20 13-37H38Q22 6 11 17T0 44v-1z"/></svg>