<svg viewBox="0 0 300 310" xmlns="http://www.w3.org/2000/svg"><path d="M150 6q-41 0-75.5 20T20 80.5Q0 115 0 156q2 57 33 95 29 35 73 47.5t88 0q44-12.5 73-47.5 31-38 33-95 0-41-20-75.5T225.5 26Q191 6 150 6zm0 262q-31 0-56.5-15T53 212.5Q38 187 38 156q1-43 25-72 21-26 54-35t66 0q33 9 54 35 24 29 26 72-1 31-16 56.5T206.5 253Q181 268 150 268zm0-75q38 0 75-12-7 25-25 42-21 20-50 20t-50-20q-18-17-25-42 37 12 75 12zm55-112l8 25h26l4 12-21 15 8 25-10 7-21-15-21 15-10-7 8-25-21-15 3-12h27l8-25h12zm-98 0l8 25h27l4 12-22 15 8 25-9 7-22-15-21 15-10-7 8-25-21-15 4-12h26l8-25h12z"/></svg>