<svg viewBox="0 0 300 310" xmlns="http://www.w3.org/2000/svg"><path d="M113 81q-31 0-57 15t-41 41Q0 163 0 193.5T15 250q15 26 41 41t56.5 15q30.5 0 56.5-15t41-41q15-26 15-56.5T210 137q-15-26-41-41t-57-15h1zm0 187q-21 0-38-10t-27.5-27q-10.5-17-10-37.5T48 156q10-17 27-27.5t37.5-10.5q20.5 0 37.5 10.5t27.5 27.5q10.5 17 10.5 37.5T177.5 231Q167 248 150 258t-37 10zm22-59l17 19q-5 4-12 8-14 8-27.5 8T85 236q-7-4-12-8l17-19 3 3 9 4.5q5 2.5 11.5 2T128 214q4-2 7-5zm-54-16q-8 1-13-4.5T63 175q0-8 5-13.5t13-5.5q8 0 13.5 5.5T100 175q0 8-5.5 13.5T81 194v-1zm82-18q0 8-5.5 13.5T144 194q-8 0-13.5-5.5T125 175q0-8 5.5-13.5T144 156q8 0 13.5 5.5T163 175zm137-94h-37v37h-38V81h-37V43h37V6h38v37h37v38z"/></svg>