<svg viewBox="0 0 300 310" xmlns="http://www.w3.org/2000/svg"><path d="M256 6H44Q26 6 13 19T0 50v256h300V50q0-18-13-31T256 6zm7 262H38V50q0-3 1.5-5t4.5-2h212q3 0 5 2t2 5v218zm-63-150q0-20-14.5-35T150 68q-21 0-35.5 15T100 119q0 16 10 29-16 16-16 39.5t16.5 39.5q16.5 16 39.5 16t39.5-16q16.5-16 16.5-39.5T190 148q10-13 10-29v-1zm-50-18q8 0 13.5 5.5t5.5 13q0 7.5-5.5 13T150 137q-8 0-13.5-5.5t-5.5-13q0-7.5 5.5-13T150 100zm0 106q-8 0-13.5-5.5T131 187q0-8 5.5-13t13.5-5q8 0 13.5 5t5.5 13q0 8-5.5 13.5T150 206z"/></svg>