<svg viewBox="0 0 300 310" xmlns="http://www.w3.org/2000/svg"><path d="M300 50v184l-11-5-26-54V50q0-8 5-13.5t13-5.5q8 0 13.5 5.5T300 50zM169 268h-43l-14-12V51q0-7-4-13t-12-7q-8-1-14.5 4.5T75 50v153l-33-29q-8-6-18.5-5T6 178q-7 8-6 18.5T9 214l57 50 45 42h117l-5-11-54-27zm-25-56l25 13 12 25 13-25 25-13-25-12-13-25-12 25-25 12zM31 118l11-20 21-11-21-10-11-21-10 21L0 87l21 11 10 20zm225 100l-14 30-29 14 29 15 14 29 15-29 29-15-29-14-15-30zM175 25q0-8-5.5-13.5T156 6q-8 0-13.5 5.5T137 25v118h38V25zm63 0q0-8-5.5-13.5T219 6q-8 0-13.5 5.5T200 25v118h38V25z"/></svg>