<svg viewBox="0 0 300 310" xmlns="http://www.w3.org/2000/svg"><path d="M300 288l-17 18-91-91q-13-5-21-17.5t-8-29.5v-25q0-21 13-35.5T208 93h4q13 0 24 8.5t17 22.5l-24 9q-2-6-7-10.5t-10-4.5h-4q-9 0-14.5 7t-5.5 18v25q0 12 5.5 19t14.5 6h4q5 0 9.5-3.5T229 179l23 10q-8 19-25 26l28 28h8V75q0-3-2-5t-5-2H80l26 26q11 2 20 10t14 20l-23 9q-3-6-8-10.5T99 118h-4q-9 0-14.5 7T75 143v25q0 12 5.5 18.5T95 193h4q5 0 10-3.5t8-10.5l23 10q-6 13-17 21t-24 8h-4q-19 0-32-14t-13-36v-25q0-14 7-26t18-18L0 24 18 6l25 25h213q18 0 31 13t13 31v206h-7l7 7zM38 243V96L1 60q-1 5-1 8v213h222l-37-38H38z"/></svg>