<svg viewBox="0 0 300 310" xmlns="http://www.w3.org/2000/svg"><path d="M88 112q0 8-5.5 13.5T69 131q-8 0-13.5-5.5T50 112q0-8 5.5-13.5t13.5-5q8 .5 13.5 5.5t5.5 13zm125 13q-1 8 4.5 13.5t13.5 5q8-.5 13.5-5.5t5.5-13q0-8-5.5-13.5T231 106q-8 0-13.5 5.5T212 125h1zM69 168q-8 0-13.5 5.5T50 187q0 8 5.5 13.5T69 206q8 0 13.5-5.5T88 187q0-8-5.5-13.5T69 168zm144 32q-1 8 4.5 13.5t13.5 5q8-.5 13.5-5.5t5.5-13q0-8-5.5-13.5T231 181q-8 0-13.5 5.5T212 200h1zM27 272q8-4 22-8 25-8 45-8 10 0 25 4 9 2 27 8 21 6 32 9 18 4 32 4 24 0 53-9 15-4 26-9l11-5V87q0-10-4.5-19.5T283 52q-8-6-17.5-8T247 44l-13 5q-10 3-16 5-9 2-18.5 2T177 52q-9-2-26-7v-1l-30-9q-17-4-31-4-31 0-67 19-11 5-17 15T0 87v197l27-12zm11-44V87q0-3 2-4 28-14 50-14 10 0 24 3 8 2 25 8 20 7 30 9 17 5 31 5t27-4q8-2 20-6l9-3q2-1 4.5 1t2.5 5v146q-30 11-53 11-10 0-25-4-9-2-28-8-21-7-32-9-17-4-31-4-25 0-56 9zm137-117l-5-1q-10-2-22-6l-4-1-43 44 27 27 10-10v42l37 10V111z"/></svg>