<svg viewBox="0 0 300 310" xmlns="http://www.w3.org/2000/svg"><path d="M300 125q0-17-10.5-29T263 81.5q-16-2.5-30 6t-18.5 24q-4.5 15.5 2 30.5t20.5 22v42q0 17-8 31.5t-22.5 23Q192 269 175 269t-31.5-8.5q-14.5-8.5-22.5-23t-8-31.5v-2q32-7 53-32.5t22-59.5V50q0-18-13-31T144 6h-31v37h31q2 0 4 2t2 5v62q0 24-16.5 40t-40 16q-23.5 0-40-16T37 112V50q1-3 2.5-5t4.5-2h31V6H44Q26 6 13 19T0 50v62q0 34 21 59.5T75 204v2q0 27 13.5 50t36.5 36.5q23 13.5 50 13.5t50-13.5q23-13.5 36.5-36.5t13.5-50v-42q11-5 18-16t7-23z"/></svg>