<svg viewBox="0 0 300 310" xmlns="http://www.w3.org/2000/svg"><path d="M295 184q-3-11-10.5-20T266 150q-21-11-43-4-10 3-19 9.5T190 173h-1q-11-12-27-15.5t-32 2.5q-11 4-20 12-6-10-14.5-16.5T77 146q-22-7-43 4-11 5-18.5 14T5 184q-10 31 1 82 2 9 8 16t16 10q5 1 11 1 13 0 23-9 22-19 36-38 7 20 20 43 5 8 13 12.5t17 4.5q9 0 17-4.5t13-12.5q13-23 20-43 14 19 36 38 10 9 23 9 6 0 12-1 9-3 15-10t8-16q11-51 1-82zM79 205q-7 21-37 49-8-38-2-59 3-7 11-11 5-3 10-3 3 0 6 1t6 3q10 8 6 20zm71 61q-19-34-19-55 0-12 12-16 4-2 7-2 7 0 13 6t6 13q-1 21-19 54zm108-12q-30-28-37-49-4-12 6-20 3-2 6-3t6-1q5 0 10 3 8 4 11 11 6 21-2 59zM75 81q-27-8-52-22-13-7-21-13l21-30 16 9q24 13 49 21l5 2q17 4 32 6 13 2 25 2 43 0 89-20 23-10 38-20l21 30q-7 6-21 13-25 14-52 22l14 36q-10 1-18.5 3.5T203 128l-14-38q-10 2-20 3v41q-19-6-38 0V93q-10-1-20-3l-14 38q-9-5-17.5-7.5T61 117l14-36z"/></svg>