<svg viewBox="0 0 300 310" xmlns="http://www.w3.org/2000/svg"><path d="M175 98q0-3-2-5t-4-3l-41-6q-12-2-20-11.5t-8-22q0-12.5 9.5-22.5T133 18h5V6h25v12q15 0 26 11.5T200 56h-25q0-5-3.5-9t-8.5-4h-30q-3 0-5.5 2.5T125 51q0 3 2 5.5t5 2.5l41 7q12 2 19.5 11t7.5 22q0 13-9.5 22.5T167 131h-4v12h-25v-12q-16 0-27-11t-11-27h25q0 6 3.5 9.5t9.5 3.5h29q3 0 5.5-2.5T175 98zm91-42q-12 1-20 11t-8 22v43q-12-2-24 1t-21 12l-43 43-42-42q-9-9-21.5-12.5T63 132V89q0-12-8-22T34 56q-13-1-23.5 8T0 87v177l42 42h53l-57-58v-38l41 42 27-27-42-41q-2-3-1.5-7t4-6.5q3.5-2.5 7.5-2t7 3.5l47 48q10 9 10 22v64h37v-64q0-10-4-22l49-49q3-3 7.5-3t7 3q2.5 3 3 6.5T236 184l-41 41 26 27 42-41v37l-58 58h53l42-42V87q0-14-10.5-23T266 56z"/></svg>