<svg viewBox="0 0 300 310" xmlns="http://www.w3.org/2000/svg"><path d="M206 68q-15 0-27 6-6-4-12-6-8-42-44-60l-17 34q8 4 13 9 7 8 10 19l-8 4q-12-6-27-5-19-1-41.5 15.5T16 127Q0 156 0 187t16 60q15 26 37 42.5T94 306q12 0 25-5 15 5 31 5t31-5q14 5 25 5 19 0 41-16.5t37-42.5q16-29 16-60t-16-60q-14-26-36.5-42T206 69v-1zm0 200q-8 0-17-4l-8-4-10 4q-12 4-21 4t-21-4l-10-4-3 2q-3 3-8.5 4.5T94 268q-8 0-21.5-11T49 229q-11-20-11-42t11-42q10-17 23.5-28T94 106q11 0 18 5l13 10 11-11q14-14 28 0l11 11 13-10q7-5 18-5 8 0 21.5 11t23.5 28q12 20 12 42t-12 42q-10 17-23.5 28T206 268zm13-87h-50l25-50 25 50zm-88 0H81l25-50 25 50zm107 12q-4 4-7 8-8 9-17 16-13 11-27 17v-16h-24v24q-7 1-13 1-17 0-35-7-14-7-27-18-10-7-19-17l-6-8 12 4q17 5 38 7v14h25v-12h12q25 0 48-3 16-3 29-6l11-4z"/></svg>