<svg viewBox="0 0 300 310" xmlns="http://www.w3.org/2000/svg"><path d="M150 6q-41 0-75.5 20T20 80.5Q0 115 0 156t20 75.5Q40 266 74.5 286t75.5 20q41 0 75.5-20t54.5-54.5q20-34.5 20-75.5t-20-75.5Q260 46 225.5 26T150 6zm-37 256v-25q-1-2 1-4t5-2h62q3 0 5 2t2 4v25q-19 6-38 6.5t-37-6.5zm112-22v-3q0-18-13-31t-31-13h-62q-18 0-31 13t-13 31v3q-18-16-27.5-38T38 156q-1-31 14.5-56.5t41-41Q119 43 150 43t56.5 15.5q25.5 15.5 41 41T262 156q1 24-9 46t-28 38zM150 81q-18 0-31 13t-13 31q0 18 13 30.5t31 12.5q18 0 31-12.5t13-30.5q0-18-13-31t-31-13z"/></svg>