<svg viewBox="0 0 300 310" xmlns="http://www.w3.org/2000/svg"><path d="M138 124v94l-63-17v-86q0-11 8.5-17.5T103 94l16 5q8 2 13 9t5 16h1zm59-30l-16 5q-8 2-13 9t-5 16v94l62-17v-86q0-11-8.5-17.5T197 94zm103 62q0 41-20 75.5T225.5 286Q191 306 150 306t-75.5-20Q40 266 20 231.5T0 156q0-41 20-75.5T74.5 26Q109 6 150 6t75.5 20Q260 46 280 80.5t20 75.5zm-37 0q0-31-15.5-56.5t-41-41Q181 43 150 43.5T93.5 59Q68 74 52.5 99.5t-15 56.5q.5 31 15.5 56.5T93.5 253q25.5 15 56.5 15t56.5-15q25.5-15 41-40.5T263 156z"/></svg>