<svg viewBox="0 0 300 310" xmlns="http://www.w3.org/2000/svg"><path d="M150 93q-17 0-31.5 8.5t-22.5 23Q88 139 88 156t8 31.5q8 14.5 22.5 22.5t31.5 8q17 0 31.5-8t23-22.5Q213 173 213 156t-8.5-31.5q-8.5-14.5-23-23T150 93zm0 88q-10 0-17.5-7.5T125 156q0-10 7.5-17.5T150 131q10 0 17.5 7.5T175 156q0 10-7.5 17.5T150 181zm144 1q-7 12-19 20-4 2-4 6 3 12-1 28.5T255 262q-6 8-17 13l-2-38-1-19q-3-13 2.5-25.5T255 172q5-2 6.5-6.5t1.5-9.5q0-5-1.5-8t-6.5-8q-12-8-17.5-20.5T235 93q1-1 0-6v-3q-1-4-4.5-7.5t-8-5.5q-4.5-2-9.5 0-14 3-26.5-2.5T166 51q-2-5-6.5-6.5T150 43q-5 0-8 1.5t-8 6.5q-8 12-21 18t-25 2q-2-1-7 0h-4q-8 2-12 12v10q3 14-2.5 26.5T45 140q-4 2-6 6.5t-2 9.5q0 5 1.5 8t6.5 8q11 8 17 21t3 25l-1 12q-2 27-2 35l1 10q-12-5-20.5-14.5T30 238q-2-7-2-21 0-5 1-6 0-4-4-6-10-7-19-20-6-12-6-27t6.5-27Q13 119 25 111q4-2 4-6-2-9-1.5-16T30 73q4-13 14-23t23-13.5Q80 33 96 35q5 0 7-4 6-10 20-19 12-6 26.5-6t26.5 6.5Q188 19 196 31q2 4 7 4 11-3 28 1 14 4 24 14t13.5 23q3.5 13 1.5 29 0 5 4 6 10 7 18 20t8 27.5q0 14.5-6 26.5zm-81 86v7q0 17-3 22-3 9-16 9-8 0-22-9-8-5-22-16-11 10-22 17-13 8-22 8-13 0-16-9-3-5-3-22v-13q0-17 3-22 3-9 16-9 8 0 22 9 8 5 22 16 11-10 22-17 13-8 22-8 13 0 16 9 3 5 3 22v7-1z"/></svg>