<svg viewBox="0 0 300 310" xmlns="http://www.w3.org/2000/svg"><path d="M150 206q-23 0-50 6-14 3-25 6 0 1 0 0 7-24 25-41 21-21 50-21t50 21q18 17 25 41 0 1 0 0-11-3-25-6-27-6-50-6zm150-50q0-41-20-75.5T225.5 26Q191 6 150 6T74.5 26Q40 46 20 80.5T0 156q0 41 20 75.5T74.5 286q34.5 20 75.5 20t75.5-20q34.5-20 54.5-54.5t20-75.5zm-37 0q0 31-15.5 56.5t-41 40.5Q181 268 150 268t-56.5-15Q68 238 53 212.5T38 156q0-31 15-56.5T93.5 59Q119 44 150 43.5t56.5 15q25.5 15.5 41 41T262 156h1zm-27-44q-8 0-15-1-17-1-24-4.5T179 91q-6-6-10-12-8 16-6 34 2 20 17.5 27.5T214 137q14-9 22-25zm-117 29q16-8 18-28 2-18-6-34l-10 12q-11 12-18 15.5T79 111l-15 1q8 16 22 25 18 11 33 4z"/></svg>