<svg viewBox="0 0 300 310" xmlns="http://www.w3.org/2000/svg"><path d="M294 25q0 8-5.5 13T275 43q-8 0-13.5-5T256 25q0-8 5.5-13.5T275 6q8 0 13.5 5.5T294 25zM150 43q8 0 13.5-5t5.5-13q0-8-5.5-13.5T150 6q-8 0-13.5 5.5T131 25q0 8 5.5 13t13.5 5zm63 0q7 0 12.5-5t5.5-13q0-8-5.5-13.5t-13-5.5q-7.5 0-13 5.5T194 25q0 8 5.5 13t12.5 5h1zM88 43q7 0 12.5-5t5.5-13q0-8-5.5-13.5T87.5 6q-7.5 0-13 5.5T69 25q0 8 5.5 13T88 43zM25 6q-8 0-13.5 5.5T6 25q0 8 5.5 13T25 43q8 0 13.5-5T44 25q0-8-5.5-13.5T25 6zm103 72l-69 68 27 27 45-46v179h38V127l45 46 27-27-69-68q-9-9-22-9t-22 9z"/></svg>