<svg viewBox="0 0 300 310" xmlns="http://www.w3.org/2000/svg"><path d="M150 218q-17 0-31.5-8T96 187.5Q88 173 88 156t8-31.5q8-14.5 22.5-23T150 93q17 0 31.5 8.5t23 23Q213 139 213 156t-8.5 31.5q-8.5 14.5-23 22.5t-31.5 8zm0-87q-10 0-17.5 7.5T125 156q0 10 7.5 17.5T150 181q10 0 17.5-7.5T175 156q0-10-7.5-17.5T150 131zM169 6h-38v62h38V6zm0 237h-38v63h38v-63zM63 137H0v38h63v-38zm237 0h-62v38h62v-38zm-31-74l-26-26-44 44 26 26 44-44zM101 231l-26-26-44 44 26 26 44-44zm0-150L57 37 31 63l44 44 26-26zm168 168l-44-44-26 26 44 44 26-26z"/></svg>