<svg viewBox="0 0 300 310" xmlns="http://www.w3.org/2000/svg"><path d="M121 110l-3-3q15-13 18.5-33.5T130 35Q118 14 95 8t-44 6Q27 28 13.5 52T0 106q0 20 2 32 3 14 10 27t20 20.5q13 7.5 28.5 7.5t29.5-7l10-8v128h38V150q0-24-17-40zm-51 43q-7 4-14.5 2T44 146q-4-7-5-15.5T38 106q0-16 5-30 8-19 27-30 5-2 10-2h5q8 2 12 9.5t2 16Q97 78 90 82q-15 9-16 23-1 9 4 20 4 8 2 16t-10 12zM249 14q-21-12-44-6t-35 27q-10 18-6.5 38.5T182 107l-3 3q-16 16-16 40v156h37V178q3 3 11 8 14 8 28.5 8t28-8q13.5-8 20.5-20.5t10-27.5q2-12 2-32 0-30-13.5-54T249 14zm7 132q-4 7-11.5 9t-15-2q-7.5-4-9.5-12t2-16q5-11 4-20-1-14-16-23-7-4-9-12.5t2-16q4-7.5 12-9.5t15 2q19 11 27 30 6 14 6 30t-1.5 24.5Q260 139 256 146z"/></svg>