<svg viewBox="0 0 300 310" xmlns="http://www.w3.org/2000/svg"><path d="M150 31q-42 0-76.5 10.5t-54 29Q0 89 0 112v88q0 23 19.5 41.5t54 29Q108 281 150 281t76.5-10.5q34.5-10.5 54-29T300 200v-88q0-23-19.5-41.5t-54-29Q192 31 150 31zm0 37q32 1 60 8 24 6 38 16.5t14 20q0 9.5-14 19.5t-38 17q-28 7-60 7t-60-7q-24-7-38-17t-14-19.5q0-9.5 14-20T90 76q28-8 60-7v-1zm-19 125v50q-16-1-31-5v-49q15 3 31 4zm38 0q16-1 31-4v49q-15 4-31 5v-50zm-131 7v-33q11 7 25 12v47q-12-6-18.5-13T37 200h1zm200 26v-47q13-5 25-12v33q0 6-7 13t-19 13h1z"/></svg>