<svg viewBox="0 0 300 310" xmlns="http://www.w3.org/2000/svg"><path d="M73 232l-11-10 27-27 11 11q9 10 22.5 12t25.5-3l27 28q-20 13-44 13-16 0-31-6t-27-18zM0 33l273 273 27-27-79-79 55-55q16-16 21.5-37t0-42q-5.5-21-21-36.5T240 8.5q-21-5.5-42 0T161 30l-14 14 9-1q20 0 39 8 12-9 28-7.5T250 56q12 13 12 31.5T250 118l-56 56-61-62q13-7 28-5.5t26 12.5l11 11 26-27-11-11q-14-14-33-20t-38.5-2.5Q122 73 106 85L27 6 0 33zm24 134Q8 183 2.5 204t0 42Q8 267 24 282q12 12 26.5 18t30.5 6q16 0 31-6t27-18l1-1h-9q-27 0-51-13-17 0-29.5-12.5t-12.5-31Q38 206 50 194l38-38-26-27-38 38z"/></svg>