<svg viewBox="0 0 300 310" xmlns="http://www.w3.org/2000/svg"><path d="M56 156h19l-3 9q-9 26-9 53H25v-25H0v-59q0-25 8-48l18-51q5-13 16.5-21T68 6h77q14 0 25 8t16 21l12 33h-40l-7-20q-2-4-6-4H68q-5-1-6 4L50 81h66q-18 13-26 33l-1 4H56q-8 0-13 5.5T38 137q0 8 5 13.5t13 5.5zm244 65v60h-25v25h-50v-25h-62v25h-50v-25H88v-60q-1-24 8-48l18-50q5-14 16-21.5t25-7.5h77q14 0 25.5 7.5T274 123l18 50q8 24 8 48zm-137 4q0-8-5.5-13.5T144 206q-8 0-13.5 5.5T125 225q0 8 5.5 13.5t13.5 5q8-.5 13.5-5.5t5.5-13zm87-57l-12-33q-1-4-6-4h-77q-4 0-6 4l-12 33h113zm13 57q0-8-5.5-13.5T244 206q-8 0-13.5 5.5T225 225q0 8 5.5 13.5t13.5 5q8-.5 13.5-5.5t5.5-13z"/></svg>