<svg viewBox="0 0 300 310" xmlns="http://www.w3.org/2000/svg"><path d="M292 186l-18-51q-5-13-16.5-21t-25.5-8h-64q-14 0-25.5 8T126 135l-18 51q-8 23-8 48v47h25v25h50v-25h50v25h50v-25h25v-47q0-25-8-48zm-136 57q-8 0-13.5-5t-5.5-13q0-8 5.5-13.5T156 206q8 0 13.5 5.5T175 225q0 8-5.5 13t-13.5 5zm-6-62l12-33q1-4 6-5h64q5 0 6 5l12 33H150zm94 62q-8 0-13.5-5t-5.5-13q0-8 5.5-13.5T244 206q8 0 13.5 5.5t5 13.5q-.5 8-5.5 13t-13 5zM102 69l56-6 6-56 36 36 36-36 6 56 56 6-25 25q-18-13-41-13h-77q-17 0-33 9l-20-21zm1 58l-18 50q-7 19-9 40l-36 6-4-24-25 4-8-46q-5-24-1-49l8-53q2-14 12-24t23-12l64-12q15-3 29 5l-3 28-19 4-64 12q-4 0-5 5l-5 35 43-8 25 25q-5 7-7 14z"/></svg>