<svg viewBox="0 0 300 310" xmlns="http://www.w3.org/2000/svg"><path d="M300 206q0-18-14-31 1-18-12-31t-31-12q-4-5-10-8 5-8 5-18 0-18-14-31 1-18-12-31t-31-12q-13-13-31-13t-31 13q-18 0-31 12.5T76 75q-13 13-13 31 0 10 4 18-6 3-10 8-19 0-31.5 12.5T14 175Q0 188 0 206t14 31q-1 18 12 31t31 12q12 13 30.5 13t30.5-13q18 1 31-12l1-1 1 1q13 13 31 12 12 13 30.5 13t30.5-13q18 1 31-12t12-31q14-13 14-31zM102 103q7-5 10-13t2-16q-1-2 .5-3.5t3.5-.5q8 1 16-2t13-10q1-2 3-2t3 2q5 7 13 10t16 2q2-1 3.5.5t.5 3.5q-1 8 2 16t10 13q2 1 2 3t-2 3q-10 7-12 19l-4 4q-19 0-31 12l-1 1-1-1q-13-13-31-12l-4-4q-2-12-12-19-2-1-2-3t2-3zm34 106q-7 5-10.5 13t-1.5 16q0 2-1.5 3.5T120 243q-8-2-16 1t-13 10q-1 2-3.5 2t-3.5-2q-4-6-10-9t-13-3q-3 0-5.5.5t-3.5-1q-1-1.5-1-3.5 2-8-1.5-16T39 209q-2-1-2-3t2-3q7-5 10.5-13t1.5-16q0-2 1-3.5t3-.5q9 1 16.5-2T84 158q1-2 3.5-2t3.5 2q5 7 12.5 10t15.5 2q3-1 4 .5t1 3.5q-2 8 1.5 16t10.5 13q1 1 1 3t-1 3zm125 0q-7 5-10.5 13t-1.5 16q0 2-1.5 3.5T245 243q-8-2-16 1t-13 10q-1 2-3.5 2t-3.5-2q-5-7-13-10t-16-1q-2 0-3-1.5t-1-3.5q2-10-3-19 2-6 2-13t-2-13q5-9 3-19 0-2 1-3.5t3-.5q9 1 16.5-2t12.5-10q1-2 3.5-2t3.5 2q5 7 12.5 10t16.5 2q2-1 3 .5t1 3.5q-2 8 1.5 16t10.5 13q1 1 1 3t-1 3z"/></svg>