<svg viewBox="0 0 300 310" xmlns="http://www.w3.org/2000/svg"><path d="M300 131h-37q-1-24-12.5-44T219 55.5Q199 44 175 44V6q34 0 62.5 17T283 68.5Q300 97 300 131zM175 68v38q10 0 17.5 7.5T200 131h38q-1-17-9-31.5T206.5 77Q192 69 175 68zm78 216l46-46-83-83-37 38q-22-10-38.5-27T114 127l37-37L68 7 22 53Q11 63 5.5 77.5T0 107q0 32 19 69 17 34 47 64t64 47q37 19 69 19 15 0 29.5-5.5T253 284zM98 90l-29 28 5 12q13 35 40 62t62 40l12 5 28-29 30 30-19 19q-12 12-28 12-23 0-51-15t-53.5-39.5Q69 190 54 163q-16-30-16-56-1-16 11-28l19-19 30 30z"/></svg>