<svg viewBox="0 0 300 310" xmlns="http://www.w3.org/2000/svg"><path d="M150 193q17 0 33 8 9 4 16 9l-23 30-3-2q-5-3-11-5t-12-2q-9 0-18 4-5 3-8 5l-23-30q7-5 16-9 16-7 33-7v-1zm-75-25h50v-37H75v37zm150-37h-50v37h50v-37zM150 6q-33 0-64 14 12 19 14 36 24-13 50-12 31-1 56.5 14.5t41 41q15.5 25.5 15 56.5T247 212.5q-15 25.5-40.5 41t-56.5 15q-31-.5-56.5-15.5T53 212.5Q38 187 38 156q0-19 6-38-20 0-35-12-9 25-9 50 0 41 20 75.5T74.5 286q34.5 20 75.5 20t75.5-20q34.5-20 54.5-54.5t20-75.5q0-41-20-75.5T225.5 26Q191 6 150 6zM44 93q13 0 22-9t9-21q0-12-8-26-6-11-15-22l-8-9-8 9Q26 26 21 36q-8 15-8.5 27t9 21.5Q31 94 44 94v-1z"/></svg>