<svg viewBox="0 0 300 310" xmlns="http://www.w3.org/2000/svg"><path d="M125 125q0 8-5.5 13.5t-13.5 5q-8-.5-13.5-5.5t-5-13q.5-8 5.5-13.5t13-5.5q8 0 13.5 5.5T125 125zm-19 43q-8 1-13.5 6t-5 13q.5 8 5.5 13.5t13 5.5q8 0 13.5-5.5T125 187q0-8-5.5-13.5T106 168zm149-50h-38l42 42-27 26-41-41q-3-2-7.5-1.5t-6.5 4q-2 3.5-1.5 7.5t3.5 7l47 47q9 9 22 9h52v38h-52q-28 0-48-20l-13-12v32h-87v50H44q-18 0-31-13T0 262V50q0-18 13-31T44 6h56v50h88v25h82l30 30v53l-45-46zM150 218v-32q-11-13-12-30t8-30l4-4V93H38v25q15 0 26 11t11 27q0 16-11 26.5T38 193v25h112z"/></svg>