<svg viewBox="0 0 300 310" xmlns="http://www.w3.org/2000/svg"><path d="M272 85q-6 7-13.5 13T243 109q8 8 13.5 18.5T263 150q0 31-22 61-19 25-47 42-26 16-44 15.5T106 253q-28-17-47-42-21-30-21-61-1-11 3-21.5T53 110q8-8 18.5-12.5T94 93q16 0 32 7.5t26.5 20.5q10.5 13 10.5 29-2 35-22 63l30 23q28-39 29-86 0-28-17-50 33-1 61-22 12-10 20-23.5T274 25l1-8-8-4q-17-7-36-7-21 0-40.5 9.5T158 42q-8-17-24-26.5T100 6v37q8 1 15 5.5T125 61q-15-5-31-5-19 0-36.5 7t-31 20Q13 96 6.5 113.5T0 150q0 32 16 62 15 27 40 50 23 20 48.5 32t45.5 12q20 0 45.5-12t48.5-32q25-23 40-50 16-30 16-62-1-18-8-35t-20-30z"/></svg>