<svg viewBox="0 0 300 310" xmlns="http://www.w3.org/2000/svg"><path d="M95 126q0 10 7.5 17.5t18 7.5q10.5 0 17.5-7.5t7-17.5q0-10-7-17.5t-17.5-7.5q-10.5 0-18 7.5T95 126zm130-95q0 10 7.5 17.5T250 56q10 0 17.5-7.5T275 31q0-10-7.5-17.5T250 6q-10 0-17.5 7.5T225 31zM125 206q0 10 7.5 17.5T150 231q10 0 17.5-7.5T175 206q0-10-7.5-17.5T150 181q-10 0-17.5 7.5T125 206zm25 100q-41 0-75.5-20.5t-54.5-55Q0 196 0 155.5t20-75Q40 46 74.5 26T150 6h14l16 2 1 15q3 27 17 49t36 36q22 14 48 16l16 2 1 15q1 8 1 15 0 40-20 74.5t-54.5 55Q191 306 150 306zm-4-263q-30 1-55 16.5T51.5 101q-14.5 26-14 56T53 212.5Q68 238 93.5 253t55.5 15q30 0 55.5-14t41.5-39.5q16-25.5 17-55.5-44-9-75.5-40.5T146 43z"/></svg>