<svg viewBox="0 0 300 310" xmlns="http://www.w3.org/2000/svg"><path d="M193 90l-19 11q-8-7-18-10V68h-37v23q-10 3-18 10L82 90l-19 32 19 11q-2 11 0 21l-19 11 19 32 19-11q8 7 18 10v22h37v-22q10-3 18-10l19 11 19-32-19-11q2-11 0-21l19-11-19-32zm-55 72q-8 0-13.5-5.5t-5.5-13q0-7.5 5.5-13t13-5.5q7.5 0 13 5.5t5.5 13q0 7.5-5.5 13T137 162h1zm160-1q-2-5-7-16l-1-3q-16-43-41-81-24-31-61-45.5t-75.5-7q-38.5 7.5-68 34T5 107q-9 33-1.5 66T33 232q4 5 5 12v62h175v-38h11q16 0 28.5-10.5T267 231l4-31h29v-35l-2-4zm-59 1l-9 64q0 2-2 3.5t-4 1.5h-49v37H75v-24q0-21-13-36-16-19-21.5-43t.5-48q8-28 29-47.5T119.5 45q28.5-5 55.5 5.5T219 84q22 35 37 73l2 5h-19z"/></svg>