<svg viewBox="0 0 300 310" xmlns="http://www.w3.org/2000/svg"><path d="M169 247v59h-38v-59q-19-6-31.5-22.5t-12-36.5q.5-20 10.5-35.5t27-22.5v38q0 11 7.5 18.5t17.5 7q10-.5 17.5-7.5t7.5-18v-38q17 7 27 22.5t10.5 35.5q.5 20-12 36.5T169 247zM300 50v231H200v-21q11-7 20-16h43V93H38v150h42q9 10 20 17v21H0V50q0-18 13-31T44 6h212q18 0 31 13t13 31zM75 50q0-8-5.5-13.5T56 31q-8 0-13 5.5T38 50q0 8 5 13.5t13 5q8-.5 13.5-5.5T75 50zm63 0q0-8-5.5-13.5T119 31q-8 0-13.5 5.5T100 50q0 8 5.5 13t13.5 5q8 0 13.5-5t5.5-13z"/></svg>