<svg viewBox="0 0 300 310" xmlns="http://www.w3.org/2000/svg"><path d="M252 54q0-16-9-28-8-10-20-15-10-5-18.5-5t-13 3.5Q187 13 187 20v74h-12q-18 0-38 3l1-30q-27 0-52 7-19 5-35 14-6 3-9.5 9T38 110v29q-20 22-29 58t-9 90v19h19q53 0 88.5-8.5t58-27.5q22.5-19 33.5-52h14q9 1 16-5t8-15l5-30h-33q3-19 3-37v-13h74q7 0 10.5-4t3.5-12.5q0-8.5-5-18.5-5-12-15-20-12-9-28-9zM149 233l-5 5-4 4q-16 13-40.5 19T38 268q1-37 7-61.5T64 167l9-10q15-13 39.5-19t62.5-7q-1 38-7 62.5T149 233zm-94-20l27-27 38 38-27 26-38-37zm82-6l-38-38 27-26 37 37-26 27z"/></svg>