<svg viewBox="0 0 300 310" xmlns="http://www.w3.org/2000/svg"><path d="M97 130q-6 4-16 18-5 7-8 13-10-15-10-32-1-21 13-30.5t33-1.5q16 7 26 22l-15 3q-16 3-23 8zm127-31q-14-10-33-2-16 7-26 22l15 3q16 3 22.5 7.5T219 148l8 13q10-15 10-32 1-21-13-30zM150 6q-41 0-75.5 20T20 80.5Q0 115 0 156q0 34 14.5 64t40 51.5Q80 293 113 301v-39q-34-12-54.5-41T38 156q-1-31 14.5-56.5t41-41Q119 43 150 43t56.5 15.5q25.5 15.5 41 41T262 156q1 27-12 51v60q23-21 36.5-49.5T300 156q0-41-20-75.5T225.5 26Q191 6 150 6zm0 187q-17 0-35-10-10-5-15-10l-25 28q7 7 19 13 21 13 44 16v32q0 8 5 13.5t13 5.5q8 0 13.5-5.5T175 262v-33l13-3v61q0 8 5.5 13.5t13 5.5q7.5 0 13-5.5T225 287V173l-26 10q-26 10-49 10z"/></svg>