<svg viewBox="0 0 300 310" xmlns="http://www.w3.org/2000/svg"><path d="M198 211l-63 95h-15l18-63H99q-6 0-9.5-4.5T88 229l33-98h54l-25 62h39q6 1 9.5 6.5T198 211zm65-49zm37 0q0 26-12 48t-33 36q-21 14-47 16l-14 1 25-38 2-4 6-2q16-8 25.5-23.5T263 162q-1-23-17.5-39.5T206 106h-14l-4-13q-6-21-23-35t-39-15q-12 0-24 4.5T81 61q-9 9-14 20.5T62 106q0 13 4 25l6 16-15 8q-9 4-14.5 12.5t-5 19q.5 10.5 6 19.5T58 221l6 2q-5 16 3 31 4 6 9 11-8-2-17-4-26-7-42.5-27.5T0 186q0-17 7-31.5T27 130q-2-12-2-24 0-20 7.5-38.5t22-32.5q14.5-14 33-21.5T126 6q31 1 56.5 18T220 70q23 3 41 16t28.5 33q10.5 20 10.5 43zM0 186zm37 0h1-1z"/></svg>