<svg viewBox="0 0 300 310" xmlns="http://www.w3.org/2000/svg"><path d="M266 107q-9-23-26.5-40.5T199 39q-4-14-16-23.5T156 6h-12q-15 0-27 9.5T101 39Q78 49 60.5 66.5T34 107q-15 4-24.5 16T0 150v56h34q10 23 27.5 40t40.5 26l-12 34h37l8-25q8 1 15.5 1t14.5-1l8 25h37l-12-34q23-9 40.5-26t27.5-40h34v-56q0-15-9.5-27T266 107zm-3 43v18h-26v-18q0-3 2-5t5-2h12q3 1 5 2.5t2 4.5zM138 69V50q0-3 1.5-5t4.5-2h12q3 0 5 2t2 5v19h-25zM38 150q-1-3 1-5t5-2h12q3 0 5 2t2 5v18H38v-18zm148 86l-24-70q-2-5-6.5-7.5t-10-.5q-5.5 2-7.5 8l-24 70q-23-10-37-30h23v-56q0-13-7-24t-19-16q10-17 26-28v24h100V82q16 11 26 28-12 5-19 16t-7 24v56h23q-14 20-37 30z"/></svg>