<svg viewBox="0 0 300 310" xmlns="http://www.w3.org/2000/svg"><path d="M188 162q0 16-11 27t-27 11q-16 0-26.5-11T113 162.5q0-15.5 10.5-26.5t26.5-11q16 0 26.5 11t10.5 26h1zm12-106L150 6l-50 50 50 50 50-50zm-87 237h75v-75h-75v75zm-50-74v25H44q-3 0-5-1.5t-1-4.5v-51q0-2 1.5-4t4.5-2h44v-38H44q-18 0-31 13T0 187v51q0 18 13 31t31 13h19v25l34-37q3-3 3-7t-3-7l-34-37zM256 31h-31v37h31q3 0 5 2t2 5v62q-1 3-2.5 4.5T256 143h-18v-25l-35 37q-3 3-3 7t3 7l35 37v-25h18q18 0 31-13t13-31V75q0-18-13-31t-31-13z"/></svg>