<svg viewBox="0 0 300 310" xmlns="http://www.w3.org/2000/svg"><path d="M119 162h19v25h-19v19H94v-19H75v-25h19v-19h25v19zm92 55q-4 25-19 45.5t-37.5 32Q132 306 106 306q-29 0-53-14.5T14.5 253Q0 229 0 200q0-26 11.5-48.5t32-37.5Q64 99 89 95q4-25 19-45.5t37.5-32Q168 6 194 6q29 0 53 14.5T285.5 59Q300 83 300 112q0 26-11.5 48.5t-32 37.5Q236 213 211 217zm-36-17q0-19-9.5-34.5t-25-25q-15.5-9.5-34-9.5T72 140.5q-16 9.5-25 25t-9 34q0 18.5 9 34.5t25 25q16 9 34.5 9t34-9q15.5-9 25-25t9.5-34zm88-88q0-18-9.5-34T228 52.5Q212 43 194 43q-24 0-42.5 15T127 96q31 6 54 28.5t29 54.5q23-6 37.5-24.5T262 112h1zm-57-56h-25v19h-18v25h18v18h25v-18h19V75h-19V56z"/></svg>