<svg viewBox="0 0 300 310" xmlns="http://www.w3.org/2000/svg"><path d="M213 137q-1 8-6 13.5t-13 5.5q-8 0-13.5-5.5T175 137q0-8 5.5-13.5t13.5-5q8 .5 13.5 5.5t5.5 13zm-107-19q-8 1-13.5 6t-5 13q.5 8 5.5 13.5t13 5.5q8 0 13.5-5.5T125 137q0-8-5.5-13.5T106 118zm140-50l26 69q7 20-1 40t-27 29l-22 8-19 92H97l-19-92-22-8q-19-9-27-29t-1-40l26-69q-23-3-38.5-20.5T0 6h38q-1 10 6.5 17.5T63 31h175q10 0 17.5-7.5T263 6h37q0 24-15.5 41.5T246 68zm-10 82l-30-82H94l-31 82q-2 6 .5 12.5T72 172l38 14 18 82h44l18-82 38-14q6-3 8.5-9.5T236 150z"/></svg>