<svg viewBox="0 0 300 310" xmlns="http://www.w3.org/2000/svg"><path d="M300 77q-1-15-7.5-28.5T275 25q-11-10-25-15t-29-4q-15 1-28.5 7.5T169 31q-10 11-15 25t-4 29q1 15 7.5 28.5T175 137q11 10 25 15t29 4q15-1 28.5-7.5T281 131q10-11 15-25t4-29zm-50-21q0 10-7.5 17.5T225 81q-10 0-17.5-7.5T200 56q0-10 7-17t17-8h4q10 2 16 9t6 16zm12 58q-13 16-34 17-12 1-22.5-4T187 114v-2q0-8 5.5-13t13.5-5h38q8 0 13 5t5 13v2zM89 306q-18 0-34-6.5T26 280q-13-13-19.5-29T0 217q0-18 6.5-34T26 154l27-27 36 35-28 28q-11 11-11 27t11 27.5Q72 256 88.5 256t27.5-11l28-28 35 36-27 27q-13 13-29 19.5T89 306zm131-94l-24 23-35-35 23-24 36 36zM94 86l36 36-24 23-35-35 23-24z"/></svg>