<svg viewBox="0 0 300 310" xmlns="http://www.w3.org/2000/svg"><path d="M25 43q0-15 11-26T62.5 6Q78 6 89 17t11 26.5Q100 59 89 70T62.5 81Q47 81 36 70T25 44v-1zm163 38q15 0 26-11t11-26.5Q225 28 214 17T187.5 6Q172 6 161 17t-11 26.5Q150 59 161 70t26 11h1zM88 143q-1 16 10 27t27 11q16 0 27-11t11-26.5q0-15.5-11-26.5t-27-11q-16 0-26.5 11T88 143zm0-50H44q-18 0-31 13T0 137v44h38v-44q0-2 1.5-4t4.5-2h20q4-23 24-38zm186 148l19 11-19 33-19-11q-8 7-18 10v22h-37v-22q-10-3-18-10l-19 11-19-33 19-11v-10-10l-19-11 19-33 19 11q8-7 18-10v-22h38v22q9 3 17 10l19-11 19 33-19 11q1 5 1 10t-1 10zm-36-10q-1-8-6-13.5t-13-5.5q-8 0-13.5 5.5T200 231q0 8 5.5 13.5T219 250q8 0 13.5-5.5T237 231h1zm-188 6v44h38v-44q0-2 1.5-4t4.5-2h25q0-19 7-37H94q-18-1-31 12t-13 31zM162 93q20 15 24 38h20l3 1 10-1q16 0 31 5-1-18-13.5-30.5T206 93h-44z"/></svg>