<svg viewBox="0 0 300 310" xmlns="http://www.w3.org/2000/svg"><path d="M56 157q-6 18-6 36v5q-22-11-36-32.5t-14-46Q0 95 12 75t32-32q20-12 44-12h50q23 0 43 12t32 32q12 20 12 43.5t-11.5 43Q202 181 183 193t-42 13q-3-6-4-13 1-8 5-15t15-13q14-6 22.5-18.5T188 118q-1-20-15.5-35T137 68H88q-21 0-35.5 15T38 119q0 11 4.5 21T56 157zm194-43v5q0 18-6 36 9 7 14 17t5 22q0 20-15 35t-35 15h-50q-21 0-35.5-15T113 194q0-16 8-28.5t22-18.5q11-6 15.5-13t4.5-15q0-7-4-13-23 1-42 13t-30.5 31.5Q75 170 75 193.5T87 237q12 20 32 32t44 12h50q23 0 43-12t32-32q12-20 12-44.5t-14-46Q272 125 250 114z"/></svg>