<svg viewBox="0 0 300 310" xmlns="http://www.w3.org/2000/svg"><path d="M113 231H0V118q0-30 15-56t41-41Q82 6 112.5 6T169 21q26 15 41 41t15 56.5q0 30.5-15 56.5t-41 41q-26 15-57 15h1zm-75-38h75q20 1 37-9.5t27.5-27.5q10.5-17 10.5-37.5T177.5 81Q167 64 150 54t-37.5-10.5Q92 43 75 53.5T48 81q-10 17-10 37v75zm87-56q0-3 2-6.5t4-4.5q10-5 15.5-16t3-23Q147 75 139 67t-20-10q-17-4-30.5 7.5T75 93h25q0-5 4.5-9t10.5-3q4 1 6.5 3.5t3.5 7q1 4.5-1 8t-5 4.5q-8 5-13.5 14.5T100 137v6h25v-6zm0 19h-25v25h25v-25zm125-37q0 22-7 42 9 9 14 20.5t5 24.5v62h-62q-13 0-24.5-5T155 249q-20 7-42 7 14 23 37 36.5t50 13.5h100V206q0-27-13.5-50T250 119z"/></svg>