<svg viewBox="0 0 300 310" xmlns="http://www.w3.org/2000/svg"><path d="M256 6H44Q26 6 13 19T0 50v93h300V50q0-18-13-31T256 6zm7 100h-25V81H63v25H38V50q0-3 1.5-5t4.5-2h212q3 0 5 2t2 5v56zm-163 62h38v82q0 23-16.5 39.5t-40 16.5q-23.5 0-40-16.5T25 250q0-15 7.5-28T52 201.5q12-7.5 23-7.5v37q-3 1-7.5 6.5t-5 13q-.5 7.5 5 12.5t13.5 5q8 0 13.5-5t5.5-13v-82zm175 82q0 23-16.5 39.5t-40 16.5q-23.5 0-40-16.5T162 250v-82h38v82q0 8 5.5 13.5t13.5 5q8-.5 13.5-5.5t5.5-12.5q0-7.5-5-13t-8-6.5v-38q11 0 23 8t19.5 21q7.5 13 7.5 28z"/></svg>