<svg viewBox="0 0 300 310" xmlns="http://www.w3.org/2000/svg"><path d="M150 6q-41 0-75.5 20T20 80.5Q0 115 0 156t20 75.5Q40 266 74.5 286t75.5 20q41 0 75.5-20t54.5-54.5q20-34.5 20-75.5t-20-75.5Q260 46 225.5 26T150 6zm0 262q-31 0-56.5-15t-41-40.5Q37 187 37.5 156T53 99.5q15-25.5 40.5-41t56.5-15q31 .5 56.5 15.5t41 40.5q15.5 25.5 15 56.5T247 212.5q-15 25.5-40.5 41T150 269v-1zm44-162h-9l-16-25h-38l-16 25h-9q-7 0-12.5 5.5T88 125v81h125v-81q0-8-5.5-13.5T194 106zm-44 75q-10 0-17.5-7.5T125 156q0-10 7.5-17.5T150 131q10 0 17.5 7.5T175 156q0 10-7.5 17.5T150 181z"/></svg>