<svg viewBox="0 0 300 310" xmlns="http://www.w3.org/2000/svg"><path d="M113 6Q82 6 56 21T15 62Q0 88 0 119v112h113q30 0 56-15t41-41q15-26 15-56.5T210 62q-15-26-41-41T112 6h1zm50 87h-38v-6q0-2-2-4t-4-2h-13q-2 0-4 2t-2 4q0 6 6 9l27 11q14 5 21.5 16.5t8 26q.5 14.5-8.5 26T131 191v15H94v-15q-14-4-22.5-15.5T63 150v-6h37v6q0 2 2 4t4 2h13q2 0 4-2t2-4q0-6-6-9l-27-11q-14-5-22-16.5t-8-26q0-14.5 9-26T94 46V31h37v15q14 4 23 15.5t9 25.5v6zm137 113v100H200q-27 0-50-13.5T114 256q21 0 41-7 9 9 20.5 14.5T200 269h63v-63q0-13-5.5-24.5T243 161q7-20 7-41 23 13 36.5 36t13.5 50z"/></svg>