<svg viewBox="0 0 300 310" xmlns="http://www.w3.org/2000/svg"><path d="M225 306h-37q0-16-11-27t-27-11q-16 0-26.5 11T113 306H75q0-20 10-37.5t27.5-27.5q17.5-10 37.5-10t37.5 10q17.5 10 27.5 27.5t10 37.5zm35-75q-7-22-25.5-36T194 181h-88q-22 0-40.5 14T40 231l-21 75h39l18-65q3-10 11.5-16.5T106 218h88q10 0 18.5 6.5T224 241l18 65h39l-21-75zm-110-75q15 0 29-6l-6-39q-5 4-11 5.5t-12 1.5q-16 0-27-11t-10-26q10 0 29-9.5T173 51q8 5 13.5 13.5T194 84l12 72q23 3 42 17l-17-95q-3-21-14.5-37t-29-25.5Q170 6 150 6t-37.5 9.5Q95 25 83.5 41T69 78l-17 95q19-14 42-17h56z"/></svg>