<svg viewBox="0 0 300 310" xmlns="http://www.w3.org/2000/svg"><path d="M291 69l-11-25-59 58q-3 4-8.5 4t-9-3.5q-3.5-3.5-3.5-9t4-8.5l58-59-25-11q-21-9-43-9-29 0-53.5 14.5t-39 38.5Q87 83 87 112q1 16 5 31l-77 78Q0 235 0 256t14.5 35.5Q29 306 50 306t35-15l78-77q15 4 31 4 29 0 53-14t38.5-38.5Q300 141 300 112q0-22-9-43zm-97 112q-15 0-28-6l-12-5-95 95q-4 3-9 3t-8.5-3.5Q38 261 38 256t3-9l95-95-5-12q-6-13-6-28 0-18 9-33.5t24.5-25Q174 44 192 44l-15 14q-14 15-14 35.5t14 35q14 14.5 35.5 14.5t35.5-14l14-15q0 18-9.5 33.5t-25 24.5q-15.5 9-33.5 9z"/></svg>