<svg viewBox="0 0 300 310" xmlns="http://www.w3.org/2000/svg"><path d="M138 93q-17 0-31.5 8.5t-23 23Q75 139 75 156t8.5 31.5q8.5 14.5 23 22.5t31 8q16.5 0 31-8t23-22.5Q200 173 200 156t-8.5-31.5q-8.5-14.5-23-22.5T137 94l1-1zm0 88q-11 0-18.5-7.5t-7-17.5q.5-10 7.5-17.5t17.5-7.5q10.5 0 18 7.5T163 156q0 10-7.5 17.5T138 181zm94 75q20-19 31.5-45t11.5-55q0-37-18.5-68.5t-50-50.5q-31.5-19-69-19t-69 19Q37 56 18.5 87.5T0 156q0 37 18.5 68.5t50 50.5q31.5 19 69.5 18h162v-37h-68zM38 156q0-27 13-50t36-36.5Q110 56 137.5 56T188 69.5Q211 83 224.5 106t13.5 50q0 27-13.5 50T188 242.5Q165 256 137.5 256T87 242.5Q64 229 51 206t-13-50z"/></svg>