<svg viewBox="0 0 300 310" xmlns="http://www.w3.org/2000/svg"><path d="M286 98q14 28 14 58 0 68-47 106-36 28-101 38-36 6-96 6-23 0-39.5-16.5T0 250q0-17 9-31 4-5 22-20 9-7 14-17.5t5-21.5q0-29 11.5-54.5t32.5-44Q115 43 141 36v1q9 16 13 34-29 8-48 32.5T87 160q0 20-8.5 38T54 228q-10 9-13.5 13t-2.5 9q0 7 5 12.5t13 5.5q68 0 109-8 48-10 72-33 25-26 25-71 1-23-10-42 19-6 34-16zm-67-5q13 0 26-3 22-7 35-20 10-11 15-27 4-12 5-26V6h-11q-13 1-24 5-16 5-26 16-17 18-21 53-3-37-21-72l-33 17q17 34 17 68h38zm-19 69q0 8 5.5 13.5T219 181q8 0 13.5-5.5T238 162q0-8-5.5-13.5T219 143q-8 0-13.5 5.5T200 162zm-19 69q8 0 13.5-5.5T200 212q0-8-5.5-13.5t-13.5-5q-8 .5-13.5 5.5t-5 13q.5 8 5.5 13.5t13 5.5z"/></svg>