<svg viewBox="0 0 300 310" xmlns="http://www.w3.org/2000/svg"><path d="M150 6q-41 0-75.5 20T20 80.5Q0 115 0 156t20 75.5Q40 266 74.5 286t75.5 20q41 0 75.5-20t54.5-54.5q20-34.5 20-75.5t-20-75.5Q260 46 225.5 26T150 6zm0 262q-31 0-56.5-15T53 212.5Q38 187 38 156t15-56.5Q68 74 93.5 59T150 43.5q31-.5 56.5 15t41 41Q263 125 263 156t-15.5 56.5Q232 238 206.5 253T150 268zm88-137q0 10-7.5 17.5t-18 7.5q-10.5 0-17.5-7.5t-7-17.5h-25v-25h50q10 0 17.5 7.5T238 131zm-125 25q-11 0-18-7.5T88 131H63v-25h50q10 0 17.5 7.5T138 131q0 10-7.5 17.5T113 156zm37 37q17 0 33 8 9 4 16 9l-23 30-3-2q-5-3-11-5t-12-2q-9 0-18 4-5 3-8 5l-23-30q7-5 16-9 16-8 33-8z"/></svg>