<svg viewBox="0 0 300 310" xmlns="http://www.w3.org/2000/svg"><path d="M138 218h37v88h-37v-88zm62 63h38v-88h-38v88zm-125 0h38v-88H75v88zm225-119q0 23-10 43.5T262 240l1-78q-1-23-17.5-39.5T206 106h-14l-4-13q-6-21-23-34.5T126 44q-12-1-24 4T81 61.5Q72 70 67 82t-5 24.5q0 12.5 4 25.5l6 15-15 8q-9 4-14.5 12.5T37 186q0 17 13 29v43q-22-8-36-28T0 186q0-16 7-31t20-25q-2-12-2-24 0-20 7.5-38.5t22-32.5q14.5-14 33-21.5T126 6q31 1 56.5 18T220 70q22 3 40.5 16t29 33q10.5 20 10.5 43zM0 186zm37 0h1-1zm263-24z"/></svg>