<svg viewBox="0 0 300 310" xmlns="http://www.w3.org/2000/svg"><path d="M256 118H100V81h63V43q0-15-11-26T125 6H38Q22 6 11 17T0 44v37h63v37H44q-18 0-31 13T0 162v144h300V162q0-18-13-31t-31-13zM44 156h212q3 0 5 2t2 4v81H38v-81q0-2 1.5-4t4.5-2zm19 44q0-8 5-13.5t13-5.5q8 0 13.5 5.5T100 200q0 8-5.5 13.5t-13.5 5q-8-.5-13-5.5t-5-13zm68 0q0-8 5.5-13.5T150 181q8 0 13.5 5.5T169 200q0 8-5.5 13.5t-13.5 5q-8-.5-13.5-5.5t-5.5-13zm69 0q0-8 5.5-13.5T219 181q8 0 13 5.5t5.5 13.5q.5 8-5 13.5t-13.5 5q-8-.5-13.5-5.5t-5.5-13z"/></svg>