<svg viewBox="0 0 300 310" xmlns="http://www.w3.org/2000/svg"><path d="M212 113l29-15 15-29 14 29 30 15-30 14-14 29-15-29-29-14zm69 93q-8 0-13.5 5.5t-5 13.5q.5 8 5.5 13t13 5q8 0 13.5-5t5.5-13q0-8-5.5-13.5T281 206zm-62-50q-8 0-13.5 5.5T200 175q0 8 5.5 13.5T219 194q8 0 13.5-5.5t5-13.5q-.5-8-5.5-13.5t-13-5.5zm15 124l28-19-30-14q-29-13-48-37-22-28-22-60 1-30 20-56 17-23 41-36l29-17-30-16Q191 7 155 6T86.5 20Q54 35 31.5 64t-29 64q-6.5 35 3 69.5t34.5 61Q65 285 99 297t69.5 7.5Q204 300 234 280zM175 46q-23 20-36 47t-14 57q1 34 17 63.5t43 49.5q-17 6-35 5-31 1-56.5-14.5t-40.5-41Q38 187 38 156t15-56.5q15-25.5 40.5-41T150 43q12 0 25 3z"/></svg>