<svg viewBox="0 0 300 310" xmlns="http://www.w3.org/2000/svg"><path d="M56 293q-23 0-39.5-16T0 237.5q0-23.5 16.5-40t40-16.5q23.5 0 40 16.5t16 40Q112 261 96 277t-40 16zm0-75q-8 0-13 5.5T38 237q0 8 5 13.5t13 5.5q8 0 13.5-5.5T75 237q0-8-5.5-13.5T56 218zm188 75q-24 0-40-16t-16-39.5q0-23.5 16-40t39.5-16.5q23.5 0 40 16.5t16.5 40q0 23.5-16.5 39.5T244 293zm0-75q-8 0-13.5 5.5T225 237q0 8 5.5 13.5T244 256q8 0 13.5-5.5T263 237q0-8-5.5-13.5T244 218zm-75-34l-42-30q-2-1-2-4t2-5l24-25q1-2 3.5-1.5t4.5 1.5l40 36h51v-38h-37l-28-25q-12-12-29.5-12T125 92l-24 26q-14 14-13.5 33.5T103 183l28 20v53h38v-72zm37-166q-13 0-22 9.5T175 50q0 13 9 22t22 9q13 0 22.5-9t9.5-22q0-13-9.5-22.5T206 18z"/></svg>