<svg viewBox="0 0 300 310" xmlns="http://www.w3.org/2000/svg"><path d="M213 106v37h-38v-37h38zM19 268q-8 0-13.5 5.5T0 287q0 8 5.5 13.5T19 306q8 0 13-5.5t5.5-13.5q.5-8-5-13T19 269v-1zm0-62h-6v37h6q18 0 31 13t13 31v6h37v-6q0-22-11-40.5T59.5 217Q41 206 19 206zm0-63h-6v38h6q29 0 53 14.5t38.5 38.5q14.5 24 14.5 53v6h38v-6q0-39-19.5-72T91 162.5Q58 143 19 143zm263-81l-59-46Q210 6 193.5 6T164 16l-58 46q-9 7-14 16.5T87 100v32q20 8 38 21v-53q0-6 4-9l58-45q3-3 6.5-3t6.5 3l58 45q4 3 4 9v81H153q13 18 21 37h126V100q0-12-5-21.5T282 62z"/></svg>