<svg viewBox="0 0 300 310" xmlns="http://www.w3.org/2000/svg"><path d="M254 43H46l-5 5Q21 71 10.5 98.5T0 156.5Q0 187 8 216t23 47q15 18 34.5 18t34.5-18q11-13 19-32h61q22 50 53 50 20 0 35.5-18t23.5-47q8-29 8-59.5t-10.5-58Q279 71 259 48l-5-5zm-20 200q-4 0-11-11.5T211 206l-3-13H93l-4 13q-4 12-10.5 23.5T68 243q-5 0-12.5-11T43 203q-5-22-5-47 0-43 26-75h174q25 33 25 75 0 25-6 47-5 17-12 28.5T234 243zM125 93H88v25H63v38h25v25h37v-25h25v-38h-25V93zm63 38q0 10 7 17.5t17.5 7.5q10.5 0 17.5-7.5t7.5-17.5q.5-10-7-17.5t-18-7.5q-10.5 0-17.5 7.5t-7 17.5z"/></svg>