<svg viewBox="0 0 300 310" xmlns="http://www.w3.org/2000/svg"><path d="M212 173v-34q0-17-8-31t-22.5-22Q167 78 150 78t-31.5 8q-14.5 8-23 22T87 139v34q0 17 8.5 31t23 22q14.5 8 31.5 8t31-8l12 12 27-27-13-12q5-12 5-26zm-62 24q-10 0-17.5-7t-7.5-17v-34q0-10 7.5-17t17.5-7q10 0 17.5 7t7.5 17v28l-5-6-27 27 9 9h-2zm0-191q-41 0-75.5 20T20 80.5Q0 115 0 156t20 75.5Q40 266 74.5 286t75.5 20q41 0 75.5-20t54.5-54.5q20-34.5 20-75.5t-20-75.5Q260 46 225.5 26T150 6zm0 262q-31 0-56.5-15t-41-40.5Q37 187 37.5 156T53 99.5q15-25.5 40.5-41t56.5-15q31 .5 56.5 15.5t41 40.5q15.5 25.5 15 56.5T247 212.5q-15 25.5-40.5 41T150 269v-1z"/></svg>