<svg viewBox="0 0 300 310" xmlns="http://www.w3.org/2000/svg"><path d="M38 125v68h37v38H63v75H25v-75H0V125q0-18 13-31t31-13h53q-3 10-3 19t3 18H44q-3 0-4.5 2t-1.5 5zm31-57q13 0 22-9t9-22q0-13-9-22T69 6q-13 0-22 9t-9 22q0 13 9 22.5T69 69v-1zm162 0q13 0 22.5-9t9.5-22q0-13-9.5-22T231 6q-13 0-22 9t-9 22q0 13 9 22.5t22 9.5v-1zm69 57q0-18-13-31t-31-13h-53q3 10 3 19t-3 18h53q3 0 5 2t2 5v68h-38v38h13v75h37v-75h25V125zm-150 6q13 0 22-9t9-22q0-13-9-22.5T150 68q-13 0-22 9.5t-9 22.5q0 13 9 22t22 9zm50 56v69h-6v50h-38v-50h-12v50h-38v-50h-6v-69q0-18 13-31t31-13h12q18 0 31 13t13 31zm-62 31h25v-31q0-2-2-4t-5-2h-12q-3 0-4.5 2t-1.5 4v31z"/></svg>