<svg viewBox="0 0 300 310" xmlns="http://www.w3.org/2000/svg"><path d="M150 137q8 0 13.5 5.5T169 156q0 8-5.5 13.5T150 175q-8 0-13.5-5.5T131 156q0-8 5.5-13.5T150 137zm26 62q-13 7-26 7-21 0-35.5-14.5T100 156q0-21 14.5-35.5T150 106q18 0 31.5 11t17.5 28q15-13 35-14-8-27-31.5-45T150 68q-24 0-44 12t-31.5 32Q63 132 63 156t11.5 44Q86 220 106 231.5t44 11.5q6 0 14-1 8-10 20-17-7-11-8-26zM256 6H44Q26 6 13 19T0 50v256h150v-25q0-6 1-13H38V50q0-3 1.5-5t4.5-2h212q3 0 5 2t2 5v86q16 8 26.5 23.5T300 193V50q0-18-13-31T256 6zm7 237h-50q-16 0-27 11.5T175 281v25h125v-25q0-15-11-26.5T263 243zm-25-12q15 0 26-11t11-26.5q0-15.5-11-26.5t-26.5-11q-15.5 0-26.5 11t-11 26.5q0 15.5 11 26.5t27 11z"/></svg>