<svg viewBox="0 0 300 310" xmlns="http://www.w3.org/2000/svg"><path d="M150 275q0 13-9 22t-22 9H31q-12 0-20.5-8t-10-19.5Q-1 267 6 257t18-13L0 193h40l21 43 24-40-36-21q-16-9-21.5-26t2.5-33l16-25q9-15 26-20.5t32 2.5q9 4 69 42l-20 32-46-29-24 34 26 15q11 6 15 18t-3 24l-21 34h19q13 0 22 9.5t9 22.5zM119 68q13 0 22-9t9-22q0-13-9-22t-22-9q-13 0-22 9t-9 22q0 13 9 22t22 9zm142 155l39-41v-46L182 41l-24 30 31 24q12 9 17 23 0 25-31 25v38q25 0 42.5-12t23.5-32l22 17v13l-29 30q-9 9-23 9h-59l-22 37h58l13 25h-26v38h69q23 0 39.5-16.5T300 250v-7h-37v7q0 8-5.5 13t-13.5 5h-1l-14-27q18-5 32-18z"/></svg>