<svg viewBox="0 0 300.0016 310" xmlns="http://www.w3.org/2000/svg"><path d="M175 306H0v-38h175v38zm75-38h-50v38h50v-38zm50-62H125v37h175v-37zm-200 0H50v37h50v-37zm81-40q15 4 31 1.5t29-12.5q4 1 9 1 20 0 34.5-14t15.5-34.5Q301 87 287 72t-34-16q-11-13-27-20t-33-5q-17-16-39-22t-44.5 0Q87 15 70 31h-1q-19 0-35 9T9 65Q0 81 0 99.5T9 134q9 16 25 25t35 9q7 1 15-1 22 14 48.5 14t48.5-15zM80 129q-9 4-19 1.5t-16.5-10Q38 113 37 103t4-19q5-9 14-13t19-2l11 2 7-9q7-9 17.5-14t22-4.5q11.5.5 22 5.5T171 63l8 11 12-4q11-4 21 .5T227 85l7 12 16-4q5 0 9 4t4 10q0 6-6 9.5t-12 .5l-13-6-9 10q-7 8-17.5 9.5T186 127l-12-5-9 8q-14 13-32.5 13T99 132l-8-7-11 4z"/></svg>