<svg viewBox="0 0 300 310" xmlns="http://www.w3.org/2000/svg"><path d="M150 6q-41 0-75.5 20T20 80.5Q0 115 0 156t20 75.5Q40 266 74.5 286t75.5 20q41 0 75.5-20t54.5-54.5q20-34.5 20-75.5t-20-75.5Q260 46 225.5 26T150 6zm0 262q-31 1-56.5-14.5t-41-41Q37 187 37.5 156T53 99.5Q68 74 93.5 59T150 44q31 0 56.5 15T247 99.5q15 25.5 15.5 56.5t-15 56.5Q232 238 206.5 253T150 268zm-29-128v32q0 10 7.5 17t18.5 7h6q7 0 13.5-3.5T177 183l33 18q-9 15-24 24t-34 9h-5q-17 0-31.5-8.5T92 203q-9-14-9-31v-32q0-17 9-31t23.5-22.5Q130 78 147 78h6q18 0 33.5 9t23.5 25l-33 17q-3-6-10-10t-14-4h-6q-11 0-18.5 7.5T121 140z"/></svg>