<svg viewBox="0 0 300 310" xmlns="http://www.w3.org/2000/svg"><path d="M231 143h-68V75q0-19 9-34.5t25-25Q213 6 231.5 6t34 9.5q15.5 9.5 25 25t9.5 34q0 18.5-9.5 34.5t-25 25q-15.5 9-34.5 9zm-31-37h31q13 0 22-9t9.5-22q.5-13-9-22T231 43.5q-13-.5-22 9T200 75v31zm-62 3q-11 9-26 9t-26-10.5Q75 97 75 81t11-27q11-11 26.5-11T140 55q4-19 16-35-20-14-43-14-21 0-38 10T47.5 43.5Q37 61 37.5 81T48 118.5Q58 136 75 146t38 10q12 0 24-4v-43h1zm-25 159v38H0v-63q0-16 8.5-30.5t22.5-23q14-8.5 31-8.5v53q-5 4-8.5 9.5T50 256q0 10 7 17.5t17.5 7.5q10.5 0 18-7.5T100 256q0-7-3.5-12.5T87 234v-53h51v52q-12 4-18.5 13.5T113 269v-1zm62-87h-12v52q11 4 18 13.5t7 22.5v37h50v-63q-1-16-9-30.5t-22.5-23Q192 181 175 181zm-25 75q-5 0-8.5 3.5T138 268v38h25v-38q-1-5-4.5-8.5T150 256z"/></svg>