<svg viewBox="0 0 300 310" xmlns="http://www.w3.org/2000/svg"><path d="M137 77q4 0 6.5-2.5T146 68q0-4-2.5-6.5T137 59h-9v18h9zM263 6H38Q22 6 11 17T0 44v262h218l82-82V43q0-15-11-26T262 6h1zm-60 83q-9-4-18-7-5-3-7.5-8.5T176 62q1-6 5-11t11-7q7-2 15 0t15 7l6 5-10 12-6-5q-7-5-16-4-4 1-4.5 4t1.5 5l16 6q8 2 13 9.5t3.5 16q-1.5 8.5-8.5 14t-16 5.5q-16 0-27-12l-5-6 11-10 6 6q6 6 15 6 3 0 6-1.5t4-5.5q1-4-8-7zm-90-46h24q11 0 18 7.5t7 18q0 10.5-7 17.5t-18 7h-9v26h-15V43zm-63 0h41v16H66v14h23v16H66v14h25v16H50V43zm213 150h-75v75H38V143h225v50z"/></svg>