<svg viewBox="0 0 300 310" xmlns="http://www.w3.org/2000/svg"><path d="M250 25q0-8 5.5-13.5T269 6q8 0 13.5 5.5T288 25q0 8-5.5 13T269 43q-8 0-13.5-5T250 25zM119 156q-18 0-31 13t-13 31q0 18 13 30.5t31 12.5q18 0 31-12.5t12.5-30.5q-.5-18-13-31T119 156zm150-75q-8 0-13.5 5.5T250 100q0 8 5.5 13.5t13.5 5q8-.5 13.5-5.5t5.5-13q0-8-5.5-13.5T269 81zm-44 69v156H13V150q0-24 16-40.5T69 93h6V31q0-10 7.5-17.5T100 6h38q10 0 17.5 7.5T163 31v62h6q23 0 39.5 16.5T225 150zm-37 0q0-8-5.5-13.5T169 131H69q-8 0-13.5 5.5T50 150v118h138V150zm31-107q-8 1-13.5 6T200 62q0 8 5.5 13.5T219 81q8 0 13.5-5.5T238 62q0-8-5.5-13.5T219 43z"/></svg>