<svg viewBox="0 0 300 310" xmlns="http://www.w3.org/2000/svg"><path d="M150 193q38 0 75-12-7 25-25 42-21 20-50 20t-50-20q-18-17-25-42 37 12 75 12zm-50-25q12 0 18.5-11t6.5-26q0-15-6.5-26T100 94q-12 0-18.5 11T75 131q0 15 6.5 26t18.5 11zm100-75q-12 1-18.5 12t-6.5 26q0 15 6.5 26t18.5 11q12 0 18.5-11t6.5-26q0-15-6.5-26T200 94v-1zm100 63q0 41-20 75.5T225.5 286Q191 306 150 306q-57-2-95-33-35-29-47.5-73t0-88Q20 68 55 39 93 8 150 6q41 0 75.5 20T280 80.5q20 34.5 20 75.5zm-37 0q-1-31-16-56.5T206.5 59Q181 44 150 43q-43 2-72 26-26 21-35 54t0 66q9 33 35 54 29 24 72 26 31-1 56.5-16t40.5-40.5q15-25.5 16-56.5z"/></svg>