<svg viewBox="0 0 300 310" xmlns="http://www.w3.org/2000/svg"><path d="M138 175v-50q-1-8 4.5-13.5T156 106q8 0 13.5 5.5T175 125v50q0 8-5.5 13.5T156 194q-8 0-13.5-5.5T137 175h1zm68 18q8 1 13.5-4.5T225 175v-50q0-8-5.5-13.5T206 106q-8 0-13.5 5.5T187 125v50q0 8 5.5 13.5T206 194v-1zM75 93v18q20-5 38 6V56H13l25 19-25 18h62zm38-68q0-8-5.5-13.5T94 6q-8 0-13.5 5.5T75 25v6h38v-6zm143 81q-8 0-13.5 5.5T237 125v50q1 8 6 13.5t13 5q8-.5 13.5-5.5t5.5-13v-50q0-8-5.5-13.5T256 106zm-18 108v54H101l-44-41 48-49q7-7 7-18t-7-18q-7-7-18-7t-18 7l-44 45q-13 13-12.5 31T26 249l60 57h189v-92q-9 4-18.5 4t-18.5-4z"/></svg>