<svg viewBox="0 0 300 310" xmlns="http://www.w3.org/2000/svg"><path d="M300 181v37q-22 0-37-14-16 15-38 15t-38-15q-15 15-37 15t-37-15q-16 15-38 15t-38-15q-15 14-37 14v-37q6 0 11-3.5t7-8.5h39q2 5 7 8.5t11 3.5q6 0 11-3.5t7-9.5h39q2 6 7 9.5t11 3.5q6 0 11-3.5t7-9.5h39q2 6 7 9.5t11 3.5q6 0 11-3.5t7-9.5h39q2 6 7 9.5t11 3.5zm-18 62h-39q-2 6-7 9.5t-11 3.5q-6 0-11-3.5t-7-9.5h-39q-2 6-7 9.5t-11 3.5q-6 0-11-3.5t-7-9.5H93q-2 6-7 9.5T75 256q-6 0-11-3.5t-7-9.5H18q-2 6-7 9.5T0 256v37q22 0 37-14 16 15 38 15t37-15q16 15 38 15t38-15q15 15 37 15t38-15q15 14 37 14v-37q-6 0-11-3.5t-7-9.5zm0-225h-39q-2 6-7 9.5T225 31q-6 0-11-3.5t-7-9.5h-39q-2 6-7 9.5T150 31q-6 0-11-3.5t-7-9.5H93q-2 6-7 9.5T75 31q-6 0-11-3.5T57 18H18q-2 6-7 9.5T0 31v37q22 0 37-14 16 15 38 15t37-15q16 15 38 15t38-15q15 15 37 15t38-15q15 14 37 14V31q-6 0-11-3.5t-7-9.5zm0 75h-39q-2 6-7 9.5t-11 3.5q-6 0-11-3.5t-7-9.5h-39q-2 6-7 9.5t-11 3.5q-6 0-11-3.5t-7-9.5H93q-2 6-7 9.5T75 106q-6 0-11-3.5T57 93H18q-2 6-7 9.5T0 106v37q22 0 37-14 16 15 38 15t37-15q16 15 38 15t38-15q15 15 37 15t38-15q15 14 37 14v-37q-6 0-11-3.5t-7-8.5v-1z"/></svg>