<svg viewBox="0 0 300 310" xmlns="http://www.w3.org/2000/svg"><path d="M250 144q-21 0-35.5 14.5T200 193v63q0 21 14.5 35.5T250 306q21 0 35.5-14.5T300 256v-63q0-20-14.5-34.5T250 144zm13 112q0 5-4 8.5t-9 3.5q-5 0-8.5-3.5T238 256v-63q0-5 3.5-8.5t8.5-3.5q5 0 8.5 3.5t3.5 9.5v62h1zm-132-63q-9 1-19 4v-2q1-6 4.5-10t9.5-4h43v-37h-43q-21 0-36 14.5T75 195v55q0 23 16.5 39.5t40 16.5q23.5 0 40-16.5t16.5-40q0-23.5-16.5-39.5T131 194v-1zm0 75q-8 0-13-5t-5-13q0-8 5-13.5t13-5.5q8 0 13.5 5.5T150 250q0 8-5.5 13t-13.5 5zM256 50q-29-29-67.5-39t-77 0Q73 21 44 49 20 74 8.5 106T1 172q4 34 22 63l27-27q-14-27-12.5-57T55 95.5Q71 70 98 56q24-13 52-12 22 0 43 8.5T229 77l-29 29h74q6 0 9.5-4t4.5-10V18l-32 32z"/></svg>