<svg viewBox="0 0 300 310" xmlns="http://www.w3.org/2000/svg"><path d="M175 139v-33h-32l38-38h32v63q-20 0-38 8zM38 243V50q0-3 1.5-5t4.5-2h187q3 0 5 2t2 5v85q21 6 37 22V50q0-18-13-31T231 6H44Q26 6 13 19T0 50v231h151q-16-16-22-38H38zm234 62l-30-31q-14 7-30 7t-30.5-8.5q-14.5-8.5-23-22.5t-8.5-31q0-17 8.5-31.5t23-23Q196 156 213 156t31 8.5q14 8.5 22.5 23T275 218q0 16-7 29l31 31-27 27zm-34-87q0-10-7.5-17.5t-18-7.5q-10.5 0-17.5 7.5t-7 18q0 10.5 7 17.5t17.5 7q10.5 0 18-7t7.5-18zM145 68H63v150h62q0-19 9-37h-34v-67l45-46z"/></svg>