<svg viewBox="0 0 300 310" xmlns="http://www.w3.org/2000/svg"><path d="M150 6q-41 0-75.5 20T20 80.5Q0 115 0 156t20 75.5Q40 266 74.5 286t75.5 20q41 0 75.5-20t54.5-54.5q20-34.5 20-75.5t-20-75.5Q260 46 225.5 26T150 6zm0 37q33 0 60 17.5t41 45.5h-18q-5-11-15.5-18T194 81q-18 0-31 13t-13 31q0 18 14 31 3 5 6 13-3 2-9.5 4t-10.5 2q-4 0-10.5-2t-9.5-4q3-8 6-13 14-13 14-31t-13-31q-13-13-31-13-13 0-23.5 7T67 106H49q14-28 41-45.5T150 43zm44 100q-8 0-13.5-5t-5.5-13q0-8 5.5-13.5T194 106q8 0 13 5.5t5.5 13.5q.5 8-5 13t-13.5 5zm-88 0q-8 0-13-5t-5-13q0-8 5-13.5t13-5.5q8 0 13.5 5.5T125 125q0 8-5.5 13t-13.5 5zm44 125q-31 0-56.5-15t-41-40.5Q37 187 37 156q1-6 1-13h29q5 10 13.5 16.5T100 168v7l-24 18 14 20 26-18 6 4-11 27 24 10 11-30h8l11 30 24-10-11-27 6-4 26 18 14-20-25-17 1-5v-3q11-2 19.5-8.5T233 143h29q1 7 1 13 0 30-15.5 56t-41 41Q181 268 150 268z"/></svg>