<svg viewBox="0 0 300 310" xmlns="http://www.w3.org/2000/svg"><path d="M104 243H73q-15 1-25-9.5t-10-24q0-13.5 7.5-23T65 174l27-7-16-22q-13-17-13-39 0-12 4.5-24T81 61.5Q90 53 102 48t24-5q24 1 42.5 16.5T190 99l2 14 33-32q-10-33-37-54T126 6q-20 0-38.5 7.5T54.5 35Q40 49 32.5 67.5T25 107q0 21 9 40-16 10-25 26.5T0 209q0 19 10 36t26.5 26.5Q53 281 73 281h61q-21-14-30-38zm159-12q-11 0-19 5l-31-18 31-17q8 5 19 5 15 0 26-11t11-26.5q0-15.5-11-26.5t-26.5-11q-15.5 0-26.5 11t-11 26l-31 18q-9-5-19-5-16 0-26.5 11T138 218.5q0 15.5 10.5 26.5t26.5 11q10 0 19-5l31 18q0 15 11 26t26.5 11q15.5 0 26.5-11t11-26.5q0-15.5-11-26.5t-27-11h1z"/></svg>