<svg viewBox="0 0 300 310" xmlns="http://www.w3.org/2000/svg"><path d="M275 156h-1q12-12 19-28t7-35q0-23-12-43t-32-32Q236 6 212.5 6T169 18q-20 12-32 32t-12 44q0 19 8 36-38 18-60 58-18 31-22 69-13-12-13-26.5t3-27.5q3-7 9-20 6-12 8-20 5-12 5-26-1-25-18-40.5T0 81v37q8 0 15 3 10 5 10 16 0 8-2 15-2 5-7 15-7 15-11 26-5 17-5 38t12 38.5q12 17.5 31 27t39 9.5h218v-37h-25V156zM163 43l25 20q11-7 24.5-7t24.5 7l26-20v50q0 21-15 35.5T212.5 143q-20.5 0-35-14.5T163 93V43zm-25 150v38q15 0 26 11t11 26H88q2-29 13-54 18-40 56-53 24 20 55 20 13 0 25-4v91h-24q0-20-10.5-37T175 203.5Q158 193 138 193zM56 62L31 50l25-13 13-25 12 25 25 13-25 12-12 25-13-25z"/></svg>