<svg viewBox="0 0 300 310" xmlns="http://www.w3.org/2000/svg"><path d="M256 118H156q-18 1-31 13.5T112 162v144h188V162q0-18-13-31t-31-13zm7 150H150V162q0-2 2-4t4-2h100q3 0 5 2t2 4v106zm-63-81q0 8-5.5 13.5T181 206q-8 0-13.5-5.5t-5-13.5q.5-8 5.5-13t13-5.5q8-.5 13.5 5T200 187zm-100-56q0 8-5.5 13.5T81 150q-8 0-13.5-5.5t-5-13.5q.5-8 5.5-13.5t13-5.5q8 0 13.5 5.5T100 131zm25-25q-8 0-13.5-5.5T106 87q0-8 5.5-13.5t13.5-5q8 .5 13.5 5.5t5.5 13q0 8-5.5 13.5T125 106zm125 131q0 8-5.5 13.5T231 256q-8 0-13.5-5.5t-5-13.5q.5-8 5.5-13.5t13-5.5q8 0 13.5 5.5T250 237zM39 134l49 48v53l-75-75Q0 147 0 129t13-31l79-79q13-13 31-13t31 13l75 74h-53l-48-48q-2-1-4.5-1t-4.5 1l-80 80q-2 2-2 4.5t2 4.5z"/></svg>