<svg viewBox="0 0 300 310" xmlns="http://www.w3.org/2000/svg"><path d="M263 181q0-10-7.5-17.5T238 156h-38q-10 0-17.5 7.5T175 181q-16 0-27 11t-10 26v88h162v-88q0-15-11-26t-27-11h1zm0 87h-88v-50h25v25h38v-25h25v50zM113 156q20 0 37-10t27.5-27.5Q188 101 188 81t-10.5-37.5Q167 26 150 16T112.5 6Q92 6 75 16T47.5 43.5Q37 61 37.5 81T48 118.5Q58 136 75 146t38 10zm0-113q15 0 26 11t11 27q0 16-11 26.5T112.5 118Q97 118 86 107.5T75 81q0-16 11-27t26-10l1-1zm12 138q-13 17-13 38H63q-11-1-18 6.5T38 244v62H0v-63q0-16 8.5-30.5t23-23Q46 181 63 181h62z"/></svg>