<svg viewBox="0 0 300.0014 310" xmlns="http://www.w3.org/2000/svg"><path d="M300 238q-1-6-5-10l-42-43q0-5-2-11 0-1 1-2 11-6 17-17t6-24q0-13-6-24t-17-17q-1-1-1-2 3-12-.5-24.5t-12.5-21q-9-8.5-21-12T193 29q-1 1-2-1-7-10-18-16t-23.5-6Q137 6 126 12t-17 16q-1 2-2 1-12-2-24.5 1.5t-21 12q-8.5 8.5-12 21T48 88q1 1-1 2-10 6-16 17t-6 24q0 13 6 24t16 17q2 1 1 2-1 6-1 12L5 228q-4 4-5 10.5t3.5 12Q8 256 15 257l31 3 3 31q1 6 4.5 9.5t7.5 5q4 1.5 9 0t8-4.5l50-50q10 5 22 5t22-5l50 50q3 3 8 4.5t9 0q4-1.5 7.5-5t4.5-9.5l3-31 31-3q7-1 11.5-6.5T300 238zm-155-21q-3-1-5-4-5-8-14-13t-19-5q-4 0-7.5 1t-6.5 0q-6-2-8-8-1-3 0-6 3-12-2-23t-15-18q-3-2-4.5-4.5T62 131q0-3 1.5-5.5T68 121q10-7 15-18t2-23q-1-3 0-6 2-6 8-8 3-1 6 0 12 3 23-2t18-15q2-3 5-4 5-3 10 0 3 1 4 4 7 10 18.5 15t23.5 2q3-1 6 0 6 2 7 8 1 3 1 6-3 12 2 23t15 18q2 2 4 5 1 2 1 5t-1.5 5.5Q234 139 232 141q-10 7-15 18t-2 23q0 3-1 6-1 6-7 8-3 1-6 0-12-3-23.5 2T159 213q-1 3-4 4-5 3-10 0zm5-49q-16 0-27-11t-11-26.5q0-15.5 11-26.5t26.5-11q15.5 0 26.5 11t11 26.5q0 15.5-11 26.5t-26 11z"/></svg>