<svg viewBox="0 0 300 310" xmlns="http://www.w3.org/2000/svg"><path d="M100 125h13l-4 53q-1 4-3.5 7t-6.5 3q-4 0-7-5l-10-20-11 20q-2 5-6 5t-7-3q-3-3-3-7l-4-53h13l3 40 15-30 15 30 3-40zm66 40l-15-30-15 30-4-40h-13l5 53q0 4 2.5 7t7 3q4.5 0 6.5-5l11-20 10 20q3 5 7 5t6.5-3q2.5-3 2.5-7l5-53h-13l-3 40zm134-9q0 41-20 75.5T225.5 286Q191 306 150 306t-75.5-20Q40 266 20 231.5T0 156q0-41 20-75.5T74.5 26Q109 6 150 6t75.5 20Q260 46 280 80.5t20 75.5zm-37 0q0-36-20.5-64.5T190 51q11 21 18 43h-40q-7-20-18-37-11 17-18 37H92q7-22 19-43-33 12-53 40.5T38 156q0 36 20 64.5t52 40.5q-11-21-18-42h40q7 19 18 36 11-17 18-36h40q-7 21-18 42 32-12 52-40.5t20-64.5h1zm-25-31l-3 40-16-30-15 30-3-40h-13l5 53q0 4 2.5 7t6.5 3q4 0 7-5l10-20 11 20q2 5 6.5 5t7-3q2.5-3 2.5-7l5-53h-13z"/></svg>