<svg viewBox="0 0 300 310" xmlns="http://www.w3.org/2000/svg"><path d="M200 156h-45q21-17 30-28 15-18 15-35 0-20-14.5-35T150 43q-21 0-35.5 15T100 94h38q0-6 3.5-9.5T150 81q5 0 9 3.5t4 9q0 5.5-11 15.5-6 6-19 16-18 15-25 23-11 14-11 27v18h103v-37zm-45 0zm93 73q-2 0-4 1 12 7 23 17 5 4 8 7l-8 7q-10 8-21 13-16 6-33 6 5 8 9 16l2 6-12 2q-15 2-29 2-19-1-33-7-14 6-33 7-14 0-29-2l-12-2 2-6q4-8 9-16-17 0-33-6-11-5-21-13l-8-7 8-7q11-10 23-17l-4-1q-13-5-26-16-10-8-19-19l-7-9 10-5q13-5 27-8-24-4-31-23-6-13-6-31 0-13 2-27l3-12 9 5q12 6 22 15v-1q-17-27-7.5-46T60 18q12-8 21-12l3 8q2 11 3 23 1 16-2 31-3 20-12 37-6 38 3 70 7 24 23 43 11 13 24.5 22t26.5 13q13-4 26.5-13t24.5-22q16-19 23-43 9-32 3-70-9-17-12-37-3-15-2-31 1-12 3-23l3-8 10 5q12 7 22 16 14 12 20 24 10 20-7 47v1q10-9 22-15l9-5 3 12q2 14 2 27 0 18-6 31-7 19-31 23 14 3 27 8l10 5-7 9q-9 11-19 19-13 11-26 16z"/></svg>