<svg viewBox="0 0 300 310" xmlns="http://www.w3.org/2000/svg"><path d="M300 87v138q0 18-12.5 33.5T252 285l-27 13V119l11-5q12-6 19-13t7-14q1-9-13.5-19.5T210 51q-28-7-60-7t-60 7q-24 6-38 16.5T38 87q0 7 7 14t19 13l11 5v179l-27-13q-23-11-35.5-26.5T0 225V87q0-23 19.5-41.5t54-29Q108 6 150 6t76.5 10.5q34.5 10.5 54 29T300 87zm-119 13q0-13-9-22.5T150 68q-13 0-22 9.5t-9 22.5q0 13 9 22t22 9q13 0 22-9t9-22zm19 87v69h-6v50h-38v-50h-12v50h-38v-50h-6v-69q0-18 13-31t31-13h12q18 0 31 13t13 31zm-62 31h25v-31q0-2-2-4t-5-2h-12q-3 0-4.5 2t-1.5 4v31z"/></svg>