<svg viewBox="0 0 300 310" xmlns="http://www.w3.org/2000/svg"><path d="M300 6l-26 12q-7 3-19 6-23 7-42 7-11 0-26-4-9-2-28-8h-1q-21-6-32-9-19-4-32-4-26 0-57 13-16 7-28 14l-9 5v268h38v-95q32-18 56-18 10 0 25 4 10 2 29 8 22 7 33 9 18 4 32 4 25 0 53-9 15-5 24-10l10-6V6zm-87 62q23 0 49-7v36q-26 9-50 9-10 0-25-4-9-2-28-8l-22-6V52l11 3q22 7 33 9 18 4 31 4h1zm0 113q-11 0-26-4-9-2-28-8h-1q-21-6-32-9-19-4-32-4-25 0-57 13v-33q33-17 57-17 10 0 25 3 10 2 29 8 22 7 33 9 18 4 32 4 23 0 49-7v34q-26 11-50 11h1z"/></svg>