<svg viewBox="0 0 300 310" xmlns="http://www.w3.org/2000/svg"><path d="M225 35q-18-16-41-23.5T136.5 7q-24.5 3-46 16.5T55.5 58q-13.5 21-17 46.5t7 53Q56 185 77 205q11 10 17 22.5t6 25.5v53h100v-51q0-13 7-28t17-24q18-16 28-38t10-46.5q0-24.5-9.5-46T225 35zm-26 140q-11 10-20 25t-13 31h-31q-7-30-32-53-13-12-21-30-9-21-6-39 3-26 21.5-44T141 44q16-2 31.5 3T200 62.5q12 10.5 18.5 25t6.5 31q0 16.5-6.5 31T199 175zm-12-76q2 12-3 23t-16 17q-2 1-4 4.5t-2 6.5v6h-24v-6q0-10 5-19.5t13-13.5q3-2 5-5.5t1.5-7.5q-.5-4-3.5-7t-7-3q-6-1-10 2.5t-4 9.5h-25q0-17 13-28.5t31-8.5q11 2 19.5 10.5T187 99zm-49 69h25v25h-25v-25z"/></svg>