<svg viewBox="0 0 300 310" xmlns="http://www.w3.org/2000/svg"><path d="M102 206l35 14-36 86-35-14 36-86zm36 86l35 14 36-86-35-14-36 86zM0 186zM220 70q-12-29-37.5-46T126 6q-20 0-38.5 7.5T54.5 35Q40 49 32.5 67.5T25 106q0 12 2 24-13 10-20 24.5T0 186q0 25 15 45t38 27l15-34-10-4q-9-5-14.5-14.5T38 186q0-10 5-18.5T57 155l15-8-6-16q-4-12-4-25t5-24.5Q72 70 81 61t21-13.5q12-4.5 24-4.5 22 1 39 15t23 35l4 13h14q23 0 39.5 16.5T263 162q0 14-6 26.5T240 210l-21 50q23-4 41.5-18.5t29-35Q300 186 300 162q-1-35-23.5-61T220 70zm80 92q0-1 0 0z"/></svg>