<svg viewBox="0 0 300 310" xmlns="http://www.w3.org/2000/svg"><path d="M288 168q-1-28-19.5-49T222 94q3-9 3-19 0-20-9.5-35.5t-27-24.5Q171 6 150 6t-38.5 9q-17.5 9-27 24.5T75 75q0 10 3 19-28 4-46.5 25T13 168q0 21 10.5 38.5T52 234q18 10 39.5 9.5T132 232q-5 15-11.5 22.5t-20 11Q87 269 63 269v37h175v-38q-25 0-38.5-3t-20-10.5Q173 247 168 232q19 11 40.5 11.5T248 234q18-10 28.5-27.5T287 169l1-1zM150 43q17 1 27.5 9.5T187 75q1 18-24 34-7 5-13 11-6-6-13-11-24-16-24-34 0-14 10-22.5t27-8.5v-1zM91 206q-17 1-28.5-10T51 168.5Q51 152 62.5 141T91 131q9 0 21 7 8 5 15 14 7 6 7 7l5 10-5 9q-1 2-6 7-7 9-15 14-11 7-22 7zm75-28l-5-10 5-9 7-7q7-9 15-14 12-7 21-7 17-1 28.5 10t11.5 27.5q0 16.5-11.5 27.5T209 206q-11 0-22-7-8-5-15-14-5-5-6-7z"/></svg>