<svg viewBox="0 0 300 310" xmlns="http://www.w3.org/2000/svg"><path d="M233 93q-14-28-40.5-45t-57-17q-30.5 0-56 14.5t-40 40Q25 111 25 140q0 7 1 13-12 11-19 25.5T0 209q0 19 9 35.5T33 271q15 10 33 10h138q26 0 48-13t35-35q13-22 13-48 0-32-18.5-57T233 93zm-29 150H66q-12 0-20.5-10T37 209q1-9 6-17.5T56 177l12-7-3-13q-2-9-3-17 1-19 10.5-35.5t26-26Q115 69 134 69q23 0 41.5 12.5T202 115l3 10 11 2q20 4 33.5 20.5T262 185q1 16-7 29.5T233.5 236q-13.5 8-29.5 8v-1zm-10-75h-31v50h-38v-50H93l40-44q4-5 11-5t11 5l39 44z"/></svg>