<svg viewBox="0 0 300.0039 310" xmlns="http://www.w3.org/2000/svg"><path d="M209 241q3 5 3.5 10.5T210 262l-20 43-34-16 10-21h-7q-5 1-10-2t-8-8q-3-5-3.5-10.5T140 237l23-46 33 17-11 23h6q5 0 10 2.5t8 7.5zm32-72q-8-24-29-38.5t-46.5-12q-25.5 2.5-44 20.5T100 182q-23 5-37.5 24.5t-12 43.5q2.5 24 20 40t42.5 16v-38q-11 0-18-7t-7-17.5q0-10.5 7-18t18-7.5h25v-28q0-14 10-24t24-10q14 0 23.5 9t10.5 23l1 18h24q12 0 21 8t10.5 20q1.5 12-6 21.5T238 268v38q26-3 43.5-22t18.5-45q1-26-16-46t-43-24zm-163-2l1-4q4-13 11-24-7-4-11-11.5T75 112q0-11 7-19.5t18-11q11-2.5 21 3t14 16.5q18-7 37-7v-3q-2-6-6-12l29-29-27-26-28 28q-7-4-15-6V6H88v40q-8 2-15 6L44 24 18 50l28 29q-4 7-6 15H0v37h40q2 8 6 15l-28 28 26 27 34-34z"/></svg>