<svg viewBox="0 0 300 310" xmlns="http://www.w3.org/2000/svg"><path d="M125 131H88q-1-10 2.5-19.5T101 95q7-7 16.5-11t19.5-3v37q-7 0-9.5 3t-2.5 10zm50 12h38q0-10-3.5-19.5T199 107q-7-7-16.5-10.5T163 93v38q7 0 9.5 2.5T175 144v-1zm100 39l-26 124H51L25 184q-11-8-18-20t-7-26.5q0-14.5 6.5-27T25 90q2-18 15-31t31-15q7-9 17-14t21-5h4q10-9 21.5-14T159 6q19 0 35 10t25 28q18 0 32.5 11T272 84q12 7 19.5 20t8 28q.5 15-6 28.5T275 182zM56 156h22q21 0 36 14 15-14 36-14t36 14q15-14 36-14h19q7 0 13.5-5t8-12.5Q264 131 260 124t-11-10l-10-4-2-11q-1-8-7-13t-14-5h-26l-3-15q-2-8-7.5-14t-14-8q-8.5-2-16 1T137 55l-6 7h-22q-3 0-5.5 2t-3.5 4l-4 13H78q-6 0-10.5 4.5T63 97v18l-13 5q-6 2-9.5 8T38 140.5q1 6.5 6 11t12 4.5zm43 112l-4-57q0-8-5-12.5T78 194H66l16 74h17zm62 0l6-58q0-7-5-12t-12-5q-7 0-12 5t-5 12l4 58h24zm73-75h-12q-7 1-12 5.5t-5 12.5l-6 57h19l16-75z"/></svg>