<svg viewBox="0 0 300 310" xmlns="http://www.w3.org/2000/svg"><path d="M150 306q-41 0-75.5-20T20 231.5Q0 197 0 156t20-75.5Q40 46 74.5 26T150 6q41 0 75.5 20T280 80.5q20 34.5 20 75.5t-20 75.5Q260 266 225.5 286T150 306zm0-263q-31 1-56.5 16t-41 40.5Q37 125 37.5 156T53 212.5q15 25.5 40.5 41t56.5 15q31-.5 56.5-15.5t41-40.5q15.5-25.5 15-56.5T247 99.5Q232 74 206.5 59T150 43zm-19 140q0-15 7-27.5t20-20.5q6-3 8-8.5t0-11.5q-2-6-7.5-9.5T147 103q-6 1-10 6t-4 11H95q0-12 5.5-23T115 78.5q9-7.5 21-11t24-1.5q17 4 29 16t15 29.5q3 17.5-5 33T176 168q-8 5-7 15h-38zm1 23h38v37h-38v-37z"/></svg>