<svg viewBox="0 0 300 310" xmlns="http://www.w3.org/2000/svg"><path d="M300 176q0-32-17-60.5t-47-47Q206 50 171 45q5-8 4-17.5T166.5 12Q159 6 150 6t-16.5 6q-7.5 6-8.5 15.5t4 17.5q-35 5-64.5 23.5t-46.5 47Q1 144 1 176q0 11 5.5 20.5T21 212l10 58q3 16 15 26t28 10h152q16 0 28-10t15-26l10-57q10-6 15.5-16t5.5-21zM150 81q29 0 55 13t41.5 35q15.5 22 15.5 47 0 3-1 4t-4 1h-32q0 5-3.5 8.5t-9 3.5q-5.5 0-9-3.5T200 181h-37q0 5-4 8.5t-9 3.5q-5 0-9-3.5t-4-8.5h-37q0 5-3.5 8.5t-9 4q-5.5.5-9-3.5t-3.5-9H44q-3 0-4-1t-1-4q0-25 15-47t41-35q26-13 55-13zm76 187H74q-2 0-4-1t-2-4l-7-40q13 9 29 8t29-11q13 11 31 11t31-11q13 10 29 11t29-8l-7 40q0 3-2 4.5t-4 1.5v-1z"/></svg>