<svg viewBox="0 0 301 310" xmlns="http://www.w3.org/2000/svg"><path d="M277 143l24 25-27 26-24-24-24 24-27-26 24-25-24-24 27-26 24 24 24-24 27 26-24 24zM25 81q0-20 10-37.5T62.5 16Q80 6 100 6t37.5 10Q155 26 165 43.5T175 81q0 20-10 37.5T137.5 146Q120 156 100 156t-37.5-10Q45 136 35 118.5T25 81zm38 0q0 16 10.5 26.5T100 118q16 0 27-10.5T138 81q0-16-11-27t-27-10.5q-16 .5-26.5 11T63 81zm75 100H63q-17 0-31.5 8.5t-23 23Q0 227 0 243v63h38v-63q0-10 7-17.5t17-7.5h76q10 0 17 7.5t7 17.5v63h38v-63q0-16-8.5-30.5t-23-23Q154 181 137 181h1z"/></svg>