<svg viewBox="0 0 300 310" xmlns="http://www.w3.org/2000/svg"><path d="M156 93h-6V31q0-10-7.5-17.5T125 6H88q-11 0-18 7.5T63 31v62h-7q-23 0-39.5 16.5T0 150v156h213V150q0-24-16.5-40.5T156 93zm19 175H38V150q0-8 5-13.5t13-5.5h100q8 0 13.5 5.5T175 150v118zm-25-68q0 18-13 30.5T106 243q-18 0-30.5-12.5T63 200q0-18 12.5-31t30.5-13q18 0 31 13t13 31zm88-163l-21 11-11 20-10-20-21-11 21-10 10-21 11 21 21 10zm0 38l20-11 11-21 10 21 21 11-21 10-10 21-11-21-20-10zm29 64l21 11-21 10-11 21-10-21-21-10 21-11 10-21 11 21z"/></svg>