<svg viewBox="0 0 300 310" xmlns="http://www.w3.org/2000/svg"><path d="M183 34l29-29 26 27-28 28-27-26zM62 32L88 5l28 28-26 27-28-28zm69-26h38v44h-38V6zM17 248L6 283l72 23 11-36-18-6 8-21 1 1q17 0 32-9 12-7 20-17.5t12-23.5l6-21 6 20q3 14 11.5 24.5T188 235q15 8 32 9l1-1 8 21-18 6 11 36 72-23-11-36-19 6-7-21q19-12 26.5-33t1.5-43l-17-56q-5-17-20.5-26T215 70l-46 13q-11 4-19 12-8-8-19-12L85 70q-17-5-32.5 4T32 100l-17 57q-6 21 1.5 42T43 232l-7 21-19-5zm159-126q1-2 3-2l48-14q4 0 5 4l10 33h-62l-5-16q-1-2 1-5zM74 106l47 14q2 0 3.5 2.5t.5 4.5l-5 16H58l10-33q1-2 2.5-3t3.5-1z"/></svg>