<svg viewBox="0 0 300 310" xmlns="http://www.w3.org/2000/svg"><path d="M266 52q20-19 22-46h-38q-2 13-13 22-10-9-12-22h-37q1 25 18 44-17 7-27.5 23T168 108q-5 25-24 42-17 19-42 24-19 0-34.5 10.5T44 212q-19-17-44-19v38q13 2 22 13-8 10-22 12v37q27-1 46-21 9 16 24.5 25t33.5 9q22 0 49-9 46-16 84-54t54-84q9-27 9-49 0-18-9-33.5T266 52zm-55 165q-32 31-69 44-21 8-38 7-12 0-20.5-8T75 240q0-12 8.5-20.5T103 211q20-2 37-11t31-23q14-14 23-31t11-37q0-12 8.5-20t20.5-8q12 0 20.5 8.5T263 110q0 17-8 38-13 38-44 69z"/></svg>