<svg viewBox="0 0 300 310" xmlns="http://www.w3.org/2000/svg"><path d="M213 175q0 8-5.5 13t-13 5q-7.5 0-12-3.5T176 180l-14-8q-6 5-12 7v39h-25v-39q-6-2-12-7l-14 8q-2 6-6.5 9.5t-12 3.5q-7.5 0-13-5T62 175q0-8 5.5-13.5T81 156q4 0 7 1l13-7-1-7q0-3 1-7l-35-19 13-22 34 20q6-5 12-7V88q-6-5-6-13t5.5-13.5q5.5-5.5 13-5.5t13 5.5Q156 67 156 75t-6 13v20q6 2 12 7l34-20 13 22-35 19 1 7q0 4-1 7l13 7q3-1 7-1 8 0 13.5 5.5T213 175zm87-11v29h-28l-5 37q-2 17-14.5 27.5T224 268h-11v38H38v-62q0-7-5-12-22-27-29.5-59.5T5 107q10-38 40-65.5T114 8q39-6 75 8t60 45q9 12 20 35 7 14 21 46l10 22zm-45-8q-12-28-18-41-10-21-18-31-17-23-43.5-33.5T121 45q-28 5-50 24.5T41 117q-6 24-.5 47.5T62 208q13 15 13 36v24h100v-37h48q3 0 4.5-1.5t2.5-4.5l8-69h17z"/></svg>