<svg viewBox="0 0 300 310" xmlns="http://www.w3.org/2000/svg"><path d="M0 81h300v37H175q0 2 1 4 12 15 12 34t-12 34q-2 3 0 7 12 15 12 34t-12 34q-2 3 0 7 12 15 11 34h-37q0-6-4-11-9-12-9-26.5t9-26.5q4-5 4-11t-4-11q-9-12-9-26.5t9-26.5q4-5 4-11t-4-11q-9-12-9-27h-24q-1 2 0 4 12 15 12 34t-12 34q-2 3 0 7 12 15 12 34t-12 34q-2 4 0 7 12 15 12 34H88q0-6-4-11-9-12-9-26.5t9-26.5q4-5 4-11t-4-11q-9-12-9-26.5t9-26.5q4-5 4-11t-4-11q-9-12-9-27H50q0 2 1 4 12 15 12 34t-12 34q-2 3 0 7 12 15 12 34t-12 34q-2 3 0 7 12 15 12 34H25q0-6-4-11-9-12-9-26.5t9-26.5q4-5 4-11t-4-11q-9-12-9-26.5t9-26.5q4-5 4-11t-4-11q-9-12-9-27H0V81zm300-38l-3-37L0 31l3 37 297-25z"/></svg>