<svg viewBox="0 0 300 310" xmlns="http://www.w3.org/2000/svg"><path d="M300 256V155q0-41-20.5-75t-55-54Q190 6 149.5 6t-75 20Q40 46 20 80.5T0 156q0 44 21 80 21 33 55 51.5t74 18.5q24 0 46.5-7.5T238 278v-22h-37q-24 12-52 12t-53-13.5Q71 241 55.5 217T38 165q1-9 8-15.5t17-6.5q10 0 18 7.5t8 17.5q4 22 21.5 36.5T150 219q15-1 28-7.5t22-18.5v38h38v-75q-1-5 3-9t9-4q5 0 9 4t4 9v100h37zm-150-75q-10 0-17.5-7.5T125 156q0-10 7.5-17.5T150 131q10 0 17.5 7.5T175 156q0 10-7.5 17.5T150 181zm100-75q-13 0-24.5 6.5T207 130q-7-16-22.5-26.5T150 93q-15 0-28 7t-22 19q-17-13-37-13-8 0-15 2 14-29 41.5-47T150 43q33 0 60 17.5t41 45.5h-1z"/></svg>