<svg viewBox="0 0 300 310" xmlns="http://www.w3.org/2000/svg"><path d="M150 6q-41 0-75.5 20T20 80.5Q0 115 0 156t20 75.5Q40 266 74.5 286t75.5 20q41 0 75.5-20t54.5-54.5q20-34.5 20-75.5t-20-75.5Q260 46 225.5 26T150 6zm0 262q-31 0-56.5-15T53 212.5Q38 187 37.5 156t15-56.5q15.5-25.5 41-41T150 43q31 0 56.5 15.5t41 41q15.5 25.5 15 56.5T247 212.5q-15 25.5-40.5 41T150 269v-1zm77-137l18 18-27 26-18-17-18 17-26-26 17-18-17-18 26-27 18 18 18-18 27 27-18 18zm-127 27l-18 17-26-26 17-18-17-18 26-27 18 18 18-18 27 27-18 18 18 18-27 26-18-17zm88 73h-75q0-16 10.5-26.5t26.5-11q16-.5 26.5 10.5t10.5 27h1z"/></svg>