<svg viewBox="0 0 300 310" xmlns="http://www.w3.org/2000/svg"><path d="M113 112q2-15 6.5-28.5T125 56q0-10-3.5-19.5T111 20q-7-7-16.5-10.5T75 6Q65 6 55.5 9.5T39 20q-7 7-10.5 16.5T25 56q1 14 5.5 27.5T37 112q-2 20-14 37-21 30-23 67 1 45 26 82l6 8h86l6-8q25-37 26-82-2-37-23-67-12-17-14-37zM75 43q7 0 10 3t3 9q-1 2-5 17v1q-5 16-8 33-3-17-8-33l-4-17q0-7 2.5-10t9.5-3zm23 225H52q-14-24-14-52 2-27 17-49 7-11 13-24h14q6 13 13 24 15 22 18 49-1 28-15 53v-1zm179-119q-12-17-14-37 2-15 6.5-28.5T275 56q0-10-3.5-19.5T261 20q-7-7-16.5-10.5T225 6q-10 0-19.5 3.5T189 20q-7 7-10.5 16.5T175 56q1 14 5.5 27.5T188 112q-3 20-15 37-21 30-23 67 1 45 26 82l6 8h86l6-8q25-37 26-82-2-37-23-67zM225 43q7 0 9.5 3t3.5 9q-1 2-5 17v1q-5 16-8 33-3-17-8-33l-5-17q1-7 3.5-10t9.5-3zm23 225h-46q-14-24-14-52 2-27 17-49 7-11 13-24h14q6 13 13 24 15 22 18 49-1 28-15 53v-1z"/></svg>