<svg viewBox="0 0 300 310" xmlns="http://www.w3.org/2000/svg"><path d="M225 156q-20 0-37.5 10T160 193.5Q150 211 150 231t10 37.5q10 17.5 27.5 27.5t37.5 10q20 0 37.5-10t27.5-27.5q10-17.5 10-37.5t-10-37.5Q280 176 262.5 166T225 156zm9 105v1q-7 7-17.5 6.5T199 261l-27-28 17-18 28 29 45-47 17 18-45 47v-1zM50 37q0-13 9-22t22-9q13 0 22 9t9.5 22q.5 13-9 22.5t-22.5 9Q68 68 59 59t-9-22zm100 88q0-18-13-31t-31-13H56q-18 0-30.5 13T13 125v106h25v75h37v-75h13v75h37v-75q0-19 6.5-35.5T150 165v-40zm-100 0q0-3 2-5t4-2h50q3 0 5 2t1 5v68H50v-68z"/></svg>