<svg viewBox="0 0 300 310" xmlns="http://www.w3.org/2000/svg"><path d="M138 250q0 8-5.5 13t-13.5 5H98l-24 31q-4 7-12 7H44l14-38H35q-6 0-12-3.5t-9-9.5L1 233q-2-5 .5-10t7.5-5q5 0 8 3l14 10h28l-15-38h18q8 0 12 8l24 30h21q8 0 13.5 5.5T138 250zm106-82H131q-8 0-13-5t-5-13q0-8 5-13.5t13-5.5h45q-16-16-22-37h-23q-23-1-39.5 15.5t-16.5 40q0 23.5 16.5 40T131 206h113q8 0 13.5 5.5T263 225q0 8-5.5 13.5T244 243h-82l1 7q0 18-13 30v1h94q23 0 39.5-16.5t16.5-40q0-23.5-16.5-40T244 168zm38-144Q263 6 237.5 6T193 24q-12 12-16 28.5t0 32.5q4 16 16 28l45 43 44-43q18-19 18-44.5T282 24zm-44 69q-11 0-18-7t-7-17.5q0-10.5 7-18t17.5-7.5q10.5 0 18 7.5t7.5 18q0 10.5-7.5 17.5T238 93z"/></svg>