<svg viewBox="0 0 300 310" xmlns="http://www.w3.org/2000/svg"><path d="M300 306H0V50q0-18 13-31T44 6h212q18 0 31 13t13 31v256zM38 268h225V50q0-3-2-5t-5-2H44q-3 0-4.5 2T38 50v218zm37-168q0 8 5.5 13.5t13.5 5q8-.5 13-5.5t5-13q0-8-5-13.5T94 81q-8 0-13.5 5.5T75 100zm113 0q0 8 5 13.5t13 5q8-.5 13.5-5.5t5.5-13q0-8-5.5-13.5T206 81q-8 0-13.5 5.5T187 100h1zM75 212q0 8 5.5 13.5T94 231q8 0 13.5-5.5t5-13.5q-.5-8-5.5-13t-13-5q-8 0-13.5 5T75 212zm113 0q0 8 5 13.5t13 5.5q8 0 13.5-5.5T225 212q0-8-5.5-13t-13.5-5q-8 0-13.5 5t-5.5 13h1zM75 156q0 8 5.5 13.5T94 175q8 0 13-5.5t5-13.5q0-8-5-13.5T94 137q-8 0-13.5 5.5T75 156zm113 0q0 8 5 13.5t13 5.5q8 0 13.5-5.5T225 156q0-8-5.5-13.5T206 137q-8 0-13.5 5.5T187 156h1z"/></svg>