<svg viewBox="0 0 300 310" xmlns="http://www.w3.org/2000/svg"><path d="M263 243h37v50H0v-50h38v13h225v-13zm-7-225H44q-18 0-31 13T0 62v19h38V62q0-2 1.5-4t4.5-2h212q3 0 5 2t2 4v19h37V62q0-18-13-31t-31-13zM25 218H0v-87q0-10 7.5-17.5T25 106h24q13 0 24 8.5t13.5 21q2.5 12.5-2 22.5t-14 16.5Q61 181 50 181H25v37zm0-62h25q5 0 9-3.5t4-9q0-5.5-4-9t-9-3.5H25v25zm149 16l26 46h-27l-22-37h-26v37h-25v-87q0-10 7.5-17.5T125 106h23q14 0 25.5 9t13.5 22q2 11-2 20t-11 16v-1zm-49-16h25q5 0 9-3.5t4-9q0-5.5-4-9t-9-3.5h-25v25zm175-6v25q0 18-13 30.5T256 218q-18 0-30.5-12.5T213 175v-25q0-18 12.5-31t30.5-13q18 0 31 13t13 31zm-25 0q0-8-5.5-13.5T256 131q-8 0-13 5.5t-5 13.5v25q0 8 5 13t13 5q8 0 13.5-5t5.5-13v-25z"/></svg>