<svg viewBox="0 0 300 310" xmlns="http://www.w3.org/2000/svg"><path d="M266 195l8-8h4q9 0 15.5-6.5T300 165q0-9-6.5-15t-15.5-6q-9 0-15.5 6t-6.5 15l1 4-8 8q-6-3-11-5v-28h-38v28q-6 2-11 5l-8-8v-4q0-9-6.5-15t-15.5-6q-9 0-15 6t-6 15q0 9 6 15.5t15 6.5h4l8 8q-3 5-5 11h-28v37h28q2 6 5 12l-8 8-4-1q-9 0-15 6.5t-6 15.5q0 9 6 15.5t15 6.5q9 0 15.5-6.5T181 284v-4l8-8q5 4 11 6v28h38v-28q5-2 11-6l8 8-1 4q0 9 6.5 15.5T278 306q9 0 15.5-6.5T300 284q0-9-6.5-15.5T278 262l-4 1-8-8q4-6 6-12h28v-37h-28q-2-6-6-11zm-47 48q-8 1-13.5-4.5T200 225q0-8 5.5-13.5T219 206q8 0 13.5 5.5t5 13.5q-.5 8-5.5 13.5t-13 4.5zm-66-125h35V81h-35q-2-8-7-16l10-10q3 1 7 1 10 0 17.5-7.5T188 31q0-10-7.5-17.5t-18-7.5Q152 6 145 13.5T138 31v6l-10 11q-7-5-15-8V6H75v34q-8 3-16 8L49 37q1-3 1-6 0-10-7.5-17.5T25 6Q15 6 7.5 13.5T0 31q0 10 7.5 17.5T25 56q3 0 6-1l11 10q-5 8-8 16H0v37h34q3 9 8 16l-11 10q-3-1-6 0-10-1-17.5 6.5t-7.5 18Q0 179 7.5 186t17.5 7q10 0 17.5-7t7.5-18q0-3-1-6l10-10q8 5 16 7v34h38v-34q14-4 25-15t15-25v-1zM94 75q10 0 17.5 7t7.5 17.5q0 10.5-7.5 18t-18 7.5Q83 125 76 117.5t-7-18Q69 89 76 82t18-7z"/></svg>