<svg viewBox="0 0 300 310" xmlns="http://www.w3.org/2000/svg"><path d="M249 120q-2-33-11-58-7-21-19-35-9-11-20-17-8-4-12-4-20 0-37 12-16-11-37-12-4 0-12 4-11 6-20 17-12 14-19 35-9 24-11 58-24 5-37.5 13.5T0 151q0 12 20 21.5T74.5 188q34.5 6 75.5 5.5t75.5-6q34.5-5.5 54.5-15t20-21.5q0-9-13.5-17.5T249 120zm-99 11q-31 1-62-6 2-38 14-61 7-14 16-20 11 2 15 12l17 32 17-32q4-10 15-12 9 6 17 20 11 23 13 61-31 7-62 6zm113 125q0 19-12.5 33T220 305.5q-18 2.5-34-7T165 271q-7-2-15-2t-15 2q-5 17-20 27t-33 8q-18-2-30.5-15t-14-31Q36 242 46 227.5T73.5 208q17.5-5 34 2t24.5 23q9-2 18-2t18 2q8-15 24-22.5t32.5-3.5q16.5 4 27.5 18t10 31h1z"/></svg>