<svg viewBox="0 0 300 310" xmlns="http://www.w3.org/2000/svg"><path d="M213 125q0-24-16.5-40.5T156 68h-25q-18 0-30.5 13T88 112v119h37v-50h14l30 50h44l-33-55q14-7 23.5-21t9.5-30zm-88-13q0-2 2-4t4-2h25q8 0 13.5 5.5T175 125q0 8-5.5 13t-13.5 5h-31v-31zM150 6q-41 0-75.5 20T20 80.5Q0 115 0 156t20 75.5Q40 266 74.5 286t75.5 20q41 0 75.5-20t54.5-54.5q20-34.5 20-75.5t-20-75.5Q260 46 225.5 26T150 6zm0 262q-31 0-56.5-15T53 212.5Q38 187 37.5 156t15-56.5q15.5-25.5 41-41T150 43q31 0 56.5 15.5t41 41q15.5 25.5 15 56.5T247 212.5q-15 25.5-40.5 41T150 269v-1z"/></svg>