<svg viewBox="0 0 300 310" xmlns="http://www.w3.org/2000/svg"><path d="M150 306q-41 0-75.5-20T20 231.5Q0 197 0 156t20-75.5Q40 46 74.5 26T150 6q41 0 75.5 20T280 80.5q20 34.5 20 75.5t-20 75.5Q260 266 225.5 286T150 306zm0-263q-31 0-56.5 15.5T53 99.5Q38 125 37.5 156t15 56.5q15.5 25.5 41 41t56.5 15q31-.5 56.5-15.5t40.5-40.5q15-25.5 15-56.5t-15-56.5Q232 74 206.5 59T150 43zm56 150h-54l4-2q23-14 33-24 17-19 17-42.5t-16.5-40Q173 68 150 68t-39.5 16.5Q94 101 94 125v6h37v-6q0-8 5.5-13.5T150 106q8 0 13.5 5.5t5.5 14q0 8.5-9 17.5-6 6-24 16-20 13-28 21-14 14-14 32v19h112v-38z"/></svg>