<svg viewBox="0 0 300 310" xmlns="http://www.w3.org/2000/svg"><path d="M285 91q15-15 15-35.5t-14.5-35Q271 6 250.5 6T215 21L79 156q-28 1-48 21-14 15-23 55-5 25-7 53l-1 21 21-1q28-2 53-7 40-9 55-23 20-20 20-48L285 91zm-43-44q3-3 8-3t8.5 3.5Q262 51 262 56t-3 9L137 186q-3-5-7.5-9.5T120 169L242 47zM103 248q-5 5-22.5 9.5T41 265q3-22 7.5-39.5T58 203q9-9 22-9t22.5 9.5Q112 213 112 226t-9 22zM15 92Q0 78 0 57t15-36Q30 6 51 6t35 15l47 47-26 26-47-47q-4-3-9.5-3t-9 3.5Q38 51 38 56.5t3 9.5l47 47-26 26-47-47zm285 142v72h-72l-61-62 26-26 51 51h18v-19l-50-51 26-26 62 61z"/></svg>