<svg viewBox="0 0 300 310" xmlns="http://www.w3.org/2000/svg"><path d="M150 6q-41 0-75.5 20T20 80.5Q0 115 0 156t20 75.5Q40 266 74.5 286t75.5 20q41 0 75.5-20t54.5-54.5q20-34.5 20-75.5t-20-75.5Q260 46 225.5 26T150 6zm0 262q-31 1-56.5-14.5t-41-41Q37 187 37.5 156T53 99.5Q68 74 93.5 59T150 44q31 0 56.5 15T247 99.5q15 25.5 15.5 56.5t-15 56.5Q232 238 206.5 253T150 268zm13-200h-32q-18 0-30.5 13T88 112v131h37v-50h38q16 1 30.5-7.5t23-23Q225 148 225 131t-8.5-31.5Q208 85 193.5 77T162 69l1-1zm0 88h-38v-44q0-2 2-4t4-2h32q10 0 17.5 7.5t7 17.5q-.5 10-7.5 17.5t-17 7.5z"/></svg>