<svg viewBox="0 0 300 310" xmlns="http://www.w3.org/2000/svg"><path d="M150 187q0 8-5.5 13.5T131 206q-8 0-13.5-5.5T112 187q0-8 5.5-13t13.5-5.5q8-.5 13.5 5T150 187zM85 297l36 9 19-75-36-9-19 75zm84-29q-8 0-13.5 5.5T150 287q0 8 5.5 13.5T169 306q8 0 13.5-5.5T188 287q0-8-5.5-13.5T169 268zm131-106q0 36-22.5 63.5T220 260l11-44q15-8 23-22.5t9-31.5q-1-23-17.5-39.5T206 106h-14l-4-13q-6-21-23-35t-39-15q-12 0-24 4.5T81 61q-9 9-14 20.5T62 106q0 13 4 25l6 16-15 8q-9 4-14.5 12.5t-5 19q.5 10.5 6 19.5T58 221l4 2 15 3-9 36-9-1q-26-7-42.5-27.5T0 186q0-17 7-31.5T27 130q-2-12-2-24 0-20 7.5-38.5t22-32.5q14.5-14 33-21.5T126 6q31 1 56.5 18T220 70q23 3 41 16t28.5 33q10.5 20 10.5 43zM0 186zm37 0h1-1zm123 57l36 10 19-75-36-10-19 75z"/></svg>