<svg viewBox="0 0 301 310" xmlns="http://www.w3.org/2000/svg"><path d="M275 91l-28 26q16 10 15.5 20T248 157q-14 10-38 17-28 7-60 7t-60-7q-24-7-38-17t-14-19.5q0-9.5 13-19T86 102q26-7 56-8l40-36q-16-2-32-2-42 0-76.5 10.5t-54 29Q0 114 0 137v88q0 23 19.5 41.5t54 29Q108 306 150 306t76.5-10.5q34.5-10.5 54-29T300 225v-88q0-25-25-46zM131 268q-16-1-31-5v-49q15 3 31 4v50zm38-50q16-1 31-4v49q-15 4-31 5v-50zm-131 7v-33q11 7 25 12v47q-12-6-19-13t-7-13h1zm200 26v-47q13-5 25-12v33q-1 6-7.5 13T237 251h1zm-98-122L275 7l26 28-136 122-25-28z"/></svg>