<svg viewBox="0 0 300 310" xmlns="http://www.w3.org/2000/svg"><path d="M38 162q0 8-5.5 13.5T19 181q-8 0-13.5-5.5T0 162q0-8 5.5-13.5T19 143q8 0 13 5.5t5 13.5h1zm-19 44q-8 0-13.5 5.5T0 225q0 8 5.5 13t13.5 5q8 0 13.5-5t5.5-13q0-8-5.5-13.5T19 206zm0 62q-8 0-13.5 5.5T0 287q0 8 5.5 13.5T19 306q8 0 13-5.5t5.5-13.5q.5-8-5-13.5T19 268zm50-93q-8 0-13.5 5.5t-5.5 13q0 7.5 5.5 13T69 212q8 0 13.5-5.5t5.5-13q0-7.5-5.5-13T69 175zm0 62q-8 0-13.5 5.5T50 256q0 8 5.5 13.5T69 275q8 0 13.5-5.5t5-13.5q-.5-8-5.5-13.5T69 237zM299 58l-39 188q-3 15-15 25t-28 10H113V168h38l26-127q4-15 16-25t27-10h36q10 0 19 4t15 12q6 8 8.5 17.5T299 58zm-85-10l-9 45h48l9-42q1-3-1-5.5t-5-2.5h-36q-2 0-4 1.5t-2 3.5zm9 190l23-107h-49l-16 75h-31v37h67q2 0 4-1t2-4z"/></svg>