<svg viewBox="0 0 300 310" xmlns="http://www.w3.org/2000/svg"><path d="M213 81q-17 0-30 10-7-4-14-7 2-17 10-28 6-7 14-11 4-2 7-1 12-1 13 12h37q0-22-14-36T200 6q-11 0-23 5-16 7-26 21-11-16-28-24l-17 34q8 4 13 10 10 12 12 32-7 3-14 7-13-10-30-10-20 0-40.5 15T14 136Q0 163 0 193.5T14 251q12 25 32.5 40T88 306q16 0 29-10 33 20 66 0 13 10 29 10 21 0 41.5-15t32.5-40q14-27 14-57.5T286 136q-12-25-32.5-40T213 81zm0 187q-7 1-12-7l-12-18-16 14q-13 11-23 11t-23-11l-16-14-12 18q-5 8-11 7-11 0-22.5-10T46 230.5q-8-17.5-8-37t8-37Q54 139 65.5 129T88 119q6-1 11 7l12 18 16-14q13-11 23-11.5t23 11.5l16 14 12-18q5-7 11-8 11 0 22.5 10.5t20 28q8.5 17.5 8.5 37t-8.5 37q-8.5 17.5-20 27.5T213 268z"/></svg>