<svg viewBox="0 0 300 310" xmlns="http://www.w3.org/2000/svg"><path d="M133 123q7 8 17 8t17-8l16-17h29V31q0-10-7-17.5T187 6h-75q-10 0-17.5 7.5T87 31v75h30l16 17zm-8-80h50v25h-8l-17 19-17-19h-8V43zM0 87q0-13 9-22t22-9q13 0 22 9t9.5 22q.5 13-9 22.5t-22.5 9Q18 118 9 109T0 87zm63 131h50v88H75v-50H31q-13 0-22-9t-9-22v-50q0-13 9-22t22-9.5q13-.5 22 9t9 22.5v43h1zM238 87q0-13 9-22t22-9q13 0 22 9t9 22q0 13-9 22.5t-22 9.5q-13 0-22.5-9.5T237 87h1zm62 88v50q0 13-9 22t-22 9h-44v50h-37v-88h50v-43q0-13 9-22.5t22-9q13 .5 22 9.5t9 22zm-87 18H88v-37h125v37zM0 268h50v38H0v-38zm300 38h-50v-38h50v38z"/></svg>