<svg viewBox="0 0 300 310" xmlns="http://www.w3.org/2000/svg"><path d="M113 75q-1-8 4.5-13.5T131 56q8 0 13.5 5.5T150 75q0 8-5.5 13.5T131 94q-8 0-13.5-5.5T112 75h1zm-36 89q11-6 22-7 23-3 54 13 23 13 38 11 12-2 22-9 5-5 9-10-6-25-26-40.5T150 106q-26 0-46.5 16.5T77 164zm118 41q-23 3-54-13-23-13-38-11-4 1-9 3-10 4-18 11 5 26 26 43.5t48 17.5q27 0 48-17.5t26-44.5q-15 9-29 11zm93-155v256H13V50q0-18 12.5-31T56 6h188q18 0 31 13t13 31zm-38 0q0-3-2-5t-4-2H56q-2 0-4 2t-2 5v218h200V50zM100 75q0-8-5.5-13.5T81 56q-8 0-13 5.5T63 75q0 8 5 13.5T81 94q8 0 13.5-5.5T100 75z"/></svg>