<svg viewBox="0 0 300 310" xmlns="http://www.w3.org/2000/svg"><path d="M206 6H94Q76 6 63 19T50 50v256h200V50q0-18-13-31T206 6zm-40 191q12 5 20 16t8 24q0 18-13 31t-31 13q-18 0-31-13t-13-31q0-13 8-24t20-16q-12-5-20-16t-8-25q0-14 8-25t20-16q-12-5-20-16t-8-24q0-18 13-31t31-13q18 0 31 13t13 31q0 13-8 24t-20 16q12 5 20 16t8 25q0 14-8 25t-20 16zm-35-41q0-8 5.5-13.5T150 137q8 0 13.5 5.5T169 156q0 8-5.5 13.5T150 175q-8 0-13.5-5.5T131 156zm0 81q0-8 5.5-13.5T150 218q8 0 13.5 5.5T169 237q0 8-5.5 13.5T150 256q-8 0-13.5-5.5T131 237z"/></svg>