<svg viewBox="0 0 300 310" xmlns="http://www.w3.org/2000/svg"><path d="M275 112q0-13-6.5-25.5T251 66q-11-8-24.5-9.5T200 59v-9q0-18-13-31T156 6H88v37h12v63q0 5-26 24-23 18-33 29-16 19-16 41 0 23 12 42 8 11 27 29l7 6q4 4 4 10v19h150v-19q0-6 4-10l7-6q19-18 27-29 12-19 12-42 0-13-5.5-24.5T255 155q9-8 14.5-19t5.5-24zm-56-19q6 1 11.5 5t6.5 11q1 7-2.5 12.5T225 130q-14-10-24-22 1-6 6-10t12-5zM97 160q20-15 28-24 13-14 13-30V43h18q3 0 5 2t2 5v56q0 16 12 30 8 9 28 24l11 9H86l11-9zm113 84l-6 6q-9 8-13 18h-82q-4-10-13-18l-6-6q-14-13-19-19-7-9-8-19h174q-1 10-8 19-5 6-19 19z"/></svg>