<svg viewBox="0 0 300 310" xmlns="http://www.w3.org/2000/svg"><path d="M150 6q-41 0-75.5 20T20 80.5Q0 115 0 156t20 75.5Q40 266 74.5 286t75.5 20q41 0 75.5-20t54.5-54.5q20-34.5 20-75.5t-20-75.5Q260 46 225.5 26T150 6zM38 156q4-5 17-10 16-6 38-10 26-5 57-5t57 5q22 4 38 10 13 5 17 10-4 5-17 10-16 6-38 10-26 5-57 5t-57-5q-22-4-38-10-13-5-17-10zM150 43q33 1 60.5 18.5T252 108q-50-15-102-15T48 108q14-29 41.5-46.5T150 44v-1zm0 225q-33 0-60.5-17.5T48 204q50 15 102 15t102-15q-14 29-41.5 46.5T150 268z"/></svg>