<svg viewBox="0 0 300 310" xmlns="http://www.w3.org/2000/svg"><path d="M150 306q-41 0-75.5-20T20 231.5Q0 197 0 156t20-75.5Q40 46 74.5 26T150 6q41 0 75.5 20T280 80.5q20 34.5 20 75.5t-20 75.5Q260 266 225.5 286T150 306zm0-263q-31 1-56.5 16t-41 40.5Q37 125 37.5 156T53 212.5q15 25.5 40.5 41t56.5 15q31-.5 56.5-15.5t41-40.5q15.5-25.5 15-56.5T247 99.5q-15-25.5-40.5-41T150 43zm0 125q-16 1-26.5 11.5T113 206q0 16 10.5 26.5T150 243q16 0 26.5-10.5t11-26.5q.5-16-10.5-26.5T150 169v-1zm-50-51q-10 0-17.5 7.5t-7.5 18q0 10.5 7.5 17.5t17.5 7q10 0 17.5-7t7.5-17.5q0-10.5-7.5-18T100 117zm100 0q-10 0-17.5 7.5t-7.5 18q0 10.5 7.5 17.5t17.5 7q10 0 17.5-7t7.5-17.5q0-10.5-7.5-18T200 117zm-83-26l-9-23q-32 14-50 41l21 14q14-21 38-32zm124 17q-18-27-49-40l-9 23q24 11 37 31l21-14z"/></svg>