<svg viewBox="0 0 300 310" xmlns="http://www.w3.org/2000/svg"><path d="M138 156q-4-3-7-6-9-8-16-13-9-6-15-6t-15 6q-7 5-16 13l-6 6q0-12 3-25 4-16 12-26 9-12 22-12t22 12q8 10 12 26 3 13 3 25h1zm25 0l6-6q9-8 16-13 9-6 15-6t15 6q7 5 16 13l7 6q0-12-4-25-4-16-12-26-9-12-22-12t-22 12q-8 10-12 26-3 13-3 25zM22 193q12 0 23 6h1q-8-21-8-43 0-31 15-56.5T93.5 59Q119 44 150 44q19-1 38 6-5-10-5-20t4-19q-19-5-37-5-41 0-75.5 20T20 80.5Q0 115 0 156q0 20 6 41 8-4 16-3v-1zm265-98q-8 8-17 14l-14 10q6 18 6 37 1 31-14.5 56.5t-41 40.5Q181 268 150 268q-19 1-37-6-6 16-20 33 27 11 57 11 41 0 75.5-20t54.5-54.5q20-34.5 20-75.5 0-32-13-61zm-31-7q6-4 11-9 14-11 22-22 11-15 11-27 0-10-7-17t-16.5-7q-9.5 0-16 7T254 30q0-10-7-17t-16.5-7q-9.5 0-16 7T208 30q1 17 24 39 12 12 24 19zM68 219q-9 0-15.5 6.5T46 242q0-10-7-16.5T22.5 219q-9.5 0-16 6.5T0 242q1 17 24 40 12 11 24 19l11-9q14-12 22-22 11-16 11-28 0-10-7-16.5T68 219zm151-15l-25-28q-6 5-14 9-16 8-30 8t-30-8q-8-4-14-9l-25 28q8 7 21 14 24 13 48 13t48-13q13-7 21-14z"/></svg>