<svg viewBox="0 0 300 310" xmlns="http://www.w3.org/2000/svg"><path d="M169 81h-38V18h38v63zm69-63h-38v50h38V18zm-138 0H63v50h37V18zm173 238q-56 36-123 38-67-2-123-38-14-9-21-23.5T0 202q1-16 10-30 5-6 10-11-5-5-11-10-9-10-9-24t10.5-24Q21 93 35 93.5T59 104q10 10 27 20 33 19 64 19t64-19q17-10 27-20t24-10.5q14-.5 24.5 9.5t10.5 24q0 14-9 24-6 5-11 10 10 9 15.5 22t4.5 27q-1 14-8 26t-19 20zm-14-63q-5-8-14.5-9.5T228 187q-36 23-78 25-42-2-77-25-6-4-13-4t-13 4.5q-6 4.5-8.5 11.5t0 14q2.5 7 9.5 11 46 30 102 32 56-2 102-31 8-6 10-15t-3-17z"/></svg>