<svg viewBox="0 0 300 310" xmlns="http://www.w3.org/2000/svg"><path d="M187 213q-22-7-37-25-15 18-37 25l-32 11-12-36 32-11q14-4 22-15.5t8-25.5V6h38v130q0 14 8 25.5t22 15.5l32 11-12 36-32-11zm-91 32q-5 10-16 14l-20 9q-3 1-6 1-7 0-12-5t-5-13q0-19 5-38l22-97q3-10 10.5-16T93 94h20V56H93q-24 0-42 14.5T28 108L5 205q-5 23-5 46t16 39q8 8 18 12t20 4h1q8 0 18-3l22-9q19-8 31-25.5t12-38.5q-9 4-17 7l-25 8zm198-43l-22-94q-5-23-23-37.5T207 56h-20v37h20q11 0 18.5 6.5T236 116l22 95q5 21 5 40 0 8-5 13t-12 5q-3 0-6-1l-20-9q-11-4-16-14l-25-8q-8-3-16-7 0 21 11.5 38.5T205 294l23 9q6 2 12 3h6q10 0 20-4t18-12q16-16 16-39t-6-49z"/></svg>