<svg viewBox="0 0 300 310" xmlns="http://www.w3.org/2000/svg"><path d="M300 37q0 13-9 22t-22 9q-13 0-22-9t-9-22q0-13 9-22t22-9q13 0 22 9t9 22zM156 174v-31h-37v31q-11 6-16 18t-1.5 24q3.5 12 13.5 20t22.5 8q12.5 0 22.5-8t13.5-20q3.5-12-1.5-24t-16-18zm57-34q12 14 18.5 31t6.5 35q-1 27-14 50t-36 36.5Q165 306 137.5 306T87 292.5Q64 279 50.5 256T37 206q0-18 6.5-35T62 140V81q0-20 10.5-37T100 16.5Q117 6 137.5 6T175 16.5Q192 27 202.5 44T213 81v59zm-13 66q0-13-5-24.5T181 161l-6-5V81q0-15-11-26t-26.5-11Q122 44 111 55t-11 26v75l-6 5q-9 9-14 20.5T75 206q0 17 8.5 31.5t23 23q14.5 8.5 31 8.5t31-8.5q14.5-8.5 23-23T200 206z"/></svg>