<svg viewBox="0 0 300 310" xmlns="http://www.w3.org/2000/svg"><path d="M283 118q-13-13-45-22-25-6-56-9 6-8 5.5-19T181 48q8-5 19-5V6q-31 0-50 19-19-19-50-19v37q11 0 19 5-6 9-6 20t5 19q-31 3-56 9-32 9-45 22-17 17-17 41.5T17 201q9 8 19.5 12.5T59 218q19 0 35-11 7 26 25 54 9 16 16 25l15 19 15-19q7-9 16-25 18-28 25-54 16 11 35 11 12 0 22.5-4.5T283 201q17-17 17-41.5T283 118zM74 174q-7 7-15.5 7T44 174.5q-6-6.5-6-15t5.5-14.5q5.5-6 21.5-10 20-6 47-9-28 38-38 48zm76 67q-11-18-17-35h34q-6 17-17 35zm-23-73q8-10 23-30l23 30h-46zm129 6q-6 7-14.5 7t-15.5-7q-10-10-38-48 27 3 47 9 16 4 21.5 10t5.5 14.5q0 8.5-6 14.5z"/></svg>