<svg viewBox="0 0 300 310" xmlns="http://www.w3.org/2000/svg"><path d="M150 6q-41 0-75.5 20T20 80.5Q0 115 0 156t20 75.5Q40 266 74.5 286t75.5 20q41 0 75.5-20t54.5-54.5q20-34.5 20-75.5t-20-75.5Q260 46 225.5 26T150 6zm0 262q-31 0-56.5-15T53 212.5Q38 187 37.5 156t15-56.5q15.5-25.5 41-41T150 43q31 0 56.5 15.5t41 41q15.5 25.5 15 56.5T247 212.5q-15 25.5-40.5 41T150 269v-1zm0-137q-9 0-18 3 1-12 9.5-20t21.5-8h25V68h-25q-19 0-35 9.5T103 103q-9 16-9 34v50q0 24 16.5 40t39.5 16q23 0 39.5-16t16.5-39.5q0-23.5-16.5-40T150 131zm0 75q-8 0-13.5-5.5T131 187q0-8 5.5-13t13.5-5.5q8-.5 13.5 5T169 187q0 8-5.5 13.5T150 206z"/></svg>