<svg viewBox="0 0 300 310" xmlns="http://www.w3.org/2000/svg"><path d="M248 229q-2 0-4 1 12 7 23 17 5 4 8 7l-8 7q-10 8-21 13-16 6-33 6 5 8 9 16l2 6-12 3q-15 1-29 1-19-1-33-7-14 6-33 7-14 0-29-1l-12-2 2-7q4-8 9-16-23 0-45-13-11-6-17-13l8-7q11-10 23-17l-4-1q-18-6-37-26-9-10-15-18l10-5q13-5 27-8-24-4-31.5-22.5T1 103q1-14 4-24l9 5q12 6 22 15v-1q-17-27-7.5-46T60 18q12-8 21-12l3 8q2 11 3 23 1 16-2 32-3 19-12 36-6 38 3 70 7 24 23 43 11 13 24.5 22t26.5 13q13-4 26.5-13t24.5-22q16-19 23-43 9-32 3-70-9-17-12-36-3-16-2-32 1-12 3-23l3-8 10 5q12 7 22 16 14 12 20 24 10 20-7 47v1q10-9 22-15l9-5 3 12q2 14 2 27 0 18-6 31-7 19-31 23 14 3 27 8l10 5-7 9q-9 11-19 19-13 11-26 16zm-48-86q0-19-13-33 7-10 7-23 0-18-13-31t-31-13h-37v38h37q3 0 4.5 2t1.5 4.5q0 2.5-1.5 4T150 93h-25v38h25q5 0 8.5 3.5t4 9q.5 5.5-3.5 9t-9 3.5h-37v37h37q21 0 35.5-14.5T200 143z"/></svg>