<svg viewBox="0 0 300 310" xmlns="http://www.w3.org/2000/svg"><path d="M75 156V93h38v63H75zm56 0h38V93h-38v63zm1 111q-27-4-48.5-20T50 207q-12-24-12-51 0-31 15-56.5t40.5-41Q119 43 150 43q39 0 69 24t40 61q28 24 40 40l1-12q0-41-20-75.5T225.5 26Q191 6 150 6T74.5 26Q40 46 20 80.5T0 156q0 41 20 75.5T74.5 286q34.5 20 75.5 20h9q-19-17-27-39zm168-36q0 20-10 37.5T262.5 296Q245 306 225 306t-37.5-10Q170 286 160 268.5T150 231q0-15 8-29 6-10 17-22l2 7q4 7 6 12 5 7 9 7t8-8q2-5 5.5-20.5T212 154q5-14 13-23 5 5 18 16 27 24 38 37 19 24 19 47zm-57 7l-18-17-18 17q-7 8-7 18t7.5 17.5Q215 281 225 281t17.5-7.5Q250 266 250 256t-7-18zm-37-123l19-21h-37v50q4-14 18-29z"/></svg>