<svg viewBox="0 0 300 310" xmlns="http://www.w3.org/2000/svg"><path d="M220 176q-8-23-29-35.5t-45.5-8.5q-24.5 4-40.5 22t-17 43q-20 7-30.5 24.5t-7 37.5Q54 279 70 292.5t36 13.5h103q26 0 45-17.5t21-43q2-25.5-13.5-45.5T220 176zm-11 92H106q-8 0-13-5t-5-13q0-8 5-13.5t13-5.5h19v-31q0-13 8.5-22t20.5-9.5q12-.5 21.5 7.5t11.5 20l2 16h20q12 0 20 8.5t8 20q0 11.5-8 19.5t-20 8zm91-151l-5 11q-11 24-34 37v1q-11-8-23-12-9-15-22.5-26.5T185 111l-6-8q-18-22-45-30l1-6q4-15 14-28t24-21q19-12 41-12h18q-14 17-15.5 39t10 41q11.5 19 31.5 27.5t42 3.5zM25 247q0 6 1 12-12-7-19-19.5T0 212q0-18 10.5-32.5T38 159q0-18 9.5-33t25-23.5Q88 94 107 94t36 10q-29 4-50.5 24.5T65 177q-19 11-29.5 30T25 247z"/></svg>