<svg viewBox="0 0 300 310" xmlns="http://www.w3.org/2000/svg"><path d="M150 306q-41 0-75.5-20T20 231.5Q0 197 0 156t20-75.5Q40 46 74.5 26T150 6q41 0 75.5 20T280 80.5q20 34.5 20 75.5t-20 75.5Q260 266 225.5 286T150 306zm0-263q-31 1-56.5 16t-41 40.5Q37 125 37.5 156T53 212.5q15 25.5 40.5 41t56.5 15q31-.5 56.5-15.5t41-40.5q15.5-25.5 15-56.5T247 99.5q-15-25.5-40.5-41T150 43zm0 194q-17 0-31.5-8.5T96 206q-8-14-8-31v-38q0-17 8-31t22.5-22.5Q133 75 150 75t31.5 8.5Q196 92 204 106t8 31v38q1 17-7.5 31t-23 22.5Q167 237 150 237zm0-125q-10 0-17.5 7.5T125 137v38q0 10 7.5 17.5T150 200q10 0 17.5-7.5T175 175v-38q0-10-7.5-17.5T150 112z"/></svg>