<svg viewBox="0 0 300 310" xmlns="http://www.w3.org/2000/svg"><path d="M151 168q2 11 10.5 18t20.5 7q12 0 21.5-9t9.5-21q0-12-7.5-20.5T187 132V68q11-2 18.5-11t7-21q-.5-12-9.5-21t-21-9q-12 0-20.5 7T151 31H62q-2-11-11-18T30 6Q18 6 9 15T0 36q0 12 7 21t18 11v64q-11 2-18 10.5T0 163q0 12 9 21.5t21 9.5q12 0 21-7.5T62 169h89v-1zM63 68h87v63H63V68zm236 216q-3 8-8 13t-13 8q-14 4-25.5-3.5T238 281h-89q-2 13-14 20.5t-26 3.5q-7-3-12.5-8.5T89 284q-4-14 3-25.5t21-14.5v-38h37v37h88v-80q-1-8 2-14.5t9-10.5q12-8 24-6.5t19.5 10.5q7.5 9 7.5 20.5t-7 20q-7 8.5-18 10.5v51q13 3 20.5 14.5T299 284z"/></svg>