<svg viewBox="0 0 300 310" xmlns="http://www.w3.org/2000/svg"><path d="M195 43l10-36q19 5 32 18t19 32l-36 11q-3-10-9-16t-16-9zM37 226L1 236q5 19 18 32t32 18l11-36q-19-5-25-24zm66-36l27-27-98-97q-5-6-13-6T5.5 65.5Q0 71 0 79t6 13l97 98zm40-40l26-26L70 24q-6-6-14-6t-13 5.5Q38 29 38 37t5 13l100 100zm157-56q0-12-9-19.5T271 69q-9 1-15 8.5T250 95v31L136 11q-6-5-13.5-5t-13 5.5Q104 17 104 25t5 13l135 134q12 12 12 29t-12 28l-23 23q-16 17-40 17t-41-17L32 144q-6-6-13.5-6t-13 5.5Q0 149 0 157t5 13l109 108q13 14 30.5 21t36 7q18.5 0 36-7t31.5-21l15-15q15-15 16-18 10-11 15.5-25.5T300 190V93v1z"/></svg>