<svg viewBox="0 0 300 310" xmlns="http://www.w3.org/2000/svg"><path d="M263 206h-50v-50q-1-16-11.5-26.5T175 119h-50q-16-1-27 10t-11 27v12H38q-16 0-27 11T0 206v100h300v-63q0-15-11-26t-27-11h1zm-138-50h50v112h-50V156zm-87 50h50v62H38v-62zm225 62h-50v-25h50v25zM130 56l-18-18 32-32h18v87h-25V48l-7 8zm-55 87H0v-12q0-11 9-19 6-5 20-13 10-6 14-9 7-5 7-9.5t-3.5-8q-3.5-3.5-9-4t-9 3.5Q25 76 25 81H0q0-16 11-27t26.5-11Q53 43 64 54t11 27q0 13-10 23-6 7-20 14h30v25zm194 38h-44v-25h44q2 0 4-2t2-4.5q0-2.5-2-4t-4-2.5h-19v-25h13q2 1 4-1t2-4.5q0-2.5-2-4.5t-4-2h-38V81h38q12 0 21.5 9t9.5 22q0 8-4 15 10 9 10 22.5t-9 22.5q-9 9-22 9z"/></svg>