<svg viewBox="0 0 300 310" xmlns="http://www.w3.org/2000/svg"><path d="M263 156q0-21-15-35.5T212.5 106q-20.5 0-35.5 14.5T162.5 156q.5 21 15 35.5t35 14.5q20.5 0 35.5-14.5t15-35.5zm-50 19q-8 0-13.5-5.5T194 156q0-8 5.5-13.5t13-5.5q7.5 0 13 5.5T231 156q0 8-5.5 13.5T213 175zm50-119q0-21-15-35.5T212.5 6Q192 6 177 20.5T162.5 56q.5 21 15 35.5t35 14.5q20.5 0 35.5-14.5T263 56zm-50 19q-8 0-13.5-5.5T194 56q0-8 5.5-13.5t13-5.5q7.5 0 13 5.5T231 56q0 8-5.5 13.5T213 75zM88 206q20 0 35 14.5t15 35.5q0 21-15 35.5T87.5 306q-20.5 0-35-14.5T38 256q0-21 14.5-35.5T87 206h1zm-50-50q0 21 14.5 35.5t35 14.5q20.5 0 35.5-14.5t15-35.5q0-21-15-35.5T87.5 106q-20.5 0-35 14.5T38 156zm50-19q7 0 12.5 5.5T106 156q0 8-5.5 13.5t-13 5.5q-7.5 0-13-5.5T69 156q0-8 5.5-13.5T88 137zm75 119q-1 21 14 35.5t35.5 14.5q20.5 0 35.5-14.5t15-35.5q0-21-15-35.5T212.5 206q-20.5 0-35.5 14.5T162 256h1zm50-19q7 0 12.5 5.5T231 256q0 8-5.5 13.5t-13 5.5q-7.5 0-13-5.5T194 256q0-8 5.5-13.5T212 237h1zM88 106q-21 0-35.5-14.5T38 56q0-21 14.5-35.5T87.5 6Q108 6 123 20.5T138 56q0 21-15 35.5T87 106h1z"/></svg>