<svg viewBox="0 0 300 310" xmlns="http://www.w3.org/2000/svg"><path d="M300 245V50q0-10-4.5-19.5T283 15q-8-6-18.5-8T244 8q-45 12-94 12T56 8Q46 5 35.5 7T17 15Q9 21 4.5 30.5T0 50v195l12 5q21 8 43 13-29 5-55 5v38q42 0 91-12 31-7 59-18 28 11 59 18 49 12 91 12v-38q-26 0-55-5 22-5 43-13l12-5zM38 50q0-3 2-5t6-1q41 11 85 14v179q-49-3-93-18V50zm225 169q-45 15-94 18V58q44-3 85-14 4-1 6.5 1t2.5 5v169zm-69-80q22-2 44-8v39q-22 4-44 7v-38zm-131-8q21 6 43 8v38q-22-3-44-7v-39h1zm131-53q22-2 44-8v39q-22 4-44 7V78zm-88 0v38q-22-3-44-7V70q22 6 44 8z"/></svg>