<svg viewBox="0 0 300.002 310" xmlns="http://www.w3.org/2000/svg"><path d="M250 256q-8 0-17 2-5 2-15 5-13 6-18 5.5t-18-5.5h-1q-9-3-14-5-9-2-17-2-11 0-26 5l36-81 120 54 7-18q12-27 13-56.5T290 102q-11-28-31.5-49.5t-48-33.5Q183 7 153.5 6T96 16Q68 27 47 47.5T13 95l-7 17 120 53-44 99-1-1q-9-3-14-5-9-2-17-2t-17 2q-5 2-15 5-13 5-18 5v38q8 0 17-2 5-2 15-5 13-6 18-6t18 6h1q9 3 14 5 9 2 17 2t17-2q5-2 15-5 13-6 18-6t18 6h1q9 3 14 5 9 2 17 2t17-2q5-2 15-5 13-6 18-6t18 6h1q9 3 14 5 9 2 17 2v-38q-5 0-18-5h-1q-9-3-14-5-9-2-17-2zM110 51q21-8 43-7.5t42.5 9.5q20.5 9 36 25t23.5 37q13 34 4 68L57 94q19-30 53-43z"/></svg>