<svg viewBox="0 0 300 310" xmlns="http://www.w3.org/2000/svg"><path d="M50 156q16 0 27 11t11 26.5Q88 209 77 220t-27 11q-16 0-26.5-11T13 193.5Q13 178 23.5 167T50 156zm63 37q0 16 10.5 27t26.5 11q16 0 26.5-11t11-26.5Q188 178 177 167t-27-11q-16 0-26.5 11T113 194v-1zm39-112q15 0 26-11t11-26.5Q189 28 178 17T151.5 6Q136 6 125 17t-11 26.5Q114 59 125 70t27 11zm117 175h-38q-13 0-22 9t-9 22q0-13-9-22t-22-9h-38q-13 0-22 9t-9 22q0-13-9-22t-22-9H31q-13 0-22 9t-9 22v19h300v-19q0-13-9-22t-22-9zm-56-63q0 16 10.5 27t26.5 11q16 0 27-11t10.5-26.5q-.5-15.5-11-26.5T250 156q-16 0-26.5 11T213 194v-1zm-113-62v25q9-11 22-18t28-7q15 0 28 7t22 18v-25h1l92-80-24-28-82 71h-74L31 23 7 51l92 80h1z"/></svg>