<svg viewBox="0 0 300 310" xmlns="http://www.w3.org/2000/svg"><path d="M263 168q-16 0-26 11l-20-8q2-7 2-15 0-15-6.5-29T194 103q-12-10-27-13.5t-30-.5l-13-23q8-11 7.5-23.5T123 20q-8-10-20.5-13t-24 2Q67 14 61 25.5t-4 24q2 12.5 11 21T90 81l14 24q-18 16-22 39t7 43l-39 34q-11-4-23-1T7.5 233Q0 243 0 255t7 22.5q7 10.5 18.5 14t23 0Q60 288 67.5 278t7.5-22l-1-6 41-35q20 12 43.5 9t40.5-20l27 11q4 14 16 22t26.5 6q14.5-2 23.5-14t8-26.5q-1-14.5-12-24.5t-25-10zm-113 19q-13 0-22-9t-9-22q0-13 9-22t22-9q13 0 22 9t9 22q0 13-9 22t-22 9z"/></svg>