<svg viewBox="0 0 300 310" xmlns="http://www.w3.org/2000/svg"><path d="M144 243h-12l-24-43q-5-9-13.5-14T76 181H31q-13 0-22 9t-9 22v69h13v3q0 9 6 15.5t15 6.5q9 0 15.5-6.5T56 284v-3h38v3q0 9 6.5 15.5T116 306q9 0 15.5-6.5T137 284v-3h26v-19q0-8-5.5-13t-13.5-5v-1zm-106 0v-25h38l13 25H38zm212-112h-37V6h37l50 31-50 31v63zm50 94q0 23-16.5 39.5T244 281h-56v-38h56q8 0 13.5-5t5-13q-.5-8-5.5-13.5t-13-5.5h-75q-24 0-40-16.5t-16-40q0-23.5 16-40T169 93h19v38h-19q-8 0-13.5 5.5T150 150q0 8 5.5 13t13.5 5h75q23 0 39.5 16.5T300 225z"/></svg>