<svg viewBox="0 0 300 310" xmlns="http://www.w3.org/2000/svg"><path d="M175 175q0 8-5.5 13t-13.5 5q-8 0-13-5t-5-13q0-8 5-13.5t13-5.5q8 0 13.5 5.5T175 175zm-19 43q-8 0-13 5.5t-5 13.5q0 8 5 13.5t13 5.5q8 0 13.5-5.5T175 237q0-8-5.5-13.5T156 218zm63-62q-8 0-13.5 5.5T200 175q0 8 5.5 13t13.5 5q8 0 13.5-5t5.5-13q0-8-5.5-13.5T219 156zm0 62q-8 0-13.5 5.5T200 237q0 8 5.5 13.5T219 256q8 0 13.5-5.5T238 237q0-8-5.5-13.5T219 218zm81-157v245H0V100q0-18 13-31t31-13h25q18 0 31 13t13 31v6h25V50q0-18 12.5-31T181 6h64l55 55zm-125 45h88V81h-38V43h-44q-2 0-4 2t-2 5v56zm-100-6q0-3-2-5t-4-2H44q-3 0-4.5 2t-1.5 5v168h37V100zm188 168V143H113v125h150z"/></svg>