<svg viewBox="0 0 300 310" xmlns="http://www.w3.org/2000/svg"><path d="M38 287q0 8-5.5 13.5T19 306q-8 0-13.5-5.5T0 287q0-8 5.5-13t13.5-5.5q8-.5 13 5t5 13.5h1zm25-69q-11 0-18 7.5t-7 18q0 10.5 7 18t17.5 7.5q10.5 0 18-7.5t7-18q-.5-10.5-7.5-18T63 218zm237-81q0 22-11 41t-29.5 30Q241 219 219 219q-13-1-26-5-22 17-49 17-21 0-39.5-10T75 193q-21-1-38-12.5T10 151Q0 133 0 111.5t11-40Q22 53 40.5 42T81 31q9 0 18 2 13-13 29.5-20T163 6q26 0 48 15t32 39q26 8 41.5 29t15.5 48zm-37 0q-1-16-11-28t-26-15l-12-2-3-11q-5-17-18.5-27.5T162 43q-12 0-23 6t-18 16l-8 13-15-6q-8-3-17-3-18 0-31 12.5T37.5 112q.5 18 13 31T81 156l17-1 5 12q6 12 17 19.5t24 7.5q19 0 32-15l9-10 13 7q10 5 21 5 18 0 31-13t13-31z"/></svg>