<svg viewBox="0 0 300 310" xmlns="http://www.w3.org/2000/svg"><path d="M300 306h-37V6h37v300zM19 43q8 0 13.5-5T38 25q0-8-5.5-13.5T19 6q-8 0-13.5 5.5T0 25q0 8 5.5 13T19 43zm62 0q8 0 13.5-5t5.5-13q0-8-5.5-13.5T81 6q-8 0-13 5.5T63 25q0 8 5 13t13 5zm0 263q8 0 13.5-5.5T100 287q0-8-5.5-13.5T81 268q-8 0-13 5.5T63 287q0 8 5 13.5t13 5.5zM219 43q8 0 13.5-5t5.5-13q0-8-5.5-13.5T219 6q-8 0-13.5 5.5T200 25q0 8 5.5 13t13.5 5zm0 263q8 0 13.5-5.5T238 287q0-8-5.5-13.5T219 268q-8 0-13.5 5.5T200 287q0 8 5.5 13.5T219 306zm-200 0q8 0 13.5-5.5T38 287q0-8-5.5-13.5T19 268q-8 0-13.5 5.5T0 287q0 8 5.5 13.5T19 306zm0-63q8 0 13.5-5t5.5-13q0-8-5.5-13.5T19 206q-8 0-13.5 5.5T0 225q0 8 5.5 13t13.5 5zm0-68q8 0 13.5-5.5T38 156q0-8-5.5-13.5T19 137q-8 0-13.5 5.5T0 156q0 8 5.5 13.5T19 175zm0-69q8 0 13.5-5.5T38 87q0-8-5.5-13.5T19 68q-8 0-13.5 5.5T0 87q0 8 5.5 13.5T19 106zm131-63q8 0 13.5-5t5.5-13q0-8-5.5-13.5T150 6q-8 0-13.5 5.5T131 25q0 8 5.5 13t13.5 5zm0 263q8 0 13.5-5.5T169 287q0-8-5.5-13.5T150 268q-8 0-13.5 5.5T131 287q0 8 5.5 13.5T150 306zm0-63q8 0 13.5-5t5.5-13q0-8-5.5-13.5T150 206q-8 0-13.5 5.5T131 225q0 8 5.5 13t13.5 5zm0-68q8 0 13.5-5.5T169 156q0-8-5.5-13.5T150 137q-8 0-13.5 5.5T131 156q0 8 5.5 13.5T150 175zm0-69q8 0 13.5-5.5T169 87q0-8-5.5-13.5T150 68q-8 0-13.5 5.5T131 87q0 8 5.5 13.5T150 106zm88 50q0-8-5.5-13.5T219 137q-8 0-13.5 5.5T200 156q0 8 5.5 13.5T219 175q8 0 13.5-5.5T238 156zm-138 0q0-8-5.5-13.5T81 137q-8 0-13 5.5T63 156q0 8 5 13.5t13 5.5q8 0 13.5-5.5T100 156z"/></svg>