<svg viewBox="0 0 300 310" xmlns="http://www.w3.org/2000/svg"><path d="M238 162q0 8-5.5 13.5T219 181q-8 0-13.5-5.5T200 162q0-8 5.5-13.5T219 143q8 0 13.5 5.5T238 162zm25-62q0 8 5 13.5t13 5q8-.5 13.5-5.5t5.5-13q0-8-5.5-13.5T281 81q-8 0-13 5.5t-5 13.5zm-44 106q-8 0-13.5 5.5T200 225q0 8 5.5 13t13.5 5q8 0 13.5-5t5.5-13q0-8-5.5-13.5T219 206zm62-63q-8 0-13 5.5t-5 13.5q0 8 5 13.5t13 5.5q8 0 13.5-5.5T300 162q0-8-5.5-13.5T281 143zm0 63q-8 0-13.5 5.5t-5 13.5q.5 8 5.5 13t13 5q8 0 13.5-5t5.5-13q0-8-5.5-13.5T281 206zm0 62q-8 0-13 5.5t-5 13.5q0 8 5 13.5t13 5.5q8 0 13.5-5.5T300 287q0-8-5.5-13t-13.5-5v-1zm-62 0q-8 0-13.5 5.5T200 287q0 8 5.5 13.5T219 306q8 0 13.5-5.5t5-13.5q-.5-8-5.5-13.5t-13-4.5v-1zm-63-62q-8 0-13.5 5.5T137 225q0 8 5.5 13t13.5 5q8 0 13.5-5t5.5-13q0-8-5.5-13.5T156 206zm0 62q-8 0-13.5 5.5t-5 13.5q.5 8 5.5 13.5t13 5.5q8 0 13.5-5.5T175 287q0-8-5.5-13t-13.5-5v-1zM270 43L113 201l-25-25V52q-17-8-33-8-7-1-12 4.5T38 61v245H0V61q0-23 16-39T56 6q24 0 48 12h141l25 25zm-65 13h-80v80l80-80z"/></svg>