<svg viewBox="0 0 300 310" xmlns="http://www.w3.org/2000/svg"><path d="M300 87l-26-11q-3-19-14-35.5T231.5 15Q214 6 193 6t-40 11q-19 11-29.5 29.5T113 87v6q-1 16-11.5 27T75 131q-16 0-27-11T37 94H0v49q0 31 13 58.5t35.5 47Q71 268 100 276v30h38v-25q12 0 25-2v27h37v-40q34-18 54.5-50.5T275 144v-27l25-11V87zM39 159q17 9 36.5 9t36.5-10v4q0 20-13.5 34.5T65 212q-22-23-26-53zm198-16q0 28-13 51t-36 36q-23 13-51 13-16 0-31-5 20-11 32-31.5t12-44.5V87q0-18 13-31t31-13q18 0 30.5 13T237 87v56zm-25-56q0 8-5.5 13.5t-13 5.5q-7.5 0-13-5.5T175 87q0-8 5.5-13.5T194 68q8 0 13 5.5t5 13.5z"/></svg>