<svg viewBox="0 0 300 310" xmlns="http://www.w3.org/2000/svg"><path d="M283 120q-5-17-14-32 4-7 3-15t-7-14l-18-18q-6-5-14-6.5T218 37q-15-9-32-14-2-7-8.5-12T163 6h-25q-9 0-15.5 5T114 23q-17 5-32 14-7-4-15-2.5T53 41L35 59q-6 6-7 14t3 15q-9 15-14 32-7 2-12 8.5T0 144v24q0 9 5 15.5t12 8.5q5 17 14 32-4 7-3 15t7 14l18 18q6 6 14 7t15-3q15 9 32 14 2 7 8.5 12t15.5 5h25q8 0 14.5-5t8.5-12q17-5 32-14 7 4 15 3t14-7l18-18q6-6 7-14t-3-15q9-15 14-32 7-2 12-8.5t5-15.5v-25q0-8-5-14.5t-12-8.5zM150 256q-27 0-50-13.5T63.5 206Q50 183 50 156t13.5-50Q77 83 100 69.5T150 56q27 0 50 13.5t36.5 36.5q13.5 23 13.5 50t-13.5 50Q223 229 200 242.5T150 256zm0-169q-19 0-34.5 9.5t-25 25Q81 137 81 156t9.5 34.5q9.5 15.5 25 25T150 225q19 0 34.5-9.5t25-25Q219 175 219 156t-9.5-34.5q-9.5-15.5-25-25T150 87zm0 19q8 0 13.5 5.5T169 125q0 8-5.5 13.5t-13.5 5q-8-.5-13.5-5.5t-5.5-13q0-8 5.5-13.5T150 106zm-50 50q0-8 5.5-13.5T119 137q8 0 13 5.5t5.5 13.5q.5 8-5 13.5T119 175q-8 0-13.5-5.5T100 156zm50 50q-8 0-13.5-5.5T131 187q0-8 5.5-13t13.5-5.5q8-.5 13.5 5T169 187q0 8-5.5 13.5T150 206zm31-31q-8 0-13.5-5.5t-5-13.5q.5-8 5.5-13.5t13-5.5q8 0 13.5 5.5T200 156q0 8-5.5 13.5T181 175z"/></svg>