<svg viewBox="0 0 300 310" xmlns="http://www.w3.org/2000/svg"><path d="M244 184v-45l56-58-75-75-52 50h-49q-5-22-22-36T63 6q-17 0-31.5 8.5t-23 23Q0 52 0 69.5t10.5 33Q21 118 38 126v67H0v113h113V193H75v-63q15-3 27-13t18-24h41l45 46v45q-19 6-31.5 22.5T162 243q1 17 9 31.5t22.5 23Q208 306 225 306t31.5-8.5q14.5-8.5 23-23T288 243q0-20-12.5-36.5T244 184zM75 268H38v-37h37v37zM63 93q-11 1-18-6.5t-7-18q0-10.5 7-18T62.5 43q10.5 0 18 7.5t7.5 18q0 10.5-7.5 18T62 94l1-1zm162-35l23 23-23 23-23-23 23-23zm0 210q-10 0-17.5-7t-7.5-17.5q0-10.5 7.5-18T225 218q10 0 17.5 7.5t7.5 18q0 10.5-7.5 17.5t-17.5 7z"/></svg>