<svg viewBox="0 0 300 310" xmlns="http://www.w3.org/2000/svg"><path d="M150 306q-41 0-75.5-20T20 231.5Q0 197 0 156t20-75.5Q40 46 74.5 26T150 6q41 0 75.5 20T280 80.5q20 34.5 20 75.5t-20 75.5Q260 266 225.5 286T150 306zm0-263q-31 1-56.5 16t-41 40.5Q37 125 37.5 156T53 212.5q15 25.5 40.5 41t56.5 15q31-.5 56.5-15.5t41-40.5q15.5-25.5 15-56.5T247 99.5Q232 74 206.5 59T150 43zm0 38q-20 0-37.5 10T85 118.5Q75 136 75 156t10 37.5Q95 211 112.5 221t37.5 10q20 0 37.5-10t27.5-27.5q10-17.5 10-37.5t-10-37.5Q205 101 187.5 91T150 81zm39 63l-35 70-33-16 20-42h-28v-38h76v26z"/></svg>