<svg viewBox="0 0 300 310" xmlns="http://www.w3.org/2000/svg"><path d="M275 225q0-8-5.5-13.5T257 206q-7 0-11.5 3.5T239 218l-24-24 1-13 22-1v-22l-15-32q-17-34-24-44-16-24-40.5-37.5T106 31q-23 0-44 10L27 6 1 33l272 272 27-26-37-37q5-2 8.5-6.5T275 225zM106 68q19 0 35 9t27 26q10 14 23 40h-7l-3 18-90-91q8-2 15-2zm157 107q0-8 5-13.5t13-5.5q8 0 13.5 5.5T300 175q0 8-5.5 13t-13.5 5q-8 0-13-5t-5-13zm-110 43l37 37-8 1h-19v25H38v-51q0-7-5-13-35-40-33-80 0-28 15-54l28 28q-5 12-5 26-2 27 23 56 14 16 14 37v13h50v-25h28z"/></svg>