<svg viewBox="0 0 300 310" xmlns="http://www.w3.org/2000/svg"><path d="M175 156v150h-50V156q0-10 7.5-17.5T150 131q10 0 17.5 7.5T175 156zm125 0v150H200V156q0-21-14.5-35.5T150 106q-21 0-35.5 14.5T100 156v150H0V156q0-41 20-75.5T74.5 26Q109 6 150 6t75.5 20Q260 46 280 80.5t20 75.5zm-62 0v25h25v-25q-1-21-8-41l-22 13q5 14 4 28h1zM67 128l-22-13q-8 20-7 41v25h25v-25q0-14 4-28zm-4 140v-50H38v50h25zm68-197V45q-19 3-36 13T65 83l22 13q18-20 44-25zm82 25l22-13q-13-15-30-24.5T169 45v26q26 5 44 25zm50 172v-50h-25v50h25z"/></svg>