<svg viewBox="0 0 300 310" xmlns="http://www.w3.org/2000/svg"><path d="M219 307q-28 0-47-19t-19-46q0-27 19-46l87-87q4-4 4-9t-3.5-8.5q-3.5-3.5-9-3.5t-9.5 3L85 247q-14 15-35 15t-35.5-14.5Q0 233 0 212t14-35L128 65q3-4 3-9t-3.5-8.5q-3.5-3.5-9-3.5t-8.5 3l-84 82-26-26 84-82Q98 6 118.5 6T154 20.5Q169 35 169 56t-15 35L41 203q-4 4-4 9t3.5 8.5q3.5 3.5 9 3.5t9.5-3L215 65q14-15 35-15t35.5 14.5Q300 79 300 100t-14 35l-87 87q-8 8-8 19.5t8 19.5q8 8 20 8 18 0 32-6 9-3 22-13l6-3 21 31-5 3q-17 12-29 17-21 9-47 9z"/></svg>