<svg viewBox="0 0 300.5 310" xmlns="http://www.w3.org/2000/svg"><path d="M75.5 181q37 12 75 12t75-12q-7 25-25 42-21 20-50 20t-50-20q-18-17-25-42zm181-88q13 0 22.5-9t9.5-21q0-12-9-27-5-10-15-21l-8-9-8 9q-9 11-15 22-8 14-8 26t9 21.5q9 9.5 22 8.5zm35 13q-15 13-35 13 11 31 3 64T227 239q-24.5 23-57.5 28.5t-64-8Q74.5 246 56 218t-17.5-62q-1-30 13.5-55t39.5-40.5q25-15.5 54-17t55 12.5q3-19 14-36-35-17-74-14-37 3-69.5 24T19.5 83Q-.5 117 0 157t20.5 74.5Q40.5 266 75 286t75.5 20q37 1 69-16.5t53-47.5q21-30 26.5-66t-7.5-70zm-191-13q-13 0-22 12-8 10-12 26-3 13-3 25 18-17 27.5-22t19 0q9.5 5 28.5 22 0-12-4-25-4-16-12-26-9-12-22-12zm63 63q18-17 27.5-22t19 0q9.5 5 27.5 22 0-30-11-46t-26-16q-15 0-26 16.5t-12 45.5h1z"/></svg>