<svg viewBox="0 0 300 310" xmlns="http://www.w3.org/2000/svg"><path d="M149 99q10 0 19 3l6 3q-8-16-24-24t-34-5.5Q98 78 85 91t-15.5 31Q67 140 75 156t24 24l-3-5q-4-13-2.5-27t9.5-25q8-11 20-17.5t26-6.5zM38 131q0-22 10.5-41.5t29-31.5q18.5-12 41-13.5T161 52q20 9 33.5 26.5T211 118l39 14v-1q0-34-17-62.5T187.5 23Q159 6 125 6T62.5 23Q34 40 17 68.5T0 131q0 34 17 62.5T62.5 239Q91 256 125 256h1l-14-39q-21-3-38-15t-26.5-31Q38 152 38 131zm262 46l-140-51q-9-3-17.5-1t-15 8.5q-6.5 6.5-8.5 15t1 17.5l51 140 51-51 51 51 27-27-51-51 51-51zm-140-11l72 26-46 46-26-72z"/></svg>