<svg viewBox="0 0 300 310" xmlns="http://www.w3.org/2000/svg"><path d="M213 231q-31-11-63-13-32 2-63 13 6-21 23.5-35t39.5-14q22 0 39.5 14t22.5 35h1zm87-75q0 41-20 75.5T225.5 286Q191 306 150 306q-57-2-95-33-35-29-47.5-73t0-88Q20 68 55 39 93 8 150 6q41 0 75.5 20T280 80.5q20 34.5 20 75.5zm-37 0q-1-31-16-56.5T206.5 59Q181 44 150 44q-43 1-72 25-26 21-35 54t0 66q9 33 35 54 29 24 72 26 31-1 56.5-16t40.5-40.5q15-25.5 16-56.5zm-100-25q0 13 11 22 10 8 26 12 13 3 25 3-17-18-22-27.5t0-19q5-9.5 22-27.5-12-1-25 3-16 4-26 12-12 9-12 22h1zm-25 0q0-13-12-22-10-8-26-12-13-3-25-3 17 18 22 27.5t0 19Q92 150 75 168q12 0 25-3 16-4 26-12 11-9 11-22h1z"/></svg>