<svg viewBox="0 0 300 310" xmlns="http://www.w3.org/2000/svg"><path d="M225 112q0 13-9 22.5t-22 9q-13-.5-22-9.5t-9-22q0-13 9-22t22-9q13 0 22 9t9 22zm-17 115q-3 15-10 28-13 24-36 37.5T113 306h-13v-61q0-16-11.5-27.5T61 206H0v-13q0-26 13.5-49T51 108q13-7 28-10 34-47 76-68.5T256 6q19 0 31.5 13T300 50q-2 60-23.5 101.5T208 227zm55-177q0-3-2-4.5t-5-2.5q-51 2-85.5 20.5T106 124q-16 22-28 47 21 5 36.5 20.5T135 228q25-12 47-28 42-30 60.5-64.5T263 50zM20 240q-10 11-17 51l-3 15 15-3q40-7 50-17t10-23q0-13-9.5-22.5T43 231q-13 0-23 9z"/></svg>