<svg viewBox="0 0 300.0016 310" xmlns="http://www.w3.org/2000/svg"><path d="M269 37q-21-20-48.5-27.5t-55 0Q138 17 118 37q-24 25-36 80-6 31-7 59v9l10 10-43 43q-7-7-17-7t-17.5 7.5Q0 246 0 256t7.5 17.5Q15 281 25 281q0 10 7.5 17.5T50 306q10 0 17.5-7.5T75 281q0-10-7-17l43-43 10 10h9q27-1 60-8l20-4-6-19q-2-8-2-16 0-22 15.5-37.5T255 131q10 0 19 4l24 9 2-26q1-22-7-43.5T269 37zM164 184v6q-14 2-28 3l-23-23q2-29 8-55 9-37 23-50.5T175.5 46q17.5-5 35.5-.5T242 63q13 13 18 31-26-2-48 10t-35 33.5Q164 159 164 184z"/></svg>