<svg viewBox="0 0 300.0148 310" xmlns="http://www.w3.org/2000/svg"><path d="M262.007 44q-26-27-64-35t-77.5 4.5Q81.007 26 51.007 57q-22 22-35.5 49.5T.007 164q-2 30 7.5 57t30.5 47q18 19 42.5 28.5t50.5 9.5q32 0 63-13t55-38q23-22 36-49.5t15-57.5q2-30-7.5-57t-30.5-47zm0 101q-1 23-11.5 44.5t-27.5 39.5q-24 23-53.5 33t-57.5 5q-28-5-48-25-14-14-21-33.5t-5.5-42q1.5-22.5 12-44t27.5-39.5q24-23 53.5-33t57.5-5q28 5 48 25 14 14 21 33.5t5 41.5zm-41-60q13 12 16 27.5t-6 24.5q-9 9-24.5 6t-28-15.5q-12.5-12.5-15.5-28t6-24.5q9-9 24.5-6t27.5 16z"/></svg>