<svg viewBox="0 0 300 310" xmlns="http://www.w3.org/2000/svg"><path d="M164 181h36v7l-27 16 11 34-6 5-28-22-27 22-6-5 10-34-27-16v-7h36l10-37h8l10 37zm77-54q21 30 21 66 0 31-15 57t-41 41q-26 15-56.5 15t-56-15Q68 276 53 250t-15-57q0-36 21-66L0 6h116l34 69 34-69h116l-59 121zm-33-84l-22 44q14 5 26 13l28-57h-32zM60 43l28 57q12-8 26-13L93 43H60zm165 150q0-20-10-37t-27.5-27.5Q170 118 150 118t-37.5 10.5Q95 139 85 156t-10 37.5Q75 214 85 231t27.5 27q17.5 10 37.5 10t37.5-10q17.5-10 27.5-27t10-38z"/></svg>