<svg viewBox="0 0 301 310" xmlns="http://www.w3.org/2000/svg"><path d="M301 46q-6-1-13-3l-30-6q-9-9-20.5-13.5T213 19q-13 0-24.5 4.5T168 37q-24 4-42 9 2 10 9 17t16 10v8q-7 1-13 4-13-6-27.5-3T85 94q-5-1-9-1-19 0-33.5 13T26 138q-12 6-18.5 17.5T1 181q0 14 6.5 25.5T26 224q1 12 7.5 22T51 262v44h62v-26q13 2 25-3 9 4 19 4h6v25h63v-44q10-6 16.5-16t7.5-22q11-6 17.5-16.5T275 185q-24 21-62 21-1 3 0 11v2q0 5-3.5 8.5T201 231q-4 0-7-2l-17-10-9 18q-4 7-11 7-4 0-8-3l-11-9-11 9q-4 3-8 3-7 0-11-7l-9-18-17 10q-6 4-12.5 0T63 219l5-22-20-4q-4-1-7-4t-3-8q0-5 3-8t7-4l20-4-5-21q0-7 6.5-11t12.5 0l17 10 9-18q4-6 11-6 4 0 8 2l11 9 13-10v8q0 24 17 38.5t45.5 14.5q28.5 0 45.5-14.5t17-38.5V81l-1-8q9-3 16-10t10-17zm-63 82q0 6-3 9-6 7-22 6.5t-22-6.5q-3-3-3-9V81q0-10 7.5-17.5T213 56q10 0 17.5 7.5T238 81v47z"/></svg>