<svg viewBox="0 0 300 310" xmlns="http://www.w3.org/2000/svg"><path d="M275 167q0-26-19-58-15-27-41-56-21-23-40-38-11-9-25-9t-25 9q-22 17-43 41-25 28-40 54-17 32-17 56 0 21 9 39t25 28.5q16 10.5 35 10t37-9.5q-6 14-11 20-7 8-20 11t-38 3v38h176v-38q-25 0-38-3t-20-11q-5-6-11-20 18 9 37.5 9t35-10q15.5-10 24.5-27.5t9-38.5zm-110 16l-15-21-15 20q-8 10-18.5 16.5T94 206q-15 0-23-12t-8.5-27.5Q62 151 75 128.5T108 83q20-23 40-39 2-1 4 0 20 16 40 39t32.5 45.5q12.5 22.5 13 38.5t-8.5 27.5q-9 11.5-22 11t-23.5-7Q173 192 165 183z"/></svg>