<svg viewBox="0 0 300.0066 310" xmlns="http://www.w3.org/2000/svg"><path d="M213 306q-12 0-31-6-10-3-15-5-9-2-17-2t-17 2q-5 2-15 5-19 6-30 6.5t-20.5-3Q58 300 51 292.5t-10.5-17Q37 266 38 256q1-30 16-55.5T94.5 160q25.5-15 55.5-17 30 2 55.5 17t40.5 40.5q15 25.5 17 55.5 0 10-3.5 19.5t-10.5 17q-7 7.5-16.5 11T212 306h1zm-63-50q23 0 44 8l2 1q14 4 20 4 10-1 9-13-1-20-11.5-36.5t-27-27Q170 182 150 181q-20 1-36.5 11.5t-27 27Q76 236 75 256q-1 12 9 13 6 0 20-4l2-1q21-8 44-8zM273 69q-13-2-23 10t-12 33q-2 24 6 39t20 16.5q12 1.5 22.5-11T300 119q2-21-6-35t-21-15zM0 119q3 25 13.5 37.5t22.5 11Q48 166 56 151t6-39q-2-21-12-33T27 68.5Q14 70 6 84t-6 35zm75-62q3 25 13 37.5t22.5 11q12.5-1.5 20-16.5t5.5-40q-2-21-12-32.5t-23-10Q88 8 80.5 21.5T75 57zM198 6q-13-1-23 10.5T163 49q-2 25 6 40t20 16.5q12 1.5 22.5-11T225 57q2-22-5.5-35.5T199 6h-1z"/></svg>