<svg viewBox="0 0 300 310" xmlns="http://www.w3.org/2000/svg"><path d="M244 306q-16 0-30-9-15 9-33 9t-33-9q-19 10-40.5 8.5T69 292q-6 2-13 2-23-1-39.5-17.5T0 237q0-23 16.5-39.5T57 181q13-15 31-21t37-3q19 3 34 15 11-3 22-4 16 1 30 7.5t24 18.5h9q23 0 39.5 16t16.5 39.5q0 23.5-16.5 40T244 306zm-27-59l13 15q5 6 13.5 6.5t14-5Q263 258 263 250q0-5-2.5-9.5t-7-7q-4.5-2.5-9-2.5t-9.5 2l-17 9-8-18q-6-12-19.5-16t-25.5 3l-14 8-10-12q-6-7-14-10.5t-17-3q-9 .5-16.5 5T81 211l-7 11-13-3-5-1q-8 0-13.5 5.5T37 237q0 11 9 16.5t18 .5l13-6 9 10q10 10 24.5 10.5T136 260l13-10 12 10q8 9 20.5 8.5T202 260l15-13zM60 131q-10-1-16.5-9t-6-17.5q.5-9.5 8-16.5T62 81q5 0 10 2l20 7 9-18q3-11 12-19t21-9q12-1 22 4.5T171 65l10 16q15-10 32-12 7 0 13 4t9 10l6 13q14 0 27 5 16 7 28 19 4-10 4-20 0-16-10.5-28.5T263 56q-12-15-30.5-21.5T195 33q-12-14-29-21t-35.5-5.5Q112 8 96.5 18T72 44q-22-3-41.5 8.5T3.5 85Q-4 106 4 127.5T31 160q7-2 15-3l14-26zm53 0q27 0 51 14 21-4 42.5 2t38.5 22q15 0 29.5 5.5T300 191v-4q0-18-9.5-34t-25-25q-15.5-9-34.5-10-7 0-15 2-12-14-30-21t-37-5.5Q130 95 114 105t-26 26l-2 4q13-4 26-4h1z"/></svg>