<svg viewBox="0 0 300 310" xmlns="http://www.w3.org/2000/svg"><path d="M263 181l1-1q9-6 10.5-17.5t-5-20.5q-6.5-9-18-10.5T231 136q-11 9-18 24-5 10-7 21-2-11-6-21-7-15-18-24-10-6-21-4.5T143 142q-7 9-5.5 20.5T149 180l1 1q-16 3-26.5 15T113 225v43H38V112q0-2 1.5-4t4.5-2h125q2 0 12.5 3.5T197 117q8 6 16 16v-21q0-18-13-30.5T169 69h-24l31-31-27-27-24 25V6H88v30L63 11 37 38l30 30H44q-18 0-31 13T0 112v194h300v-81q0-17-10.5-29T263 181zm-75 87h-38v-43q0-3 2-5t4-2h32v50zm75 0h-38v-50h31q3 0 5 2t2 5v43z"/></svg>