<svg viewBox="0 0 300 310" xmlns="http://www.w3.org/2000/svg"><path d="M150 6q-34 0-62.5 17T42 68.5Q25 97 25 131q0 41 29 84 20 30 54 59 18 16 32 25l10 6 10-6q15-10 32-25 34-29 54-59 29-43 29-84 0-34-17-62.5T212.5 23Q184 6 150 6zm0 254q-31-24-53-50-35-42-35-79 1-24 12.5-44T106 55q20-12 44-12t44 12q20 12 32 32t12 44q0 37-35 79-22 26-53 50zm25-141q10-10 31-12 10-2 19-1v10q0 11-3 20-3 13-10 20-9 10-30 12-11 1-19 0v-9q0-11 2-21 3-12 10-19zm-50 0q10 9 12 30 1 11 0 19h-9q-11 0-21-2-12-3-19-10-10-10-12-31-2-10-1-19h10q11 0 20 3 13 3 20 10z"/></svg>