<svg viewBox="0 0 300 310" xmlns="http://www.w3.org/2000/svg"><path d="M125 106q0-10 7.5-17.5T150 81q10 0 17.5 7.5T175 106q0 10-7.5 17.5T150 131q-10 0-17.5-7.5T125 106zm-25 201L0 276V156q0-10 4-18.5T15.5 123q7.5-6 16.5-9t18-1q-2-29 12-55t39.5-40q25.5-14 55-12t53 19.5Q233 43 243.5 70t4.5 56l21 7q14 4 22.5 15.5T300 175v132l-106-25-94 25zm6-157l44 43 44-43q12-12 16.5-28t0-32Q206 74 194 62t-28-16.5q-16-4.5-32 0T106 62Q94 74 89.5 90t0 32q4.5 16 16.5 28zm-68 98l62 20 94-25 69 17v-85q-1-5-5-6l-24-9q-6 9-13 17l-71 69-71-69q-9-9-15-20l-17-6q-3-2-6.5 0t-3.5 5l1 92z"/></svg>