<svg viewBox="0 0 300 310" xmlns="http://www.w3.org/2000/svg"><path d="M288 228q0 21-11 39t-28.5 28.5Q231 306 209 306h-13q21-15 27-40 12-4 19.5-14.5T250 228q0-28-15-56.5t-38.5-47Q173 106 150 106t-46.5 18.5Q80 143 65 171.5T50 228q0 13 7.5 23.5T77 266q6 25 27 40H91q-22 0-39.5-10.5t-28-28.5Q13 249 13 228q-1-32 15-66t42-58q28-26 59-33-17-13-28-27Q87 25 87 6h126q0 19-14 38-11 14-28 27 31 7 59 33 26 24 41.5 58t15.5 66h1zm-88 22q0-15-8-26.5T171 207l-28-11q-5-3-6-9 0-2 2-4t5-2h12q3 0 5 2t2 4v6h37v-6q0-14-9-26t-22-16v-14h-38v14q-13 4-22 16t-9 26.5q0 14.5 8 26t21 16.5l28 11q5 3 6 9 0 2-2 4t-5 2h-12q-3 0-5-2t-1-4v-7h-38v7q0 14 9 26t22 16v14h38v-14q13-4 22-16t9-26z"/></svg>