<svg viewBox="0 0 300 310" xmlns="http://www.w3.org/2000/svg"><path d="M261 159q-5-39-28-55-15-11-32.5-11t-31.5 8v-8q0-30-11-51-9-18-26-28-15-8-33-8T66 17Q42 35 38 78q-17 5-27.5 20T0 131q0 24 20 54 11 16 23 28l13 13 14-13q12-12 23-28 19-30 19-54 1-18-9.5-32.5T76 78q1-15 7-24.5t17-9.5q11 0 19 8 12 12 12 41v213h38V181q0-29 12-42 8-8 19-8 19 0 23 29-16 6-26 20.5T187 212q1 24 20 54 11 16 23 28l14 14 13-14q12-12 23-28 20-30 20-54 0-18-11-33t-28-20zM56 171q-18-25-18-40 0-8 5.5-13.5t13-5.5q7.5 0 13 5.5T75 131q0 15-19 40zm188 81q-19-25-19-40 0-8 5.5-13t13.5-5.5q8-.5 13.5 5T263 212q0 16-19 40z"/></svg>