<svg viewBox="0 0 300 310" xmlns="http://www.w3.org/2000/svg"><path d="M150 18q-32 0-61 13.5t-50.5 37Q17 92 7.5 123t-6 62.5q3.5 31.5 20 59T64 290l5 3h162l5-3q26-18 42.5-45.5t20-59q3.5-31.5-6-62.5t-31-54.5Q240 45 211 31.5T150 19v-1zm69 238H81q-28-22-38-56.5t1.5-68Q56 98 85 77t65-21q36 0 65 21t40.5 54.5q11.5 33.5 1.5 68T219 256zm-44-87q0 11-7.5 18t-17.5 7q-10 0-17.5-7t-8-17q-.5-10 6.5-17.5t17-8.5l45-45 26 26-44 44zm-54 40l-21 31q-26-17-34.5-46.5t3.5-58Q81 107 107.5 92T165 82l-52 54q-7 8-10.5 18t-2 20.5q1.5 10.5 7 19.5t13.5 15zm117-41q-1 22-10.5 41T200 240l-21-31q2-1 30-29l27-27q1 7 2 15z"/></svg>