<svg viewBox="0 0 300 310" xmlns="http://www.w3.org/2000/svg"><path d="M285 210l15-9q-7-18-20-32t-30-22q0-60-10-93-13-48-47-48-29 0-45 31-13 25-20 72l-8-2q-20-3-39.5 1.5T44 125l6 18q43-3 70 14-7 17-17 31-14 18-35 28-20 9-35 22-10 9-16 18H0v37h15l7 4q5 3 13 5 14 4 34 4 73 0 120-35-4-24-15-37-37 34-105 35-7 0-13-1 11-11 27-18 43-21 64-64 20 10 30 17 15 11 23 25 11 17 14 42l17 5q10-21 13-42t-2-39l1-2q21 4 42 18zm-122-77q6-54 17-77 7-12 13-12 1 0 3 2 4 4 7 13 4 13 6 32 3 24 3 59l-2.5 3.5q-2.5 3.5-7.5 6t-13 2.5q-8 0-15-5-10-8-11-24z"/></svg>