<svg viewBox="0 0 300 310" xmlns="http://www.w3.org/2000/svg"><path d="M300 100V6l-41 31q-13-6-27.5-6T204 37L163 6v94q0 9 2 17-39 12-66 37-22 22-35 51-11 25-13 51-13-11-13-25.5t3-27.5q3-7 9-20 6-12 8-20 4-12 4-26 0-25-17-40.5T0 81v37q8 0 15 3 10 5 10 16 0 8-2 15-2 5-7 15-7 15-11 26-5 17-5 38t12 38.5q12 17.5 31 27t39 9.5h218v-38h-25V153q12-10 18.5-24t6.5-29zm-69-32q13 0 22.5 9.5T263 100q0 13-9.5 22t-22.5 9q-13 0-22-9t-9-22q0-13 9-22.5t22-9.5zm7 200h-25q0-20-10.5-37T175 203.5Q158 193 138 193v38q15 0 26 11t11 26H87q1-17 6-35 9-28 28-47 24-26 64-35 20 17 46 17h6v100h1z"/></svg>