<svg viewBox="0 0 300 310" xmlns="http://www.w3.org/2000/svg"><path d="M188 153q12-7 18-13l25 28q-5 5-12 10-16 10-32 15v-40h1zM69 168q5 5 12 10 16 10 31 15v-40q-11-7-18-13l-25 28zm152 104q-7 9-19 9h-27v-38h12v13q0 5 4 8.5t9 3.5q5 0 8.5-3.5t3.5-8.5v-13q0-10-7-17.5t-18-7.5h-25v-62q0-5-3.5-9t-8.5-4q-5 0-9 4t-4 9v66q-5 3-8.5 9t-3.5 12v63h77q11 0 21.5-5t17.5-14l11-13q3-4 2.5-9.5T250 256q-4-3-9-2.5t-9 4.5l-11 14zM150 6q-41 0-75.5 20T20 80.5Q0 115 0 156q0 32 13 60.5T48.5 266Q71 287 100 297v-40q-28-14-45-41t-17.5-59q-.5-32 15-57.5t41-41Q119 43 150 43t56.5 15.5q25.5 15.5 41 41T262 156q1 36-21 66l29 23q15-19 22.5-41.5T300 156q0-41-20-75.5T225.5 26Q191 6 150 6zm38 62q-11 0-18 7.5t-7 18q0 10.5 7 17.5t17.5 7q10.5 0 18-7t7.5-17.5q0-10.5-7.5-18T188 68zm-50 25q0-10-7.5-17.5t-18-7.5Q102 68 95 75.5t-7 18q0 10.5 7 17.5t17.5 7q10.5 0 18-7t7.5-18z"/></svg>