<svg viewBox="0 0 300 310" xmlns="http://www.w3.org/2000/svg"><path d="M256 6H63Q42 6 27.5 20.5T13 56v200q0 21 14.5 35.5T63 306h225V37q0-13-9.5-22T256 6zm-6 200H125V43h125v163zM63 43h25v163H63q-7 0-13 2V56q0-5 3.5-9t9.5-4zm0 225q-6 0-9.5-3.5T50 256q0-5 3.5-9t9.5-4h187v26H63v-1zm87-143q0 13 9 22t22 9q3 0 5 2t2 4.5q0 2.5-2 4t-5 1.5h-18v25h18q13 0 22.5-9t9.5-22q0-5-2-11 6-4 10-11t4-15q0-13-9-22.5T194 93q-3 0-4.5-1.5t-1.5-4q0-2.5 1.5-4.5t4.5-2h19V56h-19q-13 0-22 9t-9 22q0 6 2 11-7 5-11 12t-4 15zm50 0q0 2-2 4t-4 2h-13q-2 0-4-2t-2-4.5q0-2.5 2-4.5t4-2h13q2 0 4 2t2 5z"/></svg>