<svg viewBox="0 0 300 310" xmlns="http://www.w3.org/2000/svg"><path d="M256 306H0v-38h256q3 0 5-1.5t2-4.5V6h37v256q0 18-13 31t-31 13zM0 87q0 8 5.5 13.5T19 106q8 0 13.5-5.5T38 87q0-8-5.5-13.5T19 68q-8 0-13.5 5.5T0 87zm0 138q0 8 5.5 13t13.5 5q8 0 13.5-5t5.5-13q0-8-5.5-13.5T19 206q-8 0-13.5 5.5T0 225zM0 25q0 8 5.5 13T19 43q8 0 13.5-5T38 25q0-8-5.5-13.5T19 6q-8 0-13.5 5.5T0 25zm63 0q0 8 5 13t13 5q8 0 13.5-5t5.5-13q0-8-5.5-13.5T81 6q-8 0-13 5.5T63 25zm68 0q0 8 5.5 13t13.5 5q8 0 13.5-5t5.5-13q0-8-5.5-13.5T150 6q-8 0-13.5 5.5T131 25zm69 0q0 8 5.5 13t13.5 5q8 0 13.5-5t5.5-13q0-8-5.5-13.5T219 6q-8 0-13.5 5.5T200 25zM0 156q0 8 5.5 13.5T19 175q8 0 13.5-5.5T38 156q0-8-5.5-13.5T19 137q-8 0-13.5 5.5T0 156z"/></svg>