<svg viewBox="0 0 300 310" xmlns="http://www.w3.org/2000/svg"><path d="M300 50q0-18-13-31T256 6H44Q26 6 13 19T0 50v37q0 14 8 25-8 11-8 25v38q0 14 8 25-8 11-8 25v81h300v-81q0-14-8-25 8-11 8-25v-38q0-14-8-25 8-11 8-25V50zM38 50q0-3 1.5-5t4.5-2h19v25h37V43h25v25h38V43h93q3 0 5 2t2 5v37q0 3-2 5t-5 1H44q-3 1-4.5-1T38 87V50zm225 87v38q0 2-2 4t-5 2H44q-3 0-4.5-2t-1.5-4v-38q0-2 1.5-4t4.5-2h19v25h37v-25h25v25h38v-25h93q3 0 5 2t2 4zm0 131H38v-43q0-3 1.5-5t4.5-2h19v25h37v-25h25v25h38v-25h93q3 0 5 2t2 5v43z"/></svg>