<svg viewBox="0 0 300 310" xmlns="http://www.w3.org/2000/svg"><path d="M300 100q0-27-14-49.5T248 16q-24-12-50.5-9.5T150 25Q127 7 98 6T44.5 20Q20 35 8 61.5t-7 55q5 28.5 25.5 49T75 192v51H50v38h25v25h38v-25h25v-38h-25v-51q20-5 37-17 17 12 38 17v51h-25v38h25v25h37v-25h25v-38h-25v-51q33-7 54-33t21-59zm-262 0q-1-16 7-29.5T67 50q14-7 29.5-6.5T125 53q-12 22-12 47t12 46q-13 9-28.5 10T67 149.5q-14-7.5-22-21T37 100h1zm112 0q0-24 16.5-40t40-16.5q23.5-.5 39.5 16t16.5 40q.5 23.5-16 40t-40 16.5q-23.5 0-40-16.5T150 100z"/></svg>