<svg viewBox="0 0 300.0015 310" xmlns="http://www.w3.org/2000/svg"><path d="M67 213q-4 7-5 16 0 16 13 27 7 7 23 14 7 3 14 8l-4 7 32 20q9-12 9.5-27.5T138 251q-8-7-24-15-7-3-13-7 4-6 8-13 19-6 34.5-19t24.5-32q12 24 36 36-6 14-3 28 4 13 13 22.5t21 13.5q10 6 13 8.5t2.5 5q-.5 2.5-4.5 8.5l33 18q11-20 8-36-3-13-14-23-7-6-20-13-15-9-16-13t8-19q24-10 39.5-41T300 95q1-15-4.5-29.5t-16.5-25Q268 30 254 24t-29.5-6q-15.5 0-30 6.5T169 42q-13-17-33-26.5T94 6Q69 5 47.5 17t-34 32.5Q1 70 .5 94t8 48.5q8.5 24.5 24 43T67 213zM225 56q16-1 27.5 11t11 29q-.5 17-6.5 34t-15 28q-9 11-17 10.5t-17-11q-9-10.5-14.5-27.5T187 96q-1-17 10.5-29T225 56zM94 43q22 0 38.5 15T150 95q0 18-8 38.5t-21 34Q108 181 94 181t-27-13.5q-13-13.5-21-34T38 95q1-22 17.5-37T94 44v-1z"/></svg>