<svg viewBox="0 0 300 310" xmlns="http://www.w3.org/2000/svg"><path d="M256 6H44Q26 6 13 19T0 50v206h84l45 38q9 8 21 8t20-8l47-38h83V50q0-18-13-31T256 6zm7 212h-60l-53 44-52-44H38V50q0-3 1.5-5t4.5-2h212q3 0 5 2t2 5v168zM125 114q0 3 2 5t5 2l41 7q12 2 19.5 11.5t7.5 22q0 12.5-9.5 22T167 193h-4v13h-25v-13q-16 0-27-11t-11-26h25q0 5 3.5 8.5t9.5 3.5h29q3 0 5.5-2t2.5-5q0-3-2-5.5t-4-2.5l-42-7q-12-2-19.5-11t-7.5-22q0-13 9.5-22.5T133 81h5V68h25v13q15 0 26 11t11 26h-25q0-5-3.5-8.5T163 106h-30q-3 0-5.5 2.5T125 114z"/></svg>