<svg viewBox="0 0 300 310" xmlns="http://www.w3.org/2000/svg"><path d="M95 210l23 29-45 36-12-8q-29-20-45-51T0 150q0-39 19.5-72T72 25.5Q105 6 144 6t72 19.5Q249 45 268.5 78t19.5 72l-1 3q-17-14-38-19-4-25-19-46t-37.5-33Q170 43 144 43q-29 0-53.5 14.5T52 96.5Q38 121 38 150q0 22 9 42.5T72 228l23-18zm74-60q0-9-7-17V68h-37v65q-6 8-6 17.5t7 17q7 7.5 17.5 7.5t18-7.5Q169 160 169 150zm131 81q0 20-10 37.5T262.5 296Q245 306 225 306t-37.5-10Q170 286 160 268.5T150 231q0-20 10-37.5t27.5-27.5q17.5-10 37.5-10t37.5 10q17.5 10 27.5 27.5t10 37.5zm-40-2q-3-5-7.5-7.5T242 219h-25l23-36-21-14-31 48q-3 10 3.5 18.5T208 244h25l-24 35 20 14 30-43q3-5 3.5-10.5T260 229z"/></svg>