<svg viewBox="0 0 300 310" xmlns="http://www.w3.org/2000/svg"><path d="M194 106q8 0 13.5 5.5T213 125v50q-1 8-6 13.5t-13 5.5q-8 0-13.5-5.5T175 175v-50q0-8 5.5-13.5T194 106zm50 0q-8 0-13.5 5.5T225 125v50q0 8 5.5 13.5T244 194q8 0 13.5-5.5T263 175v-50q-1-8-6-13.5t-13-5.5zm-19 108v54H114l-44-41 48-49q7-7 7-18t-7.5-18q-7.5-7-18-7T81 142l-43 45q-13 13-13 31t13 31l61 57h164v-92q-10 5-19.5 4.5T225 214zM90 83l21-41-13-26q-4-7-11.5-9t-14 1.5Q66 12 63.5 19t.5 14l26 50zm45 41l1 1 1 1 48-93q4-7 1.5-14T177 8.5Q170 5 163 7t-11 9l-47 94q18 2 30 14zm59-18q8 0 13.5 5.5T213 125v50q-1 8-6 13.5t-13 5.5q-8 0-13.5-5.5T175 175v-50q0-8 5.5-13.5T194 106zm50 0q-8 0-13.5 5.5T225 125v50q0 8 5.5 13.5T244 194q8 0 13.5-5.5T263 175v-50q-1-8-6-13.5t-13-5.5zm-19 108v54H114l-44-41 48-49q7-7 7-18t-7.5-18q-7.5-7-18-7T81 142l-43 45q-13 13-13 31t13 31l61 57h164v-92q-10 5-19.5 4.5T225 214zM90 83l21-41-13-26q-4-7-11.5-9t-14 1.5Q66 12 63.5 19t.5 14l26 50zm45 41l1 1 1 1 48-93q4-7 1.5-14T177 8.5Q170 5 163 7t-11 9l-47 94q18 2 30 14z"/></svg>