<svg viewBox="0 0 300 310" xmlns="http://www.w3.org/2000/svg"><path d="M113 206q0-15 5.5-29.5T133 153q9-9 17-9t17 9q9 9 15 23.5t6 30q0 15.5-11 26.5t-27 11q-16 0-27-11t-11-27h1zm162-16q1-20-5.5-38.5T250 117q-18-24-27-54-7-25-27-41T150 6q-26 0-55.5 24T46 93q-21 45-21 97 0 31 17 58t45.5 42.5Q116 306 150 306t62.5-15.5Q241 275 258 248t17-58zM187 73q11 37 33 67 9 10 13.5 23t3.5 27q0 21-11.5 39T194 258q-20 11-44 10.5t-44-11Q86 247 74.5 229T63 190q0-34 10-63 8-26 24-46 13-18 28-28t25-10q13 1 23.5 9T187 73z"/></svg>