<svg viewBox="0 0 300 310" xmlns="http://www.w3.org/2000/svg"><path d="M169 160l130 118-25 28-124-112L26 306 1 278l130-118V6h38v154zm50-117q8 0 13.5-5t5.5-13q0-8-5.5-13.5T219 6q-8 0-13.5 5.5T200 25q0 8 5.5 13t13.5 5zm62 63q8 0 13.5-5.5T300 87q0-8-5.5-13.5T281 68q-8 0-13 5.5T263 87q0 8 5 13.5t13 5.5zM119 256q-8 0-13.5 5.5T100 275q0 8 5.5 13t13.5 5q8 0 13.5-5t5.5-13q0-8-5.5-13.5T119 256zm75 12q-8 0-13.5 5.5T175 287q0 8 5.5 13.5T194 306q8 0 13.5-5.5T213 287q0-8-5.5-13.5T194 268zM81 106q8 0 13.5-5.5T100 87q0-8-5.5-13.5T81 68q-8 0-13 5.5T63 87q0 8 5 13.5t13 5.5zM19 43q8 0 13.5-5T38 25q0-8-5.5-13.5T19 6q-8 0-13.5 5.5T0 25q0 8 5.5 13T19 43zm6 132q0 8 5.5 13t13.5 5q8 0 13.5-5t5.5-13q0-8-5.5-13.5T44 156q-8 0-13.5 5.5T25 175zm200-13q0 8 5.5 13.5T244 181q8 0 13.5-5.5T263 162q0-8-5.5-13.5T244 143q-8 0-13.5 5.5T225 162z"/></svg>