<svg viewBox="0 0 300 310" xmlns="http://www.w3.org/2000/svg"><path d="M103 218H81q-23 0-39.5-16T25 162.5q0-23.5 16.5-40T81 106h78q6 14 17 25l13 12H81q-8 0-13 5.5T62.5 162q-.5 8 5 13.5T81 181h22q-3 10-3 19t3 19v-1zm141-37h-35q4 10 4 19t-4 19h35q8-1 13.5 4.5t5 13.5q-.5 8-5.5 13.5t-13 5.5H84q4 10 4 19t-4 18h160q23 0 39.5-16t16.5-39.5q0-23.5-16.5-40T244 181zM31 243q-13 0-22 9.5T0 275q0 13 9 22t22 9q13 0 22-9t9.5-22q.5-13-9-22T31 244v-1zm94-43q0 13 9 22t22 9q13 0 22.5-9t9.5-22q0-13-9.5-22t-22.5-9.5q-13-.5-22 9t-9 22.5zM282 24Q263 6 237.5 6T193 24q-12 12-16 28.5t0 32.5q4 16 16 28l45 43 44-43q18-19 18-44.5T282 24zm-44 69q-11 0-18-7t-7-17.5q0-10.5 7-18t17.5-7.5q10.5 0 18 7.5t7.5 18q0 10.5-7.5 17.5T238 93z"/></svg>