<svg viewBox="0 0 300 310" xmlns="http://www.w3.org/2000/svg"><path d="M283 86l13-20q5-7 4-16t-7-15l-22-22q-6-6-15-7t-16 4l-20 13Q187 6 150 6q-41 0-75.5 20T20 80.5Q0 115 0 156q0 37 17 70L4 246q-5 7-4 16t7 15l22 22q6 6 15 7t16-4l20-13q33 17 70 17 41 0 75.5-20t54.5-54.5q20-34.5 20-75.5 0-37-17-70zM150 268q-31 0-56.5-15T53 212.5Q38 187 37.5 156t15-56.5q15.5-25.5 41-41T150 43q31 0 56.5 15.5t41 41q15.5 25.5 15 56.5T247 212.5q-15 25.5-40.5 41T150 269v-1zm38-43q-1 8-6 13t-13 5q-8 0-13.5-5t-5.5-13q0-8 5.5-13.5T169 206q8 0 13.5 5.5T188 225zM81 156q-8 0-13-5.5T63 137q0-8 5-13.5t13-5q8 .5 13.5 5.5t5.5 13q0 8-5.5 13.5T81 156zm63 12q-8 1-13.5-4.5T125 150q0-8 5.5-13.5T144 131q8 0 13.5 5.5T163 150q0 8-5.5 13.5T144 169v-1zm44-56q-1-8 4.5-13.5t13.5-5q8 .5 13.5 5.5t5.5 13q0 8-5.5 13.5T206 131q-8 0-13.5-5.5T187 112h1zM75 181h50v50q-21 0-35.5-14.5T75 181zm148-39q14 14 14 35t-14 35l-35-35 35-35zm-110-24V68h50q0 21-15 35.5T113 118z"/></svg>