<svg viewBox="0 0 300 310" xmlns="http://www.w3.org/2000/svg"><path d="M138 43H0V6h138v37zM50 143h38V93h50V56H0v37h50v50zM300 37q0-14-11-23.5T264 6l-62 9q-12 2-19.5 11T175 46v48q-11 2-18 11t-7 21q0 12 9 21t22 9q13 0 22.5-9t9.5-22V52l50-8v38q-11 2-18.5 10.5t-7 20.5q.5 12 9.5 21.5t22 9.5q13 0 22-9.5t9-22.5V37zm-19 231q-8 0-13 5.5t-5 13.5q0 8 5 13.5t13 5.5q8 0 13.5-5.5T300 287q0-8-5.5-13.5T281 268zm-87-50q8 0 13.5-5t5-13q-.5-8-5.5-13.5t-13-5.5q-8 0-13.5 5.5T175 200q0 8 5.5 13.5T194 219v-1zm73-37l-87 100 28 25 87-100-28-25zm-102 55q-9 13-21 25l19 19-26 27-20-20q-26 19-48 19-25 0-40.5-14T13 256q0-7 4-15 7-14 28-33-7-11-7-21 0-13 9-22t22-9q13 0 22 9t9 22q0 10-8 22l26 26q9-11 17-21l30 21v1zm-75 24l-22-22q-14 14-18 20 2 11 19 11 8 0 21-9z"/></svg>