<svg viewBox="0 0 300 310" xmlns="http://www.w3.org/2000/svg"><path d="M263 231h37v37h-37v38h-38v-38h-37v-37h37v-38h38v38zM256 6H44Q26 6 13 19T0 50v256h163v-38H38V50q0-3 1.5-5t4.5-2h212q3 0 5 2t2 5v118h37V50q0-18-13-31T256 6zM150 137q-8 0-13.5 5.5T131 156q0 8 5.5 13.5T150 175q8 0 13.5-5.5T169 156q0-8-5.5-13.5T150 137zm48 31h39q1-6 1-12 0-24-12-44t-32-32q-20-12-44-12t-44 12q-20 12-31.5 32T63 156q0 24 11.5 44t31.5 31.5q20 11.5 44 11.5 6 0 13-1v-38q-7 2-13 2-21 0-35.5-14.5T100 156q0-21 14.5-35.5T150 106q21 0 35.5 14.5T200 156q0 6-2 12z"/></svg>