<svg viewBox="0 0 300 310" xmlns="http://www.w3.org/2000/svg"><path d="M64 242q11 11 11 26.5T64 295q-11 11-26.5 11T11 295Q0 284 0 268.5T11 242l27-26 26 26zm225 0l-26-26-27 26q-11 11-11 26.5t11 26.5q11 11 26.5 11t26.5-11q11-11 11-26.5T289 242zm-120-26l24-13 30 17 28-28-38-21v-29l24-14 52 14 10-36-42-11 12-42-37-10-14 53-23 13-26-15V71l38-38-27-26-30 30-30-30-27 26 38 38v23l-26 15-23-13-14-53-37 10 12 42-42 11 10 36 52-14 25 14v29l-39 21 28 28 30-17 24 13v25l-38 38 27 26 30-30 30 30 27-26-38-38v-25zm-44-46v-29l25-15 25 15v29l-25 14-25-14z"/></svg>