<svg viewBox="0 0 300 310" xmlns="http://www.w3.org/2000/svg"><path d="M214 202l26 26-68 69q-9 9-22 9t-23-9l-68-69 26-26 46 45V68h37v179l46-46v1zM87 43q8 0 13.5-5t5.5-13q0-8-5.5-13.5T87 6q-8 0-13.5 5.5T68 25q0 8 5.5 13T87 43zm63 0q7 0 12.5-5t5.5-13q0-8-5.5-13.5t-13-5.5q-7.5 0-13 5.5T131 25q0 8 5.5 13t13.5 5zm62 0q8 0 13.5-5t5.5-13q0-8-5.5-13.5T212 6q-8 0-13.5 5.5T193 25q0 8 5.5 13t13.5 5zM25 6q-8 0-13.5 5.5T6 25q0 8 5.5 13t13 5q7.5 0 13-5T43 25q0-8-5.5-13.5T25 6zm250 0q-8 0-13.5 5.5T256 25q0 8 5.5 13t13 5q7.5 0 13-5t5.5-13q0-8-5.5-13.5T275 6z"/></svg>