<svg viewBox="0 0 300 310" xmlns="http://www.w3.org/2000/svg"><path d="M188 156V93h37v27l-21 36h-16zm-38 112q-31 0-56.5-15T53 212.5Q38 187 37.5 156t15-56.5q15.5-25.5 41-41T150 43q38 1 68 24t40 58l42 24q-2-39-22.5-72t-54-52Q190 6 149.5 6t-75 20Q40 46 20 80.5T0 156q0 41 20 75.5T74.5 286q34.5 20 75.5 20 21 0 42-6l19-33q-9-3-16-8-22 10-45 10v-1zm-37-112V93H75v63h38zm18 0h38V93h-38v63zm165 61q-3-5-8.5-8t-11.5-3h-29l26-44-33-18-37 65q-3 6-3 12t3.5 11.5q3.5 5.5 9 8.5t11.5 3h29l-26 44 33 18 38-66q2-6 2-12t-4-11z"/></svg>