<svg viewBox="0 0 300.0024 310" xmlns="http://www.w3.org/2000/svg"><path d="M50 90q0-20 14-37t32-22Q81 18 81 6h50q0 11-15 25 19 5 33 22t14 37q0 12-8.5 20t-20.5 8H78q-12 1-20-7.5T50 90zm238 97L184 306H44q-18 0-31-13T0 262v-75q0-18 13-31t31-13h110q18 0 31 12l31-33q13-15 33-16t35 12.5q15 13.5 16 33.5t-12 35zm-29-41q-3-3-8-2.5t-8 3.5l-43 48q-2 15-13 26t-26 13l-65 9-5-37 65-9q3 0 5-2.5t1.5-5.5q-.5-3-2.5-5.5t-6-2.5H44q-3 0-4.5 2t-1.5 4v75q0 3 1.5 4.5T44 268h122l94-106q3-3 2.5-8t-3.5-8zm-59-44q16-15 38-20V56h31l-40-45q-4-5-10.5-5T208 11l-39 45h31v46z"/></svg>