<svg viewBox="0 0 300 310" xmlns="http://www.w3.org/2000/svg"><path d="M256 6H44Q26 6 13 19T0 50v50l14 168h37q-1 4-1 7 0 13 9 22t22 9q13 0 22.5-9t8.5-22v-6h20q-7-19-7-38H49L39 118h222l-1 11q23 20 35 33l5-61V50q0-18-13-31T256 6zm7 44v31h-25V43h18q3 0 5 2t2 5zm-94-7h31v38h-31V43zm-38 38h-31V43h31v38zM44 43h19v38H38V50q0-3 1.5-5t4.5-2zm181 88q-8 9-13 23-3 8-6.5 23.5T200 198q-4 8-9 8t-11-13q-3-7-5-13-11 12-17 22-8 14-8 29 0 20 10 37.5t27.5 27.5q17.5 10 37.5 10t37.5-10q17.5-10 27.5-27.5t10-37.5q0-23-19-47-11-13-38-37-13-11-18-16zm18 143q-8 7-18 7t-17.5-7.5Q200 266 200 256t7-18l18-17 18 17q7 8 7 18t-7 18z"/></svg>