<svg viewBox="0 0 300 310" xmlns="http://www.w3.org/2000/svg"><path d="M73 123l-9-24q23-9 38-31l21 14q-19 29-50 41zm125-55l-21 14q19 29 50 41l9-24q-23-9-38-31zm-60 82q0-13-9.5-22t-22.5-9.5q-13-.5-22 9T75 150q0 13 9 22t22 9q13 0 22.5-9t9.5-22zm56-32q-13 0-22 9.5t-9 22.5q0 13 9 22t22 9q13 0 22-9t9-22q0-13-9-22t-22-9v-1zm106 38q0 41-20 75.5T225.5 286Q191 306 150 306t-75.5-20Q40 266 20 231.5T0 156q0-41 20-75.5T74.5 26Q109 6 150 6t75.5 20Q260 46 280 80.5t20 75.5zm-37 0q-1-31-16-56.5T206.5 59Q181 44 150 43.5t-56.5 15Q68 74 53 99.5T37.5 156q-.5 31 15 56.5t41 41q25.5 15.5 56.5 15t56.5-15.5q25.5-15 40.5-40.5t15-56.5h1zm-89 50h-48q-6-6-17-9.5T88 194l6 9q6 10 6 15.5T94 234l-6 9q10 0 21-3t17-9h48q6 6 17 9t22 3l-7-9q-6-10-6-15.5t6-15.5l7-10q-11 0-22 3.5t-17 9.5z"/></svg>