<svg viewBox="0 0 300 310" xmlns="http://www.w3.org/2000/svg"><path d="M188 156h50V38q0-13-9.5-22.5T206 6H94q-13 0-22.5 9.5T62 38v118h50l21 19q7 6 17 6t17-6l21-19zm-62-38h-26V43h100v75h-26l-24 22-24-22zm62-48l-31 31q-6 5-14 5t-14-5l-17-17 18-18 13 13 28-27 17 18zM75 181q-17 0-31.5 8.5t-22.5 23q-8 14.5-8.5 31t8 31q8.5 14.5 23 23T75 306q17 0 31.5-8.5t23-23q8.5-14.5 8.5-31t-8.5-31q-8.5-14.5-23-23T75 181zm22 96l-5-15H58l-5 15H37l22-64q3-7 6.5-9t9.5-2q6 0 9.5 2t6.5 8l22 65H97zm-20-60h-4l-10 30h24l-10-30zm162 10q0-3-2-5.5t-5-2.5h-22q-1 0-1 1v14h23q3 0 5-2t2-5zm-14-46q-17 0-31.5 8.5t-23 23q-8.5 14.5-8 31t8.5 31q8 14.5 22.5 23T225 306q17 0 31.5-8.5t23-23q8.5-14.5 8.5-31t-8.5-31q-8.5-14.5-23-23T225 181zm14 98h-29q-6 0-11-4.5t-5-11.5v-43q0-6 5-11t11-5h22q9 0 15.5 7t6.5 16q0 6-3 11 5 3 8 8t3 11q0 9-6.5 15.5T239 279zm0-15q3 0 5.5-2t2.5-5q0-3-2.5-5.5T239 249h-30v14q0 1 1 1h29z"/></svg>