<svg viewBox="0 0 300 310" xmlns="http://www.w3.org/2000/svg"><path d="M188 243h-75q0-15 10.5-26t26.5-11q16 0 26.5 11t10.5 26h1zm37-81q0-13-9-22t-22-9q-13 0-22 9t-9 22q0 13 9 22t22 9.5q13 .5 22-9t9-22.5zm-87 0q0-13-9.5-22t-22.5-9q-13 0-22 9t-9 22q0 13 9 22t22 9.5q13 .5 22.5-9T138 162zm162-6q0-41-20-75.5T225.5 26Q191 6 150 6T74.5 26Q40 46 20 80.5T0 156q0 41 20 75.5T74.5 286q34.5 20 75.5 20t75.5-20q34.5-20 54.5-54.5t20-75.5zm-37 0q-1 31-16 56.5t-40.5 41Q181 269 150 268.5T93.5 253q-25.5-15-41-40.5t-15-56.5Q38 125 53 99.5t40.5-41Q119 43 150 43.5T206.5 59q25.5 15 41 40.5T263 156zM111 99l-10-23q-32 13-49 41l21 13q13-21 38-31zm136 16q-17-26-48-39l-10 23q24 10 37 30l21-14z"/></svg>