<svg viewBox="0 0 300 310" xmlns="http://www.w3.org/2000/svg"><path d="M216 28q-31-9-66-9t-66 9Q46 40 23 71.5T0 142v64q0 38 18 58 15 17 38 17 18 0 32-11 13 11 30.5 11t31.5-11q14 11 31.5 11t31.5-11q13 11 31 11 23 0 38-17 18-20 18-58v-64q0-39-23-70.5T216 28zM43 114l7 13q17-8 35-13L67 79q11-9 24-14l24 43q18-2 35-2h6l-27-49q11-1 21-1h11l29 53q26 4 50 13l-31-57q24 9 38.5 30t14.5 47q0 7-5 10t-11 0q-44-21-96-21t-96 21q-6 3-11.5 0T37 142q0-14 6-28zm201 129q-5 0-9-3.5t-4-8.5h-37q0 5-4 8.5t-9 3.5q-5 0-8.5-3.5T169 231h-38q0 5-3.5 8.5T119 243q-5 0-9-3.5t-4-8.5H69q0 5-4 8.5t-9 3.5q-11 0-15-14-3-9-3-23v-16q5 1 11 1 11 0 21-5 36-17 80-17t80 17q16 8 32 4v16q1 14-3 23-4 15-15 15v-1z"/></svg>