<svg viewBox="0 0 300 310" xmlns="http://www.w3.org/2000/svg"><path d="M38 37q0-8 5-13.5T56 18q8 0 13.5 5.5T75 37q0 8-5.5 13.5T56 56q-8 0-13-5.5T38 37zm6 181q18 1 31-12t12.5-31q-.5-18-13-31T44 131q-18 0-31 13T0 175q0 18 13 31t31 13v-1zm175 50q-8 0-13.5 5.5T200 287q0 8 5.5 13.5T219 306q8 0 13.5-5.5t5-13.5q-.5-8-5.5-13.5t-13-4.5v-1zm62-37q-8 0-13.5 5.5t-5 13.5q.5 8 5.5 13t13 5q8 0 13.5-5t5.5-13q0-8-5.5-13.5T281 231zm19-79v20l-8 6q-9 6-23 13-9 18-25.5 29t-37 11q-20.5 0-37.5-11t-25-29q-14-7-24-13l-7-6v-20l8-6q9-5 21-9 8-19 25.5-31t39-12q21.5 0 39 12t24.5 31q13 4 21 10l9 5zm-125 10v1q16 5 31 5.5t31-5.5l1-1q-1-13-10-22t-22-9q-13 0-22 9t-9 22zm-79-31q7-8 14-15 35-35 73-55 32-18 55-18 13 0 18 5.5t6 14.5q1 9-2 22 18 13 29 33 12-31 10.5-55.5T283 23Q264 4 231.5 6T160 30q-39 22-77 59-8 9-18 20 19 6 31 22zM43 263q-6-6-5-20-21-2-37-14-6 39 16 60 16 17 44 17 26 0 57.5-14t63.5-39q-21-6-37-20-23 17-44 25.5T64.5 268Q49 269 43 263z"/></svg>