<svg viewBox="0 0 300 310" xmlns="http://www.w3.org/2000/svg"><path d="M150 6q-41 0-75.5 14T20 58.5Q0 83 0 112v88q0 29 20 53.5T74.5 292q34.5 14 75.5 14t75.5-14q34.5-14 54.5-38.5t20-53.5v-88q0-29-20-53.5T225.5 20Q191 6 150 6zm-22 135q3-6 5-12 8 2 17 2t17-2l5 12q13 20 39 29-28 11-61 11t-61-11q26-9 39-29zm135-29q0 13-9 26-14 0-26-3-17-4-24-13-3-7-2.5-13.5T208 90l14-30q19 10 30 23.5t11 28.5zm-77-65q-8 17-12 26-7 13-11.5 16.5T150 93q-8 0-12.5-3.5T126 73q-4-9-12-26 17-4 36-4t36 4zM78 60l15 30q5 12 5.5 18.5T96 122q-7 9-23 14-13 3-27 2-8-12-8-26.5t10.5-28Q59 70 78 60zm72 209q-30 0-56-9.5T53 234q-15-16-15-34v-17q20 17 49.5 26.5T150 219q33 0 62.5-9.5T263 183v17q0 18-15.5 34T206 259.5q-26 9.5-56 9.5z"/></svg>