<svg viewBox="0 0 300 310" xmlns="http://www.w3.org/2000/svg"><path d="M169 93h-38V6h38v87zm19 150q2 5 7 9t12 4q7 0 12.5-5.5T225 237q0-8-5.5-13.5T206 218q-3 0-7 2l-12-7q1-4 1-7t-1-7l34-20-12-21-35 20q-5-5-12-7v-20q7-5 7-13.5t-5.5-14q-5.5-5.5-13.5-5t-13.5 5.5q-5.5 5-5.5 13.5t6 13.5v20q-6 2-11 7l-35-20-12 21 34 20q-1 4-1 7t1 7l-13 7q-3-1-6-1-8 0-13.5 5.5T75 238q0 8 5.5 13.5T93 257q7 0 12-4t7-11l14-8q5 5 12 7v40h25v-40q6-2 11-7l14 9zm107-38l-22-96q-6-23-24.5-38T206 56h-18v38h18q11 0 19.5 6.5T236 118l22 95q5 19 5 38 0 8-5 12.5t-12 4.5l-8-1q-6 10-19 17.5t-23 8.5l32 10q9 3 17 3h1q10 0 20-4t18-12q16-16 16-39t-5-46zM62 267q-4 1-7 1h-1q-6 0-11-4.5T38 251q0-19 4-38l22-95q2-11 10.5-17.5T94 94h19V56H94q-24 0-42.5 15T27 109L5 205q-5 23-5 46t16 39q8 8 18 12t20 4h1q8 0 17-3l32-10q-10-1-23-8.5T62 267z"/></svg>