<svg viewBox="0 0 300 310" xmlns="http://www.w3.org/2000/svg"><path d="M200 131q10 0 17.5 7.5T225 156q0 10-7.5 17.5T200 181q-10 0-17.5-7.5T175 156q0-10 7.5-17.5T200 131zm42-25q-23-9-38-32l-21 14q20 29 50 41l9-23zM63 181q0-11-9-26-5-10-15-21l-8-9-8 8q-9 12-15 22-8 15-8 27t9 21q9 9 22 9t22-9q9-9 9-22h1zM150 6q-40 0-74 19.5T22 78l27 28q14-28 41-45t59-17.5q32-.5 57.5 15t41 41Q263 125 263 156t-15.5 56.5q-15.5 25.5-41 41T150 269q-26-1-48.5-12T63 227q-14 10-32 10l-7-1q20 32 53.5 51t73.5 19q40 0 74.5-20t54.5-54.5q20-34.5 20-75.5t-20-75.5Q260 46 225.5 26T150 6zM58 106l9 23q30-12 50-41L96 74q-15 23-38 32zm43 104l23 30q3-2 8-5 9-4 18-4t18 4q7 3 8 5l23-30q-7-5-16-9-16-7-33-7.5t-33 7.5q-9 4-16 9zm-1-79q-10 0-17.5 7.5T75 156q0 10 7.5 17.5T100 181q10 0 17.5-7.5T125 156q0-10-7.5-17.5T100 131z"/></svg>