<svg viewBox="0 0 300 310" xmlns="http://www.w3.org/2000/svg"><path d="M96 74l21 14q-20 29-50 41l-9-23q23-9 38-32zm146 32q-23-9-38-32l-21 14q20 29 50 41l9-23zM63 181q0-11-9-26-5-10-15-21l-8-9-8 8q-9 12-15 22-8 15-8 27t9 21q9 9 22 9t22-9q9-9 9-22h1zM150 6q-40 0-74 19.5T22 78l27 28q14-28 41-45t59-17.5q32-.5 57.5 15t41 41Q263 125 263 156t-15.5 56.5Q232 238 206.5 253T150 268q-26 0-48.5-11T63 227q-14 10-32 10l-7-1q20 32 53.5 51t73.5 19q40 0 74.5-20t54.5-54.5q20-34.5 20-75.5t-20-75.5Q260 46 225.5 26T150 6zm-50 125q-10 0-17.5 7.5T75 156q0 10 7.5 17.5T100 181q10 0 17.5-7.5T125 156q0-10-7.5-17.5T100 131zm75 25q0 10 7.5 17.5T200 181q10 0 17.5-7.5T225 156q0-10-7.5-17.5T200 131q-10 0-17.5 7.5T175 156zm-75 75h100q0-21-14.5-35.5T150 181q-21 0-35.5 14.5T100 231z"/></svg>