<svg viewBox="0 0 300.0078 310" xmlns="http://www.w3.org/2000/svg"><path d="M75 181q37 12 75 12t75-12q-7 25-25 42-21 20-50 20t-50-20q-18-17-25-42zm169-6q1 5 1 10 3 13 6 22 3 13 8 17 7 7 17 7t17-7q7-7 7-17t-7-17q-4-5-17-8-9-3-22-6l-10-1zm-188 0q-5 1-10 1-13 3-22 6-13 3-17 8-7 7-7 17t7 17q7 7 17 7t16.5-6.5Q47 218 52 196q3-11 4-21zm-18-23q2-41 26-69 21-25 53.5-34t65 0Q215 58 236 83q24 28 26 69 20 4 38 12 2-41-17.5-78t-55-58.5Q192 6 150 6T72.5 27.5Q37 49 17.5 86T0 164q18-8 38-12zm196 79q-20 24-52 32.5t-64 0Q86 255 66 231q-2 6-7 11-9 9-22 12 27 34 70 45.5t86 0q43-11.5 70-45.5-13-3-22-12-5-5-7-11zM100 93q-13 0-22 12-8 10-12 26-3 13-3 25 18-17 27.5-22t19 0q9.5 5 28.5 22 0-12-4-25-4-16-12-26-9-12-22-12zm100 0q-13 0-22 12-8 10-12 26-3 13-3 25 18-17 27.5-22t19 0q9.5 5 27.5 22 1-12-3-25-4-16-12-26-9-12-22-12z"/></svg>