<svg viewBox="0 0 300 310" xmlns="http://www.w3.org/2000/svg"><path d="M300 143q0-38-19.5-69.5t-54-49.5Q192 6 150 6T73.5 24Q39 42 19.5 73.5T0 143v8l91 92q-3 6-3 13v25q0 10 7 17.5t18 7.5h75q10 0 17.5-7.5T213 281v-25q0-7-4-13l91-92v-8zM56 131q8 0 18 7 7 5 11 10l3 5 21 54-68-68q7-8 15-8zm68 11q15-11 26-11t26 11l-26 68-26-68zm26-49q-12 0-25 6 8-25 25-46 17 21 25 46-13-6-25-5v-1zm62 60l3-4q4-6 11-11 10-7 18-7t15 8l-68 68 21-54zm37-59q-3-1-5-1-15 1-29 8-6-26-21-50 37 12 55 43zM106 51q-15 24-21 50-14-8-29-8l-5 1q18-31 55-43z"/></svg>