<svg viewBox="0 0 300 310" xmlns="http://www.w3.org/2000/svg"><path d="M144 105q-9-8-20-11-16-3-37 7t-45.5 34.5Q17 160 7 181t-6 37q2 11 11 19 28 29 73 47 35 14 77 21l8 1q17 0 30-12 7-8 10-18t2-20q-8-42-22-77-18-45-47-74h1zM41 198q7-16 27.5-36t35.5-28q7-3 11-3 1 0 2 1 9 9 18 22-19 11-41 33t-33 42q-13-8-23-19-1-1 0-4.5t3-7.5zm132 69q-1 2-4 1-29-5-53-13 9-12 21.5-24.5T161 210q8 24 14 52 0 3-2 5zM300 57q0 40-20 86-14 34-39 70-4 6-10 10-6-23-13-43 11-17 19-34-14-3-31-3h-5q-17-32-40-56l-2-2q20-4 47-4 31 0 53 6 3-16 3-30 0-3-6.5-6T238 46q-14-3-32.5-3T173 46q-11 2-17.5 5t-6.5 6q0 11 2 22-17-11-39-11V57q0-19 15-31 23-20 78.5-20T284 26q15 12 15 31h1z"/></svg>