<svg viewBox="0 0 300 310" xmlns="http://www.w3.org/2000/svg"><path d="M44 156q0 8-5.5 13.5T25 175q-8 0-13.5-5.5T6 156q0-8 5.5-13.5T25 137q8 0 13.5 5.5T44 156zm87 0q0 8 5.5 13.5T150 175q8 0 13.5-5.5T169 156q0-8-5.5-13.5T150 137q-8 0-13.5 5.5T131 156zm-25 0q0-8-5.5-13.5t-13-5.5q-7.5 0-13 5.5T69 156q0 8 5.5 13.5t13 5.5q7.5 0 13-5.5T106 156zm169-19q-8 0-13.5 5.5T256 156q0 8 5.5 13.5T275 175q8 0 13.5-5.5T294 156q0-8-5.5-13.5T275 137zm-62 0q-8 0-13.5 5.5T194 156q0 8 5.5 13.5t13 5.5q7.5 0 13-5.5T231 156q0-8-5.5-13.5T213 137zm-54 73q-4-4-9-4t-9 4l-47 46h37v50h38v-50h37l-47-46zm-18-108q4 4 9 4t9-4l47-46h-37V6h-38v50H94l47 46z"/></svg>