<svg viewBox="0 0 300 310" xmlns="http://www.w3.org/2000/svg"><path d="M238 181q-14 0-26.5 6T190 204l-68-31q3-8 3-17t-3-17l68-31q14 18 36.5 21.5t42-8Q288 110 295.5 89t0-42.5Q288 25 268 14t-42-7q-22 4-36.5 21.5T175 68l1 6-75 33Q84 94 62 94q-16-1-30.5 7.5t-23 23Q0 139 0 156t8.5 31.5Q17 202 31.5 210t30.5 8q22 0 39-13l75 33-1 6q0 16 8.5 30.5t23 23q14.5 8.5 31 8.5t31-8.5q14.5-8.5 23-23t8.5-31q0-16.5-8.5-31t-23-23Q254 181 237 181h1zm0-138q10 0 17 7.5t7.5 18q.5 10.5-7 17.5t-18 7Q227 93 220 86t-7-17.5q0-10.5 7-17.5t18-7v-1zM63 181q-11 0-18-7.5T38 156q0-10 7-17.5t17.5-7.5q10.5 0 18 7.5T88 156q0 10-7.5 17.5T63 181zm175 87q-11 0-18-7t-7-17.5q0-10.5 7-18t17.5-7.5q10.5 0 17.5 7.5t7.5 18q.5 10.5-7 18T237 268h1z"/></svg>