<svg viewBox="0 0 300 310" xmlns="http://www.w3.org/2000/svg"><path d="M225 68q0-15 11-26t26.5-11Q278 31 289 42t11 26.5Q300 84 289 95t-26.5 11Q247 106 236 95t-11-27zM73 156l89-62 44 62h46L157 21q-6-7-15-11t-18-4H37v37h87q3 0 5 3l12 17L8 156h65zm209 25h-39q-2 6-7 9.5t-11 3.5q-6 0-11-3.5t-7-9.5h-39q-2 6-7 9.5t-11 3.5q-6 0-11-3.5t-7-9.5H93q-2 6-7 9.5T75 194q-6 0-11-3.5t-7-9.5H18q-2 6-7 9t-11 4v37q22 0 37-15 16 15 38 15t37-15q16 15 38 15t38-15q15 15 37 15t38-15q15 15 37 15v-38q-6 0-11-3t-7-9zm0 75h-39q-2 6-7 9.5t-11 3.5q-6 0-11-3.5t-7-9.5h-39q-2 6-7 9.5t-11 3.5q-6 0-11-3.5t-7-9.5H93q-2 6-7 9.5T75 269q-6 0-11-3.5t-7-9.5H18q-2 6-7 9t-11 3v38q22 0 37-15 16 15 38 15t37-15q16 15 38 15t38-15q15 15 37 15t38-15q15 15 37 15v-38q-6 0-11-3t-7-9z"/></svg>