<svg viewBox="0 0 300 310" xmlns="http://www.w3.org/2000/svg"><path d="M250 87q0 8-5.5 13.5T231 106q-8 0-13.5-5.5T212 87q0-8 5.5-13.5T231 68q8 0 13.5 5.5T250 87zm31-19q8 0 13.5-5t5.5-13q0-8-5.5-13.5T281 31q-8 0-13 5.5T263 50q0 8 5 13t13 5zm0 38q-8 0-13 5.5t-5 13.5q0 8 5 13.5t13 5q8-.5 13.5-5.5t5.5-13q0-8-5.5-13.5T281 106zM69 68q-8 1-13.5 6T50 87q0 8 5.5 13.5T69 106q8 0 13.5-5.5T88 87q0-8-5.5-13.5T69 68zM19 31q-8 0-13.5 5.5T0 50q0 8 5.5 13.5T19 69q8 0 13-5.5T37.5 50q.5-8-5-13.5T19 31zm0 75q-8 0-13.5 5.5T0 125q0 8 5.5 13.5t13.5 5q8-.5 13-5.5t5.5-13q.5-8-5-13.5T19 106zm150-29l44-37V6H88v34l43 37v54H88v175h37V168h50v138h38V131h-44V77z"/></svg>