<svg viewBox="0 0 300 310" xmlns="http://www.w3.org/2000/svg"><path d="M300 306q-15 0-26-9-6-6-15-18-6-11-8.5-11t-6 3q-3.5 3-8.5 10-10 11-17 16-12 9-26 9t-25-9q-7-5-17-17l-8-8q-3-4-5.5-4t-5.5 3l-8 8q-12 12-21 18-15 9-34 9t-34.5-9.5q-15.5-9.5-25-25t-9.5-34Q0 219 9.5 203t25-25.5Q50 168 69 168h6v38h-6q-13 0-22 9t-9 22q0 13 9 22t22 9q8 0 15-4 5-3 14-12.5t16-13.5q11-7 24.5-7t25.5 9q6 5 16 17l8 8q3 3 6 3t13-11.5q10-11.5 17-16.5 12-9 26.5-9t25.5 9q6 6 15 18 6 10 9 10v38zM271 82l19-19q10-10 10-24t-9.5-23.5Q281 6 267 6t-24 10l-19 19 47 47zm-74-20l-97 97v47h47l97-97-47-47z"/></svg>