<svg viewBox="0 0 300.0015 310" xmlns="http://www.w3.org/2000/svg"><path d="M286.002 193q-31-10-62.5-2T169 221v-24q28-6 46-29t18-51q0-46-51-98-13-13-32-13t-32 13q-51 52-51 98 0 28 18 51t46 29v24q-23-22-54.5-30T14 193l-14 3v15q-1 19 6.5 36.5t22.5 30.5q21 18 56 25 24 4 52 3h26q30 2 60-5 35-9 54-29 24-25 23-61v-15l-14-3zm-233 56q-11-9-14-23 25-3 47.5 8.5T121 268q-20 0-36-4-20-5-32-15zm52-132q3-33 26-57v46h38V60q23 26 26 50 2 21-10 35t-30 16.5q-18 2.5-32-8.5-15-12-18-36zm142 132q-12 10-32 15-16 4-36 5 12-22 34.5-34t47.5-9q-3 14-14 23z"/></svg>