<svg viewBox="0 0 300 310" xmlns="http://www.w3.org/2000/svg"><path d="M125 150q0 8-5.5 13.5t-13.5 5q-8-.5-13-5.5t-5-13q0-8 5-13.5t13-5.5q8 0 13.5 5.5T125 150zm69 43q-8 1-13.5 6t-5.5 13q0 8 5.5 13.5T194 231q8 0 13.5-5.5T213 212q0-8-5.5-13t-13.5-6zm-94 38h40l60-100h-40l-60 100zm138 38q24-24 32.5-56t0-64.5Q262 116 238 92L150 6 62 93q-24 23-33 55.5t-.5 65Q37 246 61 270t56.5 32.5q32.5 8.5 65-.5t55.5-33zm-26-150q17 17 22.5 39.5t0 45Q229 226 212 243t-39.5 22.5q-22.5 5.5-45 0T88 243q-17-17-22.5-39.5t0-45Q71 136 88 119l62-60 62 60z"/></svg>