<svg viewBox="0 0 300 310" xmlns="http://www.w3.org/2000/svg"><path d="M0 137h88v38H0v-38zm231 38H125v-38h106q13 0 21-8t10-19q2-11-4.5-19.5T237 81q-10 0-17.5 7.5T213 106h-38q0-17 8.5-31.5t23-22.5q14.5-8 30.5-9 26 2 41.5 15T298 90.5q4 19.5-2.5 39t-23.5 32Q255 174 231 175zm-126-57H0V81h105q8 0 13.5-5.5T124 62q0-8-5.5-13.5T105 43q-8 0-13.5 5.5T86 62H49q0-23 16.5-39.5T105 6q23 0 39.5 16.5t16.5 40q0 23.5-16.5 39.5T105 119v-1zm91 188q-23 0-39.5-16.5T140 250h38q0 8 5 13t13 5q8 0 13.5-5t5.5-13q0-8-5.5-13.5T196 231H0v-38h196q24 0 40 16.5t16.5 40q.5 23.5-16 40T196 306z"/></svg>