<svg viewBox="0 0 300.5004 310" xmlns="http://www.w3.org/2000/svg"><path d="M249.5 158q-5-43-19-85l13-4q2-1 4 0 4 5 3 12h38q0-12-4.5-23t-13.5-19q-8-6-18-7.5t-19 .5q-18 5-34 13l-17 7 7 17q3 8 8 25l-48 40-41-41h17V56h-87v37h17l65 65-12 10q-22-15-47.5-12t-43 22.5Q.5 198 0 223.5T16 269q16.5 20 42 24t47.5-9.5q22-13.5 29.5-38t-2.5-48.5l75-63q3 13 4 25-24 7-38 29t-10 47.5q4 25.5 24 42t45.5 16q25.5-.5 44.5-17.5t22.5-42.5q3.5-25.5-11-47T249.5 158zm-180 98q-13 0-22-9t-9-22q0-13 9-22.5t22-9.5q13 0 22 9.5t9 22.5q0 13-9 22t-22 9zm162 0q-13 0-22-9t-9-22q0-13 9-22t22-9.5q13-.5 22.5 9t9 22.5q-.5 13-9.5 22t-22 9z"/></svg>