<svg viewBox="0 0 300 310" xmlns="http://www.w3.org/2000/svg"><path d="M150 6q-41 0-75.5 20T20 80.5Q0 115 0 156t20 75.5Q40 266 74.5 286t75.5 20q41 0 75.5-20t54.5-54.5q20-34.5 20-75.5t-20-75.5Q260 46 225.5 26T150 6zm0 262q-31 1-56.5-14.5t-41-41Q37 187 37.5 156T53 99.5Q68 74 93.5 59T150 44q31 0 56.5 15T247 99.5q15 25.5 15.5 56.5t-15 56.5Q232 238 206.5 253T150 268zm38-166q-1-9-7-15t-15-6h-32q-9 0-15.5 6t-6.5 15v4H88v37h12v57q0 13 9 22t22 9h38q13 0 22-9t9-22v-57h13v-37h-25v-4zm-25 91h-25v-50h25v50z"/></svg>