<svg viewBox="0 0 300.0056 310" xmlns="http://www.w3.org/2000/svg"><path d="M275.006 209V100h-37v43h-42q-8-17-27-23l-34-76q-5-11-16-18.5t-24-6.5h-57v64q-12 4-18.5 14t-6.5 22v83q-11 13-13 29t5.5 30.5q7.5 14.5 21 23t29.5 9.5h100q17-1 30.5-9.5t20.5-23q7-14.5 5-30.5t-12-29v-21h38v28q-1 23 8 44.5t26 38.5l26-27q-11-11-17-25.5t-6-30.5zm-119-53q3 0 5 2t2 4v19h-113v-25h106zm-81-100h20q4 0 6 4l26 58h-52V56zm-31 200q-8 0-13.5-5.5t-5.5-13.5q0-8 5.5-13.5t13.5-5.5q8 0 13.5 5.5t5.5 13.5q0 8-5.5 13.5t-13.5 5.5zm62 0q-8 0-13-5.5t-5-13.5q0-8 5-13.5t13-5.5q8 0 13.5 5.5t5.5 13.5q0 8-5.5 13.5t-13.5 5.5zm63 0q-8 0-13.5-5.5t-5.5-13.5q0-8 5.5-13.5t13.5-5.5q8 0 13.5 5.5t5.5 13.5q0 8-5.5 13.5t-13.5 5.5z"/></svg>