<svg viewBox="0 0 300 310" xmlns="http://www.w3.org/2000/svg"><path d="M38 287q0 8-5.5 13.5T19 306q-8 0-13.5-5.5T0 287q0-8 5.5-13t13.5-5.5q8-.5 13 5t5 13.5h1zm68-106q-8 0-13.5 5.5t-5 13.5q.5 8 5.5 13.5t13 5q8-.5 13.5-5.5t5.5-13q0-8-5.5-13.5T106 181zm-88 45l62 62 27-27-62-62-27 26v1zM239 8l-15 34q13 6 23.5 16T264 82l34-15q-9-20-24-35.5T239 8zm-49 160q10-10 10-25t-11-26q-11-11-26.5-11T136 117q-11 11-11 26h38l27 25zM161 44q-27 0-49.5 13.5t-36 36Q62 116 62 143h38q0-25 18-43.5T162 81q12-1 23.5 4T206 99q19 18 19 45 0 19-11 34-14 21-14 47 0 20-15 31.5T150 268v38q25 0 45-10.5t31-29q11-18.5 11-41.5 0-14 8-26 17-25 17-56 0-20-7.5-38.5t-22-32.5q-14.5-14-33-21T161 44z"/></svg>