<svg viewBox="0 0 300 310" xmlns="http://www.w3.org/2000/svg"><path d="M283 167l-50-39q-12-10-27-10t-27 10l-50 39q-8 6-12 15t-4 19v105h187V201q0-10-4.5-19T283 167zm-20 101H150v-67q0-3 2-5l50-39q4-3 8 0l50 39q3 2 2 5v67h1zm-75-62h37v37h-37v-37zm-81-57q-15 7-32 7-20 0-37.5-10T10 118.5Q0 101 0 81t10-37.5Q20 26 37.5 16T75 6q17 0 32 7-24 5-39.5 24T52 81q0 25 15.5 44t39.5 24zm47-85l-29-14 29-15 15-29 14 29 30 15-30 14-14 29-15-29zM56 225l25 12-25 13-12 25-13-25-25-13 25-12 13-25 12 25zM258 98l-20-11 20-10 11-21 10 21 21 10-21 11-10 20-11-20z"/></svg>