<svg viewBox="0 0 300 310" xmlns="http://www.w3.org/2000/svg"><path d="M63 120V87q0-8 5-13.5T81 68h19q0 12 5 22-15 12-17 31-13-3-25-1zm137-52q0 12-5 22 15 12 17 31 8-2 15-2 5 0 10 1V87q1-8-4.5-13.5T219 68h-19zM100 56q10 0 17.5-7.5T125 31q0-10-7.5-17.5T100 6q-10 0-17.5 7.5T75 31q0 10 7.5 17.5T100 56zm50 37q10 0 17.5-7t7.5-17.5q0-10.5-7.5-18T150 43q-10 0-17.5 7.5t-7.5 18q0 10.5 7.5 17.5t17.5 7zm50-37q10 0 17.5-7.5T225 31q0-10-7.5-17.5T200 6q-10 0-17.5 7.5T175 31q0 10 7.5 17.5T200 56zm-31 50h-38q-8 0-13.5 5.5T112 125v6q8 5 13 10l25 24 26-25q5-5 11-10v-5q0-8-5-13.5t-13-5.5zm103-50q-9 1-15.5 9T250 82v67q-14-7-30-4.5T193 158l-43 43-42-42q-12-12-28-14.5T50 149V82q0-9-6.5-17t-17-9Q16 55 8 62.5T0 81v195l30 30h53l-45-45v-38l41 42 26-27-41-41q-2-3-1.5-7.5t4-6.5q3.5-2 7.5-1.5t7 3.5l47 47q9 9 9 22v52h38v-52q0-11-4-22l49-48q3-3 7-3t7 3q3 3 3.5 6.5T236 197l-41 41 26 27 41-42v38l-45 45h53l30-30V81q0-11-8-18.5T272 56z"/></svg>