<svg viewBox="0 0 300 310" xmlns="http://www.w3.org/2000/svg"><path d="M106 156q-24 1-43-13 19-13 43-13t44 14q-20 13-44 12zm194 12q0 19-11.5 35T257 229.5Q237 240 211 242q-4 19-18.5 33t-37 22.5Q133 306 106 306q-29 0-53.5-10T14 269Q0 252 0 231v-88q0-18 11.5-34t32-26.5Q64 72 89 70q4-18 18.5-32.5t37-23Q167 6 194 6q29 0 53.5 10T286 43q14 17 14 38v87zM129 70q14 2 27 7 18-9 38-8 24-2 43 12-19 14-43 12h-9q14 10 21 25 25-3 41-14t16-23q0-9-9-17.5t-25-14Q213 44 194 44q-23-1-40.5 7T129 70zm-91 73q0 9 8.5 18T71 175.5q16 5.5 35.5 5.5t35-5.5Q157 170 166 161t9-17.5q0-8.5-9-17.5t-24.5-14.5q-15.5-5.5-35-5.5T71 111.5Q55 117 46.5 126T38 143zm137 88v-30q-32 18-68.5 18T38 201v30q0 9 8.5 17.5T71 263q16 6 35.5 5.5t35-6q15.5-5.5 24.5-14t9-17.5zm88-63v-29q-24 13-50 16v49q22-3 36-13.5t14-21.5v-1z"/></svg>