<svg viewBox="0 0 301 310" xmlns="http://www.w3.org/2000/svg"><path d="M132 305q-33 0-64-12.5T14 256L0 243 238 5l13 13q32 33 43.5 76t0 86.5Q283 224 251 256q-24 24-54.5 36.5T132 305zm-78-63q30 22 67 25.5t70-13.5q33-17 52.5-48.5T263 137q0-21-6.5-41T237 59L54 242zm192-125q-15-8-32-11 2 17 10 33 5 4 11.5 4t11-4.5Q251 134 251 128t-5-11zm-62 100q-16-8-33-11 3 17 11 33 6 6 15 4t11-11q2-9-4-15zm37-38q-15-8-33-11 3 18 11 33 7 7 15.5 4.5t11-11Q228 186 221 179zm-100 50q-15-8-33-10 3 17 11 32 7 7 15.5 4.5t11-11Q128 236 121 229z"/></svg>