<svg viewBox="0 0 300 310" xmlns="http://www.w3.org/2000/svg"><path d="M250 127q-11 11-26 13.5t-29-3.5L300 32 273 6l-15 6q-18 8-30 14-16 9-16 16 1 2 2.5 8t4.5 11l-49 48q-5-13-2-26.5T181 59l11-11-26-27-17 17q-10 9-15 14-6 8-14 19-9 14-19 20.5T71 103l-10 2q-15 4-22 6-11 4-17 10-22 22-22 46 0 19 15 40 9 13 31 36l15 15q23 25 35 34 19 14 38 14 24 0 45-22 7-6 12-19 3-8 8-26.5t12-27.5q7-9 24-19 9-6 13.5-10t12.5-12l16-16-27-27zm-87 102q-7 25-10 29-11 10-19 10t-21-11q-7-6-25-24l-15-16q-21-22-28.5-33T38 165q1-8 10-17 3-2 21-6l10-3q18-4 29-9 14-6 24-16 6 23 22.5 39.5T193 176q-11 10-18 22t-12 31zm-50-74l38 38-27 26-37-37 26-27z"/></svg>