<svg viewBox="0 0 300 310" xmlns="http://www.w3.org/2000/svg"><path d="M188 200q0 13-11 22t-27 9q-16 0-26.5-9T113 200q0-13 10.5-22t26.5-9.5q16-.5 26.5 9T187 200h1zm-63-50q0-8-5.5-13.5T106 131q-8 0-13.5 5.5t-5 13.5q.5 8 5.5 13.5t13 5.5q8 0 13.5-5.5T125 150zm69-19q-8 0-13.5 5.5T175 150q0 8 5.5 13.5T194 169q8 0 13-5.5t5-13.5q0-8-5-13.5t-13-5.5zM300 6h-19q-26 0-39 1-20 2-35 7-17 7-29 20-14-3-28-3t-28 3q-12-13-29-20-15-5-35-7-13-1-39-1H0v19q0 12 3 29 6 33 20 61-10 25-10 54 0 37 18.5 68.5t50 50Q113 306 150 306t68.5-18.5q31.5-18.5 50.5-50t19-69.5q0-27-11-53 14-28 20-61 3-17 3-29V6zM39 44q29 0 42 6-19 11-33 27-6-16-9-33zm111 224q-27 0-50-13t-36.5-36Q50 196 50 168.5T63.5 118Q77 95 100 81.5T150 68q27 0 50 13.5t36.5 36.5q13.5 23 13.5 50.5T236.5 219Q223 242 200 255t-50 13zM252 77q-14-16-33-27 13-6 42-6-3 17-9 33z"/></svg>