<svg viewBox="0 0 300 310" xmlns="http://www.w3.org/2000/svg"><path d="M159 165q-14 14-30.5 24T97 202q-10 2-18 1t-12-4q-5-6-4-20.5T73 146q10-21 28-39 14-14 30.5-23.5T163 70q8-1 14-1 11 0 16 5t4 19.5q-1 14.5-10 32.5-10 21-28 39zm97 97q-22 21-49.5 32.5T149 306q-30 0-57.5-11.5T42 262l-19-19Q3 223 .5 192t12-65.5Q27 92 57 63q21-21 45-35t48-19q27-6 49.5-1T237 29l19 19q29 29 39 68t0 78q-10 39-39 68zm-154-36q19-4 38.5-15t36.5-28q21-22 33-47t12.5-46.5q.5-21.5-11.5-34T177 43q-9 0-19 3-19 4-38.5 15T83 89q-21 22-33 47t-12.5 46.5Q37 204 49 217q11 10 28 11 11 1 25-2zm155-107q-6 23-19.5 46.5t-34 43.5q-20.5 20-44 34T112 262q31 11 62.5 4t54.5-30.5q23-23.5 30.5-55T257 119z"/></svg>