<svg viewBox="0 0 300 310" xmlns="http://www.w3.org/2000/svg"><path d="M150 306q-41 0-75.5-20T20 231.5Q0 197 0 156t20-75.5Q40 46 74.5 26T150 6q41 0 75.5 20T280 80.5q20 34.5 20 75.5t-20 75.5Q260 266 225.5 286T150 306zm0-263q-31 1-56.5 16t-41 40.5Q37 125 37.5 156T53 212.5q15 25.5 40.5 41t56.5 15q31-.5 56.5-15.5t41-40.5q15.5-25.5 15-56.5T247 99.5q-15-25.5-40.5-41T150 43zm63 138q-1-21-15.5-35.5T162 131h-24v-25h62V68H100v100h63q5 0 8.5 4t3.5 9q0 5-3.5 8.5T162 193h-62v38h63q20 0 35-14.5t15-35.5z"/></svg>