<svg viewBox="0 0 300 310" xmlns="http://www.w3.org/2000/svg"><path d="M63 250q0 13-9.5 22T31 281q-13 0-22-9t-9-22q0-13 9-22.5t22-9.5q13 0 22 9.5t9 22.5h1zm206-32q-13 0-22.5 9.5t-9 22.5q.5 13 9.5 22t22 9q13 0 22-9t9-22q0-13-9-22t-22-9v-1zm-106-18v31H88v37h75v32l46-42q4-4 4-8.5t-4-7.5l-46-42zM269 93q13 1 22-8.5t9-22.5q0-13-9-22t-22-9q-13 0-22.5 9t-9 22q.5 13 9.5 22.5t22 9.5v-1zm-19 100h38q0-16-8.5-30.5t-23-23Q242 131 225 131H63q-11 0-18-7.5T38 106q0-10 7-17.5T63 81h100v31l46-42q4-3 4-7.5t-4-8.5l-46-42v31H63q-17 0-31.5 8.5t-23 23Q0 89 0 106t8.5 31.5Q17 152 31.5 160t31.5 8h162q10 0 17.5 7.5T250 193z"/></svg>