<svg viewBox="0 0 300 310" xmlns="http://www.w3.org/2000/svg"><path d="M276 18q-12-8-26-11t-28 1L116 39q-7 2-15 3-34 3-48 17t-17 48q-1 8-3 15L2 228q-4 14-1 28t11.5 25.5Q21 293 34 299.5t27 6.5h77q15 0 35-7 41-13 74-46t46-74q7-20 7-35V67q0-14-6.5-27T276 18zm-44 26q12-3 21.5 4t9.5 19v44l-59-59 28-8zM42 259q-7-10-4-21l8-28 59 58H61q-12 0-19-9zm178-33q-30 30-65 40l-97-97 11-37q3-10 4-20t3-17q2-7 4-9t9-4q7-2 17-3t20-4l37-11 97 97q-10 35-40 65zm-38-101l-62 63-27-27 63-62 26 26zm43 45l-62 62-27-26 63-63 26 27z"/></svg>