<svg viewBox="0 0 300 310" xmlns="http://www.w3.org/2000/svg"><path d="M264 132q-14 3-27 9-3-36-15.5-67T190 24.5Q171 6 150 6t-40 18.5Q91 43 78.5 74T63 141q-13-6-27-9l-23-6v24q0 58 22 95 17 30 49 46 22 11 50 14l16 1 16-1q28-3 50-14 32-16 49-46 23-37 23-95v-24l-24 6zM52 177q27 14 46.5 37t28.5 52q-28-5-47-23-23-24-28-66zm98 49q-18-37-50-63v-6q0-26 7-51h31V68h-15q7-11 14.5-18t12.5-7q5 0 12.5 7T177 68h-14v38h30q7 25 7 51v6q-32 26-50 63zm23 40q9-29 28.5-52t46.5-37q-5 42-28 66-19 18-47 23zm-48-135h50v37h-50v-37z"/></svg>