<svg viewBox="0 0 300 310" xmlns="http://www.w3.org/2000/svg"><path d="M0 6h188v37h-75v188H75V43H0V6zm156 62q-8 0-13 5.5T138 87q0 8 5 13.5t13 5.5q8 0 13.5-5.5T175 87q0-8-5.5-13.5T156 68zm0 63q-8 0-13 5.5t-5 13.5q0 8 5 13t13 5q8 0 13.5-5t5.5-13q0-8-5.5-13.5T156 131zm0 62q-8 0-13 5.5t-5 13.5q0 8 5 13.5t13 5.5q8 0 13.5-5.5T175 212q0-8-5.5-13.5T156 193zm0 63q-8 0-13 5.5t-5 13.5q0 8 5 13t13 5q8 0 13.5-5t5.5-13q0-8-5.5-13.5T156 256zm63-188q-8 0-13.5 5.5T200 87q0 8 5.5 13.5T219 106q8 0 13.5-5.5T238 87q0-8-5.5-13.5T219 68zm62 0q-8 0-13 5.5T263 87q0 8 5 13.5t13 5.5q8 0 13.5-5.5T300 87q0-8-5.5-13.5T281 68z"/></svg>