<svg viewBox="0 0 300 310" xmlns="http://www.w3.org/2000/svg"><path d="M101 306q-20 0-36-12t-22-31q-19-6-31-22T0 205q0-17 8-31t22.5-22.5Q45 143 61 143q15 0 27 7l56-55q-7-13-7-28 0-16 8.5-30T168 14.5Q182 6 199 6q20 0 36 12t22 31q19 6 31 22t12 36q0 17-8.5 31T269 160.5q-14 8.5-30 8.5-15 0-28-7l-55 55q6 13 6 28 0 16-8 30.5T132 298q-14 8-31 8zM61 181q-9 0-16 7t-7 17q0 10 6 16.5t16 7.5l16 1 1 16q1 9 8 15.5t16.5 6.5q9.5 0 16.5-7t7-16.5q0-9.5-7-16.5l-12-13 103-104 13 13q7 7 16.5 7t17-7q7.5-7 7.5-17t-6.5-16.5Q250 84 240 83l-16-1-1-16q-1-10-8-16.5T198.5 43q-9.5 0-16.5 7.5t-7 17q0 9.5 7 16.5l12 13L91 200l-13-12q-7-7-17-7z"/></svg>