<svg viewBox="0 0 300 310" xmlns="http://www.w3.org/2000/svg"><path d="M150 131q17 0 31.5-8.5t22.5-23q8-14.5 8.5-31t-8-31q-8.5-14.5-23-23T150 6q-17 0-31.5 8.5T96 37.5q-8 14.5-8 31t8 31q8 14.5 22.5 23T150 131zm0-88q10 0 17.5 7.5t7.5 18q0 10.5-7.5 18T150 94q-10 0-17.5-7.5t-7.5-18q0-10.5 7.5-18T150 43zm150 188h-50v-19q0-18-9.5-34t-25-25.5Q200 143 181 143h-62q-19 0-34.5 9.5t-25 25.5Q50 194 50 212v19H0v37h13v38h37v-38h200v38h38v-38h12v-37zm-87-19v19h-43l-9-29 14-21h6q13 0 22.5 9t9.5 22zm-125 0q-1-13 8.5-22t22.5-9h6l14 21-9 29H88v-19z"/></svg>