<svg viewBox="0 0 300 310" xmlns="http://www.w3.org/2000/svg"><path d="M150 6q-41 0-75.5 20T20 80.5Q0 115 0 156t20 75.5Q40 266 74.5 286t75.5 20q41 0 75.5-20t54.5-54.5q20-34.5 20-75.5t-20-75.5Q260 46 225.5 26T150 6zm0 262q-30 0-56-15t-41-41q-15-26-15-56t15-56q15-26 41-41.5T150 43q30 0 56 15.5t41.5 41.5q15.5 26 15.5 56t-15.5 56Q232 238 206 253t-56 15zM88 143H63v-18q0-16 11-27t26-11q15 0 26.5 11t11.5 27v18h-25v-13l-4 1q-6 0-10.5-4.5T94 115v-1q-6 4-6 11v18zm150-18v18h-25v-13l-4 1q-6 0-10.5-4.5T194 115v-1q-6 4-6 11v18h-25v-18q0-16 11-27t26-11q15 0 26.5 11t11.5 27zm-88 120q22 0 41-10.5t31.5-28Q235 189 238 167H63q2 22 14.5 39.5t31.5 28q19 10.5 41 10.5zm44-56q9 0 13 1-9 15-24 24t-33 9q4-15 16-24.5t28-9.5z"/></svg>