<svg viewBox="0 0 300 310" xmlns="http://www.w3.org/2000/svg"><path d="M150 243q24 0 44-11.5t31.5-31.5q11.5-20 11.5-44V93q0-23-11.5-43T194 18Q174 6 150 6t-44 12Q86 30 74 50T62 93v63q1 24 12.5 44t31.5 31.5q20 11.5 44 11.5zm0-200q21 1 35.5 15.5T200 93v13h-37v37h37v13q0 21-14.5 35.5T150 206q-21 0-35.5-14.5T100 156v-13h38v-37h-38V93q0-20 14.5-35T150 43zm113 125v5q-1 26-13.5 48T215 255.5Q193 268 167 268h-34q-26 0-48-12.5T50.5 221Q38 199 38 173v-5H0v5q0 36 18 66.5T66.5 288Q97 306 133 306h34q36 0 66.5-18t48.5-48.5q18-30.5 18-66.5v-5h-37z"/></svg>