<svg viewBox="0 0 300 310" xmlns="http://www.w3.org/2000/svg"><path d="M238 206q-1 14-9.5 24.5t-22 13Q193 246 181 239t-16.5-20q-4.5-13 0-25.5T181 174v-68h38v68q8 5 13.5 13.5T238 206zm62 0q0 27-13.5 50T250 292.5Q227 306 200 306t-50-13.5Q127 279 113.5 256T100 206q0-18 6.5-35t18.5-31V81q0-20 10-37t27.5-27.5Q180 6 200 6t37.5 10.5Q255 27 265 44t10 37v59q12 14 18.5 31t6.5 35zm-37 0q0-13-5.5-24.5T243 161l-5-5V81q-1-15-11.5-26T200 44q-16 0-27 11t-10 26v75l-6 5q-9 9-14.5 20.5T137 206q1 17 9 31.5t22.5 22.5q14.5 8 31.5 8.5t31.5-8q14.5-8.5 22.5-23t9-31.5zM100 6H63v49L20 31 1 63l43 24-43 24 19 33 43-24v48h18q6-20 19-36V6z"/></svg>