<svg viewBox="0 0 300 310" xmlns="http://www.w3.org/2000/svg"><path d="M256 18H44q-18 0-31 13T0 62v188q0 18 13 30.5T44 293h212q18 0 31-12.5t13-30.5V62q0-18-13-31t-31-13zm-68 238h-75v-19q0-2 1.5-4t4.5-2h62q3 0 5 2t2 4v19zm75-6q0 2-2 4t-5 2h-31v-19q0-18-13-31t-31-13h-62q-18 0-31 13t-13 31v19H44q-3 0-4.5-2t-1.5-4V62q0-2 1.5-4t4.5-2h212q3 0 5 2t2 4v188zM150 68q-23 0-39.5 16.5t-16.5 40q0 23.5 16.5 40T150 181q23 0 39.5-16.5t16.5-40q0-23.5-16.5-40T150 68zm0 75q-8 0-13.5-5t-5.5-13q0-8 5.5-13.5T150 106q8 0 13.5 5.5T169 125q0 8-5.5 13t-13.5 5z"/></svg>