<svg viewBox="0 0 300 310" xmlns="http://www.w3.org/2000/svg"><path d="M300 60l-27-12q-7-25-28-35.5T202 9q-22 7-32 28l-13 25q-23-10-46-24-12-8-18-13L68 6l-5 31-1 7q-13-8-18-13L17 7l-4 35q-2 11-1 27 2 30 11 58 13 38 39 68l-62 8v17q0 27 14 50 17 26 50 35l7 2 64-36 5 2q11 4 18 5 12 3 26 3 25 0 46-12.5t33-33q12-20.5 12-45.5V89l25-11V60zM184 243q-11 0-25-3-10-2-21-6l-8-3-63 35q-21-8-27-30l73-10 13-26-13-9q-30-23-46-56-12-24-16-53 23 15 47 23 30 12 59 13h12l34-64q4-7 11-9.5t14 1.5q9 4 9 21l1 123q0 22-16 37.5T184 243z"/></svg>