<svg viewBox="0 0 300 310" xmlns="http://www.w3.org/2000/svg"><path d="M244 193H56q-23 0-39.5 16.5T0 249.5q0 23.5 16.5 40T56 306h188q23 0 39.5-16.5t16.5-40q0-23.5-16.5-39.5T244 194v-1zm-53 38q-3 9-3 18.5t3 18.5h-82q3-9 3-18.5t-3-18.5h82zM38 250q0-8 5-13.5t13-5.5q8 0 13.5 5.5T75 250q0 8-5.5 13T56 268q-8 0-13.5-5T38 250zm206 18q-8 0-13.5-5t-5.5-13q0-8 5.5-13.5T244 231q8 0 13.5 5.5T263 250q0 8-5.5 13.5T244 268zM163 75q0-18-13-31t-31-13H69q-18 0-31 13T25 75v93h138V75zm-38 56H63V75q-1-3 1-5t5-2h50q2 0 4 2t2 5v56zm150 37h-87v-62q0-10 7-17.5t18-7.5h37q10 0 17.5 7.5T275 106v62z"/></svg>