<svg viewBox="0 0 300 310" xmlns="http://www.w3.org/2000/svg"><path d="M216 136q15-8 24.5-22.5t9.5-32q0-17.5-8.5-32t-23-23Q204 18 186.5 18t-33 10.5Q138 39 131 55q-19-23-49-35Q48 6 0 6v37q28 0 50 6-17 7-27 22.5t-10 34q0 18.5 9 33T46 161Q0 199 0 250q0 23 16.5 39.5t40 16.5Q80 306 96 289.5t16-39.5q0-33 14-61 9-19 24-33 15 14 24 33 14 28 14 61 0 23 16 39.5t39.5 16.5q23.5 0 40-16.5T300 250q0-39-27-71-21-24-57-43zm-28-80q10 0 17.5 7.5t7 17.5q-.5 10-7.5 17.5t-17.5 7.5q-10.5 0-18-7.5t-7-17.5q.5-10 7.5-17.5t17-7.5h1zm-88 50q0 10-7.5 17.5T75 131q-10 0-17.5-7.5T50 106q0-10 7.5-17.5T75 81q10 0 17.5 7.5T100 106zM75 250q0 8-5.5 13T56 268q-8 0-13-5t-5-13q0-24 16-44 13-17 37-31-16 35-16 75zm169 18q-8 0-13.5-5t-5.5-13q0-40-16-75 24 14 37 31 17 20 17 44 0 8-5.5 13t-13.5 5z"/></svg>