<svg viewBox="0 0 300 310" xmlns="http://www.w3.org/2000/svg"><path d="M263 68h37q-5 12-16 19t-23.5 7q-12.5 0-23-7T221 68H79q-6 12-16.5 19t-23 7Q27 94 16 87T0 68h38V31H0q5-11 16-18t23.5-7q12.5 0 23 7T79 31h142q6-11 16.5-18t23-7Q273 6 284 13t16 18h-37v37zm9 98q15 33 16 68v47h-25v25h-63v-25H100v25H38v-25H13v-47q0-35 15-68l23-48q6-11 16.5-17.5T91 93h118q13 1 23.5 7.5T249 118l23 48zM69 206q-8 0-13.5 5.5T50 225q0 8 5.5 13t13.5 5q8 0 13.5-5t5.5-13q0-8-5.5-13.5T69 206zm162-38l-16-33q-2-4-6-4H91q-4 0-6 4l-16 33h162zm0 38q-8 0-13.5 5.5T212 225h1q0 8 5 13.5t13 4.5q8 0 13.5-5t5.5-13q0-8-5.5-13.5T231 206z"/></svg>