<svg viewBox="0 0 300 310" xmlns="http://www.w3.org/2000/svg"><path d="M238 6H44q-13 0-22 9t-9 22v269h225q20 0 35-14.5t15-35.5V56q0-21-15-35.5T238 6zm12 50v152q-7-2-13-2h-84l23-38h54l-27-43 27-44h-54l-22-38h84q5 0 8.5 4t3.5 9zm-138 69l19-32h38l19 32-19 31h-38l-19-31zm4 31H93l11-19 12 19zm-12-43L93 93h23l-12 20zm34-32l12-19 12 19h-24zm46 12h23l-11 20-12-20zm12 44l11 19h-23l12-19zm-34 31l-12 20-12-20h24zM146 43l-22 38H70l27 44-27 43h54l23 38H50V43h96zm91 226H50v-26h188q5 0 8.5 4t3.5 9q0 5-3.5 8.5T237 268v1z"/></svg>