<svg viewBox="0 0 300 310" xmlns="http://www.w3.org/2000/svg"><path d="M100 168q16 0 27 11t11 27q0 16-11 26.5T100 243q-16 0-26.5-10.5T63 206q0-16 10.5-27t26.5-11zm200-62v81l-95 16q-4 1-5 5 0 19-8 36-10 24-30 40t-46 21q-8 1-16 1-21 0-40-8t-33-23.5q-14-15.5-21-35T0 199q2-26 16.5-47.5T54 118q23-12 49-12h197zm-37 37H103q-25 0-44 17t-21 42q-2 23 11.5 41.5t36 23.5q22.5 5 43-5.5T158 230q4-11 5-23 0-15 10.5-26.5T199 166l64-11v-12zM138 6h-38v62h38V6zm72 28l-33-18-30 54 33 18 30-54zM90 70L60 16 27 34l31 54 32-18z"/></svg>