<svg viewBox="0 0 300 310" xmlns="http://www.w3.org/2000/svg"><path d="M150 6q-41 0-75.5 20T20 80.5Q0 115 0 156q2 57 33 95 29 35 73 47.5t88 0q44-12.5 73-47.5 31-38 33-95 0-41-20-75.5T225.5 26Q191 6 150 6zm0 262q-31 0-56.5-15T53 212.5Q38 187 37 156q2-43 26-72 21-26 54-35t66 0q33 9 54 35 24 29 26 72-1 31-16 56.5T206.5 253Q181 268 150 269v-1zm0-75q38 0 75-12-7 25-25 42-21 20-50 20t-50-20q-18-17-25-42 37 12 75 12zm-87-81q0-8 5-13.5T81 93q8 0 13.5 5.5T100 112q2-12 9.5-16.5t16-1q8.5 3.5 11 13T132 129q-10 15-32 30l-10-7q-11-9-18-18-9-12-9-22zm175 0q0 10-10 22-7 9-18 18l-10 7q-22-15-32-30-7-12-4.5-21.5t11-13q8.5-3.5 16 1T200 112q0-8 5.5-13.5T219 93q8 0 13.5 5.5T238 112z"/></svg>