<svg viewBox="0 0 300 310" xmlns="http://www.w3.org/2000/svg"><path d="M50 37q0-13 9-22t22-9q13 0 22 9t9.5 22q.5 13-9 22.5t-22.5 9Q68 68 59 59t-9-22zm100 128q-12 14-18.5 30.5T125 231v75H88v-75H75v75H38v-75H13V125q0-18 12.5-31T56 81h50q18 0 31 13t13 31v40zM50 193h63v-68q-1-3-2.5-5t-4.5-2H56q-2 0-4 2t-2 5v68zm250 38q0 20-10 37.5T262.5 296Q245 306 225 306t-37.5-10Q170 286 160 268.5T150 231q0-20 10-37.5t27.5-27.5q17.5-10 37.5-10t37.5 10q17.5 10 27.5 27.5t10 37.5zm-62 25h-25v25h25v-25zm0-75h-25v62h25v-62z"/></svg>