<svg viewBox="0 0 300 310" xmlns="http://www.w3.org/2000/svg"><path d="M131 37q0-8 5.5-13.5T150 18q8 0 13.5 5.5T169 37q0 8-5.5 13.5T150 56q-8 0-13.5-5.5T131 37zm107 131q-1 24-12.5 44T194 244q-20 12-44 12t-44-12q-20-12-32-32t-11.5-43.5q.5-23.5 12-43.5T106 93q20-12 44-12t44 12q20 12 32 32t12 43zm-88 50q10 0 20-3l-33-33 26-27 33 33q4-9 4-20 0-20-14.5-35T150 118.5q-21 .5-35.5 15t-14.5 35q0 20.5 14.5 35T150 218zM19 150q-8 0-13.5 5.5t-5.5 13q0 7.5 5.5 13T19 187q8 0 13.5-5.5t5.5-13q0-7.5-5.5-13T19 150zm262 0q-8 0-13 5.5t-5 13q0 7.5 5 13t13 5.5q8 0 13.5-5.5t5.5-13q0-7.5-5.5-13T281 150zM56 93q8 1 13.5-4.5T75 75q0-8-5.5-13.5T56 56q-8 0-13 5.5T38 75q0 8 5 13.5T56 94v-1zm188 150q-8 1-13.5 6t-5.5 13q0 8 5.5 13.5T244 281q8 0 13.5-5.5t5-13.5q-.5-8-5.5-13.5t-13-4.5v-1zm-188 0q-8 0-13 5.5T38 262q0 8 5 13.5t13 5.5q8 0 13.5-5.5T75 262q0-8-5.5-13.5T56 244v-1zM244 93q8 1 13.5-4.5t5-13.5q-.5-8-5.5-13.5T244 56q-8 0-13.5 5.5T225 75q0 8 5.5 13.5T244 94v-1z"/></svg>