<svg viewBox="0 0 300 310" xmlns="http://www.w3.org/2000/svg"><path d="M56 181q-23 0-39.5 16.5T0 237.5q0 23.5 16.5 40t40 16Q80 293 96 277t16-39.5q0-23.5-16-40T56 181zm0 75q-8 0-13-5.5T38 237q0-8 5-13.5t13-5.5q8 0 13.5 5.5T75 237q0 8-5.5 13.5T56 256zm188-75q-24 0-40 16.5t-16 40q0 23.5 16 40t39.5 16q23.5-.5 40-16.5t16.5-39.5q0-23.5-16.5-40T244 181zm0 75q-8 0-13.5-5.5T225 237q0-8 5.5-13.5T244 218q8 0 13.5 5.5T263 237q0 8-5.5 13.5T244 256zM175 50q0-13 9-22.5t22-9.5q13 0 22 9.5t9.5 22.5q.5 13-9 22T206 81q-13 0-22-9t-9-22zm-48 104l42 30v72h-38v-53l-28-20q-12-10-15-25t5-28q-8-3-13-9.5T75 106q0-11 10-21 8-8 19.5-12.5T124 68q27 1 49 18l65 56-24 28-55-47-33 22q-1 2-1 4.5t2 4.5z"/></svg>