<svg viewBox="0 0 300 310" xmlns="http://www.w3.org/2000/svg"><path d="M169 150h31v37h-31v31h-38v-31h-31v-37h31v-32h38v32zm77 98l30 33-27 25-31-33q-31 21-68 21t-68-21l-31 33-27-25 30-33q-14-16-21.5-36.5T25 168q0-30 14-56.5t38.5-44Q102 50 131 45V6h38v39q29 5 53.5 22.5t38.5 44q14 26.5 14 56.5 0 23-7.5 43.5T246 248zm-96 8q24 0 44-12t32-32q12-20 12-43.5T226 125q-12-20-32-32t-44-12q-24 0-44 12t-31.5 32Q63 145 63 168.5T74.5 212Q86 232 106 244t44 12zM76 38L56 7Q23 26 0 56l31 21q19-24 45-39zm193 39l31-21q-23-30-56-49l-20 31q26 15 45 39z"/></svg>