<svg viewBox="0 0 300 310" xmlns="http://www.w3.org/2000/svg"><path d="M263 50q0-8 5-13.5t13-5.5q8 0 13.5 5.5T300 50q0 8-5.5 13.5t-13.5 5q-8-.5-13-5.5t-5-13zM25 81H0v37h25q5 0 8.5 4t4 9q.5 5-3.5 8.5t-9 3.5H15v38h10q5 0 9 3.5t4 9q0 5.5-4 9t-9 3.5H0v37h25q21 0 35.5-14.5T75 193q0-17-11-31 11-13 11-31 0-21-14.5-35.5T25 81zm163 112q0 21-15 35.5T137.5 243q-20.5 0-35-14.5T88 193v-52q-1-16 7.5-30T118 89q14-8 30-8h27v37h-27q-10 0-16.5 7t-6.5 16v4q6-1 13-2 20 0 35 15t15 36v-1zm-38 0q0-5-3.5-8.5t-9-3.5q-5.5 0-9 3.5t-3.5 9q0 5.5 3.5 9t9 3.5q5.5 0 9-3.5t3.5-8.5v-1zm150-62v62q0 21-14.5 35.5T250 243q-21 0-35.5-14.5T200 193v-62q0-21 14.5-35.5T250 81q21 0 35.5 14.5T300 131zm-37 0q0-5-4-8.5t-9-4q-5-.5-9 3.5t-4 9v62q0 6 4 9.5t9 3.5q5 0 9-3.5t4-8.5v-63z"/></svg>