<svg viewBox="0 0 300 310" xmlns="http://www.w3.org/2000/svg"><path d="M176 143h24v38h-24l12 21-32 18-12-20-12 20-32-18 11-21H88v-38h23l-11-20 32-19 12 21 11-21 33 19-12 20zm-77 83l-35 61 33 19 35-61-33-19zm31 61l33 19 35-61-33-19-35 61zm170-125q0-23-10.5-43T261 86q-18-13-41-16-12-29-37.5-46T126 6q-20 0-38.5 7.5T54.5 35Q40 49 32.5 67.5T25 106q0 12 2 24-13 10-20 24.5T0 186v1q0 24 14.5 44T52 258l19-34-9-1-4-2q-9-5-14.5-14T37 187l1-1q-1-10 4.5-18.5T57 155l15-8-6-16q-4-12-4-25t5-24.5Q72 70 81 61t21-13.5q12-4.5 24-4.5 22 1 39 15t23 35l4 13h14q23 0 39.5 16.5T263 162q-1 17-9 31l-37 68q23-4 42-18.5t30-35.5q11-21 11-45z"/></svg>