<svg viewBox="0 0 300 310" xmlns="http://www.w3.org/2000/svg"><path d="M37 37q0-13 9-22t22-9q13 0 22.5 9t9.5 22q0 13-9.5 22.5t-22.5 9Q55 68 46 59t-9-22zm262 132l-11-53q-3-15-15-25t-28-10h-15q-12 0-22 6t-16 16l-16 28h-52l-16-28q-6-10-16-16t-22-6H55q-16 0-28 10t-15 25L1 169q-3 13 2.5 25.5T20 215l43 26v65h37v-85l-34-22 15-68 32 55v20h75v-20l31-55 15 68-34 22v85h38v-65l42-26q11-8 16.5-20.5T299 169zM231 68q13 0 22.5-9t9.5-22q0-13-9.5-22T231 6q-13 0-22 9t-9 22q0 13 9 22t22 9zm21 193l10 45h38l-15-65-33 20zM0 306h38l10-45-33-20-15 65z"/></svg>