<svg viewBox="0 0 301 310" xmlns="http://www.w3.org/2000/svg"><path d="M218 81q-16-14-36.5-20.5T139 57q-34 3-58.5 27.5T52 143q-4 26 8 52 10 24 27 39 7 6 10.5 14.5T101 267v39h100v-41q0-10 3.5-18.5T215 233q17-15 26.5-35t9.5-41.5q0-21.5-9-41T217 81h1zm-27 123q-13 11-20 27h-1v-55q8-5 13-13.5t5-19.5h-74q0 11 5 19.5t13 13.5v55h-1q-7-15-18.5-25T94 181q-7-17-5-33 2-21 17.5-36.5T143 94q29-3 50 15 9 9 14.5 21.5t5.5 26q0 13.5-5.5 26T191 204zm40-141l-32-19 23-38 32 20-23 38v-1zm69 30l-38 17-16-34 39-18 15 35zM70 64L47 26 79 6l23 38-32 20zM56 77l-16 34L0 92l16-33 40 18z"/></svg>