<svg viewBox="0 0 300 310" xmlns="http://www.w3.org/2000/svg"><path d="M238 93v38h-38V93h38zm15 83l-90 91v39h38l91-91q8-8 8-19.5t-8-19.5q-8-8-19.5-7.5T253 176zm-78 11q0-14-8.5-26T144 145l-39-13q-5-2-5-7 0-3 2-4.5t4-1.5h25q3-1 5 1t2 5v6h37v-6q0-17-10.5-29T138 82V68h-38v14q-16 2-26.5 14T63 123.5q0 15.5 8 27.5t22 16l40 13q5 2 5 7 0 3-2 4.5t-5 1.5h-25q-2 1-4-1t-2-5v-6H63v6q0 17 10.5 29t26.5 14v13h38v-13q15-2 26-14t11-29zm81-169H44q-18 0-31 13T0 62v231h138v-37H38V62q0-2 1.5-4t4.5-2h212q3 0 5 2t2 4v83q19-4 37 6V62q0-18-13-31t-31-13z"/></svg>