<svg viewBox="0 0 300 310" xmlns="http://www.w3.org/2000/svg"><path d="M74 78q4 0 7-3t3-6.5q0-3.5-3-6.5t-7-3h-9v19h9zm130 24q8 0 12-6t4-14q0-8-3-14-4-9-13-9h-9v43h9zm59-96H38Q22 6 11 17T0 44v262h218l82-82V43q0-15-11-26T262 6h1zm-84 38h25q14 0 22.5 10t8.5 27q0 14-8 24.5T205 118h-25l-1-74zm-39 45q-9-4-18-7-5-3-7.5-8.5T113 62q1-6 5-11t11-6.5q7-1.5 15 0t15 6.5l6 5-10 12-6-5q-7-5-16-4-4 1-4.5 4t1.5 5l16 6q8 2 13 9t3.5 16q-1.5 9-8.5 14.5t-16 5.5q-16 0-27-12l-5-6 11-10 6 6q6 6 15 6 3 0 6-1.5t4-5.5q1-4-8-7zM50 43h24q11 0 18 7.5t7 18Q99 79 92 86t-18 7h-9v26H50V43zm213 150h-75v75H38V144h225v49z"/></svg>