<svg viewBox="0 0 300 310" xmlns="http://www.w3.org/2000/svg"><path d="M169 156q0 8-5.5 13.5T150 175q-8 0-13.5-5.5T131 156q0-8 5.5-13.5T150 137q8 0 13.5 5.5T169 156zm131 98l-33-37q-13-14-29-23 0 13-4 27-6 25-22.5 44T172 295q-23 11-50 11H52l37-33q14-13 23-30-13 0-27-3-25-6-44-22.5T11 178Q0 155 0 128V58l33 37q13 14 30 23-1-13 3-27 6-25 22.5-44T128 17q23-11 50-11h70l-37 33q-14 13-23 29 13 0 27 4 25 6 44 22.5t30 39.5q11 23 11 50v70zm-40-91q-6-20-20.5-35T206 108q-17-4-33-1-7 2-13 0t-10.5-7q-4.5-5-6-11.5T144 75q5-15 13-29-20 6-35 20.5T102 100q-4 17-1 33 2 7 0 13t-7 10.5q-5 4.5-11.5 6T69 162q-15-5-29-13 6 20 20.5 35T94 204q17 4 33 1l5-1q11 0 19 8 4 5 5.5 11.5T156 237q-5 15-13 29 20-6 35-20.5t20-33.5q4-17 1-33-2-7 0-13t7-10.5q5-4.5 11.5-6t13.5.5q15 5 29 13z"/></svg>