<svg viewBox="0 0 300 310" xmlns="http://www.w3.org/2000/svg"><path d="M218 88q6 7 7 14.5t-3.5 12Q217 119 209 118t-14-7q-6-6-7-14t3.5-12.5q4.5-4.5 12-3.5t13.5 7h1zm62 85q-30 29-71 47-29 13-62 20-18 3-30 3l-8 1-10-10-31 30q7 7 7 17t-7.5 17.5Q60 306 50 306t-17.5-7.5Q25 291 25 281q-10 0-17.5-7.5T0 256q0-10 7.5-17.5T25 231q10 0 17 7l30-31-10-10 1-9q0-12 4-30 7-33 20-63 18-41 46-69 16-15 39-18.5t48 5.5q25 9 44.5 28.5T293 86q9 25 5.5 48T280 173zm-88 14q-24-9-43.5-28.5T120 115q-14 32-19 68l22 22q36-4 69-18zm46-119q-12-12-26-18t-27-6q-16 0-25 8.5T150 75q-1 14 5.5 29t19.5 28q20 20 45 23 21 4 33-8 8-9 9-22.5t-5.5-29Q250 80 238 68z"/></svg>