<svg viewBox="0 0 300 310" xmlns="http://www.w3.org/2000/svg"><path d="M198 16q-7-7-17-9t-19.5 1q-9.5 3-16 10.5T138 36q-1 5-4.5 8.5T125 49q-13 2-23 11.5T90 84q0 5-3.5 8.5T77 96q-13 2-22.5 11.5T43 131q-1 5-4.5 8.5T29 144q-9 1-16.5 7.5T2 167.5Q-1 177 1 187t9 17l101 101 12-23q3-6 8-9l3-1q14-4 24-13 12-13 15-31 0-1 2-2 18-2 30.5-14.5T220 181q1-2 3-2 17-3 30-15 11-12 14-27 4-5 9-8l24-11L198 16zM65 166q13-12 15-30 0-2 2-2 18-3 30.5-15.5T127 88q1-2 3-2 16-2 28.5-13T174 46l19 18q-7 8-8 19-1 5-4.5 8.5T172 96q-14 2-23.5 11.5T137 130q0 5-4 9t-9 4q-13 2-22.5 11.5T90 178q-1 5-4.5 8.5T77 191q-11 1-19 8l-18-19q14-3 25-14zm166-39q-1 5-4.5 9.5T218 141q-14 2-23.5 12T183 176q-1 5-4.5 8.5T170 189q-13 2-23 11.5T135 224q0 5-4 8t-9 4l-3 1q-8 3-14 9l-19-19q17-3 28-15.5t13-28.5q0-2 2-3 18-2 30.5-14.5T174 135q1-2 3-2 17-2 30-15 11-11 14-26l19 19q-6 7-9 16z"/></svg>