<svg viewBox="0 0 300 310" xmlns="http://www.w3.org/2000/svg"><path d="M188 125q0-8 5-13.5t13-5.5q8 0 13.5 5.5T225 125v50q0 8-5.5 13t-13.5 5q-8 0-13-5t-5-13v-50zm68-19q-8 0-13 5.5t-5 13.5v50q0 8 5 13t13 5q8 0 13.5-5t5.5-13v-50q0-8-5.5-13.5T256 106zm-18 108v54H114l-44-41 47-49q8-8 8-18.5t-7.5-18q-7.5-7.5-18-7.5T81 142l-44 45q-12 13-12 31t13 31l61 57h176v-92q-9 4-18.5 4t-19.5-4h1zm-90-39l39-146q2-7-2-13.5T173.5 7Q166 5 159 9t-8 11l-26 97q6 3 10 7 10 10 13 24t-1 27h1zm-64-63q8-3 16-3 12 0 24 7L99 20q-2-8-8.5-11.5T76.5 7Q69 9 65 15.5T63 29l21 83zm104 13q0-8 5-13.5t13-5.5q8 0 13.5 5.5T225 125v50q0 8-5.5 13t-13.5 5q-8 0-13-5t-5-13v-50zm68-19q-8 0-13 5.5t-5 13.5v50q0 8 5 13t13 5q8 0 13.5-5t5.5-13v-50q0-8-5.5-13.5T256 106zm-18 108v54H114l-44-41 47-49q8-8 8-18.5t-7.5-18q-7.5-7.5-18-7.5T81 142l-44 45q-12 13-12 31t13 31l61 57h176v-92q-9 4-18.5 4t-19.5-4h1zm-90-39l39-146q2-7-2-13.5T173.5 7Q166 5 159 9t-8 11l-26 97q6 3 10 7 10 10 13 24t-1 27h1zm-64-63q8-3 16-3 12 0 24 7L99 20q-2-8-8.5-11.5T76.5 7Q69 9 65 15.5T63 29l21 83z"/></svg>