<svg viewBox="0 0 301 310" xmlns="http://www.w3.org/2000/svg"><path d="M170 6q-24 0-40 16-10 11-13.5 25.5T117 77l5 20q-12 9-23 20l-46 46q-2 2-6 2t-6.5-2.5q-2.5-2.5-2.5-6t3-6.5l33-34-26-26-34 33Q0 137 0 156.5T14 189q11 11 27 13t30-6l7 7-37 36 27 27 36-37 7 7q-8 14-6 29.5t14 26.5q13 14 32.5 14t32.5-14l34-33-26-27-34 34q-3 3-6.5 2.5t-6.5-3q-3-2.5-3-6t3-6.5l45-45q10-10 20-23l20 5q8 2 16 2 23 0 39-15.5t16-39.5V6H170zm-7 176l-27 27-38-38 27-27q18-18 43-30 19-10 40-15-5 21-15 40-12 25-30 43zm101-45q0 8-6 14-3 3-8 3.5t-10-.5l-11-3q11-24 18-51 3-14 4-23l2-23-23 2q-9 1-23 4-27 7-51 18l-3-11q-1-5-.5-10t3.5-8q6-6 14-6h94v94z"/></svg>