<svg viewBox="0 0 300 310" xmlns="http://www.w3.org/2000/svg"><path d="M150 6q-41 0-75.5 20T20 80.5Q0 115 0 156t20 75.5Q40 266 74.5 286t75.5 20q41 0 75.5-20t54.5-54.5q20-34.5 20-75.5t-20-75.5Q260 46 225.5 26T150 6zm0 262q-31 0-56.5-15T53 212.5Q38 187 38 156t15-56.5Q68 74 93.5 59T150 43.5q31-.5 56.5 15t41 41Q263 125 263 156t-15.5 56.5Q232 238 206.5 253T150 268zm50-112h25q0 28-18 48.5T163 230v26h-25v-26q-27-5-45-25.5T75 156h25q0 21 14.5 35.5T150 206q21 0 35.5-14.5T200 156zm-75 0V93q0-10 7.5-17.5T150 68q10 0 17.5 7.5T175 93h-25v25h25v13h-25v25h25q0 10-7.5 17.5T150 181q-10 0-17.5-7.5T125 156z"/></svg>