<svg viewBox="0 0 300 310" xmlns="http://www.w3.org/2000/svg"><path d="M300 81q-9 6-25 16 9 12 19 28-19 5-56 9 20 36 6 71-9 26-39 56-20 20-38 31-24 14-47 14-39 0-79-41-33-33-39-65-6-27 9-55 10-20 34-44 30-30 56-39 35-14 71 6 3-37 9-56 16 10 28 19 9-16 16-25 10 12 15 20l4 5 7-3q9-4 17-6 11-4 19-4 0 12-6 29-3 9-6 15l5 3q8 6 20 16zm-117 42q-30-30-54-30-13 0-28 9-12 8-29 26-22 21-29 36-9 17-3.5 35T67 239q22 22 40 27.5t35-3.5q15-7 36.5-28.5T207 198q9-17 3.5-35T183 123zM75 231h44l-44-44v44zm63-62h43l-43-44v44zm-63 0h44l-44-44v44zm63 62h43l-43-44v44z"/></svg>