<svg viewBox="0 0 300 310" xmlns="http://www.w3.org/2000/svg"><path d="M150 181q-24 0-45-11-11-6-18-13l26-27q4 4 10 7 13 7 27 7t27-7q6-3 10-7l26 27q-7 7-18 13-21 11-45 11zM119 81q-8 0-13.5 5.5T100 100q0 8 5.5 13.5T119 119q8 0 13.5-5.5t5-13.5q-.5-8-5.5-13.5T119 81zm62 0q-8 0-13.5 5.5t-5 13.5q.5 8 5.5 13.5t13 5.5q8 0 13.5-5.5T200 100q0-8-5.5-13.5T181 81zm57 138q24-24 32.5-56t0-64Q262 67 238 43q-17-18-40-27.5T150 6q-25 0-48 9.5T62 43Q38 67 29.5 99t0 64Q38 195 62 220l88 86 88-87zM212 69q12 13 19 28.5t7 33.5q0 18-7 33.5T212 193l-62 60-62-60q-17-17-22.5-39.5t0-45Q71 86 88 69q13-12 28.5-18.5T150 44q18 0 33.5 6.5T212 69z"/></svg>