<svg viewBox="0 0 300 310" xmlns="http://www.w3.org/2000/svg"><path d="M300 175H0v-38h300v38zM19 6q-8 0-13.5 5.5T0 25q0 8 5.5 13T19 43q8 0 13.5-5T38 25q0-8-5.5-13.5T19 6zm0 62q-8 0-13.5 5.5T0 87q0 8 5.5 13.5T19 106q8 0 13.5-5.5T38 87q0-8-5.5-13.5T19 68zm262 0q-8 0-13 5.5T263 87q0 8 5 13.5t13 5.5q8 0 13.5-5.5T300 87q0-8-5.5-13.5T281 68zM19 206q-8 0-13.5 5.5T0 225q0 8 5.5 13t13.5 5q8 0 13.5-5t5.5-13q0-8-5.5-13.5T19 206zm262 0q-8 0-13 5.5t-5 13.5q0 8 5 13t13 5q8 0 13.5-5t5.5-13q0-8-5.5-13.5T281 206zm0-200q-8 0-13 5.5T263 25q0 8 5 13t13 5q8 0 13.5-5t5.5-13q0-8-5.5-13.5T281 6zm-62 0q-8 0-13.5 5.5T200 25q0 8 5.5 13t13.5 5q8 0 13.5-5t5.5-13q0-8-5.5-13.5T219 6zm-69 0q-8 0-13.5 5.5T131 25q0 8 5.5 13t13.5 5q8 0 13.5-5t5.5-13q0-8-5.5-13.5T150 6zM81 6q-8 0-13 5.5T63 25q0 8 5 13t13 5q8 0 13.5-5t5.5-13q0-8-5.5-13.5T81 6zM19 268q-8 0-13.5 5.5T0 287q0 8 5.5 13.5T19 306q8 0 13.5-5.5T38 287q0-8-5.5-13.5T19 268zm262 0q-8 0-13 5.5t-5 13.5q0 8 5 13.5t13 5.5q8 0 13.5-5.5T300 287q0-8-5.5-13.5T281 268zm-62 0q-8 0-13.5 5.5T200 287q0 8 5.5 13.5T219 306q8 0 13.5-5.5T238 287q0-8-5.5-13.5T219 268zm-69 0q-8 0-13.5 5.5T131 287q0 8 5.5 13.5T150 306q8 0 13.5-5.5T169 287q0-8-5.5-13.5T150 268zm-69 0q-8 0-13 5.5T63 287q0 8 5 13.5t13 5.5q8 0 13.5-5.5T100 287q0-8-5.5-13.5T81 268zm88-43q0-8-5.5-13.5T150 206q-8 0-13.5 5.5T131 225q0 8 5.5 13t13.5 5q8 0 13.5-5t5.5-13zm0-138q0-8-5.5-13.5T150 68q-8 0-13.5 5.5T131 87q0 8 5.5 13.5T150 106q8 0 13.5-5.5T169 87z"/></svg>