<svg viewBox="0 0 300 310" xmlns="http://www.w3.org/2000/svg"><path d="M175 125q0-8 5.5-13.5T194 106q8 0 13.5 5.5t5 13.5q-.5 8-5.5 13.5t-13 5q-8-.5-13.5-5.5t-5.5-13zm-69 18q8 0 13.5-5t5.5-13q0-8-5.5-13.5T106 106q-8 0-13.5 5.5t-5 13.5q.5 8 5.5 13.5t13 5.5v-1zm44 25q-16 1-34-5-9-2-14-5l-17 34q8 3 20 7 23 7 45 7t45-7q12-4 20-7l-17-34q-5 3-14 5-18 5-34 5zm150-50v75h-25v90q0 9-7 16t-16 7q-4 0-8-1l-68-36H25v-75H0v-75h25V87q0-18 13-30.5T69 44h62V6h38v37h62q18 0 31 13t13 31v31h25zm-62-31q0-2-2-4t-5-2H69q-3 0-4.5 2T63 87v144h122l52 28 1-172z"/></svg>