<svg viewBox="0 0 300 310" xmlns="http://www.w3.org/2000/svg"><path d="M173 15l68 69-26 26-46-45v178h-37V65l-46 45-26-26 68-69q9-9 22.5-9t22.5 9zm103 253q-8 0-13.5 5.5T257 287q0 8 5.5 13.5t13 5.5q7.5 0 13-5.5T294 287q0-8-5.5-13.5T276 268zm-188 0q-8 0-13.5 5.5T69 287q0 8 5.5 13.5T88 306q8 0 13.5-5.5T107 287q0-8-5.5-13.5T88 268zm-62 0q-8 0-13.5 5.5T7 287q0 8 5.5 13.5t13 5.5q7.5 0 13-5.5T44 287q0-8-5.5-13.5T26 268zm125 0q-8 0-13.5 5.5T132 287q0 8 5.5 13.5t13 5.5q7.5 0 13-5.5T169 287q0-8-5.5-13.5T151 268zm62 0q-8 0-13.5 5.5T194 287q0 8 5.5 13.5T213 306q8 0 13.5-5.5T232 287q0-8-5.5-13.5T213 268z"/></svg>