<svg viewBox="0 0 300 310" xmlns="http://www.w3.org/2000/svg"><path d="M238 6q-23 0-40 14t-22 36H25v75h38V93h25v38h37V93h51q5 22 22 36t40 14q16 0 30.5-8t23-22.5Q300 98 300 81V68q0-16-8.5-30.5t-23-23Q254 6 238 6zm25 75q0 10-7.5 17.5t-18 7.5q-10.5 0-17.5-7.5T213 81V68q0-10 7-17.5t17.5-7.5q10.5 0 18 7.5T263 68v13zm-25 137h-25v-37h-38v37h-51q-5-21-22-35.5T63 168q-17 0-31.5 8.5t-23 23Q0 214 0 231v12q0 17 8.5 31.5t23 23Q46 306 63 306q22 0 39-14t22-36h151v-75h-37v37zM88 243q0 11-7.5 18t-18 7Q52 268 45 261t-7-18v-12q0-10 7-17.5t17.5-7.5q10.5 0 18 7.5T88 231v12z"/></svg>