<svg viewBox="0 0 300 310" xmlns="http://www.w3.org/2000/svg"><path d="M12 118L0 6l112 12v10q0 20-14 41t-35 35q-21 14-41 14H12zm51 0q0 18 9 33 11 17 28 17t28-17q10-15 10-33l-15 7q-15 6-23 6t-23-6l-14-7zm100 0q0 18 9 33 11 17 28 17t28-17q9-15 10-33l-15 7q-15 6-23 6t-23-6l-14-7zm100 38q-17 0-28 12l28 25h-76q-1-5-5.5-8.5T172 181h-47v62h47q5 0 9.5-3.5t5.5-8.5h76q15 0 26-11t11-26.5q0-15.5-11-26.5t-27-11h1zm-3-25h2q21 0 37 12-3-38-23.5-69.5T222 24Q189 6 150 6l-13 1v21q0 8-1 17 8-2 14-2 26 0 49 11.5T238 86q16 20 22 45zM150 268q-31 0-56.5-15t-41-40.5Q37 187 37 156q1-6 2-14-9 1-17 1H1l-1 13q0 41 20 75.5T74.5 286q34.5 20 75.5 20 33 0 61.5-13.5T261 256h-60q-24 12-51 12z"/></svg>