<svg viewBox="0 0 300 310" xmlns="http://www.w3.org/2000/svg"><path d="M300 268H0V87q0-18 13-31t31-13h212q18 0 31 13t13 31v181zM38 231h225V87q0-2-2-4t-5-2H44q-3 0-4.5 2T38 87v144zm112-38q-16 0-26.5-10.5T113 156q0-16 10.5-27t26.5-11q16 0 27 11t11 27q0 16-11 27t-27 10zM69 93q-8 0-13.5 5.5T50 112q0 8 5.5 13.5T69 131q8 0 13.5-5.5T88 112q0-8-5.5-13.5T69 93zm144 19q0 8 5 13.5t13 5.5q8 0 13.5-5.5T250 112q0-8-5.5-13.5T231 93q-8 0-13.5 5.5T212 112h1zM69 181q-8 0-13.5 5.5T50 200q0 8 5.5 13t13.5 5q8 0 13.5-5t5.5-13q0-8-5.5-13.5T69 181zm144 19q0 8 5 13t13 5q8 0 13.5-5t5.5-13q0-8-5.5-13.5T231 181q-8 0-13.5 5.5T212 200h1z"/></svg>