<svg viewBox="0 0 300 310" xmlns="http://www.w3.org/2000/svg"><path d="M206 59v-1q-28-24-43-38L150 7l-13 13q-30 33-42 76l-8-33-23 22q-21 20-31 38-14 24-14 53t12 55.5q12 26.5 34.5 45T116 302q17 5 34 5 26 0 50-10t42.5-28.5Q261 250 271 226t10-50q0-26-11-47-8-18-27-37-11-11-37-33zm1 190l-2 2-2 1q4-10 4-22 0-15-10-28-6-9-24-24-15-13-23-21-9 9-25 22-17 16-23 23-10 13-10 28 1 12 6 24-20-14-30.5-34.5t-11-44Q56 152 71 133l4 6q5 7 13 9.5t16.5 1Q113 148 119 142t7-15q7-35 26-66 10 9 29 26h1q24 20 34 31 14 14 20.5 27.5T243 176q0 21-9.5 40.5T207 249z"/></svg>