<svg viewBox="0 0 300 310" xmlns="http://www.w3.org/2000/svg"><path d="M188 133q0 13-13 29-10 12-25 24l-12 10-13-10q-15-12-25-24-12-16-12-28t7-20q7-8 17.5-8t18 7q7.5 7 7.5 18 0-11 7-18t17.5-7q10.5 0 18 8t7.5 19zm25 135h11q16 0 28.5-10.5T267 231l4-31h29v-36l-10-22q-14-32-21-46-11-23-20-35-24-31-60-45t-75-8q-39 6-69 33.5T5 107q-9 33-1.5 65.5T33 232q5 5 5 12v62h175v-38zM75 244q0-21-13-36-16-20-21.5-43.5T41 117q7-28 29-47.5T120.5 45q28.5-5 55 5.5T219 84q8 10 18 31 6 14 19 42l2 5h-19l-9 64q-1 2-2.5 3.5T224 231h-49v38H75v-25z"/></svg>