<svg viewBox="0 0 300 310" xmlns="http://www.w3.org/2000/svg"><path d="M300 156q0-17-14-31t-40-23l1-7q5-31-3-51-6-14-17-20-16-9-35.5-3.5T150 45q-21-18-41-24t-35.5 3Q58 33 53 53t1 49q-25 9-39.5 22.5T0 155.5Q0 173 14 187t40 23q-5 28-.5 48.5T74 288q9 6 20 6 25 0 56-27l4 4q28 22 52 22 11 0 20-5 16-9 21-29t-1-49q25-9 39.5-22.5T300 156zm-150 31h-19l-9-15-9-16 9-16 9-14 19-1h19l9 15 9 16-9 16-9 15h-19zm58-131q2 1 3 8 2 10-1 25-1 10-5 23-14-22-29-40 12-10 22-14 7-3 10-2zM92 56q4-2 17 5 15 9 31 27-26 0-49 5-3-16-2-27 1-8 3-10zM38 156q0-4 12.5-11.5T83 132q-11 21-18 42-14-5-20.5-10.5T38 156zm54 100q-4-3-4-17 1-17 7-39 14 22 29 40-12 10-22 14-7 3-10 2zm116 0q-2 1-9-1-9-4-21-14-8-6-18-16 26-1 50-6 3 16 1 27-1 8-3 10zm9-76q11-21 18-42 14 5 20.5 10.5t6.5 8.5q0 3-12.5 10.5T217 180zm-48-24q0 8-5.5 13.5T150 175q-8 0-13.5-5.5T131 156q0-8 5.5-13.5T150 137q8 0 13.5 5.5T169 156z"/></svg>