<svg viewBox="0 0 300 310" xmlns="http://www.w3.org/2000/svg"><path d="M256 69h-31V50q0-18-13-31T181 6H44Q26 6 13 19T0 50v170q0 10 7 17t16 7q4 0 7-2l45-18v57h138l57 24q3 1 7 1 9 0 16-7t7-16V112q0-18-13-30.5T256 69zM38 50q0-3 1.5-4.5T44 44h137q3 0 5 1.5t2 4.5v131H80l-42 18-1-149h1zm224 211l-42-17H112v-25h113V106h31q3 0 4.5 2t1.5 4v149zM100 93H75q0-17 13.5-28.5T119 57q12 2 20 10t10 20q2 12-3 23t-15 16q-6 3-6 5h-25q0-11 7-18 4-4 11-9h1q3-1 5-4.5t1-8q-1-4.5-3.5-7T115 81q-6-1-10.5 3T100 94v-1zm0 50h25v25h-25v-25z"/></svg>