<svg viewBox="0 0 300 310" xmlns="http://www.w3.org/2000/svg"><path d="M219 143q-22 0-41 11t-29.5 30Q138 203 138 225t10.5 40.5Q159 284 178 295t41 11q22 0 40.5-11t29.5-29.5q11-18.5 11-40.5t-11-41q-11-19-29.5-30T219 143zm51 106l-27 26-24-24-24 24-27-26 24-24-24-25 27-26 24 24 24-24 27 26-25 25 25 24zm-156-6q4 21 15 38H0V50q0-18 13-31T44 6h159l72 72v57q-17-11-37-15V93l-50-50v50H63V43H44q-3 0-4.5 2T38 50v193h76zm17-125q10 0 18.5 4.5T164 134q-19 11-32 29t-17 40q-12-5-19.5-16T88 162q0-18 12.5-31t30.5-13zm88 25q-22 0-41 11t-29.5 30Q138 203 138 225t10.5 40.5Q159 284 178 295t41 11q22 0 40.5-11t29.5-29.5q11-18.5 11-40.5t-11-41q-11-19-29.5-30T219 143zm51 106l-27 26-24-24-24 24-27-26 24-24-24-25 27-26 24 24 24-24 27 26-25 25 25 24zm-156-6q4 21 15 38H0V50q0-18 13-31T44 6h159l72 72v57q-17-11-37-15V93l-50-50v50H63V43H44q-3 0-4.5 2T38 50v193h76zm17-125q10 0 18.5 4.5T164 134q-19 11-32 29t-17 40q-12-5-19.5-16T88 162q0-18 12.5-31t30.5-13z"/></svg>