<svg viewBox="0 0 300 310" xmlns="http://www.w3.org/2000/svg"><path d="M300 175q0-18-13-31t-31-13h-9q-6-22-24-36t-41.5-14q-23.5 0-42 14T115 131H44q-18 0-31 13T0 175v106h38v25h37v-25h150v25h38v-25h37V175zm-119-57q13 0 22 9.5t9.5 22.5q.5 13-9 22t-22.5 9q-13 0-22-9t-9-22q0-13 9-22.5t22-8.5v-1zm82 125H38v-68q0-3 1.5-5t4.5-2h71q6 22 24.5 36t42 14q23.5 0 41.5-14t24-36h9q3 0 5 2t2 5v68zM88 200q0 8-5.5 13.5t-13.5 5q-8-.5-13.5-5.5T50 200q0-8 5.5-13.5T69 181q8 0 13.5 5.5T88 200zM200 56h-37V6h37v50zm47 23l-32-19 25-43 32 18-25 44zm-132 0L90 35l33-18 25 43-33 19z"/></svg>