<svg viewBox="0 0 300 310" xmlns="http://www.w3.org/2000/svg"><path d="M150 306q-41 0-75.5-20T20 231.5Q0 197 0 156t20-75.5Q40 46 74.5 26T150 6q41 0 75.5 20T280 80.5q20 34.5 20 75.5t-20 75.5Q260 266 225.5 286T150 306zm0-263q-31 1-56.5 16t-41 40.5Q37 125 37.5 156T53 212.5q15 25.5 40.5 41t56.5 15q31-.5 56.5-15.5t41-40.5q15.5-25.5 15-56.5T247 99.5Q232 74 206.5 59T150 43zm-1 198q-29 0-51.5-17.5t-30-45.5Q60 150 71 123.5t36-41Q132 68 160.5 72T209 96l-26 27q-11-10-25-13t-27 2.5q-13 5.5-21 17.5t-8 26q0 14 8 26t21 17.5q13 5.5 27 2.5t24-13l27 27q-12 12-27.5 18.5T149 241z"/></svg>