<svg viewBox="0 0 300 310" xmlns="http://www.w3.org/2000/svg"><path d="M249 139q1-9 1-18v-8l-3-3 11-11q6 6 14.5 7t15.5-3.5q7-4.5 10-12.5t1-16q-2-8-9-13t-15-5q0-8-5-15t-13-9q-8-2-16 1t-12.5 10q-4.5 7-3.5 15.5t7 14.5l-11 11-3-3h-8q-36 1-69 14-13-1-27-2-31 0-57 15t-41.5 41Q0 175 0 206v86l16 2q49 9 98 12 44 0 79-5 48-7 74-22 33-19 33-50 0-23-13.5-46.5T249 139zm-37-11q-1 17-5 32-5 17-11 24-11 9-24.5 9t-23.5-9.5q-10-9.5-10-24t9-24.5q7-6 24-11 15-4 32-5l9 9zm-98 140q-38-2-77-8v-54q1-29 20.5-50.5T106 131q-10 24-3 48.5t28.5 39q21.5 14.5 47 12T222 210q12-12 17-29 21 20 23 48 1 11-18.5 20t-53 14q-33.5 5-76.5 5zm-1-212H75V6h38v50zm62 0h-37V6h37v50zM50 56H13V6h37v50z"/></svg>