<svg viewBox="0 0 300 310" xmlns="http://www.w3.org/2000/svg"><path d="M294 56h-31v100h-38V56h-31l41-41q4-4 9-4t9 4l41 41zM119 174V81H81v93q-11 6-16 18t-1.5 24Q67 228 77 236t23 8q13 0 23-8t13.5-20q3.5-12-1.5-24t-16-18zm56-34q12 14 18.5 31t6.5 35q0 27-13.5 50T150 292.5Q127 306 100 306t-50-13.5Q27 279 13.5 256T0 206q0-18 6.5-35T25 140V81q0-20 10-37t27.5-27.5Q80 6 100 6t37.5 10.5Q155 27 165 44t10 37v59zm-12 66q0-13-5.5-24.5T143 161l-5-5V81q0-15-11-26t-27-11q-16 0-27 11T62 81v75l-5 5q-9 9-14.5 20.5T38 206q-1 17 7.5 31.5t23 23q14.5 8.5 31.5 8t31.5-8.5q14.5-8 23-22.5T163 206z"/></svg>