<svg viewBox="0 0 300 310" xmlns="http://www.w3.org/2000/svg"><path d="M131 43q-35 0-65.5 18t-48 48Q0 139 0 174.5t17.5 66q17.5 30.5 48 48t66 17.5q35.5 0 65.5-17.5t48-48q18-30.5 18-66T245 109q-18-30-48-48t-66-18zm0 225q-25 1-46.5-12t-34-34.5Q38 200 38 175q0-19 7-37l5 5h38l12 13v25l25 25v37h25l38-68-50-32h-32l-18-18 18-19 25 12 13-12-15-25h2q26 0 47.5 12.5t34 34q12.5 21.5 12.5 47t-12.5 47Q200 243 178.5 256T131 269v-1zM300 37q0 13-9 22.5t-22 9q-13-.5-22-9.5t-9-22q0-13 9-22t22-9q13 0 22 9t9 22z"/></svg>