<svg viewBox="0 0 300 310" xmlns="http://www.w3.org/2000/svg"><path d="M300 144q0-29-25-48v-3q0-17-11-30t-29-17q-5-18-18.5-29T186 6q-21 0-36 13-15-13-36-13-17 0-30.5 11T65 46q-18 4-29 17T25 93v3Q0 115 0 144q0 16 7 30-7 14-7 30t7 29.5Q14 247 28 256q8 22 26.5 36T96 306q17 0 30.5-6.5T150 281q10 12 23.5 18.5T204 306q22 0 41-14t27-36q14-9 21-22.5t7-29.5q0-16-7-30 7-14 7-30zM96 268q-11 0-21-8t-13-21l-2-8-7-4q-15-8-15-23 0-10 6-18l10-12-10-12q-6-8-6-18 0-13 15-22l10-5V94q0-7 6-10t12-3h19V62q0-7 4-12.5t10.5-5.5q6.5 0 11.5 5t5 12v45H94q-8 0-13.5 5.5T75 125q0 8 5.5 13.5T94 144h37v37H94q-8 0-13.5 5.5T75 200q0 8 5.5 13.5T94 219h37v12q0 13-8 24-10 14-27 14v-1zm160-82q7 8 7 18 0 15-16 23l-7 4-2 8q-3 13-13 21t-21 8q-17 1-27-13-8-11-8-24v-38h56v-68q0-8-5.5-13.5t-13-5.5q-7.5 0-13 5.5T188 125v31h-19V61q0-8 5-13t11.5-5q6.5 0 10.5 6t4 13v19h19q6 0 12.5 3t6.5 10v23l9 5q16 9 16 22 0 10-7 18l-10 12 10 12z"/></svg>