<svg viewBox="0 0 300 310" xmlns="http://www.w3.org/2000/svg"><path d="M207 61q-7-7-7-17.5t7-17.5l18-20 18 20q4 5 6 11.5t.5 13q-1.5 6.5-6.5 11T231.5 68q-6.5 2-13 0T207 61zm-57 7q8 0 14-4t9-11q3-7 1.5-14.5T168 26L150 6l-18 20q-5 5-6.5 12.5T127 53q3 7 9 11t14 4zm-75 0q7 1 13.5-3.5T98 53q3-7 1.5-14.5T92 26L75 6 57 26q-5 5-6.5 12.5T52 53q3 7 9 11t14 4zm213 166v47h-25v25h-63v-25H100v25H38v-25H13v-47q0-35 15-68l23-48q6-11 16.5-17.5T91 93h118q13 1 23.5 7.5T249 118l23 48q15 33 16 68zM69 206q-8 0-13.5 5.5T50 225q0 8 5.5 13t13.5 5q8 0 13.5-5t5.5-13q0-8-5.5-13.5T69 206zm162-38l-16-33q-2-4-6-4H91q-4 0-6 4l-16 33h162zm0 38q-8 0-13.5 5.5T212 225h1q0 8 5 13.5t13 4.5q8 0 13.5-5t5.5-13q0-8-5.5-13.5T231 206z"/></svg>