<svg viewBox="0 0 300 310" xmlns="http://www.w3.org/2000/svg"><path d="M88 43q0 16-11 27T50 81q-16 0-26.5-11t-11-26.5Q12 28 23 17T50 6q16 0 26.5 11T88 44v-1zm62-37q-16 0-26.5 11T113 43.5Q113 59 123.5 70T150 81q16 0 26.5-11t11-26.5Q188 28 177 17T150 6zm100 75q16 0 27-11t11-26.5Q288 28 277 17T250 6q-16 0-26.5 11T213 43.5Q213 59 223.5 70T250 81zM13 143h75v-37H13v37zm0 75h75v-37H13v37zm100-75h75v-37h-75v37zm0 75h75v-37h-75v37zm100-75h75v-37h-75v37zm0 75h75v-37h-75v37zM13 293h75v-37H13v37zm100 0h75v-37h-75v37zm100 0h75v-37h-75v37z"/></svg>