<svg viewBox="0 0 300 310" xmlns="http://www.w3.org/2000/svg"><path d="M150 101q-23 0-39 16t-16 39q0 23 16 39t39 16q23 0 39-16t16-39q0-23-16-39t-39-16zm0 72q-5 0-9.5-3t-6.5-7.5q-2-4.5-1-9.5t5-9q4-4 9-5t9.5 1q4.5 2 7.5 6.5t3 10.5q0 6-5 11t-12 5zm125-17q0-24-9-45l23-14-18-32-23 13q-15-18-35.5-30T169 33V6h-38v27q-23 3-43.5 15T53 78L29 65 11 97l23 13q-9 22-9 46t9 45l-23 14 18 32 23-13q15 18 35.5 30t43.5 15v27h38v-27q23-3 43.5-15t34.5-30l24 13 18-32-23-13q9-22 9-46zm-125 87q-24 1-44-11t-32-32q-12-20-11.5-44t12-44Q86 92 106 80t44-12q24 0 44 12t32 32q12 20 11.5 44t-12 44Q214 220 194 231.5T150 244v-1z"/></svg>