<svg viewBox="0 0 300 310" xmlns="http://www.w3.org/2000/svg"><path d="M247 169q7-13 .5-25.5T228 118q-15-16-33-26-22-11-45-11t-45 11q-18 10-33 26-13 13-19.5 25.5t0 25Q59 181 72 194q15 16 33 26 22 11 45 11t45-11q18-10 33-26 13-13 19-25zm-97 24q-20 0-40-14-13-10-21-23 8-13 21-23 20-14 40-14.5t40 14.5q13 10 21 23-8 13-21 23-20 14-40 14zm25-37q0 10-7.5 17.5T150 181q-10 0-17.5-7.5T125 156q0-10 7.5-17.5T150 131q10 0 17.5 7.5T175 156zm38-75V18l24 25 36-37 27 27-37 36 25 24h-63q-5 0-8.5-3.5T213 81zM37 69L0 33 27 6l36 37 24-25v63q0 5-3.5 8.5T75 93H13l24-24zm226 174l37 36-27 27-36-37-24 24v-62q-1-5 3-9t9-4h63l-25 25zM87 231v63l-24-25-36 37-27-27 37-36-24-24h62q5 0 9 3.5t4 8.5h-1z"/></svg>