<svg viewBox="0 0 301 310" xmlns="http://www.w3.org/2000/svg"><path d="M301 225q0 23-16.5 39.5T245 281h-95v-38h95q8 0 13.5-5t5.5-13.5q0-8.5-7.5-13.5t-24.5-5h-76q-23 0-39.5-16.5T100 150q0-23 16-39t39-17q6 21 22 37h-20q-7 0-13.5 5.5t-6.5 13q0 7.5 5.5 13T156 168h89q23 0 39.5 16.5T301 225zM61 181H0v37h25v25H0v38h25v6q0 8 5.5 13.5T44 306q8 0 13-5.5t5-13.5q1 8 6 13.5t13 5.5q8 0 13.5-5.5T100 287v-6h25v-35l-11-29q-7-17-21-26.5T61 181zm2 38q5 0 9.5 3t6.5 8l5 13H63v-24zM282 24Q263 6 237.5 6T193 24q-12 12-16 28.5t0 32.5q4 16 16 28l45 43 44-43q18-19 18-44.5T282 24zm-44 69q-11 0-18-7t-7-17.5q0-10.5 7-18t17.5-7.5q10.5 0 18 7.5t7.5 18q0 10.5-7.5 17.5T238 93z"/></svg>