<svg viewBox="0 0 300 310" xmlns="http://www.w3.org/2000/svg"><path d="M138 243v38H0V50q0-18 13-31T44 6h111l70 71v92l-37 38V106h-63V43H44q-3 0-4.5 2T38 50v193h100zm154-67q-8-7-19.5-7t-19.5 7l-91 91v39h39l91-91q8-8 8-19t-8-20zm-117-1q0 14-8.5 26T144 216q-10 3-19 3-19 0-37-13-19 13-38 13v-25q9 0 19-6-9-10-14-22t-5-22q0-16 11-27t26.5-11q15.5 0 26.5 11t11 27q0 10-5 22t-14 22q10 6 18 6t16-4q-2-7-2-15t5.5-13.5q5.5-5.5 13-5.5t13 5.5Q175 167 175 175zm-75-31q0-6-3.5-9.5t-9-3.5q-5.5 0-9 3.5T75 144q0 12 13 28 12-16 12-28z"/></svg>