<svg viewBox="0 0 300 310" xmlns="http://www.w3.org/2000/svg"><path d="M81 68q8 0 13.5 5.5T100 87q0 8-5.5 13.5T81 106q-8 0-13-5.5T63 87q0-8 5-13.5T81 68zm82 19q0-8-5.5-13.5T144 68q-8 0-13.5 5.5T125 87q0 8 5.5 13.5T144 106q8 0 13.5-5.5T163 87zm93-81H44Q26 6 13 19T0 50v256h142q-19-15-30-38H38V50q0-3 1.5-5t4.5-2h212q3 0 5 2t2 5v69q24 19 37 36V50q0-18-13-31T256 6zm44 212q0 24-12 44t-32 32q-20 12-43.5 12T169 294q-20-12-32-32t-12-44q0-17 9-33 7-13 20-26l3 8q4 9 7 14 5 8 9 8 6 0 10-8 3-5 7-21t8-25q6-16 15-26 6 7 25 22t29 24q15 15 23 29 10 17 10 34zm-65 10l-22-22-23 22q-9 9-9 22t9.5 22q9.5 9 22 9t22-9q9.5-9 9.5-22t-9-22z"/></svg>