<svg viewBox="0 0 300 310" xmlns="http://www.w3.org/2000/svg"><path d="M211 148q-11 8-24 13-19 8-37 7.5t-37-7.5q-13-5-24-13l14-21q24 17 47 17t47-17l14 21zm-73-30q0-16-7-31-9-19-24.5-18.5T82 87q-7 15-7 31l12-6q13-6 19.5-6t19.5 6l12 6zm56-50q-16 1-25 19-6 15-6 31l11-6q13-6 19.5-6t19.5 6l12 6q0-16-7-31-9-19-24-19zm88 165l-23 23-12-12 45-45q3-3 3-7.5t-3-7.5q-3-3-7-3t-7 3l-46 46-13-12 38-38q3-3 3-7.5t-3-7.5q-3-3-7.5-3t-7.5 3l-55 55v-14q0-5-3.5-9t-8.5-4q-5 0-9 4t-4 9v45q0 16 8 28.5t20.5 19.5q12.5 7 26.5 7 22 0 38-16l43-43q2-3 2-7t-3-7q-3-3-7.5-3t-7.5 3zm-157-40q-5 0-9 4t-4 9v14l-54-55q-3-3-7.5-3t-7.5 3q-3 3-3 7.5t3 7.5l38 38-13 12-46-46q-3-3-7-3t-7.5 3Q4 187 4 191.5t3 7.5l46 45-12 12-23-23q-3-3-7.5-3T3 233q-3 3-3 7t2 7l43 43q16 16 38 16 14 0 26.5-7t20-19.5Q137 267 137 251v-45q0-5-3.5-9t-8.5-4zm136-54h5q11 0 20 5.5t14 14.5v-3q0-41-20-75.5T225.5 26Q191 6 150 6T74.5 26Q40 46 20 80.5T0 156v3q5-9 14-14.5t20-5.5h5q4-26 19.5-48T98 56q24-13 52-13t52 13q24 13 39.5 35t19.5 48z"/></svg>