<svg viewBox="0 0 300 310" xmlns="http://www.w3.org/2000/svg"><path d="M102 143l-58 58-26-27 28-28q-4-7-6-15H0V93h40q2-7 6-14L18 50l26-26 29 28q7-4 15-6V6h37v40q8 2 15 6l28-28 27 26-58 58q-2-12-10.5-19.5t-21-7.5Q93 81 84 90t-9 21.5q0 12.5 7.5 21T102 143zm185 6q-2-40-24-58-13-10-31-10t-32 11q-25 19-25 64v4q-10-4-20-4-17 0-31 10-21 17-23 57-6 5-10 11.5T87 249q1 11 9 26 5 11 15 22l8 9 8-9q9-11 15-22 8-15 8-26 0-15-12-25 1-13 4-20 5-11 13-11 12 0 17 14 3 10 3 24v75h38V156q0-14 3-24 5-14 16-14 9 0 13 11 4 8 4 21-11 10-12 25 1 11 9 26 5 11 15 22l8 9 8-9q9-11 15-22 8-15 8-26 0-8-3.5-14.5T287 149z"/></svg>