<svg viewBox="0 0 300.0018 310" xmlns="http://www.w3.org/2000/svg"><path d="M100 143q-10 1-17.5-6.5t-7.5-18q0-10.5 7.5-17.5t17.5-7q10 0 17.5 7t7.5 17.5q0 10.5-7.5 17.5t-17.5 7zm125-25q0-10-7.5-17.5T200 93q-10 0-17.5 7.5t-7.5 18q0 10.5 7.5 17.5t17.5 7q10 0 17.5-7t7.5-18zm33-6l-71 64q-19-8-37-8-26 0-52 15-14 7-23 15l25 28q6-5 15-10 18-10 35.5-10t36.5 11q10 6 16 12l24-22-16-18 19-17 16 18 20-18-16-18 19-17 16 18 7-5q7-7 8-17.5t-6-18q-7-7.5-17.5-8.5t-18.5 6zM150 268q-31 0-56.5-15t-41-40.5Q37 187 37 156t15.5-56.5q15.5-25.5 41-41t55-15.5Q178 43 203 56.5T243 93q16-14 37-12-20-34-54.5-54.5T150 6q-41 0-75.5 20T20 80.5Q0 115 0 156t20 75.5Q40 266 74.5 286t75.5 20q38 0 70.5-17.5t53.5-48q21-30.5 25-66.5l-76 68q-15 12-34 19t-39 7z"/></svg>