<svg viewBox="0 0 300 310" xmlns="http://www.w3.org/2000/svg"><path d="M117 140q1-5 1-7-2-7-7-11t-11-3q-4 0-8.5 1.5T83 129l-27 52H25q-10 0-17.5 7.5T0 206v75q0 10 7.5 17.5T25 306h156l19-100v-25h-90l7-41zm43 78l-10 50H63v-50h97zm115-60l23 15-21 32-22-15q-14 14-30 21v-45q9-8 14-18.5t5-22.5q0-24-16.5-40.5T188 68q-20 1-35 13t-20 31L77 77l21-32 22 14q21-20 49-26V6h37v27q28 6 49 26l22-14 21 32-23 14q6 17 6 34t-6 33zm-69-33q0 8-5.5 13.5t-13 5.5q-7.5 0-13-5.5T169 125q0-8 5.5-13.5t13-5.5q7.5 0 13 5.5T206 125z"/></svg>