<svg viewBox="0 0 300 310" xmlns="http://www.w3.org/2000/svg"><path d="M163 306h-38v-63h38v63zm62-63h-37v63h37v-63zm16-74q-8-24-29-38.5t-46.5-12q-25.5 2.5-44 20.5T100 182q-21 4-35.5 21.5t-14.5 40Q50 266 64 283t36 22v-40q-7-4-10.5-12t-1-16q2.5-8 9-13.5T112 218h26v-28q0-14 10-24t24-10q14 0 23.5 9t10.5 23l1 18h24q13 0 22.5 9t8.5 22q0 8-3 14.5t-9 10.5v41q23-6 37-26t12.5-44.5q-1.5-24.5-18-42T241 169zm40-51q-8 0-13.5 5.5t-5 13.5q.5 8 5.5 13.5t13 5.5q8 0 13.5-5.5T300 137q0-8-5.5-13.5T281 118zm0-112q-8 0-13.5 5.5t-5 13.5q.5 8 5.5 13.5t13 5q8-.5 13.5-5.5t5.5-13q0-8-5.5-13.5T281 6zm-50 62q-8 1-13.5 6t-5 13q.5 8 5.5 13.5t13 5.5q8 0 13.5-5.5T250 87q0-8-5.5-13.5T231 68zM47 186q-10-20-10-42 1-28 14-51t36-36q23-13 51-13 9-1 18 1-30 27-40 67 21-16 48-18 15-24 40-38l29-17-29-16Q176 8 144.5 6.5T84 17Q55 29 34 53T5 107.5Q-3 138 2.5 169T27 225q5-22 20-39z"/></svg>