<svg viewBox="0 0 300 310" xmlns="http://www.w3.org/2000/svg"><path d="M200 77V6H100v71q-35 23-60 54Q0 180 0 233q0 17 8 30.5t22 22q14 8.5 31 7.5 22 0 39-14 9 12 22 19.5t27.5 7.5q14.5 0 28-6t22.5-18q18 12 39 12 17 0 31-8.5t22-22q8-13.5 8-30.5 0-53-40-102-25-31-60-54zm-37-34v36q-8 9-13 19-5-10-13-19V43h26zM61 256q-10 0-17-6.5T38 234q0-39 29-77 19-24 48-45 4 7 7 15-17 22-26 49t-8 55q-2 10-9.5 17T61 256zm89 12q-12-1-19-10t-6-21q-1-23 5.5-45t19.5-40q13 20 19.5 43.5T175 243q1 11-6.5 18.5T150 269v-1zm89-12q-10 0-18-5t-8-14h-1q1-29-8-57.5T178 127q3-8 7-15 29 20 48 45 30 38 30 77 0 9-7 15.5t-17 6.5z"/></svg>