<svg viewBox="0 0 300 310" xmlns="http://www.w3.org/2000/svg"><path d="M300 50q0-18-13-31T256 6H44Q26 6 13 19T0 50v81h13v175h275V131h12V50zM38 50q0-3 1.5-5t4.5-2h212q3 0 5 2t2 5v43H38V50zm12 218V131h87v12h-4q-14 0-23.5 10t-9.5 22.5q0 12.5 7.5 22T127 209l41 6q3 1 5 3t2 5q0 3-2.5 5.5T167 231h-30q-5 0-8.5-3.5T125 219h-25q0 15 11 26t26 11v13H50v-1zm200 0h-88v-12h5q14 0 23.5-9.5T200 224q0-13-8-22t-20-11l-41-7q-2 0-4-2.5t-2-5.5q0-3 2-5.5t6-2.5h29q6 0 9.5 4t3.5 9h25q0-15-11-26.5T162 143v-12h88v137z"/></svg>