<svg viewBox="0 0 300 310" xmlns="http://www.w3.org/2000/svg"><path d="M100 143q-10 0-17.5-7T75 118.5q0-10.5 7.5-18T100 93q10 0 17.5 7.5t7.5 18q0 10.5-7.5 17.5t-17.5 7zm100-50q-10 0-17.5 7.5t-7.5 18q0 10.5 7.5 17.5t17.5 7q10 0 17.5-7t7.5-17.5q0-10.5-7.5-18T200 93zm-6 75h-6v13h-25v-13h-25v13h-25v-13h-7q-13 0-22 9.5T75 200q0 13 9 22t22 9h7v-13h25v13h25v-13h25v69q0 8 5 13.5t13 5.5q8 0 13.5-5.5T225 287v-87q0-13-9-22.5t-22-9.5zM63 227v51q18 13 40.5 20.5T150 306l12-1v-37h-12q-26 0-49-11t-39-30h1zM150 6q-41 0-75.5 20T20 80.5Q0 115 0 156v94q0 8 5.5 13t13.5 5q8 0 13-5t5-13v-94q0-31 15.5-56.5t41-41Q119 43 150 43t56.5 15.5q25.5 15.5 41 41T262 156v106q1 8 6 13.5t13 5.5q8 0 13.5-5.5T300 262V156q0-41-20-75.5T225.5 26Q191 6 150 6z"/></svg>