<svg viewBox="0 0 300 310" xmlns="http://www.w3.org/2000/svg"><path d="M131 193q-8 1-13.5-4.5T112 175q0-8 5.5-13.5T131 156q8 0 13.5 5.5T150 175q0 8-5.5 13.5T131 193zm7 32q0 8 5 13.5t13 5q8-.5 13.5-5.5t5.5-13q0-8-5.5-13.5T156 206q-8 0-13.5 5.5T138 225zM250 70v192q0 18-13 31t-31 13H94q-18 0-31-13t-13-31V70q-10-9-13-22 0-8 5-15t12.5-10.5q7.5-3.5 16-2T85 28q5-9 12.5-14.5t17-7q9.5-1.5 19 1T150 17q7-7 16.5-9.5t19-1q9.5 1.5 17 7T215 28q6-6 14.5-7.5t16 2Q253 26 258 33t4 15q-2 13-12 22zm-127 2q17 8 31 19 6-6 11-10l10-8-20-31q-18 12-32 30zm90 190q0-37-22-75-18-33-49-58-28-24-54-32v165q0 3 1.5 4.5T94 268h112q3 0 5-1.5t2-4.5zm0-166q-18 7-30 20 16 16 30 35V96z"/></svg>