<svg viewBox="0 0 300 310" xmlns="http://www.w3.org/2000/svg"><path d="M263 275v31h-38v-31q0-13-9-22.5t-22-9.5h-88q-13 0-22 9.5T75 275v31H38v-31q0-19 9-34.5t25-25q16-9.5 34-9.5h88q18 0 34 9.5t25.5 25Q263 256 263 275zm36-221q-6 9-19 20-24 20-55 32v12q0 20-10 37.5T187.5 183Q170 193 150 193t-37.5-10Q95 173 85 155.5T75 118v-12Q44 94 20 74 8 63 1 54l31-21q4 6 13 13 17 15 40 24 7-25 16-43 12-21 23-21t19 9l3 3h8l3-3q8-9 19-9t23 21q9 18 16 43 23-9 40-24 9-7 14-13l30 21zM121 79q14 2 29 2t29-2q-3-13-10-27-8 4-19 4t-19-4q-7 14-10 27zm67 37q-19 2-38 2t-38-2v2q1 15 11.5 26t26.5 11q16 0 26.5-11t10.5-26v-2h1z"/></svg>