<svg viewBox="0 0 300 310" xmlns="http://www.w3.org/2000/svg"><path d="M270 246q23-30 28.5-67t-7-72.5Q279 71 251 45t-64.5-35q-36.5-9-73 0T49 45Q21 71 8.5 106.5t-7 72.5Q7 216 31 247q-10 4-15 14t-2.5 20.5Q16 292 24.5 299t19.5 7h212q11 0 19.5-7t11-17.5Q289 271 284 261t-14-15zm-34-18q-6 6-9 14t-1 17q1 5 4 9H70q3-4 4-9 2-9-1-17.5T63 228q-18-23-23.5-51.5T43 121q9-27 30.5-47t49-27q27.5-7 55.5 0t49.5 27q21.5 20 30 47.5t3 56Q255 206 236 228zm-86-37l34 45q-16 8-34 8t-34-8l34-45zm-30-23l-35 47q-11-12-16.5-27.5T63 156v-11l57 23zm11-36l-55-22q9-15 23.5-25.5T131 71v61zm93-22l-55 22V71q17 3 31.5 13.5T224 110zm-44 58l57-23q0 5 1 11-1 16-6.5 31.5T215 215l-35-47z"/></svg>