<svg viewBox="0 0 300 310" xmlns="http://www.w3.org/2000/svg"><path d="M69 156q-19 0-34.5 9.5t-25 25Q0 206 0 224.5T9.5 259q9.5 16 25 25.5t34 9Q87 293 103 284t25.5-25q9.5-16 9.5-34.5t-9.5-34q-9.5-15.5-25.5-25T69 156zm0 100q-13 0-22-9t-9-22q0-13 9-22.5t22-9.5q13 0 22 9.5t9 22.5q0 13-9 22t-22 9zM300 62q0-18-13-31t-31-13H144q-18 0-31 13t-13 31v18L28 6 0 33l273 273 26-26-13-13q14-17 14-41V62zm-162 0q0-3 1.5-4.5T144 56h112q3 0 5 1.5t2 4.5v101q-15-7-32-7-23 0-41 14l-52-53V62zm121 176l-43-42q6-4 14-4 13 0 22 9t9 22q2 9-2 15z"/></svg>