<svg viewBox="0 0 300 310" xmlns="http://www.w3.org/2000/svg"><path d="M150 6q-41 0-75.5 20T20 80.5Q0 115 0 156t20 75.5Q40 266 74.5 286t75.5 20q41 0 75.5-20t54.5-54.5q20-34.5 20-75.5t-20-75.5Q260 46 225.5 26T150 6zm113 150q0 36-21 65l-28-28h24v-50h-74L85 64q29-21 65-21 31 0 56.5 15.5t41 41Q263 125 262 156h1zm-225 0q0-36 20-65l157 157q-29 20-65 20-31 0-56.5-15t-41-41Q37 186 37 156h1zm112-88h25q0 7 7 10l21 8q10 5 16 13.5t6 18.5h-25q0-6-7-9l-21-8q-10-5-16-13.5T150 68zm-74 75l50 50H62v-50h14z"/></svg>