<svg viewBox="0 0 300 310" xmlns="http://www.w3.org/2000/svg"><path d="M300 143q0 20-13 34t-32 16q-13 34-42 55v58h-38v-41q-25 7-50 0v41H88v-58q-18-12-29.5-29.5T42 181h2q18-1 35-5 7 23 26.5 38.5T150 231q26-1 46-18t26-42l3-15h25q5 0 9-3.5t4-8.5q0-5-3.5-9t-9.5-4l-15-1-2-15q-5-31-28.5-51t-55-20Q118 44 94 64t-30 52q46-12 78-47h8q18 0 32 10-24 32-59 52 5 2 9.5 6t5 10q.5 6-2 11.5t-8 8q-5.5 2.5-11.5 2t-10.5-5Q101 159 100 153t2-11q-28 13-58 14H25v-25q0-34 17-62.5T87.5 23Q116 6 150 6q27 0 51.5 11.5t41.5 32Q260 70 267 96q15 6 24 19t9 28zm-100 7q0-8-5.5-13.5T181 131q-8 0-13.5 5.5t-5 13.5q.5 8 5.5 13.5t13 5q8-.5 13.5-5.5t5.5-13z"/></svg>