<svg viewBox="0 0 300 310" xmlns="http://www.w3.org/2000/svg"><path d="M100 150q0 8 5.5 13.5t13.5 5q8-.5 13-5.5t5.5-13q.5-8-5-13.5T119 131q-8 0-13.5 5.5T100 150zm63 0q0 8 5 13.5t13 5q8-.5 13.5-5.5t5.5-13q0-8-5.5-13.5T181 131q-8 0-13.5 5.5T162 150h1zm137-7q0-15-9-28t-24-19q-10-38-41-63T156 6h-6q-27 0-51.5 11.5T57 49.5Q40 70 33 96q-17 6-26 21t-7 32.5q2 17.5 15 30T45 193q5 12 11 22-14 8-22.5 22.5T25 269v37h38v-38q0-8 5.5-15t14.5-9q29 24 67 24t67-24q9 2 14.5 9t6.5 16v37h37v-38q0-16-8.5-30.5T244 215q6-10 11-22 19-2 32-16t13-34zm-75 13l-3 15q-6 25-26 42t-46 18q-26-1-46-18t-26-42l-3-15H50q-5 0-9-3.5t-4-8.5q0-5 3.5-9t9.5-4l15-1 3-15q2-16 10.5-30.5T100 60v2q0 17 9.5 31.5t25.5 21q16 6.5 32.5 3T196 102l-26-26q-6 5-13.5 5T144 76.5q-5-4.5-6-10t1-10.5q2-5 6-8.5t10-3.5q30 2 51.5 22t26.5 49l2 15 15 1q6 0 9.5 4t3.5 9q0 5-4 8.5t-9 3.5h-25z"/></svg>