<svg viewBox="0 0 300.0023 310" xmlns="http://www.w3.org/2000/svg"><path d="M174.002 160l55 29-18 34-56-30h-5q-10 0-17-6t-8-15.5q-1-9.5 4.5-17.5t15-10q9.5-2 17.5 2.5t12 13.5zm38-53q-17-17-39.5-23t-45 0q-22.5 6-39.5 22.5t-22.5 39.5q-5.5 23 0 45.5t22.5 38.5q5 6 12 10l21-31q-11-8-17-21t-4-27q2-14 11.5-25t23-15q13.5-4 27-1t23.5 13q4 4 7 9l46 24q-1-17-7.5-32.5t-18.5-26.5zm88 61q0 37-16.5 69t-45.5 53l-5 3h-166l-5-3q-28-21-44.5-51.5T.002 174q-1-34 13-66t40.5-54.5q26.5-22.5 60-31t67.5-1q34 7.5 61.5 29t42.5 52.5q15 31 15 65zm-37 0q0-25-11.5-48t-31-39q-19.5-16-45-22t-50.5-.5q-25 5.5-45 21.5t-31.5 39.5q-11.5 23.5-11.5 49t11 48.5q11 23 31 39h142q19-16 30-39t12-49z"/></svg>