<svg viewBox="0 0 300 310" xmlns="http://www.w3.org/2000/svg"><path d="M262 44q-18-19-42.5-28.5T169 6q-32 0-63 13T50.5 56.5Q26 81 13 112T0 174q0 27 9.5 51T38 268q19 19 42.5 28.5T131 306q32 0 63-13t55-38q23-22 36-49.5t15-57.5v-10q0-57-38-94zM64 242q0-4 1-10 2-9 8-21 18-36 57-75t75-57q12-6 21-8 6-1 10-1 0 4-1 10-2 9-8 21-18 36-57 75t-75 57q-12 6-21 8-6 1-10 1zM77 83q24-23 54-33t58-5l-1 1q-41 21-84 64t-64 84l-1 1q-5-28 5-58t33-54zm185 62q-1 23-11.5 44.5T223 229q-24 23-54 33t-58 5l1-1q41-21 84-64t64-84l1-1q2 14 1 28z"/></svg>