<svg viewBox="0 0 300 310" xmlns="http://www.w3.org/2000/svg"><path d="M224 80q-22 0-44 14-16 11-30 28-14-17-30-28-22-14-44-14-21 0-38.5 10.5T10 118Q0 135 0 156t10 38q10 17 27.5 27.5T76 232q22 0 44-14 16-11 30-28 14 17 30 28 22 14 44 14 21 0 38.5-10.5T290 194q10-17 10-38t-10-38q-10-17-27.5-27.5T224 80zM76 194q-16 0-27-11t-11-27q0-16 11-27t26.5-11q15.5 0 31.5 13 11 10 21 25-10 15-21 25-16 13-31 13zm148 0q-15 0-31-13-11-10-21-25 10-15 21-25 16-13 31.5-13t26.5 11q11 11 11 27t-11 27q-11 11-27 11z"/></svg>