<svg viewBox="0 0 300 310" xmlns="http://www.w3.org/2000/svg"><path d="M212 181q0 13-8 27.5T182 233q-14 10-32 10t-33-10q-13-10-21-24.5T87 181h125zm88-25q0 41-20 75.5T225.5 286Q191 306 150 306q-57-2-95-33-35-29-47.5-73t0-88Q20 68 55 39 93 8 150 6q41 0 75.5 20T280 80.5q20 34.5 20 75.5zm-37 0q-1-31-16-56.5T206.5 59Q181 44 150 43q-43 2-72 26-26 21-35 54t0 66q9 33 35 54 29 24 72 26 31-1 56.5-16t40.5-40.5q15-25.5 16-56.5zm-100-38q0 14 11 23 10 7 26 12 13 3 25 3-17-18-22-28t0-19.5q5-9.5 22-27.5-12 0-25 3-16 5-26 12-12 9-12 23l1-1zm-25 0q0-13-12-22-10-7-26-12-13-3-25-3 17 18 22 28t0 19.5Q92 138 75 156q12 0 25-3 16-5 26-12 11-9 11-23h1z"/></svg>