<svg viewBox="0 0 300 310" xmlns="http://www.w3.org/2000/svg"><path d="M125 187q0 8-5.5 13.5T106 206q-8 0-13.5-5.5t-5-13.5q.5-8 5.5-13.5t13-5q8 .5 13.5 5.5t5.5 13zm-6-94q-8 1-13.5 6t-5.5 13q0 8 5.5 13.5T119 131q8 0 13.5-5.5t5-13.5q-.5-8-5.5-13.5T119 93zm75 63q-8 0-13.5 5.5T175 175q0 8 5.5 13.5T194 194q8 0 13.5-5.5t5-13.5q-.5-8-5.5-13.5t-13-5.5zm5 126q2-3 4-2 15 2 29-2.5t24.5-15q10.5-10.5 15-24.5t2.5-29q-1-2 2-4 11-9 17.5-21.5T300 156q0-15-6.5-27.5T276 107q-3-2-2-4 2-15-2.5-29t-15-24.5Q246 39 232 34.5T203 32q-2 1-4-2-9-11-21.5-17.5T150 6q-15 0-27.5 6.5T101 30q-2 3-4 2-15-2-29 2.5t-24.5 15Q33 60 28.5 74T26 103q1 2-2 4-11 9-17.5 21.5T0 156q0 15 6.5 27.5T24 205q3 2 2 4-2 15 2.5 29t15 24.5Q54 273 68 277.5t29 2.5q2-1 4 2 9 11 21.5 17.5T150 306q15 0 27.5-6.5T199 282zM92 242q-13 2-21.5-6.5t-7-20q1.5-11.5-3-22t-14-18Q37 168 37 156t9.5-19.5q9.5-7.5 14-18t3-22q-1.5-11.5 7-20t20-7q11.5 1.5 22-3t18-13.5q7.5-9 19.5-9t19.5 9q7.5 9 17.5 13.5t22 3q12-1.5 20.5 7t7 20q-1.5 11.5 3 22t14 18Q263 144 263 156t-9.5 19.5q-9.5 7.5-14 17.5t-3 22q1.5 12-7 20.5t-20 7q-11.5-1.5-22 3t-18 13.5q-7.5 9-19.5 9t-19-8.5q-7-8.5-15.5-13T97 242h-5z"/></svg>