<svg viewBox="0 0 300 310" xmlns="http://www.w3.org/2000/svg"><path d="M119 37q0-13 9-22t22-9q13 0 22 9t9 22q0 8-3 14.5T169 62v56h32l-40 45q-4 6-11 5.5t-11-5.5l-40-45h32V62q-6-4-9-10.5T119 37zm169 131q0 38-19 69.5t-50.5 50Q187 306 150 306t-68.5-18.5q-31.5-18.5-50-50T13 168q0-41 22.5-75T94 43q2 20 16 34-22 10-37.5 29T52 149h41l29 33 1 5q5 34 27 68 22-34 27-68l1-5 29-33h41q-5-24-20.5-43T190 77q14-14 16-34 36 16 58.5 50t22.5 75h1zm-179 92q-20-37-24-73H52q4 24 19.5 43.5T109 260zm139-73h-33q-4 36-24 73 22-10 37.5-29.5T248 187z"/></svg>