<svg viewBox="0 0 300 310" xmlns="http://www.w3.org/2000/svg"><path d="M188 56H88q0-21 14.5-35.5t35-14.5Q158 6 173 20.5T188 56zm112 162h-20q-13 32-43 50v38h-74v-25h-25v25H63v-38q-23-14-36.5-37T13 181q-1-24 10-45-10-7-16.5-18T0 94q0-21 14.5-36T50 43v38q-5 0-8.5 3.5T38 93q0 5 2.5 8.5T47 106q13-12 30-18.5t35-6.5h80q8-23 34-33 13-4 24-5v60q20 16 30 41h20v74zM50 181q0 17 8.5 31.5t23 22.5q14.5 8 30.5 8h76q16 0 30.5-8t23-22.5Q250 198 250 181t-8.5-31.5q-8.5-14.5-23-23T187 118h-74q-17 1-31.5 9t-23 22.5Q50 164 50 181zm156 0q8 0 13.5-5.5T225 162q0-8-5.5-13.5T206 143q-8 0-13.5 5.5T187 162q0 8 5.5 13.5T206 181z"/></svg>