<svg viewBox="0 0 300 310" xmlns="http://www.w3.org/2000/svg"><path d="M280 26Q260 6 232 6q-36 0-82 32Q103 6 68 6 40 6 20 26T0 74q0 36 32 82-32 46-32 82 0 28 20 48 9 10 21.5 15t26.5 5q35 0 82-32 46 32 82 32 13 0 26-5t22-15q20-20 20-48 0-36-33-82 33-46 33-82 0-28-20-48zm-49 18q13-1 22 8 12 12 8 33-3 17-18 40-14-17-30-32.5T181 63q22-17 50-19zm-11 112q-15 18-33.5 36.5T150 226q-19-15-37.5-33.5T79 156q16-19 34.5-37T150 86q18 15 36.5 33.5T220 156zM46 52q10-9 23-8 27 2 50 19-17 14-32.5 29.5T56 125q-14-23-18-40-4-21 8-33zm0 208q-12-12-8-33 4-17 18-40 15 17 30 32 18 17 33 30-23 15-41 18-20 4-32-7zm207 0q-11 11-32 7-17-3-40-18 16-13 31.5-29t30.5-33q15 23 18 40 4 21-8 33zM125 156q0 10 7.5 17.5T150 181q10 0 17.5-7.5T175 156q0-10-7.5-17.5T150 131q-10 0-17.5 7.5T125 156z"/></svg>