<svg viewBox="0 0 300 310" xmlns="http://www.w3.org/2000/svg"><path d="M125 87q0-8 5.5-13.5T144 68q8 0 13.5 5.5T163 87q0 8-5.5 13.5T144 106q-8 0-13.5-5.5T125 87zm175 69q0 41-20.5 76T224 287q-35 20-76 19t-75-22q-34-21-53.5-56.5T0 151q0-39 19.5-72.5t53-53Q106 6 145 6h5q41 0 75.5 20T280 80.5q20 34.5 20 75.5zM63 222q0-23 10.5-41.5t29-30.5q18.5-12 40.5-13 19 0 32-14t13-32.5q0-18.5-12.5-32T144 44q-29 1-53.5 16.5T52 101q-14 25-14 55 0 20 6.5 38T63 227v-5zm200-66q0-25-11-47.5T223 70q2 10 2 20 0 23-10.5 42t-29 30.5Q167 174 145 175q-19 1-32 14.5t-13 32q0 18.5 12 31.5t29 15h9q30 0 56-15t41.5-41q15.5-26 15.5-56zm-119 50q-8 0-13.5 5.5T125 225q0 8 5.5 13t13.5 5q8 0 13.5-5t5.5-13q0-8-5.5-13.5T144 206z"/></svg>