<svg viewBox="0 0 300 310" xmlns="http://www.w3.org/2000/svg"><path d="M63 256h37v50H63v-50zm62 50h38v-50h-38v50zm0-125H88v50h37v-50zm63 125h37v-50h-37v50zm112-144q0 27-13.5 50T250 249v-50q12-16 13-37-1-23-17.5-39.5T206 106h-14l-4-13q-6-21-23-35t-39-15q-12 0-24 4.5T81 61q-9 9-14 20.5T62 106q0 13 4 25l6 16-15 8q-9 4-14.5 12.5T38 186v66q-18-11-28-28.5T0 186q0-17 7-31.5T27 130q-2-12-2-24 0-20 7.5-38.5t22-32.5q14.5-14 33-21.5T126 6q31 1 56.5 18T220 70q23 3 41 16t28.5 33q10.5 20 10.5 43zM0 186zm200-5h-37v50h37v-50z"/></svg>