<svg viewBox="0 0 300 310" xmlns="http://www.w3.org/2000/svg"><path d="M244 306H56q-23 0-39.5-16.5T0 250q0-20 11.5-35T41 195q8-23 27.5-37.5T112 143q21 0 38 11 17-11 38-11 24 0 43.5 14.5T259 195q18 5 29.5 20t11.5 35q0 23-16.5 39.5T244 306zM55 231q-7 0-12 5.5t-5 13q0 7.5 5 13t13 5.5h188q8 0 13.5-5.5t5.5-13q0-7.5-5.5-13T245 231h-19l-2-17q-1-14-11.5-23.5t-25-9.5q-14.5 0-24.5 10l-13 11-13-11q-10-10-24.5-10t-25 9.5Q77 200 76 214l-2 17H55zm183-113q-1-33-26-63-15-18-33-30L150 6l-3 5q-4 5-6 11-3 7-3 13t2 12q1 4 5 10 5 9 5 14 0 9-5.5 15.5T128 93q-11 0-16.5-6.5T106 72q0-8 7-22l6-13-9 4q-11 5-19 13-13 11-20 25-8 18-8 39 0 6 1 13 23-13 48-13 20 0 38 8 18-8 37-8 26 0 49 13 1-7 1-13h1z"/></svg>