<svg viewBox="0 0 300 310" xmlns="http://www.w3.org/2000/svg"><path d="M238 181h-25v-50h25q16 0 30.5-8.5t23-23q8.5-14.5 8.5-31t-8.5-31q-8.5-14.5-23-23t-31-8.5q-16.5 0-31 8.5t-23 23Q175 52 175 69v24h-50V68q0-16-8.5-30.5t-23-23Q79 6 62.5 6t-31 8.5Q17 23 8.5 37.5T0 68.5q0 16.5 8.5 31t23 23Q46 131 63 131h25v50H63q-17 0-31.5 8.5t-23 23Q0 227 0 243.5t8.5 31q8.5 14.5 23 23t31 8.5q16.5 0 31-8.5t23-23Q125 260 125 243v-25h50v25q0 17 8.5 31.5t23 23q14.5 8.5 31 8.5t31-8.5q14.5-8.5 23-23t8.5-31q0-16.5-8.5-31t-23-23Q254 181 238 181zM213 68q-1-10 6.5-17.5t18-7.5q10.5 0 18 7.5t7.5 18q0 10.5-7.5 18T238 94h-25V68zM63 93q-11 1-18-6.5t-7-18q0-10.5 7-18T62.5 43q10.5 0 18 7.5T88 68v25H63zm25 150q0 11-7.5 18t-18 7Q52 268 45 261t-7-17.5q0-10.5 7-18t18-7.5h25v25zm37-62v-50h50v50h-50zm113 87q-11 0-18-7t-8-18v-25h26q10 0 17.5 7.5t7.5 18q0 10.5-7.5 17.5t-17.5 7z"/></svg>