<svg viewBox="0 0 300 310" xmlns="http://www.w3.org/2000/svg"><path d="M100 143q-10 0-17.5-7T75 118.5q0-10.5 7.5-17.5t17.5-7.5q10-.5 17.5 7t7.5 18q0 10.5-7.5 17.5t-17.5 7zm100-50q-10 0-17.5 7.5t-7.5 18q0 10.5 7.5 17.5t17.5 7q10 0 17.5-7t7.5-17.5q0-10.5-7.5-18T200 94v-1zM150 6q-41 0-75.5 20T20 80.5Q0 115 0 156q2 57 33 95 29 35 73 47.5t88 0q44-12.5 73-47.5 31-38 33-95 0-41-20-75.5T225.5 26Q191 6 150 6zm0 262q-31 0-56.5-15T53 212.5Q38 187 37 156q2-43 26-72 21-26 54-35t66 0q33 9 54 35 24 29 26 72-1 31-16 56.5T206.5 253Q181 268 150 269v-1zM88 168h125v38h-32q0 18-9.5 27.5T150 243q-12 0-21.5-9.5T119 206H88v-38z"/></svg>