<svg viewBox="0 0 300 310" xmlns="http://www.w3.org/2000/svg"><path d="M250 178q-13 3-25 3-6 0-12-1v26h-88v50q0 5-3.5 8.5t-9 3.5q-5.5 0-9-3.5T100 256V56q0-6-2-13h34q9-21 27-37H50Q29 6 14.5 20.5T0 56v50h63v150q0 21 14.5 35.5T113 306h137q21 0 35.5-14.5T300 256v-50h-50v-28zM63 68H38V56q0-5 3.5-9t8.5-4q5 0 9 4t4 9v12zm200 188q-1 5-4.5 8.5T250 268h-89l2-12v-13h100v13zm-38-100q20 0 37.5-10t27.5-27.5Q300 101 300 81t-10-37.5Q280 26 262.5 16T225 6q-20 0-37.5 10T160 43.5Q150 61 150 81t10 37.5q10 17.5 27.5 27.5t37.5 10zm-36-91l28 29 45-47 17 18-45 47q-7 7-17.5 6.5T199 111l-27-28 17-18z"/></svg>