<svg viewBox="0 0 300 310" xmlns="http://www.w3.org/2000/svg"><path d="M150 306q-41 0-75.5-20T20 231.5Q0 197 0 156t20-75.5Q40 46 74.5 26T150 6q41 0 75.5 20T280 80.5q20 34.5 20 75.5t-20 75.5Q260 266 225.5 286T150 306zm0-263q-31 1-56.5 16t-41 40.5Q37 125 37.5 156T53 212.5Q68 238 93.5 253t56.5 15q31 0 56.5-15t41-40.5q15.5-25.5 15-56.5T247 99.5q-15-25.5-40.5-41T150 43zm70 60l-26 26-17-17 26-26q-17-12-37-16l-16 16-16-16q-20 4-37 16l26 26-17 17-26-26q-12 17-16 37l16 16-16 16q4 20 16 37l26-26 17 17-26 26q17 12 37 16l16-16 16 16q20-4 37-16l-26-26 17-17 26 26q12-17 16-37l-16-16 16-16q-4-20-16-37zm-70 70l-17-17 17-17 17 17-17 17z"/></svg>