<svg viewBox="0 0 300 310" xmlns="http://www.w3.org/2000/svg"><path d="M63 143h49l-10 23q-4 7-6 15H63v37h25v63H50v-25H25v-88q-10 0-17.5-7T0 143v-25h25V65q0-13 6.5-23.5T50 25Q90 6 131.5 6T213 25q11 6 18 16.5t6 23.5v7q-8-3-17-3h-28q-12 0-21.5 6.5T156 93l-3 6q-10 3-21 13t-16 22l-3 8V81H63v62zm237 87v51h-25v25h-50v-25h-37v25h-50v-25h-25v-51q0-28 11-54l15-32q4-10 12.5-16.5T171 119l3-11q1-7 6.5-11t11.5-4h28q6 0 11 4t7 11l3 11q11 2 19.5 8.5T274 144l14 32q12 26 12 54zm-41-24q-2-7-5-14l-14-32q-2-4-6-4h-55q-4 0-6 4l-15 32q-3 6-5 14h106z"/></svg>