<svg viewBox="0 0 300 310" xmlns="http://www.w3.org/2000/svg"><path d="M100 156q-20 0-37.5-10T35 118.5Q25 101 25 81t10-37.5Q45 26 62.5 16T100 6q20 0 37.5 10T165 43.5Q175 61 175 81t-10 37.5Q155 136 137.5 146T100 156zm0-113q-16 0-27 11T62 81q0 16 11 26.5t27 10.5q16 0 27-10.5T138 81q0-16-11-26.5T100 44v-1zM38 243q0-10 7-17.5t18-7.5h25v-37H63q-17 0-31.5 8.5t-23 23Q0 227 0 243v63h38v-63zm217-31q0-4-3.5-7.5T244 201h-11v22h11q4 0 7.5-3t3.5-8zm8-56H150q-16 0-26.5 11T113 194v112h187V193q0-15-11-26t-27-11h1zm-63 125h-20v-40h-22v40h-20V181h20v40h22v-40h20v100zm62-44v1l13 43h-22l-11-38h-9v38h-20V181h31q13 0 22 9t9 22q0 8-3.5 14.5T262 238v-1z"/></svg>