<svg viewBox="0 0 300 310" xmlns="http://www.w3.org/2000/svg"><path d="M144 143v113h-38v-60l-31 47v39l-32 24-23-30 18-13v-31l45-68q-26 25-37 28-14 4-27.5-3.5T1 166.5q-4-14.5 3.5-28T27 121q10-2 40-3L25 88V56L4 30 33 7l30 36v26l43 31q-6-5-9-11.5T94 75q0-10 5.5-18T114 45l11-39 11 39q9 4 14.5 12t5.5 18q0 7-3 13.5t-9 11.5l44-31V43l29-36 29 23-21 26v32l-42 30q34 1 42.5 3.5t15 8.5q6.5 6 9.5 13H144zm156 25v138H163V168h137zm-37 38h-25v25h25v-25zm-63 0v25h25v-25h-25zm0 62h25v-25h-25v25zm63 0v-25h-25v25h25z"/></svg>