<svg viewBox="0 0 300 310" xmlns="http://www.w3.org/2000/svg"><path d="M150 6q-41 0-75.5 20T20 80.5Q0 115 0 156t20 75.5Q40 266 74.5 286t75.5 20q41 0 75.5-20t54.5-54.5q20-34.5 20-75.5t-20-75.5Q260 46 225.5 26T150 6zm0 262q-31 1-56.5-14.5t-41-41Q37 187 37.5 156T53 99.5Q68 74 93.5 59T150 44q31 0 56.5 15T247 99.5q15 25.5 15.5 56.5t-15 56.5Q232 238 206.5 253T150 268zm-3-190h-28q-13 0-22.5 9T87 109v94q1 13 10 22t22 9h28q21 0 39-10.5t28.5-28.5q10.5-18 10.5-39t-10.5-39Q204 99 186 88.5T147 78zm0 119h-22v-82h22q17 0 28.5 12t11.5 29q0 17-11.5 29T147 197z"/></svg>