<svg viewBox="0 0 300 310" xmlns="http://www.w3.org/2000/svg"><path d="M125 143q0 11-7.5 18t-17.5 7q-10 0-17.5-7T75 143.5q0-10.5 7.5-18T100 118q10 0 17.5 7.5T125 143zm75-25q-10 0-17.5 7.5t-7.5 18q0 10.5 7.5 17.5t17.5 7q10 0 17.5-7t7.5-17.5q0-10.5-7.5-18T200 118zm-87 100q0 16 10.5 27t26.5 11q16 0 26.5-11t10.5-26v-13q1-16-10-26.5T150 169q-16 0-26.5 10.5T113 206v12zm187-62q0-41-20-75.5T225.5 26Q191 6 150 6T74.5 26Q40 46 20 80.5T0 156q0 41 20 75.5T74.5 286q34.5 20 75.5 20t75.5-20q34.5-20 54.5-54.5t20-75.5zm-37 0q-1 31-16 56.5t-40.5 41Q181 269 150 268.5T93.5 253Q68 238 53 212.5T37.5 156q-.5-31 15-56.5t41-41Q119 43 150 43t56.5 15.5q25.5 15.5 41 41T262 156h1zM117 92l-9-23q-32 14-50 42l21 13q14-21 38-32zm124 17q-18-26-49-39l-9 22q24 11 37 31l21-14z"/></svg>