<svg viewBox="0 0 300 310" xmlns="http://www.w3.org/2000/svg"><path d="M300 280l-74-75q24-33 24-74 0-34-16.5-62.5T188 23Q159 6 125 6T62.5 23Q34 40 17 68.5T0 131q0 34 17 63t45.5 45.5Q91 256 125 256q41 0 74-24l75 74 26-26zm-175-61q-23 0-43.5-12t-32-32Q38 155 38 131.5t11.5-44q11.5-20.5 32-32t44-11.5Q149 44 169 55.5t32 32q12 20.5 12 44T201 175q-12 20-32 32t-44 12zm0-150q-21 0-35.5 14.5t-14.5 35Q75 139 90 154l35 34 35-34q15-15 15-35.5t-14.5-35Q146 69 125 69zm0 68q-8 0-13.5-5.5t-5.5-13q0-7.5 5.5-13T125 100q8 0 13.5 5.5t5.5 13q0 7.5-5.5 13T125 137z"/></svg>