<svg viewBox="0 0 300 310" xmlns="http://www.w3.org/2000/svg"><path d="M256 43H44q-18 0-31 13T0 87v181h38l37-38 38 37 37-37 38 37 37-37 38 38h37V87q0-18-13-31t-31-13zm7 114l-20-20 20-20v40zm-2-74l-36 37-20-20 19-19h32q3 0 5 2zm-131 17l19-19h2l19 19-20 20-20-20zm2 37l-19 20-20-20 20-20 19 20zm56-20l19 20-19 20-20-20 20-20zM44 81h32l19 19-20 20-36-37q2-2 5-2zm13 56l-19 20v-40l19 20zm-19 95v-39l19 19-19 20zm17-57l20-20 20 20-20 20-20-20zm58 57l-20-20 20-20 19 20-19 20zm17-57l20-20 20 20-20 20-20-20zm58 57l-20-20 20-20 19 20-19 20zm17-57l20-20 20 20-20 20-20-20zm38 37l20-19v39l-20-20z"/></svg>