<svg viewBox="0 0 300 310" xmlns="http://www.w3.org/2000/svg"><path d="M300 57q-1-12-7.5-23T276 16Q262 6 244 6t-33 10.5q-15 10.5-21 29t1 36.5q2 5 0 7l-26 25-7-7q-14-13-32.5-13T94 107l-9 9q-11 10-13 25-14 2-25 12l-9 9q-13 14-13 32.5T38 226l8 8-46 45 27 27 45-46 8 8q13 13 31.5 13t32.5-13l9-9q10-11 12-25 15-2 25-13l9-9q14-13 14-31.5T199 148l-7-7 25-26q9-8 11.5-20.5T226 69q-2-6-.5-12t7-9.5Q238 44 244 44t10 3q8 5 8.5 13.5T257 76l27 26q8-9 12.5-20.5T300 57zM126 232l-9 9q-2 2-5 2t-6-2l-41-41q-3-3-3-6t3-5l9-9q2-3 5-3t6 3l41 41q3 3 3 6t-3 5zm47-46l-9 9q-3 2-6 2t-5-2l-42-42q-2-2-2-5t2-6l9-9q3-2 6-2t5 2l42 42q2 2 2 5t-2 6z"/></svg>