<svg viewBox="0 0 300 310" xmlns="http://www.w3.org/2000/svg"><path d="M175 206q0 17-7.5 27T150 243q-10 0-17.5-10t-7.5-27q0-17 7.5-27t17.5-10q10 0 17.5 10t7.5 27zM63 306h37V181H63v125zm137 0h38V181h-38v125zM100 93q-13 0-22 12-8 10-12 26-3 13-3 25 18-17 27.5-22t19 0q9.5 5 28.5 22 0-12-4-25-4-16-12-26-9-12-22-12zm100 0q-13 0-22 12-8 10-12 26-3 13-3 25 18-17 27.5-22t19 0q9.5 5 27.5 22 1-12-3-25-4-16-12-26-9-12-22-12zm100 63q0-41-20-75.5T225.5 26Q191 6 150 6q-46 0-84 25-34 24-52 63.5T1 176q6 45 37 79v-99q1-43 25-72 21-26 54-35t66 0q33 9 54 35 24 29 26 72v99q18-21 27.5-46.5T300 156zM125 266v38q25 4 50 0v-38q-25 5-50 0z"/></svg>