<svg viewBox="0 0 300 310" xmlns="http://www.w3.org/2000/svg"><path d="M150 6q-41 0-75.5 20T20 80.5Q0 115 0 156t20 75.5Q40 266 74.5 286t75.5 20q41 0 75.5-20t54.5-54.5q20-34.5 20-75.5t-20-75.5Q260 46 225.5 26T150 6zm25 260q-1-10-8-16.5t-17-6.5q-10 0-17 6.5t-8 16.5q-25-6-45-22t-31-39q-11-23-11-49t11-49q11-23 31-39t45-22q1 10 8 16t17 6q10 0 17-6t8-16q25 6 45 22t31 39q11 23 11.5 49t-11 49Q240 228 220 244t-45 22zm54-148H71q11-23 34-37h90q23 14 34 37zm9 38q-1 9-3 19H65q-3-10-2.5-19t2.5-19h170q3 10 2 19h1zM71 193h158q-11 24-34 38h-90q-23-14-34-37v-1z"/></svg>