<svg viewBox="0 0 300 310" xmlns="http://www.w3.org/2000/svg"><path d="M131 93q0-34-17-68l33-17q18 35 21 72 4-35 21-53 10-11 26-16 11-4 24-5h11v11q-1 14-5 26-5 16-15 27-13 13-35 20-13 3-26 3h-38zm135-32q-7 15-18 27l-5 5q19 28 20 63 0 31-15.5 56.5t-41 40.5Q181 268 150 268t-56.5-15Q68 238 53 212.5t-15-57Q38 124 54.5 97T99 56q-3-11-8-19l-7-15Q46 40 23 76.5T0 156q0 41 20 75.5T74.5 286q34.5 20 75.5 20t75.5-20q34.5-20 54.5-54.5t20-75.5q0-27-9-51.5T266 61zm-72 170q8 0 13-5.5t5.5-13.5q.5-8-5-13t-13.5-5.5q-8-.5-13.5 5T175 212q0 8 5.5 13.5T194 231zm-38-88q-8 0-13.5 5.5T137 162q0 8 5.5 13.5T156 181q8 0 13.5-5.5T175 162q0-8-5.5-13.5T156 143zm82 19q0-8-5.5-13.5T219 143q-8 0-13.5 5.5T200 162q0 8 5.5 13.5T219 181q8 0 13.5-5.5T238 162z"/></svg>