<svg viewBox="0 0 300 310" xmlns="http://www.w3.org/2000/svg"><path d="M286 194q-37-9-69 0-27 8-48 29v-24q12-18 12-34v-2q11 6 27 6 11 0 23-4l10-3-1-9q-3-11-8-20-6-13-15-21 13-10 20-31 3-11 4-19l-10-3q-12-3-23-3-16-1-27 6v-3q0-19-15-38-8-9-16-15l-8 7q-9 9-15 19-8 14-8 27v3q-16-9-40-5-12 1-20 5l1 9q3 11 8 20 6 13 15 21-9 7-16 20-4 10-7 21l-1 9 10 3q12 3 23 3 16 0 27-6v3q0 16 12 34v24q-21-21-48-29-32-9-69 0l-14 4v14q0 42 29 67 31 27 96 27h50q65 0 96-27 29-25 29-67v-14l-14-4zM53 251q-10-9-14-23 30-4 53 11 17 11 29 31-20 0-36-4-20-5-32-15zm97-170q10 0 17.5 7.5T175 106q0 10-7.5 17.5T150 131q-10 0-17.5-7.5T125 106q0-10 7.5-17.5T150 81zm97 170q-12 10-32 15-16 4-36 4 11-18 26-29 20-14 46-14l10 1q-4 14-14 23z"/></svg>