<svg viewBox="0 0 300 310" xmlns="http://www.w3.org/2000/svg"><path d="M239 196l45 110h-41l-41-103q20-3 37-7zM16 306h41l41-103q-20-3-37-7L16 306zm284-188q0 21-22 36-20 13-56 20-33 7-72 7t-72-7q-36-7-56-20-22-15-22-35t20-34q20-14 57-22 6-25 26.5-41T150 6q26 0 46.5 16T223 63q37 8 57 22t20 34v-1zM113 76q14 5 37 5t37-5q-2-14-12.5-23.5T150 43q-14 0-24.5 9.5T113 76zm149 43q-3-4-13-9-12-5-30-9-6 6-18 10-20 8-51 7.5T99 111q-12-4-18-10-18 4-30 9-10 5-13 9 4 4 17 10 16 6 38 10 26 5 57 4.5t57-4.5q22-4 38-10 13-6 17-10z"/></svg>