<svg viewBox="0 0 300 310" xmlns="http://www.w3.org/2000/svg"><path d="M100 6Q80 6 62.5 16T35 43.5Q25 61 25 81t10 37.5Q45 136 62.5 146t37.5 10q20 0 37.5-10t27.5-27.5Q175 101 175 81t-10-37.5Q155 26 137.5 16T100 6zm0 112q-16 0-27-10.5T62 81q0-16 11-27t27-11q16 0 27 11t11 27q0 16-11 26.5T100 118zm113 75v-18q0-8 5-13.5t12-5.5q7 0 12 3.5t7 9.5h38q-3-22-18.5-36.5t-38-14.5q-22.5 0-39 16.5T175 175v18h-12v75q0 16 11 27t26 11h63q15 0 26-11t11-27v-75h-87zm37 75h-37v-37h37v37zM63 181h75v37H63q-11 0-18 7.5T38 244v62H0v-63q0-16 8.5-30.5t23-23Q46 181 63 181z"/></svg>