<svg viewBox="0 0 300 310" xmlns="http://www.w3.org/2000/svg"><path d="M284 119q-15-14-35-13t-33 16l-31 33q-13-12-31-12h-42v-12h5q14 0 23.5-9.5T150 99q0-13-8-22t-19-11l-42-7q-2 0-4-2.5T75 51q0-3 2-5.5t6-2.5h29q6 0 9.5 4t3.5 9h25q0-15-11-26.5T112 18V6H87v12h-4q-14 0-23.5 10T50 50.5q0 12.5 7.5 22T77 84l41 6q3 1 5 3t2 5q0 3-2.5 5.5T117 106H87q-5 0-8.5-3.5T75 93H50q0 16 11 27t26 11v12H44q-18 0-31 13T0 187v75q0 18 13 31t31 13h140l104-119q13-15 12-35t-16-33zm-24 43l-94 106H44q-3 0-4.5-1.5T38 262v-75q0-2 1.5-4t4.5-2h111q3 0 5.5 2.5t2.5 5.5q0 3-2 5t-5 3l-65 9 5 37 65-9q15-2 26-13t13-26l43-48q3-3 7.5-3.5t8 2.5q3.5 3 4 7.5T259 162h1z"/></svg>