<svg viewBox="0 0 300 310" xmlns="http://www.w3.org/2000/svg"><path d="M150 6q-41 0-75.5 20T20 80.5Q0 115 0 156t20 75.5Q40 266 74.5 286t75.5 20q41 0 75.5-20t54.5-54.5q20-34.5 20-75.5t-20-75.5Q260 46 225.5 26T150 6zm0 262q-31 0-56.5-15T53 212.5Q38 187 37.5 156t15-56.5q15.5-25.5 41-41T150 43q31 0 56.5 15.5t41 41q15.5 25.5 15 56.5T247 212.5q-15 25.5-40.5 41T150 269v-1zm81-175l-20 118q-2 8-7.5 13t-12.5 7h-4q-7 0-12.5-3.5T166 218l-16-43-15 42q-4 7-9.5 10.5T113 231h-4q-7-2-12.5-7T89 211L69 93h38l12 68 31-68 31 68 12-68h38z"/></svg>