<svg viewBox="0 0 300 310" xmlns="http://www.w3.org/2000/svg"><path d="M150 212q0-8 5.5-13.5T169 193h37q8 1 13.5 6t5.5 13v19H75v-19q0-8 5.5-13.5T94 193h37q8 1 13.5 6t5.5 13zm-37-31q10 0 17.5-7.5T138 156q0-10-7.5-17.5t-18-7.5q-10.5 0-17.5 7.5T88 156q0 10 7 17.5t18 7.5zm75 0q10 0 17.5-7.5T213 156q0-10-7.5-17.5t-18-7.5q-10.5 0-17.5 7.5t-7 17.5q0 10 7 17.5t18 7.5zm87-45l-8 9q-13 11-29 11v87h-42l-11 13h-70l-11-13H63V118h87V81H25v162H0v25q0 16 11 27t27 11h225q15 0 26-11t11-27v-25h-25V136zm25-105v75h-29l-16 17q-7 8-18 8-10 0-17-8l-16-17h-29V31q0-10 7.5-17.5T200 6h75q10 0 17.5 7.5T300 31zm-37 12h-50v25h8l16 19 17-19h9V43z"/></svg>