<svg viewBox="0 0 300 310" xmlns="http://www.w3.org/2000/svg"><path d="M300 268q0 16-11 27t-26.5 11q-15.5 0-26.5-11t-11-27q0-3 1-7l-64-57q-6 2-12 2-10 0-19-5t-13-14H70q-5 9-13.5 14T37 206q-15 0-26-11T0 168.5Q0 153 11 142t26-11q11 0 19.5 5T70 150h48q6-11 17-16l6-60q-8-5-12-13t-4-17q0-16 11-27t27-11q10 0 18.5 5T195 25h35q5-9 13.5-14T263 6q15 0 26 11t11 26.5Q300 59 289 70t-26 11q-11 0-19.5-5T230 62h-35q-6 11-17 16l-6 60q7 5 11 13t4 17q1 4 0 8l63 57q6-2 13-2 15 0 26 11t11 26zM56 243q-8 0-13 5.5T38 262q0 8 5 13.5t13 5.5q8 0 13.5-5.5T75 262q0-8-5.5-13.5T56 244v-1zm225-112q-8 0-13 5.5t-5 13.5q0 8 5 13.5t13 5q8-.5 13.5-5.5t5.5-13q0-8-5.5-13.5T281 131zM144 268q-8 0-13.5 5.5T125 287q0 8 5.5 13.5T144 306q8 0 13.5-5.5T163 287q0-8-5.5-13t-13.5-5v-1zM19 43q8 0 13-5t5.5-13q.5-8-5-13.5T19 6q-8 0-13.5 5.5T0 25q0 8 5.5 13T19 43zm62 50q8 1 13.5-4.5T100 75q0-8-5.5-13.5T81 56q-8 0-13 5.5T63 75q0 8 5 13.5T81 94v-1z"/></svg>