<svg viewBox="0 0 300 310" xmlns="http://www.w3.org/2000/svg"><path d="M150 6q-41 0-75.5 20T20 80.5Q0 115 0 156t20 75.5Q40 266 74.5 286t75.5 20q41 0 75.5-20t54.5-54.5q20-34.5 20-75.5t-20-75.5Q260 46 225.5 26T150 6zm0 262q-31 0-56.5-15t-41-40.5Q37 187 37.5 156T53 99.5q15-25.5 40.5-41t56.5-15q31 .5 56.5 15.5t41 40.5q15.5 25.5 15 56.5T247 212.5q-15 25.5-40.5 41T150 269v-1zm-25-144q0 5 4 6l52 16q14 4 22.5 15.5T212 187q0 18-12.5 31T169 231h-44q-15 0-26.5-11T87 193h82q2 0 4-1.5t2-5q0-3.5-4-4.5l-52-16q-14-4-23-15.5T87 124q0-18 13-30.5T131 81h44q15 0 26 11t11 26h-81q-3 0-4.5 2t-1.5 4z"/></svg>