<svg viewBox="0 0 300 310" xmlns="http://www.w3.org/2000/svg"><path d="M152 143H63v-37h125v19l-13 4q-13 4-23 14zm-3 125H44q-3 0-4.5-1.5T38 262V68h62V50q0-3 2-5t4-2h38q2 1 4 2.5t2 4.5v18h63v49l18-7 19 7V31h-67q-5-11-15.5-18T144 6h-38q-13 0-23.5 7T67 31H0v231q0 18 13 31t31 13h138q-21-17-33-38zm-86-62h75v-25q0-6 1-12H63v37zm237-25v43q0 32-24 56-15 14-35 22l-11 4-9-5q-20-10-35-24-23-24-23-53v-43q0-10 5.5-17.5T183 153l48-16 49 16q9 3 14.5 10.5T300 181zm-37 6l-32-11-31 11v37q0 13 12 25 8 8 20 16 12-6 19-14 12-12 12-27v-37z"/></svg>