<svg viewBox="0 0 300.0014 310" xmlns="http://www.w3.org/2000/svg"><path d="M250 50v18h50v38h-50v25h50v37h-50v25h50v38h-50v75h-37V50q0-18 12.5-31T256 6h44v37h-44q-2 0-4 2t-2 5zm-50 197q0 17-9.5 32t-26 22q-16.5 7-34 4T100 290q-13 12-30 15t-33-3.5Q21 295 11 281T0 249.5Q-1 232 8 217t24-23l47-84-27-47Q38 36 37 6h38q0 21 10 39l15 26 15-26q10-18 10-39h38q-1 30-15 57l-27 47 47 84q14 8 23 22t9 31zm-100-98l-23 41q13 4 23 14 10-10 23-14l-23-41zm-19 98q0-7-3.5-12.5t-9.5-8q-6-2.5-12.5-1.5T44 231q-5 5-6 11.5t1.5 12.5q2.5 6 8 9.5T59 268q9 0 15.5-6t6.5-15zm82 0q0-7-4-12.5t-10-8q-6-2.5-12.5-1.5t-11.5 6q-5 5-6 11.5t1.5 12.5q2.5 6 8 9.5T141 268q9 0 15-6t7-15z"/></svg>