<svg viewBox="0 0 300 310" xmlns="http://www.w3.org/2000/svg"><path d="M263 268v38h-38v-75h23l-14-107q0-2-2-3.5t-4-1.5h-25q3-10 3-19t-3-18l7-1h18q16 0 28.5 11t14.5 27l19 149h-27zM90 81H72q-16 0-28.5 11T29 119L10 268h27v38h38v-75H52l14-107q0-2 2-3.5t4-1.5h25q-3-10-3-19t3-18l-7-1zm129-13q13 0 22-9t9-22q0-13-9-22t-22-9q-13 0-22.5 9T187 37q0 13 9.5 22.5T219 69v-1zM81 68q13 0 22.5-9t9.5-22q0-13-9.5-22T81 6q-13 0-22 9t-9 22q0 13 9 22.5T81 69v-1zm69 63q13 0 22-9t9-22q0-13-9-22.5T150 68q-13 0-22 9.5t-9 22.5q0 13 9 22t22 9zm50 56v69h-6v50h-38v-50h-12v50h-38v-50h-6v-69q0-18 13-31t31-13h12q18 0 31 13t13 31zm-62 31h25v-31q0-2-2-4t-5-2h-12q-3 0-4.5 2t-1.5 4v31z"/></svg>