<svg viewBox="0 0 300 310" xmlns="http://www.w3.org/2000/svg"><path d="M237 144l-9-30q9-1 18-1 7 6 16 6h13V69h-13q-9 0-16 6-15 1-30 3l-15-47h-64v38h37l7 23q-8 6-15 14h-58q-5-11-16-17.5T69 81H25v38h44q4 0 5.5 3.5T73 129l-10 15h-1q-17 0-31 8.5T8.5 175Q0 189 0 206t8.5 31.5Q17 252 31 260.5t31 8.5q21 0 37.5-12t22.5-32q8-4 13-12l59-81 7 23q-19 14-24.5 36t5 43q10.5 21 31.5 30t43 2q22-7 34.5-26.5t9-42.5q-3.5-23-21.5-38t-41-15zm-132 47q-2 3-5 3H74l30-43q2-3 4-7h31l-34 47zm132 40q-10 0-17.5-7t-7.5-17.5q0-10.5 7.5-18t18-7.5q10.5 0 17.5 7.5t7 18q0 10.5-7 17.5t-18 7z"/></svg>