<svg viewBox="0 0 300 310" xmlns="http://www.w3.org/2000/svg"><path d="M256 193H156q-18 0-30.5 13T113 237v13q0 18 12.5 30.5T156 293h100q18 0 31-12.5t13-30.5v-13q0-18-13-31t-31-13zm-106 57v-13q0-2 2-4t4-2h19v25h-19q-2 0-4-2t-2-4zm113 0q0 2-2 4t-5 2h-43v-25h43q3 0 5 2t2 4v13zm-7-219H156q-18 0-30.5 13T113 75v12q0 18 12.5 31t30.5 13h100q18 0 31-13t13-31V75q0-18-13-31t-31-13zM150 87V75q0-3 2-5t4-2h44v25h-44q-2 0-4-1.5t-2-4.5zm113 0q0 3-2 4.5t-5 1.5h-18V68h18q3 0 5 2t2 5v12zM13 43q-1-15 10-26T50 6q16 0 26.5 11T87 43.5Q87 59 76.5 70T50 81q-16 0-26.5-11T13 43zm87 88v12H0v-12q0-16 11-26.5T38 94h25q15-1 26 10t11 27zM50 243q-16 0-27-10.5T12.5 206q.5-16 11-26.5T50 169q16 0 27 10.5T88 206q0 16-11 26.5T50 243zm50 50v13H0v-13q0-15 11-26t27-11h25q15 0 26 11t11 26z"/></svg>