<svg viewBox="0 0 301 310" xmlns="http://www.w3.org/2000/svg"><path d="M281 56q-3 0-5 1l25-25-27-27-25 25q1-2 1-5 0-8-5.5-13.5T231 6q-8 0-13.5 5.5t-5 13q.5 7.5 5.5 13t13 5.5h6l-36 35q-30-22-68-22-14 0-29 4l-14 4v14q0 20-14 34-8 9-19.5 12.5T34 126l-14-2-6 12Q0 163 0 189q0 38 22 68L0 279l27 27 22-22q30 22 68 22 27 0 54-14l12-7-3-14q-2-12 1.5-23.5T194 227q14-14 34-14h15l4-15q3-12 3-25 0-38-22-68l35-36v6q0 8 5 13t13 5q8 0 13.5-5t5.5-13q0-8-5.5-13.5T281 56zm-68 117q0 2-1 3-26 5-45 24-13 13-19.5 29.5T142 264q-13 4-25 4-22 0-41-11l19-19-27-27-19 19q-11-19-11-41 0-12 4-25 17 0 33-6.5t28-18.5q19-19 23-45h7q22 0 41 11l-75 75 27 27 75-75q12 19 12 41z"/></svg>