<svg viewBox="0 0 300 310" xmlns="http://www.w3.org/2000/svg"><path d="M200 200q0 8-5.5 13t-13.5 5q-8 0-13.5-5t-5-13q.5-8 5.5-13.5t13-5.5q8 0 13.5 5.5T200 200zm13 0q0 8 5 13t13 5q8 0 13.5-5t5.5-13q0-8-5.5-13.5T231 181q-8 0-13.5 5.5T212 200h1zm12-38q0-8-5.5-13t-13.5-5.5q-8-.5-13.5 5t-5 13.5q.5 8 5.5 13.5t13 5.5q8 0 13.5-5.5T225 162zm75 38q0 30-15.5 55.5t-42.5 39q-27 13.5-56.5 11T132 286l-8 12-6 8H32l-6-8Q1 261 0 216q2-37 23-67 12-17 14-37-2-15-6.5-28.5T25 56q0-10 3.5-19.5T39 20q7-7 16.5-10.5T75 6q10 0 19.5 3.5T111 20q7 7 10.5 16.5T125 56q-1 14-5.5 27.5T112 112q1 8 4 15 22-24 54-31t62.5 5q30.5 12 49 39t18.5 60zM63 56q0 2 4.5 17.5T75 106h1q2-17 6.5-32.5T88 55q0-6-3-9t-10-3q-7 0-9.5 3T63 56zm35 212q14-24 14-52-2-27-17-49-7-11-13-24H68q-6 13-13 24-15 22-17 49 0 28 14 53l46-1zm165-68q0-23-14-41.5t-36-25q-22-6.5-43.5 2T135 164q14 24 15 52 0 17-4 33 15 14 35 18t39.5-4q19.5-8 30.5-25.5t12-37.5z"/></svg>