<svg viewBox="0 0 300 310" xmlns="http://www.w3.org/2000/svg"><path d="M274 118q-8-20-24.5-35T213 61V18q-18 0-31.5 10.5T164 56h-64q-33 0-60 20-2-8-3-20H0q0 31 13 51-13 23-13 49.5T13.5 206Q27 229 50 243v38h63v-25h50v25h62v-35q17-8 29.5-21.5T274 193h26v-75h-26zm-93 100h-81q-17 0-31.5-8T46 187.5Q38 173 37.5 156t8-31.5q8.5-14.5 23-23T100 94h81q17-1 31.5 7.5t23 23Q244 139 244 156t-8.5 31.5q-8.5 14.5-23 22.5t-31.5 8zm32-81q-1 8-6 13.5t-13 5.5q-8 0-13.5-5.5T175 137q0-8 5.5-13.5t13.5-5q8 .5 13.5 5.5t5.5 13z"/></svg>