<svg viewBox="0 0 300 310" xmlns="http://www.w3.org/2000/svg"><path d="M150 106h25V68h-34l-3-12h6q13 0 22-9t9-22V6h-38v12h-17Q106 6 87.5 6T55 18H37V6H0v19q0 13 9 22t22 9h6l-3 12H0v38h25q0 7 1 13-11 2-18.5 10.5T0 150v18h38v-12h12q17 13 37 12 17 1 31.5-7.5t23-23Q150 123 150 106zm-87 0l14-56q2-3 4.5-5t6-2q3.5 0 6 2t4.5 5l14 56q1 10-6.5 17.5t-18 7.5Q77 131 70 123.5T63 106zm206 87q13 0 22-9t9-22v-19h-37v13h-18q-14-13-33-13-15 0-27.5 9T167 175l-8 31h-34v37h25q0 7 1 13-11 2-18.5 11t-7.5 20v19h38v-13h12q17 13 37.5 13t37.5-13h13v13h37v-19q0-11-7.5-20T274 256q1-6 1-12h25v-38h-34l-3-13h6zm-56 75q-11 0-18-7t-8-18l15-55q2-3 4.5-5t6-2q3.5 0 6 2t4.5 5l15 55q0 11-7.5 18t-17.5 7z"/></svg>