<svg viewBox="0 0 300 310" xmlns="http://www.w3.org/2000/svg"><path d="M300 168q0-33-16-60-14-22-39-39-21-14-45-21V6H100v42q-24 7-44 21-25 16-39 39-17 27-17 60 0 45 30 71.5t85 33.5l-7 8 28 25 14-16 14 16 28-25-7-8q55-7 85-33.5t30-71.5zM138 68V43h25v25l3 5q32 49 34 108 0 43-30 53 5-20 5-40 0-47-12-79-7-15-13-21v-1l-4 6q-5 7-8 16-6 14-9 31-4 22-4 47 0 21 5 41-30-10-30-53 0-34 17-74 9-22 17-34l4-5zM38 168q0-22 11.5-41T80 97q-17 41-17 84-1 21 6 40-15-7-23.5-21.5T37 169l1-1zm193 53q7-19 6-40 0-43-17-83 20 11 31 29.5t12 40.5q0 17-8.5 31.5T231 221z"/></svg>