<svg viewBox="0 0 300 310" xmlns="http://www.w3.org/2000/svg"><path d="M100 306H31q-13 0-22-9t-9-22v-69h38v62h62v38zm200-31v-69h-37v62h-63v38h69q13 0 22-9t9-22zm0-238q0-13-9-22t-22-9h-69v37h63v63h37V37zM38 43h62V6H31Q18 6 9 15T0 37v69h38V43zm200 113q0 24-12 44t-32 31.5q-20 11.5-44 12T106 232q-20-12-32-32t-12-44q0-24 12-44t32-32q20-12 44-11.5t44 12Q214 92 226 112t12 44zm-119 0q8 0 13.5-5.5t5-13.5q-.5-8-5.5-13.5t-13-5q-8 .5-13.5 5.5t-5.5 13q0 8 5.5 13.5T119 156zm75 35l-13-20q-5 2-11 5-11 5-19.5 5t-18.5-4q-7-3-13-6l-13 20q6 5 14 8 16 7 30 7t30-7q8-3 14-8zm6-54q0-8-5.5-13.5t-13.5-5q-8 .5-13.5 5.5t-5 13q.5 8 5.5 13.5t13 5.5q8 0 13.5-5.5T200 137z"/></svg>