<svg viewBox="0 0 300 310" xmlns="http://www.w3.org/2000/svg"><path d="M200 106q-17 0-33.5 6T136 129q-11-6-24-9l17-34-16-18H75L59 86l17 34q-28 5-48.5 25.5T1.5 194Q-4 222 7 248t34.5 42q23.5 16 52 16t52.5-16q27 17 59 15.5t57-21q25-19.5 34-50.5t-1.5-61Q284 143 258 124.5T200 106zM38 212q0-23 16-39.5T94 156q9 0 18 3-13 25-11.5 53t17.5 51q-12 5-24 5-24 0-40-16t-17-40h1zm162 56q-14 0-27-6 16-25 14.5-55T167 153q16-10 36-9t35.5 13.5Q254 170 260 189t-1 37.5q-7 18.5-23 30.5t-36 12v-1zM127 43l29-29 26 27-28 28-27-26zM6 41l26-27 29 28-27 27L6 41zM75 6h38v37H75V6z"/></svg>