<svg viewBox="0 0 300 310" xmlns="http://www.w3.org/2000/svg"><path d="M86 220l-11-10 27-27 11 11q12 13 30.5 13t31.5-13l75-75q13-13 13-31t-13-31q-11-11-26.5-13T195 51q-19-8-39-8l-9 1 14-14q12-12 27-18t31-6q33 0 58 25 15 16 20.5 37t0 41.5Q292 130 276 145l-75 75q-11 12-26 18t-31 6q-16 0-31-6t-27-18zm-63 61q14 13 28 19t30 6q16 0 31-6t27-18l14-14-9 1q-20 0-39-8-12 9-28 7t-27-13q-12-13-12-31t12-31l75-75q13-13 31.5-13t30.5 13l11 11 27-27-11-10q-16-16-37-21.5t-42 0Q114 76 99 92l-75 75Q8 182 2.5 202.5t0 41.5Q8 265 23 281z"/></svg>