<svg viewBox="0 0 300 310" xmlns="http://www.w3.org/2000/svg"><path d="M125 11V8q13-2 25-2t25 2v2q-16 6-26 20-10-13-24-19zm163 85v15q0 13-6 25t-17 20l-3 2q0 30-15.5 55.5t-41 40Q180 268 149.5 268t-56-15Q68 238 53 212t-15-56q-12-9-19-22t-7-28V96Q0 125 0 156q0 41 20 75.5T74.5 286q34.5 20 75.5 20t75.5-20q34.5-20 54.5-54.5t20-75.5q0-31-13-60h1zM88 218h31q0 15 8.5 26.5T150 256q14 0 22.5-11.5T181 218h32v-37H88v37zm17-100H75q-5 0-8.5-3.5T63 106H38q0 16 10.5 27T75 144v12h25v-13h5q13 0 22.5-9.5t10-22q.5-12.5-7.5-22T110 78l-41-7q-3 0-5-2t-1.5-5q.5-3 2.5-5.5t5-2.5h30q5 0 8.5 3.5T112 68h26q0-15-11-26t-27-11V18H75v13h-5q-13 0-22.5 9.5T38 63q0 13 7.5 22T65 96l41 7q3 0 5 2.5t2 5.5q0 3-2.5 5t-5.5 2zm58-54q0 12 7.5 21T190 96l41 7q3 0 5 2.5t2 5.5q0 3-2.5 5t-5.5 2h-30q-5 0-9-3.5t-4-8.5h-24q0 16 10.5 27t26.5 11v12h25v-13h5q13 0 23-9.5t10-22q0-12.5-8-22T235 78l-41-7q-3 0-5-2t-1.5-5q.5-3 2.5-5.5t5-2.5h30q5 0 9 3.5t4 8.5h25q0-15-11-26t-27-11V18h-25v13h-5q-13 0-22.5 9.5T163 64z"/></svg>