<svg viewBox="0 0 300 310" xmlns="http://www.w3.org/2000/svg"><path d="M237 176q2-5 21-26 20-23 28-35 14-21 14-40 0-26-18-37-11-7-26-7-11 0-23 5-7 2-19 8.5T197 53q-8 3-16 3-5 0-13-7-5-4-15-14h-1q-13-15-21-20-13-9-26-9-9 0-16 2-12 5-19 17-3 6-6 17-2 9-2 38l1 4q0 4-22 17-20 11-28 18-13 13-13 29.5T12 176q7 6 22 13t16 10l-13 26q-7 13-10 24.5t.5 21.5q3.5 10 12 16.5T59 293q6 0 14-2t17-7q5-3 16-11t17-11q9-6 13.5-5.5T152 263q14 9 31 23 25 20 49 20 20 0 31.5-11.5T275 263q0-16-8-32-4-9-15-25-7-11-10-16-5-8-5-14zm0 92h-5q-11 0-26-12-30-24-50-33-10-4-18-5-14 0-29 8-9 5-25 16-15 11-20 13 2-5 6-12l8-18q9-20 10-25 0-18-14-30-7-7-24-15-10-5-12-7 1-4 21-15 19-11 27-18 14-14 14-31v-4q0-25 1-30l2-7h2q4 1 21 18 15 15 24 22 16 11 30.5 11t28.5-6q8-3 22-10 9-5 13-7 7-2 12-2h5q1 0 1 .5V75q0 9-10 24-7 9-22 26t-21 25q-9 13-9 25 0 14 7 29 4 8 14 23 9 13 12 18 4 10 4 18v5zM119 143q-8 0-13.5-5t-5.5-13q0-8 5.5-13.5T119 106q8 0 13.5 5.5t5 13.5q-.5 8-5.5 13.5t-13 5.5v-1zm81-6q0 8-5.5 13.5T181 156q-8 0-13.5-5.5t-5-13.5q.5-8 5.5-13.5t13-5q8 .5 13.5 5.5t5.5 13zm-50 50q0 8-5.5 13.5T131 206q-8 0-13.5-5.5T112 187q0-8 5.5-13.5t13.5-5q8 .5 13.5 5.5t5.5 13z"/></svg>