<svg viewBox="0 0 300 310" xmlns="http://www.w3.org/2000/svg"><path d="M169 81h-38V31h38v50zm72-21l-32-19-25 43 32 19 25-43zM116 84L91 41 59 60l25 43 32-19zm184 91q0-24-16.5-40T244 118q-12 0-23 5.5T202 138l-32-10-11 36 61 18 7-15q2-5 6.5-8t10.5-3q8 0 13.5 5.5T263 175q0 10-9 16l-15 9 8 16q3 4 3 9 0 8-5.5 13.5T231 244q-8 0-13-5.5t-5-13.5l2-19-65-18-65 18 2 19q0 8-5.5 13.5t-13 5.5q-7.5 0-13-5.5T50 225q0-5 3-9l8-16-15-9q-9-6-9-16 0-8 5.5-13.5T56 156q6 0 10.5 3t6.5 8l7 15 61-18-11-36-32 10q-8-9-19-14.5T56 118q-23 0-39.5 16.5T0 173.5Q0 196 14 212q-2 6-2 13 0 23 16.5 39.5T69 281q20 0 36-13.5t19-33.5l26-7 26 7q3 20 19 33.5t36 13.5q23 0 39.5-16.5T287 225q0-7-1-13 14-16 14-37z"/></svg>