<svg viewBox="0 0 300 310" xmlns="http://www.w3.org/2000/svg"><path d="M268 189q7-13 7-27.5t-8-27.5q-8-13-21-21 4-9 4-20 0-20-14.5-34.5T201 43q-11-16-26-26.5T144 6h-19v19q0 10-3 19h-22q-21-1-35.5 14T50 94q0 10 4 19-13 8-21 21t-8 27.5q0 14.5 7 27.5-14 8-23 22.5T0 243q0 17 8.5 31.5t23 23Q46 306 63 306h175q16 0 30.5-8.5t23-23Q300 260 300 243t-9-31.5q-9-14.5-23-22.5zm-30 79H63q-11 0-18-7t-7-17.5q0-10.5 7-18t18-7.5h100v-37H81q-8 0-13-5.5T62.5 162q-.5-8 5-13t13.5-5h82v-38h-63q-5 0-8.5-3.5t-3.5-9q0-5.5 3.5-9T100 81h45l5-9q6-9 9-20 9 7 13 18l5 11h23q5 0 9 3.5t4 9q0 5.5-4 9t-9 3.5v37h19q8 0 13.5 5.5T238 162q0 8-5.5 13.5T219 181h-19v37h38q10 0 17.5 7.5t7.5 18q0 10.5-7.5 17.5t-17.5 7z"/></svg>