<svg viewBox="0 0 300 310" xmlns="http://www.w3.org/2000/svg"><path d="M125 268h50v38h-50v-38zM263 31h-38V6h-37v25h-75V6H75v25H38q-16 0-27 11T0 69v87q7-9 16.5-16t21.5-9h225q11 2 20.5 9t16.5 16V68q0-15-11-26t-27-11h1zM75 256H25q-10 0-17.5 7.5T0 281v25h100v-25q0-10-7.5-17.5T75 256zm13-63q0-15-11-26t-27-11q-16 0-26.5 11T13 193.5Q13 209 23.5 220T50 231q16 0 27-11t11-26v-1zm187 63h-50q-10 0-17.5 7.5T200 281v25h100v-25q0-10-7.5-17.5T275 256zm13-63q-1-15-11.5-26T250 156q-16 0-26.5 11T213 193.5q0 15.5 10.5 26.5t26.5 11q16 0 27-11t11-26v-1z"/></svg>