<svg viewBox="0 0 300 310" xmlns="http://www.w3.org/2000/svg"><path d="M163 168h31l-39 45q-5 6-11.5 6t-10.5-6l-40-45h32v-50h38v50zm137 17q0 26-13 48t-35 35q-22 13-48 13H66q-18 0-33-10T9 244.5Q0 228 0 209q0-16 7-30.5T26 153q-1-6-1-13 0-29 14.5-54.5t40-40Q105 31 135.5 31t57 17Q219 65 233 93q30 10 48.5 35t18.5 57zm-37 0q0-21-13.5-37.5T216 127l-11-2-3-10q-8-21-26.5-33.5T134 69q-19-1-35.5 9t-26 26.5Q63 121 63 140q0 9 2 17l3 13-12 7q-8 5-13.5 14T37 209q0 14 8.5 24T66 243h138q16 0 29.5-7.5t21.5-21q8-13.5 8-29.5z"/></svg>