<svg viewBox="0 0 300 310" xmlns="http://www.w3.org/2000/svg"><path d="M56 143q24 0 40.5-16.5T113 87V62q0-23-16.5-39.5T56.5 6Q33 6 16.5 22.5T0 62v25q0 23 16.5 39.5T56 143zM38 62q0-8 5-13.5T56 43q8 0 13.5 5.5T75 62v25q0 8-5.5 13.5T56 106q-8 0-13-5.5T38 87V62zm25 106v138H25v-81L2 202l33-34h28zm225 25v-18q0-24-16.5-40.5t-40-16.5q-23.5 0-40 16.5T175 175v18h-12v75q0 16 11 27t26 11h63q15 0 26-11t11-27v-75h-12zm-75-18q0-8 5-13.5t13-5.5q8 0 13.5 5.5T250 175v18h-37v-18zm37 93h-37v-37h37v37zm-112 0q0 21 12 37l-6 1q-23 0-39.5-16.5T88 250v-25q0-22 14-38t36-18v38q-6 2-9.5 7t-3.5 11v25q0 6 3.5 10.5t9.5 6.5v1zm18-125h-6V63l-23-23 33-34h28v100q-22 14-32 37z"/></svg>