<svg viewBox="0 0 300.0204 310" xmlns="http://www.w3.org/2000/svg"><path d="M274.02 87q-7-37-35.5-59t-69.5-22q-18 0-36 4-21 6-38 16-35-16-79-20-5-1-10 3t-6 9q-1 5 3 9 27 21 43 50-21 37-21 91 0 38 11 78-17 9-26.5 25t-9.5 35q18 0 33-5 12-5 21-12 7-6 11-12l4-6 3 6q5 6 12 12 9 7 21 12 15 5 33 5 0-20-10.5-36.5t-27.5-24.5q2-26 24-57 12-18 32-30 8 14 19 41 16-32 20-55 9-1 17-1h88v-25q0-11-7.5-20t-18.5-11zm-62 19q-36 0-67.5 16t-51.5 45q-18 26-25 50-5-26-5-49 0-53 23-85 18-24 47-34 18-6 36-6 22 0 37.5 9t23 23q7.5 14 7.5 31h-25z"/></svg>