<svg viewBox="0 0 300.0055 310" xmlns="http://www.w3.org/2000/svg"><path d="M295 135q-3-5-7-10 10-18 12-38 2-32-22-58l-1-1Q251 4 219 6q-20 2-38 12-5-4-10-7-23-9-44-2-16 6-28 20-7 9-18 11.5T56 47l-3 2q-16 5-23 20-5 11-4 22 2 15-6 27l-3 6q-5 9-4.5 18.5t4 17.5q3.5 8 1.5 17-5 24-12 79l-6 50 50-6q55-7 79-12 9-2 17 1.5t17.5 4q9.5.5 18.5-4.5l6-3q12-8 27-6 11 1 22-4 15-7 20-23l2-3q4-14 6.5-25t11.5-18q14-12 20-28 7-21-2-44zm-44-80q12 13 11 29 0 11-7 22-9 15-6 33 1 10 1 22v4q0 9-6 16-5 4-11 5-21 5-34 23l-2 2q-8 8-20 7-14-1-28 7-16 10-64 23l133-133-27-27L58 221q13-48 23-64 8-14 7-28-1-12 7-20l2-2q18-13 23-34 1-6 5-11 7-6 16-6h3q12 0 24 1 17 3 32-6 11-7 22-7 16-1 29 11z"/></svg>