<svg viewBox="0 0 300 310" xmlns="http://www.w3.org/2000/svg"><path d="M284 119q-15-14-35-13t-33 16l-31 33q-13-11-31-11H44q-18 0-31 12.5T0 187v75q0 18 13 31t31 13h140l104-119q13-15 12-35t-16-33zm-24 43l-94 107H44q-3 0-4.5-2t-1.5-5v-75q0-2 1.5-4t4.5-2h110q4 0 6.5 2.5t2.5 5.5q0 3-2 5.5t-5 2.5l-65 9 5 37 65-9q15-2 26-13t13-26l43-48q3-3 7.5-3.5t8 2.5q3.5 3 4 8t-2.5 8zM175 6h-37q0 16-11 26.5T100 43q-16 0-26.5-10.5T63 6H25v112h150V6zM69 93q-8 0-13.5-5T50 75q0-8 5.5-13.5T69 56q8 0 13.5 5.5T88 75q0 8-5.5 13T69 93zm62 0q-8 0-13-5t-5-13q0-8 5-13.5t13-5.5q8 0 13.5 5.5T150 75q0 8-5.5 13T131 93z"/></svg>