<svg viewBox="0 0 300 310" xmlns="http://www.w3.org/2000/svg"><path d="M75 156V93h38v63H75zm56 0h38V93h-38v63zm149 32q20 21 20 49.5T280 286q-20 20-49 20-14 0-26.5-5T183 286q-20-20-20-48.5t20-48.5l48-48 49 47zm-17 49q0-13-10-22l-22-21-22 21q-9 9-9 22t9 22q9 9 22 9t22-9q9-9 9-22h1zm-120 31q-29-2-53-17.5T52 210q-14-25-14.5-55t15-55.5q15.5-25.5 41-41T150 43q27 0 50.5 12t39 33q15.5 21 20.5 47l39 38q1-9 1-17 0-41-20-75.5T225.5 26Q191 6 150 6T74.5 26Q40 46 20 80.5T0 156q0 41 20 75.5T74.5 286q34.5 20 75.5 20 8 0 17-1l-2-1q-15-16-22-36zm82-156V93h-37v56l37-37z"/></svg>