<svg viewBox="0 0 300 310" xmlns="http://www.w3.org/2000/svg"><path d="M291 68q-22-26-52.5-39T174 19q-3-4-8-7-8-5-17-6t-17 2Q93 20 62.5 46T14 107q-7 15-12 32-3 8-2 17t6 17q3 4 7 8-2 33 10.5 63.5T62 297q7 6 16 8t18 0q9-2 16.5-7.5T124 283l37-72 6 1 39-39-1-6 72-37q9-4 14.5-11.5T299 102q2-9 0-18t-8-16zM38 150q11-38 39-66t66-40q2-1 3.5 0t1.5 3l18 113-12 12-113-17q-2-1-3-2.5t0-2.5zm53 116q0 2-2 2.5t-3-.5q-16-14-25.5-33.5T50 194l72 11-31 61zM260 97l-61 31-11-72q21 1 40.5 10T262 92q1 1 .5 2.5T260 97z"/></svg>