<svg viewBox="0 0 300 310" xmlns="http://www.w3.org/2000/svg"><path d="M208 6l-85 193q-2 5-7 6.5t-9-.5q-4-2-6-6.5t0-9.5q9-19 1.5-38t-26-28q-18.5-9-38-1.5T10 148q-12 27-9 57t20 54q17 24 44.5 37t57 10q29.5-3 54-20.5T214 241l85-193-91-42zm19 50l23 11-29 65-23-10 29-66zm-47 169q-9 19-25 30t-36 13q-20 2-38-6.5T51.5 237Q40 221 38 201.5t6-38.5q2-4 7-6t10 0q5 2 6.5 7t-.5 10q-5 12-4 25t8.5 24q7.5 11 20 16.5t25.5 4q13-1.5 23.5-9T157 215l26-59 23 11-26 58zm120 43q0 16-11 27t-26.5 11q-15.5 0-26.5-11t-11-26.5q0-15.5 11-26.5t26.5-11q15.5 0 26.5 11t11 26z"/></svg>