<svg viewBox="0 0 300 310" xmlns="http://www.w3.org/2000/svg"><path d="M169 306q-18 0-31-10-8-5-18-19-7-9-11-13-6-6-13.5-10T77 248q-6-1-20-2-25-2-37-7-20-9-20-33 0-13 6-24 4-8 13-19 7-9 10-14 4-7 5-13.5T32 119q-2-6-8-18-11-24-12-37-3-23 14-36 14-10 33-7 12 2 34 12h1q13 6 19 8 10 3 17 2.5t17-6.5q6-4 19-12 17-12 26-15 15-6 27-2 14 4 19 23 3 11 4 38t3.5 30.5Q248 103 260 112q19 14 26 23 14 16 14 34t-18 30q-11 7-37 16-22 7-24.5 10t-9.5 25q-7 27-14 38-11 18-28 18zM38 206q4 2 21 3t27 3q15 3 27 9t22 16q6 6 15 17 6 8 9 11t6 3q4-6 10-28 5-16 7-22 5-12 10.5-18.5T210 188q7-3 23-9 24-8 29-12-1-5-9-13l-15-12q-15-11-21-17-7-9-10-24-1-10-2-31-1-18-2-24-5 2-16 10-16 11-25 16-15 7-28.5 8.5T105 78q-10-3-27-11-26-11-29-8-1 4 9 26 8 18 11 27 4 15 2.5 28.5T62 167q-4 7-13 19-6 8-8.5 12t-2.5 8z"/></svg>