<svg viewBox="0 0 300 310" xmlns="http://www.w3.org/2000/svg"><path d="M300 97q0-9-6.5-15.5t-15-6.5q-8.5 0-15.5 6-10-11-19-18 8-9 13-20.5t5-24.5h-37q0 11-7.5 18T200 43h-6q-8 0-13.5-5T175 25V6h-38v19q0 9 3 19h-9q-8-1-13.5-6T112 25V6H75v19q0 23 16.5 39.5T131 81h12q-6 13-6 26v11H80q-13 1-25 6.5T35 139L0 178l24 21q2 11 8 28l5 13 1 66h47l-1-50h78v50h50v-69q10-13 16-29 9-24 9-47v-14l15-2q11-1 19-8.5t10-18.5q8-1 13.5-7t5.5-14zm-100 18v46q0 19-9 38-5 11-12 20H69l-1-4q-5-13-7-19-2-11-2-19.5t6-14.5q6-6 15-6h95v-49q0-8 4-14 6-11 23-12 15 6 37 28l-39 6z"/></svg>