<svg viewBox="0 0 300 310" xmlns="http://www.w3.org/2000/svg"><path d="M274 32Q250 9 214.5 6t-75 14.5Q100 38 66 72t-51.5 73.5Q-3 185 0 220.5T26 280q27 26 70 26 34 0 70.5-17t67.5-49q24-24 40-51.5t23-56.5q6-30 0-56t-23-44zM92 98q25-24 53.5-38.5T200 44l3 2q7 8 9 20.5T209 95q-5 19-16.5 38t-29 36.5Q146 187 127 198.5T89 215q-16 5-28.5 3T40 209l-2-3q1-26 15.5-54.5T92 98zm168 26q-5 23-18.5 46.5T208 214q-25 25-54.5 39.5t-56 15Q71 269 55 255q6 1 12 1 15 0 31-4 24-7 47.5-21t44.5-35q21-21 35-44.5t20.5-47Q252 81 249 61q10 11 12.5 27.5T260 124z"/></svg>