<svg viewBox="0 0 300 310" xmlns="http://www.w3.org/2000/svg"><path d="M150 6q-41 0-75.5 20T20 80.5Q0 115 0 156t20 75.5Q40 266 74.5 286t75.5 20q41 0 75.5-20t54.5-54.5q20-34.5 20-75.5t-20-75.5Q260 46 225.5 26T150 6zm113 150q0 36-21 65l-41-41q11-8 17.5-21t6.5-28q0-17-8.5-31.5t-23-22.5Q179 69 162 69h-31q-17-1-30 12L85 64q29-21 65-21 31 1 56.5 16t41 40.5Q263 125 263 156zm-89-3l-46-46q1-1 3-1h31q11 0 18 7.5t7 17.5q0 7-3.5 13t-9.5 9zm-136 3q0-36 20-65l157 157q-29 21-65 20-31 1-56.5-14.5t-41-41Q37 187 37 156h1zm50-1l38 38h-1v50H88v-88z"/></svg>