<svg viewBox="0 0 300 310" xmlns="http://www.w3.org/2000/svg"><path d="M150 206q10 0 17.5 7.5T175 231q0 10-7.5 17.5T150 256q-10 0-17.5-7.5T125 231q0-10 7.5-17.5T150 206zm-87-63q0 18 9 33 11 18 28 17.5t28-17.5q10-15 10-33l-15 7q-15 6-23 6t-23-6l-14-7zm100 0q0 18 9 33 11 18 28 17.5t28-17.5q10-15 10-33l-15 7q-15 6-23 6t-23-6l-14-7zm88-37q12 24 12 50 0 31-15.5 56.5t-41 40.5Q181 268 150 268.5t-56.5-15q-25.5-15.5-41-41T37 156q1-26 12-49t31-39q20-16 45-22V8q-35 6-63.5 27t-45 53Q0 120 0 156q0 41 20 75.5T74.5 286q34.5 20 75.5 20t75.5-20q34.5-20 54.5-54.5t20-75.5q0-25-9-50h-40zM300 6h-62v25h26l-26 26v24h62V56h-26l26-26V6zm-87 75h-27l27-26V31h-63v25h26l-26 26v24h63V81z"/></svg>