<svg viewBox="0 0 300 310" xmlns="http://www.w3.org/2000/svg"><path d="M275 293H25V135Q7 122 2 102t2.5-39.5q7.5-19.5 24-32T66 18h168q21 0 37.5 12.5t24 32Q303 82 298 102t-23 33v158zM63 256h175V115l9-6q9-4 13-13t1.5-18.5Q259 68 251 62t-17-6H66q-9 0-17 6T38.5 77.5Q36 87 40 96t13 13l10 6v141zm43-125q-8 0-13 5.5T88 150q0 8 5 13.5t13 5q8-.5 13.5-5.5t5.5-13q0-8-5.5-13.5T106 131zm63 62q-8 1-13.5 6t-5.5 13q0 8 5.5 13.5T169 231q8 0 13.5-5.5T188 212q0-8-5.5-13t-13.5-6zm-63 0q-8 1-13 6t-5 13q0 8 5 13.5t13 5.5q8 0 13.5-5.5T125 212q0-8-5.5-13t-13.5-6z"/></svg>