<svg viewBox="0 0 300 310" xmlns="http://www.w3.org/2000/svg"><path d="M300 200v75q0 13-9 22t-22 9q-13 0-22-9t-9-21q0-12 7-21t18-11v-44q0-3-2-5t-5-1h-37q-3-1-4.5 1t-1.5 5v75q-1 13-10 22t-22 9q-13 0-22-9t-9-21q0-12 7-21t18-11v-44q0-18 13-31t31-13h37q18 0 31 13t13 31zM169 56q-8 0-13.5 5.5T150 75q0 8 5.5 13.5T169 94q8 0 13.5-5.5t5-13.5q-.5-8-5.5-13.5T169 56zm-44 219q0 17 9 31H0V81h75v37H38v25h37v38H38v25h62v62h25v7zm-87-7h25v-25H38v25zM300 50v97q-19-16-44-16h-37q-24 0-42 14t-24 36h-53V50q0-18 13-31t31-13h112q18 0 31 13t13 31zm-37 0q0-3-2-5t-5-2H144q-3 0-5 2t-1 5v92l75-61 25 25 25-25V50z"/></svg>