<svg viewBox="0 0 300 310" xmlns="http://www.w3.org/2000/svg"><path d="M300 87v177l-42 42h-53l58-58v-37l-42 41-26-27 41-41q2-3 1.5-6.5t-3-6q-2.5-2.5-7-2.5t-7.5 3l-49 48q4 10 4 22v64h-37v-64q-1-13-10-22l-47-47q-3-3-7-4t-7.5 1.5q-3.5 2.5-4 6.5t1.5 7l41 41-26 27-41-41v37l57 58H42L0 264V87q0-14 10.5-23T34 56q13 1 21 11t8 22v43q11-2 23.5 1.5T108 146l42 42 43-43q9-9 21-12t24 0V89q0-12 7.5-22T266 56q13-1 23.5 8T300 87zm-150 31q5-3 10-7 11-9 21-19 14-13 22-25 10-15 10-28t-9.5-23Q194 6 181 6t-22 8.5q-9 8.5-9 22.5 0-14-9-22.5T119 6q-13 0-22 10t-9 24q-1 22 31 52 15 16 31 26v1-1z"/></svg>