<svg viewBox="0 0 300 310" xmlns="http://www.w3.org/2000/svg"><path d="M138 162q0 8-5.5 13.5T119 181q-8 0-13.5-5.5T100 162q0-8 5.5-13t13.5-5.5q8-.5 13 5t6 13.5zm-32 44q-8 0-13 5.5T88 225q0 8 5 13.5t13 5q8-.5 13.5-5.5t5.5-13q0-8-5.5-13.5T106 206zm-12 62q-8 0-13.5 5.5T75 287q0 8 5.5 13.5T94 306q8 0 13-5.5t5-13.5q0-8-5-13.5T94 268zm62 0q-8 0-13 5.5t-5 13.5q0 8 5 13.5t13 5.5q8 0 13.5-5.5T175 287q0-8-5.5-13.5T156 268zm13-62q-8 0-13.5 5.5T150 225q0 8 5.5 13.5t13.5 5q8-.5 13.5-5.5t5.5-13q0-8-5.5-13.5T169 206zm131-44q0 25-11.5 46.5T257 244q-20 14-44 17v-39l14-3q16-8 25.5-23.5T263 162q-1-23-17.5-39.5T206 106h-14l-4-13q-6-21-23-35t-39-15q-12 0-24 4.5T81 61q-9 9-14 20.5T62 106q0 13 4 25l6 16-15 8q-9 4-14.5 12.5t-5.5 19q0 10.5 6 19.5t15 15l5 2v38h-4q-26-7-42.5-27.5T0 186q0-17 7-31.5T27 130q-2-12-2-24 0-20 7.5-38.5t22-32.5q14.5-14 33-21.5T126 6q31 1 56.5 18T220 70q23 3 41 16t28.5 33q10.5 20 10.5 43zM0 186zm37 0h1-1zm225-24zm38 0zm-119-19q-8 0-13.5 5.5t-5 13.5q.5 8 5.5 13.5t13 5.5q8 0 13.5-5.5T200 162q0-8-5.5-13t-13.5-6z"/></svg>