<svg viewBox="0 0 300 310" xmlns="http://www.w3.org/2000/svg"><path d="M200 193h37q17 1 31.5-7.5t23-23Q300 148 300 131q0-21-13-37v-7q0-25-16-44 7-1 11.5-6t4.5-12.5q0-7.5-5.5-13t-13-5.5q-7.5 0-13 5.5T250 25v1q-15-8-31.5-8T187 26v-1q0-8-5-13.5T169 6q-8 0-13.5 5.5t-5.5 13q0 7.5 4.5 12.5t11.5 6q-9 11-13 25h-35q-29 0-53 13.5T26.5 118Q12 141 12 169q0 16 7 33L0 234l33 19 8-16q10 10 21 17v52h63v-37h50v37h62v-51q30-17 42-47-19 11-42 11h-12q-17 12-38 12h-69q-19 0-34.5-8.5t-24.5-23q-9-14.5-9-31t9-31q9-14.5 24.5-23T118 106h25q-6 12-6 25 0 17 8.5 31.5t23 23Q183 194 200 194v-1zm19-137q13 0 22 9t9 22v21l5 6q7 7 7 17t-7 17.5q-7 7.5-18 7.5h-37q-10 0-17.5-7.5T175 131q0-10 7-17l5-6V87q0-13 9.5-22t22.5-9z"/></svg>