<svg viewBox="0 0 300 310" xmlns="http://www.w3.org/2000/svg"><path d="M206 6q-26 0-47.5 7.5t-33.5 20Q113 46 113 62v61q21 7 37.5 21.5T177 178q14 3 29 3 32 0 56-11v17q1 3-6.5 7.5T237 202q-14 4-31 4-10 0-21-2 3 11 3 21 0 8-2 17 11 1 20 2 32 0 57-11v17q0 2-7.5 7t-18.5 8q-14 4-31 4-14 0-27-3-7 18-21 32 22 8 48.5 8t47.5-7.5q21-7.5 33.5-20T300 250V62q0-16-12.5-28.5t-33.5-20Q233 6 206 6zm0 37q17 1 31 4 11 3 18 8t7.5 7.5q.5 2.5-7 7T237 77q-14 4-30.5 4T176 77q-12-3-19-7.5t-7-7q0-2.5 7-7.5t19-8q14-3 30-3v-1zm0 100q-16 0-30-3-12-3-19-8t-7-7v-17q25 11 56.5 10.5T262 108v17q1 2-6.5 7t-18.5 8q-14 3-31 3zm-125 0q-22 0-40.5 11T11 184Q0 203 0 225t11 40.5Q22 284 40.5 295T81 306q22 0 41-11t30-29.5q11-18.5 11-40.5t-11-41q-11-19-30-30t-41-11zm19 75v50H63v-50H25l47-46q4-3 9-3t9 3l48 46h-38z"/></svg>