<svg viewBox="0 0 300 310" xmlns="http://www.w3.org/2000/svg"><path d="M150 93q-17 0-31.5 8.5t-22.5 23Q88 139 88 156t8 31.5q8 14.5 22.5 22.5t31.5 8q17 0 31.5-8t22.5-22.5q8-14.5 8.5-31.5t-8-31.5q-8.5-14.5-23-22.5T150 94v-1zm0 88q-10 0-17.5-7.5T125 156q0-10 7.5-17.5T150 131q10 0 17.5 7.5T175 156q0 10-7.5 17.5T150 181zm124-44q-7-40-36-69t-69-36V6h-38v26q-40 7-69 36t-36 69H0v38h26q7 40 36 69t69 36v26h38v-26q40-7 69-36t36-69h26v-38h-26zM150 243q-24 0-44-11.5T74 200q-12-20-11.5-44t12-44Q86 92 106 80t44-12q24 0 44 12t32 32q12 20 11.5 44t-12 44Q214 220 194 231.5T150 243z"/></svg>