<svg viewBox="0 0 300 310" xmlns="http://www.w3.org/2000/svg"><path d="M274 32q-18-18-42.5-23.5t-50 2Q156 18 137 37t-27 43q-4 13-13.5 22.5T74 116q-24 8-43 27T4.5 187.5q-7.5 25.5-2 50T26 280q13 13 29.5 19.5T91 306q19 0 38-8t34-23q19-19 27-43 4-13 13.5-22.5T226 196q24-8 43-27t26.5-44.5q7.5-25.5 2-50T274 32zm-32 111q-12 12-27 17-22 7-38 23t-23 38q-5 15-17 27-19 19-44 20.5T52 254q-10-11-13-26t2-31q5-16 17-28t27-17q22-7 38-23t23-38q5-15 17-27 10-10 22.5-15.5T210 43q23 0 38 15 10 11 13 26t-2 31q-5 16-17 28zm-92 32q0 8-5.5 13.5T131 194q-8 0-13.5-5.5T112 175q0-8 5.5-13.5T131 156q8 0 13.5 5.5T150 175zm-37 50q-1 8-6 13t-13 5q-8 0-13.5-5T75 225q0-8 5.5-13.5T94 206q8 0 13.5 5.5T113 225zM225 75q0 8-5.5 13.5T206 94q-8 0-13-5.5T187.5 75q-.5-8 5-13.5T206 56q8 0 13.5 5.5T225 75z"/></svg>