<svg viewBox="0 0 300 310" xmlns="http://www.w3.org/2000/svg"><path d="M216 306q-18 0-34.5-7.5T154 277q-7-10-17.5-15t-22.5-4q-30 0-56-17.5T16 194Q0 165 0 131.5T17 69q17-29 46-46t63-17q43 0 79 23 30 21 54 57 20 32 31 71 10 35 10 65 0 23-11.5 42T258 294.5Q239 306 216 306zM126 43q-24 1-44.5 12.5t-32 32Q38 108 38 132t11 44.5Q60 197 78 209t37 11.5q19-.5 36.5 7.5t30.5 24q5 8 14.5 12.5T216 269q19-1 32.5-14.5T263 222q0-22-8-50-9-32-24-59-18-31-43-49-28-21-62-21zm0 25q-17 1-31.5 9.5t-23 23Q63 115 62 132q1 8 2 15l77-77q-7-1-15-2zm100 94q-7-19-17-36l-72 72q21 3 38 15l51-51zm-26 72q5 6 8 7.5t8 1.5q9 0 15-6t6-15q0-16-3-32l-39 39 5 5zM167 80l-92 92q12 16 30 22l90-89q-12-15-28-25z"/></svg>