<svg viewBox="0 0 300 310" xmlns="http://www.w3.org/2000/svg"><path d="M225 81q-3 3-6 7-8 8-13 15-6 10-6 15.5t6 15.5q5 7 13 15l6 7q-12 0-25-3-16-5-26-12-12-9-11.5-22.5T174 96q10-7 26-12 13-3 25-3zm-87 37q0-13-12-22-10-7-26-12-13-3-25-3l6 7q8 8 13 15 6 10 6 15.5T94 134q-5 7-13 15l-6 7q12 0 25-3 16-5 26-12 11-9 11-23h1zM150 6q-41 0-75.5 20T20 80.5Q0 115 0 156q0 11 2 24l37-7q-1-9-2-17 1-31 16-56.5T93.5 59Q119 44 150 44t56.5 15Q232 74 247 99.5t15.5 56.5q.5 31-15 56.5t-41 40.5Q181 268 150 268q-8 0-17-1l-7 37q13 2 24 2 41 0 75.5-20t54.5-54.5q20-34.5 20-75.5t-20-75.5Q260 46 225.5 26T150 6zM29 240l-17 54 54-16 34 27 23-122L1 206l28 34zm111-11l10 10 19-19 19 19 44-45-26-26-18 18-19-19-22 22-7 40z"/></svg>