<svg viewBox="0 0 300 310" xmlns="http://www.w3.org/2000/svg"><path d="M275 234V79q11-4 18-13.5t7-21.5q0-16-11-27T262 6q-12 0-21.5 7T227 31H72q-3-11-13-18T37 6Q22 6 11 17T0 44q0 12 7 21.5T25 79v155q-11 3-18 13t-7 22q0 15 11 26t26 11q12 0 22-7t13-18h155q4 11 13.5 18t21.5 7q16 0 27-11t11-26q0-12-7-22t-18-13zm-41 10H65l-3-3V72l3-3h170l2 3v169l-3 3zm-78-75H94q-8 0-13.5-5.5T75 150v-38q0-7 5.5-12.5T94 94h62q8 0 13.5 5.5T175 112v38q0 8-5.5 13.5T156 169zm69-7v38q0 8-5.5 13.5T206 219h-62q-8 0-13.5-5.5T125 200v-6h37q16 0 27-11t11-27v-12h6q8 0 13.5 5.5T225 162z"/></svg>