<svg viewBox="0 0 300 310" xmlns="http://www.w3.org/2000/svg"><path d="M78 193l35 36v77H75v-75H63v75H25v-75H0V125q0-18 13-31t31-13h50l8 1-36 36H44q-3 0-4.5 2t-1.5 5v68h40zM69 68q13 0 22-9t9-22q0-13-9-22T69 6q-13 0-22 9t-9 22q0 13 9 22t22 9zm162 0q13 0 22.5-9t9.5-22q0-13-9.5-22T231 6q-13 0-22 9t-9 22q0 13 9 22t22 9zm69 57q0-18-13-31t-31-13h-50l-7 1 35 36h22q3 0 5 2t2 5v68h-41l-34 36v77h37v-75h12v75h38v-75h25V125zm-79 34q4-4 4-9t-4-9l-46-47v37h-50V94l-46 47q-4 4-4 9t4 9l46 47v-38h50v38l46-47z"/></svg>