<svg viewBox="0 0 300.0042 310" xmlns="http://www.w3.org/2000/svg"><path d="M247.002 106q-28-1-68 13 8-8 16-19 17-21 17-35 2-23-14-40.5t-39-18.5q-23-1-40.5 14.5t-18.5 38.5q-1 28 13 68h-1q-7-9-16-17-19-15-37-16-11-1-21.5 2.5t-18.5 11.5q-18 15-19 38.5t14.5 41q15.5 17.5 38.5 18.5h6q26 0 62-13-15 15-21 23-12 16-12 31-2 23 14 40 7 9 19.5 14t22.5 5q21 0 38-15t18-38q1-28-13-68h1q8 11 18 18 19 15 35 15 13 1 22.5-3t17.5-11q18-15 19-38.5t-14.5-41q-15.5-17.5-38.5-18.5zm-192 62q-8 0-13-5.5t-4.5-13.5q.5-8 6-13t12-5q6.5 0 12.5 4 4 3 11 11l15 17q-23 6-39 5zm101 96q-6 5-13.5 4.5t-12.5-6q-5-5.5-5-13.5 0-6 6-12 3-5 13-14 12-11 13-11 6 23 5 39 0 8-6 13zm-6-89q-8 0-13.5-5.5t-5.5-13.5q0-8 5.5-13.5t13.5-5.5q8 0 13.5 5.5t5.5 13.5q0 8-5.5 13.5t-13.5 5.5zm6-86q-12 11-13 11-6-23-5-39 0-8 5.5-12.5t13.5-4.5q8 0 13 5.5t5 13.5q0 6-6 12-3 5-13 14zm100 87q-6 5-13 5-6 0-12-6-5-3-14-13l-11-13q23-6 39-5 8 0 13 5.5t4.5 13.5q-.5 8-6.5 13z"/></svg>