<svg viewBox="0 0 300 310" xmlns="http://www.w3.org/2000/svg"><path d="M200 268h-69q-19 0-35.5-8T67 237q20 6 46 6v-37q-29 0-44-8-13-7-17-19-2-6-2-17v-7l6 1q22 0 38-14 16 14 37 14 19 0 19 50h38q-1-45-16-67 16-17 16-39V87q0-24-14-44 6-2 10-7t4-12q0-7-5.5-12.5t-13-5.5q-7.5 0-12 4t-6.5 9Q131 6 106 6H81Q57 6 37 19q-2-5-7-9T18 6q-7 0-12.5 5.5T0 24q0 7 4 12t9 7Q0 63 0 87v13q0 19 13 35v52q0 32 15.5 59.5t43 43.5Q99 306 131 306h75q13 0 22-9t9-22v-57h-37v50zM81 43h25q18 0 31 13t13 31v13q0 8-5.5 13t-13.5 5q-8 0-13-5t-5-13v-7l6-12H69l6 12v7q0 8-5.5 13T56 118q-8 0-13.5-5T38 100V87q0-18 12.5-31T81 43zm182 231v-92q-18 11-40 11h-11q-1-21-5-37h16q14 0 23.5-8.5t9.5-23q0-14.5-7-31.5-4-8-8-13l29-25q8 9 16 28 14 35 14 86 0 35-12 64-9 23-25 41z"/></svg>