<svg viewBox="0 0 300 310" xmlns="http://www.w3.org/2000/svg"><path d="M200 131q10 0 17.5 7.5T225 156q0 10-7.5 17.5T200 181q-10 0-17.5-7.5T175 156q0-10 7.5-17.5T200 131zM75 156q0 10 7.5 17.5T100 181q10 0 17.5-7.5T125 156q0-10-7.5-17.5T100 131q-10 0-17.5 7.5T75 156zm138 87q-6-19-22-33-18-16-41-16t-41 16q-16 14-22 33 1 1 1 0 9-3 21-6 23-6 41-6t41 6q12 3 21 6 1 1 1 0zm87-87q0-41-20-75.5T225.5 26Q191 6 150 6T74.5 26Q40 46 20 80.5T0 156q0 41 20 75.5T74.5 286q34.5 20 75.5 20t75.5-20q34.5-20 54.5-54.5t20-75.5zm-37 0q0 31-15.5 56.5t-41 40.5Q181 268 150 268t-56.5-15q-25.5-15-41-40.5t-15-56.5Q38 125 53 99.5T93.5 59Q119 44 150 44t56.5 15Q232 74 247 99.5t16 56.5zM111 99l-10-23q-32 13-49 41l21 13q13-21 38-31zm136 16q-17-26-48-39l-10 23q24 10 37 30l21-14z"/></svg>