<svg viewBox="0 0 300 310" xmlns="http://www.w3.org/2000/svg"><path d="M250 144v-2q23-3 36.5-15.5T300 97q0-15-8.5-29.5T269 43q-14-10-31-12V6q-15 0-26 10t-12 25q-11 8-18 20t-7 26q-1 6-32.5 28T97 152q-25 25-32 53-28-57-28-124 0-16 11-26.5t26.5-11Q90 43 101 54t11 27q0 8-3.5 17.5T98 117q12-10 30-22 16-11 22-17-1-19-11-36t-27-26.5Q95 6 75 6T37.5 16Q20 26 10 43.5T0 81q0 57 18 108 14 39 36 72 15 21 37.5 33t48.5 12h135v-38h-43q6-11 5-25 0-16-8-30.5t-22.5-23Q192 181 175 181v37q10 0 17.5 7.5t7.5 18q0 10.5-7.5 17.5t-17.5 7h-35q-10 0-19-2-21-13-21-39 0-17 10-32 8-13 24-27 9-8 29-21.5t28-20.5q9 9 22 14v4q0 18 10.5 33t27.5 21q14 4 26 12l21-30q-16-12-35-18-6-2-9.5-7t-3.5-11zm13-47q0 3-9 6t-21 3q-9 0-15-5.5T212.5 87q.5-8 6-13t14-5.5Q241 68 248 73t10.5 12q3.5 7 3.5 12h1z"/></svg>