<svg viewBox="0 0 300 310" xmlns="http://www.w3.org/2000/svg"><path d="M231 93h-68q0-21-13-37V43q0-15-11-26T112 6v26q-5-1-12-1-9 0-18 3L31 50Q13 57 4.5 75t-2 36.5Q9 130 29 139q9 4 34 8v159h100v-50h37v50h100V162q0-18-9.5-34t-25-25.5Q250 93 231 93zM45 105q-6-2-7.5-6t.5-8q2-4 5-5l50-16q4-2 7-2 11 0 18 7.5t7 17.5v38h106q8 0 15 3.5t11 10.5q-9 2-16 9l-14 13-15-13q-11-11-24.5-11T163 154l-15 13-14-13q-7-7-16-9.5t-18 .5v-31l-16-2q-13-1-24.5-3T45 105zm193 163v-50H125v50h-25v-77l9-9 15 14q11 10 24.5 10t24.5-10l15-14 14 14q11 10 24.5 10t24.5-10l12-11v83h-25z"/></svg>