<svg viewBox="0 0 300 310" xmlns="http://www.w3.org/2000/svg"><path d="M150 6q-41 0-75.5 20T20 80.5Q0 115 0 156q2 57 33 95 29 35 73 47.5t88 0q44-12.5 73-47.5 31-38 33-95 0-41-20-75.5T225.5 26Q191 6 150 6zm0 262q-31 0-56.5-15T53 212.5Q38 187 38 156q1-43 25-72 21-26 54-35t66 0q33 9 54 35 24 29 26 72-1 31-16 56.5T206.5 253Q181 268 150 268zm0-100q21 2 40 9.5t35 20.5l-25 28q-14-13-32-17.5t-36 0q-18 4.5-32 17.5l-25-28q16-13 35-20.5t40-8.5v-1zm13-31q0-19 15-32t34-12v38q-7 0-9.5 2t-2.5 4q0 8-5.5 13.5T181 156q-8 0-13.5-5.5T162 137h1zm-75-6V93q19-1 34 12t16 32q0 8-5.5 13.5T119 156q-8 0-13.5-5.5T100 137q-1-6-12-6z"/></svg>