<svg viewBox="0 0 300 310" xmlns="http://www.w3.org/2000/svg"><path d="M75 112q0-8 5.5-13.5T94 93q8 0 13 5.5t5 13.5q0 8-5 13.5T94 131q-8 0-13.5-5.5T75 112zm69-6q8 0 13-5.5t5.5-13.5q.5-8-5-13.5t-13.5-5q-8 .5-13.5 5.5T125 87q0 8 5.5 13.5T144 106zm144 97v47q-1 23-17 39.5T231 306H69q-24 0-40-16.5T13 250v-47q-6-4-9.5-9.5T0 181q0-7 3.5-12.5T12 159v-39q1-31 16-57t41.5-41.5Q96 6 127 6h46q31 0 57.5 15.5T272 63q15 26 16 57v39q5 4 8.5 9.5T300 181q0 7-3.5 12.5T288 203zM50 120v36h200v-36q0-21-10.5-38.5t-28-27.5Q194 44 173 43h-46q-21 1-38.5 11t-28 27.5Q50 99 50 120zm200 130v-44h-37q-19 0-28 1.5t-16 6.5q-6 4-19 15l-6 6q-10 9-23.5 9T97 235l-8-8q-13-11-19-14-8-6-20-7v44q0 8 5.5 13t13.5 5h162q8 0 13.5-5t5.5-13z"/></svg>