<svg viewBox="0 0 300 310" xmlns="http://www.w3.org/2000/svg"><path d="M300 181v-75q0-5-3.5-9t-8.5-4h-75l30 31-32 32q-19-12-42-13l-7 1 1-7q-1-23-13-42l32-32 31 30V18q0-5-4-8.5T200 6h-75l30 30-31 32q-22-13-48-11.5T30 74Q10 90 3 115t1.5 49.5Q13 189 34 204t47 14h7l-1 7q0 26 15 47t39.5 29.5Q166 310 191 303t41-27q16-20 17.5-46T238 182l32-31 30 30zM38 137q0-18 12.5-31T81 93.5q18 .5 31 13t13 30.5q0 18-13 31t-31 13q-18 0-31-13t-13-31h1zm131 131q-18 0-31-12.5T125 225q0-18 13-31t31-13q18 0 31 13t13 31q0 18-13 30.5T169 268z"/></svg>