<svg viewBox="0 0 300 310" xmlns="http://www.w3.org/2000/svg"><path d="M75 118q0-10 7.5-17t17.5-7.5q10-.5 17.5 7t7.5 18q0 10.5-7.5 17.5t-17.5 7q-10 0-17.5-7T75 118zm125-25q-10 0-17.5 7.5t-7.5 18q0 10.5 7.5 17.5t17.5 7q10 0 17.5-7t7.5-17.5q0-10.5-7.5-18T200 94v-1zm100 63q0 41-20 75.5T225.5 286Q191 306 150 306q-57-2-95-33-35-29-47.5-73t0-88Q20 68 55 39 93 8 150 6q41 0 75.5 20T280 80.5q20 34.5 20 75.5zm-37 0q-1-31-16-56.5T206.5 59Q181 44 150 44q-43 1-72 25-26 21-35 54t0 66q9 33 35 54 29 24 72 26 31-1 56.5-16t40.5-40.5q15-25.5 16-56.5zm-63 0H100q-16 0-27 11t-10.5 26.5q.5 15.5 11 26.5t26.5 11h100q16 0 27-11t10.5-26.5q-.5-15.5-11-26.5T200 156zm-37 25v25h-25v-25h25zm-75 12q0-5 3.5-8.5t8.5-3.5h13v25h-13q-5 0-8.5-3.5T88 193zm112 13h-12v-25h12q5 0 9 3.5t4 9q0 5.5-4 9t-9 3.5z"/></svg>