<svg viewBox="0 0 300 310" xmlns="http://www.w3.org/2000/svg"><path d="M181 43H94q-3 0-4.5-1.5T88 37V6H50v31q0 18 13 31t31 13h6v94q0 12-15 22-8 6-19 9-17 1-29 14t-12 30v56h38l-1-56q0-4 3-5l7 4q16 10 26 15 16 8 34 12 22 5 49 5h1q18 0 35-7t30.5-20.5Q261 240 268 223t7-36v-50q0-25-12.5-46.5t-34-34.5Q207 43 181 43zm0 38q22 0 38.5 15t17.5 37q-9-2-19-2t-20 2l-15 5-10 4q-6 1-12 1-12 0-24-4V81h44zm40 146q-17 16-39 16h-1q-25 0-44-4-14-4-29-12 28-20 29-49 12 3 23.5 3t21.5-2q5-2 15-5l10-4q6-2 12-2 10 0 18 4v15q0 24-16 40z"/></svg>