<svg viewBox="0 0 300 310" xmlns="http://www.w3.org/2000/svg"><path d="M151 99q-10 0-20 3l-5 3q7-14 20-22t29-8q23 0 39.5 16.5T231 131q0 16-8 29t-22 20l3-5q5-16 1.5-32T190 116q-16-17-39-17zm37 118l-14 39h1q34 0 62.5-17t45.5-45.5q17-28.5 17-62.5t-17-62.5Q266 40 237.5 23T175 6q-34 0-62.5 17T67 68.5Q50 97 50 131v1l39-14q3-21 15-38t30.5-27Q153 43 176 43t43 12q20 12 32 32t12 43q0 23-10 41.5T226 202q-17 12-38 15zM0 177l140-51q9-3 17.5-1t15 8.5q6.5 6.5 8.5 15t-1 17.5l-51 140-51-51-51 51-27-27 51-51-51-51zm140-11l-72 26 46 46 26-72z"/></svg>