<svg viewBox="0 0 300.0016 310" xmlns="http://www.w3.org/2000/svg"><path d="M205.002 82q14-5 24.5-15t15.5-26q4-11 5-24V6h-11q-13 1-24 5-16 5-26 15-19 22-21 52-4-38-21-72l-33 18q14 27 17 57h-23q-30 1-55 16t-39.5 41q-14.5 26-13.5 55-1 39 22 68.5t58.5 40.5q35.5 11 69.5-5 34 16 69.5 5t58.5-40.5q23-29.5 22-68.5 0-27-12-51t-33.5-40q-21.5-16-49.5-20zm-13 186q-18 1-33-8l-9-5-9 5q-23 13-47.5 7t-40.5-26.5q-16-20.5-15-47.5-1-19 8.5-36t25.5-27.5q16-10.5 36-11.5h84q26 1 45 17 16 14 22 36.5t0 44.5q-6 22-22 36-19 16-45 16z"/></svg>