<svg viewBox="0 0 300 310" xmlns="http://www.w3.org/2000/svg"><path d="M275 106h-37V50q0-18-13-31T194 6h-88Q88 6 75.5 19T63 50v56H25v37h24q-12 24-11 50 0 31 15 57t40.5 41q25.5 15 56.5 15t56.5-15q25.5-15 41-41t14.5-57q1-26-11-50h24v-37zM100 50q0-3 2-5t4-2h88q2 1 4 2.5t2 4.5v56H100V50zm125 143q0 21-10 38t-27.5 27.5Q170 269 150 268.5T112.5 258Q95 248 85 231t-10-38q0-28 19-50h112q19 22 19 51v-1zm-119-25q8 1 13.5 6t5.5 13q0 8-5.5 13.5T106 206q-8 0-13.5-5.5t-5-13.5q.5-8 5.5-13.5t13-5.5zm69 19q0-8 5.5-13.5t13.5-5q8 .5 13.5 5.5t5 13q-.5 8-5.5 13.5t-13 5.5q-8 0-13.5-5.5T175 187zm-6 38q0 6-10 26l-9 17-9-17q-10-20-10-27t5.5-12.5Q142 206 150 206t13.5 5.5Q169 217 169 225z"/></svg>