<svg viewBox="0 0 300 310" xmlns="http://www.w3.org/2000/svg"><path d="M232 97q2-20 10-33 12-21 33-21V6q-16 0-31 7t-26 19Q176 6 125 6q-27-1-52.5 7.5T25 37q22 16 47.5 24t52.5 8q44 0 83-21-11 22-14 46-14 2-26 8-5-4-11-8-18-10-38-12.5T79.5 86q-19.5 7-35 20.5t-26.5 31Q7 155 3 175t-1.5 40.5Q4 236 15 253t29 27q22 13 47 13 28 0 51-15 12 13 29 20.5t35 7.5q27 0 48-14t33.5-38q12.5-24 12.5-54 0-38-19-66t-49-37zM63 248q-10-6-16.5-16T38 210q-3-29 12-53.5T92 122q11-4 23-3t22 7q-12 16-18.5 35t-6.5 39q0 24 10 47-13 9-29 9t-30-8zm143 20q-26 1-42-21-14-20-14-47.5t14-46.5q16-22 42-22t42 22q14 19 14.5 46.5T248 247q-16 21-42 21zm7-62v37q-16 2-27.5-9.5T175 206h38zm-111-9l-19 32q-15-8-18.5-23.5T70 176l32 21z"/></svg>