<svg viewBox="0 0 300 310" xmlns="http://www.w3.org/2000/svg"><path d="M60 224l-30 23q-11-16-19-34l35-14q5 13 14 25zm0-136L30 65Q19 81 11 99l35 14q5-13 14-25zm-22 68v-15l-37-4q-1 9-1 19t1 19l37-4v-15zm20 118q15 12 33 20l15-35q-14-5-25-14l-23 29zm0-236l23 29q11-9 25-15L91 18q-18 8-33 20zm92-32q-11 0-21 2l5 37q8-1 16-1 31 0 56.5 15T247 99.5q15 25.5 15.5 56.5t-15 56.5Q232 238 206.5 253T150 268q-8 0-16-1l-5 37q10 2 21 2 41 0 75.5-20t54.5-54.5q20-34.5 20-75.5t-20-75.5Q260 46 225.5 26T150 6zm-19 78v56q-6 7-6 16t6 16v44h38v-44q6-7 6-16t-6-16V84h-38z"/></svg>