<svg viewBox="0 0 300 310" xmlns="http://www.w3.org/2000/svg"><path d="M263 287v19h-38v-19q0-10-6-18t-16-11l-28 42-25-38-25 38-28-42q-10 3-16 11t-6 18v19H38v-19q0-18 9-34t25-25.5q16-9.5 34-9.5h88q18 0 34 9.5t25.5 25.5q9.5 16 8.5 34h1zM90 67q14-12 30.5-18.5T156 44q22 1 41 13.5t30 33q11 20.5 11 44.5 0 14-10 23.5t-24 9.5h-32q-4-5-9.5-8.5T150 156q-10 0-17.5 7.5T125 181q0 10 7.5 17.5T150 206h54q19 0 35.5-9.5t26-26Q275 154 275 135q0-34-15.5-62.5t-42-46.5Q191 8 158 6q-26-1-50 7.5t-43 26Q46 57 35.5 81T25 131h38q0-18 7-34.5T90 67zm60 27q15 0 26 11t11 26q1 6-2 12h28q8 0 10-4 2-3 2-8 0-20-10-37.5T187.5 66Q170 56 150 56t-37.5 10Q95 76 85 93.5T75 131q0 17 7 31.5t19 24.5l-1-6q0-21 15-36-2-7-3-14 1-15 12-26t26-11z"/></svg>