<svg viewBox="0 0 300 310" xmlns="http://www.w3.org/2000/svg"><path d="M272 118h-29q-8 19-22 34l-5 4h24l7 37h-36l-2-29-59 57-59-57-2 29H53l7-37h24l-4-4q-15-15-23-34H28L0 282v24h300v-19l-28-169zM83 268H41l6-37h39l-3 37zm37 0l4-37h53l3 37h-60zm97 0l-3-37h39l6 37h-42zm-67-82l53-52q11-11 16.5-24.5T225 81q0-15-5.5-28.5T203 28q-11-11-24.5-16.5T150 6q-15 0-28.5 5.5T97 28Q86 39 80.5 52.5T75 81q0 15 5.5 28.5T97 134l53 52zm0-130q10 0 17.5 7.5T175 81q0 10-7.5 17.5T150 106q-10 0-17.5-7.5T125 81q0-10 7.5-17.5T150 56z"/></svg>