<svg viewBox="0 0 300 310" xmlns="http://www.w3.org/2000/svg"><path d="M256 131H44q-18 0-31 13T0 175v131h300V175q0-18-13-31t-31-13zm7 137H38v-93q0-3 1.5-5t4.5-2h212q3 0 5 2t2 5v93zm-113-87q-24 0-44 5t-31.5 13.5Q63 208 63 218.5t11.5 19Q86 246 106 251t44 5q24 0 44-5t32-13.5q12-8.5 12-19t-12-19q-12-8.5-32-13.5t-44-5zm0 50q-13 0-22-3.5t-9-9q0-5.5 9-9t22-3.5q13 0 22 3.5t9 9q0 5.5-9 9t-22 3.5zM300 50v9q-19-16-44-16H44Q19 43 0 59v-9q0-18 13-31T44 6h212q18 0 31 13t13 31zm0 62v10q-19-16-44-16H44q-25 0-44 16v-10q0-18 13-31t31-13h212q18 0 31 13t13 31z"/></svg>