<svg viewBox="0 0 300 310" xmlns="http://www.w3.org/2000/svg"><path d="M300 112q-2-29-23-53.5T222.5 20Q189 6 150 6T77.5 20Q44 34 23 58.5T0 112v44q0 41 20 75.5T74.5 286q34.5 20 75.5 20t75.5-20q34.5-20 54.5-54.5t20-75.5v-44zM150 43q30 0 56 10.5t41.5 28Q263 99 263 118.5t-15.5 37Q232 173 206 183t-56 10q-30 0-56-10t-41.5-27.5q-15.5-17.5-15-37t15.5-37q15-17.5 41-28t56-9.5v-1zm0 225q-34 0-62.5-19T46 200q21 15 47.5 23t56.5 8q30 0 56.5-8t47.5-23q-13 30-41.5 49.5T150 269v-1zm0-125l6 10q7 11 7 16t-4 8.5q-4 3.5-9 3.5t-8.5-3.5Q138 174 138 169t6-16l6-9v-1zm0-50q-3-4-6-9-7-11-6.5-16t4-8.5Q145 56 150 56t9 3.5q4 3.5 4 8.5t-7 16l-6 10v-1zm-87 25q0-5 3.5-8.5t8-3.5q4.5 0 15.5 6l10 6-10 7q-11 6-15.5 6t-8.5-3.5q-4-3.5-3-9.5zm137 0l10-6q11-6 15.5-6t8.5 3.5q4 3.5 3.5 9t-4 9q-3.5 3.5-8 3.5t-15.5-6l-10-7zm8-28q-3 3-15 6l-12 2 3-11q4-12 7.5-15.5t8.5-3q5 .5 8.5 4t3.5 9q0 5.5-4 8.5zM91 73q3-4 8.5-4.5t9 3Q112 75 115 87l3 11-11-2q-12-3-15.5-6t-4-8.5Q87 76 91 73zm118 91q-3 4-8.5 4.5t-9-3Q188 162 185 150l-3-11 11 2q12 3 15.5 6t4 8.5q.5 5.5-3.5 8.5zM92 147q3-3 15-6l11-2-3 11q-3 12-6.5 15.5t-9 3q-5.5-.5-9-4t-3-9Q88 150 92 147zm27-29q0-5 9-8.5t22-3.5q13 0 22 3.5t9 9q0 5.5-9 9t-22 3.5q-13 0-22-3.5t-9-9.5z"/></svg>