<svg viewBox="0 0 300 310" xmlns="http://www.w3.org/2000/svg"><path d="M275 150q0-19-9.5-35.5t-26-25.5Q223 80 204 81t-35 11q1-21 9-33 5-9 14-13 5-2 8-3 5 0 9 4t3 9h38q0-10-3.5-19.5T236 20q-7-7-16.5-10.5T200 6q-15 1-27.5 7.5T151 32q-11-15-28-24l-17 34q9 4 14 12 10 13 11 38-18-11-39-11T54 93.5q-17 12.5-24.5 32t-2.5 40q5 20.5 20.5 35T84 218q-6 21 1 42t25 33.5q18 12.5 40 12.5t40-12.5q18-12.5 25-33.5t1-42q25-4 42-23.5t17-44.5zm-212 0q0-13 9-22t22-9q13 0 22 9t9 22q0 13-9 22t-22 9q-13 0-22-9t-9-22zm87 118q-13 0-22-9t-9-22q0-13 9-22t22-9q13 0 22 9t9 22q0 13-9 22t-22 9zm56-87q-13 0-22-9t-9-22q0-13 9-22.5t22-9.5q13 0 22.5 9.5T238 150q0 13-9.5 22t-22.5 9z"/></svg>