<svg viewBox="0 0 300.0019 310" xmlns="http://www.w3.org/2000/svg"><path d="M279 90q-11-11-25.5-16.5t-30-5q-15.5.5-30 7T168 94q-14 13-20 31-8 21-29 29-18 6-31 20-12 11-18.5 25.5t-7 30q-.5 15.5 5 30T84 285q21 21 51 21 34 0 59-25 14-14 21-31 7-22 29-29 17-7 31-20 11-12 17.5-26t7.5-30q1-16-4.5-30.5T279 90zm-17 53q0 18-14 31-7 8-17 11-18 7-31.5 20.5T179 237q-3 10-11 17-13 14-30 14.5t-28-10Q99 248 100 231t14-31q8-7 18-11 18-6 31-19.5t20-31.5q4-10 11-18 15-14 31-14 8 0 15.5 2.5T252 116q11 11 10 27zM55 290q-24-8-39.5-30.5T0 209q0-20 8-37 10-22 0-44-8-18-8-38 0-23 10.5-42T39 17.5Q57 6 78 6q28 0 49.5 19T154 72l-4 4q-17 17-25 40-4 11-15 15l-2 1q2-11 6.5-20.5T119 90q0-19-12-32.5t-29-14Q61 43 49.5 57T38 90q0 12 4 22 9 18 9 37.5T42 187q-4 11-4 22v19q-2 34 17 62z"/></svg>