<svg viewBox="0 0 300 310" xmlns="http://www.w3.org/2000/svg"><path d="M281 6q-23-2-43 9.5T207 48q-57-8-114 0-11-21-31-32.5T19 6H0v149q0 16 6 30.5T23 211l83 83q12 12 30 12h28q18 0 30-12l83-83q11-11 17-25.5t6-30.5V6h-19zM63 74l6 16 16-3q32-6 65-6t65 6l16 3 6-16q2-10 9-17.5T262 46v53q-34 5-63 25t-47 50q-17-33-47.5-55T38 92V46q9 3 16 11t9 17zM49 184q-12-12-11-29v-25q12 3 25 8v4l1 4q1 6 5 12 5 7 14 11 11 5 26 6 24 33 22 75v6h-10l-72-72zm202 0l-72 72h-10q-1-22 6.5-43t21.5-38q25-1 38-14 7-8 9-18 9-4 18-6v18q1 17-11 29z"/></svg>