<svg viewBox="0 0 300 310" xmlns="http://www.w3.org/2000/svg"><path d="M150 6q-32 0-61 13T38.5 55.5Q17 79 7 109.5T.5 172Q4 204 20 231.5t42 46q26 18.5 57.5 25t62.5 0q31-6.5 57-25.5l-23-30q-20 15-45 19.5t-49.5-2q-24.5-6.5-44-23t-30-39.5q-10.5-23-10-48.5t12-48.5q11.5-23 32-38.5t45-20.5q24.5-5 49.5 1t44.5 22Q240 85 251 107.5t12 48.5v19q0 8-5.5 13t-13.5 5.5q-8 .5-13.5-5T225 175v-19q0-27-17-47.5t-43-26Q139 77 115 89t-34.5 36.5Q70 150 77 176t29 41.5q22 15.5 48.5 13.5t46.5-20q11 13 28.5 18t34-1q16.5-6 26.5-21t10-32v-19q0-41-20-75.5T225.5 26Q191 6 150 6zm0 187q-16 0-26.5-10.5T113 156q0-16 10.5-27t26.5-11q16 0 27 11t11 27q0 16-11 27t-27 10z"/></svg>