<svg viewBox="0 0 300 310" xmlns="http://www.w3.org/2000/svg"><path d="M254 171q2-7 2-15 0-21-12.5-38T211 96q2-7 2-15 0-17-8.5-31.5t-23-23Q167 18 150 18t-31.5 8.5Q104 35 96 49.5T88 81q0 8 1 15-20 5-32.5 22T44 156q0 8 2 15-20 5-33 22T0 231q0 17 8.5 31.5t23 22.5q14.5 8 31.5 8 12 0 23.5-4.5T106 276q9 8 20 12.5t24 4.5q13 0 24-4.5t20-12.5q8 8 19.5 12.5T238 293q16 0 30.5-8t23-22.5Q300 248 300 231q0-21-13-38t-33-22zM150 56q10 0 17.5 7.5T175 81q0 10-7.5 17.5T150 106q-10 0-17.5-7.5T125 81q0-10 7.5-17.5T150 56zM63 256q-11 0-18-7.5T38 231q0-10 7-17.5t17.5-7.5q10.5 0 18 7.5T88 231q0 10-7.5 17.5T63 256zm43-75q-10 0-17.5-7.5T81 156q0-10 7.5-17.5t18-7.5q10.5 0 17.5 7.5t7 17.5q0 10-7 17.5t-18 7.5zm44 75q-10 0-17.5-7.5T125 231q0-10 7.5-17.5T150 206q10 0 17.5 7.5T175 231q0 10-7.5 17.5T150 256zm44-75q-11 0-18-7.5t-7-17.5q0-10 7-17.5t17.5-7.5q10.5 0 18 7.5T219 156q0 10-7.5 17.5T194 181zm44 75q-11 0-18-7.5t-7-17.5q0-10 7-17.5t17.5-7.5q10.5 0 18 7.5T263 231q0 10-7.5 17.5T238 256z"/></svg>