<svg viewBox="0 0 300 310" xmlns="http://www.w3.org/2000/svg"><path d="M280 131q-21-29-55-38-10-34-37.5-55T125 17.5q-35 .5-62.5 22T26.5 95Q18 129 32 161q-19 13-27.5 34.5t-2 45Q9 264 29 279t45 14h51v-37H74q-12 0-22-7t-13-19q-4-14 3.5-26.5T64 187l27-7-17-22q-10-14-12-30.5T66.5 95q6.5-16 20-26.5T116 56q5-1 10-1 22 0 39 13 10 8 16.5 19t8.5 24l2 14 14 2q13 2 24.5 9t20 18q8.5 11 11 25t-1 28q-3.5 14-13 25T225 249v40q24-6 42.5-23.5t27-41Q303 201 299 176t-19-45zm-55 75l-41-41q-4-4-9-4t-9 4l-41 41h31v100h38V206h31z"/></svg>