<svg viewBox="0 0 300 310" xmlns="http://www.w3.org/2000/svg"><path d="M279 135q-20-20-47-20-19 1-43 12-11 5-13 3.5t-.5-5q1.5-3.5 3.5-6.5 31-53-8-92-13-14-31.5-18.5t-36.5 0Q85 13 71 27L55 43Q34 63 20 93T2 155q-5 36 3.5 66T34 272q17 17 40.5 25.5T126 306q12 0 25-2 32-4 62-18t50-35l16-16q14-14 18.5-32t0-36.5Q293 148 279 135zm-26 73l-16 16q-17 17-41 28.5t-50 15q-26 3.5-48.5-2.5T61 245q-14-14-20-36.5T38.5 160q3.5-26 15-50T82 69l16-16q9-10 23-10t23.5 10Q154 63 155 73t-8.5 26.5q-9.5 16.5-9 31.5t11.5 26q13 13 32 11 11-1 24-7 19-9 29.5-8t18.5 8q9 10 9 24t-9 23z"/></svg>