<svg viewBox="0 0 300 310" xmlns="http://www.w3.org/2000/svg"><path d="M121 165l38-38 6-8h35V81h-25q-1-10-5-18l22-22-27-27-22 22q-9-4-18-5V6H87v35l-8 6-5 6-23-23-27 27 23 23-6 5-6 8H0v38h25q1 10 5 18L8 172l26 26 23-22q11 5 24 5 23 0 40-16zm-58-40q0-8 5-13l38-38q5-5 13-5t13.5 5q5.5 5 5.5 13t-6 13l-38 38q-5 5-13 5t-13-5q-5-5-5-13zm202 93h35v-37h-25q-1-10-5-18l22-22-27-27-22 22q-11-5-24-5-23 0-40 16l-38 38-6 8h-35v38h25q1 10 5 18l-22 22 27 27 22-22q9 4 18 5v25h38v-35l8-6 5-6 23 23 27-27-23-23 6-5q3-4 6-9zm-97-6l38-38q5-6 13-6t13.5 5.5Q238 179 238 187t-6 13l-38 38q-5 5-13 5t-13-5q-5-5-5-13t5-13z"/></svg>