<svg viewBox="0 0 300 310" xmlns="http://www.w3.org/2000/svg"><path d="M99 131q-5 0-7-5l-11-20-10 20q-3 5-7 5t-6.5-3q-2.5-3-2.5-7l-5-53h13l3 40 15-29 15 29 3-40h13l-4 53q0 4-2.5 7t-6.5 3zm33 0q5 0 8-5l10-20 10 20q3 5 7 5t6.5-3q2.5-3 3.5-7l4-53h-13l-3 40-15-29-15 29-3-40h-13l4 53q1 4 3.5 7t5.5 3zm69 0q5 0 7-5l11-20 10 20q3 5 7 5t6.5-3q2.5-3 2.5-7l5-53h-13l-3 40-15-29-15 29-3-40h-13l4 53q0 4 2.5 7t6.5 3zm4 116l31 31-26 27-31-31q-14 7-30 7t-30.5-8.5Q104 264 96 249.5t-8-31q0-16.5 8-31t22.5-23Q133 156 150 156t31.5 8.5q14.5 8.5 23 23T213 218q0 16-8 29zm-30-29q0-10-7.5-17.5T150 193q-10 0-17.5 7.5t-7.5 18q0 10.5 7.5 17.5t17.5 7q10 0 17.5-7t7.5-18zM256 6H44Q26 6 13 19T0 50v143h66q7-21 23-37H38V50q0-3 1.5-5t4.5-2h212q3 0 5 2t2 5v106h-52q16 16 23 37h66V50q0-18-13-31T256 6z"/></svg>