<svg viewBox="0 0 300 310" xmlns="http://www.w3.org/2000/svg"><path d="M63 181h87v50H63v-50zM281 43q8 0 13.5-5t5.5-13q0-8-5.5-13.5T281 6q-8 0-13 5.5T263 25q0 8 5 13t13 5zm-68 144v119H0V187q0-29 17.5-55T63 95V31q0-10 7-17.5T88 6h37q10 0 17.5 7.5T150 31v12h38v38h-38v14q27 11 44.5 37t17.5 55h1zm-38 0q0-17-10-33t-25-23H73q-16 7-25.5 23T38 187v81h137v-81zM281 81q-8 0-13 5.5t-5 13.5q0 8 5 13.5t13 5q8-.5 13.5-5.5t5.5-13q0-8-5.5-13.5T281 81zm-50-38q-8 1-13.5 6T212 62q0 8 5.5 13.5T231 81q8 0 13.5-5.5T250 62q0-8-5.5-13.5T231 43z"/></svg>