<svg viewBox="0 0 300 310" xmlns="http://www.w3.org/2000/svg"><path d="M238 181h-38v-38h38v38zm-38 62h38v-37h-38v37zm-50-112v128q0 20-21 33.5T75 306q-33 0-54-13.5T0 259V131q0-14 10-25.5t27-18Q54 81 75 81t38 6.5q17 6.5 27 18t10 25.5zm-112 0q1 4 10 8 12 5 27 5t27-5q9-4 10-8-1-4-10-8-12-4-27.5-4.5T48 124q-9 4-10 7zm0 62q1 4 10 8 11 5 27 5t27-5q9-4 11-8v-18q-18 6-38 6t-38-6v18h1zm75 65v-21q-18 6-38 6t-38-6v21q3 3 12 7 12 4 26 3.5t26-3.5q9-4 11-7h1zM238 68H132q17 9 27.5 22t14.5 28h64V68zm18-62H94Q76 6 63 19T50 50v8q13-2 25-2l12 1v-7q1-3 2.5-4.5T94 44h162q3-1 5 1t2 5v218h-89q-3 22-21 38h147V50q0-18-13-31T256 6z"/></svg>