<svg viewBox="0 0 300 310" xmlns="http://www.w3.org/2000/svg"><path d="M100 6Q80 6 62.5 16T35 43.5Q25 61 25 81t10 37.5Q45 136 62.5 146t37.5 10q20 0 37.5-10t27.5-27.5Q175 101 175 81t-10-37.5Q155 26 137.5 16T100 6zm0 112q-16 0-27-10.5T62 81q0-16 11-27t27-11q16 0 27 11t11 27q0 16-11 26.5T100 118zm-37 63h75v37H63q-11 0-18 7.5T38 244v62H0v-63q0-16 8.5-30.5t23-23Q46 181 63 181zm225 12v-18q0-24-16.5-40.5t-40-16.5q-23.5 0-40 16.5T175 175v18h-12v75q0 16 10.5 27t26.5 11h63q15 0 26-11t11-27v-75h-12zm-75-18q0-8 5-13.5t13-5.5q8 0 13.5 5.5T250 175v18h-37v-18zm37 93h-37v-37h37v37z"/></svg>