<svg viewBox="0 0 300 310" xmlns="http://www.w3.org/2000/svg"><path d="M271 35q-14-14-32-21.5T201.5 6q-19.5 0-38 7.5T132 35L29 138q-19 18-26 43.5T3 233q7 26 25.5 44.5T73 303q26 7 51.5 0t43.5-26l103-103q14-13 21.5-31.5t7.5-38q0-19.5-7.5-37.5T271 35zm-26 113L142 251q-12 11-27.5 15.5t-31.5 0q-16-4.5-27.5-16t-16-27.5q-4.5-16 0-31.5T55 164L158 61q12-11 27.5-15.5t31.5 0q16 4.5 27.5 16t16 27.5q4.5 16 0 31.5T245 148zm-21-55l27 26-50 50-27-26 12-12-11-11-12 12-26-27 50-50 26 27-11 11 11 11 11-11zm-87 87l26 27-50 50-27-26 12-13-10-10-13 12-26-27 50-50 27 26-12 12 11 11 12-12z"/></svg>