<svg viewBox="0 0 300 310" xmlns="http://www.w3.org/2000/svg"><path d="M292 112q9-10 8-23.5T289 66q-22-20-55-29-6-14-18.5-22.5T187 6q-16 0-29 9.5T140 40Q62 79 27 140 0 187 0 243q0 17 8.5 31.5t23 23Q46 306 63 306h125v-38h-25v-31q0-16 4-37l73 106h48v-38h-28l-71-102q30-5 57.5-19.5T292 112zM188 37q7 0 12.5 5.5T206 56q0 8-5.5 13.5t-13 5.5q-7.5 0-13-5.5T169 56q0-8 5.5-13.5T187 37h1zm-25 94h-13l-5 12q-7 18-13 40-20-15-44-14h-6q-10 17-15 37h20q16 0 27 11t11 26v25H62q-10 0-17.5-7T37 243q0-104 107-163 6 12 18 19t26.5 7q14.5 0 26.5-8.5T233 76q16 6 27 15-17 17-44.5 28.5T162 131h1z"/></svg>