<svg viewBox="0 0 300 310" xmlns="http://www.w3.org/2000/svg"><path d="M100 6Q80 6 62.5 16T35 43.5Q25 61 25 81t10 37.5Q45 136 62.5 146t37.5 10q20 0 37.5-10t27.5-27.5Q175 101 175 81t-10-37.5Q155 26 137.5 16T100 6zm0 112q-16 0-27-10.5T62 81q0-16 11-27t27-11q16 0 27 11t11 27q0 16-11 26.5T100 118zm-37 63h75v37H63q-11 0-18 7.5T38 244v62H0v-63q0-16 8.5-30.5t23-23Q46 181 63 181zm217-29l-49-16-48 16q-9 3-15 11t-6 18v43q1 28 24 52 15 15 35 25l9 4 11-4q20-8 35-22 24-23 24-55v-43q0-10-5.5-18T280 152zm-17 72q-1 14-12 26-7 8-19 14-12-7-20-15-12-12-12-25v-38l31-10 32 10v38z"/></svg>