<svg viewBox="0 0 300 310" xmlns="http://www.w3.org/2000/svg"><path d="M300 306H175q0-17 8.5-31.5t23-23q14.5-8.5 31-8t31 8.5q14.5 8 23 22.5T300 306zm-191-70l9 23-58 23-9-23-23 9-17-44q-13-33-11-69l4-53q1-12 8.5-22.5T32 65l111-44q11-4 23.5-2T188 30l40 36q26 25 39 58l17 43-23 9 9 24-58 23-10-24-93 37zm95-118q-7 3-10 10t-1 14q3 8 10.5 11t14.5 0q7-3 10-10t0-14q-2-8-9.5-11t-14.5 0zM39 143l151-60-27-25q-3-3-7-2L46 100q-4 1-4 5l-3 38zm38 45q-3-7-10-10t-14-1q-7 3-10.5 10.5T42 202q3 7 10 10t15 0q7-2 10-9.5t0-14.5z"/></svg>