<svg viewBox="0 0 300 310" xmlns="http://www.w3.org/2000/svg"><path d="M292 198L196 44q-8-12-19.5-19t-26-7Q136 18 124 25t-20 19L8 198q-8 13-8 27.5T7 253q7 13 19.5 20.5T54 281h192q15 0 27.5-7.5T293 253q7-13 7-27.5t-8-27.5zm-32 37q-4 8-14 8H54q-10 0-14.5-8.5T40 218l45-73 93 64-15 22h75l-32-63-17 24-65-45 5-11q1-4 4.5-5.5t6.5.5l2 1q8 4 11 12l1 4 21 14-6-25q-5-13-18-20l-5-2q-9-5-19-1t-13 14l-4 9-14-9 40-64q5-8 14-8t14 8l96 154q5 8 0 17zM163 93q0 6-4 9.5t-9 3.5q-5 0-8.5-3.5t-3.5-9q0-5.5 3.5-9T150 81q5 0 9 3.5t3 9.5l1-1zm-66 83l15 11-16 44H77l20-55zm28 20l19 13v22h-19v-35z"/></svg>