<svg viewBox="0 0 300 310" xmlns="http://www.w3.org/2000/svg"><path d="M206 81q-15 0-28 8-4-3-9-4 2-18 10-29 6-7 14-11 4-2 7-1 5-1 9 3t3 9h38q0-10-3.5-19.5T236 20q-7-7-16.5-10.5T200 6q-15 1-27.5 7.5T151 32q-11-15-28-24l-17 34q8 4 13 10 10 12 12 33-5 1-9 4-13-7-28-8-19 0-41.5 15.5T16 137Q0 164 0 193.5T16 250q15 25 37 40.5T94 306q15 0 26-9 14 9 30 9t30-9q11 9 26 9 19 0 41-15.5t37-40.5q16-27 16-56.5T284 137q-14-25-36.5-40.5T206 81zM38 193q0-19 11-37 9-16 22.5-27T94 118q-20 35-20 75.5T94 268q-9 0-22.5-10.5T49 231q-11-18-11-38zm112 75q-9 0-17.5-9.5t-14-27q-5.5-17.5-5.5-38t5.5-38q5.5-17.5 14-27T150 119q9 0 17.5 9.5t14.5 27q6 17.5 6 38t-6 38q-6 17.5-14.5 27T150 268zm56 0q20-34 20-74.5T206 119q9 0 22.5 10.5T251 156q12 18 12 37.5T251 231q-9 16-22.5 26.5T206 268z"/></svg>