<svg viewBox="0 0 300 310" xmlns="http://www.w3.org/2000/svg"><path d="M290 102q10 26 10 54 0 41-20 75.5T225.5 286Q191 306 150 306t-75.5-20Q40 266 20 231.5T0 156q0-41 20-75.5T74.5 26Q109 6 150 6q28 0 54 10l-16 17v17q-19-7-38-7-30 0-56 15.5T53 100q-15 26-15 56t15 56q15 26 41 41t56 15q30 0 56-15t41.5-41q15.5-26 15.5-56 0-19-7-38h17l17-16zm-154 6l37-36q-12-3-23-3-24 0-44 11.5T74 112q-12 20-12 44t12 44q12 20 32 32t44 12q24 0 44-12t31.5-32q11.5-20 11.5-44 0-11-3-23l-36 37q-5 16-18 26t-30 10q-21 0-35.5-14.5T100 156q0-17 10-30t26-18zm12 23q-9 1-16 8t-7 17q0 10 7.5 17.5T150 181q10 0 17-6.5t8-16.5l64-64h24l37-38h-50V6l-37 37v24l-64 64h-1z"/></svg>