<svg viewBox="0 0 300 310" xmlns="http://www.w3.org/2000/svg"><path d="M188 206q0-10 7-17.5t17.5-7.5q10.5 0 17.5 7.5t7.5 17.5q.5 10-7 17.5t-18 7.5q-10.5 0-17.5-7.5t-7-17.5zm-88 12q10 0 17.5-7t7.5-17.5q0-10.5-7.5-17.5t-17.5-7.5q-10-.5-17.5 7t-7.5 18q0 10.5 7.5 17.5t17.5 7zm200-102v190H65q-16 0-30-9t-21-24Q2 245 .5 215t7-59Q16 127 31 98q27-50 66-79 17-13 38.5-13T175 18l125 98zM70 106h157l-73-58q-8-4-17.5-4.5T119 49q-30 24-49 57zm193 37H65q-5 0-9.5 3t-6.5 8q-11 25-11.5 52T48 258q3 5 7.5 8t9.5 2h48q0-16 12-27t29-10q14 2 23.5 12.5T187 268h76V143z"/></svg>