<svg viewBox="0 0 300 310" xmlns="http://www.w3.org/2000/svg"><path d="M100 143q-10 0-17.5-7T75 118.5q0-10.5 7.5-18T100 93q10 0 17.5 7.5t7.5 18q0 10.5-7.5 17.5t-17.5 7zm125-25q0-10-7.5-17.5T200 93q-10 0-17.5 7.5t-7.5 18q0 10.5 7.5 17.5t17.5 7q10 0 17.5-7t7.5-18zM75 218h38v-50H75v50zm88-50h-38v50h38v-50zm12 50h38v-50h-38v50zM150 6q-41 0-75.5 20T20 80.5Q0 115 0 156t20 75.5Q40 266 74.5 286t75.5 20q25 0 47.5-8t41.5-22q-8-4-14-10t-12-17q-28 19-63 19-31 0-56.5-15t-41-41Q37 186 37 155.5t15.5-56Q68 74 93.5 59T150 44q31 0 56.5 15T247 99.5q15 25.5 16 56.5 0 9-2 19 22 9 34 19v1q5-20 5-39 0-41-20-75.5T225.5 26Q191 6 150 6zm84 187q-4 0-6.5 3t-2.5 7q0 1 2 9 3 11 6 20 5 11 10 17 7 7 17.5 7t18-7.5Q286 241 286 231t-7.5-17q-7.5-7-23-14t-21.5-7z"/></svg>