<svg viewBox="0 0 300 310" xmlns="http://www.w3.org/2000/svg"><path d="M280 143q8-14 8-31 0-22-12.5-40T243 47q5-3 8-6 6-6 9-15 2-6 2-14l1-6h-7q-7 1-14 3-9 3-15 8-3 4-6 9-3-9-9-19l-33 17q6 11 8 19h-12q-15 0-28 6-6-3-13-4l5-4q5-6 8-15 3-6 3-14V6h-6q-8 1-14 3-9 3-15 9-4 3-6 9-3-10-9-20L67 25q6 11 7 19-26 2-43.5 21.5T13 112q0 17 7 32H0v118q0 18 13 31t31 13h212q18 0 31-13t13-31V143h-20zm-60 0h-40q8-14 8-31t-8-31h40q13 0 21.5 9t8.5 22.5q0 13.5-8.5 22T220 143zM50 112q0-13 8.5-22T80 81h40q13 0 21.5 9t8.5 22.5q0 13.5-8.5 22T120 143H80q-13 0-21.5-8.5T50 112zm213 150q0 3-2 4.5t-5 1.5H44q-3 0-4.5-1.5T38 262v-19h200v-37H38v-25h225v81z"/></svg>