<svg viewBox="0 0 300 310" xmlns="http://www.w3.org/2000/svg"><path d="M100 168h63v38h-63v37q-16 1-27-10t-11-27q0-16 11-27t27-11zm19-100q13 0 22-9t9-22q0-13-9-22t-22-9q-13 0-22 9t-9 22q0 13 9 22.5t22 9.5v-1zm153 66q14 13 21 30t7 36v12q0 26-12.5 47.5t-34 34Q232 306 206 306H94q-26 0-47.5-12.5t-34-34Q0 238 0 212v-12q0-26 12.5-47.5t34-34Q68 106 94 106h56q1-17 9.5-31.5t23-22.5q14.5-8 31.5-8.5t32 8.5q15 9 23.5 23.5T278 108q0 13-6 26zm-84-26q0 11 7.5 18.5T214 134q11 0 19-7.5t8-18.5q0-11-8-19t-19-8q-11 0-18.5 8t-7.5 19zm75 92q0-22-15-38-16 10-33 10t-31-8q-14-8-23-21H94q-24 0-40 16.5T38 200v12q0 24 16 40t40 16h112q24 0 40.5-16t16.5-40v-12zm18-157q8 0 13.5-5t5.5-13q0-8-5.5-13.5T281 6q-8 0-13 5.5T263 25q0 8 5 13t13 5z"/></svg>