<svg viewBox="0 0 300 310" xmlns="http://www.w3.org/2000/svg"><path d="M273 19q-20 10-46 13-15 1-46 1-27 0-41 1-23 2-41 9-21 8-37 25-22 21-31 50t-4.5 58.5Q31 206 49 230L0 279l27 27 49-49q33 24 74 24 25 0 48-9.5t40-27.5q27-26 42-63 12-31 17-72 3-29 3-73V6l-27 13zm-61 199q-13 12-28.5 18.5T150 243q-18 0-33.5-6.5T88 218q-17-17-22.5-39.5t0-45Q71 111 88 94q15-14 35-20 16-4 42-4h16q26 1 39 0 23-2 42-7-2 54-12 88-12 41-38 67zm-27-114q11 0 19.5 9.5T213 135q0 21-28 49-14 14-29 24l-14-12q-17-14-27-28-15-18-15-31.5t8.5-23q8.5-9.5 20-9.5t19.5 9.5q8 9.5 8 21.5 0-12 8.5-21.5T185 104z"/></svg>