<svg viewBox="0 0 300 310" xmlns="http://www.w3.org/2000/svg"><path d="M300 156q0 25-8 49-13-13-33-23 4-13 4-26 0-31-15.5-56.5t-41-41Q181 43 150.5 43T94 58.5Q68 74 53 99.5T38 156q0 31 15 56.5T93.5 253q25.5 15 56.5 15 34 0 62-18v6q1 17 11 31-34 19-74 19t-74.5-20Q40 266 20 231.5T0 156q0-41 20-75.5T74.5 26Q109 6 150 6t75.5 20Q260 46 280 80.5t20 75.5zm-150 75q9 0 18 4 7 3 8 5l23-30q-7-5-16-9-16-7-33-7.5t-33 7.5q-9 4-16 9l23 30q3-2 8-5 9-4 18-4zm63-38q1 2 3 4 5 5 9 11 5 9 9 20 4 13 4 28 0 10 7 17.5t17.5 7.5q10.5 0 18-7.5T288 256q0-17-12-31-10-11-26-19-12-6-26-10l-11-3zm-113-62q-8 0-23-6l-14-7q0 18 9 33 11 17 28 17t28-17q10-15 10-33l-15 7q-15 6-23 6zm138-13q-8 4-15 7-15 6-23 6t-23-6l-14-7q0 18 9 33 11 17 28 17t28-17q9-15 10-33z"/></svg>