<svg viewBox="0 0 308 310" xmlns="http://www.w3.org/2000/svg"><path d="M110 181q-8 0-13.5-5.5t-5-13.5q.5-8 5.5-13.5t13-5.5q8 0 13.5 5.5T129 162q0 8-5.5 13.5T110 181zm88-38q-8 0-13.5 5.5T179 162q0 8 5.5 13.5T198 181q8 0 13.5-5.5t5-13.5q-.5-8-5.5-13.5t-13-5.5zm-44 100q24 0 42-16 15-13 21-34l-1 1q-9 3-20 6-23 6-42 6t-42-6q-11-3-20-6v-1q5 21 20 34 18 16 42 16zm0-112q-42 0-81-15-29-10-53-27Q7 80 0 73l26-27q12 12 33 23l11-27q9-20 24-29 12-7 27-7 18 0 33 11 15-11 32-11t31 9.5Q231 25 238 42l11 27q20-11 32-23l27 27q-8 7-20 16-25 17-53 27-39 15-81 15zM93 84q30 9 61 9t61-9l-11-27q-6-14-18-14-4 0-8 2.5t-5 4.5v6h-38v-6q-1-2-5.5-4.5t-9-2.5q-4.5 0-8.5 3t-8 11L93 84zm148 57q7 17 7 34 0 25-13 46.5t-34.5 34Q179 268 154 268t-47-12.5q-22-12.5-34.5-34T60 175q0-17 7-34-18-6-34-15-10 24-10 49 0 35 17.5 65.5t47.5 48q30 17.5 66 17.5t66-17.5q30-17.5 47.5-48T285 175q0-25-10-49-16 8-34 15z"/></svg>