<svg viewBox="0 0 300 310" xmlns="http://www.w3.org/2000/svg"><path d="M193 172l107 107-27 27L1 33 27 6l15 15q6-7 14.5-11T75 6q18 0 31 13t13 31q0 10-4 18.5T103 83l37 37q11-3 22 0t19 11q8 8 11 19t1 22zm32-79q18 0 31-12.5T269 50q0-18-13-31T225 6q-18 0-31 13t-13 31q0 18 13 30.5T225 93zm31 13h-66q20 14 26 38h40q3-1 4.5 1t1.5 5v43h38v-43q0-18-13-31t-31-13zM119 218q-18 0-31 13t-13 31v44h38v-44q-1-2 1-4t5-2h62q3 0 5 2t2 4v44h37v-13l-74-75h-32zM39 107q-17 1-28 13.5T0 150v43h38v-43q0-3 1.5-5t4.5-2h32l-37-36z"/></svg>