<svg viewBox="0 0 300 310" xmlns="http://www.w3.org/2000/svg"><path d="M300 156q0-18-11-31.5T261 107q2-7 1-14 1-20-14-35t-36-15h-11q-11-16-26-26.5T144 6h-19v19q0 10-3 19H88q-21-1-35.5 14T38 94q-1 6 1 13-17 4-28 17.5t-11 32Q0 175 12.5 189T43 205l3 7q8 15 22 22 12 7 30 9 11 1 33 1v24H87v38h125v-38h-43v-24q22 0 33-1 18-2 30-9 14-7 22-22l3-7q18-2 30.5-16t12.5-33zM50 143h113v-37H88q-6 0-9.5-3.5t-3.5-9q0-5.5 3.5-9T88 81h57l5-9q6-9 9-20 9 7 13 18l5 11h35q6 0 9.5 3.5t3.5 9q0 5.5-3.5 9T212 106v37h38q5 0 8.5 4t3.5 9q0 5-3.5 8.5T250 168H50q-5 0-8.5-3.5T38 156q0-5 3.5-9t8.5-4z"/></svg>