<svg viewBox="0 0 300 310" xmlns="http://www.w3.org/2000/svg"><path d="M260 6h-93l33 38h56q3-1 5 1t2 5v93q0 11-7.5 18.5t-18 7q-10.5-.5-18-7.5t-7.5-17h-37q0 10-7.5 17.5t-17.5 7q-10-.5-17.5-7.5t-7.5-17H88q0 10-7.5 17.5t-18 7Q52 168 45 161t-7-17V50q0-3 1.5-5t4.5-2h56l33-37H40Q23 7 11.5 20T0 50v256h300V50q0-17-11.5-30T260 6zM38 268v-67q12 5 24.5 5t24-4.5Q98 197 106 188q9 9 20 13.5t24 4.5q13 0 24-4.5t20-13.5q8 9 19.5 13.5t24 4.5q12.5 0 24.5-5v67H38zm85-214l27-29 27 29q10 11 10 27t-10.5 27Q166 119 150 119t-26.5-11q-10.5-11-11-27T123 54z"/></svg>