<svg viewBox="0 0 300 310" xmlns="http://www.w3.org/2000/svg"><path d="M205 6H63Q47 6 36 17T25 44v262h250V77L205 6zm-30 37v63h63v50H63V43h112zM87 209q-4 0-6.5 3t-2.5 6v26q0 3 3 6t6.5 3q3.5 0 6.5-3t3-6h15q0 10-7 17.5T87.5 269Q77 269 70 261.5T63 244v-26q-1-10 6.5-17.5T87 193q10 0 17.5 7.5T112 218H97q0-3-3-6t-7-3zm39 48l-5-6 11-10 5 6q6 6 15 6 4 0 7-2t3.5-5.5q.5-3.5-8-7T137 231q-5-3-7.5-8.5t-2-11q.5-5.5 5-10.5t10.5-7q10-3 21 2 6 2 9 5l6 5-10 12-6-5q-1-1-5-3-6-2-10.5-.5t-5 4q-.5 2.5 1.5 4.5l16 6q11 4 15 11t2.5 15q-1.5 8-8.5 13.5t-17 5.5q-16 0-26-12zm62-64h15l10 42 9-41h16l-16 75h-16l-18-75v-1z"/></svg>