<svg viewBox="0 0 300 310" xmlns="http://www.w3.org/2000/svg"><path d="M300 168q0 11-7.5 18t-17.5 7H175v-50h100q10 0 17.5 7.5T300 168zm-57 50q-15 24-39.5 37T149 268q-30 0-55.5-15T53 212.5Q38 187 37.5 156t15-56.5q15.5-25.5 41-41T150 43q36 0 65 21t41 54h19q11 0 21 5-7-33-28-59.5t-52-42Q185 6 150 6q-41 0-75.5 20T20 80.5Q0 115 0 156t20 75.5Q40 266 74.5 286t75.5 20q45 0 82-24.5t55-64.5q-7 1-12 1h-32zm-68-112q0 10 7.5 17.5T200 131q10 0 17.5-7.5T225 106q0-10-7.5-17.5T200 81q-10 0-17.5 7.5T175 106zm-50 0q0-10-7.5-17.5T100 81q-10 0-17.5 7.5T75 106q0 10 7.5 17.5T100 131q10 0 17.5-7.5T125 106zm25 112v-37q-26 0-52 14-14 8-23 16l25 28q5-5 15-10 18-11 35-11z"/></svg>