<svg viewBox="0 0 300 310" xmlns="http://www.w3.org/2000/svg"><path d="M188 206q-1 14-9.5 24.5t-22 12.5q-13.5 2-25.5-4.5T114.5 219q-4.5-13 0-26t16.5-19v-68h38v67q8 6 13.5 14.5T188 206zm62 0q0 27-13.5 50T200 292.5Q177 306 150 306q-31 0-55-16.5t-36-43Q47 220 50.5 191T75 140V81q1-28 17-48 14-17 36-23t44 0q22 6 37 23 15 20 16 48v59q12 13 18.5 30t6.5 36zm-37 0q0-13-5.5-25T193 161l-5-6V81q0-16-11-27t-27-11q-16 0-27 11t-10 27v74l-6 6q-16 14-19 35.5t7.5 40q10.5 18.5 30 26.5t40.5 3q21-5 34-22t13-38z"/></svg>