<svg viewBox="0 0 300 310" xmlns="http://www.w3.org/2000/svg"><path d="M150 6q-41 0-75.5 20T20 80.5Q0 115 0 156t20 75.5Q40 266 74.5 286t75.5 20q41 0 75.5-20t54.5-54.5q20-34.5 20-75.5t-20-75.5Q260 46 225.5 26T150 6zm108 117q-41-25-89-42-36-14-75-23 26-15 56-15 37 0 67 22.5t41 57.5zm-216 3q5-19 17-36 18 3 36 7-29 13-53 28v1zm108 142q-27 0-51-12t-40-34q-16-22-20-49 21-16 51-32-2 4-2 9 0 8 5.5 13.5t13 5.5q7.5 0 13-5.5t5.5-13q0-7.5-4-12.5t-11-6q20-9 43-17 20 7 40 16-7 1-12.5 6t-5.5 12.5q0 7.5 5.5 13.5t13.5 6q8 0 13.5-5.5T213 151q0-7-4-12 27 14 53 31-4 28-19.5 50.5t-40 35.5Q178 269 150 269v-1zm0-87q24 0 48 13 13 7 21 14l-25 28-6-4q-8-6-16-9-11-5-22-5-14 0-29 9-8 4-14 9h-1l-25-28q8-7 21-14 24-13 48-13z"/></svg>