<svg viewBox="0 0 300 310" xmlns="http://www.w3.org/2000/svg"><path d="M150 193q-16 0-26.5-10.5T113 156q0-16 10.5-27t26.5-11q16 0 27 11t11 27q0 16-11 27t-27 10zm0-37zm0 150q-20 0-36.5-11.5T91 264q-21 3-40-5.5T21.5 232q-10.5-18-9-39T27 156q-13-16-14.5-37t9-39Q32 62 51 53.5T91 48q6-18 22.5-30T150 6q20 0 36.5 12T209 48q21-3 40 5.5T278.5 80q10.5 18 9 39T273 156q13 16 14.5 37t-9 39Q268 250 249 258.5t-40 5.5q-6 19-22.5 30.5T150 306zm-25-104v41q0 11 7.5 18t17.5 7q10 0 17.5-7t7.5-18v-40l32 20q7 4 15 4t14.5-4q6.5-4 10.5-11t3.5-15q-.5-8-4.5-14.5T235 172l-30-16 30-16q7-4 11-10.5t4.5-14.5q.5-8-3.5-15t-10.5-11q-6.5-4-14.5-4t-15 4l-32 19V68q0-10-7.5-17T150 43.5q-10-.5-17.5 7T125 69v41L93 88q-7-3-15-3t-14.5 4Q57 93 53 100t-3.5 15q.5 8 4.5 14.5T65 140l30 16-30 16q-7 4-11 10.5T50 197q0 8 3.5 14.5t10 11Q70 227 78 227t15-4l32-21z"/></svg>