<svg viewBox="0 0 300 310" xmlns="http://www.w3.org/2000/svg"><path d="M275 230v76h-37v-49l-88-26v75H93l-34-30q-8-7-9-17.5t6-18.5q7-8 17.5-9t18.5 6l21 16V137q0-8 6-14t14-4.5q8 1.5 12.5 7T150 138v54l125 38zM63 131q-17 0-31.5-8.5t-23-23Q0 85 0 68.5t8.5-31q8.5-14.5 23-23t31-8.5q16.5 0 31 8.5t23 23q8.5 14.5 8.5 31t-8.5 31q-8.5 14.5-23 23T62 131h1zM45 87h35l5 15h15L79 37q-3-6-7-8t-9.5-2Q57 27 53 29t-7 9l-21 64h15l5-15zm19-45h-3L50 72h25L64 42zm163 10q0-3-2.5-5.5T219 44h-21q-1 0-1 1v14h22q3 0 5.5-2t2.5-5zm-77 16q0-16 8.5-30.5t23-23Q196 6 212.5 6t31 8.5q14.5 8.5 23 23t8.5 31q0 16.5-8.5 31t-23 23q-14.5 8.5-31 8.5t-31-8.5q-14.5-8.5-23-23T150 68zm32 20q0 7 4.5 11.5T198 104h29q9 0 15.5-6.5T249 82q0-6-2.5-11t-7.5-8q3-5 3-11 0-9-6.5-16T219 29h-21q-7 0-11.5 5T182 45v43zm45 1q3 0 5-2t2-5q0-3-2-5.5t-5-2.5h-30v14q0 1 1 1h29z"/></svg>