<svg viewBox="0 0 300 310" xmlns="http://www.w3.org/2000/svg"><path d="M150 6q-41 0-75.5 20T20 80.5Q0 115 0 156t20 75.5Q40 266 74.5 286t75.5 20q41 0 75.5-20t54.5-54.5q20-34.5 20-75.5t-20-75.5Q260 46 225.5 26T150 6zm0 37q24 0 46 10t38 28h-40q-8 0-14.5 3.5T169 94h-38q-4-6-10.5-9.5T106 81H66q16-18 38-28t46-10zm88 82q0 8-5.5 13.5t-13.5 5q-8-.5-13.5-5.5t-5.5-13q0-8 5.5-13.5T219 106q8 0 13.5 5.5T238 125zm-138 0q0 8-5.5 13.5t-13.5 5q-8-.5-13-5.5t-5-13q0-8 5-13.5t13-5.5q8 0 13.5 5.5T100 125zm50 143q-29 0-54.5-14t-41-38Q39 192 38 162q8 6 18 7h50q13-1 22.5-10t9.5-22v-6h25v6q0 13 9 22t22 9h50q10 0 18-6-1 30-16.5 54t-41 38Q179 268 150 268zm50-82l25 28q-9 7-23 15-26 14-52 14t-52-14q-14-8-23-15l25-28q5 5 15 10 18 10 35 10t35-10q10-5 15-10z"/></svg>