<svg viewBox="0 0 300 310" xmlns="http://www.w3.org/2000/svg"><path d="M150 6q-41 0-75.5 20T20 80.5Q0 115 0 156t20 75.5Q40 266 74.5 286t75.5 20q41 0 75.5-20t54.5-54.5q20-34.5 20-75.5t-20-75.5Q260 46 225.5 26T150 6zm0 262q-31 0-56.5-15t-41-40.5Q37 187 37.5 156T53 99.5q15-25.5 40.5-41t56.5-15q31 .5 56.5 15.5t41 40.5q15.5 25.5 15 56.5T247 212.5q-15 25.5-40.5 41T150 269v-1zm0-25q9 1 18 5 7 3 8 4l23-30q-7-4-16-9-16-7-33-7t-33 7q-9 5-16 9l23 30q3-2 8-4 9-4 18-4v-1zM117 88L96 74q-15 23-38 32l9 23q30-12 50-41zm125 18q-23-9-38-32l-21 14q20 29 50 41l9-23zm-142 12q-5 1-11 2 5 3 8 7.5t3 9.5q0 8-5.5 13.5T81 156q-5 0-9.5-3t-7.5-8q-1 6-1 11-1 16 10 27t27 10.5q16-.5 27-11t11-26.5q0-16-11-26.5T100 119v-1zm13 63q-6 0-9.5-3.5t-3.5-9q0-5.5 3.5-9t9-3.5q5.5 0 9 3.5t3.5 9q0 5.5-3.5 9T113 181zm87-63q-5 0-11 2 5 3 8 7.5t3 9.5q0 8-5.5 13.5T181 156q-5 0-9.5-3t-7.5-8q-1 6-1 11 0 16 10.5 26.5T200 193q16 0 26.5-10.5T237 156q0-16-10.5-26.5T200 119v-1zm13 63q-6 0-9.5-3.5t-3.5-9q0-5.5 3.5-9t9-3.5q5.5 0 9 3.5t3.5 9q0 5.5-3.5 9T212 181h1z"/></svg>