<svg viewBox="0 0 300 310" xmlns="http://www.w3.org/2000/svg"><path d="M175 6q-34 0-63 17T66 69.5Q49 99 50 133t18 62L0 264l43 42 68-68q33 20 72.5 17.5T254 228q31-25 41.5-63.5t-3-75.5Q279 52 247 29T175 6zm0 212q-24 0-44-11.5T99 175q-12-20-11.5-44t12-44Q111 67 131 55t44-12q24 0 44 12t32 32q12 20 11.5 44t-12 44Q239 195 219 206.5T175 218zm25-87h38q0 17-8.5 31.5t-23 22.5q-14.5 8-31.5 8t-31.5-8q-14.5-8-22.5-22.5t-8-31.5q0-17 8-31.5T143.5 77q14.5-8 31.5-8v37q-10 0-17.5 7.5T150 131q0 10 7.5 17.5T175 156q10 0 17.5-7.5T200 131z"/></svg>