<svg viewBox="0 0 300 310" xmlns="http://www.w3.org/2000/svg"><path d="M256 20Q233 6 206 6t-49 14q-22 14-33 35-5 10-12 16-10 10-22 12-23 5-42 18.5T16 136Q3 157 .5 182.5T7 232q9 24 27 42 16 16 36.5 24t42.5 8q49 0 92.5-28t69-75.5Q300 155 300 100q0-24-11.5-45.5T256 20zM113 268q-15 0-28.5-5T60 247q-18-18-21.5-44t9.5-48q9-14 21.5-23T98 120q18-4 33.5-16T157 73q7-13 20-21.5t29.5-8.5q16.5 0 29.5 8.5t20 21q7 12.5 7 27.5 0 45-20.5 83.5t-55 62Q153 269 113 269v-1zm112-168q0 8-5.5 13.5T206 119q-8 0-13-5.5t-5.5-13.5q-.5-8 5-13.5T206 81q8 0 13.5 5.5T225 100zm-112 87q-1 8-6 13.5T94 206q-8 0-13.5-5.5T75 187q0-8 5.5-13.5t13.5-5q8 .5 13.5 5.5t5.5 13zm112-12q0 8-5.5 13.5T206 194q-8 0-13.5-5.5T187 175q0-8 5.5-13.5T206 156q8 0 13.5 5.5T225 175z"/></svg>