<svg viewBox="0 0 300 310" xmlns="http://www.w3.org/2000/svg"><path d="M153 306H63v-53q0-13-6-25.5T40 205q-21-20-31.5-47.5t-7.5-53Q4 79 18 58t35-34.5Q74 10 98.5 7t48 4.5Q170 19 187.5 35T215 73q10 22 10 45 0 6-1 13h-5q-17 0-34 6 3-9 3-18 0-17-7-31.5t-19-25Q150 52 135 47t-31-3q-26 3-44.5 21T38 109q-2 18 7 39 7 18 20.5 30T87 206h7v-54q-14-5-22.5-18T63 106h37q0 5 3.5 9t9 3.5q5.5-.5 9-4t3.5-8.5h38q0 15-9 28t-23 18v31q-12 22-12 48 0 6 1 13H99l1 9v15h26q9 23 27 38zm121-65l19 11-19 33-19-11q-8 7-17 10v22h-38v-22q-10-3-18-10l-19 11-19-33 19-11v-10-10l-19-11 19-33 19 11q8-7 18-10v-22h38v22q9 3 17 10l19-11 19 33-19 11q1 5 1 10t-1 10zm-36-10q0-8-5.5-13.5T219 212q-8 0-13.5 5.5T200 231q0 8 5.5 13.5T219 250q8 0 13.5-5.5T238 231z"/></svg>