<svg viewBox="0 0 300 310" xmlns="http://www.w3.org/2000/svg"><path d="M263 181q-6-30-24-50l29-25q24 28 32 68l-37 7zm-1 31l37 7q-5 26-24.5 44T231 281q-24 0-46-16-25 16-54 16-34 0-64-31-33 31-67 31v-37q21 0 43-23-19-29-32-65-11-33-11-56 0-19 9.5-34.5t25-25Q50 31 68.5 31t34.5 9.5q16 9.5 25.5 25T138 100q0 23-13 57-13 35-34 65 21 21 40 21 14 0 27-6-9-14-14.5-29t-5.5-27q0-21 14.5-35.5t35-14.5q20.5 0 35.5 14.5t15 35.5q0 12-6.5 27.5T214 239q9 4 17 4 11 0 20-9t11-22zM68 190q14-23 23-48t9-42q0-13-9-22.5T69 68q-13 0-22.5 9.5T37 100q0 17 8.5 42T68 190zm132-9q0-5-3.5-9t-9-4q-5.5 0-9 4t-3.5 9.5q0 5.5 3 14t9 16.5q6-8 9.5-16.5T200 181z"/></svg>