<svg viewBox="0 0 300 310" xmlns="http://www.w3.org/2000/svg"><path d="M273 71q-14-15-35-15-14 0-26 7-2-24-20-40.5T150 6q-24 0-42 16.5T88 63q-12-7-26-7-21 0-35 15-8 8-11.5 18T13 110q1 11 6 20.5T33 147l44 24-12 12q-10 10-13.5 24t1.5 27l12 38q5 15 18 24.5t30 9.5q12 0 23-6 8-4 14-11 6 7 14 11 11 6 23 6 17 0 30-9.5t18-24.5l12-38q5-13 1.5-27T235 183l-12-12 44-25q9-6 14-15.5t6-20.5q1-11-2.5-21T273 71zM150 43q10 0 17.5 7.5t7.5 18q0 10.5-7.5 18T150 94q-10 0-17.5-7.5t-7.5-18q0-10.5 7.5-18T150 43zm-31 224q-5 3-11 .5t-7-7.5l-13-38q-2-7 3-12l14-14 23 12-14 14 10 28q1 5-.5 10t-5.5 7h1zm93-45l-13 38q-1 5-7 7.5t-10 0q-4-2.5-5.5-7.5t-.5-10l10-28-14-14 23-12 14 14q5 5 3 12zm38-115q0 6-4 9l-71 39v13h-50v-13l-70-39q-4-3-4.5-9t3-9.5Q57 94 62 94t9 3l45 25q13 9 29 9h10q16 0 28-9l46-26q4-2 9-2t8.5 3.5q3.5 3.5 3.5 9.5z"/></svg>