<svg viewBox="0 0 300 310" xmlns="http://www.w3.org/2000/svg"><path d="M250 44q-24-21-54.5-31T132 7q-33 4-62 22T23 76Q5 105 1 139q-4 37 9 72t40 59.5Q77 295 112 305q6 1 12 1 15 0 27-9 9-7 13.5-16.5T169 261v-19q19-4 31.5-19.5T212 187v-19h13v-37h-25V81h-37v50h-25V81h-38v50H75v37h13v19q0 20 12 35.5t31 19.5v19q0 4-3 6t-6 1q-26-7-46.5-26T45 197q-10-26-7-54 3-25 16.5-47T90 60.5Q112 47 137 44t47.5 4.5Q207 56 225 72t28 38q10 22 10 46t-10 46q-10 22-28 38-11 10-25 17v40q28-10 50-29 24-22 37-51t13-61q0-32-13-61t-37-51zM125 187v-19h50v19q0 8-5.5 13.5T156 206h-12q-8 0-13.5-5.5T125 187z"/></svg>