<svg viewBox="0 0 300 310" xmlns="http://www.w3.org/2000/svg"><path d="M263 275v31h-38v-31q0-13-9-22.5t-22-9.5h-44v63h-37v-63h-7q-13 0-22 9.5T75 275v31H38v-31q0-19 9-34.5t25-25q16-9.5 34-9.5h88q18 0 34 9.5t25.5 25Q263 256 262 275h1zM50 37q0-13 9-22t22-9q13 0 31 7 20-7 38-7t38 7q18-7 31-7t22 9q9 9 9 21.5t-7 21Q236 66 225 68v50q0 21-10 38t-27.5 27Q170 193 150 193t-37.5-10Q95 173 85 156t-10-38V68q-11-2-18-10.5T50 37zm63 69v12q0 16 10.5 27t26.5 11q16 0 26.5-11t10.5-27v-12h-74zm68 150q-8 0-13.5 5.5t-5 13.5q.5 8 5.5 13t13 5q8 0 13.5-5t5.5-13q0-8-5.5-13.5T181 256z"/></svg>