<svg viewBox="0 0 300 310" xmlns="http://www.w3.org/2000/svg"><path d="M113 168q0 11 7 18t17.5 7q10.5 0 17.5-7t7.5-17.5q.5-10.5-7-17.5t-18-7.5q-10.5-.5-17.5 7t-7 18.5v-1zm-48 42l26-27 32 32-27 26-31-31zM292 14q-8-8-18.5-8T255 14l-30 29v12l-27 27q-22-15-49-13t-46 20q-8 7-13 17-18-1-34.5 5.5T26 130Q8 149 2.5 174.5t2.5 52Q13 253 33 273q15 16 35.5 24.5T111 306q18 0 35-6.5t29.5-19.5q12.5-13 19-30t5.5-34q10-5 17-13 18-19 20-45.5T224 109l29-28h10l29-30q8-8 8-18.5T292 14zM191 177q-4 3-8 5-9 4-14.5 12t-5 18.5q.5 10.5-3 21.5T149 253q-11 11-27 14t-32.5-2.5Q73 259 60 246t-18.5-29.5Q36 200 39 184t14-27q16-15 37-14h4q10 0 18-5.5t12-14.5q2-4 5-8 9-7 20-8.5t21 3.5l-13 12 27 27 12-13q5 10 3.5 21t-8.5 20z"/></svg>