<svg viewBox="0 0 300 310" xmlns="http://www.w3.org/2000/svg"><path d="M38 43q0-15 10.5-26T75 6q16 0 26.5 11T112 43.5Q112 59 101.5 70T75 81q-16 0-27-11T37 44l1-1zm162 38q16 0 26.5-11T237 43.5Q237 28 226.5 17T200 6q-16 0-26.5 11T163 43.5Q163 59 173.5 70T200 81zm-62 25q-16 0-27 11t-11 26.5q0 15.5 11 26.5t26.5 11q15.5 0 26.5-11t11-26.5q0-15.5-11-26.5t-26-11zm-38-13H56q-18 0-30.5 13T13 137v44h37v-44q0-2 2-4t4-2h20q5-23 24-38zm119 38q3 0 4.5 2t1.5 4v31h38v-31q0-18-13-31t-31-13h-44q19 15 24 38h20zM63 237v44h37v-44q0-2 2-4t4-2h57v-38h-57q-18 0-30.5 13T63 237zm237-6h-37v-38h-38v38h-37v37h37v38h38v-38h37v-37z"/></svg>