<svg viewBox="0 0 300 310" xmlns="http://www.w3.org/2000/svg"><path d="M0 306l240-86L86 66 0 306zm172-101L62 244l39-110 71 71zM160 96q16-16 15-32 0-10-7-20-4-5-7-8l24-29q8 7 14 17 13 18 14 39 1 32-27 59l-26-26zm97 67q-8 1-16 9l-27-26q21-21 45-20 15 1 29 10 8 5 12 11l-28 24q-2-2-6.5-4.5T257 164v-1zm6-138q0-8 5-13.5T281 6q8 0 13.5 5.5T300 25q0 8-5.5 13T281 43q-8 0-13-5t-5-13zm-25 62q0-8 5-13.5t13-5.5q8 0 13.5 5.5T275 87q0 8-5.5 13.5T256 106q-8 0-13-5.5T238 87zM100 37q0-8 5.5-13.5T119 18q8 0 13.5 5.5T138 37q0 8-5.5 13.5T119 56q-8 0-13.5-5.5T100 37zm188 200q0 8-5.5 13.5T269 256q-8 0-13.5-5.5T250 237q0-8 5.5-13t13.5-5.5q8-.5 13.5 5T288 237zM13 50q0-8 5-13.5T31 31q8 0 13.5 5.5T50 50q0 8-5.5 13T31 68.5q-8 .5-13-5T13 50zm212 237q0 8-5.5 13.5T206 306q-8 0-13.5-5.5T187 287q0-8 5.5-13.5T206 268q8 0 13.5 5.5T225 287z"/></svg>