<svg viewBox="0 0 300 310" xmlns="http://www.w3.org/2000/svg"><path d="M125 156q0-10 7.5-17.5T150 131q10 0 17.5 7.5T175 156q0 10-7.5 17.5T150 181q-10 0-17.5-7.5T125 156zm49 55q-16-5-24-5t-24 5q-9 3-13.5 10.5T110 238l15 68h51l14-68q2-9-2.5-16.5T174 211zM150 6q-41 0-75.5 20T20 80.5Q0 115 0 156q0 47 27 85.5T97 296l-10-47q-23-16-36-40.5t-13.5-54q-.5-29.5 15-55t41-41Q119 43 150 43t56.5 15.5q25.5 15.5 41 41t15.5 55q0 29.5-13.5 54T214 249l-10 47q42-17 69-55t27-85q0-41-20-75.5T225.5 26Q191 6 150 6zm88 150q-1-24-12.5-44T194 80.5Q174 69 150 69t-44 11.5Q86 92 74 112t-11 44q0 18 6.5 33.5T88 217q6-19 25-27-13-15-13-35t14.5-34.5Q129 106 150 106t35.5 14.5Q200 135 200 155t-13 34q19 9 26 28 11-12 18-28t6-33h1z"/></svg>