<svg viewBox="0 0 300 310" xmlns="http://www.w3.org/2000/svg"><path d="M169 231h-38v-38h38v38zm-7 69q21-8 41-21 31-21 49-47 23-35 23-76V79q0-14-8-25t-21-15L150 7 54 38q-13 5-21 16t-8 25v77q0 37 23 70 18 26 48 48 20 15 41 25l12 7 13-6zm72-226q4 1 4 5v77q0 42-35 75-22 21-52 33-31-16-53-37-36-34-36-71V79q0-4 4-5l84-28 84 28zm-63 90q13-6 21-18t8-26.5q0-14.5-7.5-27t-20.5-19q-13-6.5-27-5T119 79q-9 7-14 17.5t-5 21.5h38q-1-6 4-9.5t11.5-2q6.5 1.5 8 7t-.5 10q-2 4.5-6 6.5-11 5-17.5 15.5T131 169h38q-1-3 2-5z"/></svg>