<svg viewBox="0 0 300 310" xmlns="http://www.w3.org/2000/svg"><path d="M225 100q0 8-5.5 13.5T206 119q-8 0-13-5.5t-5.5-13.5q-.5-8 5-13.5T206 81q8 0 13.5 5.5T225 100zm75 68h-98q5 23 8 53 3 25 3 35 0 18-11 31-15 19-52 19t-52-19q-10-13-11-31 1-10 3-35 3-30 8-53H0v-18q0-39 20-72t54.5-52.5Q109 6 150 6t75.5 19.5Q260 45 280 78t20 72v18zm-125 88q0-11-3-37-3-31-8-51h-28q-5 20-8 51-3 26-3 37 0 6 3 8 6 4 22 4t22-4q3-2 3-8zm86-125q-5-25-21-45t-39.5-31Q177 44 150 44v-1 7q0 18-13 31t-31 13q-11-1-20.5-6T70 75q-25 23-31 56h74q0-10 7-17.5t17.5-7.5q10.5 0 18 7.5T163 131h98z"/></svg>