<svg viewBox="0 0 300 310" xmlns="http://www.w3.org/2000/svg"><path d="M300 156q0 41-20 75.5T225.5 286Q191 306 150 306q-47 0-85-27l-27 27v-63q0-5 3.5-8.5T50 231h63l-21 21q27 16 58 16t56.5-15q25.5-15 40.5-40.5t15-56.5h38zm-76-21l-19 11q1 5 1 10t-1 10l19 11-18 33-20-11q-8 6-17 10v22h-38v-22q-9-4-17-10l-20 11-18-33 19-11q-1-5-1-10t1-10l-19-11 18-33 20 11q8-6 17-10V81h38v22q9 4 17 10l20-11 18 33zm-55 21q0-8-5.5-13.5T150 137q-8 0-13.5 5.5T131 156q0 8 5.5 13.5T150 175q8 0 13.5-5.5T169 156zM150 43q31 0 58 17l-21 21h63q5 0 8.5-3.5T262 69V6l-27 27Q197 6 150 6q-41 0-75.5 20T20 80.5Q0 115 0 156h38q0-31 15-56.5T93.5 59Q119 44 150 44v-1z"/></svg>