<svg viewBox="0 0 300 310" xmlns="http://www.w3.org/2000/svg"><path d="M225 110v118h-37v-78l-38 59-37-59v78H75V110q0-8 5-15t13-9.5q8-2.5 16.5 0T123 96l27 43 27-43q5-7 13.5-10t16.5-.5q8 2.5 13 9.5t5 15zm75 46q0 41-20 75.5T225.5 286Q191 306 150 306t-75.5-20Q40 266 20 231.5T0 156q0-41 20-75.5T74.5 26Q109 6 150 6t75.5 20Q260 46 280 80.5t20 75.5zm-37 0q-1-31-16-56.5T206.5 59Q181 44 150 43.5t-56.5 15Q68 74 53 99.5T37.5 156q-.5 31 15 56.5t41 41q25.5 15.5 56.5 15t56.5-15.5q25.5-15 40.5-40.5t15-56.5h1z"/></svg>