<svg viewBox="0 0 300 310" xmlns="http://www.w3.org/2000/svg"><path d="M282 99q18-20 18-68h-55q5-12 5-25h-37q0 10-7.5 17.5T187 31h-74q-11 0-18-7.5T88 6H50q0 13 5 25H0q0 43 16 61l47 187q1 11 10 19t21 8h112q12 0 21-8t10-19l45-180zm-76 144h-37v-56q0-23 16-39 4 6 10.5 7.5T208 154q6-3 9-9.5t1-12.5l7-1h10l-28 113h-1v-1zm-113 1L65 131h10l7 1q-2 6 1 12.5t9 9.5q6 3 12.5 1.5T115 148q16 16 16 39v56l-38 1zm95-176q5 0 11-1 16 12 29 26h-3q-22 1-42 10.5T150 131q-13-18-33-27.5T75 94h-3q13-15 29-27l12 2 75-1z"/></svg>