<svg viewBox="0 0 300 310" xmlns="http://www.w3.org/2000/svg"><path d="M213 106q-21 0-36-14.5T162.5 56q.5-21 15-35.5t35-14.5Q233 6 248 20.5T263 56q0 21-15 35.5T212 106h1zm50 50q0-21-15-35.5T212.5 106q-20.5 0-35.5 14.5T162.5 156q.5 21 15 35.5t35 14.5q20.5 0 35.5-14.5t15-35.5zm-225 0q0 21 14.5 35.5t35 14.5q20.5 0 35.5-14.5t15-35.5q0-21-15-35.5T87.5 106q-20.5 0-35 14.5T38 156zm175 50q20 0 35 14.5t15 35.5q0 21-15 35.5T212.5 306q-20.5 0-35.5-14.5T162.5 256q.5-21 15-35.5T213 206zm-19 50q0 8 5.5 13.5t13 5.5q7.5 0 13-5.5T231 256q0-8-5.5-13.5t-13-5.5q-7.5 0-13 5.5T194 256zM88 206q20 0 35 14.5t15 35.5q0 21-15 35.5T87.5 306q-20.5 0-35-14.5T38 256q0-21 14.5-35.5T87 206h1zm-19 50q0 8 5.5 13.5t13 5.5q7.5 0 13-5.5T106 256q0-8-5.5-13.5t-13-5.5q-7.5 0-13 5.5T69 256zm19-150q-21 0-35.5-14.5T38 56q0-21 14.5-35.5T87.5 6Q108 6 123 20.5T138 56q0 21-15 35.5T87 106h1zm18-50q0-8-5.5-13.5t-13-5.5q-7.5 0-13 5.5T69 56q0 8 5.5 13.5t13 5.5q7.5 0 13-5.5T106 56z"/></svg>