<svg viewBox="0 0 300 310" xmlns="http://www.w3.org/2000/svg"><path d="M279 84q-13-7-19-10-9-7-14-15l54-45-5-7-70 24V6q-14 0-24.5 9T188 37q-18 7-29.5 21.5T142 91q-17-4-36-17-14-9-24-19L50 23v45q0 9 2 22 4 24 14 45-32 11-49 38.5T0 243h38q0-36 13-54 2 13 11 34l1 3q4 9 6 13l-9 67h60l6-50h49v50h62v-72l5-16q8-28 8-57v-13l50-7v-24q0-10-6-19.5T279 84zm-66 30v47q0 24-7 46l-3 11H101l-4-9q-5-11-7-17-2-9-2-17v-6q14 17 34 28l19-32q-30-18-44-52 32 18 60 18h17l1-17q2-16 9-27 9-13 25-17 11 25 39 40l-35 4z"/></svg>