<svg viewBox="0 0 300 310" xmlns="http://www.w3.org/2000/svg"><path d="M290 88q-18-19-32-27 17-18 17-43h-37q0 11-7.5 18T213 43h-7q-8 0-13-5t-5-13V6h-38v19q0 9 3 19h-9q-8-1-13.5-6T125 25V6H88v19q0 23 16 39.5T144 81h12q-6 13-6 26v11H80q-13 0-24.5 6T35 139L0 178l24 21q2 11 9 28l4 13 1 66h47l-1-50h91v50h50v-69q9-13 16-29 9-24 9-47v-13l21-3q12-2 20.5-11.5T300 111q0-13-10-23zm-77 26v47q0 19-9 38-6 11-12 19l-123 1-1-4q-5-13-6-19-3-11-3-19.5t6.5-14.5q6.5-6 14.5-6h108v-49q0-8 3-14 7-11 23-12 15 5 26 13 8 5 18 15l-45 5z"/></svg>