<svg viewBox="0 0 300 310" xmlns="http://www.w3.org/2000/svg"><path d="M169 175q0 8-5.5 13.5T150 194q-8 0-13.5-5.5T131 175q0-8 5.5-13.5T150 156q8 0 13.5 5.5T169 175zm56-1v22l29 32q11 17 7 37t-20.5 31.5q-16.5 11.5-36.5 8T172 285l-22-25-22 25q-12 16-31.5 19.5t-36.5-8Q43 285 39 265t7-37l29-32v-22l-20-9q-10-3-17.5-10T26 138q-4-10-4-20.5T27 97q8-17 25.5-24T88 71l-1-2q1-17 9-31.5t22.5-23Q133 6 150 6t31.5 8.5q14.5 8.5 23 23T212 68v3q18-5 35.5 2.5T273 97q5 10 5 20.5t-4 20.5q-4 10-11.5 17T245 166l-20 8zM125 68q0 11 7.5 18t17.5 7q10 0 17.5-7t7.5-17.5q0-10.5-7.5-17.5T150 43.5q-10-.5-17.5 7T125 69v-1zm63 142v-62l44-18q5-1 7.5-6.5t0-10Q237 109 232 107t-10 0l-52 21q-10 3-20 3t-20-3l-53-21q-5-2-9.5 0t-7 6.5q-2.5 4.5 0 10T68 130l45 18v62l-36 40q-3 4-1.5 9t5.5 7.5q4 2.5 9 1.5t8-5l28-33q10-11 24-11t24 11l28 33q3 4 8 5t9-1.5q4-2.5 5.5-7.5t-1.5-9l-35-40z"/></svg>