<svg viewBox="0 0 300 310" xmlns="http://www.w3.org/2000/svg"><path d="M260 83q-6-17-20.5-28T206 44q-11-18-29-28T138 6q-28 0-49.5 18T61 69q-26 3-43.5 22.5T0 137q0 22 10.5 40t28 29Q56 217 77 218q11 34 10 69v19h126v-19q0-37 9-68 5-17 12-27 21 4 40-8t24-33.5q5-21.5-6-41T260 83zM124 268q-1-29-10-58 11-6 21-15 16 10 34 11 10 0 19-3-11 32-12 65h-52zm120-112q-8 0-13.5-5.5T225 137v-6h-37v6q0 10 3 20-4 5-10 8t-12 3q-13-2-23-11l-14-12-12 14q-16 18-39 22-18 0-30.5-13T38 137q0-13 9-22t22-9q8 0 13.5 5.5T88 125v6h37v-6q0-15-7.5-28T98 77q3-15 14-24t25-9q14 0 25 7.5T178 71l7 15 16-4q2-1 5-1 8 0 13.5 5.5T225 100v18h19q8 0 13.5 5.5T263 137q0 8-5.5 13.5T244 156z"/></svg>