<svg viewBox="0 0 300 310" xmlns="http://www.w3.org/2000/svg"><path d="M244 68h-75q-24 0-40 16.5T113 125v118h25v25h-25v38h187v-38h-25v-25h25V125q0-24-16.5-40.5T244 68zm-94 57q0-8 5.5-13.5T169 106h19v50h-38v-31zm94 93q-8 0-13.5-5t-5.5-13q0-8 5.5-13.5T244 181q8 0 13.5 5.5t5 13.5q-.5 8-5.5 13.5t-13 5.5v-1zm-75 0q-8 0-13.5-5t-5.5-13q0-8 5.5-13.5T169 181q8 0 13.5 5.5t5 13.5q-.5 8-5.5 13.5t-13 5.5v-1zm69 50h-63v-25h63v25zm-13-112v-50h19q8 0 13.5 5.5T262 125v31h-37zM38 206h50v37H63v63H0V6h150v50H75V43H38v163z"/></svg>