<svg viewBox="0 0 300 310" xmlns="http://www.w3.org/2000/svg"><path d="M150 6q-41 0-75.5 20T20 80.5Q0 115 0 156t20 75.5Q40 266 74.5 286t75.5 20q41 0 75.5-20t54.5-54.5q20-34.5 20-75.5t-20-75.5Q260 46 225.5 26T150 6zm0 262q-31 0-56.5-15T53 212.5Q38 187 37.5 156t15-56.5q15.5-25.5 41-41T150 43q31 0 56.5 15.5t41 41q15.5 25.5 15 56.5T247 212.5q-15 25.5-40.5 41T150 269v-1zm63-87q0 21-15 35.5T162 231h-62v-38h63q5 0 8.5-3.5t3.5-8.5q0-5-3.5-8.5T162 169h-37v-38h25q5 0 9-3.5t4-9q0-5.5-4-9t-9-3.5h-50V68h50q21 0 35.5 15t14.5 36q0 12-6 23 8 7 13 17t5 22h1z"/></svg>