<svg viewBox="0 0 300 310" xmlns="http://www.w3.org/2000/svg"><path d="M38 37q0-13 9-22t22-9q13 0 22 9t9 22q0 13-9 22t-22 9q-13 0-22-9t-9-22zm100 88v106h-25v75H75v-75H63v75H25v-75H0V125q0-18 13-31t31-13h50q18 0 31 13t13 31zM38 193h62v-68q0-3-2-5t-4-2H44q-3 0-4.5 2t-1.5 5v68zM231 68q13 0 22.5-9t9.5-22q0-13-9.5-22T231 6q-13 0-22 9t-9 22q0 13 9 22t22 9zm69 163h-25v75h-37v-75h-13v75h-37v-75h-25V125q0-18 12.5-31T206 81h50q18 0 31 13t13 31v106zm-100-38h63v-68q0-3-2-5t-5-2h-50q-2 0-4 2t-2 5v68z"/></svg>