<svg viewBox="0 0 300 310" xmlns="http://www.w3.org/2000/svg"><path d="M43 82q-9-9-13.5-20T25 38V18h38v20q-1 10 7 17 8 9 13 20t4 24v7H50v-7q0-10-7-17zm70-1h37q0-12-4.5-23.5T132 38q-7-7-7-17V6H88v15q-1 12 4 23t13 20q8 7 7 17h1zm187 63v12q0 41-20 75.5T225.5 286Q191 306 150 306t-75.5-19Q40 268 20 235T0 162q0-16 5-31l5-13h31l3 16q4 28 17 38 10 9 33 9 20 0 33-9 16-10 16-28 0-26 16-47.5T201 68q-4-12-11.5-18.5T175 43V6q22 0 40 16.5T240 68q27 6 43.5 27.5T300 144zm-37 0q-1-7-3-13-15 13-35 12-11 0-21.5-4T185 126q-4 9-4 18 0 21-11.5 38t-31 26.5q-19.5 9.5-44 10T48 209q15 28 42.5 44.5t59 15.5q31.5-1 57-16t40.5-40.5q15-25.5 16-56.5v-12z"/></svg>