<svg viewBox="0 0 300 310" xmlns="http://www.w3.org/2000/svg"><path d="M100 106q-10 0-17.5 7.5T75 131q0 10 7.5 17.5T100 156q10 0 17.5-7.5T125 131q0-10-7.5-17.5T100 106zm100 0q-10 0-17.5 7.5T175 131q0 10 7.5 17.5T200 156q10 0 17.5-7.5T225 131q0-10-7.5-17.5T200 106zm100 50q0 41-20 75.5T225.5 286Q191 306 150 306q-57-2-95-33-35-29-47.5-73t0-88Q20 68 55 39 93 8 150 6q41 0 75.5 20T280 80.5q20 34.5 20 75.5zm-37 0q-1-31-16-56.5T206.5 59Q181 44 150 44q-43 1-72 25-26 21-35 54t0 66q9 33 35 54 29 24 72 26 31-1 56.5-16t40.5-40.5q15-25.5 16-56.5zm-75 31q0-13-9.5-22t-22.5-9h-18v25h18q3 0 5 2t2 4.5q0 2.5-2 4.5t-5 2h-6v24h6q3 1 5 2.5t2 4q0 2.5-2 4.5t-5 2h-18v25h18q9 0 16.5-4.5T184 239q4-8 3-17t-6-16q6-8 6-19h1z"/></svg>