<svg viewBox="0 0 300.0014 310" xmlns="http://www.w3.org/2000/svg"><path d="M256 181q18 0 31-13t13-31V68q1-9-2-17t-9-14q-9-9-34-21-13-6-23-10l5 12q6 15 8 28-13-2-28-8-7-3-12-5l5 11q6 14 11 25 8 14 15 21 11 11 27 11v36q0 3-2 5t-5 1h-10q-10-31-46-43V81h-37v13l-13-1-12 1V81h-38v19q-36 12-46 44H44q-3-1-4.5-2.5T38 137v-36q15 0 26-11 7-7 15-21 5-11 11-25l5-11-12 5q-15 6-28 8 2-13 8-28 3-7 5-12l-11 5q-14 6-25 11-15 8-21 14.5T2 51q-3 8-2 17v69q0 18 13 31t31 13h8q3 11 10 25H36L6 236l26 27 20-20h33l5 9-28 28 26 27 39-39h47l38 39 26-27-28-28 7-9h32l19 20 27-27-31-30h-24q6-13 9-25h7zm-106-50q29 0 44 7 12 5 16 15 3 6 3 16t-12 29q-9 17-22 33h-57q-14-19-24.5-37T87 168q0-9 3-15 4-10 16-15 15-7 44-7z"/></svg>