<svg viewBox="0 0 300 310" xmlns="http://www.w3.org/2000/svg"><path d="M269 6H163v37h73L0 279l27 27L263 70v73h37V37q0-13-9-22t-22-9zM81 143q24 0 40.5-16T138 87.5q0-23.5-16.5-40T81.5 31q-23.5 0-40 16.5T25 87.5Q25 111 41.5 127T81 144v-1zm0-75q8 1 13.5 6t5.5 13q0 8-5.5 13.5T81 106q-8 0-13.5-5.5t-5-13.5q.5-8 5.5-13.5T81 68zm138 100q-24 0-40 16.5t-16 40q0 23.5 16 40t39.5 16.5q23.5 0 40-16.5t16.5-40q0-23.5-16.5-39.5T219 168zm0 75q-8 0-13.5-5t-5.5-13q0-8 5.5-13.5T219 206q8 0 13.5 5.5t5 13.5q-.5 8-5.5 13.5t-13 4.5z"/></svg>