<svg viewBox="0 0 300 310" xmlns="http://www.w3.org/2000/svg"><path d="M284 119q-15-14-35-13t-33 16l-31 33q-13-12-31-11H44q-18-1-31 12T0 187v75q0 18 13 31t31 13h140l104-119q13-15 12-35t-16-33zm-24 43l-94 106H44q-3 0-4.5-1.5T38 262v-75q0-2 1.5-4t4.5-2h110q4 0 6 2.5t2.5 5.5q.5 3-1.5 5.5t-5 2.5l-65 9 5 37 65-9q15-2 26-13t13-26l43-48q3-3 8-3.5t8 2.5q3 3 3.5 8t-2.5 8zM38 62q-1-16 9-29.5T75 13q21-9 48-5.5T168 26q19 17 19 43t-17 44q-17 16-39 18 14-9 22.5-22t8.5-28q0-17-15-28-12-9-29-9.5T91 47q-16 5-16 22 0 7 7.5 12.5T100 87q10 0 18.5-4.5T131 68q1 5-2.5 14.5T116 98q-12 8-29 8-25 0-38-15-11-11-12-29h1z"/></svg>