<svg viewBox="0 0 300 310" xmlns="http://www.w3.org/2000/svg"><path d="M50 268q0 11-7.5 18T25 293q-10 0-17.5-7T0 268.5q0-10.5 7.5-18T25 243q10 0 17.5 7.5T50 268zM25 131q-10 0-17.5 7.5T0 156q0 10 7.5 17.5T25 181q10 0 17.5-7.5T50 156q0-10-7.5-17.5T25 131zm0-113q-10 0-17.5 7.5T0 43.5Q0 54 7.5 61T25 68q10 0 17.5-7T50 43.5q0-10.5-7.5-18T25 18zM238 6H113L75 43l38 38h125q10 0 17.5-7.5T263 56V31q0-10-7.5-17.5T238 6zm-25 225H113l-38 37 38 38h100q10 0 17.5-7.5T238 281v-25q0-10-7.5-17.5T213 231zm62-113H113l-38 38 38 37h162q10 0 17.5-7t7.5-18v-25q0-10-7.5-17.5T275 118z"/></svg>