<svg viewBox="0 0 300 310" xmlns="http://www.w3.org/2000/svg"><path d="M150 6q-41 0-75.5 20T20 80.5Q0 115 0 156t20 75.5Q40 266 74.5 286t75.5 20q41 0 75.5-20t54.5-54.5q20-34.5 20-75.5t-20-75.5Q260 46 225.5 26T150 6zm38 75q0 13-9 24 15 13 15 31.5T181 168q-13 13-31 13t-31-13q-13-13-13-31.5t15-31.5q-8-11-8-24 0-16 10.5-26.5t26.5-11q16-.5 26.5 10.5T187 81h1zm-38 187q-31 0-56.5-15T53 212.5Q38 187 38 156q0-25 10-47t29-38q-14 21-14 48-1 23 11 43t32 32q20 12 44 12t44-12q20-12 32-32t12-44q-1-26-15-47 19 16 29.5 38t10.5 47q-1 31-16 56.5t-40.5 41Q181 269 150 269v-1zM138 81q0-5 3.5-9t8.5-4q5 0 9 4t4 9q0 5-4 8.5t-9 3.5q-5 0-9-3.5t-3-8.5zm-7 56q0-8 5.5-13.5T150 118q8 0 13.5 5.5T169 137q0 8-5.5 13.5T150 156q-8 0-13.5-5.5T131 137z"/></svg>