<svg viewBox="0 0 300 310" xmlns="http://www.w3.org/2000/svg"><path d="M212 71q13-18 13-40h-37q-1 9-6 17t-13 13V6h-38v55q-8-5-13-13t-6-17H75q0 22 13 40-26 5-46 21.5T11 132Q0 155 0 181q0 30 14.5 59T53 287q25 19 55 19h84q30 0 55-19 24-18 38.5-47t14.5-59q0-26-11-49t-31-39.5Q238 76 212 71zm-20 197h-84q-19 1-35-12.5T47.5 222q-9.5-20-10-40t9-37.5Q56 127 72 117t36-11h6q-11 10-25 13l9 36q31-7 52-31 21 24 52 31l9-36q-14-3-26-13h7q20 1 36 11t25.5 27.5Q263 162 263 182t-10 40q-10 20-26 33.5T192 269v-1z"/></svg>