<svg viewBox="0 0 300 310" xmlns="http://www.w3.org/2000/svg"><path d="M300 156v150h-37V156q-1-31-16-56.5T206.5 59Q181 44 150 43.5t-56.5 15Q68 74 53 99.5T38 156v150H0V156q0-41 20-75.5T74.5 26Q109 6 150 6t75.5 20Q260 46 280 80.5t20 75.5zm-62-6v118h-32l23 38h-37l-23-38h-38l-23 38H71l23-38H63V150q0-24 16-40.5T119 93h62q24 0 40.5 16.5T238 150zm-100 75q-1-8-6-13.5t-13-5.5q-8 0-13.5 5.5T100 225q0 8 5.5 13t13.5 5q8 0 13.5-5t5.5-13zm62 0q0-8-5.5-13.5T181 206q-8 0-13.5 5.5t-5 13.5q.5 8 5.5 13t13 5q8 0 13.5-5t5.5-13zm0-75q0-8-5.5-13.5T181 131h-62q-8 0-13.5 5.5T100 150v31h100v-31z"/></svg>