<svg viewBox="0 0 300 310" xmlns="http://www.w3.org/2000/svg"><path d="M150 43q13 0 22 9.5t9 22.5q0 13-9 22t-22 9q-13 0-22-9t-9-22q0-13 9-22.5t22-9.5zm-49 24q2-13 10-24l3-3q5-3 12-6 10-3 24-3t24 3q7 3 12 6l3 3q8 11 10 24 13-10 13-23 0-17-17.5-27.5T150 6q-27 0-45 10.5T87 43q0 14 14 24zm149 176v18l20 45H30l20-45v-18H25v-25H0q0-62 9-96 6-27 18-36 7-5 17-5 28 0 57 19 18 12 32 28 17 6 34 0 14-16 32-28 29-19 57-19 10 0 17 5 12 9 18 36 9 34 9 96h-25v25h-25zm-50-95l31 70h7v-25h24q-1-25-4-45.5t-7-28.5q-14 1-30 11-11 7-21 18zM38 193h25v25h6l31-70q-10-11-21-18-16-10-30-11-4 8-7 28.5T38 194v-1zm174 75l-45-101q-17 3-34 0L88 268h124z"/></svg>