<svg viewBox="0 0 300 310" xmlns="http://www.w3.org/2000/svg"><path d="M219 168q22 0 40.5-10.5T289 128q11-19 11-41t-11-40.5Q278 28 259.5 17T219 6q-22 0-41 11t-30 29.5Q137 65 137.5 87t11 41q10.5 19 29.5 29.5t41 10.5zm0-37q-8 0-15-3l56-55q2 7 3 14 0 18-13 31t-31 13zm0-88q7 1 14 3l-55 56q-3-7-3-15 0-18 13-31t31-13zm81 113v150H0V87q0-18 13-31t31-13h78q-8 18-9 38H44q-3 0-4.5 2T38 87v6l92 92q8 8 20 8t20-8l3-2q20 10 42 10l-18 19q-9 9-21.5 14t-25.5 5q-13 0-25.5-5T103 212l-65-66v122h225v-84q21-10 37-28z"/></svg>