<svg viewBox="0 0 300 310" xmlns="http://www.w3.org/2000/svg"><path d="M225 156q-20 0-37.5 10T160 193.5Q150 211 150 231t10 37.5q10 17.5 27.5 27.5t37.5 10q20 0 37.5-10t27.5-27.5q10-17.5 10-37.5t-10-37.5Q280 176 262.5 166T225 156zm13 125h-25v-25h25v25zm0-38h-25v-62h25v62zm-122 25q-10 0-41-11l19-18q12-8 22-8 3 0 9 3v-3q0-34 20.5-60.5T198 135L299 33 273 7 168 112q-4-11-11-24l55-55-27-26-49 49-20-25-15 19q-23 31-34 54L57 91l-15 19q-15 19-26 37-15 27-15 43 0 21 19 70L1 278l27 27 18-19q49 19 70 19 13 0 33-10-13-14-19-32-10 5-14 5zm0-174q8 12 13 22t6 14q0 11-8 23l-19 18v-2q-10-29-10-39 0-4 5-14t13-22zm-78 96q0-4 5-14t14-22q10 15 15 27l3 9q0 10-8 22l-18 19q-11-31-11-41z"/></svg>