<svg viewBox="0 0 300 310" xmlns="http://www.w3.org/2000/svg"><path d="M150 91l25 5-25 125-25-5 25-125zm-46 26l-22 22q-7 7-7 17.5t7 17.5l22 21 17-17-21-21 21-22-17-17v-1zm114 22l-22-22-17 18 21 21-21 22 17 17 22-21q7-7 7-17.5t-7-17.5zm48 62l23 14-18 32-23-13q-15 18-35.5 30T169 279v27h-38v-27q-23-3-43.5-15T53 234l-23 13-19-32 23-14q-9-22-9-45.5t9-45.5L11 97l19-32 23 13q14-18 34.5-30T131 32V6h38v26q23 4 43.5 16T248 78l23-13 18 32-23 13q9 23 9 46.5t-9 44.5zm-28-45q0-24-12-44t-32-32q-20-12-44-12t-44 12q-20 12-31.5 32T63 156q0 24 11.5 44t31.5 31.5q20 11.5 44 11.5t44-11.5q20-11.5 32-31.5t12-44z"/></svg>