<svg viewBox="0 0 300 310" xmlns="http://www.w3.org/2000/svg"><path d="M275 156q0-14-7-26.5T250 109q11-8 18-20t7-27q0-23-16.5-39.5T218.5 6q-23.5 0-40 16.5T162 62q1 15 7.5 27t18.5 20q-12 8-19 20.5t-6.5 26.5q.5 14 7 26.5T188 203q-12 8-19 20t-7 27q1 23 17 39.5t39.5 16.5q23.5 0 40-16.5T275 250q0-15-7-27t-18-20q11-8 18-20.5t7-26.5zm-37 0q-1 8-6 13.5t-13 5.5q-8 0-13.5-5.5T200 156q0-8 5.5-13.5T219 137q8 0 13 5.5t5 13.5h1zM219 43q8 0 13.5 5.5t5 13.5q-.5 8-5.5 13.5T219 81q-8 0-13.5-5.5T200 62q0-8 5.5-13.5T219 44v-1zm0 225q-8 0-13.5-5t-5.5-13q0-8 5.5-13.5T219 231q8 0 13 5.5t5 13.5q0 8-5 13.5t-13 4.5zM138 62q0-23-16.5-39.5T81.5 6Q58 6 41.5 22.5T25 62q0 15 7 27t18 20q-11 8-18 20.5T25 156q0 14 7 26.5T50 203q-11 8-18 20t-7 27q0 23 16.5 39.5t40 16.5q23.5 0 39.5-16.5t16-39.5q1-15-6-27t-19-20q12-8 19-20.5t7-26.5q0-14-7-26.5T112 109q12-8 19-20t7-27zM81 43q8 0 13.5 5.5T100 62q0 8-5.5 13.5T81 81q-8 0-13.5-5.5T62 62q0-8 5.5-13.5T81 44v-1zm0 94q8 0 13.5 5.5T100 156q0 8-5.5 13.5T81 175q-8 0-13-5.5T62.5 156q-.5-8 5-13.5T81 137zm0 131q-8 0-13-5t-5.5-13q-.5-8 5-13.5T81 231q8 0 13.5 5.5T100 250q0 8-5.5 13T81 268z"/></svg>