<svg viewBox="0 0 300 310" xmlns="http://www.w3.org/2000/svg"><path d="M150 6q-41 0-75.5 20T20 80.5Q0 115 0 156t20 75.5Q40 266 74.5 286t75.5 20q41 0 75.5-20t54.5-54.5q20-34.5 20-75.5t-20-75.5Q260 46 225.5 26T150 6zm0 262q-31 0-56.5-15t-41-40.5Q37 187 37.5 156T53 99.5q15-25.5 40.5-41t56.5-15q31 .5 56.5 15.5t41 40.5q15.5 25.5 15 56.5T247 212.5Q232 238 206.5 253T150 269v-1zm-30-100l-35 47q-11-12-16.5-27.5T63 156v-11l57 23zm11-36l-55-22q9-15 23.5-25.5T131 71v61zm93-22l-55 22V71q17 3 31.5 13.5T224 110zm14 46q-1 16-6.5 31.5T215 215l-35-47 57-23q0 5 1 11zm-88 35l34 45q-16 8-34 8t-34-8l34-45z"/></svg>