<svg viewBox="0 0 300 310" xmlns="http://www.w3.org/2000/svg"><path d="M138 68H42q-17 1-29.5 13T0 111v195h238V168H138V68zM38 111q0-2 1-3.5t3-1.5h58v62H84q4-11 4-18.5t-5.5-13Q77 131 69 131t-13.5 5.5q-5.5 5.5-5.5 13t4 19.5H38v-58zm62 157H38v-62h62v16q-12-3-19.5-3T68 224q-5 5-5 13t5 13.5q5 5.5 12.5 5.5t19.5-4v17-1zm54-62q-4 12-4 19.5t5.5 12.5q5.5 5 13.5 5t13.5-5q5.5-5 5.5-12.5t-4-19.5h16v62h-62v-62h16zm146-88h-41q4 12 3.5 19.5t-5.5 13q-5 5.5-13 5.5t-13.5-5.5q-5.5-5.5-5.5-13t4-19.5h-41V77q11 4 18.5 4t13-5.5Q225 70 225 62t-5.5-13.5q-5.5-5.5-13-5.5T187 47V6h76q15 0 26 11t11 27v74z"/></svg>