<svg viewBox="0 0 300 310" xmlns="http://www.w3.org/2000/svg"><path d="M188 81q0-20-10.5-37.5T150 16Q133 6 112.5 6T75 16Q58 26 47.5 43.5T37.5 81q.5 20 10.5 37.5T75 146q17 10 37.5 10t37.5-10q17-10 27.5-27.5T188 81zm-75 37q-16 0-27-10.5T75 81q0-16 11-27t26.5-11Q128 43 139 54t11 27q0 16-11 26.5T113 118zm162 113q0-5-1-10l19-11-19-33-19 11q-8-7-18-10v-22h-37v22q-10 3-18 10l-19-11-19 33 19 11v20l-19 11 19 33 19-11q8 7 18 10v22h38v-22q9-3 17-10l19 11 19-33-19-11q1-5 1-10zm-56 19q-8 0-13.5-5.5T200 231q0-8 5.5-13.5T219 212q8 0 13 5.5t5 13.5q0 8-5 13.5t-13 5.5zM69 181h44v37H69q-13 1-22 10t-9 22v56H0v-56q0-19 9.5-34.5t25-25Q50 181 69 181z"/></svg>