<svg viewBox="0 0 300.0022 310" xmlns="http://www.w3.org/2000/svg"><path d="M259.002 81q5-14 3-29-3-17-16-29.5t-30-15.5q-12-2-24.5 1t-21.5 11q-12 10-26 17-17 7-34 7-29 0-53 13.5t-39.5 36Q2.002 115 .002 142q-1 23 7 45t24 38q12 11 26 19l8 62h37l-6-51 10 1 13-1 6 51h39l-9-62q26-14 42-40t16-58v-28q11-1 21-7 30 25 45 69 7 22 8 38h13q0-44-15-86-10-28-26-51zm-38-7q-6 7-15 7-11 0-21 9.5t-10 21.5v35q0 18-8.5 34t-23 26q-14.5 10-32.5 11-15 1-29-4t-24.5-15.5q-10.5-10.5-15.5-24.5t-4-29q1-18 11-32.5t26-23q16-8.5 34-8.5 22 0 44-8.5t41-24.5q7-6 16-4 5 1 9.5 5t5.5 10q1 9-4 15z"/></svg>