<svg viewBox="0 0 300 310" xmlns="http://www.w3.org/2000/svg"><path d="M300 112q0-17-10-35.5T264 46q-19-14-42-15-24-8-53-14Q119 6 75 6v37q37 0 79 9-17 8-33 11-21 5-46 5v38q40 0 75-12v6q0 9 3 19H94q-26-1-46 14-3-7-9.5-10.5T25 119q-10-1-17.5 6.5t-7.5 17Q0 152 5.5 159t13.5 9q-6 15-6 32 0 22 10.5 40.5T53 270q19 11 41 11 10 0 17.5 7.5T119 306h131v-38h-41l43-104q21-5 34.5-18.5T300 112zm-37 0q0 9-16 14-12 5-28 5-13 0-22.5-9t-9-22q.5-13 9.5-22t21.5-9.5q12.5-.5 22.5 7t15.5 18Q262 104 262 112h1zM94 243q-18 0-31-12.5T50 200q0-18 13-31t31-13h85q14 10 31 12l-36 86q-3-42-29-60-18-13-45-13v37q17 0 25 8 11 10 12 35-8-8-19.5-13T94 243z"/></svg>