<svg viewBox="0 0 300 310" xmlns="http://www.w3.org/2000/svg"><path d="M150 156q20 0 37.5-10t27.5-27.5Q225 101 225 81t-10-37.5Q205 26 187.5 16T150 6q-20 0-37.5 10T85 43.5Q75 61 75 81t10 37.5Q95 136 112.5 146t37.5 10zm0-113q16 0 26.5 11t11 27q.5 16-10.5 26.5T150 118q-16 0-26.5-10.5T113 81q0-16 10.5-26.5T150 44v-1zm75 263h-37q0-16-11-27t-27-11q-16 0-26.5 11T113 306H75q0-20 10-37.5t27.5-27.5q17.5-10 37.5-10t37.5 10q17.5 10 27.5 27.5t10 37.5zm60 0h-39l-22-77q-3-10-11.5-16.5T194 206h-88q-10 0-18.5 6.5T76 229l-22 77H15l25-88q7-22 25.5-35.5T106 169h88q22-1 40.5 13t25.5 36l25 88z"/></svg>