<svg viewBox="0 0 300 310" xmlns="http://www.w3.org/2000/svg"><path d="M275 125q0 29-13.5 56.5T225 225q-16 11-29 38-9 18-27 30.5T127 306q-26 0-46-15-31-23-31-60h38q-1 18 15 30 10 7 23 7.5t22.5-6Q158 256 163 246q17-35 40-51 16-11 25.5-30.5T238 125q0-18-7.5-33.5T210 64q-13-12-29.5-17T147 44q-27 3-47 22.5T76 113q-1 9-1 15v28H38v-27q-1-9 1-21 3-26 18-48t37-36q22-14 48-17t50 4.5Q216 19 235 36t29.5 40Q275 99 275 125zm-62 6v-6q0-23-16.5-39.5t-40-16.5q-23.5 0-40 16.5T100 125v43h25v38q16 0 26.5-11t11.5-26q-1-13-7.5-22.5T138 133v-8q0-8 5-13.5t13-5.5q8 0 13.5 5.5T175 125v6h38z"/></svg>