<svg viewBox="0 0 300 310" xmlns="http://www.w3.org/2000/svg"><path d="M268 64l31-31-26-26-31 31q-20-15-43.5-23.5T150 6q-25 0-48.5 8.5T58 38L27 7 1 33l31 31Q17 84 8.5 107.5T0 156q0 41 20 75.5T74.5 286q34.5 20 75.5 20t75.5-20q34.5-20 54.5-54.5t20-75.5q0-25-8.5-48.5T268 64zm-93-18v28q-12-6-25-5.5T125 74V46q13-3 25-3t25 3zm0 85q0 10-7.5 17.5T150 156q-10 0-17.5-7.5T125 131q0-10 7.5-17.5T150 106q10 0 17.5 7.5T175 131zm-25 137q-31 0-56.5-15T53 212.5Q38 187 37.5 157t13-54.5Q64 78 88 63v68q0 17 8 31.5t22.5 22.5q14.5 8 31.5 8.5t31.5-8q14.5-8.5 22.5-23t8-31.5V63q24 15 37.5 39.5T263 157q0 30-15.5 55.5t-41 40.5Q181 268 150 268z"/></svg>