<svg viewBox="0 0 300 310" xmlns="http://www.w3.org/2000/svg"><path d="M269 6h-42q-18 0-31 13l-87 87q-18-1-36 4-23 6-40.5 22t-26 37.5Q-2 191 .5 215T15 259q12 20 32 32t44 14.5q24 2.5 45.5-6t37.5-26q16-17.5 22-40.5 5-18 4-37l13-14v-26h37v-38h25l12-9q13-12 13-30V37q0-13-9-22t-22-9zm-6 73q-1 1-1 2h-49v37h-38v50l-17 17q4 10 4 21 1 17-7.5 31.5t-23 23q-14.5 8.5-31.5 8T68.5 260q-14.5-8-23-22.5T37 206q0-17 8.5-31.5t23-23Q83 143 100 143q11 1 21 4L223 45l4-2h36v36zM63 225q0 8 5 13t13 5q8 0 13.5-5t5.5-13q0-8-5.5-13.5T81 206q-8 0-13.5 5.5T63 225z"/></svg>