<svg viewBox="0 0 300 310" xmlns="http://www.w3.org/2000/svg"><path d="M228 194q-14 0-27 5t-24 16l-37 37q-16 17-40 16H45q-5 0-7-4.5t2-8.5l16-16q14 7 30 4t27-15l60-60h2q15 0 29-5.5t25-16.5l11-11q12-11 17.5-26t5-31q-.5-16-7.5-30.5T235 23q-15-12-34-15.5T163.5 10Q145 16 131 30l-7 7q-12 12-18 27t-6 31l-60 60q-11 11-14 27t3 30l-16 17Q3 238 .5 251.5T3 278q5 13 16.5 20.5T45 306h55q19 0 36-7t30-20l38-38q7-7 17.5-9t20 2q9.5 4 15 12.5T262 265v41h38v-41q0-19-9.5-35.5t-26-26Q248 194 228 194zM150 63l7-7q13-12 31-13 13 0 23 9 13 11 14 27.5T214 108l-11 12q-12 12-29 11t-27.5-13.5q-10.5-12.5-9-28T150 63zM67 182l46-46 4 5q7 9 16 15l-46 46q-4 4-10 4t-10-4q-4-4-4-10t4-10z"/></svg>