<svg viewBox="0 0 300 310" xmlns="http://www.w3.org/2000/svg"><path d="M280 181l20-15-20-15q-14-11-27-20 7-3 11-7 12-12 21-47 6-20 10-45l4-25-26 4q-24 4-45 10-34 9-46 21-4 4-8 11-9-14-19-27L140 7l-15 19q-20 26-31 48L27 6 1 33l272 273 27-27-68-68q22-11 48-30zm-77 2l-27-27 9-5q10-4 14.5-4t14.5 5q10 5 22 13-21 14-33 18zm6-115q3-3 15-7t29-8q-4 17-8 29t-7 15q-3 3-14.5 6t-25.5 5q2-15 5-26t6-14zm-69 2q8 12 13.5 22t5.5 14q0 4-5 14l-4 9-27-27q3-11 17-32zm25 163l27 27q-34 21-52 21-20 0-70-19l-43 43-27-26 44-44q-19-49-19-69 0-19 21-52l27 27q-11 19-11 25 0 9 11 40l18-18q8-11 8-21l40 40q-10 0-21 7l-19 19q31 11 41 11 6-1 25-11z"/></svg>