<svg viewBox="0 0 300 310" xmlns="http://www.w3.org/2000/svg"><path d="M300 117l-36-34q-13-15-33-15h-81l-25-18V6q-12 0-22 7T90 31h-7q-5 0-10 1-3-11-13-18.5T38 6v52L13 87Q0 101 0 120.5T14 154q10 10 24 13t30-3l7 38v91h75v-50h50v50h75V144l25-27zm-228 4q-6 4-13 6.5t-9 3.5q-6 0-9.5-3t-3-7.5Q38 116 41 113l33-40q3-4 8-4.5t9 2.5l47 35h93q3 0 5 2t2 4v81H111l-17-85-22 13zm116 29q-1-8 4.5-13.5T206 131q8 0 13.5 5.5T225 150q0 8-5.5 13.5T206 169q-8 0-13.5-5.5T187 150h1zm-63 0q0-8 5.5-13.5T144 131q8 0 13.5 5.5T163 150q0 8-5.5 13.5T144 169q-8 0-13.5-5.5T125 150z"/></svg>