<svg viewBox="0 0 300 310" xmlns="http://www.w3.org/2000/svg"><path d="M269 243q-2 0-5 1l-13-14q7-11 13-23l25 7 10-36-25-7q1-7 1-15t-1-15l25-7-10-36-25 7q-6-12-13-23l13-14h5q13 0 22-9t9-22q0-13-9-22t-22-9q-13 0-22.5 9T237 37l1 5-14 13q-11-7-23-13l7-25-36-10-7 25q-7-1-15-1t-15 1l-7-25-36 10 7 25q-12 6-23 13L62 42l1-5q0-13-9.5-22T31 6Q18 6 9 15T0 37q0 13 9 22.5T31 69l5-1 13 14q-7 11-13 23l-25-7-10 36 25 7q-1 7-1 15t1 15l-25 7 10 36 25-7q6 12 13 23l-13 14h-5q-13 0-22 9t-9 22q0 13 9 22t22 9q13 0 22-9t9-22v-5l14-13q11 7 23 13l-7 25 36 10 7-25q7 1 15 1t15-1l7 25 36-10-7-25q12-6 23-13l14 13-1 5q0 13 9.5 22t22.5 9q13 0 22-9t9-22q0-13-9-22t-22-9v-1zM63 156q-1-24 11-44t32-31.5Q126 69 150 69t44 11.5Q214 92 225.5 112t11.5 44q0 24-11.5 44T194 232q-20 12-44 12t-44-12q-20-12-32-32t-11-44zm106 44q0 8-5.5 13.5t-13.5 5q-8-.5-13.5-5.5t-5.5-13q0-8 5.5-13.5T150 181q8 0 13.5 5.5T169 200zm44-44q-1 8-6 13.5t-13 5.5q-8 0-13.5-5.5T175 156q0-8 5.5-13.5T194 137q8 0 13.5 5.5T213 156zm-44-44q0 8-5.5 13.5T150 131q-8 0-13.5-5.5T131 112q0-8 5.5-13t13.5-5q8 0 13.5 5t5.5 13zm-44 44q0 8-5.5 13.5T106 175q-8 0-13.5-5.5t-5-13.5q.5-8 5.5-13.5t13-5.5q8 0 13.5 5.5T125 156z"/></svg>