<svg viewBox="0 0 300 310" xmlns="http://www.w3.org/2000/svg"><path d="M290 16Q279 6 265 6h-92q-15 0-25.5 10.5T138 41v106q0 9 6 15t15 6q5 1 9-1l37-24h95V41q0-14-10-25zm-27 90h-69l-19 12V44l88-1v63zM156 243q-8 0-13.5-5t-5.5-13q0-8 5.5-13.5T156 206q8 0 13.5 5.5T175 225q0 8-5.5 13t-13.5 5zm-62-37q8 0 13.5 5.5t5 13.5q-.5 8-5.5 13t-13 5q-8 0-13.5-5T75 225q0-8 5.5-13.5T94 206zm131-13h25v63h-25v50H25v-50H0v-63h25v-6q0-18 13-31t31-13h44v4q0 20 15 34H69q-3 0-4.5 2t-1.5 4v81h125v-81q0-1-1-2l34-17q4 10 4 19v6z"/></svg>