<svg viewBox="0 0 300 310" xmlns="http://www.w3.org/2000/svg"><path d="M150 6q-41 0-75.5 20T20 80.5Q0 115 0 156t20 75.5Q40 266 74.5 286t75.5 20q41 0 75.5-20t54.5-54.5q20-34.5 20-75.5t-20-75.5Q260 46 225.5 26T150 6zm0 262q-31 0-56.5-15T53 212.5Q38 187 38 156t15-56.5Q68 74 93.5 59T150 43.5q31-.5 56.5 15t41 41Q263 125 263 156t-15.5 56.5Q232 238 206.5 253T150 268zm48-131q2-7 2-14 0-19-13.5-32T155 78h-36q-13 0-22 9t-9 22v91q0 13 9 22t22 9h56q21 0 35.5-14.5T225 181q0-14-7.5-26T198 137zm-73-22h30q3 0 5.5 2.5t2.5 5.5q0 3-2.5 5.5T155 131h-30v-16zm50 78h-50v-25h50q5 0 9 4t4 9q0 5-4 8.5t-9 3.5z"/></svg>