<svg viewBox="0 0 300 310" xmlns="http://www.w3.org/2000/svg"><path d="M184 306q-19 0-34-13-15 13-34 13-22 0-38-16.5T62 249l1-6-6 1q-24 0-40.5-16T0 190q0-19 13-34-13-15-13-34 0-22 16.5-37.5T57 69h6l-1-6q1-24 16.5-40.5T116 6q19 0 34 13 15-13 34-13 22 0 38 16.5T238 63l-1 6h6q24 0 40.5 15.5T300 122q0 19-13 34 13 15 13 34 0 22-16.5 38T243 244l-6-1 1 6q0 24-16 40.5T184 306zm-34-74l23 30q5 6 11.5 6t11-5.5q4.5-5.5 4.5-14t-8-25.5l-23-48 48 23q17 8 25.5 8t14.5-4.5q6-4.5 6-11t-7-11.5l-30-23 30-23q7-5 7-11.5t-6-11q-6-4.5-14.5-4.5t-25.5 8l-48 23 23-48q8-17 8-25.5t-4.5-14q-4.5-5.5-11-6T173 50l-23 30-23-30q-5-6-11.5-6t-11 5.5q-4.5 5.5-4.5 14t8 25.5l23 48-48-23q-17-8-25.5-8T43 110.5q-6 4.5-5.5 11T44 133l30 23-30 23q-6 5-6 11.5t5.5 11q5.5 4.5 14 4.5t25.5-8l48-23-23 48q-8 17-8 25.5t4.5 14.5q4.5 6 11 6t11.5-7l23-30z"/></svg>