<svg viewBox="0 0 300 310" xmlns="http://www.w3.org/2000/svg"><path d="M213 287q0 8-5.5 13.5T194 306q-8 0-13.5-5.5T175 287q0-8 5.5-13t13.5-5.5q8-.5 13.5 5T213 287zm-107-19q-8 0-13.5 5.5T87 287q0 8 5.5 13.5T106 306q8 0 13.5-5.5T125 287q0-8-5.5-13.5T106 269v-1zm44-43q-8 0-13.5 5.5t-5.5 13q0 7.5 5.5 13T150 262q8 0 13.5-5.5t5.5-13q0-7.5-5.5-13T150 225zm113-119q0 8 5 13.5t13 5.5q8 0 13.5-5.5T300 106q0-8-5.5-13.5T281 87q-8 0-13 5.5t-5 13.5zm18 75q-8 0-13.5 5.5t-5 13.5q.5 8 5.5 13.5t13 5.5q8 0 13.5-5.5T300 200q0-8-5.5-13.5T281 181zm-175 19q-12-12-16.5-28t0-32q4.5-16 16.5-28t28-16.5q16-4.5 32 0t28 16.5l13 13 62-62-26-26-37 36q-17-11-37-15V6h-38v52q-20 4-37 15L57 37 31 63l36 37q-11 17-15 37H0v38h52q4 20 15 37l-36 37 26 26 62-62-13-13zm175 68q-8 0-13 5.5t-5 13.5q0 8 5 13.5t13 5.5q8 0 13.5-5.5T300 287q0-8-5.5-13.5T281 268zm-43-131q-8 0-13.5 5.5T219 156q0 8 5.5 13.5t13 5.5q7.5 0 13-5.5T256 156q0-8-5.5-13.5T238 137zm0 88q-8 0-13.5 5.5t-5.5 13q0 7.5 5.5 13t13 5.5q7.5 0 13-5.5t5.5-13q0-7.5-5.5-13T238 225zm-44-44q-8 0-13.5 5.5T175 200q0 8 5.5 13t13.5 5q8 0 13.5-5t5.5-13q0-8-5.5-13.5T194 181z"/></svg>