<svg viewBox="0 0 300 310" xmlns="http://www.w3.org/2000/svg"><path d="M275 143V81h-19q-12-33-41-54T150 6q-36 0-65 21T44 81H25v62h15q7 30 28 52-19 5-31 20t-12 35v56h38v-56q-1-8 4.5-13.5T81 231h138q8 0 13 5.5t5 13.5v56h38v-56q0-20-12-35t-31-20q21-22 28-52h15zM150 43q20 1 37.5 11T215 81q10 17 10 37.5T215 156q-10 17-27.5 27T150 193.5q-20 .5-37.5-10T85 156q-10-17-10-37.5T85 81q10-17 27.5-27T150 44v-1zm63 225v38H88v-38q0-5 3.5-8.5t8.5-3.5h100q5 0 8.5 3.5t3.5 8.5h1zM88 106q-1-4 3-8.5t10-4.5h99q6 0 9.5 4.5t3.5 8.5q0 17-8.5 31.5t-23 22.5q-14.5 8-31.5 8t-31.5-8Q104 152 96 137.5T88 106z"/></svg>