<svg viewBox="0 0 300 310" xmlns="http://www.w3.org/2000/svg"><path d="M150 6q-41 0-75.5 20T20 80.5Q0 115 0 156q2 57 33 95 29 35 73 47.5t88 0q44-12.5 73-47.5 31-38 33-95 0-41-20-75.5T225.5 26Q191 6 150 6zm0 262q-31 0-56.5-15T53 212.5Q38 187 38 156q1-43 25-72 21-26 54-35t66 0q33 9 54 35 24 29 26 72-1 31-16 56.5T206.5 253Q181 268 150 268zm31-56q0 13-9 22t-22 9q-13 0-22-9t-9-22q0-13 9-22t22-9q13 0 22 9t9 22zm46-81l18 18-27 27-18-18-18 18-27-27 18-18-18-18 27-27 18 18 18-18 27 27-18 18zm-109 45l-18-18-18 18-27-27 18-18-18-18 27-27 18 18 18-18 27 27-18 18 18 18-27 27z"/></svg>