<svg viewBox="0 0 300 310" xmlns="http://www.w3.org/2000/svg"><path d="M200 187v6h-37v-6q0-2-2-4t-5-2h-12q-3 0-4.5 2t-1.5 4q0 6 5 9l28 11q13 5 21 16.5t8 26q0 14.5-9 26T169 291v15h-38v-15q-13-4-22-15.5t-9-25.5v-6h38v6q-1 2 1 4t5 2h12q3 0 5-2t2-4q-1-6-6-9l-28-11q-13-5-21-16.5t-8-26q0-14.5 9-26t22-15.5v-15h38v15q13 4 22 15.5t9 25.5zm-69-81h38V56h31l-39-45q-5-5-11-5t-10 5l-40 45h31v50zm169 50l-39-45q-5-5-11-5t-10 5l-40 45h31v150h38V156h31zm-200-37L61 73q-5-4-11-4t-10 4L0 119h31v187h38V119h31z"/></svg>