<svg viewBox="0 0 300 310" xmlns="http://www.w3.org/2000/svg"><path d="M88 218v-37q60 0 90 46l-31 21q-13-19-33-26-11-4-27-3l1-1zm25-100q0-10-7.5-17.5t-18-7.5Q77 93 70 100.5t-7 18q0 10.5 7 17.5t17.5 7q10.5 0 18-7t7.5-18zm125 19v169h-38V190q-9 4-19 3-23 0-39.5-16T125 137.5q0-23.5 16.5-40t40-16.5q23.5 0 40 16.5T238 137zm-38 0q0-8-5.5-13.5T181 118q-8 0-13 5.5t-5 13.5q0 8 5 13.5t13 5.5q8 0 13.5-5.5T200 137zm100 19q0-41-20-75.5T225.5 26Q191 6 150 6T74.5 26Q40 46 20 80.5T0 156q0 41 20 75.5T74.5 286q34.5 20 75.5 20 12 0 25-2v-38q-13 2-25 2-31 0-56.5-15T53 212.5Q38 187 37.5 156t15-56.5q15.5-25.5 41-41T150 43q31 0 56.5 15.5t41 41Q263 125 262 156v99q18-20 28-45.5t10-53.5z"/></svg>