<svg viewBox="0 0 300 310" xmlns="http://www.w3.org/2000/svg"><path d="M300 93q0-17-6.5-33T275 31.5q-12-12.5-28.5-19T213 6v49q-24-12-49.5-11.5t-48 10.5Q93 64 75.5 81.5t-27.5 40q-10 22.5-10.5 48T49 219l-49-1q0 18 6.5 34.5T25 281q12 12 28.5 18.5T87 306v-49q24 12 49.5 11.5t48-10.5q22.5-10 40-27.5t27.5-40q10-22.5 10.5-48T251 93h49zM198 204q-12 12-27.5 19t-33.5 8q-24 1-43-13l-6-6q-14-19-13-44 1-17 8-32.5t19-27.5q12-12 27.5-19t33.5-8q24-1 43 13l6 6q14 19 13 44-1 17-8 32.5T198 204zm-49-41l27 26q-13 13-32 16l-7 1q-16 0-27-11l26-26v-1q8 1 13-5z"/></svg>