<svg viewBox="0 0 300 310" xmlns="http://www.w3.org/2000/svg"><path d="M150 6q-42 0-76.5 11.5T19.5 49Q0 69 0 93v125q0 25 19.5 45t54 31.5Q108 306 150 306t76.5-11.5q34.5-11.5 54-31.5t19.5-45V93q0-24-19.5-44t-54-31.5Q192 6 150 6zm0 37q31 0 57 7.5T248 70q15 12 15 23.5T248 117q-15 12-41 19.5t-57 7q-31-.5-57-7.5t-40.5-19Q38 105 38 93.5T52.5 70Q67 58 93 50.5t57-7.5zm0 225q-31 0-57-7t-41-19q-15-12-14-24v-65q20 13 49 20.5t63 7.5q34 0 63-7.5t49-20.5v65q1 12-14 24t-41 19q-26 7-57 7zM71 87q12-7 30-12 23-7 49-7t49 7q18 5 30 12 3 2 3 6.5t-3 6.5q-12 7-30 12-23 7-49 7t-49-7q-18-5-30-12-3-2-3-6.5t3-6.5z"/></svg>