<svg viewBox="0 0 300 310" xmlns="http://www.w3.org/2000/svg"><path d="M51 268h21q-2 7-3 14l-3 24H25l-5-12q-5-13-10-30-10-34-10-58 0-28 13-53l5-10h99q-13 17-18 38H42q-4 12-5 25 1 24 14 62zm124-150q-8-8-12-24.5T161 64q2-8 0-17-2-15-12.5-26T123 7q-5-1-10.5-1T102 7q-15 3-25.5 14T63 47q-1 9 1 17 2 13-2 29.5T50 118h125zm124 188H91l3-21q1-8 7-17 4-5 12-14 6-6 8-15t0-21q-2-12 0-24 4-23 20-40t38-21q16-4 32 0 22 4 38.5 21t19.5 40q2 12 0 24t0 21q2 9 8 15 8 9 12 14 7 9 8 17l2 21zm-58-38q-14-24-9-55 1-7 0-13-2-11-10-19.5T203 169q-8-1-16 0-11 3-19 11.5T158 200q-1 6 0 13 6 31-9 56h92v-1z"/></svg>