<svg viewBox="0 0 300 310" xmlns="http://www.w3.org/2000/svg"><path d="M150 6q-41 0-75.5 20T20 80.5Q0 115 0 156t20 75.5Q40 266 74.5 286t75.5 20q41 0 75.5-20t54.5-54.5q20-34.5 20-75.5t-20-75.5Q260 46 225.5 26T150 6zm0 262q-31 0-56.5-15T53 212.5Q38 187 37.5 156t15-56.5q15.5-25.5 41-41T150 43q31 0 56.5 15.5t41 41Q263 125 263 156t-15.5 56.5Q232 238 206.5 253T150 268zm63-125l-1 31q1 13-5 25.5T190 220q-17 14-40 14-9 0-18-2-20-6-32-22t-12-37v-34q0-12 4.5-23.5t14-20q9.5-8.5 21-13.5t25.5-4.5q14 .5 27.5 7.5t21.5 19l-30 22q-8-10-21-11-11 0-18.5 7.5T125 139v34q0 8 5 14t12 8q7 2 13.5 1t11.5-5q5-4 7-10h-24v-38h63z"/></svg>