<svg viewBox="0 0 300.0018 310" xmlns="http://www.w3.org/2000/svg"><path d="M300.002 50v256h-189l-45-42-57-50q-8-7-9-17.5t6-18.5q7-8 17.5-9t18.5 5l33 29V50q0-9 6.5-14.5t14.5-4.5q8 1 12 7t4 13v205l14 12h137V50q0-8 5-13.5t13-5.5q8 0 13.5 5.5t5.5 13.5zm-125-25q0-8-5.5-13.5t-13.5-5.5q-8 0-13.5 5.5t-5.5 13.5v118h38V25zm63 0q0-8-5.5-13.5t-13.5-5.5q-8 0-13.5 5.5t-5.5 13.5v118h38V25zm-88 162q0 8 5.5 13.5t13.5 5.5q8 0 13.5-5.5t5-13.5q-.5-8-5.5-13.5t-13-5q-8 .5-13.5 5.5t-5.5 13zm63 0q-1 8 4.5 13.5t13.5 5.5q8 0 13.5-5.5t5.5-13.5q0-8-5.5-13.5t-13.5-5q-8 .5-13.5 5.5t-5.5 13h1zm-7 69q8 0 13.5-5.5t5.5-13.5q0-8-5.5-13.5t-13.5-5.5q-8 0-13.5 5.5t-5.5 13.5q0 8 5.5 13.5t13.5 5.5zm-62 0q8 0 13.5-5.5t5.5-13.5q0-8-5.5-13.5t-13.5-5.5q-8 0-13.5 5.5t-5.5 13.5q0 8 5.5 13.5t13.5 5.5z"/></svg>