<svg viewBox="0 0 300 310" xmlns="http://www.w3.org/2000/svg"><path d="M81 68q8 0 13.5 5.5T100 87q0 8-5.5 13.5T81 106q-8 0-13-5.5T63 87q0-8 5-13.5T81 68zm63 38q8 0 13.5-5.5T163 87q0-8-5.5-13.5T144 68q-8 0-13.5 5.5T125 87q0 8 5.5 13.5T144 106zM256 6H44Q26 6 13 19T0 50v256h103q-13-16-15-38H38V50q0-3 1.5-5t4.5-2h212q3 1 5 2.5t2 4.5v107q7 9 13 18 13 6 24 17V50q0-18-13-31T256 6zm2 190q-7-18-22.5-29T200 156q-17 0-31.5 8.5t-22.5 23q-8 14.5-8 30.5v5q-12 5-19 15.5t-7 23.5q1 18 13.5 31t30.5 13h88q23 0 39.5-16.5T300 250q0-20-12-35t-30-19z"/></svg>