<svg viewBox="0 0 300 310" xmlns="http://www.w3.org/2000/svg"><path d="M300 81h-44q13 6 26 15 7 5 11 8l-24 29q-10-9-25-16-21-11-38-11-10 0-24 6-11 5-21 11t-11 8q0-10 3.5-21.5T164 89q-38-11-63-44l-1-1 20 3q24 4 45 7-8-11-11.5-23.5T150 6q0 3 12.5 13T190 36q-2-12-3-30 1 2 8 10t15 15h15q7 0 12.5 3.5T247 43h53v38zm-12 156q0-22-11-42-9-16-25-32-10-9-29-23l-12-9h-5q-6 0-16.5 5T171 146q8 9 29 24 25 19 34 29 16 18 16 38 0 13-14 21-11 6-30 9 6-10 6-24 0-17-13-33-8-9-29-24-23-16-31-26-14-16-14-35 0-10 10-21-17-8-32-21-15 19-15 40l-38 27 43 5q2 7 6 14l-24 24h44q6 6 13 12l-13 26 37-8q19 13 19 20v3q-4 4-31 4-23 0-48-13t-42-33q-17-20-17-42-5-47 9-87l16 31 2-5q6-28 8-43 4-27 3-52-18 7-37 23.5T0 68h26Q0 112 0 162q0 36 22.5 69.5t59 54Q118 306 156 306h25q50 0 78.5-18t27.5-51h1z"/></svg>