<svg viewBox="0 0 300 310" xmlns="http://www.w3.org/2000/svg"><path d="M150 6q-34 0-62.5 17T42 68.5Q25 97 25 131v175h32q2-6 7-9t11-3.5q6-.5 11 3t7 9.5h39q2-6 7-9t11-3.5q6-.5 11 3t7 9.5h39q2-6 7-9t11-3.5q6-.5 11 3t7 9.5h32V131q0-34-17-62.5T212.5 23Q184 6 150 6zm38 265q-17-15-38-15t-37 15q-17-15-38-15-6 0-13 1V131q1-24 12.5-44T106 55q20-12 44-12t44 12q20 12 32 32t12 44v126q-7-1-13-1-21 0-37 15zm-63-134q0 8-5.5 13.5T106 156q-8 0-13.5-5.5t-5-13.5q.5-8 5.5-13.5t13-5q8 .5 13.5 5.5t5.5 13zm88 0q-1 8-6 13.5t-13 5.5q-8 0-13.5-5.5T175 137q0-8 5.5-13.5t13.5-5q8 .5 13.5 5.5t5.5 13z"/></svg>