<svg viewBox="0 0 300 310" xmlns="http://www.w3.org/2000/svg"><path d="M188 37q0-13 9-22t22-9q13 0 22 9t9 22q0 13-9 22t-22 9q-13 0-22-9t-9-22zm75 231v38h-38v-38h-12v38h-38v-38h-50v38H88v-38H75v38H38v-38H10l19-149q2-16 14.5-27T72 81h18q17 0 29.5 11t14.5 27l16 130 16-130q2-16 14.5-27T209 81h19q16 0 28.5 11t14.5 27l19 149h-28 1zM53 231h57L97 124q-1-2-2.5-4t-4.5-2H72q-2 0-4 2t-2 4L52 231h1zm137 0h58l-14-107q0-2-2-4t-4-2h-18q-3 0-4.5 2t-2.5 4l-13 107zM81 68q13 0 22.5-9t9.5-22q0-13-9.5-22T81 6q-13 0-22 9t-9 22q0 13 9 22t22 9z"/></svg>