<svg viewBox="0 0 301.0127 310" xmlns="http://www.w3.org/2000/svg"><path d="M40 143H0l35-43L0 56h51V6l44 34 44-35v28q-8 5-15 11L85 80q-29 27-45 64v-1zm250 105l-17 44-23-9-9 23-58-23 9-23-61-24-9 23-59-23 9-23-23-9 17-44q13-33 39-57l39-37q10-8 22-10.5t24 2.5l79 31q11 4 18.5 14.5T296 126l5 53q2 36-11 69zm-161-94q-7-3-14.5.5T105 165q-3 7 0 14.5t10 10.5q8 2 15-1t10-10q3-8 0-15t-11-10zm133 13l-3-38q0-4-4-5l-79-31q-3-2-6 1l-28 26 120 47zm-14 34q-7-3-14.5 0t-9.5 11q-3 7 0 14t10 10q8 3 15 0t10-11q3-7 0-14t-11-10z"/></svg>