<svg viewBox="0 0 300 310" xmlns="http://www.w3.org/2000/svg"><path d="M300 268v38q-21 0-37-15-17 15-38 15t-37-15q-17 15-38 15t-37-15q-17 15-38 15t-38-15q-16 15-37 15v-38q6 0 11-3t7-9h39q2 6 7 9t11 3.5q6 .5 11-3t7-9.5h39q2 6 7 9t11 3q6 0 11-3t7-9h39q2 6 7 9t11 3q6 0 11-3t7-9h39q2 6 7 9t11 3zM285 60l-42-33q-11-8-24.5-8T194 27l-41 33q-8 5-11.5 13.5T138 91v65h37V91q0-1 1-2l41-33q2-1 3 0l42 33v67h38V91q0-9-4-17.5T285 60zm-85 33v38h38V93h-38zm82 88h-41q-11 8-24 11-8 2-23 2-28-1-49-12.5t-33-33Q100 127 100 100q0-16 7-32t19-31l28-31h-29Q93 6 64.5 22.5T19 69Q0 102 0 143v38h38v-38q0-25 8-45t22-33q-6 18-6 35 1 37 17.5 67t46.5 47q30 17 68 17 18 0 29-2 19-4 35-14 6 7 18.5 11.5T300 231v-38q-6 0-11-3t-7-9z"/></svg>