<svg viewBox="0 0 300 310" xmlns="http://www.w3.org/2000/svg"><path d="M200 143q0-20-14.5-35T150 93.5q-21 .5-35.5 15t-14.5 35q0 20.5 14.5 35T150 193q21 0 35.5-14.5T200 143zm38 138v25h-38v-25q0-10-7.5-17.5T175 256h-50q-10 0-17.5 7.5T100 281v25H63v-25q0-17 8-31.5t22.5-23Q108 218 125 218h50q17 0 31.5 8.5t22.5 23q8 14.5 8 31.5h1zm15-93l22 15-20 31-20-16q-23-17-33-20 11-11 17-25t6-29q0-21-10-38t-27.5-27Q170 69 150 69t-37.5 10Q95 89 85 106t-10 38q0 15 6 29t17 25l-53 36-20-31 22-15q-10-21-10-44.5T47 99L25 84l20-31 22 14q27-28 64-34V6h38v27q37 6 64 34l22-14 20 31-22 15q9 21 9 44.5t-9 44.5z"/></svg>