<svg viewBox="0 0 300 310" xmlns="http://www.w3.org/2000/svg"><path d="M239 219q17-18 26.5-40.5T275 131q0-34-17-62.5T212.5 23Q184 6 150 6q-25 0-47.5 9.5T62 42L27 6 1 33l272 273 27-27-61-60zM150 43q24 0 44 12t32 32q12 20 12 44 0 17-7 33t-18 28l-18-18q8-8 13-19.5t5-23.5q0-17-8.5-31.5t-23-22.5Q167 69 150 69q-12 0-23.5 4.5T107 86L89 68q12-11 28-17.5t33-6.5v-1zm-17 70q7-7 17-7t17.5 7.5Q175 121 175 131t-7 17l-35-35zm104 192v1H63q0-19 7.5-36T91 241q-30-16-48-45.5T25 131q0-17 5-34l33 33v1q0 24 11.5 44t31.5 32q20 12 44 12h1l87 86h-1z"/></svg>