<svg viewBox="0 0 300 310" xmlns="http://www.w3.org/2000/svg"><path d="M284 119q-15-14-35-13t-33 16l-31 33q-13-12-31-11H44q-18-1-31 12T0 187v75q0 18 13 31t31 13h140l104-119q13-15 12-35t-16-33zm-24 43l-94 106H44q-3 0-4.5-1.5T38 262v-75q0-2 1.5-4t4.5-2h110q4 0 6 2t2.5 5.5q.5 3.5-1.5 6t-5 2.5l-65 9 5 37 65-9q15-2 25.5-13t13.5-26l43-48q3-3 8-3.5t8 2.5q3 3 3.5 8t-2.5 8zM88 37q-1-12 7-21t20.5-9Q128 7 136 16t8 21q-1-12 7.5-21T172 7q12 0 20.5 9t7.5 21q0 20-28 48-14 14-28 24l-15-11q-16-15-27-28-14-19-14-33z"/></svg>