<svg viewBox="0 0 300.003 310" xmlns="http://www.w3.org/2000/svg"><path d="M265 41q-21-21-48-29.5T161.5 7Q133 11 109 27 96 12 76 7.5t-39 4Q18 20 8 37.5t-7.5 38Q3 96 16.5 111T50 130q-1 33 14 63 2 4-2 8l-46 32Q1 244 0 263q-1 16 11 27l5 5q11 11 27 10.5T71 292l34-49q3-3 7-1 27 13 57 14 8 0 23-2 40-6 69-35 18-18 28-41t11-48q1-25-8-48.5T265 41zM63 93q-11 0-18-7t-7-17.5Q38 58 45 51t17.5-7q10.5 0 18 7T88 68.5Q88 79 80.5 86T63 93zm171 99q-18 18-42 24l-95-95q13-9 20.5-23t7.5-30l-1-5q17-14 38-18t41 2q20 6 36 20 12 12 18 28t5.5 33.5q-.5 17.5-8 34.5T234 192z"/></svg>