<svg viewBox="0 0 300 310" xmlns="http://www.w3.org/2000/svg"><path d="M38 306H0V50q0-18 13-31T44 6h256v37H44q-3 0-4.5 2T38 50v256zm200-19q0-8-5.5-13.5T219 268q-8 0-13.5 5.5T200 287q0 8 5.5 13.5T219 306q8 0 13.5-5.5T238 287zm-138 0q0-8-5.5-13.5T81 268q-8 0-13 5.5T63 287q0 8 5 13.5t13 5.5q8 0 13.5-5.5T100 287zm200 0q0-8-5.5-13.5T281 268q-8 0-13 5.5t-5 13.5q0 8 5 13.5t13 5.5q8 0 13.5-5.5T300 287zm0-62q0-8-5.5-13.5T281 206q-8 0-13 5.5t-5 13.5q0 8 5 13t13 5q8 0 13.5-5t5.5-13zm0-69q0-8-5.5-13.5T281 137q-8 0-13 5.5t-5 13.5q0 8 5 13.5t13 5.5q8 0 13.5-5.5T300 156zm0-69q0-8-5.5-13.5T281 68q-8 0-13 5.5T263 87q0 8 5 13.5t13 5.5q8 0 13.5-5.5T300 87zM169 287q0-8-5.5-13.5T150 268q-8 0-13.5 5.5T131 287q0 8 5.5 13.5T150 306q8 0 13.5-5.5T169 287z"/></svg>