<svg viewBox="0 0 300.0034 310" xmlns="http://www.w3.org/2000/svg"><path d="M150.003 168q-25 1-48 14t-37.5 34.5q-14.5 21.5-14.5 44t12 34.5q12 12 34 12 7 0 14-2 5-2 13.5-5t12.5-4q7-2 14-2t14 2q4 1 12.5 4t13.5 5q7 2 14 2 22 0 34-12t12-34.5q0-22.5-14.5-44t-37.5-35q-23-13.5-48-13.5zm61 100q0 1-1.5 1h-5q-3.5 0-14.5-4t-17-6q-12-3-23-3t-23 3q-6 2-17 6t-14 4q-6 0-7-1t-1-7q0-13 9-25.5t23.5-21q14.5-8.5 29.5-8.5t29.5 8.5q14.5 8.5 24 21t9.5 25.5q0 6-2 7zm89-111q-2 22-12.5 36t-23.5 12.5q-13-1.5-20.5-18t-5.5-38q2-21.5 12-33t23-10.5h1q1-3 1-6 0-10-3-22-2-6-3-10l8 6q10 7 16 15 8 11 7 23-1 8-4 15 5 12 4 30zm-264 49q-13 1-23.5-13t-12.5-36q-1-17 4-30-3-7-4-15-1-12 7-23 6-8 16-15l8-5-3 9q-3 12-3 22 0 3 1 6h1q13-1 23 10.5t12 33q2 21.5-5.5 38t-20.5 18.5zm42-143q-2-6-3-13-1-17 15-32 8-8 16-12l-3 10q-3 11-3 21 0 3 1 7 13-2 23 10t12 33.5q2 21.5-5.5 38t-20 18q-12.5 1.5-23-13T75.003 94q-2-17 3-31zm85 24q2-21 12-33t23-10q1-4 1-7 1-10-3-21l-3-10 9 5q9 7 15 15 8 12 7 24 0 7-3 13 5 14 4 31-2 22-12.5 36.5t-23.5 13q-13-1.5-20.5-18t-5.5-38.5z"/></svg>