<svg viewBox="0 0 300 310" xmlns="http://www.w3.org/2000/svg"><path d="M300 218H63V75q0-18 12.5-31T106 31h150q18 0 31 13t13 31v143zm-200-37h163V75q0-3-2-5t-5-2H106q-2 0-4 2t-2 5v106zm-62 62V107q-16 2-27 14T0 150v131h238v-38H38zm143-87q13 0 22.5-9t9.5-22q0-13-9.5-22.5T181 93q-13 0-22 9.5t-9 22.5q0 13 9 22t22 9zm-43-63q0 6-4 9.5t-9 3.5q-5 0-8.5-3.5t-3.5-9q0-5.5 3.5-9T125 81q5 0 9 3.5t4 8.5zm-13 50q-5 0-8.5 4t-3.5 9q0 5 3.5 8.5t8.5 3.5q5 0 9-3.5t4-8.5q0-5-4-9t-9-4zm113-37q5 0 8.5-3.5t3.5-9q0-5.5-3.5-9t-9-3.5q-5.5 0-9 3.5t-3.5 9q0 5.5 3.5 9t9.5 3.5zm0 37q-6 0-9.5 4t-3.5 9q0 5 3.5 8.5t9 3.5q5.5 0 9-3.5t3.5-8.5q0-5-3.5-9t-8.5-4z"/></svg>