<svg viewBox="0 0 300 310" xmlns="http://www.w3.org/2000/svg"><path d="M188 106h-63V68h63v38zM81 206q-8 0-13 5.5T63 225q0 8 5 13t13 5q8 0 13.5-5t5.5-13q0-8-5.5-13.5T81 206zm0-138q-8 0-13 5.5T63 87q0 8 5 13.5t13 5.5q8 0 13.5-5.5T100 87q0-8-5.5-13T81 68zm0 69q-8 0-13 5.5T63 156q0 8 5 13.5t13 5.5q8 0 13.5-5.5T100 156q0-8-5.5-13.5T81 137zm182 31q-16 1-27 13t-11 29q0-17-11-29t-26.5-12q-15.5 0-26.5 12t-11 29q0 27 37 64 19 19 38 32l12-9q14-11 26-23 16-16 25-31 12-18 12-33 0-17-11-29.5T262 169l1-1zm-138 7h10q8-15 22-23t31-8v-7h-63v38zm24 93H38V50q0-3 1.5-5t4.5-2h162q3 1 5 2.5t2 4.5v99q7 4 12 8 11-9 25-12V50q0-18-13-31T206 6H44Q26 6 13 19T0 50v256h185q-22-19-36-38z"/></svg>