<svg viewBox="0 0 300 310" xmlns="http://www.w3.org/2000/svg"><path d="M150 6q-41 0-75.5 20T20 80.5Q0 115 0 156t20 75.5Q40 266 74.5 286t75.5 20h150V156q0-41-20-75.5T225.5 26Q191 6 150 6zm113 262H150q-31 0-56.5-15T53 212.5Q38 187 38 156t15-56.5Q68 74 93.5 59T150 43.5q31-.5 56.5 15t41 41Q263 125 262 156v112h1zm-94-112q0 8-5.5 13.5T150 175q-8 0-13.5-5.5T131 156q0-8 5.5-13.5T150 137q8 0 13.5 5.5T169 156zm62 0q0 8-5.5 13.5t-13 5.5q-7.5 0-13-5.5T194 156q0-8 5.5-13.5t13-5.5q7.5 0 13 5.5T231 156zm-125 0q0 8-5.5 13.5t-13 5.5q-7.5 0-13-5.5T69 156q0-8 5.5-13.5t13-5.5q7.5 0 13 5.5T106 156z"/></svg>