<svg viewBox="0 0 300 310" xmlns="http://www.w3.org/2000/svg"><path d="M256 68h-6V43q0-15-11-26T212.5 6Q197 6 186 17t-11 27v24h-50V43q0-15-11-26T87.5 6Q72 6 61 17T50 44v24h-6q-18 0-31 13T0 112v125q0 19 9.5 34.5t25 25q15.5 9.5 34 9.5t34.5-9.5q16-9.5 25.5-25T138 237v-69h25v69q0 19 9 34.5t25 25q16 9.5 34.5 9.5t34-9.5q15.5-9.5 25-25T300 237V112q0-18-13-31t-31-13zM69 268q-13 0-22-9t-9-22q0-13 9-22t22-9q13 0 22 9t9 22q0 13-9 22t-22 9zm31-137v45q-15-7-31.5-7T38 176v-64q0-2 1.5-4t4.5-2h212q3 0 5 2t2 4v64q-15-8-31.5-8t-31.5 8v-45H100zm131 137q-13 0-22-9t-9-22q0-13 9-22t22-9q13 0 22.5 9t9.5 22q0 13-9.5 22t-22.5 9z"/></svg>