<svg viewBox="0 0 300 310" xmlns="http://www.w3.org/2000/svg"><path d="M213 168q0 14-8.5 28.5T182 221q-14 10-32 10t-32-10q-14-10-22-25t-8-28h125zm87-12q0-41-20-75.5T225.5 26Q191 6 150 6T74.5 26Q40 46 20 80.5T0 156q0 41 20 75.5T74.5 286q34.5 20 75.5 20t75.5-20q34.5-20 54.5-54.5t20-75.5zm-37 0q0 31-15.5 56.5t-41 40.5Q181 268 150 268t-56.5-15q-25.5-15-41-40.5t-15-56.5Q38 125 53 99.5t40.5-41Q119 43 150 43.5T206.5 59Q232 74 247 99.5t16 56.5zM75 127v16h63v-16q0-14-9-23.5T106.5 94Q93 94 84 103.5T75 127zm88 0v16h62v-16q0-14-9-23.5T193.5 94q-13.5 0-22.5 9.5t-8 23.5z"/></svg>