<svg viewBox="0 0 300 310" xmlns="http://www.w3.org/2000/svg"><path d="M263 268v38h-38v-75h23l-14-107q0-2-2-3.5t-4-1.5h-25q3-10 3-19t-3-18l7-1h18q16 0 28.5 11t14.5 27l19 149h-27zM219 68q13 0 22-9t9-22q0-13-9-22t-22-9q-13 0-22.5 9T187 37q0 13 9.5 22.5T219 69v-1zm-69 63q13 0 22-9t9-22q0-13-9-22.5T150 68q-13 0-22 9.5t-9 22.5q0 13 9 22t22 9zm50 56v69h-6v50h-38v-50h-12v50h-38v-50h-6v-69q0-18 13-31t31-13h12q18 0 31 13t13 31zm-62 31h25v-31q0-2-2-4t-5-2h-12q-3 0-4.5 2t-1.5 4v31zM44 118h53q-3-9-3-18t3-19H44q-18 0-31 13T0 125v106h25v75h38v-75h12v-38H38v-68q0-3 1.5-5t4.5-2zm25-50q13 0 22-9t9-22q0-13-9-22T69 6q-13 0-22 9t-9 22q0 13 9 22.5T69 69v-1z"/></svg>