<svg viewBox="0 0 300 310" xmlns="http://www.w3.org/2000/svg"><path d="M225 212q0-18-9.5-34t-25-25.5Q175 143 156 144H94q-19-1-34.5 8.5t-25 25.5Q25 194 25 212v19H0v37h13v38h37v-38h150v38h38v-38h12v-37h-25v-19zm-37 0v19h-45l-7-28 14-22h6q13 0 22.5 9t9.5 22zm-125 0q0-13 9-22t22-9h6l14 22-7 28H63v-19zm62-81q17 0 31.5-8.5t22.5-23q8-14.5 8.5-31t-8-31q-8.5-14.5-23-23T125 6q-17 0-31.5 8.5T71 37.5q-8 14.5-8.5 31t8 31q8.5 14.5 23 23T125 131zm0-88q10 0 17.5 7.5t7.5 18q0 10.5-7.5 18T125 94q-10 0-17.5-7.5t-7.5-18q0-10.5 7.5-18T125 43zm175 0h-12v75l-32-31-31 31V43h-12V6h87v37z"/></svg>