<svg viewBox="0 0 300 310" xmlns="http://www.w3.org/2000/svg"><path d="M244 6q-24 0-40 16.5T188 62v6h37v-6q0-8 5.5-13.5T244 43h19v133q-14-7-29.5-7.5T204 174q-14 6-24.5 18T165 218h-30q-4-14-14.5-26T96 174q-14-6-29.5-5.5T38 176V43h18q8 0 13.5 5.5T75 62v6h38v-6q-1-23-17-39.5T56 6H0v231q0 26 17 45.5t42.5 23q25.5 3.5 47-10.5t28.5-39h30q7 25 28.5 39t47 10.5q25.5-3.5 42.5-23t17-45.5V6h-56zM69 268q-13 0-22-9t-9-22q0-13 9-22t22-9q13 0 22 9t9 22q0 13-9 22t-22 9zm162 0q-13 0-22-9t-9-22q0-13 9-22t22-9q13 0 22.5 9t9 22q-.5 13-9.5 22t-22 9z"/></svg>