<svg viewBox="0 0 300 310" xmlns="http://www.w3.org/2000/svg"><path d="M138 181H63q-17 0-31.5 8.5t-23 23Q0 227 0 243v63h38v-63q0-10 7-17.5t17-7.5h76q10 1 17 8t7 17v63h38v-63q0-16-8.5-30.5t-23-23Q154 181 138 181zm-38-25q20 0 37.5-10t27.5-27.5Q175 101 175 81t-10-37.5Q155 26 137.5 16T100 6Q80 6 62.5 16T35 43.5Q25 61 25 81t10 37.5Q45 136 62.5 146t37.5 10zm0-113q16 0 26.5 11t11 27q.5 16-10.5 26.5T100 118q-16 0-26.5-10.5T63 81q0-16 10.5-27T100 43zm163 88V93h-38v38h-37v37h37v38h38v-38h37v-37h-37z"/></svg>