<svg viewBox="0 0 300 310" xmlns="http://www.w3.org/2000/svg"><path d="M246 39L150 7 54 39q-13 4-21 15t-8 25v77q0 37 23 70 18 26 48 48 20 15 41 25l12 7 13-6q21-8 41-21 31-21 49-47 23-35 23-76V79q0-14-8-25t-21-15zm-8 117q0 42-35 75-22 20-52 33-31-16-53-37-36-34-36-71V79q1-4 4-5l84-28 84 28q4 1 4 5v77zm-13 19q0 8-5.5 13.5t-12.5 5q-7-.5-12-4t-7-9.5l-14-8q-5 5-11 7v39h-25v-39q-7-2-12-7l-14 8q-2 6-7 9.5t-12 4q-7 .5-12.5-5T75 175q0-8 5.5-13.5T94 156q3 0 7 1l12-7q-1-3-.5-6.5t.5-6.5l-34-20 12-22 35 20q5-5 12-7V89q-7-6-7-14t5.5-13.5Q142 56 150 56t13.5 5.5Q169 67 169 75t-7 14v19q7 2 12 7l35-20 12 22-34 20q1 3 1 6.5t-1 6.5l12 7q4-1 7-1 8 0 13.5 5.5T225 175z"/></svg>