<svg viewBox="0 0 300 310" xmlns="http://www.w3.org/2000/svg"><path d="M63 106V68h75v38H63zm137 0V68h-37v38h37zm100 62v100h-88l-41 35q-4 3-8.5 3t-8.5-3l-41-35H25V168q0-10 7.5-17.5T50 143h225q10 0 17.5 7.5T300 168zm-187 25H85l-7-28h-6l-7 28H38v6l20 12-8 25 5 4 20-16 20 16 5-4-8-25 20-12v-5l1-1zm87 0h-27l-7-28h-6l-8 28h-27v6l21 12-8 25 4 4 21-16 20 16 5-4-9-25 21-12v-6zm88 0h-28l-7-28h-6l-7 28h-27v6l20 12-8 25 5 4 20-16 20 16 5-4-8-25 20-12v-5l1-1zM38 50q0-3 1.5-5t4.5-2h175q2 0 4 2t2 5v68h38V50q0-18-13-31T219 6H44Q26 6 13 19T0 50v112h1q2-15 12-26.5T38 120V50z"/></svg>