<svg viewBox="0 0 300 310" xmlns="http://www.w3.org/2000/svg"><path d="M187 119q0 11-5 19.5T169 152v154h-38V152q-8-5-13.5-13.5T112 119q0-15 11-26t26.5-11Q165 82 176 93t11 26zM84 53Q66 71 59.5 95t0 48.5Q66 168 84 186l26-27q-16-16-16-39.5T110 80L84 53zm132 0l-26 27q16 16 16 39.5T190 159l26 27q18-18 24.5-42.5t0-48.5Q234 71 216 53zM70 40L44 13Q15 42 5 80.5T5 158q10 39 39 67l26-26q-21-22-28.5-51t0-58Q49 61 70 40zm186-27l-27 27q22 21 29.5 50t0 58q-7.5 29-29.5 51l27 26q29-28 39-67t0-77.5Q285 42 256 13z"/></svg>