<svg viewBox="0 0 300 310" xmlns="http://www.w3.org/2000/svg"><path d="M288 267v-42q0-13-9.5-22.5T256 193h-7q1-7 1-12.5t-1-12.5h39v-37h-48q-5-15-8-25h24q13 0 22.5-9t9.5-22V31h-38v37h-33q-11-17-29-27t-38-10q-20 0-36.5 9T86 65L27 6 1 33l272 272 27-26-12-12zM114 92q4-11 14-17.5t22-6.5q12 0 22 7t15 18.5q5 11.5 14 40.5 12 35 12 47 0 4-1 10l-98-98v-1zm58 148l28 28q-24 13-50.5 13T100 267.5Q77 254 64 231H50v38H13v-44q0-13 9-22t22-9h7q-1-8-1-13t1-12H13v-38h50l28 28q-3 15-3 22 0 17 8 31.5t22.5 23Q133 244 150 244q11 0 22-4z"/></svg>