<svg viewBox="0 0 300 310" xmlns="http://www.w3.org/2000/svg"><path d="M300 306H0v-38h300v38zM19 6q-8 0-13.5 5.5T0 25q0 8 5.5 13T19 43q8 0 13.5-5T38 25q0-8-5.5-13.5T19 6zm0 62q-8 0-13.5 5.5T0 87q0 8 5.5 13.5T19 106q8 0 13.5-5.5T38 87q0-8-5.5-13.5T19 68zm262 0q-8 0-13 5.5T263 87q0 8 5 13.5t13 5.5q8 0 13.5-5.5T300 87q0-8-5.5-13.5T281 68zM19 206q-8 0-13.5 5.5T0 225q0 8 5.5 13t13.5 5q8 0 13.5-5t5.5-13q0-8-5.5-13.5T19 206zm262 0q-8 0-13 5.5t-5 13.5q0 8 5 13t13 5q8 0 13.5-5t5.5-13q0-8-5.5-13.5T281 206zm0-200q-8 0-13 5.5T263 25q0 8 5 13t13 5q8 0 13.5-5t5.5-13q0-8-5.5-13.5T281 6zm-62 0q-8 0-13.5 5.5T200 25q0 8 5.5 13t13.5 5q8 0 13.5-5t5.5-13q0-8-5.5-13.5T219 6zm-69 0q-8 0-13.5 5.5T131 25q0 8 5.5 13t13.5 5q8 0 13.5-5t5.5-13q0-8-5.5-13.5T150 6zM81 6q-8 0-13 5.5T63 25q0 8 5 13t13 5q8 0 13.5-5t5.5-13q0-8-5.5-13.5T81 6zM19 137q-8 0-13.5 5.5T0 156q0 8 5.5 13.5T19 175q8 0 13.5-5.5T38 156q0-8-5.5-13.5T19 137zm262 0q-8 0-13 5.5t-5 13.5q0 8 5 13.5t13 5.5q8 0 13.5-5.5T300 156q0-8-5.5-13.5T281 137zm-62 0q-8 0-13.5 5.5T200 156q0 8 5.5 13.5T219 175q8 0 13.5-5.5T238 156q0-8-5.5-13.5T219 137zm-69 0q-8 0-13.5 5.5T131 156q0 8 5.5 13.5T150 175q8 0 13.5-5.5T169 156q0-8-5.5-13.5T150 137zm-69 0q-8 0-13 5.5T63 156q0 8 5 13.5t13 5.5q8 0 13.5-5.5T100 156q0-8-5.5-13.5T81 137zm88 88q0-8-5.5-13.5T150 206q-8 0-13.5 5.5T131 225q0 8 5.5 13t13.5 5q8 0 13.5-5t5.5-13zm0-138q0-8-5.5-13.5T150 68q-8 0-13.5 5.5T131 87q0 8 5.5 13.5T150 106q8 0 13.5-5.5T169 87z"/></svg>