<svg viewBox="0 0 300 310" xmlns="http://www.w3.org/2000/svg"><path d="M218 306q-25 0-46-14t-30.5-37q-9.5-23-4.5-47.5t22-42.5l59-61 58 62q16 16 21.5 37t0 42q-5.5 21-21.5 37-12 11-27 17.5t-31 6.5zm0-148l-32 34q-10 9-12.5 22.5t2.5 26q5 12.5 16.5 20t25 8q13.5.5 25-7T259 241q5-13 2.5-26T249 192l-31-34zM70 175q-21 0-38.5-12t-26-31.5Q-3 112 1.5 91T21 55L70 6l50 49q13 13 18 31t0 36.5q-5 18.5-18 31.5-10 10-23 15.5T70 175zm0-117L47 81q-10 10-9.5 23.5t10 23q9.5 9.5 23 9.5t23.5-9q9-10 9-23.5T93 81L70 58z"/></svg>