<svg viewBox="0 0 300 310" xmlns="http://www.w3.org/2000/svg"><path d="M300 256h-25v25h-37v-25h-63v-38h88v-25h-25v-37h25v-50h-25V68h25V50q-1-3-2.5-5t-4.5-2H44q-3 0-4.5 2T38 50v11Q16 67 0 80V46q0-16 13.5-28T44 6h212q18 0 31 13t13 31v206zm-125-67q18-6 29.5-22t11.5-36q0-17-8.5-31.5t-23-23Q170 68 153 68q-8 0-17 3 18 10 28.5 25.5T175 131v58zm-25-58v128q0 20-21 33.5T75 306q-33 0-54-13.5T0 259V131q0-14 10-25.5t27-18Q54 81 75 81t38 6.5q17 6.5 27 18t10 25.5zm-112 0q1 4 10 8 12 4 27 4t27-4q9-4 10-8-1-4-10-8-12-4-27.5-4.5T48 124q-9 4-10 7zm0 62q1 4 10 8 11 5 27 5t27-5q9-4 11-8v-18q-18 6-38 6t-38-6v18h1zm75 65v-21q-18 6-38 6t-38-6v21q3 3 12 7 12 4 26 3.5t26-3.5q9-4 11-7h1z"/></svg>