<svg viewBox="0 0 300 310" xmlns="http://www.w3.org/2000/svg"><path d="M275 175q-11-10-25-15t-29-4q-15 1-28.5 7.5T169 181q-10 11-15 25t-4 29q1 15 7.5 28.5T175 287q11 10 25 15t29 4q15-1 28.5-7.5T281 281q10-11 15-25t4-29q-1-15-7.5-28.5T275 175zm-50 6q10 0 17.5 7.5T250 206q0 10-7.5 17.5T225 231q-10 0-17.5-7.5T200 206q0-10 7.5-17.5T225 181zm38 83h-1q-13 16-34 17-12 1-22.5-4T188 264v-2q-1-8 4.5-13.5T206 243h38q8 0 13.5 5.5T263 262v2zm37-196v97q-16-18-38-27v-7H38v137h94q9 22 27 38H0V68q0-15 11-26t27-11h37V6h38v25h75V6h37v25h38q15 0 26 11t11 27v-1z"/></svg>