<svg viewBox="0 0 300 310" xmlns="http://www.w3.org/2000/svg"><path d="M128 253q10 9 9.5 22t-9.5 22q-9 9-22 9t-22-9q-9-9-9-22t9-22l22-22 22 22zm50-88l-22-22-22 22q-9 9-9 22t9 22q9 9 22 9t22-9q9-9 9.5-22t-9.5-22zm28 67l-22 21q-9 9-9 22t9 22.5q9 9.5 22 9.5t22-9.5q9-9.5 9.5-22.5t-9.5-22l-22-21zm94-70q0 26-12.5 48T254 246q-3-6-8-11l-18-17q16-8 25-23t10-33q-1-23-17.5-39.5T206 106h-14l-4-13q-6-21-23-35t-39-15q-12 0-24 4.5T81 61q-9 9-14 20.5T62 106q0 13 4 25l6 16-15 8q-9 4-14.5 12.5t-5.5 19q0 10.5 6 19.5t15 15l4 2 14 3-10 9q-9 10-13 24-24-8-38.5-28T0 186q0-17 7-31.5T27 130q-2-12-2-24 0-20 7.5-38.5t22-32.5q14.5-14 33-21.5T126 6q31 1 56.5 18T220 70q23 3 41 16t28.5 33q10.5 20 10.5 43zM0 186zm37 0h1-1z"/></svg>