<svg viewBox="0 0 300 310" xmlns="http://www.w3.org/2000/svg"><path d="M75 131q0-10 7.5-17.5T100 106q10 0 17.5 7.5T125 131q0 10-7.5 17.5T100 156q-10 0-17.5-7.5T75 131zm150 12q0-10-7.5-17.5T200 118q-10 0-17.5 7.5t-7.5 18q0 10.5 7.5 17.5t17.5 7q10 0 17.5-7t7.5-18zm-13 50q-2-4-5-6.5t-7-2.5l-4 1-77 24 6-11q2-5 .5-10t-5-7q-3.5-2-6.5-2-8 0-12 7l-20 40q-8 14-7 29t9 26.5q8 11.5 20 18t25 6.5q9 0 16-2l17-6q6-2 9.5-7t3.5-11v-63l28-9q5-1 7.5-5.5t1.5-9.5zm88-37q0-41-20-75.5T225.5 26Q191 6 150 6T74.5 26Q40 46 20 80.5T0 156q0 33 14 62.5T52 269q-6-25 5-50-20-28-19-63 0-20 6.5-38.5T64 84l12 17q11-7 24-7 10 0 19 4t15 12l19-16q-9-12-23-18.5T101 69q-15 0-28 5 16-14 35.5-22t41.5-8q31 0 56.5 15t41 41q15.5 26 15.5 56 0 33-17.5 59.5T200 257v40q29-10 51.5-31t35.5-49.5q13-28.5 13-60.5z"/></svg>