<svg viewBox="0 0 300 310" xmlns="http://www.w3.org/2000/svg"><path d="M225 118q-20 0-37.5 13T160 165.5q-10 21.5-10 47t10 47q10 21.5 27.5 34T225 306q20 0 37.5-12.5t27.5-34q10-21.5 10-47t-10-47q-10-21.5-27.5-34T225 118zm-11 41q6 20-6 45-11 23-11 45-9-16-9-35.5t7-34.5q7-15 19-20zm22 107q-6-21 6-46 11-22 11-44 10 16 10 35t-7.5 34q-7.5 15-19.5 21zM156 25q-12-11-28-16T95 6.5Q78 9 62 17.5T33 39Q14 57 6 80.5t-5 45Q4 147 19 162q19 19 49 19 6 0 12-1 17-2 33-10.5t29-21.5q19-18 27-41.5t5-45Q171 40 156 25zm-56 19h7q7 0 12 2-10 20-38 30-25 9-42 25 4-19 21-35 18-19 40-22zm-25 99q-11 2-19-2 10-20 38-30 25-9 42-25-4 19-20 35-19 19-41 22z"/></svg>