<svg viewBox="0 0 300 310" xmlns="http://www.w3.org/2000/svg"><path d="M254 200l34 14q-7 18-19 34l-30-23q9-12 15-25zm-60 60l14 34q18-7 34-19l-23-30q-12 9-25 15zM46 199l-35 14q8 18 19 34l30-23q-9-12-14-25zm12 75q15 12 33 20l15-35q-14-5-25-14l-23 29zm0-236l23 29q11-9 25-15L91 18q-18 8-33 20zm2 50L31 65Q19 81 11 99l35 14q5-13 14-25zm-22 68v-15l-37-4q-1 9-1 19t1 19l37-4v-15zm112 112q-8 0-16-1l-5 37q21 4 42 0l-5-37q-8 1-16 1zm0-262q-11 0-21 2l5 37 16-2q24 1 46.5 11T235 82.5q16 18.5 23 42t3 47.5l38 5q1-10 1-21 0-41-20-75.5T225.5 26Q191 6 150 6zm-19 75v59q-6 7-6 17t7 17q7 7 17 7t17-6h47v-38h-44V81h-38z"/></svg>