<svg viewBox="0 0 300 310" xmlns="http://www.w3.org/2000/svg"><path d="M206 37q0-13 9.5-22t22-9q12.5 0 22 9t9.5 22q0 13-9.5 22.5t-22 9q-12.5-.5-22-9.5T206 37zm57 231v38h-50v-38h-37l18-149q2-16 14-27t28-11h3q16 0 28 11t14 27l18 149h-36zm-45-37h39l-13-107q0-3-1.5-4t-3.5-1h-3q-2-1-3.5.5T231 124l-13 107zM50 68q13 0 22-9t9-22q0-13-9-22T50 6q-13 0-22 9t-9 22q0 13 9 22.5T50 69v-1zm50 57v106H75v75H25v-75H0V125q0-18 13-31t31-13h12q18 0 31 13t13 31zm-62 68h25v-68q0-3-2-5t-5-2H44q-3 0-4.5 2t-1.5 5v68zm87 113h38V6h-38v300z"/></svg>