<svg viewBox="0 0 300 310" xmlns="http://www.w3.org/2000/svg"><path d="M201 98l23 29-31 25q-5 4-12.5 4t-13-5.5q-5.5-5.5-5-14T170 123l31-25zm-82 58q8 0 13.5-5.5t5.5-14q0-8.5-8-13.5L99 98l-23 29 31 25q5 4 12 4zm-38 52l25 28q5-4 13-9 16-9 31-9t31 9q8 5 13 9l25-28q-8-7-21-14-24-13-48-13t-48 13q-13 7-21 14zM284 89q16 32 16 67 0 41-20 75.5T225.5 286Q191 306 150 306t-75.5-20Q40 266 20 231.5T0 156q0-35 16-67L0 6l62 28q19-13 41.5-20.5T150 6q24 0 46.5 7.5T238 34l62-28-16 83zm-21 67q-1-31-16-56.5T206.5 59Q181 44 150 43.5t-56.5 15Q68 74 53 99.5T37.5 156q-.5 31 15 56.5t41 41q25.5 15.5 56.5 15t56.5-15.5q25.5-15 40.5-40.5t15-56.5h1z"/></svg>