<svg viewBox="0 0 300 310" xmlns="http://www.w3.org/2000/svg"><path d="M119 68q-24 0-40.5 16.5t-16 40q.5 23.5 16.5 40t39.5 16.5q23.5 0 40-16.5t16.5-40q0-23.5-16.5-39.5T119 68zm0 75q-8 0-13.5-5t-5.5-13q0-8 5.5-13.5T119 106q8 0 13 5.5t5.5 13.5q.5 8-5 13.5T119 144v-1zm112-73q-16-29-44-46T125.5 6.5Q92 6 63 23T17 69Q0 98 0 132v12q0 44 22 81t59 59q37 22 81 22 24 1 46-10t36-30.5q14-19.5 18-43.5 17-12 27.5-31t10.5-41q-1-30-20.5-52.5T231 70zm4 124l-10 7v11q0 15-8.5 28t-23 21q-14.5 8-31.5 8-34-1-62.5-17.5t-45-45Q38 178 38 144v-12q0-24 11.5-44.5t32-32Q102 44 126.5 44t45 14.5Q192 73 202 96l5 9 10 1q18 2 31.5 14t13.5 30q0 14-7.5 26T235 194zm3-44q-1 8-6 13.5t-13 5q-8-.5-13.5-5.5t-5.5-13q0-8 5.5-13.5T219 131q8 0 13.5 5.5T238 150zm-38 62q0 8-5.5 13.5T181 231q-8 0-13.5-5.5t-5-13.5q.5-8 5.5-13t13-5q8 0 13.5 5t5.5 13z"/></svg>