<svg viewBox="0 0 300 310" xmlns="http://www.w3.org/2000/svg"><path d="M300 156q0 32-13 61-3-24-25-51l1-10q0-31-15.5-56.5t-41-41Q181 43 150 43T93.5 58.5Q68 74 53 99.5T38 156q0 31 15 56.5T93.5 253q25.5 15 56.5 15 20 0 39-7 8 10 19 15t23 5h2q-38 25-83 25-41 0-75.5-20T20 231.5Q0 197 0 156t20-75.5Q40 46 74.5 26T150 6q41 0 75.5 20T280 80.5q20 34.5 20 75.5zm-75-38q0-10-7.5-17.5T200 93q-10 0-17.5 7.5t-7.5 18q0 10.5 7.5 17.5t17.5 7q10 0 17.5-7t7.5-18zm-100 0q0-10-7.5-17.5T100 93q-10 0-17.5 7.5t-7.5 18q0 10.5 7.5 17.5t17.5 7q10 0 17.5-7t7.5-18zm75 107q0 13 9 22t22 9q13 0 22.5-9t9.5-22q0-16-16-38-8-11-16-18l-8 8q-9 11-15 22-8 14-8 26zm-50-32q-16 0-35-9-9-5-15-11l-25 28q9 8 23 16 26 14 52 14 12 0 25-3v-3q0-21 15-45-21 13-40 14v-1z"/></svg>