<svg viewBox="0 0 300 310" xmlns="http://www.w3.org/2000/svg"><path d="M150 131q-10 0-17.5 7.5T125 156q0 10 7.5 17.5T150 181q10 0 17.5-7.5T175 156q0-10-7.5-17.5T150 131zm0-63q-24 0-44 12t-31.5 32Q63 132 63 156t11.5 44Q86 220 106 231.5t44 11.5q24 0 44-11.5t32-31.5q12-20 12-44t-12-44q-12-20-32-32t-44-12zm0 138q-21 0-35.5-14.5T100 156q0-21 14.5-35.5T150 106q21 0 35.5 14.5T200 156q0 21-14.5 35.5T150 206zm0-200q-41 0-75.5 20T20 80.5Q0 115 0 156t20 75.5Q40 266 74.5 286t75.5 20q41 0 75.5-20t54.5-54.5q20-34.5 20-75.5t-20-75.5Q260 46 225.5 26T150 6zm0 262q-31 0-56.5-15T53 212.5Q38 187 38 156t15-56.5Q68 74 93.5 59T150 43.5q31-.5 56.5 15t41 41Q263 125 263 156t-15.5 56.5Q232 238 206.5 253T150 268z"/></svg>