<svg viewBox="0 0 300 310" xmlns="http://www.w3.org/2000/svg"><path d="M275 268q0-11-6-20t-16-14q17-18 25.5-41.5T287 143q1-37-18-68.5t-50.5-50Q187 6 150 6T81.5 24.5Q50 43 31.5 74.5T13 143q0 26 8.5 49.5T47 234q-10 5-16 14t-6 21H0v37h300v-38h-25zM150 43q27 0 50 13.5T236.5 93q13.5 23 13.5 50.5t-14 51Q222 218 198 231h-35v-25h34l-28-38h23l-42-56-42 56h23l-28 38h35v25h-36q-24-13-38-36.5t-14-51Q50 116 63.5 93T100 56.5Q123 43 150 43zm13 44q0-8 5-13.5t13-5.5q8 0 13.5 5.5T200 87q0 8-5.5 13.5T181 106q-8 0-13.5-5.5T162 87h1zm37 50q0-8 5.5-13.5t13.5-5q8 .5 13.5 5.5t5.5 13q0 8-5.5 13.5T219 156q-8 0-13.5-5.5T200 137zM75 112q0-8 5.5-13T94 94q8 0 13.5 5t5 13q-.5 8-5.5 13.5T94 131q-8 0-13.5-5.5T75 112z"/></svg>