<svg viewBox="0 0 300 310" xmlns="http://www.w3.org/2000/svg"><path d="M113 118h75v34l-24 29h24v37h-75v-32l23-30h-23v-38zm133 130l30 33-27 25-31-33q-31 21-68 21t-68-21l-31 33-27-25 30-33q-14-16-21.5-36.5T25 168q0-30 14-56.5t38.5-44Q102 50 131 45V6h38v39q30 5 54 22.5t38 44q14 26.5 14 56.5 0 23-7.5 43.5T246 248zm-96 8q24 0 44-12t32-32q12-20 12-43.5T226 125q-12-20-32-32t-44-12q-24 0-44 12t-31.5 32Q63 145 63 168.5T74.5 212Q86 232 106 244t44 12zM76 38L56 7Q23 26 0 56l32 21q18-24 44-39zm193 39l31-21q-23-30-55-49l-20 31q25 15 44 39z"/></svg>