<svg viewBox="0 0 300 310" xmlns="http://www.w3.org/2000/svg"><path d="M150 137q0-8 5.5-13.5T169 118q8 0 13.5 5.5T188 137q0 8-5.5 13.5T169 156q-8 0-13.5-5.5T150 137zm56-19q8 0 13.5-5t5.5-13q0-8-5.5-13.5T206 81q-8 0-13.5 5.5t-5 13.5q.5 8 5.5 13.5t13 5.5v-1zm-75 75q8 1 13.5-4.5T150 175q0-8-5.5-13.5T131 156q-8 0-13.5 5.5T112 175q0 8 5.5 13.5T131 193zM298 50l-1 3q-18 51-30 75-18 40-43 69-4 32-19.5 60T165 306h-52v-42l-23-22-25 25-26-26 25-25-22-23H0v-52q20-25 48.5-40.5T110 81q29-24 68-43 24-11 75-29l3-1q9-3 18-1t16 9q7 7 9 16t-1 18zm-38-4q-52 19-77 32-38 19-65 46-23 24-40 53l51 51q29-17 53-39 27-28 46-66 13-26 32-77z"/></svg>