<svg viewBox="0 0 300 310" xmlns="http://www.w3.org/2000/svg"><path d="M0 125q0-7 3-13 21 15 59 23v37q-27-7-43-17-19-12-19-30zm150 81v37q22 0 46-2 42-4 69-15 35-14 35-39 0-6-3-12-26 18-74 26-34 5-73 5zm-87 28v-36q-39-8-60-23-3 6-3 12 0 18 19 31 16 10 44 16zm87 34q-39 0-73-5-48-8-74-26-3 6-3 13 0 24 35 39 27 10 69 15 24 2 46 2t46-2q42-5 69-15 35-15 35-39 0-7-3-13-26 18-74 26-34 5-73 5zM0 62q0-24 35-39 27-10 69-15 24-2 46-2t46 2q42 5 69 15 35 15 35 39t-32 38q-25 11-67 16-6 0-10 4.5t-4 10.5v50h-37v-50q0-5-3.5-9t-9-4q-5.5 0-9 4t-3.5 9v112H88V127q0-5-4-9.5t-9-5.5Q0 98 0 62zm41 0q13 8 40 13 17 3 28 15 13-9 29-9t30 10q12-11 29-13 23-2 41-7 14-4 21-9-11-7-37-12-32-7-72-7t-72 7q-25 5-37 12zm172 78v37q37-6 59-17 28-13 28-35 0-7-3-13-28 20-84 28z"/></svg>