<svg viewBox="0 0 300 310" xmlns="http://www.w3.org/2000/svg"><path d="M59 240q-9 13-9 29 0 4 1 9-28-12-51-33v-56q23 33 59 51zm41 3q-10 0-17.5 7.5t-7.5 18q0 10.5 7.5 17.5t17.5 7q10 0 17.5-7t7.5-17.5q0-10.5-7.5-18T100 243zM200 68q10 0 17.5-7t7.5-17.5q0-10.5-7.5-18T200 18q-10 0-17.5 7.5t-7.5 18q0 10.5 7.5 17.5t17.5 7zm-25 25q-14 0-27 7h2q21 0 36.5 13t18.5 34q8 10 8 21-1 31-19 54.5T147 253q3 8 3 16 0 12-6 23 30-5 54-22.5t38-44q14-26.5 14-57.5 0-20-10-37t-27.5-27.5Q195 93 175 93zm74-59q1 5 1 10 0 15-9 28 36 18 59 51V67q-23-21-51-33zm-99 178q-21 0-36.5-13T95 165q-8-10-8-21 1-31 19-54.5T153 59q-3-8-3-16 0-12 6-23-30 5-54 22.5t-38 44Q50 113 50 144q0 20 10 37t27.5 27.5Q105 219 125 219q14-1 27-7h-2zm0-25q13 0 22-9t9-22q0-13-9-22t-22-9q-13 0-22 9t-9 22q0 13 9 22t22 9z"/></svg>