<svg viewBox="0 0 300 310" xmlns="http://www.w3.org/2000/svg"><path d="M300 193q0-25-14-46.5T250 114v4q0 19-6 37 9 7 14 17t5 21q0 21-14 35l-49-49q12-12 18.5-27.5T225 118q0-23-12-43t-32-32q-20-12-43-12H88q-16 0-31 5L27 6 0 33l273 273 27-27-25-24q12-13 18.5-28.5T300 194v-1zM138 68q20 0 35 15t14.5 35.5Q187 139 174 153l-17-17q6-7 6-18 0-6-4-12-14 1-27 6L89 69h49v-1zm-82 89q-6 18-6 36v5q-22-11-36-32.5T0 118q0-21 10-40l29 29q-1 6-2 11 1 12 5.5 22T56 157zm120 86l37 38h-50q-24 0-44-12t-32-32q-12-20-12-42.5T85 153l29 29q-1 6-1 12 0 20 14.5 34.5T163 243h13z"/></svg>