<svg viewBox="0 0 300 310" xmlns="http://www.w3.org/2000/svg"><path d="M300 156q0 41-20 75.5T225.5 286Q191 306 150 306t-75.5-20Q40 266 20 231.5T0 156q0-41 20-75.5T74.5 26Q109 6 150 6q30 0 57 11t48 32l13 13-105 107q-5 6-13 6t-13.5-5.5Q131 164 131 156t6-13l32-33-8-2q-7-2-11-2-21 0-35.5 14.5T100 156q0 21 14.5 35.5T150 206q17 0 30-10t18-26l36-37q4 12 4 23 0 29-17.5 52T176 239q-4-7-11-10.5t-15-3.5q-8 0-15 3.5T124 239q-27-8-44-31t-17-52q0-21 10-40 7 1 15-1t13.5-7.5Q107 102 109 94t1-15q19-11 40-11 25 0 46 14l18-18q-29-21-64-21-29 0-55 15-9-5-19.5-3.5t-18 9q-7.5 7.5-9 18T52 101q-14 26-14 55 0 38 23 68t59 40q3 10 11 16.5t19 6.5q11 0 19-6.5t11-16.5q36-10 59.5-40t23.5-68q0-22-9-43l28-29q18 34 18 72z"/></svg>