<svg viewBox="0 0 300 310" xmlns="http://www.w3.org/2000/svg"><path d="M100 131q-6 0-15 6-7 5-16 13l-6 6q0-12 3-25 4-16 12-26 9-12 22-12t22 12q8 10 12 26 3 13 3 25l-6-6q-9-8-16-13-9-6-15-6zm100-38q-13 0-22 12-8 10-12 26-3 13-3 25l6-6q9-8 16-13 9-6 15-6t15 6q7 5 16 13l7 6q0-12-4-25-4-16-12-26-9-12-22-12zm100 63q0 41-20 75.5T225.5 286Q191 306 150 306t-75.5-20Q40 266 20 231.5T0 156q0-41 20-75.5T74.5 26Q109 6 150 6t75.5 20Q260 46 280 80.5t20 75.5zm-37 0q0-31-15.5-56.5t-41-41Q181 43 150 43T93.5 58.5Q68 74 53 99.5T38 156q0 31 15 56.5T93.5 253q25.5 15 56.5 15h11q17 13 37 13 15 0 27-8 11-7 17.5-17.5T250 232q1-10-2-21 14-26 14-55h1zm-63 19q-6 5-15 10-18 10-35 10t-35-10q-10-6-15-10l-25 28q9 8 23 15 26 15 52 15 5 0 12-1l4 5q7 12 21 17t25-2q11-7 12.5-21.5T218 203l-18-28z"/></svg>