<svg viewBox="0 0 300 310" xmlns="http://www.w3.org/2000/svg"><path d="M283 118l-20-19V50q0-18-13-31T219 6H81Q63 6 50.5 19T38 50v49l-21 19q-8 8-12.5 18.5T0 159v147h300V159q0-12-4.5-22.5T283 118zm-183 25h38v7q0 2 1.5 4t4.5 2h12q3 0 5-2t2-4q0-6-6-9l-28-11q-13-5-21-16.5t-8-26q0-14.5 9-26T131 46V31h38v15q13 4 22 15.5t9 25.5v6h-37v-6q0-2-2-4t-5-2h-12q-3 0-4.5 2t-1.5 4q0 6 5 9l28 11q13 5 21 16.5t8 26q0 14.5-9 26T169 191v15h-38v-15q-13-4-22-15.5t-9-25.5v-7zm163 125H38V159l63 64q10 10 23 15t26 5q13 0 26-5t23-15l64-64v109z"/></svg>