<svg viewBox="0 0 300 310" xmlns="http://www.w3.org/2000/svg"><path d="M169 168h-38v-12q0-12 6.5-22.5T156 117q3-2 5-5.5t1.5-7.5q-.5-4-3.5-7t-7-3q-6-1-10 2.5t-5 9.5h-37q0-11 4.5-21t13-17q8.5-7 19.5-10t22-1q15 2 26.5 13.5t14 27q2.5 15.5-4.5 30T174 150q-5 3-5 6v12zm0 13h-38v37h38v-37zm69 38q24-24 32.5-56t0-64Q262 67 238 43q-17-18-40-27.5T150 6q-25 0-48 9.5T62 43Q38 67 29.5 99t0 64Q38 195 62 220l88 86 88-87zM212 69q12 13 19 28.5t7 33.5q0 18-7 33.5T212 193l-62 60-62-60q-17-17-22.5-39.5t0-45Q71 86 88 69q13-12 28.5-18.5T150 44q18 0 33.5 6.5T212 69z"/></svg>