<svg viewBox="0 0 300 310" xmlns="http://www.w3.org/2000/svg"><path d="M200 112q0 8-5.5 13.5T181 131q-8 0-13.5-5.5t-5-13.5q.5-8 5.5-13t13-5q8 0 13.5 5t5.5 13zm-44 31q-8 0-13.5 5.5T137 162q0 8 5.5 13.5T156 181q8 0 13.5-5.5T175 162q0-8-5.5-13.5T156 143zm-50 25q-8 1-13.5 6t-5 13q.5 8 5.5 13.5t13 5.5q8 0 13.5-5.5T125 187q0-8-5.5-13.5T106 168zm168-37q-1 12-6 23l27 26-27 27-21-22-21 21 22 21-27 27-21-22-20 21 21 21-27 27-26-27q-11 5-23 6v26H88v-29q-12-4-22-10l-21 21-27-27 21-21q-6-10-10-22H0v-37h26q1-12 6-23L9 135l26-27 18 19 21-21-18-18 26-27 18 19 21-21-19-18 27-26 23 23q11-5 23-6V6h38v29q11 4 21 10l22-21 26 26-21 22q6 10 10 21h29v38h-26zm-36-11q-1-21-16-36t-36.5-15Q164 69 149 84l-71 71q-15 15-15 36.5T78 228q15 15 36.5 15t36.5-15l71-71q16-15 16-37z"/></svg>