<svg viewBox="0 0 300 310" xmlns="http://www.w3.org/2000/svg"><path d="M150 6q-41 0-75.5 20T20 80.5Q0 115 0 156t20 75.5Q40 266 74.5 286t75.5 20q41 0 75.5-20t54.5-54.5q20-34.5 20-75.5t-20-75.5Q260 46 225.5 26T150 6zm0 262q-31 0-56.5-15t-41-40.5Q37 187 37.5 156T53 99.5q15-25.5 40.5-41t56.5-15q31 .5 56.5 15.5t41 40.5q15.5 25.5 15 56.5T247 212.5q-15 25.5-40.5 41T150 269v-1zm-19-112q0-8 5.5-13.5T150 137q8 0 13.5 5.5T169 156q0 8-5.5 13.5T150 175q-8 0-13.5-5.5T131 156zm107 0h-44q0-11-5.5-21T174 119l24-36q15 10 25 25 15 22 15 48zm-132 0H63q-1-26 14-48 10-15 25-25l24 36q-9 6-14.5 16t-5.5 21zm67 37l23 37q-21 14-46 14t-46-14l23-37q11 7 23 7t23-7z"/></svg>