<svg viewBox="0 0 300 310" xmlns="http://www.w3.org/2000/svg"><path d="M100 181q-10 0-17.5-7.5T75 156q0-10 7.5-17.5T100 131q10 0 17.5 7.5T125 156q0 10-7.5 17.5T100 181zm113-69q-1-13-10-22t-22-9q-13 0-22 9t-9 22q0 13 9 22.5t22 9.5q13 0 22.5-9.5T213 112zM150 6q-41 0-75.5 20T20 80.5Q0 115 0 156q0 33 14 62.5T52 269q24 21 55 31-14-8-23-23t-9-34v-3q-18-16-27.5-38T38 156q0-31 15-56.5T93.5 59Q119 44 150 44t56.5 15Q232 74 247 99.5t16 56.5q0 37-22 66.5T184 263q-5 17-17.5 28.5T137 305l13 1q41 0 75.5-20t54.5-54.5q20-34.5 20-75.5t-20-75.5Q260 46 225.5 26T150 6zm13 237v-25l11-4 14-6-1 27q25-12 36-38 9-22 6-46-9 7-20 15-24 16-45 24.5T116 204q-14 3-26 4 4 5 10 11v24q0 15 9 26.5t22.5 11.5q13.5 0 22.5-11.5t9-26.5z"/></svg>