<svg viewBox="0 0 300 310" xmlns="http://www.w3.org/2000/svg"><path d="M269 220l-13-13q-13-13-29-19.5t-33.5-6.5q-17.5 0-33.5 6.5T132 207l-13 13-27-27 13-13q24-24 56.5-32.5t64.5 0q32 8.5 56 32.5l14 13-27 27zm-18 18l-13-14q-12-12-28-16t-32 0q-16 4-28 16l-14 14 27 26 13-13q8-8 18-8t18 8l13 13 26-26zm-76 49q0 8 5.5 13.5T194 306q8 0 13.5-5.5T213 287q0-8-5.5-13.5T194 268q-8 0-13.5 5.5T175 287zm-56-14l-29-30H73q-15 1-25-9.5t-10-24q0-13.5 7.5-23T65 174l27-7-16-22q-13-17-13-39 0-12 4.5-24T81 61.5Q90 53 102 48t24-5q24 1 42.5 16.5T190 99l1 7h3q26 0 51 8t46 24q-9-21-26.5-36T225 81q-10-33-37-54T126 6q-20 0-38.5 7.5T54.5 35Q40 49 32.5 67.5T25 107q0 21 9 40-16 10-25 26.5T0 209q0 19 10 36t26.5 26.5Q53 281 73 281h54l-8-8z"/></svg>