<svg viewBox="0 0 300 310" xmlns="http://www.w3.org/2000/svg"><path d="M163 81h-38q-13 0-22 9t-9 22v119h37v-38h32q23 0 39.5-16t16.5-39.5q0-23.5-16.5-40T162 81h1zm0 75h-32v-38h32q7 0 12.5 5.5T181 137q0 8-5.5 13.5T162 156h1zM150 6q-41 0-75.5 20T20 80.5Q0 115 0 156t20 75.5Q40 266 74.5 286t75.5 20q41 0 75.5-20t54.5-54.5q20-34.5 20-75.5t-20-75.5Q260 46 225.5 26T150 6zm0 262q-31 0-56.5-15T53 212.5Q38 187 37.5 156t15-56.5q15.5-25.5 41-41T150 43q31 0 56.5 15.5t41 41q15.5 25.5 15 56.5T247 212.5q-15 25.5-40.5 41T150 269v-1z"/></svg>