<svg viewBox="0 0 300 310" xmlns="http://www.w3.org/2000/svg"><path d="M255 256q-14-11-22-27t-8-34q0-18 8-34.5t22-26.5l20-15-20-15q-22-17-50-21 16-5 25.5-15T245 42q4-11 5-24V7l-11 1q-13 0-24 4-16 5-26 15-17 18-21 52-3-37-21-71l-33 17q14 27 17 57h-23q-35 0-63 22l-20 15 20 15q14 10 22 26.5t8 34.5q0 18-8 34.5T45 256l-20 15 20 15q28 21 63 21 22 0 42-8 20 8 42 8 35 0 63-21l20-15-20-15zm-43 11q-13 4-27 2.5t-26-8.5l-9-5-9 5q-12 7-26 8.5T88 267q12-16 18-34t6-38q0-20-6-38.5T88 123q10-3 20-3h84q10 0 20 3-12 15-18.5 33.5T187 195q0 20 6.5 38t18.5 34z"/></svg>