<svg viewBox="0 0 300 310" xmlns="http://www.w3.org/2000/svg"><path d="M88 106q-21 0-35.5-14.5T38 56q0-21 14.5-35.5T87.5 6Q108 6 123 20.5T138 56q0 21-15 35.5T87 106h1zm125 100q-21 0-36-14.5T162.5 156q.5-21 15-35.5t35-14.5q20.5 0 35.5 14.5t15 35.5q0 21-15 35.5T212 206h1zm18-50q0-8-5.5-13.5t-13-5.5q-7.5 0-13 5.5T194 156q0 8 5.5 13.5t13 5.5q7.5 0 13-5.5T231 156zM38 256q0 21 14.5 35.5t35 14.5q20.5 0 35.5-14.5t15-35.5q0-21-15-35.5T87.5 206q-20.5 0-35 14.5T38 256zm175-150q-21 0-36-14.5T162.5 56q.5-21 15-35.5t35-14.5Q233 6 248 20.5T263 56q0 21-15 35.5T212 106h1zm18-50q0-8-5.5-13.5t-13-5.5q-7.5 0-13 5.5T194 56q0 8 5.5 13.5t13 5.5q7.5 0 13-5.5T231 56zM88 106q20 0 35 14.5t15 35.5q0 21-15 35.5T87.5 206q-20.5 0-35-14.5T38 156q0-21 14.5-35.5T87 106h1zm-19 50q0 8 5.5 13.5t13 5.5q7.5 0 13-5.5T106 156q0-8-5.5-13.5t-13-5.5q-7.5 0-13 5.5T69 156zm94 100q-1 21 14 35.5t35.5 14.5q20.5 0 35.5-14.5t15-35.5q0-21-15-35.5T212.5 206q-20.5 0-35.5 14.5T162 256h1z"/></svg>