<svg viewBox="0 0 300 310" xmlns="http://www.w3.org/2000/svg"><path d="M300 175v-38h-39q-4-25-19-46l27-28-26-26-28 27q-21-15-46-19V6h-38v39q-25 4-46 19L57 37 31 63l27 28q-15 21-19 46H0v38h39q4 25 19 46l-27 28 26 26 28-27q21 15 46 19v39h38v-39q25-4 46-19l28 27 26-26-27-28q15-21 19-46h39zm-75-19q0 20-10 37.5T187.5 221Q170 231 150 231t-37.5-10Q95 211 85 193.5T75 156q0-20 10-37.5T112.5 91Q130 81 150 81t37.5 10q17.5 10 27.5 27.5t10 37.5zm-47 41q-15 11-33.5 9t-31-15.5Q101 177 100 158.5t10.5-33Q122 111 140 107t34 5q-11 7-17.5 18t-6 24q.5 13 8 25t19.5 18z"/></svg>