<svg viewBox="0 0 300 310" xmlns="http://www.w3.org/2000/svg"><path d="M150 6q-41 0-75.5 20T20 80.5Q0 115 0 156t20 75.5Q40 266 74.5 286t75.5 20q41 0 75.5-20t54.5-54.5q20-34.5 20-75.5t-20-75.5Q260 46 225.5 26T150 6zm0 262q-31 0-56.5-15t-41-40.5Q37 187 37.5 156T53 99.5q15-25.5 40.5-41t56.5-15q31 .5 56.5 15.5t41 40.5q15.5 25.5 15 56.5T247 212.5Q232 238 206.5 253T150 268zm0-175q-17 1-31.5 9T96 124.5Q88 139 88 156t8 31.5q8 14.5 22.5 22.5t31.5 8.5q17 .5 31.5-8t23-23Q213 173 213 156t-8.5-31.5q-8.5-14.5-23-23T150 93zm0 82q-8 0-13.5-5.5T131 156q0-8 5.5-13.5T150 137q8 0 13.5 5.5T169 156q0 8-5.5 13.5T150 175z"/></svg>