<svg viewBox="0 0 300 310" xmlns="http://www.w3.org/2000/svg"><path d="M282 112q5-15 5.5-31T277 54q-11-11-27-11h-1q-2-10-10.5-17.5T219 18q-7 1-14 4-5-8-13-12t-17-4q-9 0-17 4t-13 12q-7-3-14-4-11 1-19.5 8T101 44h-1q-16 0-26.5 10.5T62 81q1 24 11 45-10 23-11 49v81q1 5-3 8.5t-9 3.5q-5 0-8.5-3.5T38 256v-81q0-22 11-41-9-22-11-46-18 17-28 39.5T0 175v81q0 21 14.5 35.5T50 306h206q18 0 31-13t13-31v-87q0-34-18-62v-1zm-19 150q0 3-2 4.5t-5 1.5H98q2-6 2-12v-81q0-22 11-41t29.5-30Q159 93 181 93t41 11q19 11 30 30t11 41v87zm-25-87q-1 8-6 13.5t-13 5.5q-8 0-13.5-5.5T200 175q0-8 5.5-13.5T219 156q8 0 13.5 5.5T238 175zm-25 50q0 8-5.5 13.5t-13.5 5q-8-.5-13.5-5.5t-5.5-13q0-8 5.5-13.5T194 206q8 0 13.5 5.5T213 225z"/></svg>