<svg viewBox="0 0 300 310" xmlns="http://www.w3.org/2000/svg"><path d="M256 18H44q-18 0-31 13T0 62v231h168q-23-13-34-37H38V106h225v41q17 12 27 31t10 40V62q0-18-13-31t-31-13zM56 81q-8 0-13-5.5T38 62q0-8 5-13.5t13-5q8 .5 13.5 5.5T75 62q0 8-5.5 13.5T56 81zm63 0q-8 0-13.5-5.5T100 62q0-8 5.5-13.5t13.5-5q8 .5 13.5 5.5t5 13q-.5 8-5.5 13.5T119 81zm156 137q0-16-8.5-30.5t-23-23q-14.5-8.5-31-8.5t-31 8.5q-14.5 8.5-23 23t-8.5 31q0 16.5 8.5 31t23 23Q196 281 212 281t29-7l31 31 27-27-31-31q7-13 7-28v-1zm-62 25q-11 0-18-7t-7.5-17.5q-.5-10.5 7-18t18-7.5q10.5 0 18 7.5t7 18Q237 229 230 236t-17 7z"/></svg>