<svg viewBox="0 0 302 310" xmlns="http://www.w3.org/2000/svg"><path d="M201 139l1 17h100l-1-20q-2-37-21-68.5T229 16L213 6l-52 85 16 10q10 6 16.5 16t7.5 22zm24-80q27 24 35 60h-25q-7-22-23-38l13-22zm-48 127q-12 7-26 7t-26-7l-16-9-51 85 16 10q36 22 77 22t77-22l16-10-51-85-16 9zm-67 62l13-22q28 10 56 0l13 22q-20 8-41 8t-41-8zm-9-109q1-12 7.5-22t16.5-16l15-10L88 6 72 16Q41 36 22 67.5T1 136l-1 20h100l1-17zm-34-21H41q8-35 36-59l13 22q-16 16-23 38v-1zm84 0q10 0 17.5 7.5t7.5 18q0 10.5-7.5 17.5t-17.5 7q-10 0-17.5-7t-7.5-17.5q0-10.5 7.5-18T151 118z"/></svg>