<svg viewBox="0 0 300 310" xmlns="http://www.w3.org/2000/svg"><path d="M175 162q0 8-5.5 13.5T156 181q-8 0-13.5-5.5t-5-13.5q.5-8 5.5-13t13-5.5q8-.5 13.5 5T175 162zm-12-50q0-8-5.5-13.5T144 93q-8 0-13.5 5.5T125 112q0 8 5.5 13.5T144 131q8 0 13-5.5t6-13.5zm12 13q0 8 5.5 13.5t13.5 5q8-.5 13.5-5.5t5.5-13q0-8-5.5-13.5T194 106q-8 0-13.5 5.5T175 125zm25 94v2q0 15-11 26l-20 20v39h-38v-39l-20-20q-11-11-11-26v-2q-23-11-38.5-31t-21-45q-5.5-25 0-50T62 48q16-20 39-31t49-11q26 0 49 11t39 31q16 20 21.5 45t0 50q-5.5 25-21 45T200 219zm25-101q0-20-10-37t-27.5-27.5Q170 43 150 43t-37.5 10.5Q95 64 85 81t-10 37.5Q75 139 85 156t27.5 27.5q17.5 10.5 37.5 10t37.5-10.5q17.5-10 27.5-27t10-37v-1z"/></svg>