<svg viewBox="0 0 300 310" xmlns="http://www.w3.org/2000/svg"><path d="M123 209l-4-53h13l3 39 15-29 15 29 3-39h13l-4 53q-1 4-3.5 6.5T167 218q-4 0-7-4l-10-21-10 20q-3 5-7 5t-6.5-2.5Q124 213 123 209zM300 62v231H0V62q0-18 13-31t31-13h212q18 0 31 13t13 31zm-200 0q0 8 5.5 13.5T119 81q8 0 13.5-5.5t5-13.5q-.5-8-5.5-13.5t-13-5q-8 .5-13.5 5.5T100 62zm-62 0q0 8 5 13.5T56 81q8 0 13.5-5.5T75 62q0-8-5.5-13.5t-13.5-5Q48 44 43 49t-5 13zm225 44H38v150h225V106zM63 218q5 0 8-4l10-21 11 20q2 5 6.5 5t7-2.5q2.5-2.5 2.5-6.5l5-53H99l-3 39-15-29-15 29-3-39H50l5 53q0 4 2.5 6.5T63 218zm138 0q5 0 7-4l11-21 10 20q3 6 7 6t6.5-3q2.5-3 2.5-7l5-53h-13l-3 39-15-29-15 29-3-39h-13l4 53q0 4 2.5 6.5t6.5 2.5z"/></svg>