<svg viewBox="0 0 300 310" xmlns="http://www.w3.org/2000/svg"><path d="M106 143q24 0 40.5-16.5T163 87V62q0-23-16.5-39.5T106.5 6Q83 6 66.5 22.5T50 62v25q0 23 16.5 39.5T106 143zM88 62q0-8 5-13.5t13-5.5q8 0 13.5 5.5T125 62v25q0 8-5.5 13.5T106 106q-8 0-13-5.5T88 87V62zm106 106q-23 0-39.5 16.5T138 225v25q0 23 16.5 39.5T194 306q23 0 39.5-16.5T250 250v-25q0-24-16.5-40.5T194 168zm19 82q0 8-5.5 13t-13.5 5q-8 0-13.5-5t-5.5-13v-25q0-8 5.5-13.5T194 206q8 0 13.5 5.5T213 225v25zm-100-82v138H75v-81l-23-22 33-34h28v-1zm87-105l-23-23 33-34h28v137h-38V63z"/></svg>