<svg viewBox="0 0 300 310" xmlns="http://www.w3.org/2000/svg"><path d="M79 306q-16 1-31-5t-26-17Q1 263 .5 228.5t18.5-74q19-39.5 54.5-75t75-54.5q39.5-19 74-18.5T278 28q21 21 21.5 55.5t-18.5 74Q262 197 226.5 232T152 286.5Q113 306 79 306zM221 44q-25 0-56 15-34 17-65 47-28 29-45 61-15 30-17 54.5T48 258q12 12 36.5 10t54.5-17q32-17 60.5-45.5T245 145q15-30 17-54.5T251.5 54Q239 42 221 44zm-46 24v38q11-1 18.5 6.5T200 131h38q0-13-4.5-24.5T220 86q-9-9-20.5-13.5T175 69v-1zm-50 50v38q11-1 18.5 6.5T150 181h38q0-13-4.5-24.5T170 136q-9-9-20.5-13.5T125 119v-1zm-50 50v38q11-1 18.5 6.5T100 231h38q0-13-4.5-24.5T120 186q-9-9-20.5-13.5T75 169v-1z"/></svg>