<svg viewBox="0 0 300 310" xmlns="http://www.w3.org/2000/svg"><path d="M150 181q20 0 37.5-10t27.5-27.5q10-17.5 10-37.5 0-23-19-47-11-13-38-37-13-11-18-16-8 9-13 23-3 8-6.5 23.5T125 73q-4 8-9 8t-11-13q-3-7-5-13-11 12-17 22-8 14-8 29 0 20 10 37.5t27.5 27.5q17.5 10 37.5 10zm-18-68l18-17 18 17q7 8 7 18t-7.5 17.5Q160 156 150 156t-17.5-7.5Q125 141 125 131t7-18zm143 93v-19q0-15-9.5-26.5T242 145q-9 21-26 36h15q3 0 4.5 2t1.5 4v19H63v-19q0-2 1.5-4t4.5-2h15q-17-15-26-36-14 4-23.5 15.5T25 187v19H0v100h300V206h-25zm-112 37v25h-25v-25h25zm-125 0h62v25H38v-25zm225 25h-63v-25h63v25z"/></svg>