<svg viewBox="0 0 300 310" xmlns="http://www.w3.org/2000/svg"><path d="M100 281v25H0v-25q0-10 7.5-17.5T25 256h50q10 0 17.5 7.5T100 281zm-50-50q16 0 27-11t11-26.5Q88 178 77 167t-27-11q-16 0-26.5 11T13 193.5Q13 209 23.5 220T50 231zm225 25h-50q-10 0-17.5 7.5T200 281v25h100v-25q0-10-7.5-17.5T275 256zm-62-63q0 16 10.5 27t26.5 11q16 0 27-11t10.5-26.5q-.5-15.5-11-26.5T250 156q-16 0-26.5 11T213 194v-1zm25-50h-50l-21 19q-7 7-17 7t-17-7l-21-19H63V38q0-13 9-22.5T94 6h112q13 0 22 9.5t9 22.5v105h1zM200 43H100v63h26l24 21 24-21h26V43z"/></svg>