<svg viewBox="0 0 300 310" xmlns="http://www.w3.org/2000/svg"><path d="M150 6q-41 0-75.5 20T20 80.5Q0 115 0 156t20 75.5Q40 266 74.5 286t75.5 20q41 0 75.5-20t54.5-54.5q20-34.5 20-75.5t-20-75.5Q260 46 225.5 26T150 6zm0 262q-31 0-56.5-15t-41-40.5Q37 187 37.5 156T53 99.5q15-25.5 40.5-41t56.5-15q31 .5 56.5 15.5T247 99.5q15 25.5 15.5 56.5t-15 56.5Q232 238 206.5 253T150 268zm50-143v6h-37v-6q0-3-2-5t-5-2h-12q-3 0-4.5 2t-1.5 5q0 6 5 8l28 11q13 5 21 17t8 26.5q0 14.5-9 26T169 229v15h-38v-15q-13-4-22-15.5t-9-26.5v-6h38v6q-1 3 1 5t5 2h12q3 0 5-2t2-5q0-6-6-8l-28-11q-13-5-21-17t-8-26.5q0-14.5 9-26T131 83V69h38v14q13 4 22 15.5t9 26.5z"/></svg>