<svg viewBox="0 0 300 310" xmlns="http://www.w3.org/2000/svg"><path d="M88 275v31H0v-31q0-8 5.5-13.5T19 256h50q8 0 13.5 5.5T88 275zm-44-32q13 1 22-8.5t9-22.5q0-13-9-22t-22-9q-13 0-22.5 9t-9 22q.5 13 9.5 22t22 9zM250 56L237 6h-11l-14 50h-49v11l38 21-15 46 8 7 37-29 38 29 8-6-15-47 38-21V56h-50zm-6 125H144q-8 0-13.5-5.5T125 162q0-8 5.5-13.5T144 144h12l12-38h-24q-24 0-40 16.5t-16 40q0 23.5 16 39.5t40 16h100q8 0 13.5 5.5t5 13.5q-.5 8-5.5 13.5t-13 5.5H108q5 9 5 19v18h131q23 0 39.5-16t16.5-39.5q0-23.5-16.5-40T244 181z"/></svg>