<svg viewBox="0 0 300 310" xmlns="http://www.w3.org/2000/svg"><path d="M263 244v-63q-1-31-16-56.5t-40.5-41Q181 68 150 68T93.5 83.5q-25.5 15.5-41 41T37 181v63q-15 2-26 14.5T0 287v19h300v-19q0-16-11-28.5T262 244h1zM150 106q20 0 37.5 10t27.5 27.5q10 17.5 10 37.5v62H75v-62q0-20 10-37.5t27.5-27.5q17.5-10 37.5-10zM30 98L1 69l25-27 30 28-26 28zm44-41L59 22 93 7l15 35-34 15zm197 41l-26-27 30-29 25 28-29 28zm-44-40l-34-15 15-36 34 15-15 36zm-89 123h-38q0-21 14.5-35.5T150 131v38q-5 0-8.5 3.5T138 181z"/></svg>