<svg viewBox="0 0 300.0063 310" xmlns="http://www.w3.org/2000/svg"><path d="M220.006 176q-8-23-29-35.5t-45.5-8.5q-24.5 4-40.5 22t-17 43q-20 7-30.5 24.5t-7 37.5q3.5 20 19.5 33.5t36 13.5h103q26 0 45-17.5t21-43q2-25.5-13.5-45.5t-41.5-24zm-11 92h-103q-8 0-13-5t-5-13q0-8 5-13.5t13-5.5h19v-31q0-13 8.5-22t20.5-9.5q12-.5 21.5 7.5t11.5 20l2 16h20q12 0 20 8.5t8 20q0 11.5-8 19.5t-20 8zm51-175q-2-7-6-14l28-29-26-26-29 28q-6-4-14-6V6h-38v40q-8 2-15 6l-28-28-27 26 22 21q17 4 32 14t25 25q17 6 31 17.5t23 26.5l7 3q11-11 15-26h40V93h-40zm-235 157q0-22 10.5-40.5t29.5-29.5q6-30 28.5-50t52.5-23q-18-13-40-14-18 1-33.5 9.5t-25 23.5q-9.5 15-9.5 33-16 6-26 18.5t-12 28q-2 15.5 5 30.5t21 23l-1-9z"/></svg>