<svg viewBox="0 0 300 310" xmlns="http://www.w3.org/2000/svg"><path d="M75 295l-15-25 8-2q10-3 18-8 20-12 25-35t-8-42.5Q90 163 67.5 158T25 166q-5 3-10 9L0 145q12-16 28.5-25.5T65 107q-9-20-9-41 0-18 8-36l5-11h30l-2 8q-3 9-3 17 0 23 16.5 39.5t40 16.5q23.5 0 40-16.5T207 44q0-8-3-17l-3-8h29l6 11q8 18 8 37.5t-8 39.5q20 3 36 12.5t28 24.5l-14 31q-6-6-11-9-20-13-42.5-8t-35 24.5Q185 202 190 225t24 35q8 5 18 8l8 2-14 24h-12q-20-3-35.5-12T150 258q-12 15-28 24t-35 12l-12 1zm75-164q-10 0-17.5 7.5T125 156q0 10 7.5 17.5T150 181q10 0 17.5-7.5T175 156q0-10-7.5-17.5T150 131zM73 239q12-8 14-23-14-14-20-32-7-3-14.5-2T39 187l-8 7q9 28 30 50l5-2q5-1 7-3zm46-196q0 9 4 16t11 11q8-2 16-2t16 2q7-4 11.5-11t4.5-15q0-4-2-9-15-4-29.5-4T121 35q-2 5-2 9v-1zm142 144q-10-7-23-4l-5 1q-6 18-19 32v4q3 12 14 19 1 2 6 3l5 2q21-22 30-50l-8-7z"/></svg>