<svg viewBox="0 0 300 310" xmlns="http://www.w3.org/2000/svg"><path d="M299 248l-13-70q9-9 12.5-21.5t.5-24.5q-3-12-11.5-21.5T267 96q-7-26-24-46.5t-41.5-32Q177 6 150 6q-30 0-56.5 13.5t-44 37Q32 80 27 110q-1 7-6 46h23q30-1 58-14-3 5-1.5 11t5.5 10q4 4 10 5t11.5-1.5q5.5-2.5 8-8t2-11.5q-.5-6-5-10t-9.5-6q35-20 59-52-14-10-32-10h-8q-32 35-78 47 6-32 30-52t55.5-20q31.5 0 55 20t27.5 51l3 15 15 1q6 0 9.5 4t3.5 9q0 5-4 8.5t-9 3.5h-24l-4 15q-6 25-26 42t-46 18q-25-1-44.5-16.5T79 176q-17 4-35 5H13L1 248q-2 11 0 21.5t9 19q7 8.5 16.5 13T47 306h78v-41q25 7 50 0v41h78q11 0 20.5-4.5t16.5-13q7-8.5 9-19t0-21.5zM88 268H47q-5 1-7.5-3t-1.5-8l10-57q13 29 39 48l1 20zm173-3q-3 4-8 4h-40v-21q26-19 39-48l10 57q1 4-1 8zm-80-97q-8 0-13.5-5t-5-13q.5-8 5.5-13.5t13-5.5q8 0 13.5 5.5T200 150q0 8-5.5 13.5T181 168z"/></svg>