<svg viewBox="0 0 300 310" xmlns="http://www.w3.org/2000/svg"><path d="M256 31H44q-18 0-31 13T0 75v206h300V75q0-18-13-31t-31-13zm7 212H38V75q0-3 1.5-5t4.5-2h212q3 0 5 2t2 5v168zM200 93h-37v125h37q16 1 26.5-10t10.5-27v-50q0-16-10.5-26.5T200 94v-1zm13 88q0 5-4 9t-9 3h-12v-75h12q5 0 8.5 4t3.5 9v50h1zm-75-53v4h-25v-4q0-4-3-6.5t-7-2.5h-6q-4-1-6.5 2t-2.5 7q0 4 4 7.5t14 9.5q15 8 21 14 10 11 10 25t-10 24q-10 10-24 10h-6q-14 0-24-10t-10-24v-4h25v4q0 4 2.5 6.5T97 193h6q4 0 6.5-2.5t2.5-6.5q0-4-4-7.5T94 167q-14-8-21-14-10-11-10-25t10-24q10-10 24-10h6q14-1 24.5 9.5T138 128z"/></svg>