<svg viewBox="0 0 300 310" xmlns="http://www.w3.org/2000/svg"><path d="M100 181q0-15 8.5-28t22.5-18V6h82v37h-44v25h44v38h-44v29q17 7 25.5 23.5t4 35q-4.5 18.5-20.5 29t-34.5 8q-18.5-2.5-31-16.5T100 181zm182 0h-39q-2 6-7 9t-11 3h-1q-3 20-16 35 8 3 17 3 22 0 37-15 16 15 38 15v-38q-6 0-11-3t-7-9zM75 231q9 0 17-3-13-15-16-35h-1q-6 0-11-3t-7-9H18q-2 6-7 9t-11 4v37q22 0 37-15 16 15 38 15zm207 25h-39q-2 6-7 9.5t-11 3.5q-6 0-11-3.5t-7-9.5h-39q-2 6-7 9.5t-11 3.5q-6 0-11-3.5t-7-9.5H93q-2 6-7 9.5T75 269q-6 0-11-3.5t-7-9.5H18q-2 6-7 9t-11 3v38q22 0 37-15 16 15 38 15t37-15q16 15 38 15t38-15q15 15 37 15t38-15q15 15 37 15v-38q-6 0-11-3t-7-9z"/></svg>