<svg viewBox="0 0 300 310" xmlns="http://www.w3.org/2000/svg"><path d="M169 306h-38V6h38v300zM300 25q0-8-5.5-13.5T281 6q-8 0-13 5.5T263 25q0 8 5 13t13 5q8 0 13.5-5t5.5-13zm-62 0q0-8-5.5-13.5T219 6q-8 0-13.5 5.5T200 25q0 8 5.5 13t13.5 5q8 0 13.5-5t5.5-13zm0 262q0-8-5.5-13.5T219 268q-8 0-13.5 5.5T200 287q0 8 5.5 13.5T219 306q8 0 13.5-5.5T238 287zM100 25q0-8-5.5-13.5T81 6q-8 0-13 5.5T63 25q0 8 5 13t13 5q8 0 13.5-5t5.5-13zm0 262q0-8-5.5-13.5T81 268q-8 0-13 5.5T63 287q0 8 5 13.5t13 5.5q8 0 13.5-5.5T100 287zm200 0q0-8-5.5-13.5T281 268q-8 0-13 5.5t-5 13.5q0 8 5 13.5t13 5.5q8 0 13.5-5.5T300 287zm0-62q0-8-5.5-13.5T281 206q-8 0-13 5.5t-5 13.5q0 8 5 13t13 5q8 0 13.5-5t5.5-13zm0-69q0-8-5.5-13.5T281 137q-8 0-13 5.5t-5 13.5q0 8 5 13.5t13 5.5q8 0 13.5-5.5T300 156zm0-69q0-8-5.5-13.5T281 68q-8 0-13 5.5T263 87q0 8 5 13.5t13 5.5q8 0 13.5-5.5T300 87zM38 25q0-8-5.5-13.5T19 6q-8 0-13.5 5.5T0 25q0 8 5.5 13T19 43q8 0 13.5-5T38 25zm0 262q0-8-5.5-13.5T19 268q-8 0-13.5 5.5T0 287q0 8 5.5 13.5T19 306q8 0 13.5-5.5T38 287zm0-62q0-8-5.5-13.5T19 206q-8 0-13.5 5.5T0 225q0 8 5.5 13t13.5 5q8 0 13.5-5t5.5-13zm0-69q0-8-5.5-13.5T19 137q-8 0-13.5 5.5T0 156q0 8 5.5 13.5T19 175q8 0 13.5-5.5T38 156zm0-69q0-8-5.5-13.5T19 68q-8 0-13.5 5.5T0 87q0 8 5.5 13.5T19 106q8 0 13.5-5.5T38 87zm43 88q8 0 13.5-5.5T100 156q0-8-5.5-13.5T81 137q-8 0-13 5.5T63 156q0 8 5 13.5t13 5.5zm138 0q8 0 13.5-5.5T238 156q0-8-5.5-13.5T219 137q-8 0-13.5 5.5T200 156q0 8 5.5 13.5T219 175z"/></svg>