<svg viewBox="0 0 300 310" xmlns="http://www.w3.org/2000/svg"><path d="M255 73q-5-13-16.5-21T213 44h-13l-7-21q-2-8-8.5-12.5T169 6h-38q-9 0-15.5 4.5T107 23l-7 20H87q-14 1-25.5 9T45 73l-11 33H0v37h22l-8 25Q0 181 0 200v68h38v38h50v-38h125v38h50v-38h37v-68q0-19-14-32l-8-25h22v-37h-34l-11-33zm-42 139q0-8 5-13t13-6q8 1 13.5 6t5.5 13q0 8-5.5 13.5T231 231q-8 0-13.5-5.5T212 212h1zM87 81h126q5 0 6 4l24 71H57l24-71q1-4 6-4zM69 231q-8 0-13.5-5.5T50 212q0-8 5.5-13.5T69 193q8 1 13.5 6t5.5 13q0 8-5.5 13.5T69 231z"/></svg>