<svg viewBox="0 0 300 310" xmlns="http://www.w3.org/2000/svg"><path d="M300 100V81l-27-12q-6-27-28.5-45T194 6q-22 0-41 11t-29.5 29.5Q113 65 113 87t10 40q-15 16-33 29-20 14-28 14-2-1-12-14l-23-29-13 27Q0 184 0 211t13.5 49q13.5 22 39 34t57.5 12h82q26 0 48-12.5t34.5-34.5q12.5-22 12.5-46 1-20-9-42-8-17-21-33 9-12 14-26l29-12zM194 43q18 0 31 13t13 31q0 18-13 31t-31 13q-18 0-31-13t-13-31q0-18 13-31t31-13zm56 169q0 15-7.5 28.5t-21 20.5q-13.5 7-29.5 7h-82q-23 0-39.5-7T45 240q-10-17-6-41 10 8 24 8 18 0 44-18 21-14 41-34 21 13 46 13 17 0 33-7 10 12 16 24 7 15 7 27zm-47 0q0 13-9 22t-22 9q-18 0-35-4-12-4-23-9l-8-5 11-12q13-13 25-21 17-11 30-11t22 9q9 9 9 22z"/></svg>