<svg viewBox="0 0 300 310" xmlns="http://www.w3.org/2000/svg"><path d="M163 118q0-13 11-22 10-7 26-12 13-3 25-3l-6 7q-8 8-13 15-6 10-6 15.5t6 15.5q5 7 13 15l6 7q-12 0-25-3-16-5-26-12-12-9-12-23h1zm-25 0q0-13-12-22-10-7-26-12-13-3-25-3l6 7q8 8 13 15 6 10 6 15.5T94 134q-5 7-13 15l-6 7q12 0 25-3 16-5 26-12 11-9 11-23h1zm162 38q0 41-20 75.5T225.5 286Q191 306 150 306t-75.5-20Q40 266 20 231.5T0 156q0-41 20-75.5T74.5 26Q109 6 150 6t75.5 20Q260 46 280 80.5t20 75.5zm-37 0q-1-31-16-56.5t-40.5-41Q181 43 150 43.5T93.5 59Q68 74 52.5 99.5t-15 56.5q.5 31 15.5 56.5t40.5 41q25.5 15.5 56.5 15t56.5-15.5q25.5-15 41-40.5T263 156zm-58 12l-17 18-19-19-19 19-19-19-18 19-18-18-27 26 45 45 18-19 19 19 19-19 19 19 44-45-26-26h-1z"/></svg>