<svg viewBox="0 0 300 310" xmlns="http://www.w3.org/2000/svg"><path d="M150 6q-41 0-75.5 20T20 80.5Q0 115 0 156t20 75.5Q40 266 74.5 286t75.5 20h150V156q0-41-20-75.5T225.5 26Q191 6 150 6zm74 137h2l14 6q10 4 14.5 11t3 15q-1.5 8-9 13t-16.5 5q-16 1-27-11l-5-6 12-10 5 6q6 6 15 6 4 0 7-2t3.5-5.5q.5-3.5-8.5-7t-18-7.5q-5-3-7.5-8.5t-1.5-11q1-5.5 5-10.5t10-7q11-3 22 2 5 2 9 5l6 5-10 12-6-5q-2-1-5-3-6-2-10.5-.5t-5 4q-.5 2.5 1.5 4.5zM150 43q29 0 53.5 13.5T244 93H57q15-23 39.5-36.5T150 43zm0 125l-22-23v48h-15v-75h15l22 25 22-25h16v75h-16v-48l-22 23zm-85-25l2 1 14 5q10 4 14.5 11t3 15q-1.5 8-8.5 13.5T73 194q-16 0-27-11l-5-6 12-11 5 6q6 6 15 6 4 0 7-2t3.5-5.5Q84 167 75 164t-17-7q-6-4-8.5-9T48 137q1-6 5-10.5t10-6.5q11-3 22 1 5 2 9 6l6 5-10 11-6-4q-2-2-5-3-6-3-10.5-1.5t-5 4.5q-.5 3 1.5 4zm85 125q-29 0-53.5-13T57 218h206v50H150z"/></svg>