<svg viewBox="0 0 300 310" xmlns="http://www.w3.org/2000/svg"><path d="M300 280l-64-64q22-28 26-63t-9.5-67q-13.5-32-42-53.5T147 7q-35-4-67 9.5t-53.5 42Q5 87 1 122t9.5 67Q24 221 53 242q23 18 50.5 24t55.5 0q28-6 51-24l64 64 26-26zM39 138q0-25 12.5-46.5t34-34Q107 45 132 45t46.5 12.5q21.5 12.5 34 34T225 138q0 25-12.5 46.5t-34 34Q157 231 132 231t-46.5-12.5q-21.5-12.5-34-34T39 138zm149-13q0 20-28 48-14 14-28 24l-15-11q-17-15-27-28-14-19-14-33-1-12 7-21t20.5-9q12.5 0 20.5 9t8 21q-1-12 7-21t20.5-9q12.5 0 20.5 9t8 21z"/></svg>