<svg viewBox="0 0 300 310" xmlns="http://www.w3.org/2000/svg"><path d="M275 243l-12-132V87q0-37-23-57-18-15-48-21-17-3-42-3t-42 3q-30 6-48 21-23 20-22 57v24L26 242q-2 12 1.5 23.5t11.5 21q8 9.5 19 14.5t23 5h138q12 0 23-5t19-14.5q8-9.5 11.5-21T275 243zM100 50v18h38V44h25v24h37V50q14 5 19.5 14t5.5 23v6H75v-6q0-14 5.5-23T100 50zm133 212q-6 6-14 6H81q-8 0-14-6t-4-16l10-115h154l10 116q2 9-4 15zm-58-37q0 8-5.5 13t-13.5 5q-8 0-13.5-5t-5.5-13q0-8 5.5-13.5T156 206q8 0 13.5 5.5T175 225zm38-50q-1 8-6 13.5t-13 5.5q-8 0-13.5-5.5T175 175q0-8 5.5-13.5T194 156q8 0 13 5.5t6 13.5z"/></svg>