<svg viewBox="0 0 300 310" xmlns="http://www.w3.org/2000/svg"><path d="M225 35q-18-16-41-23.5T136.5 7q-24.5 3-46 16.5T55.5 58q-13.5 21-17 46.5t7 53Q56 185 77 205q11 10 17 22.5t6 25.5v53h100v-51q0-13 7-28t17-24q18-16 28-38t10-46q0-24-9.5-46T225 35zm-62 221v12h-25v-14l-1-11h26v13zm37-163h-37v-6q0-2-2-4t-5-2h-12q-3 0-4.5 2t-1.5 4q0 6 5 9l28 11q13 5 21 16.5t8 26q0 14.5-9 26T169 191v15h-38v-15q-13-4-22-15.5t-9-25.5v-6h38v6q0 2 1.5 4t4.5 2h12q3 0 5-2t2-4q0-6-6-9l-28-11q-13-5-21-16.5t-8-26q0-14.5 9-26T131 46V31h38v15q13 4 22 15.5t9 25.5v6z"/></svg>