<svg viewBox="0 0 300 310" xmlns="http://www.w3.org/2000/svg"><path d="M138 63l-24-23 33-34h28v122q-13 6-25 15h-12V63zm-25 162q0-29 14-54-17 6-28 20.5T88 225v25q0 23 16.5 39.5T144 306l6-1q-18-15-27.5-36t-9.5-44zm187 0q0 22-11 40.5T259.5 295Q241 306 219 306t-41-11q-19-11-29.5-29.5T138 225q0-22 10.5-41t29.5-30q19-11 41-11t40.5 11q18.5 11 29.5 30t11 41zm-25-13l-26-26-42 42-20-22-27 26 25 27q9 9 21 9h1q12 0 21-8l47-48zM0 87V62q0-23 16.5-39.5T56.5 6q23.5 0 40 16.5T113 62v25q0 23-16.5 39.5t-40 16.5q-23.5 0-40-16.5T0 87zm38 0q0 8 5 13.5t13 5.5q8 0 13.5-5.5T75 87V62q0-8-5.5-13.5T56 43q-8 0-13 5.5T38 62v25zm-3 81L2 202l23 23v81h38V168H35z"/></svg>