<svg viewBox="0 0 300 310" xmlns="http://www.w3.org/2000/svg"><path d="M150 306q-41 0-75.5-20T20 231.5Q0 197 0 156t20-75.5Q40 46 74.5 26T150 6q41 0 75.5 20T280 80.5q20 34.5 20 75.5t-20 75.5Q260 266 225.5 286T150 306zm0-263q-31 1-56.5 16t-41 40.5Q37 125 37.5 156T53 212.5Q68 238 93.5 253t56.5 15.5q31 .5 56.5-15t41-41Q263 187 263 156t-15.5-56.5q-15.5-25.5-41-41T150 44v-1zm44 50q-8 0-13.5 11t-5.5 27q0 16 5.5 26.5T194 168q8 0 13-10.5t5-26.5q0-16-5-26.5T194 94v-1zm-48 49l-17-34-50 25 17 34 50-25zm95 55l-32-19q-6 10-13.5 18T184 206l-8-7q-9-9-14-12-9-6-17.5-6t-16.5 3q-4 2-10 6l-5 3q-4-1-11-7l-14-12-26 27q12 11 23 19 16 11 28 11 7 0 15-3 4-2 11-6l4-3 7 7q9 8 14 12 9 6 18 6 19 0 38-20 12-12 21-27zM123 82l-21-14Q87 90 64 99l9 24q31-12 50-41z"/></svg>