<svg viewBox="0 0 300 310" xmlns="http://www.w3.org/2000/svg"><path d="M201 110l23 29-31 25q-5 5-12.5 5t-13-5.5q-5.5-5.5-5-14T170 135l31-25zm-94 54q5 4 12.5 4t12.5-5q5-5 5-13.5t-7-14.5l-31-25-23 29 31 25zm177-75q16 32 16 67 0 41-20 75.5T225.5 286Q191 306 150 306t-75.5-20Q40 266 20 231.5T0 156q0-35 16-67L0 6l62 28q19-13 41.5-20.5T150 6q24 0 46.5 7.5T238 34l62-28-16 83zm-22 67q0-31-15-56.5t-41-41q-26-15.5-56.5-15T93.5 59Q68 74 53 99.5T38 156q0 31 15 56.5T93.5 253q25.5 15 56.5 15.5t56.5-15q25.5-15.5 41-41T263 156h-1zm-112 50q-14 0-30-8-8-5-14-10l-25 28q8 7 21 14 24 14 48 13.5t48-13.5q13-7 21-14l-25-28q-6 5-14 9-16 9-30 9z"/></svg>