<svg viewBox="0 0 300 310" xmlns="http://www.w3.org/2000/svg"><path d="M263 62q-1-13-8.5-23.5T235 24Q194 7 150 6q-44 1-85 18-12 4-19.5 14.5T37 62v170l3 5q8 10 18 18l-20 51h38l14-35q29 10 60 10t60-10l14 35h39l-21-51q10-8 18-18l3-5V62zM79 59q16-7 33-11v20h76V48q17 4 33 11 4 1 4 6-1 37-20.5 57.5T150 143q-35 0-54.5-20.5T75 65q0-5 4-6zm-4 161v-65q16 13 35.5 20t39.5 7q20 0 39.5-7t35.5-20v65q-9 9-23 14-22 10-52 9.5T98 234q-14-5-23-14zm94-8q0 8-5.5 13.5T150 231q-8 0-13.5-5.5T131 212q0-8 5.5-13t13.5-5q8 0 13.5 5t5.5 13z"/></svg>