<svg viewBox="0 0 300 310" xmlns="http://www.w3.org/2000/svg"><path d="M300 130l-41 24 16 50-9 7-41-32-41 32-9-7 17-51-42-23v-12h54l15-56h12l15 56h54v12zM75 99l8 32 12 3 15-18q36-35 73-55 33-17 56-17 12 0 17.5 5t6 17q.5 12-4.5 27h39q5-22 1.5-40T283 23Q265 4 232.5 6.5t-72 24Q121 52 84 90l-9 9zm169 144q-8 1-13.5 6t-5.5 13q0 8 5.5 13.5T244 281q8 0 13.5-5.5t5-13.5q-.5-8-5.5-13.5t-13-4.5v-1zM19 81q8 0 13-5.5T37.5 62q.5-8-5-13.5t-13.5-5Q11 44 5.5 49T0 62q0 8 5.5 13.5T19 81zm62-38q8 0 13.5-5t5.5-13q0-8-5.5-13.5T81 6q-8 0-13.5 5.5t-5 13.5q.5 8 5.5 13t13 5zM46 218h8l11-35 35-11v-8l-35-10-11-36h-8l-10 36-36 10v8l36 11 10 35zm41 46q-15 5-27 4.5T43 263l-2-2q-1-3-14-30l-12-28-6-2q-10 28-8.5 51T16 290q12 12 30.5 15t41.5-2.5q23-5.5 49-19.5t52-36l-30-24q-38 30-72 41z"/></svg>