<svg viewBox="0 0 300 310" xmlns="http://www.w3.org/2000/svg"><path d="M119 206q-8 0-13.5-5.5T100 187q0-8 5.5-13.5t13.5-5q8 .5 13.5 5.5t5 13q-.5 8-5.5 13.5t-13 5.5zm43 24q-18 3-35-2.5T97 209q-13-13-18.5-30T76 144l-35-35-19-5-9 36 25 7q-1 9 0 18l-25 6 9 37 25-7q5 11 11 20l-10 10h-4q-13 0-22 9t-9.5 22q-.5 13 9 22t22.5 9q13 0 22-9t9-22v-4l10-10q10 7 21 12l-6 26 36 9 7-27h17l7 27 37-9-5-19-37-37zm19-124q-8 0-13.5 5.5t-5 13.5q.5 8 5.5 13t13 5q8 0 13.5-5t5.5-13q0-8-5.5-13.5T181 106zm119 173l-27 27L1 33 27 6l12 13q8-1 15 1t12 7.5Q71 33 73.5 40T75 54l10 10q9-6 18-10l-7-28 37-9 7 27q8-1 17 0l7-27 36 9-6 26q11 5 21 12l10-10v-4q0-13 9-22.5t22-9.5q13 0 22.5 9.5T288 50q0 13-9.5 22T256 81h-4l-10 10q6 9 11 20l25-7 9 37-25 6q1 9 0 18l25 7-9 36-25-6q-5 10-11 19l10 10q7-1 14 1.5t12.5 7.5q5.5 5 7.5 12t1 15l13 12zm-97-176q-18-18-43.5-21T112 91l103 103q12-22 9-47.5T203 103z"/></svg>