<svg viewBox="0 0 300 310" xmlns="http://www.w3.org/2000/svg"><path d="M300 131l-37 28v-9q0-13-6.5-23T239 111q11-16 11-35.5t-9.5-35q-9.5-15.5-25-25T181 6q-14 0-27 5.5T131 28q-9-11-22-16.5T81 6q-18 0-34 9.5t-25.5 25q-9.5 15.5-9 35T23 111q-10 6-16.5 16T0 150v156h263v-53l37 28V131zM181 43q13 0 22.5 9.5T213 75q0 13-9.5 22t-22.5 9q-13 0-22-9t-9-22q0-13 9-22.5t22-9.5zM81 43q13 0 22.5 9.5t9 22.5q-.5 13-9.5 22t-22 9q-13 0-22-9t-9-22q0-13 9-22.5T81 43zm144 225H38V150q0-3 1.5-5t4.5-2h175q2 0 4 2t2 5v118z"/></svg>