<svg viewBox="0 0 300 310" xmlns="http://www.w3.org/2000/svg"><path d="M13 37q-1-13 8.5-22T44 6q13 0 22 9t9 22q0 13-9 22.5t-22 9Q31 68 22 59t-9-22zM0 232v74h38v-50L8 238q-4-2-8-6zm298 19l-9-36-97 22-37-158-36 8 10 44h-25l-18-29q-6-10-16-15.5T49 81H31q-13 0-22 9t-9 22v71q0 10 4.5 18.5T18 215l43 26v65h38v-85l-36-23v-63l20 33h54l19 78q-9 4-13.5 11.5T138 275q0 13 9 22t22 9q13 0 22-9t9-22v-1l98-23zm-93-61q2 7 8.5 11.5T227 204l35-8q7-2 11-8.5t3-14.5l-9-35q-1-8-8-12t-14-2l-34 8q-8 2-12 8.5t-2 14.5l8 35z"/></svg>