<svg viewBox="0 0 300 310" xmlns="http://www.w3.org/2000/svg"><path d="M300 24l-1-18h-18q-15 0-36 3-41 6-78 21-51 21-86.5 56.5T24 173Q9 210 3 251q-3 21-3 36v18l21 1q19 0 42-4 40-6 75-21 47-21 82-55 36-37 57-88 15-37 21-78 2-21 2-36zM193 199q-34 34-84 53-34 12-70 15 4-37 16-71 19-50 52-83t83-52q34-12 71-16-3 36-15 70-19 50-53 84zm-74-43q0-13 9-22t22-9q13 0 22 9t9 22q0 13-9 22t-22 9q-13 0-22-9t-9-22zm-25 31q10 0 17.5 7.5t7.5 18q0 10.5-7.5 17.5t-18 7Q83 237 76 230t-7-17.5q0-10.5 7-18t18-7.5zm87-87q0-11 7.5-18t18-7q10.5 0 17.5 7t7 17.5q0 10.5-7 18t-17.5 7.5q-10.5 0-18-7.5T181 100z"/></svg>