<svg viewBox="0 0 300 310" xmlns="http://www.w3.org/2000/svg"><path d="M290 146q-10-12-25-14 8-34 10-69l1-20h-21q-25 2-49 7 2-12-3.5-23T186 10.5q-11-5.5-23-4T143 17l-6 5-5-5q-9-10-23-11t-25 7q-11 8-14 21t3 25q-24 8-37.5 29.5T26 135q-14 5-21 18t-4 28q6 40 31 73t62 50l4 2h104l4-2q37-17 61.5-50t31.5-73q2-10-.5-19t-8.5-16zm-64-15h-63q-1-8 1.5-15t8.5-13.5q6-6.5 25-12.5 16-4 38-7-3 24-10 48zM94 93q15 1 24 12t6 26H63q-3-15 6.5-26T94 93zm99 175h-86q-28-14-46-38.5T38 174q-1-2 .5-4t4.5-1h214q3-1 4.5 1t.5 4q-5 31-23 55.5T193 269v-1z"/></svg>