<svg viewBox="0 0 300 310" xmlns="http://www.w3.org/2000/svg"><path d="M128 78V59h9q4 0 6.5 3t2.5 6.5q0 3.5-2.5 6T137 77l-9 1zm172-35v181l-82 82H0V43q0-15 11-26T38 6h225q15 0 26 11t11 27v-1zM175 95q0 10 7.5 17t17.5 7q10 0 17.5-7t7.5-17V81h-25v12h9v2q0 3-2.5 6t-6.5 3q-4 0-6.5-3t-2.5-7V68q0-3 2.5-6t6.5-3q4 0 6.5 3t2.5 6h16q0-10-7.5-17T200 44q-10-1-17.5 6.5T175 68v27zm-62 24h15V93h9q10 0 17.5-7t7.5-17.5q0-10.5-7.5-18T137 43h-24v76zM50 95q0 10 7.5 17t17.5 7q10 0 17.5-7t7.5-17V43H84v51q0 4-2.5 7t-6.5 3q-4 0-6.5-3T66 95v-2H50v2zm213 48H38v125h150v-75h75v-50z"/></svg>