<svg viewBox="0 0 300 310" xmlns="http://www.w3.org/2000/svg"><path d="M150 231q31 0 56.5-15t41-41q15.5-26 15-56.5T247 62q-15-26-40.5-41T150 6q-31 0-56.5 15t-41 41q-15.5 26-15 56.5T53 175q15 26 40.5 41t56.5 15zm-50-88h38v7q0 2 1.5 4t4.5 2h12q3 0 5-2t2-4q0-6-6-9l-28-11q-13-5-21-16.5t-8-26q0-14.5 9-26T131 46V31h38v15q13 4 22 15.5t9 25.5v6h-37v-6q0-2-2-4t-5-2h-12q-3 0-4.5 2t-1.5 4q0 6 5 9l28 11q13 5 21 16.5t8 26q0 14.5-9 26T169 191v15h-38v-15q-13-4-22-15.5t-9-25.5v-7zm200 107q0 23-16.5 39.5T244 306H56q-23 0-39.5-16.5T0 250q0-18 10.5-32.5T37 197q14 20 34 34H56q-8 0-13.5 5.5t-5 13.5q.5 8 5.5 13.5t13 4.5h188q8 0 13.5-5t5.5-13q0-8-5.5-13.5T244 231h-15q20-14 34-34 16 6 26.5 20.5T300 250z"/></svg>