<svg viewBox="0 0 300 310" xmlns="http://www.w3.org/2000/svg"><path d="M194 176l25 28q-19 17-44 23.5t-50 0Q100 221 81 204l25-28q19 17 44 17t44-17zm106-20q0 41-20 75.5T225.5 286Q191 306 150 306q-57-2-95-33-35-29-47.5-73t0-88Q20 68 55 39 93 8 150 6q41 0 75.5 20T280 80.5q20 34.5 20 75.5zm-37 0q-1-31-16-56.5T206.5 59Q181 44 150 44q-43 1-72 25-26 21-35 54t0 66q9 33 35 54 29 24 72 25 31 0 56.5-15t40.5-40.5q15-25.5 16-56.5zm-125 0q-1-30-12-46t-26-16q-15 0-26 16.5T63 156q18-17 27.5-22t19 0q9.5 5 28.5 22zm62-63q-13 0-22 12-8 10-12 26-3 13-3 25 18-17 27.5-22t19 0q9.5 5 27.5 22 1-12-3-25-4-16-12-26-9-12-22-12z"/></svg>