<svg viewBox="0 0 300 368" xmlns="http://www.w3.org/2000/svg"><path d="M250 209h-81v-50h14q7 0 10-6.5t-2-11.5l-34-33q-3-3-7-3t-7 3l-34 33q-5 5-2 11.5t10 6.5h14v50H50q-21 0-35.5 14.5T0 259v25q0 21 14.5 35.5T50 334h200q21 0 35.5-14.5T300 284v-25q0-21-14.5-35.5T250 209zm13 75q0 5-4 8.5t-9 3.5H50q-5 0-8.5-3.5T38 284v-25q0-5 3.5-9t8.5-4h200q5 0 9 4t4 9v25zm37-200v25q0 21-14.5 35.5T250 159h-33q3-9 .5-19t-9.5-17l-33-33q-10-10-25-10t-25 10l-33 33q-8 7-10 17t1 19H50q-21 0-35.5-14.5T0 109V84q0-21 14.5-35.5T50 34h200q21 0 35.5 14.5T300 84z"/></svg>