<svg viewBox="0 0 300 368" xmlns="http://www.w3.org/2000/svg"><path d="M225 140v88q0 8-5.5 13.5t-13.5 5q-8-.5-13.5-5.5t-5.5-13v-88q0-8 5.5-13.5t13.5-5q8 .5 13.5 5.5t5.5 13zM144 34q-8 0-13.5 5.5T125 53v262q0 8 5.5 13.5T144 334q8 0 13.5-5.5T163 315V53q0-8-5.5-13.5T144 34zm125 50q-8 0-13.5 5.5T250 103v162q0 8 5.5 13.5T269 284q8 0 13-5.5t6-13.5V103q0-8-5.5-13.5T269 84zM81 96q-8 0-13 5.5T63 115v138q0 8 5 13t13 5q8 0 13.5-5t5.5-13V115q0-8-5.5-13T81 96zm-62 50q-8 0-13.5 5.5T0 165v38q0 8 5.5 13.5T19 222q8 0 13-5.5t5-13.5v-38q1-8-4.5-13.5T19 146z"/></svg>