<svg viewBox="0 0 300 368" xmlns="http://www.w3.org/2000/svg"><path d="M300 96v13q0 17-8.5 31.5t-23 22.5q-14.5 8-30.5 8h-57q-8 0-13.5-5t-5-13q.5-8 5.5-13.5t13-5.5h57q10 0 17-7.5t8-17.5V96q0-10-7.5-17.5T238 71H63q-11 0-18 7.5T38 96v13q0 9 6 16t14.5 8.5q8.5 1.5 13 7.5t3.5 14q-1 8-7.5 12.5T54 171q-23-3-38.5-21T0 109V96q0-16 8.5-30.5t23-23Q46 34 63 34h175q16 0 30.5 8.5t23 23Q300 80 300 97v-1zm-86 147l-76-23v-66q0-7-4-12.5t-11-6.5q-9-3-16 3t-7 15v128l-21-16q-8-7-18.5-6t-17 9q-6.5 8-5.5 18.5t9 17.5l21 19q13 11 30 11h9q13 0 21.5-9t8.5-21v-45l66 20q10 3 16 11t6 19v6q0 8 5.5 13.5T244 334q8 0 13-5.5t5-13.5v-6q0-23-13.5-41.5T213 243h1z"/></svg>