<svg viewBox="0 0 300 368" xmlns="http://www.w3.org/2000/svg"><path d="M231 334H69q-19 0-34.5-9.5t-25-25Q0 284 0 265v-37q0-19 9.5-34.5t25-25Q50 159 69 159h162q19 0 34.5 9.5t25 25Q300 209 300 228v37q0 19-9.5 34.5t-25 25Q250 334 231 334zM69 196q-13 0-22 9.5T38 228v37q0 13 9 22t22 9h162q13 0 22.5-9t9.5-22v-37q0-13-9.5-22.5T231 196H69zm226-56q5-6 4.5-13.5T294 114q-20-18-46-18H52q-26 0-46 18-5 5-5.5 12.5T5 140q5 6 12.5 6.5T31 142q9-8 21-8h196q12 0 21 8 5 4 13 4t13-6zm0-62q5-6 4.5-14T294 51q-20-17-46-17H52Q26 34 6 51 1 56 .5 64T5 77.5q5 5.5 12.5 6T31 79q9-8 21-8h196q12 0 21 8 5 5 13 5t13-6zM150 209q-24 0-44 5t-31.5 13.5Q63 236 63 246.5t11.5 19Q86 274 106 279t44 5q24 0 44-5t32-13.5q12-8.5 12-19t-12-19q-12-8.5-32-13.5t-44-5zm0 50q-13 0-22-3.5t-9-9q0-5.5 9-9t22-3.5q13 0 22 3.5t9 9q0 5.5-9 9t-22 3.5z"/></svg>