<svg viewBox="0 0 300 368" xmlns="http://www.w3.org/2000/svg"><path d="M200 153V53q0-8 5.5-13.5T219 34q8 0 13 5.5t5 13.5v100q1 8-4.5 13t-13.5 5q-8 0-13.5-5t-5.5-13zm-44 18q8 0 13.5-5t5.5-13V53q0-8-5.5-13.5T156 34q-8 0-13 5.5T138 53v100q0 8 5 13t13 5zM281 59q-8 0-13 5.5T263 78v150q0 18-9.5 34T228 287q-16 9-34 9h-25q-22 0-43-7t-39-21h1q11-5 17.5-15t6.5-22V78q0-8-5-13.5T94 59q-8 0-13.5 5.5T75 78v153q0 2-1 2.5t-2-.5l-32-32q-7-5-16.5-4.5T7 204q-7 7-7 16.5T5 237l40 43q24 26 56.5 40t67.5 14h25q29 0 53-14.5t38.5-38.5q14.5-24 14.5-53V78q0-8-5.5-13.5T281 59z"/></svg>