<svg viewBox="0 0 300 368" xmlns="http://www.w3.org/2000/svg"><path d="M263 203q-12 0-21 6l-13-6q5-21-1-41.5T207 126q-15-15-35.5-20.5T130 105l-7-13q7-11 5.5-23.5t-10-22q-8.5-9.5-21-12T74 38q-11 6-16.5 17.5t-3 24Q57 92 67 100t23 9l7 13q-22 20-27 49.5T81 226l-35 34q-13-3-24.5 2.5T4 279.5q-6 11.5-3.5 24t12 21q9.5 8.5 22 9.5t23-6q10.5-7 15-19t.5-24l34-32q26 16 56 11.5t49-28.5l13 7q1 15 12.5 25t26.5 9.5q15-.5 25.5-11.5t10.5-26.5q0-15.5-11-26T262 203h1zm-113 25q-18 0-31-13t-13-31q0-18 13-31t31-13q18 0 31 13t13 31q0 18-13 31t-31 13z"/></svg>