<svg viewBox="0 0 300 368" xmlns="http://www.w3.org/2000/svg"><path d="M263 184q0-21-15-35.5T212.5 134q-20.5 0-35.5 14.5T162.5 184q.5 21 15 35.5t35 14.5q20.5 0 35.5-14.5t15-35.5zm-50 19q-8 0-13.5-5.5T194 184q0-8 5.5-13.5t13-5.5q7.5 0 13 5.5T231 184q0 8-5.5 13.5T213 203zm50-119q0-21-15-35.5T212.5 34Q192 34 177 48.5T162.5 84q.5 21 15 35.5t35 14.5q20.5 0 35.5-14.5T263 84zm-50 19q-8 0-13.5-5.5T194 84q0-8 5.5-13.5t13-5.5q7.5 0 13 5.5T231 84q0 8-5.5 13.5T213 103zM88 234q20 0 35 14.5t15 35.5q0 21-15 35.5T87.5 334q-20.5 0-35-14.5T38 284q0-21 14.5-35.5T87 234h1zm-50-50q0 21 14.5 35.5t35 14.5q20.5 0 35.5-14.5t15-35.5q0-21-15-35.5T87.5 134q-20.5 0-35 14.5T38 184zm50-19q7 0 12.5 5.5T106 184q0 8-5.5 13.5t-13 5.5q-7.5 0-13-5.5T69 184q0-8 5.5-13.5T88 165zm75 119q-1 21 14 35.5t35.5 14.5q20.5 0 35.5-14.5t15-35.5q0-21-15-35.5T212.5 234q-20.5 0-35.5 14.5T162 284h1zm50-19q7 0 12.5 5.5T231 284q0 8-5.5 13.5t-13 5.5q-7.5 0-13-5.5T194 284q0-8 5.5-13.5T212 265h1zM88 134q-21 0-35.5-14.5T38 84q0-21 14.5-35.5t35-14.5Q108 34 123 48.5T138 84q0 21-15 35.5T87 134h1z"/></svg>