<svg viewBox="0 0 300 368" xmlns="http://www.w3.org/2000/svg"><path d="M128 193q9 8 22 8t22-8l31-31q11-11 16.5-24.5T225 109q0-15-5.5-28.5T203 56q-11-11-24.5-16.5T150 34q-15 0-28.5 5.5T97 56Q86 67 80.5 80.5T75 109q0 15 5.5 28.5T97 162l31 31zm22-109q10 0 17.5 7.5T175 109q0 10-7.5 17.5T150 134q-10 0-17.5-7.5T125 109q0-10 7.5-17.5T150 84zm150 156q0 5-2.5 9.5T291 256l-118 71q-10 7-22.5 7t-23.5-7L9 256q-4-2-6.5-6.5T0 240q0-5 2.5-9t6.5-7l62-37q7-4 14.5-2.5T97 193q4 7 2 14.5T90 219l-35 21 91 55q4 3 8 0l91-55-35-21q-7-4-9-11.5t2-14.5q4-7 11.5-8.5T229 187l62 37q4 3 6.5 7t2.5 9z"/></svg>