<svg viewBox="0 0 300 368" xmlns="http://www.w3.org/2000/svg"><path d="M281 96h-17l18-17q6-6 6-14t-5.5-13.5Q277 46 269 46t-14 6l-17 18V53q-1-8-6-13.5T219 34q-8 0-13.5 5.5T200 53v38q-10-9-23-15-16-7-32.5-3T117 90q-14 14-52 80-26 46-61 110-5 11-3.5 23t10 20.5q8.5 8.5 20.5 10t23-3.5q64-35 110-61 66-38 80-52 21-21 18-44-2-18-19-39h38q8 0 13.5-5.5T300 115q0-8-5.5-13.5T281 96zm-63 94q-17 14-36 25l-12-13q-6-6-14-6t-13.5 5.5Q137 207 137 215t6 14l6 5q-46 27-111 62l35-63 7 8q6 6 14 6t13.5-5.5Q113 236 113 228t-6-14l-15-15q16-29 26-45l12 12q6 6 14 6t13.5-5.5Q163 161 163 153t-6-14l-18-17 5-6q6-5 9.5-6.5t8.5.5q19 12 34 28 17 18 23.5 27t5.5 14q-1 5-7 11z"/></svg>