<svg viewBox="0 0 300 368" xmlns="http://www.w3.org/2000/svg"><path d="M250 72q-24-21-54.5-31T132 35q-33 4-62 22t-47 47Q5 133 1 167q-4 37 9 72t40 59.5Q77 323 112 333q6 1 12 1 15 0 27-9 9-7 13.5-16.5T169 289v-20q19-6 31.5-22.5T213 209v-14q5-2 8.5-6.5T225 177q0-7-5.5-12.5T206 159h-6v-31q0-8-5.5-13.5T181 109q-8 0-13.5 5.5T162 128v31h-24v-31q-1-8-6-13.5t-13-5.5q-8 0-13.5 5.5T100 128v31h-6q-8 0-13.5 5.5T75 177q0 7 3.5 11.5T88 195v14q0 21 12 37.5t31 22.5v20q0 4-3 6t-6 1q-26-7-46.5-26T45 225q-10-26-7-54 3-25 16.5-47T90 88.5Q112 75 137 72t47.5 4.5Q207 84 225 100t28 38q10 22 10 46 0 30-14.5 55T209 280q-7 4-8.5 11.5t2.5 14q4 6.5 11.5 8.5t14.5-2q33-21 52-55t19-73q0-32-13-61t-37-51zM125 196h50v13q0 10-7.5 17.5T150 234q-10 0-17.5-7.5T125 209v-13z"/></svg>