<svg viewBox="0 0 300 368" xmlns="http://www.w3.org/2000/svg"><path d="M281 315q0 8-5.5 13.5T263 334H50q-8 0-13.5-5.5T31 315q0-8 5.5-13.5t13-5.5q7.5 0 13.5-5.5t6-12.5v-32H50q-8 0-13.5-5T31 228q0-8 5.5-13.5T50 209h19v-25H50q-8 0-13.5-5.5T31 165q0-8 5.5-13.5T50 146h19v-12q0-28 13-50.5t36-36Q141 34 169 34q33 0 65 20 17 11 29 23h1q5 6 5 14t-6 13q-6 5-13.5 5t-13.5-6q-8-8-20-16-24-15-47-15-28 0-45.5 18T106 134v13h107q7 0 12.5 5.5t5.5 13q0 7.5-5.5 13T213 184H106v25h107q7 0 12.5 5.5T231 228q0 8-5.5 13.5T213 247H106v31q0 9-3 19h160q7 0 12.5 5.5T281 315z"/></svg>