<svg viewBox="0 0 300 368" xmlns="http://www.w3.org/2000/svg"><path d="M238 75V53q0-8-5.5-13.5T219 34q-8 0-13.5 5.5T200 53v6H100v-6q0-8-5.5-13.5T81 34q-8 0-13.5 5.5T63 53v22q-12 9-18.5 23T38 128v112q0 16 6.5 30T62 293v22q1 8 6 13.5t13 5.5q8 0 13.5-5.5T100 315v-6h100v6q0 8 5.5 13.5T219 334q8 0 13.5-5.5T238 315v-22q11-9 18-23t7-30V128q0-16-7-30t-18-23zM106 271q-13 0-22-9t-9-22V128q0-13 9-22t22-9h88q13 0 22 9t9 22v112q0 13-9 22.5t-22 9.5h-88v-1zm94-98q0 15-16 33-11 13-27 25-3 3-7 3t-7-3q-16-12-27-25-16-18-16-33 0-11 7.5-19t18-8q10.5 0 17.5 7.5t7 17.5q0-10 7-17.5t17.5-7.5q10.5 0 18 8t7.5 19z"/></svg>