<svg viewBox="0 0 300 368" xmlns="http://www.w3.org/2000/svg"><path d="M207 199q-4-3-9-2t-8 5l-12 17-20-28q8-5 12.5-13.5T175 159q0-16-11-27t-26-11h-13q-16 0-27 11t-11 27v62q1 6 4.5 9.5t8.5 3.5q5 0 8.5-3.5t3.5-9.5v-25h19l31 44-17 24q-3 4-2 9.5t4.5 8q3.5 2.5 7.5 2.5 7 0 11-5l12-17 12 17q4 5 10 5 4 0 7.5-2.5t4.5-8q1-5.5-2-9.5l-17-24 17-24q3-4 2-9t-5-8zm-94-40q0-5 3.5-9t8.5-4h13q5 0 8.5 4t3.5 9q0 5-3.5 8.5T137 171h-24v-12zm95-100q-5-11-15.5-18T169 34h-38q-13 0-23.5 7T92 59q-18 1-33.5 10T34 93.5Q25 109 25 128v137q0 19 9.5 34.5t25 25Q75 334 94 334h112q19 0 34.5-9.5t25-25Q275 284 275 265V128q0-19-9-34.5T241.5 69Q226 60 208 59zm30 206q0 13-9.5 22t-22.5 9H94q-13 0-22-9t-9-22V128q0-13 9-22.5T94 96h12q8 0 13.5-5t5.5-13q0-3 2-5t4-2h38q2 1 4 2.5t2 4.5q0 8 5.5 13t13.5 5h12q13 0 22.5 9.5T238 128v137z"/></svg>