<svg viewBox="0 0 300 368" xmlns="http://www.w3.org/2000/svg"><path d="M225 140zm50 13v112q0 19-9.5 34.5t-25 25Q225 334 206 334H94q-19 0-34.5-9.5t-25-25Q25 284 25 265V161q0-22 12.5-39.5T70 96l5-2V70q-6-2-9-6.5T63 52q0-7 5-12.5T81 34h88q8 0 13 5.5t5.5 12.5q.5 7-3 11.5T175 70v22l54 10q18 3 32 18t14 33zm-38 117q-6 2-12 2-21-1-35.5-15.5T175 221v-68q0-12 5-22l-27-5q-7-1-11.5-6.5T137 107V71h-25v36q0 6-3 11t-9 7l-17 7q-9 3-15 11t-6 18v104q0 13 9.5 22t22.5 9h112q12 0 20.5-7.5T237 270zm1-117q0-6-4-9.5t-9-3.5q-5 0-9 4t-4 9v68q0 6 4 9.5t9 3.5q5 0 9-3.5t4-9.5v-68z"/></svg>