<svg viewBox="0 0 300.0014 368" xmlns="http://www.w3.org/2000/svg"><path d="M200 102V78q0-18-13-31t-31-13h-12q-18 0-31 13t-13 31v24q-34 23-58 53-39 48-42 99-1 14 3.5 27T17 303.5q9 9.5 20 14t23 4.5q22-1 40-14 6 10 16.5 16.5T139 333q5 1 11 1 15 0 28.5-7t22.5-19q17 13 39 14 12-1 23-5.5t19.5-14q8.5-9.5 13-22T300 254q-3-51-42-99-24-30-58-53zm-56-31h12q3 0 5 2t2 5v31l-5 14q-4-1-8-1t-8 1l-5-14V78q0-3 2-5t5-2zM60 284q-9 0-15-6-8-9-7-22 1-34 26-68 17-24 44-45l3 16 1 2q-20 45-24 93v5q-2 11-10 18t-18 7zm106 7q-9 7-21 5-9-2-14.5-9.5T125 269q2-53 25-101 24 49 25 103 0 12-9 20zm88-14q-5 6-14.5 6.5T222 277q-8-7-10-18v-5q-4-48-24-93l1-2 3-16q27 21 44 45 25 34 26 68 1 12-8 21z"/></svg>