<svg viewBox="0 0 300 368" xmlns="http://www.w3.org/2000/svg"><path d="M219 34H81q-18 0-34 9.5t-25 25Q13 84 13 103v175q-1 23 15.5 39.5T69 334h150q18 0 34-9.5t25.5-25Q288 284 288 265V103q0-19-9.5-34.5t-25.5-25Q237 34 219 34zM81 71h138q13 0 22 9.5t9 22.5v118H69q-10 0-19 4V103q0-13 9-22t22-9v-1zm138 225H69q-8 0-13.5-5T50 278q0-8 5.5-13.5T69 259h181v6q0 13-9 22.5t-22 9.5v-1zM75 146q0-18 8.5-34T106 86q4-3 8.5 0t3.5 8q-4 18-5 40h25q1-24 4-40t8-16q5 0 8 16t4 40h25q-1-22-5-40-1-5 3.5-8t8.5 0q14 10 22.5 26t8.5 34.5q0 18.5-8.5 34.5T194 207q-4 3-8.5 0t-3.5-8q4-18 5-40h-25q-1 24-4 40t-8 16q-5 0-8.5-16t-3.5-40h-25q1 22 5 40 1 5-3.5 8t-8.5 0q-14-10-22.5-26T75 146z"/></svg>