<svg viewBox="0 0 300 368" xmlns="http://www.w3.org/2000/svg"><path d="M291 136q-4-6-12-7.5t-14.5 2.5q-6.5 4-8 11.5T260 157q2 4 2 8 0 10-14 20t-38 17q-28 7-60 7t-60-7q-24-7-38.5-17T37 166q0-9 11.5-18T81 132q23-8 52-10 7 0 12-6t4.5-14q-.5-8-6-13T130 85q-38 2-67.5 13.5t-46 28.5Q0 144 0 165v88q0 23 19.5 41.5t54 29Q108 334 150 334t76.5-10.5q34.5-10.5 54-29T300 253v-88q0-15-9-29zM131 296q-16-1-31-5v-49q15 3 31 4v50zm38-50q16-1 31-4v49q-15 4-31 5v-50zm-131 7v-33q11 7 25 12v47q-12-6-19-13t-7-13h1zm200 26v-47q13-5 25-12v33q-1 6-7.5 13T237 279h1zm-83-114q-5-6-5-13.5t6-12.5L269 39q6-5 13.5-5t12.5 6q5 6 5 14t-6 13L181 167q-5 4-13 4t-13-6z"/></svg>