<svg viewBox="0 0 300 368" xmlns="http://www.w3.org/2000/svg"><path d="M231 246q19 0 34.5-9t25-25q9.5-16 9.5-34v-25q0-17-11.5-30t-29-14q-17.5-1-31 9.5T213 147h-41q-11 0-19.5-7T142 123l-7-24q-5-23-24-38T69 46H56q-23 1-39.5 17T0 103v75q0 26 18 46t45 22v38H19q-8 0-13.5 5.5T0 303q0 8 5.5 13t13.5 5h231q21 0 35.5-14.5T300 272q0-8-5.5-13.5T281 253q-8 0-13.5 5.5T262 271q1 6-3 9.5t-9 3.5h-37v-38h18zM38 178v-75q0-8 5-13.5T56 84h13q11 0 19 6.5T99 108l6 24q6 23 24.5 37.5T172 184h47q13 0 22-9t9-22q0-3 2-5t4.5-2q2.5 0 4.5 2t2 5v25q0 13-9.5 22t-22.5 9H69q-13 0-22-9t-9-22zm137 106h-75v-38h75v38z"/></svg>