<svg viewBox="0 0 300 368" xmlns="http://www.w3.org/2000/svg"><path d="M194 121q13 1 22 10.5t9 23.5q0 11-9 14-6 2-22.5 2t-21.5-2q-10-3-10-14 0-14 9-23.5t23-9.5v-1zm106 63q0-41-20-75.5T225.5 54Q191 34 150 34T74.5 54Q40 74 20 108.5T0 184q0 41 20 75.5T74.5 314q34.5 20 75.5 20t75.5-20q34.5-20 54.5-54.5t20-75.5zm-37 0q0 31-15.5 56.5t-41 40.5Q181 296 150 296t-56.5-15q-25.5-15-41-40.5t-15-56.5q.5-31 15.5-56.5t40.5-41Q119 71 150 71.5T206.5 87q25.5 15 40.5 40.5t15 56.5h1zm-44 45q6-6 6-13.5t-5.5-13q-5.5-5.5-13-5.5t-13.5 5q-18 17-43 19-25-2-43-19-6-5-13.5-5t-13 5.5q-5.5 5.5-5.5 13t6 13.5q14 13 31.5 21t37.5 9q20-1 37.5-9t31.5-21zm-81-76q0-8-5.5-13.5T119 134H94q-8 0-13.5 5.5T75 153q0 8 5.5 13.5T94 172h25q8-1 13-6t6-13z"/></svg>