<svg viewBox="0 0 300 368" xmlns="http://www.w3.org/2000/svg"><path d="M300 128v137q0 19-9.5 34.5t-25 25Q250 334 231 334h-12q-8 0-13.5-5.5T200 315q0-8 5.5-13.5T219 296h12q13 0 22.5-9t9.5-22V146H38v119q0 13 9 22t22 9h12q8 0 13.5 5.5T100 315q0 8-5.5 13.5T81 334H69q-19 0-34.5-9.5t-25-25Q0 284 0 265V128q0-19 9.5-34.5t25-25Q50 59 69 59h6v-6q0-8 5.5-13.5T94 34q8 0 13.5 5.5T113 53v6h75v-6q0-8 5-13.5t13-5.5q8 0 13.5 5.5T225 53v6h6q19 0 34.5 9.5t25 25Q300 109 300 128zm-150 43q-8 0-13.5 5.5T131 190v75q0 8 5.5 13.5T150 284q8 0 13.5-5.5T169 265v-75q0-8-5.5-13.5T150 172v-1zm0 125q-8 0-13.5 5.5T131 315q0 8 5.5 13.5T150 334q8 0 13.5-5.5T169 315q0-8-5.5-13t-13.5-5v-1z"/></svg>