<svg viewBox="0 0 300 368" xmlns="http://www.w3.org/2000/svg"><path d="M251 286q-5 0-9.5-3t-7-7.5q-2.5-4.5-2-10t4.5-9.5q17-21 22.5-46.5t0-51Q254 133 237 112q-5-6-4-13.5t6.5-12.5q5.5-5 13.5-4t13 7q22 27 30 61t0 68q-8 34-30 61-6 7-15 7zm-190-4q6-5 6.5-12.5T63 256q-17-21-22.5-46.5t0-51Q46 133 63 112q5-6 4-13.5T60.5 86Q55 81 47 82t-13 7q-22 27-30 61t0 68q8 34 30 61 5 6 13 7t14-4zm177-98q-2 33-20 56-16 20-42 27t-52 0q-26-7-42-28-18-22-18-55t18-56q16-20 42-27t52 0q26 7 42 28 18 22 19 55h1zm-69 44q0-8-5.5-13.5T150 209q-8 0-13.5 5.5T131 228q0 8 5.5 13t13.5 5q8 0 13.5-5t5.5-13zm0-88q0-8-5.5-13.5T150 121q-8 0-13.5 5.5T131 140v38q0 8 5.5 13.5t13.5 5q8-.5 13.5-5.5t5.5-13v-38z"/></svg>