<svg viewBox="0 0 300 368" xmlns="http://www.w3.org/2000/svg"><path d="M63 309q-1 10 6.5 17.5t18 7.5q10.5 0 17.5-7.5t7.5-17.5q.5-10-7-17.5t-18-7.5Q77 284 70 291.5T63 309zm125 0q-1 10 6.5 17.5t18 7.5q10.5 0 17.5-7.5t7.5-17.5q.5-10-7-17.5t-18-7.5q-10.5 0-17.5 7.5t-7 17.5zm59-110q-3 10-11.5 16.5T217 221H90q-1 0-2.5-1t-1.5-2l-11-84h56q8 0 13.5-5.5T150 115q0-8-5.5-13.5T131 96H71l-4-25q-1-16-13-26.5T26 34h-7q-8 0-13.5 5.5T0 53q0 8 5.5 13T19 72h7q2 0 3 1t1 2l19 147q2 16 13.5 26.5T90 259h127q23 0 41.5-14t24.5-37q3-9-3-16.5t-15-7.5q-6 0-11 4t-7 10v1zm34-128h-18V53q0-8-5.5-13.5T244 34q-8 0-13.5 5.5T225 53v18h-19q-8 0-13.5 5.5t-5 13.5q.5 8 5.5 13.5t13 5.5h19v19q0 8 5.5 13.5t13.5 5q8-.5 13.5-5.5t5.5-13v-19h18q8 0 13.5-5.5T300 90q0-8-5.5-13.5T281 71z"/></svg>