<svg viewBox="0 0 300.0029 368" xmlns="http://www.w3.org/2000/svg"><path d="M281 240q-7 0-13-6-17-16-39.5-22t-45 0q-22.5 6-39.5 22-3 4-8 5t-10 0q-5-1-8.5-4.5T113 226q-1-5 0-10t5-8q24-24 56-32.5t64.5 0Q271 184 295 208q4 4 5 9.5t-1 10.5q-2 5-7 8.5t-11 3.5zm-31 39q6-6 6-13.5t-6-13.5q-12-12-28-16t-32 0q-16 4-28 16-5 6-5 13.5t5.5 13q5.5 5.5 13 5.5t13.5-5q7-8 17.5-8t17.5 8q5 5 13 5t13-5zm-44 17q-8 0-13.5 5.5t-5 13.5q.5 8 5.5 13.5t13 5.5q8 0 13.5-5.5T225 315q0-8-5.5-13.5T206 296zm-75-6q0-8-5.5-13.5T112 271H75q-13 1-23-6t-13-19q-3-12 2-23t16-17q11-6 14.5-18T69 165q-10-20-6-41t18.5-35Q96 75 116 72q13-2 26 1.5t23.5 11q10.5 7.5 17 19T190 127q1 7 5.5 11.5T206 143q15 2 28 11 6 4 14 2.5t12-8q4-6.5 2.5-14T255 122q-14-9-30-13-9-33-37-54-17-13-37-18t-40-2q-32 5-55 27.5t-29 54Q21 148 34 177q-20 12-28.5 34T3 256.5q6 23.5 26 38T75 309h38q7 0 12.5-5.5T131 290z"/></svg>