<svg viewBox="0 0 300 368" xmlns="http://www.w3.org/2000/svg"><path d="M150 334q-14 0-27-5.5T100 313l-47-43q-26-27-35.5-62.5t-.5-71Q26 101 53 74q19-19 44-29.5T150 34q28 0 53 10.5T247 74q27 27 36 62.5t0 71q-9 35.5-36 62.5l-47 44q-10 10-23 15t-27 5zm0-263q-20 0-38.5 8T79 101q-19 19-25.5 45t0 52Q60 224 79 243l47 43q10 10 24 10t24-9l47-44q19-19 25.5-45t0-52q-6.5-26-25.5-45-14-14-32.5-21.5T150 72v-1zm19 132v-10q0-5 2-9.5t6-7.5q14-9 19.5-24t1.5-31q-3-13-12.5-22.5t-22-12.5Q151 83 140 85t-20.5 9.5Q110 102 105 112t-5 22q0 8 5.5 13.5T119 153q8 0 13.5-5.5T138 135q0-7 4.5-11t11.5-2q3 1 5 3t3 6q1 4-.5 8t-4.5 6q-12 7-19 20t-7 28v10q0 8 5.5 13.5T150 222q8 0 13.5-5.5T169 203zm0 50q0-8-5.5-13.5T150 234q-8 0-13.5 5.5T131 253q0 8 5.5 13t13.5 5q8 0 13.5-5t5.5-13z"/></svg>