<svg viewBox="0 0 300 368" xmlns="http://www.w3.org/2000/svg"><path d="M169 184q0 8-5.5 13.5T150 203q-8 0-13.5-5.5T131 184q0-8 5.5-13.5T150 165q8 0 13.5 5.5T169 184zm131 22q0 8-4.5 15T284 231.5q-7 3.5-15 2.5t-14-6q-9-8-16-12-1 17-5 33-9 39-38.5 63T128 336q-8 0-15-4.5T102.5 320q-3.5-7-2.5-15t6-14q7-9 12-18-16-1-33-5-39-9-62-38T0 162q0-8 4.5-15T16 136.5q7-3.5 15-2.5t14 6q9 8 16 12 1-17 5-33 9-39 38-62t68-23q8 0 15 4.5T197.5 50q3.5 7 2.5 15t-6 14q-7 8-12 16 16 1 33 5 39 9 62 38t23 68zm-41-22q-6-18-19.5-30.5T206 136q-10-2-21-3t-17.5.5q-6.5 1.5-13-.5t-10.5-7q-4-5-5.5-11.5t.5-13.5q4-14 12-26-18 5-31 19t-18 34q-2 10-3 21.5t.5 18q1.5 6.5-.5 13t-7 11q-5 4.5-11.5 5.5T67 196q-13-4-26-12 6 18 19.5 30.5T94 232q10 2 21 3t18-1h5q11 0 18 8 4 5 5.5 11.5T161 267q-4 14-12 28 18-6 31-20.5t18-34.5q2-10 3-21.5t-.5-18q-1.5-6.5.5-13t7-11q5-4.5 11.5-5.5t13.5 1q13 4 26 12z"/></svg>