<svg viewBox="0 0 300 368" xmlns="http://www.w3.org/2000/svg"><path d="M244 159h-6v-6q0-24-16.5-40.5T181 96h-6v-6q0-23-16.5-39.5t-40-16.5q-23.5 0-40 16.5T63 90v6h-7q-23 0-39.5 16.5T0 153v62q0 18 8.5 33.5t23.5 25Q47 283 65 284q6 22 24.5 36t41.5 14h100q19 0 34.5-9.5t25-25Q300 284 300 265v-50q0-23-16.5-39.5T244 159zm-81 37h37v19q0 8-5.5 13.5T181 234q-8 0-13-5.5t-5-13.5v-19zM100 90q0-8 5.5-13.5T119 71q8 0 13.5 5.5T137 90v6h-37v-6zM38 215v-62q0-8 5-13.5t13-5.5h125q8 0 13.5 5.5T200 153v6h-81q-24 0-40 16.5T63 215v31q-11-2-18-11t-7-20zm225 50q0 13-9.5 22t-22.5 9H131q-13 0-22-9t-9-22v-50q0-8 5.5-13t13.5-5h6v18q0 24 16.5 40t40 16q23.5 0 40-16t16.5-40v-19h6q8 0 13.5 5.5T263 215v50z"/></svg>