<svg viewBox="0 0 300 368" xmlns="http://www.w3.org/2000/svg"><path d="M207 154l-87 87q-6 6-14 5.5T92.5 241q-5.5-5-5.5-13t6-13l87-88q6-5 14-5t13 5q5 5 5 13t-5 14zm-106 18l37-37q6-6 6-13.5t-5.5-13Q133 103 125 103t-13 5l-38 38q-5 5-5 13t5.5 13.5q5.5 5.5 13 5.5t13.5-6zm125 24q-6-6-13.5-6t-13.5 6l-37 37q-6 6-6 13.5t5.5 13Q167 265 175 265t13-5l38-38q5-5 5-13t-5-13zm74-12q0 41-20 75.5T225.5 314Q191 334 150 334t-75.5-20Q40 294 20 259.5T0 184q0-41 20-75.5T74.5 54Q109 34 150 34t75.5 20Q260 74 280 108.5t20 75.5zm-37 0q0-30-15.5-56t-41-41Q181 72 150 72T93.5 87q-25.5 15-41 40.5t-15 56.5q.5 31 15.5 56.5T93.5 281q25.5 15 56.5 15t56.5-15q25.5-15 41-40.5T263 184z"/></svg>