<svg viewBox="0 0 300 368" xmlns="http://www.w3.org/2000/svg"><path d="M216 34q-20 0-37 14t-29 40q-12-26-29-40T84 34q-23 0-42.5 19.5t-30.5 54Q0 142 0 184t11 76.5q11 34.5 30.5 54T84 334q20 0 37-14t29-40q12 26 29 40t37 14q23 0 42.5-19.5t30.5-54q11-34.5 11-76.5t-11-76.5q-11-34.5-30.5-54T216 34zM84 296q-10 0-21-13.5T45 245q6 1 11 1 13 0 22-9t9.5-22q.5-13-9-22T56 184q-10 0-18 6v-6q0-33 7-60 7-24 18-38.5T84.5 71Q95 71 106 85.5t17 38.5q8 27 8 60t-8 60q-6 24-17 38.5T84 297v-1zm132 0q-11 0-22.5-15T176 241q8 5 18 6 13-1 22-10t9-22q0-13-9-22t-22-9q-8 0-14.5 3t-10.5 9v-12q0-33 8-60 6-24 17-38.5T215.5 71Q226 71 237 85.5t18 38.5q8 27 8 60t-8 60q-7 24-18 38.5T216 297v-1z"/></svg>