<svg viewBox="0 0 300 368" xmlns="http://www.w3.org/2000/svg"><path d="M256 234h-43v-44q0-18-13-31t-31-13h-38q-18 0-30.5 13T88 190v7l-7-1H44q-18 0-31 13T0 240v50q0 18 13 31t31 13h212q18 0 31-13t13-31v-12q0-18-13-31t-31-13zm-131-44q0-2 2-4t4-2h38q2 0 4 2t2 4v106h-50V190zM38 290v-50q0-2 1.5-4t4.5-2h37q3 0 4.5 2t1.5 4v56H44q-3 0-4.5-1.5T38 290zm225 0q0 3-2 5t-5 1h-43v-18q0-3 1.5-5t4.5-2h37q3 1 5 2.5t2 4.5v12zm12-112q0-3-2-4.5t-4-2.5h-6q-6 0-9.5-3.5T250 159q0-5 3.5-9t9.5-4q2 1 4-1t2-4.5q0-2.5-2-4.5t-4-2h-25q-6 0-9.5-3.5t-3.5-9q0-5.5 3.5-9t9.5-3.5h25q12 0 21.5 9t9.5 22q0 8-4 15 10 9 10 22.5t-9 22.5q-9 9-22 9h-31q-6 0-9.5-3.5t-3.5-9q0-5.5 3.5-9t9.5-3.5h31q2 0 4-2t2-4zM50 109q0-5-3.5-8.5t-9-4q-5.5-.5-9 3.5t-3.5 9q0 5-3.5 8.5t-9 3.5q-5.5 0-9-3.5T0 109q0-16 11-27t26.5-11Q53 71 64 82t11 27q0 12-10 22-7 7-22 15h20q5 0 8.5 4t3.5 9q0 5-3.5 9t-8.5 4H20q-7-1-12.5-4.5t-7-9.5Q-1 152 2 146t9-10l11-6q28-15 28-21zm66-37q-4-3-4-8.5t4-8.5l16-16q4-4 9-5t10 1.5q5 2.5 8.5 7T163 52v70q0 5-4 8.5t-9 3.5q-5 0-8.5-3.5T138 122V69l-4 3q-4 4-9 4t-9-3v-1z"/></svg>