<svg viewBox="0 0 300 368" xmlns="http://www.w3.org/2000/svg"><path d="M231 46H131q-18 0-34 9.5T72 81q-9 16-9 34v63q0 18 9 34t25 25.5q16 9.5 34 8.5h100q19 0 34.5-9t25-25q9.5-16 9.5-34v-63q0-18-9.5-34t-25-25.5Q250 46 231 46zm0 38q10 0 19 6l-48 47q-9 9-22 9t-22-9l-46-46q8-7 19-7h100zm0 125H131q-13 0-22-9t-9-22v-46l32 32q20 20 48.5 20t48.5-20l34-34v48q0 13-9.5 22t-22.5 9zm-6 81q0 8-5.5 13.5T206 309H69q-19 0-34.5-9.5t-25-25Q0 259 0 240V128q0-8 5.5-13.5T19 109q8 0 13.5 5.5T38 128v112q0 13 9 22t22 9h137q8 0 13.5 5.5T225 290z"/></svg>