<svg viewBox="0 0 300 368" xmlns="http://www.w3.org/2000/svg"><path d="M22 139l-10 12q-14 18-12 41t20 38l95 91q15 13 35 13t35-14l95-89q17-15 19.5-37.5T288 152l-9-12q-11-15-27.5-23t-34.5-8H83q-18 0-34 8t-27 22zm20 35l10-12q5-8 13.5-12t17.5-3h30l-7 17q-5 13-4 26h96q1-14-4-27l-7-17h30q10 0 18 4.5t14 11.5l9 13q6 7 4 15h-64q0 11-4 20l-37 85q-7 3-14 0l-37-83q-4-11-4-22H38q-2-9 4-16zM205 39l-12 13q-6 5-6 13t5.5 13.5Q198 84 206 84t14-5l12-13q6-5 6-13t-5.5-13.5Q227 34 219 34t-14 5zM94 84q5 0 10-3t7-8.5q2-5.5 1-11t-5-9.5L95 39q-6-5-14-5t-13.5 5.5Q62 45 62 53t6 13l12 13q6 5 14 5zm37-31v12q0 8 5.5 13.5T150 84q8 0 13.5-5.5T169 65V53q0-8-5.5-13.5T150 34q-8 0-13.5 5.5T131 53z"/></svg>