<svg viewBox="0 0 300 368" xmlns="http://www.w3.org/2000/svg"><path d="M188 53q0-8 5-13.5t13-5.5q8 0 13.5 5.5T225 53q0 8-5.5 13T206 71q-8 0-13.5-5T187 53h1zm13 90q5 3 11 3 10 0 15-7l57-75q4-6 3-14t-7-12.5q-6-4.5-14-3.5t-12 7l-56 75q-5 7-4 14.5t7 12.5zm80-34q-8 0-13 5.5t-5 13.5q0 8 5 13.5t13 5q8-.5 13.5-5.5t5.5-13q0-8-5.5-13.5T281 109zm7 112v66q-1 14-11 24.5T248 328q-19 6-42 6-19 0-35-4t-27-12q-11 8-27.5 12T81 334q-23 0-41.5-6t-29-16.5Q0 301 0 287V96q0-14 10.5-25.5t29-18Q58 46 81 46t42 6.5q19 6.5 29 18T162 96v83q20-7 43.5-7.5t42.5 6q19 6.5 29.5 18T287 221h1zM38 96q3 5 13 8 14 5 30.5 5t29.5-5q10-3 14-7-4-5-14-8-13-5-29.5-5T51 89q-10 3-13 7zm87 168q-19 7-43.5 7T37 264v21q4 4 14 7 13 5 30 4.5t31-4.5q9-3 13-7v-21zm0-62q-19 7-43.5 7T37 202v19q2 4 13 8 14 5 31.5 5t30.5-5q11-4 13-8v-19zm0-63q-19 7-43.5 7.5T37 139v20q2 3 13 7 14 6 31.5 5.5T112 166q11-4 13-8v-19zm38 82q3 5 13 8 14 5 30.5 5t29.5-5q10-3 14-7-4-5-14-8-13-5-29.5-5t-30.5 5q-10 3-13 7zm87 43q-19 7-43.5 7t-43.5-7v21q3 4 13 7 13 5 30 4.5t31-4.5q9-3 13-7v-21z"/></svg>