<svg viewBox="0 0 300 368" xmlns="http://www.w3.org/2000/svg"><path d="M284 50q-17-16-40-16h-50q-24 0-40 16.5T138 90v85q0 9 6 15t15 6q6 0 11-2l35-23h39q23 0 39.5-16t16.5-40V90q0-23-16-40zm-21 65q0 8-5.5 13.5T244 134h-44q-6 0-10 3l-15 9V90q0-7 5.5-12.5T194 72h50q8 0 13.5 5.5T263 90v25zm-13 125v25q0 8-5.5 13.5T231 284h-6q-3 21-19 35.5T169 334H81q-21 0-37-14.5T25 284h-6q-8 0-13.5-5.5T0 265v-25q0-8 5.5-13.5T19 221h6q3-21 19-35t37-14h13q8 0 13.5 5t5 13q-.5 8-5.5 13.5T94 209H81q-8 0-13 5.5T63 228v50q0 8 5 13.5t13 5.5h88q8-1 13-6t5-13v-50q0-8 5.5-13.5T205 209q7 0 12 3.5t7 9.5h7q8-1 13.5 4.5T250 240zm-94 31q-8 0-13.5-5t-5.5-13q0-8 5.5-13.5T156 234q8 0 13.5 5.5T175 253q0 8-5.5 13t-13.5 5zm-43-18q-1 8-6 13t-13 5q-8 0-13.5-5T75 253q0-8 5.5-13.5T94 234q8 0 13.5 5.5T113 253z"/></svg>