<svg viewBox="0 0 300 368" xmlns="http://www.w3.org/2000/svg"><path d="M106 96q8 0 13.5 5.5T125 115q0 8-5.5 13.5T106 134q-8 0-13-5.5T88 115q0-8 5-13.5t13-5.5zm63 22l-4 18-18 4q-4 1-6.5 4.5T138 152q0 4 2.5 7.5t6.5 4.5l18 5 4 18q1 4 4.5 7t8 3q4.5 0 7.5-3t5-7l4-18 18-4q4-1 6.5-4.5t2.5-7.5q0-4-2.5-7.5T216 141l-18-5-4-17q-2-5-5-7.5t-7.5-2.5q-4.5 0-8 2.5T169 119v-1zm39-23l22 9 8 22q2 4 5 6t7 2q4 0 7-2t5-6l8-22 22-8q4-2 6-5t2-7q0-4-2-7t-6-5l-22-8-8-22q-2-4-5-6t-7-2q-4 0-7 2t-5 6l-8 21-22 9q-3 1-5.5 4t-2.5 7q0 4 2 7.5t6 4.5zm92 70v100q0 19-9.5 34.5t-25 25Q250 334 231 334H69q-19 0-34.5-9.5t-25-25Q0 284 0 265V103q0-19 9.5-34.5t25-25Q50 34 69 34h100q8 0 13.5 5.5T188 53q0 8-5.5 13T169 71H69q-13 0-22 9.5T38 103v63q14-9 30.5-7T97 173l70 70q3 3 8 3t8-3l7-7q15-15 35-15t35 15l3 2v-73q0-8 5-13.5t13-5.5q8 0 13.5 5.5T300 165zm-44 120l-23-23q-3-3-8-3t-8 3l-8 8q-14 14-34 14t-34-14l-70-70q-4-3-9-3t-8 3l-17 17v48q0 13 9.5 22.5T69 297h162q15 0 25-12z"/></svg>