<svg viewBox="0 0 300 368" xmlns="http://www.w3.org/2000/svg"><path d="M272 271h9q8 1 13.5-4.5T300 253q0-8-5.5-13.5T281 234h-9q-2-6-6-11l8-8h4q9 0 15.5-6.5T300 193q0-9-6.5-15t-15.5-6q-9 0-15.5 6t-6.5 15l1 4-8 8q-6-3-11-5v-10q0-8-5.5-13t-13.5-5q-8 0-13.5 5t-5.5 13v10q-6 2-11 5l-8-8v-4q0-9-6.5-15t-15.5-6q-9 0-15 6t-6 15q0 9 6 15.5t15 6.5h4l8 8q-3 5-5 11h-10q-7 0-12.5 5.5T138 253q0 8 5.5 13t12.5 5h10q2 6 5 12l-8 8-4-1q-9 0-15 6.5t-6 15.5q0 9 6 15.5t15 6.5q9 0 15.5-6.5T181 312v-4l8-8q5 4 11 6v9q0 8 5.5 13.5T219 334q8 0 13.5-5.5T238 315v-9q5-2 11-6l8 8-1 4q0 9 6.5 15.5T278 334q9 0 15.5-6.5T300 312q0-9-6.5-15.5T278 290l-4 1-8-8q4-6 6-12zm-72-18q0-8 5.5-13.5T219 234q8 0 13 5.5t5 13.5q0 8-5 13.5t-13 5.5q-8 0-13.5-5.5T200 253zm-47-107h16q8 0 13-5t5-13q0-8-5-13.5t-13-5.5h-16q-2-8-7-16l10-10q3 1 7 1 10 0 17.5-7.5T188 59q0-10-7.5-17.5t-18-7.5Q152 34 145 41.5T138 59v6l-10 11q-7-5-15-8V53q0-8-5.5-13.5T94 34q-8 0-13.5 5.5T75 53v15q-8 3-16 8L49 65q1-3 1-6 0-10-7.5-17.5T25 34q-10 0-17.5 7.5T0 59q0 10 7.5 17.5T25 84q3 0 6-1l11 10q-5 8-8 16H19q-8 0-13.5 5.5T0 128q0 8 5.5 13.5T19 147h15q3 8 8 15l-11 10q-3-1-6 0-10-1-17.5 6.5t-7.5 18Q0 207 7.5 214t17.5 7q10 0 17.5-7t7.5-18q0-3-1-6l10-10q8 5 16 7v16q0 8 5.5 13.5t13.5 5q8-.5 13.5-5.5t5.5-13v-16q14-4 25-15t15-25v-1zm-59-43q10 0 17.5 7t7.5 17.5q0 10.5-7.5 18t-18 7.5Q83 153 76 145.5t-7-18q0-10.5 7-17.5t18-7z"/></svg>