<svg viewBox="0 0 300.5006 368" xmlns="http://www.w3.org/2000/svg"><path d="M119 334H19q-8 0-13.5-5.5T0 315q0-8 5.5-13.5T19 296h100q8 0 13.5 5.5T138 315q0 8-5.5 13.5T119 334zm-25-63H19q-8 0-13.5-5T0 253q0-8 5.5-13.5T19 234h75q8 0 13 5.5t5 13.5q0 8-5 13.5T94 271zm-25-62H19q-8 0-13.5-5.5T0 190q0-8 5.5-13t13.5-6h50q8 0 13.5 5.5T88 190q0 8-5.5 13.5T69 209zm112 122q-7 0-12.5-5t-6-12q-.5-7 3.5-13t11-7q25-7 44.5-23t30.5-39.5q11-23.5 10.5-49T251 134q-11-23-31.5-39T174 73.5q-25-5.5-50 .5T79 96q-20 16-31 40-3 7-10.5 9.5t-14.5-1q-7-3.5-9.5-10.5t.5-14q15-32 41.5-53T115 38q33-8 67-.5T242.5 66q26.5 21 42 51.5t16 65q.5 34.5-14 65t-41 52.5Q219 322 186 330l-5 1zm-25-222q-8 0-13.5 5.5T138 128v53q0 11 7 18l22 22q6 6 13.5 6t13-5.5q5.5-5.5 5.5-13t-5-13.5l-19-19v-48q0-8-5.5-13.5T156 109z"/></svg>