<svg viewBox="0 0 300 368" xmlns="http://www.w3.org/2000/svg"><path d="M300 103v112q0 16-6.5 30T275 268v22q0 8-5.5 13.5T256 309q-8 0-13-5.5t-5-13.5v-6h-44q-8 0-13.5-5.5T175 265q0-8 5.5-13t13.5-5h37q11 0 20-7.5t11-17.5h-6q-8 0-13-5.5t-5-13.5q0-8 5-13.5t13-5.5h7v-50h-7q-8 0-13-5.5t-5-13.5q0-8 5-13t13-5h6q-2-11-11-18.5T231 71H69q-9 0-16 4.5T42 87q-4 7-11.5 9T16 94q-7-4-9-11.5T9 68q9-16 25-25t35-9h162q19 0 34.5 9.5t25 25Q300 84 300 103zM175 217q18-6 29.5-22t11.5-36q0-17-8.5-31.5t-23-23Q170 96 153 96q-8 0-17 3 18 10 28.5 25.5T175 159v58zm-25-58v128q0 20-21 33.5T75 334q-33 0-54-13.5T0 287V159q0-14 10-25.5t27-18q17-6.5 38-6.5t38 6.5q17 6.5 27 18t10 25.5zm-37 44q-17 6-37.5 6T38 203v18q1 4 10 8 11 5 26.5 5t27.5-5q9-4 11-8v-18zm-75-44q1 4 10 8 12 4 27 4t27-4q9-4 10-8-1-4-10-8-12-4-27-4.5T48 151q-9 4-10 8zm75 127v-21q-17 6-37.5 6T38 265v21q2 3 11 7 12 4 26 3.5t26-3.5q9-4 11-7h1z"/></svg>