<svg viewBox="0 0 300 368" xmlns="http://www.w3.org/2000/svg"><path d="M150 34q-41 0-75.5 20T20 108.5Q0 143 0 184t20 75.5Q40 294 74.5 314t75.5 20q41 0 75.5-20t54.5-54.5q20-34.5 20-75.5t-20-75.5Q260 74 225.5 54T150 34zm0 262q-31 0-56.5-15T53 240.5Q38 215 38 184t15-56.5Q68 102 93.5 87T150 71.5q31-.5 56.5 15t41 41Q263 153 263 184t-15.5 56.5Q232 266 206.5 281T150 296zm-18-142q-18 17-45 17h-8q-8-1-12.5-7T63 150q1-8 7-12.5t13-3.5q14 1 23-7 5-6 13-5.5t13.5 6q5.5 5.5 5.5 13t-6 13.5zm89 17q-4 1-8 1-26 0-45-18-5-5-5.5-13t5-13.5Q173 122 181 122t13 5q9 8 23 7 7-1 13 4t7 12.5q1 7.5-3.5 13.5t-12.5 7zm-12 58q5 6 3.5 13t-7.5 10.5q-6 3.5-13 1.5-22-7-42-7t-42 7q-7 2-13-1.5T87.5 242q-1.5-7 3.5-13 12-14 24-22 17-10 35.5-10t34.5 10q12 8 24 22z"/></svg>