<svg viewBox="0 0 300 368" xmlns="http://www.w3.org/2000/svg"><path d="M250 315q0 8-5.5 13.5T231 334H69q-8 0-13.5-5.5T50 315q0-8 5.5-13t13.5-5h162q8-1 13.5 4.5T250 315zm-131-81q-8 0-13.5 5.5T100 253q0 8 5.5 13t13.5 5h62q8 1 13.5-4.5T200 253q0-8-5.5-13.5T181 234h-62zm94-44q-1-8-6-13.5t-13-5.5h-88q-8 1-13.5 6t-5 13q.5 8 5.5 13.5t13 5.5h88q8 0 13-5.5t5-13.5h1zM94 146h112q8 0 13.5-5t5.5-13q0-8-5.5-13.5T206 109H94q-8 0-13.5 5.5T75 128q0 8 5.5 13t13.5 5zm37-62h38q8 0 13-5.5t5.5-13.5q.5-8-5-13.5T169 46h-38q-8 0-13 5.5T113 65q0 8 5 13.5t13 5.5zM56 262l4-18 18-4q4-1 6.5-4.5t2.5-8q0-4.5-2.5-7.5t-6.5-4l-18-5-4-18q-1-4-4.5-6.5t-8-2.5q-4.5 0-7.5 2.5t-4 6.5l-5 18-17 4q-5 1-7.5 4.5T0 227q0 4 2.5 7.5T9 239l18 5 5 18q1 4 4 7t7.5 3q4.5 0 8-3t4.5-7zM294 63l-16-7-7-16q-2-6-8.5-6t-8.5 6l-7 16-16 6q-6 3-6 9t6 9l16 7 7 16q2 6 8.5 6t8.5-6l7-16 16-7q6-2 6-8.5t-6-8.5z"/></svg>