<svg viewBox="0 0 300 368" xmlns="http://www.w3.org/2000/svg"><path d="M21 149q28 16 57 32 9 4 19 4 14 0 26-8 10-7 15.5-17.5T144 137v-3h25q4 6 10.5 9t14.5 3h50q13 0 22-9t9-22q0-13-9-22t-22-9h-50q-8 0-14.5 3.5T169 96h-25v-2q0-11-5.5-21.5T123 55q-10-7-22-8t-23 4L21 82Q11 87 5.5 96T0 115.5Q0 126 5.5 135T21 149zm17-34l56-30q4-1 8.5 1.5T107 95v42q0 6-4.5 8.5T94 147l-56-31v-1zm212 56h-69q-8 0-13.5 5.5T162 190v44H19q-8 0-13.5 5.5T0 253v31q0 21 14.5 35.5T50 334h200q21 0 35.5-14.5T300 284v-63q0-20-14.5-35T250 171zm-50 38h50q5 0 9 3.5t4 8.5v13h-63v-25zM38 284v-13h87v25H50q-5 0-8.5-3.5T38 284zm225 0q-1 5-4.5 8.5T250 296h-87v-25h100v13z"/></svg>