<svg viewBox="0 0 300 368" xmlns="http://www.w3.org/2000/svg"><path d="M98 225q-3-7-3.5-13.5t4.5-9q5-2.5 9 1.5l40 41q5 4 2 9t-9 4q-6-1-13-4-10-4-17.5-11.5T98 225zm197 104q-6 5-14 5t-13-5L5 66q-5-5-5-13t5.5-13.5Q11 34 19 34t13 5l49 50 17-20q10-10 24-10h56q14 0 24 10l25 28q26 3 43.5 22.5T288 165v88q0 18-9 33l16 16q5 5 5 13t-5 13v1zM108 115l32 32h10q23-1 39.5 15.5T206 203q0 5-1 10l45 44v-92q0-13-9-22t-22-9q-9 0-15-6l-28-32h-52l-16 19zm73 169H81q-13 0-22-9t-9-22v-88q0-8-5.5-13.5t-13.5-5q-8 .5-13 5.5t-5 13v88q-1 18 8.5 34T47 312.5q16 9.5 34 8.5h100q8 0 13.5-5t5.5-13q0-8-5.5-13.5T181 284z"/></svg>