<svg viewBox="0 0 300 368" xmlns="http://www.w3.org/2000/svg"><path d="M213 315q0 8-5.5 13.5T194 334q-23 0-39.5-16.5T138 278q0-8 5-13.5t13-5.5q8 0 13.5 5.5T175 278q0 8 5.5 13t13.5 5q8 0 13.5 5.5T213 315zM200 95v58q0 8 5.5 13t13.5 5q8 0 13.5-5t5.5-13V53q0-6-3.5-10.5t-8.5-7q-5-2.5-11-1.5t-9 5l-25 25q-6 6-6 14t6 13q3 4 8.5 5t10.5-1zm-99 103q-5-2-11-1t-9 5l-25 25q-6 6-6 13.5t6 13.5q3 4 8.5 5t10.5-1v57q0 8 5.5 13.5T94 334q8 0 13.5-5.5T113 315V215q0-5-3.5-10t-8.5-7zm194 131q-6 5-13.5 5t-13.5-5L6 66q-6-6-6-13.5t5.5-13Q11 34 18.5 34T32 39l17 17q8-10 19.5-16T94 34q23 0 39.5 16.5T150 90v25q0 18-10 32l49 50 5-1q23 0 39.5 16.5T250 253v4l45 45q5 6 5 13.5t-5 12.5v1zM76 84l36 35 1-4V90q0-8-5.5-13.5T95 71q-7 0-12 3.5T76 84z"/></svg>