<svg viewBox="0 0 300 368" xmlns="http://www.w3.org/2000/svg"><path d="M213 184q19-17 32-39.5T262 96q2-11-1.5-22.5t-11-20.5Q242 44 231 39t-23-5H92q-12 0-22.5 5T51 53q-8 9-11 20.5T38 96q5 26 17.5 48.5T88 184q-20 17-32.5 39.5T38 272q-1 11 2 22.5T51 315q8 9 18.5 14t22.5 5h116q12 0 23-5t18.5-14q7.5-9 11-20.5T262 272q-4-26-17-48.5T213 184zm8 106q-5 6-13 6H92q-8 0-13-5.5T75 277q7-42 53-78 7-6 7-15t-7-15q-46-36-53-78-1-8 4-13.5T92 72h116q8 0 13 5.5t4 13.5q-6 42-52 78-7 6-7 15t7 15q46 36 52 78 1 8-4 13zm-61-66l-3-3q-3-2-7-2t-7 2l-3 3q-18 13-27 33-2 5 1.5 10t8.5 4h54q5 0 8.5-4.5t1.5-9.5q-9-20-27-33z"/></svg>