<svg viewBox="0 0 300.002 368" xmlns="http://www.w3.org/2000/svg"><path d="M131 215V89q0-7-3-12t-10-5.5q-7-.5-12.5 5.5T100 90.5q0 7.5-5.5 13t-13 5.5q-7.5 0-13.5 4.5T62 125l1 3q1 6-1.5 11.5T54 147q-8 5-12 11.5T38 172q-1 10 6 18 4 5 4 12t-4 12q-6 8-6 17t4 15.5q4 6.5 11 10.5t9 12q3 12 12.5 19.5T96 296q8 0 15-3t14.5-.5q7.5 2.5 10.5 10t.5 14.5q-2.5 7-9.5 10-15 7-31 7-23 0-41.5-13.5T28 286q-13-10-20.5-24T0 232q0-16 7-30-7-14-7-29t6.5-28.5Q13 131 25 122q1-17 12-30t28-18q5-18 20-29t33.5-11Q137 34 151 46q14-12 32.5-12T216 45q14 11 19 29 17 4 28 17t12 30q10 8 16.5 19t8.5 23q1 7-3.5 13.5T284 184h-3q-7 0-12-4.5t-6-11q-1-6.5-5.5-12t-10.5-9q-6-3.5-8.5-9T237 127v-3q0-7-5.5-11t-13-4q-7.5 0-13-5.5t-5.5-13q0-7.5-4.5-13.5t-11-6q-6.5 0-11 5T169 89v126q0 8-5.5 13.5T150 234q-8 0-13.5-5.5T131 215zm128-11q-4-3-9-3t-8.5 3.5Q238 208 238 213v21h-19q-24 0-40.5 16.5T162 290v25q1 8 6 13.5t13 5.5q8 0 13.5-5.5T200 315v-25q0-8 5.5-13.5T219 271h19v21q0 6 3.5 9.5t8.5 3.5q5 0 9-4l37-39q4-4 4-9t-4-9l-37-40z"/></svg>