<svg viewBox="0 0 300 368" xmlns="http://www.w3.org/2000/svg"><path d="M150 334q-14 0-27-5.5T100 313l-47-43q-26-27-35.5-62.5t-.5-71Q26 101 53 74q19-19 44-29.5T150 34q28 0 53 10.5T247 74q27 27 36 62.5t0 71q-9 35.5-36 62.5l-47 44q-10 10-23 15t-27 5zm0-263q-20 0-38.5 8T79 101q-19 19-25.5 45t0 52Q60 224 79 243l47 43q10 10 24 10t24-9l47-44q19-19 25.5-45t0-52q-6.5-26-25.5-45-14-14-32.5-21.5T150 72v-1zm57 127q6-6 6-13.5t-5.5-13Q202 166 194 166t-14 5q-12 13-30 13t-30-13q-6-5-14-5t-13.5 5.5q-5.5 5.5-5.5 13t6 13.5q11 11 26 17t31 6q16 0 31-6t26-17zm-88-89q-8 0-13.5 5.5T100 128q0 8 5.5 13.5T119 147q8 0 13.5-5.5t5-13.5q-.5-8-5.5-13.5t-13-5.5zm62 0q-8 0-13.5 5.5t-5 13.5q.5 8 5.5 13.5t13 5.5q8 0 13.5-5.5T200 128q0-8-5.5-13.5T181 109z"/></svg>