<svg viewBox="0 0 300 368" xmlns="http://www.w3.org/2000/svg"><path d="M88 140q-1-13 8.5-22.5T119 109q7 0 12 4.5t6 11.5q1 7-2.5 13t-10.5 8q-2 5-7 8.5t-11 4.5q-8 0-13-5.5T87 140h1zm88 18q2 7 7.5 10.5T196 171q7-1 12-6t5-12q0-13-9.5-22.5T181 122q-7 0-12.5 5t-5.5 12q0 7 3.5 12t9.5 7zm105 47q-8 38-17 75-5 23-24 38.5T197 334h-94q-24 0-43-15.5T36 279l-17-72q-10-8-15-20.5T0 161q1-13 7.5-24T25 118q3-18 15.5-31T71 72q7-9 17-14t21-5h4q10-9 21.5-14t24.5-5q19 0 35 10t25 28q18 0 32.5 11t20.5 29q12 7 19 18.5t8.5 25.5q1.5 14-3.5 27t-15 22zM38 165q0 8 5 13.5t13 5.5h19q22 0 38 15 15-15 37-15t38 15q15-15 37-15h16q7 0 13.5-5t8-12.5Q264 159 260 152t-11-10q-5-2-8-6t-4-9q-1-8-7-13t-14-5h-11q-6 0-11.5-4t-7-11.5q-1.5-7.5-7-13.5t-14-8q-8.5-2-16 1t-13 10q-5.5 7-14.5 7h-13q-3 0-5.5 2t-3.5 4q-2 6-7 9.5T82 109h-4q-6 0-10.5 4.5T63 125v5q-1 6-4 11t-9 7q-6 2-9 6.5T37 165h1zm60 131l-4-56q0-8-5.5-13T75 221H61l11 50q2 10 9 16.5t17 8.5zm65 0l6-56q-1-8-6.5-13t-13-5q-7.5 0-12.5 5.5t-6 12.5l4 56h28zm76-75h-14q-8 1-13.5 6t-5.5 13l-6 56q10-1 17.5-7.5T228 272l11-51z"/></svg>