<svg viewBox="0 0 300 368" xmlns="http://www.w3.org/2000/svg"><path d="M247 74q-19-19-44.5-29.5T150 34q-27 0-52.5 10.5T53 74q-27 27-36 62.5t.5 71.5Q27 244 53 270l47 43q14 14 32 18.5t36 0q18-4.5 32-17.5l47-44q27-27 36-62.5t0-71Q274 101 247 74zm-26 169l-47 44q-10 9-24 9t-24-10l-47-43q-19-19-25.5-45t0-52Q60 120 79 101q14-14 32.5-21.5T150 72q20 0 38.5 7.5T221 101q19 19 25.5 45t0 51.5Q240 223 221 243zm-26-27q-6 6-13.5 6t-13.5-6l-31-31q-6-6-6-14v-43q0-8 5.5-13.5T150 109q8 0 13.5 5.5T169 128v36l26 25q5 6 5 14t-5 13z"/></svg>