<svg viewBox="0 0 300 368" xmlns="http://www.w3.org/2000/svg"><path d="M231 34H69q-19 0-34.5 9.5t-25 25Q0 84 0 103v162q0 19 9.5 34.5t25 25Q50 334 69 334h162q19 0 34.5-9.5t25-25Q300 284 300 265V103q0-19-9.5-34.5t-25-25Q250 34 231 34zm32 231q0 13-9.5 22t-22.5 9H69q-13 0-22-9t-9-22V103q0-13 9-22.5T69 72h162q13-1 22.5 8.5T262 103l1 162zm-25-125q-1 8-6 13.5t-13 5.5q-8 0-13.5-5.5T200 140q0-2-2-4t-4-2h-25v100q8 0 13.5 5.5T188 253q0 8-5.5 13.5T169 271h-38q-8 0-13-5t-5.5-13q-.5-8 5-13.5T131 234V134h-25q-2 0-4 2t-2 4q0 8-5.5 13.5T81 159q-8 0-13.5-5.5T62 140q0-18 13-31t31-13h88q18 1 30.5 13.5T237 140h1z"/></svg>