<svg viewBox="0 0 300 368" xmlns="http://www.w3.org/2000/svg"><path d="M133 154l-19 18 18 17q5 6 5.5 13.5t-5 13.5q-5.5 6-13.5 5.5t-13-5.5l-21-19q-10-11-10-25t10-24l21-21q6-5 13.5-5t13 5q5.5 5 5.5 13t-5 14zm61-27q-6-5-13.5-5t-13 5q-5.5 5-5.5 13t5 14l19 18-18 17q-5 6-5.5 13.5t5 13.5q5.5 6 13.5 6t13-6l21-20q10-10 10-24t-10-24l-21-21zm106 132v14q0 10-7 17t-16 7H23q-9 0-16-7t-7-17v-14q0-10 7.5-17.5T25 234v-94q0-18 9.5-34t25-25Q75 72 94 72h112q19 0 34.5 9t25 25q9.5 16 9.5 34v94q10 0 17.5 7.5T300 259zm-104-25h42v-94q0-13-9.5-22t-22.5-9H94q-13 0-22.5 9T63 140v94h41l11 13h70l11-13z"/></svg>