<svg viewBox="0 0 301 368" xmlns="http://www.w3.org/2000/svg"><path d="M123 293q-28-7-49-26t-30.5-45.5Q34 195 39 166.5t22-51q17-22.5 43-34t55-9.5q29 2 52.5 17.5t37 40.5q13.5 25 13.5 54 1 8 6 13.5t13 5.5q8 0 13.5-5.5T300 184q0-39-18-72t-50-53.5q-32-20.5-70-24t-72.5 12Q55 62 31.5 92T2 160q-6 38 6.5 73.5T49 295q28 26 65 35h5q7 0 12-4.5t6-11.5q1-7-3-13t-11-8zm172-60q-5-5-13-5t-13 5l-60 60-27-28q-5-6-13-6t-13.5 5.5q-5.5 5.5-5.5 13t5 13.5l33 34q8 9 20 9h1q12 0 21-9l65-65q6-6 6-13.5t-6-13.5zM131 128v44l-30 19q-6 4-8 11.5t2 14q4 6.5 12 8.5t14-2l36-23q6-3 9-9t3-12v-51q0-8-5.5-13.5T150 109q-8 0-13.5 5.5T131 128z"/></svg>