<svg viewBox="0 0 300 368" xmlns="http://www.w3.org/2000/svg"><path d="M295 302l-32-32q5-2 8.5-6.5T275 252q0-7-5.5-12.5T257 234q-7 0-11.5 3.5T239 246l-14-13 2-24q11-2 17-9t6-16q0-13-20-45-13-23-22-34-20-26-50-38t-62-7q-17 3-32 11L32 39q-6-5-13.5-5t-13 5.5Q0 45 0 53t6 13l262 262q5 6 13 6t13.5-5.5Q300 323 300 315t-5-13zM102 98q22-4 42 4t34 26q14 18 28 44-6 1-10 5.5t-5 11.5v9l-98-98q5-2 9-2zm161 105q0-8 5-13.5t13-5.5q8 0 13.5 5.5T300 203q0 8-5.5 13t-13.5 5q-8 0-13-5t-5-13zm-88 62v6q0 16-11 27t-26 11H75q-16 0-26.5-11.5T38 270v-12q0-7-5-13-34-40-33-80 1-14 8-32 2-7 9.5-10t14.5-.5q7 2.5 10 10t0 14.5q-4 12-5 19-1 26 24 55 14 16 14 37v14h62v-7q0-7 5.5-12.5T156 247q8 0 13.5 5.5T175 265z"/></svg>