<svg viewBox="0 0 300 368" xmlns="http://www.w3.org/2000/svg"><path d="M253 176l-103-25V78q0-8-5.5-13.5T131 59q-8 0-13 5.5T113 78v169q0 1-1.5 1.5t-2.5-.5l-32-32q-7-5-16-4.5T45 219q-7 7-7.5 16.5T43 252l43 46q8 12 24 21 25 15 59 15h69q16 0 30.5-8.5t23-23Q300 288 300 272v-35q0-22-13-38.5T253 176zm10 95q0 11-7.5 18t-17.5 7h-69q-27 0-45-12l2-1q11-4 17.5-14t6.5-22v-58l94 24q8 2 13.5 8.5T263 237v34zM50 172q-8 0-13.5-5.5T31 153V96H12q-5 0-8.5-3.5t-3.5-8Q0 80 3 76l38-38q4-4 9-4t8 4l38 38q4 4 4 8.5t-3.5 8Q93 96 88 96H69v57q0 8-5.5 13.5T50 172z"/></svg>