<svg viewBox="0 0 300 368" xmlns="http://www.w3.org/2000/svg"><path d="M231 34H69q-19 0-34.5 9.5t-25 25Q0 84 0 103v162q0 19 9.5 34.5t25 25Q50 334 69 334h162q19 0 34.5-9.5t25-25Q300 284 300 265V103q0-19-9.5-34.5t-25-25Q250 34 231 34zm32 231q0 13-9.5 22t-22.5 9H69q-13 0-22.5-9T37 265V103q1-13 10-22.5T69 71h162q13 0 22 9.5t9 22.5v162h1zm-138-94v69q0 8-5.5 13.5T106 259q-8 0-13.5-5.5T87 240v-69H68q-5 0-8.5-3.5t-3.5-8q0-4.5 4-8.5l38-38q3-3 8-3t9 3l38 38q3 4 3 8.5t-3.5 8Q149 171 144 171h-19zm115 46l-38 38q-3 3-8 3t-9-3l-38-38q-3-4-3-8.5t3.5-8q3.5-3.5 8.5-3.5h19v-69q0-8 5.5-13.5T194 109q8 0 13.5 5.5T213 128v69h19q5 0 8.5 3.5t3.5 8q0 4.5-4 8.5z"/></svg>