<svg viewBox="0 0 300 368" xmlns="http://www.w3.org/2000/svg"><path d="M150 334q-41 0-75.5-20T20 259.5Q0 225 0 184t20-75.5Q40 74 74.5 54T150 34q41 0 75.5 20t54.5 54.5q20 34.5 20 75.5t-20 75.5Q260 294 225.5 314T150 334zm0-263q-31 0-56.5 15.5t-40.5 41Q38 153 38 184t15 56.5Q68 266 93.5 281t56.5 15q31 0 56.5-15t40.5-40.5q15-25.5 15.5-56.5t-15-56.5q-15.5-25.5-41-41T150 72v-1zM95 209l-16 12q-4 4-4 10t4 10l7 8q10 10 25 10 22 0 49.5-18t46-45q18.5-27 18.5-51 0-15-10-25l-8-7q-4-4-10-4t-10 4l-12 16q-5 5-5 10.5t5 10.5l10 13q-16 41-56 56l-13-10q-5-5-10.5-5T95 209z"/></svg>