<svg viewBox="0 0 300 368" xmlns="http://www.w3.org/2000/svg"><path d="M231 159h-38l18-50q3-7 0-14t-10.5-9.5Q193 83 186 86t-10 10l-23 63h-8l11-104q1-8-4-14t-12.5-6.5q-7.5-.5-13.5 4T119 51l-11 103L94 50q-1-8-7.5-12.5t-14-3.5Q65 35 60 41.5T56 55l15 104H61L36 96q-3-7-10-10.5T12 85Q5 88 1.5 95T1 109l22 55q-8 5-13.5 11.5t-8 16Q-1 201 1 211l12 67q4 24 23.5 40T81 334h150q19 0 34.5-9t25-25q9.5-16 9.5-35v-37q0-19-9.5-34.5t-25-25Q250 159 231 159zm31 62H151q2-10 10.5-17.5T181 196h50q11 0 20 7.5t11 17.5zM50 271l-12-67q-1-3 1-5.5t5-2.5h76q-7 15-7 32v37q0 17 7 31H81q-12 0-20.5-7T50 271zm181 25h-50q-13 0-22-9t-9-22v-6h20l33 22q4 3 9.5 3t9.5-3l33-22h8v6q0 13-9.5 22t-22.5 9z"/></svg>