<svg viewBox="0 0 300 368" xmlns="http://www.w3.org/2000/svg"><path d="M125 315q0 8-5.5 13.5T106 334H69q-19 0-34.5-9.5t-25-25Q0 284 0 265V128q0-19 9.5-34.5t25-25Q50 59 69 59h6v-6q0-8 5.5-13.5T94 34q8 0 13.5 5.5T113 53v6h75v-6q0-8 5-13.5t13-5.5q8 0 13.5 5.5T225 53v6h6q19 0 34.5 9.5t25 25Q300 109 300 128q0 8-5.5 13t-13.5 5H38v119q0 13 9 22t22 9h37q8 0 13.5 5.5T125 315zm175-62q0 22-11 40.5T259.5 323Q241 334 219 334t-41-11q-19-11-29.5-29.5T138 253q0-22 10.5-41t29.5-30q19-11 41-11t40.5 11q18.5 11 29.5 30t11 41zm-52 3l-10-11v-17q0-8-5.5-13.5T219 209q-8 0-13.5 5.5T200 228v22q0 11 7 18l15 14q5 6 13 6t13.5-5.5Q254 277 254 269t-6-13z"/></svg>