<svg viewBox="0 0 300 368" xmlns="http://www.w3.org/2000/svg"><path d="M61 259q-2 6-6.5 9T44 271q-3 0-6-1-17-6-27.5-20.5T0 217v-75q0-16 7-30t19-24l50-39q19-15 42.5-15T161 49l14 10v-6q0-8 5.5-13.5T194 34q8 0 13.5 5.5T213 53v36q8 7 14 16 4 7 2.5 14.5t-8 11.5q-6.5 4-14.5 2.5t-12-8.5q-2-4-7-8l-50-39q-9-7-19.5-7T100 78l-50 39q-12 10-12 25v75q0 6 3 11t9.5 7.5q6.5 2.5 10 9.5t.5 14zm239 50q0 10-7.5 17.5T275 334H100q-10 0-17.5-7.5T75 309q0-7 3.5-12.5T88 287v-72q0-23 16.5-39.5T144 159h87q24 0 40.5 16.5T288 215v72q5 4 8.5 9.5T300 309zm-70-25h20v-69q0-8-5.5-13.5T231 196h-87q-8 0-13.5 5.5T125 215v69h20q5 0 9 4l5 5q4 3 9 3h39q5 0 9-3l5-5q4-4 9-4z"/></svg>