<svg viewBox="0 0 300 368" xmlns="http://www.w3.org/2000/svg"><path d="M219 34H106q-19 0-35.5 10T45 71H31q-8 0-13.5 5.5t-5 13.5q.5 8 5.5 13.5t13 5.5h7v25h-7q-8 0-13.5 5.5t-5 13.5q.5 8 5.5 13.5t13 5.5h7v24h-7q-8 0-13.5 5.5t-5 13.5q.5 8 5.5 13.5t13 5.5h7v25h-7q-8 0-13.5 5.5t-5 13.5q.5 8 5.5 13t13 5h14q9 18 25.5 28t35.5 10h113q18 0 34-9.5t25-25q9-15.5 9-34.5V103q0-19-9-34.5t-25-25Q237 34 219 34zm31 231q0 13-9 22t-22 9H106q-13 0-22-9t-9-22V103q0-13 9-22t22-9h113q13-1 22 8.5t9 22.5v162zM131 153q0-13 9.5-22t22-9.5q12.5-.5 22 9T194 153q0 13-9.5 22t-22 9q-12.5 0-22-9t-9.5-22zm81 84q1 4-1.5 7t-6.5 3h-83q-4 0-6.5-3t-2.5-7q4-19 18.5-29.5t32-10.5q17.5 0 32 10.5T212 237z"/></svg>