<svg viewBox="0 0 300 368" xmlns="http://www.w3.org/2000/svg"><path d="M38 103q0-8 5-13.5T56 84q8 0 13.5 5.5T75 103q0 8-5.5 13.5T56 122q-8 0-13-5.5T38 103zm206 18q8 1 13.5-4.5t5-13.5q-.5-8-5.5-13.5T244 84q-8 0-13.5 5.5T225 103q0 8 5.5 13.5T244 122v-1zM19 178q-8 0-13.5 5.5t-5.5 13q0 7.5 5.5 13T19 215q8 0 13.5-5.5t5.5-13q0-7.5-5.5-13T19 178zm131-94q8 0 13.5-5.5T169 65q0-8-5.5-13.5T150 46q-8 0-13.5 5.5T131 65q0 8 5.5 13.5T150 84zm94 187q-8 1-13.5 6t-5.5 13q0 8 5.5 13.5T244 309q8 0 13.5-5.5t5-13.5q-.5-8-5.5-13.5t-13-4.5v-1zm37-93q-8 0-13 5.5t-5 13q0 7.5 5 13t13 5.5q8 0 13.5-5.5t5.5-13q0-7.5-5.5-13T281 178zM56 271q-8 0-13 5.5T38 290q0 8 5 13.5t13 5.5q8 0 13.5-5.5T75 290q0-8-5.5-13.5T56 272v-1zm182-75q0 24-12 44t-32 32q-20 12-44 12t-44-12q-20-12-32-32.5t-11.5-44q.5-23.5 12-43T106 121q20-12 43.5-12t44 11.5q20.5 11.5 32.5 32t12 43.5zm-38 0q0-20-14.5-35T150 146.5q-21 .5-35.5 15t-14.5 35q0 20.5 14.5 35T150 246q10 0 20-3l-33-33q-6-6-6-13.5t5.5-13Q142 178 150 178t13 5l33 33q4-9 4-20z"/></svg>