<svg viewBox="0 0 300.0035 368" xmlns="http://www.w3.org/2000/svg"><path d="M200 65q0-13 9-22t22-9q13 0 22.5 9t9.5 22q0 13-9.5 22T231 96q-13 0-22-9t-9-22zm89 204q-6 7-14 11v35q0 8-5.5 13.5T256 334q-8 0-13-5.5t-5-13.5v-31h-13v31q0 8-5.5 13.5T206 334q-8 0-13-5.5t-5-13.5v-35q-9-4-15-11t-8.5-16q-2.5-9-1.5-19l11-75q3-21 19.5-35.5t38-14.5q21.5 0 38 14.5T289 159l11 75q1 10-2 19t-9 16zm-87-25q2 2 5 2h49q3 0 5-2t1-5l-10-75q-1-7-7-12.5t-13.5-5.5q-7.5 0-13.5 5.5t-7 12.5l-10 75q-1 3 1 5zM69 96q13 0 22-9t9-22q0-13-9-22t-22-9q-13 0-22 9t-9 22q0 13 9 22t22 9zm69 69v38q0 14-7 26.5T113 249v66q0 8-5.5 13.5T94 334q-8 0-13.5-5.5T75 315v-56H63v56q0 8-5.5 13.5T44 334q-8 0-13.5-5.5T25 315v-66q-12-7-18.5-19.5T0 203v-38q0-23 16.5-39.5T56 109h25q24 0 40.5 16.5T138 165zM38 203q0 8 5 13t13 5h25q8 0 13.5-5t5.5-13v-38q0-8-5.5-13.5T81 146H56q-8 0-13 5.5T38 165v38z"/></svg>