<svg viewBox="0 0 300 368" xmlns="http://www.w3.org/2000/svg"><path d="M106 71q0-15 11-26t26.5-11Q159 34 170 45t11 26.5Q181 87 170 98t-26.5 11Q128 109 117 98t-11-27zm175 213h-12l-14-35q-5-12-16-20t-25-7h-45q-3-1-5-2.5t-1-4.5v-19h56q8 0 13.5-5t5-13q-.5-8-5.5-13.5t-13-5.5h-56v-19q0-8-5.5-13.5T144 121q-8 0-13.5 5.5T125 140v75q0 15 9 27t24 15q-9 21-28.5 31.5t-41 6.5q-21.5-4-36-20.5t-15-39q-.5-22.5 13-40T86 173q7-2 11-8.5t2.5-14Q98 143 91 139t-14-2q-24 5-42 20.5T7.5 195Q-2 217 0 241t14.5 44.5Q27 306 47 318.5t44 15q24 2.5 46-6.5t38-27q16-18 22-41h17q4 0 6 4l19 47q2 5 6.5 8.5T256 322h25q8 0 13.5-5.5T300 303q0-8-5.5-13.5T281 284z"/></svg>