<svg viewBox="0 0 300 368" xmlns="http://www.w3.org/2000/svg"><path d="M291 169q6 4 8 11.5t-1.5 14q-3.5 6.5-11 8.5t-14.5-1l-6-5q-2-1-3.5-1t-3.5 1q-15 12-34 12t-34-12q-2-1-3.5-1t-3.5 1q-15 12-34 12t-34-12q-2-1-3.5-1t-3.5 1q-15 12-34 12t-34-12q-2-1-3.5-1t-3.5 1l-6 5q-7 3-14.5 1t-11-8.5Q-1 188 1 180.5T9 169l3-1q11-9 25.5-9t25.5 9q5 3 12 3t12-3q11-9 25.5-9t25.5 9q5 3 12 3t12-3q11-9 25.5-9t25.5 9q5 3 12 3t12-3q11-9 25.5-9t25.5 9l3 1zm9 96q0 19-9.5 34.5t-25 25Q250 334 231 334H69q-19 0-34.5-9.5t-25-25Q0 284 0 265q0-13 9-22t22-9h238q13 0 22 9t9 22zm-38 6H38q2 11 11 18t20 7h162q11 1 20-6.5t11-18.5zM0 103q0-19 9.5-34.5t25-25Q50 34 69 34h162q19 0 34.5 9.5t25 25Q300 84 300 103q0 13-9 22t-22 9H31q-13 0-22-9t-9-22zm38-7h224q-2-10-11-17t-20-8H69q-11 0-20 7.5T38 96z"/></svg>