<svg viewBox="0 0 300 368" xmlns="http://www.w3.org/2000/svg"><path d="M138 234q-1 16-11.5 27T100 272q-16 0-27-11t-10-27q0-10 5-18.5T81 202v-62q0-8 5.5-13t13.5-5q8 0 13.5 5t5.5 13v62q8 5 13.5 13.5T138 234zm37-66q25 28 25 66 0 27-13.5 50T150 320.5Q127 334 100 334t-50-13.5Q27 307 13.5 284T0 234q0-38 25-66v-59q0-20 10-37.5T62.5 44Q80 34 100 34t37.5 10Q155 54 165 71.5t10 37.5v59zm-12 66q0-27-20-45-5-6-5-14v-66q0-15-11-26t-27-11q-16 0-27 11t-11 26v66q0 8-5 14-19 18-19 45 0 17 8 31t22.5 22.5Q83 296 100 296t31.5-8.5Q146 279 154 265t8-31h1zm56-162h62q8 0 13.5-5.5T300 53q0-8-5.5-13.5T281 34h-62q-8 0-13.5 5.5T200 53q0 8 5.5 13.5T219 72zm62 25h-62q-8 0-13.5 5t-5.5 13q0 8 5.5 13.5T219 134h62q8 0 13.5-5.5T300 115q0-8-5.5-13T281 97zm0 62h-37q-8 0-13.5 5.5T225 178q0 8 5.5 13.5T244 197h37q8 0 13.5-5.5T300 178q0-8-5.5-13.5T281 159z"/></svg>