<svg viewBox="0 0 300 368" xmlns="http://www.w3.org/2000/svg"><path d="M258 49q-28-15-58-15H100q-30 0-58 15-20 10-31 29.5T0 120v20q0 24 16.5 40T56 196h7v82q0 23 16 39.5t40 16.5h62q24 0 40.5-16.5T238 278v-82h6q23 0 39.5-16t16.5-40v-20q0-22-11-41.5T258 49zm5 91q0 8-5.5 13.5T244 159h-6v-19q0-8-5.5-13t-13.5-5.5q-8-.5-13.5 5T200 140v138q0 8-5.5 13.5T181 297h-62q-8-1-13.5-6t-5.5-13V140q0-8-5.5-13T81 121.5q-8-.5-13.5 5T62 140v19h-6q-8 0-13.5-5.5T37 140v-20q0-12 6-22t16-16q20-11 41-10h3q8 11 20.5 17.5t26.5 7q14 .5 26.5-6.5T197 71h3q21 0 41 11 10 6 15.5 16t5.5 22v20h1z"/></svg>