<svg viewBox="0 0 300 368" xmlns="http://www.w3.org/2000/svg"><path d="M57 131q9-24 7-39-2-11 1-22 4-18 21-29 12-7 26.5-7t26.5 7q16 11 21 29 3 11 1 22-2 15 7 39 2 6-1.5 10.5T157 146H68q-6 0-9.5-4.5T57 131zm37 78q8 0 13.5-5.5t5-13.5q-.5-8-5.5-13.5T94 171H31q-10 0-15 8t-9 18q-7 18-7 37 0 24 11 62 5 17 19.5 27.5T62 334q8 0 13.5-5.5T81 315q0-8-5.5-13.5T63 297q-6-1-10-4t-6-8q-9-33-10-51 1-12 6-25h51zm203 106q-4 9-11.5 14t-16.5 5H131q-9 0-17-5t-11.5-13.5q-3.5-8.5-2-17.5t7.5-16q10-10 14.5-19.5T126 247q-2-13 0-25 4-23 20-40t38-21q16-4 32 0 22 4 38 21t20 40q2 12 0 25-1 7 3.5 16t13.5 19q6 7 8 16t-2 17zm-43-19q-22-29-17-55 1-7 0-13-2-11-10-19.5T208 197q-8-1-16 0-11 3-19 11.5T163 228q-1 6 0 13 5 26-18 56h109v-1z"/></svg>