<svg viewBox="0 0 300 368" xmlns="http://www.w3.org/2000/svg"><path d="M216 334q-19 0-35-7.5T153 304q-6-10-17-15.5t-24-4.5q-29 0-55-17t-41.5-45.5Q0 193 0 159.5T17 97q17-29 46-46t63-17q43 0 79 23 30 21 54 57 20 32 31 71 10 35 10 65 0 23-11.5 42T258 322.5Q239 334 216 334zM126 71q-24 1-44.5 12.5t-32 32q-11.5 20.5-12 45t11 44q11.5 19.5 29 31t36 11q18.5-.5 37 8T181 278q6 9 15 14t20 5q19-1 32.5-14.5T263 250q0-22-8-50-9-32-24-59-18-31-43-49-28-21-62-21zm-25 114l50-50q5-6 5-13.5t-5.5-13q-5.5-5.5-13-5.5t-13.5 5l-50 50q-5 6-5 13.5t5.5 13q5.5 5.5 13 5.5t13.5-5zm49 38l51-51q3-3 4.5-8t.5-10q-1-5-5-8.5t-8.5-5q-4.5-1.5-9.5 0t-9 5.5l-50 50q-6 6-6 13.5t5.5 13Q129 228 137 228t13-5zm63 24l13-12q5-6 5-13.5t-5.5-13q-5.5-5.5-13-5.5t-13.5 5l-12 13q-6 5-6 13t5.5 13.5Q192 253 200 253t13-6z"/></svg>