<svg viewBox="0 0 300 368" xmlns="http://www.w3.org/2000/svg"><path d="M69 34H44q-18 0-31 13T0 78v25q0 16 10.5 28.5T37 146v7q0 7 5.5 12.5T56 172q8 0 13.5-5.5T75 153v-7q14-2 24.5-12.5T112 109h7q7 0 12.5-5.5T138 90q0-7-5.5-12.5T119 72h-7q-2-17-14.5-27.5T69 34zm6 69q0 2-2 4t-4 2H44q-3 0-4.5-2t-1.5-4V78q0-3 1.5-5t4.5-2h25q2 0 4 2t2 5v25zm181-69h-25q-16 0-28.5 10.5T188 71h-7q-7 0-12.5 5.5T162 90h1q-1 8 4.5 13.5T181 109h7q2 14 12.5 24.5T225 146v7q0 7 5.5 12.5T243 171h1q7 1 12.5-4.5T262 153v-7q17-2 27.5-14.5T300 103V78q0-18-13-31t-31-13zm7 69q0 2-2 4t-5 2h-25q-2 0-4-2t-2-4V78q0-3 2-5t4-2h25q3 0 5 2t2 5v25zm0 119v-7q0-7-5.5-12.5T244 196q-8 0-13.5 5.5T225 215v7q-14 2-24.5 12.5T188 259h-7q-7 0-12.5 5.5T162 277h1q-1 8 4.5 13.5T181 296h7q2 17 14.5 27.5T231 334h25q18 0 31-13t13-31v-25q0-16-10.5-28.5T263 222zm0 68q0 3-2 4.5t-5 1.5h-25q-2 0-4-1.5t-2-4.5v-25q0-2 2-4t4-2h25q3 0 5 2t2 4v25zM75 222v-7q0-7-5.5-12.5T56 196h1q-8 0-13.5 5.5T38 215v7q-17 2-27.5 14.5T0 265v25q0 18 13 31t31 13h25q16 0 28.5-10.5T112 297h7q7 0 12.5-5.5T138 278q0-8-5.5-13.5T119 259h-7q-2-14-12.5-24.5T75 222zm0 68q0 3-2 4.5t-4 1.5H44q-3 0-4.5-1.5T38 290v-25q0-2 1.5-4t4.5-2h25q2 0 4 2t2 4v25z"/></svg>