<svg viewBox="0 0 300 368" xmlns="http://www.w3.org/2000/svg"><path d="M231 71H69q-19 0-34.5 9.5T9.5 106Q0 122 0 140v88q0 18 9.5 34t25 25q15.5 9 34.5 9h23q12 1 22-5t16-16l15-26q1-3 5-3t5 3l15 26q6 10 16 15.5t22 5.5h23q19 0 34.5-9t25-25q9.5-16 9.5-34v-88q0-18-9.5-34t-25-25.5Q250 71 231 71zm32 157q0 13-9.5 22t-22.5 9h-23q-3 0-5-3l-15-26q-6-10-16-15.5t-22-5.5q-12 0-22 5.5T112 230l-15 26q-2 3-5 3H69q-13 0-22.5-9T37 228v-88q1-13 10-22t22-9h162q13 0 22 9t9 22v88h1zm-25-63q0 13-9.5 22t-22.5 9q-13 0-22-9t-9-22q0-13 9-22t22-9q13 0 22.5 9t9.5 22zm-113 0q0 13-9 22t-22 9q-13 0-22-9t-9-22q0-13 9-22t22-9q13 0 22 9t9 22z"/></svg>