<svg viewBox="0 0 300 368" xmlns="http://www.w3.org/2000/svg"><path d="M275 274v41q0 8-5.5 13.5T256 334q-8 0-13-5.5t-5-13.5v-41q0-8-5.5-15t-13.5-9l-94-23v88q0 8-5.5 13.5T106 334H78q-19 0-32-14l-28-30q-6-7-5.5-16.5T20 257q7-7 16-7.5t16 4.5l32 32q1 0 2.5-.5t.5-1.5V115q1-8 6-13t13-5.5q8-.5 13.5 5T125 115v73l103 26q21 5 34 22t13 38zM49 159q4 0 8-2 7-3 9.5-10t-.5-14q-5-13-2.5-26T75 84q13-12 31.5-12T137 84q10 10 12.5 23t-3.5 26q-3 7 0 14t10 10.5q7 3.5 14 .5t11-10q10-23 5.5-47.5T164 58q-16-16-37-21.5t-42 0Q64 42 49 58q-18 18-22.5 42.5T32 148q2 5 7 8t10 3z"/></svg>