<svg viewBox="0 0 300 368" xmlns="http://www.w3.org/2000/svg"><path d="M200 146q0 11-7.5 18t-17.5 7h-31q-3 4-6 7v75q0 7-5.5 12.5T119 271q-8 0-13.5-5.5T100 253v-60q-6 3-12 3-11 0-18-7t-7-18q0-7 3.5-13t10.5-9q-2-5-2-9 0-12 8-21t20-10q3-6 9-9.5t13-3.5q7 0 13 4t9 10q5-1 9-1 8 0 15 3.5t11 9.5q8 3 13 9.5t5 14.5zm100 45q0 11-7.5 20.5T272 221l-2 15q-3 23-19 39.5T212 296q-2 16-14.5 27T169 334H81q-18 0-30.5-13T38 290v-14q0-10-8-20-20-26-27-58t2-63q10-38 40-65.5T114 36q39-6 75 8t59 45q13 16 31 49 21 39 21 53zm-40-7q-6-15-19-38t-22-34q-15-19-36.5-29.5T138 72q-8 0-17 1-29 5-50.5 24.5t-29 47Q34 172 42 199q5 18 18 34 15 20 15 43v14q0 3 2 5t4 2h88q2 0 4-2t2-5v-12q0-8 5.5-13.5T194 259h7q12 0 21-8t10-19l4-32q1-7 6.5-11.5T255 184h5z"/></svg>