<svg viewBox="0 0 300 368" xmlns="http://www.w3.org/2000/svg"><path d="M131 196H56q-13 0-22 9.5T25 228v31q0 17 8.5 31.5t23 22.5q14.5 8 30.5 8h44q13 1 22.5-8.5T163 290v-62q-1-13-10-22.5t-22-9.5zm-6 88H88q-11 0-18-7.5T63 259v-25h62v50zm6-238H63q-17 0-31.5 8.5t-23 23Q0 92 0 109v31q0 13 9 22t22 9h100q13 1 22.5-8.5T163 140V78q-1-13-10-22t-22-9v-1zm-6 88H38v-25q0-10 7-17.5T63 84h62v50zm113-63h-19q-13 0-22 9.5T187 103v150q1 13 10 22t22 9h19q16 0 30.5-8.5t23-23Q300 238 300 222v-88q0-17-8.5-31.5t-23-23Q254 71 238 72v-1zm25 150q0 11-7.5 18.5T238 247h-13V109h13q10 0 17.5 7.5T263 134v87z"/></svg>