<svg viewBox="0 0 300 368" xmlns="http://www.w3.org/2000/svg"><path d="M150 34q-41 0-75.5 20T20 108.5Q0 143 0 184t20 75.5Q40 294 74.5 314t75.5 20q41 0 75.5-20t54.5-54.5q20-34.5 20-75.5t-20-75.5Q260 74 225.5 54T150 34zm0 262q-31 1-56.5-14.5t-41-41Q37 215 37.5 184T53 127.5Q68 102 93.5 87T150 72q31 0 56.5 15t40.5 40.5q15 25.5 15.5 56.5t-15 56.5Q232 266 206.5 281T150 296zM76 153q-8 0-11-7-3-4-1.5-9t6.5-8q22-12 32-27 3-4 8-5t9.5 1.5q4.5 2.5 5.5 8t-2 9.5q-14 20-41 35-3 2-6 2zm99 6q0-16 5.5-26.5t13.5-11q8-.5 13.5 10.5t5 27q-.5 16-5.5 26.5T194 196q-8 0-13.5-10.5T175 159zm-53-22q6-4 13.5-2.5T147 143q4 7 2.5 14.5T141 169l-31 19q-5 2-10 2t-9-2.5q-4-2.5-7-6.5-4-7-2-14.5t8-11.5l32-18zm112 101q-6 10-16 19-17 14-34 14-12 0-23-6-6-4-14-13l-5-5-3 3q-7 4-11 6-8 3-15 3-13 0-26-8-8-5-13-10.5t-5-13q0-7.5 5.5-13T88 209q8 0 13 6 2 2 6 4.5t6 2.5l5-4q6-4 10-6 8-3 16.5-3t16.5 5q5 4 13 12t10.5 8q2.5 0 8.5-5.5t10-11.5q4-6 12-7.5t14.5 2.5q6.5 4 8 12t-3.5 14z"/></svg>