<svg viewBox="0 0 300 368" xmlns="http://www.w3.org/2000/svg"><path d="M19 334q-8 0-13.5-5.5T0 315q0-8 5-13L268 39q5-5 13-5t13.5 5.5Q300 45 300 53t-5 13L32 329q-5 5-13 5zm94-244q0-23-16.5-39.5T56.5 34q-23.5 0-40 16.5T0 90.5q0 23.5 16.5 40t40 16Q80 146 96 130t16-40h1zm-38 0q0 8-5.5 13.5T56 109q-8 0-13.5-5.5t-5-13.5q.5-8 5.5-13.5T56 71q8 0 13.5 5.5T75 90zm225 188q0-24-16.5-40t-40-16.5q-23.5-.5-40 16t-16 40q.5 23.5 16.5 40t39.5 16.5q23.5 0 40-16.5T300 278zm-37 0q0 8-5.5 13.5t-13.5 5q-8-.5-13.5-5.5t-5.5-13q0-8 5.5-13.5T244 259q8 0 13.5 5.5T262 278h1z"/></svg>