<svg viewBox="0 0 300 368" xmlns="http://www.w3.org/2000/svg"><path d="M150 34q-41 0-75.5 20T20 108.5Q0 143 0 184t20 75.5Q40 294 74.5 314t75.5 20q41 0 75.5-20t54.5-54.5q20-34.5 20-75.5t-20-75.5Q260 74 225.5 54T150 34zm0 262q-30 0-56-15t-41-41q-15-26-15-56t15-56q15-26 41-41.5T150 71q30 0 56 15.5t41.5 41.5q15.5 26 15.5 56t-15.5 56Q232 266 206 281t-56 15zm47-117q3 6 3 13.5t-4 13.5l-36 57q-6 9-16 9-5 0-11-3.5t-7.5-11.5q-1.5-8 2.5-14l25-40h-26q-14 0-22-11-3-5-4.5-11t.5-12l2-5 37-59q4-6 12-8t14.5 2.5q6.5 4.5 8 12T172 125l-25 40h27q7 0 13.5 4t9.5 10z"/></svg>