<svg viewBox="0 0 300 368" xmlns="http://www.w3.org/2000/svg"><path d="M276 249l-50-50 38-40q6-6 5-15-4-24-14-43.5T226 58q-7-7-20-13-24-11-55.5-11T92 45q-14 6-22 12l-3 2q-18 20-26 42-5 15-10 43-1 9 6 16l40 39-54 50q-11 11-10.5 26.5T24 302l22 21q11 11 26 11t26-11l53-50 51 50q11 11 26.5 11t25.5-11l22-21q11-11 11.5-26.5T276 249zm-77-76l-22-21 42-41q7 14 11 30l-31 32zM150 71q28 0 45 11l-28 28q-16-2-33 0l-30-29q21-10 46-10zm-71 38l151 146-22 21L70 140q3-20 9-31zm16 166l-22-21 30-28 22 21-30 28z"/></svg>