<svg viewBox="0 0 300 368" xmlns="http://www.w3.org/2000/svg"><path d="M300 228v37q0 19-9.5 34.5t-25 25Q250 334 231 334H69q-19 0-34.5-9.5t-25-25Q0 284 0 265V140q0-18 9.5-34t25-25Q50 72 69 72h25q8-1 13.5 4.5t5 13.5q-.5 8-5.5 13.5T94 109H69q-9 0-16.5 4.5T41 126l87 86q7 8 17.5 9.5T165 218q7-4 14.5-2t11 9q3.5 7 1.5 14.5t-9 10.5q-20 11-42.5 8T101 239l-63-64v90q0 13 9 22t22 9h162q13 0 22.5-9t8.5-22v-37q1-8 6-13.5t13-5.5q8 0 13.5 5.5T300 228zM138 115q0-22 10.5-40.5T178 45q19-11 41-11 30 1 51 18 19 15 26 39t0 48q-7 24-26 40-21 16-51 17-22 0-41-10.5T148.5 156Q138 137 138 115zm125 0q-1-7-3-14l-56 55q10 4 20.5 2.5T244 151q9-6 13.5-15.5T263 115zm-88 0q0 8 3 15l55-56q-10-3-20.5-1.5t-19 7.5Q185 86 180 95.5t-5 19.5z"/></svg>