<svg viewBox="0 0 300 368" xmlns="http://www.w3.org/2000/svg"><path d="M56 171h25q24 0 40.5-16.5T138 115V90q0-23-16.5-39.5T81 34H56q-23 0-39.5 16.5T0 90v25q0 23 16.5 39.5T56 171zM38 90q0-8 5-13.5T56 71h25q8 0 13.5 5.5T100 90v25q0 8-5.5 13.5T81 134H56q-8 0-13-5.5T38 115V90zm206 106h-25q-23 0-39.5 16.5T163 253v25q0 23 16.5 39.5T219 334h25q23 0 39.5-16.5T300 278v-25q0-24-16.5-40.5T244 196zm19 82q0 8-5.5 13t-13.5 5h-25q-8 0-13.5-5t-5.5-13v-25q0-8 5.5-13.5T219 234h25q8 0 13.5 5.5T263 253v25zm-129-9q4 4 4 9t-4 8l-38 40q-3 4-8.5 4t-9-4q-3.5-4-3.5-9v-21H56q-23 0-39.5-16.5T0 240v-25q0-8 5.5-13.5T19 196q8 0 13.5 5.5T38 215v25q0 8 5 13.5t13 5.5h19v-21q0-5 3.5-8.5t9-4Q93 225 96 229l38 40zm166-141v25q0 8-5.5 13t-13.5 5q-8 0-13-5t-5-13v-25q0-8-5.5-13.5T244 109h-19v21q0 5-3.5 8.5t-9 3.5q-5.5 0-8.5-3l-38-40q-4-4-4-9t4-9l38-39q3-4 8.5-4t9 4q3.5 4 3.5 9v21h19q23 0 39.5 16.5T300 128z"/></svg>