<svg viewBox="0 0 300 368" xmlns="http://www.w3.org/2000/svg"><path d="M300 140v119q0 19-9 35t-25 25q-7 4-14.5 2t-11.5-9q-4-7-2-14.5t9-11.5q7-4 11-11t5-16V140q0-3-1-6H38v125q0 9 4 16t11 11q7 4 9 11.5T60 312q-4 7-11.5 9T34 319q-16-9-25-25t-9-35V115q0-18 9.5-34t25-25.5Q50 46 69 46h31q11 0 20 5l39 20h72q19 0 34.5 9.5t25 25.5q9.5 16 9.5 34zm-75 106q-1 29-16 48-15 18-37 24t-44 0q-22-6-37-24-15-19-15-47.5T91 199q15-18 37-24t44 0q22 6 37 24 15 19 16 47zm-43 6l-13-13v-24q0-11-9.5-16t-19 0q-9.5 5-9.5 16v29q0 10 8 18l17 17q8 8 17.5 4.5t13-13.5q3.5-10-4.5-18z"/></svg>