<svg viewBox="0 0 300 368" xmlns="http://www.w3.org/2000/svg"><path d="M256 234q12 0 16.5-9.5t0-18.5q-4.5-9-16.5-9h-86l48-19q7-3 13-6h25q11 0 16-9t1.5-18q-3.5-9-14.5-11 8-23-1.5-46.5T226 53q-34-19-74-19-34 0-67 14-28 13-43 30-5 5-4.5 13t6 13q5.5 5 13.5 5t13-6q10-12 33-21 24-10 51-10 30 0 54 14 9 4 13.5 13t3.5 18.5q-1 9.5-7 16.5H44q-12 0-16.5 9.5t0 18.5q4.5 9 16.5 9h86l-47 19q-7 2-14 7H44q-11-1-16 8t-1.5 18q3.5 9 14.5 11-5 16-2.5 33T51 298q10 14 26 21 33 17 75 15 35-2 70-15 30-12 46-27 6-5 7-12.5t-4-13.5q-5-6-12.5-7t-13.5 4q-13 11-36 21-28 11-56 12-34 2-60-11-9-4-14-13.5t-4-20q1-10.5 8-17.5h173z"/></svg>