<svg viewBox="0 0 300 368" xmlns="http://www.w3.org/2000/svg"><path d="M200 65q0-13 9-22t22-9q13 0 22.5 9t9.5 22q0 13-9.5 22T231 96q-13 0-22-9t-9-22zm100 100v38q0 14-6.5 26.5T275 249v66q0 8-5.5 13.5T256 334q-8 0-13-5.5t-5-13.5v-56h-13v56q0 8-5.5 13.5T206 334q-8 0-13-5.5t-5-13.5v-66q-12-7-18.5-19.5T163 203v-38q0-23 16.5-39.5T219 109h25q23 0 39.5 16.5T300 165zm-100 38q0 8 5.5 13t13.5 5h25q8 0 13.5-5t5.5-13v-38q0-8-5.5-13.5T244 146h-25q-8 0-13.5 5.5T200 165v38zM69 96q13 0 22-9t9-22q0-13-9-22t-22-9q-13 0-22 9t-9 22q0 13 9 22t22 9zm69 69v38q0 14-7 26.5T113 249v66q0 8-5.5 13.5T94 334q-8 0-13.5-5.5T75 315v-56H63v56q0 8-5.5 13.5T44 334q-8 0-13.5-5.5T25 315v-66q-12-7-18.5-19.5T0 203v-38q0-23 16.5-39.5T56 109h25q24 0 40.5 16.5T138 165zM38 203q0 8 5 13t13 5h25q8 0 13.5-5t5.5-13v-38q0-8-5.5-13.5T81 146H56q-8 0-13 5.5T38 165v38z"/></svg>