<svg viewBox="0 0 300 368" xmlns="http://www.w3.org/2000/svg"><path d="M63 309q-1 10 6.5 17.5t18 7.5q10.5 0 17.5-7.5t7.5-17.5q.5-10-7-17.5t-18-7.5Q77 284 70 291.5T63 309zm125 0q-1 10 6.5 17.5t18 7.5q10.5 0 17.5-7.5t7.5-17.5q.5-10-7-17.5t-18-7.5q-10.5 0-17.5 7.5t-7 17.5zm59-110q-3 10-11.5 16t-18.5 6H90q-1 0-2.5-1t-1.5-2l-11-84h44q8 0 13-5.5t6-13.5q0-8-5.5-13.5T119 96H71l-4-25q-1-16-13-26.5T26 34h-7q-8 0-13.5 5.5T0 53q0 8 5.5 13T19 72h7q2 0 3 1t1 2l19 147q2 16 13.5 26.5T90 259h127q23 0 41.5-14t24.5-37q3-9-3-16.5t-15-7.5q-6 0-11 4t-7 10v1zm21-134l-54 54-11-11q-5-6-13-6t-13.5 5.5q-5.5 5.5-5.5 13t5 13.5l16 16q9 9 21 10h1q12 0 21-9l59-59q4-4 5.5-9t0-10q-1.5-5-5-8.5T286 60q-5-1-10 0t-8 5z"/></svg>