<svg viewBox="0 0 300 368" xmlns="http://www.w3.org/2000/svg"><path d="M150 334q-41 0-75.5-20T20 259.5Q0 225 0 184t20-75.5Q40 74 74.5 54T150 34q41 0 75.5 20t54.5 54.5q20 34.5 20 75.5t-20 75.5Q260 294 225.5 314T150 334zm0-263q-31 0-56.5 15.5t-40.5 41Q38 153 38 184t15 56.5Q68 266 93.5 281t56.5 15q31 0 56.5-15t40.5-40.5q15-25.5 15.5-56.5t-15-56.5q-15.5-25.5-41-41T150 72v-1zm54 135l19 3q6 0 10-4t4-10l1-13q0-13-11-23-15-16-45.5-22t-61.5-.5Q89 142 73 159q-10 10-10 23v13q0 6 4 10t10 4l19-3q6 0 10-4t4-9l2-20q39-17 76 0l2 20q0 5 4 9t10 4z"/></svg>