<svg viewBox="0 0 300 368" xmlns="http://www.w3.org/2000/svg"><path d="M137 234q-2 8-8.5 12t-14 2q-7.5-2-14.5-2-17 0-31.5 8.5t-22.5 23Q38 292 38 309v6q0 8-5.5 13.5T19 334q-8 0-13.5-5.5T0 315v-6q0-27 13.5-50T50 222.5Q73 209 100 209q12 0 23 3 8 1 12 8t2 14zm38-125q0 20-10 37.5T137.5 174Q120 184 100 184t-37.5-10Q45 164 35 146.5T25 109q0-20 10-37.5T62.5 44Q80 34 100 34t37.5 10Q155 54 165 71.5t10 37.5zm-37 0q0-16-11-26.5t-27-11Q84 71 73 82t-11 27q0 16 11 26.5t27 10.5q16 0 27-10.5t11-26.5zm162 108v37q0 32-25 56-16 14-37 23-3 1-7 1t-8-2q-20-9-36-25-24-24-24-53v-37q0-14 7.5-24.5T191 178l34-12q6-2 12 0l35 12q13 4 20.5 14.5T300 217zm-37 0q0-3-3-4l-29-9-29 9q-2 1-2 4v37q0 13 12 25 8 8 20 15 12-5 19-13 11-12 12-27v-37z"/></svg>