<svg viewBox="0 0 300 368" xmlns="http://www.w3.org/2000/svg"><path d="M300 234q0-13-7-24 1-3 1-7 0-15-9-26.5T263 161q-5-9-13-15v-12q0-27-13.5-50T200 47.5Q177 34 150 34t-50 13.5Q77 61 63.5 84T50 134v13q-8 6-13 14-13 4-22 15.5T6 203q0 4 1 7-7 11-7 24t7 24q-1 5-1 10 0 15 9 26.5T37 310q6 11 17 17.5t24 6.5q20 0 33.5-13.5T125 287V184q0-17-10.5-30T88 138v-4q0-17 8-31.5t22.5-23q14.5-8.5 31.5-8t31.5 8.5q14.5 8 22.5 22.5t8 31.5v4q-16 3-26.5 16T175 184v103q0 20 13.5 33.5T222 334q13 0 23.5-6.5T263 310q13-4 22-15.5t9-26.5q0-5-1-10 7-11 7-24zM88 287q0 4-3 6.5t-6.5 2.5q-3.5 0-6-2t-3.5-5q-1-6-6.5-10T51 275h-2q-2-1-3.5-2.5t-1.5-4q0-2.5 1-3.5 4-6 2.5-13.5T40 239q-2-2-2-5t2-5q5-4 6.5-10.5T45 206q-1-2-1-4t1.5-3.5Q47 197 49 197h1q7-1 12.5-5t6.5-10q1-3 3.5-5t6-2q3.5 0 6.5 2.5t3 6.5v103zm172-48q-6 4-7.5 12t2.5 14q1 1 1 3.5t-1.5 4Q253 274 251 275h-1q-7-1-12.5 3.5T231 289q-1 3-3.5 5t-6 2q-3.5 0-6.5-2.5t-3-6.5V184q0-4 3-6.5t6.5-2.5q3.5 0 6 2t3.5 5q1 6 6.5 10.5T249 197l2-1q2 1 3.5 2.5t1.5 3.5q0 2-1 4-3 6-1.5 12.5T260 229q2 2 2 5t-2 5z"/></svg>