<svg viewBox="0 0 300 368" xmlns="http://www.w3.org/2000/svg"><path d="M38 65q0-13 9-22t22-9q13 0 22 9t9 22q0 13-9 22.5t-22 9Q56 96 47 87t-9-22zm127 98q2 4 6.5 7t9.5 3q5 0 9-3l25-13q7-4 9-11.5t-1.5-14.5q-3.5-7-11-9t-14.5 2l-25 13q-7 4-9 11.5t2 14.5zm135 152q0 8-5.5 13.5T281 334H106q-8 0-13.5-5.5T87 315q0-8 5.5-13.5T106 297h19v-51H63v69q0 8-5.5 13.5T44 334q-8 0-13.5-5.5T25 315v-75q-11-7-18-18.5T0 196v-37q0-21 14.5-35.5T50 109h51l59-32q7-4 14-1.5t11 9.5q4 7 2 14t-9 11l-66 35v64h19q13 0 22 9t9 22v56h119q8 0 13.5 5.5T300 315zM38 196q0 6 3.5 9.5T50 209h25v-63H50q-5 0-8.5 4t-4.5 9v37h1zM207 94l24 9 9 24q2 5 6.5 6.5t8.5-.5q4-2 5-6l9-24 24-9q5-2 6.5-6.5T299 79q-2-4-6-5l-24-9-9-24q-1-4-5-6t-8.5-.5Q242 36 240 41l-9 24-24 9q-4 1-6 5t-.5 8.5Q202 92 207 94z"/></svg>