<svg viewBox="0 0 300 368" xmlns="http://www.w3.org/2000/svg"><path d="M220 139l-7-2V86q-1-19-12.5-33.5T171 35q-11-2-21.5 1t-19 10q-8.5 7-13 17T113 84v39q-12 4-21 12-5 5-10 12l-54 54q-15 15-15.5 36.5T28 274l29 29q15 15 34 23t41 8h74q19 0 34.5-9.5t25-25Q275 284 275 265v-59q0-24-15.5-43T220 139zm18 126q0 13-9.5 22t-22.5 9h-74q-29 0-49-20l-29-28q-4-5-4-10.5t4-10.5l21-20v21q0 8 5.5 13.5t13.5 5q8-.5 13-5.5t5-13v-54q0-7 5.5-11.5t13-3.5q7.5 1 13.5-5t6-14V84q0-6 4.5-9.5t9.5-3q5 .5 8 4.5t3 10v67q0 6 4 11.5t11 6.5l22 5q11 2 18 10.5t7 19.5v59h1z"/></svg>