<svg viewBox="0 0 300 368" xmlns="http://www.w3.org/2000/svg"><path d="M156 334q-8 0-13-5.5t-5-13.5v-37q0-8 5-13.5t13-5.5q8 0 13.5 5.5T175 278v37q0 8-5.5 13.5T156 334zm82-19v-37q-1-8-6-13.5t-13-5.5q-8 0-13.5 5.5T200 278v37q0 8 5.5 13.5T219 334q8 0 13.5-5.5T238 315zm43-181q-8 0-13.5 5.5t-5 13.5q.5 8 5.5 13.5t13 5q8-.5 13.5-5.5t5.5-13q0-8-5.5-13.5T281 134zm0-100q-8 0-13.5 5.5t-5 13.5q.5 8 5.5 13.5t13 5q8-.5 13.5-5.5t5.5-13q0-8-5.5-13.5T281 34zm-62 50q-8 0-13.5 5.5T200 103q0 8 5.5 13.5t13.5 5q8-.5 13.5-5.5t5-13q-.5-8-5.5-13.5T219 84zm-96 224q4-6 2.5-13.5T117 283q-3-3-4-6.5t1.5-6.5q2.5-3 5.5-5 11-4 16-14t2-21q-1-4-.5-8.5t1.5-8.5q2-11 10.5-19t21-10q12.5-2 24.5 4.5t18 19.5q3 9 11 15t18.5 8q10.5 2 16 12t3.5 20q-2 7-7 12.5t-4.5 13q.5 7.5 6 13t13.5 5q8-.5 13-5.5 11-13 15-29.5t-.5-32.5q-4.5-16-17-28T251 195l-4-2q-10-24-33.5-37t-49.5-9q-22 4-39 19.5T102 204q-2 9-2 17 0 6 1 12-15 8-21.5 23T77 287q2 7 7 14.5T98 315q6 4 13.5 2t11.5-9zm-65-73q5-5 5.5-12.5T59 209q-12-13-17.5-30T38 145q3-28 22-48t46-24q13-2 26-1-15 16-24 35-3 5-2.5 10t3 9.5q2.5 4.5 7.5 6.5t10 1.5q5-.5 9-3.5t6-8q9-17 24-30 6-6 8.5-15t.5-17.5q-2-8.5-8.5-14.5T150 38q-24-6-50-2-39 6-67 35.5T1 141q-3 25 5 49.5T31 234q5 6 13 6.5t14-5.5z"/></svg>