<svg viewBox="0 0 300 368" xmlns="http://www.w3.org/2000/svg"><path d="M138 184q0 10-7.5 17.5t-18 7.5q-10.5 0-17.5-7.5T87.5 184q-.5-10 7-17.5t18-7.5q10.5 0 18 7.5T138 184zm50-25q-11 0-18 7.5t-7 17.5q0 10 7 17.5t17.5 7.5q10.5 0 17.5-7.5t7.5-17.5q.5-10-7-17.5T187 159h1zm16 97q6-5 7.5-12t-2.5-13.5q-4-6.5-11.5-8T183 225q-15 9-33 9t-33-9q-7-5-14.5-3.5t-12 8q-4.5 6.5-3 14.5t8.5 12q25 15 54 15t54-15zm96 5q0-24-14-43 4-19-2.5-37.5T262 150q2-25-14-44t-41-22q-8-20-26-35t-37-15q-8 0-13.5 5.5T125 53q1 17-9 31h-16q-13 0-24.5 5T55 103.5Q46 113 41.5 125T38 150q-15 12-21.5 30.5T14 218Q2 235 .5 255.5t8 38.5Q18 312 35 323t38 11h154q20 0 36.5-10t26.5-26.5q10-16.5 10-36.5zM123 121q7 0 12-3 18-15 24-38 12 10 16 26 1 7 6.5 11t11.5 5h7q12-1 19.5 9t4.5 22q-2 7 .5 13t8.5 9q11 6 15 17.5t0 22.5q-3 5-1.5 11t5.5 10q7 7 9.5 17.5T260 274q-4 10-13 16t-20 6H73q-11 0-20-6t-13-16q-4-10-1.5-20.5T48 236q5-4 6-10t-2-11q-4-11 0-22.5T67 175q6-3 8.5-9t.5-13q-3-12 4.5-22t19.5-9l23-1z"/></svg>