<svg viewBox="0 0 300 368" xmlns="http://www.w3.org/2000/svg"><path d="M255 87l-33-33q-20-20-49-20H94q-19 0-34.5 9.5t-25 25Q25 84 25 103v162q0 19 9.5 34.5t25 25Q75 334 94 334h112q19 0 34.5-9.5t25-25Q275 284 275 265V136q0-29-20-49zm-49 209H94q-13 0-22-9t-9-22V103q0-13 9-22.5T94 71h69v50q0 11 7 18t18 7h50v119q0 13-9.5 22t-22.5 9zm7-112v75q0 5-4 8.5t-9 3.5q-5 0-9-3.5t-3-8.5v-50q-6 0-9.5-3.5t-3.5-9q0-5.5 4-8.5l12-13q6-6 14-3 3 2 5.5 5t2.5 7zm-88-13q-15 0-26 11.5T88 209v25q0 15 11 26t26 11q15 0 26.5-11t11.5-26v-25q0-15-11.5-26.5T125 171zm13 63q0 5-4 8.5t-9 3.5q-5 0-8.5-3.5T113 234v-25q0-5 3.5-9t8.5-4q5 0 9 4t4 9v25z"/></svg>