<svg viewBox="0 0 300 368" xmlns="http://www.w3.org/2000/svg"><path d="M280 242l-15-20q4-3 6-8 5-9 4-18.5t-7-18.5l-19-26q6-5 10-11 4-9 3.5-18.5T256 103l-54-57q-5-6-12-9t-15-3q-14 0-25 10-11-10-25-10-8 0-15 3t-12 9l-54 57q-6 9-6.5 18.5t3.5 17q4 7.5 10 12.5l-20 26q-6 9-6.5 19t3.5 19l6 8-14 19q-7 10-7.5 22t5 22.5Q23 297 33 303t22 6h51v6q0 8 5.5 13.5T125 334q8 0 13.5-5.5T144 315v-6h12v6q0 8 5.5 13.5T175 334q8 0 13.5-5.5T194 315v-6h51q12 0 22-6t15.5-16.5q5.5-10.5 5-22.5t-7.5-22zM55 271q-3 1-4.5-2t.5-5l27-38q3-4 3.5-9.5T79 207q-5-10-15-10l33-46q3-4 3.5-9t-2-10q-2.5-5-7-8t-9.5-3h-4l47-49 47 49h-4q-5 1-9.5 3.5t-7 7q-2.5 4.5-2 10t3.5 9.5l33 45q-5 1-9.5 3.5t-7 7.5q-2.5 5-2 10t3.5 10l28 37q2 2 .5 4.5T195 271h-51v-81q0-8-5.5-13.5T125 171q-8 0-13.5 5.5T106 190v81H55z"/></svg>