<svg viewBox="0 0 300 368" xmlns="http://www.w3.org/2000/svg"><path d="M150 34q-41 0-75.5 20T20 108.5Q0 143 0 184t20 75.5Q40 294 74.5 314t75.5 20q41 0 75.5-20t54.5-54.5q20-34.5 20-75.5t-20-75.5Q260 74 225.5 54T150 34zm0 262q-31 0-56.5-15T53 240.5Q38 215 38 184t15-56.5Q68 102 93.5 87T150 71.5q31-.5 56.5 15t41 41Q263 153 263 184t-15.5 56.5Q232 266 206.5 281T150 296zm69-100h-19v-25h19q8 0 13-5t5.5-13q.5-8-5-13.5T219 134h-19v-19q0-8-5.5-13T181 96.5q-8-.5-13 5t-5 13.5v19h-25v-19q0-8-5.5-13T119 96.5q-8-.5-13.5 5T100 115v19H81q-8 0-13.5 5.5t-5 13.5q.5 8 5.5 13t13 5h19v25H81q-8 0-13.5 5.5t-5 13.5q.5 8 5.5 13.5t13 5.5h19v19q0 8 5.5 13.5t13.5 5q8-.5 13.5-5.5t5.5-13v-19h25v19q-1 8 4.5 13.5t13.5 5q8-.5 13.5-5.5t5.5-13v-19h19q8 0 13-5.5t5.5-13.5q.5-8-5-13t-13.5-6zm-81 0v-25h25v25h-25z"/></svg>