<svg viewBox="0 0 300.0035 368" xmlns="http://www.w3.org/2000/svg"><path d="M37 65q0-13 9-22t22-9q13 0 22.5 9t9.5 22q0 13-9.5 22T68 96q-13 0-22-9t-9-22zm99 169q2 10-1 19t-9 16q-6 7-14 11v35q0 8-5.5 13.5t-13 5.5q-7.5 0-13-5.5T75 315v-31H62v31q0 8-5.5 13.5t-13 5.5q-7.5 0-13-5.5T25 315v-35q-8-4-14.5-11t-9-16Q-1 244 0 234l11-74q3-22 19.5-36.5t38-14.5q21.5 0 38 14.5T126 160l11 74h-1zm-97 10q2 2 5 2h49q3 0 5-2t1-5l-10-75q-1-7-7-12.5t-13.5-5Q61 147 55 152t-7 12l-10 75q-1 3 1 5zM231 96q13 0 22.5-9t9.5-22q0-13-9.5-22T231 34q-13 0-22 9t-9 22q0 13 9 22t22 9zm58 173q-6 7-14 11v35q0 8-5.5 13.5T256 334q-8 0-13-5.5t-5-13.5v-31h-13v31q0 8-5.5 13.5T206 334q-8 0-13-5.5t-5-13.5v-35q-9-4-15-11t-8.5-16q-2.5-9-1.5-19l11-75q2-21 19-35.5t38.5-14.5q21.5 0 38 14.5T289 159l11 75q1 10-2 19t-9 16zm-87-25q2 2 5 2h49q3 0 5-2t1-5l-10-75q-1-7-7-12.5t-13.5-5q-7.5.5-13.5 5.5t-7 12l-10 75q-1 3 1 5z"/></svg>