<svg viewBox="0 0 300.0014 368" xmlns="http://www.w3.org/2000/svg"><path d="M279 78q-8-20-25.5-32T215 34H44q-10 0-15.5 8T26 60l22 53Q7 181 0 261q-1 14 3.5 27t14 23.5Q27 322 39.5 328t27.5 6h129q14 0 27-6t22.5-16.5q9.5-10.5 14-23.5t2.5-28q-6-81-49-151V71h2q9 1 17 6t12 15q19 47 19 98 0 8 5 13.5t13 5.5q8 0 13.5-5.5T300 190q0-58-21-112zm-61 209q-9 10-22 9H67q-13 0-22-9.5T38 264q2-21 7-42h124q8 0 13.5-5.5T188 203q0-8-5.5-13.5T169 184H55q9-26 24-50h105q35 61 41 130 1 13-7 23zM175 96H81L71 71h104v25z"/></svg>