<svg viewBox="0 0 300 368" xmlns="http://www.w3.org/2000/svg"><path d="M113 184q-1 8-6 13.5T94 203H75v18q0 8-5.5 13.5T56 240q-8 0-13-5.5T38 222v-19H19q-8 0-13.5-5.5T0 184q0-8 5.5-13.5T19 165h19v-19q0-7 5-12.5t13-5.5q8 0 13.5 5.5T75 146v19h19q8 0 13.5 5.5T113 184zM38 296q0 16 10.5 27T75 334h25v-63H38v26-1zm62-262H75q-16 0-27 11T37 72v24h63V34zm157 52l-6-32q-2-10-10.5-15.5T222 34l-21 4q-6 2-11 6t-7 9q-5-8-14-13.5T150 34h-25v62h75l57-10zm5 24l-70 13 27 136 70-13-27-136zM125 334h25q16 0 26.5-11t10.5-27v-25h-62v63zm175-34l-6-30-70 14 6 30q1 10 10 15.5t19 4.5l21-4q10-2 16-10.5t4-19.5zm-175-54h63V121h-63v125z"/></svg>