<svg viewBox="0 0 300 368" xmlns="http://www.w3.org/2000/svg"><path d="M213 65q0-13 9-22t22-9q13 0 22 9t9 22q0 13-9 22t-22 9q-13 0-22.5-9T213 65zm85 237q-10 21-32 29t-43-3L11 228q-5-3-8-7t-3-9q0-5 2-9.5t6-7.5q4-3 9-3.5t10 2.5l100 47 6-12q1-2 .5-4t-2.5-4l-18-13q-12-11-13-26t8-27l-41-20-4 9q-3 4-7.5 7t-9.5 3q-11 0-16.5-8.5T29 127l4-9-5-2q-7-3-9.5-10.5t1-14.5Q23 84 30 81.5t14 .5l5 3 4-9q3-7 10.5-9.5t14.5 1q7 3.5 9.5 11T87 93l-4 8 50 24 13-14q6-7 15-11t19-3q15 0 26 10 9 7 14 17t5 22v22q0 4 4 5l36 18q6 3 9 10.5t-.5 14.5q-3.5 7-11 9.5T248 225l-35-18q-12-5-18.5-16t-6.5-23v-14l-33 38q12 10 15 25.5t-4 29.5l-5 10 78 38q7 3 14.5.5t11-9.5q3.5-7 10.5-9.5t14 .5q7 3 10 10.5t-1 14.5z"/></svg>