<svg viewBox="0 0 300 368" xmlns="http://www.w3.org/2000/svg"><path d="M300 315q0 8-5.5 13.5T281 334H19q-8 0-13.5-5.5T0 315q0-8 5.5-13t13.5-5h262q8-1 13.5 4.5T300 315zM38 234v-63h-7q-8 0-13.5-5t-5-13q.5-8 5.5-13.5t13-5.5h11q9-31 33-52.5T131 54v-1q0-8 5.5-13.5T150 34q8 0 13.5 5.5T169 53v1q32 6 56 27.5t33 52.5h11q8 0 13 5.5t5 13.5q0 8-5 13t-13 5h-6v63h6q8 0 13.5 5.5T288 253q0 8-5.5 13.5T269 272H31q-8-1-13-6t-5-13q0-8 5-13.5t13-5.5h7zm100-63v63h25v-63h-25zm87 0h-25v63h25v-63zM82 134h136q-9-20-27.5-32T150 90q-22 0-40.5 12T82 134zm-7 100h25v-63H75v63z"/></svg>