<svg viewBox="0 0 300 368" xmlns="http://www.w3.org/2000/svg"><path d="M125 146q0 11-7.5 18t-17.5 7q-10 0-17.5-7T75 146.5q0-10.5 7.5-17.5t17.5-7.5q10-.5 17.5 7T125 147v-1zm75-25q-10 0-17.5 7.5t-7.5 18q0 10.5 7.5 17.5t17.5 7q10 0 17.5-7t7.5-17.5q0-10.5-7.5-18T200 122v-1zm100 63q0-41-20-75.5T225.5 54Q191 34 150 34q-57 2-95 33-35 29-47.5 73t0 88Q20 272 55 301q38 31 95 33 41 0 75.5-20t54.5-54.5q20-34.5 20-75.5zm-37 0q-1 31-16 56.5T206.5 281Q181 296 150 297q-43-2-72-26-26-21-35-54t0-66q9-33 35-54 29-24 72-26 31 1 56.5 16t40.5 40.5q15 25.5 16 56.5zm-75 31q0-13-9.5-22t-22.5-9h-21q-6 0-9.5 3.5t-3.5 9q0 5.5 3.5 9t9.5 3.5h21q3 0 5 2t2 4.5q0 2.5-2 4.5t-5 2h-6q-5-1-9 3t-3.5 9q.5 5 4 8.5t8.5 3.5h6q3 1 5 2.5t2 4q0 2.5-2 4.5t-5 2h-21q-6 0-9.5 3.5t-3.5 9q0 5.5 3.5 9t9.5 3.5h21q9 0 16.5-4.5T184 267q4-8 3-17t-6-16q6-8 6-19h1z"/></svg>