<svg viewBox="0 0 300 368" xmlns="http://www.w3.org/2000/svg"><path d="M269 146h-6v-6q0-13-9.5-22t-22.5-9h-31V84h19q8 0 13-5.5t5.5-13.5q.5-8-5-13T219 47h-75q-8-1-13.5 4.5T125 65q0 8 5.5 13.5T144 84h19v25h-14q-10 0-18.5 4T116 125l-19 21h-3q-13 0-22 9.5T63 178v6H38v-19q0-8-5.5-13T19 147q-8 0-13.5 5T0 165v75q0 8 5.5 13.5T19 259q8 0 13.5-5.5T38 240v-19h25v21q0 19 12 31l23 23q13 13 31 13h102q11 0 20-7t11-18h7q13 0 22-9t9-22v-75q0-13-9-22.5t-22-9.5zm-6 100h-19q-8 0-13.5 5.5T225 265v6h-96q-2 0-4-1l-23-23q-2-2-2-5v-58h6q9 0 15-7l23-28q2-2 5-2h76v18q0 8 5.5 13.5T244 184h19v62z"/></svg>