<svg viewBox="0 0 300 368" xmlns="http://www.w3.org/2000/svg"><path d="M298 118q-3-7-10-10t-14 1l-11 5V53q0-8-5.5-13.5T244 34q-8 0-13.5 5.5T225 53v77l-25 11V53q0-8-5.5-13.5T181 34q-8 0-13 5.5T163 53v105l-25 11V53q0-8-5.5-13.5T119 34q-8 0-13.5 5.5T100 53v133l-25 11V53q0-8-5.5-13.5T56 34q-8 0-13.5 5.5T37 53v160l-26 12q-7 3-10 10.5T1 249q3 6 7.5 9t9.5 3q5 0 8-2l12-5v61q0 8 5 13.5t13 5.5q8 0 13.5-5.5T75 315v-77l25-11v88q0 8 5.5 13.5T119 334q8 0 13.5-5.5T138 315V210l25-11v116q0 8 5 13.5t13 5.5q8 0 13.5-5.5T200 315V182l25-11v144q0 8 5.5 13.5T244 334q8 0 13.5-5.5T263 315V155l26-12q7-3 10-10.5t-1-14.5z"/></svg>