<svg viewBox="0 0 300 368" xmlns="http://www.w3.org/2000/svg"><path d="M281 71h-20q-2-5-6.5-8.5T244 59q-6 0-11 3.5t-7 8.5h-20q-8 0-13 5.5T188 90q0 8 5 13.5t13 5.5h19v47q-35-22-75-22t-75 22v-47h19q8 0 13.5-5.5t5-13.5q-.5-8-5.5-13t-13-5H74q-2-6-7-9.5T56 59q-6 0-10.5 3.5T39 71H19q-8 0-13.5 5.5T0 90q0 8 5.5 13.5T19 109h19v71q0 12 5.5 24T59 224l7 5q-16 26-16 49v12q0 8 5.5 13.5T69 309q8 0 13.5-5.5T88 290v-12q0-13 11-30 26 11 51 11t51-11q11 17 11 30v12q1 8 6 13.5t13 5.5q8 0 13.5-5.5T250 290v-12q0-23-16-49l7-5q10-8 16-20t5-24v-71h19q8 0 13.5-5.5T300 90q0-8-5.5-13T281 72v-1zM84 196q9-8 21-14l10 11q4 3 9 3h52q5 0 9-3l10-11q12 6 21 14-14 10-28 17-20 9-38 8.5t-38-8.5q-14-7-28-17z"/></svg>