<svg viewBox="0 0 300 368" xmlns="http://www.w3.org/2000/svg"><path d="M75 65q0-13 9-22t22-9q13 0 22.5 9t9.5 22q0 13-9.5 22T106 96q-13 0-22-9t-9-22zm5 195q-7-2-14 1.5T57 272l-11 38q-2 7 1.5 14t11.5 9q2 1 5 1 6 0 11-3.5t7-10.5l11-37q2-7-1.5-14T80 260zm218 46l-57-100q-2-3-5-6l-48-36-23-29q-9-14-21-20t-29-6h-12q-18 0-29.5 6.5T53 136l-37 56q-5 7-3.5 14.5t8 12q6.5 4.5 14.5 3t12-8.5l28-42v27q0 14 7 26.5t19 20.5l40 27 23 51q2 5 7 8t9.5 3q4.5 0 8.5-2 7-3 10-10t-1-14l-25-57q-2-5-7-8l-28-19v-63l22 28q2 3 4 4l47 35 54 96q2 5 6.5 7.5t9.5 2.5q5 0 9-2 7-4 9-11.5t-1-14.5z"/></svg>