<svg viewBox="0 0 300 368" xmlns="http://www.w3.org/2000/svg"><path d="M281 284h-6V117l16-16q6-7 8-16.5T297.5 66Q294 57 286 52t-18-5H32q-10-1-18 4.5T2.5 66Q-1 75 1 84.5T9 101l16 16v167h-6q-8 0-13.5 5.5T0 303q0 8 5.5 13.5T19 321h62q18 0 31-12.5t13-30.5v-69q0-10 7.5-17.5T150 184q10 0 17.5 7.5T175 209v69q0 18 13 30.5t31 12.5h62q8 0 13.5-5t5.5-13q0-8-5.5-13.5T281 284zm-43 0h-19q-3 0-4.5-2t-1.5-4v-69q0-17-8.5-31.5t-23-22.5q-14.5-8-31.5-8t-31.5 8Q104 163 96 177.5T88 209v69q0 2-2 4t-5 2H63V109h175v175z"/></svg>