<svg viewBox="0 0 300 368" xmlns="http://www.w3.org/2000/svg"><path d="M225 122q12 13 12 31t-12 31l-26 26q-6 5-13.5 5t-13-5.5q-5.5-5.5-5.5-13t5-13.5l26-26q2-2 2-4.5t-2-4.5l-26-26q-5-5-5-13t5.5-13.5q5.5-5.5 13-5.5t13.5 6l26 26zm-97 0q5-5 5-13t-5.5-13.5q-5.5-5.5-13-5.5T101 96l-26 26q-12 13-12 31t12 31l26 26q6 5 13.5 5t13-5.5q5.5-5.5 5.5-13t-5-13.5l-26-26q-2-2-2-4.5t2-4.5l26-26zm172-19v100q0 18-9.5 34t-25 25q-15.5 9-34.5 9h-62v25h37q8 0 13.5 5.5T225 315q0 8-5.5 13.5T206 334H94q-8 0-13.5-5.5T75 315q0-8 5.5-13.5T94 297h37v-26H69q-19 0-34.5-9t-25-25Q0 221 0 203V103q0-19 9.5-34.5t25-25Q50 34 69 34h162q19 0 34.5 9.5t25 25Q300 84 300 103zm-37 0q0-13-9.5-22.5T231 71H69q-13 0-22 9.5T38 103v100q0 13 9 22t22 9h162q13 0 22.5-9t9.5-22V103z"/></svg>