<svg viewBox="0 0 300 368" xmlns="http://www.w3.org/2000/svg"><path d="M151 259q31 0 57-15t41-41q15-26 15-56-2-43-25-72-21-26-54.5-35.5t-66.5 0Q85 49 64 75q-23 29-25 71 0 31 15 57t41 41q26 15 56 15zM132 74q1-9 9-12.5t16.5-.5q8.5 3 10.5 11 9 2 17 7.5T198 94q5 9-.5 18t-16 9.5Q171 122 165 112q-2-3-5-3h-15q-4 0-6 3t-1 6.5q1 3.5 4 4.5l30 12q19 7 25 25.5t-2 36q-8 17.5-27 22.5-1 9-9 12.5t-16.5.5q-8.5-3-10.5-11-9-2-17-7.5t-12-13q-4-7.5-2-15t8.5-11.5q6.5-4 14-2t11.5 9q2 3 5 3h15q4 0 6-3t1-6.5q-1-3.5-4-4.5l-30-12q-19-7-25-25.5t2-36Q113 79 132 74zm168 204q0 23-16.5 39.5T244 334H56q-18 0-32-10T4 297.5q-6-16.5-2.5-33T19 236q6-5 13.5-5t12.5 6q5 6 5 14t-6 13-6 13q0 8 5 14t13 5h188q8 1 13-5t5-14q0-8-6-13t-6-13q0-8 5-14t12.5-6q7.5 0 13.5 5 9 8 14 19t5 23z"/></svg>