<svg viewBox="0 0 300 368" xmlns="http://www.w3.org/2000/svg"><path d="M288 145q-15-21-34-38l35-36q5-5 5-13t-5.5-13q-5.5-5-13-5T262 45l-40 41q-34-17-72-17-42 0-78.5 20.5T12 145Q0 162 0 183.5T12 223q15 21 34 38l-35 35q-6 6-6 13.5t6 13q6 5.5 13.5 5.5t13.5-5l40-41q34 17 72 17 42-1 78.5-21t59.5-55q12-18 12-39.5T288 145zM43 201q-5-8-5-17.5t5-17.5q17-27 45.5-43t61.5-16q22 0 43 7l-23 24q-20-9-39-1t-27.5 27.5Q95 184 104 203l-31 31q-17-14-30-33zm214 0q-17 28-45.5 44T150 261q-22 0-43-8l23-23q20 8 39 .5t27.5-27Q205 184 196 164l31-30q17 14 30 32 5 8 5 17.5t-5 17.5z"/></svg>