<svg viewBox="0 0 300 368" xmlns="http://www.w3.org/2000/svg"><path d="M231 334H69q-19 0-34.5-9.5t-25-25Q0 284 0 265V103q0-19 9.5-34.5t25-25Q50 34 69 34h162q19 0 34.5 9.5t25 25Q300 84 300 103v162q0 19-9.5 34.5t-25 25Q250 334 231 334zM69 71q-13 1-22 10t-9 22v162q0 13 9 22t22 9h162q13 0 22.5-9t8.5-22V103q1-13-8.5-22.5T231 71H69zm62 113q0 8 5.5 13.5T150 203q8 0 13.5-5.5T169 184q0-8-5.5-13.5T150 165q-8 0-13.5 5.5T131 184zm-56-56q0 8 5.5 13.5t13.5 5q8-.5 13-5.5t5-13q0-8-5-13.5T94 109q-8 0-13.5 5.5T75 128zm113 112q0 8 5 13.5t13 5.5q8 0 13.5-5.5T225 240q0-8-5.5-13t-13.5-5q-8 0-13.5 5t-5.5 13h1z"/></svg>