<svg viewBox="0 0 300 368" xmlns="http://www.w3.org/2000/svg"><path d="M269 134q-8 0-13.5-5.5T250 115V53q0-8 5.5-13.5T269 34q8 0 13.5 5.5T288 53v62q-1 8-6 13.5t-13 5.5zm-44-19V53q0-8-5.5-13.5T206 34q-8 0-13.5 5.5T187 53v62q1 8 6 13.5t13 5.5q8 0 13.5-5.5T225 115zm51 196l12-14q12-13 12-31t-13-31l-28-26q-13-12-31-12t-31 12l-5 5q-24-11-42.5-29.5T120 142l5-5q12-13 12.5-30.5T125 76L98 47Q86 34 68 34T37 46L23 58Q-1 86 1 125q1 35 24 73 21 36 55.5 68t71.5 50.5q37 18.5 67 17.5 16 0 30.5-6t26.5-17zM63 73q2-1 4-1.5t4 1.5l27 29q2 2 2 4.5t-2 4.5l-14 14q-4 4-5 9.5t1 10.5q14 38 42.5 66.5T189 254q5 2 10.5 1t9.5-5l14-14q3-2 5-2t5 2l28 26q2 2 2 4.5t-2 4.5l-12 14q-19 17-52 9-30-7-63.5-32T74 204q-26-33-34-63-8-34 9-56l14-12z"/></svg>