<svg viewBox="0 0 300 368" xmlns="http://www.w3.org/2000/svg"><path d="M281 140q8 0 13.5-5.5T300 122v-7q0-18-9.5-34t-25-25.5Q250 46 231 46H131q-18 0-34 9.5T71.5 81Q62 97 62 115v88q1 18 10 34t25 25q16 9 34 9h100q19 0 34.5-9t25-25q9.5-16 9.5-34v-7q0-7-5.5-12.5T281 178q-8 0-13-5.5t-5-13.5q0-8 5-13.5t13-5.5zm-20 72q-3 9-11 15.5t-19 6.5H131q-13 0-22-9t-9-22v-88q0-13 9-22t22-9h100q11 0 19 6.5t11 15.5q-16 7-26 21t-10 32q0 18 10 32t26 21zm-30 103q0 8-5.5 13.5T213 334h-82q-35 0-65.5-17.5t-48-48Q0 238 0 203v-63q0-8 5.5-13.5t13.5-5q8 .5 13 5.5t5 13v63q0 25 13 46.5t34.5 34Q106 296 131 296h82q7 0 12.5 5.5T231 315zm-18-156q0 5-4 8.5t-9 3.5h-12l-24 31q-4 7-13 7h-1q-4 0-6-3t-1-6l11-29h-12q-9 0-14-6l-14-16q-3-5 0-10t7.5-5q4.5 0 7.5 3l14 9h12l-12-28q-1-3 1-6t6-3h1q8 0 12 7l25 30h12q5 0 9 4t4 9z"/></svg>