<svg viewBox="0 0 300 368" xmlns="http://www.w3.org/2000/svg"><path d="M150 34q-41 0-75.5 20T20 108.5Q0 143 0 184t20 75.5Q40 294 74.5 314t75.5 20q41 0 75.5-20t54.5-54.5q20-34.5 20-75.5t-20-75.5Q260 74 225.5 54T150 34zm113 150q0 36-21 65l-28-28h11q5 0 8.5-3.5t3.5-8.5v-25q0-5-3.5-8.5T225 172h-61L85 92q29-21 65-21 31 0 56.5 15.5t41 41Q263 153 262 184h1zm-225 0q0-36 20-65l157 157q-29 20-65 20-31 0-56.5-15t-41-41Q37 214 37 184h1zm112-75q0-5 3.5-8.5t9-3.5q5.5 0 9 3.5t3.5 8.5q1 2 6 4l20 6q11 4 17.5 11t6.5 17q0 5-3.5 8.5t-9 3.5q-5.5 0-9-3.5T200 147q-1-3-6-4l-20-7q-11-3-17.5-10.5T150 109zm-74 62l50 50H75q-5 0-9-3.5t-4-8.5v-25q0-6 3-8.5t7-3.5l4-1z"/></svg>