<svg viewBox="0 0 300 368" xmlns="http://www.w3.org/2000/svg"><path d="M200 221h38q16 0 30.5-8t23-22.5Q300 176 300 159q0-21-13-37v-7q1-25-15-44 6-1 11-6t5-12.5q0-7.5-5.5-13T269 34q-8 0-13.5 5.5T250 53v1q-15-7-31.5-7.5T188 54v-1q0-8-5.5-13.5T169 34q-8 0-13.5 5.5t-5.5 13q0 7.5 4.5 12.5t11.5 6q-9 12-13 26h-40q-28-1-51 12.5T26 146q-13 23-13 51 0 15 4 30L2 257q-3 7-1 14.5t9 10.5q4 2 9 2t9.5-3q4.5-3 7.5-7l4-9q10 11 22 18v20q1 13 10 22t22 9q13 0 22-9t9-22v-7h50v7q0 13 9 22t22 9q13 0 22.5-9t9.5-22v-20l3-2q7-4 8.5-12t-2.5-14.5q-4-6.5-11.5-8T221 249q-15 10-33 10h-75q-17 0-31.5-8.5t-23-23Q50 213 50 196.5t8.5-31q8.5-14.5 23-23T112 134h31q-5 12-5 25 0 17 8 31.5t22.5 22.5q14.5 8 31.5 8zm19-137q13 0 22 9t9 22v14q0 7 5 13 8 7 8 17t-7.5 17.5Q248 184 238 184h-38q-10 0-17.5-7.5T175 159q0-10 7-17 6-6 5-13v-14q0-13 9.5-22t22.5-9z"/></svg>