<svg viewBox="0 0 300 368" xmlns="http://www.w3.org/2000/svg"><path d="M25 34h138q10 0 17.5 7.5T188 59v87q-1 11-8 18.5t-18 7.5H25q-10 0-17.5-7.5T0 146V59q0-10 7.5-17.5T25 34zm212 0h38q10 0 17.5 7.5T300 59v87q0 11-7.5 18.5T275 172h-38q-10 0-17.5-7.5T212 146V59q1-10 8-17.5t17-7.5zM25 196h38q10 0 17.5 7.5T88 222v87q0 10-7.5 17.5T63 334H25q-10 0-17.5-7.5T0 309v-88q0-10 7.5-17.5T25 196zm113 0h137q10 0 17.5 7.5T300 222v87q0 10-7.5 17.5T275 334H138q-11 0-18.5-7.5T113 309v-88q0-10 7-17.5t18-7.5z"/></svg>