<svg viewBox="0 0 300 368" xmlns="http://www.w3.org/2000/svg"><path d="M150 134h6q8 0 13.5-5.5T175 115q0-8-5.5-13T156 97h-15l-3-13h6q13 0 22-9t9-22q0-8-5.5-13.5T157 34q-7 0-11.5 3.5T139 46h-19q-14-12-32.5-12T55 46H36q-2-5-6.5-8.5T18 34q-7 0-12.5 5.5T0 53q0 13 9 22t22 9h6l-3 12H19q-8 0-13.5 5.5T0 115q0 8 5.5 13.5T19 134h6q0 7 1 13-11 2-18.5 10.5T0 178q0 8 5.5 13.5t12.5 5q7-.5 11.5-3.5t6.5-9h14q17 12 38 13 16 0 30.5-8.5t23-23Q150 151 150 134zm-87 0l14-56q2-3 4.5-5t6-2q3.5 0 6 2t4.5 5l14 56q1 10-6.5 17.5t-18 7.5Q77 159 70 151.5T63 134zm218 137q8 1 13.5-4.5T300 253q0-8-5.5-13.5T281 234h-15l-3-13h6q13 0 22-9t9-22q0-8-5.5-13.5t-12.5-5q-7 .5-11.5 3.5t-6.5 9h-19q-14-13-33-13-15 0-27.5 9T167 203l-8 31h-15q-8 0-13.5 5.5T125 253q0 8 5.5 13.5T144 272h6q0 6 1 12-11 2-18.5 11t-7.5 20q0 8 5.5 13.5T143 334q7 0 11.5-3.5t6.5-9.5h14q17 13 37.5 13t37.5-13h14q2 6 6.5 9.5T282 334q7 0 12.5-5.5T300 315q0-11-7.5-20T274 284q1-6 1-12h6v-1zm-68 25q-11 0-18-7t-8-18l15-55q2-3 4.5-5t6-2q3.5 0 6 2t4.5 5l15 55q0 11-7.5 18t-17.5 7z"/></svg>