<svg viewBox="0 0 300 368" xmlns="http://www.w3.org/2000/svg"><path d="M151 210L32 329q-6 5-13.5 5t-13-5.5Q0 323 0 315t5-13l119-119q-15-24-11.5-52T136 83l45-44q5-5 13-5t13 5.5q5 5.5 5 13.5t-5 13l-45 44q-9 9-11.5 21t1.5 24l78-78q6-5 14-5t13 5q5 5 5.5 13t-5.5 14l-78 78q12 4 24 1.5t21-11.5l44-45q3-4 8-5t10 0q5 1 8.5 4.5t5 8.5q1.5 5 0 10t-4.5 8l-44 45q-20 20-48 23.5T151 210zm101 43q-6-7-15-7-30 2-60-4l-5-1q-7-2-13.5 2.5t-8 12q-1.5 7.5 2.5 14t12 7.5l5 1q29 7 59 6l38 44q5 5 13 5.5t13.5-4.5q5.5-5 6-12.5T295 303l-43-50zM47 192q5 6 12.5 7t14-3.5Q80 191 81 183t-4-14q-31-40-39-90l34 36q5 6 12.5 6t13.5-5q6-5 6.5-12.5T99 90L58 45q-7-8-17.5-10t-20 1.5q-9.5 3.5-15 12T0 67v4q3 34 15 64.5T47 192z"/></svg>