<svg viewBox="0 0 301 368" xmlns="http://www.w3.org/2000/svg"><path d="M296 127q5 6 5 13.5t-6 13.5l-19 19q-18-11-40-13l33-33q6-6 13.5-5.5T296 127zM131 290q6 18 18 32-22 12-42 12-26 0-60-20l-14 14q-5 6-13 6t-13.5-5.5Q1 323 1 315.5T6 302l14-14Q0 253 0 227q0-19 10-39 9-18 21-31 6-6 15-8.5t18-.5q4-15 13-30 7-13 17-23 7-8 18-10t21 3l49-49q5-5 13-5t13.5 5.5q5.5 5.5 5 13.5T208 66l-49 49q7 12 11 23l98-99q6-6 13.5-6t13 5.5Q300 44 300 52t-5 13l-97 98q-32 9-52 35.5T126 259v5q-11-5-19-5h-5l-27 28q20 9 32 9 10 0 24-6zm-31-126q0 13 10 34l27-27v-7q0-14-8-28-4-7-10-13-8 9-13.5 20.5T100 164zm-26 70q1-4 1-7 0-10-5.5-21T56 185q-8 10-13.5 21T37 227q0 12 11 33l26-26zm227 25q0 20-10 37.5T263.5 324Q246 334 226 334t-37.5-10Q171 314 161 296.5T151 259q0-20 10-37.5t27.5-27.5q17.5-10 37.5-10t37.5 10q17.5 10 27.5 27.5t10 37.5zm-87-13q-1 6 3 9.5t9 3.5q5 0 8.5-3.5t3.5-9.5v-25q0-5-3.5-8.5T226 209q-5 0-8.5 3.5T214 222v24zm31 44q0-8-5.5-13t-13.5-5q-8 0-13.5 5t-5.5 13q0 8 5.5 13.5T226 309q8 0 13.5-5.5T245 290z"/></svg>