<svg viewBox="0 0 300 368" xmlns="http://www.w3.org/2000/svg"><path d="M115 334q-44 0-84-20-12-6-20-17.5t-10-25q-2-13.5 2-27T17 221L187 51q10-10 23.5-14t27-2q13.5 2 25 10T280 65q22 43 20 91.5T273 246q-25 41-67 64.5T115 334zM228 71q-8 0-15 7L44 247q-8 8-6.5 18.5T49 280q28 15 59 16.5t60-9.5q29-11 51.5-33.5T253 202q11-29 9.5-60T246 82q-4-9-14-10h-4v-1zm5 60q-12-7-25-9-3-1-6 1.5t-2 6.5q2 13 10 24 6 7 15.5 4.5t12-11.5q2.5-9-4.5-16zm-63 100q-11-7-24-9-4-1-6.5 1.5T138 230q2 13 9 24 5 5 11.5 5t11.5-5q5-5 5-11.5t-5-11.5zm38-37q-12-8-25-10-3-1-6 2t-2 6q2 13 10 25 4 4 11 4t11.5-4.5Q212 212 212 205t-4-11zm-100 50q-12-8-25-10-3-1-6 2t-2 6q2 13 10 25 4 4 11 4t11.5-4.5Q112 262 112 255t-4-11z"/></svg>