<svg viewBox="0 0 300 368" xmlns="http://www.w3.org/2000/svg"><path d="M219 34H81q-18 0-34 9.5t-25.5 25Q12 84 13 103v175q0 23 16 39.5T69 334h150q18 0 34-9.5t25-25q9-15.5 10-34.5V103q0-19-9.5-34.5t-25.5-25Q237 34 219 34zm-19 106q0 3-2 4.5t-4 1.5h-13q-2 0-4-1.5t-2-4q0-2.5 2-4.5t4-2h13q2 0 4 2t2 4zm-37-37q0 5 2 11-7 4-11 11t-4 15q0 13 9 22t22 9q3 0 5 2t2 4.5q0 2.5-2 4.5t-5 2h-6q-5 0-8.5 3.5t-3.5 9q0 5.5 3.5 9t8.5 3.5h6q13 0 22.5-9t9.5-22q0-6-2-11 6-5 10-12t4-15q0-12-9-21.5t-22-9.5q-3 0-4.5-2t-1.5-4.5q0-2.5 1.5-4.5t4.5-2h6q5 0 9-3.5t4-8.5q0-5-4-9t-9-4h19q13 0 22 9.5t9 22.5v118H125V71h69q-13 0-22 9.5t-9 22.5zM81 71h7v150H69q-10 0-19 4V103q0-13 9-22.5T81 71zm138 225H69q-8 0-13.5-5T50 278q0-8 5.5-13.5T69 259h181v6q0 13-9 22t-22 9z"/></svg>