<svg viewBox="0 0 300 368" xmlns="http://www.w3.org/2000/svg"><path d="M231 59H69q-19 0-34.5 9.5t-25 25Q0 109 0 128v112q0 19 9.5 34.5t25 25Q50 309 69 309h162q19 0 34.5-9.5t25-25Q300 259 300 240V128q0-19-9.5-34.5t-25-25Q250 59 231 59zM69 96h162q13 0 22.5 9.5T263 128v31H38v-31q0-13 9-22.5T69 96zm162 175H69q-13 0-22-9t-9-22v-44h25v32q0 8 5 13.5t13 5q8-.5 13.5-5.5t5.5-13v-32h25v32q0 8 5.5 13.5t13.5 5q8-.5 13.5-5.5t5.5-13v-32h37v32q0 8 5.5 13.5t13.5 5q8-.5 13-5.5t5-13v-32h26v44q0 13-9.5 22.5T231 271z"/></svg>