<svg viewBox="0 0 300 368" xmlns="http://www.w3.org/2000/svg"><path d="M200 53q0 8-5.5 13T181 71h-68v169q0 8-5.5 13.5T94 259q-8 0-13.5-5.5T75 240V71H19q-8 0-13.5-5T0 53q0-8 5.5-13.5T19 34h162q8 0 13.5 5.5T200 53zm-44 43q-8 0-13 5.5t-5 13.5q0 8 5 13.5t13 5.5q8 0 13.5-5.5T175 115q0-8-5.5-13.5T156 96zm0 63q-8 0-13 5.5t-5 13.5q0 8 5 13t13 5q8 0 13.5-5t5.5-13q0-8-5.5-13.5T156 159zm0 62q-8 0-13 5.5t-5 13.5q0 8 5 13.5t13 5.5q8 0 13.5-5.5T175 240q0-8-5.5-13.5T156 221zm0 63q-8 0-13 5.5t-5 13.5q0 8 5 13t13 5q8 0 13.5-5t5.5-13q0-8-5.5-13.5T156 284zm63-188q-8 0-13.5 5.5T200 115q0 8 5.5 13.5T219 134q8 0 13.5-5.5T238 115q0-8-5.5-13.5T219 96zm62 0q-8 0-13 5.5t-5 13.5q0 8 5 13.5t13 5.5q8 0 13.5-5.5T300 115q0-8-5.5-13.5T281 96z"/></svg>