<svg viewBox="0 0 300 368" xmlns="http://www.w3.org/2000/svg"><path d="M219 171q-22 0-41 11t-29.5 30Q138 231 138 253t10.5 40.5Q159 312 178 323t41 11q22 0 40.5-11t29.5-29.5q11-18.5 11-40.5t-11-41q-11-19-29.5-30T219 171zm38 93q6 6 6 14t-5.5 13q-5.5 5-13.5 5t-13-5l-12-12-12 12q-5 5-13 5t-13.5-5.5q-5.5-5.5-5.5-13t6-13.5l11-11-11-12q-6-6-6-13.5t5.5-13Q186 209 194 209t13 5l12 12 12-12q5-5 13-5t13.5 5.5Q263 220 263 228t-6 13l-12 12 12 11zm-144 26q0 8-5.5 13.5T94 309H69q-19 0-34.5-9.5t-25-25Q0 259 0 240V103q0-19 9.5-34.5t25-25Q50 34 69 34h122q18 0 31 13l40 41q13 13 13 30v10q0 7-5.5 12.5T256 146q-8 0-13-5.5t-5-12.5v-10q0-2-2-4l-41-41q-2-2-4-2h-3v32q0 7-5.5 12.5T169 121H81q-8 0-13-5.5T63 103V72q-11 2-18 11t-7 20v137q0 13 9 22t22 9h25q8 0 13.5 5.5T113 290zm8-78q-4 8-13 9t-13-7q-10-15-6-33 2-12 11-21t20.5-12q11.5-3 22.5 0 8 2 10 11t-5 14q-18 17-27 39zm98-41q-22 0-41 11t-29.5 30Q138 231 138 253t10.5 40.5Q159 312 178 323t41 11q22 0 40.5-11t29.5-29.5q11-18.5 11-40.5t-11-41q-11-19-29.5-30T219 171zm38 93q6 6 6 14t-5.5 13q-5.5 5-13.5 5t-13-5l-12-12-12 12q-5 5-13 5t-13.5-5.5q-5.5-5.5-5.5-13t6-13.5l11-11-11-12q-6-6-6-13.5t5.5-13Q186 209 194 209t13 5l12 12 12-12q5-5 13-5t13.5 5.5Q263 220 263 228t-6 13l-12 12 12 11zm-144 26q0 8-5.5 13.5T94 309H69q-19 0-34.5-9.5t-25-25Q0 259 0 240V103q0-19 9.5-34.5t25-25Q50 34 69 34h122q18 0 31 13l40 41q13 13 13 30v10q0 7-5.5 12.5T256 146q-8 0-13-5.5t-5-12.5v-10q0-2-2-4l-41-41q-2-2-4-2h-3v32q0 7-5.5 12.5T169 121H81q-8 0-13-5.5T63 103V72q-11 2-18 11t-7 20v137q0 13 9 22t22 9h25q8 0 13.5 5.5T113 290zm8-78q-4 8-13 9t-13-7q-10-15-6-33 2-12 11-21t20.5-12q11.5-3 22.5 0 8 2 10 11t-5 14q-18 17-27 39z"/></svg>