<svg viewBox="0 0 300 368" xmlns="http://www.w3.org/2000/svg"><path d="M284 147q-15-14-35-13t-33 16l-31 33q-13-12-31-11H56q-23-1-39.5 15.5T0 228v50q0 23 16.5 39.5T56 334h68q28 0 54-11.5t45-33.5l65-74q13-15 12-35t-16-33zm-24 43l-65 74q-14 16-32.5 24t-38.5 8H56q-8 0-13.5-5T37 278v-50q1-8 6-13.5t13-5.5h98q4 0 6 2.5t2.5 5.5q.5 3-1.5 5.5t-5 2.5l-65 9q-8 1-12.5 7.5t-3.5 14q1 7.5 7.5 12T96 271l65-9q15-2 26-13t13-26l43-48q3-3 8-3.5t8 2.5q3 3 3.5 8t-2.5 8zM63 121h12v13q0 5 3.5 8.5T87 146h26q5 0 8.5-3.5t3.5-8.5v-13h13q5 0 8.5-3.5t3.5-8.5V84q0-14-7.5-26t-20-18.5Q110 33 95 34q-19 2-32 17T50 86v23q0 5 3.5 8.5T62 121h1zm62-50q5 0 9 4t4 9q0 5-4 9t-9 4q-5 0-8.5-4t-4-9q-.5-5 3.5-9t9-4zm-50 0q5 0 9 4t4 9q0 5-4 8.5t-9 4q-5 .5-9-3.5t-4-9q0-5 4-9t9-4z"/></svg>