<svg viewBox="0 0 300 368" xmlns="http://www.w3.org/2000/svg"><path d="M281 296h-41q-4-14-12-26l28-28q5-6 5-13.5t-5.5-13q-5.5-5.5-13-5.5t-13.5 5l-28 29q-15-10-32-14v-40q0-8-5.5-13.5T150 171q-8 0-13.5 5.5T131 190v40q-18 4-33 14l-28-29q-5-5-13-5t-13.5 5.5q-5.5 5.5-5.5 13t6 13.5l28 28q-8 12-12 26H19q-8 0-13.5 5.5T0 315q0 8 5.5 13.5T19 334h45q11 0 20-7t11-18q4-19 19.5-31t35.5-12q20 0 35 12t20 31q2 11 10.5 18t19.5 7h46q8 0 13.5-5.5T300 315q0-8-5.5-13.5T281 296zM169 128V99h21q3-1 6.5-3t4.5-5.5q1-3.5.5-7T198 77l-39-39q-4-4-9-4t-9 4l-39 39q-3 3-3.5 6.5t.5 7q1 3.5 4.5 5.5t6.5 3h21v29q0 8 5.5 13.5t13.5 5q8-.5 13.5-5.5t5.5-13z"/></svg>