<svg viewBox="0 0 300 368" xmlns="http://www.w3.org/2000/svg"><path d="M134 334q-23 0-44-8.5T52 301q-22-23-29.5-54t.5-61q8-30 31-53l73-73q15-15 34.5-21.5t40-3.5q20.5 3 38 16t26 34q8.5 21 6 43T255 168q-4 4-7 8l-77 77q-13 13-32 16-12 1-24-3.5T95 252q-13-17-11.5-37.5T99 180l58-58q6-6 13.5-6t13.5 6q5 5 5 13t-5 13l-60 60q-4 4-4 10t4 9.5q4 3.5 9.5 3.5t9.5-4l77-77q12-11 14-27.5T227 92q-10-16-29-20t-35 7q-4 2-7 6l-76 76q-22 21-24 50.5T71 266q13 16 32.5 24t40 5.5Q164 293 181 280q4-3 8-7l60-60q5-5 13-5t14 5q5 6 5 14t-5 13l-60 60q-17 16-38 25t-44 9z"/></svg>