<svg viewBox="0 0 300 368" xmlns="http://www.w3.org/2000/svg"><path d="M279 192q12-12 17-28t3-34q-2-18-10-34t-21-30q-19-18-42.5-26t-46-4Q157 40 142 55q-18 18-21 46-1 13-15 22-19 14-27 36t-2 45q3 10 8 18L5 302q-5 5-5 13t5.5 13.5Q11 334 19 334t13-6l80-79q9 5 18.5 7.5T150 259q18 0 34-8t26-22.5q10-14.5 23-15.5 28-3 46-21zm-99 14q-6 9-16.5 13.5t-23.5.5q-10-2-17-9t-9-17q-4-13 .5-23.5T128 154q13-9 21-22.5t9.5-27.5Q160 90 169 81t26-9q11 0 23.5 5.5T241 93q18 18 21 41 2 20-10 32-8 8-22 9.5t-27.5 9.5q-13.5 8-22.5 21zm120 90q0 16-11 27t-26.5 11q-15.5 0-26.5-11t-11-26.5q0-15.5 11-26.5t26.5-11q15.5 0 26.5 11t11 26z"/></svg>