<svg viewBox="0 0 300 368" xmlns="http://www.w3.org/2000/svg"><path d="M252 226q-7-3-14-.5t-11 8.5q-7 14-20 23.5T179 270l46-139 2 3q3 7 10.5 9.5t14.5-1q7-3.5 9.5-10.5t-.5-14q-9-17-22-29l10-30q3-8-.5-15t-11-9.5q-7.5-2.5-14.5 1T214 47l-7 20q-11-4-21-6l1-2q2-8-1.5-15t-11-9.5q-7.5-2.5-14.5 1T151 47l-4 12h-4q-29 0-53 14t-38 38.5Q38 136 38 165v38q0 23 9 43.5T73 282l-9 27q-3 8 .5 15t10.5 9q4 1 6 1 6 0 11-3.5t7-9.5l6-19q11 4 22 6l-1 1q-2 8 1 15t11 9q3 1 6 1 6 0 11-3.5t7-9.5l4-12q30 0 55.5-16t38.5-41q4-7 1.5-14.5T252 226zM75 203v-38q0-26 17-45.5T134 97L86 241q-11-17-11-38zm42 63l57-169q11 2 21 6l-56 168q-11 0-22-5z"/></svg>