<svg viewBox="0 0 300 368" xmlns="http://www.w3.org/2000/svg"><path d="M247 164q-4-6-3-14t7-12.5q6-4.5 14-3.5t12 7q15 20 22 44 2 7-1.5 14t-10.5 9q-3 1-6 1-6 0-11-3.5t-7-9.5q-5-18-16-32zm17 83zm17-13q-6 0-10.5 3.5T264 247q-4 10-13.5 17t-18.5 7q-9 0-18-4 11-15 17.5-30.5T238 209q0-21-15-35.5T187.5 159q-20.5 0-35 14.5T138 209q0 12 5.5 27t14.5 29q-13 6-27 6-19 0-39-20 21-30 33.5-65t12.5-58q0-19-9.5-34.5t-25.5-25Q87 59 68.5 59t-34 9.5Q19 78 9.5 93.5T0 128q0 23 12 57 12 36 32 66-16 16-31 21-8 3-11.5 10t-1 13.5Q3 302 8 305.5t11 3.5q3 0 6-1 22-7 43-28 30 29 63 29 29 0 54-16 22 16 46 16 22 0 41-14t26-35q2-3 2-7 0-8-5.5-13.5T281 234zM38 128q0-13 9-22.5T69 96q13 0 22 9.5t9 22.5q0 16-9 41.5T68 219q-14-23-22-48.5T38 128zm149 112q-12-18-12-31 0-5 3.5-9t9-4q5.5 0 9 4t3.5 9.5q0 5.5-3.5 14T187 240z"/></svg>