<svg viewBox="0 0 300 368" xmlns="http://www.w3.org/2000/svg"><path d="M150 334q-41 0-75.5-20T20 259.5Q0 225 0 184t20-75.5Q40 74 74.5 54T150 34q41 0 75.5 20t54.5 54.5q20 34.5 20 75.5t-20 75.5Q260 294 225.5 314T150 334zm0-263q-31 0-56.5 15.5t-40.5 41Q38 153 37.5 184t15 56.5q15.5 25.5 41 41t56.5 15q31-.5 56.5-15.5t40.5-40.5q15-25.5 15-56.5t-15-56.5Q232 102 206.5 87T150 71zm25 169V128q0-6-3-10.5t-8.5-7q-5.5-2.5-11-1.5t-9.5 5l-38 38q-5 5-5 13t5.5 13.5Q111 184 119 184t13-6l5-5v67q0 8 5.5 13.5T156 259q8 0 13.5-5.5T175 240z"/></svg>