<svg viewBox="0 0 300 368" xmlns="http://www.w3.org/2000/svg"><path d="M75 65q0-13 9-22t22-9q13 0 22.5 9t9.5 22q0 13-9.5 22T106 96q-13 0-22-9t-9-22zm181 231h-17l-16-55q-4-14-15.5-23t-26.5-9h-50q-2 0-4-2t-2-4v-19h69q8 0 13-5.5t5.5-13.5q.5-8-5-13.5T194 146h-69v-18q0-8-5.5-13.5T106 109q-8 0-13.5 5.5T87 128v75q1 18 13.5 30.5T131 246h50q5 0 6 5l17 60q3 10 11.5 16.5T234 334h22q8 0 13.5-5.5T275 315q0-8-5.5-13.5T256 296zm-100-25h-25q-18 0-34-9t-25.5-25Q62 221 62 203v-75q0-8-5-13.5T44 109q-8 0-13.5 5.5T25 128v75q0 29 14.5 53T78 294.5q24 14.5 53 14.5h25q8 0 13.5-5.5T175 290q0-8-5.5-13.5T156 271z"/></svg>