<svg viewBox="0 0 300 368" xmlns="http://www.w3.org/2000/svg"><path d="M231 34H69q-19 0-34.5 9.5t-25 25Q0 84 0 103v162q0 19 9.5 34.5t25 25Q50 334 69 334h162q19 0 34.5-9.5t25-25Q300 284 300 265V103q0-19-9.5-34.5t-25-25Q250 34 231 34zm32 231q0 13-9.5 22t-22.5 9H69q-13 0-22-9t-9-22V103q0-13 9-22t22-9h162q13-1 22.5 8.5T263 103v162zm-42-139l-52 70v57q0 8-5.5 13t-13.5 5q-8 0-13.5-5t-5.5-13v-57l-52-70q-5-6-4-13.5t7.5-12Q89 96 96.5 97t12.5 7l41 55 41-55q5-6 12.5-7t14 3.5q6.5 4.5 7.5 12t-4 14.5v-1z"/></svg>