<svg viewBox="0 0 300.0356 368" xmlns="http://www.w3.org/2000/svg"><path d="M300.036 228v37q0 19-9.5 34.5t-25 25q-15.5 9.5-34.5 9.5h-112q-32 0-59.5-16t-43.5-43.5q-16-27.5-16-59.5 0-55 31-101l10-16q-16-7-27-21t-14-32q-1-4 2.5-7.5t8.5-3.5q15 2 27 7 10 5 18 12 6 5 10 11l3 5 3-5q4-6 9-11 8-7 18-12 13-5 27-7 5 0 8.5 3.5t2.5 7.5q-3 21-18 36.5t-35 20.5l-22 33q-24 36-25 80 1 22 12 40.5t29.5 30q18.5 11.5 40.5 11.5h112q13 0 22-9.5t9-22.5v-37q1-23-15.5-39.5t-40.5-16.5h-25q-3 0-12 2-15 3-31 12-22 11-44 31-6 5-14 4.5t-13-6.5q-5-6-4.5-13.5t6.5-12.5q38-34 78-48 21-7 34-7h25q26 0 47.5 12.5t34 34q12.5 21.5 12.5 47.5zm-100 25q0-8-5.5-13.5t-13.5-5.5q-8 0-13.5 5.5t-5 13.5q.5 8 5.5 13t13 5q8 0 13.5-5t5.5-13z"/></svg>