<svg viewBox="0 0 300 368" xmlns="http://www.w3.org/2000/svg"><path d="M224 104q-14-17-21-26-11-15-18-28-3-8-10.5-12.5t-16-4Q150 34 143 39t-10 14q-3 9-5.5 24t-2.5 30q0 19 6 35 3 10 11 25 5 10 7 15.5t1.5 12Q150 201 145 205t-12 4q-9 0-14.5-4.5t-9-17Q106 175 105 151q0-10-6.5-18T82 122.5Q72 120 62.5 124T48 136q-10 17-15 31-8 21-8 41 0 34 16.5 63T87 317q29 17 62.5 17t62.5-17q29-17 46-46t17-63q0-27-16-56-9-16-35-48zm13 104q0 24-11.5 44t-32 32q-20.5 12-44 12T106 284q-20-12-32-32t-12-44q0-15 7-32 4 29 16 47 16 23 48 24 21 0 37-14t17-35q2-14-3-27-2-8-9-21-6-12-9-19-4-11-4-24 0-10 2-20 9 15 31 41.5t30 39.5q13 21 12 40z"/></svg>