<svg viewBox="0 0 300 368" xmlns="http://www.w3.org/2000/svg"><path d="M38 315q0 8-5.5 13.5T19 334q-8 0-13.5-5.5T0 315q0-8 5.5-13t13.5-5.5q8-.5 13 5t5 13.5h1zm25-69q-11 0-18 7.5t-7 18q0 10.5 7 18t17.5 7.5q10.5 0 18-7.5t7-18q-.5-10.5-7.5-18T63 246zm236-72q-2 24-18 43t-39 26q-23 7-46 0-3-1-5 1-21 15-47 15-21 0-39.5-10T75 221l-10-1q-21-4-37-18T5 168q-7-20-4-41 4-24 20.5-42T62 61q17-4 35-1 2 1 5-1 12-12 27.5-18.5T162 34q26 0 48 14t32 37q1 3 4 4 27 10 42 33.5t11 51.5zm-65-50q-18-6-26-23-6-13-18.5-21T162 72q-20 0-34 14-8 7-18 10t-20 1h-9.5Q76 97 70 98q-12 3-21 12.5T38 133q-3 17 7 32t27 18h4q10 1 18 5.5t13.5 13.5q5.5 9 15 14.5T144 222q14 0 25-9 8-6 18-7.5t20 1.5q12 4 24.5 0t21-14q8.5-10 9.5-23 2-15-6-28t-22-18z"/></svg>