<svg viewBox="0 0 300 368" xmlns="http://www.w3.org/2000/svg"><path d="M290 187q-6-8-14.5-12t-18.5-4H43q-10 1-18.5 4.5t-14.5 11Q4 194 1.5 203T1 221q4 28 20 51.5T63 314q28 20 66 20h42q38 0 66-20 26-18 42-41.5t20-51.5q2-9-.5-18t-8.5-16zm-28 28q-6 41-46 69-19 13-45 13h-42q-26 0-44-13-41-28-47-69-1-2 .5-4t4.5-2h214q3 0 4.5 2t.5 4zM81 147q18 0 32.5-10.5T134 109h147q8 0 13.5-5.5T300 90q0-8-5.5-13T281 72H134q-6-17-20.5-28T81 33q-16 0-35 7.5T15 60Q0 74 0 90.5T15 121q12 12 31 19t35 7zm0-76q8 0 13.5 5.5T100 90q0 8-5.5 14T81 110q-12 0-27-7T37 91q2-6 17-13t27-7z"/></svg>