<svg viewBox="0 0 300 368" xmlns="http://www.w3.org/2000/svg"><path d="M300 190v75q0 19-9.5 34.5t-25 25Q250 334 231 334H69q-19 0-34.5-9.5t-25-25Q0 284 0 265V140q0-18 9.5-34t25-25Q50 72 69 72h50q8-1 13 4.5t5.5 13.5q.5 8-5 13.5T119 109H69q-9 0-16.5 4.5T41 126l87 86q9 9 22 9t22-9l15-16q4-4 8.5-5t9.5 0q5 1 9 4.5t5 8q1 4.5 0 9.5t-4 9l-16 16q-10 10-22.5 15.5t-26 5.5q-13.5 0-26.5-5t-23-15l-63-64v90q0 13 9 22t22 9h162q13 0 22.5-9t8.5-22v-75q1-8 6-13.5t13-5.5q8 0 13.5 5.5T300 190zm-119-69h32v32q0 8 5 13.5t13 5q8-.5 13.5-5.5t5.5-13v-32h31q8 0 13.5-5t5.5-13q0-8-5.5-13.5T281 84h-31V53q0-8-5.5-13.5T231 34q-8 0-13.5 5.5T212 53v31h-31q-8 0-13.5 5.5t-5 13.5q.5 8 5.5 13.5t13 5.5v-1z"/></svg>