<svg viewBox="0 0 300 368" xmlns="http://www.w3.org/2000/svg"><path d="M188 90q0-8 5-13t13-5h19V53q0-8 5.5-13.5T244 34q8 0 13.5 5.5T263 53v18h18q8 0 13.5 5.5T300 90q0 8-5.5 13.5T281 109h-18v19q0 8-5.5 13t-13.5 5.5q-8 .5-13.5-5T225 128v-19h-19q-8 0-13.5-5.5T187 90h1zm99 145q13 14 13 31.5T288 297l-12 14q-11 11-26 17t-31 6q-34 0-74-21-37-20-70.5-53.5T21 189Q0 149 0 115q0-16 6-31t17-26l14-12q13-12 31-12t30 13l27 29q12 12 12 30t-12 31l-5 5q24 50 72 72l5-5q12-12 30.5-12t31.5 12l28 26zm-24 32q0-3-2-5l-28-26q-3-2-5.5-2t-4.5 2l-14 14q-4 4-9.5 5t-10.5-1q-77-30-109-109-2-5-1-10.5t5-9.5l14-14q2-2 2-4.5t-2-4.5L71 73q-1-2-3.5-1.5T63 73L49 85q-12 12-11 30 0 29 18 62 17 31 46 58.5t60.5 44Q194 296 219 296q18 0 30-11l12-14q1-2 1-4h1z"/></svg>