<svg viewBox="0 0 300 368" xmlns="http://www.w3.org/2000/svg"><path d="M300 128q0 8-5.5 13.5T281 147h-97q5 13 3 27t-11 26q-2 3 0 6 12 15 12 34t-12 35q-2 3 0 6 12 15 12 34-1 8-6 13.5t-13 5.5q-8 0-13.5-5.5T150 316q0-7-4-12-9-12-9-26.5t9-25.5q4-5 4-11.5t-4-11.5q-9-12-9-26.5t9-25.5q4-5 4-11.5t-3-11l-5-7.5h-20q4 13 2 27t-11 26q-2 3 0 6 12 15 12 34t-12 35q-2 3 0 6 12 15 12 34 0 8-5.5 13.5T106 334q-8 0-13-5.5T88 316q0-7-4-12-9-12-9-26.5t9-25.5q3-5 3-11.5T84 229q-9-12-9-26.5t9-25.5q3-5 3-11.5t-3-11q-3-4.5-5-8.5H59q3 10 3 19 1 19-11 35-2 3 0 6 12 15 12 34t-12 35q-2 3 0 6 12 15 12 34 0 8-5.5 13.5T44 334q-8 0-13.5-5.5T25 316q0-7-4-12-9-12-9-26.5t9-25.5q4-5 4-11.5T21 229q-9-12-9-26.5t9-25.5q4-5 4-11.5t-3.5-11Q18 150 17 146q-8-1-12.5-6.5t-4-13Q1 119 6 114t13-5h262q8 0 13.5 5.5T300 128zM19 96q1 1 2 0l262-25q8 0 12.5-6t4-14q-.5-8-6.5-13t-14-4L17 59q-8 1-12.5 6.5T0 78.5Q0 86 5.5 91T19 96z"/></svg>