<svg viewBox="0 0 300 368" xmlns="http://www.w3.org/2000/svg"><path d="M187 140q2 12-3 23t-16 16q-2 1-4 4.5t-2 6.5v6q1 6-3 9.5t-9 3.5q-5 0-9-3.5t-4-9.5v-6q1-9 6-18.5t13-14.5q3-1 5-4.5t1.5-8q-.5-4.5-3.5-7t-7-3.5q-6-1-10 3t-4 9.5q0 5.5-4 9t-9 3.5q-5 0-9-3.5t-4-8.5q1-18 14-29.5t31-7.5q11 2 19.5 10t10.5 20zm113-37v162q0 19-9.5 34.5t-25 25Q250 334 231 334H69q-19 0-34.5-9.5t-25-25Q0 284 0 265V103q0-19 9.5-34.5t25-25Q50 34 69 34h162q19 0 34.5 9.5t25 25Q300 84 300 103zm-37 0q0-13-9.5-22T231 72H69q-13-1-22.5 8.5T37 103v162q1 13 10 22.5t22 9.5h162q13-1 22-10t9-22V103h1zM81 96q-8 0-13 5.5T63 115q0 8 5 13.5t13 5.5q8 0 13.5-5.5T100 115q0-8-5.5-13T81 96zm0 138q-8 0-13 5.5T63 253q0 8 5 13t13 5q8 0 13.5-5t5.5-13q0-8-5.5-13.5T81 234zM219 96q-8 0-13.5 5.5T200 115q0 8 5.5 13.5T219 134q8 0 13.5-5.5T238 115q0-8-5.5-13.5T219 96zm-69 125q-8 1-13.5 6t-5.5 13q0 8 5.5 13.5T150 259q8 0 13.5-5.5T169 240q0-8-5.5-13.5T150 221zm69 13q-8 0-13.5 5.5T200 253q0 8 5.5 13t13.5 5q8 0 13.5-5t5.5-13q0-8-5.5-13.5T219 234z"/></svg>