<svg viewBox="0 0 300 368" xmlns="http://www.w3.org/2000/svg"><path d="M120 189q-6-5-14-5t-13 5.5q-5 5.5-5 13.5t5 13l25 25q5 5 13 5t13.5-5q5.5-5 5.5-13t-5-14l-25-25zM295 39q-4-3-9-4.5t-10 .5l-16 6q-19 7-31 13-16 9-16 16 0 2 1.5 8t4.5 11l-49 49q-5-13-2.5-26.5T180 88q6-5 6-13t-5.5-13.5Q175 56 167 56t-13 5l-16 15q-4 4-12 14l-6 9q-9 14-19 20.5T71 131l-10 2q-15 4-22 6-11 4-17 10-22 22-22 46 0 19 15 40 9 13 31 36l15 15q23 25 35 34 20 14 38 14 24 0 45-22 7-6 12-19 3-8 8-26.5t12-27q7-8.5 24-19.5l7-4q8-5 12-8.5t19-18.5q5-5 5.5-12.5t-4-13Q270 158 263 157t-13 2q-11 8-26 9t-28-4l99-98q5-5 5-13t-5-13v-1zM163 257q-7 25-10 29-11 10-19 10t-21-11q-7-6-25-24l-15-16q-21-22-28.5-33T38 193q1-8 10-17 3-2 21-6l10-3q17-4 29.5-9.5T132 143q3 12 6 18 5 9 15.5 19.5T174 196q7 4 20 7-12 10-19 22.5T163 257z"/></svg>