<svg viewBox="0 0 300 368" xmlns="http://www.w3.org/2000/svg"><path d="M88 190q0-8 5-13.5t13-5.5q8 0 13.5 5.5T125 190q0 8-5.5 13.5T106 209q-8 0-13.5-5.5T87 190h1zm125 0q-1-8-6-13.5t-13-5.5q-8 0-13.5 5.5T175 190q0 8 5.5 13.5T194 209q8 0 13.5-5.5T213 190zm82-87q-7 7-19 16-22 16-49 26-37 14-77 14t-77-14q-27-10-49-26-12-9-18-15T0 90q0-8 5.5-13.5t13.5-5q8 .5 13 5.5 9 9 27 20l12-29q8-19 23-27 11-7 26-7t30 11q15-11 30.5-11t28.5 9q13 9 20 25l12 29q17-10 27-20 5-5 13-5.5t13.5 5Q300 82 300 90t-5 13zm-145 18q29 0 57-9l-12-29q-5-12-15-12-2 1-4.5 2t-5.5 3q-8 8-19.5 8T130 77q-3-3-6-4t-4-2q-5 1-8.5 3T105 84l-12 28q28 9 57 9zm96 39q-7 2-11 9t-1 14q4 13 4 26 0 24-12 44t-32 31.5Q174 296 150 296t-44-11.5Q86 273 74.5 253T63 209q0-13 3-26 3-7-1-14t-11-9q-7-2-14 1.5T31 172q-6 18-6 37 0 34 17 62.5T87.5 317q28.5 17 62.5 17t62.5-17q28.5-17 45.5-45.5t17-62.5q0-19-5-37-3-7-9.5-10.5T246 160zM89 237q10 15 23 23 17 11 38 11t38-11q13-8 23-23 4-6 0-11.5t-11-3.5q-4 1-13 4.5t-15 4.5q-11 3-22 3t-22-3q-6-1-15-4.5t-13-4.5q-7-2-11 3.5t0 11.5z"/></svg>