<svg viewBox="0 0 300 368" xmlns="http://www.w3.org/2000/svg"><path d="M230 59l-74-24q-6-2-12 0L70 59q-20 7-32.5 24.5T25 122v64q0 37 23 70 18 26 48 49 20 14 41 25l4 2q5 2 9 2t8-2l4-1q21-9 41-22 31-21 49-47 23-34 23-76v-64q0-21-12.5-38.5T230 59zm8 127q-1 43-35 75-22 21-52 34-31-16-53-38-36-34-36-71v-64q1-9 6-16.5T82 95l68-23 68 23q9 3 14.5 10.5T238 122v64zm-13 17q0 8-5.5 13.5t-12.5 5q-7-.5-12-4t-7-9.5l-14-8q-5 5-11 7v27q0 5-4 9t-9 3.5q-5-.5-8.5-4T138 234v-27q-7-2-12-7l-14 8q-2 6-7 9.5t-12 4q-7 .5-12.5-5T75 203q0-8 5.5-13.5T94 184q3 0 7 1l12-7q-1-3-.5-6.5t.5-6.5l-23-14q-5-3-6-8t1.5-9q2.5-4 7.5-5.5t9 .5l24 14q5-5 12-7v-19q-7-6-7-14t5.5-13.5Q142 84 150 84t13.5 5.5Q169 95 169 103t-6 14v19q6 2 11 7l24-14q4-2 9-.5t7.5 5.5q2.5 4 1.5 9t-6 8l-23 14q1 3 1 6.5t-1 6.5l12 7q4-1 7-1 8 0 13.5 5.5T225 203z"/></svg>