<svg viewBox="0 0 300 368" xmlns="http://www.w3.org/2000/svg"><path d="M281 296h-6v-43q0-20-10-36.5T237 192v-14q0-19-9-35t-25-25l-7-37q-1-4-4.5-7t-7.5-3h-5q-4 0-7.5 3t-4.5 7l-6 28h-23l6-25q0-5-4-8.5t-9-4.5h-25q-5 0-8.5 4T94 84l8 32q-18 8-28.5 25T62 178v14q-17 8-27 24.5T25 253v43h-6q-8 0-13.5 5.5T0 315q0 8 5.5 13.5T19 334h262q8 0 13.5-5.5T300 315q0-8-5.5-13.5T281 296zM131 146h38q13 0 22 9.5t9 22.5v6H100v-6q0-13 9-22t22-9v-1zM63 256q8-2 14-8.5t7-15.5q2 12 11.5 20t21.5 8q12 0 21.5-8t11.5-20q2 12 11.5 20t21.5 8q12 0 21.5-8t11.5-20q1 9 7 15.5t14 8.5v40H63v-40zm37-203q0 8 5.5 13.5t13.5 5q8-.5 13-5.5t5.5-13q.5-8-5-13.5T119 34q-8 0-13.5 5.5T100 53zm63 0q0 8 5 13.5t13 5q8-.5 13.5-5.5t5.5-13q0-8-5.5-13.5T181 34q-8 0-13.5 5.5T162 53h1z"/></svg>