<svg viewBox="0 0 300 368" xmlns="http://www.w3.org/2000/svg"><path d="M150 34q-41 0-75.5 20T20 108.5Q0 143 0 184t20 75.5Q40 294 74.5 314t75.5 20q41 0 75.5-20t54.5-54.5q20-34.5 20-75.5t-20-75.5Q260 74 225.5 54T150 34zm0 37q33 0 60 17.5t41 45.5h-18q-5-11-15.5-18t-23.5-7q-18 0-31 13t-13 31q0 18 14 31 3 5 6 13-3 2-9.5 4t-10.5 2q-4 0-10.5-2t-9.5-4q3-8 6-13 14-13 14-31t-13-31q-13-13-31-13-13 0-23.5 7T67 134H49q14-28 41-45.5T150 71zm44 100q-8 0-13.5-5t-5.5-13q0-8 5.5-13.5T194 134q8 0 13 5.5t5.5 13.5q.5 8-5 13t-13.5 5zm-88 0q-8 0-13-5t-5-13q0-8 5-13.5t13-5.5q8 0 13.5 5.5T125 153q0 8-5.5 13t-13.5 5zm44 125q-31 0-56.5-15t-41-40.5Q37 215 37 184q1-6 1-13h29q5 10 13.5 16.5T100 196v3q0 2 1 5l-15 9q-3 2-4.5 5.5T81 226q0 3 1 4h1q3 6 10 6 4 0 7-2l16-10 5 2-7 15q-3 5-1 9.5t6 7.5q3 1 6 1 8 0 11-7l9-18h10l9 18q3 7 11 7 3 0 6-1 4-3 6-7.5t-1-9.5l-7-15 5-2 16 10q3 2 7 2 7 0 10-6h1q1-2 1-4 1-4-.5-7.5T214 213l-15-9q1-3 1-5v-3q11-2 19.5-8.5T233 171h29q1 7 1 13 0 30-15.5 56t-41 41Q181 296 150 296z"/></svg>