<svg viewBox="0 0 300 368" xmlns="http://www.w3.org/2000/svg"><path d="M300 103v75q0 8-5.5 13t-13.5 5q-8 0-13-5t-5-13v-75q0-13-9.5-22.5T231 71H69q-13 0-22 9.5T38 103v162q0 13 9 22t22 9q8 0 13.5 5.5T88 315q0 8-5.5 13.5T69 334q-19 0-34.5-9.5t-25-25Q0 284 0 265V103q0-19 9.5-34.5t25-25Q50 34 69 34h162q19 0 34.5 9.5t25 25Q300 84 300 103zm-3 193q3 6 3 13t-3 12.5q-3 5.5-8.5 9T277 334H136q-6 0-11.5-3.5t-9-9q-3.5-5.5-3-12.5t3.5-13l70-125q3-5 8.5-8.5t12-3.5q6.5 0 11.5 3.5t9 8.5l70 125zm-72-6q0-8-5.5-13.5t-13.5-5q-8 .5-13.5 5.5t-5.5 13q0 8 5.5 13.5T206 309q8 0 13.5-5.5T225 290zm0-75q0-8-5.5-13.5t-13.5-5q-8 .5-13.5 5.5t-5.5 13v25q0 8 5.5 13.5T206 259q8 0 13.5-5.5T225 240v-25zM81 96q-8 0-13 5.5T63 115q0 8 5 13.5t13 5.5q8 0 13.5-5.5T100 115q0-8-5.5-13T81 96zm82 19q0-8-5.5-13.5T144 96q-8 0-13.5 5.5T125 115q0 8 5.5 13.5T144 134q8 0 13.5-5.5T163 115z"/></svg>