<svg viewBox="0 0 300 368" xmlns="http://www.w3.org/2000/svg"><path d="M290 149l-40-69q-9-15-25-24.5T191 46h-82q-18 0-34 9.5T50 80L9 149q-9 16-9 35t9 35l41 69q9 15 25 24t34 9h82q18 0 34-9t25-24l40-69q10-16 10-35t-10-35zm-32 51l-40 69q-4 7-11.5 11t-15.5 4h-82q-8 0-15.5-4T82 269l-40-69q-5-8-5-16t5-16l40-69q4-7 11.5-11t15.5-4h82q8 0 15.5 4T218 99l40 69q4 8 4 16t-4 16zm-60-37l-21 21 21 21q5 6 5 13.5t-5.5 13q-5.5 5.5-13 5.5t-13.5-5l-21-22-21 22q-6 5-13.5 5t-13-5.5q-5.5-5.5-5.5-13t5-13.5l21-21-21-21q-5-6-5-13.5t5.5-13q5.5-5.5 13-5.5t13.5 5l21 21 21-21q6-5 13.5-5t13 5.5q5.5 5.5 5.5 13t-5 13.5z"/></svg>