<svg viewBox="0 0 300 368" xmlns="http://www.w3.org/2000/svg"><path d="M150 34q-41 0-75.5 20T20 108.5Q0 143 0 184t20 75.5Q40 294 74.5 314t75.5 20q41 0 75.5-20t54.5-54.5q20-34.5 20-75.5t-20-75.5Q260 74 225.5 54T150 34zm0 262q-31 0-56.5-15t-41-40.5Q37 215 37.5 184T53 127.5q15-25.5 40.5-41t56.5-15q31 .5 56.5 15.5t41 40.5q15.5 25.5 15 56.5T247 240.5Q232 266 206.5 281T150 297v-1zm38-137q-1 10-6 18.5T169 191v37q0 8-5.5 13t-13.5 5q-8 0-13.5-5t-5.5-13v-37q-12-7-16.5-19.5t.5-25.5q5-13 16.5-19.5t25-4.5q13.5 2 22.5 12.5t9 24.5z"/></svg>