<svg viewBox="0 0 300 368" xmlns="http://www.w3.org/2000/svg"><path d="M275 130v98q0 18-9.5 34t-25 25q-15.5 9-34.5 9h-19v28q0 7-6 9.5t-11-2.5l-39-39q-6-6-6-14.5t6-14.5l39-39q5-4 11-1.5t6 9.5v27h19q13 0 22.5-9t9.5-22v-98q-12-6-18.5-16.5T213 90q0-18 12.5-31T256 46q18 0 31 13t13 31q0 13-7 23.5T275 130zm-106-25q6-6 6-14.5T169 76l-39-39q-5-5-11-2.5t-6 9.5v27H94q-19 0-34.5 9.5t-25 25.5Q25 122 25 140v98q-11 6-18 16.5T0 278q0 18 13 30.5t31 13q18 .5 31-12.5t13-31q0-13-7-23.5T63 238v-98q0-13 9-22t22-9h19v27q0 7 6 9.5t11-1.5l39-39z"/></svg>