<svg viewBox="0 0 300 368" xmlns="http://www.w3.org/2000/svg"><path d="M169 140q0-8-5.5-13.5T150 121q-8 0-13.5 5.5T131 140v40q-6 8-6 18t7.5 17q7.5 7 17.5 7t17.5-7q7.5-7 7.5-17t-6-18v-40zm112-37q8 0 13.5-5.5T300 84q0-8-5.5-13.5T281 65q-8 0-10-2t-2-10q0-8-5.5-13.5T250 34q-8 0-13.5 5.5T231 53q0 11 4 21l-8 9q-26-18-58-23v-7q0-8-5.5-13.5T150 34q-8 0-13.5 5.5T131 53v7q-32 5-58 23l-8-9q4-10 4-21 0-8-5.5-13.5T50 34q-8 0-13.5 5.5T31 53q0 8-2 10t-10 2q-8 0-13.5 5.5T0 84q0 8 5.5 13.5t14 5.5q8.5 0 18.5-3l7 8q-23 27-30 62t3.5 68.5q10.5 33.5 37 58t60.5 33q34 8.5 68 0t60.5-33q26.5-24.5 37-58T285 170q-7-35-30-62l7-8q10 3 19 3zM150 296q-27 0-50-13t-36.5-36Q50 224 50 196.5T63.5 146Q77 123 100 109.5T150 96q27 0 50 13.5t36.5 36.5q13.5 23 13.5 50.5T236.5 247Q223 270 200 283t-50 13z"/></svg>