<svg viewBox="0 0 300 368" xmlns="http://www.w3.org/2000/svg"><path d="M300 296v15q0 9-7 16t-16 7H23q-9 0-16-7t-7-16v-15q0-10 7.5-17.5T25 271V165q0-18 9-34 4-7 11.5-9t14.5 2q7 4 9 11.5T67 150q-4 7-5 15v106h42l6 7h80l6-7h42V165q0-8-4.5-15t-2.5-14.5q2-7.5 9-11.5t14.5-2q7.5 2 11.5 9 9 16 9 34v106q10 0 17.5 7.5T300 296zM92 121l3-1q-1-6-1-11t1-11l-3-1q-7-4-9-11.5T85 71q4-7 11.5-9t14.5 2l3 2q8-6 17-10v-3q0-8 5.5-13.5T150 34q8 0 13.5 5.5T169 53v3q9 4 17 10l3-2q7-4 14.5-2t11.5 9q4 7 2 14.5T208 97l-3 1q1 6 1 11t-1 11l3 1q7 4 9 11.5t-2 14.5q-3 4-7.5 6.5T198 156q-5 0-9-2l-3-2q-8 6-17 10v3q0 8-5.5 13.5T150 184q-8 0-13.5-5.5T131 165v-3q-9-4-17-10l-3 2q-4 2-9 2t-9.5-2.5Q88 151 85 147q-4-7-2-14.5t9-11.5zm58 7q8 0 13.5-5.5T169 109q0-8-5.5-13.5T150 90q-8 0-13.5 5.5T131 109q0 8 5.5 13.5T150 128z"/></svg>