<svg viewBox="0 0 300 368" xmlns="http://www.w3.org/2000/svg"><path d="M256 184h-18l-69-53V53q0-8-5.5-13.5T150 34q-8 0-13.5 5.5T131 53v78l-69 53H44q-18 0-31 13T0 228v87q0 8 5.5 13.5T19 334q8 0 13-5.5t5-13.5v-87q1-3 2.5-5t4.5-2h18l61 47q12 9 27 9t27-9l61-47h18q3 1 4.5 2.5t1.5 4.5v87q0 8 5.5 13.5T281 334q8 0 13.5-5.5T300 315v-87q0-18-13-31t-31-13zm-102 55q-4 3-8 0l-46-36 50-39 51 39-47 36zm141-125q5 6 5 14t-5.5 13q-5.5 5-13.5 5t-13-5l-12-12-11 12q-6 5-14 5t-13.5-5q-5.5-5-5.5-13t6-14l12-11-12-12q-6-5-6-13t5.5-13.5Q223 59 231 59t14 5l11 12 12-12q5-5 13-5t13.5 5.5Q300 70 300 78t-6 13l-11 12 11 11h1zM5 121q-5-6-5-13.5t5.5-13Q11 89 19 89t13 5l13 14 35-35q6-6 14-6t13 5.5q5 5.5 5 13.5t-5 13l-37 37q-10 10-24.5 10T21 136L6 121H5z"/></svg>