<svg viewBox="0 0 300 368" xmlns="http://www.w3.org/2000/svg"><path d="M300 178q0 8-5.5 13t-13.5 5H19q-8 1-13.5-4.5T0 178q0-8 5.5-13.5T19 159h262q8 0 13.5 5.5T300 178zM19 134q8 0 13-5.5t5-13.5v-12q1-13 10-22.5T69 71h12q8 0 13.5-5t5.5-13q0-8-5.5-13.5T81 34H69q-19 0-34.5 9.5t-25 25Q0 84 0 103v12q0 8 5.5 13.5T19 134zm62 162H69q-13 0-22-9t-9-22v-12q0-8-5.5-13.5T19 234q-8 0-13.5 5.5T0 253v12q0 19 9.5 34.5t25 25Q50 334 69 334h12q8 0 13.5-5.5T100 315q0-8-5.5-13T81 297v-1zm200-62q-8 0-13 5.5t-5 13.5v12q0 13-9.5 22t-22.5 9h-12q-8 0-13.5 5.5T200 315q0 8 5.5 13.5T219 334h12q19 0 34.5-9.5t25-25Q300 284 300 265v-12q0-8-5.5-13.5T281 234zM231 34h-12q-8 0-13.5 5.5T200 53q0 8 5.5 13t13.5 5h12q13 0 22.5 9.5T263 103v12q0 8 5 13.5t13 5.5q8 0 13.5-5.5T300 115v-12q0-19-9.5-34.5t-25-25Q250 34 231 34z"/></svg>