<svg viewBox="0 0 300 368" xmlns="http://www.w3.org/2000/svg"><path d="M233 157l-45-14v-37q5-4 8.5-9.5T200 84V59q0-10-7.5-17.5T175 34H25q-10 0-17.5 7.5T0 59v25q0 7 3.5 12.5T13 106v209q0 8 5 13.5t13 5.5q8 0 13.5-5.5T50 315v-6h25v6q0 8 5.5 13.5t13 5.5q7.5 0 13-5.5T112 315v-6h26v6q-1 8 4.5 13.5T156 334q8 0 13.5-5.5T175 315v-6h25v6q0 8 5.5 13.5T219 334q8 0 13.5-5.5T238 315v-6h25v6q0 8 5 13.5t13 5.5q8 0 13.5-5.5T300 315v-75q0-30-19-53t-48-30zm30 114H50V109h100v25h-19q-8 0-13.5 5.5T112 153q0 8 5.5 13t13.5 5h21l73 23q16 3 26.5 16t10.5 30v31h1z"/></svg>