<svg viewBox="0 0 300 368" xmlns="http://www.w3.org/2000/svg"><path d="M248 123q-4-36-20-59-11-17-27-25-9-4-14-5h-2q-20 1-36 12-15-11-34-12h-2q-5 1-14 5-16 8-27 25-16 23-20 59-20 6-33 15-19 13-19 30 0 23 23 36 19 11 56 15 26 3 71 2.5t71-2.5q37-4 56-15 23-13 23-36 0-17-19-30-13-9-33-15zM88 163v-10q-1-41 12-63 7-14 17-18 5 1 10 4 10 8 23 8t23-8q5-3 10-4 10 4 17 18 12 22 12 63v10q-30 9-62 9t-62-9zm175 121q0 19-12.5 33T220 333.5q-18 2.5-34-7T165 299q-7-2-15-2t-15 2q-5 17-20 27t-33 8q-18-2-30.5-15t-14-31Q36 270 46 255.5T73.5 236q17.5-5 34 2t24.5 23q9-2 18-2t18 2q8-15 24-22.5t32.5-3.5q16.5 4 27.5 18t10 31h1z"/></svg>