<svg viewBox="0 0 300 368" xmlns="http://www.w3.org/2000/svg"><path d="M298 108q-7 8-17.5 11t-21 1.5q-10.5-1.5-19-8T227 96H73q-5 10-13.5 16.5t-19 8q-10.5 1.5-21-2T2 108q-3-3-1.5-7.5T7 97h12q8 0 13.5-5.5T38 78q0-8-5.5-13.5T19 59H7q-5 0-6.5-4T2 48q7-8 17.5-11.5t21-2Q51 36 60 42.5T73 59h154q5-10 13.5-16.5t19-8q10.5-1.5 21 2T298 48q3 3 1.5 7t-6.5 4h-12q-8 0-13.5 5.5t-5 13.5q.5 8 5.5 13.5t13 5.5h12q5-1 6.5 3.5T298 108zm-34 86q11 23 11 49v15q0 14-6.5 25.5T250 302v7q0 10-7.5 17.5T225 334q-10 0-17.5-7.5T200 309H100q0 10-7.5 17.5T75 334q-10 0-17.5-7.5T50 309v-7q-6-3-10-8-15-15-15-36-2-33 11-64l15-33q8-18 25-28.5t37-11.5h74q20 1 37 11.5t25 29.5l15 32zM76 271h149q5 0 8.5-3.5t4.5-8.5v-15l-1-10h-24v6q0 8-5.5 13.5T194 259q-8 0-13.5-5.5T175 240v-6h-50v6q0 8-5.5 13.5T106 259q-8 0-13-5.5T88 240v-6H64q-1 12-1 24 0 6 3.5 10t9.5 3zm9-94l-9 19h148l-9-19q-4-8-11.5-13t-16.5-5h-74q-9 0-16.5 5T85 177z"/></svg>