<svg viewBox="0 0 300 368" xmlns="http://www.w3.org/2000/svg"><path d="M38 303v12q0 8 5 13.5t13 5.5q8 0 13.5-5.5T75 315v-5h150v5q0 8 5.5 13.5T244 334q8 0 13.5-5.5T263 315v-12q17-9 27-25.5t10-36.5v-51q0-18-9.5-34t-25-25q-15.5-9-34.5-9h-18V96q0-16-8.5-30.5t-23-23Q167 34 150 34t-31.5 8.5Q104 51 96 65.5T88 97v24H69q-19 1-34.5 10t-25 25Q0 172 0 190v51q0 20 10 36.5T38 303zm87-207q0-10 7.5-17t17.5-7.5q10-.5 17.5 7T175 97v24h-50V96zm-87 94q0-13 9-22t22-9h162q13 0 22.5 9t8.5 22v51q0 13-9 22.5t-22 9.5H69q-13 0-22-9.5T38 241v-51zm50 13q0-8 5-13.5t13-5.5h88q8 0 13.5 5.5T213 203q0 8-5.5 13.5T194 221h-88q-8 1-13-4.5T88 203z"/></svg>