<svg viewBox="0 0 300 368" xmlns="http://www.w3.org/2000/svg"><path d="M150 334q-41 0-75.5-20T20 259.5Q0 225 0 184t20-75.5Q40 74 74.5 54T150 34q41 0 75.5 20t54.5 54.5q20 34.5 20 75.5t-20 75.5Q260 294 225.5 314T150 334zm0-263q-31 1-56.5 16t-41 40.5Q37 153 37.5 184T53 240.5q15 25.5 40.5 41t56.5 15q31-.5 56.5-15.5t41-40.5q15.5-25.5 15-56.5T247 127.5q-15-25.5-40.5-41T150 71zm49 172q15-15 13.5-36T196 172.5Q181 159 161 159h-23v-13h43q8 0 13.5-5t5.5-13q0-8-5.5-13.5T181 109h-50q-13 0-22 9t-9 22v38q0 8 5.5 13.5T119 197h42q5 0 9.5 3.5t4.5 8.5q0 5-3.5 8.5T162 221h-43q-8 0-13.5 5.5T100 240q0 8 5.5 13.5T119 259h44q10 0 19.5-4t16.5-12z"/></svg>