<svg viewBox="0 0 300 368" xmlns="http://www.w3.org/2000/svg"><path d="M150 109q-16 0-27 11t-10 27v149q0 16 10.5 27t26.5 11q16 0 26.5-11t11.5-26V146q0-15-11-26t-27-11zm13 187q0 6-4 9.5t-9 3.5q-5 0-9-3.5t-4-9.5V146q1-5 4.5-8.5t8.5-3.5q5 0 9 3.5t4 8.5v150zM263 34q-16 0-27 11t-11 27v224q0 16 11 27t26.5 11q15.5 0 26.5-11t11-26V71q0-15-11-26t-27-11h1zm12 262q0 6-3.5 9.5t-9 3.5q-5.5 0-9-3.5T250 296V71q0-5 3.5-8.5t9-3.5q5.5 0 9 3.5T275 71v225zM38 184q-16 0-27 11T0 221v75q0 16 11 27t26.5 11Q53 334 64 323t11-26v-76q0-15-11-26t-26-11z"/></svg>