<svg viewBox="0 0 300 368" xmlns="http://www.w3.org/2000/svg"><path d="M205 91q-5-5-5-13t5-14l25-25q5-4 10.5-5t10.5 1.5q5 2.5 8 7t3 10.5v100q0 8-5 13.5t-13 5q-8-.5-13.5-5.5t-5.5-13V95q-5 2-10.5 1t-9.5-5zm83 162q-1 37-19.5 59T219 334q-8 0-13.5-5.5T200 315q0-8 5.5-13t13.5-5q16-1 24-14l-5 1q-21 0-36-14.5T187.5 234q.5-21 15-35.5T237 184q20 0 34.5 13.5T287 230l1 23zm-50 0q7 0 12.5-5.5T256 234q0-8-5.5-13.5t-13-5.5q-7.5 0-13 5.5T219 234q0 8 5.5 13.5T237 253h1zm-114-1l-24 24V53q0-8-5.5-13.5T81 34q-8 0-13.5 5.5T63 53v223l-25-24q-5-6-13-5.5t-13.5 6Q6 258 6 265.5t6 13.5l47 46q9 10 22 10t22-10l48-46q5-6 5-13.5t-5.5-13q-5.5-5.5-13-6T124 252z"/></svg>