<svg viewBox="0 0 300.0023 368" xmlns="http://www.w3.org/2000/svg"><path d="M150.002 34q-41 0-75.5 18.5t-54.5 50.5q-20 32-20 69-1 11 2.5 21t10.5 18q13 11 30 10 22-2 43-10l9-3q-6 31-8 64 0 12 5 23.5t13.5 20.5q8.5 9 20 13.5t24.5 4.5q13 0 24.5-4.5t20-13.5q8.5-9 13.5-20.5t5-23.5q-2-33-8-64l9 3q21 8 43 10h1q17 1 29-10 7-8 10.5-18t2.5-21q0-37-20-69t-54.5-50.5q-34.5-18.5-75.5-18.5zm25 237q1 11-6.5 18.5t-18.5 7.5q-11 0-18.5-7.5t-6.5-18.5q2-37 11-73 7-1 14-1h14q9 37 11 74zm86-87h-3q-16-2-32-9-36-14-76-16-40 2-76 16-16 7-32 9h-2q-3-6-3-12 1-27 16-50t40.5-37q25.5-14 56.5-14t56.5 14q25.5 14 40.5 37t15 50q1 6-1 12z"/></svg>