<svg viewBox="0 0 300 368" xmlns="http://www.w3.org/2000/svg"><path d="M263 159q-1-31-18-53-15-20-39-28.5T156.5 74Q131 79 114 96q-20 20-25 50l-39 14q0-34 16.5-63T112 51q29-17 63-17 47 2 80 28 29 24 39 60.5t-.5 73.5Q283 233 254 257q-32 26-80 27l14-39q21-3 38-15t27-30.5q10-18.5 10-40.5zm-84-4q11 11 16 25.5t4 29.5q14-7 23-20.5t9-30.5q0-21-12.5-35.5T187 105q-19-4-36.5 3.5T124 136q15-2 29.5 3t25.5 16zM6 302l33-33-21-21q-6-6-8.5-14T9 217.5q2-8.5 7.5-14.5t13.5-9l85-31q12-5 24.5-2t21.5 12q9 9 12 21.5t-2 24.5l-31 85q-3 8-9 13.5t-14.5 7.5q-8.5 2-16.5-.5T86 316l-21-21-33 34q-8 8-18 4.5T.5 320Q-3 310 6 302zm101-17l29-79q1-4-1.5-7t-6.5-1l-79 29 58 58z"/></svg>