<svg viewBox="0 0 300 368" xmlns="http://www.w3.org/2000/svg"><path d="M300 296q0 16-11 27t-26.5 11q-15.5 0-26.5-11t-11-26.5q0-15.5 11-26.5t26.5-11q15.5 0 26.5 11t11 26zm-50-168v-8q0-24-11.5-43.5t-31-31Q188 34 164 34q-21 0-39 9.5T94.5 70Q82 87 79 108L53 296H19q-8 0-13.5 5.5T0 315q0 8 5.5 13.5T19 334h50q7 0 12-4.5t6-11.5l30-205q2-18 15.5-30T165 71q19 0 33 14.5t14 34.5v1h-6q-18 0-31 13t-13 31v150q0 8 5.5 13.5T181 334q8 0 13.5-5.5T200 315V165q0-2 2-4t4-2h13q18 0 30.5 13t12.5 31v12q0 8 5.5 13.5T281 234q8 0 13.5-5.5T300 215v-12q0-25-14-45.5T250 128z"/></svg>