<svg viewBox="0 0 300 368" xmlns="http://www.w3.org/2000/svg"><path d="M150 34q-41 0-75.5 20T20 108.5Q0 143 0 184t20 75.5Q40 294 74.5 314t75.5 20q41 0 75.5-20t54.5-54.5q20-34.5 20-75.5t-20-75.5Q260 74 225.5 54T150 34zm0 262q-31 1-56.5-14.5t-41-41Q37 215 37.5 184T53 127.5Q68 102 93.5 87T150 72q31 0 56.5 15t40.5 40.5q15 25.5 15.5 56.5t-15 56.5Q232 266 206.5 281T150 296zm-3-190h-16q-18 0-30.5 13T88 150v68q0 18 12.5 31t30.5 13h16q21 0 39-10.5t28.5-28.5q10.5-18 10.5-39t-10.5-39Q204 127 186 116.5T147 106zm0 119h-16q-2 0-4-2t-2-5v-68q0-3 2-5t4-2h16q17 0 28.5 12t11.5 29q0 17-11.5 29T147 225z"/></svg>