<svg viewBox="0 0 300 368" xmlns="http://www.w3.org/2000/svg"><path d="M281 134H63v-19q0-13 9-22t22-9h9q4 6 11 9t14 3h53q13 0 22.5-9t9-22q-.5-13-9.5-22t-22-9h-53q-7 0-14 3.5T103 47l-9-1q-19 0-34.5 9.5T34.5 81Q25 97 25 115v19h-6q-8 0-13.5 5.5T0 153q0 8 5.5 13.5T19 172h7l17 105q4 25 23.5 41t44.5 16h78q25 0 44.5-16t23.5-41l17-106h7q8 0 13.5-5t5.5-13q0-8-5.5-13.5T281 134zm-61 136q-2 12-11 19t-20 7h-78q-11 0-20-7t-11-19l-16-99h172l-16 99zm-119-50q2-7 9-7h23l7-22q3-7 10-7t10 7l7 22h23q7 0 9.5 7t-3.5 11l-19 14 7 22q2 7-4 11.5t-11-.5l-19-13-19 13q-2 2-5.5 2t-5.5-2q-6-4-4-11l7-22-19-14q-6-4-3-11z"/></svg>