<svg viewBox="0 0 300 368" xmlns="http://www.w3.org/2000/svg"><path d="M260 211q2-1 4-3 9-6 10.5-17.5t-5-20.5q-6.5-9-18-10.5T231 164q-11 9-18 24-5 10-7 21-2-11-6-21-7-15-18-23-10-7-21-5.5T143 170q-7 9-5.5 20.5T149 208l4 3q-18 6-29.5 20.5T113 265v13q0 9 3 18H69q-10 0-18-3-14-6-14-22V165q1-13 10-22t22-9h75q12 0 20 8 6 5 14 4.5t13-6.5q5-6 4.5-13.5T189 114q-19-17-44-17l18-19q6-5 6-13t-5.5-13.5Q158 46 150 46t-13 6l-12 12V53q0-8-5.5-13.5T106 34q-8 0-13.5 5.5T87 53v11L76 52q-6-6-13.5-6t-13 5.5Q44 57 44 65t5 14l18 18q-18 0-33.5 9.5T9 131.5Q0 147 0 165v106q0 28 19.5 45.5T69 334h175q23 0 39.5-16.5T300 278v-13q0-19-11.5-33.5T260 211zm-72 85h-19q-8 0-13.5-5t-5.5-13v-13q0-8 5.5-13.5T169 246h19v50zm75-18q0 8-5.5 13.5T244 297h-19v-51h19q8 0 13.5 5.5T262 265v13h1z"/></svg>