<svg viewBox="0 0 300 368" xmlns="http://www.w3.org/2000/svg"><path d="M175 171h-50v-12q0-10 7.5-17.5T150 134h25v37zm25-37h-12v37h37v-12q0-10-7.5-17.5T200 134zm-75 62q0 11 7.5 18t17.5 7h13v-37h-38v12zm50 25h25q10 0 17.5-7t7.5-18v-12h-50v37zm100-103v97q0 24-16.5 40T219 271h-88q-23 0-39.5-16T75 215V90q0-23 16.5-39.5T131 34h60q11 0 21.5 4.5T231 50l28 28q7 8 11.5 18.5T275 118zm-37 0q0-7-6-13l-28-28q-5-6-13-6h-60q-8 0-13 5.5T113 90v125q0 8 5 13.5t13 5.5h88q8 0 13-5.5t5-13.5v-97h1zm-57 178h-50q-22 0-40.5-10.5T61 256q-11-19-11-41v-62q0-8-5.5-13.5T31 134q-8 0-13 5.5T13 153v62q0 33 15.5 60t43 43Q99 334 131 334h50q8 0 13.5-5.5T200 315q0-8-5.5-13t-13.5-5v-1z"/></svg>