<svg viewBox="0 0 300 368" xmlns="http://www.w3.org/2000/svg"><path d="M231 34H69q-19 0-34.5 9.5t-25 25Q0 84 0 103v162q0 19 9.5 34.5t25 25Q50 334 69 334h162q19 0 34.5-9.5t25-25Q300 284 300 265V103q0-19-9.5-34.5t-25-25Q250 34 231 34zm32 231q-1 13-10 22t-22 9h-6v-12q0-20-10-37.5T187.5 219Q170 209 150 209t-37.5 10Q95 229 85 246.5T75 284v12h-6q-13 0-22-9t-9-22V103q0-13 9-22.5T69 72h162q13-1 22.5 8.5T262 103l1 162zM106 140q0 18 13 31t31 13q18 0 31-13t13-31q0-18-13-31t-31-12.5q-18 .5-31 13T106 140z"/></svg>