<svg viewBox="0 0 300 368" xmlns="http://www.w3.org/2000/svg"><path d="M38 128v137q0 13 9 22t22 9h12q8 0 13.5 5.5T100 315q0 8-5.5 13.5T81 334H69q-19 0-34.5-9.5t-25-25Q0 284 0 265V128q0-19 9.5-34.5t25-25Q50 59 69 59h4q5-11 16-18t24-7h25q12 0 23 7t16 18h4q19 0 35 9t25 25q4 7 2 14.5t-9 11.5q-4 2-9 2t-9.5-2q-4.5-2-7.5-7-4-7-11.5-11.5T181 96h-4q-6 12-16.5 18.5T137 121h-25q-12 0-23-6.5T73 96h-4q-13 0-22.5 9.5T37 128h1zm181 81h-13q-8 0-13 5.5t-5 13.5q0 8 5 13t13 5h13q8 0 13.5-5t5.5-13q0-8-5.5-13.5T219 209zm81-6v75q0 23-16.5 39.5T244 334h-63q-23 0-39.5-16.5T125 278v-75q0-24 16.5-40.5T181 146h63q23 0 39.5 16.5T300 203zm-37 0q0-8-5.5-13.5T244 184h-63q-8 0-13 5.5t-5 13.5v75q0 8 5 13t13 5h63q8 0 13-5t6-13v-75z"/></svg>