<svg viewBox="0 0 300 368" xmlns="http://www.w3.org/2000/svg"><path d="M244 34h-88q-23 0-39.5 16.5T100 90v88q0 23 16.5 39.5T156 234h88q23 0 39.5-16.5T300 178V90q0-23-16.5-39.5T244 34zm19 144q0 8-5.5 13t-13.5 5h-88q-8 0-13-5t-5-13V90q0-8 5-13.5t13-4.5h88q8-1 13.5 4.5T262 90v88h1zm-63 100q0 23-16.5 39.5T144 334H56q-23 0-39.5-16.5T0 278v-88q0-23 16.5-39.5T56 134q8 0 13.5 5.5T75 153q0 8-5.5 13T56 171q-8 0-13 5.5T38 190v88q0 8 5 13.5t13 5.5h88q8-1 13.5-6t5.5-13q0-8 5-13.5t13-5.5q8 0 13.5 5.5T200 278z"/></svg>