<svg viewBox="0 0 300 368" xmlns="http://www.w3.org/2000/svg"><path d="M124 133L86 254q-3 8-9.5 12.5t-14 4.5q-7.5 0-14-4.5T39 254L1 133q-2-7 1.5-14t10.5-9q7-2 14 1.5T37 122l25 81 26-81q3-7 10-10.5t14-1.5q7 2 10.5 9t1.5 14zm163 138h-6q-6 0-11-3.5t-7-9.5l-7-24h-37l-7 24q-3 8-10 11.5t-14 1q-7-2.5-10.5-9.5t-1.5-14l38-121q3-7 9.5-12t14-5q7.5 0 14 5t9.5 12l38 121q2 7-1.5 14T287 271zm-32-68l-17-57-18 57h35zM199 35q-7-2-14 1.5T176 47L92 310q-2 7 1.5 14t11.5 9q2 1 5 1 6 0 11-3.5t7-9.5l84-263q2-7-1.5-14T199 35z"/></svg>