<svg viewBox="0 0 300 368" xmlns="http://www.w3.org/2000/svg"><path d="M273 270q-21 30-53.5 47T150 334q-41 0-75.5-20T20 259.5Q0 225 0 184t20-75.5Q40 74 74.5 54T150 34q32 0 61.5 13T262 84q5 6 4.5 13.5t-6 13q-5.5 5.5-13.5 5t-13-6.5q-16-18-38-27.5T150 72q-30 0-56 15t-41 40.5Q38 153 38 184t15 56.5Q68 266 93.5 281t56.5 15q28 0 52.5-12.5T242 248q5-6 12.5-7.5t14 3q6.5 4.5 8 12T273 270zM75 147q0 10 7.5 17t17.5 7q10 0 17.5-7t7.5-17.5q0-10.5-7.5-17.5t-17.5-7q-10 0-17.5 7T75 147zm100-1q0 11 7.5 18t17.5 7q10 0 17.5-7t7.5-17.5q0-10.5-7.5-18T200 121q-10 0-17.5 7.5T175 146zm121 0q-6-10-17.5-11.5T258 140l-71 64q-19-8-37-8-26 0-53 15-7 4-9 11.5t2 14.5q2 4 6.5 7t9.5 3q5 0 9-3 19-10 35-10 23 0 45 15 4 3 9 2.5t8-3.5l15-13-10-12q-4-4-3.5-9t4.5-8.5q4-3.5 9-3.5t9 4l10 12 20-18-10-12q-4-4-3.5-9t4.5-8.5q4-3.5 9-3t9 4.5l10 11 6-4q7-7 8.5-16t-3.5-17z"/></svg>