<svg viewBox="0 0 300 368" xmlns="http://www.w3.org/2000/svg"><path d="M150 34q-41 0-75.5 20T20 108.5Q0 143 0 184t20 75.5Q40 294 74.5 314t75.5 20q41 0 75.5-20t54.5-54.5q20-34.5 20-75.5t-20-75.5Q260 74 225.5 54T150 34zm0 262q-31 0-56.5-15T53 240.5Q38 215 37.5 184t15-56.5q15.5-25.5 41-41T150 71q31 0 56.5 15.5t41 41q15.5 25.5 15 56.5T247 240.5q-15 25.5-40.5 41T150 297v-1zM75 153q0-8 5.5-13.5T94 134h25q8 0 13 5.5t5 13.5q0 8-5 13.5t-13 5.5H94q-8 0-13.5-5.5T75 153zm150 0q0 8-5.5 13.5T206 172h-25q-8-1-13-6t-5-13q0-8 5-13.5t13-5.5h25q8 0 13.5 5.5T225 153zm0 75q0 8-5.5 13.5T206 247H94q-8-1-13.5-6T75 228q0-8 5.5-13.5T94 209h112q8 0 13.5 5.5T225 228z"/></svg>