<svg viewBox="0 0 300 368" xmlns="http://www.w3.org/2000/svg"><path d="M169 269v46q0 8-5.5 13.5T150 334q-8 0-13.5-5.5T131 315v-46q-16-5-28-18.5T88 220q-3-17 3-32.5t19-26.5q5-4 10-1t5 8v22q0 12 9 19.5t20 5.5q9-2 15-9.5t6-16.5v-21q0-5 5.5-7.5t9.5.5q11 9 16.5 21.5T212 209q0 21-12 37.5T169 269zm131-166v137q0 19-9 35t-25 25q-16 9-35 9h-12q-8 0-13.5-5.5T200 290q0-8 5.5-13t13.5-5h12q13-1 22.5-10t9.5-22V121H38v119q0 13 9 22t22 9h12q8 1 13.5 6t5.5 13q0 8-5.5 13.5T81 309H69q-19 0-35-9T9 275q-9-16-9-35V103q0-19 9-35t25-25q16-9 35-9h162q19 0 35 9t25 25q9 16 9 35zM75 78q0-8-5.5-13.5T56 59q-8 0-13 5.5T38 78q0 8 5 13.5t13 5q8-.5 13.5-5.5T75 78zm63 0q0-8-5.5-13.5T119 59q-8 0-13.5 5.5T100 78q0 8 5.5 13t13.5 5q8 0 13.5-5t5.5-13z"/></svg>