<svg viewBox="0 0 300 368" xmlns="http://www.w3.org/2000/svg"><path d="M132 171q4 3 9 3t9.5-2.5q4.5-2.5 7.5-7.5 3-7 1-14.5t-9-10.5l-8-5q2-6 2-12.5t-2-12.5l8-5q7-4 9-11.5t-1.5-14q-3.5-6.5-11-8.5T132 71l-8 5q-10-10-24-14V52q0-7-5.5-12.5T81 34q-8 0-13 5.5T63 52v10q-14 4-24 14l-9-5q-6-3-13.5-1T5 78.5q-4 6.5-2 14t9 11.5l8 5q-1 6-1 12t1 13l-8 5q-7 3-9 10.5T5 164q2 5 6.5 7.5T21 174q5 0 9-3l9-4q10 9 24 14v9q0 8 5 13.5t13 5.5q8 0 13.5-5.5T100 190v-9q14-5 24-14l8 4zm-51-25q-10 0-17.5-7T56 121.5q0-10.5 7.5-18t18-7.5Q92 96 99 103.5t7 18q0 10.5-7 17.5t-18 7zm201 118l-8-5q1-6 1-12t-1-13l8-5q6-4 8.5-11.5t-1.5-14q-4-6.5-11.5-8.5t-14.5 1l-8 5q-10-10-24-14v-10q0-7-5.5-12.5t-13-5.5q-7.5 0-13 5.5T194 177v10q-14 4-24 14l-8-5q-7-3-14.5-1t-11.5 8.5q-4 6.5-1.5 14T143 229l8 5q-1 6-1 12t1 13l-8 5q-6 3-8.5 10.5T136 289q3 5 7.5 7.5t9 2.5q4.5 0 9.5-3l8-4q10 9 24 14v9q0 8 5.5 13.5t13 5.5q7.5 0 13-5.5T231 315v-9q14-5 24-14l8 4q5 3 10 3t9-2.5q4-2.5 7-7.5 4-7 1.5-14.5T282 264zm-69 7q-11 0-18-7t-7-17.5q0-10.5 7-17.5t17.5-7q10.5 0 18 7t7.5 17.5q0 10.5-7.5 17.5t-17.5 7z"/></svg>