<svg viewBox="0 0 300 368" xmlns="http://www.w3.org/2000/svg"><path d="M150 234H88V134h62v100zM63 134H0v100h63V134zm87-38V59q0-10-7.5-17.5T125 34h-12q-11 0-18 7.5T88 59v37h62zM88 271v38q0 10 7 17.5t18 7.5h12q10 0 17.5-7.5T150 309v-38H88zm-88 0v38q0 10 7.5 17.5T25 334h13q10 0 17.5-7.5T63 309v-38H0zM63 96V59q0-10-7.5-17.5T38 34H25q-10 0-17.5 7.5T0 59v37h63zm176 28l-59 20 32 102 60-19-33-103zm-11-35l-13-38q-3-9-12-14t-19-2l-12 4q-10 3-14.5 12.5T156 70l12 38 60-19zm-4 193l10 35q3 9 12.5 14t19.5 2l12-4q9-3 14-12.5t2-18.5l-11-35-59 19z"/></svg>