<svg viewBox="0 0 300 368" xmlns="http://www.w3.org/2000/svg"><path d="M277 49q-5-7-12-11t-15-4h-31q-16 0-29.5 8.5T169 65l-19 38-19-38q-7-14-20.5-22.5T81 34H50q-8 0-15 4T23.5 49q-4.5 7-5 15T22 79l38 76q-22 30-22 66 0 31 15 57t41 41q26 15 56.5 15t56-15q25.5-15 41-41t15.5-57q0-36-22-66l37-76q4-7 3.5-15T277 49zm-58 22h21l-28 57q-12-8-26-13l16-33q3-5 7.5-8t9.5-3zM81 71q5 0 9.5 3t7.5 8l16 33q-14 5-26 13L60 71h21zm69 225q-20 0-37.5-10T85 259q-10-17-10-37.5T85 184q10-17 27.5-27.5T150 146q20 0 37.5 10.5T215 184q10 17 10 37.5T215 259q-10 17-27.5 27T150 296zm2-50h23q5 1 9 4.5t4 8.5q0 5-4 8.5t-9 3.5h-42q-7 0-12.5-3.5t-7.5-10q-2-6.5.5-13t7.5-10q5-3.5 17-9.5h1q23-11 23-16t-3.5-8.5Q155 197 150 197t-9 3.5q-4 3.5-4 8.5t-3.5 9q-3.5 4-8.5 4t-9-4q-4-4-4-9 0-15 11-26t26.5-11q15.5 0 26.5 11t11 26q0 13-11 23-8 6-24 15v-1z"/></svg>