<svg viewBox="0 0 300 368" xmlns="http://www.w3.org/2000/svg"><path d="M206 153q0 8-5.5 13.5t-13 5q-7.5-.5-13-5.5t-5.5-13q0-8 5.5-13.5t13-5.5q7.5 0 13 5.5T206 153zm76 38l-7-4q6-17 6-34.5t-6-33.5l7-4q6-5 8-12.5t-2.5-14q-4.5-6.5-12-8T262 83l-7 4q-21-20-49-26v-8q0-8-5.5-13.5t-13-5.5q-7.5 0-13 5.5T169 53v8q-28 6-49 26l-7-4q-6-4-13.5-2.5t-12 8Q83 95 85 102.5t8 12.5l22 13q6 4 13.5 2.5T140 123q8-12 20.5-19.5T187 96h1q23 0 39.5 16.5T244 153q0 12-5 23t-14 19q-6 5-6.5 13t5 14q5.5 6 13 6t13.5-5l5-5 6 5q5 3 11 3 10 0 15-9 5-7 3-14.5t-8-11.5zm-83 63l-8 40q-3 17-17 28.5T142 334H38q-16 0-27-11T0 297v-50q0-16 11-27t27-11h18l27-52q4-7 8.5-9t8.5-2q6 0 11 4t7 11q0 2-1 7l-7 41h52q12 0 21.5 6.5t14 16.5q4.5 10 1.5 22zm-37-8H63v50h79q5 0 8.5-2.5t4.5-7.5l7-40z"/></svg>