<svg viewBox="0 0 300 368" xmlns="http://www.w3.org/2000/svg"><path d="M239 172l-8-25q12-1 20 0 3 6 12 9.5t16.5 1.5q7.5-2 8.5-11v-38q-1-10-8.5-12T263 99q-9 4-12 10-15 0-32 2l-4-14q-6-17-21-27.5T161 59h-17q-7 0-12.5 5.5T126 78q0 8 5.5 13.5T144 97h17q6-1 11 3t7 9l4 13q-9 5-17 12h-57q-6-11-16.5-18T69 109H44q-7 0-12.5 5.5T26 128q0 8 5.5 13.5T44 147h25q4-1 6 3t-1 7l-10 14h-1q-17 1-31 9T9.5 202.5Q1 217 1 234q0 26 15.5 42t38 19q22.5 3 42-8.5T123 251q10-6 17-15l48-70q3-4 7-8l8 24q-14 10-21 25t-5.5 31.5q1.5 16.5 10.5 30t22.5 20.5q13.5 7 28.5 7 29 0 46-20 16-17 16-41.5T285 192q-17-19-46-20zm-130 42q-5 7-15 8H75l29-43q3-4 5-7h30l-30 42zm129 45q-10 0-17.5-7.5T213 234q0-10 7.5-17.5t18-7.5q10.5 0 17.5 7.5t7 17.5q0 10-7 17.5t-18 7.5z"/></svg>