<svg viewBox="0 0 300 368" xmlns="http://www.w3.org/2000/svg"><path d="M213 109q-17 0-30 10-6-3-14-6 2-18 10-29 6-7 14-11 4-2 7-1 11-1 12 7.5t7.5 13q6.5 4.5 14 3.5t12-7.5Q250 82 249 75q-3-18-16.5-29.5T200 34q-11 0-22 5-16 7-27 20-9-14-23-22-6-4-13.5-2.5T103 43q-4 7-2.5 14.5T109 69q19 11 22 44-8 2-14 6-13-10-29-10-21 0-41.5 15T14 164Q0 191 0 221.5T14 279q12 25 32.5 40T88 334q16 0 29-10 33 20 66 0 13 10 29 10 21 0 41.5-15t32.5-40q14-27 14-57.5T286 164q-12-25-32.5-40T212 109h1zm0 187q-5 0-9-3-9-8-20-8-9 0-17 5-9 6-17 6t-17-6q-9-6-19-5t-18 8q-4 4-9 4-10 0-21.5-10.5t-19.5-28q-8-17.5-8-37t8-37Q54 167 65.5 157T88 147q4 0 8 4 8 7 18 8t19-5q10-7 17-7t17 7q9 6 19 5t18-8q4-4 8-4 11 0 22.5 10t19.5 27.5q8 17.5 8 37t-8 37q-8 17.5-19.5 28T212 297l1-1z"/></svg>