<svg viewBox="0 0 300 368" xmlns="http://www.w3.org/2000/svg"><path d="M69 334h162q19 0 34.5-9.5t25-25Q300 284 300 265V103q0-19-9.5-34.5t-25-25Q250 34 231 34H69q-19 0-34.5 9.5t-25 25Q0 84 0 103v162q0 19 9.5 34.5t25 25Q50 334 69 334zM38 103q0-13 9-22.5T69 72h162q13-1 22.5 8.5T262 103v162q0 13-9 22t-22 9H69q-13 0-22-9t-9-22V103zm69 71l24-24v103q0 8 5.5 13.5t13.5 5q8-.5 13.5-5.5t5.5-13V150l24 24q4 4 9 5t9.5 0q4.5-1 8.5-5t5-9q1-5-.5-9.5T219 147l-38-38q-13-12-31-12t-31 12l-38 38q-4 4-5.5 8.5T75 165q1 5 5 9t8.5 5q4.5 1 9.5 0t9-5z"/></svg>