<svg viewBox="0 0 300 368" xmlns="http://www.w3.org/2000/svg"><path d="M200 153V53q0-8 5.5-13.5T219 34q8 0 13.5 5.5T238 53v100q0 8-5.5 13t-13.5 5q-8 0-13.5-5t-5.5-13zm-44 18q8 0 13.5-5t5.5-13V53q0-8-5.5-13.5T156 34q-8 0-13.5 5.5T137 53v100q1 8 6 13t13 5zM281 59q-8 0-13 5.5T263 78v175q0 18-13 30.5T219 296h-77q-14 0-27.5-5.5T92 275l-6-6 2-1q11-5 18-15t7-22V78q-1-8-6-13.5T94 59q-8 0-13.5 5.5T75 78v153q0 2-1 2.5t-2-.5l-32-32q-7-5-16.5-4.5T7 204q-7 7-7 16.5T5 237l59 63q15 16 35.5 25t42.5 9h77q22 0 40.5-11t29.5-29.5q11-18.5 11-40.5V78q0-8-5.5-13.5T281 59zM150 215q0 8 5.5 13.5T169 234q8 0 13.5-5.5t5-13.5q-.5-8-5.5-13.5t-13-5q-8 .5-13.5 5.5t-5.5 13zm63 0q-1 8 4.5 13.5T231 234q8 0 13.5-5.5T250 215q0-8-5.5-13.5t-13.5-5q-8 .5-13.5 5.5t-5.5 13h1zm-7 69q8 0 13.5-5.5T225 265q0-8-5.5-13.5T206 246q-8 0-13.5 5.5T187 265q0 8 5.5 13.5T206 284zm-62 0q8 0 13.5-5.5T163 265q0-8-5.5-13.5T144 246q-8 0-13.5 5.5T125 265q0 8 5.5 13.5T144 284z"/></svg>