<svg viewBox="0 0 300 368" xmlns="http://www.w3.org/2000/svg"><path d="M300 265v-77q0-35-14.5-66T245 69q-26-22-57-30t-64-2.5Q91 42 64 61t-43.5 47.5Q4 137 1 169t6.5 61Q17 259 38 281q22 25 55 39t70 14h68q19 0 34.5-9.5t25-25Q300 284 300 265zM220 97q20 17 31.5 41t11.5 50v77q0 13-9.5 22.5T231 297h-68q-29 0-54.5-11T65 256q-15-17-22-38t-5-45q2-24 15-45.5T86 92q20-14 44-19 10-1 20-1 40 0 70 25zm-51 31v50q0 8-5.5 13.5T150 197q-8 0-13.5-5.5T131 178v-50q0-8 5.5-13.5T150 109q8 0 13.5 5.5T169 128zm-19 131q-8 0-13.5-5.5T131 240q0-8 5.5-13.5t13.5-5q8 .5 13.5 5.5t5.5 13q0 8-5.5 13.5T150 259z"/></svg>