<svg viewBox="0 0 300 368" xmlns="http://www.w3.org/2000/svg"><path d="M250 171q-21 0-35.5 15T200 221v63q0 21 14.5 35.5T250 334q21 0 35.5-14.5T300 284v-63q0-20-14.5-35T250 171zm13 113q0 5-4 8.5t-9 3.5q-5 0-9-3.5t-4-8.5v-63q0-5 4-8.5t9-3.5q5 0 9 3.5t4 9.5v62zm16-216l-17 16q-25-28-59.5-40.5t-71.5-8q-37 4.5-67.5 26t-47.5 55Q-1 150 0 187t19 70q4 6 11 8.5t14-1.5q7-4 9-11.5T52 238q-14-24-14.5-52t12-53q12.5-25 36-41.5T137 72q28-3 54 7t44 32l-14 14q-2 3-3 6.5t.5 7q1.5 3.5 4.5 5.5t7 2h58q5 0 8.5-3.5t3.5-8.5V77q0-4-2-7t-5.5-4.5q-3.5-1.5-7.5-1t-6 3.5zM157 173q-5-2-10.5-1t-9.5 5l-47 47q-6 5-6 13t5.5 13.5Q95 256 103 256t13-6l15-14v79q0 8 5.5 13.5T150 334q8 0 13.5-5.5T169 315V190q0-5-3.5-10t-8.5-7z"/></svg>