<svg viewBox="0 0 300.0095 368" xmlns="http://www.w3.org/2000/svg"><path d="M138.01 153v43q0 19-11.5 33t-29.5 17h-3q-7 1-12-3.5t-6.5-11.5q-1.5-7 2.5-13.5t12-8.5q4 0 7-4t3-9h-6q-8 0-13.5-5t-5.5-13v-19q0-10 7.5-17.5t17.5-7.5h19q7 0 12.5 5.5t5.5 13.5h1zm68-19h-18q-11 0-18 7.5t-7 17.5v19q0 8 5 13t13 6h7q0 4-3 8t-7 4q-8 2-12.5 8.5t-3 13.5q1.5 7 7 11t11.5 4h4q17-3 28.5-17t11.5-32v-44q0-8-5.5-13.5t-13.5-5.5zm94 54v80q0 18-9 33t-24 24q-15 9-33 9h-71q-43 0-79-18t-58.5-50q-22.5-32-25.5-71-2-33 9.5-63.5T44.01 78q23-23 53.5-34.5t62.5-9.5q39 3 71 24.5t50.5 55.5q18.5 34 18.5 74zm-37 0q0-30-14-56t-38-42q-24-16-53-18h-8q-22 0-43 8.5t-37.5 25q-16.5 16.5-25 39.5t-6.5 47q2 30 19 54t44.5 37q27.5 13 61.5 13h71q12 0 20.5-8.5t8.5-19.5v-80z"/></svg>