<svg viewBox="0 0 300 368" xmlns="http://www.w3.org/2000/svg"><path d="M231 96h-68l35-11q6-2 10-7.5t4-12q0-6.5-4-12T198 46l-31-10q-11-5-20.5 1T137 54v42H69q-19 1-34.5 10t-25 25Q0 147 0 165v125q0 18 13 31t31 13h212q18 0 31-13t13-31V165q0-18-9.5-34t-25-25Q250 97 231 97v-1zm31 63h-16q-13 0-22-9l-16-16h23q11 0 20 7t11 18zM69 134h23l-16 16q-9 9-22 9H38q2-11 11-18t20-7zm187 162h-81v-50q0-10-7.5-17t-17.5-7.5q-10-.5-17.5 7T125 247v49H44q-3 0-4.5-1.5T38 290v-94h16q14 1 26.5-4.5T103 176l34-33q5-6 13-6t13 6l34 33q10 10 22.5 15.5T246 197h17v93q0 3-2 4.5t-5 1.5zm-156-43q0 8-5.5 13.5T81 271H69q-8 0-13.5-5T50 253q0-8 5.5-13.5T69 234h12q8 0 13.5 5.5T100 253zm150 0q0 8-5.5 13.5T231 271h-12q-8 0-13.5-5t-5.5-13q0-8 5.5-13.5T219 234h12q8 0 13.5 5.5T250 253zm-81-75q0 8-5.5 13.5t-13.5 5q-8-.5-13.5-5.5t-5.5-13q0-8 5.5-13.5T150 159q8 0 13.5 5.5T169 178z"/></svg>