<svg viewBox="0 0 300 368" xmlns="http://www.w3.org/2000/svg"><path d="M275 162q-13-19-12-28v-30q0-27-17.5-46.5T201 35q-11-1-20-1h-62q-9 0-20 1-27 3-44.5 22.5T37 104v30q1 9-11.5 27T13 201v64q0 19 9 34.5t25 25q16 9.5 34 9.5h138q18 0 34-9.5t25.5-25Q288 284 288 265v-64q0-22-13-39zm-125-31l-23-60h46l-23 60zM50 265v-64q0-10 5-18 20-28 20-49v-30q0-9 4-16t10-11l42 110v109H81q-13 0-22-9t-9-22zm200 0q0 13-9 22t-22 9h-50V187l42-110q6 4 10 11t4 16v30q0 21 20 49 5 8 5 18v64zM75 209v-13q0-5 3.5-8.5T87 184h13q5 0 8.5 3.5t3.5 9.5v12q1 5-3 8.5t-9 3.5H88q-6 1-9.5-3t-3.5-9zm32 70q-5 5-13 5t-13.5-5.5Q75 273 75 265t5.5-13q5.5-5 13.5-5t13.5 5q5.5 5 5.5 13t-6 14zm129-68q2 3 0 6.5t-6 4.5h-35q-4-1-6-4.5t0-6.5l15-22q3-5 8.5-5t8.5 5l15 22z"/></svg>