<svg viewBox="0 0 300 368" xmlns="http://www.w3.org/2000/svg"><path d="M291 84l-19-8q-6-26-27-36t-43-3q-11 3-19 10.5T170 64l-14 25q-22-10-45-25-11-8-18-13-4-3-9-4t-9.5 1q-4.5 2-8 6T63 63l-1 5q-11-9-17-16-4-4-9.5-5t-10.5.5q-5 1.5-8.5 6T13 64q-1 11 0 28 3 32 12 61 14 40 40 70l-35 5q-15 2-24 14.5T1 270q5 21 17.5 36.5T50 331q7 3 15 3 10 0 19-5l52-29q23 9 45 9 26 0 47.5-12t34-33q12.5-21 12.5-46V117l16-7q4-2 6.5-5.5T300 97q0-4-2.5-7.5T291 84zM181 271q-8 0-12.5-.5T157 267l-4-1q-10-4-17-4-10 0-20 6l-51 28q-21-9-27-31l71-11q6 0 10-4t5.5-9.5q1.5-5.5-.5-11t-7-8.5q-29-22-46-56-13-26-18-57 22 16 45 25 30 13 58 13 5 1 9.5-2t7.5-7l30-55q4-7 11-9.5t14 .5q9 5 9 22l1 123q0 23-16.5 38T181 271z"/></svg>