<svg viewBox="0 0 300 368" xmlns="http://www.w3.org/2000/svg"><path d="M150 334q-41 0-75.5-20T20 259.5Q0 225 0 184q2-57 33-95 29-35 73-47.5t88 0Q238 54 267 89q31 38 33 95 0 41-20 75.5T225.5 314Q191 334 150 334zm0-263q-31 0-56.5 15.5t-40.5 41Q38 153 38 184q1 43 25 72 21 26 54 35t66 0q33-9 54-35 24-29 26-72 0-31-15.5-56.5t-41-41Q181 71 150 72v-1zm0 200q-33-1-56-19-20-16-27-42t0-52q7-26 28-42 22-18 55-18t56 18q20 16 27 42t0 52q-7 26-28 42-22 18-55 19zm0-137q-23 1-36 15.5T101 184q0 20 13 34.5t36 14.5q23 0 36-14.5t13-34.5q0-20-13-34.5T150 134zm0 75q-12 0-18.5-7.5T125 184q0-10 6.5-17.5T150 159q12 0 18.5 7.5T175 184q0 10-6.5 17.5T150 209z"/></svg>