<svg viewBox="0 0 300 368" xmlns="http://www.w3.org/2000/svg"><path d="M231 34H69q-19 0-34.5 9.5t-25 25Q0 84 0 103v162q0 19 9.5 34.5t25 25Q50 334 69 334h162q19 0 34.5-9.5t25-25Q300 284 300 265V103q0-19-9.5-34.5t-25-25Q250 34 231 34zm32 231q0 13-9.5 22t-22.5 9H69q-13 0-22.5-9T37 265V103q1-13 10-22.5T69 71h162q13 0 22 9.5t9 22.5v162h1zm-41-23q4 7 2.5 14.5t-7 11Q212 271 206 271q-10 0-15-8l-45-67h-33v57q0 8-5.5 13T94 271q-8 0-13.5-5T75 253V115q0-8 5.5-13T94 96.5q8-.5 13.5 5T113 115v44h34l45-55q4-7 12-7.5t14 4q6 4.5 7 12.5t-4 14l-42 52 43 63z"/></svg>