<svg viewBox="0 0 300.0041 368" xmlns="http://www.w3.org/2000/svg"><path d="M192.002 109h-5q18-6 32-19 16-18 18-42 1-6-3.5-10.5t-10.5-3.5q-24 2-42 18-13 15-16 35-5-24-18-45-4-6-12-7.5t-14.5 2.5q-6.5 4-8 12t3.5 14q13 21 15 46h-23q-30 1-55 16t-39.5 41q-14.5 26-13.5 55-1 26 11 50.5t33 41q21 16.5 46 20.5t48-8q6-4 12.5-3.5t12.5 4.5q23 11 47.5 6.5t45.5-21q21-16.5 33-40.5t11-50q1-29-13.5-55t-39.5-41q-25-15-55-16zm0 187q-7 0-12-3-14-9-29.5-9t-29.5 8q-6 4-13 5-26-1-45-17-16-14-22-36.5t0-44.5q6-22 22-36 19-16 45-16h84q26 0 45 16 16 14 22 36.5t0 44.5q-6 22-22 36-19 16-45 16z"/></svg>