<svg viewBox="0 0 300 368" xmlns="http://www.w3.org/2000/svg"><path d="M231 59H69q-19 0-34.5 9.5t-25 25Q0 109 0 128v112q0 19 9.5 34.5t25 25Q50 309 69 309h162q19 0 34.5-9.5t25-25Q300 259 300 240V128q0-19-9.5-34.5t-25-25Q250 59 231 59zm32 181q0 13-9.5 22.5T231 272H69q-13-1-22.5-10T37 240V128q1-13 10-22t22-9h162q13 0 22 9t9 22v112h1zm-68-74l-18 18 18 18q5 5 5 13t-5.5 13.5Q189 234 181 234t-13-6l-18-17-18 17q-5 6-13 6t-13.5-5.5Q100 223 100 215t5-13l18-18-18-18q-5-5-5-13t5.5-13.5Q111 134 119 134t13 5l18 18 18-18q5-5 13-5t13.5 5.5Q200 145 200 153t-6 13h1z"/></svg>