<svg viewBox="0 0 300 368" xmlns="http://www.w3.org/2000/svg"><path d="M253 156q16-9 30-21 17-17 16.5-41.5T282 52q-17-17-41.5-17.5T199 51q-12 14-21 30 1-14-8-23.5T147.5 47Q134 46 124 54.5T113 76q-1 8 1 18 1 5 5.5 19t6.5 23q3 15 5 30-25-19-56-20-16 1-30.5 7.5t-26 18Q7 183 3 205q-3 13-3 40v35q0 23 15.5 38.5T54 334h36q27 0 40-2 21-4 33-17 24-23 25-52.5T167 203q18 1 34 5 9 2 24 7 11 4 16 5 9 2 17 1 13-1 21.5-11t7.5-23.5q-1-13.5-10.5-22.5t-23.5-8zm-27-78q4-4 9.5-5.5t11 0Q252 74 256 78t5.5 9.5q1.5 5.5 0 11T256 108q-34 26-73 43 17-39 43-73zm-89 211q-5 5-19 6-9 1-28 1H54q-7 1-11.5-4T38 281v-36q0-20 1-28 1-14 7-19 11-14 29-14 14 1 27 8t22 18q18 18 24 35 8 25-11 44z"/></svg>