<svg viewBox="0 0 300 368" xmlns="http://www.w3.org/2000/svg"><path d="M238 140v-18q0-24-12-44t-32-32q-20-12-44-12t-44 12Q86 58 74 78t-12 44v18q-17 9-27.5 25.5T24 202v63q0 19 9.5 34.5t25.5 25q16 9.5 34 9.5h114q18 0 34-9.5t25.5-25Q276 284 276 265v-63q0-20-10.5-36.5T238 140zm-88-68q21 0 35.5 14.5T200 122v11H100v-11q0-21 14.5-35.5T150 72zm88 193q0 13-9 22t-22 9H93q-13 0-22-9t-9-22v-63q0-13 9-22.5t22-9.5h114q13 0 22 9.5t9 22.5v63zm-94-57h12q8 0 13.5 5.5T175 227q0 8-5.5 13.5T156 246h-12q-8 0-13.5-5.5T125 227q0-8 5.5-13.5T144 208z"/></svg>