<svg viewBox="0 0 300 368" xmlns="http://www.w3.org/2000/svg"><path d="M269 296h-6V121h6q8 0 13-5t5.5-13q.5-8-5-13.5T269 84h-6v-6q0-8-5.5-13.5T244 59h-6v-6q0-8-5.5-13.5T219 34q-8 0-13.5 5.5T200 53v6h-6q-8 0-13.5 5.5T175 78v6h-50v-6q0-8-5.5-13.5T106 59h-6v-6q0-8-5.5-13.5T81 34q-8 0-13.5 5.5T62 53v6h-6q-8 0-13.5 5.5T37 78v6h-6q-8 0-13 5.5T13 103q0 8 5 13t13 5h7v175h-7q-8 0-13 5.5T13 315q0 8 5 13.5t13 5.5h238q8 0 13-5.5t5.5-13.5q.5-8-5-13t-13.5-5v-1zM75 121h150v175H75V121zm117 102l-25 51q-3 4-7.5 7t-9 3q-4.5 0-8.5-2-7-3-9.5-10.5t.5-14.5l15-29h-19q-6 0-11-3t-8-8q-3-5-3.5-11t2.5-11l24-50q3-7 10.5-10t14.5.5q7 3.5 9.5 11T167 161l-14 29h18q6 0 11 3t8.5 8q3.5 5 3.5 10.5t-2 11.5z"/></svg>