<svg viewBox="0 0 300 368" xmlns="http://www.w3.org/2000/svg"><path d="M278 180l-44-26v-52q0-12-5.5-22T213 64l-41-24q-10-6-22-6t-22 6L87 64q-10 6-15.5 16T66 101v53l-44 26q-10 6-16 16t-6 22v48q0 12 6 22t16 16l40 24q11 6 22.5 6t22.5-6l43-26 44 26q10 6 22 6t22-6l41-24q10-6 15.5-16t5.5-22v-48q0-12-5.5-22T279 180h-1zm-62 47l-35-20 35-21 34 21-34 20zm-131 0l-35-20 35-21 34 21-34 20zm53-94v41l-35-20v-41l35 20zm59-20v41l-34 20v-41l34-20zm-50-41q3-2 6 0l32 19-35 20-34-20 31-19zM41 272q-3-2-3-6v-37l34 20v41l-31-18zm56 18v-41l34-20v41l-34 20zm72-20v-41l34 20v41l-34-20zm90 2l-31 18v-41l34-20v37q0 4-3 6z"/></svg>