<svg viewBox="0 0 300 368" xmlns="http://www.w3.org/2000/svg"><path d="M295 303l-70-69q25-33 25-75 0-34-16.5-62.5T188 51q-29-17-63-17T62.5 51Q34 68 17 96.5T0 159q0 34 17 63t45.5 45.5Q91 284 125 284q41 0 74-24l69 70q6 5 14 5t13-5.5q5-5.5 5-13t-5-13.5zM38 159q0-23 11.5-43.5t32-32Q102 72 125.5 72T169 83.5q20 11.5 32 32t12 44q0 23.5-12 43.5t-32 32q-20 12-43.5 12t-44-12q-20.5-12-32-32T38 159zm87-62q-23 0-39 16t-16 39q0 23 16 39l25 25q6 6 14 6t14-6l25-25q16-16 16-39t-16-39q-16-16-39-16zm0 74q-8 0-13.5-5.5t-5.5-13q0-7.5 5.5-13T125 134q8 0 13.5 5.5t5.5 13q0 7.5-5.5 13T125 171z"/></svg>