<svg viewBox="0 0 300 368" xmlns="http://www.w3.org/2000/svg"><path d="M102 75l39-37q4-4 9-4t9 4l39 37q4 4 4 9t-3.5 9q-3.5 4-8.5 4h-21v31q0 8-5.5 13t-13.5 5.5q-8 .5-13.5-5T131 128V96h-21q-5 0-8.5-3.5T98 84q0-5 4-9zm88 196h-21v-31q0-8-5.5-13.5T150 221q-8 0-13.5 5.5T131 240v31h-21q-5 0-8.5 4t-3.5 9q0 5 4 9l39 37q4 4 9 4t9-4l39-37q4-4 4-9t-3.5-8.5Q195 272 190 272v-1zm85-106q-8 0-13.5 5.5T256 184q0 8 5.5 13.5T275 203q8 0 13.5-5.5T294 184q0-8-5.5-13.5T275 165zm-144 19q0 8 5.5 13.5T150 203q8 0 13.5-5.5T169 184q0-8-5.5-13.5T150 165q-8 0-13.5 5.5T131 184zm82-19q-8 0-13.5 5.5T194 184q0 8 5.5 13.5t13 5.5q7.5 0 13-5.5T231 184q0-8-5.5-13.5T213 165zm-107 19q0-8-5.5-13.5t-13-5.5q-7.5 0-13 5.5T69 184q0 8 5.5 13.5t13 5.5q7.5 0 13-5.5T106 184zm-81-19q-8 0-13.5 5.5T6 184q0 8 5.5 13.5T25 203q8 0 13.5-5.5T44 184q0-8-5.5-13.5T25 165z"/></svg>