<svg viewBox="0 0 300 368" xmlns="http://www.w3.org/2000/svg"><path d="M139 117q-3-9-10-14.5t-16.5-6Q103 96 96 102t-10 15l-20 89q-1 5 2 9.5t8 5.5q5 1 9-1.5t6-7.5l3-15h37l3 15q1 4 4.5 7t8.5 3l2-1q5-1 8-5.5t2-9.5l-20-89zm-39 55l11-49q0-1 1.5-1t1.5 1l11 49h-25zm138-44q0 8-5.5 13.5T219 147h-25q-8 0-13.5-5.5T175 128q0-8 5.5-13.5T194 109h25q8 0 13.5 5.5T238 128zm-13 62q0 8-5.5 13.5T206 209h-12q-8 0-13.5-5.5T175 190q0-8 5.5-13.5T194 171h12q8 0 13.5 5.5T225 190zm6-156H69q-19 0-34.5 9.5t-25 25Q0 84 0 103v112q0 19 9.5 34.5t25 25Q50 284 69 284h15l45 38q9 8 21 8t20-8l47-38h14q19 0 34.5-9.5t25-25Q300 234 300 215V103q0-19-9.5-34.5t-25-25Q250 34 231 34zm32 181q0 13-9.5 22.5T231 247h-21q-7-1-12 4l-48 39-47-39q-5-5-12-5H69q-13 0-22.5-9T37 215V103q0-13 9.5-22T69 72h162q13-1 22 8.5t9 22.5v112h1z"/></svg>