<svg viewBox="0 0 300 368" xmlns="http://www.w3.org/2000/svg"><path d="M150 34q-41 0-75.5 20T20 108.5Q0 143 0 184t20 75.5Q40 294 74.5 314t75.5 20q41 0 75.5-20t54.5-54.5q20-34.5 20-75.5t-20-75.5Q260 74 225.5 54T150 34zm0 262q-31 0-56.5-15T53 240.5Q38 215 37.5 184t15-56.5q15.5-25.5 41-41T150 71q31 0 56.5 15.5t41 41q15.5 25.5 15 56.5T247 240.5q-15 25.5-40.5 41T150 297v-1zm63-68q0 8-5.5 13.5T194 247h-88q-8-1-13.5-6t-5-13q.5-8 5.5-13.5t13-5.5h88q8 0 13 5.5t5 13.5h1zm12-69q0 10-7.5 17.5T200 184q-10 0-17.5-7.5T175 159q0-10 7.5-17.5T200 134q10 0 17.5 7.5T225 159zm-125 25q-10 0-17.5-7.5T75 159q0-10 7.5-17.5T100 134q10 0 17.5 7.5T125 159q0 10-7.5 17.5T100 184zm-25-75q0-5 3.5-9t8.5-4h38q5 0 9 4t4 9q0 5-4 9t-9 4H88q-6-1-9.5-4.5T75 109zm157 13q-3 5-8 5.5t-9-1.5q-7-5-18-5-9 0-19 5-5 3-8 5.5t-8 2.5q-5 0-8.5-4.5t-3-9.5q.5-5 5-9t12.5-7q14-8 27.5-7.5T219 100q6 3 10 5.5t5 7.5q1 5-2 9z"/></svg>