<svg viewBox="0 0 300 368" xmlns="http://www.w3.org/2000/svg"><path d="M238 240q0 8-5.5 13.5T219 259h-13q-8 0-13.5-5.5T187 240q0-8 5.5-13.5T206 221h13q8 1 13.5 6t5.5 13zm62-25v63q0 23-16.5 39.5T244 334H56q-23 0-39.5-16.5T0 278v-63q0-23 16.5-39.5T56 159h7V90q0-23 16-39.5T119 34h62q24 0 40.5 16.5T238 90v69h6q23 0 39.5 16.5T300 215zm-200-56h100V90q0-8-5.5-13.5T181 72h-62q-8-1-13.5 4.5T100 90v69zM56 296h75V196H56q-8 1-13.5 6T37 215v63q1 8 6 13.5t13 5.5v-1zm207-81q0-8-5.5-13.5T244 197h-75v99h75q8 0 13.5-5t4.5-13v-63h1zm-169 6H81q-8 1-13 6t-5 13q0 8 5 13.5t13 5.5h13q8 0 13.5-5.5t5-13.5q-.5-8-5.5-13.5T94 221zm81-106q0-8-5.5-13.5T156 96h-12q-8 0-13.5 5.5T125 115q0 8 5.5 13.5T144 134h12q8 0 13.5-5.5T175 115z"/></svg>