<svg viewBox="0 0 300 368" xmlns="http://www.w3.org/2000/svg"><path d="M56 321q-23 0-39.5-16T0 265.5q0-23.5 16.5-40t40-16.5q23.5 0 40 16.5t16 40Q112 289 96 305t-40 16zm0-75q-8 0-13 5.5T38 265q0 8 5 13.5t13 5.5q8 0 13.5-5.5T75 265q0-8-5.5-13.5T56 246zm188 75q-24 0-40-16t-16-39.5q0-23.5 16-40t39.5-16.5q23.5 0 40 16.5t16.5 40q0 23.5-16.5 39.5T244 321zm0-75q-8 0-13.5 5.5T225 265q0 8 5.5 13.5T244 284q8 0 13.5-5.5T263 265q0-8-5.5-13.5T244 246zm-75 32v-57q0-9-8-15l-34-24q-2-1-2-4t2-5l24-25q1-2 3.5-1.5t4.5 1.5l35 31q5 5 12 5h25q8 0 13.5-5.5T250 165q0-8-5.5-13.5T231 146h-18l-28-25q-12-12-29.5-12T125 120l-24 26q-14 14-13.5 33.5T103 211l28 20v47q0 8 5.5 13.5t13.5 5q8-.5 13.5-5.5t5.5-13zm37-232q-13 0-22 9.5T175 78q0 13 9 22t22 9q13 0 22.5-9t9.5-22q0-13-9.5-22.5T206 46z"/></svg>