<svg viewBox="0 0 300 368" xmlns="http://www.w3.org/2000/svg"><path d="M139 123q16-5 31 4.5t17 25.5q0 8 5.5 13t13.5 5q8 0 13.5-5t5.5-13q0-3-1-6-4-22-19-38.5t-37.5-22Q145 81 122 89q-21 8-34 27.5T75 159q0 9 2 17t8.5 11.5q6.5 3.5 14 1.5t11.5-9v-1q3-6 2-13-2-10 1.5-19t9.5-15q6-6 15-9zm-81 14q5-31 28-53 14-13 32.5-19.5T156 59q25 2 45 15.5t31.5 35.5q11.5 22 11.5 48 0 16-12 27t-28 11h-32q-4-5-9.5-8.5T150 184q-10 0-17.5 7.5T125 209q0 10 7.5 17.5T150 234q7 0 12.5-3.5t9.5-9.5h32q17 0 32-8t23.5-23q8.5-15 9.5-32 0-32-14.5-59.5t-40-45Q189 36 158 34q-25-1-48 7T69 66Q55 79 45.5 96T33 132q-1 6 3 10.5t9 4.5q5 0 8.5-3t4.5-7zm92 109q-32 0-59.5 17.5T52 308q-4 7-1 14t10.5 10.5Q69 336 76 333t10-10q7-17 25-28t38.5-11q20.5 0 39 11t25.5 28q2 5 7 8t9.5 3q4.5 0 8.5-2 7-3 10-10t0-14q-12-27-39.5-44.5T150 246z"/></svg>