<svg viewBox="0 0 300 368" xmlns="http://www.w3.org/2000/svg"><path d="M206 203q0 8-5.5 13.5T188 222h-19v18q0 8-5.5 13.5T150 259q-8 0-13.5-5.5T131 240v-19h-18q-8 0-13.5-5T94 203q0-8 5.5-13.5T112 184h19v-19q0-8 5.5-13.5T150 146q8 0 13.5 5.5T169 165v19h19q7 0 12.5 5.5T206 203zm82-113q0 8-5.5 13.5T269 109h-6v156q0 19-9.5 34.5t-25.5 25q-16 9.5-34 9.5h-88q-18 0-34-9.5t-25-25Q38 284 38 265V109h-7q-8 0-13-5.5T13 90q0-8 5-13.5T31 71h47q6-16 20.5-26.5T131 34h38q18 0 32.5 10.5T222 71h47q8 0 13.5 5.5T288 90zm-63 19H75v156q0 13 9 22.5t22 9.5h88q13-1 22-10t9-22V109z"/></svg>