<svg viewBox="0 0 300 368" xmlns="http://www.w3.org/2000/svg"><path d="M285 195l-4-9q-5-13-15.5-22.5T242 150l-3-14q-2-7-7-11t-11-4h-28q-7 0-12 4t-6 11l-4 14q-13 4-23.5 13.5T131 186l-4 9q-15 36-15 74v2q0 13 7 22.5t18 13.5v2q1 10 8 17.5t17.5 7.5q10.5 0 18-7.5T188 309h37q0 10 7.5 17.5T250 334q10 0 17.5-7.5T275 309v-2q11-4 18-14t7-22v-2q0-38-15-74zm-119 6q3-8 10-12.5t15-4.5h30q8 0 15 4.5t10 12.5l4 9q5 12 8 24H154q3-12 8-24l4-9zm-66-23q0 7-5.5 12.5T81 196H63v32q0 2 1.5 4t4.5 2q8 0 13.5 5.5T88 253v25q0 7-5.5 12.5T69 296q-8 0-13.5-5.5T50 278v-11q-11-5-18-15.5T25 228v-32h-6q-8 0-13.5-5T0 178v-13q0-8 5.5-13.5T19 146h6v-37q0-22 13-40t34-25q59-20 119 0 14 5 25 15t16 24q4 9-1.5 17.5T215 109h-65v6q0 8-5.5 13.5T131 134q-8 0-13.5-5.5T112 115v-6H63v50h18q8 0 13.5 5.5T100 178z"/></svg>