<svg viewBox="0 0 300 368" xmlns="http://www.w3.org/2000/svg"><path d="M300 296q0 16-11 27t-26.5 11q-15.5 0-26.5-11t-11-26.5q0-15.5 11-26.5t26.5-11q15.5 0 26.5 11t11 26zM263 98l-48 48q-9 8-9 19 0 5 2 10 6 13 4 26.5T200 225l-96 96q-10 10-25 12-6 1-12 1-13 0-25.5-5T19 315Q7 303 2.5 287t-2-31.5Q3 240 13 230l96-96q10-10 23.5-12t26.5 3q5 3 10 3 11-1 19-9l48-48-6-5q-5-5-5-13t5.5-13.5Q236 34 244 34t13 5l38 38q5 5 5 13t-5.5 13.5Q289 109 281 109t-13-5l-5-6zM163 209h-20q-7 0-11-2-7-4-7-15v-21l-85 85q-2 2-2 4-2 8 0 15.5t7.5 13q5.5 5.5 13 7.5t15.5 0q2 0 4-2l85-85z"/></svg>