<svg viewBox="0 0 300 368" xmlns="http://www.w3.org/2000/svg"><path d="M281 71H19q-8 0-13.5-5T0 53q0-8 5.5-13.5T19 34h262q8 0 13.5 5.5T300 53q0 8-5.5 13T281 71zM38 315q0-8-5.5-13.5T19 296q-8 0-13.5 5.5T0 315q0 8 5.5 13.5T19 334q8 0 13.5-5.5T38 315zm0-62q0-8-5.5-13.5T19 234q-8 0-13.5 5.5T0 253q0 8 5.5 13t13.5 5q8 0 13.5-5t5.5-13zm262 0q0-8-5.5-13.5T281 234q-8 0-13 5.5t-5 13.5q0 8 5 13t13 5q8 0 13.5-5t5.5-13zM38 115q0-8-5.5-13.5T19 96q-8 0-13.5 5.5T0 115q0 8 5.5 13.5T19 134q8 0 13.5-5.5T38 115zm262 0q0-8-5.5-13.5T281 96q-8 0-13 5.5t-5 13.5q0 8 5 13.5t13 5.5q8 0 13.5-5.5T300 115zm0 200q0-8-5.5-13.5T281 296q-8 0-13 5.5t-5 13.5q0 8 5 13.5t13 5.5q8 0 13.5-5.5T300 315zm-62 0q0-8-5.5-13.5T219 296q-8 0-13.5 5.5T200 315q0 8 5.5 13.5T219 334q8 0 13.5-5.5T238 315zm-69 0q0-8-5.5-13.5T150 296q-8 0-13.5 5.5T131 315q0 8 5.5 13.5T150 334q8 0 13.5-5.5T169 315zm-69 0q0-8-5.5-13.5T81 296q-8 0-13.5 5.5t-5 13.5q.5 8 5.5 13.5t13 5.5q8 0 13.5-5.5T100 315zM38 184q0-8-5.5-13.5T19 165q-8 0-13.5 5.5T0 184q0 8 5.5 13.5T19 203q8 0 13.5-5.5T38 184zm262 0q0-8-5.5-13.5T281 165q-8 0-13 5.5t-5 13.5q0 8 5 13.5t13 5.5q8 0 13.5-5.5T300 184zm-62 0q0-8-5.5-13.5T219 165q-8 0-13.5 5.5T200 184q0 8 5.5 13.5T219 203q8 0 13.5-5.5T238 184zm-69 0q0-8-5.5-13.5T150 165q-8 0-13.5 5.5T131 184q0 8 5.5 13.5T150 203q8 0 13.5-5.5T169 184zm-69 0q0-8-5.5-13.5T81 165q-8 0-13.5 5.5t-5 13.5q.5 8 5.5 13.5t13 5.5q8 0 13.5-5.5T100 184zm50-88q-8 1-13.5 6t-5.5 13q0 8 5.5 13.5T150 134q8 0 13.5-5.5T169 115q0-8-5.5-13.5T150 96zm0 138q-8 0-13.5 5.5T131 253q0 8 5.5 13t13.5 5q8 0 13.5-5t5.5-13q0-8-5.5-13.5T150 234z"/></svg>