<svg viewBox="0 0 300 368" xmlns="http://www.w3.org/2000/svg"><path d="M254 199q2-7 2-15 0-21-12.5-38T211 124q2-7 2-15 0-17-8.5-31.5t-23-23Q167 46 150 46t-31.5 8.5Q104 63 96 77.5T88 109q0 8 1 15-20 5-32.5 22T44 184q0 8 2 15-20 5-33 22T0 259q0 17 8.5 31.5t23 22.5q14.5 8 31.5 8 12 0 23.5-4.5T106 304q9 8 20 12.5t24 4.5q13 0 24-4.5t20-12.5q8 8 19.5 12.5T238 321q16 0 30.5-8t23-22.5Q300 276 300 259q0-21-13-38t-33-22zM150 84q10 0 17.5 7.5T175 109q0 10-7.5 17.5T150 134q-10 0-17.5-7.5T125 109q0-10 7.5-17.5T150 84zM63 284q-11 0-18-7.5T38 259q0-10 7-17.5t17.5-7.5q10.5 0 18 7.5T88 259q0 10-7.5 17.5T63 284zm43-75q-10 0-17.5-7.5T81 184q0-10 7.5-17.5t18-7.5q10.5 0 17.5 7.5t7 17.5q0 10-7 17.5t-18 7.5zm44 75q-10 0-17.5-7.5T125 259q0-10 7.5-17.5T150 234q10 0 17.5 7.5T175 259q0 10-7.5 17.5T150 284zm44-75q-11 0-18-7.5t-7-17.5q0-10 7-17.5t17.5-7.5q10.5 0 18 7.5T219 184q0 10-7.5 17.5T194 209zm44 75q-11 0-18-7.5t-7-17.5q0-10 7-17.5t17.5-7.5q10.5 0 18 7.5T263 259q0 10-7.5 17.5T238 284z"/></svg>