<svg viewBox="0 0 300.0012 368" xmlns="http://www.w3.org/2000/svg"><path d="M219 171q8 0 13.5 5.5T238 190q0 8-5.5 13.5T219 209q-8 0-13.5-5.5T200 190q0-8 5.5-13.5T219 171zm-38 50q-8 1-13.5 6t-5 13q.5 8 5.5 13.5t13 5.5q8 0 13.5-5.5T200 240q0-8-5.5-13.5T181 221zm0-106q0 8 5.5 13.5T200 134l7-1q10-1 19-3 14-4 26-11 15-8 27-20 17-17 21-49 1-7-4-12t-12-4q-32 4-49 21-10 11-19 31-3-14-10-27-3-7-9-17-5-6-12.5-7.5t-14 2.5q-6.5 4-8 12t2.5 14q7 11 11 19 5 14 5 33zm112 27q-3-8-10-11t-14.5-.5Q261 133 258 140t-1 14q6 15 5 30 1 45-25 71-24 23-72 33-41 9-109 9-8 0-13.5-5.5T37 278q1-5 3.5-9T54 256q34-26 33-72 1-24 13-45t34-32q7-4 9-11.5t-1.5-14q-3.5-6.5-11-9T116 74q-30 16-48 45.5T50 184q0 28-18.5 43T9 247q-9 14-9 31 0 23 16.5 39.5T56 334q60 0 96-6 65-10 101-38 47-38 47-106 0-22-7-42z"/></svg>