<svg viewBox="0 0 300 368" xmlns="http://www.w3.org/2000/svg"><path d="M239 192l35 15q3 2 8 2t9.5-3q4.5-3 7.5-9t0-13.5q-3-7.5-10-10.5l-69-30 19-10q16-9 26-25t10-35V53q0-8-5.5-13.5T256 34q-8 0-13 5.5T238 53v20q0 8-4.5 15.5T221 100l-35 19q2-5 2-10 0-16-11-27t-27-11q-16 0-26.5 11T113 109q0 5 1 10l-35-19q-8-4-12-11.5T63 73V53q0-8-5.5-13.5T44 34q-8 0-13.5 5.5T25 53v20q0 19 10 35t26 25l19 10-69 30q-7 3-10 10.5T1 197q3 6 7.5 9t9.5 3q5 0 8-2l35-15-45 53Q0 265 0 290v25q0 8 5.5 13.5T19 334q8 0 13-5.5t5-13.5v-25q1-12 8-20l21-25q8 28 31 46t53 18q30 0 53-18t31-46l21 25q8 8 8 20v25q0 8 5 13.5t13 5.5q8 0 13.5-5.5T300 315v-25q0-25-16-45l-45-53zm-89 79q-21 0-35.5-14.5t-14.5-35q0-20.5 14.5-35.5t35.5-15q21 0 35.5 15t14.5 35.5q0 20.5-14.5 35T150 271zm23-62l-11 12 11 13q3 4 1 8.5t-6 3.5h-35q-5 1-7-3.5t1-8.5l12-13-12-12q-3-4-1-8.5t7-4.5h35q4 0 6 4.5t-1 8.5z"/></svg>