<svg viewBox="0 0 300 368" xmlns="http://www.w3.org/2000/svg"><path d="M150 184q20 0 37.5-10t27.5-27.5q10-17.5 10-37.5t-10-37.5Q205 54 187.5 44T150 34q-20 0-37.5 10T85 71.5Q75 89 75 109t10 37.5Q95 164 112.5 174t37.5 10zm0-113q16 0 26.5 11t11 27q.5 16-10.5 26.5T150 146q-16 0-26.5-10.5T113 109q0-16 10.5-26.5T150 72v-1zm62 242q1 8-4 14.5t-15 6.5q-7 0-12-4.5t-6-11.5q-2-9-9-15.5t-16-6.5q-9 0-16 6.5t-8.5 15q-1.5 8.5-7.5 13t-13.5 3.5q-7.5-1-12.5-7.5T88 313q4-23 21.5-38.5T150 259q23 0 40.5 15.5T212 313zm63 1q0 8-5 14t-13 6h-1q-8 0-13-5t-6-13q-1-22-13-41t-31.5-30Q173 234 150 234t-42.5 11Q88 256 76 275t-13 41q-1 8-6.5 13T43 334q-8 0-13-6t-5-14q2-32 19.5-59t45-43q27.5-16 60.5-16t60.5 16q27.5 16 45 43t19.5 59z"/></svg>