<svg viewBox="0 0 300 368" xmlns="http://www.w3.org/2000/svg"><path d="M88 140q0-8 5-13.5t13-5q8 .5 13.5 5.5t5.5 13q0 8-5.5 13.5T106 159q-8 0-13.5-5.5T87 140h1zm187-4v129q0 19-9.5 34.5t-25 25Q225 334 206 334H94q-19 0-34.5-9.5t-25-25Q25 284 25 265V103q0-19 9.5-34.5t25-25Q75 34 94 34h79q29 0 49 20l33 33q20 20 20 49zM63 103v142l46-46q14-15 34.5-15t35.5 15l7 7q3 3 7.5 3t7.5-3l36-36v-23h-49q-11 0-18-7.5t-7-17.5V71H94q-13 0-22.5 9.5T63 103zm175 162v-42l-10 10q-14 14-34 14t-34-14l-8-8q-3-3-8-3t-9 3l-63 63q9 9 22 9h112q13 0 22-9.5t9-22.5h1z"/></svg>