<svg viewBox="0 0 300 368" xmlns="http://www.w3.org/2000/svg"><path d="M300 184q0-41-20-75.5T225.5 54Q191 34 150 34T74.5 54Q40 74 20 108.5T0 184q0 41 20 75.5T74.5 314q34.5 20 75.5 20t75.5-20q34.5-20 54.5-54.5t20-75.5zm-262 0q0-31 15-56.5T93.5 87Q119 72 150 71.5t56.5 15q25.5 15.5 41 41T263 184q0 31-15.5 56.5t-41 40.5Q181 296 150 296t-56.5-15Q68 266 53 240.5T38 184zm102 43l-24-24h103q8 0 13.5-5.5t5-13.5q-.5-8-5.5-13.5t-13-5.5H116l24-24q4-4 5-9t0-9.5q-1-4.5-5-8.5t-9-5q-5-1-9.5.5T113 115l-38 38q-12 13-12 31t12 31l38 38q4 4 8.5 5.5t9.5.5q5-1 9-5t5-8.5q1-4.5 0-9.5t-5-9z"/></svg>