<svg viewBox="0 0 300 368" xmlns="http://www.w3.org/2000/svg"><path d="M150 34q-41 0-75.5 20T20 108.5Q0 143 0 184q2 57 33 95 29 35 73 47.5t88 0q44-12.5 73-47.5 31-38 33-95 0-41-20-75.5T225.5 54Q191 34 150 34zm0 262q-31 0-56.5-15T53 240.5Q38 215 38 184q1-43 25-72 21-26 54-35t66 0q33 9 54 35 24 29 26 72-1 31-16 56.5T206.5 281Q181 296 150 296zm25-50q0 11-7.5 18t-17.5 7q-10 0-17.5-7t-7.5-17.5q0-10.5 7.5-18t17.5-7q10 .5 17.5 7.5t7.5 17zm52-87l5-5q6-6 6-14t-5.5-13.5Q227 121 219 121t-14 6l-5 5-5-5q-6-6-14-6t-13.5 5.5Q162 132 162 140t6 14l5 5-5 5q-6 6-6 14t5.5 13.5Q173 197 181 197t14-6l5-5 5 5q6 6 14 6t13.5-5.5Q238 186 238 178t-6-14l-5-5zm-95-32q-5-6-13-6t-14 6l-5 5-5-5q-6-6-14-6t-13.5 5.5Q62 132 62 140t6 14l5 5-5 5q-6 6-6 14t5.5 13.5Q73 197 81 197t14-6l5-5 5 5q6 6 14 6t13.5-5.5Q138 186 138 178t-6-14l-5-5 5-5q6-6 6-14t-6-13z"/></svg>