<svg viewBox="0 0 300 368" xmlns="http://www.w3.org/2000/svg"><path d="M138 244q0-4-3-8t-7-6l-49-19q-10-4-20 0l-49 19q-5 2-7.5 6T0 245q0 5 3.5 9t9.5 5v39q-6 2-9.5 6.5T0 316q0 7 5.5 12.5T19 334h100q8 0 13.5-5.5T138 316q0-7-3.5-11.5T125 298v-39q5-1 8.5-5t3.5-10h1zm-50 15v37H50v-37h38zm200-136V84q5-1 8.5-5t3.5-9q0-5-2.5-9t-7.5-6l-49-19q-10-4-20 0l-49 19q-4 2-6.5 6t-2.5 9q0 5 3.5 9t8.5 5v39q-6 2-9.5 6.5t-3 11.5q.5 7 5.5 12.5t13 5.5h100q8 0 13.5-5.5T300 141q0-7-3.5-11.5T288 123zm-38-39v37h-37V84h37zm45 212q5 5 5 13t-5.5 13.5Q289 328 281 328t-13-6l-26-26h-36q-13 0-22-9t-9-22v-29l-94-82q-6-5-6-14v-31H44q-9 0-15-7L4 71q-5-6-4-14t7-12.5q6-4.5 14-4T33 47l20 24h28q13 0 22 9.5t9 22.5v29l94 82q6 5 6 14v31h38q8 0 13 5l32 32z"/></svg>