<svg viewBox="0 0 300 368" xmlns="http://www.w3.org/2000/svg"><path d="M191 300q4 7 2 14.5t-9 10.5q-16 9-34 9-14 0-27-5.5T100 313l-47-43q-22-22-32.5-52T13 157q1-8 7-12.5t14-4q8 .5 12.5 6.5t4.5 14q-3 23 4.5 44.5T79 243l47 43q8 8 19 10t21-4q7-3 14.5-1t10.5 9zm104 29q-6 5-14 5t-13-5L5 66q-5-5-5-13t5.5-13.5Q11 34 19 34t13 5l28 29q19-17 42-25.5t48-8.5q28 0 53 10.5T247 74q25 26 35 59.5t2.5 67.5q-7.5 34-30.5 61l41 40q5 5 5 13t-6 13l1 1zM87 94l141 141q15-19 20-43.5t-2-48.5q-7-24-25-42-14-14-32.5-22T150 71q-36 0-63 23z"/></svg>