<svg viewBox="0 0 300 368" xmlns="http://www.w3.org/2000/svg"><path d="M206 109q-15 1-28 8-4-3-9-4 2-18 10-29 6-7 14-11 4-2 7-1 6-1 9.5 1.5T213 78q0 8 5 13.5t13 5.5q8 0 13.5-5.5T250 78q-1-20-16-32.5T200 34q-14 1-26.5 7T153 57q-10-13-26-21-7-3-14.5-1T102 44q-3 7-1 14.5t9 11.5q10 4 15 13.5t6 29.5q-5 1-9 4-13-7-28-8-21 0-41 11-24 12-37 36-16 27-16 65 0 36 16 64 14 23 37 37 20 12 41 12 15 0 27-8 13 8 29 8t29-8q12 8 27 8 21 0 41-12 23-14 37-37 16-28 16-64 0-38-16-65-13-24-37-36-20-11-41-11zM38 221q0-27 10-45 8-15 22-23 12-7 23-7h1q-20 35-20 75.5T94 297q-9-1-20-6-15-8-24-23-12-19-12-47zm75 0q0-20 5.5-37.5t14-27Q141 147 150 147t17.5 9.5q8.5 9.5 14.5 27t6 38q0 20.5-6 38t-14.5 27Q159 296 150 296t-17.5-9.5q-8.5-9.5-14-27T113 221zm93 75q20-34 20-74.5T206 147q12 0 23 6 15 8 23 23 11 18 11 45.5T250 268q-9 15-24 23-11 5-20 6v-1z"/></svg>