<svg viewBox="0 0 300 368" xmlns="http://www.w3.org/2000/svg"><path d="M182 189q6 6 6 14t-5.5 13q-5.5 5-13.5 5t-14-5l-18-19q-6-5-6-13v-44q0-8 5.5-13.5T150 121q8 0 13.5 5.5T169 140v36l13 13zm43 95v31q0 8-5.5 13.5T206 334q-8 0-13-5.5t-5-13.5v-12q-19 6-38 6t-38-6v12q1 8-4.5 13.5T94 334q-8 0-13.5-5.5T75 315v-31q-23-18-36.5-44T25 184q0-30 13.5-56T75 84V53q0-8 5.5-13.5T94 34q8 0 13.5 5.5T113 53v12q18-6 37-6t38 6V53q0-8 5-13.5t13-5.5q8 0 13.5 5.5T225 53v31q23 18 36.5 44t13.5 56q0 30-13.5 56T225 284zm13-100q0-24-12-44t-32-32q-20-12-44-12t-44 12q-20 12-31.5 32T63 184q0 24 11.5 44t31.5 31.5q20 11.5 44 11.5t44-11.5q20-11.5 31.5-31.5t12.5-44z"/></svg>