<svg viewBox="0 0 300 368" xmlns="http://www.w3.org/2000/svg"><path d="M175 240q0-8 5.5-13.5t13.5-5q8 .5 13 5.5t5 13q0 8-5 13.5t-13 5.5q-8 0-13.5-5.5T175 240zm107-127q-4-7-11.5-9.5t-14 1.5q-6.5 4-9 11.5T249 130q14 25 14 55t-15.5 55.5q-15.5 25.5-41 41T150 297q-31 0-56.5-15.5t-40.5-41Q38 215 38 184q0-27 12-51t34-40q6-5 7.5-12.5t-3-14Q84 60 76 59t-14 4q-29 21-45.5 53T0 184q0 41 20 75.5T74.5 314q34.5 20 75.5 20t75.5-20q34.5-20 54.5-54.5t20-75.5q0-38-18-71zm-151 2q0 8 5.5 13.5T150 134l7-1q10-1 19-3 14-4 26-11 15-8 27-20 17-17 21-49 1-7-4-12t-12-4q-31 4-49 21-10 11-19 31-3-14-9-27-4-7-10-17-4-6-12-7.5T120.5 37q-6.5 4-8 12t3.5 14q7 11 10 19 5 14 5 33zm25 56q-8 0-13.5 5.5T137 190q0 8 5.5 13.5T156 209q8 0 13.5-5.5T175 190q0-8-5.5-13.5T156 171zm82 19q0-8-5.5-13.5T219 171q-8 0-13.5 5.5T200 190q0 8 5.5 13.5T219 209q8 0 13.5-5.5T238 190z"/></svg>