<svg viewBox="0 0 300 368" xmlns="http://www.w3.org/2000/svg"><path d="M281 146h-12q-19 0-34.5 9.5t-25 25.5q-9.5 16-9.5 34v38q0 18-13 30.5T156 296q-18 0-30.5-12.5T113 253v-34q27-6 44.5-28t17.5-51v-20q6-2 9-6.5t3-11.5q0-7-5-12.5T169 84h-19V53q0-8-5.5-13.5T131 34q-8 0-13.5 5.5T112 53v31H75V53q0-8-5.5-13.5T56 34q-8 0-13 5.5T38 53v31H19q-8 0-13.5 5.5T0 102q0 7 3.5 11.5T13 120v20q0 29 17.5 51T75 219v34q0 22 11 40.5t29.5 29.5q18.5 11 40.5 11t41-11q19-11 29.5-29.5T237 253v-38q0-13 9.5-22t22.5-9h12q8 0 13.5-5.5T300 165q0-8-5.5-13.5T281 146zm-231-6v-19h88v19q0 18-13 31t-31 13q-18 0-31-13t-13-31z"/></svg>