<svg viewBox="0 0 300 368" xmlns="http://www.w3.org/2000/svg"><path d="M211 84q-4-21-21.5-35T150 35q-22 0-39.5 14T89 84q-18 3-33 13.5t-23.5 27Q24 141 25 159t10 34l74 118q6 10 17 16.5t24 6.5q13 0 24-6t17-17l74-118q13-21 9.5-46t-21-43Q236 86 211 84zm26 70q-37 4-68 5v-3q0-13 9.5-23.5t23.5-11q14-.5 24 9t11 23.5zm-87-83q9 1 15.5 6t8.5 13q-14 7-24 18-10-11-24-18 2-8 8.5-13t15.5-5v-1zm-54 50q15 1 25.5 11.5T131 158v1q-29-1-68-5 0-14 10-23t23-10zm63 170q-3 6-9 5.5t-9-5.5l-62-98q71 6 142 0l-62 98z"/></svg>