<svg viewBox="0 0 300 368" xmlns="http://www.w3.org/2000/svg"><path d="M138 153q0 6-4 11t-10 7q-2 6-6.5 9.5t-12 3.5q-7.5 0-12.5-5.5T88 165v-12q0-8 5-13.5t13-5.5h13q8 0 13.5 5.5T138 153zm-14 69q-2-6-6.5-9.5t-12-3.5q-7.5 0-12.5 5.5T88 228v12q0 8 5 13.5t13 5.5h13q8 0 13.5-5.5T138 241q0-7-4-12t-10-7zm70-38q8 0 13.5-5.5T213 165v-12q0-8-5.5-13.5T194 134h-13q-8 0-13 5.5t-5 12.5q0 7 3.5 12t9.5 7q2 6 6.5 9.5T194 184zm62-150h-48q-13 0-24.5 7T167 60q-2 5-6.5 8T150 71q-6 0-10.5-3t-6.5-8q-5-12-16-19t-25-7H44q-18 0-31 13T0 78v23q0 12 6 22t17 15q2 1 2 4v123q0 19 9.5 34.5t25 25Q75 334 94 334h37q8 0 13.5-5.5T150 315q0-8-5.5-13.5T131 296H94q-13 0-22-9t-9-22V142q0-12-6.5-22T40 105q-2-1-2-4V78q0-3 1.5-5t4.5-2h48q5 0 6 4 7 15 21 24.5t31 9.5q17 0 31-9.5T202 75q1-4 6-4h48q3 0 4.5 2t1.5 5v23q0 2-2 4-10 5-16.5 15t-6.5 22v36q0 8 5.5 13t13.5 5q8 0 13.5-5t5.5-13v-36q0-2 2-4 11-5 17-15t6-22V78q0-18-13-31t-31-13zm24 201q-49-19-97-37-7-2-14-.5t-12 6.5q-5 5-6.5 12t1.5 14l36 96q2 3 5 5.5t6 2.5h1q8 0 11-7l23-46 47-23q3-2 5-5t1.5-7q-.5-4-2.5-7t-6-4h1z"/></svg>