<svg viewBox="0 0 300 368" xmlns="http://www.w3.org/2000/svg"><path d="M150 34q-27 0-52.5 10.5T53 74q-27 27-36 62.5t.5 71.5Q27 244 53 270l47 43q14 14 32 18.5t36 0q18-4.5 32-17.5l47-44q27-27 36-62.5t0-71Q274 101 247 74q-19-19-44.5-29.5T150 34zm71 209l-47 44q-10 9-24 9t-24-10l-47-43q-19-19-25.5-45t0-52Q60 120 79 101q14-14 32.5-22t38.5-8q20 0 38.5 8t32.5 22q19 19 25.5 45t0 51.5Q240 223 221 243zm-8-82v48q0 5-4 8.5t-9 3.5h-12q-6 0-9.5-3.5T175 209v-25q0-5-3.5-9t-8.5-4h-25q-6 0-9.5 4t-3.5 9v25q0 5-3.5 8.5T112 221h-12q-5 1-8.5-3t-3.5-9v-48q0-7 2.5-12t7.5-9l38-26q6-4 14-4t14 4l38 26q5 4 7.5 9t3.5 12z"/></svg>