<svg viewBox="0 0 300 368" xmlns="http://www.w3.org/2000/svg"><path d="M230 305q3 7 0 14t-10 10q-13 5-26 5H69q-19 0-34.5-9.5t-25-25Q0 284 0 265V103q0-19 9.5-34.5t25-25Q50 34 69 34h79q29 0 49 20l33 33q15 16 19 38 1 7-3.5 13.5T234 147h-71q-11 0-18-7.5t-7-17.5V72H69q-13 0-22.5 9T37 103v162q1 13 10 22.5t22 9.5h125q6 0 12.5-3t13.5 0q7 3 10 11zm-100-46l21-72q2-7 7.5-11t12.5-4.5q7-.5 12.5 4T191 187l21 72q1 4-1 7.5t-6 4.5h-3q-3 0-5.5-1.5T193 264l-3-10h-37l-3 10q-2 4-5.5 6t-7.5 1q-4-1-6-4.5t-1-7.5zm29-25h25l-12-42-13 42zm106-13l21-34q2-4 1-8t-4.5-6q-3.5-2-7.5-1t-6 4l-16 26-16-26q-2-3-6-4t-7.5 1q-3.5 2-4.5 6t1 8l21 34-21 35q-2 4-1 8t4 6q3 2 6 2 5 0 8-5l16-26 16 26q3 5 8 5 3 0 6-2t4-6q1-4-1-8l-21-35zm-165 50q4 0 7-2.5t3-7.5v-70h17q5 0 7.5-2.5t2.5-7q0-4.5-2.5-7.5t-7.5-3H73q-5 0-7.5 3t-2.5 7.5q0 4.5 2.5 7T72 191h18v70q0 5 3 7.5t7 2.5z"/></svg>