<svg viewBox="0 0 300 368" xmlns="http://www.w3.org/2000/svg"><path d="M300 221q0-37-24-75h5q8 0 13.5-5t5.5-13q0-8-5.5-13.5T281 109H19q-8 0-13.5 5.5T0 128q0 8 5.5 13t13.5 5h5Q0 184 0 222q0 18 8 35.5T31 289q-3 7-11.5 7.5t-14 6Q0 308 0 315.5t5.5 13Q11 334 19 334q11 0 23-5.5T61 312q40 22 89 22t89-22q7 11 19 16.5t23 5.5q8 0 13.5-5.5T300 315q0-8-5.5-13t-14-5.5Q272 296 270 289q14-14 22-31.5t8-36.5zm-262 0q-1-21 12-45 9-16 21-29h158q12 13 21 29 12 24 12.5 44.5t-15 38Q232 276 206 286t-56 10q-30 0-56-10t-41.5-27.5Q37 241 37 222l1-1zM88 53q0-8 5-13.5t13-5.5q8 0 13.5 5.5T125 53q0 8-5.5 13T106 71q-8 0-13.5-5T87 53h1zm87 12q0-8 5.5-13.5T194 46q8 0 13.5 5.5T213 65q0 8-5.5 13.5T194 84q-8 0-13.5-5.5T175 65z"/></svg>