<svg viewBox="0 0 300 368" xmlns="http://www.w3.org/2000/svg"><path d="M164 220l-1 2q-6 5-6 13t5.5 13.5Q168 254 176 254t13-6l88-87q5-6 5-13.5t-5.5-13q-5.5-5.5-13-5.5t-13.5 5l-3 4-69-68 4-4q5-5 5-13t-5-13.5q-5-5.5-13-5.5t-14 6l-87 87q-6 6-6 13.5t5.5 13Q73 159 81 159t14-5l1-2 21 21L6 283q-6 6-6 13.5t5.5 13q5.5 5.5 13 5.5t13.5-5l112-111 20 21zM152 96l68 68-29 29-68-68 29-29zm148 219q0 8-5.5 13.5T281 334H131q-8 0-13.5-5.5t-5-12.5q.5-7 4-12t9.5-7q1-11 10-18.5t20-7.5h100q12 0 20.5 7.5T287 297q6 2 9.5 7t3.5 11z"/></svg>