<svg viewBox="0 0 300 368" xmlns="http://www.w3.org/2000/svg"><path d="M268 277q-22 27-52.5 42T150 334q-41 0-75.5-20T20 259.5Q0 225 0 184t20-75.5Q40 74 74.5 54T150 34q43 0 80 23.5t56 62.5q3 7 .5 14.5T277 145q-7 3-14.5.5T252 136q-14-29-42-46.5t-59.5-18q-31.5-.5-57 15t-40.5 41Q38 153 37.5 184t15 56.5q15.5 25.5 41 41T150 297q26-1 49-12t39-31q5-6 13-7t14 3.5q6 4.5 7 12.5t-4 14zm7-106h-87q-11 0-18 7.5t-7 18q0 10.5 7 17.5t18 7h87q10 0 17.5-7t7.5-17.5q0-10.5-7.5-18T275 171zm-175 87q5 0 9-2 13-8 26-10 7-1 11.5-7.5t3-14q-1.5-7.5-7.5-12t-14-3.5q-19 4-37 14-7 4-9 11.5t2 14.5q2 4 6.5 6.5t9.5 2.5zm75-124q0 10 7.5 17.5T200 159q10 0 17.5-7.5T225 134q0-10-7.5-17.5T200 109q-10 0-17.5 7.5T175 134zm-50 0q0-10-7.5-17.5T100 109q-10 0-17.5 7.5T75 134q0 10 7.5 17.5T100 159q10 0 17.5-7.5T125 134z"/></svg>