<svg viewBox="0 0 300 368" xmlns="http://www.w3.org/2000/svg"><path d="M279 226q-20-20-53.5-31t-75-11q-41.5 0-76 11.5T21 226q-10 10-15.5 23T0 276l1 19q0 16 11.5 27.5T40 334l31-4q15 0 26-11t12-26v-2q20-7 41-7t41 8v1q1 15 12 26t26 11l31 4q16 0 27.5-11t11.5-27l1-21q0-14-5.5-26.5T279 226zm-17 69q0 1-2 1l-27-3q-3 0-3.5-1t-.5-3l-3-15q-3-10-11-14-31-13-65-13t-65 14q-9 4-11 13l-3 15q0 2-.5 3t-3.5 1l-27 3q-2 0-2-2v-19q0-13 9-22 14-14 42-22.5t61-9q33-.5 60.5 8T253 253q9 9 10 21l-1 21zM38 102V46q0-5 3.5-8.5T50 34h56q4 0 7 2t4.5 5.5q1.5 3.5.5 7.5t-3 6l-14 14 55 51 75-69q6-4 13.5-4t12.5 6q5 6 5 13.5T256 79l-76 71q-10 9-24 9t-24-10L75 95l-16 16q-3 3-6.5 3.5t-7-.5q-3.5-1-5.5-4.5t-2-7.5z"/></svg>