<svg viewBox="0 0 300 368" xmlns="http://www.w3.org/2000/svg"><path d="M194 34h-9q-8 0-13.5 5.5T166 53q1 4-1.5 8t-6.5 6.5q-4 2.5-8 2.5t-8-2.5q-4-2.5-6.5-6.5t-1.5-8q0-8-5.5-13.5T115 34h-9q-18 0-34 9.5t-25 25Q38 84 37 103v187q1 18 13.5 31T81 334h34q8 0 13.5-5.5T134 315q-1-4 1.5-8t6.5-6.5q4-2.5 8-2.5t8 2.5q4 2.5 6.5 6.5t1.5 8q0 8 5.5 13.5T185 334h34q18 0 31-13t13-31V103q-1-19-10-34.5t-25-25Q212 34 194 34zm25 262h-18q-6-16-20-25.5t-31-9.5q-17 0-31 9.5T99 297H81q-2 0-4-2t-2-5v-56h6q8 0 13.5-5.5T100 215q0-8-5.5-13T81 196h-6v-93q0-11 7-19.5T100 72q6 16 19.5 25.5T150 107q17 0 30.5-9.5T200 72q11 3 18 11.5t7 19.5v93h-6q-8 0-13.5 5.5T200 215q0 8 5.5 13.5T219 234h6v56q0 3-2 4.5t-4 1.5zm-75-100h12q8 0 13.5 5.5T175 215q0 8-5.5 13.5T156 234h-12q-8 0-13.5-5.5T125 215q0-8 5.5-13t13.5-6z"/></svg>