<svg viewBox="0 0 300 368" xmlns="http://www.w3.org/2000/svg"><path d="M300 103v162q0 19-9.5 34.5t-25 25Q250 334 231 334h-50q-8 0-13.5-5.5t-5-13.5q.5-8 5.5-13t13-5h50q13-1 22-10t9-22V103q1-13-8.5-22T231 72h-87q-13-1-22 8.5T112 103v25q0 8-5 13.5T94 147q-8 0-13.5-5.5T75 128v-25q0-19 9.5-34.5t25-25Q125 34 144 34h87q19 0 34.5 9.5t25 25Q300 84 300 103zm-81-7h-63q-8 0-13.5 5.5T137 115q0 8 5.5 13.5T156 134h63q8 0 13.5-5.5T238 115q0-8-5.5-13.5T219 96zm-6 82q-1-8-6-13.5t-13-5.5h-38q-8 0-13.5 5.5T137 178q0 8 5.5 13t13.5 6h38q8 0 13-5.5t6-13.5zm-25 75q0 13 9 22t22 9q13 0 22-9t9-22q0-13-9-22t-22-9.5q-13-.5-22.5 9T187 253h1zm-63 45v-8q0-13-9-22t-22-9H82q18-45 18-57.5T91 180q-9-9-22-9t-22 9q-9 9-9 21.5T56 259H44q-13 0-22 9t-9 22v7q-6 2-9.5 7T0 316q0 7 5.5 12.5T18 334h101q8 0 13.5-5.5T138 316q0-7-3.5-11.5T125 298z"/></svg>