<svg viewBox="0 0 300 368" xmlns="http://www.w3.org/2000/svg"><path d="M271 164q7-14 7-28 0-18-8.5-32.5T246 80q-15-9-32-9t-31.5 8.5q-14.5 8.5-23 23T150 134h-50q-27 0-50 13.5T13.5 184Q0 207 0 234t13.5 50Q27 307 50 320.5t50 13.5h100q27 0 50-13.5t36.5-36.5q13.5-23 13.5-50 0-20-7.5-38T271 164zm-57-55q11 0 19 8t8 19q0 11-8 18.5t-19 7.5q-11 0-18.5-7.5T188 136q0-11 7.5-19t18.5-8zm-14 187H100q-17 1-31.5-7.5t-22.5-23Q38 251 37.5 234t8-31.5Q54 188 68.5 180t31.5-8h61q9 12 23 20t30 8q16 0 31-9 18 18 18 43-1 17-9 31.5T231.5 288q-14.5 8-31.5 8zm-37-81q0 8-5.5 13.5T144 234h-44q0 1 1 1 7 3 10 10t1 13.5q-2 6.5-7 10T94 272q-3 0-6-2-12-3-18.5-13.5T63 234q-1-16 10-27t27-11h44q8 0 13.5 5.5T163 215zM75 65q0-13 9-22t22-9q13 0 22.5 9t9.5 22q0 13-9.5 22.5t-22.5 9Q93 96 84 87t-9-22zm188-12q0-8 5-13.5t13-5.5q8 0 13.5 5.5T300 53q0 8-5.5 13T281 71q-8 0-13-5t-5-13z"/></svg>