<svg viewBox="0 0 300 368" xmlns="http://www.w3.org/2000/svg"><path d="M295 273l-34 33q-13 14-30.5 21t-36 7q-18.5 0-36-7T127 306l-22-22q-5-5-9-11-10-12-15.5-26T75 218v-72q0-11 9-18.5t20-5.5q9 1 15 8.5t6 17.5v5l39-39q6-5 13.5-5t13 5.5q5.5 5.5 5.5 13t-5 13.5l-60 59q-12 12-12 28.5t12 28.5l23 23q16 16 40 16t41-16l33-34q6-5 13.5-5t13 5.5Q300 252 300 260t-5 13zM194 163q-6 6-6 13.5t5.5 13Q199 195 207 195t13-5l38-37q5-6 5-13.5t-5.5-13Q252 121 244 121t-13 5l-37 37zm40 66q6 5 14 5t13-5l33-34q6-5 6-13t-5.5-13.5Q289 163 281 163t-13 6l-33 33q-6 6-6 13.5t5 13.5zM69 271q-19-22-19-51v-72q0-10-6-17.5T29 122q-11-2-20 5.5T0 146v72q0 15 5.5 29T21 273q4 6 9 11l39 45q6 5 13.5 5t13-5.5q5.5-5.5 5.5-13T96 302l-27-31zM219 84q8 0 13-5.5t5.5-13.5q.5-8-5-13.5T219 46q-8 0-13.5 5.5T200 65q0 8 5.5 13.5T219 84zM108 97q12 2 22 9 7-9 7-22v-4q6 4 13 4 10 0 17.5-7.5T175 59q0-10-7.5-17.5T150 34q-10 0-17 6.5T125 56q-11-10-26-10T73 57Q62 68 62 84q0 12 8 22 17-13 38-9z"/></svg>