<svg viewBox="0 0 300 368" xmlns="http://www.w3.org/2000/svg"><path d="M150 34q-41 0-75.5 20T20 108.5Q0 143 0 184t20 75.5Q40 294 74.5 314t75.5 20q41 0 75.5-20t54.5-54.5q20-34.5 20-75.5t-20-75.5Q260 74 225.5 54T150 34zm0 262q-31 0-56.5-15t-41-40.5Q37 215 37.5 184T53 127.5q15-25.5 40.5-41T150 71q31 0 56.5 15.5t41 41q15.5 25.5 15 56.5T247 240.5Q232 266 206.5 281T150 297v-1zm33-145q5 5 13 5t13.5-5.5q5.5-5.5 5.5-13t-6-13.5q-16-16-38-21.5t-43.5 0Q106 108 89.5 124t-22 38q-5.5 22 0 44t22 38q16.5 16 38 21.5t43.5 0q22-5.5 38-21.5 6-6 6-13.5t-5.5-13Q204 212 196 212t-13 5q-14 14-33.5 14T116 217.5Q102 204 102 184t14-33.5q14-13.5 33.5-13.5t32.5 14h1z"/></svg>