<svg viewBox="0 0 300 368" xmlns="http://www.w3.org/2000/svg"><path d="M194 203h-28q-7 6-17 6t-17-7q-7-7-7-17t6-17v-47q0-7 5.5-12.5T150 103q8 0 13.5 5.5T169 122v43h25q8 0 13.5 5.5T213 184q0 8-5.5 13.5T194 203zM150 34q-8 0-13.5 5.5T131 53q0 8 5.5 13.5T150 72q31 0 56.5 15t40.5 40.5q15 25.5 16 56.5 0 8 5 13.5t13 5.5q8 0 13.5-5.5T300 184q0-41-20-75.5T225.5 54Q191 34 150 34zM38 190q0-8-5.5-13.5T19 171q-8 0-13.5 5.5T0 190q0 8 5.5 13.5T19 209q8 0 13.5-5.5T38 190zM84 58q-8 0-13 5.5t-5 13q0 7.5 5 13T84 95q8 0 13.5-5.5t5.5-13q0-7.5-5.5-13T84 58zm-48 48q-7 0-12.5 5.5t-5.5 13q0 7.5 5.5 13t13 5.5q7.5 0 13-5.5t5.5-13q0-7.5-5.5-13T36 106zm48 179q-8 0-13 5.5T66 304q0 8 5 13.5t13 5.5q8 0 13.5-5.5T103 304q0-8-5.5-13.5T84 285zm-48-48q-7 0-12.5 5.5T18 256q0 8 5.5 13.5t13 5.5q7.5 0 13-5.5T55 256q0-8-5.5-13.5T36 237zm114 59q-8 0-13.5 5.5T131 315q0 8 5.5 13.5T150 334q8 0 13.5-5.5T169 315q0-8-5.5-13.5T150 296zm114-65q-8 0-13.5 5.5T245 250q0 8 5.5 13t13.5 5q8 0 13.5-5t5.5-13q0-8-5.5-13.5T264 231zm-48 48q-8 0-13.5 5.5t-5.5 13q0 7.5 5.5 13t13 5.5q7.5 0 13-5.5t5.5-13q0-7.5-5.5-13T216 279z"/></svg>