<svg viewBox="0 0 300 368" xmlns="http://www.w3.org/2000/svg"><path d="M0 128v-25q0-19 9.5-34.5t25-25Q50 34 69 34h25q8 0 13.5 5.5T113 53q0 8-5.5 13T94 71H69q-13 0-22 9.5T38 103v25q0 8-5.5 13T19 146q-8 0-13.5-5T0 128zm94 168H69q-13 0-22-9t-9-22v-25q0-8-5.5-13.5T19 221q-8 0-13.5 5.5T0 240v25q0 19 9.5 34.5t25 25Q50 334 69 334h25q8 0 13.5-5.5T113 315q0-8-5.5-13.5T94 296zm187-75q-8 0-13 5.5t-5 13.5v25q0 13-9.5 22t-22.5 9h-25q-8 0-13 5.5t-5 13.5q0 8 5 13.5t13 5.5h25q19 0 34.5-9.5t25-25Q300 284 300 265v-25q0-8-5.5-13.5T281 221zM231 34h-25q-8 0-13 5.5T188 53q0 8 5 13t13 5h25q13 0 22.5 9.5T263 103v25q0 8 5 13t13 5q8 0 13.5-5t5.5-13v-25q0-19-9.5-34.5t-25-25Q250 34 231 34zm-36 214q3-2 4-5.5t0-7.5l-11-34 27-22q2-2 3-5.5t0-7q-1-3.5-4-5.5t-7-2h-34l-12-33q-1-3-4-5t-7-2q-4 0-7 2t-4 5l-12 33H93q-4 0-7 2t-4 5.5q-1 3.5 0 7t3 5.5l28 22-11 35q-1 3 0 6.5t4 6q3 2.5 6.5 2.5t6.5-2l31-21 32 20q3 2 6.5 2t6.5-2z"/></svg>