<svg viewBox="0 0 300 368" xmlns="http://www.w3.org/2000/svg"><path d="M219 34H81q-18 0-34 9.5t-25 25Q13 84 13 103v162q0 19 9 34.5t25 25q16 9.5 34 9.5h138q18 0 34-9.5t25.5-25Q288 284 288 265V103q0-19-9.5-34.5t-25.5-25Q237 34 219 34zm31 231q0 13-9 22t-22 9H81q-13 0-22-9t-9-22V103q0-13 9-22.5T81 71h138q13 0 22 9.5t9 22.5v162zM81 121q-8 1-13-4.5T63 103q0-8 5-13.5T81 84q8 0 13.5 5.5T100 103q0 8-5.5 13.5T81 122v-1zm32-18q-1-8 4.5-13.5T131 84q8 0 13.5 5.5T150 103q0 8-5.5 13.5T131 122q-8 0-13.5-5.5T112 103h1zm37 31q-20 0-37.5 10T85 171.5Q75 189 75 209t10 37.5Q95 264 112.5 274t37.5 10q20 0 37.5-10t27.5-27.5q10-17.5 10-37.5t-10-37.5Q205 154 187.5 144T150 134zm-20 97q0 3 3 6t3.5 6.5q.5 3.5-1.5 7.5-2 6-8.5 7t-10.5-3q-9-9-11-20-1-7 2-16 2-7 7-16 7-12 6.5-15.5t-3.5-6q-3-2.5-3.5-6.5t1.5-8q2-6 8.5-7t10.5 3q9 9 11 20 1 7-2 16-2 7-7 16-7 12-6 16zm50 0q0 3 3 6t3.5 6.5q.5 3.5-1.5 7.5-2 6-8.5 7t-10.5-3q-9-9-11-20-1-7 2-16 2-7 7-16 7-12 6.5-15.5t-3.5-6q-3-2.5-3.5-6.5t1.5-8q2-6 8.5-7t10.5 3q9 9 11 20 1 7-2 16-2 7-7 16-7 12-6 16z"/></svg>