<svg viewBox="0 0 300 368" xmlns="http://www.w3.org/2000/svg"><path d="M212 296q23-4 39-20.5t19-39.5l1-15q14 0 21.5-9.5T300 191q0-14-21-53-18-33-31-49-23-31-59-45t-75-8q-39 6-69 33.5T5 135q-9 31-2 63t27 58q8 10 8 20v14q0 18 12.5 31T81 334h88q16 0 28.5-11t14.5-27zm7-184q8 11 21.5 34t19.5 38h-5q-7 0-12.5 4.5T236 200l-4 31q-1 12-10 20t-21 8h-7q-8 0-13.5 5.5T175 278v12q0 3-2 4.5t-4 1.5H81q-2 0-4-1.5t-2-4.5v-14q0-23-15-43-13-16-18-34-8-27-.5-54.5T71 97q22-20 50-24 9-2 17-2 23 0 44.5 11t36.5 30z"/></svg>