<svg viewBox="0 0 300 368" xmlns="http://www.w3.org/2000/svg"><path d="M169 165v50q0 8-5.5 13.5T150 234q-8 0-13.5-5.5T131 215v-50q0-8 5.5-13t13.5-5.5q8-.5 13.5 5T169 165zm-19 81q-8 0-13.5 5.5T131 265q0 8 5.5 13.5T150 284q8 0 13.5-5.5T169 265q0-8-5.5-13.5T150 246zm125-110v129q0 19-9.5 34.5t-25 25Q225 334 206 334H94q-19 0-34.5-9.5t-25-25Q25 284 25 265V103q0-19 9.5-34.5t25-25Q75 34 94 34h79q29 0 49 20l33 33q20 20 20 49zm-37 129V146h-50q-11 0-18-7t-7-18V71H94q-13 0-22.5 9.5T63 103v162q0 13 9 22t22 9h112q13 0 22.5-9t9.5-22z"/></svg>