<svg viewBox="0 0 300.0017 368" xmlns="http://www.w3.org/2000/svg"><path d="M300 157q1-24-8-47.5T265 69q-21-20-48-29t-55.5-5Q133 39 109 55 96 40 76 35.5t-39 4Q18 48 8 65.5t-7.5 38Q3 124 16.5 139T50 158q-1 33 14 64 2 3-1 7l-48 33q-9 8-13 19t-1 22.5Q4 315 12.5 323t20 10.5q11.5 2.5 22.5-2T73 318l32-47q3-3 7-1 27 13 56 14 7 1 15-1 22-1 42-10.5t36-25.5q18-18 28-41t11-49zM38 96q0-10 7-17t17.5-7.5q10.5-.5 18 7t7.5 18q0 10.5-7.5 17.5t-18 7Q52 121 45 114t-7-18zm154 148l-95-95q13-9 20.5-23t7.5-30l-1-6q17-13 38-17t41 2q20 6 36 20 12 12 18 28t5.5 33.5q-.5 17.5-8 34.5T234 220q-17 18-42 24z"/></svg>