<svg viewBox="0 0 300 368" xmlns="http://www.w3.org/2000/svg"><path d="M231 34h-58q-18 0-31 13l-23 23q-2 1-4 1H88v-6q0-8-5.5-13.5T69 46q-8 0-13.5 5.5T50 65v9q-22 6-36 24.5T0 140v125q0 19 9.5 34.5t25 25Q50 334 69 334h162q19 0 34.5-9.5t25-25Q300 284 300 265V103q0-19-9.5-34.5t-25-25Q250 34 231 34zM69 109h46q18 0 31-13l22-23q2-1 5-1h58q13 0 22 9t9 22v81h-46q-6-22-24.5-36T150 134q-23 0-41.5 14T84 184H37v-44q0-13 9.5-22t22.5-9zm112 94q0 13-9 22t-22 9q-13 0-22-9t-9-22q0-13 9-22.5t22-9q13 .5 22 9.5t9 22zm50 93H69q-13 0-22-9t-9-22v-44h46q6 22 24.5 36.5T150 272q23 0 41.5-14.5T216 221h47v44q0 13-9.5 22t-22.5 9z"/></svg>