<svg viewBox="0 0 300 368" xmlns="http://www.w3.org/2000/svg"><path d="M281 84q-3 0-5 1l19-19q5-5 5-13t-5.5-13.5Q289 34 281 34t-13 5l-19 19q1-2 1-5 0-8-5.5-13.5T231 34q-8 0-13 5.5T213 53q0 8 5 13t13 5h6l-36 35q-30-22-68-22h-7q-14 1-24 10t-13 22.5Q86 130 76 140q-14 14-33 15-12 0-22 7T7 180q-7 19-7 37 0 38 22 68L5 302q-5 5-5 13t5.5 13.5Q11 334 19 334t13-5l17-17q30 22 68 22 18 0 37-7 11-4 18-14.5t7-23.5q0-20 15-34 10-10 24-13t23-13.5q9-10.5 9-24.5v-3q0-38-22-68l35-36v6q0 7 5.5 12.5t13 5.5q7.5 0 13-5t5.5-13q0-8-5.5-13.5T281 84zm-68 117l-1 2q0 1-2 2-25 5-43 23-12 13-18.5 28.5T142 289q0 2-1 3-12 4-24 4-22 0-41-11l6-7q6-5 6-13t-5.5-13.5Q77 246 69 246t-13 6l-7 6q-11-19-11-41 0-12 4-24 1-1 2-1 17 0 32-6.5t27-18.5q18-18 23-43 1-2 2-2l5-1q22 0 41 12l-56 56q-6 6-6 14t5.5 13q5.5 5 13.5 5t14-5l56-56q12 19 12 41z"/></svg>