<svg viewBox="0 0 300.0074 368" xmlns="http://www.w3.org/2000/svg"><path d="M263 72h-1v-1q-27-26-64.5-34t-77 4.5Q81 54 50.5 84.5t-43 70Q-5 194 3 232t35 64q18 19 42.5 28.5T131 334q32 0 63-13t55-38q23-22 36-49.5t15-57.5q2-30-7.5-57T263 72zM64 270q0-4 1-10 2-9 8-21 18-36 57-75t75-57q12-6 21-8 6-1 10-1 0 4-1 10-2 9-8 21-18 36-57 75t-75 57q-12 6-21 8-6 1-10 1zm13-159q24-23 54-33t58-4h-1q-41 21-84 64t-64 84v1q-6-28 4-58t33-54zm185 62q-1 23-11.5 44.5T223 257q-24 23-54 33t-58 5l1-1q41-21 84-64t64-84v-1q3 14 2 28z"/></svg>