<svg viewBox="0 0 300 368" xmlns="http://www.w3.org/2000/svg"><path d="M100 209q0-15 8.5-28t22.5-18V71q0-15 11-26t27-11h25q8 0 13.5 5.5T213 53q0 8-5.5 13.5T194 72h-25v24h25q8 1 13.5 6t5.5 13q0 8-5.5 13.5T194 134h-25v29q17 7 25.5 23.5t4 35q-4.5 18.5-20.5 29t-34.5 8q-18.5-2.5-31-16.5T100 209zm172 85q-6 3-12 2.5t-11-4.5q-11-8-24-8t-24 8q-6 4-13.5 4t-13.5-4q-11-8-24-8t-24 8q-6 4-13.5 4T99 292q-11-8-24-8t-24 8q-5 4-11 4.5t-12.5-3q-6.5-3.5-14-1.5t-11 9Q-1 308 1 315.5T9 327q15 8 32.5 7T73 323q2-2 5 0 15 11 34.5 11t35.5-11q2-2 5 0 15 11 34.5 11t35.5-11q2-2 5 0 13 10 30.5 11t32.5-7q6-4 8-11.5t-1.5-14.5q-3.5-7-11-9t-14.5 2zm-44-47q13 10 30.5 11.5T291 251q6-4 8-11.5t-1.5-14Q294 219 286 217t-14 1.5q-6 3.5-12 2.5t-11.5-4.5q-5.5-3.5-13-2t-12 7.5q-4.5 6-3 13.5T228 247zM9 251q15 9 32.5 7.5T72 247q6-4 7-11.5T76 222q-4-6-11.5-7.5t-13 2q-5.5 3.5-11.5 4T27.5 218q-6.5-3-14-1t-11 8.5Q-1 232 1 239.5T9 251z"/></svg>