<svg viewBox="0 0 300 368" xmlns="http://www.w3.org/2000/svg"><path d="M144 271h-12l-20-36q-7-12-18.5-19T68 209H38q-16 0-27 11T0 246v38q0 7 3.5 13t9.5 9q0 3-1 6 1 9 7 15.5t15 6.5q9 0 15.5-6.5T56 312v-3h38v3q0 9 6.5 15.5T116 334q9 0 15.5-6.5T137 312v-3h7q8 0 13.5-5.5T163 290q0-8-5.5-13t-13.5-5v-1zm-106 0v-25h30q8 0 11 7l10 18H38zm175-131V53q0-8 5-13.5t13-5.5q13 0 24 5l39 15q6 4 6 11t-6 11l-44 21v43q0 8-5.5 13.5T231 159q-8 0-13.5-5.5T212 140h1zm87 113q0 23-16.5 39.5T244 309h-38q-8 0-13.5-5.5T187 290q0-8 5.5-13.5T206 271h38q8 1 13.5-4.5T263 253q0-8-5.5-13.5T244 234h-75q-24 0-40-16.5t-16-40q0-23.5 16-40t40-16.5q8 0 13.5 5.5T188 140q0 8-5.5 13.5T169 159t-13.5 5.5Q150 170 150 178t5.5 13q5.5 5 13.5 5h75q23 0 39.5 16.5T300 253z"/></svg>