<svg viewBox="0 0 300 368" xmlns="http://www.w3.org/2000/svg"><path d="M300 103v100q0 18-9.5 34t-25 25q-15.5 9-34.5 9h-62v25h37q8 0 13.5 5.5T225 315q0 8-5.5 13.5T206 334H94q-8 0-13.5-5.5T75 315q0-8 5.5-13.5T94 297h37v-26H69q-19 0-34.5-9t-25-25Q0 221 0 203V103q0-24 14.5-42.5T52 36q7-2 13.5 2T74 49.5Q76 57 72 64t-11 8q-10 3-16.5 11.5T37 103v100q1 13 10 22t22 9h162q13 0 22-9t9-22V103q1-11-6-19.5T239 72q-7-1-11-8t-2-14.5q2-7.5 8.5-11.5t13.5-2q23 6 37.5 24.5T300 103zM92 121l3-1q-1-6-1-11t1-11l-3-1q-7-4-9-11.5T85 71q4-7 11.5-9t14.5 2l3 2q8-6 17-10v-3q0-8 5.5-13.5T150 34q8 0 13.5 5.5T169 53v3q9 4 17 10l3-2q7-4 14.5-2t11.5 9q4 7 2 14.5T208 97l-3 1q1 6 1 11t-1 11l3 1q7 4 9 11.5t-2 14.5q-3 4-7.5 6.5T198 156q-5 0-9-2l-3-2q-8 6-17 10v3q0 8-5.5 13.5T150 184q-8 0-13.5-5.5T131 165v-3q-9-4-17-10l-3 2q-4 2-9 2t-9.5-2.5Q88 151 85 147q-4-7-2-14.5t9-11.5zm58 7q8 0 13.5-5.5T169 109q0-8-5.5-13.5T150 90q-8 0-13.5 5.5T131 109q0 8 5.5 13.5T150 128z"/></svg>