<svg viewBox="0 0 300 368" xmlns="http://www.w3.org/2000/svg"><path d="M100 171q-10 0-17.5-7T75 146.5q0-10.5 7.5-18T100 121q10 0 17.5 7.5t7.5 18q0 10.5-7.5 17.5t-17.5 7zm125-25q0-10-7.5-17.5T200 121q-10 0-17.5 7.5t-7.5 18q0 10.5 7.5 17.5t17.5 7q10 0 17.5-7t7.5-18zM150 34q-41 0-75.5 20T20 108.5Q0 143 0 184t20 75.5Q40 294 74.5 314t75.5 20q34 0 64-14 7-4 10-11t-.5-14q-3.5-7-11-10t-14.5 1q-23 10-48 10-30 1-56-14.5t-41-41Q38 215 38 184t15-56.5q15-25.5 40.5-41t56.5-15q31 .5 56.5 15.5t40.5 40.5q15 25.5 16 56.5l-1 5q0 8 5 14t13 6q8 0 13.5-5t6.5-13v-7q0-41-20-75.5T225.5 54Q191 34 150 34zM75 215v13q0 8 5.5 13.5t13.5 5q8-.5 13.5-5.5t5.5-13v-13q-1-8-6-13.5t-13-5q-8 .5-13.5 5.5T75 215zm69 31q8 0 13.5-5t5.5-13v-13q0-8-5.5-13.5t-13.5-5q-8 .5-13.5 5.5t-5.5 13v13q0 8 5.5 13.5T144 247v-1zm31-31v13q0 8 5.5 13.5t13.5 5q8-.5 13.5-5.5t5.5-13v-13q0-8-5.5-13t-13.5-5q-8 0-13.5 5t-5.5 13zm61 7q-4 0-6.5 2.5T227 231q0 1 2 9 2 11 6 20 4 11 10 17 7 7 17.5 7t17.5-7.5q7-7.5 7-17.5t-7-17q-7-7-22.5-13.5T236 222z"/></svg>