<svg viewBox="0 0 300.0134 368" xmlns="http://www.w3.org/2000/svg"><path d="M10 253q15 8 32 7t31-11q3-2 5 0 16 11 35.5 11t34.5-11q3-2 5 0 16 11 35.5 11t34.5-11q3-2 5 0 14 10 31.5 11t32.5-7q6-4 8-11.5t-2-14q-4-6.5-11.5-8.5t-13.5 1q-6 3-12 2.5t-11-3.5q-11-8-24-8t-24 8q-6 4-13.5 4t-13.5-4q-11-8-24-8t-24 8q-6 4-13.5 4t-13.5-4q-11-8-24-8t-24 8q-5 3-11 3.5T28.5 220q-6.5-3-14-1t-11 8.5Q0 234 2 241.5t8 11.5zm262 41q-6 3-12 2.5t-11-4.5q-11-8-24-8t-24 8q-6 4-13.5 4t-13.5-4q-11-8-24-8t-24 8q-6 4-13.5 4T99 292q-11-8-24-8t-24 8q-5 4-11 4.5t-12.5-3q-6.5-3.5-14-1.5t-11 9Q-1 308 1 315.5T9 326q15 9 32.5 8T72 323q3-2 6 0 15 11 34.5 11t34.5-11q3-2 6 0 15 11 34.5 11t34.5-11q3-2 6 0 13 10 30.5 11t32.5-8q6-3 8-10.5t-1.5-14.5q-3.5-7-11-9t-14.5 2zM44 184h34q10 0 18-6.5t10-16.5q4-15 16-25t28-10q16 0 28 10t16 25q2 10 10 16.5t19 6.5h33q8 0 13.5-5.5T275 165q0-8-5.5-13.5T256 146h-27q-4-12-12-23l25-24q6-6 6-13.5t-5.5-13Q237 67 229 67t-13 5l-27 26q-9-5-20-7V53q0-8-5.5-13.5T150 34q-8 0-13.5 5.5T131 53v38q-11 2-20 7L84 72q-5-5-13-5t-13.5 5.5Q52 78 52 85.5T58 99l25 24q-8 11-12 23H44q-8 0-13.5 5.5T25 165q0 8 5.5 13.5T44 184z"/></svg>