<svg viewBox="0 0 300.0194 368" xmlns="http://www.w3.org/2000/svg"><path d="M273.02 115q-6-36-34.5-58.5T169.02 34q-18 0-36 5-21 5-38 16-35-17-79-21-5 0-10 3.5t-6 9q-1 5.5 3 8.5 27 21 43 50-21 38-21 92 0 37 11 77-13 7-22.5 18.5T.02 318q-1 7 3.5 12t10.5 4q25-4 42-19 9-8 13-15l3 4q4 6 9 11 8 6 17 11 12 6 26 8 6 1 10.5-4t2.5-12q-3-14-13-26t-24-19q2-25 24-56 12-19 32-30 6 11 10 29 1 4 4.5 5t7.5-1q4-2 6-5 9-24 12-42 8-1 16-1h60q12 0 20-8.5t8-20q0-11.5-7.5-19.5t-19.5-9zm-61 19q-36 0-67.5 16.5T93.02 195q-18 26-25 50-5-25-5-49 0-53 23-85 18-24 47-34 18-6 36-6 22 0 37.5 9t23 23.5q7.5 14.5 7.5 30.5h-25z"/></svg>