<svg viewBox="0 0 300 368" xmlns="http://www.w3.org/2000/svg"><path d="M231 46H69q-19 0-34.5 9.5T9.5 81Q0 97 0 115v150q0 19 9.5 34.5t25 25Q50 334 69 334h162q19 0 34.5-9.5t25-25Q300 284 300 265V115q0-18-9.5-34t-25-25.5Q250 46 231 46zm32 219q0 13-9.5 22t-22.5 9H69q-13 0-22-9t-9-22V115q0-13 9-22t22-9h162q13 0 22.5 9t9.5 22v150zm-25-137q0 8-5.5 13t-13.5 5h-75q-8 0-13.5-5t-5.5-13q0-8 5.5-13.5T144 109h75q8 0 13 5.5t5 13.5h1zm-138 0q0 8-5.5 13.5T81 147q-8 0-13-5.5T63 128q0-8 5-13.5t13-5.5q8 0 13.5 5.5T100 128zm138 62q0 8-5.5 13.5T219 209h-75q-8 0-13.5-5.5T125 190q0-8 5.5-13.5T144 171h75q8 0 13 5.5t5 13.5h1zm-138 0q0 8-5.5 13.5T81 209q-8 0-13-5.5T63 190q0-8 5-13.5t13-5.5q8 0 13.5 5.5T100 190zm138 63q0 8-5.5 13.5T219 272h-75q-8-1-13.5-6t-5.5-13q0-8 5.5-13.5T144 234h75q8 0 13 5.5t5 13.5h1zm-138 0q0 8-5.5 13T81 271q-8 0-13-5t-5-13q0-8 5-13.5t13-5.5q8 0 13.5 5.5T100 253z"/></svg>