<svg viewBox="0 0 300 368" xmlns="http://www.w3.org/2000/svg"><path d="M254 186q-6-18-14-35-11-23-15-48 0-3 2-5t4.5-2q2.5 0 4.5 2t2 5q-1 8 4.5 13.5t13.5 5q8-.5 13.5-5.5t5.5-13q0-18-12-30.5T233.5 59q-17.5-1-31 11T188 99l-1 4q1 12 4 24l-46 36-56-42h17q8 0 13.5-5t5.5-13q0-8-5.5-13.5T106 84H68q-10 0-18 6t-11 15.5q-3 9.5 0 19T50 140l64 47-13 10q-17-13-39-13-16 0-30.5 8.5t-23 23Q0 230 0 246.5t8.5 31q8.5 14.5 23 23t31 8.5q16.5 0 31-8.5t23-23Q125 263 125 246q0-9-3-18l83-65 10 25q-21 8-32.5 28.5t-6.5 43q5 22.5 23 37t41 13q23-1.5 40-17t19.5-38.5q2.5-23-10.5-42t-35-25v-1zM63 271q-11 0-18-7t-7-17.5q0-10.5 7-17.5t17.5-7.5q10.5-.5 18 7t7.5 18q0 10.5-7.5 18T63 271zm175 0q-11 0-18-7t-7-17.5q0-10.5 7-17.5t17.5-7.5q10.5-.5 17.5 7t7.5 18q.5 10.5-7 17.5t-18.5 7h1z"/></svg>