<svg viewBox="0 0 300 368" xmlns="http://www.w3.org/2000/svg"><path d="M300 184q0 41-20 75.5T225.5 314Q191 334 150 334q-29 0-55.5-10.5T47 293q-6-5-6-13t5.5-13.5q5.5-5.5 13-6T73 266q16 15 35.5 23t41.5 8q31-1 56.5-16t41-40.5Q263 215 263 184t-15.5-56.5q-15.5-25.5-41-41t-57-15Q118 72 91 88t-41 45q-4 7-11.5 9.5t-14-1q-6.5-3.5-9-11T16 116q20-38 56-60t77.5-22q41.5 0 76 20t54.5 54.5q20 34.5 20 75.5zm-78-38h3q4 0 7.5-2.5t4.5-7q1-4.5-1.5-9T228 122q-9-3-17.5-8.5T198 102q-3-4-8.5-5t-9.5 2q-4 3-5 8t2 9q7 10 19 18t26 12zm-120-44q-4 6-12.5 11.5T72 122q-5 1-7.5 5.5T63 137q1 5 4.5 7.5T75 147l3-1q14-4 26-12t19-18q3-4 2-9t-5-8q-4-3-9.5-2t-8.5 5zm-2 44q-10 0-17.5 7.5t-7.5 18q0 10.5 7.5 17.5t17.5 7q10 0 17.5-7t7.5-17.5q0-10.5-7.5-18T100 146zm100 50q10 0 17.5-7t7.5-17.5q0-10.5-7.5-18t-17.5-7q-10 .5-17.5 7.5t-7.5 17.5q0 10.5 7.5 17.5t17.5 7zM63 215q0-12-9-29-7-14-16-24-2-3-6.5-3t-7.5 3q-8 10-15 24-9 18-9 30t9 21q9 9 22 9t22-9q9-9 9-22h1zm37 18q-1 5 2 9.5t8 3.5h15v8q0 12 7 21t18 9q11 0 18-9t7-21v-8h15q5 0 8-4t1-8q-5-15-18.5-26T150 197q-17 0-30.5 11T100 234v-1z"/></svg>