<svg viewBox="0 0 300 368" xmlns="http://www.w3.org/2000/svg"><path d="M300 184q0 41-20 75.5T225.5 314Q191 334 150 334t-75.5-20Q40 294 20 259.5T0 184q0-8 5.5-13.5T19 165q8 0 13.5 5.5T38 184q0 31 15 56.5t40.5 41q25.5 15.5 56.5 15t56.5-15.5q25.5-15 41-40.5t15-56.5q-.5-31-15.5-56.5T206.5 87Q181 72 150 71q-8 0-13.5-5T131 53q0-8 5.5-13.5T150 34q41 0 75.5 20t54.5 54.5q20 34.5 20 75.5zm-212 0q0 8 5 13.5t13 5.5h28q7 6 17 6t17-7q7-7 7-17t-6-17v-53q0-8-5.5-13.5t-13.5-5q-8 .5-13.5 5.5t-5.5 13v50h-25q-8 0-13 5.5T88 184zm-4-89q8 0 13.5-5.5t5.5-13q0-7.5-5.5-13T84 58q-8 0-13 5.5t-5 13q0 7.5 5 13T84 95zm-48 48q8 0 13.5-5.5t5.5-13q0-7.5-5.5-13t-13-5.5q-7.5 0-13 5.5t-5.5 13q0 7.5 5.5 13T36 143z"/></svg>