<svg viewBox="0 0 300 368" xmlns="http://www.w3.org/2000/svg"><path d="M131 294q-17 0-31-10l-79-58q-10-7-15.5-18.5T0 184q0-12 5.5-23.5T21 142l79-58q11-7 23.5-9t24.5 2q12 4 20.5 13t12.5 21l36-27q12-9 26.5-10t28 5.5q13.5 6.5 21 19T300 126v116q0 15-7.5 27.5t-21 19q-13.5 6.5-28 5.5T217 284l-36-27q-5 17-19 27t-31 10zm0-183q-5 0-8 3l-80 58q-5 5-5 12t5 12l80 58q3 2 7 2.5t7.5-1.5q3.5-2 6-5.5t2.5-7.5v-20q0-5 2.5-9.5t7.5-7q5-2.5 10-2t9 3.5l64 47q4 2 8 2.5t7.5-1.5q3.5-2 5.5-5.5t2-7.5V126q0-4-2-7.5t-5.5-5.5q-3.5-2-7.5-1.5t-8 2.5l-64 47q-4 3-9 3.5t-10-2q-5-2.5-7.5-7T146 146v-20q0-4-2.5-7.5T138 113q-3-2-7-2z"/></svg>