<svg viewBox="0 0 300 368" xmlns="http://www.w3.org/2000/svg"><path d="M281 176q-2-34-22-64t-52-47.5Q175 47 139 47h-1q-5-6-11.5-9.5T113 34H92q-23 0-38.5 16T38 89v190q0 23 15.5 39T92 334h21q7 0 13.5-3.5T138 321h5q29 0 55-11t45.5-31.5q19.5-20.5 29.5-47t8-55.5zm-65 77q-14 15-33 23t-40 8h-18q-6 0-11 3.5t-7 8.5H92q-7 0-12-4.5T75 279v-8h6q8 0 13.5-5t5.5-13q0-8-5.5-13.5T81 234h-6v-31h6q8 0 13.5-5.5T100 184q0-8-5.5-13.5T81 165h-6v-31h6q8 0 13.5-5.5T100 115q0-8-5.5-13.5T81 96h-6v-7q0-8 5-12.5T92 71h15q2 6 7 9.5t11 3.5h14q26 0 49.5 13t38.5 35q15 22 17 46 1 21-6 40.5T216 253zm-66-119q-5 0-9 3.5t-4 8.5v76q1 5 4 8.5t8 3.5q20 0 34-13t17-32q1-11-2.5-21T187 150.5q-7-7.5-16.5-12T150 134z"/></svg>