<svg viewBox="0 0 300 368" xmlns="http://www.w3.org/2000/svg"><path d="M71 34q-18 0-34 9T12 68q-9 16-9 34.5t9 34.5q9 16 25 25.5t34.5 9.5q18.5 0 34.5-9.5t25-25.5q9-16 9-34.5t-9-34q-9-15.5-25-25T71 34zm0 100q-13 0-22-9t-9-22q0-13 9-22t22-9.5q13-.5 22.5 9T103 103q0 13-9.5 22T71 134zm0 62q-18 0-34 9.5T12 231q-9 16-9 34.5t9 34.5q9 16 25 25t34.5 9q18.5 0 34.5-9t25-25q9-16 9-34.5t-9-34.5q-9-16-25-25t-35-10zm0 100q-13 0-22-9t-9-22q0-13 9-22t22-9q13 0 22.5 9t9.5 22q0 13-9.5 22.5T71 297v-1zm214-32h-26V104h26q5 0 8.5-4t3.5-9q0-5-3-9l-45-44q-4-4-9-4t-9 4l-45 44q-3 4-3 9.5t3.5 9q3.5 3.5 8.5 3.5h26v160h-26q-5 0-8.5 4t-3.5 9q0 5 3 9l45 44q4 4 9 4t9-4l45-44q3-4 3-9.5t-3.5-9Q290 264 285 264z"/></svg>