<svg viewBox="0 0 300 368" xmlns="http://www.w3.org/2000/svg"><path d="M284 124q-7-3-14.5-2t-14.5 6l-18 17q-1-7-5-12.5t-10.5-8.5q-6.5-3-14.5-2t-14 6l-18 17q-1-7-5-12.5t-11-8.5q-7-3-14.5-2t-14.5 6l-21 23-19-87q-3-13-13-21.5T54 34H38q-16 0-27 11T0 71v194q0 19 9.5 34.5t25 25Q50 334 69 334h162q19 0 34.5-9.5t25-25Q300 284 300 265V149q0-8-4-14.5T284 124zm-21 141q0 13-9.5 22.5T231 297H69q-13-1-22.5-10T37 265V71h17l26 123q1 5 5 9t9 5.5q5 1.5 10 0t8-5.5l26-28v15q0 6 3 10.5t8 7q5 2.5 10.5 1.5t9.5-5l31-31v17q0 6 3 10.5t8.5 7q5.5 2.5 11 1.5t9.5-5l31-31v92zm-150-19v13q0 5-4 8.5t-9 3.5H88q-6 0-9.5-3.5T75 259v-13q0-5 3.5-8.5T87 234h13q5 0 8.5 3.5t3.5 8.5h1zm62 0v13q0 5-3.5 9t-9.5 3h-12q-5 0-8.5-3.5T138 259v-13q0-5 3.5-8.5t8.5-3.5h13q5 0 8.5 3.5t3.5 8.5zm50-12q5 0 8.5 3.5t3.5 8.5v13q0 5-3.5 9t-8.5 3h-12q-6 0-9.5-3.5T200 259v-13q0-5 3.5-8.5t9.5-3.5h12z"/></svg>