<svg viewBox="0 0 300 368" xmlns="http://www.w3.org/2000/svg"><path d="M194 34h-88q-18 0-34 9.5t-25 25Q38 84 38 103v162q0 19 9 34.5t25 25q16 9.5 34 9.5h88q18 0 34-9.5t25-25q9-15.5 9-34.5V103q1-19-8.5-34.5t-25.5-25Q212 34 194 34zm31 231q0 13-9 22t-22 9h-88q-13 0-22-9t-9-22V103q0-13 9-22t22-9h88q13-1 22 8.5t9 22.5v162zm-25-150q0 8-5.5 13.5T181 134h-62q-8 0-13.5-5.5T100 115q0-8 5.5-13.5T119 96h62q8 0 13.5 5.5T200 115zm0 63q0 8-5.5 13t-13.5 5h-62q-8 0-13.5-5t-5.5-13q0-8 5.5-13.5T119 159h62q8 0 13.5 5.5T200 178zm-37 62q0 8-5.5 13.5T144 259h-25q-8 0-13.5-5.5T100 240q0-8 5.5-13.5T119 221h25q8 0 13.5 5.5T163 240z"/></svg>