<svg viewBox="0 0 300 368" xmlns="http://www.w3.org/2000/svg"><path d="M150 34q-41 0-75.5 20T20 108.5Q0 143 0 184t20 75.5Q40 294 74.5 314t75.5 20q41 0 75.5-20t54.5-54.5q20-34.5 20-75.5t-20-75.5Q260 74 225.5 54T150 34zm0 262q-31 0-56.5-15T53 240.5Q38 215 38 184t15-56.5Q68 102 93.5 87T150 71.5q31-.5 56.5 15t41 41Q263 153 263 184t-15.5 56.5Q232 266 206.5 281T150 296zm88-137q0 10-7.5 17.5t-18 7.5q-10.5 0-17.5-7.5t-7-17.5h-13q-5 0-8.5-3.5t-3.5-9q0-5.5 3.5-9t8.5-3.5h38q10 0 17.5 7.5T238 159zm-125 25q-11 0-18-7.5T88 159H75q-5 0-9-3.5t-3.5-9q.5-5.5 4-9T75 134h38q10 0 17.5 7.5T138 159q0 10-7.5 17.5T113 184zm109 32q4 6 2.5 13.5T216 242q-27 17-54 17h-43q-8 0-13.5-5.5T100 240q0-8 5.5-13t13.5-5h44q15 0 33-12 7-4 14.5-2.5T222 216z"/></svg>