<svg viewBox="0 0 300 368" xmlns="http://www.w3.org/2000/svg"><path d="M275 315q0 8-5.5 13.5T256 334H44q-8 0-13.5-5.5T25 315q0-8 5.5-13.5T44 296h212q8 0 13.5 5.5T275 315zM75 196q0-20 10-37t27.5-27.5Q130 121 150 121t38 11V96h-44q-8 0-13.5-5T125 78q0-8 5.5-13.5T144 59h44v-6q0-8 5-13.5t13-5.5q8 0 13.5 5.5T225 53v6h6q8 0 13.5 5.5T250 78q0 8-5.5 13T231 96h-6v157q0 8-5.5 13t-12 5q-6.5 0-11.5-3t-7-8q-18 11-38.5 11t-38-10Q95 251 85 234t-10-38zm38 0q0 16 11 27t26 11q15 0 26.5-11t11.5-26.5q0-15.5-11.5-26.5T150 159q-15 0-26 11t-11 26z"/></svg>