<svg viewBox="0 0 300 368" xmlns="http://www.w3.org/2000/svg"><path d="M300 265q0-7-5-12.5t-13-5.5l-24-139q-5-26-26-44t-48-18h-68q-27 0-48 18t-26 44L18 247q-8 0-13 5.5T0 265q0 7 3.5 11.5T13 283l1 1q2 16 14.5 26.5T57 321h187q17 1 29.5-10.5T288 283q5-2 8.5-7t3.5-11zM73 146h15q5 0 8.5 4t3.5 9v44q0 8 5.5 13.5T119 222q8 0 13.5-5.5T138 203v-44q0-5 3.5-9t8.5-4q5 0 9 4t4 9v19q0 8 5 13t13 5.5q8 .5 13.5-5T200 178v-19q0-5 3.5-9t9.5-3h14l17 99H56l17-100zm43-62h68q12 0 21.5 7t13.5 18h-6q-18 0-32 11-13-11-31-11t-31 11q-14-11-31-11h-7q4-11 13.5-18t21.5-7z"/></svg>