<svg viewBox="0 0 300 368" xmlns="http://www.w3.org/2000/svg"><path d="M289 60l-15-15q-9-9-23-10.5T225 41l-60 44q-21 16-40 35l-16 16q-22 4-37.5 20.5T51 195l-3 2-33 34Q0 245 0 266t15 35l18 18q14 15 35 15t35-14l37-37q24-5 40.5-23t19.5-43l19-19q14-14 26-29l49-61q7-11 5.5-25T289 60zM59 293l-18-18q-3-4-3-9t3-9l16-16q12 24 36 36l-16 16q-4 4-9 3.5t-9-3.5zm91-71h-12v12q0 5-4 9t-9 4q-5 0-8.5-4t-3.5-9v-12h-13q-5 0-8.5-4t-3.5-9q0-5 3.5-8.5t8.5-3.5h13v-13q0-5 3.5-8.5t8.5-3.5q5 0 9 3.5t4 8.5v13h12q5 0 9 3.5t4 8.5q0 5-4 9t-9 4zm66-77q-11 14-23 26l-2 2q-12-21-34-32 16-15 31-26l58-43q1-1 2 0l14 14q1 1 0 1l-46 58z"/></svg>