<svg viewBox="0 0 300 368" xmlns="http://www.w3.org/2000/svg"><path d="M244 221h-31v-43q0-8-5.5-13.5T194 159q-8 0-13.5 5.5T175 178v43H56q-23 0-39.5 16.5T0 277.5q0 23.5 16.5 40T56 334h188q23 0 39.5-16.5t16.5-40q0-23.5-16.5-39.5T244 222v-1zm0 75H56q-8 0-13.5-5t-5-13q.5-8 5.5-13.5t13-5.5h188q8 0 13.5 5.5T263 278q0 8-5.5 13.5T244 296zm8-175q6 5 6 13t-5.5 13.5Q247 153 239 153t-13-6q-13-13-32-13t-32 13q-6 6-13.5 6t-13-5.5Q130 142 130 134t5-13q16-16 37.5-21.5t42.5 0q21 5.5 37 21.5zM93 100q-6-6-5.5-13.5T93 74q28-26 64.5-35t72.5 0q36 9 64 35 6 5 6 12.5t-5.5 13.5q-5.5 6-13 6t-13.5-5q-20-19-47-26t-54 0q-27 7-48 26-6 5-13.5 5T93 100z"/></svg>