<svg viewBox="0 0 300 368" xmlns="http://www.w3.org/2000/svg"><path d="M238 34q-23 0-40 14t-22 36H69q-18 0-31 13t-13 31v25q0 8 5.5 13t13.5 5q8 0 13.5-5t5.5-13v-25q0-3 1.5-5t4.5-2h19v32q0 8 5 13t13 5q8 0 13.5-5t5.5-13v-32h51q5 22 22 36t40 14q16 0 30.5-8t23-22.5Q300 126 300 109V96q0-16-8.5-30.5t-23-23Q254 34 238 34zm25 75q0 10-7.5 17.5t-18 7.5q-10.5 0-17.5-7.5t-7-17.5V96q0-10 7-17.5t17.5-7.5q10.5 0 18 7.5T263 96v13zm-7 87q-8 0-13 5.5t-5 13.5v25q0 3-2 4.5t-5 1.5h-18v-31q0-8-5.5-13.5T194 196q-8 0-13.5 5.5T175 215v31h-51q-5-21-22-35.5T63 196q-17 0-31.5 8.5t-23 23Q0 242 0 259v12q0 17 8.5 31.5t23 23Q46 334 63 334q22 0 39-14t22-36h107q18 0 31-13t13-31v-25q0-8-5.5-13.5T256 196zM88 271q0 11-7.5 18t-18 7Q52 296 45 289t-7-18v-12q0-10 7-17.5t17.5-7.5q10.5 0 18 7.5T88 259v12z"/></svg>