<svg viewBox="0 0 300 368" xmlns="http://www.w3.org/2000/svg"><path d="M150 159q17 0 31.5-8.5t22.5-23q8-14.5 8.5-31t-8-31q-8.5-14.5-23-23T150 34q-17 0-31.5 8.5T96 65.5q-8 14.5-8 31t8 31q8 14.5 22.5 23T150 159zm0-88q10 0 17.5 7.5t7.5 18q0 10.5-7.5 18T150 122q-10 0-17.5-7.5t-7.5-18q0-10.5 7.5-18T150 71zm150 207q0-8-5.5-13.5T281 259h-32q-3-24-17-44t-35.5-32Q175 171 150 171t-46.5 12Q82 195 68 215t-17 44H19q-8 0-13.5 5.5T0 277q0 7 3.5 11.5T13 295v20q0 8 5 13.5t13 5.5q8 0 13.5-5.5T50 315v-19h200v19q0 8 5.5 13.5T269 334q8 0 13-5.5t5-13.5v-20q6-2 9.5-6.5T300 278zm-89-19h-41l-9-29 11-17q15 6 25.5 18t13.5 28zm-83-46l11 17-9 29H89q3-16 13.5-28t25.5-18z"/></svg>