<svg viewBox="0 0 300 368" xmlns="http://www.w3.org/2000/svg"><path d="M259 209q-13-12-31-12t-31 12l-5 5q-24-11-42.5-29.5T120 142l5-5q12-13 12.5-30.5T125 76L98 47Q85 35 67.5 34.5T37 46L23 58Q-5 88 2 134q6 41 38 86 30 43 74 74 45 32 86 38 46 7 76-21l12-14q12-13 12-31t-13-31l-28-26zm2 62q-1 0-1 1l-11 13q-19 17-52 9-30-7-63.5-32T74 204q-26-33-34-63-8-34 9-56l14-12q2-1 4-1.5t4 1.5l27 29q2 2 2 4.5t-2 4.5l-14 14q-4 4-5 9.5t1 10.5q14 38 42.5 66.5T189 254q5 2 10.5 1t9.5-5l14-14q3-2 5-2t5 2l28 26q1 2 1 4.5t-1 4.5zm34-157q5 6 5 14t-5.5 13q-5.5 5-13.5 5.5t-13-5.5l-24-24-24 24q-6 6-14 5.5t-13.5-5.5q-5.5-5-5.5-13t6-14l24-24-24-24q-6-5-6-13t5.5-13.5Q198 34 206 34t13 5l25 25 24-25q5-5 13-5t13.5 5.5Q300 45 300 53t-5 13l-25 24 25 24z"/></svg>