<svg viewBox="0 0 300 368" xmlns="http://www.w3.org/2000/svg"><path d="M295 302l-41-40q23-27 30.5-61t-2.5-67.5Q272 100 247 74q-19-19-44-29.5T150 34q-25 0-48 8.5T60 68L32 39q-5-5-13-5T5.5 39.5Q0 45 0 53t5 13l263 263q5 5 13 5t13.5-5.5Q300 323 300 315t-5-13zm-67-67l-35-35q8-12 8-28 0-21-15-36t-36-15q-15 0-28 9L87 94q27-23 63-23 20 0 38.5 8t32.5 22q18 18 25 42t2 48.5q-5 24.5-20 43.5zm-36 65q3 7 1 14.5t-9 10.5q-16 9-34 9-14 0-27-5.5T100 313l-47-43q-22-22-32.5-52T13 157q1-8 7-12.5t14-4q8 .5 12.5 6.5t4.5 14q-3 23 4.5 44.5T79 243l47 43q8 8 19 10t21-4q7-3 14.5-1t10.5 9h1z"/></svg>