<svg viewBox="0 0 300 368" xmlns="http://www.w3.org/2000/svg"><path d="M281 135l-82-82q-14-13-31.5-17.5t-35 0Q115 40 101 53l-82 82Q6 148 1.5 166t0 35.5Q6 219 19 233l82 82q10 10 23 15t26 5q13 0 26-5t23-15l82-82q13-14 17.5-31.5t0-35.5q-4.5-18-17.5-31zm-27 71l-82 82q-9 9-22 9t-22-9l-82-82q-9-9-9-22t9-22l82-82q9-9 22-9t22 9l82 82q9 9 9 22t-9 22zm-85 34q0 8-5.5 13.5T150 259q-8 0-13.5-5.5T131 240q0-8 5.5-13.5T150 221q8 0 13.5 5.5T169 240zm0-112v62q0 8-5.5 13.5T150 209q-8 0-13.5-5.5T131 190v-62q0-8 5.5-13.5T150 109q8 0 13.5 5.5T169 128z"/></svg>