<svg viewBox="0 0 300 368" xmlns="http://www.w3.org/2000/svg"><path d="M150 209q0 5-3.5 8.5T137 221h-12v13q0 5-3.5 8.5t-9 3.5q-5.5 0-9-3.5T100 234v-13H88q-6 0-9.5-3.5T75 209q0-5 3.5-8.5T87 197h13v-13q0-5 3.5-8.5t9-4q5.5-.5 9 3.5t3.5 9v12h13q5 0 8.5 4t3.5 9zm61 36q-4 25-19 45.5t-37.5 32Q132 334 106 334q-29 0-53-14.5T14.5 281Q0 257 0 228q0-26 11.5-48.5t32-37.5Q64 127 89 123q4-25 19-45.5t37.5-32Q168 34 194 34q29 0 53 14.5T285.5 87q14.5 24 14.5 53 0 26-11.5 48.5t-32 37.5Q236 241 211 245zm-36-17q0-19-9.5-34.5t-25-25q-15.5-9.5-34-9.5T72 168.5q-16 9.5-25 25t-9 34q0 18.5 9 34.5t25 25q16 9 34.5 9t34-9q15.5-9 25-25t9.5-34zm88-88q0-18-9.5-34T228 80.5Q212 71 194 71q-24 0-42.5 15T127 124q32 6 54.5 28.5T210 207q23-6 38-24.5t15-42.5zm-38-31h-12V96q0-5-4-8.5t-9-3.5q-5 0-8.5 3.5T188 97v12h-13q-5 0-8.5 3.5t-3.5 9q0 5.5 3.5 9t8.5 3.5h13v12q0 6 3.5 9.5t8.5 3.5q5 0 8.5-3.5t3.5-9.5v-12h13q5 0 8.5-3.5t3.5-9q0-5.5-3.5-9T225 109z"/></svg>