<svg viewBox="0 0 300 368" xmlns="http://www.w3.org/2000/svg"><path d="M298 124q-4 7-11.5 9t-14.5-1L168 75q-9-4-18.5-4T132 76L28 132q-7 3-14.5 1t-11-9Q-1 117 1 109.5T10 99l105-57q16-8 34.5-8t35.5 8l105 57q7 3 9 10.5t-1 14.5zm-34 70q11 23 11 49v15q0 14-6.5 25.5T250 302v7q0 10-7.5 17.5T225 334q-10 0-17.5-7.5T200 309H100q0 10-7.5 17.5T75 334q-10 0-17.5-7.5T50 309v-7q-6-4-10-8-15-15-15-36-2-34 11-64l15-33q8-18 25-29t37-11h74q20 0 37 11t25 29l15 33zm-27 40h-24v6q0 8-5.5 13.5T194 259q-8 0-13.5-5.5T175 240v-6h-50v6q0 8-5.5 13.5T106 259q-8 0-13-5.5T88 240v-6H64q-1 12-1 24 0 6 3.5 9.5T76 271h149q5 0 8.5-3.5t4.5-9.5v-15l-1-9zM85 177l-9 19h148l-9-19q-4-8-11.5-13t-16.5-5h-74q-9 0-16.5 5T85 177z"/></svg>