<svg viewBox="0 0 300 368" xmlns="http://www.w3.org/2000/svg"><path d="M131 255q-3 0-6-1-17-6-30-19-5-5-5-13t5.5-13.5q5.5-5.5 13-5.5t14 6.5Q129 216 137 219t11.5 10q3.5 7 1 13.5T142 252q-5 3-11 3zM24 195Q8 211 2.5 232t0 42Q8 295 24 310q12 12 26.5 18t30.5 6q16 0 31-6t27-18l7-8q5-6 4-13.5t-7-12.5q-6-5-13.5-4.5T117 278l-5 6q-13 13-31 12.5t-30.5-13Q38 271 38 252.5T50 222l25-25q6-6 6-13.5t-5.5-13Q70 165 62 165t-13 5l-25 25zM5 66l263 263q5 5 13 5t13.5-5.5Q300 323 300 315t-5-13l-74-74 55-55q16-16 21.5-37t0-42q-5.5-21-21-36.5t-36.5-21q-21-5.5-42 0T161 58q-5 5-5 13t5.5 13.5q5.5 5.5 13 5.5t13.5-6q12-12 30.5-12t31 12.5Q262 97 262 115.5T250 146l-56 56-55-55q10-1 19.5 2t16.5 10q5 6 13 6t13.5-5.5Q207 154 207 146t-6-13q-18-19-43.5-23t-48.5 7L32 39q-5-5-13-5T5.5 39.5Q0 45 0 53t5 13z"/></svg>