<svg viewBox="0 0 300 368" xmlns="http://www.w3.org/2000/svg"><path d="M244 34H119q-24 0-40 16.5T63 90v113q0 23 16 39.5t40 16.5h125q23 0 39.5-16.5T300 203V90q0-23-16.5-39.5T244 34zm-6 100h25v25h-25v-25zm25-44v6h-25V71h6q8 0 13.5 5.5T262 90h1zm-163 44h25v25h-25v-25zm19-63h6v25h-25v-6q0-8 5.5-13.5T119 72v-1zm-19 132v-7h25v25h-6q-8 0-13.5-5t-5.5-13zm63 18V71h37v150h-37zm81 0h-6v-25h25v7q0 8-5.5 13t-13.5 5zm-19 82q0 8-5.5 13.5T206 321H69q-19 0-34.5-9t-25-25Q0 271 0 253V153q0-8 5.5-13.5T19 134q8 0 13.5 5.5T37 153v100q1 13 10 22t22 9h137q8 0 13.5 5.5T225 303z"/></svg>