<svg viewBox="0 0 300 368" xmlns="http://www.w3.org/2000/svg"><path d="M288 154l-25-25v-14q0-18-13-31t-31-13h-14l-25-25q-12-12-30-12t-30 12L95 71H81q-18 0-30.5 13T38 115v14l-26 25Q0 166 0 184t12 30l26 25v14q0 18 12.5 30.5T81 296h14l25 26q12 12 30 12t30-12l25-26h14q18 0 31-12.5t13-30.5v-14l25-25q12-12 12-30t-12-30zm-27 34l-31 30q-5 6-5 13v22q0 2-2 4t-4 2h-22q-7 0-13 5l-30 31q-2 1-4 1t-4-1l-30-31q-6-5-13-5H81q-2 0-4-2t-2-4v-22q0-7-5-13l-31-30q-1-2-1-4t1-4l31-30q5-6 5-13v-22q0-2 2-4t4-2h22q7 0 13-5l30-31q2-1 4-1t4 1l30 31q6 5 13 5h22q2 0 4 2t2 4v22q0 7 6 13l30 30q1 2 1 4t-1 4zm-74-36q2 12-3 23t-16 17q-2 1-4 4.5t-2 6.5v6q1 5-3 9t-9 4q-5 0-8.5-4t-3.5-9v-6q0-10 5-19.5t13-13.5q3-2 5-5.5t1.5-7.5q-.5-4-3.5-7t-7-3q-6-1-10 2.5t-4 9q0 5.5-4 9.5t-9 4q-5 0-8.5-4t-3.5-9q0-17 13-28.5t31-8.5q11 2 19.5 10.5T187 152zm-24 94q0 6-4 9.5t-9 3.5q-5 0-8.5-3.5t-3.5-9q0-5.5 3.5-9t8.5-3.5q5 0 8.5 3.5t3.5 8.5h1z"/></svg>