<svg viewBox="0 0 300 368" xmlns="http://www.w3.org/2000/svg"><path d="M150 134q-10 0-17.5-7.5T125 109V71H69q-13 0-22 9.5T38 103v137q0 13 9 22t22 9h25q8 0 13.5 5.5T113 290q0 8-5.5 13.5T94 309H69q-19 0-34.5-9.5t-25-25Q0 259 0 240V103q0-19 9.5-34.5t25-25Q50 34 69 34h59q11 0 21.5 4.5T168 50l41 41q14 15 16 35 0 8-5 14t-12 6h-2q-6 0-11-3t-6-9h-39zm150 119q0 22-11 40.5T259.5 323Q241 334 219 334t-41-11q-19-11-29.5-29.5T138 253q0-22 10.5-41t29.5-30q19-11 41-11t40.5 11q18.5 11 29.5 30t11 41zm-62 12q0-8-5.5-13.5T219 246q-8 0-13.5 5.5T200 265v13q0 8 5.5 13t13.5 5q8 0 13.5-5t5.5-13v-13zm0-50q0-8-5.5-13.5T219 196q-8 0-13.5 5.5T200 215q0 8 5.5 13.5T219 234q8 0 13.5-5.5T238 215z"/></svg>