<svg viewBox="0 0 300 368" xmlns="http://www.w3.org/2000/svg"><path d="M150 34q-41 0-75.5 20T20 108.5Q0 143 0 184q2 57 33 95 29 35 73 47.5t88 0q44-12.5 73-47.5 31-38 33-95 0-41-20-75.5T225.5 54Q191 34 150 34zm0 262q-31 0-56.5-15T53 240.5Q38 215 38 184q1-43 25-72 21-26 54-35t66 0q33 9 54 35 24 29 26 72-1 31-16 56.5T206.5 281Q181 296 150 296zm63-75q6 5 6 13t-5.5 13q-5.5 5-13 5.5T187 247q-16-13-37-13t-37 13q-5 6-13 6t-13.5-5.5Q81 242 81 234t6-13q15-16 39-21.5t48 0q24 5.5 39 21.5zm12-81q0 6-3.5 11t-8.5 7q0 11-7.5 18.5T187 184h-6q-13-2-17-12t1-22.5q5-12.5 16-21t25-6.5q8-1 13.5 4.5T225 140zM88 158q-7-2-10.5-8T75 137q1-7 6.5-11.5T94 121q14-1 25 7.5t16 21.5q5 13 1 23t-17 11h-6q-11 0-18.5-7.5T88 158z"/></svg>