<svg viewBox="0 0 300 368" xmlns="http://www.w3.org/2000/svg"><path d="M231 46h-62q-19 1-34.5 10t-25 25q-9.5 16-9.5 34v77q-20-11-42.5-7t-38 20Q4 221 1 243.5T8.5 286Q19 306 40 315.5t43 4.5q22-5 37-21.5t17-39.5h1V115q0-13 9-22t22-9h62q13 0 22 9t9 22v77q-20-11-42-7t-38 20q-16 16-19 38.5t8 42.5q11 20 31.5 29.5t43 4.5q22.5-5 37.5-21.5t17-39.5V115q0-18-9.5-34t-25-25Q250 47 231 47v-1zM69 284q-13 0-22-9t-9-22q0-13 9-22.5t22-9.5q13 0 22 9.5t9 22.5q0 13-9 22t-22 9zm162 0q-13 0-22-9t-9-22q0-13 9-22t22-9.5q13-.5 22.5 9t9 22.5q-.5 13-9.5 22t-22 9z"/></svg>