<svg viewBox="0 0 300 368" xmlns="http://www.w3.org/2000/svg"><path d="M263 221H123q-16 0-27-11l-17-17q-4-4-4-9t4-9l17-18q11-11 27-11h140q15 0 26 11.5t11 26.5q0 15-11 26t-26 11zm-38-112H123q-16 0-27-11L79 80q-4-3-4-8.5t4-8.5l17-18q11-11 27-11h102q15 0 26.5 11T263 71.5Q263 87 251.5 98T225 109zm-25 225h-77q-16 0-27-11l-17-18q-4-3-4-8.5t4-8.5l17-18q11-11 27-11h77q15 0 26.5 11t11.5 26.5q0 15.5-11.5 26.5T200 334zM25 271q-10 0-17.5 7.5t-7.5 18Q0 307 7.5 314t17.5 7q10 0 17.5-7t7.5-17.5q0-10.5-7.5-18T25 271zm0-112q-10 0-17.5 7.5T0 184q0 10 7.5 17.5T25 209q10 0 17.5-7.5T50 184q0-10-7.5-17.5T25 159zm0-113q-10 0-17.5 7.5T0 71.5Q0 82 7.5 89T25 96q10 0 17.5-7T50 71.5q0-10.5-7.5-18T25 46z"/></svg>