<svg viewBox="0 0 300 368" xmlns="http://www.w3.org/2000/svg"><path d="M200 65q0-13 9-22t22-9q13 0 22 9t9.5 22q.5 13-9 22T231 96q-13 0-22-9t-9-22zm44 206q-8 0-13.5 5.5T225 290q0 3-2 4.5t-4 1.5h-6v-17q0-17-12-30l-38-40 37-37q13-13 12.5-31.5T199 110l-2-2q-16-12-36-11H81q-8 0-13.5 5t-5 13q.5 8 5.5 13.5t13 5.5h71l-28 29q-12 13-11.5 31t12.5 30l48 51q2 2 2 5v16h-6q-8 0-13.5 5.5T150 315q0 8 5.5 13.5T169 334h50q18 0 31-13t13-31q0-8-5.5-13.5T244 271zM93 295q-2 1-4 1.5t-4-1.5l-3-3 25-26q6-6 5.5-14t-6-13q-5.5-5-13.5-5t-13 6l-23 24q-5-5-13-5t-13.5 5.5q-5.5 5.5-5.5 13t5 12.5l28 31q12 13 30 13h1q18 0 30-13 6-5 6-12.5t-5.5-13.5q-5.5-6-13-6T93 295z"/></svg>