<svg viewBox="0 0 300 368" xmlns="http://www.w3.org/2000/svg"><path d="M244 234H56q-23 0-39.5-16.5T0 178V90q0-23 16.5-39.5T56 34h188q23 0 39.5 16.5T300 90v88q0 23-16.5 39.5T244 234zM56 71q-8 0-13 5.5T38 90v88q0 8 5 13t13 5h188q8 0 13.5-5t5.5-13V90q0-8-5.5-13.5T244 71H56zm-6 263H25q-10 0-17.5-7.5T0 309v-25q0-10 7.5-17.5T25 259h25q10 0 17.5 7.5T75 284v25q0 10-7.5 17.5T50 334zm225 0h-25q-10 0-17.5-7.5T225 309v-25q0-10 7.5-17.5T250 259h25q10 0 17.5 7.5T300 284v25q0 10-7.5 17.5T275 334zm-112 0h-25q-11 0-18-7.5t-7-17.5v-25q0-10 7-17.5t18-7.5h25q10 0 17.5 7.5T188 284v25q0 10-7.5 17.5T163 334z"/></svg>