<svg viewBox="0 0 300 368" xmlns="http://www.w3.org/2000/svg"><path d="M224 161l8-15q10-20 3-41t-26-31l-35-21q-46-24-89-18-31 4-57 22-8 5-12 13.5T12.5 89q.5 10 5.5 17.5T32 119l53 29L3 298q-5 9-2 18.5T13.5 331q9.5 5 19.5 1.5T47 320l82-148 23 12q11 6 25 6t27-7.5q13-7.5 20-21.5zm-26-32l-8 15q-3 6-9 8t-11-1L51 87q20-13 43-15 30-3 62 14l35 21q6 3 8 9.5t-1 12.5zm102-14q0 8-5.5 13.5T281 134q-8 0-13.5-5.5T262 115q0-8 5.5-13.5T281 96q8 0 13.5 5.5T300 115zm-54 89q5 6 4 13.5t-7 12.5q-6 5-14 4t-13-7q-4-6-3-14t7-13q6-4 13.5-3t12.5 7zm39-23q-4 6-11.5 8.5T259 188q-6-4-8-11.5t1-14.5q4-7 11.5-9t14.5 2q7 4 9 11.5t-2 14.5z"/></svg>