<svg viewBox="0 0 300 368" xmlns="http://www.w3.org/2000/svg"><path d="M125 128q0-8 5.5-13.5T144 109q8 0 13.5 5.5T163 128q0 8-5.5 13t-13.5 5q-8 0-13.5-5t-5.5-13zm175-13v63q0 18-9.5 34t-25 25.5Q250 247 231 246H131q-18 0-34-9t-25-25q-9-16-9-34v-63q0-18 9-34t25-25.5q16-9.5 34-9.5h100q19 0 34.5 9.5t25 25.5q9.5 16 9.5 34zm-200 63q0 9 5 16.5t13 11.5l53-54q6-5 14.5-5t14.5 5l13 13q5 6 13.5 6t14.5-6l21-21v-29q0-13-9-22t-22-9H131q-13 0-22 9t-9 22v63zm106 93H69q-13 0-22-9t-9-22v-87q0-8-5.5-13.5T19 134q-8 0-13.5 5.5T0 153v87q0 19 9.5 34.5t25 25Q50 309 69 309h137q8 0 13.5-5.5T225 290q0-8-5.5-13.5T206 271z"/></svg>