<svg viewBox="0 0 300 368" xmlns="http://www.w3.org/2000/svg"><path d="M283 135q17-18 16.5-42T282 52q-17-17-41-17.5T199 51l-38 38q-34 34-59 75-8 14-14 29-4 9-9 17l-41 41-6-5q-5-6-13-6t-13.5 5.5Q0 251 0 259t5 13l57 57q5 5 13 5t13.5-5.5Q94 323 94 315t-6-13l-6-6 40-40q9-5 20-9 16-7 31-16 38-24 70-56l40-40zm-130 64q-6 4-13 7l-12-11 6-12q23-37 54-67l38-38q6-6 15-6.5t15.5 6Q263 84 263 93t-7 15l-40 40q-28 29-63 51zm147 97q0 16-11 27t-26.5 11q-15.5 0-26.5-11t-11-26.5q0-15.5 11-26.5t26.5-11q15.5 0 26.5 11t11 26z"/></svg>