<svg viewBox="0 0 300 368" xmlns="http://www.w3.org/2000/svg"><path d="M200 71q0-15 11-26t26.5-11Q253 34 264 45t11 26.5Q275 87 264 98t-26.5 11Q222 109 211 98t-11-27zm25 163q15 0 26.5-11t11.5-26.5q0-15.5-11.5-26.5T225 159q-15 0-26 11t-11 26.5q0 15.5 11 26.5t26 11zm-106-88q13 0 22-9t9-22q0-13-9-22t-22-9q-13 0-22 9t-9 22q0 13 9 22t22 9zm-13 113q13 0 22.5-9t9.5-22q0-13-9.5-22.5T106 196q-13 0-22 9.5T75 228q0 13 9 22t22 9zm175 37H69q-13 0-22-9t-9-22V53q0-8-5.5-13.5T19 34q-8 0-13.5 5.5T0 53v212q0 19 9.5 34.5t25 25Q50 334 69 334h212q8 0 13.5-5.5T300 315q0-8-5.5-13.5T281 296z"/></svg>