<svg viewBox="0 0 300 368" xmlns="http://www.w3.org/2000/svg"><path d="M293 63l-7-6q-14-11-31.5-17T219 34h-56q-21 0-36 14.5T112 84v18q-32 13-52 39-22 28-22 64v60q0 19 9 34.5t25 25q16 9.5 34 9.5h88q18 0 34-9.5t25-25q9-15.5 9-34.5v-60q1-36-22-64-20-26-52-39V71h31q24 0 43 16l8 5q6 5 13.5 4.5t12.5-7q5-6.5 4-14T293 63zm-68 142v60q0 13-9 22t-22 9h-88q-13 0-22-9t-9-22v-60q0-26 19-46 16-17 40-25h32q24 8 40 25 19 20 19 46zm-56-2h12q8 0 13.5 5.5t5.5 13q0 7.5-5.5 13T181 240h-12v13q0 8-5.5 13t-13.5 5q-8 0-13.5-5t-5.5-13v-13h-12q-8 0-13.5-5.5t-5.5-13q0-7.5 5.5-13T119 203h12v-13q0-8 5.5-13.5T150 171q8 0 13.5 5.5T169 190v13z"/></svg>