<svg viewBox="0 0 300 368" xmlns="http://www.w3.org/2000/svg"><path d="M277 49q-5-7-12-11t-15-4h-31q-16 0-29.5 8.5T169 65l-19 38-19-38q-7-14-20.5-22.5T81 34H50q-8 0-15 4T23.5 49q-4.5 7-5 15T22 79l37 76q-22 30-22 66 0 31 15.5 57t41 41q25.5 15 56 15t56.5-15q26-15 41-41t15-57q0-36-22-66l38-76q4-7 3.5-15T277 49zm-58 22h21l-28 57q-12-8-26-13l16-33q3-5 7.5-8t9.5-3zM81 71q5 0 9.5 3t7.5 8l16 33q-14 5-26 13L60 72h21v-1zm69 225q-20 0-37.5-10T85 259q-10-17-10-37.5T85 184q10-17 27.5-27.5T150 146q20 0 37.5 10.5T215 184q10 17 10 37.5T215 259q-10 17-27.5 27T150 296zm12-106v69q0 5-3.5 9t-8.5 3.5q-5-.5-9-4t-4-8.5v-53l-3 4q-4 4-9 4t-9-4q-4-4-4-9t4-9l16-15q4-4 9-5t10 1q5 2 8 6.5t3 10.5z"/></svg>