<svg viewBox="0 0 300 368" xmlns="http://www.w3.org/2000/svg"><path d="M288 309q0 10-7.5 17.5T263 334H38q-11 0-18-7.5T13 309q0-10 7-17.5t18-7.5v-83q0-18 10-32.5T75 148q7-3 14 .5T99 159q3 7-.5 14t-10 9.5q-6.5 2.5-10 7.5T75 201v83h29l11 12h70l11-12h29v-83q0-6-3.5-11t-10-7.5q-6.5-2.5-10-9.5t-.5-14q3-7 10-10.5t14-.5q17 6 27 20.5t10 32.5v83q11 0 18.5 7.5T288 309zM106 71q8 0 13.5-5t5.5-13q0-8-5.5-13.5T106 34q-8 0-13.5 5.5t-5 13.5q.5 8 5.5 13t13 5zm44 50q8 1 13.5-4.5T169 103q0-8-5.5-13.5T150 84q-8 0-13.5 5.5T131 103q0 8 5.5 13.5T150 122v-1zm44-50q8 0 13.5-5t5.5-13q0-8-5.5-13.5T194 34q-8 0-13.5 5.5T175 53q0 8 5.5 13t13.5 5zm-82 126q-5 0-8.5 3.5t-3.5 8q0 4.5 4 8.5l38 38q3 3 8 3t8-3l38-38q4-4 4-8.5t-3.5-8Q193 197 188 197h-19v-32q0-8-5.5-13.5T150 146q-8 0-13.5 5.5T131 165v32h-19zm123-77q4 1 9 1t9.5-2.5q4.5-2.5 7.5-7.5l25-50q3-7 .5-14.5T277 36q-7-3-14.5-1T252 44l-25 50q-3 7-1 14.5t9 11.5zm-196-9q3 5 7.5 8t9.5 2.5q5-.5 9-1.5 7-4 9-11.5T73 94L48 44q-3-7-10.5-9T23 36q-7 3-9.5 10.5T14 61l25 50z"/></svg>