<svg viewBox="0 0 300 368" xmlns="http://www.w3.org/2000/svg"><path d="M113 109q-31 0-57 15t-41 41Q0 191 0 221.5T15 278q15 26 41 41t56.5 15q30.5 0 56.5-15t41-41q15-26 15-56.5T210 165q-15-26-41-41t-57-15h1zm0 187q-21 0-38-10t-27.5-27q-10.5-17-10-37.5T48 184q10-17 27-27.5t37.5-10.5q20.5 0 37.5 10.5t27.5 27.5q10.5 17 10.5 37.5T177.5 259Q167 276 150 286t-37 10zm40-58q3 4 3 9t-4.5 9q-4.5 4-11.5 8-14 8-27.5 7.5T85 264q-7-4-11.5-8t-4.5-9q0-5 3.5-9t8.5-4q5 0 9 3 2 2 6 5 9 5 16.5 4.5T128 242q4-2 7-5 4-3 9-3t9 4zm-72-17q-8 1-13-4.5T63 203q0-8 5-13.5t13-5.5q8 0 13.5 5.5T100 203q0 8-5.5 13.5T81 222v-1zm82-18q0 8-5.5 13.5T144 222q-8 0-13.5-5.5T125 203q0-8 5.5-13.5T144 184q8 0 13.5 5.5T163 203zM300 90q0 8-5.5 13.5T281 109h-18v19q0 8-5.5 13t-13.5 5q-8 0-13.5-5t-5.5-13v-19h-19q-8 0-13-5.5T188 90q0-8 5-13t13-5h19V53q0-8 5.5-13.5T244 34q8 0 13 5.5t5 13.5v18h19q8 0 13.5 5.5T300 90z"/></svg>