<svg viewBox="0 0 300 368" xmlns="http://www.w3.org/2000/svg"><path d="M229 128l-29-17V70q6-2 9.5-8t2.5-12.5q-1-6.5-6-11T194 34h-88q-7 0-12 4.5t-6 11Q87 56 90.5 62t9.5 8v41l-29 17q-16 10-24.5 25.5T38 187v78q0 19 9 34.5t25 25q16 9.5 34 9.5h88q18 0 34-9.5t25-25q9-15.5 9-34.5v-78q0-18-8.5-33.5T229 128zm-4 137q0 13-9 22t-22 9h-88q-13 0-22-9t-9-22v-78q0-8 4-15t11-12l38-23q9-5 9-16V71h25v50q0 5 2.5 9.5t6.5 7.5l39 23q7 4 11 11t4 15v78zm-25-37v12q0 8-5.5 13.5T181 259h-62q-8 0-13.5-5.5T100 240v-12q0-8 5.5-13.5T119 209h62q8 0 13.5 5.5T200 228z"/></svg>