<svg viewBox="0 0 300 368" xmlns="http://www.w3.org/2000/svg"><path d="M231 96h-18V78q0-18-13-31t-31-13h-38q-18 0-31 13T87 78v18H69q-19 1-34.5 10t-25 25Q0 147 0 165v100q0 19 9.5 34.5t25 25Q50 334 69 334h162q19 0 34.5-9.5t25-25Q300 284 300 265V165q0-18-9.5-34t-25-25Q250 97 231 97v-1zM125 78q0-3 2-5t4-2h38q2 0 4 2t2 5v18h-50V78zm138 187q0 13-9.5 22t-22.5 9H69q-13 0-22-9t-9-22V165q0-13 9-22t22-9h162q13 0 22 9t9 22l1 100zm-57-50q0 8-5.5 13.5T187 234h-18v19q0 8-5.5 13.5t-13.5 5q-8-.5-13.5-5.5t-5.5-13v-19h-18q-8 0-13.5-5.5T94 215q0-8 5.5-13t13.5-6h18v-18q0-8 5.5-13.5T150 159q8 0 13.5 5.5T169 178v18h19q7 0 12.5 5.5T206 215z"/></svg>