<svg viewBox="0 0 300.0049 368" xmlns="http://www.w3.org/2000/svg"><path d="M231.005 146h-81V71q0-9-6-16t-15-8.5q-9-1.5-16.5 3t-11 13q-3.5 8.5 0 17.5t11.5 13v53h-44q-20 1-35.5 12t-24.5 28.5q-9 17.5-9 34.5v44q0 19 9.5 34.5t25 25q15.5 9.5 34.5 9.5h162q19 0 34.5-9.5t25-25q9.5-15.5 9.5-34.5v-44q0-17-9-34.5t-24.5-29q-15.5-11.5-35.5-11.5zm32 75v13h-50v-50h18q12 0 22 11.5t9 25.5h1zm-138 13v-50h50v50h-50zm-56-50h19v50h-50v-13q0-14 9.5-25.5t21.5-11.5zm162 112h-162q-11 0-20-7t-11-17h224q-2 10-11 17t-20 8v-1zm-68-237q0-10 7-17.5t17.5-7.5q10.5 0 17.5 7.5t7.5 17.5q.5 10-7 17.5t-18 7.5q-10.5 0-17.5-7.5t-7-17.5zm75 2q-2-8 2.5-14t12.5-8l25-5q7-1 13.5 3.5t8 12q1.5 7.5-3 14t-11.5 7.5l-25 5q-8 1-14.5-3t-7.5-12zm-238 45q-1-7 3.5-13.5t11.5-8.5l38-7q5-1 10 .5t8 5.5q3 4 4 9t-.5 10q-1.5 5-5.5 8t-9 4l-38 7q-7 2-13.5-2.5T.005 106z"/></svg>