<svg viewBox="0 0 300 368" xmlns="http://www.w3.org/2000/svg"><path d="M150 34q-41 0-75.5 20T20 108.5Q0 143 0 184t20 75.5Q40 294 74.5 314t75.5 20q41 0 75.5-20t54.5-54.5q20-34.5 20-75.5t-20-75.5Q260 74 225.5 54T150 34zm0 262q-31 0-56.5-15t-41-40.5Q37 215 37.5 184T53 127.5q15-25.5 40.5-41t56.5-15q31 .5 56.5 15.5t41 40.5q15.5 25.5 15 56.5T247 240.5q-15 25.5-40.5 41T150 297v-1zm38-162h-3l-10-15q-3-5-7.5-7.5T157 109h-14q-6 0-10.5 2.5T125 119l-10 15h-2q-11 0-18 7.5T88 159v50q0 10 7 17.5t18 7.5h75q10 0 17.5-7.5T213 209v-50q0-10-7.5-17.5T188 134zm-38 75q-10 0-17.5-7.5T125 184q0-10 7.5-17.5T150 159q10 0 17.5 7.5T175 184q0 10-7.5 17.5T150 209z"/></svg>