<svg viewBox="0 0 300.0026 368" xmlns="http://www.w3.org/2000/svg"><path d="M287 47q-7-8-16.5-11T250 34q-37 6-74 20-57 22-95.5 60.5T20 210Q6 247 0 284q-1 11 2 20.5T13 321q12 13 31 13h5q37-5 74-19 57-22 96.5-61.5T281 157q14-37 19-74 1-10-2.5-19.5T287 47zm-94 180q-34 34-84 53-32 12-65 16-3 1-5-1.5t-1-5.5q4-30 16-62 19-52 53-86t86-53q32-12 63-16l5 1q2 2 1 5-4 33-16 65-19 50-53 84zm-12-43q0 13-9 22t-22 9q-13 0-22-9t-9-22q0-13 9-22t22-9q13 0 22 9t9 22zm-62 56q0 11-7.5 18t-18 7Q83 265 76 258t-7-17.5q0-10.5 7-18t17.5-7.5q10.5 0 18 7.5T119 240zm112-112q0 10-7 17.5t-17.5 7.5q-10.5 0-18-7.5t-7.5-18q0-10.5 7.5-17.5t18-7q10.5 0 17.5 7t7 18z"/></svg>