<svg viewBox="0 0 300 368" xmlns="http://www.w3.org/2000/svg"><path d="M295 66q5-5 5-13t-5.5-13.5Q289 34 281 34t-13 5l-26 27q-15-12-32-19-29-13-60-13T90 47q-17 7-32 19L32 39q-5-5-13-5T5.5 39.5Q0 45 0 53t5 13l27 26q-15 20-23.5 43.5T0 184q0 41 20 75.5T74.5 314q34.5 20 75.5 20t75.5-20q34.5-20 54.5-54.5t20-75.5q0-25-8.5-48.5T268 92l27-26zm-120 8v28q-12-6-25-5.5t-25 5.5V74q13-3 25-3t25 3zm0 85q0 10-7.5 17.5T150 184q-10 0-17.5-7.5T125 159q0-10 7.5-17.5T150 134q10 0 17.5 7.5T175 159zm-25 137q-31 0-56.5-15T53 240.5Q38 215 37.5 185t13-54.5Q64 106 88 91v68q0 17 8.5 31.5t23 22.5q14.5 8 31 8t30.5-7.5q14-7.5 23-22t9-32.5V91q23 15 36.5 39.5T263 185q0 30-15.5 55.5t-41 40.5Q181 296 150 296z"/></svg>