<svg viewBox="0 0 300 368" xmlns="http://www.w3.org/2000/svg"><path d="M165 234h-30q-10 0-18-6t-12-16l-9-28q-3-9 0-19t12-16l24-17q8-6 18-6t18 6l24 17q9 6 12 16t0 19l-9 28q-4 10-12 16t-18 6zm135-50q0 41-20 75.5T225.5 314Q191 334 150 334t-75.5-20Q40 294 20 259.5T0 184q0-41 20-75.5T74.5 54Q109 34 150 34t75.5 20Q260 74 280 108.5t20 75.5zM150 296q10 0 19-1l11-35q4-12 13.5-19t21.5-7h36q8-17 11-36l-29-19q-9-7-13-18.5t-1-23.5l11-32q-14-14-31-22l-27 19q-10 7-22 7t-22-7l-26-19q-17 8-31 21l10 33q3 12-1 23.5T67 179l-28 20q2 18 10 35h35q13 0 22.5 7t13.5 19l11 35q9 1 19 2v-1z"/></svg>