<svg viewBox="0 0 300 368" xmlns="http://www.w3.org/2000/svg"><path d="M288 162V96q0-16-8.5-30.5t-23-23Q242 34 225 34h-75q-17 0-31.5 8.5T96 65.5Q88 80 88 97H69q-19-1-34.5 8.5T9.5 131Q0 147 0 165v119q0 21 14.5 35.5T50 334h113q20 0 34.5-14.5T212 284V165q1-18-8.5-34T178 106q-16-9-34-9h-19q0-11 7.5-18.5T150 71h75q10 0 17.5 7.5T250 96v66q-6 4-9 9.5t-4 12.5v37q1 11 8 18t18 7h12q10 0 17.5-7t7.5-18v-37q0-7-3.5-12.5T288 162zM106 315q-8 0-13-5.5t-5-13q0-7.5 5-13t13-5.5q8 0 13.5 5.5t5.5 13q0 7.5-5.5 13T106 315zm50 0q-8 0-13-5.5t-5-13q0-7.5 5-13t13-5.5q8 0 13.5 5.5t5.5 13q0 7.5-5.5 13T156 315zm-12-181q13 0 22 9t9 22v94H38v-94q0-13 9-22t22-9h75z"/></svg>