<svg viewBox="0 0 300 368" xmlns="http://www.w3.org/2000/svg"><path d="M300 271q0 16-11 27t-26.5 11q-15.5 0-26.5-11t-11-26.5q0-15.5 11-26.5t26.5-11q15.5 0 26.5 11t11 26zm-35-62q-12 0-23 5t-19 14l-19 21q-10 11-23.5 16.5T153 271h-53q0 16-11 27t-26.5 11Q47 309 36 298t-11-26q0-5 1-9-12-8-19-20.5T0 215v-25q0-23 16.5-39.5T56 134h12q17 0 31.5 10t20.5 27l24 63h9q14 0 23-10l19-21q6-7 14-13l-30-81q-2-6-7-9t-11-3h-17q-8 0-13.5-5.5T125 78q0-8 5.5-13.5T144 59h17q18 0 32.5 10T214 96l1 2q3-6 9-10t12.5-4q6.5 0 10 3.5T250 97v25q0 5-3.5 8.5t-9 3.5q-5.5 0-10.5-2l16 42q11-3 22-3h16q8 0 13.5 5.5T300 190q0 8-5.5 13.5T281 209h-16zm-161 25l-19-50q-2-6-6.5-9T68 172H56q-8-1-13.5 4.5T37 190v25q1 8 6 13.5t13 5.5h48z"/></svg>