<svg viewBox="0 0 300.0014 368" xmlns="http://www.w3.org/2000/svg"><path d="M63 128q0-8 5-13.5t13-5.5h25q8 0 13.5 5.5T125 128q0 8-5.5 13.5T106 147H81q-8 0-13.5-5.5T62 128h1zm18 81h50q8 0 13.5-5.5T150 190q0-8-5.5-13.5T131 171H81q-8 1-13.5 6t-5 13q.5 8 5.5 13.5t13 5.5zm194 69v6q0 21-14.5 35.5T225 334H50q-21 0-35.5-14.5T0 284V90q0-23 16.5-39.5T56 34h75q8 0 13.5 5.5T150 53q0 8-5.5 13T131 71H56q-8 0-13.5 5.5T37 90v194q1 5 4.5 8.5T50 296q5 0 8.5-3.5T62 284v-6q1-18 13.5-31t30.5-13h94v-19q0-8 5.5-13.5T219 196q8 0 13 5.5t5 13.5v20q16 2 27 14t11 29zm-37 0q0-3-2-5t-5-2H106q-2 0-4 2t-2 5v6q0 6-2 13h127q5-1 9-4.5t4-8.5v-6zm61-186q-1-3-4.5-5.5T288 84h-38l-13-37q-2-4-5-6t-7-2q-4 0-7 2t-5 6l-13 37h-37q-4 0-7.5 2.5t-5 6q-1.5 3.5-.5 7t4 6.5l30 24-12 38q-1 4 .5 7.5t4.5 6q3 2.5 7 2.5t7-2l34-23 35 23q3 2 7 2t7-2.5q3-2.5 4-6.5t0-8l-12-37 30-24q3-2 4-6t-1-8z"/></svg>