<svg viewBox="0 0 300 368" xmlns="http://www.w3.org/2000/svg"><path d="M106 34H63q-17 0-31.5 8.5t-23 23Q0 80 0 97v18q0 13 9 22t22 9h75q13 0 22.5-9t9.5-22V65q0-13-9.5-22T106 34zm-6 75H38V96q0-10 7-17.5T63 71h37v38zm169 112h-75q-13 1-22 10t-9 22v50q0 13 9 22t22 9h44q16 0 30.5-8.5t23-23Q300 288 300 271v-18q0-13-9-22.5t-22-9.5zm-6 50q0 11-7.5 18t-17.5 7h-38v-37h63v12zM238 34h-44q-13 0-22 9t-9 22v100q0 13 9 22t22 9h75q13 0 22-9t9-22V96q0-16-8.5-30.5t-23-23Q254 34 238 34zm25 125h-63V71h38q10 0 17.5 7.5T263 96v63zm-157 12H31q-13 0-22 9.5T0 203v68q0 17 8.5 31.5t23 23Q46 334 63 334h43q13 0 22-9t10-22V203q0-13-9.5-22.5T106 171zm-6 125H63q-11 0-18-7t-7-18v-62h62v87z"/></svg>