<svg viewBox="0 0 300 368" xmlns="http://www.w3.org/2000/svg"><path d="M300 90v188q0 23-16.5 39.5T244 334h-38q-8 0-13-5.5t-5.5-13.5q-.5-8 5-13t13.5-5h38q8-1 13.5-6t4.5-13V90q1-8-4.5-13.5T244 72h-38q-8-1-13-6t-5-13q0-8 5-13.5t13-5.5h38q23 0 39.5 16.5T300 90zm-77 129l-66 66q-12 11-28 11-9 0-17-3-11-4-17.5-14T88 257v-11H44q-18 0-31-12.5T0 203v-38q0-18 13-31t31-13h44v-10q0-12 6.5-22t18-14.5Q124 70 136 72t21 11l66 66q14 14 14 35t-14 35zm-27-44l-66-65q-1-2-3-1l-2 2v29q0 8-5.5 13.5T106 159H44q-3 0-5 2t-1 4v38q0 2 1.5 4t4.5 2h62q8 0 13.5 5.5T125 228v29l2 2q2 1 3-1l66-66q4-3 4-8t-4-9z"/></svg>