<svg viewBox="0 0 300 368" xmlns="http://www.w3.org/2000/svg"><path d="M95 277q5 5 5 13t-5.5 13.5Q89 309 81 309t-13-5l-38-38q-5-5-5-13t5.5-13.5Q36 234 44 234t13 5l38 38zm11-68q-8 0-13.5 5.5t-5 13.5q.5 8 5.5 13.5t13 5q8-.5 13.5-5.5t5.5-13q0-8-5.5-13.5T106 209zm-87 87q-8 0-13.5 5.5T0 315q0 8 5.5 13.5T19 334q8 0 13-5.5t5.5-13.5q.5-8-5-13T19 297v-1zm145-98q3 3 5.5 4t8.5 1h0q7-1 12-7 10-10 10-25t-11-26q-11-11-26.5-11T136 145q-11 11-11 26 0 8 5.5 13.5T144 190q11 0 20 8zM298 95q-9-20-24-35.5T239 36q-7-4-14.5-1T214 45q-3 7 0 14.5T224 70q13 6 23.5 16t16.5 24q2 5 7 8t9.5 3q4.5 0 8.5-1 7-4 9.5-11t-.5-14zM161 72q-26 0-47.5 12t-35 33Q65 138 63 164q-1 8 4 13.5t13 6.5q8 1 14-4.5t6-12.5q2-25 19.5-41.5T162 109q12-1 23.5 4t20.5 14q19 18 19 45 0 19-11 34-14 21-14 47 0 20-12 32t-32 12q-8-1-13.5 4.5T137 315q0 8 5.5 13.5T156 334q24 0 42.5-10.5t28.5-29q10-18.5 10-41.5 0-14 8-26 17-25 17-56 0-20-7.5-38.5t-22-32.5q-14.5-14-33-21T161 72z"/></svg>