<svg viewBox="0 0 300 368" xmlns="http://www.w3.org/2000/svg"><path d="M103 43q5 6 3 13.5t-9 12Q90 73 81 82q-18 17-28 39-15 29-15 63t13 63q10 22 26 39 8 9 14.5 13.5t8 12.5q1.5 8-3.5 15t-15 7q-5 0-10-3-9-6-20-18-21-22-33-49-18-37-18-79.5T19 104q14-27 36-49 11-11 22-18 7-4 14.5-2.5T103 43zm134-5q-6-5-14-4t-12.5 7q-4.5 6-4 14t7.5 12q13 11 25 31 24 38 24 86 0 34-14 64-10 21-26 38-8 9-14.5 13.5t-8 12.5q-1.5 8 3.5 15t15 7q6 0 11-4 8-6 19-17 21-22 33-49 18-37 18-80t-16-80q-11-27-30-49-10-11-18-17h1z"/></svg>