<svg viewBox="0 0 300 368" xmlns="http://www.w3.org/2000/svg"><path d="M289 107q-6-7-16-9-5-2-8-2t-4-2q-6-10-16-16t-21-6h-11V44q-1-5-5-8t-8-1q-11 4-18 13.5T175 70v12l-19 52H94q-28 0-48 19-8-11-8-25 0-8-5.5-13.5T19 109q-8 0-13.5 5.5T0 128q0 20 9 37 7 12 18 22-2 9-2 16v100q0 13 9 22t22 9q13 0 22.5-9t9.5-22v-32h87v32q0 13 9 22t22 9q13 0 22.5-9t9.5-22v-54l13-53q21-3 35-18.5t14-37.5v-6q0-17-11-27zm-26 33q-1 8-6 13.5t-13 5.5h-8q-6 0-11.5 4t-6.5 10l-16 63q-4-2-8-2H69q-3 0-6 1v-32q0-13 9-22t22-9h75q6 0 10.5-3.5t6.5-9.5l19-50h19q2 0 3 2 5 10 14.5 16.5T262 134v6h1z"/></svg>