<svg viewBox="0 0 300 368" xmlns="http://www.w3.org/2000/svg"><path d="M300 115v75q0 19-9.5 34.5t-25 25Q250 259 231 259h-62v25h31q8 0 13.5 5.5T219 303q0 8-5.5 13t-13.5 5H100q-8 0-13.5-5T81 303q0-8 5.5-13.5T100 284h31v-25H69q-19 0-34.5-9.5t-25-25Q0 209 0 190v-75q0-18 9.5-34t25-25.5Q50 46 69 46h12q8 0 13.5 5.5T100 65q0 8-5.5 13.5T81 84H69q-13 0-22.5 9T37 115v75q1 13 10 22.5t22 9.5h162q13-1 22-10t9-22v-75q1-13-8.5-22T231 84h-12q-8 0-13.5-5.5T200 65q0-8 5.5-13t13.5-5h12q19-1 34.5 8.5t25 25.5q9.5 16 9.5 34zm-198 13l39 40q4 4 9 4t9-4l39-40q4-4 4-9t-3.5-8.5Q195 107 190 107h-21V53q0-8-5.5-13.5T150 34q-8 0-13.5 5.5T131 53v54h-21q-5 0-8.5 3.5T98 119q0 5 4 9z"/></svg>