<svg viewBox="0 0 300 368" xmlns="http://www.w3.org/2000/svg"><path d="M56 171q-23 0-39.5-16.5T0 115V90q0-23 16.5-39.5t40-16.5q23.5 0 40 16.5T113 90v25q0 23-16.5 39.5T56 171zm0-100q-8 0-13 5.5T38 90v25q0 8 5 13.5t13 5.5q8 0 13.5-5.5T75 115V90q0-8-5.5-13.5T56 71zm64 251q5-5 5-13t-6-13.5-6-13.5v-31q0-6 3-11t9.5-7.5q6.5-2.5 10-9.5t1-14q-2.5-7-9.5-10.5t-14-.5q-17 6-27.5 20.5T75 251v31q0 12 5 23t14 19q5 4 13 4t13-6zm68-182V53q0-6-3.5-10.5t-8.5-7q-5-2.5-11-1.5t-9 5l-25 25q-6 6-6 14t6 13q3 4 8.5 5t10.5-1v45q0 8 5.5 13.5T169 159q8 0 13.5-5.5T188 140zM63 315V215q0-5-3.5-10t-8.5-7q-5-2-11-1t-9 5L6 227q-6 6-6 13.5T6 253q3 4 8.5 5.5T25 258v57q0 8 5.5 13.5T44 334q8 0 13.5-5.5T63 315zm156-144q-22 0-41 11t-29.5 30Q138 231 138 253t10.5 40.5Q159 312 178 323t41 11q22 0 40.5-11t29.5-29.5q11-18.5 11-40.5t-11-41q-11-19-29.5-30T219 171zm12 117q-8 9-21 9-13-1-22-10l-17-19q-5-5-5-12.5t6-13.5q5-5 13-5t13 6l12 13 31-32q6-5 13.5-5t13.5 5q5 6 5 13.5t-5 13.5l-37 37z"/></svg>