<svg viewBox="0 0 300 368" xmlns="http://www.w3.org/2000/svg"><path d="M231 234q-14 0-27 5.5T182 254q-43 43-124 43H44q-4 0-6-4t1-7l7-7q21-1 41-10t35-25l48-48 5 1q15 0 29-6t25-17l11-11q12-11 17.5-26t5-31q-.5-16-7.5-30.5T235 51q-15-12-34-15.5T163.5 38Q145 44 131 58l-7 7q-13 13-19 29.5t-4 34.5l-47 47q-15 15-24 35t-11 42l-6 6Q3 268 .5 281.5T3 307q5 12 16.5 19.5T44 334h14q97 0 150-53 9-10 22.5-9.5t23 9.5q9.5 9 9.5 22v13q0 7 5 12.5t13 5.5q8 0 13.5-5.5T300 316v-13q0-18-9.5-34T265 243.5q-16-9.5-34-9.5zM151 91l7-7q12-12 30-13 13 0 23 9 13 11 14 27.5T214 136l-12 12q-12 12-28.5 11T147 145.5q-10-12.5-9-28T151 91zM81 202l35-35 1 2q6 8 14 13l-35 36q-16 15-37 21 6-21 22-37z"/></svg>