<svg viewBox="0 0 300 368" xmlns="http://www.w3.org/2000/svg"><path d="M106 314q-6 0-11-3.5t-6.5-9q-1.5-5.5 0-11.5t6.5-9q22-16 30-46 6-22 6-57 0-8 5.5-13.5T150 159q8 0 13.5 5.5T169 178q0 38-7 63-12 46-45 70-5 3-11 3zm76 13q15-19 24-42 3-7 .5-14t-10-10q-7.5-3-14.5-.5T172 271q-8 17-19 32-5 6-4.5 14t6.5 13q6 5 14 4t13-7zm42-123q1-13 1-32t-8.5-35q-8.5-16-23.5-26.5t-33-13q-18-2.5-35 3.5-5 1-8.5 5t-4 9q-.5 5 1 10t5.5 8q4 3 9 4t10-1q8-3 17-1.5t16.5 6.5q7.5 5 12 13t3.5 18q1 18 0 30-1 7 4.5 13t12.5 7l2-1q7 0 12.5-5t5.5-12zM59 271q12-1 23-8 20-12 26-39 4-15 4-46 1-8-4.5-13.5T94 159q-8 0-13.5 5.5T75 178q0 24-2.5 36.5T62 231q-4 2-8 3-7 1-12 6.5t-4.5 13q.5 7.5 6 12.5t12.5 5h3zm200 52q31-73 28-152 1-26-9-50-3-7-10-10.5t-14.5-.5q-7.5 3-10.5 10t0 15q7 17 7 37 2 70-25 135-3 7-.5 14.5t9.5 11q7 3.5 14.5.5t10.5-10zM50 190v-19q0-26 13-49t35.5-36.5q22.5-13.5 49-14T197 83q7 4 14.5 1.5t11-9q3.5-6.5 1.5-14T215 50q-32-17-68-16T79.5 53.5q-31.5 18.5-49 50T12 172v18q1 8 6 13.5t13 5.5q8 0 13.5-5.5T50 190z"/></svg>