<svg viewBox="0 0 300 368" xmlns="http://www.w3.org/2000/svg"><path d="M260 87q-6-5-13.5-5t-13 5.5q-5.5 5.5-5.5 13t5 13.5q14 14 21.5 32t7.5 38q0 20-7.5 38T233 254q-5 6-5 13.5t5.5 13q5.5 5.5 13 5.5t13.5-5q19-19 29.5-44.5T300 184q0-27-10.5-52.5T260 87zm-27 97q0-18-11.5-33T193 131V55q0-9-7-14.5T170 37q-27 5-51 19.5T78 94h-9q-19 0-34.5 9t-25 25Q0 144 0 162v44q0 18 9.5 34t25 25q15.5 9 34.5 9h9q17 23 41 37.5t51 19.5l4 1q8 0 13.5-5.5T193 313v-77q17-4 28.5-19t11.5-33zm-78 104q-32-13-51-43-6-8-16-8H69q-13 0-22-9t-9-22v-44q0-13 9-22t22-9h19q10 0 16-8 19-30 51-43v208z"/></svg>