<svg viewBox="0 0 300 368" xmlns="http://www.w3.org/2000/svg"><path d="M231 34H69q-19 0-34.5 9.5t-25 25Q0 84 0 103v125q0 13 7 23.5T26 268q3 15 14 26 4 5 10 8v7q0 10 7 17.5t17.5 7.5q10.5 0 18-7.5T100 309h100q0 10 7 17.5t17.5 7.5q10.5 0 18-7.5T250 309v-7q9-5 15.5-14t8.5-20q12-5 19-16t7-24V103q0-19-9.5-34.5t-25-25Q250 34 231 34zM76 196l9-19q3-8 11-13t17-5h73q10 0 17.5 5t11.5 13l9 19H76zM69 71h162q13 0 22 9.5t9 22.5v88l-13-30q-9-18-25.5-29T186 121h-73q-20 0-37 11t-25 29l-13 29v-87q0-13 9-22.5T69 71zm7 200q-6 0-10-3.5t-3-9.5v-24h24v6q0 8 5.5 13.5T106 259q8 0 13.5-5.5T125 240v-6h50v6q0 8 5.5 13.5t13 5.5q7.5 0 13-5.5T212 240v-6h26l-1 25q0 5-3.5 9t-9.5 4H76v-1z"/></svg>