<svg viewBox="0 0 300 368" xmlns="http://www.w3.org/2000/svg"><path d="M219 34H81q-18 0-34 9.5t-25.5 25Q12 84 13 103v175q0 23 16 39.5T69 334h150q18 0 34-9.5t25-25q9-15.5 10-34.5V103q0-19-9.5-34.5t-25.5-25Q237 34 219 34zm31 69v118H125V71h94q13 0 22 9.5t9 22.5zM81 71h7v150H69q-10 0-19 4V103q0-13 9-22.5T81 71zm138 225H69q-8 0-13.5-5T50 278q0-8 5.5-13.5T69 259h181v6q0 13-9 22t-22 9zm-67-93q4 0 7-2.5t5-6.5l4-10h40l4 10q1 4 4 6.5t7 2.5q7 0 10.5-5.5T235 186l-30-83q-2-6-6.5-9.5T188 90q-6 0-11 3.5t-7 9.5l-30 83q-2 6 2 11.5t10 5.5zm47-44h-23l12-31 11 31z"/></svg>