<svg viewBox="0 0 300.002 368" xmlns="http://www.w3.org/2000/svg"><path d="M299.002 309l-30-89q-4-11-12.5-17.5t-19-6.5q-10.5 0-19 6.5t-12.5 17.5l-30 89q-3 8 .5 15t11 9q7.5 2 14.5-1t9-11h52q2 6 7 9.5t11 3.5q3 0 6-1 8-2 11-9t1-15zm-83-19l21-62 22 62h-43zm-21-134q-6-11-16-17t-22-6h-33l13-57q3-12-1.5-23.5t-15-16.5q-10.5-5-21.5-1.5t-18 14.5l-74 118q-6 10-7 21.5t5 22q6 10.5 16 16.5t22 6h33l-13 58q-3 12 1.5 23.5t15.5 16.5q6 2 13 2t14-4q7-4 12-11l74-118q6-10 7-22t-5-22zm-34 23l-53 86 10-46q2-9-3.5-16t-14.5-7h-57q-3 0-4.5-3t.5-6l53-85-10 46q-2 9 3.5 16t14.5 7h57q3 0 4.5 2.5t-.5 5.5z"/></svg>