<svg viewBox="0 0 300 368" xmlns="http://www.w3.org/2000/svg"><path d="M131 334H81q-7 0-12.5-5.5T63 315q0-8 5.5-13t12.5-6q16 0 31-6-22-8-39.5-22.5T43 233q-14-23-17-50t6-53q10-29 30.5-51t48-33.5Q138 34 169 34h50q7 0 12.5 5.5T237 53q0 8-5.5 13.5T219 72q-16 0-31 6 22 8 39.5 22.5T257 135q14 23 17 50t-6 53q-10 29-30.5 51t-48 33.5Q162 334 131 334zm7-258q-25 6-43.5 24T67 142q-6 18-3.5 37T76 214.5Q86 231 102.5 243t36.5 16q12 2 18.5 12t4.5 21q25-6 43.5-24t26.5-42q7-18 4.5-37T224 153.5Q214 137 197.5 125T161 109q-12-2-18.5-12T138 76zm12 145q16 0 27-10.5t11-26.5q0-16-11-27t-27-11q-16 0-27 11t-10.5 27q.5 16 11 26.5T150 221z"/></svg>