<svg viewBox="0 0 300 368" xmlns="http://www.w3.org/2000/svg"><path d="M150 334q41 0 75.5-20t54.5-54.5q20-34.5 20-75.5t-20-75.5Q260 74 225.5 54T150 34q-41 0-75.5 20T20 108.5Q0 143 0 184t20 75.5Q40 294 74.5 314t75.5 20zm0-263q31 0 56.5 15.5t41 41Q263 153 263 184t-15.5 56.5Q232 266 206.5 281T150 296q-31 0-56.5-15t-41-40.5Q37 215 37.5 184T53 127.5Q68 102 93.5 87T150 71zm-43 103l24-24v103q0 8 5.5 13.5t13.5 5q8-.5 13.5-5.5t5.5-13V150l24 24q4 4 9 5t9.5 0q4.5-1 8.5-5t5-9q1-5-.5-9.5T219 147l-38-38q-13-12-31-12t-31 12l-38 38q-4 4-5.5 8.5T75 165q1 5 5 9t8.5 5q4.5 1 9.5 0t9-5z"/></svg>