<svg viewBox="0 0 300 368" xmlns="http://www.w3.org/2000/svg"><path d="M138 290q0 8-5.5 13.5T119 309H69q-19 0-34.5-9.5t-25-25Q0 259 0 240V103q0-19 9.5-34.5t25-25Q50 34 69 34h137q19 0 34.5 9.5t25 25Q275 84 275 103v50q0 8-5.5 13t-13.5 5q-8 0-13-5t-5-13v-50q0-13-9.5-22.5T206 71H69q-13 0-22 9.5T38 103v137q0 13 9 22t22 9h50q8 0 13.5 5.5T138 290zm-12-162q4-4 5-9.5t-1-10.5q-2-5-7-8.5T113 96H81q-8 0-13 5.5T63 115v100q0 13 9 22t22 9h12q8 0 13.5-5t5.5-13q0-8-5.5-13.5T106 209h-6v-55l26-26zm68 31q8 0 13.5-5.5T213 140v-6q0-15-11.5-26.5T175 96h-6q-8 0-13.5 5.5T150 115q0 8 5.5 13.5T169 134h6v6q0 8 5.5 13.5T194 159zm101 169q-6 6-13.5 6t-13.5-6l-27-26q-13 7-29 7t-30.5-8.5q-14.5-8.5-23-23t-8.5-31q0-16.5 8.5-31t23-23q14.5-8.5 31-8.5t31 8.5q14.5 8.5 23 23T275 246q0 16-7 29l27 27q5 6 5 13.5t-5 13.5v-1zm-57-82q0-10-7.5-17.5t-18-7.5q-10.5 0-17.5 7.5t-7 18q0 10.5 7 17.5t17.5 7q10.5 0 18-7t7.5-18z"/></svg>