<svg viewBox="0 0 300 368" xmlns="http://www.w3.org/2000/svg"><path d="M169 128v62q0 8-5.5 13.5T150 209q-8 0-13.5-5.5T131 190v-62q0-8 5.5-13.5T150 109q8 0 13.5 5.5T169 128zm-19 93q-8 0-13.5 5.5T131 240q0 8 5.5 13.5T150 259q8 0 13.5-5.5T169 240q0-8-5.5-13.5T150 221zm150-37q0 18-12 30l-25 25v14q0 18-13 30.5T219 296h-14l-25 25q-12 13-30 13t-30-13l-25-25H81q-18 0-30.5-12.5T38 253v-14l-25-25Q0 202 0 184t13-30l25-25v-14q0-18 12.5-31T81 71h14l25-25q12-12 30-12t30 12l25 25h14q18 0 30.5 13t12.5 31v14l25 25q13 12 13 30zm-39-4l-30-30q-6-6-6-13v-22q0-2-2-4t-4-2h-22q-7 0-13-6l-30-30q-2-2-4-2t-3 2l-31 30q-5 6-13 6H81q-2 0-4 2t-2 4v22q0 7-5 13l-31 30q-1 2-1 4t1 3l31 31q5 5 5 13v22q0 2 2 4t4 2h22q7 0 13 5l31 31q1 1 3 1t4-1l30-31q6-5 13-5h22q2 0 4-2t2-4v-22q0-7 6-13l30-31q2-1 2-3t-2-4z"/></svg>