<svg viewBox="0 0 300 368" xmlns="http://www.w3.org/2000/svg"><path d="M278 191l-37-29q-15-12-34.5-12T172 162l-38 29q-10 8-16 19.5t-6 24.5v43q0 23 16.5 39.5T169 334h75q23 0 39.5-16.5T300 278v-43q0-13-5.5-24.5T278 191zm-15 87q0 8-5.5 13.5T244 297h-75q-8-1-13.5-6t-5.5-13v-43q0-9 7-14l38-30q5-4 11.5-4t11.5 4l37 30q7 5 7 14v43h1zm-38-32v13q0 5-3.5 9t-9.5 3h-12q-5 0-8.5-3.5T188 259v-13q0-5 3.5-8.5t8.5-3.5h13q5 0 8.5 3.5t3.5 8.5zm-113-81q1 4-.5 7t-4.5 5q-16 7-33 7-20 0-37-10t-27-27.5Q0 129 0 109t10-37.5Q20 54 37 44t37-10q17 0 33 7 3 2 4.5 5t1 6.5q-.5 3.5-3 6T104 62q-17 3-29 16.5T63 109q0 17 12 30.5t29 16.5q3 1 5.5 3.5t2.5 5.5zm126-50q0-6 5-7l13-6 6-13q1-5 6.5-5t7.5 5l5 14 14 5q5 2 5 7.5t-5 6.5l-14 6-5 14q-2 4-7.5 4t-7.5-4l-5-14-14-6q-5-2-4-7zM81 265q0 7-6 9l-16 6-7 17q-2 6-8.5 6t-8.5-6l-7-17-16-7q-6-2-6-8.5t6-8.5l17-6 6-16q2-6 8.5-6t8.5 6l7 16 16 7q6 2 6 8zm44-188q0-3 2-6t5-4l19-7 8-19q1-3 3.5-5t6-2q3.5 0 6.5 2t4 5l8 19 19 8q3 1 5 3.5t2 6q0 3.5-2 6.5t-5 4l-19 8-8 19q-1 3-4 4.5t-6.5 2q-3.5.5-6-1.5t-3.5-5l-8-20-19-8q-3-1-5-4t-2-6z"/></svg>