<svg viewBox="0 0 300 368" xmlns="http://www.w3.org/2000/svg"><path d="M263 178v-19q0-31-15.5-56.5t-41-41Q181 46 150 46T93.5 61.5q-25.5 15.5-41 41T37 159v19q-17 9-27 25T0 238v5q0 18 9 33t24 24q15 9 33 9h3q13 0 22-9t9-22v-75q0-11-7-20t-18-11v-13q0-20 10-37.5T112.5 94Q130 84 150 84t37.5 10q17.5 10 27.5 27.5t10 37.5v13q-11 2-18 11t-7 20v68h-19q-8 0-13.5 5.5t-5 13.5q.5 8 5.5 13.5t13 5.5h53q18 0 33-9t24-24q9-15 9-33v-5q0-19-10-35t-27-25zM63 271q-11-1-18.5-9.5T38 242v-4q-1-11 6.5-19T62 209l1 62zm200-29q0 11-7.5 19.5T238 271v-62q10 2 17.5 10t6.5 19l1 4z"/></svg>