<svg viewBox="0 0 300 368" xmlns="http://www.w3.org/2000/svg"><path d="M0 178q0-29 14.5-53.5t38.5-39Q77 71 106 72h132V51q0-6 3.5-9.5T250 38q5 0 9 4l37 39q4 4 4 9t-4 9l-37 40q-4 3-9 3t-9-3.5q-4-3.5-4-8.5v-21H106q-18 0-34 9.5t-25 25Q38 159 38 178q0 8-5.5 13.5T19 197q-8 0-13.5-5.5T0 178zm281-7q-8 0-13 5.5t-5 13.5q0 19-9.5 34.5t-25.5 25q-16 9.5-34 9.5H63v-21q0-5-4-8.5t-9-3.5q-5 0-9 3L4 269q-4 4-4 9t4 9l37 39q4 4 9 4t8.5-3.5Q62 323 62 317v-21h132q29 0 53-14t38.5-38.5Q300 219 300 190q0-8-5.5-13.5T281 171z"/></svg>