<svg viewBox="0 0 300 368" xmlns="http://www.w3.org/2000/svg"><path d="M300 153q0 8-5.5 13.5T281 172h-75q-8-1-13-6t-5.5-13q-.5-8 5-13.5T206 134h75q8 0 13.5 5.5T300 153zm-44 43h-50q-8 0-13 5.5t-5.5 13.5q-.5 8 5 13.5T206 234h50q8 0 13.5-5.5T275 215q0-8-5.5-13.5T256 196zm-25 63h-25q-8 0-13 5.5t-5.5 13.5q-.5 8 5 13t13.5 5h25q8 0 13.5-5t5.5-13q0-8-5.5-13.5T231 259zm-75 37H94q-13 0-22-9t-9-22V109h193q8 0 13.5-5.5T275 90q0-8-5.5-13.5T256 71h-47q-6-16-20.5-26.5T156 34h-37q-18 0-32.5 10.5T66 71H19q-8 0-13.5 5.5T0 90q0 8 5.5 13.5T19 109h6v156q0 19 9.5 34.5t25 25Q75 334 94 334h62q8 0 13.5-5.5T175 315q0-8-5.5-13t-13.5-5v-1z"/></svg>