<svg viewBox="0 0 300 368" xmlns="http://www.w3.org/2000/svg"><path d="M195 204l-18 17 18 18q5 6 5 14t-5.5 13.5Q189 272 181 272t-13-6l-18-18-18 18q-5 6-13 6t-13.5-5.5Q100 261 100 253t5-14l18-18-18-17q-5-6-5-14t5.5-13.5Q111 171 119 171t13 6l18 18 18-18q5-6 13-6t13.5 5.5Q200 182 200 190t-5 14zm80-68v129q0 19-9.5 34.5t-25 25Q225 334 206 334H94q-19 0-34.5-9.5t-25-25Q25 284 25 265V103q0-19 9.5-34.5t25-25Q75 34 94 34h79q14 0 26.5 5T222 54l33 33q10 10 15 22.5t5 26.5zm-37 129V146h-50q-11 0-18-7t-7-18V71H94q-13 1-22 10t-9 22v162q-1 13 8.5 22t22.5 9h112q13 0 22-9t9-22h1z"/></svg>