<svg viewBox="0 0 300 368" xmlns="http://www.w3.org/2000/svg"><path d="M231 71H69q-19 0-34.5 9.5T9.5 106Q0 122 0 140v63q0 18 9.5 34t25 25.5Q50 272 69 272h15l45 37q9 8 21 8t20-7l47-39h14q19 0 34.5-9t25-25q9.5-16 9.5-34v-63q0-18-9.5-34t-25-25.5Q250 71 231 71zm32 132q0 13-9.5 22t-22.5 9h-21q-7 0-12 4l-48 40-47-40q-5-4-12-4H69q-13 0-22.5-9T37 203v-63q1-13 10-22t22-9h162q13 0 22 9t9 22v63h1zm-76-40q2 4-2 7l-15 12 7 19q1 4-2.5 6.5t-7.5.5l-17-11-17 11q-1 1-3 1t-4-1q-4-3-2-7l6-19-15-12q-4-3-2.5-7t6.5-4h18l7-19q2-4 6-4t6 4l6 19h19q5 0 6 4zm50-4h19q5 0 6.5 4t-2.5 7l-15 12 7 19q1 4-2.5 6.5t-7.5.5l-17-11-17 11q-1 1-3 1t-4-1q-4-3-2-7l6-19-15-12q-4-3-2.5-7t6.5-4h18l7-19q2-4 6-4t6 4l6 19zm-125 4q2 4-2 7l-15 12 7 19q1 4-2.5 6.5t-7.5.5l-17-11-17 11q-1 1-3 1t-4-1q-4-3-2-7l6-19-15-12q-4-3-2.5-7t6.5-4h18l7-19q2-4 6-4t6 4l6 19h19q5 0 6 4z"/></svg>