<svg viewBox="0 0 300 368" xmlns="http://www.w3.org/2000/svg"><path d="M244 46H56q-23 0-39.5 16.5T0 103v150q0 18 9.5 34t25 25q15.5 9 34.5 9h162q19 0 34.5-9t25-25q9.5-16 9.5-34V103q0-24-16.5-40.5T244 46zM119 71q8 1 13.5 6t5 13q-.5 8-5.5 13.5t-13 5.5q-8 0-13.5-5.5T100 90q0-8 5.5-13.5T119 71zm-63 0q8 1 13.5 6T75 90q0 8-5.5 13.5T56 109q-8 0-13-5.5T38 90q0-8 5-13.5T56 71zm207 182q0 13-9.5 22t-22.5 9H69q-13 0-22-9t-9-22V134h225v119zm-75-7v-68q0-8 5-13.5t13-5.5q8 0 13.5 5.5T225 178v68q0 8-5.5 13.5T206 265q-8 0-13-5.5t-5-12.5v-1zM75 209v-31q0-8 5.5-13.5T94 159q8 0 13.5 5.5T113 178v31q0 5 3.5 8.5t8.5 3.5q5 0 9-3.5t4-8.5v-31q0-8 5-13.5t13-5.5q8 0 13.5 5.5T175 178v31q0 21-14.5 35.5T125 259q-21 0-35.5-14.5T75 209z"/></svg>