<svg viewBox="0 0 300 368" xmlns="http://www.w3.org/2000/svg"><path d="M268 276q16-20 24-43.5t8-48.5q0-41-20-75.5T225.5 54Q191 34 150 34q-25 0-48.5 8T58 66L32 39q-5-5-13-5T5.5 39.5Q0 45 0 53t5 13l263 263q5 5 13 5t13.5-5.5Q300 323 300 315t-5-13l-27-26zM150 71q31 1 56.5 16t40.5 40.5q15 25.5 16 56.5 0 36-21 65l-57-57 29-51q4-7 1.5-13.5t-9-9Q200 116 193 120l-51 29-57-57q29-21 65-21zm49 236q2 8-2 14.5t-11 8.5q-18 4-36 4-41 0-75.5-20T20 259.5Q0 225 0 184q0-18 4-36 2-7 8.5-11t14-2.5q7.5 1.5 12 8.5t2.5 14q-3 13-3 27 0 31 15 56.5T93.5 281q25.5 15 56.5 15 14 0 27-3 7-2 14 2.5t8 11.5zM86 227l16-29 34 34-29 16q-7 4-13.5 1.5t-9-9Q82 234 86 227z"/></svg>