<svg viewBox="0 0 300 368" xmlns="http://www.w3.org/2000/svg"><path d="M194 150l-12 12q-7 7-7 17v16l-27 26q-10 1-16.5 8t-6.5 17.5q0 10.5 7.5 17.5t17.5 7q10 0 17-6.5t8-16.5l27-27h15q10 0 18-7l12-12q5-5 2-11.5t-10-6.5h-27v-27q0-7-6.5-9.5T194 150zm27 97q-7-2-14 2t-9 11q-4 16-17.5 26.5T150 297q-21 0-35.5-15T100 247q0-17 10-30.5t26-17.5v-1q8-2 11.5-8.5t1.5-14q-2-7.5-8.5-11.5t-14.5-2q-28 8-46 31.5T62 246q1 24 12.5 44t31.5 32q20 12 44 12 29 0 52.5-18t31.5-46q2-7-1.5-14t-11.5-9zm10-188h-6v-6q0-8-5.5-13.5T206 34q-8 0-13 5.5T188 53v6h-75v-6q0-8-5.5-13.5T94 34q-8 0-13.5 5.5T75 53v6h-6q-19 0-34.5 9.5t-25 25Q0 109 0 128v144q0 18 9 34t25 25q7 4 14.5 2t11.5-8.5q4-6.5 2-14T53 299q-7-4-11-11.5T38 272V159h41q18-15 40-21 18-5 34 4l8 6 16-16q7-8 18-10t21 2q10 4 16 13t6 20v2h25v113q0 8-4.5 15.5T247 299q-7 4-9 11.5t2 14.5q3 4 7 6.5t9 2.5q5 0 10-3 16-9 25-25t9-34V128q0-19-9.5-34.5t-25-25Q250 59 231 59z"/></svg>