<svg viewBox="0 0 300 368" xmlns="http://www.w3.org/2000/svg"><path d="M14 74l7 12q3 7 10.5 9t14-1.5Q52 90 54.5 83T54 69l-6-12q-2-5-6.5-8T32 45.5q-5-.5-9.5 2t-7.5 7Q12 59 12 64t2 10zm126-17l-7 12q-2 5-2 10t3 9.5q3 4.5 7.5 6.5t9.5 2q5 0 9.5-3t6.5-8l6-12q2-5 2-10t-3-9.5q-3-4.5-7.5-6.5t-9.5-2q-5 0-9 3t-6 8zm-65-4v12q0 8 5.5 13.5T94 84q8 0 13-5.5t6-13.5V53q-1-8-6-13.5T94 34q-8 0-13.5 5.5T75 53zm125 81q-17 0-33.5 6T136 157q-7-4-16-7l9-18q4-8 1.5-16t-9.5-12q-13-8-28-8t-28 9q-7 4-9 12t2 15l9 18q-26 8-44.5 29t-22 48.5Q-3 255 8.5 280T44 320q24 15 51.5 14.5T146 318q27 17 59 15.5t57-21q25-19.5 34-50.5t-1.5-61Q284 171 258 152.5T200 134zM38 240q0-23 16-39.5T94 184q9 0 18 3-13 25-11.5 53t17.5 51q-12 5-24 5-24 0-40-16t-17-40h1zm162 56q-14 0-27-6 16-25 14.5-55T167 181q16-10 36-9t35.5 13.5Q254 198 260 217t-1 37.5q-7 18.5-23 30.5t-36 12v-1z"/></svg>