<svg viewBox="0 0 300 368" xmlns="http://www.w3.org/2000/svg"><path d="M150 334q-41 0-75.5-20T20 259.5Q0 225 0 184t20-75.5Q40 74 74.5 54T150 34q41 0 75.5 20t54.5 54.5q20 34.5 20 75.5t-20 75.5Q260 294 225.5 314T150 334zm0-263q-31 1-56.5 16t-41 40.5Q37 153 37.5 184T53 240.5q15 25.5 40.5 41t56.5 15q31-.5 56.5-15.5t41-40.5q15.5-25.5 15-56.5T247 127.5Q232 102 206.5 87T150 71zm88 113q-1-8-6-13.5t-13-5.5q-8 0-13.5 5.5T200 184q0 21-14.5 35.5T150 234q-21 0-35.5-14.5T100 184q0-21 14.5-35.5T150 134q8 0 13.5-5.5T169 115q0-8-5.5-13.5T150 96q-24 1-44 12.5T74 140q-12 20-11.5 44t12 44Q86 248 106 260t44 12q24 0 44-12t32-32q12-20 12-44z"/></svg>