<svg viewBox="0 0 300 368" xmlns="http://www.w3.org/2000/svg"><path d="M150 34q-41 0-75.5 20T20 108.5Q0 143 0 184t20 75.5Q40 294 74.5 314t75.5 20q41 0 75.5-20t54.5-54.5q20-34.5 20-75.5t-20-75.5Q260 74 225.5 54T150 34zm0 262q-31 0-56.5-15T53 240.5Q38 215 37.5 184t15-56.5q15.5-25.5 41-41T150 71q31 0 56.5 15.5t41 41Q263 153 263 184t-15.5 56.5Q232 266 206.5 281T150 296zm55-117q8 7 7 18 0 27-17.5 46T151 262h-2q-9 0-17-2-20-6-32-22.5T88 200v-30q0-13 5-25t14-22q19-18 45-17 21 1 38 14 6 5 7 12.5t-4 13.5q-5 6-13 7t-14-4q-6-5-15.5-5.5t-17.5 7q-8 7.5-8 19.5v30q0 8 5 15t12 9q4 1 7 1 8 0 14.5-4t9.5-12h-4q-8 0-13.5-5.5T150 190q0-8 5.5-13.5T169 171h19q10 0 17 8z"/></svg>