<svg viewBox="0 0 300 368" xmlns="http://www.w3.org/2000/svg"><path d="M300 315q0 8-5.5 13.5T281 334H69q-19 0-34.5-9.5t-25-25Q0 284 0 265V53q0-8 5.5-13.5T19 34q8 0 13 5.5T37 53v212q1 13 10 22.5t22 9.5h212q8-1 13.5 4.5T300 315zm-70-94q5 16 7 34 0 7 5.5 11.5t14 4.5q8.5 0 13.5-6t4-14q-2-21-8-41-2-8-9-11.5t-14.5-1q-7.5 2.5-11 9T230 221zm-32-60q6 7 13.5 7t13-5q5.5-5 6.5-12.5t-4-13.5q-14-17-30-30-6-5-13.5-4t-12.5 7q-5 6-4.5 13.5T173 136q14 11 25 25zM79 97q18 2 34 7 3 1 6 1 6 0 11-4t7-10.5q2-6.5-1.5-13.5T124 68q-20-6-41-8-8-1-14 4t-6.5 13Q62 85 67 91t12 6z"/></svg>