<svg viewBox="0 0 300 368" xmlns="http://www.w3.org/2000/svg"><path d="M297 301q4 6 2 13.5t-8 11.5q-13 8-28 8-20 0-35-11-3-2-6 0-15 10-34.5 10T153 323q-3-2-6 0-15 10-34.5 10T78 323q-3-2-6 0-13 9-30.5 10.5T9 326q-6-4-8-11.5t1.5-14q3.5-6.5 11-8.5t13.5 1.5q6 3.5 12.5 3T51 292q11-8 24-8t24 8q6 4 13.5 4t13.5-4q11-8 24-8t24 8q6 4 13.5 4t13.5-4q11-8 24-8t24 8q5 4 11.5 4.5t12.5-3q6-3.5 13.5-1.5t10.5 9zM50 240V103q0-19 9.5-34.5t25-25Q100 34 119 34q8 0 13.5 5.5T138 53q0 8-5.5 13T119 71h-1q-13 1-21.5 10T88 103v6h125v-6q0-19 9-34.5t25-25q16-9.5 34-9.5 8 0 13.5 5.5T300 53q0 8-5.5 13T281 71h-1q-12 1-21 10t-9 22v137q0 8-5.5 13.5T231 259q-8 0-13-5.5t-5-13.5v-19H88v19q-1 8-6 13.5T69 259q-8 0-13.5-5.5T50 240zm38-56h125v-38H88v38z"/></svg>