<svg viewBox="0 0 300 368" xmlns="http://www.w3.org/2000/svg"><path d="M291 199q-13-8-28-13-8-3-11-7-2-3-2-7v-2q23-3 36.5-15.5T300 125q0-15-8.5-29.5T269 71q-14-10-32-12V44q1-5-3.5-8t-9.5-1q-10 4-17 13t-7 21q-11 7-17.5 18t-7.5 24v4q-1 6-32.5 28T97 180q-25 25-32 53-27-58-27-124 0-16 11-26.5T74.5 72Q89 72 100 81.5t12 23.5q1 8 7 12.5t14 4q8-.5 12.5-7T150 101q-4-29-25-48T75 34q-20 0-37.5 10T10 71.5Q0 89 0 109q0 57 18 108 14 39 36 72 12 17 33 30 26 15 53 15h116q8 0 13.5-5.5T275 315q0-8-5.5-13.5T256 296h-24q6-12 5-25 1-23-14.5-41T184 209q-8-1-14 3.5t-7 12.5q-1 8 3.5 14t13 7.5Q188 248 194 255t6 17q0 10-7.5 17t-17.5 7h-35q-9 0-19-2-21-13-21-39 0-17 10-32 8-13 24-27 9-8 30-22 19-13 27-20 9 9 21 14v4q1 18 11 31t28 19q11 3 20 9 5 3 10 3t9.5-2.5q4.5-2.5 6.5-6.5 4-7 2.5-14.5T291 199zm-28-74q0 3-9 6t-21 3q-9 0-15-5.5t-5.5-13.5q.5-8 6-13t14-5.5Q241 96 248 101t10.5 12q3.5 7 3.5 12h1z"/></svg>