<svg viewBox="0 0 300 368" xmlns="http://www.w3.org/2000/svg"><path d="M244 196h-10q-9-29-30-51l13-14q24 15 52 16 8-1 13.5-6t5.5-13q0-8-5.5-13.5T269 109q-24 0-40.5-16.5T212 53q1-8-4.5-13.5T194 34q-8 0-13.5 5.5T175 53q0 28 16 51l-18 18q-17-9-35-11v-9q-1-7-6.5-12.5t-13-5.5q-7.5 0-13 5.5T100 103v8q-28 4-51 20.5t-36 42Q0 199 0 228v37q0 24 16.5 40T56 321h188q23 0 39.5-16t16.5-40v-12q0-24-16.5-40T244 197v-1zM38 265v-37q0-22 10.5-40.5T78 158q19-11 41-11 32-1 54 20 14 12 21 29-23 0-39.5 16.5T138 253v31H56q-7 0-12.5-5.5T38 265zm225 0q0 8-5.5 13.5T244 284h-69v-31q0-8 5.5-13.5T194 234h50q8 0 13.5 5.5T262 253v12h1zm-163-25q0 8-5.5 13.5T81 259q-8 0-13-5.5T63 240q0-8 5-13.5t13-5q8 .5 13.5 5.5t5.5 13z"/></svg>