<svg viewBox="0 0 300 368" xmlns="http://www.w3.org/2000/svg"><path d="M206 34q-26 0-47.5 7.5t-33.5 20Q113 74 113 90v8q-9-2-19-1-27-1-48 6.5T12.5 124Q0 137 0 153v125q0 16 12.5 28.5t33.5 20q21 7.5 47.5 7.5t48-7.5q21.5-7.5 34-20T188 278v-8q9 1 18 1 27 0 48-7t33.5-20q12.5-13 12.5-29V90q0-16-12.5-28.5t-33.5-20Q233 34 206 34zm57 119q0 2-7.5 7t-18.5 8q-14 3-31 3-9 0-19-1v-17q1-4 0-8 9 1 19 1 32 1 57-10v17zM38 198q24 11 56 11t56-11v17q0 3-7 7.5t-19 7.5q-14 4-30.5 4T63 230q-11-3-18-7.5t-7-7.5v-17zM206 71q17 1 31 4 11 3 18 8t7.5 7.5q.5 2.5-7 7T237 105q-14 4-30.5 4t-30.5-4q-12-3-19-7.5t-7-7q0-2.5 7-7.5t19-8q14-3 30-3v-1zM94 134q16 0 30 4 12 3 19 7.5t7 7q0 2.5-7 7.5t-19 8q-14 3-30.5 3T63 168q-11-3-18-8t-7-7.5q0-2.5 7-7t18-7.5q14-4 31-4zm0 162q-17 0-31-3-11-3-18.5-8t-7.5-7v-17q25 10 57 10t56-10v17q0 2-7 7t-19 8q-14 4-30 4v-1zm112-62q-9 0-19-1v-25q10 1 19 1 32 0 57-11v17q0 3-7.5 7.5T237 230q-14 4-31 4z"/></svg>