<svg viewBox="0 0 300 368" xmlns="http://www.w3.org/2000/svg"><path d="M217 109q-16-14-36.5-20.5T138 85q-34 3-58.5 27.5T51 171q-4 26 8 52 10 24 27 39 7 6 10.5 14.5T100 295q0 16 11.5 27.5T139 334h20q17 0 29-12t12-29q0-10 3.5-18.5T214 261q17-15 26.5-35t9.5-41.5q0-21.5-9-41T216 109h1zm-27 123q-13 11-20 27h-1v-53q12-6 18-19 2-6-1.5-11t-9.5-5h-52q-6 0-9.5 5t-1.5 11q6 13 18 19v53h-1q-7-15-18.5-25T93 209q-7-17-5-33 2-21 17.5-36.5T142 122h8q24-1 42 15 9 9 14.5 21.5t5.5 26q0 13.5-5.5 26T190 232zm14-170l12-19q4-7 11.5-8.5t14 2.5q6.5 4 8.5 11.5T248 63l-12 18q-5 9-16 9-5 0-9-3-7-4-9-11.5t2-13.5zm85 63l-18 8q-4 2-8.5 2t-9-3q-4.5-3-7.5-9t0-13.5q3-7.5 10-10.5l18-8q7-3 14-.5t10.5 10q3.5 7.5.5 14.5t-10 10zM51 63q-4-7-2-14.5T57.5 37q6.5-4 14-2.5T83 43l11 19q5 6 3 13.5T88 87q-4 3-9 3-11 0-16-9L51 63zm1 62q-2 5-7 8t-9.5 3q-4.5 0-8.5-2l-16-8q-7-3-9.5-10.5T2 101q3-7 10.5-9.5T27 92l16 8q7 3 9.5 10.5T52 125z"/></svg>