<svg viewBox="0 0 300 368" xmlns="http://www.w3.org/2000/svg"><path d="M288 118h-1q-23-20-48-34-35-20-70-24v-7q0-8-5.5-13.5T150 34q-8 0-13.5 5.5T131 53v7q-35 4-70 24-25 14-49 34-8 8-11 19t1.5 22Q7 170 17 177t23 7h220q13 0 23-7t14.5-18q4.5-11 1.5-22t-12-19h1zm-28 28H40q-1 1-2 0 22-20 46-32 34-18 66-18t66 18q24 12 46 32h-2zm-92 145q7 8 7 18t-7.5 17.5Q160 334 150 334t-17.5-7.5Q125 319 125 309t7-18l10-11q3-3 8-3t8 3l10 11zm74 0q8 8 8 18t-7.5 17.5q-7.5 7.5-18 7.5t-17.5-7.5q-7-7.5-7-17.5t7-18l10-11q3-3 7.5-3t7.5 3l10 11zm-150 0q8 8 8 18t-7.5 17.5q-7.5 7.5-18 7.5T57 326.5q-7-7.5-7-17.5t7-18l10-11q3-3 7.5-3t7.5 3l10 11zm38-39q-7 7-17.5 7T95 251.5q-7-7.5-7-17.5t7-18l10-11q3-3 7.5-3t7.5 3l10 11q8 8 8 18t-8 18zm75 0q-7 7-17.5 7t-18-7.5Q162 244 162 234t8-18l10-11q3-3 7.5-3t7.5 3l10 11q7 8 7 18t-7 18z"/></svg>