<svg viewBox="0 0 300 368" xmlns="http://www.w3.org/2000/svg"><path d="M300 128v112q0 19-9.5 34.5t-25 25Q250 309 231 309h-25q-8 0-13-5.5t-5.5-13.5q-.5-8 5-13.5T206 271h25q13 0 22.5-9t9.5-22V128q0-13-9.5-22T231 96H69q-9 1-16 5t-11 11q-4 7-11.5 9T16 119q-7-4-9-11.5T9 93q9-16 25-25t35-9h162q19 0 34.5 9.5t25 25Q300 109 300 128zM19 271q-8 0-13.5 5.5T0 290q0 8 5.5 13.5T19 309q8 0 13-5.5t5.5-13.5q.5-8-5-13T19 272v-1zm0-62q-8 0-13.5 5.5T0 228q0 8 5.5 13.5T19 247q18-1 31 12t13 31q0 8 5 13.5t13 5.5q8 0 13.5-5.5T100 290q0-22-11-40.5T59.5 220Q41 209 19 209zm0-63q-8 1-13.5 6T0 165q0 8 5.5 13.5T19 184q29 0 53 14.5t38.5 38.5q14.5 24 14.5 53 0 8 5.5 13.5T144 309q8 0 13.5-5.5T163 290q0-39-19.5-72T91 166q-33-19-72-20z"/></svg>