<svg viewBox="0 0 300 368" xmlns="http://www.w3.org/2000/svg"><path d="M300 278q0 8-5.5 13.5T281 297h-18v6q0 13-9.5 22t-22.5 9q-13 0-22-9t-9-22v-6h-62v6q0 13-9.5 22t-22.5 9q-13 0-22-9t-9-22v-14q-17-9-27.5-25T37 228V90q1-7-4.5-12.5T19 72 5.5 66.5Q0 61 0 53t5.5-13.5Q11 34 19 34q23 0 39.5 16.5T75 90v138q0 13 9 22t22 9h175q8 0 13.5 5.5T300 278zm0-113v38q0 13-9 22t-22 9H131q-13 0-22-9t-9-22v-38q0-13 9-22t22-9h138q13 0 22 9t9 22zm-37 7H138v25h125v-25zm-138-63h25q10 0 17.5-7t7.5-18V59q0-10-7.5-17.5T150 34h-25q-10 0-17.5 7.5T100 59v25q0 11 7.5 18t17.5 7zm156-50h-62q-8 0-13.5 5.5T200 78v12q0 8 5.5 13.5T219 109h62q8 0 13.5-5.5T300 90V78q0-8-5.5-13.5T281 59z"/></svg>