<svg viewBox="0 0 300 368" xmlns="http://www.w3.org/2000/svg"><path d="M296 97q-11-9-21-13l4-4q4-5 7-10 4-8 5.5-14.5T289 45q-4-4-10-3-10 3-21 10-5 4-8 7l-3-6q-5-8-10-15-3-4-8.5-4t-8.5 4.5q-3 4.5-5 10.5t-2 10l-5-5q-9-9-14-12.5t-10-1q-5 2.5-6 7.5-4 19-6 48-36-20-71-6-26 9-56 39-24 24-34 44-15 28-9 55 6 32 39 65 40 41 79 41 23 0 47-14 18-11 38-31 30-30 39-56 14-35-6-71 29-3 48-6 6-1 8-6t-1.5-10q-3.5-5-12.5-14l-5-5q4 0 10-2.5t10.5-5q4.5-2.5 4.5-8t-4-8.5zM178 262q-21 22-36 29-17 9-35 3.5T67 267q-22-22-27.5-40t3.5-35q7-15 29-36 17-18 29-26 15-9 28-9 24 0 54 30 22 22 27.5 40t-3.5 35q-7 15-29 36zm-66-10q2 2 .5 4.5T109 259H88q-6 0-9.5-3.5T75 246v-21q0-2 2.5-3.5t4.5.5l30 30zm62-63q2 2 1 4.5t-4 2.5h-21q-5 0-8.5-3.5T138 184v-21q0-3 2.5-4t4.5 1l29 29zm-62 0q2 2 .5 4.5T109 196H88q-6 0-9.5-3.5T75 184v-21q0-3 2.5-4t4.5 1l30 29zm62 63q2 2 1 4.5t-4 2.5h-21q-5 0-8.5-3.5T138 246v-21q0-2 2.5-3.5t4.5.5l29 30z"/></svg>