<svg viewBox="0 0 300 368" xmlns="http://www.w3.org/2000/svg"><path d="M212 243q2-9-1-18.5T201 208l-75-75q-7-7-16.5-10t-19-1q-9.5 2-17 8T63 145L3 288q-4 9-2 19t9 17q10 10 23 10 7 0 13-3l143-60q9-3 15-10.5t8-17.5zm-38-6L41 293l56-133 2-1 76 77-1 1zM161 41q4-6 12-7t14 4q10 8 17 22 10 18 8.5 38.5T196 139q-5 8-15 8-6 0-11.5-4.5t-6.5-12q-1-7.5 3-14.5 8-10 9-20.5T170 75q-3-5-7-8-6-5-6.5-12.5T161 41zm136 138q4 7 2.5 14.5t-7 11.5q-5.5 4-11.5 4-9 0-15-8-4-5-9-5t-8 3q-6 5-14 3.5t-12.5-7.5q-4.5-6-3.5-13.5t7-12.5q13-10 29.5-10t29.5 9q7 6 12 11zM263 53q0-8 5-13.5t13-5.5q8 0 13.5 5.5T300 53q0 8-5.5 13T281 71q-8 0-13-5t-5-13zm-25 62q0-8 5-13.5t13-5.5q8 0 13.5 5.5T275 115q0 8-5.5 13.5T256 134q-8 0-13-5.5t-5-13.5zM100 65q0-8 5.5-13.5T119 46q8 0 13.5 5.5T138 65q0 8-5.5 13.5T119 84q-8 0-13.5-5.5T100 65zm188 200q0 8-5.5 13.5T269 284q-8 0-13.5-5.5T250 265q0-8 5.5-13t13.5-5.5q8-.5 13.5 5T288 265zM13 78q0-8 5-13.5T31 59q8 0 13.5 5.5T50 78q0 8-5.5 13T31 96.5q-8 .5-13-5T13 78zm212 237q0 8-5.5 13.5T206 334q-8 0-13.5-5.5T187 315q0-8 5.5-13.5T206 296q8 0 13.5 5.5T225 315z"/></svg>