<svg viewBox="0 0 300 368" xmlns="http://www.w3.org/2000/svg"><path d="M107 282l-7 37q-2 7-7 11t-12 4h-4q-7-2-11.5-8.5T63 312l7-38q1-5 4.5-8.5T83 260q5-2 10-1t8.5 4.5q3.5 3.5 5 8.5t.5 10zm49-186q13 0 22-9t9.5-22q.5-13-9-22T156 34q-13 0-22 9t-9 22q0 13 9 22.5t22 8.5zm119 57v162q0 8-5.5 13.5T256 334q-8 0-13.5-5.5T237 315V196h-32q-10 1-18.5-3.5T172 181l-13-16-15 60 14 12q8 6 12.5 15t4.5 19v44q0 8-5.5 13.5T156 334q-8 0-13-5.5t-5-13.5v-44q0-3-3-5l-34-27q-4-3-8-8-9 3-18 3-21 1-36-14t-14.5-35.5q.5-20.5 13-37.5t34-27.5Q93 109 118 109h23q10 1 20 6t16 14l23 28q2 2 5 2h33v-6q-1-8 4.5-13.5T256 134q8 0 13.5 5.5T275 153zM75 196q8 0 13-7l10-40q-16 5-25.5 14.5T63 184q-1 6 2.5 9.5T75 197v-1z"/></svg>