<svg viewBox="0 0 300 368" xmlns="http://www.w3.org/2000/svg"><path d="M150 34q-41 0-75.5 20T20 108.5Q0 143 0 184q2 57 33 95 29 35 73 47.5t88 0q44-12.5 73-47.5 31-38 33-95 0-41-20-75.5T225.5 54Q191 34 150 34zm0 262q-31 0-56.5-15t-41-40.5Q37 215 37 184q2-43 26-72 21-26 54-35t66 0q33 9 54 35 24 29 26 72-1 31-16 56.5t-40.5 41Q181 297 150 297v-1zm50-82q0 15-9 27t-22 16v8q0 12-9.5 16.5t-19 0Q131 277 131 265v-7q-9-2-16.5-7.5t-11.5-13q-4-7.5-2-15t8.5-11q6.5-3.5 14-1.5t11.5 8q2 3 5 4h15q4 0 6-3t1-6.5q-1-3.5-4-5.5l-30-12q-18-6-24.5-24.5t1-36Q112 117 131 111v-8q0-12 9.5-16.5t19 0Q169 91 169 103v7q9 2 16.5 7.5t11.5 13q4 7.5 2 15t-8.5 11q-6.5 3.5-14 1.5t-11.5-8q-2-4-5-4h-15q-4 0-6 3t-1 6.5q1 3.5 4 5.5l30 12q13 5 20.5 16t7.5 25z"/></svg>