<svg viewBox="0 0 300 368" xmlns="http://www.w3.org/2000/svg"><path d="M225 109q-23 0-44 14-17 10-31 28-14-18-31-28-21-14-44-14-20 0-37.5 10T10 146.5Q0 164 0 184t10 37.5Q20 239 37.5 249T75 259q23 0 44-14 17-10 31-28 14 18 31 28 21 14 44 14 20 0 37.5-10t27.5-27.5q10-17.5 10-37.5t-10-37.5Q280 129 262.5 119T225 109zM75 221q-16 0-27-10.5T37.5 184q.5-16 11-27t26-11q15.5 0 31.5 14 12 9 22 24-10 15-22 24-16 13-31 13zm150 0q-15 0-31-13-12-9-22-24 10-15 22-24 16-13 31.5-13.5T252 157q11 11 11 27t-11 27q-11 11-27 10z"/></svg>