<svg viewBox="0 0 300 368" xmlns="http://www.w3.org/2000/svg"><path d="M150 330q-12 0-21-8l-45-38H69q-19 0-34.5-9.5t-25-25Q0 234 0 215V103q0-19 9.5-34.5t25-25Q50 34 69 34h162q19 0 34.5 9.5t25 25Q300 84 300 103v112q0 19-9.5 34.5t-25 25Q250 284 231 284h-14l-47 38q-8 8-20 8zm-4-36zm8-1zM69 71q-13 0-22 9.5T38 103v112q0 13 9 22t22 9h22q7 0 12 5l47 39 48-39q5-5 12-5h21q13 0 22.5-9t9.5-22V103q0-13-9.5-22.5T231 71H69zm37 38q-8 0-13 5.5T88 128q0 8 5 13t13 5q8 0 13.5-5t5.5-13q0-8-5.5-13.5T106 109zm88 0q-8 0-13.5 5.5T175 128q0 8 5.5 13t13.5 5q8 0 13.5-5t5.5-13q0-8-5.5-13.5T194 109zm19 88q6-5 6-12.5t-5.5-13.5q-5.5-6-13-6t-13.5 5v1q-5 4-11 7-12 6-26 6t-27-7q-8-4-10-6-5-6-13-6t-13.5 5.5Q81 176 81 184t6.5 14q6.5 6 17.5 12 21 11 45 11t45-11q11-6 18-13z"/></svg>