<svg viewBox="0 0 300 368" xmlns="http://www.w3.org/2000/svg"><path d="M282 140q13-13 16.5-31.5t-3.5-36q-7-17.5-23-28T237 34H63q-19 0-35 10.5t-23 28q-7 17.5-3.5 36T18 140Q6 152 2 168t0 32q4 16 16 28-13 13-16.5 31.5t3.5 36q7 17.5 23 28T62 334h176q18 0 34-10.5t23-28q7-17.5 3.5-36T282 228q12-12 16-28t0-32q-4-16-16-28zM63 209q-11 0-18-7.5T38 184q0-10 7-17.5t18-7.5v6q0 8 5 13.5t13 5.5q8 0 13.5-5.5T100 165v-6h25v6q0 8 5.5 13.5T144 184q8 0 13-5.5t6-13.5v-6h75q10 0 17.5 7.5T263 184q0 10-7.5 17.5T238 209H63zm0-138v7q0 8 5 13.5T81 97q8 0 13.5-5.5T100 78v-7h25v7q0 8 5.5 13.5T144 97q8 0 13-5.5t6-13.5v-7h75q10 0 17.5 7.5t7.5 18q0 10.5-7.5 18T238 121H63q-11 0-18-7t-7-17.5Q38 86 45 79t18-7v-1zm175 225H63q-11 0-18-7t-7-17.5q0-10.5 7-17.5t18-8v7q0 8 5 13.5t13 5q8-.5 13.5-5.5t5.5-13v-7h25v7q0 8 5.5 13.5t13.5 5q8-.5 13.5-5.5t5.5-13v-7h75q10 1 17.5 8t7.5 17.5q0 10.5-7.5 17.5t-17.5 7z"/></svg>