<svg viewBox="0 0 300 368" xmlns="http://www.w3.org/2000/svg"><path d="M300 190q0 8-5.5 13.5T281 209h-18q-12 0-22-5.5T225 188l-7-12-17 41 33 19q10 5 16 15.5t6 22.5v41q0 8-5.5 13.5t-13 5.5q-7.5 0-13-5.5T219 315v-41q0-4-3-6l-51-29q-14-9-19-24t1-30l16-39h-16q-4 0-6 4l-18 36q-3 7-10.5 9.5t-14.5-1q-7-3.5-9.5-11T89 169l19-36q5-11 15.5-17.5T147 109h50q11 0 21 5.5t16 15.5l23 38q2 3 5 3h19q8 0 13.5 5.5T300 190zm-156 55q-7-3-14 0t-10 10q-1 4-6 4H63q-6 0-9.5-3.5t-3.5-9q0-5.5 3.5-9T63 234h10q2-25 2-50 0-41-5-75.5T56.5 54q-8.5-20-19-20t-19 20Q10 74 5 108.5T0 184q0 41 5 75.5T18.5 314Q27 334 38 334q6 0 12.5-10T62 296h52q14 0 25-7t16-20q3-7 0-14t-11-10zm81-149q13 0 22-9t9-22q0-13-9-22t-22-9q-13 0-22 9t-9 22q0 13 9 22t22 9z"/></svg>