<svg viewBox="0 0 300 368" xmlns="http://www.w3.org/2000/svg"><path d="M213 221q0 11-7.5 18t-17.5 7v-50q10 0 17.5 7.5T213 221zm62-85v129q0 19-9.5 34.5t-25 25Q225 334 206 334H94q-19 0-34.5-9.5t-25-25Q25 284 25 265V103q0-19 9.5-34.5t25-25Q75 34 94 34h79q29 0 49 20l33 33q20 20 20 49zm-37 129V146h-50q-11 0-18-7t-7-18V71H94q-13 0-22.5 9.5T62 103v162q1 13 10 22t22 9h112q13 0 22-9t9-22h1zm-88-94q-7 2-22 14l-14 11h-8q-8 1-13.5 6T87 215v12q1 8 6 13.5t13 5.5h8l14 11q15 12 22.5 14t10-2q2.5-4 2.5-11v-74q0-7-2.5-10.5T150 171z"/></svg>