<svg viewBox="0 0 300 368" xmlns="http://www.w3.org/2000/svg"><path d="M281 296H69q-13 0-22-9t-9-22V53q0-8-5.5-13.5T19 34q-8 0-13.5 5.5T0 53v212q0 19 9.5 34.5t25 25Q50 334 69 334h212q8 0 13.5-5.5T300 315q0-8-5.5-13.5T281 296zm0-212h-38q-4 0-7 2t-4.5 5.5q-1.5 3.5-1 7t3.5 6.5l9 9-45 45q-2 2-4.5 2t-4.5-2l-2-2q-13-13-31-13t-31 13l-51 51q-4 4-5 8.5t0 9.5q1 5 4.5 8.5t8.5 5q5 1.5 10 0t9-4.5l51-52q2-1 4.5-1t4.5 1l2 3q13 12 31 12t31-12l45-45 9 9q2 3 6 3.5t7.5-1q3.5-1.5 5.5-4.5t2-7v-39q0-7-5.5-12.5T281 84z"/></svg>