<svg viewBox="0 0 300 368" xmlns="http://www.w3.org/2000/svg"><path d="M194 34h-88q-18 0-34 9.5t-25.5 25Q37 84 38 103v162q0 19 9 34.5t25 25q16 9.5 34 9.5h88q18 0 34-9.5t25.5-25Q263 284 263 265V103q0-19-9.5-34.5t-25.5-25Q212 34 194 34zm31 231q0 13-9 22t-22 9h-6v-38q5-2 8.5-7t3.5-12q0-7-5.5-12.5T181 221h-62q-8 1-13.5 6t-5.5 12q0 7 3.5 12t9.5 7v38h-7q-13 0-22-9t-9-22V103q0-13 9-22.5t22-9.5h88q13 0 22 9.5t9 22.5v162zm-87-94v13q0 5-4 8.5t-9 3.5h-12q-6 0-9.5-3.5T100 184v-13q0-5 3.5-8.5t8.5-3.5h13q5 0 8.5 3.5t3.5 9.5l1-1zm62 0v13q0 5-3.5 8.5T187 196h-12q-5 0-8.5-3.5T163 184v-13q0-5 3.5-8.5t8.5-3.5h13q5 0 8.5 3.5t3.5 9.5v-1zm-62-62v12q0 6-4 9.5t-9 3.5h-13q-5 0-8.5-3.5T100 121v-12q0-5 3.5-8.5T112 97h13q5 0 8.5 3.5t3.5 8.5h1zm62 0v12q0 6-3.5 9.5T187 134h-12q-5 0-8.5-3.5T163 121v-12q0-5 3.5-8.5T175 97h13q5 0 8.5 3.5t3.5 8.5z"/></svg>