<svg viewBox="0 0 300 368" xmlns="http://www.w3.org/2000/svg"><path d="M114 245q-7-17-21-26.5T61 209H19q-8 0-13.5 5.5T0 228q0 8 5.5 13.5T19 247h6v24h-6q-8 1-13.5 6T0 290q0 8 5.5 13.5T19 309h6v6q0 8 5.5 13.5T44 334q8 0 13-5.5t5-13.5q1 8 6 13.5t13 5.5q8 0 13.5-5.5T100 315v-6q11-2 18-10t7-19q0-6-2-11l-9-24zm-51 2q5 0 9.5 3t6.5 8l5 13H63v-24zm237 6q0 23-16.5 39.5T244 309h-75q-8 0-13.5-5.5T150 290q0-8 5.5-13.5T169 271h75q8 0 13.5-5.5t5.5-13q0-7.5-5.5-13T244 234h-88q-23 0-39.5-16.5T100 178q0-18 10.5-34t27.5-21q7-3 14 .5t9.5 10.5q2.5 7-1 14T150 158q-5 2-8.5 7.5T138 178q0 7 5 12.5t13 5.5h88q23 0 39.5 16.5T300 253zM282 52q-19-18-44.5-18T193 52q-12 12-16 28t0 32q4 16 16 28l19 21q10 11 25.5 11t25.5-11l19-20q18-19 18-44.5T282 52zm-44 67q-11 0-18-7.5t-7-18q0-10.5 7-17.5t17.5-7q10.5 0 18 7t7.5 17.5q0 10.5-7.5 18T238 119z"/></svg>