<svg viewBox="0 0 300 368" xmlns="http://www.w3.org/2000/svg"><path d="M231 59h-6v-6q0-8-5.5-13.5T206 34q-8 0-13 5.5T188 53v6h-75v-6q0-8-5.5-13.5T94 34q-8 0-13.5 5.5T75 53v6h-6q-19 0-34.5 9.5t-25 25Q0 109 0 128v137q0 18 8.5 33T31 323q3 3 8 4 14 7 30 7h162q19 0 34.5-9.5t25-25Q300 284 300 265V128q0-19-9.5-34.5t-25-25Q250 59 231 59zM43 283q-5-8-5-18V146h225v18l-68 67q-3 3-7.5 3t-7.5-3l-8-8q-14-14-34.5-14T103 223l-60 60zm188 13H83l47-46q3-4 7.5-4t7.5 4l8 7q14 14 34.5 14t34.5-14l41-40v48q0 13-9.5 22t-22.5 9zM100 190q0 8-5.5 13.5T81 209q-8 0-13-5.5T63 190q0-8 5-13.5t13-5.5q8 0 13.5 5.5T100 190z"/></svg>