<svg viewBox="0 0 300 368" xmlns="http://www.w3.org/2000/svg"><path d="M256 96h-2l-5-7q-24-31-60-45t-75-8q-39 6-69 33.5T5 135q-9 32-2 63.5T30 256q8 10 8 20v2q0 23 16 39.5T94 334h62q18 0 33-10.5t20-27.5q16-2 30-11t22-23q4-7 2-14.5t-9-11q-7-3.5-14.5-1.5t-11.5 9q-4 7-11 11t-16 4h-7q-8 0-13.5 5.5T175 278t-5.5 13.5Q164 297 156 297H94q-8 0-13.5-6T75 278v-2q0-23-15-43-9-12-15-25-7-18-7-36h78q6 16 20.5 26.5T169 209h87q18 0 31-13t13-31v-25q0-18-13-30.5T256 97v-1zM121 73q23-4 44.5 2.5T204 96h-35q-18 0-32.5 10.5T116 134H45q9-24 30-40.5T121 73zm142 92q0 3-2 4.5t-5 1.5h-87q-8 0-13.5-5t-5.5-13q0-8 5.5-13.5T169 134h87q3 0 5 2t2 4v25z"/></svg>