<svg viewBox="0 0 300 368" xmlns="http://www.w3.org/2000/svg"><path d="M52 294q-22 0-37-15T0 242V126q0-15 7.5-27.5t21-19Q42 73 56.5 74T83 84l36 27q4-12 12.5-21T152 77q12-4 24.5-2t23.5 9l79 58q10 7 15.5 18.5T300 184q0 12-5.5 23.5T279 226l-79 58q-11 7-23.5 9t-24.5-2q-12-4-20.5-13T119 257l-36 27q-14 10-31 10zm84-91q7 0 12.5 5.5T154 222v20q0 4 2.5 7.5t6 5.5q3.5 2 7.5 1.5t7-2.5l80-58q5-5 5-12t-5-12l-80-58q-3-2-7-2.5t-7.5 1.5q-3.5 2-6 5.5T154 126v20q0 5-2.5 9.5t-7.5 7q-5 2.5-10 2t-9-3.5l-64-47q-4-2-8-2.5t-7.5 1.5q-3.5 2-5.5 5.5t-3 7.5v116q1 4 3 7.5t5.5 5.5q3.5 2 7.5 1.5t8-2.5l64-47q4-4 11-4z"/></svg>