<svg viewBox="0 0 300 368" xmlns="http://www.w3.org/2000/svg"><path d="M144 134q-13-12-32-12.5T72.5 131Q52 141 36 157t-26 36.5Q0 214 0 233.5T13 265q28 29 73 47 35 14 77 21l7 1q18 0 30-12 7-8 10.5-18t1.5-20q-8-42-22-76-18-45-46-74zm-82 50q12-12 27-19 12-6 22-6 5 0 6 2 11 10 20 24-20 12-41 33t-33 40q-14-9-24-19-3-3-1.5-12t8-21Q52 194 62 184zm112 111q-2 2-5 1-25-4-49-12 8-10 19.5-21.5T163 241q8 25 12 50 0 2-1 4zM300 93q0 34-16 73-12 29-32 60-5 8-15 8-6 0-11-3-6-4-7.5-12t2.5-14q7-11 12-20l-18-2q-8 0-12-8-11-22-26-40-3-4-1-8t6-4q13-2 26-2 29 1 50 5 4-18 4-33 0-4-7.5-9T236 76q-14-5-31-5t-32 6q-15 6-20.5 12.5t-13.5 7q-8 .5-14-4.5t-6.5-12.5Q118 72 123 66q12-15 35-23.5t47.5-8.5q24.5 0 46 7t35 20.5Q300 75 300 93z"/></svg>