<svg viewBox="0 0 300 368" xmlns="http://www.w3.org/2000/svg"><path d="M288 183l-23-51q-10-22-30-35t-44-13h-6l-7-33q-2-8-8-12.5T156.5 34q-7.5 0-14 4.5T135 51l-7 33H69q-19 0-34.5 9.5t-25 25Q0 134 0 153v100q0 16 10.5 28.5T37 296v1q0 15 11 26t27 11q16 0 27-11t11-26h62q0 15 11 26t26.5 11q15.5 0 26.5-11t11-26h6q18 0 31-13t13-31v-11q0-31-12-59zm-25 70q0 2-2 4t-5 2H44q-3 0-4.5-2t-1.5-4V153q0-13 9-22t22-9h122q4 0 9 1v61q0 10 7.5 17.5T225 209h32q6 16 6 33v11zm-100-63q0 8-5.5 13.5T144 209h-6v6q0 8-5.5 13.5T119 234q-8 0-13.5-5.5T100 215v-6h-6q-8 0-13.5-5.5T75 190q0-8 5.5-13.5T94 171h6v-6q0-8 5.5-13.5T119 146q8 0 13 5.5t6 13.5v6h6q8 0 13 5.5t6 13.5z"/></svg>