<svg viewBox="0 0 300 368" xmlns="http://www.w3.org/2000/svg"><path d="M131 103V65q0-8 5.5-13.5t13.5-5q8 .5 13.5 5.5t5.5 13v38q0 8-5.5 13.5t-13.5 5q-8-.5-13.5-5.5t-5.5-13zm88 6q8 0 13.5-5.5T238 90V65q-1-8-6-13.5t-13-5q-8 .5-13.5 5.5T200 65v25q0 8 5.5 13.5T219 109zm-138 0q8 0 13.5-5.5T100 90V65q0-8-5.5-13.5t-13.5-5Q73 47 68 52t-5 13v25q-1 8 4.5 13.5T81 109zm192 175q-56 36-123 37-67-1-123-37-14-9-21-23.5T0 230q1-16 10-30 5-6 10-11-5-5-11-10-9-10-9-24t10.5-24Q21 121 35 121.5T59 132q10 10 27 20 33 19 64 19t64-19q17-10 27-20 7-7 15.5-9.5t17.5-.5q9 2 15.5 8.5t9 15.5q2.5 9 .5 17.5t-8 14.5l-11 11q10 9 15.5 22t4.5 27q-1 14-8 26t-19 20zm-14-63q-5-8-14.5-10t-16.5 4q-36 23-78 25-42-2-77-25-6-4-13-4t-13 4.5q-6 4.5-8.5 11.5t0 14q2.5 7 9.5 11 46 30 102 32 56-2 102-31 8-6 10-15t-3-17z"/></svg>