<svg viewBox="0 0 300 368" xmlns="http://www.w3.org/2000/svg"><path d="M263 222v-44q-1-31-16-57t-42-41q-3-20-19-33t-36-13q-20 0-36 13T95 80q-27 15-42 41t-15 57v44q-17 2-27.5 14.5T0 265v25q0 18 13 31t31 13h25q18 0 31-13t13-31v-25q-1-16-11.5-28.5T75 222v-44q0-17 7-32t20-26q8 12 20.5 19t27.5 7q15 0 27.5-7t20.5-19q13 11 20 26t7 32v44q-16 2-26.5 14.5T187 265v25q1 18 13.5 31t30.5 13h25q18 0 31-13t13-31v-25q0-16-10.5-28.5T262 222h1zM75 290q0 3-2 4.5t-4 1.5H44q-3 0-4.5-1.5T38 290v-25q0-2 1.5-4t4.5-2h25q2 0 4 2t2 4v25zm75-181q-8 0-13.5-5.5T131 90q0-8 5.5-13.5T150 71q8 0 13.5 5.5T169 90q0 8-5.5 13.5T150 109zm113 181q0 3-2 4.5t-5 1.5h-25q-2 0-4-1.5t-2-4.5v-25q0-2 2-4t4-2h25q3 0 5 2t2 4v25z"/></svg>