<svg viewBox="0 0 300 368" xmlns="http://www.w3.org/2000/svg"><path d="M263 221h-50v-18q0-8 5-13.5t13.5-5.5q8.5 0 13.5 6t13 6.5q8 .5 13.5-4.5t6-13q.5-8-4.5-14-8-9-19-13.5t-23-4.5q-23-1-39.5 15.5T175 203v28q-13 11-13 28v37q0 16 11 27t27 11h62q16 0 27-11t11-27v-37q0-16-11-26.5T262 222l1-1zm-32 75q-8 0-13.5-5t-5.5-13q0-8 5.5-13.5T231 259q8 0 13.5 5.5T250 278q0 8-5.5 13t-13.5 5zM100 34q-20 0-37.5 10T35 71.5Q25 89 25 109t10 37.5Q45 164 62.5 174t37.5 10q20 0 37.5-10t27.5-27.5q10-17.5 10-37.5t-10-37.5Q155 54 137.5 44T100 34zm0 112q-16 0-27-10.5T62 109q0-16 11-27t27-11q16 0 27 11t11 27q0 16-11 26.5T100 146zm37 88q-2 8-8.5 12t-14 2q-7.5-2-14.5-2-17 0-31.5 8.5t-22.5 23Q38 292 38 309v6q0 8-5.5 13.5T19 334q-8 0-13.5-5.5T0 315v-6q0-27 13.5-50T50 222.5Q73 209 100 209q12 0 23 3 8 1 12 8t2 14z"/></svg>