<svg viewBox="0 0 300 368" xmlns="http://www.w3.org/2000/svg"><path d="M255 184q12-14 11-33.5T252 118l-36-36q-13-13-32.5-14T149 79q-1-19-15.5-32T100 34H50q-21 0-35.5 14.5T0 84v175q0 20 10 37.5T37.5 324Q55 334 75 334h175q21 0 35.5-14.5T300 284v-50q0-19-13-33.5T255 184zm-65-75l35 35q4 4 4 9t-4 9l-75 75V131l22-22q4-4 9-4t9 4zM38 146h75v38H38v-38zm12-75h50q5 1 8.5 4.5T112 84v25H38V84q0-5 3.5-9t8.5-4zM38 259v-38h75v38q0 16-11 27t-27 10.5q-16-.5-27-11T37 259h1zm225 25q-1 5-4.5 8.5T250 296H144l75-75h31q5 0 8.5 4t3.5 9v50h1zm-188-6q-8 0-13.5-5.5T56 259q0-8 5.5-13.5T75 240q8 0 13.5 5.5T94 259q0 8-5.5 13.5T75 278z"/></svg>