<svg viewBox="0 0 300 368" xmlns="http://www.w3.org/2000/svg"><path d="M150 34q-41 0-75.5 20T20 108.5Q0 143 0 184t20 75.5Q40 294 74.5 314t75.5 20q41 0 75.5-20t54.5-54.5q20-34.5 20-75.5t-20-75.5Q260 74 225.5 54T150 34zm0 262q-31 0-56.5-15t-41-40.5Q37 215 37.5 184T53 127.5q15-25.5 40.5-41t56.5-15q31 .5 56.5 15.5t41 40.5q15.5 25.5 15 56.5T247 240.5q-15 25.5-40.5 41T150 297v-1zm63-80q0 18-13 30.5T169 259h-31q-16 0-25-3-16-5-24-20-3-7-.5-14.5T98 211q7-3 14.5-1t10.5 9q1 2 15 3h31q3-1 4.5-2.5t1.5-5q0-3.5-4-4.5l-52-16q-14-4-22.5-15.5T88 152q0-18 12.5-30.5T131 109h32q15 0 24 3 16 5 24 20 3 7 .5 14.5T202 157q-7 3-14.5 1t-10.5-9q-1-2-15-3h-31q-3 0-4.5 2t-1.5 5.5q0 3.5 4 4.5l52 16q14 4 23 15.5t9 26.5z"/></svg>