<svg viewBox="0 0 300 368" xmlns="http://www.w3.org/2000/svg"><path d="M69 296q-13 0-22-9t-9-22V53q0-8-5.5-13.5T19 34q-8 0-13.5 5.5T0 53v212q0 19 9 35t25 25q16 9 35 9h212q8 0 13.5-5.5T300 315q0-8-5.5-13.5T281 296H69zm175-37q8 0 13.5-5.5T263 240v-75q0-8-5.5-13.5T244 146q-8 0-13.5 5.5T225 165v75q0 8 5.5 13.5T244 259zm-150 0q8 0 13.5-5.5T113 240v-75q-1-8-6-13.5T94 146q-8 0-13.5 5.5T75 165v75q0 8 5.5 13.5T94 259zm75 0q8 0 13.5-5.5T188 240V103q0-8-5.5-13.5T169 84q-8 0-13.5 5.5T150 103v137q0 8 5.5 13.5T169 259z"/></svg>