<svg viewBox="0 0 300 368" xmlns="http://www.w3.org/2000/svg"><path d="M138 146q0-7 5-12.5t13-5.5h13v-13q0-8 5.5-13t13-5.5q7.5-.5 13 5T206 115v13h13q8 0 13.5 5.5t5.5 13q0 7.5-5.5 13T219 165h-13v13q0 8-5.5 13.5t-13 5.5q-7.5 0-13-5.5T169 178v-13h-13q-8 0-13.5-5.5T137 147l1-1zm150-43v162q0 19-9.5 34.5t-25.5 25q-16 9.5-34 9.5H69q-24 0-40-16.5T13 278V103q0-19 9-34.5t25-25Q63 34 81 34h138q18 0 34 9.5t25.5 25Q288 84 288 103zm-69-32h-94v150h125V103q0-13-9-22.5T219 71zM50 103v122q9-4 19-4h19V71h-7q-13 0-22 9.5T50 103zm200 162v-6H69q-8 0-13.5 5.5T50 278q0 8 5.5 13t13.5 5h150q13 0 22-9t9-22z"/></svg>