<svg viewBox="0 0 300 368" xmlns="http://www.w3.org/2000/svg"><path d="M263 315q0 8-5.5 13.5T244 334q-8 0-13.5-5.5T225 315q0-13-9-22t-22-9h-88q-13 0-22 9t-9 22q0 8-5.5 13.5T56 334q-8 0-13.5-5.5T38 315q0-18 9-34t25-25.5q16-9.5 34-9.5h88q18 0 34 9.5t25.5 25.5q9.5 16 8.5 34h1zm12-187v25q0 8-5.5 13t-13.5 5h-6q-3 22-19 36t-37 14h-88q-21 0-37-14t-19-35h-6q-8-1-13.5-6T25 153v-25q0-8 5.5-13.5T44 109h6q3-21 19-35.5T106 59h25v-6q0-8 5.5-13.5T150 34q8 0 13.5 5.5T169 53v6h25q21 0 37 14.5t19 35.5h6q8 0 13.5 5.5T275 128zm-62-13q0-8-5.5-13.5T194 97h-88q-8 0-13 5t-5 13v50q0 8 5 13.5t13 5.5h88q8 0 13.5-5.5T212 165v-50h1zm-10 4q-4-4-9-4t-9 4l-4 4-3-4q-4-4-9-4t-9 4q-4 4-4 9t4 9l4 3-4 4q-4 4-4 9t4 8.5q4 3.5 9 3.5t9-3l3-4 4 4q4 3 9 3t8.5-3.5q3.5-3.5 3.5-8.5t-3-9l-4-4 4-3q3-4 3-9t-3-9zm-63 0q-4-4-9-4t-9 4l-3 4-4-4q-4-4-9-4t-8.5 4q-3.5 4-3.5 9t3 9l4 3-4 4q-3 4-3 9t3.5 8.5q3.5 3.5 8.5 3.5t9-3l4-4 3 4q4 3 9 3t9-3.5q4-3.5 4-8.5t-4-9l-4-4 4-3q4-4 4-9t-4-9z"/></svg>