<svg viewBox="0 0 300 368" xmlns="http://www.w3.org/2000/svg"><path d="M150 34q-41 0-75.5 20T20 108.5Q0 143 0 184t20 75.5Q40 294 74.5 314t75.5 20q41 0 75.5-20t54.5-54.5q20-34.5 20-75.5t-20-75.5Q260 74 225.5 54T150 34zm0 262q-31 1-56.5-14.5t-41-41Q37 215 37.5 184T53 127.5Q68 102 93.5 87T150 72q31 0 56.5 15t40.5 40.5q15 25.5 15.5 56.5t-15 56.5Q232 266 206.5 281T150 296zm63-168v112q0 8-5.5 13.5T194 259q-8 0-13.5-5.5T175 240v-37h-50v37q0 8-5.5 13.5T106 259q-8 0-13.5-5.5T87 240V128q1-8 6-13.5t13-5.5q8 0 13.5 5.5T125 128v37h50v-37q0-8 5.5-13.5T194 109q8 0 13.5 5.5T213 128z"/></svg>