<svg viewBox="0 0 300 368" xmlns="http://www.w3.org/2000/svg"><path d="M281 71q8 0 13.5-5t5.5-13q0-8-5.5-13.5T281 34H19q-8 0-13.5 5.5T0 53q0 8 5.5 13T19 71h4Q12 91 6 114t-6 45q0 35 19 82 12 30 30 59 9 16 25 25t34 9h84q18 0 34-9t25-25q18-29 30-59 19-47 19-82 0-22-6-45t-17-43h4zm-18 88q0 23-12 56t-32 66q-4 7-11.5 11t-15.5 4h-84q-8 0-15.5-4T81 281q-20-33-31.5-66T38 159q0-23 8-46.5T68 72h7q5 0 9 3.5t4 8.5v81q0 8 5 13.5t13 5.5q8 0 13.5-5.5T125 165V84q0-5 3.5-9t9-4q5.5 0 9 4t3.5 9v31q0 8 5.5 13.5T169 134q8 0 13.5-5.5T188 115V84q0-5 3.5-9t8.5-4h32q14 18 22.5 41.5T263 159z"/></svg>