<svg viewBox="0 0 300 368" xmlns="http://www.w3.org/2000/svg"><path d="M0 177q2-40 22.5-72.5t54-51.5Q110 34 150 34t73.5 19q33.5 19 54 51.5T300 177q0 8-5 13.5t-13 5.5l-1 1q-7-1-12.5-6t-5.5-12q-2-30-17.5-54.5t-40.5-39Q180 71 150 71T95 85.5q-25 14.5-40.5 39T37 179q0 7-5.5 12.5t-13.5 5q-8-.5-13-6T0 177zm166 118q-16 3-32 0-8-1-14 4t-7 12.5q-1 7.5 3.5 13.5t12.5 7q10 2 21 2t21-2q8-1 12.5-7t3.5-13.5q-1-7.5-7-12.5t-14-4zm-45-169q-7-7-19.5-3.5T78 137q-11 11-14.5 23.5t3.5 19q7 6.5 19.5 3.5t23.5-14q11-11 14-23.5t-3-19.5zm112 54q7-7 3.5-19.5T222 137q-11-11-23.5-14.5t-19 3.5q-6.5 7-3.5 19.5t14 23.5q11 11 23.5 14t19.5-3zm-83 4q-16 0-26.5 11T113 222v12q0 16 10.5 26.5T150 271q16 0 26.5-10.5T187 234v-13q1-15-10-26t-27-11zM11 226q-8 5-10.5 15.5T4 260q4 7 9 18 10 22 11 45 1 5 4.5 8t8.5 3h38q5 0 9-4t3-10q-3-29-20-58-9-16-21-29-6-9-16-11t-19 4zm278 0q-9-6-18.5-4T254 233q-12 13-21 29-17 29-20 58-1 6 3 10t9 4h38q5 0 8.5-3t4.5-8q2-23 11-45 5-11 9-18 6-8 3.5-18.5T289 226z"/></svg>