<svg viewBox="0 0 300 368" xmlns="http://www.w3.org/2000/svg"><path d="M234 84l-31-40q-7-10-20-10h-66q-13 0-20 10L66 84q-18 1-33 10.5t-24 25Q0 135 0 153v112q0 19 9.5 34.5t25 25Q50 334 69 334h162q19 0 34.5-9.5t25-25Q300 284 300 265V153q0-18-9-33.5t-24-25Q252 85 234 84zm29 181q-1 13-10 22t-22 9H69q-13 0-22-9t-9-22V153q0-13 9-22t22-9h162q13-1 22 8.5t9 22.5l1 112zM150 140q-19 0-34.5 9.5t-25 25Q81 190 81 209t9.5 34.5q9.5 15.5 25 25T150 278q19 0 34.5-9.5t25-25Q219 228 219 209t-9.5-34.5q-9.5-15.5-25-25T150 140zm0 100q-13 0-22-9t-9-22q0-13 9-22t22-9q13 0 22 9t9 22q0 13-9 22t-22 9z"/></svg>