<svg viewBox="0 0 300 368" xmlns="http://www.w3.org/2000/svg"><path d="M144 209q-11 0-18-7.5t-7-17q0-9.5 6-16.5v-53q0-8 5.5-13t13.5-5.5q8-.5 13.5 5T163 115v53q6 7 6 16.5t-7.5 17Q154 209 144 209zm-49 29l-20 15q-1 1-3 1t-4-2q-17-17-25-40.5T38 164q3-24 16-44t33.5-32.5Q108 75 131 72q28-3 52.5 7t41.5 30.5q17 20.5 23 46.5 1 8 7.5 12.5t14.5 3q8-1.5 12-8t3-14.5q-8-36-31-63.5t-56.5-41Q164 31 127 35q-32 4-59 21t-45 44Q5 127 1 159.5t6.5 64Q18 255 42 279q12 13 30 13 15 0 27-10l19-14q6-5 7-13t-4-14q-5-6-12.5-7T95 238zm205 21q0 20-10 37.5T262.5 324Q245 334 225 334t-37.5-10Q170 314 160 296.5T150 259q0-20 10-37.5t27.5-27.5q17.5-10 37.5-10t37.5 10q17.5 10 27.5 27.5t10 37.5zm-40-2q-3-5-7.5-7.5T242 247h-25l16-25q3-5 2-10t-5.5-8q-4.5-3-9.5-2t-8 6l-24 37q-3 10 3.5 18.5T208 272h25l-17 24q-3 5-2 10t5 8q4 3 9 2t8-5l23-33q3-5 3.5-10.5T260 257z"/></svg>