<svg viewBox="0 0 300 368" xmlns="http://www.w3.org/2000/svg"><path d="M113 140q2-15 6.5-28.5T125 84q0-10-3.5-19.5T111 48q-7-7-16.5-10.5T75 34q-10 0-19.5 3.5T39 48q-7 7-10.5 16.5T25 84q1 14 5.5 27.5T37 140q-2 20-14 37-21 30-23 67 0 30 12 58 6 15 19 23.5t28 8.5h32q15 0 28-8.5t19-23.5q12-28 12-58-2-37-23-67-12-17-14-37zM75 71q7 0 10 3t3 9q-1 2-5 17l-5 22h-6l-9-38q0-7 2.5-10t9.5-3zm29 216q-2 4-5.5 6.5T91 296H59q-4 0-7.5-2.5T46 287q-9-21-8-43 2-27 17-49 11-17 17-36h6q6 19 17 36 15 22 18 49 0 22-9 43zm173-110q-12-17-14-37 2-15 6.5-28.5T275 84q0-10-3.5-19.5T261 48q-7-7-16.5-10.5T225 34q-10 0-19.5 3.5T189 48q-7 7-10.5 16.5T175 84q1 14 5.5 27.5T188 140q-3 20-15 37-21 30-23 67 0 30 12 58 6 15 19 23.5t28 8.5h32q15 0 28-8.5t19-23.5q12-28 12-58-2-37-23-67zM225 71q7 0 9.5 3t3.5 9q-1 2-5 17l-5 22h-6l-9-38q0-7 2.5-10t9.5-3zm29 216q-2 4-5.5 6.5T241 296h-32q-4 0-7.5-2.5T196 287q-9-21-8-43 2-27 17-49 11-17 17-36h6q6 19 17 36 15 22 18 49 0 22-9 43z"/></svg>