<svg viewBox="0 0 300 368" xmlns="http://www.w3.org/2000/svg"><path d="M231 34H69q-19 0-34.5 9.5t-25 25Q0 84 0 103v112q0 19 9.5 34.5t25 25Q50 284 69 284h15l45 38q9 8 21 8t20-8l47-38h14q19 0 34.5-9.5t25-25Q300 234 300 215V103q0-19-9.5-34.5t-25-25Q250 34 231 34zm32 181q0 13-9.5 22.5T231 247h-21q-7-1-12 4l-48 39-47-39q-5-5-12-5H69q-13 0-22.5-9T37 215V103q1-13 10-22.5T69 71h162q13 0 22 9.5t9 22.5v112h1zm-57-108q7 9 6 20.5t-9 19.5l-59 59q-16 16-38 16H94q-3 0-4.5-2t-1.5-5v-12q0-22 16-38l60-60q9-9 21.5-8.5T206 107z"/></svg>