<svg viewBox="0 0 300 368" xmlns="http://www.w3.org/2000/svg"><path d="M225 265q0 19-9.5 34.5t-25 25Q175 334 156 334H69q-19 0-34.5-9.5t-25-25Q0 284 0 265v-87q0-19 9.5-34.5t25-25Q50 109 69 109q8 0 13.5 5.5T88 128q0 8-5.5 13T69 146q-13 0-22 9.5T38 178v87q0 13 9 22t22 9h87q13 0 22.5-9t9.5-22q0-8 5-13.5t13-5.5q8 0 13.5 5.5T225 265zm63-168l-56-57q-5-6-13-6t-13.5 5.5q-5.5 5.5-5.5 13t5 13.5l42 43h-78q-19 0-34.5 9.5t-25 25Q100 159 100 178v62q0 8 5.5 13.5T119 259q8 0 13.5-5.5T138 240v-62q0-13 9-22.5t22-9.5h78l-42 44q-5 5-5 13t5.5 13q5.5 5 13.5 5t13-5l55-57q13-13 13-31t-13-31h1z"/></svg>