<svg viewBox="0 0 300 368" xmlns="http://www.w3.org/2000/svg"><path d="M221 71H79q-18 0-33 9t-25 25Q0 142 0 184q0 31 8 60t23 47q15 18 35 18 17 0 30.5-12.5T116 263q2-4 5-4h58q2 0 3.5 1t1.5 3q8 26 24 38 11 8 25 8 20 0 35.5-18t23.5-47q8-29 8-60 0-41-21-80-9-15-24.5-24T221 71zm13 200q-3 0-6.5-5t-6.5-15q-4-13-15.5-21.5T180 221h-59q-14 0-25 8.5T80 251q-3 9-7 14.5t-7.5 5.5Q62 271 55 259.5T43 231q-5-22-5-47 0-31 16-61 3-7 10-10.5t15-3.5h142q8 0 15 3.5t10 10.5q17 27 17 61 0 25-6 47-5 17-12 28.5T234 271zM131 146h-6v-6q0-7-5.5-13t-13-6q-7.5 0-13 6T88 140v6h-7q-7 0-12.5 6T63 165.5q0 7.5 5.5 13T81 184h7v6q0 8 5.5 13.5t13 5.5q7.5 0 13-5.5T125 190v-6h6q8 0 13.5-5.5t5.5-13q0-7.5-5.5-13.5t-13.5-6zm57 13q0 10 7 17.5t17.5 7.5q10.5 0 17.5-7.5t7.5-17.5q.5-10-7-17.5t-18-7.5q-10.5 0-17.5 7.5t-7 17.5z"/></svg>