<svg viewBox="0 0 300 368" xmlns="http://www.w3.org/2000/svg"><path d="M200 196q0 8-5.5 13.5T181 215h-12v13q0 8-5.5 13.5t-13.5 5q-8-.5-13.5-5.5t-5.5-13v-13h-12q-8 0-13.5-5.5t-5.5-13q0-7.5 5.5-13T119 178h12v-13q0-8 5.5-13t13.5-5.5q8-.5 13.5 5T169 165v13h12q8 0 13.5 5.5T200 196zm88 0q0 24-7.5 45T259 280q16 13 16 35 0 8-5.5 13.5T256 334q-8 0-13-5.5t-5-12.5q0-7-6-9-18 13-38.5 20t-43.5 7q-23 0-43.5-7T68 307q-5 2-5 9t-5.5 12.5Q52 334 44 334t-13.5-5.5Q25 323 25 315q0-22 16-35-14-18-21.5-39T12 197q0-35 16-64.5T71 84q27-19 60-24v-7q0-8 5.5-13.5T150 34q8 0 13.5 5.5T169 53v7q33 5 60 24t43 48.5q16 29.5 16 63.5zM150 296q27 0 50-13t36.5-36q13.5-23 13.5-50.5T236.5 146Q223 123 200 109.5T150 96q-27 0-50 13.5T63.5 146Q50 169 50 196.5T63.5 247Q77 270 100 283t50 13zm94-262q-8 0-13.5 5.5T225 53q0 8 5.5 13t13.5 5q10 1 15 8 3 4 3 11.5t5.5 13Q273 109 281 109t13-5.5q5-5.5 5-13.5 0-24-15.5-40T244 34zM38 90q0-7 3-11 5-8 15-8 8 0 13.5-5T75 53q0-8-5.5-13.5T56 34q-24 0-39.5 16T1 90q0 8 5 13.5t13 5.5q8 0 13.5-5.5T38 90z"/></svg>