<svg viewBox="0 0 300 368" xmlns="http://www.w3.org/2000/svg"><path d="M255 219l-63-32q-8-4-12.5-11.5T175 159V90q0-13-5.5-24.5t-16-19.5Q143 38 130 35.5t-26 .5L51 50q-22 6-36.5 24.5T0 116v187q0 13 9 22t22 9h50q13 0 22-8.5t9-20.5l41 20q18 9 37 9h67q18 0 30.5-12.5T300 291q0-23-12-42.5T255 219zm2 77h-67q-11 0-20-4l-48-24q-18-9-37-9H38V116q0-10 6.5-18.5T61 86h2v79q0 8 5 13.5t13 5.5q8 0 13.5-5.5T100 165V76l14-4q9-2 16.5 3.5T137 90v69q1 20 11 36.5t28 25.5l62 31q11 6 18 16.5t7 22.5q0 2-2 3.5t-4 1.5z"/></svg>