<svg viewBox="0 0 300 368" xmlns="http://www.w3.org/2000/svg"><path d="M0 177q2-40 22.5-72.5T77 53q34-19 73-19t73 19q34 19 54.5 51.5T300 177q0 8-5 13.5t-13 5.5h-1q-7 0-12.5-5t-6.5-12q-1-30-16.5-54.5T205 86q-25-14-55-14T95 86q-25 14-40.5 38.5T38 179q-1 7-6.5 12.5t-13.5 5q-8-.5-13-6T0 177zm155 119q-5 1-10 0-8 0-14 5.5t-6 13q0 7.5 5 13.5t13 6h14q8 0 13-6t5-13.5q0-7.5-6-13t-14-5.5zm30-154q6-8 13-13.5t12-7.5q5-2 7.5-6.5t.5-9.5q-2-5-6.5-7.5T202 97q-12 5-24 15-7 7-13 14-3 4-2.5 9.5t4.5 8q4 2.5 9 2.5t9-4zm-70 0q4 4 9 4t9-2.5q4-2.5 4.5-8T135 126q-6-7-13-14-12-10-24-15-5-2-9.5.5T82 105q-2 5 .5 9.5T90 121q5 2 12 7.5t13 13.5zm-40 36q0 8 5.5 13t13.5 5h25q8 0 13.5-5t5.5-13q0-8-5.5-13.5T119 159H94q-8 0-13.5 5.5T75 178zm106 18h25q8 0 13.5-5t5.5-13q0-8-5.5-13.5T206 159h-25q-7 0-12.5 5.5T163 178q0 8 5 13t13 5zm-66 14q-34 15-55 26-3-7-9-11t-13-4q-11 0-18 7.5T13 246q0 8 4 14-8 3-12.5 9.5T0 284q0 10 7.5 17.5T25 309h1q2 11 10.5 18t20 7q11.5 0 20-7T87 309h1q10 0 17.5-7.5t7.5-17q0-9.5-6-16.5t-14-8l30-39q4-5 .5-9.5T115 210zm168 50q5-6 5-14 0-10-7.5-17.5T263 221q-8 0-14 4t-9 11q-21-11-55-26-5-3-8.5 1.5t.5 9.5l30 39q-8 1-13.5 8t-5.5 16.5q0 9.5 7 17t18 7.5q2 11 11 18t20 7q11 0 19.5-7t10.5-18h1q10 0 17.5-7.5T300 284q0-8-4.5-14.5T283 260z"/></svg>