<svg viewBox="0 0 300 368" xmlns="http://www.w3.org/2000/svg"><path d="M300 209q0-7-3.5-12.5T287 187v-22q0-35-17.5-65.5t-47.5-48Q192 34 156 34h-12q-36 0-66 17.5t-47.5 48Q13 130 13 165v22q-6 4-9.5 9.5T0 209q0 7 3.5 12.5T12 231v9q1 26 13.5 47.5t34 34Q81 334 106 334h88q25 0 46.5-12.5t34-34Q287 266 288 240v-9q5-4 8.5-9.5T300 209zM144 71h12q26 1 47.5 13.5t34 34Q250 140 250 165v19H50v-19q0-25 12.5-46.5t34-34Q118 72 144 72v-1zm50 225h-88q-23 0-39.5-16T50 240v-6q12 1 20 7 6 3 19 14l8 8q10 8 23.5 8t23.5-8l6-6q13-11 19-15 7-5 16-6.5t27-1.5h38v6q0 24-16.5 40T194 297v-1zM75 140q0-8 5.5-13.5T94 121q8 0 13 5.5t5 13.5q0 8-5 13.5T94 159q-8 0-13.5-5.5T75 140zm50-25q0-8 5.5-13.5t13.5-5q8 .5 13 5.5t5.5 13q.5 8-5 13.5T144 134q-8 0-13.5-5.5T125 115z"/></svg>