<svg viewBox="0 0 300 368" xmlns="http://www.w3.org/2000/svg"><path d="M244 59H119q-23 0-39.5 16.5T63 115v75q0 23 16.5 39.5T119 246h125q23 0 39.5-16.5T300 190v-75q0-23-16.5-39.5T244 59zm19 131q0 8-5.5 13.5T244 209H119q-8 0-13.5-5.5T100 190v-75q0-8 5.5-13.5T119 96h125q8 0 13.5 5.5T263 115v75zm-25 100q0 8-5.5 13.5T219 309H69q-19 0-34.5-9.5t-25-25Q0 259 0 240V140q0-8 5.5-13.5T19 121q8 0 13.5 5.5T38 140v100q0 13 9 22t22 9h150q8 0 13.5 5.5T238 290zm-25-137q0 13-9.5 22t-22.5 9q-13 0-22-9t-9-22q0-13 9-22.5t22-9.5q13 0 22.5 9.5T213 153z"/></svg>