<svg viewBox="0 0 300 368" xmlns="http://www.w3.org/2000/svg"><path d="M293 255q5 5 6.5 12.5T298 282q-3 7-9 11.5t-14 4.5q-8 0-14-4.5t-9-11.5q-3-7-1.5-14.5T257 255l10-11q3-4 8-4t8 4l10 11zm7-102v6q0 6-4 11l-73 102q-10 12-23.5 18.5T171 297h-71q-21-1-35.5-15.5T50 247l-21-8q-13-5-21-16t-8-25v-37q0-10 4-18.5t12.5-14Q25 123 36 122t21 3l21 9h35v-25H94q-8 0-13.5-5.5T75 90q0-8 5.5-13.5T94 71h75q8 0 13.5 5.5T188 90q0 8-5.5 13.5T169 109h-19v25h15q13 0 25.5 6.5T210 158q2 1 5 1l59-24q10-3 18 2.5t8 15.5zM50 206v-43l-7-4q-3-1-5 0v39q0 4 4 6l8 2zm185-15q-5 2-9 4-13 4-25.5-.5T180 180q-5-8-15-8H88v74q0 6 3.5 9.5t8.5 3.5h71q14 0 23-11l41-57z"/></svg>