<svg viewBox="0 0 300 368" xmlns="http://www.w3.org/2000/svg"><path d="M150 96q-8 1-13.5-4.5T131 78V53q0-8 5.5-13.5T150 34q8 0 13.5 5.5T169 53v25q0 8-5.5 13.5T150 97v-1zm19 219v-25q0-8-5.5-13t-13.5-5.5q-8-.5-13.5 5T131 290v25q0 8 5.5 13.5T150 334q8 0 13.5-5.5T169 315zM63 184q0-8-5.5-13.5T44 165H19q-8 0-13.5 5.5T0 184q0 8 5.5 13.5T19 203h25q8 0 13-5.5t6-13.5zm237 0q0-8-5.5-13.5T281 165h-25q-8 0-13.5 5.5T237 184q0 8 5.5 13.5T256 203h25q8 0 13.5-5.5T300 184zm-82-83l13-22q3-7 1-14.5t-8.5-11q-6.5-3.5-14-1.5T198 60l-12 22q-4 7-2 14.5t9 11.5q4 2 9 2t9.5-2.5q4.5-2.5 6.5-6.5zM102 308l12-22q4-7 2-14.5t-9-11.5q-7-4-14.5-1.5T82 267l-13 22q-3 7-1 14.5t8.5 11q6.5 3.5 14 1.5t11.5-8zM74 141q4-7 1.5-14.5T67 116l-22-13q-7-3-14.5-1t-11 8.5q-3.5 6.5-1.5 14t8 11.5l22 12q7 4 14.5 2t11.5-9zm207 117q4-7 1.5-14.5T274 232l-22-12q-7-4-14.5-2t-11.5 9q-4 7-1.5 14.5T233 252l22 13q7 4 14.5 1.5T281 258zM107 108q7-4 9-11.5T114 82l-12-22q-4-6-11.5-8t-14 1.5Q70 57 68 64.5T69 79l13 22q2 4 6.5 6.5T98 110q5 0 9-2zm117 207q6-4 8.5-11.5T231 289l-13-22q-3-6-10.5-8.5T193 260q-7 4-9 11.5t2 14.5l12 22q4 6 11.5 8.5T224 315zm28-167l22-12q6-4 8-11.5t-1.5-14q-3.5-6.5-11-8.5t-14.5 1l-22 13q-6 3-8.5 10.5T226 141q4 7 11.5 9t14.5-2zM45 265l22-13q6-3 8.5-10.5T74 227q-4-7-11.5-9T48 220l-22 12q-5 3-7.5 9t-1 12q1.5 6 6.5 10t11 4q6 0 10-2z"/></svg>