<svg viewBox="0 0 300 368" xmlns="http://www.w3.org/2000/svg"><path d="M284 297l-62-150q-3-9-3-18.5t4-18.5l25-49q2-5 1.5-10t-3.5-9.5q-3-4.5-8-6.5t-10-1l-52 9q-30 6-54 25t-35 48L16 297q-7 1-11.5 6T0 315.5q0 7.5 5.5 13T19 334h262q8 0 13.5-5.5t5.5-13q0-7.5-4.5-12.5t-11.5-6zM122 130q8-20 24-33t37-17l15-2-8 15q-8 17-8.5 34.5T188 162l55 135H56l66-167zm53 79q6 0 9 6l6 16 17 7q5 2 5.5 8.5T207 255l-17 7-6 16q-3 6-9 6t-9-6l-6-16-17-7q-6-3-5.5-9t6.5-9l16-6 6-16q3-6 9-6zm-62-32q0-5 5-7l13-5 5-14q2-4 7.5-4t7.5 4l5 14 14 5q5 2 5 7.5t-5 7.5l-14 5-5 14q-2 5-7.5 5t-7.5-5l-5-14-14-5q-5-2-5-8h1z"/></svg>