<svg viewBox="0 0 300 368" xmlns="http://www.w3.org/2000/svg"><path d="M218 166q1 4 0 7.5t-3 5.5l-27 22 11 34q1 4 0 7.5t-4 5.5q-3 2-6.5 2.5T182 249l-32-21-31 21q-3 2-6.5 2t-6.5-2.5q-3-2.5-4-6t0-6.5l11-35-28-22q-2-2-3-5.5t0-7q1-3.5 4-5.5t7-2h34l12-33q1-3 4-5t7-2q4 0 7 2t4 5l12 33h34q4 0 7 2t4 6v-1zm82-63v162q0 19-9.5 34.5t-25 25Q250 334 231 334H69q-19 0-34.5-9.5t-25-25Q0 284 0 265V103q0-19 9.5-34.5t25-25Q50 34 69 34h162q19 0 34.5 9.5t25 25Q300 84 300 103zm-37 0q0-13-9.5-22.5T231 71H69q-13 0-22 9.5T38 103v162q0 13 9 22t22 9h162q13 0 22.5-9t9.5-22V103z"/></svg>