<svg viewBox="0 0 300 368" xmlns="http://www.w3.org/2000/svg"><path d="M231 59H69q-19 0-34.5 9.5t-25 25Q0 109 0 128v131q0 21 14.5 35.5T50 309v-19q0-8 5.5-13.5T69 271q8 0 13.5 5.5T88 290v19h43v-19q0-8 5.5-13.5T150 271q8 0 13.5 5.5T169 290v19h44v-19q0-8 5-13.5t13-5.5q8 0 13.5 5.5T250 290v19q21 0 35.5-14.5T300 259V128q0-19-9.5-34.5t-25-25Q250 59 231 59zM38 234v-38l6-2q7-4 12-10 7-8 7-18.5T56 146q-5-5-12-9l-6-3v-6q0-13 9-22.5T69 96h162q13 0 22.5 9.5T263 128v6l-7 3q-7 4-12 9-6 9-6 19.5t6 18.5q5 6 12 10l7 2v38H38zm87-94v50q0 8-5.5 13.5T106 209q-8 0-13-5.5T88 190v-50q0-8 5-13.5t13-5.5q8 0 13.5 5.5T125 140zm88 0v50q0 8-5.5 13.5T194 209q-8 0-13.5-5.5T175 190v-50q0-8 5.5-13.5T194 121q8 0 13.5 5.5T213 140z"/></svg>