<svg viewBox="0 0 300 368" xmlns="http://www.w3.org/2000/svg"><path d="M224 168q14-18 14-40 0-27-18.5-46.5T175 59v-6q0-8-5.5-13.5T156 34q-8 0-13 5.5T138 53v6h-25v-6q0-8-5.5-13.5T94 34q-8 0-13.5 5.5T75 53v9q-17 6-27 20.5T38 115v138q0 18 10 32.5T75 306v9q0 8 5.5 13.5T94 334q8 0 13.5-5.5T113 315v-6h25v6q0 8 5 13.5t13 5.5q8 0 13.5-5.5T175 315v-6h13q20 0 37-10t27.5-27.5q10.5-17.5 10.5-38t-10.5-38Q242 178 224 168zM75 115q0-8 5.5-13.5T94 96h75q13 0 22 9.5t9 22.5q0 13-9 22t-22 9H75v-44zm113 156H94q-8 0-13.5-5T75 253v-57h113q15 0 26 11.5t11 26.5q0 15-11 26t-26 11z"/></svg>