<svg viewBox="0 0 300 368" xmlns="http://www.w3.org/2000/svg"><path d="M244 196h-25q-22 0-38 14.5T163 246h-44q-13 0-22-9t-9-22v-44q21-2 35.5-18t14.5-38V90q0-23-16.5-39.5T81 34H56q-23 0-39.5 16.5T0 90v25q0 22 14.5 38T50 171v44q0 19 9.5 34.5t25 25Q100 284 119 284h44q2 21 18 35.5t38 14.5h25q23 0 39.5-16.5T300 278v-25q0-24-16.5-40.5T244 196zM38 115V90q0-8 5-13.5T56 71h25q8 0 13.5 5.5T100 90v25q0 8-5.5 13.5T81 134H56q-8 0-13-5.5T38 115zm225 163q0 8-5.5 13t-13.5 5h-25q-8 0-13.5-5t-5.5-13v-25q0-8 5.5-13.5T219 234h25q8 0 13.5 5.5T263 253v25z"/></svg>