<svg viewBox="0 0 300 368" xmlns="http://www.w3.org/2000/svg"><path d="M300 196q0 16-11 27t-26.5 11q-15.5 0-26.5-11t-11-26.5q0-15.5 11-26.5t26.5-11q15.5 0 26.5 11t11 27v-1zm-37 63q-16 0-27 11t-11 26.5q0 15.5 11 26.5t26.5 11q15.5 0 26.5-11t11-26.5q0-15.5-11-26.5t-27-11h1zm-82-81H19q-8 0-13.5 5.5t-5.5 13q0 7.5 5.5 13T19 215h162q8 0 13.5-5.5t5.5-13q0-7.5-5.5-13T181 178zm0 100H19q-8 0-13.5 5.5t-5.5 13q0 7.5 5.5 13T19 315h162q8 0 13.5-5.5t5.5-13q0-7.5-5.5-13T181 278zM300 90v6q0 16-11 27t-27 11H38q-16 0-27-11T0 97v-7q0-23 16.5-39.5T56 34h188q23 0 39.5 16.5T300 90zm-37 6v-6q0-8-5.5-13.5T244 72H56q-8-1-13.5 4.5T37 90v6h226z"/></svg>