<svg viewBox="0 0 300 368" xmlns="http://www.w3.org/2000/svg"><path d="M256 209v-44q0-18-12.5-31T213 121h-1l1-6V78q0-18-13-31t-31-13h-38q-18 0-30.5 13T88 78v44q-19-1-31.5 12T44 165v44q-18 0-31 13T0 253v37q0 18 13 31t31 13h37q14 0 25-8 12 8 25 8h38q13 0 25-8 11 8 25 8h37q18 0 31-13t13-31v-37q0-18-13-31t-31-13zm-37-44v38q0 2-2 4t-4 2h-38q-3 0-4.5-2t-1.5-4v-38q0-2 1.5-4t4.5-2h38q2 0 4 2t2 4zm-94-87q0-3 2-5t4-2h38q2 0 4 2t2 5v37q0 3-2 4.5t-4 1.5h-38q-2 0-4-1.5t-2-4.5V78zm-44 87q0-2 2-4t5-2h37q3 0 4.5 2t1.5 4v38q0 2-1.5 4t-4.5 2H88q-3 0-5-2t-2-4v-38zm0 131H44q-3 0-4.5-1.5T38 290v-37q0-3 1.5-5t4.5-2h37q3 0 5 2t2 5v37q0 3-2 4.5t-5 1.5zm88 0h-38q-2 0-4-1.5t-2-4.5v-37q0-3 2-5t4-2h38q2 0 4 2t2 5v37q0 3-2 4.5t-4 1.5zm94-6q0 3-2 4.5t-5 1.5h-37q-3 0-4.5-1.5T213 290v-37q0-3 1.5-5t4.5-2h37q3 0 5 2t2 5v37z"/></svg>