<svg viewBox="0 0 300.0025 368" xmlns="http://www.w3.org/2000/svg"><path d="M300.002 168q-2-13-10-23.5t-20-16.5l-54-68q-10-12-24-19t-29-7h-7q-18 0-31 13t-13 31v43h-63q-17 1-31 12t-18 28q-1 8 3 14.5t12 8q8 1.5 14.5-2.5t7.5-12q1-4 4.5-7t7.5-3h195q7 0 12.5 4.5t6.5 11.5q1 7 7.5 11.5t14 3.5q7.5-1 12-7.5t3.5-14.5zm-150-90q0-3 2-5t4-2h7q15 0 24 12l30 38h-67V78zm-11 142q-3-6-9.5-8t-12.5 0q-11-9-24-13-1-6-6-10.5t-12-4.5q-7 0-12 4.5t-6 10.5q-13 4-24 13-6-2-12.5 0t-10 8q-3.5 6-2.5 12.5t6 11.5q-3 15 0 30-5 5-6 11.5t2.5 12.5q3.5 6 10 8t12.5 0q11 9 24 13 1 6 6 10.5t12 4.5q7 0 12-4.5t6-10.5q13-4 24-13 6 2 12.5 0t10-8q3.5-6 2.5-12.5t-6-11.5q3-15 0-30 5-5 6-11.5t-3-12.5zm-64 64q-10 0-17.5-7.5t-7.5-17.5q0-10 7.5-17.5t17.5-7.5q10 0 17.5 7.5t7.5 17.5q0 10-7.5 17.5t-17.5 7.5zm214-64q-3-6-9.5-8t-12.5 0q-11-9-24-13-1-6-6-10.5t-12-4.5q-7 0-12 4.5t-6 10.5q-13 4-24 13-6-2-12.5 0t-10 8q-3.5 6-2.5 12.5t6 11.5q-3 15 0 30-5 5-6 11.5t2.5 12.5q3.5 6 10 8t12.5 0q11 9 24 13 1 6 6 10.5t12 4.5q7 0 12-4.5t6-10.5q13-4 24-13 6 2 12.5 0t10-8q3.5-6 2.5-12.5t-6-11.5q3-15 0-30 5-5 6-11.5t-3-12.5zm-64 64q-10 0-17.5-7.5t-7.5-17.5q0-10 7.5-17.5t17.5-7.5q10 0 17.5 7.5t7.5 17.5q0 10-7.5 17.5t-17.5 7.5z"/></svg>