<svg viewBox="0 0 300.0027 368" xmlns="http://www.w3.org/2000/svg"><path d="M294.003 139l-30-28q-13-14-33-15h-81l-25-18V53q0-12-9.5-16.5t-18.5 0q-9 4.5-9 16.5v6q-7 0-13 1v-7q0-12-9.5-16.5t-18.5 0q-9 4.5-9 16.5v33l-25 29q-12 13-13 30t9 30.5q10 13.5 25.5 19t33.5-2.5l7 38v54q0 18 11.5 27.5t26 9.5q14.5 0 26-9.5t11.5-27.5v-12h50v12q0 18 11.5 27.5t26 9.5q14.5 0 26-9.5t11.5-27.5V170q5 2 10.5 1t10-6q4.5-5 4.5-13t-6-13zm-234 16q-7 3-10 4-6 0-9-3t-3-7.5q0-4.5 3-7.5l33-40q3-4 8-4.5t9 2.5l42 31q5 4 11 4h87q3 0 5 2t2 4v81h-126l-9-43q-3-15-16.5-22t-26.5-1zm128 23q0-12 9-16.5t18.5 0q9.5 4.5 9.5 16t-9.5 16.5q-9.5 5-18.5 0t-9-16zm-63 0q0-12 9.5-16.5t18.5 0q9 4.5 9 16t-9 16.5q-9 5-18.5 0t-9.5-16z"/></svg>