<svg viewBox="0 0 300 368" xmlns="http://www.w3.org/2000/svg"><path d="M248 89q-23-31-59-45t-75-8q-39 6-69 33.5T5 135q-9 31-2 63t27 58q8 10 8 20v14q0 18 12.5 31T81 334h88q16 0 28.5-11t14.5-27q23-4 39-20.5t19-39.5l1-15q14 0 21.5-9.5T300 191q0-14-21-53-18-33-31-49zm7 95q-7 0-12.5 4.5T236 200l-4 32q-1 11-10 19t-21 8h-7q-8 0-13.5 5.5T175 278v12q0 3-2 4.5t-4 1.5H81q-2 0-4-1.5t-2-4.5v-14q0-23-15-43-13-16-18-34-8-27-.5-54.5t29.5-47Q93 78 121 73q9-1 17-1 23 0 44.5 10.5T219 112q8 11 21.5 34t19.5 38h-5zm-67-23q0 14-17 34-11 12-27 24-3 3-6.5 3t-5.5-3q-16-12-27-24-17-20-17-34 0-11 7-19t17.5-8q10.5 0 18 7t7.5 18q0-11 7-18t17.5-7q10.5 0 18 8t7.5 19z"/></svg>