<svg viewBox="0 0 300 368" xmlns="http://www.w3.org/2000/svg"><path d="M150 34q-41 0-75.5 20T20 108.5Q0 143 0 184t20 75.5Q40 294 74.5 314t75.5 20q41 0 75.5-20t54.5-54.5q20-34.5 20-75.5t-20-75.5Q260 74 225.5 54T150 34zm0 262q-31 0-56.5-15T53 240.5Q38 215 37.5 184t15-56.5q15.5-25.5 41-41T150 71q31 0 56.5 15.5t41 41q15.5 25.5 15 56.5T247 240.5q-15 25.5-40.5 41T150 297v-1zM85 142q-4 4-9 4.5t-9-2.5q-4-3-4.5-8.5T65 126q9-10 21-18t24-11q5-1 9.5 1.5t5.5 7.5q1 5-2 9.5t-8 5.5q-7 2-15.5 7.5T85 142zm148 2q-4 3-9 2.5t-9-4.5q-6-8-14.5-13.5T185 121q-5-1-8-5.5t-2-9.5q1-5 5.5-7.5T190 97q12 3 24 11t21 18q3 4 2.5 9.5T233 144zm-133 65q-10 0-17.5-7.5T75 184q0-10 7.5-17.5T100 159q10 0 17.5 7.5T125 184q0 10-7.5 17.5T100 209zm125-25q0 10-7.5 17.5T200 209q-10 0-17.5-7.5T175 184q0-10 7.5-17.5T200 159q10 0 17.5 7.5T225 184zm-27 65q4 8-.5 15.5T185 272h-70q-8-1-12.5-8t-.5-15q7-11 20.5-19t27.5-8q14 0 27.5 8t20.5 19z"/></svg>