<svg viewBox="0 0 300 368" xmlns="http://www.w3.org/2000/svg"><path d="M231 34H106q-37 0-62 13-22 12-34 33Q0 99 0 122q0 25 12 45 9 17 27 31 11 8 33 21l25 15H49q-20 0-34.5 14.5T0 284q0 21 14.5 35.5T50 334h75q41 0 65-18 19-14 27-38 5-15 5-31 0-25-14-46-11-17-32-33-12-10-36-25l-16-9h36q10 0 14 7 10 14 25 22.5t32 8.5h25q18 0 31-13t13-31v-25q0-19-9.5-34.5t-25-25Q250 34 231 34zM64 115q-3 7-1.5 15t7.5 13l2 2-16 18q-9-9-13.5-18.5T38 122q-1-21 11-33 16-16 51-17v25H88q-8 1-14.5 5.5T64 115zm36 181H50q-5 0-8.5-3.5t-3.5-9q0-5.5 3-9t8-3.5h51v25zm57-65q0-1-2-2l15-17q14 16 14 34 0 45-47 50l1-24q7-1 13-5t9-10.5q3-6.5 2.5-13.5t-5.5-12zm-16-43l-16 19-38-23 17-19 37 23zm122-60q0 2-2 4t-5 2h-25q-8 0-14.5-3.5T205 120q-7-11-19-17.5T160 96h-23V72h94q13 0 22.5 9t9.5 22v25zM138 272h-1 1z"/></svg>