<svg viewBox="0 0 300 368" xmlns="http://www.w3.org/2000/svg"><path d="M188 334q-6 0-10.5-2.5T171 324q-2-5-2-10t3-9l6-9h-2q-13 1-21-10t-4-24q1-2 2-5l19-27q4-6 11.5-7.5t14 2.5q6.5 4 8 11.5T203 251l-5 8h1q7 0 13.5 3.5t9.5 10q3 6.5 3 14t-4 13.5l-18 26q-6 8-15 8zm-51-26q2-8-2-14.5t-12.5-9q-8.5-2.5-9.5-7t1.5-7.5q2.5-3 5.5-5 11-4 16-14t2-21q-1-4-.5-8.5t1.5-8.5q2-11 10.5-19t21-10q12.5-2 24.5 5t18 19q3 9 11 15t18.5 8q10.5 2 16 12t3 20.5Q259 274 249 279q-7 3-10 10.5t0 14.5q3 7 10 10t15 0q12-6 21.5-17t12.5-25q4-17-1-33t-17-28q-12-12-29-16l-4-2q-10-24-33.5-36.5t-50-8.5q-26.5 4-44.5 24.5T100 221q0 6 1 12-15 8-21.5 23T77 287q4 13 14 22t23 12q7 2 14-2t9-11zm144-174q-8 0-13.5 5.5t-5 13.5q.5 8 5.5 13.5t13 5q8-.5 13.5-5.5t5.5-13q0-8-5.5-13.5T281 134zm0-100q-8 0-13.5 5.5t-5 13.5q.5 8 5.5 13.5t13 5q8-.5 13.5-5.5t5.5-13q0-8-5.5-13.5T281 34zm-62 50q-8 0-13.5 5.5T200 103q0 8 5.5 13.5t13.5 5q8-.5 13.5-5.5t5-13q-.5-8-5.5-13.5T219 84zM58 235q5-5 5.5-12.5T59 209q-12-13-17.5-30T38 145q3-28 22-48t46-24q13-2 26-1-15 16-24 35-4 7-1.5 14.5t9.5 11q7 3.5 14.5.5t11.5-10q8-17 23-30 6-7 8.5-15.5t.5-17q-2-8.5-8.5-14.5T150 38q-24-6-50-2-39 6-67 35.5T1 141q-3 25 5 49.5T31 234q5 6 13 6.5t14-5.5z"/></svg>