<svg viewBox="0 0 300 368" xmlns="http://www.w3.org/2000/svg"><path d="M195 199q-4-3-9.5-2t-8.5 5l-12 17-20-28q8-5 13-13.5t5-18.5q0-16-11-27t-27-11h-12q-16 0-27 11t-11 27v62q0 6 3.5 9.5t9 3.5q5.5 0 9-3.5t3.5-9.5v-25h19l31 44-17 24q-3 4-2.5 9.5t4.5 8q4 2.5 8 2.5 6 0 10-5l12-17 12 17q4 5 11 5 3 0 7-2.5t5-8q1-5.5-2-9.5l-17-24 17-24q3-4 2-9t-5-8zm-95-40q0-5 3.5-9t9.5-4h12q5 0 9 4t4 9q0 5-4 8.5t-9 4.5l-25-1v-12zm155-72l-33-33q-20-20-49-20H94q-19 0-34.5 9.5t-25 25Q25 84 25 103v162q0 19 9.5 34.5t25 25Q75 334 94 334h112q19 0 34.5-9.5t25-25Q275 284 275 265V136q0-29-20-49zm-49 209H94q-13 0-22-9t-9-22V103q0-13 9-22.5T94 71h69v50q0 11 7 18t18 7h50v119q0 13-9.5 22t-22.5 9z"/></svg>