<svg viewBox="0 0 300 368" xmlns="http://www.w3.org/2000/svg"><path d="M231 34H69q-19 0-34.5 9.5t-25 25Q0 84 0 103v162q0 19 9.5 34.5t25 25Q50 334 69 334h162q19 0 34.5-9.5t25-25Q300 284 300 265V103q0-19-9.5-34.5t-25-25Q250 34 231 34zm32 231q0 13-9.5 22t-22.5 9H69q-13 0-22.5-9T37 265V103q1-13 10-22.5T69 71h162q13 0 22 9.5t9 22.5v162h1zm-63-51q0 15-9 27t-22 16v8q0 12-9.5 16.5t-19 0Q131 277 131 265v-7q-9-2-16.5-7.5t-11.5-13q-4-7.5-2-15t8.5-11q6.5-3.5 14-1.5t11.5 8q2 3 5 4h15q4 0 6-3t1-6.5q-1-3.5-4-5.5l-30-12q-18-6-24.5-24.5t1-36Q112 117 131 111v-8q0-12 9.5-16.5t19 0Q169 91 169 103v7q9 2 16.5 7.5t11.5 13q4 7.5 2 15t-8.5 11q-6.5 3.5-14 1.5t-11.5-8q-2-4-5-4h-15q-4 0-6 3t-1 6.5q1 3.5 4 5.5l30 12q13 5 20.5 16t7.5 25z"/></svg>