<svg viewBox="0 0 300 368" xmlns="http://www.w3.org/2000/svg"><path d="M244 334q-6 0-11-3t-7-9l-7-19-20-9q-5-2-8.5-6.5t-3-10.5q.5-6 3.5-10.5t9-6.5l19-8 7-19q3-5 7.5-8t10-3q5.5 0 10.5 3t7 8l8 20 19 7q5 3 8.5 7.5T300 278q0 6-3.5 10.5T288 295l-19 8-8 19q-2 6-7 9t-10 3zm-119-38q-10 1-18-5t-11-16l-18-56-57-19q-9-3-15-11.5T0 170q0-10 6-18t16-11l56-17 19-56q3-10 11-16t18-5.5q10 .5 18.5 6.5T156 68l17 56 55 18q10 3 16 11t6 18.5q0 10.5-6 18.5t-16 11l-56 18-18 56q-3 10-11 16t-18 5zM53 171l45 15q9 3 12 12l15 46 15-46q3-9 12-12l46-15-46-14q-10-3-12-13l-14-45-16 46q-3 9-12 12l-45 14zm169-81l17 5 5 17q1 4 4.5 6.5t8 2.5q4.5 0 8-2.5t4.5-6.5l5-17 17-5q4-1 6.5-4.5t2.5-8q0-4.5-2.5-8T291 65l-17-5-5-17q-1-4-4.5-6.5t-8-2.5q-4.5 0-8 2.5T244 43l-5 17-17 5q-4 1-6.5 4.5t-2.5 8q0 4.5 2.5 8T222 90z"/></svg>