<svg viewBox="0 0 300 368" xmlns="http://www.w3.org/2000/svg"><path d="M281 121h-6v-6q0-8-5.5-13T256 96.5q-8-.5-13 5t-5 13.5v16l-18 13q-5-12-13-21 5-13 5-27 1-16-7.5-30.5t-23-23Q167 34 150 34t-31.5 8.5Q104 51 96 65.5T88 97q0 13 5 26-8 9-13 21l-17-13v-16q-1-8-6-13t-13-5.5q-8-.5-13.5 5T25 115v6h-6q-8 1-13.5 6T0 140q0 8 5.5 13.5T19 159h19l39 30 2 6q-16 23-17 51 1 24 12.5 44t31.5 32q20 12 44 12t44-12q20-12 32-32t12-44q-1-27-17-50l2-7 40-30h18q8 0 13.5-5.5T300 140q0-8-5.5-13.5T281 121zm-168 50q0-11 6-20 15 8 31 8t31-8q7 9 6 20 1 16-10 27t-27 11q-16 0-26.5-11T113 172v-1zm37-100q10 0 17.5 7.5t7.5 18q0 10.5-7.5 18T150 122q-10 0-17.5-7.5t-7.5-18q0-10.5 7.5-18T150 71zm0 225q-21 0-35.5-14.5T100 247q0-9 3-17 21 16 47 16.5t47-16.5q3 8 3 16 0 21-14.5 35.5T150 296z"/></svg>