<svg viewBox="0 0 300 368" xmlns="http://www.w3.org/2000/svg"><path d="M63 115q0-8 5-13.5T81 96q8 0 13.5 5.5T100 115q0 8-5.5 13.5T81 134q-8 0-13-5.5T63 115zm237-12v100q0 18-9.5 34t-25 25q-15.5 9-34.5 9h-62v25h37q8 0 13.5 5.5T225 315q0 8-5.5 13.5T206 334H94q-8 0-13.5-5.5T75 315q0-8 5.5-13.5T94 296h37v-25H69q-19 0-34.5-9t-25-25Q0 221 0 203V103q0-19 9.5-34.5t25-25Q50 34 69 34h162q19 0 34.5 9.5t25 25Q300 84 300 103zM38 203q0 7 3 14l62-63q14-14 34.5-14t34.5 14l8 8q3 4 7.5 4t7.5-4l67-66q-3-11-11.5-17.5T231 72H69q-13 0-22 9t-9 22v100zm225 0v-55l-41 41q-14 14-34.5 14T153 189l-8-8q-3-3-7.5-3t-7.5 3l-53 53h154q13 0 22.5-9t9.5-22z"/></svg>