<svg viewBox="0 0 300 368" xmlns="http://www.w3.org/2000/svg"><path d="M66 208q-2-8 1.5-14.5t11-8.5q7.5-2 14.5 1.5t9 11.5q3 12 12.5 21.5T136 232q8 2 11.5 9t2 13.5q-1.5 6.5-7 10.5t-11.5 4q-2 0-5-1-22-6-38-22t-22-38zm229 94q5 5 5 13t-5.5 13.5Q289 334 281 334t-13-6L5 66q-5-5-5-13t5.5-13.5Q11 34 19 34t13 5l41 41q11-21 32-33.5T150 34q24 0 44 12t32 32q12 20 12 43v63q0 26-14 47l23 23q16-23 16-51 0-8 5-13.5t13-5.5q8 0 13.5 5.5T300 203q0 43-26 78l21 21zM102 109l94 94q4-9 4-19v-13h-19q-8 0-13-5t-5-13q0-8 5-13.5t13-5.5h19v-13q0-20-14.5-35T150 71q-17 0-30.5 11T102 109zm89 187h-47q-27 0-50.5-12.5T55 249q-15-22-18-48 0-8-6-13t-14-4q-8 1-13 7t-4 14q4 36 24 65.5T75.5 317q31.5 17 68.5 17h37q8 0 15.5-1t12-7q4.5-6 3.5-14t-7-12.5q-6-4.5-14-3.5z"/></svg>