<svg viewBox="0 0 300.002 368" xmlns="http://www.w3.org/2000/svg"><path d="M150 71q-28 0-52.5 13T57 119q-16 22-20 49-1 8-7 12.5T16 184q-8-1-12.5-7.5T0 163q5-37 26.5-66t54-46Q113 34 150 34t69.5 17q32.5 17 54 46t26.5 66q1 7-3.5 13.5T284 184h-3q-7 0-12-4.5t-6-11.5q-4-27-20-49t-40.5-35Q178 71 150 71zm63 88q0-7-5-14l11-7q5-3 6-8t-2-9q-3-4-8-5.5t-9 1.5l-30 20q-6 3-10 9t-4 13q1 10 8 17.5t17.5 7.5q10.5 0 18-7.5T213 159zm-75 0q0-12-10-20l-34-22q-4-3-9-1.5t-8 5.5q-3 4-2 9t6 8l11 7q-5 7-5 14 1 10 8 17.5t17.5 7.5q10.5 0 18-7.5T138 159zm-65 97l-41-7q-3 0-5-2t-2-5q0-3 2.5-5.5T33 234h33q7 0 10 5.5t8 6.5q5 1 9.5-1.5t6-7.5q1.5-5-1.5-9-5-9-13.5-14T66 209h-3q0-5-4-9t-9-4q-5 0-8.5 4t-3.5 9h-5q-14 0-23.5 9.5T0 241q0 13 8 22t19 11l41 7q3 0 5 2.5t2 5.5q0 3-2.5 5.5T67 297H34q-7 0-10-5.5t-8-7q-5-1.5-9.5 1t-6 7.5Q-1 298 2 303q5 8 13.5 13.5T34 322h4q0 5 3.5 8.5T50 334q5 0 9-3.5t4-9.5h4q14 0 23.5-9.5t9.5-22q0-12.5-7.5-22T73 256zm65-47q-6 0-9.5 3.5T125 221v63q0 5 3.5 8.5t9 3.5q5.5 0 9-3.5t3.5-8.5v-63q0-5-3.5-8.5T138 209zm162 87q0 6-3.5 9.5T288 309h-13v12q0 6-3.5 9.5t-9 3.5q-5.5 0-9-3.5T250 321v-12h-25v12q0 6-3.5 9.5t-9 3.5q-5.5 0-9-3.5T200 321v-12h-12q-6 0-9.5-3.5t-3.5-9q0-5.5 3.5-9t8.5-3.5h13v-25h-12q-6 0-9.5-3.5t-3.5-9q0-5.5 3.5-9t8.5-3.5h13v-13q0-5 3.5-8.5t9-3.5q5.5 0 9 3.5t3.5 8.5v13h25v-13q0-5 3.5-8.5t9-3.5q5.5 0 9 3.5t3.5 8.5v13h13q5 0 8.5 3.5t3.5 9q0 5.5-3.5 9T288 259h-13v25h13q5 0 8.5 3.5t3.5 8.5zm-50-12v-25h-25v25h25zm-112 25q-6 0-9.5 3.5t-3.5 9q0 5.5 3.5 9t9 3.5q5.5 0 9-3.5t3.5-9q0-5.5-3.5-9T137 309h1z"/></svg>