<svg viewBox="0 0 300 368" xmlns="http://www.w3.org/2000/svg"><path d="M231 34H69q-19 0-34.5 9.5t-25 25Q0 84 0 103v162q0 19 9.5 34.5t25 25Q50 334 69 334h162q19 0 34.5-9.5t25-25Q300 284 300 265V103q0-19-9.5-34.5t-25-25Q250 34 231 34zm32 231q0 13-9.5 22t-22.5 9H69q-13 0-22.5-9T38 265V103q0-13 9-22.5T69 71h162q13 0 22.5 9.5T263 103v162zM100 115v63q0 8-5.5 13T81 196q-8 0-13-5t-5-13v-63q0-8 5-13.5T81 96q8 0 13.5 5.5T100 115zm69 0v138q0 8-5.5 13t-13.5 5q-8 0-13.5-5t-5.5-13V115q0-8 5.5-13.5T150 96q8 0 13.5 5.5T169 115zm69 0v38q0 8-5.5 13t-13.5 5q-8 0-13.5-5t-5.5-13v-38q0-8 5.5-13.5T219 96q8 0 13.5 5.5T238 115z"/></svg>