<svg viewBox="0 0 300 368" xmlns="http://www.w3.org/2000/svg"><path d="M188 203v-50q0-8 5-13.5t13-5.5q8 0 13.5 5.5T225 153v50q0 8-5.5 13.5T206 222q-8 0-13-5.5t-5-13.5zm-32 18q8 1 13.5-4.5T175 203v-50q0-8-5.5-13.5T156 134q-8 0-13.5 5.5T138 153v50q0 8 5 13.5t13 5.5v-1zm100-87q-8 0-13 5.5t-5 13.5v50q0 8 5 13.5t13 5.5q8 0 13.5-5.5T275 203v-50q0-8-5.5-13.5T256 134zm-18 108v11q0 18-13 31t-31 12h-66q-27 1-47-18l-24-23 47-48q8-8 8-18.5t-8-18.5q-7-7-17.5-7T68 170l-43 45q-12 13-12 31t13 31l30 28q15 14 33.5 21.5T128 334h66q22 0 40.5-11t29.5-29.5q11-18.5 11-40.5v-11q-9 5-19 5t-18-5zM113 53q0-8-5.5-13.5T94 34q-8 0-13.5 5.5T75 53v6h38v-6zm-76 50l-23 10q-2 3-1 6t5 3h57v17q20-5 38 6V84H18q-4 0-5 3t1 6l23 10z"/></svg>