<svg viewBox="0 0 300 368" xmlns="http://www.w3.org/2000/svg"><path d="M113 128q-1-8 4.5-13.5T131 109q8 0 13.5 5.5T150 128q0 8-5.5 13.5T131 147q-8 0-13.5-5.5T112 128h1zm185 99q-13 45-45 76-14 15-34.5 23t-41.5 8h-54q-21 0-41.5-8T47 303q-32-31-45-76-3-12-1-24.5T11 180q6-8 15-13-1-6-1-10 0-14 7-26.5T50 110q2-21 17.5-35.5T103 59q8-12 20.5-18.5T150 34q14 0 26.5 6.5T197 59q19 1 33.5 14t18.5 32q12 7 19 20t7 28q0 6-2 13 10 6 17 15t9 21.5q2 12.5-1 24.5zM63 157v2h101l-2-6q1-8 6-13.5t13-5.5q8 0 13.5 5.5T200 153q0 3-1 6h37q1-3 1-6 1-7-3-12t-9.5-7q-5.5-2-9-7t-3.5-11v-2q0-7-5.5-12.5T194 96l-4 1q-7 2-13.5-2T168 85q-2-6-7-10t-11-4q-6 0-11 4t-7 10q-2 6-8.5 10T110 97l-4-1q-8 1-13 6t-5 13v3q1 7-2.5 12.5t-9.5 8q-6 2.5-9.5 7.5T63 157zm196 46q-4-6-12-6H53q-8-1-12.5 5.5T38 217q10 35 35 59 10 10 23 15t27 5h54q14 0 27-5t23-15q25-24 35-59 2-8-3-14z"/></svg>