<svg viewBox="0 0 300 368" xmlns="http://www.w3.org/2000/svg"><path d="M159 34q-29-2-55.5 7.5T56 71q-21 20-32 46t-11 55v43q0 24 14 42t36 24q1 22 17 37.5t39 15.5h62q23 0 39-15.5t17-37.5q22-6 36-24t14-42v-39q0-37-17-68.5t-46-51Q195 37 159 34zm91 181q0 13-9 22.5t-22 9.5q-8-1-13.5 4.5T200 265v13q0 8-5.5 13t-13.5 5h-62q-8 0-13.5-5t-5.5-13v-13q0-8-5.5-13.5T81 246q-13 0-22-9t-9-22v-44q0-20 8-39t23-33q15-14 32.5-20.5T150 72h7q26 1 47 15.5t33.5 38Q250 149 250 176v39zm-150-69q-10 1-17.5 8T75 171.5q0 10.5 7.5 17.5t17.5 7q10 0 17.5-7t7.5-17.5q0-10.5-7.5-18T100 146zm100 0q-10 1-17.5 8t-7.5 17.5q0 10.5 7.5 18t17.5 7q10-.5 17.5-7.5t7.5-17.5q0-10.5-7.5-18T200 146zm-25 100q0 9-6 12-4 1-16 1h-6q-12 0-16-1-6-3-6-12 0-11 7.5-24t17.5-13q10 0 17.5 13t7.5 24z"/></svg>