<svg viewBox="0 0 300 368" xmlns="http://www.w3.org/2000/svg"><path d="M200 178q0 8-5.5 13.5T181 196h-6v42q-2 15-13.5 24.5T135 271q-15-1-25.5-12t-9.5-26.5q1-15.5 11.5-26T138 196v-6q-1-13 8.5-22t22.5-9h12q8 0 13.5 5.5T200 178zm75-42v129q0 19-9.5 34.5t-25 25Q225 334 206 334H94q-19 0-34.5-9.5t-25-25Q25 284 25 265V103q0-19 9.5-34.5t25-25Q75 34 94 34h79q14 0 26.5 5T222 54l33 33q10 10 15 22.5t5 26.5zm-37 129V146h-50q-11 0-18-7t-7-18V71H94q-13 1-22 10t-9 22v162q0 13 9 22t22 9h112q13 0 22-9t10-22z"/></svg>