<svg viewBox="0 0 300 368" xmlns="http://www.w3.org/2000/svg"><path d="M231 296h-6v-75h6q8 0 13.5-5t5.5-13q0-8-5.5-13.5T231 184h-6v-50q0-26-16-46t-40-27v-8q0-8-5.5-13.5T150 34q-8 0-13.5 5.5T131 53v8q-24 7-40 27t-16 46v50h-6q-8 0-13.5 5.5T50 203q0 8 5.5 13.5T69 221h6v75h-6q-8 0-13.5 5.5T50 315q0 8 5.5 13.5T69 334h162q8 0 13.5-5.5T250 315q0-8-5.5-13.5T231 297v-1zM150 96q12 1 21.5 7.5T185 121h-70q4-11 13.5-17.5T150 97v-1zm-37 63h75v137h-75V159zm56 44q0 8-5.5 13.5T150 222q-8 0-13.5-5.5T131 203q0-8 5.5-13.5T150 184q8 0 13.5 5.5T169 203z"/></svg>