<svg viewBox="0 0 300 368" xmlns="http://www.w3.org/2000/svg"><path d="M231 334H69q-19 0-34.5-9.5t-25-25Q0 284 0 265V103q0-19 9.5-34.5t25-25Q50 34 69 34h162q19 0 34.5 9.5t25 25Q300 84 300 103v162q0 19-9.5 34.5t-25 25Q250 334 231 334zM69 71q-13 0-22 9.5T38 103v162q0 13 9 22t22 9h162q13 0 22.5-9t9.5-22V103q0-13-9.5-22.5T231 71H69zm150 94q-8 0-13.5 5.5T200 184q0 8 5.5 13.5T219 203q8 0 13.5-5.5T238 184q0-8-5.5-13.5T219 165zm-69 0q-8 0-13.5 5.5T131 184q0 8 5.5 13.5T150 203q8 0 13.5-5.5T169 184q0-8-5.5-13.5T150 165zm-69 0q-8 0-13 5.5T63 184q0 8 5 13.5t13 5.5q8 0 13.5-5.5T100 184q0-8-5.5-13.5T81 165zm88 88q0-8-5.5-13.5T150 234q-8 0-13.5 5.5T131 253q0 8 5.5 13t13.5 5q8 0 13.5-5t5.5-13zm0-138q0-8-5.5-13.5T150 96q-8 0-13.5 5.5T131 115q0 8 5.5 13.5T150 134q8 0 13.5-5.5T169 115z"/></svg>