<svg viewBox="0 0 300 368" xmlns="http://www.w3.org/2000/svg"><path d="M300 184q0 26-9 50-2 7-9 10.5t-14.5 1Q260 243 257 236t-1-14q7-19 7-38 0-31-15.5-56.5t-41-41Q181 71 150 71T93.5 86.5Q68 102 53 127.5T38 184q0 31 15 56.5T93.5 281q25.5 15 56.5 15h5q8 0 14 5t6 13q0 8-5 13.5t-13 6.5h-7q-41 0-75.5-20T20 259.5Q0 225 0 184t20-75.5Q40 74 74.5 54T150 34q41 0 75.5 20t54.5 54.5q20 34.5 20 75.5zm-78 34l-2-3q-6-6-13.5-6t-13 5q-5.5 5-13.5 10-16 10-30 10t-30-10q-7-4-13-10-6-5-13.5-5t-13 5.5Q75 220 75 228t6 13q8 8 20 16 25 15 49 15 15 0 30-7 8 12 20.5 17t24-1.5q11.5-6.5 13-20.5t-5.5-26l-10-16zm-122-49v-2 2q2 7 7 11t12 4h4q7-2 11.5-8.5T137 161q-3-16-13-27.5T100 122q-14 0-24 11.5T63 161q-2 8 2.5 14.5t12 8q7.5 1.5 14-2.5t8.5-12zm100-48q-14 0-24 12t-13 28q-2 8 2.5 14.5t12 8q7.5 1.5 14-2.5t8.5-12v-2 2q2 7 7 11t12 4h4q7-2 11.5-8.5T237 161q-3-16-13-27.5T200 122v-1z"/></svg>