<svg viewBox="0 0 300 368" xmlns="http://www.w3.org/2000/svg"><path d="M8 105q-4-3-4-8.5t3.5-9Q11 84 17 84h21V53q0-8 5-13.5T56 34q8 0 13.5 5.5T75 53v31h21q5 0 8.5 3.5t3.5 9q0 5.5-3 8.5l-40 40q-4 4-9 4t-9-4L8 105zm283 202q-8 13-21 20t-27 7H19q-8 0-13.5-5.5T0 315q0-8 5.5-13t13.5-5h35q-9-23 1-44l71-102q13-15 21-21 13-8 28-8 29 0 50 30l70 101q6 13 5 27.5t-9 26.5zm-30-37l-66-96q-11-15-20-15-4 0-7.5 2.5T155 175l-66 95q-4 9 2 17.5t16 8.5h23l28-51q3-7 10-9.5t14 0q7 2.5 10 9.5l28 51h23q11 0 16.5-8.5T261 270z"/></svg>