<svg viewBox="0 0 301 368" xmlns="http://www.w3.org/2000/svg"><path d="M244 284q-13 0-24.5-5T199 264q-3-3-4.5-8t0-10q1.5-5 5.5-8.5t9-4.5q5-1 9.5.5t8.5 5.5q5 6 14 7t15.5-4q6.5-5 6.5-13.5t-5.5-14Q252 209 244 209h-63q-8 0-13.5-5.5t-5-13.5q.5-8 5.5-13.5t13-5.5h63q27 1 42 19 14 15 14 37.5T286 266q-15 17-42 18zm57-194q0-19-11-33t-27.5-19.5Q246 32 229 36t-30 18q-3 3-4.5 8t0 10q1.5 5 5.5 8.5t9 4.5q5 1 9.5-.5T227 79q5-6 14-7t15.5 4q6.5 5 6.5 13.5t-5.5 14Q252 109 244 109h-38q-8 0-13.5 5.5t-5 13.5q.5 8 5.5 13.5t13 5.5h38q24-1 40-17t17-40zM175 278q0-24-16.5-40T119 221H19q-8 0-13.5 5.5T0 240q0 8 5.5 13.5T19 259h100q8 0 13.5 5.5T138 278q0 8-5.5 13t-13.5 5q-11 0-18-8-4-6-12-6.5T75 286q-6 5-6.5 12.5T72 312q9 10 21 16t26 6q23 0 39.5-16.5T175 278zm-12-163q-1 31-18 52-16 19-40 25.5t-48 0Q33 186 18 167 1 146 1 115.5T18 64q15-19 39-26t48 0q24 7 40 26 17 21 17 51h1zm-63 38q0-8-5.5-13.5T81 134q-8 0-13.5 5.5t-5 13.5q.5 8 5.5 13.5t13 5q8-.5 13.5-5.5t5.5-13zm0-75q0-8-5.5-13.5T81 59q-8 0-13 5.5T63 78v25q0 8 5 13.5t13 5q8-.5 13.5-5.5t5.5-13V78z"/></svg>