<svg viewBox="0 0 300 368" xmlns="http://www.w3.org/2000/svg"><path d="M295 302l-8-7q1-8-1-15t-7.5-12q-5.5-5-12.5-7.5t-14-1.5l-10-10q6-9 10-19l12 3 5 1q6 0 11-4t7-11q2-7-2-13.5t-12-8.5l-11-3q1-10 0-20l11-3q8-2 12-8.5t2-14q-2-7.5-8.5-11.5t-14.5-2l-12 2q-4-9-10-18l10-10h4q13 0 22.5-9t9.5-22q0-13-9.5-22.5T256 46q-13 0-22 9.5T225 78v4l-10 10q-9-6-19-10l3-12q2-8-2-14.5T185.5 47q-7.5-2-14 2T163 61l-3 11q-10-1-20 0l-3-11q-2-8-8.5-12t-14-2q-7.5 2-11.5 8.5T101 70l3 12q-10 4-19 10L75 82q1-7-1.5-14T66 55.5Q61 50 54 48t-15-1l-7-8q-5-5-13-5T5.5 39.5Q0 45 0 53t5 13l263 263q5 5 13 5t13.5-5.5Q300 323 300 315t-5-13zm-92-171q18 18 21 43.5t-9 47.5L112 119q22-12 47.5-9t43.5 21zm-84 103q-8 0-13.5-5.5T100 215q0-8 5.5-13.5T119 196q8 0 13.5 5.5T138 215q0 8-5.5 13.5T119 234zm81-81q0 8-5.5 13t-13.5 5q-8 0-13-5t-5-13q0-8 5-13.5t13-5.5q8 0 13.5 5.5T200 153zm-1 145q2 8-2 14.5t-11 8.5h-5q-6 0-11-3.5t-7-10.5l-3-11q-10 1-20 0l-3 11q-2 7-7 10.5t-11 3.5h-5q-7-2-11-8.5t-2-14.5l3-11q-10-5-19-11l-10 10v4q0 13-9 22t-22 9q-13 0-22-9t-9-22q0-13 9-22t22-9h4l10-10q-6-9-11-18l-11 2-5 1q-6 0-11-4t-7-11q-2-7 2-13.5t12-8.5l11-3q-1-10 0-20l-11-3q-8-2-12-8.5t-2-14q2-7.5 8.5-11.5t14.5-2l16 4q12 3 18.5 13t5.5 22q-3 17 2.5 34t18 29.5q12.5 12.5 29.5 18t34 2.5q12-1 22 5.5t13 18.5l4 16z"/></svg>