<svg viewBox="0 0 300 368" xmlns="http://www.w3.org/2000/svg"><path d="M300 228q-2 17-9 33-3 7-10.5 9.5t-14.5-1q-7-3.5-9.5-10.5t.5-14q5-10 5-20 2-26-14-46t-42-23q-6-1-10.5-5.5T190 140q-1-13-7.5-24t-17-19Q155 89 142 86t-26-1q-20 3-34.5 17T63 136.5Q59 157 69 177q6 11 2.5 23.5T57 219q-11 6-16 17t-2 22.5Q42 270 52 277t23 7h31q8 0 13.5 5.5T125 303q0 8-5.5 13t-13.5 5H75q-25 1-45.5-14T3 268.5q-6-23.5 2.5-45T34 189q-14-32-6-65.5t35.5-55q27.5-21.5 62-22t62 20.5Q215 88 225 121q23 7 41 23t27 38q9 22 7 46zm-68 43h-19v-56q-1-8-6-13.5t-13-5.5q-8 0-13.5 5.5T175 215v56h-20q-3 0-6 2.5t-4.5 5.5q-1.5 3-1 7t3.5 6l38 38q4 4 9 4t8-4l39-38q2-2 3-6t-.5-7q-1.5-3-4.5-5.5t-7-2.5z"/></svg>