<svg viewBox="0 0 300 368" xmlns="http://www.w3.org/2000/svg"><path d="M231 34H69q-19 0-34.5 9.5t-25 25Q0 84 0 103v162q0 19 9.5 34.5t25 25Q50 334 69 334h162q19 0 34.5-9.5t25-25Q300 284 300 265V103q0-19-9.5-34.5t-25-25Q250 34 231 34zm32 231q0 13-9.5 22t-22.5 9H69q-13 0-22.5-9T37 265V103q1-13 10-22.5T69 71h162q13 0 22 9.5t9 22.5v162h1zM138 115v38q-1 8-6 13.5t-13 5.5H81q-8-1-13-6t-5-13v-38q0-8 5-13.5T81 96h38q8 0 13.5 5.5T138 115zm100 0v38q0 8-5.5 13.5T219 172h-38q-8-1-13-6t-6-13v-38q1-8 6-13.5t13-5.5h38q8 0 13.5 5.5T238 115zM138 215v38q-1 8-6 13t-13 5H81q-8 0-13-5t-5-13v-38q0-8 5-13.5t13-5.5h38q8 1 13.5 6t5.5 13zm100 0v38q0 8-5.5 13t-13.5 5h-38q-8 0-13.5-5t-5.5-13v-38q1-8 6-13.5t13-5.5h38q8 1 13.5 6t5.5 13z"/></svg>