<svg viewBox="0 0 300 368" xmlns="http://www.w3.org/2000/svg"><path d="M150 134q-5 0-8.5-3.5T138 121v-12q0-5 3.5-8.5T150 97h13q5 0 8.5 3.5t3.5 8.5v12q0 6-3.5 9.5T162 134h-12zm63 0h12q5 0 8.5-3.5t3.5-9.5v-12q0-5-3.5-8.5T225 97h-12q-6 0-9.5 3.5T200 109v12q0 6 3.5 9.5t9.5 3.5zm-13 50q0 5 3.5 8.5t9.5 3.5h12q5 0 8.5-3.5t3.5-8.5v-13q0-5-3.5-8.5T225 159h-12q-6 0-9.5 3.5T200 172v12zm31-150h-87q-19 0-34.5 9.5t-25 25Q75 84 75 103q0 8 5.5 13.5T94 122q8 0 13.5-5.5T113 103q-1-13 8.5-22t22.5-9h87q13-1 22 8.5t9 22.5v162q1 13-8.5 22t-22.5 9h-12q-8 0-13.5 5.5T200 315q0 8 5.5 13.5T219 334h12q19 0 34.5-9.5t25-25Q300 284 300 265V103q0-19-9.5-34.5t-25-25Q250 34 231 34zm-43 199v45q0 23-16.5 39.5T131 334H56q-23 0-39.5-16.5T0 278v-45q0-14 6-26.5T24 185l32-25q17-14 38-14t38 14l32 25q11 9 17.5 21.5T188 233zm-38 0q0-11-9-19l-32-25q-7-5-15.5-5T79 189l-32 25q-9 7-9 19v45q0 8 5.5 13t12.5 5h75q8 0 13.5-5t5.5-13v-45zm-50 1H88q-6 0-9.5 3.5T75 246v13q0 5 3.5 8.5T87 271h13q5 0 8.5-3.5t3.5-8.5v-13q1-5-3-8.5t-9-3.5z"/></svg>