<svg viewBox="0 0 300 368" xmlns="http://www.w3.org/2000/svg"><path d="M81 217l-20 20q-5 5-13 5t-13.5-5.5q-5.5-5.5-5.5-13t6-13.5l19-19q-5-9-8-20H19q-8 0-13.5-5T0 153q0-8 5.5-13.5T19 134h27q3-10 8-19L35 95q-6-5-6-13t5.5-13.5Q40 63 48 63t13 6l20 19q9-5 19-8V53q0-8 5.5-13.5T119 34q8 0 13.5 5.5T138 53v27q10 3 19 8l19-19q6-6 13.5-6t13 5.5Q208 74 208 82t-5 13l-20 20q-9 9-21.5 10.5t-24-5-24-5Q101 117 92 126t-10.5 21.5q-1.5 12.5 5 24t5 24Q90 208 81 217zm206-40q-2-40-24-58-13-10-31-10t-32 11q-25 19-25 64v4q-10-4-20-4-17 0-31 10-21 17-23 57-6 5-10 11.5T87 277q1 11 7 26.5t14 25.5q4 5 11 5t11-5q7-10 13.5-25.5T150 277q0-15-12-25 1-13 4-20 5-11 13-11 12 0 17 14 3 10 3 24v56q0 8 5.5 13.5T194 334q8 0 13.5-5.5T213 315V184q0-14 3-24 5-14 16-14 9 0 13 11 4 8 4 21-11 10-11 25 0 11 6 26.5t14 25.5q4 5 11 5t11-5q7-10 13.5-25.5T300 203q0-8-3.5-14.5T287 177z"/></svg>