<svg viewBox="0 0 300 368" xmlns="http://www.w3.org/2000/svg"><path d="M300 296q0 16-11 27t-26.5 11q-15.5 0-26.5-11t-11-26l-31-18q-9 5-19 5-16 0-26.5-11T138 246.5q0-15.5 10.5-26.5t26.5-11q10 0 19 5l31-18q0-15 11-26t26.5-11q15.5 0 26.5 11t11 26.5q0 15.5-11 26.5t-26 11q-11 0-19-5l-31 18 31 17q8-5 19-5 15 0 26 11t11 27v-1zM116 72q13-2 26 1.5t23.5 11q10.5 7.5 17 19T190 127q1 7 5.5 11.5t11 5q6.5.5 13 3t13.5-1q7-3.5 9.5-11t-1-14.5q-3.5-7-10.5-9l-6-2q-7-25-24.5-43t-41-26.5Q136 31 111 35q-32 5-55 27.5t-29 54Q21 148 34 177q-20 12-28.5 34T3 256.5Q9 280 29 295t46 14h31q8 0 13.5-5.5T125 290q0-8-5.5-13t-13.5-6H75q-13 1-23-6t-13-19q-3-12 2-23t16-17q11-6 14.5-18T69 165q-10-20-6-41t18.5-35Q96 75 116 72z"/></svg>