<svg viewBox="0 0 300 368" xmlns="http://www.w3.org/2000/svg"><path d="M39 168q4-31 23-54t46.5-34.5Q136 68 167 72.5T223 98l-14 15q-4 4-4 9t3.5 8.5q3.5 3.5 8.5 3.5h58q5 0 8.5-3.5t3.5-8.5V65q0-6-3.5-9.5t-9-3.5q-5.5 0-8.5 4l-16 16q-31-27-70-35t-77 4.5Q65 54 38 84 8 118 2 162q-2 8 3 14t12 8h3q7 0 12.5-4.5T39 168zm241 16q-7 0-12.5 4.5T261 200q-4 31-23 54t-46.5 34.5q-27.5 11.5-58.5 7T77 270l14-15q4-4 4-9t-3.5-8.5Q88 234 83 234H25q-5 0-8.5 3.5T13 246v57q0 6 3.5 9.5t9 3.5q5.5 0 8.5-4l16-16q31 27 70 35t77-4.5q38-12.5 65-42.5 30-34 36-78 2-8-3-14.5t-12-7.5h-3z"/></svg>