<svg viewBox="0 0 300 368" xmlns="http://www.w3.org/2000/svg"><path d="M150 121q-17 0-31.5 8.5t-22.5 23Q88 167 88 184t8 31.5q8 14.5 22.5 22.5t31.5 8q17 0 31.5-8t23-22.5Q213 201 213 184t-8.5-31.5q-8.5-14.5-23-23T150 121zm0 88q-10 0-17.5-7.5T125 184q0-10 7.5-17.5T150 159q10 0 17.5 7.5T175 184q0 10-7.5 17.5T150 209zm62-87q-6-5-6-13t6-13l18-18q5-6 13-6t13.5 6q5.5 6 5.5 13.5t-6 12.5l-18 18q-5 6-13 6t-13-6zM88 246q6 5 6 13t-6 13l-17 18q-6 5-13.5 5T44 289.5q-6-5.5-6-13t6-13.5l18-17q5-6 13-6t13 6zM44 104q-6-5-6-13t5.5-13.5Q49 72 57 72t13 6l18 18q6 5 6 13t-5.5 13.5Q83 128 75 128t-13-6l-18-18zm212 160q6 5 6 13t-5.5 13.5Q251 296 243 296t-13-6l-18-18q-6-5-6-13t5.5-13.5Q217 240 225 240t13 6l18 18zm44-80q0 8-5.5 13.5T281 203h-25q-8 0-13.5-5.5T237 184q0-8 5.5-13.5T256 165h25q8 0 13.5 5.5T300 184zM44 203H19q-8 0-13.5-5.5T0 184q0-8 5.5-13.5T19 165h25q8 0 13.5 5.5T63 184q0 8-5.5 13.5T44 203zm87-125V53q0-8 5.5-13.5T150 34q8 0 13.5 5.5T169 53v25q0 8-5.5 13T150 96q-8 0-13.5-5T131 78zm38 212v25q0 8-5.5 13.5T150 334q-8 0-13.5-5.5T131 315v-25q0-8 5.5-13.5T150 271q8 0 13.5 5.5T169 290z"/></svg>