<svg viewBox="0 0 300 368" xmlns="http://www.w3.org/2000/svg"><path d="M238 156v-47h6q8 0 13.5-5.5t5-13.5q-.5-8-5.5-13.5T244 71h-10q-6-16-20.5-26.5T181 34h-62q-24 0-40 16.5T63 90v66q-12 8-18.5 18.5t-6.5 21q0 10.5 3 18.5 8 22 29 38 25 20 61 24-2 13-14 18-5 2-11 2-8 0-13.5 5.5T87 315q0 8 5.5 13.5T106 334h88q8 0 13.5-5.5t5-13.5q-.5-8-5.5-13.5t-13-4.5l-6-1q-6-2-11-6-6-5-8-14 36-4 61-24 21-16 29-38 1-3 2.5-9t1.5-11q0-9-7-19.5T237 156h1zM100 90q0-8 5.5-13.5T119 72h62q8-1 13.5 4.5T200 90v56H100V90zm125 107q-1 4-12 7-20 5-62.5 5T89 204q-13-3-14-7 1-3 5-7t10-6h120q6 2 10 6t5 7z"/></svg>