<svg viewBox="0 0 300 368" xmlns="http://www.w3.org/2000/svg"><path d="M175 34q-34 0-63.5 17t-46 47Q49 128 50 162t19 63L8 285q-8 9-8 20.5T8 326q9 8 20.5 8t20.5-8l60-61q34 21 73.5 18.5T253 256q31-25 42-63t-2-75.5Q280 80 247.5 57T175 34zm0 212q-24 0-44-11.5T99 203q-12-20-11.5-44t12-44Q111 95 131 83t44-12q24 0 44 12t32 32q12 20 11.5 44t-12 44Q239 223 219 234.5T175 246zm63-87q0 17-8.5 31.5t-23 22.5q-14.5 8-31.5 8t-31.5-8q-14.5-8-22.5-22.5t-8-31.5q0-17 8-31.5t22.5-22.5q14.5-8 31.5-8 8 0 13.5 5t5.5 13q0 8-5.5 13.5T175 134q-10 0-17.5 7.5T150 159q0 10 7.5 17.5T175 184q10 0 17.5-7.5T200 159q0-8 5.5-13.5T219 140q8 0 13.5 5.5T238 159z"/></svg>