<svg viewBox="0 0 300 368" xmlns="http://www.w3.org/2000/svg"><path d="M93 209q-26 3-47.5 17.5t-33.5 37Q0 286 0 313v2q0 8 5.5 13.5T19 334q8 0 13.5-5.5T38 315v-3q-1-25 15-43.5T94 247q17-2 32 5t25 20.5q10 13.5 11 30.5v12q0 8 5.5 13.5T181 334q8 0 13.5-5.5T200 315v-6q0-27-13.5-50T150 222.5Q127 209 100 209h-7zm7-25q20 0 37.5-10t27.5-27.5q10-17.5 10-37.5t-10-37.5Q155 54 137.5 44T100 34q-20 0-37.5 10T35 71.5Q25 89 25 109t10 37.5Q45 164 62.5 174t37.5 10zm0-112q16 0 26.5 10.5T137 109q0 16-10.5 27T100 147q-16 0-26.5-11T63 109q0-16 10.5-26.5T100 72zm175 60q-11 1-18.5 9t-6.5 19q0-11-7-19t-18-8q-11 0-18.5 8t-6.5 19q0 14 16 33 10 12 26 25 4 3 8 3t8-3q16-12 26-25 16-19 16-33 0-11-7-19t-18-9z"/></svg>