<svg viewBox="0 0 300 368" xmlns="http://www.w3.org/2000/svg"><path d="M230 133v21q0 4 2 7t5.5 4.5q3.5 1.5 7.5.5t7-3l44-45q4-4 4-9t-4-9l-44-45q-3-2-7-3t-7.5.5Q234 54 232 57t-2 7v30q-28 6-54 24-18 14-40 38-24-28-47-42-30-19-66-23h-4q-8 0-13.5 5T0 108.5Q0 116 5 122t12 6q30 3 54 19 18 12 40 37-22 25-40 37-24 16-54 19-7 1-12 6.5t-4.5 13Q1 267 6 272t13 5h1q31-3 56-16 22-11 42-30 13-12 34-36 23-27 36-38 20-18 42-24zm22 72q-3-2-7-3t-7.5.5Q234 204 232 207t-2 7v21q-24-7-43-25-6-4-13.5-3.5T161 212v1q-5 6-4.5 13.5T163 239q29 26 67 35v30q0 4 2 7t5.5 4.5q3.5 1.5 7.5.5t7-3l44-45q4-4 4-9t-4-9l-44-45z"/></svg>