<svg viewBox="0 0 300 368" xmlns="http://www.w3.org/2000/svg"><path d="M231 233q-14 0-27 5.5T182 254q-43 43-124 42H44q-4 1-6-3.5t1-7.5l29-29 143-38q23-6 37.5-24.5T263 152v-49q-1-19-10-34.5t-25-25Q212 34 194 34h-49q-24 0-42.5 14T78 85L39 233l-26 26Q3 268 .5 281t3 25.5Q9 319 20 326.5t24 7.5h14q96 0 150-54 7-7 16.5-8.5t18.5 2q9 3.5 14 11.5t5 18v12q1 8 6 13.5t13 5.5q8 0 13.5-5.5T300 315v-12q0-19-9.5-35T265 242.5q-16-9.5-34-9.5zM114 95q3-8 8-14l49 46 46-45q8 9 8 21v49q0 11-7 19l-47-44-88 87 31-119z"/></svg>