<svg viewBox="0 0 300 368" xmlns="http://www.w3.org/2000/svg"><path d="M188 190q0 16-11 27t-27 11q-16 0-26.5-11T113 190.5q0-15.5 10.5-26.5t26.5-11q16 0 26.5 11t10.5 26h1zM163 46q-6-5-13-5t-13 6l-24 24q-6 6-6 13t6 13l25 24q5 6 12 6t13-6l25-25q5-5 5-12t-6-13l-24-25zm6 200h-38q-8 0-13.5 5.5T112 265v38q0 8 5.5 13t13.5 5h38q8 0 13.5-5t5.5-13v-38q-1-8-6-13.5t-13-5.5zm87-187h-12q-8 0-13.5 5.5T225 78q0 8 5.5 13t13.5 5h12q3 0 5 2t2 5v62q-1 3-2.5 4.5T256 171h-6v-11q0-7-6-9.5t-11 2.5l-30 30q-3 3-3 7t3 7l30 31q5 4 11 1.5t6-8.5v-12h6q18 0 31-13t13-31v-62q0-18-13-31t-31-13zM67 253q-5-5-11-2.5t-6 9.5v11h-6q-3 0-4.5-1.5T38 265v-50q0-2 1.5-4t4.5-2h25q8 0 13.5-5.5T88 190q0-8-5.5-13.5T69 171H44q-18 0-31 13T0 215v50q0 18 13 31t31 13h6v12q0 6 6 8.5t11-1.5l30-31q3-3 3-7t-3-7l-30-30z"/></svg>