<svg viewBox="0 0 300 368" xmlns="http://www.w3.org/2000/svg"><path d="M231 34H69q-19 0-34.5 9.5t-25 25Q0 84 0 103v12q0 24 16.5 40.5T56 172h188q23-1 39.5-17t16.5-40v-12q0-19-9.5-34.5t-25-25Q250 34 231 34zm32 81q0 8-5.5 13.5T244 134h-8q2-3 1-6 1-8-4.5-13.5T219 109H81q-8 0-13 5.5T63 128q0 3 1 6h-8q-8 0-13.5-5.5T37 115v-12q1-13 10-22.5T69 71h162q13 0 22 9.5t9 22.5v12h1zM138 215v63q0 23-16.5 39.5t-40 16.5q-23.5 0-40-16.5T25 278q0-14 6-26t16-21q6-4 13.5-3.5T73 234q5 6 4.5 14T71 260q-4 3-6 8t-2 10q0 8 5 13.5t13 5.5q8 0 13.5-5.5T100 278v-63q0-8 5.5-13.5t13.5-5q8 .5 13.5 5.5t5.5 13zm137 63q0 23-16.5 39.5t-40 16.5q-23.5 0-40-16.5T162 278v-63q1-8 6-13.5t13-5q8 .5 13.5 5.5t5.5 13v63q0 8 5.5 13.5t13.5 5q8-.5 13.5-5.5t4.5-13q0-5-2-10t-6-8q-6-4-6.5-12t4.5-14q5-6 12.5-6.5T253 231q10 9 16 21t6 26z"/></svg>