<svg viewBox="0 0 300 368" xmlns="http://www.w3.org/2000/svg"><path d="M300 221v7q0 8-5.5 13t-13.5 5q-8 0-13-5t-5-13v-7q0-5-4-8.5t-9-3.5h-12v94q0 8-5.5 13t-13.5 5q-8 0-13.5-5t-5.5-13v-94h-12q-6 0-9.5 3.5T175 221v7q0 8-5.5 13t-13.5 5q-8 0-13-5t-5-13v-7q0-20 14.5-35t35.5-15h62q21 0 35.5 15t14.5 35zM150 84q10 0 17.5 7.5T175 109v6q0 8 5.5 13.5T194 134q8 0 13.5-5.5T213 115v-6q0-17-8.5-31.5t-23-23Q167 46 150 46H63q-17 0-31.5 8.5t-23 23Q0 92 0 109v6q0 8 5.5 13.5T19 134q8 0 13.5-5.5T38 115v-6q0-10 7-17.5T63 84h25v219q0 8 5 13t13 5q8 0 13.5-5t5.5-13V84h25z"/></svg>