<svg viewBox="0 0 300 368" xmlns="http://www.w3.org/2000/svg"><path d="M195 185q5 5 5 11.5t-5 11.5l-34 34q-4 4-11 4t-11-4l-34-34q-5-5-5-11.5t5-11.5l34-34q4-4 11-4t11 4l34 34zm80-22v90q0 18-9.5 34t-25 25.5Q225 322 206 322H94q-19-1-35-10t-25-25q-9-16-9-34v-90q-15-12-21.5-30T2 97q5-22 23.5-36T68 47h164q24-1 42.5 13.5T298 97q5 18-1.5 36T275 163zm-13-57q-3-10-11.5-16T232 84H68q-10 0-18.5 6t-11 16q-2.5 10 2 18.5T53 137q4 3 6.5 7.5T62 154v99q0 13 9.5 22t22.5 9h112q13 0 22-9t9-22v-99q0-5 2.5-9.5t7.5-7.5q8-4 12.5-12.5T262 106z"/></svg>