<svg viewBox="0 0 300 368" xmlns="http://www.w3.org/2000/svg"><path d="M224 168q14-18 14-40 0-19-9.5-34.5t-25.5-25Q187 59 169 59h-19v-6q0-8-5.5-13.5T131 34q-8 0-13 5.5T113 53v6H94q-23 0-39.5 16.5T38 115v138q0 23 16.5 39.5T94 309h19v6q-1 8 4.5 13.5T131 334q8 0 13.5-5.5T150 315v-6h38q20 0 37-10t27.5-27.5q10.5-17.5 10.5-38t-10.5-38Q242 178 224 168zm-55-72q13 0 22 9.5t9 22.5q0 13-9 22t-22 9h-19V96h19zm-94 19q0-8 5.5-13.5T94 96h19v63H75v-44zm19 156q-8 0-13.5-5T75 253v-57h38v75H94zm94 0h-38v-75h38q15 0 26 11.5t11 26.5q0 15-11 26t-26 11z"/></svg>