<svg viewBox="0 0 300 368" xmlns="http://www.w3.org/2000/svg"><path d="M244 296h-10q14-15 21.5-34.5T262 221q1-39-42-88-24-29-56-53 7-5 9.5-12.5T174 52q-2-8-9-13t-15-5q-8 0-14.5 5t-9 12.5q-2.5 7.5 0 15.5t9.5 13q-18 11-35 26-26 25-42 50-21 33-21 65-1 21 6.5 40.5T66 296H56q-8 0-13 5.5T38 315q0 8 5 13.5t13 5.5h188q8 0 13.5-5.5T263 315q0-8-5.5-13.5T244 296zM75 221q0-28 27-61 19-24 47-44 16 13 31 28l-38 47q-5 6-4.5 13.5T144 217q6 5 14 4.5t13-6.5l33-42q18 21 21 48 0 21-10 38t-27.5 27Q170 296 150 296t-37.5-10Q95 276 85 259t-10-37v-1z"/></svg>