<svg viewBox="0 0 300 368" xmlns="http://www.w3.org/2000/svg"><path d="M200 94q-1-9-8-16t-17-7h-3q3-5 3-12 0-10-7.5-17.5T150 34q-10 0-17.5 7.5T125 59q0 7 3 13h-3q-10 0-17 6.5T100 94q-34 15-54.5 46T25 209q0 34 17 62.5T87.5 317q28.5 17 62.5 17t62.5-17q28.5-17 45.5-45.5t17-62.5q0-38-20.5-69T200 94zm-50 27q23 1 42 11.5t31 29q12 18.5 14 40.5l-21-22q-9-8-21-8t-20 8l-25 25-25-25q-8-8-20-8t-21 8l-21 22q2-22 14-40.5t31-29.5q19-11 42-11zm0 175q-26 0-47-13.5T71 247l34-34 24 25q9 8 21 8t21-8l24-25 34 34q-11 22-32 36t-47 14v-1z"/></svg>