<svg viewBox="0 0 300 368" xmlns="http://www.w3.org/2000/svg"><path d="M300 203q-1-20-12-36l-17-24q-7-10-18-16t-23-6h-18l1-6q0-20-12.5-36.5T169 56v-3q0-8-5.5-13.5T150 34q-8 0-13.5 5.5T131 53v3q-19 6-31.5 22.5T87 115l1 6H70q-13 0-23.5 6T29 143l-18 24Q0 183 0 203v75q0 23 16.5 39.5T56 334h25q13 0 22-9t9-22v-17q0-15 10-26.5t24-12.5q17-2 29 9.5t12 29.5v17q0 13 9.5 22t22.5 9h25q23 0 39.5-16.5T300 278v-75zM150 90q10 0 17.5 7.5t7.5 18q0 10.5-7.5 17.5t-17.5 7q-10 0-17.5-7t-7.5-17.5q0-10.5 7.5-18T150 90zm113 188q-1 8-6 13t-13 5h-19v-10q0-13-3-23-8-27-30.5-41.5T143 209q-19 2-34.5 13T84 250q-9 17-9 36v11H56q-8 0-13-5.5T38 278v-81q0-6 3.5-9.5T50 184h200q5 0 9 3.5t4 9.5v81z"/></svg>