<svg viewBox="0 0 300 368" xmlns="http://www.w3.org/2000/svg"><path d="M283 148q-10-35-36-61t-61-36q-2-7-8.5-12T162 34h-24q-9 0-15.5 5T114 51Q79 61 53 87t-36 61q-7 2-12 8.5T0 172v24q0 9 5 15.5t12 8.5q10 35 36 61t61 36q2 7 8.5 12t15.5 5h25q8 0 14.5-5t8.5-12q35-10 61-36t36-61q7-2 12-8.5t5-15.5v-25q0-8-5-14.5t-12-8.5zm-96 129q-3-8-9.5-13t-15.5-5h-24q-9 0-15.5 5t-9.5 13q-19-8-33.5-22.5T57 221q8-3 13-9.5t5-15.5v-25q0-8-5-14.5T57 147q8-19 22.5-33.5T113 91q3 8 9.5 13t15.5 5h25q8 0 14.5-5t9.5-13q19 8 33.5 22.5T243 147q-8 3-13 9.5t-5 15.5v24q0 9 5 15.5t13 9.5q-8 19-22.5 33.5T187 277z"/></svg>