<svg viewBox="0 0 300 368" xmlns="http://www.w3.org/2000/svg"><path d="M131 71q-35 0-65.5 18t-48 48Q0 167 0 202.5t17.5 66q17.5 30.5 48 48t66 17.5q35.5 0 65.5-17.5t48-48q18-30.5 18-66T245 137q-18-30-48-48t-66-18zm0 225q-25 1-46.5-12t-34-34.5Q38 228 38 203q0-19 7-37v1q5 4 12 4h24q6 0 11 5l3 3q5 5 5 11v12q0 7 5 12l15 15q5 5 5 11v16q0 6 4.5 10.5t10 4.5q5.5 0 9-2t5.5-6l26-47q3-6 1.5-12t-6.5-9l-32-20q-5-4-12-4h-18q-7 0-12-4l-5-6q-4-3-4-8t4-9l4-4q3-3 6.5-3.5t7.5 1.5l10 5q3 1 7 .5t6.5-3q2.5-2.5 3-6.5t-1.5-8l-10-17h2q26 0 47.5 12.5t34 34q12.5 21.5 12.5 47t-12.5 47q-12.5 21.5-34 34T131 296zM300 65q0 13-9 22.5t-22 9q-13-.5-22-9.5t-9-22q0-13 9-22t22-9q13 0 22 9t9 22z"/></svg>