<svg viewBox="0 0 300 368" xmlns="http://www.w3.org/2000/svg"><path d="M231 34H69q-19 0-34.5 9.5t-25 25Q0 84 0 103v112q0 19 9.5 34.5t25 25Q50 284 69 284h18l51 43q5 4 12 4t12-4l51-43h18q19 0 34.5-9.5t25-25Q300 234 300 215V103q0-19-9.5-34.5t-25-25Q250 34 231 34zm32 181q-1 13-10 22t-22 9h-25q-6 1-12 5l-44 37-44-37q-6-4-12-5H69q-13 0-22-9t-9-22V103q0-13 9-22.5T69 72h162q13-1 22.5 8.5T262 103l1 112zM94 146h37q8 0 13.5-5t5.5-13q0-8-5.5-13.5T131 109H94q-8 0-13.5 5.5T75 128q0 8 5.5 13.5T94 147v-1zm112 25H94q-8 0-13.5 5.5T75 190q0 8 5.5 13.5T94 209h112q8 0 13.5-5.5T225 190q0-8-5.5-13t-13.5-6z"/></svg>