<svg viewBox="0 0 300 368" xmlns="http://www.w3.org/2000/svg"><path d="M172 136l-20 100q-1 5-4.5 7.5T140 246h-2q-6-1-8.5-5t-1.5-10l20-100q1-5 5-7.5t9.5-1.5q5.5 1 8 5t1.5 9zm-57 16q-4-4-9-4t-8 4l-16 15q-7 7-7 17.5t7 17.5l16 15q3 4 8 4t9-3.5q4-3.5 4-9t-4-8.5l-15-15 15-15q4-4 4-9t-4-9zm103 15l-15-15q-4-4-9-4t-9 4q-4 4-4 9t4 8l15 15-15 16q-4 3-4 8.5t4 9q4 3.5 9 3.5t9-4l15-15q7-7 7-17.5t-7-17.5zm62 92q-3 5-7.5 7.5T263 269q-5 0-9-3l-7-4q-14 19-34.5 30.5T169 308v7q0 8-5.5 13.5T150 334q-8 0-13.5-5.5T131 315v-7q-23-4-43.5-15.5T53 262l-7 4q-4 3-9 3t-9.5-2.5Q23 264 20 259q-4-6-2-13.5t9-11.5l7-4q-9-22-9-46t9-46l-7-4q-7-4-9-11.5t2-14q4-6.5 11.5-8.5t14.5 2l7 4q14-19 34.5-30.5T131 60v-7q0-8 5.5-13.5T150 34q8 0 13.5 5.5T169 53v7q23 4 43.5 15.5T247 106l7-4q7-4 14.5-2t11.5 8.5q4 6.5 2 14t-9 11.5l-7 4q9 22 9 46t-9 46l7 4q7 4 9 11.5t-2 13.5zm-42-75q0-24-12-44t-32-32q-20-12-44-12t-44 12q-20 12-31.5 32t-12 44Q62 208 74 228t32 31.5q20 11.5 44 12t44-11.5q20-12 32-32t12-44z"/></svg>