<svg viewBox="0 0 300 368" xmlns="http://www.w3.org/2000/svg"><path d="M251 84l-26-26q-11-12-26-18t-31-6H94q-19 0-34.5 9.5t-25 25Q25 84 25 103v162q0 19 9.5 34.5t25 25Q75 334 94 334h112q19 0 34.5-9.5t25-25Q275 284 275 265V141q0-16-6-31t-18-26zm-13 181q0 13-9.5 22t-22.5 9H94q-13 0-22-9t-9-22V103q0-13 9-22.5T94 71h74q18 0 31 13l26 26q13 13 12 31v124h1zM88 234h62v37h-25q-16 0-26.5-10.5T88 234zm37-25H88q0-16 10.5-27t26.5-10v37zm50 25h38q0 16-11 26.5T175 271v-37zm38-25h-63v-38h25q16 0 26.5 11t10.5 27h1z"/></svg>