<svg viewBox="0 0 300 368" xmlns="http://www.w3.org/2000/svg"><path d="M150 71q13 0 22 9.5t9 22.5q0 13-9 22t-22 9q-13 0-22-9t-9-22q0-13 9-22.5t22-9.5zm132 175q-4 0-7-1v8q0 8-5.5 13t-13.5 5q-3 0-6-1v20q0 16-6 25t-15 14q-9 5-20 5H91q-10 0-19.5-5T57 315q-3-4-5-14l-2-8v-23q-3 1-6 1-8 0-13.5-5T25 253v-8q-3 1-6 1h-1q-8 0-13-5.5T0 227v-9q1-30 3-46 4-29 14-44 12-19 33-19 25 0 52 19 17 12 31 28 17 6 34 0 14-16 31-28 27-19 52-19 21 0 33 19 10 15 14 44 2 16 3 46v9q0 8-5 13.5t-13 5.5zM44 209q8 0 13.5 5.5T63 228v7q3-1 6-1h4l27-59q-11-11-23-19-15-10-27-10-10 6-12 64 3-1 6-1zm168 86v-3l-44-97q-18 3-36 0l-44 97q-1 1 0 2.5t3 1.5h118q2 0 3-1zm44-86q3 0 6 1-2-58-12-64-12 0-27 10-12 8-23 19l27 59h4q4 0 7 1v-7q0-8 5-13.5t13-5.5zM100 87q5 0 8.5-3.5t4-8.5q.5-5 11-10.5T150 59q16 0 27 5.5T187.5 75q-.5 5 3.5 8.5t9 3.5q5 0 8.5-3.5T212 75q1-18-17-29.5T150 34q-27 0-44.5 11.5T88 75q-1 5 3 8.5t9 3.5z"/></svg>