<svg viewBox="0 0 300 368" xmlns="http://www.w3.org/2000/svg"><path d="M169 180v135q0 8-5.5 13.5T150 334q-8 0-13.5-5.5T131 315V180q-8-5-13.5-13.5T112 147q1-15 11.5-26t26.5-11q16 0 26.5 11t10.5 26q0 11-5 19.5T169 180zm-75-33q0-23 16-39 6-6 6-13.5t-5.5-13Q105 76 97 76t-13 5q-14 13-21 30.5t-7 36q0 18.5 7 35.5t21 31q5 5 13 5t13.5-5.5q5.5-5.5 5.5-13t-6-13.5q-16-16-16-40zm122-66q-5-5-13-5t-13.5 5.5q-5.5 5.5-5.5 13t6 13.5q16 16 16 39.5T190 187q-6 6-6 13.5t5.5 13Q195 219 203 219t13-5q14-14 21-31t7-35.5q0-18.5-7-36T216 81zM70 68q6-6 6-13.5t-5.5-13Q65 36 57 36t-13 5Q15 70 5 108.5T5 186q10 39 39 68 5 5 13 5t13.5-5.5Q76 248 76 240t-6-13q-21-22-28.5-51t0-58Q49 89 70 68zm186-27q-5-5-13-5t-13.5 5.5q-5.5 5.5-5.5 13t6 13.5q21 21 28.5 50t0 58q-7.5 29-28.5 51-6 5-6 13t5.5 13.5Q235 259 243 259t13-6q29-28 39-67t0-77.5Q285 70 256 41z"/></svg>