<svg viewBox="0 0 300 368" xmlns="http://www.w3.org/2000/svg"><path d="M259 209q-13-12-31-12t-31 12l-5 5q-24-11-42.5-29.5T120 142l5-5q12-13 12.5-30.5T125 76L98 47Q86 34 68 34T37 46L23 58Q-5 88 2 134q6 41 38 86 31 43 74 74 45 32 86 38 46 7 76-21l12-14q12-13 12-31t-13-31l-28-26zm2 62l-12 14q-19 17-52 9-30-7-63.5-32T74 204q-26-33-34-63-8-34 9-56l14-12q2-1 4-1.5t4 1.5l27 29q2 2 2 4.5t-2 4.5l-14 14q-4 4-5 9.5t1 10.5q14 38 42.5 66.5T189 254q5 2 10.5 1t9.5-5l14-14q3-2 5-2t5 2l28 26q1 2 1 4.5t-1 4.5zm39-225v56q0 4-2 7.5t-5.5 4.5q-3.5 1-7.5.5t-6-3.5l-15-14-45 44q-5 5-12.5 5t-13-5.5q-5.5-5.5-5.5-13t5-13.5l45-44-15-15q-3-2-3.5-6t.5-7.5q1-3.5 4.5-5.5t7.5-2h56q5 0 8.5 3.5T300 46z"/></svg>