<svg viewBox="0 0 300 368" xmlns="http://www.w3.org/2000/svg"><path d="M250 271V96q0-16-8.5-30.5t-23-23Q204 34 187 34h-74q-17 0-31.5 8.5t-23 23Q50 80 50 96v175q0 17 8.5 31.5t23 23Q96 334 112 334h76q16 0 30.5-8.5t23-23Q250 288 250 271zm-56-87q0 14-8 25t-20 16q12 5 20 16t8 24q0 18-13 31t-31 13q-18 0-31-13t-13-31q0-13 8-24t20-16q-12-5-20-16t-8-25q0-14 8-25t20-16q-12-5-20-16t-8-24q0-18 13-31t31-13q18 0 31 13t13 31q0 13-8 24t-20 16q12 5 20 16t8 25zm-44-19q8 0 13.5 5.5T169 184q0 8-5.5 13.5T150 203q-8 0-13.5-5.5T131 184q0-8 5.5-13.5T150 165zm0 81q8 0 13.5 5.5T169 265q0 8-5.5 13.5T150 284q-8 0-13.5-5.5T131 265q0-8 5.5-13.5T150 246z"/></svg>