<svg viewBox="0 0 300 368" xmlns="http://www.w3.org/2000/svg"><path d="M275 164v101q0 19-9.5 34.5t-25 25Q225 334 206 334H94q-29 0-49-20t-20-49V164q0-24 14.5-42.5T77 97q7-2 13.5 2t8.5 11.5q2 7.5-1.5 14T86 133q-10 3-16.5 11.5T63 164v101q0 13 9 22t22 9h112q13 0 22-9t9-22V164q0-11-6.5-19.5T214 133q-7-2-11-8.5t-2-14q2-7.5 8.5-11.5t14.5-2q22 6 36.5 24.5T275 164zM86 190q-5 6-5 13.5t6 12.5l32 30q13 13 31 13t31-12l32-31q6-5 6-12.5t-5.5-13.5q-5.5-6-13-6t-13.5 5l-18 17V53q0-8-5.5-13.5T150 34q-8 0-13.5 5.5T131 53v153l-18-17q-6-5-13.5-5T86 190z"/></svg>