<svg viewBox="0 0 300 368" xmlns="http://www.w3.org/2000/svg"><path d="M292 96q-5-1-27-5l-9-2q1-6 3-10 4-6 12-7t12.5-7q4.5-6 3.5-14t-7-12.5q-6-4.5-14-3.5-18 2-30 13-10 10-14 24-5-1-9.5-1t-9.5 1q-4-14-14-24-12-11-30-13-8-1-14 3.5T138 51q-1 8 3.5 14t12.5 7q8 1 12 7 2 4 3 10l-36 8q-5 1-7 5.5t1 8.5q7 12 23 16v42q0 24 17 38.5t45.5 14.5q28.5 0 45.5-14.5t17-38.5v-42q16-4 23-16 3-4 1-8.5t-7-6.5zm-54 73q-1 6-4 9-5 6-21.5 6t-21.5-6q-3-3-3-9v-35q-1-10 6.5-17.5t18-7.5q10.5 0 18 7.5T238 134v35zm11 87q-2 11-8.5 19.5T225 289v14q0 13-9 22t-21.5 9q-12.5 0-21-7.5T163 309h-7q-9 0-18-4-13 5-26 3-2 11-10.5 18.5t-21 7.5Q68 334 59 325t-9-22v-13q-10-6-16.5-16T25 252q-11-6-18-17.5T0 209q0-14 7-25.5T25 166q3-19 17-32t33-13q5 0 10 1l4-3q6-5 13.5-4t12.5 7.5q5 6.5 4 14t-8 12.5q-2 2-3 4-4 8-12 10t-14.5-2q-6.5-4-13 0T62 171l1 3q2 8-2.5 14.5T48 197q-5 1-8 4t-3 8q0 5 3 8t8 4q8 2 12.5 8.5T63 244l-1 3q0 6 6.5 10t13 0q6.5-4 14.5-2t11.5 9.5Q111 272 119 272q4 0 8-3.5t10.5-3.5q6.5 0 10.5 3.5t8 3.5q8 0 11.5-7.5T179 255q8-2 14 1.5t12 1q6-2.5 7.5-9.5t8-11q6.5-4 14-2.5t12 8Q251 249 249 257v-1z"/></svg>