<svg viewBox="0 0 300 368" xmlns="http://www.w3.org/2000/svg"><path d="M47 145L8 105q-4-3-4-8.5t3.5-9Q11 84 17 84h21V53q0-8 5-13.5T56 34q8 0 13.5 5.5T75 53v31h21q5 0 8.5 3.5t3.5 9q0 5.5-3 8.5l-40 40q-4 4-9 4t-9-4zm235-61h-19V53q0-8-5.5-13.5T244 34q-8 0-13.5 5.5T225 53v31h-20q-5 0-8.5 3.5T193 96q0 5 4 9l38 38q4 4 9 4t8-4l39-38q3-4 3-9t-3.5-8.5Q287 84 282 84zm-12 169q6 13 5 27.5t-9 27q-8 12.5-21 19.5t-27 7H82q-14 0-27-7t-21-19.5q-8-12.5-9-27t5-27.5l71-102q13-15 21-21 13-8 28-8 29 0 50 30l70 101zm-34 17l-66-96q-11-15-20-15-4 0-7.5 2.5T130 175l-66 95q-4 9 2 18t16 9h23l28-52q3-7 10-9.5t14 0q7 2.5 10 9.5l28 52h23q11 0 16.5-9t1.5-18z"/></svg>