<svg viewBox="0 0 300 368" xmlns="http://www.w3.org/2000/svg"><path d="M150 334q-15 0-26.5-8.5T107 304q-1-4-4.5-5.5t-6.5.5q-13 6-27.5 3.5T44 290q-10-10-12.5-24.5T35 238q2-3 .5-6.5T30 227q-13-5-21.5-17T0 183.5q0-14.5 8.5-26T30 141q4-1 5.5-4.5T35 130q-6-13-3.5-27.5T44 78q10-10 24.5-12.5T96 69q3 2 6.5.5T107 64q5-13 17-21.5t26.5-8.5q14.5 0 26 8.5T193 64q1 4 4.5 5.5t6.5-.5q13-6 27.5-3.5T256 78q10 10 12.5 24.5T265 130q-2 3-.5 6.5t5.5 4.5q13 5 21.5 17t8.5 26.5q0 14.5-8.5 26T270 227q-4 1-5.5 4.5t.5 6.5q6 13 3.5 27.5T256 290q-10 10-24.5 12.5T204 299q-3-2-6.5-.5T193 304q-5 13-16.5 21.5T150 334zm-51-73q15 0 26.5 8t16.5 22q1 3 3 4.5t5 1.5q3 0 5-1.5t3-4.5q3-9 9.5-16t15.5-11q9-4 19-3.5t18 4.5q5 3 9.5-1.5t1.5-9.5q-4-8-4.5-18t3.5-19q4-9 11-15.5t16-9.5q6-2 6-8t-6-8q-9-3-16-9.5T230 151q-4-9-3.5-19t4.5-18q3-5-1.5-9.5T220 103q-8 4-18 4.5t-19-3.5q-9-4-15.5-11T158 77q-2-6-8-6t-8 6q-3 9-9.5 16T117 104q-9 4-19 3.5T80 103q-5-3-9.5 1.5T69 114q4 8 4.5 18T70 151q-4 9-11 15.5T43 176q-5 2-5 8t5 8q9 3 16 9.5T70 217q4 9 3.5 19T69 254q-3 5 1.5 9.5T80 265q9-4 19-4z"/></svg>