<svg viewBox="0 0 300 368" xmlns="http://www.w3.org/2000/svg"><path d="M231 334H19q-8 0-13.5-5.5T0 315q0-8 5.5-13.5T19 296h212q13 0 22.5-9t9.5-22V53q0-8 5-13.5t13-5.5q8 0 13.5 5.5T300 53v212q0 19-9.5 34.5t-25 25Q250 334 231 334zM0 115q0 8 5.5 13.5T19 134q8 0 13.5-5.5T38 115q0-8-5.5-13.5T19 96q-8 0-13.5 5.5T0 115zm0 138q0 8 5.5 13t13.5 5q8 0 13.5-5t5.5-13q0-8-5.5-13.5T19 234q-8 0-13.5 5.5T0 253zM0 53q0 8 5.5 13T19 71q8 0 13.5-5T38 53q0-8-5.5-13.5T19 34q-8 0-13.5 5.5T0 53zm63 0q0 8 5 13t13 5q8 0 13.5-5t5.5-13q0-8-5.5-13.5T81 34q-8 0-13 5.5T63 53zm68 0q0 8 5.5 13t13.5 5q8 0 13.5-5t5.5-13q0-8-5.5-13.5T150 34q-8 0-13.5 5.5T131 53zm69 0q0 8 5.5 13t13.5 5q8 0 13.5-5t5.5-13q0-8-5.5-13.5T219 34q-8 0-13.5 5.5T200 53zM0 184q0 8 5.5 13.5T19 203q8 0 13.5-5.5T38 184q0-8-5.5-13.5T19 165q-8 0-13.5 5.5T0 184z"/></svg>