<svg viewBox="0 0 300 368" xmlns="http://www.w3.org/2000/svg"><path d="M229 128l-29-17V70q6-2 9-6.5t3.5-11.5q.5-7-5-12.5T194 34h-88q-8 0-13.5 5.5T87 52q0 7 3.5 11.5T100 70v41l-29 17q-16 10-24.5 25.5T38 187v78q0 19 9 34.5t25 25q16 9.5 34 9.5h88q18 0 34-9.5t25-25q9-15.5 9-34.5v-78q1-18-8-33.5T229 128zm-4 137q0 13-9 22.5t-22 9.5h-88q-13-1-22-10t-9-22v-78q0-8 4-15t11-11l38-23q5-3 7.5-7.5t2.5-9.5V71h25v50q0 5 2 9.5t7 7.5l38 23q7 4 11 11t4 15v78zm-61-75q10 13 16 21 8 13 8 23 0 16-11 26.5T150 271q-16 0-26.5-10.5T113 234q0-10 7-23 6-8 16-21 6-6 14-6t14 6z"/></svg>