<svg viewBox="0 0 300 368" xmlns="http://www.w3.org/2000/svg"><path d="M269 153q0-32-16-59.5T209.5 50Q182 34 150 34T90.5 50Q63 66 47 93.5T31 153q0 29 13.5 54t36 41.5Q103 265 131 270v26H94q-8 0-13.5 5.5T75 315q0 8 5.5 13.5T94 334h112q8 0 13.5-5.5T225 315q0-8-5.5-13.5T206 296h-37v-26q28-5 50.5-21.5t36-41.5q13.5-25 13.5-54zM122 77q5 18 14 42t14 34q5-10 14-34t14-42q24 8 38.5 29t14.5 47q0 9-2 18-19-7-44-12.5t-35-5.5q6 9 20 29 17 21 29 35-22 17-49 17t-49-17q12-14 29-35 14-20 20-29-10 0-35 5.5T71 171q-2-9-2-18 0-26 14.5-47T122 77z"/></svg>