<svg viewBox="0 0 300 368" xmlns="http://www.w3.org/2000/svg"><path d="M225 184q-20 0-37.5 10T160 221.5Q150 239 150 259t10 37.5q10 17.5 27.5 27.5t37.5 10q20 0 37.5-10t27.5-27.5q10-17.5 10-37.5t-10-37.5Q280 204 262.5 194T225 184zm46 71l-34 33q-8 8-20.5 8t-20.5-8l-17-17q-4-3-4-8.5t3.5-9q3.5-3.5 9-3.5t8.5 4l17 16q2 2 3.5 1.5t3.5-1.5l34-33q3-3 8.5-3t9 3.5q3.5 3.5 3.5 9t-4 8.5zM25 134q0-16 11-27t26.5-11Q78 96 89 107t11 27q0 16-11 26.5T62.5 171Q47 171 36 160.5T25 134zm125-63q0-15 11-26t26.5-11Q203 34 214 45t11 26.5Q225 87 214 98t-26.5 11Q172 109 161 98t-11-27zm-25 182q0 8-5.5 13t-13.5 5q-8 0-13.5-5t-5-14q.5-9-3.5-17-6-13-21.5-13.5T41 235q-3 8-3 17t-5.5 14q-5.5 5-13.5 5.5t-13.5-5Q0 261 0 253q0-18 7-33.5T28 194q14-10 34.5-10T97 194q14 10 21 25.5t7 33.5zm20-57h-4q-7-1-11.5-7.5T127 174q4-24 20.5-38.5T188 121q27 0 44 19 5 6 4.5 13.5t-6 13q-5.5 5.5-13 5T204 165q-6-6-17-6-19 0-24 22-1 7-6 11.5t-12 4.5v-1z"/></svg>