<svg viewBox="0 0 300 368" xmlns="http://www.w3.org/2000/svg"><path d="M295 48q-6-5-14-5t-13 5l-60 60q-18-17-42-18t-43 13q-24 17-51 27l-23 6q-17 5-30 18.5t-17 31Q-2 203 3 221l3 9q10 25 28 45.5T76 308q39 18 81 17h1q14 0 26-8 29-21 48.5-52t26.5-67q3-16-2.5-32.5T239 137l-4-3 60-60q5-5 5-13t-5-13zM161 287q-2 1-3 1-20 0-40-4 26-16 43-41l6-9q4-6 3-13.5t-7.5-12q-6.5-4.5-14-3.5t-12.5 8l-6 9q-16 23-41 36l-12 6q-11-9-20-20 26-11 47-31 5-5 5-13t-5.5-13.5q-5.5-5.5-13-5.5T77 187q-16 16-38 24-4-13 2.5-24T60 172l22-6q29-10 54-27l79 77q-16 43-54 71z"/></svg>