<svg viewBox="0 0 300 368" xmlns="http://www.w3.org/2000/svg"><path d="M231 59H69q-19 0-34.5 9.5t-25 25Q0 109 0 128v112q0 19 9.5 34.5t25 25Q50 309 69 309h162q19 0 34.5-9.5t25-25Q300 259 300 240V128q0-19-9.5-34.5t-25-25Q250 59 231 59zm32 181q0 13-9.5 22.5T231 272H69q-13-1-22-10t-9-22V128q0-13 9-22t22-9h162q13 0 22 9t9 22v112h1zm-134-98q-2-9-9.5-15t-17-6q-9.5 0-16.5 6t-9 15l-20 89q-2 5 1 9.5t8 5.5q5 1 9.5-1.5T81 237l3-16h37l4 16q1 4 4.5 6.5t7.5 2.5h3q5-1 7.5-5.5t1.5-9.5l-20-89zm-39 54l11-48q0-2 1.5-2t2.5 2l11 48H90z"/></svg>