<svg viewBox="0 0 300 368" xmlns="http://www.w3.org/2000/svg"><path d="M150 334q-30 0-56-15t-41-41q-15-26-15-57V115q0-22 10.5-40.5T78 45q19-11 41-11t40.5 11Q178 56 189 74.5t11 40.5v106q0 21-14.5 35.5T150 271q-21 0-35.5-14.5T100 221V115q0-8 5.5-13.5T119 96q8 0 13.5 5.5T138 115v106q0 6 3.5 9.5t8.5 3.5q5 0 9-3.5t4-9.5V115q0-18-13-31t-31-13q-18 0-31 13t-13 31v106q0 21 10 38t27.5 27q17.5 10 37.5 10t37.5-10q17.5-10 27.5-27t10-38V90q0-8 5.5-13.5T244 71q8 0 13.5 5.5T263 90v131q0 31-15.5 57T206 319q-26 15-56 15z"/></svg>