<svg viewBox="0 0 300 368" xmlns="http://www.w3.org/2000/svg"><path d="M138 278q0 8-5.5 13t-13.5 5H98l-24 31q-4 7-12 7-7 0-10.5-5.5T50 317l8-21H35q-6 0-12-3.5t-9-9.5L1 261q-2-5 .5-10t7.5-5q5 0 8 3l14 10h28l-9-21q-2-6 1.5-11.5t11-5.5q7.5 0 11.5 8l24 30h21q8 0 13.5 5.5T138 278zm106-82H131q-8 0-13-5t-5-13q0-8 5-13.5t13-5.5h13q8 0 13.5-5.5T163 140q0-8-5.5-13t-13.5-5h-13q-23-1-39.5 15.5t-16.5 40q0 23.5 16.5 40T131 234h113q8 0 13.5 5.5T263 253q0 8-5.5 13.5T244 271h-63q-8 1-13 6t-5.5 13q-.5 8 5 13.5T181 309h63q23 0 39.5-16.5t16.5-40q0-23.5-16.5-39.5T244 197v-1zm38-144q-19-18-44.5-18T193 52q-12 12-16 28t0 32q4 16 16 28l19 21q10 11 25.5 11t25.5-11l19-20q18-19 18-44.5T282 52zm-44 67q-11 0-18-7.5t-7-18q0-10.5 7-17.5t17.5-7q10.5 0 18 7t7.5 17.5q0 10.5-7.5 18T238 119z"/></svg>