<svg viewBox="0 0 300 368" xmlns="http://www.w3.org/2000/svg"><path d="M63 117v134q11 5 18 15.5t7 23.5q0 18-13 31t-31 13q-18 0-31-13T0 290q0-13 7-23.5T25 251V117q-11-5-18-15.5T0 78q0-18 13-31t31-13q18 0 31 13t13 31q0 13-7 23.5T63 117zm200 135v-74q0-8-5.5-13.5T244 159q-8 0-13.5 5.5T225 178v74q-11 5-18 15.5t-7 23.5q0 18 13 31t31 13q18 0 31-13t13-31q0-13-7-23.5T262 252h1zm7-162l25-24q5-5 5-13t-5.5-13.5Q289 34 281 34t-13 5l-24 25-24-25q-6-5-14-5t-13 5.5q-5 5.5-5 13.5t5 13l24 24-24 24q-5 6-5 14t5 13q5 5 13 5t14-5l24-24 24 24q5 5 13 5t13.5-5q5.5-5 5.5-13t-5-14l-25-24z"/></svg>