<svg viewBox="0 0 300 368" xmlns="http://www.w3.org/2000/svg"><path d="M231 34H69q-19 0-34.5 9.5t-25 25Q0 84 0 103v162q0 19 9.5 34.5t25 25Q50 334 69 334h162q19 0 34.5-9.5t25-25Q300 284 300 265V103q0-19-9.5-34.5t-25-25Q250 34 231 34zm32 231q0 13-9.5 22t-22.5 9H69q-13 0-22-9t-9-22V103q0-13 9-22.5T69 71h162q13 0 22.5 9.5T263 103v162zm-38-150v138q0 8-5.5 13t-13.5 5q-8 0-13-5t-5-13v-50h-75v50q-1 8-6 13t-13 5q-8 0-13.5-5T75 253V115q0-8 5.5-13T94 96.5q8-.5 13.5 5T113 115v50h75v-50q0-8 5-13t13-5.5q8-.5 13.5 5T225 115z"/></svg>