<svg viewBox="0 0 300 368" xmlns="http://www.w3.org/2000/svg"><path d="M300 278v12q0 8-5.5 13.5T281 309q-8 0-13-5.5t-5-13.5v-12q0-3-2-5t-5-2h-87v19q0 8-5.5 13.5T150 309q-8 0-13.5-5.5T131 290v-19H44q-3 0-4.5 2t-1.5 5v12q0 8-5.5 13.5T19 309q-8 0-13.5-5.5T0 290v-12q0-18 13-31t31-13h212q18 0 31 13t13 31zM0 165v-62q0-18 13-31t31-13h62q18 0 31 13t13 31v62q0 18-13 31t-31 13H44q-18 0-31-13T0 165zm38 0q0 3 1.5 4.5T44 171h62q3 0 4.5-1.5t1.5-4.5v-62q0-3-1.5-5t-4.5-2H44q-3 1-4.5 2.5T38 103v62zm262-37v37q0 18-13 31t-31 13h-37q-18 0-31-13t-13-31v-37q0-18 13-31t31-13h37q18 0 31 13t13 31zm-37 0q0-3-2-5t-5-2h-37q-3 0-4.5 2t-1.5 5v37q0 3 1.5 4.5t4.5 1.5h37q3 0 5-1.5t2-4.5v-37z"/></svg>