<svg viewBox="0 0 300 368" xmlns="http://www.w3.org/2000/svg"><path d="M150 334q-41 0-75.5-20T20 259.5Q0 225 0 184t20-75.5Q40 74 74.5 54T150 34q41 0 75.5 20t54.5 54.5q20 34.5 20 75.5t-20 75.5Q260 294 225.5 314T150 334zm0-263q-31 0-56.5 15.5t-40.5 41Q38 153 38 184t15 56.5Q68 266 93.5 281t56.5 15q31 0 56.5-15t40.5-40.5q15-25.5 15.5-56.5t-15-56.5q-15.5-25.5-41-41T150 72v-1zm25 182v-75q0-5-2.5-9.5t-7-7Q161 159 156 159t-9 3l-43 25q-7 3-9 10.5t2 14.5q4 7 11.5 9t13.5-2l16-9v43q0 8 5 13.5t13 5q8-.5 13.5-5.5t5.5-13z"/></svg>