<svg viewBox="0 0 300 368" xmlns="http://www.w3.org/2000/svg"><path d="M231 34H69q-19 0-34.5 9.5t-25 25Q0 84 0 103v162q0 19 9.5 34.5t25 25Q50 334 69 334h162q19 0 34.5-9.5t25-25Q300 284 300 265V103q0-19-9.5-34.5t-25-25Q250 34 231 34zm32 231q0 13-9.5 22t-22.5 9H69q-13 0-22.5-9T37 265V103q1-13 10-22t22-9h162q13-1 22 8.5t9 22.5v162h1zm-27-143l-41 117q-5 14-17.5 22.5T150 270q-15 0-27.5-8.5T105 239L64 122q-3-8 .5-15T75 97.5q7-2.5 14 1T99 109l42 117q2 7 9 7t9-7l42-117q3-7 10-10.5t14-1q7 2.5 10.5 9.5t.5 15z"/></svg>