<svg viewBox="0 0 300 368" xmlns="http://www.w3.org/2000/svg"><path d="M149 182q-2 6-7 9t-11 3q-3 0-6-1-10-3-19-11-16 14-37 14H50v82q0 8 5.5 13.5T69 297h50q8-1 13.5 4.5T138 315q0 8-5.5 13.5T119 334H69q-24 0-40-16.5T13 278V176Q0 160 0 140q0-1 15-57 7-22 25-35.5T81 34h138q23 0 41 13.5T285 83l8 27q2 8-2 14.5t-11.5 8.5q-7.5 2-14.5-1.5t-9-11.5l-7-27q-3-10-11-16t-19-6h-6v7q0 8-5.5 13.5T194 97q-8 0-13.5-5.5T175 78v-7h-50v7q0 8-5.5 13.5t-13.5 5Q98 96 92.5 91T87 78v-7h-6q-11 0-19 6.5T51 94l-13 48q0 7 5.5 12t12.5 5h13q7 0 12.5-5.5T87 140q0-8 5.5-13t13.5-5.5q8-.5 13.5 5T125 139q0 7 3.5 12t10 7.5q6.5 2.5 10 9.5t.5 14zm151 77v37q0 16-11 27t-27 11h-62q-16 0-26.5-11T163 296v-37q0-17 12-28v-28q0-24 16.5-40t40-16.5q23.5-.5 40 16T288 203v28q12 11 12 28zm-87-56v18h37v-18q0-8-5.5-13.5T231 184q-8 0-13 5.5t-5 13.5zm37 75q0-8-5.5-13.5T231 259q-8 0-13.5 5.5T212 278q0 8 5.5 13t13.5 5q8 0 13.5-5t5.5-13z"/></svg>