<svg viewBox="0 0 300 368" xmlns="http://www.w3.org/2000/svg"><path d="M181 121h100q8 0 13.5-5t5.5-13q0-8-5.5-13.5T281 84H181q-8 0-13.5 5.5T162 103q0 8 5.5 13t13.5 5zM69 34q-19 0-35 9T9 68q-9 16-9 34.5T9 137q9 16 25 25t34.5 9q18.5 0 34.5-9t25-25q9-16 9-34.5t-9-34q-9-15.5-25-25T69 34zm0 100q-13 0-22.5-9t-9-22Q38 90 47 80.5T69 71q13 0 22 9.5t9 22.5q0 13-9 22t-22 9zm0 62q-19 0-35 9.5T9 231q-9 16-9 34.5T9 300q9 16 25 25t34.5 9q18.5 0 34.5-9t25-25q9-16 9-34.5t-9-34.5q-9-16-25-25t-34-10zm0 100q-13 0-22.5-9t-9-22q.5-13 9.5-22t22-9q13 0 22 9t9 22q0 13-9 22t-22 9zm162-100q-18 0-34 9.5T172 231q-9 16-9 34.5t9 34.5q9 16 25 25t34.5 9q18.5 0 34.5-9t25-25q9-16 9-34.5t-9.5-34.5q-9.5-16-25-25T231 196zm0 100q-13 0-22-9t-9-22q0-13 9-22t22-9q13 0 22.5 9t9.5 22q0 13-9.5 22t-22.5 9z"/></svg>