<svg viewBox="0 0 300 368" xmlns="http://www.w3.org/2000/svg"><path d="M250 334h-31q-8 0-13.5-5.5T200 315V215q0-2-2-4t-4-2h-88q-2 0-4 2t-2 4v100q0 8-5.5 13.5T81 334H50q-21 0-35.5-14.5T0 284V158q0-18 8-33t22-24l82-55q17-12 38-12t38 12l82 55q14 9 22 24t8 33v126q0 21-14.5 35.5T250 334zm-12-38h12q5 0 9-3.5t4-8.5V158q0-8-4-15t-10-11l-82-55q-7-6-17-6t-17 6l-82 55q-6 4-9.5 11T38 158v126q0 5 3.5 8.5T50 296h13v-81q0-18 12.5-31t30.5-13h88q18 0 31 13t13 31v81zm-63 25v-12q0-5-3.5-8.5T163 297h-25q-6 0-9.5 3.5T125 309v12q0 6 3.5 9.5t9.5 3.5h25q5 0 8.5-3.5t3.5-9.5zm0-62v-13q0-5-3.5-8.5T163 234h-25q-6 0-9.5 3.5T125 246v13q0 5 3.5 8.5t9.5 3.5h25q5 1 8.5-3t3.5-9z"/></svg>