<svg viewBox="0 0 300 368" xmlns="http://www.w3.org/2000/svg"><path d="M275 261V107q11-4 18-13.5t7-22.5q0-15-11-26t-27-11q-12 0-21.5 7T227 59H73q-4-11-13.5-18T38 34q-16 0-27 11T0 72q0 12 7 21.5T25 107v154q-11 4-18 13.5T0 297q0 15 11 26t27 11q12 0 21.5-7T73 309h154q4 11 13.5 18t22.5 7q15 0 26-11t11-26q0-13-7-22.5T275 261zm-212 8V99l2-3h170l2 3v170l-2 2H65l-2-2zm137-129q0 8-5.5 13.5T181 159h-12v69q0 7-5.5 12.5T150 246q-8 0-13.5-5.5T131 228v-69h-12q-8 0-13.5-5.5T100 140q0-8 5.5-13.5T119 121h62q8 0 13.5 5.5T200 140z"/></svg>