<svg viewBox="0 0 300 368" xmlns="http://www.w3.org/2000/svg"><path d="M198 193l-39 39q-4 4-9 4t-9-4l-39-39q-4-4-4-9t3.5-9q3.5-4 8.5-4h21v-56q0-8 5.5-13t13.5-5.5q8-.5 13.5 5T169 115v56h21q5 0 8.5 4t3.5 9q0 5-4 9zm102-90v112q0 19-9.5 34.5t-25 25Q250 284 231 284h-14l-47 38q-8 8-20 8t-21-8l-45-38H69q-19 0-34.5-9.5t-25-25Q0 234 0 215V103q0-19 9.5-34.5t25-25Q50 34 69 34h162q19 0 34.5 9.5t25 25Q300 84 300 103zm-37 0q0-13-9.5-22.5T231 71H69q-13 0-22.5 9.5T37 103v112q1 13 10 22.5t22 9.5h22q7-1 12 4l47 39 48-39q5-5 12-4h21q13 0 22.5-9.5T262 215V103h1z"/></svg>