<svg viewBox="0 0 300 368" xmlns="http://www.w3.org/2000/svg"><path d="M218 140l-35 96q-4 11-13 17t-20 6q-11 0-20-6t-13-16l-35-97q-2-7 1-14t10.5-9.5q7.5-2.5 14.5.5t10 11l32 89 32-89q3-8 10-11t14.5-.5Q214 119 217 126t1 14zm82 38q0 40-20 74.5t-54.5 55Q191 328 150 328t-75.5-20.5Q40 287 20 252.5t-20-75q0-40.5 20-75T74.5 48Q109 28 150 28t75.5 20Q260 68 280 102.5t20 75.5zm-37 0q-1-31-16-56.5t-40.5-41Q181 65 150 65T93.5 80.5Q68 96 53 121.5t-15.5 56Q37 208 52.5 234t41 41q25.5 15 56.5 15t56.5-15q25.5-15 40.5-41t15-56h1z"/></svg>