<svg viewBox="0 0 300 368" xmlns="http://www.w3.org/2000/svg"><path d="M231 34H131q-18 0-34 9.5t-25.5 25Q62 84 62 103v6h-6q-23 0-39.5 16.5T0 165v119q0 21 14.5 35.5T50 334h181q19 0 34.5-9.5t25-25Q300 284 300 265V103q0-19-9.5-34.5t-25-25Q250 34 231 34zM63 284q-1 5-4.5 8.5T50 296q-5 0-8.5-3.5T38 284V165q0-8 5-13t13-5h7v137zm200-19q0 13-9.5 22t-22.5 9H98q2-6 2-12V103q0-13 9-22.5t22-9.5h100q13 0 22.5 9.5T263 103v162zm-25-137q0 8-5.5 13t-13.5 5h-25q-8 0-13.5-5t-5.5-13q0-8 5.5-13.5T194 109h25q8 0 13 5.5t5 13.5h1zm0 62q0 8-5.5 13.5T219 209h-75q-8 0-13.5-5.5T125 190q0-8 5.5-13.5T144 171h75q8 0 13 5.5t5 13.5h1zm0 63q0 8-5.5 13.5T219 272h-75q-8-1-13.5-6t-5.5-13q0-8 5.5-13.5T144 234h75q8 0 13 5.5t5 13.5h1zM125 128q0-8 5.5-13.5T144 109q8 0 13.5 5.5T163 128q0 8-5.5 13.5T144 147q-8 0-13.5-5.5T125 128z"/></svg>