<svg viewBox="0 0 300 368" xmlns="http://www.w3.org/2000/svg"><path d="M288 160q5 6 8.5 14t3.5 16q0 19-13 32l-30 31q-5 6-13 6t-13.5-5q-5.5-5-5.5-13t5-14l18-18h-48q-13 0-22 9t-9 22v75q0 8-5.5 13.5T150 334q-8 0-13.5-5.5T131 315v-25q0-13-9-22t-22-9H53l17 18q5 6 5 14t-5.5 13q-5.5 5-13.5 5t-13-6l-31-32Q0 258 0 240t13-31l30-32q5-5 12.5-5.5t13.5 5q6 5.5 6 13T70 203l-17 19h47q17 0 31 7V87l-18 17q-6 5-13.5 5t-13-6q-5.5-6-5-13.5T87 77l33-31q12-12 30-12t31 13l32 30q5 5 5.5 12.5t-5 13.5q-5.5 6-13 6t-13.5-5l-18-17v92q14-7 31-7h47l-17-19q-5-6-5-13.5t6-13q6-5.5 13.5-5T258 128l30 32zm12 30z"/></svg>