<svg viewBox="0 0 300 368" xmlns="http://www.w3.org/2000/svg"><path d="M300 315q0 8-5.5 13.5T281 334H69q-19 0-34.5-9.5t-25-25Q0 284 0 265V53q0-8 5.5-13.5T19 34q8 0 13.5 5.5T38 53v212q0 13 9 22t22 9h212q8 0 13.5 5.5T300 315zM281 34q-8 0-13 5.5T263 53v187q0 8 5 13.5t13 5.5q8 0 13.5-5.5T300 240V53q0-8-5.5-13.5T281 34zm-62 137q8 0 13.5-5t5.5-13v-50q0-8-5.5-13.5T219 84q-8 0-13.5 5.5T200 103v50q0 8 5.5 13t13.5 5zm-63 50q8 0 13.5-5t5.5-13v-50q0-8-5.5-13.5T156 134q-8 0-13 5.5t-5 13.5v50q0 8 5 13.5t13 4.5zm-62 50q8 0 13.5-5t5.5-13v-50q0-8-5.5-13.5T94 184q-8 0-13.5 5.5T75 203v50q0 8 5.5 13t13.5 5z"/></svg>