<svg viewBox="0 0 300 368" xmlns="http://www.w3.org/2000/svg"><path d="M263 272q-20 0-35-11-3-2-6 0-15 10-34.5 10T153 261q-3-2-6 0-15 10-34.5 10T77 261q-2-2-5 0-14 10-31 11t-32-8q-6-4-8-11.5t1.5-14q3.5-6.5 11-8.5t14 1.5q6.5 3.5 12.5 3t11-4.5q11-8 24-8t24 8q6 4 13.5 4t13.5-4q11-8 24-8t24 8q6 4 13.5 4t13.5-4q11-8 24-8t24 8q5 4 11 4.5t12-3q6-3.5 14-1.5t11.5 8.5q3.5 6.5 1.5 14t-8 11.5q-13 8-28 8zm28 55q6-4 8-11.5t-1.5-14.5q-3.5-7-11-9t-14 1.5q-6.5 3.5-12.5 3t-11-4.5q-11-7-24-7t-24 7q-6 5-13.5 5t-13.5-5q-11-7-24-7t-24 7q-6 5-13.5 5T99 292q-11-7-24-7t-24 7q-5 4-11 4.5t-12.5-3q-6.5-3.5-14-1.5t-11 9Q-1 308 1 315.5T9 327q15 8 32.5 7T73 323q2-2 5 0 15 11 34.5 11t35.5-11q2-2 5 0 15 11 34.5 11t35.5-11q2-2 5 0 15 11 35 11 15 0 28-7zM104 103h27v68q0 8 5.5 13.5T150 190q8 0 13.5-5.5T169 171v-68h27q4 0 7-2.5t4.5-6q1.5-3.5.5-7t-3-6.5l-42-42q-6-5-13-5t-13 5L95 81q-2 3-3 6.5t.5 7q1.5 3.5 4.5 6t7 2.5z"/></svg>