<svg viewBox="0 0 300 368" xmlns="http://www.w3.org/2000/svg"><path d="M150 334q-41 0-75.5-20T20 259.5Q0 225 0 184q2-57 33-95 29-35 73-47.5t88 0Q238 54 267 89q31 38 33 95 0 41-20 75.5T225.5 314Q191 334 150 334zm0-263q-31 1-56.5 16T53 127.5Q38 153 37 184q2 43 26 72 21 26 54 35t66 0q33-9 54-35 24-29 26-72-1-31-16-56.5T206.5 87Q181 72 150 72v-1zm60 138q-29 11-60 13-31-2-60-13-4 0-7.5 1t-5.5 4.5q-2 3.5-2 7t2 6.5q11 20 30.5 31.5T150 271q23 0 42.5-11.5T223 228q2-3 2-6.5t-2-7q-2-3.5-5.5-5t-7.5-.5zm9-88q-8 1-13.5 7t-5.5 14q0-8-5.5-13.5T181 123q-8 0-13.5 5.5T162 142q1 11 12 25 8 9 20 19 3 2 6 2t6-2q12-10 20-19 12-14 12-25 0-8-5.5-14t-13.5-7zm-100 0q-8 1-13.5 7t-5.5 14q0-8-5.5-13.5T81 123q-8 0-13.5 5.5T63 142q0 11 11 25 8 9 20 19 3 2 6 2t6-2q12-10 20-19 12-14 12-25 0-8-5.5-14t-13.5-7z"/></svg>