<svg viewBox="0 0 300 368" xmlns="http://www.w3.org/2000/svg"><path d="M275 159v-51q0-22-13.5-40T226 44q-76-20-152 0-22 6-35.5 24T25 108v51q-10 0-17.5 7.5T0 184v12q0 11 7.5 18t17.5 7v19q0 16 6.5 29.5T50 293v16q0 10 7.5 17.5T75 334q10 0 17.5-7.5T100 309h100q0 10 7.5 17.5T225 334q10 0 17.5-7.5T250 309v-16q12-10 18.5-23.5T275 240v-19q10 0 17.5-7t7.5-17v-13q0-10-7.5-17.5T275 159zM63 184v-75h43q3 0 5-2t2-4q-1-8 4.5-13.5T131 84h38q8 0 13.5 5.5T188 103q0 2 1.5 4t4.5 2h44v75H63zm31 87q-13 1-22-8.5T63 240v-19h25v7q0 8 5 13t13 5q8 0 13.5-5t5.5-13v-7h50v7q0 8 5.5 13t13.5 5q8 0 13.5-5t5.5-13v-7h25v19q0 13-9.5 22t-22.5 9H94z"/></svg>