<svg viewBox="0 0 300 368" xmlns="http://www.w3.org/2000/svg"><path d="M219 215q0 8-5.5 13.5T200 234h-13q-2 18-12.5 27.5T150 271q-14 0-24.5-9.5T113 234h-13q-8 0-13.5-5.5T81 215q0-8 5.5-13t13.5-6h100q8 0 13.5 5.5T219 215zm81-31q0 41-20 75.5T225.5 314Q191 334 150 334q-57-2-95-33-35-29-47.5-73t0-88Q20 96 55 67q38-31 95-33 41 0 75.5 20t54.5 54.5q20 34.5 20 75.5zm-37 0q-1-31-16-56.5T206.5 87Q181 72 150 72q-43 1-72 25-26 21-35 54t0 66q9 33 35 54 29 24 72 26 31-1 56.5-16t40.5-40.5q15-25.5 16-56.5zm-158-4l25-19q7-5 7-14.5t-7-14.5l-25-19q-6-5-14-4t-12.5 7.5q-4.5 6.5-3.5 14t8 12.5l5 3-5 4q-7 5-8 12.5t3.5 14Q83 183 91 184t14-4zm116-64q-4-6-12-7t-14 4l-25 18q-7 6-7 15.5t7 14.5l25 19q6 5 14 4t12.5-7.5q4.5-6.5 3.5-14t-8-12.5l-4-4 5-3q6-5 7-12.5t-4-13.5v-1z"/></svg>