<svg viewBox="0 0 300 368" xmlns="http://www.w3.org/2000/svg"><path d="M156 171H81q-8 0-13 5.5T63 190v63q0 8 5 13t13 5h75q8 0 13.5-5t5.5-13v-63q0-8-5.5-13t-13.5-5v-1zm-18 63h-38v-25h38v25zm145-90q-9-4-17.5-3.5T249 147l-14 11q-7-21-24.5-34.5T171 109l-44-50q-13-13-31-13H19q-8 0-13.5 5.5T0 65q0 8 5.5 13.5T19 84h77q3 0 4 1l21 24H69q-19 0-34.5 9.5t-25 25Q0 159 0 178v87q0 19 9.5 34.5t25 25Q50 334 69 334h100q23 0 41-13.5t25-35.5l14 11q9 7 19 7 8 0 15.5-4t12-11.5Q300 280 300 271v-99q0-9-4.5-16.5T283 144zm-83 121q0 13-9 22t-22 9H69q-13 0-22.5-9T37 265v-87q1-13 10-22.5t22-9.5h100q13 0 22 9.5t9 22.5v87z"/></svg>