<svg viewBox="0 0 302 368" xmlns="http://www.w3.org/2000/svg"><path d="M296 302q5 5 5 13t-5.5 13.5Q290 334 282 334t-13-6L6 66q-5-5-5-13t5.5-13.5Q12 34 20 34t13 5l59 59 2-3q8-7 19-9t21 2l48-48q6-5 13.5-5t13 5.5q5.5 5.5 5.5 13T209 67l-49 48q7 12 11 23l98-98q5-6 13-6t13.5 5.5q5.5 5.5 5.5 13T296 66l-99 99q12 4 24 11l49-48q5-6 13-6t13.5 5.5Q302 133 302 141t-6 13l-48 48q2 7 2 14 0 15-10 25l-3 2 59 59zM53 148l135 134q-2 13-11 21-13 13-30 21-21 11-39 11-26 0-60-20l-14 14q-6 6-13.5 6t-13-5.5Q2 324 2 316t5-13l14-14Q0 254 0 227q0-18 11-39 8-17 21-30 8-9 21-10zm49 112l-27 27q20 10 33 10 9 0 20.5-5.5T149 278q-9-7-20.5-12.5T108 260h-6zm-45-74q-8 9-13.5 20.5T38 227q0 13 10 34l27-27v-7q0-9-5-20.5T57 186z"/></svg>