<svg viewBox="0 0 300 368" xmlns="http://www.w3.org/2000/svg"><path d="M193 192q5 4 2.5 10.5T186 209h-23v19q0 8-5.5 13.5t-13.5 5q-8-.5-13.5-5.5t-5.5-13v-19h-23q-7 0-9.5-6.5T94 192l42-42q3-3 7.5-3t8.5 3l41 42zm107 23q0 26-12.5 47.5t-34 34Q232 309 206 309H69q-19 0-34.5-9.5t-25-25Q0 259 0 240q0-15 6.5-30T24 185q2-2 2-4-4-18-1-37 6-32 28.5-55T107 61q34-7 65.5 9t46.5 48q1 2 4 3 22 4 39.5 17.5T290 172q10 20 10 43zm-37 0q-1-21-14-37.5T215 157q-10-2-18-8t-12-15q-8-18-24-27.5T126 97q-6 0-12 1-20 3-34 17.5T62 150q-2 12 .5 23T61 194.5Q57 205 49 213q-5 5-8 12.5T38 240q0 13 9 22.5t22 9.5h137q24 0 40.5-16.5T263 215z"/></svg>