<svg viewBox="0 0 300 368" xmlns="http://www.w3.org/2000/svg"><path d="M232 176h-57q-7 0-12-5t-5-12v-57q0-10-4.5-19t-12-15q-7.5-6-17-8T105 60q-32 8-57 30t-37.5 52.5Q-2 173 .5 206.5t20 61.5Q38 296 66 313.5t61.5 20q33.5 2.5 64-10T244 286q22-25 30-57 2-10 0-19t-8-17q-6-8-15-12.5t-19-4.5zm5 44q-6 23-21.5 41.5t-38 27.5q-22.5 9-47 7t-45-14.5q-20.5-12.5-33-33t-14.5-45q-2-24.5 7-47T72.5 118Q91 102 115 97v-1q2 1 3.5 2t1.5 4v57q0 23 16 39t39 16h57q3 0 4.5 2t.5 4zm59-93q-9-32-32.5-56T207 39q-12-4-22 3.5T175 63v58q0 16 11 27t27 11h59q12 0 19.5-10t4.5-22z"/></svg>