<svg viewBox="0 0 300.0058 368" xmlns="http://www.w3.org/2000/svg"><path d="M175 209h-42q-8 0-13-3.5t-7-10q-2-6.5 1-12.5t10-10l10-6q28-15 28-20.5t-3.5-9Q155 134 150 134t-9 3.5q-4 3.5-4 9t-3.5 9Q130 159 125 159t-9-3.5q-4-3.5-4-8.5 0-16 11-27t26.5-11q15.5 0 26.5 11t11 26q0 12-9 22-8 8-22 16h19q5 0 8.5 3.5t3.5 9q0 5.5-3.5 9T175 209zm111 81l-27 3-3 27q-1 6-4 9t-7 4.5q-4 1.5-8 .5t-7-4l-54-54-3 2q-11 6-23.5 6t-22.5-6l-3-2-54 54q-3 3-7 4t-8-.5q-4-1.5-7-4.5t-4-9l-3-27-27-3q-7-1-11-6t-3-10.5q1-5.5 4-9.5l44-44q-2-9 0-19 1 0-1-1-10-7-16-18t-6-23.5q0-12.5 6-23.5t16-18q2-1 1-2-2-12 1.5-24t12-21q8.5-9 21-12.5T107 57q1 0 2-1 6-11 17-17t23.5-6q12.5 0 23.5 6t18 17q1 1 2 1 12-3 24 .5T238 70q9 9 12.5 21t.5 24q0 1 1 2 11 7 17 18t6 23.5q0 12.5-6 23.5t-17 18l-1 1q2 10 1 19l44 44q3 4 4 9.5t-3 10.5q-4 5-11 6zm-126-49q6-11 17.5-15.5T201 224q3 0 6-1 6-1 7-7 1-3 1-6-3-12 2-23.5t15-18.5q2-1 3.5-4t1.5-6q0-3-1.5-5.5T232 149q-10-7-15-18.5t-2-23.5q0-3-1-6-1-6-7-7-3-1-6-1-12 3-23.5-1.5T160 76q-2-2-5-4-5-3-10 0-3 2-5 4-7 11-18 15.5T99 93q-3 0-6 1-6 1-8 7-1 3 0 6 3 12-2 23.5T68 149q-3 1-4.5 3.5t-1.5 6q0 3.5 1.5 6T68 168q10 7 15 18.5t2 23.5q-1 3 0 6 2 6 8 7 3 1 6.5.5t7.5-.5q10 0 19 4.5t14 13.5q2 2 5 4 5 3 10 0 3-2 5-4z"/></svg>