<svg viewBox="0 0 300 368" xmlns="http://www.w3.org/2000/svg"><path d="M231 34H69q-19 0-34.5 9.5t-25 25Q0 84 0 103v162q0 19 9.5 34.5t25 25Q50 334 69 334h162q19 0 34.5-9.5t25-25Q300 284 300 265V103q0-19-9.5-34.5t-25-25Q250 34 231 34zm32 231q0 13-9.5 22t-22.5 9H69q-13 0-22-9t-9-22V103q0-13 9-22.5T69 71h162q13 0 22.5 9.5T263 103v162zm-25-140v128q0 8-5.5 13t-13.5 5.5q-8 .5-13.5-5T200 253v-94l-34 55q-6 9-16 9t-16-9l-34-55v94q0 8-5.5 13T81 271q-8 0-13.5-5T62 253V125q0-10 5.5-17t14-10Q90 95 99 98t14 11l37 59 36-58q6-9 15-12t17.5 0q8.5 3 14 10t5.5 17z"/></svg>