<svg viewBox="0 0 300 368" xmlns="http://www.w3.org/2000/svg"><path d="M294 162q8-15 5-32.5T284 100q-12-12-29-15l-6-1q-15-10-33-13-3 0-6-2-8-17-24.5-26.5T150 33q-19 0-35.5 9.5T90 69q-3 2-6 3-18 2-33 12l-6 1q-17 3-29 15T1 129.5Q-2 147 6 162q2 5-1 9-5 12-5 26t6.5 27Q13 237 24 247q2 26 21 44t45 18l8-1q12 6 25 7l14 14q5 5 13 5t13-5l14-14q13-1 25-7l8 1q26 0 45-18t21-44q11-10 17.5-23t6.5-27q0-14-5-26-3-4-1-9zm-62-16q-14 13-13 32 0 10 4 19l2 7q1 13-8 21-8 5-12 12t-5 16q0 25-31 25V153q0-8-5.5-13.5T150 134q-8 0-13.5 5.5T131 153v125q-31 0-31-25-1-9-5-16t-12-12q-9-8-8-21l2-7q4-9 4-19 1-19-13-32-7-7-4.5-16.5t9.5-15q7-5.5 17-6.5t19-7q9-6 14-15 4-7 11.5-11.5T150 70q8 0 15.5 4.5T177 86q5 9 14 15t19 7q10 1 17 6.5t9.5 15Q239 139 231 146h1z"/></svg>