<svg viewBox="0 0 300 368" xmlns="http://www.w3.org/2000/svg"><path d="M300 65v88q0 8-5.5 13t-13.5 5q-8 0-13-5t-5-13V98L120 241q-6 5-14 5t-13.5-5q-5.5-5-5.5-13t6-14L236 71h-55q-8 0-13.5-5t-5-13q.5-8 5.5-13.5t13-5.5h88q13 0 22 9t9 22zm-19 131q-8 0-13 5.5t-5 13.5v50q0 13-9.5 22t-22.5 9H69q-13 0-22.5-9T37 265V103q1-13 10-22.5T69 71h50q8 0 13.5-5t5.5-13q0-8-5.5-13.5T119 34H69q-19 0-34.5 9.5t-25 25Q0 84 0 103v162q0 19 9.5 34.5t25 25Q50 334 69 334h162q19 0 34.5-9.5t25-25Q300 284 300 265v-50q0-8-5.5-13.5T281 196z"/></svg>