<svg viewBox="0 0 300 368" xmlns="http://www.w3.org/2000/svg"><path d="M231 309H69q-19 0-34.5-9.5t-25-25Q0 259 0 240V128q0-19 9.5-34.5t25-25Q50 59 69 59h162q19 0 34.5 9.5t25 25Q300 109 300 128v112q0 19-9.5 34.5t-25 25Q250 309 231 309zM69 96q-13 0-22.5 9.5T37 128v112q1 13 10 22.5t22 9.5h162q13-1 22-10t9-22V128q1-13-8.5-22.5T231 96H69zm44 125v-75q0-10-7.5-17t-18-7.5q-10.5-.5-18 7T62 146v75q1 11 8 18t17.5 7q10.5 0 18-7t7.5-17v-1zm68-100q-8 1-13.5 6t-5.5 13v88q1 8 6 13.5t13 5.5q8-1 13.5-6t5.5-13v-88q0-8-5.5-13.5T181 121zm44 0q-5 0-8.5 4t-3.5 9v100q0 5 3.5 8.5t8.5 3.5q5 0 8.5-3.5t3.5-8.5V134q0-5-3.5-8.5T225 122v-1zm-87 0q-6 0-9.5 4t-3.5 9v100q0 5 3.5 8.5t8.5 3.5h1q5 0 8.5-3.5t3.5-8.5V134q0-5-3.5-8.5T137 122l1-1z"/></svg>