<svg viewBox="0 0 300 368" xmlns="http://www.w3.org/2000/svg"><path d="M156 184q8 0 13.5-5.5T175 165q0-8-5.5-13.5T156 146h-6v-6q0-8-5.5-13t-13.5-5.5q-8-.5-13.5 5T113 140v6H88v-6q-1-8-6.5-13T69 122q-8 0-13.5 5.5T50 140v6h-6q-8 1-13.5 6T25 165q0 8 5.5 13.5T44 184h6v25h-6q-8 0-13.5 5.5T25 228q0 8 5.5 13.5T44 247h6v6q0 8 5.5 13t13.5 5q8 0 13.5-5.5T88 253v-7h24v7q0 8 5.5 13t13.5 5.5q8 .5 13.5-5T150 253v-7h6q8 0 13.5-5t5.5-13q0-8-5.5-13.5T156 209h-6v-25h6zm-43 25H88v-25h25v25zM275 87v203q0 8-5.5 13.5T256 309q-8 0-13-5.5t-5-13.5V110l-18 18q-6 6-13.5 6t-13-5.5q-5.5-5.5-6-13T193 102l35-35q6-6 14-7.5t16 1.5q8 3 12.5 10t4.5 16z"/></svg>