<svg viewBox="0 0 300 368" xmlns="http://www.w3.org/2000/svg"><path d="M269 71h-47q-6-16-20.5-26.5T169 34h-38q-18 0-32.5 10.5T78 71H31q-8 0-13 5.5T13 90q0 8 5 13.5t13 5.5h7v156q0 19 9 34.5t25 25q16 9.5 34 9.5h88q18 0 34-9.5t25.5-25Q263 284 263 265V109h6q8 0 13-5.5t5.5-13.5q.5-8-5-13T269 72v-1zm-44 194q0 13-9 22t-22 9h-88q-13 0-22-9t-9-22V109h150v156zm-28-77q4 4 3.5 9t-4 8.5Q193 209 188 209h-19v31q0 8-5.5 13.5T150 259q-8 0-13.5-5.5T131 240v-31h-19q-5 0-8.5-3.5t-4-8.5q-.5-5 3.5-9l38-38q4-4 9-4t9 4l38 38z"/></svg>