<svg viewBox="0 0 300 368" xmlns="http://www.w3.org/2000/svg"><path d="M288 90q0-8-5.5-13.5T269 71h-47q-6-16-20.5-26.5T169 34h-38q-18 0-32.5 10.5T78 71H31q-8 0-13.5 5.5T12 90q0 8 5.5 13.5T31 109h7v156q0 19 9 35t25 25q16 9 34 9h88q18 0 34-9t25-25q9-16 9-35V109h7q8 0 13.5-5.5T288 90zm-63 175q0 13-9 22.5t-22 9.5h-88q-13-1-22-10t-9-22V109h150v156zm-106-6q8 0 13.5-5.5T138 240v-75q0-8-5.5-13.5T119 146q-8 0-13.5 5.5T100 165v75q0 8 5.5 13.5T119 259zm62 0q8 0 13.5-5.5T200 240v-75q0-8-5.5-13.5T181 146q-8 0-13.5 5.5T162 165v75q0 8 5.5 13.5T181 259z"/></svg>