<svg viewBox="0 0 300 368" xmlns="http://www.w3.org/2000/svg"><path d="M300 90q0-23-16.5-39.5T244 34q-21 0-37 14-17-14-38.5-14T131 48.5Q115 63 113 84h-4q-23 0-39.5 15.5T50 137q-17 6-27 20.5T13 190q-1 23 32 72L6 302q-6 5-6 13t5.5 13.5Q11 334 19 334t13-6l40-39q49 32 72 32 18 0 32.5-10t20.5-27q22-3 37.5-19.5T250 225v-4q21-2 35.5-18t14.5-37.5q0-21.5-14-38.5 14-16 14-37zm-44 60q7 7 7 15t-6 13.5q-6 5.5-13 5.5-14 0-23.5 10t-8.5 24v7q0 9-6 15.5t-15 6q-9-.5-16 4.5-10 6-14 21-2 5-6.5 8.5t-10 3.5q-5.5 0-18-6.5T99 262l70-71q6-5 6-13t-5.5-13.5Q164 159 156 159t-13 5l-71 71q-9-15-15.5-27.5t-6.5-18q0-5.5 3.5-10.5t9.5-7q14-4 20-13 4-7 4-16t6.5-15.5Q100 121 109 121h8q14 2 23.5-7t9.5-24q0-8 5.5-13.5T169 71q8 0 15 7 14 12 27 10 10-2 19-11 6-5 14-5t13 5q5 5 5 13t-5 13q-9 10-11 20-2 13 10 27z"/></svg>