<svg viewBox="0 0 300.5 368" xmlns="http://www.w3.org/2000/svg"><path d="M281 296H69q-13 0-22-9t-9-22V53q0-8-5.5-13.5T19 34q-8 0-13.5 5.5T0 53v212q0 19 9.5 34.5t25 25Q50 334 69 334h212q8 0 13.5-5.5T300 315q0-8-5.5-13.5T281 296zM119 146q-8 0-13.5 5.5T100 165v88q0 8 5.5 13.5t13.5 5q8-.5 13.5-5.5t5.5-13v-88q0-8-5.5-13.5T119 146zm56 57v50q0 8 5.5 13.5t13.5 5q8-.5 13.5-5.5t5.5-13v-50q0-8-5.5-13.5T194 184q-8 0-13.5 5.5T175 203zm75-50v100q0 8 5.5 13.5t13.5 5q8-.5 13.5-5.5t5.5-13V153q-1-8-6-13.5t-13-5.5q-8 0-13.5 5.5T250 153zM75 128q7 0 12-4l28-23q9-7 20.5-6.5T155 103q19 19 45 20t46-16l47-40q4-3 6-8t1.5-10q-.5-5-4-9t-8.5-5.5q-5-1.5-10-.5t-9 4l-47 40q-9 8-20.5 7.5T182 77q-19-19-44.5-20.5T92 72L63 94q-4 4-6 10t0 11.5q2 5.5 7 9t11 3.5z"/></svg>