<svg viewBox="0 0 300 368" xmlns="http://www.w3.org/2000/svg"><path d="M88 134q-20 0-35-14.5T38 84q0-21 15-35.5T88.5 34q20.5 0 35 14.5T138 84q0 21-14.5 35.5T88 134zm-50 50q0 21 15 35.5T88.5 234q20.5 0 35-14.5T138 184q0-21-14.5-35.5t-35-14.5Q68 134 53 148.5T38 184zm50 50q-21 0-35.5 14.5T38 284q0 21 14.5 35.5t35 14.5q20.5 0 35.5-14.5t15-35.5q0-21-15-35.5T87 234h1zm125 0q-21 0-36-14.5T162.5 184q.5-21 15-35.5t35-14.5q20.5 0 35.5 14.5t15 35.5q0 21-15 35.5T212 234h1zm18-50q0-8-5.5-13.5t-13-5.5q-7.5 0-13 5.5T194 184q0 8 5.5 13.5t13 5.5q7.5 0 13-5.5T231 184zm-18-50q-21 0-36-14.5T162.5 84q.5-21 15-35.5t35-14.5Q233 34 248 48.5T263 84q0 21-15 35.5T212 134h1zm18-50q0-8-5.5-13.5t-13-5.5q-7.5 0-13 5.5T194 84q0 8 5.5 13.5t13 5.5q7.5 0 13-5.5T231 84zm-18 150q20 0 35 14.5t15 35.5q0 21-15 35.5T212.5 334q-20.5 0-35.5-14.5T162.5 284q.5-21 15-35.5T213 234zm-19 50q0 8 5.5 13.5t13 5.5q7.5 0 13-5.5T231 284q0-8-5.5-13.5t-13-5.5q-7.5 0-13 5.5T194 284z"/></svg>