<svg viewBox="0 0 300 368" xmlns="http://www.w3.org/2000/svg"><path d="M88 178q0-8 5-13.5t13-5.5h38q8 0 13 5.5t5.5 13.5q.5 8-5 13.5T144 196h-38q-8 0-13-5t-5-13zm18-44h88q8 0 13.5-5.5T213 115q0-8-5.5-13.5T194 96h-88q-8 1-13 6t-5 13q0 8 5 13.5t13 5.5zm157 150v36q-1 5-3 8t-6 5q-4 2-8 1t-7-4l-14-14-14 14q-3 3-7 4t-8-1q-4-2-6-5t-2-8v-36q-18-13-23.5-34.5T168 208q9-20 28.5-30t41.5-5v-70q0-13-9.5-22.5T206 71L94 72q-13 0-22.5 9T62 103v150q0 13 9.5 22t22.5 9h50q8 0 13 5.5t5.5 13.5q.5 8-5 13t-13.5 5H94q-19 0-34.5-9t-25-25Q25 271 25 253V103q0-18 9.5-34t25-25.5Q75 34 94 34h112q19 0 34.5 9t25 25q9.5 16 9.5 35v94q7 10 10.5 22t1.5 24q-2 12-8.5 22.5T263 284zm-63-50q0 10 7.5 17.5T225 259q10 0 17.5-7.5T250 234q0-10-7.5-17.5T225 209q-10 0-17.5 7.5T200 234z"/></svg>