<svg viewBox="0 0 300 368" xmlns="http://www.w3.org/2000/svg"><path d="M106 34q-19 0-34.5 9t-25 25Q37 84 37 102.5t9.5 34.5q9.5 16 25 25t34.5 9q19 0 34.5-9t25-25q9.5-16 9.5-34.5t-9.5-34q-9.5-15.5-25-25T106 34zm0 100q-13 0-22-9t-9-22q0-13 9-22t22-9.5q13-.5 22 9t9 22.5q0 13-9 22t-22 9zm6 79q2 8-2.5 14.5T97 235q-26 6-42.5 26.5T38 308v7q0 8-5.5 13.5T19 334q-8 0-13.5-5.5T0 315v-7q0-26 11.5-49.5t32-39Q64 204 90 199q8-2 14.5 2.5T112 213zm101-54q-24 0-44 12t-32 32q-12 20-12 43.5t12 43.5q12 20 32 32t43.5 12q23.5 0 43.5-12t32-32q12-20 12-43.5T288 203q-12-20-32-32t-43-12zm40 128q-5 8-14 9.5t-16-5.5l-30-30q-6-6-5-14v-44q0-7 5-12.5t13-5.5q8 0 13.5 5.5T225 204v35l24 25q5 4 6 10.5t-2 12.5z"/></svg>