<svg viewBox="0 0 300 368" xmlns="http://www.w3.org/2000/svg"><path d="M300 90q0 8-5.5 13.5T281 109h-18v44q0 20-12.5 35T219 208q19 14 30.5 35.5T262 289q1 8-4 13.5t-13 6.5h-1q-8 0-13-5t-6-13q-1-17-10-32t-24-25h-82q-15 10-24 25t-10 32q-1 8-6.5 13T55 308.5q-8-.5-13-6T38 289q1-24 12.5-45.5T81 208q-19-5-31.5-20T37 153v-44H19q-8 0-13.5-5.5T0 90q0-8 5.5-13.5T19 71h19v-6q0-8 5-13.5T56 46q8 0 13.5 5.5T75 65v6h19q8 0 13.5 5.5t5 13.5q-.5 8-5.5 13.5T94 109H75v44q0 7 5.5 12.5T94 171h6q0-10 7.5-17.5T125 146h50q10 0 17.5 7.5T200 171h6q8 0 13.5-5.5T225 153v-44h-19q-8 0-13.5-5.5t-5-13.5q.5-8 5.5-13.5t13-5.5h19v-6q0-8 5.5-13.5T244 46q8 0 13.5 5.5T263 65v6h18q8 0 13.5 5.5T300 90z"/></svg>