<svg viewBox="0 0 300 368" xmlns="http://www.w3.org/2000/svg"><path d="M274 247l-49-47q17-19 22.5-44t-1.5-49.5Q239 82 221 63q-14-14-32.5-21.5t-38-7.5Q131 34 113 41T81 61.5Q67 75 58.5 94T50 133q0 20 6 37.5T74 202l-48 45q-13 13-13 31t14 31l12 13q13 12 31 12t30-12l50-47 49 46q13 13 31 13t31-12l12-13q14-13 14-31t-13-31zm-96-92q23-22 31-42 5 16 2.5 32T198 174l-20-19zm-28-84q10 0 17.5 7.5T175 96q0 5-7 14.5T150 129q-11-9-18-18.5T125 96q0-10 7.5-17.5T150 71zM74 295q-2 1-4.5 1.5T65 295l-12-13q-2-1-2-4t1-4l49-46 22 21-49 46zm173-13l-12 13q-2 2-5 1.5t-5-2.5L106 181q-9-9-14-21.5T87 134q1-10 4-20 6 15 23 33 11 11 24 21l109 105q2 2 2 4.5t-2 4.5z"/></svg>