<svg viewBox="0 0 300 368" xmlns="http://www.w3.org/2000/svg"><path d="M244 296h-6v-8q-1-11-5-21.5T220 248q-15-15-23.5-35t-8.5-41h12q8 0 13.5-5.5T219 153q0-8-5.5-13.5T200 134h-9q9-13 9-29-4-30-21-55-4-8-12-12t-16.5-4q-8.5 0-16.5 4t-13 12q-17 25-21 55 0 16 10 29h-4q-8 0-13 5.5T88 153q0 8 5 13.5t13 5.5h6q0 21-8.5 41T80 248q-9 8-13 18.5T62 288v8h-6q-8 0-13 5.5T38 315q0 8 5 13.5t13 5.5h188q8 0 13.5-5.5T263 315q0-8-5.5-13.5T244 296zm-93-125q0 28 10.5 54t29.5 47h-82q19-21 29.5-47t11.5-53l1-1z"/></svg>