<svg viewBox="0 0 300 368" xmlns="http://www.w3.org/2000/svg"><path d="M250 309v6q0 8-5.5 13.5T231 334q-8 0-13.5-5.5T212 315v-6q1-17-7.5-31.5t-23-23Q167 246 150 246q-8 0-16 3l11 47h24q8 0 13 5.5t5 13.5q0 8-5 13.5t-13 5.5H75q-11 0-18-7.5T50 309q0-27 13.5-50t36.5-36.5q23-13.5 50-13.5t50 13.5q23 13.5 36.5 36.5t13.5 50zM75 109q0-20 10-37.5T112.5 44Q130 34 150 34q21 0 38.5 9.5t27 26.5q9.5 17 9.5 36 0 29-18.5 51.5T160 183q-22 3-42-6.5T86.5 149Q75 131 75 109zm38 0q0 16 10.5 26.5T150 146q16 0 26.5-10.5T187 109h-34l27-22q-8-11-22-15l-46 37h1z"/></svg>