<svg viewBox="0 0 300 368" xmlns="http://www.w3.org/2000/svg"><path d="M25 253h31q11 0 18 7t7 18v31q0 10-7 17.5T56 334H25q-10 0-17.5-7.5T0 309v-31q0-11 7.5-18t17.5-7zm219 0h31q10 0 17.5 7t7.5 18v31q0 10-7.5 17.5T275 334h-31q-11 0-18-7.5t-7-17.5v-31q0-11 7-18t18-7zM25 143h31q11 0 18 7.5t7 17.5v32q0 10-7 17.5T56 225H25q-10 0-17.5-7.5T0 200v-32q0-10 7.5-17.5T25 143zm219 0h31q10 0 17.5 7.5T300 168v32q0 10-7.5 17.5T275 225h-31q-11 0-18-7.5t-7-17.5v-32q0-10 7-17.5t18-7.5zM25 34h31q11 0 18 7.5T81 59v31q0 11-7 18t-18 7H25q-10 0-17.5-7T0 90V59q0-10 7.5-17.5T25 34zm109 219h32q10 0 17.5 7t7.5 18v31q0 10-7.5 17.5T166 334h-32q-10 0-17.5-7.5T109 309v-31q0-11 7.5-18t17.5-7zm0-110h32q10 0 17.5 7.5T191 168v32q0 10-7.5 17.5T166 225h-32q-10 0-17.5-7.5T109 200v-32q0-10 7.5-17.5T134 143zm0-109h32q10 0 17.5 7.5T191 59v31q0 11-7.5 18t-17.5 7h-32q-10 0-17.5-7T109 90V59q0-10 7.5-17.5T134 34zm110 0h31q10 0 17.5 7.5T300 59v31q0 11-7.5 18t-17.5 7h-31q-11 0-18-7t-7-18V59q0-10 7-17.5t18-7.5z"/></svg>