<svg viewBox="0 0 300.0024 368" xmlns="http://www.w3.org/2000/svg"><path d="M38 90q-1-16 9-30t28-19q21-10 48-6t45 19q19 17 19 42 0 21-11 36.5T148 155q-3 1-4.5-1.5t.5-4.5q18-18 18-40 0-18-15-28-12-9-29-9.5T91 74q-16 6-16 22 0 8 7.5 13.5T101 115q11 0 20-6 2-2 4.5 0t.5 5q-5 9-13 14-11 6-26 6-25 0-38-15-11-12-12-29h1zm250 125l-65 74q-19 22-45 33.5T124 334H56q-23 0-39.5-16.5T0 278v-50q0-24 16.5-40.5T56 171h98q18 0 31 12l31-33q13-15 33-16t35 12.5q15 13.5 16 33.5t-12 35zm-29-41q-3-3-8-2.5t-8 3.5l-43 48q-2 15-13 26t-26 13l-65 9q-7 1-13.5-3.5t-7.5-12q-1-7.5 3.5-14T91 234l65-9q3 0 4.5-2.5t1.5-5.5q0-3-2-5.5t-6-2.5H56q-8 0-13.5 5.5T37 228v50q0 7 5.5 12.5T56 296h68q20 0 38.5-8t31.5-24l66-74q3-3 2.5-8t-3.5-8z"/></svg>