<svg viewBox="0 0 300 368" xmlns="http://www.w3.org/2000/svg"><path d="M231 59H69q-19 0-34.5 9.5t-25 25Q0 109 0 128v112q0 19 9.5 34.5t25 25Q50 309 69 309h162q19 0 34.5-9.5t25-25Q300 259 300 240V128q0-19-9.5-34.5t-25-25Q250 59 231 59zm32 181q0 13-9.5 22.5T231 272H69q-13-1-22-10t-9-22V128q0-13 9-22t22-9h162q13 0 22 9t9 22v112h1zm-125-12q-1 8-6 13.5t-13 5.5H81q-8-1-13.5-6t-5-13q.5-8 5.5-13.5t13-5.5h38q8 0 13.5 5.5T138 228zm100 0q0 8-5.5 13.5T219 247h-38q-8-1-13.5-6t-5-13q.5-8 5.5-13.5t13-5.5h38q8 0 13 5.5t6 13.5zM63 165v-25q0-8 5-13t13-6h88q8 1 13.5 6t5.5 13v25q-1 8-6 13.5t-13 5.5H81q-8 0-13-5.5T63 165z"/></svg>