<svg viewBox="0 0 300 368" xmlns="http://www.w3.org/2000/svg"><path d="M236 333q-3 1-5 1-6 0-11-4t-7-10q-5-22-22.5-35.5t-40.5-13q-23 .5-40.5 13.5T87 320q-2 7-8.5 11t-14 2.5Q57 332 53 325t-2-14q8-34 35.5-55.5T150 234q36 0 63.5 21.5T250 311q1 7-3 14t-11 8zM75 134V44q0-5 3.5-7.5T86 34q4 0 6 4l21 33 28-33q4-4 9-4t9 4l29 33 20-33q2-4 6-4t7.5 2.5Q225 39 225 44v90q0 20-10 37.5T187.5 199Q170 209 150 209t-37.5-10Q95 189 85 171.5T75 134zm38-13v13q0 16 10.5 26.5T150 171q16 0 26.5-10.5T187 134v-13h-74z"/></svg>