<svg viewBox="0 0 300 368" xmlns="http://www.w3.org/2000/svg"><path d="M230 59l-74-24q-6-2-12 0L70 59q-20 7-32.5 24.5T25 122v64q0 37 23 70 18 26 48 49 20 14 41 25l4 2q5 2 9 2t8-2l4-1q21-9 41-22 31-21 49-47 23-34 23-76v-64q0-21-12.5-38.5T230 59zm8 127q0 43-35 75-22 21-52 34-31-16-53-38-36-34-36-71v-64q1-9 6-16.5T82 95l68-23 68 23q9 3 14.5 10.5T238 122v64zm-43-26l-18 18 18 18q5 5 5 13t-5.5 13.5Q189 228 181 228t-13-6l-18-18-18 18q-5 6-13 6t-13.5-5.5Q100 217 100 209t5-13l18-18-18-18q-5-5-5-13t5.5-13.5Q111 128 119 128t13 5l18 18 18-18q5-5 13-5t13.5 5.5Q200 139 200 147t-6 13h1z"/></svg>