<svg viewBox="0 0 300 368" xmlns="http://www.w3.org/2000/svg"><path d="M69 34h162q19 0 34.5 9.5t25 25Q300 84 300 103v162q0 19-9.5 34.5t-25 25Q250 334 231 334H69q-19 0-34.5-9.5t-25-25Q0 284 0 265V103q0-19 9.5-34.5t25-25Q50 34 69 34zm162 262q13 0 22.5-9t8.5-22V103q1-13-8.5-22.5T231 71H69q-13 1-22 10t-9 22v162q0 13 9 22t22 9h162zm-81-162q18 0 31 12l38 38q4 4 5.5 9t.5 10q-1 5-4.5 8.5t-8.5 5q-5 1.5-10 0t-9-5.5l-39-38q-1-2-4-2t-4 2l-39 38q-4 4-9 5.5t-10 0q-5-1.5-8.5-5T75 203q-1-5 .5-10t5.5-9l38-38q13-12 31-12z"/></svg>