<svg viewBox="0 0 300 368" xmlns="http://www.w3.org/2000/svg"><path d="M231 34H69q-19 0-34.5 9.5t-25 25Q0 84 0 103v162q0 19 9.5 34.5t25 25Q50 334 69 334h162q19 0 34.5-9.5t25-25Q300 284 300 265V103q0-19-9.5-34.5t-25-25Q250 34 231 34zm32 231q0 13-9.5 22t-22.5 9H69q-13 0-22-9t-9-22V103q0-13 9-22.5T69 71h162q13 0 22.5 9.5T263 103v162zm-68-136q-5-14-17.5-22.5T150 98q-15 0-27.5 8.5T105 129L64 246q-3 8 .5 15t10.5 9.5q7 2.5 14-1T99 259l9-25h84l9 25q2 6 7 9.5t11 3.5q3 0 6-2 7-2 10.5-9t.5-15l-41-117zm-74 67l20-54q2-7 9-7t9 7l20 55h-58v-1z"/></svg>