<svg viewBox="0 0 300 368" xmlns="http://www.w3.org/2000/svg"><path d="M300 228v37q0 19-9.5 34.5t-25 25Q250 334 231 334H69q-19 0-34.5-9.5t-25-25Q0 284 0 265V140q0-18 9.5-34t25-25Q50 72 69 72h100q8-1 13.5 4.5T188 90q0 8-5.5 13.5T169 109H69q-9 0-16.5 4.5T41 126l87 86q9 9 22 9t22-9q6-5 13.5-5t13 5.5q5.5 5.5 5.5 13t-5 13.5q-14 13-31.5 17.5t-35 0Q115 252 101 239l-63-64v90q0 13 9 22t22 9h162q13 0 22.5-9t8.5-22v-37q1-8 6-13.5t13-5.5q8 0 13.5 5.5T300 228zm-115-94q-4 0-7.5 2.5T172 143q-2 4-1 8.5t4 7.5l46 46q4 4 10 4t10-4l47-46q3-3 3.5-7.5t-1-8.5q-1.5-4-5-6.5T277 134h-27V53q0-8-5.5-13.5T231 34q-8 0-13.5 5.5T212 53v81h-27z"/></svg>