<svg viewBox="0 0 300 368" xmlns="http://www.w3.org/2000/svg"><path d="M231 334h-75q-18 0-34-9.5t-25.5-25Q87 284 88 265v-19H69q-19 0-34.5-9t-25-25Q0 196 0 178v-75q0-19 9.5-34.5t25-25Q50 34 69 34h75q18 0 34 9.5t25 25q9 15.5 10 34.5v18h18q19 0 34.5 9.5t25 25.5q9.5 16 9.5 34v75q0 19-9.5 34.5t-25 25Q250 334 231 334zM69 71q-13 0-22 9.5T38 103v75q0 13 9 22t22 9h37q8 0 13.5 5.5T125 228v37q0 13 9 22t22 9h75q13 0 22.5-9t9.5-22v-75q0-13-9.5-22t-22.5-9h-37q-8 0-13.5-5.5T175 140v-37q0-13-9-22.5T144 71H69z"/></svg>