<svg viewBox="0 0 300 368" xmlns="http://www.w3.org/2000/svg"><path d="M276 46q-12-8-26-11t-28 1l-97 28q-13 4-30 7-30 4-42 16t-16 42q-3 17-7 30L2 256q-4 14-1 28t11.5 25.5Q21 321 34 327.5t27 6.5h77q15 0 35-7 41-13 74-46t46-74q7-20 7-35V95q0-14-6.5-27T276 46zm-44 26q12-3 21.5 4.5T263 95v44l-59-58 28-8v-1zM42 287q-7-10-4-21l8-28 59 59H61q-12 0-19-10zm178-33q-30 30-65 40l-97-97 8-27q5-16 8-36 2-15 5-20 6-4 21-6 20-3 36-8l27-8 97 97q-10 35-40 65zm-50-88l-38 38q-5 5-13 5t-13.5-5.5q-5.5-5.5-5.5-13t5-13.5l38-37q5-6 13-6t13.5 5.5Q175 145 175 153t-6 13h1zm43 17q6 6 6 13.5t-6 13.5l-37 37q-6 6-13.5 6t-13-5.5Q144 242 144 234t5-13l38-38q5-5 13-5t13 5z"/></svg>