<svg viewBox="0 0 300 368" xmlns="http://www.w3.org/2000/svg"><path d="M231 59H103q-8-12-20-18.5T56 34q-23 0-39.5 16.5T0 90v175q0 19 9.5 34.5t25 25Q50 334 69 334h162q19 0 34.5-9.5t25-25Q300 284 300 265V128q0-19-9.5-34.5t-25-25Q250 59 231 59zM38 90q0-8 5-13.5T56 71q8 0 13.5 5.5T75 90v125q0 8-5.5 13.5T56 234q-8 0-13-5.5T38 215V90zm193 206H69q-12 0-21-8t-10-20q9 3 18 3 24 0 40.5-16t15.5-40V96h63v13q0 10 7.5 17.5T200 134h63v131q0 13-9.5 22t-22.5 9zm-56-106q0 8-5.5 13.5T156 209q-8 0-13.5-5.5T137 190q0-8 5.5-13.5T156 171q8 0 13.5 5.5T175 190zm63 0q0 8-5.5 13.5T219 209q-8 0-13.5-5.5T200 190q0-8 5.5-13.5T219 171q8 0 13.5 5.5T238 190zm-63 63q0 8-5.5 13t-13.5 5q-8 0-13.5-5t-5.5-13q0-8 5.5-13.5T156 234q8 0 13.5 5.5T175 253zm63 0q0 8-5.5 13t-13.5 5q-8 0-13.5-5t-5.5-13q0-8 5.5-13.5T219 234q8 0 13 5.5t6 13.5z"/></svg>