<svg viewBox="0 0 300 368" xmlns="http://www.w3.org/2000/svg"><path d="M231 34H69q-19 0-34.5 9.5t-25 25Q0 84 0 103v162q0 19 9.5 34.5t25 25Q50 334 69 334h162q19 0 34.5-9.5t25-25Q300 284 300 265V103q0-19-9.5-34.5t-25-25Q250 34 231 34zM125 209v-50h50v50h-50zm50 37v50h-50v-50h50zM38 159h50v50H38v-50zm87-38V71h50v50h-50zm88 38h50v50h-50v-50zm50-56v18h-50V71h18q13 0 22.5 9.5T262 103h1zM69 71h19v50H38v-18q0-13 9-22.5T69 72v-1zM38 265v-19h50v50H69q-13 0-22-9t-9-22zm193 31h-18v-50h50v19q0 13-9.5 22t-22.5 9z"/></svg>