<svg viewBox="0 0 300 368" xmlns="http://www.w3.org/2000/svg"><path d="M200 140q0 8-5.5 13.5T181 159q-8 0-13.5-5.5t-5-13.5q.5-8 5.5-13t13-5q8 0 13.5 5t5.5 13zm-44 31q-8 0-13.5 5.5T137 190q0 8 5.5 13.5T156 209q8 0 13.5-5.5T175 190q0-8-5.5-13.5T156 171zm-50 25q-8 1-13.5 6t-5 13q.5 8 5.5 13.5t13 5.5q8 0 13.5-5.5T125 215q0-8-5.5-13.5T106 196zm194-56q0 8-5.5 13.5T281 159h-7q-1 12-6 23l8 7q5 6 5 14t-5.5 13.5q-5.5 5.5-13 5.5t-13.5-6l-2-3-21 21 6 5q5 6 5 14t-5 13q-5 5-13 5t-14-5l-5-6-21 21 3 2q5 6 5 13.5t-5 13q-5 5.5-13 5.5t-14-5l-7-8q-11 5-23 6v7q0 8-5.5 13.5T106 334q-8 0-13.5-5.5T87 315v-10q-11-4-21-10l-9 8q-6 6-13.5 6t-13-5.5Q25 298 25 290t5-13l9-9q-6-10-10-22H19q-8 0-13.5-5T0 228q0-8 5.5-13.5T19 209h7q1-12 6-23l-8-8q-5-5-5-13t5.5-13.5q5.5-5.5 13-5.5t13.5 6l2 3 21-21-6-6q-6-5-6-13t5.5-13.5Q73 96 81 96t13 6l6 6 20-21-2-2q-6-6-6-13.5t5.5-13Q123 53 131 53t13 5l8 8q11-5 23-6v-7q0-8 5.5-13.5t13-5.5q7.5 0 13 5.5T212 53v10q12 4 22 10l9-9q5-5 13-5t13.5 5.5Q275 70 275 78t-6 13l-8 9q6 10 10 21h10q8 0 13.5 5.5T300 140zm-78 45q15-15 15.5-36.5t-15-36.5q-15.5-15-37-15T149 112l-71 71q-15 15-15 36.5T78 256q15 15 36.5 15t36.5-15l71-71z"/></svg>