<svg viewBox="0 0 300 368" xmlns="http://www.w3.org/2000/svg"><path d="M125 65q0-13 9-22t22-9q13 0 22.5 9t9 22q-.5 13-9.5 22.5t-22 9q-13-.5-22-9.5t-9-22zm132 151q-6 5-13.5 5.5T230 216l-10-11 4 29q2 10-1 19t-9 16q-6 7-14 10v36q0 8-5.5 13.5T181 334q-8 0-13.5-5.5T162 315v-31h-12v31q0 8-5.5 13.5T131 334q-8 0-13.5-5.5T112 315v-36q-8-4-14-10.5T89.5 253q-2.5-9-1.5-19l4-29-10 11q-5 5-13 5t-13.5-5q-5.5-5-5.5-12.5t5-13.5l60-63q8-9 18.5-13.5T156 109q12 0 22.5 4.5T198 127l59 63q6 6 5.5 13.5T257 216zm-101-70q-8 0-13.5 5.5T136 165l-11 74q0 3 2 5t5 2h49q3 0 5-2t1-5l-10-74q-1-8-7-13t-14-5v-1z"/></svg>