<svg viewBox="0 0 300 368" xmlns="http://www.w3.org/2000/svg"><path d="M138 290q0 8-5.5 13.5T119 309H69q-19 0-34.5-9.5t-25-25Q0 259 0 240V103q0-19 9.5-34.5t25-25Q50 34 69 34h137q19 0 34.5 9.5t25 25Q275 84 275 103q0 8-5.5 13t-13.5 5q-8 0-13-5t-5-13q0-13-9.5-22.5T206 71H69q-13 0-22 9.5T38 103v137q0 13 9 22t22 9h50q8 0 13.5 5.5T138 290zm-19-81h-19v-55l26-26q4-4 5-9.5t-1-10.5q-2-5-7-8.5T113 96H81q-8 0-13 5.5T63 115v100q0 13 9 22t22 9h25q8 0 13.5-5t5.5-13q0-8-5.5-13.5T119 209zm62-75q8 0 13.5-5.5T200 115q0-8-5.5-13.5T181 96h-12q-8 0-13.5 5.5T150 115q0 8 5.5 13.5T169 134h12zm119 125v37q0 16-11 27t-26 11h-63q-16 0-26.5-11T163 296v-37q0-17 12-28v-28q0-24 16.5-40.5t40-16.5q23.5 0 40 16.5T288 203v28q12 11 12 28zm-87-56v18h37v-18q0-8-5.5-13.5T231 184q-8 0-13 5.5t-5 13.5zm37 75q0-8-5.5-13.5T231 259q-8 0-13 5.5t-5 13.5q0 8 5 13t13 5q8 0 13.5-5t5.5-13z"/></svg>