<svg viewBox="0 0 300 368" xmlns="http://www.w3.org/2000/svg"><path d="M100 184q20 0 37.5-10t27.5-27.5q10-17.5 10-37.5t-10-37.5Q155 54 137.5 44T100 34q-20 0-37.5 10T35 71.5Q25 89 25 109t10 37.5Q45 164 62.5 174t37.5 10zm0-113q16 0 27 11t11 27q0 16-11 26.5T100 146q-16 0-27-10.5T62 109q0-16 11-27t27-10v-1zm37 160q-1 8-7 12.5t-14 3.5q-5 0-10-1-18 0-34 9.5T47 281q-9 16-9 34 0 8-5.5 13.5T19 334q-8 0-13.5-5.5T0 315q0-29 14.5-53T53 223.5Q77 209 106 209q8 0 15.5 1t12 7.5Q138 224 137 231zm150 40l-30 32q-5 6-13 6t-13.5-5q-5.5-5-5.5-13t5-14l17-18h-35q-10 0-17.5 7.5T187 284v31q0 8-5.5 13.5t-13 5.5q-7.5 0-13-5.5T150 315v-31q0-17 8.5-31.5t23-23Q196 221 212 221h35l-17-18q-5-6-5-13.5t6-13q6-5.5 13.5-5T257 177l31 33q12 12 12 30t-13 31z"/></svg>