<svg viewBox="0 0 300 368" xmlns="http://www.w3.org/2000/svg"><path d="M243 128q-9-5-13.5-13.5T225 96V53q0-8-5.5-13.5T206 34q-8 0-13.5 5.5T187 53v31q1 16-10 26.5t-27 11q-16 .5-26.5-10.5T113 84V53q-1-8-6-13.5T94 34q-8 0-13.5 5.5T75 53v43q0 10-4.5 18.5t-13.5 14Q48 134 43 144t-5 21v106q0 17 8 31.5t22.5 23Q83 334 100 334h100q17 0 31.5-8.5t23-23Q263 288 262 271V165q1-11-4.5-21T243 128zM75 165q0-3 2-5 13-8 22-21 10 10 23.5 15t27.5 5q14 0 27.5-5t23.5-15q8 12 21 21L75 273V165zm125 131h-94l119-91v66q0 11-7.5 18t-17.5 7z"/></svg>