<svg viewBox="0 0 300 368" xmlns="http://www.w3.org/2000/svg"><path d="M300 103v100q0 18-9.5 34t-25 25.5Q250 272 231 272h-62v24h31q8 0 13.5 5.5T219 315q0 8-5.5 13.5T200 334H100q-8 0-13.5-5.5T81 315q0-8 5.5-13.5T100 297h31v-26H69q-19 0-34.5-9t-25-25Q0 221 0 203V103q0-19 9.5-34.5t25-25Q50 34 69 34h12q8 0 13.5 5.5T100 53q0 8-5.5 13T81 71H69q-13 0-22.5 9.5T37 103v93h226v-93q0-13-9.5-22.5T231 71h-12q-8 0-13.5-5T200 53q0-8 5.5-13.5T219 34h12q19 0 34.5 9.5t25 25Q300 84 300 103zm-198 25l39 40q4 4 9 4t9-4l39-40q4-4 4-9t-3.5-8.5Q195 107 190 107h-21V53q0-8-5.5-13.5T150 34q-8 0-13.5 5.5T131 53v54h-21q-5 0-8.5 3.5T98 119q0 5 4 9z"/></svg>