<svg viewBox="0 0 300 368" xmlns="http://www.w3.org/2000/svg"><path d="M80 99q4 0 7.5-3t3.5-7.5q0-4.5-3.5-7.5T80 78H69v21h11zm135 28q9 0 13.5-7t4.5-17q0-10-4.5-17T215 79h-10v48h10zm29-93H56q-23 0-39.5 16.5T0 90v188q0 23 16.5 39.5T56 334h150q11 0 21.5-4.5T246 318l38-38q7-8 11.5-18.5T300 240V90q0-23-16.5-39.5T244 34zm-55 37q0-3 2-5.5t6-2.5h18q15 0 24 11t9 28.5q0 17.5-9 28.5t-23 12h-19q-3 0-5.5-2.5T189 135V71zm-72 48q2-2 4.5-2t4.5 2l2 1q5 4 11 6t12 0q4-1 5.5-5.5t-1.5-7q-3-2.5-7-3.5l-15-6q-7-3-11.5-9.5T118 81q1-4 3-8 4-7 13-10 16-4 30 4 3 2 4.5 4.5t1.5 5q0 2.5-1 4.5-4 4-11 1-5-2-9.5-3.5T140 77q-4 0-6 4t1.5 7.5Q139 92 143 92l10 3q7 2 11.5 6t6.5 9.5q2 5.5 1 11.5-2 9-9.5 15t-17.5 6q-17 0-29-13-2-2-2-5t3-6zM61 62h19q11 0 18.5 7.5t8 18.5q.5 11-7 19T81 115H69v21q0 3-2 5.5t-5.5 2.5q-3.5 0-5.5-2.5t-2-5.5V70q0-3 2-5.5t5-2.5zm202 159h-50q-11 0-18 7.5t-7 18.5v49H56q-8 0-13-5t-5-13V172h225v49z"/></svg>