<svg viewBox="0 0 300.0019 368" xmlns="http://www.w3.org/2000/svg"><path d="M254 53q-6-5-13-6t-14 1.5q-7 2.5-10.5 9T213 71q0 30-2 43-3 22-12 31-8 8-22 11 4-7 4-16v-38q0-4-4-5.5t-6 2.5l-9 12q-6-2-12-2t-12 2l-9-12q-2-4-6-2.5t-4 5.5v38q0 9 4 16-14-3-22-11-9-9-12-31-2-13-2-43 0-7-3.5-13.5t-10.5-9Q66 46 59 47t-13 6q-22 21-35 61-12 35-11 70 0 15 7 47 1 6 4.5 9.5t9 5Q26 247 31 245t9-6q4-5 10-5 3 1 7 11.5t6 22.5q0 5 3.5 9t8.5 6q5 2 10.5.5T94 279q3-3 7-5t6-2q7-1 14 5 8 31 17 49 3 8 12 8t12-8q9-18 17-50 2-1 8-3l6-2 6 3q4 2 7 5t8.5 4.5q5.5 1.5 10.5-.5t8.5-6q3.5-4 3.5-9 2-12 6-22.5t7-11.5q5 0 10 5 3 4 8.5 6t11 1q5.5-1 9-5t4.5-10q7-32 7-47 1-35-11-70-13-40-35-61zM106 234q-6 0-12 2-7-17-17-28-12-12-27-12-6 0-11 2-1-10-1-14-1-17 2.5-35.5T51 113q2 19 7 32 6 16 17 27 15 15 40 21-2 11-2 22 0 8 1 20l-8-1zm155-36q-5-2-11-1-15-1-27 11-10 11-17 28-2-1-8-1l-5-1-7 1q2-12 2-20 0-11-3-22 25-6 40-21 11-11 17-27 5-13 7-32 7 17 10.5 35.5T263 184q-1 4-2 14z"/></svg>