<svg viewBox="0 0 300 368" xmlns="http://www.w3.org/2000/svg"><path d="M94 184q-6 0-11-3.5t-7-9.5q-2-6 0-11.5t7-9.5l5-4-5-3q-7-5-8-12.5t3.5-14Q83 110 91 109t14 4l25 18q7 6 7 15.5t-7 14.5l-25 19q-5 4-11 4zm127-8q5-6 4-13.5t-8-12.5l-4-4 5-3q6-5 7-12.5t-3.5-14Q217 110 209 109t-14 4l-25 18q-7 6-7 15.5t7 14.5l25 19q6 5 14 4t12-8zm79 8q0-41-20-75.5T225.5 54Q191 34 150 34q-57 2-95 33-35 29-47.5 73t0 88Q20 272 55 301q38 31 95 33 41 0 75.5-20t54.5-54.5q20-34.5 20-75.5zm-37 0q-1 31-16 56.5T206.5 281Q181 296 150 297q-43-2-72-26-26-21-35-54t0-66q9-33 35-54 29-24 72-26 31 1 56.5 16t40.5 40.5q15 25.5 16 56.5zm-54 45q-16-21-37.5-28.5t-43 0Q107 208 91 229q-3 4-3.5 9.5T90 248q3 4 8 5.5t10 .5q20-7 42-7t42 7q5 1 10-.5t8-5.5q3-4 2.5-9.5T209 229z"/></svg>