<svg viewBox="0 0 300 368" xmlns="http://www.w3.org/2000/svg"><path d="M150 34q-41 0-75.5 20T20 108.5Q0 143 0 184t20 75.5Q40 294 74.5 314t75.5 20q41 0 75.5-20t54.5-54.5q20-34.5 20-75.5t-20-75.5Q260 74 225.5 54T150 34zm0 262q-31 0-56.5-15T53 240.5Q38 215 37.5 184t15-56.5q15.5-25.5 41-41T150 71q31 0 56.5 15.5t41 41q15.5 25.5 15 56.5T247 240.5q-15 25.5-40.5 41T150 297v-1zm0-190q-17 0-31.5 8.5t-23 23Q87 152 87 169v30q0 17 8.5 31.5t23 23Q133 262 150 262t31.5-8.5q14.5-8.5 22.5-23t8-31.5v-30q0-17-8-31.5t-22.5-23Q167 106 150 106zm25 93q0 11-7.5 18.5t-18 7.5q-10.5 0-17.5-7.5t-7-18.5v-30q0-11 7-18.5t17.5-7.5q10.5 0 18 7.5T175 169v30z"/></svg>