<svg viewBox="0 0 300 368" xmlns="http://www.w3.org/2000/svg"><path d="M219 59H81q-22 0-40.5 11T11 99.5Q0 118 0 140v88q0 22 11 40.5T40.5 298Q59 309 81 309h138q22 0 40.5-11t29.5-29.5q11-18.5 11-40.5v-88q0-22-11-40.5T259.5 70Q241 59 219 59zm44 169q0 18-13 30.5T219 271H81q-18 0-30.5-12.5T38 228v-88q0-18 12.5-31T81 96h138q18 0 31 13t13 31v88zm-125-94v100q0 5-4 8.5t-9 3.5q-5 0-8.5-3.5T113 234v-38H88v38q0 5-4 8.5t-9 3.5q-5 0-8.5-3.5T63 234V134q0-5 3.5-8.5t8.5-4q5-.5 9 3.5t4 9v37h25v-37q0-5 3.5-9t8.5-4q5 0 8.5 4t3.5 9h1zm56-13h-6q-11 1-18.5 8t-7.5 17v75q1 11 8 18.5t17 7.5h7q18-1 31-13.5t13-30.5v-38q0-18-13-31t-31-13zm19 82q0 8-5.5 13t-13.5 5h-6v-75h6q8 0 13 5.5t5 13.5v38h1z"/></svg>