<svg viewBox="0 0 300 368" xmlns="http://www.w3.org/2000/svg"><path d="M215 176l-102-25V78q0-8-5.5-13.5T94 59q-8 0-13.5 5.5T75 78v169q0 1-1 1.5t-2-.5l-32-32q-7-5-16.5-4.5T7 219q-7 7-7 16.5T5 252l43 46q9 12 24 21 26 15 59 15h69q17 0 31.5-8.5t23-23Q263 288 263 272v-35q0-22-13.5-38.5T215 176zm10 95q0 11-7 18t-18 7h-69q-27 0-44-12l1-1q11-4 18-14t7-22v-58l93 24q9 2 14 8.5t5 15.5v34zm75-181q0 8-5.5 13.5T281 109h-56v19q0 5-3.5 8.5T213 140q-5 0-9-3l-38-38q-4-4-4-9t4-8l38-38q4-4 9-4t8.5 3.5Q225 47 225 52v20h56q8 0 13.5 5.5T300 90z"/></svg>