<svg viewBox="0 0 300 368" xmlns="http://www.w3.org/2000/svg"><path d="M264 52q-30-11-59-15t-61-2q-19 1-33 13.5T94 79l-2 19q-28 4-57 14-18 6-28 22t-7 35l12 82q4 27 34 50 23 17 59 30 8 3 17 3 16 0 28-9 41-30 57-59 32-14 52-30 25-21 28-46l12-82q3-18-7-34t-28-22zM128 295q-4 3-10 1-30-11-48.5-24.5T49 245l-12-82q0-5 2.5-9.5T47 147q20-7 39-10l-4 30q-3-1-6 0-6 0-10.5 6T59 187q0 3 1.5 5t4.5 1l20-2q5 12 14 26-9 4-16 13t-10 20q-1 4 2.5 6.5t7.5.5q19-13 37-16 13 12 29 23 4 3 8 5-12 13-29 26zm134-192l-12 82q-2 12-20.5 25.5T181 235q-5 2-10-1-26-19-39.5-37T120 167l11-82q1-6 5-9.5t10-3.5l17-1q19 0 37 3 25 3 52 13 5 2 8 6.5t2 9.5zm-34 73q-9 12-21.5 18t-26.5 4q-14-2-24.5-11.5T140 163q-1-4 2-6.5t7-.5q18 10 35 12.5t37-2.5q4-1 6.5 2.5t.5 7.5zm10-48q1 3-1 5t-5 1l-29-4q-3 0-4.5-2.5t.5-5.5q4-7 10-11t12-3.5q6 .5 10.5 6.5t6.5 14zm-95-14q4-7 10-11t12-3q6 1 11 6.5t6 13.5q1 3-1 5t-5 1l-29-4q-3 0-4-2.5t0-5.5z"/></svg>