<svg viewBox="0 0 300 368" xmlns="http://www.w3.org/2000/svg"><path d="M250 115q0 8-5.5 13.5T231 134q-8 0-13.5-5.5T212 115q0-8 5.5-13.5T231 96q8 0 13.5 5.5T250 115zm31-19q8 0 13.5-5t5.5-13q0-8-5.5-13.5T281 59q-8 0-13 5.5T263 78q0 8 5 13t13 5zm0 38q-8 0-13 5.5t-5 13.5q0 8 5 13.5t13 5q8-.5 13.5-5.5t5.5-13q0-8-5.5-13.5T281 134zM69 96q-8 1-13.5 6T50 115q0 8 5.5 13.5T69 134q8 0 13.5-5.5T88 115q0-8-5.5-13.5T69 96zM19 59q-8 0-13.5 5.5T0 78q0 8 5.5 13.5T19 97q8 0 13-5.5T37.5 78q.5-8-5-13.5T19 59zm0 75q-8 0-13.5 5.5T0 153q0 8 5.5 13.5t13.5 5q8-.5 13-5.5t5.5-13q.5-8-5-13.5T19 134zm150 25v-53q19-6 31-20.5T212 53q0-8-5-13.5T194 34h-88q-8 0-13.5 5.5T87 53q1 18 13 32.5t31 20.5v53q-18 0-30.5 13T88 203v112q0 8 5 13.5t13 5.5q8 0 13.5-5.5T125 315V203q0-3 2-5t4-2h38q2 1 4 2.5t2 4.5v112q0 8 5.5 13.5T194 334q8 0 13-5.5t5-13.5V203q1-18-12-31t-31-13z"/></svg>