<svg viewBox="0 0 300 368" xmlns="http://www.w3.org/2000/svg"><path d="M281 121h-24l28-46q4-7 2-14.5T278.5 49q-6.5-4-14-2T253 56l-40 66h-27l15-65q1-8-3-14.5t-11.5-8q-7.5-1.5-14 2.5T164 49l-17 73H87L47 56q-4-7-11.5-9t-14 2Q15 53 13 60.5T15 75l28 46H19q-8 0-13.5 5.5T0 140q0 8 5.5 13.5T19 159h6v31q0 26 11.5 48T67 275q-8 8-12.5 18.5T50 315q0 8 5.5 13.5T69 334q8 0 13.5-5.5T88 315t5.5-13.5Q99 296 106 296h88q8 0 13.5 5.5T213 315t5.5 13.5q5.5 5.5 13 5.5t13-5.5Q250 323 250 315q0-11-4.5-21.5T233 275q19-15 30.5-37t11.5-48v-31h6q8 0 13.5-5.5T300 140q0-8-5.5-13.5T281 121zm-43 69q0 19-9.5 34.5t-25.5 25q-16 9.5-34 9.5h-38q-18 0-34-9.5t-25.5-25Q62 209 62 190v-31h176v31z"/></svg>