<svg viewBox="0 0 300 368" xmlns="http://www.w3.org/2000/svg"><path d="M282 171q-8 0-13.5 5.5T262 189q-1 26-13 48.5t-32.5 38q-20.5 15.5-46 20T120 293q-25-7-44.5-23.5T46 229q-10-24-9-49.5t13-48q12-22.5 32.5-38t46-20q25.5-4.5 50 2T223 99l-14 14q-3 2-3.5 6t1 7.5q1.5 3.5 4.5 5.5t7 2h57q5 0 9-3.5t4-8.5V64q-1-4-3-7t-5.5-4.5q-3.5-1.5-7-.5t-6.5 3l-17 17q-25-23-58-32t-66.5-3.5Q91 42 63 62.5T18.5 113Q2 143 .5 177t12 65.5q13.5 31.5 39 54t58.5 32q33 9.5 67 3.5t61.5-26.5q27.5-20.5 43.5-50t18-64.5q0-8-5-13.5t-13-6.5zm-138-50q-8 0-13.5 5.5T125 140v54q0 10 7 18l23 22q5 5 13 5t13-5.5q5-5.5 5.5-13T181 207l-18-18v-49q0-8-5.5-13.5T144 121z"/></svg>