<svg viewBox="0 0 300 368" xmlns="http://www.w3.org/2000/svg"><path d="M295 102l-19-18 18-18q6-5 6-13t-5.5-13.5q-5.5-5.5-13-5.5T268 39l-18 18-18-18q-6-5-13.5-5t-13 5.5q-5.5 5.5-5.5 13t5 13.5l18 18-17 17-18-18q-3-3-8-4.5t-10 0q-5 1.5-8.5 5t-4.5 8q-1 4.5 0 9.5t5 9l17 17-16 16-16-16q-7-7-16-5.5T118 132q-6 13-5.5 27t6.5 27l-14 14-17-17q-5-5-13-5t-13 5.5q-5 5.5-5.5 13T62 210l16 16-8 8H55q-15-1-28 6T7 258.5q-7 11.5-7 24T5.5 306Q11 317 21 324.5t23 9.5h6q21 0 35-15 6-5 6-13t-5.5-13.5Q80 287 72 287t-13 5q-5 5-11 4t-9-6.5q-3-5.5 0-11.5 4-6 16-6h6q12 2 22.5-2t17.5-13l4-4 19 19q6 6 13.5 6t13-5.5Q156 267 156 259t-5-13l-19-19 13-14q13 7 28 8t29-5q9-4 10.5-13t-5.5-16l-17-18 16-15 18 18q6 6 13.5 6t13-5.5Q256 167 256 159t-5-13l-19-19 18-17 18 19q6 5 13.5 5t13-5.5Q300 123 300 115t-5-13z"/></svg>