<svg viewBox="0 0 300 368" xmlns="http://www.w3.org/2000/svg"><path d="M284 121q14-14 15.5-34T289 52q-7-8-16.5-12.5t-20-5q-10.5-.5-20.5 3T215 49L10 254q-10 9-10 22.5t9.5 23Q19 309 32 309h13q36-2 68-14 22-9 38.5-26.5T176 229l108-108zM99 260q-25 10-54 11l77-77 20 19q-5 16-16.5 28.5T99 260zm50-92l92-93q4-4 10-3.5t9 4.5q3 4 2.5 9t-4.5 9l-91 91-18-17zm64 147q0 8-5.5 13.5T194 334h-25q-8 0-13.5-5.5T150 315q0-8 5.5-13t13.5-5h25q8 0 13.5 5t5.5 13zm87 0q0 8-5.5 13.5T281 334h-25q-8 0-13-5.5t-5-13.5q0-8 5-13t13-5h25q8 0 13.5 5t5.5 13z"/></svg>