<svg viewBox="0 0 300 368" xmlns="http://www.w3.org/2000/svg"><path d="M234 177q-7 9-17 14t-21 5q-21 0-36-20-5-6-3.5-13.5t7.5-12q6-4.5 13.5-3.5t12 6.5q4.5 5.5 6.5 5.5 4 0 8-5.5t12-6.5q8-1 14 3.5t7 12q1 7.5-3 14.5zm-134 19q10 0 19-5.5t15-15.5q5-6 3-13.5t-8.5-12q-6.5-4.5-14-2.5t-11.5 8q-2 2-3 4l-3-4q-4-6-11.5-8t-14 2.5q-6.5 4.5-8.5 12t2 13.5q8 12 19 18 7 3 15 3h1zm200-12q0 41-20.5 75.5t-55 54.5q-34.5 20-75 20t-75-20Q40 294 20 259.5T0 184q0-41 20-75.5T74.5 54q34.5-20 75-20t75 20q34.5 20 55 54.5T300 184zm-38 0q0-31-15-56.5t-41-41Q180 71 149.5 71T93 86.5q-26 15.5-41 41T37 184q0 31 15 56.5t41 41q26 15.5 56.5 15.5t56.5-15.5q26-15.5 41-41t15-56.5zM80 140q5 0 9-3 6-6 13-10t12.5-5.5q5.5-1.5 8-6t1.5-9.5q-1-5-5.5-7.5T109 97q-9 2-19 8t-19 14q-3 4-3 9t3.5 8.5Q75 140 80 140zm104-19q6 2 13 6t13 10q4 3 9 3t9-3.5q4-3.5 3.5-9T228 119q-9-8-19-14t-19-8q-5-1-9.5 1.5T175 106q-1 5 1.5 9.5t7.5 5.5zm9 93q-5 5-13 10-16 10-30 10t-30-10q-7-4-13-10-6-5-13.5-5t-13 5.5Q75 220 75 228t6 13q8 8 20 16 25 15 49 15t49-15q12-8 20-16 6-5 6-13t-5.5-13.5q-5.5-5.5-13-5.5t-13.5 5z"/></svg>