<svg viewBox="0 0 300 368" xmlns="http://www.w3.org/2000/svg"><path d="M300 172q0-14-6.5-27.5T275 122q-1-17-12-30t-28-18q-5-16-17-26-9-8-20-11.5T175 34q-14 2-25 12-11-10-25-12-12-1-23 2.5T82 48Q70 58 65 74q-17 5-28 18t-12 30q-12 9-18.5 22.5T0 173q0 15 7 29-7 14-7 30t7.5 30.5Q15 277 28 286q8 22 26.5 35T96 334q16 0 30-6.5t24-17.5q10 11 24 17.5t30 6.5q23 0 41.5-13t26.5-35q13-9 20.5-23.5T300 232q0-16-7-30 7-14 7-30zM96 296q-12 0-21.5-7.5T62 269q-2-8-9-12t-11.5-10.5Q37 240 37 231t7-17q4-5 4-12t-4-12q-7-8-7-18 0-7 4.5-13.5T53 148q6-3 8.5-8.5T63 128l-1-3q0-7 6-11.5t13.5-4.5q7.5 0 13-5.5T100 90q0-8 7-14 5-4 10.5-4t9.5 4.5q4 4.5 4 10.5v175q0 14-10 24.5T96 297v-1zm160-82q7 8 7 17t-4.5 15.5q-4.5 6.5-12 10.5t-8.5 12q-3 12-12.5 19.5t-23 7.5q-13.5 0-23.5-10t-10-25V87q0-5 3.5-10t9-5.5q5.5-.5 12 5T200 90q0 8 5.5 13.5t13 5.5q7.5 0 13.5 4.5t6 11.5l-1 3q-1 6 1.5 11.5t7.5 7.5q8 5 12 11.5t4 13.5q0 10-6 18-4 5-4 11.5t4 12.5z"/></svg>