<svg viewBox="0 0 300 368" xmlns="http://www.w3.org/2000/svg"><path d="M56 209q-23 0-39.5 16.5T0 265.5q0 23.5 16.5 40t40 16Q80 321 96 305t16-39.5q0-23.5-16-40T56 209zm0 75q-8 0-13-5.5T38 265q0-8 5-13.5t13-5.5q8 0 13.5 5.5T75 265q0 8-5.5 13.5T56 284zm188-75q-24 0-40 16.5t-16 40q0 23.5 16 40t39.5 16q23.5-.5 40-16.5t16.5-39.5q0-23.5-16.5-40T244 209zm0 75q-8 0-13.5-5.5T225 265q0-8 5.5-13.5T244 246q8 0 13.5 5.5T263 265q0 8-5.5 13.5T244 284zM175 78q0-13 9-22.5t22-9.5q13 0 22 9.5t9.5 22.5q.5 13-9 22t-22.5 9q-13 0-22-9t-9-22zm-6 143v57q0 8-5.5 13t-13.5 5q-8 0-13.5-5t-5.5-13v-47l-28-20q-12-10-15-25t5-28q-8-3-13-9.5T75 134q0-11 10-21 8-8 19.5-12.5T124 96q27 1 49 18l58 50q6 5 6.5 12.5T233 190q-5 6-13 6.5t-14-4.5l-47-41-33 22q-1 2-1 4.5t2 4.5l34 24q8 6 8 15z"/></svg>