<svg viewBox="0 0 300.0052 368" xmlns="http://www.w3.org/2000/svg"><path d="M299.005 308q3 10-3 18t-17 8h-48q-14 0-27-7t-21-18.5q-8-11.5-8-24.5 0-21 14.5-35.5t34.5-14.5q29 0 50 26 15 19 25 48zm-14-189l-194 195q-20 20-49 20h-23q-8 0-13.5-5.5T.005 315v-23q0-29 20-49l195-194q14-15 35-15t35 15q15 14 15 35t-15 35zm-77 25l-18-18-143 144q-9 9-9 22v4h4q13 0 22-9l144-143zm55-60q0-5-4-9-4-3-9-3t-9 3l-24 24 18 18 24-24q4-4 4-9zm-215 69q5 6 13 6t13.5-5.5q5.5-5.5 5.5-13t-6-13.5l-33-34q-4-4-3.5-9t4-9q3.5-4 9-3.5t8.5 3.5l33 35q6 5 13.5 5.5t13-5q5.5-5.5 6-13.5t-5.5-13l-33-34q-14-15-34.5-16t-35.5 13.5q-15 14.5-16 35.5t14 36l33 34h1z"/></svg>