<svg viewBox="0 0 300 368" xmlns="http://www.w3.org/2000/svg"><path d="M231 59h-6v-6q0-8-5.5-13.5T206 34q-8 0-13.5 5.5T187 53v6h-74v-6q-1-8-6-13.5T94 34q-8 0-13.5 5.5T75 53v6h-6q-19 0-34.5 9.5t-25 25Q0 109 0 128v137q0 19 9.5 34.5t25 25Q50 334 69 334h162q19 0 34.5-9.5t25-25Q300 284 300 265V128q0-19-9.5-34.5t-25-25Q250 59 231 59zm0 237H69q-13 0-22.5-9T37 265V146h226v119q0 13-9.5 22t-22.5 9zm7-106v13q0 8-5.5 13.5T219 222H81q-8 0-13-5.5T63 203v-13q0-8 5-13.5t13-5.5h138q8 0 13.5 5.5T238 190z"/></svg>