<svg viewBox="0 0 300 368" xmlns="http://www.w3.org/2000/svg"><path d="M219 246q-8 0-13.5 5.5T200 265v25q0 3-2 4.5t-4 1.5h-63q-18 0-34.5-7.5T69 267q16 4 37 5 8-1 13.5-6t5.5-13q0-8-5.5-13.5T106 234q-33 0-45-12-11-9-11-32v-6h6q22 0 38-14 16 14 37 14 5 0 8 2 5 2 8 11 3 11 3 31 0 8 5.5 13.5t13.5 5q8-.5 13.5-5.5t5.5-13q0-42-15-62 15-16 15-38v-13q0-24-14-44 6-2 10-7t4-12q0-7-5.5-12.5t-13-5.5q-7.5 0-12 3.5T151 47q-20-13-45-13H81q-24 0-44 13-2-6-7-9.5T18 34q-7 0-12.5 5.5T0 52q0 7 3.5 12t9.5 7Q0 91 0 115v13q0 20 13 35v52q0 32 15.5 59.5t43 43.5Q99 334 131 334h63q18 0 31-13t13-31v-25q-1-8-6-13.5t-13-5.5zM81 71h25q18 0 31 13t13 31v13q0 8-5.5 13t-13.5 5q-8 0-13-5t-5-13q0-8-5.5-13.5T94 109q-8 0-13.5 5.5T75 128q0 8-5.5 13T56 146q-8 0-13.5-5T38 128v-13q0-18 12.5-31T81 71zm219 125q0 13-1 28-3 27-10 42-2 6-6.5 9t-9.5 3q-5 0-8-2-7-3-10-10t0-14q5-13 7-41-13 7-28 10-8 1-14-4t-7-12.5q-1-7.5 3.5-13.5t12.5-7q12-2 19.5-10.5T256 152q0-13-6-26-4-6-7-10-5-5-5.5-12.5t4.5-13q5-5.5 12.5-6.5t13.5 4q10 7 18 26 14 31 14 83v-1z"/></svg>