<svg viewBox="0 0 300 368" xmlns="http://www.w3.org/2000/svg"><path d="M219 34H81q-18 0-34 9.5t-25 25Q13 84 13 103v187q0 13 7.5 24.5t20 16.5q12.5 5 25.5 2t22-13l61-65 63 66q13 13 32 13 8 0 16-3 13-5 20.5-16t7.5-25V103q0-19-9.5-34.5t-25.5-25Q237 34 219 34zm31 256q0 5-4 6.5t-7-1.5l-76-80q-6-6-14-6t-13 6l-75 79q-3 3-7 1.5t-4-5.5V103q0-13 9-22t22-9h138q13-1 22 8.5t9 22.5v187zm-50-163q1 6-3 9l-20 16 8 25q2 6-2.5 9.5t-9.5.5l-23-15-22 15q-3 1-5.5 1t-4.5-1q-5-4-3-9l8-26-20-16q-5-4-2.5-9t7.5-5h25l9-25q2-6 8-6t8 6l9 25h25q6 0 8 5z"/></svg>