<svg viewBox="0 0 300 368" xmlns="http://www.w3.org/2000/svg"><path d="M119 184q-7 0-12-4t-7-11v-2 2q-1 5-4.5 9t-8.5 5.5q-5 1.5-10 .5t-8.5-4.5q-3.5-3.5-5-8.5t-.5-10q4-19 14.5-29t23-10q12.5 0 22.5 10t14 29q2 9-3.5 16t-14.5 7zm104 0q7-2 11.5-8.5T237 161q-4-19-14.5-29T200 122q-12 0-22.5 10T163 161q-1 5 .5 10t5 8.5q3.5 3.5 8.5 4.5t10-.5q5-1.5 8.5-5.5t4.5-9v-2 2q2 8 8.5 12t14.5 3zm77 0q0-41-20-75.5T225.5 54Q191 34 150 34q-57 2-95 33-35 29-47.5 73t0 88Q20 272 55 301q38 31 95 33 41 0 75.5-20t54.5-54.5q20-34.5 20-75.5zm-37 0q-1 31-16 56.5T206.5 281Q181 296 150 297q-43-2-72-26-26-21-35-54t0-66q9-33 35-54 29-24 72-26 31 1 56.5 16t40.5 40.5q15 25.5 16 56.5zm-69 25h-88q-5 0-9 2.5t-6.5 6.5q-2.5 4-2.5 9t2 9q10 16 26 25.5t34 9.5q18 0 34-9.5t26-25.5q2-4 2-9t-2.5-9q-2.5-4-6.5-6.5t-9-2.5z"/></svg>