<svg viewBox="0 0 300 368" xmlns="http://www.w3.org/2000/svg"><path d="M293 72q-16-4-36-7-9-9-20.5-14t-24-5q-12.5 0-24 5T168 65q-20 3-36 7-5 1-6.5 5t.5 8q8 12 24 16v8q-7 1-13 4-13-6-27.5-3T85 122q-5-1-10-1-19 0-33 13t-17 32q-11 6-18 17.5T0 209q0 14 7 25.5T25 252q2 12 8.5 22T50 290v13q0 13 9 22t21.5 9q12.5 0 21-7.5T112 308q14 2 26-3 8 4 18 4h7q2 10 10.5 17.5t21 7.5q12.5 0 21.5-9t9-22v-14q9-5 15.5-13.5T249 256q2-7-2.5-13.5t-12-8q-7.5-1.5-14 2.5t-8 11q-1.5 7-7.5 9.5t-12-1q-6-3.5-14-1.5t-11.5 9q-3.5 7-11.5 7-4 0-8-3t-10.5-3q-6.5 0-10.5 3t-8 3q-8 0-11.5-7T96 255q-8-2-14.5 2T69 257q-6-4-6-11v-2q2-8-2.5-14.5T48 221q-5-1-7.5-4.5t-2.5-8q0-4.5 2.5-7.5t7.5-4q8-2 12.5-8.5T63 174v-3q0-6 6-10t12.5 0q6.5 4 14.5 2t11.5-9.5Q111 146 119 146q4 0 8 3.5t10.5 3.5q6.5 0 11.5-4l1-1v8q0 24 17 38.5t45.5 14.5q28.5 0 45.5-14.5t17-38.5v-55q16-4 24-16 2-4 .5-8t-6.5-5zm-55 84q-1 6-4 9-5 7-21.5 6.5T191 165q-3-3-3-9v-47q-1-10 6.5-17.5t18-7.5q10.5 0 18 7.5T238 109v47z"/></svg>