<svg viewBox="0 0 300 368" xmlns="http://www.w3.org/2000/svg"><path d="M190 206l3 4 4-5q4-7 12-8.5t14.5 3Q230 204 231 212t-3 14l-16 23q-7 10-18 10h-1q-11 0-18-10l-3-4h-1q-4 6-11.5 7.5t-14-3q-6.5-4.5-8-12.5t3.5-14l12-17q7-9 18.5-9t18.5 9zm-81 3l-99 21q-6 1-8.5 7T3 249l18 22-7 21q-2 9 1.5 16t11 10.5Q34 322 42 320l21-6 22 17q6 5 12 2.5t7-8.5l21-100q1-7-4-12t-12-4zm21-78l-25-18q-6-5-14-4t-12.5 7.5q-4.5 6.5-3.5 14t7 12.5l6 3-5 4q-7 5-8 12.5t4 14.5q5 7 15 7 6 0 11-4l25-19q8-5 8-14.5t-8-14.5v-1zm91-15q-4-6-12-7t-14 4l-25 18q-7 6-7.5 15.5T170 161l25 19q5 4 11 4 10 0 15-7t4-14.5q-1-7.5-8-12.5l-4-4 5-3q6-5 7-12.5t-4-14.5zm-71-82q-40 0-73.5 19t-54 51.5Q2 137 0 177q0 8 5 13.5t13 5.5h1q7 0 12.5-5t6.5-12q1-30 16.5-54.5t40.5-39q25-14.5 55.5-14t56 15.5q25.5 15 40.5 40.5t15.5 56q.5 30.5-14 55.5t-39 40.5Q185 295 155 296q-7 1-12.5 6.5t-5 13.5q.5 8 6 13t12.5 5h1q40-2 72.5-22.5t51.5-54q19-33.5 19-74t-20-75Q260 74 225.5 54T150 34z"/></svg>