<svg viewBox="0 0 300 368" xmlns="http://www.w3.org/2000/svg"><path d="M275 162q-13-19-12-28v-30q0-27-17.5-46.5T201 35q-11-1-20-1h-62q-9 0-20 1-27 3-44.5 22.5T37 104v30q1 9-11.5 27T13 201v64q0 19 9 34.5t25 25q16 9.5 34 9.5h138q18 0 34-9.5t25.5-25Q288 284 288 265v-64q0-22-13-39zm-125-31l-23-60h46l-23 60zM50 265v-6h31q8 0 13.5-5.5T100 240q0-8-5.5-13.5T81 221H50v-20q0-10 5-18 20-28 20-49v-30q0-9 4-16t10-11l42 110v109H81q-13 0-22-9t-9-22zm169 31h-50V187l42-110q6 4 10 11t4 16v30q0 21 20 49 5 8 5 18v21h-31q-8 0-13.5 5t-5.5 13q0 8 5.5 13.5T219 259h31v6q0 13-9 22.5t-22 9.5v-1z"/></svg>