<svg viewBox="0 0 300 368" xmlns="http://www.w3.org/2000/svg"><path d="M109 332q-5 0-10-2-8-3-13.5-9T78 307l-5-27-27-1q-12 0-20-7.5T15.5 253Q13 242 19 233l13-24-21-19q-6-5-8.5-13T1 161q1-8 6.5-14.5T21 137l25-10-4-27q-1-8 1.5-15.5t9-13Q59 66 67 64.5T83 66l26 8 15-23q5-10 15.5-13.5t21.5 0Q172 41 177 51l15 23 26-8q8-3 16-1.5t14 7q6 5.5 9 13t2 15.5l-4 27 25 10q11 4 16.5 14t3.5 21q-2 11-10 18l-21 19 13 24q4 7 4 15t-4 15.5q-4 7.5-11 11.5t-16 4l-27 1-5 27q-2 8-7.5 14t-13 9q-7.5 3-16 1.5T172 325l-21-17-22 17q-9 7-20 7zm41-67q7 0 12 5l26 20 6-32q1-7 6.5-11t11.5-4l33-1-16-29q-3-5-2-11.5t6-11.5l25-21-31-12q-6-3-9-8.5t-2-11.5l4-33-31 11q-6 2-12-.5t-9-7.5l-18-28-17 28q-3 5-9 7.5t-13 .5l-31-11 5 33q1 6-2 11.5t-9 8.5l-31 12 25 21q5 5 6 11.5T72 213l-16 29 33 1q6 0 11 4t7 11l6 32 26-20q5-5 11-5z"/></svg>