<svg viewBox="0 0 300 368" xmlns="http://www.w3.org/2000/svg"><path d="M284 160l-42-41q-3-24-17-43.5T189.5 45Q168 34 144 34q-35 0-62 21t-35 54v2q-18 4-30.5 17.5T1 160q-4 22 6.5 41T37 229q0 7 1.5 10.5T43 247l8 7q2 2 2 5.5t-2 5.5l-8 8q-2 2-2 5t2 6l8 7q2 3 2 6t-2 5l-6 6q-3 3-3 7.5t3 7.5l6 6q5 5 11.5 5t11.5-5l9-9q4-4 4-11v-80q17-8 27.5-23.5T125 171q0-19-11-35t-29-23q7-19 23-30t36-11q22 0 39 14t22 35l-39 39q-7 8-11.5 18t-4.5 22v78q0 23 16.5 39.5T206 334h38q23 0 39.5-16.5T300 278v-78q0-12-4.5-22T284 160zM63 171q-8 0-13.5-5.5t-5.5-13q0-7.5 5.5-13t13-5.5q7.5 0 13 5.5t5.5 13q0 7.5-5.5 13T62 171h1zm200 107q0 8-5.5 13.5T244 297h-38q-8-1-13-6t-5-13v-78q0-8 5-14l32-32 32 32q6 6 6 14v78z"/></svg>