<svg viewBox="0 0 300 368" xmlns="http://www.w3.org/2000/svg"><path d="M250 85q-31-28-72-36t-80 6.5q-39 14.5-65 47T1 176q-4 35 7.5 68.5T45 303q10 9 22 14t25 5h116q26 0 45-18 23-21 35-50t11.5-60q-.5-31-13.5-59.5T250 85zm-23 192q-8 7-19 7H92q-12 0-21-8-19-19-27.5-44T38 181q6-38 33.5-65T137 84.5Q175 80 207 99q29 18 44 50t10 65q-5 37-34 63zm-4-40q-4 7-11.5 9t-14.5-2l-42-23q-9 2-18-3t-11.5-15q-2.5-10 2.5-18.5t14.5-11.5q9.5-3 18.5 1.5t13 13.5l41 23q7 4 9 11.5t-1 14.5zm-3-55q-7 3-14.5 1t-10.5-9q-13-23-35-27-19-4-37 8t-22 31q-5 22 10 42 5 6 4.5 14t-6.5 13q-6 5-14 4t-12-7q-22-29-21-60 1-28 19.5-49.5t46-30Q155 104 181 114q29 11 47 43 3 7 1 14t-9 11z"/></svg>