<svg viewBox="0 0 300.007 368" xmlns="http://www.w3.org/2000/svg"><path d="M113 309q0 10-7.5 17.5t-18 7.5Q77 334 70 326.5T63 309q0-10 7-17.5t17.5-7.5q10.5 0 17.5 7.5t8 17.5zm47-114q4 4 9 4t9-4l40-40q3-3 3-8.5t-3.5-9Q214 134 209 134h-21V53q0-8-6-13.5T169 34q-8 0-13.5 5.5T150 53v81h-20q-6 0-9.5 3.5t-3.5 9q0 5.5 4 8.5l39 40zm132-82q-7-8-16-12.5T257 96q-8 0-13.5 5.5T238 115q0 8 5.5 13.5T257 134q3 0 5 2t1 6l-14 56q-3 10-11.5 16.5T219 221H91q-3 0-4.5-1.5T84 216l-11-82h8q8 0 13.5-5.5T100 115q0-8-5.5-13.5T81 96H68l-3-24q-2-16-14.5-27T22 34h-3q-8 0-13.5 5.5T0 53q0 8 5.5 13T19 71h3q2 0 4 2t2 4l19 144q3 16 15 27t29 11h128q24 0 42.5-14.5T286 207l14-56q2-10 0-20t-8-18zm-79 171q-11 0-18 7.5t-7 17.5q0 10 7 17.5t17.5 7.5q10.5 0 18-7.5T238 309q0-10-7.5-17.5T213 284z"/></svg>