<svg viewBox="0 0 300 368" xmlns="http://www.w3.org/2000/svg"><path d="M281 296H106q7 0 12.5-3t9-9q3.5-6 3.5-12.5t-3-12.5l100-58q6 9 15.5 11t18.5-3q9-5 11.5-15t-2.5-19l-2-3q8-12 8-26t-7-26l-9-14q-13-23-34-38l-29-21q-16-12-36-13t-38 9L48 86q-18 10-27.5 27.5T13 151l3 39q2 26 15 49l10 17q6 10 17 16t23 6l3 6q4 6 9.5 9.5T106 296H19q-8 0-13.5 5.5T0 315q0 8 5.5 13.5T19 334h262q8 0 13.5-5.5T300 315q0-8-5.5-13.5T281 296zM66 118l77-43q8-4 17-3.5t16 5.5l12 9-137 79-1-17q0-9 4-17t12-13zm7 118l-10-16q-4-7-6-14l22-13 6 10q4 6 12 8t14.5-2q6.5-4 8-11.5T117 183l-5-9 53-31 7 10q4 7 11.5 9t14-2.5q6.5-4.5 8.5-12t-2-13.5l-6-10 21-12q6 6 10 13l9 15q2 4 1 8t-5 6L86 240q-3 2-7 1t-6-5z"/></svg>