<svg viewBox="0 0 300 368" xmlns="http://www.w3.org/2000/svg"><path d="M113 190q-1 8-6 13.5T94 209q-8 0-13.5-5.5T75 190q0-8 5.5-13.5T94 171q8 0 13.5 5.5T113 190zm112 88v25q0 13-9 22t-22 9H31q-13 0-22-9t-9-22V105q0-22 14-39.5T50 44l45-9q13-2 25 1t22 11q6 4 11 12h16q23 0 39.5 16.5T225 115v38q0 8-5.5 13.5T206 172q-8 0-13.5-5.5T187 153v-38q0-7-5.5-12.5T169 97h-7v200h25v-19q0-8 5.5-13.5T206 259q8 0 13.5 5.5T225 278zM125 90q0-9-7-14.5T103 72l-45 9q-9 2-15 8.5T37 105v191h88V90zm172 118l-30-33q-5-5-11-2.5t-6 9.5v14h-44q-8 1-13.5 6t-5.5 13q0 8 5.5 13.5T206 234h44v14q0 7 6 10t11-2l30-33q3-3 3-7.5t-3-7.5z"/></svg>