<svg viewBox="0 0 300 368" xmlns="http://www.w3.org/2000/svg"><path d="M150 34q-41 0-75.5 20T20 108.5Q0 143 0 184t20 75.5Q40 294 74.5 314t75.5 20q41 0 75.5-20t54.5-54.5q20-34.5 20-75.5t-20-75.5Q260 74 225.5 54T150 34zm0 262q-31 0-56.5-15T53 240.5Q38 215 38 184t15-56.5Q68 102 93.5 87T150 71.5q31-.5 56.5 15t41 41Q263 153 263 184t-15.5 56.5Q232 266 206.5 281T150 296zm-50-112q0 8-5.5 13.5T81 203q-8 0-13-5.5T63 184q0-8 5-13.5t13-5.5q8 0 13.5 5.5T100 184zm138 0q0 8-5.5 13.5T219 203q-8 0-13.5-5.5T200 184q0-8 5.5-13.5T219 165q8 0 13.5 5.5T238 184zm-69 0q0 8-5.5 13.5T150 203q-8 0-13.5-5.5T131 184q0-8 5.5-13.5T150 165q8 0 13.5 5.5T169 184z"/></svg>