<svg viewBox="0 0 300 368" xmlns="http://www.w3.org/2000/svg"><path d="M31 112l-5-17-17-5q-6-1-8-6.5t0-11Q3 67 9 65l17-5 5-17q2-6 7.5-8t11 0q5.5 2 6.5 8l5 17 17 5q6 2 8.5 7.5t0 11Q84 89 78 90l-17 5-5 17q-1 6-6.5 8.5t-11 0Q33 118 31 112zm219 58q13 24 13 51 0 31-15.5 57t-41 41Q181 334 150 334t-56.5-15Q68 304 53 278t-15-56.5Q38 191 53 165t40.5-41q25.5-15 56.5-15 28 0 52 13l4-5q8-8 20-8t20 8l8 9q8 8 8 19.5t-8 20.5l-4 4zm-25 51q0-20-10-37t-27.5-27.5Q170 146 150 146t-37.5 10.5Q95 167 85 184t-10 37.5Q75 242 85 259t27.5 27q17.5 10 37.5 10t37.5-10q17.5-10 27.5-27t10-38zm75-143q0-18-14-30-17-14-48-14-38 0-77 6-20 4-34 7-8 2-12 8.5t-2 14q2 7.5 8.5 11.5t14.5 2q13-3 32-6 36-5 70-5 11 0 19 2 5 2 5 4v4l-2 3q-4 5-4 12.5t5.5 13Q267 116 275 116t14-7q4-4 7-10 4-10 4-21z"/></svg>