<svg viewBox="0 0 300 368" xmlns="http://www.w3.org/2000/svg"><path d="M185 246q-7 1-12.5-4.5T167 228q0-8 5-13l26-27q2-1 2-4t-2-4l-26-26q-5-6-5-14t5.5-13q5.5-5 13-5t13.5 5l26 26q12 13 12 31t-12 31l-26 26q-6 6-14 6v-1zm-57-5q5-5 5-13t-5-13l-26-27q-2-1-2-4t2-4l26-26q5-6 5-14t-5.5-13q-5.5-5-13-5t-13.5 5l-26 26q-12 13-12 31t12 31l26 26q6 5 13.5 5.5T128 241zm172-1V128q0-19-9.5-34.5t-25-25Q250 59 231 59H69q-19 0-34.5 9.5t-25 25Q0 109 0 128v112q0 19 9.5 34.5t25 25Q50 309 69 309h162q19 0 34.5-9.5t25-25Q300 259 300 240zM231 96q13 0 22.5 9.5T263 128v112q0 13-9.5 22t-22.5 9H69q-13 0-22-9t-9-22V128q0-13 9-22.5T69 96h162z"/></svg>