<svg viewBox="0 0 300 368" xmlns="http://www.w3.org/2000/svg"><path d="M262 256q-18 22-44.5 32.5t-55 7q-28.5-3.5-52-19.5T74 234h107q8 0 13.5-5.5T200 215q0-8-5.5-13t-13.5-6H63q-1-12 0-24h118q8-1 13.5-6t5.5-13q0-8-5.5-13.5T181 134H74q13-26 36.5-42t52-19.5q28.5-3.5 55 7T262 112q5 6 12.5 7t13.5-4q6-5 7-12.5T291 89q-26-32-64-46t-78-7q-40 7-71 33.5T34 134H19q-8 0-13.5 5.5T0 153q0 8 5.5 13.5T19 172h7l-1 12 1 13h-7q-8-1-13.5 4.5T0 215q0 8 5.5 13.5T19 234h15q13 38 44 64.5t71 33.5q40 7 78-7t64-46q5-6 4-13.5t-7-12.5q-6-5-13.5-4t-12.5 7z"/></svg>