<svg viewBox="0 0 300 368" xmlns="http://www.w3.org/2000/svg"><path d="M150 34q-41 0-75.5 20T20 108.5Q0 143 0 184q0 26 9 50 2 7 9 10.5t14.5 1Q40 243 43 236t1-14q-4-11-5-23l24 24v43q0 15 7 28.5T90 316q29 18 60 18t60-18q13-8 20.5-21.5T238 266v-43l23-24q-1 12-5 23-2 7 1 14t11 9l6 2q6-1 10.5-4t6.5-9q9-24 9-50 0-41-20-75.5T225.5 54Q191 34 150 34zm0 37q37 0 66.5 22.5T257 150l-46 46H89l-46-46q11-34 40.5-56.5T150 72v-1zm50 195q0 6-2.5 10.5T191 284q-21 13-41 13t-41-13q-4-3-6.5-7.5T100 266v-32h100v32zM72 136q4-6 12-12 14-11 31-15 8-1 14.5 3.5t8 12q1.5 7.5-3 14t-12.5 8q-8 1.5-14 5.5l-5 5q-6 8-16 8-5 0-10.5-3.5t-7-11.5q-1.5-8 2.5-14zm91-12q1-7 7.5-11.5T185 109q17 4 31 15 8 6 12 12t2.5 14q-1.5 8-7 11.5T213 165q-10 0-16-8l-5-5q-6-4-14-5.5t-12.5-8Q161 132 163 124z"/></svg>