<svg viewBox="0 0 300 368" xmlns="http://www.w3.org/2000/svg"><path d="M141 96q-21 1-38 11t-27 27q-10 17-10 37.5T76 209q10 17 27 27.5t37.5 10Q161 246 178 236t27.5-27q10.5-17 10.5-37.5T205.5 134Q195 117 178 107t-37-10v-1zm0 113q-16 0-27-11t-11-26.5q0-15.5 11-26.5t26.5-11q15.5 0 26.5 11t11 26.5q0 15.5-11 26.5t-26 11zm155 40l-16 75q-1 4-4.5 7t-7.5 3h-17q-5 0-8.5-3t-4.5-7l-16-75q-2-9 3.5-17t15.5-10v-50q0-28-13.5-51T191 85q-23-13-50.5-13t-50 13q-22.5 13-36 36T41 171.5Q41 199 54.5 222T91 258q23 13 50 13 19 0 36-7 8-2 15 1t10 10q3 7 0 14t-11 10q-24 10-50 10-38 0-69.5-18.5t-50-50Q3 209 3 171.5t18.5-69q18.5-31.5 50-50t69-18.5q37.5 0 69 18.5t50 50Q278 134 278 171v51q9 2 14.5 10t3.5 17z"/></svg>