<svg viewBox="0 0 300 368" xmlns="http://www.w3.org/2000/svg"><path d="M144 334q-8 0-13.5-5.5T125 315v-12q0-8 5.5-13.5T144 284q8 0 13.5 5.5T163 303v12q0 8-5.5 13.5T144 334zm-19-94v-12q0-8-5.5-13.5T106 209q-8 0-13 5.5T88 228v12q0 8 5 13.5t13 5.5q8 0 13.5-5.5T125 240zm-25 75v-12q0-8-5.5-13.5T81 284q-8 0-13 5.5T63 303v12q0 8 5 13.5t13 5.5q8 0 13.5-5.5T100 315zm100-75v-12q0-8-5.5-13.5T181 209q-8 0-13.5 5.5T162 228v12q1 8 6 13.5t13 5.5q8 0 13.5-5.5T200 240zm25 75v-12q0-8-5.5-13.5T206 284q-8 0-13.5 5.5T187 303v12q1 8 6 13.5t13 5.5q8 0 13.5-5.5T225 315zM59 269q5-6 3.5-13.5t-8.5-12Q47 239 43 232t-5-15q-1-8 2-15.5t9-13.5q8-7 11.5-17.5t1.5-22Q60 137 62 125q4-21 19-35.5T117 72q21-3 40 7t28 30q4 9 12 15t18 8q24 5 37 24.5t9.5 43Q258 223 239 239q-4 3-5.5 7.5t-1 9.5q.5 5 4 9t8.5 5.5q5 1.5 10 .5t8-4q23-19 31.5-45.5T297 168q-6-27-25.5-47T223 96q-3-1-4-4-16-31-47-47t-65-9q-32 6-54 28.5T25 119q-3 18 1 37 0 3-2 4-13 12-19 27.5T.5 220q1.5 17 10 31T33 275q7 4 14.5 2.5T59 269z"/></svg>