<svg viewBox="0 0 300 368" xmlns="http://www.w3.org/2000/svg"><path d="M154 284q-17-64-22-130 4-4 5-10.5t-2-12.5l11-17q5-9 4-19t-6-18q-5-8-14-13t-19-5h-5v-6q0-8-5.5-13.5t-13-5.5q-7.5 0-13 5.5T69 53v6h-5q-10 0-19 5T31 77q-5 8-5.5 18t3.5 19l11 17q-3 6-2 12.5t5 10.5q-5 66-22 130-9 2-15.5 9.5T0 311q1 10 8 16.5t17 6.5h125q10 0 17-6.5t8-16.5q1-10-5.5-17.5T154 284zM94 159q6 63 21 125H60q15-62 21-125h13zM64 96h47l1 2-15 23H78L62 97l2-1zm236 57v-13q0-8-5.5-13.5T281 121q-8 0-13.5 5.5T262 140v6h-12v-6q0-8-5.5-13.5T231 121q-8 0-13.5 5.5T212 140v6h-12v-6q0-8-5.5-13.5T181 121q-8 0-13.5 5.5T162 140v13q1 7 4 13.5t9 11.5v88q11 7 18 18 8 11 7.5 24.5T193 334h82q8 0 15-5t9-13.5q2-8.5-1-16T287 287V178q6-5 9.5-11.5T300 153zm-87 31h37v100h-37V184z"/></svg>