<svg viewBox="0 0 300 368" xmlns="http://www.w3.org/2000/svg"><path d="M150 34q-41 0-75.5 20T20 108.5Q0 143 0 184t20 75.5Q40 294 74.5 314t75.5 20q41 0 75.5-20t54.5-54.5q20-34.5 20-75.5t-20-75.5Q260 74 225.5 54T150 34zm19 261v-17q0-8-5.5-13.5T150 259q-8 0-13.5 5.5T131 278v17q-35-6-60.5-31.5T39 203h17q8 0 13.5-5.5T75 184q0-8-5.5-13.5T56 165H39q6-35 31.5-60.5T131 73v17q0 8 5.5 13.5T150 109q8 0 13.5-5.5T169 90V73q35 6 60.5 31.5T261 165h-17q-8 0-13.5 5.5T225 184q0 8 5.5 13.5T244 203h17q-6 35-31.5 60.5T169 295zm31-111q0 8-5.5 13.5T181 203h-12v12q0 8-5.5 13.5T150 234q-8 0-13.5-5.5T131 215v-12h-12q-8 0-13.5-5.5T100 184q0-8 5.5-13.5T119 165h12v-12q0-8 5.5-13.5T150 134q8 0 13.5 5.5T169 153v12h12q8 0 13.5 5.5T200 184z"/></svg>