<svg viewBox="0 0 300 368" xmlns="http://www.w3.org/2000/svg"><path d="M275 84h-4q-8-22-27.5-36T200 34q-24 0-43.5 14T129 84h-4q-10 0-17.5 7.5T100 109q0 10 7.5 17.5T125 134h4q4 10 11 20-39 12-64 46-20 27-28 64-10-16-10-36V119q-1-17 9.5-30.5T74 71q7-2 11-9t2-14.5q-2-7.5-9-11T64 35q-28 8-46 31.5T0 119v109q0 29 14.5 53T53 319.5Q77 334 106 334h150q8 0 13.5-5.5T275 315q0-8-5.5-13t-13.5-5q-2-1-4-2.5t-2-4.5V165q14-13 21-31h4q10 0 17.5-7.5T300 109q0-10-7.5-17.5T275 84zm-75-13q16 0 26.5 11t10.5 27q0 16-10.5 26.5T200 146q-16 0-26.5-10.5T163 109q0-16 10.5-26.5T200 72v-1zm-12 225v-25q0-5 3.5-8.5t8.5-3.5q5 0 8.5 3.5t3.5 9.5v18l1 7h-25v-1zm25-112v39q-7-2-13-1-21-1-35.5 14T150 271v25h-44q-12 0-24-4 2-22 9-41 11-29 31-46 26-21 66-21h25z"/></svg>