<svg viewBox="0 0 300 368" xmlns="http://www.w3.org/2000/svg"><path d="M219 34H81q-18 0-34 9.5t-25 25Q13 84 13 103v175q-1 23 15.5 39.5T69 334h150q18 0 34-9.5t25.5-25Q288 284 288 265V103q0-19-9.5-34.5t-25.5-25Q237 34 219 34zM81 71h138q13 0 22 9.5t9 22.5v118H69q-10 0-19 4V103q0-13 9-22.5T81 71zm138 225H69q-8 0-13.5-5T50 278q0-8 5.5-13.5T69 259h181v6q0 13-9 22t-22 9zM145 97q-19 2-32 17t-13 35v22q0 6 3.5 9.5t8.5 3.5h13v12q0 6 3.5 9.5t8.5 3.5h26q5 0 8.5-3.5t3.5-9.5v-12h13q5 0 8.5-3.5t3.5-9.5v-25q0-14-7.5-26t-20-18.5Q160 95 145 97zm-17 65q-6 0-11-4.5t-5-11q0-6.5 5-11t11.5-4.5q6.5 0 11 4.5t4.5 11q0 6.5-4.5 11T128 162zm44 0q-7 0-11.5-4.5t-4.5-11q0-6.5 4.5-11t11-4.5q6.5 0 11 4.5t4.5 11q0 6.5-4.5 11T172 162z"/></svg>