<svg viewBox="0 0 300 368" xmlns="http://www.w3.org/2000/svg"><path d="M150 121q-17 0-31.5 8.5t-22.5 23Q88 167 88 184t8 31.5q8 14.5 22.5 22.5t31.5 8q17 0 31.5-8t23-22.5Q213 201 213 184t-8.5-31.5q-8.5-14.5-23-23T150 121zm0 88q-10 0-17.5-7.5T125 184q0-10 7.5-17.5T150 159q10 0 17.5 7.5T175 184q0 10-7.5 17.5T150 209zM131 65q0-8 5.5-13.5T150 46q8 0 13.5 5.5T169 65q0 8-5.5 13.5T150 84q-8 0-13.5-5.5T131 65zm38 238q0 8-5.5 13t-13.5 5q-8 0-13.5-5t-5.5-13q0-8 5.5-13.5T150 284q8 0 13.5 5.5T169 303zM50 184q0 8-5.5 13.5T31 203q-8 0-13-5.5T13 184q0-8 5-13.5t13-5.5q8 0 13.5 5.5T50 184zm238 0q0 8-5.5 13.5T269 203q-8 0-13.5-5.5T250 184q0-8 5.5-13.5T269 165q8 0 13.5 5.5T288 184zm-75-81q0-8 5-13.5t13-5.5q8 0 13.5 5.5T250 103q0 8-5.5 13t-13.5 5q-8 0-13-5t-5-13zM88 265q0 8-5.5 13.5T69 284q-8 0-13.5-5.5T50 265q0-8 5.5-13.5T69 246q8 0 13.5 5.5T88 265zM50 103q0-8 5.5-13.5T69 84q8 0 13.5 5.5T88 103q0 8-5.5 13T69 121q-8 0-13.5-5T50 103zm200 162q0 8-5.5 13.5T231 284q-8 0-13-5.5t-5-13.5q0-8 5-13.5t13-5.5q8 0 13.5 5.5T250 265z"/></svg>