<svg viewBox="0 0 300 368" xmlns="http://www.w3.org/2000/svg"><path d="M281 221q-8 1-13 6t-5 13q0 3-2 4.5t-4.5 1.5q-2.5 0-4.5-1.5t-2-4.5v-44q0-15 7-25 8-12 24-12 8 0 13.5-5.5T300 140q0-8-5.5-13t-13.5-5q-19-1-34.5 8.5T222 156q-11-7-24-12l20-36q13-1 22.5-11.5T250 71q0-15-11-26t-26.5-11Q197 34 186 45t-11 26q0 13 8 23l-23 41-10-1-10 1-23-41q8-10 8-23 0-15-11-26T87.5 34Q72 34 61 45T50 71q0 15 9.5 25.5T82 108l20 36q-13 5-24 12-9-16-24.5-25.5T19 121q-8 0-13.5 5.5T0 140q0 8 5.5 13.5T19 159q16 0 24 12 7 10 7 25v44q0 3-2 4.5t-4.5 1.5q-2.5 0-4-1.5T38 240q0-8-5.5-13.5T19 221q-8 0-13.5 5.5T0 240q0 18 13 31t30.5 13q17.5 0 30-12T87 243q9 5 19 8v14q0 20-7 28-4 3-11.5 3t-13 5.5Q69 307 69 315t5.5 13.5Q80 334 88 334q26 0 41-18t15-51v-6h12v6q0 30 18 49.5t45 19.5q8 0 13.5-5.5T238 315q0-8-5.5-13.5T219 296q-15 0-22-13-3-8-3-18v-14q10-3 19-8 1 17 13.5 29t30 12q17.5 0 30.5-13t13-31q0-8-5.5-13.5T281 221zm-131 1q-33 0-62-23v-2.5-2.5q29-22 62-22t62 22v5q-29 23-62 23z"/></svg>