<svg viewBox="0 0 300 368" xmlns="http://www.w3.org/2000/svg"><path d="M299 205L281 92q-4-25-23-41.5T213 34h-13q-8 0-13.5 5.5T181 53q0 8 5.5 13t13.5 5h13q12 0 20.5 7.5T244 98l15 98h-28q-15 0-29 7t-24 18h-56q-10-11-24-18t-29-7H41l15-98q2-12 10.5-19.5T87 71h13q8 0 13.5-5t5.5-13q0-8-5.5-13.5T100 34H87q-26 0-45 16.5T19 92L1 205q-1 9-1 18v42q0 19 9.5 34.5t25 25q15.5 9.5 34 9.5t34.5-9.5q16-9.5 25-25t9-34.5v-6h26v6q0 19 9 34.5t25 25q16 9.5 34.5 9.5t34-9.5q15.5-9.5 25-25T300 265v-42q0-9-1-18zM69 296q-13 0-22.5-9T37 265v-31h32q13 0 22 9t9 22q0 13-9 22t-22 9zm194-31q0 13-9.5 22t-22.5 9q-13 0-22-9t-9-22q0-13 9-22t22-9h32v31z"/></svg>