<svg viewBox="0 0 300 368" xmlns="http://www.w3.org/2000/svg"><path d="M281 134q-8 0-13 5.5t-5 13.5v6h-25V53q0-8-5.5-13.5T219 34q-8 0-13.5 5.5T200 53v6h-31v-6q0-8-5.5-13.5T150 34q-8 0-13.5 5.5T131 53v6h-31v-6q0-8-5.5-13.5T81 34q-8 0-13.5 5.5T62 53v106H38v-6q0-8-5.5-13.5T19 134q-8 0-13.5 5.5T0 153v118q0 17 8.5 31.5t23 23Q46 334 63 334h175q16 0 30.5-8.5t23-23Q300 288 300 271V153q0-8-5.5-13.5T281 134zm-156-13q0-10 7.5-17.5T150 96q10 0 17.5 7.5T175 121v38h-50v-38zm113 175h-50v-25q0-15-11-26t-27-11q-16 0-26.5 11T113 271v25H63q-11 0-18-7t-7-18v-75h225v75q0 11-7.5 18t-17.5 7z"/></svg>