<svg viewBox="0 0 300 368" xmlns="http://www.w3.org/2000/svg"><path d="M241 43q-24-9-47-9h-94q-11 0-27 5l-14 4Q33 53 16.5 77T0 130v135q0 13 9 22t22 9h32q2 16 14.5 27t28.5 11h88q16 0 28.5-11t14.5-27h32q13 0 22-9t9-22V130q0-29-16.5-53T241 43zM38 130q0-17 9.5-31.5T73 78l10-3q11-4 17-4h11l25 45-36 65v-41q0-8-5.5-13.5T81 121q-8 0-13 5.5T63 140v119H38V130zm162 160q0 3-2 4.5t-4 1.5h-88q-2 0-4-1.5t-2-4.5v-56h27q-2 9-2 18t5.5 14q5.5 5 13.5 5 3 0 6-1 3 1 6 1 8 0 13.5-5t5.5-14q0-9-2-18h27v56zm63-31h-25V140q0-8-5.5-13.5t-13.5-5q-8 .5-13.5 5.5t-5.5 13v56h-66l70-124q12 2 23 6 16 6 25.5 20.5T262 130v129h1z"/></svg>