<svg viewBox="0 0 300 368" xmlns="http://www.w3.org/2000/svg"><path d="M244 34H119q-24 0-40 16.5T63 90v125q0 24 16.5 40.5T121 272h95q11 0 21.5-4.5T255 255l29-28q7-8 11.5-18.5T300 187V90q0-23-16.5-39.5T244 34zM100 215V90q0-8 5.5-13.5T119 72h125q8-1 13.5 4.5T262 90v81h-37q-10 0-17.5 7.5T200 196v38h-79q-9 0-15-5.5t-6-13.5zm113 100q0 8-5.5 13.5T194 334h-75q-32 0-59-16t-43.5-42.5Q0 249 0 217v-76q0-8 5.5-13.5T19 122q8 0 13 5t6 13v76q0 22 11 40.5T78.5 286Q97 297 119 297h75q8-1 13.5 4.5T213 315z"/></svg>