<svg viewBox="0 0 300 368" xmlns="http://www.w3.org/2000/svg"><path d="M285 173q-6-2-12.5-1t-12.5 5l-12 10q-3-13-10.5-24T219 145q9-9 14-20.5t5-24.5q0-18-9-33t-24-24q-15-9-33-9-14 0-26 5t-21 15q-9-10-21-15t-26-5q-18 0-33 9T21.5 67Q13 82 13 100q0 13 4.5 24.5T31 145q-14 10-22.5 25T0 203v62q0 19 9.5 34.5t25 25Q50 334 69 334h112q24 0 42.5-14.5T248 282l13 10q7 4 15 4t13.5-4q5.5-4 8-9.5T300 271v-75q0-8-4-14t-11-9zM172 71q12 0 20 8.5t8 20q0 11.5-8 20t-20 8.5q-12 0-20-8.5t-8-20q0-11.5 8-20t20-8.5zm-94 0q12 0 20 8.5t8 20q0 11.5-8 20T78 128q-12 0-20-8.5t-8-20q0-11.5 8-20T78 71zm135 194q-1 13-10 22t-22 9H69q-13 0-22-9t-9-22v-62q0-13 9-22.5t22-9.5h112q13 1 22.5 10t9.5 22v62z"/></svg>