<svg viewBox="0 0 300 368" xmlns="http://www.w3.org/2000/svg"><path d="M290 117q-13-14-30-26 15-15 15-38 0-8-5.5-13.5t-13-5.5q-7.5 0-13 5.5T238 53q0 11-11 16-6 2-15 2h-6q-8 0-13.5-5.5t-5.5-13-5.5-13q-5.5-5.5-13-5.5t-13 5.5q-5.5 5.5-5.5 14t3 17.5h-9q-8 0-13.5-5.5t-5.5-13-5.5-13Q114 34 106 34t-13.5 5.5Q87 45 87 53q0 23 16.5 39.5T144 109h12q-6 13-6 26v11H80q-12 0-23 5t-20 14L4 203q-5 6-4 13.5T6.5 229q5.5 5 12.5 5 3 0 6-1 3 8 8 22l4 13v41q0 10 7.5 17.5t18 7.5q10.5 0 17.5-7.5t7-17.5v-25h88v25q0 10 7.5 17.5t18 7.5q10.5 0 17.5-7.5t7-17.5v-44q9-14 16-29 9-24 9-47v-13l21-3q12-1 20.5-10.5T300 140q0-13-10-23zm-61 23q-7 1-12 6.5t-5 12.5v30q1 19-8 38-6 11-12 19H70l-2-5q-5-12-7-18-2-10-2-18.5t6-14.5q6-6 15-6h89q8 0 13.5-5.5T188 165v-30q0-8 3-14 7-11 23-12 10 4 21.5 11.5T257 137l-28 3z"/></svg>