<svg viewBox="0 0 300 368" xmlns="http://www.w3.org/2000/svg"><path d="M300 296q0 16-11 27t-26.5 11q-15.5 0-26.5-11t-11-26.5q0-15.5 11-26.5t26.5-11q15.5 0 26.5 11t11 26zM196 181q5 6 4 13t-8 11l-20 9q3 10 3 21 0 15-5.5 29T153 288q-8 9-24 16-30 14-87 29-4 1-9 1-13 0-23-10-7-6-9-14.5T1 292q15-57 29-87 8-16 16-24 10-11 24-16.5t29-5.5q11 0 21 3l9-20q4-7 11-8t13 4l8 9L268 39q5-5 13-5t13.5 5.5Q300 45 300 53t-5 13L187 173l9 8zm-58 54q0-16-12-27-11-12-27-12t-27 12q-5 5-13 25-10 24-20 62 38-10 62-20 20-8 25-13 12-11 11-27h1z"/></svg>