<svg viewBox="0 0 300 368" xmlns="http://www.w3.org/2000/svg"><path d="M138 284H99q-6 0-9.5-4.5T88 269l27-77q1-3 4-5.5t7-2.5h24q7 0 10.5 5.5T162 201l-12 33h39q6 0 9.5 6t-.5 11l-53 78q-2 4-6 5t-7.5-1q-3.5-2-5.5-5.5t-1-7.5l13-36zm115-9q27-17 38.5-44.5T298 174q-5-29-24.5-50.5T223 96q-3-1-4-4-16-31-47-47t-65-9q-32 6-54 28.5T25 119q-3 18 1 37 0 3-2 4-13 12-19 27.5T.5 220q1.5 17 10 31T33 275q7 4 14.5 2.5t12-8q4.5-6.5 3-14t-8.5-12Q47 239 43 232t-5-15q-1-8 2-15.5t9-13.5q8-7 11.5-17.5t1.5-22Q60 137 62 125q4-21 19-35.5T117 72q21-3 40 7t28 30q4 9 12 15t18 8q20 4 32 17.5t14.5 31.5q2.5 18-5 35T233 243q-5 3-7 7.5t-2 9.5q0 5 3 9.5t7.5 6.5q4.5 2 9.5 1.5t9-2.5z"/></svg>