<svg viewBox="0 0 300 368" xmlns="http://www.w3.org/2000/svg"><path d="M225 221q0 8-6.5 11t-12.5 0q-6-3-6-10.5t6.5-10.5q6.5-3 12.5 0t6 11v-1zM84 209h20l-10-32-10 32zm216-88v125q0 17-8.5 31.5t-23 23Q254 309 238 309H63q-17 0-31.5-8.5t-23-23Q0 263 0 246V121q0-16 8.5-30.5t23-23Q46 59 63 59h175q16 0 30.5 8.5t23 23Q300 105 300 121zM155 247l-43-137q-3-9-10.5-12T86 98q-8 3-10 12L32 247q-2 7 1.5 14t11 9.5q7.5 2.5 14.5-1t9-11.5l4-12h44l4 12q2 8 9 11.5t14.5 1q7.5-2.5 11-9.5t.5-14zm108-132q-1-11-10-16t-18.5 0q-9.5 5-9.5 16v58q-16-4-31 2.5T170 196q-9 14-7 31 2 19 17 31.5t35 12.5h29q8 0 13.5-5t5.5-13V115z"/></svg>