<svg viewBox="0 0 300 368" xmlns="http://www.w3.org/2000/svg"><path d="M156 271h-50q-8 0-13.5-5t-5-13q.5-8 5.5-13.5t13-5.5h50q8 0 13.5-6t5.5-13.5q0-7.5-6.5-12.5t-14.5-5h-48q-8-1-13.5-6T87 178v-50q0-13 9.5-22.5T119 96h62q8 0 13.5 5.5T200 115q0 8-5.5 13.5T181 134h-56v25h29q23 0 40 15.5t18.5 38.5q1.5 23-15.5 41-8 8-18.5 13t-22.5 5v-1zm144-6V103q0-19-9.5-34.5t-25-25Q250 34 231 34H69q-19 0-34.5 9.5t-25 25Q0 84 0 103v162q0 19 9.5 34.5t25 25Q50 334 69 334h162q19 0 34.5-9.5t25-25Q300 284 300 265zM231 71q13 0 22.5 9.5T263 103v162q0 13-9.5 22t-22.5 9H69q-13 0-22-9t-9-22V103q0-13 9-22.5T69 71h162z"/></svg>