<svg viewBox="0 0 300 368" xmlns="http://www.w3.org/2000/svg"><path d="M275 163q0 19-9.5 35.5t-26 26Q223 234 203 234h-53q-11 0-18-7t-7-17.5q0-10.5 7-18t18-7.5q7 0 12.5 3.5t8.5 9.5h32q14 0 24-10t10-24q0-24-10.5-44T197 86q-19-13-41-14-18-1-34.5 4.5T92 93.5Q79 105 71 121t-9 33q0 8-6 13t-13.5 4.5q-7.5-.5-12.5-6T25 152q1-25 12-47.5t30-39Q86 49 109.5 41t48.5-6q32 2 59 19.5t42.5 46.5q15.5 29 15.5 62zm-126 84q-31 0-58.5 17T51 308q-3 7 0 14.5T61 333q7 3 14.5 0T86 323q5-13 19-23l11 16q3 5 9 5t9-5l16-23 16 23q3 5 9 5t9-5l11-16q13 10 19 23 2 5 7 8t9.5 3q4.5 0 7.5-1 8-3 10.5-10.5T248 308q-11-27-39-44t-60-17zm1-125q14 0 24.5 9t12.5 22q0 8 5.5 13.5T206 172q8 0 13.5-5.5T225 153q0-3-1-6-5-27-26-44.5T150 85q-20 0-37.5 10T85 122q-10 17-10 37v1q0 16 6.5 30.5T100 216v-7q0-21 15-36-3-6-3-14 0-15 11-26t27-11z"/></svg>