<svg viewBox="0 0 300 368" xmlns="http://www.w3.org/2000/svg"><path d="M300 256q0 18-12.5 33.5T252 317q-9 4-18-1.5t-9-15.5V169q0-8 3.5-14t10.5-10q11-5 17.5-13t6.5-13v-4q0-9-14.5-19.5T210 79q-28-8-60-8t-60 8q-24 6-38 16.5T38 115v4q0 5 6 13t18 13q6 4 9.5 10t3.5 14v131q0 10-9 15.5T48 317q-23-12-35.5-27.5T0 256V115q0-23 19.5-41.5t54-29Q108 34 150 34t76.5 10.5q34.5 10.5 54 29T300 115v141zM181 128q0-13-9-22.5T150 96q-13 0-22 9.5t-9 22.5q0 13 9 22t22 9q13 0 22-9t9-22zm19 93v25q0 12-6 21v48q0 8-5.5 13.5T175 334q-8 0-13.5-5.5T156 315v-31h-12v31q0 8-5.5 13.5T125 334q-8 0-13.5-5.5T106 315v-48q-6-9-6-20v-26q0-20 14.5-35t35.5-15q21 0 35.5 15t14.5 36v-1zm-62 26l25-1v-25q0-5-4-8.5t-9-3.5q-5 0-8.5 3.5T138 221v26z"/></svg>