<svg viewBox="0 0 300 368" xmlns="http://www.w3.org/2000/svg"><path d="M238 128v75q-1 8-6 13.5t-13 5q-8-.5-13.5-5.5t-5.5-13v-42L95 266q-6 5-14 5t-13.5-5q-5.5-5-5.5-13t6-14l105-105h-42q-8 0-13.5-5.5T112 115q0-8 5.5-13t13.5-5h75q13 0 22 9t9 22h1zm62-25v162q0 19-9.5 34.5t-25 25Q250 334 231 334H69q-19 0-34.5-9.5t-25-25Q0 284 0 265V103q0-19 9.5-34.5t25-25Q50 34 69 34h162q19 0 34.5 9.5t25 25Q300 84 300 103zm-37 0q0-13-9.5-22.5T231 71H69q-13 0-22.5 9.5T37 103v162q1 13 10 22t22 9h162q13 0 22-9t9-22V103h1z"/></svg>