<svg viewBox="0 0 300 368" xmlns="http://www.w3.org/2000/svg"><path d="M250 221h-87q-21 0-35.5 15T113 271.5q0 20.5 14.5 35T163 321h87q21 0 35.5-14.5t14.5-35q0-20.5-14.5-35.5T250 222v-1zm-100 50q0-5 3.5-8.5t9.5-3.5h12v25h-12q-6 0-9.5-3.5T150 272v-1zm100 13h-37v-25h37q5 0 9 3.5t4 9q0 5.5-4 9t-9 3.5zm-87-125h87q21 0 35.5-14.5T300 109q0-21-14.5-35.5T250 59h-87q-21 0-35.5 14.5T113 109q0 21 14.5 35.5T163 159zm100-50q0 5-4 8.5t-9 3.5h-12V96h12q5 0 9 4t4 9zM163 96h37v25h-37q-6 0-9.5-3.5T150 109q0-5 3.5-9t8.5-3l1-1zM13 71q-1-15 10-26t27-11q16 0 26.5 11T87 71.5Q87 87 76.5 98T50 109q-16 0-26.5-11T13 71zm84 72q3 4 3 9t-2.5 9.5q-2.5 4.5-7 7T81 171H19q-5 0-9.5-2.5t-7-7Q0 157 0 152t3-9q6-10 18.5-16t28.5-6q16 0 28.5 6T97 143zM50 271q-16 0-27-10.5T12.5 234q.5-16 11-26.5T50 197q16 0 27 10.5T88 234q0 16-11 26.5T50 271zm47 34q3 5 3 10t-2.5 9.5q-2.5 4.5-7 7T81 334H19q-5 0-9.5-2.5t-7-7Q0 320 0 315t3-10q6-10 18.5-15.5T50 284q16 0 28.5 5.5T97 305z"/></svg>