<svg viewBox="0 0 300 368" xmlns="http://www.w3.org/2000/svg"><path d="M225 203v-74q0-17-6-31.5T201 71l-13-13q-12-12-27-18t-31-6H94q-19 0-34.5 9.5t-25 25Q25 84 25 103v100q0 18 9.5 34t25 25Q75 271 94 272h62q19-1 34.5-10t25-25q9.5-16 9.5-34zm-162 0V103q0-13 9-22t22-9h44v24q0 11 7 18t17 7h25l1 8v74q-1 13-10 22t-22 9H94q-13 0-22-9t-9-22zm225-63v125q-1 19-10 34.5t-25 25q-16 9.5-34 9.5H119q-8 0-13.5-5.5T100 315q0-8 5.5-13.5T119 296h100q13 0 22-9t9-22V140q0-8 5.5-13.5T269 121q8 0 13.5 5.5T288 140z"/></svg>