<svg viewBox="0 0 300 368" xmlns="http://www.w3.org/2000/svg"><path d="M76 240q0 8-5.5 13.5T57 259q-8 0-13.5-5.5T38 240q0-8 5.5-13.5t13.5-5q8 .5 13.5 5.5t5.5 13zm105 44h-62q-8 0-13.5 5.5T100 303q0 8 5.5 13.5T119 321h62q8 0 13.5-5t5.5-13q0-8-5.5-13.5T181 284zm-124 0q-8 0-13.5 5.5T38 303q0 8 5.5 13t13.5 5q8 0 13.5-5t5.5-13q0-8-5.5-13.5T57 284zm62-25q8 0 13.5-5.5T138 240q0-8-5.5-13.5t-13-5q-7.5.5-13 5.5t-5.5 13q0 8 5.5 13.5T119 259zm181-121l-1 20q0 16-11.5 27T260 196l-31-3q-15-1-26-11.5T191 156v-2q-21-7-41-8-23 1-41 8v2q-1 15-12 25.5T71 193l-31 4q-16-1-27.5-12.5T1 157l-1-18q0-30 20-50t54.5-31Q109 47 150 47t75 11q34 11 54 31 10 10 15.5 22.5T300 138zm-37-1q0-12-10-22-15-14-42-22.5T151 84q-33 0-61.5 8.5T47 115q-10 10-10 23l1 18q0 2 2 3l28-4q3 0 3-2l3-17q2-9 11-13 32-14 64.5-14t65.5 14q8 4 11 13l3 17q0 2 3 2l28 4q2-1 2-2l1-20zm-19 84q-7 1-12.5 6t-5.5 13q0 8 5.5 13.5t13 5.5q7.5 0 13-5.5T263 240q0-8-5.5-13.5T244 221zm-62 0q-8 1-13.5 6t-5.5 13q0 8 5.5 13.5T182 259q8 0 13.5-5.5T201 240q0-8-5.5-13.5T182 221zm62 63q-7 0-12.5 5.5T226 303q0 8 5.5 13t13 5q7.5 0 13-5t5.5-13q0-8-5.5-13.5T244 284z"/></svg>