<svg viewBox="0 0 300 368" xmlns="http://www.w3.org/2000/svg"><path d="M206 134q8 0 13.5 5.5T225 153v50q0 8-5.5 13t-13.5 5q-8 0-13-5t-5-13v-50q0-8 5-13.5t13-5.5zm50 0q-8 0-13 5.5t-5 13.5v50q0 8 5 13t13 5q8 0 13.5-5t5.5-13v-50q0-8-5.5-13.5T256 134zm-18 108v11q0 18-13 30.5T194 296h-66q-27 0-47-18l-24-23 35-36q8-7 8-18t-8-18q-7-8-18-8t-18 8l-31 32q-12 13-12 31t13 31l30 28q15 14 33.5 21.5T129 334h65q22 0 40.5-11t29.5-29.5q11-18.5 11-40.5v-11q-9 5-19 5t-18-5zM95 157q9 4 15 10 12 12 15 29h12q8 0 15-5t9-13l32-121q2-7-2-13.5T179.5 35q-7.5-2-14 2T157 48l-26 99-25-99q-2-8-9-11.5t-14.5-2Q75 36 71 43t-2 14l26 100z"/></svg>