<svg viewBox="0 0 300 368" xmlns="http://www.w3.org/2000/svg"><path d="M1 172q-1-5-.5-10t4-9q3.5-4 8-5.5t9.5-1q5 .5 9 4t5 8.5l22 57q3 6 7.5 9.5t6 8.5q1.5 5 .5 10t-4.5 9q-3.5 4-8 5.5t-9.5.5q-5-1-9-5-10-9-17-21L1 172zm294-14q-2-5-6-8t-9-3.5q-5-.5-9.5 1.5t-7.5 6q-3 4-3.5 9t1.5 10q3 7 .5 14t-9.5 10l-39 17-15-30q-5-12-17-16.5t-23 .5l-10 4-14-40q-4-10-13.5-16.5t-21-6.5Q88 109 79 115t-14 17q-6 14 0 27l13 39q8 15 24.5 21t31.5-1l33-13 11 23-166 70q-5 2-8 6t-3.5 9q-.5 5 1 9.5T7 330q4 3 9 3.5t10-.5l241-101q21-10 29.5-31.5T295 158zm-114-12q8 0 13.5-5t5.5-13V53q0-8-5.5-13.5T181 34q-8 0-13.5 5.5T162 53v75q1 8 6 13.5t13 5.5v-1zM81 96q13 0 22.5-9t9.5-22q0-13-9.5-22T81 34q-13 0-22 9t-9 22q0 13 9 22t22 9z"/></svg>