<svg viewBox="0 0 300 368" xmlns="http://www.w3.org/2000/svg"><path d="M231 334h-68q-45 1-84.5-21T18 254q-22-39-17-84 3-33 19.5-61.5T64 61q27-19 59.5-25t64.5 2.5Q220 47 245.5 69t40 53q14.5 31 14.5 66v77q0 19-9.5 34.5t-25 25Q250 334 231 334zM150 71q-28 0-53 13.5t-40.5 37Q41 145 38 174q-2 22 5 43.5T65 256q19 20 44.5 30.5T163 296h68q13 1 22-8.5t9-22.5v-77q1-26-10-50t-32-41q-14-12-32-19t-38-7zm31 63q-13 1-22.5 11t-8.5 23q1-8-3-16t-11.5-13q-7.5-5-16.5-5t-16.5 5Q95 144 91 152t-4 16q1 18 20 43 14 17 33 32 5 4 10 4t10-4q19-15 33-32 20-25 20-43 0-13-9-23t-23-11z"/></svg>