<svg viewBox="0 0 300 368" xmlns="http://www.w3.org/2000/svg"><path d="M240 271q16 0 30-8t22-21.5q8-13.5 8-30.5 0-25-11.5-46.5t-31.5-36Q237 114 212 110V84h69q8 0 13.5-5.5T300 65q0-8-5.5-13.5T281 46h-70q-2-5-6.5-8.5T194 34q-6 0-11 3.5t-7 8.5h-70q-8 1-13 6t-5 13q0 8 5 13.5t13 5.5h69v25H38v-6q0-8-5.5-13.5T19 84q-8 0-13.5 5.5T0 103v16q0 19 11.5 34.5T41 174l47 12v7q0 24 13.5 44t35.5 29v30h-31q-8 0-13 5.5T88 315q0 8 5 13.5t13 5.5h163q13 0 22-9t9-22q0-7-4.5-12t-11-6.5q-6.5-1.5-12.5 2t-8 9.5h-26v-25h2zm-115-78v-21q0-7-4-12t-10-6l-26-8h103v38q0 10 7 17.5t18 7.5h50q0 10-6.5 17.5T240 234h-74q-17 0-29-12t-12-29zm75 103h-25v-25h25v25z"/></svg>