<svg viewBox="0 0 300 368" xmlns="http://www.w3.org/2000/svg"><path d="M150 334q-41 0-75.5-20T20 259.5Q0 225 0 184t20-75.5Q40 74 74.5 54T150 34q41 0 75.5 20t54.5 54.5q20 34.5 20 75.5t-20 75.5Q260 294 225.5 314T150 334zm0-263q-31 0-56.5 15.5t-40.5 41Q38 153 37.5 184t15 56.5q15.5 25.5 41 41t56.5 15q31-.5 56.5-15.5t40.5-40.5q15-25.5 15-56.5t-15-56.5Q232 102 206.5 87T150 71zm-19 194q-4 0-8-2-7-3-9.5-10.5t.5-14.5l45-92h-40q-8 1-13.5-4.5T100 128q0-8 5.5-13.5T119 109h50q8 0 15 4t11.5 11q4.5 7 4.5 15t-3 15l-49 101q-2 5-6.5 7.5T131 265z"/></svg>