<svg viewBox="0 0 300 368" xmlns="http://www.w3.org/2000/svg"><path d="M300 315q0 8-5.5 13.5T281 334H19q-8 0-13.5-5.5T0 315q0-8 5.5-13t13.5-5h262q8-1 13.5 4.5T300 315zm-19-81H19q-8 0-13.5 5.5T0 253q0 8 5.5 13t13.5 5h262q8 1 13.5-4.5T300 253q0-8-5.5-13.5T281 234zM75 96h113q2 10 10 15.5t17 3.5l75-16q4-1 7-4.5t3-8.5V69q0-4-3-7.5t-7-4.5l-75-16q-9-2-17 3.5T188 59H75q-20 0-37.5 10T10 96.5Q0 114 0 134t10 37.5Q20 189 37.5 199T75 209h206q8 0 13.5-5.5T300 190q0-8-5.5-13.5T281 171H75q-16 1-27-10t-10.5-27q.5-16 11-26.5T75 97v-1z"/></svg>