<svg viewBox="0 0 300 368" xmlns="http://www.w3.org/2000/svg"><path d="M250 85q-31-28-72-36t-80 6.5q-39 14.5-65 47T1 176q-4 35 7.5 68.5T45 303q10 9 22 14t25 4h116q26 1 45-17 23-21 35-50t11.5-60q-.5-31-13.5-59.5T250 85zm-23 192q-8 7-19 7H92q-12 0-21-8-19-19-27.5-44T38 181q6-38 33.5-65T137 84.5Q175 80 207 99q29 18 44 50t10 65q-5 37-34 63zm11-83q0 16-6 31.5T214 253q-5 6-12.5 6t-13.5-5q-6-5-6-13t5-13q12-13 13-30.5t-9-31.5q-4-6-3-13.5t7-12.5q6-5 14-3.5t12 7.5q17 22 17 50zm-125 34q5 5 5 13t-6 13q-6 5-13.5 5T86 253q-21-23-23-53.5T79 144q4-6 12-7t14 3.5q6 4.5 7 12t-3 13.5q-10 14-9 31.5t13 30.5zm56-48q6 8 6 18t-7.5 17q-7.5 7-17.5 7t-17.5-7q-7.5-7-7.5-17t6-18v-52q0-8 5.5-13.5T150 109q8 0 13.5 5.5T169 128v52z"/></svg>