<svg viewBox="0 0 301 368" xmlns="http://www.w3.org/2000/svg"><path d="M208 172q5 6 5 13.5t-6 12.5l-38 36q-12 12-30 12t-31-12l-14-13q-6-5-6.5-12.5T92 195q5-6 12.5-6.5T118 193l16 14q2 2 4.5 2t4.5-2l38-36q6-5 14-5t13 6zm93-82q0 8-5.5 13.5T282 109h-8l-13 162q-2 26-22 44.5T192 334h-83q-17 0-32.5-8.5t-25-23Q42 288 41 271L27 109h-8q-7 0-12.5-5.5T1 90q0-8 5.5-13.5T19 71h60q6-16 20.5-26.5T132 34h37q19 0 33.5 10.5T223 71h59q8 0 13.5 5.5T301 90zm-64 19H65l13 159q1 12 10 20.5t21 8.5h83q12-1 21-9t10-20l14-159z"/></svg>