<svg viewBox="0 0 300 368" xmlns="http://www.w3.org/2000/svg"><path d="M125 159q17 0 31.5-8.5t22.5-23q8-14.5 8.5-31t-8-31q-8.5-14.5-23-23T125 34q-17 0-31.5 8.5T71 65.5q-8 14.5-8.5 31t8 31q8.5 14.5 23 23T125 159zm0-88q10 0 17.5 7.5t7.5 18q0 10.5-7.5 18T125 122q-10 0-17.5-7.5t-7.5-18q0-10.5 7.5-18T125 71zm163-1v68q0 6-6 8t-9-3l-17-22-16 22q-4 5-9.5 3t-5.5-8V70q-6-2-9.5-6.5T212 52q0-7 5.5-12.5T231 34h50q8 0 13.5 5.5T300 52q0 7-3.5 11.5T288 70zm-57 189h-7q-3-24-17-44t-35.5-32Q150 171 125 171t-46.5 12Q57 195 43 215t-17 44h-7q-8 0-13.5 5.5T0 277q0 7 3.5 11.5T13 295v20q-1 8 4.5 13.5T31 334q8 0 13.5-5.5T50 315v-19h150v19q0 8 5.5 13.5T219 334q8 0 13-5.5t5-13.5v-20q6-2 9.5-6.5T250 277q0-7-5.5-12.5T231 259zm-45 0h-43l-7-28 11-18q15 6 25.5 18t13.5 28zm-83-46l11 18-7 28H64q3-16 13.5-28t25.5-18z"/></svg>