<svg viewBox="0 0 300 368" xmlns="http://www.w3.org/2000/svg"><path d="M287 230l-14-77q-4-23-21.5-38.5T211 97q2-6 2-13 0-21-15-35.5T163 34h-25q-21 0-35.5 14.5T88 84q0 6 1 13-23 2-40.5 17.5T27 153l-14 77q-2 13 1.5 25T26 276.5q8 9.5 19 14.5t24 5h33q4 17 17.5 27.5T150 334q17 0 30.5-10.5T198 296h33q13 0 24-5t19-14.5q8-9.5 11.5-21.5t1.5-25zM138 71h25q5 0 8.5 4t3.5 9q0 5-3.5 8.5T163 96h-25q-6 0-9.5-3.5T125 84q0-5 3.5-9t9.5-4zm108 181q-6 7-15 7H69q-9 0-14.5-6.5T50 237l14-77q2-12 10.5-19t20.5-7h110q11 0 20 7t11 19l14 77q1 9-4 15z"/></svg>