<svg viewBox="0 0 300 368" xmlns="http://www.w3.org/2000/svg"><path d="M150 240v63q0 8-5.5 13t-13.5 5H81q-8 0-13-5t-5-13q0-8 5-13.5t13-5.5h32v-25H69q-19 0-34.5-9.5t-25-25Q0 209 0 190v-75q0-18 9.5-34t25-25.5Q50 46 69 46h137q24 0 42.5 14.5T273 98q2 8-2 14.5t-11.5 8.5q-7.5 2-14.5-2t-8-12q-3-10-11.5-16.5T206 84H69q-13 0-22 9t-9 22v75q0 13 9 22.5t22 9.5h62q8 0 13.5 5.5T150 240zm150-44v88q0 21-14.5 35.5T250 334h-25q-21 0-35.5-14.5T175 284v-88q0-20 14.5-35t35.5-15h25q21 0 35.5 15t14.5 35zm-37 0q0-5-4-8.5t-9-3.5h-25q-5 0-8.5 3.5T213 196v88q0 5 3.5 8.5t8.5 3.5h25q5 0 9-3.5t4-8.5v-88z"/></svg>