<svg viewBox="0 0 300 368" xmlns="http://www.w3.org/2000/svg"><path d="M294 184q0 8-5.5 13.5T275 203q-8 0-13.5-5.5T256 184q0-8 5.5-13.5T275 165q8 0 13.5 5.5T294 184zm-163 0q0 8 5.5 13.5T150 203q8 0 13.5-5.5T169 184q0-8-5.5-13.5T150 165q-8 0-13.5 5.5T131 184zm82-19q-8 0-13.5 5.5T194 184q0 8 5.5 13.5t13 5.5q7.5 0 13-5.5T231 184q0-8-5.5-13.5T213 165zm-107 19q0-8-5.5-13.5t-13-5.5q-7.5 0-13 5.5T69 184q0 8 5.5 13.5t13 5.5q7.5 0 13-5.5T106 184zm-81-19q-8 0-13.5 5.5T6 184q0 8 5.5 13.5T25 203q8 0 13.5-5.5T44 184q0-8-5.5-13.5T25 165zm134 60q-4-4-9-4t-9 4l-39 38q-4 3-4 8.5t3.5 9q3.5 3.5 8.5 3.5h21v31q0 8 5.5 13.5T150 334q8 0 13.5-5.5T169 315v-31h21q5 0 8.5-3.5t3.5-9q0-5.5-4-8.5l-39-38zm-18-82q4 4 9 4t9-4l39-38q4-3 4-8.5t-3.5-9Q195 84 190 84h-21V53q0-8-5.5-13.5T150 34q-8 0-13.5 5.5T131 53v31h-21q-5 0-8.5 3.5t-3.5 9q0 5.5 4 8.5l39 38z"/></svg>