<svg viewBox="0 0 300.0032 368" xmlns="http://www.w3.org/2000/svg"><path d="M184 285q5 7 3.5 14.5T180 312q-13 10-30 10t-30-10l-80-59q-9-6-19-6h-2q-8 0-13.5-5.5T0 228q0-8 5.5-13.5T19 209h2q23 0 41 13l80 59q4 3 8 3t8-3q6-4 13.5-3t12.5 7zm111 17q5 5 5 13t-5.5 13.5Q289 334 281 334t-13-5L5 66q-5-5-5-13t5.5-13.5Q11 34 19 34t13 5l22 22 15-7q14-8 30-8 27 0 47 18l4 4 4-3q15-14 37-17.5t40 6.5l27 13q9 4 19 4h4q8 0 13.5 5.5T300 90q0 8-5.5 13.5T281 109h-4q-19 0-36-9l-26-13q-9-4-19-2.5T180 92l-11 9q10-2 17 5l109 111q4 4 5 10t-1.5 11q-2.5 5-7 8t-10.5 3h-2q-10 0-19 6l-7 6 42 41zM121 93v-1q-7-6-17-7.5T85 87l-3 2 20 21 19-17zm124 128l-73-76-18 17 72 72 19-13z"/></svg>