<svg viewBox="0 0 300 368" xmlns="http://www.w3.org/2000/svg"><path d="M288 167l-57-23 28-43q4-6 3.5-12.5T257 77q-5-5-11.5-5.5T233 75l-43 28-23-57q-2-6-6.5-9T150 34q-6 0-10.5 3t-6.5 9l-23 57-43-28q-6-4-12.5-3.5T43 77q-5 5-5.5 11.5T41 101l28 43-57 23q-6 2-9 6.5T0 184q0 6 3 10.5t9 6.5l57 23-28 43q-4 6-3.5 12.5t5.5 12q5 5.5 12 5.5t12-4l43-28 23 57q2 6 6.5 9t10.5 3q6 0 10.5-3t6.5-9l23-57 43 28q5 4 11.5 4t12-5.5q5.5-5.5 6-12T259 267l-28-43 57-23q6-2 9-6.5t3-10.5q0-6-3-10.5t-9-6.5zm-107 37q-8 3-11 11l-20 50-20-50q-3-8-11-11l-50-20 50-20q8-3 11-11l20-50 20 50q3 8 11 11l50 20-50 20z"/></svg>