<svg viewBox="0 0 300 368" xmlns="http://www.w3.org/2000/svg"><path d="M231 296H69q-19 0-34.5-9t-25-25Q0 246 0 228v-88q0-18 9.5-34t25-25Q50 72 69 72h162q19 0 34.5 9t25 25q9.5 16 9.5 34v88q0 18-9.5 34t-25 25q-15.5 9-34.5 10v-1zM69 109q-13 0-22 9t-9 22v88q0 13 9 22t22 9h162q13 0 22-9t9-22v-88q1-13-8.5-22t-22.5-9H69zm0 12q-8 0-13.5 5.5T50 140q0 8 5.5 13.5T69 159q8 0 13.5-5.5T88 140q0-8-5.5-13.5T69 121zm144 19q0 8 5 13.5t13 5.5q8 0 13.5-5.5T250 140q0-8-5.5-13.5T231 121q-8 0-13.5 5.5T212 140h1zM82 214q-5-5-13-5t-13.5 5.5Q50 220 50 228t5.5 13q5.5 5 13.5 5.5t13.5-5Q88 236 88 228t-6-14zm131 14q0 8 5 13t13 5q8 0 13.5-5t5.5-13q0-8-5.5-13.5T231 209q-8 0-13.5 5.5T212 228h1zm-107-44q0-18 13-31t31-13q18 0 31 13t13 31q0 18-13 31t-31 13q-18 0-31-13t-13-31z"/></svg>