<svg viewBox="0 0 300 368" xmlns="http://www.w3.org/2000/svg"><path d="M65 104l10 5v25q0 20 10 37.5t27.5 27.5q17.5 10 37.5 10t37.5-10q17.5-10 27.5-27.5t10-37.5v-25l10-5q7-3 11-10t4-15.5q0-8.5-5.5-15.5T230 53l-59-16q-21-6-42 0L70 53q-9 3-14.5 10T50 78.5Q50 87 54 94t11 10zm85 67q-16 0-26.5-10.5T113 134v-3q17 3 37 3t37-3v3q1 16-10 26.5T150 171zm-25-99q0-4 2.5-7.5T134 60l16-6 16 6q4 1 6.5 4.5T175 72v13q0 10-8 19-5 6-13 10-4 1-7-1-9-4-14-10-8-9-8-18V72zm121 262q-9 0-14.5-4.5T225 318q-2-13-8-25t-15-20l-38 42q-6 6-14 6t-14-6l-39-42q-8 8-14 20t-8 25q-1 8-7.5 12.5t-14 3.5q-7.5-1-12-7.5T38 313q3-22 14-41.5T79 240q10-7 21.5-6t20.5 9l29 32 29-31q8-9 20-10t22 6q16 12 27 31.5t14 41.5q1 8-3.5 14.5T246 334z"/></svg>