<svg viewBox="0 0 300.0026 368" xmlns="http://www.w3.org/2000/svg"><path d="M131 246q-19 0-35-12-10 9-23 12h-4q-7 0-12-3.5T50.5 232q-1.5-7 2.5-14t11-9q5-1 8-4-9-20-9-40 0-13 9-22t22-9q13 0 22 9t9 22q0 20-7 39 6 5 13 5 4 0 9-2-2-6-2-11 0-10 7-17.5t17.5-7.5q10.5 0 18 7.5t7.5 17q0 9.5-7 21.5t-19 20q-14 9-31 9zm-25 25H69q-13 0-22-9t-9-22V103q0-13 9-22.5T69 71h56v38q0 10 7.5 17.5T150 134h38v19q0 8 5 13t13 5q8 0 13.5-5t5.5-13v-22q0-24-16-40l-41-41q-16-16-40-16H69q-19 0-34.5 9.5t-25 25Q0 84 0 103v137q0 19 9.5 34.5t25 25Q50 309 69 309h37q8 0 13.5-5.5T125 290q0-8-5.5-13.5T106 271zm188-76q-8-10-21-11t-22 8l-85 85q-7 8-11.5 18t-4.5 21v12q0 2 2 4t5 2h11q23 0 39-16l84-84q8-8 9-19.5t-6-19.5z"/></svg>