<svg viewBox="0 0 300 368" xmlns="http://www.w3.org/2000/svg"><path d="M231 34H69q-19 0-34.5 9.5t-25 25Q0 84 0 103v162q0 19 9.5 34.5t25 25Q50 334 69 334h162q19 0 34.5-9.5t25-25Q300 284 300 265V103q0-19-9.5-34.5t-25-25Q250 34 231 34zm32 231q0 13-9.5 22t-22.5 9H69q-13 0-22-9t-9-22V103q0-13 9-22t22-9h162q13-1 22.5 8.5T263 103v162zm-38-42q0 20-14.5 34T176 271h-53q-18 0-31.5-11T75 231q-1-8 3.5-14t12-7.5q7.5-1.5 14 3T112 225q1 4 4 6.5t7 2.5h53q5 0 8.5-3.5t3-7.5q-.5-4-2.5-7t-6-4l-69-20q-15-4-25-17t-10-30q0-20 14.5-34T124 97h53q18 0 31.5 11t16.5 29q1 8-3.5 14t-12 7.5q-7.5 1.5-14-3T188 143q-1-4-4-6.5t-7-2.5h-53q-5 0-8.5 3.5T112 145q0 4 2.5 7t6.5 4l69 20q15 4 25 17t10 30z"/></svg>