<svg viewBox="0 0 300 368" xmlns="http://www.w3.org/2000/svg"><path d="M295 239q-5-8-13.5-12.5T263 222H37q-10-1-18.5 4T5 239q-5 8-5 17.5T4 274q12 23 32 38 30 22 73 22h81q44 0 73-22 21-15 33-38 4-8 4-17.5t-5-17.5zm-105 57h-81q-51 0-71-37h224q-21 37-72 38v-1zm-21-100h100q5 0 9.5-2.5t7-7.5q2.5-5 2-10.5T283 166L183 41q-3-5-9-6.5t-11.5.5q-5.5 2-9 7T150 53v125q0 7 5.5 12.5T169 196zm19-90l42 53h-42v-53zM14 185q-2-5-1-10.5t4-9.5l75-83q4-4 9.5-5.5t11 .5q5.5 2 9 7t3.5 10v84q0 7-5.5 13t-13.5 5H31q-5 0-10-3t-7-8z"/></svg>