<svg viewBox="0 0 300 368" xmlns="http://www.w3.org/2000/svg"><path d="M250 211v-27q0-27-13.5-50T200 98V84q0-21-14.5-35.5T150 34q-21 0-35.5 14.5T100 84v14q-23 13-36.5 36T50 184v27q-17 4-27 17.5T13 259v25q0 21 14.5 35.5T63 334h175q20 0 34.5-14.5T287 284v-25q0-17-10-30.5T250 211zm-37 85H88v-3q10-16 26.5-25t35.5-9q19 0 35.5 9t26.5 25l1 3zm0-55q-29-20-63-20t-62 20v-57q0-17 8-31.5t22.5-22.5q14.5-8 31.5-8t31.5 8q14.5 8 23 22.5T212 184l1 57zm-25-63q0 8-5.5 13.5T169 196h-38q-8 0-13.5-5t-5.5-13q0-8 5.5-13.5T131 159h38q8 0 13.5 5.5T188 178z"/></svg>