<svg viewBox="0 0 300 368" xmlns="http://www.w3.org/2000/svg"><path d="M300 196q0 30-11.5 57.5T256 302q-11 12-28 13t-30-10l-17-13q-4-3-5.5-8t-1-10q.5-5 4-9t8-5.5q4.5-1.5 9.5-1t9 4.5l16 13q2 1 4.5 1t4.5-2q16-16 24.5-37.5T262 193q-1-23-10.5-44T225 112q-22-19-50.5-25T118 89.5q-28 8.5-48.5 30T42 169q-7 28 0 56.5T70 275q2 2 4.5 2t4.5-1l15-13q6-5 14-4.5t13 6.5q5 6 4 14t-7 13l-15 13q-14 11-31 10t-29-14q-23-23-34-54.5T1 182q3-33 19.5-62t44-47.5Q92 54 124.5 48t65 3Q222 60 247 81.5t39 51.5q14 30 14 63zm-93-30q6-5 6-13t-5.5-13.5Q202 134 194 134t-14 5l-32 32q-10 1-16.5 8.5T125 197q0 10 7 17t17.5 7.5q10.5.5 17.5-6.5t8-17l32-32z"/></svg>