<svg viewBox="0 0 300 368" xmlns="http://www.w3.org/2000/svg"><path d="M206 34H94q-26 0-47.5 12.5t-34 34Q0 102 0 128v137q0 19 9.5 34.5t25 25Q50 334 69 334h162q19 0 34.5-9.5t25-25Q300 284 300 265V128q0-26-12.5-47.5t-34-34Q232 34 206 34zm57 94v18h-25V81q11 8 18 20t7 27zm-113-19q-10 0-17.5 7.5T125 134v12h-25V71h100v75h-25v-12q0-10-7.5-17.5T150 109zM63 81v65H38v-18q0-15 6.5-27T63 81zm175 215v-68q-1-8-6-13.5t-13-5.5q-8 0-13.5 5.5T200 228v68H100v-68q0-8-5.5-13.5T81 209q-8 0-13 5.5T63 228v68q-11-2-18-11t-7-20v-81h87q0 10 7.5 17.5T150 209q10 0 17.5-7.5T175 184h88v81q-1 11-8 20t-17 11z"/></svg>