<svg viewBox="0 0 300 368" xmlns="http://www.w3.org/2000/svg"><path d="M271 39q-19-9-38.5-2T205 63l-82 164q-2 5-7.5 6.5t-9.5-1q-4-2.5-5-7.5t1-9q4-10 3.5-21t-5.5-21q-5-10-13.5-17T67 148q-18-4-34.5 4.5T9 179q-13 31-7 64t29 57q23 24 56 31.5t64-4.5q21-8 37-23t25-35l83-165q8-18 .5-37.5T271 39zm-91 214q-9 19-25 30t-36 13q-20 2-38-6.5t-29-24Q41 250 38.5 231t4.5-38q2-4 5.5-6.5T56 184q7 1 10 6.5t1 10.5q-8 18-2 36t22 28q9 5 19.5 6t20.5-2q10-3 17.5-9.5T157 243l29-58 22 10-28 58zm82-165l-37 74-22-11 36-72q2-5 6-6.5t7.5-.5q3.5 1 6.5 3.5t3.5 6q.5 3.5-.5 6.5zm38 208q0 16-11 27t-26.5 11q-15.5 0-26.5-11t-11-26.5q0-15.5 11-26.5t26.5-11q15.5 0 26.5 11t11 26z"/></svg>