<svg viewBox="0 0 300 368" xmlns="http://www.w3.org/2000/svg"><path d="M273 146q-22-12-48-12h-45l-37-65q-9-16-25-25.5T83 34H69q-18 0-31 13T25 78v12q0 8 5.5 13.5T44 109q8 0 13.5-5.5T63 90V78q-1-3 1-4.5t5-2.5h14q9 0 16 4.5T110 87l27 47H38q-16 0-27 11T0 172v24q0 16 11 27t26 11h100l-27 47q-4 7-11 11.5T83 296H69q-3 0-5-1.5t-2-4.5v-12q1-8-4.5-13.5T44 259q-8 0-13.5 5.5T25 278v12q0 18 13 31t31 13h14q19 0 35-9.5t25-25.5l37-65h45q26 0 48-12 18-11 24.5-24.5t0-27Q291 157 273 146zm-173 50v-25h118q7 5 7 13t-8 12H100zm-62-25h25v25H38v-25z"/></svg>