<svg viewBox="0 0 300 368" xmlns="http://www.w3.org/2000/svg"><path d="M277 58l-14-12q-13-12-31-12t-31 13l-26 28q-12 13-12 31t12 31l5 5q-23 50-72 72l-5-5q-13-12-31-12t-30 12l-29 27Q0 249 0 267t12 30l12 14q11 11 26 17t31 6q34 0 74-21 37-19 70.5-52.5T279 189q21-39 21-74 0-16-6-30.5T277 58zM81 296q-18 0-30-11l-12-14q-2-2-2-4.5t2-3.5l29-27q2-2 4.5-2t4.5 2l14 14q4 4 9 5t11-1q77-29 109-109 2-5 1-10.5t-5-9.5l-14-14q-2-2-2-4.5t2-5.5l26-28q2-1 4.5-1t4.5 1l13 12q12 13 12 30 0 29-18 63-18 30-46.5 57.5t-60 44.5Q106 297 81 297v-1z"/></svg>