<svg viewBox="0 0 300 368" xmlns="http://www.w3.org/2000/svg"><path d="M295 302l-29-28q23-27 30.5-61t-2-67.5Q285 112 260 87q-6-6-13.5-6t-13 5.5Q228 92 228 100t5 13q18 18 25 42t2.5 48.5Q256 228 240 247l-24-24q8-7 13-17.5t5-21.5q0-17-9.5-30T200 135V53q0-9-7-14.5T178 34q-27 6-52 21T83 91L32 39q-5-5-13-5T5.5 39.5Q0 45 0 53t5 13l263 263q5 5 13 5t13.5-5.5Q300 323 300 315t-5-13zM163 78v92l-53-53q9-12 23-22.5T163 78zm37 241q-2 6-7 10.5t-12 4.5h-3q-27-6-52.5-21T83 278H69q-19 0-34.5-9.5t-25-25Q0 228 0 209v-44q0-8 2-16t8.5-12q6.5-4 14.5-2t11.5 8.5Q40 150 38 157q0 4-1 8v44q1 13 10 22t22 9h23q10 0 16 8 12 18 33 31.5t44 17.5q7 1 11.5 7.5T200 319z"/></svg>