<svg viewBox="0 0 300 368" xmlns="http://www.w3.org/2000/svg"><path d="M150 34q-41 0-75.5 20T20 108.5Q0 143 0 184t20 75.5Q40 294 74.5 314t75.5 20q41 0 75.5-20t54.5-54.5q20-34.5 20-75.5t-20-75.5Q260 74 225.5 54T150 34zm90 217q-8-9-14-19 7-2 10-9t.5-14q-2.5-7-9-10.5T214 197q-1-6-1-13t1-13q2 0 5 1 6-1 11.5-5t6.5-10.5q1-6.5-2-12.5t-9-8q6-10 14-19 23 30 23 67t-23 67zM60 117q8 9 14 19-6 2-9 8t-2 12.5q1 6.5 6.5 10.5t11.5 4h5q1 6 1 13t-1 13q-7-2-13.5 1.5t-9 10.5q-2.5 7 .5 14t10 9q-6 10-14 19-23-30-23-67t23-67zm27 160q14-14 23-32l3 1q7 2 14-1.5t9.5-11q2.5-7.5-1-14.5t-10.5-9l-3-1q3-12 3-25t-3-25l3-1q7-2 10.5-9t1-14.5q-2.5-7.5-9.5-11t-14-1.5l-3 1q-9-18-23-32 28-19 63-19t64 19q-15 14-24 32l-3-1q-7-2-14 1.5t-9.5 11q-2.5 7.5 1 14.5t10.5 9l3 1q-3 12-3 25t3 25l-3 1q-7 2-10.5 9t-1 14.5q2.5 7.5 9.5 11t14 1.5l3-1q9 18 24 32-29 19-64 19t-63-19z"/></svg>