<svg viewBox="0 0 300 368" xmlns="http://www.w3.org/2000/svg"><path d="M283 146q-14-14-46-22-23-5-55-8 6-9 5.5-20T181 76q6-4 14-4.5t13-6.5q5-6 4.5-13.5T206 39q-6-5-14-5-25 3-42 19-17-16-42-19-8 0-14 5t-6.5 12.5Q87 59 92 65t13 6.5q8 .5 14 4.5-6 9-6 20t5 20q-32 3-55 8-32 8-46 22-17 17-17 41.5T17 229q9 8 19.5 12.5T59 246q17 0 32-10 6 37 22 74 5 11 15 17.5t22 6.5q12 0 22-6.5t14-17.5q17-37 23-74 15 10 32 10 12 0 22.5-4.5T283 229q17-17 17-41.5T283 146zm-133 20q15 20 23 30h-46l23-30zM44 202q-6-6-6-14.5t5.5-14.5q5.5-6 21.5-10 20-6 47-9-28 38-38 48-7 7-15.5 7T44 202zm106 95q-1 0-2-2-14-31-19-61h42q-5 30-19 61-1 2-2 2zm106-95q-6 7-14.5 7t-15.5-6q-10-11-38-49 27 3 47 9 16 4 21.5 10t5.5 14.5q0 8.5-6 14.5z"/></svg>