<svg viewBox="0 0 300 368" xmlns="http://www.w3.org/2000/svg"><path d="M234 334H66q-11 0-20.5-5t-15-14.5q-5.5-9.5-6-20T29 274l30-61q7-13 19.5-21t27.5-8h87q15 0 27.5 8t19.5 21l31 61q4 10 3.5 20.5t-6 20q-5.5 9.5-15 14.5t-19.5 5zM106 221q-4 0-7.5 2.5T93 230l-31 61q-1 2 0 4t4 2h168q2 0 3-2t0-4l-31-61q-1-4-5-6t-8-2h-87v-1zm169-56v-62q0-19-9.5-34.5t-25-25Q225 34 206 34H94q-19 0-34.5 9.5t-25 25Q25 84 25 103v62q0 8 5.5 13.5T44 184q8 0 13-5.5t5-13.5v-62q1-13 10-22.5T94 71h112q13 0 22 9.5t9 22.5v62q1 8 6 13.5t13 5.5q8 0 13.5-5.5T275 165z"/></svg>