<svg viewBox="0 0 300 368" xmlns="http://www.w3.org/2000/svg"><path d="M119 271q13 0 22 9.5t9 22.5q0 13-9 22t-22 9q-13 0-22-9t-9-22q0-13 9-22.5t22-9.5zm106 32q0 13 9 22t22 9q13 0 22.5-9t9.5-22q0-13-9.5-22.5T256 271q-13 0-22 9.5t-9 22.5zm56-69H106q-13 0-22-9t-9-22V90q0-23-16.5-39.5T19 34q-8 0-13.5 5.5T0 53q0 8 5.5 13T19 71q8 0 13 5.5T37 90v113q1 18 10 34t25 25.5q16 9.5 34 9.5h175q8 0 13.5-5.5T300 253q0-8-5.5-13.5T281 234zm19-106v25q0 23-16.5 39.5T244 209h-88q-23 0-39.5-16.5T100 153v-25q0-22 14.5-38T150 72v-7q0-13 9-22t22-9h38q13 0 22 9t9 22v7q21 2 35.5 18t14.5 38zm-37 0q0-8-5.5-13.5T244 109h-88q-8 0-13 5.5t-5 13.5v25q0 8 5 13t13 5h88q8 0 13.5-5t4.5-13v-25h1z"/></svg>