<svg viewBox="0 0 300 368" xmlns="http://www.w3.org/2000/svg"><path d="M213 315q-1 8-6 13.5t-13 5.5h-63q-18 0-34-9.5t-25.5-25Q62 284 62 265v-31q-17-3-31.5-16.5T8 182q-8-22-8-48 0-8 5.5-13.5T19 115q8 0 13 5.5t5 13.5q1 17 5.5 31.5T54 188q7 8 15 8h25q8 0 13.5 5.5T113 214q0 7-3.5 12t-9.5 7v32q0 13 9 22t22 9h63q8 0 13 5.5t5 13.5h1zm87-19v19q0 8-5.5 13.5T281 334q-8 0-13-5L5 66q-5-5-5-13t5.5-13.5Q11 34 19 34t13 5l5 6q15-11 32-11h157q13 1 24.5 14.5t18 36Q275 107 275 134v126q11 4 18 14t7 22zM175 134q0-35 11-62H69q-2-1-4 0l119 120q-9-26-9-58zm63 0q0-18-4-31t-9-13q-5 0-8.5 13t-3.5 31q0 18 3.5 31t8.5 13q5 0 8.5-13t3.5-31h1z"/></svg>