<svg viewBox="0 0 300 368" xmlns="http://www.w3.org/2000/svg"><path d="M194 334h-88q-18 0-34-9.5t-25-25Q38 284 37 265V103q1-19 10-34.5t25-25Q88 34 106 34h88q18 0 34 9.5t25 25q9 15.5 9 34.5v162q0 19-9 34.5t-25 25q-16 9.5-34 9.5zM106 71q-13 1-22 10t-9 22v162q0 13 9 22t22 9h88q13 0 22-9t9-22V103q0-13-9-22.5T194 71h-88zm19 50q0 11 7.5 18t17.5 7q10 0 17.5-7t7.5-17.5q0-10.5-7.5-17.5T150 96.5q-10-.5-17.5 7T125 122v-1zm25 157q-23 0-39.5-16.5t-16.5-40q0-23.5 16.5-40T150 165q23 0 39.5 16.5t16.5 40q0 23.5-16.5 40T150 278zm0-75q-8 0-13.5 5.5t-5.5 13q0 7.5 5.5 13T150 240q8 0 13.5-5.5t5.5-13q0-7.5-5.5-13T150 203z"/></svg>