<svg viewBox="0 0 300 368" xmlns="http://www.w3.org/2000/svg"><path d="M284 147q-15-14-35-13t-33 16l-31 33q-13-11-31-11H56q-23 0-39.5 16.5T0 228v50q0 23 16.5 39.5T56 334h68q28 0 54-11.5t45-33.5l65-74q13-15 12-35t-16-33zm-24 43l-65 74q-14 16-32.5 24t-38.5 8H56q-8 0-13.5-5T37 278v-50q1-8 6-13.5t13-5.5h98q4 0 6.5 2.5t2 5.5q-.5 3-2 5.5T156 225l-65 9q-8 1-12.5 7.5t-3.5 14q1 7.5 7.5 12T96 271l65-9q15-2 26-13t13-26l43-48q3-3 7.5-3.5t8 2.5q3.5 3 4 8t-2.5 8zM63 147h75q15 0 26-11t11-27V71q0-15-11-26t-27-11H63q-16 0-27 11T25 72v37q0 16 11 26.5T62 146l1 1zm31-88h12q8 0 13.5 5.5T125 78q0 8-5.5 13T106 96H94q-8 0-13.5-5T75 78q0-8 5.5-13.5T94 59z"/></svg>