<svg viewBox="0 0 300 368" xmlns="http://www.w3.org/2000/svg"><path d="M238 67V53q-1-8-6-13.5T219 34q-8 0-13.5 5.5T200 53v6h-31v-6q0-8-5.5-13.5T150 34q-8 0-13.5 5.5T131 53v6h-31v-6q0-8-5.5-13.5T81 34q-8 0-13 5.5T63 53v14q-18 8-28 24.5T25 128v137q0 19 9.5 34.5t25 25Q75 334 94 334h112q19 0 34.5-9.5t25-25Q275 284 275 265V128q0-20-10-36.5T237 67h1zm0 198q0 13-9.5 22t-22.5 9H94q-13 0-22-9t-9-22V128q0-13 9-22t22-9h112q13-1 22 8.5t9 22.5l1 137zm-25-125q0 8-5.5 13.5T194 159h-88q-8 0-13-5.5T88 140q0-8 5-13.5t13-5.5h88q8 0 13.5 5.5T213 140zm-44 63q0 8-5.5 13.5T150 221h-44q-8 1-13-4.5T88 203q0-8 5-13.5t13-5.5h44q8 0 13.5 5.5T169 203z"/></svg>