<svg viewBox="0 0 300 368" xmlns="http://www.w3.org/2000/svg"><path d="M265 69q-20-19-45-28t-48-5.5Q149 39 133 54q-50 51-58 145-1 14 6 28l-39 39q-7-7-17-7t-17.5 7.5Q0 274 0 284t7.5 17.5Q15 309 25 309q0 10 7.5 17.5T50 334q10 0 17.5-7.5T75 309q0-10-7-17l39-39q7 4 13 5t11 1h4q39-3 74-15 43-16 71-43 15-16 18.5-39t-5.5-48q-9-25-29-45h1zM132 221q-8 1-14-5t-5-14q2-29 9-54 9 21 26 38t37 26q-25 7-53 9zm121-47q-12 12-34 9-24-3-44-24-13-12-19.5-27t-5.5-29q1-14 10-23t25-9q13 0 27 6.5T238 96q12 12 18.5 27.5t5.5 29q-1 13.5-9 21.5zm-35-58q6 7 7 14.5t-3.5 12Q217 147 209 146t-14-7q-6-6-7-14t3.5-12.5q4.5-4.5 12-3.5t13.5 7h1z"/></svg>