<svg viewBox="0 0 300.0024 368" xmlns="http://www.w3.org/2000/svg"><path d="M62 104q0-19 26-50 7-8 18-8t19 8q25 31 25 49.5T137 134q-13 12-31 12t-31-12q-13-12-13-30zm226 111l-65 74q-19 22-45 33.5T124 334H56q-23 0-39.5-16.5T0 278v-50q0-24 16.5-40.5T56 171h98q18 0 31 12l31-33q13-15 33-16t35 12.5q15 13.5 16 33.5t-12 35zm-29-41q-4-3-8.5-2.5T243 175l-43 48q-2 15-13 26t-26 13l-65 9q-7 1-13.5-3.5t-7.5-12q-1-7.5 3.5-14T91 234l65-9q3 0 5-2.5t2-5.5q0-3-2.5-5.5T154 209H56q-7 0-12.5 5.5T38 228v50q0 8 5.5 13.5T56 297h68q20 0 38.5-8.5T195 264l65-74q3-3 2.5-8t-3.5-8z"/></svg>