<svg viewBox="0 0 300 368" xmlns="http://www.w3.org/2000/svg"><path d="M175 134q0 10 7.5 17.5T200 159q10 0 17.5-7.5T225 134q0-10-7.5-17.5T200 109q-10 0-17.5 7.5T175 134zm-87 0q0 10 7 17.5t17.5 7.5q10.5 0 17.5-7.5t7.5-17.5q.5-10-7-17.5t-18-7.5q-10.5 0-17.5 7.5T88 134zm-13 87q0 11 7.5 18t17.5 7q10 0 17.5-7t7.5-17.5q0-10.5-7.5-17.5t-17.5-7.5q-10-.5-17.5 7T75 222v-1zm225-50q-3-37-23-68t-52-49q-32-18-69-20-40-1-76 18t-57 54Q2 141 1 181.5t19 76q20 35.5 55 56t76 20.5l13-1q7 0 12-5.5t5-12.5l-1-43q0-11 6-20t16-13.5q10-4.5 21-2.5t18 10l2 1q5 6 12.5 8t14.5.5q7-1.5 13-6.5t8-12q13-32 9-66zm-40 42q-17-13-37.5-14.5t-39.5 8q-19 9.5-29.5 27T143 272v24q-30-2-54-18t-37.5-42Q38 210 39 180t16-55q15-25 40.5-39T151 71l4 1q28 1 51.5 14.5T245 123q15 23 18 51 2 20-3 39z"/></svg>