<svg viewBox="0 0 300 368" xmlns="http://www.w3.org/2000/svg"><path d="M219 34H81q-18 0-34 9.5t-25.5 25Q12 84 13 103v162q0 19 9 34.5t25 25q16 9.5 34 9.5h150q22 0 38.5-15t17.5-37V103q1-19-8.5-34.5t-25.5-25Q237 34 219 34zm31 69v122q-10-3-19-4h-74l19-31h43q3 0 5-3t0-6l-21-34 21-35q2-3 0-6t-5-3h-43l-19-32h62q13 0 22 9.5t9 22.5zm-138 44l19-32h38l19 32-19 31h-38l-19-31zm4 31H93l11-19 12 19zm-12-43l-11-20h23l-12 20zm34-32l12-19 12 19h-24zm46 12h23l-11 20-12-20zm12 44l11 19h-23l12-19zm-34 31l-12 20-12-20h24zM81 71h62l-19 32H81q-3 0-5 3t0 6l21 35-21 34q-2 3 0 6t5 3h43l19 31H50V103q0-13 9-22.5T81 71zm150 225H81q-13 0-22-9t-9-22v-6h181q8 0 13.5 5.5T250 278q0 8-5.5 13.5T231 296z"/></svg>