<svg viewBox="0 0 300.0022 368" xmlns="http://www.w3.org/2000/svg"><path d="M300.002 179q-2-16-12.5-27.5t-26.5-15.5q2-9 1-20-2-18-17-31t-34-13h-10q-7-12-16.5-21.5t-21.5-14.5q-12-5-24 2-6 3-9.5 9t-4.5 12q-1 6-3 12h-33q-19 0-34 13.5t-17 31.5q-1 10 2 19-16 4-27 16t-13 28q-1 10 2.5 20.5t10.5 18.5q12 13 30 16l3 6q8 15 22 22 12 7 30 9 11 1 33 1v24h-25q-8 0-13.5 5.5t-5 13.5q.5 8 5.5 13.5t13 5.5h88q8 0 13-5.5t5-13.5q0-8-5-13t-13-5h-25v-25q22 0 33-1 18-2 30-9 14-7 22-22l3-6q18-3 30-16 7-8 10.5-18.5t2.5-20.5zm-262 4q0-5 4-8.5t10-3.5h92q8 0 13.5-5t5.5-13q0-8-5.5-13.5t-13.5-5.5h-57q-5 0-9-4t-3-9q1-5 5-8.5t9-3.5h45q11 0 16.5-9t8.5-22q8 9 13 20 2 5 7 8t10 3h22q5 0 9 3.5t5 7.5q1 7-1.5 10t-9 4.5q-6.5 1.5-11 7.5t-3.5 13q1 7 6.5 11.5t12.5 4.5h29q6 0 10 3.5t4.5 8.5q.5 5-3 9.5t-9.5 4.5h-200q-6 0-9.5-4.5t-2.5-9.5z"/></svg>