<svg viewBox="0 0 300 368" xmlns="http://www.w3.org/2000/svg"><path d="M150 34q-41 0-75.5 20T20 108.5Q0 143 0 184t20 75.5Q40 294 74.5 314t75.5 20q41 0 75.5-20t54.5-54.5q20-34.5 20-75.5t-20-75.5Q260 74 225.5 54T150 34zm108 117q-41-25-89-42-36-14-75-23 26-15 56-15 38 0 67.5 22.5T258 151zm-216 3q5-19 17-36 17 3 36 7-30 14-53 29zm108 143q-27 0-51-12.5T59 250q-16-22-20-48 19-16 51-32-2 4-2 8 0 8 5.5 13.5t13 5.5q7.5 0 13-5.5t5.5-13q0-7.5-4-12.5t-11-7q22-9 43-16 19 6 40 16-7 0-12.5 5.5T175 178q0 8 5.5 13.5T194 197q8 0 13.5-5.5T213 179q0-7-4-12 29 14 53 31-4 28-19.5 50.5t-40 35.5Q178 297 150 297zm60-47q-6 9-16 9-6 0-10-3-17-9-34-9-11 0-24 4l-10 5q-6 4-13.5 2.5t-12-8q-4.5-6.5-2.5-14t8.5-12Q103 220 113 216q19-7 37-7t37 7q10 4 17 8.5t8.5 12Q214 244 210 251v-1z"/></svg>