<svg viewBox="0 0 300 368" xmlns="http://www.w3.org/2000/svg"><path d="M231 34H69q-19 0-34.5 9.5t-25 25Q0 84 0 103v162q0 19 9.5 34.5t25 25Q50 334 69 334h162q19 0 34.5-9.5t25-25Q300 284 300 265V103q0-19-9.5-34.5t-25-25Q250 34 231 34zm32 231q0 13-9.5 22t-22.5 9H69q-13 0-22-9t-9-22V103q0-13 9-22.5T69 71h162q13 0 22.5 9.5T263 103v162zm-38-68q1 17-6.5 32.5T197 255q-21 16-47 17-11 0-22-4-23-7-38-27t-15-45v-23q0-15 6-29.5T98.5 118q11.5-11 25.5-16.5t29-5q15 .5 29 7t24 17.5q6 6 5.5 14t-6.5 13q-6 5-13.5 4.5T179 147q-11-12-27-12.5T124.5 145Q113 156 113 173v23q0 13 7 23t19 13q9 3 18 1.5t17.5-8Q183 219 186 209h-17q-8 0-13.5-5.5T150 190q0-8 5.5-13t13.5-5h31q10 0 17.5 7t7.5 18z"/></svg>