<svg viewBox="0 0 300 368" xmlns="http://www.w3.org/2000/svg"><path d="M300 183q0-41-20.5-75t-55-54q-34.5-20-75-20t-75 20Q40 74 20 108.5T0 184q0 41 20 75.5T74.5 314q34.5 20 75.5 20 26 0 50-9 7-2 10.5-9t1-14.5Q209 294 202 291t-14-1q-19 6-38 6-28 0-52.5-13T57 247q-16-23-19-50v-1q0-11 7-18t16.5-7q9.5 0 17 5.5T88 189l1 7q0 4 2 9 7 18 23 29.5t36 11.5q15 0 28-6.5t22-18.5v32q0 8 5.5 13t13.5 5q8 0 13.5-5t5.5-13v-69q0-5 3.5-9t8.5-4q5 0 9 4t4 9v94q0 8 5 13t13 5q8 0 13.5-5t5.5-13v-95zm-150 26q-9 0-15.5-5t-8.5-13l-1-7q0-10 7.5-17.5T150 159q10 0 17.5 7.5T175 184q0 10-7.5 17.5T150 209zm100-75q-13 0-24.5 6.5T207 158q-7-16-22.5-26.5T150 121q-15 0-28 7t-22 18q-16-12-38-12-7 0-14 2 14-29 41.5-46.5t60.5-18q33-.5 60 17t41 45.5h-1z"/></svg>