<svg viewBox="0 0 300 368" xmlns="http://www.w3.org/2000/svg"><path d="M150 334q-41 0-75.5-20T20 259.5Q0 225 0 184q2-57 33-95 29-35 73-47.5t88 0Q238 54 267 89q31 38 33 95 0 41-20 75.5T225.5 314Q191 334 150 334zm0-263q-31 1-56.5 16T53 127.5Q38 153 38 184q1 43 25 72 21 26 54 35t66 0q33-9 54-35 24-29 26-72-1-31-16-56.5T206.5 87Q181 72 150 71zm60 138q-29 11-60 13-31-2-60-13-4 0-7.5 1t-5.5 4.5q-2 3.5-2 7t2 6.5q11 20 30.5 31.5T150 271q23 0 42.5-11.5T223 228q2-3 2-6.5t-2-7q-2-3.5-5.5-5t-7.5-.5zM99 181l17 12q2 2 5 2t5.5-1.5q2.5-1.5 3.5-4.5t0-6l-6-20 17-12q2-2 3-5t0-5.5q-1-2.5-3.5-4.5t-5.5-2h-21l-6-20q-1-3-3.5-4.5T99 108q-3 0-5.5 1.5T91 114l-7 20H63q-3 0-5.5 1.5T54 140q-1 3 0 6t4 5l17 12-7 20q-1 3 0 6t3.5 4.5Q74 195 77 195t5-2l17-12zm101 0l16 12q3 2 6 2t5.5-1.5q2.5-1.5 3-4.5t.5-6l-7-20 17-12q2-2 3-5t0-6q-1-3-3-4.5t-5-1.5h-21l-7-20q-1-3-3-4.5t-5-1.5q-3 0-5.5 1.5T191 114l-7 20h-21q-3 0-5 1.5t-3 4.5q-1 3 0 6t3 5l17 12-6 20q-1 3-.5 6t3 4.5q2.5 1.5 5.5 1.5t6-2l17-12z"/></svg>