<svg viewBox="0 0 300 368" xmlns="http://www.w3.org/2000/svg"><path d="M183 311q-10 11-23.5 17t-28.5 6H69q-19 0-34.5-9.5t-25-25Q0 284 0 265V140q0-8 5.5-13.5T19 121q8 0 13.5 5.5T38 140v6h6q8 0 13 5.5t5.5 13.5q.5 8-5 13.5T44 184h-6v81q0 13 9 22t22 9h62q14 0 24-10 5-6 12.5-6.5T181 284q6 5 6.5 13t-4.5 14zm117-46q0 18-12 30l7 7q5 5 5 13t-5.5 13.5Q289 334 281 334t-13-5L5 66q-5-5-5-13t5.5-13.5Q11 34 19 34t13 5l3 4q16-9 34-9h62q19 0 34.5 9.5t25 25Q200 84 200 103v104l61 62q2-2 1-4V146q-10-2-17.5-11t-7.5-20V86l-19-20q-6-5-6-13t5.5-13.5Q223 34 231 34t14 5l31 32q11 11 17.5 25.5T300 127v138zM64 72l99 98v-67q0-13-9.5-22.5T131 71l-67 1z"/></svg>