<svg viewBox="0 0 300 368" xmlns="http://www.w3.org/2000/svg"><path d="M256 78q6 5 6 13t-6 13l-35 36q-6 5-13.5 5t-13.5-5q-12-12-28-16.5t-32 0q-16 4.5-28 16.5t-16.5 28q-4.5 16 0 32t16.5 28q5 6 5 13.5t-5 13.5l-36 35q-5 6-13 6t-13.5-5.5Q38 285 38 277t6-13l23-24q-11-17-15-37H19q-8 0-13.5-5.5T0 184q0-8 5.5-13.5T19 165h33q4-20 15-37l-23-24q-6-5-6-13t5.5-13.5Q49 72 57 72t13 6l24 23q17-11 37-15V53q0-8 5.5-13.5T150 34q8 0 13.5 5.5T169 53v33q20 4 37 15l24-23q5-6 13-6t13 6zm-62 218q-8 0-13.5 5.5T175 315q0 8 5.5 13.5T194 334q8 0 13.5-5.5t5-13.5q-.5-8-5.5-13.5t-13-4.5v-1zm87-143q8 0 13.5-5.5T300 134q0-8-5.5-13.5T281 115q-8 0-13 5.5t-5 13.5q0 8 5 13.5t13 5.5zM106 296q-8 0-13.5 5.5T87 315q0 8 5.5 13.5T106 334q8 0 13.5-5.5T125 315q0-8-5.5-13.5T106 297v-1zm175 0q-8 0-13 5.5t-5 13.5q0 8 5 13.5t13 5.5q8 0 13.5-5.5T300 315q0-8-5.5-13t-13.5-5v-1zm0-87q-8 0-13.5 5.5t-5 13.5q.5 8 5.5 13.5t13 5.5q8 0 13.5-5.5T300 228q0-8-5.5-13.5T281 209zm-43 44q-8 0-13.5 5.5t-5.5 13q0 7.5 5.5 13t13 5.5q7.5 0 13-5.5t5.5-13q0-7.5-5.5-13T238 253zm-88 0q-8 0-13.5 5.5t-5.5 13q0 7.5 5.5 13T150 290q8 0 13.5-5.5t5.5-13q0-7.5-5.5-13T150 253zm44-44q-8 0-13.5 5.5T175 228q0 8 5.5 13.5t13.5 5q8-.5 13.5-5.5t5-13q-.5-8-5.5-13.5t-13-5.5zm44-44q-8 0-13.5 5.5T219 184q0 8 5.5 13.5t13 5.5q7.5 0 13-5.5T256 184q0-8-5.5-13.5T238 165z"/></svg>