<svg viewBox="0 0 300 368" xmlns="http://www.w3.org/2000/svg"><path d="M247 197q7-13 .5-25.5T228 146q-15-16-33-26-22-11-45-11t-45 11q-18 10-33 26-13 13-19.5 25.5t0 25Q59 209 72 222q15 16 33 26 22 11 45 11t45-11q18-10 33-26 13-13 19-25zm-97 24q-20 0-40-14-13-10-21-23 8-13 21-23 20-14 40-14.5t40 14.5q13 10 21 23-8 13-21 23-20 14-40 14zm25-37q0 10-7.5 17.5T150 209q-10 0-17.5-7.5T125 184q0-10 7.5-17.5T150 159q10 0 17.5 7.5T175 184zM5 66q-5-5-5-13t5.5-13.5Q11 34 18.5 34T32 40l26 26 11-10q5-5 11.5-2.5T87 63v48q0 4-3 7.5t-8 3.5H29q-7 0-10-7t2-12l11-10L5 66zm208 45V63q0-7 6.5-9.5T231 56l10 10 27-26q5-6 13-6t13.5 5.5Q300 45 300 53t-6 13l-26 27 10 10q5 5 2.5 11.5T271 121h-48q-4 0-7.5-3t-3.5-7h1zM87 257v48q0 7-6.5 9.5T69 312l-11-10-26 26q-6 6-13.5 6t-13-5.5Q0 323 0 315t5-13l27-27-11-10q-5-5-2-11.5t10-6.5h47q5 0 8 3t3 7zm207 45q6 5 6 13t-5.5 13.5Q289 334 281 334t-13-6l-27-26-10 10q-5 5-12 2.5t-7-9.5v-48q0-4 3.5-7t7.5-3h48q7 0 9.5 6.5T278 265l-10 10 26 27z"/></svg>