<svg viewBox="0 0 300 368" xmlns="http://www.w3.org/2000/svg"><path d="M281 34q-11 0-20.5 5T245 53l-73 107q-11-1-21.5 3.5T133 177l-8 11-1-4q-2-11-10.5-18T94 159H41q-11 0-19.5 7T11 183l-1 6q-5 21-7 33-3 21-3 44 0 18 9.5 34t25 25q15.5 9 34.5 9h13q22 0 41.5-10t32.5-28l49-67q10-16 7-34-2-9-7-17l70-103q3-4 6-4 8 0 13.5-5t5.5-13q0-8-5.5-13.5T281 34zM174 207l-49 67q-7 11-18.5 16.5T82 296H69q-13 0-22-9t-10-22q0-19 3-37 2-11 6-31h43l8 32q2 7 6.5 11.5T114 246q6 1 12-1t10-7l27-39q2-2 4.5-2.5t4.5 1q2 1.5 2.5 4.5t-.5 5z"/></svg>