<svg viewBox="0 0 300 368" xmlns="http://www.w3.org/2000/svg"><path d="M300 196q0-30-15-56t-41-41q-26-15-56-15h-10q-10-16-28-22v-9q0-8-5.5-13.5T131 34q-8 0-13.5 5.5T112 53v9q-16 6-26.5 20.5T75 115v88q0 8 5.5 13.5T94 222h75q8-1 13.5-6t5.5-13v-82q20 0 37 10.5t27 27.5q10 17 10 37 1 28-17 49t-45 25v-5q0-8-5.5-13.5T181 246H81q-8 0-13 5.5T63 265v6H31q-8 1-13 6t-5 13q0 8 5 13.5t13 5.5h7v6q0 8 5 13.5t13 5.5q8 0 13.5-5.5T75 315v-6h113v6q-1 8 4.5 13.5T206 334q8 0 13.5-5.5T225 315v-12q33-12 54-41t21-65v-1zm-150-12h-37v-69q0-8 5-13.5t13-5.5q8 0 13.5 5.5T150 115v69z"/></svg>