<svg viewBox="0 0 300 368" xmlns="http://www.w3.org/2000/svg"><path d="M178 334q-14 0-25-8l-28-24-29 23q-11 9-24.5 9T47 326.5Q36 319 32 306t0-26l9-29-24-18q-11-8-15-20.5t0-25Q6 175 17 167t24-8h34l11-34q4-13 15-20.5t24-7.5q13 0 24 7.5t15 20.5l11 34h34q13 0 24 8t15 20.5q4 12.5 0 25T233 233l-24 18 8 30q4 13-.5 25.5t-15 20Q191 334 178 334zm-53-75q7 0 12 4l39 34q2 0 4-1.5t1-3.5l-12-44q-1-6 1-11t6-9l35-25q2-2 1-4t-3-3h-47q-6 1-11-3t-7-9l-16-47q0-3-3-3t-3 3l-16 47q-2 5-7 9t-11 3H41q-2 1-3 3t1 4l35 25q4 4 6 9.5t0 11.5l-12 42q-1 3 1 5t4 0l40-33q5-4 12-4zm125-136l19 14q2 2 5.5 2t6-2q2.5-2 3.5-5t0-6l-7-22 19-14q2-2 3.5-5t0-6.5q-1.5-3.5-4-5.5t-5.5-2h-23l-7-21q-1-4-4-5.5t-6-1.5q-3 0-6 1.5t-4 5.5l-7 21h-23q-3 0-5.5 2t-3.5 5.5q-1 3.5 0 6.5t3 5l19 14-7 22q-1 3 0 6t3.5 5q2.5 2 6 2t6.5-2l18-14z"/></svg>