<svg viewBox="0 0 300.0058 368" xmlns="http://www.w3.org/2000/svg"><path d="M298.006 100q3-7 2-14.5t-5.5-13.5q-4.5-6-11.5-9.5t-14-3.5h-32q2-5 .5-10.5t-5.5-9.5q-4-4-9.5-4.5t-11 1.5q-5.5 2-8.5 6.5t-3 10.5q0 2-2 4t-4 2h-88q-2 0-4-2t-2-4q0-6-3-10.5t-8.5-6.5q-5.5-2-11-1.5t-9.5 4.5q-4 4-5.5 9.5t.5 10.5h-32q-7 0-14 3.5T5.506 72q-4.5 6-5.5 13.5t2 14.5q6 22 20 39l41 168q1 11 10 19t21 8h112q12 0 21-8t10-19l41-168q14-17 20-39zm-91 172l-38-1v-56q0-20 13-35 5 3 11 3.5t11-2.5q5-3 7-8.5t1-11.5q6-2 13-2h9l-27 113zm-114 0l-27-113h9q7 0 13 2-1 6 1 11.5t7 8.5q5 3 11 2.5t11-3.5q13 15 13 35v56l-38 1zm114-176q16 11 30 25h-12q-22 1-42 10.5t-33 27.5q-13-18-33-27.5t-42-10.5h-12q14-14 30-25h114z"/></svg>