<svg viewBox="0 0 300 368" xmlns="http://www.w3.org/2000/svg"><path d="M219 59H81q-22 0-40.5 11T11 99.5Q0 118 0 140v125q0 18 13 31t31 13h212q18 0 31-13t13-31V140q0-22-11-40.5T259.5 70Q241 59 219 59zM38 265V140q0-20 13-31.5T81.5 97q17.5 0 30 11.5T125 140v125q0 3-2 4.5t-4 1.5H44q-3 0-4.5-1.5T38 265zm225 0q0 3-2 4.5t-5 1.5h-94l1-6v-81h37v6q0 12 9.5 16.5t18.5 0q9-4.5 9-16.5v-25q1-8-4.5-13t-13.5-5h-56v-7q0-24-13-44h69q18 0 31 13t13 31v125zM95 152q5 5 5 13t-6 13q-8 9-17.5 5.5t-13-13.5Q60 160 68 152q5-5 13-5t14 5z"/></svg>