<svg viewBox="0 0 300 368" xmlns="http://www.w3.org/2000/svg"><path d="M281 334q-8 0-13-5.5t-5-13.5V53q0-8 5-13.5t13-5.5q8 0 13.5 5.5T300 53v262q0 8-5.5 13.5T281 334zM19 71q8 0 13.5-5T38 53q0-8-5.5-13.5T19 34q-8 0-13.5 5.5T0 53q0 8 5.5 13T19 71zm62 0q8 0 13.5-5t5.5-13q0-8-5.5-13.5T81 34q-8 0-13 5.5T63 53q0 8 5 13t13 5zm0 263q8 0 13.5-5.5T100 315q0-8-5.5-13.5T81 296q-8 0-13 5.5T63 315q0 8 5 13.5t13 5.5zM219 71q8 0 13.5-5t5.5-13q0-8-5.5-13.5T219 34q-8 0-13.5 5.5T200 53q0 8 5.5 13t13.5 5zm0 263q8 0 13.5-5.5T238 315q0-8-5.5-13.5T219 296q-8 0-13.5 5.5T200 315q0 8 5.5 13.5T219 334zm-200 0q8 0 13.5-5.5T38 315q0-8-5.5-13.5T19 296q-8 0-13.5 5.5T0 315q0 8 5.5 13.5T19 334zm0-63q8 0 13.5-5t5.5-13q0-8-5.5-13.5T19 234q-8 0-13.5 5.5T0 253q0 8 5.5 13t13.5 5zm0-68q8 0 13.5-5.5T38 184q0-8-5.5-13.5T19 165q-8 0-13.5 5.5T0 184q0 8 5.5 13.5T19 203zm0-69q8 0 13.5-5.5T38 115q0-8-5.5-13.5T19 96q-8 0-13.5 5.5T0 115q0 8 5.5 13.5T19 134zm131-63q8 0 13.5-5t5.5-13q0-8-5.5-13.5T150 34q-8 0-13.5 5.5T131 53q0 8 5.5 13t13.5 5zm0 263q8 0 13.5-5.5T169 315q0-8-5.5-13.5T150 296q-8 0-13.5 5.5T131 315q0 8 5.5 13.5T150 334zm0-63q8 0 13.5-5t5.5-13q0-8-5.5-13.5T150 234q-8 0-13.5 5.5T131 253q0 8 5.5 13t13.5 5zm0-68q8 0 13.5-5.5T169 184q0-8-5.5-13.5T150 165q-8 0-13.5 5.5T131 184q0 8 5.5 13.5T150 203zm0-69q8 0 13.5-5.5T169 115q0-8-5.5-13.5T150 96q-8 0-13.5 5.5T131 115q0 8 5.5 13.5T150 134zm88 50q0-8-5.5-13.5T219 165q-8 0-13.5 5.5T200 184q0 8 5.5 13.5T219 203q8 0 13.5-5.5T238 184zm-138 0q0-8-5.5-13.5T81 165q-8 0-13 5.5T63 184q0 8 5 13.5t13 5.5q8 0 13.5-5.5T100 184z"/></svg>