<svg viewBox="0 0 300 368" xmlns="http://www.w3.org/2000/svg"><path d="M281 271h-92q-6-13-20-20v-42h95q10 0 16.5-7t7.5-16v-15q0-10-7.5-17t-18.5-7V90q0-23-16-39.5T206 34H94q-24 0-40 16.5T37 90v56q-10 0-17 7.5T13 172v14q0 9 6.5 16t16.5 7h95v42q-14 7-20 20H19q-8 0-13.5 5.5T0 290q0 8 5.5 13.5T19 309h92q5 11 15.5 18t23.5 7q13 0 23.5-7t15.5-18h92q8 0 13.5-5.5T300 290q0-8-5.5-13.5T281 271zM112 155l-4-4q-4-4-10-4H75V90q0-8 5.5-13.5T94 71h112q8 0 13.5 5.5T225 90v56h-23q-6 1-10 5l-4 4q-3 4-9 4h-58q-6 0-9-4z"/></svg>