<svg viewBox="0 0 300 368" xmlns="http://www.w3.org/2000/svg"><path d="M231 334H69q-19 0-34.5-9.5t-25-25Q0 284 0 265V103q0-19 9.5-34.5t25-25Q50 34 69 34h162q19 0 34.5 9.5t25 25Q300 84 300 103v162q0 19-9.5 34.5t-25 25Q250 334 231 334zM69 71q-13 0-22 9.5T38 103v162q0 13 9 22t22 9h162q13 0 22-9t9-22V103q1-13-8.5-22.5T231 71H69zm144 182q0-8-5.5-13.5T194 234h-57l17-10q18-9 27-15 14-11 22-22 9-14 9-30.5t-8-30q-8-13.5-22.5-21.5T150 96.5q-17-.5-31.5 8t-22.5 23Q88 142 88 159q0 8 5 13.5t13 5.5q8 0 13.5-5.5T125 159q0-10 7.5-17.5T150 134q10 0 17.5 6.5T175 156q0 9-11 18-7 6-28 17-15 9-22 13-12 8-18.5 15.5T88 236q-1 9 2.5 17.5t11 13Q109 271 118 271h76q8 0 13.5-5t5.5-13z"/></svg>