<svg viewBox="0 0 300 368" xmlns="http://www.w3.org/2000/svg"><path d="M231 34H69q-19 0-34.5 9.5t-25 25Q0 84 0 103v162q0 19 9.5 34.5t25 25Q50 334 69 334h162q19 0 34.5-9.5t25-25Q300 284 300 265V103q0-19-9.5-34.5t-25-25Q250 34 231 34zm32 231q0 13-9.5 22t-22.5 9H69q-13 0-22.5-9T37 265V103q1-13 10-22t22-9h162q13-1 22 8.5t9 22.5v162h1zm-25-125q0 8-5.5 13.5T219 159h-94v6q0 8-5.5 13.5T106 184q-8 0-13.5-5.5T87 165v-6h-6q-8 0-13-5.5T63 140q0-8 5-13t13-6h7v-6q0-8 5-13.5t13-5.5q8 0 13.5 5.5T125 115v6h94q8 1 13.5 6t5.5 13zm0 88q0 8-5.5 13.5T219 247h-6v6q0 8-5.5 13t-13.5 5q-8 0-13.5-5t-5.5-13v-7H81q-8 0-13.5-5T62 228q0-8 5.5-13.5T81 209h94v-6q0-8 5.5-13.5T194 184q8 0 13 5.5t6 13.5v6h6q8 0 13 5.5t6 13.5z"/></svg>