<svg viewBox="0 0 300 368" xmlns="http://www.w3.org/2000/svg"><path d="M288 190q-1 8-6 13.5t-13 5.5h-36q-12 0-22-5.5T195 188l-15-26-22 55 32 18q11 6 16.5 16.5T212 274v41q1 8-4.5 13.5T194 334q-8 0-13.5-5.5T175 315v-41q0-4-3-6l-51-29q-14-8-19-23.5t1-30.5l16-39H97q-4 1-6 4l-18 36q-3 7-10.5 9.5t-14.5-1q-7-3.5-9.5-11T39 169l19-36q5-11 15.5-17.5T97 109h70q12 0 22 5.5t15 15.5l24 38q1 4 5 3h36q8 0 13.5 5.5T288 190zm-187 55q-8-3-15 0t-10 10q-1 4-5 4H44q-8 0-13.5 5.5T25 278q0 8 5.5 13t13.5 5h27q13 1 24-7t16-20q3-7 0-14t-10-10zm80-149q13 0 22-9t9.5-22q.5-13-9-22T181 34q-13 0-22 9t-9 22q0 13 9 22.5t22 8.5z"/></svg>