<svg viewBox="0 0 300 368" xmlns="http://www.w3.org/2000/svg"><path d="M275 258V134q0-27-6.5-49.5t-18-36Q239 35 226 34H69q-19 0-35 13.5t-25 36Q0 106 0 133t8 49q8 22 22.5 35.5T63 234v31q0 19 9 34.5t25 25q16 9.5 34 9.5h130q16 0 27.5-11.5T300 295q0-13-7-22.5T275 258zM225 90q5 0 8.5 13t4 31q.5 18-3.5 31t-9 13q-5 0-8.5-13t-3.5-31q0-18 3.5-31t8.5-13zM38 134q0-17 4.5-31.5t11.5-23Q61 71 69 72h117q-11 27-11 62t11 62H69q-8 0-15-8t-11.5-22.5Q38 151 38 134zm223 162H131q-13 0-22-9t-9-22v-31h126q6 0 12-3v20q-2 13 3.5 24.5T260 292q3 1 3 3t-2 2v-1z"/></svg>