<svg viewBox="0 0 300 368" xmlns="http://www.w3.org/2000/svg"><path d="M100 121h181q8 0 13.5-5t5.5-13q0-8-5.5-13.5T281 84H100q-8 0-13.5 5.5T81 103q0 8 5.5 13.5T100 122v-1zm181 50H100q-8 0-13.5 5.5T81 190q0 8 5.5 13.5T100 209h181q8 0 13.5-5.5T300 190q0-8-5.5-13.5T281 171zm0 88H100q-8 0-13.5 5.5T81 278q0 8 5.5 13t13.5 5h181q8 0 13.5-5t5.5-13q0-8-5.5-13.5T281 259zM0 103q0 13 9 22t22 9q13 0 22.5-9t9.5-22q0-13-9.5-22.5t-22.5-9Q18 72 9 81t-9 22zm0 81q0 13 9 22t22 9q13 0 22-9t9.5-22q.5-13-9-22T31 153q-13 0-22 9t-9 22zm0 87q0 13 9 22.5t22 9.5q13 0 22.5-9.5t9.5-22q0-12.5-9.5-22T31 240q-13 0-22 9.5T0 272v-1z"/></svg>