<svg viewBox="0 0 300 368" xmlns="http://www.w3.org/2000/svg"><path d="M150 234q-21 0-35.5-14.5T100 184q0-21 14.5-35.5T150 134q21 0 35.5 14.5T200 184q0 21-14.5 35.5T150 234zM69 121q-8 1-13.5 6T50 140q0 8 5.5 13.5T69 159q8 0 13.5-5.5T88 140q0-8-5.5-13.5T69 121zm144 32q-1 8 4.5 13.5t13.5 5q8-.5 13.5-5.5t5.5-13q0-8-5.5-13.5T231 134q-8 0-13.5 5.5T212 153h1zM69 196q-8 0-13.5 5.5T50 215q0 8 5.5 13.5T69 234q8 0 13.5-5.5T88 215q0-8-5.5-13.5T69 196zm144 32q-1 8 4.5 13t13.5 5q8 0 13.5-5t5.5-13q0-8-5.5-13.5T231 209q-8 0-13.5 5.5T212 228h1zm-3 81q-14 0-30-3-9-2-27-7l-24-6q-13-3-23-3-20 0-37 5-12 4-24.5 1.5t-23-10.5q-10.5-8-16-19T0 243V131q0-21 12-38t31-24q25-10 47-10 14 0 30 3 9 2 27 7l24 6q13 3 23 3 20 0 37-5 12-4 24.5-1.5t23 10.5q10.5 8 16 19t5.5 24v112q0 21-12 38t-31 24q-25 10-47 10zm-104-56q14 0 30 3 9 2 27 7l24 6q12 2 23 2 15 0 34-7 8-3 13.5-10.5T262 237V125q1-8-6-13t-15-3q-21 6-47 6-14 0-30-3-9-2-27-7l-24-6q-12-3-23-3-15 0-34 8-8 3-13 10.5T37 131v112q1 8 7.5 13t14.5 3q21-6 47-6z"/></svg>