<svg viewBox="0 0 300 368" xmlns="http://www.w3.org/2000/svg"><path d="M291 163q-7-12-18.5-20T248 132q-39-8-79-10V96h12q8 1 13.5-4.5T200 78q0-8-5.5-13.5T181 59h-12v-6q0-8-5.5-13.5T150 34q-8 0-13.5 5.5T131 53v6h-12q-8 0-13.5 5.5T100 78q0 8 5.5 13.5T119 97h12v25q-40 2-79 10-13 3-24.5 11T9 163.5Q2 176 .5 190T3 217l30 79h-2q-8 0-13.5 5.5t-5 13.5q.5 8 5.5 13.5t13 5.5h238q8 0 13.5-5.5t5-13.5q-.5-8-5.5-13.5t-13-5.5h-1l29-79q4-14 2.5-28t-8.5-26zm-30 41l-33 92H72l-33-91q-4-12 2.5-23T60 168q45-9 90-9t90 9q12 3 18.5 14t2.5 22z"/></svg>