<svg viewBox="0 0 300 368" xmlns="http://www.w3.org/2000/svg"><path d="M291 156q-5-5-12-7.5t-15-1.5q-16-24-39.5-40T173 86q9-9 8.5-22T172 42.5q-9-8.5-22-8.5t-22 8.5q-9 8.5-9.5 21.5t8.5 22q-28 5-51.5 21T36 147q-7-1-14.5 1.5t-13 8Q3 162 1 169.5T1 185l26 112q-7 2-11 8t-3 13q1 7 6 11.5t12 4.5h238q7 0 12-4.5t6-11.5q1-7-3-13t-11-8l26-112q2-7 0-15t-8-14zM65 296L40 186q14 4 24 15.5T75 228q0 8 5.5 13t13.5 5q8 0 13-5t6-13l-1-6q0-16 11-27t27-11q16 0 27 11t11 26v7q0 8 5 13t13 5q8 0 13.5-5t5.5-13q1-15 11-26.5t24-15.5l-25 110H65zm85-175q23 1 43.5 11.5T228 161q-11 6-19 14-10-13-26-21t-33-7.5q-17 .5-33 8T91 176q-8-9-18-15 13-19 33.5-29t43.5-10v-1z"/></svg>