<svg viewBox="0 0 300 368" xmlns="http://www.w3.org/2000/svg"><path d="M213 215v25q0 8-5.5 13.5T194 259q-8 0-13.5-5.5T175 240v-25q0-2-2-4t-4-2h-19v20q0 5-3.5 8.5T138 241q-5 0-9-3l-38-39q-3-3-3-8t3-9l38-38q4-4 9-4t8.5 3.5q3.5 3.5 3.5 8.5v20h19q18 0 31 12.5t13 30.5zm75-125q-1 8-6 13.5t-13 5.5h-6v156q0 19-9.5 34.5t-25.5 25q-16 9.5-34 9.5h-88q-18 0-34-9.5t-25-25Q38 284 38 265V109h-7q-8 0-13.5-5.5t-5-13.5q.5-8 5.5-13t13-5h47q6-17 20.5-27.5T131 34h38q18 0 32.5 10.5T222 71h47q8 0 13.5 5.5T288 90zm-63 19H75v156q0 13 9 22t22 9h88q13 0 22-9t9-22V109z"/></svg>