<svg viewBox="0 0 300 368" xmlns="http://www.w3.org/2000/svg"><path d="M293 59l-18-18q-6-6-14-7t-15 4l-6 5q-8 7-14 10-9 5-24 6-16 0-28 11L15 231Q0 245 0 266t15 35l18 18q14 15 35 15t35-15l160-160q6-6 9-14.5t2.5-18Q274 117 279 108q3-5 10-12 5-6 7-9 5-6 4-14t-7-14zm-57 74L77 293q-4 3-9 3t-9-3l-18-18q-3-4-3-9t3-9L201 97q0-1 1-1t2 1l32 32q2 2 0 4zm-42 26q0 8-5.5 13.5T175 178q-8 0-13.5-5.5T156 159q0-8 5.5-13.5T175 140q8 0 13.5 5.5T194 159zm-38 37q0 8-5.5 13.5t-13 5.5q-7.5 0-13-5.5t-5.5-13q0-7.5 5.5-13t13-5.5q7.5 0 13 5.5T156 196zm-37 38q0 8-5.5 13.5T100 253q-8 0-13.5-5.5T81 234q0-8 5.5-13.5T100 215q8 0 13.5 5.5T119 234z"/></svg>