<svg viewBox="0 0 300 368" xmlns="http://www.w3.org/2000/svg"><path d="M219 100q6-10 6-22 0-8-5.5-13.5T206 59q-8 0-13.5 5.5t-6 13Q186 85 181 91t-12 8V53q0-8-5.5-13.5T150 34q-8 0-13.5 5.5T131 53v46q-7-2-12-8t-6-13.5q-1-7.5-6-13T94 59q-8 0-13.5 5.5T75 78q0 12 5 22-36 11-58 41.5T0 209q1 34 18.5 62t46 45Q93 333 126 334h48q25 1 48.5-8t41.5-27q18-18 27.5-41t8.5-49q0-37-22-67.5T219 100zm-45 196h-48q-23 0-43-12t-32-31.5Q39 233 37 209q0-19 9.5-36.5T72 145q16-10 36-11 9 0 17 3-11 8-23 10-7 2-11 7.5t-3 13q1 7.5 6 12t12 4.5l5-1q22-4 39-19 17 15 39 19l5 1q7 0 12-4.5t6-12q1-7.5-3-13t-11-7.5q-13-3-23-11 8-2 17-2 20 1 36 11t25.5 27.5Q263 190 263 209q0 18-6.5 34.5t-19 29Q225 285 208.5 291t-34.5 6v-1z"/></svg>