<svg viewBox="0 0 300 368" xmlns="http://www.w3.org/2000/svg"><path d="M200 264q0 15-9 27t-22 16v8q0 8-5.5 13.5T150 334q-8 0-13.5-5.5T131 315v-7q-9-2-16.5-7.5t-11.5-13q-4-7.5-2-15t8.5-11q6.5-3.5 14-1.5t11.5 8q2 4 5 4h15q3 0 5.5-2.5t2.5-6.5q0-4-5-6l-30-12q-13-5-20.5-16t-7.5-25.5q0-14.5 9-26.5t22-16v-8q0-8 5.5-13.5T150 134q8 0 13.5 5.5T169 153v7q9 2 16.5 7.5t11.5 13q4 7.5 2 15t-8.5 11q-6.5 3.5-14 1.5t-11.5-8q-2-4-5-4h-15q-3 0-5.5 2.5t-2 6.5q.5 4 4.5 6l30 12q13 5 20.5 16t7.5 25zM51 108q-3-3-7.5-3t-7.5 3L3 141q-5 5-2 11.5t10 6.5h14v156q0 8 5.5 13.5T44 334q8 0 13-5.5t5-13.5V159h15q7 0 9.5-6.5T84 141l-33-33zm65-12h15v7q0 8 5.5 13.5T150 122q8-1 13.5-6.5T169 102v-6h14q7 0 9.5-6T190 79l-33-34q-3-3-7.5-3t-7.5 3l-33 34q-5 5-2.5 11t9.5 6zm181 83l-33-34q-3-3-7.5-3t-7.5 3l-33 34q-5 5-2.5 11t9.5 6h15v119q0 8 5 13.5t13 5.5q8 0 13.5-5.5T275 315V196h14q7 0 10-6t-2-11z"/></svg>