<svg viewBox="0 0 300 368" xmlns="http://www.w3.org/2000/svg"><path d="M200 68q0 18-20 43-14 17-33 32-4 4-9.5 4t-9.5-4q-19-15-33-32-20-25-20-43-1-13 8.5-23t23-10Q120 35 129 45t8 23q0-13 9-23t22.5-10q13.5 0 23 10t8.5 23zm23 221l65-74q13-15 12-35t-16-33.5Q269 133 249 134t-33 16l-31 33q-13-12-31-12H56q-23 1-39.5 17T0 228v50q0 23 16.5 39.5T56 334h68q28 0 54-11.5t45-33.5zm-69-80q4 0 6 2t2.5 5.5q.5 3.5-1.5 6t-5 2.5l-65 9q-8 1-12.5 7.5t-3.5 14q1 7.5 7.5 12T96 271l65-9q15-2 25.5-13t13.5-26l43-48q3-3 8-3.5t8 2.5q3 3 3.5 8t-2.5 8l-65 74q-14 16-32.5 24.5T124 296H56q-8 0-13-5t-5-13v-50q0-8 5-13.5t13-5.5h98z"/></svg>