<svg viewBox="0 0 301 368" xmlns="http://www.w3.org/2000/svg"><path d="M282 271h-92q-7-13-21-20v-42h30q7 0 14-2 22-5 36-22t14.5-39.5q.5-22.5-13-40.5T215 82l-2-1h-2q-11-24-34-37t-49-9q-23 3-40 18.5T65 92q-3 14-1 28-13 7-20 20t-5 27.5Q41 182 50.5 193T74 207q6 2 11 2h47v42q-14 7-21 20H19q-8 0-13.5 5.5T0 290q0 8 5.5 13.5T19 309h92q5 11 16 18t23.5 7q12.5 0 23-7t16.5-18h92q7 0 12.5-5.5T300 290q0-8-5.5-13.5T282 271zM83 171q-5-2-6-6.5t1-7.5q2-3 5-5 10-4 15.5-13.5T101 118q-2-9 1-17 2-12 11-19.5t20-9.5h6q12-1 22 5.5T175.5 94q4.5 10 12.5 16.5t17 8q9 1.5 15 9t6 17q0 9.5-6 16.5t-15 9q-3 1-7 1H83z"/></svg>