<svg viewBox="0 0 300 368" xmlns="http://www.w3.org/2000/svg"><path d="M245 68q-26-21-57-29t-64-2.5Q91 42 64 61t-43.5 47.5Q4 137 1 169t6.5 61Q17 259 38 281q22 25 55 39t70 14h68q19 0 34.5-9.5t25-25Q300 284 300 265v-77q0-35-14.5-66T245 68zm18 197q0 13-9.5 22t-22.5 9h-68q-29 0-54.5-10.5T65 256q-15-17-22-38t-5-45q2-24 15-45.5T86 92q20-14 44-19 10-1 20-1 40 0 70 25 20 17 31.5 41t11.5 50v77zm-50-131v56q-1 5-4.5 8.5t-8.5 4q-5 .5-9-3.5l-15-15-50 51q-6 5-13.5 5t-13-5.5q-5.5-5.5-5.5-13t5-13.5l51-50-15-15q-4-4-3.5-9t4-8.5q3.5-3.5 8.5-3.5h56q5 0 8.5 3.5t3.5 8.5h1z"/></svg>