<svg viewBox="0 0 300 368" xmlns="http://www.w3.org/2000/svg"><path d="M257 56q-10-11-23-16.5T207 34h-38q-27 0-46.5 18T100 97h-6q-19 0-34.5 9t-25 25Q25 147 25 165v100q0 19 9.5 34.5t25 25Q75 334 94 334h50q18 0 34-9.5t25-25q9-15.5 9-34.5v-6q27-3 45-22.5t18-46.5v-88q0-13-5-25t-13-21zm-82 209q0 13-9 22.5t-22 9.5H94q-13-1-22-10t-9-22V165q0-13 9-22t22-9h6v56q0 19 9.5 34.5t25 25Q150 259 169 259h6v6zm62-75q0 13-9 22.5t-22 9.5h-37q-13-1-22-10t-9-22v-87q0-13 9-22.5t22-8.5h31v12q0 10 7.5 17.5T225 109h12v81z"/></svg>