<svg viewBox="0 0 300 368" xmlns="http://www.w3.org/2000/svg"><path d="M275 159q0-34-17-62.5T212.5 51Q184 34 150 34T87.5 51Q59 68 42 96.5t-17 63Q25 194 42.5 223T89 268q-17 15-25 36-4 11 3 20.5t20 9.5h126q13 0 20-9.5t3-20.5q-8-21-25-36 29-16 46.5-45t17.5-64zm-125 87q-24 0-44-11.5T74.5 203Q63 183 63 159t11.5-44Q86 95 106 83t44-12q24 0 44 12t32 32q12 20 12 44t-12 44q-12 20-32 31.5T150 246zm0-150q-17 1-31.5 9T96 127.5Q88 142 88 159t8 31.5q8 14.5 22.5 22.5t31.5 8.5q17 .5 31.5-8t22.5-23q8-14.5 8.5-31.5t-8-31.5q-8.5-14.5-23-22.5T150 97v-1zm0 88q-10 0-17.5-7.5T125 159q0-10 7.5-17.5T150 134q10 0 17.5 7.5T175 159q0 10-7.5 17.5T150 184z"/></svg>