<svg viewBox="0 0 300 368" xmlns="http://www.w3.org/2000/svg"><path d="M200 65q0-13 9-22t22-9q13 0 22.5 9t9.5 22q0 13-9.5 22.5t-22.5 9q-13-.5-22-9.5t-9-22zm44 44h-25q-8 0-13.5 5.5T200 128q0 8 5.5 13.5T219 147h25q8-1 13.5 4.5T262 165v38q1 8-4.5 13t-13.5 5q-8 0-13.5 5.5T225 239q0 7 3.5 12t9.5 7v57q0 8 5 13.5t13 5.5q8 0 13.5-5.5T275 315v-66q12-7 18.5-19.5T300 203v-38q0-23-16.5-39.5T244 109zM69 96q13 0 22-9t9-22q0-13-9-22t-22-9q-13 0-22 9t-9 22q0 13 9 22.5T69 97v-1zm12 13H56q-23 0-39.5 16.5T0 165v38q0 14 6.5 26.5T25 249v66q0 8 5.5 13.5T44 334q8 0 13-5.5t5-13.5v-57q6-2 9.5-7t3.5-12q0-7-5.5-12.5T56 221q-8 0-13.5-5T38 203v-38q0-8 5-13t13-5h25q8 0 13.5-5.5T100 128q0-8-5.5-13.5T81 109zm69 50q13 0 22-9t9-22q0-13-9-22.5T150 96q-13 0-22 9.5t-9 22.5q0 13 9 22t22 9zm50 56v25q0 12-6 23v52q0 8-5.5 13.5T175 334q-8 0-13.5-5.5T156 315v-31h-12v31q0 8-5.5 13.5T125 334q-8 0-13.5-5.5T106 315v-52q-6-11-6-23v-25q0-18 13-31t31-13h12q18 0 31 13t13 31zm-44 31q3 0 5-1.5t2-4.5v-25q0-2-2-4t-5-2h-12q-3 0-4.5 2t-1.5 4v25q0 3 1.5 4.5t4.5 1.5h12z"/></svg>