<svg viewBox="0 0 300 368" xmlns="http://www.w3.org/2000/svg"><path d="M213 177l-44 44q-13 13-30 13t-30-11l-22-21q-5-5-5.5-12.5T86 176q5-6 13-6t14 5l22 20q1 2 3.5 1.5t3.5-1.5l45-45q5-5 13-5t13.5 5.5q5.5 5.5 5.5 13t-6 13.5zm-5-118q-5-11-15.5-18T169 34h-38q-13 0-23.5 7T92 59q-18 1-33.5 10T34 93.5Q25 109 25 128v137q0 19 9.5 34.5t25 25Q75 334 94 334h112q19 0 34.5-9.5t25-25Q275 284 275 265V128q0-19-9-34.5T241.5 69Q226 60 208 59zm30 206q0 13-9.5 22t-22.5 9H94q-13 0-22-9t-9-22V128q0-13 9-22.5T94 96h12q8 0 13.5-5t5.5-13q0-3 2-5t4-2h38q2 0 4 2t2 5q0 8 5.5 13t13.5 5h12q13 1 22 10t9 22v137h1z"/></svg>