<svg viewBox="0 0 300 368" xmlns="http://www.w3.org/2000/svg"><path d="M256 196h-6v-18q0-8-5.5-13.5T231 159q-8 0-13.5 5.5T212 178v18h-43V93q0-9 6.5-15.5T191 71q9 0 15.5 5t6.5 13.5q0 8.5 5 14t13 5.5q8 0 13.5-5.5T250 90q0-24-17-40t-42-16q-16 0-30 8t-22 21.5Q131 77 131 93v103H88v-18q0-8-5.5-13.5T69 159q-8 0-13.5 5.5T50 178v18h-6q-18 0-31 13T0 240q0 26 12.5 47.5t34 34Q68 334 94 334h112q26 0 47.5-12.5t34-34Q300 266 300 240q0-18-13-31t-31-13zm-50 100H94q-24 0-40-16t-16-40q0-2 1.5-4t4.5-2h212q3 0 5 2t2 4q0 24-16.5 40T206 296z"/></svg>