<svg viewBox="0 0 300 368" xmlns="http://www.w3.org/2000/svg"><path d="M218 207l-53-89q-5-9-15-9t-15 9l-53 89q-5 9 0 18t16 9h104q10 0 15.5-9t.5-18zm-68 14q-5 0-8.5-3.5T138 209q0-5 3.5-8.5t8.5-4q5-.5 8.5 3.5t4 9q.5 5-3.5 8.5t-9 3.5zm13-50q0 6-4 9.5t-9 3.5q-5 0-8.5-3.5T138 171v-25q0-5 3.5-8.5t8.5-3.5q5 0 8.5 3.5t3.5 9.5v24h1zm110 62l-6-4q8-22 8-45t-8-45l6-4q7-3 9-10.5t-1.5-14.5q-3.5-7-11-9t-14.5 2l-7 4q-15-19-35.5-31T169 61v-8q0-8-5.5-13.5T150 34q-8 0-13.5 5.5T131 53v8q-23 3-43.5 15T52 107l-7-4q-7-4-14.5-2t-11 9q-3.5 7-1.5 14.5t9 10.5l6 4q-8 22-8 45t8 45l-6 4q-7 3-9 10.5t2 14.5q2 5 6.5 7.5T36 268q5 0 9-3l7-4q15 19 35.5 31t43.5 15v8q0 8 5.5 13.5T150 334q8 0 13.5-5.5T169 315v-8q23-3 43.5-15t35.5-31l7 4q4 3 9 3t9.5-2.5q4.5-2.5 6.5-7.5 4-7 2-14.5t-9-10.5zm-123 38q-24 1-44-11t-32-32q-12-20-12-44t12-44q12-20 32-31.5T150 97q24 0 44 11.5t31.5 31.5q11.5 20 11.5 44t-11.5 44Q214 248 194 260t-44 11z"/></svg>