<svg viewBox="0 0 300 368" xmlns="http://www.w3.org/2000/svg"><path d="M244 134h-88q-23 0-39.5 16.5T100 190v88q0 23 16.5 39.5T156 334h88q23 0 39.5-16.5T300 278v-88q0-23-16.5-39.5T244 134zm19 144q0 8-5.5 13.5T244 297h-88q-8-1-13-6t-5-13v-88q0-8 5-13.5t13-4.5h88q8-1 13.5 4.5T262 190v88h1zM75 215q0 8-5.5 13.5T56 234q-23 0-39.5-16.5T0 178V90q0-23 16.5-39.5T56 34h88q23 0 39.5 16.5T200 90q0 8-5.5 13.5T181 109q-8 0-13-5.5T163 90q0-8-5.5-13.5T144 71H56q-8 0-13.5 5.5T37 90v88q1 8 6 13t13 5q8 0 13.5 5.5T75 215z"/></svg>