<svg viewBox="0 0 300 368" xmlns="http://www.w3.org/2000/svg"><path d="M150 34q-41 0-75.5 20T20 108.5Q0 143 0 184t20 75.5Q40 294 74.5 314t75.5 20q41 0 75.5-20t54.5-54.5q20-34.5 20-75.5t-20-75.5Q260 74 225.5 54T150 34zm0 262q-31 1-56.5-14.5t-41-41Q37 215 37.5 184T53 127.5Q68 102 93.5 87T150 72q31 0 56.5 15t40.5 40.5q15 25.5 15.5 56.5t-15 56.5Q232 266 206.5 281T150 296zm75-112q0 28-18 48.5T163 258v13q0 6-4 9.5t-9 3.5q-5 0-8.5-3.5T137 272v-14q-26-5-44-25.5T75 184q0-5 3.5-9t9-4q5.5 0 9 4t3.5 9q0 21 14.5 35.5T150 234q21 0 35.5-14.5T200 184q0-5 3.5-8.5t9-4q5.5-.5 9 3.5t3.5 9zm-100 0v-63q0-10 7.5-17.5T150 96q10 0 17.5 7.5T175 121v63q0 10-7.5 17.5T150 209q-10 0-17.5-7.5T125 184z"/></svg>