<svg viewBox="0 0 300.0117 368" xmlns="http://www.w3.org/2000/svg"><path d="M289.012 270q11 11 11 26.5t-11 26.5q-11 11-26.5 11t-26.5-11q-11-11-11-26.5t11-26.5l14-18q5-5 12.5-5t12.5 5l14 18zm-238-18q-6-5-13.5-5t-13.5 5l-13 18q-11 11-11 26.5t11 26.5q11 11 26.5 11t26.5-11q11-11 11-26.5t-11-26.5l-13-18zm168-7q-6 0-10-3l-18-11q-10 9-22 13v29q5 2 9 7l23 22q5 5 5 13t-5.5 13.5q-5.5 5.5-13 5.5t-13.5-6l-22-22q-2-2-4 0l-22 22q-6 6-13.5 6t-13-5.5q-5.5-5.5-5.5-13.5t5-13l23-22q4-5 9-7v-29q-12-4-22-13l-18 11q-4 3-10 3-10 0-16-9-4-7-2-14.5t8-11.5l18-11q-2-7-2-15t2-15l-24-15q-5 3-11 4l-31 7-4 1q-7 0-12-4t-7-11q-2-7 2.5-13.5t11.5-8.5l31-7q1-1 1.5-2t.5-2l-7-30q-2-8 2-14.5t11.5-8.5q7.5-2 14 2t8.5 12l7 31q2 6 1 12l25 15q10-9 22-13V95q-5-2-9-7l-23-22q-5-6-5-13.5t5.5-13q5.5-5.5 13-5.5t13.5 5l22 23q2 2 4 0l22-23q6-5 13.5-5t13 5.5q5.5 5.5 5.5 13t-5 13.5l-23 22q-4 5-9 7v29q12 4 22 13l25-15q-1-6 1-12l7-31q2-8 8.5-12t14-2q7.5 2 11.5 8.5t2 14.5l-7 30q0 1 .5 2t1.5 2l31 7q7 2 11 8.5t2.5 13.5q-1.5 7-6.5 11t-12 4l-4-1-31-7q-6-1-11-4l-24 15q1 7 1 15t-1 15l18 11q6 4 8 11.5t-2 14.5q-6 9-16 9zm-44-61q0-10-7.5-17.5t-17.5-7.5q-10 0-17.5 7.5t-7.5 17.5q0 10 7.5 17.5t17.5 7.5q10 0 17.5-7.5t7.5-17.5z"/></svg>