<svg viewBox="0 0 300 368" xmlns="http://www.w3.org/2000/svg"><path d="M216 111q-3-1-3-5V71h6q8 0 13.5-5t5.5-13q0-8-5.5-13.5T219 34H81q-8 0-13 5.5T62.5 53q-.5 8 5 13T81 71h7v35q-1 4-4 5-39 19-61.5 53.5T0 240q0 28 10 53 8 19 25 30t38 11h154q21 0 38-11t25-30q10-25 10-53 0-41-22.5-75.5T216 111zm-116 34q11-5 18-16t7-23V71h50v35q0 12 7 23t18 16q35 17 52 49-29 15-52 15-12 0-23-3-7-2-19-8-16-7-25-9-16-5-33-5-24 0-52 11 17-33 52-50zm155 133q-3 9-11 13.5t-17 4.5H73q-9 0-17-4.5T45 278q-7-17-7-36 11-7 24-12 21-9 38-9 12 0 23 4 7 2 19 7 16 7 25 10 16 4 33 4 29 0 62-15v9q0 20-7 38z"/></svg>