<svg viewBox="0 0 300 368" xmlns="http://www.w3.org/2000/svg"><path d="M94 128q0 13-7 23.5T69 167v148q0 8-5.5 13.5T50 334q-8 0-13.5-5.5T31 315V167q-11-5-18-15.5T6 128q0-13 7-23.5T31 88V53q0-8 5.5-13.5T50 34q8 0 13.5 5.5T69 53v35q11 6 18 16.5t7 23.5zm75 73V53q0-8-5.5-13.5T150 34q-8 0-13.5 5.5T131 53v148q-11 5-18 15.5t-7 23.5q0 13 7 23.5t18 16.5v35q0 8 5.5 13.5T150 334q8 0 13.5-5.5T169 315v-35q11-6 18-16.5t7-23.5q0-13-7-23.5T169 201zm125-73q0-13-7-23.5T269 88V53q0-8-5.5-13.5T250 34q-8 0-13.5 5.5T231 53v35q-11 6-18 16.5t-7 23.5q0 13 7 23.5t18 15.5v148q0 8 5.5 13.5T250 334q8 0 13.5-5.5T269 315V167q11-5 18-15.5t7-23.5z"/></svg>