<svg viewBox="0 0 300 368" xmlns="http://www.w3.org/2000/svg"><path d="M231 34H69q-19 0-34.5 9.5t-25 25Q0 84 0 103v162q0 19 9.5 34.5t25 25Q50 334 69 334h162q19 0 34.5-9.5t25-25Q300 284 300 265V103q0-19-9.5-34.5t-25-25Q250 34 231 34zm32 231q0 13-9.5 22t-22.5 9H69q-13 0-22-9t-9-22V103q0-13 9-22.5T69 71h162q13 0 22.5 9.5T263 103v162zm-38-125v88q0 8-5.5 13.5t-13.5 5q-8-.5-13-5.5t-5-13v-88q0-8 5-13t13-5.5q8-.5 13.5 5T225 140zm-50 0v56q0 21-14.5 35.5T125 246q-21 0-35.5-14.5T75 196v-56q0-8 5.5-13t13.5-5.5q8-.5 13.5 5T113 140v56q0 6 3.5 9.5t8.5 3.5q5 0 9-3.5t4-9.5v-56q0-8 5-13t13-5.5q8-.5 13.5 5T175 140z"/></svg>