<svg viewBox="0 0 300 368" xmlns="http://www.w3.org/2000/svg"><path d="M256 111h-31v-2q0-20-10-37.5T187.5 44Q170 34 150 34t-37.5 10Q95 54 85 71.5T75 109v2H44q-18 1-31 13.5T0 155v110q0 19 9.5 34.5t25 25Q50 334 69 334h162q19 0 34.5-9.5t25-25Q300 284 300 265V155q0-18-13-30.5T256 111zm-143-2q0-16 10.5-27T150 71q16 0 27 11t11 27v2h-75v-2zm150 156q0 13-9.5 22.5T231 297H69q-13 0-22.5-9.5T38 265V155q-1-2 1-4t5-2h31v16q0 8 5.5 13.5T94 184q8 0 13-5.5t6-13.5v-16h75v16q0 8 5 13.5t13 5.5q8 0 13.5-5.5T225 165v-16h31q3 0 5 2t2 4v110z"/></svg>