<svg viewBox="0 0 300 368" xmlns="http://www.w3.org/2000/svg"><path d="M19 196h-1q-8 0-13-5.5T0 177q2-40 22.5-72.5t54-51.5Q110 34 150 34q47 0 86 27l18-18q3-4 8.5-4t9 3.5Q275 46 275 52v57q0 5-3.5 8.5T262 121h-57q-5 0-8.5-3.5T193 109q0-5 3-9l13-12q-27-17-58-17T95 85.5q-25 14.5-40.5 39T37 179q0 7-5.5 12T19 196zm263-24q-8-1-13.5 4.5T263 189q-2 30-17.5 54.5T205 282q-25 14-56 14t-58-16l13-12q3-4 3-9t-3.5-9q-3.5-4-8.5-4H38q-6 0-9.5 4t-3.5 9v57q0 6 3.5 9.5t9 3.5q5.5 0 8.5-4l18-18q39 27 86 27 40 0 73.5-19t54-51.5Q298 231 300 191q0-8-5-13.5t-13-6.5v1zm-69-3l-5 3q1 6 1 12t-1 12l5 3q7 4 9 11.5t-2 14.5q-2 4-6.5 6.5T204 234q-5 0-9-2l-6-4q-9 8-20 12v6q0 8-5.5 13.5T150 265q-8 0-13.5-5.5T131 246v-6q-11-4-20-12l-6 4q-4 2-9 2t-9.5-2.5Q82 229 80 225q-4-7-2-14.5t9-11.5l5-3q-1-6-1-12t1-12l-5-3q-7-4-9-11.5t2-14q4-6.5 11.5-8.5t13.5 1l6 4q9-8 20-12v-7q0-7 5.5-12.5T150 103q8 0 13.5 5.5T169 121v7q11 4 20 12l6-4q6-3 13.5-1t11.5 8.5q4 6.5 2 14t-9 11.5zm-41 15q0-9-6.5-15.5T150 162q-9 0-15.5 6.5T128 184q0 9 6.5 15.5T150 206q9 0 15.5-6.5T172 184z"/></svg>