<svg viewBox="0 0 300 368" xmlns="http://www.w3.org/2000/svg"><path d="M227 234h23q14 0 25.5-13.5t18-36.5q6.5-23 6.5-49.5T294 86q-6-22-16.5-36T254 34H94q-26 0-45 23L32 39q-5-5-13-5T5.5 39.5Q0 45 0 53t5 13l263 263q5 5 13 5t13.5-5.5Q300 323 300 315t-5-13l-68-68zm23-131q5 0 8.5 9t4 22q.5 13-3.5 22t-9 9q-5 0-8.5-9t-3.5-22q0-13 3.5-22t8.5-9zm-50 31v73L76 84q9-13 18-13h117q-11 28-11 63zm-23 161q-4 1-8 1H39q-1 1-1-1t2-3q13-5 18.5-16.5T63 251v-86q-1-8-6-13t-13-5q-8 0-13.5 5.5T25 165v93q-11 5-18 15t-7 22q0 16 11.5 27.5T39 334h130q9 0 17-2t12-9q4-7 2-14.5t-9-11.5q-7-4-14-2z"/></svg>