<svg viewBox="0 0 300 368" xmlns="http://www.w3.org/2000/svg"><path d="M150 34q-41 0-75.5 20T20 108.5Q0 143 0 184t20 75.5Q40 294 74.5 314t75.5 20q41 0 75.5-20t54.5-54.5q20-34.5 20-75.5t-20-75.5Q260 74 225.5 54T150 34zm0 262q-30 0-56-15t-41-41q-15-26-15-56t15-56q15-26 41-41.5T150 71q30 0 56 15.5t41.5 41.5q15.5 26 15.5 56t-15.5 56Q232 266 206 281t-56 15zm76-100H74q-6 0-9.5 4.5T63 211q8 28 32 46.5t55 18.5q31 0 55-18.5t32-46.5q2-6-1.5-10.5T226 196zm-76 57q4-15 16.5-24.5T195 219q9 0 13 1-9 15-24.5 24t-33.5 9zm-75-82q-5 0-8.5-3.5T63 159v-13q0-15 11-26t26-11q15 0 26.5 11t11.5 26v13q0 5-4 8.5t-9 3.5q-5 0-8.5-3.5T113 159v-8q-4 2-8 2t-7.5-4q-3.5-4-3.5-9 0-2 1-5-7 3-7 11v13q0 5-4 8.5t-9 3.5zm163-25v13q0 5-4 8.5t-9 3.5q-5 0-8.5-3.5T213 159v-8q-4 2-8 2t-7.5-4q-3.5-4-3.5-9 0-2 1-5-7 3-7 11v13q0 5-4 8.5t-9 3.5q-5 0-8.5-3.5T163 159v-13q0-15 11-26t26-11q15 0 26.5 11t11.5 26z"/></svg>