<svg viewBox="0 0 300 368" xmlns="http://www.w3.org/2000/svg"><path d="M295 329q-6 5-14 5t-13-5L5 66q-5-5-5-13t5.5-13.5Q11 34 19 34t13 5l118 118V96q0-16 8.5-30.5t23-23Q196 34 213 34h31q8 0 13.5 5.5t5.5 13q0 7.5-5.5 13T244 71h-31q-11 0-18.5 7.5T187 96v99l108 107q5 5 5 13t-5 13v1zm-123-56q-7-4-14.5-1.5T146 281q-4 7-11.5 11t-15.5 4q-13 0-22-9t-9-22q0-8 4-15.5t11-11.5q7-4 9.5-11.5t-1.5-14q-4-6.5-11.5-9T85 205q-16 9-25.5 25T50 265q0 19 9.5 34.5t25 25Q100 334 119 334t35-9.5q16-9.5 25-25.5 4-7 1.5-14.5T172 273z"/></svg>