<svg viewBox="0 0 300 368" xmlns="http://www.w3.org/2000/svg"><path d="M88 171H50q-21 1-35.5-14T0 121V84q0-21 14.5-35.5T50 34h38q20 0 35 14.5T137 84v37q1 21-14 36t-36 15l1-1zM50 71q-5 1-8.5 4.5T38 84v37q0 6 3.5 9.5T50 134h38q5 0 8.5-3.5t3.5-9.5V84q0-5-3.5-9T87 71H50zm200 100h-37q-21 0-36-14.5T162 121V84q1-21 15.5-35.5T213 34h37q21 0 35.5 14.5T300 84v37q0 21-14.5 36T250 172v-1zM213 71q-6 0-9.5 4t-3.5 9v37q0 6 3.5 9.5t9.5 3.5h37q5 0 9-3.5t4-9.5V84q0-5-4-9t-9-4h-37zM88 334H50q-21 0-35.5-14.5T0 284v-38q0-20 14.5-35T50 197h38q20-1 35 14t14 36v37q1 21-14 35.5T87 334h1zM50 234q-5 0-8.5 3.5T38 247v37q0 5 3.5 8.5T50 296h38q5 0 8.5-3.5t3.5-8.5v-38q0-5-3.5-8.5T87 234H50zm163-6v-13q-1-8-6-13.5t-13-5.5h-13q-8 1-13.5 6t-5.5 13v13q1 8 6 13.5t13 5.5h13q8-1 13.5-6t5.5-13zm37 37q0-8-5.5-13.5T231 246q-8 0-13.5 5.5T212 265h1q-1 8 4.5 13.5T231 284q8 0 13.5-5.5T250 265zm-37 50v-12q-1-8-6-13.5t-13-5.5h-13q-8 0-13.5 5.5T162 303v12q1 8 6 13.5t13 5.5h13q8 0 13.5-5.5T213 315zm87-87v-13q0-8-5.5-13.5T281 196h-12q-8 0-13.5 5.5T250 215v13q0 8 5.5 13.5T269 247h12q8-1 13.5-6t5.5-13z"/></svg>