<svg viewBox="0 0 300 368" xmlns="http://www.w3.org/2000/svg"><path d="M290 228l-62 61q-22 22-50 33.5T119 334H19q-12 0-16.5-9.5t0-18.5Q7 297 19 296h100q22 0 42.5-7.5T198 266q-10 5-23 5h-63q-11 0-15.5-9t0-18.5Q101 234 112 234h63q8 0 11-6t0-12.5q-3-6.5-11-6.5h-65q-21 0-40.5 8T35 240l-3 3q-5 6-13 6t-13.5-5.5Q0 238 0 230t5-13l3-3q21-21 47-32t55-11h65q16 0 28.5 9t17.5 23l23-22q11-11 26-9.5t24 13.5q7 10 6 22.5T290 228zM138 126v14q0 12 9 16.5t18.5 0Q175 152 175 140v-14q35-4 54-23t21-55q0-6-4-10t-10-4q-31 2-51 14.5T156 85q-8-24-28-36.5T76 34q-6 0-10 4t-4 10q3 36 21.5 55t54.5 23z"/></svg>