<svg viewBox="0 0 300 368" xmlns="http://www.w3.org/2000/svg"><path d="M256 48q-23-14-50-14t-49 14q-22 14-33 35-5 10-12 16-10 10-22 12-23 5-42 18.5T16 164Q3 185 .5 210.5T7 260q9 24 27 42 16 16 36.5 24t42.5 8q49 0 92.5-28t69-75.5Q300 183 300 128q0-24-11.5-45.5T256 48zM113 296q-15 0-28.5-5T60 275q-18-18-21.5-44t9.5-48q9-14 21.5-23T98 148q18-4 33.5-16t25.5-31q7-13 20-21.5t29.5-8.5q16.5 0 29.5 8.5t20 21q7 12.5 7 27.5 0 45-20.5 83.5t-55 62Q153 297 113 297v-1zm112-168q0 8-5.5 13.5T206 147q-8 0-13-5.5t-5.5-13.5q-.5-8 5-13.5T206 109q8 0 13.5 5.5T225 128zm-112 87q-1 8-6 13.5T94 234q-8 0-13.5-5.5T75 215q0-8 5.5-13.5t13.5-5q8 .5 13.5 5.5t5.5 13zm112-12q0 8-5.5 13.5T206 222q-8 0-13.5-5.5T187 203q0-8 5.5-13.5T206 184q8 0 13.5 5.5T225 203z"/></svg>