<svg viewBox="0 0 300 368" xmlns="http://www.w3.org/2000/svg"><path d="M281 296h-6V103q0-19-9.5-34.5t-25-25Q225 34 206 34H94q-19 0-34.5 9.5t-25 25Q25 84 25 103v193h-6q-8 0-13.5 5.5T0 315q0 8 5.5 13.5T19 334h262q8 0 13.5-5.5T300 315q0-8-5.5-13t-13.5-5v-1zM63 103q0-13 9-22t22-9h112q13-1 22 8.5t9 22.5v193H63V103zm62 12q0 8-5.5 13.5T106 134q-8 0-13.5-5.5t-5-13.5q.5-8 5.5-13.5t13-5.5q8 0 13.5 5.5T125 115zm88 0q-1 8-6 13.5t-13 5.5q-8 0-13.5-5.5T175 115q0-8 5.5-13.5T194 96q8 0 13.5 5.5T213 115z"/></svg>