<svg viewBox="0 0 300.0022 368" xmlns="http://www.w3.org/2000/svg"><path d="M300.002 179q-2-16-12.5-28t-26.5-15q2-10 1-20-2-18-17-31.5t-34-13.5h-10q-7-11-16.5-20.5t-21.5-14.5q-12-5-24 2-6 3-10 9t-4.5 12.5q-.5 6.5-2.5 12.5h-33q-19 0-34 13t-17 31q-1 10 1 19-15 4-26 16t-13 28q-1 10 2.5 20.5t10.5 18q7 7.5 17 12.5l8 47q5 25 24 41t44 16h88q25 0 44-16t24-41l8-47q10-5 17-12.5t10.5-18q3.5-10.5 2.5-20.5zm-262 4q0-5 4-8.5t10-3.5h92q8 0 13.5-5t5.5-13q0-8-5.5-13.5t-13.5-5.5h-56q-6 0-9.5-4t-3-9q.5-5 4.5-8.5t9-3.5h45q11 0 16.5-9t8.5-22q8 9 13 20 2 5 7 8t10 3h22q5 0 9 3.5t5 7.5q1 12-9 14-8 2-12.5 7.5t-3.5 13q1 7.5 6 12t13 4.5h29q6 0 10 3.5t4.5 8.5q.5 5-3 9t-9.5 4h-200q-6 0-9.5-4t-2.5-9zm156 113h-88q-11 0-20-7t-11-18l-7-37h164l-7 37q-2 11-11 18t-20 7z"/></svg>