<svg viewBox="0 0 300 368" xmlns="http://www.w3.org/2000/svg"><path d="M66 268q9 9 9 21t-9 21q-24 17-52 24-6 1-10.5-3.5T0 320q7-28 24-52 9-9 21-9t21 9zm135-14zM78 136q1-1 0-1v1zm147 4q0-13-9-22t-22-9q-13 0-22.5 9t-9 22q.5 13 9.5 22t22 9q13 0 22-9t9-22zm-25 114q-4 14-10 27-15 33-48 51-7 2-14.5 1.5t-14-4.5q-6.5-4-10-11t-3.5-15v-32q0-15-11-26t-26-11H30q-8 0-14.5-3.5T5 221q-4-6-4.5-13.5T2 193q17-32 50-47 13-6 26-10 36-51 79-75.5T256 34q18 0 31 13t13 31q-2 56-25.5 98T200 254zm63-177q-1-2-2.5-4t-4.5-2q-47 2-80.5 21T111 154q-15 22-27 46 18 5 31 18t19 31l27-14q10-5 19-12 43-31 62-64.5T263 77zm-63 177h1-1z"/></svg>