<svg viewBox="0 0 300.0094 368" xmlns="http://www.w3.org/2000/svg"><path d="M13 317l25 7 28 9q8 2 15-1.5t9-11q2-7.5-1.5-14T78 297l-9-2 9-24q21 1 38-12t23-34l11-31 10 30q6 21 23.5 34t38.5 14l9 23-8 2q-8 3-11.5 9.5t-1.5 14q2 7.5 9 11t15 1.5l53-16q5-2 8.5-5.5t4.5-8.5q1-5-.5-10t-5-8.5Q291 281 286 280t-10 1l-10 3-8-23q18-12 25.5-32t1.5-40l-21-63q-5-16-20-24.5T213 98l-45 12q-10 3-18 11-8-8-18-11L88 98q-17-5-31.5 3T37 126l-22 64q-6 20 1.5 39.5T42 261l-8 23-10-3q-5-2-9.5-1T6 284.5Q2 288 .5 293T0 303q1 5 4.5 8.5T13 317zm163-169q0-1 2-1l46-13q3 0 4 4l11 33h-57l-7-19q0-2 1-4zM76 134h2l44 12q2 1 2.5 2.5t.5 2.5l-7 20H61l11-34q1-3 4-3zm130-50q8 0 14-5l12-13q6-5 6-13t-5.5-13.5Q227 34 219 34t-14 5l-12 13q-4 4-5 9.5t1 11q2 5.5 7 8.5t10 3zM80 79q6 5 14 5t13.5-5.5Q113 73 113 65t-6-13L95 39q-6-5-14-5t-13.5 5.5Q62 45 62 53t6 13l12 13zm70 5q8 0 13.5-5.5T169 65V53q0-8-5.5-13.5T150 34q-8 0-13.5 5.5T131 53v12q0 8 5.5 13.5T150 84z"/></svg>