<svg viewBox="0 0 300 368" xmlns="http://www.w3.org/2000/svg"><path d="M298 140q-9-31-31-55t-52.5-37.5Q184 34 150 34T85.5 47.5Q55 61 33 85T2 140q-3 10-1.5 20t8 18.5q6.5 8.5 16 13T44 196h53q-4 22-7 48-2 24-2 34 0 25 17 40.5t45 15.5q28 0 45.5-15.5T213 278q0-10-3-34-3-26-7-47h53q10-1 19.5-5.5t16-13q6.5-8.5 8-18.5t-1.5-20zM175 278q0 11-10 16-7 2-15 2t-15-2q-10-5-10-15.5t3-34.5q3-28 8-48h28q5 20 8 48 3 24 3 34zm86-122q-2 3-5 3h-93q0-10-7.5-17.5t-18-7.5q-10.5 0-17.5 7.5t-7 17.5H44q-3 0-5-2.5t-1-5.5q8-29 32-50 6 10 15.5 15t20.5 5q18 0 31-12.5T150 78v-7q39 0 70.5 22.5T262 151q1 3-1 5zm-36-28q0 8-5.5 13.5T206 147q-8 0-13-5.5t-5.5-13.5q-.5-8 5-13.5T206 109q8 0 13.5 5.5T225 128z"/></svg>