<svg viewBox="0 0 300 368" xmlns="http://www.w3.org/2000/svg"><path d="M290 44q-27-28-100 22-19-7-40-7-34 0-62.5 17T42 121.5Q25 150 25 184q0 21 7 40-49 73-22 100 9 10 25 10 22 0 58-21l17-11q19 7 40 7 34 0 62.5-17t45.5-45.5q17-28.5 17-62.5 0-21-7-40l11-17q35-60 11-83zM150 96q24 0 44 12t31 31q-24 32-56 64t-64 56q-19-11-30.5-31t-12-44Q62 160 74 140t32-31.5Q126 97 150 97v-1zM38 296q2-12 14-34 9 11 20 20-23 13-34 14zm112-25q23-19 45.5-41.5T238 184q-1 24-12.5 44T194 259.5Q174 271 150 271zm78-185q22-12 34-14-1 11-14 34-9-11-20-20z"/></svg>