<svg viewBox="0 0 300 368" xmlns="http://www.w3.org/2000/svg"><path d="M225 159q0-17-8.5-31.5t-23-22.5Q179 97 162 97h-43q-18-1-31 12t-13 31v113q0 8 5.5 13t13.5 5q8 0 13.5-5t5.5-13v-32h45l26 42q6 8 16 8 5 0 10-2 7-4 8.5-12t-2.5-14l-20-31q13-9 21-23t8-30zm-112-19q-1-2 1-4t5-2h44q10 0 17.5 7.5t7 17.5q-.5 10-7.5 17.5t-17 7.5h-50v-44zM231 34H69q-19 0-34.5 9.5t-25 25Q0 84 0 103v162q0 19 9.5 34.5t25 25Q50 334 69 334h162q19 0 34.5-9.5t25-25Q300 284 300 265V103q0-19-9.5-34.5t-25-25Q250 34 231 34zm32 231q0 13-9.5 22t-22.5 9H69q-13 0-22.5-9T37 265V103q1-13 10-22.5T69 71h162q13 0 22 9.5t9 22.5v162h1z"/></svg>