<svg viewBox="0 0 300 368" xmlns="http://www.w3.org/2000/svg"><path d="M96 132l-7 16q-1 4-5 5.5t-8-.5l-2-1q-5-2-6.5-6.5T69 137l9-14q2-4 5.5-5t7.5.5q4 1.5 5.5 5.5t-.5 8zm204 52q0 41-20 75.5T225.5 314Q191 334 150 334t-75.5-20Q40 294 20 259.5T0 184q0-41 20-75.5T74.5 54Q109 34 150 34t75.5 20Q260 74 280 108.5t20 75.5zM150 296v-10q0-3-2.5-6t-5.5-4l-11-3q-6-1-11-6l-13-14q-7-7-7-16v-4q0-12 9-19l16-12q6-5 15-5h15q8 0 14 4l28 18q3 3 7 3h9q6 0 10 4l11 11q3 3 8 4h5q5-9 9-20l-26-11q-2-1-3.5-3t-1.5-5.5q0-3.5 4-5.5l12-7q3-2 3-5t-2.5-4.5Q239 178 238 178l-31-10q-3-1-5-4t-2-7q0-4 3.5-7t7.5-3h16q4 0 7.5-3.5t3.5-7.5v-4q0-4-3.5-7t-7.5-3h-8q-6 0-9 5l-8 15q-2 5-7 6l-9 3q-3 1-3.5 3t.5 4l3 9q0 4-2.5 6.5T178 176q-3 0-5.5-1.5T169 172l-8-9q-2-1-5-1t-5 4l-12 16q-3 2-7 2t-11-5l-5-5q-6-9-2-18l12-27q3-7 10-10l33-14 3-2q3-2 3-6t-2.5-4.5Q170 92 168 92l-33 5q-4-1-5-3.5t0-6.5l7-15q-28 3-50.5 19T51 131.5q-13 24.5-13 54t15 55q15 25.5 41 41t56 15.5v-1z"/></svg>