<svg viewBox="0 0 300 368" xmlns="http://www.w3.org/2000/svg"><path d="M163 65V53q0-8 5-13.5t13-5.5q8 0 13.5 5.5T200 53v12q0 8-5.5 13.5T181 84q-8 0-13-5.5T162 65h1zm-54 23q6 8 16 8 6 0 11.5-3.5t7-11Q145 74 141 67l-9-12q-4-7-11.5-8.5t-14 3q-6.5 4.5-8 12T101 76l8 12zm118 5q5 3 10 4 11-1 16-9l8-12q5-7 3.5-14.5t-8-12q-6.5-4.5-14-3T230 55l-8 12q-4 7-2.5 14.5T227 93zm73 135v12q0 20-10.5 36.5T262 301v14q1 8-4.5 13.5T244 334q-8 0-13.5-5.5T225 315v-6H75v6q0 8-5.5 13.5T56 334q-8 0-13.5-5.5T37 315v-14q-16-8-26.5-24.5T0 240v-12q0-19 9.5-34.5t25-25Q50 159 69 159h46q6-22 24.5-36t42-14q23.5 0 42 14.5T248 161q23 6 37.5 24.5T300 228zm-150-50q0 13 9 22t22 9q13 0 22-9t9-22q0-13-9-22t-22-9.5q-13-.5-22 9t-9 22.5zm-35-19zm0 37zm148 32q0-9-4.5-16.5T246 200q-7 21-25 34t-40.5 12.5q-22.5-.5-41-14.5T115 196H69q-13 0-22 9.5T38 228v12q0 13 9 22.5t22 9.5h162q13-1 22-10t9-22v-12h1zM69 209q-8 0-13.5 5.5T50 228q0 8 5.5 13.5t13.5 5q8-.5 13.5-5.5t5.5-13q0-8-5.5-13.5T69 209z"/></svg>