<svg viewBox="0 0 300 368" xmlns="http://www.w3.org/2000/svg"><path d="M207 253l-11 10-35-35 10-10q6-6 13.5-6t13.5 6l9 9q5 5 5 13t-5 13zM107 127l9 9q6 6 6 13.5t-6 13.5l-10 10-35-35 10-11q5-5 13-5t13 5zm193-22q-1-15-7.5-28.5T275 53q-11-10-25-15t-29-4q-15 1-28.5 7.5T169 59q-10 11-15 25t-4 29q1 15 7.5 28.5T175 165q11 10 25 15t29 4q15-1 28.5-7.5T281 159q10-11 15-25t4-29zm-50-21q0 10-7.5 17.5T225 109q-10 0-17.5-7.5T200 84q0-10 7-17t17-8h4q10 2 16 9t6 16zm12 58q-13 16-34 17-12 1-22.5-4T188 142v-2q-1-8 4.5-13.5T206 121h38q8 1 13.5 6t5.5 13l-1 2zM89 334q-18 0-34-6.5T26 308q-13-13-19.5-29T0 245q0-18 6.5-34T26 182l27-27 36 35-28 28q-11 11-11 27t11 27.5Q72 284 88.5 284t27.5-11l28-28 35 36-27 27q-13 13-29 19.5T89 334z"/></svg>