<svg viewBox="0 0 300 368" xmlns="http://www.w3.org/2000/svg"><path d="M69 271q-9 0-15-6-16-20-24-44-2-8 1.5-14.5t11-9q7.5-2.5 14.5 1t9 11.5q6 17 17 30 5 6 4.5 14t-6 12.5Q76 271 69 271zm66-173q15-3 30 0h4q7 0 12-4.5t6.5-11.5q1.5-7-3-13.5T172 61q-22-4-44 0-8 1-12.5 7.5t-3 14q1.5 7.5 8 12T135 98zm122 99q-7-2-14 1.5t-9 11.5q-6 17-17 31-5 6-4.5 13.5t6 12.5q5.5 5 13.5 5t13-7q17-20 25-44 2-8-1.5-14.5T257 197zM75 314zm223-137q-12-18-29-27-19-10-41-12 9-21 9-41.5T228 58q-2-5-6-6.5t-8.5 0q-4.5 1.5-7 5.5t-1.5 9.5q1 5.5 1 11.5 0 23-16.5 39.5T150 134q-23 0-39.5-16.5T94 78q0-6 1-11.5T93.5 57q-2.5-4-7-5.5t-8.5 0Q74 53 72 58 62 76 62 96.5t9 41.5q-21 2-40 12-17 9-29 27-2 4-1.5 8.5t4 7.5q3.5 3 8.5 3t9-3q5-5 8-7 20-11 42.5-4.5t34 27q11.5 20.5 5 42.5T84 285q-3 1-13 4-4 2-6.5 6t-2 8.5Q63 308 67 311t8 3q23-1 41-11 20-11 34-33 13 21 34 33 18 10 40 11 5 0 8.5-3t4.5-7.5q1-4.5-1.5-8.5t-7.5-6l-12-4q-21-12-27.5-34t5-42.5q11.5-20.5 34-27T270 186q3 2 9 7 4 4 8.5 3.5t8-3.5q3.5-3 4-7.5T298 177zm-148 32q-10 0-17.5-7.5T125 184q0-10 7.5-17.5T150 159q10 0 17.5 7.5T175 184q0 10-7.5 17.5T150 209z"/></svg>