<svg viewBox="0 0 300 368" xmlns="http://www.w3.org/2000/svg"><path d="M300 196v36q0 27-14 50.5T248.5 320Q225 334 198 334h-12q-6 0-11-3.5t-7-9.5l-34-95-93-80q-7 27 1 53 5 18 18 34 15 20 15 43v14q0 3 2 4.5t4 1.5h38q8 0 13.5 5.5T138 315q0 8-5.5 13.5T119 334H81q-18 0-30.5-13T38 290v-14q0-10-8-20-20-26-27-58t2-63q10-38 40-65.5t69-34q39-6.5 75 8T249 89q12 16 31 53 20 40 20 54zm-48-27q-20-41-33-57-17-23-43.5-33.5T121 73q-19 3-35.5 13T58 111l99 85h13q22 0 43-7t39-20zm11 38q-40 25-86 27l22 62q17 0 31.5-8.5T254 264q9-15 9-32v-25z"/></svg>