<svg viewBox="0 0 300 368" xmlns="http://www.w3.org/2000/svg"><path d="M194 109q8 0 13.5 5.5T213 128q0 8-5.5 13.5T194 147h-88q-8-1-13-6t-5-13q0-8 5-13.5t13-5.5h88zm101 220q-6 5-14 5t-13-5l-25-26q-12 6-24 6-24 0-40.5-16.5t-16-40q.5-23.5 16.5-40t39.5-16q23.5.5 40 16.5t16.5 40q0 12-6 24l26 25q5 5 5 13t-5 14zm-76-58q8 0 13.5-5t5-13q-.5-8-5.5-13.5t-13-5.5q-8 0-13.5 5.5T200 253q0 8 5.5 13.5T219 271zm-75 25H94q-13 0-22-9t-9-22V103q0-13 9-22t22-9h137q3-1 5 1t2 5v87q-1 8 4.5 13.5T256 184q8 0 13.5-5.5T275 165V78q0-18-13-31t-31-13H94q-19 0-34.5 9.5t-25 25Q25 84 25 103v162q0 19 9.5 34.5t25 25Q75 334 94 334h50q8 0 13.5-5.5T163 315q0-8-5.5-13.5T144 296z"/></svg>