<svg viewBox="0 0 300 368" xmlns="http://www.w3.org/2000/svg"><path d="M150 140q0 8-5.5 13.5T131 159h-6v69q0 8-5.5 13.5t-13.5 5q-8-.5-13.5-5.5T87 228v-69h-6q-8 0-13.5-5.5t-5-13.5q.5-8 5.5-13.5t13-5.5h50q8 0 13.5 5.5T150 140zm150-12v112q0 19-9.5 34.5t-25 25Q250 309 231 309H69q-19 0-34.5-9.5t-25-25Q0 259 0 240V128q0-19 9.5-34.5t25-25Q50 59 69 59h162q19 0 34.5 9.5t25 25Q300 109 300 128zm-37 0q0-13-9.5-22T231 97H69q-13-1-22 8.5T38 128v112q0 13 9 22.5t22 9.5h162q13-1 22.5-10t9.5-22V128zm-44 81q-8 0-13.5 5.5T200 228q0 8 5.5 13.5t13.5 5q8-.5 13.5-5.5t5.5-13q0-8-5.5-13.5T219 209zm-50 0q-8 0-13.5 5.5T150 228q0 8 5.5 13.5t13.5 5q8-.5 13.5-5.5t5-13q-.5-8-5.5-13.5t-13-5.5z"/></svg>