<svg viewBox="0 0 300 368" xmlns="http://www.w3.org/2000/svg"><path d="M122 334q-6 0-12-2-14-3-23.5-14t-11-25.5Q74 278 81 265t20-19q-1-6-1-12 1-28 19-49t44.5-25q26.5-4 50 9t33.5 37l4 1q22 5 35.5 23t13.5 40.5q0 22.5-14.5 40T249 332q-6 2-13 2H122zm54-138q-3 0-6 1-12 2-20.5 9.5T139 226q-1 4-1.5 8.5t.5 8.5q3 11-2.5 20.5T120 278q-3 1-5.5 4.5t-1.5 8q1 4.5 7 5.5l3 1h112q3-1 6-1 9-2 15-9.5t6.5-17q.5-9.5-5.5-17t-15.5-9Q232 242 224 236t-11-16q-5-11-15-17.5t-22-6.5zM63 246q6-6 6-13.5T63 219q-22-22-25-51-3-27 11-52t39-37q27-13 57-5-23 19-36 46-3 7-.5 14t9.5 10.5q7 3.5 14.5 1T143 136q12-23 32-38 7-5 10-13.5t1.5-17.5q-1.5-9-7-16T166 41q-29-10-59-5.5T52.5 57Q28 74 14 101T0 158q0 25 9.5 47.5T37 246q5 5 13 5t13-5z"/></svg>