<svg viewBox="0 0 300 368" xmlns="http://www.w3.org/2000/svg"><path d="M250 69v-1 1zm46 88q-4 7-10.5 11t-14.5 5l-21 3v13q0 29-8 57l-5 16v41q0 13-9 22t-22 9q-13 0-22-9t-9-22v-19h-49l-3 23q-1 8-6 15t-13.5 10q-8.5 3-17.5 1t-15-9q-9-10-7-24l5-33-6-14q-10-22-12-36-10 13-13 38-1 7-6 12t-12 5q-3 0-5-1-7-2-11-8.5T1 249q4-32 20-53t43-30q8-10 19-14.5t23-4.5h31q0-12 3-25 7-25 22.5-41T201 61q3-9 9.5-16.5T225 34q5-1 8.5 1.5T237 43v26q4 15 16 26 9 9 25 16l4 2q12 6 16.5 19t-2.5 25zm-48-19q-29-15-40-40-11 2-19.5 10.5T177 132q-2 8-2 14 0 16-11 27t-27 11h-31q-5 0-11 4-8 6-8 14.5t3 17.5q2 5 7 17l4 10h102l3-12q6-22 6-46v-19q0-12 8-21t20-10l8-1zM64 166z"/></svg>