<svg viewBox="0 0 300.0048 368" xmlns="http://www.w3.org/2000/svg"><path d="M295 302l-71-70q15-4 30-12 13-8 23.5-17.5T288 178q0-15-11-25-4-4-9-8l3-3q21-21 29-71 2-16-9.5-27.5T263 34q-50 8-71 29l-3 3q-4-5-8-9-9-10-24.5-10t-25 10Q122 67 114 80q-8 15-12 30L32 39q-5-5-13-5T5.5 39.5Q0 45 0 53t5 13l263 263q5 5 13 5t13.5-5.5Q300 323 300 315t-5-13zm-88-106q-9 0-24-6l-6-6 24-25h6q10 0 21 5.5t21 13.5q-10 8-21 13.5t-21 5.5v-1zm11-107q11-10 43-16-6 32-16 43-4 3-13 4.5t-19 .5q-1-11 .5-19.5T218 89zm-80 38q0-10 5-21t13-21q8 10 13.5 21t5.5 21v6l-25 24-6-6q-6-15-6-24zm23 128l28 28q-23 14-44 13-26 0-61-19l-52 52q-5 5-13 5t-13.5-5.5Q0 323 0 315t5-13l52-52q-19-35-19-61 0-21 13-44l28 28q-4 9-4 16 0 13 10 33l22-21 26 27-21 21q20 10 33 10 7 0 16-4z"/></svg>