<svg viewBox="0 0 300 368" xmlns="http://www.w3.org/2000/svg"><path d="M300 296v15q0 9-7 16t-16 7H23q-9 0-16-7t-7-16v-15q0-10 7.5-17.5T25 271v-93q0-19 9.5-34.5t25-25Q75 109 94 109h37q8 0 13.5 5.5T150 128q0 8-5.5 13t-13.5 5H94q-13 1-22.5 10T63 178v93h41l11 13h70l11-13h42v-81q0-8 5-13.5t13-5.5q8 0 13.5 5.5T275 190v81q10 0 17.5 7.5T300 296zm0-231v38q0 13-9 22t-22 9l-15 13q-7 6-17 6-9 0-16-6l-15-13q-13 0-22-9t-9-22V65q0-13 9-22t22-9h63q13 0 22 9t9 22zm-37 6h-50v25q6 1 11 5l13 10 14-10q5-4 11-5V71h1zM138 184q0-10-7.5-17.5t-18-7.5q-10.5 0-17.5 7.5T88 184q0 10 7 17.5t17.5 7.5q10.5 0 18-7.5T138 184zm-25 37q-13 0-23.5 7.5T75 248q-1 4 2 7.5t7 3.5h57q4 0 6.5-2.5t2.5-6.5v-2q-4-12-14.5-19t-22.5-7v-1zm75-12q10 0 17.5-7.5T213 184q0-10-7.5-17.5t-18-7.5q-10.5 0-17.5 7.5t-7 17.5q0 10 7 17.5t18 7.5zm-29 50h57q4 0 7-3.5t2-7.5q-4-12-14.5-19t-23-7q-12.5 0-23 7T150 248v2q0 4 2.5 6.5t6.5 2.5z"/></svg>