<svg viewBox="0 0 300 368" xmlns="http://www.w3.org/2000/svg"><path d="M181 78q0-18 13-31t31-13q18 0 31 13t13 31q0 18-13 30.5T225 121q-18 0-31-12.5T181 78zm32 73q-1 8 3.5 14t12.5 7q14 1 24 12t10 25q0 8 5 13.5t13 5.5q8 0 13.5-5.5T300 209q0-29-19-50t-48-25q-7 0-13.5 4.5T213 151zm-185 0q-12 9-19 22t-9 28q0 7 4.5 13.5T17 221h2q7 0 12.5-4.5T38 205q1-15 13-25 6-5 7-13t-4-14q-5-6-12.5-6.5T28 151zm165 49q2-11-1-22t-11-19q-8-8-19-11t-22 0l-37-37q8-6 12-14.5t4-18.5q0-18-13-31T75 34q-10 0-18.5 4T42 49l-10-9q-5-6-13-6T5.5 39.5Q0 45 0 53t5 13l263 263q5 5 13 5t13.5-5.5Q300 323 300 315t-5-13L193 200zm-51 47q-26 3-45 21.5T75 314q-1 7 4 13t13 7h2q7 0 12.5-4.5T112 317q2-13 11.5-22t22.5-11q7-1 12-7t4.5-13.5Q162 256 156 251t-14-4z"/></svg>