<svg viewBox="0 0 300 368" xmlns="http://www.w3.org/2000/svg"><path d="M219 34h-60q-23 0-39 16L91 78q-7 8-11.5 18.5T75 118v97q0 24 16.5 40t39.5 16h88q23 0 39.5-16t16.5-40V90q0-23-16.5-39.5T219 34zm19 181q-1 8-6 13.5t-13 5.5h-88q-8 0-13-5.5t-5-13.5v-97q0-7 5-13l28-28q6-6 13-5h60q8-1 13.5 4.5T237 90v125h1zm-38 100q0 8-5.5 13.5T181 334h-50q-32 0-59.5-16t-43-43Q13 248 13 215v-62q0-8 5-13.5t13-5.5q8 0 13.5 5.5T50 153v62q0 22 11 41t29.5 29.5Q109 296 131 296h50q8 0 13.5 5.5T200 315zm13-206v12q0 6-4 9.5t-9 3.5q-5 0-8.5-3.5T188 121v-12q0-5 3.5-8.5T200 97q5 0 8.5 3.5t3.5 8.5h1zm-38 0v12q0 6-3.5 9.5t-9 3.5q-5.5 0-9-3.5T150 121v-12q0-5 3.5-8.5t9-3.5q5.5 0 9 3.5t3.5 8.5z"/></svg>