<svg viewBox="0 0 300 368" xmlns="http://www.w3.org/2000/svg"><path d="M214 190q5 6 4.5 13.5T213 217l-47 42q-12 13-30.5 13T105 259l-18-18q-6-5-6-13t5.5-13.5Q92 209 100 209t13 5l18 18q2 2 4.5 2t4.5-2l47-43q6-5 14-5t13 6zm86-75q0 18-12 31v119q0 19-9.5 34.5t-25.5 25q-16 9.5-34 9.5H81q-18 0-34-9.5t-25-25Q13 284 13 265V146Q0 133 0 115v-12q0-19 9.5-34.5t25-25Q50 34 69 34h162q19 0 34.5 9.5t25 25Q300 84 300 103v12zm-262 0q0 3 1.5 4.5T44 121h212q3 0 5-1.5t2-4.5v-12q0-13-9.5-22T231 72H69q-13-1-22 8.5T38 103v12zm212 150V159H50v106q0 13 9 22t22 9h138q13 0 22-9t9-22z"/></svg>