<svg viewBox="0 0 300 368" xmlns="http://www.w3.org/2000/svg"><path d="M275 225v-45q0-14 5-27.5t15-24.5q5-6 5-13.5t-6-13q-6-5.5-13.5-5T268 103q-15 15-23 35.5t-7 41.5v4h-34l-62-94q-9-15-24.5-23T85 59h-4q-18 0-31 13t-13 31v59q-16 6-26.5 20.5T0 215v25q0 11 7 20t18 11v7q0 13 9 22t22 9q13 0 22.5-9t9.5-22v-7h37v7q0 13 9 22t22 9q13 0 22.5-9t9.5-22v-7q10-2 17-11t7-20v-19h26v4q-1 22 7 42t23 36q5 6 12.5 6t13.5-5q6-5 6-13t-5-13q-10-11-15-24.5t-5-28.5zM81 96h4q7 0 14 4t12 11l32 48H75v-56q0-3 2-4.5t4-2.5zM38 215q0-8 5-13.5t13-5.5h100q8 0 13.5 5.5T175 215v19H38v-19z"/></svg>