<svg viewBox="0 0 300 368" xmlns="http://www.w3.org/2000/svg"><path d="M140 225q35-15 50-48 14-30 7-63.5T166 58q-27-24-66-24H69q-19 0-34.5 9.5t-25 25Q0 84 0 103v212q0 12 9.5 16.5t18.5 0q9-4.5 9-16.5v-81h65l50 90q4 7 11.5 9t14.5-1.5q7-3.5 9-11t-2-14.5l-45-81zM38 103q0-13 9-22t22-9h31q29 0 46 20 16 17 16 42t-16 42q-17 20-46 21H38v-94zm262 186q0 19-13 32t-32 13h-15q-11 0-21.5-6T203 312q-4-7-2-14.5t8.5-11q6.5-3.5 14-1.5t11.5 8q2 4 5 3h15q4 1 6-2t1-6.5q-1-3.5-4-5.5l-30-12q-16-6-23-20t-4-29.5q3-15.5 14.5-26T245 184h15q11 0 21.5 6t16.5 16q3 7 1 14.5t-8.5 11q-6.5 3.5-14 1.5t-11.5-8q-2-3-5-4h-15q-4 0-6 3t-1 6.5q1 3.5 4 5.5l30 12q13 5 20.5 16t7.5 25z"/></svg>