<svg viewBox="0 0 300 368" xmlns="http://www.w3.org/2000/svg"><path d="M183 125q-4-10-13-16t-20-6q-11 0-20 6t-13 17l-35 95q-2 8 1 15t10.5 9.5q7.5 2.5 14.5-1t10-10.5l4-12h56l4 12q2 6 7 9.5t11 3.5q3 0 6-2 8-2 11-9t1-15l-35-96zm-47 59l14-39 14 39h-28zm14-150q-41 0-75.5 20T20 108.5Q0 143 0 184t20 75.5Q40 294 74.5 314t75.5 20q41 0 75.5-20t54.5-54.5q20-34.5 20-75.5t-20-75.5Q260 74 225.5 54T150 34zm0 262q-31 0-56.5-15T53 240.5Q38 215 38 184t15-56.5Q68 102 93.5 87T150 71.5q31-.5 56.5 15t41 41Q263 153 263 184t-15.5 56.5Q232 266 206.5 281T150 296z"/></svg>