<svg viewBox="0 0 300 368" xmlns="http://www.w3.org/2000/svg"><path d="M280 159q-21-29-55-38-10-34-37.5-55T125 45.5q-35 .5-62.5 22t-36 55.5Q18 157 32 189q-19 13-27.5 34.5t-2 45Q9 292 29 307t45 14h121q25 1 47-10t37-30q15-19 20-44 3-21-1.5-41T280 159zm-19 72q-4 23-23 38t-43 15H74q-12 0-22-7t-13-19q-4-14 3.5-26.5T64 215q9-2 12.5-11.5T74 186q-10-14-12-30.5t4.5-32.5q6.5-16 20-26.5T116 84q5-1 10-1 22 0 39 13 10 8 16.5 19t8.5 24q1 6 5.5 10.5T206 155q13 2 24.5 9t19.5 17.5q8 10.5 11 23.5t1 26h-1z"/></svg>