<svg viewBox="0 0 300 368" xmlns="http://www.w3.org/2000/svg"><path d="M38 65q0-13 9-22t22-9q13 0 22 9t9 22q0 13-9 22.5t-22 9Q56 96 47 87t-9-22zm75 81v169q0 8-5.5 13.5T94 334q-8 0-13.5-5.5T75 315v-56H63v56q0 8-5.5 13.5T44 334q-8 0-13.5-5.5T25 315v-66q-12-7-18.5-19.5T0 203v-38q0-23 16.5-39.5T56 109h82V53q0-8 5-13.5t13-5.5q13 0 24 5l39 15q6 4 6 11t-6 11l-44 21v31q0 8-5.5 13.5T156 147h-43v-1zm-38 0H56q-8 0-13.5 5.5T37 165v38q1 8 6 13t13 5h19v-75zm181 13q13 0 22.5-9t9.5-22q0-13-9.5-22.5T256 96q-13 0-22 9.5t-9 22.5q0 13 9 22t22 9zm44 52q-2-16-14.5-27.5T256 172h-7l1 6q0 16-9 31 9 7 14.5 16.5T263 246v19q0 8 5 13.5t13 5.5q8 0 13.5-5.5T300 265v-54zm-106-65q-13 1-22.5 10t-9.5 22q0 13 9.5 22t22.5 9q13 0 22-9t9-22q0-13-9-22.5t-22-9.5zm0 75q-18 1-31 13.5T150 265v50q0 8 5.5 13.5T169 334q8 0 13.5-5.5T188 315v-19h12v19q0 8 5.5 13.5T219 334q8 0 13.5-5.5T238 315v-50l-1-4q-1-16-13.5-28T194 221z"/></svg>