<svg viewBox="0 0 300 368" xmlns="http://www.w3.org/2000/svg"><path d="M300 184q0 14-2 27-2 8-8.5 12.5t-14 3q-7.5-1.5-12-8T261 204q2-10 1-20 0-31-15-56.5T206.5 87Q181 72 150 71.5t-56.5 15Q68 102 53 127.5T37.5 184q-.5 31 15 56.5t41 41Q119 297 150 297l5-1q8 0 14 5t6 13q0 8-5 13.5t-13 6.5h-7q-41 0-75.5-20T20 259.5Q0 225 0 184t20-75.5Q40 74 74.5 54T150 34q41 0 75.5 20t54.5 54.5q20 34.5 20 75.5zM94 246q13 0 22 4 12 5 21 17 5 9 15 9 6 0 11.5-4t7-11.5Q172 253 168 247q-25-38-74-38-8 0-13.5 5.5T75 228q0 8 5.5 13.5T94 247v-1zm19-100q0-10-7.5-17.5t-18-7.5Q77 121 70 128.5t-7 18q0 10.5 7 17.5t17.5 7q10.5 0 18-7t7.5-18zm124 15v154q1 8-4.5 13.5T219 334q-8 0-13.5-5.5T200 315v-97q-10 3-19 4-23-1-39.5-17T125 165.5q0-23.5 16.5-40t39-16.5q22.5 0 39 15t17.5 37zm-37 4q0-8-5.5-13.5T181 146q-8 0-13 5.5t-5 13.5q0 8 5 13.5t13 5.5q8 0 13.5-5.5T200 165z"/></svg>