<svg viewBox="0 0 300 368" xmlns="http://www.w3.org/2000/svg"><path d="M169 315q0 8-5.5 13.5T150 334q-8 0-13.5-5.5T131 315q0-8 5.5-13.5T150 296q8 0 13.5 5.5T169 315zm44-19q-8 0-13.5 5.5T194 315q0 8 5.5 13.5t13 5.5q7.5 0 13-5.5T231 315q0-8-5.5-13.5T213 296zm62 0q-8 0-13.5 5.5T256 315q0 8 5.5 13.5T275 334q8 0 13.5-5.5T294 315q0-8-5.5-13.5T275 296zm-187 0q-8 0-13.5 5.5T69 315q0 8 5.5 13.5t13 5.5q7.5 0 13-5.5T106 315q0-8-5.5-13.5T88 296zm-63 0q-8 0-13.5 5.5T6 315q0 8 5.5 13.5T25 334q8 0 13.5-5.5T44 315q0-8-5.5-13.5T25 296zm187-119l-43 41V53q0-8-5.5-13.5T150 34q-8 0-13.5 5.5T131 53v165l-43-41q-6-6-13.5-5.5t-13 6q-5.5 5.5-5.5 13t6 13.5l57 55q13 12 31 12t31-12l57-55q6-6 6-13.5t-5.5-13q-5.5-5.5-13-6T212 177z"/></svg>