<svg viewBox="0 0 300 368" xmlns="http://www.w3.org/2000/svg"><path d="M300 109q0-21-14-38t-38.5-27Q223 34 194 34q-27 0-49.5 8.5t-37 23Q93 80 89 98q-25 2-45.5 12.5t-32 26.5Q0 153 0 171v97q0 18 14 33.5t38 24q24 8.5 53.5 8.5t53.5-8.5q24-8.5 38-23t15-31.5q39-4 63.5-22.5T300 205v-96zM194 71q19 0 35 6t25 14.5q9 8.5 9 17.5 0 12-16 23t-41 14q-7-15-20-25l8 1q18 0 31-4t13-9q0-5-13-9t-31-4q-21-1-40 8-13-4-25-6 7-11 24.5-19t40.5-8zm-88 63q20 0 35.5 5.5T166 154q9 9 9 17.5t-9 17.5q-9 9-24.5 14.5t-35 5.5Q87 209 71 203.5T46.5 189q-8.5-9-8.5-17.5t8.5-17.5q8.5-9 24.5-14.5t35-5.5zm69 134q0 6-9 12.5t-24.5 11q-15.5 4.5-35 4.5T71 291.5q-16-4.5-24.5-11T38 268v-39q32 18 68.5 18t68.5-18v39zm38-35v-50q26-3 49-16v38q1 8-13.5 16.5T213 233zM63 171q0-4 12.5-8t31-4q18.5 0 31 4t12.5 8.5q0 4.5-12.5 8.5t-31 4Q88 184 75 180t-12-8v-1z"/></svg>