<svg viewBox="0 0 300 368" xmlns="http://www.w3.org/2000/svg"><path d="M88 196q6 0 12 3v70q-6 3-13 3-15 0-26-11t-11-27q0-16 11-26.5T87 197l1-1zm12-96q-6-4-13-4-10 0-17 7.5t-7 18q0 10.5 7 17.5t18 7q6 0 12-3v-43zm200 3v162q0 19-9.5 34.5t-25 25Q250 334 231 334h-37q-19 0-34.5-9.5t-25-25Q125 284 125 265V103q0-19 9.5-34.5t25-25Q175 34 194 34h37q19 0 34.5 9.5t25 25Q300 84 300 103zm-37 0q0-13-9.5-22.5T231 71h-37q-13 0-22 9.5t-9 22.5v162q0 13 9 22t22 9h37q13 0 22-9t9-22V103h1zM113 53q-1-8-6-13.5T94 34H69q-19 0-34.5 9.5t-25 25Q0 84 0 103v162q0 19 9.5 34.5t25 25Q50 334 69 334h25q8 0 13.5-5.5T113 315q0-8-5.5-13.5T94 296H69q-13 0-22.5-9T37 265V103q1-13 10-22.5T69 71h25q8 0 13.5-5t5.5-13zm100 143q-16 1-27 11.5T175 234q0 16 11 26.5t26.5 10.5q15.5 0 26.5-10.5t11-26.5q0-16-11-26.5T212 197l1-1zm0-50q10 0 17.5-7t7.5-17.5q0-10.5-7.5-18t-18-7.5q-10.5 0-17.5 7.5t-7 18q0 10.5 7 17.5t18 7z"/></svg>