<svg viewBox="0 0 300 368" xmlns="http://www.w3.org/2000/svg"><path d="M150 34q-36 0-66 17.5t-47.5 48Q19 130 19 165q0 54 82 147 9 10 22 16t27 6q14 0 27-6t23-16q81-93 81-147 0-35-17.5-65.5t-47.5-48Q186 34 150 34zm21 253q-8 9-21 9t-21-9q-35-39-54-71t-19-51q0-25 12.5-46.5t34-34Q124 72 149.5 72t47 12.5Q218 97 231 118.5t13 46.5q0 19-19 51t-54 71zm-21-177q-23 0-39 16t-16 38.5q0 22.5 16 38.5t39 16q23 0 39-16t16-38.5q0-22.5-16-38.5t-39-16zm0 71q-5 0-9.5-2.5T134 171q-2-5-1-10t5-8.5q4-3.5 9-4.5t9.5.5q4.5 1.5 7.5 6t3 10.5q0 6-5 11t-12 5z"/></svg>