<svg viewBox="0 0 300 368" xmlns="http://www.w3.org/2000/svg"><path d="M300 115v138q0 19-7 36t-20 30l-10 10q-5 5-13 5t-13.5-5.5Q231 323 231 315t6-13l9-9q17-17 17-40v-14l-31 30q-5 5-13 5t-13.5-5.5q-5.5-5.5-5.5-13t6-13.5l30-30q2-3 1.5-6.5t-3-6q-2.5-2.5-7-2.5t-7.5 3l-50 50q5 14 5 30v35q0 8-5.5 13.5T156 334q-8 0-13-5.5t-5-13.5v-35q0-23-21-44l-36-35q-3-4-7-4.5t-7.5 2q-3.5 2.5-4 6.5t1.5 7l31 31q5 5 5 13t-5.5 13.5q-5.5 5.5-13 5.5T68 269l-30-30v14q0 23 16 40l9 9q6 5 6 13t-5.5 13.5Q58 334 50 334t-13-6l-9-9q-14-13-21-30t-7-36V115q0-13 9-22t22-9q13 0 22.5 9t9.5 22v45q12-2 24 1.5t21 12.5l42 43 43-44q9-9 21-12t24 0v-46q0-13 9-22t22-9q13 0 22 9t9 22zm-160 28q5 4 10 4t10-4q19-15 33-32 20-25 20-43 0-14-9.5-24T181 34q-13 0-22 10t-9 24q0-14-9-24t-22-10q-13 0-22 10t-9 24q0 18 19 43 14 17 33 32z"/></svg>