<svg viewBox="0 0 300 368" xmlns="http://www.w3.org/2000/svg"><path d="M219 334q-30 1-67-17.5T80.5 266Q46 234 25 199 2 160 1 125q-2-39 22-67l14-12q13-12 30.5-11.5T98 47l27 29q13 13 12.5 30.5T125 137l-5 5q11 24 29.5 42.5T192 214l5-5q13-12 31-12t31 12l28 26q13 13 13 31t-12 31l-12 14q-12 11-26.5 17t-30.5 6zM49 85q-17 22-9 56 8 30 33.5 63t59.5 58q34 25 64 32 33 8 52-9l12-14q2-2 2-4.5t-2-4.5l-28-26q-3-2-5-2t-5 2l-14 14q-4 4-9.5 5t-10.5-1q-38-14-66.5-42.5T80 145q-2-5-1-10.5t5-9.5l14-14q2-2 2-4.5t-2-4.5L71 73q-2-2-4-1.5T63 73L49 85zm161 138zm90-70q0-32-16-59.5T240.5 50Q213 34 181 34q-8 0-13.5 5.5t-5 13.5q.5 8 5.5 13.5t13 5.5q22 0 41 10.5t29.5 29.5q10.5 19 11.5 41 0 8 5 13.5t13 5q8-.5 13.5-5.5t5.5-13zm-62 0q-1-24-17-40t-40-17q-8 0-13.5 5.5t-5 13.5q.5 8 5.5 13.5t13 5.5q8 0 13.5 5.5T200 153t5.5 13.5q5.5 5.5 13.5 5t13.5-5.5q5.5-5 5.5-13z"/></svg>