<svg viewBox="0 0 300 368" xmlns="http://www.w3.org/2000/svg"><path d="M169 315q0 8-5.5 13.5T150 334q-8 0-13.5-5.5T131 315q0-8 5.5-13.5T150 296q8 0 13.5 5.5T169 315zm44-19q-8 0-13.5 5.5T194 315q0 8 5.5 13.5t13 5.5q7.5 0 13-5.5T231 315q0-8-5.5-13.5T213 296zm62 0q-8 0-13.5 5.5T256 315q0 8 5.5 13.5T275 334q8 0 13.5-5.5T294 315q0-8-5.5-13.5T275 296zm-187 0q-8 0-13.5 5.5T69 315q0 8 5.5 13.5t13 5.5q7.5 0 13-5.5T106 315q0-8-5.5-13.5T88 296zm-63 0q-8 0-13.5 5.5T6 315q0 8 5.5 13.5T25 334q8 0 13.5-5.5T44 315q0-8-5.5-13.5T25 296zM181 47q-13-13-31-13t-31 12l-57 56q-6 5-6 13t5.5 13.5q5.5 5.5 13 5.5t13.5-5l43-42v166q0 8 5.5 13t13.5 5q8 0 13.5-5t5.5-13V87l43 42q5 5 13 5t13.5-5.5Q244 123 244 115t-6-13l-57-55z"/></svg>