<svg viewBox="0 0 300 368" xmlns="http://www.w3.org/2000/svg"><path d="M206 159q-11 0-16-9.5t0-18.5q5-9 16-9h13q11 0 16 9t0 18.5q-5 9.5-16 9.5h-13zm-43 55q0-14-8-25t-21-16l-29-12q-4-2-4.5-5.5t1.5-6.5q2-3 5-2h15q4-1 6 3 3 6 10.5 8t14.5-1.5q7-3.5 9-11t-2.5-15q-4.5-7.5-12-13T130 110q-2-9-10-12t-16 .5Q96 102 94 111q-19 5-27 23t-1.5 36.5Q72 189 91 195l29 12q4 2 4.5 5.5T123 219q-2 3-5 2h-15q-4 1-6-3-3-6-10.5-8T72 211.5q-7 3.5-9 11t2.5 15q4.5 7.5 12 13T95 258q2 9 10 12t16-.5q8-3.5 10-12.5 14-4 23-16t9-27zm68-168H69q-19 0-34.5 9.5T9.5 81Q0 97 0 115v138q0 18 9.5 34t25 25q15.5 9 34.5 9h37q12 0 16.5-9t0-18.5Q118 284 106 284H69q-13 0-22.5-9T37 253V115q1-13 10-22t22-9h162q13 0 22 9t9 22v25q1 12 10 16.5t18.5 0Q300 152 300 140v-25q0-18-9.5-34t-25-25.5Q250 46 231 46zm-65 232q-16 15-16 38v4q0 7 1 10.5t6 3.5q33 2 50-16l84-84q9-10 9-21.5t-8-19.5q-8-8-19.5-9t-21.5 8l-85 86z"/></svg>