<svg viewBox="0 0 300 368" xmlns="http://www.w3.org/2000/svg"><path d="M251 184q-10 0-19 3-10-67-67-145-6-8-15-8t-15 8q-57 78-67 145-9-3-19-3-12 0-23.5 8T7 214q-7 14-7 32 0 24 11 43.5T41.5 321Q61 333 84 334q20 0 37-9t29-24q12 15 29 24t37 9q23-1 42.5-13t30.5-31.5q11-19.5 11-43.5 0-18-7-32t-18.5-22q-11.5-8-23.5-8zM150 86q32 45 44 99-6-1-13-1-18 1-31 14-13-13-31-14-7 0-13 1 12-54 44-99zM84 296q-19-1-33-15.5T37 246q1-11 5-19 4-5 7-6 8 0 15 5.5t16 7.5h8q10-2 16.5-7.5T119 221q3 1 7 6 5 8 5 19 0 20-13.5 34.5T84 296zm132 0q-20-1-33.5-15.5T169 246q0-11 5-19 4-5 7-5 8-1 14.5 4.5T212 234h8q9-2 15.5-7.5T250 221q4 1 7 6 6 8 5 19 1 20-13 34.5T216 296z"/></svg>