<svg viewBox="0 0 300 368" xmlns="http://www.w3.org/2000/svg"><path d="M86 327q-15 0-27-8.5T42.5 296q-4.5-14-.5-28l15-46-38-28q-12-9-16.5-23t0-27.5Q7 130 19 121t26-9h48l14-44q4-14 16-23t27-9q15 0 27 9t16 23l15 44h47q14 0 26 9t16.5 22.5q4.5 13.5 0 27.5T281 194l-38 28 15 46q4 14-.5 28T241 318.5q-12 8.5-27 8.5t-26-9l-38-28-37 28q-12 9-27 9zM45 150q-5 0-7 5.5t3 8.5l49 36q5 4 7 9.5t0 11.5l-19 58q-2 5 3 8.5t9 .5l49-36q5-4 11-4t11 4l49 36q2 1 4.5 1t4.5-1.5q2-1.5 3-4t0-4.5l-19-58q-2-6 0-11.5t7-9.5l49-36q5-3 3-8.5t-7-5.5h-61q-6 0-11-3.5t-7-9.5l-18-58q-2-5-8-5t-7 5l-19 58q-2 6-7 9.5t-11 3.5H45z"/></svg>