<svg viewBox="0 0 300 368" xmlns="http://www.w3.org/2000/svg"><path d="M181 284h-68v-56q0-8-5.5-13.5T94 209H50v-56q0-8-5.5-13.5T31 134q-8 0-13.5 5.5T13 153v100q-1 18 8.5 34T47 312q16 9 34 9h100q8 0 13.5-5t5.5-13q0-8-5.5-13.5T181 284zM50 253v-7h25v37q-11-2-18-10.5T50 253zm244 49l-15-16q9-16 9-33V115q0-18-9.5-34T253 55.5Q237 46 219 46H81q-17 0-33 9L32 39q-6-5-13.5-5t-13 5.5Q0 45 0 52.5T5 66l263 262q5 6 13 6t13.5-5.5Q300 323 300 315t-6-13zM113 84h75v75h-36l-39-39V84zm137 125h-25v-50h25v50zm0-94v6h-25V85q11 2 18 10.5t7 19.5z"/></svg>