<svg viewBox="0 0 300 368" xmlns="http://www.w3.org/2000/svg"><path d="M150 34q-41 0-75.5 20T20 108.5Q0 143 0 184t20 75.5Q40 294 74.5 314t75.5 20q41 0 75.5-20t54.5-54.5q20-34.5 20-75.5t-20-75.5Q260 74 225.5 54T150 34zm0 262q-31 0-56.5-15t-41-40.5Q37 215 37.5 184T53 127.5q15-25.5 40.5-41t56.5-15q31 .5 56.5 15.5t40.5 40.5q15 25.5 15.5 56.5t-15 56.5Q232 266 206.5 281T150 296zm71-112l11-12q6-5 6-13t-5.5-13.5Q227 140 219 140t-13 6l-12 11-17-17 11-12q5-5 5-13t-5.5-13.5q-5.5-5.5-13-5.5t-13.5 6l-11 11-11-11q-6-6-14-6t-13 5.5q-5 5.5-5 13.5t5 13l12 12-18 17-11-11q-6-5-13.5-5t-13 5.5q-5.5 5.5-5.5 13t5 13.5l11 11-11 11q-5 6-5 13.5t5.5 13q5.5 5.5 13 5.5t13.5-5l11-12 18 18-12 11q-5 6-5 13.5t5.5 13q5.5 5.5 13 5.5t13.5-5l11-12 12 12q5 5 13 5t13.5-5.5q5.5-5.5 5.5-13t-6-13.5l-11-11 17-18 12 12q5 6 13 5.5t13.5-5.5q5.5-5 5.5-13t-6-14l-11-11zm-71 17l-18-17 18-18 18 18-18 17z"/></svg>