<svg viewBox="0 0 300 368" xmlns="http://www.w3.org/2000/svg"><path d="M260 111q-6-17-20.5-28T206 72q-11-18-29-28t-39-10q-28 0-49.5 18T61 97q-26 3-43.5 22.5T0 165q0 22 10.5 40t28 29Q56 245 77 246q6 19 8.5 39.5t19 34.5q16.5 14 37.5 14h16q21 0 37.5-14t18.5-35q3-35 20-65 22 4 40.5-8t23.5-33.5q5-21.5-6-41T260 111zM158 296h-16q-7 1-12.5-4t-6.5-12q-3-21-9-41 11-5 20-13 17 8 35 8 10 0 19-3-8 24-11 49-1 7-6.5 12t-12.5 4zm86-112q-8 0-13.5-5.5T225 165t-5.5-13.5Q214 146 206 146t-13.5 5.5Q187 157 187 165q1 10 4 20-4 5-10 8t-12 3q-14 0-25-7-6-5-14-5t-13 6q-14 17-36 19-18 0-31-13t-13-31q1-13 10-22t22-9q8 0 13.5 5.5T88 153q0 8 5 13.5t13 5q8-.5 13.5-5.5t5.5-13q0-15-7.5-28T98 105q3-15 14-24t25-9q14 0 25 7.5T178 99q3 6 9.5 9.5T201 110q2-1 5-1 8 0 13.5 5.5T225 128t5.5 13.5q5.5 5.5 13.5 5t13.5 5Q263 157 263 165t-5.5 13.5Q252 184 244 184z"/></svg>