<svg viewBox="0 0 300 368" xmlns="http://www.w3.org/2000/svg"><path d="M247 98l-47-44q-10-9-23-14.5T150 34q-14 0-27 5t-23 15L53 98q-27 27-36 62.5t0 71Q26 267 53 294q19 19 44 29.5t53 10.5q28 0 53-10.5t44-29.5q27-27 36-62.5t-.5-71Q273 125 247 98zm-26 169q-14 14-32.5 21.5T150 296q-20 0-38.5-7.5T79 267q-19-19-25.5-45t0-52Q60 144 79 125l47-44q10-10 24-10t24 11l47 43q19 19 25.5 45t0 52q-6.5 26-25.5 45zm-36-81q15 14 15 35t-14.5 35.5Q171 271 150 271t-35.5-14.5Q100 242 100 221t15-35l19-21q7-6 16-6t16 6l19 21z"/></svg>