<svg viewBox="0 0 300 368" xmlns="http://www.w3.org/2000/svg"><path d="M231 59H69q-19 0-34.5 9.5t-25 25Q0 109 0 128v112q0 19 9.5 34.5t25 25Q50 309 69 309h162q19 0 34.5-9.5t25-25Q300 259 300 240V128q0-19-9.5-34.5t-25-25Q250 59 231 59zm32 181q0 13-9.5 22.5T231 272H69q-13-1-22-10t-9-22V128q0-13 9-22t22-9h162q13-1 22.5 8.5T263 128v112zm-25-100v63q0 4-2 8l-13 25q-2 5-7 7.5t-9.5 3q-4.5.5-8.5-1.5-7-4-9.5-11.5t.5-14.5l11-21v-58q0-8 5.5-13.5T219 121q8 0 13 5.5t5 13.5h1zm-113-19q-17 0-31.5 8.5t-22.5 23Q63 167 63 184t8 31.5Q79 230 93.5 238t31.5 8q17 0 31.5-8t23-22.5q8.5-14.5 8-31.5t-8.5-31.5q-8-14.5-22.5-23T125 121zm0 82q-8 0-13.5-5.5T106 184q0-8 5.5-13.5T125 165q8 0 13.5 5.5T144 184q0 8-5.5 13.5T125 203z"/></svg>