<svg viewBox="0 0 300 368" xmlns="http://www.w3.org/2000/svg"><path d="M150 246h-44q-8 0-13-5t-5-13v-44q0-17 8-31.5t22.5-23Q133 121 150 121h44q8 0 13.5 5.5T213 140v44q0 17-8.5 31.5t-23 22.5q-14.5 8-31.5 8zm-25-37h25q10 0 17.5-7.5T175 184v-25h-25q-10 0-17.5 7.5T125 184v25zm72-114q6-4 8.5-11.5T204 69q-10-17-27-26-7-4-14.5-2t-11 9q-3.5 7-1.5 14.5t9.5 11.5q7.5 4 11.5 12 3 4 7.5 6.5T188 97q5 0 9-2zM61 231q4-7 1.5-14.5T53 205q-7-4-11-11.5T30.5 184q-7.5-2-14.5 1.5t-9 11Q5 204 9 211q9 18 27 27 4 2 9 2t9.5-2.5Q59 235 61 231zM41 88q5-8 12-12t9.5-11.5Q65 57 61 50t-11.5-9Q42 39 35 42 18 52 9 69q-4 7-2 14.5T16 95q4 2 9 2t9.5-2.5Q39 92 41 88zm243 94q7-3 9-10.5t-2-14.5q-9-18-26-27-7-4-14.5-1.5t-11.5 9q-4 6.5-1.5 14T247 163q7 4 12 12 2 5 6.5 7.5t9.5 2.5q5 0 9-3zM148 318q4-7 2-14.5t-9.5-11.5q-7.5-4-11.5-11.5t-11.5-9.5q-7.5-2-14 2t-9 11.5Q92 292 96 298q10 18 27 27 4 3 9 3t9.5-2.5q4.5-2.5 7.5-7.5h-1zm117 7q17-9 26-27 4-6 2-13.5t-9-11.5q-7-4-14.5-1.5T258 281q-4 7-11.5 11t-9.5 11.5q-2 7.5 2 14.5 2 5 6.5 7.5t9.5 2.5q5 0 9-3h1zM88 53q0 8 5 13t13 5q8 0 13.5-5t5.5-13q0-8-5.5-13.5T106 34q-8 0-13 5.5T88 53zM0 140q0 8 5.5 13.5T19 159q8 0 13.5-5.5T38 140q0-8-5.5-13.5T19 121q-8 0-13.5 5.5T0 140zm213 175q0-8-5.5-13.5T194 296q-8 0-13.5 5.5T175 315q0 8 5.5 13.5T194 334q8 0 13.5-5.5T213 315zm87-87q0-8-5.5-13.5T281 209q-8 0-13 5.5t-5 13.5q0 8 5 13.5t13 5.5q8 0 13.5-5.5T300 228z"/></svg>