<svg viewBox="0 0 300 368" xmlns="http://www.w3.org/2000/svg"><path d="M91 104q7 1 11 6.5t4 11.5q0 9-6.5 14.5T84 141l-6-1q-7-1-11-6.5T63 121q0-9 6.5-14.5T85 103l6 1zm0 61q-3 0-6-1-9-2-16 3.5T62 182h1q0 7 4 12.5t11 6.5l6 1q9 1 15.5-4.5T106 183q0-6-4-11.5T91 165zM19 334zm262 0h0zm19-18q-1 8-6 13t-13 5q-37-2-80-14-28-7-51-16-23 9-51 16-43 12-80 14-8 0-13-5T.5 316.5Q0 309 5 303t13-6q18-2 39-5l-5-2q-23-6-37.5-24.5T0 224V103q0-16 6.5-29.5T25 50q12-10 26.5-14T81 35l21 5q14 3 22 4 12 2 26 2t26-2q8-1 22-4l21-5q15-3 29.5 1T275 50q12 10 18.5 23.5T300 103v121q0 23-14.5 41.5T248 290l-5 2q21 3 39 5 8 0 13 6t5 13zM131 83q-15-1-38-7l-19-4h-5q-12 0-20 7-11 9-11 24v121q0 10 6.5 18.5T61 254q34 9 70 11V83zm108 171q10-3 17-11.5t7-18.5V103q0-15-11.5-24.5T226 72l-19 4q-23 6-38 7v182q36-2 70-11zm-24-151q-3 1-6 1-7 1-11 6.5t-4 13q0 7.5 6.5 13T216 141l6-1q7-1 11.5-6.5T238 120q0-8-7-13.5t-16-3.5zm0 61q-3 1-6 1-7 1-11 6.5t-4 13q0 7.5 6.5 13T216 202l6-1q7-1 11.5-6.5T238 181q0-8-7-13.5t-16-3.5z"/></svg>