<svg viewBox="0 0 300 368" xmlns="http://www.w3.org/2000/svg"><path d="M281 146q8 0 13.5-5t5.5-13V78q0-18-13-31t-31-13h-50q-8 0-13.5 5.5t-5 13.5q.5 8 5.5 13.5t13 5.5h30l-86 85-86-86h30q8 0 13.5-5t5-13q-.5-8-5.5-13.5T94 34H44q-18 0-31 13T0 78v50q0 8 5.5 13.5t13.5 5q8-.5 13.5-5.5t5.5-13V98l85 86-85 86v-30q0-8-5.5-13.5T19 221q-8 0-13.5 5.5T0 240v50q0 18 13 31t31 13h50q8 0 13.5-5.5t5-13.5q-.5-8-5.5-13.5T94 296H64l86-85 86 85h-30q-8 0-13.5 5.5t-5 13.5q.5 8 5.5 13.5t13 5.5h50q18 0 31-13t13-31v-50q0-8-5.5-13.5t-13.5-5q-8 .5-13.5 5.5t-5.5 13v30l-85-86 86-86v30q0 8 5 13.5t13 5.5v-1z"/></svg>