<svg viewBox="0 0 300 368" xmlns="http://www.w3.org/2000/svg"><path d="M106 296H56q-8 0-13.5-5t-5-13q.5-8 5.5-13.5t13-5.5h38q8 0 13.5-5.5T113 240V71h93q13 0 22 9.5t10 22.5v25q0 8 5 13t13 5q8 0 13.5-5t5.5-13v-25q0-19-9.5-34.5t-25-25Q225 34 206 34H69q-19 0-34.5 9.5t-25 25Q0 84 0 103v175q0 23 16.5 39.5T56 334h50q8 0 13.5-5.5T125 315q0-8-5.5-13.5T106 296zM69 71h6v150H56q-9 0-18 4V103q0-13 9-22.5T69 71zm150 100q-22 0-41 11t-29.5 30Q138 231 138 253t10.5 40.5Q159 312 178 323t41 11q22 0 40.5-11t29.5-29.5q11-18.5 11-40.5t-11-41q-11-19-29.5-30T219 171zm52 90l-38 39q-4 3-8.5 3t-8-3.5Q213 296 213 291v-20h-32q-8 0-13.5-5t-5.5-13q0-8 5.5-13.5T181 234h32v-20q0-5 3.5-8.5t8-3.5q4.5 0 8.5 4l38 38q4 4 4 9t-4 8z"/></svg>