<svg viewBox="0 0 300 368" xmlns="http://www.w3.org/2000/svg"><path d="M198 135l-42-64q8 0 13.5-5t5.5-13q0-8-5.5-13.5T156 34h-25q-18 0-31 13T87 78v56H47l-8-12q-4-7-13.5-10.5t-17-1Q1 113 0 123v122q0 6 4 10t10 4q8 0 14.5-3.5T39 245l8-11h41v56q0 18 12.5 31t30.5 13h25q8 0 13.5-5.5T175 315q0-8-5.5-13.5T156 296l42-63q39-2 66-12 24-10 32.5-23.5t0-27Q288 157 264 147q-27-10-66-12zm-12 62q-9 0-14 8l-47 70v-60q0-8-5.5-13t-13.5-6H50v-25h56q8 0 13.5-5t5.5-13V93l47 70q5 8 14 9 36 2 69 12-33 11-69 13z"/></svg>