<svg viewBox="0 0 300 368" xmlns="http://www.w3.org/2000/svg"><path d="M283 100q-8-4-17-3.5t-17 5.5l-36 34v-7q0-9-4.5-16.5t-12.5-12q-8-4.5-16.5-4T163 101l-50 39V70q5-2 8.5-6.5T125 52q0-7-5.5-12.5T106 34H19q-8 0-13.5 5.5T0 52q0 7 3.5 11.5T13 70v195q0 19 9 34.5t25 25q16 9.5 34 9.5h150q19 0 34.5-9.5t25-25Q300 284 300 265V129q0-9-4.5-17T283 100zm-20 165q0 13-9.5 22t-22.5 9H81q-13 0-22-9t-9-22V71h25v182q0 8 5.5 13.5t13.5 5q8-.5 13.5-5.5t5.5-13v-66l62-47v38q0 5 3 10t8 7q5 2 10.5 1t9.5-4l57-51v124zm-88-19v13q0 5-3.5 9t-9.5 3h-12q-5 0-8.5-3.5T138 259v-13q0-5 3.5-8.5t8.5-3.5h13q5 0 8.5 3.5t3.5 8.5zm38-12h12q5 0 8.5 3.5t3.5 8.5v13q0 5-3.5 9t-8.5 3h-12q-6 0-9.5-3.5T200 259v-13q0-5 3.5-8.5t9.5-3.5z"/></svg>