<svg viewBox="0 0 300 368" xmlns="http://www.w3.org/2000/svg"><path d="M225 190q0 13-9 22t-22 9q-13 0-22.5-9t-9-22q.5-13 9.5-22t22-9q13 0 22 9t9 22zm-87 0q0-13-9.5-22t-22.5-9q-13 0-22 9t-9 22q0 13 9 22t22 9q13 0 22.5-9t8.5-22h1zm162-6q0 41-20 75.5T225.5 314Q191 334 150 334t-75.5-20Q40 294 20 259.5T0 184q0-41 20-75.5T74.5 54Q109 34 150 34t75.5 20Q260 74 280 108.5t20 75.5zm-37 0q-1-31-16-56.5t-40.5-41Q181 71 150 71.5T93.5 87q-25.5 15-41 40.5t-15 56.5q.5 31 15.5 56.5t40.5 41q25.5 15.5 56.5 15t56.5-15.5q25.5-15 41-40.5T263 184zm-148-63q5-1 8-5.5t2-9.5q-1-5-5.5-7.5T110 97q-12 3-24 11t-21 18q-3 4-2.5 9.5T67 144q4 3 9 3t9-5q6-8 14.5-13.5T115 121zm120 5q-9-10-21-18t-24-11q-5-1-9.5 1.5T175 106q-1 5 2 9.5t8 5.5q7 2 15.5 7.5T215 142q4 4 9 4t9-2.5q4-2.5 4.5-8T235 126zm-85 108q-13 0-23 8.5T113 262q-1 3 1 6t6 3h60q4 0 6-3t1-6q-4-11-14-19.5t-23-8.5z"/></svg>