<svg viewBox="0 0 300 368" xmlns="http://www.w3.org/2000/svg"><path d="M150 309q-25 0-44-16-44-37-71-72-35-46-35-85 0-24 11.5-44.5t30.5-33Q61 46 84 46q20 0 37 9t29 25q12-16 29-25t37-9q22 0 41.5 12.5t31 33Q300 112 300 136q0 39-35 85-27 35-71 72-19 16-44 16zM84 84q-19 0-32.5 15.5T38 136q0 25 24 58.5t68 69.5q9 7 20 7t20-7q44-36 68.5-69.5T263 136q0-21-14-36.5T216 84q-19 0-33 15.5T169 136q0 8-6 14l-12 11 27 27q9 9 9 22t-9 22l-9 9q-6 6-13.5 6t-13-5.5Q137 236 137 228t6-13l4-5-25-24q-10-10-10-24t10-25l9-8q-3-19-16-32T84 84z"/></svg>