<svg viewBox="0 0 300 368" xmlns="http://www.w3.org/2000/svg"><path d="M159 121q-12 1-20 10t-8 21q1-12-7.5-21t-20.5-9q-12 0-20.5 9T75 152q0 16 18 38 12 14 30 28 3 4 8 4t9-4q18-14 30-28 18-22 18-38 0-12-8-21t-21-10zm136 181l-59-58q22-29 26-63.5t-9.5-66.5q-13.5-32-42-53.5T147 35q-35-4-67 9.5t-53.5 42Q5 115 1 150t9.5 67Q24 249 53 270q23 18 50.5 24t55.5 0q28-6 51-24l58 58q6 6 13.5 6t13-5.5Q300 323 300 315t-5-13zM39 166q0-26 12.5-47t34-34Q107 72 132 72t46.5 13q21.5 13 34 34t12.5 46.5q0 25.5-12.5 47t-34 34Q157 259 132 259t-46.5-12.5q-21.5-12.5-34-34T39 166z"/></svg>