<svg viewBox="0 0 300 368" xmlns="http://www.w3.org/2000/svg"><path d="M281 46H144q-8 1-13.5 6T125 65q0 8 5.5 13.5T144 84h137q8 0 13.5-5.5T300 65q0-8-5.5-13.5T281 46zm-50 75h-87q-8 0-13.5 5.5T125 140q0 8 5.5 13.5T144 159h87q8 0 13.5-5.5T250 140q0-8-5.5-13.5T231 121zm-50 75h-37q-8 0-13.5 5.5T125 215q0 8 5.5 13.5T144 234h37q8 0 13.5-5.5T200 215q0-8-5.5-13.5T181 196zm-66 68H88V53q-1-8-6-13.5T69 34q-8 0-13.5 5.5T50 53v211H25q-5 0-9 3.5t-3.5 9Q13 282 16 286l45 44q4 4 9 4t9-4l44-44q4-4 4-9.5t-3.5-9Q120 264 115 264z"/></svg>