<svg viewBox="0 0 300 368" xmlns="http://www.w3.org/2000/svg"><path d="M258 102q4-5 4.5-12.5t-5-13Q252 71 244 71h-50q-8 0-13.5 5.5T175 90q0 3 1 7h-76V71h6q8 0 13.5-5t5.5-13q0-8-5.5-13.5T106 34H56q-8 0-13 5.5T38 53q0 8 5 13t13 6h7v25q-27 2-45 22T0 165v75q0 20 10 36.5T37 301v14q0 8 5.5 13.5T56 334q8 0 13.5-5.5T75 315v-6h150v6q0 8 5.5 13.5T244 334q8 0 13.5-5.5T263 315v-14q17-8 27-24.5t10-36.5v-75q0-20-11.5-37.5T258 102zm5 138q-1 13-10 22t-22 9H69q-13 1-22-8.5T38 240v-75q0-13 9-22t22-9h162q13 0 22 9t9 22l1 75zm-160-32l24 12q2 1 3 3.5t-1 4.5q-6 9-15.5 13.5T94 246q-16 1-28-9t-15-25.5q-3-15.5 4-29t21.5-20q14.5-6.5 29.5-2t24 17.5q1 2 .5 4.5T127 186l-24 13q-3 1-3 4t3 5zm146 3q0 2-2.5 3.5t-4.5.5l-26-9q-3-1-5.5 1.5T209 213l9 25q1 3-.5 5.5T213 246q-9 1-18.5-1.5T178 236q-7-6-11-14.5t-4-18.5q-1-13 5.5-23.5t18-16.5q11.5-6 24-4.5t22.5 9q10 7.5 14.5 19T249 211z"/></svg>