<svg viewBox="0 0 300 368" xmlns="http://www.w3.org/2000/svg"><path d="M113 215q0 13-9.5 22T81 246q-13 0-22-9t-9-22q0-13 9-22t22-9q13 0 22 9t9 22h1zM300 96v219q0 8-5.5 13.5T281 334q-8 0-13-5.5t-5-13.5v-19H38v19q0 8-5.5 13.5T19 334q-8 0-13.5-5.5T0 315V53q0-8 5.5-13.5T19 34q8 0 13 5.5T37 53v56h88V96q0-16 8.5-30.5t23-23Q171 34 188 34h50q16 0 30.5 8.5t23 23Q300 80 300 97v-1zm-137 13h100V96q0-10-7.5-17.5T238 71h-50q-11 0-18.5 7.5T162 96v13h1zM38 259h87v-13q0-16 8.5-30.5t23-23Q171 184 188 184h75v-38H38v113zm225 0v-38h-75q-11 0-18.5 7.5T162 247v12h101zM81 96q13 0 22.5-9t9.5-22q0-13-9.5-22T81 34q-13 0-22 9t-9 22q0 13 9 22.5T81 97v-1z"/></svg>