<svg viewBox="0 0 300 368" xmlns="http://www.w3.org/2000/svg"><path d="M144 234q-8 0-13.5 5.5T125 253v10q0 14-10 23.5T91 296H71q-14 1-24-9t-10-24V105q1-14 10.5-24T71 71h20q14 0 24 10t10 24v10q0 8 5.5 13.5T144 134q8 0 13-5.5t6-13.5v-10q-1-19-10.5-35.5t-25.5-26Q111 34 91 34H71q-19 0-35.5 9.5t-26 26Q0 86 0 105v158q0 19 9.5 35.5t26 26Q52 334 71 334h20q20 0 36-9.5t25.5-26Q162 282 163 263v-10q0-8-5.5-13.5T144 234zm138-81l-57-57q-6-6-13.5-6t-13 5.5Q193 101 193 109t5 13l43 43H88q-8 0-13.5 5.5T69 184q0 8 5.5 13.5T88 203l153-1-43 44q-5 5-5 13t5.5 13.5q5.5 5.5 13 5.5t13.5-6l57-57q13-13 13-31t-13-31z"/></svg>