<svg viewBox="0 0 300 368" xmlns="http://www.w3.org/2000/svg"><path d="M300 184q0 8-5.5 13.5T281 203H169v112q0 8-5.5 13.5T150 334q-8 0-13.5-5.5T131 315V203H19q-8 0-13.5-5.5T0 184q0-8 5.5-13.5T19 165h112V53q0-8 5.5-13.5T150 34q8 0 13.5 5.5T169 53v112h112q8 0 13.5 5.5T300 184zM19 71q8 0 13.5-5T38 53q0-8-5.5-13.5T19 34q-8 0-13.5 5.5T0 53q0 8 5.5 13T19 71zm0 63q8 0 13.5-5.5T38 115q0-8-5.5-13.5T19 96q-8 0-13.5 5.5T0 115q0 8 5.5 13.5T19 134zm262-38q-8 0-13 5.5t-5 13.5q0 8 5 13.5t13 5.5q8 0 13.5-5.5T300 115q0-8-5.5-13.5T281 96zM19 234q-8 0-13.5 5.5T0 253q0 8 5.5 13t13.5 5q8 0 13.5-5t5.5-13q0-8-5.5-13.5T19 234zm262 0q-8 0-13 5.5t-5 13.5q0 8 5 13t13 5q8 0 13.5-5t5.5-13q0-8-5.5-13.5T281 234zm0-163q8 0 13.5-5t5.5-13q0-8-5.5-13.5T281 34q-8 0-13 5.5T263 53q0 8 5 13t13 5zm-62 0q8 0 13.5-5t5.5-13q0-8-5.5-13.5T219 34q-8 0-13.5 5.5T200 53q0 8 5.5 13t13.5 5zM81 71q8 0 13.5-5t5.5-13q0-8-5.5-13.5T81 34q-8 0-13 5.5T63 53q0 8 5 13t13 5zM19 296q-8 0-13.5 5.5T0 315q0 8 5.5 13.5T19 334q8 0 13.5-5.5T38 315q0-8-5.5-13.5T19 296zm262 0q-8 0-13 5.5t-5 13.5q0 8 5 13.5t13 5.5q8 0 13.5-5.5T300 315q0-8-5.5-13.5T281 296zm-62 0q-8 0-13.5 5.5T200 315q0 8 5.5 13.5T219 334q8 0 13.5-5.5T238 315q0-8-5.5-13.5T219 296zm-138 0q-8 0-13 5.5T63 315q0 8 5 13.5t13 5.5q8 0 13.5-5.5T100 315q0-8-5.5-13.5T81 296z"/></svg>