<svg viewBox="0 0 300 368" xmlns="http://www.w3.org/2000/svg"><path d="M175 59q0-10 7-17.5t17.5-7.5q10.5 0 18 7.5T225 59q0 10-7.5 17.5t-18 7.5Q189 84 182 76.5T175 59zm118 29q-9-7-20-14-6-4-13.5-2t-12 8.5q-4.5 6.5-2.5 14t9.5 12Q262 111 269 117q6 5 12 5 9 0 14.5-6.5T300 101q-1-8-7-13zM100 284q-10 0-17.5 7.5T75 309q0 10 7.5 17.5T100 334q10 0 17.5-7.5T125 309q0-10-7.5-17.5T100 284zm75-163q-23 0-39.5 16.5T119 178v6q0 15 11 24-2 1-5 1-16 0-27-11t-11-26q1-26 15-48t37-32q7-3 10-10.5t-.5-14.5Q145 60 138 57t-14 1q-34 15-54 46t-20 68q0 20 10 37t27.5 27.5Q105 247 125 247q23-1 39.5-17t16.5-40v-6q0-15-11-24 2-1 5-1 16 0 26.5 11t10.5 26q1 26-13.5 48T161 276q-7 3-10 10.5t0 13.5q3 6 7.5 9t9.5 3q5 0 8-2 34-15 54-46t20-68q0-20-10-37t-27.5-27Q195 122 175 122v-1zM46 262q-8-5-14.5-10.5t-14.5-5Q9 247 4 253t-4 14q1 8 7 13 9 7 20 14 4 3 10 3 10 0 16-9 4-7 2-14.5T46 262z"/></svg>