<svg viewBox="0 0 300 368" xmlns="http://www.w3.org/2000/svg"><path d="M300 103q0-19-9.5-34.5t-25-25Q250 34 231 34H69q-19 0-34.5 9.5t-25 25Q0 84 0 103v12q0 18 12 31v119q1 19 10 34.5t25 25q16 9.5 34 9.5h138q18 0 34-9.5t25-25q9-15.5 10-34.5V146q12-13 12-31v-12zm-262 0q0-13 9-22t22-9h162q13-1 22 8.5t9 22.5v12q1 3-1 4.5t-5 1.5H44q-3 0-4.5-1.5T38 115v-12zm212 162q0 13-9 22.5t-22 9.5H81q-13-1-22-10t-9-22V159h200v106zm-131-81h62q8 0 13.5 5.5T200 203q0 8-5.5 13t-13.5 5h-62q-8 0-13.5-5t-5.5-13q0-8 5.5-13.5T119 184z"/></svg>