<svg viewBox="0 0 300 368" xmlns="http://www.w3.org/2000/svg"><path d="M275 90q0-13-6-24.5t-16.5-20Q242 37 229 35t-25.5 1q-12.5 3-22 12T167 68q-3 7-4 15-3 22-15 34L4 304q-5 6-4 13.5t6.5 12Q12 334 19 334q9 0 15-7l23-31h44l13 28q3 4 7.5 7t9.5 3q5 0 9-2 7-3 9-10.5t-1-14.5l-6-12q10-1 19-4l16 33q2 4 6.5 7t9.5 3q5 0 9-2 7-3 9.5-10.5T211 307l-16-31q31-18 49-49.5t18-67.5v-25h28q5 0 8-3.5t2-7.5q-5-21-25-33zm-44 14q-6 6-6 14v41q0 26-14 49t-37 37q-23 14-49 14H86l29-38q20-2 36.5-13t26-28.5Q187 162 187 141v-15q10-17 13-38 1-3 2-5 3-9 12-11t16 3.5q7 5.5 7 14.5t-6 14z"/></svg>