<svg viewBox="0 0 300 368" xmlns="http://www.w3.org/2000/svg"><path d="M300 259v25q0 21-14.5 35.5T250 334H50q-21 0-35.5-14.5T0 284v-25q0-21 14.5-35.5T50 209h19q8 0 13.5 5.5T88 228q0 8-5.5 13T69 246H50q-5 0-8.5 4t-3.5 9v25q0 5 3.5 8.5T50 296h200q5 0 9-3.5t4-8.5v-25q0-5-4-9t-9-4h-19q-8 0-13-5t-5-13q0-8 5-13.5t13-5.5h19q21 0 35.5 14.5T300 259zM250 34H50q-21 0-35.5 14.5T0 84v25q0 21 14.5 35.5T50 159h81v50h-14q-7 0-10 6.5t2 11.5l34 33q3 3 7 3t8-3l33-33q5-5 2-11.5t-10-6.5h-14v-50h81q21 0 35.5-14.5T300 109V84q0-21-14.5-35.5T250 34z"/></svg>