<svg viewBox="0 0 300 368" xmlns="http://www.w3.org/2000/svg"><path d="M281 34q-8 0-13 5.5T262 53v37q0 23-3 44Q127 34 93 68q-9 9-12 22-1 7-2 19v4h-4q-12 1-19 2-13 3-22 12-33 34 66 166-21 3-44 3H19q-8 1-13.5 6T0 315q0 8 5.5 13.5T19 334h37q107 0 175.5-68.5T300 90V53q0-8-5.5-13.5T281 34zm-76 205q-29 29-66 43-12-15-24-32 36-12 62-39 11-10 20-23 4-6 2.5-13.5t-8-12q-6.5-4.5-14-3T166 167q-7 10-15 18-24 24-57 32-15-23-23-40t-9-25q3-1 13-1t16-1q9-2 16-8.5t9-16.5q1-6 1-16t1-13q13 1 51 23t79 54q-14 37-43 66z"/></svg>