<svg viewBox="0 0 300.0093 368" xmlns="http://www.w3.org/2000/svg"><path d="M260.01 123v-1q-20-35-56-52-5-16-18-26t-30-10h-12q-17 0-30 10t-18 26q-36 17-56 53-16 3-27 14.5T.01 165q-2 16 6 30t22 21q7 26 24 46.5t41 32.5l-5 15q-1 5 0 10t4.5 8.5q3.5 3.5 8.5 5t10 0q5-1.5 8.5-5t4.5-8.5l4-13q11 2 22 2t22-2l4 13q1 5 4.5 8.5t8.5 5q5 1.5 10 0t8.5-5q3.5-3.5 4.5-8.5t0-10l-4-15q23-12 40-32.5t24-46.5q14-7 22-21t6-30q-2-16-13-27.5t-27-14.5zm-10 61h-12q-6 0-9.5-3.5t-3.5-9q0-5.5 3.5-9t8.5-3.5h13q5 0 9 3.5t4 9q0 5.5-4 9t-9 3.5zm-106-113h12q5 0 9 4t4 9q0 5-4 9t-9 4h-12q-5 0-9-4t-4-9q0-5 4-9t9-4zm-81 113h-13q-5 0-8.5-3.5t-3.5-9q0-5.5 3.5-9t8.5-3.5h13q5 0 8.5 3.5t3.5 9q0 5.5-3.5 9t-9.5 3.5h1zm87 87h-11l11-41 12 41h-12zm47-13l-14-49q-3-11-12-18t-20.5-7q-11.5 0-21 7t-12.5 18l-14 49q-22-13-33-37 16-2 28-14t14-28.5q2-16.5-6-31t-23-21.5q8-9 18-16 7 11 18.5 17.5t24.5 6.5h12q13 0 24.5-6.5t18.5-17.5q10 7 18 16-15 7-23 21.5t-6 31q2 16.5 14 28.5t29 14q-12 24-34 37z"/></svg>