<svg viewBox="0 0 300 368" xmlns="http://www.w3.org/2000/svg"><path d="M287 235q13 13 13 31t-12 31l-12 14q-30 27-71 22-34-4-77-30-5-3-7-7t-2-9.5q0-5.5 2.5-9.5t7-6.5q4.5-2.5 9.5-2t10 2.5q22 13 35 18 20 8 34 8 18-1 32-12l12-14q2-2 2-4.5t-2-4.5l-28-26q-3-2-5-2t-5 2l-14 14q-4 4-9 5t-11-1l-6-3q-7-2-10-8.5t-1.5-13q1.5-6.5 7-10.5t12.5-4l6-6q13-12 31-12t31 12l28 26zm8-169L32 329q-5 5-13 5t-13.5-5.5Q0 323 0 315t5-13l56-56q-44-51-56-95-16-54 18-93l14-12q13-12 30.5-11.5T98 47l27 29q13 13 12.5 31T125 137l-5 5q7 15 17 28L268 39q5-5 13-5t13.5 5.5Q300 45 300 53t-5 13zM88 220l22-23q-19-24-30-52-2-5-1-10.5t5-9.5l14-14q2-2 2-4.5t-2-4.5L71 73q-2-2-4-1.5T63 73L49 85q-20 25-5 66 12 31 44 69z"/></svg>