<svg viewBox="0 0 300 368" xmlns="http://www.w3.org/2000/svg"><path d="M250 315q0 8-5.5 13.5T231 334H69q-8 0-13.5-5.5T50 315q0-8 5.5-13t13.5-5h162q8-1 13.5 4.5T250 315zM106 171q-8 1-13.5 6t-5 13q.5 8 5.5 13.5t13 5.5h88q8 0 13-5.5t5.5-13.5q.5-8-5-13.5T194 171h-88zm-12-25h112q8 0 13.5-5t5.5-13q0-8-5.5-13.5T206 109H94q-8 0-13.5 5.5T75 128q0 8 5.5 13t13.5 6v-1zm37-62h38q8 0 13-5.5t5.5-13.5q.5-8-5-13T169 46h-38q-8 0-13 5.5T113 65q0 8 5 13.5t13 5.5zm160 132l-18-5-5-18q-1-4-4-6.5t-7.5-2.5q-4.5 0-8 2.5T244 193l-4 18-18 4q-4 1-6.5 4.5t-3 7.5q-.5 4 2.5 7.5t7 4.5l18 5 4 18q1 4 4.5 7t8 3q4.5 0 7.5-3t4-7l5-18 18-4q4-1 6.5-4.5t2.5-8q0-4.5-2.5-7.5t-6.5-4zM69 80q6-2 6-8.5T69 63l-16-7-7-16q-2-6-8.5-6T29 40l-7 16-16 6q-6 3-6 9t6 9l16 7 7 16q2 6 8.5 6t8.5-6l7-16 16-7z"/></svg>