<svg viewBox="0 0 300 368" xmlns="http://www.w3.org/2000/svg"><path d="M244 334h-38q-23 0-39.5-16.5T150 278v-13q0-2-2-4t-4-2h-44q-11 0-20.5-4.5t-16.5-12q-7-7.5-10.5-18T50 204q2-19 17-32t35-13h23q6 0 9.5-4t3-9q-.5-5-4.5-8.5t-10-3.5H50q-11 0-20.5-4.5t-16.5-12q-7-7.5-10.5-18T0 79q2-19 17-32t35-13h94q33 0 62 15.5T255 92l23 35q22 33 22 72v79q0 23-16.5 39.5T244 334zM102 196q-5 0-9.5 4t-5 8.5q-.5 4.5 3 8.5t9.5 4h44q18 0 30.5 13t12.5 31v13q0 8 5.5 13t13.5 5h38q7 0 12.5-5t5.5-13v-79q0-28-15-52l-23-34q-13-19-34-30.5T146 71H52q-5 0-9.5 4t-5 8.5q-.5 4.5 3 8.5t9.5 4h73q20 0 35 13.5t17 31.5q1 11-2.5 21T162 180q-7 8-17 12t-20 4h-23z"/></svg>