<svg viewBox="0 0 300 368" xmlns="http://www.w3.org/2000/svg"><path d="M96 98q-2-5-6.5-7.5t-10-2.5q-5.5 0-10 2.5T63 98L2 219q-5 10 .5 18.5T19 246q5 1 9.5-2t7.5-8l7-15h73l7 15q3 5 7.5 8t9.5 2q11 1 16.5-8t.5-19L96 98zm-34 86l17-36 18 36H62zm219-69q-6 0-10.5 3.5T264 127q-13-5-26-5-17 0-31.5 8t-23 22.5Q175 167 175 184t8.5 31.5q8.5 14.5 23 22.5t30.5 8q14 0 27-5 2 6 8 9t12.5 2q6.5-1 11-6t4.5-12V134q0-8-5.5-13.5T281 115zm-43 94q-11 0-18-7.5t-7-17.5q0-10 7-17.5t17.5-7.5q10.5 0 17.5 7.5t7.5 17.5q.5 10-7 17.5T237 209h1z"/></svg>