<svg viewBox="0 0 300 368" xmlns="http://www.w3.org/2000/svg"><path d="M296 194l-50 49q-3 3-6.5 3.5t-7-1Q229 244 227 241t-2-6v-32h-56v56h31q4 0 7 2t4.5 5.5q1.5 3.5 1 7T209 280l-49 50q-4 4-10 4t-10-4l-49-50q-3-3-3.5-6.5t1-7Q90 263 93 261t7-2h31v-56H75v31q0 4-2 7t-5.5 4.5q-3.5 1.5-7 1T54 243L4 194q-4-4-4-10t4-10l50-49q3-3 6.5-3.5t7 1Q71 124 73 127t2 7v31h56v-56h-31q-4 0-7-2t-4.5-5.5q-1.5-3.5-1-7T91 88l49-50q4-4 10-4t10 4l49 50q3 3 3.5 6.5t-1 7Q210 105 207 107t-7 2h-31v56h56v-31q0-4 2-7t5.5-4.5q3.5-1.5 7-1t6.5 3.5l50 49q4 4 4 10t-4 10z"/></svg>