<svg viewBox="0 0 300 368" xmlns="http://www.w3.org/2000/svg"><path d="M100 209q-10 0-17.5-7.5T75 184q0-10 7.5-17.5T100 159q10 0 17.5 7.5T125 184q0 10-7.5 17.5T100 209zm113-69q-1-13-10-22t-22-9q-13 0-22 9t-9 22q0 13 9 22.5t22 9.5q13 0 22.5-9.5T213 140zM150 34q-41 0-75.5 20T20 108.5Q0 143 0 184q0 30 11 57t32 48q5 6 13 6t13.5-5.5Q75 284 75 276t-5-13q-16-16-24-36.5T38 184q0-31 15-56.5T93.5 87Q119 72 150 72t56.5 15q25.5 15 40.5 40.5t16 56.5q0 36-21 65t-54 41q-8 3-11.5 10t-1 13.5q2.5 6.5 7.5 10t11 3.5q3 0 6-2 30-10 52.5-31.5t35-50Q300 215 300 184q0-41-20-75.5T225.5 54Q191 34 150 34zm38 231q24-10 38-33 10-17 11-35 1-6-3-9.5t-9-3.5q-5 0-9 4-25 26-67 38-21 7-37 8-5 0-8.5 4t-3.5 8v25q0 15 9 26.5t22.5 11.5q13.5 0 22-11.5T162 271v-23q14-4 25-10v27h1z"/></svg>