<svg viewBox="0 0 300 368" xmlns="http://www.w3.org/2000/svg"><path d="M150 34q-41 0-75.5 20T20 108.5Q0 143 0 184t20 75.5Q40 294 74.5 314t75.5 20q41 0 75.5-20t54.5-54.5q20-34.5 20-75.5t-20-75.5Q260 74 225.5 54T150 34zm0 37q24 0 46 10t38 28h-28q-18 0-30 13h-52q-12-13-30-13H66q16-18 38-28t46-10zm88 82q0 8-5.5 13.5t-13.5 5q-8-.5-13.5-5.5t-5.5-13q0-8 5.5-13.5T219 134q8 0 13.5 5.5T238 153zm-138 0q0 8-5.5 13.5t-13.5 5q-8-.5-13-5.5t-5-13q0-8 5-13.5t13-5.5q8 0 13.5 5.5T100 153zm50 143q-30 0-55-14t-40.5-39Q39 218 38 189q11 7 24 7h32q16 0 28.5-10.5T137 159h26q2 16 14.5 26.5T206 196h31q14 0 25-7-1 29-16.5 54T205 282q-25 14-55 14zm60-66q4 7 2 14.5t-8 11.5q-12 7-22 11-15 4-32 4-26 0-53-14-7-4-9-11.5t2-14.5q4-7 11-9t14 2q19 10 35 10 11 0 18.5-2.5t14.5-7q7-4.5 14.5-2.5t12.5 8z"/></svg>