<svg viewBox="0 0 300.0013 368" xmlns="http://www.w3.org/2000/svg"><path d="M296 100q-7-10-17-16t-22-7q-1-12-7-22t-16-17q-4-3-10.5-3.5t-12 2Q206 39 203 44t-3 11v66h-6q-29 0-57 5v-2q1-13-8.5-21T106 97q-29 5-48.5 28T38 178q-18 21-27.5 46.5T0 277q-1 11 3.5 22t12 19q7.5 8 17.5 12t20 4q46-4 78-22 41-22 61-66h17q11 1 18.5-6.5t9-17.5q1.5-10-4-17.5T215 196h-7q5-27 4-56v-6h67q6 0 11-3t7.5-8.5q2.5-5.5 2-12T296 100zM56 296q-8 0-13-5t-5-13q0-8 5-13.5t13-5.5q8 0 13.5 5.5T75 278q0 8-5.5 13T56 296zm60-17q-8-21-24-37t-37-24q31-53 119-58-5 87-58 119z"/></svg>