<svg viewBox="0 0 300.0012 368" xmlns="http://www.w3.org/2000/svg"><path d="M283 157q17 20 17 46v50q0 18-9.5 34t-25 25q-15.5 9-34.5 9H69q-19 0-34.5-9t-25-25Q0 271 0 253v-50q0-19 9.5-34.5t25-25Q50 134 69 134h50q8 0 13.5 5.5T138 153q0 8-5.5 13t-13.5 5H69q-13 1-22.5 10T37 203v50q1 13 10 22t22 9h162q13 0 22-9t9-22v-50q1-12-7-21-5-6-4.5-13.5t6-13q5.5-5.5 13.5-5t13 6.5zM63 228q0 8 5 13.5t13 5q8-.5 13.5-5.5t5.5-13q0-8-5.5-13.5T81 209q-8 0-13 5.5T63 228zm62 0q0 8 5.5 13.5t13.5 5q8-.5 13.5-5.5t5.5-13q0-8-5.5-13.5T144 209q-8 0-13.5 5.5T125 228zm44-57h12q22 0 38-15l72-72q8-8 9-19.5T293.5 44Q286 35 273 34t-22 8l-72 73q-16 16-16 38v12q0 3 1.5 5t4.5 1z"/></svg>