<svg viewBox="0 0 300 368" xmlns="http://www.w3.org/2000/svg"><path d="M238 209h-25v-50h25q16 0 30.5-8.5t23-23q8.5-14.5 8.5-31t-8.5-31q-8.5-14.5-23-23t-31-8.5q-16.5 0-31 8.5t-23 23Q175 80 175 97v24h-50V96q0-16-8.5-30.5t-23-23Q79 34 62.5 34t-31 8.5Q17 51 8.5 65.5T0 96.5q0 16.5 8.5 31t23 23Q46 159 63 159h25v50H63q-17 0-31.5 8.5t-23 23Q0 255 0 271.5t8.5 31q8.5 14.5 23 23t31 8.5q16.5 0 31-8.5t23-23Q125 288 125 271v-25h50v25q0 17 8.5 31.5t23 23q14.5 8.5 31 8.5t31-8.5q14.5-8.5 23-23t8.5-31q0-16.5-8.5-31t-23-23Q254 209 238 209zM213 96q-1-10 6.5-17.5t18-7.5q10.5 0 18 7.5t7.5 18q0 10.5-7.5 18T238 122h-25V96zM38 96q0-10 7-17.5T62.5 71q10.5 0 18 7.5T88 96v25H63q-11 1-18-6.5T38 97v-1zm50 175q0 11-7.5 18t-18 7Q52 296 45 289t-7-17.5q0-10.5 7-18t18-7.5h25v25zm37-112h50v50h-50v-50zm113 137q-11 0-18-7t-8-18v-25h26q10 0 17.5 7.5t7.5 18q0 10.5-7.5 17.5t-17.5 7z"/></svg>