<svg viewBox="0 0 300 368" xmlns="http://www.w3.org/2000/svg"><path d="M232 158q5 5 5.5 13t-5 13.5Q227 190 219 190t-13-5l-37-35v165q0 8-5.5 13.5T150 334q-8 0-13.5-5.5T131 315V150l-37 35q-5 5-13 5t-13.5-5.5q-5.5-5.5-5-13.5t5.5-13l51-49q13-13 31-13t31 13l51 49zm43-124q-8 0-13.5 5.5T256 53q0 8 5.5 13t13.5 5q8 0 13.5-5t5.5-13q0-8-5.5-13.5T275 34zM150 71q8 0 13.5-5t5.5-13q0-8-5.5-13.5T150 34q-8 0-13.5 5.5T131 53q0 8 5.5 13t13.5 5zm63 0q7 0 12.5-5t5.5-13q0-8-5.5-13.5t-13-5.5q-7.5 0-13 5.5T194 53q0 8 5.5 13t12.5 5h1zM88 71q7 0 12.5-5t5.5-13q0-8-5.5-13.5t-13-5.5q-7.5 0-13 5.5T69 53q0 8 5.5 13T88 71zM25 34q-8 0-13.5 5.5T6 53q0 8 5.5 13T25 71q8 0 13.5-5T44 53q0-8-5.5-13.5T25 34z"/></svg>