<svg viewBox="0 0 300 368" xmlns="http://www.w3.org/2000/svg"><path d="M113 184h37v31q0 8 5.5 13.5T169 234q8 0 13.5-5.5T188 215V71h25v144q-1 8 4.5 13.5T231 234q8 0 13.5-5.5T250 215V71h6q8 0 13.5-5t5.5-13q0-8-5.5-13.5T256 34H113q-21 0-38 10T47.5 71.5Q37 89 37.5 109T48 146.5Q58 164 75 174t38 10zm0-113h37v75h-37q-16 0-27-10.5T75 109q0-16 11-27t26-10l1-1zm175 207q0 8-5.5 13t-13.5 5H75v19q0 6-3.5 9.5t-9 3.5q-5.5 0-8.5-4l-38-37q-4-4-4-9.5t4-9.5l38-38q3-3 8.5-3t9 3.5Q75 234 75 239v20h194q8 0 13.5 5.5T288 278z"/></svg>