<svg viewBox="0 0 300 368" xmlns="http://www.w3.org/2000/svg"><path d="M170 219q3 3 2.5 7t-4.5 5q-24 8-43-4-17-10-22.5-30t3.5-38q11-19 36-24 11-2 21 0 4 1 5 5t-2 7q-8 7-12 17t-3.5 20.5Q151 195 156 204t14 15zm130-35q0 8-5.5 13.5T281 203h-20q-4 25-19 46l14 15q5 5 5 12.5t-5.5 13q-5.5 5.5-13 5.5t-12.5-5l-15-14q-21 15-46 19v20q0 8-5.5 13.5T150 334q-8 0-13.5-5.5T131 315v-20q-25-4-46-19l-15 14q-5 5-12.5 5t-13-5.5q-5.5-5.5-5.5-13t5-12.5l14-15q-15-21-19-46H19q-8 0-13.5-5.5T0 184q0-8 5.5-13.5T19 165h20q4-25 19-46l-14-15q-5-5-5-12.5t5.5-13Q50 73 57.5 73T70 78l15 14q21-15 46-19V53q0-8 5.5-13.5T150 34q8 0 13.5 5.5T169 53v20q25 4 46 19l15-14q5-5 12.5-5t13 5.5q5.5 5.5 5.5 13t-5 12.5l-14 15q15 21 19 46h20q8 0 13.5 5.5T300 184zm-75 0q-1-28-17-48-14-17-36-23t-44 0q-22 6-36 23-16 20-16 48t16 48q14 17 36 23t44 0q22-6 36-23 16-20 17-48z"/></svg>