<svg viewBox="0 0 300 368" xmlns="http://www.w3.org/2000/svg"><path d="M125 215v38q0 8-5.5 13.5t-13.5 5q-8-.5-13.5-5.5T87 253v-38q1-8 6-13.5t13-5q8 .5 13.5 5.5t5.5 13zm175-112v162q0 19-9.5 34.5t-25 25Q250 334 231 334H69q-19 0-34.5-9.5t-25-25Q0 284 0 265V103q0-19 9.5-34.5t25-25Q50 34 69 34h162q19 0 34.5 9.5t25 25Q300 84 300 103zM69 71q-2 0-5 1l41 40q16-16 39-15h19q16 0 30.5 8t23 22.5Q225 142 225 159q0 15-6.5 28T201 208l61 62 1-5V103q0-13-9.5-22.5T231 71H69zm119 88q-1-10-8-17.5t-17-7.5h-19q-7 0-13 5l43 42q6-3 10-9t4-13zm43 137h5L38 98v167q0 13 9 22t22 9h162z"/></svg>