<svg viewBox="0 0 300 368" xmlns="http://www.w3.org/2000/svg"><path d="M201 307q2 7-2 13.5t-12 8.5q-18 5-37 5-41 0-75.5-20T20 259.5Q0 225 0 184t20-75.5Q40 74 74.5 54T150 34q43 0 80 23.5t56 62.5q3 7 .5 14t-9.5 10.5q-7 3.5-14.5 1T252 136q-14-30-42-47.5T150.5 71q-31.5 0-57 15.5t-40.5 41Q38 153 37.5 184t15 56.5q15.5 25.5 41 41T150 297q14-1 28-4 8-2 14.5 2t8.5 12zM75 140v25q0 8 5.5 13.5T94 184q8 0 13.5-5.5T113 165v-25q0-8-5.5-13.5T94 121q-8 0-13.5 5.5T75 140zm56 0v25q0 8 5.5 13.5T150 184q8 0 13.5-5.5T169 165v-25q0-8-5.5-13.5T150 121q-8 0-13.5 5.5T131 140zm57 0v25q-1 8 4.5 13.5T206 184q8 0 13.5-5.5T225 165v-25q0-8-5.5-13.5T206 121q-8 0-13 5.5t-5 13.5zm108 105q-3-5-8.5-8t-11.5-3h-30l18-36q3-7 .5-14t-9-10.5q-6.5-3.5-14-1T230 181l-27 56q-3 6-3 12t3.5 11.5q3.5 5.5 9 8.5t11.5 3h31l-17 35q-3 7-.5 14.5T247 332q4 2 9 2t9.5-3q4.5-3 6.5-8l26-55q2-6 2-12t-4-11z"/></svg>