<svg viewBox="0 0 300 368" xmlns="http://www.w3.org/2000/svg"><path d="M38 65q0-13 9-22t22-9q13 0 22 9t9 22q0 13-9 22.5t-22 9Q56 96 47 87t-9-22zm75 184v66q0 8-5.5 13.5T94 334q-8 0-13.5-5.5T75 315v-56H63v56q-1 8-6 13.5T44 334q-8 0-13.5-5.5T25 315v-66q-12-7-18.5-19.5T0 203v-38q0-23 16.5-39.5T56 109h25q24 0 40.5 16.5T137 165v38q1 14-6 26.5T113 249zm-75-46q0 8 5 13t13 5h25q8 0 13.5-5t5.5-13v-38q0-8-5.5-13T81 147H56q-8-1-13.5 4.5T37 165v38h1zm187-19q-20 0-37.5 10T160 221.5Q150 239 150 259t10 37.5q10 17.5 27.5 27.5t37.5 10q20 0 37.5-10t27.5-27.5q10-17.5 10-37.5t-10-37.5Q280 204 262.5 194T225 184zm0 137q-5 0-8.5-3.5T213 309q0-5 3.5-8.5t8.5-4q5-.5 8.5 3.5t4 9q.5 5-3.5 8.5t-9 3.5zm18-42q-5 3-8 4t-7 1h-3q-5 0-8.5-3.5t-3.5-9q0-5.5 3.5-9t8.5-3.5h3l3-2q3-1 5-4.5t1.5-8q-.5-4.5-3.5-7t-7-3.5q-4-1-7.5 1t-5.5 6q-2 4-7 5t-9.5-1.5q-4.5-2.5-6-7.5t1.5-9q6-11 16.5-16t22-2.5q11.5 2.5 20 10.5t10.5 20q2 12-3 23t-16 16z"/></svg>