<svg viewBox="0 0 300 368" xmlns="http://www.w3.org/2000/svg"><path d="M281 296q-3 0-14-4-9-4-14-5-8-3-15.5-3t-15.5 3q-5 1-14 5-11 4-14.5 4t-14.5-4q-9-4-13-5-9-3-16-3-11 0-27 7l37-83 78 35q9 4 18.5 4t18.5-5q9-5 14.5-12.5T297 213q7-35-1-68t-29-58.5Q246 61 214.5 47T149 34q-34 1-64.5 16.5T33 94q-5 8-7 17.5t.5 19Q29 140 35 147t15 11l76 34-43 96q-11-4-19.5-4T47 287q-5 1-14 5-11 5-14 5-8 0-13.5 5T0 315q0 8 5.5 13.5t13 5.5q7.5 0 15.5-2 5-2 14-6 11-4 14.5-4t14.5 4q9 4 14 6 8 2 15.5 2t15.5-2q5-2 13-6h1q11-4 14-4t14 4h1q8 4 13 6 8 2 15.5 2t15.5-2q5-2 14-6 11-4 14.5-4t14.5 4q9 4 14 6 8 2 15.5 2t13-5.5Q300 323 300 315t-5.5-13q-5.5-5-13.5-5v-1zM63 121q-1-3 1-5 15-21 39.5-32.5T154 72q24 0 46 9.5t37.5 29q15.5 19.5 21.5 44t1 50.5q0 2-2 3.5t-4 .5L65 124q-2-1-2-3z"/></svg>