<svg viewBox="0 0 300 368" xmlns="http://www.w3.org/2000/svg"><path d="M281 296h-18V189q17-7 27-19t10-29q0-17-9.5-35.5T264 74q-18-13-40-15-20-8-45-15-41-10-85-10-8 0-13.5 5.5T75 53q0 8 5.5 13T94 71q36 0 70 9-13 7-27 11-18 5-43 5-8 1-13.5 6T75 115q0 8 5.5 13.5T94 134q31 0 56-7 0 10 2 18-39 12-67 38-23 21-37 51-12 25-15 51-5-1-8-1-10 0-17.5 7.5T0 309q0 10 7.5 17.5T25 334h256q8 0 13.5-5.5T300 315q0-8-5.5-13t-13.5-5v-1zm-56 0h-25q0-24-14-45t-36-28q-7-3-14 .5T126 234q-3 7 .5 14t11.5 10q10 4 17 15t7 23H69q2-17 8-35 10-28 30-47 26-26 66-35 20 17 46 18l6-1v100zm-6-137q-13 0-22.5-9t-9-22q.5-13 9.5-22t21.5-9.5q12.5-.5 22.5 7t15.5 18q5.5 10.5 6 19T247 154q-12 5-28 5z"/></svg>