<svg viewBox="0 0 300 368" xmlns="http://www.w3.org/2000/svg"><path d="M150 334q-41 0-75.5-20T20 259.5Q0 225 0 184t20-75.5Q40 74 74.5 54T150 34q41 0 75.5 20t54.5 54.5q20 34.5 20 75.5t-20 75.5Q260 294 225.5 314T150 334zm0-263q-31 0-56.5 15.5t-40.5 41Q38 153 37.5 184t15 56.5q15.5 25.5 41 41t56.5 15q31-.5 56.5-15.5t40.5-40.5q15-25.5 15-56.5t-15-56.5Q232 102 206.5 87T150 71zm56 169q0-8-5.5-13.5T188 221h-40l5-2q24-15 35-26 18-18 18-41.5t-16.5-39Q173 97 150 96.5T110.5 113Q94 130 94 153q0 8 5.5 13.5t13 5.5q7.5 0 13-5.5T131 153t5.5-13.5Q142 134 150 134t13.5 5q5.5 5 5.5 12 0 9-10 18-6 6-25 17-12 7-18 11-10 7-15.5 13.5t-6.5 15q-1 8.5 2.5 16.5t10.5 12.5q7 4.5 16 4.5h65q7 0 12.5-5.5T206 240z"/></svg>