<svg viewBox="0 0 300 368" xmlns="http://www.w3.org/2000/svg"><path d="M231 34H69q-19 0-34.5 9.5t-25 25Q0 84 0 103v112q0 19 9.5 34.5t25 25Q50 284 69 284h15l45 38q9 8 21 8t20-8l47-38h14q19 0 34.5-9.5t25-25Q300 234 300 215V103q0-19-9.5-34.5t-25-25Q250 34 231 34zm32 181q0 13-9.5 22.5T231 247h-21q-7-1-12 4l-48 39-47-39q-5-5-12-5H69q-13 1-22.5-8.5T37 215V103q0-13 9.5-22.5T69 71h162q13 0 22 9.5t9 22.5v112h1zm-50-56q0 8-5.5 13.5T194 178h-25v25q0 8-5.5 13.5T150 222q-8 0-13.5-5.5T131 203v-25h-25q-8 0-13.5-5.5t-5-13.5q.5-8 5.5-13.5t13-5.5h25v-25q0-8 5.5-13t13.5-5.5q8-.5 13.5 5T169 115v25h25q8 0 13 5.5t5 13.5h1z"/></svg>