<svg viewBox="0 0 300 368" xmlns="http://www.w3.org/2000/svg"><path d="M246 67q-5-13-16-21.5T206.5 35Q194 33 182 36l-20 6q-6 1-12 5-5-4-12-5l-20-6q-12-3-24.5-1T70 45.5Q59 54 54 67q-24 5-39 24T0 134v69q0 18 9.5 34t25 25Q50 271 69 272h62v24h-25q-8 0-13 5.5T88 315q0 8 5 13.5t13 5.5h88q8 0 13.5-5.5T213 315q0-8-5.5-13.5T194 296h-25v-25h62q19 0 34.5-9t25-25q9.5-16 9.5-34v-69q0-24-15-43t-39-24zm-77 14q0-3 3-3l20-6q2 0 4-1 6 0 11.5 4t5.5 12v45q-1 5-4 9t-8 5l-32 9V81zm-75-6q4-4 10-4 2 1 4 1l20 6q3 0 3 3v74l-32-9q-5-1-8-5t-3-9V87q-1-8 6-12zm169 128q-1 13-10 22t-22 9H69q-13 0-22-9t-9-22v-69q0-7 3-13.5t9-11.5v23q0 17 11 31.5T89 182l40 12q21 6 42 0l40-12q17-4 28-18.5t11-31.5v-23q6 4 9 11t4 14v69z"/></svg>