<svg viewBox="0 0 300 368" xmlns="http://www.w3.org/2000/svg"><path d="M295 302l-16-15q9-15 9-32v-67q0-32-13.5-61T237 78q-24-20-53-27.5T124 49q-31 6-57 26L32 39q-5-5-13-5T5.5 39.5Q0 45 0 53t5 13l263 263q5 5 13 5t13.5-5.5Q300 323 300 315t-5-13zM131 86q22-4 43 1t38.5 19.5q17.5 14.5 27.5 36t10 45.5v69L94 101q17-11 37-15zm69 217q0 8-5.5 13t-13.5 6h-19q-35-1-66-14t-52-38q-19-23-26.5-50.5T14 162q1-7 3-14.5t9-11q7-3.5 14.5-1.5t11.5 8.5q4 6.5 2 14.5l-3 10q-3 21 2.5 41.5T72 246q16 18 39.5 28t50.5 10h19q8 0 13.5 5.5T200 303z"/></svg>