<svg viewBox="0 0 300 368" xmlns="http://www.w3.org/2000/svg"><path d="M0 173q4-12 14.5-19.5t23-7q12.5.5 23 7.5T75 173q1 4-2 7.5t-7 3.5H9q-4 0-7-3.5T0 173zm234 36h57q4 0 7-3.5t2-7.5q-4-12-14.5-19.5t-23-7.5q-12.5 0-23 7.5T225 198q-1 4 2 7.5t7 3.5zm66 69v12q0 18-13 31t-31 13H44q-18 0-31-13T0 290v-37q0-18 13-31t31-13h44v-6q0-18 12.5-31t30.5-13h38q18 0 31 13t13 31v31h43q18 0 31 13t13 31zm-175 18h50v-93q0-3-2-5t-4-2h-38q-2 0-4 2t-2 5v93zm-81 0h44v-43q0-3-2-5t-5-1H44q-3-1-4.5 1t-1.5 5v37q0 3 1.5 4.5T44 296zm219-18q0-3-2-4.5t-5-1.5h-37q-3 0-4.5 1.5T213 278v18h43q3 0 5-1.5t2-4.5v-12zM150 84q10 0 17.5-7.5T175 59q0-10-7.5-17.5T150 34q-10 0-17.5 7.5T125 59q0 10 7.5 17.5T150 84zm113 75q10 0 17.5-7.5T288 134q0-10-7.5-17.5t-18-7.5q-10.5 0-17.5 7.5t-7 17.5q0 10 7 17.5t18 7.5zM38 134q10 0 17.5-7.5T63 109q0-10-7.5-17.5t-18-7.5Q27 84 20 91.5T13 109q0 10 7 17.5t18 7.5zm84 0h56q5 0 7.5-3.5t1.5-7.5q-4-12-14-19.5T150 96q-13 0-23 7.5T113 123q-1 4 1.5 7.5t7.5 3.5z"/></svg>