<svg viewBox="0 0 300 368" xmlns="http://www.w3.org/2000/svg"><path d="M263 315q0 8-5.5 13.5T244 334q-8 0-13.5-5.5T225 315q0-13-9-22t-22-9h-88q-13 0-22 9t-9 22q0 8-5.5 13.5T56 334q-8 0-13.5-5.5T37 315q1-18 10-34t25-25.5q16-9.5 34-9.5h88q18 0 34 9.5t25.5 25.5q9.5 16 9.5 34zm12-187v25q0 8-5.5 13.5T256 172h-6q-3 21-19 35t-37 14h-88q-21 0-37-14t-19-35h-6q-8 0-13.5-5.5T25 153v-25q0-8 5.5-13.5T44 109h6q3-21 19-35.5T106 59h25v-6q0-8 5.5-13.5T150 34q8 0 13.5 5.5T169 53v6h25q21 0 37 14.5t19 35.5h6q8 0 13.5 5.5T275 128zm-62-13q0-8-5.5-13.5T194 97h-88q-8 0-13 5t-5 13v50q0 8 5 13.5t13 5.5h88q8 0 13.5-5.5T212 165v-50h1zm-94 6q-8 1-13.5 6t-5.5 13q0 8 5.5 13.5T119 159q8 0 13.5-5.5t5-13.5q-.5-8-5.5-13.5t-13-5.5zm62 0q-8 1-13.5 6t-5 13q.5 8 5.5 13.5t13 5.5q8 0 13.5-5.5T200 140q0-8-5.5-13.5T181 121z"/></svg>