<svg viewBox="0 0 301.5011 368" xmlns="http://www.w3.org/2000/svg"><path d="M132.5 121h150q8 0 13.5-5t5.5-13q0-8-5.5-13.5T282.5 84h-150q-8 0-13.5 5.5t-5.5 13.5q0 8 5.5 13.5t13.5 5.5v-1zm150 50h-150q-8 0-13.5 5.5t-5.5 13.5q0 8 5.5 13.5t13.5 5.5h150q8 0 13.5-5.5t5.5-13.5q0-8-5.5-13.5t-13.5-5.5zm0 88h-150q-8 0-13.5 5.5t-5.5 13.5q0 8 5.5 13.5t13.5 4.5h150q8 0 13.5-5t5.5-13q0-8-5.5-13.5t-13.5-5.5zm-218-138q4 0 7-2t4.5-5.5q1.5-3.5 1-7t-3.5-6.5l-26-26q-4-4-9-4t-9 4l-26 26q-3 3-3.5 6.5t1 7q1.5 3.5 4.5 5.5t7 2h7v138h-7q-4 0-7 2T1 266.5Q-.5 270 0 274t3.5 6l26 26q3 4 8.5 4t8.5-4l26-26q3-2 3.5-6t-1-7.5q-1.5-3.5-4.5-5.5t-7-2h-6V121h7z"/></svg>