<svg viewBox="0 0 300 368" xmlns="http://www.w3.org/2000/svg"><path d="M250 159q0-4 4-9l12-17q6-9 8-19.5T273 91q-3-12-12-20-14-12-37-12h-24q-3 0-8-3l-18-15q-11-7-24-7t-24 8l-9 6q-12 11-17 11H76q-18 0-31.5 9T27 92q-3 11-1 21.5t8 19.5l12 17q4 5 4 9.5T47 172l-7 15q-7 14-10 21-5 13-5 24 0 28 18 50 14 17 39 30 14 7 40 16l10 4q6 2 18 2t18-3l10-3q26-9 40-16 25-13 39-30 18-22 18-50 0-11-5-24-2-7-10-21l-7-15q-3-8-3-13zM63 102q1-2 4.5-3.5T76 97l24-1q12 0 24-6 7-4 17-13l7-5q2-1 4 0l7 5q10 9 17 13 12 6 24 7h24q8 0 10 1.5t3 3.5q1 5-1 9l-5 5q-8 11-12 18H81q-4-7-13-18l-4-5q-2-4-1-9zm102 191q-7 2-8.5 2.5t-11.5.5l-10-3q-35-12-50-23-23-16-23-38 1-5 4-13l7-15q11-21 13-32h128q2 11 13 32l7 15q4 8 4 13 0 22-23 38-15 11-50 23z"/></svg>