<svg viewBox="0 0 300.0019 368" xmlns="http://www.w3.org/2000/svg"><path d="M206.002 334q-7 0-12.5-5t-5.5-12q-2-14-13-23.5t-25-9.5q-14 0-25 9.5t-13 23.5q0 8-6.5 13t-14 4q-7.5-1-12.5-7t-4-14q3-28 24.5-47.5t50.5-19.5q29 0 50.5 19.5t24.5 47.5q1 8-4 14t-13 7h-2zm77-113q8 0 13-6.5t4-13.5q-2-28-21.5-47t-47.5-20q-8 0-13.5 5.5t-5 13.5q.5 8 5.5 13.5t13 5.5q13 1 22 10.5t10 22.5q0 7 5.5 12t12.5 5l2-1zm-246-16q1-13 10-22.5t22-11.5q8 0 13.5-5t5.5-13q0-8-5.5-13.5t-13.5-5.5q-28 1-47.5 20t-21.5 47q-1 7 4 13.5t13 6.5l2 1q7 0 12.5-5t5.5-12zm114 29q18 0 31-13t13-31q0-18-13-31t-31-12.5q-18 .5-31 13t-13 30.5q0 18 13 31t31 13zm75-113q18 1 31-12t13-31q0-18-13-31t-31-13q-18 0-31 13t-13 31q0 18 13 30.5t31 13.5v-1zm-150 0q18 0 31-12.5t13-30.5q0-18-13-31t-31-13q-18 0-31 13t-13 31q0 18 13 30.5t31 12.5z"/></svg>