<svg viewBox="0 0 300 368" xmlns="http://www.w3.org/2000/svg"><path d="M288 184q0 8-6 13l-23 23q-9 9-9 22v23q0 19-9.5 34.5t-25 25Q200 334 181 334q-8 0-13-5.5t-5-13.5q0-8 5-13.5t13-5.5q13 0 22.5-9t9.5-22v-23q0-28 20-48l9-10-9-10q-20-20-20-48v-23q0-13-9.5-22.5T181 71q-8 0-13-5t-5-13q0-8 5-13.5t13-5.5q19 0 34.5 9.5t25 25Q250 84 250 103v23q0 13 9 22l23 23q6 5 6 13zM88 126v-23q0-13 9-22.5t22-9.5q8 0 13.5-5t5.5-13q0-8-5.5-13.5T119 34q-19 0-34.5 9.5t-25 25Q50 84 50 103v23q0 13-9 22l-23 23q-5 5-5 13t5 13l23 23q9 9 9 22v23q0 19 9.5 34.5t25 25Q100 334 119 334q8 0 13.5-5.5T138 315q0-8-5.5-13.5T119 296q-13 0-22-9t-9-22v-23q0-28-21-48l-9-10 9-10q21-20 21-48z"/></svg>