<svg viewBox="0 0 300 368" xmlns="http://www.w3.org/2000/svg"><path d="M300 278q0 8-5.5 13t-13.5 5h-81q-16 0-26.5-10.5T163 259V140q0-8 5-13.5t13-5.5h25q8 0 13.5 5.5T225 140v119h25V103q0-13-9-22.5T219 71H69q-13 1-22 10t-9 22v131q-1 10 6 17 4 3 5.5 8t0 10q-1.5 5-5 8.5t-8 5q-4.5 1.5-9.5 0t-9-4.5q-9-9-13.5-20.5T0 234V103q0-19 9.5-34.5t25-25Q50 34 69 34h150q18 0 34 9.5t25 25q9 15.5 10 34.5v157q5 2 8.5 7t3.5 11zm-194-32q-18 1-30.5 13.5T63 290q0 18 12.5 31t30.5 13q18 0 31-13t13-31q0-18-13-30.5T106 246zm13-62q8 0 13-5.5t6-13.5v-25q0-8-5.5-13.5T119 121H81q-8 0-13.5 5.5T63 140v25q0 8 5 13.5t13 5.5h38z"/></svg>