<svg viewBox="0 0 300 368" xmlns="http://www.w3.org/2000/svg"><path d="M238 182q0 6-4.5 11.5T222 200l-12 3q-9 1-16-4.5t-7-13q0-7.5 4.5-13T203 166l12-3q9-1 16 4.5t7 14.5zm-23 40l-12 3q-7 1-11 6t-4 13q0 8 6.5 13.5T210 261l12-2q7-1 11.5-6.5t4.5-13q0-7.5-7-13t-16-4.5zm0-119l-12 3q-7 1-11 6.5t-4.5 13q-.5 7.5 6.5 13t16 4.5l12-3q7-1 11-6.5t4.5-13q.5-7.5-6.5-13t-16-4.5zm85-3v150q0 24-16 43.5T244 317l-76 15q-26 5-49-4l-36-16-25 15q-13 7-25 7-8 0-15.5-4T6 320q-6-10-6-25V103q0-17 8.5-30.5T31 52l20-9q14-8 30-8t31 8l30 15 82-19q14-3 27.5 0t25 12Q288 60 294 73t6 27zM63 280V79l-15 7q-5 2-7.5 6.5T38 103l-1 193 26-16zm62 10V91l-25-12v199l25 12zm138-190q0-12-9.5-19.5T232 75l-69 16v204l74-15q11-2 18.5-10.5T263 249V100z"/></svg>