<svg viewBox="0 0 300 368" xmlns="http://www.w3.org/2000/svg"><path d="M125 184q0-9 6-16v-47q0-7 5.5-12.5T150 103q8 0 13.5 5.5T169 122v46q6 7 6 16t-6 16v28q0 8-5.5 13t-13.5 5q-8 0-13.5-5t-5.5-13v-28q-6-7-6-16zm25-150q-8 0-13.5 5.5T131 53q0 8 5.5 13.5T150 72q31-1 56.5 14.5t41 41Q263 153 263 184t-15.5 56.5Q232 266 206.5 281T150 296q-8 0-13.5 5.5T131 315q0 8 5.5 13.5T150 334q41 0 75.5-20t54.5-54.5q20-34.5 20-75.5t-20-75.5Q260 74 225.5 54T150 34zM38 184q0-8-5.5-13.5T19 165q-8 0-13.5 5.5T0 184q0 8 5.5 13.5T19 203q8 0 13.5-5.5T38 184zM84 51q-8 0-13 5.5T66 70q0 8 5 13.5T84 89q8 0 13.5-5.5T103 70q0-8-5.5-13.5T84 51zm-48 49q-7 0-12.5 5.5t-5.5 13q0 7.5 5.5 13t13 5.5q7.5 0 13-5.5t5.5-13q0-7.5-5.5-13T36 100zm48 179q-8 0-13 5.5T66 298q0 8 5 13.5t13 5.5q8 0 13.5-5.5T103 298q0-8-5.5-13.5T84 279zm-48-48q-7 0-12.5 5.5t-5.5 13q0 7.5 5.5 13t13 5.5q7.5 0 13-5.5t5.5-13q0-7.5-5.5-13T36 231z"/></svg>