<svg viewBox="0 0 300 368" xmlns="http://www.w3.org/2000/svg"><path d="M219 71h-56v-6q0-8-5.5-13T144 46.5q-8-.5-13.5 5T125 65v6h-25V53q0-8-5.5-13.5T81 34q-8 0-13.5 5.5T62 53v22q-16 6-26.5 20.5T25 128v57q0 24 15 43l9 11q1 2 1 4v22q0 19 9.5 34.5t25 25Q100 334 119 334h62q19 0 34.5-9.5t25-25Q250 284 250 265v-22q0-2 1-4l9-11q15-19 15-43v-57q0-24-16.5-40.5T219 71zm19 114q0 11-7 20l-9 10q-10 12-10 28v22q0 13-9 22t-22 9h-62q-13 0-22.5-9T87 265v-22q1-16-9-28l-9-10q-6-9-7-20v-57q1-8 6-13.5t13-5.5h138q8 0 13.5 5.5T237 128v57h1zm-25-39v25q0 6-4 9.5t-9 3.5H100q-5 0-8.5-3.5T88 171v-25q0-5 3.5-8.5t8.5-3.5h100q5 0 9 3.5t3 9.5l1-1z"/></svg>