<svg viewBox="0 0 300 368" xmlns="http://www.w3.org/2000/svg"><path d="M231 34H69q-19 0-34.5 9.5t-25 25Q0 84 0 103v162q0 19 9.5 34.5t25 25Q50 334 69 334h162q19 0 34.5-9.5t25-25Q300 284 300 265V103q0-19-9.5-34.5t-25-25Q250 34 231 34zm32 231q0 13-9.5 22t-22.5 9H69q-13 0-22.5-9T37 265V103q1-13 10-22.5T69 71h162q13 0 22 9.5t9 22.5v162h1zM144 96h-25q-18 0-31 13t-13 31v88q0 18 13 30.5t31 12.5h25q22 0 40.5-10.5T214 231q11-19 11-41v-12q0-22-11-41t-29.5-30Q166 96 144 96zm44 94q0 18-13 31t-31 13h-25q-3 0-4.5-2t-1.5-4v-88q-1-2 1-4t5-2h25q18 0 30.5 13t13.5 31v12z"/></svg>