<svg viewBox="0 0 300 368" xmlns="http://www.w3.org/2000/svg"><path d="M213 165q-1 8-6 13.5t-13 5.5q-8 0-13.5-5.5T175 165q0-8 5.5-13.5t13.5-5q8 .5 13.5 5.5t5.5 13zm87 6v25q0 11-7.5 18t-17.5 8h-1q-7 17-19.5 30.5T225 274v4q0 13-9 22t-21 9q-12 0-21-7t-11-18h-51q-2 11-11 18t-21 7q-12 0-21-9t-9-22v-7q-23-14-36.5-37T0 184.5Q0 158 13 135 2 117 0 91q0-7 5-13t13-6.5q8-.5 13.5 4.5t6 13.5Q38 98 40 104q27-20 60-20h64q3-13 12.5-23.5T198 47q6-2 10.5 1.5T213 58v31q20 7 36.5 22t24.5 35h1q10 0 17.5 7.5T300 171zm-119-50h-81q-17 0-31.5 8.5t-22.5 23Q38 167 38 184t8 31.5Q54 230 68 238t31 8h79q25 0 44-16t21-40q2-18-6-34t-23-25.5q-15-9.5-33-9.5z"/></svg>