<svg viewBox="0 0 300 368" xmlns="http://www.w3.org/2000/svg"><path d="M300 165v100q0 19-9.5 34.5t-25 25Q250 334 231 334H69q-19 0-34.5-9.5t-25-25Q0 284 0 265V140q0-18 9.5-34t25-25.5Q50 71 69 71h100q8 0 13.5 5.5T188 90q0 8-5.5 13.5T169 109H69q-9 0-16.5 4.5T41 126l87 86q9 9 22 9t22-9l35-30q5-5 13-4.5t13 6.5q5 6 4.5 14t-6.5 13l-33 28q-10 10-22 15t-26 5q-14 0-26.5-5T101 239l-63-64v90q0 13 9 22t22 9h162q13 0 22.5-9t9.5-22V165q0-8 5-13.5t13-5.5q8 0 13.5 5.5T300 165zm-44-44q18 0 31-12.5T300 78q0-18-13-31t-31-13q-18 0-30.5 13T213 78q0 18 12.5 30.5T256 121z"/></svg>