<svg viewBox="0 0 300 368" xmlns="http://www.w3.org/2000/svg"><path d="M289 246l-48-49q-7-6-15.5-9t-17.5-1l-29 3q-10 2-16.5 9t-7.5 16l-2 29q-2 18 11 30l48 49q11 11 27 11t27-11l23-24q11-11 11-26.5T289 246zm-89 7q-8 0-13.5-5.5T181 234q0-8 5.5-13.5T200 215q8 0 13.5 5.5T219 234q0 8-5.5 13.5T200 253zm-100-69q20 0 37.5-10t27.5-27.5q10-17.5 10-37.5t-10-37.5Q155 54 137.5 44T100 34q-20 0-37.5 10T35 71.5Q25 89 25 109t10 37.5Q45 164 62.5 174t37.5 10zm0-113q16 0 27 11t11 27q0 16-11 26.5T100 146q-16 0-27-10.5T62 109q0-16 11-27t27-10v-1zm25 157q0 8-5.5 13.5T106 247q-18-1-34 8.5T47 281q-9 16-9 34 0 8-5.5 13.5T19 334q-8 0-13.5-5.5T0 315q0-29 14.5-53T53 223.5Q77 209 106 209q8 0 13.5 5.5T125 228z"/></svg>