<svg viewBox="0 0 300 368" xmlns="http://www.w3.org/2000/svg"><path d="M278 223q-19-7-39-13l35-131q2-8 .5-16t-7-15q-5.5-7-13-10.5T239 34h-4q-13 0-25.5 6T188 57l-84 98q-8 10-23 14-9 2-19 3H19q-8-1-13.5 4.5T0 190q0 8 5.5 13.5T19 209h12q53 0 120 15 49 11 101 29-52 18-101 29-67 14-120 14H19q-8 0-13.5 5.5T0 315q0 8 5.5 13.5T19 334h12q60 0 138-18 54-12 109-32 10-3 16-11.5t6-19q0-10.5-6-19T278 223zm-144-45l84-98q6-9 17-9h2l-34 128q-38-11-73-17l4-4zm-53 93q-8 0-13-5t-5-13q0-8 5-13.5t13-5.5h50q8 0 13.5 5.5T150 253q0 8-5.5 13t-13.5 5H81z"/></svg>