<svg viewBox="0 0 300 368" xmlns="http://www.w3.org/2000/svg"><path d="M38 53q0 8-5.5 13T19 71q-8 0-13.5-5T0 53q0-8 5.5-13.5T19 34q8 0 13.5 5.5T38 53zM19 96q-8 0-13.5 5.5T0 115q0 8 5.5 13.5T19 134q8 0 13.5-5.5T38 115q0-8-5.5-13.5T19 96zm262 0q-8 0-13 5.5t-5 13.5q0 8 5 13.5t13 5.5q8 0 13.5-5.5T300 115q0-8-5.5-13.5T281 96zM19 234q-8 0-13.5 5.5T0 253q0 8 5.5 13t13.5 5q8 0 13.5-5t5.5-13q0-8-5.5-13.5T19 234zm262 0q-8 0-13 5.5t-5 13.5q0 8 5 13t13 5q8 0 13.5-5t5.5-13q0-8-5.5-13.5T281 234zm0-200q-8 0-13 5.5T263 53q0 8 5 13t13 5q8 0 13.5-5t5.5-13q0-8-5.5-13.5T281 34zm-62 0q-8 0-13.5 5.5T200 53q0 8 5.5 13t13.5 5q8 0 13.5-5t5.5-13q0-8-5.5-13.5T219 34zm-69 0q-8 0-13.5 5.5T131 53q0 8 5.5 13t13.5 5q8 0 13.5-5t5.5-13q0-8-5.5-13.5T150 34zm-69 0q-8 0-13 5.5T63 53q0 8 5 13t13 5q8 0 13.5-5t5.5-13q0-8-5.5-13.5T81 34zM19 165q-8 0-13.5 5.5T0 184q0 8 5.5 13.5T19 203q8 0 13.5-5.5T38 184q0-8-5.5-13.5T19 165zm262 0q-8 0-13 5.5t-5 13.5q0 8 5 13.5t13 5.5q8 0 13.5-5.5T300 184q0-8-5.5-13.5T281 165zm-62 0q-8 0-13.5 5.5T200 184q0 8 5.5 13.5T219 203q8 0 13.5-5.5T238 184q0-8-5.5-13.5T219 165zm-69 0q-8 0-13.5 5.5T131 184q0 8 5.5 13.5T150 203q8 0 13.5-5.5T169 184q0-8-5.5-13.5T150 165zm-69 0q-8 0-13 5.5T63 184q0 8 5 13.5t13 5.5q8 0 13.5-5.5T100 184q0-8-5.5-13.5T81 165zM19 296q-8 0-13.5 5.5T0 315q0 8 5.5 13.5T19 334q8 0 13.5-5.5T38 315q0-8-5.5-13.5T19 296zm262 0q-8 0-13 5.5t-5 13.5q0 8 5 13.5t13 5.5q8 0 13.5-5.5T300 315q0-8-5.5-13.5T281 296zm-62 0q-8 0-13.5 5.5T200 315q0 8 5.5 13.5T219 334q8 0 13.5-5.5T238 315q0-8-5.5-13.5T219 296zm-69 0q-8 0-13.5 5.5T131 315q0 8 5.5 13.5T150 334q8 0 13.5-5.5T169 315q0-8-5.5-13.5T150 296zm-69 0q-8 0-13 5.5T63 315q0 8 5 13.5t13 5.5q8 0 13.5-5.5T100 315q0-8-5.5-13.5T81 296zm88-43q0-8-5.5-13.5T150 234q-8 0-13.5 5.5T131 253q0 8 5.5 13t13.5 5q8 0 13.5-5t5.5-13zm0-138q0-8-5.5-13.5T150 96q-8 0-13.5 5.5T131 115q0 8 5.5 13.5T150 134q8 0 13.5-5.5T169 115z"/></svg>