<svg viewBox="0 0 300 368" xmlns="http://www.w3.org/2000/svg"><path d="M150 34q-41 0-75.5 20T20 108.5Q0 143 0 184t20 75.5Q40 294 74.5 314t75.5 20q41 0 75.5-20t54.5-54.5q20-34.5 20-75.5t-20-75.5Q260 74 225.5 54T150 34zm100 200q-29 8-59.5 6T132 227q9-12 21-22 26 10 54 10t53-9q-3 15-10 28zM155 72q19 22 30 49t14 56q-16-1-31-6-2-27-13.5-52T124 75q13-3 26-4l5 1zm106 93q-12 6-25 9-4-44-24-84 19 13 32 32.5t17 42.5zM86 91q9 7 16 16-40 29-64 72 1-26 14-49.5T86 91zM53 240q8-30 26-56t43-45q7 17 9 36-22 18-36.5 41.5T74 267q-13-12-21-27zm56 49q1-15 6-28 42 17 88 17h9q-23 15-50 18t-53-7z"/></svg>