<svg viewBox="0 0 300 368" xmlns="http://www.w3.org/2000/svg"><path d="M106 34H63q-17 0-31.5 8.5t-23 23Q0 80 0 97v43q0 8 5.5 13.5T19 159h87q8 0 13.5-5.5T125 140V53q0-8-5.5-13.5T106 34zm-18 87H38V96q0-10 7-17.5T63 71h25v50zm81 38h87q8 0 13.5-5.5T275 140V96q0-16-8.5-30.5t-23-23Q229 34 212 34h-43q-8 0-13.5 5.5T150 53v87q0 8 5.5 13.5T169 159zm19-88h25q10 0 17.5 7.5T238 96v25h-50V71zm-82 113H19q-8 0-13.5 5.5T0 203v43q0 17 8.5 31.5t23 23Q46 309 63 309h43q8 0 13.5-5.5T125 290v-87q0-8-5.5-13.5T106 184zm-18 87H63q-11 0-18-7t-7-18v-25h50v50zm207 31l-27-27q7-14 7-29 0-16-8.5-30.5t-23-23q-14.5-8.5-31-8.5t-31 8.5q-14.5 8.5-23 23t-8.5 31q0 16.5 8.5 31t23 23Q196 309 213 309q14 0 28-7l27 26q5 6 13 6t13.5-5.5Q300 323 300 315t-5-13zm-82-31q-11 0-18-7t-7.5-17.5q-.5-10.5 7-18t18-7.5q10.5 0 18 7.5t7 18Q237 257 230 264t-17 7z"/></svg>