<svg viewBox="0 0 300 368" xmlns="http://www.w3.org/2000/svg"><path d="M281 203H19q-8 0-13.5-5.5T0 184q0-8 5.5-13.5T19 165h262q8 0 13.5 5.5T300 184q0 8-5.5 13.5T281 203zm-45-83q3-11-2-22t-16-16L111 39q-10-5-21-5t-20.5 5.5Q60 45 55 54t-5 19v33q0 17 12 28.5T90 147h110q13 0 23-7.5t13-19.5zm-51-11H90q-2 0-3-3V73q0-1 1-1 1-1 2 0l95 37zm-74 220l105-42 2-1q11-5 16-16t2-22.5q-3-11.5-13.5-19T200 222H90q-16 0-28 11.5T50 262v33q0 10 5 19t14.5 14.5Q79 334 90 334t21-5zm74-70q-46 18-91 37-3 1-6 0-1 0-1-1v-33q0-1 1-2t2-1h95z"/></svg>