<svg viewBox="0 0 300 368" xmlns="http://www.w3.org/2000/svg"><path d="M299 135q-3-28-24-51t-54-36.5Q188 34 150 34T79 47.5Q46 61 25 84T1 135q-1 3-1 5v44q0 41 20 75.5T74.5 314q34.5 20 75.5 20t75.5-20q34.5-20 54.5-54.5t20-75.5v-44q0-2-1-5zM150 71q30 0 56 10.5t41.5 28q15.5 17.5 15.5 37t-15.5 37Q232 201 206 211t-56 10q-30 0-56-10t-41.5-27.5q-15.5-17.5-15-37t15.5-37q15-17.5 41-28t56-9.5v-1zm0 225q-34 0-62.5-19T46 228q21 14 47.5 22.5T150 259q30 0 56.5-8.5T254 228q-13 30-41.5 49.5T150 297v-1zm5-117q8 13 8 18t-4 8.5q-4 3.5-9 3.5t-8.5-3.5Q138 202 138 197t7-18q2-3 5-3t5 3zm-10-65q-7-13-7-18t3.5-8.5Q145 84 150 84t9 3.5q4 3.5 4 8.5t-8 18q-2 3-5 3t-5-3zm-82 33q-1-6 3-9.5t9-3.5q5 0 18 8 2 1 2 4.5t-2 4.5q-13 8-18 8t-8.5-3.5Q63 152 63 147zm144-5q13-8 18-8t9 3.5q4 3.5 4 9t-4 9q-4 3.5-9 3.5t-18-8q-2-1-2-4.5t2-4.5zm-24-24q5-15 8.5-18.5t8.5-3q5 .5 8.5 4t3.5 9q0 5.5-3.5 9T190 124q-3 1-5-1t-2-5zm-91 0q-4-3-4.5-8.5t3-9q3.5-3.5 9-4t9 3Q112 103 116 118q1 3-1 5t-5 1q-15-2-18-6zm116 57q4 3 4.5 8.5t-3 9q-3.5 3.5-9 4t-9-3Q188 190 184 175q-1-3 1-5t5-1q15 3 18 6zm-92 0q-4 15-7.5 18.5t-9 3q-5.5-.5-9-4t-3-9q.5-5.5 4-8.5t18.5-6q3-1 5 1t1 5zm3-28q0-6 9-9.5t22-3.5q13 0 22 3.5t9 9q0 5.5-9 9t-22 3.5q-13 0-22-3.5t-9-8.5z"/></svg>