<svg viewBox="0 0 300 368" xmlns="http://www.w3.org/2000/svg"><path d="M281 146q8 0 13.5-5t5.5-13q0-8-5.5-13.5T281 109h-45l8-54q1-7-4-13.5T227.5 34q-7.5-1-13.5 3.5T206 50l-8 59h-75l8-54q1-7-3.5-13.5T115 34q-8-1-14 3.5T94 50l-8 59H31q-8 0-13.5 5.5t-5 13.5q.5 8 5.5 13t13 6h49l-11 74H19q-8 0-13.5 5.5T0 240q0 8 5.5 13.5T19 259h45l-8 54q-1 7 4 13.5t12.5 7.5q7.5 1 13.5-3.5t8-12.5l8-59h75l-8 54q-1 7 3.5 13.5T185 334q8 1 14-3.5t7-12.5l8-59h55q8 0 13.5-5.5t5-13.5q-.5-8-5.5-13.5t-13-5.5h-49l11-75h50zm-99 75h-75l11-75h75l-11 75z"/></svg>