<svg viewBox="0 0 300 368" xmlns="http://www.w3.org/2000/svg"><path d="M231 84h-43V71q0-15-11-26t-27-11q-16 0-27 11t-10 27v12H69q-19 0-34.5 9.5t-25 25Q0 134 0 153v112q0 19 9.5 34.5t25 25Q50 334 69 334h162q19 0 34.5-9.5t25-25Q300 284 300 265V153q0-19-9.5-34.5t-25-25Q250 84 231 84zm32 181q0 13-9.5 22t-22.5 9H69q-13 0-22-9t-9-22V153q0-13 9-22t22-9h47q3 5 9 8.5t13 3.5h25q6 0 12-3.5t9-9.5h47q13 0 22.5 9.5T263 153v112zm-144-87q0-13 9-22t22-9.5q13-.5 22 9t9 22.5q0 13-9 22t-22 9q-13 0-22-9t-9-22zm81 81q1 5-2 8.5t-8 3.5h-80q-5 0-8-3.5t-2-8.5q5-16 19-27t31-11q17 0 31 11t19 27z"/></svg>