<svg viewBox="0 0 300 368" xmlns="http://www.w3.org/2000/svg"><path d="M231 109H69q-19 0-34.5 9.5t-25 25Q0 159 0 178v87q0 19 9.5 34.5t25 25Q50 334 69 334h162q19 0 34.5-9.5t25-25Q300 284 300 265v-87q0-19-9.5-34.5t-25-25Q250 109 231 109zm32 156q0 8-3.5 14.5T250 290q0-18-13-30.5t-31-13q-18-.5-31 12.5t-13 31v6h-24v-6q0-18-13-31t-31-13q-18 0-31 13t-13 31q-6-4-9-10.5T37 265v-87q1-13 10-22.5t22-9.5h162q13 0 22.5 9.5T263 178v87zm-138-62q0 13-9 22t-22 9q-13 0-22-9t-9-22q0-13 9-22.5t22-9.5q13 0 22 9.5t9 22.5zm113 0q0 13-9.5 22t-22.5 9q-13 0-22-9t-9-22q0-13 9-22.5t22-9q13 .5 22.5 9.5t9.5 22zM56 67l31-30q3-3 7-3t7 3l30 30q5 5 2.5 11t-9.5 6H63q-6 0-8.5-6T56 67zm113-16q-5-5-2.5-11t9.5-6h61q6 0 8.5 6T244 51l-31 30q-3 3-7 3t-7-3l-30-30z"/></svg>