<svg viewBox="0 0 300 368" xmlns="http://www.w3.org/2000/svg"><path d="M263 198v-70q0-19-9.5-34.5t-25.5-25Q212 59 194 59h-88q-18 0-34 9.5t-25 25Q38 109 38 128v70q-17 4-27.5 17.5T0 246v13q0 21 14.5 35.5T50 309h200q21 0 35.5-14.5T300 259v-13q0-17-10.5-30.5T263 198zM75 128q0-13 9-22.5t22-9.5h88q13 0 22 9.5t9 22.5v118H75V128zm31 61l18-18-18-18q-6-5-6-13t5.5-13.5Q111 121 119 121t13 6l18 18 18-18q6-6 13.5-6t13 6q5.5 6 5.5 13.5t-5 12.5l-18 18 18 18q5 6 5 14t-5.5 13q-5.5 5-13 5t-13.5-5l-18-18-18 18q-5 5-13 5t-13.5-5.5q-5.5-5.5-5.5-13t6-13.5z"/></svg>