<svg viewBox="0 0 300 368" xmlns="http://www.w3.org/2000/svg"><path d="M263 84q0-16-11-27t-27-11q-7 0-14 3-12-12-29-14.5T150 41q-15-9-32-6.5T89 49q-7-3-14-2-16-1-27 10T37 84q1 18 13 31v150q0 19 9.5 34.5t25 25Q100 334 119 334h62q19 0 34.5-9t25-25q9.5-16 9.5-34V115q12-13 12-31h1zm-117-9q6-4 13-3t11.5 6.5Q175 84 175 91t-5 12q-10 6-18 13-16-11-33-19 13-13 27-22zm35 221h-62q-13 0-22-9t-9-22V125q23 7 49.5 28t46.5 49q22 32 29 65-1 12-10 21t-22 9v-1zm32-119q-14-19-32-36 14-11 31-16l1 52zm-63 26q0 8-5.5 13.5T131 222q-8 0-13.5-5.5T112 203q0-8 5.5-13.5T131 184q8 0 13.5 5.5T150 203zm0 50q0-8 5.5-13.5T169 234q8 0 13.5 5.5T188 253q0 8-5.5 13.5t-13.5 5q-8-.5-13.5-5.5t-5.5-13z"/></svg>