<svg viewBox="0 0 300 368" xmlns="http://www.w3.org/2000/svg"><path d="M0 103v162q0 19 9.5 34.5t25 25Q50 334 69 334h162q19 0 34.5-9.5t25-25Q300 284 300 265V103q0-19-9.5-34.5t-25-25Q250 34 231 34H69q-19 0-34.5 9.5t-25 25Q0 84 0 103zm231-32q13 0 22.5 9.5T262 103v162q0 13-9 22t-22 9H69q-13 0-22-9t-9-22V103q0-13 9-22.5T69 72l162-1zm-71 70l24 24H81q-8 0-13.5 5.5t-5 13.5q.5 8 5.5 13.5t13 5.5h103l-24 24q-4 4-5 9t0 9.5q1 4.5 5 8.5t9 5q5 1 9.5-.5t8.5-5.5l38-38q12-13 12-31t-12-31l-38-38q-4-4-8.5-5.5t-9.5-.5q-5 1-9 5t-5 8.5q-1 4.5 0 9.5t5 9z"/></svg>