<svg viewBox="0 0 300 368" xmlns="http://www.w3.org/2000/svg"><path d="M150 34q-41 0-75.5 20T20 108.5Q0 143 0 184t20 75.5Q40 294 74.5 314t75.5 20q41 0 75.5-20t54.5-54.5q20-34.5 20-75.5t-20-75.5Q260 74 225.5 54T150 34zm-17 193l17-16 65 65q-23 16-52 20-6-38-30-69zm34-86l-17 16-65-65q23-16 52-20 6 38 30 69zm-44 43l-16 17q-31-24-69-30 4-29 20-52l65 65zm54 0l16-17q31 24 69 30-4 29-20 52l-65-65zm82-26q-31-7-53.5-29.5T176 75q31 7 53.5 29.5T259 158zM41 210q31 7 53.5 29.5T124 293q-31-7-53.5-29.5T41 210z"/></svg>