<svg viewBox="0 0 300 368" xmlns="http://www.w3.org/2000/svg"><path d="M300 184q0 41-20 75.5T225.5 314Q191 334 150 334t-75.5-20Q40 294 20 259.5T0 184q0-7 .5-14T7 158q6-5 14-4.5t13 6.5q5 6 4 14v10q0 31 15 56.5t40.5 41Q119 297 150 297t56.5-15.5q25.5-15.5 41-41T262 184v-10q-1-8 4-14t13-6.5q8-.5 14 4.5t6.5 12q.5 7 .5 14zm-110-72l41 6q3 1 5 3t2 5q0 3-2.5 5.5T230 134h-33q-8 0-11-5.5t-8-6.5q-5-1-9.5 1.5T163 131q-1 5 1 9 5 9 14 14t19 5h3q0 5 3.5 8.5t9 3.5q5.5 0 9-3.5t3.5-8.5h5q13 0 23-9.5t10-22.5q0-13-8-22t-20-11l-41-7q-3 0-4.5-2.5T188 79q0-3 2-5.5t5-2.5h33q8 0 11 5.5t8 7q5 1.5 9.5-1T262 75q1-5-1-10-5-8-14-13.5T228 46h-3q0-5-3.5-8.5t-9-3.5q-5.5 0-9 3.5T200 46h-5q-13 0-22.5 10T163 78.5q0 12.5 7.5 22T190 112zm-125 0l41 6q3 1 5 3t2 5q0 3-2.5 5.5T105 134H72q-8 0-11-5.5t-8-6.5q-5-1-9.5 1.5T38 131q-1 5 1 9 5 9 14 14t19 5h3q0 5 3.5 8.5t9 3.5q5.5 0 9-3.5t3.5-8.5h5q13 0 22.5-9.5t10-22.5q.5-13-7.5-22t-20-11l-41-7q-3 0-5-2.5T62.5 79q.5-3 2.5-5.5t5-2.5h33q8 0 11 5.5t8 7q5 1.5 9.5-1T137 75q1-5-1-10-5-8-14-13.5T103 46h-3q0-5-3.5-8.5t-9-3.5q-5.5 0-9 3.5T75 46h-5q-13 0-23 10t-9.5 22.5q.5 12.5 8 22T65 112zm141 84H94q-8 0-13.5 5.5T75 215q0 8 5.5 13.5T94 234h19q2 16 12.5 27t24.5 10.5q14-.5 24.5-11T187 234h19q8 0 13.5-5.5T225 215q0-8-5.5-13t-13.5-6z"/></svg>