<svg viewBox="0 0 300 368" xmlns="http://www.w3.org/2000/svg"><path d="M206 34q-26 0-47.5 7.5t-33.5 20Q113 74 113 90v50q-1 8 4.5 13.5T131 159q8 0 13.5-5.5T150 140v-4q24 10 56 10.5t57-10.5v17q0 2-7.5 7t-18.5 8q-14 3-31 3h-11q-7-1-13 4t-7 13q-1 8 4 14t13 6l14 1q32 0 57-11v17q0 3-7.5 7.5T237 230q-14 4-31 4-8 0-13.5 5.5T187 253q0 8 5.5 13.5T206 272q32-1 57-11v17q0 2-7.5 7t-18.5 8q-14 4-31 4l-11-1q-7-1-13 4t-7 13q-1 8 4 14t13 6l14 1q27 0 48-7.5t33.5-20Q300 294 300 278V90q0-16-12.5-28.5t-33.5-20Q233 34 206 34zm0 75q-16 0-30-4-12-3-19-7.5t-7-7q0-2.5 7-7.5t19-8q14-3 30.5-3t30.5 3q11 3 18 8t7.5 7.5q.5 2.5-7 7T237 105q-14 4-31 4zM81 171q-22 0-40.5 11T11 212Q0 231 0 253t11 40.5Q22 312 40.5 323T81 334q22 0 41-11t30-29.5q11-18.5 11-40.5t-11-41q-11-19-30-30t-41-11zm39 88h-20v31q0 8-5.5 13.5T81 309q-8 0-13.5-5.5T62 290v-31H43q-5 0-8.5-3.5T31 247q0-5 3-9l39-38q3-4 8-4t9 4l38 38q4 4 4 9t-3.5 8.5Q125 259 120 259z"/></svg>