<svg viewBox="0 0 300 368" xmlns="http://www.w3.org/2000/svg"><path d="M225 221q0-28 17-49 6-7 8-15.5t-.5-17q-2.5-8.5-8.5-15t-14-9.5q-17-6-35-6h-5q21-7 32-19 15-15 18-42 1-6-3-10.5T223 34q-27 3-42 18-11 12-16 35-6-26-18-45-4-6-12-7.5T120.5 37q-6.5 4-8 12t3 14.5Q120 70 123 78q6 15 8 31h-23q-18 0-35 6-8 3-14 9.5t-8.5 15q-2.5 8.5-.5 17t8 15.5q17 22 17 49.5T58 271q-6 7-8 15.5t.5 17q2.5 8.5 8.5 15t14 9.5q17 6 35 6 9 0 18-3 5-2 12-5 8-4 11.5-4t6.5 1l7 3q7 4 12 5 8 3 17 3 18 0 35-6 8-3 14-9.5t8.5-15q2.5-8.5.5-17t-8-15.5q-17-22-17-50zm-13 72q-10 3-20 4-4-1-12-4-7-4-12-6-9-3-18-3t-17 3q-5 1-12 5-8 5-13 5-10 0-20-4 12-15 18-33.5t6.5-38q.5-19.5-6-38T88 150q10-4 20-4h84q10 0 20 4-12 15-18 33.5t-6 38q0 19.5 6 38t18 33.5z"/></svg>