<svg viewBox="0 0 300.0049 368" xmlns="http://www.w3.org/2000/svg"><path d="M58.005 120q6 10 5 22t-9 22l-5 6q3 10-2.5 18t-15.5 8h-12q-6 0-10.5-3t-7-8q-2.5-5-1.5-10.5t4-9.5l22-25-22-26q-3-4-4-9.5t1.5-10.5q2.5-5 7-8t10.5-3h31V52q0-5 3-10t8-7q5-2 10.5-1.5t9.5 4.5l25 21 26-21q4-4 9.5-4.5t10.5 1.5q5 2 7.5 7t3.5 10v13q-1 9-9 15t-17 2l-7 6q-9 7-21 8t-22-5q-3 11-10.5 19t-18.5 10zm242 65v36q0 26-11 50l-6 14q-8 19-27 26-7 3-15 4l-2 5q-5 9-14.5 12.5t-19-1q-9.5-4.5-13-14t.5-18.5l-67-32q-4 10-14 13.5t-19-1q-9-4.5-12.5-14.5t.5-19l3-6q-7-10-8.5-22t2.5-24l8-18q11-24 31-41l27-23q15-13 35-15.5t39 5.5l42 21q18 8 29 25t11 37zm-132-44l-10 9 105 50v-15q-1-9-5.5-16.5t-13.5-11.5l-43-21q-8-4-17-2.5t-16 7.5zm92 100l-17-8-3 7q-2 5-6 8.5t-9 4q-5 .5-9.5-1.5t-7.5-6q-3-4-4-9t1-10l4-10-31-15-4 10q-2 4-6 7.5t-9 4q-5 .5-10-1.5t-8-6q-3-4-3.5-9t1.5-10l5-11-15-8q-5 7-9 14l-7 18q-1 3 .5 7t4.5 6l116 54q4 2 8 .5t6-5.5l7-16q3-7 5-14z"/></svg>