<svg viewBox="0 0 300 368" xmlns="http://www.w3.org/2000/svg"><path d="M275 105V65q0-8-5.5-13T256 46.5q-8-.5-13 5T238 65v14l-50-33q-17-12-38-12t-38 12l-82 55q-14 9-22 24t-8 33v107q0 19 9.5 34.5t25 25Q50 334 69 334h37q8 0 13.5-5.5T125 315V215q0-2 2-4t4-2h38q2 0 4 2t2 4v100q0 8 5.5 13.5T194 334h37q19 0 34.5-9.5t25-25Q300 284 300 265V158q0-16-6.5-30T275 105zm-12 160q0 13-9.5 22t-22.5 9h-18v-81q0-18-13-31t-31-13h-38q-18 0-30.5 13T88 215v81H69q-13 0-22.5-9T37 265V158q1-8 4.5-15t9.5-11l82-55q7-6 17-6t17 6l82 55q6 4 10 11t4 15v107z"/></svg>