<svg viewBox="0 0 300 368" xmlns="http://www.w3.org/2000/svg"><path d="M263 112v-9q0-19-9.5-34.5t-25.5-25Q212 34 194 34h-88q-18 0-34 9.5t-25 25Q38 84 38 103v9q-17 6-27.5 20.5T0 165v113q0 23 16.5 39.5T56 334h188q23 0 39.5-16.5T300 278V165q0-18-10.5-32.5T263 112zm-188-9q0-13 9-22.5t22-9.5h88q13 0 22 9.5t9 22.5v193H75V103zm88 43q0 6-4 9.5t-9 3.5q-5 0-9-3.5t-4-9.5v-12h-12q-5 0-9-3.5t-4-9q0-5.5 4-9t9-3.5h13V96q0-5 3.5-8.5T150 84q5 0 9 3.5t4 9.5v12h12q5 0 9 3.5t4 9q0 5.5-4 9t-9 3.5h-12v12zm-25 44q-1 8-6 13.5t-13 5.5q-8 0-13.5-5.5T100 190q0-8 5.5-13.5T119 171q8 0 13.5 5.5T138 190zm62 0q0 8-5.5 13.5T181 209q-8 0-13-5.5t-5-13.5q0-8 5-13.5t13-5.5q8 0 13.5 5.5T200 190zm-62 63q-1 8-6 13t-13 5q-8 0-13.5-5t-5.5-13q0-8 5.5-13.5T119 234q8 0 13.5 5.5T138 253zm62 0q0 8-5.5 13t-13.5 5q-8 0-13.5-5t-5-13q.5-8 5.5-13.5t13-5.5q8 0 13.5 5.5T200 253z"/></svg>