<svg viewBox="0 0 300 368" xmlns="http://www.w3.org/2000/svg"><path d="M295 89l-50-50q-6-5-14-5t-13.5 5.5Q212 45 212 53t6 13l12 12-17 16q-20-12-44-9.5T128 104l-63 64q-13 13-20.5 30T37 234v36L5 302q-3 4-4.5 8.5t0 9.5q1.5 5 5 8.5t8.5 5q5 1.5 10 0t8-5.5l32-32h36q19 1 36-6.5t30-20.5l64-63q17-17 19.5-41t-9.5-44l16-17 12 12q5 6 13 6t13.5-5.5Q300 111 300 103t-5-14zm-92 90l-63 64q-17 16-40 16H75v-25q0-10 4-20l14 15q6 5 13.5 5t13-5.5Q125 223 125 215t-5-13l-19-18 24-24 18 19q5 5 13 5t13.5-5.5Q175 173 175 165t-5-13l-19-18 4-3q9-9 22-9t22 9l4 4q9 9 9 22t-9 22z"/></svg>