<svg viewBox="0 0 300 368" xmlns="http://www.w3.org/2000/svg"><path d="M38 98v42q0 8-5.5 13.5T19 159q-8 0-13.5-5.5T0 140V78q0-18 13-31t31-13h62q8 0 13.5 5.5T125 53q0 8-5.5 13T106 71H64l131 131q5 5 5 13t-5.5 13.5Q189 234 181 234t-13-6L38 98zm137-14q-11 0-22 2-8 1-12.5 7.5t-3 14q1.5 7.5 8 12t14 3Q167 121 175 121q24 1 44 12.5t31.5 31.5q11.5 20 12 44T251 253q-12 20-32 31.5T175 296q-24 0-44-11.5T99.5 253Q88 233 88 209q0-8 1-15.5t-3.5-14q-4.5-6.5-12-8t-14 3Q53 179 52 187q-2 11-2 22 0 34 17 62.5t45.5 45.5q28.5 17 62.5 17t62.5-17q28.5-17 45.5-45.5t17-62.5q0-34-17-62.5T237.5 101Q209 84 175 84z"/></svg>