<svg viewBox="0 0 300 368" xmlns="http://www.w3.org/2000/svg"><path d="M254 334h-23q-8 0-13-5.5t-5-13.5q0-8 5-13t13-5h23q5-1 7.5-5.5t-.5-8.5l-34-58q-2-5-2-10t2.5-9q2.5-4 7-6.5t9.5-2.5h2l-32-46q-3-4-3.5-9.5T213 131q3-5 9-8l-35-49-36 52q-5 6-12.5 7.5t-14-3q-6.5-4.5-7.5-12t3-14.5l41-57q10-13 26.5-13T213 46l44 61q5 8 5.5 17.5T258 142l-2 4 26 36q5 8 5.5 17t-3.5 17q-4 8-11 12l20 35q6 10 6.5 22.5t-5.5 24q-6 11.5-17 18t-23 6.5zm-66-56v-45q0-14-6.5-26.5T164 185l-32-25q-17-14-38-14t-38 14l-32 25q-12 9-18 21.5T0 233v45q0 23 16.5 39.5T56 334h75q24 0 40.5-16.5T188 278zm-79-89l32 25q9 8 9 19v45q0 8-5.5 13.5T131 297H56q-8 0-13.5-5.5T37 278v-45q1-11 10-19l32-25q6-5 14.5-5t15.5 5zm4 70v-13q0-5-4-8.5t-9-3.5H88q-6 0-9.5 3.5T75 246v13q0 5 3.5 8.5T87 271h13q5 0 9-3.5t3-8.5h1z"/></svg>