<svg viewBox="0 0 300 368" xmlns="http://www.w3.org/2000/svg"><path d="M231 96h-37q-13 1-22 10t-9 22v31h-21l-17-27q-7-11-18-17t-24-6h-8q-16 0-27 11t-11 26v52q1 13 7.5 24.5T62 240l38 23v52q0 8 5.5 13.5T119 334q8 0 13.5-5.5T138 315v-55q0-8-4.5-15.5T122 233l-22-13v-57l12 19q4 7 11 11t15 4h93q13-1 22-10t9-22v-37q1-13-8.5-22.5T231 96zm-6 63h-25v-25h25v25zM50 65q0-13 9-22t22-9q13 0 22 9t9.5 22q.5 13-9 22.5t-22.5 9Q68 96 59 87t-9-22zm25 219v31q0 8-5.5 13.5T56 334q-8 0-13.5-5.5T38 315v-31q0-8 5-13.5t13-5.5q8 0 13.5 5.5T75 284z"/></svg>