<svg viewBox="0 0 300 368" xmlns="http://www.w3.org/2000/svg"><path d="M231 34H69q-19 0-34.5 9.5t-25 25Q0 84 0 103v162q0 19 9.5 34.5t25 25Q50 334 69 334h162q19 0 34.5-9.5t25-25Q300 284 300 265V103q0-19-9.5-34.5t-25-25Q250 34 231 34zm32 231q0 13-9.5 22t-22.5 9H69q-13 0-22.5-9T37 265V103q1-13 10-22.5T69 71h162q13 0 22 9.5t9 22.5v162h1zm-63-119q0-20-14.5-35T150 96q-21 0-35.5 15T100 147q0 16 10 29-16 16-16 39.5t16.5 39.5q16.5 16 39.5 16t39.5-16q16.5-16 16.5-39.5T190 176q10-13 10-29v-1zm-50-18q8 0 13.5 5.5t5.5 13q0 7.5-5.5 13T150 165q-8 0-13.5-5.5t-5.5-13q0-7.5 5.5-13T150 128zm0 106q-8 0-13.5-5.5T131 215q0-8 5.5-13.5T150 196q8 0 13.5 5.5T169 215q0 8-5.5 13.5T150 234z"/></svg>