<svg viewBox="0 0 300 368" xmlns="http://www.w3.org/2000/svg"><path d="M125 115q0 8 5.5 13.5T144 134q8 0 13-5.5t5.5-13.5q.5-8-5-13.5t-13.5-5q-8 .5-13.5 5.5t-5.5 13zm13 138q0 8 5 13.5t13 5q8-.5 13.5-5.5t5.5-13q0-8-5.5-13.5T156 234q-8 0-13.5 5.5T138 253zm12-219q-41 0-75.5 20T20 108.5Q0 143 0 184t20 75.5Q40 294 74.5 314t75.5 20q41 0 75.5-20t54.5-54.5q20-34.5 20-75.5t-20-75.5Q260 74 225.5 54T150 34zM78 270q-19-16-29.5-38.5T38 184q0-30 14.5-55.5T92 88q25-15 54-16 17 2 29.5 15.5t12.5 31q0 17.5-12 31T147 165q-20 3-36.5 15t-26 30.5Q75 229 75 250q0 9 3 20zm76 26q-17-2-29-15.5t-12-31q0-17.5 11.5-31T153 203q20-3 36.5-15.5t26-30.5q9.5-18 9.5-39 0-9-2-20 18 16 29 38.5t11 47.5q0 30-14.5 55.5T209 280q-25 15-55 16z"/></svg>