<svg viewBox="0 0 300 368" xmlns="http://www.w3.org/2000/svg"><path d="M5 116q-5-5-5-13t5-13l25-26q5-4 10.5-5T51 60.5q5 2.5 8.5 7T62 78v112q1 8-4.5 13.5T44 209q-8 0-13.5-5.5T25 190v-70q-5 2-10.5 1T5 116zm183 18V84q-1-21 14-35.5T237.5 34Q258 34 273 48.5T288 84v50q0 21-15 35.5T237.5 184q-20.5 0-35.5-14.5T187 134h1zm37 0q0 5 3.5 9t9 3.5q5.5-.5 9-4t3.5-8.5V84q0-5-3.5-9t-9-4q-5.5 0-9 4t-3.5 9v50zM75 146V96q0-20 14.5-35T125 46q21 0 35.5 15T175 96v50q0 21-14.5 35.5T125 196q-21 0-35.5-14.5T75 146zm38 0q0 6 3.5 9.5t8.5 3.5q5 0 9-3.5t3-9.5V96q1-5-3-8.5t-9-3.5q-5 0-8.5 3.5T113 97v49zm187 66q-2-8-8.5-12.5T278 197L15 247q-7 1-11.5 7.5T.5 268Q2 275 7 279.5t12 4.5h3l263-50q7-2 11.5-8.5T300 212zm-22 54l-163 31q-7 1-11.5 7.5t-3 13.5q1.5 7 6.5 11.5t12 4.5h3l163-32q7-1 11.5-7.5t3-14q-1.5-7.5-8-12T278 266z"/></svg>