<svg viewBox="0 0 300 368" xmlns="http://www.w3.org/2000/svg"><path d="M158 127q-7-13-20-21 1-4 4.5-7t7.5-3h13q5 1 8.5 4.5t3.5 8.5v12q0 6-3.5 9.5T163 134h-2l-3-7zm67 94h-12q-3 0-6 2l18 36q5 0 9-3.5t4-9.5v-12q0-5-4-8.5t-9-3.5v-1zm0-125h-12q-6 0-9.5 4t-3.5 9v12q0 6 3.5 9.5t9.5 3.5h12q5 0 9-3.5t4-9.5v-12q0-5-4-8.5t-9-3.5v-1zm0 63h-12q-6 0-9.5 3.5T200 172v12q0 5 3.5 8.5t9.5 3.5h12q5 0 9-3.5t4-8.5v-13q0-5-4-8.5t-9-3.5zm6-125h-87q-19 0-35 9.5T84 69q-4 7-2 14.5T91 95q7 4 14.5 1.5T117 87q4-7 11-11.5t16-4.5h87q13 0 22 9.5t9 22.5v169q1 14-10 23-2 2-5 4-7 4-9 11.5t2 14.5q3 4 7 6.5t9 2.5q5 0 10-3t11-8q11-9 17-22.5t6-28.5V103q0-19-9.5-34.5t-25-25Q250 34 231 34zm-23 246q5 9 4.5 18.5T207 316q-5 8-13 13t-18 5H37q-10 0-18.5-5T5 316q-5-8-5-17.5T4 280l73-141q4-8 12-12.5t17-4.5q9 0 17 4.5t12 12.5l73 141zm-34 16l-36-71-9 18q-3 4-7.5 3.5T115 243l-9-15-8 15q-3 3-7 3.5t-7-3.5l-9-18-37 72 136-1z"/></svg>