<svg viewBox="0 0 300 368" xmlns="http://www.w3.org/2000/svg"><path d="M231 34H69q-19 0-34.5 9.5t-25 25Q0 84 0 103v162q0 19 9.5 34.5t25 25Q50 334 69 334h162q19 0 34.5-9.5t25-25Q300 284 300 265V103q0-19-9.5-34.5t-25-25Q250 34 231 34zm32 231q0 13-9.5 22t-22.5 9H69q-13 0-22-9t-9-22V103q0-13 9-22.5T69 71h162q13 0 22.5 9.5T263 103v162zm-67-99q4-9 4-20 0-20-14.5-35T150 96h-31q-18 0-31 13t-13 31v88q0 18 13 30.5t31 12.5h50q23 0 39.5-16t16.5-40q0-15-8-28.5T196 166zm-83-26q-1-2 1-4t5-2h31q5 0 9 3.5t4 9q0 5.5-4 9t-9 3.5h-38v-19h1zm56 94h-50q-3 0-4.5-2t-1.5-4v-32h56q8 0 13.5 5.5T188 215q0 8-5.5 13.5T169 234z"/></svg>