<svg viewBox="0 0 300 368" xmlns="http://www.w3.org/2000/svg"><path d="M131 184q8 0 13.5-5.5T150 165q0-8-5.5-13.5T131 146h-6v-6q0-8-5.5-13t-13.5-5.5q-8-.5-13.5 5T87 140v6H63v-6q-1-8-6.5-13.5T44 122q-8 0-13.5 5.5T25 140v6h-6q-8 1-13.5 6T0 165q0 8 5.5 13.5T19 184h6v25h-6q-8 0-13.5 5.5T0 228q0 8 5.5 13.5T19 247h6v6q0 8 5.5 13t13.5 5q8 0 13.5-5.5T63 253v-7h24v7q0 8 5.5 13.5t13.5 5q8-.5 13.5-5.5t5.5-13v-7h6q8 0 13.5-5t5.5-13q0-8-5.5-13.5T131 209h-6v-25h6zm-43 25H63v-25h25v25zm212 81q0 8-5.5 13.5T281 309h-93q-10 0-19-5t-14-14q-5-9-5-19.5t6-19.5q7-11 21-23 8-8 28-23 32-24 44-37 16-20 13-39-2-13-12.5-22.5T225 96q-12 0-21 7t-13 18q-3 8-10 11t-14 .5q-7-2.5-10.5-9.5t-1.5-14q8-23 27-36.5T225 59q28 0 49 18.5t25 46.5q4 24-7 46-9 18-29 36-11 11-36 29-16 13-23 19-12 10-16 17h93q8 0 13.5 5.5T300 290z"/></svg>