<svg viewBox="0 0 300 368" xmlns="http://www.w3.org/2000/svg"><path d="M281 109h-25q15 7 29 17 6 4 7.5 11.5t-3.5 15q-5 7.5-15 7.5-6 0-11-4-11-8-23-13-19-9-34-9-8 0-20 6-6 4-19 13l-8 5q-3 2-6.5 0t-2.5-6q2-9 6-19t8-16q-19-6-38-18-16-10-24-19-3-3-1-6t5-2l12 2q32 6 47 8-7-9-13-21-7-13-8-21-1-3 2-5t6 0l5 4q23 20 33 25-2-12-2-25 0-2 1-3.5t3-1.5q2 0 4 4l1 2q5 10 13 19h14q7 0 13 3.5t10 9.5h34q8 0 13.5 5.5t5.5 13q0 7.5-5.5 13T281 109zm-59 57l-4-3q-7-5-14.5-4t-12 7.5q-4.5 6.5-3.5 14t7 12.5l5 3q24 18 34 30 16 18 16 39 0 13-15 21-11 6-29 9 7-10 7-23 0-18-14-34-8-9-29-24-23-16-31-25-14-16-14-35l2-9q2-7-2-14t-11.5-9q-7.5-2-14.5 2t-8.5 11q-1.5 7-2.5 15l-35 20q-3 2-2 6t5 5l37 3q2 6 5 12l-21 15q-3 3-1.5 7t5.5 4h38q5 5 12 10l-12 19q-1 3 1 6t6 2l31-8q18 14 18 21v2q-2 3-14 4h-17q-35-2-59-17-20-11-32-29-9-14-13-29-3-9-3-13-5-47 9-87l9 20q1 5 6.5 4.5T68 122q10-50 10-80 0-4-4-6.5t-8-.5q-13 8-31 21.5T2 85q-3 4-1.5 8T7 97h19Q0 140 0 190q0 36 22.5 69.5t59 54Q118 334 156 334h25q50 0 78.5-18t27.5-51q1-23-11-44-9-16-25-32-10-9-29-23z"/></svg>