<svg viewBox="0 0 300 368" xmlns="http://www.w3.org/2000/svg"><path d="M238 190q0 8-5.5 13.5T219 209q-8 0-13.5-5.5T200 190q0-8 5.5-13.5T219 171q8 0 13.5 5.5T238 190zm43-44q8 0 13.5-5t5.5-13q0-8-5.5-13.5T281 109q-8 0-13 5.5t-5 13.5q0 8 5 13.5t13 5.5v-1zm-62 88q-8 0-13.5 5.5T200 253q0 8 5.5 13t13.5 5q8 0 13.5-5t5.5-13q0-8-5.5-13.5T219 234zm62-63q-8 0-13 5.5t-5 13.5q0 8 5 13.5t13 5.5q8 0 13.5-5.5T300 190q0-8-5.5-13.5T281 171zm0 63q-8 0-13.5 5.5t-5 13.5q.5 8 5.5 13t13 5q8 0 13.5-5t5.5-13q0-8-5.5-13.5T281 234zm0 62q-8 0-13 5.5t-5 13.5q0 8 5 13.5t13 5.5q8 0 13.5-5.5T300 315q0-8-5.5-13t-13.5-5v-1zm-62 0q-8 0-13.5 5.5T200 315q0 8 5.5 13.5T219 334q8 0 13.5-5.5t5-13.5q-.5-8-5.5-13.5t-13-4.5v-1zm-63-62q-8 0-13.5 5.5T137 253q0 8 5.5 13t13.5 5q8 0 13.5-5t5.5-13q0-8-5.5-13.5T156 234zm0 62q-8 0-13.5 5.5t-5 13.5q.5 8 5.5 13.5t13 5.5q8 0 13.5-5.5T175 315q0-8-5.5-13t-13.5-5v-1zm93-227q2 11-1 21.5T238 109l-88 88q-12 12-30 12-5 0-10-1-10-3-18-10t-11.5-18Q77 169 76 158q-4-51 7-80-13-7-28-7-7 0-12.5 5.5T37 89v226q0 8-5.5 13.5t-13 5.5q-7.5 0-13-5.5T0 315V89q0-23 16-39t39-16q28 0 52 15 29-19 92-14 11 1 22 4.5T239 51q7 8 10 18zm-37 9q0-2-2-3-7-2-14-3-11-1-21-1-21 1-34 4t-18 8q-5 5-8 22-4 20-2 50 1 7 3 13 1 3 3.5 3.5t4.5-1.5l87-87q2-2 1-5z"/></svg>