<svg viewBox="0 0 300 368" xmlns="http://www.w3.org/2000/svg"><path d="M81 196H19q-8 0-13.5-5T0 178q0-8 5.5-13.5T19 159h62q8 0 13.5 5.5T100 178q0 8-5.5 13.5T81 196zm150 0h-87q-8 0-13.5-5t-5.5-13q0-8 5.5-13.5T144 159h87q13 0 22.5-9.5T263 127q-1-9-6.5-15.5T242 103q-12-2-21 5.5t-8 19.5q-1 8-6 13.5t-13 5.5q-16-2-19-16-2-12 5-28t17-23q14-12 32-14.5t34.5 5Q280 78 290 93.5t10 33.5q0 14-5 26.5T280 176q-10 10-22.5 15.5T231 196zM88 134H19q-8 0-13.5-5.5T0 115q0-8 5.5-13.5T19 96h69q4 1 8-2t5-8q1-5-3-9.5t-10.5-4q-6.5.5-10 5t-8 6Q65 85 60 84.5t-9-4q-4-3.5-6-8T44 63q1-5 4-9 7-9 17.5-14t22-5q11.5 0 22 4.5t17.5 13q7 8.5 10 19.5t1 21q-4 18-18 29.5T87 134h1zm107 200q-14 0-26-5.5T148 312q-4-6-3.5-13.5T151 286q6-5 14-4.5t13.5 7.5q5.5 7 15 7t15.5-6.5q6-6.5 4.5-14.5t-7.5-12q-6-4-13-4H19q-8 0-13.5-5.5T0 240q0-8 5.5-13t13.5-6h174q21 0 37 13t20 33q2 13-1 25t-11 21.5q-8 9.5-19.5 15T195 334z"/></svg>