<svg viewBox="0 0 300 368" xmlns="http://www.w3.org/2000/svg"><path d="M287 47q-13-12-33.5-13T207 43q-23 8-46 23.5T118 102l-50 50q-20 20-35.5 43T9 241q-10 26-9 46.5T14 321q13 13 37 13 19 0 42-8.5t46-24q23-15.5 43-35.5l50-50q20-20 35.5-43t23.5-46q10-26 9-46.5T287 47zm-31 67q-7 19-20.5 39T206 190l-50 50q-17 16-37 29.5T80 290q-16 6-28 6-9 1-12-2t-2-13q0-11 6-27.5T61 220l20 20q6 6 13.5 6t13-5.5Q113 235 113 227t-5-13l-24-24 22-23 25 24q5 5 13 5t13.5-5q5.5-5 5.5-13t-6-14l-24-24 24-23 24 24q5 5 13 5t13.5-5.5q5.5-5.5 5.5-13t-6-13.5l-20-20q17-10 33.5-16.5T249 71q8 0 11 3t3 12q-1 12-7 28z"/></svg>