<svg viewBox="0 0 300 368" xmlns="http://www.w3.org/2000/svg"><path d="M272 97q4-1 7-4 7-4 8.5-11.5t-3-14q-4.5-6.5-12-8T259 62q-10 5-21 8V53q0-8-5.5-13.5T219 34q-8 0-13.5 5.5T200 53v17q-11-3-21-8-6-4-13.5-2T154 68q-4 6-3 13.5t7 11.5l8 4q-21 18-27 46-1 6-6 10-7 6-21 6H94q-27 0-48 11.5T12.5 202Q0 222 0 246.5T12.5 291Q25 311 46 322.5T94 334q64 0 110.5-21t71-60.5Q300 213 300 159q0-18-7.5-34T272 97zM94 296q-25 1-41-13t-15.5-36.5q.5-22.5 16-36.5T94 196h19q27 0 45-15 14-12 18-31 2-10 8.5-18t15.5-12v14q0 8 5.5 13.5T219 153q8 0 13.5-5.5T238 134v-14q11 5 17.5 15.5T262 159q1 55-29 89-24 27-67 39-32 10-72 9z"/></svg>