<svg viewBox="0 0 300.0108 368" xmlns="http://www.w3.org/2000/svg"><path d="M276 284q21-24 24-56 2-24-6.5-45.5t-26-37.5Q250 129 228 122q-3-1-4-4-8-24-26-42t-42.5-25Q131 44 106 48.5T62 69L32 39q-5-5-13-5T5.5 39.5Q0 45 0 53t5 13l263 263q5 5 13 5t13.5-5.5Q300 323 300 315t-5-13l-19-18zM116 85q24-4 44.5 8.5T188 129q3 11 10.5 18.5T217 158q22 7 34.5 25.5T262 225q-1 18-13 32L89 96q12-9 27-11zm84 218q0 8-5.5 13t-13.5 5H75q-28 0-48.5-17.5T1 260q-3-20 4.5-38.5T29 191q4-2 2-6-3-8-5-16-1-5 .5-10t5-8q3.5-3 8.5-4.5t10 .5q5 2 8.5 5.5T63 161q1 5 3 10 5 14 1 28t-15 23q-8 5-12 14t-2 18q3 13 13 21.5t24 8.5h106q8 0 13.5 5.5T200 303z"/></svg>