<svg viewBox="0 0 300 368" xmlns="http://www.w3.org/2000/svg"><path d="M175 271q0 11-7.5 18t-17.5 7q-10 0-17.5-7t-7.5-17.5q0-10.5 7.5-18T150 246q10 0 17.5 7.5T175 271zm120-138l-3-3q-29-28-66-44-7-3-14.5 0T201 96.5q-3 7.5 0 14.5t11 10q30 12 53 35l3 3q5 6 13 6t13.5-5q5.5-5 5.5-13t-5-14zM99 97q-3-8-10.5-11T74 86q-37 15-65 44l-4 4q-5 5-5 13t5.5 13q5.5 5 13.5 5t13-6l3-2q23-24 53-36 8-3 11-10t0-14zm51 124q8 0 13.5-5t5.5-13V90q0-8-5.5-13.5T150 71q-8 0-13.5 5.5T131 90v113q0 8 5.5 13t13.5 5zm-76-38l-6 6q-5 6-5 13.5t5.5 13q5.5 5.5 13 5.5t13.5-5l6-6q5-6 5-13.5t-5.5-13q-5.5-5.5-13-5.5T74 183zm152 0q-6-5-13.5-5t-13 5.5q-5.5 5.5-5.5 13t5 13.5l7 6q5 5 13 5t13.5-5.5q5.5-5.5 5.5-13t-6-13.5l-6-6z"/></svg>