<svg viewBox="0 0 300 368" xmlns="http://www.w3.org/2000/svg"><path d="M256 121h-50q-18 1-31 13.5T162 165v56h-24v-43q-1-22-13-39.5T94 114q11-8 16-22t.5-27.5q-4.5-13.5-16-22t-26-8.5q-14.5 0-26 8.5T27 64.5Q23 78 27.5 92T44 114q-20 7-32 24.5T0 178v137q0 8 5.5 13.5T19 334q8 0 13.5-5.5T38 315v-56h225v56q0 8 5 13.5t13 5.5q8 0 13.5-5.5T300 315V165q0-18-13-31t-31-13zM69 146q13 1 22 10t9 22v43H38v-43q0-13 9-22t22-9v-1zm131 75v-56q0-2 2-4t4-2h7v6q0 8 5 13.5t13 5.5q8 0 13.5-5.5T250 165v-6h6q3 0 5 2t2 4v56h-63z"/></svg>