<svg viewBox="0 0 300 368" xmlns="http://www.w3.org/2000/svg"><path d="M275 334h-88q-9 0-16-6t-8.5-15.5Q161 303 167 296l12-18L9 169q-7-5-8.5-12.5t2.5-14q4-6.5 11.5-8T29 137l33 21 7-20q3-9 9.5-15.5t15-10q8.5-3.5 18-3.5t18.5 5l8 4q12 6 20.5 15.5T172 156l7 16q3 7-.5 14t-11 9.5Q160 198 153 195t-9-11l-7-15q-5-12-16-18l-8-4q-3-1-5.5 0t-3.5 4l-10 28 107 68 20-27q5-8 13.5-10t17 1.5Q260 215 263 224l35 76q3 7 1 15.5t-8.5 13.5q-6.5 5-15.5 5zM144 96q13 0 22-9t9-22q0-13-9-22t-22-9q-13 0-22 9t-9 22q0 13 9 22.5t22 9.5v-1zm-15 179q-6-4-13-3t-11.5 6q-4.5 5-4.5 12v25q0 8 5.5 13.5T119 334q8 0 13.5-5.5T138 315v-25q0-10-9-15zm-68-41q-8-5-16.5-2T32 244L9 309q-3 9 2.5 17t15.5 8q6 0 10.5-3.5T44 322l24-66q2-6 0-12t-7-10z"/></svg>