<svg viewBox="0 0 300 368" xmlns="http://www.w3.org/2000/svg"><path d="M150 34q-41 0-75.5 20T20 108.5Q0 143 0 184t20 75.5Q40 294 74.5 314t75.5 20q41 0 75.5-20t54.5-54.5q20-34.5 20-75.5t-20-75.5Q260 74 225.5 54T150 34zm0 262q-31 1-56.5-14.5t-41-41Q37 215 37.5 184T53 127.5Q68 102 93.5 87T150 72q31 0 56.5 15t40.5 40.5q15 25.5 15.5 56.5t-15 56.5Q232 266 206.5 281T150 296zm-50-87q-10 0-17.5-7.5T75 184q0-10 7.5-17.5T100 159q10 0 17.5 7.5T125 184q0 10-7.5 17.5T100 209zm125-25q0 10-7.5 17.5T200 209q-10 0-17.5-7.5T175 184q0-10 7.5-17.5T200 159q10 0 17.5 7.5T225 184zM85 142q-4 4-9 4t-9-2.5q-4-2.5-4.5-8T65 126q9-10 21-18t24-11q5-1 9.5 1.5t5.5 7.5q1 5-2 9.5t-8 5.5q-7 2-15.5 7.5T85 142zm148 2q-4 2-9 2t-9-4q-6-8-14.5-13.5T185 121q-5-1-8-5.5t-2-9.5q1-5 5.5-7.5T190 97q12 3 24 11t21 18q3 4 2.5 9.5T233 144zm-24 98q5 5 3.5 12t-7 11q-5.5 4-12.5 1-23-7-42.5-7t-42.5 7q-7 3-12.5-1t-7-11q-1.5-7 3.5-12 12-15 23-22 17-11 35.5-11t35.5 11q11 8 23 22z"/></svg>