<svg viewBox="0 0 300 368" xmlns="http://www.w3.org/2000/svg"><path d="M244 221H56q-23 0-39.5 16.5T0 277.5q0 23.5 16.5 40T56 334h188q23 0 39.5-16.5t16.5-40q0-23.5-16.5-39.5T244 222v-1zm-53 38q-3 9-3 18.5t3 18.5h-82q3-9 3-18.5t-3-18.5h82zm-135 0q8 0 13.5 5.5T75 278q0 8-5.5 13T56 296q-8 0-13.5-5t-5-13q.5-8 5.5-13.5t13-5.5zm188 37q-8 0-13.5-5t-5.5-13q0-8 5.5-13.5T244 259q8 0 13.5 5.5T263 278q0 8-5.5 13.5T244 296zM69 196h50q18 0 31-12.5t13-30.5v-50q0-18-13-31t-31-13H69q-18 0-31 13t-13 31v50q0 18 13 30.5T69 196zm-6-93q-1-3 1-5t5-2h50q2 0 4 2t2 5v50q0 2-2 4t-4 2H69q-3 0-4.5-2t-1.5-4v-50zm125 68v-37q0-10 7-17.5t18-7.5h37q10 0 17.5 7.5T275 134v37q0 11-7.5 18t-17.5 7h-37q-11 0-18-7t-7-18z"/></svg>