<svg viewBox="0 0 300 368" xmlns="http://www.w3.org/2000/svg"><path d="M106 121q14 1 23 10.5t9 23.5q0 11-10 14-5 2-21.5 2T84 169q-9-3-9-14 0-14 9-23.5t22-9.5v-1zm57 34q0 11 9 14 5 2 21.5 2t22.5-2q9-3 9-14 0-14-9-23.5t-22.5-9.5q-13.5 0-22.5 9.5t-8 23.5zm137 29q0-41-20-75.5T225.5 54Q191 34 150 34T74.5 54Q40 74 20 108.5T0 184q0 41 20 75.5T74.5 314q34.5 20 75.5 20t75.5-20q34.5-20 54.5-54.5t20-75.5zm-37 0q0 31-15.5 56.5t-41 40.5Q181 296 150 296t-56.5-15q-25.5-15-41-40.5t-15-56.5q.5-31 15.5-56.5t40.5-41Q119 71 150 71.5T206.5 87q25.5 15 40.5 40.5t15 56.5h1zm-50 63q6-5 6-13t-6-13q-18-16-40.5-21.5t-45 0Q105 205 87 221q-6 5-6 12.5t5.5 13q5.5 5.5 13 6T113 247q16-13 37-13t37 13q5 6 13 6t13-6z"/></svg>