<svg viewBox="0 0 300.0014 368" xmlns="http://www.w3.org/2000/svg"><path d="M291 261q-20-20-48-25 5-15 7-29 22-7 36-25t14-42V94q1-8-2-16t-9-14q-6-6-21-15t-26-14q-4-2-8.5 1.5T232 45q10 14 13 27-12-3-28-13-5-2-8.5 2t-1.5 9q5 11 14 26t15 21q11 11 26 11v12q0 9-4.5 16.5T245 168q-11-29-45-40v-13q0-8-5.5-13T181 97q-8 0-13 5t-5 13v7h-26v-7q1-8-4.5-13T119 97q-8 0-13.5 5t-5.5 13v13q-34 11-45 40-8-4-12.5-11.5T38 140v-12q15 0 26-11 6-6 15-21t14-26q2-5-1.5-9T83 59Q67 69 55 72q3-13 13-27 3-5-1.5-8.5T58 35q-11 5-26 14T11 64q-6 6-9 13.5T0 94v46q0 24 14 42.5T51 207q1 14 6 29-28 5-48 25l-3 3q-6 6-6 14t5.5 13q5.5 5 13.5 5.5t13-5.5l3-3q15-15 42-16l10 10q-10 9-20 21-5 6-4.5 14t6 12.5Q74 334 82 334t14-7q9-11 20-20.5t16-9.5h36q5 0 16 9.5t20 20.5q6 7 14 7t13.5-4.5q5.5-4.5 6-12.5t-4.5-14q-9-11-20-21 6-4 11-10 26 1 41 16l3 3q5 6 13 6t13.5-5.5Q300 286 300 278t-5-14l-4-3zm-116-2h-50q-10 0-18.5-11t-14-26q-5.5-15-5-25t2.5-16q4-10 16-15 15-7 44-7t44 7q12 5 16 15 3 6 3 15 0 13-5 28t-13.5 25q-8.5 10-19.5 10z"/></svg>