<svg viewBox="0 0 300 368" xmlns="http://www.w3.org/2000/svg"><path d="M257 209q8-7 13-16.5t5-20.5q0-23-17.5-38T207 113q6-11 6-23-1-25-23-40.5T131 34q-37 0-59 15.5T50 90q0 10 4 19.5T66 126q-13 6-21 18.5T38 172q-1 20 14 34-52 16-52 59 0 32 27 49 22 13 61 17 22 3 62 3t62-3q39-4 61-17 27-17 27-49 0-39-43-56zm-19-38q-1 7-10.5 12.5t-28 9Q181 196 156 196q-37 0-59-6.5t-22-18Q75 160 97 153t59-7q25 1 43.5 4.5t28 9Q237 165 237 171h1zM131 71q18 0 31 5t13 14q0 9-13 14t-30.5 5q-17.5 0-30.5-5T87.5 90q-.5-9 13-14t30.5-5zm19 225q-58 0-85-7.5T38 265q0-16 27-23.5t85-7.5q58 0 85 7.5t27 23.5q0 16-27 24t-85 8v-1z"/></svg>