<svg viewBox="0 0 300.012 368" xmlns="http://www.w3.org/2000/svg"><path d="M113.012 65V53q-1-8 4.5-13.5t13.5-5.5q8 0 13.5 5.5t5.5 13.5v12q0 8-5.5 13.5t-13.5 5.5q-8 0-13.5-5.5t-4.5-13.5zm81 19q8 0 13.5-5.5t5.5-13.5V53q0-8-5.5-13.5t-13.5-5.5q-8 0-13.5 5.5t-5.5 13.5v12q0 8 5.5 13.5t13.5 5.5zm-125 0q8 0 13.5-5.5t5.5-13.5V53q0-8-5.5-13.5t-13.5-5.5q-8 0-13.5 5.5t-5.5 13.5v12q0 8 5.5 13.5t13.5 5.5zm231 131q0 19-9 34.5t-25 25q-16 9.5-34 9.5h-20q-9 23-29.5 36.5t-45.5 13.5h-24q-25 0-45.5-13.5t-29.5-36.5q-31-61-38-129-2-18 11-32t32-14h165q18 0 31 14t11 32l-1 5q24 4 37.5 18.5t13.5 36.5zm-87-64q0-2-1.5-3.5t-3.5-.5h-70v35l5 5q7 7 7 18v23q0 8-5.5 13t-13.5 5h-25q-8 0-13-5t-5-13v-23q0-11 7-18l5-5v-36h-57q-3 0-4.5 1.5t-1.5 3.5q7 61 35 116 8 18 21 25 8 4 20 4h25q11 1 19-4 13-7 21-25 26-55 34-116h1zm50 64q0-6-3-10-4-6-17-8-6 25-15 50h4q13-1 22-10t9-22z"/></svg>