<svg viewBox="0 0 300 368" xmlns="http://www.w3.org/2000/svg"><path d="M194 121q13 1 22 10.5t9 23.5q0 11-9 14-6 2-22.5 2t-21.5-2q-10-3-10-14 0-14 9-23.5t23-9.5v-1zm106 63q0-41-20-75.5T225.5 54Q191 34 150 34q-57 2-95 33-35 29-47.5 73t0 88Q20 272 55 301q38 31 95 33 41 0 75.5-20t54.5-54.5q20-34.5 20-75.5zm-37 0q-1 31-16 56.5T206.5 281Q181 296 150 297q-43-2-72-26-26-21-35-54t0-66q9-33 35-54 29-24 72-26 31 1 56.5 16t40.5 40.5q15 25.5 16 56.5zm-125-31q0-8-5.5-13.5T119 134H94q-8 0-13.5 5.5T75 153q0 8 5.5 13.5T94 172h25q8-1 13-6t6-13zm55 56h-87q-5 0-9.5 2.5T90 218q-2 4-2 9t2 9q10 16 25.5 25.5t34 9.5q18.5 0 34.5-9.5t25-25.5q3-4 3-9t-2.5-9q-2.5-4-7-6.5T193 209z"/></svg>