<svg viewBox="0 0 300 368" xmlns="http://www.w3.org/2000/svg"><path d="M224 62q-18-16-40.5-23t-47-4q-24.5 3-46 16.5t-35 35Q42 108 39 133q-4 28 5 54t29 45q9 8 12 18t3 27v6q0 21 14.5 36t35.5 15h25q20 0 35-15t15-36v-6q0-17 2.5-27t9.5-16q18-16 28-38.5t10-47q0-24.5-10-47T224 62zm-49 221q0 6-3.5 9.5T163 296h-25q-5 0-9-3.5t-4-9.5v-12h50v12zm-7-57q-1 6-6 10t-11.5 4q-6.5 0-11.5-3.5t-7-9.5q-9-2-17-7.5t-12-13q-4-7.5-2-15t8.5-11.5q6.5-4 14-2t11.5 9q2 3 5 3h15q3 0 5.5-2t2.5-6q0-4-5-6l-30-12q-13-5-20.5-16.5T100 122q0-14 9-26t23-16q1-6 6-10.5t11.5-4.5q6.5 0 11.5 4t7 10q9 1 17 6.5t12 13q4 7.5 2 15t-8.5 11.5q-6.5 4-14 2t-11.5-9q-2-3-5-3h-15q-3 0-5.5 2.5T137 124q0 4 5 5l30 12q13 5 20.5 16.5t7.5 26q0 14.5-9 26T168 226z"/></svg>