<svg viewBox="0 0 300 368" xmlns="http://www.w3.org/2000/svg"><path d="M88 65q0-8 5-13.5t13-5.5h175q8 0 13.5 5.5T300 65q0 8-5.5 13.5T281 84H106q-8 0-13.5-5.5T87 65h1zm18 131h13q8 0 13.5-5.5t5.5-13q0-7.5-5.5-13T119 159h-13q-8 0-13.5 5.5t-5 13q.5 7.5 5.5 13t13 5.5zM38 34H25q-10 0-17.5 7.5T0 59v12q0 11 7.5 18T25 96h13q10 0 17.5-7T63 71V59q0-10-7.5-17.5T38 34zm0 112H25q-10 0-17.5 7.5T0 171v13q0 10 7.5 17.5T25 209h13q10 0 17.5-7.5T63 184v-13q0-10-7.5-17.5T38 146zm118 125h-50q-8 1-13.5 6t-5 13q.5 8 5.5 13.5t13 5.5h50q8 0 13.5-5.5T175 290q0-8-5.5-13.5T156 271zM38 259H25q-10 0-17.5 7.5T0 284v12q0 11 7.5 18t17.5 7h13q10 0 17.5-7t7.5-18v-12q0-10-7.5-17.5T38 259zm216-141q-9-9-22-9t-22 9l-42 40q-5 5-5.5 13t5 13.5Q173 190 181 190t13-5l19-18v148q-1 8 4.5 13.5T231 334q8 0 13.5-5.5T250 315V167l18 18q6 5 13.5 5t13-5.5q5.5-5.5 5.5-13t-6-13.5l-40-40z"/></svg>