<svg viewBox="0 0 300 368" xmlns="http://www.w3.org/2000/svg"><path d="M150 334q-41 0-75.5-20T20 259.5Q0 225 0 184t20-75.5Q40 74 74.5 54T150 34q41 0 75.5 20t54.5 54.5q20 34.5 20 75.5t-20 75.5Q260 294 225.5 314T150 334zm0-263q-30 0-56 15.5T53 128q-15 26-15 56t15 56q15 26 41 41t56 15q30 0 56-15t41.5-41q15.5-26 15.5-56t-15.5-56Q232 102 206 86.5T150 71zm31 63q-13 0-22 10t-9 24q0-14-9-24t-22-10q-13 0-22 10t-9 24q0 18 19 42 14 15 33 31 4 3 9.5 3t10.5-3q19-16 33-31 19-24 19-42 0-14-9-24t-22-10z"/></svg>