<svg viewBox="0 0 300 368" xmlns="http://www.w3.org/2000/svg"><path d="M272 107l-82-60q-17-12-38-13h-4q-21 1-38 13l-82 60q-13 9-20.5 23.5t-7.5 30Q0 176 10 186t25 11h96v118q0 8 5.5 13.5T150 334q8 0 13.5-5.5T169 315V196h96q15 0 25-10t10-25.5q0-15.5-7.5-30T272 107zm-89 52h-66v-2q0-9 5-16l28-50 28 50q5 7 5 16v2zM50 137l53-38-13 22q-11 16-10 36v2H38q1-14 12-22zm170 22v-2q0-20-10-36l-13-22 53 38q11 8 12 22h-42zM57 259H38v-31q0-8-5.5-13.5T19 209q-8 0-13.5 5.5T0 228v87q0 8 5.5 13.5T19 334q8 0 13.5-5.5T38 315v-19h19q3 1 4 2t2 4v13q-1 8 4.5 13.5T81 334q8 0 13.5-5.5T100 315v-13q0-18-12.5-30.5T57 259zm224-50q-8 0-13.5 5.5T262 228v31h-19q-18 0-30.5 12.5T200 302v13q0 8 5.5 13.5T219 334q8 0 13.5-5.5T238 315v-13q0-3 1-4t4-1h20v18q0 8 5 13.5t13 5.5q8 0 13.5-5.5T300 315v-87q0-8-5.5-13.5T281 209z"/></svg>