<svg viewBox="0 0 300 368" xmlns="http://www.w3.org/2000/svg"><path d="M38 65q0-13 9-22t22-9q13 0 22 9t9 22q0 13-9 22.5t-22 9Q56 96 47 87t-9-22zm43 44H56q-23 0-39.5 16.5T0 165v38q0 14 6.5 26.5T25 249v66q0 8 5.5 13.5T44 334q8 0 13.5-5.5T63 315v-57q5-2 8.5-7t3.5-12q0-7-5.5-12.5T56 221q-8 0-13.5-5T37 203v-38q1-8 6-13t13-5h25q8 0 13.5-5.5T100 128q0-8-5.5-13.5T81 109zm69 50q13 0 22-9t9-22q0-13-9-22.5T150 96q-13 0-22 9.5t-9 22.5q0 13 9 22t22 9zm50 56v25q0 12-6 23v52q0 8-5.5 13.5T175 334q-8 0-13.5-5.5T156 315v-31h-12v31q0 8-5.5 13.5T125 334q-8 0-13.5-5.5T106 315v-52q-6-11-6-23v-25q0-18 13-31t31-13h12q18 0 31 13t13 31zm-44 31q3 0 5-1.5t2-4.5v-25q0-2-2-4t-5-2h-12q-3 0-4.5 2t-1.5 4v25q0 3 1.5 4.5t4.5 1.5h12zm75-150q13 1 22-8.5t9-22.5q0-13-9-22t-22-9q-13 0-22 9t-9 22q0 13 9 22.5t22 9.5v-1zm68 138l-10-75q-3-21-19.5-35.5T231 109q-4 0-9 1-8 1-12.5 7t-3 14q1.5 8 7.5 12.5t14 3q8-1.5 15.5 4T252 165l10 74q0 3-1.5 5.5T256 247h-12q-8-1-13.5 4.5T225 264q0 7 3.5 12t8.5 7v32q0 8 5.5 13.5T256 334q8 0 13.5-5.5T275 315v-35q8-4 14-11t8.5-16q2.5-9 1.5-19z"/></svg>