<svg viewBox="0 0 300 368" xmlns="http://www.w3.org/2000/svg"><path d="M267 237q-6-34-20-66 23-4 38-21.5t15-40.5q0-17-8.5-31.5t-23-23Q254 46 238 46q-4 0-10 1-27-13-52.5-13T123 51q-33 22-57 63-29 51-39 126-12 7-19.5 18.5T0 284q0 21 14.5 35.5T50 334h200q21 0 35.5-14.5T300 284q0-21-15-35-7-8-18-12zm-4-128q0 10-7.5 17.5t-18 7.5q-10.5 0-18-7.5T212 109q0-10 7.5-17.5t18-7.5q10.5 0 18 7.5T263 109zm-88-38q5 0 12 2-12 16-12 36 0 14 5.5 26t15.5 21l1 1q6 8 12 22 13 27 19 55H65q10-61 33-101 18-32 43-49 19-12 34-12v-1zm75 225H50q-5 0-8.5-3.5T38 284q0-5 3.5-9t8.5-4h200q5 0 8.5 4t3.5 9q0 5-3.5 8.5T250 296z"/></svg>