<svg viewBox="0 0 300 368" xmlns="http://www.w3.org/2000/svg"><path d="M300 103v75q0 8-5.5 13t-13.5 5q-8 0-13-5t-5-13v-75q0-13-9.5-22.5T231 71H69q-13 0-22 9.5T38 103v162q0 13 9 22t22 9h87q8 0 13.5 5.5T175 315q0 8-5.5 13.5T156 334H69q-19 0-34.5-9.5t-25-25Q0 284 0 265V103q0-19 9.5-34.5t25-25Q50 34 69 34h162q19 0 34.5 9.5t25 25Q300 84 300 103zm-169 81q0 8 5.5 13.5T150 203q8 0 13.5-5.5T169 184q0-8-5.5-13.5T150 165q-8 0-13.5 5.5T131 184zm150 75h-18v-19q0-8-5.5-13.5T244 221q-8 0-13.5 5.5T225 240v19h-19q-8 0-13 5.5t-5 13.5q0 8 5 13t13 5h19v19q0 8 5.5 13.5T244 334q8 0 13.5-5.5T263 315v-19h18q8 0 13.5-5t5.5-13q0-8-5.5-13.5T281 259zm-81-80q0 8 6 13t14 4.5q8-.5 13-6.5t4-14q-2-22-14-40.5t-31.5-29Q172 96 149 96t-43 12q-20 12-31.5 32T63 183q0 23 10 42.5t28.5 31.5q18.5 12 40.5 14h2q7 0 12.5-5t6-12.5q.5-7.5-4.5-13.5t-12-7q-20-1-33-15.5T100 183q0-20 14.5-34.5t35-14.5q20.5 0 34.5 13t16 32z"/></svg>