<svg viewBox="0 0 300.0256 368" xmlns="http://www.w3.org/2000/svg"><path d="M238 259q-16 0-27-11t-11-26.5q0-15.5 11-26.5t26.5-11q15.5 0 26.5 11t11 26.5q0 15.5-11 26.5t-26 11zm50 75H188q-7 0-10.5-5t-2.5-11q6-20 23.5-33.5t39-13.5q21.5 0 39 13.5T300 318q1 6-2.5 11t-9.5 5zm-138-19q0-8-5.5-13.5T131 296H69q-13 0-22-9t-9-22V103q0-13 9-22.5T69 71h162q13 0 22.5 9.5T263 103v50q0 8 5 13t13 5q8 0 13.5-5t5.5-13v-50q0-19-9.5-34.5t-25-25Q250 34 231 34H69q-19 0-34.5 9.5t-25 25Q0 84 0 103v162q0 19 9.5 34.5t25 25Q50 334 69 334h62q8 0 13.5-5.5T150 315zm8-44q8-1 13-6.5t4-13.5q-1-8-7-13t-13-4h-5q-21 0-35.5-14.5T100 184q0-21 14.5-35.5T150 134q11 0 21 5t18 13q4 6 12 7t14-4q6-5 6.5-13t-4.5-14q-12-15-29.5-23T150 97q-24 0-44 11.5T74 140q-12 20-12 44t12 44q12 20 32 32t44 12l8-1zm-8-68q8 0 13.5-5.5T169 184q0-8-5.5-13.5T150 165q-8 0-13.5 5.5T131 184q0 8 5.5 13.5T150 203z"/></svg>