<svg viewBox="0 0 300.0073 368" xmlns="http://www.w3.org/2000/svg"><path d="M288 273V103q-1-19-10-34.5t-25-25Q237 34 219 34H69q-19 0-34.5 9.5t-25 25Q0 84 0 103v137q0 26 17 46 5 6 13 6.5t13.5-5q5.5-5.5 6-13T45 261q-8-9-7-21v-19h212v50h-56q-8 0-13.5 5.5T175 290q0 8 5.5 13.5T194 309h87q7 0 12.5-4.5t6.5-11q1-6.5-2.5-12.5t-9.5-8zm-63-89v-69q0-8-5.5-13.5t-13.5-5q-8 .5-13.5 5.5t-5.5 13v69h-24v-69q0-8-5.5-13.5t-13.5-5q-8 .5-13.5 5.5t-5.5 13v69h-25v-69q0-8-5.5-13.5t-13.5-5q-8 .5-13.5 5.5T63 115v69H38v-81q0-13 9-22.5T69 72h150q13-1 22 8.5t9 22.5v81h-25zm-75 106q0 18-13 31t-31 13q-18 0-31-13t-12.5-31q.5-18 13-31t30.5-13q18 0 31 13t13 31z"/></svg>