<svg viewBox="0 0 300 368" xmlns="http://www.w3.org/2000/svg"><path d="M288 315q0 8-5.5 13.5T269 334h-52q-8 0-15-4t-11-11q-4-7-3.5-15.5T192 288l48-54h-34q-8 0-13.5-5.5T187 215q0-8 5.5-13.5T206 196h52q8 0 15 4.5t11 11.5q4 7 3.5 15t-4.5 15l-48 55h34q8-1 13.5 4.5T288 315zm0-231v69q0 8-5.5 13.5t-13.5 5q-8-.5-13.5-5.5t-5.5-13v-19h-25v19q0 8-5.5 13.5t-13.5 5q-8-.5-13.5-5.5t-5.5-13V84q0-21 15-35.5T237.5 34Q258 34 273 48.5T288 84zm-32 19V84q0-8-5.5-13.5t-13-5.5q-7.5 0-13 5.5T219 84v19h37zM124 252l-24 24V53q0-8-5.5-13.5T81 34q-8 0-13.5 5.5T63 53v223l-25-24q-5-6-13-5.5t-13.5 6Q6 258 6 265.5t6 13.5l47 46q9 10 22 10t22-10l48-46q5-6 5-13.5t-5.5-13q-5.5-5.5-13-6T124 252z"/></svg>