<svg viewBox="0 0 300 368" xmlns="http://www.w3.org/2000/svg"><path d="M208 59q-5-11-15.5-18T169 34h-38q-13 0-23.5 7T92 59q-18 1-33.5 10T34 93.5Q25 109 25 128v137q0 19 9.5 34.5t25 25Q75 334 94 334h112q19 0 34.5-9.5t25-25Q275 284 275 265V128q0-19-9-34.5T241.5 69Q226 60 208 59zm30 206q0 13-9.5 22t-22.5 9H94q-13 0-22.5-9T62 265V128q1-13 10-22.5T94 96h12q8 0 13.5-5t5.5-13q0-3 2-5t4-2h38q2 0 4 2t2 5q0 8 5.5 13t13.5 5h12q13 1 22 10t9 22v137h1zm-87-138q5 5 5 13t-5 13l-22 23q-9 8-20.5 8T89 176l-8-7q-6-6-6-13.5t5-13q5-5.5 13-6t14 4.5l1 2 16-16q6-5 13.5-5t13.5 5zm0 75q5 5 5 13t-5 14l-22 22q-9 8-20.5 8T89 251l-8-7q-6-6-6-13.5t5-13q5-5.5 13-6t14 4.5l1 2 16-16q6-5 13.5-5t13.5 5zm62-37q0 8-5.5 13.5T194 184h-13q-8 0-13.5-5.5t-5-13.5q.5-8 5.5-13t13-5h13q8 0 13 5t6 13zm0 75q0 8-5.5 13.5T194 259h-13q-8 0-13.5-5.5T162 240q0-8 5.5-13.5T181 221h13q8 0 13.5 5.5T213 240z"/></svg>