<svg viewBox="0 0 300 368" xmlns="http://www.w3.org/2000/svg"><path d="M244 84q-24 0-40 17-3 3-6 7l-3-3q-8-9-8-21V70q6-2 9.5-6.5T200 52q0-7-5.5-12.5T181 34H94q-8 0-13.5 5.5T75 52q0 7 3.5 11.5T87 70v14q0 12-7 21l-42 48q-12 15-19 33t-7 37v42q0 19 9.5 34.5t25.5 25q16 9.5 34 9.5h113q18 0 34-9.5t25-25q9-15.5 9-34.5v-42q0-9-1-17 17-5 28-20t11-33v-13q0-23-16.5-39.5T244 84zm-19 181q0 13-9 22t-22 9H81q-13 0-22-9t-9-22v-6h131q8 0 13.5-5.5T200 240v-25q0-8-5.5-13t-13.5-6H55q4-10 12-18l41-49q17-19 17-45V71h25v13q0 26 17 45l41 49q17 19 17 45v42zm38-112q0 6-4 11t-10 7q-5-9-12-18l-11-13q0-8 5-13.5t12.5-5.5q7.5 0 13 5.5T262 140v13h1z"/></svg>