<svg viewBox="0 0 300 368" xmlns="http://www.w3.org/2000/svg"><path d="M210 70q-19-16-29-25-7-6-16-9t-18-1.5q-9 1.5-17 6T118 53q-18 29-27 63-9-12-23.5-12.5T43 114q-15 16-23.5 37T11 195q0 31 13 59t36.5 48Q84 322 114 330q18 4 36 4 28 0 53.5-10.5t45-30q19.5-19.5 30-45t10.5-53q0-27.5-11-50.5-9-19-29-39-11-12-39-36zm2 205q-5 4-11 8 6-12 6-24 0-17-11-39-10-18-27-38-7-9-19-9t-19 9q-25 29-33 53-10 28 2 49-24-14-38-37.5T48 195q0-28 17-49l6 9q5 6 13 9t16.5 1.5q8.5-1.5 14.5-8t8-14.5q7-37 26-70 1-1 3-1.5t3 1.5q11 10 30 26 25 21 35 31 16 16 23 30 9 16 9 35 0 23-10.5 44.5T212 275z"/></svg>