<svg viewBox="0 0 300 368" xmlns="http://www.w3.org/2000/svg"><path d="M101 334q-21 0-37-12t-21-31q-18-5-30-21-8-10-11-23t-1-26q4-18 17-31.5T49 173q21-4 40 5l55-55q-9-19-5-40 3-18 16.5-31T187 35q13-2 26 1t23 11q15 12 21 30 18 6 30 21 8 10 11 23t1 26q-4 18-17 31.5T251 195q-21 5-40-5l-55 56q9 18 5 39-3 18-16.5 31.5T113 333q-6 1-12 1zM61 209h-5q-7 2-12 7t-6 12q-2 11 4.5 19.5T60 257q7 0 12 5t5 12q1 11 9.5 17.5T106 296q7-1 12-6t7-12q1-10-4-18.5t-3.5-19Q119 230 126 222l62-62q8-7 18.5-8.5t19 3.5q8.5 5 18.5 4 6-2 11.5-7t6.5-12q2-11-4.5-19.5T240 111q-7 0-12-5t-5-12q-1-11-9.5-17.5T194 72q-7 1-12 6.5T175 90q-1 10 4 18.5t3.5 19Q181 138 174 146l-63 62q-7 7-17.5 8.5T73 212q-5-3-12-3z"/></svg>