<svg viewBox="0 0 300 368" xmlns="http://www.w3.org/2000/svg"><path d="M275 136v129q0 19-9.5 34.5t-25 25Q225 334 206 334H94q-24 0-42.5-14.5T27 282q-2-7 2-13.5t11.5-8.5q7.5-2 14.5 2t8 11q3 10 11.5 16.5T94 297h112q13-1 22-10t9-22V146h-49q-11 0-18-7t-7-18V71H94q-13 0-22.5 9.5T62 103v50q1 8-4.5 13T44 171q-8 0-13.5-5T25 153v-50q0-19 9.5-34.5t25-25Q75 34 94 34h79q29 0 49 20l33 33q20 20 20 49zM100 254q0 5 3.5 8.5t8.5 3.5q5 0 9-4l38-38q3-4 3-9t-3-8l-38-39q-4-3-9-3t-8.5 3.5Q100 172 100 177v20H19q-8 0-13.5 5.5t-5.5 13q0 7.5 5.5 13T19 234h81v20z"/></svg>