<svg viewBox="0 0 300 368" xmlns="http://www.w3.org/2000/svg"><path d="M300 290q0 13-9 22.5t-22 9.5q-13 0-22.5-9.5t-9-21.5q.5-12 7.5-20.5t18-10.5v-32q0-3-2.5-5t-5.5-1l-37 5q-2 0-3.5 2t-1.5 4v70q-1 13-10 22t-22 9q-13 0-22-9t-9-21q0-12 7-21t18-11v-39q0-16 11-28.5t27-14.5l37-6q10-1 19 1.5t16 9q7 6.5 11 15t4 18.5v62zM25 109q0-20 10-37.5T62.5 44Q80 34 100 34t37.5 10Q155 54 165 71.5t10 37.5q0 20-10 37.5T137.5 174Q120 184 100 184t-37.5-10Q45 164 35 146.5T25 109zm38 0q-1 16 10 26.5t27 10.5q16 0 27-10.5t11-26.5q0-16-11-26.5t-27-11Q84 71 73 82t-11 27h1zm74 104q-15-4-31-4-29 0-53 14.5T14.5 262Q0 286 0 315q0 8 5.5 13.5T19 334q8 0 13-5.5t5-13.5q1-18 10-34t25-25q16-9 34-10 10 0 18.5 3t15.5-1q7-4 9-11.5t-1.5-14Q144 216 137 213z"/></svg>