<svg viewBox="0 0 300 368" xmlns="http://www.w3.org/2000/svg"><path d="M79 334q-16 1-31-5t-26-17Q1 291 .5 256.5t18.5-74q19-39.5 54.5-75t75-54.5q39.5-19 74-18.5T278 56q21 21 21.5 55.5t-18.5 74Q262 225 226.5 260T152 314.5Q113 334 79 334zM221 72q-25 0-56 15-34 17-65 47-28 29-45 61-15 30-17 54.5T48 286q12 12 36.5 10t54.5-17q32-17 60.5-45.5T245 173q15-30 17-54.5T251.5 82Q239 70 221 72zm-33 131q0-12-4-22.5T172 162q-8-8-18.5-12t-22.5-3q-8-1-13 4.5t-5.5 13.5q-.5 8 5 13.5t13.5 5q8-.5 14 5.5t5.5 14q-.5 8 5 13.5T169 222q8 0 13.5-5.5T188 203zm50-50q0-12-4-22.5T222 112q-8-8-18.5-12T181 97q-8-1-13.5 4.5t-5 13.5q.5 8 5.5 13.5t13 5q8-.5 14 5.5t5.5 14q-.5 8 5 13.5t13.5 5q8-.5 13.5-5.5t5.5-13zM138 253q0-12-4-22.5T122 212q-8-8-18.5-12T81 197q-8-1-13.5 4.5t-5 13.5q.5 8 5.5 13.5t13 5q8-.5 14 5.5t5.5 14q-.5 8 5 13.5t13.5 5q8-.5 13.5-5.5t5.5-13z"/></svg>