<svg viewBox="0 0 300 368" xmlns="http://www.w3.org/2000/svg"><path d="M169 165v63q0 8-5.5 13t-13.5 5q-8 0-13.5-5t-5.5-13v-63q0-8 5.5-13.5T150 146q8 0 13.5 5.5T169 165zm-19 106q-8 0-13.5 5.5T131 290q0 8 5.5 13.5T150 309q8 0 13.5-5.5T169 290q0-8-5.5-13.5T150 271zm138-52L191 68q-7-10-18-16t-23-6q-12 0-23 6t-19 17L12 218Q2 233 .5 249.5T6 280q7 14 21 21.5t33 7.5h21q8 0 13.5-5.5T100 290q0-8-5.5-13.5T81 271H60q-16 0-21-8-2-5-1-11t6-13l95-150q4-5 11-5t10 5l97 151q4 6 5 12t-1 11q-5 8-21 8h-21q-8 0-13.5 5.5T200 290q0 8 5.5 13.5T219 309h21q19 0 33-7.5t21-21.5q7-14 5.5-30.5T288 219z"/></svg>