<svg viewBox="0 0 300 368" xmlns="http://www.w3.org/2000/svg"><path d="M150 103v162q0 8-5.5 13.5T131 284q-8 0-13.5-5.5T113 265v-69H38v69q0 8-5.5 13.5T19 284q-8 0-13.5-5.5T0 265V103q0-8 5.5-13.5T19 84q8 0 13.5 5.5T37 103v56h76v-56q0-8 5-13.5t13-5.5q8 0 13.5 5.5T150 103zm131 143h-59l15-13q30-25 42-39 21-26 21-50 0-16-8.5-30t-23-22q-14.5-8-31-8t-31 8.5q-14.5 8.5-23 23T175 147q0 7 5.5 12.5T194 165q8 0 13-5.5t5-12.5q0-11 7.5-18.5t18-7.5q10.5 0 17.5 7t7 16q0 13-16 31-10 10-33 29.5T182 233q-6 7-7 16t3 17q4 8 11.5 13t16.5 5h75q8 0 13.5-5.5T300 265q0-8-5.5-13.5T281 246z"/></svg>