<svg viewBox="0 0 300 368" xmlns="http://www.w3.org/2000/svg"><path d="M284 147q-15-14-35-13t-33 16l-31 33-3-2q5-11 5-22 1-19-8.5-37.5t-25-31.5Q138 77 120 73q12-11 17-23 2-6-2-11t-11-5H90q-8 0-12 6t-1 12q6 10 17 21-18 4-34 16.5t-25.5 31Q25 139 25 159q0 10 4 20-13 7-21 20t-8 29v50q0 23 16.5 39.5T56 334h68q28 0 54-11.5t45-33.5l65-74q13-15 12-35t-16-33zm-178-38q10 0 20.5 7.5t17 19Q150 147 150 159q0 5-3.5 8.5T137 171H75q-5 0-9-3.5t-3-8.5q0-12 6.5-23.5t16.5-19q10-7.5 20-7.5zm154 81l-65 74q-14 16-32.5 24t-38.5 8H56q-7 0-12.5-5T38 278v-50q0-8 5.5-13.5T56 209h98q4 0 6.5 2.5t2.5 5.5q0 3-2 5.5t-5 2.5l-65 9q-8 1-12.5 7.5t-3.5 14q1 7.5 7.5 12T96 271l65-9q15-2 26-13t13-26l43-48q3-3 8-3.5t8 2.5q3 3 3.5 8t-2.5 8z"/></svg>