<svg viewBox="0 0 300 368" xmlns="http://www.w3.org/2000/svg"><path d="M150 34q-41 0-75.5 20T20 108.5Q0 143 0 184v81q0 19 9.5 34.5t25 25Q50 334 69 334h25q13 0 22-9t9-22v-44q0-10 7.5-17.5T150 234q10 0 17.5 7.5T175 259v44q0 13 9 22t22 9h25q19 0 34.5-9.5t25-25Q300 284 300 265v-81q0-41-20-75.5T225.5 54Q191 34 150 34zm63 125h47q2 12 3 25v25h-50v-50zm31-38h-75V73q23 4 42.5 16.5T244 121zM131 73v48H57q12-19 31.5-31.5T131 73zM88 209H38v-25q0-13 2-25h48v50zm0 87H69q-13 0-22.5-9T37 265v-19h51v50zm62-100q-13 0-25 6v-43h50v43q-12-6-25-6zm81 100h-18v-50h50v19q0 13-9.5 22t-22.5 9z"/></svg>