<svg viewBox="0 0 300 368" xmlns="http://www.w3.org/2000/svg"><path d="M37 159q1-24 12.5-44t32-31.5Q102 72 126 72q32 0 56 21t29 53l39 14v-1q0-34-17-62.5T187.5 51Q159 34 125 34T62.5 51Q34 68 17 96.5T0 159q0 34 17 62.5T62.5 267Q91 284 125 284h1l-14-39q-21-3-38-15.5t-27-31Q37 180 37 159zm132-24h7q-10-21-31.5-29t-43 1.5Q80 117 72 139t2 43q8 19 27 28-1-19 6.5-35.5t22.5-27q15-10.5 34-12.5h5zm125 167l-33-33 21-21q10-10 10-23.5T282 201q-5-5-12-7l-85-31q-17-7-33.5 1T129 189q-6 15 0 30l31 85q2 8 8.5 13.5T183 325q4 1 8 1 13 0 23-10l21-21 33 33q5 6 13 6t13.5-5.5q5.5-5.5 5.5-13t-5-13.5h-1zm-102-17l-28-79q-2-4 1-7t7-1l79 28-59 59z"/></svg>