<svg viewBox="0 0 300 368" xmlns="http://www.w3.org/2000/svg"><path d="M231 59H69q-19 0-34.5 9.5t-25 25Q0 109 0 128v112q0 19 9.5 34.5t25 25Q50 309 69 309h162q19 0 34.5-9.5t25-25Q300 259 300 240V128q0-19-9.5-34.5t-25-25Q250 59 231 59zm32 181q0 13-9.5 22t-22.5 9H69q-13 0-22.5-9T37 240V128q1-13 10-22.5T69 96h162q13 1 22 10t9 22v112h1zm-25-106v25q-1 5-4.5 8.5T225 171H75q-5 0-8.5-3.5T63 159v-25q0-5 3.5-8.5T75 122h150q5-1 8.5 3t3.5 9h1zm-125 81q0 8-5.5 13.5T94 234H81q-8 0-13-5.5T62.5 215q-.5-8 5-13.5T81 196h13q8 1 13.5 6t5.5 13zm62 0q0 8-5.5 13.5T156 234h-12q-8 0-13.5-5.5T125 215q0-8 5.5-13.5T144 196h12q8 1 13.5 6t5.5 13zm63 0q-1 8-6 13.5t-13 5.5h-13q-8 0-13.5-5.5t-5-13.5q.5-8 5.5-13t13-6h13q8 1 13.5 6t5.5 13z"/></svg>