<svg viewBox="0 0 300 368" xmlns="http://www.w3.org/2000/svg"><path d="M150 315q0 8-5.5 13.5T131 334H69q-19 0-34.5-9.5t-25-25Q0 284 0 265V128q0-19 9-34.5T33.5 69Q49 60 67 59q5-11 15.5-18t23.5-7h38q13 0 23.5 7T183 59q18 1 33.5 10T241 93.5q9 15.5 9 34.5 0 8-5.5 13t-13.5 5q-8 0-13-5t-5-13q0-13-9.5-22T181 96h-12q-8 0-13.5-5T150 78q0-3-2-5t-4-2h-38q-2 0-4 2t-2 5q0 8-5.5 13T81 96H69q-13 0-22 9.5T38 128v137q0 13 9 22t22 9h62q8 0 13.5 5.5T150 315zm150-91v30q0 32-24 56-15 14-35 22l-3 1q-3 1-7 1t-8-2l-2-1q-20-10-35-24-24-24-24-53v-30q1-15 9-26t21-16l26-8q13-5 27 0l25 8q13 5 21.5 16t8.5 26zm-37 0q0-5-5-6l-25-9h-3l-26 9q-4 1-4 6v30q0 13 12 25 8 8 20 15 12-5 19-13 11-12 11-27v-30h1zm-88-71q0-8-5.5-13.5T156 134H81q-8 0-13.5 5.5t-5 13.5q.5 8 5.5 13t13 5h75q8 0 13.5-5t5.5-13zm-56 81q8 0 13.5-5.5T138 215q0-8-5.5-13t-13.5-6H81q-8 0-13.5 5.5t-5 13.5q.5 8 5.5 13.5t13 5.5h38z"/></svg>