<svg viewBox="0 0 300 368" xmlns="http://www.w3.org/2000/svg"><path d="M113 140v25h56q8 0 13.5 5.5T188 184q0 8-5.5 13.5T169 203h-56v25q0 2 1.5 4t4.5 2h87q8 0 13.5 5.5T225 253q0 8-5.5 13.5T206 272h-87q-18-1-31-13.5T75 228v-88q0-18 13-31t31-13h87q8 0 13.5 5.5T225 115q0 8-5.5 13.5T206 134h-87q-3 0-4.5 2t-1.5 4zm187-37v162q0 19-9.5 34.5t-25 25Q250 334 231 334H69q-19 0-34.5-9.5t-25-25Q0 284 0 265V103q0-19 9.5-34.5t25-25Q50 34 69 34h162q19 0 34.5 9.5t25 25Q300 84 300 103zm-37 0q0-13-9.5-22.5T231 71H69q-13 0-22.5 9.5T37 103v162q1 13 10 22t22 9h162q13 0 22-9t9-22V103h1z"/></svg>