<svg viewBox="0 0 300 368" xmlns="http://www.w3.org/2000/svg"><path d="M216 250l-68-68q-15-15-35.5-15T77 182l-11 11q-3 3-4 9v44q1 11 8 18.5t17 6.5h120q4 0 7-2t4.5-5.5q1.5-3.5 1-7T216 250zm-47-116q0 13 9 22t22 9q13 0 22-9t9-22q0-13-9-22t-22-9q-13 0-22 9t-9 22zm112 94q-8 0-13.5 5.5T262 247v18q0 13-9 22t-22 9h-18q-8 0-13.5 5.5T194 315q0 8 5.5 13.5T213 334h18q19 0 34.5-9.5t25-25Q300 284 300 265v-19q0-7-5.5-12.5T281 228zM19 140q8 0 13.5-5.5T38 121v-18q0-13 9-22.5T69 72h19q7-1 12.5-6t5.5-13q0-8-5.5-13.5T87 34H69q-19 0-34.5 9.5t-25 25Q0 84 0 103v18q0 8 5.5 13.5T19 140zm69 156H69q-13 0-22-9t-9-22v-19q0-7-5.5-12.5T19 228q-8 0-13.5 5.5T0 247v18q0 19 9.5 34.5t25 25Q50 334 69 334h19q7 0 12.5-5.5T106 315q0-8-5.5-13.5T87 296h1zM231 34h-18q-8 0-13.5 5.5T194 53q0 8 5.5 13.5T213 72h18q13-1 22.5 8.5T262 103v18q1 8 6 13.5t13 5.5q8 0 13.5-5.5T300 121v-18q0-19-9.5-34.5t-25-25Q250 34 231 34z"/></svg>