<svg viewBox="0 0 300 368" xmlns="http://www.w3.org/2000/svg"><path d="M219 34H81q-18 0-34 9.5t-25.5 25Q12 84 13 103v125q0 19 10 35.5T50 289v14q0 13 9 22t22 9h138q13 0 22-9t9-22v-14q17-9 27-25.5t10-35.5V103q1-19-8.5-34.5t-25.5-25Q237 34 219 34zm31 194q0 13-9 22t-22 9H81q-13 0-22-9t-9-22V103q0-13 9-22.5T81 71h138q13 0 22 9.5t9 22.5v125zm-25-107v25q0 11-7.5 18t-17.5 7H100q-10 0-17.5-7T75 146v-25q0-10 7.5-17.5T100 96h100q10 0 17.5 7.5T225 121zm-112 94q-1 8-6 13.5T94 234q-8 0-13.5-5.5T75 215q0-8 5.5-13.5t13.5-5q8 .5 13.5 5.5t5.5 13zm112 0q0 8-5.5 13.5T206 234h-50q-8 0-13-5.5t-5.5-13.5q-.5-8 5-13.5T156 196h50q8 0 13.5 5.5T225 215z"/></svg>