<svg viewBox="0 0 300 368" xmlns="http://www.w3.org/2000/svg"><path d="M231 34H69q-19 0-34.5 9.5t-25 25Q0 84 0 103v162q0 19 9.5 34.5t25 25Q50 334 69 334h162q19 0 34.5-9.5t25-25Q300 284 300 265V103q0-19-9.5-34.5t-25-25Q250 34 231 34zm32 231q0 13-9.5 22.5T231 297H69q-13-1-22-10t-9-22V103q0-13 9-22t22-9h162q13-1 22 8.5t9 22.5v162h1zm-163-81q0 8-5.5 13.5T81 203q-8 0-13-5.5T63 184q0-8 5-13.5t13-5.5q8 0 13.5 5.5T100 184zm138 0q0 8-5.5 13.5T219 203q-8 0-13.5-5.5T200 184q0-8 5.5-13.5T219 165q8 0 13.5 5.5T238 184zm-69 0q0 8-5.5 13.5T150 203q-8 0-13.5-5.5T131 184q0-8 5.5-13.5T150 165q8 0 13.5 5.5T169 184z"/></svg>