<svg viewBox="0 0 300 368" xmlns="http://www.w3.org/2000/svg"><path d="M125 278q0-8-5.5-13.5T106 259H56q-9 0-14.5-6.5T38 237l14-77q2-11 10.5-18.5T82 134h111q8 0 15.5 4t11.5 11q4 7 11.5 9t14-1.5q6.5-3.5 8.5-11t-2-14.5q-8-15-22.5-24T198 97q2-7 2-13 0-21-14.5-35.5T150 34h-25q-21 0-35.5 14.5T75 84q0 6 2 13-23 2-40.5 17.5T15 153L1 230q-2 13 1 25t11 21.5q8 9.5 19.5 14.5t23.5 5h27q4 15 15 25t26 12q9 2 18 0 4-1 5.5-5t-.5-7q-18-22-22-43zm0-207h25q5 0 8.5 4t4 9q.5 5-3.5 8.5t-9 3.5h-25q-5 0-8.5-3.5t-4-8.5q-.5-5 3.5-9t9-4zm100 113q-20 0-37.5 10T160 221.5Q150 239 150 259t10 37.5q10 17.5 27.5 27.5t37.5 10q20 0 37.5-10t27.5-27.5q10-17.5 10-37.5t-10-37.5Q280 204 262.5 194T225 184zm38 87h-25v25q0 6-4 9.5t-9 3.5q-5 0-8.5-3.5T213 297v-26h-25q-6 0-9.5-3.5T175 259q0-5 3.5-9t9.5-4h25v-25q-1-5 3-8.5t9-3.5q5 0 8.5 3.5t3.5 9.5v24h26q5 0 8.5 4t3.5 9q0 5-3.5 8.5T262 271h1z"/></svg>