<svg viewBox="0 0 300 368" xmlns="http://www.w3.org/2000/svg"><path d="M250 82V65q0-13-9-22t-22-9H81q-13 0-22 9t-9 22v17q-12 11-18.5 26T25 140v125q0 19 9.5 34.5t25 25Q75 334 94 334h112q19 0 34.5-9.5t25-25Q275 284 275 265V140q0-17-6.5-32T250 82zm-12 183q0 12-8 21t-20 10q5-9 8-27 2-7-3-12t-12-4q-26 5-33 12l-1 2v-18q23-8 37-22 7-7 12-33 2-7-3-12t-12-4q-26 5-33 12l-1 2v-9q12-16 12-28.5T161 112q-4-6-11-6t-11 6q-20 30-20 42.5t12 28.5v10l-1-2q-7-7-33-12-7-1-12 4t-3 12q5 26 12 32 16 17 37 23v18l-1-2q-7-7-33-12-7-1-12 4t-3 12q3 17 8 26-12-1-20-10t-8-21V140q0-18 13-30.5T106 97h88q18 0 30.5 12.5T237 140v125h1z"/></svg>