<svg viewBox="0 0 300 368" xmlns="http://www.w3.org/2000/svg"><path d="M281 134H144q-8 0-13.5 5.5T125 153q0 8 5.5 13.5T144 172h137q8-1 13.5-6t5.5-13q0-8-5.5-13.5T281 134zm-50 75h-87q-8 0-13.5 5.5T125 228q0 8 5.5 13.5T144 247h87q8-1 13.5-6t5.5-13q0-8-5.5-13.5T231 209zm-50 75h-37q-8 0-13.5 5.5T125 303q0 8 5.5 13.5T144 321h37q8 0 13.5-5t5.5-13q0-8-5.5-13.5T181 284zM122 82L77 38q-4-4-9-4t-9 4L15 82q-4 4-4 9.5t3.5 9Q18 104 23 104h27v245q0 8 5.5 13.5T69 368q8 0 13.5-5.5T88 349V104h25q5 0 9-4t4-9q0-5-4-9z"/></svg>