<svg viewBox="0 0 300 368" xmlns="http://www.w3.org/2000/svg"><path d="M290 149l-40-69q-9-15-25-24.5T191 46h-82q-18 0-34 9.5T50 80L9 149q-9 16-9 35t9 35l41 69q9 15 25 24t34 9h82q18 0 34-9t25-24l40-69q10-16 10-35t-10-35zm-32 51l-40 69q-4 7-11.5 11t-15.5 4h-82q-8 0-15.5-4T82 269l-40-69q-5-8-5-16t5-16l40-69q4-7 11.5-11t15.5-4h82q8 0 15.5 4T218 99l40 69q4 8 4 16t-4 16zm-89-72v62q0 8-5.5 13.5T150 209q-8 0-13.5-5.5T131 190v-62q0-8 5.5-13.5T150 109q8 0 13.5 5.5T169 128zm0 112q0 8-5.5 13.5T150 259q-8 0-13.5-5.5T131 240q0-8 5.5-13.5T150 221q8 0 13.5 5.5T169 240z"/></svg>