<svg viewBox="0 0 300 368" xmlns="http://www.w3.org/2000/svg"><path d="M100 195q6 6 6 13.5t-5 13.5q-1 1-1 2 1 7-3 13.5T86 246q-2 1-5 1-6-1-11-4.5t-7-9.5q-2-10 1-20t10-17q5-6 13-6t13 5zm200 33q0 30-11.5 54T257 320q-20 14-43.5 14t-43-12Q151 310 140 289q-25 19-57 20-24 0-44-12-14-9-24-22.5T2 245q-4-22 1-43.5T21 162q16-24 39.5-38t48.5-15q25-1 46 12 8 6 15 13 12-7 25-10 2-20 11-39-37 11-75 12-46 0-86-21-4-1-6-4t-2-6.5q0-3.5 2-6.5t6-5q40-20 86-20 51 0 98 20 11-10 24.5-15t27.5-5q8 0 13.5 5.5T300 53q0 8-5.5 13.5T281 72q-21-1-35 19-10 14-14 33 30 8 49 36.5t19 67.5zm-156-68q-4-4-9-7-21-12-45-2-22 9-38 32-9 11-12.5 25.5T39 237q3 18 19.5 28t36.5 5q18-5 32-18-2-12-2-24-1-37 19-68zm119 68q0-28-13-47-14-22-37.5-22T175 181q-13 19-12.5 46.5T175 275q14 21 37.5 21t37.5-21q13-20 13-47zm-38 6q0-8-5.5-13.5T206 215q-8 0-13.5 5.5T187 234q-1 18 11 32 6 5 14 5t13.5-6q5.5-6 5-13.5T225 239v-5z"/></svg>