<svg viewBox="0 0 300 368" xmlns="http://www.w3.org/2000/svg"><path d="M162 155q1-21-10-43-9-18-26-38-10-12-31-34l-3-2q-4-5-10.5-4T72 41q-5 10-9 25-2 8-5 24.5T53 112q-3 9-8 9t-9-6q-2-4-4-12h-1q-2-6-8-6.5t-9 4.5q-6 9-10 24t-4 27q0 22 11 41t29.5 29.5Q59 233 80.5 233t40-10.5q18.5-10.5 30-28.5t11.5-39zM61 198q-6-7-4.5-16.5T65 165l10-10q3-3 6.5-3t5.5 3l12 11q7 8 7 18t-7.5 18q-7.5 8-19 7T61 198zm230-13L126 287q-21 36-33 42-14 8-28.5 3.5t-22-18Q35 301 39 286t18-22q11-7 50-9l164-102q7-4 14.5-2t11.5 8.5q4 6.5 2.5 14T291 185z"/></svg>