<svg viewBox="0 0 300 368" xmlns="http://www.w3.org/2000/svg"><path d="M150 34q-41 0-75.5 20T20 108.5Q0 143 0 184t20 75.5Q40 294 74.5 314t75.5 20q41 0 75.5-20t54.5-54.5q20-34.5 20-75.5t-20-75.5Q260 74 225.5 54T150 34zm40 255q6-11 11-23 3-7 0-14t-10-10q-7-3-14.5-.5T166 252q-7 16-16 31-9-15-16-31-3-8-10.5-10.5t-14.5.5q-7 3-10 10t0 14q5 12 11 23-32-12-52.5-40.5T37 184q0-36 20.5-64.5T110 79q-6 11-11 23-3 7 0 14t10 10q7 3 14.5.5T134 116q7-16 16-31 9 15 16 31 2 6 7 9t9.5 3q4.5 0 8.5-2 7-3 10-10t0-14q-5-12-11-23 32 12 52.5 40.5T263 184q0 36-20.5 64.5T190 289zm-78-129l-3 46q-1 4-3.5 6.5T99 215q-4 0-7-5l-10-20-11 20q-2 5-6.5 5t-7-2.5Q55 210 55 206l-4-46q0-3 2-5t4.5-2q2.5 0 4.5 1.5t2 4.5l3 33 9-18q2-3 6-3t6 3l9 18 3-33q0-3 1.5-4.5t4.5-1.5q3 0 5 2t1 5zm138 0l-4 46q0 4-2.5 6.5t-7 2.5q-4.5 0-6.5-5l-11-20-10 20q-3 5-7 5t-6.5-2.5Q193 210 193 206l-4-46q-1-3 1-5t5-2q3 0 4.5 1.5t2.5 4.5l2 33 10-18q1-3 5-3t6 3l9 18 3-33q0-3 2-4.5t5-1.5q2 0 4 2t2 5zm-69 0l-4 46q-1 4-3.5 6.5T167 215q-4 0-7-5l-10-20-10 20q-3 5-7 5t-6.5-2.5Q124 210 123 206l-4-46q0-3 2-5t4.5-2q2.5 0 4.5 1.5t2 4.5l3 33 9-18q2-3 6-3t6 3l9 18 3-33q0-3 2-4.5t4-1.5q3 0 5 2t2 5z"/></svg>