<svg viewBox="0 0 300 368" xmlns="http://www.w3.org/2000/svg"><path d="M15 119Q0 105 0 84t14.5-35.5Q29 34 50 34t35 15l35 35q6 5 6 13t-5.5 13.5Q115 116 107 116t-13-6L59 75q-4-3-9-3t-9 3.5Q37 79 37 84t4 9l35 35q6 6 6 13.5t-5.5 13Q71 160 63 160t-13-5l-35-36zm236 95q-6-5-13.5-5t-13 5.5q-5.5 5.5-5.5 13t5 13.5l29 29q9 9 9 22v5h-4q-13 0-22-10l-29-28q-6-6-13.5-6t-13 5.5Q175 264 175 272t5 13l29 29q20 20 49 20h23q8 0 13.5-5.5T300 315v-23q0-29-20-49l-29-29zm-101 41q-1 28-21 48-14 14-51 24-20 5-37 7h-5q-15 0-25-11-6-6-9-14t-2-16q2-17 7-37 10-37 24-51 20-20 48-21L215 49q15-15 35.5-15t35 14.5Q300 63 300 83.5T285 119L149 255h1zm-30-58q5 3 9.5 7.5t7.5 9.5L259 92q3-3 3-8t-3.5-8.5Q255 72 250 72t-8 3L120 197zm-17 34q-10-9-23-9t-22 9q-5 5-11.5 25T38 296q20-2 40-8.5t25-11.5q9-9 9-22t-9-23z"/></svg>