<svg viewBox="0 0 300 368" xmlns="http://www.w3.org/2000/svg"><path d="M284 241L93 50Q81 38 65 35t-31.5 3.5Q18 45 9 58.5T0 89v176q0 19 9.5 34.5t25 25Q50 334 69 334h176q17 0 30.5-9t20-24.5Q302 285 299 269t-15-28zm-23 45q-1 4-4 6-5 5-12 5H69q-13 0-22-9.5T38 265V89q-1-7 4-12 2-3 5.5-4t7.5-1q6 0 12 5l33 33-13 14q-6 5-6 13t5.5 13.5Q92 156 100 156t13-6l14-13 22 22-14 13q-5 6-5 13.5t5.5 13q5.5 5.5 13 5.5t13.5-5l13-14 22 22-13 14q-6 6-6 13.5t5.5 13Q189 253 197 253t13-6l14-13 33 33q5 5 5 12 1 3-1 7zm-129-59q4 4 5 9.5t-1 11q-2 5.5-7 8.5t-10 3H94q-8 0-13.5-5.5T75 240v-25q0-5 3-10t8.5-7q5.5-2 11-1t9.5 5l25 25z"/></svg>