<svg viewBox="0 0 300 368" xmlns="http://www.w3.org/2000/svg"><path d="M300 315q0 8-5.5 13.5T281 334H19q-8 0-13.5-5.5T0 315q0-8 5.5-13.5T19 296h262q8 0 13.5 5.5T300 315zM37 181q-9-9-11.5-21.5T28 135q5-12 15.5-19t23.5-7h21V78q0-18 12.5-31T131 34h38q18 0 31 13t13 31v31h20q13 0 23.5 7t15.5 19q5 12 2.5 24.5T263 181l-75 75q-16 15-38 15t-38-15l-75-75zm27-27l75 75q4 5 11 5t12-5l74-75q2-2 1-5t-4-3h-39q-8 0-13.5-5.5T175 128V78q0-3-2-5t-4-2h-38q-2 0-4 2t-2 5v50q0 8-5.5 13t-13.5 5H67q-3 0-4 3t1 5z"/></svg>