<svg viewBox="0 0 300 368" xmlns="http://www.w3.org/2000/svg"><path d="M200 228q0 8-5.5 13t-13.5 5q-8 0-13.5-5t-5-13q.5-8 5.5-13.5t13-5.5q8 0 13.5 5.5T200 228zm13 0q0 8 5 13t13 5q8 0 13.5-5t5.5-13q0-8-5.5-13.5T231 209q-8 0-13.5 5.5T212 228h1zm12-38q0-8-5.5-13t-13.5-5.5q-8-.5-13.5 5t-5 13.5q.5 8 5.5 13.5t13 5.5q8 0 13.5-5.5T225 190zm75 38q0 30-15.5 55.5t-42.5 39q-27 13.5-56.5 11T131 314q-7 9-17.5 14.5T91 334H59q-15 0-28-8.5T12 302Q0 274 0 244q2-37 23-67 12-17 14-37-2-15-6.5-28.5T25 84q0-10 3.5-19.5T39 48q7-7 16.5-10.5T75 34q10 0 19.5 3.5T111 48q7 7 10.5 16.5T125 84q-1 14-5.5 27.5T112 140q1 8 4 15 22-24 54-31t62.5 5q30.5 12 49 39t18.5 60zM63 84q0 2 4 17l5 21h6l5-21q4-15 4-18 1-6-2-9t-10-3q-7 0-9.5 3T63 84zm41 203q9-21 8-43-2-27-17-49-11-17-17-36h-6q-6 19-17 36-15 22-17 49-1 22 8 43 2 4 5.5 6.5T59 297h32q4-1 7.5-3.5t5.5-6.5zm159-59q0-23-14-41.5t-36-25q-22-6.5-43.5 2T135 192q14 24 15 52 0 17-4 33 15 15 35.5 18.5T221 291q19-8 30.5-25.5T263 228z"/></svg>