<svg viewBox="0 0 300 368" xmlns="http://www.w3.org/2000/svg"><path d="M100 184q21 0 38-10t27-27.5q10-17.5 10-37.5t-10-37.5Q155 54 138 44t-37.5-10Q80 34 63 44T35.5 71.5Q25 89 25 109t10.5 37.5Q46 164 63 174t37 10zm0-113q16 0 27 11t11 27q0 16-11 26.5T100.5 146Q85 146 74 135.5T63 109q0-16 11-26.5T100 72v-1zm25 157q0 8-5.5 13.5T106 247q-18-1-34 8.5T47 281q-9 16-9 34 0 8-5.5 13.5T19 334q-8 0-13.5-5.5T0 315q0-29 14.5-53T53 223.5Q77 209 106 209q8 0 13.5 5.5T125 228zm171 28l-30 24 12 37q1 4 0 8t-4 6.5q-3 2.5-7 2.5t-7-2l-35-23-34 23q-3 2-7 2t-7-2.5q-3-2.5-4.5-6t-.5-7.5l12-38-30-24q-3-3-4-6.5t.5-7.5q1.5-4 5-6t6.5-2h38l13-37q2-4 5-6t7-2q4 0 7 2t5 6l13 37h37q4 0 7.5 2.5t5 6q1.5 3.5.5 7.5t-4 6z"/></svg>