<svg viewBox="0 0 300 368" xmlns="http://www.w3.org/2000/svg"><path d="M256 246q-3 0-6 1V103q0-13 9-22.5t22-8.5q8-1 13.5-6t5.5-13q0-8-5.5-13.5T281 34q-18 0-34 9.5t-25 25q-9 15.5-9 34.5v136L50 286l-9-32 124-37q13-4 19-15t3-23l-14-54q-6-23-26.5-34T103 86l-50 15q-22 6-33.5 26T15 170l6 25Q8 206 2.5 222T2 254l12 43h-1q-7 3-10.5 9.5t-1.5 14q2 7.5 9 11t14 1.5l190-56q-4 14 .5 27.5t16 21.5q11.5 8 26 8t26-8.5q11.5-8.5 15.5-22t-.5-27q-4.5-13.5-16-21.5t-25.5-9zM64 137l50-15q7-2 14 1.5t9 11.5l12 48-86 25-12-48q-2-8 1.5-14.5T64 137z"/></svg>