<svg viewBox="0 0 300 368" xmlns="http://www.w3.org/2000/svg"><path d="M125 165q0 8-5.5 13.5T106 184q-8 0-13.5-5.5t-5-13.5q.5-8 5.5-13.5t13-5q8 .5 13.5 5.5t5.5 13zm69-19q-8 1-13.5 6t-5.5 13q0 8 5.5 13.5T194 184q8 0 13.5-5.5t5-13.5q-.5-8-5.5-13.5t-13-5.5zm81 13v156q0 7-5 12.5t-12 6.5q-7 1-12.5-3t-7.5-11q-1-4-5.5-7.5T221 309q-7 0-11.5 3.5t-6 8.5q-1.5 5-6.5 9.5t-11.5 4.5q-6.5 0-11.5-4.5t-6.5-9.5q-1.5-5-6-8.5T150 309q-7 0-11.5 3.5t-6 8.5q-1.5 5-6.5 9.5t-11.5 4.5q-6.5 0-11.5-4.5t-6.5-9.5q-1.5-5-6-8.5T79 309q-7 0-11.5 3.5T62 321q-1 5-6.5 9.5T44 335l-2-1q-7 0-12-5.5T25 316V159q0-34 17-62.5T87.5 51Q116 34 150 34t62.5 17Q241 68 258 96.5t17 62.5zm-37 0q0-24-12-44t-32-32q-20-12-44-12t-44 12q-20 12-31.5 32T63 159v115q8-3 16-3 20 0 36 13 15-13 35-13t35 13q11-9 25-11.5t27 1.5V159h1z"/></svg>