<svg viewBox="0 0 300 368" xmlns="http://www.w3.org/2000/svg"><path d="M300 178q0-22-14.5-38T250 122v-13q0-8-5.5-13.5T231 90q-8 0-13.5 5.5T212 109v12h-16l-34-55q-10-15-25.5-23.5T104 34H81q-18 0-31 13T37 78v44q-16 2-26.5 14.5T0 165q0 8 5.5 13.5T19 184q8 0 13.5-5.5T38 165q0-2 1.5-4t4.5-2h200q5 0 9.5 3t7 7.5q2.5 4.5 2 10T259 189l-25 33q-27-1-43 16-15 15-15.5 38t13.5 39q15 18 42 19 17 0 31.5-10t20.5-26q6-16 2.5-32.5T270 237l19-26q11-15 11-33zM81 71h23q8 0 15 4t11 11l22 35H75V78q0-3 2-5t4-2zm150 225q-8 0-13.5-5t-5-13q.5-8 5.5-13.5t13-5.5q8 0 13.5 5.5T250 278q0 8-5.5 13t-13.5 5zm-92-76q-3-6-9.5-8t-12.5 0q-11-9-24-13-1-6-6-10.5T75 184q-7 0-12 4.5T57 199q-13 4-24 13-6-2-12.5 0t-10 8Q7 226 8 232.5t6 11.5q-3 15 0 30-5 5-6 11.5t2.5 12.5q3.5 6 10 8t12.5 0q11 9 24 13 1 6 6 10.5t12 4.5q7 0 12-4.5t6-10.5q13-4 24-13 6 2 12.5 0t10-8q3.5-6 2.5-12.5t-6-11.5q3-15 0-30 5-5 6-11.5t-3-12.5zm-64 64q-10 0-17.5-7.5T50 259q0-10 7.5-17.5T75 234q10 0 17.5 7.5T100 259q0 10-7.5 17.5T75 284z"/></svg>