<svg viewBox="0 0 300 368" xmlns="http://www.w3.org/2000/svg"><path d="M150 129q-23 0-39 16t-16 39q0 23 16 39t39 16q23 0 39-16t16-39q0-23-16-39t-39-16zm0 72q-7 0-12-5t-5-12q0-7 5-12t12-5q7 0 12 5t5 12q0 7-5 12t-12 5zm125-17q0-29-13-55l6-5q7-4 8.5-11.5T273 98q-4-6-12-7.5T247 94l-6 4q-15-15-33.5-24.5T169 61v-8q0-8-5.5-13.5T150 34q-8 0-13.5 5.5T131 53v8q-20 3-38.5 12.5T59 98l-6-4q-6-5-14-3.5T27 98q-5 7-3.5 14.5T32 124l6 5q-13 26-13 55t13 55l-6 5q-7 4-8.5 11.5T27 270q4 6 12 7.5t14-3.5l6-4q15 15 33.5 24.5T131 307v8q0 8 5.5 13.5T150 334q8 0 13.5-5.5T169 315v-8q20-3 38.5-12.5T241 270l6 4q6 5 14 3.5t12-7.5q5-7 3.5-14.5T268 244l-6-5q13-26 13-55zm-125 87q-24 0-44-11.5T74.5 228Q63 208 63 184t11.5-44Q86 120 106 108.5T150 97q24 0 44 11.5t31.5 31.5q11.5 20 11.5 44t-11.5 44Q214 248 194 259.5T150 271z"/></svg>