<svg viewBox="0 0 300 368" xmlns="http://www.w3.org/2000/svg"><path d="M288 315q0 8-5.5 13.5T269 334H31q-8 0-13-5.5T13 315q0-8 5-13.5t13-5.5h25q-21-19-32-44.5T13 196q0-42 24-77t63-51V53q0-8 5.5-13.5T119 34q8 0 13.5 5.5T138 53v7l12-1 13 1v-7q0-8 5-13.5t13-5.5q8 0 13.5 5.5T200 53v15q39 16 63.5 50.5T288 196q0 8-5.5 13.5T269 215q-8 0-13.5-5.5T250 196q0-27-13.5-50T200 110v55q0 8-5.5 13.5T181 184q-8 0-13-5.5t-5-13.5V97q-7-1-13-1t-12 1v68q0 8-5.5 13.5T119 184q-8 0-13.5-5.5T100 165v-55q-23 13-36.5 36T50 196.5Q50 224 63.5 247t36.5 36q23 13 50 13h119q8 0 13.5 5.5T288 315z"/></svg>