<svg viewBox="0 0 300 368" xmlns="http://www.w3.org/2000/svg"><path d="M169 60v-7q0-8-5.5-13.5T150 34q-8 0-13.5 5.5T131 53v7q-33 5-60 24t-42.5 48.5Q13 162 13 197q0 23 7 44t21 39q-16 13-16 35 0 8 5.5 13.5T44 334q8 0 13-5.5t5.5-12.5q.5-7 5.5-9 18 13 38.5 20t43.5 7q23 0 43.5-7t38.5-20q6 2 6 9t5 12.5q5 5.5 13 5.5t13.5-5.5Q275 323 275 315q0-22-16-35 14-18 21.5-39t7.5-44q0-35-16-64.5T229 84q-27-19-60-24zM50 196q0-27 13.5-50t36.5-36.5Q123 96 150 96t50 13.5q23 13.5 36.5 36.5t13.5 50.5q0 27.5-13.5 50.5T200 283q-23 13-50 13t-50-13q-23-13-36.5-36T50 196zM299 90q0 8-5 13.5t-13 5.5q-8 0-13.5-5.5t-5.5-13q0-7.5-3-11.5-5-8-15-8-8 0-13.5-5T225 53q0-8 5.5-13.5T244 34q24 0 39.5 16T299 90zM19 109q-8 0-13-5.5T1 90q0-24 15.5-40T56 34q8 0 13.5 5.5T75 53q0 8-5.5 13T56 71q-10 0-15 8-3 4-3 11.5t-5.5 13Q27 109 19 109zm150 31v50q0 8-5.5 13.5T150 209q-8 0-13.5-5.5T131 190v-50q0-8 5.5-13t13.5-5q8 0 13.5 5t5.5 13zm0 113q0 8-5.5 13t-13.5 5q-8 0-13.5-5t-5.5-13q0-8 5.5-13.5T150 234q8 0 13.5 5.5T169 253z"/></svg>