<svg viewBox="0 0 300 368" xmlns="http://www.w3.org/2000/svg"><path d="M256 78q-29-29-67.5-39t-77 0Q73 49 44 78T5 145.5q-10 38.5 0 77T44 290q29 29 67.5 39t77 0q38.5-10 67.5-39t39-67.5q10-38.5 0-77T256 78zm4 81q-23-1-42-12.5T187.5 116Q176 97 175 74q32 7 54.5 30t30.5 55zM41 209q22 1 41 12.5t30.5 30.5q11.5 19 12.5 41-32-7-54.5-29.5T41 209zm189 54q-14 14-31.5 22.5T162 296q0-34-16.5-62.5t-45-45Q72 172 38 172q3-26 17-48t35.5-35.5Q112 75 138 72q0 34 17 62t45 45q28 17 62 17-2 19-10.5 36.5T230 263z"/></svg>