<svg viewBox="0 0 300 368" xmlns="http://www.w3.org/2000/svg"><path d="M295 166l-10-31q-6-17-21-28t-33-11h-25q-8 1-13.5 6t-5.5 13v131H19q-8 0-13.5 6T0 265v26q0 13 9 22t22 9q13 0 22.5-9t9.5-22v-7h12v7q0 13 9 22t22 9q13 0 22.5-9t9.5-22v-7h75v7q0 13 9 22t22 9q13 0 22-9t9-22v-11q11-6 18-16.5t7-23.5v-44q0-15-5-29v-1zm-64-32q6 0 11 3.5t7 9.5l11 31q2 9 3 18h-38v-62h6zM19 221h125q8 1 13-4.5t6-13.5V103q-1-24-17-40t-40-17H56q-23 1-39.5 17T0 103v100q0 8 5.5 13.5T19 221zm19-118q0-8 5-13.5T56 84h50q8 0 13.5 5.5T125 103v81h-25v-56q0-8-5.5-13.5T81 109q-8 0-13.5 5.5T63 128v56H38v-81z"/></svg>