<svg viewBox="0 0 300 368" xmlns="http://www.w3.org/2000/svg"><path d="M150 334q-4 0-8-2l-5-2q-21-11-41-25-30-23-48-49-23-33-23-70v-64q0-21 12.5-38.5T70 60l74-25q6-2 12 0l74 24q20 7 32.5 24.5T275 122v64q0 42-23 76-18 26-49 47-20 13-41 22l-5 2q-3 1-7 1zm0-262L82 95q-9 3-14.5 10.5T62 122v64q0 37 36 71 22 22 53 38 30-13 52-34 35-33 35-75v-64q0-9-5.5-16.5T218 95l-68-23zm19 118v-75q0-8-5.5-13.5t-13.5-5q-8 .5-13.5 5.5t-5.5 13v75q0 8 5.5 13.5T150 209q8 0 13.5-5.5T169 190zm-19 31q-8 1-13.5 6t-5.5 13q0 8 5.5 13.5T150 259q8 0 13.5-5.5T169 240q0-8-5.5-13t-13.5-6z"/></svg>