<svg viewBox="0 0 300 368" xmlns="http://www.w3.org/2000/svg"><path d="M300 124v70q0 22-15.5 37T248 246h-67q-8 0-13.5-5t-5-13q.5-8 5.5-13.5t13-5.5h67q6 0 10.5-4.5T263 194v-70q0-10-9-16l-50-33q-5-4-10.5-4T183 75l-50 33q-8 6-8 16v29q0 8-5.5 13.5t-13.5 5q-8-.5-13.5-5.5T87 153v-29q1-14 7.5-26.5T112 77l50-33q15-10 32-10t31 10l50 33q12 8 18.5 20.5T300 124zm-100 47q5 0 8.5-3.5t3.5-8.5v-13q1-5-3-8.5t-9-3.5h-12q-6 0-9.5 3.5T175 147v12q0 5 3.5 8.5t9.5 3.5h12zM19 296q-8 0-13.5 5.5T0 315q0 8 5.5 13.5T19 334q8 0 13-5.5t5.5-13.5q.5-8-5-13T19 297v-1zm0-62q-8 0-13.5 5.5T0 253q0 8 5.5 13t13.5 5q18 0 31 13t13 31q0 8 5 13.5t13 5.5q8 0 13.5-5.5T100 315q0-22-11-40.5T59.5 245Q41 234 19 234zm0-63q-8 0-13.5 5.5T0 190q0 8 5.5 13.5T19 209q29 0 53 14.5t38.5 38.5q14.5 24 14.5 53 0 8 5.5 13.5T144 334q8 0 13.5-5.5T163 315q0-39-19.5-72T91 190.5Q58 171 19 171z"/></svg>