<svg viewBox="0 0 300 368" xmlns="http://www.w3.org/2000/svg"><path d="M263 78q0-8 5-13.5t13-5.5q8 0 13.5 5.5T300 78q0 8-5.5 13.5t-13.5 5q-8-.5-13-5.5t-5-13zM25 109h-6q-8 0-13.5 5.5T0 128q0 8 5.5 13.5T19 147h6q5-1 8.5 3t4 9q.5 5-3.5 8.5t-9 3.5h-6q-8 1-13.5 6T0 190q0 8 5.5 13.5T19 209h6q5 0 9 3.5t4 9q0 5.5-4 9t-9 3.5h-6q-8 0-13.5 5.5T0 253q0 8 5.5 13t13.5 5h6q21 0 35.5-14.5T75 221q0-17-11-31 11-13 11-31 0-21-14.5-35.5T25 109zm163 112q0 21-15 35.5T137.5 271q-20.5 0-35-14.5T88 221v-52q-1-16 7.5-30t22.5-22q14-8 30-8h8q8 0 13.5 5.5T175 128q0 8-5.5 13.5T156 147h-8q-10-1-16.5 6t-6.5 16v4q6-1 13-2 20 0 35 15t15 36v-1zm-38 0q0-5-3.5-8.5t-9-3.5q-5.5 0-9 3.5t-3.5 9q0 5.5 3.5 9t9 3.5q5.5 0 9-3.5t3.5-8.5v-1zm150-62v62q0 21-14.5 35.5T250 271q-21 0-35.5-14.5T200 221v-62q0-21 14.5-35.5T250 109q21 0 35.5 14.5T300 159zm-37 0q0-5-4-8.5t-9-4q-5-.5-9 3.5t-4 9v62q0 6 4 9.5t9 3.5q5 0 9-3.5t4-8.5v-63z"/></svg>