<svg viewBox="0 0 300 368" xmlns="http://www.w3.org/2000/svg"><path d="M262 187q-4-33-23-51-16-15-39-15-17 0-31 8v-8q0-30-11-51-9-18-26-28-15-8-32-8-20 0-35 12-25 19-27 66-17 6-27.5 20.5T0 165q0 18 11 39 8 16 22 32 9 11 23 11t23-11q14-16 23-32 11-21 11-39t-10.5-32.5Q92 118 75 112q1-18 6-28 7-13 18.5-12.5T119 80q12 12 12 41v194q0 8 5.5 13.5T150 334q8 0 13.5-5.5T169 315V209q0-29 12-42 8-8 19-8t17 9q5 7 7 20-16 6-26.5 20t-10 32q.5 18 10.5 39 9 16 23 32 9 11 23 11t23-11q14-16 22-32 11-21 11-39t-10.5-32.5Q279 193 262 187zM56 205q-18-24-18-40 0-8 5-13t13-5.5q8-.5 13.5 5T75 165q0 16-19 40zm188 75q-19-24-19-40 0-8 5.5-13t13.5-5.5q8-.5 13.5 5T262 240q1 16-18 40z"/></svg>