<svg viewBox="0 0 300 368" xmlns="http://www.w3.org/2000/svg"><path d="M125 134q0-10 7.5-17.5T150 109q10 0 17.5 7.5T175 134q0 10-7.5 17.5T150 159q-10 0-17.5-7.5T125 134zm175 67v65q0 13-5.5 24.5T279 310q-10 8-22.5 10.5T232 320l-29-10q-7-2-14 0l-69 21q-9 3-19 3t-19-3l-34-11q-22-7-35-25.5T0 254v-51q0-15 5.5-28T21 152q13-11 29-15 0-21 7.5-40T79 63.5q14-14.5 32.5-22T150 34q20 0 38.5 7.5t32.5 22Q235 78 242.5 96t7.5 38l6 2q20 8 32 26t12 39zm-194-21l41 40q1 2 3 2t3-2l41-40q12-12 16.5-28.5t0-33Q206 102 194 90q-9-9-20.5-13.5T150 72q-12 0-23.5 4.5T106 90q-12 12-16.5 28.5t0 33Q94 168 106 180zm157 21q0-10-5.5-18T243 172q-7 19-22 34l-42 41q-12 12-29 12t-29-12l-42-40q-14-15-21-34-6 2-11 6-10 10-10 24v51q0 10 6 18.5T59 284l34 11q8 3 16 0l69-21q19-5 37 0l27 10q8 1 14.5-4t6.5-14v-65z"/></svg>