<svg viewBox="0 0 300 368" xmlns="http://www.w3.org/2000/svg"><path d="M38 65q0-13 9-22t22-9q13 0 22 9t9 22q0 13-9 22.5t-22 9Q56 96 47 87t-9-22zm75 184v66q0 8-5.5 13.5T94 334q-8 0-13.5-5.5T75 315v-56H63v56q0 8-5.5 13.5T44 334q-8 0-13.5-5.5T25 315v-66q-12-7-18.5-19.5T0 203v-38q0-23 16.5-39.5T56 109h25q24 0 40.5 16.5T137 165v38q1 14-6 26.5T113 249zm-75-46q0 8 5 13t13 5h25q8 0 13.5-5t5.5-13v-38q0-8-5.5-13T81 147H56q-8-1-13.5 4.5T37 165v38h1zm187-19q-20 0-37.5 10T160 221.5Q150 239 150 259t10 37.5q10 17.5 27.5 27.5t37.5 10q20 0 37.5-10t27.5-27.5q10-17.5 10-37.5t-10-37.5Q280 204 262.5 194T225 184zm46 71l-34 33q-8 8-20.5 8t-20.5-8l-17-17q-4-3-4-8.5t3.5-9q3.5-3.5 9-3.5t8.5 4l17 16q2 2 3.5 1.5t3.5-1.5l34-33q3-3 8.5-3t9 3.5q3.5 3.5 3.5 9t-4 8.5z"/></svg>