<svg viewBox="0 0 300 368" xmlns="http://www.w3.org/2000/svg"><path d="M88 134q5 0 8.5 3.5t3.5 9.5v12q0 5-3.5 8.5T88 171H75q-5 0-8.5-3.5T63 159v-13q0-5 3.5-8.5T75 134h13zm34-58q7 4 14.5 2t11-9q3.5-7 1.5-14.5T141 43q-19-10-39.5-8.5T64 49L26 78Q14 88 7 102t-7 30v58q0 24 16.5 40T56 246h50q8 0 13.5-5t5.5-13q0-8-5.5-13.5T106 209H56q-8 0-13.5-5.5T37 190v-58q1-15 12-25l38-29q8-6 17.5-6.5T122 76zm84 20q13 0 22.5-9t9.5-22q0-13-9.5-22T206 34q-13 0-22 9t-9 22q0 13 9 22.5t22 9.5v-1zm72 40q-19-12-39-24-8-3-16-3-13 0-24 8.5T184 139l-6 20-32 20q-6 4-8 11.5t2 14q4 6.5 12 8.5t14-2l21-14v26l-18 13q-9 6-14 15.5t-5 20.5v43q0 8 5.5 13.5T169 334q8 0 13-5.5t5-13.5v-43q0-3 3-5l41-29q9-6 14-15.5t5-20.5v-40l9 6q3 2 3 5v30q0 8 5.5 13t13.5 5q8 0 13.5-5t5.5-13v-30q0-11-6-21.5T278 136zm-17 135q-3-7-10-10t-14-.5q-7 2.5-10 10t0 14.5l15 37q2 6 7 9t9.5 3q4.5 0 7.5-1 8-3 11-10.5t0-14.5l-16-37z"/></svg>