<svg viewBox="0 0 300 368" xmlns="http://www.w3.org/2000/svg"><path d="M297 115q-8-24-47-46-1-14-12-24.5T213 34H88q-15 0-26 10.5T50 69Q12 91 3 115q-4 10-2.5 20.5T8 155q6 9 17 13v85q0 22 11 40.5T65.5 323Q84 334 106 334h88q22 0 40.5-11t29.5-29.5q11-18.5 11-40.5v-85q11-4 17-13t7.5-19.5Q301 125 297 115zm-59 138q-1 18-13.5 30.5T194 296h-88q-18 0-31-12.5T62 253v-87q5-2 10-6 2-1 3-1t3 1q15 12 34.5 12t34.5-12q2-1 3-1t3 1q15 12 34.5 12t34.5-12q2-1 3-1t3 1q4 4 10 6v87zm23-120q-5 0-10-2-11-10-26-10t-26 10q-5 3-11.5 3t-11.5-3q-11-9-26-9t-26 9q-5 3-11.5 3t-11.5-3q-11-9-26-9t-26 9q-4 3-9 3-1 0-2-1t.5-5.5q1.5-4.5 12-13.5T79 96h142q18 9 28.5 18t12.5 14q1 3-1 5z"/></svg>