<svg viewBox="0 0 300 368" xmlns="http://www.w3.org/2000/svg"><path d="M200 243q-1 12-11 20.5t-23 8q-13-.5-25-3.5-8-1-19-5-8-3-9.5-11.5T118 237q16-13 25-19 15-9 26-9 13 0 22.5 10t8.5 24zm100-125q0 5-2.5 8.5T291 131l-20 9q-5 15-14 26 13 16 21 33 10 22 10 42-1 24-13 46t-34.5 34.5Q218 334 192 334h-83q-33 0-57.5-11t-38-30.5Q0 273 0 246q0-39 8-58 2-7 7.5-11t12.5-5q7-1 13 1.5t11 7.5l6 8q6 7 8 8 7 0 24.5-13t32.5-29q-10-18-10-40t10.5-40.5Q134 56 153 45t41-11q28 0 50.5 18T273 97l18 8q4 2 6.5 5.5t2.5 7.5zm-150-3q0 18 13 31t31 13q18 0 31-13t13-31q0-18-13-31t-31-13q-18 0-31 13t-13 31zm100 125q0-12-7-27-6-12-16-24-16 7-33 7-25 0-45-13-19 19-37 32-27 19-46 19-15 0-28-11v24q0 29 27 41 18 8 44 8h83q16 0 29.5-7t21-20.5Q250 255 250 240z"/></svg>