<svg viewBox="0 0 300 368" xmlns="http://www.w3.org/2000/svg"><path d="M281 296H169v-25h87q10 1 19-3.5t15.5-12.5q6.5-8 8.5-18t0-19q-8-32-26.5-57.5t-45.5-42Q200 102 169 98V71h12q8 0 13.5-5t5.5-13q0-8-5.5-13.5T181 34h-62q-8 0-13.5 5.5T100 53q0 8 5.5 13t13.5 5h12v27q-31 4-58 20.5t-45.5 42Q9 186 1 218q-2 9 0 19t8.5 18q6.5 8 15.5 12t19 4h87v26H19q-8 0-13.5 5T0 315q0 8 5.5 13.5T19 334h262q8 0 13.5-5.5T300 315q0-8-5.5-13t-13.5-5v-1zM39 231q-2-2-1-5 6-26 22.5-47t40-33q23.5-12 49.5-12t49.5 12q23.5 12 40 33t22.5 47q1 3-1 5.5t-5 2.5H44q-3 0-5-3z"/></svg>