<svg viewBox="0 0 300 368" xmlns="http://www.w3.org/2000/svg"><path d="M250 284h-12V155q11-6 17.5-16.5T262 115V78q1-18-12-31t-31-13h-13q-13 0-25 8-11-8-25-8h-12q-14 0-25 8-12-8-25-8H81q-18 0-31 13T37 78v37q1 13 7.5 23.5T63 155v129H50q-10 0-17.5 7.5T25 309q0 10 7.5 17.5T50 334h200q10 0 17.5-7.5T275 309q0-10-7.5-17.5T250 284zM81 121q-2 0-4-1.5t-2-4.5V78q0-3 2-5t4-2h13q2 0 4 2t2 5v12q0 8 5.5 13.5T119 109q8 0 13-5.5t6-13.5V78q0-3 1.5-5t4.5-2h12q3 0 5 2t2 5v12q0 8 5 13.5t13 5.5q8 0 13.5-5.5T200 90V78q0-3 2-5t4-2h13q2 0 4 2t2 5v37q0 3-2 4.5t-4 2.5q-8-1-13.5 4.5T200 140v144H100V140q0-8-5.5-13.5T81 121zm44 75v-25q0-10 7.5-17t17.5-7.5q10-.5 17.5 7T175 172v24q0 6-3.5 9.5T163 209h-25q-6 0-9.5-3.5T125 196z"/></svg>