<svg viewBox="0 0 300 368" xmlns="http://www.w3.org/2000/svg"><path d="M150 34q-41 0-75.5 20T20 108.5Q0 143 0 184t20 75.5Q40 294 74.5 314t75.5 20q41 0 75.5-20t54.5-54.5q20-34.5 20-75.5t-20-75.5Q260 74 225.5 54T150 34zm0 262q-31 0-56.5-15T53 240.5Q38 215 37.5 184t15-56.5q15.5-25.5 41-41T150 71q31 0 56.5 15.5t41 41q15.5 25.5 15 56.5T247 240.5q-15 25.5-40.5 41T150 297v-1zm-44-87q-13 0-22-9t-9-22q0-13 9-22.5t22-9.5q13 0 22 9.5t9.5 22.5q.5 13-9 22t-22.5 9zm119-31q0 13-9 22t-22 9q-13 0-22.5-9t-9-22q.5-13 9.5-22.5t22-9.5q13 0 22 9.5t9 22.5zm-21 57q-4 6-4 12t3.5 10.5q3.5 4.5 2.5 9.5t-4.5 8q-3.5 3-9 3t-9-5.5Q180 267 177 259h-54q-3 8-7 13.5t-9 5.5q-5 0-8.5-3t-4.5-8q-1-5 2.5-9.5t3.5-11q0-6.5-3.5-11T94 226q1-5 5-8t9-2.5q5 .5 8.5 5.5t6.5 13h54q3-8 6.5-13t8.5-5.5q5-.5 9 2.5t5 8q1 5-2 9zm33-98q-1 5-4.5 7.5T225 147l-3-1q-14-4-26-12t-19-18q-3-4-2-9t5-8q4-3 9.5-2t8.5 5q4 6 12.5 11.5T228 122q5 1 7.5 5.5t1.5 9.5zm-159 9q-1 1-3 1-4 0-7.5-2.5T63 137q-1-5 1.5-9.5T72 122q9-3 17.5-8.5T102 102q3-4 8.5-5t9.5 2q4 3 5 8t-2 9q-7 10-19 18t-26 12z"/></svg>