<svg viewBox="0 0 300 368" xmlns="http://www.w3.org/2000/svg"><path d="M294 301q6 6 6 13.5t-5 13.5q-5 6-13 6t-13-5L150 222 31 329q-5 5-13 5t-13-6q-5-6-5-13.5T6 301l125-113V53q0-8 5.5-13.5T150 34q8 0 13.5 5.5T169 53v135l125 113zM219 71q8 0 13.5-5t5.5-13q0-8-5.5-13.5T219 34q-8 0-13.5 5.5T200 53q0 8 5.5 13t13.5 5zm62 63q8 0 13.5-5.5T300 115q0-8-5.5-13.5T281 96q-8 0-13 5.5t-5 13.5q0 8 5 13.5t13 5.5zM119 284q-8 0-13.5 5.5T100 303q0 8 5.5 13t13.5 5q8 0 13.5-5t5.5-13q0-8-5.5-13.5T119 284zm75 12q-8 0-13.5 5.5T175 315q0 8 5.5 13.5T194 334q8 0 13.5-5.5T213 315q0-8-5.5-13.5T194 296zM81 134q8 0 13.5-5.5T100 115q0-8-5.5-13.5T81 96q-8 0-13 5.5T63 115q0 8 5 13.5t13 5.5zM19 71q8 0 13.5-5T38 53q0-8-5.5-13.5T19 34q-8 0-13.5 5.5T0 53q0 8 5.5 13T19 71zm6 119q0 8 5.5 13.5T44 209q8 0 13.5-5.5T63 190q0-8-5.5-13.5T44 171q-8 0-13.5 5.5T25 190zm200 0q0 8 5.5 13.5T244 209q8 0 13.5-5.5T263 190q0-8-5.5-13.5T244 171q-8 0-13.5 5.5T225 190z"/></svg>