<svg viewBox="0 0 300 368" xmlns="http://www.w3.org/2000/svg"><path d="M131 234H69q-19 0-34.5-9.5t-25-25Q0 184 0 165v-62q0-19 9.5-34.5t25-25Q50 34 69 34h62q19 0 34.5 9.5t25 25Q200 84 200 103v62q0 19-9.5 34.5t-25 25Q150 234 131 234zM69 71q-13 0-22 9.5T38 103v62q0 13 9 22t22 9h62q13 0 22.5-9t9.5-22v-62q0-13-9.5-22.5T131 71H69zm231 194v-64q0-23-14.5-42T248 134q-7-1-14 3t-8.5 11q-1.5 7 2 14t11.5 9q10 2 16.5 10.5T262 201v64q0 13-9 22t-22 9h-64q-11 0-19.5-6.5T137 273q-2-7-9-11t-14.5-2q-7.5 2-11.5 8.5t-2 13.5q6 23 24.5 37.5T167 334h64q19 0 34.5-9t25-25q9.5-16 9.5-35z"/></svg>