<svg viewBox="0 0 300 368" xmlns="http://www.w3.org/2000/svg"><path d="M50 65q0-13 9-22t22-9q13 0 22.5 9t9 22q-.5 13-9.5 22t-22 9q-13 0-22-9t-9-22zm231 231h-19l-30-59q-6-13-18.5-20.5T187 209h-59q-2 0-4-1.5t-2-3.5l-5-20h64q8 0 13.5-5.5T200 165q0-8-5.5-13.5T181 146l-73 1-5-23q-2-7-7-11t-12-4q-9 0-14.5 7T66 132l19 80q3 15 15 24.5t28 9.5h59q8 0 11 7l30 60q5 10 14 15.5t20 5.5h19q8 0 13.5-5.5T300 315q0-8-5.5-13.5T281 296zm-113-25h-41q-24 0-43-15t-24-39l-23-93q-1-7-6.5-11T19 109q-9 0-14.5 7T0 132l23 93q5 24 20 43.5t37 30q22 10.5 47 10.5h41q10 0 15.5-9t1.5-18q-3-5-7.5-8t-9.5-3z"/></svg>