<svg viewBox="0 0 300 368" xmlns="http://www.w3.org/2000/svg"><path d="M150 334q-34 0-63-17t-45.5-46Q25 242 25 207.5t17-76Q59 90 86 64q30-30 64-30t64 30q27 26 44 67.5t17 76q0 34.5-16.5 63.5T213 317q-29 17-63 17zm0-263q-21 0-43 24-19 22-32 54.5T62 208q1 24 12.5 44t31.5 31.5q20 11.5 44 11.5t44-11.5q20-11.5 32-31.5t12-44q0-26-13-58.5T193 95q-22-23-43-23v-1zm13 125q0 11 7 18t17.5 7q10.5 0 17.5-7t7.5-17.5q.5-10.5-7-17.5t-18-7.5q-10.5-.5-17.5 7t-7 18.5v-1zm-13-68q0 8 5.5 13.5t13.5 5q8-.5 13.5-5.5t5.5-13q0-8-5.5-13.5T169 109q-8 0-13.5 5.5T150 128z"/></svg>