<svg viewBox="0 0 300 368" xmlns="http://www.w3.org/2000/svg"><path d="M112 224q1 8-3 14.5T97 246q-24 5-41 25t-19 45q0 8-5.5 13t-14 5Q9 334 4 328t-4-14q2-25 14-47t32-37.5Q66 214 90 209q7-1 13.5 3t8.5 12zm188 29v37q0 18-13 31t-31 13h-75q-18 0-31-13t-13-31v-37q0-17 11-29t27-14v-1q0-10 7-17.5t18-7.5h37q11 0 18 7.5t7 17.5v1q16 2 27 14t11 29zm-38 0q0-3-1.5-5t-4.5-1h-19v6q0 8-5.5 13.5t-13 5.5q-7.5 0-13-5.5T200 253v-7h-19q-3 0-4.5 2t-1.5 5v37q0 3 1.5 4.5t4.5 1.5h75q3 0 4.5-1.5t1.5-4.5v-37zm-124-90q-1-8-7.5-13t-13.5-4l-5 1q-15 0-26-11t-11-27q18-1 34-9t27-22q16 11 19 29l9 49q1 8 7.5 12.5t14 3q7.5-1.5 12-8T201 150l-9-50q-5-29-27.5-47.5T113 34q-29 0-51.5 18.5T33 99l-14 75q-1 6 1 11t7 8q5 3 10.5 3.5T48 193q14-9 31-9h42q8-1 12.5-7.5T138 163z"/></svg>