<svg viewBox="0 0 300 368" xmlns="http://www.w3.org/2000/svg"><path d="M281 296h-7q-2-10-10.5-17t-19.5-7q21-20 32.5-45.5T288 171q0-37-19-68.5t-50.5-50Q187 34 150 34T81.5 52.5q-31.5 18.5-50 50T13 171q-1 30 10.5 55.5T56 272q-11 0-19.5 7T26 296h-7q-8 0-13.5 5.5T0 315q0 8 5.5 13.5T19 334h262q8 0 13.5-5.5T300 315q0-8-5.5-13.5T281 296zM50 171q0-27 13.5-50T100 84.5Q123 71 150 71t50 13.5Q223 98 236.5 121t13.5 49.5q0 26.5-11.5 48T207 254q-20 14-45 17v-25h21q8 1 11.5-6.5T193 226l-11-15h2q7 0 10-6t-1-11l-30-41q-5-6-12.5-6t-12.5 6l-30 41q-4 5-1 11t10 6h1l-11 15q-5 6-1.5 13.5T117 247h21v24q-25-3-45-17t-31.5-35.5Q50 197 50 171zm113-56q0-8 5-13.5t13-5.5q8 0 13.5 5.5T200 115q0 8-5.5 13.5T181 134q-8 0-13.5-5.5T162 115h1zm37 50q0-8 5.5-13.5t13.5-5q8 .5 13.5 5.5t5.5 13q0 8-5.5 13.5T219 184q-8 0-13.5-5.5T200 165zM75 140q0-8 5.5-13t13.5-5q8 0 13.5 5t5 13q-.5 8-5.5 13.5T94 159q-8 0-13.5-5.5T75 140z"/></svg>