<svg viewBox="0 0 300 368" xmlns="http://www.w3.org/2000/svg"><path d="M231 74l-12 4-4 12q-1 4-5 5.5t-7.5 0Q199 94 197 90l-3-12-12-4q-5-1-6.5-5t0-7.5Q177 58 182 56l12-3 3-12q2-5 5.5-6.5t7.5 0q4 1.5 5 6.5l4 12 12 3q4 2 5.5 5.5t0 7.5q-1.5 4-5.5 5zm62 20l-12-4-3-12q-2-4-5.5-5.5t-7.5 0q-4 1.5-5 5.5l-4 12-12 4q-4 1-5.5 5t0 7.5q1.5 3.5 5.5 5.5l12 3 4 12q1 5 5 6.5t7.5 0q3.5-1.5 5.5-6.5l3-12 12-3q5-2 6.5-5.5t0-7.5q-1.5-4-6.5-5zm-12 75l-12-4-4-12q-1-4-5-5.5t-7.5 0Q249 149 247 153l-3 12-12 4q-5 1-6.5 5t0 7.5q1.5 3.5 6.5 5.5l12 3 3 12q2 5 5.5 6.5t7.5 0q4-1.5 5-6.5l4-12 12-3q4-2 5.5-5.5t0-7.5q-1.5-4-5.5-5zm-68 21v75q0 19-9.5 34.5t-25.5 25q-16 9.5-34 9.5H69q-19 0-34.5-9.5t-25-25Q0 284 0 265v-75q0-26 18-46t45-22V71q0-15 10.5-26T100 34h13q15 0 26 11t11 27v50q26 2 44 22t18 46h1zm-38 0q0-13-9-22t-22-9H69q-13 0-22 9t-9 22v75q-1 13 8.5 22t22.5 9h75q13 0 22-9t9-22v-75zm-69-6q-18 0-30.5 13T63 228q0 18 12.5 30.5T106 271q18 0 31-12.5t13-30.5q0-18-13-31t-31-13z"/></svg>