<svg viewBox="0 0 300 368" xmlns="http://www.w3.org/2000/svg"><path d="M119 65q0-13 9-22t22-9q13 0 22 9t9 22q0 8-3 14.5T169 90v25q0 8-5.5 13.5T150 134q-8 0-13.5-5.5T131 115V90q-6-4-9-10.5T119 65zm107 184l-57-17v-53q0-7-4-12.5t-10-6.5q-10-3-17 3t-7 15v103l-20-16q-9-7-19.5-6t-17 9q-6.5 8-5.5 18.5t9 17.5l21 19q13 11 30 11h9q13 0 22-9t9-21v-33l46 14q10 3 16 11.5t6 18.5q0 8 5.5 13.5T256 334q8 0 13.5-5.5T275 315q0-23-13.5-41T226 249zm-25-85q6 0 11-3l22-16q5 1 10 1 13 1 22-8.5t9-22.5q0-13-9-22t-22-9q-13 0-22 9t-9 22l-22 15q-7 5-8 12.5t4 14.5q5 7 14 7zm-113-3q5 3 11 3 9 0 14-7t4-14.5q-1-7.5-8-12.5l-22-16q0-12-9-21t-22-9q-13 0-22 9t-9 22q0 13 9 22t22 9q5 0 10-1l22 16z"/></svg>