<svg viewBox="0 0 300.0286 368" xmlns="http://www.w3.org/2000/svg"><path d="M106.03 334q-6 0-11.5-4t-6.5-11l-20-91-5 28q-2 7-7.5 11t-12.5 4q-7 0-12-4.5t-6-11.5L.03 84q-2-8 .5-17.5t8-17q5.5-7.5 15-11.5t19.5-4h215q9 0 18 4t14 11q12 17 9 35l-31 221q0 7-5.5 11.5t-12.5 4.5q-7 0-12-4t-7-11l-21-90-11 42q-2 5-7 9.5t-11 4.5q-6 0-11-4t-6-10l-13-44-26 106q-2 6-7 10t-12 4zm-37-213q6 0 11.5 4.5t7.5 10.5l20 97 23-97q2-6 7-10.5t12-4.5q7 0 12 4t6 10l13 48 14-48q1-6 6-10t12-4q6 0 11 4.5t6 10.5l16 70 17-128q0-4-1-5l-2-2q-1-1-2-1h-215l-2 1q-2 2-2 3l-1 1v3l10 71 2-13q2-6 7-10.5t12-4.5z"/></svg>