<svg viewBox="0 0 300 368" xmlns="http://www.w3.org/2000/svg"><path d="M300 184q0 41-20 75.5T225.5 314Q191 334 150 334t-75.5-20Q40 294 20 259.5T0 184q0-11 2-21 1-8 7-12.5t13.5-3.5q7.5 1 12.5 7t4 14q-1 8-1 16 0 31 15 56.5t41 41q26 15.5 56.5 15.5t56-15.5q25.5-15.5 41-41T263 184q0-31-15.5-56.5t-41-41Q181 71 150 71q-14 0-27 4-7 2-14-2t-8.5-12Q99 53 103 46.5t11-8.5q18-4 36-4 41 0 75.5 20t54.5 54.5q20 34.5 20 75.5zm-181-25H81q-8 0-13.5 5.5t-5 13.5q.5 8 5.5 13.5t13 5.5h38q8-1 13.5-6t5-13q-.5-8-5.5-13.5t-13-5.5zm100 37q8 0 13.5-5t5.5-13q0-8-5.5-13.5T219 159h-38q-8 0-13 5.5t-5 13.5q0 8 5 13.5t13 5.5h38v-1zM44 121q13 0 22-9t9-21.5Q75 78 66 61q-7-14-15-24-3-3-7.5-3T37 37q-9 10-16 24-9 18-9 30t9.5 21.5Q31 122 44 122v-1zm66 109q-7 3-9 10.5t1 14.5q3 7 10.5 9.5T127 263q10-4 23-4 8 0 17 2l6 2q4 2 8.5 2t9.5-2.5q5-2.5 7-7.5 4-7 1.5-14.5T190 230q-5-3-12-5-14-4-28-4t-28 4q-7 2-12 5z"/></svg>