<svg viewBox="0 0 300 368" xmlns="http://www.w3.org/2000/svg"><path d="M231 109h-40l41-43q6-6 5.5-13.5t-6-13q-5.5-5.5-13-5.5T205 40l-55 57-55-57q-6-6-13.5-6t-13 5.5q-5.5 5.5-6 13T68 66l41 43H69q-19 0-34.5 9.5t-25 25Q0 159 0 178v87q0 19 9.5 34.5t25 25Q50 334 69 334h162q19 0 34.5-9.5t25-25Q300 284 300 265v-87q0-19-9.5-34.5t-25-25Q250 109 231 109zm32 156q0 13-9.5 22t-22.5 9H69q-13 0-22-9t-9-22v-87q0-13 9-22.5t22-9.5h162q13 1 22.5 10t9.5 22v87zm-88-81v75q0 5-3.5 9t-9.5 3H75q-5 0-8.5-3.5T63 259v-75q0-5 3.5-8.5T75 172h88q5-1 8.5 3t3.5 9zm63 6q0 8-5.5 13.5T219 209q-8 0-13.5-5.5T200 190q0-8 5.5-13.5T219 171q8 0 13.5 5.5T238 190zm0 63q0 8-5.5 13t-13.5 5q-8 0-13.5-5t-5.5-13q0-8 5.5-13.5T219 234q8 0 13 5.5t6 13.5z"/></svg>