<svg viewBox="0 0 300 368" xmlns="http://www.w3.org/2000/svg"><path d="M269 196H31q-13 0-22 9.5T0 228v37q0 19 9.5 34.5t25 25Q50 334 69 334h162q19 0 34.5-9.5t25-25Q300 284 300 265v-37q0-13-9-22t-22-9v-1zm-6 69q0 13-9.5 22t-22.5 9H69q-13 0-22-9t-9-22v-12q0 8 5 13t13 5q8 0 13.5-5t5.5-13v-19h25v19q0 8 5.5 13t13.5 5q8 0 13-5t5-13v-19h26v19q0 8 5 13t13 5q8 0 13.5-5t5.5-13v-19h25v19q0 8 5.5 13t13.5 5q8 0 13.5-5t4.5-13v12h1zM231 34H69q-19 0-34.5 9.5t-25 25Q0 84 0 103v37q0 13 9 22t22 9h238q13 0 22-9t9-22v-37q0-19-9.5-34.5t-25-25Q250 34 231 34zm32 81q0-8-5.5-13.5t-13.5-5q-8 .5-13.5 5.5t-5.5 13v19h-25v-31q0-8-5.5-13.5T181 84q-8 0-13 5.5t-5 13.5v31h-25v-31q0-8-5.5-13.5T119 84q-8 0-13.5 5.5T100 103v31H75v-19q0-8-5.5-13.5t-13.5-5q-8 .5-13 5.5t-5 13v-12q0-13 9-22t22-9h162q13-1 22.5 8.5T263 103v12z"/></svg>