<svg viewBox="0 0 300.0027 368" xmlns="http://www.w3.org/2000/svg"><path d="M284 185q-15-16-33-30-25-20-51-30v-3q0-22-15-36 2-7 2-14 0-16-10.5-27T150 34q-16 0-27 11t-11 27q0 7 3 14-15 14-15 35v4q-28 11-55 32-20 16-32 31-16 19-13 43.5T21 271q17 13 38.5 13T97 269q7 29 18 45 14 20 35 20t35-20q11-16 17-45 17 15 40 15t40-16.5q17-16.5 18-40.5t-16-42zM45 242q-7-6-8-14.5t5-15.5q9-12 27-25 24-19 48-28-33 69-42 79-6 7-14.5 8T45 242zm105-64q8 17 15 31h-31l16-31zm0 118q-3 0-6-7-7-12-13-43h38q-6 31-13 43-3 7-6 7zm113-70q-1 9-7 15t-15 5.5q-9-.5-15-6.5-9-10-43-81 23 8 46 27 15 11 28 25 6 6 6 15z"/></svg>