<svg viewBox="0 0 300 368" xmlns="http://www.w3.org/2000/svg"><path d="M279 255l-16 16-29-29q41-47 41-84 1-20-8-36.5T242 95q-16-10-36-11-14 0-27 6t-23 17q-9-11-22-17t-27-6q-14 0-25 5L32 39q-5-5-13-5T5.5 39.5Q0 45 0 53t5 13l47 47q-15 20-14.5 46t22 58.5Q81 250 121 284q15 13 35 13t36-13l16-15 29 28-16 16q-2 2-3 6t.5 7.5q1.5 3.5 4.5 5.5t7 2h58q5 0 8.5-3.5t3.5-9.5v-57q0-4-2-7t-5.5-4.5q-3.5-1.5-7.5-.5t-6 3zm-112 0q-4 4-10.5 4t-11.5-4q-36-30-54-58-16-23-16.5-38t8.5-25.5q9-10.5 23-12.5 14 2 23 12.5t9 24.5q0 8 5 13.5t13 5q8-.5 13.5-5.5t5.5-13q-1-14 8-24.5t23-11.5q14 1 23 11.5t9 25.5q0 15-16 38-19 28-54 58h-1z"/></svg>