<svg viewBox="0 0 300 368" xmlns="http://www.w3.org/2000/svg"><path d="M296 175l-38-38q-4-4-8.5-3.5t-8 4Q238 141 238 146v19h-13v-12q0-8-5.5-13.5T206 134q-8 0-13 5.5t-5 13.5v12h-15q-7-29-30.5-48.5T88 96q-24 0-44 12t-32 32Q0 160 0 184t12 44q12 20 32 31.5T88 271q31 1 54.5-19t30.5-49h15v12q-1 8 4.5 13.5T206 234q8 0 13.5-5.5T225 215v-12h13v19q-1 5 3 8.5t8.5 4q4.5.5 8.5-3.5l38-38q4-4 4-9t-4-9zM88 234q-21 0-35.5-14.5T38 184q0-21 14.5-35.5t35-14.5q20.5 0 35.5 14.5t15 35.5q0 21-15 35.5T87 234h1z"/></svg>