<svg viewBox="0 0 300 368" xmlns="http://www.w3.org/2000/svg"><path d="M254 43q-7-7-17-8.5t-18.5 2Q210 40 205 48t-5 17v250q0 8 5.5 13.5T219 334q8 0 13.5-5.5T238 315v-31q37-28 52.5-73t6-90.5Q287 75 254 43zm-16 188V81q15 18 21 46t.5 57q-5.5 29-21.5 47zM163 53v75q-1 28-18.5 50T100 207v108q0 8-5.5 13.5T81 334q-8 0-13-5.5T63 315V207q-28-7-45.5-29T0 128V53q0-8 5.5-13.5T19 34q8 0 13.5 5.5T38 53v75q0 12 6.5 23T62 167V53q0-8 5.5-13.5T81 34q8 0 13.5 5.5T100 53v114q11-5 18-16t7-23V53q0-8 5.5-13.5T144 34q8 0 13.5 5.5T163 53z"/></svg>