<svg viewBox="0 0 300 368" xmlns="http://www.w3.org/2000/svg"><path d="M231 34H69q-19 0-34.5 9.5t-25 25Q0 84 0 103v162q0 19 9.5 34.5t25 25Q50 334 69 334h162q19 0 34.5-9.5t25-25Q300 284 300 265V103q0-19-9.5-34.5t-25-25Q250 34 231 34zm32 231q0 13-9.5 22t-22.5 9H69q-13 0-22-9t-9-22V103q0-13 9-22.5T69 71h162q13 0 22.5 9.5T263 103v162zM150 96q-20 1-37.5 11T85 134.5Q75 152 75 172v24q0 20 10 37.5t27.5 27.5q17.5 10 37.5 10t37.5-10q17.5-10 27.5-27.5t10-37.5v-24q0-20-10-37.5T187.5 107Q170 97 150 97v-1zm37 100q0 16-10.5 27T150 234q-16 0-27-11t-11-27v-24q0-16 11-27t27-11q16 0 26.5 11t10.5 27v24z"/></svg>