<svg viewBox="0 0 300 368" xmlns="http://www.w3.org/2000/svg"><path d="M247 164q-4-6-3-14t7-12.5q6-4.5 14-3.5t12 7q15 20 22 44 2 7-1.5 14t-10.5 9q-3 1-6 1-6 0-11-3.5t-7-9.5q-5-18-16-32zm-92 103q-12 5-24 5-19 0-39-21 8-12 16-27 4-7 1.5-14t-9-11q-6.5-4-14-1.5T75 207l-7 12q-12-19-20-40.5T38 138q-1-8-7-12.5T17.5 122Q10 123 5 129t-4 14q3 24 14 52 12 31 29 56-16 17-31 22-8 2-11 9t-1 13.5q2 6.5 7 10t11 3.5q3 0 6-1 22-7 43-28 30 29 63 29 20 0 39-8 7-3 10-10t0-14.5q-3-7.5-10.5-10t-14.5.5zm109-20zm16 41l15 14q5 6 5 13.5t-5.5 13q-5.5 5.5-13 5.5t-13.5-5L6 66q-6-5-6-13t5.5-13.5Q11 34 18.5 34T32 39l21 22q8-2 16-2 18 0 34 9.5t25.5 25Q138 109 138 128q0 8-2 16l24 23q13-8 28-8 20 0 35 14.5t15 35.5q0 13-7 29l23 23q7-6 10-14 2-6 6.5-9.5T282 234q7 0 12.5 5.5T300 253q0 4-2 7-5 16-18 28zm-80-81q-1-4-4-7t-7-3l11 10z"/></svg>