<svg viewBox="0 0 300 368" xmlns="http://www.w3.org/2000/svg"><path d="M283 56q-8-7-18-9t-20 1l-15 5q-17 6-24 6-10 0-25-4-9-2-29-8-21-6-32-9-18-4-32-4-33 0-66 19-10 6-16 16T0 91v224q0 8 5.5 13.5T19 334q8 0 13-5.5t5-13.5v-77q26-16 51-16 10 0 25 3 9 2 28 8 22 7 33 9 18 5 32 5 19-1 37.5-5t32.5-12q11-7 17.5-18t6.5-24V90q0-10-4.5-19T283 56zm-40 32h1l11-4q3-1 5.5 1t2.5 5v29q-27 13-50 15V96q12-1 30-8zm-68 5v36l-23-7q-16-5-27-8V78l16 5q22 7 34 10zM41 86q24-15 47-15v38q-25 0-51 11V91q1-3 4-5zm-3 109v-32q25-17 49-17v38q-24 0-50 11h1zm87-6v-36l16 5q22 7 34 10v36l-23-7q-16-5-27-8zm132 8q-7 4-19 7.5t-26 4.5v-38q24-1 50-11v28q1 6-5 9z"/></svg>