<svg viewBox="0 0 300 368" xmlns="http://www.w3.org/2000/svg"><path d="M150 34q-42 0-76.5 11.5T19.5 77Q0 97 0 121v125q0 25 19.5 45t54 31.5Q108 334 150 334t76.5-11.5q34.5-11.5 54-31.5t19.5-45V121q0-24-19.5-44t-54-31.5Q192 34 150 34zm0 37q31 0 57 7.5T248 98q15 12 15 23.5T248 145q-15 12-41 19.5t-57 7q-31-.5-57-7.5t-40.5-19Q38 133 38 121.5T52.5 98Q67 86 93 78.5t57-7.5zm0 225q-31 0-57-7t-41-19q-15-12-14-24v-65q20 13 49 20.5t63 7.5q34 0 63-7.5t49-20.5v65q1 12-14 24t-41 19q-26 7-57 7zM71 115q12-7 30-12 23-7 49-7t49 7q18 5 30 12 3 2 3 6.5t-3 6.5q-12 7-30 12-23 7-49 7t-49-7q-18-5-30-12-3-2-3-6.5t3-6.5z"/></svg>