<svg viewBox="0 0 300 368" xmlns="http://www.w3.org/2000/svg"><path d="M172 61q-6-12-16.5-19.5T131 34H94q-14 0-24.5 7.5T53 61q-23 5-38 23.5T0 128v137q0 19 9.5 34.5t25 25Q50 334 69 334h87q19 0 34.5-9.5t25-25Q225 284 225 265V128q0-25-15-43.5T172 61zm16 204q0 13-9.5 22.5T156 297H69q-13-1-22.5-10T37 265V128q1-13 10-22t22-9q8-1 13.5-6T88 78q0-3 1.5-5t4.5-2h37q3 0 5 2t2 5q-1 8 4.5 13.5T156 97q13 0 22 9t9 22v137h1zm-50-141q6 6 6 13.5t-6 13.5l-23 23q-10 10-24 10t-23-10l-13-12q-5-5-5-13t5.5-13.5Q61 130 69 130t13 6l9 9 21-21q5-5 13-5t13 5zm0 75q6 6 6 13.5t-6 13.5l-23 23q-10 10-24 10t-23-10l-13-12q-5-5-5-13t5.5-13.5Q61 205 69 205t13 6l9 9 21-21q5-5 13-5t13 5zM300 60v232q0 19-14 33l-7 7q-2 2-4 2t-4-2l-7-7q-14-14-14-33V59q0-11 8-18.5t18.5-6.5q10.5 1 17 8.5T300 60z"/></svg>