<svg viewBox="0 0 300 368" xmlns="http://www.w3.org/2000/svg"><path d="M250 134v25h31q8 0 13.5 5.5T300 178q0 8-5.5 13.5T281 196h-31v25h31q8 1 13.5 6t5.5 13q0 8-5.5 13.5T281 259h-31v56q0 8-5.5 13.5T231 334q-8 0-13.5-5.5T212 315V90q1-23 17-39.5T269 34h12q8 0 13.5 5.5T300 53q0 8-5.5 13.5T281 72h-12q-8-1-13.5 4.5T250 90v6h31q8 1 13.5 6t5.5 13q0 8-5.5 13.5T281 134h-31zm-50 141q0 17-9.5 32t-26 22q-16.5 7-34 4T100 318q-12 11-28.5 14.5T39 330q-16-6-26.5-19t-12-30Q-1 264 6 249t21-24q26-31 51-69Q37 90 37 53q1-8 6-13.5T56 34q8 0 13.5 5.5T75 53q0 22 25 67 25-45 25-67 0-8 5.5-13.5T144 34q8 0 13.5 5.5T163 53q-1 37-41 103 25 38 50 69 13 8 20.5 21t7.5 29zm-119 0q0-7-3.5-12.5t-9.5-8q-6-2.5-12.5-1.5T44 259q-5 5-6 11.5t1.5 12.5q2.5 6 8 9.5T59 296q9 0 15.5-6t6.5-15zm19-44q9-8 21-12-10-12-21-29-11 16-21 29 12 4 21 12zm63 44q-1-9-7-15.5t-15-6.5q-9 0-15.5 6.5T119 275q0 9 6.5 15t15.5 6q9 0 15-6t7-15z"/></svg>