<svg viewBox="0 0 300 368" xmlns="http://www.w3.org/2000/svg"><path d="M231 34H69q-19 0-34.5 9.5t-25 25Q0 84 0 103v162q0 19 9.5 34.5t25 25Q50 334 69 334h129q29 0 49-20l33-33q20-20 20-49V103q0-19-9.5-34.5t-25-25Q250 34 231 34zM69 296q-13 0-22-9t-9-22V103q0-13 9-22t22-9h162q13-1 22.5 8.5T263 103l-1 131h-37q-10 0-17.5 7.5T200 259v37H69zm125-93h-25v25q0 8-5.5 13.5t-13.5 5q-8-.5-13.5-5.5t-5.5-13v-25h-25q-8 0-13.5-5.5t-5-13.5q.5-8 5.5-13.5t13-5.5h25v-25q0-8 5.5-13t13.5-5.5q8-.5 13.5 5T169 140v25h25q8 0 13 5.5t5.5 13.5q.5 8-5 13.5T194 203z"/></svg>