<svg viewBox="0 0 300 368" xmlns="http://www.w3.org/2000/svg"><path d="M25 71q0-15 11-26t26.5-11Q78 34 89 45t11 26.5Q100 87 89 98t-26.5 11Q47 109 36 98T25 71zm275 188q0 20-10 37.5T262.5 324Q245 334 225 334t-37.5-10Q170 314 160 296.5T150 259q0-20 10-37.5t27.5-27.5q17.5-10 37.5-10t37.5 10q17.5 10 27.5 27.5t10 37.5zm-29-21q-3-4-8.5-4t-8.5 3l-34 33q-2 1-3.5 1.5T213 270l-17-16q-3-4-8.5-4t-9 3.5q-3.5 3.5-3.5 9t4 8.5l17 17q8 8 20.5 8t20.5-8l34-33q4-3 4-8.5t-4-8.5zm-83-129q15 0 26-11t11-26.5Q225 56 214 45t-26.5-11Q172 34 161 45t-11 26.5Q150 87 161 98t27 11zM88 171q-1 16 10 27t27 11q16 0 27-11t11-26.5q0-15.5-11-26.5t-27-11q-16 0-26.5 11T88 171zm-14-35q-2-8-8.5-12T52 122q-23 6-37.5 25T0 190q0 8 5.5 13.5T19 209q8 0 13-5.5t5-13.5q1-11 7.5-20T61 158q7-2 11-8.5t2-13.5zm102 0q-2 7 2 13.5t11 8.5q7 2 13 7.5t13.5 5.5q7.5 0 13-5.5t5.5-13q0-7.5-5-13.5-13-12-31-17-7-2-13.5 2t-8.5 12zm-74 86q-23 6-37.5 25T50 290q0 8 5.5 13.5T69 309q8 0 13.5-5.5T88 290q0-11 6.5-20t16.5-12q7-2 11-8.5t2-14q-2-7.5-8.5-11.5t-13.5-2z"/></svg>