<svg viewBox="0 0 300 368" xmlns="http://www.w3.org/2000/svg"><path d="M238 75V53q0-8-5.5-13.5T219 34q-8 0-13.5 5.5T200 53v6H100v-6q0-8-5.5-13.5T81 34q-8 0-13.5 5.5T63 53v22q-12 9-18.5 23T38 128v112q0 16 6.5 30T62 293v22q1 8 6 13.5t13 5.5q8 0 13.5-5.5T100 315v-6h100v6q0 8 5.5 13.5T219 334q8 0 13.5-5.5T238 315v-22q11-9 18-23t7-30V128q0-16-7-30t-18-23zM106 271q-13 0-22-9t-9-22V128q0-13 9-22t22-9h88q13 0 22 9t9 22v112q0 13-9 22.5t-22 9.5h-88v-1zm76-82q6 6 6 14t-5.5 13q-5.5 5-13.5 5t-14-5l-18-19q-6-5-6-13v-44q0-8 5.5-13.5T150 121q8 0 13.5 5.5T169 140v36l13 13z"/></svg>