<svg viewBox="0 0 300 368" xmlns="http://www.w3.org/2000/svg"><path d="M300 196q0-33-16-60-14-23-39-39-21-14-45-21-1-18-13.5-30T156 34h-12q-18 0-30.5 12T100 76q-24 7-44 21-25 16-39 39-17 27-17 61 0 44 30.5 73t84.5 37q-4 6-2 13t8.5 11q6.5 4 13.5 2.5t11-7.5l4-5 4 5q4 6 11 7.5t13.5-2.5q6.5-4 8.5-11t-2-13q54-8 84.5-37t30.5-74zM138 78q0-3 1.5-5t4.5-2h12q3 0 5 2t2 5v12q0 4 1 7l3 5q16 21 24 45t9 50q1 19-7 37.5T169 265V153q0-8-5.5-13.5T150 134q-8 0-13.5 5.5T131 153v112q-16-12-24-30.5t-7-38.5q1-25 9-49t24-45l3-5 1-7 1-12zM38 196q-1-20 9.5-38.5T76 128q-13 33-13 69-1 32 14 60-19-8-29.5-24.5T38 196zm185 61q15-28 14-60 0-36-13-69 18 11 28.5 29.5T263 196q0 20-10.5 36.5T223 257z"/></svg>