<svg viewBox="0 0 300 368" xmlns="http://www.w3.org/2000/svg"><path d="M213 334q-24 0-44-12t-32-32q-12-20-12-43 0-37 55-99 6-7 14.5-11t18-4q9.5 0 18 4t14.5 11q55 62 55 99 0 23-12 43t-32 32q-20 12-44 12h1zm0-163q-3 0-5 2-23 26-35 47-11 17-11 26 1 21 15.5 35.5t35 14.5q20.5 0 35-14.5T262 246q1-9-10-26-12-21-35-47-2-2-4-2zM69 190q-19 0-34.5-9t-25-25Q0 140 0 121q0-23 30-66 6-10 16.5-15.5t22-5.5q11.5 0 22 5.5T108 55q29 43 30 66-1 19-10 35t-25 25q-16 9-34 9zm0-119q-5 0-8 5-15 20-20 34-4 8-3 11 0 13 9 22.5t22 9.5q13 0 22-9.5t9-22.5q0-3-3-11-6-14-20-34-3-5-8-4v-1z"/></svg>