<svg viewBox="0 0 300 368" xmlns="http://www.w3.org/2000/svg"><path d="M269 123l-78-77q-7-7-16.5-10T156 34L73 45q-8 1-12.5 7.5t-3.5 14Q58 74 64 79t14 4l83-11q2-1 4 1l78 77q7 7 7 17.5t-7 17.5l-6 6-5-5-78-77q-7-7-16.5-10T118 97l-83 11q-6 1-10.5 5.5T19 125l-6 80q-1 10 2.5 19T26 240l76 75q18 19 44 19h1q26 0 44-19l41-41q17-18 18-43l20-20q11-12 15-28t0-32q-4-16-16-28zm-64 124l-41 42q-7 8-17.5 8t-17.5-8l-77-76q-2-2-2-5l5-65 68-9q3 0 5 1l77 77q7 8 7 18t-7 17zm-92-69q-1 11-10 16t-18.5 0q-9.5-5-9.5-16.5t9.5-16q9.5-4.5 18.5 0t10 16.5z"/></svg>