<svg viewBox="0 0 300.0027 368" xmlns="http://www.w3.org/2000/svg"><path d="M283.003 76l-3-3q-17-17-40-23t-46-.5q-23 5.5-40 21.5l-2 2-27-17q-20-12-43.5-8.5T43.003 69l-29 36q-13 17-14 38.5t12 38.5l14 19q-17 26-13.5 58t26.5 55l3 3q9 8 19 12.5t21.5 4.5q11.5 0 22-4.5t18.5-12.5l160-160q17-17 17-40.5t-17-40.5zm-29 24l3 3q5 6 5 14t-5 13l-5 5-67-41q16-12 35.5-10t33.5 16zm-211 29l29-36q6-7 15.5-8.5t17.5 3.5l54 33-39 39q-39-3-66 15l-12-15q-5-7-4.5-15.5t5.5-15.5zm53 162q-5 5-13.5 5t-13.5-5l-3-3q-15-15-16-37t14-37q9-9 20-13t24-4q16 0 49 8l21 4-82 82zm122-122q-6 6-21 5-9-1-32-6l26-26 34 20-7 7z"/></svg>