<svg viewBox="0 0 300 368" xmlns="http://www.w3.org/2000/svg"><path d="M231 234h-62q-8 0-13.5 5.5T150 253v43h-50v-43q0-8-5.5-13.5T81 234H38v-25h31q8 0 13.5-5.5T88 190q0-8-5.5-13T69 171H38q0-9 6-16t14.5-8.5q8.5-1.5 13-7.5t3.5-14q-1-8-7.5-12.5T54 109q-23 3-38.5 21T0 171v100q0 17 8.5 31.5t23 23Q46 334 63 334h125q16 0 30.5-8.5t23-23Q250 288 250 271v-18q0-8-5.5-13.5T231 234zM38 271h25v25q-11 0-18-7t-7-18zm150 25v-25h25q-1 11-8 18t-17 7zm43-262h-62q-19 0-34.5 9.5t-25 25Q100 84 100 103v37q0 19 9.5 34.5t25 25Q150 209 169 209h62q19 0 34.5-9.5t25-25Q300 159 300 140v-37q0-19-9.5-34.5t-25-25Q250 34 231 34zm-93 69q0-13 9-22.5t22-9.5h62q13 0 22.5 9.5T263 103v2l-27 27q-4 3-9 3t-9-3l-5-6q-4-4-9-4t-8 3l-47 40q-11-10-11-25v-37zm12 0q0-8 5.5-13.5T169 84q8 0 13.5 5.5t5 13.5q-.5 8-5.5 13.5t-13 5.5q-8 0-13.5-5.5T150 103z"/></svg>