<svg viewBox="0 0 300 368" xmlns="http://www.w3.org/2000/svg"><path d="M131 65q0-8 5.5-13.5T150 46q8 0 13.5 5.5T169 65q0 8-5.5 13.5T150 84q-8 0-13.5-5.5T131 65zm107 131q0 24-12 44t-32 32q-20 12-44 12t-44-12q-20-12-31.5-32T63 196.5Q63 173 74.5 153t31.5-32q20-12 44-12t44 12q20 12 32 32t12 43zm-42 19h-46q-8 0-13.5-5.5t-5.5-13q0-7.5 5.5-13T150 178h46q-5-14-18-22.5t-28-8.5q-21-1-35.5 14T100 196.5q0 20.5 14.5 35T150 246q15 0 28-8.5t18-22.5zM19 178q-8 0-13.5 5.5t-5.5 13q0 7.5 5.5 13T19 215q8 0 13.5-5.5t5.5-13q0-7.5-5.5-13T19 178zm262 0q-8 0-13 5.5t-5 13q0 7.5 5 13t13 5.5q8 0 13.5-5.5t5.5-13q0-7.5-5.5-13T281 178zM56 121q8 1 13.5-4.5T75 103q0-8-5.5-13.5T56 84q-8 0-13 5.5T38 103q0 8 5 13.5t13 5.5v-1zm188 150q-8 1-13.5 6t-5.5 13q0 8 5.5 13.5T244 309q8 0 13.5-5.5t5-13.5q-.5-8-5.5-13.5t-13-4.5v-1zm-188 0q-8 0-13 5.5T38 290q0 8 5 13.5t13 5.5q8 0 13.5-5.5T75 290q0-8-5.5-13.5T56 272v-1zm188-150q8 1 13.5-4.5t5-13.5q-.5-8-5.5-13.5T244 84q-8 0-13.5 5.5T225 103q0 8 5.5 13.5T244 122v-1z"/></svg>