<svg viewBox="0 0 300 368" xmlns="http://www.w3.org/2000/svg"><path d="M256 219q-6 0-11-4t-7-10q-2-6 .5-12t8.5-9l7-5q-18-5-32.5-16T198 137q-15-29-10-60-5 2-10 6-11 9-17 23-2 4-6 7t-9 3.5q-5 .5-10-1.5t-7.5-6q-2.5-4-3-9t1.5-10q9-21 28-36 16-13 36-19 8-2 16 0t13.5 8q5.5 6 7.5 14t0 15q-4 12-3.5 24t7 23q6.5 11 18 18t25.5 9q8 1 14 6t9 12.5q3 7.5 1.5 15.5t-6.5 14q-12 13-27 22-5 3-10 3zM20 276q-7 0-12-4t-6-10q-4-16 2.5-31T26 208q-1-6-1-12 1-28 19-48.5T89 122q10-1 18.5 0t13.5 6.5q5 5.5 4 13.5t-7 13q-6 5-13 4H95q-12 2-20.5 10T64 188q-1 4-1.5 8.5t.5 8.5q3 11-2.5 21T45 240q-3 2-5.5 5t-1.5 7q2 9-3.5 16.5T20 276zm165 58H97q-6 0-12-2-14-3-23.5-14t-11-25.5Q49 278 56 265t20-19q-2-11 0-22 4-19 17-32.5t31-17.5q23-6 44.5 3.5T200 209q0 1 2 2 24 6 37.5 27t9 44.5Q244 306 226 320t-41 14zm-44-125q-4 0-8 1-8 2-13 7.5t-6.5 13Q112 238 113 244q3 11-2 20.5T96 277q-4 2-6.5 5.5t-1.5 8q1 4.5 7 5.5h90q10 1 17.5-5t9-15.5q1.5-9.5-4-17.5T193 247.5q-9-2.5-16-8.5t-11-14q-4-7-10.5-11.5T141 209z"/></svg>