<svg viewBox="0 0 300 368" xmlns="http://www.w3.org/2000/svg"><path d="M262 122q-2-15-12.5-25.5T225 84q-3-16-15-26.5T181 47h-62q-17-1-29 10T75 84q-14 2-24.5 12.5T38 122q-16 2-27 14.5T0 165v88q0 18 9.5 34t25 25q15.5 9 34.5 9h162q19 0 34.5-9t25-25q9.5-16 9.5-34v-88q0-16-11-28.5T262 122zm1 131q0 11-7.5 19.5T238 283v-30q-1-8-6-13.5t-13-5.5q-8 0-13.5 5.5T200 253v31h-31v-31q0-8-5.5-13.5T150 234q-8 0-13.5 5.5T131 253v31h-31v-31q0-8-5.5-13.5T81 234q-8 0-13.5 5.5T62 253v30q-10-2-17.5-10.5T38 253v-88q0-2 1.5-4t4.5-2h12q8 0 13.5-5.5T75 140v-12q0-3 2-5t4-2h13q8 0 13.5-5t5.5-13V90q-1-2 1-4t5-2h62q3 0 5 2t2 4v13q0 8 5 13t13 5h13q2 0 4 2t2 5v12q0 8 5.5 13.5T244 159h12q3 0 5 2t2 4v88z"/></svg>