<svg viewBox="0 0 300 368" xmlns="http://www.w3.org/2000/svg"><path d="M63 121H0q3-24 20.5-41.5T63 59v62zm200 19q0 8 5 13.5t13 5.5q8 0 13.5-5.5T300 140v-12q0-19-9.5-34.5t-25-25Q250 59 231 59H100v62h163v19zM131 271H63V159H0v81q0 19 9.5 34.5t25 25Q50 309 69 309h62q8 0 13.5-5.5T150 290q0-8-5.5-13t-13.5-5v-1zm166-67l-26-26q-6-7-14.5-7t-14.5 7l-26 26q-5 5-2 11t10 6h14v19q0 3-2 4.5t-5 1.5h-18v-14q0-7-6.5-9.5T195 225l-26 26q-6 6-6 14.5t6 14.5l26 26q5 5 11 2t6-10v-14h19q18 0 31-13t13-31v-19h15q7 1 9.5-5.5T297 204z"/></svg>