<svg viewBox="0 0 300 368" xmlns="http://www.w3.org/2000/svg"><path d="M169 71V53q0-8-5.5-13.5T150 34q-8 0-13.5 5.5T131 53v18q-25 1-46.5 13.5t-34 34Q38 140 37 165v53q0 29 13.5 55t38 42q24.5 16 53.5 19 24 1 46-6.5t39-23.5q17-16 26-37.5t10-45.5v-56q-1-25-13.5-46.5t-34-34Q194 72 169 72v-1zm56 150q0 21-10 38t-27.5 27Q170 296 150 296t-37.5-10Q95 276 85 259t-10-37v-57q0-23 16.5-39.5T131 109h38q23 0 39.5 16.5T225 165v56zm-75-87q-8 0-13.5 5.5T131 153v25q0 8 5.5 13.5t13.5 5q8-.5 13.5-5.5t5.5-13v-25q0-8-5.5-13.5T150 134z"/></svg>