<svg viewBox="0 0 300 368" xmlns="http://www.w3.org/2000/svg"><path d="M279 193l-9 9-45-45q-13-12-31-12t-31 12l-2 2q-2 2-4.5 2t-4.5-2l-51-51q-6-5-13.5-5t-13 5.5q-5.5 5.5-5.5 13t5 12.5l51 52q13 12 31 12t31-12l2-2q2-2 4.5-2t4.5 2l45 44-9 10q-3 2-3.5 6t1 7.5q1.5 3.5 4.5 5.5t7 2h38q8 0 13.5-5.5T300 240v-39q0-3-2-6.5t-5.5-4.5q-3.5-1-7.5-.5t-6 3.5zm2 103H69q-13 0-22-9t-9-22V53q0-8-5.5-13.5T19 34q-8 0-13.5 5.5T0 53v212q0 19 9.5 34.5t25 25Q50 334 69 334h212q8 0 13.5-5.5T300 315q0-8-5.5-13.5T281 296z"/></svg>