<svg viewBox="0 0 300.0015 368" xmlns="http://www.w3.org/2000/svg"><path d="M64 244l-2 10q1 15 13 26 7 6 24 13 6 3 12 7l-3 5q-4 6-2.5 13.5t8 12q6.5 4.5 14 3T139 326q10-12 10.5-27.5T137 273q-7-7-23-14-6-2-12-6l3-5q19-6 34-19.5t23-32.5q14 26 40 38-5 21 5 37 6 8 20 18 7 4 9 6t1.5 4.5q-.5 2.5-3 9t0 13.5q2.5 7 9.5 10 4 2 8.5 2t9.5-3q5-3 7-8 12-26 1-44-6-11-22-21-6-5-8.5-7.5t-2-6q.5-3.5 3.5-10.5 17-7 30.5-24t21-40q7.5-23 7.5-46 1-15-5-30t-17-26q-11-11-26-17t-31-5.5q-16 .5-31.5 7T163 71q-17-24-45-33t-56 .5q-28 9.5-45 33T0 124q0 24 8.5 48.5t23 44Q46 236 64 244zM222 83q17-1 29 11.5t12 30.5q0 18-6.5 36T240 190q-10 11-18.5 11T203 190q-10-11-16-29t-6.5-36q-.5-18 11.5-30.5T222 83zM90 71q22 1 37.5 16t15.5 36.5q0 21.5-8 42t-20.5 34Q102 213 90 213t-24-13.5q-12-13.5-20.5-34t-8-42Q38 102 53 87t37-16z"/></svg>