<svg viewBox="0 0 300 368" xmlns="http://www.w3.org/2000/svg"><path d="M231 34H69q-19 0-34.5 9.5t-25 25Q0 84 0 103v162q0 19 9.5 34.5t25 25Q50 334 69 334h162q19 0 34.5-9.5t25-25Q300 284 300 265V103q0-19-9.5-34.5t-25-25Q250 34 231 34zm32 231q0 13-9.5 22t-22.5 9H69q-13 0-22.5-9T37 265V103q1-13 10-22t22-9h162q13-1 22 8.5t9 22.5v162h1zm-42-138l-47 57 47 57q5 6 4 13.5t-6.5 12Q213 271 206 271q-9 0-14-6l-42-51-42 51q-5 6-14 6-7 0-12.5-4.5t-6.5-12q-1-7.5 4-13.5l47-57-47-57q-5-6-4-13.5t7-12.5q6-5 13.5-4.5T108 103l42 51 42-51q5-6 12.5-6.5T218 101q6 5 7 12.5t-4 13.5z"/></svg>