<svg viewBox="0 0 300 368" xmlns="http://www.w3.org/2000/svg"><path d="M231 159h-14l8-78q1-9-2-17.5T214 48q-13-14-32-14H43q-9 0-17.5 4T11 48Q-2 63 0 81l20 193q2 26 21 43t45 17h145q19 0 34.5-9t25-25q9.5-16 9.5-35v-37q0-19-9.5-34.5t-25-25Q250 159 231 159zm31 62H144q3-10 11.5-17.5T175 196h56q11 0 20 7.5t11 17.5zM39 73q2-1 4-1h139q3-1 4.5 1t.5 4l-1 19H40l-2-19q-1-2 1-4zm18 197L43 134h139l-3 25h-4q-19 0-34.5 9.5t-25 25Q106 209 106 228v37q0 17 8 31H86q-11 0-19.5-7T57 270zm174 26h-56q-13 0-22-9t-9-22v-6h25l33 22q5 3 10.5 3t10.5-3l33-22h6v6q0 13-9 22t-22 9z"/></svg>