<svg viewBox="0 0 300 368" xmlns="http://www.w3.org/2000/svg"><path d="M175 134q0 10-7.5 17.5T150 159q-10 0-17.5-7.5T125 134q0-10 7.5-17.5T150 109q10 0 17.5 7.5T175 134zm125 34v97q0 19-9.5 34.5t-25 25Q250 334 231 334h-4q-8 0-14-6t-7-15q-1-6-5-10l-25-28 25-28q6-6 5.5-14t-6-13q-5.5-5-13.5-4.5t-13 5.5l-24 26-24-26q-5-5-12.5-5.5T100 220q-6 5-6.5 13t5.5 14l26 28-25 27q-6 5-6 13t-5.5 13.5Q83 334 75 334h-6q-19 0-34.5-9.5t-25-25Q0 284 0 265v-97q0-17 9-31l36-53q9-14 24-20l59-25q10-5 22-5t22 5l59 25q15 6 24 20l36 53q9 14 9 31zm-37 0q0-5-4-10l-35-53q-3-5-8-7l-59-25q-7-3-14 0L84 98q-5 2-8 7l-35 53q-3 5-3 10v97q-1 11 6.5 20T63 296v-68q0-18 12.5-31t30.5-13h88q18 0 31 13t13 31v68q10-2 17.5-11t7.5-20v-97zM121 334h58l-29-32-29 32z"/></svg>