<svg viewBox="0 0 300 368" xmlns="http://www.w3.org/2000/svg"><path d="M244 109h-6V90q0-23-16.5-39.5T181 34h-62q-23 0-39.5 16.5T63 90v19h-7q-23 0-39.5 16.5T0 165v13q0 23 16.5 39.5T56 234h188q23 0 39.5-16.5T300 178v-13q0-23-16.5-39.5T244 109zM100 90q0-8 5.5-13.5T119 71h62q8 0 13.5 5.5T200 90v19H100V90zm163 88q0 8-5.5 13t-13.5 5H56q-8 0-13-5t-5-13v-13q0-8 5-13.5t13-5.5h188q8 0 13.5 5.5T263 165v13zM75 278v37q0 8-5.5 13.5T56 334q-8 0-13-5.5T38 315v-37q0-8 5-13.5t13-5.5q8 0 13.5 5.5T75 278zm63 0v37q0 8-5.5 13.5T119 334q-8 0-13.5-5.5T100 315v-37q0-8 5.5-13.5T119 259q8 0 13.5 5.5T138 278zm62 0v37q0 8-5.5 13.5T181 334q-8 0-13-5.5t-5-13.5v-37q0-8 5-13.5t13-5.5q8 0 13.5 5.5T200 278zm63 0v37q0 8-5.5 13.5T244 334q-8 0-13.5-5.5T225 315v-37q0-8 5.5-13.5T244 259q8 0 13.5 5.5T263 278z"/></svg>