<svg viewBox="0 0 300 368" xmlns="http://www.w3.org/2000/svg"><path d="M63 146h75q15 0 26-10.5t11-26.5V34h-37q0 16-11 26.5T100 71q-16 0-26.5-10.5T63 34H25v75q0 16 11 26.5T62 146h1zm68-62q8 0 13.5 5.5T150 103q0 8-5.5 13t-13.5 5q-8 0-13-5t-5-13q0-8 5-13.5t13-5.5zm-62 0q8 0 13.5 5.5T88 103q0 8-5.5 13T69 121q-8 0-13.5-5T50 103q0-8 5.5-13.5T69 84zm215 63q-15-14-35-13t-33 16l-31 33q-13-11-31-11H56q-23 0-39.5 16.5T0 228v50q0 23 16.5 39.5T56 334h68q28 0 54-11.5t45-33.5l65-74q13-15 12-35t-16-33zm-24 43l-65 74q-14 16-32.5 24t-38.5 8H56q-8 0-13.5-5T37 278v-50q1-8 6-13.5t13-5.5h98q4 0 6.5 2.5t2.5 5.5q0 3-2 5.5t-5 2.5l-65 9q-8 1-12.5 7.5t-3.5 14q1 7.5 7.5 12T96 271l65-9q15-2 26-13t13-26l43-48q3-3 7.5-3.5t8 2.5q3.5 3 4 8t-2.5 8z"/></svg>