<svg viewBox="0 0 300 368" xmlns="http://www.w3.org/2000/svg"><path d="M300 315q0 8-5.5 13.5T281 334H69q-14 0-26.5-5T20 314Q0 294 0 265V53q0-8 5.5-13.5T19 34q8 0 13.5 5.5T38 53v212q0 13 9 22t22 9h212q8 0 13.5 5.5T300 315zm-75-106v19q0 8 5.5 13t13.5 5q8 0 13.5-5t5.5-13v-19q10 0 17.5-7.5T288 184V96q0-10-7.5-17.5T263 71V53q0-8-5.5-13.5T244 34q-8 0-13.5 5.5T225 53v18q-10 0-17.5 7.5T200 96v88q0 10 7.5 17.5T225 209zm-125 25v19q0 8 5.5 13t13.5 5q8 0 13.5-5t5.5-13v-19q10 0 17.5-7.5T163 209V96q0-10-7.5-17.5T138 71V53q0-8-5.5-13.5T119 34q-8 0-13.5 5.5T100 53v18q-10 0-17.5 7.5T75 96v113q0 10 7.5 17.5T100 234z"/></svg>