<svg viewBox="0 0 300 368" xmlns="http://www.w3.org/2000/svg"><path d="M213 130v-9q0-10-7.5-17T187 97V71h44q8 0 13.5-5t5.5-13q0-8-5.5-13.5T231 34h-75q-18 0-31 13t-13 31v18q-10 0-17 7.5T88 122v8q-29 15-46 43t-17 61v19q0 22 11 40.5T65.5 323Q84 334 106 334h88q22 0 40.5-11t29.5-29.5q11-18.5 11-40.5v-19q0-33-17-61t-45-43zm25 123q-1 18-13.5 30.5T194 296h-88q-18 0-31-12.5T62 253v-19q0-25 14-45.5t37-29.5h74q23 9 37 29.5t13 45.5l1 19zm-25-7q0 11-7.5 18t-18.5 7h-74q-11 0-18-7t-7-17.5q0-10.5 7-17.5t18-7h75q10-1 17.5 6.5T212 247l1-1z"/></svg>