<svg viewBox="0 0 300.0012 368" xmlns="http://www.w3.org/2000/svg"><path d="M116 324q-2 5-6.5 7.5T100 334q-5 0-9-2-43-24-67-63T0 184q0-41 20-75.5T74.5 54Q109 34 150 34q11 0 21 2 8 1 12.5 7t3.5 13.5q-1 7.5-7 12.5t-14 3.5q-8-1.5-16-1.5-31 0-56.5 15.5t-40.5 41Q38 153 38 184q0 36 18.5 66t52.5 49q7 4 9 11.5t-2 13.5zm161-177q-7 1-12 7t-3.5 14q1.5 8 .5 16 0 17-8 31.5T231.5 238q-14.5 8-31.5 8-24 0-42-16.5T138 189q-1-8-7-13t-13.5-4.5q-7.5.5-12.5 6.5t-5 14q2 25 16 46t36 33.5q22 12.5 48.5 12.5t49.5-13.5q23-13.5 36.5-36.5t13.5-50q0-11-2-21-1-8-7-12.5t-14-3.5zm-114 6v12q0 3 1.5 5t4.5 1h12q22 0 38-15l72-72q8-8 9-19.5T293.5 44Q286 35 273 34t-22 8l-72 73q-16 16-16 38z"/></svg>