<svg viewBox="0 0 300 368" xmlns="http://www.w3.org/2000/svg"><path d="M277 240h4q7 0 12-4t6.5-10.5Q301 219 297 212t-11-9l-12-3q1-8 1-16t-1-16l12-3q7-2 11-9t2-14.5q-2-7.5-8.5-11.5t-13.5-2l-13 4q-6-12-13-22l13-14h5q13 0 22-9t9-22q0-13-9-22t-22-9q-13 0-22 9t-9 22v5l-14 13q-10-7-22-13l4-13q2-7-2-13.5T192.5 35q-7.5-2-14.5 2t-9 11l-3 12q-8-1-16-1t-16 1l-3-12q-2-7-9-11t-14.5-2Q100 37 96 43.5T94 57l4 13q-12 6-22 13L62 70v-5q0-13-9-22t-22-9q-13 0-22 9T0 65q0 13 9 22.5T31 97l5-1 13 14q-7 10-13 22l-13-4q-7-2-13.5 2T1 141.5Q-1 149 3 156t11 9l12 3q-1 8-1 16t1 16l-12 3q-7 2-11 9T.5 225.5Q2 232 7 236t12 4h4l14-4q5 12 12 22l-13 14h-5q-13 0-22 9t-9 22q0 13 9 22t22 9q13 0 22-9t9-22v-5l14-13q10 7 22 13l-4 13q-2 7 2 13.5t12 8.5l5 1q6 0 11-4t7-10l3-12q8 1 16 1t16-1l3 12q2 6 7 10t11 4l5-1q8-2 12-8.5t2-13.5l-4-13q12-6 22-13l14 13-1 5q0 13 9.5 22t22.5 9q13 0 22-9t9-22q0-13-9-22t-22-9h-5l-13-14q7-10 13-22l13 4zm-127 31q-24 1-44-11t-31.5-32q-11.5-20-12-44T74 140q12-20 32-32t44-11.5q24 .5 44 12t32 31.5q12 20 11.5 44t-12 44Q214 248 194 260t-44 11zm19-43q0 8-5.5 13.5T150 247q-8 0-13.5-5.5T131 228q0-8 5.5-13.5T150 209q8 0 13.5 5.5T169 228zm25-25q-8 0-13.5-5.5T175 184q0-8 5.5-13.5T194 165q8 0 13.5 5.5T213 184q0 8-5.5 13.5T194 203zm-25-69q0 8-5.5 13.5T150 153q-8 0-13.5-5.5T131 134q0-8 5.5-13.5T150 115q8 0 13.5 5.5T169 134zm-44 50q0 8-5.5 13.5T106 203q-8 0-13.5-5.5T87 184q0-8 5.5-13.5T106 165q8 0 13.5 5.5T125 184z"/></svg>