<svg viewBox="0 0 300 368" xmlns="http://www.w3.org/2000/svg"><path d="M138 65q0-13 9-22t22-9q13 0 22 9t9 22q0 13-9 22.5t-22 9q-13-.5-22-9.5t-9-22zm114 121l-33-16-29-46q-6-7-14.5-11t-18.5-4q-24 0-46 11l-31 16q-13 6-16 20l-8 29q-2 8 1.5 14.5t11 8.5q7.5 2 14.5-1.5t9-11.5l7-27 23-11-8 35q-4 14 2 27.5t19 20.5l49 28q3 2 3 6v41q0 8 5.5 13.5T206 334q8 0 13.5-5.5T225 315v-41q0-12-6-22.5T203 236l-34-20 10-39 11 17q3 4 8 7l37 19q4 2 9 2t9.5-3q4.5-3 6.5-8 4-7 1.5-14.5T252 186zm-129 68q-7-1-13.5 3.5T101 269v3l-18 35q-3 7-.5 14.5T92 332q4 2 8.5 2t9-3q4.5-3 7.5-7l19-38q1-2 1-5l1-5q2-7-2.5-13.5T123 254z"/></svg>