<svg viewBox="0 0 300 368" xmlns="http://www.w3.org/2000/svg"><path d="M202 314q-7 10-17.5 15t-22.5 5h-24q-21 0-35.5-15T88 283v-2q0-18-3-29-3-12-12-20-21-21-30-49-2-7 1.5-14t11-9q7.5-2 14 1.5T79 172q6 19 19.5 32t20.5 30h12q8 0 13.5 5.5T150 253q0 8-5.5 13t-13.5 5h-6v12q0 6 4 9.5t9 3.5h24q7 0 11-5.5t11.5-6.5q7.5-1 14 3.5T206 300q1 8-4 14zm93 14q-6 6-13.5 6t-13.5-6L6 66q-6-6-6-13.5t5.5-13Q11 34 18.5 34T32 39l34 34q13-16 31.5-26T137 35q24-3 46.5 4T224 62.5q18 16.5 28 39t10 47q0 24.5-9.5 46.5T225 233l69 69q6 5 6 13t-6 13h1zM92 99l107 107q13-11 19.5-26t6.5-31.5q0-16.5-7-32t-19-26Q187 80 172 75t-30-3q-15 2-28 9T92 99z"/></svg>