<svg viewBox="0 0 300 368" xmlns="http://www.w3.org/2000/svg"><path d="M293 125l-16-11 10-45q2-10-5-17t-17-5l-45 10-11-16q-6-7-16-7t-15 9l-30 46-19-33q-5-8-13.5-9.5T101 51L83 65 69 52q-4-4-9.5-5T49 48q-5 2-8.5 7T37 65v19H19Q8 84 2.5 93T2 111l35 68q1 3 0 4l-22 35q-5 8-1 17t13 11l28 6-50 50q-5 5-5 13t5.5 13.5Q11 334 19 334t13-6l50-49 6 28q2 9 11 13t17-1l34-22q2-1 4 0l69 35q4 2 9 2t9-3q9-5 9-16v-19h19q5 1 10-2.5t7-8.5q2-5 1-10.5t-5-10.5l-13-13 14-18q6-7 4-15.5t-9-12.5l-33-18 47-31q8-6 8-15.5t-8-15.5h1zm-82 40q-6 5-8.5 11t-2.5 13q1 15 14 24l26 14-11 14q-3 4-4 9t1 10q-6 1-9.5 6t-3.5 12v7l-43-22q-8-4-17-4-12 0-22 6l-12 8-6-26 44-44q5-5 5-13t-5-13.5q-5-5.5-13-5.5t-14 6l-43 44-26-6 8-12q6-9 6-19.5T71 163l-22-42h7q7 0 12-3.5t6-9.5q5 2 10 1t9-4l14-12 17 27q3 6 9.5 10t13.5 4q7 0 13-2.5t11-8.5l24-37 2 3q4 4 9 6t11 1l27-6-6 27q-1 6 1 11t6 8l4 3-38 26z"/></svg>