<svg viewBox="0 0 300 368" xmlns="http://www.w3.org/2000/svg"><path d="M169 134v100h25q8 0 13 5.5t5.5 13.5q.5 8-5 13.5T194 272h-88q-8-1-13.5-6t-5-13q.5-8 5.5-13.5t13-5.5h25V134h-25q-8 0-13.5-5.5t-5-13.5q.5-8 5.5-13t13-5h88q8-1 13 4.5t5.5 13.5q.5 8-5 13.5T194 134h-25zm131-31v162q0 19-9.5 34.5t-25 25Q250 334 231 334H69q-19 0-34.5-9.5t-25-25Q0 284 0 265V103q0-19 9.5-34.5t25-25Q50 34 69 34h162q19 0 34.5 9.5t25 25Q300 84 300 103zm-37 0q0-13-9.5-22.5T231 71H69q-13 0-22 9.5T38 103v162q0 13 9 22t22 9h162q13 0 22.5-9t9.5-22V103z"/></svg>