<svg viewBox="0 0 300 368" xmlns="http://www.w3.org/2000/svg"><path d="M1 130q-2-8 0-17 2-17 13-31t27.5-19.5Q58 57 75 60q10-12 24.5-19t31-7q16.5 0 31 6.5T187 59l1 1q5-1 11-1 15 0 28.5 6.5T250 84q17-2 31.5 8t17.5 27q2 8-2.5 14.5t-12 8q-7.5 1.5-14-3T262 126q0-3-3-4t-4 0q-10 2-19.5-1.5T221 108q-4-5-10-8t-13-4q-10 4-21 1t-18-12q-5-7-12.5-10.5t-16-3q-8.5.5-16 4.5t-13 11Q96 94 87 97t-19 0q-7-2-13.5.5t-11 8Q39 111 38 118q-1 4 0 7 1 8-3.5 14T22 146q-8 1-14-3.5T1 130zm289 176q-9 10-22.5 13.5T241 319q-16 13-36 14.5t-38-8.5q-16 8-34 8.5T99 326q-4-1-8 1-16 9-34.5 7t-33-14Q9 308 3 290.5T2 256q5-17 16.5-28.5t27.5-16q16-4.5 32-.5l5 2q2 1 4 0 20-17 45-16.5t44 17.5q7-3 14-4 18-3 34 3.5t26 20.5q17-2 31.5 8t17.5 27q2 10-.5 19.5T290 306zm-28-30q0-3-3-4t-4 0q-10 2-19.5-1.5T221 258q-4-6-10.5-9t-13.5-2q-4 1-9 2-9 3-19 1.5t-18-9q-8-7.5-19.5-7.5t-20 7q-8.5 7-19 9T72 248l-4-1q-8-2-16 2-10 5-14 15-2 8 .5 15t8 12q5.5 5 13 5.5T74 294q9-5 20-5.5t20.5 4q9.5 4.5 19 4T151 291q8-5 17.5-5t17 5.5q7.5 5.5 16.5 5t15.5-7.5q6.5-7 16.5-8.5t19 2.5q5 2 7.5-1t1.5-6zm-6-126q-16-5-32-3-4 1-7-1-19-21-47-24t-51 14q-1 1-3 0-22-5-42.5 4T44 170q-4 7-1.5 14t9.5 10.5q7 3.5 14.5 1t11-10Q81 178 89 174t17-1.5q9 2.5 18 .5t17-7q11-8 25-6.5t24 11.5q8 8 18.5 11.5T230 184q7-1 14 1.5t12 8.5q5 6 6 13.5t7.5 12q6.5 4.5 14 3t12-8Q300 208 299 201q-3-18-14.5-31.5T256 150z"/></svg>