<svg viewBox="0 0 300 368" xmlns="http://www.w3.org/2000/svg"><path d="M231 34H69q-19 0-34.5 9.5t-25 25Q0 84 0 103v162q0 19 9.5 34.5t25 25Q50 334 69 334h162q19 0 34.5-9.5t25-25Q300 284 300 265V103q0-19-9.5-34.5t-25-25Q250 34 231 34zm32 231q0 13-9.5 22t-22.5 9H69q-13 0-22-9t-9-22V103q0-13 9-22t22-9h162q13-1 22.5 8.5T263 103v162zm-38-150v81q0 21-10 38t-27.5 27Q170 271 150 271t-37.5-10Q95 251 85 234t-10-38v-81q0-8 5.5-13.5T94 96q8 0 13.5 5.5T113 115v81q0 16 10.5 27t26.5 11q16 0 26.5-11t10.5-27v-81q1-8 6-13.5t13-5.5q8 0 13.5 5.5T225 115z"/></svg>