<svg viewBox="0 0 300 368" xmlns="http://www.w3.org/2000/svg"><path d="M224 62q-18-16-40.5-23t-47-4q-24.5 3-46 16.5t-35 35Q42 108 38 133q-3 28 6 54t29 45q9 8 12 20 3 11 3 29v2q0 21 14.5 36t35.5 15h24q21 0 35.5-15t14.5-36v-6q0-17 2.5-27t9.5-16q18-16 28-38.5t10-47q0-24.5-10-47T224 62zm-25 144q-11 10-17 25-5 12-6 28h-52q-2-16-7-29-6-15-18-26-13-12-19.5-29.5T76 138q3-26 21.5-44.5T141 72h9q28 0 49 18 13 11 19.5 26.5t6.5 32q0 16.5-6.5 31.5T199 206zm-12-79q2 12-3 23t-16 17q-5 3-5 5 0 5-4 8.5t-9 3.5q-5 0-8.5-3.5T138 172q0-11 7-19 4-4 11-8 3-2 5-5.5t1.5-7.5q-.5-4-3.5-7t-6-3q-6-1-10.5 2.5t-4.5 9q0 5.5-4 9.5t-9 4q-5 0-8.5-4t-3.5-9q0-17 13-28.5t31-8.5q11 2 19.5 10.5T187 127zm-24 82q0 5-4 8.5t-9 3.5q-5 0-8.5-3.5T138 209q0-5 3.5-8.5t8.5-4q5-.5 9 3.5t4 9z"/></svg>