<svg viewBox="0 0 300 368" xmlns="http://www.w3.org/2000/svg"><path d="M287 109q13-13 13-31t-13-31q-13-13-31-13t-31 13l-18 18q-8 7-22.5 6.5T157 64q-13-7-27-4t-22.5 14.5Q99 86 100 100.5t11 24.5l14 14-98 100q-10 11-13 25t2 28L5 302q-5 5-5 13t5.5 13.5Q11 334 19 334t13-5l9-9q14 7 30 4t27-14l98-100 13 13q10 10 24.5 11t26-7.5Q271 218 274 204t-4-27q-7-13-7.5-27.5T269 127l18-18zM71 284q-3 3-8.5 3t-9-3.5q-3.5-3.5-3.5-9t4-8.5l97-101 18 18-98 101zM261 83l-18 18q-18 17-18 45 0 26 12 50-1 1-2 0l-97-97q-1-1 1-2 23 12 49 12 28 0 45-18l18-18q2-1 5-1t4.5 1.5Q262 75 262 78t-1 5z"/></svg>