<svg viewBox="0 0 300 368" xmlns="http://www.w3.org/2000/svg"><path d="M300 96q0-12-8-22.5T271 60q-5-12-16-19t-24-7H69q-13 0-24 7T29 60Q17 63 9 73T.5 95.5Q0 108 7 118t19 14l18 144q3 25 22 41.5t43 16.5h82q24 0 43-16.5t22-41.5l18-144q11-4 18.5-13.5T300 96zm-72 100h-43q-4-17-13.5-27T150 159q-12 0-21.5 10T115 197H72l-8-63h172l-8 62zM69 71h162q3 0 5 2t2 5v18H63V78q-1-3 1-4.5t5-2.5zm122 225h-82q-10 0-18-7t-10-17l-4-38h38q4 18 13.5 27.5T150 271q12 0 21.5-9.5T185 234h38l-4 38q-2 10-10 17t-18 7z"/></svg>