<svg viewBox="0 0 300 368" xmlns="http://www.w3.org/2000/svg"><path d="M222 153q-10-9-10-23V71h7q8 0 13.5-5t5.5-13q0-8-5.5-13.5T219 34H81q-8 0-13 5.5T62.5 53q-.5 8 5 13T81 71h7v59q0 14-10 23-33 30-52 58-26 37-26 67 0 16 7.5 29t21 20q13.5 7 28.5 7h186q15 0 28.5-7t21-20q7.5-13 7.5-29 0-30-26-67-19-28-52-58zm38 135q-2 4-7 6.5t-10 2.5H57q-5 0-10-2.5t-7-6.5q-2-4-3-10 1-13 11-31h133q8 0 13.5-5.5T200 228q0-8-5.5-13.5T181 209H75q12-14 28-28 11-10 16.5-23.5T125 130V71h50v59q0 14 6 27.5t16 23.5q31 28 48.5 53.5T263 278q0 6-3 10z"/></svg>