<svg viewBox="0 0 300 368" xmlns="http://www.w3.org/2000/svg"><path d="M244 34H56q-23 0-39.5 16.5T0 90v138q0 23 16.5 39.5T56 284h31l43 36q8 8 20 8t20-8l44-36h30q23 0 39.5-16.5T300 228V90q0-23-16.5-39.5T244 34zm19 194q0 8-5.5 13.5T244 247h-37q-7 0-12 4l-45 37-44-37q-5-4-12-4H56q-8 0-13-5.5T38 228V90q0-8 5-13.5T56 71h188q8 0 13.5 5.5T263 90v138zm-63-39q0 13-9.5 23T167 222h-4q0 5-4 8.5t-9 3.5q-5 0-8.5-3.5T138 222h-4q-10 0-18.5-5T102 203q-3-5-1.5-10t6-7.5q4.5-2.5 9.5-1t8 6.5q3 5 10 5h33q3 0 5.5-2t2.5-5q0-3-2-5.5t-5-2.5l-41-7q-12-2-19.5-11t-7.5-22q0-13 9.5-22.5T133 109h4q0-5 4-9t9-4q5 0 8.5 4t3.5 9h4q10 0 18.5 5t13.5 14q3 4 1.5 9t-6 7.5Q189 147 184 146t-8-6.5q-3-5.5-10-5.5h-33q-3 0-5.5 2.5T125 142q0 3 2 5t5 3l41 6q12 2 19.5 11.5T200 189z"/></svg>