<svg viewBox="0 0 300 368" xmlns="http://www.w3.org/2000/svg"><path d="M275 153q0 32-15.5 60T217 258q-11 7-17 25-9 24-30 38-19 13-44 13t-45-15q-16-12-24-32-7-16-7-34 0-8 5.5-13.5T69 234q8 0 13.5 5.5T87 253q0 10 4.5 20t11.5 16q10 7 23 7.5t23.5-6.5q10.5-7 14.5-20 11-30 33-44 19-11 29.5-31t10.5-42q0-19-8-36t-23.5-29Q190 76 171 72.5T133 75q-23 6-38.5 24.5T76 142l-1 10q0 7-5 13t-13 6.5q-8 .5-13.5-4.5t-6-12.5Q37 147 38 137q6-36 29-62.5T123 39q28-8 55.5-3t50 22Q251 75 263 100t12 53zm-119-19q8 0 13.5 5.5T175 153q0 8 5.5 13t13.5 5q8 0 13-5t6-13q0-24-16.5-40.5t-40-16.5q-23.5 0-40 16.5T100 153v19q0 10 7 17.5t18 6.5v2q-8 2-11 9t-.5 13.5q2.5 6.5 7 10T131 234q3 0 7-1 11-4 18-14t7-22.5q0-12.5-7-22T138 161v-8q-1-8 4.5-13.5T156 134z"/></svg>