<svg viewBox="0 0 300 368" xmlns="http://www.w3.org/2000/svg"><path d="M299 176l-10-82q-3-26-22.5-43T221 34H79q-26 0-45.5 17T11 94L1 176q-2 13 2 26t12.5 23q8.5 10 21 16t26.5 6h68v49H94q-8 0-13.5 5.5T75 315q0 8 5.5 13.5T94 334h112q8 0 13.5-5.5T225 315q0-8-5.5-13t-13.5-5h-37v-51h69q13 0 25.5-5.5t21-15.5q8.5-10 12.5-23t2-26zm-47-77l3 22h-46l-2-50h14q12 0 20.5 8T252 99zM126 209l1-50h46l1 50h-48zm3-88l2-50h38l2 50h-42zM79 71h14l-2 50H45l3-22q2-12 10.5-20T79 71zM44 200q-8-8-6-19l2-22h50l-2 50H63q-12 0-19-9zm212 0q-7 9-19 9h-25l-2-50h50l2 22q2 11-6 19z"/></svg>