<svg viewBox="0 0 300 368" xmlns="http://www.w3.org/2000/svg"><path d="M297 227q-7 8-22 17t-27 13h-2q16 8 24 14 5 5 5 11.5t-6 10.5q-8 5-22 9.5t-28 5.5q3 4 4 7 4 6 1 11.5t-10 6.5q-15 2-30 1-20-2-34-7-14 5-34 7-15 1-30-1-6-1-9-6.5t0-11.5l5-7q-14-1-28.5-5.5T31 293q-6-4-6-10.5t5-11.5q8-6 24-14h-2q-12-4-27-13T3 227q-4-5-2.5-12T9 205q9-3 28-5-24-4-31-23-9-22-4-56 1-6 6-8t9 0q10 6 19 14v-1q-17-27-7-47 6-12 16-24.5T62.5 37q7.5-5 15-1.5T86 47q2 18 0 38-3 27-13 48-6 38 3 70 7 24 23 43 11 13 24.5 22t26.5 13q13-4 26.5-13t24.5-22q16-19 23-43 9-32 3-70-10-21-13-48-2-20 0-38 1-8 8.5-11.5T238 37q8 5 17.5 17.5T271 79q10 20-7 47v1q9-8 19-14 5-2 9.5 0t5.5 8q5 34-4 56-7 19-31 23 19 2 28 5 7 3 8.5 10t-2.5 12zm-165-99l6-5v80q-1 8 4.5 13.5T156 222q8 0 13.5-5.5T175 203V100q0-9-4.5-16T158 73.5q-8-3.5-16.5-1.5T127 80l-22 22q-5 6-5 13.5t5.5 13Q111 134 119 134t13-6z"/></svg>