<svg viewBox="0 0 300 368" xmlns="http://www.w3.org/2000/svg"><path d="M188 165q0 8-5.5 13.5T169 184h-19v19q0 8-5.5 13t-13.5 5q-8 0-13-5t-5-13v-19H94q-8 0-13.5-5.5T75 165q0-8 5.5-13.5T94 146h19v-18q0-8 5-13.5t13-5.5q8 0 13.5 5.5T150 128v18h19q8 0 13.5 5.5T188 165zm112 26q0 11-7.5 20.5T272 221l-2 15q-3 23-19 39.5T212 296q-2 16-14.5 27T169 334H81q-18 0-30.5-13T38 290v-14q0-10-8-20-20-26-27-58t2-63q10-38 40-65.5T114 36q39-6 75 8t59 45q13 16 31 49 21 39 21 53zm-40-7q-6-15-19-38t-22-34q-15-19-36.5-29.5T138 72q-8 0-17 1-29 5-50.5 24.5t-29 47Q34 172 42 199q5 18 18 34 15 20 15 43v14q0 3 2 5t4 2h88q2 0 4-2t2-5v-12q0-8 5.5-13.5T194 259h7q12 0 21-8t10-19l4-32q1-7 6.5-11.5T255 184h5z"/></svg>