<svg viewBox="0 0 300 368" xmlns="http://www.w3.org/2000/svg"><path d="M138 234q0 14-9 24.5t-22.5 13Q93 274 81.5 267T65 247.5q-5-12.5-.5-25.5T81 202v-87q0-8 5.5-13.5t13.5-5q8 .5 13.5 5.5t5.5 13v87q8 5 13 13.5t6 18.5zm37-66q21 22 24.5 51t-9 56Q178 302 154 318.5T100 335q-30 0-54-16.5T9.5 275q-12.5-27-9-56T25 168v-59q1-28 17-47 14-18 36-24t44 0q22 6 37 24 15 19 16 47v59zm-12 66q0-13-5.5-24.5T143 189q-6-5-6-13v-67q1-15-10-26t-27-11q-16 0-27 11t-11 26v67q1 8-5 13-16 15-19 36t7.5 39.5q10.5 18.5 30 27t40.5 3q21-5.5 34-22.5t13-38zm100-69V99h20q4-1 7-3t4.5-5.5q1.5-3.5 1-7T292 77l-39-39q-4-4-9-4t-9 4l-40 39q-2 3-3 6.5t.5 7Q194 94 197 96t7 3h21v66q0 8 5.5 13.5T244 184q8 0 13.5-5.5T263 165z"/></svg>