<svg viewBox="0 0 300 368" xmlns="http://www.w3.org/2000/svg"><path d="M295 302l-7-7V78q0-18-13-31t-31-13h-13q-18 0-30.5 13T188 78v6h-19q-18 0-31 13t-13 31v4L32 39q-5-5-13-5T5.5 39.5Q0 45 0 53t5 13l263 263q5 5 13 5t13.5-5.5Q300 323 300 315t-5-13zM231 71h13q2 1 4 2.5t2 4.5v179l-25-25V78q0-3 2-5t4-2zm-68 57q0-3 1.5-5t4.5-2h12q3 0 5 2t2 5v67l-25-25v-42zm31 168h-31v-31q0-8-5.5-13.5T144 246q-8 0-13.5 5.5T125 265v31h-25v-93q0-8-5.5-13.5T81 184q-8 0-13.5 5.5T62 203v7l-6-1H44q-18 0-31 13T0 253v37q0 18 13 31t31 13h150q8 0 13-5.5t5.5-13.5q.5-8-5-13.5T194 296zm-156-6v-37q0-3 1.5-5t4.5-2h12q3 0 4.5 2t1.5 5v43H44q-3 0-4.5-1.5T38 290z"/></svg>