<svg viewBox="0 0 300 368" xmlns="http://www.w3.org/2000/svg"><path d="M150 34q-41 0-75.5 20T20 108.5Q0 143 0 184t20 75.5Q40 294 74.5 314t75.5 20q41 0 75.5-20t54.5-54.5q20-34.5 20-75.5t-20-75.5Q260 74 225.5 54T150 34zm0 262q-31 0-56.5-15T53 240.5Q38 215 37.5 184t15-56.5q15.5-25.5 41-41T150 71q31 0 56.5 15.5t41 41q15.5 25.5 15 56.5T247 240.5q-15 25.5-40.5 41T150 297v-1zm75-154v95q0 8-5.5 13.5T206 256q-8 0-13-5.5t-5-13.5v-61l-22 36q-2 5-6.5 7.5T150 222q-5 0-9.5-3t-6.5-7l-21-37v62q0 8-5.5 13.5T94 256q-8 0-13.5-5.5T75 237v-93q0-12 6-20.5T97 113q10-2 18.5 2.5T129 129l21 36 21-36q5-9 14-13.5t18.5-2.5q9.5 2 15.5 10t6 19z"/></svg>