<svg viewBox="0 0 300 368" xmlns="http://www.w3.org/2000/svg"><path d="M275 259l-12-120v-24q0-37-23-57-18-15-48-21-17-3-42-3t-42 3q-30 6-48 21-23 20-22 57v24L25 259q-1 14 3.5 28T43 311.5Q53 322 66 328t28 6h112q15 0 28-6t23-16.5q10-10.5 14.5-24.5t3.5-28zM100 78q0 8 5.5 13t13.5 5q8 0 13.5-5t5.5-13v-6h25v6q0 8 5 13t13 5.5q8 .5 13.5-5T200 78q14 5 19.5 14t5.5 23v6H75v-6q0-14 5.5-23T100 78zm129 208q-9 11-23 11H94q-14 0-23.5-10.5T63 263l10-104h154l10 103q2 14-8 24zm-54-33q0 8-5.5 13t-13.5 5q-8 0-13.5-5t-5.5-13q0-8 5.5-13.5T156 234q8 0 13.5 5.5T175 253zm38-50q-1 8-6 13.5t-13 5.5q-8 0-13.5-5.5T175 203q0-8 5.5-13.5T194 184q8 0 13 5.5t6 13.5z"/></svg>