<svg viewBox="0 0 300 368" xmlns="http://www.w3.org/2000/svg"><path d="M231 34H69q-19 0-34.5 9.5t-25 25Q0 84 0 103v62q0 26 12.5 47.5t34 34Q68 259 94 259h6v25q0 21 14.5 35.5T150 334q21 0 35.5-14.5T200 284v-25h6q26 0 47.5-12.5t34-34Q300 191 300 165v-62q0-19-9.5-34.5t-25-25Q250 34 231 34zM69 71h6v7q0 8 5.5 13.5T94 97q8 0 13-5.5t6-13.5v-7h25v32q0 8 5 13.5t13 5q8-.5 13.5-5.5t5.5-13V71h25v57q0 8 5.5 13.5t13.5 5q8-.5 13.5-5.5t5.5-13V72q10 2 17 11t8 20v56H38v-56q0-13 9-22.5T69 72v-1zm137 150h-25q-8 1-13.5 6t-5.5 13v44q1 5-3 8.5t-9 3.5q-5 0-9-3.5t-4-8.5v-44q1-8-4.5-13t-13.5-6H94q-14 0-26.5-6.5T47 196h206q-8 12-20.5 18.5T206 222v-1z"/></svg>