<svg viewBox="0 0 300 368" xmlns="http://www.w3.org/2000/svg"><path d="M300 78v12q0 8-5.5 13.5T281 109h-18v156q0 19-9.5 34.5t-25.5 25q-16 9.5-34 9.5-8 0-13.5-5.5T175 315q0-8 5.5-13t13.5-5q13-1 22-10t9-22V109H119q-8 0-13.5-5.5T100 90v-6q0-5-3.5-9t-9-3.5q-5.5.5-9 4T75 84v31q0 8-5.5 13.5T56 134q-8 0-13.5-5.5T37 115V84q1-21 15.5-35.5T87 34h169q18 0 31 13t13 31zM150 196v100q0 16-11 27t-27 11H38q-16 0-27-11T0 296V196q0-15 11-26t27-11h75q15 0 26 11t11 27v-1zm-87 82q-1-8-6-13.5T44 259q-8 0-13.5 5.5T25 278q0 8 5.5 13t13.5 5q8 0 13-5t5-13h1zm62 0q0-8-5.5-13.5T106 259q-8 0-13.5 5.5t-5 13.5q.5 8 5.5 13t13 5q8 0 13.5-5t5.5-13zm0-63q0-8-5.5-13.5T106 196H44q-8 0-13.5 5.5T25 215q0 8 5.5 13.5T44 234h62q8 0 13.5-5.5T125 215z"/></svg>