<svg viewBox="0 0 300 368" xmlns="http://www.w3.org/2000/svg"><path d="M88 134q-21 0-35.5-14.5T38 84q0-21 14.5-35.5t35-14.5Q108 34 123 48.5T138 84q0 21-15 35.5T87 134h1zm175-50q0-21-15-35.5T212.5 34Q192 34 177 48.5T162.5 84q.5 21 15 35.5t35 14.5q20.5 0 35.5-14.5T263 84zm0 100q0-21-15-35.5T212.5 134q-20.5 0-35.5 14.5T162.5 184q.5 21 15 35.5t35 14.5q20.5 0 35.5-14.5t15-35.5zM38 284q0 21 14.5 35.5t35 14.5q20.5 0 35.5-14.5t15-35.5q0-21-15-35.5T87.5 234q-20.5 0-35 14.5T38 284zm50-150q20 0 35 14.5t15 35.5q0 21-15 35.5T87.5 234q-20.5 0-35-14.5T38 184q0-21 14.5-35.5T87 134h1zm-19 50q0 8 5.5 13.5t13 5.5q7.5 0 13-5.5T106 184q0-8-5.5-13.5t-13-5.5q-7.5 0-13 5.5T69 184zm144 50q20 0 35 14.5t15 35.5q0 21-15 35.5T212.5 334q-20.5 0-35.5-14.5T162.5 284q.5-21 15-35.5T213 234zm-19 50q0 8 5.5 13.5t13 5.5q7.5 0 13-5.5T231 284q0-8-5.5-13.5t-13-5.5q-7.5 0-13 5.5T194 284z"/></svg>