<svg viewBox="0 0 300 368" xmlns="http://www.w3.org/2000/svg"><path d="M194 196h-56v-56q0-18-13-31T94 96H56q-23 0-39.5 16.5T0 153v125q0 23 16.5 39.5T56 334h125q24 0 40.5-16.5T238 278v-38q0-18-13-31t-31-13zM38 153q0-8 5-13.5t13-5.5h38q2 0 4 2t2 4v56H84q4-11 4-18.5t-5.5-13Q77 159 69 159t-13.5 5.5q-5.5 5.5-5.5 13t4 19.5H38v-44zm62 143H56q-8 0-13.5-5T37 278v-44h63v16q-12-3-19.5-3T68 252q-5 5-5 13t5 13.5q5 5.5 12.5 5.5t19.5-4v17-1zm100-18q0 8-5.5 13.5T181 297h-43v-63h16q-4 12-4 19.5t5.5 12.5q5.5 5 13.5 5t13.5-5q5.5-5 5.5-12.5t-4-19.5h10q2 0 4 2t2 4v38zM300 84v44q0 8-5.5 13.5T281 147h-22q4 11 3.5 18.5t-5.5 13q-5 5.5-13 5.5t-13.5-5.5q-5.5-5.5-5.5-13t4-19.5h-23q-8 1-13-4.5t-6-13.5v-23q12 4 19.5 4t13-5.5Q225 98 225 90t-5.5-13.5q-5.5-5.5-13-5.5T187 75V53q1-8 6-13.5t13-5.5h44q21 0 35.5 14.5T300 84z"/></svg>