<svg viewBox="0 0 300 368" xmlns="http://www.w3.org/2000/svg"><path d="M275 59q-21-22-61.5-24.5T130 47Q87 62 57.5 91.5T13 164Q-2 207 .5 247.5T25 309q15 13 34.5 19.5T99 334q40 0 77-15t66.5-43.5Q272 247 287 204t12.5-83.5Q297 80 275 59zm-59 191q-20 19-45.5 30.5T118 295l-79-79q3-27 14.5-52.5T84 118q20-19 45.5-30.5T182 73l79 79q-3 27-14.5 52.5T216 250zm4-72q-6 6-14 6t-13-6l-5-5-11 11 5 5q6 6 6 14t-5.5 13.5Q177 222 169 222t-14-6l-5-5-11 10 6 6q5 5 5 13t-5.5 13.5Q139 259 131 259t-13-5l-38-38q-5-5-5-13t5.5-13.5Q86 184 94 184t13 5l5 6 11-11-5-5q-6-6-6-14t5.5-13.5Q123 146 131 146t14 6l5 5 11-11-6-5q-5-5-5-13t5.5-13.5Q161 109 169 109t13 5l38 38q5 5 5 13t-5 14v-1z"/></svg>