<svg viewBox="0 0 300 368" xmlns="http://www.w3.org/2000/svg"><path d="M289 180q-10-13-25-18 7-21 11-43 1-10-2-19.5t-10-16q-7-6.5-16-9.5t-19-2q-10 1-21 4l-1-8q0-16-11.5-25.5T167 34q-16 1-29 14-13-12-27.5-13.5T85 40q-11 7-15 19.5T73 87q-25 8-38.5 31T26 166q-15 9-22 26.5T2 227q13 44 45 76 15 15 35 23t41 8h54q21 0 41-8t35-23q32-32 45-76 3-12 1-24.5T289 180zm-56-71q2 0 3.5 1t.5 3q-3 23-11 43l-1 3h-62q-1-8 1-15.5t8-13.5q6-6 24-12t37-9zM94 121q15 1 24 12.5t6 25.5H63q-3-14 6.5-25.5T94 122v-1zm168 96q-10 34-35 59-10 10-23 15.5t-27 5.5h-54q-14 0-27-5.5T73 276q-25-25-35-59-2-8 2.5-14.5T53 196h194q8 0 12.5 6.5T262 217z"/></svg>