<svg viewBox="0 0 300 368" xmlns="http://www.w3.org/2000/svg"><path d="M206 134H100v-10q0-22 15.5-37T153 72q14 0 26.5 7T199 99q4 7 11.5 9t14-2q6.5-4 9-11.5T232 81q-12-22-32.5-34T155 34q-24-1-45.5 11t-34 33.5Q63 100 63 124v18q-18 8-28 24.5T25 203v62q0 19 9.5 34.5t25 25Q75 334 94 334h112q19 0 34.5-9.5t25-25Q275 284 275 265v-62q0-19-9.5-34.5t-25-25Q225 134 206 134zm31 131q0 13-9 22.5t-22 9.5H94q-13 0-22-9.5T63 265v-62q0-13 9-22t22-9h112q13 0 22 9t9 22v62zm-93-56h12q8 0 13.5 5.5T175 228q0 8-5.5 13.5T156 247h-12q-8 0-13.5-5.5T125 228q0-8 5.5-13.5T144 209z"/></svg>