<svg viewBox="0 0 300.0034 368" xmlns="http://www.w3.org/2000/svg"><path d="M274 212q-33-6-61 5-25 9-44 30v-26q12-18 12-34v-2q17 9 44 4 7-2 11-8t2-13q-7-23-21-34 14-11 21-33 2-7-2-13.5T225 79q-27-5-44 4v-2q0-21-19-42-5-5-12-5t-12 5q-19 21-19 42v2q-17-9-44-4-7 2-11 8.5T62 101q7 22 21 33-14 11-21 33-2 7 2 13.5t11 7.5q27 6 44-4v3q0 16 12 33v26q-19-21-44-30-28-11-61-5-12 2-19.5 12T0 245q4 39 34 63 25 20 68 25 23 2 48 0 11 1 23 1 61 0 93-25 30-23 34-63 1-12-6.5-22T274 212zM57 278q-15-12-19-31 31-3 55 15 17 12 29 35-43-1-65-19zm93-169q10 0 17.5 7.5T175 134q0 10-7.5 17.5T150 159q-10 0-17.5-7.5T125 134q0-10 7.5-17.5T150 109zm93 170q-22 18-65 19 11-21 26-33 21-17 48-17h10q-4 20-19 31z"/></svg>