<svg viewBox="0 0 300 368" xmlns="http://www.w3.org/2000/svg"><path d="M288 153l-31-31q-3-3-8-4.5t-10-.5q-5 1-8.5 4.5t-5 8.5q-1.5 5 0 10t4.5 9l17 16h-78V87l16 17q4 3 9 4.5t10 0q5-1.5 8.5-5T217 95q1-5-.5-10t-4.5-8l-31-31q-13-12-31-12t-31 13L88 77q-3 3-4.5 8T83 95q1 5 4.5 8.5t8.5 5q5 1.5 10 0t9-4.5l16-17v78H53l17-16q3-4 4.5-9t0-10q-1.5-5-5-8.5T61 117q-5-1-10 .5t-8 4.5l-30 31Q0 166 0 184t13 31l30 31q3 3 8 4.5t10 .5q5-1 8.5-4.5t5-8.5q1.5-5 0-10t-4.5-9l-17-16h78v78l-16-17q-4-3-9-4.5t-10 0q-5 1.5-8.5 5T83 273q-1 5 .5 10t4.5 8l31 31q13 12 31 12t31-12l31-31q3-3 4.5-8t.5-10q-1-5-4.5-8.5t-8.5-5q-5-1.5-10 0t-9 4.5l-16 17v-78h78l-16 16q-4 4-5.5 9t0 10q1.5 5 5 8.5t8.5 4.5q5 1 10-.5t8-4.5l31-31q12-13 12-31t-12-31z"/></svg>