<svg viewBox="0 0 300 368" xmlns="http://www.w3.org/2000/svg"><path d="M56 121q-18 1-31-12L6 92q-6-5-6-13t5-14q5-6 12.5-6T31 64l20 17q2 3 5 3t5-2l45-43q5-5 13-4.5t13 6q5 5.5 5 13T132 66l-45 43q-13 13-31 13v-1zm244-43q0-8-5.5-13.5T281 59H181q-8 0-13.5 5.5t-5 13.5q.5 8 5.5 13.5t13 5.5h100q8 0 13.5-5.5T300 78zM87 209l45-43q5-5 5-12.5t-5-13q-5-5.5-13-6t-13 4.5l-45 43q-2 2-4.5 2t-4.5-2l-20-20q-5-5-13-5t-13.5 5.5Q0 168 0 175.5T5 189l20 20q13 12 31 12.5T87 209zm213-31q0-8-5.5-13.5T281 159H181q-8 0-13.5 5.5t-5 13.5q.5 8 5.5 13.5t13 4.5h100q8 0 13.5-5t5.5-13zM87 309l45-43q5-5 5-12.5t-5-13q-5-5.5-13-6t-13 4.5l-45 43q-2 2-5 2t-5-3l-20-17q-6-5-13.5-5T5 265q-5 6-5 14t6 13l19 17q13 12 31 12.5T87 309zm213-31q0-8-5.5-13.5T281 259H181q-8 0-13.5 5.5t-5 13.5q.5 8 5.5 13t13 5h100q8 0 13.5-5t5.5-13z"/></svg>