<svg viewBox="0 0 300 368" xmlns="http://www.w3.org/2000/svg"><path d="M262 162l-49-74q-10-13-25-21t-32-8h-41q-22 0-39.5 12T50 103l-24 65q-12 8-19 20.5T0 215v25q0 13 9 22.5t22 9.5h6v6q0 13 9.5 22t22.5 9q13 0 22-9t9-22v-6h100v6q0 13 9 22t22 9q13 0 22-9t9-22v-6h7q13 0 22-9.5t9-22.5v-25q0-18-10.5-32.5T262 162zm1 72H38v-19q0-5 3-10t8-7q7-3 10-10l26-71q4-9 12-14.5t18-5.5h41q8-1 14.5 3t11.5 10l53 79q4 6 11.5 7.5T258 203q4 5 4 12v19h1zm-79-74q4 7 3.5 14t-4.5 13l-17 26q-6 8-16 8-6 0-11.5-3.5t-7-11Q130 199 134 192l6-8h-14q-13 0-21-11-4-5-5-11t1-12q1-3 3-5l18-28q4-6 11.5-7.5t14 2.5q6.5 4 8 12t-2.5 14l-5 8h13q7 0 13.5 4t9.5 10z"/></svg>