<svg viewBox="0 0 300 368" xmlns="http://www.w3.org/2000/svg"><path d="M150 34q-41 0-75.5 20T20 108.5Q0 143 0 184q2 57 33 95 29 35 73 47.5t88 0q44-12.5 73-47.5 31-38 33-95 0-41-20-75.5T225.5 54Q191 34 150 34zm0 262q-31 0-56.5-15T53 240.5Q38 215 37 184q2-43 26-72 21-26 54-35t66 0q33 9 54 35 24 29 26 72-1 31-16 56.5T206.5 281Q181 296 150 297v-1zm75-81q0 8-5.5 13.5T206 234h-19q-3 18-13.5 27.5T150 271q-13 0-23.5-9.5T113 234H94q-8 0-13.5-5.5T75 215q0-8 5.5-13.5T94 196h112q8 0 13.5 5.5T225 215zM75 146q0-10 7.5-17t17.5-7.5q10-.5 17.5 7t7.5 18q0 10.5-7.5 17.5t-17.5 7q-10 0-17.5-7T75 146zm150 0q0 11-7.5 18t-17.5 7q-10 0-17.5-7t-7.5-17.5q0-10.5 7.5-17.5t17.5-7.5q10-.5 17.5 7T225 147v-1z"/></svg>