<svg viewBox="0 0 300.0031 368" xmlns="http://www.w3.org/2000/svg"><path d="M299 222q-8-14-21-26.5T250 175q0-60-10-93-13-48-47-48-29 0-45 31-13 25-20 72l-8-2q-36-6-67 12-4 2-5.5 6.5T47 162q1 4 5 6.5t8 2.5q36-1 60 14-7 17-17 31-14 18-35 28-19 8-32 21-8 9-13 19h-4q-8 0-13.5 5.5T0 303q0 8 5.5 13t13.5 5h5q11 13 45 13 63 0 107-27 6-3 8.5-9.5t.5-13.5v-1q-3-8-11-11t-15 2q-35 22-90 22H59q8-11 24-18 43-21 64-64 19 10 29 16 14 10 22 23 11 15 15 37 1 8 8 10 5 1 9-1t6-6q7-18 9-36.5t-3-34.5l1-1q15 2 39 17 7 4 13 0 4-3 5-7.5t-1-8.5zm-136-61q6-54 17-77 7-12 13-12 1 0 3 2 4 4 7 13 4 13 6 32 4 24 4 59l-3 3.5q-3 3.5-8 6t-13 2.5q-8 0-15-5-10-8-11-24z"/></svg>