<svg viewBox="0 0 300.0012 368" xmlns="http://www.w3.org/2000/svg"><path d="M273 192q27-27 27-89 0-8-5.5-13.5T281 84q-8 0-13 5.5t-5 13.5q0 24-5 41-4 13-10 20t-10 7h-26L163 64q-4-9-12.5-13.5T132 47q-10 1-17 7.5T106 71L87 171H63l17-90q5-4 7-10.5t-1-13Q83 51 76 48t-14 0q-7 3-12 9t-7 13L24 174q-10 3-17 12-5 7-6.5 15t.5 16q4 12 11 23L0 299q-1 8 3.5 14.5T15 321h4q6 0 11.5-4t6.5-11l7-35q10 6 22 10l-3 18q-2 8 2.5 14.5T78 321h3q7 0 12-4t7-11l4-22h117l12 26q2 6 7 8.5t9.5 2.5q4.5 0 8.5-1 7-3 9.5-10.5T267 295l-5-11h7q13 0 22-9t9-22q0-18-7-33.5T273 192zM38 209h42l-7 35q-12-5-21-14t-14-21zm80 0h13q8 0 13.5-5.5T150 190q0-8-5.5-13.5T131 171h-6l14-71 43 98q3 5 7.5 8t10.5 3h19q16 0 28.5 11t14.5 26H111l7-37z"/></svg>