<svg viewBox="0 0 300 368" xmlns="http://www.w3.org/2000/svg"><path d="M150 34q-41 0-75.5 20T20 108.5Q0 143 0 184t20 75.5Q40 294 74.5 314t75.5 20q41 0 75.5-20t54.5-54.5q20-34.5 20-75.5t-20-75.5Q260 74 225.5 54T150 34zm108 118l-36 10q-6-18-19-31t-31-19l10-36q27 8 47.5 28.5T258 152zm-99 77q-3 5-9 5t-9-5l-24-31q-5-6-5-14t5-14l24-31q3-5 9-5t9 5l24 31q5 6 5 14t-5 14l-24 31zM118 76l10 36q-18 6-31 19t-19 31l-36-10q8-27 28.5-47.5T118 76zM42 216l36-10q6 18 19 31t31 19l-10 36q-27-9-47.5-29T42 216zm140 76l-10-36q18-6 31-19t19-31l36 10q-8 27-28.5 47.5T182 292z"/></svg>