<svg viewBox="0 0 300 368" xmlns="http://www.w3.org/2000/svg"><path d="M250 146h-12v-43q-1-8-6-13.5T219 84h-15q-5-13-16-19.5T165 59q-5 1-10-1t-8-7q-7-9-17.5-13.5t-22-3Q96 36 87 42.5T73 59q-13-1-24 6T34 84H19q-8 0-13.5 5.5T0 103v162q0 19 9.5 34.5t25 25Q50 334 69 334h100q23 0 41.5-14t24.5-36h15q21 0 35.5-14.5T300 234v-38q0-20-14.5-35T250 146zm-50 119q0 13-9 22t-22 9H69q-13 0-22-9t-9-22V121h6q8 0 13 5.5t6 13.5v56q0 11 7 18t17.5 7q10.5 0 17.5-7t7-18v-56q0-8 5.5-13.5T131 121h69v144zm63-31q0 5-4 8.5t-9 3.5h-12v-62h12q5 0 8.5 3.5t4.5 8.5v38z"/></svg>