<svg viewBox="0 0 300 368" xmlns="http://www.w3.org/2000/svg"><path d="M300 53v25q0 13-7 23.5T275 117v173q0 18-13 31t-31 13h-12q-8 0-13.5-5.5T200 315q0-8 5.5-13.5T219 296h12q3 0 5-1.5t2-4.5V121h-38v19q0 8-5.5 13.5T181 159q-8 0-13-5.5t-5-13.5v-23q-12-5-18.5-15.5T138 78V53q0-8 5-13.5t13-5.5q8 0 13.5 5.5T175 53v6h25v-6q0-8 5.5-13.5T219 34q8 0 13 5.5t5 13.5v6h26v-6q0-8 5-13.5t13-5.5q8 0 13.5 5.5T300 53zM188 233v45q0 23-16.5 39.5T131 334H56q-23 0-39.5-16.5T0 278v-45q0-14 6-26.5T24 185l32-25q17-14 38-14t38 14l32 25q11 9 17.5 21.5T188 233zm-38 0q0-11-9-19l-32-25q-7-5-15.5-5T79 189l-32 25q-9 8-9 19v45q0 8 5 13t13 5h75q8 0 13.5-5t5.5-13v-45zm-50 1H88q-6 0-9.5 3.5T75 246v13q0 5 3.5 8.5T87 271h13q5 0 8.5-3.5t3.5-8.5v-13q1-5-3-8.5t-9-3.5z"/></svg>