<svg viewBox="0 0 300 368" xmlns="http://www.w3.org/2000/svg"><path d="M180 194zm20-32q0 10-5.5 19T180 194q0 17-12.5 28.5T138 234q-21 0-38-10t-27.5-27.5Q62 179 62 159v-6q1-24 17-40.5T119 96q16 1 28.5 10t19.5 23q14 2 23.5 11t9.5 22zm-62-3q0-10-7.5-17.5t-18-7.5q-10.5 0-17.5 7.5T88 159q0 10 7 17.5t17.5 7.5q10.5 0 18-7.5T138 159zm157 170q-6 5-14 5t-13-5l-58-59q-17 13-37 20t-42 7q-35 0-65.5-18t-48-48Q0 201 0 165.5t17.5-66q17.5-30.5 48-48t66-17.5Q167 34 197 51.5t48 48q18 30.5 18 65.5-1 44-27 79l59 58q5 5 5 13t-5 13v1zm-70-164q0-25-12.5-46.5t-34-34.5q-21.5-13-47-13t-47 13q-21.5 13-34 34.5t-12.5 47q0 25.5 12.5 47t34 34q21.5 12.5 47 12.5t47-12.5q21.5-12.5 34-34T225 165z"/></svg>