<svg viewBox="0 0 300 368" xmlns="http://www.w3.org/2000/svg"><path d="M68 227q5-6 13-6t13 6l13 12q5 6 5 14t-5 13q-5 5-13 5t-14-5l-12-13q-6-5-6-13t6-13zm50 1q5 6 13 6t13.5-5.5Q150 223 150 215t-5-13l-13-13q-5-5-13-5t-13.5 5.5Q100 195 100 203t6 13l12 12zm161-94h-67v6q0 30-4 56h7q11 0 17.5 7.5t5 18Q236 232 228 239t-19 7h-17q-20 44-60 66-33 18-79 22-6 1-13-1-13-3-24-15-8-8-12.5-19T0 277q4-61 38-99 0-30 19-53t48-28l6-1q11 0 19 8.5t8 19.5v2q26-5 56-5h6V55q0-9 6.5-15t14.5-6q8 0 13 4 19 14 23 39 25 4 39 22 5 7 4 15.5t-7 14q-6 5.5-14 5.5zm-105 25q-38 0-73 17-17 8-26 16l-9 10q-25 29-28 77-1 7 4 12t8 5q81-6 108-65l5-12q5-14 8-27 4-19 3-33z"/></svg>