<svg viewBox="0 0 300 368" xmlns="http://www.w3.org/2000/svg"><path d="M150 65q0-13 9-22t22-9q13 0 22 9t9.5 22q.5 13-9 22T181 96q-13 0-22-9t-9-22zm150 213q0 23-16.5 39.5T244 334H19q-9 0-14.5-7T0 312l21-101q1-4 4.5-8t8-5.5Q38 196 43 197t9 4.5q4 3.5 5.5 8t.5 9.5l-16 77h14l11-25q3-8 10-11t14 0q7 3 10 10.5t0 14.5l-4 11h53v-18q0-3-3-5l-40-29q-13-8-18-23t2-30l18-45H81q-5 1-6 5l-2 7q-2 7-9 11t-14.5 2q-7.5-2-11-9T37 148l2-7q4-14 16-23t26-9h75q12 0 22 5.5t16 15.5l23 39q2 3 5 3h12l6-23q2-8 8.5-12t14-2q7.5 2 11.5 8.5t2 13.5l-32 139q8 0 13.5-5.5t5.5-13q0-7.5 5-13t13-5.5q8 0 13.5 5.5T300 278zm-112 0v18h18l20-87h-4q-11 0-21-5.5T185 188l-15-24-25 61 24 17q9 7 14 16.5t5 19.5z"/></svg>