<svg viewBox="0 0 300 368" xmlns="http://www.w3.org/2000/svg"><path d="M231 34H69q-19 0-34.5 9.5t-25 25Q0 84 0 103v162q0 19 9.5 34.5t25 25Q50 334 69 334h162q19 0 34.5-9.5t25-25Q300 284 300 265V103q0-19-9.5-34.5t-25-25Q250 34 231 34zm32 231q0 13-9.5 22t-22.5 9H69q-13 0-22.5-9T37 265V103q1-13 10-22.5T69 71h162q13 0 22 9.5t9 22.5v162h1zm-38-150q0 8-5.5 13.5T206 134h-87q-3 0-4.5 2t-1.5 4v31h56q8 0 13.5 5.5T188 190q0 8-5.5 13.5T169 209h-56v44q0 8-5.5 13T94 271q-8 0-13.5-5T75 253V140q0-18 13-31t31-13h87q8 0 13.5 5.5T225 115z"/></svg>