<svg viewBox="0 0 300 368" xmlns="http://www.w3.org/2000/svg"><path d="M126 334q-28 0-51.5-8.5T34 300q-20-21-28.5-51T2 183q4-32 18-62t35-50l16-16q14-14 32-18.5t36.5 0Q158 41 171 55q39 39 8 92-2 3-3.5 6.5t.5 5q2 1.5 13-3.5 24-11 43-12 27 0 47 20 14 13 18.5 31.5t0 36.5q-4.5 18-18.5 32l-16 16q-20 21-50 35t-62 18q-13 2-25 2zm-5-262q-14 0-23 9L82 97q-17 17-28 41t-15 50q-4 26 2 48.5T61 273q14 14 36.5 20t48.5 2.5q26-3.5 50-15t41-28.5l16-16q10-9 10-23t-10-24q-8-7-18.5-8t-29.5 8q-13 6-24 7-19 2-32-11-11-11-11.5-26t9-31.5Q156 111 155 101t-10.5-19.5Q135 72 121 72z"/></svg>