<svg viewBox="0 0 300 368" xmlns="http://www.w3.org/2000/svg"><path d="M238 203v62q0 19-9.5 34.5t-25.5 25q-16 9.5-34 9.5H69q-19 0-34.5-9.5t-25-25Q0 284 0 265V165q0-18 9.5-34t25-25.5Q50 96 69 96h62q8 0 13.5 5.5T150 115q0 8-5.5 13.5T131 134H69q-13 0-22 9t-9 22v100q0 13 9 22t22 9h100q13 0 22-9t9-22v-62q0-8 5.5-13.5T219 184q8 0 13 5.5t5 13.5h1zm18-169h-62q-8 0-13.5 5.5T175 53q0 8 5.5 13t13.5 5h42L105 202q-5 5-5 13t5.5 13.5Q111 234 119 234t13-6L263 98v42q0 8 5 13.5t13 5.5q8 0 13.5-5.5T300 140V78q0-18-13-31t-31-13z"/></svg>