<svg viewBox="0 0 300 368" xmlns="http://www.w3.org/2000/svg"><path d="M150 34q-41 0-75.5 20T20 108.5Q0 143 0 184t20 75.5Q40 294 74.5 314t75.5 20q41 0 75.5-20t54.5-54.5q20-34.5 20-75.5t-20-75.5Q260 74 225.5 54T150 34zm25 260q-1-10-8-16.5t-17-6.5q-10 0-17 6.5t-8 16.5q-25-6-45-22t-31-39q-11-23-11-49t11-49q11-23 31-39t45-22q1 10 8 16t17 6q10 0 17-6t8-16q25 6 45 22t31 39q11 23 11.5 49t-11 49Q240 256 220 272t-45 22zm63-110q0 8-5.5 13.5T219 203H81q-8 0-13.5-5.5t-5-13.5q.5-8 5.5-13.5t13-5.5h138q8 0 13 5.5t5 13.5h1zM88 128q0-8 5-13.5t13-5.5h88q8 0 13 5.5t5.5 13.5q.5 8-5 13.5T194 147h-88q-8 0-13.5-5.5T87 128h1zm125 112q0 8-5.5 13.5T194 259h-88q-8 0-13.5-5.5t-5-13.5q.5-8 5.5-13.5t13-5.5h88q8 1 13 6t5 13h1z"/></svg>