<svg viewBox="0 0 300 368" xmlns="http://www.w3.org/2000/svg"><path d="M200 184q0-17-8.5-31.5t-23-22.5q-14.5-8-31-8.5t-31 8q-14.5 8.5-23 23T75 184q0 17 8.5 31.5t23 22.5q14.5 8 31 8t31-8q14.5-8 23-22.5T200 184zm-87 0q0-10 7-17.5t17.5-7.5q10.5 0 18 7.5T163 184q0 10-7.5 17.5t-18 7.5q-10.5 0-18-7.5T112 184h1zm168 100h-49q20-19 31.5-45t11.5-55q0-37-18.5-68.5t-50-50.5q-31.5-19-69-19t-69 19q-31.5 19-50 50.5T0 184q0 37 18.5 68.5t50 50.5q31.5 19 69.5 18h143q8 0 13.5-5t5.5-13q0-8-5.5-13.5T281 284zM38 184q0-27 13-50t36-36.5Q110 84 137.5 84T188 97.5q23 13.5 36.5 36.5t13.5 50q0 27-13.5 50T188 270.5Q165 284 137.5 284T87 270.5Q64 257 51 234t-13-50z"/></svg>