<svg viewBox="0 0 300 368" xmlns="http://www.w3.org/2000/svg"><path d="M125 222v28q0 4-3.5 7t-7.5 2q-14-3-25-14t-14-25q-1-4 2-7.5t7-3.5h28q6 0 9.5 3.5t3.5 9.5zm38-44q0-8-5.5-13.5T144 159q-8 0-13.5 5.5T125 178q0 8 5.5 13.5T144 197q8 0 13.5-5.5T163 178zm-40-32q15-3 25.5-13.5T162 107q1-4-1.5-7t-7.5-3h-28q-5-1-9 3t-4 9v28q1 5 4 7.5t7 1.5zm-23 19q0-8-5.5-13.5t-13.5-5q-8 .5-13 5.5t-5 13q0 8 5 13.5t13 5.5q8 0 13.5-5.5T100 165zm69 69q-8 0-13.5 5.5T150 253q0 8 5.5 13t13.5 5q8 0 13.5-5t5-13q-.5-8-5.5-13.5t-13-5.5zm47-57l-18 17q-5 5-5 10.5t3 9.5l20 19q3 3 7 2.5t7-3.5q8-12 8-27t-8-27q-3-4-7-4t-7 3zm84 7q0 41-20 75.5T225.5 314Q191 334 150 334q-35 0-68-16l-14 9q-13 8-28.5 6.5T13 321Q2 310 .5 294.5T7 266l10-14Q0 220 0 184q0-41 20-75.5T74.5 54Q109 34 150 34q36 0 68 17l14-10q13-8 28.5-6.5T287 47q11 11 12.5 26.5T293 102l-9 14q16 33 16 68zm-37 0q-1-31-16-56.5T206.5 87Q181 72 150 71.5t-56.5 15Q68 102 53 127.5T37.5 184q-.5 31 15 56.5t41 41q25.5 15.5 56.5 15t56.5-15.5q25.5-15 40.5-40.5t15-56.5h1zm-57-25q8 0 13.5-5.5T225 140q0-8-5.5-13.5t-13.5-5q-8 .5-13.5 5.5t-5.5 13q0 8 5.5 13.5T206 159z"/></svg>