<svg viewBox="0 0 300 368" xmlns="http://www.w3.org/2000/svg"><path d="M231 334h-12q-8 0-13.5-5.5T200 315q0-8 5.5-13.5T219 296h12q13 0 22.5-9t8.5-22v-12q1-8 6-13.5t13-5.5q8 0 13.5 5.5T300 253v12q0 19-9.5 34.5t-25 25Q250 334 231 334zm69-219v-12q0-19-9.5-34.5t-25-25Q250 34 231 34h-12q-8 0-13.5 5.5T200 53q0 8 5.5 13.5T219 72h12q13-1 22.5 8.5T262 103v12q1 8 6 13.5t13 5.5q8 0 13.5-5.5T300 115zM100 315q0-8-5.5-13.5T81 296H69q-13 0-22-9t-9-22v-12q0-8-5.5-13.5T19 234q-8 0-13.5 5.5T0 253v12q0 19 9.5 34.5t25 25Q50 334 69 334h12q8 0 13.5-5.5T100 315zM38 115v-12q0-13 9-22.5T69 72h12q8-1 13.5-6t5.5-13q0-8-5.5-13.5T81 34H69q-19 0-34.5 9.5t-25 25Q0 84 0 103v12q0 8 5.5 13.5T19 134q8 0 13.5-5.5T38 115zm162 69q0-21-14.5-35.5T150 134q-21 0-35.5 14.5T100 184q0 21 14.5 35.5T150 234q21 0 35.5-14.5T200 184z"/></svg>