<svg viewBox="0 0 300 368" xmlns="http://www.w3.org/2000/svg"><path d="M88 53q-1 8-6 13t-13 5q-13 0-22 9.5T38 103q0 8-5.5 13.5T19 122q-8 0-13.5-5.5T0 103q0-19 9.5-34.5t25-25Q50 34 69 34q8 0 13.5 5.5T88 53zM19 221q8 0 13-5t5-13v-38q1-8-4.5-13.5t-13.5-5q-8 .5-13.5 5.5T0 165v38q0 8 5.5 13.5T19 222v-1zm50 75q-13 0-22-9t-9-22q0-8-5.5-13.5t-13.5-5q-8 .5-13.5 5.5T0 265q0 19 9.5 34.5t25 25Q50 334 69 334q8 0 13.5-5.5T88 315q0-8-5.5-13T69 297v-1zm212-50q-8 0-13 5.5t-5 13.5q0 13-9.5 22.5T231 297q-8-1-13 4.5t-5 13.5q0 8 5 13.5t13 5.5q19 0 34.5-9.5t25-25Q300 284 300 265q0-8-5.5-13.5T281 246zm0-100q-8 0-13 5.5t-5 13.5v38q0 8 5 13.5t13 5.5q8 0 13.5-5.5T300 203v-38q0-8-5.5-13.5T281 146zm-50-75q13 0 22.5 9.5T263 103q0 8 5 13.5t13 5q8-.5 13.5-5.5t5.5-13q0-19-9.5-34.5t-25-25Q250 34 231 34q-8 0-13 5.5T212.5 53q-.5 8 5 13t13.5 5zm-62-37h-38q-8 0-13 5.5T113 53q0 8 5 13t13 5h38q8 0 13-5t5.5-13q.5-8-5-13.5T169 34zm0 262h-38q-8 0-13.5 5.5T112 315q0 8 5.5 13.5T131 334h38q8 0 13-5.5t5.5-13.5q.5-8-5-13t-13.5-5v-1z"/></svg>