<svg viewBox="0 0 300 368" xmlns="http://www.w3.org/2000/svg"><path d="M25 71q0-15 11-26t26.5-11Q78 34 89 45t11 26.5Q100 87 89 98t-26.5 11Q47 109 36 98T25 71zm63 100q0 16 10.5 27t26.5 11q16 0 26.5-11t11-26.5Q163 156 152 145t-27-11q-16 0-26.5 11T88 172v-1zm100-62q15 0 26-11t11-26.5Q225 56 214 45t-26.5-11Q172 34 161 45t-11 26.5Q150 87 161 98t27 11zM74 136q-2-8-8.5-12T52 122q-23 6-37.5 25T0 190q0 8 5.5 13.5T19 209q8 0 13-5.5t5-13.5q1-11 7.5-20T61 158q7-2 11-8.5t2-13.5zm139 54q0 8 5 13.5t13 5.5q8 0 13.5-5.5T250 190q0-24-14.5-43T198 122q-7-2-13.5 2t-8.5 11.5q-2 7.5 2 14t11 8.5q10 3 16.5 12t6.5 20h1zm68 69h-18v-19q0-8-5.5-13.5t-13.5-5q-8 .5-13.5 5.5t-5.5 13v19h-19q-8 0-13 5.5t-5.5 13.5q-.5 8 5 13t13.5 5h19v19q0 8 5.5 13.5T244 334q8 0 13-5.5t5-13.5v-19h19q8 0 13.5-5t5.5-13q0-8-5.5-13.5T281 259zm-132-34q-11-3-24-3-20 0-37.5 9T60 256q-10 16-10 34 0 8 5.5 13.5T69 309q8 0 13.5-5.5T88 290q0-13 10.5-22t26.5-9q7 0 14 2t13.5-1.5q6.5-3.5 9-11t-1-14Q157 228 149 225z"/></svg>