<svg viewBox="0 0 300 368" xmlns="http://www.w3.org/2000/svg"><path d="M231 34H69q-19 0-34.5 9.5t-25 25Q0 84 0 103v26l9 104q1 19 12.5 34.5T50 291v12q0 13 9 22t22 9q13 0 22.5-9t8.5-22l1-8q5-2 8.5-6.5T125 277q0-7-5.5-12.5T106 259H77q-12 0-21-8.5T46 230l-7-84h222l-1 5q0 8 5 14t12.5 6.5q7.5.5 13.5-4.5t7-13l2-25v-26q0-19-9.5-34.5t-25-25Q250 34 231 34zm32 69v6h-25V72q10 2 17.5 11t7.5 20zM100 71h31v38h-31V71zm69 0h31v38h-31V71zM63 72v37H38v-6q0-11 7-20t18-11zm167 90q-3-2-7-1.5t-6 3.5q-5 9-8 20-2 7-5 21t-5 19q-4 8-8 8t-5-2.5q-1-2.5-2.5-8T181 213q-1-3-5.5-3.5T169 212q-12 15-17 31-5 21 3 41 9 23 29.5 37t44.5 13q20-1 36-11.5t25.5-27.5q9.5-17 9.5-36 0-24-21-50-12-15-40-39l-9-8zm14 138q-7 9-19 9t-19-8q-7-8-6-18.5t8-17.5l11-12q3-2 6-2t6 2l11 12q7 7 8 17.5t-6 17.5z"/></svg>