<svg viewBox="0 0 300.0023 368" xmlns="http://www.w3.org/2000/svg"><path d="M295 172q-16-39-49-65.5T171 73q5-8 3-18t-10.5-16q-8.5-6-18.5-4t-16 11q-4 6-4 13.5t4 13.5q-42 7-75 33.5T5 172q-6 13-5 26.5T8 224q10 15 26 20l8 39q4 22 21.5 36t39.5 14h94q22 0 39.5-14t21.5-36l7-39q17-5 27-20 7-12 8-25.5t-5-26.5zm-74 104q-2 9-8.5 14.5T197 296h-94q-9 0-16-5.5T79 276l-4-17q14 0 25-8 11 7 25 7t25-7q11 7 24.5 7t25.5-7q11 8 24 8l-3 17zm39-72q-4 5-11 5-12 0-20 10-1 2-4 2t-5-1v-1q-6-8-16.5-9.5T185 214q-3 2-5 4.5t-4.5 2.5q-2.5 0-4.5-1l-1-1q-6-8-16.5-9.5T135 214q-3 2-5 4.5t-4.5 2.5q-2.5 0-4.5-1l-1-1q-6-8-16.5-9.5T85 214q-3 2-5 4.5t-4.5 2.5q-2.5 0-4.5-1l-1-1q-7-10-20-10-6 0-10-5-5-8-1-16 16-38 47-59 29-20 64-20t64 20q31 21 47 59 4 8-1 16z"/></svg>