<svg viewBox="0 0 300 368" xmlns="http://www.w3.org/2000/svg"><path d="M283 148q-5-17-14-32 4-7 3-15t-7-14l-18-18q-6-5-14-6.5T218 65q-15-9-32-14-2-7-8.5-12T163 34h-25q-9 0-15.5 5T114 51q-17 5-32 14-7-4-15-2.5T53 69L35 87q-6 6-7 14t3 15q-9 15-14 32-7 2-12 8.5T0 172v24q0 9 5 15.5t12 8.5q5 17 14 32-4 7-3 15t7 14l18 18q6 6 14 7t15-3q15 9 32 14 2 7 8.5 12t15.5 5h25q8 0 14.5-5t8.5-12q17-5 32-14 7 4 15 3t14-7l18-18q6-6 7-14t-3-15q9-15 14-32 7-2 12-8.5t5-15.5v-25q0-8-5-14.5t-12-8.5zM150 284q-27 0-50-13.5T63.5 234Q50 211 50 184q1-38 22-64 19-23 48.5-31t59 0q29.5 8 48.5 31 21 26 22 64 0 27-13.5 50T200 270.5Q177 284 150 284zm0-169q-26 1-43 14.5t-22.5 34q-5.5 20.5 0 41t22.5 34q17 13.5 43 13.5t43-13.5q17-13.5 22.5-34t0-41q-5.5-20.5-22.5-34T150 115zm0 19q8 0 13.5 5.5T169 153q0 8-5.5 13.5t-13.5 5q-8-.5-13.5-5.5t-5.5-13q0-8 5.5-13.5T150 134zm-50 50q0-8 5.5-13.5T119 165q8 0 13 5.5t5.5 13.5q.5 8-5 13.5T119 203q-8 0-13.5-5.5T100 184zm50 50q-8 0-13.5-5.5T131 215q0-8 5.5-13t13.5-5.5q8-.5 13.5 5T169 215q0 8-5.5 13.5T150 234zm31-31q-8 0-13.5-5.5t-5-13.5q.5-8 5.5-13.5t13-5.5q8 0 13.5 5.5T200 184q0 8-5.5 13.5T181 203z"/></svg>