<svg viewBox="0 0 300 368" xmlns="http://www.w3.org/2000/svg"><path d="M300 302q-1-36-7-71-3-15-15-24.5t-27-9.5h-76l1-3q2-8 8-13.5t14-6.5l28-4q10-1 18.5-7t13-14.5q4.5-8.5 5-19T259 110q-10-22-30-39t-45.5-27Q158 34 131 34q-35 0-65.5 17.5t-48 48Q0 130 0 166q1 31 7 62 3 19 15 33t30 20l19 5q24 7 47 17 16 8 33.5 5t30.5-15l3-4 23 26q2 3 6 5 26 12 55 14 12 0 21.5-9t9.5-23zm-145-35q-4 3-9.5 4t-10.5-1q-26-12-54-20l-17-5q-8-2-13.5-8.5T44 222q-5-28-7-56 0-26 12.5-47.5t34.5-34Q106 72 131 71q29 0 56 16t38 39q1 2 0 4.5t-4 2.5l-28 4q-16 2-29 11.5T144 172q-7 14-6.5 30t8.5 30l17 26-8 9zm79 21l-33-39-9-15h59q4 0 5 5 5 28 6 57-15-2-28-8zm-121-73q-1 8-6 13.5T94 234q-8 0-13.5-5.5T75 215q0-8 5.5-13.5T94 196q8 0 13 5.5t6 13.5z"/></svg>