<svg viewBox="0 0 300 368" xmlns="http://www.w3.org/2000/svg"><path d="M300 128V78q0-18-13-31t-31-13h-37q-14 0-25 8-12-8-25-8h-38q-13 0-25 8-11-8-25-8H44q-18 0-31 13T0 78v50q0 18 10.5 32.5T38 181v115h-7q-8 0-13.5 5.5t-5 13.5q.5 8 5.5 13.5t13 5.5h238q8 0 13.5-5.5t5-13.5q-.5-8-5.5-13.5t-13-5.5h-6V181q16-6 26.5-20.5T300 128zM75 296V165q0-8-5.5-13.5T56 146q-8 0-13-5t-5-13V78q0-3 1.5-5t4.5-2h37q3 0 5 2t2 5v25q0 8 5 13.5t13 5q8-.5 13.5-5.5t5.5-13V78q0-3 2-5t4-2h38q2 0 4 2t2 5v25q0 8 5.5 13.5t13.5 5q8-.5 13.5-5.5t5.5-13V78q0-3 1.5-5t4.5-2h37q3 0 5 2t2 5v50q0 8-5.5 13.5t-13.5 5-13.5 5Q225 157 225 165v131H75zm113-100v32q0 8-5.5 13t-13.5 5h-38q-8 0-13.5-5t-4.5-13v-32q0-15 10.5-26t26.5-11q16 0 27 11t11 26z"/></svg>