<svg viewBox="0 0 300 368" xmlns="http://www.w3.org/2000/svg"><path d="M150 34q-34 0-62.5 17T42 96.5Q25 125 25 159q0 42 32 92 22 34 56 68 16 15 37 15t37-15q34-34 56-68 32-50 32-92 0-34-17-62.5T212.5 51Q184 34 150 34zm10 258q-4 5-10 5t-10-5q-37-36-57.5-71T63 159q0-24 11.5-44T106 83q20-12 44-12t44 12q20 12 31.5 32t12.5 44q0 27-20.5 62T160 292zm65-144q-2 25-13 36t-36 12q-5 1-9.5-3.5T163 183q1-25 12-36t36-13q6 0 10 4t4 10zm-88 35q1 5-3.5 9.5T124 196q-25-1-36-12t-13-36q0-6 4-10t10-4q25 2 36 13t12 36z"/></svg>