<svg viewBox="0 0 300 368" xmlns="http://www.w3.org/2000/svg"><path d="M100 34q-20 0-37.5 10T35 71.5Q25 89 25 109t10 37.5Q45 164 62.5 174t37.5 10q20 0 37.5-10t27.5-27.5q10-17.5 10-37.5t-10-37.5Q155 54 137.5 44T100 34zm0 112q-16 0-27-10.5T62 109q0-16 11-27t27-11q16 0 27 11t11 27q0 16-11 26.5T100 146zm37 85q-1 8-7 12.5t-14 3.5q-5-1-10-1-18 0-34 9.5T47 281q-9 16-9 34 0 8-5.5 13.5T19 334q-8 0-13.5-5.5T0 315q0-29 14.5-53T53 223.5Q77 209 106 209q8 0 15.5 1t12 7.5Q138 224 137 231zm146 40l-3-1q1-6 1-11t-1-11l3-1q7-4 9-11.5t-2-14.5q-4-7-11.5-9t-14.5 2l-3 2q-8-6-17-10v-3q0-8-5.5-13.5T225 184q-8 0-13.5 5.5T206 203v3q-9 4-17 10l-3-2q-7-4-14.5-2t-11.5 9q-4 7-2 14.5t9 11.5l3 1q-1 6-1 11t1 11l-3 1q-7 4-9 11.5t2 14.5q3 4 7.5 6.5t9.5 2.5q5 0 9-2l3-2q8 6 17 10v3q0 8 5.5 13.5T225 334q8 0 13.5-5.5T244 315v-3q9-4 17-10l3 2q4 2 9 2t9.5-2.5q4.5-2.5 7.5-6.5 4-7 2-14.5t-9-11.5zm-39-12q0 8-5.5 13.5T225 278q-8 0-13.5-5.5T206 259q0-8 5.5-13.5T225 240q8 0 13.5 5.5T244 259z"/></svg>