<svg viewBox="0 0 300 368" xmlns="http://www.w3.org/2000/svg"><path d="M175 234q0 14-8.5 24.5t-22 13Q131 274 119 267t-16.5-19.5q-4.5-12.5 0-25.5t16.5-20v-87q0-8 5.5-13.5t13-5q7.5.5 13 5.5t5.5 13v87q9 5 14 13.5t5 18.5zm38-66q20 22 23.5 51t-8.5 56q-12 27-36 43.5T137.5 335Q107 335 83 318.5T47 275q-12-27-8.5-56T63 168v-59q0-28 16-47 14-18 36.5-24t44.5 0q22 6 36 24 16 19 16 47l1 59zm-13 66q0-13-5-24.5T181 189q-6-5-6-13v-67q0-15-11-26t-26.5-11Q122 72 111 83t-11 26v67q0 8-6 13-15 15-18 36t7.5 39.5q10.5 18.5 30 27t40 3Q174 289 187 272t13-38zM300 65q0 13-9 22t-22 9q-13 0-22-9t-9-22q0-13 9-22t22-9q13 0 22 9t9 22z"/></svg>