<svg viewBox="0 0 300 368" xmlns="http://www.w3.org/2000/svg"><path d="M162 162l-26 13q2 5 2 9t-2 9l26 13q11-10 26-10t26 11q11 11 11 27t-11 26.5Q203 271 187.5 271T161 260.5Q150 250 150 234l1-5-28-15q-10 7-23 7-16 0-26.5-10.5T63 184q0-16 10.5-27t26.5-11q13 0 23 8l28-15-1-5q0-16 11-27t26.5-11q15.5 0 26.5 11t11 27q0 16-11 26.5T188 171q-15 0-26-9zm138-59v162q0 19-9.5 34.5t-25 25Q250 334 231 334H69q-19 0-34.5-9.5t-25-25Q0 284 0 265V103q0-19 9.5-34.5t25-25Q50 34 69 34h162q19 0 34.5 9.5t25 25Q300 84 300 103zm-37 0q0-13-9.5-22.5T231 71H69q-13 0-22.5 9.5T37 103v162q1 13 10 22t22 9h162q13 0 22-9t9-22V103h1z"/></svg>