<svg viewBox="0 0 300 368" xmlns="http://www.w3.org/2000/svg"><path d="M275 117v23q0 19-9.5 34.5t-25 25Q225 209 206 209h-18q-8 0-13.5 5.5T169 228v23q11 5 18 15.5t7 23.5q0 18-13 31t-31 13q-18 0-31-13t-13-31q0-13 7-23.5t18-15.5v-23q0-8-5.5-13.5T113 209H94q-19 0-34.5-9.5t-25-25Q25 159 25 140v-23q-11-5-18-15.5T0 78q0-18 13-31t31-13q18 0 31 13t13 31q0 13-7 23.5T63 117v23q0 13 9 22.5t22 9.5h19q21-1 37 14 16-15 38-14h18q13 0 22.5-9.5T238 140v-23q-12-5-18.5-15.5T213 78q-1-18 12-31t31-13q18 0 31 13t13 31q0 13-7 23.5T275 117z"/></svg>