<svg viewBox="0 0 300 368" xmlns="http://www.w3.org/2000/svg"><path d="M150 34q-39 0-71.5 15.5T25.5 92Q5 119 0 153v10.5q0 5.5 5 16T15 195l76 76q-3 6-4 13v25q1 10 8 17.5t18 7.5h75q10 0 17.5-7.5T213 309v-25q0-7-4-13l76-77q15-14 15-32 0-5-1-9-4-35-24.5-62t-53-42Q189 34 150 34zm-44 45q-15 24-21 50-14-8-29-8l-6 1q19-31 56-43zm-66 88q8-8 16-8t20 10q7 5 12 10l21 57-69-69zm110-86q17 21 25 46-13-6-25-5.5t-25 5.5q8-25 25-46zm0 157l-26-68q15-11 26-11t26 11l-26 68zm100-116q-3-1-6-1-15 0-29 8-6-26-21-50 37 12 56 43zm-59 113l21-56h1q19-20 31-20 8 0 15 8l-68 68z"/></svg>