<svg viewBox="0 0 300 368" xmlns="http://www.w3.org/2000/svg"><path d="M131 134q0-5 5.5-8.5t13.5-4q8-.5 13.5 3.5t5.5 9q0 5-5.5 8.5t-13.5 4q-8 .5-13.5-3.5t-5.5-9zm153 82q14 13 15.5 32.5T289 284l-9 12q-14 18-33.5 28T205 334H95q-22 0-41.5-10T20 296l-9-12Q-1 268 .5 248.5T16 216q4-4 9-7l-15-20q-12-17-9.5-37.5T20 119q10-7 21.5-9t22.5 1q3-10 8-19-10-10-9.5-24T73 44q10-10 24-10t24 10q3 3 4 6 13-4 24.5-4t23.5 3l2-3q10-11 24-12t24.5 8.5Q234 52 235 65.5T227 90q6 10 9 21 11-3 22.5-1t21.5 9q17 12 19.5 32.5T290 189l-15 20q5 3 9 7zM150 84q-21 0-35.5 13T100 128q0 15 9 27 14 16 41 16t40-16q10-12 10-27 0-18-14.5-31T150 84zM91 296q-4-14-12-26l-19-25q-5-5-10-5t-8.5 3.5Q38 247 38 252t3 10l9 12q8 10 18.5 15.5T91 296zm120-74q6-9 18-14l31-42q3-4 2.5-9t-5-8q-4.5-3-9.5-2.5t-8 5.5l-16 19q-12 17-31.5 27.5T150 209q-20 0-38-8t-30-23l-22-26q-3-4-8-5t-9.5 2q-4.5 3-5 8t2.5 9l31 42q12 5 19 15l19 25q4 5 8 14 9 17 12 34h41q2-20 10-36 6-9 12-16l19-22zm48 22q-5-4-10.5-3.5T240 245l-23 27q-6 8-9 24 12 0 23-6t19-16l9-12q3-5 3-10t-3-8z"/></svg>