<svg viewBox="0 0 300.0014 368" xmlns="http://www.w3.org/2000/svg"><path d="M143 238q5 5 5 13t-5 13l-42 42q-15 15-37 15-11 0-21-4l-11 12q-6 5-13.5 5t-13-5.5Q0 323 0 315t5-13l12-11q-5-10-5-21 0-22 16-37l38-39q6-5 13.5-5t13 5.5q5.5 5.5 5.5 13T93 221l-39 39q-4 4-4 10t4 10q4 4 10 4t10-4l42-42q6-6 13.5-6t13.5 6zm152 64q5 5 5 13t-5.5 13.5Q289 334 281 334t-13-6L5 66q-5-5-5-13t5.5-13.5Q11 34 19 34t13 5l47 47 19-20q21-20 49-20t48 20l15-16q15-14 35.5-15.5T281 45q9 7 13.5 17t5.5 21q1 11-3 21t-12 18l-85 85 95 95zM173 181l42-42-20-20-42 42 20 20zm-68-68l22 21 41-42q-9-8-21.5-8T125 93l-20 20z"/></svg>