<svg viewBox="0 0 300 368" xmlns="http://www.w3.org/2000/svg"><path d="M300 115v25q0 12-9.5 16.5t-18.5 0q-9-4.5-9-16.5v-25q0-13-9.5-22T231 84H69q-13 0-22.5 9T37 115v138q1 13 10 22t22 9h37q12 0 16.5 9.5t0 18.5q-4.5 9-16.5 10H69q-19-1-34.5-10t-25-25Q0 271 0 253V115q0-18 9.5-34t25-25.5Q50 46 69 46h162q19 0 34.5 9.5t25 25.5q9.5 16 9.5 34zm-81 44q11 0 16-9.5t0-18.5q-5-9-16-9h-13q-11 0-16 9t0 18.5q5 9.5 16 9.5h13zM106 259h16q12 0 22-6t16-16q4-7 2-14.5t-9-11q-7-3.5-14.5-1.5t-10.5 8q-2 3-6 3h-16q-2 0-4-1.5t-2-4.5v-12h6q12 0 16.5-9.5t0-19Q118 165 106 165h-6v-12q0-3 2-5t4-2h16q4 0 6 4 3 6 10.5 8t14.5-1.5q7-3.5 9-11t-2-14.5q-6-10-16-16t-22-6h-16q-18 0-30.5 13T63 153v13q-8 3-11 10.5t0 15q3 7.5 10 10.5v13q1 18 13.5 31t30.5 13zm60 19q-16 15-16 38v4q0 7 1 10.5t6 3.5q33 2 50-16l84-84q9-10 9-21.5t-8-19.5q-8-8-19.5-9t-21.5 8l-85 86z"/></svg>