<svg viewBox="0 0 300 368" xmlns="http://www.w3.org/2000/svg"><path d="M284 50q-10-10-23.5-14T233 36q-47 12-89.5 36T66 129q-16 17-23.5 38.5t-4.5 44Q41 234 54 253L5 302q-5 5-5 13t5.5 13.5Q11 334 19 334t13-5l49-49q24 16 53 17 22-1 41-9t34-24q65-70 89-163 4-14 0-27.5T284 50zm-42 22q9-2 15.5 4.5T262 92q-9 35-25 67h-35l18-18q5-5 5-13t-5.5-13.5q-5.5-5.5-13-5.5t-13.5 5l-55 56v-50q48-33 104-48zM75 202q-1-13 4-25t14-21l7-7v58l-19 19q-5-11-6-24zm107 36q-14 16-34.5 20t-39.5-5l56-57h51q-15 23-33 42z"/></svg>