<svg viewBox="0 0 300 368" xmlns="http://www.w3.org/2000/svg"><path d="M281 104l-50-50q-13-13-30-17.5t-34.5 0Q149 41 137 54L20 171Q7 183 2.5 200.5t0 34.5Q7 252 20 265l50 50q9 9 21 14t25.5 5q13.5 0 25.5-5t22-14l117-117q12-13 16.5-30t0-34.5Q293 116 281 104zm-97-32q12 0 20 8l11 11-37 38-32-32 17-17q9-8 21-8zm-7 176l-32-33 33-33 32 33-33 33zm-59-59l-32-32 34-33 31 31-33 34zm-72 8l14-14 32 32-35 34-11-11q-8-8-8-20t8-21zm50 91l-12-12 34-34 33 32-14 14q-9 8-20.5 8T96 288zm158-117l-17 17-33-33 38-37 12 12q9 9 9 21t-9 20z"/></svg>