<svg viewBox="0 0 300 368" xmlns="http://www.w3.org/2000/svg"><path d="M300 278q0 18-13 30.5T256 321H44q-18 0-31-12.5T0 278q0-8 5.5-13.5T19 259q8 0 13.5 5.5T38 278q0 2 1.5 4t4.5 2h212q3 0 5-2t2-4q0-8 5-13.5t13-5.5q8 0 13.5 5.5T300 278zM19 121q8 0 13.5-5t5.5-13q0-8 5-13.5T56 84h188q8 0 13.5 5.5T263 103q0 8 5 13t13 5q8 0 13.5-5t5.5-13q0-24-16.5-40.5T244 46H56q-23 0-39.5 16.5T0 103q0 8 5.5 13t13.5 5zM0 234v-69q0-13 9-22t22-9h19q15 0 26.5 11T88 171.5Q88 187 76.5 198T50 209H25v25q0 5-3.5 8.5t-9 3.5q-5.5 0-9-3.5T0 234zm25-50h25q5 0 9-3.5t4-9q0-5.5-4-9t-9-3.5H31q-2 0-4 2t-2 4v19zm145 19l15 24q3 4 2 9t-4.5 7.5Q179 246 175 246q-7 0-10-5l-22-32h-18v25q0 5-3.5 8.5t-9 3.5q-5.5 0-9-3.5T100 234v-69q0-13 9-22t22-9h19q16 0 27 11t11 26q0 10-5 18.5T170 203zm-45-19h25q5 0 9-3.5t4-9q0-5.5-4-9t-9-3.5h-19q-2 0-4 2t-2 4v19zm175-6v25q0 18-13 30.5T256 246q-18 0-30.5-12.5T213 203v-25q0-18 12.5-31t30.5-13q18 0 31 13t13 31zm-25 0q0-8-5.5-13.5T256 159q-8 0-13 5.5t-5 13.5v25q0 8 5 13t13 5q8 0 13.5-5t5.5-13v-25z"/></svg>