<svg viewBox="0 0 300 368" xmlns="http://www.w3.org/2000/svg"><path d="M89 216q1 0 24 6l8 25q4 11 14 17.5t22 6.5q12 0 22-7t14-18l31-82q3-12 0-23t-11.5-19.5Q204 113 193 110t-23 0l-83 33q-11 4-18 14.5T62.5 180q.5 12 8 22T89 216zm12-38l80-32q3 0 5 2t2 5l-30 80q0 1-1 1l-1-1-10-32q-1-5-5-8.5t-8-4.5l-32-8-1-1q0-1 1-1zm49 156q41 0 75.5-20t54.5-54.5q20-34.5 20-75.5t-20-75.5Q260 74 225.5 54T150 34q-41 0-75.5 20T20 108.5Q0 143 0 184t20 75.5Q40 294 74.5 314t75.5 20zm0-263q31 0 56.5 15.5t41 41Q263 153 263 184t-15.5 56.5Q232 266 206.5 281T150 296q-31 0-56.5-15t-41-40.5Q37 215 37.5 184T53 127.5Q68 102 93.5 87T150 72v-1z"/></svg>