<svg viewBox="0 0 300 368" xmlns="http://www.w3.org/2000/svg"><path d="M187 34q-32 0-58.5 16.5T87.5 95q-14.5 28-12 59.5T96 212L5 302q-5 5-5 13t5.5 13.5Q11 334 19 334t13-5l90-91q26 18 57.5 20.5t59.5-12q28-14.5 44.5-41.5t16.5-58q0-31-15.5-57t-41-41Q218 34 187 34zm1 187q-20 0-37-10t-27-27q-10-17-10-36.5t9-37q9-17.5 26-28T185 72q19 4 29.5 19t10.5 38q1 13-8.5 22t-22.5 8q-7 0-13-4.5t-6-9.5q0-5 2-8t4-3q8 0 13.5-5.5T200 115q0-8-5.5-13.5T181 96q-19 1-32 15t-11 34q1 22 17.5 37t38.5 14q17 1 32-6.5t24.5-21.5q9.5-14 11.5-31 2 16-2.5 31.5T244 196q-11 12-25.5 19t-31.5 7l1-1z"/></svg>