<svg viewBox="0 0 300 368" xmlns="http://www.w3.org/2000/svg"><path d="M224 62q-18-16-40.5-23T137 35q-33 4-58.5 25.5t-35.5 53Q33 145 41 177t32 55q9 8 12 20 3 11 3 29v2q-1 21 14 36t36 15h24q21 0 36-15t15-36v-6q0-17 2-27t9-16q19-16 29-38.5t10-47q0-24.5-10-47T224 62zm-49 221q0 6-3.5 9.5T162 296h-24q-6 0-9.5-3.5T125 283v-12h50v12zm24-77q-13 12-18 28h-12v-61q8-5 13-14t6-19q0-8-5.5-13.5T169 121q-8 0-13.5 5.5T150 140q0-8-5.5-13.5T131 121q-8 0-13.5 5.5T113 140q0 10 5 19t13 14v61h-13q-6-17-19-29.5T79.5 174Q73 156 76 138q3-26 21-44.5T141 72l9-1q28 0 49 19 13 11 19.5 26.5t6.5 32q0 16.5-6.5 31.5T199 206z"/></svg>