<svg viewBox="0 0 300 368" xmlns="http://www.w3.org/2000/svg"><path d="M244 109h-50q-17 0-32 8V71h7q8 0 13-5t5.5-13q.5-8-5-13.5T169 34H56q-8 0-13.5 5.5t-5 13.5q.5 8 5.5 13t13 5h7v113H38v-6q0-8-5.5-13.5T19 159q-8 0-13.5 5.5T0 178v100q0 8 5.5 13t13.5 5q8 0 13-5t5-13v-7h88q3 27 22.5 45t46.5 18h50q23 0 39.5-16.5T300 278V165q0-23-16.5-39.5T244 109zM100 71h25v163h-25V71zm144 225h-50q-13 0-22.5-9t-9.5-22v-87q0-13 9.5-22t22.5-9h50q8-1 13.5 4.5T262 165v6h-56q-8 0-13 5.5t-5.5 13.5q-.5 8 5 13.5T206 209h57v25h-57q-8 0-13 5.5t-5.5 13.5q-.5 8 5 13t13.5 5h57v7q0 8-5.5 13.5T244 297v-1z"/></svg>