<svg viewBox="0 0 300 368" xmlns="http://www.w3.org/2000/svg"><path d="M250 284h-10q-23-54-32-113 6 0 11-4.5t6-11.5q1-7-2.5-12.5T212 135l9-14q5-10 4-21t-7-20.5q-6-9.5-16-15T181 59h-12v-6q0-8-5.5-13.5T150 34q-8 0-13.5 5.5T131 53v6h-12q-11 0-21 5.5t-16 15Q76 89 75 100t4 21l9 14q-7 2-10.5 7.5T75 155q1 7 6 11.5t11 4.5q-9 59-32 113H50q-10 0-17.5 7.5T25 309q0 10 7.5 17.5T50 334h200q10 0 17.5-7.5T275 309q0-10-7.5-17.5T250 284zM113 99q2-3 6-2h62q3-1 5 2t1 6l-19 29h-36l-19-29q-1-3 0-6zm17 72h40q8 59 30 113H100q22-54 30-113z"/></svg>