<svg viewBox="0 0 300 368" xmlns="http://www.w3.org/2000/svg"><path d="M216 34q-29 0-51.5 17.5T134 96H44q-10 1-18.5 4.5T11 111q-6 7-9 16t-2 18l15 128q3 26 23 43.5T84 334h70q26 0 45.5-17.5T222 273l15-128q1-9-1.5-18t-9-16q-6.5-7-15-11T194 97h-20q6-12 17-19t25-6q19-1 32.5 13t13.5 33q0 11-4 20-3 7-.5 14.5t9.5 11q7 3.5 14 1t11-9.5q8-18 8-37 0-23-11.5-42t-31-30.5Q238 34 216 34zm-62 262H84q-12 0-21-7.5T53 269l-7-60h60q8 0 13.5-5.5T125 190q0-8-5.5-13.5T106 171H41l-3-30q-1-3 1-5t5-2h89q4 23 20.5 41t39.5 25l-8 69q-2 12-10.5 19.5T154 296zm44-160q2 2 2 5l-2 20q-10-3-16.5-10.5T172 134h22q3 0 4 2z"/></svg>