<svg viewBox="0 0 300 368" xmlns="http://www.w3.org/2000/svg"><path d="M194 34h-88q-18 0-34 9.5t-25.5 25Q37 84 38 103v162q0 19 9 34.5t25 25q16 9.5 34 9.5h88q18 0 34-9.5t25.5-25Q263 284 263 265V103q0-19-9.5-34.5t-25.5-25Q212 34 194 34zm31 231q0 13-9 22t-22 9h-88q-13 0-22-9t-9-22V103q0-13 9-22.5t22-9.5h88q13 0 22 9.5t9 22.5v162zm-26-63q-1 7-6 12t-11.5 6.5q-6.5 1.5-13 0T157 214q5 14 11 23 1 3-.5 6.5T162 247h-24q-4 0-5.5-3.5t.5-6.5q6-9 10-23-5 5-11.5 6.5t-13 0Q112 219 107 214t-6-12q-3-12 4.5-21t19.5-9h4q-4-6-4-13 0-10 7.5-17.5T150 134q10 0 17.5 7.5T175 159q0 7-4 13h4q12-1 19.5 8.5T199 202z"/></svg>