<svg viewBox="0 0 300 368" xmlns="http://www.w3.org/2000/svg"><path d="M269 272l-13-103q-4-26-23.5-43T187 109h-74q-26 0-45.5 17T44 169L31 272q-13 0-22 9t-9 22q0 13 9 22t22 9h238q13 0 22-9t9-22q0-13-9-22t-22-9zM113 146h74q12 0 21 8t10 20l14 97H69l13-97q1-12 10-20t21-8zM69 55q-1-7 3.5-13.5T85 34q8-1 14 3.5t7 12.5l2 13q1 7-3.5 13.5T92 84h-3q-7 0-12-4.5T71 68l-2-13zm186 49q-5-6-5-14t5-13l13-13q5-5 13-5t13.5 5.5Q300 70 300 78t-5 13l-13 13q-5 5-13 5t-14-5zM5 91q-5-5-5-13t5.5-13.5Q11 59 19 59t13 5l13 13q5 5 5 13t-5.5 13.5Q39 109 31 109t-13-6L5 91zm187-28l2-13q1-8 7-12.5t14-3.5q8 1 12.5 7.5T231 55l-2 13q-1 7-6 11.5T211 84h-3q-8-1-12.5-7.5T192 63zm-89 150l2-25q1-7 6.5-11.5T124 172h20q8 0 13.5 5t5.5 13q0 8-5.5 13.5T144 209h-3l-1 8q-1 7-6 12t-13 5h-1q-8-1-13-7t-4-14z"/></svg>