<svg viewBox="0 0 300 368" xmlns="http://www.w3.org/2000/svg"><path d="M281 296zm19-156v138q0 8-5.5 13t-14 5q-8.5 0-17.5-4t-16-11l-22-23-18 18q-8 8-19.5 8t-19.5-8l-18-18-18 18q-8 8-19.5 8T93 276l-18-18-24 25q-13 13-32 13-8 1-13.5-4.5T0 278V140q0-18 9-34t25-25.5Q50 71 69 71h162q19 0 35 9.5t25 25.5q9 16 9 34zm-95-12l20 20 29-29q-9-10-23-10h-7l-19 19zm-17 17l-20 20 20 20 19-20-19-20zm-58-17l20 20 20-20-19-19h-2l-19 19zm-17 17l-20 20 20 20 19-20-19-20zm-67-26l29 29 20-20-19-19h-7q-14 0-23 10zm-8 66l19-20-19-20v40zm19 55l-19-19v39l19-20zm18-17l20-20-20-20-20 20 20 20zm57 17l-19-20-20 20 20 20 19-20zm18-17l20-20-20-20-20 20 20 20zm57 17l-19-20-20 20 20 20 19-20zm18-17l20-20-20-20-20 20 20 20zm38-2l-20 19 20 20v-39zm0-76l-20 20 20 20v-40z"/></svg>