<svg viewBox="0 0 300 368" xmlns="http://www.w3.org/2000/svg"><path d="M238 46q0-5 3.5-8.5T250 34h38q7 0 10.5 7t-.5 13l-23 30h13q5 0 8.5 3.5t3.5 9q0 5.5-3.5 9T288 109h-38q-8 0-11.5-7t1.5-13l23-30h-13q-5 0-8.5-3.5T238 46zm-75 38h12l-22 30q-5 6-1.5 13t10.5 7h38q5 0 8.5-3.5t4-9q.5-5.5-3.5-9t-9-3.5h-12l22-30q5-6 1.5-13T200 59h-37q-6 0-9.5 3.5t-3.5 9q0 5.5 3.5 9T162 84h1zm-38 162q0 11 7.5 18t17.5 7q10 0 17.5-7t7.5-17.5q0-10.5-7.5-18t-17.5-7q-10 .5-17.5 7.5t-7.5 17zm78-78l-3 3-3-3q-4-7-11.5-8.5t-14 2.5q-6.5 4-8.5 11.5t2 14.5q8 12 19 17 7 4 15 4h1q10 0 19-5.5t15-15.5q5-7 3-14.5t-8.5-11.5q-6.5-4-14-2.5T203 168zm-74-6q-7-4-14.5-2.5T103 168l-3 3-3-3q-4-7-11.5-8.5t-14 2.5q-6.5 4-8.5 11.5t2 14.5q8 12 19 17 7 4 15 4h1q10 0 19-5.5t15-15.5q5-7 3-14.5t-8-11.5zm142-32q-7 2-11 9t-2 14q5 15 5 31 0 31-15.5 56.5t-41 41Q181 297 150 297t-56.5-15.5q-25.5-15.5-41-41T37 184q1-38 23.5-68T119 76q8-2 11.5-9t1.5-14.5q-2-7.5-8.5-11T109 40q-32 9-56.5 30T14 121Q0 151 0 184q0 41 20 75.5T74.5 314q34.5 20 75.5 20t75.5-20q34.5-20 54.5-54.5t20-75.5q0-21-6-41-2-7-8.5-11t-14.5-2z"/></svg>