<svg viewBox="0 0 300 368" xmlns="http://www.w3.org/2000/svg"><path d="M150 315q0 8-5.5 13.5T131 334H69q-19 0-34.5-9.5t-25-25Q0 284 0 265V103q0-19 9.5-34.5t25-25Q50 34 69 34h87q19 0 34.5 9.5t25 25Q225 84 225 103v50q0 8-5.5 13t-13.5 5q-8 0-13-5t-6-13v-50q1-13-8.5-22.5T156 71H69q-13 0-22.5 9.5T37 103v162q1 13 10 22t22 9h62q8 0 13.5 5.5T150 315zm-37-156q5 0 8.5-3.5t3.5-9.5v-12h13q5 0 8.5-3.5t3.5-9q0-5.5-3.5-9T138 109h-13V96q0-5-3.5-8.5t-9-3.5q-5.5 0-9 3.5T100 97v12H88q-6 0-9.5 3.5t-3.5 9q0 5.5 3.5 9T88 134h12v12q0 6 3.5 9.5t9.5 3.5zm93 69q0 13 9.5 22t22 9q12.5 0 22-9t9.5-22q0-13-9.5-22.5t-22-9.5q-12.5 0-22 9.5T206 228zm94 90q-6-20-23.5-33.5t-39-13q-21.5.5-39 13.5T175 318q-1 6 2.5 11t9.5 5h101q6 0 9.5-5t2.5-11zM81 171q-8 0-13 5.5T63 190q0 8 5 13.5t13 5.5q8 0 13.5-5.5T100 190q0-8-5.5-13.5T81 171zm63 0q-8 0-13.5 5.5T125 190q0 8 5.5 13.5T144 209q8 0 13.5-5.5T163 190q0-8-5.5-13.5T144 171zm-63 63q-8 0-13 5.5T63 253q0 8 5 13t13 5q8 0 13.5-5t5.5-13q0-8-5.5-13.5T81 234zm63 0q-8 0-13.5 5.5T125 253q0 8 5.5 13t13.5 5q8 0 13.5-5t5.5-13q0-8-5.5-13.5T144 234z"/></svg>