<svg viewBox="0 0 300 368" xmlns="http://www.w3.org/2000/svg"><path d="M281 34h-18q-17 0-31.5 8.5t-23 23Q200 80 200 97v107q-15-8-32.5-8t-33 9.5q-15.5 9.5-25 25.5t-9.5 34.5q0 18.5 9.5 34t25 25q15.5 9.5 34 9.5t34.5-9.5q16-9.5 25-25t9-34.5V96q0-10 7.5-17.5T262 71h19q8 0 13.5-5t5.5-13q0-8-5.5-13.5T281 34zM169 296q-13 0-22-9t-9-22q0-13 9-22t22-9q13 0 22 9t9 22q0 13-9 22t-22 9zM0 53q0-8 5.5-13.5T19 34h125q8 0 13.5 5.5T163 53q0 8-5.5 13T144 71H19q-8 0-13.5-5T0 53zm0 75q0-8 5.5-13.5T19 109h125q8 0 13.5 5.5T163 128q0 8-5.5 13t-13.5 5H19q-8 0-13.5-5T0 128zm100 75q0 8-5.5 13.5T81 222H19q-8-1-13.5-6T0 203q0-8 5.5-13.5T19 184h62q8 0 13.5 5.5T100 203z"/></svg>