<svg viewBox="0 0 300.005 368" xmlns="http://www.w3.org/2000/svg"><path d="M218.005 190q7 7 7 17.5t-7 17.5l-27 27q-7 7-17.5 7t-17.5-7l-27-27q-7-7-7-17.5t7-17.5l27-27q7-7 17.5-7t17.5 7l27 27zm-56-61q-2-9-9-14.5t-16-5.5h-37q-10 0-17.5 7.5t-7.5 17.5v37q0 9 5.5 16t14.5 9q2-16 13-27l27-27q11-11 27-13zm138-21l-14 140q-2 21-13 37.5t-29 26q-18 9.5-39 9.5h-110q-21 0-39-9.5t-29-26q-11-16.5-13-37.5l-14-140q-1-12 3-23t12-20q8-9 18.5-13.5t22.5-4.5h188q12-1 22.5 4t18.5 14q8 9 12 20t3 23zm-38-3q1-9-4.5-15t-13.5-6h-188q-8 0-13.5 6t-4.5 15l13 139q2 17 14.5 28.5t29.5 11.5h110q17 0 29.5-11.5t14.5-28.5l13-139z"/></svg>