<svg viewBox="0 0 300 368" xmlns="http://www.w3.org/2000/svg"><path d="M150 34q-34 0-62.5 17T42 96.5Q25 125 25 159v119q0 23 16.5 39.5T81 334h138q23 0 39.5-16.5T275 278V159q0-34-17-62.5T212.5 51Q184 34 150 34zm0 37q24 0 44 12t31.5 32q11.5 20 11.5 44t-11.5 44Q214 223 194 234.5T150 246q-24 0-44-11.5T74 203q-12-20-12-44t12-44q12-20 32-32t44-12zm69 225H81q-8 0-13-5t-5-13v-30q17 17 39.5 26.5T150 284q25 0 47.5-9.5T238 248v30q0 8-5.5 13.5T219 297v-1zM102 186q-3-7-1-14.5t8-10.5l22-13v-33q0-8 5.5-13t13.5-5q8 0 13.5 5t5.5 13v44q0 5-2.5 9.5T159 175l-31 18q-4 3-9 3t-9.5-2.5Q105 191 102 186z"/></svg>