<svg viewBox="0 0 300 368" xmlns="http://www.w3.org/2000/svg"><path d="M81 34H56q-23 0-39.5 16.5T0 90v25q0 23 16.5 39.5T56 171h25q24 0 40.5-16.5T138 115V90q0-23-16.5-39.5T81 34zm19 81q0 8-5.5 13.5T81 134H56q-8 0-13-5.5T38 115V90q0-8 5-13.5T56 71h25q8 0 13.5 5.5T100 90v25zm144 81h-25q-23 0-39.5 16.5T163 253v25q0 23 16.5 39.5T219 334h25q23 0 39.5-16.5T300 278v-25q0-24-16.5-40.5T244 196zm19 82q0 8-5.5 13t-13.5 5h-25q-8 0-13.5-5t-5.5-13v-25q0-8 5.5-13.5T219 234h25q8 0 13.5 5.5T263 253v25zM81 196H56q-23 0-39.5 16.5T0 253v25q0 23 16.5 39.5T56 334h25q24 0 40.5-16.5T138 278v-25q0-24-16.5-40.5T81 196zm19 82q0 8-5.5 13T81 296H56q-8 0-13-5t-5-13v-25q0-8 5-13.5t13-5.5h25q8 0 13.5 5.5T100 253v25zm63-206q0-16 10-27t23-11q13 0 23 8.5T231 64q2-13 12-21.5t23.5-8.5Q280 34 290 45t10 27q0 19-22 47-16 20-36 36-5 4-11 4t-10-4q-21-16-37-36-22-28-22-47h1z"/></svg>