<svg viewBox="0 0 300 368" xmlns="http://www.w3.org/2000/svg"><path d="M206 96q-15 0-27 6-5-3-11-5-4-43-41-61-7-3-14.5-1T102 44q-3 7-1 14.5t9 11.5q9 4 14 10.5t6 16.5q-4 2-9 5-12-5-27-5-19 0-41.5 16T16 155Q0 184 0 215t16 60q15 26 37 42.5T94 334q12 0 25-5 15 5 30.5 5t32.5-5q13 5 24 5 19 0 41-16.5t37-42.5q16-29 16-60t-16-60q-14-26-36.5-42T206 97v-1zm0 200q-5 0-11.5-2t-13-2q-6.5 0-12.5 2-9 2-19 2t-19-2q-13-4-25 0-7 2-12 3-8-1-21.5-12T49 257q-11-20-11-42t11-42q10-17 23.5-28T94 134q8 0 13 3 8 3 17 2.5t16-5.5q10-6 20 0 7 5 16 5.5t17-2.5q5-3 13-3t21.5 11q13.5 11 23.5 28 12 20 12 42t-12 42q-10 17-23.5 28.5T206 297v-1zM82 195l15-31q3-5 9-5t9 5l15 31q3 5 0 9.5t-9 4.5H91q-5 0-8-4.5t-1-9.5zm88 0l15-31q3-5 9-5t9 5l15 31q2 5-1 9.5t-8 4.5h-30q-6 0-9-4.5t0-9.5zm65 39q-6 5-22 15-14 8-26 13v-9q1-5-3-9t-9-4q-5 0-8.5 4t-3.5 9v17q-7 1-13 1-28 1-53-13-14-7-32-24-4-4-1.5-8.5T71 222l13 3q22 6 28 7v8q1 5 4.5 9t8.5 4q5 0 9-4t4-9v-6h12q22 0 69-10l10-2q5-2 7.5 3t-1.5 9z"/></svg>