<svg viewBox="0 0 300 368" xmlns="http://www.w3.org/2000/svg"><path d="M256 267q-5 0-10-3t-7-8.5q-2-5.5-1-11t5-9.5q17-16 19-38.5T251 155q-13-19-36-23-10-2-18-8t-12-15q-9-20-28-30t-40-7q-21 3-36 17.5T62 125q-2 12 0 23.5t-1.5 22Q57 181 49 188q-10 9-11 23t8 25q5 6 4 13.5T43 262q-6 5-13.5 4T17 259Q5 245 1.5 226.5t2.5-36Q10 173 24 160q2-1 2-4-4-19-1-37 6-32 28-54.5T107 36q34-7 65 9t47 47q1 3 4 4 27 5 46.5 23.5T296 164q7 26 .5 52T270 261q-6 6-14 6zm-73 57q6-4 7.5-11.5T188 298l-9-14h15q8 0 13.5-5.5T213 265q0-8-5.5-13.5T194 246h-15l9-14q4-6 2.5-14t-8-12q-6.5-4-14-2.5T157 212l-13 19-13-19q-3-5-7.5-7t-9.5-2q-5 0-9 3t-6.5 7.5q-2.5 4.5-2 9.5t3.5 9l9 14H94q-8 0-13.5 5.5T75 265q0 8 5.5 13.5T94 284h15l-9 14q-5 7-3.5 14.5t8 12Q111 329 119 327t12-8l13-20 13 20q4 6 11.5 8t14.5-3z"/></svg>