<svg viewBox="0 0 300 368" xmlns="http://www.w3.org/2000/svg"><path d="M300 278q0 8-5.5 13t-13.5 5H144q-19 0-34.5-9t-25-25Q75 246 75 228v-88q0-18 9.5-34t25-25.5Q125 71 144 71h137q8 0 13.5 5.5T300 90q0 8-5.5 13.5T281 109H144q-13 0-22.5 9t-9.5 22v88q1 13 10 22t22 9h137q8 0 13.5 5.5T300 278zm-19-82H156q-8 0-13 5.5t-5.5 13.5q-.5 8 5 13.5T156 234h125q8 0 13.5-5.5T300 215q0-8-5.5-13.5T281 196zM34 145L5 172q-5 5-5 11t5 10l29 27q5 4 10.5 2t5.5-9v-61q0-6-5.5-8.5T34 145zm104 8q-1 8 4.5 13t13.5 5q8 0 13.5-5t5.5-13q0-8-5.5-13.5T156 134q-8 0-13.5 5.5T137 153h1zm62 0q0 8 5.5 13.5t13.5 5q8-.5 13.5-5.5t5.5-13q0-8-5.5-13.5T219 134q-8 0-13.5 5.5T200 153zm81-19q-8 0-13 5.5t-5 13.5q0 8 5 13.5t13 5q8-.5 13.5-5.5t5.5-13q0-8-5.5-13.5T281 134z"/></svg>