<svg viewBox="0 0 300 368" xmlns="http://www.w3.org/2000/svg"><path d="M150 34q-41 0-75.5 20T20 108.5Q0 143 0 184t20 75.5Q40 294 74.5 314t75.5 20q41 0 75.5-20t54.5-54.5q20-34.5 20-75.5t-20-75.5Q260 74 225.5 54T150 34zm0 262q-31 0-56.5-15T53 240.5Q38 215 37.5 184t15-56.5q15.5-25.5 41-41T150 71q31 0 56.5 15.5t41 41q15.5 25.5 15 56.5T247 240.5q-15 25.5-40.5 41T150 297v-1zm63-162v69q0 17-8.5 31t-23 22.5Q167 265 150 265t-31.5-8.5Q104 248 96 234t-8-31v-69q0-8 5-13.5t13-5.5q8 0 13.5 5.5T125 134v69q0 10 7.5 17.5T150 228q10 0 17.5-7.5T175 203v-69q0-8 5.5-13.5T194 115q8 0 13 5.5t5 13.5h1z"/></svg>