<svg viewBox="0 0 300 368" xmlns="http://www.w3.org/2000/svg"><path d="M299 322q-2 5-7 8.5t-11 3.5q-3 0-6-1l-125-48-125 48q-3 1-6 1-6 0-11-3.5T.5 321q-2.5-6 1-13.5T12 298l85-33-85-32q-7-3-10.5-10T1 208.5Q4 201 11 198t14 0l125 47 125-47q7-3 14 0t10 10.5q3 7.5-.5 14.5T288 233l-85 32 85 33q7 2 10.5 9.5t.5 14.5zM75 142v-30q0-29 18.5-51.5T140 35q23-3 42.5 6.5t31 27.5Q225 87 225 109v37q0 11-7.5 18t-17.5 7h-12v13q0 10-7.5 17.5T163 209h-25q-11 0-18-7.5t-7-17.5v-13h-13q-11 0-18-8t-7-21zm88-14q0 8 5 13.5t13 5.5q8 0 13.5-5.5T200 128q0-8-5.5-13.5T181 109q-8 0-13.5 5.5T162 128h1zm-63 0q0 8 5.5 13.5T119 147q8 0 13.5-5.5t5-13.5q-.5-8-5.5-13.5t-13-5.5q-8 0-13.5 5.5T100 128z"/></svg>