<svg viewBox="0 0 300 368" xmlns="http://www.w3.org/2000/svg"><path d="M295 179l-10-32q-6-17-21-27.5T231 109h-25q-13 0-22 9t-9 22v40L65 41q-6-7-15-7h-6q-8 0-13.5 5.5T25 53v68h-6q-8 1-13.5 6T0 140q0 8 5.5 13.5T19 159h6q16 0 27-11t11-26V99l67 85H69q-19 0-34.5 9.5t-25 25Q0 234 0 253v25q0 8 5.5 13.5T19 297h19v6q0 13 9 22t22 9q13 0 22-9t9-22v-7h100v7q0 13 9 22t22 9q13 0 22.5-9t9.5-22v-7q15-2 26-14.5t11-28.5v-44q0-16-5-30zm-64-33q6 0 11 4t7 9l11 32q3 9 2 18h-49v-63h18zm-56 113H38v-6q0-13 9-22.5t22-9.5h106v38z"/></svg>