<svg viewBox="0 0 300 368" xmlns="http://www.w3.org/2000/svg"><path d="M241 249l25-67 29-29q5-5 5-13t-5.5-13.5Q289 121 281 121t-13 6l-18 18-61-61 18-18q6-6 6-13.5t-6-13q-6-5.5-13.5-5.5T181 39l-29 29-67 25-53-54q-6-5-13.5-5t-13 5.5Q0 45 0 53t6 13l262 262q5 6 13 6t13.5-5.5Q300 323 300 315t-5-13l-54-53zm-83-143l70 70-16 43-98-97 44-16zm23 170q2 7-2 14t-11 9L50 332q-5 2-11 2-16 0-27-12-8-7-10.5-17.5T2 284l33-118q2-7 9-11t14.5-1.5q7.5 2.5 11 9T71 177l-24 83 28-28q0-12 10-20 4-4 10.5-3t10.5 5l14 14q4 4 4.5 10.5T122 249q-8 10-20 10l-28 28 83-24q8-2 14.5 1.5T181 276z"/></svg>