<svg viewBox="0 0 300 368" xmlns="http://www.w3.org/2000/svg"><path d="M279 241l-23 23-80-80 80-80 23 23q3 2 6.5 3t7-.5q3.5-1.5 5.5-4.5t2-7V48q0-6-4-10t-9-4h-71q-3 0-6 2.5t-4.5 5.5q-1.5 3-1 7t3.5 6l22 23-80 79-80-80 23-22q2-3 3-6.5t-.5-7Q94 38 91 36t-7-2H14q-6 0-10 4t-4 9v71q0 3 2.5 6t5.5 4.5q3 1.5 7 1t6-3.5l23-22 80 80-80 80-23-22q-2-3-6-3.5t-7 1Q5 241 2.5 244T0 250v71q0 5 4 9t10 4h70q4 0 7-2t4.5-5.5q1.5-3.5.5-7t-3-6.5l-23-23 80-80 80 80-22 23q-3 2-3.5 6t1 7q1.5 3 4.5 5.5t6 2.5h71q5 0 9-4t4-10v-70q0-4-2-7t-5.5-4.5q-3.5-1.5-7-.5t-6.5 3z"/></svg>