<svg viewBox="0 0 300 368" xmlns="http://www.w3.org/2000/svg"><path d="M205 211q0 7-8 11l-19 11 9 24q1 3 0 6.5t-4 5.5q-3 3-7 3t-7-3l-19-15-19 15q-3 3-7 3t-7-3q-3-2-4-5.5t0-6.5l9-24-20-11q-7-4-7-11 0-3 3-5.5t7-2.5h28l7-29q1-3 3.5-5t6-2q3.5 0 6.5 2t4 5l7 29h28q4 0 7 2.5t3 5.5zm26-152h-6v-6q0-8-5.5-13.5T206 34q-8 0-13 5.5T188 53v6h-75v-6q-1-8-6-13.5T94 34q-8 0-13.5 5.5T75 53v6h-6q-19 0-34.5 9.5t-25 25Q0 109 0 128v137q0 19 9.5 34.5t25 25Q50 334 69 334h162q19 0 34.5-9.5t25-25Q300 284 300 265V128q0-19-9.5-34.5t-25-25Q250 59 231 59zm0 237H69q-13 0-22-9t-9-22V146h225v119q0 13-9.5 22t-22.5 9z"/></svg>