<svg viewBox="0 0 300 368" xmlns="http://www.w3.org/2000/svg"><path d="M247 334h-3q-7 0-12-4t-7-11q-5-26-26.5-43T150 259q-27 0-48.5 17T75 319q-2 8-8.5 12t-14 2.5q-7.5-1.5-12-8T38 312q5-26 21.5-46.5t40-32.5q23.5-12 50.5-12t50.5 12q23.5 12 40 32.5T262 312q2 7-2.5 13.5T247 334zm-53-30q-5-13-14-24-2-2-5-2t-5 2q-10 11-15 26-3 11-5 23 0 3 2.5 4.5t4.5-.5q15-12 21.5-12t14.5 6q3 1 5-.5t2-4.5q-2-9-6-18zM50 121q0-7 4.5-13.5T66 98q7-28 30.5-46T150 34q30 0 53.5 18T234 98q7 3 11.5 9.5t4.5 14q0 7.5-4.5 14T234 145q-7 28-30.5 46T150 209q-30 0-53.5-18T66 145q-7-3-11.5-9.5T50 122v-1zm143 25h-86q6 12 17.5 18.5T150 171q14 0 25.5-6.5T193 146zm-86-50h86q-6-11-17.5-18T150 71q-14 0-25.5 7T107 96z"/></svg>