<svg viewBox="0 0 300 368" xmlns="http://www.w3.org/2000/svg"><path d="M225 184q-20 0-37.5 10T160 221.5Q150 239 150 259t10 37.5q10 17.5 27.5 27.5t37.5 10q20 0 37.5-10t27.5-27.5q10-17.5 10-37.5t-10-37.5Q280 204 262.5 194T225 184zm38 87h-25v25q0 6-4 9.5t-9 3.5q-5 0-8.5-3.5T213 296v-25h-25q-6 0-9.5-3.5T175 259q0-5 3.5-9t9.5-4h25v-25q0-5 3.5-8.5t8.5-3.5q5 0 8.5 3.5t3.5 8.5v25h26q5 0 8.5 4t3.5 9q0 5-3.5 8.5T262 271h1zM38 115q-1-8 4.5-13.5T56 96h188q8 0 13 5.5t5.5 13.5q.5 8-5 13.5T244 134H56q-8 0-13.5-5.5T37 115h1zm37-62q0-8 5.5-13.5T94 34h112q8 0 13.5 5.5T225 53q0 8-5.5 13T206 71H94q-8 0-13.5-5T75 53zM38 228v37q0 13 9 22.5t22 9.5h50q8-1 13 4.5t5.5 13.5q.5 8-5 13.5T119 334H69q-19 0-34.5-9.5t-25-25Q0 284 0 265v-37q0-19 9.5-34.5t25-25Q50 159 69 159h75q8 0 13.5 5.5T163 178q0 8-5.5 13.5T144 197H69q-13-1-22 8.5T38 228z"/></svg>