<svg viewBox="0 0 300 368" xmlns="http://www.w3.org/2000/svg"><path d="M280 39q-8-5-16.5-5T247 39q-19 12-44 17-14 3-42 5-23 1-34 3-19 3-34 9-17 8-31 23-19 18-28.5 41.5T25 187q1 39 24 71L5 302q-5 5-5 13t5.5 13.5Q11 334 19 334t13-6l44-43q31 23 71 23l12-1q28-2 53-16t42-37q42-55 46-180 0-10-5.5-20T280 39zm-56 193q-12 16-30 26t-37.5 12q-19.5 2-36-4T91 248q-13-12-20.5-28t-8-34q-.5-18 6-34.5t20-30Q102 108 122 103q12-3 42-5t47-5q28-6 51-20-1 56-11 96t-27 63zm-11-67q0 15-18 37-12 14-30 29-5 3-10.5 3t-10.5-3q-16-13-28-29-16-21-16-37 0-13 8-22t20-9q12 0 20 9t8 22q0-13 8.5-22t20-9q11.5 0 20 9t8.5 22z"/></svg>