<svg viewBox="0 0 300 368" xmlns="http://www.w3.org/2000/svg"><path d="M150 34q-41 0-75.5 20T20 108.5Q0 143 0 184t20 75.5Q40 294 74.5 314t75.5 20q41 0 75.5-20t54.5-54.5q20-34.5 20-75.5t-20-75.5Q260 74 225.5 54T150 34zm0 37q29 0 53.5 13.5T243 121h-47q-19 0-34 13h-24q-15-13-34-13H57q15-23 39.5-36.5T150 71zm0 225q-30 0-55.5-14.5T54 242q-15-25-16-54 12 8 26 9h26q13-1 24-7.5t17-18.5h38q6 12 17 18.5t24 6.5h26q14 0 26-8-1 29-16 54t-40.5 40Q180 297 150 296zm59-66q5 6 3.5 13.5T204 256q-11 7-25 11t-29 4q-15 0-29-4t-25-11q-7-5-8.5-12.5t3-14q4.5-6.5 12-8T117 225q13 8 33 8t33-8q7-5 14.5-3.5T209 230z"/></svg>