<svg viewBox="0 0 300 368" xmlns="http://www.w3.org/2000/svg"><path d="M247 159h-84v-25h118q8 0 13.5-5.5T300 115q0-8-5.5-13.5T281 96H163V78l119-7q8 0 13-6t5-13.5q0-7.5-6-12.5t-14-5L55 47q-8 0-13 6t-4.5 13.5q.5 7.5 6 12.5T56 84h6v12h-6q-8 1-13.5 6T37 115q0 8 5.5 13.5T56 134h6v25h-9q-12 0-23.5 5.5t-19 15.5Q3 190 1 201.5T2 225q13 48 50 81 15 14 35 21t42 7h42q22 0 42-7t35-21q37-33 50-81 3-12 1-23.5t-9.5-21.5q-7.5-10-19-15.5T247 159zM100 82l25-2v16h-25V82zm0 52h25v25h-25v-25zm162 81q-10 38-39 63-21 18-52 19h-42q-31-1-52-19-29-25-39-63-2-6 2.5-12.5T53 197h194q8-1 12.5 5.5T262 215z"/></svg>