<svg viewBox="0 0 300 368" xmlns="http://www.w3.org/2000/svg"><path d="M144 334H81q-8 0-13-5.5T63 315q0-8 5-13.5t13-5.5h63q8 0 13.5 5.5T163 315q0 8-5.5 13.5T144 334zm94-19q-1-8-6-13.5t-13-5.5h-13q-8 0-13.5 5.5t-5 13.5q.5 8 5.5 13.5t13 5.5h13q8 0 13.5-5.5T238 315zm0-62q-1-8-6-13.5t-13-5.5h-63q-8 0-13.5 5.5t-5 13.5q.5 8 5.5 13.5t13 4.5h63q8 0 13.5-5t5.5-13zm-125 0q-1-8-6-13.5T94 234H81q-8 0-13.5 5.5t-5 13.5q.5 8 5.5 13t13 5h13q8 0 13.5-5t5.5-13zm-77 3q6-4 8-11.5T42 231q-6-11-4-23t10.5-19.5q8.5-7.5 12-18t1.5-22Q60 137 62 125q4-21 19-35.5T117 72q21-3 40 7t28 30q4 9 12 15t18 8q14 3 25 12t17 21.5q6 12.5 5.5 27T255 219q-3 4-3 9t3 9.5q3 4.5 7.5 7t9.5 2.5q5 0 9-3t7-7q11-21 11.5-43.5t-9-43.5q-9.5-21-27.5-35.5T223 96q-3-1-4-3-15-32-46.5-48T107 36q-32 6-54 28.5T25 119q-3 18 1 37 0 3-2 4-19 17-23 42.5t9 47.5q4 6 11.5 8t14.5-2z"/></svg>