<svg viewBox="0 0 300 368" xmlns="http://www.w3.org/2000/svg"><path d="M280 137q7-16 7-32 0-15-11-24.5T250 72q-2-11-10-18t-19-8q-7 1-13 4-4-7-11-11.5t-15.5-4Q173 35 166 39t-12 12q-6-4-12-4-11 0-19 7t-10 17q-15 0-26 9.5t-11 25q0 15.5 6 29.5-20 30-19 65v84q0 5-4 8.5t-9 3.5q-5 0-8.5-3.5T38 284v-89q-1-28 15-50 3-4 3.5-9.5t-1.5-10q-2-4.5-6.5-7.5t-9.5-3q-5 0-9.5 2t-7.5 6Q0 155 0 195v89q0 21 14.5 35.5T50 334h181q19 0 34.5-9.5t25-25Q300 284 300 265v-62q0-36-20-66zm-17 128q-1 13-10 22t-22 9H98q2-6 2-12v-84q0-21 10-38.5t27.5-28.5q17.5-11 38.5-11 17-1 32.5 4.5t28 17q12.5 11.5 19.5 27t6 32.5l1 62zm-25-62q-1 8-6 13.5t-13 5.5q-8 0-13.5-5.5T200 203q0-8 5.5-13.5T219 184q8 0 13.5 5.5T238 203zm-38 50q0 8-5.5 13.5t-13.5 5q-8-.5-13.5-5.5t-5-13q.5-8 5.5-13.5t13-5.5q8 0 13.5 5.5T200 253z"/></svg>