<svg viewBox="0 0 300 368" xmlns="http://www.w3.org/2000/svg"><path d="M13 221q0-15 10.5-26T50 184q16 0 27 11t11 26.5Q88 237 77 248t-27 11q-16 0-26.5-11T13 222v-1zm37 63q-17 0-30.5 9.5T1 319q-2 5 1.5 10t9.5 5h76q6 0 9.5-5t1.5-10q-5-16-18.5-25.5T50 284zm249 35q-5-16-18.5-25.5T250 284q-17 0-30.5 9.5T201 319q-2 5 1.5 10t9.5 5h76q6 0 9.5-5t1.5-10zm-86-98q0 16 10.5 27t26.5 11q16 0 27-11t10.5-26.5q-.5-15.5-11-26.5T250 184q-16 0-26.5 11T213 222v-1zm-24-38l-22 20q-8 6-17.5 6t-16.5-6l-22-20q-21-2-35-18t-14-37V90q0-23 16.5-39.5T119 34h62q23 0 39.5 16.5T237 90v38q0 21-14 37t-34 18zm11-93q0-8-5.5-13.5T181 71h-62q-8 0-13.5 5.5T100 90v38q0 8 5.5 13.5t13 5q7.5-.5 12.5 4.5l19 17 19-17q5-4 12.5-4t13-5.5Q200 136 200 128V90z"/></svg>