<svg viewBox="0 0 300 368" xmlns="http://www.w3.org/2000/svg"><path d="M231 96h-7q12-11 13.5-24t-7-24.5Q222 36 207.5 34T182 41q-14 10-23 29-6 13-9 27-3-14-9-27-9-19-22-29-12-9-26.5-7t-23 13.5Q61 59 63 72t13 25h-7q-19-1-34.5 8.5T9.5 131Q0 147 0 165v100q0 19 9.5 34.5t25 25Q50 334 69 334h162q19 0 34.5-9.5t25-25Q300 284 300 265V165q0-18-9.5-34t-25-25Q250 97 231 97v-1zm0 200H69q-11 1-20-6.5T38 271h224q-2 11-11 18t-20 7zm32-62H38v-69q0-13 9-22t22-9h60q-5 13-20 20-9 4-17 5t-13 7q-5 6-4 13.5t6.5 12Q87 196 94 196q14 0 29-6.5t27-19.5q12 13 27 20t29 7q7-1 12.5-5.5t6.5-12q1-7.5-4-13.5t-12.5-7q-7.5-1-16.5-4-16-7-21-21h60q13 0 22.5 9t9.5 22v69z"/></svg>