<svg viewBox="0 0 300.0311 368" xmlns="http://www.w3.org/2000/svg"><path d="M227.03 141q5 6 4 14t-7 12l-31 25q-5 4-12 4-9 0-14-6.5t-4.5-14q.5-7.5 7.5-12.5l31-25q6-5 13.5-4t12.5 7zm-108 55q9 0 14-6.5t4.5-14q-.5-7.5-7.5-12.5l-31-25q-6-5-13.5-4t-12.5 7q-5 6-4 14t7 12l31 25q5 4 12 4zm181-12q0 41-20 75.5t-54.5 54.5q-34.5 20-75.5 20t-75.5-20q-34.5-20-54.5-54.5T.03 184q0-33 15-64l-15-71q-1-8 5-12.5t13-1.5l50 24q38-25 82-25t82 24l50-23q7-3 13 1.5t5 12.5l-15 71q15 31 15 64zm-37 0q0-30-15.5-56t-41-41q-25.5-15-56.5-15t-56.5 15q-25.5 15-40.5 41t-15.5 56.5q-.5 30.5 15 56t41 41q25.5 15.5 56.5 15.5t56.5-15.5q25.5-15.5 41-41t14.5-56.5h1zm-59 41q-11-8-25-12t-29-4q-15 0-29 4t-25 12q-7 4-8.5 11.5t3 14q4.5 6.5 12 8t14.5-2.5q13-9 33-9t33 9q5 3 11 3 10 0 15-7.5t3.5-15q-1.5-7.5-8.5-11.5z"/></svg>