<svg viewBox="0 0 300.0187 368" xmlns="http://www.w3.org/2000/svg"><path d="M206 65q0-13 9.5-22t22-9q12.5 0 22 9t9.5 22q0 13-9.5 22.5t-22 9q-12.5-.5-22-9.5T206 65zm85 218q-11 12-28 13v19q-1 8-6 13.5t-13 5.5h-13q-8 0-13.5-5.5T212 315v-19q-17-1-28-13.5t-9-28.5l15-104q2-16 15-28.5t32.5-12.5q19.5 0 32.5 12.5t15 28.5l15 104q2 16-9 29zm-78-25q1 1 2 1h45q1 0 2-1l-14-102q-1-4-3.5-7t-7-3q-4.5 0-7 3t-3.5 6l-14 103zM50 96q13 0 22-9t9-22q0-13-9-22t-22-9q-13 0-22 9t-9 22q0 13 9 22.5T50 97v-1zm50 63v62q0 13-7 22.5T75 257v58q0 8-5.5 13.5T56 334H44q-8 0-13.5-5.5T25 315v-58q-11-4-18-13.5T0 221v-62q0-21 14.5-35.5T50 109q21 0 35.5 14.5T100 159zm-62 63l25-1v-62q0-5-4-8.5t-9-4q-5-.5-9 3.5t-4 9v63h1zM144 34q-8 0-13.5 5.5T125 53v262q0 8 5.5 13.5T144 334q8 0 13.5-5.5T163 315V53q0-8-5.5-13.5T144 34z"/></svg>