<svg viewBox="0 0 300 368" xmlns="http://www.w3.org/2000/svg"><path d="M188 53q0-8 5-13.5t13-5.5h52q8 0 15 4t11 11q4 7 3.5 15.5T283 80l-48 54h34q8 0 13 5.5t5.5 13.5q.5 8-5 13.5T269 172h-52q-8-1-15-5t-11-11q-4-7-3.5-15t4.5-15l48-55h-34q-8 0-13-5t-5-13zm100 193v69q0 8-5.5 13.5T269 334q-8 0-13.5-5.5T250 315v-19h-25v19q0 8-5.5 13.5T206 334q-8 0-13-5.5t-5-13.5v-69q0-20 14.5-35t35-15q20.5 0 35.5 15t15 36v-1zm-32 19v-19q0-7-5.5-12.5t-13-5.5q-7.5 0-13 5.5T219 247v18h37zM103 43q-9-10-22-10T59 43L12 89q-6 6-6 13.5t5.5 13q5.5 5.5 13.5 6t13-5.5l25-24v223q0 8 5 13.5t13 5.5q8 0 13.5-5.5T100 315V92l24 24q6 5 13.5 5t13-5.5q5.5-5.5 5.5-13T151 89l-48-46z"/></svg>