<svg viewBox="0 0 300 368" xmlns="http://www.w3.org/2000/svg"><path d="M220 140q5 5 5 13t-6 13l-57 56q-13 12-31 12t-30-12l-20-18q-6-5-6-13t5-13.5q5-5.5 13-6t13 4.5l20 18q2 2 5 2.5t5-1.5l57-56q6-5 13.5-5t13.5 6zm71 79l-41 68q-9 16-25 25t-34 9h-82q-18 0-34-9t-25-25L9 219q-9-16-9-35t9-35l41-69q9-15 25-24.5t34-9.5h82q18 0 34 9.5T250 80l41 69q9 16 9 35t-9 35zm-33-51l-40-69q-4-7-11.5-11T191 84h-82q-8 0-15.5 4T82 99l-40 69q-4 7-4 15.5t4 16.5l40 69q4 7 11.5 11t15.5 4h82q8 0 15.5-4t11.5-11l40-69q5-8 4.5-16.5T258 168z"/></svg>