<svg viewBox="0 0 300.009 368" xmlns="http://www.w3.org/2000/svg"><path d="M132.01 228q5 5 5 13t-5 14l-69 68q-11 12-27 11.5t-26-12q-10-11.5-9-26.5t11-26l68-68q5-5 13-5t14 5l25 26zm67-56q12 0 23.5 4.5t20.5 13.5q5 4 11 4.5t8-1.5q18-12 28-31t10-40q0-8-1-15.5t-8.5-9.5q-7.5-2-12.5 3l-20 21q-11 11-24 12.5t-23-7q-10-8.5-10.5-22.5t8.5-23l25-25q5-5 3-12t-9.5-8.5q-7.5-1.5-14.5-1.5-27 0-49.5 15t-31.5 40q-2 5-1 10t4 9l64 64zm26 35q-7-7-16-9.5t-19 .5l-90-91V84q0-7-3.5-13t-9.5-10l-43-24q-6-4-12.5-3t-11.5 6l-14 14q-5 5-6 11.5t3 12.5l24 43q4 6 10 9.5t13 3.5h23l91 90q-3 10-.5 19t9.5 16l63 63q11 11 27 11.5t26.5-10q10.5-10.5 10.5-25t-10-27.5l-65-64z"/></svg>