<svg viewBox="0 0 300 368" xmlns="http://www.w3.org/2000/svg"><path d="M163 315q0 8-5.5 13.5T144 334H69q-19 0-34.5-9.5t-25-25Q0 284 0 265V103q0-19 9.5-34.5t25-25Q50 34 69 34h79q29 0 49 20l33 33q15 16 19 38 1 8-4 14.5t-14 6.5h-68q-11 0-18-7t-7-18V71H69q-13 0-22.5 9.5T37 103v162q1 13 10 22.5t22 9.5h75q8-1 13.5 4.5T163 315zm137-106v44q0 32-24 55-15 14-35 22l-3 1q-3 1-6 1t-8-1l-3-2q-20-10-35-24-23-24-23-52v-44q-1-9 5-17t15-11l42-14q6-2 12 0l43 14q9 3 14.5 11t5.5 17zm-37 6l-32-11-31 11v38q0 12 12 25 8 8 20 15 12-6 19-14 11-12 11-26v-38h1zm-144 6H88q-8 0-13.5 5.5T69 240q0 8 5.5 13.5T88 259h31q8 0 13.5-5.5T138 240q0-8-5.5-13.5T119 221zm0-62H88q-8 0-13.5 5.5T69 178q0 8 5.5 13t13.5 5h31q8 0 13.5-5t5-13q-.5-8-5.5-13.5t-13-5.5z"/></svg>