<svg viewBox="0 0 300 368" xmlns="http://www.w3.org/2000/svg"><path d="M300 128q0-27-14-49.5T248 44q-24-12-50.5-9.5T150 53q-23-18-52-19T44.5 48Q20 63 8 89.5t-7 55q5 28.5 25.5 49T75 220v39H63q-8 0-13.5 5.5T44 278q0 8 5.5 13t13.5 5h12v19q0 8 5.5 13.5T94 334q8 0 13-5.5t6-13.5v-19h12q8 0 13.5-5t5.5-13q0-8-5.5-13.5T125 259h-12v-39q20-5 37-17 17 12 38 17v39h-13q-8 0-13.5 5.5T156 278q0 8 5.5 13t13.5 5h13v19q0 8 5 13.5t13 5.5q8 0 13.5-5.5T225 315v-19h13q7 0 12.5-5t5.5-13q0-8-5.5-13.5T237 259h-12v-39q33-7 54-33t21-59zm-262 0q-1-16 7-29.5T67 78q14-7 29.5-6.5T125 81q-13 22-13 47t13 46q-13 9-28.5 10T67 177.5q-14-7.5-22-21T37 128h1zm112 0q0-24 16.5-40t40-16.5q23.5-.5 39.5 16t16.5 40q.5 23.5-16 40t-40 16.5q-23.5 0-40-16.5T150 128z"/></svg>