<svg viewBox="0 0 300 368" xmlns="http://www.w3.org/2000/svg"><path d="M288 309v6q0 8-5.5 13.5T269 334q-8 0-13.5-5.5T250 315v-6q0-11-6-19t-16-11l-65-20v45q0 12-9 21t-22 9h-9q-17 0-30-11l-21-19q-8-7-9-17.5t5.5-18.5q6.5-8 17-9t18.5 6l21 16V165q0-9 7-14.5t16-3.5q7 2 11 7.5t4 11.5v54l76 23q21 6 35 24.5t14 41.5zM63 76q-2 0-3 1l-9 26h23l-9-26q-1-1-2-1zm0 83q-17 0-31.5-8.5t-23-23Q0 113 0 96.5t8.5-31q8.5-14.5 23-23t31-8.5q16.5 0 31 8.5t23 23q8.5 14.5 8.5 31t-8.5 31q-8.5 14.5-23 23T62 159h1zm-16-42h31l4 10q1 4 6 4 3 0 5.5-2.5t.5-6.5L77 72q-2-6-5.5-8t-9-2q-5.5 0-9 2T47 72l-16 50q-2 4 0 6.5t6.5 2.5q4.5 0 5.5-4l4-10zm103-21q0-16 8.5-30.5t23-23q14.5-8.5 31-8.5t31 8.5q14.5 8.5 23 23t8.5 31q0 16.5-8.5 31t-23 23q-14.5 8.5-31 8.5t-31-8.5q-14.5-8.5-23-23T150 96zm35 13q0 9 6.5 15.5T207 131h19q8 0 14.5-5.5T247 112q1-6-2-11t-7-8q2-5 2-11 0-8-6.5-14T219 62h-11q-10 0-16.5 6.5T185 84v25zm41-27q0-3-2-4.5t-5-1.5h-13q-3 0-5 2t-2 5v7h20q4 0 6-2.5t1-5.5zm-20 35h20q3 0 5-1.5t2.5-4.5q.5-3-2-5.5T226 103h-27v7q0 3 2 5t5 2z"/></svg>