<svg viewBox="0 0 300 368" xmlns="http://www.w3.org/2000/svg"><path d="M287 149l-40-68q-9-16-25-25.5T188 46h-76q-18 0-34 9.5T53 81l-40 68q-9 16-9 34.5t9 34.5l41 70q10 15 25.5 24.5T114 322h72q19 0 34.5-9.5T246 288l41-70q9-16 9-34.5t-9-34.5zm-33 19l2 4h-27l-30-51 14-24 41 71zm-125 3h-29l15-24 14 24zm7-37h28l-14 24-14-24zm-8 62l-13 24-14-24h27zm22 13l14 25h-28l14-25zm22-13h27l-14 24-13-24zm-1-25l14-25 15 25h-29zm17-87h3l-13 25h-56l-13-25h79zM85 100q1-2 2-3l14 24-30 50H44l41-71zm-39 99l-2-2h28l29 49-14 24-41-71zm68 85h-6l14-25h56l14 25h-78zm99-15v1l-14-24 29-49h28l-43 72z"/></svg>