<svg viewBox="0 0 300 368" xmlns="http://www.w3.org/2000/svg"><path d="M238 84q-13 0-24.5 4.5T194 102q-9-9-22-14 2-9 6-16 3-5 5-7 5-6 4.5-13.5t-6-12.5q-5.5-5-13.5-5t-13 5.5q-5 5.5-9 14.5-9 15-12 32-17 5-28 16-8-9-19.5-13.5T62 84q-16 0-30.5 8.5t-23 23Q0 130 0 146.5T6 192q8 34 20 63 14 35 33 55 22 24 47 24 13 0 24-4.5t20-13.5q9 9 20 13.5t24 4.5q27 0 49-25 19-20 33-57 11-29 18-63 6-28 6-43.5t-8.5-30q-8.5-14.5-23-23T238 84zm-44 212q-7 0-12.5-3t-9-9q-3.5-6-9.5-9.5t-13-3.5q-7 0-13 3.5t-9.5 9.5q-3.5 6-9 9t-12.5 3q-16 0-33-30-15-25-25-63-10-35-10-57 0-10 7-17.5t17.5-7q10.5.5 18 7.5t7.5 17q-1 13 3 33.5t10 41.5q2 6 7 9.5t11 3.5q3 0 6-1 7-2 10.5-9t1.5-14q-6-20-9-38-3-16-3-26t7.5-17q7.5-7 17.5-7 7 0 12.5 3t9 9q3.5 6 9.5 9.5t13 3.5q7 0 12.5-3.5t9-9.5q3.5-6 9.5-9t13-3q10 0 17.5 7t7.5 18q0 22-10 57-11 38-25 63-18 30-34 30v-1z"/></svg>