<svg viewBox="0 0 300 368" xmlns="http://www.w3.org/2000/svg"><path d="M208 172q5 6 5 13.5t-6 12.5l-38 36q-12 12-30 12t-31-12l-14-13q-6-5-6.5-12.5T92 195q5-6 12.5-6.5T118 193l16 14q2 2 4.5 2t4.5-2l38-36q6-5 14-5t13 6zm80-82q0 8-5.5 13.5T269 109h-6v156q-1 19-10 34.5t-25 25q-16 9.5-34 9.5h-88q-18 0-34-9.5t-25-25Q38 284 38 265V109h-7q-8 0-13-5.5T13 90q0-8 5-13.5T31 71h47q6-16 20.5-26.5T131 34h38q18 0 32.5 10.5T222 71h47q8 0 13.5 5.5T288 90zm-63 19H75v156q0 13 9 22.5t22 9.5h88q13-1 22-10t9-22V109z"/></svg>