<svg viewBox="0 0 300 368" xmlns="http://www.w3.org/2000/svg"><path d="M281 121q8 0 13.5-5t5.5-13V78q0-8-5.5-13.5T281 59h-22q-9-12-23-18.5T206 34H69q-19 0-34.5 9.5t-25 25Q0 84 0 103v175q0 23 16.5 39.5T56 334h150q27 0 46.5-18t22.5-45h6q8 0 13.5-5t5.5-13v-25q0-8-5.5-13.5T281 209h-6v-13h6q8 0 13.5-5t5.5-13v-25q0-8-5.5-13.5T281 134h-6v-13h6zm-43-18v118H113V71h93q13 0 22 9.5t9 22.5h1zM69 71h6v150H56q-9 0-18 4V103q0-13 9-22t22-9v-1zm137 225H56q-8 0-13.5-5t-5-13q.5-8 5.5-13.5t13-5.5h182v6q0 13-9.5 22.5T206 297v-1z"/></svg>