<svg viewBox="0 0 300 368" xmlns="http://www.w3.org/2000/svg"><path d="M260 140q-12-9-14.5-12.5T242 97q-1-27-4-38-5-19-19-23-12-4-27 2-9 3-26 15-13 8-19 12-10 6-17 6.5T113 69q-6-2-19-8h-1Q71 51 59 49q-19-3-33 7Q9 69 12 92q1 13 12 37 6 12 8 18 3 10 2 16.5T29 177q-3 5-10 14-9 11-13 19-6 11-6 24 0 24 20 33 12 5 37 7 14 1 20 2 11 2 18.5 6t13.5 10q4 4 11 13 10 14 18 19 13 10 30.5 10t28.5-18q7-11 14-38 7-22 9.5-25t24.5-10q26-9 37-16 18-12 18-30t-14-34q-7-9-26-23zm-27 67q-16 6-23 9-12 5-17.5 11.5T182 246q-2 6-7 22-6 22-10 28-3 0-6-3t-9-11q-9-11-15-17-10-10-22-16t-27-9q-9-2-26-3-18-1-22-3 0-4 2.5-8t8.5-12q9-12 13-19 8-13 9.5-26.5T69 140q-3-10-11-27-10-22-9-27 3-2 29 9 17 8 27 11 15 4 28.5 2.5T162 100q9-5 25-16 11-8 16-10 1 6 2 23v1q1 21 2 31 3 15 10 24 6 6 21 17l15 12q8 8 9 13-5 4-29 12z"/></svg>