<svg viewBox="0 0 300 368" xmlns="http://www.w3.org/2000/svg"><path d="M281 203q8 0 13.5-5.5T300 184q0-8-5.5-13.5T281 165h-6v-31h6q8 0 13.5-5.5T300 115q0-8-5.5-13.5T281 96h-14q-10-19-29-29V53q0-8-5.5-13.5T219 34q-8 0-13.5 5.5T200 53v6h-31v-6q0-8-5.5-13.5T150 34q-8 0-13.5 5.5T131 53v6h-31v-6q0-8-5.5-13.5T81 34q-8 0-13.5 5.5T62 53v14Q43 77 33 96H19q-8 0-13.5 5.5T0 115q0 8 5.5 13.5T19 134h6v31h-6q-8 0-13.5 5.5T0 184q0 8 5.5 13.5T19 203h6v31h-6q-8 0-13.5 5.5T0 253q0 8 5.5 13t13.5 5h14q10 20 29 30v14q1 8 6 13.5t13 5.5q8 0 13.5-5.5T100 315v-6h31v6q0 8 5.5 13.5T150 334q8 0 13.5-5.5T169 315v-6h31v6q0 8 5.5 13.5T219 334q8 0 13-5.5t5-13.5v-14q20-10 30-29h14q8 0 13.5-5.5T300 253q0-8-5.5-13.5T281 234h-6v-31h6zm-43 37q0 13-9.5 22.5T206 272H94q-13-1-22-10t-9-22V128q0-13 9-22t22-9h112q13-1 22.5 8.5T238 128v112zm-87-97q-2-7-5.5-12t-9.5-7q-12-5-23 .5T99 142l-20 89q-2 6 2 11t10 5q4 0 7.5-3t4.5-7l1-3h42l1 3q1 4 4.5 7t8.5 3q5 0 9-5t2-11l-20-88zm-42 66l15-61q0-2 1-2t1 2l15 61h-32zm103-75v100q0 5-3.5 9t-8.5 3.5q-5-.5-9-4t-4-8.5V134q0-5 4-9t9-4q5 0 8.5 4t3.5 9z"/></svg>