<svg viewBox="0 0 300 368" xmlns="http://www.w3.org/2000/svg"><path d="M231 34H69q-19 0-34.5 9.5t-25 25Q0 84 0 103v112q0 19 9.5 34.5t25 25Q50 284 69 284h15l45 38q9 8 21 8t20-8l47-38h14q19 0 34.5-9.5t25-25Q300 234 300 215V103q0-19-9.5-34.5t-25-25Q250 34 231 34zm32 181q0 13-9.5 22.5T231 247h-21q-7-1-12 4l-48 39-47-39q-5-4-12-5H69q-13 0-22.5-9T37 215V103q1-13 10-22t22-9h162q13-1 22 8.5t9 22.5v112h1zm-94 13q0 8-5.5 13.5t-13.5 5q-8-.5-13.5-5.5t-5.5-13q0-8 5.5-13.5T150 209q8 0 13.5 5.5T169 228zm29-107q5 18-3 34.5T171 179q-2 1-3 3-1 7-6.5 11t-11.5 4l-5-1q-7-2-11-8.5t-2-15q2-8.5 8.5-16T155 145q4-1 6-5t1-10q-1-3-3-5t-5-3q-6-2-11 1t-6 8q-1 8-7.5 12.5t-14.5 3q-8-1.5-12-8t-3-14.5q2-10 8-18.5T123 92q19-12 40-6 13 3 22.5 12.5T198 121z"/></svg>