<svg viewBox="0 0 300 368" xmlns="http://www.w3.org/2000/svg"><path d="M220 166l-18 18 18 18q5 5 5 13t-5.5 13.5Q214 234 206 234t-13-5l-18-18-18 18q-5 5-13 5t-13.5-5.5Q125 223 125 215t5-13l18-18-18-18q-5-5-5-13t5.5-13.5Q136 134 144 134t13 5l18 18 18-18q5-5 13-5t13.5 5.5Q225 145 225 153t-5 13zm80-45v125q0 17-8.5 31.5t-23 23Q254 309 237 309H125q-16 0-30.5-7T70 282L4 195q-4-5-4-11t4-11l66-87q10-13 24.5-20t30.5-7h113q16 0 30.5 8.5t23 23Q300 105 300 122v-1zm-37 0q0-10-7.5-17T237 97H125q-8 0-14.5 3t-10.5 9l-58 75 58 75q4 6 10.5 9t14.5 3h113q10 0 17-7t7-18l1-125z"/></svg>