<svg viewBox="0 0 300.0025 368" xmlns="http://www.w3.org/2000/svg"><path d="M281.002 34h-6q-15 0-26.5 8.5t-15.5 22.5l-1 2-13-4q-7-2-14 1.5t-9.5 10.5q-2.5 7 1 14t10.5 10l14 4-6 19-14-4q-7-3-14 .5t-9.5 11q-2.5 7.5 1 14.5t10.5 9l15 5q-10 28-24 51-17 25-29.5 25t-12.5-13v-18q0-4 1-9 3-9 10-11t10.5-7.5q3.5-5.5 2.5-12.5t-6-12q-5-5-12-5h-125q-7 0-12.5 5t-6.5 12q-1 7 3 12.5t10.5 7.5q6.5 2 9.5 11 2 5 2 9v29q0 30 12 53t34 36q22 13 48 13 17 0 32-6 20-7 35-22t21-35q6-17 34-106l28-89q1-4 6-4h6q8 0 13.5-5.5t5.5-13.5q0-8-5.5-13.5t-13.5-5.5zm-143 259q-12 5-24.5 3.5t-24.5-8.5q-15-9-22-29-4-12-4-27v-29q0-9-3-19h43q-3 10-3 19v18q0 12 5 23.5t16 18.5q12 8 29 8 9 0 18-3-11 18-30 25zm-125-185q2-8 6.5-17.5t9.5-15.5q3-4 8-3.5t7 5.5l1 6q1 6 2 9 3 5 8.5 5t7.5-6q1-4 2-15.5t2-17.5q2-11 5-17t9-7q6-1 11 3h1q23 20 34 32 19 20 23 40 1 5-2.5 8.5t-8.5 3.5h-115q-6 0-9-3.5t-2-9.5z"/></svg>