<svg viewBox="0 0 300 368" xmlns="http://www.w3.org/2000/svg"><path d="M219 34H81q-18 0-34 9.5t-25 25Q13 84 13 103v175q0 12 4.5 23T31 320q6 5 14 4.5t13-6.5q5-6 4.5-13.5t-6.5-13q-6-5.5-6-13.5t5.5-13.5Q61 259 69 259h19v67q-1 6 5 7.5t9-2.5l17-22 16 22q4 4 9.5 2.5t5.5-7.5v-67h100v6q0 13-9 22.5t-22 9.5h-25q-8 0-13.5 5t-5.5 13q0 8 5.5 13.5T194 334h25q18 0 34-9.5t25.5-25Q288 284 288 265V103q0-19-9.5-34.5t-25.5-25Q237 34 219 34zM50 225V103q0-13 9-22t22-9h7v149H69q-10 0-19 4zm200-4H125V71h94q13 0 22 9.5t9 22.5v118z"/></svg>