<svg viewBox="0 0 300 368" xmlns="http://www.w3.org/2000/svg"><path d="M100 241q0 4-3.5 7t-7.5 3H78v-21h11q4 0 7.5 3t3.5 8zm51-11h-10v44h10q5 0 8-3.5t3-7.5v-22q0-5-3-8t-8-3zm124-94v129q0 19-9.5 34.5t-25 25Q225 334 206 334H94q-19 0-34.5-9.5t-25-25Q25 284 25 265V103q0-19 9.5-34.5t25-25Q75 34 94 34h79q29 0 49 20l33 33q20 20 20 49zM115 241q0-11-7.5-19T89 214H75q-5 0-8.5 4t-3.5 9v55q0 4 2 6t5 2q3 0 5.5-2t2.5-6v-15h11q11 0 18.5-7.5T115 241zm63 0q0-11-8-19t-19-8h-13q-6 0-9.5 4t-3.5 9v55q0 4 2 5.5t6 1.5h18q11 0 19-7.5t8-18.5v-22zm59-20q-1-2-3-4t-5-2h-29q-3 0-5.5 2.5T192 223v60q0 3 2.5 5.5t5.5 2.5q3 0 5.5-2.5t2.5-5.5v-22h15q4 0 6-2.5t2-5.5q0-3-2.5-5.5T223 245h-15v-14h21q3 0 5-1.5t3-4.5v-4zm1-37v-38h-50q-11 0-18-7t-7-18V71H94q-13 0-22 9.5T63 103v81h175z"/></svg>