<svg viewBox="0 0 300 368" xmlns="http://www.w3.org/2000/svg"><path d="M150 271q24 0 44-11.5t31.5-31.5q11.5-20 11.5-44v-63q0-23-11.5-43T194 46q-20-12-44-12t-44 12Q86 58 74 78t-12 43v63q1 24 12.5 44t31.5 31.5q20 11.5 44 11.5zm0-200q21 1 35.5 15.5T200 121v13h-19q-8 0-13.5 5.5t-5 13.5q.5 8 5.5 13.5t13 5.5h19v12q0 21-14.5 35.5T150 234q-21 0-35.5-14.5T100 184v-13h19q8 0 13-5t5.5-13q.5-8-5-13.5T119 134h-19v-13q0-20 14.5-35T150 71zm131 107q-8 0-13.5 5.5T262 197v4q0 26-12.5 48T215 283.5Q193 296 167 296h-34q-26 0-48-12.5T50.5 249Q38 227 38 201v-5q0-7-5.5-12.5T19 178q-8 0-13.5 5.5T0 197v4q0 36 18 66.5T66.5 316Q97 334 133 334h34q36 0 66.5-18t48.5-48.5q18-30.5 18-66.5v-5q0-7-5.5-12.5T281 178z"/></svg>