<svg viewBox="0 0 300 368" xmlns="http://www.w3.org/2000/svg"><path d="M231 59H69q-19 0-34.5 9.5t-25 25Q0 109 0 128v112q0 19 9.5 34.5t25 25Q50 309 69 309h162q19 0 34.5-9.5t25-25Q300 259 300 240V128q0-19-9.5-34.5t-25-25Q250 59 231 59zm32 181q0 13-9.5 22t-22.5 9H69q-13 0-22-9t-9-22V121h224l1 7v112zm-113-75q0 8-5.5 13.5T131 184h-6v44q0 8-5.5 13t-13.5 5q-8 0-13-5t-5-13v-44h-7q-8 0-13-5.5T63 165q0-8 5-13.5t13-5.5h50q8 0 13.5 5.5T150 165zm88 0q0 8-5.5 13.5T219 184h-25q-8 0-13.5-5.5T175 165q0-8 5.5-13.5T194 146h25q8 0 13.5 5.5T238 165zm0 63q0 8-5.5 13t-13.5 5h-25q-8 0-13.5-5t-5.5-13q0-8 5.5-13.5T194 209h25q8 0 13.5 5.5T238 228z"/></svg>