<svg viewBox="0 0 300 368" xmlns="http://www.w3.org/2000/svg"><path d="M244 259h-19V103q0-19-9.5-34.5t-25-25Q175 34 156 34H69q-19 0-34.5 9.5t-25 25Q0 84 0 103v181q0 21 14.5 35.5T50 334h169q18 0 31-13t13-31v-12q-1-8-6-13.5t-13-5.5zm-56 0H81q-8 0-13 5.5T63 278v6q0 5-4 9t-9 3.5q-5-.5-9-4t-4-8.5V103q1-13 10-22t22-9h87q13-1 22 8.5t9 22.5v156h1zM138 99q6 6 6 13.5t-6 13.5l-23 23q-10 10-24 10t-23-10l-13-12q-5-5-5-13t5.5-13.5Q61 105 69 105t13 6l9 9 21-21q5-5 13-5t13 5zm0 75q6 6 6 13.5t-6 13.5l-23 23q-10 10-24 10t-23-10l-13-12q-5-5-5-13t5.5-13.5Q61 180 69 180t13 6l9 9 21-21q5-5 13-5t13 5zM300 60v144q0 20-14 33l-7 8q-2 1-4 1t-4-1l-7-8q-14-13-14-33V59q0-11 8-18.5t18.5-6.5q10.5 1 17 8.5T300 60z"/></svg>