<svg viewBox="0 0 300 368" xmlns="http://www.w3.org/2000/svg"><path d="M291 327q6-4 8-11.5t-1.5-14.5q-3.5-7-11-9t-14 1.5q-6.5 3.5-12.5 3t-11-4.5q-11-7-24-7t-24 7q-6 4-13.5 4t-13.5-4q-11-7-24-7t-24 7q-6 4-13.5 4T99 292q-11-7-24-7t-24 7q-5 4-11 4.5t-12.5-3q-6.5-3.5-14-1.5t-11 9Q-1 308 1 315.5T9 327q15 8 32.5 7T72 323q3-2 6 0 15 11 34.5 11t34.5-11q3-2 6 0 15 11 34.5 11t34.5-11q3-2 6 0 15 11 35 11 15 0 28-7zM38 240v-66q0-3 1-5l89-88q9-10 22-10t22 10l89 88q1 2 2 5v66q0 8 5 13.5t13 5.5q8 0 13.5-5.5T300 240v-66q0-19-13-31l-88-89q-14-13-31.5-17.5t-35 0Q115 41 101 54l-88 89Q0 155 0 174v66q0 8 5.5 13.5T19 259q8 0 13.5-5.5T38 240zm114-31h-4q-20 0-34 14t-14 34v2h100v-2q0-20-14-34t-34-14z"/></svg>