<svg viewBox="0 0 300 368" xmlns="http://www.w3.org/2000/svg"><path d="M131 165V65q0-8 5.5-13.5t13.5-5q8 .5 13.5 5.5t5.5 13v100q0 8-5.5 13.5T150 184q-8 0-13.5-5.5T131 165zm19 69q8 0 13.5-5.5T169 215q0-8-5.5-13t-13.5-5.5q-8-.5-13.5 5T131 215q0 8 5.5 13.5T150 234zm150-45q0-26-8.5-50.5T267 94q-15-18-17-41 0-8-5.5-13.5T231 34q-8 0-13.5 5.5T212 53q2 37 26 64 14 17 20.5 39t3 44q-3.5 22-16 41T214 272H86q-19-12-31.5-31t-16-41q-3.5-22 3-44T62 117q24-27 26-64-1-8-6-13.5T69 34q-8 0-13.5 5.5T50 53q-2 23-17 41-19 23-27.5 51.5t-4 58.5Q6 234 22 259t41 42v14q0 8 5 13.5t13 5.5q8 0 13.5-5.5T100 315v-6h31v6q0 8 5.5 13.5T150 334q8 0 13.5-5.5T169 315v-6h31v6q0 8 5.5 13.5T219 334q8 0 13.5-5.5T238 315v-14q28-19 44.5-48.5T300 189z"/></svg>