<svg viewBox="0 0 300 368" xmlns="http://www.w3.org/2000/svg"><path d="M38 196q0 8-5.5 13.5T19 215q-8 0-13.5-5.5t-5.5-13q0-7.5 5.5-13T19 178q8 0 13 5.5t5 12.5h1zm18-75q8 1 13.5-4.5T75 103q0-8-5.5-13.5T56 84q-8 0-13 5.5T38 103q0 8 5 13.5t13 5.5v-1zm188 0q8 1 13.5-4.5t5-13.5q-.5-8-5.5-13.5T244 84q-8 0-13.5 5.5T225 103q0 8 5.5 13.5T244 122v-1zm-94-37q8 0 13.5-5.5T169 65q0-8-5.5-13.5T150 46q-8 0-13.5 5.5T131 65q0 8 5.5 13.5T150 84zM56 271q-8 0-13 5.5T38 290q0 8 5 13.5t13 5.5q8 0 13.5-5.5T75 290q0-8-5.5-13.5T56 272v-1zm188 0q-8 1-13.5 6t-5.5 13q0 8 5.5 13.5T244 309q8 0 13.5-5.5t5-13.5q-.5-8-5.5-13.5t-13-4.5v-1zm37-93q-8 0-13 5.5t-5 13q0 7.5 5 13t13 5.5q8 0 13.5-5.5t5.5-13q0-7.5-5.5-13T281 178zm-44 25q-1 23-14 41.5t-33 29Q170 284 147 284t-42.5-11.5Q85 261 74 242t-11-42q0-23 10.5-43.5t29-33Q121 111 144 109q26-2 48 10.5t34.5 35Q239 177 237 203zm-37-7q0-20-14.5-35T150 146.5q-21 .5-35.5 15T100 197q0 10 4 19l33-33q5-5 13-5t13.5 5.5q5.5 5.5 5.5 13t-6 13.5l-33 33q10 3 20 3 21 0 35.5-14.5T200 196z"/></svg>