<svg viewBox="0 0 300 368" xmlns="http://www.w3.org/2000/svg"><path d="M244 34q-24 0-40 16.5T188 90q0 8 5 13.5t13 5.5q8 0 13.5-5.5T225 90t5.5-13.5Q236 71 244 71t13.5 5.5Q263 82 263 90v114q-23-11-47-5.5T177 223q-12-8-27-8t-27 8q-15-19-39-24.5T37 204V90q1-8 6-13.5T56 71q8 0 13.5 5.5T75 90t5.5 13.5Q86 109 94 109t13-5.5q5-5.5 6-13.5 0-23-16.5-39.5T56.5 34q-23.5 0-40 16.5T0 90v175q0 19 9 35t25 25q16 9 34.5 9t34.5-9q16-9 25.5-25t9.5-35q0-5 3.5-8.5t8.5-3.5q5 0 9 3.5t4 8.5q0 19 9 35t25 25q16 9 34.5 9t34.5-9q16-9 25-25t9-35V90q0-23-16.5-39.5T244 34zM69 296q-13 0-22-9t-9-22q0-13 9-22t22-9q13 0 22 9t9 22q0 13-9 22t-22 9zm162 0q-13 0-22-9t-9-22q0-13 9-22t22-9q13 0 22.5 9t9 22q-.5 13-9.5 22t-22 9z"/></svg>