<svg viewBox="0 0 300 368" xmlns="http://www.w3.org/2000/svg"><path d="M222 261q3 3 3 7t-2 7l-43 43q-16 16-38 16-14 0-26.5-6.5t-20-19.5Q88 295 88 279v-45q0-5 3.5-8.5t8.5-3.5q5 0 9 3.5t4 8.5v14l54-55q3-3 7.5-3t7.5 3q3 3 3 7.5t-3 7.5l-38 38 13 12 46-46q3-3 7-3t7.5 3q3.5 3 3.5 7.5t-3 7.5l-46 45 12 12 23-23q3-3 7.5-3t7.5 3zM150 34q-41 0-75.5 20T20 108.5Q0 143 0 184q0 49 29 88 5 8 15 8 6 0 11.5-4t6.5-12q1-8-3-14-21-29-21-66 0-31 15-56.5t40.5-41Q119 71 150 71t56.5 15.5q25.5 15.5 41 41T263 183q0 30-14 55-4 6-1.5 13.5t9 11.5q6.5 4 14 1.5T282 255q18-33 18-71 0-41-20-75.5T225.5 54Q191 34 150 34zm-50 135v-2 2q2 7 7 11t12 4h4q7-2 11.5-8.5T137 161q-3-16-13-27.5T100 122q-14 0-24 11.5T63 161q-2 8 2.5 14.5t12 8q7.5 1.5 14-2.5t8.5-12zm100-48q-14 0-24 12t-13 28q-2 8 2.5 14.5t12 8q7.5 1.5 14-2.5t8.5-12v-2 2q2 7 7 11t12 4h4q7-2 11.5-8.5T237 161q-3-16-13-27.5T200 122v-1z"/></svg>