<svg viewBox="0 0 300 368" xmlns="http://www.w3.org/2000/svg"><path d="M256 212v-58q5-3 8-6l25-25q11-11 11-26.5T289 70l-25-25q-11-11-26.5-11T211 45l-25 24q-3 4-6 9h-58q-6-19-22.5-31.5T63 34q-17 0-31.5 8.5t-23 23Q0 80 0 97.5t10.5 33Q21 146 38 154v67q-16 0-27 11T0 259v37q0 16 11 27t27 11h37q16 0 27-11t11-27v-37q0-16-11-27t-27-11v-63q17-4 29.5-15.5T122 115h58q3 5 6 8l24 25q4 3 9 6v58q-19 6-31.5 22.5T175 272q0 16 8.5 30.5t23 23q14.5 8.5 31 8.5t31-8.5q14.5-8.5 23-23T300 271q0-20-12.5-36.5T256 212zM75 297H38v-38h37v38zM63 122q-11 0-18-7.5t-7.5-18Q37 86 44.5 79t18-7q10.5 0 18 7T88 96.5q0 10.5-7.5 18T62 122h1zm174-50h1l24 25-25 24-24-25 24-24zm1 225q-11 0-18-7.5t-7.5-18q-.5-10.5 7-17.5t18-7q10.5 0 18 7t7.5 17.5q0 10.5-7.5 18T238 297z"/></svg>