<svg viewBox="0 0 300 368" xmlns="http://www.w3.org/2000/svg"><path d="M101 201q6-6 9.5-12t0-11.5Q107 172 101 172H62q-7 0-10.5 5.5t0 11.5q3.5 6 9.5 12-25 8-43 32T0 284q0 21 14.5 35.5T50 334h63q20 0 35-14.5t15-35.5q0-27-18-51t-44-32zm12 95H50q-5 0-8.5-3.5T38 284q0-11 6-22.5T60.5 243q10.5-7 21-7t20.5 7q10 7 16.5 18.5T125 284q0 5-3.5 9t-9.5 4l1-1zM300 78v12q0 8-5.5 13.5T281 109h-18v156q0 19-9.5 34.5t-25.5 25q-16 9.5-34 9.5-8 0-13.5-5.5T175 315q0-8 5.5-13t13.5-5q13-1 22-10t9-22V109H119q-8 0-13.5-5.5T100 90v-6q0-5-3.5-9t-9-3.5q-5.5.5-9 4T75 84v44q0 8-5.5 13T56 146.5q-8 .5-13.5-5T37 128V84q1-21 15.5-35.5T87 34h169q18 0 31 13t13 31z"/></svg>