<svg viewBox="0 0 300 368" xmlns="http://www.w3.org/2000/svg"><path d="M200 278q0 6-4 11t-9 7q2 5 1.5 11t-5.5 11q-5 5-13 5-4 0-8-2-2 5-7 9t-11.5 4q-6.5 0-11-4t-6.5-9q-5 2-9 2-8 0-12.5-5T99 307q-1-6 2-11-6-2-9.5-7T88 277.5q0-6.5 3.5-11t9.5-6.5q-3-6-2-12t5-10q4-4 10-5t12 2q2-6 6.5-10t11-4q6.5 0 11.5 4t7 10q5-3 11-2t10.5 5q4.5 4 5 10t-1.5 12q5 2 9 6.5t4 11.5zm31 18q-8 0-13.5 5.5T212 315q0 8 5.5 13.5T231 334q8 0 13.5-5.5T250 315q0-8-5.5-13.5T231 297v-1zm-175 0q-8 0-13 5.5T38 315q0 8 5 13.5t13 5.5q8 0 13.5-5.5T75 315q0-8-5.5-13.5T56 297v-1zM218 85q-10-23-31-37t-46-14q-31 0-54.5 19.5T58 103q-21 8-33 27t-12 41q0 19 8.5 35.5T46 234q6 4 14 2.5t12-8q4-6.5 2.5-14T66 202q-7-5-11.5-13T50 171q0-13 8-23t21-13q7-1 11-6t4-12q0-19 13.5-32T141 72q16-1 28.5 9.5T186 107q2 7 7 11t12 4h2q18 0 30.5 12.5T250 165q0 13-7 24t-19 16q-7 3-10 10.5t-.5 13.5q2.5 6 7.5 9t9.5 3q4.5 0 8.5-1 22-10 35.5-30.5T288 165q0-30-20-53t-50-27z"/></svg>