<svg viewBox="0 0 300 368" xmlns="http://www.w3.org/2000/svg"><path d="M150 34q-41 0-75.5 20T20 108.5Q0 143 0 184t20 75.5Q40 294 74.5 314t75.5 20q41 0 75.5-20t54.5-54.5q20-34.5 20-75.5t-20-75.5Q260 74 225.5 54T150 34zm0 262q-31 0-56.5-15t-41-40.5Q37 215 37.5 184T53 127.5q15-25.5 40.5-41t56.5-15q31 .5 56.5 15.5t40.5 40.5q15 25.5 15.5 56.5t-15 56.5Q232 266 206.5 281T150 296zm56-56q0 8-5.5 13.5T188 259h-50q-19 0-31.5-13T94 215v-87q0-8 5.5-13.5t13-5.5q7.5 0 13 5.5T131 128v87q0 3 2 4.5t5 1.5h50q7 1 12.5 6t5.5 13z"/></svg>