<svg viewBox="0 0 300 368" xmlns="http://www.w3.org/2000/svg"><path d="M300 136v112q0 19-9.5 35t-25 25q-15.5 9-34.5 9-11 0-16-9.5t0-18.5q5-9 17-9t21-9.5q9-9.5 9-22.5V136q1-3 0-6H38v118q0 13 9 22.5t21 9.5q12 0 17 9t0 18.5q-5 9.5-16 9.5-19 0-34.5-9t-25-25Q0 267 0 248V111q0-19 9.5-34.5t25-25Q50 42 69 42h31q11 0 20 5l39 19q2 1 3 1h69q19 0 34.5 9.5t25 25Q300 117 300 136zM190 255h-21v-69q0-12-9.5-16.5t-19 0Q131 174 131 186v69h-21q-5 0-8.5 3.5T98 267q0 5 4 9l39 40q4 3 9 3t9-3l39-40q4-4 4-9t-3.5-8.5Q195 255 190 255z"/></svg>