<svg viewBox="0 0 300 368" xmlns="http://www.w3.org/2000/svg"><path d="M197 179q3 6 3 13.5t-4 13.5l-36 57q-6 9-16 9-5 0-11-3.5t-7.5-11.5q-1.5-8 2.5-14l25-40h-26q-14 0-22-10.5t-4-23.5q1-3 2-5l37-59q4-6 12-8t14.5 2.5q6.5 4.5 8 12T172 125l-25 40h27q7 0 13.5 4t9.5 10zm103-76v162q0 19-9.5 34.5t-25 25Q250 334 231 334H69q-19 0-34.5-9.5t-25-25Q0 284 0 265V103q0-19 9.5-34.5t25-25Q50 34 69 34h162q19 0 34.5 9.5t25 25Q300 84 300 103zm-37 0q0-13-9.5-22.5T231 71H69q-13 0-22 9.5T38 103v162q0 13 9 22t22 9h162q13 0 22.5-9t9.5-22V103z"/></svg>