<svg viewBox="0 0 300 368" xmlns="http://www.w3.org/2000/svg"><path d="M298 221l-17-62q-10-33-37.5-54t-63-21Q145 84 117 106.5T81 164l-17 60q-3 14 0 27t11.5 23.5Q84 285 96 290.5t26 5.5h17q2 16 14 27t28.5 11q16.5 0 28.5-11t14-27h17q14 0 26.5-6t21-17q8.5-11 11-24.5T298 221zm-40 29q-6 9-17 9H122q-11 0-17.5-8t-4.5-18l17-60q5-23 23-37.5t40.5-14.5q22.5 0 40 13.5T244 169l18 62q2 11-4 19zM38 183q-2 10 4 18l2 2q6 5 6 13t-5.5 13.5q-5.5 5.5-13 5.5T18 230l-5-6q-8-10-11.5-23T1 174l17-60q8-35 36-57.5T119 34q8 0 15.5 1t12 7.5q4.5 6.5 3.5 14t-7.5 12Q136 73 128 72q-4-1-9-1-24 0-41.5 14.5T55 123l-17 60z"/></svg>