<svg viewBox="0 0 300 368" xmlns="http://www.w3.org/2000/svg"><path d="M173 249q1 8-3 14.5t-12 7.5h-4q-6 0-11.5-4t-6.5-11q-5-22-20.5-37.5T78 198q-8-2-12.5-8t-3-14q1.5-8 8-12t14.5-3q33 7 57 31t31 57zm-92-15q-8 0-13 5.5T63 253q0 8 5 13t13 5q8 0 13.5-5t5.5-13q0-8-5.5-13.5T81 234zm219-131v162q0 19-9.5 34.5t-25 25Q250 334 231 334H69q-19 0-34.5-9.5t-25-25Q0 284 0 265V103q0-19 9.5-34.5t25-25Q50 34 69 34h162q19 0 34.5 9.5t25 25Q300 84 300 103zm-37 0q0-13-9.5-22T231 72H69q-13-1-22 8.5T38 103v162q0 13 9 22t22 9h162q13 0 22.5-9t9.5-22V103zM83 98q-7-1-13 3.5T63 114q-1 8 3.5 14t12.5 7q31 4 57 20.5t42.5 42.5q16.5 26 20.5 57 1 7 7 11.5t14 4.5q8 0 12.5-6t3.5-14q-4-40-25.5-73T156 124q-33-21-73-26z"/></svg>