<svg viewBox="0 0 300.0022 368" xmlns="http://www.w3.org/2000/svg"><path d="M259.002 110q5-15 2.5-31t-15.5-28.5q-13-12.5-30-15.5-12-2-24.5 1t-21.5 11q-14 12-29.5 18.5t-31.5 6.5q-28 0-52 13t-39.5 35.5Q2.002 143 .002 170q-1 23 7 45t24 38q12 11 26 19l6 46q1 7 6 11.5t13 4.5q8 0 13.5-6.5t4.5-14.5l-4-30 10 1 15-1 4 35q1 7 6.5 11.5t13.5 4.5q8 0 13-6.5t4-14.5l-5-42q25-15 40-40.5t15-56.5v-15q0-8 2.5-11t8.5-4l4-2 7-3q25 22 40 57 9 22 12 45 0 2 2 4t4.5 2q2.5 0 4.5-2t2-5q-1-42-15-81-10-27-25-49zm-46-2q-21 6-31 22-7 12-7 29v16q0 18-8.5 34t-23 26q-14.5 10-32.5 11-15 1-29-4t-24.5-15.5q-10.5-10.5-15.5-24.5t-4-29q1-18 11-32.5t26-23q16-8.5 34-8.5 23 0 44.5-8.5t40.5-24.5q5-5 12-5l4 1q5 1 9.5 5t5.5 10.5q1 6.5-2.5 12t-9.5 8.5z"/></svg>