<svg viewBox="0 0 300 368" xmlns="http://www.w3.org/2000/svg"><path d="M150 209q20 0 37.5-10t27.5-27.5q10-17.5 10-37.5V78q0-18-13-31t-31-13h-62q-18 0-31 13T75 78v56q0 20 10 37.5t27.5 27.5q17.5 10 37.5 10zm0-38q-16 0-26.5-10.5T113 134h75q0 16-11 27t-27 11v-1zM125 71h13V59q-1-5 3-9t9-4q5 0 8.5 4t3.5 9v12h13q5 0 9 4t4 9q0 5-4 8.5t-9 3.5h-12v13q0 5-4 8.5t-9 3.5q-5 0-8.5-3.5T138 109V96h-13q-5 0-8.5-3.5T113 84q0-5 3.5-9t8.5-4zm138 244q0 8-5.5 13.5T244 334q-8 0-13.5-5.5T225 315q0-26-19-44l-43 45q-5 6-13 5.5t-14-5.5l-41-44q-20 18-20 43 0 8-5.5 13.5t-13 5.5q-7.5 0-13-5.5T38 315q0-41 32-71 11-11 27-10t26 13l27 29 29-30q4-5 11-8.5t15-3.5q15 0 27 10 30 29 30 71h1z"/></svg>