<svg viewBox="0 0 300 368" xmlns="http://www.w3.org/2000/svg"><path d="M150 34q-41 0-75.5 20T20 108.5Q0 143 0 184t20 75.5Q40 294 74.5 314t75.5 20q41 0 75.5-20t54.5-54.5q20-34.5 20-75.5t-20-75.5Q260 74 225.5 54T150 34zm0 262q-31 0-56.5-15t-41-40.5Q37 215 37.5 184T53 127.5q15-25.5 40.5-41t56.5-15q31 .5 56.5 15.5t41 40.5q15.5 25.5 15 56.5T247 240.5q-15 25.5-40.5 41T150 297v-1zm78-70l-16 23q-7 10-18.5 10T175 249l-3-4-4 4q-7 10-18 10t-18-10l-4-4-3 4q-7 10-18.5 10T88 249l-16-23q-4-6-3-14t7.5-12.5q6.5-4.5 14.5-3t12 8.5l4 5 3-4q7-9 18.5-9t18.5 9l3 5 3-5q7-9 18.5-9t18.5 9l3 4 4-5q5-7 12.5-8.5t14 3Q230 204 231 212t-3 14zM83 150l5-4-5-3q-7-5-8-12.5t3.5-14Q83 110 91 109t14 4l25 18q8 6 8 15.5t-8 14.5l-25 19q-5 4-11 4-10 0-15-7t-4-14.5q1-7.5 8-12.5zm80-4q-1-9 7-14l25-19q6-5 14-4t12.5 7.5q4.5 6.5 3.5 14t-7 12.5l-5 4 5 3q6 5 7 12.5t-4 14.5q-5 7-15 7-6 0-11-4l-25-18q-7-6-7-15v-1z"/></svg>