<svg viewBox="0 0 300 368" xmlns="http://www.w3.org/2000/svg"><path d="M69 184q-19 0-34.5 9.5t-25 25Q0 234 0 252.5T9.5 287q9.5 16 25 25.5t34 9Q87 321 103 312t25-25q9-16 9.5-34.5t-9-34q-9.5-15.5-25.5-25T69 184zm0 100q-13 0-22.5-9t-9-22q.5-13 9.5-22.5t22-9.5q13 0 22 9.5t9 22.5q0 13-9 22t-22 9zm231-169q0-18-9.5-34t-25-25.5Q250 46 231 46h-62q-27 0-46.5 18T100 108L32 39q-5-5-13-5T5.5 39.5Q0 45 0 53t5 13l263 263q5 5 13 5t13.5-5.5Q300 323 300 315t-5-13l-9-8q14-18 14-41V115zm-162 0q0-13 9-22t22-9h62q13 0 22 9t9 22v77q-14-8-31-8-23 0-41 14l-52-53v-30zm79 110q7-3 14-4 13 0 22 9.5t9 22.5q1 7-3 14l-42-42z"/></svg>