<svg viewBox="0 0 300 368" xmlns="http://www.w3.org/2000/svg"><path d="M181 153q0 7-3 13.5t-9 11.5v37q0 8-5.5 13.5T150 234q-8 0-13.5-5.5T131 215v-37q-6-5-9-11.5t-3-13.5q0-13 9-22.5t22-9q13 .5 22 9.5t9 22zm94-31v64q0 42-23 76-18 26-49 47-20 13-41 22l-4 1q-5 2-8 2t-8-2l-5-2q-21-11-41-25-30-23-48-49-23-33-23-70v-64q0-21 12.5-38.5T70 59l74-24q6-2 12 0l74 24q20 7 32.5 24.5T275 122zm-37 0q0-9-5.5-16.5T218 95l-68-23-68 23q-9 3-14.5 10.5T62 122v64q0 37 36 71 22 22 53 38 30-13 52-34 35-32 35-75v-64z"/></svg>