<svg viewBox="0 0 300 368" xmlns="http://www.w3.org/2000/svg"><path d="M259 60l-10-10q-16-16-40-16h-40q-27 0-46.5 18T100 97h-6q-19 0-34.5 9t-25 25Q25 147 25 165v100q0 19 9.5 34.5t25 25Q75 334 94 334h50q18 0 34-9.5t25.5-25Q213 284 213 265v-6q26-3 44-22.5t18-46.5v-90q0-24-16-40zM144 296H94q-13 0-22-9t-9-22V165q0-13 9-22t22-9h6v56q0 19 9.5 34.5t25 25Q150 259 169 259h6v6q0 13-9 22t-22 9zm62-75h-37q-13 1-22.5-8.5T137 190v-87q1-13 10-22.5t22-9.5h31v13q0 10 7.5 17.5T225 109h13v81q0 13-9.5 22.5T206 222v-1zm19-62q0 5-3.5 8.5T212 171h-12v13q0 5-3.5 8.5t-9 3.5q-5.5 0-9-3.5T175 184v-13h-12q-6 0-9.5-3.5T150 159q0-5 3.5-8.5t9.5-3.5h12v-13q0-5 3.5-9t9-4q5.5 0 9 4t3.5 9v12h13q5 0 8.5 4t3.5 9z"/></svg>