<svg viewBox="0 0 300 368" xmlns="http://www.w3.org/2000/svg"><path d="M169 284q-3 0-5-1-7-1-11-8t-2-14l12-50q1-5 4.5-9t8.5-5q5-1 10 0t8.5 4.5q3.5 3.5 5 8.5t-.5 10l-12 50q-2 6-7 10t-11 4zm69-1q32-14 48-43 15-26 13-57.5T278 128q-21-25-55-32-3-1-4-3-15-32-46.5-48T107 36q-32 6-54 28.5T25 119q-3 18 1 37 0 3-2 4-13 12-19 27.5T.5 220q1.5 17 10 31T33 275q5 3 10 3t9.5-2q4.5-2 7.5-6t3-9.5q0-5.5-2-10t-7-7.5q-7-4-11-11t-5-15q-1-8 2-15.5t9-13.5q8-7 11.5-17.5t1.5-22Q60 137 62 125q4-21 19-35.5T117 72q21-3 40 7t28 30q4 9 12 15t18 8q21 5 33.5 20t13.5 34.5q1 19.5-9 36.5t-29 25q-7 3-10 10t0 14.5q3 7.5 10 10.5t14 0zm-82 13q-8 0-13 5.5t-5 13.5q0 8 5 13.5t13 5.5q8 0 13.5-5.5T175 315q0-8-5.5-13.5T156 296zm-44 24l12-50q2-8-2-14.5t-11.5-8.5q-7.5-2-14 2T88 261l-12 50q-2 7 2 14t11 8l5 1q6 0 11-4t7-10zm7-86q8 0 13-5.5t5.5-13.5q.5-8-5-13t-13.5-5.5q-8-.5-13.5 5T100 215q0 8 5.5 13.5T119 234z"/></svg>