<svg viewBox="0 0 300 368" xmlns="http://www.w3.org/2000/svg"><path d="M224 62q-18-16-40.5-23t-47-4q-24.5 3-46 16.5t-35 35Q42 108 39 133q-4 28 5 54t30 45q8 8 11 20 3 11 3 29v2q0 21 14.5 36t35.5 15h25q20 0 35-15t15-36v-6q0-17 2.5-27t9.5-16q18-16 28-38.5t10-47q0-24.5-10-47T224 62zm-24 144q-12 10-18 25-5 12-6 28h-52q-2-16-7-29-6-15-18-26-13-12-19-29.5T76 138q3-26 21.5-44.5T141 72h9q28-1 50 18 12 11 18.5 26.5t6.5 32q0 16.5-6.5 31.5T200 206zm-69-41v-50q0-8 5.5-13t13.5-5.5q8-.5 13.5 5T169 115v50q0 8-5.5 13.5T150 184q-8 0-13.5-5.5T131 165zm38 50q0 8-5.5 13.5T150 234q-8 0-13.5-5.5T131 215q0-8 5.5-13.5t13.5-5q8 .5 13.5 5.5t5.5 13z"/></svg>