<svg viewBox="0 0 300 368" xmlns="http://www.w3.org/2000/svg"><path d="M184 200q-7-8-15.5-12t-18.5-4q-10 0-18.5 4T116 200l-74 91q-4 4-4.5 9.5t2 10.5q2.5 5 7 7.5T56 321h188q5 0 9.5-2.5t7-7.5q2.5-5 2-10.5T258 291l-74-91zm-88 84l49-60q2-3 5-3t5 3l49 60H96zm204-169v88q0 24-15 43-5 6-12.5 6.5t-14-4q-6.5-4.5-7-12.5t4.5-14q7-8 7-19v-88q0-13-9.5-22T231 84H69q-13 0-22 9t-9 22v88q0 11 6 19 5 6 4.5 14T42 248.5q-6 4.5-12 4.5-9 0-15-7-15-19-15-43v-88q0-18 9.5-34t25-25.5Q50 46 69 46h162q19 0 34.5 9.5t25 25.5q9.5 16 9.5 34z"/></svg>