<svg viewBox="0 0 300 368" xmlns="http://www.w3.org/2000/svg"><path d="M150 109q-20 0-37.5 10T85 146.5Q75 164 75 184t10 37.5Q95 239 112.5 249t37.5 10q20 0 37.5-10t27.5-27.5q10-17.5 10-37.5t-10-37.5Q205 129 187.5 119T150 109zm35 66l-25 50q-3 4-7.5 6.5T143 234q-5 0-9-2.5t-6.5-7Q125 220 125 215t3-9l10-22h-7q-8 0-13.5-5.5T112 165q0-8 5.5-13.5T131 146h38q5 1 9.5 3.5t7 6.5q2.5 4 2 9.5T185 175zm-35 159q-46 0-83.5-25.5t-55-67.5Q-6 199 3 154.5T44 78q32-32 76.5-41t86.5 8.5q42 17.5 67.5 55T300 184q0 41-20 75.5T225.5 314Q191 334 150 334zm0-263q-31 0-56.5 15.5t-41 41Q37 153 37.5 184T53 240.5Q68 266 93.5 281t56.5 15q31 0 56.5-15t41-40.5q15.5-25.5 15-56.5T247 127.5Q232 102 206.5 87T150 71z"/></svg>