<svg viewBox="0 0 300 368" xmlns="http://www.w3.org/2000/svg"><path d="M300 315q0 8-5.5 13.5T281 334H69q-19 0-34.5-9.5t-25-25Q0 284 0 265V53q0-8 5.5-13.5T19 34q8 0 13.5 5.5T38 53v212q0 13 9 22t22 9h212q8 0 13.5 5.5T300 315zm-100-75q0 8 5.5 13.5T219 259h62q8 0 13.5-5.5T300 240q0-8-5.5-13.5T281 221h-62q-8 0-13.5 5.5T200 240zm-87-75q0 8 5 13.5t13 5.5h100q8 0 13.5-5.5T250 165q0-8-5.5-13.5T231 146H131q-8 0-13 5.5t-5 13.5zm-32-56h63q8 0 13-5.5t5.5-13.5q.5-8-5-13.5T144 71H81q-8 0-13 5.5T63 90q0 8 5 13.5t13 5.5z"/></svg>