<svg viewBox="0 0 300 368" xmlns="http://www.w3.org/2000/svg"><path d="M150 212q-8 0-13.5-5.5T131 193v-3q0-11 6-19.5t17-12.5q5-1 7-5.5t.5-10.5q-1.5-6-7.5-7.5t-10.5 1.5q-4.5 3-5.5 8-2 8-8.5 12t-14 2.5q-7.5-1.5-12-8T101 136q2-10 8-18.5t15-14q9-5.5 19-7t20 1.5q16 4 26 16.5t11 29q1 16.5-7.5 30T169 193q0 8-5.5 13.5T150 212zm7 121l5-2q21-9 41-22 31-21 49-47 23-34 23-76v-64q0-21-12.5-38.5T230 60l-74-25q-6-2-12 0L70 59q-20 7-32.5 24.5T25 122v64q0 37 23 70 18 26 48 49 20 14 41 25l5 2q7 4 15 1zm61-238q9 3 14.5 10.5T238 122v64q0 42-35 75-22 21-52 34-31-17-53-38-35-34-35-71v-64q-1-9 4.5-16.5T82 95l68-23 68 23zm-68 126q-8 1-13.5 6t-5.5 13q0 8 5.5 13.5T150 259q8 0 13.5-5.5T169 240q0-8-5.5-13t-13.5-6z"/></svg>