<svg viewBox="0 0 300 368" xmlns="http://www.w3.org/2000/svg"><path d="M206 34H94q-19 0-34.5 9.5t-25 25Q25 84 25 103v162q0 19 9.5 34.5t25 25Q75 334 94 334h112q19 0 34.5-9.5t25-25Q275 284 275 265V103q0-19-9.5-34.5t-25-25Q225 34 206 34zm32 231q0 13-9.5 22t-22.5 9H94q-13 0-22-9t-9-22V103q0-13 9-22.5T94 71h112q13 0 22 9.5t10 22.5v162zm-25-150q0 8-5.5 13.5T194 134h-25q-12 0-16.5-9.5t0-18.5q4.5-9 16.5-10h25q8 0 13 5.5t5 13.5h1zm0 63q-1 8-6 13t-13 5h-25q-12 0-16.5-9t0-18.5Q157 159 169 159h25q8 0 13 5.5t5 13.5h1zm0 62q0 8-5.5 13.5T194 259h-25q-12 0-16.5-9.5t0-18.5q4.5-9 16.5-10h25q8 1 13 6t5 13h1zm-88-125q0 12-9.5 16.5t-18.5 0q-9-4.5-9-16T97 99q9-5 18.5 0t9.5 16zm0 63q0 11-9.5 16T97 194q-9-5-9-16.5t9-16q9-4.5 18.5 0T125 178zm0 62q0 12-9.5 16.5t-18.5 0q-9-4.5-9-16t9-16.5q9-5 18.5 0t9.5 16z"/></svg>