<svg viewBox="0 0 300 368" xmlns="http://www.w3.org/2000/svg"><path d="M281 165q8 0 13.5-5.5T300 147v-7q0-18-9.5-34t-25-25.5Q250 71 231 72H69q-19 0-34.5 9t-25 25Q0 122 0 140v88q0 18 9.5 34t25 25q15.5 9 34.5 9h162q19 0 34.5-9t25-25q9.5-16 9.5-34v-7q0-7-5.5-12.5T281 203q-8 0-13-5.5t-5-13.5q0-8 5-13.5t13-5.5zm-20 72q-3 9-11 15.5t-19 6.5H69q-13 0-22.5-9T37 228v-88q1-13 10-22t22-9h162q11 0 19 6.5t11 15.5q-16 7-26 21t-10 32q0 18 10 32t26 21zm-73-53q0 5-4 8.5t-9 3.5h-19l-24 31q-4 7-12 7h-4q-3 0-5-3t-1-6l11-29H92q-9 0-14-6l-14-16q-3-5 0-10t7.5-5q4.5 0 7.5 3l14 9h28l-11-28q-1-3 1-6t5-3h4q8 0 12 7l24 30h19q5 0 8.5 4t3.5 9h1z"/></svg>