<svg viewBox="0 0 300 368" xmlns="http://www.w3.org/2000/svg"><path d="M131 234h88q8 0 13 5.5t5.5 13.5q.5 8-5 13t-13.5 5h-88q-8 0-13.5-5t-5-13q.5-8 5.5-13.5t13-5.5zm-58 34l-17-22-16 22q-4 5-9.5 3t-5.5-8v-51q-12-8-18.5-20T0 165q0-23 16.5-39.5t40-16.5Q80 109 96 125.5t16 39.5q1 15-6 27t-18 20v51q0 6-6 8t-9-3zM38 165q0 8 5 13.5t13 5.5q8 0 13.5-5.5T75 165q0-8-5.5-13T56 146.5q-8-.5-13.5 5T38 165zm181 44q8 0 13-5.5t5.5-13.5q.5-8-5-13.5T219 171h-63q-8 0-13 5.5t-5.5 13.5q-.5 8 5 13.5T156 209h63zm61-122l-33-33q-20-20-49-20h-79q-15 0-28.5 6T67 58q-5 6-4.5 13.5T69 84q6 5 13.5 4.5T95 82q10-10 24-10h69v50q0 10 7 17.5t18 7.5h50v118q0 13-9.5 22.5T231 297H119q-9 0-15.5-4.5t-14-2.5q-7.5 2-11.5 9t-2 14.5q2 7.5 8 11.5 16 9 35 9h112q19 0 34.5-9.5t25-25Q300 284 300 265V136q0-29-20-49z"/></svg>