<svg viewBox="0 0 300 368" xmlns="http://www.w3.org/2000/svg"><path d="M106 34H56q-23 0-39.5 16.5T0 90v13q0 23 16.5 39.5T56 159h7v12h-7q-8 0-13 5.5T38 190q0 8 5 13.5t13 5.5h50q8 0 13.5-5.5T125 190q0-8-5.5-13t-13.5-6h-6v-12h6q24 0 40-16.5t17-39.5V90q-1-23-17-39.5T106 34zm19 69q0 8-5.5 13.5T106 122H56q-8-1-13-6t-5-13V90q0-8 5-13.5T56 71h50q8 0 13.5 5.5T125 90v13zm63-13q0-8 5-13.5t13-5.5h13q18 0 31 13t13 31v13q0 8-5.5 13.5t-13.5 5q-8-.5-13.5-5.5t-5.5-13v-13q0-2-2-4t-4-2h-13q-8 0-13.5-5.5T187 90h1zm-25 200q0 8-5.5 13.5T144 309h-38q-18 0-31-13t-13-31v-12q1-8 6-13.5t13-5.5q8 0 13.5 5.5T100 253v12q0 3 2 5t4 2h38q8-1 13.5 4.5T163 290zm100-119h-38q-16 0-26.5 11T188 209v87q0 16 10.5 27t26.5 11h38q15 0 26-11t11-27v-87q0-16-11-26.5T262 171h1zm-19 138q-8 0-13.5-5.5T225 290q0-8 5.5-13t13.5-5.5q8-.5 13.5 5T263 290q0 8-5.5 13.5T244 309z"/></svg>