<svg viewBox="0 0 300 368" xmlns="http://www.w3.org/2000/svg"><path d="M297 285q4 6 2.5 14t-7.5 12q-16 11-29 16-20 8-44 8-28 0-47-19t-19-46q0-27 19-46l87-87q4-4 4-9t-4-8.5q-4-3.5-9-3.5t-9 3L85 275q-14 15-35 15t-35.5-14.5Q0 261 0 240t14-35L128 93q3-4 3-9t-3.5-8.5q-3.5-3.5-9-3.5t-8.5 3l-78 77q-6 5-13.5 5t-13-5.5Q0 146 0 138.5T6 125l78-76q14-15 34.5-15T154 48.5Q169 63 169 84t-15 35L41 231q-4 4-4 9t3.5 8.5q3.5 3.5 9 3.5t9.5-3L215 93q14-15 35-15t35.5 14.5Q300 107 300 128t-14 35l-87 87q-8 8-8 19.5t8 19.5q8 8 20 8 17 0 30-5 9-3 22-12 6-4 13.5-2.5T297 285z"/></svg>