<svg viewBox="0 0 300 368" xmlns="http://www.w3.org/2000/svg"><path d="M299 204q-1-13-8-23t-18-17l-39-25-4-23q-1-5-4-8t-8-4l-23-4-25-39q-7-11-17-18t-23-8.5Q117 33 105 37T84 50L53 81q-9 9-13 21t-2 24.5q2 12.5 9 23T65 166l45 31-74 75-5-1q-13 0-22 9.5T0 303q0 13 9 22t22 9q13 0 22.5-9t8.5-22v-5l75-74 31 45q6 11 16.5 18t22.5 9l8 1q22 0 38-16l31-31q9-9 13-21t2-25zM83 134q-7-4-8-12.5t5-13.5l31-31q6-6 14-5t12 8l31 47-37 38-48-31zm174 89l-31 31q-5 6-13.5 5t-12.5-8l-31-46 39-39 46 31q7 4 8 12t-5 14z"/></svg>