<svg viewBox="0 0 301 368" xmlns="http://www.w3.org/2000/svg"><path d="M296 127q-6-5-13.5-5.5T269 127l-49 49q-11-8-23-12l98-99q5-5 5-13t-5.5-13.5q-5.5-5.5-13-5.5T268 39l-98 99q-4-12-11-23l49-49q5-5 5.5-13t-5-13.5Q203 34 195 34t-13 5l-49 48q-10-4-21-2T94 95q-10 10-18 23-8 15-12 30-9-2-18 .5T31 157q-12 13-21 31-10 20-10 39 0 26 20 61L6 302q-5 6-5 13.5t5.5 13Q12 334 20 334t13-6l14-14q34 20 60 20 19 0 39-10 17-9 31-21 10-10 10-25 0-4-1-9 15-3 30-12 13-7 23.5-17t10.5-25q0-7-3-13l49-48q5-6 5-13.5t-5-13.5zm-126 69q8 1 18 5t19 11l4 4q-10 7-21 12.5t-20 5.5q-13 0-33-10l27-27 6-1zm-52-73l4 4q7 9 11 19t4 18v7l-27 27q-10-21-10-34 0-9 5.5-20.5T118 123zM37 227q0-10 5.5-21T56 185q8 10 13.5 21t5.5 21v7l-27 26q-11-21-11-33zm70 69q-12 0-32-9l27-28h5q9 0 20.5 5.5T148 278q-9 8-20.5 13.5T107 297v-1z"/></svg>