<svg viewBox="0 0 300 368" xmlns="http://www.w3.org/2000/svg"><path d="M298 122q-1-9-6.5-15t-14-9q-8.5-3-17-1t-14.5 9l-25 24q-4 4-9.5 4t-8.5-4q-3-4-2.5-9.5t4.5-9.5l23-23q7-6 9-14.5t-1-17q-3-8.5-9-14T212 36q-20-4-41 0-30 7-52.5 29.5T90 118q-5 25 1 49 1 4-1 7l-74 73Q2 261 .5 281T11 316q7 8 18 13t21 5q21 0 35-15l75-75q3-2 7-1 24 6 49 1 30-6 52.5-28.5T298 163q4-21 0-41zm-37 33q-4 19-18.5 33.5T209 207q-17 4-32 0-12-3-23.5 0T134 218l-75 75q-4 4-9.5 3.5t-9-4.5q-3.5-4-2.5-9t4-9l74-74q8-8 11-19.5t0-23.5q-4-15 0-32 4-19 18.5-33.5T179 73q6-1 13-1l-14 13q-14 14-15 33.5t11 34.5q6 8 15.5 13t20.5 5.5q11 .5 20.5-3.5t17.5-11l14-15q0 7-1 13z"/></svg>