<svg viewBox="0 0 300 368" xmlns="http://www.w3.org/2000/svg"><path d="M63 309q-1 10 6.5 17.5t18 7.5q10.5 0 17.5-7.5t7.5-17.5q.5-10-7-17.5t-18-7.5Q77 284 70 291.5T63 309zm125 0q-1 10 6.5 17.5t18 7.5q10.5 0 17.5-7.5t7.5-17.5q.5-10-7-17.5t-18-7.5q-10.5 0-17.5 7.5t-7 17.5zm99-200q-13-13-32-12H71l-4-26q-1-16-13-26.5T26 34h-7q-8 0-13.5 5.5T0 53q0 8 5.5 13T19 72h7q2 0 3 1t1 2l19 147q2 16 13.5 26.5T90 259h127q23 0 41.5-14t24.5-37l16-56q3-12 0-23t-12-20zm-40 90q-3 10-11.5 16t-18.5 6H90q-1 0-2.5-1t-1.5-2l-11-84h181q4 0 5.5 2.5t.5 5.5l-15 57z"/></svg>