<svg viewBox="0 0 300 368" xmlns="http://www.w3.org/2000/svg"><path d="M200 303q0 8-5.5 13t-13.5 5H81q-18 0-34-9t-25.5-25Q12 271 13 253V153q0-8 5-13.5t13-5.5q8 0 13.5 5.5T50 153v100q0 13 9 22t22 9h100q8 0 13.5 5.5T200 303zM94 196q-8 0-13.5 5.5T75 215v13q0 13 9 22t22 9h13q8 0 13.5-5.5T138 240q0-8-5.5-13t-13.5-5h-6v-7q-1-8-6-13.5T94 196zm201 132q-6 6-13.5 6t-13.5-6L6 66q-6-5-6-13t5.5-13.5Q11 34 18.5 34T32 39l16 16q16-9 33-9h138q18 0 34 9.5T278.5 81q9.5 16 9.5 34v138q0 18-9 33l16 16q5 6 5 13.5t-5 12.5zM77 84l25 25h23q6 0 10.5 3t7 8.5q2.5 5.5 1 11T138 141l-2 2 52 52v-49h-7q-8 0-13-5t-5-13q0-8 5-13.5t13-5.5h7q15 0 26 11t11 26v86l25 25V115q0-13-9-22t-22-9H77z"/></svg>