<svg viewBox="0 0 300 368" xmlns="http://www.w3.org/2000/svg"><path d="M281 246q-7 0-13 5.5t-6 13.5v13q0 2-1.5 4t-4 2q-2.5 0-4.5-2t-2-4V153q0-20-9-37.5T215 86q-8-17-24.5-28.5t-34-11.5Q139 46 125 53t-23 18H81q-22 0-40.5 11T11 112Q0 131 0 153v137q0 13 9 22.5t22 9.5q13 0 22-9.5t9-22.5v-18h63v18q0 13 9 22t22 10q13 0 22-9.5t10-22.5v-18h25v6q0 18 12.5 31t30.5 13q18 0 31-13t13-31v-13q0-7-5.5-12.5T281 247v-1zM38 234v-81q0-18 12.5-31T81 109h7l-1 6q0 26 15.5 45.5T141 183q7 1 13.5-3.5t7.5-12q1-7.5-3.5-14t-13-7.5q-8.5-1-14.5-10t-6-21q0-12 7-21 8-10 24-10 7 0 14.5 5.5T182 102v1q2 8 9 12 10 6 16 16t6 22v81H38z"/></svg>