<svg viewBox="0 0 300 368" xmlns="http://www.w3.org/2000/svg"><path d="M213 228q0 8-5.5 13t-13.5 5h-88q-8 0-13-5t-5-13q0-8 5-13.5t13-5.5h88q8 0 13.5 5.5T213 228zm-63-107q8 0 13.5-5t5.5-13q0-8-5.5-13.5T150 84q-8 0-13.5 5.5T131 103q0 8 5.5 13t13.5 5zM19 209q-8 0-13.5 5.5T0 228q0 8 5.5 13t13.5 5q8 0 13.5-5t5.5-13q0-8-5.5-13.5T19 209zm262 0q-8 0-13 5.5t-5 13.5q0 8 5 13t13 5q8 0 13.5-5t5.5-13q0-8-5.5-13.5T281 209zm-37-88q-8 0-13.5 5.5T225 140q0 8 5.5 13.5T244 159q8 0 13.5-5.5T263 140q0-8-5.5-13.5T244 121zm-188 0q-8 0-13 5.5T38 140q0 8 5 13.5t13 5.5q8 0 13.5-5.5T75 140q0-8-5.5-13.5T56 121z"/></svg>