<svg viewBox="0 0 300 368" xmlns="http://www.w3.org/2000/svg"><path d="M231 59H69q-19 0-34.5 9.5t-25 25Q0 109 0 128v112q0 19 9.5 34.5t25 25Q50 309 69 309h162q19 0 34.5-9.5t25-25Q300 259 300 240V128q0-19-9.5-34.5t-25-25Q250 59 231 59zm32 181q0 13-9.5 22t-22.5 9H69q-13 0-22.5-9T37 240V128q1-13 10-22.5T69 96h162q13 1 22 10t9 22v112h1zm-88-106v100q0 5-3.5 8.5t-9 4q-5.5.5-9-3.5t-3.5-9V134q0-5 3.5-9t9-3.5q5.5.5 9 4t3.5 8.5zm75 0q0 5-3.5 8.5T238 146h-19q-3 0-4.5 2t-1.5 5v18h12q5 0 8.5 4t4 9q.5 5-3.5 8.5t-9 3.5h-12v38q0 5-4 8.5t-9 4q-5 .5-9-3.5t-4-9v-81q1-13 10-22.5t22-9.5h19q5 1 8.5 4.5t3.5 8.5zM88 159v50q-1 5 3 8.5t9 3.5q5 0 8.5-3.5t3.5-8.5q-5 0-8.5-3.5t-3.5-9q0-5.5 3.5-9t9.5-3.5q11 0 18 7.5t7 17.5q0 16-11 27t-27 10.5q-16-.5-27-11T62 209v-50q0-16 11-26.5t27-11q16-.5 27 10.5t11 27q0 5-4 8.5t-9 3.5q-5 0-9-3.5t-3.5-8.5-3.5-8.5q-4-3.5-9-4t-8.5 3.5q-3.5 4-3.5 9z"/></svg>