<svg viewBox="0 0 300 368" xmlns="http://www.w3.org/2000/svg"><path d="M250 125q-1-25-13.5-46t-34-33Q181 34 156 34h-50q-25 0-46.5 12.5t-34 34Q13 102 12 128v77q1 21 9.5 41T46 282l4 4v10q0 16 11 27t27 11h112q16 0 26.5-11t11.5-27v-3l12-10q18-15 28-36.5t9-45.5v-23q0-18-10-32.5T250 125zm0 76q0 16-6.5 29.5T225 254l-20 17H86l-15-17q-10-9-15.5-22T50 205v-24q9 3 19 3h62q8 0 13.5-5.5T150 165q0-8-5.5-13.5T131 146H69q-8 0-13.5-5T50 128q0-24 16.5-40T106 71h50q23 1 39 16t17 38q-16 6-26.5 20.5T175 178v37q0 8 5.5 13.5T194 234q8 0 13.5-5.5T213 215v-37q0-8 5-13.5t13-5.5q8 0 13.5 5.5T250 178v23z"/></svg>