<svg viewBox="0 0 300 368" xmlns="http://www.w3.org/2000/svg"><path d="M150 34q-41 0-75.5 20T20 108.5Q0 143 0 184q2 57 33 95 29 35 73 47.5t88 0q44-12.5 73-47.5 31-38 33-95 0-41-20-75.5T225.5 54Q191 34 150 34zm0 262q-31 0-56.5-15T53 240.5Q38 215 37 184q2-43 26-72 21-26 54-35t66 0q33 9 54 35 24 29 26 72-1 31-16 56.5T206.5 281Q181 296 150 297v-1zm-39-87l-26 34q-13-15-18.5-33T63 173l42 17q6 2 7.5 8t-1.5 11zm3-56l-38-15q9-15 23.5-25.5T131 99v42q0 7-5.5 10.5T114 153zm110-15l-38 15q-6 2-11.5-1.5T169 141V99q17 3 31.5 13.5T224 138zm14 46q-1 16-6.5 31.5T215 243l-26-34q-3-5-1.5-11t7.5-8l42-17v11h1zm-78 48l24 32q-16 7-34 7t-34-7l24-32q4-5 10-5t10 5z"/></svg>