<svg viewBox="0 0 300 368" xmlns="http://www.w3.org/2000/svg"><path d="M300 203q0-25-21-46.5T223.5 122Q189 109 150 109t-73.5 13Q42 135 21 157T0 204q0 12 7 22.5T25 243l7 34q4 25 23 41t44 16h102q25 0 44-16t23-41l6-34q12-6 19-16.5t7-23.5zm-150-57q30 1 58 10 24 9 39.5 22t15.5 24q-1 7-7 7-8 0-14 6-3 3-4.5 8t-6 8q-4.5 3-10 3t-9.5-3q-4-3-6-9t-8-9.5q-6-3.5-12.5-3.5t-12 3.5Q168 216 166 222t-6.5 9q-4.5 3-9.5 3t-9.5-3q-4.5-3-6.5-9t-7.5-9.5q-5.5-3.5-12-3.5t-12.5 3.5q-6 3.5-8 9.5t-6 9q-4 3-9.5 3t-9.5-3q-4-3-6-7.5t-5-8.5q-6-6-14-6-6 0-6-6 0-12 15-25t39-22q28-10 58-10zm51 150H99q-11 1-19.5-6.5T69 271v-1q4 1 9 2 21-1 36-14 15 14 36 14t36-14q15 13 36 14 5-1 9-2v1q-2 11-10.5 18.5T201 296zM131 65V53q0-8 5.5-13.5T150 34q8 0 13.5 5.5T169 53v12q0 8-5.5 13.5T150 84q-8 0-13.5-5.5T131 65zm69 0V53q0-8 5.5-13.5T219 34q8 0 13.5 5.5T238 53v12q-1 8-6 13.5T219 84q-8 0-13.5-5.5T200 65zM63 65V53q0-8 5-13.5T81 34q8 0 13.5 5.5T100 53v12q0 8-5.5 13.5T81 84q-8 0-13.5-5.5T63 65zm42 127q-5-5-5-12t5-11q11-8 24-10 4-1 6.5 2t1.5 6q-2 13-9 25-5 5-11.5 5t-11.5-5zm67 0q-7-12-9-25-1-3 1.5-6t6.5-2q13 2 24 10 5 4 5 11t-5 12q-5 5-11.5 5t-11.5-5z"/></svg>