<svg viewBox="0 0 300 368" xmlns="http://www.w3.org/2000/svg"><path d="M300 240v25q0 19-9.5 34.5t-25 25Q250 334 231 334H69q-19 0-34.5-9.5t-25-25Q0 284 0 265V140q0-18 9.5-34t25-25Q50 72 69 72h75q8-1 13.5 4.5T163 90q0 8-5.5 13.5T144 109H69q-9 0-16.5 4.5T41 126l87 86q7 8 17.5 9t20.5-4q6-4 13.5-2t11.5 9q4 7 2 14.5t-9 11.5q-20 11-43 8t-40-19l-63-64v90q0 13 9 22t22 9h162q13 0 22.5-9t8.5-22v-25q1-8 6-13.5t13-5q8 .5 13.5 5.5t5.5 13zM275 34h-62q-11 0-18 7.5T188 59v121q0 5 2.5 9t6.5 6q4 2 9 1.5t9-3.5l29-23 29 23q3 3 8 3.5t9.5-1.5q4.5-2 7-6t2.5-9V59q0-10-7.5-17.5T275 34z"/></svg>