<svg viewBox="0 0 300 368" xmlns="http://www.w3.org/2000/svg"><path d="M227 170q11-9 17-21.5t6-26.5q0-17-8.5-31.5t-23-23Q204 59 188 59t-29 7q-13 7-22 18-17-23-43-35-31-15-75-15-8 0-13.5 5.5T0 53q0 8 5.5 13T19 71q24 0 43 6-16 7-26.5 22.5T25 134q0 15 7 28.5T51 185q-23 18-36 39-15 25-15 54 0 23 16.5 39.5t40 16.5Q80 334 96 317.5t16-39.5q0-33 14-61 9-19 24-33 15 14 24 33 13 28 13 61 1 23 17 39.5t39.5 16.5q23.5 0 40-16.5T300 278q0-36-23-65-18-24-50-43zm-114-36q0 10-7.5 17.5t-18 7.5Q77 159 70 151.5T63 134q0-10 7-17.5t17.5-7.5q10.5 0 18 7.5T113 134zm75-38q10 1 17.5 8t7 17.5q-.5 10.5-7.5 18t-17.5 7.5q-10.5 0-18-7.5t-7-18q.5-10.5 7.5-18t17-7.5h1zM75 278q0 8-5.5 13.5t-13.5 5q-8-.5-13.5-5.5T38 278q0-24 16-44 13-17 37-31-16 35-16 75zm169 18q-8 0-13.5-5t-5.5-13q0-40-16-75 24 14 37 31 17 20 17 44 0 8-5.5 13.5T244 297v-1z"/></svg>