<svg viewBox="0 0 300 368" xmlns="http://www.w3.org/2000/svg"><path d="M220 140q5 5 5 13t-6 13l-57 56q-13 12-31 12t-30-12l-20-18q-6-5-6-13t5-13.5q5-5.5 13-6t13 4.5l20 18q2 2 5 2.5t5-1.5l57-56q6-5 13.5-5t13.5 6zm80 44q0 41-20 75.5T225.5 314Q191 334 150 334t-75.5-20Q40 294 20 259.5T0 184q0-41 20-75.5T74.5 54Q109 34 150 34t75.5 20Q260 74 280 108.5t20 75.5zm-37 0q0-31-15.5-56.5t-41-41Q181 71 150 71.5T93.5 87q-25.5 15-41 40.5t-15 56.5q.5 31 15.5 56.5T93.5 281q25.5 15 56.5 15.5t56.5-15q25.5-15.5 41-41T263 184z"/></svg>