<svg viewBox="0 0 300 368" xmlns="http://www.w3.org/2000/svg"><path d="M291 96q-22-26-52.5-39T174 47q-3-4-8-7-8-5-17-6t-17 2Q93 48 62.5 74T14 135q-7 15-12 32-3 8-2 17t6 17q3 4 7 8-2 33 10.5 63.5T62 325q7 6 16 8t18 0q9-2 16.5-7.5T124 311l41-78q12-4 21-13t13-22l78-40q9-4 14.5-11.5T299 130q2-9 0-18t-8-16zM38 178q11-38 39-66t66-40q2-1 3.5 0t1.5 3l17 102q1 10-5.5 16.5T143 199L41 183q-2-1-3-2.5t0-2.5zm53 116q-1 2-2.5 2.5T86 296q-16-14-25.5-33.5T51 222l71 11-31 61zm169-169l-61 31-11-72q21 1 40.5 10t33.5 26q1 1 .5 2.5T260 125z"/></svg>