<svg viewBox="0 0 300 368" xmlns="http://www.w3.org/2000/svg"><path d="M231 334H69q-19 0-34.5-9.5t-25-25Q0 284 0 265V103q0-19 9.5-34.5t25-25Q50 34 69 34h162q19 0 34.5 9.5t25 25Q300 84 300 103v162q0 19-9.5 34.5t-25 25Q250 334 231 334zM69 71q-13 1-22 10t-9 22v162q0 13 9 22t22 9h162q13 0 22-9t10-22V103q0-13-9.5-22.5T231 71H69zm169 50q0-10-7.5-17T212 97H88q-11-1-18 6.5t-7 18q0 10.5 7 17.5t17 7h126q10 0 17-7t7-18h1zM81 178q-8 0-13.5 5.5t-5 13q.5 7.5 5.5 13t13 5.5q8 0 13.5-5.5t5.5-13q0-7.5-5.5-13T81 178zm63 0q-8 0-13.5 5.5t-5.5 13q0 7.5 5.5 13T144 215q8 0 13-5.5t5.5-13q.5-7.5-5-13T144 178zm-63 56q-8 0-13.5 5.5t-5 13.5q.5 8 5.5 13t13 5q8 0 13.5-5t5.5-13q0-8-5.5-13.5T81 234zm63 0q-8 0-13.5 5.5T125 253q0 8 5.5 13.5t13.5 5q8-.5 13.5-5.5t5.5-13q0-8-5.5-13.5T144 234zm94 19q0-8-5.5-13.5T219 234h-13q-8 0-13.5 5.5t-5 13.5q.5 8 5.5 13.5t13 4.5h13q8 1 13.5-4.5T238 253zm0-57q0-7-5.5-12.5T219 178h-13q-8 0-13.5 5.5t-5 13q.5 7.5 5.5 13t13 5.5h13q8 0 13.5-5.5T238 197v-1z"/></svg>