<svg viewBox="0 0 300 368" xmlns="http://www.w3.org/2000/svg"><path d="M288 123q-1 20-14 35l-74 93v64q0 5-2.5 9.5t-7 7Q186 334 181 334t-9-3l-63-37q-4-3-6.5-7t-2.5-9v-27l-75-92q-12-13-12.5-32.5t10.5-35Q34 76 53 72q11-3 17.5 5T75 95q-2 10-13 13-9 2-11.5 11.5T54 135l79 97q5 5 4 12v23l26 15v-37q0-7 4-12l78-99q7-6 4.5-14.5T239 108q-11-3-13-13.5t5-18q7-7.5 18-4.5 17 5 27.5 19t10.5 32h1zm-160 10l30 12q3 1 4 4.5t-1 6.5q-2 3-6 3h-15q-3 0-5-3-4-7-11.5-9t-14 2q-6.5 4-8.5 11.5t2 15q4 7.5 12 13t17 7.5q2 8 10.5 11t16-.5Q166 203 168 195q19-6 27-23.5t2-36q-6-18.5-25-25.5l-30-12q-3-1-4-4.5t1-6.5q2-3 6-3h15q3 0 5 3 4 7 11.5 9t14-2q6.5-4 8.5-11.5t-2-15q-4-7.5-12-13T168 47q-2-8-10.5-11t-16 .5Q134 40 132 48q-19 6-27 23.5t-2 36q6 18.5 25 25.5z"/></svg>