<svg viewBox="0 0 301 368" xmlns="http://www.w3.org/2000/svg"><path d="M109 334q-21 0-41-8t-35-24Q1 269 0 227q0-36 22-75 19-32 49-62 26-25 48-38 9-5 19-5.5t18.5 4q8.5 4.5 13.5 12t6 15.5q46-33 67-41 12-5 24-2.5t21.5 12q9.5 9.5 12 21.5T298 92q-8 21-41 67 8 1 15.5 6t12 13.5q4.5 8.5 4 18.5t-5.5 19q-15 22-33 43-29 32-60 50-40 25-81 25zm30-249q-40 25-64 54-22 27-31 54-8 25-3.5 46.5t19 36q14.5 14.5 36 19T142 291q27-9 54-31 29-24 54-64h-30q-7 1-12.5-4t-6.5-12.5q-1-7.5 4-13.5 50-66 58-88 1-3-1-5t-5-1q-22 8-89 58-4 3-9 3.5t-10-1.5q-5-2-7.5-6.5T139 115V85zm-25 174q17 0 27-11.5t10-26q0-14.5-10-26T113.5 184Q96 184 86 195.5t-10 26q0 14.5 10 26t28 11.5z"/></svg>