<svg viewBox="0 0 300 368" xmlns="http://www.w3.org/2000/svg"><path d="M0 115q0-13 9-22t22-9q13 0 22 9t9.5 22q.5 13-9 22.5t-22.5 9Q18 146 9 137t-9-22zm75 131H63v-43q0-13-9.5-22T31 171.5q-13-.5-22 9T0 203v50q0 13 9 22t22 9h44v31q0 8 5.5 13.5T94 334q8 0 13.5-5.5T113 315v-31q0-16-11-27t-27-11zm194-100q13 1 22-8.5t9-22.5q0-13-9-22t-22-9q-13 0-22.5 9t-9 22q.5 13 9.5 22.5t22 9.5v-1zm0 25q-13 1-22.5 10t-9.5 22v43h-12q-16 1-26.5 11.5T188 284v31q-1 8 4.5 13.5T206 334q8 0 13.5-5.5T225 315v-31h44q13 0 22-9t9-22v-50q0-13-9-22t-22-10zm-163 50h88q8 1 13-4.5t5.5-13.5q.5-8-5-13.5T194 184h-88q-8 0-13.5 5.5t-5 13.5q.5 8 5.5 13t13 5zm175 75h-12q-8 0-13.5 5.5T250 315q0 8 5.5 13.5T269 334h12q8 0 13.5-5.5T300 315q0-8-5.5-13t-13.5-5v-1zm-250 0H19q-8 0-13.5 5.5T0 315q0 8 5.5 13.5T19 334h12q8 0 13.5-5.5T50 315q0-8-5.5-13T31 297v-1zm57-193V65q0-13 9-22t22-9h62q13 0 22.5 9t9.5 22v38q0 13-9.5 22t-21.5 9l-16 13q-7 6-16 6t-16-6l-16-13q-12 0-21-9t-9-22zm37-7q7 1 12 5l13 10 13-10q5-4 12-5V71h-50v25z"/></svg>