<svg viewBox="0 0 300 368" xmlns="http://www.w3.org/2000/svg"><path d="M125 215v38q0 8-5.5 13.5t-13.5 5q-8-.5-13.5-5.5T87 253v-38q1-8 6-13.5t13-5q8 .5 13.5 5.5t5.5 13zm175-31q0 41-20 75.5T225.5 314Q191 334 150 334t-75.5-20Q40 294 20 259.5T0 184q0-41 20-75.5T74.5 54Q109 34 150 34t75.5 20Q260 74 280 108.5t20 75.5zM150 71q-36 0-65 21l20 20q16-16 39-15h19q16 0 30.5 8t23 22.5Q225 142 225 159q0 15-6.5 28T201 208l41 41q21-29 21-65 0-31-15.5-56.5t-41-41Q181 71 150 72v-1zm38 88q-1-10-8-17.5t-17-7.5h-19q-7 0-13 5l43 42q6-3 10-9t4-13zm-38 137q36 0 65-20L58 119q-21 29-20 65 0 31 15 56.5T93.5 281q25.5 15 56.5 15z"/></svg>