<svg viewBox="0 0 300 368" xmlns="http://www.w3.org/2000/svg"><path d="M252 59l-66-22q-18-5-35.5-1t-31 16.5Q106 65 100 82v2H69q-19 0-34.5 9.5t-25 25Q0 134 0 153v112q0 19 9.5 34.5t25 25Q50 334 69 334h62q16 0 30-6.5t24-18.5q25 3 46-11t28-38l39-116q5-18 .5-35.5T282 78q-12-13-30-19zm-89 206q0 13-9.5 22t-22.5 9H69q-13 0-22-9t-9-22V153q0-13 9-22t22-9h62q13-1 22.5 8.5T162 153l1 112zm99-132l-39 116q-2 8-8.5 14t-14.5 8V153q0-26-17-45.5T141 85q5-8 14.5-11.5T175 73l66 22q12 3 18 14.5t3 23.5zm-112 63q0 13-11 30-10 15-23 25-7 6-16 6t-16-6q-13-10-23-25-11-17-11-28.5t7.5-18.5q7.5-7 17.5-7.5t17.5 7Q100 186 100 197q0-11 7.5-18t17.5-7.5q10-.5 17.5 7T150 197v-1z"/></svg>