<svg viewBox="0 0 300 368" xmlns="http://www.w3.org/2000/svg"><path d="M300 184q0 26-9 50-2 7-9 10.5t-14.5 1Q260 243 257 236t-1-14q7-19 7-38-1-31-16-56.5t-40.5-41Q181 71 150 71.5T93.5 87q-25.5 15-41 40.5T37 184q1 22 9 42.5T70 263q5 5 5 13t-5.5 13.5Q64 295 56 295t-13-6q-21-21-32-48T0 184q0-41 20-75.5T74.5 54Q109 34 150 34t75.5 20Q260 74 280 108.5t20 75.5zm-163-77q-1-6-5-8.5t-9-1.5q-29 6-56 27-4 4-4.5 9t3 9q3.5 4 8.5 4.5t9-2.5q22-18 44-23 6-1 8.5-5t1.5-9zm80 37q3 3 8.5 2.5t9-4.5q3.5-4 3-9t-4.5-9q-26-21-56-27-5-1-9 1.5t-5 8q-1 5.5 1.5 9.5t8.5 5q23 5 44 23zm-104 52q12 0 22 8l21-22q11-11 26-11h1q5 0 11 3-6-13-18-20.5t-26-7.5q-21 1-35.5 15.5T100 196v3q7-3 12-2l1-1zm107 65l-23 23-12-12 45-45q3-3 3-7.5t-3-7.5q-3-3-7.5-3t-7.5 3l-46 46-12-12 37-38q3-3 3-7.5t-3-7.5q-3-3-7-3t-7 3l-55 55v-14q0-5-3.5-8.5t-9-3.5q-5.5 0-9 3.5T100 234v45q0 16 8 29t20 19.5q12 6.5 26 6.5 23 0 39-16l42-43q3-3 2.5-7t-3-7q-2.5-3-7-3t-7.5 3z"/></svg>