<svg viewBox="0 0 300 368" xmlns="http://www.w3.org/2000/svg"><path d="M244 196H138V90q0-23-16.5-39.5T81 34H56q-23 0-39.5 16.5T0 90v175q0 19 9.5 34.5t25 25Q50 334 69 334h175q23 0 39.5-16.5T300 278v-25q0-24-16.5-40.5T244 196zm19 82q0 8-5.5 13.5T244 297H69q-13-1-22-10t-9-22V90q0-8 5-13.5T56 72h25q8-1 13.5 4.5T100 90v6H81q-8 1-13.5 6t-5 13q.5 8 5.5 13.5t13 5.5h19v25H81q-8 0-13.5 5.5t-5 13.5q.5 8 5.5 13.5t13 5.5h19v18q0 8 5.5 13.5T119 234h19v19q-1 8 4.5 13t13.5 5.5q8 .5 13.5-5T175 253v-19h25v19q0 8 5.5 13t13.5 5q8 0 13.5-5t5.5-13v-19h6q8 0 13.5 5.5T262 253v25h1z"/></svg>