<svg viewBox="0 0 300 368" xmlns="http://www.w3.org/2000/svg"><path d="M7 96q30-18 43-18 17 0 34 12h16l-5-4q-8-7-14-38-1-6 3.5-10.5T96 34q30 6 38 14 18 18 25 42h22l-5-4q-7-7-13-38-2-6 3-10.5t11-3.5q30 6 38 14 18 18 25 42h41q8 0 13.5 5.5T300 109q0 8-5.5 13.5T281 128h-41q-7 24-25 42-8 8-38 14-6 1-11-3.5t-3-10.5q6-31 13-38l5-4h-22q-7 24-25 42-8 8-38 14-7 1-11.5-3.5T81 170q6-31 14-38l5-4H84q-17 12-34 12-13 0-43-18-7-5-7-13t7-13zm288 123q5 11 5 22.5t-7 21.5q-18 30-54 53-28 18-63 18h-52q-35 0-63-18-36-23-54-53-7-10-7-21.5t5.5-22Q11 209 21.5 203t22.5-6h212q12 0 22.5 6t15.5 16h1zm-33 18q-2-3-6-3H44q-4 0-5.5 3t-.5 6q14 23 44 42 18 11 42 11h52q24 0 42-11 30-19 44-42 1-3 0-6z"/></svg>