<svg viewBox="0 0 300 368" xmlns="http://www.w3.org/2000/svg"><path d="M88 146q0-17 7-27t17.5-10q10.5 0 17.5 10t7 27.5q0 17.5-7 27.5t-17.5 10Q102 184 95 174t-7-27v-1zm100 38q11 0 17.5-11t6.5-26.5q0-15.5-6.5-26.5t-18-11q-11.5 0-18 11t-6.5 26.5q0 15.5 6.5 26.5t18.5 11zm112 0q0 41-20 75.5T225.5 314Q191 334 150 334q-57-2-95-33-35-29-47.5-73t0-88Q20 96 55 67q38-31 95-33 41 0 75.5 20t54.5 54.5q20 34.5 20 75.5zm-37 0q-1-31-16-56.5T206.5 87Q181 72 150 71q-43 2-72 26-26 21-35 54t0 66q9 33 35 54 29 24 72 26 31-1 56.5-16t40.5-40.5q15-25.5 16-56.5zm-53 25q-29 11-60 13-31-2-60-13-4 0-7.5 1t-5.5 4.5q-2 3.5-2 7t2 6.5q11 20 30.5 31.5T150 271q23 0 42.5-11.5T223 228q2-3 2-6.5t-2-7q-2-3.5-5.5-5t-7.5-.5z"/></svg>