<svg viewBox="0 0 300 368" xmlns="http://www.w3.org/2000/svg"><path d="M296 121l-12-28q-9-15-25-21l-81-33q-14-5-28.5-5T122 39L41 72q-16 6-25 21L4 121q-7 10-2.5 21T17 157l87 39q4 2 8 2 7 0 12.5-3.5t9.5-9.5l16-30 16 30q4 6 9.5 9.5T188 198q4 0 8-2l87-39q11-4 15.5-15t-2.5-21zm-65-20l-81 30-81-30 67-27q7-3 14-3t14 3l67 27zm44 87v62q0 21-12.5 38T230 312l-52 17q-13 5-28 5t-28-5l-52-17q-20-7-32.5-24T25 250v-62l38 17v45q0 9 5 16.5T82 277l49 16v-75q12-4 19-13 7 9 19 14v74l49-16q9-3 14-10.5t5-16.5v-45l38-17z"/></svg>