<svg viewBox="0 0 300 368" xmlns="http://www.w3.org/2000/svg"><path d="M299 280q-3 23-20.5 38.5T237 334H19q-8 0-13.5-5.5T0 315q0-8 5.5-13t13.5-5h219q9-1 16-7t8-14.5q1-8.5 7.5-13t14-3.5q7.5 1 12 7.5T299 280zM12 251q-8-10-11-22t-1-25L28 71q3-16 16-26.5T74 34h74q9 0 17.5 4T180 49.5q6 7.5 8 16.5t0 18l-13 59h1q27 6 44.5 28t16.5 51q0 20-15.5 35T186 272H56q-12 0-23.5-5.5T12 251zm29-24q6 7 15 7h130q5 0 9.5-4t4.5-9q0-15-9-26.5T167 180l-19-6q-7-3-10.5-9t-2.5-13l4-18h-20q-8 0-13.5-5.5t-5.5-13q0-7.5 5.5-13T119 97h28l4-21q1-2-.5-3t-2.5-1H74q-3 0-6 2t-3 5L37 211q-1 9 4 16zm40-18q8 0 13.5-5.5T100 190q0-8-5.5-13T81 172q-8 0-13.5 5T62 190q0 8 5.5 13.5T81 209z"/></svg>