<svg viewBox="0 0 300 368" xmlns="http://www.w3.org/2000/svg"><path d="M275 136q0-29-20-49l-33-33q-20-20-49-20H94q-19 0-34.5 9.5t-25 25Q25 84 25 103v162q0 19 9.5 34.5t25 25Q75 334 94 334h112q19 0 34.5-9.5t25-25Q275 284 275 265V136zm-69 89l-18 70q-1 6-5.5 10t-10.5 4q-6 0-11-3t-7-8l-7-18-7 18q-2 5-6.5 8t-10.5 3h-1q-6 0-10.5-4t-5.5-10l-18-71q-1-5 1.5-9t7.5-5.5q5-1.5 9.5 1t5.5 7.5l13 50 10-26q2-4 5-6t7-2q4 0 7 2t5 6l10 26 13-50q1-5 5.5-7.5t9.5-1q5 1.5 7.5 6t1.5 8.5v1zM63 184v-81q0-13 9-22.5T94 71h69v50q0 11 7 18t18 7h50v38H63z"/></svg>