<svg viewBox="0 0 300 368" xmlns="http://www.w3.org/2000/svg"><path d="M194 34h-88q-18 0-34 9.5t-25 25Q38 84 38 103v162q0 19 9 34.5t25 25q16 9.5 34 9.5h88q18 0 34-9.5t25-25q9-15.5 9-34.5V103q1-19-8.5-34.5t-25.5-25Q212 34 194 34zm31 231q0 13-9 22t-22 9h-88q-13 0-22-9t-9-22V103q0-13 9-22.5t22-9.5h88q13 0 22 9.5t9 22.5v162zm-75-94q-23 0-39.5 16.5t-16.5 40q0 23.5 16.5 40T150 284q23 0 39.5-16.5t16.5-40q0-23.5-16.5-40T150 171zm0 75q-8 0-13.5-5t-5.5-13q0-8 5.5-13.5T150 209q8 0 13.5 5.5T169 228q0 8-5.5 13t-13.5 5zm-50-118v-13q0-8 5.5-13.5T119 96h62q8 0 13.5 5.5T200 115v13q0 8-5.5 13.5T181 147h-62q-8 0-13.5-5.5T100 128z"/></svg>