<svg viewBox="0 0 300 368" xmlns="http://www.w3.org/2000/svg"><path d="M300 159q0-8-5.5-13.5T281 140h-18l-10-33q-6-19-22-32t-36-15q-7-12-18.5-19T151 34h-2q-14 0-25.5 7T105 60q-21 2-37 15t-22 33l-10 32H19q-8 0-13.5 5.5T0 159q0 8 5.5 13.5T19 178h6l-6 20Q8 208 3 222t-2 29q3 15 12.5 26T38 293v16q0 10 7 17.5t17.5 7.5q10.5 0 18-7.5T88 309v-13h125v13q-1 10 6.5 17.5t18 7.5q10.5 0 17.5-7.5t7-17.5v-16q15-5 24.5-16.5T299 250q3-15-2.5-29T280 197l-6-19h7q8 0 13.5-5.5T300 159zM82 118q3-9 11.5-15.5T112 96h76q10 0 18 6t11 16l20 66H63l19-66zm162 141H56q-8 0-13-5.5T38 240q0-8 5-13.5t13-5.5h7v7q0 8 5 13t13 5q8 0 13.5-5t5.5-13v-7h100v7q0 8 5.5 13t13.5 5q8 0 13.5-5t5.5-13v-7h6q8 1 13.5 6t5.5 13q0 8-5.5 13.5T244 259z"/></svg>