<svg viewBox="0 0 300 368" xmlns="http://www.w3.org/2000/svg"><path d="M281 296h-6V159q0-34-17-62.5T212.5 51Q184 34 150 34T87.5 51Q59 68 42 96.5T25 159v137h-6q-8 0-13.5 5.5T0 315q0 8 5.5 13.5T19 334h262q8 0 13.5-5.5T300 315q0-8-5.5-13t-13.5-5v-1zM63 159q-1-24 11-44t32-31.5q20-11.5 44-12T194 83q20 12 31.5 32t12.5 44v137H63V159zm137 0q0 8-5.5 13.5T181 178h-12v50q0 8-5.5 13.5t-13.5 5q-8-.5-13.5-5.5t-5.5-13v-50h-12q-8 0-13.5-5.5T100 159q0-8 5.5-13.5T119 140h12v-12q0-8 5.5-13.5T150 109q8 0 13.5 5.5T169 128v12h12q8 0 13.5 5.5T200 159z"/></svg>