<svg viewBox="0 0 300 368" xmlns="http://www.w3.org/2000/svg"><path d="M134 160q4 7 3.5 14t-4.5 13l-23 38q-3 4-7.5 6.5T93 234q-5 0-9.5-2.5t-6.5-7q-2-4.5-2-9.5t3-10l13-21h-2q-13 0-21-10.5T64 150l26-45q3-4 7.5-6.5T107 96q5 0 9.5 3t6.5 7.5q2 4.5 2 9.5t-3 9l-13 21h2q7 1 13.5 4.5t9.5 9.5zm166-82v31q0 12-7 21.5T275 144v96q0 24-16.5 40T219 297h-26q-9 17-25.5 27T131 334H69q-19 0-34.5-9.5t-25-25Q0 284 0 265V103q0-19 9.5-34.5t25-25Q50 34 69 34h62q19 0 34.5 9.5t25 25Q200 84 200 103v156h19q8 0 13.5-5.5T238 240v-96q-12-4-18.5-13.5T212 109V78q1-8 6-13.5t13-5.5q8 0 13.5 5.5T250 78v6h13v-6q0-8 5-13.5t13-5.5q8 0 13.5 5.5T300 78zm-137 25q0-13-9.5-22.5T131 71H69q-13 1-22 10t-9 22v162q0 13 9 22t22 9h62q13 0 22-9t9-22l1-162z"/></svg>