<svg viewBox="0 0 300 368" xmlns="http://www.w3.org/2000/svg"><path d="M295 166l-32-88q-8-20-25-32t-38-12H100q-21 0-38 12T37 78L5 166q-5 15-5 30v34q0 19 10.5 35T38 290v19q0 10 7 17.5t17.5 7.5q10.5 0 18-7.5T88 309v-13h125v13q0 10 7 17.5t17.5 7.5q10.5 0 18-7.5T263 309v-19q16-9 26.5-25t10.5-35v-34q0-15-5-30zM73 91q3-9 10.5-14.5T100 71h100q9 0 16.5 5.5T227 91l25 68H48l25-68zm161 168h-35q1-3 1-6 0-8-5.5-13.5T181 234h-62q-8 0-13.5 5.5T100 253q0 3 1 6H66q-11 0-19.5-8.5T38 230v-9h25q7 0 12.5-5t5.5-13q0-3-1-7h146q-1 4-1 7 0 8 5.5 13.5T244 222h19v8q0 12-8.5 20.5T234 259z"/></svg>