<svg viewBox="0 0 300 368" xmlns="http://www.w3.org/2000/svg"><path d="M68 189l-42 42q-4 5-9.5 2t-3.5-9l18-68q3-10 11-17t19-9l48-7 53 52-8 48q-2 11-9 19t-17 11l-68 18q-6 1-9-4t2-9l42-42q5-6 5-13.5t-5.5-13q-5.5-5.5-13-5.5T68 189zm172-98q10-10 10-24t-9.5-23.5Q231 34 217 34t-24 10l-55 55 47 47 55-55zm10 143h-12q-6 0-9.5-3.5t-3.5-9q0-5.5 3.5-9t9.5-3.5h43q8 0 13.5-5.5T300 190q0-8-5.5-13.5T281 171h-43q-21 0-35.5 15t-15 35.5q-.5 20.5 14.5 35t36 14.5h12q5 0 9 4t4 9q0 5-4 8.5t-9 3.5H19q-8 0-13.5 5.5T0 315q0 8 5.5 13.5T19 334h231q21 0 35.5-14.5T300 284q0-21-14.5-35.5T250 234z"/></svg>