<svg viewBox="0 0 300 368" xmlns="http://www.w3.org/2000/svg"><path d="M288 131q-3-4-7-7t-9-3q-5 0-9.5 2.5t-7 7q-2.5 4.5-3 9.5t2.5 9q7 14 8 29 0 36-22 65-18 25-47 40-25 14-44 13.5T106 283q-29-15-47-40-21-29-21-65-1-11 3-21.5T53 138q8-8 18.5-12.5t22-4.5q11.5 0 22 4t18.5 12q8 8 12 18.5t4 22.5q-1 28-20 49-5 5-5 13t5.5 13.5Q136 259 144 259t13-5q14-16 22-35.5t8.5-41.5q.5-22-10.5-43h4q28 0 51-15 18-13 30-34 10-17 13-35 1-5-2.5-9.5T264 35q-12-1-24-1-53 0-81 32-4-8-10-14-8-9-19.5-13.5T106 34q-8 0-13 5.5T88 53q0 8 5 13.5t13.5 5Q115 71 121 77t8 13q-17-6-35.5-6t-36 7q-17.5 7-31 20t-20 30.5Q0 159 0 178q0 36 16 67 15 27 40 49 22 19 48 29.5t46 10.5q20 0 46-10.5t48-29.5q25-22 40-49 16-31 16-67 0-25-12-47z"/></svg>