<svg viewBox="0 0 300 368" xmlns="http://www.w3.org/2000/svg"><path d="M175 184v125q0 10-7.5 17.5T150 334q-10 0-17.5-7.5T125 309V184q0-10 7.5-17.5T150 159q10 0 17.5 7.5T175 184zm125 4v102q0 18-13 31t-31 13h-12q-18 0-31-13t-13-31V184q0-11-4.5-20.5T184 147q-17-15-39-13-19 2-32 17.5T100 187v103q0 18-13 31t-31 13H44q-18 0-31-13T0 290V184q0-30 11.5-58T45 77q22-21 49.5-32.5T153 34q40 1 73.5 22t53.5 56q20 35 20 76zm-62-4v25h25v-21q0-23-9-45l-21 13q4 14 4 28h1zM68 156l-23-13q-7 20-7 41v25h25v-22q-1-16 5-31zm-5 134v-44H38v44q0 3 1.5 4.5T44 296h12q3 0 4.5-1.5T63 290zm68-191V73q-35 6-60 31l-6 7 22 13q19-20 44-25zm78 20l4 4v1l21-13q-13-15-29.5-24.5T169 73v26q23 5 40 20zm54 171v-44h-25v44q-1 3 1 4.5t5 1.5h12q3 0 4.5-1.5t2.5-4.5z"/></svg>