<svg viewBox="0 0 300 368" xmlns="http://www.w3.org/2000/svg"><path d="M295 137q-5-6-13-6t-14 5l-10 10h-70v-6q0-8-5.5-13.5T169 121q-8 0-13.5 5.5T150 140v56q0 6-3.5 9.5t-9 3.5q-5.5 0-9-3.5T125 196v-59q0-14 9-26t24-16l50-13q5-1 8-5l12-11q5-5 5-13t-5.5-13.5Q222 34 214 34t-13 6l-8 7-45 12q-23 6-38.5 23T89 122q-22 2-39 16.5T28 175l-11 46-12 12q-5 6-5 13.5t5.5 13q5.5 5.5 13 5.5t13.5-5l16-16q4-4 5-9l11-52q2-8 8.5-14.5T88 160v37q0 20 14.5 35t35 15q20.5 0 35.5-15t15-35v-13h49l-18 65q-3 10-11 16.5t-19 6.5h-64q-8 0-14 5l-24 25q-5 6-5 13.5t5.5 13q5.5 5.5 13 5.5t13.5-6l19-19h56q23 0 41.5-14t24.5-36l22-80 17-16q6-5 6-13t-5-13z"/></svg>