<svg viewBox="0 0 300.0024 368" xmlns="http://www.w3.org/2000/svg"><path d="M172 76l38-38q4-4 9-4t8 4l39 38q3 4 3 8.5t-3.5 8Q262 96 257 96h-20v13q0 8-5 13.5t-13 5.5q-8 0-13.5-5.5T200 109V96h-20q-5 0-8.5-3.5t-3.5-8q0-4.5 4-8.5zM66 146h56q12 1 20-7.5t8-20.5q0-18-12.5-35T108 60q5-4 9-9t.5-11q-3.5-6-10.5-6H81q-8 0-11 6t1 11q4 5 8 9-17 6-29 23t-12 35q0 12 8 20t20 8zm222 69l-65 74q-19 22-45 33.5T124 334H56q-23 0-39.5-16.5T0 278v-50q0-24 16.5-40.5T56 171h98q18 0 31 12l31-33q13-15 33-16t35 12.5q15 13.5 16 33.5t-12 35zm-29-41q-3-3-8-2.5t-8 3.5l-43 48q-2 15-13 26t-26 13l-65 9q-7 1-13.5-3.5t-7.5-12q-1-7.5 3.5-14T91 234l65-9q3 0 5-2.5t1.5-5.5q-.5-3-2.5-5.5t-6-2.5H56q-8 0-13.5 5.5T37 228v50q1 8 6 13.5t13 5.5h68q20-1 38.5-9t32.5-24l65-74q3-3 2.5-8t-3.5-8z"/></svg>