<svg viewBox="0 0 300 368" xmlns="http://www.w3.org/2000/svg"><path d="M213 90q-1-13 8.5-22t22.5-9q13 0 22 9t9 22q0 13-9 22.5t-22 9.5q-13 0-22.5-9.5T212 90h1zm-113 69q10 0 17.5-7.5T125 134q0-10-7.5-17.5T100 109q-10 0-17.5 7.5T75 134q0 10 7.5 17.5T100 159zm69 25q0-8-5.5-13.5T150 165q-8 0-13.5 5.5T131 184q0 8 5.5 13.5T150 203q8 0 13.5-5.5T169 184zm128-29q-1-7-7.5-11.5t-14-3q-7.5 1.5-12 8T260 163q3 10 2 21 1 31-14.5 56.5t-41 41Q181 297 150 297t-56.5-15.5q-25.5-15.5-41-41t-15-56.5q.5-31 15.5-56.5t40.5-41Q119 71 150 71q11 0 21 3 8 1 14.5-3.5t8-12q1.5-7.5-3-14T179 37q-14-3-29-3-41 0-75.5 20T20 108.5Q0 143 0 184t20 75.5Q40 294 74.5 314t75.5 20q41 0 75.5-20t54.5-54.5q20-34.5 20-75.5 0-14-3-29zm-146-42q-2 7 1.5 14t11.5 9q16 4 26 17.5t10 30.5q0 21-14.5 35.5T150 234q-17 0-30.5-10T102 198q-2-8-9-11.5T78.5 185q-7.5 2-11 8.5T66 208q8 28 31.5 46t52.5 18q24 0 44-12t31.5-32q11.5-20 11.5-44 0-29-17.5-52.5T174 100q-8-2-14.5 1.5T151 113z"/></svg>