<svg viewBox="0 0 300 368" xmlns="http://www.w3.org/2000/svg"><path d="M163 109h-25q-19 0-31.5 13T94 153v87q0 8 5.5 13.5t13 5.5q7.5 0 13-5.5T131 240v-19h32q23 0 39.5-16t16.5-39.5q0-23.5-16.5-40T162 109h1zm0 75h-32v-31q0-3 2-5t5-2h25q7 0 12.5 5.5T181 165q0 8-5.5 13.5T162 184h1zM150 34q-41 0-75.5 20T20 108.5Q0 143 0 184t20 75.5Q40 294 74.5 314t75.5 20q41 0 75.5-20t54.5-54.5q20-34.5 20-75.5t-20-75.5Q260 74 225.5 54T150 34zm0 262q-31 0-56.5-15T53 240.5Q38 215 37.5 184t15-56.5q15.5-25.5 41-41T150 71q31 0 56.5 15.5t41 41q15.5 25.5 15 56.5T247 240.5q-15 25.5-40.5 41T150 297v-1z"/></svg>