<svg viewBox="0 0 300 368" xmlns="http://www.w3.org/2000/svg"><path d="M100 165v38q0 8-5.5 13.5t-13.5 5q-8-.5-13-5.5t-5-13v-38q-1-8 4.5-13t13.5-5q8 0 13.5 5t5.5 13zm31-56q-8 0-13.5 5.5T112 128v112q1 8 6 13.5t13 5.5q8 0 13.5-5.5T150 240V128q0-8-5.5-13.5T131 109zm50 25q-8 0-13.5 5.5T162 153v62q0 8 5.5 13.5T181 234q8 0 13.5-5.5T200 215v-62q0-8-5.5-13.5T181 134zm119 50q0 41-20 75.5T225.5 314Q191 334 150 334t-75.5-20Q40 294 20 259.5T0 184q0-41 20-75.5T74.5 54Q109 34 150 34t75.5 20Q260 74 280 108.5t20 75.5zm-37 0q0-31-15.5-56.5t-41-41Q181 71 150 71.5T93.5 87q-25.5 15-41 40.5t-15 56.5q.5 31 15.5 56.5T93.5 281q25.5 15 56.5 15.5t56.5-15q25.5-15.5 41-41T263 184zm-32-13q-8 0-13.5 5.5T212 190q0 8 5.5 13.5T231 209q8 0 13.5-5.5T250 190q0-8-5.5-13.5T231 171z"/></svg>