<svg viewBox="0 0 300 368" xmlns="http://www.w3.org/2000/svg"><path d="M88 184q20 0 37-10t27-27.5q10-17.5 11-37.5h6q8 0 13.5-5.5t5-13.5q-.5-8-5.5-13.5T169 71h-17q-10-17-27-27T87.5 34Q67 34 50 44T22.5 71.5Q12 89 12.5 109T23 146.5Q33 164 50 174t38 10zm0-38q-16 0-27-10.5T50 109h75q0 16-11 26.5T88 146zm98 141q2 8 1 16v12q1 8-4.5 13.5T169 334q-8 0-13.5-5.5T150 315v-12q0-5-1-10-1-7 3.5-13.5t12-8q7.5-1.5 14 3T186 287zM294 76l-44 20v55q0 21-14 37l-36 40q-8 9-19 13.5t-23 4.5H94q-24 0-40 16.5T38 303v12q0 8-5.5 13.5T19 334q-8 0-13.5-5.5T0 315v-12q0-26 12.5-47.5t34-34Q68 209 94 209h64q9 0 14-6l36-40q5-5 5-12V53q0-8 5-13.5t13-5.5q13 0 24 5l39 15q6 4 6 11t-6 11z"/></svg>