<svg viewBox="0 0 300 368" xmlns="http://www.w3.org/2000/svg"><path d="M125 76q0 8-5 14l-7 11v102q-1 8-6 13.5T94 222q-8 0-13.5-5.5T75 203v-30q-12 3-18.5 8T50 192q0 3 2 10 4 12 4 19.5T53 236q-2 5-7 13-4 7-6 11-3 6-2.5 11.5T44 283q6 6 17 10t26 4q8-1 13.5 4.5T106 315q0 8-5.5 13.5T88 334q-25 0-45-8t-31.5-22.5Q0 289 0 271q0-12 5-24 3-7 9-18 4-7 5-8l-2-7q-5-13-5-22 1-21 16-36 16-17 47-21v-34l-8-10q-4-7-5-15V59q1-10 8-17.5T88 34h12q10 0 17.5 7.5T125 59v17zm175 214q0 21-18 33-16 11-38 11h-63q-22 0-38-11-18-12-18-33 0-14 5-28 4-8 11-20 5-8 7-12t2-8q0-10-5-29-7-29-7-50v-4q0-7 5.5-12.5t13-5q7.5.5 13 6T175 140v2q1 12 8 19 4 5 11 7v-62q-7-3-13-8.5t-6-7.5q0-10 8-26 6-10 13-20 3-5 8-7.5t11.5-2q6.5.5 11 6.5t4.5 13v116q17-5 19-20l1-4q1-5 5-8.5t12-3.5q8 0 14 5.5t5 13.5q1 17-2 30-2 8-6 19l-3 9q-1 5-1 10t2 9q2 4 7 12 7 12 11 20 5 14 5 28zm-37 0q0-7-4-15-2-4-7-13-7-11-10-18-4-11-4-23 0-7 1-15-11 3-23 3-17 0-30-4 2 9 2 16 0 12-5 23-3 7-10 18-5 9-7 13-3 8-3 15 0 3 6 4.5t12 1.5h63q6 0 12.5-1.5t6.5-4.5z"/></svg>