<svg viewBox="0 0 300 368" xmlns="http://www.w3.org/2000/svg"><path d="M63 334q-12 0-20-7l-24-23Q7 291 2.5 275T2 243q4-16 16-28 19-19 44.5-19t44 18.5Q125 233 125 259t-18 44l-25 24q-8 7-19 7zm0-100q-11 0-18 7.5T38 259q0 10 7 18l18 16 18-17q6-7 6-17t-7-17.5q-7-7.5-18-7.5h1zm175-62q-12 0-20-8l-24-23q-12-12-16.5-28t-.5-32.5Q181 64 193 52q19-18 44.5-18t44 18.5Q300 71 300 96.5T282 141l-25 23q-8 8-19 8zm0-101q-11 0-18 7.5t-7 18q0 10.5 7 17.5l18 17 18-17q6-7 6-17.5t-7-18q-7-7.5-18-7.5h1zm62 207q0-24-16.5-40.5T244 221h-50q-8 0-13.5-5t-5.5-13.5q0-8.5 6-13.5t6.5-13q.5-8-4.5-13.5t-13-6q-8-.5-14 4.5-9 8-14 19t-5 23q0 23 16.5 39.5T194 259h50q7 0 12.5 5.5T262 278q0 8-5.5 13t-12.5 5H144q-8 0-13.5 5.5T125 315q0 8 5.5 13.5T144 334h100q23 0 39.5-16.5T300 278z"/></svg>