<svg viewBox="0 0 300 368" xmlns="http://www.w3.org/2000/svg"><path d="M300 115v-12q0-24-16.5-40T244 46H69q-19 0-34.5 9.5t-25 25Q0 96 0 115v82q0 18 7 35.5T28 263l10 10v17q0 13 9 22.5t22 9.5q13 0 22-9.5t9-22.5v-6h100v6q0 13 9 22.5t22 9.5q13 0 22.5-9.5T263 290v-6h18q8 0 13.5-5.5T300 265v-49q0-24-12-46l-14-24q11-2 18.5-10.5T300 115zm-137 50v82l-99-1-10-10q-8-7-12.5-17.5T38 197v-82q0-13 9-22t22-9h175q8 0 13.5 5.5T263 103v6h-44q-24 0-40 16.5T163 165zm37 44v-44q0-8 5.5-13.5T219 146h12l24 43q6 9 7 20h-62zm-62-75v25q0 5-4 9t-9 4H75q-5-1-8.5-4.5T63 159v-25q0-5 3.5-9t8.5-4h50q5 0 9 4t4 9z"/></svg>