<svg viewBox="0 0 300 368" xmlns="http://www.w3.org/2000/svg"><path d="M138 190q0 8-5.5 13.5T119 209q-8 0-13.5-5.5T100 190q0-8 5.5-13t13.5-5.5q8-.5 13 5t6 13.5zm-32 44q-8 0-13 5.5T88 253q0 8 5 13.5t13 5q8-.5 13.5-5.5t5.5-13q0-8-5.5-13.5T106 234zm75-63q-8 0-13.5 5.5t-5 13.5q.5 8 5.5 13.5t13 5.5q8 0 13.5-5.5T200 190q0-8-5.5-13t-13.5-6zm-12 63q-8 0-13.5 5.5T150 253q0 8 5.5 13.5t13.5 5q8-.5 13.5-5.5t5.5-13q0-8-5.5-13.5T169 234zm-75 62q-8 0-13.5 5.5T75 315q0 8 5.5 13.5T94 334q8 0 13.5-5.5t5-13.5q-.5-8-5.5-13.5T94 296zm62 0q-8 0-13 5.5t-5 13.5q0 8 5 13.5t13 5.5q8 0 13.5-5.5T175 315q0-8-5.5-13.5T156 296zm82-13q32-14 48-43 15-26 13-57.5T278 128q-21-25-55-32-3-1-4-4-15-31-46.5-47T107 36q-32 6-54 28.5T25 119q-3 18 1 37 0 3-2 4-13 12-19 27.5T.5 220q1.5 17 10 31T33 275q7 4 14.5 2.5t12-8q4.5-6.5 3-14t-8.5-12Q47 239 43 232t-5-15q-1-8 2-15.5t9-13.5q8-7 11.5-17.5t1.5-22Q60 137 62 125q4-21 19-35.5T117 72q21-3 40 7t28 30q4 9 12 15t18 8q21 5 33.5 20t13.5 34.5q1 19.5-9 36.5t-29 25q-5 2-8 6t-4 9q-1 5 1 9.5t6.5 8q4.5 3.5 9.5 4t9-1.5z"/></svg>