<svg viewBox="0 0 300 368" xmlns="http://www.w3.org/2000/svg"><path d="M125 115q0-8 5.5-13.5T144 96q8 0 13.5 5.5T163 115q0 8-5.5 13.5T144 134q-8 0-13.5-5.5T125 115zm175-12v62q0 19-9.5 34.5t-25 25Q250 234 231 234H131q-18 0-34-9.5t-25-25Q63 184 63 165v-62q0-19 9-34.5t25-25q16-9.5 34-9.5h100q19 0 34.5 9.5t25 25Q300 84 300 103zm-200 62q0 9 5 17t13 11l53-53q6-6 14.5-6t14.5 6l13 13q5 6 13.5 6t14.5-6l21-22v-28q0-13-9-22t-22-9H131q-13 0-22 9t-9 22v62zm119 94q-7-1-13.5 3t-8.5 12v1q-3 11-13.5 17t-21.5 3L59 267q-12-3-18-13.5T39 231l6-23q2-8-2-14.5T31.5 185q-7.5-2-14 1.5T9 198l-7 23q-7 27 7 51 6 11 16.5 19.5T49 303l103 28q8 3 18 3 17 0 32-9 12-7 20-17t11-23l1-4q2-7-2.5-13.5T219 259z"/></svg>