<svg viewBox="0 0 300 368" xmlns="http://www.w3.org/2000/svg"><path d="M231 146H100v-37h25q16 0 26.5-11t11-26.5Q163 56 152 45t-27-11H38q-16 0-27 11T0 71.5Q0 87 11 98t27 11h25v38q-27 2-45 22T0 215v50q0 19 9.5 34.5t25 25Q50 334 69 334h162q19 0 34.5-9.5t25-25Q300 284 300 265v-50q0-18-9.5-34t-25-25.5Q250 146 231 146zM38 215q0-13 9-22t22-9h162q13 0 22 9t9 22v50q1 3 0 6H38v-56zm25 13q0-8 5-13.5t13-5.5q8 0 13.5 5.5T100 228q0 8-5.5 13.5t-13.5 5q-8-.5-13-5.5t-5-13zm68 0q0-8 5.5-13.5T150 209q8 0 13.5 5.5T169 228q0 8-5.5 13.5t-13.5 5q-8-.5-13.5-5.5t-5.5-13zm69 0q0-8 5.5-13.5T219 209q8 0 13 5.5t5.5 13.5q.5 8-5 13.5t-13.5 5q-8-.5-13.5-5.5t-5.5-13z"/></svg>