<svg viewBox="0 0 300 368" xmlns="http://www.w3.org/2000/svg"><path d="M299 100q-3-18-17-29.5T249 59H51q-19 0-33 11.5T1 99q-3 17 4 31.5T25 152v101q0 23 16.5 39.5T81 309h138q23 0 39.5-16.5T275 253V152q14-7 20.5-21.5T299 100zM62 253l1-113q0-7-4.5-12t-10-6.5Q43 120 40 116t-2-9q1-5 4.5-8t8.5-3h112q5 1 8.5 4.5t3.5 8q0 4.5-3 8t-7 4.5q-7 2-11 7t-4 12v113q0 8-5.5 13t-13.5 5H81q-8 0-13.5-5T62 253zm191-132q-7 2-11 7t-4 12v113q0 8-5.5 13t-13.5 5h-35q4-8 4-18V152q11-6 18-18t7-25q0-7-2-13h38q5 0 8.5 3t4.5 8q1 5-2 9t-7 5z"/></svg>