<svg viewBox="0 0 300 368" xmlns="http://www.w3.org/2000/svg"><path d="M61 70l19-6 6-19q1-5 5-8t9-3q5 0 9 3t5 8l6 19 19 6q5 1 8 5t3 9q0 5-3 9t-8 5l-19 6-6 19q-1 5-5 8t-9 3q-5 0-9-3t-5-8l-6-19-19-6q-5-1-8-5t-3-9q0-5 3-9t8-5zm228 150l-19-6-6-19q-1-5-5-8t-9-3q-5 0-9 3t-5 8l-6 19-19 6q-5 1-8 5t-3 9q0 5 3 9t8 5l19 6 6 19q1 5 5 8t9 3q5 0 9-3t5-8l6-19 19-6q5-1 8-5t3-9q0-5-3-9t-8-5zM222 90l17 5 5 17q1 4 4.5 6.5t8 2.5q4.5 0 8-2.5t4.5-6.5l5-17 17-5q4-1 6.5-4.5t2.5-8q0-4.5-2.5-8T291 65l-17-5-5-17q-1-4-4.5-6.5t-8-2.5q-4.5 0-8 2.5T244 43l-5 17-17 5q-4 1-6.5 4.5t-2.5 8q0 4.5 2.5 8T222 90zm-8 102L84 320q-15 14-35 14t-34.5-14.5Q0 305 0 285t14-35l132-128q11-10 25.5-13t28 3q13.5 6 21.5 18t8 27q0 21-15 35zm-77 23l-16-16-80 78q-4 3-3.5 8t3.5 8q3 3 8 3t8-3l80-78zm55-58q0-3-2-6t-5.5-4.5q-3.5-1.5-6.5-1t-6 3.5l-24 24 16 16 24-24q4-3 4-8z"/></svg>