<svg viewBox="0 0 300.0014 368" xmlns="http://www.w3.org/2000/svg"><path d="M13 240q0-13 9-22t22-9q13 0 22 9t9 22q0 13-9 22t-22 9.5q-13 .5-22-9T13 240zm231-31H144q-8 0-13.5-5.5T125 190q0-8 5.5-13.5T144 171q8 0 13.5-5t5.5-13q0-8-5.5-13.5T144 134q-24 0-40 16.5t-16 40q0 23.5 16 39.5t40 16h100q8 0 13.5 5.5T263 265q0 8-5.5 13.5T244 284H131q-8 0-13.5 5.5T112 303q0 8 5.5 13.5T131 321h113q23 0 39.5-16t16.5-39.5q0-23.5-16.5-40T244 209zM44 284q-15 0-27 9T1 315q-2 6 0 11 4 8 17 8h51q13 0 17-8 3-5 1-11-4-13-16-22t-27-9zm150-158l-11 35q-1 3 0 6.5t4 6q3 2.5 6.5 2.5t6.5-2l31-21 32 21q3 2 6.5 1.5t6.5-2.5q3-2 4-5.5t0-7.5l-11-34 27-22q3-2 4-5.5t-.5-7Q298 88 295 86t-6-2h-35l-12-34q-1-4-4-6t-6.5-2q-3.5 0-6.5 2t-4 6l-13 34h-34q-4 0-7 2t-4 5.5q-1 3.5 0 7t4 5.5l27 22z"/></svg>