<svg viewBox="0 0 300 368" xmlns="http://www.w3.org/2000/svg"><path d="M150 334q-41 0-75.5-20T20 259.5Q0 225 0 184t20-75.5Q40 74 74.5 54T150 34q41 0 75.5 20t54.5 54.5q20 34.5 20 75.5t-20 75.5Q260 294 225.5 314T150 334zm0-263q-31 0-56.5 15.5t-40.5 41Q38 153 37.5 184t15 56.5q15.5 25.5 41 41t56.5 15q31-.5 56.5-15.5t40.5-40.5q15-25.5 15-56.5t-15-56.5q-15-25.5-40.5-41T150 71zm63 119q-1-8-6-13.5t-13-5.5h-31v-56q0-8-5.5-13.5T144 96q-8 0-13.5 5.5T125 115v75q0 8 5.5 13.5T144 209h50q8 0 13.5-5.5T213 190z"/></svg>