<svg viewBox="0 0 300 368" xmlns="http://www.w3.org/2000/svg"><path d="M287 105q-7-3-13.5-2.5T261 107l-24 24q-4-25-23-42.5T169 71H69q-19 0-34.5 9.5T9.5 106Q0 122 0 140v88q0 18 9.5 34t25 25q15.5 9 34.5 9h100q26 0 45-16.5t23-42.5l24 23q7 5 14 5t13-3q6-3 9-9.5t3-13.5V127q0-7-3.5-13t-9.5-9zm-87 123q0 13-9 22t-22 9H69q-13 0-22-9t-9-22v-88q0-13 9-22t22-9h100q13 0 22 9t9 22v88zm-31-44q0 8-5.5 13.5T150 203h-12v12q0 8-5.5 13.5T119 234q-8 0-13.5-5.5T100 215v-12H88q-8 0-13.5-5.5T69 184q0-8 5.5-13.5T87 165h13v-12q0-8 5.5-13.5T119 134q8 0 13 5.5t6 13.5v12h12q8 0 13.5 5.5T169 184z"/></svg>