<svg viewBox="0 0 300 368" xmlns="http://www.w3.org/2000/svg"><path d="M215 176l-102-25V78q0-8-5.5-13.5T94 59q-8 0-13.5 5.5T75 78v169q0 1-1 1.5t-2-.5l-32-32q-7-5-16.5-4.5T7 219q-7 7-7 16.5T5 252l43 46q9 12 24 21 25 15 59 15h69q17 0 31.5-8.5t22.5-23q8-14.5 8-30.5v-35q0-22-13-38.5T215 176zm10 95q0 11-7.5 18t-17.5 7h-69q-27 0-45-12l2-1q11-4 17.5-14t6.5-22v-58l94 24q8 2 13.5 8.5T225 237v34zm71-172l-38 38q-4 4-8.5 3.5t-8-3.5q-3.5-3-3.5-9v-19h-57q-8 0-13.5-5.5t-5-13q.5-7.5 5.5-13t13-5.5h57V52q0-5 3.5-8t8-3.5Q254 40 258 44l38 38q4 3 4 8t-4 9z"/></svg>