<svg viewBox="0 0 300 368" xmlns="http://www.w3.org/2000/svg"><path d="M289 270q-9-3-15.5-9.5T264 245q-1-5-5-8t-9-3q-5 0-9 3t-5 8q-3 9-9.5 15.5T211 270q-5 1-8 5t-3 9q0 5 3 9t8 5q9 3 15.5 9.5T236 323q1 5 5 8t9 3q5 0 9-3t5-8q3-9 9.5-15.5T289 298q5-1 8-5t3-9q0-5-3-9t-8-5zM189 70q-9-3-15.5-9.5T164 45q-1-5-5-8t-9-3q-5 0-9 3t-5 8q-3 9-9.5 15.5T111 70q-5 1-8 5t-3 9q0 5 3 9t8 5q9 3 15.5 9.5T136 123q1 5 5 8t9 3q5 0 9-3t5-8q3-9 9.5-15.5T189 98q5-1 8-5t3-9q0-5-3-9t-8-5zM11 298q9 3 15.5 9.5T36 323q1 5 5 8t9 3q5 0 9-3t5-8q3-9 9.5-15.5T89 298q5-1 8-5t3-9q0-5-3-9t-8-5q-9-3-15.5-9.5T64 245q-1-5-5-8t-9-3q-5 0-9 3t-5 8q-3 9-9.5 15.5T11 270q-5 1-8 5t-3 9q0 5 3 9t8 5zm39-95q0 8 5.5 13t13.5 5.5q8 .5 13.5-5T88 203q0-8-5.5-13.5T69 184q-8 0-13.5 5.5T50 203zM0 153q0 8 5.5 13.5t13.5 5q8-.5 13.5-5.5t5.5-13q0-8-5.5-13.5T19 134q-8 0-13.5 5.5T0 153zm50-50q0 8 5.5 13.5t13.5 5q8-.5 13.5-5.5t5.5-13q0-8-5.5-13.5T69 84q-8 0-13.5 5.5T50 103zM0 53q0 8 5.5 13T19 71q8 0 13.5-5T38 53q0-8-5.5-13.5T19 34q-8 0-13.5 5.5T0 53zm263 150q0 8 5 13t13 5.5q8 .5 13.5-5T300 203q0-8-5.5-13.5T281 184q-8 0-13.5 5.5T262 203h1zm-50-50q0 8 5 13.5t13 5q8-.5 13.5-5.5t5.5-13q0-8-5.5-13.5T231 134q-8 0-13.5 5.5T212 153h1zm50-50q0 8 5 13.5t13 5q8-.5 13.5-5.5t5.5-13q0-8-5.5-13.5T281 84q-8 0-13.5 5.5T262 103h1zm-50-50q0 8 5 13.5t13 5q8-.5 13.5-5.5t5.5-13q0-8-5.5-13.5T231 34q-8 0-13.5 5.5T212 53h1zm-50 262q0 8 5 13.5t13 5.5q8 0 13.5-5.5T200 315q0-8-5.5-13.5T181 296q-8 0-13.5 5.5T162 315h1zm-50-50q-1 8 4.5 13.5T131 284q8 0 13.5-5.5T150 265q0-8-5.5-13.5T131 246q-8 0-13 5.5t-5 13.5zm50-50q0 8 5 13.5t13 5.5q8 0 13.5-5.5T200 215q0-8-5.5-13t-13.5-5.5q-8-.5-13.5 5T162 215h1zm-50-50q-1 8 4.5 13.5T131 184q8 0 13.5-5.5T150 165q0-8-5.5-13.5T131 146q-8 0-13.5 5.5T113 165z"/></svg>