<svg viewBox="0 0 300 368" xmlns="http://www.w3.org/2000/svg"><path d="M63 171v25h31q8 1 13.5 6t5 13q-.5 8-5.5 13.5T94 234H63v31q0 13 9 22t22 9q8 0 13.5 5.5t5 13.5q-.5 8-5.5 13.5T94 334q-19 0-34.5-9.5t-25-25Q25 284 25 265V96Q14 94 7 85T0 64q0-12 9-21t22-9h213q13 0 22 9t9 21q0 12-7 21t-18 11v19q0 8-5.5 13.5T231 134q-8 0-13.5-5.5T212 115V96H63v38h31q8 0 13.5 5.5t5 13.5q-.5 8-5.5 13.5T94 172H63v-1zm237 75q0 24-12 44t-32 32q-20 12-43.5 12T169 322q-20-12-32-32t-12-43.5q0-23.5 12-43.5t32-32q20-12 43.5-12t43.5 12q20 12 32 32t12 43zm-137 0q0 11 3 20l66-66q-9-3-20-3-20 0-35 14.5T162 247l1-1zm100 0q0-10-4-19l-66 66q9 3 20 3 20 0 35-14.5t15-35.5z"/></svg>