<svg viewBox="0 0 300 368" xmlns="http://www.w3.org/2000/svg"><path d="M225 128q12 13 12 31t-12 31l-26 26q-6 5-13.5 5t-13-5q-5.5-5-5.5-13t5-14l26-26q2-1 2-4t-2-4l-26-27q-5-5-5-13t5.5-13.5q5.5-5.5 13-5.5t13.5 6l26 26zm-97 0q5-5 5-13t-5.5-13.5q-5.5-5.5-13-5.5t-13.5 6l-26 26q-12 13-12 31t12 31l26 26q6 5 13.5 5t13-5q5.5-5 5.5-13t-5-14l-26-26q-2-1-2-4t2-4l26-27zm172-25v112q0 19-9.5 34.5t-25 25Q250 284 231 284h-14l-47 38q-8 8-20 8t-21-8l-45-38H69q-19 0-34.5-9.5t-25-25Q0 234 0 215V103q0-19 9.5-34.5t25-25Q50 34 69 34h162q19 0 34.5 9.5t25 25Q300 84 300 103zm-37 0q0-13-9.5-22.5T231 71H69q-13 0-22 9.5T38 103v112q0 13 9 22.5t22 9.5h22q7-1 12 4l47 39 48-39q5-4 12-4h21q13-1 22.5-10t9.5-22V103z"/></svg>