<svg viewBox="0 0 300.0019 368" xmlns="http://www.w3.org/2000/svg"><path d="M281.002 253h-25v-25q0-8-5.5-13.5t-13-5.5q-7.5 0-13 5.5t-5.5 13.5v25h-25q-8 0-13.5 5.5t-5.5 13q0 7.5 5.5 13t13.5 5.5h25v25q0 8 5.5 13.5t13 5.5q7.5 0 13-5.5t5.5-13.5v-25h25q8 0 13.5-5.5t5.5-13q0-7.5-5.5-13t-13.5-5.5zm-136 43q-30-1-55-17t-39-41.5q-14-25.5-13.5-55.5t15.5-55q15-25 40-40t55-15.5q30-.5 55.5 13.5t41.5 39q16 25 17 55 1 7 6.5 12.5t13.5 5q8-.5 13-6t5-13.5q-2-40-23-73t-55-52q-34-19-74-18t-73.5 20.5q-33.5 19.5-53.5 53.5t-21 73.5q-1 39.5 18 74t52 55.5q33 21 73 23h1q8 0 13.5-5.5t5.5-13q0-7.5-5.5-13t-12.5-6.5zm5-187q-8 0-13.5 5.5t-5.5 13.5v44l-30 19q-6 4-8 11.5t2 14q4 6.5 12 8.5t14-2l36-23q6-3 9-9t3-12v-51q0-8-5.5-13.5t-13.5-5.5z"/></svg>