<svg viewBox="0 0 300 368" xmlns="http://www.w3.org/2000/svg"><path d="M109 238q16 18 16 41v36q0 8-5.5 13.5T106 334q-8 0-13.5-5.5T87 315v-34q1-10-6-17l-43-49q-13-14-13-32t13-30l31-24q7-7 18-7t18 7.5q7 7.5 7 18t-7 17.5l-35 28 39 45zM92 97q9 1 15-4.5t6-13.5V65q0-8-5.5-13.5T94 46q-8 0-13.5 5.5T75 65v14q0 7 5 12t12 6zm152 62q-8 0-13.5 5.5T225 178v25q0 20-10 37-15 26-15 57v18q0 8 5.5 13.5T219 334q8 0 13-5.5t5-13.5v-18q0-21 11-38 14-26 14-56v-25q0-8-5-13.5t-13-5.5zm0-113q-8 0-13.5 5.5T225 65v50q0 8 5.5 13.5T244 134q8 0 13-5.5t5-13.5V65q0-8-5-13.5T244 47v-1zm-32 57V53q0-8-5-13.5T194 34q-8 0-13.5 5.5T175 53v50q0 8 5.5 13t13.5 5q8 0 13-5t5-13zm-68-69q-8 0-13.5 5.5T125 53v50q0 8 5.5 13t13.5 5q8 0 13.5-5t5.5-13V53q0-8-5.5-13.5T144 34z"/></svg>