<svg viewBox="0 0 300 368" xmlns="http://www.w3.org/2000/svg"><path d="M288 315q0 8-5.5 13.5T269 334h-52q-8 0-15-4t-11-11q-4-7-3.5-15.5T192 288l48-54h-34q-8 0-13-5.5t-5.5-13.5q-.5-8 5-13.5T206 196h52q8 1 15 5t11 11q4 7 3.5 15t-4.5 15l-48 54h34q8 0 13 5.5t5 13.5h1zm0-231v69q0 8-5.5 13.5t-13.5 5q-8-.5-13.5-5.5t-5.5-13v-19h-25v19q0 8-5.5 13.5t-13.5 5q-8-.5-13-5.5t-5-13V84q-1-21 14-35.5T237.5 34Q258 34 273 48.5T288 84zm-32 19V84q0-8-5.5-13.5t-13-5.5q-7.5 0-13 5.5T219 84v19h37zM103 43q-9-10-22-10T59 43L12 89q-6 6-6 13.5t5.5 13q5.5 5.5 13.5 6t13-5.5l25-24v223q0 8 5 13.5t13 5.5q8 0 13.5-5.5T100 315V92l24 24q6 5 13.5 5t13-5.5q5.5-5.5 5.5-13T151 89l-48-46z"/></svg>