<svg viewBox="0 0 300 368" xmlns="http://www.w3.org/2000/svg"><path d="M65 104l10 5v25q0 20 10 37.5t27.5 27.5q17.5 10 37.5 10t37.5-10q17.5-10 27.5-27.5t10-37.5v-25l10-5q7-3 11-9.5t4-15q0-8.5-5.5-16T230 54l-59-17q-10-3-21-3t-21 3L70 54q-9 2-14.5 9.5t-5.5 16q0 8.5 4 15t11 9.5zm123 30q0 16-11 27t-27 10.5q-16-.5-26.5-11T113 134v-2q18 2 37 2t37-2v2h1zm-69-56q3-6 10-6 4 0 7 1l14 9 14-9q3-1 7-1 7 0 10 5t1.5 10q-1.5 5-5.5 8l-21 12q-3 2-6 2t-6-2l-21-12q-4-3-5.5-8t1.5-9zm127 256h-2q-7 0-12.5-4.5T225 318q-3-20-16.5-35T174 262l-18 22 18 35q2 5-1 10t-9 5h-28q-6 0-9-5t-1-10l18-35-18-22q-21 6-34.5 21T75 318q-1 8-7.5 12.5t-14 3.5q-7.5-1-12-7.5T38 313q3-27 19-47.5T97 233q24-12 53-12t53 12q24 12 40 32.5t19 47.5q1 7-3.5 13.5T246 334z"/></svg>