<svg viewBox="0 0 300 368" xmlns="http://www.w3.org/2000/svg"><path d="M225 109q-28 1-48 17-17 14-23 36t0 44q6 22 23 36 20 16 48 16t48-16q17-14 23-36t0-44q-6-22-23-36-20-16-48-17zm0 112q-16 0-26.5-10.5T188 184q0-16 10.5-27t26.5-11q16 0 27 11t11 27q0 16-11 27t-27 10zm-56 49v45q0 8-5.5 13.5T150 334q-8 0-13.5-5.5T131 315v-39q-18-4-33-14l-28 28q-5 5-13 5t-13.5-5.5q-5.5-5.5-5.5-13t6-13.5l28-28q-10-15-14-32H19q-8 0-13.5-5.5T0 184q0-8 5.5-13.5T19 165h39q4-18 14-33l-28-28q-5-5-5-12.5t5.5-13Q50 73 57.5 73T70 78l28 28q15-10 33-14V53q0-8 5.5-13.5T150 34q8 0 13.5 5.5T169 53v44q0 12-8 20.5T142 128q-21 3-34.5 19T94 184q0 21 13.5 36.5T142 239q11 2 19 11t8 20z"/></svg>