<svg viewBox="0 0 300 368" xmlns="http://www.w3.org/2000/svg"><path d="M188 109h-75q-16 0-27 11t-11 26q0 8 5.5 13.5T94 165q8 0 13-5.5t6-12.5h18v87q-8 0-13.5 5.5t-5 13.5q.5 8 5.5 13t13 5h38q8 1 13-4.5t5-13.5q0-8-5-13.5t-13-5.5v-88h19q-1 8 4.5 13.5T206 165q8 0 13.5-5.5T225 147q0-16-11-27t-26-11zm-28-75q-32-2-62.5 9.5T44 78q-23 23-34.5 53.5T0 195q3 39 25.5 71T84 316q36 18 79 18h71q18 0 33-9t24-24q9-15 9-33v-80q0-40-18.5-74T231 58.5Q199 37 160 34zm103 234q0 11-8.5 19.5T234 296h-71q-34 0-61.5-13T57 246q-17-24-19-54-2-24 6.5-47t25-39.5Q86 89 107 80t43-9l8 1q29 2 53 18t37.5 42q13.5 26 13.5 56v80h1z"/></svg>