<svg viewBox="0 0 300 368" xmlns="http://www.w3.org/2000/svg"><path d="M258 109q-7-5-17-6 10-2 17-7 10-7 16-24 2-4-1-8.5t-8-4.5q-18 0-27.5 7T222 87q-8-23-27.5-38T150 34q-20 0-37.5 10T85 71.5Q75 89 75 109t10 37.5Q95 164 112.5 174t37.5 10q27 0 48-17.5t26-43.5q5 11 12 16 11 7 29 8 5 0 8-4.5t1-9.5q-6-17-16-24zm-83 12h-50q-8 1-13.5-4.5T106 103q0-8 5.5-13.5T125 84h50q8 0 13.5 5.5T194 103q0 8-5.5 13.5T175 122v-1zm-25 88q-27 0-50 13.5T63.5 259Q50 282 50 309v6q0 8 5.5 13.5T69 334q8 0 13-5.5t6-13.5v-6q0-19 10-35 17 27 37 52 1 3 3 5 5 4 12 4 9 0 15-8 20-25 37-53 11 16 11 35v6q0 8 5.5 13.5t13 5.5q7.5 0 13-5.5T250 315v-6q0-27-13.5-50T200 222.5Q177 209 150 209zm22 42q-10 17-22 34-12-17-22-34 10-4 22-4t22 4z"/></svg>