<svg viewBox="0 0 300 368" xmlns="http://www.w3.org/2000/svg"><path d="M187 285q2 8-2.5 14.5T172 307l-3 1v7q0 8-5.5 13.5T150 334q-8 0-13.5-5.5T131 315v-7q-40-7-69-36t-36-69h-7q-8 0-13.5-5.5T0 184q0-8 5.5-13.5T19 165h7l1-3q1-8 7.5-12.5t14-3q7.5 1.5 12 8t3 14Q62 176 62 184q0 24 12 44t32 31.5q20 11.5 44 11.5 8 0 15.5-1t14 3.5Q186 278 187 285zm108 17q5 5 5 13t-5.5 13.5Q289 334 281 334t-13-6L5 66q-5-5-5-13t5.5-13.5Q11 34 19 34t13 5l44 44q25-18 55-23v-7q0-8 5.5-13.5T150 34q8 0 13.5 5.5T169 53v7q40 6 69 35.5t36 69.5h7q8 0 13.5 5.5T300 184q0 8-5.5 13.5T281 203h-7q-5 30-23 55l44 44zM103 110l18 19q18-10 38.5-7t34.5 18q18 18 18 44 0 15-7 29l19 18q13-21 13-46t-11.5-45Q214 120 194 108t-45-12q-25 0-46 14z"/></svg>