<svg viewBox="0 0 300 368" xmlns="http://www.w3.org/2000/svg"><path d="M81 234q8 0 13.5 5.5T100 253q0 8-5.5 13.5t-13.5 5q-8-.5-13-5.5t-5-13q0-8 5-13.5t13-5.5zm38 98q26-5 46.5-22.5t29-42Q203 243 199 218l8-8q6-6 5-13v-26h7q13 0 22-9t9-22v-6h16q9 0 17-5t11-14q7-16 6-33-3-21-18.5-34.5T245 34q-13 0-26 5t-22 15l-82 81q-24-4-47 4t-39.5 25.5q-16.5 17.5-24 40t-3 46Q6 274 20 293.5t35 30Q76 334 100 334q10 0 19-2zm-3-158q5 1 10 0t9-5l88-88q9-10 22-10 7 0 11.5 4.5t5.5 10q1 5.5-1 10.5h-17q-13 0-22 9.5t-9 22.5v6h-7q-13 0-22 9t-9 22v24l-10 10q-4 4-5 9t0 9q5 19-1 37-7 21-25.5 33T93 296.5q-22-2.5-37.5-18t-18-37.5Q35 219 47 200.5T80 175q9-3 18.5-3t17.5 2z"/></svg>