<svg viewBox="0 0 300 368" xmlns="http://www.w3.org/2000/svg"><path d="M289 278q-7-3-14-.5t-10.5 9q-3.5 6.5-10 9T241 295l-28-13v-50q-1-19-14-32l-34-32 14-19 67 44q6 5 13.5 3t12-8q4.5-6 3-13.5T267 162L166 95q-17-11-37-11h-15q-12 0-22-9L70 52q-6-6-14-6t-13.5 5.5Q37 57 37 65t6 14l23 22q9 10 22 15.5t26 5.5h10l-15 19q-9 12-9 27v24q0 4-4 6l-38 15-11-5q-6-3-8.5-9.5t.5-13q3-6.5.5-14t-9.5-11q-7-3.5-14.5-.5T5 170q-9 20-1.5 41.5T32 242l194 87q20 9 41 1.5t31-27.5q3-7 .5-14.5T289 278zm-179-45q12-5 19.5-15.5T138 194l35 34q2 2 2 4v33l-69-31 4-1zm65-168q0-13 9-22t22-9q13 0 22 9t9.5 22q.5 13-9 22T206 96q-13 0-22-9t-9-22z"/></svg>