<svg viewBox="0 0 300 368" xmlns="http://www.w3.org/2000/svg"><path d="M300 184q0 8-5.5 13.5T281 203H19q-8 0-13.5-5.5T0 184q0-8 5.5-13.5T19 165h31q-11-10-17.5-24.5T26 110q0-20 10.5-37.5t28-28Q82 34 102 34h98q21 0 38.5 10.5t27.5 28Q276 90 276 110v5q0 8-5.5 13.5t-13 5.5q-7.5 0-13-5.5T239 115v-5q0-16-11.5-27.5T200 71h-98q-16 0-27 11.5T64 110q0 13 7.5 23.5T92 147l62 18h127q8 0 13.5 5.5T300 184zm-44 50q-8 1-13 7t-4 13v4q0 16-11.5 27T200 296h-98q-16 0-27-11t-11-27v-5q0-8-5.5-13.5T45 234q-8 0-13.5 5.5T26 253v5q0 20 10.5 37.5t28 28Q82 334 102 334h98q21 0 38.5-10.5t27.5-28q10-17.5 10-37.5v-7q-1-8-7-13t-13-4z"/></svg>