<svg viewBox="0 0 300 368" xmlns="http://www.w3.org/2000/svg"><path d="M206 202q0 16-17 36-12 15-29 29-5 5-11.5 5t-11.5-5q-16-13-28-29-16-20-16-36 0-12 8.5-21t20-9.5q11.5-.5 19.5 9t8 21.5q0-12 8.5-21.5t20-9.5q11.5 0 20 9.5T206 202zm94-74v137q0 19-9.5 34.5t-25 25Q250 334 231 334H69q-19 0-34.5-9.5t-25-25Q0 284 0 265V128q0-19 9.5-34.5t25-25Q50 59 69 59h6v-6q0-8 5.5-13.5T94 34q8 0 13.5 5.5T113 53v6h75v-6q0-8 5-13.5t13-5.5q8 0 13.5 5.5T225 53v6h6q19 0 34.5 9.5t25 25Q300 109 300 128zm-37 137V146H38v119q0 13 9 22t22 9h162q13 0 22.5-9t9.5-22z"/></svg>