<svg viewBox="0 0 300 368" xmlns="http://www.w3.org/2000/svg"><path d="M38 65q0-13 9-22t22-9q13 0 22 9t9 22q0 13-9 22.5t-22 9Q56 96 47 87t-9-22zm100 138v-38q0-23-16.5-39.5T81 109H56q-23 0-39.5 16.5T0 165v38q0 14 6.5 26.5T25 249v66q0 8 5.5 13.5T44 334q8 0 13-5.5t5-13.5v-56h13v56q0 8 5.5 13.5T94 334q8 0 13.5-5.5T113 315v-66q11-7 18-19.5t7-26.5zM38 165q0-8 5-13t13-5h25q8-1 13.5 4.5T100 165v38q0 8-5.5 13T81 221H56q-8 0-13.5-5T37 203v-38h1zm187 19q-20 0-37.5 10T160 221.5Q150 239 150 259t10 37.5q10 17.5 27.5 27.5t37.5 10q20 0 37.5-10t27.5-27.5q10-17.5 10-37.5t-10-37.5Q280 204 262.5 194T225 184zm34 91q4 4 4 9t-4 8.5q-4 3.5-9 3.5t-9-3l-16-16-16 16q-4 3-9 3t-9-3.5q-4-3.5-4-8.5t4-9l16-16-16-16q-4-4-4-9t4-9q4-4 9-4t9 4l16 16 16-16q4-4 9-4t9 4q4 4 4 9t-4 9l-16 16 16 16z"/></svg>