<svg viewBox="0 0 300 368" xmlns="http://www.w3.org/2000/svg"><path d="M295 329q-6 5-14 5t-13-5l-50-50q-6-6-6-14t5.5-13q5.5-5 13.5-5t14 5l50 50q5 5 5 13t-6 14h1zm-29-164l-67 67q-19 19-43.5 29T104 271H89l-57 58q-5 5-13 5t-13.5-5.5Q0 323 0 315t5-13l58-57v-15q0-16 3-32l-32-33-6 4q-5 3-9.5 3t-9-3Q5 166 2 162q-3-7-1-14.5t9-11.5q7-3 16-10 19-13 35-29.5T91 60q8-10 11.5-16.5t11-8.5q7.5-2 14.5 1.5t9 11q2 7.5-2 14.5l-4 6 19 19 19-19-4-6q-4-7-2-14.5t9-11q7-3.5 14.5-1.5t11.5 8v1q4 7 11 17 14 20 30 35.5t34 28.5q10 7 17 11t9 11.5q2 7.5-1 14.5-3 4-7.5 7t-9 2.5q-4.5-.5-9.5-2.5l-6-4zm-184-5q8-14 20-25l22-22-15-14q-10 13-21 24t-23 20l17 17zm22 74q30 0 54-17l-41-41q-17 24-17 54v4h4zm131-91q-12-9-23-20t-21-24l-49 49 44 44 49-49z"/></svg>