<svg viewBox="0 0 300 368" xmlns="http://www.w3.org/2000/svg"><path d="M175 315q0 8-5.5 13.5T156 334h-47q-27 0-47-18.5T40 271L27 109h-8q-8 0-13.5-5.5T0 90q0-8 5.5-13.5T19 71h59q6-16 20.5-26.5T131 34h38q18 0 32.5 10.5T222 71h59q8 0 13.5 5.5T300 90q0 8-5.5 13.5T281 109H64l13 159q1 12 10 20.5t22 8.5h47q8-1 13.5 4.5T175 315zm106-181h-75q-8 0-13.5 5.5T187 153q0 8 5.5 13t13.5 6h75q8-1 13.5-6t5.5-13q0-8-5.5-13.5T281 134zm-25 62h-50q-8 1-13.5 6t-5.5 13q0 8 5.5 13.5T206 234h50q8 0 13.5-5.5T275 215q0-8-5.5-13.5T256 196zm-25 63h-25q-8 0-13.5 5.5T187 278q0 8 5.5 13t13.5 5h25q8 0 13.5-5t5.5-13q0-8-5.5-13.5T231 259z"/></svg>