<svg viewBox="0 0 300 368" xmlns="http://www.w3.org/2000/svg"><path d="M245 68q-26-21-57-29t-64-2.5Q91 42 64 61t-43.5 47.5Q4 137 1 169t6.5 61Q17 259 38 281q22 25 55 39t70 14h68q19 0 34.5-9.5t25-25Q300 284 300 265v-77q0-35-14.5-66T245 68zm18 197q0 13-9.5 22t-22.5 9h-68q-29 0-54.5-10.5T65 256q-15-17-22-38t-5-45q2-24 15-45.5T86 92q20-14 44-19 10-1 20-1 40 0 70 25 20 17 31.5 41t11.5 50v77zm-63-51q0 15-9 27t-23 16q-1 6-6 10.5t-11.5 4q-6.5-.5-11.5-4t-7-9.5q-9-2-17-7.5t-12-13q-4-7.5-2-15t8.5-11q6.5-3.5 14-1.5t11.5 8q2 3 5 3h15q3 1 5.5-1.5t2.5-6.5q0-4-5-6l-30-12q-13-5-20.5-16t-7.5-25.5q0-14.5 9-26.5t23-16q1-6 6-10t11.5-4.5Q156 96 161 100t7 10q9 2 17 7.5t12 13q4 7.5 2 15t-8.5 11q-6.5 3.5-14 1.5t-11.5-8q-2-4-5-4h-15q-3 0-5.5 2.5T137 155q0 4 5 6l30 12q13 5 20.5 16t7.5 25z"/></svg>