<svg viewBox="0 0 300.0012 368" xmlns="http://www.w3.org/2000/svg"><path d="M281 196h-5l24-140q1-8-3.5-14.5t-12-7.5q-7.5-1-14 3.5T263 49l-25 147h-59l-11-48q-1-6-6-10t-12-4q-7 0-12 4t-6 10l-11 48H62L37 50q-1-8-7.5-12.5t-14-3.5q-7.5 1-12 7.5T0 56l24 140h-5q-8 0-13.5 5.5T0 215q0 8 5.5 13.5T19 234h11l10 59q3 17 15 28t29.5 12.5Q102 335 116 326t19-26l15-64 15 64q5 16 18 25t29 9h4q17-1 29.5-12.5T260 293l10-59h12q7 0 12.5-5.5t5.5-13q0-7.5-5.5-13T282 197l-1-1zM87 296q-9 0-10-9l-9-53h44l-13 55q-3 8-12 7zm136-9q-1 5-4 7t-6 2q-9 1-12-7l-13-55h44l-9 53z"/></svg>