<svg viewBox="0 0 300 368" xmlns="http://www.w3.org/2000/svg"><path d="M291 125q-6-7-15-11.5t-19-4.5H43q-10 0-19 4.5t-15 12Q3 133 1 142t0 18q7 28 24 50.5T66 248l-27 59q-2 5-1.5 10t3.5 9.5q3 4.5 7.5 6.5t9.5 1.5q5-.5 9-3.5t6-8l27-59q15 4 31 6v45q0 8 5.5 13.5T150 334q8 0 13.5-5.5T169 315v-45q16-2 31-6l27 59q3 7 10 9.5t14-.5q7-3 10-10t0-15l-27-59q24-15 41-37.5t24-50.5q2-9 0-18t-8-17zm-29 26q-10 38-41.5 61T150 235q-39 0-70.5-23T38 151q-1-1 .5-3t4.5-1h214q3-1 4.5 1t.5 3zM131 65V53q0-8 5.5-13.5T150 34q8 0 13.5 5.5T169 53v12q0 8-5.5 13.5T150 84q-8 0-13.5-5.5T131 65zm69 0V53q0-8 5.5-13.5T219 34q8 0 13.5 5.5T238 53v12q-1 8-6 13.5T219 84q-8 0-13.5-5.5T200 65zM63 65V53q0-8 5-13.5T81 34q8 0 13.5 5.5T100 53v12q0 8-5.5 13.5T81 84q-8 0-13.5-5.5T63 65z"/></svg>