<svg viewBox="0 0 300 368" xmlns="http://www.w3.org/2000/svg"><path d="M63 65q0-13 9-22t22-9q13 0 22 9t9 22q0 13-9 22.5t-22 9Q81 96 72 87t-9-22zm212-31h-62q-11 0-18 7.5T188 59v37q0 11 7 18t18 7h12v38h-47l-17-23q-9-12-24-19.5t-31-7.5H81q-23 0-39.5 16.5T25 165v38q0 14 6.5 26.5T50 249v66q0 8 5.5 13.5T69 334q8 0 13.5-5.5T88 315v-56h12v56q0 8 5.5 13.5T119 334q8 0 13.5-5.5T138 315v-75q0-8-5.5-13.5T119 221H81q-8 0-13-5t-5-13v-38q-1-8 4.5-13t13.5-5h25q8-1 14.5 2.5T131 159l23 30q5 8 15 8h75q8 0 13.5-5.5T263 178v-57h12q10 0 17.5-7t7.5-18V59q0-10-7.5-17.5T275 34z"/></svg>