<svg viewBox="0 0 300 368" xmlns="http://www.w3.org/2000/svg"><path d="M281 159h-6v-6q0-19-9.5-34.5t-25-25Q225 84 206 84h-37V65q0-8-5.5-13T150 47q-8 0-13.5 5T131 65v19H94q-19 0-34.5 9.5t-25 25Q25 134 25 153v6h-6q-8 0-13.5 5.5T0 178v37q0 8 5.5 13.5T19 234h6v6q0 19 9.5 34.5t25 25Q75 309 94 309h112q19 0 34.5-9.5t25-25Q275 259 275 240v-6h6q8 0 13.5-5.5T300 215v-37q0-8-5.5-13.5T281 159zm-43 81q0 13-9.5 22.5T206 272H94q-13-1-22-10t-9-22v-87q0-13 9-22t22-9h112q13-1 22 8.5t9 22.5v87h1zm-113-81q0 8-5.5 13.5T106 178q-8 0-13.5-5.5t-5-13.5q.5-8 5.5-13.5t13-5.5q8 0 13.5 5.5T125 159zm100 69q0 8-5.5 13.5t-13.5 5q-8-.5-13.5-5.5t-5.5-13q0-8 5.5-13.5T206 209q8 0 13.5 5.5T225 228zm-56 0q0 8-5.5 13.5t-13.5 5q-8-.5-13.5-5.5t-5.5-13q0-8 5.5-13.5T150 209q8 0 13.5 5.5T169 228zm-56 0q-1 8-6 13.5t-13 5q-8-.5-13.5-5.5T75 228q0-8 5.5-13.5T94 209q8 0 13.5 5.5T113 228zm81-44q-8 0-13.5-5.5T175 165q0-8 5.5-13.5t13.5-5q8 .5 13.5 5.5t5 13q-.5 8-5.5 13.5t-13 5.5z"/></svg>