<svg viewBox="0 0 300 368" xmlns="http://www.w3.org/2000/svg"><path d="M150 34q41 0 75.5 20t54.5 54.5q20 34.5 20 75.5t-20 75.5Q260 294 225.5 314T150 334q-41 0-75.5-20T20 259.5Q0 225 0 184t20-75.5Q40 74 74.5 54T150 34zm0 262q31 1 56.5-14.5t40.5-41q15-25.5 15.5-56.5t-15-56.5q-15.5-25.5-41-41t-56.5-15Q119 72 93.5 87t-41 40.5Q37 153 37.5 184T53 240.5Q68 266 93.5 281t56.5 16v-1zm0-162q18 0 31 12l38 38q4 4 5.5 9t.5 10q-1 5-4.5 8.5t-8.5 5q-5 1.5-10 0t-9-5.5l-39-38q-1-2-4-2t-4 2l-39 38q-4 4-9 5.5t-10 0q-5-1.5-8.5-5T75 203q-1-5 .5-10t5.5-9l38-38q13-12 31-12z"/></svg>