<svg viewBox="0 0 300 368" xmlns="http://www.w3.org/2000/svg"><path d="M77 110h17l-9-22-8 22zm167-76H56q-23 0-39.5 16.5T0 90v188q0 23 16.5 39.5T56 334h150q11 0 21.5-4.5T246 318l38-38q7-8 11.5-18.5T300 240V90q0-23-16.5-39.5T244 34zm-126 97q2 3 .5 6t-4.5 4q-3 1-6 0t-4-4l-4-11H71l-4 11q-2 3-5 4t-6 0q-3-1-4-4t0-6l25-65q2-6 8-6 7 0 9 6l24 65zm15-63q0-3 2-5.5t5.5-2.5q3.5 0 5.5 2.5t2 5.5v66q0 3-2 5.5t-5.5 2.5q-3.5 0-5.5-2.5t-2-5.5V68zm80 153q-11 0-18 7.5t-7 18.5v49H56q-8 0-13-5t-5-13V172h225v49h-50z"/></svg>