<svg viewBox="0 0 300 368" xmlns="http://www.w3.org/2000/svg"><path d="M297 81q-14-29-43-44-7-3-14.5-2.5T226 39q-6 4-9.5 10.5T213 63v20q-21-11-45.5-11.5T119 81q-24 10-43 29t-29 43q-10 24-9.5 48.5T49 247H29q-7 0-13.5 3.5T5 260q-4 6-4.5 13.5T3 288q15 29 44 43 6 3 13.5 2.5t14-4.5q6.5-4 10-10.5T88 305v-20q22 12 47 11.5t48-10.5q23-10 41.5-28.5T253 215q10-24 9.5-48.5T251 122h20q7 0 13.5-3.5t10.5-10q4-6.5 4.5-14T297 81zM197 231q-21 22-48 27t-47-8q-10-8-18-18-13-20-8-47t27-48q12-13 28-20t34-7.5q18-.5 34 9.5 10 7 17 17 13 20 8 47t-27 48zm-14-40q5 6 4.5 13.5T181 217q-19 16-43 17h-7q-8 0-13.5-5.5T112 215q0-8 5.5-13t13.5-6h7q10 0 19-8 6-5 13.5-4t12.5 7z"/></svg>