<svg viewBox="0 0 300 368" xmlns="http://www.w3.org/2000/svg"><path d="M188 128q0-8 5-13.5t13-5.5q8 0 13.5 5.5T225 128q0 8-5.5 13.5t-13.5 5q-8-.5-13.5-5.5t-5.5-13h1zm-19 56q8 0 13.5-5.5T188 165q0-8-5.5-13.5T169 146q-8 0-13.5 5.5T150 165q0 8 5.5 13.5T169 184zm-38 37q8 1 13.5-4.5T150 203q0-8-5.5-13.5T131 184q-8 0-13.5 5.5T112 203q0 8 5.5 13.5T131 221zM298 78l-1 3q-20 56-34 83-21 44-52 76-2 24-13 46t-28 39q-10 9-24 9t-23.5-10q-9.5-10-9.5-24v-20q-12-4-21-12l-22 23q-6 6-14 6t-13.5-5.5Q37 286 37 278t6-14l23-22q-12-15-14-33H34q-14 0-24-10T0 175.5Q0 162 10 152q19-21 45-32t54-11q29-24 69-42 24-12 75-30l3-1q9-3 18.5-1t16 9q6.5 7 8.5 16t-1 18zm-38-4q-52 19-77 32-38 19-65 46-13 15-25 31-6 9-5 19.5t9 17.5l18 18q7 7 17.5 8t19.5-5q16-11 30-25 27-27 46-65 13-26 32-77z"/></svg>