<svg viewBox="0 0 300 368" xmlns="http://www.w3.org/2000/svg"><path d="M150 34q-41 0-75.5 20T20 108.5Q0 143 0 184t20 75.5Q40 294 74.5 314t75.5 20q41 0 75.5-20t54.5-54.5q20-34.5 20-75.5t-20-75.5Q260 74 225.5 54T150 34zm0 262q-31 0-56.5-15t-41-40.5Q37 215 37.5 184T53 127.5q15-25.5 40.5-41t56.5-15q31 .5 56.5 15.5t41 40.5q15.5 25.5 15 56.5T247 240.5q-15 25.5-40.5 41T150 297v-1zm87-159q-1 4-4.5 7t-7.5 3l-3-1q-14-4-26-12t-19-18q-3-4-2-9t5-8q4-3 9.5-2t8.5 5q4 6 12.5 11.5T228 122q5 1 7.5 5.5t1.5 9.5zm-159 9q-1 1-3 0-4 0-7.5-2t-4.5-7q-1-5 1.5-9.5T72 122q9-3 17.5-8.5T102 102q3-4 8.5-5t9.5 2q4 3 5 8t-2 9q-7 10-19 18t-26 12zm27 84q-5 4-11 4-10 0-15-7t-4-14.5q1-7.5 7-12.5l6-4-5-3q-7-5-8-12.5t3.5-14Q83 160 91 159t14 4l25 18q8 6 8 15.5t-8 14.5l-25 19zm113-37l-5 3 5 4q6 5 7 12.5t-4 14.5q-5 7-15 7-6 0-11-4l-25-18q-7-6-7-15.5t7-14.5l25-19q6-5 14-4t12.5 7.5q4.5 6.5 3.5 14t-7 12.5zm-20 74q-2 5-7 8t-9.5 3q-4.5 0-8.5-2l-6-2q-9-2-17-2-13-1-23 4-7 3-14.5.5T102 267q-3-7-1-14t9-11q5-2 12-4 14-4 28-4t28 4q7 2 12 4 7 4 9 11t-1 14z"/></svg>