<svg viewBox="0 0 300 368" xmlns="http://www.w3.org/2000/svg"><path d="M225 96q0-15 11-26t26.5-11Q278 59 289 70t11 26.5q0 15.5-11 26.5t-26.5 11q-15.5 0-26.5-11t-11-27zM44 84h70q7 0 14 3.5t11 9.5l-93 65q-7 5-8.5 12.5t3 14q4.5 6.5 12.5 8t14-3.5l94-65 42 61q5 6 12.5 7.5t14-3q6.5-4.5 8-12.5t-3.5-14l-64-91q-9-14-24-21.5T114 47H44q-8-1-13.5 4.5T25 65q0 8 5.5 13.5T44 84zM9 264q15 8 32.5 7T73 260q2-2 5 0 15 11 34.5 11t35.5-11q2-2 5 0 15 11 34.5 11t35.5-11q2-2 5 0 15 11 35 12 15 0 28-8 6-4 8-11.5t-1.5-14q-3.5-6.5-11-8.5t-14 1q-6.5 3-12.5 2.5t-11-3.5q-11-8-24-8t-24 8q-6 4-13.5 4t-13.5-4q-11-8-24-8t-24 8q-6 4-13.5 4T99 230q-11-8-24-8t-24 8q-5 3-11 3.5T27.5 231q-6.5-3-14-1t-11 8.5Q-1 245 1 252.5T9 264zm263 30q-6 3-12 2.5t-11-4.5q-11-8-24-8t-24 8q-6 4-13.5 4t-13.5-4q-11-8-24-8t-24 8q-6 4-13.5 4T99 292q-11-8-24-8t-24 8q-5 4-11 4.5t-12-3q-6-3.5-14-1.5t-11.5 9Q-1 308 1 315.5T9 326q15 9 32.5 8T72 323q3-2 6 0 15 11 34.5 11t35.5-11q2-2 5 0 15 11 34.5 11t35.5-11q2-2 5 0 15 11 35 11 15 0 28-8 6-3 8-10.5t-1.5-14.5q-3.5-7-11-9t-14.5 2z"/></svg>