<svg viewBox="0 0 300 368" xmlns="http://www.w3.org/2000/svg"><path d="M244 34H56q-23 0-39.5 16.5T0 90v188q0 23 16.5 39.5T56 334h146q27 0 47-19l32-32q19-20 19-47V90q0-23-16.5-39.5T244 34zM38 278V90q0-8 5-13.5T56 72h188q8-1 13.5 4.5T262 90v131h-37q-16 1-26.5 11.5T188 259v37H56q-8 0-13.5-5T37 278h1zm25-163q0-8 5-13.5T81 96q8 0 13.5 5.5T100 115q0 8-5.5 13.5T81 134q-8 0-13-5.5T63 115zm37 69q0 8-5.5 13.5T81 203q-8 0-13-5.5T63 184q0-8 5-13.5t13-5.5q8 0 13.5 5.5T100 184zm0 69q0 8-5.5 13T81 271q-8 0-13-5t-5-13q0-8 5-13.5t13-5.5q8 0 13.5 5.5T100 253z"/></svg>