<svg viewBox="0 0 300 368" xmlns="http://www.w3.org/2000/svg"><path d="M121 193l38-38q3-3 6-8l17-1q8 0 13-5.5t5-13.5q0-8-6-13t-13-5h-6q-1-9-6-18l13-13q6-5 5.5-13t-6-13.5q-5.5-5.5-13-5T155 52l-12 13q-9-4-18-5v-7q0-8-5.5-13.5T106 34q-8 0-13 5.5T88 53v16q-5 3-9 7l-5 6-10-11q-6-6-13.5-6T37 70.5q-6 5.5-6 13T37 97l10 11-6 6q-3 3-6 7H19q-8 0-13.5 5.5T0 140q0 8 5.5 13.5T19 159h6q1 10 5 19l-12 12q-5 5-5 13t5.5 13.5q5.5 5.5 13 5.5t13.5-6l12-12q11 6 24 6 23 0 40-17zm11-64l-38 38q-5 5-13 5t-13-5.5q-5-5.5-5-13t5-12.5l38-38q5-6 13-6t13.5 5.5q5.5 5.5 5.5 13t-6 13.5zm168 98q0-8-6-13t-13-5h-6q-2-9-6-18l13-13q6-5 5.5-13t-6-13.5q-5.5-5.5-13-5T255 152l-12 13q-11-5-24-5-23 0-40 16l-38 38q-3 3-6 7h-16q-8 0-13.5 5.5T100 240q0 8 5.5 13.5T119 259h6q1 10 5 19l-12 11q-5 6-5.5 13.5t5 13Q123 321 131 321t13-5l13-12q8 4 18 5v6q0 8 5.5 13.5T194 334q8 0 13-5.5t5-13.5v-15q5-3 9-7l5-5 10 10q6 5 13.5 5t13-5.5q5.5-5.5 5.5-13t-5-13.5l-10-10 6-6q3-3 6-8l17-1q8 0 13-5.5t5-13.5zm-132 14l38-38q5-6 13-6t13.5 5.5q5.5 5.5 5.5 13t-6 13.5l-38 38q-5 5-13 5t-13-5q-5-6-5-13.5t5-12.5z"/></svg>