<svg viewBox="0 0 300 368" xmlns="http://www.w3.org/2000/svg"><path d="M67 227q-5-6-4-20.5T73 174q10-21 28-39 14-14 30.5-23.5T163 98q8-1 14-1 11 0 16 5t4 19.5q-1 14.5-10 32.5-10 21-28 39-14 14-30.5 24T97 230q-10 2-18 1.5T67 227zm189 63q-22 21-49.5 32.5T149 334q-30 0-57.5-11.5T42 290l-19-19Q3 251 .5 220t12-65.5Q27 120 57 91q21-21 45-35t48-19q27-6 49.5-1T237 57l19 19q29 29 39 68t0 78q-10 39-39 68zM50 245q10 10 27 11 11 1 25-2 19-4 38.5-15t36.5-28q21-22 33-47t12.5-46.5q.5-21.5-11.5-34T177 71q-9 0-19 3-19 4-38.5 15T83 117q-21 22-33 47t-12.5 46.5Q37 232 49 245h1zm206-98q-5 23-18.5 46.5t-34 43.5q-20.5 20-44 34T112 290q31 11 62.5 4t54.5-30.5q23-23.5 30.5-55T256 147z"/></svg>