<svg viewBox="0 0 300 368" xmlns="http://www.w3.org/2000/svg"><path d="M200 221q0 8-5.5 13.5T181 240h-12v13q0 8-5.5 13.5t-13.5 5q-8-.5-13.5-5.5t-5.5-13v-13h-12q-8 0-13.5-5.5t-5.5-13q0-7.5 5.5-13T119 203h12v-13q0-8 5.5-13.5T150 171q8 0 13.5 5.5T169 190v13h12q8 0 13.5 5.5T200 221zm100-93v137q0 19-9.5 34.5t-25 25Q250 334 231 334H69q-19 0-34.5-9.5t-25-25Q0 284 0 265V128q0-19 9.5-34.5t25-25Q50 59 69 59h6v-6q0-8 5.5-13.5T94 34q8 0 13.5 5.5T113 53v6h75v-6q0-8 5-13.5t13-5.5q8 0 13.5 5.5T225 53v6h6q19 0 34.5 9.5t25 25Q300 109 300 128zm-37 137V146H38v119q0 13 9 22t22 9h162q13 0 22.5-9t9.5-22z"/></svg>