<svg viewBox="0 0 300 368" xmlns="http://www.w3.org/2000/svg"><path d="M150 34q-41 0-75.5 20T20 108.5Q0 143 0 184t20 75.5Q40 294 74.5 314t75.5 20q41 0 75.5-20t54.5-54.5q20-34.5 20-75.5t-20-75.5Q260 74 225.5 54T150 34zm0 262q-31 0-56.5-15t-41-40.5Q37 215 37.5 184T53 127.5q15-25.5 40.5-41t56.5-15q31 .5 56.5 15.5t41 40.5q15.5 25.5 15 56.5T247 240.5q-15 25.5-40.5 41T150 297v-1zm57-157q5 5 5.5 13t-5 13.5Q202 171 194 171t-13-5l-31-29-31 29q-6 6-13.5 5.5t-13-6q-5.5-5.5-5-13.5t5.5-13l37-34q8-8 20-8t20 8l37 34zm4 69q2 6 1 11.5t-5 9.5l-37 34q-8 8-20 8.5t-20-8.5l-37-34q-4-4-5-9.5t1-11q2-5.5 6.5-9T106 196h88q6 0 10.5 3.5t6.5 8.5z"/></svg>