<svg viewBox="0 0 300 368" xmlns="http://www.w3.org/2000/svg"><path d="M175 284H94q-13 0-22-9t-9-22v-19h6q8 0 13.5-5.5T88 215q0-8-5.5-13.5t-14-5.5q-8.5 0-14-7.5T51 173q2-8-1.5-14.5t-11-9q-7.5-2.5-14 1T15 162q-4 13-1.5 26T24 211l1 1v41q0 18 9.5 34t25 25.5Q75 322 94 321h81q8 0 13.5-5t5.5-13q0-8-5.5-13.5T175 284zm120 18l-25-24q5-12 5-25v-41l1-1q8-10 10.5-23t-1.5-25l-18-70q-3-20-18.5-33.5T212 46H88q-20 0-36 13L32 39q-6-5-13.5-5t-13 5.5Q0 45 0 53t6 13l262 262q5 6 13 6t13.5-5.5Q300 323 300 315t-5-13zM88 84h12v6q0 8 5.5 13.5T119 109q8 0 13.5-5.5T138 90v-6h25v6q0 8 5 13.5t13 5.5q8 0 13.5-5.5T200 90v-6h12q7 0 12 4.5t7 11.5l18 73q2 9-3.5 16t-14 7q-8.5 0-14-5t-5.5-13q0-8-5.5-13.5t-13-5.5q-7.5 0-13 5.5T175 178l-1 4-95-96q4-2 9-2z"/></svg>