<svg viewBox="0 0 300 368" xmlns="http://www.w3.org/2000/svg"><path d="M239 147q-34 4-66 14 6-20 23-30t42-10q7 1 13-2.5t9.5-9.5q3.5-6 3.5-13t-3.5-13q-3.5-6-9.5-9t-14-3q-20 1-35.5 11t-24 27q-8.5 17-8.5 37V53q0-8-5.5-13.5T150 34q-8 0-13.5 5.5T131 53v93q0-20-8.5-37t-24-27.5Q83 71 63 71q-7 0-13.5 3.5t-10 9.5Q36 90 36 96.5t3.5 12.5q3.5 6 10 9.5T62 121q25 0 42 10.5t24 29.5q-33-10-67-14-11-1-21.5 2T21 160q-10 9-15.5 21.5T0 207q0 54 19 85 14 25 38 35 16 7 32 7 24-1 41-16 9-8 20-9 11 1 20 9 17 15 41 16 16 0 32-7 24-10 38-35 19-31 19-85 0-13-5.5-25.5T279 160q-8-8-18.5-11.5T239 147zm-28 149q-12-1-20-9-18-15-41-16-23 1-41 16-8 8-20 9-29 1-42-29-10-22-10-60 0-11 8-19 5-5 12-4 44 6 86 22 7 3 14 0 42-16 86-22 7-1 12 4 8 8 7 19 1 38-9 60-13 29-42 29zm12-80q-20 4-48 12l-25 8q10 1 23 7 8 4 22 12.5t19 9.5q10 3 15-5.5t8-28.5q2-7-2.5-12t-11.5-3zM63 231q3 20 8 28.5t15 5.5q5-1 19-9.5t22-12.5q13-6 23-7l-25-8q-28-8-48-12-7-2-11.5 3T63 231z"/></svg>