<svg viewBox="0 0 300 368" xmlns="http://www.w3.org/2000/svg"><path d="M100 184q20 0 37.5-10t27.5-27.5q10-17.5 10-37.5t-10-37.5Q155 54 137.5 44T100 34q-20 0-37.5 10T35 71.5Q25 89 25 109t10 37.5Q45 164 62.5 174t37.5 10zm0-113q16 0 27 11t11 27q0 16-11 26.5T100 146q-16 0-27-10.5T62 109q0-16 11-27t27-10v-1zm100 238v6q0 8-5.5 13.5T181 334q-8 0-13-5.5t-5-13.5v-6q-1-17-9-31.5t-22.5-23Q117 246 100 246t-31.5 8.5Q54 263 46 277.5T38 309v6q0 8-5.5 13.5T19 334q-8 0-13.5-5.5T0 315v-6q0-27 13.5-50T50 222.5Q73 209 100 209t50 13.5q23 13.5 36.5 36.5t13.5 50zm95-142l-40 39q-15 15-36.5 15T182 206l-14-14q-5-5-5-13t5.5-13.5q5.5-5.5 13-5.5t13.5 6l14 14q4 4 10 4t10-4l39-39q6-6 13.5-6t13 5.5Q300 146 300 154t-5 13z"/></svg>