<svg viewBox="0 0 300 368" xmlns="http://www.w3.org/2000/svg"><path d="M150 34q-41 0-75.5 20T20 108.5Q0 143 0 184t20 75.5Q40 294 74.5 314t75.5 20q41 0 75.5-20t54.5-54.5q20-34.5 20-75.5t-20-75.5Q260 74 225.5 54T150 34zm0 262q-31 0-56.5-15T53 240.5Q38 215 37.5 184t15-56.5q15.5-25.5 41-41T150 71q31 0 56.5 15.5t41 41q15.5 25.5 15 56.5T247 240.5q-15 25.5-40.5 41T150 297v-1zm63-81q0 24-16.5 40T156 271h-37q-8 0-13.5-5t-5.5-13q0-8 5.5-13.5T119 234h37q8 0 13.5-5.5T175 215q0-8-5.5-13t-13.5-5h-25q-8-1-13-6t-5-13q0-8 5-13.5t13-5.5h19q5 0 9-3.5t4-9q0-5.5-4-9t-9-3.5h-31q-8 0-13.5-5.5T100 115q0-8 5.5-13.5T119 96h31q21 0 35.5 15t14.5 36q0 14-7 25 9 8 14.5 19.5T213 215z"/></svg>