<svg viewBox="0 0 300 368" xmlns="http://www.w3.org/2000/svg"><path d="M213 53q0-8 5-13.5t13-5.5h50q8 0 13.5 5.5T300 53q0 8-5.5 13T281 71h-50q-8 0-13.5-5T212 53h1zm68 106h-50q-8 0-13.5 5.5t-5 13.5q.5 8 5.5 13.5t13 4.5h50q8 0 13.5-5t5.5-13q0-8-5.5-13.5T281 159zm-6-63h-37q-11 1-18 8t-7 17.5q0 10.5 7 17.5t17 7h38q10 0 17.5-7t7.5-17.5q0-10.5-7.5-17.5T275 97v-1zm0 125h-37q-11 0-18 7.5t-7 18q0 10.5 7 18t17 7.5h38q10-1 17.5-8t7.5-17.5q0-10.5-7.5-18T275 221zm6 75h-50q-8 0-13.5 5.5T212 315q0 8 5.5 13.5T231 334h50q8 0 13.5-5.5T300 315q0-8-5.5-13t-13.5-5v-1zM188 96v63q0 16-11 26.5T150 196h-18l-8 26q6 2 10 7t4 12q0 7-5.5 12.5T119 259h-8l-13 40q-5 16-18.5 25.5T50 334q-7 0-15-3-19-6-29-24t-4-38l29-84q-14-10-22.5-25T0 127q0-18 9.5-33.5t25-25Q50 59 69 59h81q16 0 26.5 11T187 97l1-1zM93 196H66l-28 84q-1 5 1.5 9.5t7 6q4.5 1.5 9.5-1t6-7.5l31-91zm57-37V96H69q-13 0-22.5 9.5t-9 22.5q.5 13 9.5 22t22 9h81z"/></svg>