<svg viewBox="0 0 300 368" xmlns="http://www.w3.org/2000/svg"><path d="M194 114q2-10 7.5-18.5T216 81q7-4 8.5-11.5t-2.5-14q-4-6.5-11.5-8.5T196 49q-17 11-27 28V53q0-8-5.5-13.5T150 34q-8 0-13.5 5.5T131 53v24q-10-17-27-28-7-4-14.5-2T78 55.5q-4 6.5-2.5 14T84 81q9 6 14.5 14.5T106 114q-40 11-57 43-11 24-11 64 0 32 7 53 9 28 32 42 26 18 73 18t73-18q23-14 32-42 8-21 8-53 0-40-12-64-17-32-57-43zm-16 180l-19-19q-4-3-9-3t-9 3l-19 19q-18-1-31-13.5T77 250l19-20q4-3 4-8.5t-4-8.5l-19-20q1-18 14-30.5t31-13.5l19 19q4 3 9 3t9-3l19-19q18 1 31 13.5t14 30.5l-19 20q-4 3-4 8.5t4 8.5l19 20q-1 18-14 30.5T178 294zm6-81q3 3 3 8.5t-3 8.5l-25 25q-4 4-9 4t-9-4l-25-25q-3-3-3-8.5t3-8.5l25-25q4-4 9-4t9 4l25 25z"/></svg>