<svg viewBox="0 0 300 368" xmlns="http://www.w3.org/2000/svg"><path d="M150 159q6 0 11 3.5t7 9.5q9 2 17 7.5t12 13q4 7.5 2 15t-8.5 11.5q-6.5 4-14 2t-11.5-9q-2-3-5-3h-15q-3 0-5.5 2t-2.5 6q0 4 5 6l30 12q13 5 20.5 16.5t7.5 26q0 14.5-9 26T168 320q-1 6-6 10t-11.5 4q-6.5 0-11.5-3.5t-7-9.5q-9-2-17-7.5t-12-13q-4-7.5-2-15t8.5-11.5q6.5-4 14-2t11.5 9q2 3 5 3h15q3 0 5-2t2-6q0-4-4-6l-30-12q-13-5-20.5-16.5t-7.5-26q0-14.5 9-26t23-16.5q1-6 6-10t12-4zm-7-53q3 3 7 3t7-3l30-30q5-5 2.5-11t-8.5-6h-12v-6q0-8-5.5-13.5T150 34q-8 0-13.5 5.5T131 53v6h-12q-6 0-8.5 6t2.5 11l30 30zm138 190h-18V159q10 0 18.5-6t13.5-15q5-9 4.5-19.5T294 99q-9-13-23-21l-31-17q-7-3-14.5-1t-11 9q-3.5 7-1.5 14.5t9 10.5l31 17q5 3 10 9 0 2-2 2H39q-1 0-1-1v-1q3-6 9-9l31-17q7-3 9-10.5T85.5 69q-3.5-7-11-9T60 61L29 78Q15 86 6 99q-5 9-5.5 19.5T5 138q5 9 13.5 15t18.5 6v138H19q-8 0-13.5 5T0 315q0 8 5.5 13.5T19 334h37q8 0 13.5-5.5T75 315V159h150v156q0 8 5.5 13.5T244 334h37q8 0 13.5-5.5T300 315q0-8-5.5-13t-13.5-5v-1z"/></svg>