<svg viewBox="0 0 300 368" xmlns="http://www.w3.org/2000/svg"><path d="M275 105V65q0-8-5.5-13T256 46.5q-8-.5-13 5T238 65v14l-50-33q-17-12-38-12t-38 12l-82 55q-14 9-22 24t-8 33v107q0 19 9.5 34.5t25 25Q50 334 69 334h162q19 0 34.5-9.5t25-25Q300 284 300 265V158q0-16-6.5-30T275 105zm-12 160q0 13-9.5 22t-22.5 9h-42l23-67q2-7-2.5-13.5T197 209h-36l17-56q3-7-1.5-13t-12-6q-7.5 0-12.5 7l-62 92q-3 5-2 11.5t5.5 10.5q4.5 4 11.5 4h34l-14 37H69q-13 0-22.5-9T37 265V158q1-8 4.5-15t9.5-11l82-55q7-6 17-6t17 6l82 55q6 4 10 11t4 15v107z"/></svg>