<svg viewBox="0 0 300 368" xmlns="http://www.w3.org/2000/svg"><path d="M290 149l-40-69q-9-15-25-24.5T191 46h-82q-18 0-34 9.5T50 80L9 149q-9 16-9 35t9 35l41 68q9 16 25 25t34 9h82q18 0 34-9t25-25l40-68q10-16 10-35t-10-35zm-32 51l-40 68q-4 8-11.5 12t-15.5 4h-82q-8 0-15.5-4T82 268l-40-68q-5-8-5-16.5t5-15.5l40-69q4-7 11.5-11t15.5-4h82q8 0 15.5 4T218 99l40 69q4 7 4 15.5t-4 16.5zm-50-8l-33-59v-5q0-11-7.5-18t-17.5-7q-10 0-17.5 7t-7.5 18l1 5-34 59q-8 2-12.5 8.5T75 215q0 10 7.5 17.5t17 7.5q9.5 0 16.5-6h68q7 6 16.5 6t17-7.5Q225 225 225 215q0-8-4.5-14.5T208 192zm-40 4h-36l18-31 18 31z"/></svg>