<svg viewBox="0 0 300 368" xmlns="http://www.w3.org/2000/svg"><path d="M188 334h-44q-8 0-13.5-5.5T125 315q0-8 5.5-13.5T144 296h44q5 0 8.5-3.5t3.5-8.5q0-5-3.5-8.5T188 272H88q-21-1-35.5-15.5t-14.5-35Q38 201 52.5 186T88 171h162q5 0 8.5-3.5t4-8.5q.5-5-3.5-9t-9-4H56q-23 0-39.5-16T0 90.5q0-23.5 16.5-40T56 34h225q8 0 13.5 5.5T300 53q0 8-5.5 13.5T281 72H56q-8-1-13 4.5T38 90q0 8 5 13.5t13 5.5h194q21 0 35.5 14.5T300 159q0 21-14.5 35.5T250 209H88q-6 0-9.5 3.5t-3.5 9q0 5.5 3.5 9T88 234h100q20 0 35 14.5t15 35.5q0 21-15 35.5T187 334h1z"/></svg>