<svg viewBox="0 0 300 368" xmlns="http://www.w3.org/2000/svg"><path d="M275 234v-94q0-18-9.5-34t-25-25.5Q225 71 206 71H94q-19 0-34.5 9.5t-25 25.5Q25 122 25 140v94q-10 0-17.5 7.5T0 259v14q0 10 7 17t16 7h254q9-1 16-7.5t7-16.5v-14q0-10-7.5-17.5T275 234zm-90 12h-70l-11-12H63v-94q0-13 9-22t22-9h112q13 0 22.5 9t9.5 22v94h-42l-11 12zm15-68q0 8-5.5 13.5T181 196h-12v13q0 8-5.5 13.5T150 228q-8 0-13.5-5.5T131 209v-13h-12q-8 0-13.5-5t-5.5-13q0-8 5.5-13.5T119 159h12v-13q0-7 5.5-12.5T150 128q8 0 13.5 5.5T169 146v13h12q8 0 13.5 5.5T200 178z"/></svg>