<svg viewBox="0 0 300 368" xmlns="http://www.w3.org/2000/svg"><path d="M300 184q0 41-20 75.5T225.5 314Q191 334 150 334t-75.5-20Q40 294 20 259.5T0 184q0-41 20-75.5T74.5 54Q109 34 150 34t75.5 20Q260 74 280 108.5t20 75.5zm-262 0q0 31 15 56.5t40.5 41q25.5 15.5 56.5 15t56.5-15.5q25.5-15 41-40.5t15-56.5q-.5-31-15.5-56.5T206.5 87Q181 72 150 72T93.5 87Q68 102 53 127.5T38 184zm162 0q0 18-12 31l-38 38q-4 4-9 5.5t-10 .5q-5-1-8.5-4.5t-5-8.5q-1.5-5 0-10t5.5-9l38-39q2-1 2-4t-2-4l-38-39q-4-4-5.5-9t0-10q1.5-5 5-8.5t8.5-4.5q5-1 10 .5t9 5.5l38 38q12 13 12 31z"/></svg>