<svg viewBox="0 0 300.0311 368" xmlns="http://www.w3.org/2000/svg"><path d="M220.03 215q5 5 5 13t-6 13q-8 8-20 16-25 15-49 15t-49-15q-12-8-20-16-6-5-6-13t5.5-13.5q5.5-5.5 13-5.5t13.5 5q5 6 13 10 16 10 30 10t30-10q8-4 13-10 6-5 13.5-5t13.5 6zm-113-23q5 5 12 5 9 0 14-7t4.5-14.5q-.5-7.5-7.5-12.5l-31-25q-6-5-13.5-4t-12.5 7q-5 6-4 14t7 12l31 25zm193-8q0 41-20 75.5t-54.5 54.5q-34.5 20-75.5 20t-75.5-20q-34.5-20-54.5-54.5T.03 184q0-33 15-64l-15-71q-1-8 5-12.5t13-1.5l50 24q37-25 82-25t82 24l50-23q7-3 13 1.5t5 12.5l-15 71q15 31 15 64zm-37 0q0-30-15.5-56t-41-41q-25.5-15-56.5-15t-56.5 15q-25.5 15-41 40.5t-15 56.5q.5 31 15.5 56.5t40.5 40.5q25.5 15 56.5 15.5t56.5-15q25.5-15.5 41-41t15.5-56.5zm-62-46l-31 25q-7 5-7.5 12.5t4.5 14.5q5 7 14 6 7 0 12-4l31-25q6-4 7-12t-4-14q-5-6-12.5-7t-13.5 4z"/></svg>