<svg viewBox="0 0 300 368" xmlns="http://www.w3.org/2000/svg"><path d="M69 172q-19 0-35-9.5T9 137q-9-16-9-34.5T9 68q9-16 25-25t34.5-9Q87 34 103 43t25 25q9 16 9 34.5t-9 34.5q-9 16-25 25t-34 10zm0-101q-13 0-22.5 9.5t-9 22.5q.5 13 9.5 22t22 9q13 0 22-9t9-22q0-13-9-22.5T69 72v-1zm162 101q-18 0-34-9.5T172 137q-9-16-9-34.5t9-34.5q9-16 25-25t34.5-9q18.5 0 34.5 9t25 25q9 16 9 34.5t-9.5 34.5q-9.5 16-25 25T231 172zm0-101q-13 0-22 9.5t-9 22.5q0 13 9 22t22 9q13 0 22-9t9.5-22q.5-13-9-22.5T231 71zM69 334q-19 0-35-9T9 300q-9-16-9-34.5T9 231q9-16 25-25t34.5-9q18.5 0 34.5 9t25 25q9 16 9 34.5t-9 34q-9 15.5-25 25T69 334zm0-100q-13 0-22.5 9t-9 22q.5 13 9.5 22t22 9q13 0 22-9t9-22q0-13-9-22t-22-9zm162 100q-18 0-34-9t-25-25q-9-16-9-34.5t9-34.5q9-16 25-25t34.5-9q18.5 0 34.5 9t25 25q9 16 9 34.5t-9.5 34q-9.5 15.5-25 25T231 334zm0-100q-13 0-22 9t-9 22q0 13 9 22.5t22 9q13-.5 22.5-9.5t9.5-22q0-13-9.5-22t-22.5-9z"/></svg>