<svg viewBox="0 0 300.0013 368" xmlns="http://www.w3.org/2000/svg"><path d="M138 65q0-13 9-22t22-9q13 0 22 9t9 22q0 13-9 22.5t-22 9q-13-.5-22-9.5t-9-22zM44 171q13 0 22-9t9-22q0-13-9-22t-22-9q-13 0-22 9t-9.5 22q-.5 13 9 22.5T44 172v-1zm248 47L134 327q-9 7-21 7H94q-8 0-13.5-5.5T75 315v-31H50v6q0 5-2 9l-12 25q-3 4-7.5 7t-9.5 3q-5 0-9-2-7-3-9.5-10.5T2 307l10-21v-71q0-12 8-20.5T40 184l55-17 53-50q9-8 21-8h56V54q0-8 6-14t14-6q5 0 9 2l39 21q6 2 7 9.5T295 78l-32 12v38q0 8-5.5 13.5T244 147h-44v25h6q13 0 22.5 9t9.5 22v7l33-23q6-4 13.5-2.5t12 7.5q4.5 6 3 14t-7.5 12zm-154-39l-20 19q-3 3-7 4l-36 11v34h6q13 0 22.5 9t9.5 22v19l25-18V179zm62 30h-25v44l25-17v-27z"/></svg>