<svg viewBox="0 0 300 368" xmlns="http://www.w3.org/2000/svg"><path d="M281 296q-8 0-13-5t-6-13v-57q-1-42-25-71-21-26-54-35.5t-66 0Q84 124 63 150q-24 29-25 72v56q0 8-5.5 13T19 296q-8 0-13.5-5T0 278v-57q2-56 34-95 28-35 72-47.5t88 0Q238 91 266 126q32 39 34 96v56q0 8-5.5 13t-13.5 5zm-43-18v-57q-2-33-20-55-16-20-42-27.5t-52 0Q98 146 82 166q-18 22-20 55v57q1 8 6 13t13 5q8 0 13.5-5t5.5-13v-57q0-20 14.5-35t35.5-14.5q21 .5 35.5 15T200 221v57q0 8 5.5 13t13.5 5q8 0 13.5-5t5.5-13zm-63 0v-57q0-10-7.5-17t-17.5-7.5q-10-.5-17.5 7T125 222v56q0 8 5.5 13t13.5 5h12q8 0 13.5-5t5.5-13z"/></svg>