<svg viewBox="0 0 300 368" xmlns="http://www.w3.org/2000/svg"><path d="M213 58q0-10 6-17t15-7q9 0 15.5 7t6.5 17q0-10 6.5-17t15.5-7q9 0 15.5 7t6.5 17q0 12-14 29-9 11-23 22-3 2-7 2t-7-2q-13-11-23-22-13-17-13-29zM66 246q-9 0-15.5 7.5T44 271q0-10-6.5-17.5T22 246q-9 0-15.5 7.5T0 271q0 12 14 28 9 11 23 23 3 2 7 2t7-2q13-12 23-23 13-16 13-28 0-10-6-17.5T66 246zm207-111q-7 1-11.5 8t-2.5 14q4 13 4 27 0 31-15.5 56.5t-41 40.5Q181 296 150 296q-14 0-27-3-7-2-14 2.5t-8.5 12q-1.5 7.5 2.5 14t11 8.5q18 4 36 4 41 0 75.5-20t54.5-54.5q20-34.5 20-75.5 0-18-4-36-2-7-8.5-11t-14.5-2zM20 221h3q7-1 12-7t3.5-14q-1.5-8-1.5-16 0-31 15.5-56.5t41-41Q119 71 150 72q8-1 16 .5t14-3.5q6-5 7-12.5T183.5 43q-4.5-6-12.5-7-10-2-21-2-41 0-75.5 20T20 108.5Q0 143 0 184q0 11 2 21 1 7 6 11.5t12 4.5zm80-52v-2 2q2 7 7 11t12 4h4q7-2 11.5-8.5T137 161q-3-16-13-27.5t-24-12Q86 121 76 133t-13 28q-2 8 2.5 14.5t12 8q7.5 1.5 14-2.5t8.5-12zm63-8q-2 8 2.5 14.5t12 8q7.5 1.5 14-2.5t8.5-12v-2 2q2 7 7 11t12 4h4q7-2 11.5-8.5T237 161q-3-16-13-27.5t-24-12q-14-.5-24 11.5t-13 28zm-13 110q24 0 49-14 12-8 20-16 6-5 6-13t-5.5-13.5q-5.5-5.5-13-5.5t-13.5 5q-5 6-13 10-16 10-30 10t-30-10q-7-4-13-10-6-5-13.5-5t-13 5.5Q75 220 75 228t6 13q8 8 20 16 25 15 49 15v-1z"/></svg>