<svg viewBox="0 0 300 368" xmlns="http://www.w3.org/2000/svg"><path d="M300 240v-75q0-23-16.5-39.5T244 109h-6V90q0-23-16.5-39.5T181 34h-62q-19 0-33.5 11T65 73L32 39q-5-5-13-5T5.5 39.5Q0 45 0 53t5 13l263 263q5 5 13 5t13.5-5.5Q300 323 300 315t-5-13l-17-17q10-8 16-19.5t6-25.5zM100 90q0-8 5.5-13.5T119 72h62q8-1 13.5 4.5T200 90v19h-98l-2-2V90zm137 154q-3-18-15.5-31T191 197h-1l-51-51h105q8 0 13.5 5.5T262 165v75q1 6-2.5 11t-9.5 7l-13-14zm-37 71q0 8-5.5 13.5T181 334h-62q-18 0-32.5-10.5T66 296H56q-23 0-39.5-16T0 240v-75q0-9 3-17.5t10-12q7-3.5 14-.5t10.5 10q3.5 7 1.5 14-2 3-2 6v75q1 8 6 13.5t13 5.5h7v-6q0-12 4.5-23T81 211q6-5 14-4.5t13 6q5 5.5 4.5 13.5t-6.5 13q-6 5-6 14v25q0 8 5.5 13.5T119 297h62q8-1 13.5 4.5T200 315z"/></svg>