<svg viewBox="0 0 300 368" xmlns="http://www.w3.org/2000/svg"><path d="M144 84q13 0 22 9t9 22q0 13-9 22.5t-22 9.5q-13 0-22.5-9.5t-9-22.5q.5-13 9.5-22t22-9zm78 130l-14-30h17l10 20q3 7 10.5 10t14.5-.5q7-3.5 9.5-10.5t-.5-14l-9-21q-5-10-14.5-16t-20.5-6h-45q-9 0-18 4t-15 11l-20 36h-21q-8-1-13.5 4.5T87 215q0 8 5.5 13.5T106 234h21q9 0 17-4.5t14-12.5l12 27-35 17q-4 2-7 6.5t-3 10.5v37q0 8 5.5 13.5t13 5.5q7.5 0 13-5.5T162 315v-26l43-21q13-9 18-24t-1-30zm-10-111q0 7 5.5 12.5T231 121q8 0 13.5-5.5T250 103q0-19-9.5-34.5t-25-25Q200 34 181 34H81q-18 0-34 9.5t-25 25Q13 84 13 103v212q-1 8 4.5 13.5T31 334q8 0 13.5-5.5T50 315V103q0-13 9-22t22-9h100q13-1 22 8.5t9 22.5zm57 168h-38q-8 0-13 5.5t-5 13.5q0 8 5 13.5t13 5.5h38q8 0 13.5-5.5T288 290q0-8-5.5-13t-13.5-5v-1z"/></svg>