<svg viewBox="0 0 300 368" xmlns="http://www.w3.org/2000/svg"><path d="M131 53q0-8 5.5-13.5T150 34q8 0 13.5 5.5T169 53q0 8-5.5 13T150 71q-8 0-13.5-5T131 53zm82 18q7 0 12.5-5t5.5-13q0-8-5.5-13.5t-13-5.5q-7.5 0-13 5.5T194 53q0 8 5.5 13t13.5 5zm62-37q-8 0-13.5 5.5T256 53q0 8 5.5 13t13.5 5q8 0 13.5-5t5.5-13q0-8-5.5-13.5T275 34zM88 71q7 0 12.5-5t5.5-13q0-8-5.5-13.5t-13-5.5q-7.5 0-13 5.5T69 53q0 8 5.5 13T88 71zM25 34q-8 0-13.5 5.5T6 53q0 8 5.5 13T25 71q8 0 13.5-5T44 53q0-8-5.5-13.5T25 34zm187 205l-43 42V115q0-8-5.5-13.5T150 96q-8 0-13.5 5.5T131 115v166l-43-42q-6-5-13.5-5t-13 5.5Q56 245 56 253t6 13l57 55q13 13 31 13t31-13l57-55q6-5 6-13t-5.5-13.5q-5.5-5.5-13-5.5t-13.5 5z"/></svg>