<svg viewBox="0 0 300 368" xmlns="http://www.w3.org/2000/svg"><path d="M278 99q-15 9-28 17V78q0-8-5.5-13.5T231 59q-8 0-13 5.5T213 78v43h-25V91q0-10-4.5-19t-12-15.5Q164 50 155 48t-18-1q-29 5-54 14-30-12-70-15-8 0-12 6.5T1 65q2 3 9 11 10 11 14 17-24 22-24 48.5T28 190L2 258q-3 11-1 22.5t9 21q7 9.5 17.5 15T50 322q17 0 30.5-10.5T98 285l21-55 18 3q3 1 7 1 15 0 28-10 7-7 11-16t4-19v-30h25v44q0 8 5.5 13.5T231 222q8 0 13.5-5.5T250 203v-38q13 8 28 17 7 4 14.5 0t7.5-12v-59q0-9-7.5-13T278 99zM62 275q-1 4-4.5 6.5T49 284q-5 0-9-5t-2-10l22-59q11 5 22 9l-20 56zm88-86q0 4-2.5 6t-4.5 1q-29-5-53-14t-38-20.5Q38 150 38 140t14-21q14-11 38-20.5T143 84l4 1q3 3 3 6v98z"/></svg>