<svg viewBox="0 0 300 368" xmlns="http://www.w3.org/2000/svg"><path d="M125 271q0-10 7.5-17.5T150 246q10 0 17.5 7.5t7.5 18q0 10.5-7.5 17.5t-17.5 7q-10 0-17.5-7t-7.5-18zm105-53q5-5 5-13t-5-13q-22-22-51-29.5t-58 0Q92 170 70 192q-5 6-5 13.5t5.5 13q5.5 5.5 13 5.5t13.5-6q14-14 33.5-19t39 0q19.5 5 33.5 19 6 6 13.5 6t13.5-6zm64-58q6-5 6-13t-5-13l-4-4q-28-28-64.5-43.5T150 71q-40 0-76.5 15.5T9 130l-4 3q-5 6-5 14t6 13q6 5 13.5 5t12.5-6l3-3q23-23 52.5-35t62.5-12q33 0 62.5 12t52.5 35l3 3q5 6 13 6t13-5z"/></svg>