<svg viewBox="0 0 300 368" xmlns="http://www.w3.org/2000/svg"><path d="M282 176l2-2q16-16 16-39.5T284 95l-6-6 7-5q8-7 8.5-17T287 48.5q-7-8.5-17.5-8.5T252 47l-7 9-6-6q-16-16-39.5-16T160 51L60 151l-10-15q-7-7-17-8t-18.5 6Q6 141 6 151.5t7 18.5l16 12-13 12Q0 210 0 232.5T16 271l47 47q16 16 38.5 16t37.5-16l14-13 11 16q8 7 17.5 6.5T200 319q7-8 6-18t-8-17l-14-10 65-65 9 11q8 8 17.5 7.5T294 218q7-8 6-18t-8-16l-10-8zm-132-62q8 10 8 11 8 7 18 6.5t17.5-8q7.5-7.5 7-18T192 88l-9-7 3-4q6-5 14-5t13 5l44 44q6 6 6 13.5t-6 13.5l-58 59-71-71 22-22zm-37 178q-5 4-12 4t-12-4l-6-7 10-7q8-7 8.5-17T95 242.5q-7-8.5-17.5-8.5T59 241l-9 12-8-8q-5-5-4.5-12t4.5-12l60-59 19 19-14 11q-7 7-7 17t8 17q9 9 19 8.5t17-8.5l9-13 20 20-60 59z"/></svg>