<svg viewBox="0 0 300 368" xmlns="http://www.w3.org/2000/svg"><path d="M281 109q-8 0-13.5 5.5T262 128v68h-51q-3-62-16-104-11-38-28-51.5t-34 0Q116 54 105 92q-13 42-16 104H38v-68q0-8-5.5-13.5T19 109q-8 0-13.5 5.5T0 128v150q0 6 3.5 11t9.5 6.5q6 1.5 12-.5t9-7l36 37q7 6 15.5 8t16.5-.5q8-2.5 14-9t8-14.5h52q2 8 8 14.5t14.5 9q8.5 2.5 16.5.5t15-8l36-37q3 5 9 7t12 0q6-2 9.5-6.5T300 278V128q0-8-5.5-13.5T281 109zM125 250q0-74 16-146 9-2 18 0 16 72 16 146v21h-50v-21zm-87-11v-5h50l-1 55-49-50zm175 50v-39l-1-16h51v5l-50 50z"/></svg>