<svg viewBox="0 0 300 368" xmlns="http://www.w3.org/2000/svg"><path d="M176 117q-2-9-9-15t-17-6q-10 0-17 6t-9 15l-20 89q-1 5 1.5 9.5t7.5 5.5q5 1 9.5-1.5t5.5-7.5l4-15h36l4 15q1 4 4.5 7t7.5 3l3-1q5-1 7.5-5.5t1.5-9.5l-20-89zm-39 55l11-49q1-1 2-1t2 1l11 49h-26zm94-138H69q-19 0-34.5 9.5t-25 25Q0 84 0 103v112q0 19 9.5 34.5t25 25Q50 284 69 284h15l45 38q9 8 21 8t20-8l47-38h14q19 0 34.5-9.5t25-25Q300 234 300 215V103q0-19-9.5-34.5t-25-25Q250 34 231 34zm32 181q0 13-9.5 22.5T231 247h-21q-7-1-12 4l-48 39-47-39q-5-4-12-5H69q-13 0-22.5-9T37 215V103q1-13 10-22t22-9h162q13-1 22 8.5t9 22.5v112h1z"/></svg>