<svg viewBox="0 0 300 368" xmlns="http://www.w3.org/2000/svg"><path d="M275 86q12-14 12-33 0-8-5-13.5T269 34q-8 0-13.5 5.5T250 53q0 5-3.5 8.5t-9 3.5q-5.5 0-9-3.5T225 53q0-8-5.5-13.5T206 34q-8 0-13.5 5.5T187 53q1 16 11 29-14 9-22 23.5t-8 30.5q-5 25-24 42-17 19-42 24-13 0-24.5 5T57 221q-5 5-9 11-13-10-29-11-8 0-13.5 5.5T0 240q0 8 5.5 13.5T19 259q5 0 8.5 3.5t3.5 9q0 5.5-3.5 9T19 284q-8 0-13.5 5.5T0 303q0 8 5.5 13t13.5 5q19 0 33-12 9 12 23 18.5t29 6.5q22 0 49-9 46-16 84-54t54-84q9-27 9-49 0-15-6.5-29T275 86zm-64 159q-32 31-69 44-21 8-38 7-12 0-20.5-8T75 268q0-12 8.5-20.5T103 239q20-2 37-11t31-23q14-14 23-31t11-37q0-12 8.5-20t20.5-8q12 0 20.5 8.5T263 138q0 17-8 38-13 38-44 69z"/></svg>