<svg viewBox="0 0 300 368" xmlns="http://www.w3.org/2000/svg"><path d="M275 165q0-25-12.5-46.5t-34-34.5Q207 71 181 71h-62q-11 0-20.5-6.5T87 48q-2-7-8.5-11t-14-2Q57 37 53 43.5T51 57q4 18 17.5 31t31.5 18v103q0 7-4 12-6 7-21 14-22 6-36 25t-14 43v12q0 8 5.5 13.5T44 334q8 0 13.5-5.5T63 315l-1-12q0-12 8-22 25 14 46 20 28 8 65 8 26 0 47.5-12.5t34-34Q275 241 275 215v-50zm-38-4q-9-2-19-2t-20 2l-15 5-10 4q-6 1-12 1-12 0-24-4v-58h44q22 0 38.5 15t17.5 37zm-56 110q-24 1-40.5-2.5T109 259q28-20 28-50v-3q12 3 23.5 3t21.5-2q5-2 15-5l10-4q6-2 12-2 10 0 18 4v15q0 24-16 40t-40 16z"/></svg>