<svg viewBox="0 0 300 368" xmlns="http://www.w3.org/2000/svg"><path d="M295 302l-20-20v-94q13-15 13-35l-1-5-14-53q-7-22-25-35.5T207 46H93q-23 0-41 14L32 39q-6-5-13.5-5t-13 5.5Q0 45 0 53t6 13l262 262q5 6 13 6t13.5-5.5Q300 323 300 315t-5-13zm-57-57l-41-40q10 4 22 4h19v36zM93 84h7v6q0 8 5.5 13.5T119 109q8 0 13.5-5.5T138 90v-6h25v6q0 8 5 13.5t13 5.5q8 0 13.5-5.5T200 90v-6h7q10 0 18.5 6t11.5 15l13 50q-1 7-6 11.5t-13 4.5h-12q-8 0-13.5-5t-5.5-13q0-8-5.5-13.5t-13-5.5q-7.5 0-13 5.5t-5.5 13q0 7.5-5 12.5L80 87q6-3 13-3zm77 180q5 6 5 14 0 18-13 30.5T131 321H69q-18 0-31-12.5T25 278v-90q-13-15-13-35 0-8 5.5-13.5T31 134q8 0 13.5 5.5T50 153q0 8 5.5 13t13 5q7.5 0 13 5.5T87 190q0 8-5.5 13.5T69 209h-7v37h82q7 0 13 6l12 12h1z"/></svg>