<svg viewBox="0 0 300 368" xmlns="http://www.w3.org/2000/svg"><path d="M150 34q-41 0-75.5 20T20 108.5Q0 143 0 184t20 75.5Q40 294 74.5 314t75.5 20q41 0 75.5-20t54.5-54.5q20-34.5 20-75.5t-20-75.5Q260 74 225.5 54T150 34zm0 262q-31 0-56.5-15t-41-40.5Q37 215 37.5 184T53 127.5q15-25.5 40.5-41t56.5-15q31 .5 56.5 15.5t41 40.5q15.5 25.5 15 56.5T247 240.5q-15 25.5-40.5 41T150 297v-1zm48-29q-2 5-7 8t-9.5 3q-4.5 0-8.5-2l-6-2q-9-2-17-2-13-1-23 4-7 3-14.5.5T102 267q-3-7-1-14t9-11q5-2 12-4 14-4 28-4t28 4q7 2 12 4 7 4 9 11t-1 14zm-21-151q-3-4-2-9t5-8q4-3 9.5-2t8.5 5q4 6 12.5 11.5T228 122q5 1 7.5 5.5t1.5 9q-1 4.5-4.5 7T225 146h-3q-14-4-26-12t-19-18zM63 137q-1-5 1.5-9.5T72 122q9-3 17.5-8.5T102 102q3-4 8.5-5t9.5 2q4 3 5 8t-2 9q-7 10-19 18t-26 12l-3 1q-4 0-7.5-2.5T63 137zm137 9q-5 0-11 2 5 3 8 7.5t3 9.5q0 8-5.5 13.5T181 184q-5 0-9.5-3t-7.5-8q-1 6-1 11 0 15 11 26t26.5 11q15.5 0 26.5-11t11-26.5q0-15.5-11-26.5t-27-11zm13 63q-6 0-9.5-3.5t-3.5-9q0-5.5 3.5-9t9-3.5q5.5 0 9 3.5t3.5 9q0 5.5-3.5 9T213 209zm-75-25q0-16-11-27t-27-11q-5 0-11 2 5 3 8 7.5t3 9.5q0 8-5.5 13.5T81 184q-5 0-9.5-3t-7.5-8q-1 6-1 11 0 15 11 26t26.5 11q15.5 0 26.5-11t11-26zm-25 25q-6 0-9.5-3.5t-3.5-9q0-5.5 3.5-9t9-3.5q5.5 0 9 3.5t3.5 9q0 5.5-3.5 9T113 209z"/></svg>