<svg viewBox="0 0 300 368" xmlns="http://www.w3.org/2000/svg"><path d="M134 67q-8-16-25-22.5T76 46q-14 7-21 21H19q-8 0-13.5 5.5T0 86q0 7 5.5 12.5T19 104h36q8 17 25 23t33-2q14-7 21-21h147q8 0 13.5-5.5T300 86q0-8-5.5-13.5T281 67H134zm72 73q-13 0-23.5 7T166 165H19q-8 0-13.5 5.5T0 184q0 8 5.5 13.5T19 203h147q8 16 25 22t33-1q14-7 21-21h36q8 0 13.5-5.5T300 184q0-8-5.5-13.5T281 165h-36q-5-11-16-18t-23-7zM94 239q-12 0-23 6.5T55 264H19q-8 0-13.5 5.5T0 282q0 8 5.5 13.5T19 301h36q8 16 25 22.5t33-1.5q14-7 21-21h147q8 0 13.5-5.5T300 282q0-7-5.5-12.5T281 264H134q-6-12-16.5-18.5T94 239z"/></svg>