<svg viewBox="0 0 300 368" xmlns="http://www.w3.org/2000/svg"><path d="M244 34h-63q-8 0-13.5 5.5T162 53v62q1 8 6 13.5t13 5.5h100q8 0 13.5-5.5T300 115V90q0-23-16.5-39.5T244 34zm19 62h-63V71h44q8 0 13.5 5.5T262 90v6h1zm18 75H113v-43q-1-8-6-13.5T94 109H56q-23 0-39.5 16.5T0 165v113q0 23 16.5 39.5T56 334h188q23 0 39.5-16.5T300 278v-88q0-8-5.5-13.5T281 171zm-18 63H150v-25h113v25zM38 165q0-8 5-13t13-5h19v24H38v-6zm75 44v25H38v-25h75zm-75 69v-7h125v25H56q-8 0-13.5-5T37 278h1zm206 18h-44v-25h63v7q0 8-5.5 13.5T244 297v-1z"/></svg>