<svg viewBox="0 0 300 368" xmlns="http://www.w3.org/2000/svg"><path d="M50 159h75q21 0 35.5-14.5T175 109h31q8 0 13.5 5.5T225 128v6h-14q-8 0-10.5 6.5T203 152l33 33q3 3 7.5 3t7.5-3l34-33q4-5 1.5-11.5T277 134h-14v-6q0-24-16.5-40.5T206 71h-33q-4-16-17.5-26.5T125 34H50q-21 0-35.5 14.5T0 84v25q0 21 14.5 35.5T50 159zM38 84q0-5 3.5-9t8.5-4h75q5 0 9 4t4 9v25q0 5-4 8.5t-9 3.5H50q-5 0-8.5-3.5T38 109V84zm262 175v25q0 21-14.5 35.5T250 334H50q-21 0-35.5-14.5T0 284v-25q0-21 14.5-35.5T50 209h200q21 0 35.5 14.5T300 259z"/></svg>