<svg viewBox="0 0 301 368" xmlns="http://www.w3.org/2000/svg"><path d="M63 167zm232-9q-3 6-10 10.5t-15 5.5l-21 2v14q0 29-8 56l-4 16v42q0 12-9.5 21.5t-22 9.5q-12.5 0-22-9.5T174 304v-19h-48l-3 22q-1 9-6.5 16T103 333q-8 3-17 1t-15-9q-9-11-7-24l4-33-6-15q-9-21-12-35-10 13-12 37-1 8-6.5 12.5T19 272h-2q-8-1-13-7t-4-13q4-33 20-54.5T63 167q18-20 43-20h31q0-24 11-45 14-26 39-36 2-11 9-19.5T213 35q4-1 7.5 1.5T224 44v16l68-25q4-1 6.5 2.5T297 45l-52 43q5 8 14 14 6 4 19 10l4 2q11 6 15.5 18.5T295 158zm-48-19q-12-7-21-15-11-11-17-25-21 4-30 24-5 11-5 24 0 16-11 27t-26 11h-31q-6 0-12.5 5T87 203.5q0 8.5 3 17.5 1 5 6 16l5 10h101l3-11q7-23 7-46v-19q0-12 7.5-21t19.5-10l8-1z"/></svg>