<svg viewBox="0 0 300 368" xmlns="http://www.w3.org/2000/svg"><path d="M234 96h-24q-3-13-11-23.5T179 55q-7-4-14.5-2t-11 9q-3.5 7-1.5 14.5t8.5 11.5q6.5 4 10.5 10.5t4 14.5v133H55q-8 0-13-4.5T37 229v-20h19q8 0 13.5-5.5T75 190q0-8-5.5-13.5T56 171H19q-8 0-13.5 5.5T0 190v39q0 18 10.5 32.5T38 281v3q-1 16 10 26.5T75 321q16 0 26.5-10.5T112 284h76q0 16 10.5 26.5T225 321q16 0 26.5-10.5T262 284v-3q17-5 27.5-19.5T300 229v-67q0-17-9-32.5t-24-24Q252 97 234 97v-1zm29 66v9h-50v-37h21q12 0 20 8t8 20h1zm-18 84h-32v-37h50v20q0 8-5 12.5t-13 4.5zM0 65q0-8 5.5-13T19 47h87q8-1 13.5 4.5T125 65q0 8-5.5 13.5T106 84H19q-8 0-13.5-5.5T0 65zm0 63q0-8 5.5-13.5T19 109h62q8 0 13.5 5.5T100 128q0 8-5.5 13T81 146H19q-8 0-13.5-5T0 128z"/></svg>