<svg viewBox="0 0 300 368" xmlns="http://www.w3.org/2000/svg"><path d="M256 184h-76l-29-39q-8-11-20-17.5t-25-6.5H94q-24 0-40 16.5T38 178v7q-16 2-27 14T0 228v37q0 19 9.5 34.5t25 25Q50 334 69 334h162q19 0 34.5-9.5t25-25Q300 284 300 265v-37q0-18-13-31t-31-13zm-81 37v75h-50v-75h50zm-81-62h12q9 0 15 8l13 17H75v-6q0-8 5.5-13.5T94 159zM38 265v-37q0-3 1.5-5t4.5-1h44v74H69q-13 0-22-9t-9-22zm225 0q0 13-9.5 22t-22.5 9h-18v-75h43q3 0 5 2t2 5v37zM63 65q0-13 9-22t22-9q13 0 22 9t9 22q0 13-9 22.5t-22 9Q81 96 72 87t-9-22zm175-10v-2q-1-8 4.5-13.5T256 34q8 0 13.5 5.5T275 53v2q0 10 7 17 18 18 18 43 0 8-5.5 13.5T281 134q-8 0-13-5.5t-5-14.5q0-9-7-16-18-18-18-43zm-45 52q-18-18-18-43V53q0-8 5.5-13.5T194 34q8 0 13 5.5t5 13.5v11q1 9 8 16 17 18 17 44v4q1 8-4.5 13t-13.5 5q-8 0-13.5-5t-5.5-13v-4q0-10-7-17z"/></svg>