<svg viewBox="0 0 300 368" xmlns="http://www.w3.org/2000/svg"><path d="M300 203v112q0 8-5.5 13.5T281 334q-8 0-13-5.5t-5-13.5v-19H38v19q0 8-5.5 13.5T19 334q-8 0-13.5-5.5T0 315V103q0-8 5.5-13.5T19 84q8 0 13.5 5.5T37 103v131h88v-31q0-18 10.5-32.5T163 150q7-3 14 .5t9.5 10.5q2.5 7-1 14t-10 9.5q-6.5 2.5-10 7.5t-3.5 11v31h101v-31q0-6-3.5-11t-10-7.5q-6.5-2.5-10-9.5t-1-14q2.5-7 9.5-10.5t14-.5q17 6 27.5 20.5T300 203zm-187 0q0-13-9.5-22.5T81 171q-13 0-22 9.5T50 203q0 13 9 22t22 9q13 0 22.5-9t8.5-22h1zm6-94h37q10 0 16-8l5-9 18 43q4 10 15 11l2 1q9-1 15-7l26-31h28q8 0 13.5-5.5T300 90q0-8-5.5-13.5T281 71h-37q-9 0-15 7l-11 14-19-46q-2-5-6.5-8t-9.5-3.5q-5-.5-9.5 1.5t-7.5 6l-20 29h-27q-8 1-13.5 6T100 90q0 8 5.5 13.5T119 109z"/></svg>