<svg viewBox="0 0 300 368" xmlns="http://www.w3.org/2000/svg"><path d="M280 216l-22-21q-11-11-26.5-11T205 195l-22 22q-20 20-20 48.5t20 48.5q20 20 48.5 20t48.5-20q20-20 20-48.5T280 217v-1zm-27 71q-9 9-22 9t-22-9q-9-9-9-22t9-22l22-21 22 21q10 9 10 22t-10 22zm-103 30q-1 7-6.5 11.5T131 333l-2-1q-37-5-66-26t-46-53Q0 221 0 184q0-41 20-75.5T74.5 54Q109 34 150 34q34 0 64.5 14.5t52 40.5q21.5 26 29.5 59 2 8-2.5 14.5t-12 8.5q-7.5 2-14-2t-8.5-12q-6-25-22-44.5T198.5 82Q176 71 150 71q-31 0-56.5 15.5t-40.5 41Q38 153 38 184q0 27 12.5 51.5t34.5 40q22 15.5 49 19.5 8 1 12.5 7.5T150 317zm56-195q8 0 13.5 5.5T225 140v13q0 8-5.5 13.5T206 172q-8 0-13.5-5.5T187 153v-13q0-7 5.5-12.5T206 122zm-112 0q8 0 13.5 5t5.5 13v25q0 8-5.5 13.5T94 184q-8 0-13.5-5.5T75 165v-25q0-8 5.5-13t13.5-5zm56 0q8 0 13.5 5t5.5 13v25q0 8-5.5 13.5T150 184q-8 0-13.5-5.5T131 165v-25q0-8 5.5-13t13.5-5z"/></svg>