<svg viewBox="0 0 300 368" xmlns="http://www.w3.org/2000/svg"><path d="M75 59q0-10 7.5-17.5T100 34q10 0 17.5 7.5T125 59q0 10-7.5 17.5T100 84q-10 0-17.5-7.5T75 59zm75 62q10 0 17.5-7t7.5-17.5q0-10.5-7.5-18T150 71q-10 0-17.5 7.5t-7.5 18q0 10.5 7.5 17.5t17.5 7zm50-37q10 0 17.5-7.5T225 59q0-10-7.5-17.5T200 34q-10 0-17.5 7.5T175 59q0 10 7.5 17.5T200 84zm-50 50q-12 0-22 7t-13 19q6 4 10 9l17 17q4 3 8 3t8-3l18-18q4-4 9-8-3-12-13-19t-22-7zm41-9q11 10 17 25 10-3 19-3 5 0 10 1v-14q1-16-10-27t-27-10q0 15-9 28zm-99 24q6-14 17-24-9-13-9-29-16 0-26.5 11T63 134v14q15-3 29 1zm180-65q-9 1-15.5 8.5T250 110v68q-14-8-30-5.5T193 186l-43 43-6-7-36-35q-12-12-28-14.5T50 178v-68q0-10-6.5-17.5t-17-8.5Q16 83 8 90.5T0 109v144q0 19 7 36t20 30l10 9q5 6 13 6t13.5-5.5Q69 323 69 315t-6-13l-9-9q-16-17-16-40v-2l30 31q6 5 13.5 5t13-5.5q5.5-5.5 5.5-13T95 255l-31-30q-2-3-1.5-7.5t4-6.5q3.5-2 7.5-1.5t7 3.5l36 36q21 20 21 44v22q0 8 5 13.5t13 5.5q8 0 13.5-5.5T175 315v-22q0-16-5-31l50-50q3-3 7.5-3t7 3q2.5 3 3 6.5T236 225l-30 30q-6 5-6 13t5.5 13.5Q211 287 219 287t13-6l31-30v2q0 23-17 40l-9 9q-6 5-6 13t5.5 13.5Q242 334 250 334t13-6l10-9q13-13 20-30t7-36V109q0-11-8-18.5T272 84z"/></svg>