<svg viewBox="0 0 300 368" xmlns="http://www.w3.org/2000/svg"><path d="M300 115v75q0 19-9.5 34.5t-25 25Q250 259 231 259h-62v25h25q8 0 13.5 5.5t5 13.5q-.5 8-5.5 13t-13 5h-88q-8 0-13.5-5t-5-13q.5-8 5.5-13.5t13-5.5h25v-25H69q-19 0-34.5-9.5t-25-25Q0 209 0 190v-75q0-18 9.5-34t25-25.5Q50 46 69 46h25q8 0 13.5 5.5t5 13.5q-.5 8-5.5 13.5T94 84H69q-13 0-22 9t-9 22v75q0 13 9 22.5t22 9.5h162q13 0 22-9.5t9-22.5v-75q1-10-6-18.5T239 85q-7-2-11-8.5t-2-14q2-7.5 8.5-11.5t13.5-2q23 6 37.5 24.5T300 115zm-200 31q0 16 11 27t26.5 11q15.5 0 26.5-11t11-27V84h6q8 0 13.5-5.5T200 65q0-8-5.5-13T181 47h-12q-13 0-22 9t-9 22v31q-16 0-27 11t-11 27v-1z"/></svg>