<svg viewBox="0 0 300 368" xmlns="http://www.w3.org/2000/svg"><path d="M105 189l18-18-18-17q-5-6-5-14t5.5-13.5Q111 121 119 121t13 6l18 18 18-18q5-6 13-6t13.5 5.5Q200 132 200 140t-5 14l-18 17 18 18q5 6 5 14t-5.5 13.5Q189 222 181 222t-13-6l-18-18-18 18q-5 6-13 6t-13.5-5.5Q100 211 100 203t5-14zm-52 81q-26-26-35.5-62t-.5-71.5Q26 101 53 74q19-19 44.5-29.5T150 34q27 0 52.5 10.5T247 74q27 27 36 62.5t0 71q-9 35.5-36 62.5l-47 44q-14 13-32 17.5t-36 0q-18-4.5-32-18.5l-47-43zm26-27l47 43q10 10 24 10t24-9l47-44q19-20 25.5-45.5t0-51.5q-6.5-26-25.5-45-14-14-32.5-21.5T150 72q-20 0-38.5 7.5T79 101q-19 19-25.5 45t0 52Q60 224 79 243z"/></svg>