<svg viewBox="0 0 300 368" xmlns="http://www.w3.org/2000/svg"><path d="M231 34H69q-19 0-34.5 9.5t-25 25Q0 84 0 103v162q0 19 9.5 34.5t25 25Q50 334 69 334h162q19 0 34.5-9.5t25-25Q300 284 300 265V103q0-19-9.5-34.5t-25-25Q250 34 231 34zm32 231q0 13-9.5 22t-22.5 9H69q-13 0-22-9t-9-22V103q0-13 9-22.5T69 71h162q13 0 22.5 9.5T263 103v162zm-50-144v35q0 21-12.5 37.5T169 216v18h12q8 0 13.5 5.5T200 253q0 8-5.5 13.5T181 272h-62q-8-1-13.5-6t-5.5-13q0-8 5.5-13.5T119 234h12v-18q-19-7-31-24t-12-39v-32q0-10 7-17.5t18-7.5h22l-22 37q-3 10 3.5 18t16.5 8h26l-13 18q-3 5-2 10t5 7.5q4 2.5 7 1.5 7 0 11-5l17-26q3-4 3.5-10t-2.5-10.5q-3-4.5-7.5-7.5t-10.5-3h-26l23-38h24q10 0 17.5 7.5T213 121z"/></svg>