<svg viewBox="0 0 300 368" xmlns="http://www.w3.org/2000/svg"><path d="M299 176q-3-19-17.5-30.5T248 134h-25l-45-77q-8-16-23-20.5t-29.5 1Q111 43 104 56.5T102 87l17 47H57l-9-12q-7-11-20.5-12.5t-22 7.5Q-3 126 1 140l24 44-23 44q-5 11 2 21t19 10h1q7 0 13.5-3.5T49 245l8-11h62l-17 47q-5 18 2 31t21.5 18.5q14.5 5.5 29.5 1t23-19.5l45-78h27q11 0 21-4.5t17-13q7-8.5 10-19t1-21.5zm-39 16q-4 5-10 4h-38q-5 1-9.5 3.5T195 206l-50 87q-1 2-3 3t-3.5 0q-1.5-1-.5-2l25-73q3-9-2.5-16.5T146 196H75v-25h71q9 0 14.5-7.5T163 146l-25-71q-1-2 .5-3t3.5 0q2 1 4 3l49 87q3 4 7.5 6.5t9.5 2.5h36q5 0 9 3t5 8.5q1 5.5-2 9.5z"/></svg>