<svg viewBox="0 0 300 368" xmlns="http://www.w3.org/2000/svg"><path d="M145 78h-10v22h10q5 0 8-3.5t3-8q0-4.5-3-7.5t-8-3zm99-44H56q-23 0-39.5 16.5T0 90v188q0 23 16.5 39.5T56 334h150q11 0 21.5-4.5T246 318l38-38q7-8 11.5-18.5T300 240V90q0-23-16.5-39.5T244 34zm-61 87q1-2 4-2.5t5 1.5l2 1q4 4 10 6t12 0q4-1 5.5-5t-1-7q-2.5-3-6.5-4l-15-6q-8-3-12-9t-3-14q0-4 2-7 5-8 13-11 16-4 31 4 3 2 4.5 4.5t1.5 5q0 2.5-2 4.5-3 4-11 1-5-2-9.5-3.5T205 78q-4 0-5.5 4.5T201 90q3 3 8 4l10 2q6 2 11 6.5t7 9.5q2 5 1 11-2 10-10 15.5t-17 5.5q-17 0-29-12-2-3-2-6t2-5h1zm-56-59h18q11 0 19 7.5t8 18.5q0 11-7.5 19t-18.5 8h-11v21q0 3-2.5 5.5T127 144q-3 0-5.5-2.5T119 136V70q0-3 2-5.5t6-1.5v-1zm-67 9q0-4 2.5-6t5.5-2h27q4 0 6 2t2 5.5q0 3.5-2 5.5t-6 2H76v17h17q4 0 6 2.5t2 5.5q0 3-2 5.5t-6 2.5H76v17h19q4 0 6 2.5t2 5.5q0 3-2 5.5t-6 2.5H68q-3 0-5.5-2.5T60 136V71zm203 150h-50q-11 0-18 7.5t-7 18.5v49H56q-8 0-13-5t-5-13V172h225v49z"/></svg>