<svg viewBox="0 0 300 368" xmlns="http://www.w3.org/2000/svg"><path d="M163 34q-38 0-69.5 15t-50 41Q25 116 25 146q0 8 1 15h-1q-12 13-14 30.5t8 32.5q-9 11-14 25t-5 29q0 11 4 21.5T16 318q8 8 18.5 12t21.5 4q8 0 13.5-5.5t5.5-13q0-7.5-5.5-13T56 297t-13.5-5.5Q37 286 37 277t4-18q4-9 12-16 20 4 40 4h7q30 12 63 12 37 0 68.5-15t50-41q18.5-26 18.5-56.5T281.5 90q-18.5-26-50-41T163 34zm0 187q-18 0-35-4-12-30-32-56-14-14-33-14v-1q0-20 13-37t36-27q23-10 50.5-10.5t50.5 10Q236 92 249.5 109t13.5 37.5q0 20.5-13.5 37.5T213 211q-23 10-51 10h1z"/></svg>