<svg viewBox="0 0 300 368" xmlns="http://www.w3.org/2000/svg"><path d="M277 202l-31 8q-5 1-10 4l-25-15q4-15 0-30l25-15q5 3 10 4l35 8q8 0 13.5-5.5T300 148q0-7-4-12t-10-7l-31-7q-1 0-1.5-1t-.5-2l7-31q3-7-1-14t-11-9q-7-2-14 1.5T225 77l-8 33q-1 6-1 12l-25 15q-10-8-22-12V96q6-3 10-7l22-22q6-6 6-13.5t-5.5-13Q196 35 188 35t-13 5l-23 22q-1 2-3 0l-23-22q-5-5-13-5t-13 5.5q-5 5.5-5 13t5 13.5l22 22q5 4 10 7v29q-12 4-22 12l-25-15q1-6-1-12l-7-31q-2-7-8.5-11t-14-2.5Q47 67 43 73.5T40 88l8 31q0 1-.5 2t-1.5 1l-31 7q-7 2-11 8.5T1.5 151Q3 158 8 162t12 4q1 0 35-8 5-1 11-4l24 15q-4 15 0 30l-24 15q-6-3-11-4l-31-7q-7-3-14 .5t-9.5 11Q-2 222 2 229t11 9l33 8q1 0 1.5 1t.5 2l-7 31q-2 7 2 14t11.5 8.5q7.5 1.5 14-2.5t8.5-11l7-31q2-6 1-12l25-15q10 8 22 12v29q-5 3-10 7l-22 22q-5 6-5 13.5t5 13q5 5.5 13 5.5t13-5l23-22q2-2 3 0l23 22q5 5 13 5t13.5-5.5q5.5-5.5 5.5-13t-6-13.5l-22-22q-4-4-10-7v-29q12-4 22-12l25 15q-1 6 1 12l7 31q2 7 8.5 11t14 2.5Q254 301 258 294t2-14l-7-31q0-1 .5-2t1.5-1l31-7q7-2 11-8.5t2.5-14Q298 209 291 205t-14-3zm-126 7q-11 0-18-7.5t-7-17.5q0-10 7-17.5t17.5-7.5q10.5 0 17.5 7.5t7 17.5q0 10-7 17.5t-17 7.5z"/></svg>