<svg viewBox="0 0 300 368" xmlns="http://www.w3.org/2000/svg"><path d="M163 109H63q-17 0-31.5 8.5t-23 23Q0 155 0 171v100q0 17 8.5 31.5t23 23Q46 334 63 334h100q16 0 30.5-8.5t23-23Q225 288 225 271V171q0-16-8.5-30.5t-23-23Q179 109 163 109zm25 162q0 11-7.5 18t-17.5 7H63q-11 0-18-7t-7-18V171h150v100zm112-168v92q0 26-17 45-6 6-14 6t-13.5-4.5q-5.5-4.5-6-12.5t5.5-14q7-9 7-20v-92q0-13-9-22.5T231 71h-92q-12 0-20 8-6 5-14 4.5t-13-6Q87 72 87.5 64T94 51q19-17 45-17h92q19 0 34.5 9t25 25q9.5 16 9.5 35z"/></svg>