<svg viewBox="0 0 300 368" xmlns="http://www.w3.org/2000/svg"><path d="M291 127l-23-38q-9-14-23-23l-38-23q-16-9-34-9h-46q-18 0-34 9L55 66q-14 9-23 23L9 127q-9 16-9 34v46q0 18 9 34l23 38q9 14 23 23l38 23q16 9 34 9h46q18 0 34-9l38-23q14-9 23-23l23-38q9-16 9-34v-46q0-18-9-34zM63 110l68 17v52l-39 19-50-52 21-36zm65 186l-18-65 40-20 40 20-18 65h-44zm80-98l-39-19v-52l68-17 21 36-50 52zM127 71h46q8 0 15 5l9 5-47 12-47-12 10-5q6-5 14-5zM64 260l-22-39q-5-6-5-14v-11l34 35 12 44-9-5q-6-4-10-10zm194-39l-22 39q-4 6-10 10l-9 5 12-44 34-35v11q0 8-5 14z"/></svg>