<svg viewBox="0 0 300 368" xmlns="http://www.w3.org/2000/svg"><path d="M288 260q0 24-13.5 44T238 333q-3 1-7.5 1t-9.5-3q-5-3-7.5-9.5t.5-13.5q3-7 10-10 12-5 19-15t7-23q0-28-15.5-57.5t-39-49Q172 134 150 134t-45.5 19.5q-23.5 19.5-39 49T50 260q0 13 7 23t19 15q7 3 10 10t0 14q-3 7-10 10.5t-14 .5q-23-9-36-29t-13-44q0-32 15.5-67T70 133q28-26 58-34-30-21-39-44-3-8 1.5-14.5T103 34h94q8 0 12.5 6.5T211 55q-9 23-39 44 30 8 58 34 26 25 41.5 60t15.5 67h1zm-116-25l-30-12q-4-2-4-6t2-6q2-2 5-2h15q3 0 5 3 4 7 11.5 9t14-2q6.5-4 8.5-11.5t-2-15q-4-7.5-12-13t-17-7.5q-2-6-7-9.5t-11.5-3.5q-6.5 0-11.5 4t-6 10q-14 5-23 16.5t-9 26q0 14.5 7.5 26T128 258l30 12q4 2 4 6t-2 6q-2 2-5 2h-15q-3 0-5-3-4-7-11.5-9t-14 2q-6.5 4-8.5 11.5t2 15q4 7.5 12 13t17 7.5q2 6 7 9.5t11.5 3.5q6.5 0 11.5-4t6-10q14-5 23-16.5t9-26q0-14.5-7.5-26T172 235z"/></svg>