<svg viewBox="0 0 300 368" xmlns="http://www.w3.org/2000/svg"><path d="M231 34H69q-19 0-34.5 9.5t-25 25Q0 84 0 103v112q0 19 9.5 34.5t25 25Q50 284 69 284h15l45 38q9 8 21 8t20-8l47-38h14q19 0 34.5-9.5t25-25Q300 234 300 215V103q0-19-9.5-34.5t-25-25Q250 34 231 34zm32 181q0 13-9.5 22.5T231 247h-21q-7-1-12 4l-48 39-47-39q-5-5-12-5H69q-13 0-22.5-9T37 215V103q0-13 9.5-22T69 72h162q13-1 22 8.5t9 22.5v112h1zm-38-75v63q0 13-9 22t-22 9q-13 0-22.5-9t-9-21q.5-12 7.5-21t18-11v-32q0-2-2-4t-5-2h-37q-3 0-4.5 2t-1.5 4v63q0 13-9.5 22t-22.5 9q-13 0-22-9t-9-21q0-12 7-21t18-11v-32q0-18 13-31t31-13h37q18 0 31 13t13 31z"/></svg>