<svg viewBox="0 0 300 368" xmlns="http://www.w3.org/2000/svg"><path d="M169 246q0 8-5.5 13.5T150 265q-8 0-13.5-5.5t-5.5-13q0-7.5 5.5-13T150 228q8 0 13.5 5.5T169 247v-1zm92 62q3 7 0 14t-10 10.5q-7 3.5-14 .5t-10-10l-11-26q-32 13-66 13t-66-13l-11 26q-1 4-5.5 7t-9.5 3.5q-5 .5-9.5-1t-7.5-6q-3-4.5-3.5-9.5t1.5-9l14-32q-16-19-15-43V109q-1-22 12-39.5T83 46q33-11 67-11t67 11q20 6 33 23.5t12 39.5v124q1 24-15 43l14 32zM75 112q0 13 9 30.5t25 28.5q18 13 41 13t41-13q16-11 25-28.5t9-30.5v-3q0-10-5.5-17.5T205 81l-12-3q-2 5-7 8.5T175 90h-50q-6 0-11-3.5t-7-8.5l-12 3q-9 3-14.5 10.5T75 109v3zm75 159q32 2 61-13 7-4 10.5-10.5T225 233v-42q-21 20-48 27t-54 0q-27-7-48-27v42q0 8 3.5 14.5T89 258q29 15 61 13z"/></svg>