<svg viewBox="0 0 300 368" xmlns="http://www.w3.org/2000/svg"><path d="M127 315q0 8-5.5 13.5T109 334q-27 0-47-18.5T40 271L27 109h-8q-8 0-13.5-5.5T0 90q0-8 5.5-13.5T19 71h59q6-16 20.5-26.5T131 34h38q18 0 32.5 10.5T222 71h59q8 0 13.5 5.5T300 90q0 8-5.5 13.5T281 109h-7l-2 20q-1 8-6.5 13t-13.5 4q-19-2-18-20l2-17H64l13 159q1 12 10 20.5t22 8.5q7-1 12.5 4.5T127 315zm173-62q0 22-11 40.5T259.5 323Q241 334 219 334t-41-11q-19-11-29.5-29.5T138 253q0-22 10.5-41t29.5-30q19-11 41-11t40.5 11q18.5 11 29.5 30t11 41zm-52 3l-10-11v-17q0-8-5.5-13.5T219 209q-8 0-13.5 5.5T200 228v22q0 11 7 18l15 14q5 6 13 6t13.5-5.5Q254 277 254 269t-6-13z"/></svg>