<svg viewBox="0 0 300 368" xmlns="http://www.w3.org/2000/svg"><path d="M285 101q-7-4-14.5-4.5T255 100q-5 2-14 8.5t-16 9.5v-3q0-8-5.5-13T206 97q-8 0-13 5t-5 13v7h-25v-7q0-8-5.5-13T144 97q-8 0-13.5 5.5T125 115v7h-25v-7q0-8-5.5-13T81 97q-8 0-13 5t-5 13v12q-18 5-37 14-12 5-19 16t-7 24v19q0 13 6.5 23.5T24 240q38 19 70 19h112q9 0 19 5 6 3 17 9 8 5 12 7 8 4 16 4t15-4.5q7-4.5 11-13t4-18.5V133q0-11-4-19.5T285 101zm-22 141h-1q-14-9-24-13-16-8-32-8H94q-23 0-53-14-3-2-4-7v-19q1-4 5-6 33-16 52-16h112q19 0 35-7 10-4 22-13v103zm-100-52q0 8-5.5 13.5T144 209q-8 0-13.5-5.5T125 190q0-8 5.5-13.5T144 171q8 0 13.5 5.5T163 190zm-63 0q0 8-5.5 13.5T81 209q-8 0-13-5.5T63 190q0-8 5-13.5t13-5.5q8 0 13.5 5.5T100 190zm106-19q8 0 13.5 5.5T225 190q0 8-5.5 13.5T206 209q-8 0-13.5-5.5T187 190q0-8 5.5-13.5T206 171z"/></svg>