<svg viewBox="0 0 300 368" xmlns="http://www.w3.org/2000/svg"><path d="M256 334q-9 0-14.5-7.5T238 310l5-15q11-21 5-51-6-26-20-44-24-34-27-76t17-80q3-7 10.5-9.5t14.5 1q7 3.5 9.5 11T251 61q-15 28-13 60t21 58q12 14 20 37t8 47q1 26-9 45l-4 13q-1 6-6 9.5t-12 3.5zm-87 0q-10 0-15.5-7.5T151 310l5-15q10-21 4-51-5-26-19-44-25-34-28-76t17-80q3-7 10.5-9.5t14.5 1q7 3.5 9.5 11T164 61q-15 28-13 60t21 58q11 14 19 37t9 47q0 26-9 45l-4 13q-2 6-7 9.5t-11 3.5zm-88 0q-9 0-14.5-7.5T63 310l5-15q11-21 5-51-6-26-20-44-24-34-27-76t16-80q4-7 11.5-9.5t14.5 1q7 3.5 9.5 11T76 61q-15 28-13 60t21 58q12 14 20 37t8 47q1 26-9 45l-4 13q-2 6-7 9.5T81 334z"/></svg>