<svg viewBox="0 0 300 368" xmlns="http://www.w3.org/2000/svg"><path d="M194 96h-25V72q20 2 39 6 10 3 17 5 3 1 6 1 6 0 11-3.5t7.5-10q2.5-6.5-1-13.5T237 48q-9-4-26-7-31-7-61-7t-61 7q-17 3-26 7-8 2-11.5 9T51 71.5q3 7.5 10 11t14 .5q25-8 56-11v24h-25q-18 0-34 9.5T47 131q-9 16-9 34v75q0 21 11 38t30 25l-1 2q-4 7-2.5 14.5T84 331q4 3 10 3 10 0 16-9l10-16h60l10 16q6 9 16 9 6 0 10-3 7-4 8.5-11.5T222 305l-1-2q19-8 30.5-25t11.5-38v-75q0-18-9.5-34T228 106q-16-9-34-9v-1zM75 196v-31q0-3 1-6h55v37H75zm94 0v-37h55q1 3 1 6v31h-56zm25 75h-88q-13 0-22-9t-9-22v-6h25v6q0 8 5.5 13.5T119 259q8 0 13.5-5.5T138 240v-6h25v6q0 8 5 13.5t13 5.5q8 0 13.5-5.5T200 240v-6h25v6q0 13-9 22.5t-22 9.5v-1z"/></svg>