<svg viewBox="0 0 300.0024 368" xmlns="http://www.w3.org/2000/svg"><path d="M100 171q-5 0-8.5-3.5T88 159h-4q-10 0-18.5-5T52 140q-3-4-1.5-9t6-7.5Q61 121 66 122t8 6.5q3 5.5 10 5.5h33q4 0 6-2.5t2-5.5q0-3-2-5t-4-3l-41-7q-12-1-20-10.5t-8-22Q50 66 59.5 56T83 46h5q0-5 3.5-8.5T100 34q5 0 9 3.5t4 8.5h3q10 0 18.5 5T149 65q2 5 .5 10t-5.5 7.5q-4 2.5-9 1t-8.5-7Q123 71 116 71H83q-3 0-5.5 2.5T75 79q0 3 2 5t5 3l41 7q12 2 19.5 11t7.5 22q0 13-9.5 22.5T118 159h-5q0 5-4 8.5t-9 3.5zm188 44l-65 74q-19 21-45 33t-54 12H56q-23 0-39.5-16.5T0 278v-50q0-24 16.5-40.5T56 171h99q17 0 30 12l31-33q13-15 33-16t35 12.5q15 13.5 16 33.5t-12 35zm-29-41q-3-3-8-2.5t-8 3.5l-43 48q-2 15-13 26t-26 13l-64 9q-8 1-14.5-3.5t-7.5-12q-1-7.5 3.5-14T91 234l65-9q3 0 5-2.5t2-5.5q0-3-2.5-5.5T155 209H56q-7 0-12.5 5.5T38 228v50q0 8 5.5 13.5T56 297h68q20 0 38.5-8.5T195 265l65-75q3-3 2.5-7.5T259 175v-1z"/></svg>