<svg viewBox="0 0 300 368" xmlns="http://www.w3.org/2000/svg"><path d="M231 59H69q-19 0-34.5 9.5t-25 25Q0 109 0 128v112q0 19 9.5 34.5t25 25Q50 309 69 309h162q19 0 34.5-9.5t25-25Q300 259 300 240V128q0-19-9.5-34.5t-25-25Q250 59 231 59zm32 181q0 13-9.5 22.5T231 272H69q-13-1-22.5-10T37 240V128q1-3 1-7h25v94q0 13 9 22.5t22 9.5h50q8-1 13.5-6t5.5-13q0-8-5.5-13.5T144 209h-44v-25h19q8 0 13.5-5.5t5-13.5q-.5-8-5.5-13.5t-13-5.5h-19v-25h162q1 4 1 7v112zm-25-12q0 8-5.5 13.5T219 247h-25q-8-1-13.5-6t-5.5-13q0-8 5.5-13.5T194 209h25q8 0 13 5.5t6 13.5zm-44-44h-25q-8 0-13.5-5.5T150 165q0-8 5.5-13.5T169 146h25q8 1 13.5 6t5 13q-.5 8-5.5 13.5t-13 5.5z"/></svg>