<svg viewBox="0 0 300 368" xmlns="http://www.w3.org/2000/svg"><path d="M299 207q-4 15-17.5 22.5t-28 3.5q-14.5-4-69.5-54l48 73q6 8 5 17v18l18 13q6 5 7 12.5t-4 14.5q-5 7-14 7-6 0-11-4l-20-15q-6-4-9.5-10.5T200 290v-19l-31-47v41q0 8-5.5 13.5T150 284q-8 0-13.5-5.5T131 265v-41l-31 47v19q0 8-3.5 14.5T87 315l-19 15q-5 4-12 4-9 0-14-7t-4-14.5q1-7.5 7-12.5l18-13v-18q0-9 5-17l48-73q-55 50-69.5 54t-28-3.5Q5 222 1 207t3.5-28Q12 166 27 162t82-3l-46-34q-6-4-9.5-11T50 100V86L31 66q-6-5-6-13t5.5-13.5Q36 34 44 34t13 5l21 22q9 9 9 22v14l44 31q-6-5-9-11.5t-3-14.5q0-8 4.5-15.5T136 75l8-36q1-5 6-5t6 5l8 36q8 4 12.5 11.5T181 102q0 8-3 14.5t-9 11.5l43-31V83q0-13 10-22l21-22q5-5 13-5t13.5 5.5Q275 45 275 53t-6 13l-19 20v14q0 7-3.5 14t-9.5 11l-46 34q67-1 82 3t22.5 17q7.5 13 3.5 28z"/></svg>