<svg viewBox="0 0 300 368" xmlns="http://www.w3.org/2000/svg"><path d="M188 234q0 14-9 24.5t-22.5 13q-13.5 2.5-25-4.5T115 247.5q-5-12.5-.5-25.5t16.5-20v-68q0-7 5.5-12.5T150 116q8 0 13.5 5.5T169 134v68q8 5 13 13.5t6 18.5zm62 0q0 27-13.5 50T200 320.5Q177 334 150 334q-31 0-55-16.5t-36-43q-12-26.5-8.5-55T75 168v-59q1-28 17-47 14-18 36-24t44 0q22 6 37 24 15 19 16 47v59q12 14 18.5 31t6.5 35zm-37 0q0-13-5.5-24.5T193 189q-6-5-6-13v-67q1-15-10-26t-27-11q-16 0-27 11t-10 26v67q0 8-6 13-16 15-19 36t7.5 39.5q10.5 18.5 30 27t40.5 3q21-5.5 34-22.5t13-38z"/></svg>