<svg viewBox="0 0 300 368" xmlns="http://www.w3.org/2000/svg"><path d="M226 115q5 5 5 13t-5 13l-73 71q-9 9-22 9t-22-9l-35-33q-5-6-5-13.5t5-13q5-5.5 13-6t14 5.5l30 30 68-68q6-5 13.5-5t13.5 6zm74-14v112q0 19-9.5 34.5t-25 25Q250 282 231 282h-14l-47 38q-8 8-20 8t-21-8l-45-38H69q-19 0-34.5-9.5t-25-25Q0 232 0 213V101q0-19 9.5-35t25-25Q50 32 69 32h162q19 0 34.5 9t25 25q9.5 16 9.5 35zm-37 0q0-13-9.5-22.5T231 69H69q-13 0-22 9.5T38 101v112q0 13 9 22t22 9h22q7 0 12 5l47 39 48-39q5-5 12-5h21q13 0 22.5-9t9.5-22V101z"/></svg>