<svg viewBox="0 0 300 368" xmlns="http://www.w3.org/2000/svg"><path d="M281 296h-6V125q0-24-16-41.5T220 63l-51-6v-4q0-8-5.5-13.5T150 34q-8 0-13.5 5.5T131 53v4l-51 6q-23 3-39 20.5T25 125v171h-6q-8 0-13.5 5.5T0 315q0 8 5.5 13.5T19 334h262q8 0 13.5-5.5T300 315q0-8-5.5-13t-13.5-5v-1zM63 125q0-9 5-16h164q6 7 6 16v171H63V125zm75 90v13q-1 8-6 13.5t-13 5.5h-13q-8-1-13.5-6T87 228v-13q1-8 6-13.5t13-5.5h13q8 1 13.5 6t5.5 13zm-50-56v-13q0-5 3.5-8.5t8.5-3.5q5 0 8.5 3.5t3.5 9.5v12q1 5-3 8.5t-9 3.5q-5 0-8.5-3.5T88 159zm75-13v13q0 5-4 8.5t-9 3.5q-5 0-8.5-3.5T138 159v-13q0-5 3.5-8.5t8.5-3.5q5 0 8.5 3.5t3.5 9.5l1-1zm50 0v13q0 5-4 8.5t-9 3.5q-5 0-8.5-3.5T188 159v-13q0-5 3.5-8.5t8.5-3.5q5 0 9 3.5t3 9.5l1-1z"/></svg>