<svg viewBox="0 0 300 368" xmlns="http://www.w3.org/2000/svg"><path d="M300 140q0-5-2.5-9t-6.5-7L173 53q-10-7-23-7t-23 7L9 124q-4 3-6.5 7T0 140q0 5 2.5 9.5T9 156l118 71q10 7 23 7t23-7l118-71q4-2 6.5-6.5t2.5-9.5zm-146 55q-4 3-8 0l-91-55 91-55q4-2 8 0l91 55-91 55zm146 83q0 8-5.5 13t-13.5 5h-18v19q0 8-5.5 13.5T244 334q-8 0-13.5-5.5T225 315v-19h-19q-8 0-13-5t-5.5-13q-.5-8 5-13.5T206 259h19v-19q0-8 5.5-13.5t13.5-5q8 .5 13 5.5t5 13v19h19q8 0 13.5 5.5T300 278zm-140 22q-3 4-7 6.5t-9 2.5q-5 0-10-3L10 232q-6-4-8-11.5t2-14q4-6.5 11.5-8.5t14.5 2l123 74q7 4 9 11.5t-2 14.5z"/></svg>