<svg viewBox="0 0 300 368" xmlns="http://www.w3.org/2000/svg"><path d="M181 121h-62q-8 0-13.5 5.5T100 140q0 8 5.5 13.5T119 159h62q8 0 13.5-5.5T200 140q0-8-5.5-13.5T181 121zm-25 63h-37q-8 0-13.5 5.5T100 203q0 8 5.5 13.5T119 221h37q8 1 13.5-4.5T175 203q0-8-5.5-13.5T156 184zm38-150h-88q-18 0-34 9.5t-25 25Q38 84 37 103v212q0 11 9 16.5t19 .5l41-21 35 20q4 3 9 3t9-2l35-21 41 21q10 5 19-.5t8-16.5V103q0-19-9-34.5t-25-25Q212 34 194 34zm31 251l-23-12q-9-4-18 1l-34 20-34-20q-9-5-18 0l-23 11V103q0-13 9-22t22-9h88q13-1 22 8.5t9 22.5v182z"/></svg>