<svg viewBox="0 0 300 368" xmlns="http://www.w3.org/2000/svg"><path d="M300 261q0 20-10 36.5T263.5 324Q247 334 227 334h-8q-8 0-13.5-5.5T200 315q0-8 5.5-13t13.5-5h8q15-1 25-11t10.5-25q.5-15-10.5-25-5-4-6-10t1.5-11.5Q250 209 250 203q0-9-4.5-16.5t-11.5-11q-7-3.5-9.5-9.5t-.5-13q1-4 1-6 0-11-7.5-18t-17.5-7h-7q-6 0-11.5-4.5T175 106q-1-7-5.5-14T159 80q-6 24-24 38-6 4-12 4h-23q-10 0-17.5 7T75 147q0 2 1 6 2 7-.5 13t-9.5 9.5q-7 3.5-11.5 11t-4.5 15q0 7.5 2.5 13t1 11.5q-1.5 6-5.5 10-11 10-11 25t10.5 25.5Q58 297 73 297q8-1 13.5 4.5T92 315q0 8-5.5 13.5T73 334q-20 0-36.5-10T10 297.5Q0 281 0 261q0-24 14-43-2-7-2-15 0-16 7-29.5T38 150l-1-4q0-16 8.5-30.5t23-23Q83 84 100 84h16q9-11 9-31 0-8 5.5-13.5T144 34q19 0 37 15t26 35q24 3 39.5 21t15.5 41v4q12 10 18.5 23.5T287 203q0 8-1 15 14 19 14 43zm-105-27h-39l12-33q2-6-1.5-11.5T156 184h-23q-4 0-7.5 2t-4.5 6l-27 77q-1 6 2 10.5t9 4.5h39l-12 36q-2 6 1.5 10t9 4q5.5 0 8.5-5l53-78q4-5 1-11t-10-6z"/></svg>