<svg viewBox="0 0 300 368" xmlns="http://www.w3.org/2000/svg"><path d="M295 328q-6 6-14 6t-13-6L6 66q-6-5-6-13t5.5-13.5Q11 34 18.5 34T32 39l120 120q9 1 15.5 7.5T175 182l21 21q6-13 3-28t-13-26q-6-6-6-13.5t5.5-13Q191 117 199 117t13 5q22 22 25 53t-13 56l18 18q15-22 19-48t-4-51.5q-8-25.5-27-45.5-6-5-6-13t5.5-13.5Q235 72 243 72t13 6q27 26 37.5 61.5t4 71.5q-6.5 36-28.5 65l26 26q5 5 5 13t-5 13zM102 198q-2-8-9-11.5T78.5 185q-7.5 2-11 8.5T66 208q6 22 22 38 6 5 13.5 5t13-5.5q5.5-5.5 5.5-13t-5-13.5q-10-9-13-22v1zm-60-46q2-8-1.5-14.5t-11-9Q22 126 15 130t-9 11q-12 40-1.5 80T44 290q5 5 13 5t13.5-5.5q5.5-5.5 5.5-13T70 263q-22-22-29.5-52t1.5-59z"/></svg>