<svg viewBox="0 0 300 368" xmlns="http://www.w3.org/2000/svg"><path d="M256 234h-6V84q0-21-14.5-35.5T200 34H50q-21 0-35.5 14.5T0 84v6q0 18 13 31t31 13h19v150q0 21 14.5 35.5T113 334h137q21 0 35.5-14.5T300 284v-6q0-18-13-31t-31-13zM44 96q-3 0-4.5-1.5T38 90v-6q0-5 3.5-9t8.5-3.5q5 .5 8.5 4T62 84v12H44zm81 182v6q0 5-3.5 8.5t-9 3.5q-5.5 0-9-3.5T100 284v-75h31q8 0 13.5-5.5T150 190q0-8-5.5-13.5T131 171h-31v-37h19q8 0 13-5.5t5.5-13.5q.5-8-5-13T119 97h-19V84q0-6-2-13h102q5 0 8.5 4t3.5 9v50h-18q-8 0-13.5 5.5T175 153q0 8 5.5 13t13.5 5h19v63h-44q-18 0-31 13t-13 31zm138 6q-1 5-4.5 8.5T250 296h-89q2-6 2-12v-6q0-3 1.5-4.5t4.5-1.5h87q3 0 5 1.5t2 4.5v6z"/></svg>