<svg viewBox="0 0 300 368" xmlns="http://www.w3.org/2000/svg"><path d="M275 178q0-19-9.5-35.5t-26-25.5q-16.5-9-35.5-8t-35 11q1-21 9-33 5-9 14-13 5-2 8-3 6 0 9.5 2.5T213 78q0 8 5 13.5t13 5.5q8 0 13.5-5.5T250 78q-1-20-16-32.5T200 34q-14 1-26.5 7T153 57q-10-14-26-21-7-3-14.5-1T102 44q-3 7-1 14.5t9 11.5q10 4 15 15 6 12 6 35-18-11-39-11t-38.5 12.5Q36 134 29 153.5T27 194q5 21 20.5 35T84 246q-6 21 1 42t25 33.5q18 12.5 40 12.5t40-12.5q18-12.5 25-33.5t1-42q25-4 42-23.5t17-44.5zm-212 0q0-13 9-22t22-9q13 0 22 9t9 22q0 13-9 22t-22 9q-13 0-22-9t-9-22zm87 118q-13 0-22-9t-9-22q0-13 9-22t22-9q13 0 22 9t9 22q0 13-9 22t-22 9zm56-87q-13 0-22-9t-9-22q0-13 9-22.5t22-9.5q13 0 22.5 9.5T238 178q0 13-9.5 22t-22.5 9z"/></svg>