<svg viewBox="0 0 300.0098 368" xmlns="http://www.w3.org/2000/svg"><path d="M146 334q-18 0-31-13l-42-43q-6-5-6-13t5.5-13.5q5.5-5.5 13.5-5t13 5.5l43 43q1 2 4 2t4-2l68-68q5-5 13-5t13.5 5.5q5.5 5.5 5.5 13t-5 13.5l-68 67q-13 13-31 13zM26 270q8-2 11.5-9t1.5-14q-3-12 2-23.5t16-17q11-5.5 14.5-18T69 165q-10-20-6-40.5T81.5 90Q96 76 116 73q13-2 26 1t23.5 11q10.5 8 17 19t7.5 24q1 6 5.5 10.5T206 144q26 3 42 23.5t14 45.5v1q0 8 5 13.5t12.5 6q7.5.5 13.5-4.5t7-13q2-24-7-46t-27-38q-18-16-41-23-9-33-37-54-17-12-37-17t-40-2q-32 4-55 26.5t-29 54Q21 148 34 177q-20 13-28.5 34.5T2 256l1 2q2 6 6.5 9.5T21 271q2 0 5-1z"/></svg>