<svg viewBox="0 0 300 368" xmlns="http://www.w3.org/2000/svg"><path d="M229 126l10-11q-16-20-39.5-32T150 71q-30 0-56 15.5t-41 41Q38 153 37.5 184t15 56.5q15.5 25.5 41 41T150 297q27-1 51.5-13.5t40-34.5q15.5-22 19.5-49 1-8 7.5-12.5t14-3.5q7.5 1 12.5 7.5t3 13.5q-5 37-26 66t-53 46q-32 17-69 17-41 0-75.5-20T20 259.5Q0 225 0 184t20-75.5Q40 74 74.5 54T150 34q34 0 64.5 14.5T266 89l14-14q5-6 12.5-3t7.5 11v48q0 7-4.5 11t-10.5 4h-48q-8 0-11-7t3-13zm-79 158q8 0 13.5-5.5T169 265v-8q13-4 22-16t9-26.5q0-14.5-7.5-25.5T172 173l-30-12q-4-2-4-6t2-6.5q2-2.5 5-2.5h15q3 0 5 4 4 6 11.5 8t14-1.5q6.5-3.5 8.5-11t-2-15q-4-7.5-11.5-13T169 110v-7q0-8-5.5-13.5T150 84q-8 0-13.5 5.5T131 103v8q-13 4-22 16t-9 26.5q0 14.5 7.5 25.5t20.5 16l30 12q5 2 5 6t-2.5 6q-2.5 2-5.5 2h-15q-3 0-5-3-4-6-11.5-8t-14 1.5q-6.5 3.5-8.5 11t2 15q4 7.5 11.5 13T131 258v7q0 8 5.5 13.5T150 284z"/></svg>