<svg viewBox="0 0 300 368" xmlns="http://www.w3.org/2000/svg"><path d="M250 85q-31-28-72-36t-80 6.5q-39 14.5-65 47T1 176q-4 35 7.5 68.5T45 303q10 9 22 14t25 5h116q26 0 45-18 23-21 35-50t11.5-60q-.5-31-13.5-59.5T250 85zm-23 192q-8 7-19 7H92q-12 0-21-8-19-19-27.5-44T38 181q6-38 33.5-65T137 84.5Q175 80 207 99q29 18 44 50t10 65q-5 37-34 63zm11-83q0 16-6 31.5T214 253q-5 6-12.5 6t-13.5-5q-6-5-6-13t5-13q9-11 12-24.5t-2.5-26.5q-5.5-13-16.5-21t-25-9q-8-1-13-7t-4.5-13.5q.5-7.5 6.5-12.5t14-5q22 2 40 13.5t28.5 30.5q10.5 19 10.5 41h1zm-125 34q4 3 5 8t-.5 10q-1.5 5-5.5 8t-8.5 4.5q-4.5 1.5-9.5 0t-8-5.5q-9-9-16-23-8-16-7-28 1-14 16-18 8-1 14 4t7 12q2 16 13 28zm62-32q0 11-7 18.5t-17.5 8q-10.5.5-18-7T125 198l-32-32q-6-5-6-13t5.5-13.5Q98 134 106 134t14 5l32 32q9 1 16 8.5t7 16.5z"/></svg>