<svg viewBox="0 0 300 368" xmlns="http://www.w3.org/2000/svg"><path d="M69 334h162q19 0 34.5-9.5t25-25Q300 284 300 265V103q0-19-9.5-34.5t-25-25Q250 34 231 34H69q-19 0-34.5 9.5t-25 25Q0 84 0 103v162q0 19 9.5 34.5t25 25Q50 334 69 334zM38 103q0-13 9-22t22-9h162q13-1 22 8.5t9 22.5v162q1 13-8.5 22t-22.5 9H69q-13 0-22.5-9T37 265V103h1zm112-7q-23 0-39.5 16.5t-16.5 40q0 23.5 16.5 40T150 209q9 0 17-3-3 17-13 22.5t-29 5.5q-8 0-13.5 5.5T106 253q0 8 5.5 13t13.5 5q41 0 61-21t20-65v-32q0-24-16.5-40.5T150 96zm0 75q-8 0-13.5-5t-5.5-13q0-8 5.5-13.5T150 134q8 0 13.5 5.5T169 153q0 8-5.5 13t-13.5 5z"/></svg>