<svg viewBox="0 0 300 368" xmlns="http://www.w3.org/2000/svg"><path d="M150 34q-41 0-75.5 20T20 108.5Q0 143 0 184t20 75.5Q40 294 74.5 314t75.5 20q41 0 75.5-20t54.5-54.5q20-34.5 20-75.5t-20-75.5Q260 74 225.5 54T150 34zm0 262q-31 0-56.5-15T53 240.5Q38 215 37.5 184t15-56.5q15.5-25.5 41-41T150 71q31 0 56.5 15.5t41 41q15.5 25.5 15 56.5T247 240.5q-15 25.5-40.5 41T150 297v-1zm50-150q0-20-14.5-35T150 96q-21 0-35.5 15T100 147q0 16 10 29-16 16-16 39.5t16.5 39.5q16.5 16 39.5 16t39.5-16q16.5-16 16.5-39.5T190 176q10-13 10-29v-1zm-50-18q8 0 13.5 5.5t5.5 13q0 7.5-5.5 13T150 165q-8 0-13.5-5.5t-5.5-13q0-7.5 5.5-13T150 128zm0 106q-8 0-13.5-5.5T131 215q0-8 5.5-13t13.5-5.5q8-.5 13.5 5T169 215q0 8-5.5 13.5T150 234z"/></svg>