<svg viewBox="0 0 300 368" xmlns="http://www.w3.org/2000/svg"><path d="M32 290q-9 0-14-6-11-12-16-29-5-22 3.5-44T34 177q-13-29-7-60.5t29-54Q79 40 111 35q25-4 49 4.5T201 66q17 18 24 43 19 5 35 17.5t26 29.5q4 6 2 13.5t-8.5 11.5q-6.5 4-14 2t-11.5-8q-8-13-20.5-21.5T206 143q-6 0-10.5-4.5T190 127q-1-12-7.5-23.5t-17-19Q155 77 142 73.5T116 72q-20 3-34.5 17T63 124q-4 21 6 41 6 11 2.5 23.5t-14.5 18Q46 212 41 223t-2 23q2 7 6 12t5 10.5q1 5.5-1 10.5t-7 8q-5 3-10 3zm204 44q7 0 13-2 22-4 36.5-21.5t14.5-40q0-22.5-13.5-40.5T251 207l-4-1q-10-24-33.5-37t-50-9q-26.5 4-44.5 25t-19 49q0 6 1 12-13 6-20 19t-5.5 27.5Q77 307 86.5 318t23.5 14q6 2 12 2h114zm-23-114q3 10 11 16t17.5 7.5q9.5 1.5 15.5 9t6 17q0 9.5-6 17t-16 9.5l-6 1H123q-7-1-10-7-1-4 1.5-7.5t5.5-4.5q11-5 16-14.5t2-20.5q-1-4 0-9 0-14 9-24.5t23-12.5l6-1q12 0 22 6.5t15 17.5z"/></svg>