<svg viewBox="0 0 300.0106 368" xmlns="http://www.w3.org/2000/svg"><path d="M300.01 148q-5-27-20-52t-39-43q-11-8-24.5-5.5T196.01 62l-26 41q-4 7-2 14.5t8 11.5q10 6 16.5 16t7.5 22q0 7 5.5 12t12.5 5h51q14 0 23.5-11t7.5-25zm-66-2q-7-21-23-37l13-22q14 12 23.5 27.5t13.5 32.5h-27v-1zm-33 75q-4-7-11.5-9t-13.5 2q-12 7-26 7t-26-7q-6-4-13.5-2t-11.5 9l-26 42q-7 12-3 25.5t17 19.5q30 14 63 14t63-14q13-6 17-19.5t-3-25.5l-26-42zm-92 55l13-22q28 10 56 0l13 22q-20 8-41 8t-41-8zm-9-109q1-12 7.5-22t16.5-16q6-4 8-11.5t-2-14.5l-26-41q-7-12-21-14.5t-25 5.5q-23 18-38 42.5T.01 148q-2 14 7.5 25t23.5 11h51q7 0 12.5-5t5.5-12zm-61-21q8-34 37-59l13 22q-16 16-23 37h-27zm111 0q10 0 17.5 7.5t7.5 18q0 10.5-7.5 17.5t-17.5 7q-10 0-17.5-7t-7.5-17.5q0-10.5 7.5-18t17.5-7.5z"/></svg>