<svg viewBox="0 0 300 368" xmlns="http://www.w3.org/2000/svg"><path d="M75 65q0-13 9-22t22-9q13 0 22.5 9t9.5 22q0 13-9.5 22.5t-22.5 9Q93 96 84 87t-9-22zm225 88q0 21-14 37t-35 19L123 315q-22 19-52 19H56q-23 0-39.5-16.5T0 278.5Q0 256 14 240t35-18l14-11v-58q0-18 12.5-31t30.5-13q15 0 26.5 8.5T148 139l29-24q22-19 52-19h15q23 0 39.5 16.5T300 153zm-37 0q0-8-5.5-13.5T244 134h-15q-16 0-28 10L68 255q-5 4-12.5 4T43 264.5q-5 5.5-5 13t5 13.5q5 6 13 6h15q16 0 28-11l133-110q5-4 12.5-4t13-5.5Q263 161 263 153z"/></svg>