<svg viewBox="0 0 300 368" xmlns="http://www.w3.org/2000/svg"><path d="M270 89q-5-24-23.5-39.5T204 34H96q-25 0-43.5 15.5T30 89L1 256q-3 15 1 29t13.5 25.5Q25 322 38.5 328t27.5 6h168q14 0 27.5-6t23-17.5Q294 299 298 285t1-29L270 89zm-14 197q-9 11-22 11H66q-13 0-21.5-10.5T38 263L67 95q2-10 10-17t19-7h108q11 0 19 7t10 17l29 167q2 14-6 24zm-87-183v12q0 8-5.5 13.5T150 134q-8 0-13.5-5.5T131 115v-12q0-8 5.5-13.5T150 84q8 0 13.5 5.5T169 103zm0 75v12q0 8-5.5 13.5T150 209q-8 0-13.5-5.5T131 190v-12q0-8 5.5-13.5T150 159q8 0 13.5 5.5T169 178zm0 75v12q0 8-5.5 13.5T150 284q-8 0-13.5-5.5T131 265v-12q0-8 5.5-13.5T150 234q8 0 13.5 5.5T169 253z"/></svg>