<svg viewBox="0 0 300.007 368" xmlns="http://www.w3.org/2000/svg"><path d="M293.007 63q-7-5-14.5-4t-11.5 6.5q-4 5.5-13 12.5-16 13-39 21-6-26-16-43-12-22-24-22-6 0-12 3-3 2-8 6l-5 4q-1-1-5-4-5-4-8-6-6-3-12-3-12 0-24 22-10 17-16 43-22-8-38-21-9-6-13.5-12t-12-7q-7.5-1-14 3.5T.007 75q-1 8 4 14 6 8 18 17 23 19 53 29v11q0 20 10 37.5t27.5 27.5q17.5 10 37.5 10t37.5-10q17.5-10 27.5-27.5t10-37.5v-11q30-10 53-29 12-9 17.5-16t4.5-15q-1-8-8-12h1zm-162 16q9 5 19 5t19-5q7 14 11 28-15 2-30 2t-29-2q3-13 10-28zm19 104q-16 0-26.5-11t-10.5-26v-2q18 2 37 2.5t38-2.5v2q0 15-11 26t-27 11zm99 128q2 7-2 14t-11 8l-5 1q-6 0-11-4t-7-10q-5-22-22.5-35t-40.5-13q-23 0-40.5 13t-22.5 35q-2 7-8.5 11t-14 2.5q-7.5-1.5-11.5-8.5t-2-14q8-34 35.5-55.5t63.5-21.5q36 0 63.5 21.5t36.5 55.5h-1z"/></svg>