<svg viewBox="0 0 300 368" xmlns="http://www.w3.org/2000/svg"><path d="M200 171v19q0 8-5.5 13.5T181 209q-8 0-13-5.5t-6-13.5v-19h-18q-8 0-13.5-5t-5.5-13q0-8 5.5-13.5T144 134h19v-19q0-8 5-13.5t13-5.5q8 0 13.5 5.5T200 115v19h19q8 0 13.5 5.5T238 153q0 8-5.5 13.5T219 172h-19v-1zm100-68v102q0 18-13 31l-23 23q-12 13-31 12H131q-18 1-34-8.5T72 237q-9-16-9-34V103q-1-19 8.5-34.5t25.5-25q16-9.5 34-9.5h100q19 0 34.5 9.5t25 25Q300 84 300 103zM131 234h94v-13q0-10 7.5-17.5T250 196h13v-93q0-13-9.5-22T231 72H131q-13-1-22 8.5t-9 22.5v100q0 13 9 22t22 9zm82 62H69q-13 0-22.5-9T37 265V115q1-8-4.5-13.5t-13.5-5Q11 97 5.5 102T0 115v150q0 19 9.5 34.5t25 25Q50 334 69 334h144q7 0 12.5-5.5T231 315q0-8-5.5-13.5T213 296z"/></svg>