<svg viewBox="0 0 300 368" xmlns="http://www.w3.org/2000/svg"><path d="M281 109H19q-8 0-13.5-5.5T0 90q0-8 5.5-13.5T19 71h262q8 0 13.5 5.5T300 90q0 8-5.5 13.5T281 109zm0 62H119q-8 0-13.5-5t-5.5-13q0-8 5.5-13.5T119 134h162q8 0 13.5 5.5T300 153q0 8-5.5 13.5T281 172v-1zm0 125H19q-8 0-13.5-5T0 278q0-8 5.5-13.5T19 259h262q8 0 13.5 5.5T300 278q0 8-5.5 13t-13.5 5zm0-62H119q-8 0-13.5-5.5T100 215q0-8 5.5-13t13.5-6h162q8 0 13.5 5.5T300 215q0 8-5.5 13.5T281 234zm-260-3l38-37q3-4 3-10t-3-10l-38-37q-2-2-6-3t-7.5.5Q4 136 2 139t-2 7v76q0 4 2 7t5.5 4.5q3.5 1.5 7.5.5t6-3z"/></svg>