<svg viewBox="0 0 300 368" xmlns="http://www.w3.org/2000/svg"><path d="M38 165q0-18 12.5-31T81 121q18 0 31 13t13 31q0 18-13 31t-31 13q-18 0-30.5-13T38 165zm43 69q-22 0-40.5 11T11 274.5Q0 293 0 315q0 8 5.5 13.5T19 334q8 0 13.5-5.5T38 315q0-18 12.5-31T81 271q18 0 31 13t13 31q0 8 5.5 13.5T144 334q8 0 13.5-5.5T163 315q0-22-11-40.5T122 245q-19-11-41-11zM231 34H125q-19 0-35 9T65 68q-4 7-2 14.5T72 94q7 4 14.5 2T98 87q4-7 11-11.5t16-4.5h106q13 0 22.5 9.5T263 103v87q0 13-9.5 22t-22.5 9h-50q-7 0-12.5 5.5T163 240q0 8 5.5 13.5T181 259h50q19 0 35-9.5t25-25q9-15.5 9-34.5v-87q0-19-9-34.5t-25-25Q250 34 231 34zm-75 157q5 5 13 5t13-5l27-27 10 11q5 5 12 2t7-10v-47q0-5-3.5-8t-7.5-3h-48q-7 0-9.5 6.5T172 127l10 11-26 26q-6 6-6 14t6 13z"/></svg>