<svg viewBox="0 0 300 368" xmlns="http://www.w3.org/2000/svg"><path d="M288 41q-11-10-26-6-17 5-30.5 16.5T211 80q-61-16-122 0-7-17-20.5-28.5T38 35q-15-4-26.5 5.5T0 65v93q0 28 10.5 53.5T40 256l56 56q15 14 34.5 19t39 0q19.5-5 34.5-19l56-56q19-19 29.5-44.5T300 158V65q0-15-12-24zM61 109q2 7 9 10.5t15 .5q31-10 65-10t65 10q8 3 15-.5t9-10.5q6-21 24-34v49q-36 5-65.5 26T150 202q-18-31-47.5-52T38 124V75q17 13 23 34zm6 121q-14-14-21.5-31.5T38 162q13 3 25 9 1 11 8 20t17.5 14q10.5 5 21.5 4 19 29 21 64-6 4-11 10l-53-53zm166 0l-53 53q-5-6-11-10 2-35 21-64 11 1 21.5-4t17.5-14q7-9 8-20 12-6 25-9 0 19-7.5 36.5T233 230z"/></svg>