<svg viewBox="0 0 300 368" xmlns="http://www.w3.org/2000/svg"><path d="M299 158l-13 50q-6 23-24.5 37T220 259H91q-17 0-29.5-11T47 221L28 77q0-2-2-4t-4-2h-3q-8 0-13.5-5T0 53q0-8 5.5-13.5T19 34h3q16 0 28.5 11T65 72l4 24h75q8 0 13.5 5.5T163 115q0 8-5.5 13.5T144 134H74l11 82q0 2 1.5 3.5T91 221h129q10 1 18.5-5.5T250 198l13-50q2-8 9-11.5t14.5-1.5q7.5 2 11 8.5T299 158zM88 284q-11 0-18 7.5T63 309q0 10 7 17.5t17.5 7.5q10.5 0 18-7.5T113 309q0-10-7.5-17.5T88 284zm125 0q-11 0-18 7.5t-7 17.5q0 10 7 17.5t17.5 7.5q10.5 0 18-7.5T238 309q0-10-7.5-17.5T213 284zm-7-175h75q8 0 13.5-5.5T300 90q0-8-5.5-13.5T281 71h-75q-8 0-13 5.5T188 90q0 8 5 13.5t13 5.5z"/></svg>