<svg viewBox="0 0 300 368" xmlns="http://www.w3.org/2000/svg"><path d="M216 165q0-23-16.5-39.5T159 109h-25q-18 0-30.5 13T91 153v87q0 8 5.5 13.5t13 5.5q7.5 0 13-5.5T128 240v-19h29l14 28q2 4 6.5 7t9.5 3q5 0 9-2 7-3 9.5-10.5T204 232l-11-22q11-8 17-19.5t6-25.5zm-88-12q0-3 2-5t4-2h25q8 0 13.5 5.5T178 165q0 8-5.5 13.5T159 184h-31v-31zm22-119q-41 0-75.5 20T20 108.5Q0 143 0 184t20 75.5Q40 294 74.5 314t75.5 20q41 0 75.5-20t54.5-54.5q20-34.5 20-75.5t-20-75.5Q260 74 225.5 54T150 34zm0 262q-31 0-56.5-15t-41-40.5Q37 215 37.5 184T53 127.5q15-25.5 40.5-41t56.5-15q31 .5 56.5 15.5t41 40.5q15.5 25.5 15 56.5T247 240.5q-15 25.5-40.5 41T150 297v-1z"/></svg>