<svg viewBox="0 0 300 368" xmlns="http://www.w3.org/2000/svg"><path d="M132 234h-19q-6 0-9.5-3.5T100 221v-19q0-15 11-26l82-82 47 47-82 82q-11 11-26 11zM290 91q10-10 10-23.5T290.5 44Q281 34 267 34t-24 10l-23 23 47 47 23-23zm-9 205q-1 0-3-2l-6-8q-8-12-15-18-11-9-26-9t-26 9q-6 6-14 18l-1 2q-5 7-7 8.5t-3.5 0Q178 295 173 288l-1-2q-8-12-15-18-11-9-25-9t-25 8q-6 4-14 15-7 8-11.5 11T69 296q-13 0-22-9t-9-22q0-10 6.5-18.5T61 235q7-2 11-8.5t2-14q-2-7.5-8.5-11.5T52 199q-23 6-37.5 24.5T0 265q0 19 9 34.5t25 25q16 9.5 35 9.5t34-10q8-6 18-19 8-9 10-9t4 3l6 8q8 12 14 18 11 9 26 9t26-9q7-6 15-18l1-2q4-7 6-8.5t4 0q2 1.5 6 8.5l2 2q8 12 14 18 11 9 26 9 8 0 13.5-5.5T300 315q0-8-5.5-13.5T281 296z"/></svg>