<svg viewBox="0 0 300 368" xmlns="http://www.w3.org/2000/svg"><path d="M250 153h-12q0-15-9.5-27T204 110l2-1q4-7 4-15 0-10-7-17l-35-36q-8-7-18-7t-18 7L97 77q-7 6-7.5 15.5T95 109H67q-4-13-1-26.5T79 59l25-25H50q-10 0-17.5 7.5T25 59v54q-11 6-18 16.5T0 153v112q0 19 9.5 34.5t25 25Q50 334 69 334h100q21 0 38.5-12t25.5-32h17q21 0 35.5-14.5T300 240v-37q0-21-14.5-35.5T250 153zm-81 143H69q-13 0-22-9t-9-22V153q0-3 1.5-5t4.5-2h150q2 0 4 2t2 5v112q0 13-9 22t-22 9zm94-56q-1 5-4.5 9t-8.5 4h-12v-63h12q5 0 9 4t4 9v37z"/></svg>