<svg viewBox="0 0 300 368" xmlns="http://www.w3.org/2000/svg"><path d="M278 62q-15-12-32-19-22-9-46-9H100q-24 0-46 9-17 7-32 19-11 8-16.5 19.5T0 106v134q0 24 16.5 40T56 296h10q6 17 20.5 27.5T119 334h62q18 0 32.5-10.5T234 296h10q23 0 39.5-16t16.5-40V106q0-13-6-24.5T278 62zm-15 178q0 8-5.5 13.5T244 259h-6V140q0-8-5.5-13t-13.5-5.5q-8-.5-13.5 5T200 140v138q0 8-5.5 13.5T181 297h-62q-8-1-13.5-6t-5.5-13V140q0-8-5.5-13T81 121.5q-8-.5-13.5 5T62 140v119h-6q-8 0-13.5-5.5T37 240V106q1-9 8-15 26-19 55-19h3q8 11 20.5 17.5t26.5 7q14 .5 26.5-6.5T197 71h3q29 0 55 20 8 6 8 15v134z"/></svg>