<svg viewBox="0 0 300 368" xmlns="http://www.w3.org/2000/svg"><path d="M279 132l-15-15V84q0-21-14.5-35.5T214 34H89q-21 0-35.5 14.5T39 84v31l-18 17q-10 10-15.5 23T0 181v84q0 19 9.5 34.5t25 25Q50 334 69 334h162q19 0 34.5-9.5t25-25Q300 284 300 265v-84q0-13-5.5-26T279 132zM108 84h87q12 0 16.5 9.5t0 18.5q-4.5 9-16.5 9h-87q-12 0-16.5-9t0-18.5Q96 84 108 84zm0 62h62q12 1 16.5 10t0 18.5Q182 184 170 184h-62q-12 0-16.5-9.5t0-18.5q4.5-9 16.5-9v-1zm123 150H69q-13 0-22-9t-9-22v-79l65 65q12 13 30.5 18t36.5 0q18-5 30-18l63-64v78q0 13-9.5 22t-22.5 9z"/></svg>