<svg viewBox="0 0 300 368" xmlns="http://www.w3.org/2000/svg"><path d="M281 271q-7 0-12.5 5.5T262 290q-5 7-14 6-5 1-9-2 28-32 35-74 3-14-4-27t-20-19v-34q0-23-16.5-39.5T194 84h-6V71q0-15-11-26t-27-11q-16 0-27 11t-10 27v12h-7q-23 0-39.5 16.5T50 140v33q-13 6-20 18.5T26 219q8 42 35 75-4 3-9 2-9 1-14-6-1-8-6.5-13.5t-13-5.5q-7.5 0-13 5.5T0 290q0 18 15.5 31T52 334q18 0 32-10 15 10 33 10t33-10q15 10 33 10t33-10q15 10 32 10 21 0 36.5-13t15.5-31q0-8-5.5-13.5T281 271zM106 121h88q8 0 13.5 5.5T213 140v23l-50-14q-12-5-25-1l-50 14v-22q0-8 5-13.5t13-5.5zm11 175q-8 1-14-6-4-10-11-18-23-26-29-60-1-3 2-5l66-18v102q-5 6-14 5zm66 0q-8 1-14-5V189l65 19q4 2 3 6-6 33-29 58-7 8-11 18-6 7-14 7v-1z"/></svg>