<svg viewBox="0 0 300.0014 368" xmlns="http://www.w3.org/2000/svg"><path d="M300 273q-1-5-4-9l-44-44q1-9-1-19l1-1q11-7 17-18t6-23.5q0-12.5-6-23.5t-17-18q-1-1-1-2 3-12-.5-24T238 70q-9-9-21-12.5t-24-.5q-1 0-2-1-7-11-18-17t-23.5-6Q137 33 126 39t-17 17q-1 1-2 1-12-3-24.5.5T61.5 70q-8.5 9-12 21T48 115q1 1-1 2-10 7-16 18t-6 23.5q0 12.5 6 23.5t16 18q2 1 1 1-2 10 0 19L4 264q-3 4-4 9.5T3 284q4 5 11 6l27 3 3 27q1 6 4 9t7 4.5q4 1.5 8 .5t7-4l54-54 2 2q11 6 23.5 6t23.5-6l3-2 54 54q3 3 7 4t8-.5q4-1.5 7-4.5t4-9l3-27 27-3q7-1 11-6t3-11zm-145-28q-5 3-10 0-3-2-5-4-5-9-14-13.5t-19-4.5q-4 0-7.5.5T93 223q-6-1-8-7-1-3 0-6 3-12-2-23.5T68 168q-3-1-4.5-4t-1.5-6q0-3 1.5-5.5T68 149q10-7 15-18.5t2-23.5q-1-3 0-6 2-6 8-7 3-1 6-1 12 3 23-1.5T140 76q2-2 5-4 5-3 10 0 3 2 5 4 6 11 17.5 15.5T201 93q3 0 6 1 6 1 7 7 1 3 1 6-3 12 2 23.5t15 18.5q2 1 3.5 3.5t1.5 6q0 3.5-1.5 6T232 168q-10 7-15 18.5t-2 23.5v6q-2 6-8 7-3 1-6 1-12-3-23.5 1.5T160 241q-2 2-5 4zm8-118v69q0 6-4 9.5t-9 3.5q-5 0-8.5-3.5T138 196v-52l-4 3q-4 4-9 4t-8.5-3.5q-3.5-3.5-3.5-9t3-8.5l16-16q4-4 9-5t10 1.5q5 2.5 8.5 7t3.5 9.5z"/></svg>