<svg viewBox="0 0 300 368" xmlns="http://www.w3.org/2000/svg"><path d="M201 133q-6-5-13.5-5t-13.5 5l-24 24-24-24q-6-5-13.5-5t-13 5.5q-5.5 5.5-5.5 13t5 13.5l24 24-24 24q-5 6-5 13.5t5.5 13q5.5 5.5 13 5.5t13.5-5l24-24 24 24q6 5 13.5 5t13-5.5q5.5-5.5 5.5-13t-5-13.5l-24-24 24-24q5-6 5-13.5t-5-13.5zm-51-99q-41 0-75.5 20T20 108.5Q0 143 0 184t20 75.5Q40 294 74.5 314t75.5 20q41 0 75.5-20t54.5-54.5q20-34.5 20-75.5t-20-75.5Q260 74 225.5 54T150 34zm0 262q-31 0-56.5-15t-41-40.5Q37 215 37.5 184T53 127.5q15-25.5 40.5-41T150 71q31 0 56.5 15.5t41 41q15.5 25.5 15 56.5T247 240.5Q232 266 206.5 281T150 297v-1z"/></svg>