<svg viewBox="0 0 300 368" xmlns="http://www.w3.org/2000/svg"><path d="M175 240v13q0 8-5.5 13t-13.5 5H81q-8 0-13-5t-5-13v-13q0-8 5-13.5t13-5.5h75q8 1 13.5 6t5.5 13zm-69-81H81q-8 0-13.5 5.5t-5 13.5q.5 8 5.5 13t13 5h25q8 0 13.5-5t5.5-13q0-8-5.5-13.5T106 159zm0-63H81q-8 0-13.5 5.5t-5 13.5q.5 8 5.5 13.5t13 5.5h25q8 0 13.5-5.5T125 115q0-8-5.5-13T106 97v-1zm50 200H69q-13 0-22-9t-9-22V103q0-13 9-22.5T69 71h69v50q0 11 7 18t18 7h71q7-1 11.5-7.5T249 125q-4-22-19-38l-33-33q-10-9-22.5-14.5T148 34H69q-19 0-34.5 9.5t-25 25Q0 84 0 103v162q0 19 9.5 34.5t25 25Q50 334 69 334h87q8 0 13.5-5.5T175 315q0-8-5.5-13.5T156 296zm144-19q0-14-7.5-25.5T272 235l-30-12q-5-2-4.5-6t2.5-6q2-2 5-2h15q3 0 5 3 4 7 11.5 9t14-2q6.5-4 8.5-11.5t-2-15q-4-7.5-12-13t-17-7.5q-2-6-7-9.5t-11.5-3.5q-6.5 0-11.5 4t-6 10q-14 5-23 16.5t-9 26q0 14.5 7.5 26T228 258l30 12q5 2 5 6t-2.5 6q-2.5 2-5.5 2h-15q-3 0-5-3-4-7-11.5-9t-14 2q-6.5 4-8.5 11.5t2 15q4 7.5 12 13t17 7.5q2 6 7 9.5t11.5 3.5q6.5 0 11.5-4t6-10q14-5 23-16.5t9-26.5z"/></svg>