<svg viewBox="0 0 300 368" xmlns="http://www.w3.org/2000/svg"><path d="M25 257q-5 0-9.5-2.5T8 247q-11-22-6.5-46T24 160q2-1 2-4-4-19-1-37 6-32 28-54.5T107 36q34-7 65.5 9T219 93q1 2 4 3 23 5 41.5 20t28 37.5q9.5 22.5 7 46.5T283 244q-2 5-6.5 7t-10 2q-5.5 0-9.5-3t-6.5-7.5q-2.5-4.5-2-9.5t3.5-9q8-12 10-27t-3.5-29q-5.5-14-17-23.5T215 132q-10-2-18-8t-12-15q-9-20-28-30t-40-7q-21 3-36 17.5T62 125q-2 12 0 23.5t-1.5 22q-3.5 10.5-12 18t-10.5 19Q36 219 42 229q2 5 2 10t-2.5 9q-2.5 4-7 6.5T25 257zm138 58v-50q0-8-5.5-13.5T144 246q-8 0-13.5 5.5T125 265v50q0 8 5.5 13.5T144 334q8 0 13-5.5t6-13.5zm-63-25v-50q0-8-5.5-13T81 222q-8 0-13.5 5T63 240v50q0 8 5 13.5t13 5.5q8 0 13.5-5.5T100 290zm125 0v-50q0-8-5.5-13t-13.5-5q-8 0-13.5 5t-5.5 13v50q1 8 6 13.5t13 5.5q8 0 13.5-5.5T225 290z"/></svg>