<svg viewBox="0 0 300 368" xmlns="http://www.w3.org/2000/svg"><path d="M125 178q0 8-5.5 13.5t-13.5 5q-8-.5-13-5.5t-5-13q0-8 5-13.5t13-5.5q8 0 13.5 5.5T125 178zm44 43q-8 1-13.5 6t-5.5 13q0 8 5.5 13.5T169 259q8 0 13.5-5.5T188 240q0-8-5.5-13t-13.5-6zm-63 0q-8 1-13 6t-5 13q0 8 5 13.5t13 5.5q8 0 13.5-5.5T125 240q0-8-5.5-13t-13.5-6zm169 32v-90q15-11 21-29.5t2-36.5q-6-23-24.5-37T232 46H68q-23 0-41.5 14T2 97q-4 18 2 36.5T25 163v90q0 18 9.5 34t25 25.5Q75 322 94 321h112q19 1 34.5-8.5t25-25.5q9.5-16 9.5-34zM232 84q10 0 18.5 6t11 15.5q2.5 9.5-2 18.5T247 137q-5 3-7.5 7.5T237 154v99q0 13-9 22t-22 9H94q-13 0-22-9t-9-22v-99q0-5-2.5-9.5T53 137q-8-4-12.5-13t-2-18.5Q41 96 49.5 90T68 84h164z"/></svg>