<svg viewBox="0 0 300 368" xmlns="http://www.w3.org/2000/svg"><path d="M248 89q-23-31-59-45t-75-8q-39 6-69 33.5T5 135q-9 31-2 63t27 58q8 10 8 20v14q0 18 12.5 31T81 334h88q16 0 28.5-11t14.5-27q23-4 39-20.5t19-39.5l1-15q14 0 21.5-9.5T300 191q0-14-21-53-18-33-31-49zm7 95q-7 0-12.5 4.5T236 200l-4 32q-1 11-10 19t-21 8h-7q-8 0-13.5 5.5T175 278v12q0 3-2 4.5t-4 1.5H81q-2 0-4-1.5t-2-4.5v-14q0-23-15-43-13-16-18-34-8-27-.5-54.5t29.5-47Q93 78 121 73q9-1 17-1 23 0 44.5 10.5T219 112q9 11 22 34t19 38h-5zm-42 19q0 8-5.5 13t-12.5 5q-7 0-12-3.5t-7-9.5l-14-8q-5 4-12 7v27q0 5-3.5 8.5t-9 3.5q-5.5 0-9-3.5T125 234v-27q-6-2-12-7l-14 8q-1 6-6 9.5T81 221q-7 0-12.5-5T63 203q0-8 5.5-13.5T81 184q4 0 8 1l12-7-1-7 1-7-24-13q-4-3-5.5-8t1-9.5Q75 129 80 128t10 1l23 14q5-5 12-7v-20q-6-5-6-13t5-13.5q5-5.5 13-5.5h1q8 0 13 5.5t5 13.5q0 8-6 13v20q7 2 12 7l23-14q5-2 10-1t7.5 5.5q2.5 4.5 1 9.5t-5.5 8l-23 13v14l12 7q3-1 7-1 8 0 13.5 5.5T213 203z"/></svg>