<svg viewBox="0 0 300 368" xmlns="http://www.w3.org/2000/svg"><path d="M281 146h-7q-1-10-7.5-19T250 113V96q0-16-8.5-30.5t-23-23Q204 34 187 34h-74q-17 0-31.5 8.5t-23 23Q50 80 50 97v16q-10 5-16.5 14T26 147h-7q-8-1-13.5 4.5T0 165q0 8 5.5 13.5T19 184h6v81q0 19 9.5 34.5t25 25Q75 334 94 334h112q19 0 34.5-9.5t25-25Q275 284 275 265v-81h6q8 0 13.5-5.5T300 165q0-8-5.5-13.5T281 146zM113 71h75q10 0 17.5 7.5T213 96v13H88V96q0-10 7-17.5t18-7.5zm125 194q0 13-9.5 22t-22.5 9H94q-13 0-22.5-9T62 265V153q1-3 2.5-5t4.5-2h22q-3 8-4 16 1 14 11 24t24 10h56q14 0 24.5-10t10.5-24q0-8-4-16h22q3 0 5 2t2 5v112zm-100-12q-1 8-6 13t-13 5q-8 0-13.5-5t-5.5-13q0-8 5.5-13.5T119 234q8 0 13.5 5.5T138 253zm62 0q0 8-5.5 13t-13.5 5q-8 0-13.5-5t-5-13q.5-8 5.5-13.5t13-5.5q8 0 13.5 5.5T200 253z"/></svg>