<svg viewBox="0 0 300 368" xmlns="http://www.w3.org/2000/svg"><path d="M295 302l-77-77 36-36q10-11 15.5-25t5.5-28q0-21-10.5-38.5t-28-28Q219 59 198 59h-96q-21 0-40 11L32 39q-5-5-13-5T5.5 39.5Q0 45 0 53t5 13l263 263q5 5 13 5t13.5-5.5Q300 323 300 315t-5-13zM102 96h96q17 1 28 12t11.5 27q.5 16-10.5 28l-36 36L91 98q6-2 11-2zm98 207v12q0 5-2.5 9.5t-7 7Q186 334 181 334t-10-3l-50-31q-8-6-9-16v-27l-68-68q-13-13-18-31-2-7 1.5-14t11-9q7.5-2 14 1.5t9 11.5q2.5 8 9.5 15l73 72q6 6 6 14v25l21 13q5-3 10-3 8 0 13.5 5.5T200 303z"/></svg>