<svg viewBox="0 0 300 368" xmlns="http://www.w3.org/2000/svg"><path d="M275 44q-14-10-31.5-10T212 44q-14 10-20.5 26t-2.5 33q3 13-5 20l-17 18-4-4q-15-15-37-15t-37 15q-14 14-16 33-19 1-33 15-15 16-15 37.5T40 260l4 3-38 39q-6 5-6 13t5.5 13.5Q11 334 19 334t13-5l39-39 3 4q16 15 37.5 15t37.5-15q13-14 15-33 19-2 33-16 16-15 16-37t-16-37l-4-4 18-17q10-11 14-25.5t0-30.5q-1-5 1-10.5t7-8.5q5-3 11-3.5t10 3.5q9 5 8 15 1 5-5.5 11t-6.5 14q0 8 5.5 13.5T269 134q8 0 13-6 18-17 18-38 0-14-6.5-26.5T275 44zM122 267q-4 4-10.5 4t-10.5-4l-34-34q-4-4-4-10.5t4-11q4-4.5 10.5-4.5t11.5 5l33 33q5 5 5 11.5t-5 10.5zm49-48q-5 4-11.5 4t-10.5-4l-34-34q-4-4-4-10.5t4.5-11Q120 159 126 159t11 4l34 34q4 5 4 11t-4 11z"/></svg>