<svg viewBox="0 0 300 368" xmlns="http://www.w3.org/2000/svg"><path d="M300 156v122q0 8-5.5 13t-13.5 5q-8 0-13-5t-5-13V156q0-20-14-33.5T216 109q-8 0-14 2l-33 77v90q0 8-5.5 13t-13.5 5q-8 0-13.5-5t-5.5-13v-3l-20 48q-2 5-7 8t-9.5 3q-4.5 0-8.5-2-7-3-10-10t1-14l54-128v-24q0-20-13.5-33.5t-33-13.5q-19.5 0-33 13.5T38 156v122q0 8-5.5 13T19 296q-8 0-13.5-5T0 278V90q0-8 5.5-13.5T18 71q7 0 12.5 4.5T37 86q21-15 47-15 20 0 37 8.5t29 23.5q9-12 23-20l16-38q3-7 10-10t14.5 0q7.5 3 10.5 10.5t0 14.5l-5 11q22 1 40.5 12.5T289 114q11 19 11 42z"/></svg>