<svg viewBox="0 0 300 368" xmlns="http://www.w3.org/2000/svg"><path d="M281 165h-39q-4-18-14-33l28-28q5-5 5-12.5t-5.5-13q-5.5-5.5-13-5.5T229 78l-27 28q-15-10-33-14V53q0-8-5.5-13.5T150 34q-8 0-13.5 5.5T131 53v39q-18 4-33 14L70 78q-5-5-12.5-5t-13 5.5Q39 84 39 91.5t5 12.5l28 28q-10 15-14 33H19q-8 0-13.5 5.5T0 184q0 8 5.5 13.5T19 203h39q4 18 14 33l-28 28q-5 5-5 12.5t5.5 13q5.5 5.5 13 5.5t12.5-5l28-28q15 10 33 14v39q0 8 5.5 13.5T150 334q8 0 13.5-5.5T169 315v-39q18-4 33-14l28 28q5 5 12.5 5t13-5.5q5.5-5.5 5.5-13t-5-12.5l-28-28q10-16 14-33h39q8-1 13-6.5t5-13q0-7.5-5-12.5t-13-6zm-131 75q-23 0-39.5-16.5T94 184q0-23 16.5-39.5T150 128q23 0 39.5 16.5T206 184q0 23-16.5 39.5T150 240z"/></svg>