<svg viewBox="0 0 300 368" xmlns="http://www.w3.org/2000/svg"><path d="M263 53q0-8 5-13.5t13-5.5q8 0 13.5 5.5T300 53q0 8-5.5 13T281 71q-8 0-13-5t-5-13zm-32 18q8 0 13.5-5t5.5-13q0-8-5.5-13.5T231 34q-8 0-13.5 5.5t-5 13.5q.5 8 5.5 13t13 5zm-50 0q8 0 13.5-5t5.5-13q0-8-5.5-13.5T181 34q-8 0-13.5 5.5t-5 13.5q.5 8 5.5 13t13 5zm-50 0q8 0 13.5-5t5.5-13q0-8-5.5-13.5T131 34q-8 0-13.5 5.5t-5 13.5q.5 8 5.5 13t13 5zm150 13q-8 0-13 5.5t-5 13.5q0 8 5 13.5t13 5.5q8 0 13.5-5.5T300 103q0-8-5.5-13.5T281 84zm-100 37h50q8 0 13.5-5t5.5-13q0-8-5.5-13.5T231 84h-50q-8 0-13 5.5t-5 13.5q0 8 5 13.5t13 5.5v-1zm94 117q12 13 12.5 30.5T276 299l-12 13q-11 10-25 16t-30 6q-32 0-70-20-36-19-68-51t-51-68Q0 157 0 125q0-16 6-30t16-25l13-12q13-12 30.5-11.5T95 59l26 28q12 12 12 29.5T120 146l-4 5q22 46 67 67l5-4q12-13 29.5-13t30.5 13l27 24zm-26 27l-27-24q-2-2-4-2t-4 1l-13 14q-4 3-9.5 4.5T181 258q-74-29-105-105-2-5-.5-10.5T80 133l14-13q1-2 1-4t-1-3L68 85q-1-1-3-1t-4 1L49 97q-11 11-11 28 0 27 17 59 16 29 43.5 55t57 42q29.5 16 53.5 16 17-1 28-12l12-12q1-2 1-4t-1-4z"/></svg>