<svg viewBox="0 0 300 368" xmlns="http://www.w3.org/2000/svg"><path d="M283 221h-20v69q-1 12-10 16.5t-18.5 0Q225 302 225 290v-69h-21q-5 0-8.5-3.5T192 209q0-5 3-9l40-39q4-4 9-4t9 4l39 39q4 4 4 9t-3.5 8.5Q289 221 283 222v-1zm-83 94q0 8-5.5 13.5T181 334H69q-22 0-38.5-15T12 282V103q1-19 10-35t25-25q16-9 34-9h138q18 0 34 9.5t25.5 25Q288 84 288 103v12q-1 12-10 16.5t-18.5 0Q250 127 250 115v-12q0-13-9-22.5T219 71h-94v150h31q12 1 16.5 10t0 18.5Q168 259 156 259H69q-12 0-16.5 9.5t0 18.5q4.5 9 16.5 9h112q8 0 13.5 5.5T200 315zM50 225q10-4 19-4h19V71h-7q-13 0-22 9.5T50 103v122z"/></svg>