<svg viewBox="0 0 300 368" xmlns="http://www.w3.org/2000/svg"><path d="M179 246q23 0 45-9t40-27q21-22 30-49.5t4-54.5q-5-27-24-46t-46-24q-27-5-54.5 4T124 70q-19 20-28.5 44t-8 48q1.5 24 14.5 44l-41 41q-8-1-15 1t-12 8L9 281q-9 9-9 22t9 22q9 9 22 9t22-9l25-25q6-5 8-12t1-15l41-41q23 14 51 14zM150 97q13-12 28-19t30-7q24 0 39 16 12 11 14.5 28.5T258 151q-6 18-21 32.5t-33 21q-18 6.5-35 4T140 194q-12-12-14.5-29t4-35q6.5-18 20.5-33zm143 222q3 5-.5 10t-9.5 5h-53q-6 0-9.5-5t-.5-10l17-29v-12q0-8 5.5-13.5T256 259q8 0 13.5 5.5T275 278v12l18 29z"/></svg>