<svg viewBox="0 0 300 368" xmlns="http://www.w3.org/2000/svg"><path d="M150 334q-21 0-35.5-14.5T100 284v-50H50q-21 0-35.5-14.5T0 184q0-21 14.5-35.5T50 134h50V84q0-21 14.5-35.5T150 34q21 0 35.5 14.5T200 84v50h50q21 0 35.5 14.5T300 184q0 21-14.5 35.5T250 234h-50v50q0 21-14.5 35.5T150 334zM50 171q-5 0-8.5 4t-3.5 9q0 5 3.5 9t8.5 4h69q8-1 13 4.5t6 13.5v69q0 5 3.5 8.5t8.5 3.5q5 0 9-3.5t4-8.5v-69q0-8 5-13t13-6h69q5 1 9-3t4-9q0-5-4-9t-9-4h-69q-8 0-13.5-5t-5.5-13V84q1-5-3-9t-9-4q-5 0-9 4t-4 9v69q1 8-4.5 13.5T119 172l-69-1z"/></svg>