<svg viewBox="0 0 300 368" xmlns="http://www.w3.org/2000/svg"><path d="M100 234q-10 0-17.5-7.5T75 209q0-10 7.5-17.5T100 184q10 0 17.5 7.5T125 209q0 10-7.5 17.5T100 234zm53 100zm-3-100q-13 0-23 8.5T113 262q-1 3 1 6t6 3h60q4 0 6-3t1-6q-4-11-14-19.5t-23-8.5zm50-50q-10 0-17.5 7.5T175 209q0 10 7.5 17.5T200 234q10 0 17.5-7.5T225 209q0-10-7.5-17.5T200 184zm-47 150q-30 0-58.5-11t-50-32q-21.5-21-33-49T0 184v-38q0-7 4-13.5t11-9q7-2.5 14-1.5t12 6q3 3 7.5 4.5T55 134h64q3 0 4.5-1.5t1.5-4.5v-7q0-11-5-17-4-5-10-7l-5-1-1 1q-10 12-23 12-15 0-24.5-11.5T51 71q1-8 6.5-14T70 49q13-5 25 1 5-8 13-12t17-4q14 0 25 10 11-10 25-10 9 0 17 4t13 12q7-3 14-3 15 0 24.5 12t5.5 27q-2 8-7.5 13.5t-13.5 8q-8 2.5-16.5-1T196 97q-2-1-5 0-7 2-11 7-5 6-5 18v6q0 3 1.5 4.5t4.5 1.5h64q3 0 7-1.5t6-3.5q6-5 13-6.5t14 1.5q7 3 11 9t4 14v33q0 41-20 76t-53.5 56Q193 333 153 334zm110-154v-12q-9 3-17 3h-65q-18 0-31-12-13 12-31 13H55q-9-1-18-4v16q0 23 9 43.5T71 264q16 16 37 24.5t44 7.5q30 0 55.5-16t40.5-42.5q15-26.5 15-57.5z"/></svg>