<svg viewBox="0 0 300 368" xmlns="http://www.w3.org/2000/svg"><path d="M287 109q13-13 13-31t-13-31q-13-13-31-13t-31 13l-18 18q-8 7-22.5 6.5t-26.5-7q-12-6.5-25-5T111 70q-11 12-11 28t11 27l12 12-96 99q-11 11-13.5 26t2.5 29L6 302q-6 5-6 13t5.5 13.5Q11 334 19 334t13-6l11-10q9 3 19 3 21 0 36-14l96-99 15 15q11 11 27 11t28-11q9-9 10.5-22t-5-25q-6.5-12-7-26.5T269 127l18-18zM128 221H94l56-57 17 17-39 40zM261 83l-18 18q-18 17-18 45 0 26 12 50-1 1-2 0l-97-97q-1-1 1-2 23 12 49 12 28 0 45-18l18-18q2-1 5-1t4.5 1.5Q262 75 262 78t-1 5z"/></svg>