<svg viewBox="0 0 300 368" xmlns="http://www.w3.org/2000/svg"><path d="M205 275q8-13 8-29t-8.5-30.5q-8.5-14.5-23-23T150 184q-17 0-31.5 8.5t-22.5 23q-8 14.5-8 31t8 31q8 14.5 22.5 23T149 309q16 0 30-7l26 26q6 6 14 6t13.5-5.5Q238 323 238 315t-6-13l-27-27zm-55-4q-10 0-17.5-7t-7.5-17.5q0-10.5 7.5-18T150 221q10 0 17.5 7.5t7.5 18q0 10.5-7.5 17.5t-17.5 7zm150-168v50q0 23-14.5 41.5T248 219l-4 1q-7 0-12-4t-6.5-11q-1.5-7 2.5-13.5t11-8.5q10-3 17-11.5t6-18.5v-50q1-13-8.5-22T231 72H69q-13 0-22.5 9T37 103v50q1 10 7.5 18.5T61 183q7 2 11 8.5t2 14q-2 7.5-8.5 11.5T52 219q-23-6-37.5-24.5T0 153v-50q0-19 9.5-34.5t25-25Q50 34 69 34h162q19 0 34.5 9.5t25 25Q300 84 300 103zm-108 46l-4-45q0-3 2-5.5t4.5-2.5q2.5 0 4.5 2t2 4l3 34 9-18q2-4 6-4t6 4l9 18 3-34q0-2 2-4t4-2q3 1 5 3t2 5l-4 45q0 4-3 7t-7 3q-4 0-7-5l-10-20-10 20q-3 5-7 5t-6.5-3q-2.5-3-3.5-7zm-68 0l-4-45q0-3 2-5.5t4.5-2.5q2.5 0 4.5 2t2 4l2 34 10-18q2-4 6-4t5 4l10 18 2-34q1-2 2.5-4t4.5-2q3 1 4.5 3t1.5 5l-4 45q0 4-2.5 7t-6.5 3q-4 0-7-5l-10-20-11 20q-2 5-6.5 5t-7-3q-2.5-3-2.5-7zm-32 5l-10-20-11 20q-2 5-6.5 5t-7-3q-2.5-3-2.5-7l-4-45q0-3 2-5.5t4.5-2.5q2.5 0 4.5 2t2 4l2 34 10-18q2-4 6-4t5 4l10 18 2-34q1-2 2.5-4t4.5-2q3 1 4.5 3t1.5 5l-4 45q0 4-2.5 7t-6.5 3q-4 0-7-5z"/></svg>