<svg viewBox="0 0 300 368" xmlns="http://www.w3.org/2000/svg"><path d="M231 46H69q-19 0-34.5 9.5T9.5 81Q0 97 0 115v75q0 19 9.5 34.5t25 25Q50 259 69 259h62v25h-31q-8 0-13.5 5.5T81 303q0 8 5.5 13.5T100 321h100q8 0 13.5-5t5.5-13q0-8-5.5-13.5T200 284h-31v-25h62q19 0 34.5-9.5t25-25Q300 209 300 190v-75q0-18-9.5-34t-25-25.5Q250 46 231 46zm32 144q0 13-9.5 22.5T231 222H69q-13-1-22-10t-9-22v-75q0-13 9-22t22-9h162q13 0 22.5 9t9.5 22v75zm-63-37q0 8-5.5 13t-13.5 5h-12v13q0 8-5.5 13.5T150 203q-8 0-13.5-5.5T131 184v-13h-12q-8 1-13.5-4.5T100 153q0-8 5.5-13.5T119 134h12v-13q0-7 5.5-12.5T150 103q8 0 13.5 5.5T169 121v13h12q8 0 13.5 5.5T200 153z"/></svg>