<svg viewBox="0 0 300 368" xmlns="http://www.w3.org/2000/svg"><path d="M202 214q0 7-7 10l-18 11 8 22q1 4 0 7t-4 5q-3 3-6.5 2.5T169 269l-19-14-19 14q-2 2-5.5 2.5T119 269q-3-2-4-5t0-7l8-22-18-11q-7-3-7-10 0-3 2.5-5.5t6.5-2.5h26l8-27q0-3 3-5t6-2q3 0 6 2t3 5l8 27h26q4 0 6.5 2.5t2.5 5.5zm76-135l-38 76q23 30 23 67 0 30-15.5 56t-41 41Q181 334 150 334t-56.5-15Q68 304 53 278t-15-56q0-37 21-67L22 79q-4-7-3.5-15t5-15Q28 42 35 38t15-4h31q16 0 29.5 8.5T131 65l19 38 19-38q7-14 20.5-22.5T219 34h31q8 0 15 4t11.5 11q4.5 7 5 15T278 79zm-76 3l-16 33q14 5 26 13l28-56h-21q-5 0-9.5 2.5T202 82zM60 72l28 56q12-8 26-13L98 82q-3-5-7.5-7.5T81 72H60zm165 150q0-21-10-38t-27.5-27Q170 147 150 147t-37.5 10Q95 167 85 184t-10 37.5Q75 242 85 259t27.5 27.5Q130 297 150 297t37.5-10.5Q205 276 215 259t10-37z"/></svg>