<svg viewBox="0 0 300 368" xmlns="http://www.w3.org/2000/svg"><path d="M75 171q-9 0-17 4 14-49 55.5-74.5T225 72v31q0 8 5.5 13.5T244 122q8 0 13-5.5t5-13.5V65q1-13-9-22t-23-9q-97 3-152 45.5T14 202q-6 4-10 11t-4 15v75q0 13 9 22t22 9q13 0 22-9t9-22v-33q7 1 13 1 21 0 35.5-14.5t14.5-35q0-20.5-14.5-35.5T75 171zm0 69q-8 0-13.5-5.5t-5.5-13q0-7.5 5.5-13T75 203q8 0 13.5 5.5t5.5 13q0 7.5-5.5 13T75 240zm206 80q1 7-4 11-4 3-8 3-2 0-4-1l-21-7-21 7q-7 3-12.5-1.5T206 320l2-9q1-13 10-25 5-7 12-13-13-13-20-26-10-17-10-34t10-35q7-13 20-26 5-6 13.5-6t14.5 6q12 13 19 26 11 18 11 35t-11 34q-7 13-19 26 7 6 12 13 8 12 10 25l1 9z"/></svg>