<svg viewBox="0 0 300 368" xmlns="http://www.w3.org/2000/svg"><path d="M137 316q-2 6-7 10t-11 4h-5q-33-8-59-29.5t-40.5-52Q0 218 0 184q0-41 20-75.5T74.5 54Q109 34 150 34q31 0 59.5 12.5t50 35Q281 104 291 134q3 7-.5 14T280 158q-7 3-14-.5T256 147q-12-34-41-54.5T150 72q-31 0-56.5 15t-41 40.5Q37 153 37 184q1 26 11.5 48.5t30 38.5Q98 287 123 293q8 2 12 8.5t2 14.5zM75 140v25q0 8 5.5 13.5T94 184q8 0 13.5-5.5T113 165v-25q-1-8-6-13t-13-5q-8 0-13.5 5T75 140zm56 0v25q0 8 5.5 13.5T150 184q8 0 13.5-5.5T169 165v-25q0-8-5.5-13.5t-13.5-5q-8 .5-13.5 5.5t-5.5 13zm169 119q0 19-9.5 36T265 322.5Q249 333 229 334q-24 1-44.5-13T155 284q-8-20-3-41 5-16 17-31 2-3 6.5-2.5t5.5 3.5q1 3 2.5 8.5t2.5 8q1 2.5 4 2.5 5 0 9-8 2-5 5-19t5-21q3-11 8-20 2-3 6-3.5t7 1.5l9 8q28 24 40 39 21 26 21 50zm-58 6l-11-12q-3-2-6-2t-6 2l-11 12q-7 7-8 17.5t6 18.5q7 8 19 8t19-8q7-8 6-18.5t-8-17.5z"/></svg>