<svg viewBox="0 0 300 368" xmlns="http://www.w3.org/2000/svg"><path d="M276 48q-13-14-32-14H56q-19 0-32 14-6 7-9 15.5T13 81l15 190q2 17 11.5 31.5t24.5 23q15 8.5 33 8.5h105q27 0 46.5-18t22.5-45l16-189q1-10-2-18.5T276 48zM52 74q2-2 4-2h188q2-1 4 1.5t2 4.5l-12 133q-9-3-19-1.5t-18 7.5q-6 4-13.5 4t-13.5-4q-11-8-24-8t-24 8q-6 4-13.5 4T99 217q-8-6-18-7.5T61 211L50 78q0-2 2-4zm150 222H97q-12 0-21-8t-10-20l-2-16q5-2 8-4t6-1q15 11 34.5 11t34.5-11q3-1 6 0 15 12 34.5 12t34.5-12q3-1 6 0l7 5-2 16q-1 12-10 20.5t-21 8.5v-1zm-89-150q0-17 23-45 6-6 14-6t14 6q24 28 24 46 0 15-11 26t-27 11q-16 0-26.5-11T113 146z"/></svg>