<svg viewBox="0 0 300 368" xmlns="http://www.w3.org/2000/svg"><path d="M238 221q0 11-7.5 18t-18 7q-10.5 0-17.5-7t-7-17.5q0-10.5 7-18t17.5-7.5q10.5 0 17.5 7.5t7 18.5l1-1zm-138-37q-10 0-17.5 7.5T75 209q0 10 7.5 17.5T100 234q10 0 17.5-7.5T125 209q0-10-7.5-17.5T100 184zm200-12v93q0 19-9.5 34.5t-25 25Q250 334 231 334H75q-22 0-40-13t-25-34Q0 259 0 228.5T10 169q12-37 34-68t53-54q17-13 38.5-13T175 46l91 60q16 11 25 28.5t9 37.5zM76 121h146l-67-44q-8-6-18-5.5T119 77q-25 19-43 44zm187 51q-1-7-2-13H75q-10 0-18 6t-11 15q-8 23-8 47.5t8 47.5q3 10 11 16t18 5h38q0-15 10.5-26t26.5-11q16 0 27 11t11 26h43q13 0 22.5-9t8.5-22l1-93z"/></svg>