<svg viewBox="0 0 300 368" xmlns="http://www.w3.org/2000/svg"><path d="M290 149l-40-69q-9-15-25-24.5T191 46h-82q-18 0-34 9.5T50 80L9 149q-9 16-9 35t9 35l41 69q9 15 25 24t34 9h82q18 0 34-9t25-24l40-69q10-16 10-35t-10-35zm-32 51l-40 69q-4 7-11.5 11t-15.5 4h-82q-8 0-15.5-4T82 269l-40-69q-5-8-5-16t5-16l40-69q4-7 11.5-11t15.5-4h82q8 0 15.5 4T218 99l40 69q4 7 4 15.5t-4 16.5zm-46-16q0 8-5 13.5t-13 5.5h-25v25q0 7-5.5 12.5T150 246q-8 0-13.5-5.5T131 228v-25h-25q-8 0-13.5-5.5T87 184q0-8 5.5-13.5T106 165h25v-25q0-8 5.5-13.5T150 121q8 0 13.5 5.5T169 140v25h25q8 0 13 5.5t5 13.5z"/></svg>