<svg viewBox="0 0 300 368" xmlns="http://www.w3.org/2000/svg"><path d="M125 184q0-10 7.5-17.5T150 159q10 0 17.5 7.5T175 184q0 10-7.5 17.5T150 209q-10 0-17.5-7.5T125 184zm49 55q-16-5-24-5t-24 5q-9 3-13.5 10.5T110 266l11 48q2 9 8.5 14.5T145 334h11q8 0 15-5.5t9-14.5l10-48q2-9-2.5-16.5T174 239zm54-15q13-26 8.5-54T212 122q-13-12-28.5-19T150 96.5q-18 .5-33.5 7T88 122q-20 20-24.5 48t8.5 54q4 7 11.5 9t14.5-1.5q7-3.5 9-10.5t-1-14q-8-15-5.5-31t14.5-27q14-15 35-15t35 15q12 11 14.5 27t-5.5 31q-3 7-1 14t9 11q4 2 9 2t9.5-2.5q4.5-2.5 7.5-7.5zm28-146q-29-29-67.5-39t-77 0Q73 49 44 78T5 145.5q-10 38.5 0 77T44 290q6 6 13 12 5 4 12 4 9 0 14-6.5t4-14.5q-1-8-6.5-12.5T70 264q-21-22-28.5-51t0-58q7.5-29 29-50.5t50.5-29q29-7.5 58 0t50.5 29q21.5 21.5 29 50.5t0 58q-7.5 29-28.5 51-5 4-10.5 8.5T213 285q-1 8 3.5 14t12.5 7q8 1 14.5-4.5T256 290q29-29 39-67.5t0-77Q285 107 256 78z"/></svg>