<svg viewBox="0 0 300 368" xmlns="http://www.w3.org/2000/svg"><path d="M300 165v38q0 8-5.5 13.5T281 222h-37q-8 0-13.5-5.5T225 203v-38q0-8 5.5-13.5T244 146h37q8 0 13.5 5.5T300 165zM281 46h-37q-8 0-13.5 5.5T225 65v38q0 8 5.5 13.5T244 122h37q8-1 13.5-6t5.5-13V65q0-8-5.5-13.5T281 46zm0 200h-37q-8 0-13.5 5.5T225 265v38q0 8 5.5 13t13.5 5h37q8 0 13.5-5t5.5-13v-38q0-8-5.5-13t-13.5-6zM169 48q-6-5-12.5-2T150 56v15h-37q-31 0-57 15.5t-41 41Q0 153 0 184t15 56.5Q30 266 56 281t57 15h68q8 0 13.5-5t5.5-13q0-8-5.5-13.5T181 259h-68q-21 0-38-10t-27.5-27.5Q37 204 37.5 184T48 146.5Q58 129 75 119t38-10h37v16q0 7 6.5 10t12.5-3l34-34q3-3 3-7.5t-3-7.5l-34-35z"/></svg>