<svg viewBox="0 0 300 368" xmlns="http://www.w3.org/2000/svg"><path d="M300 81l-25 136v36q0 22-11 40.5T234.5 323Q216 334 194 334h-52q-22 0-42.5-9T64 300L5 237q-5-7-5-16.5T7 204q7-7 16.5-7.5T40 201l2 2 30 30q1 1 2 .5t1-2.5v-14L48 81q-1-7 3-13.5t12-8q8-1.5 14.5 3T85 74l27 138 1 19q0 12-7 22t-18 15l-2 1 6 6q9 10 22.5 15.5T142 296h52q18 0 31-12.5t13-30.5v-41l25-138q1-7 7.5-11.5t14-3q7.5 1.5 12 7.5t3.5 14zm-99 90q2 1 4 1 6 0 11.5-4.5T223 156l18-100q2-8-2.5-14T226 34.5q-8-1.5-14 3T204 49l-18 100q-1 8 3.5 14.5T201 171zm-75-15q2 7 7 11.5t12 4.5l4-1q7-1 11.5-7.5T163 149L143 49q-1-8-7.5-12t-14-2.5q-7.5 1.5-12 8T107 56l19 100z"/></svg>