<svg viewBox="0 0 300 368" xmlns="http://www.w3.org/2000/svg"><path d="M263 290q-1 8-6 13.5t-13 5.5q-8 0-13.5-5.5T225 290q0-8 5.5-13t13.5-5q8 0 13.5 5t5.5 13zM19 71q-8 0-13.5 5.5T0 90q0 8 5.5 13.5T19 109q8 0 13-5.5T37.5 90q.5-8-5-13.5T19 71zm62-37q-8 0-13.5 5.5t-5 13.5q.5 8 5.5 13t13 5q8 0 13.5-5t5.5-13q0-8-5.5-13.5T81 34zm26 116l5-4q31-31 63-51 29-17 51.5-22t30 2.5Q264 83 262 100q-1 8 4 14t12.5 7q7.5 1 13.5-3.5t7-12.5q3-20-3-35-4-12-12-20-18-18-50.5-15.5t-71.5 25Q123 82 85 119l-5 5q-5 6-5 13.5t5.5 13Q86 156 94 156t13-6zm54 144q6-4 7.5-12t-3-14q-4.5-6-12-7.5T139 263q-23 16-43 24.5t-34 9q-14 .5-19-5.5-4-3-5-10.5t-7.5-12q-6.5-4.5-14-3t-12 7.5Q0 279 1 287q3 19 15 31 16 16 43 16 21 0 47.5-10t54.5-30zm127-148q3 0 6.5 2.5t5 6q1.5 3.5.5 7.5t-4 7l-30 24 12 37q1 4 0 7.5t-4 6q-3 2.5-7 2.5t-7-2l-35-22-34 23q-3 2-7 2t-7-2.5q-3-2.5-4.5-6.5t-.5-8l12-37-30-24q-3-3-4-7t.5-7.5q1.5-3.5 5-5.5t7.5-2h37l13-36q2-4 5-6t7-2q4 0 7 2t5 6l13 36 38-1zM93 193l-24-9-9-24q-1-4-5-6t-8.5-.5Q42 155 40 160l-9 24-24 9q-4 2-6 5.5T.5 207q1.5 5 6.5 6l24 9 9 24q2 5 6.5 6.5t8.5-.5q4-2 5-6l9-24 24-9q5-1 6.5-6t-.5-8.5q-2-3.5-6-5.5z"/></svg>