<svg viewBox="0 0 300 368" xmlns="http://www.w3.org/2000/svg"><path d="M281 234q-8 0-13 5.5t-5 13.5v12q0 3-2 4.5t-4.5 1.5q-2.5 0-4.5-1.5t-2-4.5V140q0-16-6-31t-17.5-26.5Q215 71 200 65t-31-6H81q-22 0-40.5 11T11 99.5Q0 118 0 140v131q0 16 11 27t26.5 11Q53 309 64 298t11-26v-13h38v12q-1 16 10 27t27 11q16 0 26.5-11t10.5-26v-13h26v8q0 17 12.5 29.5T256 309q18 0 31-13t13-31v-12q0-8-5.5-13.5T281 234zM81 96h88q18 0 31 13t13 31v69H38v-69q0-18 12.5-31T81 96zm-6 57q0-8 5.5-13.5T94 134q8 0 13.5 5.5t5 13.5q-.5 8-5.5 13.5t-13 5q-8-.5-13.5-5.5T75 153zm63 0q-1-8 4.5-13.5T156 134q8 0 13.5 5.5T175 153q0 8-5.5 13.5t-13.5 5q-8-.5-13-5.5t-6-13h1z"/></svg>