<svg viewBox="0 0 300 368" xmlns="http://www.w3.org/2000/svg"><path d="M150 34q-41 0-75.5 20T20 108.5Q0 143 0 184q2 57 33 95 29 35 73 47.5t88 0q44-12.5 73-47.5 31-38 33-95 0-41-20-75.5T225.5 54Q191 34 150 34zm0 262q-31 0-56.5-15T53 240.5Q38 215 37 184q2-43 26-72 21-26 54-35t66 0q33 9 54 35 24 29 26 72-1 31-16 56.5T206.5 281Q181 296 150 297v-1zM75 146q0-10 7.5-17t17.5-7.5q10-.5 17.5 7t7.5 18q0 10.5-7.5 17.5t-17.5 7q-10 0-17.5-7T75 146zm100 0q0-10 7.5-17t17.5-7.5q10-.5 17.5 7t7.5 18q0 10.5-7.5 17.5t-17.5 7q-10 0-17.5-7t-7.5-18zm48 70q-11 20-30.5 31.5T150 259q-23 0-42.5-11.5T77 216q-2-3-2-7t2-7q2-3 5.5-4.5t7.5-.5q29 11 60 12 31-1 60-12 4-1 7.5.5t5.5 4.5q2 3 2 7t-2 7z"/></svg>