<svg viewBox="0 0 300 368" xmlns="http://www.w3.org/2000/svg"><path d="M213 240v13q-1 8-6 13t-13 5h-88q-8 0-13.5-5T87 253v-13q1-8 6-13.5t13-5.5h88q8 1 13 6t6 13zm-107-44h25q8 0 13.5-5t5.5-13q0-8-5.5-13.5T131 159h-25q-8 0-13.5 5.5t-5 13.5q.5 8 5.5 13t13 5zm0-62h25q8 0 13.5-5.5T150 115q0-8-5.5-13T131 97h-25q-8-1-13.5 4.5t-5 13.5q.5 8 5.5 13.5t13 5.5zm169 2v129q0 19-9.5 34.5t-25 25Q225 334 206 334H94q-19 0-34.5-9.5t-25-25Q25 284 25 265V103q0-19 9.5-34.5t25-25Q75 34 94 34h79q29 0 49 20l33 33q20 20 20 49zm-37 129V146h-50q-11 0-18-7t-7-18V71H94q-13 0-22.5 9.5T63 103v162q0 13 9 22t22 9h112q13 0 22.5-9t9.5-22z"/></svg>