<svg viewBox="0 0 300 368" xmlns="http://www.w3.org/2000/svg"><path d="M300 184v106q0 8-5.5 13.5T281 309q-8 0-13-5.5t-5-13.5V184q-1-31-16-56.5T206.5 87Q181 72 150 71.5t-56.5 15Q68 102 53 127.5T38 184v94q0 8-5.5 13T19 296q-8 0-13.5-5T0 278v-94q0-41 20-75.5T74.5 54Q109 34 150 34t75.5 20Q260 74 280 108.5t20 75.5zM145 296q-30-1-54-16-7-4-14.5-2T65 286.5q-4 6.5-2 14.5t9 12q32 19 71 21h1q7 0 12.5-5t6-13q.5-8-5-13.5T145 296zm-45-125q10 0 17.5-7t7.5-17.5q0-10.5-7.5-18T100 121q-10 0-17.5 7.5t-7.5 18q0 10.5 7.5 17.5t17.5 7zm100-50q-10 0-17.5 7.5t-7.5 18q0 10.5 7.5 17.5t17.5 7q10 0 17.5-7t7.5-17.5q0-10.5-7.5-17.5t-17.5-8zm25 104q-1-12-11-20.5t-22-8.5h-4v7q0 5-4 8.5t-9 3.5q-5 0-8.5-3.5T163 203v-7h-25v7q0 5-4 8.5t-9 3.5q-5 0-8.5-3.5T113 203v-7h-5q-12 0-22 8.5t-11 21q-1 12.5 8 23t23 10.5h7v-6q0-5 3.5-9t8.5-4q5 0 9 4t4 9v6h25v-6q0-5 3.5-9t8.5-4q5 0 9 4t4 9v62q0 8 5 13.5t13 5.5q8 0 13.5-5.5T225 315v-90z"/></svg>