<svg viewBox="0 0 300 368" xmlns="http://www.w3.org/2000/svg"><path d="M150 90q0-23-16.5-39.5T94 34q-23 0-39.5 16.5T38 90v25q0 23 16.5 39.5T94 171q23 0 39.5-16.5T150 115V90zm-37 25q0 8-5.5 13.5T94 134q-8 0-13.5-5.5T75 115V90q0-8 5.5-13.5T94 71q8 0 13.5 5.5T113 90v25zm81 81q-23 0-39.5 16.5T138 253v25q0 23 16.5 39.5T194 334q23 0 39.5-16.5T250 278v-25q0-24-16.5-40.5T194 196zm19 82q0 8-5.5 13t-13.5 5q-8 0-13.5-5t-5.5-13v-25q0-8 5.5-13.5T194 234q8 0 13.5 5.5T213 253v25zM181 91q-6-6-6-13.5t6-13.5l25-25q4-4 9.5-5t10.5 1.5q5 2.5 8.5 7T238 53v100q0 8-5.5 13t-13.5 5q-8 0-13.5-5t-5.5-13V95q-5 2-10.5 1t-8.5-5zm-68 124v100q0 8-5.5 13.5T94 334q-8 0-13.5-5.5T75 315v-57q-5 2-10.5.5T56 253q-6-5-6-13t6-13l25-25q4-4 9.5-5t10.5 1q5 2 8 7t3 10h1z"/></svg>