<svg viewBox="0 0 300.0026 368" xmlns="http://www.w3.org/2000/svg"><path d="M181 171q8 0 13.5 5.5T200 190q0 8-5.5 13.5T181 209H94q-8 0-13.5-5.5T75 190q0-8 5.5-13t13.5-6h87zm-62 63H94q-8 0-13.5 5.5T75 253q0 8 5.5 13.5T94 272h25q8-1 13.5-6t5.5-13q0-8-5.5-13.5T119 234zm-13 62H69q-13 0-22-9t-9-22V146h243q8 0 13.5-5t5.5-13q0-19-9.5-34.5t-25-25Q250 59 231 59h-6v-6q0-8-5.5-13.5T206 34q-8 0-13 5.5T188 53v6h-75v-6q-1-8-6-13.5T94 34q-8 0-13.5 5.5T75 53v6h-6q-19 0-34.5 9.5t-25 25Q0 109 0 128v137q0 19 9.5 34.5t25 25Q50 334 69 334h37q8 0 13.5-5.5T125 315q0-8-5.5-13.5T106 296zm60-18q-16 15-16 38v12q0 2 2 4t4 2h12q23 0 38-16l84-84q9-8 10-19.5t-7-20.5q-8-9-20.5-10t-21.5 8l-85 86z"/></svg>