<svg viewBox="0 0 300 368" xmlns="http://www.w3.org/2000/svg"><path d="M279 132l-16-16V84q0-21-15-35.5T212 34H88q-21 0-35.5 14.5T38 84v32l-17 16q-10 10-15.5 22.5T0 181v84q0 19 9.5 34.5t25 25Q50 334 69 334h162q19 0 34.5-9.5t25-25Q300 284 300 265v-84q0-14-5.5-26.5T279 132zM132 74q1-9 9-12.5t16.5-.5q8.5 3 10.5 11 9 2 17 7.5t12 13q4 7.5 2 15t-8.5 11.5q-6.5 4-14 2t-11.5-9q-2-3-5-3h-15q-4 0-6 3t-1 6.5q1 3.5 4 4.5l30 12q19 7 25 25.5t-2 36q-8 17.5-27 22.5-1 9-9 12.5t-16.5.5q-8.5-3-10.5-11-9-2-17-7.5t-12-13q-4-7.5-2-15t8.5-11.5q6.5-4 14-2t11.5 9q2 3 5 3h15q4 0 6-3t1-6.5q-1-3.5-4-4.5l-30-12q-19-7-25-25.5t2-36Q113 79 132 74zm99 222H69q-13 0-22-9t-9-22v-78l63 64q13 13 31 18t36 0q18-5 31-18l64-65v79q0 13-9.5 22t-22.5 9z"/></svg>