<svg viewBox="0 0 300 368" xmlns="http://www.w3.org/2000/svg"><path d="M275 152q0-32-17-59t-45.5-43Q184 34 150 34T87.5 50Q59 66 42 93t-17 58.5q0 31.5 12 63T70 270q21 24 48 33-3 5-4 9-3 8 1.5 15t12.5 7h44q8 0 12.5-7t1.5-15q-1-4-4-9 27-9 48-33t33-55.5q12-31.5 12-62.5zM150 271q-23 0-44-18-20-18-32-46t-12-55q0-22 12-40t32-29q20-11 44-11t44 11q20 11 31.5 29t11.5 40q1 27-11 55t-32 46q-21 18-44 18zm58-91q-4 17-12 31-5 7-13 8.5t-14-4.5l-2-2q-5-4-6-10t2-11q6-10 9-20 2-6 6.5-9.5t9.5-3.5h4q8 0 13.5 6.5T208 180z"/></svg>