<svg viewBox="0 0 300 368" xmlns="http://www.w3.org/2000/svg"><path d="M246 334h-2q-7 0-12.5-4.5T225 318q-4-26-25-42.5T150 259q-29 0-50 16.5T75 318q-1 8-7.5 12.5t-14 3.5q-7.5-1-12-7.5T38 313q3-27 19-47.5T97 233q24-12 53-12t53 12q24 12 40 32.5t19 47.5q1 7-3.5 13.5T246 334zM50 115q0-8 5.5-13T69 97h6q0-25 16-42.5T131 34v31q0 8 5.5 13.5T150 84q8 0 13.5-5.5T169 65V34q24 3 40 20.5T225 96h6q8 0 13.5 5.5T250 115q0 8-5.5 13.5T231 134h-6q0 20-10 37.5T187.5 199Q170 209 150 209t-37.5-10Q95 189 85 171.5T75 134h-6q-8 0-13.5-5.5T50 115zm138 19h-75q0 16 10.5 26.5T150 171q16 0 26.5-10.5T187 134h1z"/></svg>