<svg viewBox="0 0 300 368" xmlns="http://www.w3.org/2000/svg"><path d="M208 228q5 6 4.5 14t-6.5 13q-19 15-44 16-15 0-27-10l-3-2q-7 3-13 8t-14 4.5q-8-.5-13-6.5t-4.5-13.5Q88 244 94 239q17-15 39-18 14 1 25 10l4 3q11-1 20-8 6-5 13.5-4.5T208 228zm-14-69h-88q-8 0-13 5.5T88 178q0 8 5 13.5t13 4.5h88q8 0 13.5-5t5.5-13q0-8-5.5-13.5T194 159zm81-36v142q0 19-9.5 34.5t-25 25Q225 334 206 334H94q-19 0-34.5-9.5t-25-25Q25 284 25 265V103q0-19 9.5-34.5t25-25Q75 34 94 34h92q13 0 26 5t22 15l21 21q10 9 15 22t5 26zm-37 142V121h-25q-11 0-18-7t-7-18V71H94q-13 1-22.5 10T62 103v162q0 13 9.5 22t22.5 9h112q13 0 22-9t9-22h1z"/></svg>