<svg viewBox="0 0 300 368" xmlns="http://www.w3.org/2000/svg"><path d="M227 171q11 10 11 24l-1 13q0 5-4 9t-10 4l-19-2q-6 0-10-4t-4-10l-2-19q-37-17-76 0l-2 19q0 6-4 10t-10 4l-19 2q-6 0-10-4t-4-9l-1-13q0-14 11-24 16-16 47-21.5t61.5.5q30.5 6 45.5 21zm73-68v162q0 19-9.5 34.5t-25 25Q250 334 231 334H69q-19 0-34.5-9.5t-25-25Q0 284 0 265V103q0-19 9.5-34.5t25-25Q50 34 69 34h162q19 0 34.5 9.5t25 25Q300 84 300 103zm-37 0q0-13-9.5-22T231 72H69q-13-1-22.5 8.5T37 103v162q1 13 10 22t22 9h162q13 0 22-9t9-22V103h1z"/></svg>