<svg viewBox="0 0 300.0095 368" xmlns="http://www.w3.org/2000/svg"><path d="M169.01 184q0 8-5.5 13.5t-13.5 5.5q-8 0-13.5-5.5t-5.5-13.5q0-8 5.5-13.5t13.5-5.5q8 0 13.5 5.5t5.5 13.5zm44-19q-8 0-13.5 5.5t-5.5 13.5q0 8 5.5 13.5t13 5.5q7.5 0 13-5.5t5.5-13.5q0-8-5.5-13.5t-12.5-5.5zm-125 0q-8 0-13.5 5.5t-5.5 13.5q0 8 5.5 13.5t13 5.5q7.5 0 13-5.5t5.5-13.5q0-8-5.5-13.5t-13.5-5.5h1zm212 23v80q0 18-9 33t-24 24q-15 9-33 9h-71q-43 0-79-18t-58.5-50q-22.5-32-25.5-71-2-33 9.5-63.5T44.01 78q23-23 53.5-34.5t62.5-9.5q39 3 71 24.5t50.5 55.5q18.5 34 18.5 74zm-37 0q0-30-14-56t-38-42q-24-16-53-18h-8q-22 0-43 8.5t-37.5 25q-16.5 16.5-25 39.5t-6.5 47q2 30 19 54t44.5 37q27.5 13 61.5 13h71q12 0 20-8t8-20v-80h1z"/></svg>