<svg viewBox="0 0 300 368" xmlns="http://www.w3.org/2000/svg"><path d="M31 71q0-15 11-26t26.5-11Q84 34 95 45t11 26.5Q106 87 95 98t-26.5 11Q53 109 42 98T31 71zm132 119q0-23 16-39.5t39.5-16.5q23.5 0 40 16.5t16.5 40q0 23.5-16.5 39.5t-40 16q-23.5 0-40-16T162 190h1zm37 0q0 8 5.5 13.5T219 209q8 0 13.5-5.5t5-13.5q-.5-8-5.5-13.5t-13-5.5q-8 0-13.5 5.5T200 190zm99 119q-8-23-28.5-36.5T225 259h-13q-25 0-45 13.5T139 309q-3 7 0 14t10.5 10q7.5 3 14.5-.5t10-10.5q4-12 14.5-18.5T212 297h13q13 0 23.5 6.5T264 322q2 5 6.5 8.5T281 334q4 0 7-1 7-3 10.5-10t.5-14zM83 231q-4-3-8.5-3t-8 3.5Q63 235 63 240v19h-7q-8 0-13.5-5.5t-5-13.5q.5-8-5-13T19 221.5q-8-.5-13.5 5T0 240q0 24 16.5 40T56 296h7v20q0 5 3.5 8.5t8 3.5q4.5 0 8.5-4l38-38q3-3 3-8t-3-9l-38-38zm54-58q-6-23-25-37.5T69 121q-24 0-43 14.5T1 173q-2 7 1.5 14t11 9q7.5 2 14.5-2t9-11q3-11 11.5-17.5t20-6.5q11.5 0 20.5 6.5t12 17.5q1 6 6 9.5t12 3.5h5q7-2 11-9t2-14z"/></svg>