<svg viewBox="0 0 300 368" xmlns="http://www.w3.org/2000/svg"><path d="M18 196q-8 0-13-5.5T0 177q2-40 22.5-72.5t54-51.5Q110 34 150 34q28 0 53.5 10T250 72l16-17q4-3 9-3t9 3.5q4 3.5 4 8.5v57q0 6-4 9.5t-9 3.5h-57q-6 0-9.5-3.5t-3.5-9q0-5.5 4-8.5l14-15q-15-13-34-19.5T150 72q-30-1-55 13.5t-40.5 39Q39 149 37 179q0 7-5.5 12T19 196h-1zm264-24q-8-1-13.5 4.5T263 189q-2 30-17.5 54.5T205 282q-25 14-55 14-20 0-39-6.5T77 270l14-15q4-3 4-8.5t-3.5-9Q88 234 82 234H25q-5 0-9 3.5t-3 8.5v58q0 5 3.5 8.5T25 316q5 0 9-3l16-17q21 18 46.5 28t53.5 10q40 0 73.5-19t54-51.5Q298 231 300 191q0-8-5-13.5t-13-5.5zm-113-44q0-8-5.5-13.5T150 109q-8 0-13.5 5.5T131 128v62q0 8 5.5 13.5T150 209q8 0 13.5-5.5T169 190v-62zm-19 93q-8 1-13.5 6t-5.5 13q0 8 5.5 13.5T150 259q8 0 13.5-5.5T169 240q0-8-5.5-13.5T150 221z"/></svg>