<svg viewBox="0 0 300 368" xmlns="http://www.w3.org/2000/svg"><path d="M257 302q-12 12-29 13t-31-10l-15-13q-6-5-7-12.5t4-13.5q5-6 13-7t14 4l15 13q2 2 4.5 1.5t4.5-2.5q22-21 29-50t-.5-58q-7.5-29-29-50.5t-50.5-29q-29-7.5-58 0t-50.5 29Q49 138 41.5 167t0 58Q49 254 70 276q2 2 4.5 2t4.5-2l16-13q4-3 9-4t9.5 1q4.5 2 8 6t4 9q.5 5-1 9.5T119 293l-16 13q-14 10-31 9t-28-13q-23-22-34-51T0 190.5Q1 159 15 131t37.5-48.5Q76 62 106 53t61-5q43 4 76.5 31t48 67.5q14.5 40.5 5 82.5T257 302zM150 171q-6 0-12 3.5t-9 8.5l-47 14q-7 3-11 9.5t-1.5 14q2.5 7.5 9 11T93 233l47-14q6 3 13.5 2t13-6.5q5.5-5.5 7.5-13t-1-14.5q-3-7-9-11t-14-5z"/></svg>