<svg viewBox="0 0 300 368" xmlns="http://www.w3.org/2000/svg"><path d="M298 284q-4 12-23 23-13 8-30 14-4 1-7.5-.5T232 316q-10-16-15-31-7-21-3-33t12.5-16q8.5-4 17-.5t12.5 12q4 8.5 0 19.5 5-11 13-15t16.5-.5q8.5 3.5 12.5 12t0 20.5zm-112 46q5-1 8.5-4.5t5-8.5q1.5-5 .5-10t-5-8.5q-4-3.5-8.5-5t-9.5-.5q-36 9-70.5-5.5t-53.5-46Q34 210 38 173t29-64.5q25-27.5 61-35t69.5 8.5Q231 98 249 130.5t12 69.5q0 5 1.5 10t5.5 8q4 3 9 3.5t10-1q5-1.5 8-6t3-9.5q5-32-4-63t-30.5-56q-21.5-25-51-38.5T150 34q-57 2-95 33-35 29-47.5 73t0 88Q20 272 55 301q38 31 95 33 18 0 36-4zm-23-175q0 11 9 14 5 2 21.5 2t22.5-2q9-3 9-14 0-14-9-23.5t-22.5-9.5q-13.5 0-22.5 9.5t-8 23.5zm-25-2q0-8-5.5-13.5T119 134H94q-8 0-13.5 5.5T75 153q0 8 5.5 13.5T94 172h25q8-1 13-6t6-13zm50 62q0-13-9.5-22t-22.5-9h-21q-6 0-9.5 3.5t-3.5 9q0 5.5 3.5 9t9.5 3.5h21q3 0 5 2t2 4.5q0 2.5-2 4.5t-5 2h-6q-5-1-9 3t-3.5 9q.5 5 4 8.5t8.5 3.5h6q3 1 5 2.5t2 4q0 2.5-2 4.5t-5 2h-21q-6 0-9.5 3.5t-3.5 9q0 5.5 3.5 9t9.5 3.5h21q9 0 16.5-4.5T184 267q4-8 3-17t-6-16q6-8 6-19h1z"/></svg>