<svg viewBox="0 0 300 368" xmlns="http://www.w3.org/2000/svg"><path d="M231 96h-31q-3-26-22.5-44T131 34H69q-19 0-34.5 9.5t-25 25Q0 84 0 103v162q0 19 9.5 34.5t25 25Q50 334 69 334h162q19 0 34.5-9.5t25-25Q300 284 300 265V165q0-18-9.5-34t-25-25Q250 97 231 97v-1zM38 265V103q0-13 9-22.5T69 72h62q13-1 22.5 8.5T162 103v193H69q-13 0-22-9t-9-22zm225 0q-1 13-10 22t-22 9h-31V134h31q13 0 22 9t9 22l1 100zm-13-87q0 8-5.5 13.5t-13.5 5q-8-.5-13.5-5.5t-5-13q.5-8 5.5-13.5t13-5.5q8 0 13.5 5.5T250 178zm0 62q0 8-5.5 13.5T231 259q-8 0-13.5-5.5t-5-13.5q.5-8 5.5-13t13-5q8 0 13.5 5t5.5 13zM88 115q0 8-5.5 13.5T69 134q-8 0-13.5-5.5T50 115q0-8 5.5-13.5t13.5-5q8 .5 13.5 5.5t5.5 13zm0 63q0 8-5.5 13T69 196q-8 0-13.5-5T50 178q0-8 5.5-13.5T69 159q8 0 13.5 5.5T88 178zm62-63q0 8-5.5 13.5T131 134q-8 0-13.5-5.5T112 115q0-8 5.5-13.5t13.5-5q8 .5 13.5 5.5t5.5 13zm0 63q0 8-5.5 13.5t-13.5 5q-8-.5-13.5-5.5t-5.5-13q0-8 5.5-13.5T131 159q8 0 13.5 5.5T150 178zm-62 62q0 8-5.5 13.5T69 259q-8 0-13.5-5.5T50 240q0-8 5.5-13.5t13.5-5q8 .5 13.5 5.5t5.5 13zm62 0q0 8-5.5 13.5T131 259q-8 0-13-5.5t-5.5-13.5q-.5-8 5-13t13.5-5q8 0 13.5 5t5.5 13z"/></svg>