<svg viewBox="0 0 300 368" xmlns="http://www.w3.org/2000/svg"><path d="M237 236l38-17v31q0 21-12.5 38.5T230 312l-52 17q-13 5-28 5t-28-5l-52-17q-20-6-32.5-23.5T25 250v-31l38 17v14q0 9 5 16.5T82 277l49 16v-43q11-5 19-14 7 9 19 14v43l49-16q9-3 14-10.5t5-16.5v-14zm18-113l-105 39-106-39q-10-4-20 .5T10 138l-6 14q-7 10-2.5 21.5T17 188l87 39q4 2 8 2 7 0 12.5-3.5t9.5-8.5l16-31 16 31q4 5 9.5 8.5T188 229q4 0 8-1l87-40q11-3 15.5-14.5T296 152l-7-15q-4-10-14-14t-20 0zM85 113l60-64 5-5-2-3q-8-7-18-7t-18 7L67 87q-5 5-3.5 11.5T71 107l14 6zm140-22l-26-25q-8-8-18.5-8T163 66l-52 56 37 14q2 1 4 1t4-1l64-24q7-3 8.5-9.5T225 91z"/></svg>