<svg viewBox="0 0 300 368" xmlns="http://www.w3.org/2000/svg"><path d="M275 137q0-22-15.5-37.5T222 84q-12 0-22 4V70q6-2 9.5-6.5T213 52q0-7-5.5-12.5T194 34h-88q-8 0-13 5.5T88 52q0 7 3 11.5t9 6.5v55q0 3-3 5l-41 28q-15 10-23 25t-8 32v50q0 19 9.5 35t25 25q15.5 9 34.5 9h112q19 0 34.5-9t25-25q9.5-16 9.5-35v-50q0-23-14-41 14-16 14-36v-1zm-53-16q6 0 11 5t5 12q0 7-6 12l-26-17q2-5 6-8t10-3v-1zm16 144q0 13-9.5 22t-22.5 9H94q-13 0-22-9t-9-22v-31h131q8 0 13.5-5.5T213 215q0-8-5.5-13.5T194 196H69q3-4 7-7l42-28q9-6 14.5-15.5T138 125V71h25v54q0 11 5 20.5t14 15.5l42 28q6 5 10 11.5t4 14.5v50z"/></svg>