<svg viewBox="0 0 300 368" xmlns="http://www.w3.org/2000/svg"><path d="M19 334q-8 0-13.5-5.5T0 315V103q0-19 9.5-34.5t25-25Q50 34 69 34h212q8 0 13.5 5.5T300 53q0 8-5.5 13T281 71H69q-13 0-22 9.5T38 103v212q0 8-5.5 13.5T19 334zm219-19q0-8-5.5-13.5T219 296q-8 0-13.5 5.5T200 315q0 8 5.5 13.5T219 334q8 0 13.5-5.5T238 315zm-138 0q0-8-5.5-13.5T81 296q-8 0-13 5.5T63 315q0 8 5 13.5t13 5.5q8 0 13.5-5.5T100 315zm200 0q0-8-5.5-13.5T281 296q-8 0-13 5.5t-5 13.5q0 8 5 13.5t13 5.5q8 0 13.5-5.5T300 315zm0-62q0-8-5.5-13.5T281 234q-8 0-13 5.5t-5 13.5q0 8 5 13t13 5q8 0 13.5-5t5.5-13zm0-69q0-8-5.5-13.5T281 165q-8 0-13 5.5t-5 13.5q0 8 5 13.5t13 5.5q8 0 13.5-5.5T300 184zm0-69q0-8-5.5-13.5T281 96q-8 0-13 5.5t-5 13.5q0 8 5 13.5t13 5.5q8 0 13.5-5.5T300 115zM169 315q0-8-5.5-13.5T150 296q-8 0-13.5 5.5T131 315q0 8 5.5 13.5T150 334q8 0 13.5-5.5T169 315z"/></svg>