<svg viewBox="0 0 300 368" xmlns="http://www.w3.org/2000/svg"><path d="M300 179q0-11-5.5-21.5T280 141q10-31 7-63 0-7-3.5-14T274 52.5q-6-4.5-13-5.5t-14 1q-29 8-54 27-8-16-18-29-8-10-21-11.5T131 41q-3 2-5 5-10 14-18 29-25-19-55-27-7-2-14-1t-13 5.5Q20 57 16.5 64T13 78q-3 32 7 63-9 6-14.5 16.5T0 179q0 28 25 54 19 20 53 38 22 12 47 21-6 5-9 10.5t-3.5 11q-.5 5.5 2.5 10t8.5 7.5q5.5 3 10.5 3h32q5 0 10.5-3t8.5-7.5q3-4.5 2.5-10t-3-9.5q-2.5-4-5.5-7h27q8 0 13.5 5t5.5 13q0 8 5.5 13.5T244 334q8 0 13.5-5.5T263 315q-1-15-9-28.5T232 265q30-17 47-36 21-24 21-50zm-85-72q0-1 1-2 15-13 34-19 2 21-5 40-4 7-11.5 8t-13.5-3.5q-6-4.5-7.5-11.5t2.5-12zm-64-31q13 18 18 39 0 8-5.5 13.5t-13 5.5q-7.5 0-13-5.5T132 115q6-21 19-39zM50 86q19 6 34 19l1 2q4 5 2.5 12T80 130.5q-6 4.5-13.5 3.5T54 126q-6-19-4-40zm213 93q0 17-23 35-18 16-48 30 5-12 8-26 1-7-3.5-13.5t-12-8q-7.5-1.5-14 3.5t-7.5 12q-4 17-13 31-9-15-13-32-2-7-8.5-11.5t-14-2.5q-7.5 2-11.5 8.5t-3 13.5q4 13 9 25-30-14-49-29-23-19-23-36 0-3 2-5t5-2h211q3-1 5 1.5t3 5.5z"/></svg>