<svg viewBox="0 0 300 368" xmlns="http://www.w3.org/2000/svg"><path d="M266 112q-6-7-15-11.5T233 96h-44l2-19q0-2 2-3.5t4-2.5h47q8 0 13.5-5t5.5-13q0-8-5.5-13.5T244 34h-47q-16 0-28.5 11T154 73l-3 23H67q-9 0-17.5 4.5T35 112q-6 7-8.5 16.5T26 147l18 129q3 25 21.5 41.5T109 334h82q25 0 43.5-16.5T256 276l18-129q2-9 0-18t-8-17zm-33 22q2 0 3.5 2t.5 4l-2 19h-53l3-25h48zm-169 2q1-2 3-2h80l-3 25H65l-2-19q-1-2 1-4zm127 160h-82q-11 0-19-7t-9-18l-11-75h160l-11 76q-1 10-9 17t-19 8v-1zm-18-54l-2 13q0 8-6.5 12.5t-14 4q-7.5-.5-12.5-7t-4-13.5l2-13q0-5 3-9t7.5-6q4.5-2 9.5-1.5t9 3.5q4 3 6 7.5t2 9.5z"/></svg>