<svg viewBox="0 0 300 368" xmlns="http://www.w3.org/2000/svg"><path d="M273 266q-17 32-46 50t-64 18h-12q-34 0-63-17t-46-46q-17-29-17-63v-48q0-34 17-63t46-46q29-17 63-17h12q35 0 64.5 18.5T273 104q3 7 1 14.5t-9 11q-7 3.5-14.5 1T239 121q-11-24-31-37t-45-13h-12q-24 0-44.5 12t-32 32.5Q63 136 63 160v48q0 26 13.5 47.5T113 288V178q0-8 5-13.5t12.5-5.5q7.5 0 12 3.5t6.5 9.5q21-13 45-13h12q8 0 13.5 5.5T225 178q0 8-5.5 13t-13.5 5h-12q-18 0-31 13t-13 31v56h13q24 0 44.5-12.5T240 248q3-6 10.5-8.5t14.5 1q7 3.5 9 11t-1 14.5z"/></svg>