<svg viewBox="0 0 300 368" xmlns="http://www.w3.org/2000/svg"><path d="M295 253l-25 25 25 24q5 5 5 13t-5.5 13.5Q289 334 281 334t-13-6l-24-24-24 24q-6 6-13.5 6t-13-5.5Q188 323 188 315t5-13l24-24-24-24q-6-6-6-13.5t5.5-13Q198 222 206 222t14 5l24 24 24-24q5-6 13-6t13.5 5.5Q300 232 300 240t-5 13zM231 71h-72l-39-20q-9-5-20-5H69q-19 0-34.5 9.5T9.5 81Q0 97 0 115v138q0 18 9.5 34t25 25.5Q50 322 69 321h75q8 0 13.5-5t5.5-13q0-8-5.5-13.5T144 284H69q-13 0-22-9t-9-22V134h224l1 6v38q0 8 5 13t13 5q8 0 13.5-5t5.5-13v-38q0-18-9.5-34t-25-25.5Q250 71 231 71z"/></svg>