<svg viewBox="0 0 300 368" xmlns="http://www.w3.org/2000/svg"><path d="M281 146h-6v-43q0-19-9.5-34.5t-25-25Q225 34 206 34H94q-19 0-34.5 9.5t-25 25Q25 84 25 103v43h-6q-8 1-13.5 6T0 165q0 8 5.5 13.5T19 184h6v44q0 18 9.5 34t25 25q15.5 9 34.5 9h1l36 31q8 7 19 7t19-7l37-31q19 0 34.5-9t25-25q9.5-16 9.5-34v-44h6q8 0 13.5-5.5T300 165q0-8-5.5-13.5T281 146zm-43 82q0 13-9.5 22t-22.5 9h-7q-7 0-12 4l-37 31-36-31q-5-4-12-4h-8q-13 0-22-9t-9-22V103q0-13 9-22t22-9h112q13-1 22.5 8.5T238 103v125zm-38-119H100q-10 0-17.5 7.5T75 134v62q0 11 7.5 18t17.5 7h100q10 0 17.5-7t7.5-18v-62q0-10-7.5-17.5T200 109zm-81 75q-8 0-13.5-5.5T100 165q0-8 5.5-13.5t13.5-5q8 .5 13.5 5.5t5 13q-.5 8-5.5 13.5t-13 5.5zm62 0q-8 0-13.5-5.5t-5-13.5q.5-8 5.5-13.5t13-5q8 .5 13.5 5.5t5.5 13q0 8-5.5 13.5T181 184z"/></svg>