<svg viewBox="0 0 300 368" xmlns="http://www.w3.org/2000/svg"><path d="M300 196q0 30-11.5 57.5T256 302q-11 12-28 13t-30-10l-17-13q-4-3-5.5-7.5t-1-9.5q.5-5 4-9t8-6q4.5-2 9.5-1t9 4l16 13q2 2 4.5 1.5t4.5-1.5q21-22 28.5-51t0-58q-7.5-29-29-50.5t-50.5-29q-29-7.5-58 0t-50.5 29Q49 138 41.5 167t0 58Q49 254 70 275q2 2 4.5 2.5T79 276l15-13q6-5 14-4t13 7q5 6 4 13.5t-7 12.5l-15 13q-14 11-31 10t-29-13q-24-25-35-58t-7-67q5-43 33-75 26-31 64.5-45.5T176 49q42 7 74 36 24 21 37 50t13 62v-1zm-93 37q8 2 14.5-1.5t9-11Q233 213 229 206t-11-9l-47-14q-5-8-15-10.5t-18.5 2.5q-8.5 5-11.5 14.5t1.5 18.5q4.5 9 14 12t18.5-1l47 14z"/></svg>