<svg viewBox="0 0 300 368" xmlns="http://www.w3.org/2000/svg"><path d="M125 146q0 11-7.5 18t-17.5 7q-10 0-17.5-7T75 146.5q0-10.5 7.5-17.5t17.5-7.5q10-.5 17.5 7T125 147v-1zm75-25q-10 0-17.5 7.5t-7.5 18q0 10.5 7.5 17.5t17.5 7q10 0 17.5-7t7.5-17.5q0-10.5-7.5-18T200 122v-1zm100 63q-2-57-33-95-29-35-73-47.5t-88 0Q62 54 33 89 2 127 0 184q0 8 5.5 13.5T19 203q8 0 13.5-5.5T38 184q1-43 25-72 21-26 54-35t66 0q33 9 54 35 24 29 26 72-1 27-13.5 51.5t-35 40Q192 291 165 295t-53-5q-4-2-9-1t-9 4.5q-4 3.5-5.5 8t-1 9.5q.5 5 4 9t8.5 5q34 13 70.5 8t66-26.5Q266 285 283 253t17-69zM38 240q0 13 9 22t22 9q13 0 22-9t9-22q0-7-6.5-24T79 190q-10-11-17-3-20 23-25 53h1zm175 7q6-5 6-13t-6-13q-13-12-29-18.5t-34-6.5q-12 1-23 3-8 2-12 9t-2 14.5q2 7.5 8.5 11.5t14.5 2q13-4 26.5-.5T187 247q5 6 13 6t13-6z"/></svg>