<svg viewBox="0 0 300 368" xmlns="http://www.w3.org/2000/svg"><path d="M250 84h-13q-2-16-14.5-26.5T194 47H69q-18-1-31 12T25 90v100q0 19 9.5 34.5t25 25Q75 259 94 259h75q23 0 41.5-14t24.5-36h15q21 0 35.5-14.5T300 159v-25q0-21-14.5-35.5T250 84zm-81 137H94q-13 0-22.5-9T63 190V90q-1-2 1-4t5-2h31v35l-5 6q-8 7-8 17v23q1 8 6 13.5t13 5.5h25q8 0 13.5-5.5T150 165v-23q0-10-7-17l-5-6V84h56q2 0 4 2t2 4v100q0 13-9 22.5t-22 9.5v-1zm94-62q0 5-4 8.5t-9 3.5h-12v-50h12q5 0 9 4t4 9v25zm0 144q0 8-5.5 13.5T244 321H19q-8 0-13.5-5T0 303q0-8 5.5-13.5T19 284h225q8 0 13 5.5t5 13.5h1z"/></svg>