<svg viewBox="0 0 300 368" xmlns="http://www.w3.org/2000/svg"><path d="M287 117q-8-10-19.5-15.5T244 96h-31v-6q0-13-9.5-22T181 59h-12v-6q0-8-5.5-13.5T150 34q-8 0-13.5 5.5T131 53v6h-12q-13 0-22 9t-9 22v6H56q-12 0-23.5 5.5T13 117q-8 10-11 22t-1 25l9 45q4 22 21.5 36T71 259h17v31q0 18 12.5 31t30.5 13h38q18 0 31-13t13-31v-31h16q22 0 39.5-14t21.5-36l9-45q2-13-1-25t-11-22zM88 184H43l-5-28q-2-8 3.5-15t14.5-7h32v50zm87 106q0 3-2 4.5t-4 1.5h-38q-2 0-4-1.5t-2-4.5v-31h50v31zm0-106h-50v-50h50v50zm87-28l-5 28h-44v-50h31q9 0 14.5 7t3.5 15z"/></svg>