<svg viewBox="0 0 300 368" xmlns="http://www.w3.org/2000/svg"><path d="M163 250q5 6 5.5 13.5t-4.5 14q-5 6.5-14 6.5t-14.5-6.5q-5.5-6.5-5-14T137 250l8-8q2-2 4.5-2t4.5 2l9 8zm137 65q0 8-5.5 13.5T281 334H19q-8 0-13.5-5.5T0 316q0-7 3.5-11.5T13 298V84L1 60q-3-10 3.5-18T21 34h258q10 0 16.5 8t3.5 18l-11 24v214q5 2 8.5 6.5T300 315zM50 84v212h25V189q0-16 9-28.5t23-18.5q22-8 43-8t43 8q14 6 23 18.5t9 28.5v107h25V84H50zm103 212q20-1 33.5-15.5T200 246q0-15-14-33-8-9-27-26l-5-5q-2-2-5-1.5t-4 3.5q-5 8-9 26-2 9-4 13t-4.5 4q-2.5 0-3.5-2l-3-10q-1-3-4-3.5t-4 1.5q-8 10-11 22-4 15 1 28 7 16 20.5 25t29.5 9v-1z"/></svg>