<svg viewBox="0 0 300 368" xmlns="http://www.w3.org/2000/svg"><path d="M195 204l-18 17 18 18q5 6 5 14t-5.5 13q-5.5 5-13.5 5t-13-5l-18-18-18 18q-5 5-13 5t-13.5-5q-5.5-5-5.5-13t5-14l18-18-18-17q-5-6-5-14t5.5-13q5.5-5 13.5-5t13 5l18 18 18-18q5-5 13-5t13.5 5q5.5 5 5.5 13t-6 14h1zm105-76v137q0 19-9.5 34.5t-25 25Q250 334 231 334H69q-19 0-34.5-9.5t-25-25Q0 284 0 265V128q0-19 9.5-34.5t25-25Q50 59 69 59h6v-6q0-8 5.5-13.5T94 34q8 0 13.5 5.5T113 53v6h75v-6q0-8 5-13.5t13-5.5q8 0 13.5 5.5T225 53v6h6q19 0 34.5 9.5t25 25Q300 109 300 128zm-37 137V146H38v119q0 13 9 22t22 9h162q13 0 22.5-9t9.5-22z"/></svg>