<svg viewBox="0 0 300 368" xmlns="http://www.w3.org/2000/svg"><path d="M119 65q0-13 9-22t22-9q13 0 22 9t9 22q0 13-9 22.5t-22 9q-13-.5-22-9.5t-9-22zm172 1l-18-5-5-18q-1-4-4-6.5t-7.5-2.5q-4.5 0-8 2.5T244 43l-4 18-18 4q-4 1-6.5 4.5t-3 7.5q-.5 4 2.5 7.5t7 4.5l18 5 4 18q1 4 4.5 7t8 3q4.5 0 7.5-3t4-7l5-18 18-4q4-1 6.5-4.5t2.5-8q0-4.5-2.5-7.5t-6.5-4zM46 141l7-17 16-6q6-3 6-9t-6-9l-16-6-7-17q-2-6-8.5-6T29 77l-7 17-16 6q-6 2-6 8.5t6 8.5l16 7 7 17q2 6 8.5 6t8.5-6zm214 64q4 7 2 14.5t-8 11.5q-5 3-10 3-11 0-16-9l-28-44v115h31q8 0 13.5 5.5T250 315q0 8-5.5 13.5T231 334H69q-8 0-13.5-5.5T50 315q0-8 5.5-13.5T69 296h31V181l-28 44q-4 7-11.5 8.5t-14-2.5q-6.5-4-8.5-11.5t2-14.5l42-66q10-14 25-22t32-8h22q17 0 32 8t25 22l42 66zm-122-58v62h25v-62h-25zm25 149v-50h-25v50h25z"/></svg>