<svg viewBox="0 0 300 368" xmlns="http://www.w3.org/2000/svg"><path d="M10 169q7 4 14.5 2t10.5-9q7-13 20-20.5t28.5-7.5q15.5 0 29.5 7.5t21 20.5q2 4 6.5 6.5t9.5 2.5q5 0 9.5-2.5t6.5-6.5q7-13 20-20.5t29-7.5q16 0 29.5 7.5T265 162q2 4 6.5 6.5t9.5 2.5q5 0 9-2 7-4 9-11t-1-14q-10-18-26.5-29.5T234 98q-7-28-30.5-46T150 34q-30 0-53.5 18T66 98q-21 4-37.5 16T2 144q-3 7-1 14.5t9 10.5zm140-98q14 0 26 7.5T195 99q-26 5-45 23-19-17-45-23 7-13 19-20.5t26-7.5zm149 146l-9 23q-9 15-23 22-11 7-29 8-11 2-34 1h-35v25h25q8 0 13.5 5.5T213 315q0 8-5.5 13.5T194 334h-88q-8 0-13-5.5T88 315q0-8 5-13t13-5h25v-26H96q-23 1-34-1-17-1-29-8-14-7-23-22l-9-23q-3-7 1.5-14t12.5-7h270q8 0 12.5 7t1.5 14z"/></svg>