<svg viewBox="0 0 300 368" xmlns="http://www.w3.org/2000/svg"><path d="M231 59H69q-19 0-34.5 9.5t-25 25Q0 109 0 128v112q0 19 9.5 34.5t25 25Q50 309 69 309h162q19 0 34.5-9.5t25-25Q300 259 300 240V128q0-19-9.5-34.5t-25-25Q250 59 231 59zm32 181q0 13-9.5 22.5T231 271H69q-13 0-22-9t-9-22V128q0-13 9-22.5T69 96h162q13 0 22.5 9.5T263 128v112zm-25-100v25q0 8-5.5 13.5T219 184h-50q-8 0-13.5-5.5T150 165v-25q0-8 5.5-13.5T169 121h50q8 1 13.5 6t5.5 13zM63 165q0-8 5-13t13-5h25q8 0 13.5 5t5.5 13q0 8-5.5 13.5T106 184H81q-8 0-13.5-5.5T62 165h1zm175 63q0 8-5.5 13.5T219 247H81q-8-1-13.5-6t-5-13q.5-8 5.5-13.5t13-5.5h138q8 0 13 5.5t5 13.5h1z"/></svg>