<svg viewBox="0 0 300 368" xmlns="http://www.w3.org/2000/svg"><path d="M94 196q-24 0-40.5-16t-16-39.5q.5-23.5 16.5-40T93.5 84q23.5 0 40 16.5t16.5 40q0 23.5-16.5 39.5T94 196zm0-75q-8 0-13.5 5.5T75 140q0 8 5.5 13.5T94 159q8 0 13-5.5t5-13.5q0-8-5-13.5T94 121zm94 194q0-25-13-46.5T140.5 234q-21.5-13-47-13t-47 13q-21.5 13-34 34.5T0 315q0 8 5.5 13.5T19 334q8 0 13.5-5.5T38 315q0-23 16-39.5T93.5 259q23.5 0 40 16.5T150 315q0 8 5.5 13.5T169 334q8 0 13.5-5.5T188 315zm112-56q0-25-13.5-46.5T250 180q-23-11-48.5-8T157 191q-6 5-7 13t4 14q5 6 13 6.5t14-4.5q14-11 32-11 20 0 35 14.5t15 35.5q0 8 5 13.5t13 5.5q8 0 13.5-5.5T300 259zm-81-113q-24 0-40-16t-16-39.5q0-23.5 16-40T218.5 34q23.5 0 40 16.5t16.5 40q0 23.5-16.5 39.5T219 146zm0-75q-8 0-13.5 5.5T200 90q0 8 5.5 13.5T219 109q8 0 13.5-5.5T238 90q0-8-5.5-13.5T219 72v-1z"/></svg>