<svg viewBox="0 0 300 368" xmlns="http://www.w3.org/2000/svg"><path d="M175 152q-21-31-50-31-15 0-28 9-8 5-21 20L5 252q-6 13-5 28t9 27q8 12 21 19.5t27 7.5h136q14 0 27-7.5t21-19.5q8-12 9-27t-5-28l-70-100zm34 135q-5 9-16 9h-23l-28-51q-3-7-10-9.5t-14 0q-7 2.5-10 9.5l-28 51H57q-10 0-16-9t-2-18l66-95q9-10 12.5-12.5t7.5-2.5q9 0 20 14l66 96q4 9-2 18zm75-59q-5 6-13 6t-13.5-5q-5.5-5-5.5-13t5-14q4-3 5-8.5t-1-11.5l-66-96q-11-14-20-14-4 0-7.5 2T155 87l-2 2q-5 7-12.5 8t-14-3q-6.5-4-7.5-12t3-14l4-5q13-15 21-21 13-8 28-8 29 0 50 30l70 101q7 16 4 33t-15 30z"/></svg>