<svg viewBox="0 0 300 368" xmlns="http://www.w3.org/2000/svg"><path d="M0 265V103q0-19 9.5-34.5t25-25Q50 34 69 34h162q19 0 34.5 9.5t25 25Q300 84 300 103v162q0 19-9.5 34.5t-25 25Q250 334 231 334H69q-19 0-34.5-9.5t-25-25Q0 284 0 265zm263-162q0-13-9.5-22.5T231 71H69q-13 1-22 10t-9 22v162q0 13 9 22t22 9h162q13 0 22.5-9t8.5-22l1-162zm-163 81q0-18 12-31l38-38q4-4 9-5.5t10-.5q5 1 8.5 4.5t5 8.5q1.5 5 0 10t-5.5 9l-38 39q-2 1-2 4t2 4l38 39q4 4 5.5 9t0 10q-1.5 5-5 8.5T169 259q-5 1-10-.5t-9-5.5l-38-38q-12-13-12-31z"/></svg>