<svg viewBox="0 0 300 368" xmlns="http://www.w3.org/2000/svg"><path d="M231 34H69q-19 0-34.5 9.5t-25 25Q0 84 0 103v162q0 19 9.5 34.5t25 25Q50 334 69 334h162q19 0 34.5-9.5t25-25Q300 284 300 265V103q0-19-9.5-34.5t-25-25Q250 34 231 34zm32 231q0 13-9.5 22t-22.5 9H69q-13 0-22.5-9T37 265V103q1-13 10-22.5T69 71h162q13 0 22 9.5t9 22.5v162h1zm-113 6q23 0 39.5-16t16.5-39.5q0-23.5-16.5-40T150 159q-9 0-17 3 3-17 13-22.5t29-5.5q8 0 13.5-5.5T194 115q0-8-5.5-13.5T175 96q-41 0-61 21.5T94 183v32q0 24 16.5 40t39.5 16zm0-75q8 0 13.5 5.5T169 215q0 8-5.5 13.5T150 234q-8 0-13.5-5.5T131 215q0-8 5.5-13t13.5-5v-1z"/></svg>