<svg viewBox="0 0 300 368" xmlns="http://www.w3.org/2000/svg"><path d="M13 78q-1-13 8.5-22.5T44 46q13 0 22 9.5T75 78q0 13-9 22t-22 9q-13 0-22-9t-9-22zm154 42l3-1q-1-5-1-10t1-10l-3-1q-7-4-9-11.5t1.5-14.5q3.5-7 11-9t14.5 2l3 2q8-7 18-11v-3q0-8 5.5-13.5T225 34q8 0 13.5 5.5T244 53v3q10 4 18 11l3-2q7-4 14.5-2t11 9q3.5 7 1.5 14.5T283 98l-3 1q1 5 1 10t-1 10l3 1q7 4 9 11.5t-2 14.5q-2 4-6.5 6.5T274 155q-5 0-9-2l-3-2q-8 7-18 11v3q0 8-5.5 13.5T225 184q-8 0-13.5-5.5T206 165v-3q-10-4-18-11l-3 2q-4 2-9 2t-9.5-2.5Q162 150 160 146q-4-7-2-14.5t9-11.5zm58 8q8 0 13.5-5.5T244 109q0-8-5.5-13.5T225 90q-8 0-13.5 5.5T206 109q0 8 5.5 13.5T225 128zm72 64q-5-6-12.5-7.5T271 187L108 300q-6 5-7.5 12.5T104 327q5 7 15 7 6 0 10-3l163-113q6-4 7.5-12t-2.5-14zm-172 61v-19q0-10-7.5-17.5T100 209H75v-38h8q19 0 31-12l24-24q6-6 6-13.5t-5.5-13Q133 103 125 103t-13 5l-24 24q-2 2-5 2H44q-13 0-22 9t-9 22v114l-1 3-11 26q-3 8 .5 15T12 333q3 1 7.5 1t9.5-3q5-3 7-9l11-27q3-7 3-16v-33h37v7q0 8 5.5 13.5t13.5 5q8-.5 13.5-5.5t5.5-13z"/></svg>