<svg viewBox="0 0 300 368" xmlns="http://www.w3.org/2000/svg"><path d="M288 196q-1-28-19.5-49T222 123q3-10 3-20-1-20-11.5-36t-27-25Q170 33 150 33t-36.5 9q-16.5 9-27 25T75 103q0 10 3 20-28 3-46.5 24T12 196q1 21 11.5 38.5T52 262q18 10 39 9.5t39-12.5q-3 16-10 26-10 12-26 12H81q-8-1-13 4.5T63 315q0 8 5 13.5t13 5.5h138q8 0 13.5-5.5t5-13.5q-.5-8-5.5-13.5t-13-5.5h-13q-14 0-24-11-8-10-11-26 17 12 38 12.5t39-9.5q18-10 28.5-27.5T287 196h1zM150 71q14-1 25 8.5t12 23.5q-1 10-6.5 19t-14 15.5Q158 144 150 152q-7-8-16-14.5T119.5 122q-5.5-9-7.5-19 2-14 13-23.5t25-7.5v-1zM91 234q-17 1-28.5-10T51 196.5Q51 180 62.5 169T90 158.5q16 .5 31 16.5 7 9 12 18l2 3-2 4q-1 2-5 9-7 10-15 16-11 9-22 9zm76-34l-2-4 2-3q4-7 12-17 15-17 31-17.5t27.5 10.5q11.5 11 11.5 27.5T237.5 224Q226 235 210 234.5T179 217q-8-9-12-17z"/></svg>