<svg viewBox="0 0 300 368" xmlns="http://www.w3.org/2000/svg"><path d="M206 34h-74q-16 0-31 6T75 58L49 84q-12 11-18 26t-6 31v124q0 19 9.5 34.5t25 25Q75 334 94 334h112q19 0 34.5-9.5t25-25Q275 284 275 265V103q0-19-9.5-34.5t-25-25Q225 34 206 34zm32 231q0 13-9.5 22t-22.5 9H94q-13 0-22.5-9T62 265V141q1-18 13-31l26-26q13-12 31-13h74q13 0 22 9.5t9 22.5v162h1zm-25-150v13q0 8-5.5 13t-13.5 5.5q-8 .5-13.5-5T175 128v-13q0-8 5.5-13t13.5-5.5q8-.5 13 5t6 13.5zm-50 0v13q0 8-5.5 13t-13.5 5.5q-8 .5-13.5-5T125 128v-13q0-8 5.5-13t13.5-5.5q8-.5 13.5 5T163 115z"/></svg>