<svg viewBox="0 0 300.0036 368" xmlns="http://www.w3.org/2000/svg"><path d="M291 215L226 90q-14-26-41-37.5T130 50q-22-16-49-16-22 0-40.5 11T11 74.5Q0 93 0 115v138q0 22 11 40.5T40.5 323q18.5 11 40 11t39.5-10q18-10 29-27 16 25 44 33 12 4 25 4 19 0 38.5-10t31-28q11.5-18 12.5-40t-9-41zm-166 38q0 18-13 30.5T81 296q-18 0-30.5-12.5T38 253v-50h87v50zm0-88H38v-50q0-18 12.5-31T81 71q18 0 31 13t13 31v50zm31-81q12 0 21.5 6.5T193 107l23 45-54 30v-67q0-16-6-31zm105 181q-6 18-22 26-8 4-17 5t-17-1q-18-6-26-22l-16-31v-18l71-39 24 47q8 16 3 33z"/></svg>