<svg viewBox="0 0 300 368" xmlns="http://www.w3.org/2000/svg"><path d="M275 283q12-13 18.5-28.5T300 222q0-32-20-56-5-6-12.5-7t-13.5 4q-6 5-7 13t4 14q12 14 12 33t-14 33l-49-48q12-13 18.5-28.5T225 146q0-23-12-43t-32-32q-20-12-43-12H88q-16 0-31 5L32 39q-5-5-13-5T5.5 39.5Q0 45 0 53t5 13l263 263q5 5 13 5t13.5-5.5Q300 323 300 315t-5-13l-20-19zM138 96q20 0 35 15t15 35.5q0 20.5-14 34.5L89 96h49zm-89 82q5 6 4 14t-6.5 12.5q-5.5 4.5-13 4.5T20 202Q0 178 0 147v-8q1-8 7-13t13.5-4.5Q28 122 33 128t5 14l-1 4q0 18 12 32zm139 112q-1 8-6 13.5t-13 5.5h-6q-24 0-44-12t-32-32q-12-20-12-44v-7q1-8 7-13t13.5-4.5q7.5.5 12.5 6.5t5 14l-1 5q0 20 15 34.5t35 14.5h7q8 1 13 6t5 13h1z"/></svg>