<svg viewBox="0 0 300 368" xmlns="http://www.w3.org/2000/svg"><path d="M300 127q0-16-6.5-30.5T276 71l-31-32q-6-5-14-5t-13.5 5.5Q212 45 212 53t6 13l20 20v29q-1 11 6.5 20t17.5 11v119q0 3-1.5 5t-4 1.5q-2.5-.5-4.5-2t-2-4.5v-12q0-18-13-31t-31-13h-6V103q0-19-9.5-34.5t-25-25Q150 34 131 34H69q-19 0-34.5 9.5t-25 25Q0 84 0 103v162q0 19 9.5 34.5t25 25Q50 334 69 334h62q19 0 34.5-9.5t25-25Q200 284 200 265v-19h6q3 1 4.5 2.5t2.5 4.5v12q0 18 12.5 31t30.5 13q18 0 31-13t13-31V127zM69 71h62q13 0 22.5 9.5T162 103v43H38v-43q0-13 9-22.5T69 72v-1zm94 194q0 13-9.5 22t-22.5 9H69q-13 0-22-9t-9-22v-81h125v81z"/></svg>