<svg viewBox="0 0 300 368" xmlns="http://www.w3.org/2000/svg"><path d="M231 146h-50q-18 1-34 10t-25 25q-9 16-10 34v50q1 19 10 34.5t25 25q16 9.5 34 9.5h50q19 0 34.5-9.5t25-25Q300 284 300 265v-50q0-18-9.5-34t-25-25q-15.5-9-34.5-9v-1zm32 119q-1 13-10 22t-22 9h-50q-13 0-22-9t-9-22v-50q0-13 9-22t22-9h50q13 0 22.5 9t8.5 22l1 50zM83 199q4 4 5.5 9t0 10q-1.5 5-5 8.5T75 231q-5 1-10 0t-8-5l-36-36q-10-10-15.5-23T0 140q0-14 5.5-26.5T21 91l36-37q10-9 22.5-14.5T106 34q14 0 27 5.5T156 54l36 37q4 3 5 8t0 10q-1 5-4.5 8.5t-8.5 5q-5 1.5-10 0t-9-5.5l-36-36q-9-9-22.5-9T83 81l-36 36q-10 10-10 23.5T47 163l36 36zm117 16q0 8-5.5 13.5T181 234q-8 0-13.5-5.5t-5-13.5q.5-8 5.5-13t13-5.5q8-.5 13.5 5T200 215zm-94-56q-8 0-13-5.5T88 140q0-8 5-13.5t13-5.5q8 0 13.5 5.5T125 140q0 8-5.5 13.5T106 159zm144 106q0 8-5.5 13.5T231 284q-8 0-13.5-5.5t-5-13.5q.5-8 5.5-13.5t13-5.5q8 0 13.5 5.5T250 265z"/></svg>