<svg viewBox="0 0 300 368" xmlns="http://www.w3.org/2000/svg"><path d="M231 34H69q-19 0-34.5 9.5t-25 25Q0 84 0 103v100q0 18 9.5 34t25 25Q50 271 69 272h62v24H94q-8 0-13.5 5.5T75 315q0 8 5.5 13.5T94 334h112q8 0 13.5-5.5T225 315q0-8-5.5-13.5T206 296h-37v-25h62q19 0 34.5-9t25-25q9.5-16 9.5-34V103q0-19-9.5-34.5t-25-25Q250 34 231 34zm32 169q-1 13-10 22t-22 9H69q-13 0-22-9t-9-22V103q0-13 9-22.5T69 72h162q13-1 22.5 8.5T262 103l1 100zm-25-50q-1 8-6 13.5t-13 5.5h-15l-20 29q-5 8-15 8h-1q-5 0-9.5-3t-6.5-7l-23-46-7 10q-6 8-16 9H81q-8-1-13-6t-5-13q0-8 5-13.5t13-5.5h15l20-29q2-4 6.5-6.5t9.5-2q5 .5 9.5 3t6.5 7.5l23 46 7-11q6-8 16-8h25q8 0 13.5 5.5T238 153z"/></svg>