<svg viewBox="0 0 300 368" xmlns="http://www.w3.org/2000/svg"><path d="M231 153q8 0 13.5-5.5T250 134v-9q0-18-9-33t-24-24q-15-9-33-9h-15v-6q0-8-5.5-13.5T150 34q-8 0-13.5 5.5T131 53v6h-15q-24 0-43 16t-22.5 40.5Q47 140 60 161t37 28l34 9v73h-15q-12 0-20-8t-8-20v-9q0-8-5.5-13.5T69 215q-8 0-13.5 5.5T50 234v9q0 18 9 33t24 24q15 9 33 9h15v6q0 8 5.5 13.5T150 334q8 0 13.5-5.5T169 315v-6h15q24 0 43-16t22.5-40.5Q253 228 240 207t-37-28l-34-9V96h15q12 1 20 9t8 20v9q1 8 6 13.5t13 5.5zm-39 62q10 3 16 12t4.5 20q-1.5 11-10 18t-18.5 6h-15v-62l23 6zm-61-56l-23-6q-10-3-16-12t-4.5-20q1.5-11 10-17.5T116 97h15v62z"/></svg>