<svg viewBox="0 0 300 368" xmlns="http://www.w3.org/2000/svg"><path d="M88 71q0 16-11 27t-27 11q-16 0-26.5-11t-11-26.5Q12 56 23 45t27-11q16 0 26.5 11T88 72v-1zm62-37q-16 0-26.5 11T113 71.5Q113 87 123.5 98t26.5 11q16 0 26.5-11t11-26.5Q188 56 177 45t-27-11zm100 75q16 0 27-11t11-26.5Q288 56 277 45t-27-11q-16 0-26.5 11T213 71.5Q213 87 223.5 98t26.5 11zM69 134H31q-8 0-13.5 5.5t-5 13.5q.5 8 5.5 13t13 5h38q8 0 13.5-5t5.5-13q0-8-5.5-13.5T69 134zm0 75H31q-8 0-13.5 5.5t-5 13.5q.5 8 5.5 13.5t13 5.5h38q8-1 13.5-6t5.5-13q0-8-5.5-13.5T69 209zm100-75h-38q-8 0-13.5 5.5T112 153q0 8 5.5 13t13.5 5h38q8 0 13.5-5t5.5-13q0-8-5.5-13.5T169 134zm0 75h-38q-8 0-13.5 5.5t-5 13.5q.5 8 5.5 13.5t13 5.5h38q8-1 13.5-6t5-13q-.5-8-5.5-13.5t-13-5.5zm100-75h-38q-8 0-13.5 5.5t-5 13.5q.5 8 5.5 13t13 5h38q8 0 13-5t5-13q0-8-5-13.5t-13-5.5zm0 75h-38q-8 0-13.5 5.5t-5 13.5q.5 8 5.5 13.5t13 5.5h38q8-1 13.5-6t5.5-13q0-8-5.5-13.5T269 209zM69 284H31q-8 0-13 5.5T13 303q0 8 5 13t13 5h38q8 0 13.5-5t5.5-13q0-8-5.5-13.5T69 284zm100 0h-38q-8 0-13.5 5.5t-5 13.5q.5 8 5.5 13t13 5h38q8 0 13.5-5t5-13q-.5-8-5.5-13.5t-13-5.5zm100 0h-38q-8 0-13.5 5.5t-5 13.5q.5 8 5.5 13t13 5h38q8 0 13.5-5t5.5-13q0-8-5.5-13.5T269 284z"/></svg>