<svg viewBox="0 0 300 368" xmlns="http://www.w3.org/2000/svg"><path d="M113 171q-6 0-9.5-3.5T100 159q0-11 7-18 4-4 12-9 3-1 5-4.5t1-8q-1-4.5-3.5-7T115 109q-6-1-10.5 3t-4.5 9.5q0 5.5-3.5 9t-9 3.5q-5.5 0-9-3.5T75 122q0-18 13.5-29.5T119 85q12 2 20 10t10 20q2 12-3 23t-15 16q-6 3-6 5 0 5-3.5 9t-9.5 4l1-1zm112-16q1-25-7.5-48T192 67q-17-17-40-26t-48-7q-27 2-51 18.5T14.5 95Q0 121 0 150v59q0 21 14.5 35.5T50 259h52q32 0 59.5-14t44.5-38q17-24 19-52zm-59-62q11 12 16.5 27.5T187 152q-1 19-13 35t-31 25q-19 9-41 9H50q-5 0-9-3.5t-4-8.5v-59q1-19 10.5-36.5t25.5-29Q89 73 107 72l5-1q15 0 29 6t25 16zm-53 91q-6 0-9.5 3.5t-3.5 9q0 5.5 3.5 9t9 3.5q5.5 0 9-3.5t3.5-9q0-5.5-3.5-9T113 184zm149-28q-5-4-12-8 0 21-7 41 9 10 14.5 22t5.5 26v53q0 3-2 4.5t-5 1.5h-48q-16 0-29.5-5T155 276q-20 6-41 7 4 8 9 13 15 18 37 28t48 10h48q18 0 31-13t13-31v-53q0-24-10-45t-28-36z"/></svg>