<svg viewBox="0 0 300.007 368" xmlns="http://www.w3.org/2000/svg"><path d="M200 96q-10 1-18.5 7T170 119l-50 170q-3 9-10 14.5T94 309q-9 0-16-5t-10-14l-29-83q-3-9-9.5-15T15 184q-8-2-12-9T.5 160.5Q2 153 9 149t14-2q18 5 31.5 17.5T74 194l19 54 41-140q6-22 24.5-35.5T200 59h81q8 0 13.5 5.5T300 78q0 8-5.5 13.5T281 97l-81-1zm93 79q-7-4-14.5-3t-12.5 7l-22 30-23-30q-4-6-12-7t-14 3.5q-6 4.5-7 12t3 13.5l29 39-29 39q-3 4-3.5 9t1.5 9.5q2 4.5 6 7.5t9 3.5q5 .5 9.5-1t7.5-6.5l23-30 22 30q5 7 12.5 8t14-3.5Q299 301 300 293t-4-14l-29-39 29-39q5-6 4-13.5t-8-12.5h1z"/></svg>