<svg viewBox="0 0 300 368" xmlns="http://www.w3.org/2000/svg"><path d="M169 60v-7q0-8-5.5-13.5T150 34q-8 0-13.5 5.5T131 53v7q-36 5-65 27.5T23 144q-14 34-9 70.5T41 280q-8 7-12 16t-4 19q0 8 5.5 13.5T44 334q8 0 13.5-5.5T63 315q-1-3 .5-5t4.5-3q24 18 53 24t58 0q29-6 53-24 3 1 4.5 3t.5 5q1 8 6 13.5t13 5.5q8 0 13.5-5.5T275 315q0-10-4-19t-12-16q22-29 27-65.5t-9-70.5q-14-34-43-56.5T169 60zM50 196q0-27 13.5-50t36.5-36q23-13 50-13.5t50 13q23 13.5 36.5 36.5t13.5 50.5q0 27.5-13.5 50.5T200 283q-23 13-50 13t-50-13q-23-13-36.5-36T50 196zM244 34q-8 0-13.5 5.5T225 53q0 8 5.5 13.5t13.5 5 13.5 5q5.5 5.5 5 13.5t5 13.5Q273 109 281 109t13-5.5q5-5.5 5-13.5 1-11-3-21.5T284 50q-8-8-18.5-12T244 34zM38 90q-1-8 4.5-13.5T56 71q8 0 13.5-5T75 53q0-8-5.5-13.5T56 34q-11 0-21.5 4T16 50Q8 58 4 68.5T1 90q0 8 5 13.5t13 5.5q8 0 13.5-5.5T38 90zm131 99v-49q0-8-5.5-13.5t-13-5.5q-7.5 0-13 5.5T132 140v54q0 10 7 18l22 22q6 5 13.5 5t13-5.5q5.5-5.5 5.5-13t-5-13.5l-19-18z"/></svg>