<svg viewBox="0 0 300 368" xmlns="http://www.w3.org/2000/svg"><path d="M176 47q2-7 9-10.5t14-1.5q19 5 31.5 18T249 85q2 7-1.5 14t-10.5 9q-3 1-6 1-6 0-11-3.5t-7-9.5q-6-20-24-25-8-2-11.5-9T176 47zM62 297q-19-5-25-25-3-7-9.5-10.5t-14-1.5q-7.5 2-11 9T1 283q6 19 18.5 32T51 333q3 1 5 1 6 0 11-3.5t7-10.5q2-7-1.5-14T62 297zm55-132q6 5 13.5 5t13-5.5q5.5-5.5 5.5-13t-5-13.5L69 64q-5-6-13-5.5t-13.5 6Q37 70 37 77.5T43 91l74 74zm-40 39q5 5 13 5t13.5-5.5q5.5-5.5 5.5-13t-6-13.5l-71-70q-5-6-13-6t-13.5 5.5Q0 112 0 120t6 13l71 71zm181-95q-9 2-14.5 9.5T238 135v18L136 52q-5-6-13-5.5T109.5 52q-5.5 5-5.5 13t6 14l122 121q11 12 11 28.5T231 257l-22 23q-17 16-40.5 16T128 280l-96-96q-6-5-13.5-5t-13 5.5Q0 190 0 197.5T6 211l95 95q14 14 31.5 21t36 7q18.5 0 36-7t30.5-21l23-22 5-6q12-11 18.5-26.5T287 219v-85q1-12-8-19.5t-21-5.5z"/></svg>