<svg viewBox="0 0 300 368" xmlns="http://www.w3.org/2000/svg"><path d="M44 103h212q8 0 13.5 5.5T275 121q0 8-5.5 13.5T256 140H44q-8 0-13.5-5.5T25 121q0-7 5.5-12.5T44 103zm0-63h212q8 0 13.5 5.5T275 59q0 8-5.5 13.5T256 78H44q-8 0-13.5-5.5T25 59q0-8 5.5-13.5T44 40zm187 288H69q-19 0-34.5-9.5t-25-25Q0 278 0 259v-50q0-18 13-31t31-13h44q7 0 12.5 5.5T106 184q0 13 9.5 22t22.5 9h25q12 0 21.5-9t9.5-22q0-8 5.5-13.5T213 165h43q18 0 31 13t13 31v50q0 19-9.5 34.5t-25 25Q250 328 231 328zM44 203q-3 0-4.5 1.5T38 209v50q0 13 9 22t22 9h162q13 0 22-9t9-22v-50q1-3-1-4.5t-5-1.5h-27q-7 22-25 36t-42 14h-25q-23 0-41-14t-25-36H44z"/></svg>