<svg viewBox="0 0 300 368" xmlns="http://www.w3.org/2000/svg"><path d="M150 34q-41 0-75.5 20T20 108.5Q0 143 0 184t20 75.5Q40 294 74.5 314t75.5 20q41 0 75.5-20t54.5-54.5q20-34.5 20-75.5t-20-75.5Q260 74 225.5 54T150 34zm113 150q0 36-21 65l-42-42q0-3-1-11h14q5 0 8.5-3.5t3.5-8.5q0-5-3.5-9t-8.5-4h-19l-3-12q14-2 24-12.5t10-25.5q0-5-3.5-8.5t-9-3.5q-5.5 0-9 3.5t-3.5 9-3.5 9Q193 134 188 134h-4q-5-13-13.5-19t-20.5-6q-20 0-30 18L85 92q29-21 65-21 31 0 56.5 15.5t41 41.5q15.5 26 15.5 56zm-225 0q0-36 20-65l157 156q-29 21-65 21-31 0-56.5-15t-41-41Q37 214 37 184h1zm124 73q-6 2-12 2-13 0-24.5-6.5T108 235q-4 1-6 4.5t-2 8q0 4.5-3.5 8t-9 3.5q-5.5 0-9-3.5T75 246q0-11 7-21t18-14v-2q0-4 1-12l61 60zm-87-73q0-5 4-9l22 21H88q-6 0-9.5-3.5T75 184z"/></svg>