<svg viewBox="0 0 300 368" xmlns="http://www.w3.org/2000/svg"><path d="M231 71h-62V53q0-8-5.5-13.5T150 34q-8 0-13.5 5.5T131 53v18H69q-19 0-35 9.5T9 106q-9 16-9 34v88q0 18 9 34t25 25.5q16 9.5 35 9.5h162q19-1 35-10t25-25q9-16 9-34v-88q0-18-9-34t-25-25.5Q250 71 231 71zm32 157q-1 13-10 22t-22 9H69q-13 0-22-9t-9-22v-88q0-13 9-22t22-9h162q13 0 22 9t9 22l1 88zM63 153q0 8 5 13.5t13 5q8-.5 13.5-5.5t5.5-13q0-8-5.5-13.5T81 134q-8 0-13.5 5.5T63 153zm62 0q0 8 5.5 13.5t13.5 5q8-.5 13-5.5t5.5-13q.5-8-5-13.5T144 134q-8 0-13.5 5.5T125 153zm94-19h-13q-8 0-13.5 5.5t-5 13.5q.5 8 5.5 13.5t13 5.5h13q8-1 13.5-6t5-13q-.5-8-5.5-13.5t-13-5.5zm-75 62H81q-8 0-13.5 5.5t-5 13.5q.5 8 5.5 13.5t13 5.5h63q8 0 13-5.5t5.5-13.5q.5-8-5-13t-13.5-6zm75 0h-13q-8 0-13.5 5.5t-5 13.5q.5 8 5.5 13.5t13 5.5h13q8 0 13.5-5.5t5-13.5q-.5-8-5.5-13t-13-6z"/></svg>