<svg viewBox="0 0 300 368" xmlns="http://www.w3.org/2000/svg"><path d="M50 103V90q0-23 16.5-39.5T106 34h88q23 0 39.5 16.5T250 90v13q0 8-5.5 13t-13.5 5q-8 0-13-5t-5-13V90q0-8-5.5-13.5T194 71h-25v132q0 8-5.5 13t-13.5 5q-8 0-13.5-5t-5.5-13V71h-25q-8 0-13 5.5T88 90v13q0 8-5.5 13T69 121q-8 0-13.5-5T50 103zm247 166l-39-38q-3-4-8-3.5t-8.5 3.5q-3.5 3-3.5 8v20H63v-20q0-5-4-8t-8.5-3.5Q46 227 42 231L4 269q-4 4-4 9t4 8l38 39q3 3 8 3t8.5-3.5Q62 321 62 316v-19h175v19q0 5 3.5 8.5t8.5 3.5q5 0 9-3l38-39q4-3 4-8t-4-9h1z"/></svg>