<svg viewBox="0 0 300 368" xmlns="http://www.w3.org/2000/svg"><path d="M56 171q15 0 27-6.5t20-18.5q8 12 20.5 19t26.5 6.5q14-.5 26.5-7T197 146q8 12 20 19t27 7q23-1 39.5-17t16.5-39.5q0-23.5-16.5-40T244 59q-15 0-27 7t-20 18q-8-11-20.5-18T150 59q-14 0-26.5 7T103 84q-8-11-20-18t-27-7q-23 0-39.5 16.5T0 115.5q0 23.5 16.5 40T56 172v-1zm188-75q8 1 13.5 6t5.5 13q0 8-5.5 13.5T244 134q-8 0-13.5-5.5T225 115q0-8 5.5-13t13.5-5v-1zm-94 0q8 1 13.5 6t5.5 13q0 8-5.5 13.5T150 134q-8 0-13.5-5.5T131 115q0-8 5.5-13.5T150 97v-1zm-94 0q8 1 13.5 6t5.5 13q0 8-5.5 13.5T56 134q-8 0-13.5-5.5t-5-13.5q.5-8 5.5-13.5T56 97v-1zm188 100q-15 0-27 7t-20 19q-8-12-20.5-19t-26.5-7q-14 0-26.5 7T103 222q-8-12-20-19t-27-7q-23 0-39.5 16.5T0 252.5q0 23.5 16.5 40T56 309q15 0 27-7t20-18q8 11 20.5 18t26.5 7q14 0 26.5-7t20.5-18q8 11 20 18t27 7q23 0 39.5-16.5t16.5-40q0-23.5-16.5-39.5T244 197v-1zM56 271q-8 0-13.5-5t-5-13q.5-8 5.5-13.5t13-5.5q8 0 13.5 5.5T75 253q0 8-5.5 13T56 271zm94 0q-8 1-13.5-4.5T131 253q0-8 5.5-13.5T150 234q8 0 13.5 5.5T169 253q0 8-5.5 13t-13.5 5zm94 0q-8 1-13.5-4.5T225 253q0-8 5.5-13.5T244 234q8 0 13.5 5.5T263 253q0 8-5.5 13.5T244 271z"/></svg>