<svg viewBox="0 0 300 368" xmlns="http://www.w3.org/2000/svg"><path d="M213 142v-21q0-10-7.5-17T187 97h-14l-8-51q-1-5-5.5-8.5T150 34q-5 0-9.5 3.5T135 46l-8 50h-14q-11 0-18 7.5T88 122v20q-18 8-28 24.5T50 203v62q0 19 9.5 34.5t25 25Q100 334 119 334h62q19 0 34.5-9.5t25-25Q250 284 250 265v-62q0-20-10-36.5T212 142h1zm0 123q-1 13-10 22t-22 9h-62q-13 0-22-9t-9-22v-62q0-13 9-22.5t22-8.5h62q13-1 22 8.5t9 22.5l1 62zm-25-37v12q0 8-5.5 13.5T169 259h-38q-8 0-13-5.5t-5-13.5v-12q-1-8 4.5-13.5T131 209h38q8 0 13.5 5.5T188 228z"/></svg>