<svg viewBox="0 0 300 368" xmlns="http://www.w3.org/2000/svg"><path d="M231 109h-71l104-40q7-3 10-10t.5-14q-2.5-7-9.5-10.5t-15-.5L45 113q-20 8-32.5 25.5T0 178v87q0 19 9.5 34.5t25 25Q50 334 69 334h162q19 0 34.5-9.5t25-25Q300 284 300 265v-87q0-19-9.5-34.5t-25-25Q250 109 231 109zm0 187H69q-13 0-22.5-9T37 265v-81h226v81q0 13-9.5 22t-22.5 9zm-93-56q0 8-5.5 13.5T119 259H81q-8 0-13-5.5T63 240q0-8 5-13.5t13-5.5h38q8 0 13.5 5.5T138 240zm100 0q0 16-11 27t-27 11q-16 0-26.5-11T163 240.5q0-15.5 10.5-26.5t26.5-11q16 0 27 11t10 26h1z"/></svg>