<svg viewBox="0 0 300 368" xmlns="http://www.w3.org/2000/svg"><path d="M268 191q-6-9-16-14.5t-21-5.5h-62V98q18 4 34 14.5t25 25.5q4 6 11.5 8t14-2q6.5-4 8.5-11.5t-2-14.5q-15-23-39-38t-52-20v-7q0-8-5.5-13.5T150 34q-8 0-13.5 5.5T131 53v7q-29 5-53.5 22.5t-38.5 44Q25 153 25 184t14 57.5q14 26.5 38.5 44T131 308v7q0 8 5.5 13.5T150 334q8 0 13.5-5.5T169 315v-7q34-5 62-25.5t40-49.5q5-10 4-21t-7-21zm-205-7q0-31 19.5-55T131 98v171q-29-6-48.5-30T63 184zm174 34q-8 19-27 33t-41 19v-61h62q4 0 5.5 3t.5 6z"/></svg>