<svg viewBox="0 0 300 368" xmlns="http://www.w3.org/2000/svg"><path d="M248 333q-2 1-4 1-7 0-12-4t-7-10q-4-21-22-35t-41-14h-12v44q0 8-5.5 13.5T131 334q-8 0-13.5-5.5T113 315v-38q-15 5-25 16.5T75 320q-2 7-9 11t-14.5 2.5Q44 332 40 325t-2-14q5-22 19.5-39.5T93 244q21-10 45-10h25q23 0 44 10t35.5 27.5Q257 289 262 311q2 8-2 14.5t-12 7.5zM50 65q0-13 9-22t22-9q13 0 31 7 20-7 38-7t38 7q18-7 31-7t22 9q9 9 9 21.5t-7 21Q236 94 225 96v50q0 21-10 38t-27.5 27Q170 221 150 221t-37.5-10Q95 201 85 184t-10-38V96q-11-2-18-10.5T50 65zm63 69v12q0 16 10.5 27t26.5 11q16 0 26.5-11t10.5-27v-12h-74zm68 162q-8 0-13.5 5.5t-5 13.5q.5 8 5.5 13.5t13 5.5q8 0 13.5-5.5T200 315q0-8-5.5-13t-13.5-5v-1z"/></svg>