<svg viewBox="0 0 300 368" xmlns="http://www.w3.org/2000/svg"><path d="M19 296h144q34 0 60-15t38-42q2-5 1.5-10.5T259 218q-6-9-18-9h-53q-2 0-4 1l-25 17q-11 7-24 7H19q-8 0-13.5-5.5T0 215q0-8 5.5-13t13.5-6h116q2 1 3-1l25-16q11-7 24-7h23q-15-33-43-56-10-7-23-7H19q-8 0-13.5-5.5T0 90q0-8 5.5-13.5T19 71h33l-1-4q-3-11 2.5-20t16-12q10.5-3 20 2.5T102 54l5 17h37q26 1 47 16 41 35 60 85 12 2 22.5 9t16.5 17q8 12 9.5 27t-4.5 29q-16 38-51 59t-81 21H19q-8 0-13.5-5.5T0 315q0-8 5.5-13.5T19 296zm100-125q8 0 13-5t5.5-13q.5-8-5-13.5T119 134H19q-8 0-13.5 5.5t-5.5 13q0 7.5 5.5 13T19 171h100zm-6 94q-1-7-6-12.5T94 247q-8 0-13.5 5.5t-5.5 13q0 7.5 5.5 13T94 284q8 0 13-5.5t6-13.5zm-63 0q0-7-5.5-12.5T31 247q-8 0-13.5 5.5t-5 13q.5 7.5 5.5 13t13 5.5q8 0 13.5-5.5T50 265zm125 0q0-7-5.5-12.5T156 247q-8 0-13 5.5t-5 13q0 7.5 5 13t13 5.5q8 0 13.5-5.5T175 265z"/></svg>