<svg viewBox="0 0 300 368" xmlns="http://www.w3.org/2000/svg"><path d="M275 261V107q11-4 18-13.5t7-21.5q0-16-11-27t-27-11q-12 0-21.5 7T227 59H73q-4-12-13.5-19T37 33q-15 0-26 11T0 70q0 12 7 22t18 13v156q-11 4-18 13.5T0 296q0 16 11 27t27 11q12 0 21.5-7T73 309h154q4 11 13.5 18t21.5 7q16 0 27-11t11-27q0-12-7-21.5T275 261zm-40 10H65l-3-2V98l2-1h171l2 2v170l-2 2zm-85-75h-50q-10 0-17.5-7T75 171v-25q0-10 7.5-17.5T100 121h50q10 0 17.5 7.5T175 146v25q0 11-7.5 18t-17.5 7zm75 0v25q0 11-7.5 18.5T200 247h-50q-10 0-17.5-7.5T125 222h25q21-1 35.5-15.5T200 172q10-1 17.5 6.5T225 196z"/></svg>