<svg viewBox="0 0 300 368" xmlns="http://www.w3.org/2000/svg"><path d="M281 196h-75q-8 0-13.5-5t-5-13q.5-8 5.5-13.5t13-5.5h75q8 0 13.5 5.5T300 178q0 8-5.5 13.5T281 196zm-106-87q0-20-10-37.5T137.5 44Q120 34 100 34T62.5 44Q45 54 35 71.5T25 109q0 20 10 37.5T62.5 174Q80 184 100 184t37.5-10q17.5-10 27.5-27.5t10-37.5zm-37 0q0 16-11 26.5T100 146q-16 0-26.5-10.5T63 109q0-16 10.5-27T100 71q16 0 26.5 11t11.5 27zm62 206v-6q0-27-13.5-50T150 222.5Q127 209 100 209t-50 13.5Q27 236 13.5 259T0 309v6q0 8 5.5 13.5T19 334q8 0 13.5-5.5T38 315v-6q0-17 8-31.5t22.5-23Q83 246 100 246t31.5 8.5q14.5 8.5 22.5 23t8 31.5v6q1 8 6 13.5t13 5.5q8 0 13.5-5.5T200 315z"/></svg>