<svg viewBox="0 0 300 368" xmlns="http://www.w3.org/2000/svg"><path d="M169 203q0 8-5.5 13.5T150 222q-8 0-13.5-5.5T131 203q0-8 5.5-13.5T150 184q8 0 13.5 5.5T169 203zm56 11q0 8 5 15l24 27q11 17 7 37t-20.5 31.5q-16.5 11.5-36.5 8T172 313l-22-25-22 25q-12 16-31.5 19.5t-36.5-8Q43 313 39 293t7-37l24-27q5-7 5-15 0-5-3-10t-9-7l-8-4q-10-3-17.5-10T26 166q-4-10-4-20.5t5-20.5q8-17 25.5-24T88 99v-2q0-17 8-31.5t22.5-23Q133 34 150 34t31.5 8.5q14.5 8.5 23 23T212 96v3q18-5 35.5 2.5T273 125q5 10 5 20.5t-4 20.5q-4 10-11.5 17T245 194l-8 3q-6 2-9 7t-3 10zM125 96q0 11 7.5 18t17.5 7q10 0 17.5-7t7.5-17.5q0-10.5-7.5-17.5T150 71.5q-10-.5-17.5 7T125 97v-1zm63 118q-1-17 9-31t26-21l9-4q5-1 7.5-6.5t0-10Q237 137 232 135t-10 0l-52 21q-10 2-20 2.5t-20-2.5l-53-21q-5-2-9.5 0t-7 6.5q-2.5 4.5 0 10T68 158l9 4q16 6 26 20.5t9 31.5q1 23-14 40l-21 24q-3 4-1.5 9t5.5 7.5q4 2.5 9 1.5t8-5l28-33q10-11 24-11t24 11l28 33q3 4 8 5t9-1.5q4-2.5 5.5-7.5t-1.5-9l-21-24q-15-17-14-40z"/></svg>