<svg viewBox="0 0 300 368" xmlns="http://www.w3.org/2000/svg"><path d="M255 242l-14-19 6-8q4-10 3-20t-7-18l-19-26q6-5 10-11 4-9 3.5-19t-6.5-18l-54-57q-10-12-26.5-12T123 46l-54 57q-6 8-6.5 18t3.5 19q4 6 10 11l-19 26q-6 8-7 18t4 19q2 5 6 8l-15 20q-7 10-7.5 22t5 22.5Q48 297 58 303t22 6h51v6q0 8 5.5 13.5T150 334q8 0 13.5-5.5T169 315v-6h51q12 0 22-6t15.5-16.5q5.5-10.5 5-22.5t-7.5-22zm-31 27q-1 3-4 3H80q-3 0-4.5-2.5T75 264l23-30h46q8 0 13-5.5t5.5-13.5q.5-8-5-13t-13.5-6H89l27-37h15q8 0 13.5-5.5T150 140q0-8-5.5-13.5T131 121h-28l47-49 47 49h-4q-5 0-9.5 3t-7 8q-2.5 5-2 10t3.5 9l33 45q-5 1-9 4t-6.5 7.5q-2.5 4.5-2 9.5t3.5 9l27 38q2 2 0 5z"/></svg>