<svg viewBox="0 0 300 368" xmlns="http://www.w3.org/2000/svg"><path d="M285 213q15-14 15-35 0-14-7-25.5T274 135q-6-29-24-52t-44-36q-26-13-56-13T94 47Q68 60 50 83t-24 52q-12 6-19 17.5T0 178q0 18 11.5 32T41 227q7 13 16 24-24 26-30 61-1 8 3.5 14t11.5 8h4q6 0 11.5-4.5T64 319q4-25 21-43 29 20 65 20t65-20q17 18 21 43 1 6 6.5 10.5T254 334h4q7-2 11.5-8t3.5-14q-6-35-30-61 9-11 16-24 15-3 26-14zm-35-23h-2q-7 0-12 3.5t-7 9.5q-10 24-31.5 39.5T150 259q-26-1-47.5-16.5T71 203q-2-6-6.5-9.5T54 190h-4q-5 0-8.5-3.5t-3.5-8q0-4.5 2.5-7.5t6.5-4q6-1 10-5.5t5-10.5q2-18 10-33t22-27q0 17 9.5 31t25.5 20.5q16 6.5 32.5 3T190 130q4-4 5-8.5t0-9.5q-1-5-4.5-9t-8.5-5q-5-1-10 .5t-9 5.5q-5 5-13 5t-12.5-5q-4.5-5-6-10.5t1-10.5q2.5-5 7-8.5T150 71q22 0 41.5 10.5t32 28.5q12.5 18 14.5 41 1 6 5 10.5t10 5.5q4 1 6.5 4t3 7.5q.5 4.5-3.5 8t-9 3.5zm-150-12q0 8 5.5 13.5t13.5 5q8-.5 13-5.5t5.5-13q.5-8-5-13.5T119 159q-8 0-13.5 5.5T100 178zm63 0q0 8 5 13.5t13 5q8-.5 13.5-5.5t5.5-13q0-8-5.5-13.5T181 159q-8 0-13.5 5.5T162 178h1z"/></svg>