<svg viewBox="0 0 300 368" xmlns="http://www.w3.org/2000/svg"><path d="M169 96h100q13 1 22-8.5t9-22.5V53q0-8-5.5-13.5T281 34q-8 0-13 5.5T263 53v6h-13v-6q0-8-5.5-13.5T231 34q-8 0-13.5 5.5T212 53v6h-43v-6q0-8-5.5-13.5T150 34q-8 0-13.5 5.5T131 53v6H88v-6q0-8-5.5-13.5T69 34q-8 0-13.5 5.5T50 53v6H38v-6q0-8-5.5-13.5T19 34q-8 0-13.5 5.5T0 53v12q0 13 9 22t22 10h100v37H88v-6q0-8-5.5-13.5T69 109q-8 0-13.5 5.5T50 128v6H38v-6q0-8-5.5-13.5T19 109q-8 0-13.5 5.5T0 128v12q0 13 9 22.5t22 9.5h17l83 82v61q0 8 5.5 13.5T150 334q8 0 13.5-5.5T169 315v-61l83-83h17q13 1 22-8.5t9-22.5v-12q0-8-5.5-13.5T281 109q-8 0-13 5.5t-5 13.5v6h-13v-6q0-8-5.5-13.5T231 109q-8 0-13 5.5t-5 13.5v6h-44V96zm-67 75h29v30l-29-30zm96 0l-29 30v-30h29z"/></svg>