<svg viewBox="0 0 300 368" xmlns="http://www.w3.org/2000/svg"><path d="M289 298q-11-5-28-10-32-10-67-14 6-25 8-51 3-39-4-70l-5-16q18 12 40 20 16 5 31 6 13 2 23.5-6t11.5-21q2-19-3-35-8-24-28.5-39T213 40q-24-5-50-6h-26q-26 1-50 6-34 7-54.5 22T4 101q-5 16-3 35 1 13 10.5 20.5T32 164l4-1q21-2 41-10 2 17 7 36 4 13 17 19 6 3 13 3t13-3q19-8 33-20-6 41-27 84-43 2-86 14-22 6-36 12-7 3-10 10.5t.5 14.5Q5 330 12 333t14-1q13-5 36-11 45-12 88-12t88 12q24 6 36 11 3 2 8 2t9.5-3q4.5-3 7.5-9t0-13.5q-3-7.5-10-10.5zM245 92q17 12 17 33-29-5-50-20-16-12-30-32 44 5 63 19zM55 92q19-14 63-19-14 20-30 32-21 15-50 20 0-21 17-33zm96 48q-6 17-33 31-6-24-3-40 17-14 31-34 11 28 5 43z"/></svg>