<svg viewBox="0 0 300 368" xmlns="http://www.w3.org/2000/svg"><path d="M93 209q-26 3-47.5 17.5t-33.5 37Q0 286 0 313v2q0 8 5.5 13.5T19 334q8 0 13.5-5.5T38 315v-3q-1-25 15-43.5T94 247q17-2 32 5t25 20.5q10 13.5 11 30.5l1 12q0 8 5 13.5t13 5.5q8 0 13.5-5.5T200 315v-6q0-27-13.5-50T150 222.5Q127 209 100 209h-7zm7-25q20 0 37.5-10t27.5-27.5q10-17.5 10-37.5t-10-37.5Q155 54 137.5 44T100 34q-20 0-37.5 10T35 71.5Q25 89 25 109t10 37.5Q45 164 62.5 174t37.5 10zm0-112q16 0 27 10.5t11 26.5q0 16-11 27t-27 11q-16 0-26.5-11T63 109q0-16 10.5-26.5T100 72zm181 87h-18v-19q0-8-5.5-13t-13.5-5q-8 0-13.5 5t-5.5 13v19h-19q-8 0-13 5.5t-5 13.5q0 8 5 13t13 5h19v19q0 8 5.5 13.5T244 234q8 0 13.5-5.5T263 215v-19h18q8 0 13.5-5t5.5-13q0-8-5.5-13.5T281 159z"/></svg>