<svg viewBox="0 0 300 368" xmlns="http://www.w3.org/2000/svg"><path d="M281 296h-41q-4-14-12-26l28-28q5-6 5-13.5t-5.5-13q-5.5-5.5-13-5.5t-12.5 5l-29 29q-15-10-32-14v-40q0-8-5.5-13.5T150 171q-8 0-13.5 5.5T131 190v40q-17 4-32 14l-29-29q-5-5-12.5-5t-13 5.5q-5.5 5.5-5.5 13t5 13.5l28 28q-8 12-12 27H19q-8 0-13.5 5T0 315q0 8 5.5 13.5T19 334h46q11 0 19.5-7T95 309q5-19 20-31t35-12q20 0 35 12t20 31q2 11 10.5 18t19.5 7h46q8 0 13.5-5.5T300 315q0-8-5.5-13.5T281 296zM131 53v29h-21q-3 0-6.5 2T99 89.5q-1 3.5-.5 7.5t3.5 6l39 40q4 3 9 3t9-3l39-40q3-2 3.5-6t-.5-7.5q-1-3.5-4.5-5.5t-6.5-2h-21V53q0-8-5.5-13.5T150 34q-8 0-13.5 5.5T131 53z"/></svg>