<svg viewBox="0 0 300 368" xmlns="http://www.w3.org/2000/svg"><path d="M150 134q26 0 46 15.5t26 40.5q-4 5-9 10-10 7-22 9-15 2-38-11-30-16-54-13-10 1-22 7 6-25 26.5-41.5T150 134zm-19-13q8 1 13.5-4.5T150 103q0-8-5.5-13.5T131 84q-8 0-13.5 5.5T112 103q0 8 5.5 13.5T131 122v-1zm157-18v162q0 19-9.5 34.5t-25.5 25q-16 9.5-34 9.5H81q-18 0-34-9.5t-25.5-25Q12 284 13 265V103q0-19 9-34.5t25-25Q63 34 81 34h138q18 0 34 9.5t25.5 25Q288 84 288 103zm-38 0q0-13-9-22.5T219 71H81q-13 0-22 9.5T50 103v162q0 13 9 22.5t22 9.5h138q13-1 22-10t9-22V103zm-55 130q-23 4-54-13-23-12-38-11-8 1-15 5t-12 9q5 26 26 43.5t48 17.5q27 0 48-17.5t26-44.5q-13 9-29 11zm-95-130q0-8-5.5-13.5T81 84q-8 0-13 5.5T63 103q0 8 5 13.5t13 5.5q8 0 13.5-5.5T100 103z"/></svg>