<svg viewBox="0 0 300 368" xmlns="http://www.w3.org/2000/svg"><path d="M200 240q0-8 5.5-13.5t13.5-5q8 .5 13.5 5.5t5.5 13q0 8-5.5 13.5T219 259q-8 0-13.5-5.5T200 240zm68-79l32-117q0-3-1-5.5t-3-4q-2-1.5-5-.5t-5 4l-59 100q-13-4-27-4h-19q-13 0-34 7-40 14-78 48-6 5-6.5 12.5T67 215q5 6 13 6.5t14-4.5q30-27 61-39 16-6 26-6h19q17 0 31.5 8t22.5 22.5q8 14.5 8.5 31.5t-8 31.5q-8.5 14.5-23 22.5t-31.5 8h-81q-22 0-40.5-11T49 255.5Q38 237 38 215q0-44 24-80l22-33q20-5 35-20.5T137 45q1-4-2.5-7.5T126 34q-14 2-27 7-10 5-18 12-5 5-9 11l-3 5-3-5q-4-6-10-11-8-7-18-12-12-5-27-7-5 0-8.5 3.5T0 45q3 18 14 32t27 21l-10 16Q0 160 0 215q0 32 16 59.5T59.5 318Q87 334 119 334h81q27 0 50-13.5t36.5-36.5q13.5-23 13.5-50 0-21-8.5-40T268 161z"/></svg>