<svg viewBox="0 0 300 368" xmlns="http://www.w3.org/2000/svg"><path d="M37 65q0-13 9-22t22-9q13 0 22.5 9t9.5 22q0 13-9.5 22.5t-22.5 9Q55 96 46 87t-9-22zm243 178l-42 26v46q0 8-5.5 13.5T219 334q-8 0-13.5-5.5T200 315v-56q0-10 9-16l25-16-15-68-19 33v17q0 16-11 27t-27 11h-25q-15 0-26-11t-11-27v-17l-19-33-15 68 25 16q9 6 9 16v56q0 8-5.5 13.5T81 334q-8 0-13.5-5.5T62 315v-46l-42-26q-11-8-16.5-20.5T1 197l9-44q4-19 19-31.5T64 109q15 0 27.5 7.5T112 136l8 15q8-4 18-5h25q9 0 17 5l9-15q7-12 19.5-19.5T236 109q20 0 35 12.5t19 31.5l9 44q3 13-2.5 25.5T280 243zm-117-34v-25h-25v25h25zm68-113q13 0 22.5-9t9.5-22q0-13-9.5-22T231 34q-13 0-22 9t-9 22q0 13 9 22.5t22 9.5v-1zm68 214l-7-25q-2-7-9-11t-14.5-2q-7.5 2-11 9t-1.5 14l7 25q2 7 7 10.5t11 3.5q3 0 5-1 8-2 11.5-8.5T299 310zM31 272q-7-2-14 2t-9 11l-7 25q-2 8 1.5 14.5T14 333q2 1 5 1 6 0 11-3.5t7-10.5l7-25q2-7-1.5-14T31 272z"/></svg>