<svg viewBox="0 0 300 368" xmlns="http://www.w3.org/2000/svg"><path d="M300 180q-2-9-9.5-15t-16.5-6h-87l-12-63h25v7q0 8 5.5 13.5t13.5 5q8-.5 13-5.5t5-13V53q0-8-5-13.5T219 34q-8 0-13.5 5.5T200 53v6h-33v-3q-2-9-9.5-15.5t-18-6.5q-10.5 0-18 7T113 59h-13q-8 0-13.5 5.5T81 78q0 8 5.5 13t13.5 5h12v63H50l-20-30q-5-7-12.5-7.5T5 126q-5 5-5 12v92q0 7 5 12t11 5h1q8 0 13-8l20-30h63v63H94q-8 0-13.5 5T75 290q0 8 5.5 13.5T94 309h19q1 11 8.5 18t18 7q10.5 0 18-6.5T167 312l1-3h32v6q0 8 5.5 13.5T219 334q8 0 13.5-5.5T238 315v-50q0-8-5.5-13t-13.5-5q-8 0-13.5 5t-5.5 13v7h-25l12-63h88q12 0 19.5-9t5.5-20z"/></svg>