<svg viewBox="0 0 300 368" xmlns="http://www.w3.org/2000/svg"><path d="M225 34q-20 0-37.5 10T160 71.5Q150 89 150 109t10 37.5q10 17.5 27.5 27.5t37.5 10q20 0 37.5-10t27.5-27.5q10-17.5 10-37.5t-10-37.5Q280 54 262.5 44T225 34zm34 91q4 4 4 9t-4 9q-4 4-9 3.5t-9-3.5l-16-16-16 16q-4 3-9 3t-9-3.5q-4-3.5-4-8.5t4-9l16-16-16-16q-4-4-4-9t4-9q4-4 9-4t9 4l16 16 16-16q4-4 9-4t9 4q4 4 4 9t-4 9l-16 16 16 16zm-71 90v100q0 5-3 9.5t-7 7q-4 2.5-9 2.5t-10-3l-62-37q-5-3-7.5-7t-2.5-9v-65l-74-91Q0 107 0 86t15.5-36.5Q31 34 53 34h66q8 0 13.5 5.5T138 53q0 8-5.5 13T119 71H53q-6 0-11 5t-5 11q0 6 4 11l80 97q4 5 4 11v61l25 15v-67q0-8 5.5-13t13.5-5.5q8-.5 13 5t5 13.5h1z"/></svg>