<svg viewBox="0 0 300 368" xmlns="http://www.w3.org/2000/svg"><path d="M119 34H69q-24 0-40.5 16.5T13 90v188q-1 23 15.5 39.5T69 334h50q8 0 13.5-5.5T138 315V53q0-8-5.5-13.5T119 34zM50 159h50v50H50v-50zm19-88h31v50H50V90q0-8 5.5-13.5T69 72v-1zm0 225q-8 0-13.5-5T50 278v-32h50v50H69zM231 34h-50q-8 0-13.5 5.5T162 53v262q0 8 5.5 13.5T181 334h50q24 0 40.5-16.5T288 278V90q0-23-16.5-39.5T231 34zm-31 125h50v50h-50v-50zm31-88q8 0 13.5 5.5T250 90v31h-50V71h31zm0 225h-31v-50h50v32q0 8-5.5 13.5T231 297v-1z"/></svg>