<svg viewBox="0 0 300 368" xmlns="http://www.w3.org/2000/svg"><path d="M295 66l-41 41q-14 14-35 14t-35-14l-19-19q-4-4-9-4t-8 4l-44 44q-15 14-35.5 14T34 132L6 103q-6-5-6-13t5.5-13.5Q11 71 19 71.5T32 77l29 29q3 3 8 3t8-3l45-45q13-14 34-14t35 14l20 20q3 3 8 3t8-3l41-42q5-5 13-5t13.5 5.5Q300 45 300 53t-5 13zM81 196q-8 0-13 5.5T63 215v100q0 8 5 13.5t13 5.5q8 0 13.5-5.5T100 315V215q0-8-5.5-13.5T81 196zm-62-25q-8 0-13.5 5.5T0 190v125q0 8 5.5 13.5T19 334q8 0 13.5-5.5T38 315V190q0-8-5.5-13.5T19 171zm125-25q-8 0-13.5 5.5T125 165v150q0 8 5.5 13.5T144 334q8 0 13.5-5.5T163 315V165q0-8-5.5-13.5T144 146zm62 25q-8 0-13 5.5t-5 13.5v125q0 8 5 13.5t13 5.5q8 0 13.5-5.5T225 315V190q0-8-5.5-13.5T206 171zm63-37q-8 0-13.5 5.5T250 153v162q0 8 5.5 13.5T269 334q8 0 13.5-5.5T288 315V153q0-8-5.5-13.5T269 134z"/></svg>