<svg viewBox="0 0 300 368" xmlns="http://www.w3.org/2000/svg"><path d="M300 315q0 8-5.5 13.5T281 334H44q-18 0-31-13T0 290V53q0-12 9.5-16.5t18.5 0Q37 41 38 53v237q0 3 1.5 4.5T44 296h237q8 0 13.5 5.5T300 315zm0-145v58q0 18-13 30.5T256 271H106q-18 0-31-12.5T63 228v-94q-1-18 12-31l19-19q12-12 30.5-12T156 84l44 43 7-6q8-8 19.5-10.5t23 .5q11.5 3 18.5 11l18 16q7 6 10.5 14.5T300 170zm-37 0q0-3-3-5l-17-16q-3-3-5-3t-5 2l-21 19q-5 5-12.5 4.5T187 166l-58-55q-2-2-4-2t-4 2l-19 19q-2 1-2 4v94q0 2 2 4t4 2h150q3 0 5-2t2-4v-58z"/></svg>