<svg viewBox="0 0 300 368" xmlns="http://www.w3.org/2000/svg"><path d="M295 302l-27-26q9-10 14.5-22.5T288 228V115q0-18-9.5-34T253 55.5Q237 46 219 46H81q-18 1-33 9L32 39q-5-5-13-5T5.5 39.5Q0 45 0 53t5 13l263 263q5 5 13 5t13.5-5.5Q300 323 300 315t-5-13zM81 84h138q13 0 22 9t9 22v113q0 12-8 21L77 84h4zm108 202q5 6 4.5 13.5T187 312l-18 15q-8 7-19 7t-19-7l-36-31H81q-18 0-34-9t-25-25q-9-16-9-34v-75q0-8 5-13.5t13-5.5q8 0 13.5 5.5T50 153v75q0 13 9 22t22 9h21q7 0 12 4l36 31 13-11q6-5 13.5-4t12.5 7z"/></svg>