<svg viewBox="0 0 300 368" xmlns="http://www.w3.org/2000/svg"><path d="M247 98l-47-44q-14-13-32-17.5t-36 0Q114 41 100 54L53 98q-27 27-36 62.5t0 71q9 35.5 35.5 62t62 35.5q35.5 9 71 0t62-35.5q26.5-26.5 35.5-62t-.5-71.5Q273 124 247 98zm-26 169q-20 19-45.5 26t-51.5 0q-26-7-45-26t-26-45q-7-26-.5-51.5T79 125l47-44q10-10 24-9.5T174 82l47 43q19 19 25.5 45t0 52q-6.5 26-25.5 45zm-24-103l-63 87q-5 6-12.5 7.5t-13.5-3q-6-4.5-7.5-12T103 229l63-87q3-4 7.5-6t9.5-1.5q5 .5 9 3t6 7.5q2 5 1.5 10t-2.5 9zm-72-11q0-8-5.5-13.5T106 134q-8 0-13 5.5T88 153q0 8 5 13.5t13 5q8-.5 13.5-5.5t5.5-13zm69 68q-8 1-13.5 6t-5.5 13q0 8 5.5 13.5T194 259q8 0 13.5-5.5T213 240q0-8-5.5-13t-13.5-6z"/></svg>