<svg viewBox="0 0 300 368" xmlns="http://www.w3.org/2000/svg"><path d="M156 91q-6-6-6-13.5t6-13.5l12-12q6-6 13.5-6t13 6q5.5 6 5.5 13.5T195 78l-13 13q-5 5-13 5t-13-5zM56 91q5 5 13 5t13.5-5.5Q88 85 88 77.5T82 64L70 52q-6-6-14-6t-13.5 6Q37 58 37 65.5T43 78l13 13zm63-7q8 0 13.5-5.5T138 65V53q0-8-5.5-13.5T119 34q-8 0-13.5 5.5T100 53v12q0 8 5.5 13.5T119 84zM40 229q6 6 13.5 6t13-5.5Q72 224 72 216t-5-13l-35-35q-5-5-13-5t-13.5 5.5Q0 174 0 182t6 13l34 34zm39-39q6 5 13.5 5t13-5.5q5.5-5.5 5.5-13t-5-13.5l-36-36q-6-6-14-6t-13.5 5.5Q37 132 37 140t6 13l36 37zm192-68q-9 1-15 8.5t-6 17.5v72q0 29-19 51l-27 31q-5 6-5 13.5t5.5 13q5.5 5.5 13 5.5t13.5-6l39-44q5-5 10-11 20-24 20-55v-72q0-11-9-18.5t-20-5.5zm-46 96v-72q0-11-9-18.5t-20-5.5q-9 1-15 8.5t-6 17.5v5l-39-39q-6-5-13.5-5t-13 5.5q-5.5 5.5-5.5 13t5 13.5l60 59q12 12 12 29t-12 28l-23 23q-16 17-40 17t-41-17l-33-33q-6-6-13.5-6t-13 5.5Q0 252 0 260t5 13l34 33q13 14 30.5 21t36.5 7q19 0 36-7t31-21l22-22q6-5 10-11 20-24 20-55z"/></svg>