<svg viewBox="0 0 300 368" xmlns="http://www.w3.org/2000/svg"><path d="M280 117q-20-21-49-20h-6q-3-27-22.5-45T156 34H69q-29 0-49 20T0 103v145q0 10 7 16.5t16 6.5h7l46-20q4 25 23 41.5t45 16.5h68l58 24q3 1 7 1 9 0 16-7t7-16V165q0-28-20-48zM38 103q0-13 9-22t22-9h87q13-1 22.5 8.5T188 103v75q0 13-9.5 22t-22.5 9H84q-4 0-8 1l-38 17V103zm224 186l-38-16q-4-2-8-1h-72q-11-1-20-8t-11-18h43q19 0 34.5-9t25-25q9.5-16 9.5-34v-44h6q13 0 22 9t9 22v124zM125 184q0 5-3.5 8.5t-9 3.5q-5.5 0-9-3.5T100 184q0-5 3.5-8.5t9-4q5.5-.5 9 3.5t3.5 9zm-50-63q0-17 13.5-28.5T119 85q12 2 20 10t10 20q2 12-3 23t-15 16q-5 3-9 7t-9 4q-5 0-9-3.5t-4-8.5q0-5 3-9 7-7 15-12 4-1 6-4.5t1-8q-1-4.5-3.5-7T115 109q-6-1-10.5 3t-4.5 9.5q0 5.5-3.5 9t-9 3.5q-5.5 0-9-3.5T75 122v-1z"/></svg>