<svg viewBox="0 0 300 368" xmlns="http://www.w3.org/2000/svg"><path d="M300 296q0 16-11 27t-26.5 11q-15.5 0-26.5-11t-11-27q0-3 1-7l-64-57q-6 2-12 2-10 0-19-5t-13-14H70q-5 9-13.5 14T37 234q-15 0-26-11T0 196.5Q0 181 11 170t26-11q11 0 19.5 5T70 178h48q6-11 17-16l6-60q-8-5-12-13t-4-17q0-16 11-27t27-11q10 0 18.5 5T195 53h35q5-9 13.5-14t19.5-5q15 0 26 11t11 26.5Q300 87 289 98t-26 11q-11 0-19.5-5T230 90h-35q-6 11-17 16l-6 60q7 5 11 13t4 17q1 4 0 8l63 57q6-2 13-2 15 0 26 11t11 26zM56 271q-8 0-13 5.5T38 290q0 8 5 13.5t13 5.5q8 0 13.5-5.5T75 290q0-8-5.5-13.5T56 272v-1zm225-112q-8 0-13 5.5t-5 13.5q0 8 5 13.5t13 5q8-.5 13.5-5.5t5.5-13q0-8-5.5-13.5T281 159zM144 296q-8 0-13.5 5.5T125 315q0 8 5.5 13.5T144 334q8 0 13.5-5.5T163 315q0-8-5.5-13t-13.5-5v-1zM19 71q8 0 13-5t5.5-13q.5-8-5-13.5T19 34q-8 0-13.5 5.5T0 53q0 8 5.5 13T19 71zm62 50q8 1 13.5-4.5T100 103q0-8-5.5-13.5T81 84q-8 0-13 5.5T63 103q0 8 5 13.5t13 5.5v-1z"/></svg>