<svg viewBox="0 0 300 368" xmlns="http://www.w3.org/2000/svg"><path d="M128 102V81h11q4 0 7.5 3t3.5 7.5q0 4.5-3.5 7.5t-7.5 3h-11zm172-12v142q0 14-5 26.5T280 281l-33 33q-10 10-22.5 15t-26.5 5H56q-23 0-39.5-16.5T0 278V90q0-23 16.5-39.5T56 34h188q23 0 39.5 16.5T300 90zm-125 26q0 11 7.5 18t17.5 7q10 0 17.5-7t7.5-18v-4q0-4-2.5-6.5T216 103h-10q-2 0-4 1.5t-2 4.5q0 3 2 4.5t4 1.5h3v1q0 4-2.5 6.5t-6.5 3q-4 .5-6.5-2.5t-2.5-7V90q0-4 2.5-6.5T201 81q5 0 7 4.5t6.5 4.5q4.5 0 7-3.5t.5-7.5q-3-6-9-10t-13-4q-10 0-17.5 7.5T175 90v26zm-62 17q0 4 2 6t5.5 2q3.5 0 5.5-2t2-6v-15h11q7 0 13-3.5t10-9.5q4-6 4-13.5T162 78q-4-6-10-9.5T139 65h-14q-5 0-8.5 4t-3.5 9v55zm-62-7q3 7 9.5 11t13.5 4q11 0 18.5-7.5T100 115V73q0-3-2.5-5.5T92 65q-3 0-5.5 2.5T84 73v42q0 4-3 7t-8 3q-5 0-8-6-1-3-4-4t-6.5.5Q51 117 50 120t1 6zm5 170h132v-50q0-10 7-17.5t18-7.5h50v-50H38v107q0 8 5 13t13 5z"/></svg>