<svg viewBox="0 0 300 368" xmlns="http://www.w3.org/2000/svg"><path d="M38 181q1 6 6 10.5t12 4.5h188q7 0 12-4t6-11l13-79q2-22-11.5-40T228 40q-42-6-78-6-47 0-77 5-23 3-36.5 21T26 101l12 80zm200-84l-10 62h-27l5-84 16 3q7 1 12 6.5t4 12.5zm-70-25l-4 87h-27l-5-87h36zm-90 4l16-2 5 85H72l-9-63q-1-7 3.5-13T78 76zm197 189q2 23-11.5 41T228 328q-42 6-78 6-47 0-77-5-23-3-36.5-21T26 268l4-31q1-7 7.5-11.5t14-3.5q7.5 1 12 7t3.5 14l-4 29q-1 8 3.5 13.5T78 292l16 2 3-55q1-7 6.5-12.5t13.5-5q8 .5 13 6.5t5 13l-3 55 18 1 18-1-3-55q0-7 5-13t13-6.5q8-.5 13.5 5T203 239l3 54 16-3q8-1 12.5-7t3.5-13l-5-27q-1-7 3.5-13.5T249 222q8-1 14 3.5t7 11.5l5 28z"/></svg>