<svg viewBox="0 0 300 368" xmlns="http://www.w3.org/2000/svg"><path d="M156 34H94q-20 0-36.5 10.5T33 72H19q-8-1-13.5 4.5T0 90q0 8 5.5 13.5T19 109h6v25h-6q-8 0-13.5 5.5T0 153q0 8 5.5 13.5T19 172h6v24h-6q-8 1-13.5 6T0 215q0 8 5.5 13.5T19 234h6v25h-6q-8 0-13.5 5.5T0 278q0 8 5.5 13.5T19 296h14q8 17 24.5 27.5T94 334h62q19 0 34.5-9.5t25-25Q225 284 225 265V103q0-19-9.5-34.5t-25-25Q175 34 156 34zm32 231q0 13-9.5 22.5T156 297H94q-13-1-22-10t-9-22V103q0-13 9-22t22-9h62q13-1 22.5 8.5T188 103v162zm-25-137q0 8-5.5 13.5T144 147h-38q-8 0-13.5-5.5t-5-13.5q.5-8 5.5-13.5t13-5.5h38q8 0 13.5 5.5T163 128zm137-68v232q0 19-14 33l-7 7q-2 2-4 2t-4-2l-7-7q-14-14-14-33V59q0-11 8-18.5t18.5-6.5q10.5 1 17 8.5T300 60z"/></svg>