<svg viewBox="0 0 300 368" xmlns="http://www.w3.org/2000/svg"><path d="M250 34H50q-21 0-35.5 14.5T0 84v37q0 21 14.5 35.5T50 171h13v-18q0-11 5-21l-5-2q-3-2-3-5t3-6q3-3 6.5-1t7.5 3q4-4 10-7-2-3-6-5l-15-6q-10-6-8-16 1-5 4-9t9-5q9-3 18 2 3 1 3.5 4t-2 6q-2.5 3-7 1T75 85q-4 1-4.5 3.5T72 92l13 5q11 4 14 13l7-1 7 1V78q0-3 1.5-5t4.5-2q3 0 4.5 2t1.5 5v36q6 2 10 6 3-2 3-5V78q0-3 1.5-5t4.5-2q3 0 4.5 2t1.5 5v37q0 9-7 15 7 10 7 23v18h100q21 0 35.5-14.5T300 121V84q0-21-14.5-35.5T250 34zm-50 83q-1 8-6.5 12.5T181 134h-12q-2 0-4-2t-2-4V78q0-3 2-5t4-2h12q7 0 12.5 4.5T200 87q2 9-5 16 6 5 5 14zm50 1q-1 7-7 11.5t-14.5 4.5q-8.5 0-15.5-4-3-2-3-5t2-5v-1q4-3 8-.5t8 2.5q4 0 6.5-1.5t3-4.5q.5-3-6.5-6l-15-6q-10-6-8-16 1-5 4-9t9-5q9-3 18 2 3 1 3.5 4t-2 6q-2.5 3-7 1t-8.5-1q-4 1-4.5 3.5T222 92l13 5q9 3 12.5 9t2.5 12zm-62-3q0 3-2 5t-4 2h-7v-13h7q2 0 4 2t2 4zm0-25q0 3-2 5t-4 2h-7V84h7q2 0 4 2t2 4zm62 219v6q0 8-5.5 13.5t-13 5.5q-7.5 0-13-5.5T213 315v-6q0-11-6.5-19T190 279l-65-20v45q0 12-9 21t-21 9H85q-17 0-30-11l-21-19q-8-7-9-17.5t6-18.5q7-8 17.5-9t18.5 6l21 16V153q0-9 7-15t16-3q6 1 10 6.5t4 12.5v66l76 23q22 6 35.5 24.5T250 309z"/></svg>