<svg viewBox="0 0 300 368" xmlns="http://www.w3.org/2000/svg"><path d="M213 78v212q0 3 1.5 4.5t4.5 1.5q8 0 13 5.5t5.5 13.5q.5 8-5 13.5T219 334q-14 0-25-8-11 8-25 8-8 0-13.5-5.5T150 315q0-8 5.5-13t13.5-5q2-1 4-2.5t2-4.5V78q0-3-2-5t-4-2q-8 0-13.5-5T150 53q0-8 5.5-13.5T169 34q14 0 25 8 11-8 25-8 8 0 13 5.5t5.5 13.5q.5 8-5 13T219 71q-3 1-5 2.5t-2 4.5h1zm-82 43H81q-8 0-13.5 5.5t-5 13.5q.5 8 5.5 13.5t13 5.5h7v69q0 8 5 13.5t13 5q8-.5 13.5-5.5t5.5-13v-69h6q8 0 13.5-5.5T150 140q0-8-5.5-13t-13.5-6zm-12 150H69q-13 0-22-9t-9-22V128q0-13 9-22t22-9h50q8-1 13-6t5.5-13q.5-8-5-13.5T119 59H69q-19 0-34.5 9.5t-25 25Q0 109 0 128v112q0 19 9.5 34.5t25 25Q50 309 69 309h50q8 0 13.5-5.5T138 290q0-8-5.5-13t-13.5-5v-1zM266 68q-7-3-14.5-1T240 75.5q-4 6.5-2 14t9 11.5q7 4 11.5 11t4.5 16v112q0 9-4.5 16T247 267q-7 4-9 11.5t2 14.5q3 4 7 6.5t9 2.5q5 0 10-2 16-10 25-26t9-34V128q0-18-9-34t-25-26z"/></svg>