<svg viewBox="0 0 300 368" xmlns="http://www.w3.org/2000/svg"><path d="M75 146q0-10 7.5-17t17.5-7.5q10-.5 17.5 7t7.5 18q0 10.5-7.5 17.5t-17.5 7q-10 0-17.5-7T75 146zm125-25q-10 0-17.5 7.5t-7.5 18q0 10.5 7.5 17.5t17.5 7q10 0 17.5-7t7.5-17.5q0-10.5-7.5-18T200 122v-1zm-50-87q-57 2-95 33-35 29-47.5 73t0 88Q20 272 55 301q38 31 95 33 41 0 75.5-20t54.5-54.5q20-34.5 20-75.5t-20-75.5Q260 74 225.5 54T150 34zm0 262q-43-1-72-25-26-21-35-54t0-66q9-33 35-54 29-24 72-26 31 0 56.5 15.5t41 41Q263 153 263 184t-15.5 56.5Q232 266 206.5 281T150 296zm50-112H100q-16 0-27 11t-10.5 26.5q.5 15.5 11 26.5t26.5 11h100q16 0 27-11t10.5-26.5q-.5-15.5-11-26.5T200 184zm-87 50h-13q-5 0-8.5-3.5t-3.5-9q0-5.5 3.5-9t8.5-3.5h13v25zm50 0h-25v-25h25v25zm37 0h-12v-25h12q5 0 9 3.5t4 9q0 5.5-4 9t-9 3.5z"/></svg>