<svg viewBox="0 0 300 368" xmlns="http://www.w3.org/2000/svg"><path d="M231 34H69q-19 0-34.5 9.5t-25 25Q0 84 0 103v162q0 19 9.5 34.5t25 25Q50 334 69 334h162q19 0 34.5-9.5t25-25Q300 284 300 265V103q0-19-9.5-34.5t-25-25Q250 34 231 34zm32 231q0 13-9.5 22t-22.5 9H69q-13 0-22.5-9T38 265V103q0-13 9-22.5T69 71h162q13 0 22.5 9.5T263 103v162zM63 128q0-13 9-22.5T94 96q13 0 22 9.5t9 22.5q0 13-9 22t-22 9q-13 0-22-9t-9-22zm112 18v-37q0-5 3.5-9t9.5-4h37q5 0 9 4t4 9v37q0 6-4 9.5t-9 3.5h-37q-6 0-9.5-3.5T175 146zm-48 80q4 3 4 8.5t-4 8.5l-25 25q-4 4-9 4t-8-4l-25-25q-4-3-4-8.5t4-8.5l25-25q3-4 8-4t9 4l25 25zm116 27q4 6 .5 12t-10.5 6h-53q-8 0-11-6t0-12l27-43q4-5 10.5-5t10.5 5l26 43z"/></svg>