<svg viewBox="0 0 300 368" xmlns="http://www.w3.org/2000/svg"><path d="M201 160l-24 24 24 24q5 6 5 13.5t-5.5 13q-5.5 5.5-13 5.5t-13.5-5l-24-24-24 24q-6 5-13.5 5t-13-5.5q-5.5-5.5-5.5-13t5-13.5l24-24-24-24q-5-6-5-13.5t5.5-13q5.5-5.5 13-5.5t13.5 5l24 24 24-24q6-5 13.5-5t13 5.5q5.5 5.5 5.5 13t-5 13.5zm99 28v77q0 19-9.5 34.5t-25 25Q250 334 231 334h-68q-37 0-70-14t-55-39q-21-22-30.5-51T1 169q3-32 19.5-60.5T64 61q27-19 60-24.5t64 2.5q31 8 57 30t40.5 53q14.5 31 14.5 66zm-37 0q0-26-11.5-50T220 97q-30-25-70-25-10 0-20 1-24 5-44 19t-33 35.5Q40 149 38 173t5 45q7 21 22 38 18 19 43.5 29.5T163 296h68q13 0 22-9t9-22v-77h1z"/></svg>