<svg viewBox="0 0 300 368" xmlns="http://www.w3.org/2000/svg"><path d="M194 228q0 13-7.5 24t-20 16.5Q154 274 141 271t-22-12q-9-9-12-21-3-16 4-29.5t20-20.5v27q0 8 5.5 13.5T150 234q8 0 13.5-5.5T169 215v-27q11 6 18 16.5t7 23.5zm-95-65q-6-5-7.5-12.5t3.5-14q5-6.5 12.5-7.5t13.5 4l22 16q2-10-1-21.5t-12.5-20Q120 99 107 97q-14-2-26.5 4.5t-19 19Q55 133 57 147q2 12 9.5 21.5T86 182q17 6 34-3l-21-16zm95-66q-12 1-21 9t-13.5 19q-4.5 11-2.5 24l20-15q6-5 14-4t12.5 7q4.5 6 3.5 14t-7 12l-21 16q19 10 38 1 11-5 18-14.5t9-20.5q1-14-5.5-26T220 101q-12-6-26-4zm106 6v162q0 19-9.5 34.5t-25 25Q250 334 231 334H69q-19 0-34.5-9.5t-25-25Q0 284 0 265V103q0-19 9.5-34.5t25-25Q50 34 69 34h162q19 0 34.5 9.5t25 25Q300 84 300 103zm-37 0q0-13-9.5-22.5T231 71H69q-13 0-22.5 9.5T37 103v162q1 13 10 22t22 9h162q13 0 22-9t9-22V103h1z"/></svg>