<svg viewBox="0 0 300 368" xmlns="http://www.w3.org/2000/svg"><path d="M108 102q-8-7-8-17.5t8-18.5l24-24q8-8 18.5-8t17.5 8l25 24q7 8 7 18.5t-7 17.5l-25 25q-7 7-17.5 7t-18.5-7l-24-25zm161-18q-13 0-22 9t-9 22v45q-12-2-24 1t-21 12l-43 44-6-7-36-36q-10-9-22-12.5T63 160v-45q0-13-9.5-22T31 84q-13 0-22 9t-9 22v138q0 19 7 36t20 30l10 10q5 5 13 5t13.5-5.5Q69 323 69 315t-6-13l-9-9q-16-17-16-40v-14l30 30q6 6 13.5 6t13-5.5Q100 264 100 256t-6-13l-30-31q-2-3-1.5-7t4-6.5q3.5-2.5 7.5-2t7 4.5l36 35q20 21 20 44v35q0 8 5.5 13.5T156 334q8 0 13.5-5.5T175 315v-35q0-15-6-30l51-50q3-4 7-4t7 3q3 3 3.5 6.5T236 212l-30 30q-6 6-6 13.5t5.5 13q5.5 5.5 13 5.5t13.5-5l31-30v14q0 23-17 40l-9 9q-6 5-6 13t5.5 13.5Q242 334 250 334t13-6l10-9q13-13 20-30t7-36V115q0-13-9-22t-22-9z"/></svg>