<svg viewBox="0 0 300.0049 368" xmlns="http://www.w3.org/2000/svg"><path d="M291 46q-10-12-27-12-29 1-46 5-24 6-40 23-14-3-28-3t-28 3q-16-17-40-23-17-4-46-5h-1Q19 34 8.5 46T0 74q5 34 23 69-10 25-11 53 1 38 19.5 69.5t50 50Q113 334 150 334t68.5-18.5q31.5-18.5 50.5-50t19-69.5q0-27-11-53 18-35 23-69 2-16-9-28zM38 72q29 0 42 6-18 11-33 27-6-17-9-33zm112 224q-27 0-50-13t-36.5-36Q50 224 50 196.5T63.5 146Q77 123 100 109.5T150 96q27 0 50 13.5t36.5 36.5q13.5 23 13.5 50.5T236.5 247Q223 270 200 283t-50 13zm103-191q-15-16-33-27 13-6 42-6-3 16-9 33zm-65 123q0 13-11 22t-27 9q-16 0-26.5-9T113 228q0-13 10.5-22t26.5-9.5q16-.5 26.5 9T187 228h1zm-63-50q0-8-5.5-13.5T106 159q-8 0-13.5 5.5t-5 13.5q.5 8 5.5 13.5t13 5.5q8 0 13.5-5.5T125 178zm69-19q-8 0-13.5 5.5T175 178q0 8 5.5 13.5T194 197q8 0 13-5.5t5-13.5q0-8-5-13.5t-13-5.5z"/></svg>