<svg viewBox="0 0 300 368" xmlns="http://www.w3.org/2000/svg"><path d="M250 309v6q0 8-5.5 13.5T231 334q-8 0-13-5.5t-5-13.5v-6q-1-11-7-19t-16-11l-65-20v45q0 12-9 21t-21 9H85q-17 0-30-11l-21-19q-8-7-9-17.5t6-18.5q7-8 17.5-9t18.5 6l20 16V153q0-9 7.5-15t16.5-3q6 1 10 6.5t4 12.5v66l76 23q22 6 35.5 24.5T250 309zm50-238v63q0 16-11 26.5T262 171H150v-18q0-14-8-26l8-5 17 11q4 2 7.5-.5t2.5-6.5l-7-19 15-12q4-3 2.5-7t-6.5-4h-18l-7-19q-2-4-6-4t-6 4l-6 19h-19q-5 0-6.5 4t2.5 7l15 12-3 8q-10-6-21-6t-21 6l-2-8 15-12q3-3 1.5-7T94 84H75l-7-19q-1-4-5.5-4T57 65l-7 19H31q-4 0-5.5 4t1.5 7l15 12-6 19q-1 4 2 7 2 1 4 1t4-1l17-11 8 5q-8 12-8 26v18H38q-16 0-27-10.5T0 134V71q0-15 11-26t27-11h225q15 0 26 11t11 27v-1zm-25 17q-2-4-6-4h-19l-7-19q-1-4-5.5-4t-5.5 4l-7 19h-19q-4 0-5.5 4t1.5 7l15 12-6 19q-1 4 2 7 2 1 4 1t4-1l17-11 17 11q3 2 7-.5t2-6.5l-6-19 15-12q3-3 2-7z"/></svg>