<svg viewBox="0 0 300 368" xmlns="http://www.w3.org/2000/svg"><path d="M163 122V71q0-15-11-26t-27-11h-12q-16 0-27 11T75 72v50q-26 2-44 22t-18 46v75q0 19 9 34.5t25 25q16 9.5 34 9.5h75q19 0 34.5-9.5t25-25Q225 284 225 265v-75q0-26-18-46t-44-22zm25 143q-1 13-10 22t-22 9H81q-13 0-22-9t-9-22v-75q0-13 9-22t22-9h75q13 0 22 9t9 22v75h1zm50-175q0 8-5.5 13.5T219 109q-8 0-13.5-5.5T200 90q0-8 5.5-13.5t13.5-5q8 .5 13.5 5.5t5.5 13zm12-37q0-8 5.5-13.5T269 34q8 0 13.5 5.5T288 53q0 8-5.5 13T269 71q-8 0-13.5-5T250 53zm38 75q0 8-5.5 13.5t-13.5 5q-8-.5-13.5-5.5t-5.5-13q0-8 5.5-13.5T269 109q8 0 13.5 5.5T288 128zM163 228q-1 18-13.5 30.5T119 271q-18 0-31-12.5T75 228q0-18 13-31t31-13q18 0 31 13t13 31z"/></svg>