<svg viewBox="0 0 300 368" xmlns="http://www.w3.org/2000/svg"><path d="M90 68q5-16 18.5-25t29-9q15.5 0 29 9T185 68q2 6-2 11t-10 5h-71q-6 0-10-5t-2-11zm210 122v38q0 8-5.5 13.5T281 247h-1q-13 31-43 49 1 15-8 25t-22.5 12q-13.5 2-25-4T165 309h-30q-5 14-16.5 20t-25 4Q80 331 71 321t-8-25q-22-12-35.5-34.5t-15-49Q11 186 23 164q-15-9-20-24.5T2.5 108q4.5-16 17-26.5T50 71q12 1 16.5 10t0 18.5Q62 109 50 109q-7 0-10.5 5.5T38 126q2 6 9 8 13-12 30-18.5t35-6.5h79q6-16 20-26 10-8 24-11 6-2 10.5 2t4.5 10v47q20 16 30 41h1q8 0 13.5 5t5.5 13zM50 209q0 17 8.5 31.5t23 22.5q14.5 8 30.5 8h76q29 0 46-20 15-17 15-42t-15-42q-17-20-47-20h-74q-17 0-31.5 8t-23 22.5Q50 192 50 209zm156 0q12 0 16.5-9.5t0-18.5q-4.5-9-16-9t-16.5 9q-5 9 0 18.5t16 9.5z"/></svg>