<svg viewBox="0 0 300 368" xmlns="http://www.w3.org/2000/svg"><path d="M296 173l-66-87q-10-13-24.5-20T175 59H63q-17 0-31.5 8.5t-23 23Q0 105 0 122v124q0 17 8.5 31.5t23 23Q46 309 63 309h112q16 0 30.5-7t24.5-20l66-87q4-5 4-11t-4-11zm-96 86q-4 6-10.5 9.5T175 272H63q-11-1-18-8t-7-18V121q0-10 7-17.5T63 96h112q8 0 14.5 3.5T200 109l58 75-58 75zm-30-93l-18 18 18 18q5 5 5 13t-5.5 13.5Q164 234 156 234t-13-6l-18-17-18 17q-5 6-13 6t-13.5-5.5Q75 223 75 215t5-13l18-18-18-18q-5-5-5-13t5.5-13.5q5.5-5.5 13-5.5t13.5 6l18 17 18-18q5-5 13-5t13.5 5.5Q175 145 175 153t-6 13h1z"/></svg>