<svg viewBox="0 0 300 368" xmlns="http://www.w3.org/2000/svg"><path d="M163 290q0 8-5.5 13.5T144 309q-8 0-13.5-5.5T125 290q0-8 5.5-13t13.5-5q8 0 13.5 5t5.5 13zm29-106q-3-13-12.5-23t-22-13q-12.5-3-24-.5T113 157q-9 7-14 17.5T94 197q0 7 5.5 12.5t13 5.5q7.5 0 13-5.5T131 197q0-7 5-10.5t11-2.5q3 1 5.5 3.5t3.5 5.5q1 5-1 9t-6 6q-9 4-15 11.5t-8 15.5q-2 8 2 14.5t11 8.5l5 1q6 0 11-4t7-10q0-2 3-3 16-8 24-24.5t3-33.5zm31-76q-3-1-4-3-15-31-46.5-47T107 48q-31 6-53.5 29T25 131q-3 19 1 37 0 2-2 5-11 10-17.5 24.5T0 228q0 22 11 40.5T40.5 298Q59 309 81 309q8 0 13.5-5.5T100 290q0-8-5.5-13.5T81 271q-18 0-30.5-12.5T38 228q0-8 3-15.5t8-12.5q8-7 12-17.5t1.5-21.5q-2.5-11-.5-23 4-20 18-34.5T114 85q22-4 41.5 6t29.5 30q4 9 12 15.5t18 8.5q21 4 34.5 20.5T263 203q0 26-17 45.5T204 272q-8 1-12.5 7t-3.5 13.5q1 7.5 6 12t12 4.5h3q26-4 46.5-19t32.5-38q12-23 12-49 0-23-10-43t-27.5-34Q245 112 223 108z"/></svg>