<svg viewBox="0 0 300 368" xmlns="http://www.w3.org/2000/svg"><path d="M231 59H69q-19 0-34.5 9.5t-25 25Q0 109 0 128v100q0 19 10.5 35.5T38 289v14q0 8 5 13t13 5q8 0 13.5-5t5.5-13v-7h150v7q0 8 5.5 13.5t13.5 5q8-.5 13-5.5t5-13v-14q17-9 27.5-25.5T300 228V128q0-19-9.5-34.5t-25-25Q250 59 231 59zm32 169q0 13-9.5 22t-22.5 9H69q-13 0-22-9t-9-22V128q0-13 9-22.5T69 96h162q13 0 22.5 9.5T263 128v100zm-88-94v87q0 6-3.5 9.5T162 234H75q-5 0-8.5-3.5T63 222v-88q0-5 3.5-8.5T75 122h88q5-1 8.5 3t3.5 9zm63 6v75q0 8-5.5 13.5T219 234q-8 0-13.5-5.5T200 215v-75q0-8 5.5-13t13.5-5.5q8-.5 13 5t5 13.5h1z"/></svg>