<svg viewBox="0 0 300 368" xmlns="http://www.w3.org/2000/svg"><path d="M99 319q2 5-1.5 10t-9.5 5H12q-6 0-9.5-5T1 319q5-16 18.5-25.5T50 284q17 0 30.5 9.5T99 319zm151-35q-17 0-30.5 9.5T201 319q-2 5 1.5 10t9.5 5h76q6 0 9.5-5t1.5-10q-5-16-18.5-25.5T250 284zm0-25q16 0 27-11t10.5-26.5q-.5-15.5-11-26.5T250 184q-16 0-26.5 11T213 221.5q0 15.5 10.5 26.5t26.5 11zm-200 0q16 0 27-11t11-26.5Q88 206 77 195t-27-11q-16 0-26.5 11T13 221.5Q13 237 23.5 248T50 259zm119 37h-38q-8 0-13.5 5.5t-5 13.5q.5 8 5.5 13.5t13 5.5h38q8 0 13.5-5.5t5-13.5q-.5-8-5.5-13t-13-5v-1zm62-237h-6v-7q0-7-5.5-12.5T207 34h-1q-7 0-13 5.5T187 53v6h-74v-6q0-8-5.5-13.5T94 34q-8 0-13.5 5.5T75 53v6h-6q-19 0-35 9T9 93q-9 16-9 35v31q0 8 5.5 13.5T19 178q8 0 13-5.5t5-13.5h226q0 8 5 13.5t13 5.5q8 0 13.5-5.5T300 159v-31q0-19-9-35t-25-25q-16-9-35-9z"/></svg>