<svg viewBox="0 0 300 368" xmlns="http://www.w3.org/2000/svg"><path d="M295 212q-3-11-10.5-20T266 178q-21-11-43-4-10 3-19 9.5T189 201v-1q-11-11-27-14.5t-32 2.5q-11 4-20 12-5-10-14-16.5T77 174q-22-7-43 4-11 5-18.5 14T5 212q-10 31 1 82 2 9 8 16t16 10q5 1 11 1 13 0 23-9 23-19 36-38 6 20 20 43 5 8 13 12.5t17 4.5q9 0 17-4.5t13-12.5q14-23 20-43 13 19 36 38 10 9 23 9 6 0 12-1 9-3 15-10t8-16q11-51 1-82zM79 233q-7 21-37 49-8-38-2-59 2-5 9-10 9-7 18-3.5T79 220q3 7 0 13zm71 61q-19-34-19-55 0-6 5-12t14-6q9 0 14 5.5t5 13.5q0 20-19 54zm108-12q-30-28-37-49-3-7 0-13.5t13.5-10Q245 206 252 213q6 4 8 10 6 21-2 59zM5 40q5-6 13-6t13.5 5Q37 44 48 51q20 13 42 21 30 12 60 12 43 0 85-22 21-12 34-23 5-5 13-5t13 6q5 6 5 13.5T294 67l-20 15q-23 15-49 25l5 14q3 7 0 14t-11 10q-3 2-7.5 2t-9.5-3.5q-5-3.5-7-8.5l-7-17q-9 2-19 3v19q0 8-5.5 13.5T150 159q-8 0-13.5-5.5T131 140v-19q-10-1-19-3l-7 17q-2 5-7 8.5t-9.5 3.5q-4.5 0-7.5-2-8-3-11-10t0-14l5-14Q49 97 26 82L6 67q-6-6-6-13.5T5 40z"/></svg>