<svg viewBox="0 0 300 368" xmlns="http://www.w3.org/2000/svg"><path d="M92 269q-5 13-16 20t-24 7H19q-8 0-13.5-5T0 278q0-8 5.5-13.5T19 259h33q4 0 6-4 2-7 9.5-10t14.5 0q7 3 10 10t0 14zm71-173q12 0 21.5-9t9.5-22q0-13-9.5-22t-22-9q-12.5 0-22 9T131 65q0 13 9.5 22t22.5 9zm100-62q-9 0-17 18.5T233 102q-5 31-6 70h-27q-4 0-5-4l-23-38q-6-10-16-15.5t-22-5.5H84q-12 0-22.5 6.5T45 133l-18 36q-3 7-1 14.5t9 11q7 3.5 14.5 1T61 186l18-36q1-3 5-3h16l-16 38q-6 15-1 30t19 24l51 29q3 2 3 6v41q0 8 5.5 13.5T175 334q8 0 13.5-5.5T194 315v-41q0-12-6-22.5T172 236l-33-19 17-41 7 12q5 10 15.5 15.5T200 209h38q5 0 8.5 3.5t3.5 9q0 5.5-3.5 9T238 234h-9q4 44 13.5 72t20 28q10.5 0 19-20t13.5-54.5q5-34.5 5-75.5t-5-75.5Q290 74 281.5 54T263 34z"/></svg>