<svg viewBox="0 0 300 368" xmlns="http://www.w3.org/2000/svg"><path d="M150 209q-16 0-26.5-11T113 171.5q0-15.5 10.5-26.5t26.5-11q16 0 27 11t11 26.5q0 15.5-11 26.5t-27 11zm113-77v133q0 19-9.5 34.5t-25.5 25q-16 9.5-34 9.5h-88q-18 0-34-9.5t-25-25Q38 284 38 265V132q-17-4-27.5-17.5T0 84q0-21 14.5-35.5T50 34h200q21 0 35.5 14.5T300 84q0 17-10.5 30.5T263 132zm-38 133V71H75v194q0 13 9 22t22 9h88q13 0 22-9t9-22zm-44-31q-8 0-13 5.5t-5 13.5q0 8 5 13t13 5q8 0 13.5-5t5.5-13q0-8-5.5-13.5T181 234zm-62 0q-8 0-13.5 5.5T100 253q0 8 5.5 13t13.5 5q8 0 13.5-5t5.5-13q0-8-5.5-13.5T119 234z"/></svg>