<svg viewBox="0 0 300 368" xmlns="http://www.w3.org/2000/svg"><path d="M225 143v67q0 8-5 14.5t-13 9.5l-44 13v-95q0-9 5-15.5t13-9.5l16-5q11-3 19.5 3.5T225 143zm-106-16l-16-5q-11-3-19.5 3.5T75 143v67q0 8 5 14.5t13 9.5l45 13v-95q0-9-5.5-15.5T119 127zm181 57q0 41-20 75.5T225.5 314Q191 334 150 334t-75.5-20Q40 294 20 259.5T0 184q0-41 20-75.5T74.5 54Q109 34 150 34t75.5 20Q260 74 280 108.5t20 75.5zm-37 0q0-31-15.5-56.5t-41-41Q181 71 150 71.5T93.5 87q-25.5 15-41 40.5t-15 56.5q.5 31 15.5 56.5T93.5 281q25.5 15 56.5 15t56.5-15q25.5-15 41-40.5T263 184z"/></svg>