<svg viewBox="0 0 300 368" xmlns="http://www.w3.org/2000/svg"><path d="M100 34q-20 0-37.5 10T35 71.5Q25 89 25 109t10 37.5Q45 164 62.5 174t37.5 10q20 0 37.5-10t27.5-27.5q10-17.5 10-37.5t-10-37.5Q155 54 137.5 44T100 34zm0 112q-16 0-27-10.5T62 109q0-16 11-27t27-11q16 0 27 11t11 27q0 16-11 26.5T100 146zm37 88q-2 8-8.5 12t-14 2q-7.5-2-14.5-2-17 0-31.5 8.5t-22.5 23Q38 292 38 309v6q0 8-5.5 13.5T19 334q-8 0-13.5-5.5T0 315v-6q0-27 13.5-50T50 222.5Q73 209 100 209q12 0 23 3 8 1 12 8t2 14zm151-3v-28q0-24-16.5-40.5t-40-16.5q-23.5 0-40 16.5T175 203v28q-12 11-12 28v37q0 16 10.5 27t26.5 11h63q15 0 26-11t11-27v-37q0-17-13-28h1zm-57-47q8 0 13.5 5.5T250 203v18h-37v-18q0-8 5-13.5t13-5.5zm0 112q-8 0-13.5-5t-5.5-13q0-8 5.5-13.5T231 259q8 0 13.5 5.5T250 278q0 8-5.5 13t-13.5 5z"/></svg>