<svg viewBox="0 0 300 368" xmlns="http://www.w3.org/2000/svg"><path d="M296 130q-4-7-11.5-10.5T269 117q-39 5-69 16-5-22-13-46-6-22-12-37-3-7-10-12t-15-5q-8 0-15 5t-10 12q-5 15-12 37-8 24-13 46-34-12-70-16-8-1-15 2.5T4 130q-4 7-4 14.5T5 159q11 18 37 44l-12 4q-8 3-12.5 9.5t-5 14.5q-.5 8 4 15t12.5 9q20 8 50 13l-3 8q-2 7 0 14t7 12q8 7 18 7 4 0 8-1 10-4 22-11v18q0 8 5.5 13.5T150 334q8 0 13.5-5.5T169 315v-18q11 7 22 11 7 2 13.5.5t12-6.5q5.5-5 7-12t.5-14l-3-8q32-4 51-12 7-3 11.5-10t4-15q-.5-8-5-14.5T270 208l-12-4q25-26 37-45 5-6 5-14t-4-15zm-87 69q-4 3-5.5 8t0 10q1.5 5 4.5 8.5t8 5.5q-23 3-47 3v-19q0-8-5.5-13.5t-13.5-5q-8 .5-13.5 5.5t-5.5 13v19q-25 0-49-4 5-1 9-5t5.5-9q1.5-5 0-10t-5.5-9q-21-18-40-39 33 7 55 18 8 5 16.5.5T133 163q4-29 17-70 13 41 17 69 2 10 10.5 14.5t16.5-.5q22-11 55-18-19 23-40 41z"/></svg>