<svg viewBox="0 0 300 311" xmlns="http://www.w3.org/2000/svg"><path d="M261 118q-13-10-16.5-14T239 66q0-26-3-36-4-17-15.5-20.5T196 11q-8 4-25 15-13 9-20 12-12 7-20.5 7.5T110 43q-7-2-22-8-22-9-33-11-18-3-30 6Q9 42 12 62q2 12 13 36 7 14 10 21 4 12 2.5 19.5T31 155q-3 5-11 15-10 11-14 18-6 11-6 22 0 21 18 29 11 5 35 7 15 1 23 2 12 2 20.5 6.5T112 266q5 5 12 14 10 14 18 19 12 9 27.5 9t24.5-17q6-10 13-36 8-25 11.5-29.5T247 213q26-9 36-15 17-11 17-27t-13-31q-7-8-26-22zm-22 71q-16 5-23 9-11 5-16 10.5T190 226q-2 6-7 22-9 32-13 35-8 0-13-3.5T144 265q-9-11-14-17-10-10-22-16t-27-8q-9-2-26-3-14-1-20-2.5t-8-3q-2-1.5-2-6t3-9.5q3-5 11-14 10-12 14-19 8-13 9.5-25.5T59 114q-3-9-11-27T38 61q-2-8 1-10.5t8-2.5q5 0 14 3l18 7q17 7 26 9 16 5 28 3.5t27-8.5q9-5 25-15 21-14 26-14 2 5 4 34 0 22 2 31 2 15 8 22t21 18q14 10 20 16 9 9 9 16t-36 19z"/></svg>