<svg viewBox="0 0 300 311" xmlns="http://www.w3.org/2000/svg"><path d="M113 245q-21 0-35.5-14.5t-14.5-35Q63 175 77.5 160t35-15q20.5 0 35.5 15t15 35.5q0 20.5-15 35.5t-35 15v-1zm0-75q-11 0-18 7.5t-7 18q0 10.5 7 17.5t17.5 7q10.5 0 17.5-7t7.5-17.5q.5-10.5-7-17.5t-18.5-7l1-1zm0 138q-35 0-63-19T9 238.5q-13-31.5-6.5-65t31-58Q58 91 121 57q32-17 62-29l17-8v36l97-45-43 97h34l-8 17q-12 29-29 62-34 63-59 88-16 16-36.5 24.5T112 308h1zm62-249q-35 16-64 32-42 25-59.5 42T28 173q-6 23 0 45.5t22.5 39Q67 274 90 280t45.5 0q22.5-6 40-23.5T217 197q16-29 32-64h-34l32-72-72 34V59z"/></svg>