<svg viewBox="0 0 300 311" xmlns="http://www.w3.org/2000/svg"><path d="M150 20q-42 0-76 21-32 19-51 51T1 161.5Q-2 199 13 233q17 36 51 60l3 2h166l3-2q35-24 51-60 15-34 12-71.5T277 92q-19-32-51-51-34-21-76-20v-1zm75 250H75q-34-25-45-65-10-36 2.5-73.5T75 71q32-26 75-26t75 26q30 23 42.5 60.5T270 205q-11 40-45 65zm-50-102l69 30-10 23-69-30q-7 5-15.5 4.5t-15-5.5q-6.5-5-8.5-13.5t1-16q3-7.5 10.5-11.5t16-3q8.5 1 14.5 7t7 15zm75 2v3l-25-11q-4-28-25-47t-50-20q-24 0-42 13t-26.5 34q-8.5 21-5 43.5T98 224l-18 18q-23-22-28-51.5t6-57.5q11-28 35.5-45.5T150 70q27 1 50 14t36.5 36q13.5 23 13.5 50z"/></svg>