<svg viewBox="0 0 300 311" xmlns="http://www.w3.org/2000/svg"><path d="M263 45H38q-16 0-27 11T0 83v187h113l26-44q4-6 11-6t11 6l26 44h113V83q0-16-11-27t-27-10l1-1zm12 200h-74l-19-31q-5-9-13.5-14t-18.5-5q-10 0-18.5 5T118 214l-19 31H25V83q0-5 3.5-9t9.5-4h225q5 0 8.5 4t3.5 9v162zM206 95q-18 0-30.5 13T163 139q0 18 12.5 31t30.5 13q18 0 31-13t13-31q0-18-13-31t-31-13zm0 63q-8 0-13-5.5t-5-13.5q0-8 5-13.5t13-5.5q8 0 13.5 5.5T225 139q0 8-5.5 13.5T206 158zM94 95q-18 0-31 13t-13 31q0 18 13 31t31 13q18 0 31-13t13-31q0-18-13-31T94 95zm0 63q-8 0-13.5-5.5T75 139q0-8 5.5-13t13.5-5.5q8-.5 13.5 5T113 139q0 8-5.5 13.5T94 158z"/></svg>