<svg viewBox="0 0 300 311" xmlns="http://www.w3.org/2000/svg"><path d="M100 8H38Q22 8 11 19T0 45v100h138V45q0-15-11.5-26T100 8zm13 112H25V45q0-5 3.5-8.5T38 33h62q5 0 9 3.5t4 8.5v75zm150 50h-63q-15 0-26 11.5T163 208v100h137V208q0-15-11-26.5T263 170zm12 113h-87v-75q0-5 3.5-9t8.5-4h63q5 0 8.5 4t3.5 9v75zM170 88q-7-7-7-17.5t7-17.5l41-41 18 17-29 29h38q20 0 35 14.5t15 35.5v37h-25v-37q0-10-7.5-17.5T237 83h-37l29 28-18 18-41-41zm-40 140q8 7 8 17.5t-8 17.5l-41 41-17-17 28-29H63q-21 0-35.5-14.5T13 208v-38h25v38q0 10 7 17.5t18 7.5h37l-29-29 18-17 41 41z"/></svg>