<svg viewBox="0 0 300 311" xmlns="http://www.w3.org/2000/svg"><path d="M106 145q-8 0-13.5-5t-5-13q.5-8 5.5-13.5t13-5.5q8 0 13.5 5.5T125 127q0 8-5.5 13.5T106 146v-1zm88-37q-8 0-13.5 5.5T175 127q0 8 5.5 13.5t13.5 5q8-.5 13-5.5t5-13q0-8-5-13.5t-13-5.5zM150 8q-41 0-75.5 20T20 82.5Q0 117 0 158t20 75.5Q40 268 74.5 288t75.5 20q44 0 81-24l-4-3q-6-6-11-17-30 19-65 19t-63.5-17Q59 249 42 220.5T25 158q0-34 17-62.5T87.5 50Q116 33 150 33t62.5 17Q241 67 258 95.5t17 62.5q0 18-5 36 16 7 22 11 8-23 8-47 0-41-20-75.5T225.5 28Q191 8 150 8zM75 233h25v-50H75v50zm63-50h-25v50h25v-50zm12 50h25v-50h-25v50zm38 0h25v-50h-25v50zm46-25q-4 0-6.5 2.5T225 217q0 2 2 10 4 11 7 19 5 12 11 17 7 7 17.5 7t18-7q7.5-7 7.5-17.5t-7.5-17q-7.5-6.5-24-13.5t-22.5-7z"/></svg>