<svg viewBox="0 0 300 311" xmlns="http://www.w3.org/2000/svg"><path d="M150 8q-41 0-75.5 20T20 82.5Q0 117 0 158t20 75.5Q40 268 74.5 288t75.5 20q41 0 75.5-20t54.5-54.5q20-34.5 20-75.5t-20-75.5Q260 48 225.5 28T150 8zm0 275q-34 0-62.5-17T42 220.5Q25 192 25 158t17-62.5Q59 67 87.5 50T150 33q34 0 62.5 17T258 95.5q17 28.5 17 62.5t-17 62.5Q241 249 212.5 266T150 283zM125 83q0-10 7.5-17.5T150 58q10 0 17.5 7.5T175 83q0 10-7.5 17.5T150 108q-10 0-17.5-7.5T125 83zm50 58v45l24 55-23 10-24-55h-4l-24 55-23-10 24-55v-45l-54-21 9-24 60 24h20l61-24 9 24-55 21z"/></svg>