<svg viewBox="0 0 300 311" xmlns="http://www.w3.org/2000/svg"><path d="M297 113q-7-9-19-21-23-21-48-35-34-20-67-23V8h-25v26q-34 3-68 23-25 14-48 35-12 12-19 21l-3 3v42h300v-42l-3-3zm-22 20H25v-8q20-22 44-39 42-28 81-28t81 28q24 17 44 39v8zm-33 132q8 8 8 18t-7.5 17.5q-7.5 7.5-18 7.5t-17.5-7.5q-7-7.5-7-17.5t7-18l18-20 17 20zm-74 0q7 8 7 18t-7.5 17.5Q160 308 150 308t-17.5-7.5Q125 293 125 283t7-18l18-20 18 20zm-76 0q8 8 8 18t-7.5 17.5q-7.5 7.5-18 7.5T57 300.5q-7-7.5-7-17.5t7-18l18-20 17 20zm113-39q-7 7-17.5 7t-17.5-7.5q-7-7.5-7-17.5t7-18l18-20 17 20q8 8 8 18t-8 18zm-75 0q-7 7-17.5 7t-18-7.5Q87 218 87 208t8-18l17-20 18 20q7 8 7 18t-7 18z"/></svg>