<svg viewBox="0 0 300 311" xmlns="http://www.w3.org/2000/svg"><path d="M150 8q-41 0-75.5 20T20 82.5Q0 117 0 158t20 75.5Q40 268 74.5 288t75.5 20q41 0 75.5-20t54.5-54.5q20-34.5 20-75.5t-20-75.5Q260 48 225.5 28T150 8zm0 275q-34 0-62.5-17T42 220.5Q25 192 25 158t17-62.5Q59 67 87.5 50T150 33q34 0 62.5 17T258 95.5q17 28.5 17 62.5t-17 62.5Q241 249 212.5 266T150 283zM67 125l-9-24q23-9 38-31l21 14q-20 29-50 41zm116-41l21-14q15 22 38 31l-9 24q-30-12-50-41zm-70 136h75v25h-75v-25zm24-40q-16 16-38 16-10 0-20.5-4.5T61 180l18-18q7 8 17 9 13 1 23-9l18 18zm85-18l18 18q-15 14-35 16h-3q-22 0-38-17l18-17q9 9 20.5 8.5T222 162z"/></svg>