<svg viewBox="0 0 300 311" xmlns="http://www.w3.org/2000/svg"><path d="M139 283q8 14 20 25H63v-48q0-16-7-30.5T36 203q-20-19-29.5-44.5T1 106q3-25 17-46t35-34.5Q74 12 98.5 9t48 4.5Q170 21 187.5 37T215 75q10 22 10 45 0 7-1 13-13 0-26 4 2-9 2-16 0-19-7.5-36T171 55.5Q157 43 139 37t-37-3q-29 3-50.5 24.5T26 109q-3 21 4 41t23 34q22 21 30 49h17v-90q-11-4-18-13.5T75 108h25q0 5 3.5 9t9 3.5q5.5-.5 9-4t3.5-8.5h25q0 12-7 21.5T125 143v115H87v25h52zm140-34l17 11-12 21-18-10q-12 13-29 17v20h-24v-20q-17-4-29-17l-18 10-12-21 17-11q-2-8-2-16t2-16l-17-11 12-21 18 10q12-13 29-17v-20h25v20q16 4 28 17l18-10 12 21-17 11q2 8 2 16t-2 16zm-23-16q0-13-9-22t-22-9q-13 0-22 9t-9 22q0 13 9 22t22 9q13 0 22-9t9-22z"/></svg>