<svg viewBox="0 0 300 311" xmlns="http://www.w3.org/2000/svg"><path d="M206 183H94q-24 0-40 16.5T38 239v69h25v-69q0-10 5.5-18T83 210q12 21 27 44 20 31 38 54h32l-14-18q32-42 50-80 10 3 16 11t6 18v69h25v-69q0-23-16.5-39.5T206 183zm-96 25h79q-16 30-39 61-21-29-40-61zm78-131q-1 8-6 13.5T169 96h-38q-8 0-13.5-5.5T112 77q0-8 5.5-13.5T131 58h38q8 0 13.5 5.5T188 77zm72 6q-7-5-18-6 11-2 18-6.5T272 56q4-7 6-15l2-7-8-1q-9 0-16 1-11 2-18 6-10 7-16 24-6-25-26-40.5T150 8q-20 0-37.5 10T85 45.5Q75 63 75 83t10 37.5Q95 138 112.5 148t37.5 10q28 0 49-18.5T224 94q6 13 13.5 18.5T256 120q7 1 16 0h8l-2-7q-2-9-6-16-5-9-12-14zm-110 50q-21 0-35.5-14.5T100 83q0-21 14.5-35.5T150 33q21 0 35.5 14.5T200 83q0 21-14.5 35.5T150 133z"/></svg>