<svg viewBox="0 0 300 311" xmlns="http://www.w3.org/2000/svg"><path d="M67 195H0v25h38v38H0v25h25v6q0 8 5.5 13.5T44 308q8 0 13-5.5t5-13.5q1 8 6 13.5t13 5.5q8 0 13.5-5.5T100 289v-6h25v-27l-11-29q-6-14-18.5-23T67 195zm-4 25h4q8 1 14.5 5t9.5 11l8 22H63v-38zm175-62l44-43q12-12 16-28t0-32.5Q294 38 282 26 263 8 237.5 8T193 26q-12 12-16 28.5t0 32.5q4 16 16 28l45 43zM211 44q11-11 26.5-11T264 44q11 11 11 26.5T264 97l-26 26-27-26q-11-11-11-26.5T211 44zm89 189q0 21-14.5 35.5T250 283H150v-25h100q10 0 17.5-7.5T275 233q0-10-7.5-17.5T250 208H150q-21 0-35.5-14.5T100 158q0-21 14.5-35.5T150 108h9q6 14 17 25h-26q-10 0-17.5 7.5T125 158q0 10 7.5 17.5T150 183h100q21 0 35.5 14.5T300 233zM225 68q0 5 3.5 8.5t9 3.5q5.5 0 9-3.5T250 68q0-5-3.5-9t-9-4q-5.5 0-9 4t-3.5 9z"/></svg>