<svg viewBox="0 0 300 311" xmlns="http://www.w3.org/2000/svg"><path d="M206 8q-26 0-47.5 7.5T125 36q-12 13-12 28v33q-10-2-19-2-26 0-47.5 7.5t-34 20.5Q0 136 0 152v100q0 15 12.5 28t34 20.5Q68 308 94 308q31 0 55.5-11t33.5-28q13 1 23 1 26 0 47.5-7t34-20q12.5-13 12.5-29V64q0-15-12.5-28t-34-20.5Q232 8 206 8zm0 25q19 0 35 4.5t25 12q9 7.5 9 15T266 79q-9 7-25 11.5T206 95q-19 0-34.5-4.5t-25-11.5q-9.5-7-9-14.5t9.5-15q9-7.5 24.5-12T206 33zM94 120q19 0 34.5 5t25 12q9.5 7 9.5 14.5t-9.5 15q-9.5 7.5-25 12T94 183q-19 0-35-4.5t-25-12q-9-7.5-9-15t9-14.5q9-7 25-12t35-5zm-69 70q13 9 31 13.5t38 4.5q20 0 37.5-4.5T162 190v12q1 7-8.5 14.5t-25 12Q113 233 94 233t-35-4.5q-16-4.5-25-12T25 202v-12zm69 93q-19 0-35-4.5t-25-12q-9-7.5-9-14.5v-12q13 9 31 13.5t38 4.5q20 0 37.5-4.5T162 240v12q0 7-9 14.5t-24.5 12Q113 283 94 283zm112-38q-8 1-18-1v-25q10 1 18 2 20-1 38-5.5t31-12.5v11q0 8-9 15t-25 11.5q-16 4.5-35 4.5zm0-50q-8 0-18-1v-25q10 1 18 1 20 0 38-4.5t31-12.5v11q0 8-9 15t-25 12q-16 5-35 4zm0-50q-9 0-19-1-4-17-22-29 20 6 40.5 6t38.5-5q18-5 31-13v11q0 8-9 15t-25 12q-16 5-35 5v-1z"/></svg>