<svg viewBox="0 0 300 311" xmlns="http://www.w3.org/2000/svg"><path d="M188 83q0-16-11-26.5t-27-11Q134 45 123.5 56T113 83q0 16 10.5 26.5T150 120q16 0 26.5-10.5T187 83h1zm-38 12q-5 0-8.5-3.5T138 83q0-5 3.5-8.5t8.5-4q5-.5 9 3.5t4 9q0 5-4 9t-9 4v-1zm0 25q16 0 26.5 11t11 27q.5 16-10.5 26.5T150 195q-16 0-26.5-10.5T113 158q0-16 10.5-26.5T150 121v-1zm-37 113q0 16 10.5 27t26.5 10.5q16-.5 26.5-11t11-26.5q.5-16-10.5-27t-27-10.5q-16 .5-27 11T113 233zm37-13q5 0 9 4t4 9q0 5-4 9t-9 3.5q-5-.5-8.5-4T138 233q0-5 3.5-8.5t8.5-3.5v-1zM213 8H88Q72 8 61 19T50 46v262h200V45q0-15-11-26T213 8zm12 275H75V45q0-5 3.5-8.5T88 33h125q5 0 8.5 3.5T225 45v238z"/></svg>