<svg viewBox="0 0 300 311" xmlns="http://www.w3.org/2000/svg"><path d="M100 58q0-21-14.5-35.5T50 8Q29 8 14.5 22.5T0 58q0 17 10.5 30.5T38 106v104q-17 4-27.5 17.5T0 258q0 21 14.5 35.5T50 308q21 0 35.5-14.5T100 258q0-17-10.5-30.5T63 210V106q16-4 26.5-17.5T100 58zm-75 0q0-10 7.5-17.5T50 33q10 0 17.5 7.5T75 58q0 10-7.5 17.5T50 83q-10 0-17.5-7.5T25 58zm50 200q0 10-7.5 17.5T50 283q-10 0-17.5-7.5T25 258q0-10 7.5-17.5T50 233q10 0 17.5 7.5T75 258zm188-48v-90h-25v90q-17 4-27.5 17.5T200 258q0 21 14.5 35.5T250 308q21 0 35.5-14.5T300 258q0-17-10.5-30.5T262 210h1zm-13 73q-10 0-17.5-7.5T225 258q0-10 7.5-17.5T250 233q10 0 17.5 7.5T275 258q0 10-7.5 17.5T250 283zM200 90l32-32-32-32 18-18 32 32 32-32 18 18-32 32 32 32-18 18-32-32-32 32-18-18z"/></svg>