<svg viewBox="0 0 300 311" xmlns="http://www.w3.org/2000/svg"><path d="M259 121q4-10 4-19 0-24-16.5-40.5t-40-16.5q-23.5 0-40 16.5T150 102l1 6H88q-24 0-44 12t-32 32Q0 172 0 195v25q0 24 12 44t32 32q20 12 44 12h125q23 0 43-12t32-32q12-20 12-44v-25q0-22-11-42t-30-32zm-53-51q13 0 22.5 9.5t9 22.5q-.5 13-9.5 22t-22 9q-13 0-22-9t-9-22q0-13 9-22t22-9v-1zm69 150q0 17-8.5 31.5t-23 23Q229 283 212 283H88q-17 0-31.5-8.5t-23-23Q25 237 25 221v-26q0-16 8.5-30.5t23-23Q71 133 87 133h73q7 12 19.5 18.5T206 158q23 0 39-16 14 9 22 23t8 31v24zm-175-50h81v25h-81q-5 0-8.5 4t-3.5 9q0 5 3.5 8.5t8.5 3.5v25q-16 1-27-10t-11-27q0-16 11-27t27-11zM75 39q0-13 9-22t22-9q13 0 22.5 9t9.5 22q0 13-9.5 22.5t-22.5 9Q93 70 84 61t-9-22zm188-12q0-8 5-13.5T281 8q8 0 13.5 5.5T300 27q0 8-5.5 13T281 45q-8 0-13-5t-5-13z"/></svg>