<svg viewBox="0 0 300 311" xmlns="http://www.w3.org/2000/svg"><path d="M204 199l17 18q-9 8-22 15-25 13-49 13t-49-13q-13-7-22-15l17-18q6 5 16 11 20 11 38 10.5t38-10.5q10-6 16-11zm-20-63q-4 2-6.5 6.5T175 152q0 8 5.5 13t13.5 5q8 0 13-5t6-13q0-3-1-6l21-16-16-20-33 26zm100-45q16 32 16 67 0 41-20 75.5T225.5 288Q191 308 150 308t-75.5-20Q40 268 20 233.5T0 158q0-35 16-67L0 8l62 28q19-13 41.5-20.5T150 8q24 0 46.5 7.5T238 36l62-28-16 83zm-9 67q0-34-17-62.5T212.5 50Q184 33 150 33T87.5 50Q59 67 42 95.5T25 158q0 34 17 62.5T87.5 266q28.5 17 62.5 17t62.5-17q28.5-17 45.5-45.5t17-62.5zm-187-6q0 8 5 13t13 5q8 0 13.5-5t5.5-13q0-11-9-16l-33-26-16 20 21 16q-1 3 0 6z"/></svg>