<svg viewBox="0 0 300 311" xmlns="http://www.w3.org/2000/svg"><path d="M271 57q23-23 23-49h-25q0 15-15 31-17-13-38-17-26-5-50.5 5.5T126 60q-8 12-20 13-21 2-40.5 11T31 108q-16 17-24 38T.5 189Q2 211 12 231.5T39 269q19 19 41.5 29t45.5 10q21 0 40-8t34-23q15-15 24-34.5t11-40.5q1-12 13-20 22-15 32.5-39.5T286 92q-4-19-15-35zm-37 104q-11 7-17 17.5t-7 21.5q-2 17-9 32t-19 27q-17 17-39 22t-44.5-2.5Q76 271 57 251q-14-14-22.5-30.5T25 188q-2-36 24-62 12-12 27-19t32-9q11-1 21.5-7T147 74q9-13 23-20.5t30-7.5q6 0 12 1 18 3 32 17t17.5 32.5q3.5 18.5-4 36.5T234 161zm-46 16q-1 8-6 13t-13 5q-8 0-13.5-5.5t-5.5-13q0-7.5 5.5-13T169 158q8 0 13.5 5.5T188 177zm-38 50q0 7-5.5 12.5T131 245q-8 0-13.5-5.5t-5-13q.5-7.5 5.5-13t13-5.5q8 0 13.5 5.5T150 227z"/></svg>