<svg viewBox="0 0 300 311" xmlns="http://www.w3.org/2000/svg"><path d="M150 8q-41 0-75.5 20T20 82.5Q0 117 0 158t20 75.5Q40 268 74.5 288t75.5 20q41 0 75.5-20t54.5-54.5q20-34.5 20-75.5t-20-75.5Q260 48 225.5 28T150 8zm0 25q34 0 63 17t46 46l-6-1h-77l-12 13h-28l-12-13H47l-6 1q17-29 46-46t63-17zm0 250q-33 0-61-16t-45-43.5Q27 196 25 164q5 9 13.5 14t19.5 5h41q13 0 23-8t14-20l5-22h18l5 22q4 12 14 20t23 8h41q11 0 19.5-5t13.5-14q-2 32-19 59.5T211 267q-28 16-61 16zm54-84l17 18q-9 8-22 15-25 13-49 13t-49-13q-13-7-22-15l17-18q6 5 16 11 20 11 38 10.5t38-10.5q10-6 16-11z"/></svg>