<svg viewBox="0 0 300 311" xmlns="http://www.w3.org/2000/svg"><path d="M138 270h25v25h-25v-25zm84-172q-7-34-34.5-55.5T125 21q-27-1-50 12.5T38.5 70Q25 93 25 120q0 25 11 46-16 9-26 25.5t-10 35Q0 245 9.5 261t25 25q15.5 9 34.5 9h44v-25H69q-18 0-31-12.5T25 227q0-15 9-27t24-16l18-4-11-15q-15-20-15-45 0-20 10-37t27.5-27.5Q105 45 125 45q28 0 49.5 19t24.5 46l2 10 9 1q28 4 46.5 25t18.5 49q0 21-10 38t-27.5 27Q220 270 200 270h-12v25h12q27 0 50-13t36.5-36q13.5-23 13.5-51 0-34-22-61.5T222 98zm-24 72q-3-13-12.5-22.5T164 135q-12-3-23.5-1t-21 9.5Q110 151 105 161t-5 22h25q0-12 9.5-19.5T157 159q6 1 11 6t6 11q3 10-1.5 18T160 206q-10 5-16.5 15t-6.5 22v2h25v-2q0-5 2.5-9t6.5-6q16-7 24-23.5t3-34.5z"/></svg>