<svg viewBox="0 0 300 311" xmlns="http://www.w3.org/2000/svg"><path d="M106 145q-19 1-34.5-8.5t-25-25.5Q37 95 37 76.5T46.5 42q9.5-16 25-25T106 8q19 0 34.5 9t25 25q9.5 16 9.5 34.5t-9.5 34.5q-9.5 16-25 25t-34.5 9zm0-112q-18 0-31 13T62 77q0 18 13 30.5t31 12.5q18 0 31-12.5T150 77q0-18-13-31t-31-13zm107 275q-24 0-44-12t-32-32q-12-20-12-43.5t12-43.5q12-20 32-32t43.5-12q23.5 0 43.5 12t32 32q12 20 12 43.5T288 264q-12 20-32 32t-43 12zm0-150q-17 0-31.5 8.5t-23 23q-8.5 14.5-8.5 31t8.5 31q8.5 14.5 23 23t31 8.5q16.5 0 31-8.5t23-23q8.5-14.5 8.5-31t-8.5-31q-8.5-14.5-23-23T213 158zm33 79l-21-22v-32h-25v43l29 28 17-17zm-134-67H63q-17 1-31.5 9t-23 22.5Q0 216 0 233v75h25v-75q0-16 11-27t26-11h41q3-13 9-24v-1z"/></svg>