<svg viewBox="0 0 300 311" xmlns="http://www.w3.org/2000/svg"><path d="M300 158q0 41-20 75.5T225.5 288Q191 308 150 308h-10l5-25h5q34 0 62.5-17t45.5-45.5q17-28.5 17-62.5t-17-62.5Q241 67 212.5 50T150 33q-34 0-62.5 17T42 95.5Q25 124 25 158v5l-25 5v-10q0-41 20-75.5T74.5 28Q109 8 150 8t75.5 20Q260 48 280 82.5t20 75.5zm-95-72l-44 34 44 35 15-19-19-16 19-15-15-19zM95 155l44-35-44-34-15 19 19 15-19 16 15 19zm46 12l-26 142-40-32-63 18 20-62-32-40 141-26zm-32 32l-63 11 14 18-10 30 30-9 18 14 11-64zm66 14l25 25 39-38-18-18-21 21-25-25-13 13-8 43 21-21z"/></svg>