<svg viewBox="0 0 300 311" xmlns="http://www.w3.org/2000/svg"><path d="M300 170q0-32-17-60-15-23-40-40-20-14-43-21V8H100v41q-23 7-43 21-25 17-40 40-17 28-17 60 0 43 31 72.5t82 37.5l-10 7 14 21 21-14v14h25v-14l21 14 14-21-11-7q51-8 82-37.5t31-71.5v-1zM125 63V33h50v30l4 4q21 24 33 54t13 62q0 18-8.5 34.5T192 243q8-23 8-48 0-49-20-89-10-21-21-32l-9-9-9 9q-11 11-21 32-20 40-20 89 0 25 8 48-16-9-24.5-25.5T75 183q1-32 13-62t33-54l4-4zm0 132q-1-49 25-91 26 42 25 91 0 22-7 42-7 21-18 21t-18-21q-7-20-7-42zM25 170q0-26 14-48t37-35q-26 45-26 96 0 30 17 55-19-10-30.5-28T25 170zm208 68q17-25 17-55 0-51-26-96 23 13 37 35t14 49q0 21-11.5 39T233 238z"/></svg>