<svg viewBox="0 0 300 311" xmlns="http://www.w3.org/2000/svg"><path d="M100 133q21 0 35.5-14T150 86q0-19-18-44-11-14-23-26l-9-8-9 8Q79 28 68 42 50 67 50 86t14.5 33Q79 133 100 133zm0-90q10 11 17.5 22.5T125 84q0 10-7.5 17t-17.5 7q-10 0-17.5-7T75 84q0-7 7.5-18.5T100 43zm188 75q-12-11-27.5-10T235 120l-41 44q-5-8-14-13.5t-19-5.5H38q-16 0-27 11T0 183v87q0 16 11 27t27 11h130l122-137q11-12 10-27.5T288 118zm-16 36L157 283H38q-6 0-9.5-3.5T25 270v-87q0-5 3.5-9t8.5-4h124q6 0 10 4.5t4 10q0 5.5-3.5 9.5t-8.5 5l-65 9 4 25 64-9q11-2 19.5-9t12.5-17l55-61q4-4 9-4t9 3.5q4 3.5 4 8.5t-3 9z"/></svg>