<svg viewBox="0 0 300 311" xmlns="http://www.w3.org/2000/svg"><path d="M300 152l-37-57h-50q0-22-14.5-39T163 34V8h-25v26q-22 5-36.5 22T87 95H37L0 152v18h13v138h87v-38q0-20 14.5-35t35.5-15q21 0 35.5 15t14.5 36v37h88V170h12v-18zM51 120h62V95q0-15 10.5-26T150 58q16 0 26.5 11T187 95v25h62l17 25H34l17-25zm212 163h-38v-13q0-20-10-37t-27.5-27.5Q170 195 150 195t-37.5 10.5Q95 216 85 233t-10 37v13H38V170h225v113zM169 95q0 8-5.5 13.5T150 114q-8 0-13.5-5.5t-5.5-13q0-7.5 5.5-13T150 77q8 0 13.5 5.5T169 95z"/></svg>