<svg viewBox="0 0 300 311" xmlns="http://www.w3.org/2000/svg"><path d="M300 308h-25V8h25v300zM19 45q8 0 13.5-5T38 27q0-8-5.5-13.5T19 8q-8 0-13.5 5.5T0 27q0 8 5.5 13T19 45zm62 0q8 0 13.5-5t5.5-13q0-8-5.5-13.5T81 8q-8 0-13 5.5T63 27q0 8 5 13t13 5zm0 263q8 0 13.5-5.5T100 289q0-8-5.5-13.5T81 270q-8 0-13 5.5T63 289q0 8 5 13.5t13 5.5zM219 45q8 0 13.5-5t5.5-13q0-8-5.5-13.5T219 8q-8 0-13.5 5.5T200 27q0 8 5.5 13t13.5 5zm0 263q8 0 13.5-5.5T238 289q0-8-5.5-13.5T219 270q-8 0-13.5 5.5T200 289q0 8 5.5 13.5T219 308zm-200 0q8 0 13.5-5.5T38 289q0-8-5.5-13.5T19 270q-8 0-13.5 5.5T0 289q0 8 5.5 13.5T19 308zm0-63q8 0 13.5-5t5.5-13q0-8-5.5-13.5T19 208q-8 0-13.5 5.5T0 227q0 8 5.5 13t13.5 5zm0-68q8 0 13.5-5.5T38 158q0-8-5.5-13.5T19 139q-8 0-13.5 5.5T0 158q0 8 5.5 13.5T19 177zm0-69q8 0 13.5-5.5T38 89q0-8-5.5-13.5T19 70q-8 0-13.5 5.5T0 89q0 8 5.5 13.5T19 108zm131-63q8 0 13.5-5t5.5-13q0-8-5.5-13.5T150 8q-8 0-13.5 5.5T131 27q0 8 5.5 13t13.5 5zm0 263q8 0 13.5-5.5T169 289q0-8-5.5-13.5T150 270q-8 0-13.5 5.5T131 289q0 8 5.5 13.5T150 308zm0-63q8 0 13.5-5t5.5-13q0-8-5.5-13.5T150 208q-8 0-13.5 5.5T131 227q0 8 5.5 13t13.5 5zm0-68q8 0 13.5-5.5T169 158q0-8-5.5-13.5T150 139q-8 0-13.5 5.5T131 158q0 8 5.5 13.5T150 177zm0-69q8 0 13.5-5.5T169 89q0-8-5.5-13.5T150 70q-8 0-13.5 5.5T131 89q0 8 5.5 13.5T150 108zm88 50q0-8-5.5-13.5T219 139q-8 0-13.5 5.5T200 158q0 8 5.5 13.5T219 177q8 0 13.5-5.5T238 158zm-138 0q0-8-5.5-13.5T81 139q-8 0-13 5.5T63 158q0 8 5 13.5t13 5.5q8 0 13.5-5.5T100 158z"/></svg>