<svg viewBox="0 0 300 311" xmlns="http://www.w3.org/2000/svg"><path d="M152 114q-2 3-2 6.5t2 6.5q10 14 10 31t-10 31q-2 3-2 6.5t2 6.5q10 14 10 31t-10 31q-2 3-2 6.5t2 6.5q11 14 11 31h-25q0-9-6-15-7-10-7-22.5t7-22.5q5-6 5-15t-5-15q-7-10-7-22.5t7-22.5q5-6 5-15t-5-15q-7-10-7-22.5t7-22.5l2-2h-23q-2 9-9 18-2 3-2 6.5t2 6.5q11 14 11 31t-11 31q-2 3-2 6.5t2 6.5q11 14 11 31t-11 31q-2 3-2 6.5t2 6.5q11 14 11 31H88q0-9-6-15-7-10-7-22.5t8-22.5q5-6 5-15t-5-15q-8-10-8-22.5t8-22.5q5-6 5-15t-5-15q-8-10-8-22.5T83 98l1-2H61q-3 9-9 18-2 3-2 6.5t2 6.5q11 14 11 31t-11 31q-2 3-2 6.5t2 6.5q11 14 11 31t-11 31q-2 3-2 6.5t2 6.5q11 14 10 31H38q0-9-6-15-7-10-7-22.5t7-22.5q5-6 5-15t-5-15q-7-10-7-22.5t7-22.5q5-6 5-15t-5-15q-7-10-7-22.5T32 98l2-3H0V70h300v25H161q-3 10-9 19zm148-81l-2-25L0 33l2 25 298-25z"/></svg>