<svg viewBox="0 0 300 311" xmlns="http://www.w3.org/2000/svg"><path d="M150 120q10 0 17.5 7.5t7.5 18q0 10.5-7.5 17.5t-17.5 7q-10 0-17.5-7t-7.5-17.5q0-10.5 7.5-18T150 120zm150 25v13H200v-13q0-14-7.5-26T172 101l-13-6 54-86 11 6q35 20 55.5 55t20.5 75zm-26-12q-2-27-16-50.5T222 43l-27 43q11 8 19 20.5t10 26.5h50zm-174 25H0v-13q0-40 20.5-75T76 15l11-6 54 86-13 6q-13 6-20.5 18t-7.5 26v13zm5-72L78 43Q56 59 42 82.5T26 133h50q2-14 10-26.5T105 86zm85 92l49 88-10 7q-36 23-79 22.5T71 273l-10-7 49-88 11 8q13 9 29 9t29-9l11-8zm16 79l-25-43q-15 6-31 6t-31-6l-25 43q26 13 56 13t56-13z"/></svg>