<svg viewBox="0 0 300 311" xmlns="http://www.w3.org/2000/svg"><path d="M113 58H88q0-21 14.5-35.5t35-14.5Q158 8 173 22.5T188 58h-25q0-10-7.5-17.5t-18-7.5Q127 33 120 40.5T112 58h1zm100 87q-6 0-9.5 4t-3.5 9q0 5 3.5 8.5t9 3.5q5.5 0 9-3.5t3.5-8.5q0-5-3.5-9t-9.5-3l1-1zm87 0v75h-20q-13 32-42 49v39h-75v-25h-25v25H63v-39q-24-13-37-36t-13-50q0-22 8-41-9-5-15-14t-6-20q0-16 11-27t27-10v24q-6 0-9.5 4t-3.5 8.5q0 4.5 3 8t7 4.5q14-17 34-27t44-10h79q4-13 15-22 8-7 19-11 8-3 17-4l7-1v60q20 17 30 40h20zm-25 25h-13l-3-8q-7-24-27-39t-45-15h-75q-20 0-37 10t-27.5 27.5Q37 163 37 184t12 39q12 18 31 28l7 3v29h25v-25h75v25h25v-29l8-3q14-7 24.5-19t14.5-28l3-9h13v-25z"/></svg>