<svg viewBox="0 0 300 311" xmlns="http://www.w3.org/2000/svg"><path d="M238 245v63h-25v-63q0-15-11-26t-27-11h-12v27q11 4 17.5 13.5T187 271v37h-24v-38q-1-5-4.5-8.5T150 258q-5 0-8.5 3.5T138 270v38h-25v-38q0-12 6.5-21.5T137 235v-27H87v28q6 4 9.5 9.5T100 258q0 10-7.5 17.5t-18 7.5Q64 283 57 275.5T50 258q0-7 3.5-12.5T62 236v-28q-15 0-26 11t-11 26v63H0v-63q0-16 8.5-30.5t23-23Q46 183 63 183h112q17 0 31.5 8.5t23 23Q238 229 237 245h1zm62-175q0 17-8.5 31.5t-23 23Q254 133 238 133h-63V70q0-16 8.5-30.5t23-23Q221 8 237.5 8t31 8.5q14.5 8.5 23 23T300 71v-1zm-25 0q0-15-11-26t-26.5-11Q222 33 211 44t-11 27v37h38q15 0 26-11t11-26v-1zm-162 88q19 0 37-10v-32q-7 8-17 12.5t-20 4.5q-21 0-35.5-14.5T63 83q0-21 14.5-35.5T113 33q11 0 21.5 5T152 52q3-13 10-25-22-19-49-19-21 0-38 10T47.5 45.5Q37 63 37.5 83T48 120.5Q58 138 75 148t38 10z"/></svg>