<svg viewBox="0 0 300 311" xmlns="http://www.w3.org/2000/svg"><path d="M88 220q-6 0-9.5-3.5T75 208V45q0-15-11-26T38 8H0v25h38q5 0 8.5 3.5T50 45v163q0 13 8.5 23.5T80 245q-5 9-5 19 0 18 13 31t31 13q18 0 31-13t13-31q-1-10-5-18h59q-4 8-4 18 0 18 12.5 31t30.5 13q18 0 31-13t13-31q0-10-4-18h4v-26H88zm50 44q0 8-5.5 13.5T119 283q-8 0-13.5-5.5T100 264q0-8 5.5-13.5T119 245q8 0 13.5 5.5T137 264h1zm137 0q0 8-5.5 13.5T256 283q-8 0-13-5.5t-5-13.5q0-8 5-13.5t13-5.5q8 0 13.5 5.5T275 264zM263 58h-13V33q0-10-7.5-17.5T225 8h-50q-10 0-17.5 7.5T150 33v25h-12q-16 0-27 11t-11 26v100h200V95q0-15-11-26t-27-11h1zm-88-25h50v25h-50V33zm50 50v87h-50V83h50zM125 95q0-5 3.5-8.5T137 83h13v87h-25V95zm150 75h-25V83h13q5 0 8.5 3.5T275 96v74z"/></svg>