<svg viewBox="0 0 300 311" xmlns="http://www.w3.org/2000/svg"><path d="M250 121v-1q0-27-13.5-50T200 33.5q-23-13.5-50-13T100 34Q77 47 63.5 70T50 120v2q-23 13-36.5 36T0 207.5q0 26.5 13.5 50t36.5 37Q73 308 100 308t50-14q23 14 50 14t50-13.5q23-13.5 36.5-37t13.5-50q0-26.5-13.5-49.5T250 122v-1zM150 264q-21-19-24-47 24 7 48 0-3 28-24 47zm0-69q-12 0-23-3 5-24 23-40 18 16 23 40-11 3-23 4v-1zm-46-15q-21-17-27-43 26-9 51 2-17 17-24 41zm68-41q25-11 51-2-6 26-27 43-7-24-24-41zm-22-94q28 1 49.5 19.5T224 111q-19-5-38-2t-36 13q-17-10-36-13t-38 2q3-28 24.5-46.5T150 46v-1zM25 208q0-17 7.5-33T54 149q6 18 17.5 33t28.5 25v1q0 19 7.5 37.5T128 277q-17 8-35.5 6t-34-12.5Q43 260 34 243.5T25 208zm175 75q-15 0-28-6 13-13 20.5-31.5T200 208v-1q17-10 28.5-25t17.5-33q19 14 26 37.5t-1 46q-8 22.5-27.5 36.5T200 283z"/></svg>