<svg viewBox="0 0 300 311" xmlns="http://www.w3.org/2000/svg"><path d="M138 195h-25v-25h25v25zm50-25h-25v25h25v-25zm-50 50h-25v25h25v-25zm50 0h-25v25h25v-25zM138 70h-25v25h25V70zm50 0h-25v25h25V70zm-50 50h-25v25h25v-25zm50 0h-25v25h25v-25zm112-12q0-16-11-26.5T262 71h-24V45q-1-15-11.5-26T200 8H100Q84 8 73 19T62 46v74H38q-16 0-27 11T0 158v150h300V108zM25 158q0-5 3.5-9t8.5-3h51V45q-1-5 3-8.5t9-3.5h100q5 0 9 3.5t4 9.5v49h50q5 0 8.5 4t3.5 9v175H25V158zm225 12h-25v25h25v-25zm0 50h-25v25h25v-25zM75 170H50v25h25v-25zm0 50H50v25h25v-25zm175-100h-25v25h25v-25z"/></svg>