<svg viewBox="0 0 300 311" xmlns="http://www.w3.org/2000/svg"><path d="M191 183h56q22 0 37.5-15.5T300 130q0-12-5-22.5T281 89v-6q0-21-13-37h1q8 0 13.5-5.5T288 27q0-8-5.5-13.5T269 8q-8 0-13.5 5.5T250 27v2q-15-8-31.5-8T188 29v-2q0-8-5.5-13.5T169 8q-8 0-13.5 5.5T150 27q0 8 5.5 13t13.5 5q-9 12-12 25h-45q-27 0-50 13.5T26 120q-13 23-13 50 0 16 5 32L0 233l22 13 9-17q9 11 19 19v60h75v-38h37v38h75v-51q17-10 29-25t17-33q-14 7-31 8-11 21-32 31l-8 4v41h-25v-38h-87v38H75v-47l-5-4q-15-11-24-27t-9-35.5Q37 150 47.5 133T75 106q17-10 37-10h38q-13 15-13 34 0 22 16 37.5t38 15.5zm28-137q15 0 26 11t11 26v19l6 4q6 4 9.5 10t3.5 13.5q0 7.5-3.5 13.5t-9.5 10v-8q1-5-3-8.5t-9-3.5q-5 0-9 3.5t-3 9.5v12h-38v-13q0-5-3.5-8.5t-9-3.5q-5.5 0-9 3.5T175 146v7q-6-4-9.5-10t-3-13.5q.5-7.5 3.5-13.5t10-10l5-4V83q0-15 11-26t27-11z"/></svg>