<svg viewBox="0 0 300 311" xmlns="http://www.w3.org/2000/svg"><path d="M238 214q0 8-5.5 13.5T219 233q-8 0-13.5-5.5T200 214q0-8 5.5-13.5t13.5-5q8 .5 13.5 5.5t5.5 13zm62-6q0 27-13.5 50T250 294.5Q227 308 200 308H75q-20 0-37.5-10T10 270.5Q0 253 0 233v-34q0-64 36-118l6-9q-19-8-30.5-25.5T0 8q32 0 54 17 10 9 15 18l3-6q5-6 12-12 9-7 21-12 15-5 33-5 0 24-15 42.5T86 75l-6 34q-3 21-4 41 25-18 49-29 30-13 56-13h24q11 1 23 4L289 8l11 7-33 119q16 14 24.5 33t8.5 41zm-25 0q0-20-10-37.5T237.5 143Q220 133 200 133h-19q-35 0-77 28-28 19-54 45v-36q0-33 5-65l2-11q-15 23-23.5 50T25 199v34q0 21 14.5 35.5T75 283h125q20 0 37.5-10t27.5-27.5q10-17.5 10-37.5z"/></svg>