<svg viewBox="0 0 300 311" xmlns="http://www.w3.org/2000/svg"><path d="M138 55q-6-4-9.5-9.5T125 33q0-10 7.5-17.5T150 8q10 0 17.5 7.5T175 33q0 7-3.5 12.5T163 55v65l21-22 18 18-36 35q-6 7-16 7t-16-7l-36-35 18-18 21 22V55h1zm150 115q0 38-19 69.5t-50.5 50Q187 308 150 308t-68.5-18.5q-31.5-18.5-50-50T13 170q0-43 24.5-78T101 42q2 13 10 23-32 12-52.5 41T38 170q0 13 2 25h49q-1-12-1-25t2-27l23 23v4q0 13 2 26h70q2-13 2-25v-5l23-23q2 14 2 27t-1 26h49q2-13 2-26 0-35-20.5-64T189 65q8-10 10-23 39 15 63.5 50t24.5 78h1zm-167 50q10 29 29 55 19-26 29-55h-58zm2 60q-19-29-28-60H49q11 22 30.5 38t43.5 22zm128-60h-46q-9 31-28 60 24-6 43.5-22t30.5-37v-1z"/></svg>