<svg viewBox="0 0 300 311" xmlns="http://www.w3.org/2000/svg"><path d="M288 20Q277 9 257 8t-45 9q-23 9-47 24.5T121 77l-52 52q-20 20-35.5 44T9 220q-10 25-9 45t12.5 31.5Q24 308 46 308q19 0 42-9t47-24.5q24-15.5 44-35.5l52-52q20-20 35.5-44T291 96q10-25 9-45t-12-31zm-20 67q-8 21-22.5 42.5T213 169l-52 52q-18 18-39.5 32.5T79 276q-17 6-30.5 7t-19-4.5q-5.5-5.5-4.5-19t7-30.5q8-22 24-44l33 34 18-18-36-36q8-10 16-18l17-17 37 37 18-18-37-37 17-17q9-9 18-17l37 36 17-17-33-34q21-15 41.5-22.5T254 33q12 0 17 5t4 18.5Q274 70 268 87z"/></svg>