<svg viewBox="0 0 300 311" xmlns="http://www.w3.org/2000/svg"><path d="M213 120q-1-20-15.5-35T162 70h-37q-16 0-27 11t-11 27v125h26v-63h33l38 63h29l-39-64q17-4 28-17.5t11-31.5zm-50 25h-50v-37q0-5 3.5-9t8.5-3h38q10 0 17.5 7t7 17.5q-.5 10.5-7.5 18t-17 7.5v-1zM150 8q-41 0-75.5 20T20 82.5Q0 117 0 158t20 75.5Q40 268 74.5 288t75.5 20q41 0 75.5-20t54.5-54.5q20-34.5 20-75.5t-20-75.5Q260 48 225.5 28T150 8zm0 275q-34 0-62.5-17T42 220.5Q25 192 25 158t17-62.5Q59 67 87.5 50T150 33q34 0 62.5 17T258 95.5q17 28.5 17 62.5t-17 62.5Q241 249 212.5 266T150 283z"/></svg>