<svg viewBox="0 0 300 311" xmlns="http://www.w3.org/2000/svg"><path d="M150 83q-20 0-37.5 10T85 120.5Q75 138 75 158t10 37.5Q95 213 112.5 223t37.5 10q20 0 37.5-10t27.5-27.5q10-17.5 10-37.5 0-9-3-19l20-20q8 19 8 39 0 27-13.5 50T200 244.5Q177 258 150 258t-50-13.5Q77 231 63.5 208T50 158q0-27 13.5-50T100 71.5Q123 58 150 58q20 0 39 8l-20 20q-10-3-19-3zm120 40q5 17 5 35 0 34-17 62.5T212.5 266Q184 283 150 283t-62.5-17Q59 249 42 220.5T25 158q0-34 17-62.5T87.5 50Q116 33 150 33q18 0 35 5l19-20Q178 8 150 8q-41 0-75.5 20T20 82.5Q0 117 0 158t20 75.5Q40 268 74.5 288t75.5 20q41 0 75.5-20t54.5-54.5q20-34.5 20-75.5 0-28-10-54l-20 19zm-123-15q-20 2-33.5 16T100 158q0 20 14.5 35t35 15q20.5 0 34.5-13.5t16-33.5l-15 15q-11 11-26.5 11T132 176q-11-11-11-26.5t11-26.5l15-15zm-6 41l18 18 71-72h33l37-37h-50V8l-37 37v33l-72 71z"/></svg>