<svg viewBox="0 0 300 311" xmlns="http://www.w3.org/2000/svg"><path d="M150 45q13 0 22 9.5t9 22.5q0 13-9 22t-22 9q-13 0-22-9t-9-22q0-13 9-22.5t22-9.5zm-49 24q2-13 10-24l3-3q5-3 12-6 10-3 24-3t24 3q7 3 12 6l3 3q8 11 10 24 13-10 13-23 0-17-17.5-27.5T150 8q-27 0-45 10.5T87 45q0 14 14 24zm199 139v12h-25v25h-25v33l13 30H37l13-30v-33H25v-25H0v-12q0-26 3-49 3-33 12-52 11-24 29-24 27 0 55 19 17 12 31 28 20 7 40 0 14-16 31-28 28-19 55-19 18 0 29 24 9 19 12 52 3 23 3 49zM74 220l33-78q-11-12-24-21-21-13-39-13-6 2-12 27.5T25 195h25v25h24zm151 63l-54-128q-21 6-42 0L75 283h150zm50-88q-1-34-7-59.5T256 108q-18 0-39 13-13 9-24 21l33 78h24v-25h25z"/></svg>