<svg viewBox="0 0 300 311" xmlns="http://www.w3.org/2000/svg"><path d="M150 8q-41 0-75.5 20T20 82.5Q0 117 0 158t20 75.5Q40 268 74.5 288t75.5 20q41 0 75.5-20t54.5-54.5q20-34.5 20-75.5t-20-75.5Q260 48 225.5 28T150 8zm113 203q-35 11-71 9t-69-16q11-18 29-32 27 11 56 11 35 0 67-15-2 23-12 43zm10-72q-17 11-36 16-4-61-39-112 30 12 50.5 38t24.5 58zM159 33q24 26 37.5 58t15.5 67q-26 1-50-9-2-31-16.5-59.5T106 41q21-8 44-8h9zM81 54q18 11 31 28-28 19-49.5 45T28 185q-8-38 6.5-74T81 54zM42 221q9-36 30.5-66.5T125 104q11 23 12 48-25 20-40.5 48T78 260q-22-16-36-39zm108 62q-24 0-47-9-1-25 8-47 44 19 91 19 20 0 40-4-18 20-42 30.5T150 283z"/></svg>