<svg viewBox="0 0 300 311" xmlns="http://www.w3.org/2000/svg"><path d="M275 140q-2-24-13-45 12-3 20-11t13.5-20.5Q301 51 300 38t-9-21q-8-8-21-9t-25.5 4.5Q232 18 224 26t-11 20q-21-11-45-13-9-9-22-16-18-9-40-9H75v25h31q14 0 25 5-22 7-38 23-13 13-25 34t-20 45q-19 3-32 15-16 16-16 40h25q0-19 15-27-8 41 5 67-8 13-15 32l-5 16 16-5q19-7 32-15 16 8 38 8 13 0 29-3-8 15-28 15v25q25 0 41-16 12-13 15-32 24-8 45-20t34-25q16-16 23-38 5 11 5 25v31h25v-31q0-22-9-40-7-13-16-22zm-77-20l-10-10V62q20 6 36 22t22 37h-48v-1zm-96 38H69q7-26 20-49l20 20-7 29zm62-36l22 22-8 30-29 8-22-22 8-30 29-8zm-14 85l30-8 19 20q-23 13-49 20v-32zm92-164q7-7 19-9 3-1 7-1t5.5 1.5q1.5 1.5 1.5 5t-1 7.5q-2 12-9 19-5 4-11.5 4t-11-4.5q-4.5-4.5-4.5-11t4-11.5zm-80 15v39l-39 11-20-21 8-8q10-10 23.5-15.5T162 58zM74 234q-15-15-11-51h52l10 10v52q-36 4-51-11zm155-37l-8 8-20-20 11-40h38q0 15-5.5 28.5T229 197z"/></svg>