<svg viewBox="0 0 300 311" xmlns="http://www.w3.org/2000/svg"><path d="M243 89q-3-22-16-41t-33.5-29.5Q173 8 150 8q-30 0-54 17.5T62 71q-26 2-44 22T0 139q0 19 10 35.5T37 200l2 2-19 18 19 19-19 19 49 49 44-44v-71q11-10 18-23.5t6-29.5q1-23-13.5-41.5T88 73q8-18 25-29t37-11q26 0 45 16.5T218 91l-55 56v161h137V147l-57-58zm-130 50q0 11-5.5 20.5T93 176l-5 3v74l-19 19-14-14 19-19-19-19 19-18-23-23-1-1q-12-5-18.5-15.5T25 139q0-18 13-31t31-13q18 0 31 13t13 31zm162 144h-87V157l43-44 44 44v126zM69 108q8 0 13.5 5.5T88 127q0 8-5.5 13.5t-13.5 5q-8-.5-13.5-5.5T50 127q0-8 5.5-13.5T69 108z"/></svg>