<svg viewBox="0 0 300 311" xmlns="http://www.w3.org/2000/svg"><path d="M125 158h25v25h-25v25h-25v-25H75v-25h25v-25h25v25zm175-44q0 26-11.5 48.5t-32 37.5Q236 215 211 219q-4 25-19 45.5t-37.5 32Q132 308 106 308q-29 0-53-14.5T14.5 255Q0 231 0 202q0-26 11.5-48.5t32-37.5Q64 101 89 97q4-25 19-45.5t37.5-32Q168 8 194 8q29 0 53 14.5T285.5 61Q300 85 300 114zm-112 88q0-22-11-41t-30-30q-19-11-41-11t-40.5 11Q47 142 36 161t-11 41q0 22 11 40.5T65.5 272Q84 283 106 283t41-11q19-11 30-29.5t11-40.5zm87-88q0-22-11-40.5T234.5 44Q216 33 194 33q-29 0-51 18t-28 45q25 2 46.5 15.5t35 35Q210 168 212 193q27-6 45-28t18-51zm-62-69h-25v25h-25v25h25v25h25V95h25V70h-25V45z"/></svg>