<svg viewBox="0 0 300 311" xmlns="http://www.w3.org/2000/svg"><path d="M25 158H0q0-21 6-41l24 7q-5 17-5 34zM87 50L74 29Q40 49 21 82l21 13q17-28 45-45zm63-17V8q-21 0-40 5l6 25q17-5 34-5zm0 250q-18 0-34-5l-6 24q19 6 40 6v-25zm-63-17q-28-17-45-45l-21 13q19 34 53 54l13-22zm-57-74q-5-17-5-34H0q0 21 6 40l24-6zm270-34h-25q0 18-5 34l25 6q5-19 5-40zm-20 76l-22-13q-17 28-45 45l13 21q34-19 54-53zm-89 68l-7-24q-17 5-34 5v25q21 0 41-6zm0-289q-20-5-41-5v25q18 0 34 5l7-25zm89 69q-20-34-54-54l-13 22q28 17 45 45l22-13zm15 35l-25 7q5 17 5 34h25q0-21-5-41z"/></svg>