<svg viewBox="0 0 300 311" xmlns="http://www.w3.org/2000/svg"><path d="M25 208h25v25H0V106q0-9 4-16.5T14 76l75-58q11-8 23.5-8t23.5 8l39 31V20h25v48l11 8q6 6 10 13.5t4 16.5v2h-25v-2q0-6-5-10l-75-59q-3-2-7.5-2t-7.5 2L30 96q-5 4-5 10v102zm275 25v37q0 16-11 27t-26 11H113q-16 0-27-11t-11-27v-37h13v-63q0-15 11-26t26-11h125q15 0 26.5 11t11.5 26v63h12zm-187 0h42l13 12h39l13-12h42v-63q0-5-3.5-8.5T250 158H125q-5 0-8.5 3.5T113 170v63zm162 25h-45l-12 12h-61l-12-12h-45v12q0 6 3.5 9.5t8.5 3.5h150q6 0 9.5-3.5t3.5-9.5v-12z"/></svg>