<svg viewBox="0 0 300 311" xmlns="http://www.w3.org/2000/svg"><path d="M175 39q0-13 9-22t22-9q13 0 22.5 9t9.5 22q0 13-9.5 22.5t-22.5 9q-13-.5-22-9.5t-9-22zm125 94v62h-25v-49l-25-17v47q0 9-4 17t-12 13l-59 40v62h-25v-75l25-17v-48l-35 23-14-21 40-26 9-35q4-11 14.5-18.5T211 83q21 0 32 11l57 39zm-75 43v-65q-5-3-14-3-3 0-6.5 2t-4.5 5v84l20-13q5-4 5-10zm-4 67l26 65h27l-32-79-21 14zM88 158v-38H50v38h38zm-63-57q0-7 5-11l74-57q3-1 5 1l55 43q-14-16-14-38v-4l-26-19q-9-7-18.5-8T88 13L15 70Q8 76 4 84t-4 17v119h113v-25H25v-94z"/></svg>