<svg viewBox="0 0 300 311" xmlns="http://www.w3.org/2000/svg"><path d="M208 141q13-6 21.5-18t8.5-28q0-20-15-35t-35-15q-13 0-24.5 6.5T146 68q-17-27-49-42Q59 8 0 8v25q69 0 103 25h-3q-21 0-35.5 14.5T50 108q0 13 6.5 24.5T74 151q-32 18-51 42-23 30-23 65 0 21 14.5 35.5T50 308q21 0 35.5-14.5T100 258q0-40 19-73 13-21 31-36 18 15 31 36 19 33 19 73 0 21 14.5 35.5T250 308q21 0 35.5-14.5T300 258q0-41-30-73-23-25-62-44zm-20-71q10 1 17.5 8t7 17.5q-.5 10.5-7.5 18t-17.5 7.5q-10.5 0-18-7.5t-7-18q.5-10.5 7.5-18t17-7.5h1zm-88 13q10 0 17.5 7.5T125 108q0 10-7.5 17.5T100 133q-10 0-17.5-7.5T75 108q0-10 7.5-17.5T100 83zM75 258q0 10-7.5 17.5T50 283q-10 0-17.5-7.5T25 258q0-32 26-58 19-20 52-36-28 42-28 94zm175 25q-10 0-17.5-7.5T225 258q0-52-28-94 33 16 52 36 26 26 26 58 0 10-7.5 17.5T250 283z"/></svg>