<svg viewBox="0 0 300 311" xmlns="http://www.w3.org/2000/svg"><path d="M138 170q2 11 11 18t21 7q12 0 21-9t9-21q0-12-7-20.5T175 134V70q11-2 18-11t7-21q0-12-9-21t-21-9q-12 0-21 7t-11 18H62q-2-11-11-18T30 8Q18 8 9 17T0 38q0 12 7 21t18 11v64q-11 2-18 10.5T0 165q0 12 9 21.5t21 9.5q12 0 21-7.5T62 171h76v-1zm-88-31V64l6-6h88q3 4 6 6v75q-3 3-6 7H56q-3-4-6-7zm250 138q0 13-9 22t-21 9q-12 0-21-7t-11-18h-76q-2 11-11 18t-21 7q-12 0-21-9t-9-21q0-12 7-21t18-11v-25h25v31q4 3 6 6h88l6-6v-75q-6-5-9.5-11.5T237 152q0-13 9.5-22t22.5-9q13 0 22 9t9 21q0 12-7 20.5T275 182v64q11 2 18 11t7 20z"/></svg>