<svg viewBox="0 0 300 311" xmlns="http://www.w3.org/2000/svg"><path d="M300 308H150q-41 0-75.5-20T20 233.5Q0 199 0 158t20-75.5Q40 48 74.5 28T150 8q41 0 75.5 20T280 82.5q20 34.5 20 75.5v150zM150 33q-34 0-62.5 17T42 95.5Q25 124 25 158t17 62.5Q59 249 87.5 266t62.5 17h125V158q0-34-17-62.5T212.5 50Q184 33 150 33zm82 147q-9 0-15-6l-5-6-12 10 5 6q11 11 27 11 9 0 16.5-5t9-13q1.5-8-3-15T240 151l-16-6q-2-2-1.5-4.5t5-4q4.5-1.5 10.5.5 3 1 5 3l6 5 10-12-6-5q-4-3-9-5-11-5-22-2-6 2-10 6.5t-5 10.5q-1 6 1.5 11.5t8.5 8.5l17 8q9 3 8.5 6.5T239 178q-3 2-7 2zm-159 0q-9 0-15-6l-5-6-12 11 5 5q11 12 27 12 10 0 17-5.5t8.5-13.5q1.5-8-3-15T81 151l-16-6q-2-1-1.5-4t5-4.5Q73 135 79 138q3 1 5 2l6 5 10-12-6-5q-4-3-9-5-11-4-22-1-6 2-10 6.5T48 139q-1 6 1.5 11t8.5 9l17 7q9 3 8.5 6.5T80 178q-3 2-7 2zm115-60h-16l-22 25-22-25h-15v75h15v-48l22 23 22-23v48h15l1-75z"/></svg>