<svg viewBox="0 0 300.0052 311" xmlns="http://www.w3.org/2000/svg"><path d="M292 35q-10-12-25-14-12-2-22 4-10-15-26-17t-28.5 8Q178 26 176 41l-4 39-15-45q-4-15-17.5-22.5T111 9q-9 3-15.5 9.5T86 34q-11-3-21 0-15 4-22.5 18T39 81l32 94-8-7q-11-10-26.5-9.5t-26 11.5Q0 181 0 196.5T12 223l88 85h175l25-245q2-16-8-28zm-40 248H110l-81-78q-4-4-4-9t3.5-9q3.5-4 8.5-4t9 4l53 44 11-17L63 74q-1-5 1.5-9.5t7.5-6q5-1.5 9.5 1T87 67l27 79h27l-32-97q-1-5 1.5-9.5t7.5-6q5-1.5 9.5 1T134 42l32 104h22l13-102q1-5 5-8.5t9-2.5q5 1 8.5 5t2.5 9l-12 99h25l11-90q1-5 5-8t9-2.5q5 .5 8.5 4.5t2.5 10l-23 223z"/></svg>