<svg viewBox="0 0 300 311" xmlns="http://www.w3.org/2000/svg"><path d="M300 97q-1-18-8.5-34.5t-21-29.5q-13.5-13-31-19.5t-36-5.5Q185 9 168 16.5T139 38q-19 19-76 125L1 275l63 33 62-111q33-60 51-90 11-17 14-21 6-6 15-6.5t15.5 5.5q6.5 6 6.5 14.5t-6 15.5l-13 17 61 41 7-9q24-31 23-67zm-170-2h25q-9 15-22 38h-25l22-38zm-36 63h25l-21 37H74l20-37zM54 275l-19-10 25-45h25l-31 55zM173 69l-1 1h-27q7-10 12-15 17-19 43-22v22q-16 2-27 14zm52-11V35q16 5 28 16 10 9 15 19h-26l-3-3q-7-6-14-9zm39 81l-19-13q9-14 8-31h22v3q0 21-11 41z"/></svg>