<svg viewBox="0 0 300 311" xmlns="http://www.w3.org/2000/svg"><path d="M204 199l17 18q-31 26-71 28-40-2-71-28l17-18q23 19 54 22 31-3 54-22zm-85-16q8 0 13-5.5t5.5-13.5q.5-8-5-13t-13.5-5.5q-8-.5-13.5 5T100 164q0 8 5.5 13.5T119 183zm62 0q8 0 13.5-5.5T200 164q0-8-5.5-13t-13.5-5.5q-8-.5-13.5 5t-5 13.5q.5 8 5.5 13.5t13 5.5zm119 56q0 19-9.5 34.5t-25 25Q250 308 231 308H69q-22 0-40-13T4 261.5Q-3 241 3 220t24-35q-5-18 1.5-35.5T50 120q-1-9 2-18t9-16.5q6-7.5 14.5-11T94 70h16q14-7 21.5-20.5T137 21V8h13q14 0 27 9.5t22 24Q208 56 211 71q19 2 30 16.5t9 32.5q15 12 21.5 29.5T273 185q13 10 20 24t7 30zm-25 0q0-12-6-22t-17-16l-10-5 5-11q6-13 1-27t-19-21l-10-5 5-11q3-9-2.5-17T206 95h-18V83q-2-14-9-26t-18-20q-2 19-14 35t-31 23H94q-10 1-15.5 9T76 121l5 11-10 5q-14 7-19 21t1 27l5 11-10 5q-13 7-19 21t-2.5 28.5Q30 265 42 274t27 9h162q18 0 31-13t13-31z"/></svg>