<svg viewBox="0 0 300 311" xmlns="http://www.w3.org/2000/svg"><path d="M25 308H0V45q0-15 11-26T38 8h262v25H38q-6 0-9.5 3.5T25 45v263zm213-19q0-8-5.5-13.5T219 270q-8 0-13.5 5.5T200 289q0 8 5.5 13.5T219 308q8 0 13.5-5.5T238 289zm-138 0q0-8-5.5-13.5T81 270q-8 0-13 5.5T63 289q0 8 5 13.5t13 5.5q8 0 13.5-5.5T100 289zm200 0q0-8-5.5-13.5T281 270q-8 0-13 5.5t-5 13.5q0 8 5 13.5t13 5.5q8 0 13.5-5.5T300 289zm0-62q0-8-5.5-13.5T281 208q-8 0-13 5.5t-5 13.5q0 8 5 13t13 5q8 0 13.5-5t5.5-13zm0-69q0-8-5.5-13.5T281 139q-8 0-13 5.5t-5 13.5q0 8 5 13.5t13 5.5q8 0 13.5-5.5T300 158zm0-69q0-8-5.5-13.5T281 70q-8 0-13 5.5T263 89q0 8 5 13.5t13 5.5q8 0 13.5-5.5T300 89zM169 289q0-8-5.5-13.5T150 270q-8 0-13.5 5.5T131 289q0 8 5.5 13.5T150 308q8 0 13.5-5.5T169 289z"/></svg>