<svg viewBox="0 0 300 311" xmlns="http://www.w3.org/2000/svg"><path d="M300 290l-14-14q3-8 1.5-17.5t-8.5-16q-7-6.5-16-8.5t-18 2l-16-17q9-11 14-24l37 10 6-25-37-9q1-7 1-12.5t-1-12.5l37-9-6-24-37 9q-5-13-14-24l16-17q6 3 12 3 13 0 22-9.5t9-22.5q0-13-9-22t-22-9q-13 0-22 9t-9 22q0 6 2 12l-17 16q-12-9-26-15l10-38-24-6-10 39-11-1q-5 0-13 1l-10-39-24 6 10 39q-12 5-23 14L73 64q4-9 2-18t-8.5-15.5Q60 24 50.5 22T33 23L19 9 1 27l281 281 18-18zM150 84q21 0 38 10t27 27q10 17 10 38 0 23-14 43L107 98q20-14 43-14zm33 160l12 46-24 6-10-38-10 1q-6 0-14-1l-10 38-24-6 10-39q-13-5-24-14l-16 16q3 6 3 12 0 13-9.5 22T44 296q-13 0-22-9t-9-22q0-13 9-22.5t22-9.5q6 0 12 3l16-16q-9-12-15-25l-39 10-7-25 40-10v-11.5V147l-40-10 7-24 45 11 15 15q-2 10-2 20 0 20 10 37t27 27.5q17 10.5 38 10.5 9 0 19-3l13 13zm-64-35q-7 0-12.5-5.5T101 190q0-8 5.5-13.5t13-5.5q7.5 0 13 5.5T138 190q0 8-5.5 13.5T119 209zm82-82q0 8-5.5 13.5T182 146q-8 0-13.5-5.5t-5.5-13q0-7.5 5.5-13T182 109q8 0 13.5 5.5T201 127z"/></svg>