<svg viewBox="0 0 300 311" xmlns="http://www.w3.org/2000/svg"><path d="M300 290l-78-78q13-16 20.5-36.5T250 133q0-34-16.5-62.5T188 25Q159 8 125 8T62.5 25Q34 42 17 70.5T0 133q0 34 17 63t45.5 45.5Q91 258 125 258q22 0 42.5-7.5T204 230l78 78 18-18zm-175-57q-27 0-50-13.5T38.5 183Q25 160 25 133t13.5-50Q52 60 75 46.5T125 33q27 0 50 13.5T211.5 83q13.5 23 13.5 50t-13.5 50Q198 206 175 219.5T125 233zm0-175q-26 0-44 18.5t-18 44Q63 146 81 165l44 43 44-43q19-19 19-44.5t-18.5-44Q151 58 125 58zm27 89l-27 26-26-26q-11-11-11-26.5T98.5 94Q109 83 125 83t27 11q11 11 11 26.5T152 147zm-14-27q0 6-4 9.5t-9 3.5q-5 0-8.5-3.5t-3.5-9q0-5.5 3.5-9t8.5-3.5q5 0 9 3.5t4 8.5z"/></svg>