<svg viewBox="0 0 300 311" xmlns="http://www.w3.org/2000/svg"><path d="M285 103L174 16q-11-8-24-8t-24 8L15 103q-7 6-11 14t-4 17v174h300V134q0-9-4-17t-11-14zm-85 180H100v-38q0-5 3.5-8.5t8.5-3.5h76q5 0 8.5 3.5t3.5 8.5v38zm75 0h-50v-38q0-15-11-26t-26-11h-75q-16 0-27 11t-11 26v38H25V134q0-7 5-11l112-87q3-3 8-3t8 3l112 87q5 4 5 11v149zM150 95q-21 0-35.5 15T100 145.5q0 20.5 14.5 35T150 195q21 0 35.5-14.5t14.5-35q0-20.5-14.5-35.5T150 95zm0 75q-10 0-17.5-7t-7.5-17.5q0-10.5 7.5-18t17.5-7q10 .5 17.5 7.5t7.5 17.5q0 10.5-7.5 18T150 171v-1z"/></svg>