<svg viewBox="0 0 300 311" xmlns="http://www.w3.org/2000/svg"><path d="M263 33h37V8h-37q-16 0-27 11t-11 27v165L42 270l-16-48q-2-5 .5-10t7.5-6l12-4 11 36 144-50-11-35 10-3v-26l-6 1-12 4-11-33q-4-15-18-21.5T124 73L51 98q-15 5-22 18.5T27 145l11 33-12 4q-15 5-22 19t-2 28l16 49-17 6 7 23 194-62q-3 11-1 22.5t9.5 21Q218 298 228 303t22 5q23-1 36-15.5t13-34.5q0-20-13-34.5T250 208V45q0-5 3.5-8.5T262 33h1zM52 128q2-5 7-6l73-26q5-1 9.5 1t6.5 7l22 69-97 33-22-69q-2-4 1-9zm223 130q0 10-7.5 17.5T250 283q-10 0-17.5-7.5T225 258q0-10 7.5-17.5T250 233q10 0 17.5 7.5T275 258z"/></svg>