<svg viewBox="0 0 300 311" xmlns="http://www.w3.org/2000/svg"><path d="M150 8q-41 0-75.5 20T20 82.5Q0 117 0 158t20 75.5Q40 268 74.5 288t75.5 20q41 0 75.5-20t54.5-54.5q20-34.5 20-75.5t-20-75.5Q260 48 225.5 28T150 8zm0 275q-34 0-62.5-17T42 220.5Q25 192 25 158t17-62.5Q59 67 87.5 50T150 33q34 0 62.5 17T258 95.5q17 28.5 17 62.5t-17 62.5Q241 249 212.5 266T150 283zM63 146q-1 8 4 14.5t12 9.5l43 16 17 42q2 8 8.5 13t14.5 4h1q8 0 14.5-5t9.5-13l37-143-143 38q-8 2-13.5 8.5T62 146h1zm126-27l-27 101-21-53-54-21 102-27z"/></svg>