<svg viewBox="0 0 300 311" xmlns="http://www.w3.org/2000/svg"><path d="M300 58q0-21-14.5-35.5T250 8q-21 0-35.5 14.5T200 58q0 17 10.5 30.5T238 106v27q0 5-4 8.5t-9 3.5h-50q-14 0-25 10-11-9-25-10H75q-5 0-9-3.5t-3-8.5v-27q16-4 26.5-17.5T100 58q0-21-14.5-35.5T50 8Q29 8 14.5 22.5T0 58q0 17 10.5 30.5T38 106v27q0 16 10.5 26.5T75 170h50q5 0 9 4t4 9v27q-17 4-27.5 17.5T100 258q0 21 14.5 35.5T150 308q21 0 35.5-14.5T200 258q0-17-10.5-30.5T163 210v-27q0-5 3.5-9t8.5-4h50q16 0 26.5-10.5T262 133v-27q17-4 27.5-17.5T300 58zM25 58q0-10 7.5-17.5T50 33q10 0 17.5 7.5T75 58q0 10-7.5 17.5T50 83q-10 0-17.5-7.5T25 58zm150 200q0 10-7.5 17.5T150 283q-10 0-17.5-7.5T125 258q0-10 7.5-17.5T150 233q10 0 17.5 7.5T175 258zm75-175q-10 0-17.5-7.5T225 58q0-10 7.5-17.5T250 33q10 0 17.5 7.5T275 58q0 10-7.5 17.5T250 83z"/></svg>