<svg viewBox="0 0 300 311" xmlns="http://www.w3.org/2000/svg"><path d="M167 105l17-18 21 19 40-39 17 17-43 43q-6 6-14.5 6t-14.5-6l-23-22zm-42-10q0-23 12-43t32-32q20-12 43.5-12T256 20q20 12 32 32t12 43.5q0 23.5-12 43.5t-32 32q-20 12-43.5 12T169 171q-20-12-32-32t-12-44zm25 0q0 17 8.5 31.5t23 23q14.5 8.5 31 8.5t31-8.5q14.5-8.5 23-23t8.5-31q0-16.5-8.5-31t-23-23Q229 33 212.5 33t-31 8.5q-14.5 8.5-23 23T150 96v-1zm100 125h44v44q0 18-13 31t-31 13H106q-18 0-30.5-13T63 264V95H0V52q0-18 13-31T44 8h98q-14 11-23 25H83q4 9 5 19v212q0 8 5 13.5t13 5.5q8 0 13.5-5.5T125 264v-44h100v-13q13-1 25-5v18zM63 52q-1-8-6-13.5T44 33q-8 0-13.5 5.5T25 52v18h38V52zm87 193v19q0 10-4 19h104q8 0 13.5-5.5T269 264v-19H150z"/></svg>