<svg viewBox="0 0 300 311" xmlns="http://www.w3.org/2000/svg"><path d="M300 142q0-37-20-67.5T225.5 26Q191 8 150 8T74.5 26Q40 44 20 74.5T0 142v5l89 88-2 10v25q0 16 11 27t27 11h50q16 0 27-11t10-27v-25q1-5-1-10l89-88v-5zm-115 67l27-70q8-7 17-12 11-6 21-6 15-1 24 17l-78 76q-5-3-11-5zm-81 5l-78-76q3-7 8-11 7-7 16.5-7t20.5 7q9 5 17 12l27 70q-6 2-11 5zm38-6l-28-71q8-7 16-11 11-5 20-5.5t20 5.5q8 4 16 11l-28 71h-16zm-27-102q5-22 16-42 8-14 19-26 11 12 19 26 11 20 16 42-18-11-35-10.5T115 106zm150-8q-7-2-15-2-19 0-39 13-6-39-30-73 28 6 50 22.5T265 98zM119 36q-24 34-30 73-20-14-39-13-8-1-15 2 12-23 34-39.5T120 36h-1zm69 234q0 6-4 9.5t-9 3.5h-50q-5 0-8.5-3.5T113 270v-25q0-5 3.5-8.5t8.5-3.5h50q5 0 8.5 3.5t3.5 8.5v25h1z"/></svg>