<svg viewBox="0 0 300 311" xmlns="http://www.w3.org/2000/svg"><path d="M300 158q0 41-20 75.5T225.5 288Q191 308 150 308t-75.5-20Q40 268 20 233.5T0 158q0-7 1-14l25 3-1 11q0 34 17 62.5T87.5 266q28.5 17 62.5 17t62.5-17q28.5-17 45.5-45.5t17-62.5q0-34-17-62.5T212.5 50Q184 33 150 33l-11 1-3-25q7-1 14-1 41 0 75.5 20T280 82.5q20 34.5 20 75.5zM71 61L55 42q-12 9-21 21l19 16q8-10 18-18zm43-23l-7-24q-14 5-27 12l11 22q11-6 23-10zM40 99L18 88q-7 13-12 27l24 7q4-12 10-23zm98-16v53q-6 4-10 9H88v25h40q4 7 11.5 10.5t15 2q7.5-1.5 13-7t7-13q1.5-7.5-2-15T162 136V83h-24z"/></svg>