<svg viewBox="0 0 300 311" xmlns="http://www.w3.org/2000/svg"><path d="M263 8H38Q22 8 11 19T0 46v262h300V45q0-15-11-26T262 8h1zm12 275H25V45q0-5 3.5-8.5T38 33h225q5 0 8.5 3.5T275 45v238zm-75-150q16 0 26.5-11T237 95.5Q237 80 226.5 69T200 58q-16 0-26.5 11T163 95v7l-51 28q-10-9-25-9t-26 11q-11 11-11 26.5T61 185q11 11 26 11t25-10l51 28-1 7q0 15 11 26t27 11q16 0 26.5-11t11-26.5Q238 205 227 194t-26-11q-15 0-26 9l-51-28 1-6-1-6 51-28q11 9 25 9zm0-50q5 0 8.5 3.5t4 9q.5 5.5-3.5 9t-9 3.5q-5 0-8.5-3.5t-3.5-9q0-5.5 3.5-9T200 83zM88 170q-6 0-9.5-3.5T75 158q0-5 3.5-9t9-4q5.5 0 9 4t3.5 9q0 5-3.5 8.5T88 170zm112 38q5 0 8.5 3.5t4 9q.5 5.5-3.5 9t-9 3.5q-5 0-8.5-3.5t-3.5-9q0-5.5 3.5-9t8.5-3.5z"/></svg>