<svg viewBox="0 0 300 311" xmlns="http://www.w3.org/2000/svg"><path d="M283 89l13-21q5-7 4-16t-7-15l-22-22q-6-6-15-7t-16 4l-21 13Q187 8 150 8q-41 0-75.5 20T20 82.5Q0 117 0 158q0 37 17 69L4 248q-5 7-4 16t7 15l22 22q6 6 15 7t16-4l21-13q32 17 69 17 41 0 75.5-20t54.5-54.5q20-34.5 20-75.5 0-37-17-69zM150 283q-34 0-62.5-17T42 220.5Q25 192 25 158t17-62.5Q59 67 87.5 50T150 33q34 0 62.5 17T258 95.5q17 28.5 17 62.5t-17 62.5Q241 249 212.5 266T150 283zm38-56q-1 8-6 13t-13 5q-8 0-13.5-5t-5.5-13q0-8 5.5-13.5T169 208q8 0 13.5 5.5T188 227zM81 158q-8 0-13-5.5T63 139q0-8 5-13.5t13-5q8 .5 13.5 5.5t5.5 13q0 8-5.5 13.5T81 158zm63 12q-8 1-13.5-4.5T125 152q0-8 5.5-13.5T144 133q8 0 13.5 5.5T163 152q0 8-5.5 13.5T144 171v-1zm44-56q-1-8 4.5-13.5t13.5-5q8 .5 13.5 5.5t5.5 13q0 8-5.5 13.5T206 133q-8 0-13.5-5.5T187 114h1zM75 183h50v50q-21 0-35.5-14.5T75 183zm148-39q14 14 14 35t-14 35l-35-35 35-35zm-110-24V70h50q0 21-15 35.5T113 120z"/></svg>