<svg viewBox="0 0 300 311" xmlns="http://www.w3.org/2000/svg"><path d="M276 32q-21-21-61.5-23.5t-84 13Q87 37 58 66t-44.5 72.5Q-2 182 .5 222.5T24 284q15 13 33.5 19t38.5 5q40-1 78-16t67.5-43q29.5-28 45-71.5t13-84Q297 53 276 32zm-72 1q15-1 29 3t26 13q9 10 13 27t2 39l-81-81 11-1zM41 267q-9-10-13-27t-2-39l81 81q-22 2-39-2t-27-13zm183-35q-37 35-86 46L30 170q11-49 46-86 37-35 87-46l107 108q-11 49-46 86zM171 87l50 50-17 17-16-16-20 20 16 16-18 18-16-16-20 19 16 17-17 17-50-50 17-17 17 16 19-20-16-16 18-18 16 16 20-20-16-16 17-17z"/></svg>