<svg viewBox="0 0 300 311" xmlns="http://www.w3.org/2000/svg"><path d="M275 217V108h-25v50h-38q0-13-8-23.5T183 121l-35-78q-4-11-13.5-17T114 20H63v63H50q-16 0-26.5 11T12 121l1 74Q2 210 .5 227.5t6.5 33q8 15.5 23 25t32 9.5h101q17 0 32-9t23-25q8-16 6.5-33.5T212 196l1-13h37v34q0 22 8.5 42.5T282 296l18-18q-12-12-18.5-28t-6.5-33zM88 45h26q4 0 7 2t4 6l31 67H88V45zm-38 63h13v37h112q5 0 8.5 4t3.5 9v18q-12-6-25-6H63q-13 0-25 6v-56q0-5 3.5-8.5T50 108zm113 162H63q-16 0-27-10.5T25 233q0-16 11-27t26-11h101q15 0 26 11t11 27q0 16-11 26.5T162 270h1zm-88-37q0 5-3.5 8.5t-9 3.5q-5.5 0-9-3.5T50 233q0-5 3.5-8.5t9-4q5.5-.5 9 3.5t3.5 9zm100 0q0 5-3.5 8.5t-9 3.5q-5.5 0-9-3.5T150 233q0-5 3.5-8.5t9-4q5.5-.5 9 3.5t3.5 9zm-50 0q0 5-3.5 8.5t-9 3.5q-5.5 0-9-3.5T100 233q0-5 3.5-8.5t9-4q5.5-.5 9 3.5t3.5 9z"/></svg>