<svg viewBox="0 0 300 311" xmlns="http://www.w3.org/2000/svg"><path d="M288 240q-1-35-16-67l-29-57q-5-9-14-15t-19-6H90q-10 0-19 6t-14 15l-29 57q-15 32-16 67v43h26v25h62v-25h100v25h63v-25h25v-43zM79 127q4-7 11-7h120q7 0 11 7l28 56H51l28-56zm184 131H38v-18q0-16 4-32h21v12q0 6 3.5 9.5T75 233q5 0 8.5-3.5T87 220v-12h126v12q0 6 3.5 9.5t8.5 3.5q5 0 9-3.5t4-9.5v-12h20q4 16 5 33v17zM132 63q-7-7-7-17.5t7-17.5l18-20 18 20q5 5 6.5 12.5T173 55q-3 7-9 11t-14 5q-10 0-18-8zm75 0q-7-7-7-17.5t7-17.5l18-20 18 20q5 5 6.5 12.5T248 55q-3 7-9.5 11T225 70q-11 1-18-7zM57 63q-7-7-7-17.5T57 28L75 8l18 20q5 5 6.5 12.5T98 55q-3 7-9.5 11T75 70q-11 1-18-7z"/></svg>