<svg viewBox="0 0 300 311" xmlns="http://www.w3.org/2000/svg"><path d="M150 20q-42 0-76 21-32 19-51 51T1 161.5Q-2 199 13 233q17 36 51 60l3 2h166l3-2q35-24 51-60 15-34 12-71.5T277 92q-19-32-51-51-34-21-76-20v-1zm75 250H75q-34-25-45-65-10-36 2.5-73.5T75 71q32-26 75-26t75 26q30 23 42.5 60.5T270 205q-11 40-45 65zM75 170q0 16 6 30t16 24l-17 18q-22-22-28-52t6-59l20 20q-3 10-3 20v-1zm175 0q0 21-8 39.5T220 242l-18-18q20-19 22.5-44t-10-46.5q-12.5-21.5-35-32T131 98l-20-20q23-9 48-6.5t46 16q21 13.5 33 35.5t12 47zm-75 0q0 8-4 14t-10.5 9q-6.5 3-13.5 2t-13-5.5q-6-4.5-8-11.5t0-14l-54-53 18-18 54 53q11-3 21 4.5t10 20.5v-1z"/></svg>