<svg viewBox="0 0 300 311" xmlns="http://www.w3.org/2000/svg"><path d="M94 308q-19 0-34-11t-20-29q-18-5-29-20T0 214q0-23 16.5-39.5T56 158q17 0 32 9l72-72q-10-14-10-31 0-23 16.5-39.5T206 8q19 0 34 11t20 29q18 5 29 20t11 34q0 23-16.5 39.5T244 158q-17 0-31-10l-72 72q9 15 9 32 0 23-16.5 39.5T94 308zM56 183q-13 0-22 9t-9 21.5q0 12.5 7.5 21.5T52 245l10 1 1 10q1 12 10 19.5t21.5 7.5q12.5 0 21.5-9t9-22.5q0-13.5-10-22.5l-9-9 106-107 9 10q9 10 22.5 10t22.5-9q9-9 9-21.5T267.5 81Q260 72 248 71l-9-2-2-9q-1-12-10-19.5T205.5 33Q193 33 184 42t-9 22.5Q175 78 185 87l10 9L88 202l-9-9q-9-10-23-10z"/></svg>