<svg viewBox="0 0 300 311" xmlns="http://www.w3.org/2000/svg"><path d="M275 185q-6-33-26-56l19-17q24 29 32 68l-25 5zm1 31l23 8q-11 34-35 49-18 10-39 10-24 0-46-20-24 20-53.5 20T66 252q-32 31-66 31v-25q25 0 50-25-22-30-36-67.5T0 102q0-18 9.5-34t25-25.5Q50 33 68 33t34 9.5Q118 52 128 68t10 34q0 27-15.5 64.5T83 234q23 24 43 24t37-13q-12-17-18.5-36t-6.5-33q0-17 13-30t30.5-13q17.5 0 30.5 13t13 30q0 15-7.5 34.5T197 246q14 12 28 12 37 0 51-41v-1zm-209-2q20-26 33-58.5t13-53.5q0-17-14-30.5T68 58q-17 0-30 13.5T25 102q0 22 12 53.5T67 214zm114 12q9-12 14-26t5-24q0-7-6-12.5t-13-5.5q-7 0-12.5 5.5T163 176q0 9 4.5 23t13.5 27z"/></svg>