<svg viewBox="0 0 300 311" xmlns="http://www.w3.org/2000/svg"><path d="M213 133q-24 0-44 12t-32 32q-12 20-12 43.5t12 43.5q12 20 32 32t43.5 12q23.5 0 43.5-12t32-32q12-20 12-43.5T288 177q-12-20-32-32t-43-12zm0 150q-17 0-31.5-8.5t-23-23q-8.5-14.5-8.5-31t8.5-31q8.5-14.5 23-23t31-8.5q16.5 0 31 8.5t23 23q8.5 14.5 8.5 31t-8.5 31q-8.5 14.5-23 23T213 283zm-13-100h25v25h-25v-25zm0 37h25v38h-25v-38zM25 258V45q0-5 3.5-8.5T38 33h87v75h100V90L143 8H38Q22 8 11 19T0 45v238h119q-8-12-12-25H25zM150 51l32 32h-32V51z"/></svg>