<svg viewBox="0 0 300 311" xmlns="http://www.w3.org/2000/svg"><path d="M300 308H38q-16 0-27-11T0 270V8h25v262q0 6 3.5 9.5T38 283h262v25zM288 52q0-18-13-31T244 8q-18 0-31 13t-13 31q0 18 13 30.5T244 95q18 0 31-12.5T288 52zm-25 0q0 8-5.5 13T244 70q-8 0-13.5-5T225 52q0-8 5.5-13.5T244 33q8 0 13.5 5.5T263 52zm12 125q0-18-13-31t-31-13q-18 0-30.5 13T188 177q0 18 12.5 30.5T231 220q18 0 31-12.5t13-30.5zm-25 0q0 8-5.5 13t-13.5 5q-8 0-13-5t-5-13q0-8 5-13.5t13-5.5q8 0 13.5 5.5T250 177zm-87-82q0-15-11.5-26T125 58q-15 0-26 11T88 95.5Q88 111 99 122t26 11q15 0 26.5-11T163 95zm-13 113q0-15-11-26.5T112.5 170Q97 170 86 181.5T75 208q0 15 11 26t26.5 11q15.5 0 26.5-11t11-26z"/></svg>