<svg viewBox="0 0 300 311" xmlns="http://www.w3.org/2000/svg"><path d="M300 62l-26-12q-5-26-26-37-18-9-37.5-2.5T182 35l-17 31q-25-10-50-26-13-9-19-15L78 8l-3 25q-1 11 0 27-18-14-28-27L28 8l-3 31q-1 12 0 31 2 34 12 64 14 42 43 72L0 217v11q0 26 13 47 16 24 46 33l5 1 76-36 8 2q11 4 17 6 12 2 26 2 22 0 41.5-11.5t31-31Q275 221 275 199V91l25-11V62zm-200-3q25 18 53 29l-4 7q-24-3-48-17-1-9-1-19zm91 199q-12 0-20-2-5-1-15-4l-19-6-75 36q-18-6-27-20-7-10-9-23l90-13 8-15-8-7q-34-25-51-67-12-30-15-65 21 19 44 31 31 16 62 18h8l40-74q4-9 14-12.5t19 1.5q13 6 13 27v136q0 16-8 29.5T220.5 250q-13.5 8-29.5 8z"/></svg>