<svg viewBox="0 0 300 311" xmlns="http://www.w3.org/2000/svg"><path d="M113 158q-21 0-38-10t-27.5-27.5Q37 103 37.5 83T48 45.5Q58 28 75 18t37.5-10Q133 8 150 18t27.5 27.5Q188 63 187.5 83T177 120.5Q167 138 150 148t-38 10h1zm0-125q-21 0-35.5 14.5T63 83q0 21 14.5 35.5t35 14.5q20.5 0 35.5-14.5T163 83q0-21-15-35.5T113 33zm112 275h-25v-63q0-15-11-26t-26-11H62q-15 0-26 11t-11 26v63H0v-63q0-17 8.5-31T31 191.5q14-8.5 31-8.5h101q17 0 31 8.5t22.5 22.5q8.5 14 8.5 31v63zm50-202q-11 1-18 9t-7 19q0-11-7-19t-18-8q-11 0-18 8t-7 20q0 12 13 28 9 12 24 25l13 10 13-10q15-13 24-25 13-16 13-28t-7-20q-7-8-18-9z"/></svg>