<svg viewBox="0 0 300 311" xmlns="http://www.w3.org/2000/svg"><path d="M25 295q0 6-3.5 9.5t-9 3.5q-5.5 0-9-3.5t-3.5-9q0-5.5 3.5-9t9-3.5q5.5 0 9 3.5T25 296v-1zm63-87q-6 0-9.5 3.5t-3.5 9q0 5.5 3.5 9t9 3.5q5.5 0 9-3.5t3.5-9q0-5.5-3.5-9T88 208zm37-38q-5 0-8.5 4t-3.5 9q0 5 3.5 8.5t8.5 4q5 .5 8.5-3.5t4-9q.5-5-3.5-9t-9-4zM13 238l57 57 17-17-57-57-17 17zM222 8l-10 23q22 9 38.5 26T277 95l23-10q-12-26-32-46T222 8zm-34 137q0 10-7 17l19 17q13-14 12.5-34t-15-35q-14.5-15-35-14.5t-35 15Q113 125 113 146h25q0-11 7-18.5t17.5-7q10.5.5 18 7.5t7.5 17zm-27-99q-27 0-49.5 13.5t-36 36Q62 118 62 145h26q0-20 9.5-37T124 81q17-10 37-10 15-1 29 4.5T215 92q11 11 16.5 24.5T237 145q1 23-12 42-8 11-11 24-2 9-2 22 1 21-14 35.5T162 283v25q21 0 38-10t27-27.5q10-17.5 10-37.5 1-10 2-16 1-8 6-16 18-25 17-56 1-20-7-38.5T232.5 74q-14.5-14-33-21.5T161 46z"/></svg>