<svg viewBox="0 0 300 311" xmlns="http://www.w3.org/2000/svg"><path d="M300 147l-13-22-158 96q-54 0-69.5 9T39 255q-5 16 3.5 31.5T67 306q6 2 12 2 11 0 20.5-5t23.5-28q10-14 20-33l157-95zM87 281q-6 3-12.5 1t-10-7.5Q61 269 63 262t8.5-10.5Q78 248 112 246q-8 14-15 23.5T87 281zm76-154q0-26-18-50-10-14-34-38-13-12-18-18L83 9l-9 13q-7 10-11 22-2 7-5 21t-5 17q-3-6-5-16l-3-25-18 19Q17 70 8.5 90T0 127q0 22 11 40.5T40.5 197Q59 208 81 208t41-11q19-11 29.5-29.5T163 127zm-138 0q0-13 7-30 7 11 18 11 16 0 24-13 5-8 8-25 3-13 5-19l7 6q21 21 29 32 14 19 14 38 1 23-15.5 39.5T82 183q10 0 17.5-7.5T107 158q0-10-8-18l-17-17-18 17q-7 8-7 18t7 17.5q7 7.5 17 7.5-23 0-39.5-16.5T25 127z"/></svg>