<svg viewBox="0 0 300 311" xmlns="http://www.w3.org/2000/svg"><path d="M113 83q-31 0-57 15t-41 41Q0 165 0 195.5T15 252q15 26 41 41t56.5 15q30.5 0 56.5-15t41-41q15-26 15-56.5T210 139q-15-26-41-41t-57-15h1zm0 200q-24 0-44-12t-32-32q-12-20-12-43.5T37 152q12-20 32-32t43.5-12q23.5 0 43.5 12t32 32q12 20 12 43.5T188 239q-12 20-32 32t-43 12zM63 177q0-8 5-13.5t13-5.5q8 0 13.5 5.5T100 177q0 8-5.5 13.5T81 196q-8 0-13-5.5T63 177zm100 0q0 8-5.5 13.5T144 196q-8 0-13.5-5.5T125 177q0-8 5.5-13.5T144 158q8 0 13.5 5.5T163 177zM300 70h-37v38h-25V70h-38V45h38V8h25v37h37v25zM142 221l16 19q-5 5-13 9-17 9-32.5 9T80 249q-8-4-13-9l16-19q4 3 9 6 11 6 20.5 6t20.5-6q6-3 9-6z"/></svg>