<svg viewBox="0 0 300 311" xmlns="http://www.w3.org/2000/svg"><path d="M275 245h25v38H0v-38h25v13h250v-13zM263 33H38q-16 0-27 11T0 70v13h25V70q0-5 3.5-8.5T38 58h225q5 0 8.5 3.5T275 70v13h25V70q0-15-11-26t-26-11zM25 220H0v-87q0-10 7.5-17.5T25 108h24q13 0 24 8.5t13.5 21q2.5 12.5-2 22.5t-14 16.5Q61 183 50 183H25v37zm0-62h25q5 0 9-3.5t4-9q0-5.5-4-9t-9-3.5H25v25zm149 16l26 46h-27l-22-37h-26v37h-25v-87q0-10 7.5-17.5T125 108h23q15 0 26 9t13 23q2 10-2 19t-11 15zm-49-16h25q5 0 9-3.5t4-9q0-5.5-4-9t-9-3.5h-25v25zm175-6v25q0 18-13 30.5T256 220q-18 0-30.5-12.5T213 177v-25q0-18 12.5-31t30.5-13q18 0 31 13t13 31zm-25 0q0-8-5.5-13.5T256 133q-8 0-13 5.5t-5 13.5v25q0 8 5 13t13 5q8 0 13.5-5t5.5-13v-25z"/></svg>