<svg viewBox="0 0 300 311" xmlns="http://www.w3.org/2000/svg"><path d="M275 120h-37V45q-1-15-11.5-26T200 8H100Q84 8 73 19T62 46v74H25v25h24q-11 24-11 51 0 30 15 56t40.5 41q25.5 15 56.5 15t56.5-15q25.5-15 41-41t14.5-57q1-26-11-50h24v-25zM88 45q-1-5 3-8.5t9-3.5h100q5 0 9 3.5t4 9.5v74H88V45zm150 150q-1 24-12.5 44T194 271q-20 12-44 12t-44-12q-20-12-32-32t-11-44q-1-27 15-49h144q16 22 16 50v-1zm-150-6q0-8 5-13.5t13-5q8 .5 13.5 5.5t5.5 13q0 8-5.5 13.5T106 208q-8 0-13.5-5.5T87 189h1zm87 0q0-8 5.5-13.5t13.5-5q8 .5 13.5 5.5t5 13q-.5 8-5.5 13.5t-13 5.5q-8 0-13.5-5.5T175 189zm-25 81q-5-8-9-17-10-20-10-27t5.5-12.5Q142 208 150 208t13.5 5.5Q169 219 169 226t-10 27l-9 17z"/></svg>