<svg viewBox="0 0 300 311" xmlns="http://www.w3.org/2000/svg"><path d="M300 197q0-25-12-51-8-20-22-38h22V83H13v25h21q-14 18-22 38-12 26-12 51 0 20 8.5 37.5T33 267l-21 24 18 17 23-26q20 12 45 19t52 7q27 0 52-7t45-19l23 26 19-17-22-24q16-15 24.5-32.5T300 197zm-275 0q0-30 21-62 10-17 21-27h166q4 4 11 13 12 15 20 32 11 23 11 45.5t-17 42q-17 19.5-45.5 31T150 283q-34 0-62.5-11.5t-45.5-31Q25 221 25 197zM88 27q0-8 5-13.5T106 8q8 0 13.5 5.5T125 27q0 8-5.5 13T106 45q-8 0-13.5-5T87 27h1zm87 12q0-8 5.5-13.5T194 20q8 0 13.5 5.5T213 39q0 8-5.5 13.5T194 58q-8 0-13.5-5.5T175 39z"/></svg>