<svg viewBox="0 0 300 311" xmlns="http://www.w3.org/2000/svg"><path d="M163 34V8h-25v26q-35 3-63.5 22T29 105q-17 30-16 66 0 26 9.5 50T49 264l-24 26 19 17 24-27q17 14 38 21t44 7q23 0 44-7t38-21l24 27 19-17-24-26q17-19 26.5-43t9.5-51q1-35-16-65t-45.5-49Q197 37 163 34zM38 170q0-30 15-56t40.5-41Q119 58 150 58t56.5 15q25.5 15 41 41t15 56.5Q262 201 247 227t-40.5 41Q181 283 150 283t-56.5-15q-25.5-15-41-41T37 170h1zM21 72L0 58Q23 28 56 9l13 21Q41 46 21 72zm210-42l13-21q33 19 56 49l-21 14q-20-26-48-42zm-93 65h25v100h-25V95zm0 125h25v25h-25v-25z"/></svg>