<svg viewBox="0 0 300 311" xmlns="http://www.w3.org/2000/svg"><path d="M219 145q-22 0-41 11t-29.5 30Q138 205 138 227t10.5 40.5Q159 286 178 297t41 11q22 0 40.5-11t29.5-29.5q11-18.5 11-40.5t-11-41q-11-19-29.5-29.5T219 145zm0 25q16 0 30 9l-78 78q-9-14-9-30 0-23 16.5-39.5T219 171v-1zm0 113q-16 0-30-9l77-77q9 14 9 30 0 23-16.5 39.5T219 283zm-138 0q-23 0-39.5-16.5T25 227v-57h104q13-20 34-33V89q0-22-11-40.5T122 19Q103 8 81 8T40.5 19Q22 30 11 48.5T0 89v138q0 22 11 40.5T40.5 297Q59 308 81 308q29 0 52-19-8-10-13-22-16 16-39 16zM25 89q0-23 16.5-39.5t40-16.5Q105 33 121 49.5T137 89v56H25V89z"/></svg>