<svg viewBox="0 0 300 311" xmlns="http://www.w3.org/2000/svg"><path d="M255 170q-15 0-29 7-9-37-22-71-19-52-44-85L150 8l-10 12q-26 33-46 84-13 35-21 72-14-6-28-6-18 0-31.5 16T0 228q0 26 16.5 47.5t42.5 29q26 7.5 51.5-2T150 270q14 23 39.5 32.5t51.5 2q26-7.5 42.5-29T300 228q0-26-13.5-41.5T255 171v-1zM150 50q33 58 49 122-8-2-17-1.5t-17.5 5Q156 180 150 187q-6-7-14.5-11.5t-18-5Q108 170 99 173q16-66 51-123zM81 283q-23 0-39.5-16.5T25 227q0-16 7-25 6-7 13-7 15 0 28 10l8 7 9-7q12-10 28-10 6 0 12 7 8 9 8 25-1 23-17.5 39.5T81 283zm138 0q-24 0-40-16.5T163 227q0-16 7-25 6-7 12-7 16 0 28 10l9 7 8-7q12-10 28-10 6 0 12 7 8 9 8 25 0 23-16.5 39.5T219 283z"/></svg>