<svg viewBox="0 0 300 311" xmlns="http://www.w3.org/2000/svg"><path d="M300 145v25h-45l-28-47-24 59-22-13 25-61h-23l-26 63q-2 4-.5 8.5t5.5 6.5l63 40v82h-25v-68l-52-33q-11-7-15-20t1-26l22-53h-23l-22 43-22-11 28-57h94q10 0 18.5 5t13.5 13l27 44h30zm-75-75q13 0 22-9t9-22q0-13-9-22t-22-9q-13 0-22 9t-9 22q0 13 9 22.5t22 9.5v-1zM123 218l-6 15H46q-3 27-9 42-5-15-8-42-4-33-4-75t4-75q3-27 9-42 5 15 8 42 4 33 4 75 0 27-2 50h25q2-24 2-50 0-32-2-59-3-39-11-62Q53 8 37.5 8T13 37Q5 60 2 99q-2 27-2 59t2 59q3 39 11 62 9 29 25 29 20 0 29-50h66l10-24-8-6q-6-3-12-10z"/></svg>