<svg viewBox="0 0 300 311" xmlns="http://www.w3.org/2000/svg"><path d="M288 177q-1-42-47-97-29-33-67-64-11-8-24-8t-24 8Q88 47 59 80q-46 55-46 97-1 21 8.5 39.5t27 29.5Q66 257 88 258q13 0 26-5.5t23-15.5q-2 25-10 35.5T100 283H63v25h175v-25h-38q-19 0-27-11t-10-35q10 10 23 15.5t27 5.5q21-1 38.5-12t27-29.5Q288 198 288 177zM150 283v-1 1zm11-89l-11-22-11 22q-5 9-14 20-18 19-37 19-22-1-37-17.5T38 177q0-29 34-72 28-36 70-69 4-3 8-3t8 3q42 33 70 69 34 43 34 72 2 22-13 38.5T212 233q-13 0-27-10-9-7-17-18-6-8-7-11z"/></svg>