<svg viewBox="0 0 300 311" xmlns="http://www.w3.org/2000/svg"><path d="M300 152q0-18-12-30.5T258 108q5-9 5-19 0-18-13-31t-31-13h-22q-9-15-23.5-26T144 8h-13v12q0 15-4 25H81q-18 0-30.5 13T38 89q-1 10 4 19-18 1-30 13.5T0 152q0 15 9.5 26.5T33 194l13 82q2 14 12.5 23t24.5 9h134q14 0 24.5-9t12.5-23l13-82q14-4 23.5-15.5T300 152zm-71 120q-1 5-4.5 8t-7.5 3H83q-4 0-7.5-3t-4.5-8l-13-77h184l-13 77zm27-102H44q-8 1-13.5-4.5T25 152q0-8 5.5-13.5T44 133h119v-25H81q-8 0-13.5-5.5T62 89q0-8 5.5-13.5T81 70h60l4-5q8-13 10-28 7 4 13 11t10 15l3 7h38q8 0 13.5 5.5T238 89q0 8-5.5 13.5T219 108h-6v25h43q8 0 13.5 5.5T275 152q0 8-5.5 13t-13.5 5z"/></svg>