<svg viewBox="0 0 300 311" xmlns="http://www.w3.org/2000/svg"><path d="M300 158q0 41-20 75.5T225.5 288Q191 308 151 308t-73.5-19Q44 270 24 238l7 1q11 0 21-4 17 22 43 35t55 13q34 0 62.5-17t45.5-45.5q17-28.5 17-62.5t-17-62.5Q241 67 212.5 50T150 33q-27 0-51.5 11T57 75l-43 34-8 8q9-31 30-56t50.5-39Q116 8 150 8q41 0 75.5 20T280 82.5q20 34.5 20 75.5zm-194-13q-8 0-13.5 5.5t-5 13.5q.5 8 5.5 13.5t13 5.5q8 0 13.5-5.5T125 164q0-8-5.5-13.5T106 145zm69 19q0 8 5.5 13.5T194 183q8 0 13.5-5.5t5-13.5q-.5-8-5.5-13.5t-13-5.5q-8 0-13.5 5.5T175 164zM63 183q0-11-9-26-5-10-15-21l-8-9-8 8q-9 12-15 22-8 15-8 27t9 21q9 9 22 9t22-9q9-9 9-22h1zm-5-68l9 23q30-12 50-41L96 84q-15 22-38 31zm175 23l9-23q-23-9-38-31l-21 13q20 29 50 41zM100 245h100q0-20-14.5-35T150 195.5q-21 .5-35.5 15T100 245z"/></svg>