<svg viewBox="0 0 300 311" xmlns="http://www.w3.org/2000/svg"><path d="M238 45q-17-18-40-27.5T150 8q-25 0-48 9.5t-40.5 27Q44 62 34.5 85T25 133q0 25 9.5 48T62 222l88 86 88-87q18-17 27.5-40t9.5-48q0-25-9.5-48T238 45zm-17 159l-71 69-71-69q-14-14-21.5-32.5T50 133q0-20 7.5-38T79 62.5q14-14.5 32.5-22T150 33q20 0 38.5 7.5t32.5 22Q235 77 242.5 95t7.5 38q0 20-7.5 38.5T221 204zM199 99q3 16-4 30.5T174 152q-4 2-7.5 9t-3.5 13v9h-25v-9q0-12 6.5-25t17.5-19q7-4 10.5-11t2-15q-1.5-8-7-13.5T155 83q-12-2-21 5.5t-9 19.5h-25q0-11 4.5-21t13-17q8.5-7 19.5-10t22-1q15 2 26.5 13.5T199 99zm-61 96h25v25h-25v-25z"/></svg>