<svg viewBox="0 0 300 311" xmlns="http://www.w3.org/2000/svg"><path d="M292 57l-9-23q-22 8-45 11V8h-25v37q-24-3-46-11l-9 23q11 4 22 7-14 15-17 36-1 9-7 17-10 11-24 14-10 2-36 2h-8q-24 0-44 12t-32 32Q0 197 0 220.5T12 264q12 20 32 32t43 12q63 0 108-24t68.5-69Q287 170 287 108q1-12-4-23.5T270 64q11-3 22-7zM88 283q-17 0-31.5-8.5t-23-23Q25 237 25 220.5t8.5-31q8.5-14.5 23-23T88 158h8q20 0 29-1 15-1 26-6 14-6 24.5-18.5T188 103q1-10 7.5-18.5T213 73v35h25V73q11 4 17.5 13.5T263 108q0 83-46 129T88 283z"/></svg>