<svg viewBox="0 0 300 311" xmlns="http://www.w3.org/2000/svg"><path d="M31 39q0-13 9.5-22t22-9q12.5 0 22 9T94 39q0 13-9.5 22.5t-22 9Q50 70 40.5 61T31 39zm119 94q13 0 22-9t9-22q0-13-9-22.5T150 70q-13 0-22 9.5t-9 22.5q0 13 9 22t22 9zm50 50v75h-12v50h-25v-50h-25v50h-25v-50h-13v-75q0-16 11-26.5t26-11.5h26q15 0 26 11t11 27zm-75 50h50v-50q0-5-3.5-8.5T162 171h-24q-6-1-9.5 3t-3.5 9v50zM88 83H38q-16 0-27 11T0 120v100h25v88h25v-88h25v-25H25v-75q0-5 3.5-8.5T38 108h56v-6q0-9 3-18-5-1-10-1h1zm212 37q0-15-11-26t-27-11h-49q-5 0-10 1 3 9 3 18v6h57q5 0 8.5 3.5t3.5 9.5v74h-50v25h25v88h25v-88h25V120zm-62-50q12 0 21.5-9t9.5-22q0-13-9.5-22t-22-9q-12.5 0-22 9T206 39q0 13 9.5 22.5T238 71v-1z"/></svg>