<svg viewBox="0 0 300 311" xmlns="http://www.w3.org/2000/svg"><path d="M163 185V70h-25v115q-12 4-19 13.5t-7 22.5q1 15 11.5 26t26.5 11q16 0 26.5-11t10.5-27q1-12-6-21.5T163 185zm-13 48q-5 0-8.5-3.5t-3.5-9q0-5.5 3.5-9t8.5-3.5q5 0 8.5 3.5t4 9q.5 5.5-3.5 9t-9 3.5zm63-74V70q0-16-8.5-30.5t-23-23Q167 8 150 8t-31.5 8.5Q104 25 96 39.5T88 71v88q-12 13-18.5 28.5T63 221q-1 23 11 43t32 32q20 12 44 12t44-12q20-12 31.5-32t11.5-44q1-17-6-32.5T212 159h1zm-63 124q-17 0-31.5-8.5t-22.5-23Q88 237 88 221q0-14 5-26t15-21l5-4V70q0-15 10.5-26T150 33q16 0 26.5 11T187 71v99l5 4q10 9 15 21t5 25q1 17-7.5 31.5t-23 23Q167 283 150 283z"/></svg>