<svg viewBox="0 0 300 311" xmlns="http://www.w3.org/2000/svg"><path d="M250 8H50Q34 8 23.5 19T13 46v262h275V45q0-15-11-26T250 8zm13 275H38V45q0-5 3.5-8.5T50 33h200q5 0 9 3.5t4 8.5v238zM150 70q-24 0-44 12t-31.5 32Q63 134 63 158t11.5 44Q86 222 106 233.5t44 11.5q24 0 44-11.5t32-31.5q12-20 12-44t-12-44q-12-20-32-32t-44-12zm0 150q-17 0-31.5-8T96 189.5Q88 175 88 158t8-31.5q8-14.5 22.5-22.5t31.5-8.5q17-.5 31.5 8t22.5 23q8 14.5 8.5 31.5t-8 31.5q-8.5 14.5-23 22.5t-31.5 8zm19-62q0 8-5.5 13.5T150 177q-8 0-13.5-5.5T131 158q0-8 5.5-13.5T150 139q8 0 13.5 5.5T169 158z"/></svg>