<svg viewBox="0 0 300 311" xmlns="http://www.w3.org/2000/svg"><path d="M150 308q-14 0-40-2-28-3-52-17.5T19.5 250Q5 226 2 198q-2-25-2-39.5T2 118q3-28 17.5-52T58 27.5Q82 13 110 10q26-2 40-2t40 2q28 3 52 17.5T280.5 66Q295 90 298 118q2 25 2 39.5t-2 40.5q-3 28-17.5 52T242 288.5Q218 303 190 306q-26 2-40 2zm0-275q-12 0-37 2-23 2-41.5 14T41 79.5q-12 18.5-14 42T25 158q0 13 2 36.5t14 42Q53 255 71.5 267t41 14q22.5 2 37.5 2 12 0 38-2 22-2 40.5-14t30.5-30.5q12-18.5 14-42t2-36.5q0-13-2-36.5t-14-42Q247 61 228.5 49t-41-14Q165 33 150 33z"/></svg>