<svg viewBox="0 0 300 311" xmlns="http://www.w3.org/2000/svg"><path d="M275 195q0-15-11-26t-27-11v-25q0-13-7.5-22.5T210 97l-8-42q-1-4-4.5-7t-7.5-3h-5q-4 0-7.5 3t-4.5 7l-8 40h-37l10-37q-1-5-4.5-9t-8.5-4h-25q-5 0-8.5 4T88 58l9 38q-15 1-24.5 11.5T62 133v25q-15 0-26 11t-11 26v88H0v25h300v-25h-25v-88zM88 133q0-5 3.5-9t8.5-4h100q5 0 9 4t4 9v25H88v-25zm-25 50h175q5 0 8.5 3.5t3.5 9.5v24q-8-1-13.5-5t-5.5-7h-25q0 4-6 8t-15.5 4q-9.5 0-15.5-4t-6-8h-25q0 4-6.5 8.5t-16 4Q106 220 100 216t-6-8H69q0 3-5.5 7T50 220v-25q0-5 3.5-8.5T62 183h1zm-13 62q18-1 31-12 15 12 34.5 12.5T150 233q15 13 34.5 12.5T219 233q13 11 31 12v38H50v-38zm50-225q0 6 3.5 9.5t9 3.5q5.5 0 9-3.5t3.5-9q0-5.5-3.5-9t-9-3.5q-5.5 0-9 3.5T100 20zm75 0q0 6 3.5 9.5t9 3.5q5.5 0 9-3.5t3.5-9q0-5.5-3.5-9t-9-3.5q-5.5 0-9 3.5T175 20z"/></svg>