<svg viewBox="0 0 300 311" xmlns="http://www.w3.org/2000/svg"><path d="M125 139q0 8-5.5 13.5T106 158q-8 0-13.5-5.5t-5-13.5q.5-8 5.5-13.5t13-5q8 .5 13.5 5.5t5.5 13zm69-19q-8 1-13.5 6t-5.5 13q0 8 5.5 13.5T194 158q8 0 13.5-5.5t5-13.5q-.5-8-5.5-13.5t-13-5.5zm81 13v175h-25q0-10-7.5-17.5T225 283q-10 0-17.5 7.5T200 308h-25q0-10-7.5-17.5T150 283q-10 0-17.5 7.5T125 308h-25q0-10-7.5-17.5T75 283q-10 0-17.5 7.5T50 308H25V133q0-34 17-62.5T87.5 25Q116 8 150 8t62.5 17Q241 42 258 70.5t17 62.5zm-25 0q0-27-13.5-50T200 46.5Q177 33 150 33t-50 13.5Q77 60 63.5 83T50 133v132q12-7 25-7 11 0 20.5 4.5T112 275q8-8 17.5-12.5T150 258q11 0 20.5 4.5T187 275q8-8 17.5-12.5T225 258q13 0 25 7V133z"/></svg>