<svg viewBox="0 0 300 311" xmlns="http://www.w3.org/2000/svg"><path d="M224 185q26-43 26-77 0-27-13.5-50T200 21.5Q177 8 150 8t-50 13.5Q77 35 63.5 58T50 108q0 34 26 77-17 4-28 17.5T37 233v75h26v-75q0-10 7-17.5t18-7.5h4q14 20 33 39 10 10 17 16l8 8 8-8q7-6 17-16 19-19 33-39h5q10 0 17.5 7.5T238 233v75h25v-75q0-17-11-30.5T224 185zm-74 52q-27-27-45-54-30-43-30-75 0-20 10-37.5T112.5 43Q130 33 150 33t37.5 10Q205 53 215 70.5t10 37.5q0 32-30 75-18 27-45 54zm47-113q-6 7-21 9h-13v-7q0-8 1-14 3-9 7.5-14t13.5-7q7-2 14-2h7v7q0 8-2 14-2 9-7 14zm-68-26q5 5 7 14 2 7 2 14l-1 7h-6q-8 0-14-2-9-2-14-7-7-6-9-21V90l7-1q8 1 14 2 9 2 14 7z"/></svg>