<svg viewBox="0 0 300 311" xmlns="http://www.w3.org/2000/svg"><path d="M262 117q-14-11-31-9-10 2-18 10-11-10-25-10h-1l12-54q4-17-6.5-31T165 8q-14-1-25 8t-14 22l-7 30-7-30q-3-13-14.5-22T73 8Q55 9 45 23t-6 31l22 99-37 38q-11 11-11 26.5T24 244l64 64h187V145q0-17-13-28zm-62 28v25q0 6-3.5 9.5t-9 3.5q-5.5 0-9-3.5T175 170v-25q0-5 3.5-8.5t9-3.5q5.5 0 9 3.5t3.5 8.5zM63 48q-1-5 2-9.5t8.5-5q5.5-.5 9 2.5t5.5 8l25 108q-12-10-28-9L63 48zm35 235l-57-57q-3-3-3-8.5t3-9.5l38-37q3-4 8.5-4t9 4q3.5 4 3.5 9t-4 9l-28 28 18 18 28-29q8-8 10-19t-2-22l28-121q1-5 5-8t9-3q5 0 8.5 5t2.5 10l-17 75q-8 10-8 22v25q0 16 11 27t26 11q15 0 25-10 11 10 25 10 7 0 13-2v77H98zm140-100q-6 0-9.5-3.5T225 170v-23q0-5 3-9t8-5q5-1 9.5 3t4.5 9v25q0 6-3.5 9.5T237 183h1z"/></svg>