<svg viewBox="0 0 300 311" xmlns="http://www.w3.org/2000/svg"><path d="M300 239q0 19-9.5 34.5t-25 25Q250 308 231 308h-48l18-25h30q18 0 31-13t13-31q0-12-6-22t-17-16l-10-5 5-11q3-7 3-14 0-11-5.5-20T229 137l-10-5 5-11q1-3 1-7 0-8-5.5-13T206 96h-18V83q-1-11-9-25.5T161 37q-4 28-25 46-11 9-21 12H94q-8 0-13.5 5.5T75 114q0 4 1 7l5 11-10 5q-10 5-15.5 14T50 171q0 7 3 14l5 11-10 5q-11 6-17 16t-6 22q0 18 13 31t31 13h26l-6 25H69q-19 0-34.5-9.5t-25-25Q0 258 0 239q0-16 7-30t20-24q-2-7-2-14 0-15 6.5-28.5T50 120v-6q0-18 13-31t31-13h16q9-4 16-12 11-15 11-38V8h13q14 0 27 9.5t22 24Q208 56 211 71q17 2 28 14t11 29v6q12 9 18.5 22.5T275 171q0 7-2 14 13 10 20 24t7 30zm-84-19l-64 88h-37l12-50h-24q-12 0-19.5-9.5T80 227l32-94h81l-19 50h22q7 0 12.5 3.5t8.5 9q3 5.5 3 12t-4 12.5zm-22-13l-56 1 19-50h-27l-26 75h55l-9 35 44-61z"/></svg>