<svg viewBox="0 0 300 311" xmlns="http://www.w3.org/2000/svg"><path d="M229 98q-12-29-38.5-47T131 33q-29 0-53 14.5T39.5 86Q25 110 25 139q0 11 2 21-13 9-20 23.5T0 214q0 19 8.5 34.5t23 25Q46 283 63 283h143q26 0 47.5-12.5t34-34Q300 215 300 189q0-32-20-57.5T229 98zm-23 160H63q-16 0-27-13t-11-31q0-12 6-22t16-16l9-5-3-9q-3-11-3-23 0-22 11-40.5T90.5 69Q109 58 131 58q26 0 47.5 15t29.5 40l3 7 7 1q25 5 41 24t16 44q0 19-9.5 34.5t-25 25Q225 258 206 258zm-38-130l41 41-18 18-28-29v75h-25v-75l-29 29-18-18 41-41q8-7 18-7t18 7z"/></svg>