<svg viewBox="0 0 300 311" xmlns="http://www.w3.org/2000/svg"><path d="M263 270v38h-25v-38q0-11-6.5-20.5T215 236l-65 65-65-65q-10 4-16.5 13.5T62 271v37H38v-38q0-21 13.5-38.5T86 210l7-2 57 57 57-57 7 2q21 4 34.5 21.5T262 270h1zM75 83L50 70V33l79-22q21-6 42 0l79 22v37l-25 13v37q0 21-10 38t-27.5 27Q170 195 150 195.5t-37.5-10Q95 175 85 158t-10-37V83zm125 20q-23 5-50 5t-50-5v17q0 21 14.5 35.5T150 170q21 0 35.5-14.5T200 120v-17zm-75-44q0 11 10 20 7 6 15 10 8-3 15-9 10-9 10-21V41q0-4-4-6l-21-7-21 7q-4 2-4 6v18z"/></svg>