<svg viewBox="0 0 300 311" xmlns="http://www.w3.org/2000/svg"><path d="M284 126q-12-12-39-19-24-7-56-10 5-9 5-20t-5.5-20.5Q183 47 175 41q10-8 25-8V8q-32 0-50 22-18-22-50-22v25q15 0 25 8-8 6-13.5 15.5T106 77q0 11 5 20-32 3-56 10-27 7-39 19-16 17-16 39.5T16 204q16 16 38 16t38-15q7 31 28 63 11 17 21 28l9 11 9-11q10-11 21-28 21-32 28-63 16 16 38 15.5t38-16.5q16-16 16-38.5T284 126zM143 59l7-1 6 1q6 2 9.5 7t3.5 11.5q0 6.5-5.5 12T150 95q-8 0-13.5-5.5t-5.5-12q0-6.5 3.5-11.5t8.5-7zm1 78q2-2 4-5l2-3 30 41h-60l24-33zm-69 50q-8 8-20.5 8t-21-8.5q-8.5-8.5-8.5-21t8-21q8-8.5 31-14.5 26-7 61-9v1q-39 53-50 65zm75 81q-8-11-14-23h28q-6 12-14 23zm27-48h-54q-5-12-8-25h70q-3 13-8 26v-1zm89-33q-8 8-20.5 8t-20.5-8q-12-12-50-66 35 2 61 9 23 6 31 14.5t8 21q0 12.5-9 21.5z"/></svg>