<svg viewBox="0 0 300 311" xmlns="http://www.w3.org/2000/svg"><path d="M244 195H56q-23 0-39.5 16.5T0 251.5q0 23.5 16.5 40T56 308h188q23 0 39.5-16.5t16.5-40q0-23.5-16.5-39.5T244 196v-1zm0 88H56q-13 0-22-9t-9-22q0-13 9-22.5t22-9.5h188q13 1 22 10t9 22q0 13-9 22t-22 9zM75 252q0 8-5.5 13T56 270q-8 0-13-5t-5-13q0-8 5-13.5t13-5.5q8 0 13.5 5.5T75 252zm188 0q-1 8-6 13t-13 5q-8 0-13.5-5t-5.5-13q0-8 5.5-13.5T244 233q8 0 13.5 5.5T263 252zm-94 0q0 8-5.5 13t-13.5 5q-8 0-13.5-5t-5.5-13q0-8 5.5-13.5T150 233q8 0 13.5 5.5T169 252z"/></svg>