<svg viewBox="0 0 300 311" xmlns="http://www.w3.org/2000/svg"><path d="M225 83q-20 0-37.5 10T160 120.5Q150 138 150 158t10 37.5q10 17.5 27.5 27.5t37.5 10q20 0 37.5-10t27.5-27.5q10-17.5 10-37.5t-10-37.5Q280 103 262.5 93T225 83zm0 125q-21 0-35.5-14.5T175 158q0-21 14.5-35.5T225 108q21 0 35.5 14.5T275 158q0 21-14.5 35.5T225 208zm-57 32q-9 3-18 5v50h-25v-51q-10-1-20-5l-26 44-21-13 25-44q-8-6-14-14l-44 26-12-22 43-25q-4-10-5-21H0v-25h51q1-10 5-20l-43-25 12-22 44 26q6-8 14-15L58 45l21-12 26 44q10-4 20-5V20h25v51q9 2 18 5-12 8-22 20-18-2-34.5 5.5t-26.5 23Q75 140 75 158t10 33.5q10 15.5 26.5 23T146 220q10 12 22 20z"/></svg>