<svg viewBox="0 0 300 311" xmlns="http://www.w3.org/2000/svg"><path d="M169 158q0 8-5.5 13.5T150 177q-8 0-13.5-5.5T131 158q0-8 5.5-13.5T150 139q8 0 13.5 5.5T169 158zm80 57q3 27-2.5 46T227 289q-11 6-24 6-6 0-13-1-19-5-40-21-29 23-54 23-12 0-23-7-14-9-19.5-28.5T51 215q-24-10-37.5-25T0 158q0-17 13.5-32T51 101q-3-27 2.5-46T74 26.5Q89 17 110 22q19 5 40 21 22-17 42-21t34.5 5q14.5 9 20 28.5T249 101q24 10 37.5 25t13.5 32q0 17-13.5 32T249 215zm-71-8q8-12 14-22 7-13 13-27-6-14-13-27-6-10-14-22-14-1-28-1t-28 1q-8 12-14 22-7 13-13 27 6 15 13 27 6 10 14 21 15 2 28.5 2t27.5-1zm-9-147q25 25 44 59l4 7q9-29 8-50t-12-28q-7-4-18.5-1T169 60zM76 92q34-9 74-9h7q-14-15-28-24.5t-25-12Q93 44 86.5 48T77 64q-3 12-1 28zm11 27q0-1 1-2l1-2q-29 7-46.5 19T25 158q0 8 8.5 16.5T56 190q10-35 31-71zm44 137q-25-25-44-59l-4-7q-9 29-8 50t12 28q7 4 18.5 1t25.5-13zm93-32q-34 9-74 9h-7q14 15 28 24.5t25 12q11 2.5 17.5-1.5t9.5-16q3-12 1-28zm51-66q0-8-8.5-16.5T244 126q-10 35-31 71l-2 4q29-7 46.5-19t17.5-24z"/></svg>