<svg viewBox="0 0 300 311" xmlns="http://www.w3.org/2000/svg"><path d="M150 258q-21 0-35.5-14.5T100 208q0-18 7.5-35.5t19-28.5q11.5-11 23.5-11t23.5 11q11.5 11 19 28.5T200 208q0 21-14.5 35.5T150 258zm0-100q-3 0-9.5 7T130 182q-5 13-5 26 0 11 7 18t18 7q11 0 18-7t7-18q0-13-5-26-4-10-10.5-17t-9.5-7zm0 150q-34 0-62.5-15.5t-45.5-42Q25 224 25 193q0-42 14-79 11-33 33-58 18-23 39.5-35.5T150 8q25 0 44.5 15T220 62q10 33 30 60 13 15 19.5 33.5T275 193q0 31-17 57.5t-45.5 42Q184 308 150 308zm0-275q-12 0-29 11T89 74q-17 22-27 50-12 33-12 69 0 25 13.5 45.5T100 271q23 12 50 12t50-12q23-12 36.5-32.5T250 193q1-15-4-29.5T231 137q-24-31-35-67-4-16-17-26.5T150 33z"/></svg>