<svg viewBox="0 0 300 311" xmlns="http://www.w3.org/2000/svg"><path d="M225 114q0 13-9 22.5t-22 9q-13-.5-22-9.5t-9-22q0-13 9-22t22-9q13 0 22 9t9 22zm0 86q-1 30-15 57-12 24-35 37.5T125 308h-12v-69q-1-18-13.5-30.5T69 195H0v-12q0-27 13.5-50T51 98q27-14 57-15 28-36 68.5-55.5T262 8q16 0 27 11t11 26q0 46-19.5 86.5T225 200zM26 170h28q14-31 33-59-13 3-25 9-14 8-23.5 21T26 171v-1zm171 51q-28 19-59 33v28q16-3 29-12.5t21-23.5q6-12 9-25zm78-176q0-5-3.5-8.5T262 33q-48 1-83 21t-67 64q-17 26-31 54 21 4 36 19t19 36q28-14 54-31 44-32 64-67t21-84zM77 231q10 12 10 27t-10 27q-8 7-29 13-14 4-31 7l-17 3 3-17q8-47 20-60 12-10 27-10t27 10zm-14 27q0-5-4-8.5t-9-3.5q-5 0-9 3-7 13-10 28 15-3 28-10 4-4 3-9h1z"/></svg>