<svg viewBox="0 0 300 311" xmlns="http://www.w3.org/2000/svg"><path d="M300 70q0-20-14.5-35T250 20q-21 0-35.5 15T200 70q0 18 10.5 31.5T237 119v101q1 6-3 9.5t-9 3.5h-62l27-28-18-17-40 40q-8 8-8 18t8 18l40 40 18-17-29-29h64q16 0 27-11t11-27V119q16-4 26.5-17.5T300 71v-1zm-50 25q-10 1-17.5-6.5t-7.5-18q0-10.5 7.5-18T250 45q10 0 17.5 7.5t7.5 18q0 10.5-7.5 18T250 96v-1zm-123 34l41-41q7-7 7-17.5T168 53l-41-41-18 18 29 28H75q-16 0-27 11T37 95v102q-16 4-26.5 17.5T0 245q0 21 14.5 35.5t35.5 15q21 .5 35.5-14.5t14.5-35q0-18-10.5-31.5T62 197V95q1-5 4.5-8.5T75 83h62l-28 28 18 18zM75 245q0 11-7.5 18T50 270q-10 0-17.5-7T25 245.5q0-10.5 7.5-18T50 220q10 0 17.5 7.5T75 245z"/></svg>