<svg viewBox="0 0 300 311" xmlns="http://www.w3.org/2000/svg"><path d="M286 183q-37-1-69.5 14.5T162 243v-61q28-5 45.5-26t17.5-48q0-24-15-48-11-18-33-41-11-11-27-11t-27 11q-22 23-33 41-15 24-15 48 0 27 17.5 48t44.5 26v61q-21-30-53.5-45.5T14 183H0l2 14q4 37 28 63 19 21 51 34 25 11 53 13 16 2 32 0 28-2 53-13 32-13 51-34 24-26 28-63l2-14h-14zM30 209q33 2 61 22t41 51q-33-4-57-18-35-19-45-55zm70-101q0-17 14-38 10-15 29-35-16 41-18 85h25q2-39 16-76 16 17 24 31 10 17 10 33 0 21-14.5 35.5T150 158q-21 0-35.5-14.5T100 108zm68 174q13-31 41-51t61-22q-10 36-45 55-24 14-57 18z"/></svg>