<svg viewBox="0 0 300 311" xmlns="http://www.w3.org/2000/svg"><path d="M72 220h156q-12 16-30 25h-96q-18-9-30-25zm171-100H57q-5 12-6 26h198q-1-14-6-25v-1zm-45-50h-96Q84 80 72 95h156q-12-15-30-25zM57 195h186q5-11 6-24H51q1 13 6 25v-1zm243-37q0 41-20 75.5T225.5 288Q191 308 150 308t-75.5-20Q40 268 20 233.5T0 158q0-41 20-75.5T74.5 28Q109 8 150 8t75.5 20Q260 48 280 82.5t20 75.5zm-25 0q0-30-13-56t-36-43.5Q203 41 175 35q-1 10-8 16.5T150 58q-10 0-17-6.5T125 35q-28 6-51 23.5T38 102q-13 26-13 56t13 56q13 26 36 43.5t51 23.5q1-10 8-16.5t17-6.5q10 0 17 6.5t8 16.5q28-6 51-23.5t36-43.5q13-26 13-56z"/></svg>