<svg viewBox="0 0 300 311" xmlns="http://www.w3.org/2000/svg"><path d="M300 158q0 28-10 54t-29 46h-36q23-18 36.5-44t13.5-56q0-34-17-62.5T212.5 50Q184 33 150 33T87.5 50Q59 67 42 95.5T25 158q0 26 11 50h-5q-10 0-20 5-11-26-11-55 0-41 20-75.5T74.5 28Q109 8 150 8t75.5 20Q260 48 280 82.5t20 75.5zm-95-72l-44 34 44 35 15-19-19-16 19-15-15-19zM95 155l44-35-44-34-15 19 19 15-19 16 15 19zm130 128h13v25H63v-25h12q10 0 17.5-7.5T100 258v-42q-10 7-16 13l-18-17q11-11 27-22 31-20 57-20t57 20q16 11 27 22l-18 17q-6-6-16-13v42q0 10 7.5 17.5T225 283zm-43 0q-7-12-7-25v-57q-14-5-25-5t-25 5v57q0 13-7 25h64zM31 233q-8 0-13 5.5T13 252q0 8 5 13t13 5q8 0 13.5-5t5.5-13q0-8-5.5-13.5T31 233zm250 37q-8 0-13 5.5t-5 13.5q0 8 5 13.5t13 5.5q8 0 13.5-5.5T300 289q0-8-5.5-13t-13.5-5v-1z"/></svg>