<svg viewBox="0 0 300 311" xmlns="http://www.w3.org/2000/svg"><path d="M100 158q20 0 37.5-10t27.5-27.5Q175 103 175 83t-10-37.5Q155 28 137.5 18T100 8Q80 8 62.5 18T35 45.5Q25 63 25 83t10 37.5Q45 138 62.5 148t37.5 10zm0-125q21 0 35.5 14.5T150 83q0 21-14.5 35.5T100 133q-21 0-35.5-14.5T50 83q0-21 14.5-35.5T100 33zm100 212v63h-25v-63q0-15-11-26t-26-11H63q-16 0-27 11t-11 26v63H0v-63q0-16 8.5-30.5t23-23Q46 183 63 183h75q16 0 30.5 8.5t23 23Q200 229 200 245zm61-93l35 35-17 17-35-35-35 35-18-17 35-35-35-35 18-18 35 35 35-35 17 18-35 35z"/></svg>