<svg viewBox="0 0 300 311" xmlns="http://www.w3.org/2000/svg"><path d="M100 96l-14 35-23-10 20-32 17 7zm200 62q0 41-20 75.5T225.5 288Q191 308 150 308t-75.5-20Q40 268 20 233.5T0 158q0-41 20-75.5T74.5 28Q109 8 150 8t75.5 20Q260 48 280 82.5t20 75.5zM150 283v-31l-25-7-25-25v-25l31-25h32l37 25h19l19 19 22 3q5-8 8-17l-43-23 13-13v-12l-38-13v-19h38V95h-25l-13 25-19 7 7 18-13 7-19-19-18 25h-13l-12-19 18-44 44-18V64l-37 6-7-12 13-25q-33 2-60 19T41 97q-16 28-16 61.5t17 62Q59 249 87.5 266t62.5 17z"/></svg>