<svg viewBox="0 0 300 311" xmlns="http://www.w3.org/2000/svg"><path d="M100 127q0 8 5.5 13.5t13.5 5q8-.5 13-5.5t5.5-13q.5-8-5-13.5T119 108q-8 0-13.5 5.5T100 127zM213 27q0 8 5 13.5t13 5q8-.5 13.5-5.5t5.5-13q0-8-5.5-13.5T231 8q-8 0-13.5 5.5T212 27h1zm37 62q0 8 5.5 13.5T269 108q8 0 13.5-5.5t5-13.5q-.5-8-5.5-13.5t-13-5q-8 .5-13.5 5.5T250 89zM100 189q0 8 5.5 13.5T119 208q8 0 13-5.5t5.5-13.5q.5-8-5-13t-13.5-5.5q-8-.5-13.5 5T100 189zm63 0q0 8 5 13.5t13 5.5q8 0 13.5-5.5T200 189q0-8-5.5-13t-13.5-5.5q-8-.5-13.5 5T162 189h1zm-13 119q-41 0-75.5-20T20 233.5Q0 199 0 158t20-75.5Q40 48 74.5 28T150 8q7 0 14 1l11 1 1 10q2 29 17.5 54t40.5 40.5q25 15.5 54 17.5l10 1 1 11q1 7 1 14 0 41-20 75.5T225.5 288Q191 308 150 308zm0-275q-34 0-62.5 17T42 95.5Q25 124 25 158t17 62.5Q59 249 87.5 266t62.5 17q34 0 62.5-17t45.5-45.5q17-28.5 17-62.5v-2q-31-5-57-22.5T174.5 90Q157 64 152 33h-2z"/></svg>