<svg viewBox="0 0 300 311" xmlns="http://www.w3.org/2000/svg"><path d="M300 70q0-20-14.5-34.5T250 21H50q-21-1-35.5 14T0 71v130l38 37v14q0 18 12.5 31T81 295.5q18-.5 31-13t13-30.5v-7h63v7q0 18 12.5 31t30.5 12.5q18-.5 31-13t13-30.5v-7h25v-61q0-17-8-31l-33-58h41V70zM25 95h75v25H25V95zm75 157q0 8-5.5 13T81 270q-8 0-13-5t-5-13v-7h37v7zm150 0q0 8-5.5 13t-13.5 5q-8 0-13.5-5t-5.5-13v-7h38v7zm25-32h-87v-50h85q2 7 2 14v36zm-87-75v-37q0-5 3.5-9t8.5-4h30l29 50h-71zm12-75q-16 0-27 11t-10 27v112H55l-30-30v-45h100V70H25q0-10 7.5-17T50 46h200q10-1 17.5 6.5T275 71l-75-1z"/></svg>