<svg viewBox="0 0 300 311" xmlns="http://www.w3.org/2000/svg"><path d="M152 279q-1 0-1-1h-1q-20-21-34-45h20l-9-25h-23q-11-26-11-50t11-50h92q6 15 8 29l26 9q-1-19-8-38h42q10 21 10 45l1 8 24 8 1-11q0-41-20.5-75.5t-55-54.5Q190 8 149.5 8t-75 20Q40 48 20 82.5t-20 75q0 40.5 20 75t54.5 55Q109 308 150 308l11-1-9-28zM116 83q14-24 34-45 19 20 33 45h-67zm133 0h-37q-12-24-30-46 20 6 37.5 17.5T249 83zM117 37q-17 22-29 46H50q12-17 29.5-28.5T117 37zm-82 71h42q-9 26-9 50t9 50H35q-10-24-10-50t10-50zm15 125h38q11 23 29 45-20-5-37.5-17T50 233zm80-95l58 170 36-76 76-36-170-58zm75 75l-13 29-22-64 64 22-29 13z"/></svg>