<svg viewBox="0 0 300 311" xmlns="http://www.w3.org/2000/svg"><path d="M150 8q-41 0-75.5 20T20 82.5Q0 117 0 158t20 75.5Q40 268 74.5 288t75.5 20q41 0 75.5-20t54.5-54.5q20-34.5 20-75.5t-20-75.5Q260 48 225.5 28T150 8zm0 275q-34 0-62.5-17T42 220.5Q25 192 25 158t17-62.5Q59 67 87.5 50T150 33q34 0 62.5 17T258 95.5q17 28.5 17 62.5t-17 62.5Q241 249 212.5 266T150 283zm87-167l-19 20 19 19-17 18-20-20-20 20-17-18 19-19-19-20 17-17 20 19 20-19 17 17zm-137 37l-20 20-17-18 19-19-19-20 17-17 20 19 20-19 17 17-19 20 19 19-17 18-20-20zm88 80h-75q0-16 10.5-26.5t26.5-11q16-.5 26.5 10.5t10.5 27h1z"/></svg>