<svg viewBox="0 0 300 311" xmlns="http://www.w3.org/2000/svg"><path d="M273 35q-13-13-30-20t-35.5-7Q189 8 172 15t-30 20L27 150Q9 168 3 192t0 48q6 24 23.5 41.5T68 305q24 6 48 0t42-24l115-115q13-13 20-30t7-35.5q0-18.5-7-35.5t-20-30zm-18 113L140 263q-13 13-30.5 18t-35 .5Q57 277 44 264t-17.5-30.5q-4.5-17.5.5-35T45 168L160 53q13-13 30.5-18t35-.5Q243 39 256 52t17.5 30.5q4.5 17.5-.5 35T255 148zm-26-36l17 17-37 38-18-18 10-10-32-32-10 10-18-18 38-37 17 17-10 10 33 33 10-10zm-88 87l18 18-38 37-17-17 10-10-33-33-10 10-17-17 37-38 18 18-10 10 32 32 10-10z"/></svg>