<svg viewBox="0 0 300 311" xmlns="http://www.w3.org/2000/svg"><path d="M250 8q-21 0-35.5 14.5T200 58h25q0-10 7.5-17.5T250 33h25v163q-17-13-38.5-13T198 197q-17 14-22 36h-52q-5-22-22-36t-38.5-14Q42 183 25 196V33h25q10 0 17.5 7.5T75 58h25q0-21-14.5-35.5T50 8H0v237q0 25 16 42.5t40 20Q80 310 99.5 296t24.5-38h52q5 24 24.5 38t43.5 11.5q24-2.5 40-20t16-42.5V8h-50zM63 283q-16 0-27-11t-11-26.5Q25 230 36 219t26.5-11Q78 208 89 219t11 26.5q0 15.5-11 26.5t-26 11zm175 0q-16 0-27-11t-11-26.5q0-15.5 11-26.5t26.5-11q15.5 0 26.5 11t11 26.5q0 15.5-11 26.5t-27 11h1z"/></svg>