<svg viewBox="0 0 300 311" xmlns="http://www.w3.org/2000/svg"><path d="M300 170v-25h-51q-2-13-7-26l44-26-13-21-44 25q-8-10-18-18l25-44-21-13-26 44q-13-5-26-7V8h-25v51q-14 2-27 7L86 22 64 35l26 43q-11 9-19 19L27 72 14 93l44 26q-5 13-7 26H0v25h51q2 14 7 27l-44 26 13 21 44-25q8 10 18 18l-25 44 21 13 26-44q13 5 27 7v51h25v-51q13-2 26-7l26 44 21-13-25-44q10-8 18-18l44 25 13-21-44-26q5-13 7-27h51zm-150 63q-20 0-37.5-10T85 195.5Q75 178 75 158t10-37.5Q95 103 112.5 93T150 83q20 0 37.5 10t27.5 27.5q10 17.5 10 37.5t-10 37.5Q205 213 187.5 223T150 233zm28-34q-15 11-33.5 9t-31-15.5Q101 179 100 160.5t10.5-33Q122 113 140 109t34 5q-11 7-17.5 18t-6 24q.5 13 8 25t19.5 18z"/></svg>