<svg viewBox="0 0 300 311" xmlns="http://www.w3.org/2000/svg"><path d="M150 158q20 0 37.5-10t27.5-27.5Q225 103 225 83t-10-37.5Q205 28 187.5 18T150 8q-20 0-37.5 10T85 45.5Q75 63 75 83t10 37.5Q95 138 112.5 148t37.5 10zm0-125q21 0 35.5 14.5T200 83q0 21-14.5 35.5T150 133q-21 0-35.5-14.5T100 83q0-21 14.5-35.5T150 33zm113 212v63h-25v-63q0-15-11-26t-27-11h-25l-17 25 17 75h-50l17-75-17-25h-25q-16 0-27 11t-11 26v63H38v-63q-1-16 7.5-30.5t23-23Q83 183 100 183h100q17 0 31.5 8.5t23 23Q263 229 262 245h1z"/></svg>