<svg viewBox="0 0 300 311" xmlns="http://www.w3.org/2000/svg"><path d="M300 195q0 28-13.5 51T250 282q-23 13-50 14h-3l30-31q24-9 37.5-31t10-47.5Q271 161 253 143t-43-22l-9-1-2-9q-2-20-13.5-35t-29-23Q139 45 120 46T85 57.5Q69 68 59.5 84.5T50 121q0 24 15 44l11 15-18 5q-16 4-25.5 17.5t-7.5 30Q27 249 39.5 260T69 270h1l25 25H69q-24 1-42.5-13.5T2 244q-6-23 3.5-44.5T36 166q-11-21-11-46t11.5-46.5Q48 52 68.5 38T114 21.5q25-2.5 47.5 6.5t39 27.5Q217 74 222 98q34 8 56 35.5t22 62.5v-1zm-127 90l70-71-17-18-71 71q-4 3-9 3t-9-3l-42-42-18 17 43 43q11 10 26.5 10t26.5-10z"/></svg>