<svg viewBox="0 0 300 311" xmlns="http://www.w3.org/2000/svg"><path d="M188 308h-75v-44q-20-7-36-20l-38 21-38-65 38-21q-3-21 0-42L1 115l38-65 38 22q16-13 36-20V8h75v44q19 7 35 20l38-22 38 65-38 22q3 21 0 42l38 21-38 65-38-21q-16 13-35 20v44zm-50-25h25v-38l9-2q23-6 40-24l7-7 33 19 13-21-33-19 2-10q7-23 0-46l-2-10 33-19-13-21-33 19-7-7q-17-18-40-24l-9-2V33h-25v38l-10 2q-23 6-40 24l-7 7-33-19-12 21 32 19-2 10q-7 23 0 46l2 10-32 19 12 21 33-19 7 7q17 18 40 24l10 2v38zm12-75q-21 0-35.5-14.5T100 158q0-21 14.5-35.5T150 108q21 0 35.5 14.5T200 158q0 21-14.5 35.5T150 208zm0-75q-10 0-17.5 7.5T125 158q0 10 7.5 17.5T150 183q10 0 17.5-7.5T175 158q0-10-7.5-17.5T150 133z"/></svg>