<svg viewBox="0 0 300 311" xmlns="http://www.w3.org/2000/svg"><path d="M201 201l9 23 58-23-9-23 23-9-16-40q-13-33-39-56l-48-43q-8-7-18.5-9T140 23L30 67q-10 4-16.5 12.5T6 99l-5 63q-3 36 10 69l15 39 23-9 10 23 58-23-9-23 93-37zM31 101q1-8 8-11l110-44q8-2 13 3l47 41-183 73 5-62zm-5 89l19-8 5 12q2 7 9.5 8t12-5q4.5-6 1.5-13l-5-11 117-46 4 11q3 7 10 8t11.5-4.5Q215 136 212 129l-4-12 19-7q10 13 16 28l6 17-209 83-6-17q-6-15-8-31zm274 118h-25q0-16-11-27t-26.5-11q-15.5 0-26.5 11t-11 27h-25q1-29 20-46 18-16 42.5-16t42.5 16q19 17 20 46z"/></svg>