<svg viewBox="0 0 300 311" xmlns="http://www.w3.org/2000/svg"><path d="M275 195H113l-38-37 38-38h162q10 0 17.5 7.5T300 145v25q0 11-7.5 18t-17.5 7zm-152-25h152v-25H123l-12 13 12 12zm115-87H113L75 45l38-37h125q10 0 17.5 7.5T263 33v25q0 10-7.5 17.5T238 83zM123 58h115V33H123l-12 12 12 13zm90 250H113l-38-38 38-37h100q10 0 17.5 7.5T238 258v25q-1 10-8 17.5t-17 7.5zm-90-25h90v-25h-90l-12 12 12 13zm-98-38q-10 0-17.5 7.5t-7.5 18Q0 281 7.5 288t17.5 7q10 0 17.5-7t7.5-17.5q0-10.5-7.5-18T25 245zm0-112q-10 0-17.5 7.5T0 158q0 10 7.5 17.5T25 183q10 0 17.5-7.5T50 158q0-10-7.5-17.5T25 133zm0-113q-10 0-17.5 7.5T0 45.5Q0 56 7.5 63T25 70q10 0 17.5-7T50 45.5q0-10.5-7.5-18T25 20z"/></svg>