<svg viewBox="0 0 300 311" xmlns="http://www.w3.org/2000/svg"><path d="M100 145v63h100V108h-62q-16 0-27 11t-11 26zm25 0q0-5 3.5-8.5t9.5-3.5h37v50h-50v-38zM25 183h50v25H0v-50h25v25zM163 33h-13V8h13q15 0 26 11t11 26v38h-25V45q0-5-3.5-8.5T163 33zm-38 0H75V8h50v25zM25 58H0V45q0-15 11-26T38 8h12v25H38q-6 0-9.5 3.5T25 45v13zm0 75H0V83h25v50zm100 150h25v25h-50v-75h25v50zm50 0h50v25h-50v-25zm100-100h25v50h-25v-50zm25-38v13h-25v-13q0-5-3.5-8.5T263 133h-38v-25h38q15 0 26 11t11 26zm-25 113h25v50h-50v-25h25v-25z"/></svg>