<svg viewBox="0 0 300 311" xmlns="http://www.w3.org/2000/svg"><path d="M150 8q-41 0-75.5 20T20 82.5Q0 117 0 158t20 75.5Q40 268 74.5 288t75.5 20q41 0 75.5-20t54.5-54.5q20-34.5 20-75.5t-20-75.5Q260 48 225.5 28T150 8zm0 275q-34 0-62.5-17T42 220.5Q25 192 25 158t17-62.5Q59 67 87.5 50T150 33q34 0 62.5 17T258 95.5q17 28.5 17 62.5t-17 62.5Q241 249 212.5 266T150 283zm0-75q-16 0-26.5 11T113 245h75q0-15-11-26t-27-11zm80-93l15-9q-17-27-48-40l-10 23q17 7 29 20-5-1-10-1-18 0-30.5 13T163 152q0 18 12.5 30.5T206 195q18 0 31-12.5t13-30.5q0-11-5.5-21T230 115zm-24 55q-8 0-13-5t-5-13q0-8 5-13.5t13-5.5q8 0 13.5 5.5T225 152q0 8-5.5 13t-13.5 5zm-68-18q0-18-13-31t-31-13q-8 0-16 3 13-14 31-22L99 66q-32 14-49 41l17 11q-8 6-12.5 15T50 152q0 18 13 30.5T94 195q18 0 31-12.5t13-30.5zm-44 18q-8 0-13.5-5T75 152q0-8 5.5-13.5T94 133q8 0 13.5 5.5T113 152q0 8-5.5 13T94 170z"/></svg>