<svg viewBox="0 0 300 311" xmlns="http://www.w3.org/2000/svg"><path d="M263 239v69h-25v-69q0-13-9.5-22t-22.5-9H94q-13 0-22.5 9T62 239v69H38v-69q0-23 16-39.5T94 183h112q24 0 40.5 16.5T263 239zm-76 6q-13 13-18 30-5 16-6 33l1-1q19-18 27-18 5 0 11.5 4t9.5 9q-1-16-7-29-6-16-18-28zM63 95V70q0-5 3.5-8.5T75 58h4q8-22 27.5-36T150 8q24 0 43.5 14T221 58h4q5 0 8.5 3.5T237 71v24q0 6-3.5 9.5T225 108h-4q-8 22-27.5 36T150 158q-24 0-43.5-14T79 108h-4q-5 0-9-3.5T63 95zm130 13h-86q7 11 18 18t25 7q14 0 25-7t18-18zm-86-50h86q-7-11-18-18t-25-7q-14 0-25 7t-18 18z"/></svg>