<svg viewBox="0 0 300 311" xmlns="http://www.w3.org/2000/svg"><path d="M300 108L272 8H28L0 108q0 19 13 33v129q-1 16 10 27t27 11h100q16 0 26.5-11t10.5-27V151q8-4 13-10 7 8 17 12.5t21 4.5h12q6 0 13-2v152h25V141q12-14 12-33zM150 283H50q-5 0-8.5-3.5T38 270v-37h125v37q0 6-4 9.5t-9 3.5zm13-75H38v-52q6 2 12 2h13q10 0 20-4.5t17-12.5q7 8 17 12.5t20 4.5h26v50zm75-75q-11 0-18-7.5t-8-17.5h-24q0 10-7.5 17.5T163 133h-25q-11 0-18.5-7.5T112 108H88q-1 10-8 17.5T62 133H50q-10 0-17-7t-8-16l22-77h41v37h25V33h75v37h25V33h40l22 77q-1 9-8 16t-17 7h-12z"/></svg>