<svg viewBox="0 0 300 311" xmlns="http://www.w3.org/2000/svg"><path d="M263 8H38Q22 8 11 19T0 46v99h300V45q0-15-11-26T262 8h1zm12 112H25V45q0-5 3.5-8.5T38 33h225q5 0 8.5 3.5T275 45v75zM50 70h200v25H50V70zm38 100h25v88q0 21-15 35.5T62.5 308q-20.5 0-35-14.5t-15-35.5Q12 237 27 222.5T62 208v25q-10 0-17 7.5T38 258q0 10 7 17.5t17.5 7.5q10.5 0 17.5-7.5t8-17.5v-88zm200 88q0 21-15 35.5T237.5 308q-20.5 0-35.5-14.5T187 258v-88h26v88q-1 10 6.5 17.5t18 7.5q10.5 0 18-7.5T263 258q0-10-7.5-17.5T238 233v-25q20 0 35 14.5t15 35.5zm-150-88h25v138h-25V170z"/></svg>