<svg viewBox="0 0 300 311" xmlns="http://www.w3.org/2000/svg"><path d="M13 39q-1-13 8.5-22T44 8q13 0 22 9t9 22q0 13-9 22.5t-22 9Q31 70 22 61t-9-22zm287 207l-6-24-107 25-38-165-24 6 13 58h-30l-21-42q-5-10-14-15.5T53 83H31q-13 0-22 9t-9 22v71q0 8 4 15t11 12l47 28v68h25v-82l-59-36q-3-1-3-5v-71q0-2 2-4t4-2h19v66l25 15v-53l17 35h52l17 75q-10 3-17 11.5t-7 20.5q0 12 9.5 21t22.5 9q13 0 22-9t9-22q0-4-1-7l101-24zm-112-91q-3-13 4-24t20-14l34-8q13-3 24 3.5t14 19.5l9 36q3 13-4 24t-20 14l-34 8q-4 1-8 1-9 0-16-5-11-7-14-19l-9-36zm25-6l8 36q1 2 3 3.5t5 1.5l35-9q2 0 3.5-2.5t.5-4.5l-8-36q-1-3-3-4.5t-5-.5l-34 8q-3 1-4.5 3.5t-.5 4.5zM13 308h25v-54l-25-15v69z"/></svg>