<svg viewBox="0 0 300 311" xmlns="http://www.w3.org/2000/svg"><path d="M263 308H38V45q0-15 10.5-26T75 8h150q16 0 27 11t11 27v262zM63 283h175V45q0-5-4-8.5t-9-3.5H75q-5 0-8.5 3.5T63 45v238zm87-163q-16 0-27-10.5T112.5 83q.5-16 11-27T150 45q16 0 27 11t11 27q0 16-11 26.5T150 120zm0-50q-5 1-9 4.5t-3.5 8.5q.5 5 4 9t8.5 3.5q5-.5 9-4t4-8.5q0-5-4-9t-9-4zm0 188q-17 0-31.5-8.5t-22.5-23q-8-14.5-8-31t8-31q8-14.5 22.5-23T150 133q17 0 31.5 8.5t23 23q8.5 14.5 8 31t-8.5 31q-8 14.5-22.5 23T150 258zm0-100q-16 0-26.5 11T113 195.5q0 15.5 10.5 26.5t26.5 11q16 0 27-11t10.5-26.5q-.5-15.5-11-26.5T150 158zm-12 25h25v25h-25v-25z"/></svg>