<svg viewBox="0 0 300 311" xmlns="http://www.w3.org/2000/svg"><path d="M213 8H88Q72 8 61 19T50 46v262h200V45q0-15-11-26T213 8zm12 275H75V45q0-5 3.5-8.5T87 33h126q5 0 8.5 3.5T225 45v238zm-75-163q-16 0-26.5-10.5T113 83q0-16 10.5-26.5t26.5-11q16-.5 26.5 10.5t11 27q.5 16-10.5 26.5T150 120zm-37 38q0 16 10.5 26.5T150 195q16 0 26.5-10.5t11-26.5q.5-16-10.5-26.5t-27-11q-16-.5-26.5 10.5T113 158zm37-13q5 0 8.5 4t4 9q.5 5-3.5 8.5t-9 3.5q-5 0-8.5-3.5T138 158q0-5 3.5-9t8.5-4zm-37 88q0 16 10.5 27t26.5 10.5q16-.5 26.5-11t11-26.5q.5-16-10.5-27t-27-10.5q-16 .5-27 11T113 233zm37-13q5 0 8.5 4t4 9q.5 5-3.5 9t-9 3.5q-5-.5-8.5-4T138 233q0-5 3.5-8.5t8.5-3.5v-1z"/></svg>