<svg viewBox="0 0 300 311" xmlns="http://www.w3.org/2000/svg"><path d="M150 245q0 6-3.5 9.5t-9 3.5q-5.5 0-9-3.5t-3.5-9q0-5.5 3.5-9t9-3.5q5.5 0 9 3.5t3.5 9.5v-1zm-25 38q-5 0-8.5 3.5t-4 9q-.5 5.5 3.5 9t9 3.5q5 0 9-3.5t4-9q0-5.5-4-9t-9-3.5zm-25-100q-5 0-8.5 3.5t-3.5 9q0 5.5 3.5 9t8.5 3.5q5 0 8.5-3.5t3.5-9q0-5.5-3.5-9T100 183zM75 283q-5 0-8.5 3.5t-3.5 9q0 5.5 3.5 9T75 308q5 0 8.5-3.5t4-9q.5-5.5-3.5-9t-9-3.5zm13-50q-6 0-9.5 3.5t-3.5 9q0 5.5 3.5 9t9 3.5q5.5 0 9-3.5t3.5-9q0-5.5-3.5-9T87 233h1zm87 50q-5 0-9 3.5t-3.5 9q.5 5.5 4 9t8.5 3.5q5 0 9-3.5t4-9q0-5.5-4-9t-9-3.5zm25-100q-5 0-9 3.5t-4 9q0 5.5 4 9t9 3.5q5 0 9-3.5t4-9q0-5.5-4-9t-9-3.5zm18-112q-10-24-29.5-40.5t-45-21Q118 5 93.5 13t-42 27Q34 59 28 83.5t0 50.5q-16 11-23 29.5t-4 38q3 19.5 16.5 34T50 255v-26q-11-6-18-16.5t-7-23q0-12.5 6.5-23T49 150l10-5-4-10q-7-18-4.5-36t13-33.5q10.5-15.5 27-24T125 33q25 0 45 15t27 39l2 8h9q26 1 45 18.5t22 42.5q3 25-11 46.5T225 230v26q22-4 39.5-18t27-34.5q9.5-20.5 8.5-43t-12-42q-11-19.5-29.5-32T218 71zm-68 112q-5 0-9 3.5t-3.5 9q.5 5.5 4 9t8.5 3.5q5 0 9-3.5t4-9q0-5.5-4-9t-9-3.5zm38 50q-4 0-7.5 2t-4.5 5.5q-1 3.5-.5 7.5t3 6.5q2.5 2.5 6.5 3t7.5-.5q3.5-1 5.5-4.5t2-8q0-4.5-3.5-8T188 233z"/></svg>