<svg viewBox="0 0 300 311" xmlns="http://www.w3.org/2000/svg"><path d="M300 99q0-28-20.5-48.5T224 19Q189 8 150 8T76 19Q41 30 20.5 50.5T0 99v46h42l-23 43Q0 224 0 264v44h300v-44q0-40-19-76l-23-43h42V99zm-25 165v19H25v-19q0-34 16-64l32-61 17-28q10-5 22-9 19-7 38-7t38 7q12 4 22 9l17 28 32 61q16 30 16 64zm0-144h-30l-17-27-11-6q-14-7-28-11-20-5-39-5.5T111 76q-15 4-28 11l-11 6-17 27H25V99q0-17 13-30 23-24 69-32 43-9 86 0 46 8 69 32 13 13 13 30v21zm-125 13q-17 0-31.5 8.5t-22.5 23q-8 14.5-8 31t8 31q8 14.5 22.5 23T150 258q17 0 31.5-8.5t22.5-23q8-14.5 8.5-31t-8-31q-8.5-14.5-23-23T150 133zm0 100q-16 0-27-11t-10.5-26.5q.5-15.5 11-26.5t26.5-11q16 0 26.5 11t11 26.5Q188 211 177 222t-27 11z"/></svg>