<svg viewBox="0 0 300 311" xmlns="http://www.w3.org/2000/svg"><path d="M225 121V84l25-13V34l-79-23q-21-5-42 0L50 34v37l25 13v37q0 20 10 37.5t27.5 27.5q17.5 10 37.5 10t37.5-10q17.5-10 27.5-27.5t10-37.5zM125 39l25 15 25-15 13 22-38 23-38-23 13-22zm25 132q-21 0-35.5-14.5T100 121v-17q23 5 50 5t50-5v17q0 21-14.5 35.5T150 171zm-31 37l25 31-19 69-35-68q-11 1-19.5 11T62 277v31H38v-31q0-19 9-34.5t25-25q16-9.5 34-9.5h13zm144 69v31h-25v-31q0-16-9-27-7-9-17-13l-37 71-19-69 25-31h13q18 0 34 9.5t25.5 25Q263 258 262 277h1z"/></svg>