<svg viewBox="0 0 300 311" xmlns="http://www.w3.org/2000/svg"><path d="M125 186l25 25v97l-92-75H25q-10 0-17.5-7.5T0 208V108q0-10 6.5-17T22 83l25 25H25v100h42l58 47v-69zm50 59v26h13q10 0 20-2l-24-23h-9v-1zm82 2l42 43-17 17L1 26 18 9l59 58 73-59v132l52 53q10-5 16.5-14.5T225 158q0-16-11-26.5T188 121h-13V95h13q16 0 30.5 8.5t23 23q8.5 14.5 8.5 31t-8 31q-8 14.5-21 22.5l18 18q17-12 26.5-31t9.5-40q0-24-12-44t-32-31.5Q211 71 188 70h-13V45h13q30 1 56 16t41 40.5q15 25.5 15 56.5 0 26-11.5 49.5T257 247zM95 85l30 30V61L95 85z"/></svg>