<svg viewBox="0 0 300 311" xmlns="http://www.w3.org/2000/svg"><path d="M289 156q-11-10-26.5-10T236 156l-98 99v53h53l98-99q11-11 11-26.5T289 156zm-18 36l-91 91h-17v-18l91-91q3-3 8.5-3t9 3.5q3.5 3.5 3.5 8.5t-4 9zM25 45q0-5 3.5-8.5T38 33h87v75h75v49l25-25V90L143 8H38Q22 8 11 19T0 45v238h113v-25H25V45zm125 6l32 32h-32V51zm24 132q0-1 1-2v-4q0-8-5.5-13.5T156 158q-8 0-13 5.5t-5 13.5q0 8 2 15-8 3-16 3t-18-5q9-11 14-22.5t5-22.5q0-15-11-26t-26.5-11Q72 108 61 119t-11 26q0 11 5 22.5T69 190q-10 5-19 5v25q19 0 37-13 19 13 38 13 6 0 13-1l36-36zm-86-10q-13-15-13-28 0-5 3.5-8.5t9-3.5q5.5 0 9 3.5t3.5 8.5q0 13-12 28z"/></svg>