<svg viewBox="0 0 300 311" xmlns="http://www.w3.org/2000/svg"><path d="M150 308l-88-86q-24-24-33-56.5t-.5-65Q37 68 61 44t56.5-32.5q32.5-8.5 65 .5t56 33q23.5 24 32 56t0 64q-8.5 32-32.5 56l-88 87zm0-275q-30 0-55.5 17t-37 45Q46 123 52 152.5T79 204l71 69 71-69q21-22 27-51.5T242.5 95q-11.5-28-37-45T150 33zm0 175q-20 0-37.5-10T85 170.5Q75 153 75 133t10-37.5Q95 78 112.5 68T150 58q20 0 37.5 10T215 95.5q10 17.5 10 37.5t-10 37.5Q205 188 187.5 198T150 208zm0-125q-21 0-35.5 14.5T100 133q0 21 14.5 35.5T150 183q21 0 35.5-14.5T200 133q0-21-14.5-35.5T150 83zm28 60l-15-15V95h-25v43l22 23 18-18z"/></svg>