<svg viewBox="0 0 300 311" xmlns="http://www.w3.org/2000/svg"><path d="M288 120h12V70q0-15-11-26t-27-11H88q-16 0-27 11T50 71v149q0 16 11 27t27 11h175q15 0 26-11t11-27v-50h-12q-11 0-18-7t-7-17.5q0-10.5 7-18t17-7.5h1zm-13 74v26q0 6-3.5 9.5T263 233H88q-6 0-9.5-3.5T75 221V70q0-5 3.5-8.5T88 58h175q5 0 8.5 3.5T275 71v26q-16 4-27 17.5t-11 31q0 17.5 11 31t27 17.5zm-62-49v13h-25l-24 30q-4 7-13 7h-13l17-37h-34l-20-23q-2-5 .5-10t7.5-5q5 0 8 3l11 10h27l-17-38h13q8 0 12 8l25 30h9q7 0 11.5 3.5t4.5 9.5v-1zM88 283h150v25H88q-24 0-44-12t-32-32Q0 244 0 220V108h25v112q0 17 8.5 31.5t23 23Q71 283 87 283h1z"/></svg>