<svg viewBox="0 0 300 311" xmlns="http://www.w3.org/2000/svg"><path d="M38 58h27q4 11 13.5 18t21.5 7h25q12 0 21.5-7T160 58h28q5 0 8.5 3.5T200 70v25h25V70q0-15-11-26t-26-11h-28q-4-11-13.5-18T125 8h-25q-12 0-21.5 7T65 33H38q-16 0-27 11T0 70v238h113v-25H25V70q0-5 3.5-8.5T38 58zm62-25h25q5 0 9 3.5t4 9q0 5.5-4 9t-9 3.5h-25q-5 0-8.5-3.5t-3.5-9q0-5.5 3.5-9T100 33zm163 87h-88q-15 0-26 11.5T138 158v150h162V158q0-15-11-26.5T263 120zm12 163H163V158q0-5 3.5-9t8.5-4h88q5 0 8.5 4t3.5 9v125zm-87-113h62v25h-62v-25zm0 50h62v25h-62v-25z"/></svg>