<svg viewBox="0 0 300 311" xmlns="http://www.w3.org/2000/svg"><path d="M128 106l-28-15v-8h36l10-37h8l10 37h36v8l-27 16 11 33-7 4-27-21-27 22-6-5 11-34zm89-3l6 4 27-21 27 21 7-4-11-34 27-16v-8h-36L254 8h-8l-10 37h-36v8l28 16-11 34zM17 178l6 4 27-21 27 21 7-4-11-34 27-16v-8H64L54 83h-8l-10 37H0v8l28 16-11 34zm283-1v131H0v-56q0-13 9-22.5t22-9.5h50q3 0 6 1v-7q1-13 10-22t22-9h50q3 0 6 1v-7q0-13 9-22.5t22-9.5h63q13 1 22 10t9 22zM113 283h62v-69q0-2-2-4t-4-2h-50q-3 0-4.5 2t-1.5 4v69zm-88 0h63v-31q0-3-2-4.5t-5-1.5H31q-2 0-4 1.5t-2 4.5v31zm250-106q0-3-2-5t-4-2h-63q-2 0-4 2t-2 5v106h75V177z"/></svg>