<svg viewBox="0 0 300 311" xmlns="http://www.w3.org/2000/svg"><path d="M188 246l111 38-8 23-141-48L9 307l-8-23 111-38L1 207l8-23 141 48 141-48 8 23-111 39zm-50-144q-1-8-6-13.5T119 83q-8 0-13.5 5.5T100 102q0 8 5.5 13.5T119 121q8 0 13.5-5.5T138 102zm43 18q8 1 13.5-4.5T200 102q0-8-5.5-13.5T181 83q-8 0-13.5 5.5t-5 13.5q.5 8 5.5 13.5t13 5.5v-1zm-81 38H63V95q0-23 11.5-43T106 20q20-12 44-12t44 12q20 12 32 32t12 43v63h-38v37H100v-37zm25-25v37h50v-37h38V95q0-16-8.5-30.5t-23-23Q167 33 150 33t-31.5 8.5Q104 50 96 64.5T88 96v37h37z"/></svg>