<svg viewBox="0 0 300 311" xmlns="http://www.w3.org/2000/svg"><path d="M294 282q-7 12-18.5 19t-25.5 7H50q-14 0-25.5-7t-18-19Q0 270 0 257t8-25L109 69q10-17 28-22V8h26v39q18 5 28 22l7 11-15 24-13-22q-7-11-20-11t-20 11L29 245q-4 6-4 12.5t3.5 12.5q3.5 6 9 9.5T50 283h200q7 0 12.5-3.5t9-9.5q3.5-6 3.5-12.5t-4-12.5l-44-70 15-24 50 81q8 12 8 25t-6 25zM170 173l78-126 21 13-79 127q10 12 10 27 0 18-13 31t-31 13q-18 0-30.5-13T113 214q0-18 12.5-31t30.5-13q7 0 14 3zm5 41q0-8-5.5-13.5T156 195q-8 0-13 5.5t-5 13.5q0 8 5 13.5t13 5.5q8 0 13.5-5.5T175 214z"/></svg>