<svg viewBox="0 0 300 311" xmlns="http://www.w3.org/2000/svg"><path d="M100 8H38Q22 8 11 19T0 46v62h38l-1 37 25 1 1-38h37V70h38V45h-38V8zM75 83H25V45q0-5 3.5-8.5T37 33h38v50zM263 8h-63v37h-37l-1 25h38v38h38v37l25 1v-38h37V45q0-15-11-26T262 8h1zm12 75h-50V33h38q5 0 8.5 3.5T275 45v38zm-12 88l-25-1v38h-38v38l-37-1v25l37 1v37h63q15 0 26-11t11-27v-62h-37v-37zm12 99q0 6-3.5 9.5T263 283h-38v-50h50v37zm-175-62H62l1-37-25-1-1 38H0v62q0 16 11 27t26 11h63v-38l38 1v-25h-38v-38zm-25 75H38q-6 0-9.5-3.5T25 270v-37h50v50z"/></svg>