<svg viewBox="0 0 300 311" xmlns="http://www.w3.org/2000/svg"><path d="M199 112q3 15-4 29.5T174 164q-11 9-11 22v9h-25v-9q0-13 6.5-24.5T162 142q7-3 10.5-10.5t2-15.5q-1.5-8-7-13.5T155 96q-12-2-21 5.5t-9 18.5h-25q0-11 4.5-21T118 82q10-8 23-10.5t26 2Q180 78 188.5 88t10.5 24zm76-36v82q0 42-24 77-18 26-49 47-20 14-42 22l-11 5-10-5q-21-11-41-26-31-23-49-49-24-34-24-71V76q0-12 7-21.5T51 41l99-33 99 33q12 4 19 13.5t7 21.5zm-25 0q0-4-2.5-7t-6.5-4l-91-31-91 31q-4 1-6.5 4T50 76v82q0 43 41 82 26 24 60 41 18-7 36-19 27-17 42-40 21-29 21-64V76zM138 245h25v-25h-25v25z"/></svg>