<svg viewBox="0 0 300 311" xmlns="http://www.w3.org/2000/svg"><path d="M275 149q-3-35-22-64.5T203.5 38Q173 21 137 20V8H75Q59 8 48 19T37 46v224q1 16 11.5 27T75 308h63v-13q28 0 54-11t45.5-32q19.5-21 29.5-48t8-55zm-55 86q-16 17-37.5 26.5T138 270h-25v13H75q-5 0-8.5-3.5T63 270v-25h25v-25H63v-25h25v-25H63v-25h25v-25H63V95h25V70H63V45q0-5 3.5-8.5T75 33h38v12h20q30 0 56 13.5t42 38q16 24.5 19 53.5 1 24-6.5 46T220 235zM138 95h-25v125h25q16 0 30.5-8t23-22.5Q200 175 200 158t-8.5-31.5q-8.5-14.5-23-22.5T137 96l1-1zm0 100v-75q15 0 26 11t11 27q0 16-11 26.5T138 195z"/></svg>