<svg viewBox="0 0 300 311" xmlns="http://www.w3.org/2000/svg"><path d="M150 133H38q-16 0-27 11T0 170v50h25v25H0v25h25v38h25v-38h88v38h25v-38h25v-25h-25v-25h25v-50q0-15-11-26t-27-11zm-12 112H50v-25h88v25zm25-50H25v-25q0-5 3.5-8.5T37 158h113q5 0 9 3.5t4 9.5v24zm130-62q7 12 7 25 0 21-14.5 35.5T250 208q-6 0-12-1v101h-25V176h12q4 0 9 3 8 4 16 4 10 0 17.5-7.5t7.5-17q0-9.5-7-17.5l-7-8 7-8q7-8 7-16.5T270 93q-5-7-14-9l-13-4 5-13q2-4 2-9 0-10-7.5-17.5T225 33q-10 0-17.5 7.5T200 58q0 5 2 9l5 13-13 4q-9 2-14 9t-5 15q0 2 1 6-13-6-26-6 0-14 7-25.5T175 65v-7q0-21 14.5-35.5T225 8q21 0 35.5 14.5T275 58v7q11 6 18 17.5t7 25q0 13.5-7 25.5z"/></svg>