<svg viewBox="0 0 300 311" xmlns="http://www.w3.org/2000/svg"><path d="M265 184q0 7-4.5 12.5T249 204l-12 3 4 17q0 9-6.5 15t-15.5 6q-6 0-11-3l-11-6-6 11q-3 5-8 8t-11 3q-10 0-17-8l-10-12-9 12q-7 8-17 8-6 0-11-3t-8-8l-6-11-11 6q-5 3-11 3-9 0-15.5-6T50 224l1-5 2-12-12-3q-7-2-11.5-8T25 183q0-7 4.5-13t11.5-8l12-3-2-12-1-5q0-9 6.5-15.5T72 120q6 0 11 4l11 6 6-11q3-5 8-8t11-3q10 0 17 8l9 12 10-12q3-4 8-6v14q0 21 15 33.5t41 12.5q26 0 41-12.5t15-33.5V72q9-3 16-10t9-17l-12-3q-15-3-30-5-16-17-39-17t-40 17q-15 2-30 5l-11 3q2 10 9 17t16 10v12q-10 2-18 7-12-8-26-8-20 0-34 14-6-2-13-2-19 0-33 13.5T25 142q-11 6-18 17t-7 24q0 13 7 24t18 17q0 17 11 29.5T63 270v38h50v-26l6 1q14 0 26-8 12 8 27 8 7 0 16-3v28h50v-42q12-5 19.5-16.5T266 224q11-6 18-17t7-24q0-9-4-18-8 12-22 19zM188 77q-1-13 8.5-22.5T219 45q13 0 22 9.5t9 22.5v47q0 21-31 21t-31-21V77z"/></svg>