<svg viewBox="0 0 300 311" xmlns="http://www.w3.org/2000/svg"><path d="M263 70V45h-25q-1-15-11.5-26T200 8H100Q84 8 73 19T62 46v82q-11 7-17.5 17T38 164q0 18 10 38t29 34q22 16 52 20-2 10-9 16-4 3-13.5 8T94 289q-6 7-6 19h125q0-12-7-19-3-4-12.5-9t-13.5-8q-7-6-9-16 30-4 52-20 19-14 29-34t10-38q1-9-6-19t-18-17V70h25zM100 33h100q5 0 8.5 3.5T212 46v75H88V45q0-5 3.5-8.5T100 33zm50 200q-24 0-44-9-16-8-28-21 24 5 72 5t72-5q-12 13-28 21-20 9-44 9zm0-50q-87 0-88-19h1q0-3 6-9t16-9h130q10 3 16 9t7 9q0 19-88 19z"/></svg>