<svg viewBox="0 0 300 311" xmlns="http://www.w3.org/2000/svg"><path d="M231 30l13-21q33 19 56 49l-21 14q-20-26-48-42zM69 30L56 9Q23 28 0 58l21 14q20-26 48-42zm31 115h62l-62 50v25h100v-25h-61l61-48v-27H100v25zm188 25q0 27-10 51t-27 43l24 26-19 17-24-27q-17 14-38 21t-44 7q-23 0-44-7t-38-21l-24 27-19-17 24-26q-17-19-27-43t-10-51q0-35 17-65t45.5-49Q103 37 138 34V8h25v26q34 3 62.5 22t45.5 49q17 30 17 66v-1zm-25 0q0-30-15.5-56t-41-41Q181 58 150 58T93.5 73q-25.5 15-41 41t-15 56.5Q38 201 53 227t40.5 41q25.5 15 56.5 15t56.5-15q25.5-15 40.5-41t15-56l1-1z"/></svg>