<svg viewBox="0 0 300 311" xmlns="http://www.w3.org/2000/svg"><path d="M105 144q15-8 32-11-2 17-10 33-7 7-15.5 4.5t-11-11.5q-2.5-9 4.5-15zm58-11q2 17 10 33 7 7 15.5 4.5t11-11.5q2.5-9-4.5-15-15-8-33-11h1zm110 86l-10 58q-2 13-12.5 22t-24.5 9H74q-14 0-24.5-9T37 277l-10-58q-12-3-19.5-13T0 183q0-23 20.5-46.5T74 99q36-16 76-16t76 16q33 14 53.5 37.5T300 183q0 13-7.5 23T273 219zm-35 54l6-31q-15 6-30.5 2T187 228q-7 8-16.5 13t-20.5 5q-11 0-20.5-5T112 228q-10 12-25.5 16T56 242l6 31q1 4 4 7t8 3h152q5 0 8.5-3t3.5-7zm37-90q0-15-17.5-33T213 121q-30-13-63-13t-63 13q-27 11-44.5 29T25 183q-1 5 3 9t10 4h12q0 10 7.5 17t17.5 7q10 0 17.5-7t7.5-18h25q0 11 7.5 18t17.5 7q10 0 17.5-7t7.5-18h25q0 11 7.5 18t17.5 7q10 0 17.5-7t7.5-18h13q5 1 9-3t3-9zM163 8h-25v50h25V8zm50 0h-25v50h25V8zM113 8H88v50h25V8z"/></svg>