<svg viewBox="0 0 300 311" xmlns="http://www.w3.org/2000/svg"><path d="M113 45v188H88V45H0V20h200v25h-87zm43 25q-8 0-13 5.5T138 89q0 8 5 13.5t13 5.5q8 0 13.5-5.5T175 89q0-8-5.5-13.5T156 70zm0 63q-8 0-13 5.5t-5 13.5q0 8 5 13t13 5q8 0 13.5-5t5.5-13q0-8-5.5-13.5T156 133zm0 62q-8 0-13 5.5t-5 13.5q0 8 5 13.5t13 5.5q8 0 13.5-5.5T175 214q0-8-5.5-13.5T156 195zm0 63q-8 0-13 5.5t-5 13.5q0 8 5 13t13 5q8 0 13.5-5t5.5-13q0-8-5.5-13.5T156 258zm63-188q-8 0-13.5 5.5T200 89q0 8 5.5 13.5T219 108q8 0 13.5-5.5T238 89q0-8-5.5-13.5T219 70zm62 0q-8 0-13 5.5T263 89q0 8 5 13.5t13 5.5q8 0 13.5-5.5T300 89q0-8-5.5-13.5T281 70z"/></svg>