<svg viewBox="0 0 301 311" xmlns="http://www.w3.org/2000/svg"><path d="M294 273q-6-18-6-34 0-10 7-32l5-13-14-3q-4-1-11-4-13-5-21-13t-18-27q3-8 3-14 0-19-13.5-33.5T193 84q8-13 8-26 0-21-15-35.5T150.5 8q-20.5 0-35 14.5T101 58q0 13 7 26-19 2-31.5 16T64 133q0 6 2 14-10 19-18 27t-21 13q-8 4-12 4l-13 3 4 13q8 22 8 32.5T11 262q-2 8-3 11l-8 24 24-8 11-3q12-3 22-3t20 4q6 2 10 4l14 9 4-17q1-5 4-12 6-14 13-21 12-12 29-18 17 6 29 18 7 7 13 21 3 7 4 12l3 17 15-9q4-2 9-4 11-4 21-4t22 3l11 3 23 8-7-24zm-80-140q-1 10-8 17.5t-17.5 7.5q-10.5 0-18-7.5t-7-17.5q.5-10 7.5-17.5t17.5-7.5q10.5 0 18 7.5T214 133zM151 33q10 0 17.5 7.5T176 58q0 10-7.5 17.5t-18 7.5Q140 83 133 75.5T126 58q0-10 7-17.5t18-7.5zm-37 75q10 0 17.5 7.5T139 133q0 10-7.5 17.5t-18 7.5q-10.5 0-18-7.5t-7-17.5q.5-10 7.5-17.5t18-7.5zm-10 124q-11 12-19 31-14-5-28-5-9 0-20 2 2-11 2-21t-5-28q19-7 31-19 8-8 16-21 14 12 33 12 12 0 24-7v34q-19 7-34 22zm161 28q-11-2-21-2-13 0-28 5-7-19-19-31-14-15-34-22v-34q12 7 26 7 18 0 32-12 8 13 16 21 12 12 31 19-5 18-5 28t2 21z"/></svg>