<svg viewBox="0 0 300 311" xmlns="http://www.w3.org/2000/svg"><path d="M138 110v198h-25V145q-1-12 6-21.5t19-13.5zm25 0v198h25V145q0-12-7-21.5T162 110h1zm125 35v163h-75V145q0-16-8.5-30.5t-23-23Q167 83 150 83t-31.5 8.5Q104 100 96 114.5T88 146v162H13V145q0-37 18.5-68.5t50-50Q113 8 150 8t68.5 18.5Q250 45 269 76.5t19 68.5zm-50 88h25v-25h-25v25zm25-50v-25h-25v25h25zm-1-50q-2-17-9-33l-22 13q4 10 6 20h25zm-45-78l-13 22q8 6 15 14l22-12q-11-14-24-24zm-79-21q-17 2-33 8l13 22q9-4 20-5V34zm25 25q10 1 19 5l13-22q-16-6-32-8v25zM59 79l22 12q7-8 15-14L83 55Q70 65 59 79zm4 104v-25H38v25h25zm-25 25v25h25v-25H38zm25-75q2-10 6-20l-22-13q-7 16-9 33h25zm0 150v-25H38v25h25zm200 0v-25h-25v25h25z"/></svg>