<svg viewBox="0 0 300 311" xmlns="http://www.w3.org/2000/svg"><path d="M250 46q-24-21-54.5-31T132 9q-33 4-62 22T23 78Q5 107 1 141q-4 37 9 72t40 60q27 25 62 34 5 1 10 1 14 0 25-8 7-6 11-14.5t4-17.5v-35q21 0 35.5-14.5T212 183v-25h13v-25h-38V83h-25v50h-25V83h-25v50H75v25h12v25q0 21 15 35.5t35 14.5v35q0 7-5.5 11.5T118 283q-29-8-51-29t-33.5-50.5Q22 174 26 144q3-29 18-53t39-39q24-15 52-18t53 5q25 8 45 26t31 42q11 24 11 51 0 41-24.5 74T187 277v26q33-8 58.5-29.5t40-51.5q14.5-30 14.5-64 0-32-13-61t-37-51zM113 183v-25h75v25q-1 10-8 17.5t-17 7.5h-25q-11 0-18.5-7.5T112 183h1z"/></svg>