<svg viewBox="0 0 300 311" xmlns="http://www.w3.org/2000/svg"><path d="M181 151q13-13 13-31t-13-30.5Q168 77 150 77t-31 12.5Q106 102 106 120t13 31q-9 7-14 17t-5 21q0 21 14.5 35.5T150 239q21 0 35.5-14.5T200 189q0-11-5-21t-14-17zm-50-31q0-7 5.5-12.5T150 102q8 0 13.5 5.5t5.5 13q0 7.5-5.5 13T150 139q-8 0-13.5-5.5T131 120zm19 94q-10 0-17.5-7t-7.5-17.5q0-10.5 7.5-18T150 164q10 0 17.5 7.5t7.5 18q0 10.5-7.5 17.5t-17.5 7zm0-206q-41 0-75.5 20T20 82.5Q0 117 0 158t20 75.5Q40 268 74.5 288t75.5 20q41 0 75.5-20t54.5-54.5q20-34.5 20-75.5t-20-75.5Q260 48 225.5 28T150 8zm0 275q-34 0-62.5-17T42 220.5Q25 192 25 158t17-62.5Q59 67 87.5 50T150 33q34 0 62.5 17T258 95.5q17 28.5 17 62.5t-17 62.5Q241 249 212.5 266T150 283z"/></svg>