<svg viewBox="0 0 300.0015 311" xmlns="http://www.w3.org/2000/svg"><path d="M113 108q2-14 6-27 5-11 6-23 0-21-14.5-35.5T75 8Q54.003 8 39.503 22.5 25.002 37 25.002 58q1 12 6 23 4 13 6 27-2 24-15 44-20 32-22 69-1 22 6.5 44t22.5 39l3 4h86l3-4q15-17 22.5-39t6.5-44q-2-37-22-69-13-20-16-44h1zM75 33q10 0 17.5 7t7.5 18q-2 8-4 15-7 17-9 35H63.003q-2-18-9-35-4-13-4-15 0-10 7.5-17.5T75 33zm32 250H43.003q-19-28-18-62 3-31 19-57 8-15 14-31h34q6 16 14 31 16 26 19 57 1 34-18 62zm171.002-131q-13-20-15-44 2-14 6-27 5-11 6-23 0-21-14.5-35.5T225.002 8q-21 0-35.5 14.5T175 58q1 12 6 23 4 13 7 27-3 24-16 44-20 32-22 69-1 22 6.5 44t22.5 39l3 4h86l3-4q15-17 22.5-39t6.5-44q-2-37-22-69zm-53-119q10 0 17.5 7t7.5 18q-2 8-4 15-7 17-8 35h-25q-2-18-9-35-4-13-4-15 0-10 7.5-17.5T225 33zm32 250h-64q-19-28-18-63 3-30 19-56 8-15 14-31h34q6 16 14 31 16 26 19 56 1 35-18 63z"/></svg>