<svg viewBox="0 0 300 311" xmlns="http://www.w3.org/2000/svg"><path d="M244 197v-65l55-55-68-68-49 49h-70q-3-21-18.5-35.5T55.5 8Q33 8 16.5 24.5T0 64q0 18 10.5 32.5T38 117v91H0v100h100V208H63v-88q16-2 28.5-12T109 83h61l49 49v65q-19 4-31.5 19.5T175 252q0 23 16.5 39.5t40 16.5q23.5 0 40-16.5T288 252q0-20-12.5-35.5T244 197zM75 283H25v-50h50v50zM264 77l-33 32-31-31v-2l31-32 33 33zM56 95q-13 0-22-9t-9-22q0-13 9-22t22-9q13 0 22.5 9T88 64q0 13-9.5 22T56 95zm175 188q-13 0-22-9t-9-22q0-13 9-22.5t22-9q13 .5 22 9.5t9.5 22q.5 13-9 22t-22.5 9z"/></svg>