<svg viewBox="0 0 300 311" xmlns="http://www.w3.org/2000/svg"><path d="M225 39q0-13 9-22t22-9q13 0 22.5 9t9.5 22q0 13-9.5 22T256 70q-13 0-22-9t-9-22zm60 193l-36 69-22-11 36-70h-39q-3 25-17 45t-35.5 31.5Q150 308 124 308t-49-13.5Q52 281 38.5 258T25 208q0-30 16.5-55T85 116l-28 60q-7 16-7 32 0 20 10 37.5T87.5 273q17.5 10 37.5 10 28 0 49-18t25-44h-27q-9 0-16.5-4.5t-12.5-12q-5-7.5-5.5-16T141 172l35-77h-25l-27 56-23-11 35-70h78q9 0 17 4.5T244 87q5 8 5.5 17t-3.5 17l-34 74h51q6 0 11.5 3.5t9 9q3.5 5.5 4 12T285 232zm-113-37h12l40-85q2-5-1-10t-9-5h-10l-41 87q-2 5 1 9.5t8 4.5v-1z"/></svg>