<svg viewBox="0 0 300 311" xmlns="http://www.w3.org/2000/svg"><path d="M225 8H75Q59 8 48 19T37 46v262h226V45q0-15-11-26T225 8zm13 275H63V45q0-5 3.5-8.5T75 33h150q5 0 8.5 3.5T237 45v238h1zm-88-138q-17 0-31.5 8.5t-22.5 23Q88 191 88 208t8 31.5q8 14.5 22.5 22.5t31.5 8.5q17 .5 31.5-8t23-23Q213 225 213 208t-8.5-31.5q-8.5-14.5-23-22.5t-31.5-8v-1zm0 100q-16 1-27-10t-10.5-27q.5-16 11-27t26.5-11q16 0 26.5 11t11 27q.5 16-10.5 27t-27 11v-1zm19-37q0 8-5.5 13.5T150 227q-8 0-13.5-5.5T131 208q0-8 5.5-13.5T150 189q8 0 13.5 5.5T169 208zm19-150h-75q-11 0-18.5 7.5T87 83v25q1 10 8 17.5t18 7.5h75q10 0 17.5-7.5T213 108V83q-1-10-8-17.5T188 58zm-75 50V83h75v25h-75z"/></svg>