<svg viewBox="0 0 300 311" xmlns="http://www.w3.org/2000/svg"><path d="M300 208v100H200q-27 0-50-13.5T114 258q14 0 28-3 10 13 25.5 20.5T200 283h75v-75q0-17-7.5-32.5T247 150q3-14 3-28 23 13 36.5 36t13.5 50zm-187 25H0V120q0-30 15-56t41-41Q82 8 112.5 8T169 23q26 15 41 41t15 56.5q0 30.5-15 56.5t-41 41q-26 15-57 15h1zm87-113q0-23-12-43t-32-32q-20-12-43.5-12T69 45Q49 57 37 77t-12 43v88h88q23 0 43-12t32-32q12-20 12-44zM100 83h25q5 0 9 3.5t4 9.5h25q0-16-11-27t-27-11V45h-25v13q-16 0-27 11T62 95q1 13 9 23t20 12l38 6q4 1 6.5 3.5t2.5 7q0 4.5-4 8t-9 3.5h-25q-5 0-8.5-3.5T88 145H63q0 16 11 27t26 11v12h25v-12q16 0 27-11t11-27q0-12-8.5-22T134 111l-38-6q-4-1-6-3.5t-2-7q0-4.5 3.5-8T100 83z"/></svg>