<svg viewBox="0 0 300 311" xmlns="http://www.w3.org/2000/svg"><path d="M150 8q-41 0-75.5 20T20 82.5Q0 117 0 158t20 75.5Q40 268 74.5 288t75.5 20q41 0 75.5-20t54.5-54.5q20-34.5 20-75.5t-20-75.5Q260 48 225.5 28T150 8zm0 275q-34 0-62.5-17T42 220.5Q25 192 25 158t17-62.5Q59 67 87.5 50T150 33q34 0 62.5 17T258 95.5q17 28.5 17 62.5t-17 62.5Q241 249 212.5 266T150 283zm-62-88h125v25H88v-25zm125-56q-1 8-6 13.5t-13 5.5q-8 0-13.5-5.5T175 139q0-8 5.5-13.5t13.5-5q8 .5 13.5 5.5t5.5 13zm-107-19q8 1 13.5 6t5.5 13q0 8-5.5 13.5T106 158q-8 0-13.5-5.5t-5-13.5q.5-8 5.5-13.5t13-5.5zm19-12H75V83h50v25zm103-21l-21 14q-5-6-13-6t-15 9q-4 4-6 9l-23-11q4-8 11-16 15-16 33-16 14 0 24 8 6 4 10 9z"/></svg>