<svg viewBox="0 0 300 311" xmlns="http://www.w3.org/2000/svg"><path d="M200 45q0-15-11-26T163 8H38Q22 8 11 19T0 46v218q0 18 13 31t31 13h156q16 0 27-11t10-27v-37h-37V45zm13 213v12q0 6-4 9.5t-9 3.5H83q5-9 5-19v-6h125zM63 233v31q0 8-5.5 13.5T44 283q-8 0-13.5-5.5T25 264V45q0-5 3.5-8.5T38 33h125q5 0 8.5 3.5T175 46v187H63zM263 8q-16 0-27 11t-11 27v155l38 37 37-37V45q0-15-11-26T262 8h1zm12 182l-12 13-13-13V45q0-5 3.5-8.5t9-3.5q5.5 0 9 3.5T275 46v144zM108 62l17 17-35 36q-6 5-14 5t-14-5L41 94l18-18 17 17 32-31zm0 75l17 17-35 36q-6 5-14 5t-14-5l-21-21 18-18 17 17 32-31z"/></svg>