<svg viewBox="0 0 300 311" xmlns="http://www.w3.org/2000/svg"><path d="M288 183q-1-20-10-36.5t-25-27Q237 109 217 108q8-14 8-31-1-19-11.5-35.5t-27-25.5Q170 7 150 7t-36.5 9q-16.5 9-27 25.5T75 77q0 17 8 31-20 2-36 12.5t-25 28q-9 17.5-8.5 37t10.5 36Q34 238 51 248t36 10q29 0 50-19-2 23-10 33.5T100 283H63v25h175v-25h-38q-19 0-27-10.5T163 239q21 19 49 19 21 0 38-10t27-27.5q10-17.5 11-37.5zM150 33q19-1 34 12t16 32q-1 14-8.5 25.5T173 120q-13 9-23 20-10-11-22-20-12-6-19.5-17.5T100 77q1-19 16-32t34-12zM88 233q-21 0-35.5-14.5T38 183q0-21 14.5-35.5T88 133q14 0 25 8h1q15 11 25 27l9 15-9 15q-6 10-15 19-17 16-37 16h1zm62 50v-1 1zm11-85l-8-15 8-15q10-16 25-27l1-1q12-7 25-7 21 0 36 14.5t15 35.5q0 21-15 35.5T213 233q-20 0-38-17-9-9-14-18z"/></svg>