<svg viewBox="0 0 300 311" xmlns="http://www.w3.org/2000/svg"><path d="M150 308q-40 0-74.5-20t-55-54.5Q0 199 0 158.5t20-75Q40 49 74.5 29t74-20.5Q188 8 222 27l20 11-20 11q-27 16-43 43t-16.5 58.5Q162 182 178 210q19 34 54 50l21 9-19 12q-38 26-84 27zm0-275q-34 0-62.5 17t-45 45.5Q26 124 26 158t16.5 62.5Q59 249 87.5 266t62.5 17q27 0 52-12-32-21-49-55.5T138 143q2-38 23-70 13-19 30-33-20-7-41-7zm91 96l15 29 14-29 29-14-29-15-14-29-15 29-29 15 29 14zm46 91q-5 0-8.5 4t-3.5 9q0 5 3.5 8.5t8.5 3.5q5 0 9-3.5t4-8.5q0-5-4-9t-9-4zm-75-50q-5 0-8.5 4t-3.5 9q0 5 3.5 8.5t9 3.5q5.5 0 9-3.5t3.5-8.5q0-5-3.5-9t-9.5-4z"/></svg>