<svg viewBox="0 0 300.0098 311" xmlns="http://www.w3.org/2000/svg"><path d="M37 39q0-13 9.5-22T69 8q13 0 22 9t9 22q0 13-9 22.5t-22 9Q56 70 46.5 61T37 39zm246 166l-45 29v74h-25v-88l19-12-15-80-17 28v64H100v-63l-17-29-15 79 19 13v88H62v-74l-45-29q-9-6-14-17t-2-22l11-53q2-13 12.5-21.5T48 83h16q10 0 19 5t14 13l11 19h84l12-19q5-8 13.5-13t18.5-5h16q13 0 23.5 8.5T289 113l11 53q2 11-2.5 22T283 205zM45 193l16-85H48q-4 0-7.5 3t-4.5 7l-11 53q-1 4 1 7.5t5 5.5l14 9zm130-48h-50v50h50v-50zm100 26l-11-53q-1-4-4.5-7t-7.5-3h-13l16 85 15-9q3-2 4.5-5.5t.5-7.5zM232 70q13 0 22-9t9-22q0-13-9-22t-22-9q-13 0-22.5 9T200 39q0 13 9.5 22t22.5 9zM0 308h26l13-59-23-15-16 74zm261-59l13 59h26l-16-74-23 15z"/></svg>