<svg viewBox="0 0 300 311" xmlns="http://www.w3.org/2000/svg"><path d="M119 283H63q-6 0-9.5-3.5T50 270v-25h50v-25H50v-25h50v-25H50v-25h50v-25H50V83h175v26q12 1 25 6V83h25V45q0-15-11-26T237 8H38Q22 8 11 19T0 45v38h25v187q0 16 11 27t27 11h79q-14-11-23-25zM25 45q0-5 3.5-8.5T38 33h200q5 0 8.5 3.5T250 46v12H25V45zm188 88q-24 0-44 12t-32 32q-12 20-12 43.5t12 43.5q12 20 32 32t43.5 12q23.5 0 43.5-12t32-32q12-20 12-43.5T288 177q-12-20-32-32t-44-12h1zm-63 87q0-16 8.5-30.5t23-23q14.5-8.5 32-8.5t33.5 10l-87 87q-10-16-10-35zm63 63q-19 0-35-10l87-87q10 16 10 33.5t-8.5 32q-8.5 14.5-23 23T212 283h1z"/></svg>