<svg viewBox="0 0 300 311" xmlns="http://www.w3.org/2000/svg"><path d="M25 308H0V8h25v300zM300 27q0-8-5.5-13.5T281 8q-8 0-13 5.5T263 27q0 8 5 13t13 5q8 0 13.5-5t5.5-13zm-62 0q0-8-5.5-13.5T219 8q-8 0-13.5 5.5T200 27q0 8 5.5 13t13.5 5q8 0 13.5-5t5.5-13zm0 262q0-8-5.5-13.5T219 270q-8 0-13.5 5.5T200 289q0 8 5.5 13.5T219 308q8 0 13.5-5.5T238 289zM100 27q0-8-5.5-13.5T81 8q-8 0-13 5.5T63 27q0 8 5 13t13 5q8 0 13.5-5t5.5-13zm0 262q0-8-5.5-13.5T81 270q-8 0-13 5.5T63 289q0 8 5 13.5t13 5.5q8 0 13.5-5.5T100 289zm200 0q0-8-5.5-13.5T281 270q-8 0-13 5.5t-5 13.5q0 8 5 13.5t13 5.5q8 0 13.5-5.5T300 289zm0-62q0-8-5.5-13.5T281 208q-8 0-13 5.5t-5 13.5q0 8 5 13t13 5q8 0 13.5-5t5.5-13zm0-69q0-8-5.5-13.5T281 139q-8 0-13 5.5t-5 13.5q0 8 5 13.5t13 5.5q8 0 13.5-5.5T300 158zm0-69q0-8-5.5-13.5T281 70q-8 0-13 5.5T263 89q0 8 5 13.5t13 5.5q8 0 13.5-5.5T300 89zM169 27q0-8-5.5-13.5T150 8q-8 0-13.5 5.5T131 27q0 8 5.5 13t13.5 5q8 0 13.5-5t5.5-13zm0 262q0-8-5.5-13.5T150 270q-8 0-13.5 5.5T131 289q0 8 5.5 13.5T150 308q8 0 13.5-5.5T169 289zm0-62q0-8-5.5-13.5T150 208q-8 0-13.5 5.5T131 227q0 8 5.5 13t13.5 5q8 0 13.5-5t5.5-13zm0-69q0-8-5.5-13.5T150 139q-8 0-13.5 5.5T131 158q0 8 5.5 13.5T150 177q8 0 13.5-5.5T169 158zm0-69q0-8-5.5-13.5T150 70q-8 0-13.5 5.5T131 89q0 8 5.5 13.5T150 108q8 0 13.5-5.5T169 89zm-88 88q8 0 13.5-5.5T100 158q0-8-5.5-13.5T81 139q-8 0-13 5.5T63 158q0 8 5 13.5t13 5.5zm138 0q8 0 13.5-5.5T238 158q0-8-5.5-13.5T219 139q-8 0-13.5 5.5T200 158q0 8 5.5 13.5T219 177z"/></svg>