<svg viewBox="0 0 300 311" xmlns="http://www.w3.org/2000/svg"><path d="M6 120h75v25H6v-25zm0 75h75v-25H6v25zm107-50h75v-25h-75v25zm0 50h75v-25h-75v25zm106-50h75v-25h-75v25zm0 50h75v-25h-75v25zM6 245h75v-25H6v25zm107 0h75v-25h-75v25zm106 0h75v-25h-75v25zM6 295h75v-25H6v25zm107 0h75v-25h-75v25zm106 0h75v-25h-75v25zM194 52q0 18-13 30.5T150 95q-18 0-31-12.5T106 52q0-18 13-31t31-13q18 0 31 13t13 31zm-25 0q0-8-5.5-13.5T150 33q-8 0-13.5 5.5T131 52q0 8 5.5 13t13.5 5.5q8 .5 13.5-5T169 52zm-81 0q0 18-13 30.5T44 95q-18 0-31-12.5T0 52q0-18 13-31T44 8q18 0 31 13t13 31zm-25 0q-1-8-6-13.5T44 33q-8 0-13.5 5.5T25 52q0 8 5.5 13T44 70q8 0 13.5-5T63 52zm150 0q0-18 12.5-31T256 8q18 0 31 13t13 31q0 18-13 30.5T256 95q-18 0-30.5-12.5T213 52zm25 0q-1 8 4.5 13t13.5 5q8 0 13.5-5t5.5-13q0-8-5.5-13.5T256 33q-8 0-13 5.5T238 52z"/></svg>