<svg viewBox="0 0 300 311" xmlns="http://www.w3.org/2000/svg"><path d="M263 270v38h-25v-38q0-15-11-26t-27-11h-62v75h-25v-75h-13q-16 0-27 11t-11 26v38H38v-38q-1-16 7.5-30.5t23-23Q83 208 100 208h100q17 0 31.5 8.5t23 23Q263 254 262 270h1zm-82-12q-8 0-13.5 5.5t-5 13.5q.5 8 5.5 13t13 5q8 0 13.5-5t5.5-13q0-8-5.5-13.5T181 258zM50 45q0-15 11-26T88 8q12 0 26 7 19-7 36-7t36 7q14-7 27-7 15 0 26 11t11 27q0 12-7 21.5T225 81v39q0 21-10 38t-27.5 27Q170 195 150 195t-37.5-10Q95 175 85 158t-10-37V81q-11-4-18-13.5T50 45zm150 63H100v12q0 11 4.5 20.5T116 158q17 14 39 12 19-2 32-17t13-35v-10zM75 45q0 6 3.5 9.5T88 58h5l3 4q3 2 3.5 5t.5 16h100q0-13 .5-16t3.5-5l3-4h6q5 0 8.5-3.5t3.5-9q0-5.5-3.5-9t-8-3.5q-4.5 0-9.5 1.5T194 39l-6 4-6-3q-4-2-10-3-12-4-22-4t-22 4q-7 2-10 3l-6 3-6-4q-5-3-10-4.5T86.5 33q-4.5 0-8 3.5T75 46v-1z"/></svg>