<svg viewBox="0 0 300 311" xmlns="http://www.w3.org/2000/svg"><path d="M300 45q0-15-11-26T262 8H38Q22 8 11 19T0 46v37q0 14 10 25-10 11-10 25v37q0 15 10 26-10 10-10 25v74h300v-75q0-14-10-25 10-10 10-25v-37q0-14-10-25 10-11 10-25V45zM25 45q0-5 3.5-8.5T37 33h26v25h25V33h25v25h25V33h125q5 0 8.5 3.5T275 45v38q0 5-3.5 8.5T263 96H38q-6-1-9.5-4.5T25 83V45zm250 88v37q0 6-3.5 9.5T263 183H38q-6 0-9.5-3.5T25 170v-37q0-5 3.5-9t8.5-4h26v25h25v-25h25v25h25v-25h125q5 0 8.5 4t3.5 9zm0 137H25v-50q0-5 3.5-8.5T37 208h26v25h25v-25h25v25h25v-25h125q5 0 8.5 3.5t3.5 9.5v49z"/></svg>