<svg viewBox="0 0 300 311" xmlns="http://www.w3.org/2000/svg"><path d="M288 70q0-15-11-26t-27-11h-2q-4-11-14-18t-22-7H88q-12 0-22 7T52 33h-2q-16 0-26.5 11T12 71v37h14l25 200h198l25-200h14V70zM38 70q0-5 3.5-8.5T50 58h25V45q0-5 3.5-8.5T88 33h125q5 0 8.5 3.5T225 45v13h25q5 0 9 3.5t4 8.5v13H38V70zm36 213l-10-75h37q4 24 18 37t31 13q17 0 31-13t18-37h37l-10 75H74zm51-88q0-17 7.5-27t17.5-10q10 0 17.5 10t7.5 27.5q0 17.5-7.5 27.5T150 233q-10 0-17.5-10t-7.5-28zm114-12h-40q-4-24-18-37t-31-13q-17 0-31 13t-18 37H61l-9-75h196l-9 75z"/></svg>