<svg viewBox="0 0 300 311" xmlns="http://www.w3.org/2000/svg"><path d="M63 295q-17 0-31.5-8t-23-22.5Q0 250 0 233t8.5-31.5Q17 187 31.5 179t31-8.5q16.5-.5 31 8t23 23Q125 216 125 233t-8.5 31.5Q108 279 93.5 287T63 295zm0-100q-16 0-27 11t-11 27q0 16 11 27t26.5 10.5q15.5-.5 26.5-11t11-26.5q0-16-11-27t-26-11zm175 100q-17 0-31.5-8t-23-22.5Q175 250 175 233t8.5-31.5q8.5-14.5 23-22.5t31-8.5q16.5-.5 31 8t23 23Q300 216 300 233t-8.5 31.5q-8.5 14.5-23 22.5t-30.5 8zm0-100q-16 0-27 11t-11 27q0 16 11 27t26.5 10.5q15.5-.5 26.5-11t11-26.5q0-16-11-27t-27-11h1zm-75-18l-33-28q-5-4-5-9t4-9l24-20q4-3 9-3t9 4l36 33h43v-25h-33l-29-26q-10-11-25-11.5T137 92l-25 20q-12 11-12 28t13 28l25 21v56h25v-68zm43-157q-13 0-22 9.5T175 52q0 13 9 22t22 9q13 0 22.5-9t9.5-22q0-13-9.5-22.5T206 20z"/></svg>