<svg viewBox="0 0 300 311" xmlns="http://www.w3.org/2000/svg"><path d="M263 8H38Q22 8 11 19T0 46v262h230l70-70V45q0-15-11-26T262 8h1zm-38 270v-45h45l-45 45zm50-70h-75v75H25V45q0-5 3.5-8.5T37 33h226q5 0 8.5 3.5T275 45v163zM137 70h-24v76h15v-26h9q10 0 17.5-7t7.5-17.5q0-10.5-7.5-18T137 70zm0 34h-9V86h9q4 0 6.5 2.5T146 95q0 4-2.5 6.5T137 104zm54-9v26q0 4 2.5 7t6.5 3q4 0 6.5-3t2.5-6v-2h-9v-12h25v14q0 10-7.5 17t-17.5 7q-10 0-17.5-7t-7.5-17V95q0-10 7.5-17.5T200 70q10 1 17.5 8t7.5 18h-16q0-4-2.5-7t-6.5-3q-4 0-6.5 3t-2.5 6zM84 70h16v52q0 10-7.5 17T75 146q-10 0-17.5-7T50 122v-2h16v2q0 3 2.5 6t6.5 3q4 0 6.5-3t2.5-7V70z"/></svg>