<svg viewBox="0 0 300 311" xmlns="http://www.w3.org/2000/svg"><path d="M175 158q0 10-7.5 17.5T150 183q-10 0-17.5-7.5T125 158q0-10 7.5-17.5T150 133q10 0 17.5 7.5T175 158zm81-106l-17 17q23 24 31.5 56.5t0 64.5q-8.5 32-31.5 56l17 18q29-29 39-67.5t0-77Q285 81 256 52zm-62 62q19 18 19 44t-19 44l18 18q12-13 19-28.5t7-33.5q0-18-7-33.5T212 96l-18 18zM44 52Q15 81 5 119.5t0 77Q15 235 44 264l18-18q-24-23-32.5-55.5t0-64.5Q38 94 62 70L44 52zm44 44q-17 17-22.5 39.5t0 45Q71 203 88 220l18-18q-12-12-16.5-28t0-32q4.5-16 16.5-28L88 96z"/></svg>