<svg viewBox="0 0 300 311" xmlns="http://www.w3.org/2000/svg"><path d="M150 8q-41 0-75.5 20T20 82.5Q0 117 0 158t20 75.5Q40 268 74.5 288t75.5 20q41 0 75.5-20t54.5-54.5q20-34.5 20-75.5t-20-75.5Q260 48 225.5 28T150 8zm0 187q-35 0-66-6-27-6-43-14.5T25 158q0-8 16-16.5T84 127q31-7 66-6.5t66 6.5q27 6 43 14.5t16 16.5q0 8-16 16.5T216 189q-31 6-66 6zm0-162q40 0 73 23.5t45 61.5q-56-24-118-23-62-1-118 23 12-38 45-61.5T150 33zm0 250q-40 0-73-23.5T32 198q56 24 118 23 62 1 118-23-12 38-45 61.5T150 283z"/></svg>