<svg viewBox="0 0 300 311" xmlns="http://www.w3.org/2000/svg"><path d="M263 308h-63v-25h63q5 0 8.5-3.5t3.5-9.5v-62h25v62q0 16-11 27t-27 11h1zM25 108H0V45q0-15 11-26T38 8h62v25H38q-6 0-9.5 3.5T25 45v63zm75 200H38q-16 0-27-11T0 271v-63h25v62q0 6 3.5 9.5T38 283h62v25zm200-200h-25V45q0-5-3.5-8.5T263 33h-63V8h63q15 0 26 11t11 27v62zm-150 37q-21 0-35.5-14.5t-14.5-35q0-20.5 14.5-35t35.5-15q21-.5 35.5 14.5T200 95.5q0 20.5-14.5 35T150 145zm0-75q-10 0-17.5 7.5t-7.5 18q0 10.5 7.5 17.5t17.5 7q10 0 17.5-7t7.5-17.5q0-10.5-7.5-17.5T150 71v-1zm88 188h-25v-50q0-5-4-8.5t-9-3.5H100q-5 0-8.5 3.5T88 208v50H63v-50q0-16 10.5-27t26.5-11h100q16 0 27 11t11 27v50z"/></svg>