<svg viewBox="0 0 300 311" xmlns="http://www.w3.org/2000/svg"><path d="M263 308h-63v-25h63q5 0 8.5-3.5t3.5-9.5v-62h25v62q0 16-11 27t-27 11h1zM25 108H0V45q0-15 11-26T38 8h62v25H38q-6 0-9.5 3.5T25 45v63zm75 200H38q-16 0-27-11T0 271v-63h25v62q0 6 3.5 9.5T38 283h62v25zm200-200h-25V45q0-5-3.5-8.5T263 33h-63V8h63q15 0 26 11t11 27v62zm-71 146L121 147q-3-4-8.5-4t-8.5 4l-45 45-18-18 45-45q11-11 26.5-11t26.5 11l107 108-17 17zm-29-121q-16 0-27-11t-10.5-26.5q.5-15.5 11-26.5T200 58q16 0 27 11t10.5 26.5q-.5 15.5-11 26.5T200 133zm0-50q-5 0-9 3.5t-3.5 9q.5 5.5 4 9t8.5 3.5q5 0 9-3.5t4-9q0-5.5-4-9t-9-3.5z"/></svg>