<svg viewBox="0 0 300 311" xmlns="http://www.w3.org/2000/svg"><path d="M275 225V91q11-5 18-15.5t7-23.5q0-18-13-31T256 8q-13 0-23.5 7T217 33H83q-5-11-15.5-18T44 8Q26 8 13 21T0 52q0 13 7 23.5T25 91v134q-11 5-18 15.5T0 264q0 18 13 31t31 13q13 0 23.5-7T83 283h134q5 11 15.5 18t23.5 7q18 0 31-13t13-31q0-13-7-23.5T275 225zM256 33q8 0 13.5 5.5T275 52q0 8-5.5 13T256 70q-8 0-13-5t-5-13q0-8 5-13.5t13-5.5zM44 33q8 0 13.5 5.5t5 13.5Q62 60 57 65.5t-13 5Q36 70 30.5 65T25 52q0-8 5.5-13.5T44 33zm0 250q-8 0-13.5-5.5T25 264q0-8 5.5-13.5T44 245q8 0 13.5 5.5T63 264q0 8-5.5 13.5T44 283zm169-25H87q-2-14-12.5-24.5T50 221V95q14-2 24.5-12.5T87 58h126q2 14 12.5 24.5T250 95v126q-14 2-24.5 12.5T213 258zm43 25q-8 0-13-5.5t-5-13.5q0-8 5-13.5t13-5q8 .5 13.5 5.5t5.5 13q0 8-5.5 13.5T256 283z"/></svg>