<svg viewBox="0 0 300 311" xmlns="http://www.w3.org/2000/svg"><path d="M150 8q-41 0-75.5 20T20 82.5Q0 117 0 158t20 75.5Q40 268 74.5 288t75.5 20q41 0 75.5-20t54.5-54.5q20-34.5 20-75.5t-20-75.5Q260 48 225.5 28T150 8zm0 275q-34 0-62.5-17T42 220.5Q25 192 25 158t17-62.5Q59 67 87.5 50T150 33q34 0 62.5 17T258 95.5q17 28.5 17 62.5t-17 62.5Q241 249 212.5 266T150 283zm38-188q-1-10-8-17.5T163 70h-25q-11 1-18.5 8T112 95v13H75v25h13v75q0 16 10.5 27t26.5 11h50q16 0 26.5-11t10.5-27v-75h13v-25h-37V95zm-50 0h25v13h-25V95zm50 113q0 5-4 8.5t-9 3.5h-50q-5 0-8.5-3.5T113 208v-75h75v75z"/></svg>