<svg viewBox="0 0 300 311" xmlns="http://www.w3.org/2000/svg"><path d="M150 304q-9 0-17-7l-46-39H0V45q0-15 11-26T38 8h225q15 0 26 11t11 26v213h-86l-48 40q-7 6-16 6zM25 233h71l54 45 55-45h70V45q0-5-3.5-8.5T263 33H38q-6 0-9.5 3.5T25 45v188zm196-66l-17-18-7 5q-10 7-20 11-14 6-27 6t-27-6q-10-4-20-10-7-5-7-6l-17 18q8 8 22 15 25 13 49 13.5t48-12.5q13-7 23-15v-1zM106 83q-8 0-13 5.5T88 102q0 8 5 13t13 5q8 0 13.5-5t5.5-13q0-8-5.5-13.5T106 83zm88 0q-8 0-13.5 5.5T175 102q0 8 5.5 13t13.5 5q8 0 13.5-5t5.5-13q0-8-5.5-13.5T194 83z"/></svg>