<svg viewBox="0 0 300 311" xmlns="http://www.w3.org/2000/svg"><path d="M150 33q-41 0-75.5 11T20 73.5Q0 92 0 114v88q0 22 20 40.5T74.5 272q34.5 11 75.5 11t75.5-11q34.5-11 54.5-29.5t20-40.5v-88q0-22-20-40.5T225.5 44Q191 33 150 33zm0 25q35 0 65 9 28 8 44 21t16 26.5q0 13.5-16 26.5t-44 21q-30 9-65 8.5T85 162q-28-8-44-21t-16-26.5Q25 101 41 88t44-21q30-9 65-9zM88 188v62q-14-4-25-9v-60q11 4 25 7zm25 5q12 2 24 2v63q-12-1-24-3v-62zm50 2q12 0 25-2v62q-13 2-26 3v-63h1zm50-7q13-3 25-7v60q-12 5-25 9v-62zM25 202v-42q5 4 13 8v57q-13-12-13-23zm238 23v-57q7-4 12-8v42q0 11-12 23z"/></svg>