<svg viewBox="0 0 300 311" xmlns="http://www.w3.org/2000/svg"><path d="M219 133q0-21-15-35.5T169 83h-44q-13 0-22 9t-9 22v119h25v-50h35l30 50h29l-31-52q16-4 26.5-17.5T219 133zm-50 25h-50v-44q0-2 1.5-4t4.5-2h44q10 0 17.5 7.5T194 133q0 10-7.5 17.5T169 158zM150 8q-41 0-75.5 20T20 82.5Q0 117 0 158t20 75.5Q40 268 74.5 288t75.5 20q41 0 75.5-20t54.5-54.5q20-34.5 20-75.5t-20-75.5Q260 48 225.5 28T150 8zm0 275q-34 0-62.5-17T42 220.5Q25 192 25 158t17-62.5Q59 67 87.5 50T150 33q34 0 62.5 17T258 95.5q17 28.5 17 62.5t-17 62.5Q241 249 212.5 266T150 283z"/></svg>