<svg viewBox="0 0 300 311" xmlns="http://www.w3.org/2000/svg"><path d="M175 27q0-8 5.5-13.5T194 8q8 0 13.5 5.5T213 27q0 8-5.5 13T194 45q-8 0-13.5-5T175 27zm106 43q-8 1-13 6t-5 13q0 8 5 13.5t13 5.5q8 0 13.5-5.5T300 89q0-8-5.5-13T281 70zm-58 38L281 8h-29l-58 100h29zm65 56v100q0 13-10 23t-27 15.5q-17 5.5-37.5 5.5t-37-5q-16.5-5-26.5-14-11 9-29.5 14T81 308q-32 0-56-11-25-12-25-33V64q0-20 25-32 24-12 56.5-12T137 32q26 12 26 32v67q20-11 50-10 21-1 38 5t26.5 16q9.5 10 10.5 22zM25 64q0 3 7 7.5T50 79q14 4 31 4t31-4q12-3 19-7.5t7-7.5q0-3-7-7.5T112 49q-14-4-31-4t-31 4q-11 3-18 7.5T25 64zm0 50q0 3 7 7.5t18 7.5q14 4 31 4t31-4q12-3 19-7.5t7-7.5V97q-24 11-57 11T25 97v17zm0 50q0 3 7 7.5t18 7.5q14 4 31 4t31-4q12-3 19-7.5t7-7.5v-17q-24 11-57 11t-56-11v17zm0 50q0 3 7 7.5t18 7.5q14 4 31 4t31-4q12-3 19-7.5t7-7.5v-17q-24 11-57 11t-56-11v17zm113 50v-17q-24 11-57 11t-56-11v17q0 3 7 7.5t18 7.5q14 4 31 4t31-4q12-3 19-7.5t7-7.5zm125 0v-17q-21 11-50.5 11T162 247v17q1 4 7 8.5t17.5 7.5q11.5 3 26 3t26-3q11.5-3 18-7.5t6.5-8.5zm0-50v-17q-21 11-50.5 11T162 197v17q1 4 7 8.5t17.5 7.5q11.5 3 26 3t26-3q11.5-3 18-7.5t6.5-8.5zm0-50q0-3-6.5-7.5t-18-8q-11.5-3.5-26-3.5t-26 3.5q-11.5 3.5-18 8t-6.5 8q0 3.5 6.5 8t18 7.5q11.5 3 26 3t26-3q11.5-3 18-7.5t6.5-8.5z"/></svg>