<svg viewBox="0 0 300.0016 311" xmlns="http://www.w3.org/2000/svg"><path d="M75 245q0 6-3.5 9.5t-9 3.5q-5.5 0-9-3.5t-3.5-9q0-5.5 3.5-9t9-3.5q5.5 0 9 3.5T75 246v-1zM300 95q1 11-6 18.5t-18 6.5h-64q0 22-2 38h40v12q0 19-3 38-2 11-11 18t-20 7h-23q-19 41-61 58T13 308H0v-13q0-46 6-79t19-56v-47q0-10 5.5-19T45 80q44-22 93-22h12v40q16-2 37-2V32q2-15 12-20.5t24-2Q237 13 248 23t13 24q17 4 28 17.5T300 95zM50 113v17q33-25 75-30V83q-36 3-68 19-7 4-7 11zM25 283q43 0 85-11-7-27-27-47t-47-27q-11 42-11 85zm162-162q-59 1-92.5 13T45 175q32 9 55.5 32.5T133 263q29-16 41-49.5t13-92.5zm21 62q-3 13-6 25h14q2 0 4-1.5t2-3.5q2-10 3-20h-17zm67-88q0-10-7.5-17T250 70h-12V58q-1-10-8-17.5T213 33v62h62z"/></svg>