<svg viewBox="0 0 300 311" xmlns="http://www.w3.org/2000/svg"><path d="M138 58H38q-16 0-27 11T0 95v213h250V170H138V58zM25 95q0-5 3.5-8.5T37 83h76v87H84q4-11 4-18.5t-5.5-13Q77 133 69 133t-13.5 5.5q-5.5 5.5-5.5 13t4 19.5H25V95zm88 188H25v-88h88v29q-12-4-19.5-4t-13 5.5Q75 231 75 239t5.5 13.5q5.5 5.5 13 5.5t19.5-4v29zm53-88q-4 12-3.5 19.5t5.5 13q5 5.5 13 5.5t13.5-5.5q5.5-5.5 5.5-13t-4-19.5h29v88h-87v-88h28zm134-75h-41q4 12 3.5 19.5t-5.5 13q-5 5.5-13 5.5t-13.5-5.5q-5.5-5.5-5.5-13t4-19.5h-41V79q11 4 18.5 4t13-5.5Q225 72 225 64t-5.5-13.5q-5.5-5.5-13-5.5T187 49V8h76q15 0 26 11t11 27v74z"/></svg>