<svg viewBox="0 0 300 311" xmlns="http://www.w3.org/2000/svg"><path d="M125 245h25v63h-25v-63zm-32-86q-13-6-19.5-18.5t-4-26.5Q72 100 82 90t24-12.5q14-2.5 26.5 4T151 101l6 8 59-34-12-22-40 23q-3-4-7-8l23-38-22-13-22 39q-6-2-11-3V8h-25v45q-5 1-10 3L67 17 45 30l23 38-8 8-38-23L9 75l39 22q-2 6-3 11H0v25h45q1 5 3 11L9 166l13 22 38-23q7 7 15 13 7-7 16-12l2-7zm82 149h25v-63h-25v63zm50 0h25v-63h-25v63zm18-150q-10-21-31-31t-44-5.5q-23 4.5-38 22T113 184q-15 4-25 15.5T76 226q-2 15 4.5 28.5T100 276v-43q0-11 7.5-18t18.5-7h14l-2-19q0-16 10-28t26-15q16-3 30 5.5t19 23.5l3 8h12q15 0 26 11t11 26v51q16-12 22-30.5t1-37q-5-18.5-20.5-31T243 158z"/></svg>