<svg viewBox="0 0 300 311" xmlns="http://www.w3.org/2000/svg"><path d="M270 261q12-12 20-26 10-18 10-35 0-26-21-51-10-13-22-22l-7-5-7 5q-12 9-22 22-21 25-21 51 0 17 10 35 8 14 20 26-14 16-16 33l-1 14 37-12 38 12-2-14q-2-17-16-33zm-20-107q10 9 16 19 9 14 9 26.5t-9 27.5q-6 9-16 19-10-10-16-19-9-15-9-27.5t9-26.5q6-10 16-19zm-187 4q-11 0-21 6 12-53 51-85 51-43 144-46v75h26V8h-13q-88 0-145 33-46 26-70 72-17 33-21 73-7 3-10.5 9T0 208v75q0 10 7.5 17.5T25 308q10 0 17.5-7.5T50 283v-52q6 2 12 2 16 0 27-11t11-26.5q0-15.5-11-26.5t-26-11zm0 50q-6 0-9.5-3.5t-3.5-9q0-5.5 3.5-9t9-3.5q5.5 0 9 3.5t3.5 9q0 5.5-3.5 9T63 208z"/></svg>