<svg viewBox="0 0 300 311" xmlns="http://www.w3.org/2000/svg"><path d="M119 39q0-13 9-22t22-9q13 0 22 9t9 22q0 13-9 22.5t-22 9q-13-.5-22-9.5t-9-22zm144 6q-16 0-27 11t-11 27v65q-5-2-10-2-16-1-28 9l-37 35-38-35q-11-10-27-9-5 0-10 2V83q0-16-11-27T37.5 45Q22 45 11 56T0 83v153q0 14 10 25l42 47h34l-58-64q-3-3-3-8V83q0-5 3.5-9t9-4q5.5 0 9 4t3.5 9v100q0 14 9 25l33 34 18-18-32-33q-3-4-3-8.5t3.5-8q3.5-3.5 8.5-4t9 3.5l50 46q4 4 4 9v79h25v-79q0-12-7-22l36-33q4-4 9.5-3.5t8 3.5q2.5 3 3.5 6v3q0 4-2 7l-32 33 18 18 32-34q9-10 9-24V83q0-5 3.5-9t9-4q5.5 0 9 4t3.5 9v153q0 5-3 8l-58 64h34l42-47q10-11 10-25V83q0-16-11-27t-27-10l1-1zm-138 69q0-2 2-4t4-2h38q2 0 4 2t2 4v19q11-8 25-11v-8q0-13-9-22t-22-9h-38q-13 0-22 9t-9 22v8q14 3 25 11v-19z"/></svg>