<svg viewBox="0 0 300 311" xmlns="http://www.w3.org/2000/svg"><path d="M150 8q-41 0-75.5 20T20 82.5Q0 117 0 158t20 75.5Q40 268 74.5 288t75.5 20q41 0 75.5-20t54.5-54.5q20-34.5 20-75.5t-20-75.5Q260 48 225.5 28T150 8zm0 275q-34 0-62.5-17T42 220.5Q25 192 25 158t17-62.5Q59 67 87.5 50T150 33q34 0 62.5 17T258 95.5q17 28.5 17 62.5t-17 62.5Q241 249 212.5 266T150 283zM73 122l-21-13q17-28 49-41l10 23q-25 10-38 31zm116-31l10-23q31 13 48 39l-21 14q-13-20-37-30zm-93 79q-21-1-35-15l18-18q7 8 19 8.5t21-8.5l18 17q-16 16-38 16h-3zm126-33l18 17q-7 8-17.5 12t-20.5 4q-22 0-38-16l18-18q10 11 23 9 10-1 17-8zm-18 62l17 18q-9 8-22 15-25 13-49 13t-49-13q-13-7-22-15l17-18q7 5 16 11 20 11 38 10.5t38-10.5q9-6 16-11z"/></svg>