<svg viewBox="0 0 300 311" xmlns="http://www.w3.org/2000/svg"><path d="M138 177q0-8 5-13.5t13-5.5q8 0 13.5 5.5T175 177q0 8-5.5 13t-13.5 5q-8 0-13-5t-5-13zm18 81q8 0 13.5-5.5T175 239q0-8-5.5-13.5T156 220q-8 0-13 5.5t-5 13.5q0 8 5 13.5t13 5.5zm63-63q8 0 13.5-5t5.5-13q0-8-5.5-13.5T219 158q-8 0-13.5 5.5T200 177q0 8 5.5 13t13.5 5zm0 63q8 0 13.5-5.5T238 239q0-8-5.5-13.5T219 220q-8 0-13.5 5.5T200 239q0 8 5.5 13.5T219 258zm81-199v249H0V95q0-15 11-26t27-11h25q15 0 26 11t11 26v13h25V45q0-15 11-26t27-11h86l51 51zM75 95q0-5-3.5-8.5T63 83H38q-6 0-9.5 3.5T25 95v188h50V95zm200 38H100v150h175V133zm0-25V70h-37V33h-75q-6 0-9.5 3.5T150 45v63h125z"/></svg>