<svg viewBox="0 0 300 311" xmlns="http://www.w3.org/2000/svg"><path d="M300 308H0V45q0-15 11-26T38 8h225q15 0 26 11t11 26v263zM25 283h250V45q0-5-3.5-8.5T263 33H38q-6 0-9.5 3.5T25 45v238zm125-25q-27 0-50-13.5T63.5 208Q50 185 50 158t13.5-50Q77 85 100 71.5T150 58q27 0 50 13.5t36.5 36.5q13.5 23 13.5 50t-13.5 50Q223 231 200 244.5T150 258zm0-175q-20 0-37.5 10T85 120.5Q75 138 75 158t10 37.5Q95 213 112.5 223t37.5 10q20 0 37.5-10t27.5-27.5q10-17.5 10-37.5t-10-37.5Q205 103 187.5 93T150 83zm0 94q8 0 13.5-5.5T169 158q0-8-5.5-13.5T150 139q-8 0-13.5 5.5T131 158q0 8 5.5 13.5T150 177z"/></svg>