<svg viewBox="0 0 300 311" xmlns="http://www.w3.org/2000/svg"><path d="M31 39q0-13 9.5-22t22-9q12.5 0 22 9T94 39q0 13-9.5 22.5t-22 9Q50 70 40.5 61T31 39zm269 181q0 24-12 44t-32 32q-20 12-43.5 12T169 296q-20-12-32-32t-12-43.5q0-23.5 12-43.5t32-32q20-12 43.5-12t43.5 12q20 12 32 32t12 43zm-25 0q0-16-8.5-30.5t-23-23q-14.5-8.5-31-8.5t-31 8.5q-14.5 8.5-23 23t-8.5 31q0 16.5 8.5 31t23 23q14.5 8.5 31 8.5t31-8.5q14.5-8.5 23-23T275 221v-1zm-75 13h25v-63h-25v63zm-75-83q-12 15-18.5 33t-6.5 38v87H75v-88H50v88H25v-88H0V120q0-15 11-26t27-11h50q15 0 26 11t11 26v30zm-25-30q0-5-3.5-8.5T87 108H38q-6 0-9.5 3.5T25 121v74h75v-75zm100 150h25v-25h-25v25z"/></svg>