<svg viewBox="0 0 300 311" xmlns="http://www.w3.org/2000/svg"><path d="M300 158q0 26-13 48.5t-35.5 36Q229 256 202.5 256t-49-13.5Q131 229 118 206.5T105 158h25q0 20 9.5 36.5T166 221q17 10 36.5 10t36-10q16.5-10 26.5-26.5t10-36.5q0-16-4-32l19-20q10 25 10 52zm-275 0q0-34 17-62.5T87.5 50Q116 33 150 33q16 0 32 4l20-19Q176 8 150 8q-41 0-75.5 20T20 82.5Q0 117 0 158q0 47 24 85.5T92 306l12-21q-38-21-58.5-54.5T25 158zm125-53l86-86q11-11 26.5-11T289 19q11 11 11 26.5T289 72l-86 86h-53v-53zm25 28h18l78-79q4-3 4-8.5t-3.5-9q-3.5-3.5-9-3.5t-8.5 4l-79 78v18z"/></svg>