<svg viewBox="0 0 300 311" xmlns="http://www.w3.org/2000/svg"><path d="M150 258q27 0 50-13.5t36.5-36.5q13.5-23 13.5-50v-50q0-27-13.5-50T200 21.5Q177 8 150 8t-50 13.5Q77 35 63.5 58T50 108v50q0 27 13.5 50t36.5 36.5q23 13.5 50 13.5zM75 120h50V95H76q5-27 26-44.5T150 33q27 0 48 17.5T224 95h-49v25h50v25h-50v25h49q-5 28-26 45.5T150 233q-27 0-48-17.5T76 171h49v-26H75v-25zm200 50q0 31-15 57t-41 41q-26 15-56 15h-25q-31 0-57-15t-41-41q-15-26-15-57H0q0 38 18.5 69.5t50 50Q100 308 137 308h26q37 0 68.5-18.5t50-50Q300 208 300 171l-25-1z"/></svg>