<svg viewBox="0 0 300 311" xmlns="http://www.w3.org/2000/svg"><path d="M150 8q-41 0-75.5 20T20 82.5Q0 117 0 158t20 75.5Q40 268 74.5 288t75.5 20q41 0 75.5-20t54.5-54.5q20-34.5 20-75.5t-20-75.5Q260 48 225.5 28T150 8zm0 275q-34 0-62.5-17T42 220.5Q25 192 25 158t17-62.5Q59 67 87.5 50T150 33q34 0 62.5 17T258 95.5q17 28.5 17 62.5t-17 62.5Q241 249 212.5 266T150 283zm63-100q0 13-8.5 27.5T182 235q-14 10-32 10t-33-10q-13-10-21-24.5T88 183h125zM88 145H63q-1-18 10-34t27-16q16 0 27 16t11 35h-25q0-10-5-17.5t-8-8q-3-.5-7.5 7.5T88 145zm150 0h-25q0-9-5-16.5t-8-8q-3-.5-8 7.5t-5 17h-24q0-18 10.5-33.5t26.5-16q16-.5 27 15.5t11 35v-1z"/></svg>