<svg viewBox="0 0 300 311" xmlns="http://www.w3.org/2000/svg"><path d="M127 199l10-10-18-18-10 10q-10-7-22-9v-14H63v14q-12 2-22 9l-10-10-18 18 10 10q-7 10-9 22H0v24h14q2 12 9 22l-10 10 18 18 10-10q10 7 22 9v14h25v-14q11-2 21-9l10 10 18-18-10-10q7-10 9-22h14v-25h-14q-2-11-9-21zm-52 71q-16 0-27-10.5T37.5 233q.5-16 11-27T75 195q16 0 27 11t11 27q0 16-11 26.5T75 270zm225-125q0-15-11-26t-27-11h-12V70h-25v38h-31l-51-82q-5-9-13.5-13.5T111 8H38v100q-16 0-27 11T0 146v21q11-12 25-21v-1q0-5 3.5-8.5T37 133h226q5 0 8.5 3.5t3.5 8.5v21l-24 33q-24-7-43 1-17 8-25.5 25t-6.5 35.5q2 18.5 16 31.5 14 14 39 16 17 0 31-9.5t20.5-25q6.5-15.5 3.5-32T272 213l28-38v-30zM63 33h48q7 0 11 6l43 69H63V33zm168 250q-13 0-22-9t-9-22q0-13 9-22.5t22-9.5q13 0 22 9.5t9 22.5q0 13-9 22t-22 9z"/></svg>