<svg viewBox="0 0 300 311" xmlns="http://www.w3.org/2000/svg"><path d="M188 108h-75V89q-1-8 4.5-13.5T131 70h38q8 0 13.5 5.5T188 89v19zm-38-50q10 0 17.5-7.5T175 33q0-10-7.5-17.5T150 8q-10 0-17.5 7.5T125 33q0 10 7.5 17.5T150 58zm131 87h-37q-8 0-13.5 5.5T225 164v19h75v-19q0-8-5.5-13.5T281 145zm-18-12q10 0 17.5-7.5T288 108q0-10-7.5-17.5t-18-7.5Q252 83 245 90.5t-7 17.5q0 10 7 17.5t18 7.5zm-188 6q0-8-5.5-13.5T56 120H19q-8 0-13.5 5.5T0 139v19h75v-19zm-37-31q10 0 17.5-7.5T63 83q0-10-7.5-17.5t-18-7.5Q27 58 20 65.5T13 83q0 10 7 17.5t18 7.5zm262 144v56H0v-94q0-13 9-22t22-9h50q3 0 6 1v-20q0-13 9.5-22t22.5-9h62q13 0 22 9t9 22v57q4-1 7-1h50q13 1 22 10t9 22zm-187 31h75V164q-1-2-2.5-4t-4.5-2h-62q-3 0-4.5 2t-1.5 4v119zm-88 0h63v-69q0-2-2-4t-5-2H31q-2 0-4 2t-2 4v69zm250-31q0-3-2-4.5t-4-1.5h-50q-3 0-4.5 1.5T213 252v31h62v-31z"/></svg>