<svg viewBox="0 0 300.0029 311" xmlns="http://www.w3.org/2000/svg"><path d="M266 42q-22-21-51-29.5t-58-3Q128 15 104 34 93 18 74.5 11.5t-37.5 0Q18 18 8 35T.5 71.5q2.5 19.5 17 33T52 120q-7 38 10 73 2 4-1 7l-45 35Q1 246 0 265q-1 16 11 27l5 5q11 11 27.5 11T71 294l37-47q3-3 7-1 37 17 77.5 9.5T261 219q18-18 28-41t11-48q1-25-8-47.5T266 42zM25 64q0-13 9-22t22-9q13 0 22.5 9T88 64q0 13-9.5 22.5T56 96q-13 0-22-9.5T25 64zm101 159q-10-4-20.5-2T88 232l-37 47q-3 4-8.5 4t-8.5-4l-6-5q-3-3-3-8 1-7 7-12l45-35q8-7 10-17.5T85 182q-13-26-9-55l105 105q-29 4-55-9zm117-22q-15 15-34 23L92 107q10-8 15-19t6-24l-1-4q19-18 43.5-24t49 0Q229 42 248 60q14 14 21 32t6 38q-1 20-9 38.5T243 201z"/></svg>