<svg viewBox="0 0 300 311" xmlns="http://www.w3.org/2000/svg"><path d="M100 170H0v-25h100v25zm161-23q13-16 14-36.5T264 73q-12-17-31-24t-39-1q-20 6-32 22.5T150 108v12h25v-12q0-16 11-27t26.5-10.5q15.5.5 26.5 11t11 26.5q0 16-11 27t-27 10h-87v25h125q10 0 17.5 7.5t7.5 18q0 10.5-7.5 17.5t-17.5 7q-10 0-17.5-7t-7.5-18h-25q0 20 13.5 34.5t33 16Q266 247 281 235t18-31.5q3-19.5-7.5-36T261 147zm-123 61H0v25h138q10 0 17 7.5t7.5 17.5q.5 10-7 17.5t-18 7.5q-10.5 0-17.5-7.5t-7-17.5H88q0 21 14.5 35.5t35 14.5q20.5 0 35.5-14.5t15-35.5q0-21-15-35.5T138 208zm0-150q0-21-15-35.5T87.5 8Q67 8 52.5 22.5T37 58h26q0-10 7-17.5T87.5 33q10.5 0 18 7.5T113 58q0 10-7.5 17.5T87 83H0v25h88q20 0 35-14.5T137 58h1z"/></svg>