<svg viewBox="0 0 300 311" xmlns="http://www.w3.org/2000/svg"><path d="M255 71q-4-11-13.5-18T219 46h-10l-4-12q-4-12-13.5-19T169 8h-38q-13 0-22.5 7T95 34l-4 11H81q-13 1-22.5 8T45 71l-16 49H0v25h20l-7 22h1q-7 5-10.5 12.5T0 195v63h25v50h75v-50h100v50h75v-50h25v-63q0-8-3.5-15.5T286 167h1l-7-22h20v-25h-28l-17-49zM119 42q1-4 4-6.5t8-2.5h38q5 0 8 2.5t4 6.5l2 3h-66l2-3zM69 79q1-4 4-6.5t8-2.5h138q5 0 8 2.5t4 6.5l27 79H42l27-79zm6 204H50v-25h25v25zm175 0h-25v-25h25v25zm25-50H25v-38q0-5 3.5-8.5T37 183h13v12q0 6 3.5 9.5T63 208q5 0 8.5-3.5T75 195v-12h150v12q0 6 3.5 9.5t9.5 3.5q5 0 8.5-3.5t3.5-8.5v-13h13q5 0 8.5 3.5t3.5 9.5v37z"/></svg>