<svg viewBox="0 0 300 311" xmlns="http://www.w3.org/2000/svg"><path d="M238 145q-4 1-8 1l-8-23q10-1 19-2 3 6 9 9t13 3h12V83h-12q-7 0-13 3.5t-9 9.5q-13 1-26 3h-1l-17-54h-59v25h40l13 38q-8 5-15 12h-66q-4-11-13.5-17.5T75 96H25v24h50q8 1 11.5 7.5T85 141l-5 7q-15-4-29-1.5T25 158q-12 9-18.5 22T0 208q0 27 18 44 16 16 39.5 18T99 259q20-14 25-40 11-4 19-14l46-62q5-6 10-10l7 21q-18 11-26 30.5t-2.5 39.5q5.5 20 22 33t38.5 13q29 0 46-20 15-17 15-42t-15-42q-17-20-47-20l1-1zM63 245q-16 0-27-10.5T25 208q0-16 11-27t26-11l-7 10q-4 6-5 13t2.5 13.5Q56 213 62 217t13 4h23q-4 11-14 17.5T62 246l1-1zm60-55q-4 5-10 6H75l30-41q3-4 5-10h46l-33 45zm115 55q-12 0-22-7t-13.5-18q-3.5-11-.5-22.5t12-19.5l12 34q2 7 9 8.5t12-4q5-5.5 2-12.5l-11-34q16 1 26.5 12t10.5 26.5q0 15.5-11 26.5t-26 10z"/></svg>