<svg viewBox="0 0 300 311" xmlns="http://www.w3.org/2000/svg"><path d="M293 226l-47 47-18-18 35-35h-44q-13 1-22 10t-9 22v56h-25v-56q0-24 16-40t40-16h44l-35-35 18-18 47 47q7 8 7 18t-7 18zM25 83q0-20 10-37.5T62.5 18Q80 8 100 8t37.5 10Q155 28 165 45.5T175 83q0 20-10 37.5T137.5 148Q120 158 100 158t-37.5-10Q45 138 35 120.5T25 83zm25 0q0 21 14.5 35.5T100 133q21 0 35.5-14.5T150 83q0-21-14.5-35.5T100 33q-21 0-35.5 14.5T50 83zm94 100H56q-23 0-39.5 16.5T0 239v69h25v-69q0-13 9-22t22-9h88q3 0 6 1 7-12 18-20-12-6-24-6z"/></svg>