<svg viewBox="0 0 300 311" xmlns="http://www.w3.org/2000/svg"><path d="M300 170q0-15-11-26t-27-11h-5l-59-84q-5-7-13.5-11.5T167 33H80q-12 0-21.5 6.5T45 57l-33 86Q0 154 0 171v62h25v6q0 18 13 31t31 13q18 0 31-13t13-31v-6h75v6q0 18 12.5 31t30.5 13q18 0 31-13t13-31v-6h25v-63zM178 63l48 70h-88V58h29q7 0 11 5zM68 66q1-4 4.5-6t7.5-2h33v75H43l25-67zm20 173q0 8-5.5 13.5T69 258q-8 0-13.5-5.5T50 239v-6h38v6zm162 0q0 8-5.5 13.5T231 258q-8 0-13.5-5.5T212 239v-6h38v6zm25-31H25v-38q0-5 3.5-8.5T37 158h226q5 0 8.5 3.5t3.5 8.5v38z"/></svg>