<svg viewBox="0 0 300 311" xmlns="http://www.w3.org/2000/svg"><path d="M296 95h-26q6-18 5-32t-9-22q-8-8-25-8-27 0-63 19-39 21-76 58-9 9-19 21l-8-29 9-10q37-37 76.5-59T233 8.5Q266 6 284 24q12 12 15 30.5T296 96v-1zm-65-31l15 56h54v12l-41 24 16 50-9 7-41-32-41 32-9-7 17-51-42-23v-12h54l15-56h12zm13 181q-8 1-13.5 6t-5.5 13q0 8 5.5 13.5T244 283q8 0 13.5-5.5t5-13.5q-.5-8-5.5-13.5t-13-4.5v-1zM19 45q-8 0-13.5 5.5T0 64q0 8 5.5 13.5T19 83q8 0 13-5.5T37.5 64q.5-8-5-13.5T19 45zM81 8q-8 0-13.5 5.5t-5 13.5q.5 8 5.5 13t13 5q8 0 13.5-5t5.5-13q0-8-5.5-13.5T81 8zm19 158l-35-10-11-36h-8l-10 36-36 10v8l36 11 10 35h8l11-35 35-11v-8zm69 66q-43 34-82 46-18 6-32 5t-22-9q-8-8-8-25l1-9-11-35-6-2q-10 29-8.5 52T16 292q11 12 30 15t42-3q23-6 49-20.5t52-35.5l-20-16z"/></svg>