<svg viewBox="0 0 300.5006 311" xmlns="http://www.w3.org/2000/svg"><path d="M223.5 244q2 4 2 9.5t-3 9.5l-22 44-22-11 19-38h-27q-10 0-16-8t-3-18l28-52 22 12-23 41h27q6 0 10.5 3t7.5 8zm19-86q-10-21-31-31t-43.5-5q-22.5 5-38 22t-16.5 41q-19 4-29.5 19.5T76 239q2.5 19 16.5 31.5t33 12.5v-25q-10 0-17.5-7t-7.5-17.5q0-10.5 7-18t17-7.5h16l-3-19q0-16 10.5-28t26.5-15q16-3 29.5 5.5t18.5 23.5l4 9 11-1q14 0 24.5 9t13 22.5q2.5 13.5-4.5 25t-20 16.5v26q23-5 37-23.5t12.5-42q-1.5-23.5-17.5-40t-40-18.5zm-217-38q0-23 12-43t32-32q20-12 44-12 11 0 22 3-16 15-25.5 36t-9.5 44q0 11 3 22 9-14 22-24 1-21 12-40t30-30l19-11-19-11Q141.5 7 112 7.5t-55 15Q31.5 37 16 63T0 118.5q-.5 29.5 13.5 55t39 41.5q3-12 10-23-17-12-27-31t-10-41zm225-62q5 0 8.5-3.5t4-9q.5-5.5-3.5-9t-9-3.5q-5 0-9 3.5t-4 9q0 5.5 4 9t9 3.5zm-50 37q5 0 9-3.5t4-8.5q0-5-4-9t-9-3.5q-5 .5-9 4T188 83q.5 5 4 9t8.5 4v-1zm75 38q5 0 9-3.5t4-9q0-5.5-4-9t-9-3.5q-5 0-9 3.5t-3.5 9q.5 5.5 4 9t8.5 3.5z"/></svg>