<svg viewBox="0 0 300 311" xmlns="http://www.w3.org/2000/svg"><path d="M288 118q-12-11-27.5-10T235 120l-41 44q-8-13-24-17 5-10 5-20 0-26-16.5-51T118 43q20-19 20-35H63q0 16 19 35-24 8-40.5 33T25 127q0 10 5 19-13 3-21.5 13.5T0 183v87q0 16 11 27t27 11h130l122-137q11-12 10-27.5T288 118zM100 64q11 0 23 10t19.5 24.5Q150 113 150 127q0 8-5.5 13t-13.5 5H69q-8 0-13.5-5T50 127q0-14 7.5-28.5T77 74q12-10 23-10zm172 90L157 283H38q-6 0-9.5-3.5T25 271v-88q0-5 3.5-9t9.5-4h123q6 0 10 4.5t4 10q0 5.5-3.5 9.5t-8.5 5l-65 9 4 25 64-9q11-2 19.5-9t12.5-17l55-61q4-4 9-4t9 3.5q4 3.5 4 8.5t-3 9z"/></svg>