<svg viewBox="0 0 300 311" xmlns="http://www.w3.org/2000/svg"><path d="M100 185v-27H75v27q-13 5-20 16.5t-4.5 25Q53 240 63.5 249t24 9q13.5 0 24-9t13-22.5q2.5-13.5-4.5-25T100 185zm-12 48q-6 0-9.5-3.5t-3.5-9q0-5.5 3.5-9t9-3.5q5.5 0 9 3.5t3.5 9q0 5.5-3.5 9T87 233h1zm62-163q0-16-8.5-30.5t-23-23Q104 8 87.5 8t-31 8.5q-14.5 8.5-23 23T25 71v88Q8 176 2.5 198.5t.5 45q6 22.5 23 39T65 305q22 6 44.5 0t39.5-22.5q17-16.5 23-39t.5-45Q167 176 150 159V70zM88 283q-20 0-36-11t-23-29q-7-18-2.5-37T46 174l4-4V70q0-15 11-26t26.5-11Q103 33 114 44t11 27v99l4 4q15 13 19.5 32t-2.5 37q-7 18-23 29t-36 11h1zM196 92l-17 18 41 41q7 7 17.5 7t17.5-7l41-41-17-18-29 28V8h-25v112l-29-28z"/></svg>