<svg viewBox="0 0 301.0025 311" xmlns="http://www.w3.org/2000/svg"><path d="M200 127q0 8 5.5 13.5t13.5 5q8-.5 13.5-5.5t5-13q-.5-8-5.5-13.5t-13-5.5q-8 0-13.5 5.5T200 127zm-62-38q0 8 5 13.5t13 5.5q8 0 13.5-5.5T175 89q0-8-5.5-13.5t-13.5-5q-8 .5-13.5 5.5T138 89zm-63 38q0 8 5.5 13.5t13.5 5q8-.5 13-5.5t5-13q0-8-5-13.5T94 108q-8 0-13.5 5.5T75 127zm0 75q0 8 5.5 13t13.5 5q8 0 13-5t5-13q0-8-5-13.5T94 183q-8 0-13.5 5.5T75 202zm76 106q-46 0-84-25.5t-55-68Q-5 172 4.5 127T47 50q22-21 50.5-32T156 8q39 2 71.5 22T280 82.5q20 32.5 21 71.5 1 30-10 57-2 6-6.5 10t-10.5 5q-6 1-12-.5t-10-6.5l-1-1q-10-10-23.5-12.5t-26 3Q189 214 182 225t-7 25v56l-24 2zm0-275q-34 0-62.5 16.5T43 94.5Q26 123 25.5 157T42 220q17 29 45.5 46t62.5 17v-33q0-14 5-27t15-23q13-13 31-17.5t36 0q18 4.5 31 17.5l1 1q8-23 7-46-1-33-17.5-60T215 51.5Q188 35 155 33h-4z"/></svg>