<svg viewBox="0 0 300 311" xmlns="http://www.w3.org/2000/svg"><path d="M300 45q0-15-11-26T262 8H138q-16 0-27 11t-11 27v24H88q-16 1-27 11.5T50 108v25H38q-16 0-27 11T0 170v138h200v-63h50v-62h50V45zM38 158h125q5 0 8.5 3.5t3.5 8.5v8l-50 50-24-25-76 65v-98q0-5 3.5-8.5T37 158h1zm137 125H46l53-45 26 25 50-50v70zm50-63h-25v-50q0-15-11-26t-27-11H75v-25q0-5 3.5-9t9.5-4h125q5 0 8.5 4t3.5 9v112zm50-62h-25v-50q0-16-11-27t-27-10h-87V45q0-5 3.5-8.5T138 33h125q5 0 8.5 3.5T275 45v113zM50 195q0-5 3.5-8.5t9-3.5q5.5 0 9 3.5t3.5 9q0 5.5-3.5 9t-9 3.5q-5.5 0-9-3.5T50 195z"/></svg>