<svg viewBox="0 0 300 311" xmlns="http://www.w3.org/2000/svg"><path d="M275 235v-90h13V95h-25v25h-25V95h-25v25h-25V95h-25v50h12v76q19 14 24 37h63q6 0 9.5 3.5t3.5 8.5v13h-75v25h100v-38q0-11-7-21t-18-14zm-75-90h50v88h-50v-88zm-53 89q-17-55-22-114h13V95h-5l16-32q4-11-3-20.5T128 33h-28V8H75v25H48q-12 0-19 9.5T26 63l16 32h-4v25h12q-5 59-22 114-12 4-20 14t-8 22v38h175v-38q0-12-8-22t-20-14zM52 58h71l-18 37H70L52 58zm48 62q4 58 21 113H54q17-55 21-113h25zm50 163H25v-13q0-5 3.5-8.5T37 258h101q5 0 8.5 3.5t3.5 8.5v13z"/></svg>