<svg viewBox="0 0 300 311" xmlns="http://www.w3.org/2000/svg"><path d="M250 18l-9-9L1 249l9 9q33 33 76.5 44t87-.5q43.5-11.5 76-44t44-76q11.5-43.5.5-87T250 18zm-17 222q-27 27-62 37t-70.5 3Q65 273 37 249L241 45q24 28 31 63.5t-3 70.5q-10 35-36 62v-1zm12-99q-4 4-10.5 4t-11.5-4q-8-16-10-33 17 3 32 11 5 5 5 11t-5 11zm-62 78q4 4 4 10.5t-4.5 11q-4.5 4.5-11 4.5t-10.5-4q-8-16-11-33 17 3 33 11zm37-38q5 5 5 11.5t-4.5 11q-4.5 4.5-11 4.5t-11.5-5q-8-15-10-32 17 2 32 10zm-100 50q7 7 4.5 15.5t-11 11Q105 260 98 253q-8-15-10-32 17 2 32 10z"/></svg>