<svg viewBox="0 0 300 311" xmlns="http://www.w3.org/2000/svg"><path d="M298 148q-19-40-52-68l38-38-18-18-41 41q-35-20-75-20-42 0-78 22-26 16-47 44-14 17-23 37-4 10 0 20 19 40 52 68l-38 38 18 18 41-41q35 20 75 19 42 0 78-21 26-16 47-44 14-17 23-37 4-10 0-20zM25 158q13-29 36-51 38-36 89-36 30-1 56 13l-22 22q-18-12-40-10t-38 18q-16 16-18 38t10 40l-26 26q-30-24-47-60zm163 0q0 16-11 27t-27 10q-8 0-16-3l50-50q3 8 3 16h1zm-75 0q0-16 10.5-27t26.5-11q8 1 16 4l-50 50q-3-8-3-16zm37 87q-30 1-56-13l22-22q18 12 40 10t38-18q16-16 18-38t-10-40l26-26q31 24 47 60-14 30-37 52-37 35-88 35z"/></svg>