<svg viewBox="0 0 300 311" xmlns="http://www.w3.org/2000/svg"><path d="M175 220h75v25h-75v-25zm0-50v25h25v-25h-25zm75-112H100v39q14 3 25 7V83h100v25h-90q19 10 30 25h85V58zm13-50H88Q72 8 61 19T50 46v51q13-2 25-2V45q0-5 3.5-8.5T87 33h176q5 0 8.5 3.5T275 46v237H172q-6 14-18 25h146V45q0-15-11-26T262 8h1zm-13 162h-25v25h25v-25zm-100-6v100q0 13-10 23t-27 15.5Q96 308 75 308t-38-5.5Q20 297 10 287T0 264V164q0-12 10-22t27-16q17-6 38-5.5t38 6q17 5.5 27 15.5t10 22zm-25 100v-17q-21 11-50 11t-50-11v17q0 4 6.5 8.5t18 7.5q11.5 3 25.5 3t25.5-3q11.5-3 18-7.5t6.5-8.5zm0-50v-17q-21 11-50 11t-50-11v17q0 4 6.5 8.5t18 7.5q11.5 3 25.5 3t25.5-3q11.5-3 18-7.5t6.5-8.5zm0-50q0-3-6.5-7.5t-18-8Q89 145 75 145t-25.5 3.5q-11.5 3.5-18 8t-6.5 8q0 3.5 6.5 8t18 7.5q11.5 3 25.5 3t25.5-3q11.5-3 18-7.5t6.5-8.5z"/></svg>