<svg viewBox="0 0 300 311" xmlns="http://www.w3.org/2000/svg"><path d="M238 70h-25V58q0-16-11-27t-27-11H38q-16 0-27 11T0 58v187h26l-1 7q0 18 13 30.5T69 295q18 0 31-12.5t13-30.5l-1-6h76l-1 6q1 18 13.5 30.5T231 295q18 0 31-12.5t13-30.5l-1-6h26V133q0-17-8.5-31.5t-23-22.5Q254 71 238 70zm0 25q15 0 26 11t11 27v12h-62V95h25zM88 252q0 8-5.5 13T69 270q-8 0-13.5-5T50 252q0-3 1-7h35q1 4 2 7zm100-32H25V58q0-5 3.5-9t8.5-4h138q5 0 9 4t4 9v162zm62 32q0 8-5.5 13t-13.5 5q-8 0-13.5-5t-5.5-13q1-3 2-7h35q1 4 1 7zm-37-32v-50h62v50h-62z"/></svg>