<svg viewBox="0 0 300 311" xmlns="http://www.w3.org/2000/svg"><path d="M68 129q-2-20-12-31T33 87h-3q-15 2-23.5 15T0 135.5q2 20.5 13 34T37 183h3q14-2 22-17.5t6-36.5zm-31 29q-10-9-12-25 0-12 3-18 1-3 4-3h1q3 0 6 5.5t4 13.5q2 17-6 27zm69-44q2 0 2-1 16-1 25-18.5t7-39.5q-2-22-13-34.5T101 8h-4q-15 2-24.5 16.5t-7 37Q68 84 79.5 99t26.5 15zM94 38q2-4 6-5h1q5 0 9 6.5t5 16.5q2 14-4 27-3 5-5.5 5.5t-8-8Q92 72 90 60t4-22zm98 75q1 1 3 1 14 0 26-15t14-37.5q2-22.5-7-37T203 8h-3q-15 0-26 12.5T160.5 55q-2.5 22 7 39.5T192 113zm-7-57q2-10 6-16.5t9-6.5q5 1 7 4 5 11 3.5 23t-7 20.5Q198 89 195 89q-1 0-2.5-1.5T190 83q-6-13-5-27zm-35 90q-28 0-54 16.5t-42.5 44Q37 234 37 263q0 19 9.5 30.5t27 14q17.5 2.5 37-4.5t39.5-7q20 0 39 6 14 5 30 6 24 0 35-15 9-11 9-30 0-29-16.5-56.5t-42.5-44Q178 146 150 146zm0 124q-7-1-17 2-7 1-21 5-17 4-25 5-12 2-18.5-2T63 263q0-23 12.5-44.5t33-34.5q20.5-13 41.5-13t41.5 13q20.5 13 33 34.5T237 263q1 13-5.5 17t-18.5 2q-8-1-25-5-14-4-21-5-10-3-17-1v-1zm125-170h-3q-15-2-26 9t-14 31q-3 20 4.5 36t20.5 19h2q14 2 26-11.5t14.5-33.5q2.5-20-4.5-33.5T275 100zm0 46q-3 16-13 24-8-10-5-26v-1q3-12 7-16 2-3 4-2h1q3 1 5 6.5t1 14.5z"/></svg>