<svg viewBox="0 0 300 311" xmlns="http://www.w3.org/2000/svg"><path d="M242 58q-14 0-26 6.5T196 83q-12-16-29-22 5-22 15-40L160 9q-13 23-18 50-23 3-38 22-8-11-20-17t-26.5-6q-14.5 0-28 8T8 87.5q-8 13.5-8 29T7 162q7 34 19 63 15 37 33 58 22 25 46 25 14 0 25.5-5.5T150 287q8 10 19.5 15.5T195 308q24 0 46-25 18-21 33-57 12-30 20-64 6-29 6-45t-8-29.5Q284 74 270.5 66T242 58zm-48 225q-11 0-20-7t-11-18h-26q-2 11-11 18t-20 7q-20 0-41-34-17-28-29-71-11-39-11-62 0-13 10-23t23.5-10Q72 83 82 92.5T92 116q1 12 7.5 40.5T113 208h27q-8-22-15-48-7-30-7.5-43.5t9-23.5q9.5-10 23-10T173 94.5q10 11.5 10 25.5h25q0-14 10.5-25.5T242 83q13 0 23 10t10 23q0 22-11 61-12 43-28 71-21 35-42 35z"/></svg>