<svg viewBox="0 0 300 311" xmlns="http://www.w3.org/2000/svg"><path d="M175 218l100 37v53h-25v-36l-100-37v-76q0-5-3-9t-8-4.5q-5-.5-9.5 3T125 158v146l-54-43q-4-3-9-3t-8.5 4q-3.5 4-3.5 9t4 9l29 28H47l-10-10q-12-11-12-26.5T35.5 245Q46 234 61 233t27 10l12 10v-95q0-17 13-28.5t31-8.5q13 2 22 13t9 25v59zM263 8H38Q22 8 11 19T0 46v112h75q0-13 5-25H25V45q0-5 3.5-8.5T37 33h226q5 0 8.5 3.5T275 45v88h-80q5 12 5 25h100V45q0-15-11-26T262 8h1zM55 117l20-16 20 16 5-4-8-25 20-12 21 12-8 25 5 4 20-16 20 16 5-4-8-25 20-12 21 12-8 25 5 4 20-16 20 16 5-4-8-25 20-12v-5h-27l-7-29h-6l-7 29h-55l-7-29h-6l-7 29H85l-7-29h-6l-7 29H37v5l21 12-8 25 5 4z"/></svg>