<svg viewBox="0 0 300 311" xmlns="http://www.w3.org/2000/svg"><path d="M175 308H0v-25h175v25zm75-25h-50v25h50v-25zm50-50H125v25h175v-25zm-200 0H50v25h50v-25zm75-50H0v25h175v-25zm75 0h-50v25h50v-25zm-9-40q12 4 25 1t22-12.5q9-9.5 11.5-22t-3-25Q291 72 280 65t-24-7h-6q-10-13-25-19.5T194 33q-11-12-26-18.5T136.5 8Q120 8 105 15.5T80 35q-21-6-41.5 2.5T7.5 65Q-3 84 .5 105.5t20 36q16.5 14.5 38 16T98 147q17 10 36 11t36-8q17 10 36.5 8t34.5-15zm-77-18q-14 9-30 8t-28-12l-9-7-8 8q-10 10-24.5 11T39 125q-11-9-13.5-23t5-26.5Q38 63 52 59.5T79 62l10 5 6-10q6-11 17-17t23.5-6.5q12.5-.5 24 5T178 54l5 7 8-2q13-3 24.5 2.5T233 79l6 10 10-5q6-2 11.5-1t9.5 5.5q4 4.5 5 10t-1.5 10.5q-2.5 5-7 8.5T256 121q-6 0-10-4l-10-6-7 8q-10 12-24.5 13.5T178 126l-7-5-7 4z"/></svg>