<svg viewBox="0 0 300 311" xmlns="http://www.w3.org/2000/svg"><path d="M131 40q0-13 9.5-22t22-9q12.5 0 22 9t9.5 22q0 13-9.5 22t-22 9q-12.5 0-22-9T131 40zM60 219l-6 15H0v25h71l10-25-8-5q-7-4-13-10zM263 8q-21 0-31 50-6 35-7 87h-18l-27-43q-5-9-13.5-13.5T148 84H42l-28 57 22 11 22-43h35l-22 53q-5 13-1 26t16 20l51 33v68h25v-82l-63-40q-4-3-5-7t0-8l26-63h24l-25 60 21 14 25-59 28 46h57v-12q0-42 4-75 3-27 8-42 6 15 9 42 4 33 4 75t-4 75q-3 27-8 42-9-26-12-79h-25q2 46 9 74 10 38 27 38 16 0 25-29 8-23 11-62 2-27 2-59t-2-59q-3-39-11-62-9-29-24-29z"/></svg>