<svg viewBox="0 0 300.0022 311" xmlns="http://www.w3.org/2000/svg"><path d="M259.002 83q4-12 3-24t-7-23q-6-11-17-18-13-9-30-10t-30 8q-6 3-11 8-22 21-47 21h-10q-29 0-53 13.5t-39.5 36Q2.002 117 .002 144q-1 23 7 45t24 38q16 16 37 24l7 57h27l-6-51 10 1h8q8-1 16-3l7 53h27l-9-62q26-14 41.5-40.5t15.5-57.5l1-28q11-1 21-7 30 25 45 69 7 22 9 38h12q0-44-15-86-10-28-26-51zm-49 12q-10 1-16 8t-6 16v29q0 22-10.5 41t-27.5 30.5q-17 11.5-38 13.5-18 1-34.5-5t-29-18.5q-12.5-12.5-18.5-29t-5-34.5q2-21 13.5-38.5t30.5-27.5q19-10 41-10h10q35 0 64-28 3-3 6-5 8-4 17.5-4t16.5 5q12 9 13.5 23.5t-9.5 24.5q-7 8-18 9zm15-31q0 8-5.5 13.5t-13.5 5.5q-8 0-13.5-5.5t-5.5-13.5q0-8 5.5-13.5t13.5-5.5q8 0 13.5 5.5t5.5 13.5z"/></svg>