<svg viewBox="0 0 300 311" xmlns="http://www.w3.org/2000/svg"><path d="M38 283h62v25H38q-16 0-27-11T0 270v-62h25v62q0 6 3.5 9.5T38 283zm237-13q0 6-3.5 9.5T262 283h-62v25h63q15 0 26-11t11-27v-62h-25v62zM263 8h-63v25h63q5 0 8.5 3.5T275 46v62h25V45q0-15-11-26T262 8h1zM25 45q0-5 3.5-8.5T38 33h62V8H38Q22 8 11 19T0 46v62h25V45zm125 138q10 0 17.5-7.5T175 158q0-10-7.5-17.5T150 133q-10 0-17.5 7.5T125 158q0 10 7.5 17.5T150 183zm-44-88h6l17-25h42l17 25h6q13 0 22 9.5t9 22.5v93H75v-93q0-13 9-22t22-9v-1zm88 25h-88q-2 0-4 2t-2 5v68h100v-68q0-3-2-5t-4-2z"/></svg>