<svg viewBox="0 0 300 311" xmlns="http://www.w3.org/2000/svg"><path d="M263 170q15 0 26-10.5t11-26.5V64q-1-15-11-25-6-7-21-15-11-5-25-11l-11-5 5 12q6 15 8 28-13-2-28-8-7-3-12-5l5 11q6 14 11 25 8 14 15.5 21.5t18 9.5q10.5 2 20.5-1v32q0 5-3.5 8.5T263 145h-16q-11-37-59-46V83h-25v13h-25V83h-25v16q-49 9-60 46H38q-6 0-9.5-3.5T25 133v-32q10 3 20.5 1t18-9.5Q71 85 79 71q5-11 11-25l5-11-12 5q-15 6-28 8 2-13 8-28 3-7 5-12l-11 5q-14 6-25 11-14 8-21 15Q1 49 0 64v69q0 16 11 26.5T38 170h12q0 15 12 38H39l-29 29 18 17 21-21h26q8 14 18 27l-30 30 18 18 37-38h64l37 38 18-18-29-30q10-13 18-27h25l21 21 18-17-29-29h-21q10-22 10-38h13zm-113-50q45 0 62 16 13 11 13 33 0 15-14 40-9 18-23 36h-75q-15-20-25-40-13-25-13-36 0-22 13-33 17-15 62-15v-1z"/></svg>