<svg viewBox="0 0 300 311" xmlns="http://www.w3.org/2000/svg"><path d="M263 8H38Q22 8 11 19T0 46v262h300V45q0-15-11-26T262 8h1zM88 283v-63q0-5 3.5-8.5t8.5-3.5h100q5 0 9 3.5t4 9.5v62H88zm187 0h-37v-63q-1-15-11.5-26T200 183H100q-16 0-26.5 11T62 220v63H25V45q0-5 3.5-8.5T37 33h226q5 0 8.5 3.5T275 45v238zM150 58q-21 0-35.5 14.5T100 108q0 21 14.5 35.5T150 158q21 0 35.5-14.5T200 108q0-21-14.5-35.5T150 58zm0 75q-10 0-17.5-7.5T125 108q0-10 7.5-17.5T150 83q10 0 17.5 7.5T175 108q0 10-7.5 17.5T150 133z"/></svg>