<svg viewBox="0 0 300 311" xmlns="http://www.w3.org/2000/svg"><path d="M188 214q-1-8 4.5-13.5t13.5-5q8 .5 13.5 5.5t5.5 13q0 8-5.5 13.5T206 233q-8 0-13.5-5.5T187 214h1zm-19-69q-8 0-13.5 5.5T150 164q0 8 5.5 13.5T169 183q8 0 13.5-5.5t5-13.5q-.5-8-5.5-13.5t-13-5.5zm81 19q0-8-5.5-13.5T231 145q-8 0-13.5 5.5T212 164q0 8 5.5 13.5T231 183q8 0 13.5-5.5T250 164zM138 95q0-22-8-46-5-15-12-28l22-12q7 13 13 30 3-5 7-9 16-15 42-20 13-3 24-2l11 1v11q1 10-1 24-5 26-21 41-13 14-35 20-14 3-27 3l-15-1-1-12h1zm25-13q23-3 35-14.5T212 33q-22 3-34 14.5T163 82zm96-27q-3 15-10 27 12 16 19 35.5t7 40.5q0 34-17 62.5T212.5 266Q184 283 150 283t-62.5-17Q59 249 42 220.5T25 158q0-38 21-69t55-46L90 21Q49 39 24.5 76T0 158q0 41 20 75.5T74.5 288q34.5 20 75.5 20t75.5-20q34.5-20 54.5-54.5t20-75.5q0-29-11-55.5T259 55z"/></svg>