<svg viewBox="0 0 300 311" xmlns="http://www.w3.org/2000/svg"><path d="M289 156q-11-10-26.5-10T236 156l-98 99v53h53l98-98q11-11 11-27t-11-27zm-18 36l-91 91h-17v-18l91-91q3-3 8.5-3t9 3.5q3.5 3.5 3.5 8.5t-4 9zM25 245V45q0-5 3.5-8.5T38 33h25v75h137V43l38 38v45q12-5 24-5V70L200 8H38Q22 8 11 19T0 46v224h112l1-9q1-10-1-15H25v-1zM88 83V33h87v50H88zm87 94q0-18-13-31t-31-13q-18 0-30.5 13T88 177q0 18 12.5 30.5T131 220h6l37-37 1-6zm-44 18q-8 0-13-5t-5-13q0-8 5-13.5t13-5.5q8 0 13.5 5.5T150 177q0 8-5.5 13t-13.5 5z"/></svg>