<svg viewBox="0 0 300 311" xmlns="http://www.w3.org/2000/svg"><path d="M150 77q-18 0-31 12.5T106 120q0 15 9 26.5t23 15.5v146h25V162q13-4 22-15.5t9-26.5q0-18-13-30.5T150 77zm0 62q-8 0-13.5-5.5t-5.5-13q0-7.5 5.5-13T150 102q8 0 13.5 5.5t5.5 13q0 7.5-5.5 13T150 139zM97 68q-14 15-19 34t0 38.5Q83 160 97 174l-18 18q-19-19-25.5-45t0-51.5Q60 70 79 51l18 17zm153 53q0 20-7.5 38.5T221 192l-18-18q11-10 16.5-24t5.5-29q0-15-5.5-28.5T203 68l18-17q14 14 21.5 32t7.5 38zM62 210l-18 18q-29-29-39-68t0-77.5Q15 44 44 15l18 18Q38 57 29.5 89t0 64.5Q38 186 62 210zm238-89q0 31-11.5 58T256 228l-18-18q18-18 27.5-41t9.5-48q0-25-9.5-47.5T238 33l18-18q21 22 32.5 49t11.5 57z"/></svg>