<svg viewBox="0 0 300 311" xmlns="http://www.w3.org/2000/svg"><path d="M79 145H38q-6 0-9.5 4t-3.5 9v37H0v-37q0-16 11-27t27-11h56q-10 12-15 25zm184-25h-57q10 12 15 25h42q5 0 8.5 4t3.5 9v37h25v-37q0-16-11-27t-27-11h1zm-63 50q0-20-14.5-35T150 120q-21 0-35.5 15T100 170.5q0 20.5 14.5 35T150 220q21 0 35.5-14.5T200 170zm-25 0q0 11-7.5 18t-17.5 7q-10 0-17.5-7t-7.5-17.5q0-10.5 7.5-17.5t17.5-7.5q10-.5 17.5 7T175 171v-1zm50 100q0-15-11-26t-27-11h-74q-16 0-27 11t-11 26v38h25v-38q0-5 3.5-8.5t9.5-3.5h75q5 0 8.5 3.5t3.5 8.5v38h25v-38zm50-212q0-21-14.5-35.5T225 8q-21 0-35.5 14.5T175 58q0 21 14.5 35.5T225 108q21 0 35.5-14.5T275 58zm-25 0q0 10-7.5 17.5T225 83q-10 0-17.5-7.5T200 58q0-10 7.5-17.5T225 33q10 0 17.5 7.5T250 58zm-125 0q0-21-14.5-35.5T75 8Q54 8 39.5 22.5T25 58q0 21 14.5 35.5T75 108q21 0 35.5-14.5T125 58zm-25 0q0 10-7.5 17.5T75 83q-10 0-17.5-7.5T50 58q0-10 7.5-17.5T75 33q10 0 17.5 7.5T100 58z"/></svg>