<svg viewBox="0 0 300 311" xmlns="http://www.w3.org/2000/svg"><path d="M119 39q0-13 9-22t22-9q13 0 22 9t9 22q0 13-9 22.5t-22 9q-13-.5-22-9.5t-9-22zm-6 219h25v-88h-25v-50q0-5 3.5-8.5t8.5-3.5h50q5 0 9 3.5t3 9.5v49h-24v88h25v-63h25v-75q-1-15-11.5-26T175 83h-50q-16 0-27 11t-11 26v75h26v63zm112-56v26q23 5 36.5 12t13.5 12q0 5-14 12-16 8-42 13-31 6-69 6t-69-6q-26-5-42-13-14-7-14-12t13.5-12Q52 233 75 228v-26q-34 7-53 19-22 13-22 31t23 32q20 12 56 18 33 6 71 6t71-6q36-6 56-18 23-14 23-32t-22-31q-19-12-53-19z"/></svg>