<svg viewBox="0 0 300 311" xmlns="http://www.w3.org/2000/svg"><path d="M238 8H63Q47 8 36 19T25 46v262h250V45q0-15-11-26T237 8h1zM63 33h175q5 0 8.5 3.5T250 45v63H50V45q0-5 3.5-8.5T62 33h1zM50 283V133h200v150H50zm25-25h150V158H75v100zm25-75h100v50H100v-50zm31-113q0-7 5.5-12.5T150 52q8 0 13.5 5.5t5.5 13q0 7.5-5.5 13T150 89q-8 0-13.5-5.5T131 71v-1zm57 0q-1-7 4.5-12.5T206 52q8 0 13.5 5.5t5.5 13q0 7.5-5.5 13T206 89q-8 0-13-5.5T187 71l1-1zM75 70q0-7 5.5-12.5T94 52q8 0 13.5 5.5t5 13q-.5 7.5-5.5 13T94 89q-8 0-13.5-5.5T75 71v-1z"/></svg>