<svg viewBox="0 0 300 311" xmlns="http://www.w3.org/2000/svg"><path d="M175 8q-33 0-61.5 16T68 68q-17 28-18 60.5T64 190L0 255l53 53 64-64q35 17 73.5 12.5T258 226q29-26 38.5-63.5t-4.5-74Q278 52 246 30T175 8zM53 273l-18-18 43-43q8 10 18 17l-43 44zm122-40q-30 0-55.5-17t-37-45Q71 143 77 113.5t27.5-51Q126 41 155.5 35t57.5 5.5q28 11.5 45 37t17 55.5q0 27-13.5 50T225 219.5Q202 233 175 233zm75-100q0 20-10 37.5T212.5 198Q195 208 175 208t-37.5-10Q120 188 110 170.5t-10-38q0-20.5 10-37.5t27.5-27Q155 58 175 58v25q-21 0-35.5 14.5t-14.5 35q0 20.5 14.5 35.5t35.5 15q21 0 35.5-15t14.5-35h25z"/></svg>