<svg viewBox="0 0 300 311" xmlns="http://www.w3.org/2000/svg"><path d="M300 220v37q0 14-9 25t-23 13h-5q-14 0-25-8-13-12-13-29v-13h-25v50h-75v-50H75v50H0V120q0-20 10-37t27.5-27Q55 46 75 46h19q11-12 25.5-18.5T150 20q23 0 42.5 14T220 70q14 9 22 24t8 32v132q0 6 4.5 9.5t9.5 3q5-.5 8-4.5t3-9v-36h25v-1zm-75 0v-93q0-12-5.5-22T203 89l-4-3-1-4q-5-16-18.5-26.5T150 45q-21 0-35.5 15T100 95.5q0 20.5 14.5 35T150 145v25q-20 0-37.5-10T85 133q-10-17-10-38 0-12 4-25h-4q-21 0-35.5 15T25 120v150h25v-50h100v50h25v-50h50z"/></svg>