<svg viewBox="0 0 300 311" xmlns="http://www.w3.org/2000/svg"><path d="M213 158v12h-32l-24 31q-4 7-12 7h-14l15-38h-25l-20-22q-2-5 .5-10t7.5-5q5 0 8 3l14 9h15l-15-37h14q8 0 12 7l24 30h16q7 0 11.5 4t3.5 9h1zm50 0q0 10 7 17.5t17 7.5h13v50q0 16-11 27t-27 11H38q-16 0-27-11T0 233V83q0-16 11-27t27-10h225q15-1 26 10t11 27v50h-12q-11 0-18 7.5t-7 17.5zm-25 0q0-17 10.5-30.5T275 110V83q0-5-3.5-8.5T262 71H75v24H50V70H38q-6 0-9.5 4T25 83v150q0 5 3.5 8.5T38 245h12v-25h25v25h188q5 0 8.5-3.5t3.5-8.5v-27q-16-4-26.5-17.5T238 158zM50 145h25v-25H50v25zm0 50h25v-25H50v25z"/></svg>