<svg viewBox="0 0 300 311" xmlns="http://www.w3.org/2000/svg"><path d="M288 121h12V96h-12q-20 0-35.5 11T230 135q-18-12-37-19l14-20q18 0 30.5-13T250 52q0-18-13-31T206 8q-18 0-30.5 13T163 52q0 11 5 20.5T182 88l-14 22q-9-2-18-2t-17 2l-14-22q8-6 13.5-15.5T138 52q0-18-13-31T94 8Q76 8 63 21T50 52q0 18 13 31t31 13l13 20q-19 7-37 19-7-17-22.5-28T13 96H0v25h13q13 0 24 9t13 23q-6 5-10 10l-6 8 6 7q8 11 22 23v26q1 8-4.5 13.5T44 246q-8 0-13.5-5.5T25 227v-6H0v6q0 18 13 31t31 13q18 0 31-13t13-31v-10q12 7 24 11v18q1 15-10 26t-27 11v25q17 0 31.5-8.5T129 277q8-14 8-31v-13h25v13q0 17 8.5 31t23 22.5Q208 308 225 308v-25q-16 0-26.5-11T188 246v-18q12-4 24-11v10q0 18 13 31t31 13q18 0 31-13t13-31v-6h-25v6q0 8-5.5 13.5T256 246q-8 0-13-5.5t-5-13.5v-26q14-12 22-23l6-7-6-8-10-10q2-14 13-23t25-9zm-82-88q8 0 13.5 5.5T225 52q0 8-5.5 13.5T206 71q-8 0-13-5.5T188 52q0-8 5-13.5t13-5.5zM75 52q0-8 5.5-13.5T94 33q8 0 13 5.5t5.5 13.5q.5 8-5 13.5T94 71q-8 0-13.5-5.5T75 52zm-8 119q14-14 31-24 25-14 52-14t52 14q17 10 31 24-14 14-31 23-25 14-52 14t-52-14q-17-9-31-23z"/></svg>