<svg viewBox="0 0 300 311" xmlns="http://www.w3.org/2000/svg"><path d="M300 108h-20q-16-33-39-62-9-12-24-17-11-5-39-7t-56 0q-28 2-39 7-15 5-24 17-23 29-39 62H0v137h25v50h75v-50h100v50h75v-50h25V108zM78 61q5-6 13-8 9-4 34-6t50 0q25 2 34 6 8 2 13 8 28 38 46 81-118-17-236 0 18-43 46-81zm-3 209H50v-25h25v25zm175 0h-25v-25h25v25zM25 220v-51q62-10 125-11 63 1 125 11v51H25zm50-25q0 6-3.5 9.5t-9 3.5q-5.5 0-9-3.5t-3.5-9q0-5.5 3.5-9t9-3.5q5.5 0 9 3.5T75 196v-1zm175 0q0 6-3.5 9.5t-9 3.5q-5.5 0-9-3.5t-3.5-9q0-5.5 3.5-9t9-3.5q5.5 0 9 3.5t3.5 9.5v-1z"/></svg>