<svg viewBox="0 0 300 311" xmlns="http://www.w3.org/2000/svg"><path d="M150 307l-7-4q-15-9-33-25-34-29-55-60-30-43-30-85 0-34 17-62.5T87.5 25Q116 8 150 8t62.5 17Q241 42 258 70.5t17 62.5q0 42-30 85-21 31-55 60-18 16-33 25l-7 4zm0-274q-27 0-50 13.5T63.5 83Q50 106 50 133q0 44 41 91 25 29 59 53 34-24 59-53 41-47 41-91 0-27-13.5-50T200 46.5Q177 33 150 33zm75 75h-10q-11 0-20 3-13 3-20 10t-10 19q-2 10-2 21v9h9q11 0 21-2 12-3 19-10 10-10 12-31 2-10 1-19zM88 158q9 10 30 12 11 1 19 0v-9q0-11-2-21-3-12-10-19-10-10-31-12-10-2-19-1v10q0 11 3 20 3 13 10 20z"/></svg>