<svg viewBox="0 0 300 311" xmlns="http://www.w3.org/2000/svg"><path d="M61 198q10 3 25 5L44 308H16l45-110zm152 5l42 105h28l-45-110q-10 3-25 5zm87-78q0 18-22 32-21 12-55 19t-73 7q-39 0-73-7t-55-19Q0 143 0 125t19.5-31Q39 81 76 73q3-27 24.5-46T150 8q28 0 49.5 19T224 73q37 8 56.5 21t19.5 31zM100 87q17 8 50 8.5t50-8.5v-4q0-21-14.5-35.5T150 33q-21 0-35.5 14.5T100 83v4zm175 38q0-5-11-12-14-8-39-14l-4 4q-5 5-17 10-21 7-54 7t-54-7q-12-5-17-10l-4-4q-25 6-39 14-11 7-11 12.5T41 139q16 8 42 13 31 6 67 6t67-6q26-5 42-13t16-14z"/></svg>