<svg viewBox="0 0 300 311" xmlns="http://www.w3.org/2000/svg"><path d="M300 164q0 24-11.5 45t-31 34Q238 256 214 258l18-24q2-4 3-8 22-10 32.5-31t6-44.5q-4.5-23.5-23-39T208 95h-9l-2-8q-6-20-21-34t-35-18q-20-4-39.5 2.5t-33 22Q55 75 51.5 95t3.5 40l4 10-10 5q-11 6-17.5 16.5t-6.5 23q0 12.5 6.5 23T49 228q-2 15 5 28-20-4-34-18.5t-18.5-34Q-3 184 4.5 165T28 134q-6-23-1-46t19-41q14-18 35-28.5T125 8q31 0 56.5 17.5T218 71q23 3 42 16t29.5 33.5Q300 141 300 164zm-89 56l-64 88h-38l13-50H98q-13 0-20-9.5T75 227l32-94h81l-19 50h22q6 0 12 3.5t9 9q3 5.5 2.5 12T211 220zm-22-13l-57 1 19-50h-26l-26 75h54l-8 35 44-61z"/></svg>