<svg viewBox="0 0 300 311" xmlns="http://www.w3.org/2000/svg"><path d="M150 8q-41 0-75.5 20T20 82.5Q0 117 0 158t20 75.5Q40 268 74.5 288t75.5 20q41 0 75.5-20t54.5-54.5q20-34.5 20-75.5t-20-75.5Q260 48 225.5 28T150 8zm0 275q-34 0-62.5-17T42 220.5Q25 192 25 158t17-62.5Q59 67 87.5 50T150 33q34 0 62.5 17T258 95.5q17 28.5 17 62.5t-17 62.5Q241 249 212.5 266T150 283zm-25-156q0 8-5.5 13.5t-13.5 5q-8-.5-13-5.5t-5-13q0-8 5-13.5t13-5.5q8 0 13.5 5.5T125 127zm88 0q0 8-5.5 13.5t-13.5 5q-8-.5-13.5-5.5t-5.5-13q0-8 5.5-13.5T194 108q8 0 13.5 5.5T213 127zm-25 62q0-13-9.5-22t-22.5-9h-18v25h18q3 0 5 2t2 4.5q0 2.5-2 4.5t-5 2h-6v24h6q3 1 5 2.5t2 4q0 2.5-2 4.5t-5 2h-18v25h18q13 0 22-9t9-22q0-11-6-19 6-8 6-19h1z"/></svg>