<svg viewBox="0 0 300 311" xmlns="http://www.w3.org/2000/svg"><path d="M25 158H0q0-41 20-75.5T74.5 28Q109 8 150 8q28 0 53.5 10T250 46V8h25v62q0 11-7.5 18.5T250 96h-62V70h51q-18-17-41-27t-48-10q-34 0-62.5 17T42 95.5Q25 124 25 158zm250 0q0 34-17 62.5T212.5 266Q184 283 150 283q-25 0-48-10t-41-27h52v-26H50q-10 0-17.5 7.5T25 246v62h25v-38q21 18 46.5 28t53.5 10q41 0 75.5-20t54.5-54.5q20-34.5 20-75.5h-25zm-54-27l-17 11q2 8 2 16t-2 16l17 11-12 21-18-10q-12 13-29 17v20h-24v-20q-17-4-29-17l-18 10-12-21 17-11q-2-8-2-16t2-16l-17-11 12-21 18 10q12-13 28-17V83h26v20q16 4 28 17l18-10 12 21zm-40 27q0-13-9-22t-22-9q-13 0-22 9t-9 22q0 13 9 22t22 9q13 0 22-9t9-22z"/></svg>