<svg viewBox="0 0 300.002 311" xmlns="http://www.w3.org/2000/svg"><path d="M250 270q-11 0-29 8-15 5-21 5t-21-5q-18-7-29-7t-29 7l-12 4 47-107 126 56 5-12q12-27 13-57t-10-58q-11-28-31.5-49.5t-48-33.5Q183 9 153.5 8.5T96 18.5Q68 29 46.5 49.5T13 98l-5 11 125 56-50 114-4-1q-18-8-29-8t-29 8q-15 5-21 5v25q11 0 29-7 15-6 21-6t21 6q18 7 29 7t29-7q15-6 21-6t21 6q18 7 29 7t29-7q15-6 21-6t21 6q18 7 29 7v-25q-6 0-21-5-18-8-29-8zM105 42q23-9 48-8.5T200.5 44q22.5 10 40 28t26.5 41q7 21 8 42.5t-6 41.5L41 97q11-19 27.5-33T105 42z"/></svg>