<svg viewBox="0 0 300 311" xmlns="http://www.w3.org/2000/svg"><path d="M272 184q2-4 3-8 2-16-7.5-28t-25-14.5Q227 131 215 140q-9 7-15 17-6-10-15-17-12-9-27.5-6.5t-25 14.5q-9.5 12-7.5 28 1 4 3 8-12 4-20 14t-8 22v63H25V95q0-5 3.5-8.5T37 83h126q5 0 8.5 3.5T175 96v13q14 3 25 11V95q0-15-11-26t-26-11h-33l26-26-18-17-25 25V8H88v32L62 15 44 32l26 26H38q-16 0-27 11T0 95v213h300v-88q0-12-8-22t-20-14zm-42-23q4-4 9-3t8.5 5q3.5 4 2.5 9t-5 9l-5 2h-25q5-15 15-22zm-77 2q3-4 8-5t9 2q10 8 15 23h-25l-5-3q-4-3-5-8t2-9h1zm-28 58q0-6 3.5-9.5t9.5-3.5h50v75h-63v-62zm150 62h-62l-1-75h51q5 0 8.5 3.5t3.5 9.5v62z"/></svg>