<svg viewBox="0 0 300 311" xmlns="http://www.w3.org/2000/svg"><path d="M200 183v12h25v63h-25v50H25v-50H0v-63h25v-12q0-16 11-27t27-11h37v-25h25v50H63q-6 0-9.5 4t-3.5 9v100h125V183h25zm-75 44q0 8 5.5 13t13.5 5q8 0 13.5-5t5.5-13q0-8-5.5-13.5T144 208q-8 0-13.5 5.5T125 227zM300 39v94h-86l-30 21q-6 4-12 4t-11-2.5q-5-2.5-8-8t-3-11.5V39q0-13 9-22t22-9h88q13 0 22 9t9 22zm-25 0q0-2-2-4t-4-2h-88q-2 0-4 2t-2 4v91l31-22h69V39zM63 227q0 8 5 13t13 5q8 0 13.5-5t5.5-13q0-8-5.5-13.5T81 208q-8 0-13 5.5T63 227z"/></svg>