<svg viewBox="0 0 300 311" xmlns="http://www.w3.org/2000/svg"><path d="M213 133q-24 0-44 12t-32 32q-12 20-12 43.5t12 43.5q12 20 32 32t43.5 12q23.5 0 43.5-12t32-32q12-20 12-43.5T288 177q-12-20-32-32t-44-12h1zm0 150q-17 0-31.5-8.5t-23-23q-8.5-14.5-8.5-31t8.5-31q8.5-14.5 23-23t31-8.5q16.5 0 31 8.5t23 23q8.5 14.5 8.5 31t-8.5 31q-8.5 14.5-23 23T212 283h1zm12-68l21 22-17 17-29-28v-43h25v32zm-106 68H63q-6 0-9.5-3.5T50 270V83h150v25h25V83h25V58h-62V33q0-10-7.5-17.5T163 8H88q-11 0-18.5 7.5T63 33v25H0v25h25v187q0 16 11 27t27 11h79q-14-11-23-25zM88 33h75v25H88V33zM75 245V120h25v125H75z"/></svg>