<svg viewBox="0 0 300 311" xmlns="http://www.w3.org/2000/svg"><path d="M250 158h-32l24-90-52-15 6-33-77-12-68 12 5 33L3 68l25 90H1l24 120q2 13 12.5 21.5T61 308h189q21 0 35.5-14.5T300 258v-50q0-21-14.5-35.5T250 158zm25 50v12H125v-12q0-10 6.5-17t15.5-8h103q10 0 17.5 7t7.5 18zM212 85l-20 73h-20l14-80 26 7zm-45-44l-20 117h-27l22-122 25 5zm-63-4l6 35-13 71L80 41l24-5v1zM34 85l27-7 13 80H54L34 85zm-3 98h76q-7 11-7 25v50q0 14 7 25H61q-4 0-7.5-2.5T49 273l-18-90zm219 100H150q-10 0-17.5-7.5T125 258v-13h50l38 25 37-25h25v13q0 10-7.5 17.5T250 283z"/></svg>