<svg viewBox="0 0 300 311" xmlns="http://www.w3.org/2000/svg"><path d="M213 133q-24 0-44 12t-32 32q-12 20-12 43.5t12 43.5q12 20 32 32t43.5 12q23.5 0 43.5-12t32-32q12-20 12-43.5T288 177q-12-20-32-32t-44-12h1zm0 150q-17 0-31.5-8.5t-23-23q-8.5-14.5-8.5-31t8.5-31q8.5-14.5 23-23t31-8.5q16.5 0 31 8.5t23 23q8.5 14.5 8.5 31t-8.5 31q-8.5 14.5-23 23T212 283h1zm12-68l21 22-17 17-29-28v-43h25v32zm-106 68H79q-5 0-8.5-3t-3.5-8L46 83h183l-3 26q12 1 24 6l4-32h21V58h-75V33q0-10-7.5-17.5T175 8h-75q-10 0-17.5 7.5T75 33v25H0v25h21l21 192q1 14 12 23.5t25 9.5h63q-14-11-23-25zM100 33h75v25h-75V33z"/></svg>