<svg viewBox="0 0 300 311" xmlns="http://www.w3.org/2000/svg"><path d="M238 45q12-16 12-37h-25q0 16-11 26.5T187 45h-74q-16 0-27-10.5T75 8H50q0 21 13 38H0v12q1 21 12 38.5T41 124l34 148q1 15 11.5 25.5T112 308h76q15 0 25.5-10.5T225 272l34-148q18-10 29-27.5T300 58V45h-62zm-42 25q21 16 34 38-13-1-25.5 3.5t-22 13.5q-9.5 9-14.5 20.5t-6 25.5v62h-24v-63q-1-13-6-24.5T117.5 125q-9.5-9-22-13.5T70 108q13-22 34-38h92zM67 70Q55 83 47 98 33 87 27 71l40-1zm8 63q7 0 13 2-2 10 5 17.5t17 5.5q3 6 3 12v63q-11 0-20 6L69 133h6zm113 150h-75q-6 0-9.5-3.5t-3.5-9q0-5.5 3.5-9t9.5-3.5h75q5 0 8.5 3.5t3.5 9q0 5.5-3.5 9T188 283zm19-44q-9-6-19-6v-63q-1-6 2-12 10 2 17-5.5t5-17.5q10-3 19-2l-24 106zm46-141q-8-15-20-28h40q-6 17-20 28z"/></svg>