<svg viewBox="0 0 300 311" xmlns="http://www.w3.org/2000/svg"><path d="M50 83h63v35q10-12 25-18V83h62v12h25V60q0-10-5.5-19.5T204 27q-20-12-49.5-16t-59 0Q66 15 46 27q-10 4-15.5 13.5T25 60v60H0v25q0 11 7.5 18t17.5 7v75h25v25h25v-50H50v-50h38l10-25H50V83zm7-34q32-15 68-15t68 15q6 3 7 9H50q1-6 7-9zm243 184q0-28-11-53l-15-36q-4-11-13.5-17.5T240 120h-80q-11 0-20.5 6.5T126 144l-15 36q-11 25-11 53v50h25v25h50v-25h50v25h50v-25h25v-50zm-140-88h80q3 1 6.5 3t4.5 5l13 30H136l13-30q1-3 4.5-5t6.5-3zm115 113H125v-25q0-13 3-25h22v12q0 6 3.5 9.5t9 3.5q5.5 0 9-3.5t3.5-9.5v-12h50v12q0 6 3.5 9.5t9 3.5q5.5 0 9-3.5t3.5-9.5v-12h22q3 12 3 25v25z"/></svg>