<svg viewBox="0 0 300 311" xmlns="http://www.w3.org/2000/svg"><path d="M188 158q0 5-4 9t-9 3.5q-5-.5-9-4t-3.5-8.5q.5-5 4-9t8.5-4q5 0 9 4t4 9zm-38-50q-5 0-9 3.5t-3.5 9q.5 5.5 4 9t8.5 3.5q5 0 9-3.5t4-9q0-5.5-4-9t-9-3.5zm25-13q5 0 9-3.5t4-8.5q0-5-4-9t-9-3.5q-5 .5-9 4t-3.5 8.5q.5 5 4 9t8.5 4v-1zm-50 50q-5 0-8.5 4t-3.5 9q0 5 3.5 9t8.5 4q5 0 9-4t4-9q0-5-4-9t-9-4zm75-37q-5 0-9 3.5t-3.5 9q.5 5.5 4 9t8.5 3.5q5 0 9-3.5t4-9q0-5.5-4-9t-9-3.5zm63 12q0 32-17 59.5T200 221v2q0 15-11 26l-26 27v32h-25v-32l-27-27q-11-11-11-26v-2q-24-12-40-34t-20.5-48.5Q35 112 43 86t27-45q19-19 45-27.5t53-4q27 4.5 48.5 20t34 39.5Q263 93 263 120zm-88 100h-50v3q0 5 4 8l21 22 21-22q4-3 4-8v-3zm63-100q0-31-20.5-55.5t-52-30q-31.5-5.5-59 10T68 89.5Q57 119 67.5 149t37.5 47h90q20-12 31.5-32t10.5-44h1z"/></svg>