<svg viewBox="0 0 300 311" xmlns="http://www.w3.org/2000/svg"><path d="M88 145H63q-1-18 10-34t27-16q16 0 27 16t11 35h-25q0-10-5-17.5t-8-8q-3-.5-7.5 7.5T88 145zm75 0h25q0-9 4.5-16.5t7.5-8q3-.5 8 7.5t5 17h25q0-18-11-33.5t-27-16q-16-.5-27 15.5t-11 35l1-1zm-13 100q29 0 50-20 18-17 25-42-37 12-75 12t-75-12q7 25 25 42 21 20 50 20zM256 95q13 0 22.5-9t9.5-21q0-12-9-27-5-10-15-21l-8-9-8 9q-9 11-15 22-8 14-8 26t9 21.5q9 9.5 22 8.5zm35 13q-10 8-22 11 9 28 5 56.5t-20 53q-16 24.5-41.5 39T158 284q-29 2-56-9t-46.5-33q-19.5-22-27-50T26 135.5q5-28.5 23-52T93 47q26-13 55-13.5T203 45q4-12 11-23-30-14-62.5-14T89 21Q59 34 37.5 59t-31 56q-9.5 31-5 63.5t22 60Q41 266 68.5 284t59.5 22.5q32 4.5 64-4.5t56.5-30.5q24.5-21.5 38-51T300 158q0-26-9-50z"/></svg>