<svg viewBox="0 0 300 311" xmlns="http://www.w3.org/2000/svg"><path d="M300 283h-25V158q0-16-11-27t-27-11h-74V80q8-3 13.5-11t5.5-16.5q0-8.5-9-20.5-5-8-15-17l-8-7-8 7q-10 9-15 17-9 12-9 20.5t5.5 16.5q5.5 8 13.5 11v40H63q-16 0-27 11t-11 27v125H0v25h300v-25zM63 145h175q5 0 8.5 4t3.5 9v37q-8-1-13.5-5t-5.5-7h-25q0 4-6 8.5t-15.5 4Q175 195 169 191t-6-8h-25q0 4-6.5 8.5t-16 4Q106 195 100 191t-6-8H69q0 3-5.5 7T50 195v-37q0-5 3.5-9t8.5-4h1zm-13 75q18-1 31-12 15 12 34.5 12.5T150 208q15 13 34.5 12.5T219 208q13 11 31 12v63H50v-63z"/></svg>