<svg viewBox="0 0 300 311" xmlns="http://www.w3.org/2000/svg"><path d="M150 8q-41 0-75.5 20T20 82.5Q0 117 0 158t20 75.5Q40 268 74.5 288t75.5 20q41 0 75.5-20t54.5-54.5q20-34.5 20-75.5t-20-75.5Q260 48 225.5 28T150 8zm0 25q38 0 69 20.5t46 54.5h-18q-6-17-20.5-27.5T194 70q-13 1-24.5 6.5T150 91q-8-9-19.5-15T106 70q-18 0-32.5 10.5T53 108H35q15-34 46-54.5T150 33zm0 175q-10 0-23.5-6T113 191q0-5 4-9 20-4 33-20 13 16 33 20 4 4 4 9t-14 11q-14 6-23 6zm-44-50q-13 0-22-9t-9-22q0-13 9-22t22-9.5q13-.5 22.5 9T138 127q0 13-9.5 22t-22.5 9zm88 0q-13 0-22-9t-9-22q0-13 9-22t22-9.5q13-.5 22 9t9 22.5q0 13-9 22t-22 9zm-44 125q-34 0-62.5-17T42 220.5Q25 192 25 158q0-13 3-25h22q2 17 12.5 29.5T89 180q-1 6-2 11 1 4 1 7l-17 13 15 20 18-13q5 4 12 7l-7 23 23 8 8-24q6 1 10 1t10-1l8 24 24-8-9-24q7-3 13-6l19 13 14-20-17-13q1-3 1-7.5t-2-10.5q16-5 26.5-17.5T250 133h23q2 12 2 25 0 34-17 62.5T212.5 266Q184 283 150 283zm-31-156q0 5-4 8.5t-9 3.5q-5 0-8.5-3.5T94 127q0-5 3.5-9t8.5-4q5 0 9 4t4 9zm87 0q0 5-3.5 8.5T194 139q-5 0-9-3.5t-4-8.5q0-5 4-9t9-4q5 0 8.5 4t3.5 9z"/></svg>