<svg viewBox="0 0 300 311" xmlns="http://www.w3.org/2000/svg"><path d="M225 77q0 8-5.5 13.5T206 96q-8 0-13-5.5T187.5 77q-.5-8 5-13.5T206 58q8 0 13.5 5.5T225 77zm75 12v19l-25 11v26q0 31-13 58.5t-35.5 47Q204 270 175 278v30h-25v-26l-13 1-12-1v26h-25v-30q-29-8-51.5-27.5t-35.5-47Q0 176 0 145V95h25v7q0 18 13 30.5T69 145q18 0 31-12.5t13-30.5V89q-1-22 10-40.5T153 19q19-11 40-11t38.5 9.5Q249 27 260.5 43T274 78l26 11zM54 220h2q24 0 40-16t16-40v-9q-19 15-43.5 15T25 155q4 37 29 65zM250 89q0-23-16.5-39.5t-40-16.5Q170 33 154 49.5T138 89v75q0 27-16.5 48.5T80 242q27 16 57.5 16t56.5-15q26-15 41-41t15-57V89z"/></svg>