<svg viewBox="0 0 300 311" xmlns="http://www.w3.org/2000/svg"><path d="M25 39q0-13 9-22t22-9q13 0 22 9t9.5 22q.5 13-9 22.5t-22.5 9Q43 70 34 61t-9-22zM175 8l50 31-50 31v38h-75v200H75v-75H50v75H25v-75H0V127q0-16 11-30t27-14h112V8h25zM75 108H38q-4 0-8.5 6T25 127v81h50V108zm113 75q12 0 21.5-9t9.5-22q0-13-9.5-22.5t-22-9q-12.5.5-22 9.5t-9.5 22q0 13 9.5 22t22.5 9zm37 44v81h-25v-25h-25v25h-25v-81q0-13 9-22.5t22-9.5h13q13 1 22 10t9 22zm-25 0q0-3-2-5t-4-2h-13q-2 0-4 2t-2 5v31h25v-31zm94-125q0-13-9.5-22.5t-22-9.5q-12.5 0-22 9.5T231 102q0 13 9.5 22t22 9q12.5 0 22-9t9.5-22zm-25 43h-13q-6 1-12 3v4q0 9-3 18h28q2 0 4 2t2 5v31h-28q3 9 3 19v6h25v25h25v-81q0-13-9-22.5t-22-9.5z"/></svg>