<svg viewBox="0 0 300 311" xmlns="http://www.w3.org/2000/svg"><path d="M263 233v-63q-1-30-16-56t-40.5-41Q181 58 150 58T93.5 73q-25.5 15-41 41T37 170v63q-15 0-26 11T0 270v38h300v-38q0-15-11-26t-27-11h1zM63 170q-1-23 11-43t32-32q20-12 44-12t44 12q20 12 31.5 32t11.5 43v63H63v-63zm212 113H25v-13q0-5 3.5-8.5T38 258h225q5 0 8.5 3.5t3.5 8.5v13zM29 91L0 63l18-18 28 28-17 18zm43-39L57 18 80 8l15 34-23 10zm199 39l-17-18 29-28 17 18-29 28zm-43-39l-23-10 15-34 23 10-15 34zm-78 69v25q-10 0-17.5 7t-7.5 18h-25q0-21 14.5-35.5T150 121z"/></svg>