<svg viewBox="0 0 300 311" xmlns="http://www.w3.org/2000/svg"><path d="M113 145H50v-25h63v25zm169 163l-39-39q-19 14-43 14-20 0-37.5-10T135 245.5Q125 228 125 208t10-37.5q10-17.5 27.5-27.5t37.5-10q20 0 37.5 10t27.5 27.5q10 17.5 10 37.5 0 24-14 43l39 39-18 18zm-73-70l45-46-17-18-45 47-28-29-17 18 27 28q7 7 17.5 7.5T209 239v-1zM50 170v25h51q1-12 6-25H50zm0 50v25h57q-5-12-6-25H50zm84 63q13 12 30 18.5t36 6.5H0V45q0-15 11-26T38 8h117l95 95v17H138V33H38q-6 0-9.5 3.5T25 45v238h109zm29-188h44l-44-44v44z"/></svg>