<svg viewBox="0 0 300 311" xmlns="http://www.w3.org/2000/svg"><path d="M260 86q-6-19-22-30.5T202 46q-11-21-32.5-31t-45-6q-23.5 4-40 21T64 71q-18-1-32.5 7.5t-23 23Q0 116 0 133q0 32 19 51.5T73 207q15 43 15 88v13h125v-13q-2-52 20-101 5 1 11 2 21 0 36.5-14t18.5-34.5q3-20.5-8-38T260 86zm-72 197h-76q-1-39-13-76 17-4 32-13l6 4v60h26v-51q6 1 12 1 15 0 28-6-14 39-15 81zm56-113q-13 0-22-9t-10-22v-6h-24v6q-1 20 11 35-10 9-24 9-19 1-33-13l-7-8-10 6q-16 13-37 15-27 0-42-10-21-12-21-40 0-16 11-27t26.5-10.5Q78 96 89 107t11 26h25q0-18-10-34T88 76q2-17 14.5-28.5t29-13.5q16.5-2 31 6.5T184 64l4 10 10-2q4-1 8-1 12 0 21 7.5T237 98l1 9 10 1q12 2 20 11.5t7 22q-1 12.5-10 21t-21 8.5v-1z"/></svg>