<svg viewBox="0 0 300 311" xmlns="http://www.w3.org/2000/svg"><path d="M283 133q5-12 5-25 0-24-15.5-41.5T235 46l4-3q5-6 8-15 2-6 3-14V8h-6q-8 1-14 3-9 3-15 8l-2 3q-3-6-6-13l-22 12q6 12 8 25h-9q-19 0-34 11-12-9-27-11l3-3q6-6 9-15 2-6 2-14l1-6h-7q-7 1-14 3-9 3-15 8l-2 3q-2-6-6-13L72 21q7 12 8 25h-8q-16 0-30 8T20.5 76.5Q13 91 13 108q0 13 5 25H0v137q0 16 11 27t27 11h225q15 0 26-11t11-27V133h-17zm-55-62q14 0 24.5 11t10.5 25.5q0 14.5-9 25.5h-84q5-12 5-25 0-17-8-32 8-5 17-5h44zM38 108q0-15 10-26t24-11h44q14 0 24 11t10 25.5q0 14.5-9 25.5H46q-8-11-8-25zm237 162q0 6-3.5 9.5T263 283H38q-6 0-9.5-3.5T25 270v-12h225v-25H25v-25h225v-25H25v-25h250v112z"/></svg>