<svg viewBox="0 0 300 311" xmlns="http://www.w3.org/2000/svg"><path d="M175 58q0-5 3.5-9t8.5-4q5 0 9 4t4 9q0 5-4 9t-9 4q-5 0-8.5-4t-3.5-9zm-3 62q-27 1-50 16 12 11 28 9v25q-13 1-25-3t-21-13q-9 11-13 26 20 15 46 16v24q-26 0-49-13 1 21 12 38.5t29 27.5q18 10 39 10l111-68 7 12q11 20 14 43 0 16-11 27t-27 11H150q-31 0-58.5-11.5T43 263q-21-22-32.5-50T0 155q1-41 22.5-74.5t56-53Q113 8 154 8h146v25h-26q-4 25-18.5 45T219 109.5Q197 121 172 120zm46 163h44q5 0 9-3.5t4-9.5q-2-10-6-19l-51 32zM82 263q-21-29-20-65l1-3-8 1q-14 0-26-5 9 31 32 55 9 9 21 17zm0-121q-15-5-26-15t-18-24q-13 25-13 52 4 7 11 12 13 6 32 2 5-14 14-27zm47-38q-13-13-16-31.5t6-34.5Q82 48 56 77q2 17 15 29.5t30 14.5q13-10 28-17zm39-9h7q27 0 48-17.5T249 33h-81q-13 0-22 9t-9 22q0 13 9 22.5t22 9.5v-1z"/></svg>