<svg viewBox="0 0 300 311" xmlns="http://www.w3.org/2000/svg"><path d="M213 133q-24 0-44 12t-32 32q-12 20-12 43.5t12 43.5q12 20 32 32t43.5 12q23.5 0 43.5-12t32-32q12-20 12-43.5T288 177q-12-20-32-32t-43-12zm0 150q-17 0-31.5-8.5t-23-23q-8.5-14.5-8.5-31t8.5-31q8.5-14.5 23-23t31-8.5q16.5 0 31 8.5t23 23q8.5 14.5 8.5 31t-8.5 31q-8.5 14.5-23 23T212 283h1zm12-75h25v25h-25v25h-25v-25h-25v-25h25v-25h25v25zm-124 25H30l21-129q1-9 8-15t16-6h125q9 0 16 6t8 15l1 5q14 1 27 6l-3-16q-3-18-17-29.5T200 58h-2q2-6 2-12 0-16-11-27T163 8h-50Q97 8 86 19T75 46q0 6 2 12h-2q-18 0-32 11.5T26 100L1 258h87q0 21 14.5 35.5T138 308h4q-17-14-28-33.5T101 233zm-1-187q0-6 3.5-9.5T113 33h50q5 0 8.5 3.5t3.5 9q0 5.5-3.5 9T162 58h-49q-6 0-9.5-3.5T100 46z"/></svg>