<svg viewBox="0 0 300 311" xmlns="http://www.w3.org/2000/svg"><path d="M84 220q7 0 16-1 17-4 35.5-15t34.5-26q29-30 39-63 4-16 3-29t-7.5-19.5q-6.5-6.5-17.5-8T163 60q-18 4-36 14.5T93 101q-29 29-39 63-5 16-3.5 28.5T58 212q9 9 26 8zm27-101q13-14 28-23t29-12q6-1 10.5-1t7.5 1q3 3 1 14-2 14-10 28-9 18-25 34-13 13-28 22t-29 12q-8 2-14 2-3-1-5-1-2-4 0-15 2-13 9-27 10-18 26-34zm144-75l-17-15q-20-19-51-21t-65 13.5Q88 37 58.5 66.5t-45 63.5Q-2 164 0 195t20 51l16 17q22 22 50.5 33.5t59 11.5q30.5 0 59-11.5T255 263q22-22 33.5-50.5t11.5-59q0-30.5-11.5-59T255 44zM76 84q24-24 52.5-37.5t54-13.5q25.5 0 40 15t15 40q.5 25-13 53.5t-38 53q-24.5 24.5-53 38t-53.5 13q-25-.5-40-15T25 191q0-25 13.5-53.5T76 84zm161 161q-29 30-70 36.5T90 270q28-2 58-17t56-41q26-26 41-56t17-58q13 26 13 56 0 25-10 49t-28 42z"/></svg>