<svg viewBox="0 0 300 311" xmlns="http://www.w3.org/2000/svg"><path d="M150 208q-21 0-35.5-14.5T100 158q0-21 14.5-35.5T150 108q21 0 35.5 14.5T200 158q0 21-14.5 35.5T150 208zm0-75q-10 0-17.5 7.5T125 158q0 10 7.5 17.5T150 183q10 0 17.5-7.5T175 158q0-10-7.5-17.5T150 133zm0 175q-21 0-38-13t-22-33q-21 4-40-4t-29-26q-10-18-7.5-39T31 157q-15-15-17.5-35.5T21 83q10-18 29.5-26.5T90 53q6-20 22.5-32.5T150 8q21 0 37.5 12.5T210 53q20-5 39.5 3.5T279 83q10 18 7.5 38.5T269 157q15 15 17.5 36t-7.5 39q-10 18-29 26t-40 4q-5 20-22 33t-38 13zm-37-86l-1 25q1 15 12 26t26.5 10.5Q166 283 177 272t10-27v-23l19 11q14 8 28.5 4t22.5-17.5q8-13.5 3.5-28.5T243 168l-20-11 20-11q9-4 14-13t5.5-19q.5-10-4.5-19t-14-14q-9-5-19-5t-19 5l-18 11V70q0-15-11-26t-27-11q-16 0-27 11t-10 27v21L94 81q-9-5-19-5t-19 5q-9 5-14 14t-4.5 19q.5 10 5.5 19t14 13l20 11-20 11q-13 8-17.5 23t3.5 28.5Q51 233 65.5 237t28.5-4l19-11z"/></svg>