<svg viewBox="0 0 300 311" xmlns="http://www.w3.org/2000/svg"><path d="M182 232q-10-9-22-14l71-71q6 12 10 26l-59 59zM125 58q-26 0-46 16L66 87q-16 20-16 46v5l80-80h-5zm123 147l-46 46q6 8 17 7 8 0 16-5l10-10q5-8 5-16 0-11-2-22zM162 66L59 169q5 12 15 21L184 79q-10-8-22-13zm42 33L98 205q7 3 15 3t16 1l89-89q-7-11-14-21zm96 128q0-30-10-66-11-39-32-71-23-37-54-58-36-24-79-24-34 0-62.5 17T17 70.5Q0 99 0 132.5t15.5 62Q31 223 57 240.5t56 17.5q13-1 26 5t21 17q10 14 26 21t33 7q22 0 40.5-11t29.5-29.5q11-18.5 11-40.5zm-25 0q0 23-16.5 39.5T219 283q-12 1-23-4.5T178 263q-12-15-29-23t-37-7.5q-20 .5-40.5-13T38 183q-13-23-13-50t13.5-50Q52 60 75 46.5T125 33q38 0 69 22 26 19 46 53 17 29 27 64 8 31 8 55z"/></svg>