<svg viewBox="0 0 300 311" xmlns="http://www.w3.org/2000/svg"><path d="M63 60V8H38v52q-14 4-23 15.5t-9 26Q6 116 15 128t23 16v164h25V144q13-4 22-16t9-26.5q0-14.5-9-26T63 60zm-13 60q-8 0-13.5-5T31 102q0-8 5.5-13.5T50 83q8 0 13.5 5.5T69 102q0 8-5.5 13T50 120zm113 52V8h-25v164q-14 4-23 16t-9 26.5q0 14.5 9 26t22 15.5v52h26v-52q13-4 22-15.5t9-26q0-14.5-9-26.5t-22-16zm-13 61q-8 0-13.5-5.5T131 214q0-8 5.5-13.5T150 195q8 0 13.5 5.5T169 214q0 8-5.5 13.5T150 233zm144-131q0-15-9-26.5T262 60V8h-24v52q-14 4-23 15.5t-9 26q0 14.5 9 26.5t22 16v164h26V144q13-4 22-16t9-26zm-44 18q-8 0-13.5-5t-5.5-13q0-8 5.5-13.5T250 83q8 0 13.5 5.5T269 102q0 8-5.5 13t-13.5 5z"/></svg>