<svg viewBox="0 0 300 311" xmlns="http://www.w3.org/2000/svg"><path d="M38 27q0 8-5.5 13T19 45q-8 0-13.5-5T0 27q0-8 5.5-13.5T19 8q8 0 13.5 5.5T38 27zM19 70q-8 0-13.5 5.5T0 89q0 8 5.5 13.5T19 108q8 0 13.5-5.5T38 89q0-8-5.5-13.5T19 70zm262 0q-8 0-13 5.5T263 89q0 8 5 13.5t13 5.5q8 0 13.5-5.5T300 89q0-8-5.5-13.5T281 70zM19 208q-8 0-13.5 5.5T0 227q0 8 5.5 13t13.5 5q8 0 13.5-5t5.5-13q0-8-5.5-13.5T19 208zm262 0q-8 0-13 5.5t-5 13.5q0 8 5 13t13 5q8 0 13.5-5t5.5-13q0-8-5.5-13.5T281 208zm0-200q-8 0-13 5.5T263 27q0 8 5 13t13 5q8 0 13.5-5t5.5-13q0-8-5.5-13.5T281 8zm-62 0q-8 0-13.5 5.5T200 27q0 8 5.5 13t13.5 5q8 0 13.5-5t5.5-13q0-8-5.5-13.5T219 8zm-69 0q-8 0-13.5 5.5T131 27q0 8 5.5 13t13.5 5q8 0 13.5-5t5.5-13q0-8-5.5-13.5T150 8zM81 8q-8 0-13 5.5T63 27q0 8 5 13t13 5q8 0 13.5-5t5.5-13q0-8-5.5-13.5T81 8zM19 139q-8 0-13.5 5.5T0 158q0 8 5.5 13.5T19 177q8 0 13.5-5.5T38 158q0-8-5.5-13.5T19 139zm262 0q-8 0-13 5.5t-5 13.5q0 8 5 13.5t13 5.5q8 0 13.5-5.5T300 158q0-8-5.5-13.5T281 139zm-62 0q-8 0-13.5 5.5T200 158q0 8 5.5 13.5T219 177q8 0 13.5-5.5T238 158q0-8-5.5-13.5T219 139zm-69 0q-8 0-13.5 5.5T131 158q0 8 5.5 13.5T150 177q8 0 13.5-5.5T169 158q0-8-5.5-13.5T150 139zm-69 0q-8 0-13 5.5T63 158q0 8 5 13.5t13 5.5q8 0 13.5-5.5T100 158q0-8-5.5-13.5T81 139zM19 270q-8 0-13.5 5.5T0 289q0 8 5.5 13.5T19 308q8 0 13.5-5.5T38 289q0-8-5.5-13.5T19 270zm262 0q-8 0-13 5.5t-5 13.5q0 8 5 13.5t13 5.5q8 0 13.5-5.5T300 289q0-8-5.5-13.5T281 270zm-62 0q-8 0-13.5 5.5T200 289q0 8 5.5 13.5T219 308q8 0 13.5-5.5T238 289q0-8-5.5-13.5T219 270zm-69 0q-8 0-13.5 5.5T131 289q0 8 5.5 13.5T150 308q8 0 13.5-5.5T169 289q0-8-5.5-13.5T150 270zm-69 0q-8 0-13 5.5T63 289q0 8 5 13.5t13 5.5q8 0 13.5-5.5T100 289q0-8-5.5-13.5T81 270zm88-43q0-8-5.5-13.5T150 208q-8 0-13.5 5.5T131 227q0 8 5.5 13t13.5 5q8 0 13.5-5t5.5-13zm0-138q0-8-5.5-13.5T150 70q-8 0-13.5 5.5T131 89q0 8 5.5 13.5T150 108q8 0 13.5-5.5T169 89z"/></svg>