<svg viewBox="0 0 300 311" xmlns="http://www.w3.org/2000/svg"><path d="M263 8H38Q22 8 11 19T0 46v262h300V45q0-15-11-26T262 8h1zm12 275H25V45q0-5 3.5-8.5T38 33h225q5 0 8.5 3.5T275 45v238zm-137-75v-50l-48-36 15-20 45 34 45-34 15 20-47 36v50h-25zm62 0q0 21-14.5 35.5T150 258q-21 0-35.5-14.5T100 208q0-14 7-25t18-18v43q0 10 7.5 17.5T150 233q10 0 17.5-7.5T175 208v-43q11 7 18 18t7 25zm-88-54q-13 6-28 3t-25-14q-15-14-15-35t14.5-35.5Q73 58 94 58t35 15q9 8 12.5 19.5T143 116q-27-21-31-26-8-7-18-7t-17.5 7.5Q69 98 69 108t7 18q5 5 36 28zm130-81q14 14 14 35t-14 35q-11 11-25.5 14t-28.5-3q31-24 36-28 7-8 7-18t-7-17.5q-7-7.5-17.5-7.5T189 90q-5 5-32 26-2-12 1.5-23.5T171 73q15-15 35.5-15T242 73z"/></svg>