<svg viewBox="0 0 300 311" xmlns="http://www.w3.org/2000/svg"><path d="M237 130q0-23-12-42.5t-32-31Q173 45 150 45t-43 11.5Q87 68 75 87.5T63 130q-35 11-51 28-12 13-12 28 0 21 19.5 37t54 25.5Q108 258 150 258t76.5-9.5q34.5-9.5 54-25.5t19.5-37q0-15-12-28-16-17-51-28zm-149 3q0-17 8-31.5T118.5 79q14.5-8 31.5-8t31.5 8q14.5 8 22.5 22.5t8 31.5v2q-20 10-62 10t-62-10v-2zm62 100q-34 0-64-7-28-7-44.5-18T25 186q0-8 12-16.5T71 154q9 6 25 10 23 7 54 6.5t54-6.5q16-4 25-10 22 7 34 15.5t12 16.5q0 11-16.5 22T214 226q-30 7-64 7zm19-31q0 8-5.5 13.5t-13.5 5q-8-.5-13.5-5.5t-5.5-13q0-8 5.5-13.5T150 183q8 0 13.5 5.5T169 202zm-69-13q0 8-5.5 13.5T81 208q-8 0-13-5.5T63 189q0-8 5-13.5t13-5q8 .5 13.5 5.5t5.5 13zm138 0q0 8-5.5 13.5T219 208q-8 0-13.5-5.5T200 189q0-8 5.5-13.5t13.5-5q8 .5 13.5 5.5t5.5 13z"/></svg>