<svg viewBox="0 0 300 311" xmlns="http://www.w3.org/2000/svg"><path d="M0 270q0 16 11 27t27 11h225q15 0 26-11t11-27V170H0v100zm63-75h25v25q0 6-4 9.5t-9 3.5q-5 0-8.5-3.5T63 221v-26zm50 0h25v25q0 6-4 9.5t-9 3.5q-5 0-8.5-3.5T113 221v-26zm50 0h25v25q0 6-4 9.5t-9 3.5q-5 0-8.5-3.5T163 221v-26zm50 0h25v25q-1 6-4.5 9.5T225 233q-5 0-9-3.5t-4-8.5v-26h1zm-188 0h13v25q0 16 10.5 27T74 258q15 0 26-10 11 10 25 10t25-10q11 10 25 10t25-10q11 10 26 10t25.5-11q10.5-11 10.5-27v-25h13v75q0 6-3.5 9.5T263 283H38q-6 0-9.5-3.5T25 270v-75zM263 8H38Q22 8 11 19T0 46v99h300V45q0-15-11-26T262 8h1zM138 120h-25V83q0-5 3.5-8.5t8.5-4q5-.5 8.5 3.5t4.5 9v37zm-50 0H63V95q0-5 3.5-8.5T75 83q5 0 8.5 3.5T87 96v24h1zm75 0V83q0-5 3.5-8.5t8.5-4q5-.5 9 3.5t4 9v37h-25zm50 0V95q0-5 3.5-8.5T225 83q5 0 9 3.5t4 9.5v24h-25zm62 0h-12V95q0-15-11-26t-27-11q-10 0-18 5-6-8-14-12.5T175 46q-14-1-25 9-11-9-25-9-10-1-18 4T93 63q-8-5-18-5-16 0-27 11T37 95v25H25V45q0-5 3.5-8.5T37 33h226q5 0 8.5 3.5T275 46v74z"/></svg>