<svg viewBox="0 0 300 311" xmlns="http://www.w3.org/2000/svg"><path d="M75 189l44 44H75v-44zm63-19h43l-43-43v43zm-63 0h44l-44-43v43zm63 63h43l-43-44v44zm148-110l9 14-16 4q-19 5-51 8 16 32 4 64-10 24-38 52-20 20-37 30-22 13-43 13-37 0-75-39-31-31-37-61-6-25 8-51 10-20 33-43 28-28 52-38 32-12 64 4 3-32 8-51l4-16 14 9q7 4 14 9 5-7 10-13l10-10 9 10q6 7 10 15 17-8 33-10l17-3-3 17q-2 16-10 33 8 4 15 10l10 9-10 10q-6 5-13 10 5 7 9 14zm-105 4q-31-32-58-32-15 0-30 10-14 9-32 26-22 22-30 39-9 19-3.5 38.5t29 43q23.5 23.5 43 29T138 277q17-8 38.5-30t30.5-38q9-19 3.5-38.5T181 127zm56-27q12-5 23-10-4-2-20-8l8-14q3-5 7-15-9 3-15 7l-14 8-8-20q-2 4-10 23l-21-17q-2 18-4 41 9 7 16 14.5t14 15.5q23-2 41-4l-17-21z"/></svg>