<svg viewBox="0 0 300.0012 311" xmlns="http://www.w3.org/2000/svg"><path d="M300 158q0 53-28 87-23 29-66 44-34 13-82 17-27 2-72 2-22 0-37-15T0 256q0-15 9-28 2-5 21-19 22-18 22-50t14.5-58.5q14.5-26.5 39-44T160 35q5 11 9 25-25 1-46 14.5T89.5 110Q77 132 77 158q0 45-32 70-14 11-16 14-4 6-4 14 0 11 8 19t19 8q67 0 109-8 54-10 82-36 32-29 32-81 0-18-7-36 12-5 22-13 10 23 10 49zM200 96q0-23-8-47-4-15-12-28l22-12q8 14 13 30 4-5 8-9 15-15 41-20 14-2 24-1h11l1 11q1 11-2 24-5 26-20 42-13 13-35 19-14 3-28 3h-14l-1-12zm26-13q23-3 34.5-15T275 34q-23 2-34.5 14T226 83zm5 63q-8 0-13.5 5.5t-5.5 13q0 7.5 5.5 13T231 183q8 0 13.5-5.5t5.5-13q0-7.5-5.5-13T231 146zm-37 50q-8 0-13.5 5.5t-5.5 13q0 7.5 5.5 13t13 5.5q7.5 0 13-5.5t5.5-13q0-7.5-5.5-13T194 196z"/></svg>