<svg viewBox="0 0 300 311" xmlns="http://www.w3.org/2000/svg"><path d="M226 195h24v-27l-1-2q-13-33-21-50-12-25-21-37-20-26-50.5-38T93 35q-18 3-35 14L18 8 1 26l281 281 17-17-75-76 2-18v-1zM98 59q25-4 49 5t40 30q13 17 37 76h-20l-3 21L77 67q10-5 21-8zm152 149q5 0 9 3.5t4 9q0 5.5-4 9t-9 3.5q-5 0-9-3.5t-3.5-9q.5-5.5 4-9t8.5-3.5zm50 37q0 6-3.5 9.5t-9 3.5q-5.5 0-9-3.5t-3.5-9q0-5.5 3.5-9t9-3.5q5.5 0 9 3.5t3.5 8.5zm-25-50q0-5 3.5-8.5t9-3.5q5.5 0 9 3.5t3.5 9q0 5.5-3.5 9t-9 3.5q-5.5 0-9-3.5T275 195zm-104 38l24 23q-6 2-10 2h-22v25H38v-48q0-9-7-16Q3 186 .5 150.5T21 83l18 18q-19 28-12 59 6 22 23 43 12 14 12 32v23h75v-25h34z"/></svg>