<svg viewBox="0 0 301 311" xmlns="http://www.w3.org/2000/svg"><path d="M238 258h-25v-25h25v25zM45 170L1 215l18 18 19-20v95h25V170H44h1zm56-75q0 21-14.5 35.5T51 145q-21 0-35.5-14.5T1 95V58q0-21 14.5-35.5T51 8q21 0 35.5 14.5T101 58v37zM76 58q0-10-7.5-17.5T51 33q-10 0-17.5 7.5T26 58v37q0 11 7.5 18t17.5 7q10 0 17.5-7T76 95V58zm225 125v87q0 16-11 27t-27 11h-75q-15 0-26-11t-11-27v-87h25v-13q0-20 14.5-35t35.5-15q21 0 35.5 15t14.5 35v13h25zm-100 0h50v-13q0-10-7.5-17.5T226 145q-10 0-17.5 7.5T201 170v13zm75 25H176v62q0 6 3.5 9.5t8.5 3.5h75q6 0 9.5-3.5t3.5-9.5v-62zm-150-31q-12 7-18.5 18.5T101 220v38q0 17 10 30t26 18q-11-16-11-36v-93zM170 8l-44 45 18 17 19-20v80q10-16 25-24V8h-19 1z"/></svg>