<svg viewBox="0 0 300 311" xmlns="http://www.w3.org/2000/svg"><path d="M300 133q0-17-8.5-31.5t-23-22.5Q254 71 238 71h-25V58q-1-16-11.5-26.5T175 21h-22q9 11 15 24h7q5 0 8.5 4t3.5 9v162H25v-50q-14-9-25-21v96h25v7q0 18 13 30.5T69 295q18 0 31-12.5t13-30.5l-1-7h76l-1 7q1 18 13.5 30.5T231 295q18 0 31-12.5t13-30.5v-7h25V133zM88 252q0 8-5.5 13.5t-13.5 5q-8-.5-13.5-5.5T50 252q0-3 1-7h35q2 4 2 7zM238 95q15 1 26 11.5t11 26.5v12h-62V95h25zm12 157q0 8-5.5 13.5t-13.5 5q-8-.5-13-5.5t-5-13q0-3 1-7h35q1 4 1 7zm-37-32v-50h62v50h-62zM75 158q20 0 37.5-10t27.5-27.5Q150 103 150 83t-10-37.5Q130 28 112.5 18T75 8Q55 8 37.5 18T10 45.5Q0 63 0 83t10 37.5Q20 138 37.5 148T75 158zm0-125q21 0 35.5 14.5T125 83q0 21-14.5 35.5T75 133q-21 0-35.5-14.5T25 83q0-21 14.5-35.5T75 33zm13 81L63 88V45h25v33l18 18-18 18z"/></svg>