<svg viewBox="0 0 300 311" xmlns="http://www.w3.org/2000/svg"><path d="M211 90q-13-10-30-6l-16 5q-8 3-15 9-7-6-15-9l-16-5q-17-4-30.5 6T75 117v95l75 22 75-22v-95q0-17-14-27zm-73 114l-38-11v-76q0-4 3.5-7t8.5-2l16 5q4 1 7 4.5t3 8.5v78zm62-11l-37 11v-78q0-5 2.5-8.5t6.5-4.5l16-5q5-1 8.5 2t3.5 7v76zM150 8q-41 0-75.5 20T20 82.5Q0 117 0 158t20 75.5Q40 268 74.5 288t75.5 20q41 0 75.5-20t54.5-54.5q20-34.5 20-75.5t-20-75.5Q260 48 225.5 28T150 8zm0 275q-34 0-62.5-17T42 220.5Q25 192 25 158t17-62.5Q59 67 87.5 50T150 33q34 0 62.5 17T258 95.5q17 28.5 17 62.5t-17 62.5Q241 249 212.5 266T150 283z"/></svg>