<svg viewBox="0 0 300 311" xmlns="http://www.w3.org/2000/svg"><path d="M150 258q-27 0-50-13.5T63.5 208Q50 185 50 158q1-38 22-64 19-23 48.5-31t59 0Q209 71 228 94q21 26 22 64 0 27-13.5 50T200 244.5Q177 258 150 258zm0-175q-28 1-48 17-17 14-23 36t0 44q6 22 23 36 20 16 48 16t48-16q17-14 23-36t0-44q-6-22-23-36-20-16-48-17zm13 25h-25v62h25v-62zm0 75h-25v25h25v-25zm137-25q0-26-9-50.5T266 63l-20 15q19 23 25.5 51.5t0 57Q265 215 246 238l20 15q16-20 25-44.5t9-50.5zM54 238q-19-23-25.5-51.5t0-57Q35 101 54 78L34 63Q12 90 4 124t0 68q8 34 30 61l20-15z"/></svg>