<svg viewBox="0 0 300 311" xmlns="http://www.w3.org/2000/svg"><path d="M300 158q0-20-3-37-2-8-3-13l-33 29q-5-25-21-46t-39.5-33.5Q177 45 150 45T99.5 57.5Q76 70 60 91t-21 46L6 108l-1 6q-2 8-3 17-2 13-2 27 0 19 3 37 2 8 3 13l33-30q5 26 21 47t39.5 33q23.5 12 50.5 12t50.5-12q23.5-12 39.5-33t21-47l33 30 1-6q2-8 3-17 2-13 2-27zm-238 0q0-24 12-44t32-32q20-12 44-12 14 0 28 5L67 186q-5-14-5-28zm17 51L201 87q12 8 20 20L99 229q-12-8-20-20zm71 36q-14 0-28-4l111-111q4 14 4 28 0 24-11.5 44T194 233.5Q174 245 150 245z"/></svg>