<svg viewBox="0 0 301 311" xmlns="http://www.w3.org/2000/svg"><path d="M113 145q0 19 12.5 31.5T156 189q18 0 31-12.5t13-31q0-18.5-13-31T156 102q-18 0-30.5 12.5T113 145zm62 0q0 8-5.5 13.5T156 164q-8 0-13-5.5t-5-13q0-7.5 5-13t13-5.5q8 0 13.5 5.5T175 146v-1zm119 83l-41-41-18 17 29 29H87q-2-14-12.5-24.5T50 196V95q14-2 24.5-12.5T87 58h126q2 16 14.5 26.5T257 95q17 0 30-12.5T300 52q0-18-13-31T256 8q-13 0-23.5 7T217 33H83q-5-11-15.5-18T44 8Q26 8 13 21T0 52q0 13 7 23.5T25 91v109q-11 5-18 15.5T0 239q0 18 13 31t31 13q13 0 23.5-7T83 258h181l-29 29 18 17 41-41q7-7 7-17.5t-7-17.5zM256 33q8 0 13.5 5.5T275 52q0 8-5.5 13T256 70q-8 0-13-5t-5-13q0-8 5-13.5t13-5.5zM44 33q8 0 13.5 5.5t5 13.5Q62 60 57 65.5t-13 5Q36 70 30.5 65T25 52q0-8 5.5-13.5T44 33zm0 225q-8 0-13.5-5.5T25 239q0-8 5.5-13.5T44 220q8 0 13.5 5.5T63 239q0 8-5.5 13.5T44 258z"/></svg>