<svg viewBox="0 0 300 311" xmlns="http://www.w3.org/2000/svg"><path d="M150 33V8q39 0 72 18t53.5 49.5Q296 107 299 145q-12-9-26-11-6-28-23.5-51.5T206 46q-26-13-56-13zm0 250q-34 0-62.5-17T42 220.5Q25 192 25 158H0q0 41 20 75.5T74.5 288q34.5 20 75.5 20 33 0 62-13.5t50-36.5q-15 0-28-7-17 15-38.5 23.5T150 283zM79 125l-18 17q7 8 17.5 12t20.5 4q22 0 38-16l-18-18q-10 11-23 9-10-1-17-8zm124 8q-12 1-21-9l-18 18q16 16 38 16h3q20-1 35-16l-18-18q-7 8-19 9zm-189 0L0 8l125 14v11q0 22-15.5 45.5t-39 39Q47 133 25 133H14zm14-97l8 70q19-5 38-24t24-38l-70-8zm235 122q-16 0-28 11l18 18q4-4 9.5-4t9 3.5q3.5 3.5 3.5 9t-3.5 9Q268 208 262 208h-76q2-3 2-6-1-8-6-13.5t-13-5.5h-44v25h25v25h-25v25h44q8 0 13.5-5.5T188 239q0-3-2-6h77q15 0 26-11t11-26.5q0-15.5-11-26.5t-27-11h1z"/></svg>