<svg viewBox="0 0 300 311" xmlns="http://www.w3.org/2000/svg"><path d="M165 307q-7 1-15 1-41 0-75.5-20T20 233.5Q0 199 0 158t20-75.5Q40 48 74.5 28T150 8q41 0 75.5 20T280 82.5q20 34.5 20 75.5 0 8-1 18l-24-24q-2-33-19-60t-45-43q-28-16-61.5-16t-62 17Q59 67 42 95.5T25 158q0 34 16.5 62T86 265q28 17 62 18 6 13 17 24zM88 145V95H63v50h25zm50 0V95h-25v50h25zm50 0V95h-25v50h25zm92 47q20 20 20 48.5T280 289q-20 20-48.5 20t-49-20q-20.5-20-20-48.5T183 192l48-48 49 48zm-5 48q0-18-13-30l-31-31-31 31q-13 12-12.5 30.5t13 31q12.5 12.5 31 12.5t31-12.5Q275 259 275 240z"/></svg>