<svg viewBox="0 0 300 311" xmlns="http://www.w3.org/2000/svg"><path d="M275 8q-12 0-22.5 7.5T239 35l-3 9-23-6-8 23 24 8-9 31-25-8-8 24 26 8-5 18q-11 32-24 53-15 25-27 25t-16-7q-3-5-4-11v-31q1-9 4-15 7-11 21-11v-25H0v25q14 0 21 11 3 6 4 15v41q0 25 9 46 10 23 30 36 22 14 55 14 27 0 51-18.5t34-46.5q6-20 27-91 4-12 32-110 1-4 4.5-6.5T275 33h25V8h-25zM119 283q-40 0-57-25-12-18-12-46v-42q0-13-7-24h76q-6 11-6 25v31q0 16 9 28 12 15 34 15 12 0 22-6-7 19-24 31.5T119 283zM13 95q0-13 8-28 6-11 17-22l1 7q2 8 5 13.5t7 5.5q4 0 7-7 2-4 5.5-16.5T70 28q4-12 11-20 5 5 19 16 24 20 34 32 16 19 16 39H13z"/></svg>