<svg viewBox="0 0 300 311" xmlns="http://www.w3.org/2000/svg"><path d="M163 145V95h25v30l-21 20h-4zm-25 137q-31-3-57-20t-41-44.5Q25 190 25 157t17-61.5Q59 67 87.5 50T150 33q31 0 58 14.5T252.5 87q17.5 25 21.5 56 16 14 25 26l1-11q0-41-20-75.5T225.5 28Q191 8 150 8T74.5 28Q40 48 20 82.5T0 158q0 41 20 75.5T74.5 288q34.5 20 75.5 20h9q-13-11-21-26zM88 145V95H63v50h25zm50 0V95h-25v50h25zm162 88q0 20-10 37.5T262.5 298Q245 308 225 308t-37.5-10Q170 288 160 270.5T150 233q0-16 7.5-32.5T174 174l17-17 5 24q1 7 3 13 2-3 4-13 3-11 5-17 4-11 9-19l9-13 11 11 14 13q22 19 32 32 17 22 17 45zm-25 0q0-15-13-32-8-9-28-27l-2-2q-2 5-4 14l-1 1q-3 15-8 22-7 11-22 11-10 0-17-9-5 12-5 22 0 14 7.5 26t19.5 18q-3-7-1.5-14t6.5-12l18-18 18 18q5 5 6.5 12t-1.5 14q12-6 19.5-18t7.5-26z"/></svg>