<svg viewBox="0 0 300 311" xmlns="http://www.w3.org/2000/svg"><path d="M150 308l-88-86q-18-18-27.5-41T25 133q0-25 9.5-48t27-40.5Q79 27 102 17.5T150 8q25 0 48 9.5T238 45q18 17 27.5 40t9.5 48q0 25-9.5 48T238 221l-88 87zm0-275q-20 0-38.5 7.5T79 62.5Q65 77 57.5 95T50 133q0 20 7.5 38.5T79 204l71 69 71-69q14-14 21.5-32.5T250 133q0-20-7.5-38T221 62q-14-14-32.5-21.5T150 33zm59 126l-18-18q-17 17-41 17t-41-17l-18 18q12 11 27 17.5t32 6.5q17 0 32-6.5t27-17.5zm-90-76q-8 0-13.5 5.5T100 102q0 8 5.5 13.5t13 5.5q7.5 0 13-5.5T137 102q0-8-5-13.5T119 83zm62 0q-8 0-13.5 5.5T162 102q0 8 5.5 13.5T181 121q8 0 13.5-5.5T200 102q0-8-5.5-13.5T181 83z"/></svg>