<svg viewBox="0 0 300.0018 311" xmlns="http://www.w3.org/2000/svg"><path d="M106 145q-8 0-13.5-5T87 127q0-8 5.5-13.5T106 108q8 0 13.5 5.5T125 127q0 8-5.5 13.5T106 146v-1zm106-18q0-8-5.5-13.5t-13-5.5q-7.5 0-13 5.5T175 127q0 8 5.5 13.5t13 5q7.5-.5 13-5.5t5.5-13zm46-13l-82 73q-13-4-26-4-24 0-50 14-13 7-21 14l17 19q6-5 16-11 20-11 38-11t38 11q10 6 16 11h1l22-21-16-18 19-17 16 18 20-18-16-18 19-17 16 18 7-5q7-7 8-17.5t-6-18q-7-7.5-17.5-8.5t-18.5 6zM150 283q-34 0-62.5-17T42 220.5Q25 192 25 158t17-62.5Q59 67 87.5 50T150 33q32 0 59 15t45 40q12-6 26-5-20-34-54.5-54.5T150 8q-41 0-75.5 20T20 82.5Q0 117 0 158t20 75.5Q40 268 74.5 288t75.5 20q37 0 69-17t53-46.5q21-29.5 26-65.5l-34 31q-15 33-46 53t-68 20z"/></svg>