<svg viewBox="0 0 300 311" xmlns="http://www.w3.org/2000/svg"><path d="M75 195v-62q-16 2-25 7-12 6-12 18 0 4 5 14 3 7 5 11 2 6 2 12t-4 13q-2 4-9 12-6 8-8 12-4 7-4 14 0 15 16.5 26T88 283q7 0 14-1 3 13 11 24-12 2-25 2-29 0-50-10-19-8-28.5-22.5T0 245q0-12 6-24 4-7 12-17 7-8 7-10t-4-10l-6-12q-2-7-2-14 0-16 10-28 15-19 52-22V70L63 52V8h50v44l-13 17v39l13 2q1 13 3 26-7-2-16-3v62H75zm113 63h50v-25h-50v25zm112 10q0 21-20 32-15 8-33 8h-69q-18 0-33-8-20-11-20-32 0-14 6-28 3-8 11-20 5-9 7-14 3-6 3-13 0-10-5-32-9-36-9-65h25q0 7 2 14 3 14 11.5 22.5T200 144V83q-8-1-16.5-7.5T175 64q0-8 6-23 5-10 13-23l6-10h25v137q23-3 33-23 5-10 5-20h25q0 19-4 36-1 10-6 26-5 19-5 29 0 7 3 13 2 5 7 14 8 12 11 20 6 14 6 28zm-25 0q0-9-4-19-2-6-9-16.5T252 215q-4-11-4-23t5-30q-16 8-37 8-26 0-44-10 5 20 5 32t-4 23q-3 7-10 18-7 10-9 16-4 10-4 19t14 13q8 2 14 2h69q6 0 14-2 14-4 14-13z"/></svg>