<svg viewBox="0 0 300 311" xmlns="http://www.w3.org/2000/svg"><path d="M263 220q-16 1-26 11l-37-18v-10l37-18q9 9 22.5 10t24.5-6.5q11-7.5 14.5-20.5t-1.5-25q-5-12-17-18t-25-3.5q-13 2.5-21.5 13T225 158v5l-37 18q-11-11-26-10.5T136 182q-11 11-11 26t11 26q11 11 26 11.5t26-10.5l37 18v5q0 16 11 26.5t26.5 10.5q15.5 0 26.5-10.5t11-26.5q0-16-11-27t-27-11h1zm0-75q5 0 8.5 4t3.5 9q0 5-3.5 9t-9 3.5q-5.5-.5-9-4T250 158q0-5 3.5-9t8.5-4h1zm-100 75q-6 0-9.5-3.5T150 208q0-5 3.5-8.5t9-4q5.5-.5 9 3.5t3.5 9q0 5-3.5 8.5T163 220zm100 50q-4 0-7.5-2t-4.5-5.5q-1-3.5-.5-7t3-6.5q2.5-3 6.5-3.5t7.5 1q3.5 1.5 5.5 4.5t2 7.5q0 4.5-3.5 8T263 270zm-63 0H69q-17 1-29.5-10T25 232.5q-2-16.5 7.5-30T58 185l18-5-11-15q-15-20-15-44 0-20 9.5-36.5T85 58q16-10 35-11.5t36.5 6.5q17.5 8 29 23t13.5 34l2 10 21-22q-5-24-21.5-42.5T161 28q-23-9-47.5-6.5T68.5 38Q48 52 36.5 73.5T25 120q0 25 11 46-21 12-30.5 33.5T2 244q6 23 24.5 37.5T69 295h143q-8-11-11-25h-1z"/></svg>