<svg viewBox="0 0 300 311" xmlns="http://www.w3.org/2000/svg"><path d="M106 308q-21 0-40.5-8T31 277q-15-15-23-34.5T0 202q0-40 22-75 18-29 53-57 21-16 66-45l22-15v52q37-20 78-35 22-8 36-12l21-5-5 21q-4 14-12 36-15 41-35 78h52l-15 22q-28 45-45 66-28 35-57 53-35 22-75 22zm32-252q-36 23-55 40-28 23-42 47-16 28-16 59 0 16 6 31t17.5 26.5Q60 271 75 277t31 6q31 0 59-16 24-14 47-42 17-19 40-55h-49l11-18q28-48 47-105-57 19-105 47l-18 11V56zm-25 189q-21 0-35.5-14.5t-14.5-35Q63 175 77.5 160t35-15q20.5 0 35.5 15t15 35.5q0 20.5-15 35T112 245h1zm0-75q-11 0-18.5 7.5t-7 18q.5 10.5 7.5 18t17.5 7q10.5-.5 18-7.5t7.5-17.5q0-10.5-7.5-18T113 170z"/></svg>