<svg viewBox="0 0 300 311" xmlns="http://www.w3.org/2000/svg"><path d="M225 37q-18-16-41-23.5T136.5 9q-24.5 3-46 16.5T55.5 60Q42 81 38 106q-3 27 6 52.5T73 203q13 12 20 26.5t7 30.5v48h100v-46q0-17 6.5-32t17.5-25q18-16 28-38t10.5-46q.5-24-9.5-46t-28-38zm-50 246h-50v-25h50v25zm33-97q-21 18-29 47h-58q-8-28-31-49-15-14-22-34t-5-41q4-29 25.5-50.5T140 34q19-3 36.5 3T208 55.5Q222 68 230 85t8 35.5q0 18.5-8 36T208 186zm-83-78q0 4 2.5 6.5t5.5 3.5l38 6q13 2 21 11.5t8 22.5q0 16-11 26.5T163 195v13h-25v-13q-16 0-27-10.5T100 158h25q0 5 3.5 8.5t8.5 3.5h26q5 0 8.5-3.5t3.5-8q0-4.5-2.5-7T167 148l-38-6q-13-2-21-11.5t-8-22.5q0-16 11-27t26-11V58h26v12q15 0 26 11t11 27h-25q0-5-3.5-8.5T162 96h-24q-6-1-9.5 3t-3.5 9z"/></svg>