<svg viewBox="0 0 300 311" xmlns="http://www.w3.org/2000/svg"><path d="M138 95q-17 0-31.5 8.5t-23 23Q75 141 75 158t8.5 31.5q8.5 14.5 23 22.5t31 8q16.5 0 31-8t23-22.5Q200 175 200 158t-8.5-31.5q-8.5-14.5-23-22.5T137 96l1-1zm0 100q-16 0-27-10.5T100 158q0-16 11-26.5t26.5-11Q153 120 164 131t11 27q0 16-11 26.5T138 195zm78 75q28-19 43.5-48.5T275 158q0-37-18.5-68.5t-50-50.5q-31.5-19-69-19t-69 19Q37 58 18.5 89.5T0 158q0 37 18.5 68.5t50 50.5q31.5 19 69.5 18h162v-25h-84zM25 158q0-31 15-56.5t41-41Q107 45 137.5 45T194 60.5q26 15.5 41 41t15 56.5q0 31-15 56.5t-41 41q-26 15.5-56.5 15T81 255q-26-15-41-40.5T25 158z"/></svg>