<svg viewBox="0 0 300 311" xmlns="http://www.w3.org/2000/svg"><path d="M263 83h-41q13-13 15-28.5T228.5 25Q218 11 201 8.5T169 16q-11 9-19 23-8-14-19-22-14-11-31.5-8.5t-28 16Q61 38 63 54t15 29H38q-16 0-27 11T0 120v188h300V120q0-15-11-26t-27-11h1zm-78-47q5-4 12.5-3t12 7.5Q214 47 212 55q-2 5-7 10-13 11-28 16-8 2-14 2v-4q1-10 5-19 6-16 17-24zm-94 4q5-6 12-7t13 3q10 8 16 23 4 10 5 20v4q-6 0-14-2-15-5-27-16-5-5-7-10-3-8 2-15zm-53 68h97q-8 15-35 22-13 3-25 3v25q20 0 39-6 23-8 36-22 13 14 36 22 19 6 39 6v-25q-12 0-25-3-27-7-35-22h97q6 0 9.5 3.5t3.5 9.5v99H25V120q0-5 3.5-8.5T37 108h1zM25 283v-38h250v38H25z"/></svg>