<svg viewBox="0 0 300 311" xmlns="http://www.w3.org/2000/svg"><path d="M274 251l-24-144V83q0-34-19-53-15-14-42-19-15-3-39-3t-39 3q-27 5-42 19-19 19-19 53v24L26 251q-2 11 1 21.5T37 291q7 8 17 12.5t21 4.5h150q11 0 21-4.5t17-12.5q7-8 10-18.5t1-21.5zM113 36v22h25V33h25v25h25V36q20 4 28.5 15.5T225 83v12H75V83q0-20 8.5-31.5T113 36zm131 238q-8 9-19 9H75q-11 0-18.5-8.5T50 255l23-135h154l23 134q1 12-6 20zm-69-35q0 8-5.5 13.5T156 258q-8 0-13.5-5.5T137 239q0-8 5.5-13.5T156 220q8 0 13.5 5.5T175 239zm38-50q-1 8-6 13.5t-13 5.5q-8 0-13.5-5.5T175 189q0-8 5.5-13.5t13.5-5q8 .5 13.5 5.5t5.5 13z"/></svg>