<svg viewBox="0 0 300 311" xmlns="http://www.w3.org/2000/svg"><path d="M38 233q-11 0-21-4.5T0 216l19-17q5 6 12.5 8t15-.5q7.5-2.5 11.5-9t5-14.5h25q0 10 7 17.5t17.5 7.5q10.5 0 17.5-7.5t7-17.5h26q0 10 7 17.5t17.5 7.5q10.5 0 17.5-7.5t7-17.5h26q0 8 4 14.5t11.5 9q7.5 2.5 15 .5t12.5-8l19 17q-7 8-17 12.5t-20.5 4.5q-10.5 0-20.5-4.5T225 216q-7 8-17 12.5t-20.5 4.5q-10.5 0-20.5-4.5T150 216q-7 8-17 12.5t-20.5 4.5q-10.5 0-20.5-4.5T75 216q-7 8-17 12.5T38 233zm225 37q-11 0-18.5-7t-6.5-17h-25q-1 10-8 17t-17.5 7q-10.5 0-17.5-7t-7-17h-25q0 10-7.5 17t-18 7q-10.5 0-17.5-7t-7-17H63q-1 7-5 13.5T46.5 269q-7.5 3-15 1T19 262L0 278q7 9 17 13.5t20.5 4q10.5-.5 20.5-5T75 278q7 8 17 13t20.5 5q10.5 0 20.5-5t17-13q7 8 17 13t20.5 5q10.5 0 20.5-5t17-13q7 8 17 12.5t20.5 5q10.5.5 20.5-4t17-13.5l-19-16q-7 8-19 8h1zM59 158l93-65 46 65h30L143 36q-6-7-14-11t-17-5H25v25h87q7 1 10 6l16 22-122 85h43zm172-50q13 0 22-9t9.5-22q.5-13-9-22.5T231 45q-13 0-22 9.5T200 77q0 13 9 22t22 9z"/></svg>