<svg viewBox="0 0 300 311" xmlns="http://www.w3.org/2000/svg"><path d="M287 54q-13-11-31-8-3 1-7 2-4-12-14-20t-22-8q-10 0-19 6-5-9-13.5-13.5T163 8q-13 0-23 8t-14 20q-4-2-7-2-8-2-16 .5T88 42Q75 53 75 70v108l-12-10q-11-10-26.5-9.5t-26 11.5Q0 181 .5 196.5T12 223l40 38q23 23 53 35t63 12h20q31 0 56.5-15t40.5-40.5q15-25.5 15-56.5V83q0-17-13-29zm-12 142q0 24-11.5 44T232 271.5Q212 283 188 283h-20q-28 0-53.5-10.5T69 243l-40-38q-4-4-4-9t3.5-9q3.5-4 9-4t9.5 4l53 42V70q0-5 4.5-9t9.5-3q5 1 8 5t3 9v73h25V45q0-5 3.5-8.5t9-3.5q5.5 0 9 3.5T175 45v100h25V58q0-5 3.5-9t9-4q5.5 0 9 4t3.5 9v87h25V84q0-5 3-9t8-4.5q5-.5 9.5 3T275 83v113z"/></svg>