<svg viewBox="0 0 300 311" xmlns="http://www.w3.org/2000/svg"><path d="M225 133q0-21-14.5-35.5T175 83q-17 0-30 10t-18 25l-27 10q1-19 11.5-35t27-25.5Q155 58 175 58t37.5 10Q230 78 240 95.5t10 37.5q0 20-9.5 36.5t-25.5 27Q199 207 180 208l10-27q15-5 25-18t10-30zM175 8q-34 0-62.5 17T67 70.5Q50 99 50 133q0 6 1 13l24-9v-4q0-27 13.5-50T125 46.5Q148 33 175 33t50 13.5Q248 60 261.5 83t13.5 50q0 27-13.5 50T225 219.5Q202 233 175 233h-4l-9 24q7 1 13 1 34 0 62.5-17t45.5-45.5q17-28.5 17-62.5t-17-62.5Q266 42 237.5 25T175 8zm-60 300l-49-49-34 35-18-18 35-34-49-49 131-48q7-2 14-.5t12 6.5q5 5 6.5 12t-.5 14l-48 131zm-10-45l34-94-94 34 60 60z"/></svg>