<svg viewBox="0 0 300 311" xmlns="http://www.w3.org/2000/svg"><path d="M286 8H14l21 266q2 14 12.5 24T73 308h152q15 0 25.5-10t11.5-24L286 8zm-28 25l-14 166q-8 9-18.5 9t-18-7.5Q200 193 200 183h-25q0 10-7.5 17.5T150 208q-10 0-17.5-7.5T125 183h-25q0 10-7.5 17.5T75 208q-6 0-11.5-3t-9.5-8L41 33h217zm-33 250H73q-5 0-8.5-3.5T60 272l-3-42q9 3 19 3t19.5-4.5Q105 224 112 216q7 8 17 12.5t21 4.5q11 0 20.5-4.5T187 216q7 8 17 12.5t21 4.5q8 0 16-3l-4 42q0 4-3.5 7.5T225 283zm-75-125q18 0 31-13t13-30q0-17-16-38-9-12-19-22l-9-8-9 8q-11 10-19 22-16 21-16 38t13 30q13 13 31 13zm0-76q8 9 13.5 18t5.5 14q0 8-5.5 13.5T150 133q-8 0-13.5-5.5T131 114q0-5 5.5-14T150 82z"/></svg>