<svg viewBox="0 0 300 311" xmlns="http://www.w3.org/2000/svg"><path d="M250 179q4-10 4-21 0-22-14-38.5T204 100q4-10 4-21 0-16-7.5-29.5t-21-21.5Q166 20 150 20t-29.5 8q-13.5 8-21 21.5T92 79q0 11 4 21-22 3-36 19.5T46 158q0 11 4 21-21 3-35.5 19.5T0 237q0 16 8 29.5t21.5 21q13.5 7.5 28 7.5t26.5-5.5q12-5.5 20-16.5 8 11 20 17t26 5.5q14-.5 26-6t20-16.5q8 11 20 16.5t27 5.5q15 0 28-7.5t21-21q8-13.5 8-29.5 0-22-14.5-38.5T250 179zM157 46q11 2 18.5 12t7.5 23q0 13-9.5 22.5t-24 9.5q-14.5 0-23.5-10t-9-25q0-15 12-25t28-7zM59 270q-15 1-24.5-9T25 236q0-15 12-25t28-7q12 2 19.5 12t7.5 23q0 13-10 22.5T59 271v-1zm46-78q-16 0-25-10t-9-25q0-15 12-25t28-7q12 2 19 12t7.5 23q.5 13-9.5 22.5t-23 9.5zm46 78q-16 0-25-9.5t-9-24.5q0-15 12-25t28-7q11 2 18.5 12t7.5 23q0 13-9.5 22.5T151 271v-1zm49-80q-16 0-25-9.5t-9-24.5q0-15 12-25t28-7q11 2 18.5 12t7.5 22.5q0 12.5-9.5 22T200 190zm42 80q-15 0-24.5-9.5T208 236q0-15 12.5-25t27.5-7q12 2 19.5 12t7.5 23q0 13-9.5 22.5T242 271v-1z"/></svg>