<svg viewBox="0 0 300 311" xmlns="http://www.w3.org/2000/svg"><path d="M175 308q-15 0-29-5.5T122 286q-14-14-19-33.5t0-39q5-19.5 19-33.5l53-56 53 56q14 15 19 34t0 38.5q-5 19.5-19 33.5-10 11-24 16.5t-29 5.5zm0-148l-35 37q-15 15-15 36t14.5 35.5Q154 283 175 283t35-15q15-14 15-35t-15-35l-35-38zm-112-2q-13 0-24.5-5T18 140Q6 128 2 111.5T2 79q4-16 16-28L63 8l44 43q12 12 16 28t0 32.5q-4 16.5-16 28.5-9 8-20.5 13T62 158h1zm0-115L36 69Q25 80 25.5 95.5t11 26q10.5 10.5 26 11T89 122q11-11 11-26.5T89 69L63 43zm187 90q-21 0-35.5-14.5T200 83q0-21 15-35l35-40 36 40q14 15 14 35.5T285 118q-14 15-35 15zm0-87l-17 19q-8 7-8 17.5t7.5 18Q240 108 250 108t18-7q7-8 7-18t-7-18l-18-19z"/></svg>