<svg viewBox="0 0 300 311" xmlns="http://www.w3.org/2000/svg"><path d="M150 8q-41 0-75.5 20T20 82.5Q0 117 0 158t20 75.5Q40 268 74.5 288t75.5 20q41 0 75.5-20t54.5-54.5q20-34.5 20-75.5t-20-75.5Q260 48 225.5 28T150 8zm0 275q-34 0-62.5-17T42 220.5Q25 192 25 158t17-62.5Q59 67 87.5 50T150 33q34 0 62.5 17T258 95.5q17 28.5 17 62.5t-17 62.5Q241 249 212.5 266T150 283zm0-188q-17 1-31.5 9T96 126.5Q88 141 88 158t8 31.5q8 14.5 22.5 22.5t31.5 8.5q17 .5 31.5-8t23-23q8.5-14.5 8-31.5t-8.5-31.5q-8-14.5-22.5-22.5T150 95zm0 100q-16 0-26.5-10.5T113 158q0-16 10.5-27t26.5-11q16 0 27 11t11 27q0 16-11 27t-27 10zm-12-37q0 5 3.5 9t8.5 4q5 0 9-4t4-9q0-5-4-9t-9-4q-5 0-9 4t-4 9h1z"/></svg>