<svg viewBox="0 0 300 311" xmlns="http://www.w3.org/2000/svg"><path d="M150 308q-34 0-62.5-17T42 245.5q-17-28.5-17-63t17-76Q59 65 86 38q30-30 64-30t64 30q27 27 44 68.5t17 76q0 34.5-17 63T212.5 291Q184 308 150 308zm0-275q-25 0-50 26-21 24-35.5 59.5T50 182q0 28 13.5 51t36.5 36.5q23 13.5 50 13.5t50-13.5q23-13.5 36.5-36.5t13.5-51q0-28-14.5-63.5T200 59q-25-26-50-26zm25 119q0 8 5.5 13.5t13.5 5q8-.5 13.5-5.5t5.5-13q0-8-5.5-13.5T194 133q-8 0-13.5 5.5T175 152zm-12-57q0 6 3.5 9.5t8.5 3.5q5 0 9-3.5t4-9q0-5.5-4-9t-9-3.5q-5 0-9 3.5t-4 8.5h1z"/></svg>