<svg viewBox="0 0 300 311" xmlns="http://www.w3.org/2000/svg"><path d="M165 8q-22 0-38 16-10 9-13 23t0 28l9 31q-11 8-21 18l-51 51q-4 5-10.5 5t-11-4.5q-4.5-4.5-4.5-11t4-10.5l34-34-18-18-33 34Q0 148 0 164.5t11.5 28Q23 204 38 205t27-9l15 15-45 45 18 18 44-45 15 15q-8 12-7 27t12 26q11 11 28 11t28-12l34-33-18-18-33 34q-5 4-11 4t-10.5-4.5q-4.5-4.5-4.5-11t4-10.5l50-51q10-10 18-21l31 9q7 2 15 2 22 0 37-15.5t15-37.5V8H165zm2 180l-37 38-47-47 37-38q21-20 51-34 21-10 45-15-5 24-15 45-14 30-34 51zm108-45q0 12-8 20-5 5-12.5 6.5T239 169l-23-6q15-26 22-57 5-16 6-28l1-15-15 1q-11 1-28 5-31 8-57 23l-6-23q-2-8-.5-15.5T145 41q8-8 20-8h110v110z"/></svg>