<svg viewBox="0 0 300 311" xmlns="http://www.w3.org/2000/svg"><path d="M137 122q6 5 13 5t12-5l18-14h33V34q0-11-7.5-18.5T188 8h-74q-11 0-18.5 7.5T88 34v74h33l16 14zm-23-89l74 1v49h-17l-21 17-20-17h-17l1-50zm117 56q0-13 9.5-22t22-9q12.5 0 22 9t9.5 22q0 13-9.5 22.5t-22 9.5q-12.5 0-22-9.5T231 89zm-131 81h100v25H100v-25zm-25 0q0-15-11-26t-26.5-11Q22 133 11 144T0 170v50q0 16 11 27t27 11h50v50h25v-75H75v-63zm-25 63H38q-6 0-9.5-3.5T25 220v-50q0-5 3.5-8.5t9-3.5q5.5 0 9 3.5T50 171v62zm188 50h62v25h-62v-25zm25-150q-16 0-27 11t-11 26v63h-37v75h25v-50h50q15 0 26-11t11-27v-50q0-15-11-26t-27-11h1zm12 87q0 6-3.5 9.5T263 233h-13v-63q0-5 3.5-8.5t9-3.5q5.5 0 9 3.5t3.5 9.5v49zM0 283h63v25H0v-25zM6 89q0-13 9.5-22t22-9q12.5 0 22 9T69 89q0 13-9.5 22.5t-22 9q-12.5-.5-22-9.5T6 89z"/></svg>