<svg viewBox="0 0 300.005 311" xmlns="http://www.w3.org/2000/svg"><path d="M220.005 308h-57V195q0-5-4-8.5t-9-3.5q-5 0-9 3.5t-4 9.5v112h-57l-3-6q-34-57-52-102-25-63-25-117-1-15 4.5-29t16.5-25q11-11 25-16.5t29-4.5q25 0 49 8 13 4 26 4t26-4q24-8 49-8 15-1 29 4.5t25 16.5q11 11 16.5 25t4.5 29q0 54-25 117-18 45-52 102l-3 6zm-32-25h17q31-52 48-94 22-57 22-106 0-10-3.5-19.5t-10.5-16.5q-7-7-16.5-10.5t-19.5-3.5q-22 0-42 7-16 5-33 5t-33-5q-20-7-42-7-31 0-44 24-6 13-6 26 0 49 22 106 17 42 48 94h18v-88q0-15 10.5-26t26.5-11q16 0 27 11t11 26v88z"/></svg>