<svg viewBox="0 0 300 311" xmlns="http://www.w3.org/2000/svg"><path d="M113 158q20 0 37-10t27.5-27.5Q188 103 188 83t-10.5-37.5Q167 28 150 18T112.5 8Q92 8 75 18T47.5 45.5Q37 63 37.5 83T48 120.5Q58 138 75 148t38 10zm0-125q20 0 35 14.5T163 83q0 21-15 35.5T112.5 133q-20.5 0-35-14.5T63 83q0-21 14.5-35.5T113 33zm150 100V95h-25v38h-38v25h38v37h25v-37h37v-25h-37zm-100 50H62q-17 0-31 8.5T8.5 214Q0 228 0 245v63h25v-63q0-15 11-26t26-11h101q15 0 26 11t11 26v63h25v-63q0-17-8.5-31T194 191.5q-14-8.5-31-8.5z"/></svg>