<svg viewBox="0 0 300.0016 311" xmlns="http://www.w3.org/2000/svg"><path d="M272.002 270l-25-75h-84q-6 0-9.5-3.5t-3.5-8.5v-13h88v-25h-88v-39q18-4 28.5-20t8.5-34.5q-2-18.5-16.5-31t-33-12.5q-18.5 0-33 12.5t-16.5 31q-2 18.5 8.5 34.5t28.5 20v77q0 16 11 26.5t26 10.5h12q-3 20-15.5 35t-30 22.5q-17.5 7.5-37 5t-35-13.5q-15.5-11-24-28.5t-7.5-37q1-19.5 11.5-35.5t27-25.5q16.5-9.5 36.5-9.5v-25q-26 0-48.5 12.5t-36.5 34.5q-14 22-15 48.5t10.5 49.5q11.5 23 33 37.5t48 17q26.5 2.5 50-8.5t39-31.5q15.5-20.5 18.5-46.5h29l25 74h47v-25h-28zm-159-212q0-10 7-17.5t17.5-7.5q10.5 0 17.5 7.5t7.5 17.5q.5 10-7 17.5t-18 7.5q-10.5 0-17.5-7.5t-7-17.5z"/></svg>