<svg viewBox="0 0 300 311" xmlns="http://www.w3.org/2000/svg"><path d="M150 8q-41 0-75.5 20T20 82.5Q0 117 0 158t20 75.5Q40 268 74.5 288t75.5 20q41 0 75.5-20t54.5-54.5q20-34.5 20-75.5t-20-75.5Q260 48 225.5 28T150 8zM25 158q0-33 16.5-61.5t44-45.5Q113 34 146 33q23 1 38.5 17.5t15.5 39q0 22.5-14.5 38.5t-36 17.5q-21.5 1.5-38 13T85 188q-10 18-10 38t9 38q-27-17-43-45t-16-61zm129 125q-23-1-38.5-17.5t-15.5-39q0-22.5 14.5-38.5t36-17.5q21.5-1.5 38-13T215 128q10-18 10-38t-9-38q27 17 43 45t16 61q0 33-16.5 61.5t-44 45.5Q187 282 154 283zM125 89q0-8 5.5-13.5T144 70q8 0 13.5 5.5T163 89q0 8-5.5 13.5T144 108q-8 0-13.5-5.5T125 89zm50 138q0 8-5.5 13t-13.5 5q-8 0-13-5t-5-13q0-8 5-13.5t13-5.5q8 0 13.5 5.5T175 227z"/></svg>