<svg viewBox="0 0 300 311" xmlns="http://www.w3.org/2000/svg"><path d="M288 262q-7-10-9-16-4-9-4-22v-4q0-11-1-17-3-21-18-36.5T221 147q-15-3-29 0-21 4-35.5 19.5T138 203q-1 6-1 18v3q0 13-3 22-3 6-9 16-6 9-8 15-4 9-4 19v12h187v-12q0-10-4-19-2-6-8-15zm-147 21q2-2 5-7 8-12 11-21 6-14 6-31l-1-4q0-9 1-13 2-13 11.5-23t22.5-13q9-2 19 0 13 3 22 13t11 23q1 4 1 13v4q0 17 6 31 3 9 11 21l4 7H141zm-99 0h47q-1 7-1 12v13H25l-5-12q-5-11-10-30-10-34-10-58 0-28 13-53l5-10h21q2-4 9-14 9-12 12-21 6-14 3-32-1-9 0-16 3-15 13.5-26T102 22q5-1 10-1h1q5 0 10 1 15 3 25.5 14T162 62q1 7 0 16-2 16 2 29 2 9 10 19-12 4-23 12-8-13-12-25-5-17-2-38v-9q-1-7-6.5-13T118 46l-6-1-5 1q-7 1-12.5 7T88 66v9q3 24-4 44-5 11-16 26h75q-12 12-20 25H33q-8 18-8 37t7 44q4 16 10 32z"/></svg>