<svg viewBox="0 0 300 311" xmlns="http://www.w3.org/2000/svg"><path d="M249 145q-1 8-4 14l44 26-12 22-67-38q15-15 15-35.5T211 98q-14-15-34.5-15.5T141 97l-39-66 21-12 26 44q7-3 14-4V8h25v51q7 1 13 4l26-44 22 12-26 44 10 10 44-26 12 22-44 26q3 6 4 13h51v25h-51zm1 107q0 23-16.5 39.5T194 308H94q-16 0-28-9.5t-15-25q-3-15.5 4-29T76 224q-1-5-1-10 0-26 17.5-45.5T136 146q26-3 47 12t28 40q17 6 28 20.5t11 33.5zm-25 0q0-12-7.5-21T198 221l-10-2-1-9q-1-13-9-23t-20-14q-12-4-24-1.5T113 183q-9 9-12 21.5t1 24.5l6 15-16 2q-8 0-12.5 6T75 265.5q0 7.5 5.5 12.5t13.5 5h100q13 0 22-9t9-22zM42 196l16-2-5-15q-5-13-1.5-26T65 131.5Q75 123 88.5 121t25.5 4q14-4 30-4h3q-14-17-35-23t-41.5 1.5Q50 107 37.5 125T25 164q0 5 1 10-12 6-19 16.5T0 214q0 13 7 24t19 16q2-12 8-24-5-3-7.5-8.5t-1-11.5q1.5-6 6-10t10.5-4z"/></svg>