<svg viewBox="0 0 300 311" xmlns="http://www.w3.org/2000/svg"><path d="M150 158q21 0 38-10t27-27.5Q225 103 225 83t-10-37.5Q205 28 188 18T150.5 8q-20.5 0-38 10T85 45.5Q75 63 75 83t10 37.5Q95 138 112.5 148t37.5 10zm0-125q21 0 35.5 14.5T200 83q0 21-14.5 35.5t-35 14.5q-20.5 0-35.5-14.5T100 83q0-21 15-35.5T150 33zm125 212v63h-25v-63q0-15-11-26t-26-11h-13v27q11 4 18 13.5t7 22.5v37h-25v-38q0-5-3.5-8.5t-9-3.5q-5.5 0-9 3.5T175 270v38h-25v-38q0-12 7-21.5t18-13.5v-27h-63v28q6 4 9.5 9.5T125 258q0 10-7.5 17.5t-18 7.5Q89 283 82 275.5T75 258q0-7 3.5-12.5T87 236v-28q-15 0-26 11t-11 26v63H25v-63q0-16 8.5-30.5t23-23Q71 183 87 183h126q16 0 30.5 8.5t23 23Q275 229 275 245z"/></svg>