<svg viewBox="0 0 300 311" xmlns="http://www.w3.org/2000/svg"><path d="M113 89q0-7 5.5-12.5t13-5.5q7.5 0 13 5.5t5.5 13q0 7.5-5.5 13t-13 5.5q-7.5 0-13-5.5T113 89zm187 88q-8 42-34.5 78T203 308H97q-36-17-62.5-53T1 177q-3-17 8-31 7-7 16-11v-4q0-14 6.5-26T50 86v-3q0-14 7.5-26.5T78 38q13-6 28-5 7-11 18.5-18T150 8q14 0 26 7t19 18q14-1 26.5 5T242 55.5q8 11.5 8 25.5 12 8 18.5 20t6.5 25q0 4-1 9 10 3 17 11 11 14 9 31zM50 131v2h114q-1-3-1-6 0-8 5-13.5t13-5.5q8 0 13.5 5.5T200 127q0 3-1 6h50q1-3 1-7 0-8-5-15.5T232 100l-9-4 2-13q0-10-7.5-17.5T200 58q-3 0-12 3l-8 3-4-12q-3-9-10-14t-16-5q-9 0-16 5t-10 14l-4 12-7-3q-8-3-13-3-10 0-17.5 7.5T75 83l4 18-10 4q-9 3-14 10.5T50 131zm222 32q-4-5-10-5H38q-6 0-10 4.5t-3 9.5q6 36 27.5 66t50.5 45h94q30-15 51-45t27-65q1-6-3-10z"/></svg>