<svg viewBox="0 0 300 311" xmlns="http://www.w3.org/2000/svg"><path d="M287 29q-13-11-31-8-13 2-22 13t-9 25v51q-6-2-13-2-14 0-25 10-10-10-24-10-7 0-13 2V47q0-14-9-25T119 9q-18-3-31 8T75 46v132l-12-10q-11-10-26.5-9.5t-26 11.5Q0 181 .5 196.5T12 223l88 85h200V58q0-17-13-29zm-74 104q5 0 8.5 3.5t3.5 9.5v24q0 6-3.5 9.5t-9 3.5q-5.5 0-9-3.5T200 170v-25q0-5 3.5-8.5t9.5-3.5zm-50 0q5 0 8.5 3.5t3.5 9.5v24q0 6-3.5 9.5t-9 3.5q-5.5 0-9-3.5T150 170v-25q0-5 3.5-8.5t8.5-3.5h1zm112 150H110l-81-78q-4-4-4-9t3.5-9q3.5-4 8.5-4t10 4l53 42V45q0-5 4.5-9t9.5-3q5 1 8 5t3 9v123q0 16 11 27t26 11q15 0 26-10 10 10 25 10t26-11q11-11 11-26V59q0-5 3-9t8-4.5q5-.5 9.5 3T275 58v225z"/></svg>