<svg viewBox="0 0 300 311" xmlns="http://www.w3.org/2000/svg"><path d="M136 173q-13 5-20.5 15.5T108 211q0 25 20 60 4 5 9.5 8.5T150 283q7 0 12.5-3.5t9.5-8.5q19-34 20-59 0-17-13-29-8-9-20-11.5t-23 1.5zm14 85q-17-28-17-47 0-5 3-8.5t8-5.5q3-2 6-2 7 0 12 5.5t5 11.5q0 18-17 46zm147-83q-6-16-22-24.5t-32-3.5q-8 2-14 7-11 8-15 20.5t1 25.5q8 24 38 52 8 6 18 6 4 0 7-1 7-2 11.5-7t5.5-12q9-39 2-63zm-27 58q-26-23-32-41-1-5 .5-10t5.5-8q3-2 5.5-3t6-1q3.5 0 8.5 3 7 3 9 10 6 18-3 50zM71 154q-6-5-14-7-16-5-32 3.5T3 175q-7 24 2 63 1 7 5.5 12t11.5 7q3 1 7 1 10 0 18-7 30-27 38-51 5-13 1-25.5T71 154zm-9 38q-6 18-33 41-7-32-2-50 2-7 9-10.5t14-1.5q3 1 6 3 4 3 5.5 8t.5 10zm9-113Q46 69 24 54 12 46 4 39l17-19q15 13 38 26 47 25 91 25t91-25q23-13 38-26l17 19q-8 7-20 15-22 15-47 25l16 42q-6 1-10 2-6 2-14 7l-16-43q-21 7-43 8v52q-12-3-24 0V95q-22-1-43-8l-16 43q-8-5-14-7-3-1-10-2l16-42z"/></svg>