<svg viewBox="0 0 300 311" xmlns="http://www.w3.org/2000/svg"><path d="M300 8v25h-87V8h87zm-87 75h87V58h-87v25zm0 187h87v-25h-87v25zm0-100h87v-25h-87v25zm0-37h87V95h-87v38zm0 100h87v-38h-87v38zm0 75h87v-25h-87v25zM63 45h125v125h-67l-8 25h12v25h-20l-19 57q-5 14-16.5 22.5T44 308q-7 0-13-2-17-6-25.5-22T2 251l30-89q-15-8-23.5-22.5T0 108q0-17 8.5-31.5t23-22.5Q46 46 62 46l1-1zm32 125H56l-30 89q-2 7 1.5 14t11 9q7.5 2 14.5-1.5t9-11.5l33-99zm68-100H63q-16 0-27 11t-11 27q0 16 11 26.5T63 145h100V70z"/></svg>