<svg viewBox="0 0 300 311" xmlns="http://www.w3.org/2000/svg"><path d="M256 264q-21 22-48.5 33t-57 11q-29.5 0-57-11T44 264q-29-29-39-67.5t0-77Q15 81 44 52t67.5-39q38.5-10 77 0T256 52l9 9-88 88-9-9q-7-7-18-6.5t-18 7.5q-7 7-7 17.5t7.5 17.5q7.5 7 18 7t17.5-8l18 18q-14 15-35 15t-36-14.5q-15-14.5-15-35t14-35.5q12-12 29.5-14.5T176 115l18-18q-20-14-44-14-29 0-50 20v5q0 9-5.5 16T80 132q-7 21-2.5 42T97 211q14 14 33 19 8-10 20-10t20 10q19-5 33.5-19t19-33.5Q227 158 222 139l20-20q12 28 6.5 58T221 229q-20 20-48 26-3 7-9 11t-13.5 4q-7.5 0-14-4t-9.5-11q-28-6-48-26.5t-26-49Q47 151 56 124q-6-7-6-16.5t7.5-17Q65 83 75 83q4 0 8 1 18-16 40.5-22.5t46-2Q193 64 211 79l18-18q-24-20-54.5-26T114 38q-30 9-53 32t-31.5 55.5Q21 158 29.5 190T62 246q24 24 56 32.5t64.5 0Q215 270 239 246q29-29 35-69.5T261 100l18-18q17 28 20 61.5t-8 65Q280 240 256 264z"/></svg>