<svg viewBox="0 0 302 311" xmlns="http://www.w3.org/2000/svg"><path d="M150 83q-24 0-44 12t-31.5 32Q63 147 62 170q1 31 20 65 15 24 38 48 12 12 22 20l8 6 8-6q10-8 22-20 23-24 38-48 20-34 20-65 0-23-12-43t-32-32q-20-12-44-12zm0 194q-22-21-38-43-24-34-24-64 0-16 8-30.5t22.5-23Q133 108 150 108t31.5 8.5q14.5 8.5 22.5 23t8 31.5q1 29-24 63-16 22-38 43zm115 6h35v25h-83l14-20q26-35 36-66.5t8-69.5q-2-32-15-53-11-16-10-32.5t8-33.5l-114 1q-31 1-57.5 17t-43 42.5Q27 120 26 151q-3 38 7 69.5T69 288l14 20H0v-25h35q-20-33-28-64.5T.5 150Q2 113 22 81t51.5-51.5Q105 10 142 9l23-1h137l-13 19q-3 5-7 13-7 14-7 27 0 9 6 19 16 26 18 64h1q2 37-6.5 68.5T265 283z"/></svg>