<svg viewBox="0 0 300 311" xmlns="http://www.w3.org/2000/svg"><path d="M289 99l-80-80Q198 8 183 8t-27 11L11 164Q0 175 0 190.5T11 217l80 80q11 11 26.5 11t26.5-11l145-145q11-11 11-26.5T289 99zM174 37q4-4 9-4t9 4l30 30-29 29-39-39 20-20zm-24 138l40 40-26 26-40-40 26-26zm-44 9l-39-40 26-26 39 40-26 26zm61-26l26-26 40 40-25 26-41-40zm-17-18l-40-40 26-25 40 39-26 26zM25 191q0-5 4-9l20-20 39 39-29 29-30-30q-4-4-4-9zm101 88q-4 4-9 4t-9-4l-31-31 29-29 40 40-20 20zm145-145l-20 20-40-40 29-29 31 31q4 4 4 9t-4 9z"/></svg>