<svg viewBox="0 0 300 311" xmlns="http://www.w3.org/2000/svg"><path d="M0 170l18 45q11 19 33 26 15 5 41 5h46v37H88v25h125v-25h-50v-37h35q21 0 31-1 17-2 30-8 14-7 23-22l18-45H0zm261 33q-8 12-23 15-12 3-40 3h-96q-28 0-41-3-14-4-22-15l-2-8h226l-2 8zM81 95q22 0 37.5 14.5T137 145h26q3-21 18.5-35t37-14.5q21.5-.5 37.5 14t18 35.5h26q-3-28-22.5-49T229 71q-6-27-28-45T150 8q-29 0-51 18T71 71q-29 4-48.5 25T0 145h26q2-21 18-35t37-14v-1zm69-62q19 0 33.5 11T204 72q-17 3-31 12.5T150 109q-9-15-23-24.5T96 72q6-17 20.5-28T150 33z"/></svg>