<svg viewBox="0 0 300 311" xmlns="http://www.w3.org/2000/svg"><path d="M150 308q-34 0-62.5-17T42 245.5Q25 217 25 183q0-29 13-53 11-20 34-42l31-28-10 40q-2 9-2 22 0 17 3 31 4 17 13 28 11 14 31 14 10 0 17-7t7.5-17q.5-10-3.5-20-2-6-8-18h-1q-6-13-8-20-4-11-4-22 0-21 8-45 5-12 10-20l10-18 11 17q7 11 18 24l21 24q19 21 28 32 15 19 22 36 9 20 9 42 0 34-17 62.5T212.5 291Q184 308 150 308zM50 183q0 27 13.5 50t36.5 36.5q23 13.5 50 13.5t50-13.5q23-13.5 36.5-36.5t13.5-50q0-24-16-49-10-16-36-45h-1q-19-21-28-32-6 19-6 34 0 7 3 15 1 5 7 15 7 14 10 23 5 13 4 27 0 20-14.5 35T138 221q-32 0-51-24t-21-65q-16 22-16 51z"/></svg>