<svg viewBox="0 0 300 311" xmlns="http://www.w3.org/2000/svg"><path d="M300 58q0-21-14.5-35.5T250 8q-21 0-35.5 14.5T200 58q0 17 10.5 30.5T237 106v27q1 5-3 9t-9 3H75q-6 0-12 3v-42q16-4 26.5-17.5T100 58q0-21-14.5-35.5T50 8Q29 8 14.5 22.5T0 58q0 17 10.5 30.5T38 106v104q-17 4-27.5 17.5T0 258q0 21 14.5 35.5T50 308q21 0 35.5-14.5T100 258q0-17-10.5-30.5T62 210v-27q0-5 4-9t9-4h150q16 0 26.5-11t10.5-26v-27q17-4 27.5-17.5T300 58zM25 58q0-10 7.5-17.5T50 33q10 0 17.5 7.5T75 58q0 10-7.5 17.5T50 83q-10 0-17.5-7.5T25 58zm50 200q0 10-7.5 17.5T50 283q-10 0-17.5-7.5T25 258q0-10 7.5-17.5T50 233q10 0 17.5 7.5T75 258zM250 83q-10 0-17.5-7.5T225 58q0-10 7.5-17.5T250 33q10 0 17.5 7.5T275 58q0 10-7.5 17.5T250 83z"/></svg>