<svg viewBox="0 0 300 311" xmlns="http://www.w3.org/2000/svg"><path d="M300 45q0-15-11-26T262 8H81Q63 8 50.5 21T38 52v56h25V52q0-8 5-13.5T81 33q8 0 13.5 5.5T100 52v31h138v187q-1 6-4.5 9.5T225 283h-62v25h62q16 0 27-11t10-27V83h38V45zm-25 13H125v-6q0-10-4-19h142q5 0 8.5 3.5T275 45v13zm-169 75H31q-13 0-22 9t-9 22v144h138V164q0-13-9.5-22t-22.5-9zm7 150H25V164q0-2 2-4t4-2h75q3 0 4.5 2t1.5 4v119h1zM38 170h62v25H38v-25zm37 38h25v25H75v-25zm-37 0h25v25H38v-25zm37 37h25v25H75v-25zm-37 0h25v25H38v-25z"/></svg>