<svg viewBox="0 0 300 311" xmlns="http://www.w3.org/2000/svg"><path d="M263 8H38Q22 8 11 19T0 46v262h229l71-71V45q0-15-11-26T262 8h1zM25 45q0-5 3.5-8.5T37 33h226q5 0 8.5 3.5T275 45v163h-75v75H25V45zm200 232v-44h44l-44 44zM137 70h-24v76h15v-26h9q11 0 18-7t7-17.5q0-10.5-7-18T137 70zm0 34h-9V86h9q4 0 7 2.5t3 6.5q0 4-3 6.5t-7 2.5zm64 26q-9 0-15-6l-5-6-12 11 5 5q11 12 27 12 9 0 16-5.5t8.5-14q1.5-8.5-3.5-16t-13-9.5l-16-6q-2-2-1.5-5t4.5-4q9-1 16 4l6 5 10-12-6-5q-7-5-15-6.5t-15 0q-7 1.5-11 6.5t-5 11q-1 6 1.5 11.5t7.5 8.5l18 7q9 3 8 7t-4 5.5q-3 1.5-6 1.5zM50 146h41v-16H66v-14h23v-16H66V86h25V70H50v76z"/></svg>