<svg viewBox="0 0 300 311" xmlns="http://www.w3.org/2000/svg"><path d="M200 195q0 11-7.5 18t-17.5 7h-50q-10 0-17.5-7t-7.5-18v-25H0v100q0 16 11 27t27 11h225q15 0 26-11t11-27V170H200v25zm25 0h50v75q0 6-3.5 9.5T263 283H38q-6 0-9.5-3.5T25 270v-75h50q0 21 14.5 35.5T125 245h50q21 0 35.5-14.5T225 195zM200 8v25q0 10-7.5 17.5T175 58h-50q-10 0-17.5-7.5T100 33V8H0v100q0 15 11 26t27 11h225q15 0 26-11t11-26V8H200zm75 100q0 5-3.5 8.5T263 120H38q-6 0-9.5-3.5T25 108V33h50q0 21 14.5 35.5T125 83h50q21 0 35.5-14.5T225 33h50v75z"/></svg>