<svg viewBox="0 0 300 311" xmlns="http://www.w3.org/2000/svg"><path d="M236 71q-6-30-24-48-16-15-37-15v25q12 0 21.5 10T210 72q-26 5-43 26t-17 48q0 22-18 36t-41 14q-29-1-45-22-13-16-17-43l-1-11H4l-1 11q-8 42 7.5 81.5T60 278q34 26 76.5 30t80.5-15q38-19 60.5-55.5T300 158v-13q0-28-18.5-49T236 71zm19 34q-5 7-13 11.5t-17 4.5q-9 0-17-4.5T195 105q13-9 30-9t30 9zm20 53q0 30-14 57t-38 44.5q-24 17.5-54 22t-58.5-5Q82 267 61 245.5T31 195q11 13 27 19.5t33 5.5q24 0 43-9.5t30-27q11-17.5 11-37.5 0-11 4-21 9 10 21 15t25 5q13 0 25-5t21-15q4 10 4 20v13z"/></svg>