<svg viewBox="0 0 300 311" xmlns="http://www.w3.org/2000/svg"><path d="M256 220q-18 0-30.5 13T213 264q0 18 12.5 31t30.5 13q18 0 31-13t13-31q0-18-13-31t-31-13zm0 63q-8 0-13-5.5t-5-13.5q0-8 5-13.5t13-5q8 .5 13.5 5.5t5.5 13q0 8-5.5 13.5T256 283zm-79-134L299 26 282 9 159 131l-23-23-20 40q-9-3-19-3-26 0-45 20-14 14-30 63-9 28-15 59l-5 19 19-5q31-6 59-15 49-16 63-30 19-19 19-46 0-9-2-18l40-20-23-23zm-51 90q-8 7-36 17-24 9-54 16 7-30 16-54 10-28 17-36 12-11 28.5-11t28.5 11.5q12 11.5 12 28T126 239z"/></svg>