<svg viewBox="0 0 300 311" xmlns="http://www.w3.org/2000/svg"><path d="M150 8q-41 0-75.5 14.5T20 61Q0 85 0 114v88q0 29 20 53t54.5 38.5Q109 308 150 308t75.5-14.5Q260 279 280 255t20-53v-88q0-29-20-53t-54.5-38.5Q191 8 150 8zm0 25q34 0 62.5 11T258 73.5Q275 92 275 114t-17 41q-17 19-45.5 29.5T150 195q-34 0-62.5-10.5T42 155q-17-19-17-41t17-40.5Q59 55 87.5 44T150 33zm125 169q0 22-17 40.5T212.5 272Q184 283 150 283t-62.5-11Q59 261 42 242.5T25 202v-29q25 24 57.5 36.5T150 221q35 1 67.5-11.5T275 173v29z"/></svg>