<svg viewBox="0 0 300 311" xmlns="http://www.w3.org/2000/svg"><path d="M131 39q0-8 5.5-13.5T150 20q8 0 13.5 5.5T169 39q0 8-5.5 13.5T150 58q-8 0-13.5-5.5T131 39zm107 131q0 24-12 44t-32 32q-20 12-44 12t-44-12q-20-12-31.5-32T63 170.5Q63 147 74.5 127T106 95q20-12 44-12t44 12q20 12 32 32t12 43zm-27 13h-61v-25h61q-4-22-21.5-36T150 108q-17 0-31.5 8.5t-22.5 23q-8 14.5-8 31t8 31q8 14.5 22.5 23T150 233q22 0 39.5-14t21.5-36zM19 152q-8 0-13.5 5.5t-5.5 13q0 7.5 5.5 13T19 189q8 0 13.5-5.5t5.5-13q0-7.5-5.5-13T19 152zm262 0q-8 0-13 5.5t-5 13q0 7.5 5 13t13 5.5q8 0 13.5-5.5t5.5-13q0-7.5-5.5-13T281 152zM56 95q8 1 13.5-4.5T75 77q0-8-5.5-13.5T56 58q-8 0-13 5.5T38 77q0 8 5 13.5T56 96v-1zm188 150q-8 1-13.5 6t-5.5 13q0 8 5.5 13.5T244 283q8 0 13.5-5.5t5-13.5q-.5-8-5.5-13.5t-13-4.5v-1zm-188 0q-8 0-13 5.5T38 264q0 8 5 13.5t13 5.5q8 0 13.5-5.5T75 264q0-8-5.5-13.5T56 246v-1zM244 95q8 1 13.5-4.5t5-13.5q-.5-8-5.5-13.5T244 58q-8 0-13.5 5.5T225 77q0 8 5.5 13.5T244 96v-1z"/></svg>