<svg viewBox="0 0 300 311" xmlns="http://www.w3.org/2000/svg"><path d="M163 270V70h-25v200l-57-56-17 18 68 69q8 7 18 7t18-7l68-69-17-18-56 56zm6-243q0 8-5.5 13T150 45q-8 0-13.5-5T131 27q0-8 5.5-13.5T150 8q8 0 13.5 5.5T169 27zm44-19q-8 0-13.5 5.5T194 27q0 8 5.5 13t13 5q7.5 0 13-5t5.5-13q0-8-5.5-13.5T213 8zm62 0q-8 0-13.5 5.5T256 27q0 8 5.5 13t13.5 5q8 0 13.5-5t5.5-13q0-8-5.5-13.5T275 8zM88 8q-8 0-13.5 5.5T69 27q0 8 5.5 13t13 5q7.5 0 13-5t5.5-13q0-8-5.5-13.5T88 8zM25 8q-8 0-13.5 5.5T6 27q0 8 5.5 13T25 45q8 0 13.5-5T44 27q0-8-5.5-13.5T25 8z"/></svg>