<svg viewBox="0 0 300 311" xmlns="http://www.w3.org/2000/svg"><path d="M224 137l7 6 8-6q17-14 33-31 28-32 28-55 0-18-12-30.5T259.5 8Q243 8 231 19 219 8 202.5 8t-28 12.5Q163 33 163 51q0 23 28 55 15 17 33 31zM203 33q6 0 11 4.5t5 7.5h25q0-4 4.5-8t11-4q6.5 0 11 5t4.5 13q0 11-14 29-12 16-30 31-17-15-29-31-14-18-14-29 0-8 4.5-13t10.5-5zM100 8H38Q22 8 11 19T0 45v100h138V45q0-15-11.5-26T100 8zm13 112H25V45q0-5 3.5-8.5T38 33h62q5 0 9 3.5t4 8.5v75zm150 50h-63q-15 0-26 11.5T163 208v100h137V208q0-15-11-26.5T263 170zm12 113h-87v-75q0-5 3.5-9t8.5-4h63q5 0 8.5 4t3.5 9v75zM100 170H38q-16 0-27 11.5T0 208v100h138V208q0-15-11.5-26.5T100 170zm13 113H25v-75q0-5 3.5-9t9.5-4h62q5 0 9 4t4 9v75z"/></svg>