<svg viewBox="0 0 300 311" xmlns="http://www.w3.org/2000/svg"><path d="M300 290l-68-67q15-18 23-39t7-45q1-35-17-65.5t-48-48Q167 8 131.5 8t-66 17.5Q35 43 17.5 73.5T0 139.5Q0 175 17.5 205t48 47.5Q96 270 131 270q24 0 45-7.5t39-22.5l67 68 18-18zm-169-45q-29 0-53-14t-38.5-38.5Q25 168 25 139t14.5-53Q54 62 78 47.5T131 33q29 0 53.5 14.5T223 86q14 24 14.5 53t-14 53.5Q209 217 184.5 231T131 245zm7-112q0 10-7.5 17.5t-18 7.5q-10.5 0-17.5-7.5T88 133q0-10 7-17.5t17.5-7.5q10.5 0 18 7.5T138 133zm37-41q-9-16-24-25t-33-9q-18 0-33.5 9.5t-25 25Q50 108 50 127v6q0 24 12 44t32 31.5q20 11.5 44 11.5 20 0 35.5-12.5T192 175q10-6 15-17t5-22q1-16-9.5-28T175 92zm0 65l-7 4v8q0 11-9.5 19t-21.5 8q-16 0-30.5-8.5t-23-23Q75 150 75 133v-6q0-18 13-31t31-13q11 0 21 7t16 19l3 6 7 1q8 1 15 6.5t7 12.5q0 7-4 13t-9 9z"/></svg>