<svg viewBox="0 0 300 311" xmlns="http://www.w3.org/2000/svg"><path d="M213 208h-50v-38q0-15 10.5-26t26.5-11h25v-25h25v62q0 16-11 27t-27 11h1zm-25-25h25q5 0 8.5-3.5t3.5-9.5v-12h-25q-5 0-9 3.5t-4 8.5l1 13zm-50 25H88q-16 0-27-11t-11-27v-62h25v25h25q16 0 27 11t11 26v38zm-63-50v12q0 6 3.5 9.5T88 183h25v-13q0-5-4-8.5t-9-3.5H75zm225 150H195l-19-35q-4-7-11-11t-15-4q-8 0-15 4t-11 11l-19 35H0V163q0-41 19.5-76t53-56Q106 10 147 8q30-1 58.5 10.5t50 32.5q21.5 21 33 49t11.5 58v150zm-90-25h65V158q0-25-9.5-48.5t-27.5-41Q220 51 196.5 42T148 33q-34 1-62.5 19T41 99q-16 29-16 64v120h65l12-22q7-13 20-20.5t28-7.5q15 0 28 7.5t20 20.5l12 22z"/></svg>