<svg viewBox="0 0 300 311" xmlns="http://www.w3.org/2000/svg"><path d="M166 152q6-20 22.5-32t36.5-12q16 0 26.5-11t11-26.5Q263 55 252 44t-28-11q-17 0-33 7t-29 19V8h-24v51q-13-12-29-19t-33-7q-17 0-27.5 11T38 70.5Q38 86 48.5 97T75 108q20 0 36.5 12t22.5 32q-59-18-121-19H0v12q0 66 15 105 13 33 35 47 17 11 38 10.5t38-14.5q10-9 24-10 14 1 24 10 17 14 38 14.5t38-10.5q22-14 35-47 15-39 15-105v-12h-12q-63 1-122 19zm59-94q5 0 9 3.5t3.5 9q-.5 5.5-4 9T225 83q-17 0-33 6.5T164 108q4-22 21.5-36T225 58zM75 83q-5 0-8.5-3.5t-3.5-9q0-5.5 3.5-9T75 58q22 0 39.5 14t21.5 36q-12-12-28-18.5T75 83zm138 200q-14-1-25-10-17-14-38-15-21 1-38 15-11 9-24 10-29 0-45-32t-18-93q62 3 120 24l5 2 5-2q58-21 120-24-2 61-18 93t-45 32h1zm21-83q-34 5-66 17l-10 4q10 1 20 6 6 3 16 10t15 8q11 3 17-10 3-8 8-35zm-168 0q5 27 9 35 5 13 16 11 5-2 15-9t16-10q10-5 20-6l-10-4q-32-12-66-17z"/></svg>