<svg viewBox="0 0 300 311" xmlns="http://www.w3.org/2000/svg"><path d="M131 45q-35 0-65.5 18t-48 48Q0 141 0 176.5t17.5 66q17.5 30.5 48 48t66 17.5q35.5 0 65.5-17.5t48-48q18-30.5 18-66T245 111q-18-30-48-48t-66-18zm0 238q-29 0-53-14.5T39.5 230Q25 206 25 177q0-25 11-47l14 15h38l12 13v25l25 25v37h25l38-68-50-32h-32l-18-18 18-19 25 12 13-12-19-31 4-6 2-1q29 0 53.5 14.5t39 39Q238 148 238 177t-14.5 53q-14.5 24-39 38.5T131 283zM300 39q0 13-9 22.5t-22 9q-13-.5-22-9.5t-9-22q0-13 9-22t22-9q13 0 22 9t9 22z"/></svg>