<svg viewBox="0 0 300 311" xmlns="http://www.w3.org/2000/svg"><path d="M225 133v12h-50v-12q0-10 7.5-17.5T200 108q10 0 17.5 7.5T225 133zm-100-13H75v25h50v-25zm175 38q0 41-20 75.5T225.5 288Q191 308 150 308t-75.5-20Q40 268 20 233.5T0 158q0-41 20-75.5T74.5 28Q109 8 150 8t75.5 20Q260 48 280 82.5t20 75.5zm-25 0q0-34-17-62.5T212.5 50Q184 33 150 33T87.5 50Q59 67 42 95.5T25 158q0 34 17 62.5T87.5 266q28.5 17 62.5 17t62.5-17q28.5-17 45.5-45.5t17-62.5zM88 183h125v25h-25v7q0 17-11 29.5T150 258q-16-1-27-13.5T113 216v-8H88v-25zm75 25h-25v7q0 7 3.5 12.5t8.5 5.5q5 0 9-5.5t4-11.5v-8z"/></svg>