<svg viewBox="0 0 300 311" xmlns="http://www.w3.org/2000/svg"><path d="M150 8q-41 0-75.5 19T20 78.5Q0 111 0 150q0 16 9.5 28.5T35 195l5 1 5-3q24-17 52-26-7 39-10 78 1 17 9 31.5t22.5 23Q133 308 150 308t31.5-8.5q14.5-8.5 23-23T213 246q-3-40-11-79 29 9 53 26l5 3 5-1q16-4 25.5-16.5T300 150q0-39-20-71.5T225.5 27Q191 8 150 8zm38 237q0 16-11 27t-27 11q-16 0-26.5-11T113 246q2-44 11-86 13-2 26-2t26 2q9 42 12 85zm76-76q-52-34-114-36-62 2-114 36-6-3-8.5-8T25 150q0-32 17-59t45.5-42.5Q116 33 150 33t62.5 15.5Q241 64 258 91t17 59q0 6-2.5 11t-8.5 8z"/></svg>