<svg viewBox="0 0 300 311" xmlns="http://www.w3.org/2000/svg"><path d="M75 120q0 16 6.5 30.5T99 175q11 10 24 15t27 5h7q19-2 34.5-12.5t24.5-28q9-17.5 9-36.5v-10h13V83h-13v-6q0-19-9.5-34.5t-25-25Q175 8 156 8h-12q-19 0-34.5 9.5t-25 25Q75 58 75 77v6H63v25h12v12zm125-2q0 20-13 35t-32 17q-22 2-39-13-7-7-11.5-16.5T100 121v-13h100v10zM100 77q0-17 11-29t26-15v37h26V33q15 3 26 15t11 29v6H100v-6zm163 193v38h-25v-38q0-15-11-26t-27-11H100q-16 0-27 11t-11 26v38H38v-38q-1-16 7.5-30.5t23-23Q83 208 100 208h100q17 0 31.5 8.5t23 23Q263 254 262 270h1z"/></svg>