<svg viewBox="0 0 300 311" xmlns="http://www.w3.org/2000/svg"><path d="M150 233h-50v-25h50q10 0 17.5-7.5T175 183q0-10-7.5-17.5T150 158h-50V83h88v25h-63v25h25q21 0 35.5 14.5T200 183q0 21-14.5 35.5T150 233zm150-75q0-41-20-75.5T225.5 28Q191 8 150 8T74.5 28Q40 48 20 82.5T0 158q0 41 20 75.5T74.5 288q34.5 20 75.5 20t75.5-20q34.5-20 54.5-54.5t20-75.5zm-25 0q0 34-17 62.5T212.5 266Q184 283 150 283t-62.5-17Q59 249 42 220.5T25 158q0-34 17-62.5T87.5 50Q116 33 150 33t62.5 17Q241 67 258 95.5t17 62.5z"/></svg>