<svg viewBox="0 0 300 311" xmlns="http://www.w3.org/2000/svg"><path d="M225 118q-20 0-37.5 13T160 166q-10 22-10 48t10 48q10 22 27.5 35t37.5 13q20 0 37.5-13t27.5-35q10-22 10-48t-10-48q-10-22-27.5-35T225 118zm-50 96q0-26 12-46t30-24q5 10 6 23 1 20-9 42-18 36-10 70-13-9-21-26.5t-8-38.5zm58 70q-5-10-6-23-1-19 9-41 18-37 10-70 13 8 21 25.5t8 38.5q0 27-12 46.5T233 284zM156 27q-11-11-26.5-16t-33-2.5Q79 11 63 19.5T34 42Q15 60 6.5 83T1 128q3 22 18 36 18 19 47 19 6 0 13-1 17-2 33-10.5t29-22.5q19-18 27.5-41t5.5-45q-3-22-18-36zM51 59q22-22 49-25 4-1 9-1 13 0 23 6-3 11-12 21-13 16-37 24-39 13-57 44-3-16 3.5-34.5T51 59zm73 73q-22 22-49 25-19 3-32-5 3-11 12-21 13-16 37-24 39-13 57-44 3 16-3.5 34.5T124 132z"/></svg>