<svg viewBox="0 0 300 311" xmlns="http://www.w3.org/2000/svg"><path d="M138 58q-24 0-44 12t-32 32q-12 20-12 43.5T62 189q12 20 32 32t43.5 12q23.5 0 43.5-12t32-32q12-20 12-43.5T213 102q-12-20-32-32t-43-12zm0 150q-17 0-31.5-8.5t-23-23Q75 162 75 145.5t8.5-31q8.5-14.5 23-23t31-8.5q16.5 0 31 8.5t23 23q8.5 14.5 8.5 31t-8.5 31q-8.5 14.5-23 23T137 208h1zm25-63q0 11-7.5 18t-18 7q-10.5 0-17.5-7t-7-17.5q0-10.5 7-18t17.5-7.5q10.5 0 18 7.5T163 145zm137 65l-18 98h-38l-18-98q-1-6 2.5-10.5t9.5-4.5h12v-50q0-30-15-56t-41-41q-26-15-56.5-15T81 48Q55 63 40 89t-15 56.5Q25 176 40 202t41 41q26 15 56 15 38 0 68-23l5 27q-33 21-71.5 21t-70-18.5q-31.5-18.5-50-50T0 145.5q0-37.5 18.5-69t50-50Q100 8 137.5 8t69 18.5q31.5 18.5 50 50T275 145v50h13q5 1 9 5t3 10z"/></svg>