<svg viewBox="0 0 300 311" xmlns="http://www.w3.org/2000/svg"><path d="M300 208v100H200q-27 0-50-13.5T114 258q14 0 28-3 10 13 25.5 20.5T200 283h75v-75q0-17-7.5-32.5T247 150q3-14 3-28 23 13 36.5 36t13.5 50zm-149 18q-19 7-38 7H0V120q0-30 15-56t41-41Q82 8 112.5 8T169 23q26 15 41 41t15 55.5q0 29.5-13.5 54.5T174 214l20 19 47-46 18 17-48 47q-7 7-17.5 7t-17.5-7l-25-25zm-38-18q23 0 43-12t32-32q12-20 12-43.5T188 77q-12-20-32-32t-43.5-12Q89 33 69 45T37 77q-12 20-12 43v88h88zm6-149q-17-4-30.5 7.5T75 95h25q0-5 4.5-9t10.5-3q4 1 6.5 3.5t3.5 7q1 4.5-1 8t-5 4.5q-8 5-13.5 14.5T100 139v6h25v-6q0-3 2-6.5t4-4.5q10-5 15.5-16t3-23Q147 77 139 69t-20-10zm-19 124h25v-25h-25v25z"/></svg>