<svg viewBox="0 0 300 311" xmlns="http://www.w3.org/2000/svg"><path d="M300 45v148q-9-8-19-13-2-7-6-13V45q0-5-3.5-8.5T262 33H38q-6 0-9.5 3.5T25 45v238h53q4 14 13 25H0V45q0-15 11-26T38 8h225q15 0 26 11t11 27v-1zM50 70q0 6 3.5 9.5t9 3.5q5.5 0 9-3.5t3.5-9q0-5.5-3.5-9t-9-3.5q-5.5 0-9 3.5T50 71v-1zm75 0q0-5-3.5-8.5t-9-3.5q-5.5 0-9 3.5t-3.5 9q0 5.5 3.5 9t9 3.5q5.5 0 9-3.5T125 70zm175 182q0 23-16.5 39.5T244 308H144q-18 0-31-13t-13-31q0-13 7-23.5t19-16.5q-1-5-1-10 0-18 9.5-34t25-25q15.5-9 34.5-9 24-1 42.5 14t24.5 38q17 6 28 20.5t11 33.5zm-25 0q0-12-7.5-21T248 221l-10-2-1-9q-1-17-13.5-28t-30-11.5Q176 170 163 183t-13 31q0 8 3 15l5 15-16 2q-7 0-12 5.5t-5 13q0 7.5 5.5 13T144 283h100q13 0 22-9t9-22z"/></svg>