<svg viewBox="0 0 300 311" xmlns="http://www.w3.org/2000/svg"><path d="M269 245q-6 1-12 3l-19-20q10-13 16-28l36 10 7-24-36-10q2-10 2-18t-2-18l36-10-7-24-36 10q-6-15-16-28l19-20q6 2 12 2 13 0 22-9t9-22q0-13-9-22t-22-9q-13 0-22 9t-9 22q0 6 2 12l-20 19q-13-10-28-16l10-36-24-7-10 36q-10-1-18-1t-18 1l-10-36-24 7 10 36q-15 6-28 16L60 51q3-6 2-12 1-13-8.5-22T31 8Q18 8 9 17T0 39q0 13 9 22t22 9q6 0 12-2l19 20q-10 13-16 28l-36-10-7 24 36 10q-1 10-1 18t1 18L3 186l7 24 36-10q6 15 16 28l-19 20q-6-3-12-3-13 0-22 9.5T0 277q0 13 9 22t22 9q13 0 22.5-9t9.5-22q0-6-3-12l20-19q13 10 28 16l-10 36 24 7 10-36q10 1 18 1t18-1l10 36 24-7-10-36q15-6 28-16l20 19q-2 6-3 12 1 13 10 22t22 9q13 0 22-9t9-22q0-13-9-22t-22-9v-1zM63 158q-1-24 11-44t32-31.5Q126 71 150 71t44 11.5Q214 94 225.5 114t11.5 44q0 24-11.5 44T194 234q-20 12-44 12t-44-12q-20-12-32-32t-11-44zm100 31q6 5 6 13t-5.5 13.5Q158 221 150 221t-13.5-5.5Q131 210 131 202t5.5-13.5Q142 183 150 183t13 6zm44-18q-5 6-13 6t-13.5-5.5Q175 166 175 158t5.5-13.5Q186 139 194 139t13.5 5.5Q213 150 213 158t-6 13zm-44-70q6 5 6 13t-5.5 13.5Q158 133 150 133t-13.5-5.5Q131 122 131 114t5.5-13.5Q142 95 150 95t13 6zm-44 44q6 5 6 13t-5.5 13.5Q114 177 106 177t-13.5-5.5Q87 166 87 158t5.5-13.5Q98 139 106 139t13 6z"/></svg>