<svg viewBox="0 0 300 311" xmlns="http://www.w3.org/2000/svg"><path d="M150 308q-41 0-75.5-20T20 233.5Q0 199 0 158t20-75.5Q40 48 74.5 28T150 8q41 0 75.5 20T280 82.5q20 34.5 20 75.5t-20 75.5Q260 268 225.5 288T150 308zm0-275q-34 0-62.5 17T42 95.5Q25 124 25 158t17 62.5Q59 249 87.5 266t62.5 17q34 0 62.5-17t45.5-45.5q17-28.5 17-62.5t-17-62.5Q241 67 212.5 50T150 33zm63 200q0-13-8.5-27.5t-22.5-25Q168 170 150 170q-25 2-43 20t-20 43h126zM75 133v12h50v-12q0-10-7.5-17.5T100 108q-10 0-17.5 7.5T75 133zm100 0v12h50v-12q0-10-7.5-17.5T200 108q-10 0-17.5 7.5T175 133z"/></svg>