<svg viewBox="0 0 300 311" xmlns="http://www.w3.org/2000/svg"><path d="M285 97q15-16 15-37.5T285 23Q270 8 248.5 8T212 23l-3 2Q192 8 170 8t-37 15q-15 15-15 37v1l-11-1q-23 0-39 16t-16 39q-17 4-28 18t-12 32q0 13 14 39 9 17 23 37L0 290l18 18 49-49q20 14 37 23 26 14 39 14 18 0 32-11.5t18-28.5q23 0 39-16t16-39l-1-10h1q22 0 37-15.5t15-37.5q0-22-17-39l2-2zm-28 12q9 7 13.5 14t4.5 16q0 11-8 18.5t-19 7.5l-29 1 2 14q1 14 1 21 1 13-8 21.5t-21 8.5q-3 0-8-1l-16-4 1 9v9q0 11-8 18.5t-19 7.5q-6 0-23-8.5T85 241l105-105-17-18L67 223q-12-18-20.5-34.5T38 165q0-11 7.5-19t17.5-8l19 1-4-16q-1-5-1-8 0-12 8.5-20.5T107 86q7 0 21 1l14 2 1-29q0-11 7.5-19t18.5-8q9 0 16 4.5T199 51l9 11 21-21q8-8 19.5-8t19 8q7.5 8 7.5 19t-8 19l-21 21 11 9z"/></svg>