<svg viewBox="0 0 300 311" xmlns="http://www.w3.org/2000/svg"><path d="M263 58h-38V45q0-15-11-26T188 8H38Q22 8 11 19T0 45v186q0 8 4 14t10 9.5q6 3.5 13.5 3.5t14.5-5l33-22v39h134l49 33q7 5 14.5 5t13.5-3.5q6-3.5 10-9.5t4-14V95q0-15-11-26t-27-11h1zM28 233h-2q-1-1-1-2V45q0-5 3.5-8.5T38 33h150q5 0 8.5 3.5T200 45v150H84l-56 38zm247 48v1l-1 1h-2l-56-37H100v-25h125V83h38q5 0 8.5 3.5T275 95v186zM100 170q-15 0-26-11t-11-26h25q0 5 3.5 8.5t8.5 3.5h30q3 0 5.5-2t2.5-5q0-3-2-5.5t-5-2.5l-41-7q-12-2-19.5-11T63 90q0-13 9.5-22.5T95 58h5V45h25v13q15 0 26.5 11T163 95h-25q0-5-4-8.5t-9-3.5H95q-3 0-5 2.5T88 91q0 3 1.5 5t4.5 2l41 7q12 2 19.5 11.5t7.5 22q0 12.5-9.5 22T130 170h-5v13h-25v-13z"/></svg>