<svg viewBox="0 0 300 311" xmlns="http://www.w3.org/2000/svg"><path d="M125 158q-10 0-17.5 7.5T100 183q0 10 7.5 17.5T125 208q10 0 17.5-7.5T150 183q0-10-7.5-17.5T125 158zm-74 68l17-17 31 31-17 17-31-31zM269 70l25-24q6-7 6-16t-6.5-15.5Q287 8 278 8t-16 6l-24 25v15l-35 33q-21-17-48.5-16.5T107 90q-7 7-12 17-1 1-2 1-18-1-36 6t-31 20Q8 152 2.5 177.5T5 229q8 26 28 46 15 16 35 24.5t42 8.5q19 0 36-7t29.5-20q12.5-13 19-30.5T200 215q0-1 1-2 10-5 17-12 18-20 19-47.5T221 105l35-35h13zm-69 113q-4 5-10.5 8T179 201q-4 7-4 15 1 13-4 26t-14 23q-14 13-33 16.5T85.5 279q-19.5-6-35-21.5t-21.5-35Q23 203 26.5 184T43 151q10-9 22-13.5t25-4.5h2q8 0 15-4t10-10.5q3-6.5 8-10.5 13-12 30-12.5t31 9.5l-23 22 18 18 22-22q10 13 9.5 30.5T200 183z"/></svg>