<svg viewBox="0 0 300 311" xmlns="http://www.w3.org/2000/svg"><path d="M181 151q13-13 13-31t-13-30.5Q168 77 150 77t-31 12.5Q106 102 106 120t13 31q-9 7-14 17t-5 21q0 21 14.5 35.5T150 239q21 0 35.5-14.5T200 189q0-11-5-21t-14-17zm-50-31q0-7 5.5-12.5T150 102q8 0 13.5 5.5t5.5 13q0 7.5-5.5 13T150 139q-8 0-13.5-5.5T131 120zm19 94q-10 0-17.5-7t-7.5-17.5q0-10.5 7.5-18T150 164q10 0 17.5 7.5t7.5 18q0 10.5-7.5 17.5t-17.5 7zM263 8H38Q22 8 11 19T0 46v262h300V45q0-15-11-26T262 8h1zm12 275H25V45q0-5 3.5-8.5T38 33h225q5 0 8.5 3.5T275 45v238z"/></svg>