<svg viewBox="0 0 300 311" xmlns="http://www.w3.org/2000/svg"><path d="M300 95V70h-25q0-15-11-26t-26-11V8h-25v25h-25V8h-25v25h-25V8h-25v25H88V8H63v25q-16 0-27 11T25 70H0v25h25v25H0v25h25v25H0v25h25v25H0v25h25q0 16 11 27t27 11v25h25v-25h25v25h25v-25h25v25h25v-25h25v25h25v-25q15 0 26-11t11-27h25v-25h-25v-25h25v-25h-25v-25h25v-25h-25V95h25zm-50 150q0 6-3.5 9.5T238 258H63q-6 0-9.5-3.5T50 245V70q0-5 3.5-8.5T63 58h175q5 0 8.5 3.5T250 70v175zM88 220h125V95H88v125zm25-100h75v75h-75v-75zm187-25V70h-25q0-15-11-26t-26-11V8h-25v25h-25V8h-25v25h-25V8h-25v25H88V8H63v25q-16 0-27 11T25 70H0v25h25v25H0v25h25v25H0v25h25v25H0v25h25q0 16 11 27t27 11v25h25v-25h25v25h25v-25h25v25h25v-25h25v25h25v-25q15 0 26-11t11-27h25v-25h-25v-25h25v-25h-25v-25h25v-25h-25V95h25zm-50 150q0 6-3.5 9.5T238 258H63q-6 0-9.5-3.5T50 245V70q0-5 3.5-8.5T63 58h175q5 0 8.5 3.5T250 70v175zM88 220h125V95H88v125zm25-100h75v75h-75v-75z"/></svg>