<svg viewBox="0 0 300 311" xmlns="http://www.w3.org/2000/svg"><path d="M300 95V70h-25q0-15-11-26t-27-11V8h-24v25h-25V8h-25v25h-25V8h-25v25H88V8H63v25q-16 0-27 11T25 71H0v24h25v25H0v25h25v25H0v25h25v25H0v25h25v38h38v25h25v-25h25v25h25v-25h25v25h25v-25h25v25h25v-25h37v-38h25v-25h-25v-25h25v-25h-25v-25h25v-25h-25V95h25zm-50 163H50V70q0-5 3.5-8.5T62 58h176q5 0 8.5 3.5T250 71v187zM136 98q-12-5-23 .5T99 116L75 220h26l3-12h42l3 12h26l-24-103q-2-7-5.5-12t-9.5-7zm-27 85l15-61q0-2 1-2t1 2l15 61h-32zm79-88h25v125h-25V95z"/></svg>