<svg viewBox="0 0 300 311" xmlns="http://www.w3.org/2000/svg"><path d="M211 198q-7-25-28-40t-47-12q-26 3-43.5 22.5T75 214q0 5 1 10-14 7-21 20.5t-4 29q3 15.5 15 25t28 9.5h100q21 0 36.5-13.5t19-34q3.5-20.5-8-38.5T211 198zm-17 85H94q-8 0-13.5-5T75 265.5q0-7.5 4.5-13.5t12.5-6l16-2-5-15q-5-12-2-24.5t12-21.5q9-9 21-11.5t24 1.5q12 4 20 14t9 23l1 9 10 2q12 1 20 11t7 22q-1 12-10 20.5t-21 8.5zM25 214q0 11 9 16-6 12-8 24-12-5-19-16t-7-24q0-13 7-23.5T26 174q-2-14 2-28.5t13.5-26Q51 108 65 102t29-6q15 0 29 6.5t24 18.5l-3-1q-16 1-30 6-12-7-25.5-5T65 131.5Q55 140 51.5 153t.5 26l6 15-16 2q-7 0-12 5.5T25 214zm275-95l-9 20q-8 16-20.5 28.5T241 186q-5-4-10-6-3-8-7-15 19-4 32-19-19-2-35.5-12.5t-26.5-27Q184 90 182 72t2-36l-12 6q-11 7-19 18t-11 24q-11-7-24-10 5-17 15.5-30.5T159 21q21-13 45-13h21l-10 19q-9 15-9 33t9 33q10 16 27 23.5t36 4.5l22-2z"/></svg>