<svg viewBox="0 0 300 311" xmlns="http://www.w3.org/2000/svg"><path d="M294 154q7-19 2-37-3-12-11-21t-19-14q-4-2-4-6-3-24-22-38.5T197 27q-4 1-7-3-17-16-40-16t-39 16q-4 4-8 3-24-4-43 10.5T38 76q0 4-4 6-11 5-18.5 14T4 117q-5 18 2 37 2 4 0 9-7 18-2 36 4 12 11.5 21T34 235q4 1 4 5 3 24 22 38.5t43 10.5q4-1 8 3 16 16 39 16t39-16q4-4 8-3 24 4 43-10.5t22-38.5q0-4 4-5 11-6 19-15t11-21q5-18-2-36-2-5 0-9zm-23 18q4 10 1 21-4 13-17 19-7 4-12 10.5t-6 14.5q-2 14-12.5 21.5T201 264q-8-1-15.5 1.5T172 274q-9 9-22 9t-22-9q-10-10-24-10h-5q-13 2-23.5-5.5T63 237q-1-8-6-14.5T45 212q-13-6-17-19-3-11 1-21 6-14 0-28-4-10-1-20 4-14 17-20 7-4 12-10.5T63 79q2-13 12.5-21T99 52q8 1 15.5-1.5T128 42q9-9 22-9t22 9q6 6 13.5 8.5T201 52q13-2 23.5 6T237 79q1 8 6 14.5t12 10.5q13 6 17 20 3 10-1 20-6 14 0 28zm-171-8q0 8-5.5 13.5t-13 5.5q-7.5 0-13-5.5t-5.5-13q0-7.5 5.5-13t13-5.5q7.5 0 13 5.5T100 164zm50 63q0 8-5.5 13.5t-13 5.5q-7.5 0-13-5.5T113 227q0-8 5.5-13.5t13-5.5q7.5 0 13 5.5T150 227zM113 89q0-7 5.5-12.5t13-5.5q7.5 0 13 5.5t5.5 13q0 7.5-5.5 13t-13 5.5q-7.5 0-13-5.5T113 89zm62 63q0 8-5.5 13.5t-13 5.5q-7.5 0-13-5.5T138 152q0-8 5.5-13.5t13-5.5q7.5 0 13 5.5T175 152zm63 25q0 8-5.5 13.5T219 196q-8 0-13.5-5.5T200 177q0-8 5.5-13.5T219 158q8 0 13.5 5.5T238 177z"/></svg>