<svg viewBox="0 0 300 311" xmlns="http://www.w3.org/2000/svg"><path d="M263 120H150q-16 0-27 11t-10 27v150h187V158q0-16-11-27t-27-11h1zm12 163H138V158q0-5 3.5-9t8.5-4h113q5 0 8.5 4t3.5 9v125zm-87-100q-1 5-4.5 8.5T175 195q-5 0-9-3.5t-3.5-8.5q.5-5 4-9t8.5-4q5 0 9 4t4 9zm62 62q0 4-2 7.5t-5.5 4.5q-3.5 1-7.5.5t-6.5-3q-2.5-2.5-3-6.5t.5-7.5q1-3.5 4.5-5.5t8-2q4.5 0 8 3.5t3.5 9.5v-1zM108 92q-2-3-3-6.5t.5-7q1.5-3.5 4.5-6t7-2.5q4 0 7 2.5t4.5 6q1.5 3.5 1 7t-4 6.5q-3.5 3-8.5 3t-9-3zm-24 24q3 3 3.5 6.5t-1 7q-1.5 3.5-4.5 6t-7 2.5q-4 0-7-2.5t-4.5-6q-1.5-3.5-1-7t4-6.5q3.5-3 8.5-3t9 3zm-55 18l59 59v35l-77-76Q0 141 0 125.5T11 99l80-80q11-11 26.5-11T144 19l76 76h-35l-59-58q-4-4-9-4t-9 4l-79 79q-4 4-4 9t4 9z"/></svg>