<svg viewBox="0 0 301 311" xmlns="http://www.w3.org/2000/svg"><path d="M205 195l-31 32q1 3 1 6 0 10-7.5 17.5T150 258q-10 0-17.5-7.5T125 233q0-10 7.5-17.5T150 208q3 0 6 1l32-31v-33l37-37v50h50l-37 37h-33zM63 283H25V133h140l25-25H25V70q0-5 3.5-8.5T37 58h226q5 0 8.5 3.5T275 71v37h-25v25h50V70q0-15-11-26t-26-11h-38V8h-25v25H100V8H75v25H38q-16 0-27 11T0 71v237h84q-12-11-21-25zm159-69l-22 22q-2 20-16 33.5T149.5 283q-20.5 0-35-14.5t-14.5-35q0-20.5 13.5-34.5t33.5-16l22-22q-10-3-19-3-20 0-37.5 10T85 195.5Q75 213 75 233t10 37.5Q95 288 112.5 298t37.5 10q20 0 37.5-10t27.5-27.5q10-17.5 10-37.5 0-10-3-19zm79 94l-1-140-24 25v90h-39q-9 14-21 25h85z"/></svg>