<svg viewBox="0 0 300 311" xmlns="http://www.w3.org/2000/svg"><path d="M32 199l-24 8q-4-13-6-27l24-3q2 11 6 22zm9 20l-22 13q7 11 16 22l19-16q-7-9-13-19zm69-206q-13 4-26 10l11 23q10-5 21-8l-6-25zM54 273q10 9 22 16l12-22q-9-6-18-13l-16 19zM28 132l-25-6q-3 14-3 27l25 1q0-11 3-22zm48-75L61 37q-11 8-20 18l18 17q8-8 17-15zM45 90L24 77q-7 11-13 24l23 9q5-10 11-20zm153 184l9 23q13-5 24-13l-13-21q-10 6-20 11zm-97 26q13 4 26 6l4-24q-11-2-22-6l-8 24zm161-87l23 11q6-12 10-25l-25-7q-3 11-8 21zm-27 36l18 18q9-9 18-20l-20-15q-7 9-16 17zm-81 34v25q14 0 27-3l-5-25q-11 3-22 3zM150 8q-7 0-14 1l3 25 11-1q34 0 62.5 17T258 95.5q17 28.5 17 62.5l-1 11 25 3q1-7 1-14 0-41-20-75.5T225.5 28Q191 8 150 8zm22 162h41v-25h-41q-4-5-9-9V83h-25v53q-7 4-10.5 11.5t-2 15q1.5 7.5 7 13t13 7q7.5 1.5 15-2T172 170z"/></svg>