<svg viewBox="0 0 300 311" xmlns="http://www.w3.org/2000/svg"><path d="M206 39q0-13 9.5-22t22-9q12.5 0 22 9t9.5 22q0 13-9.5 22.5t-22 9q-12.5-.5-22-9.5T206 39zm69 231v38h-25v-38h-25v38h-25v-38h-25l20-153q2-14 13.5-24T236 83h3q16 0 27.5 10t13.5 24l20 153h-25zm-71-25h67l-16-124q-1-6-5.5-9.5T239 108h-3q-6 0-10.5 3.5T220 121l-16 124zM50 70q13 0 22-9t9-22q0-13-9-22T50 8q-13 0-22 9t-9 22q0 13 9 22.5T50 71v-1zm50 50v113H88v75H63v-75H38v75H13v-75H0V120q0-15 11-26t27-11h25q15 0 26 11t11 26zm-75 88h50v-88q0-5-3.5-8.5T63 108H38q-6 0-9.5 3.5T25 121v87zm100 100h25V8h-25v300z"/></svg>