<svg viewBox="0 0 300 311" xmlns="http://www.w3.org/2000/svg"><path d="M31 8h79q-8 11-9 25H31q-2 0-4 2t-2 4v244h75v25H0V39q0-13 9-22t22-9zm32 87q0 11 7 18t18 7q6 0 12-3V74q-6-3-13-3-10 0-17 7t-7 18v-1zM50 208q0 16 11 27t27 11q6-1 12-3v-70q-6-2-12-2-16 0-27 11t-11 26zM300 39v269H125V39q0-13 9-22t22-9h113q13 0 22 9t9 22zm-25 0q0-2-2-4t-4-2H156q-2 0-4 2t-2 4v244h125V39zm-25 169q0 16-11 27t-26.5 11q-15.5 0-26.5-11t-11-27q0-16 11-27t26.5-11q15.5 0 26.5 11t11 27zm-37-88q10 0 17.5-7t7.5-17.5q0-10.5-7.5-18t-18-7.5Q202 70 195 77.5t-7 18q0 10.5 7 17.5t18 7z"/></svg>