<svg viewBox="0 0 300 311" xmlns="http://www.w3.org/2000/svg"><path d="M142 308H0V45q0-15 11-26T38 8h150q15 0 26 11t11 27v63q-7-1-12.5-1t-12.5 1V45q0-5-3.5-8.5T187 33H38q-6 0-9.5 3.5T25 46v237h94q9 14 23 25zm0-175H50v25h69q9-14 23-25zm-92 87h50q0-12 3-24H50v24zm250 0q0 24-12 44t-32 32q-20 12-43.5 12T169 296q-20-12-32-32t-12-43.5q0-23.5 12-43.5t32-32q20-12 43.5-12t43.5 12q20 12 32 32t12 43zm-25 0q0-16-8.5-30.5t-23-23q-14.5-8.5-31-8.5t-31 8.5q-14.5 8.5-23 23t-8.5 31q0 16.5 8.5 31t23 23q14.5 8.5 31 8.5t31-8.5q14.5-8.5 23-23T275 221v-1zM175 70H50v25h125V70zm70 122l-40 39-21-19-17 18 23 22q6 6 14.5 6t14.5-6l43-43-17-17z"/></svg>