<svg viewBox="0 0 300 311" xmlns="http://www.w3.org/2000/svg"><path d="M169 158q0 8-5.5 13.5T150 177q-8 0-13.5-5.5T131 158q0-8 5.5-13.5T150 139q8 0 13.5 5.5T169 158zm131 84l-22-25q-18-21-44-31 2 19-3 38-6 24-22 43.5t-39 30Q147 308 121 308H66l25-22q21-18 31-44-19 2-38-3-24-6-43.5-22t-30-39Q0 155 0 129V74l22 25q18 21 44 31-2-19 3-38 6-24 22-43.5t39-30Q153 8 179 8h55l-25 22q-21 18-31 44 19-2 38 3 25 6 44 22t29.5 39q10.5 23 10.5 49v55zm-25-62q-2-28-20-50t-45-29q-19-5-37-1-11 2-18-6-4-3-5-8t1-10q7-23 21-43-28 2-50 20T93 98q-5 19-1 37 2 11-6 18-3 4-8 5t-10-1q-23-7-43-21 2 28 20 50t45 29q19 5 38 1l3-1q9 0 14 7 4 3 5 8t-1 10q-7 23-21 43 28-2 50-20t29-45q5-19 1-37-2-11 6-18 3-4 8.5-5t9.5 1q23 7 43 21z"/></svg>