<svg viewBox="0 0 300 311" xmlns="http://www.w3.org/2000/svg"><path d="M186 140L300 26 282 8l-18 6q-20 8-33 14-18 9-18.5 14.5T215 54q3 9 8 13l-54 55q-10-17-7.5-35.5T177 54l9-9-18-17-17 17q-10 9-15 14-6 8-14 19-10 15-21.5 22.5T67 113l-10 2-21 6q-10 4-16 9-20 21-20 42 0 18 15 39 9 12 31 35l15 15q23 24 34 33 19 14 36 14 21 0 42-20 6-6 10-18 4-8 8-26 6-20 13.5-30t26.5-22q8-5 14-10l12-12 18-19-18-18q-15 15-35 16.5t-36-9.5zm-19 97q-7 28-12 33-13 13-24 13-10 0-24-12-9-7-28-27l-15-16q-22-22-29-33-10-14-9.5-24.5T38 148q3-3 25-8l10-2q22-6 35-13 16-8 28-24 3 29 24 50.5t52 23.5q-20 12-29.5 25.5T167 237zm-44-89l37 37-17 18-38-38 18-17zm-35 34l38 38-18 17-37-37 17-18z"/></svg>