<svg viewBox="0 0 300 311" xmlns="http://www.w3.org/2000/svg"><path d="M292 207L192 44q-7-11-18-17t-24-6.5q-13-.5-24 6T108 44L7 207q-7 12-7 25.5T6.5 258q6.5 12 18 18.5T50 283h200q14 0 25.5-6.5t18-18.5q6.5-12 6.5-25.5t-8-25.5zm-20 38q-4 6-9.5 9.5T250 258H50q-7 0-12.5-3.5t-9-9.5q-3.5-6-3.5-12.5t4-12.5l49-80 103 70-16 23h79l-33-66-18 25-68-47 5-12q1-4 4.5-5.5t6.5.5l2 1q8 4 11 12l2 5 22 15-7-26q-5-15-19-22l-4-2q-10-5-20.5-1T114 125l-4 10-20-13 39-65q7-11 21-11t21 11l100 163q4 6 4 12.5t-3 12.5zM163 83q0 5-4 8.5t-9 3.5q-5 0-8.5-3.5T138 83q0-5 3.5-8.5T150 71q5 0 8.5 3.5T162 83h1zm-67 93l16 11-17 46H75l21-57zm29 20l19 14v23h-19v-37z"/></svg>