<svg viewBox="0 0 302 311" xmlns="http://www.w3.org/2000/svg"><path d="M208 39q0-13 9-22t22-9q13 0 22 9t9 22q0 13-9 22t-22 9q-13 0-22-9t-9-22zm94 81q0-15-11-26t-27-11h-50q-7 0-14 3l22 22h42q5 0 9 3.5t4 8.5v75h-42l-33 34v79h25v-88h25v88h25v-88h25V120zM63 70q12 0 21.5-9T94 39q0-13-9.5-22t-22-9q-12.5 0-22 9T31 39q0 13 9.5 22T63 70zm155 70l-37-36-17 17 24 24h-75l24-24-18-17-37 36q-7 8-7 18t7 17l37 37 17-18-23-24h75l-24 24 17 18 37-37q7-7 7-17t-7-18zM25 195v-75q0-5 3.5-8.5T38 108h41l23-22q-7-3-14-3H38q-16 0-27 11T0 120v100h25v88h25v-88h25v88h25v-79l-33-34H25z"/></svg>