<svg viewBox="0 0 300 311" xmlns="http://www.w3.org/2000/svg"><path d="M300 108q-24 0-37-1-23-2-36-8l57-57-18-18-57 57q-6-13-8-36-1-13-1-37h-25q-1 27 3 55-32-20-61.5-17T63 73q-16 16-31 50-14 32-22.5 69T0 258q0 30 10 40 17 12 38 10 28 0 66-9t70-23q35-15 51-31 24-24 27-53.5T246 130q27 4 54 3v-25zm-83 120q-14 14-44 26-26 11-59 19-31 8-55.5 10T28 281q-5-6-3-31t10-56q8-33 19-59 12-30 26-44 9-10 20.5-15t24.5-6q33 0 73 40 68 69 19 118zm-47-90q5 4 5 10.5t-5 11.5q-15 8-32 10 2-17 10-32 5-5 11.5-5t10.5 5zm-87 87q4 5 4 11t-4 11q-16 8-33 11 3-17 11-33 5-4 11-4t11 4zm125-50q4 5 4 11t-4 11q-16 8-33 11 3-17 11-33 5-4 11-4t11 4zm-75-53q-16 8-33 11 3-17 11-33 5-4 11-4t10.5 4.5Q137 105 137 111t-4 11zm-25 41q4 4 4 10.5t-4 11.5q-16 8-33 11 3-18 11-33 5-5 11-5t11 5zm37 37q5 5 5 11t-5 11q-15 8-32 11 2-17 10-33 5-4 11.5-4t10.5 4z"/></svg>