<svg viewBox="0 0 300 311" xmlns="http://www.w3.org/2000/svg"><path d="M88 208l37 6v19H88v-25zm50-13l13 13 26-27-17-17-22 31zm75-106l-18-7-20 32 23 10 15-35zm87 69q0 41-20 75.5T225.5 288Q191 308 150 308t-75.5-20Q40 268 20 233.5T0 158q0-41 20-75.5T74.5 28Q109 8 150 8t75.5 20Q260 48 280 82.5t20 75.5zM150 283q24 0 45.5-8.5T234 250l-34-5-12-25 12-25 31-6 19-19 22 14q3-13 3-26 0-41-23.5-73.5T190 40l-15 30-25 7-6 18 19 25-19 25h-25l6 38-25 12-25-31-25 19H28q5 28 23 51t43.5 36q25.5 13 55.5 13z"/></svg>