<svg viewBox="0 0 300 311" xmlns="http://www.w3.org/2000/svg"><path d="M150 95q-17 0-31.5 8.5t-22.5 23Q88 141 88 158t8 31.5q8 14.5 22.5 22.5t31.5 8q17 0 31.5-8t22.5-22.5q8-14.5 8.5-31.5t-8-31.5q-8.5-14.5-23-22.5T150 96v-1zm0 100q-16 0-26.5-10.5T113 158q0-16 10.5-26.5t26.5-11q16-.5 26.5 10.5t11 27q.5 16-10.5 26.5T150 195zm150-37q0 13-6.5 24.5T276 201q-4 3-5.5 7t-.5 8q3 13-.5 25.5t-12 21.5q-8.5 9-20.5 13v-10q1-12 0-18 6-6 8-13t0-13q-2-12 2.5-23.5T263 180q5-3 8.5-9t3.5-13q0-7-3.5-13t-8.5-9q-11-7-15.5-18.5T245 94q2-6 0-13t-6.5-11.5Q234 65 227 63t-13 0q-12 2-23.5-2.5T172 45q-3-5-9-8.5T150 33q-7 0-13 3.5t-9 8.5q-7 11-18.5 15.5T86 63q-6-2-13 0t-11.5 6.5Q57 74 55 81t0 13q2 12-2.5 23.5T37 136q-5 3-8.5 9T25 158q0 7 3.5 13t8.5 9q11 7 15.5 18.5T55 222q-2 6 0 13t8 13q-1 6-1 18l1 10q-12-4-20.5-13t-12-21.5Q27 229 30 216q1-4-.5-8t-5.5-7q-11-7-17.5-18.5T0 158q0-13 6.5-24.5T24 115q4-3 5.5-7t.5-8q-3-13 1-26t13-22q9-9 22-13t26-1q4 1 8-.5t7-5.5q7-11 18.5-17.5T150 8q13 0 24.5 6.5T193 32q3 4 7 5.5t8 .5q13-3 26 1t22 13q9 9 13 22t1 26q-1 4 .5 8t5.5 7q11 7 17.5 18.5T300 158zm-88 112v5q1 18-2 24-3 9-16 9-16 0-44-25-28 25-44 25-13 0-16-9-3-6-3-24v-9q0-18 3-24 3-9 16-9 16 0 44 25 28-25 44-25 13 0 16 9 3 6 2 24v5-1z"/></svg>