<svg viewBox="0 0 300 311" xmlns="http://www.w3.org/2000/svg"><path d="M163 52q0-18 12.5-31T206 8q18 0 31 13t13 31q0 18-13 30.5T206 95q-18 0-30.5-12.5T163 52zm-25 200q0 18-13 30.5T94 295q-18 0-31-12.5T50 252q0-18 13-31t31-13q18 0 31 13t13 31zm-25 0q0-8-5.5-13.5T94 233q-8 0-13.5 5.5T75 252q0 8 5.5 13t13.5 5q8 0 13.5-5t4.5-13h1zm93-44q-18 0-30.5 13T163 252q0 18 12.5 30.5T206 295q18 0 31-12.5t13-30.5q0-18-13-31t-31-13zM138 52q0 18-13 30.5T94 95q-18 0-31-12.5T50 52q0-18 13-31T94 8q18 0 31 13t13 31zm-25 0q0-8-5.5-13.5T94 33q-8 0-13.5 5.5T75 52q0 8 5.5 13T94 70.5q8 .5 13-5t5-13.5h1zm93 56q-18 0-30.5 13T163 152q0 18 12.5 30.5T206 195q18 0 31-12.5t13-30.5q0-18-13-31t-31-13zm-112 0q-18 0-31 13t-13 31q0 18 13 30.5T94 195q18 0 31-12.5t13-30.5q0-18-13-31t-31-13z"/></svg>