<svg viewBox="0 0 300 311" xmlns="http://www.w3.org/2000/svg"><path d="M300 158q0 31-12 59t-33 48q6-10 7-23t-2-25q15-28 15-59 0-34-17-62.5T212.5 50Q184 33 150 33T87.5 50Q59 67 42 95.5T25 158q0 34 17 62.5T87.5 266q28.5 17 62.5 17 7 0 14-1 18 14 39 14l8-1q-29 13-61 13-41 0-75.5-20T20 233.5Q0 199 0 158t20-75.5Q40 48 74.5 28T150 8q41 0 75.5 20T280 82.5q20 34.5 20 75.5zm-200-38q3 0 8 8t4 17h26q0-18-11-33.5t-27-16Q84 95 73.5 111T63 146h25q0-10 4.5-17.5t7.5-7.5v-1zm100-25q-16 0-27 16t-11 35h26q-1-10 4-17.5t8-8q3-.5 8 7.5t5 17h25q0-18-11-33.5T200 96v-1zm31 115q8 14 6 29-2 18-16 27-9 5-18 5-7 0-14-3-14-6-22-19l-10-16h-7q-24 0-50-14-12-7-21-14l17-19q6 5 16 11 20 11 38 11t37-9q9-5 15-10l12-9 17 30zm-22 13l-3-6q-11 6-23 10l5 9q4 6 10 8.5t10 0q4-2.5 4.5-9T209 223z"/></svg>