<svg viewBox="0 0 300 311" xmlns="http://www.w3.org/2000/svg"><path d="M275 8h-27q-16 0-27 11L117 123q-31-7-60.5 5t-45 40Q-4 196 0 227.5t26.5 54Q49 304 80.5 308t59.5-11.5q28-15.5 40-45t5-60.5l15-15v-31h38v-37h30l21-21q11-11 11-27V33q0-10-7.5-17.5T275 8zm0 52q0 5-4 9l-14 14h-44v37h-38v45l-19 20q6 14 6 29 1 19-8.5 35T128 274q-16 9-34.5 9T59 274q-16-9-25-25t-9-34.5q0-18.5 9-34.5t25-25.5q16-9.5 35-9.5 16-1 29 7L239 37q4-4 9-4h27v27zM63 233q0 5 3.5 8.5T75 245q5 0 8.5-3.5t4-8.5q.5-5-3.5-8.5t-9-4q-5-.5-8.5 3.5t-3.5 9z"/></svg>