<svg viewBox="0 0 300 311" xmlns="http://www.w3.org/2000/svg"><path d="M266 190q9-11 9-25.5t-8-25.5q-8-11-20-16 3-7 3-15 0-16-11-27t-26-11h-2q-3-14-12-28.5t-22-24Q164 8 150 8h-12v12q0 23-12 38-7 8-16 12H88q-16 0-27 11t-11 27q0 8 3 15-12 5-20 16t-8 25.5q0 14.5 9 25.5-15 8-24.5 23T0 245q0 17 8.5 31.5t23 23Q46 308 63 308h175q16 0 30.5-8.5t23-23Q300 262 300 245t-9.5-32q-9.5-15-24.5-23zm-28 93H63q-16 0-27-11t-11-26.5Q25 230 36 219t27-11h112v-25H69q-8 0-13.5-5.5T50 164q0-8 5.5-13.5T69 145h106v-25H88q-6 0-9.5-3.5T75 108q0-5 3.5-9t9.5-4h28q10-3 21-13 20-17 24-45 10 6 18.5 20.5T188 83v12h25q5 0 8.5 4t3.5 9q0 5-3.5 8.5T212 120v25h19q8 0 13.5 5.5T250 164q0 8-5.5 13.5T231 183h-18v25h25q15 0 26 11t11 26.5q0 15.5-11 26.5t-27 11h1z"/></svg>