<svg viewBox="0 0 300 311" xmlns="http://www.w3.org/2000/svg"><path d="M300 108q0-16-11-27t-27-11h-24V45h25V20h-75v25h25v25H113V45H38v25q-16 1-27 11.5T0 108v175h25v25h25v-25h200v25h25v-25h25V108zm-25 150H25V108q0-5 3.5-8.5T37 95h226q5 0 8.5 4t3.5 9v150zm-69-138q-23 1-39.5 17T150 176.5q0 23.5 16.5 40t40 16.5q23.5 0 40-16.5t16-40Q262 153 246 137t-40-16v-1zm0 88q-9 0-16.5-5T178 190l28-13-28-13q5-11 15.5-16t21.5-1.5q11 3.5 17.5 13.5t5 21.5q-1.5 11.5-10.5 19t-21 7.5zM94 120q-24 0-40.5 16.5t-16 40q.5 23.5 16.5 40T93.5 233q23.5 0 40-16.5t16.5-40q0-23.5-16.5-39.5T94 121v-1zm0 88q-5 0-9-1l9-30-30 9q-1-5-1-9 0-13 9-22.5t22-9.5q13 0 22 9.5t9 22.5q0 13-9 22t-22 9z"/></svg>