<svg viewBox="0 0 300 311" xmlns="http://www.w3.org/2000/svg"><path d="M150 183q24 0 50 14 12 7 21 14l-17 19q-6-6-16-11-20-11-38-11t-38 11q-9 5-16 11l-17-19q9-7 22-14 25-14 49-14zm34-60q-9 6-9 16 0 8 5.5 13.5T194 158q8 0 13.5-5.5T213 139q0-3-1-5l21-16-16-20-33 25zm100-32q16 32 16 67 0 41-20 75.5T225.5 288Q191 308 150 308t-75.5-20Q40 268 20 233.5T0 158q0-35 16-67L0 8l62 28q19-13 41.5-20.5T150 8q24 0 46.5 7.5T238 36l62-28-16 83zm-9 67q0-34-17-62.5T212.5 50Q184 33 150 33T87.5 50Q59 67 42 95.5T25 158q0 34 17 62.5T87.5 266q28.5 17 62.5 17t62.5-17q28.5-17 45.5-45.5t17-62.5zM88 139q0 8 5 13.5t13 5.5q8 0 13.5-5.5T125 139q0-5-2.5-9t-6.5-7L83 98l-16 20 21 16v5z"/></svg>