<svg viewBox="0 0 300 311" xmlns="http://www.w3.org/2000/svg"><path d="M150 185V70h-25v115q-13 5-20 16.5t-4.5 25q2.5 13.5 13 22.5t24 9q13.5 0 24-9t13-22.5q2.5-13.5-4.5-25T150 185zm-12 48q-6 0-9.5-3.5t-3.5-9q0-5.5 3.5-9t9-3.5q5.5 0 9 3.5t3.5 9q0 5.5-3.5 9T138 233zm62-163q0-16-8.5-30.5t-23-23Q154 8 137.5 8t-31 8.5q-14.5 8.5-23 23T75 71v88q-17 17-22.5 39.5t.5 45q6 22.5 23 39t39.5 22.5q22.5 6 44.5 0t39-22.5q17-16.5 23-39t.5-45Q217 176 200 159V70zm-62 213q-20 0-36-11t-23-29q-7-18-2.5-37T96 174l4-4V70q0-15 11-26t26.5-11Q153 33 164 44t11 27v99l4 4q15 13 19.5 32t-2.5 37q-7 18-23 29t-36 11h1zM263 8q-16 0-27 11t-11 26.5Q225 61 236 72t26.5 11Q278 83 289 72t11-26.5Q300 30 289 19T262 8h1zm0 50q-6 0-9.5-3.5t-3.5-9q0-5.5 3.5-9t9-3.5q5.5 0 9 3.5t3.5 9q0 5.5-3.5 9T263 58z"/></svg>