<svg viewBox="0 0 300 311" xmlns="http://www.w3.org/2000/svg"><path d="M175 100q0-3-2-5t-4-3l-41-6q-12-2-20-11.5t-8-22q0-12.5 9.5-22.5T133 20h5V8h25v12q15 0 26 11.5T200 58h-25q0-5-3.5-9t-8.5-4h-30q-3 0-5.5 2.5T125 53q0 3 2 5.5t5 2.5l41 7q12 2 19.5 11t7.5 22q0 13-9.5 22.5T167 133h-4v12h-25v-12q-16 0-27-11t-11-27h25q0 6 3.5 9.5t9.5 3.5h29q3 0 5.5-2.5t2.5-5.5zm88-55q-16 0-27 11.5T225 83v65q-6-2-10-3-16 0-27 10l-38 35-37-35q-12-10-27-9-5 0-11 2V83q0-15-11-26.5T37.5 45Q22 45 11 56.5T0 83v153q0 14 10 25l42 47h34l-58-64q-3-3-3-8V83q0-5 3.5-9t9-4q5.5 0 9 4t3.5 9v100q0 14 9 25l33 34 18-18-32-33q-3-4-3-8.5t3.5-8q3.5-3.5 8.5-4t9 2.5l50 47q4 3 4 9v79h25v-79q0-12-7-22l36-33q4-4 9-3.5t8.5 4q3.5 3.5 3.5 7.5v1q0 4-2 7l-32 33 18 18 32-34q9-10 9-24V83q0-5 3.5-9t8.5-4q5 0 9 4t4 9v153q0 5-3 8l-58 64h34l42-47q10-11 10-25V83q0-15-11-26.5T262 45h1z"/></svg>