<svg viewBox="0 0 300 311" xmlns="http://www.w3.org/2000/svg"><path d="M94 170q-24 0-40.5-16t-16-39.5Q38 91 54 74.5T93.5 58q23.5 0 40 16.5t16.5 40q0 23.5-16.5 39.5T94 170zm0-87q-13 0-22 9t-9 22q0 13 9 22.5t22 9q13-.5 22-9.5t9-22q0-13-9-22t-22-9zm94 175q-1-17-9-31.5T156.5 204q-14.5-8-31.5-9H63q-17 1-31.5 9t-23 22.5Q0 241 0 258v50h25v-50q0-16 11-27t26-11h63q16 0 27 11t11 27v50h25v-50zm31-138q-24 1-40-15.5t-16-40q0-23.5 16-40T218.5 8q23.5 0 40 16.5t16.5 40q0 23.5-16.5 39.5T219 121v-1zm0-87q-13 0-22 9t-9 22q0 13 9 22.5t22 9q13-.5 22-9.5t9-22q0-13-9-22t-22-9zm81 175q0-17-8.5-31.5t-23-22.5q-14.5-8-31.5-9h-49v25h50q15 0 26 11t11 27v50h25v-50z"/></svg>