<svg viewBox="0 0 301 311" xmlns="http://www.w3.org/2000/svg"><path d="M11 83Q-1 69 0 50t15.5-31Q30 7 48.5 8.5T79 24l49 57-18 18-50-59q-5-6-13.5-6.5T32 38q-6 5-7 13.5T30 67l54 57-18 18-55-59zm290 225h-80q-13 0-27-7.5T171.5 280q-8.5-13-8.5-28t7.5-28q7.5-13 20.5-21t28-8q34 0 56 38 12 21 22 59l4 16zm-33-25q-8-29-18-44-13-19-31-19-11 0-21 9.5t-10 22q0 12.5 11 22t22 9.5h47zm19-198L64 308H0v-64L223 21q13-13 32-13t32 13q13 14 13 32.5T287 85zm-68 32l-28-28L25 254v29h29l165-166zm56-64q0-8-6-14t-14.5-6q-8.5 0-14.5 6l-32 32 29 29 32-32q6-6 6-15z"/></svg>