<svg viewBox="0 0 300 311" xmlns="http://www.w3.org/2000/svg"><path d="M263 8H38Q22 8 11 19T0 46v49l14 163h24v6q0 18 12.5 31T81 308q18 0 31-13t13-31v-6h50v6q0 18 13 31t31 13q18 0 31-13t13-31v-6h24l13-163V45q0-15-11-26T262 8h1zm12 37v38h-50V33h38q5 0 8.5 3.5T275 46v-1zM100 83V33h38v50h-38zm63-50h37v50h-37V33zM38 33h37v50H25V45q0-5 3.5-8.5T37 33h1zm62 231q0 8-5.5 13.5T81 283q-8 0-13-5.5T63 264v-6h37v6zm138 0q0 8-5.5 13.5T219 283q-8 0-13.5-5.5T200 264v-6h38v6zM37 233L26 108h248l-10 125H37z"/></svg>