<svg viewBox="0 0 300 311" xmlns="http://www.w3.org/2000/svg"><path d="M213 27q0-8 5-13.5T231 8q8 0 13.5 5.5T250 27q0 8-5.5 13T231 45q-8 0-13.5-5T212 27h1zm11 75q12 15 19 33.5t7 39.5q0 12-3 25l-3 9h-9q-25 0-43 17-10 11-14.5 25.5T176 280l2 9-8 5q-27 14-53 14-21 0-39.5-7T44 282l-26 26-18-18 26-26q-12-15-19-33.5T0 191q0-26 14-52l4-8 9 1q14 3 27.5-1.5T78 116q18-18 18-42v-9l9-3q14-4 28-4 21 0 39.5 7T206 84l76-76 18 18-76 76zm-18 17l-85 85-17-17 85-85q-25-19-56-19-6 0-13 1-3 29-24 49-13 13-29.5 19.5T32 158q-7 17-7 33 0 31 19 56l28-29 18 18-29 28q25 19 56 19 16 0 33-8-1-18 5-35.5t20-30.5q20-21 49-24 1-5 1-10 0-31-19-56zm75-61q-8 0-13 5.5T263 77q0 8 5 13.5t13 5.5q8 0 13.5-5.5T300 77q0-8-5.5-13.5T281 58z"/></svg>