<svg viewBox="0 0 300 311" xmlns="http://www.w3.org/2000/svg"><path d="M169 139q0 8-5.5 13.5T150 158q-8 0-13.5-5.5T131 139q0-8 5.5-13.5t13.5-5q8 .5 13.5 5.5t5.5 13zm44-19q-8 1-13.5 6t-5.5 13q0 8 5.5 13.5t13 5.5q7.5 0 13-5.5T231 139q0-8-5.5-13.5T213 120zm-125 0q-8 1-13.5 6T69 139q0 8 5.5 13.5t13 5.5q7.5 0 13-5.5T106 139q0-8-5.5-13.5T87 120h1zm212-75v213h-86l-48 40q-7 6-16 6t-17-7l-46-39H0V45q0-15 11-26T38 8h225q15 0 26 11t11 27v-1zm-25 0q0-5-3.5-8.5T262 33H38q-6 0-9.5 3.5T25 45v188h71l54 46 55-46h70V45z"/></svg>