<svg viewBox="0 0 300 311" xmlns="http://www.w3.org/2000/svg"><path d="M300 108q0-12-5.5-23T279 67q-10-7-22-8.5T233 61q-14-14-35-15-4-17-17.5-27.5T150 8q-17 0-30.5 10.5T102 46q-21 1-35 15-12-4-24-2.5T21 67Q11 74 5.5 85T0 108q0 16 10 29-13 21-9 45t24 38q0 17 7.5 31T54 273.5q14 8.5 30 9.5t30-6l23 31h26l23-31q14 7 30 6t30-9.5q14-8.5 21.5-22.5t7.5-31q20-14 24-38t-9-45q10-13 10-29zM88 258q-16 0-27-11t-11-27l2-13-8-4q-7-4-12-11t-6.5-15.5q-1.5-8.5 1-17T35 145l9-10-10-8q-6-5-8-12.5t.5-15q2.5-7.5 9-12T50 83h3q-5 16-1 32.5T69 143q-7 13-6.5 27.5t7 27.5Q76 211 87 220q0 20 12 36-6 2-11 2zm100-38q-1 12-7.5 22T162 256V108h-24v148q-12-4-18.5-14t-7.5-22l2-13-7-4q-9-5-14-13.5T87 171q1-13 8-23l9-12-12-7q-10-5-14.5-15T76 94q3-10 11.5-17t18.5-6h19V58q0-10 7.5-17.5T150 33q10 0 17.5 7.5T175 58v12h19q10 0 18.5 7T224 94q3 10-1.5 20T208 129l-12 7 9 12q7 10 8 22-1 11-6 19.5T193 203l-7 5 1 12h1zm77-75q6 6 8.5 14.5t1 17Q273 185 268 192t-12 11l-8 5 2 12q0 9-4 17t-11.5 13.5q-7.5 5.5-16 7T201 256q12-16 11-36 12-9 18.5-22t7-27.5Q238 156 231 143q13-11 17.5-27.5T247 83h3q8 0 14.5 4.5t9 12q2.5 7.5.5 15t-8 12.5l-10 8 9 10z"/></svg>