<svg viewBox="0 0 300 311" xmlns="http://www.w3.org/2000/svg"><path d="M138 270h25v38h-25v-38zm-38-37h25v-38h-25v38zm-37 75h25v-38H63v38zm112-75h25v-38h-25v38zm38 75h25v-38h-25v38zm5-237q-10-24-29.5-40.5t-45-21Q118 5 93.5 13t-42 27Q34 59 28 83.5t0 50.5q-16 11-23 29.5t-4 38q3 19.5 16.5 34T50 255v-26q-11-6-18-16.5t-7-23q0-12.5 6.5-23T49 150l10-5-4-10q-7-18-4.5-36t13-33.5q10.5-15.5 27-24T125 33q25 0 45 15t27 39l2 8h9q22 1 39 14t24 33q7 20 1.5 41T250 217v30q27-14 40.5-41.5t8-58Q293 117 270.5 96T218 71z"/></svg>