<svg viewBox="0 0 300 311" xmlns="http://www.w3.org/2000/svg"><path d="M300 115l-34-32q-11-13-28-12h-96l-30-22V20q-7 0-13 4t-9 11q-6-2-13-2h-5q-3-6-9-9.5T50 21v21q-4 3-6 7L12 87Q0 99 0 116t12 29.5Q24 158 44 158q8 0 22-6l9 45v86h75v-38h50v38h75V126l8 7 17-18zm-231 7q-7 4-14.5 7.5T44 133q-9 0-14-5t-5-12q0-7 6-13l32-38q4-6 12-7t13 4l45 33h105q6 1 9 5t3 8v62H95l-11-57-15 9zm156 136v-38H125v38h-25v-63h150v63h-25zm-62-125q0-5 3.5-8.5t8.5-4q5-.5 8.5 3.5t4 9q.5 5-3.5 8.5t-9 3.5q-5 0-8.5-3.5T163 133zm50 0q0-5 3.5-8.5t8.5-4q5-.5 8.5 3.5t3.5 9q0 5-3.5 8.5T225 145q-5 0-8.5-3.5T213 133zm-100 0q0-5 3.5-8.5t8.5-4q5-.5 8.5 3.5t4 9q.5 5-3.5 8.5t-9 3.5q-5 0-8.5-3.5T113 133z"/></svg>