<svg viewBox="0 0 300 311" xmlns="http://www.w3.org/2000/svg"><path d="M300 158q0-21-14.5-35.5T251 108q-17-34-51-51-1-20-15.5-33.5T150 10q-20 0-34.5 13.5T100 57q-34 17-51 51-20 0-34.5 14.5T0 157.5q0 20.5 14.5 35T49 208q17 34 51 51 1 20 15.5 33.5T150 306q20 0 34.5-13.5T200 259q34-17 51-51 20-1 34.5-15.5T300 158zM150 33q10 0 17.5 7.5T175 58q0 10-7.5 17.5T150 83q-10 0-17.5-7.5T125 58q0-10 7.5-17.5T150 33zM25 158q0-11 7.5-18t17.5-7q10 0 17.5 7t7.5 17.5q0 10.5-7.5 18T50 183q-10 0-17.5-7.5T25 158zm125 125q-10 0-17.5-7.5T125 258q0-10 7.5-17.5T150 233q10 0 17.5 7.5T175 258q0 10-7.5 17.5T150 283zm43-49q-6-12-17.5-19t-25.5-7q-14 0-25.5 7T107 234q-21-12-33-33 12-6 19-18t7-25.5q0-13.5-7-25T74 114q12-20 33-32 6 12 17.5 19t25.5 7q14 0 25.5-7T193 82q21 12 33 32-12 7-19 18.5t-7 25q0 13.5 7 25.5t19 18q-12 21-33 33zm57-51q-10 0-17.5-7.5t-7.5-18q0-10.5 7.5-17.5t17.5-7q10 0 17.5 7t7.5 17.5q0 10.5-7.5 18T250 183z"/></svg>