<svg viewBox="0 0 300 311" xmlns="http://www.w3.org/2000/svg"><path d="M300 95q-1-23-13-42.5T255.5 21Q236 9 212 8h-12v43q-33-10-66.5-1t-58 33.5Q51 108 42 141.5t1 66.5H1l-1 12q0 17 6.5 32T25 279.5q12 12.5 28.5 20T87 308h13v-43q33 10 66.5 1t58-33.5q24.5-24.5 33.5-58t-1-66.5h43V95zM75 281q-19-5-32-19-12-12-17-29h49v48zm131-67q-24 25-55.5 30.5T94 234l-12-8-8-12q-16-25-10-56.5T94 102q24-24 55.5-30T206 82l12 8 8 12q16 25 10.5 56.5T206 214zm19-131V35q17 5 30 18t18 30h-48zm-54 96l18 18q-19 18-45 23-4 1-9 1-20 0-34-14l17-17q10 8 22 5 18-3 31-16z"/></svg>