<svg viewBox="0 0 300 311" xmlns="http://www.w3.org/2000/svg"><path d="M115 229q34-18 61-45t45-61q12 22 12 47-1 29-21 49.5T162 241q-25 0-47-12zm23-161l-7 56 56-7-3-24-24 2 2-24-24-3zM87 168l-2 24 24 3 7-56-56 7 3 24 24-2zm176-48q10 0 17.5-7t7.5-17.5q0-10.5-7.5-17.5T263 71q-7-1-21 6l-24 12-11 6 11 7 24 12q14 6 21 6zM63 270q-1 11 6.5 18.5t18 7Q98 295 105 288t7.5-16.5Q113 262 100 237q-6-12-12-22h-1l-6 11-12 24q-6 14-6 20zm235-139q-10 10-24 13 1 7 1 14 0 34-17 62.5T212.5 266Q184 283 150 283q-7 0-14-1-3 14-13 23 36 7 71.5-4t61.5-37q26-26 37-61.5t4-71.5h1zM150 33q41 0 74 25 13-7 27-11-29-26-67-35t-75 1.5Q72 24 44 52T5.5 117Q-5 154 4 192t35 67q4-14 11-27-21-28-24.5-63.5t12.5-67q16-31.5 46.5-50T150 33z"/></svg>