<svg viewBox="0 0 300 311" xmlns="http://www.w3.org/2000/svg"><path d="M63 195h37v-37H63v37zm225-42v155H13V153q8-9 15-22 10-15 10-23V50q0-12 7.5-22.5T65 14q15-4 32-5 9-1 16-1h75q6 0 15 1 17 1 32 5 12 3 20 13.5t8 22.5v58q0 8 9 24 8 12 16 21zm-150 7L92 35q-11 1-21 3-3 1-6 4.5T62 50v58q1 13-9 31-6 12-15 23v121h100V160zm12-39l32-88h-64l32 88zm113 41q-10-11-16-23-9-18-9-31V50q-1-4-3.5-7.5T229 38q-10-2-21-3l-45 125v123h100V162zm-75 33h50l-25-37-25 37zm-88 44q0 8-5.5 13.5T81 258q-8 0-13-5.5T63 239q0-8 5-13.5t13-5.5q8 0 13.5 5.5T100 239z"/></svg>