<svg viewBox="0 0 300 311" xmlns="http://www.w3.org/2000/svg"><path d="M300 289v19h-25v-19q0-2-2-4t-4-2h-38q-2 0-4 2t-2 4v19h-50v-19q0-2-2-4t-4-2h-38q-2 0-4 2t-2 4v19H75v-19q0-2-2-4t-4-2H31q-2 0-4 2t-2 4v19H0v-19q0-13 9-22t22-9h38q13 0 22 9t9 22q0-13 9-22t22-9h38q13 0 22 9t9 22q0-13 9-22t22-9h38q13 0 22 9t9 22zM19 214q0 13 9 22.5t22 9q13-.5 22-9.5t9-22q0-13-9-22t-22-9q-13 0-22 9t-9 22zm131-31q-13 0-22 9t-9 22q0 13 9 22t22 9q13 0 22-9t9-22q0-13-9-22t-22-9zm0-113q13 0 22-9t9-22q0-13-9-22t-22-9q-13 0-22 9t-9 22q0 13 9 22.5t22 9.5v-1zm69 144q0 13 9 22t22 9q13 0 22-9t9-22q0-13-9-22t-22-9q-13 0-22 9t-9 22zm-119-26q8-16 25-24v-44h50v44q17 8 25 24v-69l89-77-16-18-84 71h-78L27 24 11 42l89 77v69z"/></svg>