<svg viewBox="0 0 300 311" xmlns="http://www.w3.org/2000/svg"><path d="M175 83q0-20-10-37.5T137.5 18Q120 8 100 8T62.5 18Q45 28 35 45.5T25 83q0 20 10 37.5T62.5 148Q80 158 100 158t37.5-10q17.5-10 27.5-27.5T175 83zm-75 50q-21 0-35.5-14.5T50 83q0-21 14.5-35.5T100 33q21 0 35.5 14.5T150 83q0 21-14.5 35.5T100 133zm-44 50h32v25H56q-13 0-22 9t-9 22v69H0v-69q0-23 16.5-39.5T56 183zm188 42h-11v-22h11q4 0 7.5 3.5t3.5 8q0 4.5-3.5 7.5t-7.5 3zm19-67H150q-16 0-26.5 11T113 196v112h187V195q0-15-11-26t-27-11h1zm-63 125h-20v-40h-22v40h-20V183h20v40h22v-40h20v100zm62-44v1l13 43h-22l-11-38h-9v38h-20V183h31q13 0 22 9t9 22q0 8-3.5 14.5T262 240v-1z"/></svg>