<svg viewBox="0 0 300 311" xmlns="http://www.w3.org/2000/svg"><path d="M300 158q0 41-20 75.5T225.5 288Q191 308 150 308t-75.5-20Q40 268 20 233.5T0 158q0-41 20-75.5T74.5 28Q109 8 150 8q31 0 59 12-11 9-16 21-21-8-43-8-34 0-62.5 17T42 95.5Q25 124 25 158t17 62.5Q59 249 87.5 266t62.5 17q34 0 62.5-17t45.5-45.5q17-28.5 17-62.5 0-22-8-43 12-5 21-16 12 28 12 59zm-175-50q0-10-7.5-17.5T100 83q-10 0-17.5 7.5T75 108q0 10 7.5 17.5T100 133q10 0 17.5-7.5T125 108zm119-13q13 1 22-8.5t9-22.5q0-13-9-22t-22-9q-13 0-22.5 9T212 64q0 13 9.5 22.5T244 96v-1zm-75 63q0-8-5.5-13.5T150 139q-8 0-13.5 5.5T131 158q0 8 5.5 13.5T150 177q8 0 13.5-5.5T169 158zm-35-86q11 10 14 24l2-1q17 0 31.5 8.5t22.5 23q8 14.5 8.5 31.5t-8 31.5q-8.5 14.5-23 22.5t-31.5 8q-17 0-31.5-8T96 189.5Q88 175 88 158v-2q-14-3-24-14-1 9-1 16-1 24 11 44t32 31.5q20 11.5 44 12t44-11.5q20-12 31.5-32t11.5-44q0-24-11.5-44T194 82.5Q174 71 150 71q-7-1-16 1z"/></svg>