<svg viewBox="0 0 300 311" xmlns="http://www.w3.org/2000/svg"><path d="M150 8q-41 0-75.5 20T20 82.5Q0 117 0 158t20 75.5Q40 268 74.5 288t75.5 20q41 0 75.5-20t54.5-54.5q20-34.5 20-75.5t-20-75.5Q260 48 225.5 28T150 8zm125 150q0 22-7.5 42.5T247 237l-58-58q16-6 26-20.5t10-31.5q0-24-16.5-40.5T169 70h-44q-9 0-17 4T95 85L71 61q16-13 36.5-20.5T150 33q34 0 62.5 17T258 95.5q17 28.5 17 62.5zm-107 0l-55-54q2-4 5-6t7-2h44q13-1 22 8.5t9 22.5q0 13-9 22t-22 9h-1zm-143 0q0-22 7.5-42.5T53 79l176 176q-16 13-36.5 20.5T150 283q-34 0-62.5-17T42 220.5Q25 192 25 158zm63-9l34 34h-9v62H88v-96z"/></svg>