<svg viewBox="0 0 300 311" xmlns="http://www.w3.org/2000/svg"><path d="M300 109l-50 50v-14q0-12-7.5-22T224 110q14-17 14-40 0-16-8.5-30.5t-23-23Q192 8 176 8t-29 6.5Q134 21 125 33q-9-12-22-18.5T74 8q-16 0-30.5 8.5t-23 23Q12 54 12 71q0 22 14 39-11 3-18.5 13T0 146v162h250v-51l50 50V109zM175 33q16 0 27 11t10.5 26.5Q212 86 201.5 97T175 108q-16 0-26.5-11T138 70.5Q138 55 148.5 44T175 33zM75 33q16 0 26.5 11T112 70.5Q112 86 101.5 97T75 108q-16 0-27-11T37.5 70.5Q38 55 48.5 44T75 33zm150 250H25V145q0-5 3.5-8.5T37 133h176q5 0 8.5 3.5t3.5 9.5v137zm50-36l-25-25v-28l25-25v78z"/></svg>