<svg viewBox="0 0 300 311" xmlns="http://www.w3.org/2000/svg"><path d="M113 158q20 0 37-10t27.5-27.5Q188 103 188 83t-10.5-37.5Q167 28 150 18T112.5 8Q92 8 75 18T47.5 45.5Q37 63 37.5 83T48 120.5Q58 138 75 148t38 10zm0-125q20 0 35 14.5T163 83q0 21-15 35.5T112.5 133q-20.5 0-35-14.5T63 83q0-21 14.5-35.5T113 33zm112 212v63h-25v-63q0-15-11-26t-27-11H63q-16 0-27 11t-11 26v63H0v-63q0-16 8.5-30.5t23-23Q46 183 62 183h101q16 0 30.5 8.5t23 23Q225 229 225 246v-1zm43-112l31 32-17 17-32-31-32 31-17-17 31-32-31-32 17-17 32 31 32-31 17 17-31 32z"/></svg>