<svg viewBox="0 0 300 311" xmlns="http://www.w3.org/2000/svg"><path d="M150 8q-41 0-75.5 20T20 82.5Q0 117 0 158t20 75.5Q40 268 74.5 288t75.5 20q41 0 75.5-20t54.5-54.5q20-34.5 20-75.5t-20-75.5Q260 48 225.5 28T150 8zm0 275q-34 0-62.5-17T42 220.5Q25 192 25 158t17-62.5Q59 67 87.5 50T150 33q34 0 62.5 17T258 95.5q17 28.5 17 62.5t-17 62.5Q241 249 212.5 266T150 283zM67 125l-9-24q23-9 38-31l21 14q-20 29-50 41zm175-24l-9 24q-30-12-50-41l21-14q15 22 38 31zm-92 119q15 0 31 8 8 3 14 7l-15 21q-4-3-9-6-11-5-21-5t-21 5q-6 3-9 6l-15-21q5-3 14-7 16-7 31-7v-1zm-50-100q-5 1-11 2 5 3 8 7.5t3 9.5q0 8-5.5 13.5T81 158q-5 0-9.5-3t-7.5-8q-1 6-1 11-1 16 10 27t27 10.5q16-.5 27-11t11-26.5q0-16-11-26.5T100 121v-1zm13 63q-6 0-9.5-3.5t-3.5-9q0-5.5 3.5-9t9-3.5q5.5 0 9 3.5t3.5 9q0 5.5-3.5 9T113 183zm87-63q-5 0-11 2 5 3 8 7.5t3 9.5q0 8-5.5 13.5T181 158q-5 0-9.5-3t-7.5-8q-1 6-1 11 0 16 10.5 26.5T200 195q16 0 27-10.5t11-26.5q0-16-11-26.5T200 121v-1zm13 63q-6 0-9.5-3.5t-3.5-9q0-5.5 3.5-9t9-3.5q5.5 0 9 3.5t3.5 9q0 5.5-3.5 9T212 183h1z"/></svg>