<svg viewBox="0 0 300 311" xmlns="http://www.w3.org/2000/svg"><path d="M150 83q-21 0-35.5 14.5T100 133q0 21 14.5 35.5T150 183q13 0 24-7-2 14-12.5 23t-23.5 9h-25v25h25q16 0 30.5-8.5t23-23Q200 187 200 170v-37q0-21-14.5-35.5T150 83zm0 75q-10 0-17.5-7.5T125 133q0-10 7.5-17.5T150 108q10 0 17.5 7.5T175 133q0 10-7.5 17.5T150 158zm0-150q-41 0-75.5 20T20 82.5Q0 117 0 158t20 75.5Q40 268 74.5 288t75.5 20q41 0 75.5-20t54.5-54.5q20-34.5 20-75.5t-20-75.5Q260 48 225.5 28T150 8zm0 275q-34 0-62.5-17T42 220.5Q25 192 25 158t17-62.5Q59 67 87.5 50T150 33q34 0 62.5 17T258 95.5q17 28.5 17 62.5t-17 62.5Q241 249 212.5 266T150 283z"/></svg>