<svg viewBox="0 0 300 311" xmlns="http://www.w3.org/2000/svg"><path d="M263 120H63q-16 0-27 11t-11 27v125h99l22 19q7 6 16.5 6t16.5-6l23-19h98V158q0-16-11-27t-27-11h1zm12 138h-82l-31 25-29-25H50v-57l21 12-8 25 4 4 21-16 20 16 5-4-9-25 21-12 21 12-8 25 4 4 21-16 20 16 5-4-9-25 21-12 21 12-8 25 4 4 21-16 20 16 5-4-9-25 21-12v57zm0-63h-27l-7-28h-6l-8 28h-54l-7-28h-6l-8 28H98l-7-28h-6l-8 28H50v-37q0-5 3.5-9t8.5-4h201q5 0 8.5 4t3.5 9v37zM50 95V70h100v25H50zm125 0V70h50v25h-50zM25 108q-12 9-18.5 22T0 158V45q0-15 11-26T38 8h200q15 0 26 11t11 27v49h-25V45q0-5-3.5-8.5T237 33H38q-6 0-9.5 3.5T25 45v63z"/></svg>