<svg viewBox="0 0 300 311" xmlns="http://www.w3.org/2000/svg"><path d="M150 100V83h25V58h-25V45q0-15-11-26T113 8H88Q72 8 61 19T50 46v54q-22 12-36 34.5T0 183v125h200V183q0-26-14-48.5T150 100zM75 45q0-5 3.5-8.5T88 33h25q5 0 8.5 3.5T125 45v50H75V45zm100 238H25V183q0-20 11.5-37.5T65 121h70q17 7 28.5 24.5T175 183v100zM50 245h100v-75H50v75zm25-50h50v25H75v-25zM225 70q0 6-3.5 9.5t-9 3.5q-5.5 0-9-3.5t-3.5-9q0-5.5 3.5-9t9-3.5q5.5 0 9 3.5T225 71v-1zm75 0q0 6-3.5 9.5t-9 3.5q-5.5 0-9-3.5t-3.5-9q0-5.5 3.5-9t9-3.5q5.5 0 9 3.5T300 71v-1zm-25-50q0-5 3.5-8.5t9-3.5q5.5 0 9 3.5t3.5 9q0 5.5-3.5 9t-9 3.5q-5.5 0-9-3.5T275 20zm25 100q0 6-3.5 9.5t-9 3.5q-5.5 0-9-3.5t-3.5-9q0-5.5 3.5-9t9-3.5q5.5 0 9 3.5t3.5 9.5v-1zm-37-75q0 6-4 9.5t-9 3.5q-5 0-8.5-3.5t-3.5-9q0-5.5 3.5-9T250 33q5 0 9 3.5t4 9.5v-1zm0 50q0 6-4 9.5t-9 3.5q-5 0-8.5-3.5t-3.5-9q0-5.5 3.5-9T250 83q5 0 9 3.5t4 9.5v-1z"/></svg>