<svg viewBox="0 0 300 311" xmlns="http://www.w3.org/2000/svg"><path d="M142 308H0V170q0-15 11-26t27-11h104q-14 11-23 25H38q-6 0-9.5 3.5T25 171v112h94q9 14 23 25zM225 8H75v25h150V8zm38 62H38v25h225V70zm37 150q0 24-12 44t-32 32q-20 12-43.5 12T169 296q-20-12-32-32t-12-43.5q0-23.5 12-43.5t32-32q20-12 43.5-12t43.5 12q20 12 32 32t12 43zm-25 0q0-16-8.5-30.5t-23-23q-14.5-8.5-31-8.5t-31 8.5q-14.5 8.5-23 23t-8.5 31q0 16.5 8.5 31t23 23q14.5 8.5 31 8.5t31-8.5q14.5-8.5 23-23T275 221v-1zm-50-37h-25v25h-25v25h25v25h25v-25h25v-25h-25v-25z"/></svg>