<svg viewBox="0 0 300 311" xmlns="http://www.w3.org/2000/svg"><path d="M175 257v26h50v25H100v-25h50v-26q-43-3-77-28.5T23 163q-16-40-8-82T51 7l19 17Q46 50 39.5 84.5t6 67Q58 184 85.5 206t62 26q34.5 4 66.5-10.5t52-42.5l20 14q-19 28-48 44.5T175 257zM63 108q-1-30 16-55.5t45-37Q152 4 182 10t51.5 27.5q21.5 21.5 27 51t-6 57.5Q243 174 218 191t-56 17q-27 0-50-13.5T76 158q-13-23-14-50h1zm25 0q0 20 10 37.5t27 27.5q17 10 37.5 10t37.5-10q17-10 27.5-27.5T238 108q0-20-10.5-37.5T200 43q-17-10-37.5-10T125 43q-17 10-27 27.5T88 108z"/></svg>