<svg viewBox="0 0 300 311" xmlns="http://www.w3.org/2000/svg"><path d="M150 196q-4 5-7 12-1 5-2 15-2 12-4 16-3 6-12 6-5 0-6.5-4.5T116 230l1-6q-17 17-17 34 0 21 14.5 35.5T150 308q21 0 35.5-14.5T200 258q0-14-12-28-7-9-24-22-10-8-14-12zm13 94q-6 5-13 5t-12.5-5.5Q132 284 132 277t5-13l13-12 13 12q5 6 5 13t-5 13zm125-7V73l11-23q4-16-6-29T266 8H34Q17 8 7 21T1 50l12 23v210H0v25h88V165q11-7 24-12 20-8 38-8t38 8q13 5 24 12v143h88v-25h-12zM27 36q3-3 7-3h232q5 0 7 3t2 7l-8 15H33l-8-15q0-4 2-7zm211 247V152l-6-4q-9-7-24-14-30-14-58-13.5T92 134q-15 7-24 14l-5 4v131H38V83h225v200h-25z"/></svg>