<svg viewBox="0 0 300 311" xmlns="http://www.w3.org/2000/svg"><path d="M292 16q-14-14-43-4-23 8-54 29-22-8-45-8-34 0-62.5 17T42 95.5Q25 124 25 158q0 23 8 45-21 31-29 54-10 29 4 43 8 8 21 8 22 0 57-21 10-5 19-12 22 8 45 8 34 0 62.5-17t45.5-45.5q17-28.5 17-62.5 0-23-8-45 22-33 29-56 9-28-4-41zm-18 18q1 1 .5 6T271 54q-5 12-13 28l-4 6q-14-20-34-34 17-10 30-16 11-4 17-5t7 1zM150 58q28 0 51.5 14.5T238 111q-26 36-63 72.5T103 246q-24-13-38.5-36.5t-14.5-51Q50 131 63.5 108T100 71.5Q123 58 150 58zM74 266q-16 8-27 13-10 3-15 3.5t-6-.5q-1-1-.5-7t4.5-17q6-13 16-30 14 20 34 34l-6 4zm176-108q0 27-13.5 50T200 244.5Q177 258 150 258q-10 0-19-2 31-24 61.5-54.5T248 139q2 9 2 19z"/></svg>