<svg viewBox="0 0 300.0075 311" xmlns="http://www.w3.org/2000/svg"><path d="M177.007 210q11-11 10.5-27t-11.5-27l-26-26-27 26q-10 11-10.5 27t10.5 26.5q11 10.5 27 11t27-10.5zm-18-18q-4 3-9 3t-8.5-3.5q-3.5-3.5-4-8.5t3.5-9l9-9 9 9q3 4 3 9t-3 9zm41 26l-27 26q-10 11-10.5 26.5t10.5 26.5q11 11 27 11t27-11q11-11 10.5-26.5t-11.5-26.5l-26-26zm9 61q-4 4-9 4t-8.5-3.5q-3.5-3.5-4-9t3.5-8.5l9-9 9 9q3 3 3 8.5t-3 8.5zm-109-61l-27 26q-8 8-10 19t2.5 21.5q4.5 10.5 14 17t20.5 6.5q11 0 20.5-6.5t14-17q4.5-10.5 2-21.5t-10.5-19l-26-26zm9 61q-4 4-9 4t-8.5-3.5q-3.5-3.5-3.5-9t3-8.5l9-9 9 9q3 3 3 8.5t-3 8.5zm191-115q0 24-11.5 45.5t-32.5 34.5q-5-10-12-18l-3-3q20-11 29-32.5t3-43.5q-6-22-24-36.5t-41-14.5l-9-1-2-8q-8-27-31.5-42t-51-11q-27.5 4-46 25t-18.5 49q0 14 5 27l4 10-10 5q-12 6-18.5 17t-5.5 24q1 13 8.5 23.5t19.5 15.5q-9 10-12 22-17-8-28-22.5t-13-33q-2-18.5 5.5-35.5t22.5-27q-6-26 0-50.5t23.5-43.5q17.5-19 42-27t50-3.5q25.5 4.5 45 21t29.5 40.5q23 3 42 16t29.5 33.5q10.5 20.5 10.5 43.5z"/></svg>