<svg viewBox="0 0 300 311" xmlns="http://www.w3.org/2000/svg"><path d="M300 158v112q0 6-3.5 9.5t-9 3.5q-5.5 0-9-3.5T275 270V158q0-34-17-62.5T212.5 50Q184 33 150 33T87.5 50Q59 67 42 95.5T25 158v87q0 6-3.5 9.5t-9 3.5q-5.5 0-9-3.5T0 246v-88q0-41 20-75.5T74.5 28Q109 8 150 8t75.5 20Q260 48 280 82.5t20 75.5zm-175-31q0-8-5.5-13.5T106 108q-8 0-13.5 5.5t-5 13.5q.5 8 5.5 13.5t13 5q8-.5 13.5-5.5t5.5-13zm88 0q-1-8-6-13.5t-13-5.5q-8 0-13.5 5.5T175 127q0 8 5.5 13.5t13.5 5q8-.5 13-5.5t6-13zm25 81v87q0 6-4 9.5t-9 3.5q-5 0-8.5-3.5T213 295v-52q-7 2-13 2h-12v26q0 5-4 8.5t-9 3.5q-5 0-8.5-3.5T163 271v-26h-63q-16 1-26.5-10T63 208q0-16 10.5-27t26.5-11h100q16 0 27 11t11 27zm-138 12h13v-25h-13q-5 0-8.5 4t-3.5 9q0 5 3.5 8.5t8.5 3.5zm63 0v-25h-25v25h25zm50-12q0-5-4-8.5t-9-3.5h-12v25h12q5 0 9-4t4-9zM50 233v36q18 17 40.5 26.5T138 307v-25q-27-2-49.5-15.5T50 233z"/></svg>