<svg viewBox="0 0 300 311" xmlns="http://www.w3.org/2000/svg"><path d="M300 45v150h-66q-4-13-12-25h53V45q0-5-3.5-8.5T262 33H38q-6 0-9.5 3.5T25 45v125h53q-8 12-12 25H0V45q0-15 11-26T38 8h225q15 0 26 11t11 27v-1zm-98 210l35 35-18 17-35-34q-15 10-33 10t-32.5-8.5Q104 266 96 251.5t-8-31q0-16.5 8-31t22.5-23Q133 158 150 158t31.5 8.5q14.5 8.5 22.5 23t8.5 32Q213 239 202 255zm-14-35q0-15-11-26t-27-11q-16 0-27 11t-10.5 26.5q.5 15.5 11 26.5t26.5 11q16 0 26.5-11t10.5-27h1zm-95-87q3 0 5.5-3t3.5-7l4-53H93l-3 40-15-29-15 29-3-40H44l4 53q1 4 3.5 7t6.5 3q4 0 7-5l10-20 10 20q3 5 8 5zm39 0q5 0 8-5l10-20 10 20q3 5 7 5t6.5-3q2.5-3 3.5-7l4-53h-13l-3 40-15-29-15 29-3-40h-13l4 53q1 4 3.5 7t5.5 3zm75 0q5 0 8-5l10-20 10 20q3 5 7 5t6.5-3q2.5-3 3.5-7l4-53h-13l-3 40-15-29-15 29-3-40h-13l4 53q1 4 3.5 7t5.5 3z"/></svg>