<svg viewBox="0 0 300 311" xmlns="http://www.w3.org/2000/svg"><path d="M263 195H150q-16 1-27 11.5T113 233v12q0 16 10.5 27t26.5 11h113q15 0 26-11t11-27v-12q0-16-11-26.5T262 195h1zm-125 50v-12q0-5 3.5-9t8.5-4h25v38h-25q-5 0-8.5-3.5T138 246v-1zm137 0q0 6-3.5 9.5T263 258h-63v-38h63q5 0 8.5 4t3.5 9v12zM263 33H150q-16 0-27 11t-10 27v12q0 16 10.5 26.5T150 120h113q15 0 26-10.5T300 83V70q0-15-11-26t-27-11h1zM138 83V70q0-5 3.5-8.5T150 58h63v37h-63q-5 0-9-3.5t-3-8.5zm137 0q0 5-3.5 8.5T262 95h-24V58h25q5 0 8.5 3.5T275 71v12zM50 83q16 0 27-11t10.5-26.5Q87 30 76.5 19T50 8Q34 8 23 19T12.5 45.5Q13 61 23.5 72T50 83zm50 50v12H75v-12q0-5-3.5-8.5T62 121H38q-6-1-9.5 3t-3.5 9v12H0v-12q0-16 11-26.5T38 96h25q15-1 26 10t11 27zm-12 75q0-16-11-27t-27-11q-16 0-27 11t-11 27q0 16 11 27t27 11q16 0 27-11t11-27zm12 87v13H75v-13q0-5-3.5-8.5T62 283H38q-6 0-9.5 3.5T25 296v12H0v-13q0-15 11-26t27-11h25q15 0 26 11t11 27v-1z"/></svg>