<svg viewBox="0 0 300 311" xmlns="http://www.w3.org/2000/svg"><path d="M138 70v25q-11 0-18 7.5t-7 18.5H88q0-21 14.5-36T137 70h1zm25 25v25q10 0 17 7.5t7 18.5h26q0-21-15-35.5T162 96l1-1zm111 82l-26 131H52L26 177q-12-7-19-18.5t-7-25Q0 120 6.5 108T25 90q2-17 13.5-29T66 46q6-13 19-20t28-5q7-8 17.5-11t21-1.5q10.5 1.5 19 8T183 33q18 1 30 14 6-2 12-2 19 1 33 13.5T275 90q11 6 18 18t7 25.5q0 13.5-7 25T274 177zM105 283l-5-75q0-10-7.5-17.5T75 183H53l20 100h32zm63 0l7-75q0-11-7.5-18t-18-7q-10.5 0-17.5 7.5t-7 17.5l5 75h38zm79-100h-22q-10 0-17.5 7.5T200 208l-7 75h34l20-100zm3-25q9 0 16-6t8.5-15q1.5-9-3-16.5T258 110l-8-3V95q0-6-3-11.5t-8.5-9q-5.5-3.5-12-4T214 73l-11 5-5-10q-3-5-7.5-7.5T181 58l-17 3-2-13q-1-5-5-9.5t-9.5-5.5q-5.5-1-11 1.5T128 42l-6 9-9-4q-3-1-7-2-6 0-11.5 4.5T88 60l-2 10H74q-10 1-17 8t-7 18v11l-8 3q-9 3-13.5 10.5t-3 16.5q1.5 9 8.5 15t16 6h25q11 0 20.5 4.5T113 175q7-8 16.5-12.5T150 158q11 0 20.5 4.5T187 175q8-8 17.5-12.5T225 158h25z"/></svg>