<svg viewBox="0 0 300 311" xmlns="http://www.w3.org/2000/svg"><path d="M150 70q-33 2-56 20-20 16-27 42t0 52q7 26 28 42 22 18 55 18t56-18q20-16 27-42t0-52q-7-26-28-42-22-18-55-19v-1zm0 150q-29 0-46-20-16-17-16-42t16-42q17-20 46-20t46 20q16 17 16 42t-16 42q-17 20-46 20zm133-98q-5-17-14-32 4-7 3-15t-7-14l-18-18q-6-6-14-7t-15 3q-15-9-32-14-2-7-8.5-12T162 8h-24q-9 0-15.5 5T114 25q-17 5-32 14-5-3-11-3-11 0-18 7L35 61q-6 6-7 14t3 15q-9 15-14 32-7 2-12 8.5T0 146v24q0 9 5 15.5t12 8.5q5 17 14 32-4 7-3 15t7 14l18 18q6 6 14 7t15-3q15 9 32 14 2 7 8.5 12t15.5 5h25q8 0 14.5-5t8.5-12q17-5 32-14 7 4 15 3t14-7l18-18q6-6 7-14t-3-15q9-15 14-32 7-2 12-8.5t5-14.5v-26q0-8-5-14.5t-12-8.5zm-8 48h-13l-2 10q-4 22-16 40l-6 8 9 10-17 17-9-9-9 6q-18 12-40 16l-9 2v13h-25v-13l-10-2q-22-4-40-16l-8-6-10 9-17-17 9-9-6-9q-12-18-16-40l-2-10H25v-25h13l2-10q4-21 16-39l6-9-9-9 17-17 9 9 9-6q18-12 39-16l11-2V33h25v13l10 2q21 4 39 16l8 6 10-9 17 17-9 9 6 9q12 18 16 40l2 9h13v25zm-112-50q0 6-4 9.5t-9 3.5q-5 0-9-3.5t-3.5-9q.5-5.5 4-9t8.5-3.5q5 0 9 3.5t4 8.5zm25 25q5 0 8.5 4t3.5 9q0 5-3.5 9t-9 3.5q-5.5-.5-9-4T175 158q0-5 3.5-9t8.5-4h1zm-63 13q0 5-3.5 9t-9 3.5q-5.5-.5-9-4T100 158q0-5 3.5-9t9-4q5.5 0 9 4t3.5 9zm38 37q0 6-4 9.5t-9 3.5q-5 0-9-3.5t-3.5-9q.5-5.5 4-9t8.5-3.5q5 0 9 3.5t4 9.5v-1z"/></svg>