<svg viewBox="0 0 300 311" xmlns="http://www.w3.org/2000/svg"><path d="M275 183v-13q0-20-14.5-35T225 120q-21 0-35.5 15T175 170v13h-25v87q0 16 11 27t27 11h75q15 0 26-11t11-27v-87h-25zm-75-13q0-10 7.5-17.5T225 145q10 0 17.5 7.5T250 170v13h-50v-13zm75 100q0 6-3.5 9.5T263 283h-75q-6 0-9.5-3.5T175 270v-62h100v62zm-37-12h-25v-25h25v25zm-113 12q0 6 1 13H0V45q0-15 11-26T38 8h200q15 0 26 11t11 26v70q-11-10-25-15V45q0-5-3.5-8.5T238 33H38q-6 0-9.5 3.5T25 45v213h100v12zM75 97v111h50v25H50V58h65L75 97zm125 3V83h-45l-30 30v70h-25v-80l45-45h80v37q-12 0-25 5z"/></svg>