<svg viewBox="0 0 300 311" xmlns="http://www.w3.org/2000/svg"><path d="M150 195q-16 0-26.5-10.5T113 158q0-16 10.5-27t26.5-11q16 0 27 11t11 27q0 16-11 27t-27 10zm0-50q-5 0-9 4t-3.5 9q.5 5 4 9t8.5 4q5 0 9-4t4-9q0-5-4-9t-9-4zm-25 163H88v-25q23 1 42-14-29-5-53.5-22.5t-38-44Q25 176 25 146q0-40 19.5-71.5t53.5-49Q132 8 175 8h38v25q-24-1-43 14 29 5 53.5 22.5t38 44Q275 140 275 171q0 39-19.5 70.5t-53.5 49Q168 308 125 308zm20-272q-43 8-69 38t-26 71q0 28 13.5 51t36.5 36q23 13 50 13h26l-8 19q-5 9-13 16 43-8 69-38t26-72q0-27-13.5-50T200 84q-23-13-50-13h-26l9-19q5-9 12-16z"/></svg>