<svg viewBox="0 0 300 311" xmlns="http://www.w3.org/2000/svg"><path d="M150 308q-38 0-71-29-30-25-48-65t-18-75.5Q13 103 31.5 73t50-47.5Q113 8 150 8t68.5 17.5Q250 43 269 73t19 65.5q0 35.5-18.5 75.5T221 279q-33 29-71 29zm0-275q-30-1-55.5 13T54 84.5q-15 24.5-15.5 54t15 63.5Q69 236 93 258q28 25 57 25t57-25q24-22 40-56t15-63.5q-1-29.5-16-54T205.5 46Q180 32 150 33zm56 87q-11-1-20.5 6.5T175 145q1 12 10.5 19.5T206 170q12 2 21-5.5t10-19.5q-1-11-10-18.5t-21-5.5v-1zm-112 0q-12-1-21 6.5T63 145q1 12 10 19.5t21 5.5q11 2 20.5-5.5T125 145q-1-11-10.5-18.5T94 121v-1zm31 75q-5 1-8.5 4.5t-4 8.5q-.5 5 3.5 8.5t9 4q5 .5 9-3.5t4-9q0-5-4-8.5t-9-3.5v-1zm50 0q-5 0-9 4t-3.5 9q.5 5 4 8.5t8.5 4q5 .5 9-3.5t3.5-9q-.5-5-4-8.5T175 196v-1zM125 58q-5 0-8.5 3.5t-3.5 9q0 5.5 3.5 9T125 83q5 0 9-3.5t4-9q0-5.5-4-9t-9-3.5zm25 37q-5 0-9 4t-3.5 9q.5 5 4 9t8.5 3.5q5-.5 9-4t4-8.5q0-5-4-9t-9-4zm25-37q-5 0-9 3.5t-3.5 9q.5 5.5 4 9T175 83q5 0 9-3.5t4-9q0-5.5-4-9t-9-3.5zm-50 175q-5 0-8.5 3.5t-4 9q-.5 5.5 3.5 9t9 3.5q5 0 9-3.5t4-9q0-5.5-4-9t-9-3.5zm50 0q-5 0-9 3.5t-3.5 9q.5 5.5 4 9t8.5 3.5q5 0 9-3.5t3.5-9q-.5-5.5-4-9T175 233z"/></svg>