<svg viewBox="0 0 300 311" xmlns="http://www.w3.org/2000/svg"><path d="M263 58h-38V45q0-15-11-26T188 8H38Q22 8 11 19T0 46v185q0 8 4 14t10 9.5q6 3.5 13.5 3.5t14.5-4l33-23v39h134l49 34q7 4 14.5 4t13.5-3.5q6-3.5 10-9.5t4-14V95q0-15-11-26t-27-11h1zM28 233h-.5q-.5 0-1.5-.5t-1-1.5V45q0-5 3.5-8.5T37 33h150q6 0 9.5 3.5T200 46v149H84l-56 38zm247 48q0 1-1 1.5t-2 .5l-56-38H100v-25h125V83h38q5 0 8.5 3.5T275 96v185zM100 95H75q0-17 13.5-28.5T119 59q12 2 20 10t10 20q2 12-3 23t-15 16q-6 3-6 5h-25q0-11 7-18 4-4 11-9h1q3-1 5-4.5t1-8q-1-4.5-3.5-7T115 83q-6-1-10.5 3T100 96v-1zm0 50h25v25h-25v-25z"/></svg>