<svg viewBox="0 0 301 311" xmlns="http://www.w3.org/2000/svg"><path d="M157 208h-43v-25h43q5 0 9-3.5t4-9q0-5.5-4-9t-9-3.5h-25v-25h17q5 0 8.5-3.5t3.5-9q0-5.5-3.5-9T149 108h-35V83h35q15 0 26 11t11 26q0 12-6 21 7 5 11 13t4 17q0 15-11 26t-27 11zm52 38v-1 1zm-116 0v-.5-.5 1zm171-18q9 7 13 13l5 9-7 7q-4 5-12 10-15 11-32 15l7 19-14 3q-15 4-33 4-23 0-40-7-17 7-40 7-18 0-34-4l-13-3 7-19q-17-4-32-15-8-5-13-10l-6-7 5-9q4-6 12-13-16-10-26-26-5-8-7-14l-4-10 16-8q-6-6-9-14-8-19-5-47 1-14 4-25l3-13 17 6q0-9 4-18 8-18 29-33 11-8 20-12l12-6 5 13q5 13 6 30 2 34-16 63-2 17-2 33 0 50 27 81 9 11 19.5 17t20.5 8q9-2 20-8t20-17q26-31 27-81 0-16-2-33-18-29-16-63 1-18 6-30l4-13 12 6q10 4 21 12 20 15 29 33 4 9 4 18l17-6 3 13q3 11 4 25 2 28-5 47-3 8-9 14l15 8-3 10q-2 6-8 14-10 16-26 26zM62 105q11-15 14-33 2-14 0-28-17 12-24 26-3 7 1 18 3 8 9 17zm-32 42q2 4 6 7.5t9 5.5l14-2v-7q-9-28-32-44-3 25 3 40zm31 66q5-3 9-5-5-12-7-25-15 1-30 7 10 15 28 23zm32 33q-7-8-11-15-17 6-28 16 14 10 29 12 5-7 10-13zm51 31q-17-4-32-15-8 10-14 20 29 3 46-5zm96-172q6-9 9-17 4-11 0-18-6-14-23-25-2 13 0 27 3 18 14 33zm-37 177q-6-10-13-20-16 11-32 15 17 8 45 5zm45-35q-12-10-28-16-5 7-11 15h-1 1q5 6 9 13 16-2 30-12zm21-57q-15-6-30-7-3 13-8 25l10 4q17-7 28-22zm6-83q-23 16-32 44v7q6 1 13 2 5-2 9.5-5.5t6.5-7.5q6-15 3-40z"/></svg>