<svg viewBox="0 0 300 311" xmlns="http://www.w3.org/2000/svg"><path d="M13 82L0 60 84 9l13 21-84 52zm265 129l-51 83 21 13 52-83-22-13zm-16-21l-62 100q-4 8-11 12.5t-16 5.5h-4q-15 0-26-11l-12-12q-18 13-39.5 11T55 278.5q-15-15.5-17-37T48 203l-37-38q-6-6-9-13.5t-2-16Q1 127 5 120t11-11l97-59q29-19 62-17t60 23l23-24 18 18-24 23q20 26 22.5 58T262 191v-1zm-149 77l-47-46q-5 10-3 21t10 19q8 8 19 9.5t21-3.5zM227 82q-20-20-48.5-23.5T127 71l-97 59q-5 3-5.5 8t3.5 9l133 133q4 4 9.5 3t8.5-6l61-99q13-24 9.5-50.5T227 82z"/></svg>