<svg viewBox="0 0 300 311" xmlns="http://www.w3.org/2000/svg"><path d="M181 170q-8 0-13.5-5t-5-13q.5-8 5.5-13.5t13-5.5q8 0 13.5 5.5T200 152q0 8-5.5 13.5T181 170zm92-59q-5-29-22.5-52t-43-36.5Q182 9 152.5 8.5t-56 12Q70 33 52 55.5T28 107l-9 51h19q34 0 64-15-2 4-2 9 0 7 5.5 12.5t13 6q7.5.5 13-4.5t6-13q.5-8-4.5-13.5t-13-6.5q41-25 67-65-12-7-24-9-18 27-44 46-34 24-70 27l3-20q6-24 21-42.5t36.5-28q21.5-9.5 46-8t45 13.5Q221 59 234 78.5t15 43.5l1 10 10 1q7 2 11 7.5t3.5 13q-.5 7.5-6 12T256 171l-13-3-4 10q-6 17-19.5 32.5t-32 25Q169 245 150 245q-27 0-53-20-25-19-35-44-12 2-24 2h-2l1 4q9 23 25.5 41t37.5 29v51h25v-41q12 3 25 4 13-1 25-4v41h25v-51q40-21 59-62 15-1 26.5-11t14-25q2.5-15-5-28.5T273 111z"/></svg>