<svg viewBox="0 0 300 311" xmlns="http://www.w3.org/2000/svg"><path d="M288 170q-1-35-17-65t-45-49q-29-19-63-22V8h-25v26q-40 3-71 26.5T22 121q-14 37-7 75.5T49 264l-24 26 19 17 24-27q24 19 53 25t58 0q29-6 53-25l24 27 19-17-24-26q17-19 26.5-43.5T288 171v-1zM150 283q-31 0-56.5-15t-41-41q-15.5-26-15-56.5T53 114q15-26 40.5-41T150 58q31 0 56.5 15t41 41q15.5 26 15 56.5T247 227q-15 26-40.5 41T150 283zM69 30L56 9Q23 28 0 58l21 14q20-26 48-42zm210 42l21-14q-23-30-56-49l-13 21q28 16 48 42zM138 95v68l41 41 17-17-33-34V95h-25z"/></svg>