<svg viewBox="0 0 300 311" xmlns="http://www.w3.org/2000/svg"><path d="M94 180q19-19 19-35H38q0 16 18 35-23 9-39.5 34T0 264q0 18 13 31t31 13h62q18 0 31-13t13-31q0-25-16.5-50T94 180zm12 103H44q-8 0-13.5-5.5T25 264q0-14 7.5-28.5t19.5-24q12-9.5 23-9.5t23 9.5q12 9.5 19.5 24T125 264q0 8-5.5 13.5T106 283zM300 45q0-15-11-26T262 8H81Q63 8 50.5 21T38 52v68h25V52q0-8 5-13.5T81 33q8 0 13.5 5.5T100 52v31h138v187q-1 6-4.5 9.5T225 283h-53q-4 14-13 25h67q15 0 25.5-11t10.5-27V83h38V45zm-25 13H125v-6q0-10-4-19h142q5 0 8.5 3.5T275 45v13z"/></svg>