<svg viewBox="0 0 300 311" xmlns="http://www.w3.org/2000/svg"><path d="M263 108H38q-16 0-27 11T0 145v163h300V145q0-15-11-26t-26-11zm12 175H25V145q0-5 3.5-8.5T38 133h225q5 0 8.5 3.5t3.5 8.5v138zM150 158q-26 0-49 6t-37 17q-14 11-14 27t14 27q14 11 37 17t49 6q26 0 49-6t37-17q14-11 14-27t-14-27q-14-11-37-17t-49-6zm0 75q-22 0-40-5-16-3-25.5-9T75 208q0-5 9.5-11t25.5-9q18-5 40-5t40 5q16 3 25.5 9t9.5 11q0 5-9.5 11t-25.5 9q-18 5-40 5zm19-25q0 5-5.5 8.5T150 220q-8 0-13.5-3.5T131 208q0-5 5.5-9t13.5-4q8 0 13.5 4t5.5 9zM300 45v1q-17-13-37-13H38Q17 33 0 46v-1q0-15 11-26T38 8h225q15 0 26 11t11 26zm0 50v1q-17-13-37-13H38Q17 83 0 96v-1q0-15 11-26t27-11h225q15 0 26 11t11 26z"/></svg>