<svg viewBox="0 0 300 311" xmlns="http://www.w3.org/2000/svg"><path d="M229 254l17-17-44-45q-14-14-14-34t14-34l44-45-17-17-45 44q-14 14-34 14t-34-14L71 62 54 79l44 45q15 14 15 34t-15 34l-44 45 17 17 45-44q14-14 34-14t34 14l45 44zm-79-84q-7 0-14 2 2-7 2-14t-2-14q7 2 14 1.5t14-1.5q-1 7-1 14t1 14q-7-2-14-2zm26-92q-2-14 2.5-27.5T193 26q12-12 28.5-16t32.5 0q16 4 28 16t16 28q4 16 0 32.5t-16 28q-12 11.5-27 16t-30 1.5q30-26 39-35 11-11 11-26.5T264 44q-11-11-26.5-11T211 44l-35 34zM18 115Q6 103 2 86.5T2 54q4-16 16-28t28-16q16-4 32.5 0t28 16q11.5 12 16 27t1.5 30Q98 53 89 44 78 33 62.5 33T36 44Q25 55 25 70.5T36 97l34 35q-14 2-27.5-2.5T18 115zm264 86q12 12 16 28.5t0 32.5q-4 16-16 28t-28 16q-16 4-32.5 0T193 290q-10-11-14.5-24.5T176 238q26 25 35 34 11 11 26.5 11t26.5-11q11-11 11-26.5T264 219q-9-9-39-35 15-3 30 1.5t27 15.5zm-158 32q3 15-1.5 30t-16 27q-11.5 12-28 16T46 306q-16-4-28-16T2 262q-4-16 0-32.5T18 201q11-10 24.5-14.5T70 184q-25 26-34 35-11 11-11 26.5T36 272q11 11 26.5 11T89 272q9-9 35-39z"/></svg>