<svg viewBox="0 0 300 311" xmlns="http://www.w3.org/2000/svg"><path d="M241 191l-121-44q-7-2-13.5-.5T95 153q-5 5-6.5 11.5T89 178l44 121 46-45 53 53 17-18-53-53 45-45zm-98 63l-30-83 83 30-53 53zM263 8H38Q22 8 11 19T0 46v99h69q2-4 5-7l6-6q10-8 23-10.5t25 1.5l61 23h111V45q0-15-11-26T262 8h1zM55 92q-1 7-7 11.5T34 108q-13 0-22-9l10-9q5 5 12 5 4 0 6-1.5t2.5-4.5q.5-3-6.5-6l-14-6q-10-6-8-16 0-5 3.5-9t8.5-5q9-3 17 1 5 2 8 5l-8 9q-1-1-4-2-5-2-8.5-1t-4 3.5Q26 65 28 66l13 5q9 3 12.5 9T55 92zm23 16H65V45h13v63zm50-19q0 8-5.5 13.5T109 108q-8 0-13.5-5.5T90 89V64q0-8 5.5-13t12.5-5.5q7-.5 12 3t7 9.5h-18q-2 0-4 2t-2 4v25q0 3 2 5t4.5 1.5q2.5-.5 4-2T115 89v-6h-6V70h19v19zm50 19h-13V64q0-2-1.5-4t-4-2q-2.5 0-4.5 2t-2 4v44h-13V45h13v2q3-2 6-2 8 0 13.5 5.5T178 64v44zm62-19q0 8-5.5 13.5t-13 5.5q-7.5 0-13-5.5T203 89V45h12v44q0 3 2 4.5t4.5 1.5q2.5 0 4.5-1.5t2-4.5V45h12v44zm32-6h-7v25h-12V45h19q7 0 12.5 5.5T290 64q0 8-5.5 13.5T272 83zm6-19q0 3-2 5t-4 2h-7V58h7q2 0 4 2t2 4z"/></svg>