<svg viewBox="0 0 300 311" xmlns="http://www.w3.org/2000/svg"><path d="M237 298l2 10H61l3-15q5-29 27-50-30-16-48-45.5T25 133q0-21 7-40l20 20q-2 10-2 20 0 27 13.5 50t36.5 36.5q23 13.5 50 13.5 10 0 20-2l20 20q-19 7-40 7-16 0-31-4-18 10-26 29h129l15 15zm62-8l-17 17L1 26 18 9l40 39q18-19 42-29.5T150 8q34 0 62.5 17T258 70.5Q275 99 275 133q0 26-10.5 50T235 225l64 65zM76 66l26 27q9-11 21.5-16.5T150 70q17 1 31.5 9t22.5 22.5q8 14.5 8 31.5 1 14-5 26.5T190 181l27 26q16-14 24.5-33.5T250 133q0-27-13.5-50T200 46.5Q177 33 150 33q-21 0-40.5 8.5T76 66zm112 67q0-16-11-26.5T150 96q-9-1-17 3t-13 11l53 53q7-5 11-13t4-17z"/></svg>