<svg viewBox="0 0 300 311" xmlns="http://www.w3.org/2000/svg"><path d="M275 83l25-35-40-40-35 25-4 36-26 26h-89q-29 0-53 14.5t-38.5 39Q0 173 0 202q0 21 8 40.5T31 277q15 15 34.5 23t40.5 8q29 0 53.5-14.5T198 255q14-24 14-53v-89l27-26 36-4zm-87 119q0 22-11 40.5T147 272q-19 11-41 11-16 0-31-6t-26.5-17.5Q37 248 31 233t-6-31q0-22 11-41t29.5-30Q84 120 106 120h64l-43 43q-10-5-21-5-18 0-30.5 13T63 202q0 18 12.5 30.5T106 245q18 0 31-12.5t13-30.5q0-11-5-21l43-43v64zm-63 0q0 8-5.5 13t-13.5 5q-8 0-13-5t-5-13q0-8 5-13.5t13-5.5q8 0 13.5 5.5T125 202z"/></svg>