<svg viewBox="0 0 300 311" xmlns="http://www.w3.org/2000/svg"><path d="M250 108q-17 0-30.5 10.5T202 145H75q-5 0-8.5-3.5T63 133v-27q16-4 26.5-17.5T100 58q0-21-14.5-35.5T50 8Q29 8 14.5 22.5T0 58q0 17 10.5 30.5T38 106v104q-17 4-27.5 17.5T0 258q0 21 14.5 35.5T50 308q21 0 35.5-14.5T100 258q0-17-10.5-30.5T63 210v-42q6 2 12 2h127q4 17 17.5 27.5T250 208q21 0 35.5-14.5T300 158q0-21-14.5-35.5T250 108zM25 58q0-10 7.5-17.5T50 33q10 0 17.5 7.5T75 58q0 10-7.5 17.5T50 83q-10 0-17.5-7.5T25 58zm50 200q0 10-7.5 17.5T50 283q-10 0-17.5-7.5T25 258q0-10 7.5-17.5T50 233q10 0 17.5 7.5T75 258zm175-75q-10 0-17.5-7.5T225 158q0-10 7.5-17.5T250 133q10 0 17.5 7.5T275 158q0 10-7.5 17.5T250 183z"/></svg>