<svg viewBox="0 0 300 311" xmlns="http://www.w3.org/2000/svg"><path d="M88 208v-25q56 0 85 43l-21 14q-14-21-36-28-12-4-29-4h1zm25-94q-1-8-6-13t-13-5q-8 0-13.5 5T75 114q0 8 5.5 13.5T94 133q8 0 13.5-5.5T113 114zm137 19v175h-25V186q-14 9-31 9-24 0-40-16t-16-39.5q0-23.5 16-40T192.5 83Q215 83 231 97.5t19 35.5zm-25 6q0-13-9-22t-22-9q-13 0-22 9t-9.5 22q-.5 13 9 22t22.5 9q13 0 22-9t9-22zm75 19q0-41-20-75.5T225.5 28Q191 8 150 8T74.5 28Q40 48 20 82.5T0 158q0 41 20 75.5T74.5 288q34.5 20 75.5 20 25 0 50-9v-27q-24 11-50 11-34 0-62.5-17T42 220.5Q25 192 25 158t17-62.5Q59 67 87.5 50T150 33q34 0 62.5 17T258 95.5q17 28.5 17 62.5v83q25-38 25-83z"/></svg>