<svg viewBox="0 0 300 311" xmlns="http://www.w3.org/2000/svg"><path d="M300 151q-1-38-22.5-68T221 42q-14-4-33.5-6.5T150 33q-18 0-37.5 2.5T79 42Q44 53 22.5 83T0 151v63q0 23 8 38.5t21 23q13 7.5 27 7.5 19 0 32-13 12 13 30.5 13t31.5-13q13 13 31.5 13t31.5-13q12 13 31 13 14 0 27-7.5t21-23q8-15.5 8-38.5v-63zm-25 63q0 27-14 38-7 6-16 6t-14.5-5.5Q225 247 225 239v-6h-25v6q0 8-5.5 13.5T181 258q-8 0-13-5.5t-5-13.5v-6h-25v6q-1 8-6 13.5t-13 5.5q-8 0-13.5-5.5T100 239v-6H75v6q0 8-5.5 13.5T55 258q-9 0-16-6-14-11-14-38v-22q8 3 17.5 3t18.5-4q17-8 39-14 26-7 50-7t50 7q22 6 39 14 8 4 17.5 4.5T275 192v22zm-8-46q-9 5-17 1-16-8-36-14-32-10-64-10t-64 10q-20 6-36 14-8 4-16.5-1T25 152q0-14 5-28l13 21q10-6 23-10L43 98q8-12 20-20l31 49q13-3 27-5L86 67q12-4 29-6l37 60q16 0 31 2l-40-65h7q13 0 27 1l45 72q21 7 38 15l-50-81q27 9 46 33.5t19 53.5q0 11-9 16h1z"/></svg>