<svg viewBox="0 0 300 311" xmlns="http://www.w3.org/2000/svg"><path d="M275 120V83q0-16-11-27t-27-10h-74V8h-25v37H63q-16 0-27 11T25 83v37H0v75h25v75h159l49 34q7 4 14.5 4t13.5-3.5q6-3.5 10-9.5t4-14v-86h25v-75h-25zm-25 161q0 1-1 1.5t-2 .5l-56-38H50V83q0-5 3.5-9t8.5-4h176q5 1 8.5 4.5T250 83v198zM88 127q0-8 5-13.5t13-5.5q8 0 13.5 5.5T125 127q0 8-5.5 13.5t-13.5 5q-8-.5-13.5-5.5T87 127h1zm87 0q0-8 5.5-13.5T194 108q8 0 13.5 5.5t5 13.5q-.5 8-5.5 13.5t-13 5q-8-.5-13.5-5.5t-5.5-13zm29 47l17 18q-9 8-22 15-25 13-49 13t-49-13q-13-7-22-15l17-18q6 5 16 11 20 11 38 10.5t38-10.5q10-6 16-11z"/></svg>