<svg viewBox="0 0 300 311" xmlns="http://www.w3.org/2000/svg"><path d="M150 8q-41 0-75.5 20T20 82.5Q0 117 0 158t20 75.5Q40 268 74.5 288t75.5 20q41 0 75.5-20t54.5-54.5q20-34.5 20-75.5t-20-75.5Q260 48 225.5 28T150 8zm0 275q-34 0-62.5-17T42 220.5Q25 192 25 158t17-62.5Q59 67 87.5 50T150 33q34 0 62.5 17T258 95.5q17 28.5 17 62.5t-17 62.5Q241 249 212.5 266T150 283zM88 127q0-8 5-13.5t13-5.5q8 0 13.5 5.5T125 127q0 8-5.5 13.5t-13.5 5q-8-.5-13-5.5t-5-13zm87 0q0-8 5.5-13.5T194 108q8 0 13.5 5.5T213 127q0 8-5.5 13.5t-13.5 5q-8-.5-13.5-5.5t-5.5-13zm25 43H100q-16 0-26.5 11T63 208q0 16 10.5 26.5T100 246h100q16-1 27-11.5t10.5-26.5q-.5-16-11-26.5T200 170zm-37 25v25h-25v-25h25zm-75 13q0-5 3.5-8.5t8.5-3.5h13v24h-13q-5 0-8.5-3.5T88 208zm112 12h-12v-25h12q5 0 9 4t4 9q0 5-4 8.5t-9 3.5z"/></svg>