<svg viewBox="0 0 300 311" xmlns="http://www.w3.org/2000/svg"><path d="M213 308H88V195H63q-17 0-31.5-8t-23-22.5Q0 150 0 133v-25q0-16 11-27t26.5-11Q53 70 64 81t11 27v12h13V70q0-16 8-30.5t22.5-23Q133 8 150 8t31.5 8.5q14.5 8.5 23 23T212 71v112h13v-13q0-15 11-26t26.5-11q15.5 0 26.5 11t11 26v25q0 17-8.5 31.5t-23 23Q254 258 237 258h-24v50zm-100-25h75v-50h50q15 0 26-11t11-26v-26q0-5-3.5-8.5t-9-3.5q-5.5 0-9 3.5T250 171v37h-62V70q0-15-11-26t-27-11q-16 0-27 11t-10 27v74H50v-37q0-5-3.5-9t-9-4q-5.5 0-9 4t-3.5 9v25q0 16 11 26.5T63 170h50v113zm12-38h25v25h-25v-25zm0-175h25v25h-25V70zm25 88h25v25h-25v-25z"/></svg>