<svg viewBox="0 0 300 311" xmlns="http://www.w3.org/2000/svg"><path d="M100 145q0 8-5.5 13.5T81 164q-8 0-13-5.5t-5-13q0-7.5 5-13t13-5.5q8 0 13.5 5.5T100 145zM81 64q-8 0-13 5.5T63 83q0 8 5 13.5t13 5.5q8 0 13.5-5.5T100 83q0-8-5.5-13.5T81 64zm0 125q-8 0-13 5.5T63 208q0 8 5 13.5t13 5.5q8 0 13.5-5.5T100 208q0-8-5.5-13.5T81 189zM263 8H38Q22 8 11 19T0 46v249h129q-11-11-18-24H25V45q0-5 3.5-8.5T37 33h226q5 0 8.5 3.5T275 45v145q14 9 25 23V45q0-15-11-26T262 8h1zm-25 62H125v25h113V70zm-113 88h113v-25H125v25zm167 88l3 6-3 6q-9 17-23 29-24 21-56.5 21T156 287q-14-12-23-29l-3-6 3-6q8-17 23-30 24-21 56.5-20.5T269 216q14 13 23 30zm-25 6q-8-13-19-21-16-11-35.5-11T177 231q-11 8-19 21 8 12 19 20 16 11 35.5 11t35.5-11q11-8 19-20zm-55-19q-7 0-12.5 5.5T194 252q0 8 5.5 13t13 5q7.5 0 13-5t5.5-13q0-8-5.5-13.5T212 233z"/></svg>