<svg viewBox="0 0 300 311" xmlns="http://www.w3.org/2000/svg"><path d="M90 166q-8 5-16 12-8-6-14-13l-38 23-13-22 39-22q-2-6-3-11H0v-25h45q1-5 3-11L9 75l12-22 39 23 8-8-23-39 22-12 22 39q5-2 11-3V8h25v45q5 1 10 3l23-39 22 13-23 38q4 4 7 8l39-23 13 22-60 34-5-9q-6-12-19-18.5t-27-4Q91 80 81 90t-12 24q-2 14 4.5 26.5T93 159l-3 7zm115 67h-27l23-41-22-12-28 52q-3 10 3 18t16 8h27l-19 38 22 11 22-44q3-4 3-9.5t-2.5-10.5q-2.5-5-7.5-7.5t-10-2.5zm37-75q-10-21-31-31t-43.5-5.5q-22.5 4.5-38 22T113 185q-19 4-29.5 19.5t-8 34.5Q78 258 92 270.5t33 12.5v-25q-7 0-12.5-3t-9-9q-3.5-6-3.5-12.5t3-12.5q3-6 9-9.5t12-3.5h16l-3-19q0-16 10.5-28t26.5-15q16-3 29.5 5.5T222 175l4 9 12-1q13 0 23.5 9t13 22.5q2.5 13.5-4.5 25T250 256v26q23-5 37-23.5t12.5-42q-1.5-23.5-17.5-40T242 158z"/></svg>