<svg viewBox="0 0 300 311" xmlns="http://www.w3.org/2000/svg"><path d="M273 222q-7-49-24-89h1q21 0 35.5-14.5T300 83q0-21-14.5-35.5T250 33q-4 0-8 1l-2-2q-18-12-28-16-18-8-36.5-8T137 18q-23 11-43 34-24 26-40 65-19 46-28 105-11 4-18.5 14T0 258v50h300v-50q0-13-7.5-23T273 222zm2-139q0 10-7.5 17.5T250 108q-10 0-17.5-7.5T225 83q0-10 7.5-17.5T250 58q10 0 17.5 7.5T275 83zM175 33q12 0 22 4 9 3 19 9-7 7-11 15-8-3-15-3t-18 4q26 24 45 60 22 42 30 98H52q8-53 25-94 14-34 35-57 16-19 35-28 16-8 28-8zm100 250H25v-25q0-5 3.5-8.5T38 246l225-1q5 0 8.5 4t3.5 9v25z"/></svg>