<svg viewBox="0 0 300 311" xmlns="http://www.w3.org/2000/svg"><path d="M175 170q0 10-6 17t-15 8.5q-9 1.5-16.5-3t-11-13q-3.5-8.5 0-17T138 149V83h25v66q5 3 8.5 9t3.5 12zm76-93q25 27 33 62t-2 70q-10 35-36 60.5T185 304q-35 9-70 0t-61-34.5Q28 244 18 209t-2-70q8-35 33-62L37 64 26 75 8 57l41-41 18 18-12 12 13 14q31-23 70-26V8h25v26q38 3 69 26l13-14-11-11 18-18 40 40-18 18-11-11-12 13zm12 93q0-30-15.5-56t-41-41Q181 58 150 58T93.5 73q-25.5 15-41 41t-15 56.5Q38 201 53 227t40.5 41q25.5 15 56.5 15t56.5-15q25.5-15 40.5-41t15-56l1-1z"/></svg>