<svg viewBox="0 0 300 311" xmlns="http://www.w3.org/2000/svg"><path d="M269 120h-2q7-14 8-42 0-17-1-34l-1-14-14 3q-17 4-33 9-27 9-38 20-13-20-29-37l-9-11-9 11q-16 17-29 37-11-11-38-20-16-5-33-9l-14-3-1 14q-1 17-1 34 1 28 8 43h-1q-9 0-16.5 4T4 136.5q-4 7.5-4 16T5 168q16 25 57 50 28 17 63 31-10 9-16.5 21t-8.5 25v13h100v-13q-2-21-17-37h17q10 0 17.5 7.5T225 283h25q0-18-11.5-32T209 234q65-32 86-66 5-7 5-15.5t-4-16q-4-7.5-11.5-11.5t-15.5-5zm-64-40q3-4 16-9.5t29-9.5q1 17-.5 31t-5.5 19q-6 8-16 9.5t-18-5q-8-6.5-9.5-16.5t4.5-18v-1zm-55-28q11 14 18 26t7 18q0 10-7.5 17t-17.5 7q-10 0-17.5-7T125 95q0-5 7-17t18-26zM50 61q16 4 29 9.5T95 80q6 9 4.5 19T90 115.5q-8 6.5-18 5T56 110q-3-4-4.5-18T50 61zm79 222q9-13 21-22 12 9 21 22h-42zm145-129q-11 18-38 36-21 14-50 27 13-21 14-46h-25q-4 31-25 56-21-25-25-57h-25q1 25 14 47-29-13-50-27-27-18-38-36-2-2 0-5t6-4h237q3 1 5 4t0 5z"/></svg>