<svg viewBox="0 0 300 311" xmlns="http://www.w3.org/2000/svg"><path d="M253 283q-12 0-20-9 20-21 31-47.5t11-56.5v-9l-25-8v-45q0-16-11-27t-27-11h-12V45q0-15-11-26T162 8h-24q-16 0-27 11t-11 27v24H88q-16 1-27 11.5T50 108v45l-25 8v9q0 30 11 56.5T67 274q-8 9-20 9-9 0-15.5-4.5T25 271H0q0 15 14 26t33 11q19 0 34-12 15 12 34.5 12t34.5-12q15 12 34.5 12t34.5-12q15 12 34 12t33-11q14-11 14-26h-25q0 3-6.5 7.5T253 283zM125 45q0-5 3.5-8.5T138 33h25q5 0 8.5 3.5T175 45v25h-50V45zm-50 63q0-5 3.5-9t9.5-4h125q5 0 8.5 4t3.5 9v37l-75-25-75 25v-37zm41 175q-10 0-16-4.5t-6-7.5v-6l-5-4q-16-16-26.5-37T50 179l88-29v120q0 4-6.5 8.5T116 283zm68 0q-9 0-15-4.5t-6-7.5V150l87 29q-2 24-12.5 45T211 261l-5 4v5q0 4-6 8.5t-16 4.5z"/></svg>