<svg viewBox="0 0 300 311" xmlns="http://www.w3.org/2000/svg"><path d="M130 58l-18-18 32-32h18v87h-25V50l-7 8zm-55 62H45q14-7 20-14 10-10 10-23 0-16-11-27T37.5 45Q22 45 11 56T0 83h25q0-5 3.5-9t9-4q5.5 0 9 4t3.5 8.5q0 4.5-7 9.5-4 3-14 9-14 8-20 13-9 8-9 19v12h75v-25zm225 32q0-14-10-23 4-7 4-15 0-13-9.5-22T263 83h-38v25h38q2 0 4 2t2 4.5q0 2.5-2 4.5t-4 1h-13v25h19q2 0 4 2t2 4.5q0 2.5-2 4.5t-4 2h-44v25h44q13 0 22-9t9-22zm0 87v69H0V202q0-13 9-22.5t22-9.5h50q3 0 6 1v-19q0-13 9.5-22t22.5-9h62q13-1 22.5 8.5T213 152v57q3-1 6-1h50q13 0 22 9t9 22zm-187 44h75V152q0-3-2-5t-5-2h-62q-3 0-4.5 2t-1.5 5v131zm-88 0h63v-81q0-3-2-5t-5-2H31q-2 0-4 2t-2 5v81zm250-44q0-2-2-4t-4-2h-50q-3 0-5 2t-2 4v44h63v-44z"/></svg>