<svg viewBox="0 0 300 311" xmlns="http://www.w3.org/2000/svg"><path d="M281 89q-6 0-10 4-16-16-28-24 9-8 14-19t6-23v-7h-25v7q-1 13-10 22t-22 9q-13 0-22-9t-9-22V8h-25v19q0 17 10 31h-16q-13 0-22.5-9T112 27V8H88v19q0 23 16 39.5T144 83h16q-5 8-7.5 17t-2.5 15v18H74q-12 0-22.5 5T34 152L0 190l19 16 4-5q2 10 9 25v1q4 9 5 14v67h75v-50h25v50h75v-64q10-11 16-25 9-21 9-43v-26l20-3q9-1 15.5-6.5T281 127q8 0 13.5-5.5T300 108q0-8-5.5-13.5T281 89zm-27 34l-41 5v47q0 21-11 40-5 9-11 15l-3 4v49h-25v-50H88v50H63v-44l-8-23q-5-10-6-15-2-8-2-18t8-17.5q8-7.5 19-7.5h101v-43q0-9 5-17 9-15 31-15 10 0 23 10 8 6 21 20 1 3 1 7 0 2-2 3z"/></svg>