<svg viewBox="0 0 300 311" xmlns="http://www.w3.org/2000/svg"><path d="M288 158q0-16-11-27t-27-11h-12V83h-13q0-11-5-21t-13.5-17q-8.5-7-19-10T166 34q-8-12-20.5-19T119 8q-14 0-26.5 7T72 33q-20 1-33.5 15.5T25 83H13v187q0 16 10.5 27T50 308h150q16 0 26.5-11t11.5-27v-25h50v-87zM75 58q6 1 11 2l4-9q4-8 12.5-13t17.5-4.5q9 .5 17 6T148 53l5 13 12-6q6-2 12-1.5t11.5 4q5.5 3.5 8.5 9t3 11.5h-87v87q0 6-4 9.5t-9 3.5q-5 0-8.5-3.5T88 170V83H50q0-10 7.5-17.5T75 58zm138 212q0 6-4 9.5t-9 3.5H50q-5 0-8.5-3.5T38 270V108h25v62q0 16 10.5 27t26.5 11q16 0 27-11t11-27v-62h75v162zm50-50h-25v-75h12q5 0 9 4t4 9v62z"/></svg>