<svg viewBox="0 0 300 311" xmlns="http://www.w3.org/2000/svg"><path d="M290 174q1 4 1 9 0 13-7 24t-18 17q-1 14-8.5 25.5T238 267v41h-50v-28q-9 3-16 3-15 0-27-8-12 8-26 8l-6-1v26H63v-38q-16-4-27-16.5T25 224q-11-6-18-17t-7-24q0-13 7-24t18-17q0-19 14-33t33-14q7 1 13 2 14-14 34-14 9 0 19 4v32l-2-3q-7-8-17-8-6 0-11 3t-8 8l-6 11-11-6q-5-3-11-3-9 0-15.5 6T50 142l1 5 2 12-12 3q-7 2-11.5 8T25 183q0 7 4.5 13t11.5 8l12 3-2 12-1 5q0 9 6.5 15.5T72 246q6 0 11-4l11-6 6 11q3 5 8 8t11 3q10 0 17-8l9-12 10 12q7 8 17 8 6 0 11-3t8-8l6-11 11 6q5 4 11 4 9 0 15.5-6.5T241 224l-4-17 15-4q25-9 38-29zM179 49q2-1 4-3l1-1q-6-12-21-12V8q16 0 27 7.5T207 34q6-1 12-1t12 1q6-11 17-18.5T275 8v25q-16 0-22 12l5 4 30 6 12 3q-2 10-9 17t-16 10v51q0 22-15 34.5T219 183q-26 0-41-12.5T163 136V85q-9-3-16-10t-10-17l12-3 30-6zm71 40q0-13-9-22t-22-9q-13 0-22 9t-9 22v47q0 22 31 22t31-22V89z"/></svg>