<svg viewBox="0 0 300 311" xmlns="http://www.w3.org/2000/svg"><path d="M116 107q16-13 20-33t-6-38q-11-20-33-26t-41 5Q27 32 12 60 0 83 0 108q0 22 2 34 3 14 10 26.5T31 188q12 7 26.5 7t27-7q12.5-7 19.5-18t8-24v162h26V149q0-21-15-36l-7-6zM98 89q-14 8-16 19-3 9 2.5 19t2 22q-3.5 12-14 18t-22 2.5Q39 166 33 156q-5-8-6.5-18T25 108.5Q25 89 35 71q11-21 34-34 6-4 14-4 4 0 8 1 11 3 17.5 14t3 23Q108 83 98 89zm146-74q-19-11-41-5t-33 26q-10 18-6 38t20 33l-7 6q-15 15-15 36v159h26V146q1 13 8 24t18 18q14 8 28 8t26.5-7.5q12.5-7.5 19.5-20t10-26.5q2-12 2-34 0-25-12-48-15-28-44-45zm23 141q-6 10-17.5 13.5t-22-3q-10.5-6.5-14-18t2-21.5q5.5-10 2.5-19-2-11-16-19-10-6-13.5-18t3-23q6.5-11 18-14t22.5 3q22 13 33 34 10 18 10 37t-1.5 29q-1.5 10-6.5 19z"/></svg>