<svg viewBox="0 0 300 311" xmlns="http://www.w3.org/2000/svg"><path d="M300 54q-1-11-6.5-21T278 17q-12-9-28-9t-29.5 9.5Q207 27 202 43.5t1 32.5q3 8-2 13l-30 30-12-12q-11-11-27-11t-27 11l-10 9q-10 11-11 26-15 1-26 11l-9 10q-11 11-11 27t11 27l12 12-60 61 17 17 61-60 12 12q11 11 27 11t27-11l10-9q10-11 11-26 15-1 26-11l9-10q11-11 11-27t-11-27l-12-12 30-30q8-8 10-18.5T227 67q-3-8-1-16t9-13q7-5 15-5t14 4q10 7 11 18.5T268 76l17 17q8-8 12-18t3-21zM137 232l-9 9q-4 4-10 4t-10-4l-41-41q-4-4-4-10t4-10l9-9q4-4 9.5-4t9.5 4l42 42q4 4 4 9.5t-4 9.5zm46-46l-9 9q-4 4-9.5 4t-9.5-4l-42-42q-4-4-4-9.5t4-9.5l9-9q4-5 10-5t10 5l41 41q4 4 4 10t-4 10z"/></svg>