<svg viewBox="0 0 300 311" xmlns="http://www.w3.org/2000/svg"><path d="M141 106q-8-8-19-10-14-2-32 6-22 10-47 36-32 31-40.5 57t7.5 41q30 30 77 49 37 15 81 22l6 1q16 0 27-11 7-7 10-16t1-18q-8-44-23-80-19-48-48-77zm27 90q-18 11-37.5 30.5T101 263q-17-6-33-15 9-21 36-48t48-37q9 16 16 33zM60 156q17-17 31.5-26t23.5-9q5 0 8 2 8 9 16 19-25 13-53 40.5T47 234q-11-7-18.5-14.5t1.5-25Q39 177 60 156zm124 123q-5 5-12 4-25-4-47-11 9-14 23-28t28-24q7 24 11 48 1 6-3 11zM300 55q0 43-20 91-16 36-42 74-4 5-8 8-4-17-8-29 12-18 22-38-16-3-38-3-6-13-13-25h13q29 0 50 5 7-17 12-34-23-9-62-9-22 0-38 3l-10-10q-6-6-13-10 25-8 61-8 41 0 67 9 2-12 2-24 0-10-19-16t-49.5-6q-30.5 0-50 6T137 54.5q0 9.5 2 20.5-12-5-26-5l-1-15q0-22 24.5-34.5T206 8q45 0 69.5 12.5T300 55z"/></svg>