<svg viewBox="0 0 300 311" xmlns="http://www.w3.org/2000/svg"><path d="M188 208q0 10 7 17.5t17.5 7.5q10.5 0 17.5-7.5t7.5-17.5q.5-10-7-17.5t-18-7.5q-10.5 0-17.5 7.5t-7 17.5zm-88 37q-21 0-35.5-14.5t-14.5-35Q50 175 64.5 160t35.5-14.5q21 .5 35.5 15t14.5 35q0 20.5-14.5 35T100 245zm0-75q-10 0-17.5 7.5t-7.5 18q0 10.5 7.5 17.5t17.5 7q10 0 17.5-7t7.5-17.5q0-10.5-7.5-17.5t-17.5-7v-1zm200 138H175v-13q0-7-5.5-12.5T156 277q-8 0-13 5.5t-5 12.5v13H60q-24 0-40-21-13-17-17-47-4-27-1-55t12-46q12-35 34-65.5T101 20q15-12 35-12t36 11l128 95v194zm-102-25h77V133H60q-7 0-13.5 4T37 148q-12 29-12 60t12 60q3 7 9.5 11t13.5 4h54q5-14 16.5-22.5t26-8.5q14.5 0 26 8.5T198 283zM137 33q-12 0-21 7-37 28-60 68h194l-92-69q-10-6-21-6z"/></svg>