<svg viewBox="0 0 300 311" xmlns="http://www.w3.org/2000/svg"><path d="M29 190l-24 7q-3-13-4-26l24-2q1 11 4 21zm15 74q9 9 20 17l14-21q-9-6-17-14l-17 18zm-7-53l-23 10q5 12 13 23l20-15q-6-9-10-18zm-8-85l-24-7q-3 13-4 26l24 2q1-11 4-21zm19-40L27 72q-7 11-13 23l23 10q4-10 10-19h1zm38-64l11 23q10-5 20-8l-6-24q-13 4-25 9zM44 52l17 18q8-8 17-14L64 35q-11 8-20 17zm42 242q12 5 25 9l6-24q-10-3-20-8l-11 23zM150 8q-7 0-14 1l3 25 11-1q34 0 62.5 17T258 95.5q17 28.5 17 62.5t-17 62.5Q241 249 212.5 266T150 283l-11-1-3 25q7 1 14 1 41 0 75.5-20t54.5-54.5q20-34.5 20-75.5t-20-75.5Q260 48 225.5 28T150 8zm-12 212h25v-40q5-4 8.5-9.5T175 158q0-7-3.5-12.5T163 136V83h-25v53q-6 4-9.5 9.5T125 158q0 7 3.5 12.5t9.5 9.5v40z"/></svg>