<svg viewBox="0 0 300 311" xmlns="http://www.w3.org/2000/svg"><path d="M263 33h-50V8h-25v25H38q-16 0-27 11T0 70v25q0 16 11 27t27 11h150v25h25v-25h50q15 0 26-11t11-27V70q0-15-11-26t-26-11zM25 95V70q0-5 3.5-8.5T38 58h87v50H38q-6 0-9.5-3.5T25 95zm125 13V58h38v50h-38zm125-13q0 6-3.5 9.5T263 108h-50V58h50q5 0 8.5 3.5T275 70v25zm-12 88H150v-25h-25v25H38q-16 0-27 11T0 220v25q0 16 11 27t27 11h87v25h25v-25h113q15 0 26-11t11-27v-25q0-15-11-26t-26-11zM25 245v-25q0-5 3.5-8.5T38 208h25v50H38q-6 0-9.5-3.5T25 245zm63 13v-50h37v50H88zm187-13q0 6-3.5 9.5T263 258H150v-50h113q5 0 8.5 3.5t3.5 8.5v25z"/></svg>