<svg viewBox="0 0 300.0013 311" xmlns="http://www.w3.org/2000/svg"><path d="M291 69q-22-19-55-29-4-14-15.5-23t-26-9Q180 8 169 16t-16 20Q71 76 32 138 3 186 0 243q-1 27 18 46 9 9 20.5 14t24.5 5h125v-25h-25v-43q0-21 4-51l76 119h45v-25h-31l-80-126q32-2 61-13 35-14 55-36 7-9 6.5-20.5T291 69zm-97-36q8 0 13.5 5.5T213 52q0 8-5.5 13.5T194 71q-8 0-13.5-5.5T175 52q0-8 5.5-13.5T194 33zm80 58q-19 21-53 33-29 9-58 9h-11l-2 10q-5 24-9 52-11-12-25.5-18.5T85 171H69q-6 11-11 24h23q24 0 40.5 16.5T138 252v31H63q-16 0-27-11.5T25 244q3-57 35-102.5T152 65q4 13 15.5 22t26 8.5q14.5-.5 26-8.5T235 66q24 8 39 22 2 1 0 3z"/></svg>