<svg viewBox="0 0 300 311" xmlns="http://www.w3.org/2000/svg"><path d="M288 223l-54 49q-19 17-43 26.5t-49 9.5H0v-25h142q21 0 40.5-7.5T217 254l54-49q3-3 3.5-8t-2.5-9q-3-4-8.5-4.5T254 187l-53 48q-11 10-26 11h-63v-26h63q5 1 9-3 3-4 3-9v-13h-77q-22 0-42.5 9T31 228l-13 13-18-18 13-12q19-20 44.5-30.5T110 170h103v20l23-21q6-6 13.5-9t16.5-2q17 1 27 16 8 11 6.5 25T288 223zM50 20V8h13q33 0 54.5 9.5T150 48q11-21 32.5-30.5T237 8h13v12q0 49-21 73t-67 27v25h-24v-25q-46-3-67-27T50 21v-1zm113 75q31-2 45.5-16T225 33q-32 2-46 16.5T163 95zM75 33q2 32 16.5 46T137 95q-2-31-16-45.5T75 33z"/></svg>