<svg viewBox="0 0 300 311" xmlns="http://www.w3.org/2000/svg"><path d="M106 158q-28 1-52-13 24-13 52-12 28-1 53 12-25 14-53 13zm194-88v100q0 16-11.5 29t-31 22q-19.5 9-45.5 11v13q1 18-13.5 32T160 299.5q-24 8.5-53.5 8.5t-54-8.5Q28 291 14 277T0 245V145q0-15 11.5-28T43 95q20-9 45-11V70q0-17 14-31t38-22.5Q164 8 193.5 8t54 8.5Q272 25 286 39t14 31zm-187 0q0 8 5 13 41 1 74 25h2q23 0 41.5-5.5t29-14.5Q275 79 275 70.5T264.5 53q-10.5-9-29-14.5T194 33q-23 0-41.5 5.5T123 53q-11 9-10 18v-1zm-88 75q0 9 10.5 18t29 14.5Q83 183 106 183t41.5-5.5Q166 172 177 163t11-17.5q0-8.5-11-17.5t-29.5-14.5Q129 108 106 108t-41.5 5.5Q46 119 35.5 128T25 145zm163 100v-59q-38 23-82 22-44 1-81-22v59q0 9 10.5 18t29 14.5Q83 283 106 283t41.5-5.5Q166 272 177 263t11-18zm87-75v-59q-30 19-65 21 2 7 2 13v62q28-3 45.5-14t17.5-23zM246 70q-24-13-52-12-28-1-53 12 25 14 53 13 28 1 52-12v-1z"/></svg>