<svg viewBox="0 0 300 311" xmlns="http://www.w3.org/2000/svg"><path d="M285 252l14 21-6 5q-19 13-33 20-23 10-47.5 10t-42-17Q153 274 153 249.5t17-41.5l100-99q5-6 5-13.5t-5.5-13q-5.5-5.5-13-5.5T243 82L74 251q-12 13-30.5 13t-31-13Q0 238 0 220t13-31L138 65q6-5 6-13t-5.5-13.5Q133 33 125 33t-13 5l-93 92-17-18 92-91q12-13 31-13t31.5 13Q169 34 169 52t-13 31L30 207q-5 6-5 13.5t5.5 13q5.5 5.5 13 5.5t13.5-5L226 65q12-13 30.5-13t31 13Q300 78 300 96t-13 31l-99 99q-10 10-10 24t10 23.5q10 9.5 25 9.5 19 0 37-8 11-5 28-18l7-5z"/></svg>