<svg viewBox="0 0 300 311" xmlns="http://www.w3.org/2000/svg"><path d="M200 195h-29l-6 43q-2 14-12.5 23t-24.5 9h-28v38H0v-25h75v-38h53q5 0 8.5-3t4.5-7l8-65h25l-6-13q-13-30-20-45-12-23-20-33-19-26-47-37.5T22 34q-10 1-22 6V13q10-3 18-4 38-5 72.5 9.5T148 63q9 12 21 36 8 15 22 48l9 21v27zm13 25q-6 0-9.5 4t-3.5 9q0 5 3.5 8.5t9 3.5q5.5 0 9-3.5t3.5-8.5q0-5-3.5-9t-8.5-4zm37-25q-5 0-8.5 4t-3.5 9q0 5 3.5 8.5t8.5 3.5q5 0 9-3.5t4-8.5q0-5-4-9t-9-4zm0 50q-5 0-8.5 4t-3.5 9q0 5 3.5 8.5t8.5 3.5q5 0 9-3.5t4-8.5q0-5-4-8.5t-9-3.5v-1zm38-25q-6 0-9.5 4t-3.5 9q0 5 3.5 8.5t9 3.5q5.5 0 9-3.5t3.5-8.5q0-5-3.5-8.5T288 221v-1zm0-25q5 1 8.5-3t3.5-9q0-5-3.5-9t-9-4q-5.5 0-9 4t-3.5 9q0 5 3.5 8.5t9.5 3.5zm0 75q-6 0-9.5 4t-3.5 9q0 5 3.5 8.5t9 3.5q5.5 0 9-3.5t3.5-8.5q0-5-3.5-9t-8.5-4z"/></svg>