<svg viewBox="0 0 300 311" xmlns="http://www.w3.org/2000/svg"><path d="M300 110v123H176q-5-13-12-25h111v-98q0-12-10-19l-70-55q-3-3-7.5-3t-7.5 3l-70 55q-10 7-10 19v34q-12-7-25-12v-22q0-11 5-21.5T94 71l70-55q11-8 23.5-8t23.5 8l70 55q9 7 14 17.5t5 21.5zM19 270q-8 0-13.5 5.5T0 289q0 8 5.5 13.5T19 308q8 0 13-5.5t5.5-13.5q.5-8-5-13T19 271v-1zm-6-62v25q16 0 30.5 8.5t23 23Q75 279 75 295h25q0-23-12-43t-32-32q-20-12-43-12zm0-63v25q33 0 62 17t46 46q17 29 17 62h25q-1-40-21-74.5T87.5 166Q53 146 12 146l1-1zm200-25h-50v50h50v-50z"/></svg>