<svg viewBox="0 0 300 311" xmlns="http://www.w3.org/2000/svg"><path d="M188 308h-25v-88h25v88zm-50-113h-25v88h25v-88zm-50 25H63v88h25v-88zm150-25h-25v88h25v-88zM218 71q-10-24-29.5-40.5t-45-21Q118 5 93.5 13t-42 27Q34 59 28 83.5t0 50.5q-14 10-21.5 26.5T.5 195Q2 213 12 227.5T38 251v-31q-8-8-11-18t-1.5-20q1.5-10 8-18.5T49 150l10-5-4-10q-7-18-4.5-36t13-33.5q10.5-15.5 27-24T125 33q25 0 45 15t27 39l2 8h9q19 1 35 11.5t24.5 27q8.5 16.5 7 35.5T263 204v35q22-17 31.5-44t2.5-54.5Q290 113 268 94t-50-23z"/></svg>