<svg viewBox="0 0 300 311" xmlns="http://www.w3.org/2000/svg"><path d="M244 195h-31v-75h31q23 0 39.5-16T300 64.5q0-23.5-16.5-40T243.5 8Q220 8 204 24.5T188 64v31h-75V64q0-23-16.5-39.5T56.5 8Q33 8 16.5 24.5T0 64.5q0 23.5 16.5 40T56 121h32v74H56q-23 0-39.5 16.5T0 251.5q0 23.5 16.5 40t40 16.5Q80 308 96 291.5t16-39.5v-32h76v32q0 23 16 39.5t39.5 16.5q23.5 0 40-16.5t16.5-40q0-23.5-16.5-39.5T244 196v-1zM213 64q-1-13 8.5-22t22.5-9q13 0 22 9t9 22q0 13-9 22t-22 9h-31V64zM56 95q-13 0-22-9t-9-22q0-13 9-22t22-9q13 0 22.5 9T88 64v31H56zm32 157q-1 13-10 22t-22 9q-13 0-22-9t-9-22q0-13 9-22.5t22-9.5h32v32zm25-57v-75h75v75h-75zm131 88q-13 0-22-9t-9-22v-32h31q13 1 22 10t9 22q0 13-9 22t-22 9z"/></svg>