<svg viewBox="0 0 300 311" xmlns="http://www.w3.org/2000/svg"><path d="M187 133h-74L0 291v17h300v-18L187 133zm-61 25h48l19 26q-10 2-18 9-11-10-25-10t-25 10q-8-7-18-9l19-26zM36 283l54-75h10q5 0 8.5 3.5t3.5 9.5v12h26v-13q0-5 3.5-8.5t8.5-3.5q5 0 9 3.5t4 9.5v37h25v-38q-1-5 3-8.5t9-3.5h10l54 75H36zM25 83q0-14 9-24.5T57 46q6-12 18-18.5t25-6.5q7 0 15 2 14-15 35-15t35 15q8-2 15-3 13 1 25 7.5T243 46q15 2 24 13.5t8 26.5q-1 15-12 25t-26 9q-9 0-17-4-9 5-20 4h-37V95h37q8 1 14-4l8-5 7 6q4 3 9 3.5t8.5-3.5q3.5-4 3.5-9t-3.5-9q-3.5-4-8.5-4l-10 1-5-9q-3-11-14-15t-21 2l-11 6-6-10q-3-6-9-9t-12-3q-6 0-12 3t-9 9l-6 10-11-6q-10-6-21-2T77 62l-4 10-11-2q-4 1-7.5 3.5T50 80q-1 4 .5 7.5t5 6q3.5 2.5 8 2T71 92l7-6 8 5q6 5 14 5h38v24h-38q-11 1-20-4-8 4-17 4-16 0-27-10.5T25 83z"/></svg>