<svg viewBox="0 0 300 311" xmlns="http://www.w3.org/2000/svg"><path d="M84 145H38q-6 1-9.5 4.5T25 158v37H0v-37q0-16 11-26.5T38 121h21l25 24zm29 88q-16 0-27 11t-11 26v38h25v-38q0-5 3.5-8.5t9.5-3.5h84l-25-25h-59zm87 75h25v-22l-25-25v47zm63-188h-57q10 12 15 25h42q5 0 8.5 4t3.5 9v37h25v-37q0-16-11-26.5T262 121l1-1zm-66 67l102 103-17 17L1 26 18 9l18 17q7-8 17.5-13T75 8q21 0 35.5 14.5T125 58q0 11-5 21.5T107 97l26 27q14-5 28-2t24 13q15 15 15 35 0 9-3 17zM54 44l35 35q5-3 8-9t3-12q0-10-7.5-17.5T75 33q-6 0-12 3t-9 8zm121 14q0-21 14.5-35.5T225 8q21 0 35.5 14.5T275 58q0 21-14.5 35.5T225 108q-21 0-35.5-14.5T175 58zm25 0q0 10 7.5 17.5T225 83q10 0 17.5-7.5T250 58q0-10-7.5-17.5T225 33q-10 0-17.5 7.5T200 58zm-50 162h9l-58-58q-1 5-1 9 0 20 14.5 34.5T150 220z"/></svg>