<svg viewBox="0 0 300 311" xmlns="http://www.w3.org/2000/svg"><path d="M285 190q6 6 15 5v25q-17 1-31-10-3-2-6.5-2t-6.5 2q-14 10-31 10t-31-10q-3-2-6.5-2t-6.5 2q-14 10-31 10t-31-10q-3-2-6.5-2t-6.5 2q-14 10-31 10t-31-10q-3-2-6.5-2t-6.5 2q-14 11-31 10v-25q9 1 15-5 10-7 22.5-7t22.5 7q7 5 15 5t15-5q10-7 22.5-7t22.5 7q7 5 15 5t15-5q10-7 22.5-7t22.5 7q7 5 15 5t15-5q10-7 22.5-7t22.5 7zm15-92v72H0V95l191-84q11-5 23-2t20 12l66 77zM60 95h205l-50-58q-3-3-7-4t-8 1L60 95zm215 50v-25H25v25h250zM0 233h300v37q0 16-11 27t-27 11H38q-16 0-27-11T0 271v-38zm25 37q0 6 3.5 9.5T38 283h225q5 0 8.5-3.5t3.5-9.5v-12H25v12z"/></svg>