<svg viewBox="0 0 300 311" xmlns="http://www.w3.org/2000/svg"><path d="M300 158q0 24-7.5 46.5T271 246l-18-17q22-32 22-71 0-34-17-62.5T212.5 50Q184 33 150 33T87.5 50Q59 67 42 95.5T25 158q0 30 13.5 56T75 258q1 19 11 35-39-18-62.5-54.5T0 158q0-41 20-75.5T74.5 28Q109 8 150 8t75.5 20Q260 48 280 82.5t20 75.5zM54 112l17 17q29-28 56-34l-4-24q-35 7-69 41zm119-17q27 6 56 34l17-17q-34-34-69-41l-4 24zm61 140q3 3 3.5 7t-2.5 7l-43 43q-15 16-38 16-14 0-26-6.5T108 282q-8-13-8-29v-45q0-5 3.5-8.5t9-3.5q5.5 0 9 3.5t3.5 8.5v14l55-55q3-3 7-3t7 3q3 3 3 7.5t-3 7.5l-37 37 13 13 45-46q3-3 7.5-3t7.5 3q3 3 3 7.5t-3 7.5l-45 45 12 12 23-23q3-3 7-3t7 3zm-134-62q7-2 12-2 12 0 22 6l28-27q11-11 27-10-7-9-17-14t-22-5q-21 0-35.5 14.5T100 171v2z"/></svg>