<svg viewBox="0 0 300 311" xmlns="http://www.w3.org/2000/svg"><path d="M172 95h16v75h-16v-48l-22 23-22-23v48h-15V95h15l22 25 22-25zM68 112q5-2 11 1 3 1 5 2l6 5 10-12-6-5q-4-3-9-5-11-4-22-1-6 2-10 6.5T48 114q-1 6 1.5 11t8.5 9l17 7q9 3 8.5 6.5T80 153q-3 2-7 2-9 0-15-6l-5-6-12 11 5 5q11 12 27 12 10 0 17-5.5t8.5-13.5q1.5-8-3-15T81 126l-16-6q-2-1-1.5-4t4.5-4zm159-1q5-1 11 1 3 1 5 3l6 5 10-12-6-5q-4-3-9-5-11-5-22-2-6 2-10 6.5t-5 10.5q-1 6 1.5 11.5t8.5 8.5l17 8q9 3 8.5 6.5T239 153q-3 2-7 2-9 0-15-6l-5-6-12 10 5 6q11 11 27 11 9 0 16.5-5.5t9-13q1.5-7.5-3-14.5T240 126l-16-6q-2-2-1.5-5t4.5-4zm73-66v213h-86l-48 40q-7 6-16 6t-17-7l-46-39H0V45q0-15 11-26T38 8h225q15 0 26 11t11 27v-1zm-25 0q0-5-3.5-8.5T263 33H38q-6 0-9.5 3.5T25 45v188h71l54 46 55-46h70V45z"/></svg>