<svg viewBox="0 0 300 311" xmlns="http://www.w3.org/2000/svg"><path d="M300 220h-23L249 62q-3-18-17-30t-32-12H100q-18 0-32 12T51 62L23 220H0v25h13v13q0 16 10.5 26.5T50 295h200q16 0 26.5-10.5T287 258v-13h13v-25zM100 45h100q9 0 16 6t8 15l3 17h-27q-14 0-25 10-11-10-25-10h-12q-15 0-26 10-10-10-24-10H73l3-17q1-9 8-15t16-6zm-32 63h20q5 0 8.5 3.5t3.5 9.5v62h25v-63q0-5 3.5-8.5t9.5-3.5h12q5 0 9 3.5t4 9.5v37h25v-38q0-5 3.5-8.5t8.5-3.5h32l20 112H48l20-112zm195 150q0 5-4 9t-9 4H50q-5-1-8.5-4.5T38 258v-13h225v13z"/></svg>