<svg viewBox="0 0 300 311" xmlns="http://www.w3.org/2000/svg"><path d="M150 8q-41 0-75.5 20T20 82.5Q0 117 0 158t20 75.5Q40 268 74.5 288t75.5 20q28 0 54-10t46-29v-11h-25q-34 25-75 25-32 0-59-15t-44.5-40.5Q29 202 26 171q4 2 7 4 10 8 23 8t23-8q4-3 10-4 4 21 21.5 35t39.5 14q22 0 39.5-14t21.5-35h2q5-1 8.5 3t3.5 9v50h25v-50q0-5 3.5-8.5t9-4q5.5-.5 9 3.5t3.5 9v87h25V158q0-41-20-75.5T225.5 28Q191 8 150 8zm0 187q-16 0-26.5-10.5T113 158q0-16 10.5-26.5t26.5-11q16-.5 26.5 10.5t11 27q.5 16-10.5 26.5T150 195zm113-50q-15 0-25 10-11-10-26-10h-1q-4-21-21.5-35T150 95.5q-22-.5-39.5 14T89 145q-14 2-25 11-3 2-7.5 2t-7.5-2q-11-8-23-10 3-32 20-57.5T90.5 48Q118 33 150 33t59.5 15q27.5 15 45 41.5T275 148q-6-3-12-3z"/></svg>