<svg viewBox="0 0 300 311" xmlns="http://www.w3.org/2000/svg"><path d="M300 133L273 8H28L0 130v15q0 19 12 33v92q0 16 11 27t27 11h200q16 0 27-11t11-27v-92q12-14 12-32v-13zm-275 1L48 33h40v50h25V33h75v50h25V33h40l22 101v11q0 11-7.5 18t-17.5 7h-12q-11 0-18-7t-7-18h-25q0 11-7.5 18t-18.5 7h-24q-11 0-18-7t-7-18H88q0 11-7.5 18T63 170H50q-10 0-17.5-7T25 145v-11zm225 149H50q-5 0-8.5-3.5T38 270v-76l12 2h13q10-1 20-5.5t17-12.5q7 8 17 12.5t21 5.5h25q10 0 20-4.5t17-12.5q7 8 17 12.5t20 3.5h13q6 0 13-1v76q0 6-4 9.5t-9 3.5z"/></svg>