<svg viewBox="0 0 300 311" xmlns="http://www.w3.org/2000/svg"><path d="M300 26L282 8l-38 39-29-29-18 18 29 28-20 20-28-29-18 18 29 29-20 19-31-31-9 9q-14 14-16 33.5t8 36.5l-15 15-29-28-17 17 28 29-18 18q-6 5-13 2-15-4-29.5 1.5T6 242q-6 11-6 22.5t5.5 21q5.5 9.5 14 15T38 308h6q18 0 31-13l-18-17q-7 6-16 5t-14-10q-2-4-2-9t3-10q3-5 9-7.5t12-.5q10 4 20.5 1.5T88 238l18-18 29 28 17-17-28-29 15-15q17 10 36.5 8t33.5-16l9-9-31-31 19-20 29 29 18-18-29-28 20-20 28 29 18-18-29-29 39-38zM147 161q-7-6-9-15.5t2-17.5l40 40q-8 4-17.5 2t-15.5-9z"/></svg>