<svg viewBox="0 0 300 311" xmlns="http://www.w3.org/2000/svg"><path d="M280 141q-19-19-42-20-10-1-24 5-11 5-28 15-15 8-21 2-6-7 2-21 10-17 15-27 6-15 5-25-1-23-20.5-42.5T119.5 8Q92 8 72 28L56 44Q35 65 20.5 95T2 158q-5 36 3 66t29 50q16 17 39.5 25.5T124 308q13 0 26-2 33-4 63-18.5t51-35.5l16-17q20-19 20-47t-20-47zm-17 77l-17 16q-18 19-44.5 31T146 281.5q-29 4.5-53.5-2t-41-23q-16.5-16.5-23-41T26 162q4-29 16.5-55.5T73 62l17-17q12-12 29.5-12t30 12.5Q162 58 162 71q1 9-16 38-9 15-8.5 28.5T147 161q10 9 23.5 9.5T199 162q29-17 38-17 13 1 25.5 13.5t12.5 30q0 17.5-12 29.5z"/></svg>