<svg viewBox="0 0 300 311" xmlns="http://www.w3.org/2000/svg"><path d="M300 158q0 41-20 75.5T225.5 288Q191 308 150 308q-28 0-53.5-10T50 269v39H25v-63q0-10 7.5-17t17.5-8h63v25H61q18 18 41 28t48 10q34 0 62.5-17t45.5-45.5q17-28.5 17-62.5h25zM150 33q25 0 48 10t41 27h-51v25h62q10 0 17.5-7t7.5-17V8h-25v38q-21-18-46.5-28T150 8q-41 0-75.5 20T20 82.5Q0 117 0 158h25q0-34 17-62.5T87.5 50Q116 33 150 33zm71 98l-17 11q2 8 2 16t-2 16l17 11-12 21-18-10q-12 13-29 17v20h-24v-20q-17-4-29-17l-18 10-12-21 17-11q-2-8-2-16t2-16l-17-11 12-21 18 10q12-13 28-17V83h26v20q16 4 28 17l18-10 12 21zm-40 27q0-13-9-22t-22-9q-13 0-22 9t-9 22q0 13 9 22t22 9q13 0 22-9t9-22z"/></svg>