<svg viewBox="0 0 300 311" xmlns="http://www.w3.org/2000/svg"><path d="M88 183q20 0 35-14.5t15-35.5q0-21-15-35.5T87.5 83q-20.5 0-35 14.5T38 133q0 21 14.5 35.5T88 183zm0-75q10 0 17.5 7.5T113 133q0 10-7.5 17.5t-18 7.5Q77 158 70 150.5T63 133q0-10 7-17.5t18-7.5zm87 137v63h-25v-63q0-5-3.5-8.5T138 233H38q-6 0-9.5 3.5T25 245v63H0v-63q0-15 11-26t27-11h100q15 0 26 11t11 26zM300 45v188H199q-3-13-12-25h88V45q0-5-3.5-8.5T263 33H100q-5 0-8.5 3.5T88 45v13q-13 0-25 4V45q0-15 11-26t26-11h163q15 0 26 11t11 26zm-75 81l-50 50-17-18q5-12 5-25l-1-6 13 13 32-32h-32V83h50q10 0 17.5 7t7.5 18v50h-25v-33 1z"/></svg>