<svg viewBox="0 0 300 311" xmlns="http://www.w3.org/2000/svg"><path d="M150 8q-41 0-75.5 20T20 82.5Q0 117 0 158t20 75.5Q40 268 74.5 288t75.5 20q41 0 75.5-20t54.5-54.5q20-34.5 20-75.5t-20-75.5Q260 48 225.5 28T150 8zm0 275q-34 0-62.5-17T42 220.5Q25 192 25 158t17-62.5Q59 67 87.5 50T150 33q34 0 62.5 17T258 95.5q17 28.5 17 62.5t-17 62.5Q241 249 212.5 266T150 283zm0-88q38 0 75-12-7 25-25 42-21 20-50 20t-50-20q-18-17-25-42 37 12 75 12zm-87-81q0-8 5-13.5T81 95q8 0 13.5 5.5T100 114q0-8 5.5-13.5T119 95q8 0 13 5.5t5.5 14.5q.5 9-9.5 21-7 9-18 18l-10 7-10-7q-11-9-18-18-9-12-9-22zm175 0q0 10-10 22-7 9-18 18l-10 7-10-7q-11-9-18-18-9-12-9-21t5-14.5q5-5.5 13-5.5t13.5 5.5Q200 106 200 114q0-8 5.5-13.5T219 95q8 0 13.5 5.5T238 114z"/></svg>