<svg viewBox="0 0 300 311" xmlns="http://www.w3.org/2000/svg"><path d="M113 20q-1-5 3-8.5t9-3.5q5 0 8.5 3.5t4 9q.5 5.5-3.5 9t-9 3.5q-5 0-8.5-3.5T113 20zM25 8q-5 0-8.5 3.5t-4 9q-.5 5.5 3.5 9t9 3.5q5 0 9-3.5t4-9q0-5.5-4-9T25 8zm50 25q5 0 9-3.5t4-9q0-5.5-4-9T75 8q-5 0-8.5 3.5t-4 9q-.5 5.5 3.5 9t9 3.5zm100 0q5 0 8.5-3.5t4-9q.5-5.5-3.5-9T175 8q-5 0-8.5 3.5t-3.5 9q0 5.5 3.5 9T175 33zM275 8q-5 0-8.5 3.5t-3.5 9q0 5.5 3.5 9T275 33q5 0 9-3.5t4-9q0-5.5-4-9T275 8zM132 65l-68 69 17 18 57-57v213h25V95l56 57 17-18-68-69q-8-7-18-7t-18 7zm93-57q-5 0-8.5 3.5t-3.5 9q0 5.5 3.5 9T225 33q5 0 8.5-3.5t4-9q.5-5.5-3.5-9T225 8z"/></svg>