<svg viewBox="0 0 300 311" xmlns="http://www.w3.org/2000/svg"><path d="M275 45q0-15-11-26T237 8H63Q47 8 36 19T25 46v212h69q-13 15-17 35l-4 15h154l-4-15q-4-20-17-35h69V45zm-82 238h-86q6-11 18-18t25-7q13 0 25 7t18 18zm57-50H50V45q0-5 3.5-8.5T62 33h176q5 0 8.5 3.5T250 45v188zM150 70q-17 1-31.5 9T96 101.5Q88 116 88 133t8 31.5q8 14.5 22.5 22.5t31.5 8.5q17 .5 31.5-8t22.5-23q8-14.5 8.5-31.5t-8-31.5Q196 87 181.5 79T150 71v-1zm0 100q-16 0-26.5-10.5T113 133q0-16 10.5-26.5T150 96q16 0 26.5 10.5t11 26.5q.5 16-10.5 26.5T150 170z"/></svg>