<svg viewBox="0 0 300 311" xmlns="http://www.w3.org/2000/svg"><path d="M150 8q-41 0-75.5 20T20 82.5Q0 117 0 158q2 57 33 95 29 35 73 47.5t88 0q44-12.5 73-47.5 31-38 33-95 0-41-20-75.5T225.5 28Q191 8 150 8zm0 275q-34 0-62.5-17T42 220.5Q25 192 25 158q2-47 28-79 23-30 60-40t74 0q37 10 60 40 26 32 28 79 0 34-17 62.5T212.5 266Q184 283 150 283zm0-225q-27 0-50 13.5T63.5 108Q50 131 50 158q1 38 22 64 19 23 48.5 31t59 0q29.5-8 48.5-31 21-26 22-64 0-27-13.5-50T200 71.5Q177 58 150 58zm-10 114q-1-6-2.5-11t-3.5-9q9-4 16-11 7 7 16 11-2 4-3.5 9t-2.5 11q-10-3-20 0zm74-53l-24 10q-10 3-18.5-2.5T162 110V84q17 3 30.5 12t21.5 23zm-76-35v26q-1 11-9.5 16.5T110 129l-24-10q8-14 21.5-23T138 84zm-63 74q0-8 2-16l21 9q12 5 15.5 17.5T109 191l-13 19q-10-11-15.5-24.5T75 158zm41 67l14-20q8-9 20-9t20 9l14 20q-16 8-34 8t-34-8zm88-15l-8-11-5-8q-8-10-4.5-22.5T202 151l21-9q4 18-1 36t-18 32z"/></svg>