<svg viewBox="0 0 300 311" xmlns="http://www.w3.org/2000/svg"><path d="M113 145q0-9-5-16.5t-8-8q-3-.5-7.5 7.5T88 145H63q-1-18 10-34t27-16q16 0 27 16t11 35l-25-1zm87-50q-16 0-27 16t-11 35h26q0-10 4.5-17.5t7.5-8q3-.5 8 7.5t5 17h25q0-18-11-33.5T200 96v-1zm-50 150q10 0 17.5-10.5T175 208q0-16-7.5-26.5t-17.5-11q-10-.5-17.5 10.5t-7.5 27q0 16 7.5 26.5T150 245zm63 63h25V170h-25v138zm-150 0h25V170H63v138zm200-51q21-25 30.5-56t5-63.5q-4.5-32.5-22-60t-45-45.5Q204 14 172 9.5T108 14q-32 9-56.5 30.5t-38 51Q0 125 0 158q0 27 9.5 52.5T37 257v-45q-16-35-10.5-73t32-66q26.5-28 64-36.5T196 42q36 14 57.5 45.5T275 158q0 28-13 54l1 45zm-150 20v26q37 10 74 0v-26q-37 12-74 0z"/></svg>