<svg viewBox="0 0 300 311" xmlns="http://www.w3.org/2000/svg"><path d="M113 295v13H88v-13q0-5-4-8.5t-9-3.5H38q-6 0-9.5 3.5T25 295v13H0v-13q0-15 11-26t27-11h37q16 0 27 11t11 27v-1zm150-37h-38q-16 0-26.5 11T188 296v12h25v-13q0-5 3.5-8.5t8.5-3.5h38q5 0 8.5 3.5t3.5 8.5v13h25v-13q0-15-11-26t-27-11h1zM56 245q-18 0-30.5-12.5T13 202q0-18 12.5-31T56 158q18 0 31 13t13 31q0 18-13 30.5T56 245zm0-25q8 0 13.5-5t5.5-13q0-8-5.5-13.5T56 183q-8 0-13 5.5T38 202q0 8 5 13t13 5zm188 25q-18 0-31-12.5T200 202q0-18 13-31t31-13q18 0 31 13t13 31q0 18-13 30.5T244 245zm0-25q8 0 13.5-5t5.5-13q0-8-5.5-13.5T244 183q-8 0-13.5 5.5T225 202q0 8 5.5 13t13.5 5zm56-150v92q-10-14-25-21v-8H25v8q-15 7-25 21V70q0-15 11-26t27-11h37V8h25v25h100V8h25v25h38q15 0 26 11t11 27v-1zM25 108h250V70q0-5-3.5-8.5T262 58H38q-6 0-9.5 3.5T25 71v37zm113 200h25v-25h-25v25z"/></svg>