<svg viewBox="0 0 300 311" xmlns="http://www.w3.org/2000/svg"><path d="M238 63V8H63v55q-17 8-27.5 23.5T25 120v150q0 16 11 27t27 11h175q15 0 26-11t11-27V120q0-18-10.5-33.5T237 63h1zM88 33h125v25H88V33zm162 237q0 6-3.5 9.5T237 283h-36l4-4q6-5 10-26 3-11 4-20l-10 2q-12 2-21 4-12 4-16 8-7 7-10 20v-32q33-14 42-23 6-5 11-27 2-11 4-21l-11 2q-12 2-20 5-13 3-17 7-6 6-9 16v-28q15-19 15-28 0-6-7-20-5-10-13-24l-7-11-7 11q-8 14-13 24-7 14-7 20 0 9 14 28v32q-2-13-9-20-4-4-16-8-9-2-21-4l-10-2 2 10q2 12 4 21 4 12 8 16 9 8 42 23v33q-2-13-9-20-6-6-27-10-10-3-20-4l2 10q2 12 4 20 4 12 8 16l4 4H63q-6 0-9.5-3.5T50 271V120q0-15 11-26t27-11h125q15 0 26 11t11 26v150z"/></svg>