<svg viewBox="0 0 300 311" xmlns="http://www.w3.org/2000/svg"><path d="M291 146q-11-13-28-13 10-37 12-75l1-13h-14q-23 2-46 6 9-21 9-43h-25q0 15-5 28-4-7-10-13-13-14-32-15t-34 11Q104 7 85.5 7.5T53.5 21Q40 34 38 52.5T47 86q-11 9-16.5 22T25 135q-13 5-20 16.5T1 177q6 42 31 76t63 54l2 1h106l2-1q38-20 63-54t31-76q3-17-8-31zm-54-13h-32l16-16-17-18-34 34h-20q-1-10 2.5-19.5T163 97q9-10 37-17 22-6 49-8-3 31-12 61zm-187 0q0-16 11-27t26.5-11q15.5 0 26.5 11t11 27H50zm20-93q7-7 17-7t18 7l14 16 14-16q5-5 13-6.5t15.5 2q7.5 3.5 11 11T174 62q-25 7-39 30-12-14-30.5-19T69 74q-7-8-6.5-17.5T70 40zm205 132q-6 36-26.5 65T197 283h-94q-31-17-51.5-46T25 172q-1-5 3-9.5t10-4.5h224q6 0 10 4.5t3 9.5z"/></svg>