<svg viewBox="0 0 300 311" xmlns="http://www.w3.org/2000/svg"><path d="M144 136L283 8l17 19-139 127-17-18zm156-9v100q0 22-20 40.5T225.5 297Q191 308 150 308t-75.5-11Q40 286 20 267.5T0 227V127q0-23 20-41.5T74.5 56Q109 45 150 45q26 0 50 5l-23 22q-13-2-27-2-35 0-65 9-28 8-44 21t-16 26.5Q25 140 41 153t44 21q30 9 65 9t65-9q28-8 44-21t16-26.5q0-13.5-17-27.5l18-17q24 20 24 45zm-162 81q-27-1-51-7v74q24 6 51 8v-75zm25 75q26-2 50-8v-74q-24 6-50 7v75zM63 266v-73q-23-8-38-21v55q0 10 10 20.5T62 266h1zm212-39v-55q-15 13-37 21v73q17-8 27-18.5t10-20.5z"/></svg>