<svg viewBox="0 0 300 311" xmlns="http://www.w3.org/2000/svg"><path d="M275 95q10 0 17.5-7t7.5-18V8h-25v62h-51q-9-22-29-36t-44.5-14q-24.5 0-45 14T76 70H25V8H0v62q0 11 7.5 18.5T25 95h44l-13 50H0v25h50l-2 9q-1 7-1 13 0 15 4 28H25q-10 0-17.5 7.5T0 245v63h25v-63h37q14 24 37.5 37.5T150 296q27 0 50.5-13.5T238 246h37v62h25v-63q0-10-7.5-17.5T275 220h-26q4-13 4-28 0-6-1-13l-2-9h50v-25h-56l-13-50h44zM150 270q-21 0-39-10.5T82.5 231Q72 213 72 192v-9L98 83q5-17 19.5-27t32-10.5q17.5-.5 32 10T202 82l26 101v9q0 21-10.5 39T189 259.5Q171 270 150 271v-1z"/></svg>