<svg viewBox="0 0 300.0022 311" xmlns="http://www.w3.org/2000/svg"><path d="M295.002 137l-27-44-118 39-118-39-26 44q-5 7-6 15.5t2 17.5q7 16 23 22v74l125 42 125-42v-74q17-6 23-22 3-8 2-16.5t-5-16.5zm-268 13l16-27 88 29-19 32q-2 4-6 5.5t-9 .5l-63-21q-6-2-8-8t1-11zm23 50l40 14q5 1 12 1 9 0 17.5-4.5t14.5-13.5l4-6v86l-88-29v-48zm113 77v-86l3 6q6 9 14.5 13.5t17.5 4.5q7 0 12-1l40-14v48l-87 29zm111-116q-2 6-7 7l-64 22q-5 1-9-.5t-6-5.5l-19-32 88-29 16 27q3 5 1 11zm-184-75l-27-9 69-69 34 35 15-15 51 51-27 9-24-25-40 40-26-9 33-34-16-16-42 42z"/></svg>