<svg viewBox="0 0 300 311" xmlns="http://www.w3.org/2000/svg"><path d="M25 183q0 33 16 61.5T85 290q28 17 61 18t62-14q29-15 47-42.5t20-60.5q2-33-12-62t-40.5-48Q196 62 163 59V33h37V8H100v25h38v26q-32 3-57.5 20.5T40 124q-15 27-15 59zm225 0q0 4-13 10-14 7-37 11v-42q23 4 37 11 13 6 13 10zm-75 24q-12 1-25 1t-25-1v-48q12-1 25-1t25 1v48zM50 183q0-4 13-10 14-7 37-11v42q-23-4-37-11-13-6-13-10zm100-50q-12 0-25 1V86q25-6 50 0v48q-13-1-25-1zm-50-36v40q-23 3-44 11 6-16 17.5-29.5T100 97zM56 218q21 8 44 11v41q-15-9-26.5-22.5T56 218zm69 62v-48q13 1 25 1t25-1v48q-25 6-50 0zm75-11v-40q23-3 44-11-6 16-17.5 29.5T200 269zm44-121q-21-8-44-11V97q15 8 26.5 21.5T244 148z"/></svg>