<svg viewBox="0 0 300 311" xmlns="http://www.w3.org/2000/svg"><path d="M285 171l-54-42q-11-9-24.5-9t-24.5 9l-54 42q-8 6-12 14t-4 17v106h188V202q0-9-4-17t-11-14zm-10 112H138v-81q0-7 5-11l54-42q4-4 9-4t9 4l54 42q6 4 6 11v81zm-87-75h37v37h-37v-37zm-81-57q-15 7-32 7-20 0-37.5-10T10 120.5Q0 103 0 83t10-37.5Q20 28 37.5 18T75 8q17 0 32 7-24 5-39.5 24T52 83q0 25 15.5 44t39.5 24zm47-85l-29-14 29-15 15-29 14 29 30 15-30 14-14 29-15-29zM56 227l25 12-25 13-12 25-13-25-25-13 25-12 13-25 12 25zm202-127l-20-11 20-10 11-21 10 21 21 10-21 11-10 20-11-20z"/></svg>