<svg viewBox="0 0 300 311" xmlns="http://www.w3.org/2000/svg"><path d="M263 233V52h-25v118h-39L173 38q-3-13-13.5-21.5T136 8H38Q22 8 11 19T0 46v218q0 18 13 31t31 13q18 0 31-13t13-31v-6h37v6q0 18 13 31t31 13q18 0 31-13t13-31v-25l-9-44h34v63h62v-25h-37zM38 33h98q4 0 7.5 3t4.5 7l26 127h-52l-3-10q-3-12-13-19.5T83 133H25V45q0-5 3.5-8.5T37 33h1zm25 231q0 8-5.5 13.5T44 283q-8 0-13.5-5.5T25 264v-6h38v6zm125 0q0 8-5.5 13.5T169 283q-8 0-13.5-5.5T150 264v-6h38v6zm-2-31H25v-75h58q4 0 7.5 2.5T95 167l8 28h76l7 38z"/></svg>