<svg viewBox="0 0 300 311" xmlns="http://www.w3.org/2000/svg"><path d="M150 8q-41 0-75.5 20T20 82.5Q0 117 0 158t20 75.5Q40 268 74.5 288t75.5 20q41 0 75.5-20t54.5-54.5q20-34.5 20-75.5t-20-75.5Q260 48 225.5 28T150 8zm18 26q24 4 45.5 16.5T250 83H138l30-49zm9 74l31 50-31 50h-55l-29-51 30-49h54zm-38-74l-60 98-28-50q16-21 38.5-33.5T139 34zM35 208q-10-24-10-50.5T36 106l57 102H35zm97 74q-24-4-45.5-16.5T50 233h112l-30 49zm29 0l61-100 30 48q-16 22-39.5 36T161 282zm46-174h58q10 24 10 49.5t-9 47.5l-59-97z"/></svg>