<svg viewBox="0 0 300 311" xmlns="http://www.w3.org/2000/svg"><path d="M150 308q-41 0-75.5-20T20 233.5Q0 199 0 158t20-75.5Q40 48 74.5 28T150 8q41 0 75.5 20T280 82.5q20 34.5 20 75.5t-20 75.5Q260 268 225.5 288T150 308zm0-275q-34 0-62.5 17T42 95.5Q25 124 25 158t17 62.5Q59 249 87.5 266t62.5 17q34 0 62.5-17t45.5-45.5q17-28.5 17-62.5t-17-62.5Q241 67 212.5 50T150 33zm13 162h-25v-9q-1-13 5.5-25t18.5-19q7-3 10.5-10.5t2-15.5q-1.5-8-7-13.5T155 96q-12-2-21 5.5t-9 18.5h-25q0-18 12-32t30-17q18-3 33.5 6.5T197 104q6 17-.5 34T174 164q-6 4-9 10t-3 12l1 9zm-25 25h25v25h-25v-25z"/></svg>