<svg viewBox="0 0 300 311" xmlns="http://www.w3.org/2000/svg"><path d="M210 195zm55-17q19 18 22 45 2 23-7 47-7 20-18 32l-5 6-8-2q-50-14-86-52v29h-25v-29q-37 38-87 52l-8 2-5-6q-11-13-18-32-9-24-6-46 3-26 22-46-16-11-25.5-28.5T0 112q0-39 17-73 7-12 20.5-16.5T64 23q50 25 86 67 36-42 86-67 13-5 26.5-.5T283 39q17 34 17 73-1 19-10 36.5T265 178zm-127 9q-23 9-48 8-16 1-31-5-14 13-18.5 29t-1 32Q43 267 53 279q20-6 39.5-19.5t32.5-29q13-15.5 13-26.5v-17zm0-73q-34-43-83-67-4-2-8.5-1T39 51q-14 29-14 60 2 25 20.5 42.5t44.5 18q26 .5 48-13.5v-44zm125 119q-1-12-6.5-23.5T242 190q-16 6-32 6-25 0-48-9v17q1 11 13.5 26.5t32 29Q227 273 247 279q15-21 16-46zm12-122q0-31-14-60-2-4-6.5-5t-9.5 1q-49 24-83 67v44q22 14 48 12 17 1 31.5-7t23.5-21.5q9-13.5 10-30.5zM150 58q10 0 17.5-7.5t7.5-18q0-10.5-7.5-17.5T150 8q-10 0-17.5 7T125 32.5q0 10.5 7.5 18T150 58z"/></svg>