<svg viewBox="0 0 300 311" xmlns="http://www.w3.org/2000/svg"><path d="M75 208h150L150 79 75 208zm88-13h-25v-25h25v25zm0-37h-25v-38h25v38zm97 0q0-9-1-18l40-23-37-65-39 22q-16-14-36-21V8h-74v43q-21 7-38 22L38 52 1 117l37 21q-2 10-2 20t2 20L1 199l37 65 37-21q17 14 37 21v44h76v-45q19-7 35-21l39 22 37-65-40-23q1-9 1-18zm5 50l-12 22-35-19-7 7q-16 17-39 24l-9 2v39h-25v-38l-10-2q-24-6-42-24l-7-7-32 18-12-22 32-17-3-10q-3-11-3-23t3-23l2-10-31-17 12-22 32 18 7-7q17-18 42-24l10-2V33h25v38l9 3q23 6 40 24l6 7 35-19 12 22-35 19 3 9q2 11 2 22t-2 21l-3 10 35 19z"/></svg>