<svg viewBox="0 0 300 311" xmlns="http://www.w3.org/2000/svg"><path d="M150 39q0-13 9-22t22-9q13 0 22.5 9t9 22q-.5 13-9.5 22.5t-22 9q-13-.5-22-9.5t-9-22zM44 133q13 0 22-9t9-22q0-13-9-22.5T44 70q-13 0-22 9.5T12.5 102q-.5 13 9 22t22.5 9zm256 27v28L128 308H88v-50H37v32l-6 18H5l8-24V183q0-12 6-21.5T36 148l71-14 41-39q11-12 27-12h63V8h12l50 31-37 24v45h-50v62h25v33l62-43zm-137 95l50-34v-25h-50v59zm0-134v50h25v-63h-13q-5 0-9 3.5t-3 9.5zM38 233h25v-65l-18 4q-7 3-8 11v50h1zm100 40V140l-18 17-32 6v70h25v57l25-17z"/></svg>