<svg viewBox="0 0 300 311" xmlns="http://www.w3.org/2000/svg"><path d="M274 34q-15-15-35.5-21.5t-42.5-4q-22 2.5-43 13T116 49Q96 68 85.5 94T76 148q0 10 1 14 2 19 0 34-2 20-11 28L1 290l17 17 66-65q9-9 29-11 15-2 33 0 10 2 21 2 26-1 50-11.5t42-29.5q24-23 34-52.5t5.5-58Q294 53 274 34zm-6 102l-19-19 26-25q2 23-7 44zm-2-71l-35 35-24-24 35-35q8 4 14 10.5T266 65zM119 189q-7-6-11-14l38-38 24 25-38 37q-7-4-13-10zm-10-88l19 19-27 27q-2-24 8-46zm54 19l27-27 24 24-27 27-24-24zm36-86q5-1 10-1h5l-24 25-18-18q13-5 27-7v1zm-50 19l23 23-26 26-23-23q11-15 26-26zm14 155q-2 0-4-1l28-28 20 20q-21 10-44 9zm66-22l-24-24 27-27 23 24q-11 15-26 27z"/></svg>