<svg viewBox="0 0 300 311" xmlns="http://www.w3.org/2000/svg"><path d="M81 245q0 8-5.5 13.5t-13 5.5q-7.5 0-13-5.5t-5.5-13q0-7.5 5.5-13t13-5.5q7.5 0 13 5.5T81 246v-1zM300 95q0 12-6.5 19t-17.5 7h-62l18 17-18 18-22-22-16 16 32 31-18 18-32-32-17 18 41 41-18 18-41-42-13 14q22 26 30 60l2 10-9 4q-42 18-120 18H0v-12q0-79 18-121l4-9 10 2q34 8 60 30l14-13-42-41 18-18 41 41 18-17-32-32 18-18 31 32 16-16-22-22 18-18 18 18V32q0-11 6.5-17.5T213 8q15 0 28 9 16 11 20 30 19 4 30 20 9 13 9 28zM113 271q-9-27-29-47t-47-29q-11 33-12 88 56-1 88-12zM275 95q0-5-4-12-6-13-21-13h-12V58q-1-15-13-21-6-4-12-4v62h62z"/></svg>