<svg viewBox="0 0 300 311" xmlns="http://www.w3.org/2000/svg"><path d="M163 58h-25V8h25v50zm25 5q15 7 25 20V8h-25v55zm12 57v150q0 16-11 27t-26 11H38q-16 0-27-11T0 270V120q0-15 11-26t27-11h125q15 0 26 11t11 26zm-25 0q0-5-3.5-8.5T162 108H38q-6 0-9.5 3.5T25 121v149q0 6 3.5 9.5T37 283h126q5 0 8.5-3.5t3.5-8.5V120zM50 258h25v-25H50v25zm38 0h25v-25H88v25zm37 0h25v-25h-25v25zm-75-50h25v-25H50v25zm38 0h25v-25H88v25zm37 0h25v-25h-25v25zm-75-50h100v-25H50v25zM125 8H88v50h37V8zm100 175h25V8h-25v175zM263 8v175h37V8h-37z"/></svg>