<svg viewBox="0 0 300 311" xmlns="http://www.w3.org/2000/svg"><path d="M94 295q-1 1-2 1l-6 3-20 6q-8 3-16 3-10 0-19-4t-16-11Q0 279 0 258q0-26 6-52l23-100q5-21 22-34.5T90 58h22v25H90q-13 0-23.5 8T53 112l-23 99q-5 23-5 47 0 10 7.5 17.5T50 283q4 0 8-1l3-1q13 14 33 14zm112-25q-8 0-13.5-5t-5.5-13l1-1-8-8q-8 5-17 7v20h-25v-20q-10-2-18-7l-8 8v1q0 8-5 13t-13 5q-8 0-13.5-5T75 252q0-8 5.5-13.5T94 233h1l7-8q-5-8-7-17H75v-25h20q2-9 7-17l-7-8h-1q-8 0-13.5-5.5T75 139q0-8 5.5-13.5T94 120q8 0 13.5 5.5T113 139l-1 1 8 8q8-5 18-7v-21h25v21q9 2 17 7l8-8-1-1q0-8 5.5-13.5T206 120q8 0 13.5 5.5T225 139q0 8-5.5 13.5T206 158h-1l-7 8q5 8 7 17h20v25h-20q-2 9-7 17l7 8h1q8 0 13.5 5.5T225 252q0 8-5.5 13t-13.5 5zm-56-43q13 0 22-9.5t9-22q0-12.5-9-22t-22-9.5q-13 0-22 9.5t-9 22q0 12.5 9 22t22 9.5zM163 8h-25v87h25V8zm131 198l-23-100q-5-21-22-34.5T210 58h-22v25h22q13 0 23.5 8t13.5 21l23 99q5 23 5 47 0 10-7.5 17.5T250 283q-4 0-8-1l-3-1q-13 14-33 14l8 4 20 6q8 3 16 3 10 0 19-4t16-11q15-14 15-35 0-26-6-52z"/></svg>