<svg viewBox="0 0 300 311" xmlns="http://www.w3.org/2000/svg"><path d="M300 45v163h-25V45q0-5-3.5-8.5T263 33H38q-6 0-9.5 3.5T25 45v238h175v25H0V45q0-15 11-26T38 8h225q15 0 26 11t11 26zm-75 113h25q0-27-13.5-50T200 71.5Q177 58 150 58t-50 13.5Q77 85 63.5 108T50 158q0 27 13.5 50t36.5 36.5q23 13.5 50 13.5v-25q-20 0-37.5-10T85 195.5Q75 178 75 158t10-37.5Q95 103 112.5 93T150 83q20 0 37.5 10t27.5 27.5q10 17.5 10 37.5zm-94 0q0 8 5.5 13.5T150 177q8 0 13.5-5.5T169 158q0-8-5.5-13.5T150 139q-8 0-13.5 5.5T131 158zm119 25h-25v50h-50v25h50v50h25v-50h50v-25h-50v-50z"/></svg>