<svg viewBox="0 0 300 311" xmlns="http://www.w3.org/2000/svg"><path d="M300 83v153l-11-5-14-29V83q0-6-4.5-9.5t-9.5-3q-5 .5-8 4.5t-3 9v61h-25V58q0-5-3.5-9t-9-4q-5.5 0-9 4t-3.5 9v87h-25V45q0-5-3.5-8.5t-9-3.5q-5.5 0-9 3.5T150 45v100h-25V72q0-5-3-9t-8-5q-5-1-9.5 3t-4.5 9v159l-53-42q-5-4-10-4t-8.5 4q-3.5 4-3.5 9t4 9l81 78h84l29 14 5 11H100l-88-85Q1 212 .5 196.5t10-26.5q10.5-11 26-11.5T63 168l12 10V70q0-17 13-28t31-8q4 0 7 2 4-12 14-20t23-8q9 0 17.5 4.5T194 25q9-5 19-4 12-1 22 7t14 20q3-1 7-2 18-3 31 8.5T300 83zm-119 94l-12 25-25 12 25 13 12 25 13-25 25-13-25-12-13-25zM31 120l11-20 21-11-21-10-11-21-10 21L0 89l21 11 10 20zm225 100l-14 30-29 14 29 15 14 29 15-29 29-15-29-14-15-30z"/></svg>