<svg viewBox="0 0 300 311" xmlns="http://www.w3.org/2000/svg"><path d="M124 180l-5-53h13l4 40 15-30 15 30 3-40h13l-5 53q0 4-2.5 7t-6.5 3q-4 0-7-5l-10-20-11 20q-2 5-6.5 5t-7-3q-2.5-3-2.5-7zm83 10q5 0 8-5l10-20 10 20q3 5 7 5t6.5-3q2.5-3 3.5-7l4-53h-13l-3 40-15-30-15 30-3-40h-13l4 53q1 4 3.5 7t5.5 3zM48 180q1 4 3.5 7t6.5 3q4 0 7-5l10-20 10 20q3 5 7 5t6.5-3q2.5-3 3.5-7l4-53H93l-3 40-15-30-15 30-3-40H44l4 53zm252-22q0 41-20 75.5T225.5 288Q191 308 150 308t-75.5-20Q40 268 20 233.5T0 158q0-41 20-75.5T74.5 28Q109 8 150 8t75.5 20Q260 48 280 82.5t20 75.5zM183 37q17 23 29 46h38q-13-17-30-28.5T183 37zm-33 1q-20 21-34 45h68q-14-24-34-45zM50 83h38q12-23 29-46-20 6-37 17.5T50 83zm-25 75q0 26 11 50h228q11-24 11-50t-11-50H36q-11 24-11 50zm91 75q14 24 34 45 20-21 34-45h-68zm1 46q-17-23-29-46H50q13 17 30 28.5t37 17.5zm133-46h-38q-12 23-29 46 20-6 37-17.5t30-28.5z"/></svg>