<svg viewBox="0 0 300 311" xmlns="http://www.w3.org/2000/svg"><path d="M273 133h-17q-2 7-6 14l11 61h-65l-12 11 8 64h-84l8-64-12-11H39l11-61-6-14H27L0 287v21h300v-19l-27-156zM83 283H26l9-50h53l-5 50zm134 0l-5-50h53l9 50h-57zm-67-65l62-61q12-12 19-28t6.5-33.5q-.5-17.5-7-33.5t-19-28.5q-12.5-12.5-28-19T150 8q-18 0-33.5 6.5T88 34Q71 50 65.5 73t0 45.5Q71 141 88 157l62 61zM106 51q18-18 44-18t44.5 18.5Q213 70 213 95.5T194 140l-44 43-44-43q-12-12-16.5-28t0-32.5Q94 63 106 51zm6 44q0-15 11-26t27-11q16 0 26.5 11T187 95.5q0 15.5-10.5 26.5T150 133q-16 0-27-11t-11-27z"/></svg>