<svg viewBox="0 0 312 311" xmlns="http://www.w3.org/2000/svg"><path d="M96 183l-71 42-13-21 49-29q-3-8-4-17H0v-25h57q1-9 4-17L12 87l13-22 49 29q5-6 12-12L57 33l22-13 29 50q8-3 17-5V8h25v57q8 2 16 5l29-50 22 13-29 49q7 6 12 12l50-29 12 22-49 29q2 6 3 11-14-5-28-6-8-15-21.5-23.5T137 89q-16 0-30 9t-21 23.5Q79 136 81 152t12 29l3 2zm204 62q-1 17-9 31.5t-22.5 23Q254 308 237 308H125q-19 0-33.5-12.5T75 264q-2-19 8.5-34.5T112 210q2-24 17-41.5t38-22q23-4.5 44 5.5t31 31q24 2 40.5 20t17.5 42zm-25 0q0-15-11-26t-27-11h-12l-3-8q-5-15-19-23.5t-29.5-5.5q-15.5 3-26 15T137 214l2 19h-14q-7 0-13 3.5t-9 9q-3 5.5-3 12.5t3 12.5q3 5.5 9 9t13 3.5h112q16 0 27-11t11-26v-1z"/></svg>