<svg viewBox="0 0 300 311" xmlns="http://www.w3.org/2000/svg"><path d="M138 133h25v112h-25V133zm0 162h25v-25h-25v25zm84-197q-7-34-34.5-55.5T125 21q-27-1-50 12.5T38.5 70Q25 93 25 120q0 25 11 46-16 9-26 25.5t-10 35Q0 245 9.5 261t25 25q15.5 9 34.5 9h44v-25H69q-18 0-31-12.5T25 227q0-15 9-27t24-16l18-4-11-15q-15-20-15-45 0-20 10-37t27.5-27.5Q105 45 125 45q28 0 49.5 19t24.5 46l2 10 9 1q28 4 46.5 25t18.5 49q0 21-10 38t-27.5 27Q220 270 200 270h-12v25h12q27 0 50-13t36.5-36q13.5-23 13.5-51 0-34-22-61.5T222 98z"/></svg>