<svg viewBox="0 0 300 311" xmlns="http://www.w3.org/2000/svg"><path d="M275 8h-50v25h32l-30 30q-21-16-47-17.5T131 57q-23-13-49-11T35 63.5Q14 79 5 104t-2 51q7 26 26.5 43.5T75 219v26H38v25h37v38h25v-38h38v-25h-38v-25q17-3 31-11 27 15 58 10.5t51.5-28q20.5-23.5 22-54.5T245 81l30-30v32h25V33q0-10-7.5-17.5T275 8zM25 133q0-15 7-29t20-22.5Q65 73 80 71t30 4q-15 16-20 37t0 42q5 21 20 37-15 6-30 4t-28-10.5Q39 176 32 162t-7-29zm150 62q-17 0-31.5-8T121 164.5q-8-14.5-8-31.5t8-31.5q8-14.5 22.5-23t31.5-8q17 .5 31.5 8.5t23 22.5q8.5 14.5 8 31.5t-8.5 31.5q-8 14.5-22.5 22.5t-31.5 9v-1z"/></svg>