<svg viewBox="0 0 300 311" xmlns="http://www.w3.org/2000/svg"><path d="M13 86Q0 73 0 54t13.5-32.5Q27 8 46 8t32 13l54 55-17 17-54-54q-6-6-15-6t-15 6q-6 6-6 15t6 15l54 54-17 17-55-54zm137 137q0 15-5 28.5T130 276q-16 15-61 24-27 5-55 7l-14 1 1-14q2-28 7-55 9-45 24-61 11-10 24.5-15t28.5-5L222 22q13-14 32-14t32.5 13.5Q300 35 300 54t-13 32L150 223zm-37-57q9 5 16.5 12.5T142 196L269 69q6-6 6-15t-6-15q-6-6-15-6t-15 6L113 166zm-1 30q-13-13-31-13t-31 13q-8 8-15 35-5 22-8 50 28-3 50-8 27-7 35-15 13-13 13-31t-13-31zm120-20l-17 17 60 60v30h-29l-61-60-17 17 67 68h65v-65l-68-67z"/></svg>