<svg viewBox="0 0 300 311" xmlns="http://www.w3.org/2000/svg"><path d="M299 180L278 40q-2-14-12.5-23T241 8h-41v25h41q5 0 8.5 3t3.5 8l19 126h-60q-13 0-24.5 7T169 195h-38q-7-11-18.5-18T87 170H28L47 44q0-5 3.5-8t8.5-3h41V8H59q-14 0-24.5 9T22 40L1 180q-1 8-1 17v61q0 21 14.5 35.5T50 308h38q20 0 35-14.5t14-35.5v-38h26v38q-1 21 14 35.5t36 14.5h37q21 0 35.5-14.5T300 258v-61q0-9-1-17zm-186 78q0 10-7.5 17.5T87 283H50q-10 0-17.5-7.5T25 258v-62h62q11-1 18 6.5t7 18.5v37h1zm162 0q0 10-7.5 17.5T250 283h-37q-11 0-18.5-7.5T187 258v-38q0-10 7.5-17.5T212 195h63v63z"/></svg>