<svg viewBox="0 0 300 311" xmlns="http://www.w3.org/2000/svg"><path d="M300 291q-7 8-17 12.5t-20.5 4.5q-10.5 0-20.5-4.5T225 291q-7 8-17 12.5t-20.5 4.5q-10.5 0-20.5-4.5T150 291q-7 8-17 12.5t-20.5 4.5q-10.5 0-20.5-4.5T75 291q-7 8-17 12.5T37.5 308Q27 308 17 303.5T0 291l19-17q5 6 12.5 8t15-.5q7.5-2.5 11.5-9t5-14.5h25q0 10 7 17.5t17.5 7.5q10.5 0 17.5-7.5t7-17.5h26q-1 10 6.5 17.5t18 7.5q10.5 0 17.5-7.5t7-17.5h26q0 8 4 14.5t11.5 9q7.5 2.5 15 .5t12.5-8l19 17zM150 154q-17 0-31.5 8.5t-22.5 23Q88 200 88 217v16h25v-16q0-16 10.5-27t26.5-11q16 0 27 11t11 27v16h25v-16q-1-17-9-31.5t-22.5-23Q167 154 150 154zM25 233v-88L150 33l125 112v88h25v-99L167 14q-7-6-17-6t-17 6L0 134v99h25z"/></svg>