<svg viewBox="0 0 300 311" xmlns="http://www.w3.org/2000/svg"><path d="M213 270q-14 0-33-4-11-2-32.5-8t-31.5-9q-17-4-28-4-22 0-47 8-13 5-23 9l-18 8V97q0-10 5.5-19T20 64q36-19 68-19 13 0 30 5 10 2 30 9 18 6 26 8 15 3 26 3t24-2q7-2 19-6l10-3q9-2 17-.5t15 7q7 5.5 11 13.5t4 16v154l-7 3q-11 5-26 10-30 8-54 8zM88 220q13 0 32 5 11 2 32.5 8t31.5 9q17 4 29 4 28 0 62-13V95q0-6-5-9.5T260 83l-10 3q-13 4-21 6-15 4-29 3.5T169 91q-10-2-29-9-18-6-27-8-14-4-25-4-25 0-56 16-7 4-7 11v135q34-12 63-12zM63 95q-6 0-9.5 4t-3.5 9q0 5 3.5 8.5t9 3.5q5.5 0 9-3.5T75 108q0-5-3.5-8.5T63 96v-1zm162 38q0 5 3.5 8.5t9 3.5q5.5 0 9-3.5t3.5-8.5q0-5-3.5-9t-9-4q-5.5 0-9 4t-3.5 9zM63 170q-6 0-9.5 4t-3.5 9q0 5 3.5 8.5t9 4q5.5.5 9-3.5t3.5-9q0-5-3.5-9t-8.5-4zm162 38q0 5 3.5 8.5t9 3.5q5.5 0 9-3.5t3.5-8.5q0-5-3.5-8.5t-9-4q-5.5-.5-9 3.5t-3.5 9zm-73-96l-36 37 18 18 16-17v57l25 7v-96l-23-6z"/></svg>