<svg viewBox="0 0 300 311" xmlns="http://www.w3.org/2000/svg"><path d="M262 117q-13-11-31-8-10 1-18 9-11-10-26-10-9 0-17.5 5T156 126l-1-2 30-63q7-16-.5-31.5T160 9q-13-3-25.5 3T116 31l-3 7-3-6q-6-13-18.5-19.5T66 9q-17 5-24.5 20.5T41 61l30 63-19 38-29 29q-10 11-10 26.5T23 244l65 64h187V145q0-17-13-28zm-87 28q0-5 3.5-8.5t9-3.5q5.5 0 9 3.5t3.5 9.5v24q0 6-3.5 9.5t-9 3.5q-5.5 0-9-3.5T175 170v-25zM139 42q2-5 6.5-7.5t9.5-1q5 1.5 7.5 6.5t-.5 10l-49 103q-10-9-23-10l49-101zm-75 9q-3-6-.5-11t7.5-6.5q5-1.5 9.5 1T87 42l12 24-14 30-21-45zm34 232l-57-57q-3-3-3-8.5t3-8.5l38-38q3-3 8.5-3t9 3.5q3.5 3.5 3.5 8.5t-4 9l-28 28 18 18 28-28q7-7 10-17l17-37 9 19q1 15 11.5 25.5T187 208q15 0 25-10 11 10 25 10 7 0 13-2v77H98zm140-100q-6 0-9.5-3.5T225 170v-23q0-5 3-9t8-5q5-1 9.5 3t4.5 9v25q0 6-3.5 9.5T237 183h1z"/></svg>