<svg viewBox="0 0 300 311" xmlns="http://www.w3.org/2000/svg"><path d="M188 252q0 8-5.5 13t-13.5 5q-8 0-13.5-5t-5.5-13q0-8 5.5-13.5T169 233q8 0 13.5 5.5T188 252zm-69-19q-8 0-13.5 5.5T100 252q0 8 5.5 13t13.5 5q8 0 13.5-5t5.5-13q0-8-5.5-13.5T119 233zm181-100v75h-50v-75h13V45q0-5-4-8.5t-9-3.5H138q-6 0-9.5 3.5T125 46v12h63q15 0 26 11t11 26v213H0V95q0-15 11-26t27-11h62V45q0-15 11-26t26-11h113q16 0 27 11t10 27v87h13zM200 283v-63H25v63h175zM38 83q-6 0-9.5 3.5T25 96v99h175V95q0-5-3.5-8.5T187 83H38z"/></svg>