<svg viewBox="0 0 300 311" xmlns="http://www.w3.org/2000/svg"><path d="M213 219q-5-12-15-21 14-17 14-40 0-17-8-31.5T181.5 104Q167 96 150 96t-31.5 8q-14.5 8-23 22.5T87 158q0 23 15 40-10 9-14 21-12-12-19-27.5T62 158q0-24 12-44t32-31.5Q126 71 150 71t44 11.5Q214 94 225.5 114t11.5 44q0 17-6.5 33T213 219zM150 8q-41 0-75.5 20T20 82.5Q0 117 0 158q0 47 27 85.5T97 298l-7-30q-29-16-47-45.5t-18-64q0-34.5 17-63T87.5 50Q116 33 150 33t62.5 17Q241 67 258 95.5t17 63q0 34.5-17.5 63.5T210 268l-6 30q42-16 69-54.5t27-85.5q0-41-20-75.5T225.5 28Q191 8 150 8zm40 232l-14 68h-51l-15-67q-2-9 2.5-17t13.5-11q16-5 24.5-5t23.5 5q9 3 13.5 10.5T190 240zm-25-3q-11-4-15-4t-15 4l10 46h11l9-46zm-15-54q10 0 17.5-7.5T175 158q0-10-7.5-17.5T150 133q-10 0-17.5 7.5T125 158q0 10 7.5 17.5T150 183z"/></svg>