<svg viewBox="0 0 300 311" xmlns="http://www.w3.org/2000/svg"><path d="M263 45H38q-16 0-27 11T0 83v25q0 16 11 26.5T38 145h225q15 0 26-10.5t11-26.5V83q0-16-11-27t-27-10l1-1zM25 108V83q0-5 3.5-8.5T38 71h137v49H38q-6 0-9.5-3.5T25 108zm250 0q0 5-3.5 8.5T262 120h-62V70h63q5 0 8.5 4t3.5 9v25zm-12 62H38q-16 0-27 11T0 208v25q0 16 11 27t27 11h225q15-1 26-11.5t11-26.5v-25q0-16-11-26.5T262 170h1zM25 233v-25q0-5 3.5-8.5T38 196h62v49H38q-6 0-9.5-3.5T25 233zm250 0q0 5-3.5 8.5T262 245H125v-50h138q5 0 8.5 4t3.5 9v25z"/></svg>