<svg viewBox="0 0 300 311" xmlns="http://www.w3.org/2000/svg"><path d="M118 65l-18-17 32-33q8-7 18-7t18 7l32 33-18 17-19-20v63h-25V45l-20 20zM68 78q-8-7-18-7t-18 7L0 110l18 18 20-20v200h25V108l19 20 18-18-32-32zm200 37q-8-7-18-7t-18 7l-32 33 18 17 20-20v163h25V145l19 20 18-17-32-33zm-130 68h25q5 0 8.5 3.5t3.5 9.5h25q0-16-11-27t-26-11v-25h-25v25q-16 0-27 11t-11 26q0 13 8 23t21 12l38 6q3 1 5.5 3.5t2.5 7q0 4.5-3.5 8T162 258h-24q-6 0-9.5-3.5T125 246h-25q0 15 11 26t26 11v25h26v-25q15 0 26-11t11-26q0-13-8-23t-21-12l-38-6q-3-1-5.5-3.5t-2.5-7q0-4.5 3.5-8t8.5-3.5h1z"/></svg>