<svg viewBox="0 0 300 311" xmlns="http://www.w3.org/2000/svg"><path d="M300 183q0-17-13-28v-35q0-30-15-56t-40.5-41Q206 8 175 8h-50Q94 8 68.5 23T28 64q-15 26-15 57v34Q0 166 0 183v2q0 17 13 28v45q0 21 14.5 35.5T62 308h176q20 0 35-14.5t15-35.5v-47q12-11 12-28zM38 120q0-23 11.5-43T81 45q20-12 44-12h50q24 0 44 12t31.5 32Q262 97 262 121v25H38v-26zm225 76h-50q-25 0-48.5 8.5T122 229q-4 4-9.5 4t-9.5-4q-30-25-68-32-5-1-7.5-4t-2.5-8v-2q0-5 3.5-8.5T37 171h226q5 0 8.5 3.5t3.5 8.5q0 5-3.5 9t-8.5 4zm0 62q-1 10-8 17.5t-18 7.5H63q-11 0-18-7.5T38 258v-34q27 6 48 24 12 10 26.5 10t26.5-10q15-13 34-20t40-7h50v37zM138 70q0 6-4 9.5t-9 3.5q-5 0-8.5-3.5t-3.5-9q0-5.5 3.5-9T125 58q5 0 9 3.5t4 8.5zm-38 38q0 5-3.5 8.5t-9 4q-5.5.5-9-3.5t-3.5-9q0-5 3.5-9t9-4q5.5 0 9 4t3.5 9z"/></svg>