<svg viewBox="0 0 300 311" xmlns="http://www.w3.org/2000/svg"><path d="M281 187l19 16q-7 9-17 13.5t-20.5 4q-10.5-.5-20.5-5T225 203q-7 8-17 13t-20.5 5q-10.5 0-20.5-5t-17-13q-7 8-17 13t-20.5 5q-10.5 0-20.5-5t-17-13q-7 8-17 12.5t-20.5 5q-10.5.5-20.5-4T0 203l19-16q5 6 12.5 8t15-1q7.5-3 11.5-9.5t5-14.5h25q0 11 7 18t17.5 7q10.5 0 17.5-7t7-18h26q0 11 7 18t17.5 7q10.5 0 17.5-7t7-18h26q0 8 4 14.5t11.5 9.5q7.5 3 15 1t12.5-8zm-18 83q-11 0-18.5-7t-6.5-17h-25q-1 10-8 17t-17.5 7q-10.5 0-17.5-7t-7-17h-25q0 10-7.5 17t-18 7q-10.5 0-17.5-7t-7-17H63q-1 7-5 13.5T46.5 269q-7.5 3-15 1T19 262L0 278q7 9 17 13.5t20.5 4q10.5-.5 20.5-5T75 278q7 8 17 13t20.5 5q10.5 0 20.5-5t17-13q7 8 17 13t20.5 5q10.5 0 20.5-5t17-13q7 8 17 12.5t20.5 5q10.5.5 20.5-4t17-13.5l-19-16q-7 8-19 8h1zm0-150q-11 0-18-7t-7-18h-25q0 11-7.5 18t-18 7q-10.5 0-17.5-7t-7-18h-25q0 11-7.5 18t-18 7q-10.5 0-17.5-7t-7-18H63q-1 8-5 14.5T46.5 119q-7.5 3-15 1T19 112L0 128q7 9 17 13.5t20.5 4q10.5-.5 20.5-5T75 128q7 8 17 13t20.5 5q10.5 0 20.5-5t17-13q7 8 17 13t20.5 5q10.5 0 20.5-5t17-13q7 8 17 12.5t20.5 5q10.5.5 20.5-4t17-13.5l-19-16q-7 8-18 9v-1zM75 53q7 8 17 13t20.5 5q10.5 0 20.5-5t17-13q7 8 17 13t20.5 5q10.5 0 20.5-5t17-13q7 8 17 12.5t20.5 4.5q10.5 0 20.5-4t17-13l-19-16q-5 6-12.5 8t-15-1q-7.5-3-11.5-9.5T238 21h-25q0 10-7.5 17t-18 7Q177 45 170 38t-7-17h-25q-1 10-8 17.5t-17.5 7Q102 45 95 38t-7-17H63q-1 7-5 13.5T46.5 44q-7.5 3-15 1T19 37L0 53q7 9 17 13t20.5 4Q48 70 58 65.5T75 53z"/></svg>