<svg viewBox="0 0 300 311" xmlns="http://www.w3.org/2000/svg"><path d="M256 133l-66-70q-8 11-20 16l51 54H79l51-54q-12-5-20-16l-66 70q-18 0-31 13T0 177v131h300V177q0-18-13-31t-31-13zM75 227h-1l14 43H66l-11-37H45v37H25V170h31q13 0 22 9.5t9 22.5q1 8-3 14.5T74 227h1zm63-37h-18v20h18v21h-18v20h18v20h-38V171h38v20-1zm75 80h-20l-23-50v50h-20V170h20l23 51v-51h20v101-1zm62-80h-15v80h-20v-80h-15v-20h50v20zM68 202q0 4-3.5 7.5T56 213H45v-23h11q5 0 8 3.5t3 8.5h1zm57-169q0-10 7.5-17.5T150 8q10 0 17.5 7.5T175 33q0 10-7.5 17.5T150 58q-10 0-17.5-7.5T125 33z"/></svg>