<svg viewBox="0 0 300 311" xmlns="http://www.w3.org/2000/svg"><path d="M300 170v-25h-26q-2-21-11-40.5t-24.5-35Q223 54 203.5 45T162 34V8h-24v26q-38 3-67 27L18 9 1 26l281 281 17-17-52-53q24-29 27-67h26zm-116 4l-50-50q10-5 22-3t21 10q10 11 10 27 0 9-3 16zm45 45l-27-27q10-15 10-34 1-26-18-44-16-16-38-18t-40 10L89 79q19-15 43-19.5t47.5 3Q203 70 221 87q14 14 21.5 32.5T250 158q0 34-21 61zm-79 1q-12 0-23.5-4.5T106 202q-19-18-18-44v-9l71 71h-9zm58 49q-22 11-45 13v26h-25v-26q-22-2-41.5-11t-35-24.5Q46 231 37 211.5T26 171H0v-26h26q2-23 13-45l19 19q-8 19-8 39t7.5 38.5Q65 215 79 229q22 22 52 27.5t58-6.5l19 19z"/></svg>