<svg viewBox="0 0 300 311" xmlns="http://www.w3.org/2000/svg"><path d="M250 158q-12 0-22.5 5T210 178l-1-1q6-16 2-32.5t-15.5-29Q184 103 167.5 98T134 97l-1-2q14-12 16.5-31t-8-34.5q-10.5-15.5-29-20t-35.5 4q-17 8.5-23.5 26t0 35.5q6.5 18 23 27t34.5 5l1 1q-20 15-24 39.5T98 192l-24 22q-16-9-34.5-5t-30 19.5Q-2 244 0 262.5T15.5 294Q29 307 48 308t33.5-11Q96 285 99 266t-7-35l23-21q20 13 43.5 10t38.5-21l4 2q-3 15 4 29t21 21.5q14 7.5 29.5 6T283 246q12-10 15.5-25.5t-2-30q-5.5-14.5-18-23.5t-28.5-9zM75 58q0-10 7.5-17.5T100 33q10 0 17.5 7.5T125 58q0 10-7.5 17.5T100 83q-10 0-17.5-7.5T75 58zM50 283q-10 0-17.5-7.5T25 258q0-10 7.5-17.5T50 233q10 0 17.5 7.5T75 258q0 10-7.5 17.5T50 283zm100-88q-13 0-22.5-7.5t-13-19.5q-3.5-12 .5-23.5t15-18.5l5-2q11-5 22-3t19 10q8 8 10.5 19.5t-2 22q-4.5 10.5-14 17T150 196v-1zm100 38q-10 0-17.5-7.5T225 208q0-10 7.5-17.5T250 183q10 0 17.5 7.5T275 208q0 10-7.5 17.5T250 233z"/></svg>