<svg viewBox="0 0 300 311" xmlns="http://www.w3.org/2000/svg"><path d="M258 108q5-9 5-19 0-18-13-31t-31-13h-22q-9-15-23.5-26T144 8h-13v12q0 15-4 25H81q-18 0-30.5 13T38 89q-1 10 4 19-18 1-30 13.5T0 152q0 15 9.5 26.5T33 194l11 27q11 18 26 27 14 7 33 9 11 1 35 1v25H88v25h125v-25h-50v-25h13q28 0 44-6 22-8 36-31l11-27q14-3 23.5-15t9.5-27q0-18-12-30.5T258 108zm-24 101q-7 11-16 16.5t-23 6.5q-9 1-31 1h-28q-22 0-31-1-14-1-23-6.5T66 209l-5-14h178l-5 14zm22-39H44q-8 0-13.5-5.5t-5.5-13q0-7.5 5.5-13T44 133h119v-25H81q-8 0-13-5.5T63 89q0-8 5-13.5T81 70h60l4-5q8-13 10-28 7 3 13 10.5T178 63l3 7h38q8 0 13.5 5.5t5 13.5q-.5 8-5.5 13.5t-13 5.5h-6v25h43q8 0 13.5 5.5t5.5 13q0 7.5-5.5 13T256 170z"/></svg>