<svg viewBox="0 0 300 311" xmlns="http://www.w3.org/2000/svg"><path d="M300 170q0-15-11-26t-27-11h-16q-8-22-27.5-36T175 83q-24 0-43.5 14T104 133H38q-16 0-27 11T0 170v113h38v25h25v-25h175v25h25v-25h37V170zm-125-62q21 0 35.5 14.5T225 158q0 21-14.5 35.5T175 208q-21 0-35.5-14.5T125 158q0-21 14.5-35.5T175 108zm100 150H25v-88q0-5 3.5-8.5T37 158h63q0 20 10 37.5t27.5 27.5q17.5 10 37.5 10t37.5-10q17.5-10 27.5-27.5t10-37.5h13q5 0 8.5 3.5t3.5 9.5v87zM88 202q0 8-5.5 13.5t-13.5 5q-8-.5-13.5-5.5T50 202q0-8 5.5-13.5T69 183q8 0 13.5 5.5T88 202zM188 58h-25V8h25v50zm48 20l-22-13 25-43 22 12-25 44zm-122 0L89 34l22-12 25 43-22 13z"/></svg>