<svg viewBox="0 0 300 311" xmlns="http://www.w3.org/2000/svg"><path d="M300 170q0-15-11-26t-26-11h-6l-59-84q-5-7-13.5-11.5T167 33H80q-12 0-21.5 6.5T45 57l-33 86Q0 154 0 170v63h25v6q0 18 13 31t31 13q18 0 31-13t13-31v-6h75v6q0 18 12.5 31t30.5 13q18 0 31-13t13-31v-6h25v-63zM88 239q0 8-5.5 13.5T69 258q-8 0-13.5-5.5T50 239v-6h38v6zm162 0q0 8-5.5 13.5T231 258q-8 0-13-5.5t-5-13.5v-6h37v6zm25-31H25v-38q0-5 3.5-8.5T37 158h26v-25H43l25-67q1-4 4.5-6t7.5-2h87q7 0 11 5l48 70h-38v25h75q5 0 8.5 4t3.5 8v38zm-115-77q3 5 2.5 10t-2.5 10l-22 44-23-11 19-39h-26q-10 0-16.5-8T88 119l28-52 22 12-22 41h26q6 0 10.5 3t7.5 8z"/></svg>