<svg viewBox="0 0 300 311" xmlns="http://www.w3.org/2000/svg"><path d="M293 210l-20-31-21 14 21 31q4 7 0 14.5t-13 7.5h-99l18-18-17-18-32 32q-7 7-7 17.5t7 17.5l32 31 17-18-19-19h100q11 0 20.5-5.5t14.5-15q5-9.5 4.5-20.5t-6.5-20zM147 46q8 0 12 6l54 81-28-5-5 24 46 9q10 2 18.5-4t10.5-16l9-46-25-4-5 28-54-81q-5-8-14-12.5T147 21q-10 0-19 5t-14 13L98 64l21 13 16-24q4-7 12-7zm-66 93l5 29 25-5-9-46q-2-10-10.5-16T73 97l-45 9 4 25 28-6-54 86q-6 9-6 19.5t5 20q5 9.5 14.5 15T40 271h48v-26H40q-9 1-13-6.5t0-14.5l54-85z"/></svg>