<svg viewBox="0 0 300 311" xmlns="http://www.w3.org/2000/svg"><path d="M225 83h25v97l-26 52-23-11 24-47V83zm-25 75q0 20-10 37.5T162.5 223Q145 233 125 233t-37.5-10Q70 213 60 195.5T50 158q0-20 10-37.5T87.5 93Q105 83 125 83t37.5 10q17.5 10 27.5 27.5t10 37.5zm-25 0q0-21-14.5-35.5T125 108q-21 0-35.5 14.5T75 158q0 21 14.5 35.5T125 208q21 0 35.5-14.5T175 158zm125-88v213H0V70q0-15 11-26t27-11h225q15 0 26 11t11 27v-1zm-25 0q0-5-3.5-8.5T263 58H38q-6 0-9.5 3.5T25 71v187h250V70zm-150 69q-8 0-13.5 5.5T106 158q0 8 5.5 13.5T125 177q8 0 13.5-5.5T144 158q0-8-5.5-13.5T125 139z"/></svg>