<svg viewBox="0 0 300 311" xmlns="http://www.w3.org/2000/svg"><path d="M263 195h-13v-56q0-13-9-22t-22-9h-13V52q0-13-9-22t-22-9h-50q-13-1-22 8.5T94 52v56H81q-13 0-22 9t-9 22v56H38q-13 0-22.5 9.5T6 227v81h288v-81q0-13-9.5-22.5T262 195h1zm-44-62q2 0 4 2t2 4v56h-62v-56q0-2 1.5-4t4.5-2h50zM119 52q0-3 1.5-5t4.5-2h50q3 0 4.5 2t1.5 5v56h-62V52zm-44 87q0-2 2-4t4-2h50q3 0 5 2t2 4v56H75v-56zm19 144H31v-56q0-3 2-5t5-2h50q2 0 4 2t2 5v56zm87 0h-62v-56q0-3 1.5-5t4.5-2h50q3 0 4.5 2t1.5 5v56zm88 0h-63v-56q0-3 2-5t5-2h50q2 0 4 2t2 5v56z"/></svg>