<svg viewBox="0 0 300 311" xmlns="http://www.w3.org/2000/svg"><path d="M288 118q-12-11-27.5-10T235 120l-41 44q-5-8-14-13.5t-19-5.5H38q-16 0-27 11T0 183v87q0 16 11 27t27 11h130l122-137q11-12 10-27.5T288 118zm-16 36L157 283H38q-6 0-9.5-3.5T25 270v-87q0-5 3.5-9t8.5-4h124q6 0 10 4.5t4 10q0 5.5-3.5 9.5t-8.5 5l-65 9 4 25 64-9q11-2 19.5-9t12.5-17l55-61q4-4 9-4t9 3.5q4 3.5 4 8.5t-3 9zm-166-34q18 0 31-12 13-13 13-31t-13-31l-31-30-31 30Q63 59 63 77t12.5 30.5Q88 120 106 120zM93 64l13-14 14 13q5 6 5 13.5T120 90q-6 5-14 5t-13-5.5q-5-5.5-5.5-13T93 64z"/></svg>