<svg viewBox="0 0 300 311" xmlns="http://www.w3.org/2000/svg"><path d="M213 139q-1 8-6 13.5t-13 5.5q-8 0-13.5-5.5T175 139q0-8 5.5-13.5t13.5-5q8 .5 13.5 5.5t5.5 13zm-107-19q-8 1-13.5 6t-5 13q.5 8 5.5 13.5t13 5.5q8 0 13.5-5.5T125 139q0-8-5.5-13.5T106 120zm137-50l29 77q6 18-1 36t-24 26l-24 8-19 91H96l-19-91-24-8q-17-8-24-26t-1-35l29-78q-24-2-40.5-20T0 8h25q0 16 11 26.5T63 45h175q15 0 26-10.5T275 8h25q0 24-16.5 42T243 70zm6 86l-33-86H84l-33 86q-3 9 .5 17.5T63 186l35 12 18 85h68l18-85 35-12q8-4 11.5-12.5t.5-17.5z"/></svg>