<svg viewBox="0 0 300 311" xmlns="http://www.w3.org/2000/svg"><path d="M288 169q12-13 12-31t-13-30q-13-12-31-12t-31 13q-16 13-35.5 19t-39.5 5q-20 1-39.5-5T75 109Q63 96 45 95.5t-31 12Q1 120 .5 138T12 169q7 8 15 13-9 10-12.5 23t-1 26Q16 244 24 254.5T44 271q50 25 106 25t106-25q21-10 28.5-32t-2.5-43q-4-7-9-14 8-5 15-13zm-27 62q-5 12-16 18-45 22-95 22t-95-22q-11-6-15.5-18t1-24q5.5-12 18-16t23.5 1q32 17 68 17t68-17q8-4 17.5-2.5t16.5 8q7 6.5 9.5 15.5t-.5 18zm9-79q-9 9-20 16-10-4-21.5-3.5T207 170q-27 14-57 14t-57-14q-10-5-21.5-5.5T50 168q-11-7-20-16-5-6-5-13.5t6-13q6-5.5 13.5-5T57 126q20 17 44 25t49 7q25 1 49-7t44-25q5-5 13-5t13.5 5q5.5 5 5.5 13t-5 13zM163 83h-25V20h25v63zm50-13h-25V20h25v50zm-100 0H88V20h25v50z"/></svg>