<svg viewBox="0 0 300 311" xmlns="http://www.w3.org/2000/svg"><path d="M76 239l-2 1h-1q-24-22-32-54l3-2q10-6 22-4 6 24 24 42-4 11-14 17zm42-188q0 13 10 22 11-3 22-3t22 3q10-9 10-22v-1q-16-5-32-5t-32 5v1zm141 135h-1l-2-2q-10-6-22-4-6 24-24 41 4 12 14 18l3 1q24-22 32-54zm36-36q-11-14-26-23-19-11-43-13 12-22 12-46 0-17-7-33l-5-8h-16q3 10 3 18 0 17-8.5 31.5t-23 23Q167 108 150 108t-31-8.5q-14-8.5-22.5-23T88 45q0-8 3-18H73l-4 8q-7 16-7 33 0 24 12 47-24 1-43 12-15 9-25 23l-5 7 9 16q6-7 12-10 14-10 30.5-10.5t31.5 7q15 7.5 24 22t10 31q1 16.5-6.5 31T90 268q-9 5-20 8l8 15 8-2q18-2 33-10 18-11 31-29 13 18 31 29 15 8 33 10l9 1 8-14q-12-3-20-8-15-10-22.5-24.5t-6.5-31q1-16.5 10-31t24-22q15-7.5 31.5-7T278 163q6 3 12 10l10-16-5-7zm-145 33q-10 0-17.5-7.5T125 158q0-10 7.5-17.5T150 133q10 0 17.5 7.5T175 158q0 10-7.5 17.5T150 183z"/></svg>