<svg viewBox="0 0 300 311" xmlns="http://www.w3.org/2000/svg"><path d="M300 258q0 16-11 26.5T262 295v13h-24v-13q-16 0-27-10.5T200 258h25q0 5 3.5 8.5t9.5 3.5h25q5 0 8.5-3.5t3.5-8q0-4.5-2.5-7T267 249l-38-7q-13-2-21-11.5t-8-22.5q0-16 11-27t26-11v-12h26v12q15 0 26 11t11 27h-25q0-5-3.5-8.5T262 196h-24q-6-1-9.5 3t-3.5 8.5q0 4.5 2.5 7t5.5 3.5l38 6q13 2 21 11.5t8 22.5zm-124-63q3-13 12-25H63v88h112v-25H88v-38h88zM63 145h62v-25H63v25zm62-75H63v25h62V70zm75 238H13V45q0-15 10.5-26T50 8h118l95 95v30h-25v-13h-88V33H50q-5 0-8.5 3.5T38 45v238h142q7 15 20 25zM175 95h45l-45-44v44z"/></svg>