<svg viewBox="0 0 300 311" xmlns="http://www.w3.org/2000/svg"><path d="M263 133H88V95h62V45q0-15-11-26T113 8H38Q22 8 11 19T0 46v49h63v38H38q-16 0-27 11T0 170v138h300V170q0-15-11-26t-27-11h1zM25 45q0-5 3.5-8.5T38 33h75q5 0 8.5 3.5T125 45v25H25V45zm13 113h225q5 0 8.5 3.5t3.5 9.5v62H25v-63q0-5 3.5-8.5T38 158zM25 283v-25h250v25H25zm88-88q0-5 3.5-8.5t8.5-3.5q5 0 8.5 3.5t4 9q.5 5.5-3.5 9t-9 3.5q-5 0-8.5-3.5T113 196v-1zm-50 0q0-5 3.5-8.5T75 183q5 0 9 3.5t4 9q0 5.5-4 9t-9 3.5q-5 0-8.5-3.5T63 196v-1zm100 0q0-5 3.5-8.5t8.5-3.5q5 0 9 3.5t4 9q0 5.5-4 9t-9 3.5q-5 0-8.5-3.5T163 196v-1zm50 0q0-5 3.5-8.5t8.5-3.5q5 0 8.5 3.5t3.5 9q0 5.5-3.5 9T225 208q-5 0-8.5-3.5T213 196v-1z"/></svg>