<svg viewBox="0 0 300 311" xmlns="http://www.w3.org/2000/svg"><path d="M300 166q0-10-3-20l-17-50q-4-11-13.5-18.5T244 70h-31V58q0-16-11-27t-27-11H38q-16 0-27 11T0 58v194q0 13 7.5 24t20 16q12.5 5 25.5 2.5T75 282q9 10 22 12.5t25.5-2.5q12.5-5 20-16t7.5-24v-7h38v7q0 18 12.5 31t30.5 12.5q18-.5 31-13t13-30.5v-7h25v-79zm-56-71q5 1 8 3t4 6l14 41h-57V95h31zM25 58q0-5 3.5-9t8.5-4h138q5 0 9 4t4 9v162H25V58zm19 212q-8 0-13.5-5T25 252v-7h38v7q0 8-5.5 13T44 270zm81-18q0 8-5.5 13t-13.5 5q-8 0-13-5t-5-13v-7h37v7zm125 0q0 8-5.5 13t-13.5 5q-8 0-13.5-5t-5.5-13v-7h38v7zm-37-32v-50h62v50h-62z"/></svg>