<svg viewBox="0 0 300 311" xmlns="http://www.w3.org/2000/svg"><path d="M279 30q-5 7-15 15-19 16-44 26-7-24-19-43.5T181.5 8Q174 8 167 14v1q-3 2-6.5 3.5t-10.5 2q-7 .5-10.5-1.5t-6.5-4v-1q-7-6-14.5-6T99 27.5Q87 47 80 71 55 61 36 45q-9-8-14-15L1 44q6 9 19 20 24 20 55 31v13q0 20 10 37.5t27.5 27.5q17.5 10 37.5 10t37.5-10q17.5-10 27.5-27.5t10-37.5V95q31-11 55-31 13-11 19-20l-20-14zm-157 8q11 7 28 7t28-7q13 19 18 40-22 5-46 5t-46-5q5-21 18-40zm28 120q-21 0-35.5-14.5T100 108v-5q24 5 50 5t50-5v5q0 21-14.5 35.5T150 158zm112 106v44h-25v-44q0-13-9-22t-22-9H94q-13 0-22 9t-9 22v44H38v-44q0-23 16-39.5T94 208h112q24 0 40.5 16.5T263 264h-1z"/></svg>