<svg viewBox="0 0 301 311" xmlns="http://www.w3.org/2000/svg"><path d="M0 309l238-99L99 71 0 309zm83-134l51 51-88 37 37-88zm111 26l-35 15-66-66 15-35 86 86zm-22-99q18-18 17-36 0-12-9-23-4-7-8-10l17-19q6 6 12 15 12 17 13 36 1 29-25 55l-17-18zm125 50l-19 16q-2-2-6-5-7-5-14-5-10-1-21 10l-17-17q18-19 40-18 13 1 26 9 6 4 11 10zM264 27q0-8 5-13.5T282 8q8 0 13.5 5.5T301 27q0 8-5.5 13T282 45q-8 0-13-5t-5-13zm-25 62q-1-8 4.5-13.5T257 70q8 0 13.5 5.5T276 89q0 8-5.5 13.5T257 108q-8 0-13.5-5.5T239 89zM101 39q0-8 5.5-13.5T120 20q8 0 13.5 5.5T139 39q0 8-5.5 13.5T120 58q-8 0-13.5-5.5T101 39zm188 200q0 8-5.5 13.5T270 258q-8 0-13.5-5.5T251 239q0-8 5.5-13t13.5-5.5q8-.5 13.5 5T289 239zM14 52q0-8 5-13.5T32 33q8 0 13.5 5.5T51 52q0 8-5.5 13T32 70.5q-8 .5-13-5T14 52zm212 237q0 8-5.5 13.5T207 308q-8 0-13.5-5.5T188 289q0-8 5.5-13.5T207 270q8 0 13.5 5.5T226 289z"/></svg>