<svg viewBox="0 0 300 311" xmlns="http://www.w3.org/2000/svg"><path d="M256 52q-29-29-67.5-39t-77 0Q73 23 44 52T5 119.5q-10 38.5 0 77T44 264q29 29 67.5 39t77 0q38.5-10 67.5-39t39-67.5q10-38.5 0-77T256 52zm18 93q-23 2-44.5-5.5T192 116q-16-16-23.5-37.5T163 34q29 3 53.5 18T256 91.5q15 24.5 18 53.5zM26 171q23-2 44.5 5.5T108 200q16 16 23.5 37.5T137 282q-29-3-53.5-18T44 224.5Q29 200 26 171zm212 75q-15 16-34.5 25T162 282q3-28-6.5-54T126 182q-20-20-46.5-29.5T26 146q2-29 17.5-54T84 51.5Q109 36 138 34q-2 26 6 51t26 44.5q18 19.5 42 30.5t51 10h11q-2 22-11 41.5T238 246z"/></svg>