<svg viewBox="0 0 300 311" xmlns="http://www.w3.org/2000/svg"><path d="M200 95H100q-21 0-35.5 15T50 146v124h44l-23 38h29l23-38h54l23 38h29l-23-38h44V145q0-20-14.5-35T200 95zm25 50v25h-62v-50h37q10 1 17.5 8t7.5 17zm-125-25h38v50H75v-25q0-10 7.5-17.5T100 120zM75 245v-50h25v13q0 5 3.5 8.5t9 3.5q5.5 0 9-3.5t3.5-8.5v-13h50v13q0 5 3.5 8.5t9 3.5q5.5 0 9-3.5t3.5-8.5v-13h25v50H75zm225-87v150h-25V158q0-34-17-62.5T212.5 50Q184 33 150 33T87.5 50Q59 67 42 95.5T25 158v150H0V158q0-41 20-75.5T74.5 28Q109 8 150 8t75.5 20Q260 48 280 82.5t20 75.5z"/></svg>