<svg viewBox="0 0 300 311" xmlns="http://www.w3.org/2000/svg"><path d="M250 158h-45l7-54q1-9-.5-17t-7-14.5Q199 66 191.5 62T175 58h-30l4-25h64V8h-87l-6 50H38q-9 0-16.5 4t-13 10.5Q3 79 1 87t0 16l26 205h223q21 0 35.5-14.5T300 258v-50q0-21-14.5-35.5T250 158zm25 50v12H125v-12q0-10 7.5-17.5T150 183h100q10 0 17.5 7.5T275 208zM175 83q6 0 10 5t2 12l-1 8h-47l3-25h33zM28 88q4-5 9-5h80l-3 25H27l-2-10q-1-6 3-10zm2 45h153l-3 25h-30q-21 0-35.5 14.5T100 208v50q0 14 7 25H49L30 133zm220 150H150q-10 0-17.5-7.5T125 258v-13h50l38 25 37-25h25v13q0 10-7.5 17.5T250 283z"/></svg>