<svg viewBox="0 0 300 311" xmlns="http://www.w3.org/2000/svg"><path d="M288 83q0-16-11-27t-27-10H125q-16-1-27 10T87 83v125h201V83zM175 70h25v38h-25V70zm88 113H113V83q0-5 3.5-9t8.5-4h25v63h75V70h25q5 0 9 4t4 9v100zM75 233q-5 0-9-3.5t-3-8.5V46q0-16-11-27T25 8H0v25h25q5 0 9 4t4 9v175q0 15 10.5 26T75 258v7q0 18 13 30.5t31 12.5q18 0 31-12.5t13-30.5v-7h37v7q0 18 13 30.5t31 12.5q18 0 31-12.5t13-30.5v-7h12v-25H75zm63 32q-1 7-6 12.5t-13 5.5q-8 0-13.5-5.5T100 265v-7h38v7zm125 0q0 7-5.5 12.5T244 283q-8 0-13.5-5.5T225 265v-7h38v7z"/></svg>