<svg viewBox="0 0 300 311" xmlns="http://www.w3.org/2000/svg"><path d="M287 85q6-7 9.5-16t3-18.5q-.5-9.5-4.5-18T283 18Q270 7 252 8t-31 14l-17 18-9-9q-11-11-26.5-11T142 31L91 81 18 9 1 26l281 281 17-17-108-109 96-96zm-114 78l-29-29 60-59 29 29-60 59zm66-123q6-6 14-7t15 4.5q7 5.5 7 14.5t-6 16l-19 18-29-29 18-17zm-80 8q4-3 9-3t9 3l9 9-60 60-17-18 50-51zm-23 152l18 18-47 47q-9 9-32 14-16 4-35 6l-22 22-17-18 22-22q2-19 5-34 6-24 15-33l47-47 18 18-47 47q-4 3-7 14.5T49 259q14-2 25.5-5.5T90 247l46-47z"/></svg>