<svg viewBox="0 0 300 311" xmlns="http://www.w3.org/2000/svg"><path d="M31 39q0-13 9.5-22t22-9q12.5 0 22 9T94 39q0 13-9.5 22.5t-22 9Q50 70 40.5 61T31 39zm269 181q0 24-12 44t-32 32q-20 12-43.5 12T169 296q-20-12-32-32t-12-43.5q0-23.5 12-43.5t32-32q20-12 43.5-12t43.5 12q20 12 32 32t12 43zm-25 0q0-16-8.5-30.5t-23-23q-14.5-8.5-31-8.5t-31 8.5q-14.5 8.5-23 23T150 221q0 22 14 39t36 22v-24h25v24q22-5 36-22t14-40zm-150-70q-12 15-18.5 33t-6.5 38v87H75v-88H50v88H25v-88H0V120q0-15 11-26t27-11h50q15 0 26 11t11 26v30zm-25-30q0-5-3.5-8.5T87 108H38q-6 0-9.5 3.5T25 121v74h75v-75zm119 51q-17-3-30.5 8.5T175 208h25q0-6 4.5-9.5T215 196q4 0 6.5 3t3.5 7q1 4-1 7.5t-5 5.5q-8 4-12 8-7 8-7 18h25q0-1 6-4 10-6 15.5-17t3-22.5q-2.5-11.5-10.5-20T219 171z"/></svg>