<svg viewBox="0 0 300 311" xmlns="http://www.w3.org/2000/svg"><path d="M285 103L174 16q-11-8-24-8t-24 8L15 103q-7 6-11 14t-4 17v174h300V134q0-9-4-17t-11-14zm-10 180H25V134q0-7 5-11l112-87q3-3 8-3t8 3l112 87q5 4 5 11v149zm-97-163q-17 0-28 11-12-11-28.5-11T93 133q-12 13-12 30 0 24 28 53 16 16 34 29l7 4 7-4q18-13 33-29 29-29 29-53 0-17-12-29.5T178 121v-1zm-28 99q-17-13-29-27-15-17-15-29 0-7 4.5-12.5t11-5.5q6.5 0 11 4t4.5 12l1 9h25l-1-12q1-6 5.5-9t10.5-3.5q6-.5 11 5t5 12.5q0 11-15 28-12 14-29 28z"/></svg>