<svg viewBox="0 0 300 311" xmlns="http://www.w3.org/2000/svg"><path d="M300 108q0-16-9.5-33.5T265 46q-18-13-40-13h-4q-22-8-51-14Q120 8 75 8v25q46 0 99 13l-5 2q-23 11-38 15-26 7-56 7v25q28 1 52-5 19-4 38-13-2 9-2 19 0 13 5 24H94q-26 0-46 15-3-7-9.5-10.5T25 121q-10-1-17.5 6.5t-7.5 17Q0 154 5.5 161t13.5 9q-6 15-6 32 0 22 10.5 40.5T53 272q19 11 41 11 10 0 17.5 7.5T119 308h131v-25h-53l52-127q23-5 37-17t14-31zM175 271q0-35-19.5-55T100 195v25q26 0 38 12.5t12 37.5v13h-13q-7-11-18.5-18T94 258q-24 0-40-16.5t-16-40q0-23.5 16-40T94 145h94q15 12 33 13l-46 113zm13-176q0-15 10.5-26T224 58q15 0 26.5 8.5t18 20.5q6.5 12 6.5 21 0 12-17 19-15 6-33 6-16 0-26.5-11T188 96v-1z"/></svg>