<svg viewBox="0 0 300 311" xmlns="http://www.w3.org/2000/svg"><path d="M300 202q0-25-14-45.5T249 126q-1 13-6 25 15 7 23.5 20.5T275 202q0 12-5.5 23.5T255 245l-65-64q16-12 25.5-29.5T225 113q0-21-11-39.5T184.5 44Q166 33 144 33H81q-16 0-32 7L18 9 1 26l281 281 17-17-27-27q14-12 21-28t7-33zM81 58h63q23 0 39.5 16.5T200 114q0 15-7.5 28T172 163l-17-18q8-1 13-8t7-17h-19q-11 0-23 4L69 59q6-1 12-1zM57 165q-5 12-6 25-23-10-37-30.5T0 114q0-22 12-41l18 18q-5 11-5 23 0 17 8.5 30.5T57 165zm140 93l25 25h-66q-22 0-40.5-11T86 242.5Q75 224 75 202q0-27 17-49l18 18q-10 14-10 31 0 23 16.5 39.5T156 258h41z"/></svg>