<svg viewBox="0 0 300 311" xmlns="http://www.w3.org/2000/svg"><path d="M200 76V8H100v68q-19 13-36 30-27 27-43 56-21 38-21 77 0 17 9.5 31.5t25.5 21q16 6.5 33 3T97 278q8 14 22.5 22t30.5 8q16 0 30.5-8t22.5-22q12 13 29 16.5t33-3q16-6.5 25.5-21T300 239q0-39-21-77-16-29-43-56-17-17-36-30zm-25-43v48l-7 19q-4-7-8-12l-10-13-10 13-8 12-7-19V33h50zM56 270q-13 0-22-9t-9-22q0-43 31-85 20-28 50-51l9 26q-25 52-27 110 0 13-9.5 22T56 270zm94 13q-16 0-26.5-11T113 246q1-70 37-128 36 58 37 127 1 16-10 27t-27 11zm94-13q-13 0-22-9t-9-22h-1q-2-58-27-110l9-26q30 23 50 51 31 42 31 85 0 13-9 22t-22 9z"/></svg>