<svg viewBox="0 0 300 311" xmlns="http://www.w3.org/2000/svg"><path d="M264 108q-9-22-25.5-38.5T200 44q-1-15-12-25.5T163 8h-25q-15 0-26 10.5T100 44q-22 9-38.5 25.5T36 108q-15 1-25.5 12T0 146v37h28q5 29 24 52.5T98 272l-12 36h26l10-28q28 6 56 0l10 28h26l-12-36q27-13 46-36.5t25-52.5h27v-38q0-14-10.5-25T264 108zM125 45q0-5 3.5-8.5T138 33h25q5 0 8.5 3.5T175 45v13h-50V45zM25 145q0-5 3.5-8.5T37 133h26q5 0 8.5 3.5T75 145v13H25v-13zm125 113q-10 0-20-2l20-59 20 59q-10 2-20 2zm44-10l-32-94q-1-4-4.5-6.5T150 145q-4 0-7.5 2.5T138 154l-32 94q-20-10-33.5-27T53 183h47v-38q0-15-10.5-25.5T64 108q13-23 36-36v11h100V72q23 13 36 36-15 1-25.5 11.5T200 146v37h47q-6 21-19.5 38T194 248zm81-90h-50v-13q0-5 3.5-8.5t8.5-3.5h26q5 0 8.5 3.5t3.5 8.5v13z"/></svg>