<svg viewBox="0 0 300 311" xmlns="http://www.w3.org/2000/svg"><path d="M38 289q0 8-5.5 13.5T19 308q-8 0-13.5-5.5T0 289q0-8 5.5-13t13.5-5.5q8-.5 13 5t5 13.5h1zm37-69q-10 0-17.5 7.5t-7.5 18q0 10.5 7.5 18T75 271q10 0 17.5-7.5t7.5-18q0-10.5-7.5-18T75 220zm225-87q0 20-10 37.5T262.5 198Q245 208 225 208q-14 0-27-5-21 18-48 18-20 0-37.5-10.5T85 183q-20-1-36.5-11t-26-27Q13 128 13 108t10-37.5Q33 53 50 43t38-10q10 0 20 3 11-13 27-20.5T169 8q25 0 46 14.5T245 61q24 6 39.5 26t15.5 46zm-25 0q0-18-12-32t-30-17l-8-1-2-8q-5-19-20-30.5T169 33q-14 0-26.5 6.5T122 58l-5 8-10-4q-9-4-20-4-20 0-35 14.5T37 108q0 21 15 35.5T87 158l13-1 4 8q6 14 18.5 22.5T150 196q21 0 36-17l7-7 8 5q12 6 24 6 21 0 35.5-14.5T275 133z"/></svg>