<svg viewBox="0 0 300 311" xmlns="http://www.w3.org/2000/svg"><path d="M273 45L155 10q-15-5-28.5 2.5T109 35l-7 23H38q-16 0-27 11T0 96v212h200v-26l39 15 60-205q4-15-3.5-28.5T273 45zm-98 238H25V95q0-5 3.5-8.5T37 83h126q5 0 8.5 3.5T175 95v188zM275 85l-53 179-22-8V95q0-15-11-26t-27-11h-34l5-16q1-5 5.5-7.5T148 33l118 36q5 2 7.5 6.5T275 85zm-125 85q0 13-13 30-9 11-24 23l-13 10-13-10q-15-12-24-23-13-17-13-30 0-10 7.5-17.5T75 145q10 0 17.5 7.5T100 170q0-10 7.5-17.5T125 145q10 0 17.5 7.5T150 170z"/></svg>