<svg viewBox="0 0 300 311" xmlns="http://www.w3.org/2000/svg"><path d="M238 33q0-10 7-17.5T262.5 8q10.5 0 18 7.5T288 33q0 10-7.5 17.5t-18 7.5Q252 58 245 50.5T238 33zM38 58q10 0 17.5-7.5T63 33q0-10-7.5-17.5T37.5 8Q27 8 20 15.5T13 33q0 10 7 17.5T38 58zm243 12h-32q1 7 1 13 0 12-3 25h53V89q0-8-5.5-13T281 70zM50 83q0-6 1-12H19q-8-1-13.5 4.5T0 89v19h53q-3-13-3-25zm100 0q8 0 13.5-5.5T169 64q0-8-5.5-13.5t-13.5-5q-8 .5-13.5 5.5T131 64q0 8 5.5 13.5T150 83zm37 142l87 33v50h-25v-33l-87-32v-71q0-5-3-9t-8-5q-5-1-9.5 3t-4.5 10v133l-54-43q-4-3-9-3t-8.5 4q-3.5 4-3.5 9t4 9l29 28H59l-10-10q-12-11-12.5-26.5t10-26.5q10.5-11 26-12T99 243l13 10v-82q0-11 6-20-20-10-31.5-28T75 84q0-21 10-38.5T112.5 18Q130 8 150 8t37.5 10Q205 28 215 45.5T225 84q0 21-12 39.5T181 151q6 10 6 21v53zM100 83q0 19 13 33v-2q-1-8 4.5-13.5T131 95h38q8 1 13.5 6t5.5 13v2q12-14 12-34t-14.5-34.5Q171 33 150 33t-35.5 14.5Q100 62 100 83z"/></svg>