<svg viewBox="0 0 300 311" xmlns="http://www.w3.org/2000/svg"><path d="M263 210v-15q0-15-11-26t-27-11h-62v-26q23-5 37.5-24.5t12-43.5Q210 40 192 24T150 8q-24 0-42 16T87.5 64q-2.5 24 12 43.5T137 132v26H75q-16 0-27 11t-11 26v15q-18 4-28.5 20t-8 34.5Q3 283 17 295.5T50 308q19 0 33-12.5t16.5-31q2.5-18.5-8-34.5T62 210v-15q0-5 4-8.5t9-3.5h63v27q-19 4-29.5 20t-8 34.5q2.5 18.5 16.5 31t33 12.5q19 0 33-12.5t16.5-31q2.5-18.5-8-34.5T163 210v-27h62q5 0 9 3.5t4 9.5v14q-19 4-29.5 20t-8 34.5q2.5 18.5 16.5 31t33 12.5q19 0 33-12.5t16.5-31q2.5-18.5-8-34.5T262 210h1zM113 70q0-15 10.5-26T150 33q16 0 27 11t11 26.5Q188 86 177 97t-27 11q-16 0-27-11t-10-27zM75 258q0 10-7.5 17.5T50 283q-10 0-17.5-7.5T25 258q0-10 7.5-17.5T50 233q10 0 17.5 7.5T75 258zm100 0q0 10-7.5 17.5T150 283q-10 0-17.5-7.5T125 258q0-10 7.5-17.5T150 233q10 0 17.5 7.5T175 258zm75 25q-10 0-17.5-7.5T225 258q0-10 7.5-17.5T250 233q10 0 17.5 7.5T275 258q0 10-7.5 17.5T250 283z"/></svg>