<svg viewBox="0 0 300 311" xmlns="http://www.w3.org/2000/svg"><path d="M272 133q-18 5-34 13-2-36-15-68t-32.5-51Q171 8 150 8t-40.5 19Q90 46 77 78t-14 68q-17-8-35-13l-15-4v16q0 56 22 95 18 32 50 50 26 15 55 18h20q29-3 55-18 32-18 50-50 23-39 23-95v-16l-16 4zM38 163q28 11 49 33l1-1q35 38 49 87-22-3-41-15-23-14-38-37-17-28-20-67zm112 82q-11-27-29-50h17v-25H98l-11-8 1-16h12v-26h-9q2-12 7-25h40V70h-30q10-17 21-27t21-10q10 0 21 10t21 27h-29v25h40q4 13 6 25h-9v25h12l1 17-11 8h-39v25h16q-18 23-29 50zm13 37q14-49 50-87 21-21 49-32-3 39-20 67-15 23-38 37-19 12-41 15zm12-137h-50v-25h50v25z"/></svg>