<svg viewBox="0 0 300.0053 311" xmlns="http://www.w3.org/2000/svg"><path d="M250 182v-1 1zm44 77q-6 8-17 9l-15 2-2 15q-1 9-7 15-5 5-9.5 6.5T234 308q-11 0-18-8l-47-46q-9 4-19 4t-19-4l-46 46q-8 8-19 8-4 0-9-1.5t-9-6.5q-7-6-8-15l-2-15-15-2q-10-1-17-9.5T0 240q1-10 8-16l42-42h-1 1q0-3-1-6.5t-3-4.5q-10-6-15.5-16T25 133.5q0-11.5 5.5-21.5T46 96q2-2 3-4.5t1-5.5q-3-11 .5-22T62 45q8-8 19-11.5t22-.5q3 0 5.5-1t4.5-3q6-10 16-15.5T150 8q11 0 21 5.5T187 29q2 2 4.5 3t5.5 1q11-3 22 .5T238 45q8 8 11.5 19t.5 22q0 3 1 5.5t3 4.5q10 6 15 16 6 10 6 21.5t-5.5 21.5q-5.5 10-14.5 16-3 1-4 4.5t-1 5.5l1 1 42 42q6 6 7 16t-6 19zm-182-22q-3-5-9-4-11 3-23 0-17-5-25-21l-30 29q0 2 1 2l35 4 4 35 1 1 46-46zm90-28q5 1 10-.5t8.5-5q3.5-3.5 5-8t.5-9.5q-3-11 1.5-20.5T241 150q4-3 6.5-7.5t2.5-9.5q0-5-2.5-9.5T241 117q-9-6-13.5-16T226 81q1-5-.5-10t-5-8.5q-3.5-3.5-8.5-5t-10-.5q-10 3-20-1.5T166 42q-2-4-6.5-6.5T150 33q-5 0-9.5 2.5T134 42q-6 9-16 13.5T98 57q-5-1-10 .5t-8.5 5Q76 66 74.5 71T74 81q3 10-1.5 20T59 117q-4 2-6.5 6.5T50 133q0 5 2.5 9.5T59 150q9 6 13.5 15.5T74 186q-1 5 .5 9.5t5 8q3.5 3.5 8.5 5t9 .5q4-1 8-1 8 0 16 4.5t13 11.5q2 4 6.5 6.5t9.5 2.5q5 0 9.5-2.5t6.5-6.5q6-9 16-13t20-2zm73 33l-30-30q-8 16-26 21-11 3-22 0-6-1-9 4l45 46h2v-1l4-35 35-4q1 0 1-1zm-94-114q6-9 6-20 0-16-11-27t-26-11h-31v25h31q5 0 8.5 4t3.5 9q0 5-3.5 8.5T150 120h-13v25h21q5 0 9 4t4 9q0 5-4 8.5t-9 3.5h-39v25h39q16 0 27-11t11-26q0-9-4-16.5T181 128zM50 182h-1 1z"/></svg>