<svg viewBox="0 0 300 311" xmlns="http://www.w3.org/2000/svg"><path d="M263 20H38q-16 0-27 11T0 58v237h300V58q0-16-11-27t-27-10l1-1zm12 250H25V58q0-5 3.5-9t8.5-4h226q5 0 8.5 4t3.5 9v212zM125 83h113v25H125V83zm-25 12q0 8-5.5 13.5T81 114q-8 0-13-5.5t-5-13q0-7.5 5-13T81 77q8 0 13.5 5.5T100 95zm25 50h113v25H125v-25zm-25 13q0 8-5.5 13.5T81 177q-8 0-13-5.5T63 158q0-8 5-13.5t13-5.5q8 0 13.5 5.5T100 158zm25 50h113v25H125v-25zm-25 12q0 8-5.5 13.5T81 239q-8 0-13-5.5t-5-13q0-7.5 5-13t13-5.5q8 0 13.5 5.5T100 221v-1z"/></svg>