<svg viewBox="0 0 300 311" xmlns="http://www.w3.org/2000/svg"><path d="M225 208q0-17-8.5-31.5t-23-22.5q-14.5-8-31.5-8H88q-17 0-31.5 8t-23 22.5Q25 191 25 208v37H0v25h13v38h25v-38h175v38h25v-38h12v-25h-25v-37zm-25 0v37h-53l-12-46 19-29h9q15 0 26 11t11 27zm-150 0q0-16 11-27t27-11h8l19 29-12 46H50v-37zm75-75q17 0 31.5-8.5t22.5-23q8-14.5 8.5-31t-8-31q-8.5-14.5-23-23T125 8q-17 0-31.5 8.5T71 39.5q-8 14.5-8.5 31t8 31q8.5 14.5 23 23T125 133zm0-100q16 0 27 11t11 26.5Q163 86 152 97t-27 11q-16 0-26.5-11t-11-26.5Q87 55 98 44t27-11zm175 0h-12v81l-32-31-31 31V33h-12V8h87v25z"/></svg>