<svg viewBox="0 0 300 311" xmlns="http://www.w3.org/2000/svg"><path d="M100 8Q80 8 62.5 18T35 45.5Q25 63 25 83t10 37.5Q45 138 62.5 148t37.5 10q20 0 37.5-10t27.5-27.5Q175 103 175 83t-10-37.5Q155 28 137.5 18T100 8zm0 125q-21 0-35.5-14.5T50 83q0-21 14.5-35.5T100 33q21 0 35.5 14.5T150 83q0 21-14.5 35.5T100 133zm-37 50h75v25H63q-16 0-27 11t-11 26v63H0v-63q0-16 8.5-30.5t23-23Q46 183 63 183zm216-30l-48-16-47 16q-10 3-16 11.5t-6 18.5v42q1 29 25 54 16 15 36 25l8 4 8-3q20-9 36-23 25-24 25-57v-42q0-10-6-18.5T279 153zm-4 72q0 22-17 38-11 10-26 17-16-8-27-19-17-17-17-36v-42q0-5 4-6l39-13 40 13q4 1 4 6v42z"/></svg>