<svg viewBox="0 0 300 311" xmlns="http://www.w3.org/2000/svg"><path d="M263 33H153L103 8H38Q22 8 11 19T0 45v238h165q-13-13-22-25H25V108h250v28q14 5 25 15V70q0-15-11-26t-26-11zM25 45q0-5 3.5-8.5T38 33h59l50 25h116q5 0 8.5 3.5T275 70v13H25V45zm229 113q-18 0-31 12-12-12-30.5-12T161 171.5Q148 185 148 204q0 26 31 58 18 18 37 31l7 5 7-5q20-13 37-31 31-32 31-58 0-19-13-32.5T254 158zm-31 109q-19-14-33-30-17-20-17-33 0-9 5.5-15t13.5-6q8 0 13.5 4.5T211 201v7h25v-7q0-9 5.5-13.5t13-4.5q7.5 0 13 6t5.5 15q0 13-17 33-13 16-33 30z"/></svg>