<svg viewBox="0 0 300 311" xmlns="http://www.w3.org/2000/svg"><path d="M275 265V153q13-14 13-33v-14l-29-86H41l-3 9L18 8 1 26l281 281 17-17-24-25zm-87-112q7 8 16.5 12.5T225 170h13q5 0 12-1v71l-76-76q8-4 14-11zm75-43v10q0 11-7.5 18t-17.5 7h-13q-10 0-17.5-7t-7.5-18h-25q0 10-6 16.5t-14 8.5L93 83h20V45h62v38h25V45h41l22 65zM59 45h29v33L59 49l1-3-1-1zm-9 163v-39q7 1 13 1h12q14 0 27-7l-19-19q-4 1-8 1H63q-11 0-18-7t-7-18v-10l2-9-19-19-8 24v14q0 19 12 33v105q0 15 11 26.5T63 295h87q15 1 26.5-10.5T188 258v-10l-41-40H50zm113 50q0 5-4 8.5t-9 3.5H63q-6 0-9.5-3.5T50 258v-25h113v25z"/></svg>