<svg viewBox="0 0 300 311" xmlns="http://www.w3.org/2000/svg"><path d="M222 98q-5-24-21.5-42.5t-39-27.5Q139 19 114 21.5T68.5 38Q48 52 36.5 73.5T25 120q0 25 11 46-21 12-30.5 33.5T2 244q6 23 24.5 37.5T69 295h81v-25H69q-17 1-29.5-10T25 232.5q-2-16.5 7.5-30T58 185l18-5-11-15q-15-20-15-44 0-20 9.5-36.5T85 58q16-10 35-11.5t36.5 6.5q17.5 8 29 23t13.5 34l2 10 9 1q26 4 44 22.5t20.5 44.5q2.5 26-11 48T225 266v26q33-8 54-35.5t21-62q0-34.5-22-61.5t-56-35zm7 131l17-17-41-42q-7-7-17.5-7t-17.5 8l-41 41 17 17 29-28v107h25V201l29 28z"/></svg>