<svg viewBox="0 0 300 311" xmlns="http://www.w3.org/2000/svg"><path d="M119 39q0-13 9-22t22-9q13 0 22 9t9 22q0 10-5 17.5T163 68v29q-7-1-13-1t-13 1V68q-8-4-13-11.5T119 39zm-47 77l21 16q3-6 6.5-11t8.5-9L87 96q1-3 0-7 1-13-8.5-22T56 58q-13 0-22 9t-9 22q0 13 9 22.5t22 9.5q9 0 16-5zm128 4q4 5 7 11l21-15q7 5 16 4 13 0 22-9t9-22q0-13-9-22t-22-9q-13 0-22 9t-9 22v6l-21 16q5 5 8 9zm-12 39q0-14-9-25t-23-13q-17-3-30 8.5T113 158v95l-13-10q-11-11-26.5-10t-26 12q-10.5 11-10 26.5T49 298l11 10h36l-30-28q-3-4-3.5-9t3-9q3.5-4 9-4t9.5 3l54 43V158q0-6 4-9.5t9.5-3q5.5.5 8.5 4.5t3 9v81l87 32v36h25v-53l-87-33v-63z"/></svg>