<svg viewBox="0 0 300 311" xmlns="http://www.w3.org/2000/svg"><path d="M150 8q-41 0-75.5 20T20 82.5Q0 117 0 158t20 75.5Q40 268 74.5 288t75.5 20q41 0 75.5-20t54.5-54.5q20-34.5 20-75.5t-20-75.5Q260 48 225.5 28T150 8zm113 112v25q0 6-4 9.5t-9 3.5h-50q-5 0-8.5-3.5T188 145v-25q0-5 3.5-8.5t8.5-3.5h50q5 0 9 3.5t4 9.5v-1zM150 33q30 0 56 13.5T250 83h-50q-12 0-21.5 7T165 108h-30q-4-11-13.5-18T100 83H50q18-23 44-36.5T150 33zM38 120q0-5 3.5-8.5T50 108h50q5 0 8.5 3.5t3.5 9.5v24q1 6-3 9.5t-9 3.5H50q-5 0-8.5-3.5T37 145v-25h1zm112 163q-31 0-58-14.5t-44.5-39Q30 205 26 174q10 9 24 9h50q16 0 27-11t11-26v-13h25v12q0 16 10.5 27t26.5 11h50q14 0 24-9-4 31-21.5 55.5t-44.5 39Q181 283 150 283zm54-84l17 18q-9 8-22 15-25 13-49 13t-49-13q-13-7-22-15l17-18q7 5 16 11 20 11 38 10.5t38-10.5q9-6 16-11zm15-54q-5 0-9-3.5t-4-8.5q0-5 4-8.5t9-4q5-.5 8.5 3.5t3.5 9q0 5-3.5 8.5T219 145zm-138 0q-5 0-8.5-3.5T69 133q0-5 3.5-8.5t8.5-4q5-.5 9 3.5t4 9q0 5-4 8.5t-9 3.5z"/></svg>