<svg viewBox="0 0 300 311" xmlns="http://www.w3.org/2000/svg"><path d="M225 8q-20 0-37.5 10T160 45.5Q150 63 150 83t10 37.5q10 17.5 27.5 27.5t37.5 10q20 0 37.5-10t27.5-27.5Q300 103 300 83t-10-37.5Q280 28 262.5 18T225 8zm38 108v-2q-1-7-6-12.5T244 96h-38q-8 0-13.5 5.5T187 114v2q-12-15-12-33 0-21 14.5-35.5T225 33q21 0 35.5 14.5T275 83q0 18-12 33zm-19-52q0 8-5.5 13.5T225 83q-8 0-13.5-5.5t-5.5-13q0-7.5 5.5-13T225 46q8 0 13.5 5.5T244 64zM110 227q-6 6-14.5 6T81 227q-6-6-6-14.5t6-14.5l63-63-52-53-64 63q-14 14-21 31.5T0 213q0 19 7 36.5t21 31Q42 294 59.5 301t36 7q18.5 0 36-7t31.5-21l63-63-52-53-64 63zm-1-92l-14 13-17-17 14-14 17 18zM46 262q-10-9-15.5-22T25 213q0-14 5.5-27T46 163l14-15 18 18-15 14q-13 13-13 32t13.5 32.5Q77 258 96 258t32-13l14-15 18 18-15 14q-14 14-32 18.5t-36 0Q59 276 46 262zm131-32l-17-17 14-14 17 18-14 13z"/></svg>