<svg viewBox="0 0 300 311" xmlns="http://www.w3.org/2000/svg"><path d="M196 220q0 16-11 27t-27 11h-39v-25h39q6 0 9.5-3.5t3.5-9q0-5.5-3.5-9T158 208h-20v-25h12q5 0 8.5-3.5t4-9q.5-5.5-3.5-9t-9-3.5h-31v-25h31q16 0 26.5 11t10.5 26q1 12-6 21 7 5 11 13t4 16zm44-92q23 30 22 67 1 31-14.5 57t-41 41Q181 308 150 308t-56.5-15q-25.5-15-41-41T37 195q1-37 23-67L0 8h114l36 73 36-73h114l-60 120zm-65-42q26 6 47 23l38-76h-58l-27 53zM41 33l37 76q21-17 47-23L99 33H41zm197 162q-1-23-12.5-43T194 120q-20-12-44-12t-44 12q-20 12-32 32t-12 43.5Q62 219 74 239t32 32q20 12 44 12t44-12q20-12 31.5-32t11.5-44h1z"/></svg>