<svg viewBox="0 0 300.5004 311" xmlns="http://www.w3.org/2000/svg"><path d="M192.5 202l-11-19-11 19-21-12 11-20h-22v-25h22l-11-19 21-12 11 19 11-19 22 12-11 19h22v25h-22l11 20-22 12zm-28 25l-22-13-11 19-11-19-21 13 11 19h-22v25h22l-11 19 21 13 11-19 11 19 22-13-11-19h22v-25h-22l11-19zm54-156q-9-22-26.5-37.5t-39.5-22q-22-6.5-45.5-2t-42 19Q46.5 43 36 63.5T25.5 108q0 13 3 26-13 9-20.5 24t-8 32q-.5 17 7.5 32.5t23 25q15 9.5 32 10.5v-25q-16-1-27-14t-10-30q0-12 6.5-22.5T49.5 150l10-5-4-10q-7-20-3.5-40t16.5-35.5Q81.5 44 101 37t40-2.5Q161.5 39 176.5 53t21 34l2 8h9q19 1 34.5 10.5t24.5 25.5q9 16 9 34.5t-9.5 34q-9.5 15.5-25.5 24.5t-35 9h-6v25h6q25 0 45.5-11.5t33.5-32q13-20.5 14.5-44.5t-8.5-45.5q-10-21.5-29.5-36T218.5 71z"/></svg>