<svg viewBox="0 0 302 311" xmlns="http://www.w3.org/2000/svg"><path d="M95 216q-1 0-.5.5t.5-.5zM294 17v0zM8 116q0-1-.5-.5t.5.5zm189 184zm-3-201v-.5.5zm100 100q-9 9-19 9t-17-7l-13-17-68 67 1 1q15 9 18 12 8 7 8.5 18t-7 18.5Q190 308 180 308t-17-7q-2-2-16-21l-16 17q-11 11-27.5 11T76 297l-65-65Q0 221 0 204.5T11 177l14-13-18-14q-7-7-7-17t8-18q8-8 18.5-7.5T44 116q2 4 12 17L171 18q11-11 26.5-11T224 18l18 18 16-21q7-7 18-6.5t18 8.5q7 8 6 18t-8 17q-4 2-20 14l19 19q11 11 11 26.5T291 138l-15 15q12 9 16 11 7 7 8 17t-6 18zm-110 10l-28-27q-9 14-12 18-7 7-17.5 7.5t-18-6.5q-7.5-7-8-17.5T107 166l19-14-26-27-71 70q-4 4-4 9.5t4 9.5l18 18 12-17q7-7 18-6.5t17.5 8q6.5 7.5 6.5 18T93 252q-3 2-15 11l16 16q4 4 9.5 4t9.5-4l71-70zm18-17l71-72q4-3 4-8.5t-4-8.5l-66-67q-4-4-9-4t-9 4l-15 15q14 10 18 13 7 7 8 17t-6 18q-9 9-19 9t-17-7l-14-20-27 27 84 84h1z"/></svg>