<svg viewBox="0 0 300 311" xmlns="http://www.w3.org/2000/svg"><path d="M150 8q-41 0-75.5 15T20 64Q0 90 0 121v37q0 41 20 75.5T74.5 288q34.5 20 75.5 20t75.5-20q34.5-20 54.5-54.5t20-75.5v-38q0-30-20-56t-54.5-41Q191 8 150 8zm0 25q34 0 62.5 12T258 77q17 20 17 43.5T258 164q-17 20-45.5 32T150 208q-34 0-62.5-12T42 164q-17-20-17-43.5T42 77q17-20 45.5-32T150 33zm0 250q-29 0-54.5-12.5t-43-34.5Q35 214 28 186q21 22 53 34.5t69 12.5q37 0 69-12.5t53-34.5q-7 28-24.5 50t-43 34.5Q179 283 150 283zm0-138l6 10q7 11 7 16t-4 8.5q-4 3.5-9 3.5t-8.5-3.5Q138 176 138 171t6-16l6-9v-1zm0-50q-3-4-6-9-7-11-6.5-16t4-8.5Q145 58 150 58t9 3.5q4 3.5 4 8.5t-7 16l-6 10v-1zM50 120q0-5 3.5-8.5T62 108q5 0 16 6l10 6-10 7q-11 6-16 6t-8.5-3.5Q50 126 50 120zm163 0q4-3 9-6 11-6 16-6t8.5 3.5q3.5 3.5 3.5 9t-3.5 9Q243 133 238 133t-16-6l-9-7zm2-28q-3 3-16 6l-11 2 3-11q4-12 7.5-15.5t8.5-3q5 .5 8.5 4t3.5 9q0 5.5-4 8.5zM85 92q-4-3-4-8.5t3.5-9q3.5-3.5 8.5-4t8.5 3Q105 77 109 89l3 11-11-2q-13-3-16-6zm113 75q-3-3-7-15l-3-11 11 2q13 3 16.5 6t3.5 8.5q0 5.5-3.5 9t-8.5 4q-5 .5-9-3.5zM85 149q3-3 16-6l11-2-3 11q-4 12-7.5 15.5t-8.5 3q-5-.5-8.5-4t-3.5-9q0-5.5 4-8.5zm27-29q0-5 11-8.5t27-3.5q16 0 26.5 3.5t10.5 9q0 5.5-10.5 9T150 133q-16 0-27-3.5t-11-9.5z"/></svg>