<svg viewBox="0 0 300 311" xmlns="http://www.w3.org/2000/svg"><path d="M175 58q0-16-11-27t-26-11H38q-16 0-27 11T0 58v137h175V58zm-25 112H25V58q0-5 3.5-9t8.5-4h101q5 0 8.5 4t3.5 9v112zM50 70h25v75H50V70zm50 0h25v75h-25V70zm200 96q0-10-3-20l-17-50q-4-11-13.5-18T244 71h-44v149H0v32q0 13 7.5 24t20 16q12.5 5 25.5 2.5T75 282q9 10 22 12.5t25.5-2.5q12.5-5 20-16t7.5-24v-7h50v7q0 18 13 31t31 12.5q18-.5 30.5-13T287 252v-7h13v-79zm-75 54v-50h50v50h-50zm19-125q5 0 8 2.5t4 6.5l14 41h-45V95h19zM44 270q-8 0-13.5-5T25 252v-7h38v7q0 8-5.5 13T44 270zm81-18q0 8-5.5 13t-13.5 5q-8 0-13-5t-5-13v-7h37v7zm138 0q0 8-5.5 13t-13.5 5q-8 0-13.5-5t-5.5-13v-7h38v7z"/></svg>