<svg viewBox="0 0 300 311" xmlns="http://www.w3.org/2000/svg"><path d="M119 208q-19 0-35-9t-25-25q-9-16-9-34.5t9-34.5q9-16 25-25.5t34.5-9.5q18.5 0 34.5 9.5t25.5 25.5q9.5 16 9 34.5t-9.5 34q-9 15.5-25 25t-34 9.5zm0-113q-18 1-31 13.5T75 139q0 18 13 31t31 13q18 0 31-13t13-31q0-18-13-31t-31-13zm44 213q-45 0-82-22t-59-59Q0 190 0 146v-13q0-28 12-53t33-43q21-18 48.5-25t54.5-2q27 5 49.5 21T234 72q24 5 42 22.5t22.5 42Q303 161 293 184t-31 36q-3 25-17 45t-36 31.5Q187 308 163 308zM125 33q-27 0-50 13.5T38.5 83Q25 106 25 133v12q0 38 18.5 69.5t50 50Q125 283 162 283q20 0 37.5-9.5T227 248q10-16 10-34l1-9 6-3q17-9 25-25.5t5-35q-3-18.5-17-31T225 96l-7-1-3-6q-13-26-37-41t-53-15zm25 200q-5 0-9 3.5t-3.5 9q.5 5.5 4 9t8.5 3.5q5 0 9-3.5t4-9q0-5.5-4-9t-9-3.5zm88-100q-6 0-9.5 3.5t-3.5 9q0 5.5 3.5 9t9 3.5q5.5 0 9-3.5t3.5-9q0-5.5-3.5-9T238 133zm-50 75q-6 0-9.5 3.5t-3.5 9q0 5.5 3.5 9t9 3.5q5.5 0 9-3.5t3.5-9q0-5.5-3.5-9T188 208z"/></svg>