<svg viewBox="0 0 300 311" xmlns="http://www.w3.org/2000/svg"><path d="M128 135l-18-17 34-35h17l2 12v113h-25v-83l-10 10zM92 246v-.5-.5 1zm116 0v-1 1zm56-18q8 7 12 13l5 9-6 7q-5 5-13 10-15 11-32 15l7 19-13 3q-16 4-34 4-23 0-40-7-17 7-40 7-18 0-33-4l-14-3 7-19q-17-4-32-15-8-5-12-10l-7-7 5-9q4-6 13-13-16-10-27-26-5-8-7-14l-3-10 15-8q-6-6-9-14-7-19-5-47 1-14 4-25l3-13 17 6q0-9 4-18 9-18 29-33 11-8 21-12l12-6 4 13q5 12 6 30 2 34-16 63-1 7-1 21l-1 12q1 50 27 81 9 11 20 17t20 8q10-2 20.5-8t19.5-17q27-31 27-81v-12q-1-14-2-21-18-29-16-63 1-18 6-30l5-13 12 6q9 4 20 12 21 15 29 33 4 9 4 18l17-6 3 13q3 11 4 25 3 28-5 47-3 8-9 14l15 8-3 10q-2 6-7 14-11 16-27 26h1zM61 105q11-15 14-33 2-14 0-28-17 12-23 26-4 7 0 18 3 8 9 17zm-32 42q2 4 6 7.5t10 5.5q7-1 13-2v-7q-9-28-32-44-3 25 3 40zm31 66q5-3 10-5-5-12-8-25-15 1-30 7 11 15 28 23zm32 33q-6-8-11-15-16 6-28 16 14 10 30 12 4-7 9-13h0zm51 31q-16-4-32-15-7 10-13 20 28 3 45-5zm96-172q6-9 9-17 4-11 1-18-7-14-24-25-2 13 0 27 3 18 14 33zm-36 177q-6-10-14-20-15 11-32 15 17 8 46 5zm44-35q-11-10-28-16-4 7-11 15 5 6 10 13 15-2 29-12zm21-57q-15-5-30-7-2 13-7 25l9 4q17-7 28-22zm6-83q-23 16-32 44v7q6 1 13 2 6-2 10-5.5t6-7.5q6-15 3-40z"/></svg>