<svg viewBox="0 0 300 311" xmlns="http://www.w3.org/2000/svg"><path d="M300 170v-25h-13q-4-42-31-75l9-9-18-18-9 9q-33-27-76-31V8h-25v13q-42 4-75 31l-9-9-18 18 9 9q-27 33-31 76H0v25h13q4 42 31 75l-9 9 18 18 9-9q33 27 76 31v13h25v-13q42-4 75-31l9 9 18-18-9-9q27-33 31-76h13zm-38-25l-51 1q-2-12-9-22l36-36q20 25 24 57zM162 46q33 4 58 24l-36 36q-10-7-22-9V46zm-25 0v51q-11 2-22 9L80 70q25-20 57-24zM62 88l36 36q-7 10-9 22H38q4-33 24-58zm-24 83h51q2 11 9 21l-36 36q-20-25-24-57zm42 75l36-36q10 7 21 9v51q-32-4-57-24zm33-88q0-15 11-26t26.5-11q15.5 0 26.5 11t11 26.5q0 15.5-11 26.5t-26.5 11q-15.5 0-26.5-11t-11-27zm49 112v-51q12-2 22-9l36 36q-25 20-57 24h-1zm76-42l-36-35q7-11 9-22l51-1q-4 33-24 58z"/></svg>