<svg viewBox="0 0 300 311" xmlns="http://www.w3.org/2000/svg"><path d="M260 174l13-10-21-16 48-47-18-18-51 51q-16-9-27-12l95-96-17-17-96 95q-3-11-13-27l52-51-18-18-48 48-15-21-10 13q-20 27-29 47L18 9 1 26l281 281 17-17-86-87q20-9 47-29zm-66-29q4 1 14.5 6t22.5 13q-12 8-22.5 13.5T194 183v1l-26-26 5-5q11-7 21-8zm-69-31q0-4 5.5-14.5T144 77q8 12 13.5 22.5T163 114q0 10-8 21l-5 5-26-26h1zm39 111q-15 8-20 8-10 0-36-15l15-15q6-4 13-6l-25-25q-2 7-6 13l-15 15q-15-26-15-36 0-5 8-20l-18-18q-7 12-11 22l-10-13-10 13q-12 15-20 30-14 23-14 36 0 18 22 55L1 290l17 17 21-21q37 22 55 22 13 0 36-14 15-8 30-20l13-10-13-10q10-4 22-11l-18-18zM25 214q0-4 5.5-14.5T44 177q8 12 13 22.5t6 14.5q-1 10-8 21l-15 15q-15-26-15-36zm69 69q-10 0-36-15l15-15q11-8 21-7 4 0 14.5 5t22.5 13q-12 8-22.5 13.5T94 283z"/></svg>