<svg viewBox="0 0 300 311" xmlns="http://www.w3.org/2000/svg"><path d="M263 8H38Q22 8 11 19T0 46v51l14 161h24v6q0 18 12.5 31T81 308q18 0 31-13t13-31v-31H37L26 108h248l-3 33q14 12 23 22l6-68V45q0-15-11-26T262 8h1zM63 258h37v6q0 8-5.5 13.5T81 283q-8 0-13-5.5T63 264v-6zM163 33h37v50h-37V33zm-25 50h-38V33h38v50zM38 33h37v50H25V45q0-5 3.5-8.5T38 33zm237 50h-50V33h38q5 0 8.5 3.5T275 45v38zm-24 73l-1-1-13-12-11-11-9 13q-5 8-9 19-2 6-5 17-2 10-4 13-2-6-3-13l-5-24-17 17q-9 11-16.5 27t-7.5 32q0 20 10 37.5t27.5 27.5q17.5 10 37.5 10t37.5-10q17.5-10 27.5-27.5t10-37.5q0-23-17-45-10-12-32-32zm-3 121q3-7 1.5-14t-6.5-12l-18-18-18 18q-5 5-6.5 12t1.5 14q-12-7-19.5-18.5T175 233q0-10 5-22 7 10 17 10 15 0 22-12 5-7 8-22h1q2-10 4-15l2 3q20 17 28 26 13 17 13 31.5t-7.5 26Q260 270 248 277z"/></svg>