<svg viewBox="0 0 300 311" xmlns="http://www.w3.org/2000/svg"><path d="M274 148q-2-35-21-50-12-9-27-9-21 0-35 16-16 18-16 53v14q-12-8-25.5-8t-24.5 7q-17 12-22 38-12 4-20 14t-8 22q0 16 13 36 7 11 16 19l9 9 8-9q9-8 16-19 13-20 13-36 0-11-6-20t-16-14q5-22 21-22 13 0 19.5 11.5T175 233v75h25V158q0-21 6.5-32.5T226 114q20 0 23 34-11 4-17.5 13.5T225 183q0 16 13 36 7 10 16 19l9 8 8-8q9-9 16-19 13-20 13-36 0-12-7-22t-19-13zM113 272q-13-16-13-27 0-4 3-7.5t8-4.5h3q5 1 8 4.5t3 7.5q0 11-12 27zm150-62q-13-17-13-27 0-5 3.5-8.5t9-4q5.5-.5 9 3.5t3.5 9q0 10-13 27h1zM60 165l-39 23-12-22 39-23q-2-5-3-10H0v-25h45q1-5 3-11L9 75l12-22 39 23 8-8-23-38 22-13 22 39q6-2 11-3V8h25v45q5 1 10 3l23-39 21 13-22 38q10 9 16 20-11 12-17 30-1-17-13.5-29T112 77q-18 0-30.5 12.5T69 121q0 14 8 25t21 16q-8 9-13 21-14-6-25-18z"/></svg>