<svg viewBox="0 0 300 311" xmlns="http://www.w3.org/2000/svg"><path d="M219 8q-22 0-40 18.5T150 77q-11-32-29-50.5T81 8Q59 8 40.5 28T11 82.5Q0 117 0 158t11 75.5Q22 268 40.5 288T81 308q22 0 40-18.5t29-50.5q11 32 29 50.5t40 18.5q22 0 40.5-20t29.5-54.5q11-34.5 11-75.5t-11-75.5Q278 48 259.5 28T219 8zM81 283q-14 0-27.5-17.5T32 218q6 2 12 3 13-1 22-10t9-22q0-13-9-22t-22-9q-10 0-19 6v-6q0-35 9-65 8-28 21-44t26.5-16Q95 33 108 49t21 44q9 30 9 65t-9 65q-8 28-21 44t-27 16zm138 0q-14 0-27.5-17.5T170 218q6 2 11 3 13-1 22-10t9.5-22q.5-13-9-22t-22.5-9q-10 0-18 6v-6q0-35 8-65 8-28 21-44t26.5-16Q232 33 245 49t21 44q9 30 9 65t-9 65q-8 28-21 44t-26 16z"/></svg>