<svg viewBox="0 0 300 311" xmlns="http://www.w3.org/2000/svg"><path d="M263 277v31h-25v-31q0-13-9-22t-21-9l-33 49-25-37-25 37-33-49q-12 0-20.5 9T63 277v31H38v-31q0-24 16-40t40-16h112q24-1 40.5 15.5T263 277zM160 84q12 3 21 11.5t11 20.5q4 16-2 30h16q5-1 8.5-4t3.5-7q2-12-1-23-4-20-18.5-34.5t-35-18.5q-20.5-4-40 4t-31 25.5Q81 106 81 127q0 13 5 25.5t14 21.5q1-16 11-28-5-9-5-19 0-14 7.5-25t20-16q12.5-5 26.5-2zM86 58q14-13 32.5-19.5T156 33q24 2 44.5 15.5t32 35Q244 105 244 130q0 17-12 28.5T204 170h-30q-3-7-9.5-12t-16-5q-9.5 0-16.5 7t-7 17.5q0 10.5 7 18t17.5 7.5q10.5 0 17.5-8h37q17 0 32-8.5t24-23.5q9-15 9-33 0-31-15-58.5T213.5 27Q188 10 158 8q-25-1-48 7T69.5 39.5Q52 56 42.5 77T31 121h25q2-18 9.5-34T86 58z"/></svg>