<svg viewBox="0 0 300 311" xmlns="http://www.w3.org/2000/svg"><path d="M263 8H150q-13 0-23.5 8.5T113 38q-9-5-19-5-18 0-31 13T50 77q0 9 4 18H25V8H0v300h25v-38h250v38h25V45q0-15-11-26T262 8h1zM94 58q8 0 13 5.5t5.5 13.5q.5 8-5 13T94 95q-8 0-13.5-5T75 77q0-8 5.5-13.5T94 58zm0 187q-8 1-13.5-4.5T75 227q0-8 5.5-13.5T94 208q8 0 13 5.5t5.5 13.5q.5 8-5 13T94 245zm181 0H138v-50q0-5 3.5-8.5t8.5-3.5h125v62zm0-87H150q-13 0-23.5 8.5T113 188q-9-5-19-5-18 0-31 13t-13 31q0 9 4 19H25V120h250v38zm0-63H138V45q0-5 3.5-8.5T150 33h113q5 0 8.5 3.5T275 45v50z"/></svg>