<svg viewBox="0 0 300 311" xmlns="http://www.w3.org/2000/svg"><path d="M150 8q-41 0-75.5 20T20 82.5Q0 117 0 158t20 75.5Q40 268 74.5 288t75.5 20q41 0 75.5-20t54.5-54.5q20-34.5 20-75.5t-20-75.5Q260 48 225.5 28T150 8zm0 275q-34 0-62.5-17T42 220.5Q25 192 25 158t17-62.5Q59 67 87.5 50T150 33q34 0 62.5 17T258 95.5q17 28.5 17 62.5t-17 62.5Q241 249 212.5 266T150 283zm-25-150q0 4 2.5 6.5t5.5 3.5l38 6q13 2 21 11.5t8 22.5q0 16-11 27t-26 10v25h-25v-25q-16 0-27-10.5T100 183h25q0 5 3.5 8.5t8.5 3.5h26q5 1 8.5-3t3.5-8.5q0-4.5-2.5-7T167 173l-38-6q-13-2-21-11.5t-8-22.5q0-16 11-26.5T137 96V70h26v25q15 1 26 11.5t11 26.5h-25q0-5-3.5-9t-9.5-4h-24q-6 0-9.5 4t-3.5 9z"/></svg>