<svg viewBox="0 0 300 311" xmlns="http://www.w3.org/2000/svg"><path d="M250 95q0-11-6.5-20.5T226 61l-38-16V33h12V8H100v25h13v12L74 61q-11 4-17.5 13.5T50 96v24q0 15 10 25-10 11-10 26v24q0 15 10 25-10 11-10 26v62h200v-63q0-14-10-24 10-11 10-25v-26q0-14-10-24 10-11 10-26V95zm-25 188H75v-38q0-5 3.5-8.5T88 233h125q5 0 8.5 3.5t3.5 9.5v37zm0-88q0 6-3.5 9.5T213 208H88q-6 0-9.5-3.5T75 195v-25q0-5 3.5-8.5T88 158h125q5 0 8.5 3.5t3.5 8.5v25zm0-75q0 6-3.5 9.5T213 133H88q-6 0-9.5-3.5T75 121V95q0-3 2-6.5t6-4.5l55-22V33h25v29l54 22q4 1 6 4.5t2 7.5v24z"/></svg>