<svg viewBox="0 0 300 311" xmlns="http://www.w3.org/2000/svg"><path d="M42 225q-24-20-34.5-49T1 116.5q4-30.5 22-56t45.5-39Q96 8 126.5 8T185 24l22 12-24 10q-18 8-31.5 22.5T130 101q-16 6-30 16 4-24 17-45t33-36q-12-3-26-3-30 0-55 16.5T32.5 94Q21 122 27 151.5T54 203q-8 10-12 22zm258 14q0-18-9-33.5t-24.5-25Q251 171 233 171q-9-26-32.5-40t-50.5-9.5q-27 4.5-44.5 25.5T88 195v10q-16 10-22 27.5T65 268q5 18 20 29t34 11h112q19 0 34.5-9.5t25-25Q300 258 300 239zm-88-53l2 12 17-3q18 1 31 13.5t13 30.5q0 18-13 31t-31 13H119q-11 0-20-7t-11-18q-2-11 3.5-21t15.5-14l10-4-3-11q-1-6-2-13 1-19 14-33t32-16q19-2 34.5 9.5T212 186z"/></svg>