<svg viewBox="0 0 300 311" xmlns="http://www.w3.org/2000/svg"><path d="M225 185v-77h-25v77q-13 5-20 16.5t-4.5 25q2.5 13.5 13 22.5t24 9q13.5 0 24-9t13-22.5q2.5-13.5-4.5-25T225 185zm-12 48q-6 0-9.5-3.5t-3.5-9q0-5.5 3.5-9t9-3.5q5.5 0 9 3.5t3.5 9q0 5.5-3.5 9T213 233zm62-74V70q0-16-8.5-30.5t-23-23Q229 8 212.5 8t-31 8.5q-14.5 8.5-23 23T150 71v88q-17 17-22.5 39.5t.5 45q6 22.5 23 39t39.5 22.5q22.5 6 44.5 0t39-22.5q17-16.5 23-39t.5-45Q292 176 275 159zm-62 124q-20 0-36-11t-23-29q-7-18-2.5-37t19.5-32l4-4V70q0-15 11-26t26.5-11Q228 33 239 44t11 27v99l4 4q15 13 19.5 32t-2.5 37q-7 18-23 29t-35 11zM63 120q-1 21 13.5 35.5T112 171q-6 11-9 24-9-1-17-5l-19 34-22-13 20-33q-6-4-10-10l-33 20-13-22 33-19q-2-7-3-14H0v-25h39q1-7 3-14L9 75l13-22 33 19q4-5 10-9L45 30l22-13 19 33q7-2 14-3V8h25v62h-12q-21 0-35.5 15T62 121l1-1z"/></svg>