<svg viewBox="0 0 300 311" xmlns="http://www.w3.org/2000/svg"><path d="M188 83h-75V58h75v25zm75 154l-3 3q-7 10-18 18l21 50h-28l-15-38q-34 14-70 14t-70-14l-15 38H38l20-50q-11-8-18-18l-2-3V58q0-10 6.5-18.5T61 27q43-18 89-19 46 1 89 19 10 4 16.5 12.5T263 58v179zM63 61q0 28 10 55 11 29 30 47 21 20 47 20t47-20q19-18 30-47 10-27 10-55 0-3-2-6t-5-5q-39-15-80-17-41 2-80 17-3 2-5 5t-2 6zm175 90q-16 26-38.5 41.5T150 208q-27 0-49.5-15.5T62 151v78q10 10 26 17 26 12 62 12t62-12q16-7 26-17v-78zm-88 69q-5 0-9 4t-3.5 9q.5 5 4 8.5t8.5 3.5q5 0 9-3.5t4-8.5q0-5-4-8.5t-9-3.5v-1z"/></svg>