<svg viewBox="0 0 300 311" xmlns="http://www.w3.org/2000/svg"><path d="M81 285l-13-22q21-12 31-34 9-18 12-44 2-14 2-40 0-15 10.5-26t26.5-11q16 0 27 11t11 27h-25q0-6-4-9.5t-9-3.5q-5 0-9 3.5t-4 8.5q1 29-2 45-3 30-14 52-14 27-40 43zm105-101l-25-2q-6 70-45 107l18 18q45-43 52-123zm35 78l-24-8q-8 21-20 40l21 14q14-22 23-46zm17-117q-1-27-16-49t-40.5-32q-25.5-10-52-3.5T85 87l18 17q13-15 32-19.5t37 2.5q18 7 29 23t11 35q1 37-5 73l24 5q7-38 7-78zm-150 0q-1-5 0-10l-24-4q-1 7-1 15 0 87-50 87v25q36 0 55.5-29T88 145zm200 0q0-31-14-59l-23 11q12 23 12 48 2 78-29 150l23 10q33-76 31-160zm-250 0q0-30 15-56t40.5-41Q119 33 150 33q38 0 68 23l15-21q-18-13-39.5-20T150 8q-37 0-68.5 18.5t-50 50Q13 108 13 146v37h25v-38z"/></svg>