<svg viewBox="0 0 300 311" xmlns="http://www.w3.org/2000/svg"><path d="M263 45H38q-16 0-27 11.5T0 83v187h300V83q0-15-11-26.5T263 45zm12 200h-47l-15-25H88l-17 25H25V83q0-5 3.5-9t9.5-4h225q5 0 8.5 4t3.5 9v162zm-62-137H88q-16 0-27 11t-11 26.5Q50 161 61 172t27 11h125q15 0 26-11t11-26.5q0-15.5-11-26.5t-26-11zm-36 25q-2 6-2 12.5t2 12.5h-54q2-6 2-12.5t-2-12.5h54zM75 145q0-5 3.5-8.5t9-3.5q5.5 0 9 3.5t3.5 9q0 5.5-3.5 9t-9 3.5q-5.5 0-9-3.5T75 145zm138 13q-6 0-9.5-3.5t-3.5-9q0-5.5 3.5-9t9-3.5q5.5 0 9 3.5t3.5 9q0 5.5-3.5 9T213 158z"/></svg>