<svg viewBox="0 0 300.008 311" xmlns="http://www.w3.org/2000/svg"><path d="M270 248q27-35 30-78 2-41-16.5-78.5T231 31Q194 7 150 7T70 31Q35 54 16.5 91.5T0 170q3 44 31 78-10 5-15 15t-2.5 20.5Q16 294 24.5 301t19.5 7h212q11 0 19.5-7t11-17.5Q289 273 284 263t-14-15zm-14 35H44q-3 0-4.5-2t-1.5-4.5q0-2.5 2-4.5t4-2q6 1 11-2.5t6.5-9Q63 253 61 247q-2-3-7-9-25-29-28-66-4-35 11.5-67T82 53q30-20 68-20t69 20q28 20 43.5 52.5T274 172q-4 37-28 66-5 6-7 9-2 6-.5 11.5t6.5 9q5 3.5 11 3.5 3-1 5 1t2 4.5q0 2.5-2 4.5t-5 2zM150 58q-27 0-50 13.5T63.5 108Q50 131 50 158q1 38 22 64 19 23 48.5 31t59 0q29.5-8 48.5-31 21-26 22-64 0-27-13.5-50T200 71.5Q177 58 150 58zm-10 114q-1-6-2.5-11t-3.5-9q9-4 16-11 3 4 7 6.5t9 4.5q-5 9-6 20-10-3-20 0zm74-53l-18 7-6 3q-10 3-18.5-2.5T163 110V84q16 3 29.5 12t21.5 23zm-76-35v26q-1 11-9.5 16.5T110 129l-24-10q8-14 21.5-23T138 84zm-63 74q0-8 2-16l21 9q12 5 15.5 17.5T109 191l-13 19q-10-11-15.5-24.5T75 158zm41 67l14-20q8-9 20-9t20 9l14 20q-16 8-34 8t-34-8zm88-15l-13-19q-8-10-4.5-22.5T202 151l21-9q4 18-1 36t-18 32z"/></svg>