<svg viewBox="0 0 300 311" xmlns="http://www.w3.org/2000/svg"><path d="M150 8q-41 0-75.5 20T20 82.5Q0 117 0 158t20 75.5Q40 268 74.5 288t75.5 20q41 0 75.5-20t54.5-54.5q20-34.5 20-75.5t-20-75.5Q260 48 225.5 28T150 8zm0 275q-34 0-62.5-17T42 220.5Q25 192 25 158t17-62.5Q59 67 87.5 50T150 33q34 0 62.5 17T258 95.5q17 28.5 17 62.5t-17 62.5Q241 249 212.5 266T150 283zm44-135q6-11 6-23 0-19-13.5-32T155 80h-36q-13 0-22.5 9T87 111v94q0 13 9.5 22t22.5 9h61q18 0 31.5-13t13.5-32q0-15-8.5-27T194 148zm-81-37q-1-2 1-4t5-2h36q8 0 14 6t6 14.5q0 8.5-6 14.5t-14 6h-42v-35zm67 100h-61q-3 0-4.5-2t-1.5-4v-35h67q8 0 14 6t6 14.5q0 8.5-6 14.5t-14 6z"/></svg>