<svg viewBox="0 0 300 311" xmlns="http://www.w3.org/2000/svg"><path d="M0 45v88h125V8H38Q22 8 11 19T0 46v-1zm100 63H25V45q0-5 3.5-8.5T37 33h63v75zm175-63q0-15-11-26T237 8h-87v125h125V45zm-25 63h-75V33h63q5 0 8.5 3.5T250 45v63zM0 245q0 16 11 27t27 11h87V158H0v87zm25-62h75v75H38q-6 0-9.5-3.5T25 246v-63zm275 107l-35-35q10-16 10-33.5t-8.5-32q-8.5-14.5-23-23t-31-8.5q-16.5 0-31 8.5t-23 23q-8.5 14.5-8.5 31t8.5 31q8.5 14.5 23 23t32 8.5q17.5 0 33.5-10l35 35 18-18zm-87-32q-16 0-27-11t-11-26.5q0-15.5 11-26.5t26.5-11q15.5 0 26.5 11t11 26.5q0 15.5-11 26.5t-26 11z"/></svg>