<svg viewBox="0 0 300 311" xmlns="http://www.w3.org/2000/svg"><path d="M213 133q-24 0-44 12t-32 32q-12 20-12 43.5t12 43.5q12 20 32 32t43.5 12q23.5 0 43.5-12t32-32q12-20 12-43.5T288 177q-12-20-32-32t-44-12h1zm0 150q-17 0-31.5-8.5t-23-23q-8.5-14.5-8.5-31t8.5-31q8.5-14.5 23-23t31-8.5q16.5 0 31 8.5t23 23q8.5 14.5 8.5 31t-8.5 31q-8.5 14.5-23 23T212 283h1zm12-68l21 22-17 17-29-28v-43h25v32zm38-157h-38V33q0-10-7.5-17.5T200 8H100q-10 0-17.5 7.5T75 33v25H38q-16 0-27 11T0 95v213h142q-14-11-23-25H25V183h82q4-14 12-25H25V95q0-5 3.5-8.5T38 83h225q5 0 8.5 3.5T275 96v31q14 9 25 23V95q0-15-11-26t-27-11h1zM100 33h100v25H100V33z"/></svg>