<svg viewBox="0 0 300 311" xmlns="http://www.w3.org/2000/svg"><path d="M225 37q-18-16-41-23.5T136.5 9q-24.5 3-46 16.5T55.5 60Q42 81 38 106q-3 27 6 52.5T73 203q13 12 20 26.5t7 30.5v48h100v-46q0-17 6.5-32t17.5-25q18-16 28-38t10.5-46.5q.5-24.5-9.5-46T225 37zm-50 246h-50v-25h50v25zm33-97q-21 19-29 47h-58q-8-27-31-49-15-14-22-34t-5-41q4-29 25.5-50.5T140 34q19-3 36.5 3T208 55.5Q222 68 229.5 85t7.5 35.5q0 18.5-7.5 36T208 186zm-21-85q2 12-3 23t-16 17q-2 1-4 4.5t-2 6.5v6h-24v-6q0-10 5-19.5t13-13.5q3-2 5-5.5t1.5-7.5q-.5-4-3.5-7t-7-3q-6-1-10 2.5t-4 9.5h-25q0-17 13-28.5t31-8.5q11 2 19.5 10.5T187 101zm-49 82h25v25h-25v-25z"/></svg>