<svg viewBox="0 0 300 311" xmlns="http://www.w3.org/2000/svg"><path d="M263 52q0-8 5-13.5t13-5.5q8 0 13.5 5.5T300 52q0 8-5.5 13.5t-13.5 5q-8-.5-13-5.5t-5-13zM57 157q12-13 12-30.5T56 96Q43 83 25 83H0v25h25q8 0 13.5 5.5T44 127q0 8-5.5 13T25 145H13v25h12q10 0 17.5 7.5t7.5 18q0 10.5-7.5 17.5T25 221H0v24h25q21 0 35.5-14.5T75 195q0-11-5-21t-13-17zm131 38q0 21-15 35.5T137.5 245q-20.5 0-35-14.5T88 195v-56q0-23 16-39.5T144 83h31v25h-31q-13 0-22.5 9t-9.5 22v13q12-7 26-7 20 0 35 15t15 36v-1zm-25 0q0-10-7.5-17.5t-18-7.5q-10.5 0-18 7.5t-7 18q.5 10.5 7.5 18t17.5 7q10.5-.5 18-7.5t7.5-18zm137-62v62q0 21-14.5 35.5T250 245q-21 0-35.5-14.5T200 195v-62q0-21 14.5-35.5T250 83q21 0 35.5 14.5T300 133zm-25 0q0-10-7.5-17.5T250 108q-10 0-17.5 7.5T225 133v62q0 11 7.5 18.5t17.5 7q10-.5 17.5-7.5t7.5-18v-62z"/></svg>