<svg viewBox="0 0 300 311" xmlns="http://www.w3.org/2000/svg"><path d="M150 95q-17 0-31.5 8.5t-22.5 23Q88 141 88 158t8 31.5q8 14.5 22.5 22.5t31.5 8q17 0 31.5-8t22.5-22.5q8-14.5 8.5-31.5t-8-31.5q-8.5-14.5-23-22.5T150 96v-1zm0 100q-16 0-26.5-10.5T113 158q0-16 10.5-26.5t26.5-11q16-.5 26.5 10.5t11 27q.5 16-10.5 26.5T150 195zm150-50h-26q-3-29-18-53.5T216.5 52Q192 37 162 34V8h-24v26q-30 3-54.5 18T44 91.5Q29 116 26 146H0v24h26q3 30 18 54.5T83.5 264q24.5 15 53.5 18v26h26v-26q29-3 53.5-18t39.5-39.5q15-24.5 18-53.5h26v-26zM150 258q-27 0-50-13.5T63.5 208Q50 185 50 158t13.5-50Q77 85 100 71.5T150 58q27 0 50 13.5t36.5 36.5q13.5 23 13.5 50t-13.5 50Q223 231 200 244.5T150 258z"/></svg>