<svg viewBox="0 0 300 311" xmlns="http://www.w3.org/2000/svg"><path d="M150 8q-41 0-75.5 20T20 82.5Q0 117 0 158t20 75.5Q40 268 74.5 288t75.5 20q41 0 75.5-20t54.5-54.5q20-34.5 20-75.5t-20-75.5Q260 48 225.5 28T150 8zm-50 265v-28q0-5 3.5-8.5t9.5-3.5h75q5 0 8.5 3.5t3.5 8.5v28q-24 10-50 10t-50-10zm125-15v-13q0-15-11-26t-26-11h-75q-16 0-27 11t-11 26v13q-23-18-36.5-44T25 158q0-34 17-62.5T87.5 50Q116 33 150 33t62.5 17Q241 67 258 95.5t17 62.5q0 30-13.5 56T225 258zM150 83q-21 0-35.5 14.5T100 133q0 21 14.5 35.5T150 183q21 0 35.5-14.5T200 133q0-21-14.5-35.5T150 83zm0 75q-10 0-17.5-7.5T125 133q0-10 7.5-17.5T150 108q10 0 17.5 7.5T175 133q0 10-7.5 17.5T150 158z"/></svg>