<svg viewBox="0 0 300.5 311" xmlns="http://www.w3.org/2000/svg"><path d="M216.5 85q11-13 17-30t4-35V9l-11-1q-18-1-35 4.5t-31 17.5q-4 4-7 9-5-16-13-30l-22 12q16 29 19 62h-31q-29 1-54 16.5t-39 41Q-.5 166 0 195t13.5 54q13 25 35.5 40.5T98.5 308q27 3 52-10 25 13 52 10t49.5-18.5q22.5-15.5 35.5-40.5t13-54q0-25-10.5-48t-30-39q-19.5-16-43.5-23zm-38-37q14-13 34-14-1 19-14 34-15 13-35 14 2-19 15-34zm16 235q-20 0-38-10l-6-3-6 3q-26 15-54.5 8t-47-31q-18.5-24-17.5-55-1-22 9.5-42t29.5-32q19-12 42-13h88q30 1 51 19 19 17 26 43t0 51.5q-7 25.5-26 42.5-21 18-51 19z"/></svg>