<svg viewBox="0 0 300 311" xmlns="http://www.w3.org/2000/svg"><path d="M188 177q-1 8-6 13.5t-13 5.5q-8 0-13.5-5.5T150 177q0-8 5.5-13.5T169 158q8 0 13.5 5.5T188 177zm-94-7q-8 1-13.5 6T75 189q0 8 5.5 13.5T94 208q8 0 13.5-5.5t5-13.5q-.5-8-5.5-13.5T94 170zm180-37q-2 11-6 21l23 14-13 22-23-15-15 16 18 19-17 18-19-19-21 21 19 19-18 17-19-18-16 15 15 23-22 13-14-23q-10 4-21 6v26h-25v-26q-11-1-21-6l-13 23-22-13 13-22-6-7q-5-4-9-9l-22 12-12-21 22-13q-3-9-4-18H0v-25h26q2-11 6-21L9 148l13-21 23 14 15-17-18-17 18-18 18 18 21-21-18-18 18-18 18 18 16-15-14-23 22-13 13 23q10-4 21-6V8h25v26q9 1 18 4l13-22 22 12-13 22q5 4 9 9l7 6 22-13 13 22-22 13q4 10 5 21h26v25h-26zm-24-13q0-26-18-44-9-9-20.5-13.5T188 58q-12 0-23.5 4.5T144 76l-76 76q-12 12-16 28t0 32q4 16 16 28t28 16q16 4 32 0t28-16l76-76q18-18 18-44zm-69-37q-8 0-13.5 5.5t-5 13.5q.5 8 5.5 13.5t13 5.5q8 0 13.5-5.5T200 102q0-8-5.5-13.5T181 83z"/></svg>