<svg viewBox="0 0 300 311" xmlns="http://www.w3.org/2000/svg"><path d="M299 103q-1-17-9.5-33.5T268 40q-13-13-29.5-21.5t-34-10Q187 7 171.5 12T144 28q-17 18-20 44 0 8-5 16t-14 14q-18 13-25.5 34T77 179q4 13 11 23L1 290l17 17 88-87q10 7 23 11 9 2 18 2 18 0 33.5-8t25.5-22q6-9 14-14t16-5q26-3 44-20 11-12 16-27.5t3-33.5zm-37 43q-11 11-28 13-14 1-26.5 8.5t-21.5 20q-9 12.5-22.5 17.5t-28.5 1q-12-3-21-12t-12-21q-4-15 1-28.5t17.5-22.5q12.5-9 20-21.5T149 74q2-17 13-28 13-13 33-13h7q27 3 48.5 24.5t24 47.5q2.5 26-12.5 41z"/></svg>