<svg viewBox="0 0 300 311" xmlns="http://www.w3.org/2000/svg"><path d="M238 95h-88v-6q0-20-12-35v-9q0-15-11-26T100 8v26l-8-1q-12 1-18 3L28 52Q11 58 3.5 74.5t-1.5 33Q8 124 26 133q9 4 37 9v166h87v-50h63v50h87V158q0-17-8.5-31.5t-23-22.5Q254 96 238 96v-1zM37 110q-9-4-11.5-11t1-14Q30 78 37 76l45-16q3-1 13-2 13 1 21.5 10t8.5 21v31h112q16 0 27 11t11 27q-14-2-25 8l-16 15q-4 4-8 0l-16-15q-9-8-20.5-8t-20.5 8l-17 15q-4 4-7 0l-17-15q-9-8-20-8t-21 8v-46l-10-1q-32-5-40-9zm201 173v-50H125v50H88v-83l16-15q4-4 7 0l17 15q9 8 20.5 8t20.5-8l16-15q4-4 8 0l17 15q9 8 20.5 8t20.5-8l16-15q4-4 8 0v98h-37z"/></svg>