<svg viewBox="0 0 300 311" xmlns="http://www.w3.org/2000/svg"><path d="M150 8q-41 0-75.5 20T20 82.5Q0 117 0 158t20 75.5Q40 268 74.5 288t75.5 20q41 0 75.5-20t54.5-54.5q20-34.5 20-75.5t-20-75.5Q260 48 225.5 28T150 8zm125 150q0 37-21 69-16-19-16-44v-25h-75q-6 0-9.5-3.5T150 146v-13h38V83h36l14-14q18 18 27.5 41t9.5 48zM26 170l50 50h49q5 0 9 4t4 9v49q-30-3-54.5-18.5t-40-40Q28 199 26 170zm137 112v-49q0-16-11-27t-27-11H86l-59-59q5-31 24.5-55.5t48.5-37q29-12.5 60.5-10T218 53l-4 5h-51v50h-38v37q0 16 11 27t27 11h50q-1 18 6 34.5t19 28.5q-15 16-34.5 25T162 282h1z"/></svg>