<svg viewBox="0 0 300 311" xmlns="http://www.w3.org/2000/svg"><path d="M275 133q0-16-9-28.5t-23.5-18Q228 81 213 84.5T187 100q-9-11-24-15 2-23 11-36 7-10 17-14 5-2 9.5-2t8.5 3.5q4 3.5 4 8.5v25q10 0 17-7t7-18q0-15-10.5-26T200 8.5q-16 .5-29 9T150 40q-11-21-32-31l-11 23q27 13 30 53-14 4-25 15-10-12-26-15.5t-31 3Q40 94 32 108t-6.5 30Q27 154 38 166t26 16q-1 7-1 13 0 18 11 32t28 17q-2 7-2 14 0 21 14.5 35.5T150 308q21 0 35.5-14.5T200 258q0-7-2-14 17-3 28-17t11-31q0-7-1-14 17-4 28-17.5t11-31.5zm-125-25q10 0 17.5 7.5T175 133q0 10-7.5 17.5T150 158q-10 0-17.5-7.5T125 133q0-10 7.5-17.5T150 108zM50 133q0-10 7.5-17.5T75 108q10 0 17.5 7.5T100 133q0 10-7.5 17.5T75 158q-10 0-17.5-7.5T50 133zm38 62q0-9 6-16 11-4 18-13 8 9 19 13 6 7 6.5 15t-4 15q-4.5 7-12.5 10t-16 .5q-8-2.5-13-9T88 196v-1zm62 88q-7 0-13.5-4t-9.5-10.5q-3-6.5-2-14t6-12.5q11-4 19-13 8 9 19 13 5 5 6 12.5t-2 14q-3 6.5-9.5 10.5t-13.5 4zm38-63q-8 1-14-3t-9-11q-3-7-2-14t6-13q11-4 19-13 7 9 18 13 5 6 6 13t-2 14q-3 7-9 11t-13 3zm37-62q-10 0-17.5-7.5T200 133q0-10 7.5-17.5T225 108q10 0 17.5 7.5T250 133q0 10-7.5 17.5T225 158z"/></svg>