<svg viewBox="0 0 300 311" xmlns="http://www.w3.org/2000/svg"><path d="M300 290l-17 18-91-91q-13-5-21-17.5t-8-29.5v-25q0-21 13-35.5T208 95h4q13 0 24 8.5t17 22.5l-24 9q-2-6-7-10.5t-10-4.5h-4q-9 0-14.5 7t-5.5 18v25q0 12 5.5 18.5T208 195h4q5 0 9.5-3.5T229 181l23 10q-8 19-25 26l28 28h20V83q0-5-3.5-9t-8.5-4H80l26 26q11 2 20 10t14 20l-23 9q-3-6-8-10.5T99 120h-4q-9 0-14.5 7T75 145v25q0 12 5.5 18.5T95 195h4q5 0 10-3.5t8-10.5l23 10q-6 13-17 21t-24 8h-4q-19 0-32-14t-13-36v-25q0-14 6.5-26T75 100L0 26 18 8l37 38h208q15 0 26 11t11 26v188h-20l20 19zM25 245V86L5 65q-5 9-5 18v187h210l-25-25H25z"/></svg>