<svg viewBox="0 0 300 311" xmlns="http://www.w3.org/2000/svg"><path d="M63 170q-17 0-31.5 8.5t-23 23Q0 216 0 233t8.5 31.5Q17 279 31.5 287t31 8q16.5 0 31-8t23-22.5Q125 250 125 233t-8.5-31.5Q108 187 93.5 179T63 171v-1zm0 100q-16 0-27-10.5T25 233q0-16 11-27t26.5-11Q78 195 89 206t11 27q0 16-11 26.5T63 270zm175-100q-17 0-31.5 8.5t-23 23Q175 216 175 233t8.5 31.5q8.5 14.5 23 22.5t31 8.5q16.5.5 31-8t23-23Q300 250 300 233t-8.5-31.5q-8.5-14.5-23-22.5t-30.5-8v-1zm0 100q-16 0-27-10.5T200 233q0-16 11-26.5t26.5-11Q253 195 264 206t11 27q0 16-11 26.5T237 270h1zM125 140q0-6 4-9l33-31 55 54 18-17-65-64q-20-15-46-15-10 0-24 5-16 6-25 16-12 13-12 29t10.5 26.5Q84 145 100 145h1q2 14 12 23l25 21v56h25v-68l-33-28q-5-4-5-9zm-37-32q0-7 6.5-12.5t15.5-9q9-3.5 14-3.5 9 0 17 3l-29 27q-9 7-13 7.5t-7.5-3.5q-3.5-4-3.5-9zm87-69q0-13 9-22t22-9q13 0 22 9t9.5 22q.5 13-9 22T206 70q-13 0-22-9t-9-22z"/></svg>