<svg viewBox="0 0 300 311" xmlns="http://www.w3.org/2000/svg"><path d="M188 246l111 38-8 23-141-48L9 307l-8-23 111-38L1 207l8-23 141 48 141-48 8 23-111 39zM63 120q0-18 9-35 7-12 19-24l14-15 7 20q2 7 6 13l3-13q3-15 6-24 5-14 14-23l8-11 10 10q5 5 20 17 28 22 39 36 19 24 19 48.5T225.5 164Q214 184 194 196t-44 12q-24 0-44-12t-31.5-32Q63 144 63 121v-1zm100 31l-13-13-13 13q-6 6-6 13.5t5.5 13Q142 183 150 183t13.5-5.5q5.5-5.5 5.5-13t-6-13.5zm-75-31q0 13 4.5 24.5T106 165q0-19 13-32l31-30 31 30q13 13 13 32 9-9 14-20.5t5-24.5q0-17-16-35-10-11-33-30l-11-9q-4 8-8 25-3 17-8 24-7 13-21 13-11 0-19-15-9 14-9 27z"/></svg>