<svg viewBox="0 0 300 311" xmlns="http://www.w3.org/2000/svg"><path d="M150 233v25q-27 0-50-13.5T63.5 208Q50 185 50 158t13.5-50Q77 85 100 71.5T150 58q35 0 62 21.5t35 54.5q-6-1-9-1-8 0-16 2-8-23-27.5-37.5T150 83q-20 0-37.5 10T85 120.5Q75 138 75 158t10 37.5Q95 213 112.5 223t37.5 10zM263 8H38Q22 8 11 19T0 45v263h150v-25H25V45q0-5 3.5-8.5T38 33h225q5 0 8.5 3.5T275 45v101q12 9 18.5 22t6.5 27V45q0-15-11-26T263 8zm0 237h-50q-16 0-27 11.5T175 283v25h25v-25q0-5 3.5-9t9.5-4h50q5 0 8.5 4t3.5 9v25h25v-25q0-15-11-26.5T263 245zM150 139q-8 0-13.5 5.5T131 158q0 8 5.5 13.5T150 177q8 0 13.5-5.5T169 158q0-8-5.5-13.5T150 139zm88 19q15 0 26 11t11 26.5q0 15.5-11 26.5t-26.5 11q-15.5 0-26.5-11t-11-26.5q0-15.5 11-26.5t27-11z"/></svg>