<svg viewBox="0 0 300 311" xmlns="http://www.w3.org/2000/svg"><path d="M300 20V8h-13q-15 0-37 3-42 6-80 22-52 21-88 57t-57 88Q9 216 3 258q-3 22-3 37v13h15q19 0 43-4 40-6 76-22 48-21 84-56 37-38 59-90 15-38 21-79 2-22 2-37zM200 208q-40 40-98 60-38 12-76 15 3-40 16-78 20-59 58-97t97-58q38-13 78-16-3 38-15 76-20 58-60 98zm-100-25q0-10 7.5-17.5T125 158q10 0 17.5 7.5T150 183q0 10-7.5 17.5T125 208q-10 0-17.5-7.5T100 183zm50-50q0-10 7.5-17.5T175 108q10 0 17.5 7.5T200 133q0 10-7.5 17.5T175 158q-10 0-17.5-7.5T150 133zm-50 100q0 10-7.5 17.5T75 258q-10 0-17.5-7.5T50 233q0-10 7.5-17.5T75 208q10 0 17.5 7.5T100 233zM200 83q0-10 7.5-17.5T225 58q10 0 17.5 7.5T250 83q0 10-7.5 17.5T225 108q-10 0-17.5-7.5T200 83z"/></svg>