<svg viewBox="0 0 300.0026 311" xmlns="http://www.w3.org/2000/svg"><path d="M123 308q-31 0-61-9-11 9-25.5 8.5t-25-10.5Q1 287 0 272t9-26q-9-27-9-59 0-36 11-68 12-37 37.5-62.5T111 19q32-11 68-11 32 0 59 9 11-9 25.5-8.5t25 10.5Q299 29 300 44t-9 26q9 27 9 59 0 36-11 68-12 37-38 62t-59.5 37.5Q158 309 123 308zm55-275q-31-1-60 9.5T66 75q-23 22-33 56-9 29-8 62 1 30 10 52l3 7-9 10q-4 3-4 8.5t3.5 9q3.5 3.5 9 3.5t8.5-4l10-9 7 3q22 9 52 10 33 1 62-8 34-10 57-33t33-57q9-29 8-62-1-30-10-52l-3-7 9-10q4-3 4-8.5t-3.5-9q-3.5-3.5-9-3.5t-8.5 4l-10 9-7-3q-29-10-59-10zm35 125q-6 0-9.5 3.5t-3.5 9q0 5.5 3.5 9t9 3.5q5.5 0 9-3.5t3.5-9q0-5.5-3.5-9T213 158zm-25-38q-6 0-9.5 4t-3.5 9q0 5 3.5 9t9 3.5q5.5-.5 9-4t3.5-8.5q0-5-3.5-9t-8.5-4zm50 0q-6 0-9.5 4t-3.5 9q0 5 3.5 9t9 3.5q5.5-.5 9-4t3.5-8.5q0-5-3.5-9t-8.5-4z"/></svg>