<svg viewBox="0 0 300 311" xmlns="http://www.w3.org/2000/svg"><path d="M150 20q-42 0-76 21-32 19-51 51T1 161.5Q-2 199 13 233q17 36 51 60l3 2h166l3-2q35-24 51-60 15-34 12-71.5T277 92q-19-32-51-51-34-21-76-20v-1zm75 250H75q-34-25-45-65-10-36 2.5-73.5T75 71q32-26 75-26t75 26q30 23 42.5 60.5T270 205q-11 40-45 65zm-50-100q0 10-6 17t-15 8.5q-9 1.5-16.5-3t-11-13q-3.5-8.5 0-17.5t11.5-13V70h25v79q5 3 8.5 9t3.5 12zm-62-93v28q-15 9-24.5 23.5t-12 32Q74 178 80 194.5T98 223l-17 18q-25-23-29-57.5T64.5 119Q81 89 113 77zm136 93q0 20-7.5 38.5T219 241l-17-18q12-12 17.5-28.5T223 161q-2-17-11.5-32T188 105V77q28 12 44.5 37t16.5 56z"/></svg>