<svg viewBox="0 0 300 311" xmlns="http://www.w3.org/2000/svg"><path d="M250 8H63Q47 8 36 19T25 45v225q0 16 11 27t27 11h212V33q0-10-7.5-17.5T250 8zm0 225H100V33h150v200zM63 33h12v200H63q-7 0-13 2V45q0-5 3.5-8.5T63 33zm0 250q-6 0-9.5-3.5t-3.5-9q0-5.5 3.5-9T63 258h187v25H63zm62-150q0 15 11 26t27 11h12q5 0 9 4t4 9q0 5-4 8.5t-9 3.5h-25v25h25q15 0 26.5-11t11.5-26q0-10-5-18 8-5 12.5-13.5T225 133q0-15-11-26.5T188 95h-13q-5 0-8.5-3.5T163 83q0-5 3.5-9t8.5-4h25V45h-25q-15 0-26 11.5T138 83q0 10 5 18-9 5-13.5 13.5T125 133zm63-13q5 0 8.5 4t3.5 9q0 5-3.5 8.5T188 145h-25q-6 0-9.5-3.5T150 133q0-5 3.5-9t9.5-4h25z"/></svg>