<svg viewBox="0 0 300 311" xmlns="http://www.w3.org/2000/svg"><path d="M117 167l34-33 10 10 17-18-11-11q6-9 7-20h26V70h-28q-2-6-5-11l18-19-17-17-19 18q-5-3-11-5V8h-25v26q-11 1-20 7L74 22 57 40l17 17-25 25-17-17-18 17 19 19q-6 9-7 19H0v25h28q2 7 5 12l-18 19 17 17 19-18q5 3 12 5v28h25v-26q17-2 29-15zM101 66q8-8 20-8t20.5 8.5Q150 75 150 87t-8 20l-43 43q-8 8-20 8t-20.5-8.5Q50 141 50 129t9-20l42-43zm199 129v-25h-28q-2-6-5-11l18-19-17-17-19 18q-5-3-11-5v-28h-25v26q-18 2-30 15l-34 33-10-10-18 18 12 11q-6 9-7 20h-26v25h28q2 6 5 11l-18 19 17 17 19-18q5 3 12 5v28h25v-26q10-1 19-7l19 19 18-18-18-17 25-25 17 18 18-18-19-19q6-9 7-19h26v-1zm-101 55q-8 8-20 8t-20.5-8.5Q150 241 150 229t9-20l42-43q8-8 20-8t20.5 8.5Q250 175 250 187t-8 20l-43 43zM100 95q0-5 3.5-8.5t9-3.5q5.5 0 9 3.5t3.5 9q0 5.5-3.5 9t-9 3.5q-5.5 0-9-3.5T100 95zm100 125q0 6-3.5 9.5t-9 3.5q-5.5 0-9-3.5t-3.5-9q0-5.5 3.5-9t9-3.5q5.5 0 9 3.5t3.5 8.5z"/></svg>