<svg viewBox="0 0 300 311" xmlns="http://www.w3.org/2000/svg"><path d="M113 8H38Q22 8 11 19T0 46v74h63v25H38v25h75v-25H88v-25h62V45q0-15-11-26T113 8zm12 87H25V45q0-5 3.5-8.5T37 33h76q5 0 8.5 3.5T125 45v50zm138 50h-50q-16 0-27 11t-11 27v125h125V183q0-16-11-26.5T262 145h1zm12 138h-75V183q0-5 3.5-9t8.5-4h51q5 1 8.5 4.5t3.5 8.5v100zM213 70h-38V45h38q15 0 26 11t11 27v37h-25V83q0-5-3.5-9t-8.5-4zM100 245h50v25h-50q-16 0-26.5-10.5T63 233v-38h25v38q0 5 3.5 8.5t8.5 3.5zm150 13q0 5-3.5 8.5t-9 3.5q-5.5 0-9-3.5T225 258q0-5 3.5-9t9-4q5.5 0 9 4t3.5 9z"/></svg>