<svg viewBox="0 0 300 311" xmlns="http://www.w3.org/2000/svg"><path d="M263 8H38Q22 8 11 19T0 46v262h300V45q0-15-11-26T262 8h1zm12 37v38h-50V33h38q5 0 8.5 3.5T275 45zM163 83V33h37v50h-37zm37 25v37h-37v-37h37zm-62-25h-38V33h38v50zm0 25v37h-38v-37h38zm-63 37H25v-37h50v37zm0 25v38H25v-38h50zm25 0h38v38h-38v-38zm38 63v50h-38v-50h38zm25 0h37v50h-37v-50zm0-25v-38h37v38h-37zm62-38h50v38h-50v-38zm0-25v-37h50v37h-50zM38 33h37v50H25V45q0-5 3.5-8.5T37 33h1zM25 233h50v50H25v-50zm200 50v-50h50v50h-50z"/></svg>