<svg viewBox="0 0 300 311" xmlns="http://www.w3.org/2000/svg"><path d="M300 158q0 33-13.5 61.5T250 269v-36q25-34 25-75 0-34-17-62.5T212.5 50Q184 33 150 33T87.5 50Q59 67 42 95.5T25 158q0 30 13 55.5T74 257q23 18 51 23v26q-35-6-63.5-27t-45-53Q0 194 0 158q0-41 20-75.5T74.5 28Q109 8 150 8t75.5 20Q260 48 280 82.5t20 75.5zm-176-37l-10-23q-32 13-50 41l22 13q13-21 38-31zm62-23l-10 23q25 10 38 31l22-13q-18-28-50-41zm19 92q-6 4-16 9-20 9-38.5 9T112 197q-9-5-16-11l-17 19q9 7 22 14 25 14 49 14v37q0 6 3.5 9.5t9 3.5q5.5 0 9-3.5t3.5-9.5v-40q13-3 25-9v75q0 5 3.5 8.5t9 3.5q5.5 0 9-3.5t3.5-8.5V176l-20 14z"/></svg>