<svg viewBox="0 0 300 311" xmlns="http://www.w3.org/2000/svg"><path d="M300 158q0 36-16 67.5T239.5 278Q211 299 177 305q14-12 20-31 35-14 56.5-45.5T275 158q0-34-17-62.5T212.5 50Q184 33 150 33T87.5 50Q59 67 42 95.5T25 158q0 30 13.5 56T75 258q2 20 14 37-40-18-64.5-55T0 158q0-41 20-75.5T74.5 28Q109 8 150 8t75.5 20Q260 48 280 82.5t20 75.5zm-125 96q0 16-10.5 29t-27 13q-16.5 0-27-13.5T100 253v-20q-6-5-10-11 11-1 25-3 28-5 49-13.5t45-24.5q11-9 20-16 3 25-7 48-12 27-39 38l-8 3zm-25-1v-17q-12 4-25 6v11q0 7 3.5 12.5t9 5q5.5-.5 9-5.5t3.5-12zm-37-95q0 10-7.5 17.5t-18 7.5Q77 183 70 175.5T63 158q0-10 7-17.5t17.5-7.5q10.5 0 18 7.5T113 158zm68 0q-18 0-30.5-13T138 114q0-18 12.5-31T181 70q18 0 31 13t13 31q0 18-13 31t-31 13zm0-63q-8 0-13 5.5t-5 13.5q0 8 5 13.5t13 5.5q8 0 13.5-5.5T200 114q0-8-5.5-13T181 96v-1z"/></svg>