<svg viewBox="0 0 300 311" xmlns="http://www.w3.org/2000/svg"><path d="M235 225l3-4q18-17 27.5-40t9.5-48q0-25-9.5-48t-27-40.5Q221 27 198 17.5T150 8q-25 0-48 9.5T62 45l-4 3L18 9 1 26l281 281 17-17-64-65zM79 62q14-14 32.5-21.5T150 33q20 0 38.5 7.5t32.5 22Q235 77 242.5 95t7.5 38q0 20-7.5 38.5T221 204l-4 3-36-35q9-7 14-17.5t5-21.5q0-21-14.5-35.5T150 83q-11 0-21.5 5T111 101L76 66l3-4zm85 92l-35-35q3-5 9-8t12-3q10 0 17.5 7.5T175 133q0 6-3 12t-8 9zm17 88l18 18-49 48-88-86q-26-26-34-61t4-68l20 20q-5 24 2 48.5T79 204l71 69 31-31z"/></svg>