<svg viewBox="0 0 300 311" xmlns="http://www.w3.org/2000/svg"><path d="M150 8q-41 0-75.5 20T20 82.5Q0 117 0 158t20 75.5Q40 268 74.5 288t75.5 20q41 0 75.5-20t54.5-54.5q20-34.5 20-75.5t-20-75.5Q260 48 225.5 28T150 8zm108 87q-68-36-148-56 19-6 40-6 34 0 63 17t45 45zM76 58q43 8 86 23 60 20 110 51 3 13 3 26v6q-57-39-130-62-47-16-92-23 10-12 23-21zm-51 92q2-25 13-48 25 4 56 11-40 17-69 37zm125 133q-30 0-56.5-13.5t-44-37Q32 209 27 180q24-20 63-38-2 5-2 10 0 8 5 13.5t13 5.5q8 0 13.5-5.5t5.5-13q0-7.5-4-12.5t-11-7q13-4 24-8 24 7 45 16-4 5-4 12t5.5 12.5Q186 171 193 171t12.5-4.5Q211 162 212 156q32 16 59 35-8 26-25.5 47T203 271q-25 12-53 12zm0-88q24 0 48 13 13 7 23 15v1l-17 18-7-5q-10-7-20-11-14-6-27-6-18 0-38 11-12 7-16 11l-17-18q8-8 21-15 26-14 50-14z"/></svg>