<svg viewBox="0 0 300 311" xmlns="http://www.w3.org/2000/svg"><path d="M291 114l9-3V70q0-15-11-26t-26-11H38q-16 0-27 11T0 70v41l9 3q5 1 9 4 7 6 7 15t-7 15q-4 3-9 4l-9 3v128h300V155l-9-3q-5-1-9-4-7-6-7-15t7-15q4-3 9-4zM25 233h38v25H25v-25zm188 25h-25v-25h25v25zm-50 0h-25v-25h25v25zm-50 0H88v-25h25v25zm125 0v-25h37v25h-37zm37-165q-10 6-17 15-8 11-8 25t8 25q7 9 17 14v36H25v-36q10-5 17-14 8-11 8-25t-8-25q-7-9-17-15V70q0-5 3.5-8.5T38 58h225q5 0 8.5 3.5T275 70v23zM138 83h25v100h-25V83zm-63 0h25v100H75V83zm125 0h25v100h-25V83z"/></svg>