<svg viewBox="0 0 300 311" xmlns="http://www.w3.org/2000/svg"><path d="M275 33v42q-20-29-50-46.5t-64.5-20Q126 6 93 19.5T37 59Q14 85 5 118.5T3 187q7 35 28 62.5t52.5 43Q115 308 150 308v-25q-30 0-56-13.5t-44-37q-18-23.5-23-53t3.5-57.5Q39 94 59 72.5t48-32q28-10.5 57.5-7t54 20Q243 70 258 95h-45v25h62q10 0 17.5-7t7.5-18V33h-25zM163 170H88v-25h50V83h25v87zm100 138q-16 0-27-11t-11-26v-38q0-16 11-26.5t26.5-11Q278 195 289 206t11 27v37q0 16-11 27t-27 11h1zm0-88q-6 0-9.5 4t-3.5 9v37q0 6 3.5 9.5t9 3.5q5.5 0 9-3.5t3.5-9.5v-37q0-5-3.5-8.5T262 220h1zm-50 88h-25v-70l-17 16-17-17 37-38q3-3 6.5-3.5t7 1q3.5 1.5 5.5 4.5t2 7l1 100z"/></svg>