<svg viewBox="0 0 300 311" xmlns="http://www.w3.org/2000/svg"><path d="M282 17q-17 8-39 12-15 3-37 4l-23 1q-28 0-42 1-24 3-42 10-21 9-38 26t-26.5 39.5Q25 133 25 158q0 22 7 42.5T53 237L0 290l18 18 53-53q17 14 37 21t41 7q25 0 47.5-9.5T237 246q38-37 52-99 11-46 11-119V8l-18 9zm-62 212q-19 19-45 25.5t-51.5 0Q98 248 79 229q-14-14-21.5-32.5T50 158q0-20 7.5-38t21-31.5Q92 75 110 68q14-6 34-8 13-1 39-1l24-1q40-2 68-11-1 60-11 100-14 51-44 82zm-64-123q-11-11-28-11t-28.5 13Q88 121 88 138q0 24 28 53 15 16 33 29l7 4 7-4q18-13 34-29 28-29 28-53 0-17-12-30t-28.5-13Q168 95 156 106zm44 32q0 11-14 28-12 14-30 28-16-13-28-27-15-17-15-29 0-7 4.5-12t11-5q6.5 0 11 3.5T144 136v10h25v-10q0-8 4.5-11.5t11-3.5q6.5 0 11 5t4.5 12z"/></svg>