<svg viewBox="0 0 300 311" xmlns="http://www.w3.org/2000/svg"><path d="M282 91q-33-16-42-49l-2-9V8q-14 0-24 8t-13 21q-27 9-40 35-11 20-11 42v6h-50q-12 0-22 5.5T61 139q-19 8-31 18-14 13-22 33-8 22-8 55h25q0-52 25-72 0 12 5 28 3 9 11 27 5 13 7 19l-8 61h75l7-50h16v50h75v-67l4-23q5-15 6.5-25.5T250 169v-25l50-6v-19q0-9-5-16.5T282 91zM125 238l-7 45H93l6-38-10-27q-7-16-10-24-4-14-4-24t7.5-17.5Q90 145 100 145v25q0 13 7 22.5t18 13.5v32zm13-55q-6 0-9.5-3.5T125 170v-25h25v25q0 6-3.5 9.5T137 183h1zm87-61v47q0 11-1.5 20t-5.5 23l-5 25v46h-25v-50h-38v-27q11-4 18-13.5t7-22.5v-56q0-13 6-26 11-26 38-29 14 36 53 55l2 2-49 6z"/></svg>