<svg viewBox="0 0 300 311" xmlns="http://www.w3.org/2000/svg"><path d="M250 97v-2q0-23-12-43t-32-32Q186 8 163 8h-63Q76 8 56 20T24.5 52Q13 72 13 95v86q-1 32 18 58l7 10v59h212v-58l6-6q15-14 23-33t9-40v-26q-1-17-11-30.5T250 97zM63 283v-25h162v25H63zm200-112q-1 16-7 30t-17 25l-7 7H57l-6-9q-14-19-14-43v-42q12 6 26 7h100v-26H63q-11 0-18-7t-7-18q0-16 8-30.5t22.5-23Q83 33 100 33h63q16 0 30.5 8.5t23 23Q225 79 225 95v2q-17 4-27 17.5T188 146v39h25v-40q0-10 7-17t17.5-7.5q10.5-.5 17.5 7t7 18.5l1 25z"/></svg>