<svg viewBox="0 0 300 311" xmlns="http://www.w3.org/2000/svg"><path d="M123 83l4 25q-21 4-44 23l-16-19q27-23 56-29zm50 25q21 4 44 23l16-19q-27-23-56-29l-4 25zm102 133v-83q0-8-1-16l-24 33v72q0 8-4 16t-11 13q-16 13-34 21-25 11-51 11t-51-11q-18-8-35-21-6-5-10-13t-4-16v-72l-24-33q-1 8-1 16v83Q0 203 0 158q0-41 20-75.5T74.5 28Q109 8 150 8t75.5 20Q260 48 280 82.5t20 75.5q0 45-25 83zm-50-58H75v63q0 7 5 10 13 11 28 17 21 10 42 10t42-10q15-6 28-17 5-3 5-9v-64zm41-72q-14-35-45.5-56.5T150 33q-39 0-70 21.5T34 111l35 47h162l35-47z"/></svg>