<svg viewBox="0 0 300 311" xmlns="http://www.w3.org/2000/svg"><path d="M300 45q0-15-11-26T263 8H38Q22 8 11 19T0 45v75h13v188h275V120h12V45zM25 45q0-5 3.5-8.5T38 33h225q5 0 8.5 3.5T275 45v50H25V45zm238 238H38V120h225v163zM100 178q0-13 9.5-23t23.5-10h5v-12h25v12q15 0 26 11.5t11 26.5h-25q0-5-3.5-9t-8.5-4h-30q-3 0-5.5 2.5T125 178q0 3 2 5.5t5 2.5l41 7q12 2 19.5 11t7.5 22q0 13-9.5 22.5T167 258h-4v12h-25v-12q-16 0-27-11t-11-27h25q0 6 3.5 9.5t9.5 3.5h29q3 0 5.5-2.5t2.5-5.5q0-3-2-5t-4-3l-42-6q-12-2-19.5-11.5T100 178z"/></svg>