<svg viewBox="0 0 300 311" xmlns="http://www.w3.org/2000/svg"><path d="M263 8h-96l22 25h74q5 0 8.5 3.5T275 46v121q-6 3-12 3-11 0-18-7t-7-17h-25q0 10-7.5 17t-18 7q-10.5 0-17.5-7t-7-17h-25q0 10-7.5 17.5t-18 7Q102 170 95 163t-7-17H63q0 10-7.5 17.5T38 171q-7-1-13-4V45q0-5 3.5-8.5T38 33h73l22-25H38Q22 8 11 19T0 46v262h300V45q0-15-11-26T262 8h1zM25 283v-89q7 1 12 2 12-1 21.5-5.5T75 178q7 8 16.5 12.5t21 4.5q11.5 0 21-4.5T150 178q7 8 16.5 13t21 4.5q11.5-.5 21-5T225 178q7 8 16.5 13t20.5 5q6-1 13-2v89H25zm98-173q11 10 27 10t26.5-10.5q10.5-10.5 11-26T177 57l-27-30-27 29q-10 11-10 27t10 27z"/></svg>