<svg viewBox="0 0 300 311" xmlns="http://www.w3.org/2000/svg"><path d="M277 199l10-10-18-18-10 10q-10-7-22-9v-14h-24v14q-12 2-22 9l-10-10-18 18 10 10q-7 10-9 22h-28q-2-12-9-22l10-10-18-18-10 10q-10-7-22-9v-14H63v14q-12 2-22 9l-10-10-18 18 10 10q-7 10-9 22H0v24h14q2 12 9 22l-10 10 18 18 10-10q10 7 22 9v14h25v-14q11-2 21-9l10 10 18-18-10-10q7-10 9-22h28q2 12 9 22l-10 10 18 18 10-10q10 7 22 9v14h25v-14q11-2 21-9l10 10 18-18-10-10q7-10 9-22h14v-25h-14q-2-11-9-21zM75 270q-16 0-27-10.5T37.5 233q.5-16 11-27T75 195q16 0 27 11t11 27q0 16-11 26.5T75 270zm150 0q-16 0-26.5-10.5T188 233q0-16 10.5-26.5t26.5-11q16-.5 27 10.5t11 27q0 16-11 26.5T225 270zm38-175h-7l-58-73q-6-7-13.5-10.5T168 8h-55v87H0v72q11-12 25-21v-26h238q5 0 8.5 4t3.5 9v13q14 9 25 21v-34q0-16-11-26.5T262 95h1zM138 33h30q6 0 10 5l46 57h-86V33z"/></svg>