<svg viewBox="0 0 300 311" xmlns="http://www.w3.org/2000/svg"><path d="M159 8q-29-2-55.5 7.5T56 45Q35 65 24 91t-11 54v75q-1 16 10 27t27 11h13v50h175v-50h12q16 0 27-11t10-27v-70q1-37-16.5-68.5t-46.5-51Q195 11 159 8zm104 212q0 6-4 9.5t-9 3.5h-37v50H88v-50H50q-5 0-8.5-3.5T38 221v-76q0-23 9-44.5T73 63q17-16 39-23.5t46-6.5q29 2 53 18.5T248.5 94q13.5 26 13.5 56v70h1zm-138-75q0 11-7.5 18t-17.5 7q-10 0-17.5-7T75 145.5q0-10.5 7.5-18T100 120q10 0 17.5 7.5T125 145zm100 0q0 11-7.5 18t-17.5 7q-10 0-17.5-7t-7.5-17.5q0-10.5 7.5-18t17.5-7q10 .5 17.5 7.5t7.5 17zm-50 75q0 9-6 12-4 1-16 1h-6q-12 0-16-1-6-3-6-12 0-11 7.5-24t17.5-13q10 0 17.5 13t7.5 24z"/></svg>