<svg viewBox="0 0 300 311" xmlns="http://www.w3.org/2000/svg"><path d="M270 103q-7-13-20-17.5t-26-.5l-15 6q7-20 .5-39.5t-23-31.5Q170 8 150 8t-36.5 12Q97 32 90.5 51.5T91 91l-15-6q-13-4-26 .5T30 103q-9 15-2.5 31T50 156l38 13v32l-31 48q-8 12-6.5 26T62 298q13 12 30.5 9.5T119 291l30-45q0-1 1.5-1t1.5 1l28 44q8 12 22 16t28-3q14-7 18.5-23t-4.5-30l-31-49v-32l37-13q16-6 22.5-22t-2.5-31zM150 33q15 0 26 10.5t11.5 25q.5 14.5-9 26T154 108h-8q-15-2-24.5-13.5t-9-26q.5-14.5 11.5-25T150 33zm99 92q-2 5-7 7l-54 19v57l35 56q3 4 1.5 9.5t-6.5 8q-5 2.5-9.5.5t-7.5-6l-28-43q-3-6-9-9.5t-13-3.5q-7 0-13 3.5t-10 8.5l-30 45q-3 5-9 6t-9.5-3q-3.5-4-4-8.5T78 263l35-55v-57l-55-19q-5-2-7-7.5t1-11q3-5.5 11-5.5 2 0 5 1l56 20q9 3 19 4h14q10-1 19-4l56-20q5-2 9.5-.5t7 6.5q2.5 5 .5 10zm-86 33q0 5-4 9t-9 3.5q-5-.5-9-4t-3.5-8.5q.5-5 4-9t8.5-4q5 0 9 4t4 9zm0 37q0 6-4 9.5t-9 3.5q-5 0-9-3.5t-3.5-9q.5-5.5 4-9t8.5-3.5q5 0 9 3.5t4 9.5v-1z"/></svg>