<svg viewBox="0 0 300 311" xmlns="http://www.w3.org/2000/svg"><path d="M232 241l17 18-40 40q-9 9-21.5 9t-21.5-9l-40-40 17-18 32 32V170h25v103l32-32zM222 98q-5-24-21.5-42.5t-39-27.5Q139 19 114 21.5T68.5 38Q48 52 36.5 73.5T25 120q0 25 11 46-21 12-30.5 33.5T2 244q6 23 24.5 37.5T69 295h58l-25-25H69q-17 1-29.5-10T25 232.5q-2-16.5 7.5-30T58 185l18-5-11-15q-15-20-15-45 0-19 9.5-35.5T85 58q16-10 35-11.5t36.5 6.5Q174 61 185 76t14 35l1 9 10 1q19 3 34.5 14.5t23.5 29q8 17.5 6.5 37T263 237l17 18q15-21 19-46t-5-48.5q-9-23.5-28-40T222 98z"/></svg>