<svg viewBox="0 0 300 311" xmlns="http://www.w3.org/2000/svg"><path d="M206 8q-26 0-47.5 6.5t-33.5 18Q113 44 113 58v53q20 5 37.5 16.5T179 156q15 2 27 2 42 0 69-15v15q0 5-9 11t-24.5 10q-15.5 4-35.5 4l-13-1q5 13 6 26h7q42 0 69-15v15q0 5-9 11t-24.5 10q-15.5 4-35.5 4h-7q-1 12-5 24l12 1q42 0 69-15v12q0 6-9 12.5t-24.5 11Q226 283 206 283q-11 0-24-2-7 12-18 22 20 5 42 5 27 0 48-7t33.5-19q12.5-12 12.5-27V58q0-14-12.5-25.5t-33.5-18Q233 8 206 8zm0 25q20 0 35.5 4T266 47q9 6 9 11t-9 11q-9 6-24.5 10t-35 4Q187 83 171 79t-24.5-10q-8.5-6-8.5-11t8.5-11q8.5-6 24.5-10t35-4zm0 100q-19 0-35-4t-24.5-10q-8.5-6-8.5-11V93q27 15 68.5 15T275 93v15q0 5-9 11t-24.5 10q-15.5 4-35.5 4zm-76 87h-30v38H75v-38H44l34-33q4-4 9.5-4t9.5 4l33 33zm-42-87q-24 0-44 12t-32 32Q0 197 0 220.5T12 264q12 20 32 32t43.5 12q23.5 0 43.5-12t32-32q12-20 12-43.5T163 177q-12-20-32-32t-43-12zm0 150q-17 0-31.5-8.5t-23-23Q25 237 25 220.5t8.5-31q8.5-14.5 23-23t31-8.5q16.5 0 31 8.5t23 23q8.5 14.5 8.5 31t-8.5 31q-8.5 14.5-23 23T87 283h1z"/></svg>