<svg viewBox="0 0 300 311" xmlns="http://www.w3.org/2000/svg"><path d="M274 264v-1l1-5v-80q13-14 13-33v-12L260 20H41l-3 9L18 8 1 26l281 281 17-17-25-26zm-79-79q13 10 30 10h13q5 0 12-1v46l-55-55zm68-51v11q0 11-7.5 18t-17.5 7h-13q-10 0-17.5-7t-7.5-18h-25v3q0 7-4 13L93 83h20V45h62v38h25V45h40l23 89zM59 45h29v33L59 49l1-3-1-1zm4 225q-6 0-9.5-3.5T50 258v-64q7 1 13 1h12q12 0 22.5-5t17.5-14l-18-18q-4 5-9.5 8.5T75 170H63q-11 0-18-7t-7-18v-11l7-28-21-21-11 45v15q0 19 12 33v80q0 15 11 26t27 11h172l-25-25H63z"/></svg>