<svg viewBox="0 0 300 311" xmlns="http://www.w3.org/2000/svg"><path d="M280 164q11-12 16-27.5t3.5-33q-1.5-17.5-10-34T268 40q-18-18-41.5-26T181 9.5Q159 13 144 28q-17 18-20 44 0 8-5 16t-14 14q-18 13-25.5 34T77 179q4 13 11 23L1 290l17 17 88-87q10 7 23 11 9 2 18 2 18 0 33.5-8t25.5-22q6-9 14-14t16-5q26-3 44-20zm-94 24q-9 12-22.5 17t-28.5 1q-12-3-21-12t-12-21q-4-15 1-28.5t17.5-22.5q12.5-9 20-21.5T149 74q2-17 13-28 13-13 33-13 14 0 28.5 6.5T250 58q22 21 24.5 47T262 146q-11 11-28 13-14 1-26.5 8.5T186 188zm70 32q-18 0-30.5 13T213 264q0 18 12.5 31t30.5 13q18 0 31-13t13-31q0-18-13-31t-31-13zm0 63q-8 0-13-5.5t-5-13.5q0-8 5-13.5t13-5q8 .5 13.5 5.5t5.5 13q0 8-5.5 13.5T256 283z"/></svg>