<svg viewBox="0 0 301 311" xmlns="http://www.w3.org/2000/svg"><path d="M237 8L97 227q-3 6-10 6t-10.5-6q-3.5-6 .5-12 5-9 5.5-19T78 177q-5-9-13.5-14.5T46 157q-10 0-19 5t-14 13Q1 195 .5 219t11 44.5Q23 284 43 296t44 12q10 0 20-2 17-4 31-14.5t23-24.5L301 48 237 8zm8 34l21 13-55 87-21-14 55-86zM140 253q-9 14-23.5 21.5t-31 7.5Q69 282 55 273t-22-23.5Q25 235 25.5 219t8.5-31q4-6 11.5-6t11 6.5Q60 195 56 202q-9 13-5 27.5t17 23q13 8.5 27.5 5T118 241l59-92 20 14-57 90zm116-33q-18 0-30.5 13T213 264q0 18 12.5 31t30.5 13q18 0 31-13t13-31q0-18-13-31t-31-13zm0 63q-5 0-10-3t-7-8.5q-2-5.5-1-11t5-9.5q4-4 9.5-5t11 1q5.5 2 8.5 7t3 11.5q0 6.5-5.5 12T256 283z"/></svg>