<svg viewBox="0 0 300 311" xmlns="http://www.w3.org/2000/svg"><path d="M300 158q0 33-13.5 62t-37 50Q226 291 196 301q4-9 4-19v-10q34-14 54.5-45t20.5-69q0-34-17-62.5T212.5 50Q184 33 150 33T87.5 50Q59 67 42 95.5T25 158q0 22 7 41.5T52 236q-4 18 0 35-24-21-38-50.5T0 158q0-41 20-75.5T74.5 28Q109 8 150 8t75.5 20Q260 48 280 82.5t20 75.5zM88 127q0 8 5 13.5t13 5q8-.5 13.5-5.5t5.5-13q0-8-5.5-13.5T106 108q-8 0-13.5 5.5T87 127h1zm125 12q-1-8-6-13.5t-13-5q-8 .5-13.5 5.5t-5.5 13q0 8 5.5 13.5T194 158q8 0 13.5-5.5T213 139zm-63-49q-4-9-11-17-15-15-33-15-14 0-24 8-6 4-10 9l21 14 3-3q5-3 10-3 8 0 15 8 4 4 6 9l23-10zm54 120l-29 9v63q0 6-3.5 11t-9.5 7l-16 6q-8 2-16 2-14 0-26-6.5t-19.5-18Q77 272 75.5 257t6.5-29l21-40q3-7 11-7 3 0 6.5 2t5 7q1.5 5-.5 10l-6 11 77-24 4-1q4 0 7.5 2.5t4.5 7q1 4.5-1 9t-7 5.5z"/></svg>