<svg viewBox="0 0 300 311" xmlns="http://www.w3.org/2000/svg"><path d="M238 8H63Q47 8 36 19T25 46v262h250V45q0-15-11-26T237 8h1zm12 275H50V45q0-5 3.5-8.5T62 33h176q5 0 8.5 3.5T250 45v238zM81 83q-8 0-13-5.5T63 64q0-8 5-13.5t13-5q8 .5 13.5 5.5t5.5 13q0 8-5.5 13.5T81 83zm32-19q-1-8 4.5-13.5t13.5-5q8 .5 13.5 5.5t5.5 13q0 8-5.5 13.5T131 83q-8 0-13.5-5.5T112 64h1zm37 44q-20 0-37.5 10T85 145.5Q75 163 75 183t10 37.5Q95 238 112.5 248t37.5 10q20 0 37.5-10t27.5-27.5q10-17.5 10-37.5t-10-37.5Q205 128 187.5 118T150 108zm0 25q19 0 33 13t16 32q-7 5-14.5 5t-16.5-4q-6-3-11.5-6.5T144 165q-15-7-28-7-4 0-10 1 7-12 18.5-19t25.5-7zm0 100q-19 0-33-13t-16-32q7-5 14.5-5t16.5 4q6 3 11.5 6.5T156 201q15 7 28 7 4 0 10-1-7 12-18.5 19t-25.5 7z"/></svg>