<svg viewBox="0 0 300 311" xmlns="http://www.w3.org/2000/svg"><path d="M273 203l7-8h1q8 0 13.5-5t5.5-13q0-8-5.5-13.5T281 158q-8 0-13.5 5.5T262 177l1 1-8 7q-8-5-18-7v-20h-25v20q-9 2-17 7l-8-7v-1q0-8-5-13.5t-13-5.5q-8 0-13.5 5.5T150 177q0 8 5.5 13.5T169 196l1-1 7 8q-5 8-7 18h-20v24h20q2 10 7 18l-7 8h-1q-8 0-13.5 5t-5.5 13q0 8 5.5 13.5T169 308q8 0 13-5.5t5-13.5v-1l8-7q8 5 17 7v20h25v-20q10-2 18-7l8 7-1 1q0 8 5.5 13.5T281 308q8 0 13.5-5.5T300 289q0-8-5.5-13t-13.5-5h-1l-7-8q5-8 7-18h20v-25h-20q-2-9-7-17zm-48 61q-13 0-22-9t-9-22q0-13 9-22t22-9q13 0 22 9t9 22q0 13-9 22t-22 9zm-76-156h26V83h-26q-3-12-9-22l15-16h1q8 0 13.5-5t5.5-13q0-8-5.5-13.5T156 8q-8 0-13.5 5.5T137 27l1 1-16 15q-10-6-22-9V8H75v26q-12 3-22 9L37 28v-1q0-8-5.5-13.5T18.5 8q-7.5 0-13 5.5T0 27q0 8 5.5 13T19 45h1l15 16q-6 10-9 22H0v25h26q3 12 9 22l-15 16h-1q-8 0-13.5 5.5t-5.5 13q0 7.5 5.5 13T19 183q8 0 13.5-5.5T38 164l-1-1 16-15q10 6 22 9v26h25v-26q18-4 31.5-17.5T149 108zm-61 25q-16 0-27-11T50 95.5Q50 80 61 69t26.5-11Q103 58 114 69t11 26.5q0 15.5-11 26.5t-26 11z"/></svg>