<svg viewBox="0 0 300 311" xmlns="http://www.w3.org/2000/svg"><path d="M97 220h15v1q0 10-7 17t-17.5 7Q77 245 70 238t-7-17l-1-26q0-10 7.5-17.5T87 170q10 0 17.5 7.5T112 195H97q0-3-3-6t-7-3q-4 0-6.5 3t-2.5 6v26q0 3 3 6t6.5 3q3.5 0 6.5-3t3-6v-1zm46-49q-6 2-10.5 7t-5.5 10.5q-1 5.5 2 11t8 8.5l18 8q8 3 7.5 6.5T159 228q-3 2-7 2-9 0-15-6l-5-6-11 10 5 6q10 11 26 11 10 0 17-5t8.5-13q1.5-8-2.5-15t-15-11l-16-6q-2-2-1.5-5t5-4q4.5-1 10.5 1 3 1 5 3l6 5 10-12-6-5q-3-3-9-5-11-5-21-2zm79 74l16-75h-16l-9 42-10-42h-16l19 75h16zm53-142v205H25V45q0-15 11-26T63 8h117l95 95zm-87-8h44l-44-44v44zm62 25h-87V33H63q-6 0-9.5 3.5T50 46v237h200V120z"/></svg>