<svg viewBox="0 0 300 311" xmlns="http://www.w3.org/2000/svg"><path d="M243 116q-5-9-14-15t-19-6H90q-10 0-19 6t-14 15l-29 57q-15 32-16 67v43h26v25h62v-25h100v25h63v-25h25v-43q-1-35-16-67l-29-57zM79 127q4-6 11-7h120q7 0 11 7l28 56H51l28-56zm184 131H38v-18q0-16 4-32h21v12q0 6 3.5 9.5T75 233q5 0 8.5-3.5T87 220v-12h126v12q0 6 3.5 9.5t8.5 3.5q5 0 9-3.5t4-9.5v-12h20q4 16 5 33v17zm0-200h35q-4 11-14 18t-21.5 7Q251 83 241 76t-14-18H73q-4 11-14 18t-21.5 7Q26 83 16 76T2 58h36V33H2q4-11 14-18t21.5-7Q49 8 59 15t14 18h154q4-11 14-18t21.5-7Q274 8 284 15t14 18h-35v25z"/></svg>