<svg viewBox="0 0 300 311" xmlns="http://www.w3.org/2000/svg"><path d="M300 158q0-27-9-52t-27-45l11-11-17-17-11 11q-28-24-62.5-32t-69 0Q81 20 53 44L42 33 25 50l11 11Q12 89 4 123.5t0 69Q12 227 36 255l-11 11 18 17 10-11q28 24 62.5 32t69 0q34.5-8 62.5-32l11 11 17-18-11-10q18-21 27-45.5t9-51.5zm-25 0q0 22-7.5 42T247 237l-45-45q10-15 10-34t-10-34l45-45q13 17 20.5 37t7.5 42zm-162 0q0-16 10.5-27t26.5-11q16 0 27 11t11 27q0 16-11 27t-27 10.5q-16-.5-26.5-11T113 158zm37-125q22 0 42 7.5T229 61l-45 45q-15-10-34-10t-34 10L71 61q17-13 37-20.5t42-7.5zM25 158q0-22 7.5-42T53 79l45 45q-10 15-10 34t10 34l-45 45q-13-17-20.5-37T25 158zm125 125q-22 0-42-7.5T71 255l45-45q15 10 34 10t34-10l45 45q-17 13-37 20.5t-42 7.5z"/></svg>