<svg viewBox="0 0 300 311" xmlns="http://www.w3.org/2000/svg"><path d="M100 70q0-20-14.5-35T50 20q-21 0-35.5 15T0 70q0 18 10.5 31.5T38 119v91q-17 4-27.5 17.5T0 258q0 21 14.5 35.5T50 308q21 0 35.5-14.5T100 258q0-17-10.5-30.5T63 210v-91q16-4 26.5-17.5T100 71v-1zm-75 0q0-10 7.5-17.5T50 45q10 0 17.5 7.5t7.5 18Q75 81 67.5 88T50 95.5q-10 .5-17.5-7T25 71v-1zm50 188q0 10-7.5 17.5T50 283q-10 0-17.5-7.5T25 258q0-10 7.5-17.5T50 233q10 0 17.5 7.5T75 258zm188-48V95q0-15-11-26t-27-11h-64l29-29-18-17-40 40q-8 8-8 18t8 18l40 40 18-17-28-28h63q5 0 8.5 3.5T237 96v114q-16 4-26.5 17.5T200 258q0 21 14.5 35.5T250 308q21 0 35.5-14.5T300 258q0-17-10.5-30.5T263 210zm-13 73q-10 0-17.5-7.5T225 258q0-10 7.5-17.5T250 233q10 0 17.5 7.5T275 258q0 10-7.5 17.5T250 283z"/></svg>