<svg viewBox="0 0 300 311" xmlns="http://www.w3.org/2000/svg"><path d="M300 308H0V45q0-15 11-26T38 8h225q15 0 26 11t11 27v262zM25 283h250V45q0-5-3.5-8.5T263 33H38q-6 0-9.5 3.5T25 45v238zm50-125q0 5 3.5 9t9 3.5q5.5-.5 9-4t3.5-8.5q0-5-3.5-9t-9-4q-5.5 0-9 4t-3.5 9zm125 0q0 5 3.5 9t9 4q5.5 0 9-4t3.5-9q0-5-3.5-9t-9-4q-5.5 0-9 4t-3.5 9zM75 95q0 6 3.5 9.5t9 3.5q5.5 0 9-3.5t3.5-9q0-5.5-3.5-9t-9-3.5q-5.5 0-9 3.5T75 95zm125 0q0 6 3.5 9.5t9 3.5q5.5 0 9-3.5t3.5-9q0-5.5-3.5-9t-9-3.5q-5.5 0-9 3.5T200 95zM75 220q0 6 3.5 9.5t9 3.5q5.5 0 9-3.5t3.5-9q0-5.5-3.5-9t-9-3.5q-5.5 0-9 3.5T75 221v-1zm125 0q0 6 3.5 9.5t9 3.5q5.5 0 9-3.5t3.5-9q0-5.5-3.5-9t-9-3.5q-5.5 0-9 3.5T200 221v-1z"/></svg>