<svg viewBox="0 0 300 311" xmlns="http://www.w3.org/2000/svg"><path d="M275 220v26q0 5-3.5 8.5t-9 3.5q-5.5 0-9-3.5T250 245V108q0-15-5.5-28.5t-16-24.5Q218 44 204 38.5T175 33H75q-20 0-37.5 10T10 70.5Q0 88 0 108v175h75v-38h50v38h75v-38h25q0 16 11 27t26.5 11q15.5 0 26.5-11t11-26v-26h-25zM75 58h100q21 0 35.5 14.5T225 108v50H25v-50q0-21 14.5-35.5T75 58zm100 162v38h-25v-38H50v38H25v-75h200v37h-50zm-62-112q0-5 3.5-9t8.5-4q5 0 8.5 4t4 9q.5 5-3.5 8.5t-9 3.5q-5 0-8.5-3.5T113 108zm-50 0q0-5 3.5-8.5t8.5-4q5-.5 9 3.5t4 9q0 5-4 8.5t-9 3.5q-5 0-9-3.5t-3-8.5zm100 0q0-5 3.5-8.5t8.5-4q5-.5 8.5 3.5t4 9q.5 5-3.5 8.5t-9 3.5q-5 0-8.5-3.5T163 108z"/></svg>