<svg viewBox="0 0 300 311" xmlns="http://www.w3.org/2000/svg"><path d="M275 233v-25q0-16-11-26.5T237 171h-9q-12 15-30 24h40q5 0 8.5 4t3.5 9v25H50v-25q0-5 3.5-8.5T62 196h40q-18-10-30-26h-9q-16 0-27 11t-11 27v25H0v75h300v-75h-25zM88 283H25v-25h63v25zm50 0h-25v-25h25v25zm50 0h-25v-25h25v25zm87 0h-62v-25h62v25zM150 183q19 0 36-10.5t28-27.5q11-17 11-37 0-22-17-44-10-13-34-32v-1q-11-9-15-13L149 8l-8 11q-7 8-12 19-3 7-6 19l-2 7-6-24-16 17q-24 25-24 51 0 20 11 37t28 27.5q17 10.5 36 10.5zm9-29q-2 2-4.5 3t-4.5 1q-2 0-4.5-1t-4.5-3q-4-3-4-8.5t4-8.5l9-9 9 9q4 3 4 8.5t-4 8.5zm-53-65q5 7 13 7 12 0 20-11 4-7 8-21 3-12 6-18l5 5q20 16 28 26 14 16 14 31 0 19-13 33-1-13-10-22l-27-26-27 26q-9 9-10 22-13-14-13-33 0-10 6-19z"/></svg>