<svg viewBox="0 0 300 311" xmlns="http://www.w3.org/2000/svg"><path d="M200 308q-16 0-30-8-17 9-36 8t-36-11q-18 12-39.5 10.5t-38-16Q4 277 .5 255.5t7-40.5q10.5-19 31-27.5T80 185q10-13 25.5-20t32-7q16.5 0 31 6.5T194 183q16-1 31.5 5.5T250 208h6q13 0 24 7t16.5 19.5q5.5 12.5 3 25t-11.5 22q-9 9.5-22 12.5t-25-1q-18 15-41 15zm-29-37l7 5q12 8 26.5 6.5T229 269l7-8 10 6q4 4 10 3.5t10.5-3.5q4.5-3 7-8t1.5-10.5q-1-5.5-5-9.5t-10-5.5q-6-1.5-11 .5l-10 5-6-11q-6-11-17.5-16.5T191 209l-8 2-5-7q-7-10-18.5-15.5t-24-5.5q-12.5 0-23.5 6.5T95 207l-6 10-10-5q-13-6-27-2.5t-21.5 16Q23 238 25.5 252T39 275q11 9 25.5 8T89 272l8-8 9 7q12 11 28 12t30-8l7-4zM63 158h3q5-8 14.5-11t17.5 1l13 6 5-13q4-13 15.5-22t26-10.5q14.5-1.5 27.5 5t20 18.5l6 10 10-5q8-4 17-4t17.5 4.5Q264 142 269 150t6 17q1 9-3 18 12 3 23 10 6-14 4.5-30t-10-29q-8.5-13-22.5-20.5t-30-7.5q-8 0-17 2-10-13-25.5-20T162 83q-20 0-37.5 10.5T97 121q-5-1-9 0-19 0-32.5 11.5T38 161q12-3 25-3zm-45-15q5-12 14-22-7-9-7-19 0-13 9-22.5T56 70q8 1 15 4l14 8 4-16q3-13 13.5-22T127 33.5q14-1.5 26 5.5t18 19l6 13 12-8q12-8 26-4t20 17l4 9q8-1 17 0 17 4 31 14v-4q0-14-9.5-25T253 58q-11-16-29.5-22T187 36q-11-14-27.5-21.5t-34.5-6q-18 1.5-33 12T69 47q-6-1-13-2-17 0-31.5 10T4 81q-6 16-2.5 33T18 143z"/></svg>