<svg viewBox="0 0 300 311" xmlns="http://www.w3.org/2000/svg"><path d="M263 45H88q-16 0-27 11.5T50 83v137h250V83q0-15-11-26.5T263 45zm12 150H75V83q0-5 3.5-9t9.5-4h175q5 0 8.5 4t3.5 9v112zM25 245h225v25H0V133q0-12 7-21.5T25 98v147zM175 95q-15 0-26 11.5T138 133q0 15 11 26t26 11q15 0 26.5-11t11.5-26q0-15-11.5-26.5T175 95zm0 50q-5 0-8.5-3.5T163 133q0-5 3.5-9t8.5-4q5 0 9 4t4 9q0 5-4 8.5t-9 3.5zm-50-43q0 8-5.5 13t-13.5 5q-8 0-13-5t-5-13q0-8 5-13.5t13-5.5q8 0 13.5 5.5T125 102zm0 62q0 8-5.5 13.5T106 183q-8 0-13-5.5T88 164q0-8 5-13.5t13-5.5q8 0 13.5 5.5T125 164zm138-62q0 8-5.5 13t-13.5 5q-8 0-13.5-5t-5.5-13q0-8 5.5-13.5T244 83q8 0 13.5 5.5T263 102zm0 62q0 8-5.5 13.5T244 183q-8 0-13.5-5.5T225 164q0-8 5.5-13.5T244 145q8 0 13.5 5.5T263 164z"/></svg>