<svg viewBox="0 0 300 311" xmlns="http://www.w3.org/2000/svg"><path d="M163 96V45q0-15-11-26T125 8h-25Q84 8 73 19T62 46v50q-21 2-35 18t-14 38v156h200V152q-1-22-15-38t-36-18h1zM88 45q0-5 3.5-8.5T100 33h25q5 0 8.5 3.5T137 45v50H88V45zm100 238H38V152q0-13 9-22.5t22-9.5h87q13 0 22 9.5t9 22.5v131h1zm50-219q0 8-5.5 13.5T219 83q-8 0-13.5-5.5T200 64q0-8 5.5-13.5t13.5-5q8 .5 13.5 5.5t5.5 13zm12-37q0-8 5.5-13.5T269 8q8 0 13.5 5.5T288 27q0 8-5.5 13T269 45q-8 0-13.5-5T250 27zm38 75q0 8-5.5 13.5t-13.5 5q-8-.5-13.5-5.5t-5.5-13q0-8 5.5-13.5T269 83q8 0 13.5 5.5T288 102zm-175 56q-21 0-35.5 14.5T63 208q0 21 14.5 35.5t35 14.5q20.5 0 35-14.5t15-35.5q.5-21-14.5-35.5T112 158h1zm0 75q-11 0-18.5-7.5t-7-17.5q.5-10 7.5-17.5t17.5-7.5q10.5 0 18 7.5T138 208q0 10-7.5 17.5T113 233z"/></svg>