<svg viewBox="0 0 300 311" xmlns="http://www.w3.org/2000/svg"><path d="M194 109q10 19 4 38.5T174 177q-5 3-8 8t-3 11h-25q0-12 6.5-23.5T162 155q9-5 12-14.5t-2-20.5q-3-6-9-9-14-7-26 1-6 3-9 8.5t-3 12.5h-25q0-13 6.5-24.5T124 90q11-7 24-7t26.5 6q13.5 6 19.5 20zm-56 136h25v-25h-25v25zM300 45v263H0V45q0-15 11-26T38 8h225q15 0 26 11t11 27v-1zm-25 0q0-5-3.5-8.5T262 33H38q-6 0-9.5 3.5T25 46v237h250V45zM69 220q-8 1-13.5 6T50 239q0 8 5.5 13.5T69 258q8 0 13.5-5.5T88 239q0-8-5.5-13.5T69 220zm0-162q-8 0-13.5 5.5T50 77q0 8 5.5 13.5T69 96q8 0 13.5-5.5T88 77q0-8-5.5-13.5T69 58zm162 0q-8 0-13.5 5.5T212 77q0 8 5.5 13.5T231 96q8 0 13.5-5.5T250 77q0-8-5.5-13.5T231 58zm0 162q-8 0-13.5 5.5T212 239q0 8 5.5 13.5T231 258q8 0 13.5-5.5T250 239q0-8-5.5-13.5T231 220z"/></svg>