<svg viewBox="0 0 300 311" xmlns="http://www.w3.org/2000/svg"><path d="M277 19q-11-8-24-10t-26 1L116 42q-8 3-16 4-34 3-46.5 15.5T38 108q-1 8-4 16L2 235q-3 13-1 26t10.5 24Q20 296 32 302t25 6h80q15 0 36-7 40-13 73.5-46.5T293 181q7-21 7-36V65q0-13-6-25t-17-21zm-43 15q4-1 9-1 11 0 19 7 13 9 13 25v63l-82-82 41-12zM32 270q-10-13-6-28l12-41 82 82H57q-16 0-25-13zm197-33q-20 19-43 31-17 9-33 13L46 174l12-43q3-10 4.5-21t4-20Q69 81 71 79q3-2 11.5-4.5t19.5-4q11-1.5 21-4.5l43-12 107 107q-4 16-13 33-12 23-31 43zm-40-117l-77 77-18-18 77-77 18 18zm18 18l17 17-77 77-17-17 77-77z"/></svg>