<svg viewBox="0 0 300 311" xmlns="http://www.w3.org/2000/svg"><path d="M150 179q-14 22-39 30l-32 11-8-24 32-11q16-5 25-18t9-29V8h25v130q0 16 9.5 29t25.5 18l32 11-8 24-32-11q-25-8-39-30zm144 27l-23-100q-5-21-22-34.5T210 58h-22v25h22q13 0 23.5 8t13.5 21l23 99q5 23 5 47 0 10-7.5 17.5T250 283q-5 0-8-1l-20-7q-14-5-23-15.5T188 235l-7-2q-9-3-19-9v3q0 25 14.5 44.5T214 299l20 6q9 3 16 3 10 0 19-4t16-11q15-14 15-35 0-26-6-52zm-182 29q-2 14-11 24.5T78 275l-20 7-8 1q-10 0-17.5-7.5T25 258q0-24 5-47l23-99q3-13 13.5-21T90 83h22V58H90q-22 0-39 13.5T29 106L6 206q-6 26-6 52 0 21 15 35 7 7 16 11t19 4q8 0 16-3l20-6q23-8 37.5-27.5T138 227v-3q-10 6-19 9l-7 2z"/></svg>