<svg viewBox="0 0 300 311" xmlns="http://www.w3.org/2000/svg"><path d="M150 8q-41 0-75.5 20T20 82.5Q0 117 0 158t20 75.5Q40 268 74.5 288t75.5 20q41 0 75.5-20t54.5-54.5q20-34.5 20-75.5t-20-75.5Q260 48 225.5 28T150 8zm0 275q-34 0-62.5-17T42 220.5Q25 192 25 158t17-62.5Q59 67 87.5 50T150 33q34 0 62.5 17T258 95.5q17 28.5 17 62.5t-17 62.5Q241 249 212.5 266T150 283zm-12-150q0 5-4 9t-9 3.5q-5-.5-8.5-4T113 133q0-5 3.5-9t8.5-4q5 0 9 4t4 9zm-50 0q0 5-4 9t-9 3.5q-5-.5-8.5-4T63 133q0-5 3.5-9t8.5-3.5q5 .5 8.5 4T87 133h1zm25-38q0 6-4 9.5t-9 3.5q-5 0-8.5-3.5t-3.5-9q0-5.5 3.5-9T100 83q5 0 8.5 3.5T112 95h1z"/></svg>