<svg viewBox="0 0 300 311" xmlns="http://www.w3.org/2000/svg"><path d="M150 58q18 0 33.5 6.5T212 84l-18 17q-18-18-44-18t-44 18L88 84q13-13 28.5-19.5T150 58zm80 8l17-18q-26-26-61.5-35.5t-71 0Q79 22 53 48l17 18q22-22 51-29.5t58 0Q208 44 230 66zm70 104v138H0V170q0-15 11-26t27-11h225q15 0 26 11t11 26zm-25 0q0-5-3.5-8.5T262 158H38q-6 0-9.5 3.5T25 171v112h250V170zm-212 0H38v100h37v-25H63v-75zm150 100h50v-25h-25v-12h25v-25h-25v-13h25v-25h-50v100zm-125 0h25V170H88v100zm87-95l-12 44-13-44v-5h-25v7l26 93h23l26-90v-10h-25v5z"/></svg>