<svg viewBox="0 0 300 311" xmlns="http://www.w3.org/2000/svg"><path d="M21 192l52 116h31q9 0 16.5-4t12-11.5q4.5-7.5 5.5-16t-3-16.5l-28-65h31q16 1 30.5 9t23 22.5Q200 241 200 258h25V8h-25q0 17-8.5 31.5t-23 22.5Q154 70 138 70H38q-16 1-27 11.5T0 108v50q0 11 6 20t15 14zm91 78q2 4-.5 8.5T104 283H89l-39-88h29l33 75zM25 108q0-5 3.5-8.5T37 95h101q17 1 33.5-6T200 69v128q-12-13-28.5-20t-33.5-6H38q-6-1-9.5-4.5T25 158v-50zm254 96l-29-28 18-18 28 29-17 17zm-11-97l-17-17 28-28 17 17-28 28zm-5 13h37v25h-37v-25z"/></svg>