<svg viewBox="0 0 300 311" xmlns="http://www.w3.org/2000/svg"><path d="M75 183q37 12 75 12t75-12q-7 25-25 42-21 20-50 20t-50-20q-18-17-25-42zm25-63q3 0 8 8t4 17h26q0-18-11-33.5t-27-16Q84 95 73.5 111T63 146h25q0-10 4.5-17.5t7.5-7.5v-1zm100-25q-16 0-27 16t-11 35h26q0-10 4.5-17.5t7.5-8q3-.5 8 7.5t5 17h25q0-18-11-33.5T200 96v-1zm93 84q-6-6-31-14l-25-7 7 24q9 25 15.5 32t16.5 7q10 0 17-7.5t7-17.5q0-10-7-17zM63 158q-13 3-25 7-25 8-31.5 14.5T0 196q0 10 7 17.5t17 7.5q10 0 16.5-7T56 182q4-13 6-24h1zm87 125q-28 0-54-12.5T53 236q-11 8-25 9 21 30 53.5 46.5T150 308q36 0 68.5-16.5T272 245q-14-1-25-9-17 22-43 34.5T150 283zm0-250q31 0 58 14.5T252.5 87q17.5 25 21.5 56 13 4 26 11-1-40-21.5-73.5t-54.5-53Q190 8 150 8T76 27.5Q42 47 21.5 80.5T0 154q13-7 26-11 4-31 21.5-56T92 47.5Q119 33 150 33z"/></svg>