<svg viewBox="0 0 300 311" xmlns="http://www.w3.org/2000/svg"><path d="M263 58H38q-16 0-27 11T0 96v162h300V95q0-15-11-26t-27-11h1zm12 175H25V95q0-5 3.5-8.5T37 83h226q5 0 8.5 3.5T275 95v138zM150 108q-21 0-35.5 14.5T100 158q0 21 14.5 35.5T150 208q21 0 35.5-14.5T200 158q0-21-14.5-35.5T150 108zm0 75q-10 0-17.5-7.5T125 158q0-10 7.5-17.5T150 133q10 0 17.5 7.5T175 158q0 10-7.5 17.5T150 183zm-75-63q0 6-3.5 9.5t-9 3.5q-5.5 0-9-3.5t-3.5-9q0-5.5 3.5-9t9-3.5q5.5 0 9 3.5T75 120zm175 0q0 6-3.5 9.5t-9 3.5q-5.5 0-9-3.5t-3.5-9q0-5.5 3.5-9t9-3.5q5.5 0 9 3.5t3.5 8.5zM75 195q0 6-3.5 9.5t-9 3.5q-5.5 0-9-3.5t-3.5-9q0-5.5 3.5-9t9-3.5q5.5 0 9 3.5T75 196v-1zm175 0q0 6-3.5 9.5t-9 3.5q-5.5 0-9-3.5t-3.5-9q0-5.5 3.5-9t9-3.5q5.5 0 9 3.5t3.5 9.5v-1z"/></svg>