<svg viewBox="0 0 300 311" xmlns="http://www.w3.org/2000/svg"><path d="M150 133q-25 0-50 5v-29l86-44-75-54q-6-3-12.5-3t-12 3.5Q81 15 78 20.5T75 33v111q-34 12-54.5 32T0 220.5Q0 245 20 265t54.5 31.5Q109 308 150 308t75.5-11.5Q260 285 280 265t20-44.5q0-24.5-20-44.5t-54.5-31.5Q191 133 150 133zM100 33l39 28-39 20V33zm50 250q-33 0-62-8.5t-46-23q-17-14.5-17-30T38.5 193Q52 180 75 171v49h25v-57q25-5 50-5 33 0 62 8.5t46 23q17 14.5 17 31t-17 31q-17 14.5-46 23t-62 8.5zm63-63q0 11-7.5 18t-18 7q-10.5 0-17.5-7t-7-17.5q0-10.5 7-17.5t17.5-7q10.5 0 17.5 7t7 17h1z"/></svg>