<svg viewBox="0 0 300 311" xmlns="http://www.w3.org/2000/svg"><path d="M169 164q0 8-5.5 13.5T150 183q-8 0-13.5-5.5T131 164q0-8 5.5-13.5T150 145q8 0 13.5 5.5T169 164zm117 76l-11 4q-16 5-34 9-29 6-50 5-8 19-33 42l-8 8-8-8q-25-23-33-42h-8q-19 0-46-6-15-3-30-8l-11-4 3-11q4-15 9-31 10-26 20-43-13-17-21-50l-2-12 11-3q34-11 55-7 9-19 29-41 11-14 23-25l9-8 8 8q13 11 24 25 20 22 29 41 13-2 32 1 11 2 23 6l11 3-2 12q-3 11-7 22-6 18-14 28 10 17 20 43 5 16 9 31l3 11zm-68-133v1q0 9-3 18 9 2 17 7l5 3q5-10 10-25-18-5-29-4zm-165 4q5 15 10 25l5-3q8-5 17-7-3-9-3-18v-1q-11-1-29 4zm114 141q-1 0-1-1-9-5-16-12-7 7-16 12l-1 1q6 9 17 21 11-12 17-21zm89-28q-7-24-16-42-11-22-20.5-27.5T198 149l-23 1 12-20q6-10 6-21t-14-31q-12-17-29-34-17 17-29 34-14 20-14 31t6 21l12 20-23-1q-12 0-21.5 5.5T60 182q-9 18-16 42 24 6 45 8 24 3 34-3t16-17l11-21 11 21q6 11 16 17t34 3q21-2 44-8h1z"/></svg>