<svg viewBox="0 0 300 311" xmlns="http://www.w3.org/2000/svg"><path d="M290 18q-7-7-17-9t-19 1L0 112v8q0 51 25.5 94T94 282.5q43 25.5 93 25.5h9L298 54q3-9 1-19t-9-17zm-27 16q5-3 9 1.5t3 9.5l-9 21q-25-9-46 2-19 10-27.5 31t-1.5 41q8 23 32 34l-24 59q-60 0-92-32t-32-92l188-75zm-50 86q0-8 3.5-15t10-11.5Q233 89 241 88t16 1l-25 62q-9-4-14-12.5t-5-17.5v-1zm-34 163q-41-2-75.5-23T48 204.5Q27 170 25 129l25-10q3 63 39.5 99.5T189 258l-10 25zm-41-113q10 0 17-7t7.5-17.5q.5-10.5-7-17.5t-18-7.5q-10.5-.5-17.5 7t-7 18q0 10.5 7 17.5t18 7z"/></svg>