<svg viewBox="0 0 300 311" xmlns="http://www.w3.org/2000/svg"><path d="M289 72q11-11 11-26.5T289 19Q278 8 262.5 8T236 19L100 155v53h53L289 72zm-18-35q4 3 4 8.5t-4 8.5l-16 16-17-17 16-16q3-4 8.5-4t8.5 4zM125 183v-18l95-95 18 18-95 95h-18zm175 100v25q-13 0-22-8-6-5-13-16-5-8-8-11t-7-3q-4 0-8 3.5T231 285q-9 11-15 15-11 8-23 8t-22-8q-6-4-15-15-7-8-10.5-11.5t-8-3.5q-4.5 0-9 3T116 283q-13 12-22 17-15 8-31.5 8t-31-8.5q-14.5-8.5-23-23t-8.5-31q0-16.5 8.5-31t23-23Q46 183 63 183h12v25H63q-16 0-27 11t-11 26.5Q25 261 36 272t27 11q10 0 20-6 6-3 16-12h1q11-10 17-14 10-5 21.5-5t21.5 7q6 5 15 16 6 8 10 11t8.5 3q4.5 0 8-3.5L212 269q9-11 16-16 10-7 22-7.5t22 8.5q6 5 13 16 5 7 8 10t7 3z"/></svg>