<svg viewBox="0 0 300 311" xmlns="http://www.w3.org/2000/svg"><path d="M282 17q-8 4-22 8-26 8-48 8-11 0-28-4-10-2-31-8l-33-9q-19-4-33-4-25 0-55 13-16 7-26 14l-6 4v269h25V203q13-8 26-13 20-7 37-7 11 0 28 4 10 2 31 8l33 9q19 4 33 4 24 0 53-9 15-4 27-9l7-3V9l-18 8zm-7 103q-34 13-62 13-12 0-29-4-10-2-31-8l-16-5V92l10 3 33 9q19 4 33 4 28 0 62-11v23zm-62-62q28 0 62-11v23q-34 13-62 13-12 0-29-4-10-2-31-8l-15-5V42l9 3 33 9q19 4 33 4zM88 33q10 0 25 3v75q-15-3-26-3-28 0-62 16V53q13-8 26-13 20-7 37-7zm125 150q-12 0-29-4-10-2-31-8l-33-9q-19-4-32-4-29 0-63 16v-21q13-8 26-13 20-7 37-7 11 0 28 4 10 2 31 8l33 9q19 4 33 4 28 0 62-11v23q-34 13-62 13z"/></svg>