<svg viewBox="0 0 300 311" xmlns="http://www.w3.org/2000/svg"><path d="M150 183q40 2 71 28l-17 19q-23-20-54-22-31 2-54 22l-17-19q31-26 71-28zm150-25q0 41-20 75.5T225.5 288Q191 308 150 308t-75.5-20Q40 268 20 233.5T0 158q0-41 20-75.5T74.5 28Q109 8 150 8t75.5 20Q260 48 280 82.5t20 75.5zm-25 0q0-34-17-62.5T212.5 50Q184 33 150 33T87.5 50Q59 67 42 95.5T25 158q0 34 17 62.5T87.5 266q28.5 17 62.5 17t62.5-17q28.5-17 45.5-45.5t17-62.5zm-100-19q0 7 4 12t10 6.5q6 1.5 12-1t9-8q3-5.5 2-12t-5-10.5q8-6 18-6V95q-19 0-31 9-10 7-15 18-4 9-4 17zm-87 0q0 8 5 13.5t13 5.5q8 0 13.5-5.5T125 139q0-8-4-17-5-11-15-18-12-9-31-9v25q10 0 18 6-6 5-5 13z"/></svg>