<svg viewBox="0 0 300 311" xmlns="http://www.w3.org/2000/svg"><path d="M150 133q-13 0-24 7 2-14 12.5-23t24.5-9h25V83h-25q-17 0-31.5 8.5t-23 23Q100 129 100 146v37q0 21 14.5 35.5T150 233q21 0 35.5-14.5T200 183q0-21-14.5-35.5T150 133zm0 75q-10 0-17.5-7.5T125 183q0-10 7.5-17.5T150 158q10 0 17.5 7.5T175 183q0 10-7.5 17.5T150 208zm0-200q-41 0-75.5 20T20 82.5Q0 117 0 158t20 75.5Q40 268 74.5 288t75.5 20q41 0 75.5-20t54.5-54.5q20-34.5 20-75.5t-20-75.5Q260 48 225.5 28T150 8zm0 275q-34 0-62.5-17T42 220.5Q25 192 25 158t17-62.5Q59 67 87.5 50T150 33q34 0 62.5 17T258 95.5q17 28.5 17 62.5t-17 62.5Q241 249 212.5 266T150 283z"/></svg>