<svg viewBox="0 0 300 311" xmlns="http://www.w3.org/2000/svg"><path d="M280 76q-21-20-55-31.5T150 33q-41 0-75.5 11.5T20 76Q0 96 0 124v46h100v-53q24-9 49.5-9t50.5 9v53h100v-46q0-28-20-48zm-5 69h-50v-44l-8-4q-33-14-67-14T82 98l-7 3v44H25v-21q0-17 13-30 16-17 46-26.5t66-9.5h1q36 0 65 9.5T262 94q13 13 13 30v21zm-87 63v25h-25v-25h25zm25 0h25v25h-25v-25zm50 0h25v25h-25v-25zm0 50h25v25h-25v-25zM13 208h25v25H13v-25zm0 50h25v25H13v-25zm125-50v25h-25v-25h25zm-50 0v25H63v-25h25zm-25 50h175v25H63v-25z"/></svg>