<svg viewBox="0 0 300 311" xmlns="http://www.w3.org/2000/svg"><path d="M83 285l-25-8 11-32 6 1q21-1 37.5-13.5T135 200l15-44 15 44q6 22 24.5 35t41.5 10l10 32-24 7 7 24 73-22-8-24-24 7-10-32q19-10 27.5-30t2.5-42l-23-68q-5-14-18-21.5T216 72l-48 13q-11 3-18 11-7-8-18-11L84 72q-15-4-28 3T38 97l-23 69q-6 21 2.5 41T45 238l-10 32-25-8-7 24 72 22 8-23zm175-84q-8 14-23 18t-28.5-3.5Q193 208 189 192l-12-34h79l5 15q4 15-3 28zm-91-86q2-4 8-6l48-13 3-1q4 1 7.5 3.5t4.5 6.5l10 28h-79l-3-8q-2-5 1-10zM74 95q2 1 3 1l48 13q5 2 8 6.5t1 9.5l-3 8H52l10-29q1-4 4.5-6t7.5-2v-1zm-35 79l5-16h79l-12 35q-3 11-11.5 18.5t-20 8.5Q68 221 58 216t-16-15q-7-13-3-27zM175 40l29-28 17 17-28 29-18-18zM79 29l17-17 28 28-17 17-28-28zm59-21h25v37h-25V8z"/></svg>