<svg viewBox="0 0 300 311" xmlns="http://www.w3.org/2000/svg"><path d="M107 144v30q0 15 11 26t27 11h6q11 0 20.5-5t13.5-15l23 12q-8 15-23.5 24t-33.5 9h-6q-17 0-31.5-8t-23-22.5Q82 191 82 174v-30q0-18 8.5-32.5t23-23Q128 80 145 80h6q18 0 33.5 9.5T208 115l-22 11q-5-10-14.5-15.5T151 105h-6q-16 0-27 11t-11 28zm193 14q0 41-20 75.5T225.5 288Q191 308 150 308t-75.5-20Q40 268 20 233.5T0 158q0-41 20-75.5T74.5 28Q109 8 150 8t75.5 20Q260 48 280 82.5t20 75.5zm-25 0q0-34-17-62.5T212.5 50Q184 33 150 33T87.5 50Q59 67 42 95.5T25 158q0 34 17 62.5T87.5 266q28.5 17 62.5 17t62.5-17q28.5-17 45.5-45.5t17-62.5z"/></svg>