<svg viewBox="0 0 300 311" xmlns="http://www.w3.org/2000/svg"><path d="M150 8q-41 0-75.5 20T20 82.5Q0 117 0 158t20 75.5Q40 268 74.5 288t75.5 20q41 0 75.5-20t54.5-54.5q20-34.5 20-75.5t-20-75.5Q260 48 225.5 28T150 8zm0 275q-34 0-62.5-17T42 220.5Q25 192 25 158t17-62.5Q59 67 87.5 50T150 33q34 0 62.5 17T258 95.5q17 28.5 17 62.5t-17 62.5Q241 249 212.5 266T150 283zm84-180q-12-17-29-29l-10-6-36 54q-4-1-9-1t-9 1l-36-54-10 6q-17 12-29 29-16 25-16 55v12l65 1q2 5 5 10l-35 54 10 7q25 16 55 16t55-16l10-7-35-54q3-5 5-10l65-1v-12q0-30-16-55zm-71 55q0 5-4 8.5t-9 3.5q-5 0-8.5-3.5T138 158q0-5 3.5-8.5t8.5-4q5-.5 8.5 3.5t3.5 9h1zm-76-41q5-8 12-14l21 32q-4 5-6 11H76q3-16 11-29zm33 110q15-24 20-33 5 2 9.5 2t9.5-2l21 33q-14 6-30 6t-30-6zm66-81q-2-6-6-11l21-32q7 6 12 14 8 13 11 29h-38z"/></svg>