<svg viewBox="0 0 300 311" xmlns="http://www.w3.org/2000/svg"><path d="M204 174l17 18q-9 8-22 15-25 13-49 13t-49-13q-13-7-22-15l17-18q6 5 16 11 20 11 38 10.5t38-10.5q10-6 16-11zm-98-29q8 0 13.5-5t5.5-13q0-8-5.5-13.5T106 108q-8 0-13.5 5.5t-5 13.5q.5 8 5.5 13.5t13 5.5v-1zm88 0q8 0 13-5t5.5-13q.5-8-5-13.5T194 108q-8 0-13.5 5.5T175 127q0 8 5.5 13.5T194 146v-1zm106 13v150H150q-41 0-75.5-20T20 233.5Q0 199 0 158t20-75.5Q40 48 74.5 28T150 8q41 0 75.5 20T280 82.5q20 34.5 20 75.5zm-25 0q0-34-17-62.5T212.5 50Q184 33 150 33T87.5 50Q59 67 42 95.5T25 158q0 34 17 62.5T87.5 266q28.5 17 62.5 17h125V158z"/></svg>