<svg viewBox="0 0 300 311" xmlns="http://www.w3.org/2000/svg"><path d="M125 108q10 0 17.5 7.5T150 133q0 10-7.5 17.5T125 158q-10 0-17.5-7.5T100 133q0-10 7.5-17.5T125 108zm175 25q0 48-23.5 88T213 284.5Q173 308 125 308h-12v-51q-30-3-54.5-18.5t-40-40Q3 174 .5 144.5t8-56.5q10.5-27 32-47t50-28q28.5-8 57-3t52 22.5Q223 50 236 76q-11 6-20 16-15-32-46.5-48t-66-8.5Q69 43 47 70.5T25 133q0 35 22 62.5t56.5 35q34.5 7.5 66-8T216 174q9 10 20 16-14 28-40.5 46T138 257v25q31-2 58.5-17t47-40q19.5-25 26.5-55-11 2-22-2.5t-17.5-15q-6.5-10.5-5.5-22t8.5-21q7.5-9.5 19-12.5t22.5 1q11 4 18 13.5t7 21.5zm-25 0q0-5-3.5-9t-9-4q-5.5 0-9 4t-3.5 9q0 5 3.5 9t9 3.5q5.5-.5 9-4t3.5-8.5z"/></svg>