<svg viewBox="0 0 300 311" xmlns="http://www.w3.org/2000/svg"><path d="M149 308l-8-7q-17-14-36-33-33-34-53-64-28-41-28-70 0-34 17-63t45.5-46q28.5-17 63-17t63 17Q241 42 258 71t17 63q0 29-28 70-20 30-53 64-19 18-36 33l-9 7zm0-273q-26 0-48.5 13.5t-36 36Q51 107 51 134t37 73q26 33 61 65 36-32 62-65 37-46 37-73t-13.5-49.5q-13.5-22.5-36-36T149 35zm0 149q-20 0-34.5-15T100 133.5q0-20.5 14.5-35t35-14.5q20.5 0 35 14.5t14.5 35q0 20.5-14.5 35.5T149 184zm0-75q-10 0-17 7t-7 17.5q0 10.5 7 18t17.5 7.5q10.5 0 17.5-7.5t7-18q0-10.5-7-17.5t-18-7z"/></svg>