<svg viewBox="0 0 300 311" xmlns="http://www.w3.org/2000/svg"><path d="M287 54q-13-11-31-8-4 1-7 2-4-12-14-20t-22-8q-10 0-19 5-5-8-13.5-12.5T163 8q-13 0-23 8t-14 20q-3-2-7-3-18-2-31 9T75 70v108l-12-10q-11-10-26.5-9.5t-26 11.5Q0 181 .5 196.5T12 223l88 85h200V83q0-17-13-29zm-12 229H110l-81-78q-4-4-4-9t3.5-9q3.5-4 8.5-4t10 4l53 42V70q0-5 4.5-9t9.5-3q5 1 8 5t3 9v73h25V45q0-5 3.5-8.5t9-3.5q5.5 0 9 3.5T175 45v100h25V58q0-5 3.5-9t9-4q5.5 0 9 4t3.5 9v87h25V84q0-5 3-9t8-4.5q5-.5 9.5 3T275 83v200zm-37-85q0 17-25 42-13 12-25 20l-13-10q-15-12-25-24-12-16-12-28t7-20q7-8 17.5-8t18 7q7.5 7 7.5 18 0-11 7-17.5t17.5-7q10.5-.5 18 7.5t7.5 20z"/></svg>