<svg viewBox="0 0 300 311" xmlns="http://www.w3.org/2000/svg"><path d="M264 61l35-34-18-18-34 35q-20-17-45-26.5T149.5 8Q122 8 97 17.5T52 45L19 12 1 29l33 33Q18 82 9 106.5T0 158q0 41 20 75.5T74.5 288q34.5 20 75.5 20t75.5-20q34.5-20 54.5-54.5t20-75.5q0-27-9.5-52T264 61zm-76-22v44q-17-13-38-13t-37 13V39q18-6 37-6t37 6h1zm0 94q0 16-11 27t-27 11q-16 0-27-11t-10.5-26.5q.5-15.5 11-26.5T150 96q16 0 26.5 11t10.5 26h1zm-38 150q-34 0-62.5-17T42 220.5Q25 192 25 158t17-63q17-29 46-45v83q0 17 8 31.5t22.5 23Q133 196 150 196t31.5-8.5q14.5-8.5 22.5-23t8-31.5V50q29 16 46 45t17 63q0 34-17 62.5T212.5 266Q184 283 150 283z"/></svg>