<svg viewBox="0 0 300 311" xmlns="http://www.w3.org/2000/svg"><path d="M275 239q0 24-16 40-13 15-37 22-20 7-41 7h-25q-37 0-73.5-21.5t-59.5-55Q0 198 0 164q0-50 26-94H0q19-22 38-38.5T75 8q1 25-3 52-2 15-8 43l-1 5-17-31q-21 35-21 87 0 24 20 48 18 23 46 37.5t53 14.5q15 0 27-4 16-5 17-14 0-6-5.5-11.5T167 222l-48 11 15-31-8-6H75l26-26q-4-6-7-13l-44-5 38-27q0-21 15-40 10 8 20 15-10 14-10 27 0 15 8 27 6 11 20 21 8 6 26 18 23 14 31 22 15 14 15 30 0 14-8 23.5T183 283q12 0 26-4 17-4 28-13 13-11 13-27 0-21-12-39-10-15-30-30-12-9-29-27 13-7 22-9l9 8q19 14 29 23 17 16 25 32 11 20 11 42zM250 70h50V45h-56q-4-5-11-8.5T219 33h-9q-8-7-15.5-15T187 8q1 18 3 30-15-7-27.5-17T150 8q0 12 3.5 24.5T165 56q-21-3-45-7l-20-4 1 2q25 33 63 44-7 9-10.5 20.5T150 133q1-2 11-8.5t21-10.5q14-6 24-6 27 0 49 13 11 6 17 14l19-16q-5-7-16-14-19-14-43-19 1-10 9-13 5-2 9-2v-1z"/></svg>