<svg viewBox="0 0 300 311" xmlns="http://www.w3.org/2000/svg"><path d="M275 95V70h-25v32l-27 24q-5-16-16-29 6-13 5-26 1-17-7.5-31.5t-23-23Q167 8 150 8t-31.5 8.5Q104 25 96 39.5T88 71q0 13 5 26-11 13-15 29l-28-24V70H25v25H0v25h33l43 38q1 6 3 11-16 23-16 52 0 23 11.5 43t31.5 32q20 12 44 12t44-12q20-12 32-32t12-44q-1-28-17-51 2-5 3-11l43-38h33V95h-25zM150 33q16 0 26.5 11t11 26.5Q188 86 177 97t-27 11q-16 0-26.5-11T113 70.5Q113 55 123.5 44T150 33zm-41 84q17 16 41 16t41-16q9 13 9 29 0 20-14.5 34.5T150 195q-21 0-35.5-14.5T100 145q0-15 9-28zm41 166q-17 0-31.5-8.5t-22.5-23Q88 237 88 221q-1-14 5-27 11 13 25.5 19.5t31.5 7q17 .5 31.5-6.5t25.5-20q6 13 6 27 0 16-8.5 30.5t-23 23Q167 283 150 283z"/></svg>