<svg viewBox="0 0 300 311" xmlns="http://www.w3.org/2000/svg"><path d="M113 158q20 0 37-10t27.5-27.5Q188 103 188 83t-10.5-37.5Q167 28 150 18T112.5 8Q92 8 75 18T47.5 45.5Q37 63 37.5 83T48 120.5Q58 138 75 148t38 10zm0-125q20 0 35 14.5T163 83q0 21-15 35.5T112.5 133q-20.5 0-35-14.5T63 83q0-21 14.5-35.5T113 33zm176 123q-11-10-26.5-10T236 156l-98 99v53h53l98-98q11-11 11-27t-11-27zm-18 36l-91 91h-17v-18l91-91q3-3 8.5-3t9 3.5q3.5 3.5 3.5 8.5t-4 9zm-122 16H63q-16 0-27 11t-11 26v63H0v-63q0-16 8.5-30.5t23-23Q46 183 63 183h100q4 0 10 1l-24 24z"/></svg>