<svg viewBox="0 0 300.0016 311" xmlns="http://www.w3.org/2000/svg"><path d="M250 59V8H50v51q-22 4-36.5 21.5T0 121v4l3 4q9 11 22 15v126q0 16 11 27t26 11h176q15 0 26-11t11-27V144q13-4 22-15l3-4v-5q1-22-13.5-39.5T250 59zM63 83h137V58H75V33h150v50h13q14-1 25 8.5t12 24.5q-5 5-13 5t-15-6q-10-7-22-7t-22 7q-7 5-15.5 5t-15.5-5q-10-7-22-7t-22 7q-7 5-15.5 5T97 115q-10-7-22-7t-22 7q-7 6-15 6t-13-5q1-15 12-24.5T62 83h1zm175 200H63q-6 0-9.5-3.5T50 270V144q10-3 18-9 3-2 7-2t7 2q14 10 30.5 10t30.5-10q3-2 7-2t7 2q14 10 30.5 10t30.5-10q3-2 7-2t7 2q8 6 18 9v126q0 6-3.5 9.5T238 283z"/></svg>