<svg viewBox="0 0 300 311" xmlns="http://www.w3.org/2000/svg"><path d="M234 104h-1q-5-11-17-17-8-4-16-4H100q-8 0-16 4-10 4-15.5 13T63 120v100h174V120q0-8-3-16zm-39 4l-33 32q-4 5-11.5 5t-12.5-5l-33-32h90zm17 87H88v-70l32 33q13 13 30.5 13t29.5-13l32-32v69zM150 8q-41 0-75.5 20T20 82.5Q0 117 0 158t20 75.5Q40 268 74.5 288t75.5 20q41 0 75.5-20t54.5-54.5q20-34.5 20-75.5t-20-75.5Q260 48 225.5 28T150 8zm0 275q-34 0-62.5-17T42 220.5Q25 192 25 158t17-62.5Q59 67 87.5 50T150 33q34 0 62.5 17T258 95.5q17 28.5 17 62.5t-17 62.5Q241 249 212.5 266T150 283z"/></svg>