<svg viewBox="0 0 300 311" xmlns="http://www.w3.org/2000/svg"><path d="M150 158q21 0 35.5-14.5T200 108q0-21-14.5-35.5T150 58q-21 0-35.5 14.5T100 108q0 21 14.5 35.5T150 158zm0-75q10 0 17.5 7.5T175 108q0 10-7.5 17.5T150 133q-10 0-17.5-7.5T125 108q0-10 7.5-17.5T150 83zm50 200l100 25V177q0-13-7.5-23T273 141l-26-9q3-12 3-24 0-27-13.5-50T200 21.5Q177 8 150 8t-50 13.5Q77 35 63.5 58T50 108q0 8 1 15-8-3-17.5-2t-17 6q-7.5 5-12 13.5T0 158v122l100 28 100-25zM97 55q14-14 33.5-19t38.5 0q19 5 33.5 19.5T222 89q5 19 0 38.5T203 161l-53 52-53-52q-14-14-19.5-33.5t0-39Q83 69 97 55zM25 158q0-7 5.5-10.5T43 147l18 6q7 15 18 26l71 69 71-69q10-11 17-24l28 10q4 1 6.5 4t2.5 8v99l-75-18-100 25-75-22V158z"/></svg>