<svg viewBox="0 0 300 311" xmlns="http://www.w3.org/2000/svg"><path d="M249 41L150 8 51 41q-12 3-19 13t-7 22v82q0 37 24 71 18 26 49 49 20 14 41 25l10 5 11-4q22-9 42-22 31-21 49-47 24-35 24-77V76q0-12-7-22t-19-13zm1 117q0 35-21 64-15 22-42 40-18 11-36 19-34-17-60-41-41-39-41-82V76q0-4 2.5-7t6.5-5l91-30 91 30q4 2 6.5 5t2.5 7v82zm-45-50h1q8 0 13.5-5.5T225 89q0-8-5.5-13.5T206 70q-8 0-13.5 5.5T187 89l1 1-8 8q-8-5-17-7V70h-25v21q-10 2-18 7l-8-8v-1q1-8-4.5-13.5T94 70q-8 0-13.5 5.5T75 89q0 8 5.5 13.5T94 108h1l7 8q-5 8-7 17H75v25h20q2 9 7 17l-7 8h-1q-8 0-13.5 5.5t-5.5 13q0 7.5 5.5 13T94 220q8 0 13.5-5.5T113 202l-1-1 8-8q8 5 18 7v20h25v-20q9-2 17-7l8 8-1 1q1 7 6 12.5t13 5.5q8 0 13.5-5.5t5.5-13q0-7.5-5.5-13T206 183h-1l-7-8q5-8 7-17h20v-25h-20q-2-9-7-17l7-8zm-55 69q-13 0-22-9.5t-9-22q0-12.5 9-22t22-9.5q13 0 22 9.5t9 22q0 12.5-9 22t-22 9.5z"/></svg>