<svg viewBox="0 0 300 311" xmlns="http://www.w3.org/2000/svg"><path d="M206 83q-19 1-32 16t-11 34q-2 19 11 34t32 16q20-1 32.5-16t11.5-34q1-19-11.5-34T206 83zm0 75q-7 0-12.5-7.5T187 133q0-5 2-11 3 5 7.5 8t10 3q5.5 0 10-3t6.5-8q2 6 2 11 0 10-5.5 17.5T206 158zm-68-25q1-19-12-34T94 83q-20 1-32.5 16T50 133q-1 19 11.5 34T94 183q19-1 32-16t12-34zm-44 25q-8 0-13.5-7.5T75 133q0-5 2-11 2 5 6.5 8t10 3q5.5 0 10-3t7.5-8q1 6 1 11 0 10-5.5 17.5T94 158zm6 50h100v25H100v-25zM150 8q-41 0-75.5 20T20 82.5Q0 117 0 158t20 75.5Q40 268 74.5 288t75.5 20q41 0 75.5-20t54.5-54.5q20-34.5 20-75.5t-20-75.5Q260 48 225.5 28T150 8zm0 275q-34 0-62.5-17T42 220.5Q25 192 25 158t17-62.5Q59 67 87.5 50T150 33q34 0 62.5 17T258 95.5q17 28.5 17 62.5t-17 62.5Q241 249 212.5 266T150 283z"/></svg>