<svg viewBox="0 0 300 311" xmlns="http://www.w3.org/2000/svg"><path d="M263 33H38q-16 0-27 11T0 71v212h300V70q0-15-11-26t-27-11h1zm12 225H25V70q0-5 3.5-8.5T38 58h225q5 0 8.5 3.5T275 71v187zM206 95h-43v125h43q18 0 31-12.5t13-30.5v-38q0-18-13-31t-31-13zm19 82q0 8-5.5 13t-13.5 5h-18v-75h18q8 0 13.5 5.5T225 139v38zM75 133q0 4 2.5 6.5T83 143l38 6q13 2 21 11.5t8 22.5q0 16-11 27t-26 11H88q-16-1-27-11.5T50 183h25q0 5 3.5 9t8.5 3h26q5 0 8.5-3.5t3.5-8q0-4.5-2.5-7T117 173l-38-6q-13-2-21-11.5T50 133q0-16 11-26.5T88 96h25q15 0 26 10.5t11 26.5h-25q0-5-3.5-9t-8.5-4H88q-6 0-9.5 4t-3.5 9z"/></svg>