<svg viewBox="0 0 300 311" xmlns="http://www.w3.org/2000/svg"><path d="M279 108q3-3 5-4 16-16 16-39.5t-16.5-40Q267 8 243.5 8T204 24l-4 5q-9-13-23-18t-28.5-1.5Q134 13 124 25t-11 27q-1 21 9 39 14 27 15 56-22-20-51-25-19-4-37 2.5T18 145Q6 157 2 178q-2 14-2 41v89h89q28 0 41-2 21-4 33-16 25-25 24.5-56.5T161 171q29 1 56 15 16 9 34 10l5-1q15-1 27-11t15.5-24.5Q302 145 297 131t-18-23zm-35-75q9 0 17 5.5t11.5 14q3.5 8.5 2 18T266 86q-10 10-40 25-23 12-54 25 13-31 25-54 15-30 24.5-39.5T244 33zm-98 5q7-6 16-5t15 7q6 6 6 14-12 22-27 56-4-15-11-28t-7-28q0-9 8-16zm0 234q-7 7-24 10-10 1-33 1H25v-64q0-23 1-33 3-16 10-23 8-10 20.5-14.5T82 146q30 7 50 30 20 20 27 40 11 32-13 56zm108-102q-14 0-27.5-7T198 152q29-12 56-27 9 0 15 7t6 15.5q0 8.5-6 15.5t-15 7z"/></svg>