<svg viewBox="0 0 300 311" xmlns="http://www.w3.org/2000/svg"><path d="M150 308q-41 0-75.5-20T20 233.5Q0 199 0 158t20-75.5Q40 48 74.5 28T150 8q41 0 75.5 20T280 82.5q20 34.5 20 75.5t-20 75.5Q260 268 225.5 288T150 308zm0-275q-34 0-62.5 17T42 95.5Q25 124 25 158t17 62.5Q59 249 87.5 266t62.5 17q34 0 62.5-17t45.5-45.5q17-28.5 17-62.5t-17-62.5Q241 67 212.5 50T150 33zm25 212h-25v-87h-25v-25h25q10 0 17.5 7.5T175 158v87zM131 89q0 8 5.5 13.5T150 108q8 0 13.5-5.5T169 89q0-8-5.5-13.5t-13.5-5q-8 .5-13.5 5.5T131 89z"/></svg>