<svg viewBox="0 0 300 311" xmlns="http://www.w3.org/2000/svg"><path d="M150 8q-41 0-75.5 20T20 82.5Q0 117 0 158t20 75.5Q40 268 74.5 288t75.5 20q41 0 75.5-20t54.5-54.5q20-34.5 20-75.5t-20-75.5Q260 48 225.5 28T150 8zm0 275q-34 0-62.5-17T42 220.5Q25 192 25 158t17-62.5Q59 67 87.5 50T150 33q34 0 62.5 17T258 95.5q17 28.5 17 62.5t-17 62.5Q241 249 212.5 266T150 283zm63-109v-32q0-17-8.5-31t-23-22.5Q167 80 150 80t-31.5 8.5Q104 97 96 111t-8 31v32q0 17 8 31t22.5 22.5Q133 236 150 236q20 0 36-12l15 15 17-18-15-15q10-15 9-32h1zm-63 37q-16 0-26.5-11T113 174v-32q0-15 10.5-26t26.5-11q16 0 26.5 11t10.5 26v32q1 7-2 14l-20-20-18 18 21 20q-8 5-18 5z"/></svg>