<svg viewBox="0 0 300 311" xmlns="http://www.w3.org/2000/svg"><path d="M175 145h39l-7 6-19 19h-13v-25zm-25 38q0-13-8-22.5T121 149l-38-7q-3 0-5.5-2.5t-2.5-7q0-4.5 3.5-8T87 121h26q5-1 8.5 3t3.5 9h25q0-16-11-26.5T113 96V83H88v12q-16 0-27 11t-11 27q0 13 8 22.5T79 167l38 6q3 1 5.5 3.5t2.5 7q0 4.5-3.5 8T113 195H88q-6 0-9.5-3.5T75 183H50q0 16 11 26.5T88 220v13h25v-13q15 0 26-10.5t11-26.5zM263 33H38q-16 0-27 11T0 71v212h113v-25H25V70q0-5 3.5-8.5T38 58h225q5 0 8.5 3.5T275 71v51q13 3 25 11V70q0-15-11-26t-27-11h1zm-13 62h-75v25h75V95zm39 61q11 11 11 27t-11 27l-98 98h-53v-53l98-99q11-10 26.5-10t26.5 10zm-14 27q0-5-3.5-9t-9-3.5q-5.5.5-8.5 3.5l-91 91v18h17l91-91q4-4 4-9z"/></svg>