<svg viewBox="0 0 300 311" xmlns="http://www.w3.org/2000/svg"><path d="M300 45v109q-10-12-25-26V45q0-5-3.5-8.5T262 33H38q-6 0-9.5 3.5T25 45v238h94q10 14 23 25H0V45q0-15 11-26T38 8h225q15 0 26 11t11 27v-1zM50 70q0 6 3.5 9.5t9 3.5q5.5 0 9-3.5t3.5-9q0-5.5-3.5-9t-9-3.5q-5.5 0-9 3.5T50 71v-1zm50 0q0 6 3.5 9.5t9 3.5q5.5 0 9-3.5t3.5-9q0-5.5-3.5-9t-9-3.5q-5.5 0-9 3.5T100 71v-1zm200 150q0 24-11 44t-30.5 32Q239 308 213 308t-46-12q-20-12-31-32t-11-44q0-18 10-35 6-12 18-24l15-15 6 20q2 5 5 10l2-8q4-16 7-24 6-15 15-25l9-10 9 9q6 6 21 18 27 22 39 35 19 24 19 50v-1zm-87 63q2 0 4.5-1t3.5-2q4-4 4-9t-4-9l-8-9-9 9q-4 4-4 9t4 9q1 1 3.5 2t4.5 1h1zm62-63q0-17-16-35-9-11-33-30l-11-9q-5 9-10 28-4 17-8 23-7 11-18 11t-20-15q-9 14-9 28.5t6.5 27.5q6.5 13 18.5 21 0-15 11-26l26-26 27 26q11 11 11 26 12-8 18.5-21t6.5-29z"/></svg>