<svg viewBox="0 0 300 311" xmlns="http://www.w3.org/2000/svg"><path d="M113 113q-1-3-2.5-5.5T106 105l-41-7q-12-2-19.5-11T38 65q0-13 9.5-22.5T70 33h5V20h25v13q16 0 26.5 11T138 71h-25q0-6-4-9.5t-9-3.5H70q-3 0-5 2.5T63 66q0 3 1.5 5t4.5 3l41 6q12 2 20 11.5t8 22q0 12.5-10 22.5t-23 9h-5v13H75v-13q-16 1-27-10t-11-27h26q0 5 3.5 9t8.5 4h30q3 0 5-2.5t2-5.5h1zm50-47q0 12 7.5 21T190 98l41 7q3 0 5 2.5t2 5.5q0 3-2.5 5t-5.5 2h-30q-5 0-9-3.5t-4-8.5h-24q0 16 10.5 26.5T200 145v13h25v-13h5q13 0 23-9.5t10-22q0-12.5-8-22T235 80l-41-7q-3 0-5-2t-1.5-5q.5-3 2.5-5.5t5-2.5h30q5 0 9 3.5t4 9.5h25q0-16-11-27t-27-11V20h-25v13h-5q-13 0-22.5 9.5T163 66zm-13-33q10-13 25-20v-3q-13-2-25-2t-25 2v3q15 7 25 20zm138 65v15q0 20-13 36v9q0 34-17 62.5T212.5 266Q184 283 150 283t-62.5-17Q59 249 42 220.5T25 158l1-12q-14-17-14-38V98Q0 127 0 158q0 41 20 75.5T74.5 288q34.5 20 75.5 20t75.5-20q34.5-20 54.5-54.5t20-75.5q0-31-12-60zM113 215v-7H88v-25h125v25h-25v7q0 17-10.5 30T150 258q-17 0-27.5-13T112 215h1zm50-7h-25v7q0 7 3.5 12.5t8.5 5.5q5 0 9-5.5t4-11.5v-8z"/></svg>