<svg viewBox="0 0 300 311" xmlns="http://www.w3.org/2000/svg"><path d="M291 147q-15-33-22-48-12-24-21-36-23-30-57.5-44.5T118 9q-31 5-56.5 22t-42 44Q3 102 1 133q-3 27 5 53t26 47q6 7 5 16v59h163v-38h28q14 0 24.5-9t12.5-23l6-43h29v-27l-9-21zm-153-27q10 1 17.5 8t7.5 17.5q0 10.5-7.5 18t-18 7Q127 170 120 163t-7-17.5q0-10.5 7-18t18-7.5zm111 50l-9 65q0 4-3.5 7.5T228 246h-53v37H63v-34q0-18-12-32-14-17-21-38t-5-44q3-25 16-47t34-36q21-14 47-18h3v63q-16 4-27 17.5T87 146q1 20 15.5 35t35 15q20.5 0 35.5-15t15-35q-1-18-11.5-31.5T150 97V34q23 2 43 13.5T228 79q8 10 20 33 6 14 20 45l6 13h-25z"/></svg>