<svg viewBox="0 0 300 311" xmlns="http://www.w3.org/2000/svg"><path d="M200 114q0-8 3.5-13.5t9-5.5q5.5 0 9 5.5T225 114q0 8-3.5 13.5t-9 5.5q-5.5 0-9-5.5T200 114zm99 176l-17 17L0 26 18 8l13 14Q46 8 62 8h151q16 0 29.5 12t22 33.5Q273 75 275 102v163l24 25zm-49-90q-10 13-23 18l23 22v-40zM213 33q-9 0-18 10.5t-14.5 29q-5.5 18.5-5.5 42t6 42.5q6 19 15 29l5 5q7 5 11 4 9 0 18-10.5t14.5-29Q250 137 250 114t-5.5-41.5Q239 54 230 43.5T213 33zM49 39l103 103q-2-13-2-28 0-24 6-45t16-36H63q-7 0-14 6zm101 244q-10 0-17.5-7.5T125 258v-38h34l-25-25H63q-9 0-18-10.5t-14.5-29Q25 137 25 114q0-13 2-26L6 67q-6 22-6 47 0 30 8.5 54T31 206q14 14 32 14h37v38q0 21 14.5 35.5T150 308h97l-25-25h-72z"/></svg>