<svg viewBox="0 0 302 311" xmlns="http://www.w3.org/2000/svg"><path d="M292 200q-43-11-78 4-29 12-50 39v-40q17-16 22-35 13 3 29-1 8-1 15-4l9-3-1-10q-1-7-4-14-4-15-12-25 8-10 12-25 3-8 4-14l1-10-9-3q-7-3-15-5-16-3-29-1-4-13-15-26-6-8-12-12l-8-6-8 6q-6 4-12 12-11 13-15 26-13-2-29 1-8 2-15 5l-9 3 2 10q0 6 3 14 4 14 12 25-8 10-12 24-3 8-3 15l-2 9 9 4q7 2 15 4 16 3 29 1 5 19 23 35v40q-22-27-51-39-35-15-78-4l-10 3 1 10q3 44 33 69 23 18 59 24 23 3 49 1h18q26 2 49-1 36-6 59-24 30-25 33-69l1-10-10-3zm-172-59q-10 5-28 2 4-16 13-23l11-9-11-10q-9-7-13-22 18-4 28 2l19 10V68q0-12 12-26 13 14 13 26v23l18-10q10-6 28-2-4 15-13 22l-11 10 11 10q9 6 13 22-18 4-28-2l-18-10v23q0 12-13 26-12-14-12-26v-23l-19 10zM50 262q-18-15-23-40 42-7 72 17 21 16 34 44-21 1-40-3-27-5-43-18zm202 0q-16 13-43 18-19 4-40 3 13-28 33-44 31-24 73-17-5 25-23 40zM151 130q-8 0-13.5-5.5T132 111q0-8 5.5-13.5T151 92q8 0 13.5 5.5T170 111q0 8-5.5 13.5T151 130z"/></svg>