<svg viewBox="0 0 300 311" xmlns="http://www.w3.org/2000/svg"><path d="M223 150q-10-10-10-23.5t10-23.5l46-46 13 13 17-18-43-43-18 17 13 13-46 46q-10 10-23.5 10T158 85l-9-8L4 222l-1 3q-3 10-3 23 0 26 17 43 9 8 20.5 12.5t23 4.5q11.5 0 23.5-3l2-1 145-145-8-9zM73 282q-10 2-20 0t-17.5-9.5Q28 265 26 255t0-20l96-95q3 6 3 14v29h30q7 0 13 3l-95 96zm113-114q-13-10-31-10h-5v-4q0-18-10-32l10-11q18 11 38 9-2 20 9 38l-11 10zm70 52q-18 0-30.5 13T213 264q0 18 12.5 31t30.5 13q18 0 31-13t13-31q0-18-13-31t-31-13zm0 63q-5 0-10-3t-7-8.5q-2-5.5-1-11t5-9.5q4-4 9.5-5t11 1q5.5 2 8.5 7t3 11.5q0 6.5-5.5 12T256 283z"/></svg>