<svg viewBox="0 0 300 311" xmlns="http://www.w3.org/2000/svg"><path d="M193 108h1q8 0 13.5-5.5T213 89q0-8-5.5-13.5T194 70q-8 0-13.5 5.5T175 89v1l-8 8q-8-5-17-7V70h-25v21q-9 2-17 7l-8-8v-1q0-8-5.5-13.5T81 70q-8 0-13 5.5T63 89q0 8 5 13.5t13 5.5h1l8 8q-5 8-7 17H63v25h20q2 9 7 17l-8 8h-1q-8 0-13 5.5T63 202q0 8 5 13t13 5q8 0 13.5-5t5.5-13v-1l8-8q8 5 17 7v20h25v-20q9-2 17-7l8 8v1q0 8 5.5 13t13.5 5q8 0 13.5-5t5.5-13q0-8-5.5-13.5T194 183h-1l-8-8q5-8 7-17h21v-25h-21q-2-9-7-17l8-8zm-55 69q-13 0-22.5-9.5t-9.5-22q0-12.5 9.5-22t22-9.5q12.5 0 22 9.5t9.5 22q0 12.5-9.5 22T138 177zm153-30q-15-33-22-48-12-24-22-36-22-30-56.5-44.5T118 9q-31 5-56.5 22t-42 44Q3 102 1 133q-3 27 5 53t26 47q6 7 6 16v59h162v-38h28q14 0 25-9t12-23l6-43h29v-27l-9-21zm-42 23l-8 65q-1 4-4.5 7t-8.5 3h-53v38H63v-34q0-18-12-32-14-17-21-38t-4-44q2-25 15-47t34-36q21-14 47-18 31-4 59 7.5T228 78q8 11 20 34 7 15 20 45l6 13h-25z"/></svg>