<svg viewBox="0 0 300 311" xmlns="http://www.w3.org/2000/svg"><path d="M150 8q-41 0-75.5 20T20 82.5Q0 117 0 158t20 75.5Q40 268 74.5 288t75.5 20h150V158q0-41-20-75.5T225.5 28Q191 8 150 8zm125 275H150q-34 0-62.5-17T42 220.5Q25 192 25 158t17-62.5Q59 67 87.5 50T150 33q34 0 62.5 17T258 95.5q17 28.5 17 62.5v125zm-76-171q3 15-4 30t-21 22q-4 3-7.5 9.5T163 186v9h-25v-9q0-12 6.5-25t17.5-19q7-4 10.5-11t2-15q-1.5-8-7-13.5T155 96q-12-2-21 5.5t-9 18.5h-25q0-11 4.5-21t13-17q8.5-7 19.5-10t22-1q15 3 26.5 14t13.5 27zm-61 108h25v25h-25v-25z"/></svg>