<svg viewBox="0 0 300 311" xmlns="http://www.w3.org/2000/svg"><path d="M233 100q-13-11-17-16-16-15-16-37V9H100v38q0 22-16 37-4 5-17 16-20 17-30 28-17 18-26 36-11 22-11 47 0 19 8.5 35.5t23.5 26Q47 282 65 283h22v25h25v-25h25v25h25v-25h25v25h25v-25h23q18-1 33-10.5t23.5-26Q300 230 300 211q0-24-11-47-9-18-26-36-10-11-30-28zM131 257q-18 0-30.5-11.5T88 217q0-17 8-40 5-13 18-38 10-19 13-28 2-5 4-12 2 7 4 12 4 9 14 28 12 25 17 38 9 23 9 40t-13 28.5Q149 257 131 257zM25 211q0-19 9-37 8-15 23-30 8-9 27-25 13-12 18-17l3-3-1 2q-3 9-12 27-14 27-20 42-9 26-9 48t15 40H66q-18-1-29.5-14.5T25 211zm209 47h-50q16-18 16-40t-9-48q-6-15-20-42-9-18-12.5-27t-6-23.5Q150 63 150 52V34h25v13q0 15 6 29.5t17 25.5q5 5 18 17h1q18 16 26 25 15 15 23 30 9 18 9 37t-11.5 32.5Q252 257 234 258z"/></svg>