<svg viewBox="0 0 300 311" xmlns="http://www.w3.org/2000/svg"><path d="M235 193q19-8 29.5-20.5T275 145q0-22-24-38.5T188 85q12-11 12-27 0-14-10-25.5t-27-18Q146 8 125 8t-38 6.5q-17 6.5-27 18t-9.5 25q.5 13.5 8 24T79 97q-20 9-30.5 21.5T38 145q0 14 9 26t27 20q-34 8-53 21-21 15-21 34t22 34q21 13 55 20.5t73 7.5q39 0 73-7.5t55-20.5q22-15 22-33.5t-17.5-32Q265 201 235 193zM125 33q21 0 35.5 8T175 58q0 9-14.5 17T125 83q-21 0-35.5-8T75 58q0-9 14.5-17t35.5-8zM63 145q0-8 11.5-16.5T106 114q23-6 50.5-6t49.5 6q20 6 32 14.5t12 17q0 8.5-12 17T206 177q-22 6-49.5 6t-50.5-6q-20-6-31.5-14.5T63 146v-1zm87 138q-35 0-66-6-27-6-43-15t-16-16.5q0-7.5 16-16.5t43-15q31-6 66-6t66 6q27 6 43 15t16 16.5q0 7.5-16 16.5t-43 15q-31 6-66 6z"/></svg>