<svg viewBox="0 0 300 311" xmlns="http://www.w3.org/2000/svg"><path d="M31 39q0-13 9.5-22t22-9q12.5 0 22 9T94 39q0 13-9.5 22.5t-22 9Q50 70 40.5 61T31 39zm119 94q13 0 22-9t9-22q0-13-9-22.5T150 70q-13 0-22 9.5t-9 22.5q0 13 9 22t22 9zm50 50v75h-12v50h-25v-50h-25v50h-25v-50h-13v-75q0-16 11-26.5t26-11.5h26q15 0 26 11t11 27zm-75 50h50v-50q0-5-3.5-8.5T162 171h-24q-6-1-9.5 3t-3.5 9v50zM88 83H38q-16 0-27 11T0 120v100h25v88h25v-88h25v-25H25v-75q0-5 3.5-8.5T38 108h50q3 0 6 2v-8q0-9 3-18-5-1-10-1h1zm168-44q0-13-9-22t-22-9q-13 0-22 9t-9 22q0 13 9 22.5t22 9q13-.5 22-9.5t9-22zm33 219l-18-142q-1-14-12-23.5T234 83h-18q-6 0-12 2 2 8 2 17v6h28q5 0 8.5 3t4.5 8l14 114h-36v25h13v50h25v-50h26z"/></svg>