<svg viewBox="0 0 300 311" xmlns="http://www.w3.org/2000/svg"><path d="M31 39q0-13 9.5-22t22-9q12.5 0 22 9T94 39q0 13-9.5 22t-22 9q-12.5 0-22-9T31 39zm94 81v100h-25v88H75v-88H50v88H25v-88H0V120q0-15 11-26t27-11h50q15 0 26 11t11 26zm-25 0q0-5-3.5-8.5T88 108H38q-6 0-9.5 3.5T25 120v75h75v-75zm125-50q13 0 22-9t9-22q0-13-9-22t-22-9q-13 0-22 9t-9 22q0 13 9 22t22 9zm38 188v50h-25v-50h-25v50h-25v-50h-27l18-142q1-14 12-23.5t25-9.5h18q14 0 25 9.5t13 23.5l17 142h-26zm-74-25h72l-14-114q-1-5-4.5-8t-8.5-3h-18q-5 0-8.5 3t-4.5 8l-14 114z"/></svg>