<svg viewBox="0 0 300 311" xmlns="http://www.w3.org/2000/svg"><path d="M226 97q3-20 12-33 13-18 37-18V20q-13 0-25.5 4.5T227 38q-22-15-48.5-22.5t-54.5-8Q96 7 68 16T17 42L5 52l12 9q20 15 43 23-24 16-39 40-13 19-18 40.5T2 208q3 16 12 29t23 21q19 12 42 12 31 0 55-19 9 25 30.5 40.5t47 16Q237 308 257 294t31.5-38q11.5-24 11.5-54 0-27-9.5-50T264 114.5Q247 100 226 97zm-52 8q-5-7-11-13 21-4 41-13-2 8-3 17-14 2-27 10v-1zm-49-72q41 0 77 19-36 19-77 19T48 52q36-19 77-19zM50 237q-9-6-15-14.5T26 203q-2-17 2-34t14-31q12-19 28.5-30t34-12q17.5-1 32.5 8 11 7 17 17-14 17-22 38t-7 43q0 12 2 23-18 17-39 20t-38-8zm163 46q-18 0-32.5-10.5t-22.5-29q-8-18.5-8-41.5t8-42q8-19 22.5-29.5t32-10.5q17.5 0 32 10.5T267 160q8 19 8 42t-8 41.5q-8 18.5-22.5 29T213 283zm0-50v25q-17 0-27.5-14T175 208h25q0 10 3.5 17.5t9.5 7.5zM66 150l19 16q-7 8-9 18-2 5 2 9l-16 19q-7-6-10-14t-1-17q3-18 15-31z"/></svg>