<svg viewBox="0 0 300 311" xmlns="http://www.w3.org/2000/svg"><path d="M275 52h-5q-7-19-24.5-31.5T206.5 8q-21.5 0-39 12.5T142 52h-4q-11 0-18 7t-7 17.5q0 10.5 7 18t18 7.5l4-1q5 14 15 24-35 9-59 34-21 22-34 55-10 27-13 57-12-9-19-22t-7-28V83q0-23 13.5-36.5T75 33V8Q41 8 20.5 28.5T0 83v137q0 24 12 44t32 32q20 12 44 12h187v-25h-25V130q14-12 20-29l5 1q10 0 17.5-7.5t7.5-18q0-10.5-7.5-17.5T275 52zm-50 231h-37v-56q0-8 5-13.5t13-5.5q8 0 13.5 5.5T225 227v56zm0-96q-9-4-19-4-18 0-30.5 13T163 227v56H88q-7 0-13-1 2-25 9-49 11-37 34-59 29-29 76-29h31v42zm-19-67q-18 0-30.5-12.5T163 77q0-18 12.5-31T206 33q18 0 31 13t13 31q0 18-13 30.5T206 121v-1z"/></svg>