<svg viewBox="0 0 300 311" xmlns="http://www.w3.org/2000/svg"><path d="M56 252v31H38q-6 0-9.5-3.5T25 270v-18h31zm25-25H0v43q0 16 11 27t26 11h44v-81zm194 25v18q0 6-3.5 9.5T263 283h-19v-31h31zm25-25h-81v81h44q15 0 26-11t11-27v-43zM56 142v32H25v-32h31zm25-25H0v82h81v-82zm194 25v32h-31v-32h31zm25-25h-81v82h81v-82zM56 33v31H25V45q0-5 3.5-8.5T37 33h19zM81 8H38Q22 8 11 19T0 46v43h81V8zm85 244v31h-32v-31h32zm25-25h-82v81h82v-81zm-25-85v32h-32v-32h32zm25-25h-82v82h82v-82zm-25-84v31h-32V33h32zm25-25h-82v81h82V8zm72 25q5 0 8.5 3.5T275 45v19h-31V33h19zm0-25h-44v81h81V45q0-15-11-26T262 8h1z"/></svg>