<svg viewBox="0 0 300 311" xmlns="http://www.w3.org/2000/svg"><path d="M282 91q-24-11-35-32l53-43-5-8-57 20V8q-14 0-24 8t-13 21q-24 8-38 30-11 18-13 40-17-4-37-19-15-10-29-25-9-9-12-13L54 28l-4 28q-1 11 0 26 2 29 14 54-26 9-42 32-22 30-22 78h25q0-53 25-73 0 13 5 30 2 10 9 28l5 16-8 61h75l6-50h21v50h75v-67l4-23q4-15 6-25.5t2-23.5v-25l50-6v-19q0-9-5-16.5T282 91zm-57 31v47q0 11-1.5 20t-5.5 23l-5 24v47h-25v-50h-68l-6 50H90l5-39-7-21-9-27q-4-15-4-26 0-6 3-11 18 25 46 42l13-22q-29-17-45-45-13-20-16-44 19 18 38 28 26 15 49 15h12v-19q0-14 6-28 12-24 39-28 13 37 52 55l2 2-49 7z"/></svg>