<svg viewBox="0 0 301 311" xmlns="http://www.w3.org/2000/svg"><path d="M20 52q0-13 9-22.5T51 20q13 0 22 9.5T82 52q0 13-9 22t-22 9q-13 0-22-9t-9-22zm135 57l17-10q-2-8-2-16t2-16l-17-10 12-22 18 10q11-13 28-17V8h25v20q18 4 29 17l18-10 12 22-17 10q2 8 2 16t-2 16l17 10-12 22-18-10q-11 13-29 17v20h-25v-20q-17-4-28-17l-18 10-12-22zm40-26q0 13 9 22t22 9q13 0 22-9t9-22q0-13-9-22t-22-9q-13 0-22 9t-9 22zM39 220v38l-13 50H0l14-55V133q0-16 10.5-26.5T51 96h57l28-28 18 18-35 34H89v75h50v47l-25 17v-38H39v-1zm25-100H51q-5 0-8.5 4t-3.5 9v62h25v-75zm23 188h41l173-120v-28L87 308z"/></svg>