<svg viewBox="0 0 300 311" xmlns="http://www.w3.org/2000/svg"><path d="M300 203q-7-19-21-33t-32-22q0-72-13-106T195 8h-1q-26 0-42 33-12 25-19 72-6-2-13-4-20-3-39.5 1.5T44 127l6 18q28-6 45-2.5t30 17.5q-7 19-19 35-16 21-40 33-23 10-39 26-9 9-13 16H0v25h13l3 3q10 10 46 10 79 0 127-39-2-18-5-30-42 44-121 44-16 0-25-2v-1q13-19 38-30.5t43-31.5q14-15 23-35 22 3 33 8 17 8 26 25 11 20 13 56l17 5q10-21 13-42.5t-2-40.5q22 4 43 18l15-9zm-112-44q-10-1-18-6-12-9-13-25 6-53 17-77 9-18 20-18h1q6 0 12 11.5T217 79q5 26 5 64-3 6-9 10-10 6-26 6h1z"/></svg>