<svg viewBox="0 0 300 311" xmlns="http://www.w3.org/2000/svg"><path d="M54 281q-18-4-31.5-16.5t-19-30Q-2 217 2 199q4-14 12.5-26T36 154q-12-24-11-50.5t15-49q14-22.5 38-35T128.5 8q26.5 1 49 15T213 61q6 12 9 25 34 8 56 35.5t21 62.5q-11-12-27-18-5-23-22-38.5T210 109l-10-1-1-10q-3-20-15-35.5t-30.5-23Q135 32 115 34.5T79 49Q63 61 55.5 79.5t-5 38Q53 137 65 153l12 18q-9-1-19 1-18 5-27 20.5T27 226q2 9 8.5 16.5T50 254q-1 14 4 27zm245-35q0-23-14.5-40.5T247 184q-9-29-32-42-21-12-46.5-7T127 159q-17 21-14 51-20 5-30.5 22.5T77 271q4 16 17.5 26.5T125 308h112q17 0 31.5-8.5T291 277q8-14 8-31zm-153-13l-6-17q-7-21 3-36.5t28-19.5q18-4 34 5.5t19 31.5l1 11h13q15 1 25.5 12.5t10 26.5q-.5 15-11 25.5T237 283H125q-11 0-18-7.5t-7-17.5q0-10 7-17.5t18-7.5h21z"/></svg>