<svg viewBox="0 0 300 311" xmlns="http://www.w3.org/2000/svg"><path d="M274 29q-13-11-30-8-14 2-22.5 13T213 59v51q-6-2-13-2-14 0-25 10-11-10-25-10-7 0-12 2V47q0-14-9-25T106 8q-17-2-30 9T63 45v107l-39 39q-11 11-11 26.5T24 244l64 64h200V58q0-17-14-29zm-74 104q5 0 9 3.5t4 8.5v25q0 6-4 9.5t-9 3.5q-5 0-8.5-3.5T188 170v-25q0-5 3.5-8.5t8.5-3.5zm-50 0q5 0 9 3.5t4 8.5v25q0 6-4 9.5t-9 3.5q-5 0-8.5-3.5T138 170v-25q0-5 3.5-8.5t8.5-3.5zM92 36q4-4 9-3t8 5q3 4 3 9v99q-10-7-25-6V45q0-5 5-9zm171 247H98l-57-57q-3-3-3-8.5t3-9.5l41-40q3-4 8.5-4t9 4q3.5 4 3.5 9t-4 9l-27 27 17 18 28-28q3-3 6-7 11 12 26 12t26-10q11 10 25.5 10t25.5-11q11-11 11-27V59q0-5 3-9t8.5-4.5q5.5-.5 9.5 3t4 9.5v225h1z"/></svg>