<svg viewBox="0 0 300 311" xmlns="http://www.w3.org/2000/svg"><path d="M0 189q0-7 4-13 9 6 21 12v1q0 4 10 10t28 11v26q-29-7-46-19T0 189zm63-16v-25q-18-5-28-11t-10-10v-2q-12-5-21-12-4 7-4 14 0 16 17 27.5T63 173zM0 64q0-18 23-32 20-12 56-18 33-6 71-6t71 6q36 6 56 18 23 14 23 32.5T278 96q-18 10-47 16-19 4-39 6-7 1-12 6.5t-5 12.5v58h-25v-56q0-8-5.5-13.5T131 120q-8 0-13 5.5t-5 13.5v119H88V131q-1-6-5-11.5T73 113q-36-7-54.5-19.5T0 64zm25 0q0 5 12 11 15 8 41 14 16 3 26 16 12-10 28.5-10t28.5 12q12-12 28-13 28-3 50-9 17-5 26.5-11t9.5-10.5q0-4.5-14-11.5-16-8-42-13-31-6-69-6t-69 6q-26 5-42 13-14 7-14 12zm250 61v2q0 4-9 9.5t-25 9.5q-18 6-41 9v25q44-5 70-18 30-14 30-35 0-7-4-14-9 7-21 12zm0 63v1q0 6-14 13-16 7-42 12-31 7-69 7l-13-1v25h13q38 0 71-6 36-6 56-18 23-13 23-32 0-7-4-13-9 6-21 12zm0 62v2q0 5-14 12-16 8-42 13-31 6-69 6t-69-6q-26-5-42-13-14-7-14-12v-2q-12-5-21-12-4 7-4 14 0 18 23 32 20 12 56 18 33 6 71 6t71-6q36-6 56-18 23-14 23-32 0-7-4-14-9 7-21 12z"/></svg>