<svg viewBox="0 0 300 311" xmlns="http://www.w3.org/2000/svg"><path d="M221 211l-18-17 54-53q18-19 18-45t-18.5-44.5Q238 33 212 33t-45 18l-53 54-17-18 53-53q12-13 28-19.5T212 8q18 0 34 6.5t28.5 19Q287 46 293.5 62t6.5 34q0 18-6.5 34T274 158l-53 53zM1 26l281 281 17-17-131-132 35-36-17-17-36 35L18 9 1 26zM0 220q0 17 6.5 33.5t19 28.5Q38 294 54 301t34 7q18 0 34-6.5t28-19.5l36-35-18-18-35 36q-9 9-21 13.5T88 283q-26 0-44.5-18.5T25 220q0-26 18-45l36-35-18-18-35 36q-13 12-19.5 28T0 220zm132-26l-18-18-17 18 17 17 18-17z"/></svg>