<svg viewBox="0 0 300 311" xmlns="http://www.w3.org/2000/svg"><path d="M150 8q-41 0-75.5 20T20 82.5Q0 117 0 158t20 75.5Q40 268 74.5 288t75.5 20q41 0 75.5-20t54.5-54.5q20-34.5 20-75.5t-20-75.5Q260 48 225.5 28T150 8zm103 79q20 29 22 64l-35-24 13-40zm-69-49l-34 24-34-24q34-10 68 0zm-3 108l-12 37h-38l-12-37 31-23 31 23zM60 127l-35 24q2-35 22-64l13 40zM50 233h44l13 42q-35-13-57-42zm86 49l-24-74H35q-5-13-8-27l62-44-22-72q10-9 22-16l60 44-60 44 24 71h75l23-71-60-44 60-44q12 7 22 16l-22 72 62 44q-3 14-8 27h-77l-24 74q-14 2-28 0zm57-7l13-42h44q-22 29-57 42z"/></svg>