<svg viewBox="0 0 300 311" xmlns="http://www.w3.org/2000/svg"><path d="M150 58q0-21-14.5-35.5T100 8Q79 8 64.5 22.5T50 58v37q0 21 14.5 35.5T100 145q21 0 35.5-14.5T150 95V58zm-25 37q0 11-7.5 18t-17.5 7q-10 0-17.5-7T75 95V58q0-10 7.5-17.5T100 33q10 0 17.5 7.5T125 58v37zm75 75q-21 0-35.5 15T150 220v38q0 21 14.5 35.5T200 308q21 0 35.5-14.5T250 258v-38q0-20-14.5-35T200 170zm25 88q0 10-7.5 17.5T200 283q-10 0-17.5-7.5T175 258v-38q0-10 7.5-17.5T200 195q10 0 17.5 7.5T225 220v38zM193 70l-18-17 44-45h19v137h-25V50l-20 20zm-80 100v138H88v-95l-20 20-18-18 44-45h19z"/></svg>