<svg viewBox="0 0 300 311" xmlns="http://www.w3.org/2000/svg"><path d="M150 8q-41 0-75.5 20T20 82.5Q0 117 0 158t20 75.5Q40 268 74.5 288t75.5 20q41 0 75.5-20t54.5-54.5q20-34.5 20-75.5t-20-75.5Q260 48 225.5 28T150 8zm0 275q-34 0-62.5-17T42 220.5Q25 192 25 158t17-62.5Q59 67 87.5 50T150 33q34 0 62.5 17T258 95.5q17 28.5 17 62.5t-17 62.5Q241 249 212.5 266T150 283zM90 145q-16 1-29-8l13-21q10 6 22 4t19-14l21 13q-13 22-37 26-4 1-9 1v-1zm149-8q-13 8-29 9-4-1-9-1-24-4-37-26l22-13q7 12 18.5 14t21.5-4l13 21zm-14 96q-6-2-11-3-14-4-28-6-19-3-36-3-23 0-50 5-14 4-25 7 7-25 25-42 21-20 50-20t50 20q18 17 25 42z"/></svg>