<svg viewBox="0 0 300 311" xmlns="http://www.w3.org/2000/svg"><path d="M150 8zm0 225q-20 0-37.5 10T85 270.5Q75 288 75 308h25q0-21 14.5-35.5T150 258q21 0 35.5 14.5T200 308h25q0-20-10-37.5T187.5 243Q170 233 150 233zm110 0q-7-22-25.5-36T194 183h-88q-22 0-40.5 14T40 233l-21 75h26l19-68q4-14 16-23t26-9h88q14 0 26 9t16 23l21 68h24l-21-75zm-5-52q-13-11-30-17l-21-92q-6-18-22-29-10 25-34 40-21 13-46 12 4 17 17.5 27.5T150 133q11 0 21-5t17-13l7 28q-20 15-45 15-21 0-38-10.5T85 120l-10 44q-17 6-30 17Q71 70 72 65q8-26 29-41.5T149.5 8q27.5 0 49 15.5T228 65q1 6 27 116zM158 34q-4-1-8-1-18 0-31 10.5T102 70q18 1 33.5-9T158 34z"/></svg>