<svg viewBox="0 0 300 311" xmlns="http://www.w3.org/2000/svg"><path d="M137 42q-4-15-17-24.5T91.5 8q-15.5 0-28 9.5T47 42H0v25h47q4 16 16.5 25.5t28 9.5q15.5 0 28.5-9.5T137 67h163V42H137zM92 77q-9 0-15.5-6.5T70 55q0-9 6.5-15.5T92 33q9 0 15.5 6.5T114 55q0 9-6.5 15.5T92 77zm116 34q-15 0-27.5 9.5T163 146H0v24h163q5 16 17.5 25.5t28 9.5q15.5 0 28-9.5T253 170h47v-25h-47q-4-15-16.5-24.5T208 111zm0 69q-9 0-15.5-6.5T186 158q0-9 6.5-15.5T208 136q9 0 15.5 6.5T230 158q0 9-6.5 15.5T208 180zM92 214q-16 0-28.5 9.5T47 249H0v25h47q4 15 16.5 24.5t28 9.5q15.5 0 28.5-9.5t17-24.5h163v-25H137q-5-16-17.5-25.5T92 214zm0 69q-9 0-15.5-6.5T70 261q0-9 6.5-15.5T92 239q9 0 15.5 6.5T114 261q0 9-6.5 15.5T92 283z"/></svg>