<svg viewBox="0 0 300 311" xmlns="http://www.w3.org/2000/svg"><path d="M300 8H186l-36 73-36-73H0l60 120q-23 30-23 68 0 30 15.5 56t41 41q25.5 15 56 15t56.5-15q26-15 41-41t15-57q0-37-22-67L300 8zm-98 25h57l-37 76q-21-17-47-23l27-53zM98 33l27 53q-26 6-47 23L40 33h58zm52 250q-24 0-44-12t-32-32q-12-20-12-43.5T74 152q12-20 32-32t44-12q24 0 44 12t31.5 32q11.5 20 11.5 43.5T225.5 239Q214 259 194 271t-44 12zm4-66l-5 3h39v25h-75v-12q-1-12 9-22 5-6 18-15 12-8 17-12 6-6 6-12.5t-4-10q-4-3.5-9-3.5t-8.5 3.5Q138 165 138 171h-25q0-16 10.5-27t26.5-11q16 0 26.5 11t11 27q.5 16-11.5 29-6 7-22 17z"/></svg>