<svg viewBox="0 0 300 311" xmlns="http://www.w3.org/2000/svg"><path d="M150 8q-41 0-75.5 20T20 82.5Q0 117 0 158t20 75.5Q40 268 74.5 288t75.5 20q41 0 75.5-20t54.5-54.5q20-34.5 20-75.5t-20-75.5Q260 48 225.5 28T150 8zm0 275q-34 0-62.5-17T42 220.5Q25 192 25 158t17-62.5Q59 67 87.5 50T150 33q34 0 62.5 17T258 95.5q17 28.5 17 62.5t-17 62.5Q241 249 212.5 266T150 283zm75-179v129h-25V119l-50 83-50-83v114H75V104q0-7 4-12.5T89.5 84q6.5-2 13 0t10.5 8l37 62 37-61q4-6 10.5-8.5t13-.5q6.5 2 10.5 7.5t4 12.5z"/></svg>