<svg viewBox="0 0 300 311" xmlns="http://www.w3.org/2000/svg"><path d="M300 133q0-17-8.5-31.5t-23-22.5Q254 71 238 71h-25V58q-1-16-11.5-26.5T175 21h-25v24h25q5 0 8.5 4t3.5 9v162H25v-50H0v75h25v7q0 18 13 30.5T69 295q18 0 31-12.5t13-30.5l-1-7h76l-1 7q1 18 13.5 30.5T231 295q18 0 31-12.5t13-30.5v-7h25V133zM88 252q0 8-5.5 13.5t-13.5 5q-8-.5-13.5-5.5T50 252q0-3 1-7h35q2 4 2 7zM238 95q15 1 26 11.5t11 26.5v12h-62V95h25zm12 157q0 8-5.5 13.5t-13.5 5q-8-.5-13-5.5t-5-13q0-3 1-7h35q1 4 1 7zm-37-32v-50h62v50h-62zM125 45H0V20h125v25zm-25 50H0V70h100v25zm-25 50H0v-25h75v25z"/></svg>