<svg viewBox="0 0 300 311" xmlns="http://www.w3.org/2000/svg"><path d="M238 8H50q-10 0-17.5 7.5T25 33v275h213q15 0 26-11t11-27V45q0-15-11-26T238 8zm0 25q5 0 8.5 3.5T250 45v190q-6-2-12-2H50V33h188zm0 250H50v-25h188q5 0 8.5 3.5t3.5 9q0 5.5-3.5 9T238 283zM97 133l-27 44h54l26 43 26-43h54l-27-44 27-44h-54l-26-43-26 43H70l27 44zm-4 31l11-19 12 19H93zm19-31l19-31h38l19 31-19 31h-38l-19-31zm38 63l-12-19h24l-12 19zm57-32h-23l12-19 11 19zm0-62l-11 19-12-19h23zm-57-32l12 19h-24l12-19zm-46 51l-11-19h23l-12 19z"/></svg>