<svg viewBox="0 0 302 311" xmlns="http://www.w3.org/2000/svg"><path d="M302 210l-18-11q-15-9-37-16 19-21 33-47 8-13 12-23l6-18-18 1q-11 0-27 3-31 5-58 17-7-32-20-64-7-17-13-28L151 4l-11 20q-6 11-13 27-13 32-20 63-27-11-58-16-16-2-27-3H4l6 17q4 10 11 23 14 26 33 46-14 5-26 11l-11 5-17 11 17 11q8 5 20 10 23 10 48 14-6 14-7 26l-3 17 17-3q7-1 16-4 17-6 30-16v45h25v-45q14 10 31 16 9 3 15 4l17 3-2-17q-2-11-7-25 24-4 48-14 12-5 19-10l18-11v1zm-103 12l-19 1 8 17q3 5 5 11-18-8-29-21v-47h-26v47q-11 13-30 21 3-6 6-13l9-16-19-2q-25-2-51-12 14-5 27-8l25-6-19-16q-25-22-43-56 37 6 68 21l15 8 3-17q6-36 22-74 17 39 23 76l2 17 16-8q30-16 67-22-19 34-44 56l-19 17 24 5q15 3 29 9-25 10-50 12z"/></svg>