<svg viewBox="0 0 300 320" xmlns="http://www.w3.org/2000/svg"><path d="M200 39q0-8 5.5-13.5T219 20q8 0 13.5 5.5T238 39q0 8-5.5 13.5T219 58q-8 0-13.5-5.5T200 39zm-90 20q14 2 26 10 2-6 2-11l-1-4q6 4 13 4 10 0 17.5-7.5T175 33q0-10-7.5-17.5T150 8q-10 0-17 6.5T125 30q-11-10-26-10T73 31Q62 42 62 58q1 5 2 11 21-14 46-10zm158 154l-22 22-11-11 60-59q5-6 5-13.5t-5.5-13Q289 133 281 133t-13 5l-60 60-11-11 73-72q5-6 5-13.5t-5.5-13Q264 83 256 83t-13 5l-72 72-11-11 47-47q6-5 6-13t-5.5-13.5Q202 70 194 70t-14 6l-55 55v-23q0-10-7.5-17.5T100 83q-10 0-17.5 7.5T75 108v97q0 20 7.5 38.5T105 277q15 15 35 23t41 8q21 0 41-8t36-24l37-36q5-6 5-13.5t-5.5-13Q289 208 281 208t-13 5zM59 252q-2-1-5-13-4-15-4-31V108q0-10-7.5-17.5T25 83q-10 0-17.5 7.5T0 108v97q0 20 7.5 38.5t22.5 33Q45 291 64 299t39 9q-9-7-16-14-18-18-28-42z"/></svg>