<svg viewBox="0 0 300 320" xmlns="http://www.w3.org/2000/svg"><path d="M106 83q-29 0-53.5 8.5T14 114Q0 128 0 145v100q0 18 14 32t38.5 22.5q24.5 8.5 54 8.5t53.5-8.5q24-8.5 38-22.5t14-32V145q1-17-13.5-31T160 91.5Q136 83 106 83zm0 25q23 0 41.5 5.5T177 128q11 9 11 17.5T177 163q-11 9-29.5 14.5T106 183q-23 0-41.5-5.5t-29-14.5Q25 154 25 145.5T35.5 128q10.5-9 29-14.5T106 108zm-52 37q24 14 52 13 28 1 53-13-25-13-53-12-28-1-52 12zm87-75q25 14 53 13 28 1 52-12-24-14-52-13-28-1-53 12zm159 0v100q0 20-17 35t-45 23v-83q-1-22-14-40 23-4 37-14t14-19.5q0-9.5-10.5-18.5t-29-14.5Q217 33 194 33q-27 0-47.5 7.5T118 58h-12q-7 0-17 1 7-22 36.5-36.5T194 8q29 0 53.5 8.5T286 39q14 14 14 31z"/></svg>