<svg viewBox="0 0 300 320" xmlns="http://www.w3.org/2000/svg"><path d="M273 151q-12-17-16-26-7-15-7-30V70h13V45h-13q0-15-11-26T212 8h-24q-16 0-27 11t-11 27h-12v24h12v25q0 15-7 30-4 9-16 26-24 30-27 70 0 23 13 53 7 16 14 28l3 6h140l3-6q7-12 14-28 13-30 13-54-3-39-27-69zm-98-56V70h50v25q2 35 23 63h-95q20-28 22-63zm25 138q-5 0-9-3.5t-4-9q0-5.5 4-9t9-3.5q5 0 9 3.5t4 9q0 5.5-4 9t-9 3.5zm25 37q-5 0-9-3.5t-3.5-8.5q.5-5 4-8.5t8.5-4q5-.5 9 3.5t3.5 9q-.5 5-4 8.5T225 270zm25-37q-5 0-9-3.5t-4-9q0-5.5 4-9t9-3.5q5 0 9 3.5t4 9q0 5.5-4 9t-9 3.5zm-149 75H30l-3-6q-7-12-14-28-13-30-13-54 3-39 27-69 12-17 16-26 7-15 7-29V70H38V45h12q0-15 11-26T87 8h26q5 0 11 2-11 16-12 36v24H75v25q-2 35-22 63h40q-18 29-18 63 3 46 26 87z"/></svg>