<svg viewBox="0 0 300 320" xmlns="http://www.w3.org/2000/svg"><path d="M263 183H37l4-10 29-57q4-9 13-14.5t20-5.5h94q11-1 20 5t14 15l28 57 4 10zm8 25H29q-4 17-4 32v43h25v25h63v-25h75v25h62v-25h25v-43q0-15-4-32zM88 258q-6 0-9.5-3.5t-3.5-9q0-5.5 3.5-9t9-3.5q5.5 0 9 3.5t3.5 9q0 5.5-3.5 9T88 258zm125 0q-6 0-9.5-3.5t-3.5-9q0-5.5 3.5-9t9-3.5q5.5 0 9 3.5t3.5 9q0 5.5-3.5 9T213 258zM0 240q0-18 4-37v-1q5-19 14-37l29-60q8-16 23-25t33-9h94q18 0 33 9t23 25l30 60q9 18 13 38 3 15 4 30V45q0-15-11-26T263 8H38Q22 8 11 19T0 46v199-5z"/></svg>