<svg viewBox="0 0 300 320" xmlns="http://www.w3.org/2000/svg"><path d="M292 246q-9-17-23-30-24-20-56.5-20.5T156 216q-15 13-23 30l-3 6 3 6q9 17 23 29 24 21 56.5 21t56.5-21q15-12 23-29l3-6-3-6zm-79 31q-11 0-18-7.5t-7-18q0-10.5 7-17.5t17.5-7q10.5 0 18 7t7.5 17.5q0 10.5-7.5 18T213 277zm-103-8l-8-17 8-18q12-21 30-37 31-27 73-27 29 0 54 14 18 11 33 29V45q0-15-11-26T262 8H38Q22 8 11 19T0 46v237h119q-5-7-9-14zm15-199h113v25H125V70zm0 63h113v25H125v-25zm-44 94q-8 0-13-5.5T63 208q0-8 5-13.5t13-5.5q8 0 13.5 5.5T100 208q0 8-5.5 13.5T81 227zm0-63q-8 0-13-5.5t-5-13q0-7.5 5-13t13-5.5q8 0 13.5 5.5t5.5 13q0 7.5-5.5 13T81 164zm0-62q-8 0-13-5.5T63 83q0-8 5-13.5T81 64q8 0 13.5 5.5T100 83q0 8-5.5 13.5T81 102z"/></svg>