<svg viewBox="0 0 300 320" xmlns="http://www.w3.org/2000/svg"><path d="M131 39q0-8 5.5-13.5T150 20q8 0 13.5 5.5T169 39q0 8-5.5 13.5T150 58q-8 0-13.5-5.5T131 39zM38 170q0-7-5.5-12.5T19 152q-8 0-13.5 5.5t-5.5 13q0 7.5 5.5 13T19 189q8 0 13.5-5.5T37 170h1zm262 0q0-7-5.5-12.5T281 152q-8 0-13 5.5t-5 13q0 7.5 5 13t13 5.5q8 0 13.5-5.5T300 170zM75 77q0-8-5.5-13.5T56 58q-8 0-13 5.5T38 77q0 8 5 13.5T56 96q8 0 13.5-5.5T75 77zm188 187q-1-8-6-13.5t-13-5q-8 .5-13.5 5.5t-5.5 13q0 8 5.5 13.5T244 283q8 0 13.5-5.5T263 264zM56 245q-8 0-13 5.5T38 264q0 8 5 13.5t13 5.5q8 0 13.5-5.5T75 264q0-8-5.5-13.5T56 246v-1zM244 58q-8 0-13.5 5.5T225 77q0 8 5.5 13.5T244 96q8 0 13.5-5.5t5-13.5q-.5-8-5.5-13.5T244 58zm-85 121l-18-17 61-62q-23-17-52-17-24 0-44 12t-31.5 32Q63 147 63 170.5T74.5 214Q86 234 106 246t44 12q24 0 44-12t32-32q12-20 12-44 0-29-18-52l-61 61z"/></svg>