<svg viewBox="0 0 300 320" xmlns="http://www.w3.org/2000/svg"><path d="M175 158q0 10-7.5 17.5T150 183q-10 0-17.5-7.5T125 158q0-10 7.5-17.5T150 133q10 0 17.5 7.5T175 158zm111 47q0 15-7 27.5T259 252q-13 7-27.5 7t-27.5-7q0 26-17 42-15 14-37 14t-37-14q-17-16-17-42-23 12-45 5-19-6-30-25.5T15 192q5-22 27-35-22-13-27-35-5-20 6-39t30-26q22-7 44 6 0-23 16-39t39-16q23 0 39 16t16 39q22-13 44-6 19 7 30 26t6 39q-5 22-27 35 13 7 20.5 20t7.5 28zm-86-47q0-21-14.5-35.5T150 108q-21 0-35.5 14.5T100 158q0 21 14.5 35.5T150 208q21 0 35.5-14.5T200 158z"/></svg>