<svg viewBox="0 0 300 320" xmlns="http://www.w3.org/2000/svg"><path d="M188 95V8H63Q47 8 36 19T25 46v262h250V95h-87zm-76 126q0 10-7 17.5T87.5 246Q77 246 70 238.5T63 221l-1-26q0-10 7.5-17t17.5-7.5q10-.5 17.5 7T112 195H97q0-3-3-6t-7-3q-4 0-6.5 3t-2.5 6v26q0 3 3 6t6.5 3q3.5 0 6.5-3t3-6h15zm32-26h3l13 6q11 4 15 11t2.5 15q-1.5 8-8.5 13t-17 5q-16 0-26-11l-5-6 11-10 5 6q6 6 15 6 4 0 7-2t3.5-5.5q.5-3.5-8-7T137 208q-6-3-8.5-8.5t-1.5-11q1-5.5 5.5-10.5t10.5-7q10-3 21 2 6 2 9 5l6 5-10 12-6-5q-1-1-5-3-6-2-10.5-.5t-5 4q-.5 2.5 1.5 4.5zm78 50h-16l-18-75h15l10 42 9-42h16l-16 75zm46-175h-55V15l55 55z"/></svg>