<svg viewBox="0 0 300 320" xmlns="http://www.w3.org/2000/svg"><path d="M239 145q-15-8-34-8 10-16 10-32.5T198 63q-12-18-31-38L150 8l-17 17q-19 20-31 38-17 25-17 41.5T95 137q-19 0-33.5 8T34 179q-10 20-18 46l-7 23 23 7q27 6 49 8 29 3 43-5 17-9 26-27 9 18 26 27 14 8 43 5 22-2 49-8l23-7-7-23q-8-26-18-46-13-26-27-34zm-89 38q-8 0-13.5-5.5T131 164q0-8 5.5-13.5T150 145q8 0 13.5 5.5T169 164q0 8-5.5 13.5T150 183zm86-100q15 2 30 7l11 3-2 12q-4 16-10 29-7-7-13.5-10.5T238 117q2-6 2-14t-4-20zM25 105l-2-12 11-3q15-5 30-7-4 12-4 21 0 7 1 13-6 3-12.5 6.5T35 134q-6-13-10-29zm149 179q-7 9-16 16l-8 8-8-8q-9-7-16-16 6-2 10-4 8-4 14-10 6 6 14 10 4 2 10 4z"/></svg>