<svg viewBox="0 0 300 320" xmlns="http://www.w3.org/2000/svg"><path d="M38 20q0 6-4 9.5T25 33q-5 0-8.5-3.5t-4-9q-.5-5.5 3.5-9T25 8q5 0 9 3.5t4 9.5v-1zm137 13q5 0 8.5-3.5t4-9q.5-5.5-3.5-9T175 8q-5 0-8.5 3.5t-3.5 9q0 5.5 3.5 9T175 33zm-50 0q5 0 8.5-3.5t4-9q.5-5.5-3.5-9T125 8q-5 0-8.5 3.5t-4 9q-.5 5.5 3.5 9t9 3.5zm-50 0q5 0 9-3.5t4-9q0-5.5-4-9T75 8q-5 0-8.5 3.5t-4 9q-.5 5.5 3.5 9t9 3.5zM275 8q-5 0-8.5 3.5t-3.5 9q0 5.5 3.5 9T275 33q5 0 9-3.5t4-9q0-5.5-4-9T275 8zm-50 0q-5 0-8.5 3.5t-3.5 9q0 5.5 3.5 9T225 33q5 0 8.5-3.5t4-9q.5-5.5-3.5-9T225 8zm-93 57l-68 69 17 18 57-57v213h25V95l56 57 17-18-68-69q-8-7-18-7t-18 7z"/></svg>