<svg viewBox="0 0 300.0021 320" xmlns="http://www.w3.org/2000/svg"><path d="M292 162L158 308H38q-16 0-27-11T0 270v-87q0-15 11-26.5T38 145h50v-12q-16 0-27-11T50 95h25q0 6 3.5 9.5T88 108h29q3 0 5.5-2.5t2.5-5.5q0-3-2-5t-4-3l-42-6q-12-2-19.5-11.5t-7.5-22Q50 40 59.5 30T83 20h5V8h25v12q15 0 26 11.5T150 58h-25q0-5-3.5-9t-8.5-4H83q-3 0-5.5 2.5T75 53q0 3 2 5.5t5 2.5l41 7q12 2 19.5 11t7.5 22q0 13-9.5 22.5T117 133h-4v12h34q12 0 20 8.5t8 19q0 10.5-7 18.5t-17 9l-53 8 4 25 53-8q19-2 32-17t13-35l-1-8 45-47q9-9 22-10t23 8.5q10 9.5 11 22.5t-8 23z"/></svg>