<svg viewBox="0 0 300 320" xmlns="http://www.w3.org/2000/svg"><path d="M263 95q-11 0-20.5 6t-14 15.5Q224 126 225 137t8 19.5q7 8.5 17 12t20 1.5q-7 30-26.5 55t-47 40Q169 280 137 282v-25q32-3 58.5-21t40.5-46q-16-8-26-23.5T200 133q0-18 10-33.5T236 76q-13-26-36.5-43.5t-52-22.5q-28.5-5-57 3t-50 28Q19 61 8.5 88t-8 56.5q2.5 29.5 18 54t40 40Q83 254 112 257v51h13q48 0 88-23.5t63.5-63.5q23.5-40 23.5-88 0-16-11-27t-27-11h1zm-138 13q10 0 17.5 7.5T150 133q0 10-7.5 17.5T125 158q-10 0-17.5-7.5T100 133q0-10 7.5-17.5T125 108z"/></svg>