<svg viewBox="0 0 300 320" xmlns="http://www.w3.org/2000/svg"><path d="M300 208v12H100v-12q0-21 14.5-35.5T150 158h100q21 0 35.5 14.5T300 208zm-87 62l-38-25h-75v13q0 21 14.5 35.5T150 308h100q21 0 35.5-14.5T300 258v-13h-50l-37 25zM75 208v50q0 14 5 27t14 23H27L1 103q-2-8 0-16t7.5-14.5Q14 66 21.5 62T38 58h82l6-50h87v25h-64l-4 25h30q9 0 16.5 4t13 10.5q5.5 6.5 7 14.5t.5 17l-4 29h-58q-20 0-37.5 10T85 170.5Q75 188 75 208zm67-125l-3 25h47l1-8q2-7-2-12t-10-5h-33zm-28 25l3-25H38q-6 0-10 5t-3 10l2 10h87z"/></svg>