<svg viewBox="0 0 300 320" xmlns="http://www.w3.org/2000/svg"><path d="M293 276q-8 7-18 7t-18-7q-5-6-10-17-4-9-7-20-2-8-2-9 0-4 2.5-7t7.5-2.5q5 .5 21 7t23.5 13.5q7.5 7 7.5 17t-7 18zm-61 8q-37 24-82 24-41 0-75.5-20T20 233.5Q0 199 0 158t20-75.5Q40 48 74.5 28T150 8q41 0 75.5 20T280 82.5q20 34.5 20 75.5 0 26-9 52-11-6-21-9l-40-18h-42v50h25q1 9 6 22 5 17 13 29zM100 183H75v50h25v-50zm6-38q8 0 13.5-5t5.5-13q0-8-5.5-13.5T106 108q-8 0-13.5 5.5t-5 13.5q.5 8 5.5 13.5t13 5.5v-1zm32 38h-25v50h25v-50zm37 0h-25v50h25v-50zm19-38q8 0 13-5t5-13q0-8-5-13.5t-13-5.5q-8 0-13.5 5.5T175 127q0 8 5.5 13.5T194 146v-1z"/></svg>