<svg viewBox="0 0 300.0112 320" xmlns="http://www.w3.org/2000/svg"><path d="M150 156l4 7 17 33h-42l21-40zm-70-44q-23 14-45 32-16 15-26 26-11 15-9 34t16.5 30.5Q31 246 49.5 244T80 228q10-12 44-76-15-7-26.5-17T80 112zm70 196q19 0 32-38h-64q13 38 32 38zm140-138q-9-11-26-26-22-18-44-32-6 13-17.5 23T176 152q33 64 43 76 12 14 30.5 16t33.5-9.5q15-11.5 17-30.5t-10-34zm-175 50q-5 8-8 12l4 13h78l3-12-7-12h-70v-1zm66-175v-6q0-13-9-22t-22-9q-13 0-22 9t-9 22v6q3 13 31 13t31-13zm-31 38q-30 0-44-13-6 9-6 20 0 18 22 32 11 8 25 12l3 1 3-1q14-4 25-12 22-14 22-32 0-11-6-20-14 13-44 13z"/></svg>