<svg viewBox="0 0 300 320" xmlns="http://www.w3.org/2000/svg"><path d="M288 135q-12-11-46-18.5t-77-8.5q10-4 16.5-13.5T188 74q0-10-4.5-18T172 43q10-10 28-10V8q-32 0-50 22-18-22-50-22v25q18 0 28 10-7 5-11.5 13T112 74q1 11 7 20.5t16 13.5q-43 1-77 8.5T12 136Q0 148 0 165.5t12 30Q24 208 41.5 208T71 196q12-12 33-38h92q21 26 33 38t29.5 12q17.5 0 29.5-12.5t12-30q0-17.5-12-30.5zm-163-2q9-12 17-23 4 1 8 1t8-1l17 23h-50zm-31 50h112q-2 11-5 25H99q-3-13-5-25zm14 50h84q-5 13-11 25h-62q-6-12-11-25zm25 50h34q-6 10-12 18l-5 7-5-7q-6-8-12-18z"/></svg>