<svg viewBox="0 0 300 320" xmlns="http://www.w3.org/2000/svg"><path d="M271 56q23-24 23-49h-25q0 15-15 31-17-14-37-17-27-5-51.5 5T126 59q-8 12-20 13-21 2-40 11t-34 23q-17 17-25 38T.5 187Q2 209 12 229.5T39 268q20 19 42.5 28.5T127 306q20 0 39-7.5t34-23q15-15.5 24-34.5t11-40q1-12 13-20 23-15 33-39.5t5-51.5q-3-19-15-34zM144 258q-8 0-13.5-5.5T125 239q0-8 5.5-13.5T144 220q8 0 13.5 5.5T163 239q0 8-5.5 13.5T144 258zm37-50q-8 0-13.5-5.5t-5-13.5q.5-8 5.5-13.5t13-5q8 .5 13.5 5.5t5.5 13q0 8-5.5 13.5T181 208z"/></svg>