<svg viewBox="0 0 300 320" xmlns="http://www.w3.org/2000/svg"><path d="M207 151q6 6 5.5 13.5t-5.5 13q-5 5.5-13 5.5t-13.5-5.5Q175 172 175 164q0-4 2-8-15 2-27 2t-27-2q2 4 2 8 0 8-5.5 13.5T106 183q-8 0-13.5-5.5t-5.5-13q0-7.5 6-13.5-30-7-57-20-11 25-11 52 0 34 17 62.5T87.5 291q28.5 17 62.5 17t62.5-17q28.5-17 45.5-45.5t17-62.5q0-27-11-52-27 13-57 20zm-57 119q-24 0-42-16-15-13-20-34v1q9 3 20 6 23 6 42 6t42-6q11-3 20-6 1-1 1 0-6 20-21 33-18 16-42 17v-1zM299 77l-17-18q-14 13-36 25l-18-44q-6-15-18.5-23.5T182 8q-8 0-16.5 3.5T150 21q-7-6-15.5-9.5T117 8q-13 0-23 6-14 8-22 26L54 84q-15-8-27-17-6-5-9-8L0 77q7 7 20 15 23 17 51 27 38 14 79 14t79-14q27-10 51-27 12-8 19-15z"/></svg>