<svg viewBox="0 0 300 320" xmlns="http://www.w3.org/2000/svg"><path d="M150 120q-16 0-27 11t-10.5 27q.5 16 11 26.5T150 195q16 0 27-10.5t11-26.5q0-16-11-27t-27-11zm0 50q-5 0-9-3.5t-3.5-8.5q.5-5 4-9t8.5-4q5 0 9 4t4 9q0 5-4 9t-9 4v-1zm0-162q-41 0-75.5 20T20 82.5Q0 117 0 158t20 75.5Q40 268 74.5 288t75.5 20q41 0 75.5-20t54.5-54.5q20-34.5 20-75.5t-20-75.5Q260 48 225.5 28T150 8zm0 212q-17 0-31.5-8T96 189.5Q88 175 88 158t8-31.5q8-14.5 22.5-22.5t31.5-8.5q17-.5 31.5 8t23 23q8.5 14.5 8 31.5t-8.5 31.5q-8 14.5-22.5 22.5t-31.5 8z"/></svg>