<svg viewBox="0 0 300.0058 320" xmlns="http://www.w3.org/2000/svg"><path d="M265 111q-5-8-11.5-12.5t-9.5-11q-3-6.5-1-14t-.5-16Q240 49 234 43t-14.5-8.5q-8.5-2.5-16-1t-14.5-1q-7-2.5-11-9.5t-11.5-11Q159 8 150 8t-16.5 4Q126 16 122 23t-11 9.5q-7 2.5-14.5 1t-16 1Q72 37 66 43t-8.5 14.5Q55 66 57 73.5t-1 14q-3 6.5-9.5 11t-11 12Q31 118 31 127t4.5 16.5q4.5 7.5 11 11.5t9.5 11q3 7 1 14.5t.5 16Q60 205 66 211t14.5 8.5q8.5 2.5 16 .5t14.5 1q7 3 11 9.5t11.5 11Q141 246 150 246t16.5-4.5q7.5-4.5 11.5-11t11-9.5q7-3 14.5-1t16-.5Q228 217 234 211t8.5-14.5q2.5-8.5.5-16t1-14.5q3-7 9.5-11t11-11.5Q269 136 269 127t-4-16zm-102 84h-25v-82l-10 10-18-17 34-36h19v125zm-48 64l-45 45q-3 3-7 4t-8-.5q-4-1.5-7-4.5t-4-9l-3-27-27-3q-7-1-11-6t-3-10.5q1-5.5 4-9.5l31-31q5 13 15 23t23.5 13.5Q87 247 101 245q6 8 14 14zm171 5l-27 3-3 27q-1 6-4 9t-7 4.5q-4 1.5-8 .5t-7-4l-45-45q8-6 14-14 14 2 27.5-1.5T250 230q10-10 15-23l31 31q3 4 4 9.5t-3 10.5q-4 5-11 6z"/></svg>