<svg viewBox="0 0 300 320" xmlns="http://www.w3.org/2000/svg"><path d="M300 202q0 22-11 40.5T259.5 272Q241 283 219 283h-63q-22 0-40.5-11T86 242.5Q75 224 75 202t11-41q11-19 29.5-30t40.5-11h19q-2 12-8 19t-17 6q-21 3-35.5 19T100 202.5q0 22.5 16.5 39T156 258h63q23 0 39.5-16.5T275 202q0-17-8.5-30.5T243 151q5-12 6-25 23 10 37 30.5t14 45.5zM25 114q0-23 16.5-39.5T81 58h63q23 0 39.5 16.5t16.5 39q0 22.5-14.5 38.5T150 170q-11 0-17 7t-8 18h19q22 1 40.5-10t29.5-30q11-19 11-41t-11-40.5Q203 55 184.5 44T144 33H81q-22 0-40.5 11T11 73.5Q0 92 0 114q0 25 14 45.5T51 190q1-13 6-25-15-7-23.5-20.5T25 114z"/></svg>