<svg viewBox="0 0 300 320" xmlns="http://www.w3.org/2000/svg"><path d="M263 308H38V45q0-15 10.5-26T75 8h150q16 0 27 11t11 27v262zM150 52q-8 0-13.5 5.5t-5.5 13q0 7.5 5.5 13T150 89q8 0 13.5-5.5t5.5-13q0-7.5-5.5-13T150 52zm75 156q0-20-10-37.5T187.5 143Q170 133 150 133t-37.5 10Q95 153 85 170.5T75 208q0 20 10 37.5t27.5 27.5q17.5 10 37.5 10t37.5-10q17.5-10 27.5-27.5t10-37.5zm-25 0q0 21-14.5 35.5T150 258q-21 0-35.5-14.5T100 208q0-21 14.5-35.5T150 158q21 0 35.5 14.5T200 208zm-37-13h-25v25h25v-25z"/></svg>