<svg viewBox="0 0 300 320" xmlns="http://www.w3.org/2000/svg"><path d="M188 127q-1-8 4.5-13.5T206 108q8 0 13.5 5.5T225 127v50q0 8-5.5 13.5T206 196q-8 0-13.5-5.5T187 177v-50h1zm68-19q-8 0-13.5 5.5T237 127v50q1 8 6 13.5t13 5q8-.5 13.5-5.5t5.5-13v-50q0-8-5.5-13.5T256 108zM88 80l23-40-11-20q-4-7-10.5-10T75 9.5Q67 12 64 20t1 16l23 44zm168 140q-14 0-25-7-12 8-27 7-17 0-29.5-13.5T162 175v-46l-20 40q-11 20-26 36l-20 22-18-17 27-28q2-2 4-6 5-8 3-17t-9.5-14.5q-7.5-5.5-17-4.5T69 148l-34 33q-10 10-10 23.5T35 228l80 80h160v-92q-9 4-19 5v-1zm-139-96q8 6 13 14l55-102q4-8 1-16T175 9.5q-8-2.5-14.5.5T150 19l-53 96q11 2 20 9z"/></svg>