<svg viewBox="0 0 300 320" xmlns="http://www.w3.org/2000/svg"><path d="M200 245v54q-25 9-50 9t-50-9v-54q0-5 3.5-8.5t9.5-3.5h75q5 0 8.5 3.5t3.5 8.5zm-50-137q-10 0-17.5 7.5T125 133q0 10 7.5 17.5T150 158q10 0 17.5-7.5T175 133q0-10-7.5-17.5T150 108zm75 180v-43q0-15-11-26t-26-11h-75q-16 0-27 11t-11 26v43q-34-20-54.5-54.5T0 158q0-41 20-75.5T74.5 28Q109 8 150 8t75.5 20Q260 48 280 82.5t20 75.5q0 41-20.5 75.5T225 288zm-25-155q0-21-14.5-35.5T150 83q-21 0-35.5 14.5T100 133q0 21 14.5 35.5T150 183q21 0 35.5-14.5T200 133z"/></svg>