<svg viewBox="0 0 300 320" xmlns="http://www.w3.org/2000/svg"><path d="M123 145l-6-5 11-34-28-15v-8h36l10-37h8l10 37h36v8l-27 16 11 33-7 4-27-21-27 22zm100-38l-6-4 11-34-28-16v-7h36l10-38h8l10 38h36v7l-27 16 11 34-7 4-27-21-27 21zM23 182l-6-4 11-34-28-16v-7h36l10-38h8l10 38h36v7l-27 16 11 34-7 4-27-21-27 21zm277 126h-81V158q0-10 7-17.5t18-7.5h31q10 0 17.5 7.5T300 158v150zM56 208H25q-10 0-17.5 7.5T0 233v75h81v-75q0-10-7-17.5T56 208zm113-38h-38q-10 0-17.5 7.5T106 195v113h88V195q0-10-7.5-17.5T169 170z"/></svg>