<svg viewBox="0 0 300 320" xmlns="http://www.w3.org/2000/svg"><path d="M214 95q6 0 11 4t7 11l3 10h5q11 0 20.5 6.5T274 144l16 39H110l16-39q4-11 13.5-17.5T160 120h5l3-10q2-7 7-11t11-4h28zm11-35q0-10-6-19.5T204 27Q165 8 125 8T46 27q-9 4-15 13.5T25 60v10h200V60zM25 245h25v25h25v-50q1-16 8-37H25v62zm275-12v50h-25v25h-50v-25h-50v25h-50v-25h-25v-50q0-12 2-25h196q2 13 2 25zm-137 12q-1-5-4.5-8.5T150 233q-5 0-8.5 3.5T138 245v1q0 5 3.5 8.5t8.5 3.5q5 0 8.5-3.5t3.5-8.5v-1h1zm100 0q0-5-4-8.5t-9-3.5q-5 0-8.5 3.5T238 245v1q0 5 3.5 8.5t8.5 3.5q5 0 9-3.5t4-8.5v-1zM146 97v-1h1H25v12H0v25q0 10 7.5 17.5T25 158h68l10-24q6-14 17-23.5T146 97z"/></svg>