<svg viewBox="0 0 300 320" xmlns="http://www.w3.org/2000/svg"><path d="M150 83q-16 0-26.5 11T113 120q-1 13 6 22.5t18 13.5v152h26V156q11-4 17.5-13.5T187 120q1-15-10-26t-27-11zm-44-6q-18 19-18 44.5t18 44.5l-18 17q-12-12-18.5-28t-7-33.5Q62 104 69 88t19-28l18 17zm106-17q12 12 18.5 28t6.5 33.5q0 17.5-6.5 33.5T212 183l-18-17q18-19 18-44.5T194 77l18-17zM62 33Q38 57 29.5 89t0 64.5Q38 186 62 210l-18 17q-29-28-39-67t0-77.5Q15 44 44 15l18 18zm194 194l-18-17q24-24 32.5-56.5t0-64.5Q262 57 238 33l18-18q29 29 39 67.5t0 77.5q-10 39-39 67z"/></svg>