<svg viewBox="0 0 300 320" xmlns="http://www.w3.org/2000/svg"><path d="M181 145q0 13-9 22.5t-22 9.5q-13 0-22-9.5t-9-22q0-12.5 9-22t22-9.5q13 0 22 9.5t9 21.5zm94-69v82q0 42-24 77-18 26-49 47-20 13-42 22l-11 4-10-5q-21-11-41-25-31-23-49-49-24-34-24-71V76q0-12 7-22t19-13l99-33 99 33q12 3 19 13t7 22zm-70 57q-2-9-7-17l7-8h1q8 0 13.5-5.5T225 89q0-8-5.5-13.5T206 70q-8 0-13.5 5.5T187 89l1 1-8 8q-8-5-17-7V70h-25v21q-10 2-18 7l-8-8v-1q0-8-5-13.5T94 70q-8 0-13.5 5.5T75 89q0 8 5.5 13.5T94 108l9 8q-6 8-8 17H75v25h20q2 9 8 17l-8 8h-1q-8 0-13.5 5.5T75 202q0 8 5.5 13.5t13.5 5q8-.5 13.5-5.5t5.5-13l-1-1 8-8q8 5 18 7v20h25v-20q9-2 17-7l8 8-1 1q0 8 5.5 13.5t13.5 5q8-.5 13.5-5.5t5.5-13q0-8-5.5-13.5T206 183l-8-8q5-8 7-17h20v-25h-20z"/></svg>