<svg viewBox="0 0 300 320" xmlns="http://www.w3.org/2000/svg"><path d="M238 145H63v-12q0-15 9.5-25.5T97 96l-9-38q-1-5 3-9t9-4h25q5 0 9 4t4 9l-10 37h37l8-40q1-4 4.5-7t7.5-3h5q4 0 7.5 3t4.5 7l8 42q12 4 19.5 13.5T238 133v12zM113 33q5 0 8.5-3.5t3.5-9q0-5.5-3.5-9t-9-3.5q-5.5 0-9 3.5t-3.5 9q0 5.5 3.5 9T113 33zm75 0q5 0 8.5-3.5t3.5-9q0-5.5-3.5-9t-9-3.5q-5.5 0-9 3.5t-3.5 9q0 5.5 3.5 9T187 33h1zM47 233q9 0 15.5-4.5T69 220h25q0 4 6 8.5t15.5 4.5q9.5 0 16-4.5t6.5-8.5h25q-1 4 5.5 8.5t16 4.5q9.5 0 15.5-4.5t6-8.5h25q0 4 6.5 8.5T253 233q9 0 15.5-4.5t6.5-8.5v-12q0-16-11-26.5T237 170H63q-16 0-27 11t-11 27v12q0 4 6.5 8.5T47 233zm228 50v-30q-10 5-22 5-19 0-34-12-15 12-34.5 12T150 246q-15 12-34.5 12T81 246q-15 12-34 12-12 0-22-5v30H0v25h300v-25h-25z"/></svg>