<svg viewBox="0 0 300 320" xmlns="http://www.w3.org/2000/svg"><path d="M300 108q-37 2-73-9l57-57-18-18-57 57q-11-36-9-73h-25q-1 27 3 55-32-20-61.5-17T63 73q-16 16-31 50-14 32-22.5 69T0 258q0 30 10 40 17 12 38 10 28 0 66-9t70-23q35-15 51-31 24-24 27-53.5T245 130q28 4 55 3v-25zM98 88q7-7 15.5-4.5t11 11Q127 103 120 110q-15 8-33 11 3-18 11-33zM70 260q-15 8-33 11 3-18 11-33 7-7 15.5-4.5t11 11Q77 253 70 260zm25-75q-15 8-33 11 3-18 11-33 5-5 11.5-5t11 4.5q4.5 4.5 4.5 11T95 185zm50 50q-15 8-32 11 2-18 10-33 5-5 11.5-5t11 4.5q4.5 4.5 4.5 11t-5 11.5zm25-75q-15 8-32 10 2-17 10-32 5-5 11.5-5t11 4.5q4.5 4.5 4.5 11t-5 11.5zm50 50q-15 8-32 10 2-17 10-32 7-7 15.5-4.5t11 11Q227 203 220 210z"/></svg>