<svg viewBox="0 0 300.006 320" xmlns="http://www.w3.org/2000/svg"><path d="M300 245q1 13-3.5 24.5t-13 20Q275 298 264 303t-24 5h-34l16-32q3-5 3-10.5t-2.5-10Q220 251 215 248t-10-2h-27l23-42-22-12-28 52q-3 10 3 18.5t16 7.5h27l-19 38h-59q-21 0-36.5-13.5T64 261q-3-20 7-37.5t30-24.5q3-28 22-45t44.5-20q25.5-3 47.5 10t31 40q23 3 38.5 20.5T300 245zM250 58q5 0 8.5-3.5t4-9q.5-5.5-3.5-9t-9-3.5q-5 0-9 3.5t-4 9q0 5.5 4 9t9 3.5zm25 75q5 0 9-3.5t4-9q0-5.5-4-9t-9-3.5q-5 0-9 3.5t-3.5 9q.5 5.5 4 9t8.5 3.5zm-75-38q5 0 9-3.5t4-8.5q0-5-4-9t-9-3.5q-5 .5-9 4t-3.5 8.5q.5 5 4 9t8.5 4v-1zM79 181q5-19 17-34.5t29-25.5q-1-25 11-47t35-35l14-8-15-9Q144 8 115 8T60.5 22Q35 36 18.5 61t-18 54Q-1 144 11 170.5T47 215q11-22 32-34z"/></svg>