<svg viewBox="0 0 300 320" xmlns="http://www.w3.org/2000/svg"><path d="M163 283H69q-24 0-42.5-14.5T2 231q-6-23 3.5-44.5T36 154q-11-22-11-46.5t11.5-46Q48 40 68.5 26T114 9q25-3 47.5 6t39 27.5Q217 61 222 86q25 5 44 22h-3q-23 0-40.5 14.5T201 159l-11 6q-13-7-27-7-17 0-31.5 8.5t-23 23q-8.5 14.5-8.5 31t8.5 31q8.5 14.5 23 23T162 283h1zm100-75q15 0 26-11t11-26.5q0-15.5-11-26.5t-26.5-11q-15.5 0-26.5 11t-11 26v5l-37 19q-11-11-26-11t-26 11q-11 11-11 26.5t11 26.5q11 11 26 11t26-11l37 19v5q0 13 8.5 23.5t21.5 13q13 2.5 25-3.5t17.5-18.5Q303 273 299 260t-15-20.5q-11-7.5-24.5-6.5T237 244l-37-19v-9l37-19q10 11 26 11z"/></svg>