<svg viewBox="0 0 300 320" xmlns="http://www.w3.org/2000/svg"><path d="M25 258h158l-46-51q-2 6-7 9.5t-12 3.5q-7 0-12.5-5t-5.5-13q0-8 5.5-13.5T119 183q4 0 7 2-2-10-.5-21t8.5-20.5q7-9.5 17-15.5 17-10 37-6V58H25V45q0-5 3.5-8.5T38 33h62V8H38Q22 8 11 19T0 45v225q0 16 11 27t27 11h62v-25H38q-6 0-9.5-3.5T25 270v-12zm94-163q8 0 13.5 5.5T138 114q0 8-5.5 13.5T119 133q-8 0-13.5-5.5T100 114q0-8 5.5-13.5T119 95zm-94 13q7 0 14 2 12 3 21.5 12.5T73 144q5 17-1 31.5T53.5 199Q41 208 25 208v-25q10 0 17.5-7.5T50 158q0-10-7.5-17.5T25 133v-25zm275 16v134h-66q-17 0-28-12l-49-54q-9-10-7-23t14-20q7-4 16-3t16 7l41 40 18-17-42-42V83h23q20 0 34 13l30 28z"/></svg>