<svg viewBox="0 0 300 320" xmlns="http://www.w3.org/2000/svg"><path d="M31 215l62 62-18 18q-13 13-31 13t-31-13Q0 282 0 264t13-31l18-18zm269-41l-8 8q-35 35-84 57-38 16-90 28l-77-77q11-52 28-90 22-49 57-84l8-8 10 8q12 10 17 15 7 7 10 17 9-4 18.5-2.5t17.5 7q8 5.5 12.5 13.5t4.5 18q16 0 27 11v1q8 8 10.5 19t-1.5 22q10 3 16.5 9t16.5 19l7 9zm-88-61l-69 69 12 11q41-26 78-59l3 3-3-3q4-4 4.5-10.5t-4-10.5q-4.5-4-10.5-4t-11 4zM86 125l10 10q22-34 48-65 4-4 4-10.5T144 49l-8-7q-32 37-50 83zm40 40l69-70q4-4 4-10t-4.5-10q-4.5-4-10.5-4t-10 4q-33 36-60 78l12 12zm140 7q-4-5-7-8-4-4-10.5-4.5T238 163q-31 26-65 49l10 10q46-18 83-50z"/></svg>