<svg viewBox="0 0 300 320" xmlns="http://www.w3.org/2000/svg"><path d="M213 145q0-16-8.5-30.5t-23-23Q167 83 150 83t-31.5 8.5Q104 100 96 114.5t-8 31q0 16.5 8 31t22.5 23Q133 208 150 208t31.5-8.5q14.5-8.5 22.5-23t8-30.5l1-1zm25 138v25H63v-25q0-21 14.5-35.5T112 233h76q20 0 34.5 14.5T237 283h1zm37-78l-13 21-43-27q19-24 19-53 0-24-12-44t-32-32q-20-12-44-12t-44 12q-20 12-31.5 32T63 146q0 29 18 53l-43 27-13-21 22-15q-9-21-9-44 0-27 12-51L28 81l14-21 21 14q14-17 33-27.5T138 34V8h25v26q22 2 41 12.5T237 74l21-14 14 21-22 14q13 24 13 50 0 24-10 45l23 15h-1z"/></svg>