<svg viewBox="0 0 300.0014 320" xmlns="http://www.w3.org/2000/svg"><path d="M132 201q-12-13-16.5-29.5t0-33.5q4.5-17 16.5-29 15-15 49-22 18-4 36-4l5-1 5 6 20-20q-6-4-8.5-11t1-14q3.5-7 11-9.5t14.5 1q7 3.5 9 11T273 60q4-2 8-2 7 0 12.5 4.5t6.5 11q1 6.5-2.5 12.5t-10 8.5q-6.5 2.5-13 0T265 86l-20 19 6 6-1 5q0 17-4 36-7 34-22 49-12 12-29 16.5t-33.5 0Q145 213 132 201zm137-39q-6 32-27 57-17 17-40 24t-46.5 1.5q-23.5-5.5-41-22T90 183q-7-23-1.5-46.5T111 95q-30 1-55.5 16T15 151.5Q0 177 0 208v85l11 2q51 9 102 13 44 0 80-5 47-7 74-22 33-18 33-48-1-20-9-38.5T269 162zM113 8H88v50h25V8zm50 0h-25v50h25V8zM63 8H38v50h25V8z"/></svg>