<svg viewBox="0 0 300.0018 320" xmlns="http://www.w3.org/2000/svg"><path d="M63.002 89l-21 11-11 20-10-20-21-11 21-10 10-21 11 21 21 10zm193 219h44v-44l-29 15-15 29zm44-244v200l-29-14-15-30-14 30-29 14 29 15 14 29h-156l-92-95q-7-7-8-16.5t4.5-17q5.5-7.5 15-9.5t17.5 3q4 2 5 4l33 33V52q0-9 6.5-14.5t14.5-4.5q8 1 12.5 7t4.5 13v105h25V27q0-8 5-13.5t13-5.5q8 0 13.5 5.5t5.5 13.5v131h25V39q0-8 5.5-13.5t13.5-5.5q8 0 13.5 5.5t5.5 13.5v119h25V64q0-8 5-13.5t13-5.5q8 0 13.5 5.5t5.5 13.5zm-81 150l-25-12-13-25-12 25-25 12 25 13 12 25 13-25 25-13z"/></svg>