<svg viewBox="0 0 300 320" xmlns="http://www.w3.org/2000/svg"><path d="M272 184q2-4 3-8 2-16-7.5-28t-25-14.5Q227 131 215 140q-9 7-15 17-6-10-15-17-12-9-27.5-6.5t-25 14.5q-9.5 12-7.5 28 1 4 3 8-12 4-20 14t-8 22v88h88V208h25v100h87v-88q0-12-8-22t-20-14zm-112-1l-5-3q-4-3-5-8t2.5-9q3.5-4 8.5-5t9 2q10 8 15 23h-25zm85-2q-1 1-5 2h-25q5-15 15-23 4-3 9-2t8.5 5q3.5 4 2.5 9t-5 9zm-132-48q-13 17-13 38-12 8-18.5 21.5T75 221v87H0V95q0-15 11-26t27-11h32L44 32l18-17 26 25V8h25v32l25-25 18 17-26 26h33q15 0 26 11t11 26v25q-21-15-46.5-11.5T113 133z"/></svg>