<svg viewBox="0 0 300 320" xmlns="http://www.w3.org/2000/svg"><path d="M150 8q-41 0-75.5 20T20 82.5Q0 117 0 158t20 75.5Q40 268 74.5 288t75.5 20h150V158q0-41-20-75.5T225.5 28Q191 8 150 8zM65 145l2 1 14 5q10 4 14.5 11t3 15q-1.5 8-8.5 13.5T73 196q-16 0-27-11l-5-6 12-11 5 6q6 6 15 6 4 0 7-2t3.5-5.5Q84 169 75 166t-17-7q-6-4-8.5-9T48 139q1-6 5-10.5t10-6.5q11-3 22 1 5 2 9 6l6 5-10 11-6-4q-2-2-5-3-6-3-10.5-1.5t-5 4.5q-.5 3 1.5 4zm122 50h-15v-48l-22 23-22-23v48h-16v-75h16l22 25 22-25h15v75zm37-50h2l14 6q10 4 14.5 11t3 15q-1.5 8-9 13t-16.5 5q-16 0-27-11l-5-6 12-10 5 6q6 6 15 6 4 0 7-2t3.5-5.5q.5-3.5-8.5-7t-18-7.5q-5-3-7.5-8.5t-1.5-11q1-5.5 5-10.5t10-7q11-3 22 2 5 2 9 5l6 5-10 12-6-5q-2-1-5-3-6-2-10.5-.5t-5 4q-.5 2.5 1.5 4.5z"/></svg>