<svg viewBox="0 0 300 320" xmlns="http://www.w3.org/2000/svg"><path d="M163 222l36-21 29 16 18-18-33-19v-43l23-14 55 15 6-24-47-13 13-47-24-7-15 55-23 13-38-23V66l40-40-18-18-35 35-35-35-18 18 41 40v26l-39 23-23-13-15-55-24 6 13 48-47 13 6 24 55-15 24 14v43l-34 19 18 18 29-16 36 21v28l-40 40 18 18 35-35 35 35 18-18-41-40v-28h1zm126 22l-26-26-27 26q-11 11-11 26.5t11 26.5q11 11 26.5 11t26.5-11q11-11 11-26.5T289 244zM38 218l-27 26Q0 255 0 270.5T11 297q11 11 26.5 11T64 297q11-11 11-26.5T64 244l-26-26z"/></svg>