<svg viewBox="0 0 300 320" xmlns="http://www.w3.org/2000/svg"><path d="M274 34q-15-15-35.5-21.5t-42.5-4q-22 2.5-43 13t-37.5 27Q99 65 88.5 86T76 130q-1 9-.5 17.5T77 163q2 19 0 33-2 20-11 28L1 290l17 17 66-65q8-9 28-11 15-2 33 0l22 2q5 0 11-1 23-2 44-12.5t37.5-27q16.5-16.5 27-37.5t13-43q2.5-22-4-42.5T274 34zm1 75q-2 14-7 27l-19-19 26-25v17zm-9-44l-35 35-24-24 35-35q8 4 14 10.5T266 65zM119 189q-7-6-11-14l37-38 24 25-37 37q-7-4-13-10zm-10-88l19 19-28 27q-2-24 9-46zm54 19l27-27 24 24-27 27-24-24zm36-87h15l-24 25-18-18q13-5 27-7zm-50 20l23 23-27 26-23-23q12-15 27-26zm27 155q-9 0-17-1l28-28 20 20q-15 7-31 9zm53-22l-24-24 26-27 24 24q-11 15-26 27z"/></svg>