<svg viewBox="0 0 300 320" xmlns="http://www.w3.org/2000/svg"><path d="M175 108q0-4-2.5-6.5T167 98l-38-6q-13-2-21-11.5T100 58q0-16 11-27t26-10V8h26v12q15 0 26 11t11 27h-25q0-5-3.5-9t-9.5-4h-24q-6 0-9.5 4t-3.5 8.5q0 4.5 2.5 7T133 68l38 6q13 2 21 11.5t8 22.5q0 16-11 26.5T163 145v13h-25v-13q-16 1-27-10t-11-27h25q0 5 3.5 8.5t8.5 3.5h26q5 0 8.5-3.5t3.5-8.5zm75-63h-26q1 7 1 13v50q0 19-10.5 34.5T188 165v18h-75v-18q-17-7-27.5-22.5T75 108V58q0-6 1-12H50q-16-1-26.5 10T13 83v30l100 100v48l75 48v-96l100-100V83q0-16-11-27t-27-10v-1z"/></svg>