<svg viewBox="0 0 300 320" xmlns="http://www.w3.org/2000/svg"><path d="M119 250q1 1 3 2l-52 52q-3 3-7 4t-8-.5q-4-1.5-7-4.5t-4-9l-3-27-27-3q-7-1-11-6t-3-10.5q1-5.5 4-9.5l37-36q6 11 16 20t23 12q11 3 22 3 7 8 17 13zm50-22q-9 5-19 5t-19-5q-9-5-15-13-3-5-8-4-10 2-20-.5t-17.5-10Q63 193 60 183t0-20q1-5-4-9-9-5-14-14t-5-19.5q0-10.5 5-19.5t14-14q5-3 4-9-3-10 0-20t10.5-17Q78 34 88 31t20-1q5 1 8-4 6-8 15-13t19-5q10 0 19 5t15 13q3 5 8 4 10-2 20 1t17.5 10q7.5 7 10 17t.5 20q-1 6 4 9 8 5 13 14t5 19.5q0 10.5-5 19.5t-13 14q-5 4-4 9 2 10-.5 20t-10 17.5q-7.5 7.5-17.5 10t-20 .5q-5-1-8 4-6 8-15 13zm27-83q0-8-4-16t-11-13q7-9 6-21 1-15-10-26t-27-11h-31v25h31q5 0 9 3.5t4 9q0 5.5-4 9t-9 3.5h-12v25h20q6 0 9.5 3.5t3.5 9q0 5.5-3.5 9T158 158h-39v25h39q16 0 27-11t11-27zm104 102q-1-5-4-9l-37-37q-6 12-16.5 21T219 234q-10 3-21 3-7 8-17 13l-3 2 52 52q3 3 7 4t8-.5q4-1.5 7-4.5t4-9l3-27 27-3q7-1 11-6t3-11z"/></svg>