<svg viewBox="0 0 300 320" xmlns="http://www.w3.org/2000/svg"><path d="M300 115l-34-32q-12-12-28-12h-96l-30-22V20q-7 0-13 4t-9 11q-7-2-13-2l-5 1q-3-6-9-10t-13-4v23q-4 3-7 6L9 95q-9 9-9 21t8.5 20.5Q17 145 31 145q6 0 29-10l12 48h203v-57l8 7 17-18zm-175 30q-5 0-8.5-3.5T113 133q0-5 3.5-8.5t8.5-4q5-.5 8.5 3.5t4 9q.5 5-3.5 8.5t-9 3.5zm50 0q-5 0-8.5-3.5T163 133q0-5 3.5-8.5t8.5-4q5-.5 8.5 3.5t4 9q.5 5-3.5 8.5t-9 3.5zm50 0q-5 0-8.5-3.5T213 133q0-5 3.5-8.5t8.5-4q5-.5 8.5 3.5t3.5 9q0 5-3.5 8.5T225 145zM75 208h200v75h-75v-38h-50v38H75v-75z"/></svg>