<svg viewBox="0 0 300 320" xmlns="http://www.w3.org/2000/svg"><path d="M163 158q0 5-4 8.5t-9 3.5q-5 0-8.5-3.5T138 158q0-5 3.5-9t8.5-4q5 0 8.5 4t3.5 9h1zm-13 75q-5 0-8.5 3.5t-3.5 9q0 5.5 3.5 9t8.5 3.5q5 0 8.5-3.5t4-9q.5-5.5-3.5-9t-9-3.5zM250 45v263H50V45q0-15 11-26T88 8h125q15 0 26 11t11 27v-1zm-62 200q0-15-11-26t-27-11q-16 0-27 11t-10.5 26.5q.5 15.5 11 26.5t26.5 11q16 0 26.5-11t10.5-27h1zm0-87q0-16-11-26.5t-27-11q-16-.5-26.5 10.5T113 158q0 16 10.5 26.5T150 195q16 0 26.5-10.5T187 158h1zm0-88q0-15-11-26t-27-11q-16 0-27 11t-10.5 26.5q.5 15.5 11 26.5t26.5 11q16 0 26.5-11T187 71l1-1z"/></svg>