<svg viewBox="0 0 300 320" xmlns="http://www.w3.org/2000/svg"><path d="M235 293l3 15H60l3-15q2-16 11-31 36 21 75.5 21t74.5-20q9 14 11 30zM150 95q-16 1-26.5 11.5T113 133q0 16 10.5 26.5T150 170q16 0 26.5-10.5t11-26.5q.5-16-10.5-26.5T150 96v-1zm125 38q0 34-17 62.5T212.5 241Q184 258 150 258t-62.5-17Q59 224 42 195.5T25 133q0-34 17-62.5T87.5 25Q116 8 150 8t62.5 17Q241 42 258 70.5t17 62.5zm-62 0q0-17-8.5-31.5t-23-23Q167 70 150 70t-31.5 8.5Q104 87 96 101.5T88 133q0 17 8 31.5t22.5 22.5q14.5 8 31.5 8.5t31.5-8q14.5-8.5 22.5-23t8-31.5h1z"/></svg>