<svg viewBox="0 0 300 320" xmlns="http://www.w3.org/2000/svg"><path d="M188 95q0-5 3.5-8.5T200 83q5 0 8.5 3.5t4 9q.5 5.5-3.5 9t-9 3.5q-5 0-8.5-3.5T188 95zM88 145q-6 0-9.5 4t-3.5 9q0 5 3.5 8.5t9 3.5q5.5 0 9-3.5t3.5-8.5q0-5-3.5-9t-8.5-4zm112 88q5 0 8.5-3.5t4-9q.5-5.5-3.5-9t-9-3.5q-5 0-8.5 3.5t-3.5 9q0 5.5 3.5 9t8.5 3.5zM300 45v263H0V45q0-15 11-26T38 8h225q15 0 26 11t11 27v-1zM124 152l51-28q11 9 26 9t26-11q11-11 11-26.5T227 69q-11-11-27-11t-26.5 11Q163 80 163 95v7l-51 28q-10-9-25-9.5T61 131q-11 11-11 27t11 27q11 11 26 10.5t25-9.5l51 28-1 7q1 15 11.5 26t26.5 11q16 0 27-11t11-26.5q0-15.5-11-26.5t-26-11q-15 0-26 9l-51-28 1-6-1-6z"/></svg>