<svg viewBox="0 0 300 320" xmlns="http://www.w3.org/2000/svg"><path d="M81 106q-6-4-6-10t3.5-9.5Q82 83 87 83h13q5 0 8.5 3.5t4 9.5q.5 6-5.5 10 2 14 13.5 24t26 10q14.5 0 25.5-9t14-22l1-7 1-14q0-23-14-43 6-2 9.5-7t4-12q.5-7-5-12.5T170 8q-7 0-12 3.5t-7 9.5Q131 8 107 8H80Q56 8 37 21q-2-6-7-9.5T18 8q-7 0-12.5 5.5T0 26q0 7 3.5 12t9.5 7Q0 64 0 88v11q0 4 1 9 3 14 14 23t26 9q15 0 26-10t14-24zm63-48q8 0 13.5 5.5T163 77q0 8-5.5 13.5T144 96q-8 0-13.5-5.5T125 77q0-8 5.5-13.5T144 58zM25 77q0-8 5.5-13.5T44 58q8 0 13 5.5T62 77q0 8-5 13.5T44 96q-8 0-13.5-5.5T25 77zm275 100v12q0 38-21.5 68.5T222 301q3-8 3-16 1-31 10-45l-20-14q-8 12-12 28-2 13-3 30 0 10-7.5 17t-17.5 7h-50q-29 0-54-13.5T30.5 257Q15 233 13 205q14 13 33 20.5t42 7.5v-25q-29 0-49-13.5T14 159q13 6 27 6 16 0 30-7t23-20q8 12 21 19t28 8q7 14 7 43v12h25v-12q0-21-4-38h54q18 0 30-10 14-13 15-36-4-22-11-39-4-9-7-13l21-15q7 9 14 30 13 39 13 90z"/></svg>