<svg viewBox="0 0 300 320" xmlns="http://www.w3.org/2000/svg"><path d="M300 30q0 17-21 38-10 11-21 18l-12-8q-13-11-21-21-12-15-13-27 0-9 6.5-15.5T234 8q9 0 15.5 6.5T256 30q0-9 6-15.5T277.5 8q9.5 0 16 6.5T300 30zM65 221q-9 0-15.5 6.5T44 243q-1-9-7.5-16T21 220q-9 0-15 7t-6 16q0 12 12 26 9 10 22 21l11 9 11-9q13-11 21-21 11-14 11-26-1-9-7.5-15.5T65 221zM286 96q14 30 14 62 0 41-20 75.5T225.5 288Q191 308 150 308q-32 0-62-13 25-27 24-53 0-10-4-19 21 10 42 10 24 0 49-14 13-7 22-14l-17-19q-6 5-16 11-20 11-38 11t-38-11q-10-6-16-11l-12 14q-9-4-20-4t-21 5q-10-5-22-6-7 0-15 3-6-20-6-40 0-41 20-75.5T74.5 28Q109 8 150 8q20 0 40 6-3 8-2 17 0 23 23 48 14 16 33 28l14 10 14-10q7-5 14-11zm-148 49q0-18-11-33.5t-27-16Q84 95 73.5 111T63 146h25q0-10 4.5-17.5t7.5-8q3-.5 8 7.5t5 17h25zm100 0q0-18-11-33.5t-27-16q-16-.5-27 15.5t-11 35h26q0-10 4.5-17.5t7.5-8q3-.5 8 7.5t5 17h25z"/></svg>