<svg viewBox="0 0 300 320" xmlns="http://www.w3.org/2000/svg"><path d="M287 85q-1 11-10 18l-64 43v53l30 29q5 5 6.5 12t-.5 13l-13 38q-2 8-8.5 12.5t-14 4.5q-7.5 0-12.5-3-8-4-11.5-13t-.5-19l7-21-46-38 37-16v-28h-75v28l38 16-46 38 7 22q3 9-.5 18T99 305q-5 3-12.5 3t-14-4.5Q66 299 64 291l-13-38q-2-6-.5-13t6.5-12l30-30v-52l-64-43q-9-7-10-18.5T20 65q6-6 15.5-6.5T53 63l58 38q10 7 22 7h34q12 0 22-7l58-38q8-6 17.5-5t15.5 7q8 8 7 20zm-87-27q0-21-14.5-35.5T150 8q-21 0-35.5 14.5t-14.5 35q0 20.5 14 35t33 15.5h6q19-1 33-15.5T200 58z"/></svg>