<svg viewBox="0 0 300 320" xmlns="http://www.w3.org/2000/svg"><path d="M119 39q0-13 9-22t22-9q13 0 22 9t9 22q0 13-9 22.5t-22 9q-13-.5-22-9.5t-9-22zm-10 114q-10-9-23-7t-20 13q-4 8-3 17t7 16l40 41-17 17-43-43q-13-15-12.5-35T51 138q2-2 11-10V79q0-13-8-22.5t-20.5-11q-12.5-1.5-23 8T0 77v155q0 19 13 33l39 43h123v-79q0-16-12-27l-54-49zm121 39l-31 31q-2-24-19-40l-11-10 22-20q10-9 23-7t20 13q4 8 3 17t-7 16zm70-115v155q0 19-13 33l-39 43h-48v-50l50-51q13-15 12.5-35T249 138l-11-10V77q0-13 9-22.5t22-9.5q13 0 22 9.5t9 22.5zm-174 57l24 22 24-22q11-10 26-13v-7q0-13-9-22t-22-9h-38q-13 0-22 9t-9 22v7q15 3 26 13z"/></svg>