<svg viewBox="0 0 300 320" xmlns="http://www.w3.org/2000/svg"><path d="M236 130q-9 12-32 19-24 9-54 9t-53.5-8Q73 142 64 130q6-31 30-51.5T150 58q32 0 56 20.5t30 51.5zm24 9q-12 20-42 32t-68 12q-38 0-68-12t-42-32q-22 10-32 24-8 11-8 23 0 21 19.5 37t54 25.5Q108 258 150 258t76.5-9.5q34.5-9.5 54-25.5t19.5-37q0-12-8-23-10-14-32-24zM56 220q-8 1-13-4.5T38 202q0-8 5.5-13.5t13-5.5q7.5 0 13 5.5T75 202q0 8-5.5 13.5T56 221v-1zm94 19q-8 0-13.5-5.5t-5.5-13q0-7.5 5.5-13T150 202q8 0 13.5 5.5t5.5 13q0 7.5-5.5 13T150 239zm94-19q-8 0-13.5-5t-5.5-13q0-8 5.5-13.5T244 183q8 0 13.5 5.5T263 202q0 8-5.5 13.5T244 221v-1z"/></svg>