<svg viewBox="0 0 300 320" xmlns="http://www.w3.org/2000/svg"><path d="M205 246l14 24H81l14-24h110zm-28-113h-54q2 6 2 12.5t-2 12.5h54q-2-6-2-12.5t2-12.5zm-89 0q-6 0-9.5 3.5t-3.5 9q0 5.5 3.5 9t9 3.5q5.5 0 9-3.5t3.5-9q0-5.5-3.5-9T88 133zm212-50v187h-53l-27-49H80l-27 49H0V83q0-15 11-26.5T38 45h225q15 0 26 11.5T300 83zm-50 62q0-15-11-26t-26-11H88q-16 0-27 11t-11 26.5Q50 161 61 172t27 11h125q15 0 26-11t11-27zm-37-12q-6 0-9.5 3.5t-3.5 9q0 5.5 3.5 9t9 3.5q5.5 0 9-3.5t3.5-9q0-5.5-3.5-9T213 133z"/></svg>