<svg viewBox="0 0 300 320" xmlns="http://www.w3.org/2000/svg"><path d="M180 170l119 120-17 17L1 26 18 9l120 119q-13-25-13-35.5T140 56q8-12 16-22l11 15 41-41 17 18-45 45q7 14 7 21t-2 14l97-97 18 17-97 97q7-2 13.5-2t20.5 7l46-45 17 18-41 40 16 11-12 8q-13 10-24 15-15 9-23 9-11 0-36-14zM62 155q0 15 22 51l-24 25q2-7 2-14t-8-23q-6-10-15-24l-8-11-8 11q-9 14-15 24-8 16-8 23 0 15 22 52L0 290l18 18 22-22q36 23 51 23 11 0 36-16 12-8 23-16l-12-8q-13-9-24-15-15-8-22-8t-14 2l24-24q36 22 51 22 8 0 24-8L71 132q-9 15-9 23z"/></svg>