<svg viewBox="0 0 300 320" xmlns="http://www.w3.org/2000/svg"><path d="M225 158q-20 0-37.5 10T160 195.5Q150 213 150 233t10 37.5q10 17.5 27.5 27.5t37.5 10q20 0 37.5-10t27.5-27.5q10-17.5 10-37.5t-10-37.5Q280 178 262.5 168T225 158zm50 87h-37v38h-25v-38h-38v-25h38v-37h25v37h37v25zm-125-78q-12 14-18.5 30.5T125 233H88l-22 31-7-5q-28-19-43.5-49T0 146q0-37 18.5-69T69 26.5Q101 8 138.5 8t69 18.5Q239 45 257.5 77t18.5 69v1q-24-14-51-14-19 0-35.5 6.5T159 158q4-6 4-12.5t-3.5-12.5q-3.5-6-9.5-9V45h-25v79q-6 3-9 9t-3 13q0 10 7 17t18 7q6 0 12-3z"/></svg>