<svg viewBox="0 0 300 320" xmlns="http://www.w3.org/2000/svg"><path d="M125 208q0 10-7.5 17.5T100 233q-10 0-17.5-7.5T75 208q0-10 7.5-17.5T100 183q10 0 17.5 7.5T125 208zm175-100v73l-90 16q-5 1-7.5 4.5T200 210q-1 22-10 41-11 22-30.5 37T116 307q-8 1-16 1-21 0-40-8.5T27 276q-14-15-21-35t-6-41q3-26 17-47t37-33q23-12 49-12h197zM150 208q0-21-14.5-35.5T100 158q-21 0-35.5 14.5T50 208q0 21 14.5 35.5T100 258q21 0 35.5-14.5T150 208zM138 8h-25v62h25V8zm66 26l-22-12-30 54 22 12 30-54zM98 76L68 22 46 34l31 54 21-12z"/></svg>