<svg viewBox="0 0 300 320" xmlns="http://www.w3.org/2000/svg"><path d="M276 183H24l4-10 29-57q5-9 14-15t19-6h120q10 0 19 6t14 15l29 57 4 10zm12 100h-25v25h-63v-25H100v25H38v-25H13v-43q0-16 3-32h268q4 16 4 32v43zm-63-25q5 0 9-3.5t3.5-9q-.5-5.5-4-9T225 233q-5 0-9 3.5t-3.5 9q.5 5.5 4 9t8.5 3.5zm-150 0q5 0 8.5-3.5t4-9q.5-5.5-3.5-9t-9-3.5q-5 0-8.5 3.5t-3.5 9q0 5.5 3.5 9T75 258zm75-188q8 0 14-4t9-11q3-7 1.5-14.5T168 28L150 8l-18 20q-5 5-6.5 12.5T127 55q3 7 9 11t14 4zm75 0q7 0 13.5-4t9.5-11q3-7 1.5-14.5T243 28L225 8l-18 20q-5 5-6.5 12.5T202 55q3 7 9 11t14 5v-1zM75 70q7 0 13.5-4T98 55q3-7 1.5-14.5T93 28L75 8 57 28q-5 5-6.5 12.5T52 55q3 7 9 11t14 5v-1z"/></svg>