<svg viewBox="0 0 300 320" xmlns="http://www.w3.org/2000/svg"><path d="M263 45H38q-16 0-27 11T0 83v187h22l42-42 43 44 43-44 44 44 43-44 42 42h21V83q0-16-11-27t-27-10l1-1zM46 124l-21 21v-42l21 21zm18 18l26 25-26 26-26-26 26-25zm17-18l26-26 26 26-26 26-26-26zm54-54h31l10 11-26 25-25-25 10-10v-1zm15 72l26 25-26 26-25-26 25-25zm18-18l26-26 25 26-25 26-26-26zm69 18l26 25-26 26-26-26 26-25zm18-18l20-20v40l-20-20zm8-54q4 0 7 3l-33 33-26-25 11-10h40l1-1zM79 70l10 11-25 25-34-33q4-3 7-3h42zM25 232v-43l21 22-21 21zm82 4l-25-25 25-26 26 26-26 25zm87 0l-26-25 26-26 25 26-25 25zm61-25l20-21v41l-20-20z"/></svg>