<svg viewBox="0 0 300 320" xmlns="http://www.w3.org/2000/svg"><path d="M100 145q-21 0-35.5-14.5T50 95V58q0-21 14.5-35.5T100 8q21 0 35.5 14.5T150 58v37q0 21-14.5 35.5T100 145zm0-112q-10 0-17.5 7.5T75 58v37q0 11 7.5 18t17.5 7q10 0 17.5-7t7.5-18V58q0-10-7.5-17.5T100 33zm100 275q-21 0-35.5-14.5T150 258v-38q0-20 14.5-35t35.5-15q21 0 35.5 15t14.5 35v38q0 21-14.5 35.5T200 308zm0-113q-10 0-17.5 7.5T175 220v38q0 10 7.5 17.5T200 283q10 0 17.5-7.5T225 258v-38q0-10-7.5-17.5T200 195zM238 8h-19l-44 45 18 17 19-20v95h25V8h1zM113 170H94l-44 45 18 18 19-20v95h25V170h1z"/></svg>