<svg viewBox="0 0 300 320" xmlns="http://www.w3.org/2000/svg"><path d="M225 70H25V60q0-10 5.5-19.5T46 27q20-12 49.5-16t59 0Q184 15 204 27q10 4 15.5 13.5T225 60v10zM25 183v62h25v25h25v-50q2-19 8-37H25zm275 50v50h-25v25h-50v-25h-50v25h-50v-25h-25v-50q0-13 2-25h196q2 12 2 25zm-150 0q-5 0-8.5 3.5t-3.5 9q0 5.5 3.5 9t8.5 3.5q5 0 9-3.5t4-9q0-5.5-4-9t-9-3.5zm100 0q-5 0-8.5 3.5t-3.5 9q0 5.5 3.5 9t8.5 3.5q5 0 9-3.5t4-9q0-5.5-4-9t-9-3.5zm-124-89l-15 36-1 3h180l-16-39q-4-11-13.5-17.5T240 120h-80q-11 0-20.5 6.5T126 144zm-23-10q7-18 22.5-28.5T160 96H25v12H0v25q0 10 7.5 17.5T25 158h68l10-24z"/></svg>