<svg viewBox="0 0 300 320" xmlns="http://www.w3.org/2000/svg"><path d="M175 95q0 11-7.5 18t-17.5 7q-10 0-17.5-7T125 95.5q0-10.5 7.5-17.5t17.5-7.5q10-.5 17.5 7T175 96v-1zm37 62l-62 61-62-60q-19-19-24-45t5-50.5Q79 38 101 23t48.5-15q26.5 0 49 15T231 62.5q10 24.5 5 50.5t-24 44zm-12-62q0-20-14.5-34.5t-35.5-15Q129 45 114.5 60T100 95.5q0 20.5 14.5 35t35.5 15q21 .5 35.5-14.5T200 96v-1zm73 46l-18-6q-8 23-25 40l-80 78-79-78q-23-22-30-54-17-2-29 9.5T0 158v122l100 28 100-25 100 25V177q0-13-7.5-23T273 141z"/></svg>