<svg viewBox="0 0 300.0021 320" xmlns="http://www.w3.org/2000/svg"><path d="M131 133q14-9 23-22t9-28q0-17-16-28-12-9-29-9.5T91 49q-16 5-16 22 0 7 7.5 12.5T100 89q10 0 18.5-4.5T131 70q1 5-2.5 14.5T116 100q-12 8-29 8-25 0-38-15-11-11-11.5-28T47 34.5Q57 21 75 15q21-9 48-5.5T168 28q19 17 19 43t-17 44q-17 16-39 18zm161 29L158 308H38q-16 0-27-11T0 270v-87q0-16 11-27t27-11h109q12 0 20 8.5t8 19q0 10.5-7 18.5t-17 10l-53 7 4 25 53-8q19-2 32-17t13-35l-1-8 44-47q9-9 22.5-10t23.5 8q10 9 11 22.5t-8 23.5z"/></svg>