<svg viewBox="0 0 300 320" xmlns="http://www.w3.org/2000/svg"><path d="M259 213q-5-4-9-17-3-9-5-22l-2-11 10 2q13 3 23 6 13 4 16.5 7.5t4.5 7.5q9-45-8.5-86.5T233 33Q195 8 150 8T67.5 33Q30 58 12 99.5T3 186q1-4 4.5-7.5T25 171q9-3 22-6l11-2-2 7q-4 26-11 37-12 21-33 10 19 44 58 68 36 22 80 22t80-22q39-24 58-68-7 4-15.5 3t-13.5-7zM200 95q16 0 27 16t11 35h-25q0-10-5-17.5t-8-8q-3-.5-7.5 7.5t-4.5 17h-25q0-18 10.5-33.5T200 96v-1zm-100 0q16 0 27 16t11 35h-25q0-10-5-17.5t-8-8q-3-.5-7.5 7.5T88 145H63q-1-18 10-34t27-15v-1zm50 150q-29 0-50-20-18-17-25-42 37 12 75 12t75-12q-7 25-25 42-21 20-50 20z"/></svg>