<svg viewBox="0 0 300 320" xmlns="http://www.w3.org/2000/svg"><path d="M208 295q0-3 2-6.5t5.5-4.5q3.5-1 7.5-.5t6.5 3q2.5 2.5 3 6.5t-.5 7.5q-1 3.5-4.5 5.5t-8 2q-4.5 0-8-3.5T208 296v-1zm57-44q-12-12-28.5-16t-32.5 0q-16 4-28 16l18 18q11-11 26.5-11t26.5 11l18-18zm35-35q-22-22-51-29.5t-57.5 0Q163 194 141 216l18 18q16-17 38.5-23t45.5 0q23 6 39 23l18-18zm-194 0l17-18q24-23 55-33t63-5.5q32 4.5 59 24.5v-1q0-34-22-56-20-21-56-29-5-24-21.5-42.5t-39-27.5Q139 19 114 21.5T68.5 38Q48 52 36.5 73.5T25 120q0 25 11 46-21 12-30.5 33.5T2 244q6 23 24.5 37.5T69 295h114l-77-79z"/></svg>