<svg viewBox="0 0 300 320" xmlns="http://www.w3.org/2000/svg"><path d="M295 137l-57-97q-5-9-14-14t-20-5H96q-11 0-20 5T62 40L5 137q-5 10-5 20.5T6 178l57 98q6 9 15 14.5t19 5.5h106q10 0 19-5.5t15-14.5l58-98q5-10 5-20.5t-5-20.5zm-25 8h-27l-37-62 14-25 50 87zm-86-75h-68l-14-25h96l-14 25zm-14 25l-20 37-20-37h40zm-41 50H87l21-37 21 37zm-1 25l-20 37-21-37h41zm22 13l21 37h-42l21-37zm-35 62h70l14 25h-98l14-25zm57-75h41l-21 37-20-37zm-1-25l21-37 22 37h-43zM80 58l14 25-36 62H30l50-87zM30 170h28l36 62-13 24-51-86zm189 86l-13-24 36-62h28l-51 86z"/></svg>