<svg viewBox="0 0 300 320" xmlns="http://www.w3.org/2000/svg"><path d="M225 158q-20 0-37.5 10T160 195.5Q150 213 150 233t10 37.5q10 17.5 27.5 27.5t37.5 10q20 0 37.5-10t27.5-27.5q10-17.5 10-37.5t-10-37.5Q280 178 262.5 168T225 158zm16 109l-28-29v-43h25v33l21 21-18 18zm-82 41H0V183h138q-13 23-13 50 0 22 9 41.5t25 33.5zm66-175q22 0 41.5 9t33.5 25V95q0-15-11-26t-27-11h-37V33q0-10-7.5-17.5T200 8H100q-10 0-17.5 7.5T75 33v25H38q-16 0-27 11T0 95v63h159q14-12 30.5-18.5T225 133zM100 33h100v25H100V33z"/></svg>