<svg viewBox="0 0 300 320" xmlns="http://www.w3.org/2000/svg"><path d="M300 208v100H200q-27 0-50-13.5T114 258q31 0 60-15l21 20q7 7 17.5 7.5T230 263l48-46-18-18-47 46-17-16q25-19 39.5-47t14.5-61q23 14 36.5 37t13.5 50zm-187 25H0V120q0-30 15-56t41-41Q82 8 112.5 8T169 23q26 15 41 41t15 56.5q0 30.5-15 56.5t-41 41q-26 15-56 15zm12-75h-25v26h25v-26zm24-69q-2-12-10-20t-20-10q-17-4-30.5 7.5T75 95h25q0-5 4.5-9t10.5-3q4 1 6.5 3.5t3.5 7q1 4.5-1 8t-5 4.5q-8 5-13.5 14.5T100 139v6h25v-6q0-3 2-6.5t4-4.5q10-5 15.5-16t2.5-23z"/></svg>