<svg viewBox="0 0 300 320" xmlns="http://www.w3.org/2000/svg"><path d="M300 212q0 15-12 33-9 15-25 31-12 12-26 23l-12 9-12-9q-14-11-25-23-17-16-26-31-12-18-12-33 0-17 11-29.5t27-12q16 .5 26.5 12T225 215q0-21 10.5-33t26.5-12q16 0 27 12.5t11 29.5zM238 45v106q-9 4-13 7-11-8-25-11v-14H100v25h51q-18 14-24 38h-27v24h26q3 22 20 47 14 19 35 37-1 3 0 4H0V45q0-15 11-26T38 8h162q16 0 26.5 11T237 46l1-1zM75 208q0-8-5.5-13.5T56 189q-8 0-13 5.5T38 208q0 8 5 13.5t13 5.5q8 0 13.5-5.5T75 208zm0-63q0-7-5.5-12.5T56 127q-8 0-13 5.5t-5 13q0 7.5 5 13t13 5.5q8 0 13.5-5.5T75 146v-1zm0-62q0-8-5.5-13.5T56 64q-8 0-13 5.5T38 83q0 8 5 13.5t13 5.5q8 0 13.5-5.5T75 83zm125-13H100v25h100V70z"/></svg>