<svg viewBox="0 0 300 320" xmlns="http://www.w3.org/2000/svg"><path d="M275 270q0 16-11 27t-26.5 11q-15.5 0-26.5-11t-11-26.5q0-15.5 11-26.5t26.5-11q15.5 0 26.5 11t11 26zm0-112H25L1 57q-2-8 .5-16.5t8-14.5q5.5-6 14-8.5T40 17l5 1q9 2 18 2 21 1 37-12 24 11 50 12 26-1 50-12 18 9 37 12 9 0 18-2l5-1q9-2 17 .5t14 9q6 6.5 8 14.5t0 17l-24 100zM113 45H88v88h25V45zm100 0h-25v88h25V45zM63 233q-16 0-27 11t-11 26.5Q25 286 36 297t26.5 11Q78 308 89 297t11-26.5q0-15.5-11-26.5t-26-11zm-38-50v38q14-11 31.5-12.5T90 215q16 8 25.5 23t9.5 32h50q0-17 9.5-32t25.5-23q16-8 33.5-6.5T275 221v-38H25z"/></svg>