<svg viewBox="0 0 300 320" xmlns="http://www.w3.org/2000/svg"><path d="M300 70q0-15-11-26t-27-11h-37V8h-25v25H100V8H75v25H38q-16 0-27 11T0 71v37h300V70zM125 233q0-27 13.5-50t36.5-36.5q23-13.5 50-13.5H0v175h159q-16-14-25-33.5t-9-41.5zm175 0q0 20-10 37.5T262.5 298Q245 308 225 308t-37.5-10Q170 288 160 270.5T150 233q0-20 10-37.5t27.5-27.5q17.5-10 37.5-10t37.5 10q17.5 10 27.5 27.5t10 37.5zm-100-25q0 10 7.5 17.5T225 233q10 0 17.5-7.5T250 208q0-10-7.5-17.5T225 183q-10 0-17.5 7.5T200 208zm-12 56v2q7 8 16.5 12.5T225 283q11 0 20.5-4.5T262 266v-2q0-8-5-13.5t-13-4.5h-38q-8 0-13.5 5t-5.5 13h1z"/></svg>