<svg viewBox="0 0 300 320" xmlns="http://www.w3.org/2000/svg"><path d="M150 8q-41 0-75.5 20T20 82.5Q0 117 0 158q2 57 33 95 29 35 73 47.5t88 0q44-12.5 73-47.5 31-38 33-95 0-41-20-75.5T225.5 28Q191 8 150 8zm44 100q8 0 13.5 5.5T213 127q0 8-5.5 13.5t-13.5 5q-8-.5-13.5-5.5t-5.5-13q0-8 5.5-13.5T194 108zm-94 125q-10 0-17.5-7.5t-7.5-17q0-9.5 6-21.5 5-8 13-17l6-7 6 7q8 9 13 17 6 12 6 21.5t-7.5 17Q110 233 100 233zm6-88q-8 0-13-5t-5-13q0-8 5-13.5t13-5.5q8 0 13.5 5.5T125 127q0 8-5.5 13.5T106 146v-1zm98 85q-23-20-54-22 0-13-6-25 12-1 27 3 12 3 25 9 10 5 17.5 10.5l7.5 5.5-17 19z"/></svg>