<svg viewBox="0 0 300 320" xmlns="http://www.w3.org/2000/svg"><path d="M288 120h12V95h-12q-20 0-35.5 11T230 135q-18-13-37-19l14-21q18 0 30.5-12.5T250 52q0-18-13-31T206 8q-18 0-30.5 13T163 52q0 11 5 20.5T182 88l-14 21q-9-1-18-1t-17 1l-14-21q8-6 13.5-15.5T138 52q0-18-13-31T94 8Q76 8 63 21T50 52q0 18 13 30.5T94 96l13 20q-19 6-37 19-7-18-22.5-29T12 95H0v25h13q13 0 24 9.5T50 152q-6 6-10 11l-6 7 6 8q8 11 22 22v27q1 8-4.5 13.5T44 246q-8 0-13.5-5.5T25 227v-6H0v6q0 18 13 31t31 13q18 0 31-13t13-31v-10q12 6 24 10v19q1 15-10 26t-27 11v25q17 0 31.5-8.5t23-23Q138 262 137 246v-14q7 1 13 1t12-1v14q0 16 8.5 30.5t23 23Q208 308 225 308v-25q-16 0-26.5-11T188 246v-19q12-4 24-10v10q0 18 13 31t31 13q18 0 31-13t13-31v-6h-25v6q0 8-5.5 13.5T256 246q-8 0-13-5.5t-5-13.5v-27q14-11 22-22l6-8-6-7q-4-5-10-11 2-13 13-22.5t25-9.5zm-82-87q8 0 13.5 5.5T225 52q0 8-5.5 13.5T206 71q-8 0-13-5.5T188 52q0-8 5-13.5t13-5.5zM75 52q0-8 5.5-13.5T94 33q8 0 13 5.5t5.5 13.5q.5 8-5 13T94 70.5q-8 .5-13.5-5T75 52z"/></svg>