<svg viewBox="0 0 300 320" xmlns="http://www.w3.org/2000/svg"><path d="M263 133H88V83h62V45q0-15-11-26T113 8H38Q22 8 11 19T0 46v37h63v50H38q-16 0-27 11T0 170v75h300v-75q0-15-11-26t-27-11h1zM75 208q-5 0-8.5-3.5t-3.5-9q0-5.5 3.5-9T75 183q5 0 9 3.5t4 9q0 5.5-4 9t-9 3.5zm50 0q-5 0-8.5-3.5t-3.5-9q0-5.5 3.5-9t8.5-3.5q5 0 8.5 3.5t4 9q.5 5.5-3.5 9t-9 3.5zm50 0q-5 0-8.5-3.5t-3.5-9q0-5.5 3.5-9t8.5-3.5q5 0 9 3.5t4 9q0 5.5-4 9t-9 3.5zm50 0q-5 0-8.5-3.5t-3.5-9q0-5.5 3.5-9t8.5-3.5q5 0 8.5 3.5t3.5 9q0 5.5-3.5 9T225 208zM0 270h300v38H0v-38z"/></svg>