<svg viewBox="0 0 300 320" xmlns="http://www.w3.org/2000/svg"><path d="M163 245V45l56 57 17-18-68-69q-8-7-18-7t-18 7L64 84l17 18 57-57v200h25zm6 44q0 8-5.5 13.5T150 308q-8 0-13.5-5.5T131 289q0-8 5.5-13.5T150 270q8 0 13.5 5.5T169 289zm44-19q-8 0-13.5 5.5T194 289q0 8 5.5 13.5t13 5.5q7.5 0 13-5.5T231 289q0-8-5.5-13.5T213 270zm62 0q-8 0-13.5 5.5T256 289q0 8 5.5 13.5T275 308q8 0 13.5-5.5T294 289q0-8-5.5-13.5T275 270zm-187 0q-8 0-13.5 5.5T69 289q0 8 5.5 13.5t13 5.5q7.5 0 13-5.5T106 289q0-8-5.5-13.5T88 270zm-63 0q-8 0-13.5 5.5T6 289q0 8 5.5 13.5T25 308q8 0 13.5-5.5T44 289q0-8-5.5-13.5T25 270z"/></svg>