<svg viewBox="0 0 300 320" xmlns="http://www.w3.org/2000/svg"><path d="M213 8q-24 0-44 12t-32 32q-12 20-12 43.5t12 43.5q12 20 32 32t43.5 12q23.5 0 43.5-12t32-32q12-20 12-43.5T288 52q-12-20-32-32T212 8h1zm50 87q0 21-15 35.5T212.5 145q-20.5 0-35-14.5T163 95V45l25 20q11-7 24.5-7t24.5 7l26-20v50zM56 39l13-25 12 25 25 13-25 12-12 25-13-25-25-12 25-13zm244 244v25h-75v-13q0-20-10-37t-27.5-27.5Q170 220 150 220v25q21 0 35.5 15t14.5 35v13H82q-21 0-39.5-8.5t-30.5-24Q0 260 0 239q0-17 7-35 4-10 15-27 8-13 11-19 5-10 5-19 0-14-7-21-9-10-31-10V83q36 0 52 20 11 14 10 36 1 14-5 27-4 9-14 24-9 15-12 23-6 13-6 26 0 16 12 27 9 10 25 14 1-24 9-50 14-44 48-71 16 22 40.5 35.5T213 208q34 0 62-19v94h25z"/></svg>