<svg viewBox="0 0 300 320" xmlns="http://www.w3.org/2000/svg"><path d="M257 22Q235 8 208.5 8T161 21.5Q140 35 129 56q-7 13-17.5 21.5T89 89q-23 4-42 17.5T15.5 141Q3 162 .5 187t6 48.5Q15 259 34 277q15 15 35 23t42 8q50 0 93.5-28.5T274 203q26-48 26-104 0-23-11.5-43.5T257 22zM94 208q-8 0-13.5-5.5T75 189q0-8 5.5-13.5t13.5-5q8 .5 13.5 5.5t5 13q-.5 8-5.5 13.5T94 208zm112-13q-8 1-13.5-4.5T187 177q0-8 5.5-13.5T206 158q8 0 13.5 5.5T225 177q0 8-5.5 13.5T206 196v-1zm0-75q-8 1-13-4.5t-5.5-13.5q-.5-8 5-13.5T206 83q8 0 13.5 5.5T225 102q0 8-5.5 13.5T206 121v-1z"/></svg>