<svg viewBox="0 0 300 320" xmlns="http://www.w3.org/2000/svg"><path d="M300 145v13q0 43-22.5 79.5T217 293q-38 19-80.5 15T60 278q-34-26-49.5-65.5T3 131l1-11h24l1 11q4 27 17 43 16 21 45 22 23-1 41-14.5t18-36.5q0-25 15-45 6 20 22.5 32.5T225 145q21 0 37.5-12.5T285 100q15 20 15 46v-1zm-90-73q-12 3-22 8v3q0 16 10.5 26.5T225 120q16 0 27-10.5T263 83l-1-2q-12-8-27-10-5-30-23-48-16-15-37-15v25q11 0 21 10.5T210 72zM63 113v20h25v-20q0-23-17-39-9-9-8-21V33H38v20q-1 23 16 39 9 9 8 21h1zm50-12v19h25v-19q0-23-17-39-9-9-9-22V20H88v20q-1 23 16 39 9 9 9 22z"/></svg>