<svg viewBox="0 0 300 320" xmlns="http://www.w3.org/2000/svg"><path d="M88 45q-13 0-25 4V8h175v41q-13-4-25-4H88zm125 25H88q-17 1-31.5 9t-23 22.5Q25 116 25 133v137q0 16 11 27t27 11h47q-11-6-15-10-6-5-10-26-3-11-4-20l10 1q12 2 21 5 12 4 16 8 7 7 9 20v-34l-18-8q-18-9-23-14t-9-17q-2-8-4-20l-2-10 10 2q12 2 21 4 12 4 16 8 7 7 9 20v-33q-14-18-14-27 0-6 7-20 5-11 13-24l7-11 7 11q8 13 13 24 7 14 7 20 0 9-15 27v29q3-10 9-16 4-4 17-8 8-2 20-4l11-2-2 10q-2 13-5 21-4 13-8 17-9 9-42 22v33q3-13 10-20 6-6 27-11 10-2 20-3l-2 10q-2 12-5 20-3 12-7 16t-15 10h48q15 0 26-11t11-27V133q0-17-8.5-31.5t-23-23Q229 70 212 70h1z"/></svg>