<svg viewBox="0 0 300 320" xmlns="http://www.w3.org/2000/svg"><path d="M283 88q-40 20-133 20T17 88Q0 121 0 158q0 41 20 75.5T74.5 288q34.5 20 75.5 20t75.5-20q34.5-20 54.5-54.5t20-75.5q0-37-17-70zm-183 45q16 0 27 15.5t11 34.5h-25q-1-9-5.5-17t-7.5-8q-3 0-7.5 8T88 183H63q-1-19 10-34.5t27-15.5zm50 125q-24 0-49-14-13-7-22-14l17-19q6 5 16 11 20 11 38 11t38-11q10-6 16-11l17 19q-9 7-22 14-25 14-49 14zm63-75q-1-9-5.5-17t-7.5-8q-3 0-7.5 8t-4.5 17h-25q0-19 10.5-34.5T200 133q16 0 27 15.5t11 34.5h-25zM150 83q-26 0-50-2-37-3-59-10-28-10-28-25.5T41 20q22-7 59-10 24-2 50-2t50 2q37 3 59 10 29 10 29 25.5T259 71q-22 7-59 10-24 2-50 2zM44 45q13 5 38 9 31 4 68 4t68-4q25-4 38-8-13-5-38-9-31-4-68-4t-68 4q-25 4-38 9v-1z"/></svg>