<svg viewBox="0 0 300 320" xmlns="http://www.w3.org/2000/svg"><path d="M25 52q0-18 13-31T69 8q18 0 31 13t13 31q0 18-13 30.5T69 95q-18 0-31-12.5T25 52zm173 43q18 0 30.5-12.5T241 52q0-18-12.5-31T198 8q-18 0-31 13t-13 31q0 18 13 30.5T198 95zm-14 13q16 19 16 44v6h63v-13q0-15-11-26t-27-11h-41zm66 125v-50h-25v50h-50v25h50v50h25v-50h50v-25h-50zM131 108q-18 0-30.5 13T88 152q0 18 12.5 30.5T131 195q18 0 31-12.5t13-30.5q0-18-13-31t-31-13zM63 245v38h87v-75h-50q-16 0-27 11t-11 26h1zm0-93q0-25 15-44H38q-16 0-27 11T0 146v37h70q-8-15-8-31h1z"/></svg>