<svg viewBox="0 0 300 320" xmlns="http://www.w3.org/2000/svg"><path d="M150 8q-41 0-75.5 20T20 82.5Q0 117 0 158t20 75.5Q40 268 74.5 288t75.5 20q41 0 75.5-20t54.5-54.5q20-34.5 20-75.5t-20-75.5Q260 48 225.5 28T150 8zm108 87h-40q-13-29-36-58 24 7 44 22t32 36zm-2 32l-4 53q-1 4-3.5 7t-6.5 3q-4 0-7-5l-10-20-10 20q-3 5-7 5t-6.5-3q-2.5-3-3.5-7l-4-53h13l3 40 15-30 15 30 3-40h13zM150 278q-25-27-40-58h80q-15 31-40 58zm-31-151h13l4 40 15-30 15 30 3-40h13l-5 53q0 4-2.5 7t-6.5 3q-4 0-7-5l-10-20-11 20q-2 5-6.5 5t-7-3q-2.5-3-2.5-7l-5-53zm-9-32q15-30 40-57 25 27 40 58h-80v-1zm7-58Q95 66 82 95H42q12-21 32-36t43-22zm-11 90l-4 53q-1 4-3.5 7t-6.5 3q-4 0-7-5l-10-20-10 20q-3 5-7 5t-6.5-3q-2.5-3-3.5-7l-4-53h13l3 40 15-30 15 30 3-40h13zm-64 93h40q13 30 35 59-24-7-43.5-22T42 220zm141 59q22-29 35-59h40q-12 22-31.5 37T183 279z"/></svg>