<svg viewBox="0 0 300 320" xmlns="http://www.w3.org/2000/svg"><path d="M281 274l19 17q-7 8-17 12.5t-20.5 4.5q-10.5 0-20.5-4.5T225 291q-7 8-17 12.5t-20.5 4.5q-10.5 0-20.5-4.5T150 291q-7 8-17 12.5t-20.5 4.5q-10.5 0-20.5-4.5T75 291q-7 8-17 12.5T37.5 308Q27 308 17 303.5T0 291l19-17q5 6 12.5 8t14.5-1q7-3 11.5-9t4.5-14h26q-1 10 6.5 17.5t18 7.5q10.5 0 17.5-7.5t7-17.5h26q-1 10 6.5 17.5t18 7.5q10.5 0 17.5-7.5t7-17.5h26q0 8 4.5 14t11.5 9q7 3 14.5 1t12.5-8zm-18-29q10 0 20-4t17-13l-19-16q-5 6-12.5 7.5t-14.5-1q-7-2.5-11.5-9T238 195h-25q0 21 14.5 35.5T263 246v-1zM88 195H63q-1 8-5.5 14.5t-11.5 9q-7 2.5-14.5 1T19 212L0 228q10 12 25 15.5t29.5-2Q69 236 78 223.5T88 195zm62 38q19 0 33-12.5t16-31q2-18.5-8-34T163 135V83h50V58h-50V33h50V8h-75v127q-19 5-29 20.5t-8 34q2 18.5 16 31t33 12.5z"/></svg>