<svg viewBox="0 0 300 320" xmlns="http://www.w3.org/2000/svg"><path d="M275 183v-13q0-20-14.5-35T225 120q-21 0-35.5 15T175 170v13h-25v87q0 16 11 27t27 11h75q15 0 26-11t11-27v-87h-25zm-75-13q0-10 7.5-17.5T225 145q10 0 17.5 7.5T250 170v13h-50v-13zm38 88h-25v-25h25v25zM100 58q0-21-14.5-35.5T50 8Q29 8 14.5 22.5T0 58v37q0 21 14.5 35.5T50 145q21 0 35.5-14.5T100 95V58zM75 95q0 11-7.5 18T50 120q-10 0-17.5-7T25 95V58q0-10 7.5-17.5T50 33q10 0 17.5 7.5T75 58v37zm-14 75l2 13v125H38v-95l-20 20-18-18 44-45h17zM163 50l-20 20-18-17 44-45h17l2 12v86q-15 8-25 24V50zm-38 220q0 20 11 36-16-5-26-18t-10-30v-38q0-13 7-24.5t18-18.5v93z"/></svg>