<svg viewBox="0 0 300 320" xmlns="http://www.w3.org/2000/svg"><path d="M300 168v27h-29l-6 43q-2 14-12.5 23t-24.5 9h-28v38H38v-59q0-9-6-16-18-21-26-47t-5-53q2-31 18.5-58t42-44Q87 14 118 9q38-5 72.5 9.5T248 63q9 12 21 36 7 15 22 48l9 21zm-87-35h-27q-2-6-5-13l12-12h1q8 0 13.5-5.5T213 89q0-8-5.5-13.5T194 70q-8 0-13.5 5.5T175 89v1l-12 12q-6-3-13-5V70h-25v27q-6 2-13 5l-12-12v-1q0-8-5.5-13.5T81 70q-8 0-13.5 5.5T62 89q0 8 5.5 13.5T81 108h1l13 12q-4 6-6 13H63v25h26q2 6 6 13l-13 12h-1q-8 0-13.5 5.5T62 202q0 8 5.5 13.5T81 221q8 0 13.5-5.5T100 202v-1l12-13q6 4 13 6v26h25v-26q6-2 13-6l12 13v1q0 8 5.5 13.5T194 221q8 0 13.5-5.5T213 202q0-8-5.5-13.5T194 183h-1l-12-12q3-6 5-13h27v-25zm-75 37q10 0 17.5-7t7.5-17.5q0-10.5-7.5-18t-18-7.5q-10.5 0-17.5 7.5t-7 18q0 10.5 7 17.5t18 7z"/></svg>