<svg viewBox="0 0 300 320" xmlns="http://www.w3.org/2000/svg"><path d="M194 239l17 18-43 44q-8 7-18 7t-18-7l-43-44 17-18 32 31v-75h25v75l31-31zM25 145q-5 1-8.5 4.5T13 158q0 5 3.5 8.5T25 170q5 0 9-3.5t4-8.5q0-5-4-9t-9-3v-1zm50 0q-5 0-8.5 4t-3.5 9q0 5 3.5 8.5T75 170q5 0 9-3.5t4-8.5q0-5-4-8.5t-9-3.5v-1zm63 13q0-5-4-8.5t-9-4q-5-.5-8.5 3.5t-3.5 9q0 5 3.5 8.5t8.5 3.5q5 0 8.5-3.5t3.5-8.5h1zm50 0q0-5-4-8.5t-9-4q-5-.5-8.5 3.5t-3.5 9q0 5 3.5 8.5t8.5 3.5q5 0 8.5-3.5t3.5-8.5h1zM132 15L89 59l17 18 32-32v75h25V45l31 32 17-18-43-44q-8-7-18-7t-18 7zm143 130q-5 0-8.5 4t-3.5 9q0 5 3.5 8.5t8.5 3.5q5 0 9-3.5t4-8.5q0-5-4-8.5t-9-3.5v-1zm-50 0q-5 0-8.5 4t-3.5 9q0 5 3.5 8.5t8.5 3.5q5 0 8.5-3.5t3.5-8.5q0-5-3.5-8.5T225 146v-1z"/></svg>