<svg viewBox="0 0 300 320" xmlns="http://www.w3.org/2000/svg"><path d="M235 168q5-10 0-20-4-8-14-19-13-14-29-22-20-12-42-12t-42 12q-16 8-29 22-10 11-14 19-5 10 0 20 4 8 14 19 13 14 29 22 20 11 42 11t42-11q16-8 29-22 10-11 14-19zm-85 15q-10 0-17.5-7.5T125 158q0-10 7.5-17.5T150 133q10 0 17.5 7.5T175 158q0 10-7.5 17.5T150 183zM45 70L1 26 18 9l45 44V20h25v50q0 11-7.5 18T63 95H13l-1-25h33zm168 1l-1-50 25-1 1 33 44-44 17 17-44 45 33-1v25h-50q-11 0-18-7t-7-17zM87 245v50H62v-32l-44 44-17-17 44-45H12l1-25 50 1q10 0 17.5 7t7.5 17h-1zm168 0l44 45-17 17-45-44v33l-25-1 1-50q0-10 7-17.5t17-7.5h50v25h-32z"/></svg>