<svg viewBox="0 0 300.0079 320" xmlns="http://www.w3.org/2000/svg"><path d="M58.008 212q-6-7-7.5-19.5t3.5-28.5q10-34 39-63 16-16 34-26.5t36-14.5q13-3 24-1.5t17.5 8q6.5 6.5 7.5 19.5t-3 28q-10 34-39 64-16 15-34.5 26t-35.5 15q-9 1-16 1-17 0-26-8zm242-58q0 30-11.5 58.5t-33.5 50.5q-22 22-50.5 33.5t-59 11.5q-30.5 0-59-11.5t-50.5-33.5l-16-17q-18-20-20-51t13.5-65q15.5-34 45-63.5t63.5-45q34-15.5 65-13.5t51 21l17 15q22 22 33.5 50.5t11.5 59.5zm-260 76q15 15 40 15.5t53.5-13q28.5-13.5 53-38t38-53q13.5-28.5 13-53.5t-15-40q-14.5-15-40-15t-54 13.5q-28.5 13.5-52.5 37.5t-37.5 53q-13.5 29-13.5 54t15 39z"/></svg>