<svg viewBox="0 0 300 320" xmlns="http://www.w3.org/2000/svg"><path d="M200 308h-25v-63h25v63zm50-63h-25v63h25v-63zm-100 0h-25v63h25v-63zm150-25q0 15-6.5 28.5T275 271v-25q0-11-7.5-18.5T250 220H125q-10 0-17.5 7.5T100 245v31q-13-8-19.5-21.5T76 226q2-15 12-26.5t25-14.5q1-25 17-41.5t38-21q22-4.5 43 4.5t32 31q24 2 40.5 20t16.5 42zM250 33q-5 0-9 3.5t-4 9q0 5.5 4 9t9 3.5q5 0 8.5-3.5t4-9q.5-5.5-3.5-9t-9-3.5zm-50 37q-5 1-9 4.5t-3.5 8.5q.5 5 4 9t8.5 3.5q5-.5 9-4t4-8.5q0-5-4-9t-9-4zm75 38q-5 0-9 3.5t-3.5 9q.5 5.5 4 9t8.5 3.5q5 0 9-3.5t4-9q0-5.5-4-9t-9-3.5zM52 215q4-15 14-28t24-20q9-33 35-52v-1q0-21 11.5-40T167 44l19-11-19-11Q130 3 94 9q-33 5-57.5 28.5T3.5 94Q-5 127 6 158q12 35 46 58v-1z"/></svg>