<svg viewBox="0 0 300 320" xmlns="http://www.w3.org/2000/svg"><path d="M90 126q-10-9-22-13 9-10 18-19 37-37 76.5-59.5t72-25.5Q267 6 285 24q13 14 14.5 37t-9.5 52l-2 5q-8-13-18-22 6-19 5-33t-8.5-22q-7.5-8-24-8T204 42q-24 9-50 27t-51 43l-13 14zm64 116q-30 22-58 33-22 8-38.5 8T33 275q-10-10-8-32-12-3-23-11-8 40 13 61 16 15 42 15t57.5-14q31.5-14 64.5-40-14-4-25-12zM56 20q-8 0-13 5.5T38 39q0 8 5 13.5T56 58q8 0 13.5-5.5T75 39q0-8-5.5-13.5T56 20zm32 157q0-18-13-31t-31-13q-18 0-31 13T0 177q0 18 13 30.5T44 220q18 0 31-12.5T88 177zm131 93q-8 0-13.5 5.5T200 289q0 8 5.5 13.5T219 308q8 0 13.5-5.5t5-13.5q-.5-8-5.5-13.5t-13-4.5v-1zm62-37q-8 0-13.5 5.5t-5 13.5q.5 8 5.5 13t13 5q8 0 13.5-5t5.5-13q0-8-5.5-13.5T281 233zm-141-52q5 23 24 37.5t42.5 14.5q23.5 0 42-14.5T273 181q-35 15-67 14.5T140 181zm153-32q-9-4-22-8-7-20-25-32.5t-40-13q-22-.5-39.5 12.5T141 141q-13 4-22 8l-6 4v15l6 3q7 5 21 10-2-8-2-17v-11q35 17 68 17t68-17q1 6 1 11 0 9-2 17 13-5 21-10l6-4v-14l-7-4z"/></svg>