<svg viewBox="0 0 300 320" xmlns="http://www.w3.org/2000/svg"><path d="M25 245h225v25H0V133q0-12 7-21.5T25 98v147zm150-125q-5 0-8.5 4t-3.5 9q0 5 3.5 8.5t8.5 3.5q5 0 9-3.5t4-8.5q0-5-4-9t-9-4zm125-37v137H50V83q0-15 11-26.5T88 45h175q15 0 26 11.5T300 83zm-187 94q0-8-5.5-13.5T94 158q-8 0-13.5 5.5T75 177q0 8 5.5 13t13.5 5q8 0 13.5-5t5.5-13zm0-88q0-8-5.5-13.5T94 70q-8 0-13.5 5.5T75 89q0 8 5.5 13.5T94 108q8 0 13.5-5.5T113 89zm100 44q0-15-11.5-26.5T175 95q-15 0-26 11.5T138 133q0 15 11 26t26 11q15 0 26.5-11t11.5-26zm62 44q0-8-5.5-13.5T256 158q-8 0-13 5.5t-5 13.5q0 8 5 13t13 5q8 0 13.5-5t5.5-13zm0-88q0-8-5.5-13.5T256 70q-8 0-13 5.5T238 89q0 8 5 13.5t13 5.5q8 0 13.5-5.5T275 89z"/></svg>