<svg viewBox="0 0 300 320" xmlns="http://www.w3.org/2000/svg"><path d="M38 252q0 8-5.5 13T19 270q-8 0-13.5-5T0 252q0-8 5.5-13.5T19 233q8 0 13.5 5.5T37 252h1zm150 0v-44q-21-12-38-12.5T112 208v44q1 13-8.5 22T81 283H63v25h175v-25h-19q-13 0-22-9t-10-22h1zm112-94q0 28-10 54t-28 46h-43q-3 0-5-2t-2-4v-26l1 .5q-1-.5 0-.5l17-18q-10-10-25-19-29-19-55-19t-55 19q-15 9-25 19l18 18v26q0 2-2 4t-5 2H62v-6q1-18-12-31t-31-13q-5 0-10 1-9-25-9-51 0-41 20-75.5T74.5 28Q109 8 150 8t75.5 20Q260 48 280 82.5t20 75.5zm-161-38L95 86l-15 19 19 15-19 16 15 19 44-35zm62 0l19-15-15-19-44 34 44 35 15-19-19-16zm80 150q-8 0-13 5.5t-5 13.5q0 8 5 13.5t13 5.5q8 0 13.5-5.5T300 289q0-8-5.5-13t-13.5-5v-1z"/></svg>