<svg viewBox="0 0 300 320" xmlns="http://www.w3.org/2000/svg"><path d="M300 170v-25h-51q-2-13-7-26l44-26-13-21-44 25q-8-10-18-18l25-44-21-13-26 44q-13-5-26-7V8h-25v51q-14 2-27 7L86 22 64 35l26 43q-11 9-19 19L27 72 14 93l44 26q-5 13-7 26H0v25h51q2 14 7 27l-44 26 13 21 44-25q8 10 18 18l-25 44 21 13 26-44q13 5 27 7v51h25v-51q13-2 26-7l26 44 21-13-25-44q10-8 18-18l44 25 13-21-44-26q5-13 7-27h51zM150 95q16 1 30 8-21 13-27 34t3 41.5q9 20.5 29 31.5-16 11-36.5 10.5T112 208q-16-12-22-31.5t.5-38.5q6.5-19 23-31T150 96v-1z"/></svg>