<svg viewBox="0 0 300 320" xmlns="http://www.w3.org/2000/svg"><path d="M237 120h-37l12-25h25v25zm63 38q0 41-20 75.5T225.5 288Q191 308 150 308t-75.5-20Q40 268 20 233.5T0 158q0-41 20-75.5T74.5 28Q109 8 150 8t75.5 20Q260 48 280 82.5t20 75.5zM85 131l15-35-18-7-20 32 23 10zm175 86l-23-3-19-19h-18l-38-25h-31l-31 25v25l25 25 25 7v31q35 0 64.5-18t45.5-48zm8-17q7-20 7-42 0-34-17-62.5T212.5 50Q184 33 150 33h-7l-12 25 6 12 38-6v13l-44 18-19 44 13 19h12l19-25 19 19 12-7-6-18 19-7v19l37 13v12l-12 13 43 23z"/></svg>