<svg viewBox="0 0 300 320" xmlns="http://www.w3.org/2000/svg"><path d="M275 120V83q0-16-11-27t-27-10h-74V8h-25v37H63q-16 0-27 11T25 83v37H0v75h25v75h159l49 34q7 4 14.5 4t13.5-3.5q6-3.5 10-9.5t4-14v-86h25v-75h-25zm-81-12q8 0 13.5 5.5t5 13.5q-.5 8-5.5 13.5t-13 5q-8-.5-13.5-5.5t-5.5-13q0-8 5.5-13.5T194 108zm-88 0q8 0 13.5 5.5T125 127q0 8-5.5 13.5t-13.5 5q-8-.5-13.5-5.5t-5-13q.5-8 5.5-13.5t13-5.5zm44 112q-24 0-49-13-13-7-22-15l17-18q6 5 16 11 20 11 38 11t38-11q10-6 16-11l17 18q-9 8-22 15-25 13-49 13z"/></svg>