<svg viewBox="0 0 300 320" xmlns="http://www.w3.org/2000/svg"><path d="M268 208l-6 66q-1 14-11.5 24T225 308H73q-15 0-25.5-10T35 274l-5-70q6 13 18 21t27 8q11 0 20.5-4.5T113 216q7 8 16.5 12.5T150 233q11 0 20.5-4.5T187 216q8 8 17.5 12.5T225 233q14 0 25-6.5t18-18.5zm-118-75q8 0 13.5-5.5T169 114q0-5-5.5-14T150 82q-8 9-13.5 18t-5.5 14q0 8 5.5 13.5T150 133zM28 183L14 8h272l-16 175h-20q0 10-7.5 17.5T225 208q-10 0-17.5-7.5T200 183h-25q0 10-7.5 17.5T150 208q-10 0-17.5-7.5T125 183h-25q0 10-7.5 17.5T75 208q-10 0-17.5-7.5T50 183H28zm78-69q0 18 13 31t31 13q18 0 31-13t13-30q0-17-16-38-8-12-19-22l-9-8-9 8q-11 10-19 22-16 21-16 37z"/></svg>