<svg viewBox="0 0 300 320" xmlns="http://www.w3.org/2000/svg"><path d="M175 135q0 9-12 24-11 12-25 23-15-11-26-23-12-15-12-24 0-6 3.5-10.5t9-4.5q5.5 0 9 3.5t3.5 9.5h25q0-6 3.5-9.5t9-3.5q5.5 0 9 4.5T175 135zm125 33v27h-29l-6 43q-2 14-12.5 23t-24.5 9h-28v38H38v-59q0-9-6-16-18-21-26-47t-5-53q2-31 18.5-58t42-44Q87 14 118 9q38-5 72.5 9.5T248 63q9 12 21 36 7 15 22 48l9 21zm-100-33q0-16-11-28t-26-12q-15 0-25 10-11-10-26-10t-26 12q-11 12-11 28 0 21 24 47 14 14 31 26l8 5 7-5q17-12 31-26 24-26 24-47z"/></svg>