<svg viewBox="0 0 300 320" xmlns="http://www.w3.org/2000/svg"><path d="M26 158h249q10 0 17.5 7.5T300 183q0 10-7.5 17.5T275 208h-75q-23 0-44 8t-38 23q-8 6-18 6t-18-6q-26-23-61-29-9-2-15-9t-6-17.5q0-10.5 7.5-18T26 158zm-13-23v-15q0-30 15-56t40.5-41Q94 8 125 8h50q31 0 56.5 15T272 64q15 26 16 57v14q-7-2-13-2H26q-7 0-14 2h1zm75-77q0 5 3.5 8.5t8.5 4q5 .5 8.5-3.5t4-9q.5-5-3.5-9t-9-4q-5 0-8.5 4T88 58zM50 95q0 6 3.5 9.5t9 3.5q5.5 0 9-3.5t3.5-9q0-5.5-3.5-9t-9-3.5q-5.5 0-9 3.5T50 95zm225 138h-75q-18 0-35 6.5t-31 19Q120 271 100 271t-34-13q-22-19-49-23l-5-2v25q1 21 15.5 35.5T62 308h176q20 0 35-14.5t15-35.5v-27q-7 2-13 2z"/></svg>