<svg viewBox="0 0 300 320" xmlns="http://www.w3.org/2000/svg"><path d="M300 72l-19 13q-8 6-21 12-24 11-41 11h-6V83h-25v25h-38V83h-25v25H88V83H63v28q-28 5-55 17l-8 3v66l7 3q11 6 26 11 29 9 54 9h132q17 0 41 12 13 6 21 11l19 13V72zm-138 92q0 8-5 13.5t-13 5.5q-8 0-13.5-5.5T125 164q0-8 5.5-13.5T144 145q8 0 13 5.5t5 13.5zm-62 0q0 8-5.5 13.5T81 183q-8 0-13.5-5.5T62 164q0-8 5.5-13.5T81 145q8 0 13.5 5.5T100 164zm106-19q8 0 13.5 5.5T225 164q0 8-5.5 13.5T206 183q-8 0-13.5-5.5T187 164q0-8 5.5-13.5T206 145z"/></svg>