<svg viewBox="0 0 300 320" xmlns="http://www.w3.org/2000/svg"><path d="M113 70q0-9 9-25 7-11 18-25l10-12 10 12q11 14 18 25 9 16 10 26 0 15-11 26t-27 11q-16 0-27-11t-10-27zm89 30q13 10 28 7.5T254 93q6-7 8-26 1-14 0-31V20l-15 4q-17 4-29 10-18 7-23 14-9 12-7 27.5t14 24.5zm-104 0q12-9 14-24.5T105 48q-5-7-23-14-12-6-29-10l-15-4v16q-1 17 0 31 2 19 8 26 9 12 24 14.5t28-6.5v-1zm198 37q-4-8-11.5-12t-16.5-4H32q-9 0-16.5 4T4 136.5q-4 7.5-4 16T5 168q11 18 33 36 19 15 44 28 19 12 38 19 17 7 21 7-7-5-17-15-15-16-24-32-13-21-13-41h26q0 15 13 33 9 14 24 26 15-12 24-26 14-18 14-33h25q0 20-13 41-9 16-24 32-10 10-17 15h-18q-28 30-28 50h75q-3-21-18-38h30q10 0 17.5 7.5T225 296h25q0-21-14.5-36T200 245h-11q33-14 58-31 34-23 48-46 5-7 5-15.5t-4-15.5z"/></svg>