<svg viewBox="0 0 300 320" xmlns="http://www.w3.org/2000/svg"><path d="M281 45q-8 0-13 5.5T263 64v94h-25V39q0-8-5.5-13.5T219 20q-8 0-13.5 5.5T200 39v119h-25V27q0-8-5.5-13.5T156 8q-8 0-13.5 5.5T137 27v131h-24V53q-1-7-5-13t-12-7q-8-1-14.5 4.5T75 52v158l-33-33q-1-2-5-4-8-5-17.5-3t-15 9.5Q-1 187 0 196.5T8 213l92 95h200V64q0-8-5.5-13.5T281 45zM144 283q-8 0-13.5-5.5T125 264q0-8 5.5-13t13.5-5q8 0 13.5 5t5.5 13q0 8-5.5 13.5T144 283zm37-63q-8 0-13.5-5t-5-13q.5-8 5.5-13.5t13-5.5q8 0 13.5 5.5T200 202q0 8-5.5 13.5T181 221v-1zm25 63q-8 0-13.5-5.5t-5-13.5q.5-8 5.5-13.5t13-5.5q8 0 13.5 5.5T225 264q0 8-5.5 13.5T206 283zm38-63q-8 0-13.5-5t-5.5-13q0-8 5.5-13.5T244 183q8 0 13.5 5.5t5 13.5q-.5 8-5.5 13.5t-13 5.5v-1z"/></svg>