<svg viewBox="0 0 300 320" xmlns="http://www.w3.org/2000/svg"><path d="M244 308H56q-23 0-39.5-16.5T0 252q0-21 13.5-36.5T47 196q10-17 27.5-27.5t38-10.5q20.5 0 37.5 10 17-10 37.5-10t38 10.5Q243 179 253 196q20 4 33.5 19.5T300 252q0 23-16.5 39.5T244 308zM113 133q19 0 37 7 18-7 37-7 25 0 47 12 3-13 3-25 0-33-25-63-15-18-33-30L150 8l-3 5q-4 5-6 11-4 7-4 13t3 12q1 4 5 10 5 9 5 14 0 9-5.5 15.5T128 95q-11 0-16.5-6.5T106 74q0-8 6-22 4-7 7-13l-9 4q-11 6-19 13-13 11-20 25-9 18-9 39 0 12 4 25 22-12 46-12h1z"/></svg>