<svg viewBox="0 0 300.0075 320" xmlns="http://www.w3.org/2000/svg"><path d="M77 73q-2 8-2 16 0 19 10 35t27.5 25q17.5 9 37.5 9t37.5-9q17.5-9 27.5-25t10-35q0-8-2-16 3-2 6-5 9-11 8-26t-12-25q-11-10-26-9t-25 12l-2 4q-11-4-22-4t-22 4q-1-3-4-5Q113 8 98.5 8t-25 10.5Q63 29 63 44t10 25l4 4zm54 38q0-9 5.5-15.5T150 89q8 0 13.5 6.5T169 111h-38zM80 249q2 4 5 8 6 10 9 21 5 15 5 30H80q-19 0-35.5-8.5T17 277L7 264q-8-11-7-24t11-22q10-9 24.5-8T58 223l22 26zm213 15l-10 13q-11 14-27.5 22.5T220 308h-20q0-16 3-29 3-10 7-19 3-6 7-10l25-27q8-12 22.5-13t24.5 8q10 9 11 22t-7 24zm-118 44h-51q0-25-11-51-6-14-14-24l-21-25q-7-10-17.5-16T38 185h-6L7 148q-9-11-7-24.5T13 102q9-6 19-6.5t19 5.5q3 23 17 41.5t35.5 29.5q21.5 11 46.5 11t46.5-11q21.5-11 35.5-29.5t17-41.5q9-6 19.5-5.5T287 102q11 8 13 21.5t-7 24.5l-25 37h-6q-11 1-21.5 6.5T222 207l-20 22q-9 9-16 23-11 24-11 56z"/></svg>