<svg viewBox="0 0 300 320" xmlns="http://www.w3.org/2000/svg"><path d="M194 8q-8 0-13.5 5.5T175 27q0 8 5.5 13t13.5 5q8 0 13.5-5t5.5-13q0-8-5.5-13.5T194 8zm87 62q-8 1-13 6t-5 13q0 8 5 13.5t13 5.5q8 0 13.5-5.5T300 89q0-8-5.5-13T281 70zm-87 38h29L281 8h-29l-58 100zm-50-38q0 11-10 19.5T107.5 103q-16.5 5-36 5t-36-5Q19 98 9.5 89.5T0 70.5q0-10.5 9.5-19t26-13.5q16.5-5 36-5t36 5Q124 43 134 51.5T144 71v-1zm0 169v25q0 19-20.5 31.5T72 308q-31 0-51.5-12.5T0 264v-25q0 19 20.5 31.5T72 283q31 0 51.5-12.5T144 239zm0-50v25q0 19-20.5 31.5T72 258q-31 0-51.5-12.5T0 214v-25q0 19 20.5 31.5T72 233q31 0 51.5-12.5T144 189zm0-50v25q0 19-20.5 31.5T72 208q-31 0-51.5-12.5T0 164v-25q0 19 20.5 31.5T72 183q31 0 51.5-12.5T144 139zm0-50v25q0 19-20.5 31.5T72 158q-31 0-51.5-12.5T0 114V89q0 19 20.5 31.5T72 133q31 0 51.5-12.5T144 89zm144 81q0 11-10 19.5T251.5 203q-16.5 5-36 5t-36-5q-16.5-5-26-13.5t-9.5-19q0-10.5 9.5-19t26-13.5q16.5-5 36-5t36 5q16.5 5 26.5 13.5t10 19.5v-1zm0 69v25q0 19-21 31.5T215.5 308q-30.5 0-51-12.5T144 264v-25q0 19 20 31.5t51.5 12.5q31.5 0 51.5-12.5t20-31.5h1zm0-50v25q0 19-21 31.5T215.5 258q-30.5 0-51-12.5T144 214v-25q0 19 20 31.5t51.5 12.5q31.5 0 51.5-12.5t20-31.5h1z"/></svg>