<svg viewBox="0 0 300 320" xmlns="http://www.w3.org/2000/svg"><path d="M163 83H63V39q0-13 9-22t22-9h37q13 0 22 9t10 22v44zm37-19q0 8 5.5 13.5T219 83q8 0 13.5-5.5T238 64q0-8-5.5-13.5t-13.5-5q-8 .5-13.5 5.5T200 64zm50-37q0 8 5.5 13t13.5 5q8 0 13.5-5t5.5-13q0-8-5.5-13.5T269 8q-8 0-13.5 5.5T250 27zm0 75q0 8 5.5 13.5t13.5 5q8-.5 13.5-5.5t5.5-13q0-8-5.5-13.5T269 83q-8 0-13.5 5.5T250 102zm-94 6H69q-24 0-40.5 16.5T13 164v144h200V164q0-23-16.5-39.5T156 108zm-43 150q-21 0-35.5-14.5T63 208q0-21 14.5-35.5t35-14.5q20.5 0 35.5 14.5t15 35.5q0 21-15 35.5T112 258h1zm0-75q-11 0-18.5 7.5t-7 17.5q.5 10 7.5 17.5t17.5 7.5q10.5 0 18-7.5T138 208q0-10-7.5-17.5T113 183z"/></svg>