<svg viewBox="0 0 300 320" xmlns="http://www.w3.org/2000/svg"><path d="M175 270h-22l11 20-22 13-11-19-11 19-21-13 11-20H88v-25h21l-10-18 21-13 11 19 11-19 22 13-11 18h22v25zm125-106q0 26-12.5 47.5t-34 34Q232 258 206 258h-6q-1-26-14.5-43t-34-22.5q-20.5-5.5-40.5 0T77 215q-14 17-14 43-23 0-38.5-14T3 209q-6-21 .5-42T28 134q-8-35 4-65 11-26 36-42.5t54.5-18Q152 7 177 22q27 16 41 49 23 3 42 16t29.5 33.5Q300 141 300 164zm-75-37h-22l11-19-22-13-11 20-11-20-21 13 11 19h-22v25h22l-11 19 21 13 11-19 11 19 22-13-11-19h22v-25z"/></svg>