<svg viewBox="0 0 300 320" xmlns="http://www.w3.org/2000/svg"><path d="M256 52L45 264q21 21 48.5 32.5t57 11.5q29.5 0 57-11.5T256 264q29-29 39-67.5t0-77Q285 81 256 52zm-91 196l-18-18 75-75 18 18-75 75zm-46-96q-8-13-6.5-29t13-27q11.5-11 27-12.5T181 90l-62 62zm-69 12l2 6q2 6 6 13 6 10 13 19l-39 40q-9-7-16-13Q2 214 .5 193T11 155q-6-13-3-27.5T22 102q4-4 9-7 0-23 16.5-39.5T87 39q3-5 7-9 10-11 25-14t28 3q15-11 33-11 24 0 40 17 6 6 13 15l-33 33q-19-15-44-15-18 0-34 9.5t-25.5 25Q87 108 87 127q1 16 8 30-11 0-23 2-8 1-16 3l-6 2z"/></svg>