<svg viewBox="0 0 300.0021 320" xmlns="http://www.w3.org/2000/svg"><path d="M62 190q8-16 6-37-2-18-11.5-29.5T33 112l-7 1-1-5q0-10 3-22l3-9-8 5Q13 89 7 97q-8 12-7 23 0 8 3 14-4 12-3 27 2 19 13 33t24 14h3q14-2 22-18zm44-45q2 0 3-1 16-1 25-18.5t7-40.5q-3-21-13.5-33.5T102 39h-2q0-10 3-21l3-10-8 5q-10 7-16 15-8 12-7 24l-2 3q-9 15-7 37t14 37.5Q92 145 106 145zm87-1h2q15 0 26.5-15t14-37q2.5-22-6.5-37-2-3-5-6 0-15-15-30-8-7-16-11l3 10q4 11 3 21-15 0-25.5 12.5T161 85q-2 23 7 40.5t25 18.5zm-43 26q-25 0-48 14.5t-37.5 37Q50 244 50 269q0 16 8 26 10 13 32 13 9 0 27-6 10-3 16-4 9-3 17-2.5t17 2.5q6 1 16 4 18 6 27 6 22 0 32-13 8-10 8-26 0-25-14.5-47.5T198 185q-23-14-48-15zm150-50q1-11-7-23-6-8-16-15l-8-5 3 9q3 12 3 22l-1 5-3-1q-16-2-26.5 10T232 154.5q-2 20.5 6.5 36T260 208h3q13 0 24-13.5t13-33.5q1-15-3-27 2-6 3-13v-1z"/></svg>