<svg viewBox="0 0 300 320" xmlns="http://www.w3.org/2000/svg"><path d="M100 308H0V95q0-15 11-26t27-11h25q15 0 26 11t11 26v213zm25-175v175h175V133H125zm56 137q-8 0-13-5t-5-13q0-8 5-13.5t13-5.5q8 0 13.5 5.5T200 252q0 8-5.5 13t-13.5 5zm0-62q-8 0-13-5.5t-5-13.5q0-8 5-13.5t13-5.5q8 0 13.5 5.5T200 189q0 8-5.5 13.5T181 208zm63 62q-8 0-13.5-5t-5.5-13q0-8 5.5-13.5T244 233q8 0 13.5 5.5T263 252q0 8-5.5 13t-13.5 5zm0-62q-8 0-13.5-5.5T225 189q0-8 5.5-13.5T244 170q8 0 13.5 5.5T263 189q0 8-5.5 13.5T244 208zM225 83V8h-62q-16 0-27 11t-11 26v63h175V83h-75zm25-74v49h49L250 9z"/></svg>