<svg viewBox="0 0 300 320" xmlns="http://www.w3.org/2000/svg"><path d="M167 158l132 132-17 17L1 26 18 9l132 131 9-9q-22-37-22-52 0-10 16-36 7-12 15-22l8 11q10 14 15 24 8 16 8 23t-2 14l15-15q0-35 10-45 7-6 27-13 14-5 34-9l16-3-3 17q-4 19-9 34-6 20-12 26-11 10-45 10l-15 15q7-2 14-2t22 8q11 6 25 15l11 8-11 8q-14 10-25 15-15 9-23 8-15 0-51-22l-10 10zm-93-16q0 15 23 51l-25 25q2-7 2-14 0-10-15-36-8-12-16-22l-8 11q-9 14-15 24-8 16-8 23 0 15 22 52L0 290l18 17 34-34q36 23 51 23 11 0 36-16 13-8 23-16l-11-8q-14-9-25-15-15-8-22-8t-14 2l24-24q37 22 52 22 2 0 5-1l-96-96q-1 4-1 6z"/></svg>