<svg viewBox="0 0 300 320" xmlns="http://www.w3.org/2000/svg"><path d="M175 158q0 10-7.5 17.5T150 183q-10 0-17.5-7.5T125 158q0-10 7.5-17.5T150 133q10 0 17.5 7.5T175 158zm75 150H50V58h200v250zm-137-44q0-8-5.5-13.5T94 245q-8 0-13.5 5.5T75 264q0 8 5.5 13.5T94 283q8 0 13.5-5.5T113 264zm85-93q5-18-3-34.5t-24-24q-16-7.5-34-2.5-13 3-22.5 12.5T102 144q-5 19 3 35t24 24q16 8 35 3 12-3 21.5-12.5T198 172v-1zm27 93q0-8-5.5-13.5T206 245q-8 0-13 5.5t-5 13.5q0 8 5 13.5t13 5.5q8 0 13.5-5.5T225 264zm75-219q0-15-11-26T263 8H38Q22 8 11 19T0 45v75h25V45q0-5 3.5-8.5T38 33h225q5 0 8.5 3.5T275 45v75h25V45z"/></svg>