<svg viewBox="0 0 300 320" xmlns="http://www.w3.org/2000/svg"><path d="M150 170q0 11-10 19.5T112.5 203Q95 208 75 208t-37.5-5Q20 198 10 189.5t-10-19q0-10.5 10-19T37.5 138q17.5-5 37.5-5t37.5 5q17.5 5 27.5 13.5t10 19.5v-1zm0 69v25q0 13-10 23t-27 15.5Q96 308 75 308t-38-5.5Q20 297 10 287T0 264v-25q0 19 21 31.5T75 283q33 0 54-12.5t21-31.5zm0-50v25q0 13-10 23t-27 15.5Q96 258 75 258t-38-5.5Q20 247 10 237T0 214v-25q0 19 21 31.5T75 233q33 0 54-12.5t21-31.5zM138 83q-14 0-26 7t-18 19q34 4 56.5 19.5T175 166q13-14 12.5-34t-15-34.5Q158 83 137 83h1zm162-13V45q0-15-11-26T262 8H38Q22 8 11 19T0 45v83q26-18 67-20 8-22 27-36t44-14q20 0 37 10t27 27.5q10 17.5 10.5 37.5t-10 37.5Q192 188 175 198v60h75v25h25v-25h25v-63h-37v-25h37V95h-37V70h37z"/></svg>