<svg viewBox="0 0 300 320" xmlns="http://www.w3.org/2000/svg"><path d="M150 8q-41 0-75.5 20T20 82.5Q0 117 0 158t20 75.5Q40 268 74.5 288t75.5 20q41 0 75.5-20t54.5-54.5q20-34.5 20-75.5t-20-75.5Q260 48 225.5 28T150 8zM73 122l-21-13q17-28 49-41l10 23q-25 10-38 31zm15 17q0-8 5-13.5t13-5q8 .5 13.5 5.5t5.5 13q0 8-5.5 13.5T106 158q-8 0-13.5-5.5T87 139h1zm100 81q0 16-11 27t-27 11q-16 0-26.5-11T113 221v-13q0-16 10.5-26.5T150 171q16 0 26.5 10.5T187 208v12h1zm6-62q-8 0-13.5-5.5T175 139q0-8 5.5-13.5t13.5-5q8 .5 13.5 5.5t5 13q-.5 8-5.5 13.5t-13 5.5zm32-37q-13-20-37-30l10-23q31 13 48 39l-21 14z"/></svg>