<svg viewBox="0 0 300 320" xmlns="http://www.w3.org/2000/svg"><path d="M100 158q-20 0-37.5-10T35 120.5Q25 103 25 83t10-37.5Q45 28 62.5 18T100 8q20 0 37.5 10T165 45.5Q175 63 175 83t-10 37.5Q155 138 137.5 148T100 158zm181 75q0-8-2-16l17-11-12-21-18 10q-12-13-29-17v-20h-24v20q-17 4-29 17l-18-10-12 21 17 11q-2 8-2 16t2 16l-17 11 12 21 18-10q12 13 29 17v20h25v-20q16-4 28-17l18 10 12-21-17-11q2-8 2-16zm-56 19q-8 0-13.5-5.5T206 233q0-8 5.5-13.5T225 214q8 0 13.5 5.5T244 233q0 8-5.5 13.5T225 252zm-100-19q0-27 13-50H56q-23 0-39.5 16.5T0 239v69h159q-16-14-25-33.5t-9-41.5z"/></svg>