<svg viewBox="0 0 300.008 320" xmlns="http://www.w3.org/2000/svg"><path d="M300.008 158q0-42-21-77t-57-55q-36-20-78-18-38 2-70 21t-52 51q-20 32-22 70-2 33 10.5 63.5t36 53q23.5 22.5 53.5 32.5v-54q0-17 10.5-30t27.5-18v-52q0-5 3.5-8.5t8.5-3.5q5 0 8.5 3.5t3.5 8.5v50h18q18 0 35 6.5t31 18.5l27 24q27-39 27-86zm-187 17q-13-5-24-13-6-4-10-7l17-19q7 6 16 11v28h1zm-7-67q-8 0-13.5-5.5t-5-13.5q.5-8 5.5-13.5t13-5.5q8 0 13.5 5.5t5.5 13.5q0 8-5.5 13.5t-13.5 5.5zm69-19q0-8 5.5-13.5t13.5-5.5q8 0 13.5 5.5t5 13.5q-.5 8-5.5 13.5t-13 5.5q-8 0-13.5-5.5t-5.5-13.5zm13 58q10-5 16-11l17 19q-4 3-10 7-11 8-24 13v-28h1zm14 161h-77v-63q0-10 7.5-17.5t17.5-7.5h38q10 0 17.5 7.5t7.5 17.5v13q0 5-4 9t-9 4q-5-1-8.5-4.5t-3.5-8.5v-13h-13v38h27q12 0 19-9l11-14q4-4 9-4.5t9 2.5q4 3 4.5 8.5t-2.5 9.5l-11 13q-7 9-17.5 14t-21.5 5z"/></svg>