<svg viewBox="0 0 300 320" xmlns="http://www.w3.org/2000/svg"><path d="M63 8q-17 0-31.5 8.5t-23 23Q0 54 0 70.5t8.5 31q8.5 14.5 23 23t31 8.5q16.5 0 31-8.5t23-23q8.5-14.5 8.5-31t-8.5-31q-8.5-14.5-23-23T63 8zm15 95L50 76V33h25v32l20 21-17 17zm110-45v175H0V132q12 12 28 19t35 7q23 0 43-12t32-32q12-20 12-44 0-27-16-49h16q16-1 27 10t10 27h1zm86 200q1 3 1 6 0 13-9 22t-22 9.5q-13 .5-22.5-9T212 264q0-3 1-6h61zm-175 0q1 3 1 6 0 13-9 22t-22 9q-13 0-22-9t-9-22v-6h61zm114-88h87v63h-87v-63zm87-37v12h-87V70h25q16 0 30.5 8.5t23 23Q300 116 300 133z"/></svg>