<svg viewBox="0 0 300 320" xmlns="http://www.w3.org/2000/svg"><path d="M279 29q-15-16-39.5-20T185 14Q122 35 75 83 27 130 6 193q-9 30-5 54.5T21 287q11 11 25 16.5t29 4.5q20 0 40-6 63-21 110-69 48-47 69-110 9-30 5-54.5T279 29zM113 245q0-10-3.5-19.5T99 209q-7-7-16.5-10.5T62 195v-25q16 0 30 5.5t24.5 16q10.5 10.5 16 24.5t5.5 30l-25-1zm50-50q0-10-3.5-19.5T149 159q-7-7-16.5-10.5T112 145v-25q16 0 30 5.5t24.5 16q10.5 10.5 16 24.5t4.5 30l-24-1zm50-50q0-10-3.5-19.5T199 109q-7-7-16.5-10.5T162 95V70q16 0 30 5.5t24.5 16q10.5 10.5 16 24.5t4.5 30l-24-1z"/></svg>