<svg viewBox="0 0 300.006 320" xmlns="http://www.w3.org/2000/svg"><path d="M300 245q1 13-3.5 24.5t-13 20Q275 298 264 303t-24 5h-34l16-32q3-5 3-10.5t-2.5-10Q220 251 215 248t-10-2h-27l23-42-22-12-28 52q-3 10 3 18.5t16 7.5h27l-19 38h-59q-21 0-36.5-13.5T64 261q-3-20 7-37.5t30-24.5q3-28 22-45t44.5-20q25.5-3 47.5 10t31 40q23 3 38.5 20.5T300 245zM79 180q10-33 38-53.5t63-18.5q-1-5-3-11l39-22-12-22-39 23-8-8 23-39-22-12-22 39q-5-2-11-3V8h-25v45q-6 1-11 3L67 17 45 30l23 38-8 8-39-23L9 75l39 22q-2 6-3 11H0v25h45q1 5 3 11L9 166l12 22 39-23q8 10 19 15z"/></svg>