<svg viewBox="0 0 300 320" xmlns="http://www.w3.org/2000/svg"><path d="M263 8H38Q22 8 11 19T0 46v262h300V45q0-15-11-26T262 8h1zM52 137q-14-14-14-35t14.5-35.5Q67 52 87.5 52T123 66q9 9 12.5 20.5T137 110q-27-21-32-26-7-7-17.5-7T70 84q-7 7-7 17.5t7 17.5q5 5 36 29-14 6-28.5 3T52 137zm32-21l15-20 51 40 51-40 15 19-53 43v62h-25v-62l-54-42zm66 154q-21 0-35.5-14.5T100 220q0-13 7-24.5t18-18.5v43q0 11 7.5 18t17.5 7q10 0 17.5-7t7.5-18v-43q11 7 18 18.5t7 24.5q0 21-14.5 35.5T150 270zm98-133q-11 11-25.5 14t-28.5-3q31-24 36-29 7-7 7-17.5T230 84q-7-7-17.5-7T195 84q-5 5-32 26-2-12 2-23.5T177 66q15-14 35.5-14t35 14.5Q262 81 262 101.5T248 137z"/></svg>