<svg viewBox="0 0 300 320" xmlns="http://www.w3.org/2000/svg"><path d="M100 158q-20 0-37.5-10T35 120.5Q25 103 25 83t10-37.5Q45 28 62.5 18T100 8q20 0 37.5 10T165 45.5Q175 63 175 83t-10 37.5Q155 138 137.5 148T100 158zM88 308V183H56q-23 0-39.5 16.5T0 239v69h88zm167-90q0-5-3.5-8.5T244 206h-11v23h11q4 0 7.5-3.5t3.5-7.5zm8-60H150q-16 0-26.5 11T113 196v112h187V195q0-13-11.5-25T262 158h1zm-63 125h-20v-40h-22v40h-20V183h20v40h22v-40h20v100zm62-44v1l13 43h-22l-11-38h-9v38h-20V183h31q13 0 22 9t9 22q0 8-3.5 14.5T262 240v-1z"/></svg>