<svg viewBox="0 0 300 320" xmlns="http://www.w3.org/2000/svg"><path d="M231 143q7 13 6.5 27.5t-7 27.5q-6.5 13-17.5 22 0 20-11 35l-39 53V108h-25v200h-1l-39-53q-11-15-10-35-12-9-18.5-22t-7-27.5Q62 156 69 143q-13-11-17-27t1-32q5-16 18.5-26.5T102 46q4-17 17.5-27.5T150 8q17 0 30.5 10.5T198 46q17 1 30.5 11.5T247 84q5 16 1 32t-17 27zm69-35q0-17-10.5-30.5T263 60q13 21 12 45t-15 44q3 11 2 22 0 17-6.5 33T237 232q-4 30-26 51h2q16 0 30.5-8.5t23-23Q275 237 275 220q20-14 24-38t-9-45q10-13 10-29zM10 137q-13 21-9 45t24 38q0 17 8.5 31.5t23 23Q71 283 88 283h1q-22-21-26-51-12-12-18.5-28T38 170q-1-10 2-21-14-20-15-44t12-45q-12 3-21 11.5t-13 20Q-1 103 .5 115t9.5 22z"/></svg>