<svg viewBox="0 0 300 320" xmlns="http://www.w3.org/2000/svg"><path d="M13 158q0 10 7 17.5t17.5 7.5q10.5 0 18-7.5T62 158h26q0 10 7 17.5t17.5 7.5q10.5 0 18-7.5T138 158h25q0 10 7 17.5t17.5 7.5q10.5 0 18-7.5T213 158h25q-1 10 6.5 17.5t18 7.5q10.5 0 18-7.5T288 158h12V45q0-15-11-26T262 8H38Q22 8 11 19T0 46v112h13zM123 57l27-30 27 30q11 11 10.5 26.5t-11 26.5Q166 121 150 121t-26.5-11Q113 99 113 83t10-26zm177 134v117H0V191q7 8 16.5 12.5t21 4.5q11.5 0 21-4.5T75 191q7 8 16.5 12.5t21 4.5q11.5 0 21-4.5T150 191q7 8 16.5 12.5t21 4.5q11.5 0 21-4.5T225 191q7 8 16.5 12.5t21 4.5q11.5 0 21-4.5T300 191zM141 92q-4-4-3.5-9t4.5-9l8-10 9 10q4 4 4 9t-4 8.5q-4 3.5-9 3.5t-9-3z"/></svg>