<svg viewBox="0 0 300.0025 320" xmlns="http://www.w3.org/2000/svg"><path d="M300.002 45v38q0 16-11 26.5t-27 10.5h-37V95h33q-14-23-36.5-39t-49-21q-26.5-5-53.5 2t-48 24q-21 17-33 41.5t-13 52q-1 27.5 10 52.5t31 43.5q20 18.5 47 26.5v26q-33-8-58-29t-39.5-50q-14.5-29-15.5-62t12-63q13-30 37-52t55.5-32q31.5-10 64-6t60.5 21.5q28 17.5 46 44.5V45h25zm-87 188q0-16-11-26.5t-27-11q-16-.5-26.5 10.5t-10.5 27h25q0-5 3.5-8.5t8.5-4q5-.5 9 3.5t4 8.5q0 4.5-7 10.5-4 4-13 11h-1q-14 11-20 18-9 11-10 24v12h76v-25h-42l12-9q14-11 20-17 10-12 10-24zm62 12h-25v-50h-25v50q0 11 7.5 18t17.5 7h25v38h25V195h-25v50zm-112-162h-25v62h-50v25h75V83z"/></svg>