<svg viewBox="0 0 300 320" xmlns="http://www.w3.org/2000/svg"><path d="M300 290l-35-35q11-15 11-33t-8.5-32.5q-8.5-14.5-23-22.5t-31.5-8q-17 0-31.5 8T159 189.5q-8 14.5-8 31.5t8 31.5q8 14.5 22.5 23T214 284q18 0 33-11l35 35 18-18zM263 8H38Q22 8 11 19T0 46v49h300V45q0-15-11-26T262 8h1zM44 70q-8 1-13.5-4.5T25 52q0-8 5.5-13.5T44 33q8 0 13 5.5T62.5 52q.5 8-5 13T44 70zm50 0q-8 0-13.5-5T75 52q0-8 5.5-13.5T94 33q8 0 13.5 5.5T113 52q0 8-5.5 13T94 70zM0 120h300v100q0-23-12-43t-32-32q-20-12-43.5-12T169 145q-20 12-32 32t-12 44q0 18 7 34t19 28H0V120z"/></svg>