<svg viewBox="0 0 300 320" xmlns="http://www.w3.org/2000/svg"><path d="M225 152q0 8-5.5 13t-13.5 5q-8 0-13-5t-5-13q0-8 5-13.5t13-5.5q8 0 13.5 5.5T225 152zM94 133q-8 0-13.5 5.5T75 152q0 8 5.5 13t13.5 5q8 0 13.5-5t5.5-13q0-8-5.5-13.5T94 133zm206 25q0 41-20 75.5T225.5 288Q191 308 150 308t-75.5-20Q40 268 20 233.5T0 158q0-41 20-75.5T74.5 28Q109 8 150 8t75.5 20Q260 48 280 82.5t20 75.5zM94 195q18 0 31-12.5t13-30.5q0-18-13-31t-31-13q-8 0-16 3 13-14 31-22L99 66q-32 14-49 41l17 11q-8 6-12.5 15T50 152q0 18 13 30.5T94 195zm94 50q0-15-11-26t-27-11q-16 0-26.5 11T113 245h75zm62-93q0-11-5.5-21T230 115l15-9q-17-27-48-40l-10 23q17 7 29 20-5-1-10-1-18 0-30.5 13T163 152q0 18 12.5 30.5T206 195q18 0 31-12.5t13-30.5z"/></svg>