<svg viewBox="0 0 300 320" xmlns="http://www.w3.org/2000/svg"><path d="M113 108V89q-1-8 4.5-13.5T131 70h38q8 0 13.5 5.5T188 89v19h-75zm37-50q10 0 17.5-7.5T175 33q0-10-7.5-17.5T150 8q-10 0-17.5 7.5T125 33q0 10 7.5 17.5T150 58zm150 125v-19q0-8-5.5-13.5T281 145h-37q-8 0-13.5 5.5T225 164v19h75zm-37-50q10 0 17.5-7.5T288 108q0-10-7.5-17.5t-18-7.5Q252 83 245 90.5t-7 17.5q0 10 7 17.5t18 7.5zM75 158v-19q0-8-5.5-13.5T56 120H19q-8 0-13.5 5.5T0 139v19h75zm-37-50q10 0 17.5-7.5T63 83q0-10-7.5-17.5t-18-7.5Q27 58 20 65.5T13 83q0 10 7 17.5t18 7.5zm262 125q0-10-7.5-17.5T275 208h-31q-11 0-18 7.5t-7 17.5v75h81v-75zM81 208v100H0V208q0-10 7.5-17.5T25 183h31q11 0 18 7.5t7 17.5zm113-50v150h-88V158q0-10 7.5-17.5T131 133h38q10 0 17.5 7.5T194 158z"/></svg>