<svg viewBox="0 0 300.008 320" xmlns="http://www.w3.org/2000/svg"><path d="M277 262q-5-2-6-7.5t2-9.5q24-33 27-75 2-39-15.5-75.5T236 35q-33-24-74-27-44-3-82.5 17.5T19.5 84Q-2 122 0 165.5T27 245q4 5 2 9t-8 10q-6 6-7.5 11t-1 11q.5 6 4 11t9 8q5.5 3 12.5 3h223q8 0 15-4.5t10-12.5q3-8 0-16t-9-13zM163 71q19 3 35.5 14.5T225 114l-35 15q-10 3-18.5-2.5T162 110l1-39zm-13 70q7 7 16 11-5 9-5 20-11-3-22 0 0-11-5-20 5-2 9-4.5t7-6.5zm-12-70v39q-1 11-9.5 16.5T110 129l-36-15q11-17 27.5-28.5T137 71h1zM88 219q-16-16-22-38t-1-44l33 14q12 4 15.5 17t-3.5 23l-22 28zm62 26q-23 1-42-11l22-29q8-9 20-9t20 10l22 29q-19 11-42 10zm62-26l-21-28q-8-10-4.5-23t15.5-17l33-14q5 22-1 44t-22 38z"/></svg>