<svg viewBox="0 0 300 320" xmlns="http://www.w3.org/2000/svg"><path d="M163 145h137v25H163v138h-25V170H0v-25h138V8h25v137zM19 45q8 0 13.5-5T38 27q0-8-5.5-13.5T19 8q-8 0-13.5 5.5T0 27q0 8 5.5 13T19 45zm0 63q8 0 13.5-5.5T38 89q0-8-5.5-13.5T19 70q-8 0-13.5 5.5T0 89q0 8 5.5 13.5T19 108zm262-38q-8 0-13 5.5T263 89q0 8 5 13.5t13 5.5q8 0 13.5-5.5T300 89q0-8-5.5-13.5T281 70zM19 208q-8 0-13.5 5.5T0 227q0 8 5.5 13t13.5 5q8 0 13.5-5t5.5-13q0-8-5.5-13.5T19 208zm262 0q-8 0-13 5.5t-5 13.5q0 8 5 13t13 5q8 0 13.5-5t5.5-13q0-8-5.5-13.5T281 208zm0-163q8 0 13.5-5t5.5-13q0-8-5.5-13.5T281 8q-8 0-13 5.5T263 27q0 8 5 13t13 5zm-62 0q8 0 13.5-5t5.5-13q0-8-5.5-13.5T219 8q-8 0-13.5 5.5T200 27q0 8 5.5 13t13.5 5zM81 45q8 0 13.5-5t5.5-13q0-8-5.5-13.5T81 8q-8 0-13 5.5T63 27q0 8 5 13t13 5zM19 270q-8 0-13.5 5.5T0 289q0 8 5.5 13.5T19 308q8 0 13.5-5.5T38 289q0-8-5.5-13.5T19 270zm262 0q-8 0-13 5.5t-5 13.5q0 8 5 13.5t13 5.5q8 0 13.5-5.5T300 289q0-8-5.5-13.5T281 270zm-62 0q-8 0-13.5 5.5T200 289q0 8 5.5 13.5T219 308q8 0 13.5-5.5T238 289q0-8-5.5-13.5T219 270zm-138 0q-8 0-13 5.5T63 289q0 8 5 13.5t13 5.5q8 0 13.5-5.5T100 289q0-8-5.5-13.5T81 270z"/></svg>