<svg viewBox="0 0 300 320" xmlns="http://www.w3.org/2000/svg"><path d="M256 264q-21 22-49 33t-57 11q-29 0-57-11t-49-33q-29-29-39-67.5t0-77Q15 81 44 52t67.5-39q38.5-10 77 0T256 52l9 9-88 88-9-9q-7-7-18-6.5t-18 7.5q-7 7-7 17.5t7.5 17.5q7.5 7 18 7t17.5-8l18 18q-15 15-35.5 15T115 193.5q-15-14.5-15-35t14-35.5q12-12 29.5-14t31.5 6l18-18q-19-14-43-14-29 0-51 20l1 5q0 9-6 16t-14 8q-8 21-3.5 42T97 211q14 14 33 19 8-10 20-10t20 10q19-5 33-19t19-33.5q5-19.5 0-38.5l20-20q12 28 6.5 58T221 229q-20 20-48 26-3 7-9 11t-14 4q-8 0-14-4t-9-11q-28-6-48.5-26.5t-26.5-49Q46 151 56 124q-6-7-6-16.5t7.5-17Q65 83 75 83q4 0 8 1 17-16 40-22.5t46-2Q192 64 211 79l18-18q-24-20-54.5-26T114 38q-30 9-53 32.5T29.5 126q-8.5 32 0 64T62 246q24 24 56 32.5t64 0q32-8.5 56-32.5 30-29 35.5-69.5T261 100l18-18q17 29 20 62t-8 64.5Q280 240 256 264z"/></svg>