<svg viewBox="0 0 300 320" xmlns="http://www.w3.org/2000/svg"><path d="M288 168q3 8 3 15 0 13-7 24t-18 17q-1 14-8.5 25.5T238 267v41h-50v-28q-9 3-16 3-15 0-27-8-12 8-26 8l-7-1v26H63v-38q-16-4-27-16.5T25 224q-11-6-18-17t-7-24q0-13 7-24t18-17q0-20 14-33.5T72 95q7 0 13 2 14-14 34-14 14 0 26 8l5 4v34q0 30 20.5 48t54.5 18q21 0 37-7t26-20zM188 50q3-4 8-7-7-10-21-10V8q16 0 27 7t17 19l6-1 6 1q6-12 17-19t27-7v25q-14 0-21 10 5 3 8 7 14 2 27 5l11 3q-2 8-9.5 15.5T275 85v44q0 19-13.5 30T225 170q-23 0-36.5-11T175 129V85q-8-4-15.5-11.5T150 58l11-3q13-3 27-5z"/></svg>