<svg viewBox="0 0 300 320" xmlns="http://www.w3.org/2000/svg"><path d="M269 245q-6 1-12 3l-19-20q10-13 16-28l36 10 7-24-36-10q1-10 1.5-18t-1.5-18l36-10-7-24-36 10q-6-15-16-28l19-20q6 2 12 2 13 0 22-9t9-22q0-13-9-22t-22-9q-13 0-22.5 9T238 39q0 6 2 12l-20 19q-13-10-28-16l10-36-24-7-10 36q-10-2-18-2t-18 2l-10-36-24 7 10 36q-15 6-28 16L60 51q3-6 2-12 1-13-8.5-22T31 8Q18 8 9 17T0 39q0 13 9 22t22 9q6 0 12-2l19 20q-10 13-16 28l-36-10-7 24 36 10q-1 10-1 18t1 18L3 186l7 24 36-10q6 15 16 28l-19 20q-6-2-12-2-13 0-22 9t-9 22q0 13 9 22t22 9q13 0 22-9t9-22q1-6-2-12l20-19q13 10 28 16l-10 36 24 7 10-36q10 2 18 2t18-2l10 36 24-7-10-36q15-6 28-16l20 19q-3 6-3 12 1 13 10 22t22 9q13 0 22-9t9-22q0-13-9-22t-22-9v-1zM93 177q-7 0-12.5-5.5T75 158q0-8 5.5-13.5t13-5.5q7.5 0 13 5.5T112 158q0 8-5.5 13.5T93 177zm76 38q0 7-5.5 12.5T150 233q-8 0-13.5-5.5t-5.5-13q0-7.5 5.5-13T150 196q8 0 13.5 5.5T169 215zm-19-95q-8 0-13.5-5.5t-5.5-13q0-7.5 5.5-13T150 83q8 0 13.5 5.5t5.5 13q0 7.5-5.5 13T150 120zm57 57q-8 0-13.5-5.5T188 158q0-8 5.5-13.5t13-5.5q7.5 0 13 5.5T225 158q0 8-5.5 13.5T207 177z"/></svg>