<svg viewBox="0 0 300 320" xmlns="http://www.w3.org/2000/svg"><path d="M113 270v38H0v-63q0-16 8.5-30.5t22.5-23q14-8.5 31-8.5v53q-5 4-8.5 9.5T50 258q0 10 7 17.5t17.5 7.5q10.5 0 18-7.5T100 258q0-7-3.5-12.5T87 236v-53h51v52q-12 4-18.5 13.5T113 271v-1zm62-87h-12v52q11 4 18 13.5t7 22.5v37h50v-63q-1-16-9-30.5t-22.5-23Q192 183 175 183zm-25 75q-5 0-8.5 3.5T138 270v38h25v-38q-1-5-4.5-8.5T150 258zM300 70q0-16-8.5-30.5t-23-23Q254 8 237.5 8t-31 8.5q-14.5 8.5-23 23T175 71v62h63q16 0 30.5-8.5t23-23Q300 87 300 70zm-150 0q0-23 12-43-21-19-49-19-21 0-38 10T47.5 45.5Q37 63 37 83t10.5 37.5Q58 138 75 148t37.5 10q20.5 0 37.5-10V70z"/></svg>