<svg viewBox="0 0 300 320" xmlns="http://www.w3.org/2000/svg"><path d="M197 16q39 13 66 44t35 72q-23 15-48 22-3-38-16.5-73T197 16zm-35 133q31 12 63 9-3-42-20-80.5T159 8h-9q-31 0-59 12 32 23 50.5 57t20.5 72zm50 35q-31 0-60-12-22 17-37 40 40 19 84.5 21t86.5-13q14-29 14-60-41 24-88 24zm-4 74q-55 0-105-25-14 29-16 61 31 15 65 14.5t64-15.5q30-15 51-42-29 7-59 7zM108 71Q91 48 66 33 39 52 22 79.5T1 139q-4 32 6 63 14-40 40-73.5T108 71zm29 81q-1-32-16-60-37 25-62.5 62.5T23 235h-1q16 27 41 45 6-38 25-71t49-57z"/></svg>