<svg viewBox="0 0 300 320" xmlns="http://www.w3.org/2000/svg"><path d="M150 8q-41 0-75.5 20T20 82.5Q0 117 0 158q2 57 33 95 29 35 73 47.5t88 0q44-12.5 73-47.5 31-38 33-95 0-41-20-75.5T225.5 28Q191 8 150 8zm-50 112q-3 0-7.5 8T88 145H63q1-23 12-36t25.5-13q14.5 0 25 13t12.5 37h-25q0-10-5-17.5t-8-7.5v-1zm88 107q-1 13-10 22t-22 9h-18v-25h18q3 0 4.5-2t2-4.5q.5-2.5-1.5-4.5t-5-2h-6v-25h6q3 1 5-1t2-4.5q0-2.5-2-4.5t-5-2h-18v-25h18q9 0 16.5 4.5T184 175q4 8 3 17t-6 16q6 8 6 19h1zm25-82q0-9-5-16.5t-8-8q-3-.5-7.5 7.5t-4.5 17h-25q1-23 12-36t25.5-13q14.5 0 25 13t12.5 37l-25-1z"/></svg>