<svg viewBox="0 0 300 320" xmlns="http://www.w3.org/2000/svg"><path d="M238 164q0 8-5.5 13.5T219 183q-8 0-13.5-5.5T200 164q0-8 5.5-13.5T219 145q8 0 13.5 5.5T238 164zm43-44q8 0 13.5-5t5.5-13q0-8-5.5-13.5T281 83q-8 0-13 5.5t-5 13.5q0 8 5 13.5t13 5.5v-1zm-62 88q-8 0-13.5 5.5T200 227q0 8 5.5 13t13.5 5q8 0 13.5-5t5.5-13q0-8-5.5-13.5T219 208zm62-63q-8 0-13 5.5t-5 13.5q0 8 5 13.5t13 5.5q8 0 13.5-5.5T300 164q0-8-5.5-13.5T281 145zm0 63q-8 0-13.5 5.5t-5 13.5q.5 8 5.5 13t13 5q8 0 13.5-5t5.5-13q0-8-5.5-13.5T281 208zm0 62q-8 0-13 5.5t-5 13.5q0 8 5 13.5t13 5.5q8 0 13.5-5.5T300 289q0-8-5.5-13t-13.5-5v-1zm-62 0q-8 0-13.5 5.5T200 289q0 8 5.5 13.5T219 308q8 0 13.5-5.5t5-13.5q-.5-8-5.5-13.5t-13-4.5v-1zm-63-62q-8 0-13.5 5.5T137 227q0 8 5.5 13t13.5 5q8 0 13.5-5t5.5-13q0-8-5.5-13.5T156 208zm0 62q-8 0-13.5 5.5t-5 13.5q.5 8 5.5 13.5t13 5.5q8 0 13.5-5.5T175 289q0-8-5.5-13t-13.5-5v-1zM268 52L119 201l-19-19V52Q72 33 49 33q-10 0-17 7t-7 17v251H0V57q0-20 14.5-34.5T48.5 8Q68 8 90 18q14 6 27 15h132l19 19z"/></svg>