<svg viewBox="0 0 300 320" xmlns="http://www.w3.org/2000/svg"><path d="M175 158q0 10-7.5 17.5T150 183q-10 0-17.5-7.5T125 158q0-10 7.5-17.5T150 133q10 0 17.5 7.5T175 158zm125-63v163H0V95q0-15 11-26t27-11h225q15 0 26 11t11 27v-1zM63 208q0-5-4-8.5t-9-3.5q-5 0-8.5 3.5T38 208q0 5 3.5 8.5T50 220q5 0 9-3.5t4-8.5zm0-100q0-5-4-9t-9-4q-5 0-8.5 4t-3.5 9q0 5 3.5 9t8.5 3.5q5-.5 9-4t4-8.5zm137 50q0-21-14.5-35.5T150 108q-21 0-35.5 14.5T100 158q0 21 14.5 35.5T150 208q21 0 35.5-14.5T200 158zm63 50q0-5-4-8.5t-9-4q-5-.5-8.5 3.5t-4 9q-.5 5 3.5 8.5t9 4q5 .5 9-3.5t4-9zm0-100q0-5-4-9t-9-4q-5 0-9 4t-4 9q0 5 4 9t9 3.5q5-.5 9-4t4-8.5z"/></svg>