<svg viewBox="0 0 300 320" xmlns="http://www.w3.org/2000/svg"><path d="M0 170V95q0-15 11-26t27-11h75v112H71q4-11 4-18.5t-5.5-13Q64 133 56 133t-13 5.5q-5 5.5-5 13t3 19.5H0v-1zm209 25q3 12 3 19.5t-5 13q-5 5.5-13 5.5t-13.5-5.5q-5.5-5.5-5.5-13t4-19.5h-41v113h112V195h-41zm-96 72q-12 3-19.5 3t-13-5q-5.5-5-5.5-13t5.5-13.5q5.5-5.5 13-5.5t19.5 4v-42H0v113h113v-41zM300 45q0-15-11-26T262 8h-74v41q11-4 18.5-3.5t13 5.5q5.5 5 5.5 13t-5.5 13.5q-5.5 5.5-13 5.5T187 79v41h42q-4 12-4 19.5t5.5 13Q236 158 244 158t13.5-5.5q5.5-5.5 5.5-13t-4-19.5h41V45z"/></svg>