<svg viewBox="0 0 300 320" xmlns="http://www.w3.org/2000/svg"><path d="M262 10q-16-5-33.5 2T196 35q-15 16-24 36h-3q-8 0-13.5 5T150 89.5q0 8.5 7 14.5-10 21-25 36-21 21-59 35l-3 2q-6-7-14-7t-13 5.5q-5 5.5-5 13.5v5q-21 17-31.5 37t-4 38.5Q9 288 30 298t49 10q24 0 44-7l5-2q5 9 16 9 8 0 13-5.5t5-13.5v-4q62-33 100-91 4 1 7 2 8 0 13-5.5t5-14q0-8.5-6-14.5 7-15 12-31 8-23 7-49t-10.5-46Q280 16 262 10zM156 220q-8 0-13.5-5t-5.5-13q0-8 5.5-13.5T156 183q8 0 13.5 5.5T175 202q0 8-5.5 13.5T156 221v-1zm75-100q-8 1-13.5-4.5T212 102q0-8 5.5-13.5T231 83q8 0 13.5 5.5T250 102q0 8-5.5 13.5T231 121v-1z"/></svg>