<svg viewBox="0 0 300 320" xmlns="http://www.w3.org/2000/svg"><path d="M98 210q-10-10-16-24l20-19q3 15 14 25 15 16 37 16t38-16l68-68q16-16 16-38t-15.5-37.5Q244 33 222 33t-38 16l-12 12q-13-3-25-3h-8l28-27q15-15 35-20.5t40 0Q262 16 277 31t20.5 35q5.5 20 0 40T277 141l-69 69q-11 11-25 17t-29.5 6q-15.5 0-30-6T98 210zM0 230q0 16 6 30t17 25q11 11 25.5 17t30 6q15.5 0 29.5-6t25-17l28-27h-8q-12 0-25-3l-12 12q-16 16-38 16t-37.5-15.5Q25 252 25 230t16-38l68-68q16-16 38-16t37 16q11 10 15 25l19-19q-6-14-16-24-11-11-25-17t-30-6q-16 0-30 6t-25 17l-69 69q-11 11-17 25t-6 30z"/></svg>