<svg viewBox="0 0 300 320" xmlns="http://www.w3.org/2000/svg"><path d="M275 46q11 0 18 7t7 17.5q0 10.5-7 18T276.5 96Q267 96 245 83q-11-6-20-12l10-7q12-7 21-12 13-6 19-6zm25 112q0 41-20.5 75.5t-55 54.5Q190 308 149 308q-20 0-40-6 6-14 3-28-2-11-12-30-16-26-37-48-21 21-37 46-26-39-26-83 0-40 20.5-75T76 28.5Q111 8 151 8q44 0 83 26-25 16-46 37 22 21 48 37 19 10 30 12 14 3 28-3 6 20 6 41zm-168-34l55-6-3-25-24 3 3-25-25-3-6 56zm-16 16l-56 6 3 25 24-3-2 24 25 3 6-55zm96 80q20-20 21-50 1-25-12-47-18 34-45 61t-61 45q22 13 47 12 30-1 50-21zM38 283q0 11 7 18t17.5 7q10.5 0 18-7t7.5-18q0-6-7-19-4-9-12-21l-6-10-7 10q-7 12-12 21-6 13-6 19z"/></svg>