<svg viewBox="0 0 300 320" xmlns="http://www.w3.org/2000/svg"><path d="M131 39q0-8 5.5-13.5T150 20q8 0 13.5 5.5T169 39q0 8-5.5 13.5T150 58q-8 0-13.5-5.5T131 39zM38 170q0-7-5.5-12.5T19 152q-8 0-13.5 5.5t-5.5 13q0 7.5 5.5 13T19 189q8 0 13.5-5.5T37 170h1zm262 0q0-7-5.5-12.5T281 152q-8 0-13 5.5t-5 13q0 7.5 5 13t13 5.5q8 0 13.5-5.5T300 170zM75 77q0-8-5.5-13.5T56 58q-8 0-13 5.5T38 77q0 8 5 13.5T56 96q8 0 13.5-5.5T75 77zm188 187q-1-8-6-13.5t-13-5q-8 .5-13.5 5.5t-5.5 13q0 8 5.5 13.5T244 283q8 0 13.5-5.5T263 264zM56 245q-8 0-13 5.5T38 264q0 8 5 13.5t13 5.5q8 0 13.5-5.5T75 264q0-8-5.5-13.5T56 246v-1zM244 58q-8 0-13.5 5.5T225 77q0 8 5.5 13.5T244 96q8 0 13.5-5.5t5-13.5q-.5-8-5.5-13.5T244 58zm-81 26v86h-25V84q-21 3-38.5 15t-27 31q-9.5 19-10 41.5T74 214q12 20 32 32t44 12q24 0 44-12t31.5-32q11.5-20 11.5-42.5t-9.5-41.5q-9.5-19-27-31T162 84h1z"/></svg>