<svg viewBox="0 0 300 320" xmlns="http://www.w3.org/2000/svg"><path d="M150 8q-41 0-75.5 20T20 82.5Q0 117 0 158t20 75.5Q40 268 74.5 288t75.5 20q41 0 75.5-20t54.5-54.5q20-34.5 20-75.5t-20-75.5Q260 48 225.5 28T150 8zM75 70h50v25H75V70zm50 69q0 8-5.5 13.5T106 158q-8 0-13.5-5.5t-5-13.5q.5-8 5.5-13.5t13-5q8 .5 13.5 5.5t5.5 13zm88 81H88v-25h125v25zm-19-62q-8 0-13.5-5.5T175 139q0-8 5.5-13.5t13.5-5q8 .5 13.5 5.5t5 13q-.5 8-5.5 13.5t-13 5.5zm13-69q-1-2-3-3-5-3-10-3-8 0-15 8-4 5-6 9l-23-10q4-9 11-17 15-15 33-15 14 0 24 8 6 4 10 9l-21 14z"/></svg>