<svg viewBox="0 0 300 320" xmlns="http://www.w3.org/2000/svg"><path d="M196 29l10-21 11 21 21 10-21 11-11 20-10-20-21-11 21-10zm42 48l20 10 11 21 10-21 21-10-21-11-10-21-11 21-20 11zm-13 75l21 10 10 21 11-21 21-10-21-11-11-21-10 21-21 11zM150 39q0-13-9-22t-22-9H81q-13 0-22 9t-9 22v44h100V39zm50 125v144H0V164q0-23 16.5-39.5T56 108h88q23 0 39.5 16.5T200 164zm-50 44q0-21-14.5-35.5T100 158q-21 0-35.5 14.5T50 208q0 21 14.5 35.5T100 258q21 0 35.5-14.5T150 208zm-25 0q0 10-7.5 17.5T100 233q-10 0-17.5-7.5T75 208q0-10 7.5-17.5T100 183q10 0 17.5 7.5T125 208z"/></svg>