<svg viewBox="0 0 300 320" xmlns="http://www.w3.org/2000/svg"><path d="M232 86q24 5 43 19 11 7 16 14l-19 16q-6-7-17-14-22-13-49-13-10 0-24 6-11 4-21 10.5t-11 8.5q0-10 3.5-21.5T164 91q-38-11-63-44l-1-1 20 3q24 4 45 7-8-11-11.5-23.5T150 8q0 3 12.5 13T190 38q-3-12-3-30 0 2 7.5 10T210 33h9q7 0 14 3.5t11 9.5h56v24h-50q-4 1-9 2-8 4-9 14zm-22 56q-2-1-5-4l-4-4q-10 2-70 37-6-21-6-38 0-15 5-29-15-8-27-19-15 19-15 40l-38 27 44 5q3 7 7 13l-26 26h51l8 6-15 31 48-11q10 7 15 12.5t5 11.5q0 9-16 14-12 4-27 4-25 0-53-14.5T45 212q-20-24-20-48 0-52 21-87l16 31 2-5q6-28 8-43 4-27 3-52-18 7-37 23.5T0 70h26Q0 114 0 164q0 34 23 67.5t59.5 55Q119 308 156 308h25q21 0 41-7 24-7 37-22 16-16 16-39t-11-43q-8-16-25-32-10-9-29-23z"/></svg>