<svg viewBox="0 0 300 320" xmlns="http://www.w3.org/2000/svg"><path d="M298 148q-19-40-52-68l38-38-18-18-41 41q-35-20-75-20-42 0-78 22-26 16-47 44-14 17-23 37-4 10 0 20 19 40 52 68l-38 38 18 18 41-41q35 20 75 19 42 0 78-21 26-16 47-44 14-17 23-37 4-10 0-20zM75 158q0-21 11-39t29.5-27.5q18.5-9.5 39.5-8T193 97l-18 18q-11-7-25-7-21 0-35.5 14.5T100 158q0 14 7 25l-18 18q-14-19-14-43zm75 75q-24 0-43-14l18-18q11 7 25 7 21 0 35.5-14.5T200 158q0-14-7-25l18-18q12 17 13.5 38t-8 39.5Q207 211 189 222t-39 11z"/></svg>