<svg viewBox="0 0 300 320" xmlns="http://www.w3.org/2000/svg"><path d="M164 72q14-10 23-21 13-16 13-33V8H100v10q0 17 13 33 9 11 23 21-32 5-62 31-27 25-44 61t-17 69q0 20 10 37.5T50 298q17 10 38 10h125q20 0 37-10t27-27.5q10-17.5 10-37.5 0-33-17-69t-44-61q-30-26-62-31zm-31 108l38 6q13 2 21 12t8 22q0 16-11 27t-26 11v12h-25v-12q-16 0-27-11t-11-27h25q0 6 3.5 9.5t9.5 3.5h25q5 0 8.5-3.5t3.5-8q0-4.5-2.5-7T167 211l-38-6q-13-2-21-12t-8-23q0-15 11-26t26-11v-13h25v13q16 0 27 11t11 26h-25q0-5-3.5-8.5T162 158h-25q-5 0-8.5 3.5t-3.5 8q0 4.5 2.5 7t5.5 3.5z"/></svg>