<svg viewBox="0 0 300 320" xmlns="http://www.w3.org/2000/svg"><path d="M17 87q7-13 17-24l19 16q-8 9-14 20L17 87zM6 115q-5 14-6 29l25 3q1-13 5-25l-24-7zm73-90q-13 7-24 17l16 19q9-8 20-14L79 25zm57-16q-15 1-29 5l7 24q12-3 24-4l-2-25zM17 228q7 14 17 25l19-16q-8-9-14-20l-22 11zm13-34q-4-12-5-25l-25 3q1 15 6 29l24-7zm61 75q-11-6-20-14l-16 19q11 10 24 17l12-22zm47 13q-12-1-24-4l-7 24q14 4 29 5l2-25zm121-64q-5 10-13 20l19 16q10-12 17-25l-23-11zm34-16q4-15 6-30l-25-2q-1 12-5 24l24 8zm-74 89q13-7 25-16l-16-19q-9 7-20 13l11 22zm-56 17q15-1 29-6l-7-24q-12 4-24 5l2 25zm86-163q3 31-11 59t-42 42.5q-28 14.5-58.5 11t-54-24.5q-23.5-21-31-51t3.5-59.5q11-29.5 36.5-47T149 58q7 0 13 1V9q36 3 66 21.5t49 49q19 30.5 22 65.5h-50zm-37 0h-41q-3-5-9-9V83h-25v53q-7 4-10.5 11.5t-2 15q1.5 7.5 7 13t13.5 7q8 1.5 15-2t11-10.5h41v-25z"/></svg>