<svg viewBox="0 0 300 320" xmlns="http://www.w3.org/2000/svg"><path d="M300 170H0v-25h63q2-10 6-20L14 93l13-21 55 32q6-8 14-15L64 35l22-13 32 55q9-4 19-6V8h26v63q10 2 20 6l32-55 21 13-32 54q8 7 15 15l55-32 12 21-55 32q4 10 6 21h63v24zm-37 113q-11 0-18-7.5t-7-17.5h-25q-1 10-8 17.5t-17.5 7.5q-10.5 0-17.5-7.5t-7-17.5h-25q0 10-7.5 17.5t-18 7.5q-10.5 0-17.5-7.5T88 258H63q-1 8-5.5 14T46 281q-7 3-14.5 1T19 274L0 291q7 8 17 12.5t20.5 4.5q10.5 0 20.5-4.5T75 291q7 8 17 12.5t20.5 4.5q10.5 0 20.5-4.5t17-12.5q7 8 17 12.5t20.5 4.5q10.5 0 20.5-4.5t17-12.5q7 8 17 12.5t20.5 4.5q10.5 0 20.5-4.5t17-12.5l-19-17q-7 9-18 9zM75 228q7 8 17 12.5t20.5 4.5q10.5 0 20.5-4.5t17-12.5q7 8 17 12.5t20.5 4.5q10.5 0 20.5-4.5t17-12.5q7 8 17 12.5t20.5 4.5q10.5 0 20.5-4.5t17-12.5l-19-16q-5 6-12.5 7.5t-14.5-1q-7-2.5-11.5-9T238 195h-25q0 11-7.5 18t-18 7q-10.5 0-17.5-7t-7-18h-25q0 11-7.5 18t-18 7q-10.5 0-17.5-7t-7-18H63q-1 8-5.5 14.5t-11.5 9q-7 2.5-14.5 1T19 212L0 228q7 8 17 12.5t20.5 4.5q10.5 0 20.5-4.5T75 228z"/></svg>