<svg viewBox="0 0 300 320" xmlns="http://www.w3.org/2000/svg"><path d="M219 120q-8 10-14 25-3 9-7 25t-7 21q-3 9-8 9t-9-8q-3-5-7-13l-2-8q-13 13-19 25-9 15-9 31 1 22 11.5 40.5T178 297q19 11 41 11t40.5-11q18.5-11 29.5-29.5t11-41.5q0-23-20-48-12-15-40-39-16-13-21-19zm22 154q-9 9-22 9t-22.5-9q-9.5-9-9.5-22t10-22l22-22 22 22q9 9 9 22t-9 22zm-128-47q0-23 11-44 8-14 23-29l23-21q24-22 30-29l17-20 19 19q5 5 19 17h1q30 26 44 43V45q0-15-11-26T263 8H38Q22 8 11 19T0 46v262h150q-17-15-27-36t-10-45zM50 70q-5 0-9-3.5T37.5 58q.5-5 4-8.5t8.5-4q5-.5 9 3.5t4 9q0 5-4 8.5T50 70zm50 0q-5 1-8.5-3T88 58q0-5 3.5-9t8.5-4q5 0 8.5 4t3.5 9q0 5-3.5 8.5T100 70z"/></svg>