<svg viewBox="0 0 300 320" xmlns="http://www.w3.org/2000/svg"><path d="M250 133h-25V8h25l50 31-50 31v63zm0 50h-87q-11 0-18-7.5t-7-17.5q0-10 7-17.5t17-7.5h38v-25h-37q-21 0-35.5 14.5T113 158q0 21 14.5 35.5T163 208h87q10 0 17.5 7.5T275 233q0 10-7.5 17.5T250 258h-75v25h75q21 0 35.5-14.5T300 233q0-21-14.5-35.5T250 183zm-100 81v19h-25v3q0 9-6.5 15.5T103 308q-9 0-15.5-6.5T81 286v-3H56v3q0 9-6.5 15.5T34 308q-9 0-15-6.5T13 286v-3H0v-56q0-13 9-22.5t22-9.5h40q8 0 15 4t11 10l24 36h10q8 1 13.5 6t5.5 13zM25 245h66l-15-22q-1-2-5-2H31q-2 0-4 1.5t-2 4.5v18z"/></svg>