<svg viewBox="0 0 300 320" xmlns="http://www.w3.org/2000/svg"><path d="M34 195H0v-12q0-27 13.5-50t37-35Q74 86 100 84q-12 14-23 29-25 39-43 82zm161 36q-39 25-83 43v34h13q27 0 50-13.5t35-37q12-23.5 14-49.5-14 11-29 23zM300 45q-1 41-31 82t-89 83q-32 21-67 36v-7q-1-18-13.5-30.5T69 195h-7q15-35 36-67 42-59 83-89t81-31q21 0 29.5 9t8.5 28zm-75 69q0-13-9-22t-22-9q-13 0-22.5 9t-9 22q.5 13 9.5 22t22 9q13 0 22-9t9-22zM17 305q47-8 60-20 11-11 11-27t-11-27q-11-11-27-11t-27 11q-7 8-13 29-4 14-7 31l-3 17 17-3z"/></svg>