<svg viewBox="0 0 300 320" xmlns="http://www.w3.org/2000/svg"><path d="M38 83q0-20 10-37.5T75 18Q92 8 112.5 8T150 18q17 10 27 27.5T187.5 83q.5 20-10 37.5T150 148q-17 10-37.5 10T75 148q-17-10-27-27.5T38 83zm234 157l23 13-13 22-23-13q-14 16-34 20v26h-25v-26q-20-4-34-20l-23 13-13-22 23-13q-3-10-3-19.5t3-19.5l-23-13 13-22 23 13q14-16 34-20v-26h25v26q20 4 34 20l23-13 13 22-23 13q3 10 3 19.5t-3 19.5zm-41-20q0-7-5.5-12.5t-13-5.5q-7.5 0-13 5.5t-5.5 13q0 7.5 5.5 13t13 5.5q7.5 0 13-5.5T231 221v-1zm-131 0q0-19 7-37H63q-17 0-31.5 8.5t-23 23Q0 229 0 245v63h142q-20-16-31-38.5T100 220z"/></svg>