<svg viewBox="0 0 300 320" xmlns="http://www.w3.org/2000/svg"><path d="M300 8l-62 28Q198 8 150 8T63 36L0 8l16 84Q0 123 0 158q0 41 20 75.5T74.5 288q34.5 20 75.5 20t75.5-20q34.5-20 54.5-54.5t20-75.5q0-35-16-66l16-84zM83 111q17 13 35 26 7 6 7 14.5t-5.5 14Q114 171 106 171t-13-5.5q-5-5.5-5-13.5v-6l-21-16 16-19zm67 134q-24 0-49-13-13-7-22-15l17-18q6 5 16 11 20 11 38 11t38-11q10-6 16-11l17 18q-9 8-22 15-25 13-49 14v-1zm62-99q1 3 0 6 0 8-5 13.5t-13 5.5q-8 0-13.5-5.5t-5.5-14q0-8.5 7-14.5l35-26 16 19-21 16z"/></svg>