<svg viewBox="0 0 300 320" xmlns="http://www.w3.org/2000/svg"><path d="M193 115q-12-12-16-28t0-32.5Q181 38 193 26q19-18 44.5-18T282 26q12 12 16 28.5t0 32.5q-4 16-16 28l-44 43-45-43zm57 68H150q-10 0-17.5-7.5T125 158q0-10 7.5-17.5T150 133h26q-11-11-17-25h-9q-21 0-35.5 14.5T100 158q0 21 14.5 35.5T150 208h100q10 0 17.5 7.5T275 233q0 10-7.5 17.5T250 258H150v25h100q21 0 35.5-14.5T300 233q0-21-14.5-35.5T250 183zM67 195h-4v63H38v-63H0v88h25v6q0 8 5.5 13.5T44 308q8 0 13-5.5t5-13.5q1 8 6 13.5t13 5.5q8 0 13.5-5.5T100 289v-6h25v-27l-11-29q-6-14-18.5-23T67 195z"/></svg>