<svg viewBox="0 0 300 320" xmlns="http://www.w3.org/2000/svg"><path d="M150 8q-41 0-75.5 20T20 82.5Q0 117 0 158q2 57 33 95 29 35 73 47.5t88 0q44-12.5 73-47.5 31-38 33-95 0-41-20-75.5T225.5 28Q191 8 150 8zm0 162q-5 1-11 2 0-11-5-20 5-2 9-4.5t7-6.5q7 7 16 11-5 9-5 20-6-1-11-1v-1zm75-56l-35 15q-10 3-18.5-2.5T162 110V71q20 3 36.5 14.5T225 114zm-87-43v39q-1 11-9.5 16.5T110 129l-36-15q11-17 27.5-28.5T137 71h1zm-73 66l33 14q12 4 15.5 17t-3.5 23l-22 28q-16-16-22-38t-1-44zm43 97l22-29q8-9 20-9t20 10l22 29q-19 10-42 10t-42-11zm104-15l-21-28q-8-10-4.5-23t15.5-17l33-14q5 22-1 44t-22 38z"/></svg>