<svg viewBox="0 0 300 320" xmlns="http://www.w3.org/2000/svg"><path d="M241 172l-23 23 23 24-18 18-28-29h-35q-2 6-6 11l18 30 39 9-6 25-32-8-8 32-24-6 10-39-18-30q-8 2-16 0l-18 30 10 39-24 6-8-32-32 8-6-25 39-9 18-30q-4-5-6-11H55l-28 29-18-18 23-24-23-23 18-18 28 29h35q2-6 6-11l-18-30-39-9 6-25 32 8 8-32 24 6-10 39 18 30q8-2 16 0l18-30-10-39 24-6 8 32 32-8 6 25-39 9-18 30q4 5 6 11h35l28-29 18 18zm59-127h-28l14-24-22-13-14 25-14-25-22 13 14 24h-28v25h28l-14 25 22 13 14-25 14 25 22-13-14-25h28V45z"/></svg>