<svg viewBox="0 0 300 320" xmlns="http://www.w3.org/2000/svg"><path d="M125 8Q91 8 62.5 25T17 70.5Q0 99 0 132.5t15.5 62Q31 223 57 240.5t56 17.5q13-1 26 5t21 17q10 14 26 21t33 7q22 0 40.5-11t29.5-29.5q11-18.5 11-40.5 0-30-10-66-11-39-32-71-23-37-54-58-36-24-79-24zM50 133q0-26 16-46l13-13q20-16 46-16h5l-80 80v-5zm9 36L162 66q12 5 22 13L74 190q-10-9-15-21zm70 40q-8-1-16-1t-15-3L204 99q7 10 14 21l-89 89zm31 9l71-71q6 12 10 26l-59 59q-10-9-22-14zm85 25l-10 10q-8 5-16 5-11 1-18-7l47-46q2 11 2 22 0 8-5 16z"/></svg>