<svg viewBox="0 0 300 320" xmlns="http://www.w3.org/2000/svg"><path d="M275 120q0 15-10 22-7 3-15 3h-62q-6 0-9.5-3.5T175 133v-25q0-6 3-8.5t6-3.5l4-1 2 2 2 1q8 7 18.5 9t21-1q10.5-3 18-10.5t11-17.5q3.5-10 1.5-21t-9-20.5Q246 27 233.5 23T209 22q-12-11-28.5-13T150 15q-14-8-30.5-6T91 22q-13-3-24 1T48.5 35.5Q41 44 38.5 54t0 20Q41 84 47 91.5t15 12q9 4.5 19 4.5 15 0 28-9l4-3h3q3 1 6 3.5t3 8.5v25q0 5-3.5 9t-8.5 4H50q-8-1-15-4-10-7-10-21H0v37q0 41 20 75.5T74.5 288q34.5 20 75.5 20t75.5-20q34.5-20 54.5-54.5t20-75.5v-37h-25v-1zM88 189q0-8 5-13.5t13-5q8 .5 13.5 5.5t5.5 13q0 8-5.5 13.5T106 208q-8 0-13.5-5.5T87 189h1zm25 69q0-16 10.5-27t26.5-11q16 0 26.5 11t10.5 27h-74zm81-50q-8 0-13.5-5.5T175 189q0-8 5.5-13.5t13.5-5q8 .5 13.5 5.5t5 13q-.5 8-5.5 13.5t-13 5.5z"/></svg>