<svg viewBox="0 0 300 320" xmlns="http://www.w3.org/2000/svg"><path d="M300 290l-17 18-133-121L17 308 0 290l138-125V8h25v157l137 125zM219 45q8 0 13.5-5t5.5-13q0-8-5.5-13.5T219 8q-8 0-13.5 5.5T200 27q0 8 5.5 13t13.5 5zm62 63q8 0 13.5-5.5T300 89q0-8-5.5-13.5T281 70q-8 0-13 5.5T263 89q0 8 5 13.5t13 5.5zM119 258q-8 0-13.5 5.5T100 277q0 8 5.5 13t13.5 5q8 0 13.5-5t5.5-13q0-8-5.5-13.5T119 258zm75 12q-8 0-13.5 5.5T175 289q0 8 5.5 13.5T194 308q8 0 13.5-5.5T213 289q0-8-5.5-13.5T194 270zM81 108q8 0 13.5-5.5T100 89q0-8-5.5-13.5T81 70q-8 0-13 5.5T63 89q0 8 5 13.5t13 5.5zM19 45q8 0 13.5-5T38 27q0-8-5.5-13.5T19 8q-8 0-13.5 5.5T0 27q0 8 5.5 13T19 45zm6 132q0 8 5.5 13t13.5 5q8 0 13.5-5t5.5-13q0-8-5.5-13.5T44 158q-8 0-13.5 5.5T25 177zm200-13q0 8 5.5 13.5T244 183q8 0 13.5-5.5T263 164q0-8-5.5-13.5T244 145q-8 0-13.5 5.5T225 164z"/></svg>