<svg viewBox="0 0 300 320" xmlns="http://www.w3.org/2000/svg"><path d="M113 108q-21 0-35.5 14.5T63 158q0 21 14.5 35.5t35 14.5q20.5 0 35.5-14.5t15-35.5q0-21-15-35.5T112 108h1zm0 69q-8 0-13.5-5.5T94 158q0-8 5.5-13.5t13-5.5q7.5 0 13 5.5T131 158q0 8-5.5 13.5T112 177h1zM263 33H38q-16 0-27 11T0 71v212h300V70q0-15-11-26t-27-11h1zM113 233q-21 0-38-10t-27.5-27.5Q37 178 37.5 158T48 120.5Q58 103 75 93t37.5-10Q133 83 150 93t27.5 27.5Q188 138 188 158t-10.5 37.5Q167 213 150 223t-37 10zm137-50l-26 53-23-12 24-47V83h25v100z"/></svg>