<svg viewBox="0 0 300 320" xmlns="http://www.w3.org/2000/svg"><path d="M163 195q0 6-4 9.5t-9 3.5q-5 0-9-3.5t-3.5-9q.5-5.5 4-9t8.5-3.5q5 0 9 3.5t4 9.5v-1zm-88 88q-5 0-8.5 3.5t-3.5 9q0 5.5 3.5 9T75 308q5 0 8.5-3.5t4-9q.5-5.5-3.5-9t-9-3.5zm40-97l-24-6-19 75 25 6 18-75zm60 97q-5 0-9 3.5t-3.5 9q.5 5.5 4 9t8.5 3.5q5 0 9-3.5t4-9q0-5.5-4-9t-9-3.5zm40-97l-24-6-19 75 25 6 18-75zm-61 47l-25-6-18 75 24 6 19-75zm64-162q-14-32-41-49-25-15-54.5-13.5T68 26Q43 42 32 69q-12 29-4 65-15 11-22.5 28.5T1 199q3 19 15.5 34T47 254l20-77q2-9 8.5-14t15.5-5h125q12 0 19.5 9.5T240 189l-16 67h1q37-8 57-36 19-26 17.5-59.5T278 103q-23-27-60-32z"/></svg>