<svg viewBox="0 0 300 320" xmlns="http://www.w3.org/2000/svg"><path d="M300 220q0 24-12 44t-32 32q-20 12-44 12-27 1-48-14.5T132.5 254q-10.5-24-6.5-49.5t24-45.5V70q1-29 20-46 18-15 42.5-15T255 24q19 17 20 47v88q12 13 18.5 28.5T300 221v-1zm-50 0q0-11-7-21t-18-14v-77h-25v77q-13 5-20 17.5t-4 26.5q3 14 15 22t26 6.5q14-1.5 23.5-12T250 221v-1zM100 120l25 14v-29l-12-7 12-7V62l-25 15V47l22-22-18-17-16 16L71 8 53 25l22 22v30L49 62l-8-30-24 7 6 22-22 7 6 24 30-8 25 14-25 15-30-8-6 24 22 6-6 23 24 6 8-29 26-15v29l-22 22 18 18 17-17 16 17 18-18-22-22v-29z"/></svg>