<svg viewBox="0 0 300 320" xmlns="http://www.w3.org/2000/svg"><path d="M195 92q5-10 5-21h19q8-1 13.5 4.5T238 89v49q-13-5-26-5v-10q-2-19-17-31zM88 133v-10q2-19 17-31-5-10-5-21H81q-8-1-13.5 4.5T62 89v49h1q12-5 25-5zm41 16l21 19 21-19q7-7 17-11v-11q0-8-5.5-13.5T169 108h-38q-8 0-13.5 5.5T112 127v11q10 4 17 11zm-29-91q10 0 17.5-7.5T125 33q0-10-7.5-17.5T100 8q-10 0-17.5 7.5T75 33q0 10 7.5 17.5T100 58zm50 37q10 0 17.5-7t7.5-17.5q0-10.5-7.5-18T150 45q-10 0-17.5 7.5t-7.5 18q0 10.5 7.5 17.5t17.5 7zm50-37q10 0 17.5-7.5T225 33q0-10-7.5-17.5T200 8q-10 0-17.5 7.5T175 33q0 10 7.5 17.5T200 58zm34 114q-7-12-20-14t-23 7l-22 21 11 10q17 15 19 40l31-32q6-7 7-16t-3-16zm66-83v155q0 20-13 34l-28 30h-59v-38l50-51q13-15 12-36l1-94q0-8 5-13.5t13-5q8 .5 13.5 5.5t5.5 13zM175 242v66H41l-28-30Q0 264 0 244V89q0-8 5.5-13.5t13.5-5q8 .5 13.5 5.5T37 89l1 94q-1 21 12 36l43 44 17-18-40-41q-6-7-7-16t3-16q7-12 20-14t23 7l54 49q12 11 12 28z"/></svg>