<svg viewBox="0 0 300 320" xmlns="http://www.w3.org/2000/svg"><path d="M272 173q1 3 3 8l1 2H24l4-10 29-57q5-9 14-15t19-5h120q10-1 19 5t14 15l29 57zm-9-140h35q-4-11-14-18t-21.5-7Q251 8 241 15t-14 18H73q-4-11-14-18T37.5 8Q26 8 16 15T2 33h36v25H2q4 11 14 18t21.5 7Q49 83 59 76t14-18h154q4 11 14 18t21.5 7q11.5 0 21.5-7t14-18h-35V33zm21 175q3 16 4 33v42h-25v25h-63v-25H100v25H38v-25H13v-43q0-16 3-32h268zm-59 50q5 0 9-3.5t3.5-9q-.5-5.5-4-9T225 233q-5 0-9 3.5t-3.5 9q.5 5.5 4 9t8.5 3.5zm-150 0q5 0 8.5-3.5t4-9q.5-5.5-3.5-9t-9-3.5q-5 0-8.5 3.5t-3.5 9q0 5.5 3.5 9T75 258z"/></svg>