<svg viewBox="0 0 301.0025 320" xmlns="http://www.w3.org/2000/svg"><path d="M291 211q-2 6-6.5 10t-10.5 5q-6 1-12-.5t-10-6.5l-1-1q-10-10-23.5-12.5t-26 3Q189 214 182 225t-7 25v56l-24 2q-46 0-84-25.5t-55-68Q-5 172 4.5 127T47 50q22-21 50.5-32T156 8q39 2 71.5 22T280 82.5q20 32.5 21 71.5 1 30-10 57zm-77-102q-8 2-11.5 8.5t-1.5 14q2 7.5 8.5 11.5t14 2q7.5-2 11.5-9t2-14.5q-2-7.5-9-11t-14-1.5zm-63-38q-7 2-11 9t-2 14.5q2 7.5 9 11t14.5 1.5q7.5-2 11-8.5t1.5-14q-2-7.5-8.5-11.5T151 71zm-62 38q-8 2-11.5 8.5t-1.5 14q2 7.5 8.5 11.5t14 2q7.5-2 11.5-9t2-14.5q-2-7.5-9-11T89 109zm0 75q-8 2-11.5 8.5t-1.5 14q2 7.5 8.5 11.5t14 2q7.5-2 11.5-9t2-14.5q-2-7.5-9-11T89 184z"/></svg>