<svg viewBox="0 0 300 320" xmlns="http://www.w3.org/2000/svg"><path d="M188 177v-50q-1-8 4.5-13.5T206 108q8 0 13.5 5.5T225 127v50q0 8-5.5 13.5T206 196q-8 0-13.5-5.5T187 177h1zm68-69q-8 0-13.5 5.5T237 127v50q1 8 6 13.5t13 5q8-.5 13.5-5.5t5.5-13v-50q0-8-5.5-13.5T256 108zM88 95v26q16 0 29 9 4 3 8 8V58H25l25 19-25 18h63zm68 100q8 1 13.5-4.5T175 177v-50q0-8-5.5-13.5T156 108q-8 0-13.5 5.5T137 127v50q0 8 5.5 13.5T156 196v-1zm75 18q-12 8-27 7-12 0-22-8-12 9-26 9-10 0-18.5-4.5T123 205l-28 27-18-18 28-26q2-1 4-5 5-8 3-17.5t-9.5-15Q95 145 85 146t-16 8l-32 31q-12 12-12 29.5T37 244l65 64h173v-92q-9 5-19 5-14 0-25-8zM125 27q0-8-5.5-13.5T106 8q-8 0-13.5 5.5T87 27v6h38v-6z"/></svg>