<svg viewBox="0 0 300 320" xmlns="http://www.w3.org/2000/svg"><path d="M163 283h62v25H75v-25h63v-38q-28-3-50-17 13-13 32-37 16-20 30-40 14 20 30 40 19 24 32 37-22 14-49 17v38zM99 19Q69 34 50 63t-19 64q0 7 2 17 17-7 46.5-15t51.5-11q-10-23-19-50-10-31-13-49zm78-8q-14-3-27-3t-27 3q1 11 10 39 7 24 17 48 10-24 17-48 9-28 10-39zM39 169q9 25 29 43 10-9 27-30 15-18 29-37-22 4-47.5 11T39 169zM201 19q-3 18-13 49-9 27-19 50 22 3 51.5 11t46.5 15q2-9 2-17 0-35-19-64t-49-44zm31 193q20-18 29-43-12-6-37.5-13T176 145q14 19 29 37 17 21 27 30z"/></svg>