<svg viewBox="0 0 300 320" xmlns="http://www.w3.org/2000/svg"><path d="M207 170h-32v-25h58q15-12 35-12 18 0 32 10V70q0-15-11-26t-27-11H38q-16 0-27 11T0 71v212h125v-30l82-83zm-32-75h75v25h-75V95zm-71 78l-38-6q-12-2-20.5-11.5T37 133q1-16 11.5-26.5T75 96V83h25v12q16 0 27 11t11 27h-25q0-5-4-9t-9-4H75q-5 0-8.5 4t-3.5 8.5q0 4.5 2 7t6 3.5l38 6q12 2 20 11.5t8 22.5q1 16-10 27t-27 11v12H75v-13q-16 0-27-10.5T37 183h26q-1 5 3 8.5t9 3.5h25q5 0 8.5-3.5t4-8q.5-4.5-2-7T104 173zm196 17q0 13-9 22l-96 96h-45v-45l96-96q9-9 22-9t22.5 9.5Q300 177 300 190z"/></svg>