<svg viewBox="0 0 300 320" xmlns="http://www.w3.org/2000/svg"><path d="M91 131l18-10q12 13 28 17v20h26v-20q16-4 28-17l18 10 12-21-17-11q2-8 2-16t-2-16l17-11-12-21-18 10q-12-13-29-17V8h-24v20q-17 4-29 17L91 35 79 56l17 11q-2 8-2 16t2 16l-17 11 12 21zm59-67q8 0 13.5 5.5T169 83q0 8-5.5 13.5T150 102q-8 0-13.5-5.5T131 83q0-8 5.5-13.5T150 64zm13 206v13h50v25H88v-25h50v-13H0V108q0-16 11-27t27-10h13q-1 6-1 12 0 27 13.5 50t36.5 36.5q23 13.5 50 13.5t50-13.5q23-13.5 36.5-36.5T250 83q0-6-1-12h14q15 0 26 10.5t11 26.5v162H163z"/></svg>