<svg viewBox="0 0 300 320" xmlns="http://www.w3.org/2000/svg"><path d="M275 33q-17-17-41.5-22.5t-49 2q-24.5 7.5-43 26T115 81q-5 15-16 26t-26 16q-24 8-42.5 26.5t-26 43q-7.5 24.5-2 49T25 283q12 12 28 18.5t34.5 6.5q18.5 0 37.5-8t34-23q18-18 26-42 5-15 16-26t26-16q24-8 42.5-26.5t26-43q7.5-24.5 2-49T275 33zM94 258q-8 0-13.5-5.5T75 239q0-8 5.5-13.5T94 220q8 0 13.5 5.5t5 13.5q-.5 8-5.5 13.5T94 258zm37-44q-8 0-13.5-5.5t-5.5-13q0-7.5 5.5-13T131 177q8 0 13.5 5.5t5.5 13q0 7.5-5.5 13T131 214zm75-131q-8 0-13.5-5.5T187 64q0-8 5.5-13.5t13.5-5q8 .5 13.5 5.5t5.5 13q0 8-5.5 13.5T206 83z"/></svg>