<svg viewBox="0 0 300 320" xmlns="http://www.w3.org/2000/svg"><path d="M187 270q2 5 1.5 11t-5.5 11q-5 5-13 5-4 0-8-2-2 5-7 9t-11.5 4q-6.5 0-11-4t-6.5-9q-5 2-9 2-8 0-12.5-5T99 281q-1-6 2-11-6-2-9.5-7T88 251.5q0-6.5 3.5-11t9.5-6.5q-3-6-2-12t5-10q4-4 10-5t12 2q2-6 6.5-10t11-4q6.5 0 11.5 4t7 10q5-3 11-2t10.5 5q4.5 4 5 10t-1.5 12q5 2 9 6.5t4 11q0 6.5-4 11.5t-9 7zm44 0q-8 0-13.5 5.5T212 289q0 8 5.5 13.5T231 308q8 0 13.5-5.5T250 289q0-8-5.5-13.5T231 271v-1zm-175 0q-8 0-13 5.5T38 289q0 8 5 13.5t13 5.5q8 0 13.5-5.5T75 289q0-8-5.5-13.5T56 271v-1zM218 71q-9-23-28.5-39.5T145 10q-25-5-50 3-32 9-51 35.5T25 108q0 13 3 26-13 9-20.5 24T0 189q0 22 13 40t34 25l16 4v-6q0-17 11-29 1-17 12.5-28.5T114 182q13-12 30-11.5t29 11.5q17 1 28.5 12.5T214 223q11 12 11 29v4q32-7 53.5-32.5T300 164q0-23-10.5-43.5T260 87q-19-13-42-16z"/></svg>