<svg viewBox="0 0 300 320" xmlns="http://www.w3.org/2000/svg"><path d="M175 83q0-16 11-27t26.5-11Q228 45 239 56t11 27q0 16-11 26.5T212.5 120q-15.5 0-26.5-10.5T175 83zm-13 40q-3-46-32-75Q88 8 0 8v25q130 0 137 90-27 9-51 22-37 19-58 43-28 32-28 70 0 21 14.5 35.5T50 308q21 0 35.5-14.5T100 258q0-40 19-73 13-21 31-36 18 15 31 36 19 33 19 73 0 21 14.5 35.5T250 308q21 0 35.5-14.5T300 258q0-39-29-71-21-25-59-44-24-12-50-20zm-62-28q0-15-11-26T62.5 58Q47 58 36 69T25 95.5Q25 111 36 122t26.5 11Q78 133 89 122t11-27z"/></svg>