<svg viewBox="0 0 300 320" xmlns="http://www.w3.org/2000/svg"><path d="M238 183q-16 0-30 8l-42-51 94-112-20-16-90 109L60 12 40 28l94 112-42 51q-14-8-30-8t-30.5 8.5q-14.5 8.5-23 23t-8.5 31q0 16.5 8.5 31t23 23q14.5 8.5 31 8.5t31-8.5q14.5-8.5 23-23T125 245q0-21-14-38l39-47 39 47q-14 17-14 38 0 19 10.5 35t28 23q17.5 7 36 3.5t32-17q13.5-13.5 17-32t-3.5-36q-7-17.5-23-28T237 183h1zM63 283q-16 0-27-11t-11-26.5Q25 230 36 219t26.5-11Q78 208 89 219t11 26.5q0 15.5-11 26.5t-26 11zm175 0q-16 0-27-11t-11-26.5q0-15.5 11-26.5t26.5-11q15.5 0 26.5 11t11 26.5q0 15.5-11 26.5t-27 11h1z"/></svg>