<svg viewBox="0 0 300 320" xmlns="http://www.w3.org/2000/svg"><path d="M218 70h-55V15l55 55zm-80 25V8H38Q22 8 11 19T0 45v238h125v-30l34-35-15-4-18 5q-7 1-13 1-19 0-38-13-19 13-37 13v-25q9 1 18-5-8-11-13-22.5T38 145q0-15 11-26t26-11q15 0 26 11t12 26q0 11-5.5 22.5T94 190q9 5 17.5 5t15.5-3q-2-8-2-15.5t5.5-13q5.5-5.5 13-5.5t13.5 5.5q6 5.5 6 13t-3 15.5q8 3 15 3h7l43-42V95h-87zm153 72q-10-9-23-9t-22 9l-96 96v45h45l96-96q9-9 9-22.5t-9-22.5zM62 145q0 13 13 28 12-15 12-28 0-5-3.5-8.5T75 133q-5 0-9 3.5t-4 8.5z"/></svg>