<svg viewBox="0 0 300 320" xmlns="http://www.w3.org/2000/svg"><path d="M150 8q-41 0-75.5 20T20 82.5Q0 117 0 158t20 75.5Q40 268 74.5 288t75.5 20q41 0 75.5-20t54.5-54.5q20-34.5 20-75.5t-20-75.5Q260 48 225.5 28T150 8zm44 100q8 0 13.5 5.5t5 13.5q-.5 8-5.5 13.5t-13 5q-8-.5-13.5-5.5t-5.5-13q0-8 5.5-13.5T194 108zm-88 0q8 0 13.5 5.5T125 127q0 8-5.5 13.5t-13.5 5q-8-.5-13.5-5.5t-5-13q.5-8 5.5-13.5t13-5.5zm44 125q-24 0-49-14-13-7-22-14l17-19q6 5 16 11 20 11 38 11 0 13 7 25h-7zm50 0q-10 0-17.5-7.5t-7.5-17q0-9.5 6-21.5 5-8 13-17l6-7 6 7q8 9 13 17 6 12 6 21.5t-7.5 17Q210 233 200 233z"/></svg>