<svg viewBox="0 0 300 320" xmlns="http://www.w3.org/2000/svg"><path d="M237 290l-35-35q11-16 11-33.5t-8.5-32q-8.5-14.5-23-23T150 158q-17 0-31.5 8.5t-22.5 23q-8 14.5-8 31t8 31q8 14.5 22.5 23T151 283q18 0 33-10l35 34 18-17zM263 8H38Q22 8 11 19T0 46v149h66q8-27 31.5-44.5T150 133q29 0 52.5 17.5T234 196h66V45q0-15-11-26T262 8h1zM102 123q-1 4-3.5 7t-6.5 3q-4 0-7-5l-10-20-10 20q-3 5-7 5t-6.5-3q-2.5-3-3.5-7l-4-53h13l3 40 15-29 15 29 3-40h13l-4 53zm75 0q-1 4-3.5 7t-6.5 3q-4 0-7-5l-10-20-10 20q-3 5-7 5t-6.5-3q-2.5-3-3.5-7l-4-53h13l3 40 15-29 15 29 3-40h13l-4 53zm75 0q-1 4-3.5 7t-6.5 3q-4 0-7-5l-10-20-10 20q-3 5-7 5t-6.5-3q-2.5-3-3.5-7l-4-53h13l3 40 15-29 15 29 3-40h13l-4 53z"/></svg>