<svg viewBox="0 0 300 320" xmlns="http://www.w3.org/2000/svg"><path d="M263 195H150q-16 1-27 11.5T113 233v12q0 16 10.5 27t26.5 11h113q15 0 26-11t11-27v-12q0-16-11-26.5T262 195h1zm12 50q0 6-3.5 9.5T262 258h-62v-38h63q5 0 8.5 4t3.5 9v12zM263 33H150q-16 0-27 11t-10 27v12q0 16 10.5 26.5T150 120h113q15 0 26-10.5T300 83V70q0-15-11-26t-27-11h1zm12 50q0 5-3.5 8.5T262 95h-24V58h25q5 0 8.5 3.5T275 71v12zM50 83q16 0 27-11t10.5-26.5Q87 30 76.5 19T50 8Q34 8 23 19T12.5 45.5Q13 61 23.5 72T50 83zm50 50v12H0v-12q0-16 11-26.5T38 96h25q15-1 26 10t11 27zm-12 75q0-16-11-27t-27-11q-16 0-27 11t-11 27q0 16 11 27t27 11q16 0 27-11t11-27zm12 87v13H0v-13q0-15 11-26t27-11h25q15 0 26 11t11 27v-1z"/></svg>