<svg viewBox="0 0 300 320" xmlns="http://www.w3.org/2000/svg"><path d="M168 203l43 44-17 17-31-31v75h-25v-75l-32 31-17-17 43-44q8-7 18-7t18 7zm-30-45q0-5-4-8.5t-9-4q-5-.5-8.5 3.5t-3.5 9q0 5 3.5 8.5t8.5 3.5q5 0 8.5-3.5t3.5-8.5h1zm-63-13q-5 0-8.5 4t-3.5 9q0 5 3.5 8.5T75 170q5 0 9-3.5t4-8.5q0-5-4-8.5t-9-3.5v-1zm-50 0q-5 1-8.5 4.5T13 158q0 5 3.5 8.5T25 170q5 0 9-3.5t4-8.5q0-5-4-9t-9-3v-1zm163 13q0-5-4-8.5t-9-4q-5-.5-8.5 3.5t-3.5 9q0 5 3.5 8.5t8.5 3.5q5 0 8.5-3.5t3.5-8.5h1zm87-13q-5 0-8.5 4t-3.5 9q0 5 3.5 8.5t8.5 3.5q5 0 9-3.5t3.5-8.5q-.5-5-4-8.5T275 146v-1zM163 83V8h-25v75l-32-31-17 17 43 44q8 7 18 7t18-7l43-44-17-17-31 31zm62 62q-5 0-8.5 4t-3.5 9q0 5 3.5 8.5t8.5 3.5q5 0 8.5-3.5t3.5-8.5q0-5-3.5-8.5T225 146v-1z"/></svg>