<svg viewBox="0 0 300 320" xmlns="http://www.w3.org/2000/svg"><path d="M286 283l-58-88h33l-50-75h28L171 17q-8-9-20.5-9T130 17L62 120h28l-50 75h33l-58 88h123v25h25v-25h123zm-123-50q-6 0-9.5-3.5t-3.5-9q0-5.5 3.5-9t9-3.5q5.5 0 9 3.5t3.5 9q0 5.5-3.5 9T163 233zm37 0q5 0 9 3.5t4 9q0 5.5-4 9t-9 3.5q-5 0-9-3.5t-4-9q0-5.5 4-9t9-3.5zm-12-88q5 0 8.5 4t3.5 9q0 5-3.5 9t-9 3.5q-5.5-.5-9-4T175 158q0-5 3.5-9t8.5-4h1zm-25-75q5 1 8.5 4.5T175 83q0 5-3.5 9t-9 3.5q-5.5-.5-9-4T150 83q0-5 3.5-9t8.5-4h1zm-63 188q-5 0-8.5-3.5t-3.5-9q0-5.5 3.5-9t8.5-3.5q5 0 8.5 3.5t3.5 9q0 5.5-3.5 9T100 258zm13-63q-6 1-9.5-3t-3.5-9q0-5 3.5-9t9-4q5.5 0 9 4t3.5 9q0 5-3.5 8.5T112 195h1zm12-62q0-5 3.5-9t9-4q5.5 0 9 4t3.5 9q0 5-3.5 9t-9 3.5q-5.5-.5-9-4T125 133z"/></svg>