<svg viewBox="0 0 300 320" xmlns="http://www.w3.org/2000/svg"><path d="M150 8q-41 0-75.5 20T20 82.5Q0 117 0 157t18.5 73Q37 263 68 284q-5-15-5-31v-45q-1-15 10-26t27-11q12 0 22 6l28-27q10-11 24.5-11t25.5 11q3 3 6 8h4q15 0 25 10.5t10 24q0 13.5-8 23.5l3 2q9 9 10 22t-7 24l-1-1q-5 7-28 31 39-19 62.5-55.5T300 158q0-41-20-75.5T225.5 28Q191 8 150 8zm-37 125q0-9-5-17t-8-8q-3 0-7.5 8T88 133H63q-1-19 10-34.5T100 83q16 0 27 15.5t11 34.5h-25zm100 0q0-9-5-17t-8-8q-3 0-8 8t-5 17h-24q0-19 10.5-34.5T200 83q16 0 26.5 15.5T238 133h-25zm10 116q-22 21-43 43-16 16-38 16-14 0-26.5-6.5t-20-19.5Q88 269 87 253v-45q1-5 4.5-8.5t8.5-3.5q5 0 8.5 3.5t3.5 8.5v14l55-55q3-3 7.5-3t7.5 3q3 3 3 7.5t-3 7.5l-37 37 12 12 46-45q3-3 7-3t7 3q3 3 3 7.5t-3 7.5l-45 45 12 12 23-23q3-3 7.5-3t7.5 3q3 3 3 7t-2 7z"/></svg>