<svg viewBox="0 0 300 320" xmlns="http://www.w3.org/2000/svg"><path d="M263 308H0v-25h263q5 0 8.5-3.5t3.5-9.5V8h25v262q0 16-11 27t-26 11zM0 89q0 8 5.5 13.5T19 108q8 0 13.5-5.5T38 89q0-8-5.5-13.5T19 70q-8 0-13.5 5.5T0 89zm0 138q0 8 5.5 13t13.5 5q8 0 13.5-5t5.5-13q0-8-5.5-13.5T19 208q-8 0-13.5 5.5T0 227zM0 27q0 8 5.5 13T19 45q8 0 13.5-5T38 27q0-8-5.5-13.5T19 8q-8 0-13.5 5.5T0 27zm63 0q0 8 5 13t13 5q8 0 13.5-5t5.5-13q0-8-5.5-13.5T81 8q-8 0-13 5.5T63 27zm68 0q0 8 5.5 13t13.5 5q8 0 13.5-5t5.5-13q0-8-5.5-13.5T150 8q-8 0-13.5 5.5T131 27zm69 0q0 8 5.5 13t13.5 5q8 0 13.5-5t5.5-13q0-8-5.5-13.5T219 8q-8 0-13.5 5.5T200 27zM0 158q0 8 5.5 13.5T19 177q8 0 13.5-5.5T38 158q0-8-5.5-13.5T19 139q-8 0-13.5 5.5T0 158z"/></svg>