<svg viewBox="0 0 300 320" xmlns="http://www.w3.org/2000/svg"><path d="M162 9v50q-29-4-55.5 8.5t-42 37Q49 129 49 158t15.5 53.5q15.5 24.5 42 37T162 257v50q38-3 69.5-23.5t50-54Q300 196 300 158t-18.5-71.5q-18.5-33.5-50-54T162 9zm0 171v40h-25v-40q-6-4-9.5-9.5T124 158q0-7 3.5-12.5t9.5-9.5V83h25v53q6 4 9 9.5t3 12.5q0 7-3 12.5t-9 9.5zM17 87q7-13 17-24l19 16q-8 9-14 20L17 87zm13 35q-4 12-5 25l-25-3q1-15 6-29l24 7zm61-75q-11 6-20 14L55 42q11-10 24-17l12 22zm47-13q-12 1-24 4l-7-24q14-4 29-5l2 25zM39 217q6 11 14 20l-19 16q-10-11-17-24l22-12zM6 201q-5-14-6-29l25-3q1 13 5 25l-24 7zm73 90q-13-7-24-17l16-19q9 8 20 14l-12 22zm57 16q-15-1-29-5l7-24q12 3 24 4l-2 25z"/></svg>