<svg viewBox="0 0 300 320" xmlns="http://www.w3.org/2000/svg"><path d="M163 145q0 11-7.5 18t-18 7q-10.5 0-17.5-7t-7-17.5q0-10.5 7-17.5t17.5-7.5q10.5-.5 17.5 7t7 18.5l1-1zm137 23v27h-29l-6 43q-2 14-12.5 23t-24.5 9h-28v38H38v-59q-1-9-6-16-24-28-30-65t7.5-72Q23 61 52 38t66-28.5q37-5.5 72 9T248 63q26 40 43 84l9 21zm-115-36l24-13-13-22-23 13q-10-9-23-13V70h-25v27q-13 4-23 13L79 97l-13 22 24 13q-2 7-2 13.5t2 13.5l-24 13 13 22 23-14q10 10 23 14v26h25v-26q13-4 23-14l23 14 13-22-23-13q1-7 1-13.5t-2-13.5z"/></svg>