<svg viewBox="0 0 300 320" xmlns="http://www.w3.org/2000/svg"><path d="M150 8q-41 0-75.5 20T20 82.5Q0 117 0 158t20 75.5Q40 268 74.5 288t75.5 20q41 0 75.5-20t54.5-54.5q20-34.5 20-75.5t-20-75.5Q260 48 225.5 28T150 8zm108 87h-40q-14-31-36-58 24 7 44 22t32 36zm-52 63q0 19-6 38H100q-6-19-6-38t6-38h100q6 19 6 38zm-96 62h80q-16 32-40 58-24-26-40-58zm0-125q16-31 40-57 24 26 40 57h-80zm8-58Q96 64 82 96H42q12-22 32-37t44-22zm-87 83h43q-10 38 0 75H31q-12-37 0-74v-1zm11 100h40q14 32 35 59-23-7-43-22t-32-36v-1zm141 59q21-27 35-59h40q-12 22-32 37t-43 22zm86-84h-43q10-37 0-75h43q12 38 0 75z"/></svg>