<svg viewBox="0 0 300 320" xmlns="http://www.w3.org/2000/svg"><path d="M300 245v63H0v-63h25v-37q0-16 11-27t26-10h10q12 15 30 24H63q-6 0-9.5 4t-3.5 9v37h38v38h25v-38h25v38h25v-38h25v38h25v-38h37v-37q0-5-3.5-8.5T237 196h-39q18-10 30-26h10q15 0 26 11t11 27v37h25zM75 108q0-15 8-29 6-10 17-22l2 7q4 7 6 12 5 7 9 7t8-8q2-5 5.5-20.5T137 31q5-14 13-23 5 5 18 16 27 24 38 37 19 24 19 47 0 20-10 37.5T187.5 173Q170 183 150 183t-37.5-10Q95 163 85 145.5T75 108zm57 43q8 7 18 7t17.5-7.5Q175 143 175 133t-7-18l-18-17-18 17q-7 8-7 18t7 18z"/></svg>