<svg viewBox="0 0 300 320" xmlns="http://www.w3.org/2000/svg"><path d="M37 39q0-13 9-22t22-9q13 0 22.5 9t9.5 22q0 13-9.5 22.5t-22.5 9Q55 70 46 61t-9-22zm246 166l-45 29v74h-25v-88l19-12-15-80-17 28v64H100v-63l-17-29-16 80 20 12v88H62v-74l-45-29q-10-6-14.5-17T0 166l11-53q3-13 13.5-21.5T48 83h16q10 0 18.5 5T96 101l12 19h84l11-19q5-8 14-13t19-5h16q13 0 23.5 8.5T288 113l11 53q3 11-2 22t-14 17zM231 70q13 0 22.5-9t9.5-22q0-13-9.5-22T231 8q-13 0-22 9t-9 22q0 13 9 22.5t22 9.5v-1zM0 308h26l13-59-23-15-16 74zm261-59l13 59h26l-16-74-23 15z"/></svg>