<svg viewBox="0 0 300 320" xmlns="http://www.w3.org/2000/svg"><path d="M188 258q-1 23-16 36t-34.5 13q-19.5 0-34.5-13t-15-36h25q0 10 7 17.5t17.5 7.5q10.5 0 17.5-7.5t7.5-17.5q.5-10-7-17.5T137 233H0v-25h138q20 0 35 14.5t15 35.5zM0 95q1-33 19-55 17-20 43-27.5t51.5 0Q139 20 156 40q18 23 18 56t-18 55q-17 20-43 27.5t-51.5 0Q36 171 19 151 1 128 0 95zm75 13h25V45H75v63zm0 37h25v-25H75v25zm175-25q23 0 36-15t13-34.5Q299 51 286 36t-36-15q-21-1-35.5 14T200 71h25q0-11 7.5-18t17.5-7.5q10-.5 17.5 7t7.5 18q0 10.5-7.5 17.5T250 95h-50q0 13-3 25h53zm0 25h-62q-6 14-17 26h79q10-1 17.5 6.5t7.5 18q0 10.5-7.5 17.5t-17.5 7q-10 0-17.5-7t-7.5-18h-25q1 24 15.5 37t34.5 13q20 0 34.5-13t15.5-37q0-20-14.5-35T250 145z"/></svg>