<svg viewBox="0 0 300 320" xmlns="http://www.w3.org/2000/svg"><path d="M250 81q0-14-8-25.5T221.5 38Q209 32 195 33q-7-11-19-18t-26-7q-14 0-25.5 7T106 33q-15-1-28 5T57.5 56.5Q50 69 50 83v3q-12 7-18.5 19T25 131v3q7-1 12-1h127q-2-3-2-6 0-8 5.5-13.5T181 108q8 0 13.5 5.5T200 127q0 3-1 6h63q6 0 12 1l1-8q0-13-6.5-25T250 81zm-131 27q-8 0-13.5-5.5t-5.5-13q0-7.5 5.5-13T119 71q8 0 13.5 5.5t5.5 13q0 7.5-5.5 13T119 108zm173 65q-5-7-13-11t-17-4H37q-9 0-16.5 4t-13 10.5q-5.5 6.5-7 15T1 204q8 27 39 58 29 29 60 46h100q31-17 59-46 32-31 40-58 2-8 0-16t-7-15z"/></svg>