<svg viewBox="0 0 300 320" xmlns="http://www.w3.org/2000/svg"><path d="M138 220v50q0 13-8 23t-21 13q-7 2-15 2-23 0-41-13.5T28 260q-13-9-20.5-22.5t-7.5-30Q0 191 9 177q-9-15-9-30.5T6.5 118Q13 105 25 96v-1q0-17 11-30.5T64 47q4-17 17.5-28T112 8h1q10 0 17.5 7.5T138 33v75h-29q-3-6-9-9t-13-4q-10 0-17 7.5t-7 18q0 10.5 7 17.5t18 7q6 1 12-2.5t9-9.5h29v62h-29q-3-5-9-8.5T87 183q-10 0-17 7.5T63 208q0 10 7 17.5t18 7.5q6 0 12-3.5t9-9.5h29zm162-75q0-14-6.5-27T275 96v-1q0-17-11-30.5T236 47q-4-17-17.5-28T187 8q-10 0-17 7.5T163 33v125h37v-16q-6-3-9.5-9t-2.5-13q0-10 7-17.5t17.5-7.5q10.5 0 18 7.5T238 120q0 7-3.5 13t-9.5 9v41h-62v87q0 13 7.5 23t20.5 13q7 2 15 2 23 0 41-13.5t25-34.5q13-9 20.5-22.5t7.5-30q0-16.5-9-30.5 9-15 9-32z"/></svg>