<svg viewBox="0 0 300 320" xmlns="http://www.w3.org/2000/svg"><path d="M300 195q0 21-14.5 35.5T250 245q-21 0-35.5-14.5T200 195h25q0 11 7.5 18t17.5 7.5q10 .5 17.5-7t7.5-18q0-10.5-7.5-18T250 170H125v-25h88q15 0 26-10.5t11-26.5q0-16-11-27t-26.5-10.5q-15.5.5-26.5 11T175 108v12h-25v-12q0-21 12-37.5T194 48q20-6 39 1t30.5 24q11.5 17 11 37.5T261 147q17 4 28 17.5t11 30.5zm-200-50H0v25h100v-25zm38-87q0-21-15-35.5T87.5 8Q67 8 52.5 22.5T37 58h26q0-10 7-17.5T87.5 33q10.5 0 18 7.5T113 58q0 10-7.5 17.5T87 83H0v25h88q20 0 35-14.5T137 58h1zm0 150H0v25h138q10 0 17 7.5t7.5 17.5q.5 10-7 17.5t-18 7.5q-10.5 0-17.5-7.5t-7-17.5H88q0 21 14.5 35.5t35 14.5q20.5 0 35.5-14.5t15-35.5q0-21-15-35.5T138 208z"/></svg>