<svg viewBox="0 0 300 320" xmlns="http://www.w3.org/2000/svg"><path d="M138 83zm25 0zm5 60l40 40 46-46q-6-14-16-24.5T215 96l-47 47zm-58 58l40 40 40-41-40-40-40 41zm23-58L85 95q-13 7-23.5 17.5T46 138l46 45 41-40zm-21-56l38 38 38-38q3-18 13.5-30T225 45V20q-25 2-43 20t-19 43V8h-25v75q-2-25-20-43T75 20v25q13 1 23.5 12.5T112 87zm55 172l41 40q14-5 25-15t18-24l-43-42-41 41zm94-94l-35 35 33 34q4-19 4-38 0-16-2-31zM120 306q15 2 30 2t29-2l-29-30-30 30zm-28-87l-42 42q6 13 17 23t25 15l40-40-40-40zm-53-53q-2 15-2 29 0 20 4 40l33-34-35-35z"/></svg>