<svg viewBox="0 0 300 320" xmlns="http://www.w3.org/2000/svg"><path d="M200 108q-31 0-57 18l7 15q23 36 25 80 1 41-19 77 28 13 58.5 8.5t53-25q22.5-20.5 29.5-51t-4-59q-11-28.5-36.5-46T200 108zm13 100q-6 0-9.5-3.5t-3.5-9q0-5.5 3.5-9t9-3.5q5.5 0 9 3.5t3.5 9q0 5.5-3.5 9T213 208zm25-38q-6 0-9.5-3.5T225 158q0-5 3.5-9t9-4q5.5 0 9 4t3.5 9q0 5-3.5 9t-8.5 4v-1zm25 38q-6 0-9.5-3.5t-3.5-9q0-5.5 3.5-9t9-3.5q5.5 0 9 3.5t3.5 9q0 5.5-3.5 9T263 208zm-135-56q20 32 22 68 1 23-6.5 45T121 304l-3 4H32l-3-4q-15-17-22.5-39T0 220q2-36 22-68 6-12 9-19h88q3 7 9 19zM31 81q-5-11-6-23 0-21 14.5-35.5T75 8q21 0 35.5 14.5T125 58q-1 12-6 23-4 13-7 27H38q-3-14-7-27z"/></svg>