<svg viewBox="0 0 300 320" xmlns="http://www.w3.org/2000/svg"><path d="M263 208v-50q-1-26-12-49t-31-39h33q5 8 12.5 11t16 1q8.5-2 13.5-9t5-15.5q0-8.5-5.5-15T281 34q-8-2-15.5 1T253 45h-55q-4-16-17.5-26.5T150 8q-17 0-30.5 10.5T102 45H47q-5-7-12.5-10t-16-1Q10 36 5 43T0 58.5q0 8.5 5.5 15T19 82q8 2 15.5-1T47 71h33q-20 15-31 38t-11 49v50H0v62q0 16 11 27t26 11h63V208H63v-50q0-23 11.5-43.5T107 82q6 12 17.5 19t25.5 7q14 0 25.5-7T193 82q21 12 32.5 32.5T238 158v50h-38v100h63q15 0 26-11t11-27v-62h-37z"/></svg>