<svg viewBox="0 0 300 320" xmlns="http://www.w3.org/2000/svg"><path d="M188 89q0 3-2 5t-4 2h-7V83h7q2 0 4 2t2 4zm-6-31h-7v12h7q2 0 4-1.5t2-4q0-2.5-2-4.5t-4-2zm-19 101q-1-9-6.5-16.5T142 133q-12-2-20.5 6t-8.5 19v110l-27-22q-9-8-21-7.5t-20 9q-8 8.5-7.5 20.5t8.5 20l23 20h206v-50l-112-44v-55zM300 45v100H186q-4-16-17.5-26.5t-31-10.5q-17.5 0-31 10.5T89 145H0V45q0-15 11-26T38 8h225q15 0 26 11t11 27v-1zM85 71q-4-2-11-4l-2-1q-2-1-1.5-3.5T75 59q4-1 9 1l4 2 7-9q-3-3-7-5-9-4-17-1-6 1-9 5t-4 9q-2 10 8 16l15 6q7 3 6.5 6t-3 4.5Q82 95 79 95q-8 0-13-5l-9 9q8 9 22 9 8 0 13.5-4.5t7-11q1.5-6.5-2-12.5T85 71zm65-26h-12v44q0 3-2 5t-4.5 1.5q-2.5-.5-4.5-2t-2-4.5V45h-12v44q0 8 5 13.5t13 5.5q8 0 13.5-5.5T150 89V45zm45 32q5-6 5-13.5t-5.5-13Q189 45 182 45h-19v63h19q7 0 12.5-5.5T200 89q0-8-5-12zm40-6q-4-2-11-4l-2-1q-2-1-1.5-3.5T225 59q4-1 9 1l4 2 7-9q-3-3-7-5-9-4-17-1-6 1-9 5t-4 9q-2 10 8 16l15 6q7 3 6.5 6t-3 4.5Q232 95 229 95q-8 0-13-5l-9 9q8 9 22 9 8 0 13.5-4.5t7-11q1.5-6.5-2-12.5T235 71z"/></svg>