<svg viewBox="0 0 300 320" xmlns="http://www.w3.org/2000/svg"><path d="M63 117V27q0-9 6.5-14.5t14-4.5q7.5 1 12 7t4.5 13v91q-10-5-22-5-8 0-15 3zm150 60v-50q0-8-5.5-13.5T194 108q-8 0-13.5 5.5T175 127v50q0 8 5.5 13t13.5 5q8 0 13-5t6-13zm-50 0v-50q0-8-5.5-13.5T144 108q-8 0-13.5 5.5T125 127v50q0 8 5.5 13t13.5 5q8 0 13.5-5t5.5-13zm93-157q-8 0-13 5.5T238 39v138q0 18-13 30.5T194 220q-14 0-25-7-11 7-25 7-11 0-20-4t-15-12l-23 23-18-17 28-28q1-2 4-6 4-7 3-15t-8-15q-7-7-17-7t-18 8l-40 40q-8 7-8 17.5t8 17.5l85 86h170V39q0-8-5.5-13.5T256 20z"/></svg>