<svg viewBox="0 0 300 320" xmlns="http://www.w3.org/2000/svg"><path d="M225 158q-20 0-37.5 10T160 195.5Q150 213 150 233t10 37.5q10 17.5 27.5 27.5t37.5 10q20 0 37.5-10t27.5-27.5q10-17.5 10-37.5t-10-37.5Q280 178 262.5 168T225 158zm30 93l-27 27-18-18 15-15h-37v-25h37l-14-13 18-18 26 26q7 8 7 18t-7 18zM175 70H88V8h87v62zm-43 200H0V45q0-15 11-26T38 8h25v87h137V8l63 62v70q-19-7-38-7-32 0-58 19-6-9-15.5-14t-20.5-5q-18 0-30.5 13T88 176q0 17 11 29.5t27 14.5q-1 8-1 13 0 19 7 37zm16-101q-10 12-16 26h-1q-8 0-13-5t-5-13q0-8 5-13.5t13-5.5q6 0 10.5 3t6.5 8z"/></svg>