<svg viewBox="0 0 300 320" xmlns="http://www.w3.org/2000/svg"><path d="M38 234q-2 33 16 58-24-7-39-28.5T0 214q0-19 8-36 6-13 6-26.5T8 126q-8-17-8-37 0-22 10-40.5T37.5 19Q55 8 74.5 8t36 10q16.5 10 27 27T150 83q-14 15-21 34-5 15-20 20-23 9-40 26-14 14-22.5 32.5T38 234zm238-36q-14 13-31 20-12 4-21.5 13.5T210 253q-7 17-19.5 29.5t-27.5 19q-15 6.5-30 6.5t-27.5-5Q93 298 83 288q-14-14-18.5-33.5t1.5-39Q72 196 87 180q13-13 30-19 13-5 22-14t14-22q6-17 19-30 12-11 25.5-17.5t29-7q15.5-.5 29 4.5T280 91q14 14 18 33t-1.5 39q-5.5 20-20.5 35zm-113 54q0-8-5.5-13.5T144 233q-8 0-13.5 5.5T125 252q0 8 5.5 13t13.5 5q8 0 13.5-5t5.5-13zm37-50q0-8-5.5-13.5T181 183q-8 0-13 5.5t-5 13.5q0 8 5 13t13 5q8 0 13.5-5t5.5-13z"/></svg>