<svg viewBox="0 0 300 320" xmlns="http://www.w3.org/2000/svg"><path d="M150 8q-41 0-75.5 20T20 82.5Q0 117 0 158q2 57 33 95 29 35 73 47.5t88 0q44-12.5 73-47.5 31-38 33-95 0-41-20-75.5T225.5 28Q191 8 150 8zm-44 137q-8 0-13-5t-5-13q0-8 5-13.5t13-5.5q8 0 13.5 5.5T125 127q0 8-5.5 13.5T106 146v-1zm82 82q-1 13-10 22t-22 9h-18v-25h18q3 0 4.5-2t2-4.5q.5-2.5-1.5-4.5t-5-2h-6v-25h6q3 1 5-1t2-4.5q0-2.5-2-4.5t-5-2h-18v-25h18q9 0 16.5 4.5T184 175q4 8 3 17t-6 16q6 8 6 19h1zm6-82q-8 0-13.5-5t-5.5-13q0-8 5.5-13.5T194 108q8 0 13.5 5.5T213 127q0 8-5.5 13.5T194 146v-1z"/></svg>