<svg viewBox="0 0 300 320" xmlns="http://www.w3.org/2000/svg"><path d="M226 97q3-20 12-33 13-18 37-18V20q-24 0-44 15-43-28-93-27-27-1-53 7.5T37 39q22 16 48 24t53 8q40 0 77-18-12 20-14 44-22 3-39.5 17.5t-27 37Q125 174 125 202q0 30 11.5 54t31.5 38q20 14 44.5 14t44.5-14q20-14 31.5-38t11.5-54q0-27-9.5-50T264 114.5Q247 100 226 97zm-26 173q-16 0-27-14t-11-35h26q0 10 3.5 17t8.5 7v25zM147 93q-20-11-43.5-10t-45 15Q37 112 21 137 8 155 3 177t-1 44q3 15 12 28t23 22q19 12 42 12 20 0 39-9-18-34-18-72-1-31 11.5-59.5T147 93zM65 206l-16 19q-7-6-10-14.5T38 194q3-18 15-32l19 17q-7 7-9 18-2 5 2 9z"/></svg>