<svg viewBox="0 0 300 320" xmlns="http://www.w3.org/2000/svg"><path d="M38 283h62v25H38q-16 0-27-11T0 270v-62h25v62q0 6 3.5 9.5T38 283zm237-13q0 6-3.5 9.5T262 283h-62v25h63q15 0 26-11t11-27v-62h-25v62zM263 8h-63v25h63q5 0 8.5 3.5T275 45v63h25V45q0-15-11-26T262 8h1zM25 45q0-5 3.5-8.5T38 33h62V8H38Q22 8 11 19T0 46v62h25V45zm125 200q-24 1-44-11t-31.5-32q-11.5-20-12-44T74 114q12-20 32-32t44-11.5q24 .5 44 12t32 31.5q12 20 11.5 44t-12 44Q214 222 194 234t-44 11zm-31-87q8 0 13.5-5.5t5-13.5q-.5-8-5.5-13.5t-13-5q-8 .5-13.5 5.5t-5.5 13q0 8 5.5 13.5T119 158zm75 35l-13-20q-5 2-11 5-11 5-19.5 5t-18.5-4q-7-3-13-6l-13 20q6 5 14 8 16 7 30 7t30-7q8-3 14-8zm6-54q0-8-5.5-13.5t-13.5-5q-8 .5-13.5 5.5t-5 13q.5 8 5.5 13.5t13 5.5q8 0 13.5-5.5T200 139z"/></svg>