<svg viewBox="0 0 300 320" xmlns="http://www.w3.org/2000/svg"><path d="M213 27q0 8 5 13.5t13 5q8-.5 13.5-5.5t5.5-13q0-8-5.5-13.5T231 8q-8 0-13.5 5.5T212 27h1zm37 62q0 8 5.5 13.5T269 108q8 0 13.5-5.5t5-13.5q-.5-8-5.5-13.5t-13-5q-8 .5-13.5 5.5T250 89zm50 69q0 41-20 75.5T225.5 288Q191 308 150 308t-75.5-20Q40 268 20 233.5T0 158q0-41 20-75.5T74.5 28Q109 8 150 8q7 0 14 1l11 1 1 10q2 29 17.5 54t40.5 40.5q25 15.5 54 17.5l10 1 1 11q1 7 1 14zM106 95q-8 0-13 5.5T88 114q0 8 5 13.5t13 5.5q8 0 13.5-5.5T125 114q0-8-5.5-13.5T106 95zm0 88q-8 0-13 5.5T88 202q0 8 5 13t13 5q8 0 13.5-5t5.5-13q0-8-5.5-13.5T106 183zm88-13q-8 0-13.5 5.5T175 189q0 8 5.5 13.5T194 208q8 0 13.5-5.5T213 189q0-8-5.5-13t-13.5-6z"/></svg>