<svg viewBox="0 0 300 320" xmlns="http://www.w3.org/2000/svg"><path d="M125 33H0V8h125v25zM50 145h25V83h50V58H0v25h50v62zm163-25V42l62-9v50q-10 0-17.5 7.5T250 108q0 10 7.5 17.5T275 133q10 0 17.5-7.5T300 108V33q0-11-8.5-18.5T271 8l-62 9q-9 1-15.5 8.5T187 42v53q-10 0-17 7.5t-7 18q0 10.5 7 17.5t17.5 7q10.5 0 18-7t7.5-18zm62 138q-10 0-17.5 7.5T250 283q0 10 7.5 17.5T275 308q10 0 17.5-7.5T300 283q0-10-7.5-17.5T275 258zm-50-63q0-10-7.5-17.5T200 170q-10 0-17.5 7.5t-7.5 18q0 10.5 7.5 17.5t17.5 7q10 0 17.5-7t7.5-18zm56-24L181 291l19 16 100-120-19-16zm-127 69q-10 14-23 28l22 25-18 17-22-25q-27 23-50 23t-36.5-12Q13 284 13 265t31-53q-6-9-6-16 0-11 7-18t17.5-7q10.5 0 18 7t7.5 18q0 7-7 16l33 37q12-12 20-24l20 15zm-58 26l-34-37q-10 11-17 21t-7 14q0 11 10 16 6 3 15 3 13 0 33-17z"/></svg>