<svg viewBox="0 0 300 320" xmlns="http://www.w3.org/2000/svg"><path d="M300 83q0 20-10 37.5T262.5 148Q245 158 225 158t-37.5-10Q170 138 160 120.5T150 83q0-20 10-37.5T187.5 18Q205 8 225 8t37.5 10Q280 28 290 45.5T300 83zM200 58q0 10 7.5 17.5T225 83q10 0 17.5-7.5T250 58q0-10-7.5-17.5T225 33q-10 0-17.5 7.5T200 58zm63 56q-1-8-6-13t-13-6h-38q-8 1-13.5 6t-5.5 13v2q8 8 17.5 12.5T225 133q11 0 20.5-4.5T262 116v-2h1zm-128 97l-26 27q-8 7-19.5 7T70 237.5q-8-7.5-8-19t8-19.5l27-26-44-44-27 27Q9 173 3 196t0 46q6 23 23 40 13 13 29 19.5t34 6.5q18 0 34-6.5t29-19.5l27-27-44-44zm62 26l22-22-44-44-22 22 44 44zm-82-82l22-22-44-44-22 22 44 44z"/></svg>