<svg viewBox="0 0 300 320" xmlns="http://www.w3.org/2000/svg"><path d="M300 99v46h-26l-40-65-13-6q-15-6-31-10-21-6-40-6-26 0-58 11-15 5-26 11l-40 65H0V99q0-28 20.5-48.5T76 19q35-11 74-11t74 11q35 11 55.5 31.5T300 99zm-150 59q-16 0-26.5 11T113 195.5q0 15.5 10.5 26.5t26.5 11q16 0 26.5-11t11-26.5Q188 180 177 169t-27-11zm150 119v31H0v-31q0-37 20-75l36-57h-1l29-46q12-6 25-10 22-6 41-6t41 6q13 4 25 10l29 46h-1l36 57q20 38 20 75zm-87-82q0-16-8.5-30.5t-23-23Q167 133 150 133t-31.5 8.5Q104 150 96 164.5t-8 31q0 16.5 8 31t22.5 23Q133 258 150 258t31.5-8.5q14.5-8.5 22.5-23t8-30.5l1-1z"/></svg>