<svg viewBox="0 0 300 320" xmlns="http://www.w3.org/2000/svg"><path d="M175 33q0 10-7.5 17.5T150 58q-10 0-17.5-7.5T125 33q0-10 7.5-17.5T150 8q10 0 17.5 7.5T175 33zm73 208q-12 5-24.5 4.5T200 240q-12 5-25 5t-25-5q-12 5-25 5t-25-5q-11 5-23.5 5.5T53 241q-11 4-22 4l6 32q2 14 12.5 22.5T74 308h152q14 0 24.5-9t12.5-22l6-32q-11 0-21-4zM189 64q-7 9-17.5 14T150 83q-11 0-21.5-5T111 64q-30 8-55.5 27T15 136Q0 162 0 189q0 9 5 17t13.5 11.5q8.5 3.5 17.5 2t16-7.5q11 9 24.5 8.5T100 211q11 9 25 9t25-9q11 9 25 9t25-9q10 9 23.5 9.5T248 212q7 6 16 7.5t17.5-2Q290 214 295 206t5-17q0-27-15-53t-40.5-45Q219 72 189 64z"/></svg>