<svg viewBox="0 0 300 320" xmlns="http://www.w3.org/2000/svg"><path d="M238 158l44-43q12-12 16-28t0-32.5Q294 38 282 26 263 8 237.5 8T193 26q-12 12-16 28.5t0 32.5q4 16 16 28l45 43zM50 283q0 10-7.5 17.5T25 308q-10 0-17.5-7.5T0 283q0-10 7.5-17.5T25 258q10 0 17.5 7.5T50 283zm106-100q11 0 18 7.5t7 17.5q0 10-7 17.5t-17.5 7.5q-10.5 0-18-7.5T131 208q0-10 7.5-17.5T156 183zm144 62q0 21-14.5 35.5T250 295H73q2-6 2-12t-2-13h177q10 1 17.5-6.5t7.5-18q0-10.5-7.5-18T250 220h-45q1-6 1-12t-1-13h45q21 0 35.5 15t14.5 36v-1zM25 170q0-20 14.5-34.5T75 120h91q4 7 10 13l13 12H75q-10 0-17.5 7.5t-7.5 18q0 10.5 7.5 18T75 196h33q-2 6-2 12t2 12H75q-21 0-35.5-14.5T25 170z"/></svg>