<svg viewBox="0 0 300 320" xmlns="http://www.w3.org/2000/svg"><path d="M274 145q-3-29-18-53.5T216.5 52Q192 37 163 34V8h-25v26q-30 3-54.5 18T44 91.5Q29 116 26 146H0v24h26q3 30 18 54.5T83.5 264q24.5 15 54.5 18v26h25v-26q29-3 53.5-18t39.5-39.5q15-24.5 18-54.5h26v-25h-26zm-124 75q-17 0-31.5-8T96 189.5Q88 175 88 158t8-31.5q8-14.5 22.5-22.5t31.5-8.5q17-.5 31.5 8t22.5 23q8 14.5 8.5 31.5t-8 31.5q-8.5 14.5-23 22.5t-31.5 8zm38-62q0 16-11 26.5T150 195q-16 0-26.5-10.5T113 158q0-16 10.5-26.5t26.5-11q16-.5 26.5 10.5t10.5 27h1z"/></svg>