<svg viewBox="0 0 300 320" xmlns="http://www.w3.org/2000/svg"><path d="M194 219q-7 12-18.5 19t-25.5 7q-19 0-33-12.5T101 201q7-6 14.5-6t16.5 4q6 3 11.5 7t12.5 8q15 7 28 7 4-1 10-2zm-78-49q13 0 28 7 7 4 12.5 8t11.5 7q9 3 16.5 3t14.5-5q-2-19-16-31.5T150 146q-14-1-25.5 6.5T106 172q6-1 10-1v-1zM275 45v263H25V45q0-15 11-26T63 8h175q15 0 26 11t11 27v-1zM125 64q0 8 5.5 13.5T144 83q8 0 13.5-5.5T163 64q0-8-5.5-13.5t-13.5-5q-8 .5-13.5 5.5T125 64zM81 83q8 0 13.5-5.5T100 64q0-8-5.5-13.5t-13.5-5Q73 46 68 51t-5 13q0 8 5 13.5T81 83zm144 112q0-20-10-37t-27.5-27.5Q170 120 150 120t-37.5 10.5Q95 141 85 158t-10 37.5Q75 216 85 233t27.5 27q17.5 10 37.5 10t37.5-10q17.5-10 27.5-27t10-38z"/></svg>