<svg viewBox="0 0 300 320" xmlns="http://www.w3.org/2000/svg"><path d="M76 183H13v-13q0-43 24.5-78T101 42q2 14 11 24v3q-16 22-25 45-12 29-12 57l1 12zm40-60l-18 18 36 35q6 7 16 7t16-7l36-35-18-18-21 22V55q5-4 8.5-9.5T175 33q0-10-7.5-17.5T150 8q-10 0-17.5 7.5T125 33q0 7 3.5 12.5T138 55v90l-22-22zm-36 85H18q8 28 26.5 50.5T89 294q26 13 56 14l-3-3q-13-11-26-29-26-33-36-68zm78 97l-3 3q30-1 56-14t44.5-35.5Q274 236 282 208h-62q-10 35-36 68-13 18-26 29zm-51-97q12 36 43 70 31-34 43-70h-86zm92-166q-2 14-11 24v3q16 22 25 45 12 29 12 57l-1 12h63v-13q0-43-24.5-78T199 42z"/></svg>