<svg viewBox="0 0 300 320" xmlns="http://www.w3.org/2000/svg"><path d="M188 258q-1 23-16 36t-34.5 13q-19.5 0-34.5-13t-15-36h25q0 10 7 17.5t17.5 7.5q10.5 0 17.5-7.5t7.5-17.5q.5-10-7-17.5T137 233H0v-25h138q20 0 35 14.5t15 35.5zm62-138q23 0 36-15t13-34.5Q299 51 286 36t-36-16q-21 0-35.5 15T200 71h25q0-11 7.5-18t17.5-7.5q10-.5 17.5 7t7.5 18q0 10.5-7.5 17.5T250 95h-50q0 13-3 25h53zm0 25h-62q-6 14-17 26h79q10-1 17.5 6.5t7.5 18q0 10.5-7.5 17.5t-17.5 7q-10 0-17.5-7t-7.5-18h-25q1 24 15.5 37t34.5 13q20 0 34.5-13t15.5-37q0-20-14.5-35T250 145zM37 113l-30-8-6 24 22 6-6 23 24 6 8-29 26-15v29l-22 22 18 18 17-17 16 17 18-18-22-22v-29l26 14 8 30 24-6-6-23 22-6-6-24-30 8-25-15 25-14 30 8 6-24-22-7 6-22-24-7-8 30-26 15V47l22-22-18-17-16 16L71 8 53 25l22 22v30L49 62l-8-30-24 7 6 22-22 7 6 24 30-8 25 14-25 15z"/></svg>