<svg viewBox="0 0 300 320" xmlns="http://www.w3.org/2000/svg"><path d="M250 97q-1 0 0 0zM63 95q-17 0-31.5 8.5t-23 23Q0 141 0 158V45q0-15 11-26T38 8h175q15 0 26 11t11 27v49H63zm100-25h50V45h-50v25zM38 70h100V45H38v25zm262 88v125h-98l-23 19q-7 6-16.5 6t-16.5-6l-22-19H25V158q0-15 11-26t27-11h200q15 0 26 11t11 26zm-187 37H85l-7-28h-6l-7 28H38v6l20 12-8 25 5 4 20-16 20 16 5-4-8-25 20-12v-5l1-1zm87 0h-27l-7-28h-6l-8 28h-27v6l21 12-8 25 4 4 21-16 20 16 5-4-9-25 21-12v-6zm88 0h-28l-7-28h-6l-7 28h-27v6l20 12-8 25 5 4 20-16 20 16 5-4-8-25 20-12v-5l1-1z"/></svg>