<svg viewBox="0 0 300 320" xmlns="http://www.w3.org/2000/svg"><path d="M285 153q6 5 15 5v25q-17 0-30-10-3-2-7.5-2t-7.5 2q-13 10-30 10t-30-10q-3-2-7.5-2t-7.5 2q-13 10-30 10t-30-10q-3-2-7.5-2t-7.5 2q-13 10-30 10t-30-10q-3-2-7.5-2t-7.5 2q-13 10-30 10v-25q9 0 15-5 10-7 22.5-7t22.5 7q6 5 15 5t15-5q10-7 22.5-7t22.5 7q6 5 15 5t15-5q10-7 22.5-7t22.5 7q6 5 15 5t15-5q10-7 22.5-7t22.5 7zM0 208h300v50q0 16-11 26.5T262 295H38q-16 0-27-10.5T0 258v-50zM300 70v50H0V70q0-15 11-26t27-11h225q15 0 26 11t11 27v-1z"/></svg>