<svg viewBox="0 0 300 320" xmlns="http://www.w3.org/2000/svg"><path d="M25 39q0-13 9-22t22-9q13 0 22 9t9.5 22q.5 13-9 22.5t-22.5 9Q43 70 34 61t-9-22zM175 8l50 31-50 31v38h-75v200H75v-75H50v75H25v-75H0V120q0-15 11-26t27-11h112V8h25zm13 175q12 0 21.5-9t9.5-22q0-13-9.5-22.5t-22-9q-12.5.5-22 9.5t-9.5 22q0 13 9.5 22t22.5 9zm37 44v81h-25v-25h-25v25h-25v-81q0-13 9-22.5t22-9.5h13q13 1 22 10t9 22zm69-125q0-13-9.5-22.5t-22-9.5q-12.5 0-22 9.5T231 102q0 13 9.5 22t22 9q12.5 0 22-9t9.5-22zm-25 43h-26l1 7q0 19-12 34 9 8 13.5 18.5T250 227v6h25v25h25v-81q0-13-9-22.5t-22-9.5z"/></svg>