<svg viewBox="0 0 300 320" xmlns="http://www.w3.org/2000/svg"><path d="M262 245h38v25h-38v38h-25v-38h-37v-25h37v-37h25v37zM150 83q-20 0-37.5 10T85 120.5Q75 138 75 158t10 37.5Q95 213 112.5 223t37.5 10q20 0 37.5-10t27.5-27.5q10-17.5 10-37.5t-10-37.5Q205 103 187.5 93T150 83zm0 94q-8 0-13.5-5.5T131 158q0-8 5.5-13.5T150 139q8 0 13.5 5.5T169 158q0 8-5.5 13.5T150 177zm25 81v-3q-13 3-25 3-27 0-50-13.5T63.5 208Q50 185 50 158t13.5-50Q77 85 100 71.5T150 58q27 0 50 13.5t36.5 36.5q13.5 23 13.5 50 0 12-3 25h3q29 0 50 19V45q0-15-11-26T263 8H38Q22 8 11 19T0 45v263h194q-19-21-19-50z"/></svg>