<svg viewBox="0 0 300 320" xmlns="http://www.w3.org/2000/svg"><path d="M300 248V46q0-9-4-17t-11-13.5q-7-5.5-16-7T251 9q-54 15-88 17v219h-25V26q-35-2-89-17-9-2-18-.5t-16 7Q8 21 4 29T0 46v202l8 3q37 14 77 21-46 11-85 11v25q37 0 80-9 29-7 58-17l12-4 13 4q28 10 57 17 43 9 80 9v-25q-39 0-85-11 40-7 77-21l8-3zm-187-11q-47-4-88-18v-26q41 15 87 19v25h1zm0-50q-47-4-88-18v-26q41 15 87 19v25h1zm0-50q-47-4-88-18V93q41 15 87 19v25h1zm0-50q-47-4-88-18V43q41 15 87 19v25h1zm162 132q-41 14-87 18v-25q46-4 87-19v26zm0-50q-41 14-87 18v-25q46-4 87-19v26zm0-50q-41 14-87 18v-25q46-4 87-19v26zm0-50q-41 14-87 18V62q46-4 87-19v26z"/></svg>