<svg viewBox="0 0 300.0027 320" xmlns="http://www.w3.org/2000/svg"><path d="M269.003 8q4 4 8 9 9 11 15 21 8 15 8 27t-9 21q-9 9-22 9t-22-9q-9-9-9-21t8-26q5-11 15-22l8-9zm25 106q12 43 0 85.5t-45 71.5q-33 29-77 35.5t-84-12q-40-18.5-64-55.5t-24-81q-1-41 20-76 20-33 54.5-53t72.5-21q41-1 76 19-11 18-10 37.5t12.5 34.5q11.5 15 29.5 20t39-5zm-231 31h25q0-9 4.5-16.5t7.5-8q3-.5 8 7.5t4 17h26q-2-23-12.5-36t-25.5-13q-15 0-25.5 13t-12.5 37l1-1zm162 38q-37 12-75 12t-75-12q7 25 25 42 21 20 50 20t50-20q18-17 25-42zm13-38q-2-23-13-36t-25.5-13q-14.5 0-25 13t-11.5 37h25q0-10 4.5-17.5t7.5-8q3-.5 8 7.5t5 17h25z"/></svg>