<svg viewBox="0 0 300 320" xmlns="http://www.w3.org/2000/svg"><path d="M212 34q-13-13-28.5-19.5T150 8q-18 0-33.5 6.5T88 34Q71 50 65.5 73t0 45.5Q71 141 88 157l62 61 62-61q12-12 19-28t6.5-33.5q-.5-17.5-7-33.5T212 34zm-62 99q-16 0-26.5-11T113 95.5Q113 80 123.5 69T150 58q16 0 26.5 11t11 26.5Q188 111 177 122t-27 11zM10 233h79l-9 75H0v-21l10-54zm83-35l-1 10H14l13-75h17q8 24 27 42l22 23zm207 91v19h-80l-9-75h79l10 56zm-114-56l9 75h-90l9-75h16l20 20 20-20h16zm100-25h-78l-1-10 23-23q18-18 26-42h17l13 75z"/></svg>