<svg viewBox="0 0 300 320" xmlns="http://www.w3.org/2000/svg"><path d="M225 233q0 5-3.5 8.5t-9 3.5q-5.5 0-9-3.5T200 233q0-5 3.5-9t9-4q5.5 0 9 4t3.5 9zm25-38q-5 0-8.5 4t-3.5 9q0 5 3.5 8.5t8.5 3.5q5 0 9-3.5t4-8.5q0-5-4-9t-9-4zm0 50q-5 0-8.5 4t-3.5 9q0 5 3.5 8.5t8.5 3.5q5 0 9-3.5t4-8.5q0-5-4-8.5t-9-3.5v-1zm38-25q-6 0-9.5 4t-3.5 9q0 5 3.5 8.5t9 3.5q5.5 0 9-3.5t3.5-8.5q0-5-3.5-8.5T288 221v-1zm0-50q-6 0-9.5 4t-3.5 9q0 5 3.5 8.5t9 3.5q5.5 0 9-3.5t3.5-8.5q0-5-3.5-9t-8.5-4zm-88-2v27h-29l-6 43q-2 14-12.5 23t-24.5 9h-28v38H0V13q10-3 18-4 38-5 72.5 9.5T148 63q9 12 21 36 8 15 22 48l9 21zm88 102q-6 0-9.5 4t-3.5 9q0 5 3.5 8.5t9 4q5.5.5 9-3.5t3.5-9q0-5-3.5-9t-8.5-4z"/></svg>