<svg viewBox="0 0 300 320" xmlns="http://www.w3.org/2000/svg"><path d="M300 233q0 20-10 37.5T262.5 298Q245 308 225 308t-37.5-10Q170 288 160 270.5T150 233q0-15 8-29 6-10 17-22l2 7q4 7 6 12 5 7 9 7t8-8q2-5 5.5-20.5T212 156q5-14 13-23 5 5 18 16 27 24 38 37 19 24 19 47zm-57 7l-18-17-18 17q-7 8-7 18t7.5 17.5Q215 283 225 283t17.5-7.5Q250 268 250 258t-7-18zm-8-132l24 22q24 21 35 33l5-55h-64zm65-63q0-15-11-26T263 8h-25v75h62V45zM63 8H38Q22 8 11 19T0 46v37h63V8zm62 225q0-21 11-41 7-13 21-27l22-21 27-27 8-9H1l13 137h112q-1-6-1-12zm-75 39q0 15 11 25.5T87.5 308q15.5 0 26.5-10.5t11-25.5v-2H50v2zM138 8H88v75h50V8zm75 0h-50v75h50V8z"/></svg>