<svg viewBox="0 0 300 320" xmlns="http://www.w3.org/2000/svg"><path d="M300 258v12q0 16-11 27t-27 11H38q-16 0-27-11T0 270v-12h102l10 12h76l10-12h102zM274 8h-73q-11 0-18.5 7.5T175 34v61h32l17 14q6 5 13 5t12-4l17-15h34V34q0-11-7.5-18.5T274 8zm1 125v100h-88l-11 12h-52l-10-12H25V83h125v50q0 10 7.5 17.5T175 158q10 0 17.5-7.5T200 133h75zm-200 0q0 10 7.5 17.5T100 158q10 0 17.5-7.5T125 133q0-10-7.5-17.5T100 108q-10 0-17.5 7.5T75 133zm138 56q-1-8-6-13.5t-13-5.5h-38q-8 1-13.5 6t-5.5 13q0-8-5-13.5t-13-5.5H81q-8 1-13 6t-5 13v19h150v-19z"/></svg>