<svg viewBox="0 0 300 320" xmlns="http://www.w3.org/2000/svg"><path d="M250 164q-5 0-8 3l-54 55v-14q0-5-4-8.5t-9-3.5q-5 0-8.5 3.5T163 208v45q0 16 7.5 28.5t20 19.5q12.5 7 26.5 7 22 0 38-16l43-43q2-3 2-7t-3-7q-3-3-7.5-3t-7.5 3l-23 23-12-12 46-45q3-3 3-7.5t-3.5-7.5q-3.5-3-7.5-3t-7 3l-46 45-12-12 37-37q3-3 3-7.5t-3-7.5q-3-3-7-3zm-199 0q-4 0-7.5 3t-3.5 7.5q0 4.5 4 7.5l37 37-13 12-45-45q-3-3-7.5-3T8 186q-3 3-3 7.5t3 7.5l45 45-12 12-23-23q-3-3-7.5-3t-7 3q-2.5 3-3 7t2.5 7l42 43q16 16 39 16 14 0 26-7t20-19.5q8-12.5 8-28.5v-45q0-5-3.5-8.5t-9-3.5q-5.5 0-9 3.5T113 208v14l-55-55q-3-3-7-3zm-32-6q3-5 7-8 10-10 25-10t25 10l28 27q9-6 21-6 15 0 25 9 11-9 25-9 12 0 22 6l28-27q10-10 25-10t25 10q4 3 6 8 10-1 19 3v-3q0-41-20-75.5T225.5 28Q191 8 150 8T74.5 28Q40 48 20 82.5T0 158v4q10-5 19-4zM200 45q16 0 27 16t11 35h-25q0-10-5-17.5t-8-8q-3-.5-8 7.5t-5 17h-24q0-18 10.5-33.5T200 46v-1zm4 66l17 19q-9 7-22 14-25 14-49 14t-49-14q-13-7-22-14l17-19q6 5 16 11 20 11 38 11t38-11q10-6 16-11zM100 45q16 0 27 16t11 35h-25q0-10-5-17.5t-8-8q-3-.5-7.5 7.5T88 95H63q-1-18 10-34t27-15v-1z"/></svg>