<svg viewBox="0 0 300 320" xmlns="http://www.w3.org/2000/svg"><path d="M100 233H37q-15 0-26 11T0 270.5Q0 286 11 297t26 11h63v-75zm55-99q-21-10-28-15h-1l-53 53 55 27 52-52-25-13zM50 159l53-53Q80 92 75 88q-1-1 0-2.5t2-1.5l23-1h25V8H94Q54 8 31 24 13 35 5 56 0 69 0 83q0 26 15 46 12 16 35 30zm151 0l2 2-51 50q32 17 35 22h-62v75h53q50 0 71-29 14-19 13-46 1-21-18-41-15-16-43-33zM244 8h-94v75h39q6 17 21 27t34 10h25q13 0 22-9t9-22V64q0-23-16.5-39.5T244 8zm6 81q-8 0-13.5-5.5t-5.5-13q0-7.5 5.5-13T250 52q8 0 13.5 5.5t5.5 13q0 7.5-5.5 13T250 89z"/></svg>