<svg viewBox="0 0 300.0021 320" xmlns="http://www.w3.org/2000/svg"><path d="M118.002 128q-15-42-13-71 1-21 17-35.5t37.5-13.5q21.5 1 35.5 17t13 38q-1 14-12 31-7 10-24 27-10-7-23-7-18 0-31 14zm13 30q0 8 5.5 13.5t13 5.5q7.5 0 13-5.5t5.5-13.5q0-8-5.5-13.5t-13-5.5q-7.5 0-13 5.5t-5.5 13.5zm155-28q-14-16-36-17-29-2-71 13 14 13 14 32 0 12-6 22l2 3q17 16 26 22 16 11 29.5 11t22-3q8.5-3 15.5-10 16-14 17.5-35.5t-13.5-37.5zm-137 72q-11 0-22-6-16 17-23 27-11 16-12 30.5t5.5 27q6.5 12.5 18 20t25.5 7.5q22 0 37.5-13.5t16.5-35.5q2-29-14-71-13 14-32 14zm-43-44q0-12 6-23-17-16-27-23-16-11-30-12-22-1-38 13t-17 35.5q-1 21.5 13 37.5 7 8 18 12.5t23 4.5q28 0 66-13-14-13-14-32z"/></svg>