<svg viewBox="0 0 300 320" xmlns="http://www.w3.org/2000/svg"><path d="M225 258h25v12q-20 18-46 28t-54 10q-38 0-70.5-17.5t-53.5-48Q5 212 1 175q7 3 12 8 16 12 37 12t37-12q7-6 16-9 5 15 18 24.5t29 9.5q14 0 25-6.5t18-18.5q3 1 5 3.5t2 5.5v41q0 10 7.5 17.5T225 258zM156 8q-40-2-75 16.5T24.5 76Q3 109 0 148q16 5 29 15 9 7 21 7t21-7q14-11 30-15 3-17 17-28.5t32-11.5q21 0 35.5 14.5T200 158q10 0 17.5 7.5T225 183v50h25v-63q0-5 3.5-8.5t9-3.5q5.5 0 9 3.5t3.5 9.5v99h25V163q0-40-19-75t-52-56.5Q196 10 156 8z"/></svg>