<svg viewBox="0 0 300 320" xmlns="http://www.w3.org/2000/svg"><path d="M300 64q-1-15-11-25-6-7-21-15-11-5-25-11l-11-5 5 12q6 15 8 28-13-2-28-8-7-3-12-5l5 11q6 14 11 25 8 14 15.5 21.5t18 9.5q10.5 2 20.5-1v32q0 5-3.5 8.5T263 145h-16q-11-37-59-46V83h-25v13l-13-1-12 1V83h-25v16q-49 9-60 46H38q-6 0-9.5-3.5T25 133v-32q10 3 20.5 1t18-9.5Q71 85 79 71q5-11 11-25l5-11-12 5q-15 6-28 8 2-13 8-28 3-7 5-12l-11 5q-14 6-25 11-14 8-21 15Q1 49 0 64v69q0 16 11 26.5T38 170h12q1 15 12 38H39l-29 29 18 17 21-21h26q8 14 18 27l-30 30 18 18 37-37h64l37 37 18-18-29-30q10-13 18-27h25l21 21 18-17-29-29h-21q10-22 10-37h13q15-1 26-11.5t11-26.5V64z"/></svg>