<svg viewBox="0 0 300 320" xmlns="http://www.w3.org/2000/svg"><path d="M234 72q-14-25-36.5-41T148 10q-27-5-54.5 2T45 37Q24 55 12 80T0 133v12q0 45 22 82t59 59q37 22 82 22 24 0 46-11.5t36-31.5q14-20 17-45 21-13 31-36t5.5-47.5Q294 112 276 94.5T234 72zm-84 186q-5 0-9-3.5t-3.5-9q.5-5.5 4-9t8.5-3.5q5 0 9 3.5t4 9q0 5.5-4 9t-9 3.5zm-31-50q-19 0-35-9t-25-25q-9-16-9-34.5t9-34.5q9-16 25-25.5t34.5-9.5q18.5 0 34.5 9.5t25.5 25.5q9.5 16 9 34.5t-9.5 34q-9 15.5-25 25t-34 9.5zm69 25q-6 0-9.5-3.5t-3.5-9q0-5.5 3.5-9t9-3.5q5.5 0 9 3.5t3.5 9q0 5.5-3.5 9T188 233zm50-75q-6 0-9.5-3.5t-3.5-9q0-5.5 3.5-9t9-3.5q5.5 0 9 3.5t3.5 9q0 5.5-3.5 9T238 158zm-75-19q0 18-13 31t-31 13q-18 0-31-13t-13-31q0-18 13-31t31-13q18 0 31 13t13 31z"/></svg>