<svg viewBox="0 0 300 320" xmlns="http://www.w3.org/2000/svg"><path d="M300 54q-1-11-6.5-21T278 17q-12-9-28-9t-29.5 9.5Q207 27 202 43.5t1 32.5q3 8-2 13l-19 19-16-16q-8-9-20.5-9T124 92l-15 15q-9 9-9 21t9 21l16 16-18 18-16-16q-9-8-21-8t-21 8l-15 15q-9 9-9 21.5t9 20.5l16 17-49 49 17 17 49-49 17 16q8 9 20.5 9t21.5-9l15-15q9-9 9-21t-9-21l-16-16 18-18 16 16q9 9 21 9t21-9l15-15q9-9 9-21t-9-21l-16-16 19-19q8-8 10-18.5T227 67q-3-8-1-16t9-13q7-5 15-5t14 4q10 7 11 18.5T268 76l17 17q8-8 12-18t3-21z"/></svg>