<svg viewBox="0 0 300 320" xmlns="http://www.w3.org/2000/svg"><path d="M143 204l66 66H0V83q0-9 5-18l42 43q-9 15-9 34v32q0 25 15 42t38 17h6q15 0 27-8t19-21zm137 66h20V83q0-15-11-26.5T263 45H55L18 8 0 26l65 64q12-7 26-7h6q15 0 27 8t19 21l2 3-23 10q-4-8-10.5-12.5T97 108h-6q-4 0-7 1l81 81q-2-8-2-17v-31q0-25 15-42t38-17h6q15 0 27 7.5t19 21.5l2 3-23 10q-4-8-10.5-12.5T222 108h-6q-12 0-20 9.5t-8 24.5v31q0 16 8 25.5t20 9.5h6q8 0 15-4.5t10-13.5l23 10-2 4q-7 13-19 21t-27 8h-6q-5 0-9-1l76 76 17-18-20-20zM63 174q0 15 7.5 24.5T91 208h6q10 0 17-6t10-17l-59-59q-2 7-2 16v32z"/></svg>