<svg viewBox="0 0 300 320" xmlns="http://www.w3.org/2000/svg"><path d="M225 158q-20 0-37.5 10T160 195.5Q150 213 150 233t10 37.5q10 17.5 27.5 27.5t37.5 10q20 0 37.5-10t27.5-27.5q10-17.5 10-37.5t-10-37.5Q280 178 262.5 168T225 158zm34 84l-34 34v-30h-37v-25h37v-31l34 33q3 4 3 9.5t-3 9.5zm-234-9q-14 0-25 10V45q0-15 11-26T38 8h12v225H25zm100 0H75V8h150q10 0 17.5 7.5T250 33v103q-12-3-25-3-27 0-50 13.5T138.5 183Q125 206 125 233zm34 75H25q-10 0-17.5-7.5T0 283q0-10 7.5-17.5T25 258h103q8 30 31 50z"/></svg>