<svg viewBox="0 0 300 320" xmlns="http://www.w3.org/2000/svg"><path d="M263 233q-8 0-15 3l-53-60q5-8 5-18t-5-18l52-60q8 3 16 3 15 0 26-11t11-26.5Q300 30 289 19T262 8q-12 0-21.5 7T227 33H73q-4-11-13.5-18T38 8Q22 8 11 19T0 46q0 12 7 21.5T25 81v154q-11 4-18 13.5T0 270q0 16 11 27t27 11q12 0 21.5-7T73 283h154q4 11 13.5 18t22.5 7q15 0 26-11t11-26.5q0-15.5-11-26.5t-27-11h1zM73 58h154l2 5-53 60q-6-3-13-2-16-1-27 10t-11 27q0 16 11 26.5t26 10.5q8 0 15-2l52 60-2 5H73q-3-8-9-14t-14-9V81q8-3 14-9t9-14z"/></svg>