<svg viewBox="0 0 300 320" xmlns="http://www.w3.org/2000/svg"><path d="M127 199l10-10-18-18-10 10q-10-7-21-9v-14H63v14q-12 2-22 9l-10-10-18 18 10 10q-7 10-9 22H0v24h14q2 12 9 22l-10 10 18 18 10-10q10 7 22 9v14h25v-14q11-2 21-9l10 10 18-18-10-10q7-10 9-21h14v-26h-14q-2-11-9-21zm-52 46q-5 0-8.5-3.5T63 233q0-5 3.5-8.5t8.5-4q5-.5 8.5 3.5t4 9q.5 5-3.5 8.5t-9 3.5zm200 13q-1 23-15.5 36T225 307q-20 0-34.5-13T176 258q0-23 14.5-36t34.5-13q20 0 34.5 13t15.5 36zm25-113v30l-22 30q-15-15-34.5-19.5t-38.5.5q-19 5-34 20-7-27-27-45.5T97 136q-27-6-53 1.5T0 167v-22q0-15 11-26t27-11h187V70h25v38h13q15 0 26 11t11 27v-1zM179 83H38V8h73q10 0 18.5 4.5T143 26l36 57z"/></svg>