<svg viewBox="0 0 300 320" xmlns="http://www.w3.org/2000/svg"><path d="M300 211q0 19-8.5 35.5t-23.5 26q-15 9.5-33 10.5h-22v25h-25v-25h-25v25h-25v-25q18 0 33.5-9t25-24q9.5-15 9.5-32 0-22-9-47-6-15-20-43-9-18-12-26l-1-1q-14-34-14-49V8h50v39q0 22 16 37 4 5 17 16 20 17 30 28 17 18 26 36 11 23 11 47zm-206 7q0 16 13 28t30.5 12q17.5 0 30.5-12t13-29q0-17-8-39-5-13-18-38l-14-28-4-12q-1 7-3 12l-14 28q-13 25-18 38-8 22-8 40zm19 90v-30q-20-7-32-23.5T69 217q0-21 9-46 6-15 20-43 9-18 12-26 15-35 15-51V8h-25v39q0 22-16 37-4 5-17 16-20 17-30 28-17 18-26 36-11 22-11 47 0 19 8.5 35.5t23.5 26Q47 282 65 283h22v25h26z"/></svg>