<svg viewBox="0 0 300 320" xmlns="http://www.w3.org/2000/svg"><path d="M273 203l7-8 1 1q8-1 13.5-6t5.5-13q0-8-5.5-13.5T281 158q-8 0-13 5.5t-5 13.5l-8 8q-8-5-17-7v-20h-25v20q-10 2-18 7l-8-7v-1q0-8-5-13.5t-13-5.5q-8 0-13.5 5.5T150 177q0 8 5.5 13.5T169 196v-1l9 8q-6 8-8 17h-20v25h20q2 10 8 18l-8 8-1-1q-8 0-13.5 5.5T150 289q0 8 5.5 13.5T169 308q8 0 13.5-5.5T188 289h-1l8-9q8 6 18 8v20h25v-20q9-2 17-7l8 7v1q0 8 5 13.5t13 5.5q8 0 13.5-5.5T300 289q0-8-5.5-13t-13.5-5l-8-8q5-8 7-18h20v-25h-20q-2-9-7-17zm-124-95h26V83h-26q-3-12-9-22l15-16h1q8 0 13.5-5t5.5-13q0-8-5.5-13.5T156 8q-8 0-13.5 5.5T137 27l1 1-16 15q-10-6-22-9V8H75v26q-12 3-22 9L37 28l1-1q0-8-5.5-13.5T19 8q-8 0-13.5 5.5T0 27q0 8 5.5 13T19 45h1l15 16q-6 10-9 22H0v25h26q3 12 9 22l-15 16h-1q-8-1-13.5 4.5T0 164q0 8 5.5 13.5T19 183q8 0 13-5.5t5-13.5v-1l16-15q10 6 22 9v26h25v-26q18-4 31.5-17.5T149 108z"/></svg>