<svg viewBox="0 0 300 320" xmlns="http://www.w3.org/2000/svg"><path d="M200 308q-16 0-30-8-17 9-36 8t-36-11q-16 11-35.5 11t-35-11q-15.5-11-23-29t-3-36q4.5-18 17-30.5t29-16.5q16.5-4 32.5 0 10-12 25-19t31.5-7.5q16.5-.5 31.5 6t26 18.5q16-1 31 5.5t25 19.5q10-1 19 2 11 3 19 11t11 19.5q3 11.5-.5 23.5T286 284q-9 8-21.5 10.5T241 293q-18 15-41 15zM42 160q14-3 29-2 19-16 42.5-22t47.5 0q24 6 43 22 16 1 31 7.5t26 17.5q8 1 15 3 10 3 19 9 6-13 5-27t-7.5-26.5q-6.5-12.5-17.5-21T249.5 109q-14.5-3-29.5 1-12-14-29-21t-35.5-5.5Q137 85 121.5 95T97 121q-20-4-37.5 8T38 161l4-1zm-24-17q8-21 26-34t41-14q13-15 31-25t38.5-11.5q20.5-1.5 40 5T229 83q13-1 26 2 18 4 32 14v-1q2-15-8.5-27T253 58q-11-16-29.5-22T187 36q-11-14-27.5-21.5t-34.5-6q-18 1.5-33 12T69 47q-13-3-27 .5T17 62Q6 73 2 88t.5 29.5Q7 132 18 143z"/></svg>