<svg viewBox="0 0 300 320" xmlns="http://www.w3.org/2000/svg"><path d="M225 45v13h75v25h-75v25h75v25h-75v25h75v25h-75v25h75v25h-75v75h-25V45q0-15 11-26t27-11h62v25h-62q-6 0-9.5 3.5T225 46v-1zm-50 213q0 16-9 28.5t-23.5 18q-14.5 5.5-29.5 2T87 291q-10 12-26 15.5t-31-3q-15-6.5-23.5-21t-6.5-31q2-16.5 13.5-28T41 209l33-76-21-48Q37 48 37 8h26q-1 35 13 67l12 26 11-26q14-32 13-67h26q0 40-16 77l-21 48 33 76q18 3 29.5 17t11.5 32zm-100 0q0-10-7.5-17.5T50 233q-10 0-17.5 7.5T25 258q0 10 7.5 17.5T50 283q10 0 17.5-7.5T75 258zm13-33q8-9 19-14l-19-46-20 46q11 5 19 14h1zm62 33q0-10-7.5-17.5T125 233q-10 0-17.5 7.5T100 258q0 10 7.5 17.5T125 283q10 0 17.5-7.5T150 258z"/></svg>