<svg viewBox="0 0 300 320" xmlns="http://www.w3.org/2000/svg"><path d="M200 308H100q0-21 14.5-35.5T150 258q21 0 35.5 14.5T200 308zm60-75q-7-22-25.5-36T194 183h-88q-22 0-40.5 14T40 233l-21 75h56q0-20 10-37.5t27.5-27.5q17.5-10 37.5-10t37.5 10q17.5 10 27.5 27.5t10 37.5h56l-21-75zm-66-75h0zm34-93q-8-26-29.5-41.5T150 8q-27 0-48.5 15.5T72 65l-1 6h26q24 0 38-9 16-11 23-28 13 2 24 9-10 25-34 40-10 6-23 9.5T100 96h-9q4 21 20.5 35t38.5 14q16 0 29.5-8t21.5-21l11 44q24 5 43 21-26-110-27-116zM66 96q0-2-1-3l-20 88q12-11 28-17t33-6q-16-10-27-26.5T66 96z"/></svg>