<svg viewBox="0 0 300 320" xmlns="http://www.w3.org/2000/svg"><path d="M250 133q0-34-17-62.5T187.5 25Q159 8 125 8T62.5 25Q34 42 17 70.5T0 133q0 34 17 62.5T62.5 241Q91 258 125 258q22 0 42.5-7.5T204 230l78 78 18-18-78-78q13-16 20.5-36.5T250 133zm-81 32l-44 43-44-43q-18-19-18.5-44.5t18-44Q99 58 125 58t44.5 18.5Q188 95 188 120.5T169 165zm-44-82q-16 0-26.5 11t-11 26.5Q87 136 98 147l27 26 27-26q11-11 11-26.5T152 94q-11-11-27-11zm0 50q-5 0-8.5-3.5t-3.5-9q0-5.5 3.5-9t8.5-3.5q5 0 8.5 3.5t4 9q.5 5.5-3.5 9t-9 3.5z"/></svg>