<svg viewBox="0 0 300 320" xmlns="http://www.w3.org/2000/svg"><path d="M275 120H113l-38 38 38 37h162q10 0 17.5-7t7.5-18v-25q0-10-7.5-17.5T275 120zm-37-37q10 0 17.5-7.5T263 58V33q0-10-7.5-17.5T238 8H113L75 45l38 38h125zm-25 150H113l-38 37 38 38h100q10 0 17.5-7.5T238 283v-25q0-10-7.5-17.5T213 233zM50 270q0 11-7.5 18T25 295q-10 0-17.5-7T0 270.5q0-10.5 7.5-18T25 245q10 0 17.5 7.5T50 270zm0-112q0 10-7.5 17.5T25 183q-10 0-17.5-7.5T0 158q0-10 7.5-17.5T25 133q10 0 17.5 7.5T50 158zm0-113q0 11-7.5 18T25 70q-10 0-17.5-7T0 45.5q0-10.5 7.5-18T25 20q10 0 17.5 7.5T50 45z"/></svg>