<svg viewBox="0 0 300 320" xmlns="http://www.w3.org/2000/svg"><path d="M0 295h300V133H0v162zm207-112l3 39 15-29 15 29 3-39h13l-4 53q-1 4-3.5 7t-6.5 3q-4 0-7-5l-10-20-10 20q-3 5-7 5t-6.5-3q-2.5-3-3.5-7l-4-53h13zm-75 0l3 39 15-29 15 29 3-39h13l-4 53q-1 4-3.5 7t-6.5 3q-4 0-7-5l-10-20-10 20q-3 5-7 5t-6.5-3q-2.5-3-3.5-7l-4-53h13zm-75 0l3 39 15-29 15 29 3-39h13l-4 53q-1 4-3.5 7t-6.5 3q-4 0-7-5l-10-20-10 20q-3 5-7 5t-6.5-3q-2.5-3-3.5-7l-4-53h13zM263 20H38q-16 0-27 11T0 58v50h300V58q0-16-11-27t-27-10l1-1zM44 83q-8 0-13.5-5.5T25 64q0-8 5.5-13.5t13.5-5q8 .5 13.5 5.5t5 13Q62 72 57 77.5T44 83zm50 0q-8 0-13.5-5.5T75 64q0-8 5.5-13.5t13.5-5q8 .5 13.5 5.5t5 13q-.5 8-5.5 13.5T94 83z"/></svg>