<svg viewBox="0 0 300 320" xmlns="http://www.w3.org/2000/svg"><path d="M150 108H50V45q0-15 11-26T88 8h25q15 0 26 11t11 27v12h25v25h-25v25zm-25 100H75v25h50v-25zm88-150q-6 0-9.5 3.5t-3.5 9q0 5.5 3.5 9t9 3.5q5.5 0 9-3.5t3.5-9q0-5.5-3.5-9T212 58h1zm75 0q-6 0-9.5 3.5t-3.5 9q0 5.5 3.5 9t9 3.5q5.5 0 9-3.5t3.5-9q0-5.5-3.5-9T287 58h1zm0-25q5 0 8.5-3.5t3.5-9q0-5.5-3.5-9t-9-3.5q-5.5 0-9 3.5t-3.5 9q0 5.5 3.5 9T288 33zm0 75q-6 0-9.5 3.5t-3.5 9q0 5.5 3.5 9t9 3.5q5.5 0 9-3.5t3.5-9q0-5.5-3.5-9T287 108h1zm-38-75q-5 0-8.5 3.5t-3.5 9q0 5.5 3.5 9T250 58q5 0 9-3.5t4-9q0-5.5-4-9t-9-3.5zm0 50q-5 0-8.5 3.5t-4 9q-.5 5.5 3.5 9t9 3.5q5 0 9-3.5t4-9q0-5.5-4-9t-9-3.5zm-50 125v100H0V208q0-22 10-42t28-33h124q18 13 28 33t10 42zm-50-25H50v75h100v-75z"/></svg>