<svg viewBox="0 0 300 320" xmlns="http://www.w3.org/2000/svg"><path d="M193 241q0-11-7-21-5-7-22-21l-14-12-16 13q-16 14-21 21-6 9-6 20 0 18 12.5 30.5T150 284q18 0 30.5-12.5T193 241zm12-183q-30-25-46-41l-9-9-9 9q-19 19-32 50-9 22-15 48-7-11-10-23l-5-20-16 14q-22 21-32 40-13 23-13 52t12.5 55Q43 259 65 278t51 26q11 3 21 4-24-5-40-24t-16-43q0-19 11-34 7-9 26-25l1-1q14-13 22-20l9-9 9 9q7 7 21 18v1q20 16 27 26 12 16 12 35-1 24-16.5 43T163 308q33-3 60-21.5t43-47.5q16-29 16-62 0-25-11-47-9-18-28-37-11-12-38-35z"/></svg>