<svg viewBox="0 0 300 320" xmlns="http://www.w3.org/2000/svg"><path d="M300 83h-62V59l26-26h-26V8h62v24l-26 26h26v25zm-9 25q9 25 9 50 0 41-20 75.5T225.5 288Q191 308 150 308t-75.5-20Q40 268 20 233.5T0 158q0-41 20-75.5T74.5 28Q109 8 150 8q33 0 62 14v86h79zm-166 25h63v-25h-27l27-26V58h-63v25h26l-26 26v24zm-27 62q22 0 38-16l-18-18q-9 10-20.5 9T78 162l-18 17q15 15 35 16h3zm77 50q0-10-7.5-17.5T150 220q-10 0-17.5 7.5t-7.5 18q0 10.5 7.5 17.5t17.5 7q10 0 17.5-7t7.5-18zm65-66l-18-17q-8 7-19.5 8t-21.5-9l-17 18q16 16 37 16h4q20-1 35-16z"/></svg>