<svg viewBox="0 0 300 320" xmlns="http://www.w3.org/2000/svg"><path d="M212 219q4 6 3.5 12.5t-5 9q-4.5 2.5-10 0T191 232l-4-7q11-4 22-11l3 5zm88-61q0 41-20 75.5T225.5 288Q191 308 150 308t-75.5-20Q40 268 20 233.5T0 158q0-41 20-75.5T74.5 28Q109 8 150 8t75.5 20Q260 48 280 82.5t20 75.5zm-137-13h25q0-9 4.5-17t7.5-7.5q3 .5 8 8t5 17.5h25q0-19-11-35t-27-16q-16 0-27 16t-11 34h1zm-100 0h25q0-9 4.5-17t7.5-8q3 0 7.5 8t4.5 18h26q0-19-11-35t-27-16q-16 0-27 16t-10 34zm171 61l-19-30-11 10q-6 5-16 11-20 11-38 11t-38-11q-10-6-16-11l-17 19q9 7 22 14 25 14 49 14 6 0 12-1l7 13q6 10 16 16t20 6q10 0 18-5 15-9 17-25.5t-6-30.5z"/></svg>