<svg viewBox="0 0 300 320" xmlns="http://www.w3.org/2000/svg"><path d="M263 8H38Q22 8 11 19T0 46v99h300V45q0-15-11-26T262 8h1zm-38 112V89q0-8 5.5-13.5t13.5-5q8 .5 13.5 5.5t4.5 13v31h-37zm-62 0V77q0-8 5-13.5t13-5.5q8 0 13.5 5.5T200 77v43h-37zm-125 0V89q0-8 5-13.5t13-5q8 .5 13.5 5.5T75 89v31H38zm62 0V77q0-8 5.5-13.5T119 58q8 0 13 5.5t5 13.5v43h-37zm200 150V170H0v100q0 16 11 27t27 11h225q15 0 26-11t11-27zm-37-75v32q0 8-5.5 13t-13.5 5q-8 0-13.5-5t-5.5-13v-32h38zm-63 0v32q0 8-5.5 13t-13.5 5q-8 0-13-5t-5-13v-32h37zm-125 0v32q0 8-5.5 13T56 245q-8 0-13-5t-5-13v-32h37zm63 0v32q0 8-5.5 13t-13.5 5q-8 0-13.5-5t-5.5-13v-32h38z"/></svg>