<svg viewBox="0 0 300 320" xmlns="http://www.w3.org/2000/svg"><path d="M150 139q-8 0-13.5-5.5t-5.5-13q0-7.5 5.5-13T150 102q8 0 13.5 5.5t5.5 13q0 7.5-5.5 13T150 139zm0 25q-10 0-17.5 7.5t-7.5 18q0 10.5 7.5 17.5t17.5 7q10 0 17.5-7t7.5-17.5q0-10.5-7.5-18T150 164zm150-6q0 41-20 75.5T225.5 288Q191 308 150 308t-75.5-20Q40 268 20 233.5T0 158q0-41 20-75.5T74.5 28Q109 8 150 8t75.5 20Q260 48 280 82.5t20 75.5zm-100 31q0-11-5-21t-14-17q13-13 13-31t-13-30.5Q168 77 150 77t-31 12.5Q106 102 106 120t13 31q-9 7-14 17t-5 21q0 21 14.5 35.5T150 239q21 0 35.5-14.5T200 189z"/></svg>