<svg viewBox="0 0 300 320" xmlns="http://www.w3.org/2000/svg"><path d="M213 220H88v-25h125v25zM150 95q8 0 13.5-5t5.5-13q0-8-5.5-13.5T150 58q-8 0-13.5 5.5T131 77q0 8 5.5 13t13.5 5zM38 202q0-8-5.5-13.5T19 183q-8 0-13.5 5.5T0 202q0 8 5.5 13t13.5 5q8 0 13.5-5t5.5-13zm262 0q0-8-5.5-13.5T281 183q-8 0-13 5.5t-5 13.5q0 8 5 13t13 5q8 0 13.5-5t5.5-13zm-56-69q8 0 13.5-5.5T263 114q0-8-5.5-13.5T244 95q-8 0-13.5 5.5T225 114q0 8 5.5 13.5T244 133zm-188 0q8 0 13.5-5.5T75 114q0-8-5.5-13.5T56 95q-8 0-13 5.5T38 114q0 8 5 13.5t13 5.5z"/></svg>