<svg viewBox="0 0 300 320" xmlns="http://www.w3.org/2000/svg"><path d="M150 170q-24 0-44 6t-31.5 14.5Q63 199 63 208t11.5 17.5q11.5 8.5 31.5 14t44 5.5q24 0 44-5.5t32-14q12-8.5 12-17.5t-12-17.5q-12-8.5-32-14.5t-44-6zm0 50q-8 0-13.5-3.5T131 208q0-5 5.5-9t13.5-4q8 0 13.5 4t5.5 9q0 5-5.5 8.5T150 220zm113-112H38q-16 0-27 11T0 145v163h300V145q0-15-11-26t-26-11zM150 270q-32 0-57.5-8t-40-22Q38 226 38 208t14.5-32q14.5-14 40-22.5t57.5-8q32 .5 57.5 8.5t40.5 22q15 14 15 32t-15 32q-15 14-40.5 22t-57.5 8zM0 46v-1q0-15 11-26T38 8h225q15 0 26 11t11 26v1q-17-13-37-13H38Q17 33 0 46zm0 50v-1q0-15 11-26t27-11h225q15 0 26 11t11 26v1q-17-13-37-13H38Q17 83 0 96z"/></svg>