<svg viewBox="0 0 300 320" xmlns="http://www.w3.org/2000/svg"><path d="M150 8q-41 0-75.5 20T20 82.5Q0 117 0 158t20 75.5Q40 268 74.5 288t75.5 20q41 0 75.5-20t54.5-54.5q20-34.5 20-75.5t-20-75.5Q260 48 225.5 28T150 8zm0 275q-34 0-62.5-17T42 220.5Q25 192 25 158q0-22 7.5-42.5T53 79l176 176q-16 13-36.5 20.5T150 283zm97-46l-9-9v-20q0-10-7.5-17.5T213 183q0-6-1-13h26v-25h-31l-3-12h8q11 0 18-7.5t7-17.5V83h-25v25h-15l-2-9q-6-13-18-21t-26.5-8q-14.5 0-26 7.5T107 98L71 61q16-13 36.5-20.5T150 33q34 0 62.5 17T258 95.5q17 28.5 17 62.5 0 22-7.5 42T247 237zm-159-4H63v-25q0-10 7-17.5t18-7.5v-13H63v-25h22l93 94q-14 6-28 6-19 0-34.5-10T93 208h-5v25z"/></svg>