<svg viewBox="0 0 300 320" xmlns="http://www.w3.org/2000/svg"><path d="M243 70h-55V15l55 55zm-68 163v-38H75v38h100zm25 75H0V45q0-15 11-26T38 8h125v87h87v38h-37v18q-15 6-25 19H50v88h125q0 15 7 28t18 22zM50 95h63V70H50v25zm0 50h63v-25H50v25zm221 79l-38-7q-3 0-5.5-2.5t-2.5-7q0-4.5 3.5-8t9.5-3.5h25q5 0 8.5 3.5t3.5 8.5h25q0-16-11-26.5T262 170v-12h-24v12q-16 0-27 11t-11 27q0 13 8 22.5t21 11.5l38 6q3 1 5.5 3.5t2.5 7q0 4.5-3.5 8T262 270h-24q-6 0-9.5-3.5T225 258h-25q0 16 11 26.5t26 10.5v13h26v-13q15 0 26-10.5t11-26.5q0-13-8-22.5T271 224z"/></svg>