<svg viewBox="0 0 300 320" xmlns="http://www.w3.org/2000/svg"><path d="M263 208h-88v-25h88q5 0 8.5-3.5t3.5-9q0-5.5-3.5-9T263 158h-88v-25h88q14 0 24.5 9.5T300 166v-8q0-41-20-75.5T225.5 28Q191 8 150 8T74.5 28Q40 48 20 82.5T0 158q0 41 20 75.5T74.5 288q34.5 20 75.5 20 37 0 68.5-16.5t52.5-45q21-28.5 27-63.5-4 11-13.5 18t-21.5 7zM194 83q8 0 13.5 5.5t5 13.5q-.5 8-5.5 13.5t-13 5.5q-8 0-13.5-5.5T175 102q0-8 5.5-13.5T194 83zm-88 0q8 0 13.5 5.5T125 102q0 8-5.5 13.5T106 121q-8 0-13.5-5.5t-5-13.5q.5-8 5.5-13.5t13-5.5zm44 125q-18 0-38 11-9 5-16 11l-17-19q9-7 22-14 25-14 49-14v25z"/></svg>