<svg viewBox="0 0 300 320" xmlns="http://www.w3.org/2000/svg"><path d="M175 245h25v63h-25v-63zm50 63h25v-63h-25v63zm-100 0h25v-63h-25v63zm118-150q-11-22-32-31t-43-4.5q-22 4.5-38 21T113 184q-15 4-25 15.5T76 226q-2 15 4.5 28.5T100 276v-31q0-10 7.5-17.5T125 220h125q10 0 17.5 7.5T275 245v26q15-12 21-30.5t1-37q-5-18.5-20-31T243 158zm-152 8q8-30 32.5-50T180 96l36-21-12-22-40 23q-3-4-7-7l23-39-22-13-22 39q-6-2-11-3V8h-25v45q-5 1-10 3L67 17 45 30l23 38-8 8-38-23L9 75l39 22q-2 6-3 11H0v25h45q1 5 3 11L9 166l13 22 38-23q7 7 15 13 6-7 14-11l2-1z"/></svg>