<svg viewBox="0 0 300 320" xmlns="http://www.w3.org/2000/svg"><path d="M100 283h100v25H100v-25zm0-174q0 20 14.5 34.5T150 158q21 0 35.5-14.5T200 108h-99q-1 0-1 1zm152 36h23V83h-23q-11-33-39-54T150 8q-35 0-63 21T48 83H25v62h23q7 21 20.5 37t31.5 26H75q-21 0-35.5 14.5T25 258v50h50v-25q0-10 7.5-17.5T100 258h100q10 0 17.5 7.5T225 283v25h50v-50q0-21-14.5-35.5T225 208h-25q18-10 31.5-26t20.5-37zm-102 38q-20 0-37.5-10T85 145.5Q75 128 75 108q0-9 7.5-17t18.5-8h99q11 0 18 7.5t7 17.5q0 20-10 37.5T187.5 173Q170 183 150 183z"/></svg>