<svg viewBox="0 0 300 320" xmlns="http://www.w3.org/2000/svg"><path d="M299 290l-17 17L0 26 18 8l13 13Q45 8 63 8h135q-11 18-17 46.5t-6 59q0 30.5 5 56.5l72 73q13-6 23-20v35q0 5 2 9l22 23zm-99-176q0-29 5-53t13.5-38.5Q227 8 237.5 8t19 14.5Q265 37 270 61t5 53q0 29-5 53.5T256.5 206q-8.5 14-19 14t-19-14q-8.5-14-13.5-38.5t-5-53.5zm25 0q0 11 3.5 18t9 7q5.5 0 9-7t3.5-17.5q0-10.5-3.5-18t-9-7.5q-5.5 0-9 7.5T225 114zM6 67q-6 22-6 47 0 31 8.5 55T31 207q14 14 32 13h97L6 67zm94 178v25q0 16 11 27t26 11h110l-62-63h-85z"/></svg>