<svg viewBox="0 0 300 320" xmlns="http://www.w3.org/2000/svg"><path d="M162 123q0 10-12 24-10 13-25 25-15-12-25-25-12-14-12-24-1-5 2.5-9.5t9-5q5.5-.5 9 2.5t4.5 8v2h25q-1-5 2.5-8.5t7.5-4.5h2q6 1 9.5 5.5t2.5 9.5zm138 167l-18 18-78-78q-26 21-59 26.5t-64-6q-31-11.5-52.5-38T2 153q-5-33 6.5-64T46 36.5Q72 15 105 10t64 6.5Q200 28 222 54q18 23 24.5 51t0 56.5Q240 190 222 212l78 78zM187 123q1-16-10-27.5T150.5 84Q135 84 125 94q-10-10-25.5-10T73 95.5Q62 107 63 123q0 22 25 49 14 14 30 26l7 5 7-5q16-12 30-26 25-27 25-49z"/></svg>