<svg viewBox="0 0 300 320" xmlns="http://www.w3.org/2000/svg"><path d="M144 21q-32 1-60 15T35.5 74Q15 98 6 128.5T1.5 190Q6 221 22 248t42 45l3 2h166l3-2q35-24 51-61 15-35 12-73t-23.5-70Q255 57 222 39q-35-20-78-18zM76 255q-3-2-6-5-18-18-26.5-41.5t-6-49q2.5-25.5 16-47T88 77q21-14 45.5-18t49 3.5Q207 70 225.5 87t28.5 40.5q10 23.5 8 49.5l-25-11q0-27-16-47t-40-29.5q-24-9.5-49-5T88 109q-17 16-22.5 39t0 45.5Q71 216 88 232l4 4-16 19zm74-60q-10 1-17.5-6t-8-17q-.5-10 6.5-17.5t17-8.5q10-1 17.5 5t9.5 16l78 33-10 23-78-33q-6 5-15 5z"/></svg>