<svg viewBox="0 0 300 320" xmlns="http://www.w3.org/2000/svg"><path d="M300 212q0-13-11-22 4-7 4-14 0-13-8.5-21.5T264 146h-1q-2-13-13-20v-18q0-27-13.5-50T200 21.5Q177 8 150 8t-50 13.5Q77 35 63.5 58T50 108v18q-11 7-13 20h-1q-12 0-20.5 8.5T7 176q0 7 4 14-11 9-11 22 0 8 3 14t9 10q-5 8-5 17 0 12 8.5 20.5T36 282h1q2 11 10.5 18.5t21 7.5q12.5 0 22-9.5T100 275V154q0-12-7-21t-18-12v-13q0-21 10-38t27.5-27Q130 33 150 33t37.5 10Q205 53 215 70t10 38v13q-11 3-18 12t-7 21v121q0 14 9.5 23.5t22 9.5q12.5 0 21-7.5T263 282h1q12 0 20.5-8.5T293 253q0-9-5-17 6-4 9-10t3-14z"/></svg>