<svg viewBox="0 0 300 320" xmlns="http://www.w3.org/2000/svg"><path d="M150 167q-21 24-25 54v87h-25v-88H75v88H50v-88H25V120q0-15 11-26t27-11h50q15 0 26 11t11 26v47zM88 70q12 0 21.5-9t9.5-22q0-13-9.5-22t-22-9q-12.5 0-22 9T56 39q0 13 9.5 22.5T87 71l1-1zm137 88q-20 0-37.5 10T160 195.5Q150 213 150 233t10 37.5q10 17.5 27.5 27.5t37.5 10q20 0 37.5-10t27.5-27.5q10-17.5 10-37.5t-10-37.5Q280 178 262.5 168T225 158zm13 137h-25v-25h25v25zm5-42q-6 3-6 5h-25q0-17 19-27 3-2 5-5.5t1.5-7.5q-.5-4-3.5-7t-7-3q-6-1-10 2.5t-4 9.5h-25q-1-18 12.5-29t31.5-8q11 2 19.5 10.5t10.5 20q2 11.5-3 22.5t-16 17z"/></svg>