<svg viewBox="0 0 300 320" xmlns="http://www.w3.org/2000/svg"><path d="M267 134l33-119-11-7-61 104q-14-4-28-4h-21q-35 1-77 26-30 18-52 41v-35q13-12 29-22l7-43q22-6 36.5-24.5T137 8q-17 0-32 5-12 5-21 12-7 6-12 12l-3 6-4-6q-5-6-11-12-10-7-22-12Q18 8 0 8q0 21 11.5 38.5T42 72l-6 9q-18 26-27 56t-9 62v34q0 20 10 37.5T37.5 298Q55 308 75 308h125q27 0 50-13.5t36.5-36.5q13.5-23 13.5-50 0-22-8.5-41T267 134zm-48 99q-8 0-13.5-5.5T200 214q0-8 5.5-13.5t13.5-5q8 .5 13.5 5.5t5.5 13q0 8-5.5 13.5T219 233z"/></svg>