<svg viewBox="0 0 300 320" xmlns="http://www.w3.org/2000/svg"><path d="M200 138q0 11-14 28-12 14-30 28-16-13-28-27-16-17-16-29 1-7 5.5-12t11-5.5q6.5-.5 11 3.5t4.5 12v9h25v-9q0-8 4.5-12t11-4q6.5 0 11 5.5T200 138zM300 8v20q0 73-11 119-14 62-52 99-18 18-40.5 27.5T149 283q-21 0-41-7t-37-21l-53 53-18-18 53-53q-14-16-21-36.5T25 158q0-25 9.5-47.5T61 71q17-17 38-26 18-7 42-10 14-1 42-1l23-1q22-1 37-4 22-4 39-12l18-9zm-75 130q0-17-12-29.5T184.5 96Q168 96 156 106q-11-10-28-10t-28.5 12.5Q88 121 88 138q0 24 28 53 15 16 33 29l7 4 7-4q18-13 34-29 28-29 28-53z"/></svg>