<svg viewBox="0 0 300.0014 320" xmlns="http://www.w3.org/2000/svg"><path d="M175 127q0 10-7.5 17.5T150 152q-10 0-17.5-7.5t-7.5-18q0-10.5 7.5-17.5t17.5-7q10 0 17.5 7t7.5 18zm90-16q-5-8-11.5-12.5t-9.5-11q-3-6.5-1-14t-.5-16Q240 49 234 43t-14.5-8.5q-8.5-2.5-16-1t-14.5-1q-7-2.5-11-9.5t-11.5-11Q159 8 150 8t-16.5 4Q126 16 122 23t-11 9.5q-7 2.5-14.5 1t-16 1Q72 37 66 43t-8.5 14.5Q55 66 57 73.5t-1 14q-3 6.5-9.5 11t-11 12Q31 118 31 127t4.5 16.5q4.5 7.5 11 11.5t9.5 11q3 7 1 14.5t.5 16Q60 205 66 211t14.5 8.5q8.5 2.5 16 .5t14.5 1q7 3 11 9.5t11.5 11Q141 246 150 246t16.5-4.5q7.5-4.5 11.5-11t11-9.5q7-3 14.5-1t16-.5Q228 217 234 211t8.5-14.5q2.5-8.5.5-16t1-14.5q3-7 9.5-11t11-11.5Q269 136 269 127t-4-16zm-115 66q-21 0-35.5-15T100 126.5q0-20.5 14.5-35T150 77q21 0 35.5 14.5t14.5 35q0 20.5-14.5 35.5T150 177zm-49 68q-14 2-27.5-1.5T50 230q-10-10-15-23L4 238q-3 4-4 9.5T3 258q4 5 11 6l27 3 3 27q1 6 4 9t7 4.5q4 1.5 8 .5t7-4l45-45q-8-6-14-14zm199 2q-1-5-4-9l-31-31q-5 13-15 23t-23.5 13.5Q213 247 199 245q-6 8-14 14l45 45q3 3 7 4t8-.5q4-1.5 7-4.5t4-9l3-27 27-3q7-1 11-6t3-11z"/></svg>