<svg viewBox="0 0 300 320" xmlns="http://www.w3.org/2000/svg"><path d="M300 195q0 29-16 57-14 24-35.5 40T209 308h-2q26-21 40.5-50.5T262 195q0-33-15-62t-42-50h4q18 0 39.5 16t35.5 40q16 28 16 57v-1zm-262 0q0-33 15-62t42-50h-4q-18 0-39.5 16T16 139Q0 167 0 195.5T16 252q14 24 35.5 40T91 308h2q-26-21-40.5-50.5T38 196v-1zm25 0q0 22 10 46 9 22 23.5 40.5T124 308q-24-54-25.5-113T124 83q-23 18-40 47-21 34-21 66v-1zM176 83q27 53 25.5 112T176 308q13-8 27.5-26.5T227 241q11-24 11-45 0-32-22-66-17-29-40-47zm-13 12q0-27 9-43 7-12 18-17 6-2 10.5-2t8.5 3.5q4 3.5 4 8.5v25q10 0 17-7t7-18q0-15-10.5-26T200 8.5q-16 .5-29.5 9T150 40q-11-20-32-31l-11 23q31 15 30 64v13q-12 42-12 87 0 26 4 52 4 22 10 39t11 21q5-4 11-21t10-39q4-26 4-52 0-45-13-87l1-14z"/></svg>