<svg viewBox="0 0 300 320" xmlns="http://www.w3.org/2000/svg"><path d="M101 300q-11-7-18-18t-8-25.5Q74 242 82 228l21-40q3-7 11-7 3 0 6.5 2t5 7q1.5 5-.5 10l-6 11 77-24 4-1q4 0 7.5 2.5t4.5 7q1 4.5-1 9t-7 5.5l-29 9v63q0 6-3.5 11t-9.5 7l-16 5q-4 2-8 2l-6 1q-6 0-13-1-10-2-18-7zM150 8q-41 0-75.5 20T20 82.5Q0 117 0 158q0 34 14 63.5T53 272q-2-7-2-13-2-22 9-43l21-39q5-10 13.5-15.5T113 156q10 0 18 5 10 5 16 15l42-13q15-5 28.5 2.5T236 187q4 15-3 29t-22 18l-11 4v44q0 10-4 19 30-10 53.5-31t37-50q13.5-29 13.5-62 0-41-20-75.5T225.5 28Q191 8 150 8zm-44 137q-8 0-13.5-5t-5-13q.5-8 5.5-13.5t13-5.5q8 0 13.5 5.5T125 127q0 8-5.5 13.5T106 146v-1zm21-45q-2-4-6-9-7-8-15-8-5 0-10 3-2 1-3 3L72 75q4-5 10-9 10-8 24-8 18 0 33 15 7 8 11 17l-23 10zm67 58q-8 0-13.5-5.5T175 139q0-8 5.5-13.5t13.5-5q8 .5 13.5 5.5t5 13q-.5 8-5.5 13.5t-13 5.5z"/></svg>