<svg viewBox="0 0 300 320" xmlns="http://www.w3.org/2000/svg"><path d="M297 286l-73 22-7-23 24-8-10-32q-23 2-41.5-10.5T165 200l-2-5 12-37h108l2 8q6 21-2.5 41T255 238l10 32 24-8 8 24zM132 85L84 72q-15-4-28 3T38 97l-12 36h132v-1q5-15-3-28.5T132 85zM15 166q-6 21 2.5 41T45 238l-10 32-25-8-7 24 72 22 8-23-24-8 10-32 6 1q21-1 37.5-13.5T135 200l14-42H18l-3 8zM221 29l-17-17-29 28 18 18 28-29zm-97 11L96 12 79 29l28 28 17-17zm14 5h25V8h-25v37zm45 88h91l-12-36q-5-14-18-21.5T216 72l-44 12q3 4 5 7 11 20 6 42z"/></svg>