<svg viewBox="0 0 300 320" xmlns="http://www.w3.org/2000/svg"><path d="M250 89q0 8-5.5 13.5T231 108q-8 0-13.5-5.5T212 89q0-8 5.5-13.5T231 70q8 0 13.5 5.5T250 89zm31-19q8 0 13.5-5t5.5-13q0-8-5.5-13.5T281 33q-8 0-13 5.5T263 52q0 8 5 13t13 5zm0 38q-8 0-13 5.5t-5 13.5q0 8 5 13.5t13 5q8-.5 13.5-5.5t5.5-13q0-8-5.5-13.5T281 108zM69 70q-8 1-13.5 6T50 89q0 8 5.5 13.5T69 108q8 0 13.5-5.5T88 89q0-8-5.5-13.5T69 70zM19 33q-8 0-13.5 5.5T0 52q0 8 5.5 13.5T19 71q8 0 13-5.5T37.5 52q.5-8-5-13.5T19 33zm0 75q-8 0-13.5 5.5T0 127q0 8 5.5 13.5t13.5 5q8-.5 13-5.5t5.5-13q.5-8-5-13.5T19 108zm144 25h50v175H88V133h50V76L88 32V8h125v24l-50 44v57z"/></svg>