<svg viewBox="0 0 300 320" xmlns="http://www.w3.org/2000/svg"><path d="M213 78V45l37-37v50h50l-37 37h-33l-56 57q1 3 1 6 0 10-7.5 17.5T150 183q-10 0-17.5-7.5T125 158q0-10 7.5-17.5T150 133q3 0 6 1l56-56h1zm60 42h-17q7 19 7 37-2 43-26 72-21 27-54 36t-66 0q-33-9-54-36-24-29-25-72 0-30 15-56t41-41q26-15 56-15 19 0 38 6V35l17-17q-33-12-68-9.5T71 29Q40 47 22 78 2 113 0 157q0 41 20 75.5t54.5 55Q109 308 150 308t75.5-20.5q34.5-20.5 54.5-55t20-75.5q-1-29-10-54l-17 17zm-126-12l33-33q-14-5-30-5-33 1-55 19-21 17-28 43t0 51.5Q74 209 95 226q22 18 55 19 34-1 56-20 21-17 27.5-43.5T232 129l-33 33q-1 19-14 32t-36 13q-23 0-37-14.5t-15-34Q96 139 109 124t38-16z"/></svg>