<svg viewBox="0 0 300.0066 320" xmlns="http://www.w3.org/2000/svg"><path d="M219 308q-16-1-30-6-19-6-39-6t-39.5 7q-19.5 7-37 4.5t-27-14Q37 282 37 263q0-29 16.5-56.5t42.5-44q26-16.5 54-17t54 16.5q26 17 42 44.5t16 56.5q0 19-8 30-11 15-35 15zm54-237q-13-2-23 10t-12 33q-2 24 6 39t20 16.5q12 1.5 22.5-11T300 121q2-21-6-35t-21-15zM0 121q3 25 13.5 37.5t22.5 11Q48 168 56 153t6-39q-2-21-12-33T27 70.5Q14 72 6 86t-6 35zm75-62q3 25 13 37.5t22.5 11q12.5-1.5 20-16.5t5.5-40q-2-21-12-32.5t-23-10q-13 1.5-20.5 15T75 59zM198 8q-13-1-23 10.5T163 51q-2 25 6 40t20 16.5q12 1.5 22.5-11T225 59q2-22-6-35.5T198 8z"/></svg>