<svg viewBox="0 0 300 320" xmlns="http://www.w3.org/2000/svg"><path d="M150 8q-41 0-75.5 20T20 82.5Q0 117 0 158t20 75.5Q40 268 74.5 288t75.5 20q41 0 75.5-20t54.5-54.5q20-34.5 20-75.5t-20-75.5Q260 48 225.5 28T150 8zm24 225h-49q-16 0-27-11t-11-26h26q0 5 3.5 8.5t8.5 3.5h49q6 0 10.5-4.5t4.5-10q0-5.5-3-9.5t-8-5l-63-18q-12-4-20.5-14.5T86 123q0-17 12-28.5T126 83h49q16 0 26.5 11t10.5 26h-24q0-5-4-8.5t-9-3.5h-49q-6 0-10.5 4.5t-4.5 10q0 5.5 3 9.5t8 5l63 18q13 4 21 14.5t8 23.5q0 17-12 28.5T174 233z"/></svg>