<svg viewBox="0 0 300 320" xmlns="http://www.w3.org/2000/svg"><path d="M225 145q18 0 31.5-11t17.5-28q11-4 18.5-13.5T300 71q0-10-5-26-3-11-9-25l-5-12-4 13q-7 14-14 25-8-11-15-25l-4-13-5 12q-6 14-9 25-5 16-5 26 0 11 6.5 20.5T248 105q-3 7-9 11.5t-14 4.5h-25V91q0-21-19-48-10-14-22-25l-9-8-9 8q-12 11-22 25-19 27-19 48v29H75q-8 0-14-4t-9-11q10-4 16.5-13.5T75 71q0-10-5-26-3-11-9-25L56 8l-4 13q-7 14-15 25-7-11-14-25L19 8l-5 12Q8 34 5 45 0 61 0 71q0 12 7.5 21.5T26 106q4 17 17.5 28T75 145h25v25H70l-33 33 18 18 25-25h20v43l-17 18q-8 7-8 17t9 19q11 11 29 15 20 3 37-8 13 8 28 8 11 0 21.5-4t16.5-11q9-9 9-19t-8-17l-17-18v-43h20l25 25 18-18-33-32h-30v-25h25v-1zm-50 75h-50v-25h50v25zm0-50h-50v-25h50v25z"/></svg>