<svg viewBox="0 0 300 320" xmlns="http://www.w3.org/2000/svg"><path d="M232 223q15-18 23-39t7-45q1-35-17-65.5t-48-48Q167 8 131.5 8t-66 17.5Q35 43 17.5 73.5T0 139.5Q0 175 17.5 205t48 47.5Q96 270 131 270q24 0 45-7.5t39-22.5l67 68 18-18-68-67zm-31-42q-3 22-20.5 37T139 233q-28 0-51-13.5t-37-37Q37 159 37 132v-8q1-21 11.5-39T77 56.5q18-10.5 39-11T154 56q17 11 28 29 19 4 31 18.5t12 32.5q0 13-6.5 25T201 181zm-28-72l-7-1-3-6q-8-15-20-23t-27-8q-22-1-37.5 15T63 124v8q0 21 10 38t27.5 27.5Q118 208 139 208q15 0 26.5-10t11.5-24v-8l7-4q7-3 11.5-11t4.5-15q0-11-8.5-18.5T173 109zm-60 49q-11 0-18-7.5T88 133q0-10 7-17.5t17.5-7.5q10.5 0 18 7.5T138 133q0 10-7.5 17.5T113 158z"/></svg>