<svg viewBox="0 0 300 320" xmlns="http://www.w3.org/2000/svg"><path d="M0 308l12-8q15-9 32-17 24-11 48-17 30-8 58-8t58 8q24 6 48 17 17 8 32 17l12 8H0zM150 8q3 6 6 13 9 15 20 29 16 18 34 31 26 17 61 24 17 3 29 3l-3-8q-4-10-9-20-8-13-17-25-12-14-26.5-23.5T212 16q-14-4-30-7-12-1-23-1h-18q-11 1-23 3-16 2-30 7-18 6-32 16-26 17-44 47-8 16-12 27l14-1q18-2 34-7 24-7 42-19 26-18 46-47 9-15 14-26zm0 49q-20 27-46 44l-16 10q-1 11 2 23 1 9 4 17l3 7 11-6q12-8 22-18 14-13 20-29 8-22 1-50l-1 2zm-5 176h5q27 0 57 7 11-67 0-117l-5-18-6-4q-8-5-18-13-1 15-5 26-2 6-6 13v3q0 46-22 103z"/></svg>