<svg viewBox="0 0 300 320" xmlns="http://www.w3.org/2000/svg"><path d="M300 158H138V80q0-15 12-25l53-42q7-5 15.5-5t15.5 5l54 42q12 10 12 25v78zm-62-75h-38v37h38V83zm-63 150q13 0 26-5t22-14q7 9 17.5 14t21.5 5q11 0 21-4.5t17-12.5l-19-17q-7 9-18 9t-18.5-7.5Q237 193 237 183h-25q0 9-11.5 17t-25.5 8q-39 0-63.5-24T87 121q0-29 11-51 13-24 39-39l26-23h-44Q85 8 58 22.5T15.5 63Q0 89 0 120v50q24 0 44 14 30 19 59 31 41 18 72 18zm87 50q-10 0-17.5-7.5T237 258h-25q0 10-7 17.5t-17.5 7.5q-10.5 0-18-7.5T162 258h-25q0 10-7 17.5t-17.5 7.5q-10.5 0-18-7.5T87 258H62q0 10-7 17.5T37 283q-11 0-18-9L0 291q7 8 17 12.5t20.5 4.5q10.5 0 20.5-4.5T75 291q7 8 16.5 12.5T112 308q11 0 21-4.5t17-12.5q7 8 16.5 12.5T187 308q11 0 21-4.5t17-12.5q7 8 16.5 12.5T262 308q11 0 21-4.5t17-12.5l-19-17q-7 9-19 9z"/></svg>