<svg viewBox="0 0 300 320" xmlns="http://www.w3.org/2000/svg"><path d="M150 8q-41 0-75.5 20T20 82.5Q0 117 0 158t20 75.5Q40 268 74.5 288t75.5 20q41 0 75.5-20t54.5-54.5q20-34.5 20-75.5t-20-75.5Q260 48 225.5 28T150 8zM73 122l-21-13q17-28 49-41l10 23q-25 10-38 31zm15 30q0-8 5-13.5t13-5.5q8 0 13.5 5.5T125 152q0 8-5.5 13.5T106 171q-8 0-13.5-5.5T87 152h1zm12 93q0-20 14.5-34.5T150 196q21 0 35.5 14.5T200 245H100zm94-75q-8 1-13.5-4.5T175 152q0-8 5.5-13.5T194 133q8 0 13.5 5.5t5 13.5q-.5 8-5.5 13.5t-13 5.5v-1zm32-49q-13-20-37-30l10-23q31 13 48 39l-21 14z"/></svg>