<svg viewBox="0 0 300 320" xmlns="http://www.w3.org/2000/svg"><path d="M300 70h-37v38h-25V70h-38V45h38V8h25v37h37v25zm-75 125q0 31-15 57t-41 41q-26 15-56.5 15T56 293q-26-15-41-41T0 195.5Q0 165 15 139t41-41q26-15 56.5-15T169 98q26 15 41 41t15 57v-1zM63 177q0 8 5 13.5t13 5.5q8 0 13.5-5.5T100 177q0-8-5.5-13.5T81 158q-8 0-13 5.5T63 177zm95 63l-16-19q-4 3-9 6-11 6-20.5 6T92 227q-6-3-9-6l-16 19q5 5 13 9 17 9 32.5 9t32.5-9q8-4 13-9zm5-63q0-8-5.5-13.5T144 158q-8 0-13.5 5.5T125 177q0 8 5.5 13.5T144 196q8 0 13.5-5.5T163 177z"/></svg>