<svg viewBox="0 0 300 320" xmlns="http://www.w3.org/2000/svg"><path d="M238 208q0 10-7.5 17.5t-18 7.5q-10.5 0-17.5-7.5t-7-17.5q0-10 7-17.5t17.5-7.5q10.5 0 18 7.5T237 208h1zm62-169v269H125V39q0-13 9-22t22-9h113q13 0 22 9t9 22zM188 95q0 11 7 18t17.5 7q10.5 0 18-7t7.5-17.5q0-10.5-7.5-18t-18-7.5Q202 70 195 77.5T188 95zm75 113q0-21-15-35.5T212.5 158q-20.5 0-35 14.5T163 208q0 21 14.5 35.5t35 14.5q20.5 0 35.5-14.5t15-35.5zm-163 48q-6 2-12 2-21 0-35.5-14.5T38 208q0-21 14.5-35.5T87 158q7 0 13 2v-43q-6 4-12 3-11 0-18-7t-7-17.5q0-10.5 7-18T88 70q6 1 12 4V39q0-17 10-31H31Q18 8 9 17T0 39v269h100v-52zm0-70q-6-3-12-3-11 0-18.5 7.5t-7 17.5q.5 10 7.5 17.5t17 7.5q7 0 13-3v-44z"/></svg>