<svg viewBox="0 0 300 320" xmlns="http://www.w3.org/2000/svg"><path d="M69 95q-18 0-31-12.5T25 52q0-18 13-31T69 8q18 0 31 13t13 31q0 18-13 30.5T69 95zm112 0q-18 0-30.5-12.5T138 52q0-18 12.5-31T181 8q18 0 31 13t13 31q0 18-13 30.5T181 95zm94 125q0-9-3-19l23-13-13-22-23 13q-14-16-34-20v-26h-25v26q-20 4-34 20l-23-13-13 22 23 13q-3 10-3 19.5t3 19.5l-23 13 13 22 23-13q14 16 34 20v26h25v-26q20-4 34-20l23 13 13-22-23-13q3-10 3-19v-1zm-62 19q-8 0-13.5-5.5t-5.5-13q0-7.5 5.5-13t13-5.5q7.5 0 13 5.5t5.5 13q0 7.5-5.5 13T212 239h1zm-109-49q4-13 10-23 8-16 23-30 9-8 20-14-13-15-31.5-15T94 121q-13 13-13 31 0 12 6.5 22t16.5 16zm-48-38q0-25 16-44H38q-16 0-27 11T0 145v38h64q-8-15-8-31zm40 92l29-17v-13l-9-6H88q-16 0-27 11t-11 26v38h69l-23-39z"/></svg>