<svg viewBox="0 0 300 320" xmlns="http://www.w3.org/2000/svg"><path d="M188 120q0 6-4 9.5t-9 3.5h-38l-3 5q-6 7-15 7h-6l-10-3-4 9q-4 7-12 7-5 0-8.5-3.5T75 146q0-8 7-12l9-4-3-10v-6q0-7 4.5-12.5T105 96l6-1 3-6q4-6 11.5-6t10.5 7l5 9 10-3h5q10 0 16 8l2 3 5 2q4 1 6.5 4.5t2.5 7.5v-1zm112 48v27h-29l-6 43q-2 14-12.5 23t-24.5 9h-28v38H38v-59q0-9-6-16-18-21-26-47t-5-53q2-31 18.5-58t42-44Q87 14 118 9q38-5 72.5 9.5T248 63q9 12 21 36 7 14 22 47l9 22zm-87-48q0-11-6.5-20T190 86q-7-8-16.5-12T153 71q-11-13-28-13-8 0-16 3.5T96 72q-15 3-24 15t-9 27v3q-13 12-13 28t11 27q11 11 27 11 5 0 12-2v77h25v-88q14-2 24-12h26q15 0 26.5-11t11.5-27z"/></svg>