<svg viewBox="0 0 300 320" xmlns="http://www.w3.org/2000/svg"><path d="M263 277v31H38v-31q0-24 16-40t40-16h112q24-1 40.5 15.5T263 277zM86 58q14-13 32.5-19.5T156 33q24 2 44.5 15.5t32 35Q244 105 244 130q0 17-12 28.5T204 170h-30q-3-7-9.5-12t-16-5.5q-9.5-.5-16.5 7t-7 18q0 10.5 7 17.5t17.5 7q10.5 0 17.5-7h37q17 0 32-8.5t24-23.5q9-15 9-33 0-31-15-58.5T213.5 27Q188 10 158 8q-25-1-48 7T69.5 39.5Q52 56 42.5 77T31 121h25q2-18 9.5-34T86 58zm103 87h17q5 1 8.5-2.5t3.5-7.5q2-12-1-23-4-20-18.5-34.5t-35-18.5Q143 55 124 63T93 88.5Q81 106 81 127q0 13 5 25.5t14 21.5q1-20 15.5-33.5T150 127q12 0 22 5t17 13z"/></svg>