<svg viewBox="0 0 300 320" xmlns="http://www.w3.org/2000/svg"><path d="M225 220q0 24-12 44t-32 32q-20 12-43 12-28 1-49-14.5T57.5 254Q47 230 51 204.5T75 159V70q1-29 20-46 18-15 42.5-15T180 24q19 17 20 47v88q12 13 18.5 28.5T225 221v-1zm-50 0q0-11-7-21t-18-14v-27h-25v27q-13 5-20 17.5t-4 26.5q3 14 15 22t26 6.5q14-1.5 23.5-12T175 221v-1zM300 45q0-15-11-26T262.5 8Q247 8 236 19t-11 26.5Q225 61 236 72t26.5 11Q278 83 289 72t11-27zm-25 0q0 6-3.5 9.5t-9 3.5q-5.5 0-9-3.5t-3.5-9q0-5.5 3.5-9t9-3.5q5.5 0 9 3.5T275 45z"/></svg>