<svg viewBox="0 0 300 320" xmlns="http://www.w3.org/2000/svg"><path d="M200 183q-18 43-50 86-29-41-51-86h101zm26 4q-21 51-60 103 7 9 15 18h82v-69q0-18-10.5-32T226 187zm-153 0q-16 6-26 20.5T37 239v69h111q-26-32-49-71-15-26-26-50zm207-67h-8q-9 1-16 0-11-2-18.5-7.5T224 94q-4 27-25 45.5T150 158q-20 0-37.5-10T85 120.5Q75 103 75 83t10-37.5Q95 28 112.5 18T150 8q26 0 46 15.5T222 64q6-17 16-24 7-4 18-6 7-1 16-1l8 1-2 7q-2 8-6 15-5 10-12 14.5T242 77q11 1 18 6t12 14q4 7 6 16l2 7zm-86-43q0-8-5.5-13.5T175 58h-50q-8 0-13.5 5.5T106 77q0 8 5.5 13t13.5 5h50q8 0 13.5-5t5.5-13z"/></svg>