<svg viewBox="0 0 300 320" xmlns="http://www.w3.org/2000/svg"><path d="M0 258l33-17 17-33 17 33 33 17-33 17-17 33-17-33-33-17zm233 17l17 33 17-33 33-17-33-17-17-33-17 33-33 17 33 17zM133 75l17 33 17-33 33-17-33-17-17-33-17 33-33 17 33 17zm-70 83q-6 0-9.5 3.5t-3.5 9q0 5.5 3.5 9t9 3.5q5.5 0 9-3.5t3.5-9q0-5.5-3.5-9T62 158h1zm-50-50q-6 0-9.5 3.5t-3.5 9q0 5.5 3.5 9t9 3.5q5.5 0 9-3.5t3.5-9q0-5.5-3.5-9T13 108zm50-50q-6 0-9.5 3.5t-3.5 9q0 5.5 3.5 9t9 3.5q5.5 0 9-3.5t3.5-9q0-5.5-3.5-9T62 58h1zM13 8q-6 0-9.5 3.5t-3.5 9q0 5.5 3.5 9t9 3.5q5.5 0 9-3.5t3.5-9q0-5.5-3.5-9T13 8zm275 150q-6 0-9.5 3.5t-3.5 9q0 5.5 3.5 9t9 3.5q5.5 0 9-3.5t3.5-9q0-5.5-3.5-9T288 158zm-50-50q-6 0-9.5 3.5t-3.5 9q0 5.5 3.5 9t9 3.5q5.5 0 9-3.5t3.5-9q0-5.5-3.5-9T238 108zm50-50q-6 0-9.5 3.5t-3.5 9q0 5.5 3.5 9t9 3.5q5.5 0 9-3.5t3.5-9q0-5.5-3.5-9T288 58zM238 8q-6 0-9.5 3.5t-3.5 9q0 5.5 3.5 9t9 3.5q5.5 0 9-3.5t3.5-9q0-5.5-3.5-9T238 8zm-63 275q-5 0-9 3.5t-3.5 9q.5 5.5 4 9t8.5 3.5q5 0 9-3.5t4-9q0-5.5-4-9t-9-3.5zm-50-50q-5 0-8.5 3.5t-4 9q-.5 5.5 3.5 9t9 3.5q5 0 9-3.5t4-9q0-5.5-4-9t-9-3.5zm50-50q-5 0-9 3.5t-3.5 9q.5 5.5 4 9t8.5 3.5q5 0 9-3.5t3.5-9q-.5-5.5-4-9T175 183zm-50-50q-5 0-8.5 3.5t-3.5 9q0 5.5 3.5 9t8.5 3.5q5 0 9-3.5t4-9q0-5.5-4-9t-9-3.5z"/></svg>