<svg viewBox="0 0 300 320" xmlns="http://www.w3.org/2000/svg"><path d="M77 183l36-50h74l36 50h-23q-14 0-25 10-11-10-25-10t-25 10q-11-10-25-10H77zm123 25q-5 0-8.5 3.5T187 221v49h-24v-50q0-5-4-8.5t-9-3.5q-5 0-9 3.5t-4 9.5v24h-24v-25q-1-5-4.5-8.5T100 208H59L0 291v17h300v-18l-59-82h-41zm46-162q-8-17-25-23t-34 2q-7-8-16.5-12.5T150 8q-11 0-20.5 4.5T113 25q-17-8-34-2T54 46q-18 2-25 14.5t-2 26Q32 100 44.5 106t28.5-3q6 4 23 5 10 1 28 0h14V83h25v25h13q18 1 28 0 16-1 23-5 16 9 28.5 3T273 86.5q5-13.5-2-26T246 46z"/></svg>