<svg viewBox="0 0 300 320" xmlns="http://www.w3.org/2000/svg"><path d="M25 33q0-10 7.5-17.5T50 8q10 0 17.5 7.5T75 33q0 10-7.5 17.5T50 58q-10 0-17.5-7.5T25 33zm125 87v-18q0-8-5.5-13.5T131 83H94q-8 0-13.5 5.5T75 102v18h75zm-37-50q10 0 17.5-7t7.5-17.5q0-10.5-7.5-18t-18-7.5Q102 20 95 27.5t-7 18Q88 56 95 63t18 7zm62-12q10 0 17.5-7.5T200 33q0-10-7.5-17.5T175 8q-10 0-17.5 7.5T150 33q0 10 7.5 17.5T175 58zM50 102q0-19 13-32H31q-8 1-13 6t-5 13v19h37v-6zm144-32h-32q13 13 13 32v6h38V89q-1-8-6-13.5T194 70zm95 47q-10-10-23.5-9T243 118l-44 47 1 8q0 20-13 35t-32 17l-53 8-4-25 53-7q10-2 17-10t7-18.5q0-10.5-8-18.5t-20-8H38q-16-1-27 10T0 183v88q0 15 11 26t27 11h120l134-146q9-10 8-23.5T289 117z"/></svg>