<svg viewBox="0 0 300 320" xmlns="http://www.w3.org/2000/svg"><path d="M275 151l-18-18q-14 15-34.5 16.5T186 140L300 26 282 8l-18 6q-21 8-33 14-19 9-19 14.5t3 11.5q3 9 8 13l-54 55q-10-17-7.5-36T177 54l9-9-18-17-17 16q-11 10-15 15-7 8-14 19-11 16-22.5 23.5T67 114l-10 2q-15 3-21 5-10 4-16 10-20 20-20 41 0 18 15 39 8 12 30 35l16 15q22 24 34 33 18 14 35 14h1q21 0 41-20 6-6 11-18 3-9 8-26 5-20 12.5-30t26.5-22q9-5 15-11l13-13 17-17zm-167 86l-37-37 17-18 38 38-18 17zm35-34l-38-38 18-17 37 37-17 18z"/></svg>