<svg viewBox="0 0 300 320" xmlns="http://www.w3.org/2000/svg"><path d="M81 145H6v-25h75v25zm0 25H6v25h75v-25zm107-50h-75v25h75v-25zm0 50h-75v25h75v-25zm106-50h-75v25h75v-25zm0 50h-75v25h75v-25zM81 220H6v25h75v-25zm107 0h-75v25h75v-25zm106 0h-75v25h75v-25zM81 270H6v25h75v-25zm107 0h-75v25h75v-25zm106 0h-75v25h75v-25zM194 52q0-18-13-31T150 8q-18 0-31 13t-13 31q0 18 13 30.5T150 95q18 0 31-12.5T194 52zM88 52q0-18-13-31T44 8Q26 8 13 21T0 52q0 18 13 30.5T44 95q18 0 31-12.5T88 52zm212 0q0-18-13-31T256 8q-18 0-30.5 13T213 52q0 18 12.5 30.5T256 95q18 0 31-12.5T300 52z"/></svg>