<svg viewBox="0 0 300 320" xmlns="http://www.w3.org/2000/svg"><path d="M180 66q14-10 22.5-25.5T213 8h25q-1 23-12 44 24-5 49-7-2 45-17 88h-53l29-29-18-17-46 46h-17q-5-15-1.5-30.5T166 75q7-5 14-9zm112 107q-5-7-13-11t-17-4H38q-9 0-17 4T7.5 172.5q-5.5 6.5-7 15T1 204q8 27 39 58 29 29 60 46h100q23-13 48-35 31-27 43-51 16-29 1-49zM25 133h105q-1-21-16.5-35.5T77.5 83q-20.5 0-36 14.5T25 133zm53-75q15 0 29.5 6T132 81q11-24 34-36 12-10 19-23-14-13-33-14t-33 11Q106 9 90.5 8t-29 7.5q-13.5 8.5-20 23T39 68q18-10 39-10z"/></svg>