<svg viewBox="0 0 300 320" xmlns="http://www.w3.org/2000/svg"><path d="M150 130q19-15 42-19.5t46 2.5v-8q0-24-12-44.5t-32-32Q174 17 149.5 17T105 28.5Q85 40 73 60.5T61 105v8q23-7 46.5-2.5T150 130zm-10 51q10 1 19 0-4-9-9-16-6 7-10 16zm108-51zm15 9q-7-5-15-9-6 23-21.5 41T189 198q1 6 1 12 0 21-8 39.5T160 283q19 14 42.5 16t45-7.5q21.5-9.5 35.5-29t16.5-43q2.5-23.5-7-45T263 139zm-154 71q0-6 1-12-22-9-37.5-27T51 130q-21 11-34.5 30t-16 42.5Q-2 226 8 248t29.5 35.5Q57 297 80.5 299t45.5-8q7-3 14-8-15-14-23-33t-8-40zm56-5q-15 3-31 0v5q0 26 16 46 15-20 15-46v-5zm-49-31q6-15 16-27-24-16-53-13 11 27 37 40zm52-27q10 12 15 27 26-13 37-40-28-3-52 13z"/></svg>