<svg viewBox="0 0 300 320" xmlns="http://www.w3.org/2000/svg"><path d="M200 152q0 8-5.5 13.5t-13.5 5q-8-.5-13.5-5.5t-5.5-13q0-8 5.5-13.5T181 133q8 0 13.5 5.5T200 152zm100 0q0-13-7.5-24T273 111q-5-29-22.5-52t-43-36.5Q182 9 152.5 8.5t-56 12Q70 33 52 55.5T28 107l-9 51h22q32-1 61-15-2 4-2 9 0 7 5 12.5t13 6q8 .5 13.5-4.5t6-13q.5-8-4.5-13.5t-13-6.5h1q26-15 46.5-37T201 47q21 12 33.5 32t14.5 43l1 10 10 1q6 2 10.5 7t4.5 12q0 8-5.5 13t-13.5 5l-13-2-4 10q-6 17-19.5 32.5t-32 25Q169 245 150 245q-27 0-53-20-25-19-35-44-12 2-24 2h-2l1 4q9 23 25.5 41t37.5 29v51h100v-51q40-21 59-62 17-1 29-13.5t12-29.5z"/></svg>