<svg viewBox="0 0 300 320" xmlns="http://www.w3.org/2000/svg"><path d="M200 158q0-21-14.5-35.5T150 108q-21 0-35.5 14.5T100 158q0 21 14.5 35.5T150 208q21 0 35.5-14.5T200 158zm-87 125q0 10-7.5 17.5t-18 7.5Q77 308 70 300.5T63 283q0-10 7-17.5t17.5-7.5q10.5 0 18 7.5T113 283zm150-100q0 34-17 62.5T200 291q-29 17-62 17h-7q7-12 7-25 27 0 50-13.5t36.5-36.5q13.5-23 13.5-50-1-21-14-39-3-14-10.5-26T195 98q29 7 48.5 30.5T263 183zM46 255q-7 10-8 24-21-13-38-31v-42q19 30 46 49zM188 33q0-10 7-17.5T212.5 8q10.5 0 18 7.5T238 33q0 10-7.5 17.5t-18 7.5Q202 58 195 50.5T188 33zM38 133q0-34 16.5-62.5T100 25q29-17 62-17h7q-6 12-6 25-28 0-51 13.5T76 83q-13 23-13 50 0 21 13 39 3 14 10.5 26t18.5 20q-29-7-48-30.5T38 133zm262-65v42q-19-30-46-49 7-10 8-24 21 13 38 31z"/></svg>