<svg viewBox="0 0 300 320" xmlns="http://www.w3.org/2000/svg"><path d="M300 120v25h-75l-62-62h100q15 0 26 11t11 27v-1zM0 120v25h75l63-62H38q-16 0-27 11T0 121v-1zm213-81L163 8h-25v75h25V70l50-31zm2 131h85v138H188v-50q0-16-11-27t-27-11q-16 0-26.5 11T113 258v50H0V170h85l65-62 65 62zM75 258H38v25h37v-25zm0-50H38v25h37v-25zm100-38q0-10-7.5-17t-17.5-7.5q-10-.5-17.5 7t-7.5 18q0 10.5 7.5 17.5t17.5 7.5q10 .5 17.5-7T175 171v-1zm50 63h38v-25h-38v25zm0 50h38v-25h-38v25zm-75-38q-5 0-9 4t-4 9v50h26v-50q0-5-4-8.5t-9-3.5v-1z"/></svg>