<svg viewBox="0 0 300 320" xmlns="http://www.w3.org/2000/svg"><path d="M200 108q-5 0-8.5 3.5T188 121v24q0 6 3.5 9.5t8.5 3.5h63q5 0 8.5-3.5t3.5-9.5v-25q0-5-3.5-8.5T262 108h-62zm25 37q-5 0-8.5-3.5T213 133q0-5 3.5-8.5t8.5-4q5-.5 8.5 3.5t3.5 9q0 5-3.5 8.5T225 145zM38 83q-12 0-21 6 19-37 54.5-59T150 8q43 0 78.5 22T283 89q-9-6-21-6h-62q-12 0-21.5 7T165 108h-30q-4-11-13.5-18T100 83H38zm262 67q-2 14-12.5 23.5T263 183h-63q-16 0-27-11t-11-27v-12h-24v12q0 16-11 27t-27 11H38q-15 0-25.5-9.5T0 150v8q0 41 20 75.5T74.5 288q34.5 20 75.5 20t75.5-20q34.5-20 54.5-54.5t20-75.5v-8zm-150 95q-24 0-49-13-13-7-22-15l17-18q7 5 16 11 20 11 38 10.5t38-10.5q9-6 16-11l17 18q-9 8-22 15-25 13-49 14v-1zm-50-137H38q-6 0-9.5 3.5T25 121v24q0 6 3.5 9.5T38 158h62q5 0 8.5-3.5t3.5-9.5v-25q1-5-3-8.5t-9-3.5zm-25 37q-5 0-8.5-3.5T63 133q0-5 3.5-9t8.5-4q5 0 9 4t4 9q0 5-4 8.5t-9 3.5z"/></svg>