<svg viewBox="0 0 300 320" xmlns="http://www.w3.org/2000/svg"><path d="M63 170q-17 0-31.5 8.5t-23 23Q0 216 0 233t8.5 31.5Q17 279 31.5 287t31 8q16.5 0 31-8t23-22.5Q125 250 125 233t-8.5-31.5Q108 187 93.5 179T63 171v-1zm175 0q-17 0-31.5 8.5t-23 23Q175 216 175 233t8.5 31.5q8.5 14.5 23 22.5t31 8.5q16.5.5 31-8t23-23Q300 250 300 233t-8.5-31.5q-8.5-14.5-23-22.5t-30.5-8v-1zm-113-30q0-6 4-9l33-31 55 54 18-17-65-64q-20-15-46-15-10 0-24 5-16 6-25 16-12 13-12 29t10.5 26.5Q84 145 100 145h1q2 14 12 23l25 21v56h25v-68l-33-28q-5-4-5-9zM238 39q0 13-9.5 22T206 70q-13 0-22-9t-9-22q0-13 9-22t22-9q13 0 22 9t9 22h1z"/></svg>