<svg viewBox="0 0 300 320" xmlns="http://www.w3.org/2000/svg"><path d="M282 94q-13 8-31 12-12 2-23 2h-28q0-58-23-99l-22 12q6 9 10 22 6 17 8 36-15-22-32-41-39 11-64 44t-25 75q0 33-22 51-18 15-21 19-9 13-9 29 0 21 15 36t37 15q45 0 72-2 48-4 82-16 43-15 66-44 28-34 28-86 0-35-18-65zm-88 158q-8 0-13.5-5.5T175 233q0-8 5.5-13.5T194 214q8 0 13.5 5.5t5 13.5q-.5 8-5.5 13.5t-13 5.5zm37-44q-8 0-13.5-5.5T212 189q0-8 5.5-13.5t13.5-5q8 .5 13.5 5.5t5.5 13q0 8-5.5 13.5T231 208zm-6-125V73q1-12 5-23 5-14 14-23.5T268 12q10-3 22-4h10v10q-1 12-4 22-5 15-14 24-13 13-36 17-12 2-21 2z"/></svg>