<svg viewBox="0 0 300 320" xmlns="http://www.w3.org/2000/svg"><path d="M295 139q5 11 5 22v147H0V161q0-11 5-22l101 101q9 9 20.5 13.5T150 258q12 0 23.5-4.5T194 240l101-101zm-32-94v91l-86 86q-11 11-27 11t-27-11l-85-86V45q0-15 10.5-26T75 8h150q16 0 27 11t10 27l1-1zM125 83q0-5 3.5-9t9.5-4h25q5 0 8.5 4t3.5 9h25q0-16-11-27t-26-10V33h-25v12q-16 0-27 11t-11 27q0 13 8 22.5t21 11.5l38 6q3 1 5.5 3.5t2.5 7q0 4.5-3.5 8T163 145h-25q-6 0-9.5-3.5T125 133h-25q0 16 11 26.5t27 10.5v13h25v-13q15 0 26-10.5t11-26.5q0-13-8-22.5T171 99l-38-7q-3 0-5.5-2.5T125 83z"/></svg>