<svg viewBox="0 0 300 320" xmlns="http://www.w3.org/2000/svg"><path d="M213 133q0 5-4 9t-9 3.5q-5-.5-9-4t-3.5-8.5q.5-5 4-9t8.5-4q5 0 9 4t4 9zm-100 0q0-5-4-9t-9-3.5q-5 .5-8.5 4T88 133q0 5 3.5 9t8.5 3.5q5-.5 8.5-4t3.5-8.5h1zm187 25q0 41-20 75.5T225.5 288Q191 308 150 308q-57-2-95-33-35-29-47.5-73t0-88Q20 70 55 41q38-31 95-33 41 0 75.5 20T280 82.5q20 34.5 20 75.5zm-200 12q16 0 27-10.5t11-26.5q0-16-11-27t-27-11q-16 0-27 11t-10.5 27q.5 16 11 26.5T100 170zm100 38H100v25h100v-25zm38-75q-1-16-11.5-27T200 95q-16 0-27 11t-10.5 27q.5 16 11 27t26.5 10.5q16-.5 27-11t11-26.5z"/></svg>