<svg viewBox="0 0 300 320" xmlns="http://www.w3.org/2000/svg"><path d="M138 177v-50q-1-8 4.5-13.5T156 108q8 0 13.5 5.5T175 127v50q0 8-5.5 13.5T156 196q-8 0-13.5-5.5T137 177h1zm68 18q8 1 13.5-4.5T225 177v-50q0-8-5.5-13.5T206 108q-8 0-13.5 5.5T187 127v50q0 8 5.5 13.5T206 196v-1zm82-156q0-8-5.5-13.5T269 20q-8 0-13.5 5.5T250 39v136q0 18-12 31.5T208 220q-15 1-27-7-11 7-25 7-18 1-31-12t-13-31V28q0-7-4-13T96 8q-8-1-14.5 4.5T75 27v183l-33-33q-1-2-5-4-8-5-17.5-3t-15 9.5Q-1 187 0 196.5T8 213l92 95h188V39z"/></svg>