<svg viewBox="0 0 300 320" xmlns="http://www.w3.org/2000/svg"><path d="M30 108L12 90l32-32h19v138H38v-96l-8 8zm170-6V52q0-18 13-31t31-13q18 0 31 13t13 31v50q0 18-13 30.5T244 145q-18 0-31-12.5T200 102zm25 0q0 8 5.5 13t13.5 5q8 0 13.5-5t4.5-13V52q1-8-4.5-13.5T244 33q-8 0-13.5 5.5T225 52v50zM88 127V77q0-18 12.5-31T131 33q18 0 31 13t13 31v50q0 18-13 30.5T131 170q-18 0-30.5-12.5T88 127zm25 0q0 8 5 13t13 5q8 0 13.5-5t5.5-13V77q0-8-5.5-13.5T131 58q-8 0-13 5.5T113 77v50zm181 49L1 237l5 24 293-60-5-25zm1 70l-182 37 5 25 182-37-5-25z"/></svg>