<svg viewBox="0 0 300 320" xmlns="http://www.w3.org/2000/svg"><path d="M163 214l112 44v50H69l-23-20q-8-8-8.5-20t7.5-20.5q8-8.5 20-9t21 7.5l26 22V158q0-11 9-19t21-6q9 2 14.5 9.5T162 159v55h1zM63 8q-17 0-31.5 8.5t-23 23Q0 54 0 70.5t8.5 31q8.5 14.5 23 23t31 8.5q16.5 0 31-8.5t23-23q8.5-14.5 8.5-31t-8.5-31q-8.5-14.5-23-23T62 8h1zm22 96l-5-15H45l-5 15H25l21-64q3-7 7-9t9.5-2q5.5 0 9.5 2t7 8l21 65H85zM64 44h-3L50 74h25L64 44zm163 10q0-3-2.5-5.5T219 46h-21q-1 0-1 1v14h22q3 0 5.5-2t2.5-5zM213 8q-17 0-31.5 8.5t-23 23Q150 54 150 70.5t8.5 31q8.5 14.5 23 23t31 8.5q16.5 0 31-8.5t23-23q8.5-14.5 8.5-31t-8.5-31q-8.5-14.5-23-23T213 8zm14 98h-29q-7 0-11.5-4.5T182 90V47q0-6 4.5-11t11.5-5h21q10 0 16.5 7t6.5 16q0 6-3 11 5 3 7.5 8t2.5 11q0 9-6.5 15.5T227 106zm0-15q3 0 5-2t2-5q0-3-2-5.5t-5-2.5h-30v14q0 1 1 1h29z"/></svg>