<svg viewBox="0 0 300 320" xmlns="http://www.w3.org/2000/svg"><path d="M175 214q0 8-7.5 13.5T150 233q-10 0-17.5-5.5t-7.5-13q0-7.5 7.5-13.5t17.5-5.5q10 .5 17.5 6T175 214zm113-44q0 38-19 69.5t-50.5 50Q187 308 150 308t-68.5-18.5q-31.5-18.5-50-50t-18.5-69q0-37.5 18.5-69t50-50Q113 33 150 33t68.5 18.5Q250 70 269 101.5t19 68.5zm-182-12q8 0 13.5-5.5T125 139q0-8-5.5-13.5t-13.5-5q-8 .5-13.5 5.5t-5 13q.5 8 5.5 13.5t13 5.5zm94 56q0-18-14.5-30.5t-35.5-13q-21-.5-35.5 12.5T100 214q0 18 14.5 31t35.5 13q21 0 35.5-13t14.5-31zm13-75q-1-8-6-13.5t-13-5q-8 .5-13.5 5.5t-5.5 13q0 8 5.5 13.5T194 158q8 0 13.5-5.5T213 139zM91 19Q77 12 55 9 42 8 13 8H0v12q0 8 2 20 3 23 10 44 14-22 34.5-39T91 19zm197 65q7-21 10-44 2-12 2-20V8h-12q-30 0-43 1-22 3-36 10 24 9 44.5 26T288 84z"/></svg>