<svg viewBox="0 0 300 320" xmlns="http://www.w3.org/2000/svg"><path d="M16 108h-5L0 8l100 11v5q0 18-13 37.5t-33 33Q34 108 16 108zM150 8q-12 0-25 2v14q0 25-16.5 50.5t-42 42Q41 133 16 133H2q-2 13-2 25 0 41 20 75.5T74.5 288q34.5 20 76.5 20t77.5-22q35.5-22 54.5-59-9 6-21 6h-76q2 3 2 6-1 8-6 13.5t-13 5.5h-44v-25h25v-25h-25v-25h44q8 0 13.5 5.5T188 202q0 3-2 6h77q5 0 8.5-3.5t3.5-9q0-5.5-3.5-9t-9-3.5q-5.5 0-9.5 4l-17-18q11-11 27-11 12 0 21.5 7t13.5 18q2-13 2-25 0-41-20-75.5T225.5 28Q191 8 150 8zM99 158q-10 0-20.5-4T61 142l18-17q7 7 17 8 13 2 23-9l18 18q-16 16-38 16zm106 0h-3q-22 0-38-16l18-18q9 10 20.5 9t19.5-9l18 18q-15 15-35 16z"/></svg>