<svg viewBox="0 0 300 320" xmlns="http://www.w3.org/2000/svg"><path d="M0 152q0-29 13-53l30 46q10-6 23-10L28 76q9-11 21-19l45 70q13-3 27-5L71 45l8-3q9-2 20-4l53 83q16 0 31 2l-56-89q12-1 23-1h9l63 98q19 6 39 15L190 36q18 3 31 6 35 11 56.5 41.5T300 152q0 8-4 15t-11.5 11.5Q277 183 268 183t-17-3q-19-9-44-15-29-7-57-7t-57 7q-25 6-44 15-8 3-17 2.5T15.5 178Q8 174 4 167t-4-15zm267 56q-14 0-26-6-17-8-40-13-26-6-51-6t-51 6q-23 5-40 13-13 6-28 5.5T3 200l-3-2v16q0 23 8 38.5t21 23q13 7.5 27 7.5 19 0 32-13 12 13 30.5 13t31.5-13q13 13 31.5 13t31.5-13q12 13 31 13 14 0 27-7.5t21-23q8-15.5 8-38.5v-16l-3 2q-14 8-30 8z"/></svg>