<svg viewBox="0 0 300 320" xmlns="http://www.w3.org/2000/svg"><path d="M213 225l18-35q-30 18-68 18-26 0-49-9-15-32-25-43-7-6-16-8.5T55 146q-5-13-5-26 0-23 15-43t41-32q26-12 56.5-12T219 45q26 12 41 32t15 44.5q0 24.5-18 45.5l12 24q15-15 23-33t8-38q0-30-18.5-56t-50-41Q200 8 162.5 8t-69 15Q62 38 43.5 64T25 120q0 20 9 39-9 11-9 24 0 8 3 15-12 11-19 24-9 18-9 35.5t8 29Q16 298 27.5 303t22.5 5v-25q-8 0-15-4-10-6-10-21 0-22 21-43 15 5 43 5h10q30 13 63 13 27 0 51-8zm54 16l33 17-33 16-17 34-17-34-33-16 33-17 17-33 17 33zM181 83l15 29 29 15-29 14-15 29-14-29-29-14 29-15 14-29z"/></svg>