<svg viewBox="0 0 300 320" xmlns="http://www.w3.org/2000/svg"><path d="M299 258l-13-74q8-8 11.5-18.5T299 144q-2-11-8.5-19.5T273 111q-5-29-22-52t-43-36.5Q182 9 152.5 8t-56 11.5Q70 32 52 55t-24 52l-9 51h22q32-1 61-15-2 4-2 9 0 7 5 12.5t13 6q8 .5 13.5-4.5t6-13q.5-8-4.5-13.5t-13-6.5q27-15 47.5-37T202 47q20 12 32.5 32t14.5 43l1 10 10 1q7 2 11 7.5t3.5 13q-.5 7.5-6 12T256 171h-14l-3 7q-6 17-19.5 32.5t-32 25.5q-18.5 10-37.5 9-29-2-52.5-18.5T62 183H14L1 259q-2 9 0 18t8 16q6 7 14 11t17 4h73v-45q18 7 37 7t37-7v45h73q9 0 17.5-4t14-11.5Q297 285 299 276t0-18zM163 152q0 8 5 13.5t13 5q8-.5 13.5-5.5t5.5-13q0-8-5.5-13.5T181 133q-8 0-13.5 5.5T162 152h1z"/></svg>