<svg viewBox="0 0 300 320" xmlns="http://www.w3.org/2000/svg"><path d="M150 8q-41 0-75.5 20T20 82.5Q0 117 0 158t20 75.5Q40 268 74.5 288t75.5 20q41 0 75.5-20t54.5-54.5q20-34.5 20-75.5t-20-75.5Q260 48 225.5 28T150 8zm44 87q8 0 13.5 11t5 27q-.5 16-5.5 26.5T194 170q-8 0-13.5-10.5T175 133q0-16 5.5-26.5T194 96v-1zm-51 49l-50 25-11-22 50-25 11 22zM96 70l21 14q-20 29-50 41l-9-24q23-9 38-31zm86 175q-7 0-15-5-5-3-13-10v-1q-8-8-10.5-8.5T135 224l-9 6q-7 3-13 3-11 0-26-11-10-7-21-18l18-17q8 8 16.5 14.5T112 208q3 0 9-4t10-6q6-3 13-3t15 6q5 3 13 10v1q8 8 11 9 6-1 15.5-11t15.5-21l22 13q-8 13-18 24-19 19-36 19z"/></svg>