<svg viewBox="0 0 300 320" xmlns="http://www.w3.org/2000/svg"><path d="M299 290l-77-78q13-16 20.5-36.5T250 133q0-34-17-62.5T187.5 25Q159 8 125 8T62.5 25Q34 42 17 70.5T0 133q0 34 17 62.5T62.5 241Q91 258 125 258q22 0 42.5-7.5T204 230l78 77 17-17zM108 117l38 7q12 2 20.5 11.5T175 158q0 15-11 26t-27 11v13h-25v-13q-15 0-26-11t-11-26h25q0 5 3.5 8.5t8.5 3.5h25q5 0 9-3.5t4-8q0-4.5-2.5-7T142 148l-38-6q-13-2-21-12t-8-22q0-16 11-27t26-11V58h25v12q16 0 27 11t11 27h-25q0-5-4-9t-9-4h-25q-5 0-8.5 4t-3.5 8q0 4 2 7t6 3z"/></svg>