<svg viewBox="0 0 300.0019 320" xmlns="http://www.w3.org/2000/svg"><path d="M173 136q14 18 14 47 1 33-12 72-7 19-14 34l-11 22-11-22q-7-14-14-34-12-39-12-72 0-29 14-47-8-9-8-22V70l16 17q7-4 15-4t15 4l16-17v44q0 13-8 22zm72-113L225 9v36q0 28-1 39-1 19-6 31t-17 19q11 22 12 49 0 30-10 64 5 1 10 4l13 8 5-15q2-8 7-16 6-12 13-16.5t16-2.5q5 1 8 3l16 11 3-19q6-30 6-46 1-37-13-75-16-41-42-60zM75 45V9L55 23Q29 42 13 83q-14 38-13 75 0 9 3 28l6 36 16-10q3-2 8-3 9-2 16 2.5T62 228q5 8 7 16l5 15 13-8q5-3 10-4-9-34-9-64 0-27 11-49-12-7-17-19t-6-31q-1-11-1-39z"/></svg>