<svg viewBox="0 0 300 320" xmlns="http://www.w3.org/2000/svg"><path d="M213 83q-16 0-27-11t-11-26.5Q175 30 186 19t26.5-11Q228 8 239 19t11 26.5Q250 61 239 72t-26 11zm0 225q-16 0-27-11t-11-26.5q0-15.5 11-26.5t26.5-11q15.5 0 26.5 11t11 26.5q0 15.5-11 26.5t-26 11zm0-113q-16 0-27-10.5T175 158q0-16 11-26.5t26.5-11Q228 120 239 131t11 27q0 16-11 26.5T213 195zM88 83q-16 0-27-11T50 45.5Q50 30 61 19T87.5 8Q103 8 114 19t11 26.5Q125 61 114 72T88 83zm0 225q-16 0-27-11t-11-26.5Q50 255 61 244t26.5-11q15.5 0 26.5 11t11 26.5q0 15.5-11 26.5t-26 11zm0-113q-16 0-27-10.5T50 158q0-16 11-26.5t26.5-11Q103 120 114 131t11 27q0 16-11 27t-26 10z"/></svg>