<svg viewBox="0 0 300 320" xmlns="http://www.w3.org/2000/svg"><path d="M129 162l17 17L18 308 0 290l129-128zm119-84l52-52-18-18-49 49q-14-15-32-24t-38-12q-24-2-47 5T75 49Q57 65 47.5 87T38 133h25q0-19 7.5-36T92 67.5q14-12.5 31.5-18T160 46q30 4 51.5 25t25.5 51q2 19-3.5 37T216 191q-8 8-12 19.5t-4 22.5q0 21-14.5 35.5T150 283v25q20 0 37.5-10t27.5-27q10-17 10-38 0-6 2.5-13.5T234 208q16-18 23.5-41.5T262 119q-3-21-14-41zm-51 96q15-17 15-41 0-17-8-31.5t-22.5-23Q167 70 150 70t-31.5 8.5q-14.5 8.5-23 23T87 133h25q0-16 11-27t26.5-11q15.5 0 26.5 11t11 26q0 15-9 26l19 16z"/></svg>