<svg viewBox="0 0 300 320" xmlns="http://www.w3.org/2000/svg"><path d="M275 235v-27q0-16-11-26.5T237 170h-74v-38q23-5 37.5-24.5t12-43.5Q210 40 192 24T150 8q-24 0-42 16T87.5 64q-2.5 24 12 43.5T137 132v38H63q-16 0-27 11t-11 27v27q-13 5-20 16.5t-4.5 25Q3 290 13.5 299t24 9q13.5 0 24-9t13-22.5q2.5-13.5-4.5-25T50 235v-27q0-5 3.5-8.5T63 196h75v39q-13 5-20 16.5t-5 25q2 13.5 12.5 22.5t24.5 9q14 0 24.5-9t12.5-22.5q2-13.5-5-25T163 235v-40h75q5 0 8.5 4t3.5 9v27q-13 5-20 16.5t-4.5 25q2.5 13.5 13 22.5t24 9q13.5 0 24-9t13-22.5q2.5-13.5-4.5-25T275 235z"/></svg>