<svg viewBox="0 0 300 320" xmlns="http://www.w3.org/2000/svg"><path d="M159 194l35 54q-20 10-44 10t-44-10q29-45 34-54 6 2 10 2t9-2zm-39-59L85 82q-11 9-19 21-12 20-15 43h64q2-6 5-11zm18 23q0 5 3.5 8.5t8.5 3.5q5 0 8.5-3.5t4-8.5q.5-5-3.5-8.5t-9-4q-5-.5-8.5 3.5t-3.5 9zm77-76l-35 53q3 5 5 11h64q-3-23-15-43-8-12-19-21zm85 76q0 41-20 75.5T225.5 288Q191 308 150 308t-75.5-20Q40 268 20 233.5T0 158q0-41 20-75.5T74.5 28Q109 8 150 8t75.5 20Q260 48 280 82.5t20 75.5zm-25 12v-12q0-37-21-69-14-21-35-35l-11-7-49 75q-5-1-9-1t-9 1L92 47l-11 7Q60 68 46 89q-21 32-21 69v12l90 1q2 5 5 9l-49 76 10 6q32 21 69 21t69-21l10-6-49-75q3-5 5-10l90-1z"/></svg>