<svg viewBox="0 0 300 320" xmlns="http://www.w3.org/2000/svg"><path d="M191 117q10-9 15.5-21t5.5-25q1-17-7.5-31.5t-23-23Q167 8 150 8t-31.5 8.5Q104 25 96 39.5T88 71q0 13 5.5 25t15.5 21q-27 12-43 36.5T50 208q0 27 13.5 50t36.5 36.5q23 13.5 50 13.5t50-13.5q23-13.5 36.5-36.5t13.5-50q0-30-16-54.5T191 117zm-78-47q0-15 10.5-26T150 33q16 0 26.5 11t11 26.5Q188 86 177 97t-27 11q-16 0-26.5-11T113 71v-1zm37 213q-20 0-37.5-10T85 245.5Q75 228 75 208t10-37.5Q95 153 112.5 143t37.5-10q20 0 37.5 10t27.5 27.5q10 17.5 10 37.5t-10 37.5Q205 263 187.5 273T150 283z"/></svg>