<svg viewBox="0 0 300 320" xmlns="http://www.w3.org/2000/svg"><path d="M283 89l13-21q5-7 4-16t-7-15l-22-22q-6-6-15-7t-16 4l-21 13Q187 8 150 8q-41 0-75.5 20T20 82.5Q0 117 0 158q0 37 17 69L4 248q-5 7-4 16t7 15l22 22q6 6 15 7t16-4l21-13q32 17 69 17 41 0 75.5-20t54.5-54.5q20-34.5 20-75.5 0-37-17-69zm-77 6q8 1 13.5 6t5.5 13q0 8-5.5 13.5T206 133q-8 0-13.5-5.5T187 114q0-8 5.5-13.5T206 95zm-93-25h50q0 21-15 35.5T113 120V70zm-50 69q0-8 5-13.5t13-5q8 .5 13.5 5.5t5.5 13q0 8-5.5 13.5T81 158q-8 0-13-5.5T63 139zm62 94q-21 0-35.5-14.5T75 183h50v50zm19-63q-8 1-13.5-4.5T125 152q0-8 5.5-13.5T144 133q8 0 13.5 5.5T163 152q0 8-5.5 13.5T144 171v-1zm25 75q-8 0-13.5-5t-5.5-13q0-8 5.5-13.5T169 208q8 0 13.5 5.5t5 13.5q-.5 8-5.5 13t-13 5zm54-31l-35-35 35-35q14 14 14 35t-14 35z"/></svg>