<svg viewBox="0 0 300 320" xmlns="http://www.w3.org/2000/svg"><path d="M225 158q-20 0-37.5 10T160 195.5Q150 213 150 233t10 37.5q10 17.5 27.5 27.5t37.5 10q20 0 37.5-10t27.5-27.5q10-17.5 10-37.5t-10-37.5Q280 178 262.5 168T225 158zm8 105q-8 7-18 7t-18-7l-25-25 18-18 25 25 45-45 18 18-45 45zM69 95q-18 0-31-12.5T25 52q0-18 13-31T69 8q18 0 31 13t13 31q0 18-13 30.5T69 95zm112 0q-18 0-30.5-12.5T138 52q0-18 12.5-31T181 8q18 0 31 13t13 31q0 18-13 30.5T181 95zM56 152q0-25 16-44H38q-16 0-27 11T0 145v38h64q-8-15-8-31zm25 0q0-18 13-31t31-13q18 0 30.5 12.5T169 150q-25 17-36 45h-8q-18 0-31-12.5T81 152zm57 131H50v-38q0-15 11-26t27-11h40q-3 12-3 25 0 27 13 50z"/></svg>