<svg viewBox="0 0 300 320" xmlns="http://www.w3.org/2000/svg"><path d="M300 158q0 13-6.5 24.5T276 201q-4 3-5.5 7t-.5 8q3 13-.5 25.5t-12 21.5q-8.5 9-20.5 13v-10q1-16-1-24-3-14-11-22-12-12-31-12l-7 1q12-9 19-22.5t7-29.5q0-16-8.5-30.5t-23-22.5Q167 96 150 96t-31.5 8Q104 112 96 126.5T88 157q0 16 6.5 29.5T113 209l-7-1q-19 0-31 12-10 10-12 27v1q-1 6-1 17v11q-11-4-19.5-13t-12-21.5Q27 229 30 216q1-4-.5-8t-5.5-7q-11-7-17.5-18.5T0 158q0-13 6.5-24.5T24 115q4-3 5.5-7t.5-8q-3-13 1-26t13-22q9-9 22-13t26-1q4 1 8-.5t7-5.5q7-11 18.5-17.5T150 8q13 0 24.5 6.5T193 32q3 4 7 5.5t8 .5q13-3 26 1t22 13q9 9 13 22t1 26q-1 4 .5 8t5.5 7q11 7 17.5 18.5T300 158zm-106 75q-16 0-44 25-28-25-44-25-13 0-16 9-3 6-3 24v9q0 18 3 24 3 9 16 9 16 0 44-25 28 25 44 25 13 0 16-9 3-6 2-24v-9q1-18-2-24-3-9-16-9z"/></svg>