<svg viewBox="0 0 300 320" xmlns="http://www.w3.org/2000/svg"><path d="M299 140q-2 7-7 12l-7 5-16-18-19 17 16 18-20 18-16-18-19 17 16 18-22 21h-1q-6-5-16-11-20-11-38-11t-38 11q-10 6-16 11l-17-19q8-7 21-14 26-14 50-14 12 0 26 4l82-73q8-7 18.5-6t17.5 9q-9-31-30-56t-50.5-39Q184 8 150 8q-41 0-75.5 20T20 82.5Q0 117 0 158t20 75.5Q40 268 74.5 288t75.5 20q41 0 75.5-20t54.5-54.5q20-34.5 20-75.5 0-8-1-18zm-105-32q7 0 12.5 5.5T212 127q0 8-5.5 13.5t-13 5q-7.5-.5-13-5.5t-5.5-13q0-8 5.5-13.5T194 108zm-88 0q8 0 13.5 5.5T125 127q0 8-5.5 13.5t-13.5 5q-8-.5-13.5-5.5T87 127q0-8 5.5-13.5T106 108z"/></svg>