<svg viewBox="0 0 300 320" xmlns="http://www.w3.org/2000/svg"><path d="M25 170v-12q0-16 11-27t26-11h76V93q-12-4-18.5-13.5T113 58q0-12 12-27 7-9 17-17l8-6 8 6q10 8 17 17 12 15 12 27t-6.5 21.5Q174 89 162 93v27h76q15 0 26 11t11 27v12q0 4-6.5 8.5T253 183q-9 0-15.5-4.5T231 171h-25q0 3-6 7.5t-15.5 4.5q-9.5 0-15.5-4.5t-6-7.5h-25q0 3-6.5 7.5t-16 4.5q-9.5 0-15.5-4.5t-6-7.5H69q0 3-6.5 7.5T47 183q-9 0-15.5-4.5T25 171v-1zM0 283v25h300v-25H0zm275-80q-10 5-22 5-19 0-34-12-15 12-34.5 12T150 196q-15 12-34.5 12T81 195q-15 13-34 13-12 0-22-5v55h250v-55z"/></svg>