<svg viewBox="0 0 300 320" xmlns="http://www.w3.org/2000/svg"><path d="M169 158q0 8-5.5 13.5T150 177q-8 0-13.5-5.5T131 158q0-8 5.5-13.5T150 139q8 0 13.5 5.5T169 158zm80 58q3 26-2.5 45T227 289q-11 7-24 7-6 0-13-2-19-5-40-21-29 23-54 23-12 0-23-7-14-9-19.5-28T51 215q-24-10-37.5-25T0 158q0-17 13.5-32T51 101q-3-27 2.5-46T74 26.5Q89 17 110 23q19 4 40 20 22-17 42-21t34.5 5q14.5 9 20 28.5T249 101q24 11 37.5 25.5t13.5 32q0 17.5-13.5 32T249 216zm-71-9q8-12 14-22 7-13 13-27-6-14-13-27-6-10-14-21-14-2-28-2t-28 2q-8 11-14 21-7 13-13 27 6 15 13 27 6 10 14 22 15 1 28.5 1t27.5-1zm-9-147q25 25 44 59l4 7q9-28 8-49.5T213 48q-7-4-18.5-1T169 60zM76 93q34-10 74-10h7q-14-15-28-24.5t-25-12q-11-2.5-17.5 2t-9.5 16Q74 76 76 93zm11 26q0-1 1-2l1-2q-29 7-46.5 19T25 158q0 8 8.5 16.5T56 190q10-35 31-71zm44 137q-25-25-44-58l-4-8q-9 29-8 50.5T87 268q7 5 18.5 1.5T131 256zm93-32q-34 9-74 9h-7q14 15 28 24.5t25 12q11 2.5 17.5-1.5t9.5-15.5q3-11.5 1-28.5zm51-66q0-8-8.5-16.5T244 126q-10 36-31 72l-2 3q29-7 46.5-19t17.5-24z"/></svg>