<svg viewBox="0 0 300 320" xmlns="http://www.w3.org/2000/svg"><path d="M150 8q-41 0-75.5 20T20 82.5Q0 117 0 158t20 75.5Q40 268 74.5 288t75.5 20q41 0 75.5-20t54.5-54.5q20-34.5 20-75.5t-20-75.5Q260 48 225.5 28T150 8zM58 115q23-9 38-32l21 14q-20 29-50 41l-9-23zm48 18q8 0 13.5 5.5T125 152q0 8-5.5 13.5T106 171q-8 0-13.5-5.5t-5-13.5q.5-8 5.5-13.5t13-5.5zm104 107l-19 17q-2-2-6-8-5-8-8-16h-54q-5 13-16 24l-17-17q3-4 6.5-9.5t3.5-10q0-4.5-3.5-10T90 201l17-17q11 11 16 24h54q5-13 16-24l17 17q-3 4-6.5 9.5t-3.5 10q0 4.5 3.5 10t6.5 9.5zm-16-70q-8 1-13.5-4.5T175 152q0-8 5.5-13.5T194 133q8 0 13.5 5.5t5 13.5q-.5 8-5.5 13.5t-13 5.5v-1zm39-32q-30-12-50-41l21-13q15 22 38 31l-9 23z"/></svg>