<svg viewBox="0 0 300 320" xmlns="http://www.w3.org/2000/svg"><path d="M200 95V70h-28q-2-6-5-11l18-19-17-17-19 18q-5-3-11-5V8h-25v26q-11 1-20 7L74 22 57 40l17 17-25 25-17-17-18 17 19 19q-6 9-7 19H0v25h28q2 7 5 12l-18 19 17 17 19-18q5 3 12 5v28h25v-26q17-3 29-15l34-33 10 10 17-18-11-11q6-9 7-20h26zm-81 13q-8 0-13.5-5.5T100 89q0-8 5.5-13.5T119 70q8 0 13 5.5t5.5 13.5q.5 8-5 13.5T119 108zm181 87v-25h-28q-2-6-5-11l18-19-17-17-19 18q-5-3-11-5v-28h-25v26q-18 3-30 15l-34 33-10-10-18 18 12 11q-6 9-7 20h-26v25h28q2 6 5 11l-18 19 17 17 19-18q5 3 12 5v28h25v-26q10-1 19-7l19 19 18-18-18-17 25-25 17 18 18-18-19-19q6-9 7-19h26v-1zm-119 50q-8 0-13.5-5t-5-13q.5-8 5.5-13.5t13-5.5q8 0 13.5 5.5T200 227q0 8-5.5 13t-13.5 5z"/></svg>