<svg viewBox="0 0 300 320" xmlns="http://www.w3.org/2000/svg"><path d="M300 208q0 7-3.5 13.5T287 232q-3 2-4 5.5t-1 6.5q2 7 0 14t-8 12q-8 8-20 8h-5q-3-1-6.5.5T237 283q-4 6-10.5 9t-13.5 3q-7 0-13.5-3t-10.5-9q-2-3-5.5-4.5t-6.5-.5h-3q9-14 8-30 8-8 12.5-18.5T199 208q0-11-4.5-21.5T182 168q1-16-8-30h3q3 1 6.5-.5t5.5-4.5q4-6 10.5-9.5T213 120q7 0 13.5 3.5T237 133q2 3 5.5 4.5t6.5.5q7-1 13.5 1t12 7q5.5 5 7.5 12t0 14q0 3 1 6.5t4 5.5q6 4 9.5 10.5T300 208zm-126 0q0-7-3.5-13.5T161 184q-3-2-4-5.5t-1-6.5q2-7 0-14t-7-12q-5-5-12-7t-14-1q-3 1-6.5-.5T111 133q-4-6-10.5-9.5t-13.5-3q-7 .5-13.5 3.5T63 133q-2 3-5.5 4.5t-6.5.5q-7-1-13.5 1t-12 7q-5.5 5-7.5 12t0 14q0 3-1 6.5t-4 5.5q-6 4-9.5 10.5T0 208q0 7 3.5 13.5T13 232q3 2 4 5.5t1 6.5q-2 7 0 14t8 12q8 8 20 8h5q3-1 6.5.5T63 283q4 6 10.5 9t13.5 3q7 0 13.5-3t10.5-9q2-3 5.5-4.5t6.5-.5h5q12 0 21-8 5-5 7-12t0-14q0-3 1-6.5t4-5.5q6-4 9.5-10.5T174 208zm-47-95q12 0 23 4 11-4 23-4 8-8 18.5-13t22-4.5Q225 96 237 101q-3-11-12-17-3-2-4.5-5.5T220 72q1-7-1-14t-7-12q-5-5-12-7t-13-1q-4 1-7.5-.5T174 33q-4-6-10-9t-13.5-3.5q-7.5-.5-14 3T127 33q-3 3-6 4.5t-7 .5q-7-1-13.5 1T89 46q-5 5-7 12t-1 14q1 3-.5 6.5T76 84q-9 6-12 17 11-6 22.5-6t22 5q10.5 5 18.5 13z"/></svg>