<svg viewBox="0 0 300 320" xmlns="http://www.w3.org/2000/svg"><path d="M292 207L192 44q-7-11-18-17.5T150 20q-13 0-24 6.5T108 44l-43 70 35 23 5-12q4-13 16.5-18t25.5 1l5 3q17 8 24 26l8 32-27-18-2-6q-4-10-14-15l-2-1q-5-2-9-.5t-6 5.5l-6 16 85 58 21-31 41 81h-97l20-29-137-93-44 71q-7 12-7 25.5T6.5 258q6.5 12 18 18.5T50 283h200q14 0 25.5-6.5t18-18.5q6.5-12 6.5-25.5t-8-25.5zM150 95q-8 1-13.5-4.5T131 77q0-8 5.5-13.5T150 58q8 0 13.5 5.5T169 77q0 8-5.5 13.5T150 96v-1zM82 258H57l25-71 21 14-21 57zm60 0h-23v-46l23 17v29z"/></svg>