<svg viewBox="0 0 300.0032 320" xmlns="http://www.w3.org/2000/svg"><path d="M294 185q5 7 6 15.5t-3 16.5q-10 26-35.5 50T203 308H97q-33-17-58.5-41T3 217q-4-8-3-16.5T5.5 185q4.5-7 11.5-11t15-4h236q8 0 15 4t11 11zM252 71v-1l-9-19q-10-21-16-27t-30-12q-11-3-22-4l2 11q2 13 5 23 4 13 8 18 8 8 23 10v1h-42l-9-20q-10-21-16-27t-30-12q-12-3-22-4l2 11q2 13 5 23 4 13 8 18 8 8 22 10l1 1H91Q68 53 57.5 53T22 68Q10 76 0 83l11 8q13 8 24 14 15 8 22 8 11 0 34-17h40q-14 2-22 10-6 7-11 30-3 12-4 22l11-2q13-2 23-5 13-4 17-8 6-6 16-27l10-20h41q-14 2-22 10-4 5-8 18-3 10-5 23l-2 11 11-2q13-2 23-5 13-4 18-8 6-6 16-27 5-11 9-20h48V71h-48z"/></svg>