<svg viewBox="0 0 300 320" xmlns="http://www.w3.org/2000/svg"><path d="M31 39q0-13 9.5-22t22-9q12.5 0 22 9T94 39q0 13-9.5 22.5t-22 9Q50 70 40.5 61T31 39zm119 94q13 0 22-9t9-22q0-13-9-22.5T150 70q-13 0-22 9.5t-9 22.5q0 13 9 22t22 9zm13 12h-25q-16 1-27 11.5T100 183v75h13v50h25v-50h25v50h25v-50h12v-75q0-16-11-27t-26-11zm62-75q13 0 22-9t9-22q0-13-9-22t-22-9q-13 0-22 9t-9 22q0 13 9 22.5t22 9.5v-1zm64 188l-18-142q-1-14-12-23.5T234 83h-18q-6 0-12 2h-1q3 9 3 17 0 16-8 29 12 9 19.5 22.5T225 183v75h13v50h25v-50h26zM94 102q0-9 3-18-5-1-10-1H38q-16 0-27 11T0 120v100h25v88h25v-88h25v-37q0-16 7.5-29.5T102 131q-8-13-8-29z"/></svg>