<svg viewBox="0 0 300 320" xmlns="http://www.w3.org/2000/svg"><path d="M189 245l18 18-34 33q-11 12-28 12t-28-11q-11-11-12-26t8-27l-16-15-44 45-18-18 45-45-15-15q-12 9-27 8.5t-26.5-12Q0 181 0 164.5T12 136l33-34 18 18-33 34q-5 4-5 10.5t4.5 11q4.5 4.5 11 4.5t10.5-5l39-39q36-36 85-53 32-11 63-13-2 31-13 63-17 49-53 85l-38 39q-4 4-4 10.5t4.5 11Q139 283 145 283t11-5l33-33zM165 8q-22 0-38 16-10 9-13 23t0 28l3 8q41-26 91-35 26-5 44-3h11v11q1 18-3 44-9 50-35 91l8 3q7 2 15 2 22 0 37-15.5t15-37.5V8H165z"/></svg>