<svg viewBox="0 0 300 320" xmlns="http://www.w3.org/2000/svg"><path d="M150 83q-20 0-37.5 10T85 120.5Q75 138 75 158t10 37.5Q95 213 112.5 223t37.5 10q20 0 37.5-10t27.5-27.5q10-17.5 10-37.5t-10-37.5Q205 103 187.5 93T150 83zm38 56l-39 75-23-12 30-57h-43v-25h75v19zM150 8q-41 0-75.5 20T20 82.5Q0 117 0 158t20 75.5Q40 268 74.5 288t75.5 20q41 0 75.5-20t54.5-54.5q20-34.5 20-75.5t-20-75.5Q260 48 225.5 28T150 8zm0 250q-27 0-50-13.5T63.5 208Q50 185 50 158t13.5-50Q77 85 100 71.5T150 58q27 0 50 13.5t36.5 36.5q13.5 23 13.5 50t-13.5 50Q223 231 200 244.5T150 258z"/></svg>