<svg viewBox="0 0 300 320" xmlns="http://www.w3.org/2000/svg"><path d="M237 45q13-16 13-37h-25q0 16-11 26.5T187 45h-74q-16 0-27-10.5T75 8H50q0 21 13 38H0v12q2 28 21 49 27-26 56-48 13 9 28 11L86 85q-21 16-29 23h18q17 0 31.5 8.5t22.5 23q8 14.5 8 31.5v62h-24v-63q-1-6-3-12-10 2-17-5.5T88 135q-6-2-13-2H43l32 140q1 15 12 25t25 10h76q14 0 25-10t12-25l32-140h-32q-7 0-13 2 2 10-5 17.5t-17 5.5q-2 6-3 13v62h-24v-63q0-16 8-30.5t22.5-23Q208 108 225 108h18q-8-7-29-23l-19-15q15-2 28-11 29 22 56 48 19-21 21-49V45h-63zm-49 213q5 0 8.5 3.5t3.5 9q0 5.5-3.5 9T188 283h-75q-6 0-9.5-3.5t-3.5-9q0-5.5 3.5-9t9.5-3.5h75z"/></svg>