<svg viewBox="0 0 300 320" xmlns="http://www.w3.org/2000/svg"><path d="M300 208q0 17-8.5 31.5t-23 22.5q-14.5 8-31.5 9-22 0-38-13.5T177.5 224q-5.5-20 2-39.5T206 154l20 58q1 5 6 7t9.5.5q4.5-1.5 7-6t.5-9.5l-19-58q13-1 26 2.5t23 12.5q10 9 15.5 21.5T300 208zm-70-62q-13 2-24 8l-7-21q-5 4-10 10l-47 62q-7 10-18 13-5 27-25 41-18 13-41.5 11T18 252Q0 235 0 208q0-15 6.5-28t18-21.5Q36 150 50.5 147t28.5 1l6-8q5-6 1.5-12.5T75 121H25V95h50q12 0 21.5 7t13.5 19h66q7-7 15-13l-13-38h-40V45h59l17 54h1q13-2 26-3 3-6 9-9.5t12-3.5h13v50h-12q-7 0-12.5-3t-9.5-9q-9 1-19 2l8 23zm-74-1h-46q-2 6-5 11l-30 39h38q6 0 9-5l34-45z"/></svg>