<svg viewBox="0 0 300 320" xmlns="http://www.w3.org/2000/svg"><path d="M179 183q13 12 13 29-1 25-20 59-4 5-9.5 8.5T150 283q-7 0-12.5-3.5T128 271q-20-35-20-60 0-12 7.5-22.5t19.5-15q12-4.5 24-2t20 11.5zm118-8q-6-16-22-24.5t-32-3.5q-8 2-14 7-11 8-15 20.5t1 25.5q8 24 38 51 8 7 17 7 5 0 8-1 7-2 11.5-7t5.5-12q9-39 1-63h1zM71 154q-6-5-14-7-16-5-32 3.5T3 175q-7 24 2 63 1 7 5.5 12t11.5 7q3 1 7 1 10 0 18-6 30-28 38-52 5-13 1-25.5T71 154zm-16-33q6 1 10 2 6 2 14 7l16-43q21 7 42 8v52q13-3 26 0V95q21-2 42-8l16 43q8-5 14-7 3-1 10-2l-16-42q25-10 47-25 12-8 20-15l-17-19q-15 13-38 26-47 24-91 24T59 46Q36 33 21 20L4 39q8 7 20 15 22 15 47 25l-16 42z"/></svg>