<svg viewBox="0 0 300 320" xmlns="http://www.w3.org/2000/svg"><path d="M137 178q6 5 13 5t13-5l23-20h52V34q-1-11-8.5-18.5T212 8H88q-10 0-17.5 7.5T63 34v124h51l23 20zM112 64l30 30 47-47 18 18-52 50q-6 6-13.5 6t-13.5-6L94 82l18-18zM75 183q-17 0-31.5 8.5t-22.5 23q-8 14.5-8.5 31t8 31q8.5 14.5 23 23T75 308q17 0 31.5-8.5t23-23q8.5-14.5 8.5-31t-8.5-31q-8.5-14.5-23-23T75 183zm22 96l-5-15H58l-5 15H37l22-64q3-7 6.5-9t9.5-2q6 0 9.5 2t6.5 8l22 65H97zm-20-60h-4l-10 30h24l-10-30zm162 10q0-3-2-5.5t-5-2.5h-22q-1 0-1 1v14h23q3 0 5-2t2-5zm-14-46q-17 0-31.5 8.5t-23 23q-8.5 14.5-8 31t8.5 31q8 14.5 22.5 23T225 308q17 0 31.5-8.5t23-23q8.5-14.5 8.5-31t-8.5-31q-8.5-14.5-23-23T225 183zm14 98h-29q-6 0-11-4.5t-5-11.5v-43q0-6 5-11t11-5h22q9 0 15.5 7t6.5 16q0 6-3 11 5 3 8 8t3 11q0 9-6.5 15.5T239 281zm0-15q3 0 5.5-2t2.5-5q0-3-2.5-5.5T239 251h-30v14q0 1 1 1h29z"/></svg>