<svg viewBox="0 0 300 320" xmlns="http://www.w3.org/2000/svg"><path d="M285 66q-7-6-15-7.5t-17 .5l-10 3q-12 4-19 6-13 2-24 2t-26-3q-8-2-26-8-20-7-30-9-17-5-30-5-32 0-68 19-9 5-14.5 14T0 97v173l18-8q8-4 22-8 26-8 48-8 11-1 28 3 10 3 30 8l1 1q22 6 33 8 19 4 33 4 24 0 54-8 15-5 26-10l7-3V95q0-8-4-16t-11-13zM50 208q-5 0-9-3.5t-3.5-9q.5-5.5 4-9T50 183q5 0 9 3.5t4 9q0 5.5-4 9t-9 3.5zm0-88q-5 0-9-3.5t-3.5-8.5q.5-5 4-8.5t8.5-4q5-.5 9 3.5t4 9q0 5-4 8.5t-9 3.5zm125 94q-5-2-15-5l-10-2v-57l-16 17-18-18 36-37q12 4 23 6v96zm75 6q-5 0-8.5-3.5t-4-8.5q-.5-5 3.5-8.5t9-3.5q5 0 9 3.5t4 8.5q0 5-4 8.5t-9 3.5zm0-87q-5 0-8.5-3.5t-4-9q-.5-5.5 3.5-9t9-3.5q5 0 9 3.5t4 9q0 5.5-4 9t-9 3.5z"/></svg>