<svg viewBox="0 0 300 320" xmlns="http://www.w3.org/2000/svg"><path d="M163 224v-16H75v-75H50v25H25v-25H0v175h25v-25h25v25h85q-10-14-10-31.5t10.5-32Q146 230 162 224h1zM50 258H25v-25h25v25zm-25-50v-25h25v25H25zm275-13v82q0 13-9 22t-22 9q-13 0-22.5-9t-9-22q.5-13 9.5-22t22-9h6v-50q0-6-3.5-9.5T262 183h-37q-5 0-8.5 3.5T213 196v81q0 13-9.5 22t-22.5 9q-13 0-22-9t-9-22q0-13 9-22t22-9h7v-50q0-16 10.5-27t26.5-11h38q15 0 26 11t11 27v-1zM263 8H138q-16 0-27 11t-11 27v137h64q4-22 21.5-36t39.5-14h38q20 0 37 13V45q0-15-11-26T262 8h1zM144 33q8 0 13.5 5.5T163 52q0 8-5.5 13.5t-13.5 5q-8-.5-13.5-5.5T125 52q0-8 5.5-13.5T144 33zm131 39l-50 50-26-26-74 64v-33l76-65 24 25 50-50v35z"/></svg>