<svg viewBox="0 0 300 320" xmlns="http://www.w3.org/2000/svg"><path d="M300 33H0V8h300v25zM38 289q0-8-5.5-13.5T19 270q-8 0-13.5 5.5T0 289q0 8 5.5 13.5T19 308q8 0 13.5-5.5T38 289zm0-62q0-8-5.5-13.5T19 208q-8 0-13.5 5.5T0 227q0 8 5.5 13t13.5 5q8 0 13.5-5t5.5-13zm262 0q0-8-5.5-13.5T281 208q-8 0-13 5.5t-5 13.5q0 8 5 13t13 5q8 0 13.5-5t5.5-13zM38 89q0-8-5.5-13.5T19 70q-8 0-13.5 5.5T0 89q0 8 5.5 13.5T19 108q8 0 13.5-5.5T38 89zm262 0q0-8-5.5-13.5T281 70q-8 0-13 5.5T263 89q0 8 5 13.5t13 5.5q8 0 13.5-5.5T300 89zm0 200q0-8-5.5-13.5T281 270q-8 0-13 5.5t-5 13.5q0 8 5 13.5t13 5.5q8 0 13.5-5.5T300 289zm-62 0q0-8-5.5-13.5T219 270q-8 0-13.5 5.5T200 289q0 8 5.5 13.5T219 308q8 0 13.5-5.5T238 289zm-69 0q0-8-5.5-13.5T150 270q-8 0-13.5 5.5T131 289q0 8 5.5 13.5T150 308q8 0 13.5-5.5T169 289zm-69 0q0-8-5.5-13.5T81 270q-8 0-13.5 5.5t-5 13.5q.5 8 5.5 13.5t13 5.5q8 0 13.5-5.5T100 289zM38 158q0-8-5.5-13.5T19 139q-8 0-13.5 5.5T0 158q0 8 5.5 13.5T19 177q8 0 13.5-5.5T38 158zm262 0q0-8-5.5-13.5T281 139q-8 0-13 5.5t-5 13.5q0 8 5 13.5t13 5.5q8 0 13.5-5.5T300 158zm-62 0q0-8-5.5-13.5T219 139q-8 0-13.5 5.5T200 158q0 8 5.5 13.5T219 177q8 0 13.5-5.5T238 158zm-69 0q0-8-5.5-13.5T150 139q-8 0-13.5 5.5T131 158q0 8 5.5 13.5T150 177q8 0 13.5-5.5T169 158zm-69 0q0-8-5.5-13.5T81 139q-8 0-13.5 5.5t-5 13.5q.5 8 5.5 13.5t13 5.5q8 0 13.5-5.5T100 158zm50-88q-8 1-13.5 6T131 89q0 8 5.5 13.5T150 108q8 0 13.5-5.5T169 89q0-8-5.5-13.5T150 70zm0 138q-8 0-13.5 5.5T131 227q0 8 5.5 13t13.5 5q8 0 13.5-5t5.5-13q0-8-5.5-13.5T150 208z"/></svg>