<svg viewBox="0 0 300 320" xmlns="http://www.w3.org/2000/svg"><path d="M100 270h100v38H100v-38zm163-150q0 25-10.5 47t-28 38Q207 221 202 246H98q-5-25-25-43.5t-29-44Q35 133 38 106q4-25 17.5-46t35-34.5Q112 12 136.5 9t47.5 4.5Q207 21 225 37t28 38q10 22 10 45zm-138-12q0-5 3.5-9t8.5-4h26q5 0 8.5 4t3.5 9h25q0-16-11-26.5T163 71V58h-25v12q-16 0-27 11t-11 27q0 13 8 22.5t21 11.5l38 6q3 1 5.5 3.5t2.5 7q0 4.5-3.5 8.5t-9.5 3h-24q-6 0-9.5-3.5T125 158h-25q0 16 11 27t26 10v13h26v-13q15 0 26-10.5t11-26.5q0-13-8-22.5T171 124l-38-7q-3 0-5.5-2.5T125 108z"/></svg>