<svg viewBox="0 0 300 320" xmlns="http://www.w3.org/2000/svg"><path d="M300 245v63H0v-63h300zm0-112v87H0v-87q0-16 11-26.5T38 96h57q-9-6-16-12-14-13-16-29t8.5-30Q82 11 99.5 8.5T131 16q11 9 19 23 8-14 20-22 14-11 31-8.5T228.5 25Q239 39 237 55t-15 29q-8 6-17 11h58q15 1 26 11.5t11 26.5zM163 83q5 0 14-2 15-5 28-16 5-5 7-10 2-8-2.5-14.5t-12-7.5q-7.5-1-13.5 3-10 8-16 24-4 9-5 19l-1 4h1zM96 65q12 11 28 16 8 2 13 2l1-4q-2-10-6-20-6-15-16-22-6-5-13-4t-12 7.5Q86 47 89 55q2 5 7 10zm129 80q-7 0-16-1-19-3-30-10-16-10-16-26h-25q0 16-17 26-11 7-30 10-9 1-16 1v25q20 0 39-6 23-7 36-22 13 15 36 22 19 6 39 7v-26z"/></svg>