<svg viewBox="0 0 300 320" xmlns="http://www.w3.org/2000/svg"><path d="M268 257l-5 21q-2 13-12.5 21.5T227 308H73q-13 0-23.5-8.5T37 278l-5-21q18 13 40 13.5t40-10.5q18 10 38 10t37-10q19 11 41 10.5t40-13.5zM163 8h-25v50h25V8zm50 0h-25v50h25V8zM113 8H88v50h25V8zm37 75q-40 0-76 16-33 14-53.5 37.5T0 183q0 14 9 24.5T32 220q5 11 15.5 17.5T70 245q12 1 23.5-3.5T113 228q7 8 16.5 13t20.5 5q11 0 20.5-5t17.5-13q7 9 18.5 13.5T230 245q12-1 22.5-7.5T268 220q14-2 23-12.5t9-24.5q0-23-20.5-46.5T226 99q-36-16-76-16zm-23 70q-7 7-15.5 4.5t-11-11Q98 138 105 131q15-8 33-11-3 18-11 33zm68 0q-4 5-10.5 5t-11.5-5q-8-15-10-32 17 2 32 10 5 5 5 11.5t-5 10.5z"/></svg>