<svg viewBox="0 0 300 320" xmlns="http://www.w3.org/2000/svg"><path d="M106 275q43-30 87-74 26-26 45-48 13-17 22-30 7-9 7-10 22-33 30-56 8-28-5.5-41.5T249 12q-23 8-54 29-22-8-45-8-34 0-62.5 17T42 95.5Q25 124 25 158q0 23 8 44-21 32-29 55-10 29 4 43 8 8 21 8 22 0 57-21 9-5 20-12zM274 34q4 3-1.5 17.5T254 88q-14-20-34-34 17-10 31-16 10-4 16-5t7 1zM74 265q-15 9-27 14-9 3-14.5 3.5T26 282q-1-1-.5-7t4.5-17q6-13 17-30 13 20 33 33l-6 4zm201-119v12q0 34-17 62.5T212.5 266Q184 283 150 283q-6 0-12-1 37-27 72.5-63t64.5-73z"/></svg>