<svg viewBox="0 0 300 320" xmlns="http://www.w3.org/2000/svg"><path d="M289 117q-10-10-23.5-9T244 118l-45 47 1 8q0 20-13 35t-32 17l-53 8-4-25 53-7q10-2 17-10t7-18.5q0-10.5-8-19t-20-7.5H38q-16-1-27 10T0 183v87q0 16 11 27t27 11h120l134-146q9-10 8-23.5T289 117zM137 8q0 16-11 26.5T99.5 45Q84 45 73 34.5T62 8H25v112h150V8h-38zM69 95q-8 1-13.5-4.5T50 77q0-8 5.5-13.5T69 58q8 0 13.5 5.5T88 77q0 8-5.5 13.5T69 96v-1zm62 0q-8 1-13.5-4.5T112 77q0-8 5.5-13.5T131 58q8 0 13.5 5.5T150 77q0 8-5.5 13.5T131 96v-1z"/></svg>