<svg viewBox="0 0 300 320" xmlns="http://www.w3.org/2000/svg"><path d="M150 83q-20 0-37.5 10T85 120.5Q75 138 75 158t10 37.5Q95 213 112.5 223t37.5 10q17 0 33-8-8-14-8-30 0-21 13-37.5t34-22.5q-8-23-27.5-37.5T150 83zm0 94q-8 0-13.5-5.5T131 158q0-8 5.5-13.5T150 139q8 0 13.5 5.5T169 158q0 8-5.5 13.5T150 177zm0 131H0V45q0-15 11-26T38 8h225q15 0 26 11t11 26v150q0-23-15-40.5T247 134q-8-33-35-54.5T150 58q-27 0-50 13.5T63.5 108Q50 131 50 158t13.5 50Q77 231 100 244.5t50 13.5h5q-5 12-5 25v25zm150 0H175v-25q0-15 11-26.5t27-11.5h50q15 0 26 11.5t11 26.5v25zm-62-75q-16 0-27-11t-11-26.5q0-15.5 11-26.5t26.5-11q15.5 0 26.5 11t11 26.5q0 15.5-11 26.5t-26 11z"/></svg>