<svg viewBox="0 0 300 320" xmlns="http://www.w3.org/2000/svg"><path d="M159 8q-29-2-55.5 7.5T56 45Q35 65 24 91t-11 54v75q-1 16 10 27t27 11h25v50h150v-50h25q16 0 27-11t10-27v-70q1-37-16.5-68.5t-46.5-51Q195 11 159 8zm-59 162q-10 0-17.5-7T75 145.5q0-10.5 7.5-18T100 120q10 0 17.5 7.5t7.5 18q0 10.5-7.5 17.5t-17.5 7zm50 63h-3q-12 0-16-1-6-3-6-12 0-11 7.5-24t17.5-13q10 0 17.5 13t7.5 24q0 9-6 12-4 1-16 1h-3zm50-63q-10 0-17.5-7t-7.5-17.5q0-10.5 7.5-18T200 120q10 0 17.5 7.5t7.5 18q0 10.5-7.5 17.5t-17.5 7z"/></svg>