<svg viewBox="0 0 300 320" xmlns="http://www.w3.org/2000/svg"><path d="M269 83h-88q-13 0-22 9t-9 22v194h150V114q0-13-9-22t-22-9zm-44 37q8 1 13.5 6t5.5 13q0 8-5.5 13.5T225 158q-8 0-13.5-5.5T206 139q0-8 5.5-13.5T225 120zm0 163q-18 0-31-13t-13-31q0-18 13-31t31-12.5q18 .5 31 13t13 30.5q0 18-13 31t-31 13zm38-225h-88q-21 0-35.5 14.5T125 108v162H63v-25h37v-25H0V45q0-15 11-26T38 8h187q16 0 27 11t10 27v12h1zm-57 181q0-8 5.5-13.5T225 220q8 0 13.5 5.5T244 239q0 8-5.5 13.5T225 258q-8 0-13.5-5.5T206 239z"/></svg>