<svg viewBox="0 0 300 320" xmlns="http://www.w3.org/2000/svg"><path d="M281 233q0-8-2-16l17-11-12-21-18 10q-12-13-29-17v-20h-24v20q-17 4-29 17l-18-10-12 21 17 11q-2 8-2 16t2 16l-17 11 12 21 18-10q12 13 29 17v20h25v-20q16-4 28-17l18 10 12-21-17-11q2-8 2-16zm-56 19q-8 0-13.5-5.5T206 233q0-8 5.5-13.5T225 214q8 0 13.5 5.5T244 233q0 8-5.5 13.5T225 252zm-125-7H61q-5-24-25-42.5t-29.5-44Q-3 133 1 106q3-25 17-46t35-34.5Q74 12 99 9t48 4.5Q170 21 187.5 37T215 74.5Q225 96 225 120q0 7-1 13-27 0-49.5 13.5t-36 36.5Q125 206 125 233v-90q11-4 18-13.5t7-21.5h-25q0 5-3.5 8.5t-9 3.5q-5.5 0-9-3.5T100 108H75q0 12 7 21.5t18 13.5v102zm59 63H63v-38h69q9 22 27 38z"/></svg>