<svg viewBox="0 0 300 320" xmlns="http://www.w3.org/2000/svg"><path d="M300 258q0 21-14.5 35.5T250 308H98l26-25h126q10 0 17.5-7.5T275 258q0-10-7.5-17.5T250 233h-62q-21 0-35.5-14.5T138 183q0-18 11-31.5t28-17.5l25 24h-14q-11 0-18 7.5t-7 17.5q0 10 7 17.5t18 7.5h62q21 0 35.5 14.5T300 258zm-18-143l-44 43-45-43q-12-12-16-28t0-32.5Q181 38 193 26q19-18 44.5-18T282 26q12 12 16 28.5t0 32.5q-4 16-16 28zm-175 61q12 12 16 28.5t0 32.5q-4 16-16 28l-44 43-45-43Q6 253 2 237t0-32.5Q6 188 18 176q19-18 44.5-18t44.5 18z"/></svg>