<svg viewBox="0 0 300 320" xmlns="http://www.w3.org/2000/svg"><path d="M214 83q-7 0-13 4l-6 4q-11-8-22-8-5 0-10 2 2-23 11-36 7-10 17-14 5-2 9.5-2t8.5 3.5q4 3.5 4 9.5v24q10 0 17.5-7t7.5-18q-1-15-11.5-26T200 8q-13 0-25 7-15 8-25 25-11-20-32-31l-11 23q27 13 30 53-5-2-10-2-11 0-23 8l-5-4q-6-4-13-4-16 0-36.5 15.5T16 139Q0 166 0 195.5T16 252q13 25 33.5 40.5T86 308q9 0 17-7 10 7 20 7 4 0 13-4 7 4 14 4t14-4q9 4 13 4 10 0 20-7 8 7 17 7 16 0 36.5-15.5T284 252q16-27 16-56.5T284 139q-13-25-33.5-40.5T214 83zm-20 50l28 50h-57l29-50zm-88 0l29 50H78l28-50zm82 119v-19h-25v24l-13 1q-33 0-59-16-19-12-32-30-6-10-9-16l7 4q9 5 20 9 17 6 36 9v15h25v-13l12 1q43 0 76-13 16-6 24-12v-1l-3 7q-5 8-11 16-9 10-19 18-14 10-29 16z"/></svg>