<svg viewBox="0 0 300 320" xmlns="http://www.w3.org/2000/svg"><path d="M0 120h300v163h-98q14-11 21.5-27.5T231 220q0-24-13.5-44.5T181 145h-62q-23 10-36.5 30.5T69 220q0 19 7.5 35.5T98 283H0V120zm175 50v32q0 10-7.5 17.5T150 227q-10 0-17.5-7.5T125 202v-32q-14 7-22.5 20.5t-8.5 31q0 17.5 10.5 31.5t26.5 20v35h38v-35q16-6 26.5-20t10.5-31.5q0-17.5-8.5-31T175 170zM300 45v50H0V45q0-15 11-26T38 8h225q15 0 26 11t11 27v-1zM63 52q0-8-5.5-13.5T44 33q-8 0-13.5 5.5T25 52q0 8 5.5 13T44 70.5q8 .5 13-5T62 52h1zm50 0q0-8-5.5-13.5T94 33q-8 0-13.5 5.5T75 52q0 8 5.5 13T94 70q8 0 13.5-5t5.5-13z"/></svg>