<svg viewBox="0 0 300 320" xmlns="http://www.w3.org/2000/svg"><path d="M150 158h-25v-25h25q5 0 9 3.5t4 9q0 5.5-4 9t-9 3.5zm106-50q-18 0-30.5 13T213 152v25q0 18 12.5 30.5T256 220q18 0 31-12.5t13-30.5v106H0v-63h25v-37h25q15 0 26.5-11T88 145.5Q88 130 76.5 119T50 108H0V70q0-15 11-26t27-11h225q15 0 26 11t11 26v82q0-18-13-31t-31-13zm-56 112l-26-46q7-6 10.5-15t2.5-19q-2-14-13-23t-26-9h-23q-10 0-17.5 7.5T100 133v87h25v-37h26l22 38h27v-1zM63 145q0-5-4-8.5t-9-3.5H25v25h25q5 0 9-3.5t4-9.5zm175 7v25q0 8 5 13t13 5q8 0 13.5-5t5.5-13v-25q0-8-5.5-13.5T256 133q-8 0-13 5.5t-5 13.5z"/></svg>