<svg viewBox="0 0 300 320" xmlns="http://www.w3.org/2000/svg"><path d="M156 27q0-8 5.5-13.5T175 8q8 0 13.5 5.5T194 27v3q14-10 31-10t31 10v-3q0-8 5.5-13.5T275 8q8 0 13.5 5.5T294 27q0 8-5.5 13T275 45h-3q9 15 9 32v9q9 7 14 17t5 22q0 12-7 23t-18 17v-13q0-5-3.5-9t-9-4q-5.5 0-9 4t-3.5 9v18h-50v-18q0-5-3.5-9t-9-4q-5.5 0-9 4t-3.5 9v13q-11-6-18-17t-7-23q0-12 5-22t14-17v-9q0-17 9-32h-3q-8 0-13.5-5T156 27zm38 168q-19 0-35-9t-25-25q-9-16-9-33.5t8-32.5q8-15 21-24h-41q-28-1-51 12.5T26 120q-13 23-13 51 0 15 5 31L0 233l22 13 9-17q9 11 19 19v60h62v-38h63v38h62v-51q17-10 29-25t17-33l4-11q-15 7-31 7h-62z"/></svg>