<svg viewBox="0 0 300 320" xmlns="http://www.w3.org/2000/svg"><path d="M300 308H0V45q0-15 11-26T38 8h225q15 0 26 11t11 26v263zM25 283h250V45q0-5-3.5-8.5T263 33H38q-6 0-9.5 3.5T25 45v238zm194-144q-8 0-13.5 5.5T200 158q0 8 5.5 13.5T219 177q8 0 13.5-5.5T238 158q0-8-5.5-13.5T219 139zm-69 0q-8 0-13.5 5.5T131 158q0 8 5.5 13.5T150 177q8 0 13.5-5.5T169 158q0-8-5.5-13.5T150 139zm-69 0q-8 0-13 5.5T63 158q0 8 5 13.5t13 5.5q8 0 13.5-5.5T100 158q0-8-5.5-13.5T81 139zm88 88q0-8-5.5-13.5T150 208q-8 0-13.5 5.5T131 227q0 8 5.5 13t13.5 5q8 0 13.5-5t5.5-13zm0-138q0-8-5.5-13.5T150 70q-8 0-13.5 5.5T131 89q0 8 5.5 13.5T150 108q8 0 13.5-5.5T169 89z"/></svg>