<svg viewBox="0 0 300 320" xmlns="http://www.w3.org/2000/svg"><path d="M300 158q0 28-10 54t-29 46q-28-22-41-56l25-7-7-24-24 7q-1-10-1-20t1-20l24 7 7-24-25-7q13-34 41-56 19 20 29 46t10 54zM80 202l-25-7 7-24 24 7q1-10 1-20t-1-20l-24 7-7-24 25-7Q67 80 39 58 13 86 4.5 122t0 72Q13 230 39 258q28-22 41-56zm117 7l-24 7-7-24 24-7q-2-13-2-27t2-27l-24-7 7-24 24 7q14-40 46-67-27-21-60-28.5t-66 0Q84 19 57 40q32 27 47 67l23-7 7 24-24 7q2 13 2 27t-2 27l24 7-7 24-24-7q-14 40-46 67 27 21 60 28.5t66 0q33-7.5 60-28.5-32-27-46-67z"/></svg>