<svg viewBox="0 0 300 320" xmlns="http://www.w3.org/2000/svg"><path d="M138 52q0 18-13 30.5T94 95q-18 0-31-12.5T50 52q0-18 13-31T94 8q18 0 31 13t13 31zM94 208q-18 0-31 13t-13 31q0 18 13 30.5T94 295q18 0 31-12.5t13-30.5q0-18-13-31t-31-13zm156-56q0 18-13 30.5T206 195q-18 0-30.5-12.5T163 152q0-18 12.5-31t30.5-13q18 0 31 13t13 31zm-25 0q0-8-5.5-13.5T206 133q-8 0-13 5.5t-5 13.5q0 8 5 13t13 5q8 0 13.5-5t5.5-13zm-19-57q18 0 31-12.5T250 52q0-18-13-31T206 8q-18 0-30.5 13T163 52q0 18 12.5 30.5T206 95zM94 108q-18 0-31 13t-13 31q0 18 13 30.5T94 195q18 0 31-12.5t13-30.5q0-18-13-31t-31-13zm156 144q0 18-13 30.5T206 295q-18 0-30.5-12.5T163 252q0-18 12.5-31t30.5-13q18 0 31 13t13 31zm-25 0q0-8-5.5-13.5T206 233q-8 0-13 5.5t-5 13.5q0 8 5 13.5t13 5q8-.5 13.5-5.5t5.5-13z"/></svg>