<svg viewBox="0 0 300 320" xmlns="http://www.w3.org/2000/svg"><path d="M130 58l-18-18 32-32h18v87h-25V50l-7 8zm-55 62H45q14-7 20-14 10-10 10-23 0-16-11-27T37.5 45Q22 45 11 56T0 83h25q0-5 3.5-9t9-4q5.5 0 9 4t3.5 8.5q0 4.5-7 9.5-4 3-14 9-14 8-20 13-9 8-9 19v12h75v-25zm225 32q0-14-10-23 4-7 4-15 0-13-9.5-22T263 83h-38v25h38q2 0 4 2t2 4.5q0 2.5-2 4.5t-4 1h-13v25h19q2 0 4 2t2 4.5q0 2.5-2 4.5t-4 2h-44v25h44q13 0 22-9t9-22zm-25 56h-31q-11 0-18 7.5t-7 17.5v75h81v-75q0-10-7.5-17.5T275 208zM56 170H25q-10 0-17.5 7.5T0 195v113h81V195q0-10-7-17.5T56 170zm113-50h-38q-10 0-17.5 7.5T106 145v163h88V145q0-10-7.5-17.5T169 120z"/></svg>