<svg viewBox="0 0 300 320" xmlns="http://www.w3.org/2000/svg"><path d="M206 83q0-8-2-16l17-11-12-21-18 10q-12-13-28-17V8h-25v20q-17 4-29 17L91 35 79 56l18 11q-3 8-3 16t3 16l-18 11 12 21 18-10q12 13 29 17v20h25v-20q16-4 28-17l18 10 12-21-17-11q2-8 2-16zm-56 19q-8 0-13.5-5.5T131 83q0-8 5.5-13.5T150 64q8 0 13.5 5.5T169 83q0 8-5.5 13.5T150 102zm150 143v13q0 16-11 27t-27 11H38q-16-1-27-11.5T0 258v-13h102l10 13h76l10-13h102zm-186-25H25V70h26q-1 7-1 13 0 27 13.5 50t36.5 36.5q23 13.5 50 13.5t50-13.5q23-13.5 36.5-36.5T250 83q0-6-1-12h26v149h-88l-11 13h-52l-10-13z"/></svg>