<svg viewBox="0 0 300 320" xmlns="http://www.w3.org/2000/svg"><path d="M207 192q-5-1-13-1-15 0-27.5 9.5T150 224q18 0 33-8.5t24-23.5zM150 8q-41 0-75.5 20T20 82.5Q0 117 0 158t20 75.5Q40 268 74.5 288t75.5 20q41 0 75.5-20t54.5-54.5q20-34.5 20-75.5t-20-75.5Q260 48 225.5 28T150 8zM63 127q0-16 11-27t26-11q15 0 26.5 11t11.5 27v18h-25v-13l-4 1q-6 0-10.5-4.5T94 117v-1q-6 4-6 11v18H63v-18zm87 120q-22 0-41-10.5t-31.5-28Q65 191 63 169h175q-3 22-15.5 39.5t-31.5 28Q172 247 150 247zm88-102h-25v-13l-4 1q-6 0-10.5-4.5T194 117v-1q-6 4-6 11v18h-26v-18q0-16 11.5-27T200 89q15 0 26 11t11 27v18h1z"/></svg>