<svg viewBox="0 0 300 320" xmlns="http://www.w3.org/2000/svg"><path d="M150 8q-41 0-75.5 20T20 82.5Q0 117 0 158q2 57 33 95 29 35 73 47.5t88 0q44-12.5 73-47.5 31-38 33-95 0-41-20-75.5T225.5 28Q191 8 150 8zM75 95q19 1 31 9 10 7 15 18 4 9 4 17 0 6-3.5 11.5t-10 7q-6.5 1.5-12.5-1t-9-8q-3-5.5-2-12t5-10.5q-8-6-18-6V95zm129 135q-15-14-34.5-19t-39 0Q111 216 96 230l-17-19q20-18 45.5-24.5t51 0Q201 193 221 211l-17 19zm21-110q-10 0-18 6 4 4 5 10.5t-2 12q-3 5.5-9 8t-12.5 1q-6.5-1.5-10-7T175 139q0-8 4-17 5-11 15-18 12-9 31-9v25z"/></svg>