<svg viewBox="0 0 300 320" xmlns="http://www.w3.org/2000/svg"><path d="M275 283v-13q0-10-7.5-17.5T250 245H50q-10 0-17.5 7.5T25 270v13H0v25h300v-25h-25zm-137-63v-25h-35l28-37h-23l42-56 42 56h-23l28 37h-34v25h102q23-33 23-74 0-38-19-69.5t-50.5-50Q187 8 150 8T81.5 26.5Q50 45 31.5 76.5T13 145q0 42 22 76h103v-1zm93-100q8 1 13.5 6t5.5 13q0 8-5.5 13.5T231 158q-8 0-13.5-5.5T212 139q0-8 5.5-13.5T231 120zm-50-75q8 1 13.5 6t5.5 13q0 8-5.5 13.5T181 83q-8 0-13.5-5.5t-5-13.5q.5-8 5.5-13.5t13-5.5zM81 83q8 0 13.5 5.5T100 102q0 8-5.5 13.5T81 121q-8 0-13-5.5T63 102q0-8 5-13.5T81 83z"/></svg>