<svg viewBox="0 0 300 320" xmlns="http://www.w3.org/2000/svg"><path d="M250 158v-50q0-15-5.5-28.5t-16-24.5Q218 44 204 38.5T175 33H75q-20 0-37.5 10T10 70.5Q0 88 0 108v50h250zm-75-75q5 0 9 3.5t4 9q0 5.5-4 9t-9 3.5q-5 0-8.5-3.5t-3.5-9q0-5.5 3.5-9T175 83zm-50 0q5 0 8.5 3.5t4 9q.5 5.5-3.5 9t-9 3.5q-5 0-8.5-3.5t-3.5-9q0-5.5 3.5-9T125 83zm-50 0q5 0 9 3.5t4 9q0 5.5-4 9t-9 3.5q-5 0-9-3.5t-3.5-9q.5-5.5 4-9T75 83zm225 137v26q0 15-11 26t-26.5 11q-15.5 0-26.5-11t-11-27h-25v38h-75v-38H75v38H0V183h250v62q0 6 3.5 9.5t9 3.5q5.5 0 9-3.5t3.5-8.5v-26h25z"/></svg>