<svg viewBox="0 0 300 320" xmlns="http://www.w3.org/2000/svg"><path d="M292 16q-6-6-13.5-7.5T263 10l-3 1q-91 29-160 97-34 38-59 83l29 29-32 33 17 17 33-32 29 29q44-24 83-59 67-68 97-160l1-3q3-8 1.5-15.5T292 16zM138 183q-6 0-9.5-3.5t-3.5-9q0-5.5 3.5-9t9-3.5q5.5 0 9 3.5t3.5 9q0 5.5-3.5 9T138 183zm37-38q-5 0-9-3.5t-3.5-8.5q.5-5 4-9t8.5-4q5 0 9 4t4 9q0 5-4 9t-9 4v-1zm38-37q-6 0-9.5-3.5t-3.5-9q0-5.5 3.5-9t9-3.5q5.5 0 9 3.5t3.5 9q0 5.5-3.5 9T213 108zm24 97q-3 31-17.5 58T180 308h-42v-24q43-24 79-58 9-9 20-21zM82 90q-34 37-58 80H0v-43q18-25 45-39.5T103 70Q91 81 82 90z"/></svg>