<svg viewBox="0 0 300 320" xmlns="http://www.w3.org/2000/svg"><path d="M225 8q-20 0-37.5 10T160 45.5Q150 63 150 83t10 37.5q10 17.5 27.5 27.5t37.5 10q20 0 37.5-10t27.5-27.5Q300 103 300 83t-10-37.5Q280 28 262.5 18T225 8zm8 105q-8 7-18 7t-18-7l-25-25 18-18 25 25 45-45 18 18-45 45zM38 27v43H0V27q0-8 5.5-13.5T19 8q8 0 13 5.5T37 27h1zm212 193H125v57q0 14-10.5 23t-23 8Q79 307 71 297t-8-22V27q-1-10-5-19h101q-16 14-25 33.5T125 83q0 27 13.5 50t36.5 36.5q23 13.5 50 13.5 13 0 25-3v40zm-100 25h150v19q0 18-13 31t-31 13H141q9-14 9-31v-32z"/></svg>