<svg viewBox="0 0 300 320" xmlns="http://www.w3.org/2000/svg"><path d="M88 195h125v38h25V58q0-10 7-17.5t17-7.5h13V8h-13q-20 0-34.5 14.5T213 58v37H88V58q0-10 7-17.5t17-7.5h13V8h-13Q92 8 77.5 22.5T63 58v175h25v-38zm125-75v50H88v-50h125zm87 171q-7 8-17 12.5t-20.5 4.5q-10.5 0-20.5-4.5T225 291q-7 8-17 12.5t-20.5 4.5q-10.5 0-20.5-4.5T150 291q-7 8-17 12.5t-20.5 4.5q-10.5 0-20.5-4.5T75 291q-7 8-17 12.5T37.5 308Q27 308 17 303.5T0 291l19-17q7 9 18 9t18-7.5q7-7.5 7-17.5h26q0 10 7 17.5t17.5 7.5q10.5 0 18-7.5T138 258h25q0 10 7 17.5t17.5 7.5q10.5 0 18-7.5T213 258h25q0 10 7 17.5t18 7.5q11 0 18-9l19 17z"/></svg>