<svg viewBox="0 0 300 320" xmlns="http://www.w3.org/2000/svg"><path d="M238 245h55l-55 56v-56zM137 86h-9v19h9q4 0 6.5-3t2.5-6.5q0-3.5-2.5-6.5t-6.5-3zm163-41v175h-87v88H0V45q0-15 11-26T38 8h225q15 0 26 11t11 27v-1zM100 70H84v51q0 4-2.5 7t-6.5 3q-4 0-6.5-3t-2.5-6v-2H50v2q0 10 7.5 17t17.5 7q10 0 17.5-7t7.5-17V70zm62 25q0-10-7.5-17.5T137 71h-24v75h15v-26h9q10 0 17.5-7t7.5-18zm29 26V95q0-3 2.5-6t6.5-3q4 0 6.5 3t2.5 6h16q0-10-7.5-17T200 70.5q-10-.5-17.5 7T175 95v27q0 10 7.5 17t17.5 7q10 0 17.5-7t7.5-17v-14h-25v12h9v2q0 3-2.5 6t-6.5 3q-4 0-6.5-3t-2.5-7z"/></svg>