<svg viewBox="0 0 300 320" xmlns="http://www.w3.org/2000/svg"><path d="M194 308q-13 0-22-9t-9-22q0-13 9-22l22-22 22 22q9 9 9 22t-9 22q-9 9-22 9zm-88 0q-13 0-22-9t-9-22q0-13 9-22l22-22 22 22q7 6 8.5 15.5t-2 18q-3.5 8.5-11 14T106 308zM218 71q-14-33-41-49-25-15-54.5-13.5T68 26.5Q43 43 32 69q-12 30-4 65-20 13-25.5 38t5 48Q18 243 41 252q6 3 13 4 4-11 12-19l40-39 40 39 4 5 4-5 40-39 39 39q6 5 10 12 6-2 13-5 27-17 37.5-44t4-55.5Q291 116 271 96q-22-21-53-25zm-41 101q-11 11-26.5 11T124 172q-11-11-11-26.5t10-26.5l27-26 26 26q11 11 11 26.5T177 172z"/></svg>