<svg viewBox="0 0 300 320" xmlns="http://www.w3.org/2000/svg"><path d="M125 133q0 4 2.5 6.5t5.5 3.5l38 6q13 2 21 11.5t8 22.5q0 16-11 27t-26 11v24h-25v-25q-16 0-27-10.5T100 183h25q0 5 3.5 8.5t8.5 3.5h26q5 0 8.5-3.5t3.5-8q0-4.5-2.5-7T167 173l-38-6q-13-2-21-11.5t-8-22.5q0-16 11-26.5T137 96V70h26v25q15 1 26 11.5t11 26.5h-25q0-5-3.5-9t-9.5-4h-24q-6 0-9.5 4t-3.5 9zm94-26l27-28q8 4 17 4 15 0 26-11t11-26.5Q300 30 289 19T262.5 8Q247 8 236 19t-11 27q0 8 4 16l-25 24q10 9 15 21zM75 45q0-15-11-26T37.5 8Q22 8 11 19T0 45.5Q0 61 11 72t27 11q8 0 16-4l27 28q5-12 15-21L71 62q4-8 4-16v-1zm188 188q-9 0-17 4l-27-28q-5 12-15 21l25 24q-4 8-4 17 0 15 11 26t26.5 11q15.5 0 26.5-11t11-26.5q0-15.5-11-26.5t-27-11h1zM81 209l-27 28q-8-4-17-4-15 0-26 11T0 270.5Q0 286 11 297t26.5 11Q53 308 64 297t11-27q0-8-4-16l25-24q-10-9-15-21z"/></svg>