<svg viewBox="0 0 300 320" xmlns="http://www.w3.org/2000/svg"><path d="M138 52q0 18-13 30.5T94 95q-18 0-31-12.5T50 52q0-18 13-31T94 8q18 0 31 13t13 31zm68 56q-18 0-30.5 13T163 152q0 18 12.5 30.5T206 195q18 0 31-12.5t13-30.5q0-18-13-31t-31-13zM94 208q-18 0-31 13t-13 31q0 18 13 30.5T94 295q18 0 31-12.5t13-30.5q0-18-13-31t-31-13zm44-56q0 18-13 30.5T94 195q-18 0-31-12.5T50 152q0-18 13-31t31-13q18 0 31 13t13 31zm-25 0q0-8-5.5-13.5T94 133q-8 0-13.5 5.5T75 152q0 8 5.5 13t13.5 5q8 0 13.5-5t4.5-13h1zm50-100q0-18 12.5-31T206 8q18 0 31 13t13 31q0 18-13 30.5T206 95q-18 0-30.5-12.5T163 52zm25 0q0 8 5 13t13 5.5q8 .5 13.5-5T225 52q0-8-5.5-13.5T206 33q-8 0-13 5.5T188 52zm18 156q-18 0-30.5 13T163 252q0 18 12.5 30.5T206 295q18 0 31-12.5t13-30.5q0-18-13-31t-31-13z"/></svg>