<svg viewBox="0 0 300 320" xmlns="http://www.w3.org/2000/svg"><path d="M225 205q0 20-7.5 38.5T195 277q-15 15-35 23t-41.5 8q-21.5 0-41-8T42 276L6 240q-6-6-6-13.5t5.5-13Q11 208 19 208t13 5l22 22 11-11-59-59q-6-6-6-13.5t5.5-13Q11 133 19 133t13 5l60 60 11-11-72-72q-6-6-6-13.5t5.5-13Q36 83 44 83t13 5l72 72 11-11-47-47q-6-5-6-13t6-13.5q6-5.5 13.5-5.5t13.5 6l55 55v-23q0-10 7.5-17.5T200 83q10 0 17.5 7.5T225 108v97zm50-122q-10 0-17.5 7.5T250 108v100q0 16-4 31-3 12-5 13-10 24-28 42-7 7-16 14 20-1 39-9t34-22.5q15-14.5 22.5-33T300 205v-97q0-10-7.5-17.5T275 83zM171 29l-17-17-29 28 18 18 28-29zM75 40L46 12 29 29l28 28 18-17zm38-32H88v37h25V8z"/></svg>