<svg viewBox="0 0 300 320" xmlns="http://www.w3.org/2000/svg"><path d="M111 122q3 7 1.5 15.5t-7 14.5q-5.5 6-12 6T82 152q-5-6-6.5-14.5T77 122q2 5 6.5 8t10 3q5.5 0 10-3t7.5-8zm189 36q0 41-20 75.5T225.5 288Q191 308 150 308q-57-2-95-33-35-29-47.5-73t0-88Q20 70 55 41q38-31 95-33 41 0 75.5 20T280 82.5q20 34.5 20 75.5zM94 183q20-1 31.5-15.5T137 133q0-20-11.5-34.5T93.5 84Q73 84 62 98.5T51 133q0 20 11 34.5T94 183zm106 25H100v25h100v-25zm50-75q-1-23-13.5-36t-30-13Q189 84 176 97t-13 36q0 23 13 36t30.5 13q17.5 0 30-13t13.5-36zm-44 0q-5 0-9.5-3t-7.5-8q-3 7-1.5 15.5t7 14.5q5.5 6 12 6t11.5-6q5-6 6.5-14.5T223 122q-2 5-6.5 8t-10.5 3z"/></svg>