<svg viewBox="0 0 300 320" xmlns="http://www.w3.org/2000/svg"><path d="M175 158q0 10-7.5 17.5T150 183q-10 0-17.5-7.5T125 158q0-10 7.5-17.5T150 133q10 0 17.5 7.5T175 158zm125-63v154l-7 3q-11 5-26 10-30 8-54 8-14 0-33-4-11-2-32.5-8t-31.5-9q-17-4-28-4-21 1-47 8-13 4-23 9l-18 8V97q0-10 5.5-19T20 64q36-19 68-19 13 0 30 5 10 2 30 9 18 6 26 8 15 3 26 3t24-2q7-2 19-6l10-3q9-2 17-.5t15 7q7 5.5 11 13.5t4 16zM63 195q0-5-4-8.5t-9-3.5q-5 0-9 3.5t-3.5 9q.5 5.5 4 9T50 208q5 0 9-3.5t4-8.5v-1zm0-87q0-5-4-8.5t-9-4q-5-.5-9 3.5t-3.5 9q.5 5 4 8.5T50 120q5 0 9-3.5t4-8.5zm137 50q0-21-14.5-35.5T150 108q-21 0-35.5 14.5T100 158q0 21 14.5 35.5T150 208q21 0 35.5-14.5T200 158zm63 50q0-5-4-8.5t-9-4q-5-.5-8.5 3.5t-3.5 9q0 5 3.5 8.5t8.5 3.5q5 0 9-3.5t4-8.5zm0-88q0-5-4-8.5t-9-3.5q-5 0-8.5 3.5t-3.5 9q0 5.5 3.5 9t8.5 3.5q5 0 9-3.5t4-9.5z"/></svg>