<svg viewBox="0 0 300 320" xmlns="http://www.w3.org/2000/svg"><path d="M163 170H25V70q0-15 11-26t27-11h62q16 0 27 11t11 27v99zm112 0h-87v-62q-1-10 6.5-17.5T212 83h38q10 0 17.5 7.5T275 108v62zm-31 25H56q-23 0-39.5 16.5T0 251.5q0 23.5 16.5 40T56 308h188q23 0 39.5-16.5t16.5-40q0-23.5-16.5-39.5T244 196v-1zM56 270q-8 0-13-5t-5-13q0-8 5-13.5t13-5.5q8 0 13.5 5.5T75 252q0 8-5.5 13T56 270zm94 0q-8 0-13.5-5t-5.5-13q0-8 5.5-13.5T150 233q8 0 13.5 5.5T169 252q0 8-5.5 13t-13.5 5zm94 0q-8 0-13.5-5t-5.5-13q0-8 5.5-13.5T244 233q8 0 13.5 5.5t5 13.5q-.5 8-5.5 13t-13 5z"/></svg>