<svg viewBox="0 0 300 320" xmlns="http://www.w3.org/2000/svg"><path d="M288 133q-64 1-125 20 2-28 22.5-43T238 95q10 0 17-7t7.5-17.5q.5-10.5-7-17.5T237 46q-32-1-53 15.5T163 108V8h-25v100q0-30-21.5-46T63 46q-11-1-18 6.5t-7 18Q38 81 45 88t18 7q31 0 51.5 15t22.5 43q-61-19-124-20H0v12q0 66 15 105 13 33 35 47 17 11 38 10.5t38-14.5q10-9 24-10 14 1 24 10 17 14 38 14.5t38-10.5q22-14 35-47 15-39 15-105v-12h-12zM77 250q-14 3-20-12-4-10-10-43 40 7 78 21l12 4q-11 2-23 8-7 3-19.5 12T77 250zm146 0q-6-1-18.5-10T185 228q-11-6-23-8l12-4q38-14 79-21-6 33-10 43-7 15-20 12z"/></svg>