<svg viewBox="0 0 300 320" xmlns="http://www.w3.org/2000/svg"><path d="M237 301l56-56h-56v56zM204 86h-9v43h9q8 0 12-6t4-14q0-8-3-14-4-9-13-9zm59-78H38Q22 8 11 19T0 46v262h213v-87h87V45q0-15-11-26T262 8h1zM74 120h-9v26H50V71h24q11 0 18 7t7 17.5q0 10.5-7 17.5t-18 7zm56-25l2 1 14 5q8 2 13 9.5t3.5 16q-1.5 8.5-8.5 14t-16 5.5q-16 0-27-12l-5-6 11-10 6 6q6 6 15 6 3 0 6-1.5t4-5.5q1-4-8-7l-18-8q-5-2-7.5-7.5T113 89q1-6 5-11t11-7q7-2 15 0t15 7l6 5-10 12-6-5q-7-5-16-4-4 1-4.5 4t1.5 5zm50 50l-1-74h25q14 0 22.5 10t8.5 27q0 14-8 24.5T205 145h-25zM74 86h-9v19h9q4 0 6.5-3t2.5-6.5q0-3.5-2.5-6.5T74 86z"/></svg>