<svg viewBox="0 0 300 320" xmlns="http://www.w3.org/2000/svg"><path d="M275 258q0 10-7.5 17.5T250 283h-5l-15-30q25-10 41-32l20-27q11-16 8.5-35.5T281 126l-97-78-16 20 18 14q12 26 14 53-1 15-11.5 25.5T163 171h-40q12 11 14 27.5t-5 30.5l-2 4h-29l9-16q5-9 1.5-19T99 184l-42-25q-4-2-6-6.5t0-9.5l7-11 43 26 26-43 41 22 12-22q-65-35-76-41-14-7-28.5-2T55 90l-26 41q-7 13-2.5 28T45 181l43 24-16 28H44l10-18-33-20H0l20 43q-11 6-16.5 17.5t-2 24Q5 292 15 300t22 8h76q9 0 17-4t13-11.5q5-7.5 6.5-16.5t-1.5-18h57l12 25h-29v25h62q21 0 35.5-14.5T300 258h-25zm-150 12q0 6-3.5 9.5T112 283H38q-5 0-8.5-3.5t-4-8q-.5-4.5 2-8.5t7.5-5h79q5 1 8 4.5t3 7.5zM100 39q0-13 9-22t22-9q13 0 22 9t9.5 22q.5 13-9 22.5t-22.5 9q-13-.5-22-9.5t-9-22z"/></svg>