<svg viewBox="0 0 300 320" xmlns="http://www.w3.org/2000/svg"><path d="M150 214q-13 0-22-9t-9-22q0-13 9-22t22-9q13 0 22 9t9 22q0 13-9 22t-22 9zM163 8h-25v50h25V8zm131 198l-23-100q-5-21-22-34.5T210 58h-47v25h-25V58H90q-22 0-39 13.5T29 106L6 206q-6 26-6 52 0 21 15 35 7 7 16 11t19 4q8 0 16-3l20-6q21-7 34.5-23.5T137 237q-9-2-17-7l-8 8 1 1q0 8-5.5 13.5T94 258q-8 0-13.5-5.5T75 239q0-8 5.5-13.5T94 220v1l9-8q-6-8-8-18H75v-25h20q2-9 8-17l-8-8h-1q-8 0-13.5-5T75 127q0-8 5.5-13.5T94 108q8 0 13.5 5.5T113 127h-1l8 8q8-5 18-7v-20h25v20q9 2 17 7l8-7v-1q0-8 5-13.5t13-5.5q8 0 13.5 5.5T225 127q0 8-5.5 13t-13.5 5l-8 8q5 8 7 17h20v25h-20q-2 10-7 18l7 8 1-1q8 0 13.5 5.5T225 239q0 8-5.5 13.5t-13 5.5q-7.5 0-13-5.5T188 239l-8-9q-8 5-17 7 3 22 16.5 38.5T214 299l20 6q9 3 16 3 10 0 19-4t16-11q15-14 15-35 0-26-6-52z"/></svg>