<svg viewBox="0 0 300 320" xmlns="http://www.w3.org/2000/svg"><path d="M164 122l22 22-8 30-29 8-22-22 8-30 29-8zm136 80v31h-25v-31q0-14-5-25-7 22-23 38-13 13-34 25t-45 20q-3 19-15 32-16 16-40 16v-25q19 0 27-15-15 3-29 3-22 0-38-8-13 8-32 15-9 3-16 5l5-16q7-19 15-32-13-26-5-67-15 8-15 27H0q0-24 16-40 13-12 32-15 8-24 20-45t25-34q16-16 38-23-11-5-25-5H75V8h31q22 0 40 9 13 7 22 16 31 2 57 20-1-8 1.5-15.5t9-13.5q6.5-6 18-11T276 8q11 0 17.5 6.5T300 32q0 11-5 22.5t-11 18q-6 6.5-13.5 9T255 83q18 26 20 57 9 9 16 22 9 18 9 40zm-50-57q0-12-4-24h-48l-10-11V62q-13-4-26-4v39l-39 11-20-21q-7 9-14 22l20 20-7 29H69q-4 13-6 25h52l10 10v52q12-2 25-6v-32l30-8 19 20q12-7 22-14l-20-20 11-40h38z"/></svg>