<svg viewBox="0 0 300 320" xmlns="http://www.w3.org/2000/svg"><path d="M194 308H94q-16 0-27.5-10t-15-25Q48 258 55 244.5T76 224q-4-30 13-52 16-20 42-25t48 8q24 13 32 43 19 6 30 24t8 38.5q-3 20.5-19 34T194 308zM26 254q4-26 24-43 1-19 8.5-35.5t21-29.5q13.5-13 31-19.5T147 121v-1q-16-19-38-23t-43 5q-21 9-32.5 28.5T26 174q-12 6-19 17t-7 23.5Q0 227 7 238t19 16zm252-133q-19 3-36-4.5T215 93q-9-15-9-33t9-33l10-19h-21q-24 0-45 13-15 9-25.5 22.5T118 74q29 8 48 31l15 23q17 7 30 20.5t20 31.5q5 2 10 6 17-6 29.5-18.5T291 139l9-20-22 2z"/></svg>