<svg viewBox="0 0 300 320" xmlns="http://www.w3.org/2000/svg"><path d="M63 283q-1 10 6.5 17.5t18 7.5q10.5 0 17.5-7.5t7.5-17.5q.5-10-7-17.5t-18-7.5Q77 258 70 265.5T63 283zm125 0q-1 10 6.5 17.5t18 7.5q10.5 0 17.5-7.5t7.5-17.5q.5-10-7-17.5t-18-7.5q-10.5 0-17.5 7.5t-7 17.5zm97-155q-11 16-29 23.5t-37 6.5q-19-1-35.5-12T158 118q-9-17-8.5-36.5T160 46H53v-5q-2-14-12.5-23.5T15 8H0v25h15q5 0 8.5 3t4.5 8l20 168q1 15 11.5 24T85 246h165v-26H85q-5 0-8.5-3t-4.5-8l-1-14h202l12-67zm-71-1h-1q-10 0-16-7l-29-30 18-18 28 30 52-53 18 18-53 53q-7 7-17 7z"/></svg>