<svg viewBox="0 0 300 320" xmlns="http://www.w3.org/2000/svg"><path d="M300 220q0 24-12 44t-32 32q-20 12-44 12-27 1-48-14.5T132.5 254q-10.5-24-6.5-49.5t24-45.5V70q1-29 20-46 18-15 42.5-15T255 24q19 17 20 47v88q12 13 18.5 28.5T300 221v-1zm-50 0q0-11-7-21t-18-14v-77h-25v77q-13 5-20 17.5t-4 26.5q3 14 15 22t26 6.5q14-1.5 23.5-12T250 221v-1zm-147-26q6-24 22-44V8h-25v39q-7 1-14 3L67 17 45 30l20 33q-6 4-10 9L22 53 9 75l33 19q-2 7-3 14H0v25h39q1 7 3 14L9 166l13 22 33-20q4 6 10 10l-20 33 22 13 19-34q8 4 17 5v-1z"/></svg>