<svg viewBox="0 0 300 320" xmlns="http://www.w3.org/2000/svg"><path d="M98 210q-10-10-16-24l20-19q3 15 14 25 12 13 30 15l24 24q-9 2-17 2-16 0-30-6t-25-17zM1 26l281 281 17-17-85-86 63-63q11-11 17-25t6-30q0-16-6-30t-17-25q-11-11-25-17t-30-6q-16 0-30 6t-25 17l-28 27h8q12 0 25 3l12-12q16-16 38-16t37.5 15.5Q275 64 275 86t-16 38l-63 63-73-73q12-6 24-6 22 0 37 16 11 10 14 25l20-19q-6-14-16.5-24.5T177 89q-14-6-30-6-23 0-42 12L18 9 1 26zM0 230q0 16 6 30t17 25q11 11 25 17t30 6q16 0 30-6t25-17l28-27h-8q-12 0-25-3l-12 12q-16 16-38 16t-37.5-15.5Q25 252 25 230t16-38l45-46-17-17-46 46q-11 11-17 25t-6 30z"/></svg>