<svg viewBox="0 0 300 320" xmlns="http://www.w3.org/2000/svg"><path d="M75 239q0-33 20.5-59.5T147 146q23-5 38-25t15-43.5Q200 54 187.5 37t-33-23.5Q134 7 113 12q-32 9-58 30T14.5 93.5Q0 124 0 158q0 47 26.5 85T96 298q-21-26-21-59zm56-181q8 0 13.5 5.5T150 77q0 8-5.5 13T131 95q-8 0-13-5t-5-13q0-8 5-13.5t13-5.5zm73-40q21 26 21 59t-20.5 59.5Q184 163 153 170q-23 5-38 25t-15 43.5q0 23.5 12.5 40.5t33 23.5q20.5 6.5 41.5.5 32-8 58-29t40.5-51.5Q300 192 300 158q0-47-26.5-85T204 18zm-35 240q-8 0-13.5-5.5T150 239q0-8 5.5-13.5T169 220q8 0 13.5 5.5T188 239q0 8-5.5 13.5T169 258z"/></svg>